<?xml version="1.0" encoding="UTF-8"?>
<svg height="34" width="92.5" version="1.1" xmlns="http://www.w3.org/2000/svg">
    <rect
        height="32"
        width="90.5"
        rx="1"
        ry="1"
        x="1"
        y="1"
        fill="#dad8d8"
        stroke="#766f6f"
        stroke-width="1"
         />
    <g transform="translate(0, 14)">
        <path fill="#766f6f" d="M16.27-6.53L16.27-6.53Q19.58-6.53 21.40-5.17Q23.22-3.81 23.22-0.73L23.22-0.73Q23.22 2.38 21.38 3.76Q19.55 5.15 16.19 5.15L16.19 5.15L14.96 5.15L14.96 11L11.51 11L11.51-6.11Q12.02-6.22 12.65-6.30Q13.28-6.39 13.92-6.43Q14.56-6.47 15.18-6.50Q15.80-6.53 16.27-6.53ZM16.66-3.53L16.66-3.53Q16.36-3.53 15.81-3.52Q15.26-3.50 14.96-3.45L14.96-3.45L14.96 2.15L16.36 2.15Q18.01 2.15 18.85 1.49Q19.69 0.84 19.69-0.76L19.69-0.76Q19.69-2.27 18.86-2.90Q18.04-3.53 16.66-3.53ZM36.88 8.14L36.88 11L25.99 11L25.99-6.33L29.46-6.33L29.46 8.14L36.88 8.14ZM44.50 8.48L44.50 8.48Q45.36 8.48 45.94 8.30Q46.51 8.12 46.85 7.79Q47.18 7.47 47.31 7.07Q47.44 6.66 47.44 6.24L47.44 6.24Q47.44 5.71 47.13 5.29Q46.82 4.87 46.34 4.55Q45.87 4.22 45.28 3.96Q44.69 3.69 44.10 3.47L44.10 3.47Q43.32 3.19 42.48 2.82Q41.64 2.46 40.95 1.90Q40.27 1.34 39.82 0.51Q39.37-0.31 39.37-1.54L39.37-1.54Q39.37-3.98 40.95-5.35Q42.54-6.72 45.31-6.72L45.31-6.72Q46.90-6.72 48.09-6.36Q49.28-6.00 50.10-5.55L50.10-5.55L49.09-2.89Q48.39-3.28 47.53-3.56Q46.68-3.84 45.56-3.84L45.56-3.84Q42.82-3.84 42.82-1.85L42.82-1.85Q42.82-1.35 43.10-0.97Q43.38-0.59 43.81-0.30Q44.24-0.00 44.79 0.22Q45.34 0.44 45.87 0.64L45.87 0.64Q46.68 0.95 47.56 1.33Q48.44 1.70 49.19 2.33Q49.93 2.96 50.40 3.90Q50.88 4.84 50.88 6.27L50.88 6.27Q50.88 8.70 49.30 10.03Q47.72 11.36 44.50 11.36L44.50 11.36Q42.34 11.36 41.05 10.90Q39.76 10.44 39.12 10.05L39.12 10.05L40.13 7.25Q40.88 7.70 41.93 8.09Q42.98 8.48 44.50 8.48ZM52.76 2.40L52.76 2.40Q52.76-2.08 54.41-4.36Q56.06-6.64 59-6.64L59-6.64Q62.05-6.64 63.65-4.36Q65.24-2.08 65.24 2.40L65.24 2.40Q65.24 6.32 63.98 8.58Q62.72 10.83 60.34 11.31L60.34 11.31Q60.65 12.01 61.84 12.47Q63.03 12.93 65.10 13.30L65.10 13.30L64.38 15.76Q61.10 15.31 59.43 14.26Q57.77 13.21 57.46 11.25L57.46 11.25Q55.19 10.69 53.97 8.47Q52.76 6.24 52.76 2.40ZM56.26 2.40L56.26 2.40Q56.26 3.66 56.35 4.76Q56.45 5.85 56.75 6.67Q57.04 7.50 57.57 7.98Q58.10 8.45 59 8.45L59 8.45Q59.87 8.45 60.41 7.98Q60.96 7.50 61.25 6.67Q61.55 5.85 61.65 4.76Q61.74 3.66 61.74 2.40L61.74 2.40Q61.74 1.14 61.65 0.04Q61.55-1.07 61.25-1.88Q60.96-2.69 60.43-3.17Q59.90-3.64 59-3.64L59-3.64Q58.10-3.64 57.57-3.17Q57.04-2.69 56.75-1.87Q56.45-1.04 56.35 0.05Q56.26 1.14 56.26 2.40ZM78.88 8.14L78.88 11L67.99 11L67.99-6.33L71.46-6.33L71.46 8.14L78.88 8.14Z"/>
    </g>
</svg>