<?xml version="1.0" encoding="UTF-8"?>
<svg height="26" width="66.3" version="1.1" xmlns="http://www.w3.org/2000/svg"><!--Created by Josélio de S. C. Júnior - 2021 - https://github.com/joseliojunior -->
    <rect
        height="24"
        width="64.3"
        rx="12"
        ry="12"
        x="1" y="1"
        fill="#f34b7d"
        stroke="#990b35"
        stroke-width="1" />
    <g transform="translate(0, 8)">
        <path fill="#990b35" d="M24.74 10.21L24.74 10.21Q22.64 10.21 21.54 8.86Q20.43 7.52 20.43 5.04L20.43 5.04Q20.43 3.81 20.77 2.85Q21.10 1.89 21.70 1.22Q22.30 0.56 23.13 0.22Q23.95-0.13 24.93-0.13L24.93-0.13Q25.46-0.13 25.88-0.04Q26.30 0.05 26.62 0.16Q26.94 0.27 27.16 0.40Q27.38 0.53 27.49 0.59L27.49 0.59L26.98 2.16Q26.61 1.92 26.09 1.75Q25.57 1.58 24.90 1.58L24.90 1.58Q24.43 1.58 23.99 1.75Q23.55 1.92 23.21 2.31Q22.86 2.70 22.65 3.36Q22.43 4.02 22.43 4.99L22.43 4.99Q22.43 6.69 23.02 7.59Q23.60 8.50 24.93 8.50L24.93 8.50Q25.70 8.50 26.20 8.32Q26.70 8.14 27.01 7.97L27.01 7.97L27.50 9.52Q27.09 9.78 26.38 9.99Q25.66 10.21 24.74 10.21ZM28.64 6.61L28.64 4.99L31.15 4.99L31.15 2.21L32.85 2.21L32.85 4.99L35.36 4.99L35.36 6.61L32.85 6.61L32.85 9.39L31.15 9.39L31.15 6.61L28.64 6.61ZM36.64 6.61L36.64 4.99L39.15 4.99L39.15 2.21L40.85 2.21L40.85 4.99L43.36 4.99L43.36 6.61L40.85 6.61L40.85 9.39L39.15 9.39L39.15 6.61L36.64 6.61Z"/>
    </g>
</svg>