<?xml version="1.0" encoding="UTF-8"?>
<svg height="26" width="106.8" version="1.1" xmlns="http://www.w3.org/2000/svg"><!--Created by Josélio de S. C. Júnior - 2021 - https://github.com/joseliojunior -->
    <rect
        height="24"
        width="104.8"
        rx="12"
        ry="12"
        x="1" y="1"
        fill="#73a0c5"
        stroke="#2f526f"
        stroke-width="1" />
    <g transform="translate(0, 8)">
        <path fill="#2f526f" stroke="none" d="M27.86 10L25.74 10L25.28 7.71L22.64 7.71L22.19 10L20.14 10Q20.85 7.07 21.57 4.66Q22.29 2.26 22.96 0.10L22.96 0.10L25.10 0.10Q25.81 2.27 26.50 4.71Q27.20 7.15 27.86 10L27.86 10ZM23.98 2.02L23.98 2.02Q23.82 2.58 23.69 3.08Q23.55 3.58 23.43 4.07Q23.31 4.56 23.21 5.06Q23.10 5.55 23.01 6.08L23.01 6.08L24.94 6.08Q24.85 5.55 24.75 5.06Q24.66 4.56 24.54 4.07Q24.42 3.58 24.28 3.08Q24.14 2.58 23.98 2.02ZM31.65 8.51L31.65 8.51Q32.37 8.51 32.75 8.41Q33.14 8.30 33.14 7.98L33.14 7.98Q33.14 7.78 33.02 7.63Q32.90 7.49 32.68 7.38Q32.46 7.28 32.18 7.18Q31.90 7.09 31.60 6.99L31.60 6.99Q31.17 6.86 30.72 6.70Q30.27 6.53 29.90 6.27Q29.54 6.02 29.30 5.62Q29.06 5.23 29.06 4.64L29.06 4.64Q29.06 4.16 29.24 3.74Q29.42 3.31 29.82 2.98Q30.21 2.66 30.82 2.47Q31.42 2.29 32.27 2.29L32.27 2.29Q33.01 2.29 33.64 2.40Q34.27 2.51 34.74 2.72L34.74 2.72L34.43 4.38Q34.16 4.30 33.58 4.12Q33.01 3.94 32.29 3.94L32.29 3.94Q31.54 3.94 31.27 4.12Q31.01 4.30 31.01 4.51L31.01 4.51Q31.01 4.69 31.13 4.82Q31.25 4.96 31.45 5.07Q31.65 5.18 31.91 5.29Q32.18 5.39 32.48 5.49L32.48 5.49Q32.91 5.63 33.38 5.81Q33.84 5.98 34.22 6.25Q34.59 6.51 34.83 6.92Q35.07 7.33 35.07 7.92L35.07 7.92Q35.07 8.38 34.90 8.80Q34.72 9.22 34.31 9.52Q33.90 9.82 33.25 10Q32.59 10.18 31.63 10.18L31.63 10.18Q30.66 10.18 29.97 9.95Q29.28 9.73 28.86 9.55L28.86 9.55L29.17 7.90Q29.73 8.13 30.36 8.32Q30.99 8.51 31.65 8.51ZM36.70 6.24L36.70 6.24Q36.70 5.42 36.96 4.70Q37.22 3.98 37.74 3.45Q38.27 2.91 39.08 2.60Q39.89 2.29 41.01 2.29L41.01 2.29Q41.68 2.29 42.22 2.38Q42.77 2.48 43.33 2.70L43.33 2.70L42.90 4.29Q42.58 4.18 42.18 4.09Q41.79 4 41.18 4L41.18 4Q40.48 4 40.01 4.17Q39.54 4.34 39.25 4.63Q38.96 4.93 38.83 5.34Q38.70 5.76 38.70 6.24L38.70 6.24Q38.70 7.28 39.29 7.87Q39.87 8.46 41.28 8.46L41.28 8.46Q41.74 8.46 42.25 8.40Q42.75 8.34 43.17 8.19L43.17 8.19L43.46 9.81Q43.04 9.97 42.45 10.07Q41.86 10.18 41.06 10.18L41.06 10.18Q39.90 10.18 39.08 9.87Q38.26 9.57 37.73 9.04Q37.20 8.51 36.95 7.79Q36.70 7.07 36.70 6.24ZM48.54 0.32L48.54 0.32Q48.54 0.90 48.18 1.23Q47.81 1.57 47.30 1.57L47.30 1.57Q46.78 1.57 46.42 1.23Q46.06 0.90 46.06 0.32L46.06 0.32Q46.06-0.27 46.42-0.61Q46.78-0.94 47.30-0.94L47.30-0.94Q47.81-0.94 48.18-0.61Q48.54-0.27 48.54 0.32ZM51.22 8.10L51.47 9.68Q50.86 9.97 50.33 10.07Q49.79 10.18 49.34 10.18L49.34 10.18Q48.58 10.18 48.06 9.95Q47.54 9.73 47.22 9.30Q46.91 8.88 46.78 8.27Q46.66 7.66 46.66 6.88L46.66 6.88L46.66 4.11L44.58 4.11L44.58 2.48L48.62 2.48L48.62 7.14Q48.62 7.81 48.87 8.14Q49.12 8.46 49.70 8.46L49.70 8.46Q49.97 8.46 50.35 8.39Q50.74 8.32 51.22 8.10L51.22 8.10ZM56.54 0.32L56.54 0.32Q56.54 0.90 56.18 1.23Q55.81 1.57 55.30 1.57L55.30 1.57Q54.78 1.57 54.42 1.23Q54.06 0.90 54.06 0.32L54.06 0.32Q54.06-0.27 54.42-0.61Q54.78-0.94 55.30-0.94L55.30-0.94Q55.81-0.94 56.18-0.61Q56.54-0.27 56.54 0.32ZM59.22 8.10L59.47 9.68Q58.86 9.97 58.33 10.07Q57.79 10.18 57.34 10.18L57.34 10.18Q56.58 10.18 56.06 9.95Q55.54 9.73 55.22 9.30Q54.91 8.88 54.78 8.27Q54.66 7.66 54.66 6.88L54.66 6.88L54.66 4.11L52.58 4.11L52.58 2.48L56.62 2.48L56.62 7.14Q56.62 7.81 56.87 8.14Q57.12 8.46 57.70 8.46L57.70 8.46Q57.97 8.46 58.35 8.39Q58.74 8.32 59.22 8.10L59.22 8.10ZM62.83 1.74L62.83 8.40Q62.91 8.42 63.01 8.42Q63.10 8.42 63.18 8.42L63.18 8.42Q63.86 8.42 64.31 8.16Q64.77 7.90 65.05 7.46Q65.33 7.01 65.45 6.39Q65.57 5.78 65.57 5.04L65.57 5.04Q65.57 4.40 65.47 3.79Q65.38 3.18 65.14 2.72Q64.90 2.26 64.48 1.98Q64.06 1.70 63.41 1.70L63.41 1.70Q63.28 1.70 63.12 1.70Q62.96 1.71 62.83 1.74L62.83 1.74ZM67.57 5.04L67.57 5.04Q67.57 6.42 67.22 7.38Q66.88 8.35 66.27 8.96Q65.66 9.57 64.82 9.85Q63.98 10.13 62.98 10.13L62.98 10.13Q62.45 10.13 61.94 10.07Q61.44 10.02 60.86 9.89L60.86 9.89L60.86 0.22Q61.54 0.08 62.13 0.03Q62.72-0.02 63.23-0.02L63.23-0.02Q64.21-0.02 65.02 0.27Q65.82 0.56 66.38 1.18Q66.94 1.79 67.26 2.74Q67.57 3.70 67.57 5.04ZM75.55 6.22L75.55 6.22Q75.55 7.12 75.30 7.85Q75.04 8.58 74.58 9.10Q74.11 9.63 73.46 9.92Q72.82 10.21 72.02 10.21L72.02 10.21Q71.22 10.21 70.57 9.92Q69.92 9.63 69.45 9.10Q68.98 8.58 68.72 7.85Q68.46 7.12 68.46 6.22L68.46 6.22Q68.46 5.34 68.73 4.62Q68.99 3.89 69.46 3.37Q69.94 2.85 70.59 2.57Q71.25 2.29 72.02 2.29L72.02 2.29Q72.80 2.29 73.45 2.57Q74.10 2.85 74.57 3.37Q75.04 3.89 75.30 4.62Q75.55 5.34 75.55 6.22ZM70.46 6.24L70.46 6.24Q70.46 7.25 70.82 7.87Q71.18 8.50 71.98 8.50L71.98 8.50Q72.75 8.50 73.14 7.87Q73.54 7.25 73.54 6.24L73.54 6.24Q73.54 5.23 73.18 4.62Q72.82 4 72.02 4L72.02 4Q71.25 4 70.86 4.62Q70.46 5.23 70.46 6.24ZM76.70 6.24L76.70 6.24Q76.70 5.42 76.96 4.70Q77.22 3.98 77.74 3.45Q78.27 2.91 79.08 2.60Q79.89 2.29 81.01 2.29L81.01 2.29Q81.68 2.29 82.22 2.38Q82.77 2.48 83.33 2.70L83.33 2.70L82.90 4.29Q82.58 4.18 82.18 4.09Q81.79 4 81.18 4L81.18 4Q80.48 4 80.01 4.17Q79.54 4.34 79.25 4.63Q78.96 4.93 78.83 5.34Q78.70 5.76 78.70 6.24L78.70 6.24Q78.70 7.28 79.29 7.87Q79.87 8.46 81.28 8.46L81.28 8.46Q81.74 8.46 82.25 8.40Q82.75 8.34 83.17 8.19L83.17 8.19L83.46 9.81Q83.04 9.97 82.45 10.07Q81.86 10.18 81.06 10.18L81.06 10.18Q79.90 10.18 79.08 9.87Q78.26 9.57 77.73 9.04Q77.20 8.51 76.95 7.79Q76.70 7.07 76.70 6.24Z"/>
    </g>
</svg>