<?xml version="1.0" encoding="UTF-8"?><svg height="34" width="138.8" version="1.1" xmlns="http://www.w3.org/2000/svg"><!--Created by Josélio de S. C. Júnior - 2021 - https://github.com/joseliojunior --><rect height="32" width="136.8" rx="1" ry="1" x="1" y="1" fill="#73a0c5" stroke="#2f526f" stroke-width="1" /><g transform="translate(0, 12)"><path fill="#2f526f" d="M31.78 12L28.62 12L27.92 8.57L23.96 8.57L23.29 12L20.22 12Q21.27 7.61 22.35 4.00Q23.43 0.38 24.44-2.86L24.44-2.86L27.66-2.86Q28.71 0.41 29.76 4.07Q30.80 7.73 31.78 12L31.78 12ZM25.98 0.02L25.98 0.02Q25.74 0.86 25.53 1.62Q25.33 2.38 25.15 3.11Q24.97 3.84 24.81 4.58Q24.66 5.33 24.51 6.12L24.51 6.12L27.42 6.12Q27.27 5.33 27.13 4.58Q26.98 3.84 26.80 3.11Q26.62 2.38 26.42 1.62Q26.22 0.86 25.98 0.02ZM37.47 9.77L37.47 9.77Q38.55 9.77 39.13 9.61Q39.70 9.46 39.70 8.98L39.70 8.98Q39.70 8.66 39.52 8.45Q39.34 8.23 39.02 8.08Q38.70 7.92 38.28 7.78Q37.86 7.63 37.40 7.49L37.40 7.49Q36.75 7.30 36.08 7.04Q35.41 6.79 34.86 6.41Q34.30 6.02 33.94 5.44Q33.58 4.85 33.58 3.96L33.58 3.96Q33.58 3.24 33.86 2.60Q34.14 1.97 34.72 1.48Q35.31 0.98 36.22 0.71Q37.14 0.43 38.41 0.43L38.41 0.43Q39.51 0.43 40.46 0.60Q41.41 0.77 42.10 1.08L42.10 1.08L41.65 3.58Q41.24 3.46 40.38 3.18Q39.51 2.90 38.43 2.90L38.43 2.90Q37.30 2.90 36.91 3.18Q36.51 3.46 36.51 3.77L36.51 3.77Q36.51 4.03 36.69 4.24Q36.87 4.44 37.17 4.61Q37.47 4.78 37.87 4.93Q38.26 5.09 38.72 5.23L38.72 5.23Q39.37 5.45 40.06 5.71Q40.76 5.98 41.32 6.37Q41.89 6.77 42.25 7.38Q42.61 7.99 42.61 8.88L42.61 8.88Q42.61 9.58 42.34 10.20Q42.08 10.82 41.47 11.28Q40.86 11.74 39.87 12Q38.89 12.26 37.45 12.26L37.45 12.26Q35.98 12.26 34.95 11.93Q33.92 11.59 33.30 11.33L33.30 11.33L33.75 8.86Q34.59 9.19 35.54 9.48Q36.49 9.77 37.47 9.77ZM45.06 6.36L45.06 6.36Q45.06 5.14 45.44 4.06Q45.82 2.98 46.62 2.17Q47.41 1.37 48.62 0.90Q49.83 0.43 51.51 0.43L51.51 0.43Q52.52 0.43 53.34 0.58Q54.15 0.72 54.99 1.06L54.99 1.06L54.34 3.43Q53.86 3.26 53.28 3.13Q52.69 3 51.78 3L51.78 3Q50.72 3 50.01 3.25Q49.30 3.50 48.87 3.95Q48.44 4.39 48.25 5.02Q48.06 5.64 48.06 6.36L48.06 6.36Q48.06 7.92 48.93 8.81Q49.81 9.70 51.92 9.70L51.92 9.70Q52.62 9.70 53.37 9.60Q54.13 9.50 54.75 9.29L54.75 9.29L55.18 11.71Q54.56 11.95 53.67 12.11Q52.78 12.26 51.58 12.26L51.58 12.26Q49.86 12.26 48.62 11.81Q47.38 11.35 46.59 10.56Q45.80 9.77 45.43 8.69Q45.06 7.61 45.06 6.36ZM62.82-2.52L62.82-2.52Q62.82-1.66 62.26-1.15Q61.71-0.65 60.94-0.65L60.94-0.65Q60.18-0.65 59.64-1.15Q59.10-1.66 59.10-2.52L59.10-2.52Q59.10-3.41 59.64-3.91Q60.18-4.42 60.94-4.42L60.94-4.42Q61.71-4.42 62.26-3.91Q62.82-3.41 62.82-2.52ZM66.82 9.14L67.21 11.52Q66.30 11.95 65.49 12.11Q64.69 12.26 64.02 12.26L64.02 12.26Q62.86 12.26 62.08 11.93Q61.30 11.59 60.84 10.96Q60.37 10.32 60.18 9.41Q59.98 8.50 59.98 7.32L59.98 7.32L59.98 3.17L56.86 3.17L56.86 0.72L62.94 0.72L62.94 7.70Q62.94 8.71 63.31 9.20Q63.68 9.70 64.54 9.70L64.54 9.70Q64.95 9.70 65.53 9.59Q66.10 9.48 66.82 9.14L66.82 9.14ZM74.82-2.52L74.82-2.52Q74.82-1.66 74.26-1.15Q73.71-0.65 72.94-0.65L72.94-0.65Q72.18-0.65 71.64-1.15Q71.10-1.66 71.10-2.52L71.10-2.52Q71.10-3.41 71.64-3.91Q72.18-4.42 72.94-4.42L72.94-4.42Q73.71-4.42 74.26-3.91Q74.82-3.41 74.82-2.52ZM78.82 9.14L79.21 11.52Q78.30 11.95 77.49 12.11Q76.69 12.26 76.02 12.26L76.02 12.26Q74.86 12.26 74.08 11.93Q73.30 11.59 72.84 10.96Q72.37 10.32 72.18 9.41Q71.98 8.50 71.98 7.32L71.98 7.32L71.98 3.17L68.86 3.17L68.86 0.72L74.94 0.72L74.94 7.70Q74.94 8.71 75.31 9.20Q75.68 9.70 76.54 9.70L76.54 9.70Q76.95 9.70 77.53 9.59Q78.10 9.48 78.82 9.14L78.82 9.14ZM84.25-0.38L84.25 9.60Q84.37 9.62 84.51 9.62Q84.66 9.62 84.78 9.62L84.78 9.62Q85.78 9.62 86.47 9.24Q87.15 8.86 87.57 8.18Q87.99 7.51 88.17 6.59Q88.35 5.66 88.35 4.56L88.35 4.56Q88.35 3.60 88.21 2.69Q88.06 1.78 87.70 1.08Q87.34 0.38 86.72-0.04Q86.10-0.46 85.11-0.46L85.11-0.46Q84.92-0.46 84.68-0.44Q84.44-0.43 84.25-0.38L84.25-0.38ZM91.35 4.56L91.35 4.56Q91.35 6.62 90.84 8.08Q90.32 9.53 89.41 10.44Q88.50 11.35 87.24 11.77Q85.98 12.19 84.46 12.19L84.46 12.19Q83.67 12.19 82.92 12.11Q82.16 12.02 81.30 11.83L81.30 11.83L81.30-2.66Q82.30-2.88 83.19-2.95Q84.08-3.02 84.85-3.02L84.85-3.02Q86.31-3.02 87.52-2.59Q88.74-2.16 89.58-1.24Q90.42-0.31 90.88 1.12Q91.35 2.54 91.35 4.56ZM103.33 6.34L103.33 6.34Q103.33 7.68 102.94 8.77Q102.56 9.86 101.86 10.66Q101.17 11.45 100.20 11.88Q99.22 12.31 98.02 12.31L98.02 12.31Q96.82 12.31 95.85 11.88Q94.88 11.45 94.17 10.66Q93.46 9.86 93.08 8.77Q92.70 7.68 92.70 6.34L92.70 6.34Q92.70 5.02 93.09 3.92Q93.49 2.83 94.20 2.05Q94.90 1.27 95.89 0.85Q96.87 0.43 98.02 0.43L98.02 0.43Q99.20 0.43 100.17 0.85Q101.14 1.27 101.85 2.05Q102.56 2.83 102.94 3.92Q103.33 5.02 103.33 6.34ZM95.70 6.36L95.70 6.36Q95.70 7.87 96.24 8.81Q96.78 9.74 97.98 9.74L97.98 9.74Q99.13 9.74 99.72 8.81Q100.30 7.87 100.30 6.36L100.30 6.36Q100.30 4.85 99.76 3.92Q99.22 3 98.02 3L98.02 3Q96.87 3 96.28 3.92Q95.70 4.85 95.70 6.36ZM105.06 6.36L105.06 6.36Q105.06 5.14 105.44 4.06Q105.82 2.98 106.62 2.17Q107.41 1.37 108.62 0.90Q109.83 0.43 111.51 0.43L111.51 0.43Q112.52 0.43 113.34 0.58Q114.15 0.72 114.99 1.06L114.99 1.06L114.34 3.43Q113.86 3.26 113.28 3.13Q112.69 3 111.78 3L111.78 3Q110.72 3 110.01 3.25Q109.30 3.50 108.87 3.95Q108.44 4.39 108.25 5.02Q108.06 5.64 108.06 6.36L108.06 6.36Q108.06 7.92 108.93 8.81Q109.81 9.70 111.92 9.70L111.92 9.70Q112.62 9.70 113.37 9.60Q114.13 9.50 114.75 9.29L114.75 9.29L115.18 11.71Q114.56 11.95 113.67 12.11Q112.78 12.26 111.58 12.26L111.58 12.26Q109.86 12.26 108.62 11.81Q107.38 11.35 106.59 10.56Q105.80 9.77 105.43 8.69Q105.06 7.61 105.06 6.36Z"/></g></svg>