<?xml version="1.0" encoding="UTF-8"?>
<svg height="34" width="90.4" version="1.1" xmlns="http://www.w3.org/2000/svg"><!--Created by Josélio de S. C. Júnior - 2021 - https://github.com/joseliojunior -->
    <defs>
        <pattern id="pattern"
                x="1.5" y="3" width="3" height="6"
                patternUnits="userSpaceOnUse"
                patternTransform="rotate(45)" >
            <rect height="6" width="1" fill="#999999"/>
        </pattern>
    </defs>
    <rect
        height="32"
        width="88.4"
        rx="1"
        ry="1"
        x="1" y="1"
        fill="url(#pattern)"
        stroke="#000000"
        stroke-width="1" />
    <g transform="translate(0, 12)">
        <path fill="#ffffff" stroke="#000000" d="M30.90 12L28.52 12Q27.51 9.53 26.32 7.07Q25.14 4.61 23.77 2.14L23.77 2.14L23.77 12L21.10 12L21.10-2.86L23.48-2.86Q24.15-1.80 24.82-0.56Q25.50 0.67 26.13 1.90Q26.77 3.12 27.31 4.27Q27.85 5.42 28.23 6.29L28.23 6.29L28.23-2.86L30.90-2.86L30.90 12ZM43.78 12L40.62 12L39.92 8.57L35.96 8.57L35.29 12L32.22 12Q33.27 7.61 34.35 4.00Q35.43 0.38 36.44-2.86L36.44-2.86L39.66-2.86Q40.71 0.41 41.76 4.07Q42.80 7.73 43.78 12L43.78 12ZM37.98 0.02L37.98 0.02Q37.74 0.86 37.53 1.62Q37.33 2.38 37.15 3.11Q36.97 3.84 36.81 4.58Q36.66 5.33 36.51 6.12L36.51 6.12L39.42 6.12Q39.27 5.33 39.13 4.58Q38.98 3.84 38.80 3.11Q38.62 2.38 38.42 1.62Q38.22 0.86 37.98 0.02ZM49.57 9.84L49.57 9.84Q50.31 9.84 50.80 9.68Q51.30 9.53 51.58 9.25Q51.87 8.98 51.98 8.63Q52.09 8.28 52.09 7.92L52.09 7.92Q52.09 7.46 51.82 7.10Q51.56 6.74 51.15 6.47Q50.74 6.19 50.24 5.96Q49.74 5.74 49.23 5.54L49.23 5.54Q48.56 5.30 47.84 4.99Q47.12 4.68 46.53 4.20Q45.94 3.72 45.56 3.01Q45.18 2.30 45.18 1.25L45.18 1.25Q45.18-0.84 46.53-2.02Q47.89-3.19 50.26-3.19L50.26-3.19Q51.63-3.19 52.65-2.88Q53.67-2.57 54.37-2.18L54.37-2.18L53.50 0.10Q52.90-0.24 52.17-0.48Q51.44-0.72 50.48-0.72L50.48-0.72Q48.13-0.72 48.13 0.98L48.13 0.98Q48.13 1.42 48.37 1.74Q48.61 2.06 48.98 2.32Q49.35 2.57 49.82 2.76Q50.29 2.95 50.74 3.12L50.74 3.12Q51.44 3.38 52.20 3.71Q52.95 4.03 53.59 4.57Q54.22 5.11 54.63 5.92Q55.04 6.72 55.04 7.94L55.04 7.94Q55.04 10.03 53.68 11.17Q52.33 12.31 49.57 12.31L49.57 12.31Q47.72 12.31 46.62 11.92Q45.51 11.52 44.96 11.18L44.96 11.18L45.82 8.78Q46.47 9.17 47.37 9.50Q48.27 9.84 49.57 9.84ZM67.04 9.55L67.04 12L57.70 12L57.70-2.86L60.68-2.86L60.68 9.55L67.04 9.55Z"/>
    </g>
</svg>