<?xml version="1.0" encoding="UTF-8"?>
<svg height="34" width="360.4" version="1.1" xmlns="http://www.w3.org/2000/svg">
    <rect
        height="32"
        width="358.4"
        rx="1"
        ry="1"
        x="1"
        y="1"
        fill="#B5314C"
        stroke="#3c1019"
        stroke-width="1"
         />
    <g transform="translate(0, 14)">
        <path fill="#3c1019" d="M18.29 11.36L18.29 11.36Q14.62 11.36 12.69 9.01Q10.76 6.66 10.76 2.32L10.76 2.32Q10.76 0.16 11.34-1.52Q11.93-3.20 12.98-4.36Q14.03-5.52 15.47-6.12Q16.92-6.72 18.62-6.72L18.62-6.72Q19.55-6.72 20.29-6.57Q21.03-6.42 21.59-6.22Q22.15-6.02 22.53-5.80Q22.91-5.58 23.10-5.46L23.10-5.46L22.21-2.72Q21.56-3.14 20.65-3.43Q19.74-3.73 18.57-3.73L18.57-3.73Q17.76-3.73 16.99-3.43Q16.22-3.14 15.61-2.45Q15.01-1.77 14.63-0.62Q14.26 0.53 14.26 2.24L14.26 2.24Q14.26 5.20 15.28 6.79Q16.30 8.37 18.62 8.37L18.62 8.37Q19.97 8.37 20.85 8.06Q21.73 7.75 22.26 7.44L22.26 7.44L23.13 10.16Q22.40 10.61 21.16 10.99Q19.91 11.36 18.29 11.36ZM37.22 4.39L37.22 4.39Q37.22 5.96 36.77 7.23Q36.32 8.51 35.51 9.43Q34.70 10.36 33.56 10.86Q32.43 11.36 31.03 11.36L31.03 11.36Q29.63 11.36 28.49 10.86Q27.36 10.36 26.53 9.43Q25.71 8.51 25.26 7.23Q24.81 5.96 24.81 4.39L24.81 4.39Q24.81 2.85 25.27 1.58Q25.74 0.30 26.56-0.61Q27.39-1.52 28.54-2.01Q29.68-2.50 31.03-2.50L31.03-2.50Q32.40-2.50 33.53-2.01Q34.67-1.52 35.49-0.61Q36.32 0.30 36.77 1.58Q37.22 2.85 37.22 4.39ZM28.31 4.42L28.31 4.42Q28.31 6.18 28.94 7.28Q29.57 8.37 30.97 8.37L30.97 8.37Q32.32 8.37 33.00 7.28Q33.69 6.18 33.69 4.42L33.69 4.42Q33.69 2.66 33.06 1.58Q32.43 0.50 31.03 0.50L31.03 0.50Q29.68 0.50 29.00 1.58Q28.31 2.66 28.31 4.42ZM47.60-2.30L47.60-2.30Q48.70-2.30 49.40-1.96Q50.10-1.63 50.50-0.96Q50.91-0.28 51.05 0.74Q51.19 1.76 51.19 3.13L51.19 3.13L51.19 11L48.39 11L48.39 2.96Q48.39 2.18 48.29 1.70Q48.19 1.23 48.04 0.98Q47.88 0.72 47.67 0.64Q47.46 0.56 47.24 0.56L47.24 0.56Q46.99 0.56 46.71 0.60Q46.43 0.64 46.20 0.75L46.20 0.75Q46.29 1.28 46.34 1.93Q46.40 2.57 46.40 3.36L46.40 3.36L46.40 5.99L43.60 5.99L43.60 2.96Q43.60 1.62 43.33 1.09Q43.07 0.56 42.48 0.56L42.48 0.56Q42.31 0.56 42.07 0.58Q41.84 0.61 41.61 0.67L41.61 0.67L41.61 11L38.81 11L38.81-1.66Q39.90-1.96 40.97-2.13Q42.03-2.30 42.84-2.30L42.84-2.30Q43.57-2.30 44.15-2.12Q44.72-1.94 45.14-1.52L45.14-1.52Q45.62-1.82 46.26-2.06Q46.90-2.30 47.60-2.30ZM61.60-2.30L61.60-2.30Q62.70-2.30 63.40-1.96Q64.10-1.63 64.50-0.96Q64.91-0.28 65.05 0.74Q65.19 1.76 65.19 3.13L65.19 3.13L65.19 11L62.39 11L62.39 2.96Q62.39 2.18 62.29 1.70Q62.19 1.23 62.04 0.98Q61.88 0.72 61.67 0.64Q61.46 0.56 61.24 0.56L61.24 0.56Q60.99 0.56 60.71 0.60Q60.43 0.64 60.20 0.75L60.20 0.75Q60.29 1.28 60.34 1.93Q60.40 2.57 60.40 3.36L60.40 3.36L60.40 5.99L57.60 5.99L57.60 2.96Q57.60 1.62 57.33 1.09Q57.07 0.56 56.48 0.56L56.48 0.56Q56.31 0.56 56.07 0.58Q55.84 0.61 55.61 0.67L55.61 0.67L55.61 11L52.81 11L52.81-1.66Q53.90-1.96 54.97-2.13Q56.03-2.30 56.84-2.30L56.84-2.30Q57.57-2.30 58.15-2.12Q58.72-1.94 59.14-1.52L59.14-1.52Q59.62-1.82 60.26-2.06Q60.90-2.30 61.60-2.30ZM79.22 4.39L79.22 4.39Q79.22 5.96 78.77 7.23Q78.32 8.51 77.51 9.43Q76.70 10.36 75.56 10.86Q74.43 11.36 73.03 11.36L73.03 11.36Q71.63 11.36 70.49 10.86Q69.36 10.36 68.53 9.43Q67.71 8.51 67.26 7.23Q66.81 5.96 66.81 4.39L66.81 4.39Q66.81 2.85 67.27 1.58Q67.74 0.30 68.56-0.61Q69.39-1.52 70.54-2.01Q71.68-2.50 73.03-2.50L73.03-2.50Q74.40-2.50 75.53-2.01Q76.67-1.52 77.49-0.61Q78.32 0.30 78.77 1.58Q79.22 2.85 79.22 4.39ZM70.31 4.42L70.31 4.42Q70.31 6.18 70.94 7.28Q71.57 8.37 72.97 8.37L72.97 8.37Q74.32 8.37 75.00 7.28Q75.69 6.18 75.69 4.42L75.69 4.42Q75.69 2.66 75.06 1.58Q74.43 0.50 73.03 0.50L73.03 0.50Q71.68 0.50 71.00 1.58Q70.31 2.66 70.31 4.42ZM81.76 11L81.76-1.74Q82.69-1.99 84.05-2.22Q85.40-2.44 87-2.44L87-2.44Q88.57-2.44 89.60-2.01Q90.64-1.57 91.24-0.77Q91.84 0.02 92.10 1.13Q92.35 2.24 92.35 3.58L92.35 3.58L92.35 11L88.90 11L88.90 4.03Q88.90 2.18 88.48 1.37Q88.06 0.56 86.78 0.56L86.78 0.56Q86.38 0.56 86.01 0.58Q85.63 0.61 85.21 0.67L85.21 0.67L85.21 11L81.76 11ZM113.77-0.20L116.29-0.20Q116.40 0.33 116.62 1.12Q116.85 1.90 117.11 2.85Q117.38 3.80 117.70 4.90Q118.02 5.99 118.33 7.14L118.33 7.14Q118.33 5.68 118.30 4.01Q118.28 2.35 118.25 0.61Q118.22-1.12 118.19-2.90Q118.16-4.68 118.16-6.33L118.16-6.33L121.36-6.33Q121.27-4.20 121.19-1.95Q121.10 0.30 120.99 2.53Q120.88 4.76 120.73 6.91Q120.57 9.07 120.38 11L120.38 11L117.52 11Q116.90 9.24 116.29 7.21Q115.67 5.18 115.06 3.33L115.06 3.33Q114.44 5.09 113.77 7.16Q113.10 9.24 112.54 11L112.54 11L109.68 11Q109.46 9.07 109.29 6.90Q109.12 4.73 108.99 2.50Q108.87 0.28 108.78-1.98Q108.70-4.23 108.64-6.33L108.64-6.33L111.84-6.33Q111.81-4.68 111.78-2.92Q111.75-1.15 111.72 0.60Q111.70 2.35 111.67 4.01Q111.64 5.68 111.64 7.14L111.64 7.14Q111.89 6.24 112.21 5.18Q112.54 4.11 112.83 3.08Q113.12 2.04 113.38 1.17Q113.63 0.30 113.77-0.20L113.77-0.20ZM135.22 4.39L135.22 4.39Q135.22 5.96 134.77 7.23Q134.32 8.51 133.51 9.43Q132.70 10.36 131.56 10.86Q130.43 11.36 129.03 11.36L129.03 11.36Q127.63 11.36 126.49 10.86Q125.36 10.36 124.53 9.43Q123.71 8.51 123.26 7.23Q122.81 5.96 122.81 4.39L122.81 4.39Q122.81 2.85 123.27 1.58Q123.74 0.30 124.56-0.61Q125.39-1.52 126.54-2.01Q127.68-2.50 129.03-2.50L129.03-2.50Q130.40-2.50 131.53-2.01Q132.67-1.52 133.49-0.61Q134.32 0.30 134.77 1.58Q135.22 2.85 135.22 4.39ZM126.31 4.42L126.31 4.42Q126.31 6.18 126.94 7.28Q127.57 8.37 128.97 8.37L128.97 8.37Q130.32 8.37 131.00 7.28Q131.69 6.18 131.69 4.42L131.69 4.42Q131.69 2.66 131.06 1.58Q130.43 0.50 129.03 0.50L129.03 0.50Q127.68 0.50 127.00 1.58Q126.31 2.66 126.31 4.42ZM148.85-1.85L148.24 1.34Q147.90 1.26 147.44 1.17Q146.98 1.09 146.50 1.02Q146.02 0.95 145.58 0.92Q145.13 0.89 144.82 0.89L144.82 0.89Q144.09 0.89 143.39 0.96Q142.69 1.03 141.96 1.23L141.96 1.23L141.96 11L138.49 11L138.49-1.29Q139.86-1.80 141.31-2.10Q142.75-2.41 144.68-2.41L144.68-2.41Q144.96-2.41 145.48-2.38Q146.00-2.36 146.58-2.29Q147.17-2.22 147.77-2.12Q148.38-2.02 148.85-1.85L148.85-1.85ZM155.24-8.43L155.24 3.05Q155.74 2.46 156.26 1.80Q156.78 1.14 157.27 0.44Q157.76-0.26 158.20-0.91Q158.65-1.57 158.99-2.16L158.99-2.16L163.13-2.16Q162.63-1.52 161.98-0.76Q161.34-0.00 160.65 0.78Q159.97 1.56 159.28 2.29Q158.60 3.02 158.04 3.64L158.04 3.64Q158.74 4.31 159.55 5.25Q160.36 6.18 161.14 7.19Q161.93 8.20 162.59 9.21Q163.24 10.22 163.64 11L163.64 11L159.69 11Q159.35 10.30 158.81 9.42Q158.26 8.54 157.64 7.68Q157.03 6.83 156.40 6.06Q155.77 5.29 155.24 4.78L155.24 4.78L155.24 11L151.76 11L151.76-7.84L155.24-8.43ZM171.36 11L167.89 11L167.89 0.70L165.01 0.70L165.01-2.16L167.89-2.16L167.89-2.92Q167.89-4.51 168.35-5.56Q168.82-6.61 169.60-7.24Q170.38-7.87 171.39-8.14Q172.40-8.40 173.46-8.40L173.46-8.40Q174.56-8.40 175.70-8.21Q176.85-8.01 177.78-7.56L177.78-7.56L177.19-4.76Q176.54-4.99 175.58-5.23Q174.61-5.46 173.74-5.46L173.74-5.46Q173.27-5.46 172.83-5.38Q172.40-5.30 172.08-5.02Q171.76-4.74 171.56-4.22Q171.36-3.70 171.36-2.86L171.36-2.86L171.36-2.16L176.77-2.16L176.77 0.70L171.36 0.70L171.36 11ZM190.63 7.67L191.08 10.44Q190.99 10.50 190.70 10.64Q190.40 10.78 189.93 10.93Q189.45 11.08 188.77 11.20Q188.08 11.31 187.21 11.31L187.21 11.31Q184.83 11.31 183.74 9.89Q182.65 8.48 182.65 5.76L182.65 5.76L182.65-5.41L179.01-5.41L179.01-8.26L186.09-8.26L186.09 6.02Q186.09 7.36 186.62 7.84Q187.16 8.31 187.97 8.31L187.97 8.31Q189.00 8.31 189.70 8.03Q190.40 7.75 190.63 7.67L190.63 7.67ZM205.22 4.39L205.22 4.39Q205.22 5.96 204.77 7.23Q204.32 8.51 203.51 9.43Q202.70 10.36 201.56 10.86Q200.43 11.36 199.03 11.36L199.03 11.36Q197.63 11.36 196.49 10.86Q195.36 10.36 194.53 9.43Q193.71 8.51 193.26 7.23Q192.81 5.96 192.81 4.39L192.81 4.39Q192.81 2.85 193.27 1.58Q193.74 0.30 194.56-0.61Q195.39-1.52 196.54-2.01Q197.68-2.50 199.03-2.50L199.03-2.50Q200.40-2.50 201.53-2.01Q202.67-1.52 203.49-0.61Q204.32 0.30 204.77 1.58Q205.22 2.85 205.22 4.39ZM196.31 4.42L196.31 4.42Q196.31 6.18 196.94 7.28Q197.57 8.37 198.97 8.37L198.97 8.37Q200.32 8.37 201.00 7.28Q201.69 6.18 201.69 4.42L201.69 4.42Q201.69 2.66 201.06 1.58Q200.43 0.50 199.03 0.50L199.03 0.50Q197.68 0.50 197.00 1.58Q196.31 2.66 196.31 4.42ZM217.62 11L215.02 11Q214.71 10.13 214.44 9.40Q214.18 8.68 213.94 7.99Q213.70 7.30 213.46 6.56Q213.22 5.82 212.97 4.92L212.97 4.92Q212.69 5.82 212.47 6.53Q212.24 7.25 212.01 7.95Q211.77 8.65 211.52 9.38Q211.26 10.10 210.90 11L210.90 11L208.30 11Q207.96 9.77 207.67 8.27Q207.37 6.77 207.12 5.08Q206.87 3.38 206.67 1.56Q206.48-0.26 206.31-2.16L206.31-2.16L209.25-2.16Q209.36 0.28 209.49 2.60Q209.61 4.92 209.95 7.39L209.95 7.39Q210.31 6.32 210.58 5.41Q210.84 4.50 211.05 3.68Q211.26 2.85 211.45 2.08Q211.63 1.31 211.82 0.50L211.82 0.50L214.32 0.50Q214.48 1.31 214.67 2.08Q214.85 2.85 215.06 3.68Q215.27 4.50 215.51 5.41Q215.74 6.32 216.08 7.39L216.08 7.39Q216.25 6.10 216.36 4.92Q216.47 3.75 216.54 2.59Q216.61 1.42 216.65 0.26Q216.70-0.90 216.75-2.16L216.75-2.16L219.69-2.16Q219.38 1.68 218.84 5.06Q218.29 8.45 217.62 11L217.62 11ZM246.88 8.14L246.88 11L235.99 11L235.99-6.33L239.46-6.33L239.46 8.14L246.88 8.14ZM255.03 8.54L255.03 8.54Q255.59 8.54 256.12 8.52Q256.65 8.51 257.04 8.45L257.04 8.45L257.04 5.43Q256.71 5.37 256.23 5.33Q255.76 5.29 255.36 5.29L255.36 5.29Q254.83 5.29 254.33 5.36Q253.82 5.43 253.45 5.60Q253.07 5.76 252.84 6.07Q252.62 6.38 252.62 6.88L252.62 6.88Q252.62 7.78 253.29 8.16Q253.96 8.54 255.03 8.54ZM254.72-2.50L254.72-2.50Q256.34-2.50 257.42-2.12Q258.50-1.74 259.14-1.05Q259.79-0.37 260.07 0.63Q260.35 1.62 260.35 2.85L260.35 2.85L260.35 10.69Q259.59 10.86 258.11 11.08Q256.62 11.31 254.78 11.31L254.78 11.31Q253.52 11.31 252.49 11.08Q251.47 10.86 250.74 10.34Q250.02 9.82 249.62 9.00Q249.23 8.17 249.23 6.97L249.23 6.97Q249.23 5.82 249.68 5.04Q250.13 4.25 250.88 3.78Q251.64 3.30 252.62 3.09Q253.60 2.88 254.66 2.88L254.66 2.88Q256.01 2.88 257.04 3.10L257.04 3.10L257.04 2.68Q257.04 1.70 256.43 1.05Q255.81 0.39 254.30 0.39L254.30 0.39Q253.32 0.39 252.41 0.53Q251.50 0.67 250.94 0.86L250.94 0.86L250.46-1.91Q251.11-2.13 252.28-2.31Q253.46-2.50 254.72-2.50ZM263.76 11L263.76-1.74Q264.69-1.99 266.05-2.22Q267.40-2.44 269-2.44L269-2.44Q270.57-2.44 271.60-2.01Q272.64-1.57 273.24-0.77Q273.84 0.02 274.10 1.13Q274.35 2.24 274.35 3.58L274.35 3.58L274.35 11L270.90 11L270.90 4.03Q270.90 2.18 270.48 1.37Q270.06 0.56 268.78 0.56L268.78 0.56Q268.38 0.56 268.01 0.58Q267.63 0.61 267.21 0.67L267.21 0.67L267.21 11L263.76 11ZM280.42 4L280.42 4Q280.42 5.62 281.01 6.48Q281.60 7.33 282.86 7.33L282.86 7.33Q283.42 7.33 283.91 7.19Q284.40 7.05 284.79 6.83L284.79 6.83L284.79 0.50Q284.40 0.42 284.09 0.39Q283.78 0.36 283.45 0.36L283.45 0.36Q280.42 0.36 280.42 4ZM288.26-1.74L288.26 9.40Q288.26 12.62 286.71 14.16Q285.16 15.70 281.71 15.70L281.71 15.70Q280.48 15.70 279.35 15.45Q278.21 15.20 277.18 14.86L277.18 14.86L277.82 11.95Q278.63 12.26 279.53 12.53Q280.42 12.79 281.77 12.79L281.77 12.79Q282.66 12.79 283.25 12.58Q283.84 12.37 284.18 12.01Q284.51 11.64 284.65 11.15Q284.79 10.66 284.79 10.10L284.79 10.10L284.79 9.57Q284.06 9.85 283.46 9.99Q282.86 10.13 282.16 10.13L282.16 10.13Q279.58 10.13 278.25 8.51Q276.92 6.88 276.92 4L276.92 4Q276.92 0.75 278.72-0.84Q280.51-2.44 283.59-2.44L283.59-2.44Q285.74-2.44 288.26-1.74L288.26-1.74ZM302.26-2.16L302.26 10.55Q301.31 10.80 299.95 11.06Q298.60 11.31 297 11.31L297 11.31Q295.38 11.31 294.34 10.86Q293.30 10.41 292.70 9.59Q292.10 8.76 291.88 7.64Q291.65 6.52 291.65 5.18L291.65 5.18L291.65-2.16L295.10-2.16L295.10 4.73Q295.10 6.55 295.53 7.43Q295.96 8.31 297.22 8.31L297.22 8.31Q298.01 8.31 298.79 8.17L298.79 8.17L298.79-2.16L302.26-2.16ZM311.03 8.54L311.03 8.54Q311.59 8.54 312.12 8.52Q312.65 8.51 313.04 8.45L313.04 8.45L313.04 5.43Q312.71 5.37 312.23 5.33Q311.76 5.29 311.36 5.29L311.36 5.29Q310.83 5.29 310.33 5.36Q309.82 5.43 309.45 5.60Q309.07 5.76 308.84 6.07Q308.62 6.38 308.62 6.88L308.62 6.88Q308.62 7.78 309.29 8.16Q309.96 8.54 311.03 8.54ZM310.72-2.50L310.72-2.50Q312.34-2.50 313.42-2.12Q314.50-1.74 315.14-1.05Q315.79-0.37 316.07 0.63Q316.35 1.62 316.35 2.85L316.35 2.85L316.35 10.69Q315.59 10.86 314.11 11.08Q312.62 11.31 310.78 11.31L310.78 11.31Q309.52 11.31 308.49 11.08Q307.47 10.86 306.74 10.34Q306.02 9.82 305.62 9.00Q305.23 8.17 305.23 6.97L305.23 6.97Q305.23 5.82 305.68 5.04Q306.13 4.25 306.88 3.78Q307.64 3.30 308.62 3.09Q309.60 2.88 310.66 2.88L310.66 2.88Q312.01 2.88 313.04 3.10L313.04 3.10L313.04 2.68Q313.04 1.70 312.43 1.05Q311.81 0.39 310.30 0.39L310.30 0.39Q309.32 0.39 308.41 0.53Q307.50 0.67 306.94 0.86L306.94 0.86L306.46-1.91Q307.11-2.13 308.28-2.31Q309.46-2.50 310.72-2.50ZM322.42 4L322.42 4Q322.42 5.62 323.01 6.48Q323.60 7.33 324.86 7.33L324.86 7.33Q325.42 7.33 325.91 7.19Q326.40 7.05 326.79 6.83L326.79 6.83L326.79 0.50Q326.40 0.42 326.09 0.39Q325.78 0.36 325.45 0.36L325.45 0.36Q322.42 0.36 322.42 4ZM330.26-1.74L330.26 9.40Q330.26 12.62 328.71 14.16Q327.16 15.70 323.71 15.70L323.71 15.70Q322.48 15.70 321.35 15.45Q320.21 15.20 319.18 14.86L319.18 14.86L319.82 11.95Q320.63 12.26 321.53 12.53Q322.42 12.79 323.77 12.79L323.77 12.79Q324.66 12.79 325.25 12.58Q325.84 12.37 326.18 12.01Q326.51 11.64 326.65 11.15Q326.79 10.66 326.79 10.10L326.79 10.10L326.79 9.57Q326.06 9.85 325.46 9.99Q324.86 10.13 324.16 10.13L324.16 10.13Q321.58 10.13 320.25 8.51Q318.92 6.88 318.92 4L318.92 4Q318.92 0.75 320.72-0.84Q322.51-2.44 325.59-2.44L325.59-2.44Q327.74-2.44 330.26-1.74L330.26-1.74ZM332.87 4.53L332.87 4.53Q332.87 2.80 333.40 1.48Q333.93 0.16 334.80-0.72Q335.67-1.60 336.79-2.05Q337.91-2.50 339.08-2.50L339.08-2.50Q342.00-2.50 343.51-0.77Q345.02 0.95 345.02 4.25L345.02 4.25Q345.02 4.59 345.01 4.95Q344.99 5.32 344.96 5.54L344.96 5.54L336.42 5.54Q336.42 6.83 337.49 7.57Q338.55 8.31 340.23 8.31L340.23 8.31Q341.27 8.31 342.21 8.09Q343.14 7.86 343.79 7.64L343.79 7.64L344.26 10.58Q343.37 10.89 342.36 11.10Q341.35 11.31 340.09 11.31L340.09 11.31Q338.41 11.31 337.08 10.87Q335.75 10.44 334.81 9.59Q333.88 8.73 333.37 7.47Q332.87 6.21 332.87 4.53ZM336.42 3.16L341.69 3.16Q341.69 2.63 341.55 2.14Q341.41 1.65 341.10 1.26Q340.79 0.86 340.32 0.63Q339.84 0.39 339.14 0.39L339.14 0.39Q338.47 0.39 337.98 0.61Q337.49 0.84 337.17 1.23Q336.84 1.62 336.66 2.12Q336.48 2.63 336.42 3.16L336.42 3.16Z"/>
    </g>
</svg>