<?xml version="1.0" encoding="UTF-8"?>
<svg height="322" width="102.5" version="1.1" xmlns="http://www.w3.org/2000/svg"><!--Created by Josélio de S. C. Júnior - 2021 - https://github.com/joseliojunior -->
    <rect
        height="32"
        width="100.5"
        rx="16"
        ry="16"
        x="1" y="1"
        fill="#c37240"
        stroke="#512f1a"
        stroke-width="1" />
    <g transform="translate(0, 12)">
        <path fill="#512f1a" stroke="none" d="M24.46 12L21.51 12L21.51-2.86L30.61-2.86L30.61-0.41L24.46-0.41L24.46 3.19L29.84 3.19L29.84 5.64L24.46 5.64L24.46 12ZM38.02 9.89L38.02 9.89Q38.50 9.89 38.96 9.88Q39.42 9.86 39.75 9.82L39.75 9.82L39.75 7.22Q39.46 7.18 39.06 7.14Q38.65 7.10 38.31 7.10L38.31 7.10Q37.86 7.10 37.42 7.16Q36.99 7.22 36.67 7.37Q36.34 7.51 36.15 7.78Q35.96 8.04 35.96 8.47L35.96 8.47Q35.96 9.24 36.54 9.56Q37.11 9.89 38.02 9.89ZM37.76 0.43L37.76 0.43Q39.15 0.43 40.08 0.76Q41 1.08 41.55 1.67Q42.10 2.26 42.34 3.11Q42.58 3.96 42.58 5.02L42.58 5.02L42.58 11.74Q41.94 11.88 40.66 12.07Q39.39 12.26 37.81 12.26L37.81 12.26Q36.73 12.26 35.85 12.07Q34.98 11.88 34.35 11.44Q33.73 10.99 33.39 10.28Q33.06 9.58 33.06 8.54L33.06 8.54Q33.06 7.56 33.44 6.89Q33.82 6.22 34.47 5.81Q35.12 5.40 35.96 5.22Q36.80 5.04 37.71 5.04L37.71 5.04Q38.86 5.04 39.75 5.23L39.75 5.23L39.75 4.87Q39.75 4.03 39.22 3.47Q38.70 2.90 37.40 2.90L37.40 2.90Q36.56 2.90 35.78 3.02Q35 3.14 34.52 3.31L34.52 3.31L34.11 0.94Q34.66 0.74 35.67 0.59Q36.68 0.43 37.76 0.43ZM54.51 0.72L54.51 11.62Q53.70 11.83 52.53 12.05Q51.37 12.26 50 12.26L50 12.26Q48.61 12.26 47.72 11.88Q46.83 11.50 46.32 10.79Q45.80 10.08 45.61 9.12Q45.42 8.16 45.42 7.01L45.42 7.01L45.42 0.72L48.37 0.72L48.37 6.62Q48.37 8.18 48.74 8.94Q49.11 9.70 50.19 9.70L50.19 9.70Q50.86 9.70 51.54 9.58L51.54 9.58L51.54 0.72L54.51 0.72ZM61.47 9.77L61.47 9.77Q62.55 9.77 63.13 9.61Q63.70 9.46 63.70 8.98L63.70 8.98Q63.70 8.66 63.52 8.45Q63.34 8.23 63.02 8.08Q62.70 7.92 62.28 7.78Q61.86 7.63 61.40 7.49L61.40 7.49Q60.75 7.30 60.08 7.04Q59.41 6.79 58.86 6.41Q58.30 6.02 57.94 5.44Q57.58 4.85 57.58 3.96L57.58 3.96Q57.58 3.24 57.86 2.60Q58.14 1.97 58.72 1.48Q59.31 0.98 60.22 0.71Q61.14 0.43 62.41 0.43L62.41 0.43Q63.51 0.43 64.46 0.60Q65.41 0.77 66.10 1.08L66.10 1.08L65.65 3.58Q65.24 3.46 64.38 3.18Q63.51 2.90 62.43 2.90L62.43 2.90Q61.30 2.90 60.91 3.18Q60.51 3.46 60.51 3.77L60.51 3.77Q60.51 4.03 60.69 4.24Q60.87 4.44 61.17 4.61Q61.47 4.78 61.87 4.93Q62.26 5.09 62.72 5.23L62.72 5.23Q63.37 5.45 64.06 5.71Q64.76 5.98 65.32 6.37Q65.89 6.77 66.25 7.38Q66.61 7.99 66.61 8.88L66.61 8.88Q66.61 9.58 66.34 10.20Q66.08 10.82 65.47 11.28Q64.86 11.74 63.87 12Q62.89 12.26 61.45 12.26L61.45 12.26Q59.98 12.26 58.95 11.93Q57.92 11.59 57.30 11.33L57.30 11.33L57.75 8.86Q58.59 9.19 59.54 9.48Q60.49 9.77 61.47 9.77ZM71.43 7.80L71.43 3.17L68.86 3.17L68.86 0.72L71.43 0.72L71.43-2.11L74.38-2.59L74.38 0.72L79.11 0.72L79.11 3.17L74.38 3.17L74.38 7.73Q74.38 8.35 74.50 8.74Q74.62 9.12 74.84 9.34Q75.06 9.55 75.37 9.62Q75.68 9.70 76.06 9.70L76.06 9.70Q76.47 9.70 76.82 9.67Q77.17 9.65 77.49 9.59Q77.82 9.53 78.16 9.41Q78.51 9.29 78.92 9.10L78.92 9.10L79.33 11.64Q78.51 11.98 77.56 12.12Q76.62 12.26 75.73 12.26L75.73 12.26Q74.70 12.26 73.90 12.10Q73.11 11.93 72.56 11.45Q72.01 10.97 71.72 10.09Q71.43 9.22 71.43 7.80L71.43 7.80Z"/>
    </g>
</svg>