<?xml version="1.0" encoding="UTF-8"?><svg height="26" width="82.5" version="1.1" xmlns="http://www.w3.org/2000/svg"><!--Created by Josélio de S. C. Júnior - 2021 - https://github.com/joseliojunior --><rect height="24" width="80.5" rx="1" ry="1" x="1" y="1" fill="#c37240" stroke="#512f1a" stroke-width="1" /><g transform="translate(0, 8)"><path fill="#512f1a" d="M22.98 10L21.01 10L21.01 0.10L27.07 0.10L27.07 1.73L22.98 1.73L22.98 4.13L26.56 4.13L26.56 5.76L22.98 5.76L22.98 10ZM32.02 8.59L32.02 8.59Q32.34 8.59 32.64 8.58Q32.94 8.58 33.17 8.54L33.17 8.54L33.17 6.82Q32.98 6.78 32.70 6.76Q32.43 6.74 32.21 6.74L32.21 6.74Q31.90 6.74 31.62 6.78Q31.33 6.82 31.11 6.91Q30.90 7.01 30.77 7.18Q30.64 7.36 30.64 7.65L30.64 7.65Q30.64 8.16 31.02 8.38Q31.41 8.59 32.02 8.59ZM31.84 2.29L31.84 2.29Q32.77 2.29 33.38 2.50Q34 2.72 34.37 3.11Q34.74 3.50 34.90 4.07Q35.06 4.64 35.06 5.34L35.06 5.34L35.06 9.82Q34.62 9.92 33.78 10.05Q32.93 10.18 31.87 10.18L31.87 10.18Q31.15 10.18 30.57 10.05Q29.98 9.92 29.57 9.62Q29.15 9.33 28.93 8.86Q28.70 8.38 28.70 7.70L28.70 7.70Q28.70 7.04 28.96 6.59Q29.22 6.14 29.65 5.87Q30.08 5.60 30.64 5.48Q31.20 5.36 31.81 5.36L31.81 5.36Q32.58 5.36 33.17 5.49L33.17 5.49L33.17 5.25Q33.17 4.69 32.82 4.31Q32.46 3.94 31.60 3.94L31.60 3.94Q31.04 3.94 30.52 4.02Q30 4.10 29.68 4.21L29.68 4.21L29.41 2.62Q29.78 2.50 30.45 2.39Q31.12 2.29 31.84 2.29ZM43.01 2.48L43.01 9.74Q42.46 9.89 41.69 10.03Q40.91 10.18 40 10.18L40 10.18Q39.07 10.18 38.48 9.92Q37.89 9.66 37.54 9.19Q37.20 8.72 37.07 8.08Q36.94 7.44 36.94 6.67L36.94 6.67L36.94 2.48L38.91 2.48L38.91 6.42Q38.91 7.46 39.16 7.96Q39.41 8.46 40.13 8.46L40.13 8.46Q40.58 8.46 41.02 8.38L41.02 8.38L41.02 2.48L43.01 2.48ZM47.65 8.51L47.65 8.51Q48.37 8.51 48.75 8.41Q49.14 8.30 49.14 7.98L49.14 7.98Q49.14 7.78 49.02 7.63Q48.90 7.49 48.68 7.38Q48.46 7.28 48.18 7.18Q47.90 7.09 47.60 6.99L47.60 6.99Q47.17 6.86 46.72 6.70Q46.27 6.53 45.90 6.27Q45.54 6.02 45.30 5.62Q45.06 5.23 45.06 4.64L45.06 4.64Q45.06 4.16 45.24 3.74Q45.42 3.31 45.82 2.98Q46.21 2.66 46.82 2.47Q47.42 2.29 48.27 2.29L48.27 2.29Q49.01 2.29 49.64 2.40Q50.27 2.51 50.74 2.72L50.74 2.72L50.43 4.38Q50.16 4.30 49.58 4.12Q49.01 3.94 48.29 3.94L48.29 3.94Q47.54 3.94 47.27 4.12Q47.01 4.30 47.01 4.51L47.01 4.51Q47.01 4.69 47.13 4.82Q47.25 4.96 47.45 5.07Q47.65 5.18 47.91 5.29Q48.18 5.39 48.48 5.49L48.48 5.49Q48.91 5.63 49.38 5.81Q49.84 5.98 50.22 6.25Q50.59 6.51 50.83 6.92Q51.07 7.33 51.07 7.92L51.07 7.92Q51.07 8.38 50.90 8.80Q50.72 9.22 50.31 9.52Q49.90 9.82 49.25 10Q48.59 10.18 47.63 10.18L47.63 10.18Q46.66 10.18 45.97 9.95Q45.28 9.73 44.86 9.55L44.86 9.55L45.17 7.90Q45.73 8.13 46.36 8.32Q46.99 8.51 47.65 8.51ZM54.29 7.20L54.29 4.11L52.58 4.11L52.58 2.48L54.29 2.48L54.29 0.59L56.26 0.27L56.26 2.48L59.41 2.48L59.41 4.11L56.26 4.11L56.26 7.15Q56.26 7.57 56.34 7.82Q56.42 8.08 56.56 8.22Q56.70 8.37 56.91 8.42Q57.12 8.46 57.38 8.46L57.38 8.46Q57.65 8.46 57.88 8.45Q58.11 8.43 58.33 8.39Q58.54 8.35 58.78 8.27Q59.01 8.19 59.28 8.06L59.28 8.06L59.55 9.76Q59.01 9.98 58.38 10.08Q57.74 10.18 57.15 10.18L57.15 10.18Q56.46 10.18 55.94 10.06Q55.41 9.95 55.04 9.63Q54.67 9.31 54.48 8.73Q54.29 8.14 54.29 7.20L54.29 7.20Z"/></g></svg>