<?xml version="1.0" encoding="UTF-8"?>
<svg height="26" width="90.6" version="1.1" xmlns="http://www.w3.org/2000/svg"><!--Created by Josélio de S. C. Júnior - 2021 - https://github.com/joseliojunior -->
    <rect
        height="24"
        width="88.6"
        rx="12"
        ry="12"
        x="1" y="1"
        fill="#67b8de"
        stroke="#1f6b8e"
        stroke-width="1" />
    <g transform="translate(0, 8)">
        <path fill="#1f6b8e" d="M27.36 8.37L27.36 10L21.14 10L21.14 0.10L23.12 0.10L23.12 8.37L27.36 8.37ZM32.54 0.32L32.54 0.32Q32.54 0.90 32.18 1.23Q31.81 1.57 31.30 1.57L31.30 1.57Q30.78 1.57 30.42 1.23Q30.06 0.90 30.06 0.32L30.06 0.32Q30.06-0.27 30.42-0.61Q30.78-0.94 31.30-0.94L31.30-0.94Q31.81-0.94 32.18-0.61Q32.54-0.27 32.54 0.32ZM35.22 8.10L35.47 9.68Q34.86 9.97 34.33 10.07Q33.79 10.18 33.34 10.18L33.34 10.18Q32.58 10.18 32.06 9.95Q31.54 9.73 31.22 9.30Q30.91 8.88 30.78 8.27Q30.66 7.66 30.66 6.88L30.66 6.88L30.66 4.11L28.58 4.11L28.58 2.48L32.62 2.48L32.62 7.14Q32.62 7.81 32.87 8.14Q33.12 8.46 33.70 8.46L33.70 8.46Q33.97 8.46 34.35 8.39Q34.74 8.32 35.22 8.10L35.22 8.10ZM38.50 6.30L38.50 6.30Q38.50 7.34 38.84 7.91Q39.18 8.48 39.89 8.48L39.89 8.48Q40.22 8.48 40.52 8.40Q40.82 8.32 41.04 8.19L41.04 8.19L41.04 4.06Q40.90 4.05 40.65 4.02Q40.40 4 40.13 4L40.13 4Q39.31 4 38.90 4.65Q38.50 5.30 38.50 6.30ZM36.50 6.24L36.50 6.24Q36.50 5.38 36.74 4.65Q36.98 3.92 37.43 3.41Q37.89 2.90 38.57 2.61Q39.25 2.32 40.11 2.32L40.11 2.32Q40.48 2.32 40.89 2.35Q41.30 2.38 41.68 2.44Q42.06 2.50 42.41 2.57Q42.75 2.64 43.01 2.72L43.01 2.72L43.01 12.64L41.04 12.64L41.04 9.79Q40.67 9.97 40.26 10.07Q39.86 10.18 39.49 10.18L39.49 10.18Q38.75 10.18 38.19 9.90Q37.63 9.62 37.26 9.10Q36.88 8.59 36.69 7.86Q36.50 7.14 36.50 6.24ZM51.01 2.48L51.01 9.74Q50.46 9.89 49.69 10.03Q48.91 10.18 48 10.18L48 10.18Q47.07 10.18 46.48 9.92Q45.89 9.66 45.54 9.19Q45.20 8.72 45.07 8.08Q44.94 7.44 44.94 6.67L44.94 6.67L44.94 2.48L46.91 2.48L46.91 6.42Q46.91 7.46 47.16 7.96Q47.41 8.46 48.13 8.46L48.13 8.46Q48.58 8.46 49.02 8.38L49.02 8.38L49.02 2.48L51.01 2.48ZM56.54 0.32L56.54 0.32Q56.54 0.90 56.18 1.23Q55.81 1.57 55.30 1.57L55.30 1.57Q54.78 1.57 54.42 1.23Q54.06 0.90 54.06 0.32L54.06 0.32Q54.06-0.27 54.42-0.61Q54.78-0.94 55.30-0.94L55.30-0.94Q55.81-0.94 56.18-0.61Q56.54-0.27 56.54 0.32ZM59.22 8.10L59.47 9.68Q58.86 9.97 58.33 10.07Q57.79 10.18 57.34 10.18L57.34 10.18Q56.58 10.18 56.06 9.95Q55.54 9.73 55.22 9.30Q54.91 8.88 54.78 8.27Q54.66 7.66 54.66 6.88L54.66 6.88L54.66 4.11L52.58 4.11L52.58 2.48L56.62 2.48L56.62 7.14Q56.62 7.81 56.87 8.14Q57.12 8.46 57.70 8.46L57.70 8.46Q57.97 8.46 58.35 8.39Q58.74 8.32 59.22 8.10L59.22 8.10ZM62.45 6.19L62.45 6.19Q62.45 7.20 62.82 7.84Q63.20 8.48 64.03 8.48L64.03 8.48Q64.27 8.48 64.48 8.46Q64.69 8.45 64.91 8.42L64.91 8.42L64.91 4.32Q64.69 4.19 64.40 4.10Q64.11 4.02 63.79 4.02L63.79 4.02Q63.09 4.02 62.77 4.58Q62.45 5.14 62.45 6.19ZM66.88-1.10L66.88 9.78Q66.34 9.95 65.55 10.06Q64.77 10.18 64.02 10.18L64.02 10.18Q62.26 10.18 61.35 9.14Q60.45 8.10 60.45 6.29L60.45 6.29Q60.45 4.45 61.21 3.38Q61.97 2.32 63.46 2.32L63.46 2.32Q63.86 2.32 64.24 2.41Q64.62 2.50 64.91 2.66L64.91 2.66L64.91-0.77L66.88-1.10Z"/>
    </g>
</svg>