<?xml version="1.0" encoding="UTF-8"?>
<svg height="34" width="205.29999999999998" version="1.1" xmlns="http://www.w3.org/2000/svg">
    <rect
        height="32"
        width="203.29999999999998"
        rx="14"
        ry="14"
        x="1"
        y="1"
        fill="#315665"
        stroke="#72a6bb"
        stroke-width="1"
         />
    <g transform="translate(0, 14)">
        <path fill="#72a6bb" d="M22.88 8.14L22.88 11L11.99 11L11.99-6.33L15.46-6.33L15.46 8.14L22.88 8.14ZM31.95-5.94L31.95-5.94Q31.95-4.93 31.31-4.34Q30.66-3.76 29.77-3.76L29.77-3.76Q28.87-3.76 28.24-4.34Q27.61-4.93 27.61-5.94L27.61-5.94Q27.61-6.98 28.24-7.56Q28.87-8.15 29.77-8.15L29.77-8.15Q30.66-8.15 31.31-7.56Q31.95-6.98 31.95-5.94ZM36.63 7.67L37.08 10.44Q36.01 10.94 35.07 11.13Q34.14 11.31 33.35 11.31L33.35 11.31Q32.01 11.31 31.10 10.92Q30.19 10.52 29.64 9.78Q29.10 9.04 28.87 7.98Q28.65 6.91 28.65 5.54L28.65 5.54L28.65 0.70L25.01 0.70L25.01-2.16L32.09-2.16L32.09 5.99Q32.09 7.16 32.53 7.74Q32.96 8.31 33.97 8.31L33.97 8.31Q34.44 8.31 35.12 8.19Q35.79 8.06 36.63 7.67L36.63 7.67ZM42.00 6.10L42.00 0.70L39.01 0.70L39.01-2.16L42.00-2.16L42.00-5.46L45.45-6.02L45.45-2.16L50.96-2.16L50.96 0.70L45.45 0.70L45.45 6.02Q45.45 6.74 45.59 7.19Q45.73 7.64 45.98 7.89Q46.23 8.14 46.60 8.23Q46.96 8.31 47.41 8.31L47.41 8.31Q47.88 8.31 48.29 8.28Q48.70 8.26 49.07 8.19Q49.45 8.12 49.86 7.98Q50.26 7.84 50.74 7.61L50.74 7.61L51.22 10.58Q50.26 10.97 49.16 11.14Q48.05 11.31 47.02 11.31L47.02 11.31Q45.81 11.31 44.89 11.11Q43.96 10.92 43.32 10.36Q42.68 9.80 42.34 8.77Q42.00 7.75 42.00 6.10L42.00 6.10ZM52.87 4.53L52.87 4.53Q52.87 2.80 53.40 1.48Q53.93 0.16 54.80-0.72Q55.67-1.60 56.79-2.05Q57.91-2.50 59.08-2.50L59.08-2.50Q62.00-2.50 63.51-0.77Q65.02 0.95 65.02 4.25L65.02 4.25Q65.02 4.59 65.01 4.95Q64.99 5.32 64.96 5.54L64.96 5.54L56.42 5.54Q56.42 6.83 57.49 7.57Q58.55 8.31 60.23 8.31L60.23 8.31Q61.27 8.31 62.21 8.09Q63.14 7.86 63.79 7.64L63.79 7.64L64.26 10.58Q63.37 10.89 62.36 11.10Q61.35 11.31 60.09 11.31L60.09 11.31Q58.41 11.31 57.08 10.87Q55.75 10.44 54.81 9.59Q53.88 8.73 53.37 7.47Q52.87 6.21 52.87 4.53ZM56.42 3.16L61.69 3.16Q61.69 2.63 61.55 2.14Q61.41 1.65 61.10 1.26Q60.79 0.86 60.32 0.63Q59.84 0.39 59.14 0.39L59.14 0.39Q58.47 0.39 57.98 0.61Q57.49 0.84 57.17 1.23Q56.84 1.62 56.66 2.12Q56.48 2.63 56.42 3.16L56.42 3.16ZM78.85-1.85L78.24 1.34Q77.90 1.26 77.44 1.17Q76.98 1.09 76.50 1.02Q76.02 0.95 75.58 0.92Q75.13 0.89 74.82 0.89L74.82 0.89Q74.09 0.89 73.39 0.96Q72.69 1.03 71.96 1.23L71.96 1.23L71.96 11L68.49 11L68.49-1.29Q69.86-1.80 71.31-2.10Q72.75-2.41 74.68-2.41L74.68-2.41Q74.96-2.41 75.48-2.38Q76.00-2.36 76.58-2.29Q77.17-2.22 77.77-2.12Q78.38-2.02 78.85-1.85L78.85-1.85ZM87.03 8.54L87.03 8.54Q87.59 8.54 88.12 8.52Q88.65 8.51 89.04 8.45L89.04 8.45L89.04 5.43Q88.71 5.37 88.23 5.33Q87.76 5.29 87.36 5.29L87.36 5.29Q86.83 5.29 86.33 5.36Q85.82 5.43 85.45 5.60Q85.07 5.76 84.84 6.07Q84.62 6.38 84.62 6.88L84.62 6.88Q84.62 7.78 85.29 8.16Q85.96 8.54 87.03 8.54ZM86.72-2.50L86.72-2.50Q88.34-2.50 89.42-2.12Q90.50-1.74 91.14-1.05Q91.79-0.37 92.07 0.63Q92.35 1.62 92.35 2.85L92.35 2.85L92.35 10.69Q91.59 10.86 90.11 11.08Q88.62 11.31 86.78 11.31L86.78 11.31Q85.52 11.31 84.49 11.08Q83.47 10.86 82.74 10.34Q82.02 9.82 81.62 9.00Q81.23 8.17 81.23 6.97L81.23 6.97Q81.23 5.82 81.68 5.04Q82.13 4.25 82.88 3.78Q83.64 3.30 84.62 3.09Q85.60 2.88 86.66 2.88L86.66 2.88Q88.01 2.88 89.04 3.10L89.04 3.10L89.04 2.68Q89.04 1.70 88.43 1.05Q87.81 0.39 86.30 0.39L86.30 0.39Q85.32 0.39 84.41 0.53Q83.50 0.67 82.94 0.86L82.94 0.86L82.46-1.91Q83.11-2.13 84.28-2.31Q85.46-2.50 86.72-2.50ZM98.00 6.10L98.00 0.70L95.01 0.70L95.01-2.16L98.00-2.16L98.00-5.46L101.45-6.02L101.45-2.16L106.96-2.16L106.96 0.70L101.45 0.70L101.45 6.02Q101.45 6.74 101.59 7.19Q101.73 7.64 101.98 7.89Q102.23 8.14 102.60 8.23Q102.96 8.31 103.41 8.31L103.41 8.31Q103.88 8.31 104.29 8.28Q104.70 8.26 105.07 8.19Q105.45 8.12 105.86 7.98Q106.26 7.84 106.74 7.61L106.74 7.61L107.22 10.58Q106.26 10.97 105.16 11.14Q104.05 11.31 103.02 11.31L103.02 11.31Q101.81 11.31 100.89 11.11Q99.96 10.92 99.32 10.36Q98.68 9.80 98.34 8.77Q98.00 7.75 98.00 6.10L98.00 6.10ZM108.87 4.53L108.87 4.53Q108.87 2.80 109.40 1.48Q109.93 0.16 110.80-0.72Q111.67-1.60 112.79-2.05Q113.91-2.50 115.08-2.50L115.08-2.50Q118.00-2.50 119.51-0.77Q121.02 0.95 121.02 4.25L121.02 4.25Q121.02 4.59 121.01 4.95Q120.99 5.32 120.96 5.54L120.96 5.54L112.42 5.54Q112.42 6.83 113.49 7.57Q114.55 8.31 116.23 8.31L116.23 8.31Q117.27 8.31 118.21 8.09Q119.14 7.86 119.79 7.64L119.79 7.64L120.26 10.58Q119.37 10.89 118.36 11.10Q117.35 11.31 116.09 11.31L116.09 11.31Q114.41 11.31 113.08 10.87Q111.75 10.44 110.81 9.59Q109.88 8.73 109.37 7.47Q108.87 6.21 108.87 4.53ZM112.42 3.16L117.69 3.16Q117.69 2.63 117.55 2.14Q117.41 1.65 117.10 1.26Q116.79 0.86 116.32 0.63Q115.84 0.39 115.14 0.39L115.14 0.39Q114.47 0.39 113.98 0.61Q113.49 0.84 113.17 1.23Q112.84 1.62 112.66 2.12Q112.48 2.63 112.42 3.16L112.42 3.16ZM149.75 11L146.05 11L145.24 7.00L140.62 7.00L139.84 11L136.25 11Q137.48 5.88 138.74 1.66Q140.00-2.55 141.18-6.33L141.18-6.33L144.93-6.33Q146.16-2.52 147.38 1.75Q148.60 6.02 149.75 11L149.75 11ZM142.97-2.97L142.97-2.97Q142.69-1.99 142.45-1.11Q142.22-0.23 142.01 0.63Q141.80 1.48 141.61 2.35Q141.43 3.22 141.26 4.14L141.26 4.14L144.65 4.14Q144.48 3.22 144.32 2.35Q144.15 1.48 143.94 0.63Q143.73-0.23 143.49-1.11Q143.25-1.99 142.97-2.97ZM154.42 4L154.42 4Q154.42 5.62 155.01 6.48Q155.60 7.33 156.86 7.33L156.86 7.33Q157.42 7.33 157.91 7.19Q158.40 7.05 158.79 6.83L158.79 6.83L158.79 0.50Q158.40 0.42 158.09 0.39Q157.78 0.36 157.45 0.36L157.45 0.36Q154.42 0.36 154.42 4ZM162.26-1.74L162.26 9.40Q162.26 12.62 160.71 14.16Q159.16 15.70 155.71 15.70L155.71 15.70Q154.48 15.70 153.35 15.45Q152.21 15.20 151.18 14.86L151.18 14.86L151.82 11.95Q152.63 12.26 153.53 12.53Q154.42 12.79 155.77 12.79L155.77 12.79Q156.66 12.79 157.25 12.58Q157.84 12.37 158.18 12.01Q158.51 11.64 158.65 11.15Q158.79 10.66 158.79 10.10L158.79 10.10L158.79 9.57Q158.06 9.85 157.46 9.99Q156.86 10.13 156.16 10.13L156.16 10.13Q153.58 10.13 152.25 8.51Q150.92 6.88 150.92 4L150.92 4Q150.92 0.75 152.72-0.84Q154.51-2.44 157.59-2.44L157.59-2.44Q159.74-2.44 162.26-1.74L162.26-1.74ZM168.28 4.34L168.28 4.34Q168.28 6.10 168.94 7.22Q169.60 8.34 171.06 8.34L171.06 8.34Q171.48 8.34 171.84 8.31Q172.20 8.28 172.60 8.23L172.60 8.23L172.60 1.06Q172.20 0.84 171.70 0.68Q171.20 0.53 170.64 0.53L170.64 0.53Q169.40 0.53 168.84 1.51Q168.28 2.49 168.28 4.34ZM176.04-8.43L176.04 10.61Q175.09 10.92 173.72 11.11Q172.34 11.31 171.03 11.31L171.03 11.31Q167.95 11.31 166.37 9.49Q164.78 7.67 164.78 4.50L164.78 4.50Q164.78 1.28 166.11-0.58Q167.44-2.44 170.05-2.44L170.05-2.44Q170.75-2.44 171.42-2.29Q172.09-2.13 172.60-1.85L172.60-1.85L172.60-7.84L176.04-8.43ZM185.03 8.54L185.03 8.54Q185.59 8.54 186.12 8.52Q186.65 8.51 187.04 8.45L187.04 8.45L187.04 5.43Q186.71 5.37 186.23 5.33Q185.76 5.29 185.36 5.29L185.36 5.29Q184.83 5.29 184.33 5.36Q183.82 5.43 183.45 5.60Q183.07 5.76 182.84 6.07Q182.62 6.38 182.62 6.88L182.62 6.88Q182.62 7.78 183.29 8.16Q183.96 8.54 185.03 8.54ZM184.72-2.50L184.72-2.50Q186.34-2.50 187.42-2.12Q188.50-1.74 189.14-1.05Q189.79-0.37 190.07 0.63Q190.35 1.62 190.35 2.85L190.35 2.85L190.35 10.69Q189.59 10.86 188.11 11.08Q186.62 11.31 184.78 11.31L184.78 11.31Q183.52 11.31 182.49 11.08Q181.47 10.86 180.74 10.34Q180.02 9.82 179.62 9.00Q179.23 8.17 179.23 6.97L179.23 6.97Q179.23 5.82 179.68 5.04Q180.13 4.25 180.88 3.78Q181.64 3.30 182.62 3.09Q183.60 2.88 184.66 2.88L184.66 2.88Q186.01 2.88 187.04 3.10L187.04 3.10L187.04 2.68Q187.04 1.70 186.43 1.05Q185.81 0.39 184.30 0.39L184.30 0.39Q183.32 0.39 182.41 0.53Q181.50 0.67 180.94 0.86L180.94 0.86L180.46-1.91Q181.11-2.13 182.28-2.31Q183.46-2.50 184.72-2.50Z"/>
    </g>
</svg>