<?xml version="1.0" encoding="UTF-8"?>
<svg height="26" width="147.3" version="1.1" xmlns="http://www.w3.org/2000/svg"><!--Created by Josélio de S. C. Júnior - 2021 - https://github.com/joseliojunior -->
    <rect
        height="24"
        width="145.3"
        rx="1"
        ry="1"
        x="1" y="1"
        fill="#315665"
        stroke="#72a6bb"
        stroke-width="1" />
    <g transform="translate(0, 8)">
        <path fill="#72a6bb" stroke="none" d="M27.36 8.37L27.36 10L21.14 10L21.14 0.10L23.12 0.10L23.12 8.37L27.36 8.37ZM32.54 0.32L32.54 0.32Q32.54 0.90 32.18 1.23Q31.81 1.57 31.30 1.57L31.30 1.57Q30.78 1.57 30.42 1.23Q30.06 0.90 30.06 0.32L30.06 0.32Q30.06-0.27 30.42-0.61Q30.78-0.94 31.30-0.94L31.30-0.94Q31.81-0.94 32.18-0.61Q32.54-0.27 32.54 0.32ZM35.22 8.10L35.47 9.68Q34.86 9.97 34.33 10.07Q33.79 10.18 33.34 10.18L33.34 10.18Q32.58 10.18 32.06 9.95Q31.54 9.73 31.22 9.30Q30.91 8.88 30.78 8.27Q30.66 7.66 30.66 6.88L30.66 6.88L30.66 4.11L28.58 4.11L28.58 2.48L32.62 2.48L32.62 7.14Q32.62 7.81 32.87 8.14Q33.12 8.46 33.70 8.46L33.70 8.46Q33.97 8.46 34.35 8.39Q34.74 8.32 35.22 8.10L35.22 8.10ZM38.29 7.20L38.29 4.11L36.58 4.11L36.58 2.48L38.29 2.48L38.29 0.59L40.26 0.27L40.26 2.48L43.41 2.48L43.41 4.11L40.26 4.11L40.26 7.15Q40.26 7.57 40.34 7.82Q40.42 8.08 40.56 8.22Q40.70 8.37 40.91 8.42Q41.12 8.46 41.38 8.46L41.38 8.46Q41.65 8.46 41.88 8.45Q42.11 8.43 42.33 8.39Q42.54 8.35 42.78 8.27Q43.01 8.19 43.28 8.06L43.28 8.06L43.55 9.76Q43.01 9.98 42.38 10.08Q41.74 10.18 41.15 10.18L41.15 10.18Q40.46 10.18 39.94 10.06Q39.41 9.95 39.04 9.63Q38.67 9.31 38.48 8.73Q38.29 8.14 38.29 7.20L38.29 7.20ZM44.50 6.30L44.50 6.30Q44.50 5.31 44.80 4.56Q45.10 3.81 45.60 3.30Q46.10 2.80 46.74 2.54Q47.38 2.29 48.05 2.29L48.05 2.29Q49.71 2.29 50.58 3.27Q51.44 4.26 51.44 6.14L51.44 6.14Q51.44 6.34 51.43 6.54Q51.42 6.75 51.41 6.88L51.41 6.88L46.53 6.88Q46.53 7.62 47.14 8.04Q47.74 8.46 48.70 8.46L48.70 8.46Q49.30 8.46 49.83 8.34Q50.37 8.21 50.74 8.08L50.74 8.08L51.01 9.76Q50.50 9.94 49.92 10.06Q49.34 10.18 48.62 10.18L48.62 10.18Q47.66 10.18 46.90 9.93Q46.14 9.68 45.61 9.19Q45.07 8.70 44.78 7.98Q44.50 7.26 44.50 6.30ZM46.53 5.52L49.54 5.52Q49.54 5.22 49.46 4.94Q49.38 4.66 49.20 4.43Q49.02 4.21 48.75 4.07Q48.48 3.94 48.08 3.94L48.08 3.94Q47.70 3.94 47.42 4.06Q47.14 4.19 46.95 4.42Q46.77 4.64 46.66 4.93Q46.56 5.22 46.53 5.52L46.53 5.52ZM59.34 2.66L58.99 4.48Q58.80 4.43 58.54 4.38Q58.27 4.34 58 4.30Q57.73 4.26 57.47 4.24Q57.22 4.22 57.04 4.22L57.04 4.22Q56.62 4.22 56.22 4.26Q55.82 4.30 55.41 4.42L55.41 4.42L55.41 10L53.42 10L53.42 2.98Q54.21 2.69 55.03 2.51Q55.86 2.34 56.96 2.34L56.96 2.34Q57.12 2.34 57.42 2.35Q57.71 2.37 58.05 2.41Q58.38 2.45 58.73 2.50Q59.07 2.56 59.34 2.66L59.34 2.66ZM64.02 8.59L64.02 8.59Q64.34 8.59 64.64 8.58Q64.94 8.58 65.17 8.54L65.17 8.54L65.17 6.82Q64.98 6.78 64.70 6.76Q64.43 6.74 64.21 6.74L64.21 6.74Q63.90 6.74 63.62 6.78Q63.33 6.82 63.11 6.91Q62.90 7.01 62.77 7.18Q62.64 7.36 62.64 7.65L62.64 7.65Q62.64 8.16 63.02 8.38Q63.41 8.59 64.02 8.59ZM63.84 2.29L63.84 2.29Q64.77 2.29 65.38 2.50Q66 2.72 66.37 3.11Q66.74 3.50 66.90 4.07Q67.06 4.64 67.06 5.34L67.06 5.34L67.06 9.82Q66.62 9.92 65.78 10.05Q64.93 10.18 63.87 10.18L63.87 10.18Q63.15 10.18 62.57 10.05Q61.98 9.92 61.57 9.62Q61.15 9.33 60.93 8.86Q60.70 8.38 60.70 7.70L60.70 7.70Q60.70 7.04 60.96 6.59Q61.22 6.14 61.65 5.87Q62.08 5.60 62.64 5.48Q63.20 5.36 63.81 5.36L63.81 5.36Q64.58 5.36 65.17 5.49L65.17 5.49L65.17 5.25Q65.17 4.69 64.82 4.31Q64.46 3.94 63.60 3.94L63.60 3.94Q63.04 3.94 62.52 4.02Q62 4.10 61.68 4.21L61.68 4.21L61.41 2.62Q61.78 2.50 62.45 2.39Q63.12 2.29 63.84 2.29ZM70.29 7.20L70.29 4.11L68.58 4.11L68.58 2.48L70.29 2.48L70.29 0.59L72.26 0.27L72.26 2.48L75.41 2.48L75.41 4.11L72.26 4.11L72.26 7.15Q72.26 7.57 72.34 7.82Q72.42 8.08 72.56 8.22Q72.70 8.37 72.91 8.42Q73.12 8.46 73.38 8.46L73.38 8.46Q73.65 8.46 73.88 8.45Q74.11 8.43 74.33 8.39Q74.54 8.35 74.78 8.27Q75.01 8.19 75.28 8.06L75.28 8.06L75.55 9.76Q75.01 9.98 74.38 10.08Q73.74 10.18 73.15 10.18L73.15 10.18Q72.46 10.18 71.94 10.06Q71.41 9.95 71.04 9.63Q70.67 9.31 70.48 8.73Q70.29 8.14 70.29 7.20L70.29 7.20ZM76.50 6.30L76.50 6.30Q76.50 5.31 76.80 4.56Q77.10 3.81 77.60 3.30Q78.10 2.80 78.74 2.54Q79.38 2.29 80.05 2.29L80.05 2.29Q81.71 2.29 82.58 3.27Q83.44 4.26 83.44 6.14L83.44 6.14Q83.44 6.34 83.43 6.54Q83.42 6.75 83.41 6.88L83.41 6.88L78.53 6.88Q78.53 7.62 79.14 8.04Q79.74 8.46 80.70 8.46L80.70 8.46Q81.30 8.46 81.83 8.34Q82.37 8.21 82.74 8.08L82.74 8.08L83.01 9.76Q82.50 9.94 81.92 10.06Q81.34 10.18 80.62 10.18L80.62 10.18Q79.66 10.18 78.90 9.93Q78.14 9.68 77.61 9.19Q77.07 8.70 76.78 7.98Q76.50 7.26 76.50 6.30ZM78.53 5.52L81.54 5.52Q81.54 5.22 81.46 4.94Q81.38 4.66 81.20 4.43Q81.02 4.21 80.75 4.07Q80.48 3.94 80.08 3.94L80.08 3.94Q79.70 3.94 79.42 4.06Q79.14 4.19 78.95 4.42Q78.77 4.64 78.66 4.93Q78.56 5.22 78.53 5.52L78.53 5.52ZM99.86 10L97.74 10L97.28 7.71L94.64 7.71L94.19 10L92.14 10Q92.85 7.07 93.57 4.66Q94.29 2.26 94.96 0.10L94.96 0.10L97.10 0.10Q97.81 2.27 98.50 4.71Q99.20 7.15 99.86 10L99.86 10ZM95.98 2.02L95.98 2.02Q95.82 2.58 95.69 3.08Q95.55 3.58 95.43 4.07Q95.31 4.56 95.21 5.06Q95.10 5.55 95.01 6.08L95.01 6.08L96.94 6.08Q96.85 5.55 96.75 5.06Q96.66 4.56 96.54 4.07Q96.42 3.58 96.28 3.08Q96.14 2.58 95.98 2.02ZM102.53 6L102.53 6Q102.53 6.93 102.86 7.42Q103.20 7.90 103.92 7.90L103.92 7.90Q104.24 7.90 104.52 7.82Q104.80 7.74 105.02 7.62L105.02 7.62L105.02 4Q104.80 3.95 104.62 3.94Q104.45 3.92 104.26 3.92L104.26 3.92Q102.53 3.92 102.53 6ZM107.01 2.72L107.01 9.09Q107.01 10.93 106.12 11.81Q105.23 12.69 103.26 12.69L103.26 12.69Q102.56 12.69 101.91 12.54Q101.26 12.40 100.67 12.21L100.67 12.21L101.04 10.54Q101.50 10.72 102.02 10.87Q102.53 11.02 103.30 11.02L103.30 11.02Q103.81 11.02 104.14 10.90Q104.48 10.78 104.67 10.58Q104.86 10.37 104.94 10.09Q105.02 9.81 105.02 9.49L105.02 9.49L105.02 9.18Q104.61 9.34 104.26 9.42Q103.92 9.50 103.52 9.50L103.52 9.50Q102.05 9.50 101.29 8.58Q100.53 7.65 100.53 6L100.53 6Q100.53 4.14 101.55 3.23Q102.58 2.32 104.34 2.32L104.34 2.32Q105.57 2.32 107.01 2.72L107.01 2.72ZM110.45 6.19L110.45 6.19Q110.45 7.20 110.82 7.84Q111.20 8.48 112.03 8.48L112.03 8.48Q112.27 8.48 112.48 8.46Q112.69 8.45 112.91 8.42L112.91 8.42L112.91 4.32Q112.69 4.19 112.40 4.10Q112.11 4.02 111.79 4.02L111.79 4.02Q111.09 4.02 110.77 4.58Q110.45 5.14 110.45 6.19ZM114.88-1.10L114.88 9.78Q114.34 9.95 113.55 10.06Q112.77 10.18 112.02 10.18L112.02 10.18Q110.26 10.18 109.35 9.14Q108.45 8.10 108.45 6.29L108.45 6.29Q108.45 4.45 109.21 3.38Q109.97 2.32 111.46 2.32L111.46 2.32Q111.86 2.32 112.24 2.41Q112.62 2.50 112.91 2.66L112.91 2.66L112.91-0.77L114.88-1.10ZM120.02 8.59L120.02 8.59Q120.34 8.59 120.64 8.58Q120.94 8.58 121.17 8.54L121.17 8.54L121.17 6.82Q120.98 6.78 120.70 6.76Q120.43 6.74 120.21 6.74L120.21 6.74Q119.90 6.74 119.62 6.78Q119.33 6.82 119.11 6.91Q118.90 7.01 118.77 7.18Q118.64 7.36 118.64 7.65L118.64 7.65Q118.64 8.16 119.02 8.38Q119.41 8.59 120.02 8.59ZM119.84 2.29L119.84 2.29Q120.77 2.29 121.38 2.50Q122 2.72 122.37 3.11Q122.74 3.50 122.90 4.07Q123.06 4.64 123.06 5.34L123.06 5.34L123.06 9.82Q122.62 9.92 121.78 10.05Q120.93 10.18 119.87 10.18L119.87 10.18Q119.15 10.18 118.57 10.05Q117.98 9.92 117.57 9.62Q117.15 9.33 116.93 8.86Q116.70 8.38 116.70 7.70L116.70 7.70Q116.70 7.04 116.96 6.59Q117.22 6.14 117.65 5.87Q118.08 5.60 118.64 5.48Q119.20 5.36 119.81 5.36L119.81 5.36Q120.58 5.36 121.17 5.49L121.17 5.49L121.17 5.25Q121.17 4.69 120.82 4.31Q120.46 3.94 119.60 3.94L119.60 3.94Q119.04 3.94 118.52 4.02Q118 4.10 117.68 4.21L117.68 4.21L117.41 2.62Q117.78 2.50 118.45 2.39Q119.12 2.29 119.84 2.29Z"/>
    </g>
</svg>