<?xml version="1.0" encoding="UTF-8"?>
<svg height="34" width="199.29999999999998" version="1.1" xmlns="http://www.w3.org/2000/svg"><!--Created by Josélio de S. C. Júnior - 2021 - https://github.com/joseliojunior -->
    <rect
        height="32"
        width="197.29999999999998"
        rx="1"
        ry="1"
        x="1" y="1"
        fill="#315665"
        stroke="#72a6bb"
        stroke-width="1" />
    <g transform="translate(0, 12)">
        <path fill="#72a6bb" d="M31.04 9.55L31.04 12L21.70 12L21.70-2.86L24.68-2.86L24.68 9.55L31.04 9.55ZM38.82-2.52L38.82-2.52Q38.82-1.66 38.26-1.15Q37.71-0.65 36.94-0.65L36.94-0.65Q36.18-0.65 35.64-1.15Q35.10-1.66 35.10-2.52L35.10-2.52Q35.10-3.41 35.64-3.91Q36.18-4.42 36.94-4.42L36.94-4.42Q37.71-4.42 38.26-3.91Q38.82-3.41 38.82-2.52ZM42.82 9.14L43.21 11.52Q42.30 11.95 41.49 12.11Q40.69 12.26 40.02 12.26L40.02 12.26Q38.86 12.26 38.08 11.93Q37.30 11.59 36.84 10.96Q36.37 10.32 36.18 9.41Q35.98 8.50 35.98 7.32L35.98 7.32L35.98 3.17L32.86 3.17L32.86 0.72L38.94 0.72L38.94 7.70Q38.94 8.71 39.31 9.20Q39.68 9.70 40.54 9.70L40.54 9.70Q40.95 9.70 41.53 9.59Q42.10 9.48 42.82 9.14L42.82 9.14ZM47.43 7.80L47.43 3.17L44.86 3.17L44.86 0.72L47.43 0.72L47.43-2.11L50.38-2.59L50.38 0.72L55.11 0.72L55.11 3.17L50.38 3.17L50.38 7.73Q50.38 8.35 50.50 8.74Q50.62 9.12 50.84 9.34Q51.06 9.55 51.37 9.62Q51.68 9.70 52.06 9.70L52.06 9.70Q52.47 9.70 52.82 9.67Q53.17 9.65 53.49 9.59Q53.82 9.53 54.16 9.41Q54.51 9.29 54.92 9.10L54.92 9.10L55.33 11.64Q54.51 11.98 53.56 12.12Q52.62 12.26 51.73 12.26L51.73 12.26Q50.70 12.26 49.90 12.10Q49.11 11.93 48.56 11.45Q48.01 10.97 47.72 10.09Q47.43 9.22 47.43 7.80L47.43 7.80ZM56.74 6.46L56.74 6.46Q56.74 4.97 57.20 3.84Q57.66 2.71 58.40 1.96Q59.14 1.20 60.10 0.82Q61.06 0.43 62.07 0.43L62.07 0.43Q64.57 0.43 65.86 1.91Q67.16 3.38 67.16 6.22L67.16 6.22Q67.16 6.50 67.15 6.82Q67.14 7.13 67.11 7.32L67.11 7.32L59.79 7.32Q59.79 8.42 60.70 9.06Q61.62 9.70 63.06 9.70L63.06 9.70Q63.94 9.70 64.75 9.50Q65.55 9.31 66.10 9.12L66.10 9.12L66.51 11.64Q65.74 11.90 64.88 12.08Q64.02 12.26 62.94 12.26L62.94 12.26Q61.50 12.26 60.36 11.89Q59.22 11.52 58.41 10.79Q57.61 10.06 57.18 8.98Q56.74 7.90 56.74 6.46ZM59.79 5.28L64.30 5.28Q64.30 4.82 64.18 4.40Q64.06 3.98 63.80 3.65Q63.54 3.31 63.13 3.11Q62.72 2.90 62.12 2.90L62.12 2.90Q61.54 2.90 61.12 3.10Q60.70 3.29 60.43 3.62Q60.15 3.96 60.00 4.39Q59.84 4.82 59.79 5.28L59.79 5.28ZM79.02 0.98L78.49 3.72Q78.20 3.65 77.80 3.58Q77.41 3.50 77 3.44Q76.59 3.38 76.21 3.36Q75.82 3.34 75.56 3.34L75.56 3.34Q74.94 3.34 74.34 3.40Q73.74 3.46 73.11 3.62L73.11 3.62L73.11 12L70.14 12L70.14 1.46Q71.31 1.03 72.55 0.77Q73.78 0.50 75.44 0.50L75.44 0.50Q75.68 0.50 76.12 0.53Q76.57 0.55 77.07 0.61Q77.58 0.67 78.09 0.76Q78.61 0.84 79.02 0.98L79.02 0.98ZM86.02 9.89L86.02 9.89Q86.50 9.89 86.96 9.88Q87.42 9.86 87.75 9.82L87.75 9.82L87.75 7.22Q87.46 7.18 87.06 7.14Q86.65 7.10 86.31 7.10L86.31 7.10Q85.86 7.10 85.42 7.16Q84.99 7.22 84.67 7.37Q84.34 7.51 84.15 7.78Q83.96 8.04 83.96 8.47L83.96 8.47Q83.96 9.24 84.54 9.56Q85.11 9.89 86.02 9.89ZM85.76 0.43L85.76 0.43Q87.15 0.43 88.08 0.76Q89 1.08 89.55 1.67Q90.10 2.26 90.34 3.11Q90.58 3.96 90.58 5.02L90.58 5.02L90.58 11.74Q89.94 11.88 88.66 12.07Q87.39 12.26 85.81 12.26L85.81 12.26Q84.73 12.26 83.85 12.07Q82.98 11.88 82.35 11.44Q81.73 10.99 81.39 10.28Q81.06 9.58 81.06 8.54L81.06 8.54Q81.06 7.56 81.44 6.89Q81.82 6.22 82.47 5.81Q83.12 5.40 83.96 5.22Q84.80 5.04 85.71 5.04L85.71 5.04Q86.86 5.04 87.75 5.23L87.75 5.23L87.75 4.87Q87.75 4.03 87.22 3.47Q86.70 2.90 85.40 2.90L85.40 2.90Q84.56 2.90 83.78 3.02Q83 3.14 82.52 3.31L82.52 3.31L82.11 0.94Q82.66 0.74 83.67 0.59Q84.68 0.43 85.76 0.43ZM95.43 7.80L95.43 3.17L92.86 3.17L92.86 0.72L95.43 0.72L95.43-2.11L98.38-2.59L98.38 0.72L103.11 0.72L103.11 3.17L98.38 3.17L98.38 7.73Q98.38 8.35 98.50 8.74Q98.62 9.12 98.84 9.34Q99.06 9.55 99.37 9.62Q99.68 9.70 100.06 9.70L100.06 9.70Q100.47 9.70 100.82 9.67Q101.17 9.65 101.49 9.59Q101.82 9.53 102.16 9.41Q102.51 9.29 102.92 9.10L102.92 9.10L103.33 11.64Q102.51 11.98 101.56 12.12Q100.62 12.26 99.73 12.26L99.73 12.26Q98.70 12.26 97.90 12.10Q97.11 11.93 96.56 11.45Q96.01 10.97 95.72 10.09Q95.43 9.22 95.43 7.80L95.43 7.80ZM104.74 6.46L104.74 6.46Q104.74 4.97 105.20 3.84Q105.66 2.71 106.40 1.96Q107.14 1.20 108.10 0.82Q109.06 0.43 110.07 0.43L110.07 0.43Q112.57 0.43 113.86 1.91Q115.16 3.38 115.16 6.22L115.16 6.22Q115.16 6.50 115.15 6.82Q115.14 7.13 115.11 7.32L115.11 7.32L107.79 7.32Q107.79 8.42 108.70 9.06Q109.62 9.70 111.06 9.70L111.06 9.70Q111.94 9.70 112.75 9.50Q113.55 9.31 114.10 9.12L114.10 9.12L114.51 11.64Q113.74 11.90 112.88 12.08Q112.02 12.26 110.94 12.26L110.94 12.26Q109.50 12.26 108.36 11.89Q107.22 11.52 106.41 10.79Q105.61 10.06 105.18 8.98Q104.74 7.90 104.74 6.46ZM107.79 5.28L112.30 5.28Q112.30 4.82 112.18 4.40Q112.06 3.98 111.80 3.65Q111.54 3.31 111.13 3.11Q110.72 2.90 110.12 2.90L110.12 2.90Q109.54 2.90 109.12 3.10Q108.70 3.29 108.43 3.62Q108.15 3.96 108.00 4.39Q107.84 4.82 107.79 5.28L107.79 5.28ZM139.78 12L136.62 12L135.92 8.57L131.96 8.57L131.29 12L128.22 12Q129.27 7.61 130.35 4.00Q131.43 0.38 132.44-2.86L132.44-2.86L135.66-2.86Q136.71 0.41 137.76 4.07Q138.80 7.73 139.78 12L139.78 12ZM133.98 0.02L133.98 0.02Q133.74 0.86 133.53 1.62Q133.33 2.38 133.15 3.11Q132.97 3.84 132.81 4.58Q132.66 5.33 132.51 6.12L132.51 6.12L135.42 6.12Q135.27 5.33 135.13 4.58Q134.98 3.84 134.80 3.11Q134.62 2.38 134.42 1.62Q134.22 0.86 133.98 0.02ZM143.79 6L143.79 6Q143.79 7.39 144.30 8.12Q144.80 8.86 145.88 8.86L145.88 8.86Q146.36 8.86 146.78 8.74Q147.20 8.62 147.54 8.42L147.54 8.42L147.54 3Q147.20 2.93 146.94 2.90Q146.67 2.88 146.38 2.88L146.38 2.88Q143.79 2.88 143.79 6ZM150.51 1.08L150.51 10.63Q150.51 13.39 149.18 14.71Q147.85 16.03 144.90 16.03L144.90 16.03Q143.84 16.03 142.87 15.82Q141.90 15.60 141.01 15.31L141.01 15.31L141.56 12.82Q142.26 13.08 143.02 13.31Q143.79 13.54 144.94 13.54L144.94 13.54Q145.71 13.54 146.22 13.36Q146.72 13.18 147.01 12.86Q147.30 12.55 147.42 12.13Q147.54 11.71 147.54 11.23L147.54 11.23L147.54 10.78Q146.91 11.02 146.40 11.14Q145.88 11.26 145.28 11.26L145.28 11.26Q143.07 11.26 141.93 9.86Q140.79 8.47 140.79 6L140.79 6Q140.79 3.22 142.33 1.85Q143.86 0.48 146.50 0.48L146.50 0.48Q148.35 0.48 150.51 1.08L150.51 1.08ZM155.67 6.29L155.67 6.29Q155.67 7.80 156.24 8.76Q156.80 9.72 158.05 9.72L158.05 9.72Q158.41 9.72 158.72 9.70Q159.03 9.67 159.37 9.62L159.37 9.62L159.37 3.48Q159.03 3.29 158.60 3.16Q158.17 3.02 157.69 3.02L157.69 3.02Q156.63 3.02 156.15 3.86Q155.67 4.70 155.67 6.29ZM162.32-4.66L162.32 11.66Q161.50 11.93 160.33 12.10Q159.15 12.26 158.02 12.26L158.02 12.26Q155.38 12.26 154.03 10.70Q152.67 9.14 152.67 6.43L152.67 6.43Q152.67 3.67 153.81 2.08Q154.95 0.48 157.18 0.48L157.18 0.48Q157.78 0.48 158.36 0.61Q158.94 0.74 159.37 0.98L159.37 0.98L159.37-4.15L162.32-4.66ZM170.02 9.89L170.02 9.89Q170.50 9.89 170.96 9.88Q171.42 9.86 171.75 9.82L171.75 9.82L171.75 7.22Q171.46 7.18 171.06 7.14Q170.65 7.10 170.31 7.10L170.31 7.10Q169.86 7.10 169.42 7.16Q168.99 7.22 168.67 7.37Q168.34 7.51 168.15 7.78Q167.96 8.04 167.96 8.47L167.96 8.47Q167.96 9.24 168.54 9.56Q169.11 9.89 170.02 9.89ZM169.76 0.43L169.76 0.43Q171.15 0.43 172.08 0.76Q173 1.08 173.55 1.67Q174.10 2.26 174.34 3.11Q174.58 3.96 174.58 5.02L174.58 5.02L174.58 11.74Q173.94 11.88 172.66 12.07Q171.39 12.26 169.81 12.26L169.81 12.26Q168.73 12.26 167.85 12.07Q166.98 11.88 166.35 11.44Q165.73 10.99 165.39 10.28Q165.06 9.58 165.06 8.54L165.06 8.54Q165.06 7.56 165.44 6.89Q165.82 6.22 166.47 5.81Q167.12 5.40 167.96 5.22Q168.80 5.04 169.71 5.04L169.71 5.04Q170.86 5.04 171.75 5.23L171.75 5.23L171.75 4.87Q171.75 4.03 171.22 3.47Q170.70 2.90 169.40 2.90L169.40 2.90Q168.56 2.90 167.78 3.02Q167 3.14 166.52 3.31L166.52 3.31L166.11 0.94Q166.66 0.74 167.67 0.59Q168.68 0.43 169.76 0.43Z"/>
    </g>
</svg>