<?xml version="1.0" encoding="UTF-8"?>
<svg height="322" width="138.8" version="1.1" xmlns="http://www.w3.org/2000/svg"><!--Created by Josélio de S. C. Júnior - 2021 - https://github.com/joseliojunior -->
    <rect
        height="32"
        width="136.8"
        rx="1"
        ry="1"
        x="1" y="1"
        fill="#0000cc"
        stroke="#000033"
        stroke-width="1" />
    <g transform="translate(0, 12)">
        <path fill="#000033" stroke="none" d="M30.73 12L21.30 12L21.30 9.55L24.54 9.55L24.54-0.41L21.30-0.41L21.30-2.86L30.73-2.86L30.73-0.41L27.51-0.41L27.51 9.55L30.73 9.55L30.73 12ZM39.49-0.62L39.49-0.62Q38.43-0.62 37.71-0.24Q36.99 0.14 36.52 0.83Q36.06 1.51 35.85 2.46Q35.65 3.41 35.65 4.56L35.65 4.56Q35.65 7.22 36.49 8.48Q37.33 9.74 38.96 9.74L38.96 9.74Q39.22 9.74 39.54 9.72Q39.85 9.70 40.11 9.65L40.11 9.65L40.11 4.22L43.06 4.22L43.06 11.64Q42.54 11.83 41.42 12.07Q40.30 12.31 38.72 12.31L38.72 12.31Q37.33 12.31 36.21 11.82Q35.10 11.33 34.30 10.36Q33.51 9.38 33.08 7.93Q32.65 6.48 32.65 4.56L32.65 4.56Q32.65 2.66 33.15 1.21Q33.66-0.24 34.52-1.22Q35.38-2.21 36.56-2.70Q37.74-3.19 39.08-3.19L39.08-3.19Q39.94-3.19 40.63-3.06Q41.31-2.93 41.82-2.76Q42.32-2.59 42.64-2.40Q42.97-2.21 43.14-2.11L43.14-2.11L42.37 0.24Q41.84-0.10 41.07-0.36Q40.30-0.62 39.49-0.62ZM47.65 4.56L47.65 4.56Q47.65 5.64 47.73 6.59Q47.82 7.54 48.07 8.23Q48.32 8.93 48.78 9.34Q49.23 9.74 50 9.74L50 9.74Q50.74 9.74 51.21 9.34Q51.68 8.93 51.93 8.22Q52.18 7.51 52.27 6.58Q52.35 5.64 52.35 4.56L52.35 4.56Q52.35 3.48 52.27 2.53Q52.18 1.58 51.93 0.89Q51.68 0.19 51.22-0.22Q50.77-0.62 50-0.62L50-0.62Q49.23-0.62 48.78-0.22Q48.32 0.19 48.07 0.90Q47.82 1.61 47.73 2.54Q47.65 3.48 47.65 4.56ZM44.65 4.56L44.65 4.56Q44.65 0.72 46.06-1.24Q47.48-3.19 50-3.19L50-3.19Q52.62-3.19 53.98-1.24Q55.35 0.72 55.35 4.56L55.35 4.56Q55.35 8.40 53.96 10.36Q52.57 12.31 50.02 12.31L50.02 12.31Q47.41 12.31 46.03 10.36Q44.65 8.40 44.65 4.56ZM61.14-3.02L61.14-3.02Q62.41-3.02 63.44-2.74Q64.47-2.45 65.22-1.85Q65.96-1.25 66.36-0.32Q66.75 0.60 66.75 1.85L66.75 1.85Q66.75 3.14 66.22 4.20Q65.70 5.26 64.47 5.81L64.47 5.81Q64.88 6.43 65.34 7.19Q65.79 7.94 66.22 8.77Q66.66 9.60 67.05 10.43Q67.45 11.26 67.74 12L67.74 12L64.64 12Q64.09 10.56 63.36 9.23Q62.62 7.90 61.78 6.53L61.78 6.53L60.25 6.53L60.25 12L57.30 12L57.30-2.64Q57.73-2.74 58.24-2.82Q58.76-2.90 59.29-2.94Q59.82-2.98 60.30-3Q60.78-3.02 61.14-3.02ZM63.75 1.82L63.75 1.82Q63.75 0.65 63.03 0.10Q62.31-0.46 61.14-0.46L61.14-0.46Q60.97-0.46 60.73-0.44Q60.49-0.43 60.25-0.38L60.25-0.38L60.25 4.08L60.90 4.08Q62.41 4.08 63.08 3.49Q63.75 2.90 63.75 1.82ZM85.38-3.02L85.38-3.02Q88.21-3.02 89.77-1.86Q91.33-0.70 91.33 1.94L91.33 1.94Q91.33 4.61 89.76 5.80Q88.18 6.98 85.30 6.98L85.30 6.98L84.25 6.98L84.25 12L81.30 12L81.30-2.66Q81.73-2.76 82.27-2.83Q82.81-2.90 83.36-2.94Q83.91-2.98 84.44-3Q84.97-3.02 85.38-3.02ZM85.71-0.46L85.71-0.46Q85.45-0.46 84.98-0.44Q84.51-0.43 84.25-0.38L84.25-0.38L84.25 4.42L85.45 4.42Q86.86 4.42 87.58 3.85Q88.30 3.29 88.30 1.92L88.30 1.92Q88.30 0.62 87.60 0.08Q86.89-0.46 85.71-0.46ZM103.02 0.98L102.49 3.72Q102.20 3.65 101.80 3.58Q101.41 3.50 101 3.44Q100.59 3.38 100.21 3.36Q99.82 3.34 99.56 3.34L99.56 3.34Q98.94 3.34 98.34 3.40Q97.74 3.46 97.11 3.62L97.11 3.62L97.11 12L94.14 12L94.14 1.46Q95.31 1.03 96.55 0.77Q97.78 0.50 99.44 0.50L99.44 0.50Q99.68 0.50 100.12 0.53Q100.57 0.55 101.07 0.61Q101.58 0.67 102.09 0.76Q102.61 0.84 103.02 0.98L103.02 0.98ZM115.33 6.34L115.33 6.34Q115.33 7.68 114.94 8.77Q114.56 9.86 113.86 10.66Q113.17 11.45 112.20 11.88Q111.22 12.31 110.02 12.31L110.02 12.31Q108.82 12.31 107.85 11.88Q106.88 11.45 106.17 10.66Q105.46 9.86 105.08 8.77Q104.70 7.68 104.70 6.34L104.70 6.34Q104.70 5.02 105.09 3.92Q105.49 2.83 106.20 2.05Q106.90 1.27 107.89 0.85Q108.87 0.43 110.02 0.43L110.02 0.43Q111.20 0.43 112.17 0.85Q113.14 1.27 113.85 2.05Q114.56 2.83 114.94 3.92Q115.33 5.02 115.33 6.34ZM107.70 6.36L107.70 6.36Q107.70 7.87 108.24 8.81Q108.78 9.74 109.98 9.74L109.98 9.74Q111.13 9.74 111.72 8.81Q112.30 7.87 112.30 6.36L112.30 6.36Q112.30 4.85 111.76 3.92Q111.22 3 110.02 3L110.02 3Q108.87 3 108.28 3.92Q107.70 4.85 107.70 6.36Z"/>
    </g>
</svg>