<?xml version="1.0" encoding="UTF-8"?>
<svg height="26" width="74.4" version="1.1" xmlns="http://www.w3.org/2000/svg"><!--Created by Josélio de S. C. Júnior - 2021 - https://github.com/joseliojunior -->
    <rect
        height="24"
        width="72.4"
        rx="12"
        ry="12"
        x="1" y="1"
        fill="#220000"
        stroke="#bd0000"
        stroke-width="1" />
    <g transform="translate(0, 8)">
        <path fill="#bd0000" d="M24.06 4.62L24.06 4.62Q24.24 4.26 24.47 3.70Q24.70 3.14 24.94 2.51Q25.17 1.89 25.38 1.25Q25.60 0.61 25.78 0.10L25.78 0.10L27.81 0.10Q27.50 0.91 27.20 1.68Q26.90 2.45 26.56 3.20Q26.22 3.95 25.84 4.70Q25.46 5.44 25.01 6.22L25.01 6.22L25.01 10L23.02 10L23.02 6.24Q22.14 4.69 21.48 3.21Q20.82 1.73 20.21 0.10L20.21 0.10L22.32 0.10Q22.69 1.25 23.14 2.44Q23.58 3.63 24.06 4.62ZM35.86 10L33.74 10L33.28 7.71L30.64 7.71L30.19 10L28.14 10Q28.85 7.07 29.57 4.66Q30.29 2.26 30.96 0.10L30.96 0.10L33.10 0.10Q33.81 2.27 34.50 4.71Q35.20 7.15 35.86 10L35.86 10ZM31.98 2.02L31.98 2.02Q31.82 2.58 31.69 3.08Q31.55 3.58 31.43 4.07Q31.31 4.56 31.21 5.06Q31.10 5.55 31.01 6.08L31.01 6.08L32.94 6.08Q32.85 5.55 32.75 5.06Q32.66 4.56 32.54 4.07Q32.42 3.58 32.28 3.08Q32.14 2.58 31.98 2.02ZM39.42-0.02L39.42-0.02Q40.27-0.02 40.96 0.18Q41.65 0.37 42.14 0.77Q42.64 1.17 42.90 1.78Q43.17 2.40 43.17 3.23L43.17 3.23Q43.17 4.10 42.82 4.80Q42.46 5.50 41.65 5.87L41.65 5.87Q41.92 6.29 42.22 6.79Q42.53 7.30 42.82 7.85Q43.10 8.40 43.37 8.95Q43.63 9.50 43.82 10L43.82 10L41.76 10Q41.39 9.04 40.90 8.15Q40.42 7.26 39.86 6.35L39.86 6.35L38.83 6.35L38.83 10L36.86 10L36.86 0.24Q37.15 0.18 37.50 0.12Q37.84 0.06 38.19 0.04Q38.54 0.02 38.86 0Q39.18-0.02 39.42-0.02ZM41.17 3.22L41.17 3.22Q41.17 2.43 40.69 2.06Q40.21 1.70 39.42 1.70L39.42 1.70Q39.31 1.70 39.15 1.70Q38.99 1.71 38.83 1.74L38.83 1.74L38.83 4.72L39.26 4.72Q40.27 4.72 40.72 4.33Q41.17 3.94 41.17 3.22ZM51.86 10L49.74 10L49.28 7.71L46.64 7.71L46.19 10L44.14 10Q44.85 7.07 45.57 4.66Q46.29 2.26 46.96 0.10L46.96 0.10L49.10 0.10Q49.81 2.27 50.50 4.71Q51.20 7.15 51.86 10L51.86 10ZM47.98 2.02L47.98 2.02Q47.82 2.58 47.69 3.08Q47.55 3.58 47.43 4.07Q47.31 4.56 47.21 5.06Q47.10 5.55 47.01 6.08L47.01 6.08L48.94 6.08Q48.85 5.55 48.75 5.06Q48.66 4.56 48.54 4.07Q48.42 3.58 48.28 3.08Q48.14 2.58 47.98 2.02Z"/>
    </g>
</svg>