<?xml version="1.0" encoding="UTF-8"?>
<svg height="34" width="90.4" version="1.1" xmlns="http://www.w3.org/2000/svg"><!--Created by Josélio de S. C. Júnior - 2021 - https://github.com/joseliojunior -->
    <rect
        height="32"
        width="88.4"
        rx="16"
        ry="16"
        x="1" y="1"
        fill="#220000"
        stroke="#bd0000"
        stroke-width="1" />
    <g transform="translate(0, 12)">
        <path fill="#bd0000" d="M26.10 3.94L26.10 3.94Q26.36 3.38 26.71 2.54Q27.06 1.70 27.40 0.77Q27.75-0.17 28.08-1.13Q28.40-2.09 28.66-2.86L28.66-2.86L31.71-2.86Q31.26-1.63 30.80-0.48Q30.34 0.67 29.84 1.80Q29.34 2.93 28.76 4.04Q28.18 5.16 27.51 6.34L27.51 6.34L27.51 12L24.54 12L24.54 6.36Q23.22 4.03 22.22 1.81Q21.22-0.41 20.31-2.86L20.31-2.86L23.48-2.86Q24.03-1.13 24.70 0.66Q25.38 2.45 26.10 3.94ZM43.78 12L40.62 12L39.92 8.57L35.96 8.57L35.29 12L32.22 12Q33.27 7.61 34.35 4.00Q35.43 0.38 36.44-2.86L36.44-2.86L39.66-2.86Q40.71 0.41 41.76 4.07Q42.80 7.73 43.78 12L43.78 12ZM37.98 0.02L37.98 0.02Q37.74 0.86 37.53 1.62Q37.33 2.38 37.15 3.11Q36.97 3.84 36.81 4.58Q36.66 5.33 36.51 6.12L36.51 6.12L39.42 6.12Q39.27 5.33 39.13 4.58Q38.98 3.84 38.80 3.11Q38.62 2.38 38.42 1.62Q38.22 0.86 37.98 0.02ZM49.14-3.02L49.14-3.02Q50.41-3.02 51.44-2.74Q52.47-2.45 53.22-1.85Q53.96-1.25 54.36-0.32Q54.75 0.60 54.75 1.85L54.75 1.85Q54.75 3.14 54.22 4.20Q53.70 5.26 52.47 5.81L52.47 5.81Q52.88 6.43 53.34 7.19Q53.79 7.94 54.22 8.77Q54.66 9.60 55.05 10.43Q55.45 11.26 55.74 12L55.74 12L52.64 12Q52.09 10.56 51.36 9.23Q50.62 7.90 49.78 6.53L49.78 6.53L48.25 6.53L48.25 12L45.30 12L45.30-2.64Q45.73-2.74 46.24-2.82Q46.76-2.90 47.29-2.94Q47.82-2.98 48.30-3Q48.78-3.02 49.14-3.02ZM51.75 1.82L51.75 1.82Q51.75 0.65 51.03 0.10Q50.31-0.46 49.14-0.46L49.14-0.46Q48.97-0.46 48.73-0.44Q48.49-0.43 48.25-0.38L48.25-0.38L48.25 4.08L48.90 4.08Q50.41 4.08 51.08 3.49Q51.75 2.90 51.75 1.82ZM67.78 12L64.62 12L63.92 8.57L59.96 8.57L59.29 12L56.22 12Q57.27 7.61 58.35 4.00Q59.43 0.38 60.44-2.86L60.44-2.86L63.66-2.86Q64.71 0.41 65.76 4.07Q66.80 7.73 67.78 12L67.78 12ZM61.98 0.02L61.98 0.02Q61.74 0.86 61.53 1.62Q61.33 2.38 61.15 3.11Q60.97 3.84 60.81 4.58Q60.66 5.33 60.51 6.12L60.51 6.12L63.42 6.12Q63.27 5.33 63.13 4.58Q62.98 3.84 62.80 3.11Q62.62 2.38 62.42 1.62Q62.22 0.86 61.98 0.02Z"/>
    </g>
</svg>