<?xml version="1.0" encoding="UTF-8"?>
<svg height="34" width="78.4" version="1.1" xmlns="http://www.w3.org/2000/svg">
    <rect
        height="32"
        width="76.4"
        rx="1"
        ry="1"
        x="1"
        y="1"
        fill="#220000"
        stroke="#bd0000"
        stroke-width="1"
         />
    <g transform="translate(0, 14)">
        <path fill="#bd0000" d="M17.11 1.59L17.11 1.59Q17.42 0.95 17.83-0.03Q18.23-1.01 18.64-2.10Q19.04-3.20 19.42-4.32Q19.80-5.44 20.11-6.33L20.11-6.33L23.66-6.33Q23.13-4.90 22.60-3.56Q22.07-2.22 21.48-0.90Q20.89 0.42 20.22 1.72Q19.55 3.02 18.76 4.39L18.76 4.39L18.76 11L15.29 11L15.29 4.42Q13.75 1.70 12.59-0.89Q11.43-3.48 10.36-6.33L10.36-6.33L14.06-6.33Q14.70-4.32 15.49-2.23Q16.27-0.14 17.11 1.59ZM37.75 11L34.05 11L33.24 7.00L28.62 7.00L27.84 11L24.25 11Q25.48 5.88 26.74 1.66Q28.00-2.55 29.18-6.33L29.18-6.33L32.93-6.33Q34.16-2.52 35.38 1.75Q36.60 6.02 37.75 11L37.75 11ZM30.97-2.97L30.97-2.97Q30.69-1.99 30.45-1.11Q30.22-0.23 30.01 0.63Q29.80 1.48 29.61 2.35Q29.43 3.22 29.26 4.14L29.26 4.14L32.65 4.14Q32.48 3.22 32.32 2.35Q32.15 1.48 31.94 0.63Q31.73-0.23 31.49-1.11Q31.25-1.99 30.97-2.97ZM43.99-6.53L43.99-6.53Q45.48-6.53 46.68-6.19Q47.88-5.86 48.75-5.16Q49.62-4.46 50.08-3.38Q50.54-2.30 50.54-0.84L50.54-0.84Q50.54 0.67 49.93 1.90Q49.31 3.13 47.88 3.78L47.88 3.78Q48.36 4.50 48.89 5.39Q49.42 6.27 49.93 7.23Q50.43 8.20 50.89 9.17Q51.36 10.13 51.69 11L51.69 11L48.08 11Q47.44 9.32 46.58 7.77Q45.73 6.21 44.75 4.62L44.75 4.62L42.96 4.62L42.96 11L39.51 11L39.51-6.08Q40.02-6.19 40.62-6.29Q41.22-6.39 41.84-6.43Q42.45-6.47 43.01-6.50Q43.57-6.53 43.99-6.53ZM47.04-0.87L47.04-0.87Q47.04-2.24 46.20-2.89Q45.36-3.53 43.99-3.53L43.99-3.53Q43.80-3.53 43.52-3.52Q43.24-3.50 42.96-3.45L42.96-3.45L42.96 1.76L43.71 1.76Q45.48 1.76 46.26 1.07Q47.04 0.39 47.04-0.87ZM65.75 11L62.05 11L61.24 7.00L56.62 7.00L55.84 11L52.25 11Q53.48 5.88 54.74 1.66Q56.00-2.55 57.18-6.33L57.18-6.33L60.93-6.33Q62.16-2.52 63.38 1.75Q64.60 6.02 65.75 11L65.75 11ZM58.97-2.97L58.97-2.97Q58.69-1.99 58.45-1.11Q58.22-0.23 58.01 0.63Q57.80 1.48 57.61 2.35Q57.43 3.22 57.26 4.14L57.26 4.14L60.65 4.14Q60.48 3.22 60.32 2.35Q60.15 1.48 59.94 0.63Q59.73-0.23 59.49-1.11Q59.25-1.99 58.97-2.97Z"/>
    </g>
</svg>