<?xml version="1.0" encoding="UTF-8"?>
<svg height="34" width="36.1" version="1.1" xmlns="http://www.w3.org/2000/svg">
    <rect
        height="32"
        width="34.1"
        rx="14"
        ry="14"
        x="1"
        y="1"
        fill="#4f87c4"
        stroke="#1f3c5c"
        stroke-width="1"
         />
    <g transform="translate(0, 14)">
        <path fill="#1f3c5c" d="M18.76 11L15.21 11Q14.54 9.07 13.78 6.63Q13.02 4.20 12.35 1.77Q11.68-0.65 11.15-2.80Q10.62-4.96 10.36-6.33L10.36-6.33L14.00-6.33Q14.17-4.99 14.51-3.21Q14.84-1.43 15.25 0.46Q15.66 2.35 16.12 4.18Q16.58 6.02 17.03 7.47L17.03 7.47Q17.48 6.04 17.92 4.21Q18.37 2.38 18.76 0.49Q19.16-1.40 19.49-3.20Q19.83-4.99 20.05-6.33L20.05-6.33L23.66-6.33Q23.33-4.65 22.84-2.58Q22.35-0.51 21.72 1.77Q21.09 4.06 20.33 6.42Q19.58 8.79 18.76 11L18.76 11Z"/>
    </g>
</svg>