<?xml version="1.0" encoding="UTF-8"?>
<svg height="26" width="163.5" version="1.1" xmlns="http://www.w3.org/2000/svg"><!--Created by Josélio de S. C. Júnior - 2021 - https://github.com/joseliojunior -->
    <defs>
        <pattern id="pattern"
                x="1.5" y="3" width="3" height="6"
                patternUnits="userSpaceOnUse"
                patternTransform="rotate(45)" >
            <rect height="6" width="1" fill="#999999"/>
        </pattern>
    </defs>
    <rect
        height="24"
        width="161.5"
        rx="12"
        ry="12"
        x="1" y="1"
        fill="url(#pattern)"
        stroke="#000000"
        stroke-width="1" />
    <g transform="translate(0, 8)">
        <path fill="#ffffff" stroke="#000000" d="M23.58-0.02L23.58-0.02Q25.47-0.02 26.51 0.76Q27.55 1.54 27.55 3.30L27.55 3.30Q27.55 5.07 26.50 5.86Q25.46 6.66 23.54 6.66L23.54 6.66L22.83 6.66L22.83 10L20.86 10L20.86 0.22Q21.15 0.16 21.51 0.11Q21.87 0.06 22.24 0.04Q22.61 0.02 22.96 0Q23.31-0.02 23.58-0.02ZM23.81 1.70L23.81 1.70Q23.63 1.70 23.32 1.70Q23.01 1.71 22.83 1.74L22.83 1.74L22.83 4.94L23.63 4.94Q24.58 4.94 25.06 4.57Q25.54 4.19 25.54 3.28L25.54 3.28Q25.54 2.42 25.06 2.06Q24.59 1.70 23.81 1.70ZM32.02 8.59L32.02 8.59Q32.34 8.59 32.64 8.58Q32.94 8.58 33.17 8.54L33.17 8.54L33.17 6.82Q32.98 6.78 32.70 6.76Q32.43 6.74 32.21 6.74L32.21 6.74Q31.90 6.74 31.62 6.78Q31.33 6.82 31.11 6.91Q30.90 7.01 30.77 7.18Q30.64 7.36 30.64 7.65L30.64 7.65Q30.64 8.16 31.02 8.38Q31.41 8.59 32.02 8.59ZM31.84 2.29L31.84 2.29Q32.77 2.29 33.38 2.50Q34 2.72 34.37 3.11Q34.74 3.50 34.90 4.07Q35.06 4.64 35.06 5.34L35.06 5.34L35.06 9.82Q34.62 9.92 33.78 10.05Q32.93 10.18 31.87 10.18L31.87 10.18Q31.15 10.18 30.57 10.05Q29.98 9.92 29.57 9.62Q29.15 9.33 28.93 8.86Q28.70 8.38 28.70 7.70L28.70 7.70Q28.70 7.04 28.96 6.59Q29.22 6.14 29.65 5.87Q30.08 5.60 30.64 5.48Q31.20 5.36 31.81 5.36L31.81 5.36Q32.58 5.36 33.17 5.49L33.17 5.49L33.17 5.25Q33.17 4.69 32.82 4.31Q32.46 3.94 31.60 3.94L31.60 3.94Q31.04 3.94 30.52 4.02Q30 4.10 29.68 4.21L29.68 4.21L29.41 2.62Q29.78 2.50 30.45 2.39Q31.12 2.29 31.84 2.29ZM43.34 2.66L42.99 4.48Q42.80 4.43 42.54 4.38Q42.27 4.34 42 4.30Q41.73 4.26 41.47 4.24Q41.22 4.22 41.04 4.22L41.04 4.22Q40.62 4.22 40.22 4.26Q39.82 4.30 39.41 4.42L39.41 4.42L39.41 10L37.42 10L37.42 2.98Q38.21 2.69 39.03 2.51Q39.86 2.34 40.96 2.34L40.96 2.34Q41.12 2.34 41.42 2.35Q41.71 2.37 42.05 2.41Q42.38 2.45 42.73 2.50Q43.07 2.56 43.34 2.66L43.34 2.66ZM51.34 2.66L50.99 4.48Q50.80 4.43 50.54 4.38Q50.27 4.34 50 4.30Q49.73 4.26 49.47 4.24Q49.22 4.22 49.04 4.22L49.04 4.22Q48.62 4.22 48.22 4.26Q47.82 4.30 47.41 4.42L47.41 4.42L47.41 10L45.42 10L45.42 2.98Q46.21 2.69 47.03 2.51Q47.86 2.34 48.96 2.34L48.96 2.34Q49.12 2.34 49.42 2.35Q49.71 2.37 50.05 2.41Q50.38 2.45 50.73 2.50Q51.07 2.56 51.34 2.66L51.34 2.66ZM59.55 6.22L59.55 6.22Q59.55 7.12 59.30 7.85Q59.04 8.58 58.58 9.10Q58.11 9.63 57.46 9.92Q56.82 10.21 56.02 10.21L56.02 10.21Q55.22 10.21 54.57 9.92Q53.92 9.63 53.45 9.10Q52.98 8.58 52.72 7.85Q52.46 7.12 52.46 6.22L52.46 6.22Q52.46 5.34 52.73 4.62Q52.99 3.89 53.46 3.37Q53.94 2.85 54.59 2.57Q55.25 2.29 56.02 2.29L56.02 2.29Q56.80 2.29 57.45 2.57Q58.10 2.85 58.57 3.37Q59.04 3.89 59.30 4.62Q59.55 5.34 59.55 6.22ZM54.46 6.24L54.46 6.24Q54.46 7.25 54.82 7.87Q55.18 8.50 55.98 8.50L55.98 8.50Q56.75 8.50 57.14 7.87Q57.54 7.25 57.54 6.24L57.54 6.24Q57.54 5.23 57.18 4.62Q56.82 4 56.02 4L56.02 4Q55.25 4 54.86 4.62Q54.46 5.23 54.46 6.24ZM62.29 7.20L62.29 4.11L60.58 4.11L60.58 2.48L62.29 2.48L62.29 0.59L64.26 0.27L64.26 2.48L67.41 2.48L67.41 4.11L64.26 4.11L64.26 7.15Q64.26 7.57 64.34 7.82Q64.42 8.08 64.56 8.22Q64.70 8.37 64.91 8.42Q65.12 8.46 65.38 8.46L65.38 8.46Q65.65 8.46 65.88 8.45Q66.11 8.43 66.33 8.39Q66.54 8.35 66.78 8.27Q67.01 8.19 67.28 8.06L67.28 8.06L67.55 9.76Q67.01 9.98 66.38 10.08Q65.74 10.18 65.15 10.18L65.15 10.18Q64.46 10.18 63.94 10.06Q63.41 9.95 63.04 9.63Q62.67 9.31 62.48 8.73Q62.29 8.14 62.29 7.20L62.29 7.20ZM83.86 10L81.74 10L81.28 7.71L78.64 7.71L78.19 10L76.14 10Q76.85 7.07 77.57 4.66Q78.29 2.26 78.96 0.10L78.96 0.10L81.10 0.10Q81.81 2.27 82.50 4.71Q83.20 7.15 83.86 10L83.86 10ZM79.98 2.02L79.98 2.02Q79.82 2.58 79.69 3.08Q79.55 3.58 79.43 4.07Q79.31 4.56 79.21 5.06Q79.10 5.55 79.01 6.08L79.01 6.08L80.94 6.08Q80.85 5.55 80.75 5.06Q80.66 4.56 80.54 4.07Q80.42 3.58 80.28 3.08Q80.14 2.58 79.98 2.02ZM87.65 8.51L87.65 8.51Q88.37 8.51 88.75 8.41Q89.14 8.30 89.14 7.98L89.14 7.98Q89.14 7.78 89.02 7.63Q88.90 7.49 88.68 7.38Q88.46 7.28 88.18 7.18Q87.90 7.09 87.60 6.99L87.60 6.99Q87.17 6.86 86.72 6.70Q86.27 6.53 85.90 6.27Q85.54 6.02 85.30 5.62Q85.06 5.23 85.06 4.64L85.06 4.64Q85.06 4.16 85.24 3.74Q85.42 3.31 85.82 2.98Q86.21 2.66 86.82 2.47Q87.42 2.29 88.27 2.29L88.27 2.29Q89.01 2.29 89.64 2.40Q90.27 2.51 90.74 2.72L90.74 2.72L90.43 4.38Q90.16 4.30 89.58 4.12Q89.01 3.94 88.29 3.94L88.29 3.94Q87.54 3.94 87.27 4.12Q87.01 4.30 87.01 4.51L87.01 4.51Q87.01 4.69 87.13 4.82Q87.25 4.96 87.45 5.07Q87.65 5.18 87.91 5.29Q88.18 5.39 88.48 5.49L88.48 5.49Q88.91 5.63 89.38 5.81Q89.84 5.98 90.22 6.25Q90.59 6.51 90.83 6.92Q91.07 7.33 91.07 7.92L91.07 7.92Q91.07 8.38 90.90 8.80Q90.72 9.22 90.31 9.52Q89.90 9.82 89.25 10Q88.59 10.18 87.63 10.18L87.63 10.18Q86.66 10.18 85.97 9.95Q85.28 9.73 84.86 9.55L84.86 9.55L85.17 7.90Q85.73 8.13 86.36 8.32Q86.99 8.51 87.65 8.51ZM95.65 8.51L95.65 8.51Q96.37 8.51 96.75 8.41Q97.14 8.30 97.14 7.98L97.14 7.98Q97.14 7.78 97.02 7.63Q96.90 7.49 96.68 7.38Q96.46 7.28 96.18 7.18Q95.90 7.09 95.60 6.99L95.60 6.99Q95.17 6.86 94.72 6.70Q94.27 6.53 93.90 6.27Q93.54 6.02 93.30 5.62Q93.06 5.23 93.06 4.64L93.06 4.64Q93.06 4.16 93.24 3.74Q93.42 3.31 93.82 2.98Q94.21 2.66 94.82 2.47Q95.42 2.29 96.27 2.29L96.27 2.29Q97.01 2.29 97.64 2.40Q98.27 2.51 98.74 2.72L98.74 2.72L98.43 4.38Q98.16 4.30 97.58 4.12Q97.01 3.94 96.29 3.94L96.29 3.94Q95.54 3.94 95.27 4.12Q95.01 4.30 95.01 4.51L95.01 4.51Q95.01 4.69 95.13 4.82Q95.25 4.96 95.45 5.07Q95.65 5.18 95.91 5.29Q96.18 5.39 96.48 5.49L96.48 5.49Q96.91 5.63 97.38 5.81Q97.84 5.98 98.22 6.25Q98.59 6.51 98.83 6.92Q99.07 7.33 99.07 7.92L99.07 7.92Q99.07 8.38 98.90 8.80Q98.72 9.22 98.31 9.52Q97.90 9.82 97.25 10Q96.59 10.18 95.63 10.18L95.63 10.18Q94.66 10.18 93.97 9.95Q93.28 9.73 92.86 9.55L92.86 9.55L93.17 7.90Q93.73 8.13 94.36 8.32Q94.99 8.51 95.65 8.51ZM100.50 6.30L100.50 6.30Q100.50 5.31 100.80 4.56Q101.10 3.81 101.60 3.30Q102.10 2.80 102.74 2.54Q103.38 2.29 104.05 2.29L104.05 2.29Q105.71 2.29 106.58 3.27Q107.44 4.26 107.44 6.14L107.44 6.14Q107.44 6.34 107.43 6.54Q107.42 6.75 107.41 6.88L107.41 6.88L102.53 6.88Q102.53 7.62 103.14 8.04Q103.74 8.46 104.70 8.46L104.70 8.46Q105.30 8.46 105.83 8.34Q106.37 8.21 106.74 8.08L106.74 8.08L107.01 9.76Q106.50 9.94 105.92 10.06Q105.34 10.18 104.62 10.18L104.62 10.18Q103.66 10.18 102.90 9.93Q102.14 9.68 101.61 9.19Q101.07 8.70 100.78 7.98Q100.50 7.26 100.50 6.30ZM102.53 5.52L105.54 5.52Q105.54 5.22 105.46 4.94Q105.38 4.66 105.20 4.43Q105.02 4.21 104.75 4.07Q104.48 3.94 104.08 3.94L104.08 3.94Q103.70 3.94 103.42 4.06Q103.14 4.19 102.95 4.42Q102.77 4.64 102.66 4.93Q102.56 5.22 102.53 5.52L102.53 5.52ZM113.49 2.40L113.49 2.40Q114.11 2.40 114.51 2.59Q114.91 2.78 115.14 3.17Q115.38 3.55 115.46 4.14Q115.54 4.72 115.54 5.50L115.54 5.50L115.54 10L113.94 10L113.94 5.41Q113.94 4.96 113.88 4.69Q113.82 4.42 113.74 4.27Q113.65 4.13 113.53 4.08Q113.41 4.03 113.28 4.03L113.28 4.03Q113.14 4.03 112.98 4.06Q112.82 4.08 112.69 4.14L112.69 4.14Q112.74 4.45 112.77 4.82Q112.80 5.18 112.80 5.63L112.80 5.63L112.80 7.14L111.20 7.14L111.20 5.41Q111.20 4.64 111.05 4.34Q110.90 4.03 110.56 4.03L110.56 4.03Q110.46 4.03 110.33 4.05Q110.19 4.06 110.06 4.10L110.06 4.10L110.06 10L108.46 10L108.46 2.77Q109.09 2.59 109.70 2.50Q110.30 2.40 110.77 2.40L110.77 2.40Q111.18 2.40 111.51 2.50Q111.84 2.61 112.08 2.85L112.08 2.85Q112.35 2.67 112.72 2.54Q113.09 2.40 113.49 2.40ZM121.52 6.19L121.52 6.19Q121.52 5.14 121.18 4.58Q120.83 4.02 120.13 4.02L120.13 4.02Q119.81 4.02 119.50 4.10Q119.18 4.19 118.96 4.32L118.96 4.32L118.96 8.40Q119.18 8.45 119.43 8.46Q119.68 8.48 119.86 8.48L119.86 8.48Q120.62 8.48 121.07 7.96Q121.52 7.44 121.52 6.19ZM123.52 6.24L123.52 6.24Q123.52 7.14 123.28 7.86Q123.04 8.59 122.58 9.10Q122.11 9.62 121.44 9.90Q120.77 10.18 119.90 10.18L119.90 10.18Q119.14 10.18 118.34 10.06Q117.54 9.95 116.99 9.78L116.99 9.78L116.99-0.77L118.96-1.10L118.96 2.66Q119.38 2.46 119.76 2.39Q120.14 2.32 120.53 2.32L120.53 2.32Q121.26 2.32 121.82 2.60Q122.38 2.88 122.76 3.40Q123.14 3.92 123.33 4.64Q123.52 5.36 123.52 6.24ZM131.22 8.10L131.47 9.68Q131.42 9.71 131.26 9.79Q131.09 9.87 130.82 9.96Q130.54 10.05 130.15 10.11Q129.76 10.18 129.26 10.18L129.26 10.18Q127.90 10.18 127.28 9.37Q126.66 8.56 126.66 7.01L126.66 7.01L126.66 0.62L124.58 0.62L124.58-1.01L128.62-1.01L128.62 7.15Q128.62 7.92 128.93 8.19Q129.23 8.46 129.70 8.46L129.70 8.46Q130.29 8.46 130.69 8.30Q131.09 8.14 131.22 8.10L131.22 8.10ZM137.54 2.48L139.55 2.48Q139.25 3.54 138.97 4.55Q138.69 5.57 138.38 6.54Q138.08 7.50 137.74 8.43Q137.39 9.36 136.99 10.24L136.99 10.24Q136.69 10.88 136.39 11.34Q136.10 11.81 135.74 12.10Q135.38 12.40 134.94 12.54Q134.50 12.69 133.90 12.69L133.90 12.69Q133.41 12.69 133 12.61Q132.59 12.53 132.32 12.40L132.32 12.40L132.69 10.75Q133.01 10.90 133.26 10.95Q133.50 11.01 133.79 11.01L133.79 11.01Q134.37 11.01 134.72 10.62Q135.07 10.24 135.28 9.71L135.28 9.71Q134.58 8.30 133.87 6.49Q133.17 4.67 132.59 2.48L132.59 2.48L134.64 2.48Q134.78 3.07 134.97 3.74Q135.15 4.42 135.36 5.09Q135.57 5.76 135.80 6.41Q136.03 7.06 136.27 7.62L136.27 7.62Q136.43 7.06 136.61 6.41Q136.78 5.76 136.94 5.10Q137.10 4.43 137.26 3.76Q137.41 3.09 137.54 2.48L137.54 2.48Z"/>
    </g>
</svg>