<?xml version="1.0" encoding="UTF-8"?>
<svg height="34" width="223.5" version="1.1" xmlns="http://www.w3.org/2000/svg"><!--Created by Josélio de S. C. Júnior - 2021 - https://github.com/joseliojunior -->
    <defs>
        <pattern id="pattern"
                x="3" y="3" width="6" height="6"
                patternUnits="userSpaceOnUse"
                patternTransform="rotate(45)" >
            <rect height="6" width="6"
                fill="#ffffff"/>
            <line x1="0" y1="0" x2="0" y2="6"
                stroke="#888888"
                stroke-width="2" />
        </pattern>
    </defs>
    <rect
        height="32"
        width="221.5"
        rx="1"
        ry="1"
        x="1" y="1"
        fill="url(#pattern)"
        stroke="#000000"
        stroke-width="1" />
    <g transform="translate(0, 12)">
        <path fill="#ffffff" stroke="#000000" d="M25.38-3.02L25.38-3.02Q28.21-3.02 29.77-1.86Q31.33-0.70 31.33 1.94L31.33 1.94Q31.33 4.61 29.76 5.80Q28.18 6.98 25.30 6.98L25.30 6.98L24.25 6.98L24.25 12L21.30 12L21.30-2.66Q21.73-2.76 22.27-2.83Q22.81-2.90 23.36-2.94Q23.91-2.98 24.44-3Q24.97-3.02 25.38-3.02ZM25.71-0.46L25.71-0.46Q25.45-0.46 24.98-0.44Q24.51-0.43 24.25-0.38L24.25-0.38L24.25 4.42L25.45 4.42Q26.86 4.42 27.58 3.85Q28.30 3.29 28.30 1.92L28.30 1.92Q28.30 0.62 27.60 0.08Q26.89-0.46 25.71-0.46ZM38.02 9.89L38.02 9.89Q38.50 9.89 38.96 9.88Q39.42 9.86 39.75 9.82L39.75 9.82L39.75 7.22Q39.46 7.18 39.06 7.14Q38.65 7.10 38.31 7.10L38.31 7.10Q37.86 7.10 37.42 7.16Q36.99 7.22 36.67 7.37Q36.34 7.51 36.15 7.78Q35.96 8.04 35.96 8.47L35.96 8.47Q35.96 9.24 36.54 9.56Q37.11 9.89 38.02 9.89ZM37.76 0.43L37.76 0.43Q39.15 0.43 40.08 0.76Q41 1.08 41.55 1.67Q42.10 2.26 42.34 3.11Q42.58 3.96 42.58 5.02L42.58 5.02L42.58 11.74Q41.94 11.88 40.66 12.07Q39.39 12.26 37.81 12.26L37.81 12.26Q36.73 12.26 35.85 12.07Q34.98 11.88 34.35 11.44Q33.73 10.99 33.39 10.28Q33.06 9.58 33.06 8.54L33.06 8.54Q33.06 7.56 33.44 6.89Q33.82 6.22 34.47 5.81Q35.12 5.40 35.96 5.22Q36.80 5.04 37.71 5.04L37.71 5.04Q38.86 5.04 39.75 5.23L39.75 5.23L39.75 4.87Q39.75 4.03 39.22 3.47Q38.70 2.90 37.40 2.90L37.40 2.90Q36.56 2.90 35.78 3.02Q35 3.14 34.52 3.31L34.52 3.31L34.11 0.94Q34.66 0.74 35.67 0.59Q36.68 0.43 37.76 0.43ZM55.02 0.98L54.49 3.72Q54.20 3.65 53.80 3.58Q53.41 3.50 53 3.44Q52.59 3.38 52.21 3.36Q51.82 3.34 51.56 3.34L51.56 3.34Q50.94 3.34 50.34 3.40Q49.74 3.46 49.11 3.62L49.11 3.62L49.11 12L46.14 12L46.14 1.46Q47.31 1.03 48.55 0.77Q49.78 0.50 51.44 0.50L51.44 0.50Q51.68 0.50 52.12 0.53Q52.57 0.55 53.07 0.61Q53.58 0.67 54.09 0.76Q54.61 0.84 55.02 0.98L55.02 0.98ZM67.02 0.98L66.49 3.72Q66.20 3.65 65.80 3.58Q65.41 3.50 65 3.44Q64.59 3.38 64.21 3.36Q63.82 3.34 63.56 3.34L63.56 3.34Q62.94 3.34 62.34 3.40Q61.74 3.46 61.11 3.62L61.11 3.62L61.11 12L58.14 12L58.14 1.46Q59.31 1.03 60.55 0.77Q61.78 0.50 63.44 0.50L63.44 0.50Q63.68 0.50 64.12 0.53Q64.57 0.55 65.07 0.61Q65.58 0.67 66.09 0.76Q66.61 0.84 67.02 0.98L67.02 0.98ZM79.33 6.34L79.33 6.34Q79.33 7.68 78.94 8.77Q78.56 9.86 77.86 10.66Q77.17 11.45 76.20 11.88Q75.22 12.31 74.02 12.31L74.02 12.31Q72.82 12.31 71.85 11.88Q70.88 11.45 70.17 10.66Q69.46 9.86 69.08 8.77Q68.70 7.68 68.70 6.34L68.70 6.34Q68.70 5.02 69.09 3.92Q69.49 2.83 70.20 2.05Q70.90 1.27 71.89 0.85Q72.87 0.43 74.02 0.43L74.02 0.43Q75.20 0.43 76.17 0.85Q77.14 1.27 77.85 2.05Q78.56 2.83 78.94 3.92Q79.33 5.02 79.33 6.34ZM71.70 6.36L71.70 6.36Q71.70 7.87 72.24 8.81Q72.78 9.74 73.98 9.74L73.98 9.74Q75.13 9.74 75.72 8.81Q76.30 7.87 76.30 6.36L76.30 6.36Q76.30 4.85 75.76 3.92Q75.22 3 74.02 3L74.02 3Q72.87 3 72.28 3.92Q71.70 4.85 71.70 6.36ZM83.43 7.80L83.43 3.17L80.86 3.17L80.86 0.72L83.43 0.72L83.43-2.11L86.38-2.59L86.38 0.72L91.11 0.72L91.11 3.17L86.38 3.17L86.38 7.73Q86.38 8.35 86.50 8.74Q86.62 9.12 86.84 9.34Q87.06 9.55 87.37 9.62Q87.68 9.70 88.06 9.70L88.06 9.70Q88.47 9.70 88.82 9.67Q89.17 9.65 89.49 9.59Q89.82 9.53 90.16 9.41Q90.51 9.29 90.92 9.10L90.92 9.10L91.33 11.64Q90.51 11.98 89.56 12.12Q88.62 12.26 87.73 12.26L87.73 12.26Q86.70 12.26 85.90 12.10Q85.11 11.93 84.56 11.45Q84.01 10.97 83.72 10.09Q83.43 9.22 83.43 7.80L83.43 7.80ZM115.78 12L112.62 12L111.92 8.57L107.96 8.57L107.29 12L104.22 12Q105.27 7.61 106.35 4.00Q107.43 0.38 108.44-2.86L108.44-2.86L111.66-2.86Q112.71 0.41 113.76 4.07Q114.80 7.73 115.78 12L115.78 12ZM109.98 0.02L109.98 0.02Q109.74 0.86 109.53 1.62Q109.33 2.38 109.15 3.11Q108.97 3.84 108.81 4.58Q108.66 5.33 108.51 6.12L108.51 6.12L111.42 6.12Q111.27 5.33 111.13 4.58Q110.98 3.84 110.80 3.11Q110.62 2.38 110.42 1.62Q110.22 0.86 109.98 0.02ZM121.47 9.77L121.47 9.77Q122.55 9.77 123.13 9.61Q123.70 9.46 123.70 8.98L123.70 8.98Q123.70 8.66 123.52 8.45Q123.34 8.23 123.02 8.08Q122.70 7.92 122.28 7.78Q121.86 7.63 121.40 7.49L121.40 7.49Q120.75 7.30 120.08 7.04Q119.41 6.79 118.86 6.41Q118.30 6.02 117.94 5.44Q117.58 4.85 117.58 3.96L117.58 3.96Q117.58 3.24 117.86 2.60Q118.14 1.97 118.72 1.48Q119.31 0.98 120.22 0.71Q121.14 0.43 122.41 0.43L122.41 0.43Q123.51 0.43 124.46 0.60Q125.41 0.77 126.10 1.08L126.10 1.08L125.65 3.58Q125.24 3.46 124.38 3.18Q123.51 2.90 122.43 2.90L122.43 2.90Q121.30 2.90 120.91 3.18Q120.51 3.46 120.51 3.77L120.51 3.77Q120.51 4.03 120.69 4.24Q120.87 4.44 121.17 4.61Q121.47 4.78 121.87 4.93Q122.26 5.09 122.72 5.23L122.72 5.23Q123.37 5.45 124.06 5.71Q124.76 5.98 125.32 6.37Q125.89 6.77 126.25 7.38Q126.61 7.99 126.61 8.88L126.61 8.88Q126.61 9.58 126.34 10.20Q126.08 10.82 125.47 11.28Q124.86 11.74 123.87 12Q122.89 12.26 121.45 12.26L121.45 12.26Q119.98 12.26 118.95 11.93Q117.92 11.59 117.30 11.33L117.30 11.33L117.75 8.86Q118.59 9.19 119.54 9.48Q120.49 9.77 121.47 9.77ZM133.47 9.77L133.47 9.77Q134.55 9.77 135.13 9.61Q135.70 9.46 135.70 8.98L135.70 8.98Q135.70 8.66 135.52 8.45Q135.34 8.23 135.02 8.08Q134.70 7.92 134.28 7.78Q133.86 7.63 133.40 7.49L133.40 7.49Q132.75 7.30 132.08 7.04Q131.41 6.79 130.86 6.41Q130.30 6.02 129.94 5.44Q129.58 4.85 129.58 3.96L129.58 3.96Q129.58 3.24 129.86 2.60Q130.14 1.97 130.72 1.48Q131.31 0.98 132.22 0.71Q133.14 0.43 134.41 0.43L134.41 0.43Q135.51 0.43 136.46 0.60Q137.41 0.77 138.10 1.08L138.10 1.08L137.65 3.58Q137.24 3.46 136.38 3.18Q135.51 2.90 134.43 2.90L134.43 2.90Q133.30 2.90 132.91 3.18Q132.51 3.46 132.51 3.77L132.51 3.77Q132.51 4.03 132.69 4.24Q132.87 4.44 133.17 4.61Q133.47 4.78 133.87 4.93Q134.26 5.09 134.72 5.23L134.72 5.23Q135.37 5.45 136.06 5.71Q136.76 5.98 137.32 6.37Q137.89 6.77 138.25 7.38Q138.61 7.99 138.61 8.88L138.61 8.88Q138.61 9.58 138.34 10.20Q138.08 10.82 137.47 11.28Q136.86 11.74 135.87 12Q134.89 12.26 133.45 12.26L133.45 12.26Q131.98 12.26 130.95 11.93Q129.92 11.59 129.30 11.33L129.30 11.33L129.75 8.86Q130.59 9.19 131.54 9.48Q132.49 9.77 133.47 9.77ZM140.74 6.46L140.74 6.46Q140.74 4.97 141.20 3.84Q141.66 2.71 142.40 1.96Q143.14 1.20 144.10 0.82Q145.06 0.43 146.07 0.43L146.07 0.43Q148.57 0.43 149.86 1.91Q151.16 3.38 151.16 6.22L151.16 6.22Q151.16 6.50 151.15 6.82Q151.14 7.13 151.11 7.32L151.11 7.32L143.79 7.32Q143.79 8.42 144.70 9.06Q145.62 9.70 147.06 9.70L147.06 9.70Q147.94 9.70 148.75 9.50Q149.55 9.31 150.10 9.12L150.10 9.12L150.51 11.64Q149.74 11.90 148.88 12.08Q148.02 12.26 146.94 12.26L146.94 12.26Q145.50 12.26 144.36 11.89Q143.22 11.52 142.41 10.79Q141.61 10.06 141.18 8.98Q140.74 7.90 140.74 6.46ZM143.79 5.28L148.30 5.28Q148.30 4.82 148.18 4.40Q148.06 3.98 147.80 3.65Q147.54 3.31 147.13 3.11Q146.72 2.90 146.12 2.90L146.12 2.90Q145.54 2.90 145.12 3.10Q144.70 3.29 144.43 3.62Q144.15 3.96 144.00 4.39Q143.84 4.82 143.79 5.28L143.79 5.28ZM160.23 0.60L160.23 0.60Q161.17 0.60 161.77 0.89Q162.37 1.18 162.72 1.75Q163.06 2.33 163.18 3.20Q163.30 4.08 163.30 5.26L163.30 5.26L163.30 12L160.90 12L160.90 5.11Q160.90 4.44 160.82 4.03Q160.74 3.62 160.60 3.41Q160.47 3.19 160.29 3.12Q160.11 3.05 159.92 3.05L159.92 3.05Q159.70 3.05 159.46 3.08Q159.22 3.12 159.03 3.22L159.03 3.22Q159.10 3.67 159.15 4.22Q159.20 4.78 159.20 5.45L159.20 5.45L159.20 7.70L156.80 7.70L156.80 5.11Q156.80 3.96 156.57 3.50Q156.34 3.05 155.84 3.05L155.84 3.05Q155.70 3.05 155.49 3.07Q155.29 3.10 155.10 3.14L155.10 3.14L155.10 12L152.70 12L152.70 1.15Q153.63 0.89 154.54 0.74Q155.46 0.60 156.15 0.60L156.15 0.60Q156.78 0.60 157.27 0.76Q157.76 0.91 158.12 1.27L158.12 1.27Q158.53 1.01 159.08 0.80Q159.63 0.60 160.23 0.60ZM172.28 6.29L172.28 6.29Q172.28 4.70 171.76 3.86Q171.25 3.02 170.19 3.02L170.19 3.02Q169.71 3.02 169.24 3.16Q168.78 3.29 168.44 3.48L168.44 3.48L168.44 9.60Q168.78 9.67 169.15 9.70Q169.52 9.72 169.78 9.72L169.78 9.72Q170.94 9.72 171.61 8.94Q172.28 8.16 172.28 6.29ZM175.28 6.36L175.28 6.36Q175.28 7.70 174.92 8.80Q174.56 9.89 173.86 10.66Q173.17 11.42 172.16 11.84Q171.15 12.26 169.86 12.26L169.86 12.26Q168.70 12.26 167.50 12.10Q166.30 11.93 165.49 11.66L165.49 11.66L165.49-4.15L168.44-4.66L168.44 0.98Q169.06 0.70 169.64 0.59Q170.22 0.48 170.79 0.48L170.79 0.48Q171.90 0.48 172.74 0.90Q173.58 1.32 174.14 2.10Q174.70 2.88 174.99 3.96Q175.28 5.04 175.28 6.36ZM186.82 9.14L187.21 11.52Q187.14 11.57 186.88 11.69Q186.63 11.81 186.22 11.94Q185.82 12.07 185.23 12.17Q184.64 12.26 183.90 12.26L183.90 12.26Q181.86 12.26 180.92 11.05Q179.98 9.84 179.98 7.51L179.98 7.51L179.98-2.06L176.86-2.06L176.86-4.51L182.94-4.51L182.94 7.73Q182.94 8.88 183.39 9.29Q183.85 9.70 184.54 9.70L184.54 9.70Q185.43 9.70 186.03 9.46Q186.63 9.22 186.82 9.14L186.82 9.14ZM196.30 0.72L199.33 0.72Q198.87 2.30 198.45 3.83Q198.03 5.35 197.58 6.80Q197.12 8.26 196.60 9.65Q196.09 11.04 195.49 12.36L195.49 12.36Q195.03 13.32 194.59 14.02Q194.14 14.71 193.60 15.16Q193.06 15.60 192.40 15.82Q191.74 16.03 190.86 16.03L190.86 16.03Q190.11 16.03 189.50 15.91Q188.89 15.79 188.48 15.60L188.48 15.60L189.03 13.13Q189.51 13.34 189.88 13.43Q190.26 13.51 190.69 13.51L190.69 13.51Q191.55 13.51 192.08 12.94Q192.61 12.36 192.92 11.57L192.92 11.57Q191.86 9.46 190.81 6.73Q189.75 4.01 188.89 0.72L188.89 0.72L191.96 0.72Q192.18 1.61 192.45 2.62Q192.73 3.62 193.04 4.63Q193.35 5.64 193.70 6.61Q194.05 7.58 194.41 8.42L194.41 8.42Q194.65 7.58 194.91 6.61Q195.18 5.64 195.42 4.64Q195.66 3.65 195.88 2.64Q196.11 1.63 196.30 0.72L196.30 0.72Z"/>
    </g>
</svg>