<?xml version="1.0" encoding="UTF-8"?>
<svg height="34" width="114.6" version="1.1" xmlns="http://www.w3.org/2000/svg">
    <rect
        height="32"
        width="112.6"
        rx="16"
        ry="16"
        x="1"
        y="1"
        fill="#ff6347"
        stroke="#ad1a00"
        stroke-width="1"
         />
    <g transform="translate(0, 12)">
        <path fill="#ad1a00" d="M25.57 9.84L25.57 9.84Q26.31 9.84 26.80 9.68Q27.30 9.53 27.58 9.25Q27.87 8.98 27.98 8.63Q28.09 8.28 28.09 7.92L28.09 7.92Q28.09 7.46 27.82 7.10Q27.56 6.74 27.15 6.47Q26.74 6.19 26.24 5.96Q25.74 5.74 25.23 5.54L25.23 5.54Q24.56 5.30 23.84 4.99Q23.12 4.68 22.53 4.20Q21.94 3.72 21.56 3.01Q21.18 2.30 21.18 1.25L21.18 1.25Q21.18-0.84 22.53-2.02Q23.89-3.19 26.26-3.19L26.26-3.19Q27.63-3.19 28.65-2.88Q29.67-2.57 30.37-2.18L30.37-2.18L29.50 0.10Q28.90-0.24 28.17-0.48Q27.44-0.72 26.48-0.72L26.48-0.72Q24.13-0.72 24.13 0.98L24.13 0.98Q24.13 1.42 24.37 1.74Q24.61 2.06 24.98 2.32Q25.35 2.57 25.82 2.76Q26.29 2.95 26.74 3.12L26.74 3.12Q27.44 3.38 28.20 3.71Q28.95 4.03 29.59 4.57Q30.22 5.11 30.63 5.92Q31.04 6.72 31.04 7.94L31.04 7.94Q31.04 10.03 29.68 11.17Q28.33 12.31 25.57 12.31L25.57 12.31Q23.72 12.31 22.62 11.92Q21.51 11.52 20.96 11.18L20.96 11.18L21.82 8.78Q22.47 9.17 23.37 9.50Q24.27 9.84 25.57 9.84ZM35.43 7.80L35.43 3.17L32.86 3.17L32.86 0.72L35.43 0.72L35.43-2.11L38.38-2.59L38.38 0.72L43.11 0.72L43.11 3.17L38.38 3.17L38.38 7.73Q38.38 8.35 38.50 8.74Q38.62 9.12 38.84 9.34Q39.06 9.55 39.37 9.62Q39.68 9.70 40.06 9.70L40.06 9.70Q40.47 9.70 40.82 9.67Q41.17 9.65 41.49 9.59Q41.82 9.53 42.16 9.41Q42.51 9.29 42.92 9.10L42.92 9.10L43.33 11.64Q42.51 11.98 41.56 12.12Q40.62 12.26 39.73 12.26L39.73 12.26Q38.70 12.26 37.90 12.10Q37.11 11.93 36.56 11.45Q36.01 10.97 35.72 10.09Q35.43 9.22 35.43 7.80L35.43 7.80ZM52.30 0.72L55.33 0.72Q54.87 2.30 54.45 3.83Q54.03 5.35 53.58 6.80Q53.12 8.26 52.60 9.65Q52.09 11.04 51.49 12.36L51.49 12.36Q51.03 13.32 50.59 14.02Q50.14 14.71 49.60 15.16Q49.06 15.60 48.40 15.82Q47.74 16.03 46.86 16.03L46.86 16.03Q46.11 16.03 45.50 15.91Q44.89 15.79 44.48 15.60L44.48 15.60L45.03 13.13Q45.51 13.34 45.88 13.43Q46.26 13.51 46.69 13.51L46.69 13.51Q47.55 13.51 48.08 12.94Q48.61 12.36 48.92 11.57L48.92 11.57Q47.86 9.46 46.81 6.73Q45.75 4.01 44.89 0.72L44.89 0.72L47.96 0.72Q48.18 1.61 48.45 2.62Q48.73 3.62 49.04 4.63Q49.35 5.64 49.70 6.61Q50.05 7.58 50.41 8.42L50.41 8.42Q50.65 7.58 50.91 6.61Q51.18 5.64 51.42 4.64Q51.66 3.65 51.88 2.64Q52.11 1.63 52.30 0.72L52.30 0.72ZM66.82 9.14L67.21 11.52Q67.14 11.57 66.88 11.69Q66.63 11.81 66.22 11.94Q65.82 12.07 65.23 12.17Q64.64 12.26 63.90 12.26L63.90 12.26Q61.86 12.26 60.92 11.05Q59.98 9.84 59.98 7.51L59.98 7.51L59.98-2.06L56.86-2.06L56.86-4.51L62.94-4.51L62.94 7.73Q62.94 8.88 63.39 9.29Q63.85 9.70 64.54 9.70L64.54 9.70Q65.43 9.70 66.03 9.46Q66.63 9.22 66.82 9.14L66.82 9.14ZM78.51 0.72L78.51 11.62Q77.70 11.83 76.53 12.05Q75.37 12.26 74 12.26L74 12.26Q72.61 12.26 71.72 11.88Q70.83 11.50 70.32 10.79Q69.80 10.08 69.61 9.12Q69.42 8.16 69.42 7.01L69.42 7.01L69.42 0.72L72.37 0.72L72.37 6.62Q72.37 8.18 72.74 8.94Q73.11 9.70 74.19 9.70L74.19 9.70Q74.86 9.70 75.54 9.58L75.54 9.58L75.54 0.72L78.51 0.72ZM85.47 9.77L85.47 9.77Q86.55 9.77 87.13 9.61Q87.70 9.46 87.70 8.98L87.70 8.98Q87.70 8.66 87.52 8.45Q87.34 8.23 87.02 8.08Q86.70 7.92 86.28 7.78Q85.86 7.63 85.40 7.49L85.40 7.49Q84.75 7.30 84.08 7.04Q83.41 6.79 82.86 6.41Q82.30 6.02 81.94 5.44Q81.58 4.85 81.58 3.96L81.58 3.96Q81.58 3.24 81.86 2.60Q82.14 1.97 82.72 1.48Q83.31 0.98 84.22 0.71Q85.14 0.43 86.41 0.43L86.41 0.43Q87.51 0.43 88.46 0.60Q89.41 0.77 90.10 1.08L90.10 1.08L89.65 3.58Q89.24 3.46 88.38 3.18Q87.51 2.90 86.43 2.90L86.43 2.90Q85.30 2.90 84.91 3.18Q84.51 3.46 84.51 3.77L84.51 3.77Q84.51 4.03 84.69 4.24Q84.87 4.44 85.17 4.61Q85.47 4.78 85.87 4.93Q86.26 5.09 86.72 5.23L86.72 5.23Q87.37 5.45 88.06 5.71Q88.76 5.98 89.32 6.37Q89.89 6.77 90.25 7.38Q90.61 7.99 90.61 8.88L90.61 8.88Q90.61 9.58 90.34 10.20Q90.08 10.82 89.47 11.28Q88.86 11.74 87.87 12Q86.89 12.26 85.45 12.26L85.45 12.26Q83.98 12.26 82.95 11.93Q81.92 11.59 81.30 11.33L81.30 11.33L81.75 8.86Q82.59 9.19 83.54 9.48Q84.49 9.77 85.47 9.77Z"/>
    </g>
</svg>