<?xml version="1.0" encoding="UTF-8"?>
<svg height="34" width="106.6" version="1.1" xmlns="http://www.w3.org/2000/svg">
    <rect
        height="32"
        width="104.6"
        rx="1"
        ry="1"
        x="1"
        y="1"
        fill="#ff6347"
        stroke="#ad1a00"
        stroke-width="1"
         />
    <g transform="translate(0, 14)">
        <path fill="#ad1a00" d="M16.50 8.48L16.50 8.48Q17.36 8.48 17.94 8.30Q18.51 8.12 18.85 7.79Q19.18 7.47 19.31 7.07Q19.44 6.66 19.44 6.24L19.44 6.24Q19.44 5.71 19.13 5.29Q18.82 4.87 18.34 4.55Q17.87 4.22 17.28 3.96Q16.69 3.69 16.10 3.47L16.10 3.47Q15.32 3.19 14.48 2.82Q13.64 2.46 12.95 1.90Q12.27 1.34 11.82 0.51Q11.37-0.31 11.37-1.54L11.37-1.54Q11.37-3.98 12.95-5.35Q14.54-6.72 17.31-6.72L17.31-6.72Q18.90-6.72 20.09-6.36Q21.28-6.00 22.10-5.55L22.10-5.55L21.09-2.89Q20.39-3.28 19.53-3.56Q18.68-3.84 17.56-3.84L17.56-3.84Q14.82-3.84 14.82-1.85L14.82-1.85Q14.82-1.35 15.10-0.97Q15.38-0.59 15.81-0.30Q16.24-0.00 16.79 0.22Q17.34 0.44 17.87 0.64L17.87 0.64Q18.68 0.95 19.56 1.33Q20.44 1.70 21.19 2.33Q21.93 2.96 22.40 3.90Q22.88 4.84 22.88 6.27L22.88 6.27Q22.88 8.70 21.30 10.03Q19.72 11.36 16.50 11.36L16.50 11.36Q14.34 11.36 13.05 10.90Q11.76 10.44 11.12 10.05L11.12 10.05L12.13 7.25Q12.88 7.70 13.93 8.09Q14.98 8.48 16.50 8.48ZM28.00 6.10L28.00 0.70L25.01 0.70L25.01-2.16L28.00-2.16L28.00-5.46L31.45-6.02L31.45-2.16L36.96-2.16L36.96 0.70L31.45 0.70L31.45 6.02Q31.45 6.74 31.59 7.19Q31.73 7.64 31.98 7.89Q32.23 8.14 32.60 8.23Q32.96 8.31 33.41 8.31L33.41 8.31Q33.88 8.31 34.29 8.28Q34.70 8.26 35.07 8.19Q35.45 8.12 35.86 7.98Q36.26 7.84 36.74 7.61L36.74 7.61L37.22 10.58Q36.26 10.97 35.16 11.14Q34.05 11.31 33.02 11.31L33.02 11.31Q31.81 11.31 30.89 11.11Q29.96 10.92 29.32 10.36Q28.68 9.80 28.34 8.77Q28.00 7.75 28.00 6.10L28.00 6.10ZM47.69-2.16L51.22-2.16Q50.68-0.31 50.19 1.47Q49.70 3.24 49.17 4.94Q48.64 6.63 48.04 8.26Q47.44 9.88 46.74 11.42L46.74 11.42Q46.20 12.54 45.69 13.35Q45.17 14.16 44.54 14.68Q43.91 15.20 43.14 15.45Q42.37 15.70 41.33 15.70L41.33 15.70Q40.46 15.70 39.75 15.56Q39.04 15.42 38.56 15.20L38.56 15.20L39.20 12.32Q39.76 12.57 40.20 12.67Q40.63 12.76 41.14 12.76L41.14 12.76Q42.14 12.76 42.76 12.09Q43.38 11.42 43.74 10.50L43.74 10.50Q42.51 8.03 41.28 4.85Q40.04 1.68 39.04-2.16L39.04-2.16L42.62-2.16Q42.87-1.12 43.19 0.05Q43.52 1.23 43.88 2.40Q44.24 3.58 44.65 4.71Q45.06 5.85 45.48 6.83L45.48 6.83Q45.76 5.85 46.06 4.71Q46.37 3.58 46.65 2.42Q46.93 1.26 47.20 0.08Q47.46-1.10 47.69-2.16L47.69-2.16ZM64.63 7.67L65.08 10.44Q64.99 10.50 64.70 10.64Q64.40 10.78 63.93 10.93Q63.45 11.08 62.77 11.20Q62.08 11.31 61.21 11.31L61.21 11.31Q58.83 11.31 57.74 9.89Q56.65 8.48 56.65 5.76L56.65 5.76L56.65-5.41L53.01-5.41L53.01-8.26L60.09-8.26L60.09 6.02Q60.09 7.36 60.62 7.84Q61.16 8.31 61.97 8.31L61.97 8.31Q63.00 8.31 63.70 8.03Q64.40 7.75 64.63 7.67L64.63 7.67ZM78.26-2.16L78.26 10.55Q77.31 10.80 75.95 11.06Q74.60 11.31 73 11.31L73 11.31Q71.38 11.31 70.34 10.86Q69.30 10.41 68.70 9.59Q68.10 8.76 67.88 7.64Q67.65 6.52 67.65 5.18L67.65 5.18L67.65-2.16L71.10-2.16L71.10 4.73Q71.10 6.55 71.53 7.43Q71.96 8.31 73.22 8.31L73.22 8.31Q74.01 8.31 74.79 8.17L74.79 8.17L74.79-2.16L78.26-2.16ZM86.38 8.40L86.38 8.40Q87.64 8.40 88.32 8.21Q88.99 8.03 88.99 7.47L88.99 7.47Q88.99 7.11 88.78 6.86Q88.57 6.60 88.19 6.42Q87.81 6.24 87.32 6.07Q86.83 5.90 86.30 5.74L86.30 5.74Q85.54 5.51 84.76 5.22Q83.98 4.92 83.33 4.48Q82.69 4.03 82.27 3.34Q81.85 2.66 81.85 1.62L81.85 1.62Q81.85 0.78 82.17 0.04Q82.49-0.70 83.18-1.28Q83.86-1.85 84.93-2.17Q85.99-2.50 87.48-2.50L87.48-2.50Q88.76-2.50 89.87-2.30Q90.98-2.10 91.79-1.74L91.79-1.74L91.26 1.17Q90.78 1.03 89.77 0.71Q88.76 0.39 87.50 0.39L87.50 0.39Q86.19 0.39 85.73 0.71Q85.26 1.03 85.26 1.40L85.26 1.40Q85.26 1.70 85.47 1.94Q85.68 2.18 86.03 2.38Q86.38 2.57 86.85 2.75Q87.31 2.94 87.84 3.10L87.84 3.10Q88.60 3.36 89.41 3.66Q90.22 3.97 90.88 4.43Q91.54 4.90 91.96 5.61Q92.38 6.32 92.38 7.36L92.38 7.36Q92.38 8.17 92.07 8.90Q91.76 9.63 91.05 10.16Q90.33 10.69 89.18 11Q88.04 11.31 86.36 11.31L86.36 11.31Q84.65 11.31 83.44 10.92Q82.24 10.52 81.51 10.22L81.51 10.22L82.04 7.33Q83.02 7.72 84.13 8.06Q85.24 8.40 86.38 8.40Z"/>
    </g>
</svg>