<?xml version="1.0" encoding="UTF-8"?>
<svg height="34" width="90.4" version="1.1" xmlns="http://www.w3.org/2000/svg">
    <rect
        height="32"
        width="88.4"
        rx="1"
        ry="1"
        x="1"
        y="1"
        fill="#c6538c"
        stroke="#602040"
        stroke-width="1"
         />
    <g transform="translate(0, 12)">
        <path fill="#602040" d="M25.57 9.84L25.57 9.84Q26.31 9.84 26.80 9.68Q27.30 9.53 27.58 9.25Q27.87 8.98 27.98 8.63Q28.09 8.28 28.09 7.92L28.09 7.92Q28.09 7.46 27.82 7.10Q27.56 6.74 27.15 6.47Q26.74 6.19 26.24 5.96Q25.74 5.74 25.23 5.54L25.23 5.54Q24.56 5.30 23.84 4.99Q23.12 4.68 22.53 4.20Q21.94 3.72 21.56 3.01Q21.18 2.30 21.18 1.25L21.18 1.25Q21.18-0.84 22.53-2.02Q23.89-3.19 26.26-3.19L26.26-3.19Q27.63-3.19 28.65-2.88Q29.67-2.57 30.37-2.18L30.37-2.18L29.50 0.10Q28.90-0.24 28.17-0.48Q27.44-0.72 26.48-0.72L26.48-0.72Q24.13-0.72 24.13 0.98L24.13 0.98Q24.13 1.42 24.37 1.74Q24.61 2.06 24.98 2.32Q25.35 2.57 25.82 2.76Q26.29 2.95 26.74 3.12L26.74 3.12Q27.44 3.38 28.20 3.71Q28.95 4.03 29.59 4.57Q30.22 5.11 30.63 5.92Q31.04 6.72 31.04 7.94L31.04 7.94Q31.04 10.03 29.68 11.17Q28.33 12.31 25.57 12.31L25.57 12.31Q23.72 12.31 22.62 11.92Q21.51 11.52 20.96 11.18L20.96 11.18L21.82 8.78Q22.47 9.17 23.37 9.50Q24.27 9.84 25.57 9.84ZM39.10 12.31L39.10 12.31Q35.96 12.31 34.30 10.30Q32.65 8.28 32.65 4.56L32.65 4.56Q32.65 2.71 33.15 1.27Q33.66-0.17 34.56-1.16Q35.46-2.16 36.69-2.68Q37.93-3.19 39.39-3.19L39.39-3.19Q40.18-3.19 40.82-3.06Q41.46-2.93 41.94-2.76Q42.42-2.59 42.74-2.40Q43.06-2.21 43.23-2.11L43.23-2.11L42.46 0.24Q41.91-0.12 41.13-0.37Q40.35-0.62 39.34-0.62L39.34-0.62Q38.65-0.62 37.99-0.37Q37.33-0.12 36.81 0.47Q36.30 1.06 35.97 2.04Q35.65 3.02 35.65 4.49L35.65 4.49Q35.65 7.03 36.52 8.39Q37.40 9.74 39.39 9.74L39.39 9.74Q40.54 9.74 41.30 9.48Q42.06 9.22 42.51 8.95L42.51 8.95L43.26 11.28Q42.63 11.66 41.56 11.99Q40.50 12.31 39.10 12.31ZM49.57 9.84L49.57 9.84Q50.31 9.84 50.80 9.68Q51.30 9.53 51.58 9.25Q51.87 8.98 51.98 8.63Q52.09 8.28 52.09 7.92L52.09 7.92Q52.09 7.46 51.82 7.10Q51.56 6.74 51.15 6.47Q50.74 6.19 50.24 5.96Q49.74 5.74 49.23 5.54L49.23 5.54Q48.56 5.30 47.84 4.99Q47.12 4.68 46.53 4.20Q45.94 3.72 45.56 3.01Q45.18 2.30 45.18 1.25L45.18 1.25Q45.18-0.84 46.53-2.02Q47.89-3.19 50.26-3.19L50.26-3.19Q51.63-3.19 52.65-2.88Q53.67-2.57 54.37-2.18L54.37-2.18L53.50 0.10Q52.90-0.24 52.17-0.48Q51.44-0.72 50.48-0.72L50.48-0.72Q48.13-0.72 48.13 0.98L48.13 0.98Q48.13 1.42 48.37 1.74Q48.61 2.06 48.98 2.32Q49.35 2.57 49.82 2.76Q50.29 2.95 50.74 3.12L50.74 3.12Q51.44 3.38 52.20 3.71Q52.95 4.03 53.59 4.57Q54.22 5.11 54.63 5.92Q55.04 6.72 55.04 7.94L55.04 7.94Q55.04 10.03 53.68 11.17Q52.33 12.31 49.57 12.31L49.57 12.31Q47.72 12.31 46.62 11.92Q45.51 11.52 44.96 11.18L44.96 11.18L45.82 8.78Q46.47 9.17 47.37 9.50Q48.27 9.84 49.57 9.84ZM61.57 9.84L61.57 9.84Q62.31 9.84 62.80 9.68Q63.30 9.53 63.58 9.25Q63.87 8.98 63.98 8.63Q64.09 8.28 64.09 7.92L64.09 7.92Q64.09 7.46 63.82 7.10Q63.56 6.74 63.15 6.47Q62.74 6.19 62.24 5.96Q61.74 5.74 61.23 5.54L61.23 5.54Q60.56 5.30 59.84 4.99Q59.12 4.68 58.53 4.20Q57.94 3.72 57.56 3.01Q57.18 2.30 57.18 1.25L57.18 1.25Q57.18-0.84 58.53-2.02Q59.89-3.19 62.26-3.19L62.26-3.19Q63.63-3.19 64.65-2.88Q65.67-2.57 66.37-2.18L66.37-2.18L65.50 0.10Q64.90-0.24 64.17-0.48Q63.44-0.72 62.48-0.72L62.48-0.72Q60.13-0.72 60.13 0.98L60.13 0.98Q60.13 1.42 60.37 1.74Q60.61 2.06 60.98 2.32Q61.35 2.57 61.82 2.76Q62.29 2.95 62.74 3.12L62.74 3.12Q63.44 3.38 64.20 3.71Q64.95 4.03 65.59 4.57Q66.22 5.11 66.63 5.92Q67.04 6.72 67.04 7.94L67.04 7.94Q67.04 10.03 65.68 11.17Q64.33 12.31 61.57 12.31L61.57 12.31Q59.72 12.31 58.62 11.92Q57.51 11.52 56.96 11.18L56.96 11.18L57.82 8.78Q58.47 9.17 59.37 9.50Q60.27 9.84 61.57 9.84Z"/>
    </g>
</svg>