<?xml version="1.0" encoding="UTF-8"?>
<svg height="34" width="106.6" version="1.1" xmlns="http://www.w3.org/2000/svg">
    <rect
        height="32"
        width="104.6"
        rx="1"
        ry="1"
        x="1"
        y="1"
        fill="#ff3e00"
        stroke="#661a00"
        stroke-width="1"
         />
    <g transform="translate(0, 14)">
        <path fill="#661a00" d="M16.50 8.48L16.50 8.48Q17.36 8.48 17.94 8.30Q18.51 8.12 18.85 7.79Q19.18 7.47 19.31 7.07Q19.44 6.66 19.44 6.24L19.44 6.24Q19.44 5.71 19.13 5.29Q18.82 4.87 18.34 4.55Q17.87 4.22 17.28 3.96Q16.69 3.69 16.10 3.47L16.10 3.47Q15.32 3.19 14.48 2.82Q13.64 2.46 12.95 1.90Q12.27 1.34 11.82 0.51Q11.37-0.31 11.37-1.54L11.37-1.54Q11.37-3.98 12.95-5.35Q14.54-6.72 17.31-6.72L17.31-6.72Q18.90-6.72 20.09-6.36Q21.28-6.00 22.10-5.55L22.10-5.55L21.09-2.89Q20.39-3.28 19.53-3.56Q18.68-3.84 17.56-3.84L17.56-3.84Q14.82-3.84 14.82-1.85L14.82-1.85Q14.82-1.35 15.10-0.97Q15.38-0.59 15.81-0.30Q16.24-0.00 16.79 0.22Q17.34 0.44 17.87 0.64L17.87 0.64Q18.68 0.95 19.56 1.33Q20.44 1.70 21.19 2.33Q21.93 2.96 22.40 3.90Q22.88 4.84 22.88 6.27L22.88 6.27Q22.88 8.70 21.30 10.03Q19.72 11.36 16.50 11.36L16.50 11.36Q14.34 11.36 13.05 10.90Q11.76 10.44 11.12 10.05L11.12 10.05L12.13 7.25Q12.88 7.70 13.93 8.09Q14.98 8.48 16.50 8.48ZM32.32 11L29.43 11Q28.17 8.51 26.87 5.16Q25.57 1.82 24.39-2.16L24.39-2.16L28.00-2.16Q28.26-1.10 28.61 0.11Q28.96 1.31 29.35 2.53Q29.74 3.75 30.15 4.90Q30.55 6.04 30.92 7.00L30.92 7.00Q31.28 6.04 31.73 4.90Q32.18 3.75 32.61 2.53Q33.04 1.31 33.45 0.11Q33.86-1.10 34.11-2.16L34.11-2.16L37.61-2.16Q36.43 1.82 35.00 5.16Q33.58 8.51 32.32 11L32.32 11ZM38.87 4.53L38.87 4.53Q38.87 2.80 39.40 1.48Q39.93 0.16 40.80-0.72Q41.67-1.60 42.79-2.05Q43.91-2.50 45.08-2.50L45.08-2.50Q48.00-2.50 49.51-0.77Q51.02 0.95 51.02 4.25L51.02 4.25Q51.02 4.59 51.01 4.95Q50.99 5.32 50.96 5.54L50.96 5.54L42.42 5.54Q42.42 6.83 43.49 7.57Q44.55 8.31 46.23 8.31L46.23 8.31Q47.27 8.31 48.21 8.09Q49.14 7.86 49.79 7.64L49.79 7.64L50.26 10.58Q49.37 10.89 48.36 11.10Q47.35 11.31 46.09 11.31L46.09 11.31Q44.41 11.31 43.08 10.87Q41.75 10.44 40.81 9.59Q39.88 8.73 39.37 7.47Q38.87 6.21 38.87 4.53ZM42.42 3.16L47.69 3.16Q47.69 2.63 47.55 2.14Q47.41 1.65 47.10 1.26Q46.79 0.86 46.32 0.63Q45.84 0.39 45.14 0.39L45.14 0.39Q44.47 0.39 43.98 0.61Q43.49 0.84 43.17 1.23Q42.84 1.62 42.66 2.12Q42.48 2.63 42.42 3.16L42.42 3.16ZM64.63 7.67L65.08 10.44Q64.99 10.50 64.70 10.64Q64.40 10.78 63.93 10.93Q63.45 11.08 62.77 11.20Q62.08 11.31 61.21 11.31L61.21 11.31Q58.83 11.31 57.74 9.89Q56.65 8.48 56.65 5.76L56.65 5.76L56.65-5.41L53.01-5.41L53.01-8.26L60.09-8.26L60.09 6.02Q60.09 7.36 60.62 7.84Q61.16 8.31 61.97 8.31L61.97 8.31Q63.00 8.31 63.70 8.03Q64.40 7.75 64.63 7.67L64.63 7.67ZM70.00 6.10L70.00 0.70L67.01 0.70L67.01-2.16L70.00-2.16L70.00-5.46L73.45-6.02L73.45-2.16L78.96-2.16L78.96 0.70L73.45 0.70L73.45 6.02Q73.45 6.74 73.59 7.19Q73.73 7.64 73.98 7.89Q74.23 8.14 74.60 8.23Q74.96 8.31 75.41 8.31L75.41 8.31Q75.88 8.31 76.29 8.28Q76.70 8.26 77.07 8.19Q77.45 8.12 77.86 7.98Q78.26 7.84 78.74 7.61L78.74 7.61L79.22 10.58Q78.26 10.97 77.16 11.14Q76.05 11.31 75.02 11.31L75.02 11.31Q73.81 11.31 72.89 11.11Q71.96 10.92 71.32 10.36Q70.68 9.80 70.34 8.77Q70.00 7.75 70.00 6.10L70.00 6.10ZM80.87 4.53L80.87 4.53Q80.87 2.80 81.40 1.48Q81.93 0.16 82.80-0.72Q83.67-1.60 84.79-2.05Q85.91-2.50 87.08-2.50L87.08-2.50Q90.00-2.50 91.51-0.77Q93.02 0.95 93.02 4.25L93.02 4.25Q93.02 4.59 93.01 4.95Q92.99 5.32 92.96 5.54L92.96 5.54L84.42 5.54Q84.42 6.83 85.49 7.57Q86.55 8.31 88.23 8.31L88.23 8.31Q89.27 8.31 90.21 8.09Q91.14 7.86 91.79 7.64L91.79 7.64L92.26 10.58Q91.37 10.89 90.36 11.10Q89.35 11.31 88.09 11.31L88.09 11.31Q86.41 11.31 85.08 10.87Q83.75 10.44 82.81 9.59Q81.88 8.73 81.37 7.47Q80.87 6.21 80.87 4.53ZM84.42 3.16L89.69 3.16Q89.69 2.63 89.55 2.14Q89.41 1.65 89.10 1.26Q88.79 0.86 88.32 0.63Q87.84 0.39 87.14 0.39L87.14 0.39Q86.47 0.39 85.98 0.61Q85.49 0.84 85.17 1.23Q84.84 1.62 84.66 2.12Q84.48 2.63 84.42 3.16L84.42 3.16Z"/>
    </g>
</svg>