<?xml version="1.0" encoding="UTF-8"?>
<svg height="34" width="259.79999999999995" version="1.1" xmlns="http://www.w3.org/2000/svg"><!--Created by Josélio de S. C. Júnior - 2021 - https://github.com/joseliojunior -->
<rect
    height="32"
    width="257.79999999999995"
    rx="1"
    ry="1"
    x="1" y="1"
    fill="#2c2c32"
    stroke="#0066b8"
    stroke-width="1" />
<g transform="translate(0, 12)">
    <path fill="#0066b8" d="M27.51 12L24.46 12Q23.89 10.34 23.24 8.26Q22.59 6.17 22.02 4.09Q21.44 2.02 20.98 0.17Q20.53-1.68 20.31-2.86L20.31-2.86L23.43-2.86Q23.58-1.70 23.86-0.18Q24.15 1.34 24.50 2.96Q24.85 4.58 25.24 6.16Q25.64 7.73 26.02 8.98L26.02 8.98Q26.41 7.75 26.79 6.18Q27.18 4.61 27.51 2.99Q27.85 1.37 28.14-0.17Q28.42-1.70 28.62-2.86L28.62-2.86L31.71-2.86Q31.42-1.42 31.00 0.36Q30.58 2.14 30.04 4.09Q29.50 6.05 28.86 8.08Q28.21 10.10 27.51 12L27.51 12ZM38.82-2.52L38.82-2.52Q38.82-1.66 38.26-1.15Q37.71-0.65 36.94-0.65L36.94-0.65Q36.18-0.65 35.64-1.15Q35.10-1.66 35.10-2.52L35.10-2.52Q35.10-3.41 35.64-3.91Q36.18-4.42 36.94-4.42L36.94-4.42Q37.71-4.42 38.26-3.91Q38.82-3.41 38.82-2.52ZM42.82 9.14L43.21 11.52Q42.30 11.95 41.49 12.11Q40.69 12.26 40.02 12.26L40.02 12.26Q38.86 12.26 38.08 11.93Q37.30 11.59 36.84 10.96Q36.37 10.32 36.18 9.41Q35.98 8.50 35.98 7.32L35.98 7.32L35.98 3.17L32.86 3.17L32.86 0.72L38.94 0.72L38.94 7.70Q38.94 8.71 39.31 9.20Q39.68 9.70 40.54 9.70L40.54 9.70Q40.95 9.70 41.53 9.59Q42.10 9.48 42.82 9.14L42.82 9.14ZM49.47 9.77L49.47 9.77Q50.55 9.77 51.13 9.61Q51.70 9.46 51.70 8.98L51.70 8.98Q51.70 8.66 51.52 8.45Q51.34 8.23 51.02 8.08Q50.70 7.92 50.28 7.78Q49.86 7.63 49.40 7.49L49.40 7.49Q48.75 7.30 48.08 7.04Q47.41 6.79 46.86 6.41Q46.30 6.02 45.94 5.44Q45.58 4.85 45.58 3.96L45.58 3.96Q45.58 3.24 45.86 2.60Q46.14 1.97 46.72 1.48Q47.31 0.98 48.22 0.71Q49.14 0.43 50.41 0.43L50.41 0.43Q51.51 0.43 52.46 0.60Q53.41 0.77 54.10 1.08L54.10 1.08L53.65 3.58Q53.24 3.46 52.38 3.18Q51.51 2.90 50.43 2.90L50.43 2.90Q49.30 2.90 48.91 3.18Q48.51 3.46 48.51 3.77L48.51 3.77Q48.51 4.03 48.69 4.24Q48.87 4.44 49.17 4.61Q49.47 4.78 49.87 4.93Q50.26 5.09 50.72 5.23L50.72 5.23Q51.37 5.45 52.06 5.71Q52.76 5.98 53.32 6.37Q53.89 6.77 54.25 7.38Q54.61 7.99 54.61 8.88L54.61 8.88Q54.61 9.58 54.34 10.20Q54.08 10.82 53.47 11.28Q52.86 11.74 51.87 12Q50.89 12.26 49.45 12.26L49.45 12.26Q47.98 12.26 46.95 11.93Q45.92 11.59 45.30 11.33L45.30 11.33L45.75 8.86Q46.59 9.19 47.54 9.48Q48.49 9.77 49.47 9.77ZM66.51 0.72L66.51 11.62Q65.70 11.83 64.53 12.05Q63.37 12.26 62 12.26L62 12.26Q60.61 12.26 59.72 11.88Q58.83 11.50 58.32 10.79Q57.80 10.08 57.61 9.12Q57.42 8.16 57.42 7.01L57.42 7.01L57.42 0.72L60.37 0.72L60.37 6.62Q60.37 8.18 60.74 8.94Q61.11 9.70 62.19 9.70L62.19 9.70Q62.86 9.70 63.54 9.58L63.54 9.58L63.54 0.72L66.51 0.72ZM74.02 9.89L74.02 9.89Q74.50 9.89 74.96 9.88Q75.42 9.86 75.75 9.82L75.75 9.82L75.75 7.22Q75.46 7.18 75.06 7.14Q74.65 7.10 74.31 7.10L74.31 7.10Q73.86 7.10 73.42 7.16Q72.99 7.22 72.67 7.37Q72.34 7.51 72.15 7.78Q71.96 8.04 71.96 8.47L71.96 8.47Q71.96 9.24 72.54 9.56Q73.11 9.89 74.02 9.89ZM73.76 0.43L73.76 0.43Q75.15 0.43 76.08 0.76Q77 1.08 77.55 1.67Q78.10 2.26 78.34 3.11Q78.58 3.96 78.58 5.02L78.58 5.02L78.58 11.74Q77.94 11.88 76.66 12.07Q75.39 12.26 73.81 12.26L73.81 12.26Q72.73 12.26 71.85 12.07Q70.98 11.88 70.35 11.44Q69.73 10.99 69.39 10.28Q69.06 9.58 69.06 8.54L69.06 8.54Q69.06 7.56 69.44 6.89Q69.82 6.22 70.47 5.81Q71.12 5.40 71.96 5.22Q72.80 5.04 73.71 5.04L73.71 5.04Q74.86 5.04 75.75 5.23L75.75 5.23L75.75 4.87Q75.75 4.03 75.22 3.47Q74.70 2.90 73.40 2.90L73.40 2.90Q72.56 2.90 71.78 3.02Q71 3.14 70.52 3.31L70.52 3.31L70.11 0.94Q70.66 0.74 71.67 0.59Q72.68 0.43 73.76 0.43ZM90.82 9.14L91.21 11.52Q91.14 11.57 90.88 11.69Q90.63 11.81 90.22 11.94Q89.82 12.07 89.23 12.17Q88.64 12.26 87.90 12.26L87.90 12.26Q85.86 12.26 84.92 11.05Q83.98 9.84 83.98 7.51L83.98 7.51L83.98-2.06L80.86-2.06L80.86-4.51L86.94-4.51L86.94 7.73Q86.94 8.88 87.39 9.29Q87.85 9.70 88.54 9.70L88.54 9.70Q89.43 9.70 90.03 9.46Q90.63 9.22 90.82 9.14L90.82 9.14ZM109.57 9.84L109.57 9.84Q110.31 9.84 110.80 9.68Q111.30 9.53 111.58 9.25Q111.87 8.98 111.98 8.63Q112.09 8.28 112.09 7.92L112.09 7.92Q112.09 7.46 111.82 7.10Q111.56 6.74 111.15 6.47Q110.74 6.19 110.24 5.96Q109.74 5.74 109.23 5.54L109.23 5.54Q108.56 5.30 107.84 4.99Q107.12 4.68 106.53 4.20Q105.94 3.72 105.56 3.01Q105.18 2.30 105.18 1.25L105.18 1.25Q105.18-0.84 106.53-2.02Q107.89-3.19 110.26-3.19L110.26-3.19Q111.63-3.19 112.65-2.88Q113.67-2.57 114.37-2.18L114.37-2.18L113.50 0.10Q112.90-0.24 112.17-0.48Q111.44-0.72 110.48-0.72L110.48-0.72Q108.13-0.72 108.13 0.98L108.13 0.98Q108.13 1.42 108.37 1.74Q108.61 2.06 108.98 2.32Q109.35 2.57 109.82 2.76Q110.29 2.95 110.74 3.12L110.74 3.12Q111.44 3.38 112.20 3.71Q112.95 4.03 113.59 4.57Q114.22 5.11 114.63 5.92Q115.04 6.72 115.04 7.94L115.04 7.94Q115.04 10.03 113.68 11.17Q112.33 12.31 109.57 12.31L109.57 12.31Q107.72 12.31 106.62 11.92Q105.51 11.52 104.96 11.18L104.96 11.18L105.82 8.78Q106.47 9.17 107.37 9.50Q108.27 9.84 109.57 9.84ZM119.43 7.80L119.43 3.17L116.86 3.17L116.86 0.72L119.43 0.72L119.43-2.11L122.38-2.59L122.38 0.72L127.11 0.72L127.11 3.17L122.38 3.17L122.38 7.73Q122.38 8.35 122.50 8.74Q122.62 9.12 122.84 9.34Q123.06 9.55 123.37 9.62Q123.68 9.70 124.06 9.70L124.06 9.70Q124.47 9.70 124.82 9.67Q125.17 9.65 125.49 9.59Q125.82 9.53 126.16 9.41Q126.51 9.29 126.92 9.10L126.92 9.10L127.33 11.64Q126.51 11.98 125.56 12.12Q124.62 12.26 123.73 12.26L123.73 12.26Q122.70 12.26 121.90 12.10Q121.11 11.93 120.56 11.45Q120.01 10.97 119.72 10.09Q119.43 9.22 119.43 7.80L119.43 7.80ZM138.51 0.72L138.51 11.62Q137.70 11.83 136.53 12.05Q135.37 12.26 134 12.26L134 12.26Q132.61 12.26 131.72 11.88Q130.83 11.50 130.32 10.79Q129.80 10.08 129.61 9.12Q129.42 8.16 129.42 7.01L129.42 7.01L129.42 0.72L132.37 0.72L132.37 6.62Q132.37 8.18 132.74 8.94Q133.11 9.70 134.19 9.70L134.19 9.70Q134.86 9.70 135.54 9.58L135.54 9.58L135.54 0.72L138.51 0.72ZM143.67 6.29L143.67 6.29Q143.67 7.80 144.24 8.76Q144.80 9.72 146.05 9.72L146.05 9.72Q146.41 9.72 146.72 9.70Q147.03 9.67 147.37 9.62L147.37 9.62L147.37 3.48Q147.03 3.29 146.60 3.16Q146.17 3.02 145.69 3.02L145.69 3.02Q144.63 3.02 144.15 3.86Q143.67 4.70 143.67 6.29ZM150.32-4.66L150.32 11.66Q149.50 11.93 148.33 12.10Q147.15 12.26 146.02 12.26L146.02 12.26Q143.38 12.26 142.03 10.70Q140.67 9.14 140.67 6.43L140.67 6.43Q140.67 3.67 141.81 2.08Q142.95 0.48 145.18 0.48L145.18 0.48Q145.78 0.48 146.36 0.61Q146.94 0.74 147.37 0.98L147.37 0.98L147.37-4.15L150.32-4.66ZM158.82-2.52L158.82-2.52Q158.82-1.66 158.26-1.15Q157.71-0.65 156.94-0.65L156.94-0.65Q156.18-0.65 155.64-1.15Q155.10-1.66 155.10-2.52L155.10-2.52Q155.10-3.41 155.64-3.91Q156.18-4.42 156.94-4.42L156.94-4.42Q157.71-4.42 158.26-3.91Q158.82-3.41 158.82-2.52ZM162.82 9.14L163.21 11.52Q162.30 11.95 161.49 12.11Q160.69 12.26 160.02 12.26L160.02 12.26Q158.86 12.26 158.08 11.93Q157.30 11.59 156.84 10.96Q156.37 10.32 156.18 9.41Q155.98 8.50 155.98 7.32L155.98 7.32L155.98 3.17L152.86 3.17L152.86 0.72L158.94 0.72L158.94 7.70Q158.94 8.71 159.31 9.20Q159.68 9.70 160.54 9.70L160.54 9.70Q160.95 9.70 161.53 9.59Q162.10 9.48 162.82 9.14L162.82 9.14ZM175.33 6.34L175.33 6.34Q175.33 7.68 174.94 8.77Q174.56 9.86 173.86 10.66Q173.17 11.45 172.20 11.88Q171.22 12.31 170.02 12.31L170.02 12.31Q168.82 12.31 167.85 11.88Q166.88 11.45 166.17 10.66Q165.46 9.86 165.08 8.77Q164.70 7.68 164.70 6.34L164.70 6.34Q164.70 5.02 165.09 3.92Q165.49 2.83 166.20 2.05Q166.90 1.27 167.89 0.85Q168.87 0.43 170.02 0.43L170.02 0.43Q171.20 0.43 172.17 0.85Q173.14 1.27 173.85 2.05Q174.56 2.83 174.94 3.92Q175.33 5.02 175.33 6.34ZM167.70 6.36L167.70 6.36Q167.70 7.87 168.24 8.81Q168.78 9.74 169.98 9.74L169.98 9.74Q171.13 9.74 171.72 8.81Q172.30 7.87 172.30 6.36L172.30 6.36Q172.30 4.85 171.76 3.92Q171.22 3 170.02 3L170.02 3Q168.87 3 168.28 3.92Q167.70 4.85 167.70 6.36ZM195.10 12.31L195.10 12.31Q191.96 12.31 190.30 10.30Q188.65 8.28 188.65 4.56L188.65 4.56Q188.65 2.71 189.15 1.27Q189.66-0.17 190.56-1.16Q191.46-2.16 192.69-2.68Q193.93-3.19 195.39-3.19L195.39-3.19Q196.18-3.19 196.82-3.06Q197.46-2.93 197.94-2.76Q198.42-2.59 198.74-2.40Q199.06-2.21 199.23-2.11L199.23-2.11L198.46 0.24Q197.91-0.12 197.13-0.37Q196.35-0.62 195.34-0.62L195.34-0.62Q194.65-0.62 193.99-0.37Q193.33-0.12 192.81 0.47Q192.30 1.06 191.97 2.04Q191.65 3.02 191.65 4.49L191.65 4.49Q191.65 7.03 192.52 8.39Q193.40 9.74 195.39 9.74L195.39 9.74Q196.54 9.74 197.30 9.48Q198.06 9.22 198.51 8.95L198.51 8.95L199.26 11.28Q198.63 11.66 197.56 11.99Q196.50 12.31 195.10 12.31ZM211.33 6.34L211.33 6.34Q211.33 7.68 210.94 8.77Q210.56 9.86 209.86 10.66Q209.17 11.45 208.20 11.88Q207.22 12.31 206.02 12.31L206.02 12.31Q204.82 12.31 203.85 11.88Q202.88 11.45 202.17 10.66Q201.46 9.86 201.08 8.77Q200.70 7.68 200.70 6.34L200.70 6.34Q200.70 5.02 201.09 3.92Q201.49 2.83 202.20 2.05Q202.90 1.27 203.89 0.85Q204.87 0.43 206.02 0.43L206.02 0.43Q207.20 0.43 208.17 0.85Q209.14 1.27 209.85 2.05Q210.56 2.83 210.94 3.92Q211.33 5.02 211.33 6.34ZM203.70 6.36L203.70 6.36Q203.70 7.87 204.24 8.81Q204.78 9.74 205.98 9.74L205.98 9.74Q207.13 9.74 207.72 8.81Q208.30 7.87 208.30 6.36L208.30 6.36Q208.30 4.85 207.76 3.92Q207.22 3 206.02 3L206.02 3Q204.87 3 204.28 3.92Q203.70 4.85 203.70 6.36ZM215.67 6.29L215.67 6.29Q215.67 7.80 216.24 8.76Q216.80 9.72 218.05 9.72L218.05 9.72Q218.41 9.72 218.72 9.70Q219.03 9.67 219.37 9.62L219.37 9.62L219.37 3.48Q219.03 3.29 218.60 3.16Q218.17 3.02 217.69 3.02L217.69 3.02Q216.63 3.02 216.15 3.86Q215.67 4.70 215.67 6.29ZM222.32-4.66L222.32 11.66Q221.50 11.93 220.33 12.10Q219.15 12.26 218.02 12.26L218.02 12.26Q215.38 12.26 214.03 10.70Q212.67 9.14 212.67 6.43L212.67 6.43Q212.67 3.67 213.81 2.08Q214.95 0.48 217.18 0.48L217.18 0.48Q217.78 0.48 218.36 0.61Q218.94 0.74 219.37 0.98L219.37 0.98L219.37-4.15L222.32-4.66ZM224.74 6.46L224.74 6.46Q224.74 4.97 225.20 3.84Q225.66 2.71 226.40 1.96Q227.14 1.20 228.10 0.82Q229.06 0.43 230.07 0.43L230.07 0.43Q232.57 0.43 233.86 1.91Q235.16 3.38 235.16 6.22L235.16 6.22Q235.16 6.50 235.15 6.82Q235.14 7.13 235.11 7.32L235.11 7.32L227.79 7.32Q227.79 8.42 228.70 9.06Q229.62 9.70 231.06 9.70L231.06 9.70Q231.94 9.70 232.75 9.50Q233.55 9.31 234.10 9.12L234.10 9.12L234.51 11.64Q233.74 11.90 232.88 12.08Q232.02 12.26 230.94 12.26L230.94 12.26Q229.50 12.26 228.36 11.89Q227.22 11.52 226.41 10.79Q225.61 10.06 225.18 8.98Q224.74 7.90 224.74 6.46ZM227.79 5.28L232.30 5.28Q232.30 4.82 232.18 4.40Q232.06 3.98 231.80 3.65Q231.54 3.31 231.13 3.11Q230.72 2.90 230.12 2.90L230.12 2.90Q229.54 2.90 229.12 3.10Q228.70 3.29 228.43 3.62Q228.15 3.96 228.00 4.39Q227.84 4.82 227.79 5.28L227.79 5.28Z"/>
</g>
</svg>