<?xml version="1.0" encoding="UTF-8"?>
<svg height="26" width="74.4" version="1.1" xmlns="http://www.w3.org/2000/svg"><!--Created by Josélio de S. C. Júnior - 2021 - https://github.com/joseliojunior -->
    <rect
        height="24"
        width="72.4"
        rx="1"
        ry="1"
        x="1" y="1"
        fill="#b07219"
        stroke="#281a06"
        stroke-width="1" />
    <g transform="translate(0, 8)">
        <path fill="#281a06" stroke="none" d="M27.01 0.10L27.01 6.69Q27.01 7.41 26.82 8.05Q26.64 8.69 26.22 9.17Q25.79 9.65 25.12 9.93Q24.45 10.21 23.49 10.21L23.49 10.21Q22.48 10.21 21.81 9.95Q21.14 9.70 20.67 9.33L20.67 9.33L21.42 7.76Q21.82 8.02 22.31 8.26Q22.80 8.50 23.31 8.50L23.31 8.50Q24.08 8.50 24.55 8.09Q25.02 7.68 25.02 6.58L25.02 6.58L25.02 1.73L21.71 1.73L21.71 0.10L27.01 0.10ZM32.02 8.59L32.02 8.59Q32.34 8.59 32.64 8.58Q32.94 8.58 33.17 8.54L33.17 8.54L33.17 6.82Q32.98 6.78 32.70 6.76Q32.43 6.74 32.21 6.74L32.21 6.74Q31.90 6.74 31.62 6.78Q31.33 6.82 31.11 6.91Q30.90 7.01 30.77 7.18Q30.64 7.36 30.64 7.65L30.64 7.65Q30.64 8.16 31.02 8.38Q31.41 8.59 32.02 8.59ZM31.84 2.29L31.84 2.29Q32.77 2.29 33.38 2.50Q34 2.72 34.37 3.11Q34.74 3.50 34.90 4.07Q35.06 4.64 35.06 5.34L35.06 5.34L35.06 9.82Q34.62 9.92 33.78 10.05Q32.93 10.18 31.87 10.18L31.87 10.18Q31.15 10.18 30.57 10.05Q29.98 9.92 29.57 9.62Q29.15 9.33 28.93 8.86Q28.70 8.38 28.70 7.70L28.70 7.70Q28.70 7.04 28.96 6.59Q29.22 6.14 29.65 5.87Q30.08 5.60 30.64 5.48Q31.20 5.36 31.81 5.36L31.81 5.36Q32.58 5.36 33.17 5.49L33.17 5.49L33.17 5.25Q33.17 4.69 32.82 4.31Q32.46 3.94 31.60 3.94L31.60 3.94Q31.04 3.94 30.52 4.02Q30 4.10 29.68 4.21L29.68 4.21L29.41 2.62Q29.78 2.50 30.45 2.39Q31.12 2.29 31.84 2.29ZM40.75 10L39.10 10Q38.38 8.58 37.64 6.66Q36.90 4.75 36.22 2.48L36.22 2.48L38.29 2.48Q38.43 3.09 38.63 3.78Q38.83 4.46 39.06 5.16Q39.28 5.86 39.51 6.51Q39.74 7.17 39.95 7.71L39.95 7.71Q40.16 7.17 40.42 6.51Q40.67 5.86 40.92 5.16Q41.17 4.46 41.40 3.78Q41.63 3.09 41.78 2.48L41.78 2.48L43.78 2.48Q43.10 4.75 42.29 6.66Q41.47 8.58 40.75 10L40.75 10ZM48.02 8.59L48.02 8.59Q48.34 8.59 48.64 8.58Q48.94 8.58 49.17 8.54L49.17 8.54L49.17 6.82Q48.98 6.78 48.70 6.76Q48.43 6.74 48.21 6.74L48.21 6.74Q47.90 6.74 47.62 6.78Q47.33 6.82 47.11 6.91Q46.90 7.01 46.77 7.18Q46.64 7.36 46.64 7.65L46.64 7.65Q46.64 8.16 47.02 8.38Q47.41 8.59 48.02 8.59ZM47.84 2.29L47.84 2.29Q48.77 2.29 49.38 2.50Q50 2.72 50.37 3.11Q50.74 3.50 50.90 4.07Q51.06 4.64 51.06 5.34L51.06 5.34L51.06 9.82Q50.62 9.92 49.78 10.05Q48.93 10.18 47.87 10.18L47.87 10.18Q47.15 10.18 46.57 10.05Q45.98 9.92 45.57 9.62Q45.15 9.33 44.93 8.86Q44.70 8.38 44.70 7.70L44.70 7.70Q44.70 7.04 44.96 6.59Q45.22 6.14 45.65 5.87Q46.08 5.60 46.64 5.48Q47.20 5.36 47.81 5.36L47.81 5.36Q48.58 5.36 49.17 5.49L49.17 5.49L49.17 5.25Q49.17 4.69 48.82 4.31Q48.46 3.94 47.60 3.94L47.60 3.94Q47.04 3.94 46.52 4.02Q46 4.10 45.68 4.21L45.68 4.21L45.41 2.62Q45.78 2.50 46.45 2.39Q47.12 2.29 47.84 2.29Z"/>
    </g>
</svg>