<?xml version="1.0" encoding="UTF-8"?>
<svg height="26" width="147.3" version="1.1" xmlns="http://www.w3.org/2000/svg"><!--Created by Josélio de S. C. Júnior - 2021 - https://github.com/joseliojunior -->
    <rect
        height="24"
        width="145.3"
        rx="12"
        ry="12"
        x="1" y="1"
        fill="#0D597F"
        stroke="#39afea"
        stroke-width="1" />
    <g transform="translate(0, 8)">
        <path fill="#39afea" d="M27.86 10L25.74 10L25.28 7.71L22.64 7.71L22.19 10L20.14 10Q20.85 7.07 21.57 4.66Q22.29 2.26 22.96 0.10L22.96 0.10L25.10 0.10Q25.81 2.27 26.50 4.71Q27.20 7.15 27.86 10L27.86 10ZM23.98 2.02L23.98 2.02Q23.82 2.58 23.69 3.08Q23.55 3.58 23.43 4.07Q23.31 4.56 23.21 5.06Q23.10 5.55 23.01 6.08L23.01 6.08L24.94 6.08Q24.85 5.55 24.75 5.06Q24.66 4.56 24.54 4.07Q24.42 3.58 24.28 3.08Q24.14 2.58 23.98 2.02ZM35.22 8.10L35.47 9.68Q35.42 9.71 35.26 9.79Q35.09 9.87 34.82 9.96Q34.54 10.05 34.15 10.11Q33.76 10.18 33.26 10.18L33.26 10.18Q31.90 10.18 31.28 9.37Q30.66 8.56 30.66 7.01L30.66 7.01L30.66 0.62L28.58 0.62L28.58-1.01L32.62-1.01L32.62 7.15Q32.62 7.92 32.93 8.19Q33.23 8.46 33.70 8.46L33.70 8.46Q34.29 8.46 34.69 8.30Q35.09 8.14 35.22 8.10L35.22 8.10ZM41.50 6.30L41.50 6.30Q41.50 5.30 41.10 4.65Q40.70 4 39.89 4L39.89 4Q39.66 4 39.41 4.02Q39.15 4.05 38.98 4.06L38.98 4.06L38.98 8.19Q39.17 8.32 39.49 8.40Q39.81 8.48 40.13 8.48L40.13 8.48Q40.83 8.48 41.17 7.91Q41.50 7.34 41.50 6.30ZM43.50 6.24L43.50 6.24Q43.50 7.10 43.31 7.83Q43.12 8.56 42.75 9.08Q42.38 9.60 41.82 9.89Q41.26 10.18 40.53 10.18L40.53 10.18Q39.78 10.18 38.98 9.81L38.98 9.81L38.98 12.64L37.01 12.64L37.01 2.72Q37.55 2.54 38.34 2.43Q39.14 2.32 39.90 2.32L39.90 2.32Q41.65 2.32 42.58 3.38Q43.50 4.43 43.50 6.24ZM48.54 0.32L48.54 0.32Q48.54 0.90 48.18 1.23Q47.81 1.57 47.30 1.57L47.30 1.57Q46.78 1.57 46.42 1.23Q46.06 0.90 46.06 0.32L46.06 0.32Q46.06-0.27 46.42-0.61Q46.78-0.94 47.30-0.94L47.30-0.94Q47.81-0.94 48.18-0.61Q48.54-0.27 48.54 0.32ZM51.22 8.10L51.47 9.68Q50.86 9.97 50.33 10.07Q49.79 10.18 49.34 10.18L49.34 10.18Q48.58 10.18 48.06 9.95Q47.54 9.73 47.22 9.30Q46.91 8.88 46.78 8.27Q46.66 7.66 46.66 6.88L46.66 6.88L46.66 4.11L44.58 4.11L44.58 2.48L48.62 2.48L48.62 7.14Q48.62 7.81 48.87 8.14Q49.12 8.46 49.70 8.46L49.70 8.46Q49.97 8.46 50.35 8.39Q50.74 8.32 51.22 8.10L51.22 8.10ZM53.01 10L53.01 2.72Q53.54 2.58 54.31 2.45Q55.09 2.32 56 2.32L56 2.32Q56.90 2.32 57.49 2.57Q58.08 2.82 58.42 3.27Q58.77 3.73 58.91 4.36Q59.06 4.99 59.06 5.76L59.06 5.76L59.06 10L57.09 10L57.09 6.02Q57.09 4.96 56.85 4.50Q56.61 4.03 55.87 4.03L55.87 4.03Q55.65 4.03 55.43 4.05Q55.22 4.06 54.98 4.10L54.98 4.10L54.98 10L53.01 10ZM60.50 6.30L60.50 6.30Q60.50 5.31 60.80 4.56Q61.10 3.81 61.60 3.30Q62.10 2.80 62.74 2.54Q63.38 2.29 64.05 2.29L64.05 2.29Q65.71 2.29 66.58 3.27Q67.44 4.26 67.44 6.14L67.44 6.14Q67.44 6.34 67.43 6.54Q67.42 6.75 67.41 6.88L67.41 6.88L62.53 6.88Q62.53 7.62 63.14 8.04Q63.74 8.46 64.70 8.46L64.70 8.46Q65.30 8.46 65.83 8.34Q66.37 8.21 66.74 8.08L66.74 8.08L67.01 9.76Q66.50 9.94 65.92 10.06Q65.34 10.18 64.62 10.18L64.62 10.18Q63.66 10.18 62.90 9.93Q62.14 9.68 61.61 9.19Q61.07 8.70 60.78 7.98Q60.50 7.26 60.50 6.30ZM62.53 5.52L65.54 5.52Q65.54 5.22 65.46 4.94Q65.38 4.66 65.20 4.43Q65.02 4.21 64.75 4.07Q64.48 3.94 64.08 3.94L64.08 3.94Q63.70 3.94 63.42 4.06Q63.14 4.19 62.95 4.42Q62.77 4.64 62.66 4.93Q62.56 5.22 62.53 5.52L62.53 5.52ZM83.86 10L81.74 10L81.28 7.71L78.64 7.71L78.19 10L76.14 10Q76.85 7.07 77.57 4.66Q78.29 2.26 78.96 0.10L78.96 0.10L81.10 0.10Q81.81 2.27 82.50 4.71Q83.20 7.15 83.86 10L83.86 10ZM79.98 2.02L79.98 2.02Q79.82 2.58 79.69 3.08Q79.55 3.58 79.43 4.07Q79.31 4.56 79.21 5.06Q79.10 5.55 79.01 6.08L79.01 6.08L80.94 6.08Q80.85 5.55 80.75 5.06Q80.66 4.56 80.54 4.07Q80.42 3.58 80.28 3.08Q80.14 2.58 79.98 2.02ZM89.52 6.19L89.52 6.19Q89.52 5.14 89.18 4.58Q88.83 4.02 88.13 4.02L88.13 4.02Q87.81 4.02 87.50 4.10Q87.18 4.19 86.96 4.32L86.96 4.32L86.96 8.40Q87.18 8.45 87.43 8.46Q87.68 8.48 87.86 8.48L87.86 8.48Q88.62 8.48 89.07 7.96Q89.52 7.44 89.52 6.19ZM91.52 6.24L91.52 6.24Q91.52 7.14 91.28 7.86Q91.04 8.59 90.58 9.10Q90.11 9.62 89.44 9.90Q88.77 10.18 87.90 10.18L87.90 10.18Q87.14 10.18 86.34 10.06Q85.54 9.95 84.99 9.78L84.99 9.78L84.99-0.77L86.96-1.10L86.96 2.66Q87.38 2.46 87.76 2.39Q88.14 2.32 88.53 2.32L88.53 2.32Q89.26 2.32 89.82 2.60Q90.38 2.88 90.76 3.40Q91.14 3.92 91.33 4.64Q91.52 5.36 91.52 6.24ZM99.01 2.48L99.01 9.74Q98.46 9.89 97.69 10.03Q96.91 10.18 96 10.18L96 10.18Q95.07 10.18 94.48 9.92Q93.89 9.66 93.54 9.19Q93.20 8.72 93.07 8.08Q92.94 7.44 92.94 6.67L92.94 6.67L92.94 2.48L94.91 2.48L94.91 6.42Q94.91 7.46 95.16 7.96Q95.41 8.46 96.13 8.46L96.13 8.46Q96.58 8.46 97.02 8.38L97.02 8.38L97.02 2.48L99.01 2.48ZM104.54 0.32L104.54 0.32Q104.54 0.90 104.18 1.23Q103.81 1.57 103.30 1.57L103.30 1.57Q102.78 1.57 102.42 1.23Q102.06 0.90 102.06 0.32L102.06 0.32Q102.06-0.27 102.42-0.61Q102.78-0.94 103.30-0.94L103.30-0.94Q103.81-0.94 104.18-0.61Q104.54-0.27 104.54 0.32ZM107.22 8.10L107.47 9.68Q106.86 9.97 106.33 10.07Q105.79 10.18 105.34 10.18L105.34 10.18Q104.58 10.18 104.06 9.95Q103.54 9.73 103.22 9.30Q102.91 8.88 102.78 8.27Q102.66 7.66 102.66 6.88L102.66 6.88L102.66 4.11L100.58 4.11L100.58 2.48L104.62 2.48L104.62 7.14Q104.62 7.81 104.87 8.14Q105.12 8.46 105.70 8.46L105.70 8.46Q105.97 8.46 106.35 8.39Q106.74 8.32 107.22 8.10L107.22 8.10ZM115.22 8.10L115.47 9.68Q115.42 9.71 115.26 9.79Q115.09 9.87 114.82 9.96Q114.54 10.05 114.15 10.11Q113.76 10.18 113.26 10.18L113.26 10.18Q111.90 10.18 111.28 9.37Q110.66 8.56 110.66 7.01L110.66 7.01L110.66 0.62L108.58 0.62L108.58-1.01L112.62-1.01L112.62 7.15Q112.62 7.92 112.93 8.19Q113.23 8.46 113.70 8.46L113.70 8.46Q114.29 8.46 114.69 8.30Q115.09 8.14 115.22 8.10L115.22 8.10ZM118.45 6.19L118.45 6.19Q118.45 7.20 118.82 7.84Q119.20 8.48 120.03 8.48L120.03 8.48Q120.27 8.48 120.48 8.46Q120.69 8.45 120.91 8.42L120.91 8.42L120.91 4.32Q120.69 4.19 120.40 4.10Q120.11 4.02 119.79 4.02L119.79 4.02Q119.09 4.02 118.77 4.58Q118.45 5.14 118.45 6.19ZM122.88-1.10L122.88 9.78Q122.34 9.95 121.55 10.06Q120.77 10.18 120.02 10.18L120.02 10.18Q118.26 10.18 117.35 9.14Q116.45 8.10 116.45 6.29L116.45 6.29Q116.45 4.45 117.21 3.38Q117.97 2.32 119.46 2.32L119.46 2.32Q119.86 2.32 120.24 2.41Q120.62 2.50 120.91 2.66L120.91 2.66L120.91-0.77L122.88-1.10Z"/>
    </g>
</svg>