<?xml version="1.0" encoding="UTF-8"?>
<svg height="34" width="199.29999999999998" version="1.1" xmlns="http://www.w3.org/2000/svg">
    <rect
        height="32"
        width="197.29999999999998"
        rx="16"
        ry="16"
        x="1"
        y="1"
        fill="#0D597F"
        stroke="#39afea"
        stroke-width="1"
         />
    <g transform="translate(0, 12)">
        <path fill="#39afea" d="M31.78 12L28.62 12L27.92 8.57L23.96 8.57L23.29 12L20.22 12Q21.27 7.61 22.35 4.00Q23.43 0.38 24.44-2.86L24.44-2.86L27.66-2.86Q28.71 0.41 29.76 4.07Q30.80 7.73 31.78 12L31.78 12ZM25.98 0.02L25.98 0.02Q25.74 0.86 25.53 1.62Q25.33 2.38 25.15 3.11Q24.97 3.84 24.81 4.58Q24.66 5.33 24.51 6.12L24.51 6.12L27.42 6.12Q27.27 5.33 27.13 4.58Q26.98 3.84 26.80 3.11Q26.62 2.38 26.42 1.62Q26.22 0.86 25.98 0.02ZM42.82 9.14L43.21 11.52Q43.14 11.57 42.88 11.69Q42.63 11.81 42.22 11.94Q41.82 12.07 41.23 12.17Q40.64 12.26 39.90 12.26L39.90 12.26Q37.86 12.26 36.92 11.05Q35.98 9.84 35.98 7.51L35.98 7.51L35.98-2.06L32.86-2.06L32.86-4.51L38.94-4.51L38.94 7.73Q38.94 8.88 39.39 9.29Q39.85 9.70 40.54 9.70L40.54 9.70Q41.43 9.70 42.03 9.46Q42.63 9.22 42.82 9.14L42.82 9.14ZM52.26 6.46L52.26 6.46Q52.26 4.94 51.66 3.97Q51.06 3 49.83 3L49.83 3Q49.50 3 49.11 3.04Q48.73 3.07 48.46 3.10L48.46 3.10L48.46 9.29Q48.75 9.48 49.23 9.60Q49.71 9.72 50.19 9.72L50.19 9.72Q51.25 9.72 51.75 8.87Q52.26 8.02 52.26 6.46ZM55.26 6.36L55.26 6.36Q55.26 7.66 54.97 8.75Q54.68 9.84 54.13 10.62Q53.58 11.40 52.74 11.83Q51.90 12.26 50.79 12.26L50.79 12.26Q49.66 12.26 48.46 11.71L48.46 11.71L48.46 15.96L45.51 15.96L45.51 1.08Q46.33 0.82 47.52 0.65Q48.70 0.48 49.86 0.48L49.86 0.48Q52.47 0.48 53.86 2.06Q55.26 3.65 55.26 6.36ZM62.82-2.52L62.82-2.52Q62.82-1.66 62.26-1.15Q61.71-0.65 60.94-0.65L60.94-0.65Q60.18-0.65 59.64-1.15Q59.10-1.66 59.10-2.52L59.10-2.52Q59.10-3.41 59.64-3.91Q60.18-4.42 60.94-4.42L60.94-4.42Q61.71-4.42 62.26-3.91Q62.82-3.41 62.82-2.52ZM66.82 9.14L67.21 11.52Q66.30 11.95 65.49 12.11Q64.69 12.26 64.02 12.26L64.02 12.26Q62.86 12.26 62.08 11.93Q61.30 11.59 60.84 10.96Q60.37 10.32 60.18 9.41Q59.98 8.50 59.98 7.32L59.98 7.32L59.98 3.17L56.86 3.17L56.86 0.72L62.94 0.72L62.94 7.70Q62.94 8.71 63.31 9.20Q63.68 9.70 64.54 9.70L64.54 9.70Q64.95 9.70 65.53 9.59Q66.10 9.48 66.82 9.14L66.82 9.14ZM69.51 12L69.51 1.08Q70.30 0.86 71.47 0.67Q72.63 0.48 74 0.48L74 0.48Q75.34 0.48 76.23 0.85Q77.12 1.22 77.64 1.91Q78.15 2.59 78.37 3.54Q78.58 4.49 78.58 5.64L78.58 5.64L78.58 12L75.63 12L75.63 6.02Q75.63 4.44 75.27 3.74Q74.91 3.05 73.81 3.05L73.81 3.05Q73.47 3.05 73.15 3.07Q72.82 3.10 72.46 3.14L72.46 3.14L72.46 12L69.51 12ZM80.74 6.46L80.74 6.46Q80.74 4.97 81.20 3.84Q81.66 2.71 82.40 1.96Q83.14 1.20 84.10 0.82Q85.06 0.43 86.07 0.43L86.07 0.43Q88.57 0.43 89.86 1.91Q91.16 3.38 91.16 6.22L91.16 6.22Q91.16 6.50 91.15 6.82Q91.14 7.13 91.11 7.32L91.11 7.32L83.79 7.32Q83.79 8.42 84.70 9.06Q85.62 9.70 87.06 9.70L87.06 9.70Q87.94 9.70 88.75 9.50Q89.55 9.31 90.10 9.12L90.10 9.12L90.51 11.64Q89.74 11.90 88.88 12.08Q88.02 12.26 86.94 12.26L86.94 12.26Q85.50 12.26 84.36 11.89Q83.22 11.52 82.41 10.79Q81.61 10.06 81.18 8.98Q80.74 7.90 80.74 6.46ZM83.79 5.28L88.30 5.28Q88.30 4.82 88.18 4.40Q88.06 3.98 87.80 3.65Q87.54 3.31 87.13 3.11Q86.72 2.90 86.12 2.90L86.12 2.90Q85.54 2.90 85.12 3.10Q84.70 3.29 84.43 3.62Q84.15 3.96 84.00 4.39Q83.84 4.82 83.79 5.28L83.79 5.28ZM115.78 12L112.62 12L111.92 8.57L107.96 8.57L107.29 12L104.22 12Q105.27 7.61 106.35 4.00Q107.43 0.38 108.44-2.86L108.44-2.86L111.66-2.86Q112.71 0.41 113.76 4.07Q114.80 7.73 115.78 12L115.78 12ZM109.98 0.02L109.98 0.02Q109.74 0.86 109.53 1.62Q109.33 2.38 109.15 3.11Q108.97 3.84 108.81 4.58Q108.66 5.33 108.51 6.12L108.51 6.12L111.42 6.12Q111.27 5.33 111.13 4.58Q110.98 3.84 110.80 3.11Q110.62 2.38 110.42 1.62Q110.22 0.86 109.98 0.02ZM124.28 6.29L124.28 6.29Q124.28 4.70 123.76 3.86Q123.25 3.02 122.19 3.02L122.19 3.02Q121.71 3.02 121.24 3.16Q120.78 3.29 120.44 3.48L120.44 3.48L120.44 9.60Q120.78 9.67 121.15 9.70Q121.52 9.72 121.78 9.72L121.78 9.72Q122.94 9.72 123.61 8.94Q124.28 8.16 124.28 6.29ZM127.28 6.36L127.28 6.36Q127.28 7.70 126.92 8.80Q126.56 9.89 125.86 10.66Q125.17 11.42 124.16 11.84Q123.15 12.26 121.86 12.26L121.86 12.26Q120.70 12.26 119.50 12.10Q118.30 11.93 117.49 11.66L117.49 11.66L117.49-4.15L120.44-4.66L120.44 0.98Q121.06 0.70 121.64 0.59Q122.22 0.48 122.79 0.48L122.79 0.48Q123.90 0.48 124.74 0.90Q125.58 1.32 126.14 2.10Q126.70 2.88 126.99 3.96Q127.28 5.04 127.28 6.36ZM138.51 0.72L138.51 11.62Q137.70 11.83 136.53 12.05Q135.37 12.26 134 12.26L134 12.26Q132.61 12.26 131.72 11.88Q130.83 11.50 130.32 10.79Q129.80 10.08 129.61 9.12Q129.42 8.16 129.42 7.01L129.42 7.01L129.42 0.72L132.37 0.72L132.37 6.62Q132.37 8.18 132.74 8.94Q133.11 9.70 134.19 9.70L134.19 9.70Q134.86 9.70 135.54 9.58L135.54 9.58L135.54 0.72L138.51 0.72ZM146.82-2.52L146.82-2.52Q146.82-1.66 146.26-1.15Q145.71-0.65 144.94-0.65L144.94-0.65Q144.18-0.65 143.64-1.15Q143.10-1.66 143.10-2.52L143.10-2.52Q143.10-3.41 143.64-3.91Q144.18-4.42 144.94-4.42L144.94-4.42Q145.71-4.42 146.26-3.91Q146.82-3.41 146.82-2.52ZM150.82 9.14L151.21 11.52Q150.30 11.95 149.49 12.11Q148.69 12.26 148.02 12.26L148.02 12.26Q146.86 12.26 146.08 11.93Q145.30 11.59 144.84 10.96Q144.37 10.32 144.18 9.41Q143.98 8.50 143.98 7.32L143.98 7.32L143.98 3.17L140.86 3.17L140.86 0.72L146.94 0.72L146.94 7.70Q146.94 8.71 147.31 9.20Q147.68 9.70 148.54 9.70L148.54 9.70Q148.95 9.70 149.53 9.59Q150.10 9.48 150.82 9.14L150.82 9.14ZM162.82 9.14L163.21 11.52Q163.14 11.57 162.88 11.69Q162.63 11.81 162.22 11.94Q161.82 12.07 161.23 12.17Q160.64 12.26 159.90 12.26L159.90 12.26Q157.86 12.26 156.92 11.05Q155.98 9.84 155.98 7.51L155.98 7.51L155.98-2.06L152.86-2.06L152.86-4.51L158.94-4.51L158.94 7.73Q158.94 8.88 159.39 9.29Q159.85 9.70 160.54 9.70L160.54 9.70Q161.43 9.70 162.03 9.46Q162.63 9.22 162.82 9.14L162.82 9.14ZM167.67 6.29L167.67 6.29Q167.67 7.80 168.24 8.76Q168.80 9.72 170.05 9.72L170.05 9.72Q170.41 9.72 170.72 9.70Q171.03 9.67 171.37 9.62L171.37 9.62L171.37 3.48Q171.03 3.29 170.60 3.16Q170.17 3.02 169.69 3.02L169.69 3.02Q168.63 3.02 168.15 3.86Q167.67 4.70 167.67 6.29ZM174.32-4.66L174.32 11.66Q173.50 11.93 172.33 12.10Q171.15 12.26 170.02 12.26L170.02 12.26Q167.38 12.26 166.03 10.70Q164.67 9.14 164.67 6.43L164.67 6.43Q164.67 3.67 165.81 2.08Q166.95 0.48 169.18 0.48L169.18 0.48Q169.78 0.48 170.36 0.61Q170.94 0.74 171.37 0.98L171.37 0.98L171.37-4.15L174.32-4.66Z"/>
    </g>
</svg>