<?xml version="1.0" encoding="UTF-8"?>
<svg height="322" width="78.3" version="1.1" xmlns="http://www.w3.org/2000/svg"><!--Created by Josélio de S. C. Júnior - 2021 - https://github.com/joseliojunior -->
    <rect
        height="32"
        width="76.3"
        rx="16"
        ry="16"
        x="1" y="1"
        fill="#41b883"
        stroke="#194833"
        stroke-width="1" />
    <g transform="translate(0, 12)">
        <path fill="#194833" stroke="none" d="M27.51 12L24.46 12Q23.89 10.34 23.24 8.26Q22.59 6.17 22.02 4.09Q21.44 2.02 20.98 0.17Q20.53-1.68 20.31-2.86L20.31-2.86L23.43-2.86Q23.58-1.70 23.86-0.18Q24.15 1.34 24.50 2.96Q24.85 4.58 25.24 6.16Q25.64 7.73 26.02 8.98L26.02 8.98Q26.41 7.75 26.79 6.18Q27.18 4.61 27.51 2.99Q27.85 1.37 28.14-0.17Q28.42-1.70 28.62-2.86L28.62-2.86L31.71-2.86Q31.42-1.42 31.00 0.36Q30.58 2.14 30.04 4.09Q29.50 6.05 28.86 8.08Q28.21 10.10 27.51 12L27.51 12ZM42.51 0.72L42.51 11.62Q41.70 11.83 40.53 12.05Q39.37 12.26 38 12.26L38 12.26Q36.61 12.26 35.72 11.88Q34.83 11.50 34.32 10.79Q33.80 10.08 33.61 9.12Q33.42 8.16 33.42 7.01L33.42 7.01L33.42 0.72L36.37 0.72L36.37 6.62Q36.37 8.18 36.74 8.94Q37.11 9.70 38.19 9.70L38.19 9.70Q38.86 9.70 39.54 9.58L39.54 9.58L39.54 0.72L42.51 0.72ZM44.74 6.46L44.74 6.46Q44.74 4.97 45.20 3.84Q45.66 2.71 46.40 1.96Q47.14 1.20 48.10 0.82Q49.06 0.43 50.07 0.43L50.07 0.43Q52.57 0.43 53.86 1.91Q55.16 3.38 55.16 6.22L55.16 6.22Q55.16 6.50 55.15 6.82Q55.14 7.13 55.11 7.32L55.11 7.32L47.79 7.32Q47.79 8.42 48.70 9.06Q49.62 9.70 51.06 9.70L51.06 9.70Q51.94 9.70 52.75 9.50Q53.55 9.31 54.10 9.12L54.10 9.12L54.51 11.64Q53.74 11.90 52.88 12.08Q52.02 12.26 50.94 12.26L50.94 12.26Q49.50 12.26 48.36 11.89Q47.22 11.52 46.41 10.79Q45.61 10.06 45.18 8.98Q44.74 7.90 44.74 6.46ZM47.79 5.28L52.30 5.28Q52.30 4.82 52.18 4.40Q52.06 3.98 51.80 3.65Q51.54 3.31 51.13 3.11Q50.72 2.90 50.12 2.90L50.12 2.90Q49.54 2.90 49.12 3.10Q48.70 3.29 48.43 3.62Q48.15 3.96 48.00 4.39Q47.84 4.82 47.79 5.28L47.79 5.28Z"/>
    </g>
</svg>