<?xml version="1.0" encoding="UTF-8"?>
<svg height="34" width="120.7" version="1.1" xmlns="http://www.w3.org/2000/svg">
    <rect
        height="32"
        width="118.7"
        rx="14"
        ry="14"
        x="1"
        y="1"
        fill="#00bce4"
        stroke="#000000"
        stroke-width="1"
         />
    <g transform="translate(0, 14)">
        <path fill="#000000" d="M23.13 5.76L23.13 5.76Q23.13 7.33 22.60 8.38Q22.07 9.43 21.16 10.06Q20.25 10.69 19.00 10.96Q17.76 11.22 16.33 11.22L16.33 11.22Q15.18 11.22 13.95 11.10Q12.72 10.97 11.51 10.72L11.51 10.72L11.51-6.11Q12.49-6.28 13.67-6.40Q14.84-6.53 15.99-6.53L15.99-6.53Q17.95-6.53 19.18-6.12Q20.42-5.72 21.12-5.06Q21.82-4.40 22.07-3.59Q22.32-2.78 22.32-1.96L22.32-1.96Q22.32-0.73 21.72 0.22Q21.12 1.17 20.11 1.73L20.11 1.73Q21.87 2.38 22.50 3.47Q23.13 4.56 23.13 5.76ZM16.80 3.41L14.96 3.41L14.96 8.12Q15.32 8.17 15.75 8.20Q16.19 8.23 16.61 8.23L16.61 8.23Q17.20 8.23 17.76 8.13Q18.32 8.03 18.75 7.77Q19.18 7.50 19.46 7.01Q19.74 6.52 19.74 5.76L19.74 5.76Q19.74 4.50 18.95 3.96Q18.15 3.41 16.80 3.41L16.80 3.41ZM14.96 0.56L16.30 0.56Q17.62 0.56 18.29-0.02Q18.96-0.59 18.96-1.60L18.96-1.60Q18.96-2.22 18.76-2.59Q18.57-2.97 18.23-3.18Q17.90-3.39 17.45-3.46Q17-3.53 16.52-3.53L16.52-3.53Q16.13-3.53 15.71-3.50Q15.29-3.48 14.96-3.42L14.96-3.42L14.96 0.56ZM31.95-5.94L31.95-5.94Q31.95-4.93 31.31-4.34Q30.66-3.76 29.77-3.76L29.77-3.76Q28.87-3.76 28.24-4.34Q27.61-4.93 27.61-5.94L27.61-5.94Q27.61-6.98 28.24-7.56Q28.87-8.15 29.77-8.15L29.77-8.15Q30.66-8.15 31.31-7.56Q31.95-6.98 31.95-5.94ZM36.63 7.67L37.08 10.44Q36.01 10.94 35.07 11.13Q34.14 11.31 33.35 11.31L33.35 11.31Q32.01 11.31 31.10 10.92Q30.19 10.52 29.64 9.78Q29.10 9.04 28.87 7.98Q28.65 6.91 28.65 5.54L28.65 5.54L28.65 0.70L25.01 0.70L25.01-2.16L32.09-2.16L32.09 5.99Q32.09 7.16 32.53 7.74Q32.96 8.31 33.97 8.31L33.97 8.31Q34.44 8.31 35.12 8.19Q35.79 8.06 36.63 7.67L36.63 7.67ZM42.00 6.10L42.00 0.70L39.01 0.70L39.01-2.16L42.00-2.16L42.00-5.46L45.45-6.02L45.45-2.16L50.96-2.16L50.96 0.70L45.45 0.70L45.45 6.02Q45.45 6.74 45.59 7.19Q45.73 7.64 45.98 7.89Q46.23 8.14 46.60 8.23Q46.96 8.31 47.41 8.31L47.41 8.31Q47.88 8.31 48.29 8.28Q48.70 8.26 49.07 8.19Q49.45 8.12 49.86 7.98Q50.26 7.84 50.74 7.61L50.74 7.61L51.22 10.58Q50.26 10.97 49.16 11.14Q48.05 11.31 47.02 11.31L47.02 11.31Q45.81 11.31 44.89 11.11Q43.96 10.92 43.32 10.36Q42.68 9.80 42.34 8.77Q42.00 7.75 42.00 6.10L42.00 6.10ZM65.13 5.76L65.13 5.76Q65.13 7.33 64.60 8.38Q64.07 9.43 63.16 10.06Q62.25 10.69 61.00 10.96Q59.76 11.22 58.33 11.22L58.33 11.22Q57.18 11.22 55.95 11.10Q54.72 10.97 53.51 10.72L53.51 10.72L53.51-6.11Q54.49-6.28 55.67-6.40Q56.84-6.53 57.99-6.53L57.99-6.53Q59.95-6.53 61.18-6.12Q62.42-5.72 63.12-5.06Q63.82-4.40 64.07-3.59Q64.32-2.78 64.32-1.96L64.32-1.96Q64.32-0.73 63.72 0.22Q63.12 1.17 62.11 1.73L62.11 1.73Q63.87 2.38 64.50 3.47Q65.13 4.56 65.13 5.76ZM58.80 3.41L56.96 3.41L56.96 8.12Q57.32 8.17 57.75 8.20Q58.19 8.23 58.61 8.23L58.61 8.23Q59.20 8.23 59.76 8.13Q60.32 8.03 60.75 7.77Q61.18 7.50 61.46 7.01Q61.74 6.52 61.74 5.76L61.74 5.76Q61.74 4.50 60.95 3.96Q60.15 3.41 58.80 3.41L58.80 3.41ZM56.96 0.56L58.30 0.56Q59.62 0.56 60.29-0.02Q60.96-0.59 60.96-1.60L60.96-1.60Q60.96-2.22 60.76-2.59Q60.57-2.97 60.23-3.18Q59.90-3.39 59.45-3.46Q59-3.53 58.52-3.53L58.52-3.53Q58.13-3.53 57.71-3.50Q57.29-3.48 56.96-3.42L56.96-3.42L56.96 0.56ZM73.03 8.54L73.03 8.54Q73.59 8.54 74.12 8.52Q74.65 8.51 75.04 8.45L75.04 8.45L75.04 5.43Q74.71 5.37 74.23 5.33Q73.76 5.29 73.36 5.29L73.36 5.29Q72.83 5.29 72.33 5.36Q71.82 5.43 71.45 5.60Q71.07 5.76 70.84 6.07Q70.62 6.38 70.62 6.88L70.62 6.88Q70.62 7.78 71.29 8.16Q71.96 8.54 73.03 8.54ZM72.72-2.50L72.72-2.50Q74.34-2.50 75.42-2.12Q76.50-1.74 77.14-1.05Q77.79-0.37 78.07 0.63Q78.35 1.62 78.35 2.85L78.35 2.85L78.35 10.69Q77.59 10.86 76.11 11.08Q74.62 11.31 72.78 11.31L72.78 11.31Q71.52 11.31 70.49 11.08Q69.47 10.86 68.74 10.34Q68.02 9.82 67.62 9.00Q67.23 8.17 67.23 6.97L67.23 6.97Q67.23 5.82 67.68 5.04Q68.13 4.25 68.88 3.78Q69.64 3.30 70.62 3.09Q71.60 2.88 72.66 2.88L72.66 2.88Q74.01 2.88 75.04 3.10L75.04 3.10L75.04 2.68Q75.04 1.70 74.43 1.05Q73.81 0.39 72.30 0.39L72.30 0.39Q71.32 0.39 70.41 0.53Q69.50 0.67 68.94 0.86L68.94 0.86L68.46-1.91Q69.11-2.13 70.28-2.31Q71.46-2.50 72.72-2.50ZM85.24-8.43L85.24 3.05Q85.74 2.46 86.26 1.80Q86.78 1.14 87.27 0.44Q87.76-0.26 88.20-0.91Q88.65-1.57 88.99-2.16L88.99-2.16L93.13-2.16Q92.63-1.52 91.98-0.76Q91.34-0.00 90.65 0.78Q89.97 1.56 89.28 2.29Q88.60 3.02 88.04 3.64L88.04 3.64Q88.74 4.31 89.55 5.25Q90.36 6.18 91.14 7.19Q91.93 8.20 92.59 9.21Q93.24 10.22 93.64 11L93.64 11L89.69 11Q89.35 10.30 88.81 9.42Q88.26 8.54 87.64 7.68Q87.03 6.83 86.40 6.06Q85.77 5.29 85.24 4.78L85.24 4.78L85.24 11L81.76 11L81.76-7.84L85.24-8.43ZM94.87 4.53L94.87 4.53Q94.87 2.80 95.40 1.48Q95.93 0.16 96.80-0.72Q97.67-1.60 98.79-2.05Q99.91-2.50 101.08-2.50L101.08-2.50Q104.00-2.50 105.51-0.77Q107.02 0.95 107.02 4.25L107.02 4.25Q107.02 4.59 107.01 4.95Q106.99 5.32 106.96 5.54L106.96 5.54L98.42 5.54Q98.42 6.83 99.49 7.57Q100.55 8.31 102.23 8.31L102.23 8.31Q103.27 8.31 104.21 8.09Q105.14 7.86 105.79 7.64L105.79 7.64L106.26 10.58Q105.37 10.89 104.36 11.10Q103.35 11.31 102.09 11.31L102.09 11.31Q100.41 11.31 99.08 10.87Q97.75 10.44 96.81 9.59Q95.88 8.73 95.37 7.47Q94.87 6.21 94.87 4.53ZM98.42 3.16L103.69 3.16Q103.69 2.63 103.55 2.14Q103.41 1.65 103.10 1.26Q102.79 0.86 102.32 0.63Q101.84 0.39 101.14 0.39L101.14 0.39Q100.47 0.39 99.98 0.61Q99.49 0.84 99.17 1.23Q98.84 1.62 98.66 2.12Q98.48 2.63 98.42 3.16L98.42 3.16Z"/>
    </g>
</svg>