<?xml version="1.0" encoding="UTF-8"?>
<svg height="26" width="82.5" version="1.1" xmlns="http://www.w3.org/2000/svg"><!--Created by Josélio de S. C. Júnior - 2021 - https://github.com/joseliojunior -->
    <rect
        height="24"
        width="80.5"
        rx="1"
        ry="1"
        x="1" y="1"
        fill="#DBCA00"
        stroke="#423d00"
        stroke-width="1" />
    <g transform="translate(0, 8)">
        <path fill="#423d00" d="M27.01 0.10L27.01 6.69Q27.01 7.41 26.82 8.05Q26.64 8.69 26.22 9.17Q25.79 9.65 25.12 9.93Q24.45 10.21 23.49 10.21L23.49 10.21Q22.48 10.21 21.81 9.95Q21.14 9.70 20.67 9.33L20.67 9.33L21.42 7.76Q21.82 8.02 22.31 8.26Q22.80 8.50 23.31 8.50L23.31 8.50Q24.08 8.50 24.55 8.09Q25.02 7.68 25.02 6.58L25.02 6.58L25.02 1.73L21.71 1.73L21.71 0.10L27.01 0.10ZM30.98 10L29.01 10L29.01 0.10L35.07 0.10L35.07 1.73L30.98 1.73L30.98 4.13L34.56 4.13L34.56 5.76L30.98 5.76L30.98 10ZM43.22 8.10L43.47 9.68Q43.42 9.71 43.26 9.79Q43.09 9.87 42.82 9.96Q42.54 10.05 42.15 10.11Q41.76 10.18 41.26 10.18L41.26 10.18Q39.90 10.18 39.28 9.37Q38.66 8.56 38.66 7.01L38.66 7.01L38.66 0.62L36.58 0.62L36.58-1.01L40.62-1.01L40.62 7.15Q40.62 7.92 40.93 8.19Q41.23 8.46 41.70 8.46L41.70 8.46Q42.29 8.46 42.69 8.30Q43.09 8.14 43.22 8.10L43.22 8.10ZM44.50 6.30L44.50 6.30Q44.50 5.31 44.80 4.56Q45.10 3.81 45.60 3.30Q46.10 2.80 46.74 2.54Q47.38 2.29 48.05 2.29L48.05 2.29Q49.71 2.29 50.58 3.27Q51.44 4.26 51.44 6.14L51.44 6.14Q51.44 6.34 51.43 6.54Q51.42 6.75 51.41 6.88L51.41 6.88L46.53 6.88Q46.53 7.62 47.14 8.04Q47.74 8.46 48.70 8.46L48.70 8.46Q49.30 8.46 49.83 8.34Q50.37 8.21 50.74 8.08L50.74 8.08L51.01 9.76Q50.50 9.94 49.92 10.06Q49.34 10.18 48.62 10.18L48.62 10.18Q47.66 10.18 46.90 9.93Q46.14 9.68 45.61 9.19Q45.07 8.70 44.78 7.98Q44.50 7.26 44.50 6.30ZM46.53 5.52L49.54 5.52Q49.54 5.22 49.46 4.94Q49.38 4.66 49.20 4.43Q49.02 4.21 48.75 4.07Q48.48 3.94 48.08 3.94L48.08 3.94Q47.70 3.94 47.42 4.06Q47.14 4.19 46.95 4.42Q46.77 4.64 46.66 4.93Q46.56 5.22 46.53 5.52L46.53 5.52ZM54.40 2.48L56.06 4.83L57.60 2.48L59.60 2.48L57.17 6.10Q57.55 6.56 57.92 7.08Q58.29 7.60 58.62 8.13Q58.96 8.66 59.23 9.14Q59.50 9.62 59.70 10L59.70 10L57.65 10Q57.22 9.18 56.78 8.54Q56.35 7.90 55.97 7.39L55.97 7.39Q55.49 8.03 55.10 8.64Q54.72 9.25 54.32 10L54.32 10L52.32 10Q52.56 9.55 52.87 9.06Q53.18 8.58 53.53 8.07Q53.87 7.57 54.25 7.07Q54.62 6.58 54.98 6.13L54.98 6.13L52.34 2.48L54.40 2.48Z"/>
    </g>
</svg>