<?xml version="1.0" encoding="UTF-8"?>
<svg height="34" width="90.4" version="1.1" xmlns="http://www.w3.org/2000/svg"><!--Created by Josélio de S. C. Júnior - 2021 - https://github.com/joseliojunior -->
    <rect
        height="32"
        width="88.4"
        rx="1"
        ry="1"
        x="1" y="1"
        fill="#f97732"
        stroke="#8f3504"
        stroke-width="1" />
    <g transform="translate(0, 12)">
        <path fill="#8f3504" d="M21.42-2.86L23.86-2.86Q24.03-2.35 24.28-1.56Q24.54-0.77 24.82 0.14Q25.11 1.06 25.40 1.99Q25.69 2.93 25.95 3.72L25.95 3.72Q26.24 2.83 26.55 1.88Q26.86 0.94 27.15 0.06Q27.44-0.82 27.68-1.58Q27.92-2.35 28.11-2.86L28.11-2.86L30.56-2.86Q30.73-0.91 30.88 0.94Q31.04 2.78 31.15 4.60Q31.26 6.41 31.33 8.24Q31.40 10.08 31.45 12L31.45 12L28.74 12L28.88 0.46L27.06 6.74L24.90 6.74L23.14 0.46L23.26 12L20.55 12Q20.62 10.18 20.71 8.21Q20.79 6.24 20.89 4.30Q20.98 2.35 21.12 0.53Q21.25-1.30 21.42-2.86L21.42-2.86ZM38.02 9.89L38.02 9.89Q38.50 9.89 38.96 9.88Q39.42 9.86 39.75 9.82L39.75 9.82L39.75 7.22Q39.46 7.18 39.06 7.14Q38.65 7.10 38.31 7.10L38.31 7.10Q37.86 7.10 37.42 7.16Q36.99 7.22 36.67 7.37Q36.34 7.51 36.15 7.78Q35.96 8.04 35.96 8.47L35.96 8.47Q35.96 9.24 36.54 9.56Q37.11 9.89 38.02 9.89ZM37.76 0.43L37.76 0.43Q39.15 0.43 40.08 0.76Q41 1.08 41.55 1.67Q42.10 2.26 42.34 3.11Q42.58 3.96 42.58 5.02L42.58 5.02L42.58 11.74Q41.94 11.88 40.66 12.07Q39.39 12.26 37.81 12.26L37.81 12.26Q36.73 12.26 35.85 12.07Q34.98 11.88 34.35 11.44Q33.73 10.99 33.39 10.28Q33.06 9.58 33.06 8.54L33.06 8.54Q33.06 7.56 33.44 6.89Q33.82 6.22 34.47 5.81Q35.12 5.40 35.96 5.22Q36.80 5.04 37.71 5.04L37.71 5.04Q38.86 5.04 39.75 5.23L39.75 5.23L39.75 4.87Q39.75 4.03 39.22 3.47Q38.70 2.90 37.40 2.90L37.40 2.90Q36.56 2.90 35.78 3.02Q35 3.14 34.52 3.31L34.52 3.31L34.11 0.94Q34.66 0.74 35.67 0.59Q36.68 0.43 37.76 0.43ZM49.47 9.77L49.47 9.77Q50.55 9.77 51.13 9.61Q51.70 9.46 51.70 8.98L51.70 8.98Q51.70 8.66 51.52 8.45Q51.34 8.23 51.02 8.08Q50.70 7.92 50.28 7.78Q49.86 7.63 49.40 7.49L49.40 7.49Q48.75 7.30 48.08 7.04Q47.41 6.79 46.86 6.41Q46.30 6.02 45.94 5.44Q45.58 4.85 45.58 3.96L45.58 3.96Q45.58 3.24 45.86 2.60Q46.14 1.97 46.72 1.48Q47.31 0.98 48.22 0.71Q49.14 0.43 50.41 0.43L50.41 0.43Q51.51 0.43 52.46 0.60Q53.41 0.77 54.10 1.08L54.10 1.08L53.65 3.58Q53.24 3.46 52.38 3.18Q51.51 2.90 50.43 2.90L50.43 2.90Q49.30 2.90 48.91 3.18Q48.51 3.46 48.51 3.77L48.51 3.77Q48.51 4.03 48.69 4.24Q48.87 4.44 49.17 4.61Q49.47 4.78 49.87 4.93Q50.26 5.09 50.72 5.23L50.72 5.23Q51.37 5.45 52.06 5.71Q52.76 5.98 53.32 6.37Q53.89 6.77 54.25 7.38Q54.61 7.99 54.61 8.88L54.61 8.88Q54.61 9.58 54.34 10.20Q54.08 10.82 53.47 11.28Q52.86 11.74 51.87 12Q50.89 12.26 49.45 12.26L49.45 12.26Q47.98 12.26 46.95 11.93Q45.92 11.59 45.30 11.33L45.30 11.33L45.75 8.86Q46.59 9.19 47.54 9.48Q48.49 9.77 49.47 9.77ZM60.49-4.66L60.49 5.18Q60.92 4.68 61.36 4.12Q61.81 3.55 62.23 2.95Q62.65 2.35 63.03 1.79Q63.42 1.22 63.70 0.72L63.70 0.72L67.26 0.72Q66.82 1.27 66.27 1.92Q65.72 2.57 65.13 3.24Q64.54 3.91 63.96 4.54Q63.37 5.16 62.89 5.69L62.89 5.69Q63.49 6.26 64.18 7.07Q64.88 7.87 65.55 8.74Q66.22 9.60 66.79 10.46Q67.35 11.33 67.69 12L67.69 12L64.30 12Q64.02 11.40 63.55 10.64Q63.08 9.89 62.55 9.16Q62.02 8.42 61.48 7.76Q60.94 7.10 60.49 6.67L60.49 6.67L60.49 12L57.51 12L57.51-4.15L60.49-4.66Z"/>
    </g>
</svg>