<?xml version="1.0" encoding="UTF-8"?><svg height="26" width="139.2" version="1.1" xmlns="http://www.w3.org/2000/svg"><!--Created by Josélio de S. C. Júnior - 2021 - https://github.com/joseliojunior --><rect height="24" width="137.2" rx="12" ry="12" x="1" y="1" fill="#5ce600" stroke="#000000" stroke-width="1" /><g transform="translate(0, 8)"><path fill="#000000" d="M22.43 5.04L22.43 5.04Q22.43 5.76 22.49 6.39Q22.54 7.02 22.71 7.49Q22.88 7.95 23.18 8.22Q23.49 8.50 24 8.50L24 8.50Q24.50 8.50 24.81 8.22Q25.12 7.95 25.29 7.48Q25.46 7.01 25.51 6.38Q25.57 5.76 25.57 5.04L25.57 5.04Q25.57 4.32 25.51 3.69Q25.46 3.06 25.29 2.59Q25.12 2.13 24.82 1.86Q24.51 1.58 24 1.58L24 1.58Q23.49 1.58 23.18 1.86Q22.88 2.13 22.71 2.60Q22.54 3.07 22.49 3.70Q22.43 4.32 22.43 5.04ZM20.43 5.04L20.43 5.04Q20.43 2.48 21.38 1.18Q22.32-0.13 24-0.13L24-0.13Q25.74-0.13 26.66 1.18Q27.57 2.48 27.57 5.04L27.57 5.04Q27.57 7.60 26.64 8.90Q25.71 10.21 24.02 10.21L24.02 10.21Q22.27 10.21 21.35 8.90Q20.43 7.60 20.43 5.04ZM33.50 6.30L33.50 6.30Q33.50 5.30 33.10 4.65Q32.70 4 31.89 4L31.89 4Q31.66 4 31.41 4.02Q31.15 4.05 30.98 4.06L30.98 4.06L30.98 8.19Q31.17 8.32 31.49 8.40Q31.81 8.48 32.13 8.48L32.13 8.48Q32.83 8.48 33.17 7.91Q33.50 7.34 33.50 6.30ZM35.50 6.24L35.50 6.24Q35.50 7.10 35.31 7.83Q35.12 8.56 34.75 9.08Q34.38 9.60 33.82 9.89Q33.26 10.18 32.53 10.18L32.53 10.18Q31.78 10.18 30.98 9.81L30.98 9.81L30.98 12.64L29.01 12.64L29.01 2.72Q29.55 2.54 30.34 2.43Q31.14 2.32 31.90 2.32L31.90 2.32Q33.65 2.32 34.58 3.38Q35.50 4.43 35.50 6.24ZM36.50 6.30L36.50 6.30Q36.50 5.31 36.80 4.56Q37.10 3.81 37.60 3.30Q38.10 2.80 38.74 2.54Q39.38 2.29 40.05 2.29L40.05 2.29Q41.71 2.29 42.58 3.27Q43.44 4.26 43.44 6.14L43.44 6.14Q43.44 6.34 43.43 6.54Q43.42 6.75 43.41 6.88L43.41 6.88L38.53 6.88Q38.53 7.62 39.14 8.04Q39.74 8.46 40.70 8.46L40.70 8.46Q41.30 8.46 41.83 8.34Q42.37 8.21 42.74 8.08L42.74 8.08L43.01 9.76Q42.50 9.94 41.92 10.06Q41.34 10.18 40.62 10.18L40.62 10.18Q39.66 10.18 38.90 9.93Q38.14 9.68 37.61 9.19Q37.07 8.70 36.78 7.98Q36.50 7.26 36.50 6.30ZM38.53 5.52L41.54 5.52Q41.54 5.22 41.46 4.94Q41.38 4.66 41.20 4.43Q41.02 4.21 40.75 4.07Q40.48 3.94 40.08 3.94L40.08 3.94Q39.70 3.94 39.42 4.06Q39.14 4.19 38.95 4.42Q38.77 4.64 38.66 4.93Q38.56 5.22 38.53 5.52L38.53 5.52ZM45.01 10L45.01 2.72Q45.54 2.58 46.31 2.45Q47.09 2.32 48 2.32L48 2.32Q48.90 2.32 49.49 2.57Q50.08 2.82 50.42 3.27Q50.77 3.73 50.91 4.36Q51.06 4.99 51.06 5.76L51.06 5.76L51.06 10L49.09 10L49.09 6.02Q49.09 4.96 48.85 4.50Q48.61 4.03 47.87 4.03L47.87 4.03Q47.65 4.03 47.43 4.05Q47.22 4.06 46.98 4.10L46.98 4.10L46.98 10L45.01 10ZM59.36 10L53.01 10L53.01 0.10L59.01 0.10L59.01 1.73L54.98 1.73L54.98 3.95L58.48 3.95L58.48 5.58L54.98 5.58L54.98 8.37L59.36 8.37L59.36 10ZM62.45 6.19L62.45 6.19Q62.45 7.20 62.82 7.84Q63.20 8.48 64.03 8.48L64.03 8.48Q64.27 8.48 64.48 8.46Q64.69 8.45 64.91 8.42L64.91 8.42L64.91 4.32Q64.69 4.19 64.40 4.10Q64.11 4.02 63.79 4.02L63.79 4.02Q63.09 4.02 62.77 4.58Q62.45 5.14 62.45 6.19ZM66.88-1.10L66.88 9.78Q66.34 9.95 65.55 10.06Q64.77 10.18 64.02 10.18L64.02 10.18Q62.26 10.18 61.35 9.14Q60.45 8.10 60.45 6.29L60.45 6.29Q60.45 4.45 61.21 3.38Q61.97 2.32 63.46 2.32L63.46 2.32Q63.86 2.32 64.24 2.41Q64.62 2.50 64.91 2.66L64.91 2.66L64.91-0.77L66.88-1.10ZM70.53 6L70.53 6Q70.53 6.93 70.86 7.42Q71.20 7.90 71.92 7.90L71.92 7.90Q72.24 7.90 72.52 7.82Q72.80 7.74 73.02 7.62L73.02 7.62L73.02 4Q72.80 3.95 72.62 3.94Q72.45 3.92 72.26 3.92L72.26 3.92Q70.53 3.92 70.53 6ZM75.01 2.72L75.01 9.09Q75.01 10.93 74.12 11.81Q73.23 12.69 71.26 12.69L71.26 12.69Q70.56 12.69 69.91 12.54Q69.26 12.40 68.67 12.21L68.67 12.21L69.04 10.54Q69.50 10.72 70.02 10.87Q70.53 11.02 71.30 11.02L71.30 11.02Q71.81 11.02 72.14 10.90Q72.48 10.78 72.67 10.58Q72.86 10.37 72.94 10.09Q73.02 9.81 73.02 9.49L73.02 9.49L73.02 9.18Q72.61 9.34 72.26 9.42Q71.92 9.50 71.52 9.50L71.52 9.50Q70.05 9.50 69.29 8.58Q68.53 7.65 68.53 6L68.53 6Q68.53 4.14 69.55 3.23Q70.58 2.32 72.34 2.32L72.34 2.32Q73.57 2.32 75.01 2.72L75.01 2.72ZM76.50 6.30L76.50 6.30Q76.50 5.31 76.80 4.56Q77.10 3.81 77.60 3.30Q78.10 2.80 78.74 2.54Q79.38 2.29 80.05 2.29L80.05 2.29Q81.71 2.29 82.58 3.27Q83.44 4.26 83.44 6.14L83.44 6.14Q83.44 6.34 83.43 6.54Q83.42 6.75 83.41 6.88L83.41 6.88L78.53 6.88Q78.53 7.62 79.14 8.04Q79.74 8.46 80.70 8.46L80.70 8.46Q81.30 8.46 81.83 8.34Q82.37 8.21 82.74 8.08L82.74 8.08L83.01 9.76Q82.50 9.94 81.92 10.06Q81.34 10.18 80.62 10.18L80.62 10.18Q79.66 10.18 78.90 9.93Q78.14 9.68 77.61 9.19Q77.07 8.70 76.78 7.98Q76.50 7.26 76.50 6.30ZM78.53 5.52L81.54 5.52Q81.54 5.22 81.46 4.94Q81.38 4.66 81.20 4.43Q81.02 4.21 80.75 4.07Q80.48 3.94 80.08 3.94L80.08 3.94Q79.70 3.94 79.42 4.06Q79.14 4.19 78.95 4.42Q78.77 4.64 78.66 4.93Q78.56 5.22 78.53 5.52L78.53 5.52ZM99.86 10L97.74 10L97.28 7.71L94.64 7.71L94.19 10L92.14 10Q92.85 7.07 93.57 4.66Q94.29 2.26 94.96 0.10L94.96 0.10L97.10 0.10Q97.81 2.27 98.50 4.71Q99.20 7.15 99.86 10L99.86 10ZM95.98 2.02L95.98 2.02Q95.82 2.58 95.69 3.08Q95.55 3.58 95.43 4.07Q95.31 4.56 95.21 5.06Q95.10 5.55 95.01 6.08L95.01 6.08L96.94 6.08Q96.85 5.55 96.75 5.06Q96.66 4.56 96.54 4.07Q96.42 3.58 96.28 3.08Q96.14 2.58 95.98 2.02ZM107.50 7.01L107.50 7.01Q107.50 7.90 107.20 8.50Q106.90 9.10 106.38 9.46Q105.86 9.82 105.14 9.98Q104.43 10.13 103.62 10.13L103.62 10.13Q102.96 10.13 102.26 10.06Q101.55 9.98 100.86 9.84L100.86 9.84L100.86 0.22Q101.42 0.13 102.10 0.06Q102.77-0.02 103.42-0.02L103.42-0.02Q104.54-0.02 105.25 0.22Q105.95 0.45 106.35 0.82Q106.75 1.20 106.90 1.66Q107.04 2.13 107.04 2.59L107.04 2.59Q107.04 3.30 106.70 3.84Q106.35 4.38 105.78 4.70L105.78 4.70Q106.78 5.07 107.14 5.70Q107.50 6.32 107.50 7.01ZM103.89 5.66L102.83 5.66L102.83 8.35Q103.04 8.38 103.29 8.40Q103.54 8.42 103.78 8.42L103.78 8.42Q104.11 8.42 104.43 8.36Q104.75 8.30 105 8.15Q105.25 8 105.41 7.72Q105.57 7.44 105.57 7.01L105.57 7.01Q105.57 6.29 105.11 5.98Q104.66 5.66 103.89 5.66L103.89 5.66ZM102.83 4.03L103.60 4.03Q104.35 4.03 104.74 3.70Q105.12 3.38 105.12 2.80L105.12 2.80Q105.12 2.45 105.01 2.23Q104.90 2.02 104.70 1.90Q104.51 1.78 104.26 1.74Q104 1.70 103.73 1.70L103.73 1.70Q103.50 1.70 103.26 1.71Q103.02 1.73 102.83 1.76L102.83 1.76L102.83 4.03ZM115.36 8.37L115.36 10L109.14 10L109.14 0.10L111.12 0.10L111.12 8.37L115.36 8.37Z"/></g></svg>