<?xml version="1.0" encoding="UTF-8"?>
<svg height="322" width="187.2" version="1.1" xmlns="http://www.w3.org/2000/svg"><!--Created by Josélio de S. C. Júnior - 2021 - https://github.com/joseliojunior -->
    <rect
        height="32"
        width="185.2"
        rx="1"
        ry="1"
        x="1" y="1"
        fill="#5ce600"
        stroke="#000000"
        stroke-width="1" />
    <g transform="translate(0, 12)">
        <path fill="#000000" stroke="none" d="M23.65 4.56L23.65 4.56Q23.65 5.64 23.73 6.59Q23.82 7.54 24.07 8.23Q24.32 8.93 24.78 9.34Q25.23 9.74 26 9.74L26 9.74Q26.74 9.74 27.21 9.34Q27.68 8.93 27.93 8.22Q28.18 7.51 28.27 6.58Q28.35 5.64 28.35 4.56L28.35 4.56Q28.35 3.48 28.27 2.53Q28.18 1.58 27.93 0.89Q27.68 0.19 27.22-0.22Q26.77-0.62 26-0.62L26-0.62Q25.23-0.62 24.78-0.22Q24.32 0.19 24.07 0.90Q23.82 1.61 23.73 2.54Q23.65 3.48 23.65 4.56ZM20.65 4.56L20.65 4.56Q20.65 0.72 22.06-1.24Q23.48-3.19 26-3.19L26-3.19Q28.62-3.19 29.98-1.24Q31.35 0.72 31.35 4.56L31.35 4.56Q31.35 8.40 29.96 10.36Q28.57 12.31 26.02 12.31L26.02 12.31Q23.41 12.31 22.03 10.36Q20.65 8.40 20.65 4.56ZM40.26 6.46L40.26 6.46Q40.26 4.94 39.66 3.97Q39.06 3 37.83 3L37.83 3Q37.50 3 37.11 3.04Q36.73 3.07 36.46 3.10L36.46 3.10L36.46 9.29Q36.75 9.48 37.23 9.60Q37.71 9.72 38.19 9.72L38.19 9.72Q39.25 9.72 39.75 8.87Q40.26 8.02 40.26 6.46ZM43.26 6.36L43.26 6.36Q43.26 7.66 42.97 8.75Q42.68 9.84 42.13 10.62Q41.58 11.40 40.74 11.83Q39.90 12.26 38.79 12.26L38.79 12.26Q37.66 12.26 36.46 11.71L36.46 11.71L36.46 15.96L33.51 15.96L33.51 1.08Q34.33 0.82 35.52 0.65Q36.70 0.48 37.86 0.48L37.86 0.48Q40.47 0.48 41.86 2.06Q43.26 3.65 43.26 6.36ZM44.74 6.46L44.74 6.46Q44.74 4.97 45.20 3.84Q45.66 2.71 46.40 1.96Q47.14 1.20 48.10 0.82Q49.06 0.43 50.07 0.43L50.07 0.43Q52.57 0.43 53.86 1.91Q55.16 3.38 55.16 6.22L55.16 6.22Q55.16 6.50 55.15 6.82Q55.14 7.13 55.11 7.32L55.11 7.32L47.79 7.32Q47.79 8.42 48.70 9.06Q49.62 9.70 51.06 9.70L51.06 9.70Q51.94 9.70 52.75 9.50Q53.55 9.31 54.10 9.12L54.10 9.12L54.51 11.64Q53.74 11.90 52.88 12.08Q52.02 12.26 50.94 12.26L50.94 12.26Q49.50 12.26 48.36 11.89Q47.22 11.52 46.41 10.79Q45.61 10.06 45.18 8.98Q44.74 7.90 44.74 6.46ZM47.79 5.28L52.30 5.28Q52.30 4.82 52.18 4.40Q52.06 3.98 51.80 3.65Q51.54 3.31 51.13 3.11Q50.72 2.90 50.12 2.90L50.12 2.90Q49.54 2.90 49.12 3.10Q48.70 3.29 48.43 3.62Q48.15 3.96 48.00 4.39Q47.84 4.82 47.79 5.28L47.79 5.28ZM57.51 12L57.51 1.08Q58.30 0.86 59.47 0.67Q60.63 0.48 62 0.48L62 0.48Q63.34 0.48 64.23 0.85Q65.12 1.22 65.64 1.91Q66.15 2.59 66.37 3.54Q66.58 4.49 66.58 5.64L66.58 5.64L66.58 12L63.63 12L63.63 6.02Q63.63 4.44 63.27 3.74Q62.91 3.05 61.81 3.05L61.81 3.05Q61.47 3.05 61.15 3.07Q60.82 3.10 60.46 3.14L60.46 3.14L60.46 12L57.51 12ZM79.04 12L69.51 12L69.51-2.86L78.51-2.86L78.51-0.41L72.46-0.41L72.46 2.93L77.72 2.93L77.72 5.38L72.46 5.38L72.46 9.55L79.04 9.55L79.04 12ZM83.67 6.29L83.67 6.29Q83.67 7.80 84.24 8.76Q84.80 9.72 86.05 9.72L86.05 9.72Q86.41 9.72 86.72 9.70Q87.03 9.67 87.37 9.62L87.37 9.62L87.37 3.48Q87.03 3.29 86.60 3.16Q86.17 3.02 85.69 3.02L85.69 3.02Q84.63 3.02 84.15 3.86Q83.67 4.70 83.67 6.29ZM90.32-4.66L90.32 11.66Q89.50 11.93 88.33 12.10Q87.15 12.26 86.02 12.26L86.02 12.26Q83.38 12.26 82.03 10.70Q80.67 9.14 80.67 6.43L80.67 6.43Q80.67 3.67 81.81 2.08Q82.95 0.48 85.18 0.48L85.18 0.48Q85.78 0.48 86.36 0.61Q86.94 0.74 87.37 0.98L87.37 0.98L87.37-4.15L90.32-4.66ZM95.79 6L95.79 6Q95.79 7.39 96.30 8.12Q96.80 8.86 97.88 8.86L97.88 8.86Q98.36 8.86 98.78 8.74Q99.20 8.62 99.54 8.42L99.54 8.42L99.54 3Q99.20 2.93 98.94 2.90Q98.67 2.88 98.38 2.88L98.38 2.88Q95.79 2.88 95.79 6ZM102.51 1.08L102.51 10.63Q102.51 13.39 101.18 14.71Q99.85 16.03 96.90 16.03L96.90 16.03Q95.84 16.03 94.87 15.82Q93.90 15.60 93.01 15.31L93.01 15.31L93.56 12.82Q94.26 13.08 95.02 13.31Q95.79 13.54 96.94 13.54L96.94 13.54Q97.71 13.54 98.22 13.36Q98.72 13.18 99.01 12.86Q99.30 12.55 99.42 12.13Q99.54 11.71 99.54 11.23L99.54 11.23L99.54 10.78Q98.91 11.02 98.40 11.14Q97.88 11.26 97.28 11.26L97.28 11.26Q95.07 11.26 93.93 9.86Q92.79 8.47 92.79 6L92.79 6Q92.79 3.22 94.33 1.85Q95.86 0.48 98.50 0.48L98.50 0.48Q100.35 0.48 102.51 1.08L102.51 1.08ZM104.74 6.46L104.74 6.46Q104.74 4.97 105.20 3.84Q105.66 2.71 106.40 1.96Q107.14 1.20 108.10 0.82Q109.06 0.43 110.07 0.43L110.07 0.43Q112.57 0.43 113.86 1.91Q115.16 3.38 115.16 6.22L115.16 6.22Q115.16 6.50 115.15 6.82Q115.14 7.13 115.11 7.32L115.11 7.32L107.79 7.32Q107.79 8.42 108.70 9.06Q109.62 9.70 111.06 9.70L111.06 9.70Q111.94 9.70 112.75 9.50Q113.55 9.31 114.10 9.12L114.10 9.12L114.51 11.64Q113.74 11.90 112.88 12.08Q112.02 12.26 110.94 12.26L110.94 12.26Q109.50 12.26 108.36 11.89Q107.22 11.52 106.41 10.79Q105.61 10.06 105.18 8.98Q104.74 7.90 104.74 6.46ZM107.79 5.28L112.30 5.28Q112.30 4.82 112.18 4.40Q112.06 3.98 111.80 3.65Q111.54 3.31 111.13 3.11Q110.72 2.90 110.12 2.90L110.12 2.90Q109.54 2.90 109.12 3.10Q108.70 3.29 108.43 3.62Q108.15 3.96 108.00 4.39Q107.84 4.82 107.79 5.28L107.79 5.28ZM139.78 12L136.62 12L135.92 8.57L131.96 8.57L131.29 12L128.22 12Q129.27 7.61 130.35 4.00Q131.43 0.38 132.44-2.86L132.44-2.86L135.66-2.86Q136.71 0.41 137.76 4.07Q138.80 7.73 139.78 12L139.78 12ZM133.98 0.02L133.98 0.02Q133.74 0.86 133.53 1.62Q133.33 2.38 133.15 3.11Q132.97 3.84 132.81 4.58Q132.66 5.33 132.51 6.12L132.51 6.12L135.42 6.12Q135.27 5.33 135.13 4.58Q134.98 3.84 134.80 3.11Q134.62 2.38 134.42 1.62Q134.22 0.86 133.98 0.02ZM151.26 7.51L151.26 7.51Q151.26 8.86 150.80 9.76Q150.34 10.66 149.56 11.20Q148.78 11.74 147.72 11.96Q146.65 12.19 145.42 12.19L145.42 12.19Q144.44 12.19 143.38 12.08Q142.33 11.98 141.30 11.76L141.30 11.76L141.30-2.66Q142.14-2.81 143.14-2.92Q144.15-3.02 145.14-3.02L145.14-3.02Q146.82-3.02 147.87-2.68Q148.93-2.33 149.53-1.76Q150.13-1.20 150.34-0.50Q150.56 0.19 150.56 0.89L150.56 0.89Q150.56 1.94 150.04 2.76Q149.53 3.58 148.66 4.06L148.66 4.06Q150.18 4.61 150.72 5.54Q151.26 6.48 151.26 7.51ZM145.83 5.50L144.25 5.50L144.25 9.53Q144.56 9.58 144.93 9.60Q145.30 9.62 145.66 9.62L145.66 9.62Q146.17 9.62 146.65 9.54Q147.13 9.46 147.50 9.23Q147.87 9 148.11 8.58Q148.35 8.16 148.35 7.51L148.35 7.51Q148.35 6.43 147.67 5.96Q146.98 5.50 145.83 5.50L145.83 5.50ZM144.25 3.05L145.40 3.05Q146.53 3.05 147.10 2.56Q147.68 2.06 147.68 1.20L147.68 1.20Q147.68 0.67 147.51 0.35Q147.34 0.02 147.06-0.16Q146.77-0.34 146.38-0.40Q146-0.46 145.59-0.46L145.59-0.46Q145.26-0.46 144.90-0.43Q144.54-0.41 144.25-0.36L144.25-0.36L144.25 3.05ZM163.04 9.55L163.04 12L153.70 12L153.70-2.86L156.68-2.86L156.68 9.55L163.04 9.55Z"/>
    </g>
</svg>