<?xml version="1.0" encoding="UTF-8"?>
<svg height="26" width="82.5" version="1.1" xmlns="http://www.w3.org/2000/svg"><!--Created by Josélio de S. C. Júnior - 2021 - https://github.com/joseliojunior -->
    <defs>
        <pattern id="pattern"
                x="1.5" y="3" width="3" height="6"
                patternUnits="userSpaceOnUse"
                patternTransform="rotate(45)" >
            <rect height="6" width="1" fill="#999999"/>
        </pattern>
    </defs>
    <rect
        height="24"
        width="80.5"
        rx="1"
        ry="1"
        x="1" y="1"
        fill="url(#pattern)"
        stroke="#000000"
        stroke-width="1" />
    <g transform="translate(0, 8)">
        <path fill="#ffffff" stroke="#000000" d="M23.71 8.56L23.71 8.56Q24.21 8.56 24.54 8.46Q24.86 8.35 25.06 8.17Q25.25 7.98 25.32 7.75Q25.39 7.52 25.39 7.28L25.39 7.28Q25.39 6.98 25.22 6.74Q25.04 6.50 24.77 6.31Q24.50 6.13 24.16 5.98Q23.82 5.82 23.49 5.70L23.49 5.70Q23.04 5.54 22.56 5.33Q22.08 5.12 21.69 4.80Q21.30 4.48 21.04 4.01Q20.78 3.54 20.78 2.83L20.78 2.83Q20.78 1.44 21.69 0.66Q22.59-0.13 24.18-0.13L24.18-0.13Q25.09-0.13 25.77 0.08Q26.45 0.29 26.91 0.54L26.91 0.54L26.34 2.06Q25.94 1.84 25.45 1.68Q24.96 1.52 24.32 1.52L24.32 1.52Q22.75 1.52 22.75 2.66L22.75 2.66Q22.75 2.94 22.91 3.16Q23.07 3.38 23.32 3.54Q23.57 3.71 23.88 3.84Q24.19 3.97 24.50 4.08L24.50 4.08Q24.96 4.26 25.46 4.47Q25.97 4.69 26.39 5.05Q26.82 5.41 27.09 5.94Q27.36 6.48 27.36 7.30L27.36 7.30Q27.36 8.69 26.46 9.45Q25.55 10.21 23.71 10.21L23.71 10.21Q22.48 10.21 21.74 9.94Q21.01 9.68 20.64 9.46L20.64 9.46L21.22 7.86Q21.65 8.11 22.25 8.34Q22.85 8.56 23.71 8.56ZM32.54 0.32L32.54 0.32Q32.54 0.90 32.18 1.23Q31.81 1.57 31.30 1.57L31.30 1.57Q30.78 1.57 30.42 1.23Q30.06 0.90 30.06 0.32L30.06 0.32Q30.06-0.27 30.42-0.61Q30.78-0.94 31.30-0.94L31.30-0.94Q31.81-0.94 32.18-0.61Q32.54-0.27 32.54 0.32ZM35.22 8.10L35.47 9.68Q34.86 9.97 34.33 10.07Q33.79 10.18 33.34 10.18L33.34 10.18Q32.58 10.18 32.06 9.95Q31.54 9.73 31.22 9.30Q30.91 8.88 30.78 8.27Q30.66 7.66 30.66 6.88L30.66 6.88L30.66 4.11L28.58 4.11L28.58 2.48L32.62 2.48L32.62 7.14Q32.62 7.81 32.87 8.14Q33.12 8.46 33.70 8.46L33.70 8.46Q33.97 8.46 34.35 8.39Q34.74 8.32 35.22 8.10L35.22 8.10ZM36.50 6.30L36.50 6.30Q36.50 5.31 36.80 4.56Q37.10 3.81 37.60 3.30Q38.10 2.80 38.74 2.54Q39.38 2.29 40.05 2.29L40.05 2.29Q41.71 2.29 42.58 3.27Q43.44 4.26 43.44 6.14L43.44 6.14Q43.44 6.34 43.43 6.54Q43.42 6.75 43.41 6.88L43.41 6.88L38.53 6.88Q38.53 7.62 39.14 8.04Q39.74 8.46 40.70 8.46L40.70 8.46Q41.30 8.46 41.83 8.34Q42.37 8.21 42.74 8.08L42.74 8.08L43.01 9.76Q42.50 9.94 41.92 10.06Q41.34 10.18 40.62 10.18L40.62 10.18Q39.66 10.18 38.90 9.93Q38.14 9.68 37.61 9.19Q37.07 8.70 36.78 7.98Q36.50 7.26 36.50 6.30ZM38.53 5.52L41.54 5.52Q41.54 5.22 41.46 4.94Q41.38 4.66 41.20 4.43Q41.02 4.21 40.75 4.07Q40.48 3.94 40.08 3.94L40.08 3.94Q39.70 3.94 39.42 4.06Q39.14 4.19 38.95 4.42Q38.77 4.64 38.66 4.93Q38.56 5.22 38.53 5.52L38.53 5.52ZM48.75 10L47.10 10Q46.38 8.58 45.64 6.66Q44.90 4.75 44.22 2.48L44.22 2.48L46.29 2.48Q46.43 3.09 46.63 3.78Q46.83 4.46 47.06 5.16Q47.28 5.86 47.51 6.51Q47.74 7.17 47.95 7.71L47.95 7.71Q48.16 7.17 48.42 6.51Q48.67 5.86 48.92 5.16Q49.17 4.46 49.40 3.78Q49.63 3.09 49.78 2.48L49.78 2.48L51.78 2.48Q51.10 4.75 50.29 6.66Q49.47 8.58 48.75 10L48.75 10ZM52.50 6.30L52.50 6.30Q52.50 5.31 52.80 4.56Q53.10 3.81 53.60 3.30Q54.10 2.80 54.74 2.54Q55.38 2.29 56.05 2.29L56.05 2.29Q57.71 2.29 58.58 3.27Q59.44 4.26 59.44 6.14L59.44 6.14Q59.44 6.34 59.43 6.54Q59.42 6.75 59.41 6.88L59.41 6.88L54.53 6.88Q54.53 7.62 55.14 8.04Q55.74 8.46 56.70 8.46L56.70 8.46Q57.30 8.46 57.83 8.34Q58.37 8.21 58.74 8.08L58.74 8.08L59.01 9.76Q58.50 9.94 57.92 10.06Q57.34 10.18 56.62 10.18L56.62 10.18Q55.66 10.18 54.90 9.93Q54.14 9.68 53.61 9.19Q53.07 8.70 52.78 7.98Q52.50 7.26 52.50 6.30ZM54.53 5.52L57.54 5.52Q57.54 5.22 57.46 4.94Q57.38 4.66 57.20 4.43Q57.02 4.21 56.75 4.07Q56.48 3.94 56.08 3.94L56.08 3.94Q55.70 3.94 55.42 4.06Q55.14 4.19 54.95 4.42Q54.77 4.64 54.66 4.93Q54.56 5.22 54.53 5.52L54.53 5.52Z"/>
    </g>
</svg>