<?xml version="1.0" encoding="UTF-8"?>
<svg height="34" width="102.5" version="1.1" xmlns="http://www.w3.org/2000/svg"><!--Created by Josélio de S. C. Júnior - 2021 - https://github.com/joseliojunior -->
    <rect
        height="32"
        width="100.5"
        rx="16"
        ry="16"
        x="1" y="1"
        fill="#F05138"
        stroke="#851a0a"
        stroke-width="1" />
    <g transform="translate(0, 12)">
        <path fill="#851a0a" stroke="none" d="M25.57 9.84L25.57 9.84Q26.31 9.84 26.80 9.68Q27.30 9.53 27.58 9.25Q27.87 8.98 27.98 8.63Q28.09 8.28 28.09 7.92L28.09 7.92Q28.09 7.46 27.82 7.10Q27.56 6.74 27.15 6.47Q26.74 6.19 26.24 5.96Q25.74 5.74 25.23 5.54L25.23 5.54Q24.56 5.30 23.84 4.99Q23.12 4.68 22.53 4.20Q21.94 3.72 21.56 3.01Q21.18 2.30 21.18 1.25L21.18 1.25Q21.18-0.84 22.53-2.02Q23.89-3.19 26.26-3.19L26.26-3.19Q27.63-3.19 28.65-2.88Q29.67-2.57 30.37-2.18L30.37-2.18L29.50 0.10Q28.90-0.24 28.17-0.48Q27.44-0.72 26.48-0.72L26.48-0.72Q24.13-0.72 24.13 0.98L24.13 0.98Q24.13 1.42 24.37 1.74Q24.61 2.06 24.98 2.32Q25.35 2.57 25.82 2.76Q26.29 2.95 26.74 3.12L26.74 3.12Q27.44 3.38 28.20 3.71Q28.95 4.03 29.59 4.57Q30.22 5.11 30.63 5.92Q31.04 6.72 31.04 7.94L31.04 7.94Q31.04 10.03 29.68 11.17Q28.33 12.31 25.57 12.31L25.57 12.31Q23.72 12.31 22.62 11.92Q21.51 11.52 20.96 11.18L20.96 11.18L21.82 8.78Q22.47 9.17 23.37 9.50Q24.27 9.84 25.57 9.84ZM41.96 12L39.73 12Q39.46 11.26 39.24 10.63Q39.01 10.01 38.80 9.42Q38.60 8.83 38.40 8.20Q38.19 7.56 37.98 6.79L37.98 6.79Q37.74 7.56 37.54 8.17Q37.35 8.78 37.15 9.38Q36.94 9.98 36.73 10.61Q36.51 11.23 36.20 12L36.20 12L33.97 12Q33.68 10.94 33.43 9.66Q33.18 8.38 32.96 6.92Q32.74 5.47 32.58 3.91Q32.41 2.35 32.26 0.72L32.26 0.72L34.78 0.72Q34.88 2.81 34.99 4.80Q35.10 6.79 35.38 8.90L35.38 8.90Q35.70 7.99 35.92 7.21Q36.15 6.43 36.33 5.72Q36.51 5.02 36.67 4.36Q36.82 3.70 36.99 3L36.99 3L39.13 3Q39.27 3.70 39.43 4.36Q39.58 5.02 39.76 5.72Q39.94 6.43 40.15 7.21Q40.35 7.99 40.64 8.90L40.64 8.90Q40.78 7.80 40.88 6.79Q40.98 5.78 41.04 4.79Q41.10 3.79 41.13 2.80Q41.17 1.80 41.22 0.72L41.22 0.72L43.74 0.72Q43.47 4.01 43.00 6.91Q42.54 9.82 41.96 12L41.96 12ZM50.82-2.52L50.82-2.52Q50.82-1.66 50.26-1.15Q49.71-0.65 48.94-0.65L48.94-0.65Q48.18-0.65 47.64-1.15Q47.10-1.66 47.10-2.52L47.10-2.52Q47.10-3.41 47.64-3.91Q48.18-4.42 48.94-4.42L48.94-4.42Q49.71-4.42 50.26-3.91Q50.82-3.41 50.82-2.52ZM54.82 9.14L55.21 11.52Q54.30 11.95 53.49 12.11Q52.69 12.26 52.02 12.26L52.02 12.26Q50.86 12.26 50.08 11.93Q49.30 11.59 48.84 10.96Q48.37 10.32 48.18 9.41Q47.98 8.50 47.98 7.32L47.98 7.32L47.98 3.17L44.86 3.17L44.86 0.72L50.94 0.72L50.94 7.70Q50.94 8.71 51.31 9.20Q51.68 9.70 52.54 9.70L52.54 9.70Q52.95 9.70 53.53 9.59Q54.10 9.48 54.82 9.14L54.82 9.14ZM62.31 12L59.34 12L59.34 3.17L56.86 3.17L56.86 0.72L59.34 0.72L59.34 0.07Q59.34-1.30 59.73-2.20Q60.13-3.10 60.80-3.64Q61.47-4.18 62.34-4.40Q63.20-4.63 64.11-4.63L64.11-4.63Q65.05-4.63 66.03-4.46Q67.02-4.30 67.81-3.91L67.81-3.91L67.30-1.51Q66.75-1.70 65.92-1.91Q65.10-2.11 64.35-2.11L64.35-2.11Q63.94-2.11 63.57-2.04Q63.20-1.97 62.92-1.73Q62.65-1.49 62.48-1.04Q62.31-0.60 62.31 0.12L62.31 0.12L62.31 0.72L66.94 0.72L66.94 3.17L62.31 3.17L62.31 12ZM71.43 7.80L71.43 3.17L68.86 3.17L68.86 0.72L71.43 0.72L71.43-2.11L74.38-2.59L74.38 0.72L79.11 0.72L79.11 3.17L74.38 3.17L74.38 7.73Q74.38 8.35 74.50 8.74Q74.62 9.12 74.84 9.34Q75.06 9.55 75.37 9.62Q75.68 9.70 76.06 9.70L76.06 9.70Q76.47 9.70 76.82 9.67Q77.17 9.65 77.49 9.59Q77.82 9.53 78.16 9.41Q78.51 9.29 78.92 9.10L78.92 9.10L79.33 11.64Q78.51 11.98 77.56 12.12Q76.62 12.26 75.73 12.26L75.73 12.26Q74.70 12.26 73.90 12.10Q73.11 11.93 72.56 11.45Q72.01 10.97 71.72 10.09Q71.43 9.22 71.43 7.80L71.43 7.80Z"/>
    </g>
</svg>