<?xml version="1.0" encoding="UTF-8"?>
<svg height="26" width="82.5" version="1.1" xmlns="http://www.w3.org/2000/svg"><!--Created by Josélio de S. C. Júnior - 2021 - https://github.com/joseliojunior -->
    <rect
        height="24"
        width="80.5"
        rx="12"
        ry="12"
        x="1" y="1"
        fill="#F05138"
        stroke="#851a0a"
        stroke-width="1" />
    <g transform="translate(0, 8)">
        <path fill="#851a0a" stroke="none" d="M23.71 8.56L23.71 8.56Q24.21 8.56 24.54 8.46Q24.86 8.35 25.06 8.17Q25.25 7.98 25.32 7.75Q25.39 7.52 25.39 7.28L25.39 7.28Q25.39 6.98 25.22 6.74Q25.04 6.50 24.77 6.31Q24.50 6.13 24.16 5.98Q23.82 5.82 23.49 5.70L23.49 5.70Q23.04 5.54 22.56 5.33Q22.08 5.12 21.69 4.80Q21.30 4.48 21.04 4.01Q20.78 3.54 20.78 2.83L20.78 2.83Q20.78 1.44 21.69 0.66Q22.59-0.13 24.18-0.13L24.18-0.13Q25.09-0.13 25.77 0.08Q26.45 0.29 26.91 0.54L26.91 0.54L26.34 2.06Q25.94 1.84 25.45 1.68Q24.96 1.52 24.32 1.52L24.32 1.52Q22.75 1.52 22.75 2.66L22.75 2.66Q22.75 2.94 22.91 3.16Q23.07 3.38 23.32 3.54Q23.57 3.71 23.88 3.84Q24.19 3.97 24.50 4.08L24.50 4.08Q24.96 4.26 25.46 4.47Q25.97 4.69 26.39 5.05Q26.82 5.41 27.09 5.94Q27.36 6.48 27.36 7.30L27.36 7.30Q27.36 8.69 26.46 9.45Q25.55 10.21 23.71 10.21L23.71 10.21Q22.48 10.21 21.74 9.94Q21.01 9.68 20.64 9.46L20.64 9.46L21.22 7.86Q21.65 8.11 22.25 8.34Q22.85 8.56 23.71 8.56ZM34.64 10L33.15 10Q32.98 9.50 32.82 9.09Q32.67 8.67 32.54 8.28Q32.40 7.89 32.26 7.46Q32.13 7.04 31.98 6.53L31.98 6.53Q31.82 7.04 31.70 7.45Q31.57 7.86 31.43 8.26Q31.30 8.66 31.15 9.07Q31.01 9.49 30.80 10L30.80 10L29.31 10Q29.12 9.30 28.95 8.44Q28.78 7.58 28.64 6.62Q28.50 5.65 28.38 4.61Q28.27 3.57 28.18 2.48L28.18 2.48L29.86 2.48Q29.92 3.87 29.99 5.20Q30.06 6.53 30.26 7.94L30.26 7.94Q30.46 7.33 30.62 6.81Q30.77 6.29 30.89 5.82Q31.01 5.34 31.11 4.90Q31.22 4.46 31.33 4L31.33 4L32.75 4Q32.85 4.46 32.95 4.90Q33.06 5.34 33.18 5.82Q33.30 6.29 33.43 6.81Q33.57 7.33 33.76 7.94L33.76 7.94Q33.86 7.20 33.92 6.53Q33.98 5.86 34.02 5.19Q34.06 4.53 34.09 3.86Q34.11 3.20 34.14 2.48L34.14 2.48L35.82 2.48Q35.65 4.67 35.34 6.61Q35.02 8.54 34.64 10L34.64 10ZM40.54 0.32L40.54 0.32Q40.54 0.90 40.18 1.23Q39.81 1.57 39.30 1.57L39.30 1.57Q38.78 1.57 38.42 1.23Q38.06 0.90 38.06 0.32L38.06 0.32Q38.06-0.27 38.42-0.61Q38.78-0.94 39.30-0.94L39.30-0.94Q39.81-0.94 40.18-0.61Q40.54-0.27 40.54 0.32ZM43.22 8.10L43.47 9.68Q42.86 9.97 42.33 10.07Q41.79 10.18 41.34 10.18L41.34 10.18Q40.58 10.18 40.06 9.95Q39.54 9.73 39.22 9.30Q38.91 8.88 38.78 8.27Q38.66 7.66 38.66 6.88L38.66 6.88L38.66 4.11L36.58 4.11L36.58 2.48L40.62 2.48L40.62 7.14Q40.62 7.81 40.87 8.14Q41.12 8.46 41.70 8.46L41.70 8.46Q41.97 8.46 42.35 8.39Q42.74 8.32 43.22 8.10L43.22 8.10ZM48.21 10L46.22 10L46.22 4.11L44.58 4.11L44.58 2.48L46.22 2.48L46.22 2.05Q46.22 1.14 46.49 0.54Q46.75-0.06 47.20-0.42Q47.65-0.78 48.22-0.94Q48.80-1.09 49.41-1.09L49.41-1.09Q50.03-1.09 50.69-0.98Q51.34-0.86 51.87-0.61L51.87-0.61L51.54 0.99Q51.17 0.86 50.62 0.73Q50.06 0.59 49.57 0.59L49.57 0.59Q49.30 0.59 49.05 0.64Q48.80 0.69 48.62 0.85Q48.43 1.01 48.32 1.30Q48.21 1.60 48.21 2.08L48.21 2.08L48.21 2.48L51.30 2.48L51.30 4.11L48.21 4.11L48.21 10ZM54.29 7.20L54.29 4.11L52.58 4.11L52.58 2.48L54.29 2.48L54.29 0.59L56.26 0.27L56.26 2.48L59.41 2.48L59.41 4.11L56.26 4.11L56.26 7.15Q56.26 7.57 56.34 7.82Q56.42 8.08 56.56 8.22Q56.70 8.37 56.91 8.42Q57.12 8.46 57.38 8.46L57.38 8.46Q57.65 8.46 57.88 8.45Q58.11 8.43 58.33 8.39Q58.54 8.35 58.78 8.27Q59.01 8.19 59.28 8.06L59.28 8.06L59.55 9.76Q59.01 9.98 58.38 10.08Q57.74 10.18 57.15 10.18L57.15 10.18Q56.46 10.18 55.94 10.06Q55.41 9.95 55.04 9.63Q54.67 9.31 54.48 8.73Q54.29 8.14 54.29 7.20L54.29 7.20Z"/>
    </g>
</svg>