<?xml version="1.0" encoding="UTF-8"?>
<svg height="26" width="58.2" version="1.1" xmlns="http://www.w3.org/2000/svg"><!--Created by Josélio de S. C. Júnior - 2021 - https://github.com/joseliojunior -->
    <defs>
        <pattern id="pattern"
                x="3" y="3" width="6" height="6"
                patternUnits="userSpaceOnUse"
                patternTransform="rotate(45)" >
            <rect height="6" width="6"
                fill="#ffffff"/>
            <line x1="0" y1="0" x2="0" y2="6"
                stroke="#bbbbbb"
                stroke-width="2" />
        </pattern>
    </defs>
    <rect
        height="24"
        width="56.2"
        rx="12"
        ry="12"
        x="1" y="1"
        fill="url(#pattern)" />
    <g transform="translate(0, 8)">
        <path fill="#000000" d="M20.94 0.10L22.58 0.10Q22.69 0.43 22.86 0.96Q23.02 1.49 23.22 2.10Q23.41 2.70 23.60 3.33Q23.79 3.95 23.97 4.48L23.97 4.48Q24.16 3.89 24.37 3.26Q24.58 2.62 24.77 2.04Q24.96 1.46 25.12 0.94Q25.28 0.43 25.41 0.10L25.41 0.10L27.04 0.10Q27.15 1.39 27.26 2.62Q27.36 3.86 27.43 5.06Q27.50 6.27 27.55 7.50Q27.60 8.72 27.63 10L27.63 10L25.82 10L25.92 2.30L24.70 6.50L23.26 6.50L22.10 2.30L22.18 10L20.37 10Q20.42 8.78 20.47 7.47Q20.53 6.16 20.59 4.86Q20.66 3.57 20.74 2.35Q20.83 1.14 20.94 0.10L20.94 0.10ZM32.56 6.05L32.56 2.56Q32.27 2.93 31.97 3.34Q31.66 3.76 31.37 4.22Q31.07 4.67 30.80 5.14Q30.53 5.60 30.32 6.05L30.32 6.05L32.56 6.05ZM32.77 0.10L34.53 0.10L34.53 6.05L35.60 6.05L35.60 7.66L34.53 7.66L34.53 10L32.56 10L32.56 7.66L28.43 7.66L28.43 6.22Q28.74 5.60 29.22 4.81Q29.70 4.02 30.27 3.18Q30.85 2.35 31.49 1.54Q32.13 0.74 32.77 0.10L32.77 0.10Z"/>
    </g>
</svg>