<?xml version="1.0" encoding="UTF-8"?>
<svg height="34" width="191.2" version="1.1" xmlns="http://www.w3.org/2000/svg">
    <rect
        height="32"
        width="189.2"
        rx="14"
        ry="14"
        x="1"
        y="1"
        fill="#00ADD8"
        stroke="#00313d"
        stroke-width="1"
         />
    <g transform="translate(0, 14)">
        <path fill="#00313d" d="M18.74-3.73L18.74-3.73Q17.50-3.73 16.66-3.28Q15.82-2.83 15.28-2.03Q14.73-1.24 14.49-0.13Q14.26 0.98 14.26 2.32L14.26 2.32Q14.26 5.43 15.24 6.90Q16.22 8.37 18.12 8.37L18.12 8.37Q18.43 8.37 18.79 8.34Q19.16 8.31 19.46 8.26L19.46 8.26L19.46 1.93L22.91 1.93L22.91 10.58Q22.29 10.80 20.99 11.08Q19.69 11.36 17.84 11.36L17.84 11.36Q16.22 11.36 14.91 10.79Q13.61 10.22 12.69 9.08Q11.76 7.95 11.26 6.25Q10.76 4.56 10.76 2.32L10.76 2.32Q10.76 0.11 11.34-1.59Q11.93-3.28 12.94-4.43Q13.95-5.58 15.32-6.15Q16.69-6.72 18.26-6.72L18.26-6.72Q19.27-6.72 20.07-6.57Q20.86-6.42 21.45-6.22Q22.04-6.02 22.42-5.80Q22.80-5.58 22.99-5.46L22.99-5.46L22.10-2.72Q21.48-3.11 20.58-3.42Q19.69-3.73 18.74-3.73ZM37.22 4.39L37.22 4.39Q37.22 5.96 36.77 7.23Q36.32 8.51 35.51 9.43Q34.70 10.36 33.56 10.86Q32.43 11.36 31.03 11.36L31.03 11.36Q29.63 11.36 28.49 10.86Q27.36 10.36 26.53 9.43Q25.71 8.51 25.26 7.23Q24.81 5.96 24.81 4.39L24.81 4.39Q24.81 2.85 25.27 1.58Q25.74 0.30 26.56-0.61Q27.39-1.52 28.54-2.01Q29.68-2.50 31.03-2.50L31.03-2.50Q32.40-2.50 33.53-2.01Q34.67-1.52 35.49-0.61Q36.32 0.30 36.77 1.58Q37.22 2.85 37.22 4.39ZM28.31 4.42L28.31 4.42Q28.31 6.18 28.94 7.28Q29.57 8.37 30.97 8.37L30.97 8.37Q32.32 8.37 33.00 7.28Q33.69 6.18 33.69 4.42L33.69 4.42Q33.69 2.66 33.06 1.58Q32.43 0.50 31.03 0.50L31.03 0.50Q29.68 0.50 29.00 1.58Q28.31 2.66 28.31 4.42ZM60.29 11.36L60.29 11.36Q56.62 11.36 54.69 9.01Q52.76 6.66 52.76 2.32L52.76 2.32Q52.76 0.16 53.34-1.52Q53.93-3.20 54.98-4.36Q56.03-5.52 57.47-6.12Q58.92-6.72 60.62-6.72L60.62-6.72Q61.55-6.72 62.29-6.57Q63.03-6.42 63.59-6.22Q64.15-6.02 64.53-5.80Q64.91-5.58 65.10-5.46L65.10-5.46L64.21-2.72Q63.56-3.14 62.65-3.43Q61.74-3.73 60.57-3.73L60.57-3.73Q59.76-3.73 58.99-3.43Q58.22-3.14 57.61-2.45Q57.01-1.77 56.63-0.62Q56.26 0.53 56.26 2.24L56.26 2.24Q56.26 5.20 57.28 6.79Q58.30 8.37 60.62 8.37L60.62 8.37Q61.97 8.37 62.85 8.06Q63.73 7.75 64.26 7.44L64.26 7.44L65.13 10.16Q64.40 10.61 63.16 10.99Q61.91 11.36 60.29 11.36ZM71.21 11L67.76 11L67.76-7.84L71.21-8.43L71.21-2.05Q71.63-2.19 72.22-2.31Q72.80-2.44 73.25-2.44L73.25-2.44Q74.71-2.44 75.69-2.01Q76.67-1.57 77.26-0.77Q77.84 0.02 78.10 1.13Q78.35 2.24 78.35 3.58L78.35 3.58L78.35 11L74.90 11L74.90 4.03Q74.90 2.18 74.48 1.37Q74.06 0.56 72.89 0.56L72.89 0.56Q72.41 0.56 71.95 0.67Q71.49 0.78 71.21 0.86L71.21 0.86L71.21 11ZM80.87 4.53L80.87 4.53Q80.87 2.80 81.40 1.48Q81.93 0.16 82.80-0.72Q83.67-1.60 84.79-2.05Q85.91-2.50 87.08-2.50L87.08-2.50Q90.00-2.50 91.51-0.77Q93.02 0.95 93.02 4.25L93.02 4.25Q93.02 4.59 93.01 4.95Q92.99 5.32 92.96 5.54L92.96 5.54L84.42 5.54Q84.42 6.83 85.49 7.57Q86.55 8.31 88.23 8.31L88.23 8.31Q89.27 8.31 90.21 8.09Q91.14 7.86 91.79 7.64L91.79 7.64L92.26 10.58Q91.37 10.89 90.36 11.10Q89.35 11.31 88.09 11.31L88.09 11.31Q86.41 11.31 85.08 10.87Q83.75 10.44 82.81 9.59Q81.88 8.73 81.37 7.47Q80.87 6.21 80.87 4.53ZM84.42 3.16L89.69 3.16Q89.69 2.63 89.55 2.14Q89.41 1.65 89.10 1.26Q88.79 0.86 88.32 0.63Q87.84 0.39 87.14 0.39L87.14 0.39Q86.47 0.39 85.98 0.61Q85.49 0.84 85.17 1.23Q84.84 1.62 84.66 2.12Q84.48 2.63 84.42 3.16L84.42 3.16ZM95.23 4.42L95.23 4.42Q95.23 2.99 95.68 1.73Q96.13 0.47 97.05-0.47Q97.98-1.40 99.39-1.95Q100.80-2.50 102.76-2.50L102.76-2.50Q103.94-2.50 104.89-2.33Q105.84-2.16 106.82-1.77L106.82-1.77L106.07 1.00Q105.51 0.81 104.82 0.65Q104.14 0.50 103.07 0.50L103.07 0.50Q101.84 0.50 101.01 0.79Q100.19 1.09 99.68 1.61Q99.18 2.12 98.96 2.85Q98.73 3.58 98.73 4.42L98.73 4.42Q98.73 6.24 99.75 7.28Q100.78 8.31 103.24 8.31L103.24 8.31Q104.05 8.31 104.93 8.20Q105.82 8.09 106.54 7.84L106.54 7.84L107.05 10.66Q106.32 10.94 105.28 11.13Q104.25 11.31 102.85 11.31L102.85 11.31Q100.83 11.31 99.39 10.78Q97.95 10.24 97.02 9.32Q96.10 8.40 95.67 7.14Q95.23 5.88 95.23 4.42ZM113.24-8.43L113.24 3.05Q113.74 2.46 114.26 1.80Q114.78 1.14 115.27 0.44Q115.76-0.26 116.20-0.91Q116.65-1.57 116.99-2.16L116.99-2.16L121.13-2.16Q120.63-1.52 119.98-0.76Q119.34-0.00 118.65 0.78Q117.97 1.56 117.28 2.29Q116.60 3.02 116.04 3.64L116.04 3.64Q116.74 4.31 117.55 5.25Q118.36 6.18 119.14 7.19Q119.93 8.20 120.59 9.21Q121.24 10.22 121.64 11L121.64 11L117.69 11Q117.35 10.30 116.81 9.42Q116.26 8.54 115.64 7.68Q115.03 6.83 114.40 6.06Q113.77 5.29 113.24 4.78L113.24 4.78L113.24 11L109.76 11L109.76-7.84L113.24-8.43ZM128.38 8.40L128.38 8.40Q129.64 8.40 130.32 8.21Q130.99 8.03 130.99 7.47L130.99 7.47Q130.99 7.11 130.78 6.86Q130.57 6.60 130.19 6.42Q129.81 6.24 129.32 6.07Q128.83 5.90 128.30 5.74L128.30 5.74Q127.54 5.51 126.76 5.22Q125.98 4.92 125.33 4.48Q124.69 4.03 124.27 3.34Q123.85 2.66 123.85 1.62L123.85 1.62Q123.85 0.78 124.17 0.04Q124.49-0.70 125.18-1.28Q125.86-1.85 126.93-2.17Q127.99-2.50 129.48-2.50L129.48-2.50Q130.76-2.50 131.87-2.30Q132.98-2.10 133.79-1.74L133.79-1.74L133.26 1.17Q132.78 1.03 131.77 0.71Q130.76 0.39 129.50 0.39L129.50 0.39Q128.19 0.39 127.73 0.71Q127.26 1.03 127.26 1.40L127.26 1.40Q127.26 1.70 127.47 1.94Q127.68 2.18 128.03 2.38Q128.38 2.57 128.85 2.75Q129.31 2.94 129.84 3.10L129.84 3.10Q130.60 3.36 131.41 3.66Q132.22 3.97 132.88 4.43Q133.54 4.90 133.96 5.61Q134.38 6.32 134.38 7.36L134.38 7.36Q134.38 8.17 134.07 8.90Q133.76 9.63 133.05 10.16Q132.33 10.69 131.18 11Q130.04 11.31 128.36 11.31L128.36 11.31Q126.65 11.31 125.44 10.92Q124.24 10.52 123.51 10.22L123.51 10.22L124.04 7.33Q125.02 7.72 126.13 8.06Q127.24 8.40 128.38 8.40ZM148.26-2.16L148.26 10.55Q147.31 10.80 145.95 11.06Q144.60 11.31 143 11.31L143 11.31Q141.38 11.31 140.34 10.86Q139.30 10.41 138.70 9.59Q138.10 8.76 137.88 7.64Q137.65 6.52 137.65 5.18L137.65 5.18L137.65-2.16L141.10-2.16L141.10 4.73Q141.10 6.55 141.53 7.43Q141.96 8.31 143.22 8.31L143.22 8.31Q144.01 8.31 144.79 8.17L144.79 8.17L144.79-2.16L148.26-2.16ZM159.60-2.30L159.60-2.30Q160.70-2.30 161.40-1.96Q162.10-1.63 162.50-0.96Q162.91-0.28 163.05 0.74Q163.19 1.76 163.19 3.13L163.19 3.13L163.19 11L160.39 11L160.39 2.96Q160.39 2.18 160.29 1.70Q160.19 1.23 160.04 0.98Q159.88 0.72 159.67 0.64Q159.46 0.56 159.24 0.56L159.24 0.56Q158.99 0.56 158.71 0.60Q158.43 0.64 158.20 0.75L158.20 0.75Q158.29 1.28 158.34 1.93Q158.40 2.57 158.40 3.36L158.40 3.36L158.40 5.99L155.60 5.99L155.60 2.96Q155.60 1.62 155.33 1.09Q155.07 0.56 154.48 0.56L154.48 0.56Q154.31 0.56 154.07 0.58Q153.84 0.61 153.61 0.67L153.61 0.67L153.61 11L150.81 11L150.81-1.66Q151.90-1.96 152.97-2.13Q154.03-2.30 154.84-2.30L154.84-2.30Q155.57-2.30 156.15-2.12Q156.72-1.94 157.14-1.52L157.14-1.52Q157.62-1.82 158.26-2.06Q158.90-2.30 159.60-2.30ZM170.38 8.40L170.38 8.40Q171.64 8.40 172.32 8.21Q172.99 8.03 172.99 7.47L172.99 7.47Q172.99 7.11 172.78 6.86Q172.57 6.60 172.19 6.42Q171.81 6.24 171.32 6.07Q170.83 5.90 170.30 5.74L170.30 5.74Q169.54 5.51 168.76 5.22Q167.98 4.92 167.33 4.48Q166.69 4.03 166.27 3.34Q165.85 2.66 165.85 1.62L165.85 1.62Q165.85 0.78 166.17 0.04Q166.49-0.70 167.18-1.28Q167.86-1.85 168.93-2.17Q169.99-2.50 171.48-2.50L171.48-2.50Q172.76-2.50 173.87-2.30Q174.98-2.10 175.79-1.74L175.79-1.74L175.26 1.17Q174.78 1.03 173.77 0.71Q172.76 0.39 171.50 0.39L171.50 0.39Q170.19 0.39 169.73 0.71Q169.26 1.03 169.26 1.40L169.26 1.40Q169.26 1.70 169.47 1.94Q169.68 2.18 170.03 2.38Q170.38 2.57 170.85 2.75Q171.31 2.94 171.84 3.10L171.84 3.10Q172.60 3.36 173.41 3.66Q174.22 3.97 174.88 4.43Q175.54 4.90 175.96 5.61Q176.38 6.32 176.38 7.36L176.38 7.36Q176.38 8.17 176.07 8.90Q175.76 9.63 175.05 10.16Q174.33 10.69 173.18 11Q172.04 11.31 170.36 11.31L170.36 11.31Q168.65 11.31 167.44 10.92Q166.24 10.52 165.51 10.22L165.51 10.22L166.04 7.33Q167.02 7.72 168.13 8.06Q169.24 8.40 170.38 8.40Z"/>
    </g>
</svg>