<?xml version="1.0" encoding="UTF-8"?><svg height="26" width="139.2" version="1.1" xmlns="http://www.w3.org/2000/svg"><!--Created by Josélio de S. C. Júnior - 2021 - https://github.com/joseliojunior --><rect height="24" width="137.2" rx="1" ry="1" x="1" y="1" fill="#00ADD8" stroke="#00313d" stroke-width="1" /><g transform="translate(0, 8)"><path fill="#00313d" d="M24.99 1.58L24.99 1.58Q24.29 1.58 23.81 1.84Q23.33 2.10 23.02 2.55Q22.70 3.01 22.57 3.64Q22.43 4.27 22.43 5.04L22.43 5.04Q22.43 6.82 22.99 7.66Q23.55 8.50 24.64 8.50L24.64 8.50Q24.82 8.50 25.02 8.48Q25.23 8.46 25.41 8.43L25.41 8.43L25.41 4.82L27.38 4.82L27.38 9.76Q27.02 9.89 26.28 10.05Q25.54 10.21 24.48 10.21L24.48 10.21Q23.55 10.21 22.81 9.88Q22.06 9.55 21.54 8.90Q21.01 8.26 20.72 7.29Q20.43 6.32 20.43 5.04L20.43 5.04Q20.43 3.78 20.77 2.81Q21.10 1.84 21.68 1.18Q22.26 0.53 23.04 0.20Q23.82-0.13 24.72-0.13L24.72-0.13Q25.30-0.13 25.75-0.04Q26.21 0.05 26.54 0.16Q26.88 0.27 27.10 0.40Q27.31 0.53 27.42 0.59L27.42 0.59L26.91 2.16Q26.56 1.94 26.05 1.76Q25.54 1.58 24.99 1.58ZM35.55 6.22L35.55 6.22Q35.55 7.12 35.30 7.85Q35.04 8.58 34.58 9.10Q34.11 9.63 33.46 9.92Q32.82 10.21 32.02 10.21L32.02 10.21Q31.22 10.21 30.57 9.92Q29.92 9.63 29.45 9.10Q28.98 8.58 28.72 7.85Q28.46 7.12 28.46 6.22L28.46 6.22Q28.46 5.34 28.73 4.62Q28.99 3.89 29.46 3.37Q29.94 2.85 30.59 2.57Q31.25 2.29 32.02 2.29L32.02 2.29Q32.80 2.29 33.45 2.57Q34.10 2.85 34.57 3.37Q35.04 3.89 35.30 4.62Q35.55 5.34 35.55 6.22ZM30.46 6.24L30.46 6.24Q30.46 7.25 30.82 7.87Q31.18 8.50 31.98 8.50L31.98 8.50Q32.75 8.50 33.14 7.87Q33.54 7.25 33.54 6.24L33.54 6.24Q33.54 5.23 33.18 4.62Q32.82 4 32.02 4L32.02 4Q31.25 4 30.86 4.62Q30.46 5.23 30.46 6.24ZM48.74 10.21L48.74 10.21Q46.64 10.21 45.54 8.86Q44.43 7.52 44.43 5.04L44.43 5.04Q44.43 3.81 44.77 2.85Q45.10 1.89 45.70 1.22Q46.30 0.56 47.13 0.22Q47.95-0.13 48.93-0.13L48.93-0.13Q49.46-0.13 49.88-0.04Q50.30 0.05 50.62 0.16Q50.94 0.27 51.16 0.40Q51.38 0.53 51.49 0.59L51.49 0.59L50.98 2.16Q50.61 1.92 50.09 1.75Q49.57 1.58 48.90 1.58L48.90 1.58Q48.43 1.58 47.99 1.75Q47.55 1.92 47.21 2.31Q46.86 2.70 46.65 3.36Q46.43 4.02 46.43 4.99L46.43 4.99Q46.43 6.69 47.02 7.59Q47.60 8.50 48.93 8.50L48.93 8.50Q49.70 8.50 50.20 8.32Q50.70 8.14 51.01 7.97L51.01 7.97L51.50 9.52Q51.09 9.78 50.38 9.99Q49.66 10.21 48.74 10.21ZM54.98 10L53.01 10L53.01-0.77L54.98-1.10L54.98 2.54Q55.22 2.46 55.55 2.39Q55.89 2.32 56.14 2.32L56.14 2.32Q56.98 2.32 57.54 2.57Q58.10 2.82 58.43 3.27Q58.77 3.73 58.91 4.36Q59.06 4.99 59.06 5.76L59.06 5.76L59.06 10L57.09 10L57.09 6.02Q57.09 4.96 56.85 4.50Q56.61 4.03 55.94 4.03L55.94 4.03Q55.66 4.03 55.40 4.10Q55.14 4.16 54.98 4.21L54.98 4.21L54.98 10ZM60.50 6.30L60.50 6.30Q60.50 5.31 60.80 4.56Q61.10 3.81 61.60 3.30Q62.10 2.80 62.74 2.54Q63.38 2.29 64.05 2.29L64.05 2.29Q65.71 2.29 66.58 3.27Q67.44 4.26 67.44 6.14L67.44 6.14Q67.44 6.34 67.43 6.54Q67.42 6.75 67.41 6.88L67.41 6.88L62.53 6.88Q62.53 7.62 63.14 8.04Q63.74 8.46 64.70 8.46L64.70 8.46Q65.30 8.46 65.83 8.34Q66.37 8.21 66.74 8.08L66.74 8.08L67.01 9.76Q66.50 9.94 65.92 10.06Q65.34 10.18 64.62 10.18L64.62 10.18Q63.66 10.18 62.90 9.93Q62.14 9.68 61.61 9.19Q61.07 8.70 60.78 7.98Q60.50 7.26 60.50 6.30ZM62.53 5.52L65.54 5.52Q65.54 5.22 65.46 4.94Q65.38 4.66 65.20 4.43Q65.02 4.21 64.75 4.07Q64.48 3.94 64.08 3.94L64.08 3.94Q63.70 3.94 63.42 4.06Q63.14 4.19 62.95 4.42Q62.77 4.64 62.66 4.93Q62.56 5.22 62.53 5.52L62.53 5.52ZM68.70 6.24L68.70 6.24Q68.70 5.42 68.96 4.70Q69.22 3.98 69.74 3.45Q70.27 2.91 71.08 2.60Q71.89 2.29 73.01 2.29L73.01 2.29Q73.68 2.29 74.22 2.38Q74.77 2.48 75.33 2.70L75.33 2.70L74.90 4.29Q74.58 4.18 74.18 4.09Q73.79 4 73.18 4L73.18 4Q72.48 4 72.01 4.17Q71.54 4.34 71.25 4.63Q70.96 4.93 70.83 5.34Q70.70 5.76 70.70 6.24L70.70 6.24Q70.70 7.28 71.29 7.87Q71.87 8.46 73.28 8.46L73.28 8.46Q73.74 8.46 74.25 8.40Q74.75 8.34 75.17 8.19L75.17 8.19L75.46 9.81Q75.04 9.97 74.45 10.07Q73.86 10.18 73.06 10.18L73.06 10.18Q71.90 10.18 71.08 9.87Q70.26 9.57 69.73 9.04Q69.20 8.51 68.95 7.79Q68.70 7.07 68.70 6.24ZM78.99-1.10L78.99 5.46Q79.28 5.12 79.58 4.74Q79.87 4.37 80.15 3.97Q80.43 3.57 80.69 3.19Q80.94 2.82 81.14 2.48L81.14 2.48L83.50 2.48Q83.22 2.85 82.85 3.28Q82.48 3.71 82.09 4.16Q81.70 4.61 81.30 5.02Q80.91 5.44 80.59 5.79L80.59 5.79Q80.99 6.18 81.46 6.71Q81.92 7.25 82.37 7.82Q82.82 8.40 83.19 8.98Q83.57 9.55 83.79 10L83.79 10L81.54 10Q81.34 9.60 81.03 9.10Q80.72 8.59 80.37 8.10Q80.02 7.62 79.66 7.18Q79.30 6.74 78.99 6.45L78.99 6.45L78.99 10L77.01 10L77.01-0.77L78.99-1.10ZM87.65 8.51L87.65 8.51Q88.37 8.51 88.75 8.41Q89.14 8.30 89.14 7.98L89.14 7.98Q89.14 7.78 89.02 7.63Q88.90 7.49 88.68 7.38Q88.46 7.28 88.18 7.18Q87.90 7.09 87.60 6.99L87.60 6.99Q87.17 6.86 86.72 6.70Q86.27 6.53 85.90 6.27Q85.54 6.02 85.30 5.62Q85.06 5.23 85.06 4.64L85.06 4.64Q85.06 4.16 85.24 3.74Q85.42 3.31 85.82 2.98Q86.21 2.66 86.82 2.47Q87.42 2.29 88.27 2.29L88.27 2.29Q89.01 2.29 89.64 2.40Q90.27 2.51 90.74 2.72L90.74 2.72L90.43 4.38Q90.16 4.30 89.58 4.12Q89.01 3.94 88.29 3.94L88.29 3.94Q87.54 3.94 87.27 4.12Q87.01 4.30 87.01 4.51L87.01 4.51Q87.01 4.69 87.13 4.82Q87.25 4.96 87.45 5.07Q87.65 5.18 87.91 5.29Q88.18 5.39 88.48 5.49L88.48 5.49Q88.91 5.63 89.38 5.81Q89.84 5.98 90.22 6.25Q90.59 6.51 90.83 6.92Q91.07 7.33 91.07 7.92L91.07 7.92Q91.07 8.38 90.90 8.80Q90.72 9.22 90.31 9.52Q89.90 9.82 89.25 10Q88.59 10.18 87.63 10.18L87.63 10.18Q86.66 10.18 85.97 9.95Q85.28 9.73 84.86 9.55L84.86 9.55L85.17 7.90Q85.73 8.13 86.36 8.32Q86.99 8.51 87.65 8.51ZM99.01 2.48L99.01 9.74Q98.46 9.89 97.69 10.03Q96.91 10.18 96 10.18L96 10.18Q95.07 10.18 94.48 9.92Q93.89 9.66 93.54 9.19Q93.20 8.72 93.07 8.08Q92.94 7.44 92.94 6.67L92.94 6.67L92.94 2.48L94.91 2.48L94.91 6.42Q94.91 7.46 95.16 7.96Q95.41 8.46 96.13 8.46L96.13 8.46Q96.58 8.46 97.02 8.38L97.02 8.38L97.02 2.48L99.01 2.48ZM105.49 2.40L105.49 2.40Q106.11 2.40 106.51 2.59Q106.91 2.78 107.14 3.17Q107.38 3.55 107.46 4.14Q107.54 4.72 107.54 5.50L107.54 5.50L107.54 10L105.94 10L105.94 5.41Q105.94 4.96 105.88 4.69Q105.82 4.42 105.74 4.27Q105.65 4.13 105.53 4.08Q105.41 4.03 105.28 4.03L105.28 4.03Q105.14 4.03 104.98 4.06Q104.82 4.08 104.69 4.14L104.69 4.14Q104.74 4.45 104.77 4.82Q104.80 5.18 104.80 5.63L104.80 5.63L104.80 7.14L103.20 7.14L103.20 5.41Q103.20 4.64 103.05 4.34Q102.90 4.03 102.56 4.03L102.56 4.03Q102.46 4.03 102.33 4.05Q102.19 4.06 102.06 4.10L102.06 4.10L102.06 10L100.46 10L100.46 2.77Q101.09 2.59 101.70 2.50Q102.30 2.40 102.77 2.40L102.77 2.40Q103.18 2.40 103.51 2.50Q103.84 2.61 104.08 2.85L104.08 2.85Q104.35 2.67 104.72 2.54Q105.09 2.40 105.49 2.40ZM111.65 8.51L111.65 8.51Q112.37 8.51 112.75 8.41Q113.14 8.30 113.14 7.98L113.14 7.98Q113.14 7.78 113.02 7.63Q112.90 7.49 112.68 7.38Q112.46 7.28 112.18 7.18Q111.90 7.09 111.60 6.99L111.60 6.99Q111.17 6.86 110.72 6.70Q110.27 6.53 109.90 6.27Q109.54 6.02 109.30 5.62Q109.06 5.23 109.06 4.64L109.06 4.64Q109.06 4.16 109.24 3.74Q109.42 3.31 109.82 2.98Q110.21 2.66 110.82 2.47Q111.42 2.29 112.27 2.29L112.27 2.29Q113.01 2.29 113.64 2.40Q114.27 2.51 114.74 2.72L114.74 2.72L114.43 4.38Q114.16 4.30 113.58 4.12Q113.01 3.94 112.29 3.94L112.29 3.94Q111.54 3.94 111.27 4.12Q111.01 4.30 111.01 4.51L111.01 4.51Q111.01 4.69 111.13 4.82Q111.25 4.96 111.45 5.07Q111.65 5.18 111.91 5.29Q112.18 5.39 112.48 5.49L112.48 5.49Q112.91 5.63 113.38 5.81Q113.84 5.98 114.22 6.25Q114.59 6.51 114.83 6.92Q115.07 7.33 115.07 7.92L115.07 7.92Q115.07 8.38 114.90 8.80Q114.72 9.22 114.31 9.52Q113.90 9.82 113.25 10Q112.59 10.18 111.63 10.18L111.63 10.18Q110.66 10.18 109.97 9.95Q109.28 9.73 108.86 9.55L108.86 9.55L109.17 7.90Q109.73 8.13 110.36 8.32Q110.99 8.51 111.65 8.51Z"/></g></svg>