<?xml version="1.0" encoding="UTF-8"?>
<svg height="26" width="66.3" version="1.1" xmlns="http://www.w3.org/2000/svg"><!--Created by Josélio de S. C. Júnior - 2021 - https://github.com/joseliojunior -->
    <rect
        height="24"
        width="64.3"
        rx="1"
        ry="1"
        x="1" y="1"
        fill="#563d7c"
        stroke="#0e0a15"
        stroke-width="1" />
    <g transform="translate(0, 8)">
        <path fill="#0e0a15" d="M24.74 10.21L24.74 10.21Q22.64 10.21 21.54 8.86Q20.43 7.52 20.43 5.04L20.43 5.04Q20.43 3.81 20.77 2.85Q21.10 1.89 21.70 1.22Q22.30 0.56 23.13 0.22Q23.95-0.13 24.93-0.13L24.93-0.13Q25.46-0.13 25.88-0.04Q26.30 0.05 26.62 0.16Q26.94 0.27 27.16 0.40Q27.38 0.53 27.49 0.59L27.49 0.59L26.98 2.16Q26.61 1.92 26.09 1.75Q25.57 1.58 24.90 1.58L24.90 1.58Q24.43 1.58 23.99 1.75Q23.55 1.92 23.21 2.31Q22.86 2.70 22.65 3.36Q22.43 4.02 22.43 4.99L22.43 4.99Q22.43 6.69 23.02 7.59Q23.60 8.50 24.93 8.50L24.93 8.50Q25.70 8.50 26.20 8.32Q26.70 8.14 27.01 7.97L27.01 7.97L27.50 9.52Q27.09 9.78 26.38 9.99Q25.66 10.21 24.74 10.21ZM31.71 8.56L31.71 8.56Q32.21 8.56 32.54 8.46Q32.86 8.35 33.06 8.17Q33.25 7.98 33.32 7.75Q33.39 7.52 33.39 7.28L33.39 7.28Q33.39 6.98 33.22 6.74Q33.04 6.50 32.77 6.31Q32.50 6.13 32.16 5.98Q31.82 5.82 31.49 5.70L31.49 5.70Q31.04 5.54 30.56 5.33Q30.08 5.12 29.69 4.80Q29.30 4.48 29.04 4.01Q28.78 3.54 28.78 2.83L28.78 2.83Q28.78 1.44 29.69 0.66Q30.59-0.13 32.18-0.13L32.18-0.13Q33.09-0.13 33.77 0.08Q34.45 0.29 34.91 0.54L34.91 0.54L34.34 2.06Q33.94 1.84 33.45 1.68Q32.96 1.52 32.32 1.52L32.32 1.52Q30.75 1.52 30.75 2.66L30.75 2.66Q30.75 2.94 30.91 3.16Q31.07 3.38 31.32 3.54Q31.57 3.71 31.88 3.84Q32.19 3.97 32.50 4.08L32.50 4.08Q32.96 4.26 33.46 4.47Q33.97 4.69 34.39 5.05Q34.82 5.41 35.09 5.94Q35.36 6.48 35.36 7.30L35.36 7.30Q35.36 8.69 34.46 9.45Q33.55 10.21 31.71 10.21L31.71 10.21Q30.48 10.21 29.74 9.94Q29.01 9.68 28.64 9.46L28.64 9.46L29.22 7.86Q29.65 8.11 30.25 8.34Q30.85 8.56 31.71 8.56ZM39.71 8.56L39.71 8.56Q40.21 8.56 40.54 8.46Q40.86 8.35 41.06 8.17Q41.25 7.98 41.32 7.75Q41.39 7.52 41.39 7.28L41.39 7.28Q41.39 6.98 41.22 6.74Q41.04 6.50 40.77 6.31Q40.50 6.13 40.16 5.98Q39.82 5.82 39.49 5.70L39.49 5.70Q39.04 5.54 38.56 5.33Q38.08 5.12 37.69 4.80Q37.30 4.48 37.04 4.01Q36.78 3.54 36.78 2.83L36.78 2.83Q36.78 1.44 37.69 0.66Q38.59-0.13 40.18-0.13L40.18-0.13Q41.09-0.13 41.77 0.08Q42.45 0.29 42.91 0.54L42.91 0.54L42.34 2.06Q41.94 1.84 41.45 1.68Q40.96 1.52 40.32 1.52L40.32 1.52Q38.75 1.52 38.75 2.66L38.75 2.66Q38.75 2.94 38.91 3.16Q39.07 3.38 39.32 3.54Q39.57 3.71 39.88 3.84Q40.19 3.97 40.50 4.08L40.50 4.08Q40.96 4.26 41.46 4.47Q41.97 4.69 42.39 5.05Q42.82 5.41 43.09 5.94Q43.36 6.48 43.36 7.30L43.36 7.30Q43.36 8.69 42.46 9.45Q41.55 10.21 39.71 10.21L39.71 10.21Q38.48 10.21 37.74 9.94Q37.01 9.68 36.64 9.46L36.64 9.46L37.22 7.86Q37.65 8.11 38.25 8.34Q38.85 8.56 39.71 8.56Z"/>
    </g>
</svg>