<?xml version="1.0" encoding="UTF-8"?>
<svg height="34" width="64.3" version="1.1" xmlns="http://www.w3.org/2000/svg">
    <rect
        height="32"
        width="62.3"
        rx="14"
        ry="14"
        x="1"
        y="1"
        fill="#3D6117"
        stroke="#8cd241"
        stroke-width="1"
         />
    <g transform="translate(0, 14)">
        <path fill="#8cd241" d="M10.70-6.33L23.30-6.33L23.30-3.48L18.74-3.48L18.74 11L15.26 11L15.26-3.48L10.70-3.48L10.70-6.33ZM24.87 4.53L24.87 4.53Q24.87 2.80 25.40 1.48Q25.93 0.16 26.80-0.72Q27.67-1.60 28.79-2.05Q29.91-2.50 31.08-2.50L31.08-2.50Q34.00-2.50 35.51-0.77Q37.02 0.95 37.02 4.25L37.02 4.25Q37.02 4.59 37.01 4.95Q36.99 5.32 36.96 5.54L36.96 5.54L28.42 5.54Q28.42 6.83 29.49 7.57Q30.55 8.31 32.23 8.31L32.23 8.31Q33.27 8.31 34.21 8.09Q35.14 7.86 35.79 7.64L35.79 7.64L36.26 10.58Q35.37 10.89 34.36 11.10Q33.35 11.31 32.09 11.31L32.09 11.31Q30.41 11.31 29.08 10.87Q27.75 10.44 26.81 9.59Q25.88 8.73 25.37 7.47Q24.87 6.21 24.87 4.53ZM28.42 3.16L33.69 3.16Q33.69 2.63 33.55 2.14Q33.41 1.65 33.10 1.26Q32.79 0.86 32.32 0.63Q31.84 0.39 31.14 0.39L31.14 0.39Q30.47 0.39 29.98 0.61Q29.49 0.84 29.17 1.23Q28.84 1.62 28.66 2.12Q28.48 2.63 28.42 3.16L28.42 3.16ZM51.69 11L47.97 11Q47.44 9.57 46.67 7.84Q45.90 6.10 45.06 4.36L45.06 4.36Q44.24 6.02 43.43 7.79Q42.62 9.57 42.03 11L42.03 11L38.31 11Q38.59 10.24 39.13 9.18Q39.68 8.12 40.34 6.88Q41.00 5.65 41.72 4.35Q42.45 3.05 43.12 1.84L43.12 1.84L38.59-6.33L42.31-6.33L45.06-0.79L47.94-6.33L51.41-6.33L46.99 1.76Q47.74 2.96 48.47 4.28Q49.20 5.60 49.83 6.84Q50.46 8.09 50.94 9.17Q51.41 10.24 51.69 11L51.69 11Z"/>
    </g>
</svg>