<?xml version="1.0" encoding="UTF-8"?>
<svg height="34" width="134.8" version="1.1" xmlns="http://www.w3.org/2000/svg">
    <rect
        height="32"
        width="132.8"
        rx="14"
        ry="14"
        x="1"
        y="1"
        fill="#6e4a7e"
        stroke="#19111d"
        stroke-width="1"
         />
    <g transform="translate(0, 14)">
        <path fill="#19111d" d="M19.30-6.33L22.74-6.33L22.74 11L19.30 11L19.30 3.36L14.70 3.36L14.70 11L11.26 11L11.26-6.33L14.70-6.33L14.70 0.50L19.30 0.50L19.30-6.33ZM24.70-6.33L37.30-6.33L37.30-3.48L32.74-3.48L32.74 11L29.26 11L29.26-3.48L24.70-3.48L24.70-6.33ZM39.65-6.33L42.51-6.33Q42.70-5.74 43.00-4.82Q43.29-3.90 43.63-2.83Q43.96-1.77 44.30-0.68Q44.64 0.42 44.94 1.34L44.94 1.34Q45.28 0.30 45.64-0.80Q46.01-1.91 46.34-2.93Q46.68-3.95 46.96-4.85Q47.24-5.74 47.46-6.33L47.46-6.33L50.32-6.33Q50.52-4.06 50.70-1.91Q50.88 0.25 51.01 2.36Q51.13 4.48 51.22 6.62Q51.30 8.76 51.36 11L51.36 11L48.19 11L48.36-2.47L46.23 4.87L43.71 4.87L41.67-2.47L41.81 11L38.64 11Q38.73 8.87 38.83 6.58Q38.92 4.28 39.04 2.01Q39.15-0.26 39.30-2.38Q39.46-4.51 39.65-6.33L39.65-6.33ZM64.88 8.14L64.88 11L53.99 11L53.99-6.33L57.46-6.33L57.46 8.14L64.88 8.14ZM67.12 5.06L67.12 2.24L71.52 2.24L71.52-2.64L74.48-2.64L74.48 2.24L78.88 2.24L78.88 5.06L74.48 5.06L74.48 9.94L71.52 9.94L71.52 5.06L67.12 5.06ZM92.88 11L81.76 11L81.76-6.33L92.26-6.33L92.26-3.48L85.21-3.48L85.21 0.42L91.34 0.42L91.34 3.27L85.21 3.27L85.21 8.14L92.88 8.14L92.88 11ZM106.88 11L95.76 11L95.76-6.33L106.26-6.33L106.26-3.48L99.21-3.48L99.21 0.42L105.34 0.42L105.34 3.27L99.21 3.27L99.21 8.14L106.88 8.14L106.88 11ZM121.69 11L117.97 11Q117.44 9.57 116.67 7.84Q115.90 6.10 115.06 4.36L115.06 4.36Q114.24 6.02 113.43 7.79Q112.62 9.57 112.03 11L112.03 11L108.31 11Q108.59 10.24 109.13 9.18Q109.68 8.12 110.34 6.88Q111.00 5.65 111.72 4.35Q112.45 3.05 113.12 1.84L113.12 1.84L108.59-6.33L112.31-6.33L115.06-0.79L117.94-6.33L121.41-6.33L116.99 1.76Q117.74 2.96 118.47 4.28Q119.20 5.60 119.83 6.84Q120.46 8.09 120.94 9.17Q121.41 10.24 121.69 11L121.69 11Z"/>
    </g>
</svg>