<?xml version="1.0" encoding="UTF-8"?>
<svg height="322" width="138.8" version="1.1" xmlns="http://www.w3.org/2000/svg"><!--Created by Josélio de S. C. Júnior - 2021 - https://github.com/joseliojunior -->
    <rect
        height="32"
        width="136.8"
        rx="16"
        ry="16"
        x="1" y="1"
        fill="#6e4a7e"
        stroke="#19111d"
        stroke-width="1" />
    <g transform="translate(0, 12)">
        <path fill="#19111d" stroke="none" d="M27.97-2.86L30.92-2.86L30.92 12L27.97 12L27.97 5.45L24.03 5.45L24.03 12L21.08 12L21.08-2.86L24.03-2.86L24.03 3L27.97 3L27.97-2.86ZM32.60-2.86L43.40-2.86L43.40-0.41L39.49-0.41L39.49 12L36.51 12L36.51-0.41L32.60-0.41L32.60-2.86ZM45.42-2.86L47.86-2.86Q48.03-2.35 48.28-1.56Q48.54-0.77 48.82 0.14Q49.11 1.06 49.40 1.99Q49.69 2.93 49.95 3.72L49.95 3.72Q50.24 2.83 50.55 1.88Q50.86 0.94 51.15 0.06Q51.44-0.82 51.68-1.58Q51.92-2.35 52.11-2.86L52.11-2.86L54.56-2.86Q54.73-0.91 54.88 0.94Q55.04 2.78 55.15 4.60Q55.26 6.41 55.33 8.24Q55.40 10.08 55.45 12L55.45 12L52.74 12L52.88 0.46L51.06 6.74L48.90 6.74L47.14 0.46L47.26 12L44.55 12Q44.62 10.18 44.71 8.21Q44.79 6.24 44.89 4.30Q44.98 2.35 45.12 0.53Q45.25-1.30 45.42-2.86L45.42-2.86ZM67.04 9.55L67.04 12L57.70 12L57.70-2.86L60.68-2.86L60.68 9.55L67.04 9.55ZM68.96 6.91L68.96 4.49L72.73 4.49L72.73 0.31L75.27 0.31L75.27 4.49L79.04 4.49L79.04 6.91L75.27 6.91L75.27 11.09L72.73 11.09L72.73 6.91L68.96 6.91ZM91.04 12L81.51 12L81.51-2.86L90.51-2.86L90.51-0.41L84.46-0.41L84.46 2.93L89.72 2.93L89.72 5.38L84.46 5.38L84.46 9.55L91.04 9.55L91.04 12ZM103.04 12L93.51 12L93.51-2.86L102.51-2.86L102.51-0.41L96.46-0.41L96.46 2.93L101.72 2.93L101.72 5.38L96.46 5.38L96.46 9.55L103.04 9.55L103.04 12ZM115.74 12L112.54 12Q112.09 10.78 111.43 9.29Q110.77 7.80 110.05 6.31L110.05 6.31Q109.35 7.73 108.66 9.25Q107.96 10.78 107.46 12L107.46 12L104.26 12Q104.50 11.35 104.97 10.44Q105.44 9.53 106.00 8.47Q106.57 7.42 107.19 6.30Q107.82 5.18 108.39 4.15L108.39 4.15L104.50-2.86L107.70-2.86L110.05 1.90L112.52-2.86L115.50-2.86L111.70 4.08Q112.35 5.11 112.98 6.24Q113.60 7.37 114.14 8.44Q114.68 9.50 115.09 10.43Q115.50 11.35 115.74 12L115.74 12Z"/>
    </g>
</svg>