<?xml version="1.0" encoding="UTF-8"?>
<svg height="26" width="74.4" version="1.1" xmlns="http://www.w3.org/2000/svg"><!--Created by Josélio de S. C. Júnior - 2021 - https://github.com/joseliojunior -->
    <rect
        height="24"
        width="72.4"
        rx="12"
        ry="12"
        x="1" y="1"
        fill="#0000fb"
        stroke="#000061"
        stroke-width="1" />
    <g transform="translate(0, 8)">
        <path fill="#000061" stroke="none" d="M23.42-0.02L23.42-0.02Q24.27-0.02 24.96 0.18Q25.65 0.37 26.14 0.77Q26.64 1.17 26.90 1.78Q27.17 2.40 27.17 3.23L27.17 3.23Q27.17 4.10 26.82 4.80Q26.46 5.50 25.65 5.87L25.65 5.87Q25.92 6.29 26.22 6.79Q26.53 7.30 26.82 7.85Q27.10 8.40 27.37 8.95Q27.63 9.50 27.82 10L27.82 10L25.76 10Q25.39 9.04 24.90 8.15Q24.42 7.26 23.86 6.35L23.86 6.35L22.83 6.35L22.83 10L20.86 10L20.86 0.24Q21.15 0.18 21.50 0.12Q21.84 0.06 22.19 0.04Q22.54 0.02 22.86 0Q23.18-0.02 23.42-0.02ZM25.17 3.22L25.17 3.22Q25.17 2.43 24.69 2.06Q24.21 1.70 23.42 1.70L23.42 1.70Q23.31 1.70 23.15 1.70Q22.99 1.71 22.83 1.74L22.83 1.74L22.83 4.72L23.26 4.72Q24.27 4.72 24.72 4.33Q25.17 3.94 25.17 3.22ZM32.02 8.59L32.02 8.59Q32.34 8.59 32.64 8.58Q32.94 8.58 33.17 8.54L33.17 8.54L33.17 6.82Q32.98 6.78 32.70 6.76Q32.43 6.74 32.21 6.74L32.21 6.74Q31.90 6.74 31.62 6.78Q31.33 6.82 31.11 6.91Q30.90 7.01 30.77 7.18Q30.64 7.36 30.64 7.65L30.64 7.65Q30.64 8.16 31.02 8.38Q31.41 8.59 32.02 8.59ZM31.84 2.29L31.84 2.29Q32.77 2.29 33.38 2.50Q34 2.72 34.37 3.11Q34.74 3.50 34.90 4.07Q35.06 4.64 35.06 5.34L35.06 5.34L35.06 9.82Q34.62 9.92 33.78 10.05Q32.93 10.18 31.87 10.18L31.87 10.18Q31.15 10.18 30.57 10.05Q29.98 9.92 29.57 9.62Q29.15 9.33 28.93 8.86Q28.70 8.38 28.70 7.70L28.70 7.70Q28.70 7.04 28.96 6.59Q29.22 6.14 29.65 5.87Q30.08 5.60 30.64 5.48Q31.20 5.36 31.81 5.36L31.81 5.36Q32.58 5.36 33.17 5.49L33.17 5.49L33.17 5.25Q33.17 4.69 32.82 4.31Q32.46 3.94 31.60 3.94L31.60 3.94Q31.04 3.94 30.52 4.02Q30 4.10 29.68 4.21L29.68 4.21L29.41 2.62Q29.78 2.50 30.45 2.39Q31.12 2.29 31.84 2.29ZM38.99-1.10L38.99 5.46Q39.28 5.12 39.58 4.74Q39.87 4.37 40.15 3.97Q40.43 3.57 40.69 3.19Q40.94 2.82 41.14 2.48L41.14 2.48L43.50 2.48Q43.22 2.85 42.85 3.28Q42.48 3.71 42.09 4.16Q41.70 4.61 41.30 5.02Q40.91 5.44 40.59 5.79L40.59 5.79Q40.99 6.18 41.46 6.71Q41.92 7.25 42.37 7.82Q42.82 8.40 43.19 8.98Q43.57 9.55 43.79 10L43.79 10L41.54 10Q41.34 9.60 41.03 9.10Q40.72 8.59 40.37 8.10Q40.02 7.62 39.66 7.18Q39.30 6.74 38.99 6.45L38.99 6.45L38.99 10L37.01 10L37.01-0.77L38.99-1.10ZM51.01 2.48L51.01 9.74Q50.46 9.89 49.69 10.03Q48.91 10.18 48 10.18L48 10.18Q47.07 10.18 46.48 9.92Q45.89 9.66 45.54 9.19Q45.20 8.72 45.07 8.08Q44.94 7.44 44.94 6.67L44.94 6.67L44.94 2.48L46.91 2.48L46.91 6.42Q46.91 7.46 47.16 7.96Q47.41 8.46 48.13 8.46L48.13 8.46Q48.58 8.46 49.02 8.38L49.02 8.38L49.02 2.48L51.01 2.48Z"/>
    </g>
</svg>