<?xml version="1.0" encoding="UTF-8"?>
<svg height="322" width="90.4" version="1.1" xmlns="http://www.w3.org/2000/svg"><!--Created by Josélio de S. C. Júnior - 2021 - https://github.com/joseliojunior -->
    <rect
        height="32"
        width="88.4"
        rx="16"
        ry="16"
        x="1" y="1"
        fill="#0000fb"
        stroke="#000061"
        stroke-width="1" />
    <g transform="translate(0, 12)">
        <path fill="#000061" stroke="none" d="M25.14-3.02L25.14-3.02Q26.41-3.02 27.44-2.74Q28.47-2.45 29.22-1.85Q29.96-1.25 30.36-0.32Q30.75 0.60 30.75 1.85L30.75 1.85Q30.75 3.14 30.22 4.20Q29.70 5.26 28.47 5.81L28.47 5.81Q28.88 6.43 29.34 7.19Q29.79 7.94 30.22 8.77Q30.66 9.60 31.05 10.43Q31.45 11.26 31.74 12L31.74 12L28.64 12Q28.09 10.56 27.36 9.23Q26.62 7.90 25.78 6.53L25.78 6.53L24.25 6.53L24.25 12L21.30 12L21.30-2.64Q21.73-2.74 22.24-2.82Q22.76-2.90 23.29-2.94Q23.82-2.98 24.30-3Q24.78-3.02 25.14-3.02ZM27.75 1.82L27.75 1.82Q27.75 0.65 27.03 0.10Q26.31-0.46 25.14-0.46L25.14-0.46Q24.97-0.46 24.73-0.44Q24.49-0.43 24.25-0.38L24.25-0.38L24.25 4.08L24.90 4.08Q26.41 4.08 27.08 3.49Q27.75 2.90 27.75 1.82ZM38.02 9.89L38.02 9.89Q38.50 9.89 38.96 9.88Q39.42 9.86 39.75 9.82L39.75 9.82L39.75 7.22Q39.46 7.18 39.06 7.14Q38.65 7.10 38.31 7.10L38.31 7.10Q37.86 7.10 37.42 7.16Q36.99 7.22 36.67 7.37Q36.34 7.51 36.15 7.78Q35.96 8.04 35.96 8.47L35.96 8.47Q35.96 9.24 36.54 9.56Q37.11 9.89 38.02 9.89ZM37.76 0.43L37.76 0.43Q39.15 0.43 40.08 0.76Q41 1.08 41.55 1.67Q42.10 2.26 42.34 3.11Q42.58 3.96 42.58 5.02L42.58 5.02L42.58 11.74Q41.94 11.88 40.66 12.07Q39.39 12.26 37.81 12.26L37.81 12.26Q36.73 12.26 35.85 12.07Q34.98 11.88 34.35 11.44Q33.73 10.99 33.39 10.28Q33.06 9.58 33.06 8.54L33.06 8.54Q33.06 7.56 33.44 6.89Q33.82 6.22 34.47 5.81Q35.12 5.40 35.96 5.22Q36.80 5.04 37.71 5.04L37.71 5.04Q38.86 5.04 39.75 5.23L39.75 5.23L39.75 4.87Q39.75 4.03 39.22 3.47Q38.70 2.90 37.40 2.90L37.40 2.90Q36.56 2.90 35.78 3.02Q35 3.14 34.52 3.31L34.52 3.31L34.11 0.94Q34.66 0.74 35.67 0.59Q36.68 0.43 37.76 0.43ZM48.49-4.66L48.49 5.18Q48.92 4.68 49.36 4.12Q49.81 3.55 50.23 2.95Q50.65 2.35 51.03 1.79Q51.42 1.22 51.70 0.72L51.70 0.72L55.26 0.72Q54.82 1.27 54.27 1.92Q53.72 2.57 53.13 3.24Q52.54 3.91 51.96 4.54Q51.37 5.16 50.89 5.69L50.89 5.69Q51.49 6.26 52.18 7.07Q52.88 7.87 53.55 8.74Q54.22 9.60 54.79 10.46Q55.35 11.33 55.69 12L55.69 12L52.30 12Q52.02 11.40 51.55 10.64Q51.08 9.89 50.55 9.16Q50.02 8.42 49.48 7.76Q48.94 7.10 48.49 6.67L48.49 6.67L48.49 12L45.51 12L45.51-4.15L48.49-4.66ZM66.51 0.72L66.51 11.62Q65.70 11.83 64.53 12.05Q63.37 12.26 62 12.26L62 12.26Q60.61 12.26 59.72 11.88Q58.83 11.50 58.32 10.79Q57.80 10.08 57.61 9.12Q57.42 8.16 57.42 7.01L57.42 7.01L57.42 0.72L60.37 0.72L60.37 6.62Q60.37 8.18 60.74 8.94Q61.11 9.70 62.19 9.70L62.19 9.70Q62.86 9.70 63.54 9.58L63.54 9.58L63.54 0.72L66.51 0.72Z"/>
    </g>
</svg>