<?xml version="1.0" encoding="UTF-8"?>
<svg height="34" width="64.3" version="1.1" xmlns="http://www.w3.org/2000/svg">
    <rect
        height="32"
        width="62.3"
        rx="14"
        ry="14"
        x="1"
        y="1"
        fill="#d1dbe0"
        stroke="#5d7a89"
        stroke-width="1"
         />
    <g transform="translate(0, 14)">
        <path fill="#5d7a89" d="M22.52 11L11.51 11L11.51 8.14L15.29 8.14L15.29-3.48L11.51-3.48L11.51-6.33L22.52-6.33L22.52-3.48L18.76-3.48L18.76 8.14L22.52 8.14L22.52 11ZM36.71 11L33.94 11Q32.76 8.12 31.38 5.25Q29.99 2.38 28.40-0.51L28.40-0.51L28.40 11L25.29 11L25.29-6.33L28.06-6.33Q28.84-5.10 29.63-3.66Q30.41-2.22 31.15-0.79Q31.90 0.64 32.53 1.98Q33.16 3.33 33.60 4.34L33.60 4.34L33.60-6.33L36.71-6.33L36.71 11ZM50.52 11L39.51 11L39.51 8.14L43.29 8.14L43.29-3.48L39.51-3.48L39.51-6.33L50.52-6.33L50.52-3.48L46.76-3.48L46.76 8.14L50.52 8.14L50.52 11Z"/>
    </g>
</svg>