<?xml version="1.0" encoding="UTF-8"?>
<svg height="34" width="78.3" version="1.1" xmlns="http://www.w3.org/2000/svg">
    <rect
        height="32"
        width="76.3"
        rx="1"
        ry="1"
        x="1"
        y="1"
        fill="#d1dbe0"
        stroke="#5d7a89"
        stroke-width="1"
         />
    <g transform="translate(0, 12)">
        <path fill="#5d7a89" d="M30.73 12L21.30 12L21.30 9.55L24.54 9.55L24.54-0.41L21.30-0.41L21.30-2.86L30.73-2.86L30.73-0.41L27.51-0.41L27.51 9.55L30.73 9.55L30.73 12ZM42.90 12L40.52 12Q39.51 9.53 38.32 7.07Q37.14 4.61 35.77 2.14L35.77 2.14L35.77 12L33.10 12L33.10-2.86L35.48-2.86Q36.15-1.80 36.82-0.56Q37.50 0.67 38.13 1.90Q38.77 3.12 39.31 4.27Q39.85 5.42 40.23 6.29L40.23 6.29L40.23-2.86L42.90-2.86L42.90 12ZM54.73 12L45.30 12L45.30 9.55L48.54 9.55L48.54-0.41L45.30-0.41L45.30-2.86L54.73-2.86L54.73-0.41L51.51-0.41L51.51 9.55L54.73 9.55L54.73 12Z"/>
    </g>
</svg>