<?xml version="1.0" encoding="UTF-8"?>
<svg height="34" width="177.1" version="1.1" xmlns="http://www.w3.org/2000/svg">
    <rect
        height="32"
        width="175.1"
        rx="14"
        ry="14"
        x="1"
        y="1"
        fill="#dd1100"
        stroke="#420600"
        stroke-width="1"
         />
    <g transform="translate(0, 14)">
        <path fill="#420600" d="M11.65-6.33L14.51-6.33Q14.70-5.74 15.00-4.82Q15.29-3.90 15.63-2.83Q15.96-1.77 16.30-0.68Q16.64 0.42 16.94 1.34L16.94 1.34Q17.28 0.30 17.64-0.80Q18.01-1.91 18.34-2.93Q18.68-3.95 18.96-4.85Q19.24-5.74 19.46-6.33L19.46-6.33L22.32-6.33Q22.52-4.06 22.70-1.91Q22.88 0.25 23.01 2.36Q23.13 4.48 23.22 6.62Q23.30 8.76 23.36 11L23.36 11L20.19 11L20.36-2.47L18.23 4.87L15.71 4.87L13.67-2.47L13.81 11L10.64 11Q10.73 8.87 10.83 6.58Q10.92 4.28 11.04 2.01Q11.15-0.26 11.30-2.38Q11.46-4.51 11.65-6.33L11.65-6.33ZM31.03 8.54L31.03 8.54Q31.59 8.54 32.12 8.52Q32.65 8.51 33.04 8.45L33.04 8.45L33.04 5.43Q32.71 5.37 32.23 5.33Q31.76 5.29 31.36 5.29L31.36 5.29Q30.83 5.29 30.33 5.36Q29.82 5.43 29.45 5.60Q29.07 5.76 28.84 6.07Q28.62 6.38 28.62 6.88L28.62 6.88Q28.62 7.78 29.29 8.16Q29.96 8.54 31.03 8.54ZM30.72-2.50L30.72-2.50Q32.34-2.50 33.42-2.12Q34.50-1.74 35.14-1.05Q35.79-0.37 36.07 0.63Q36.35 1.62 36.35 2.85L36.35 2.85L36.35 10.69Q35.59 10.86 34.11 11.08Q32.62 11.31 30.78 11.31L30.78 11.31Q29.52 11.31 28.49 11.08Q27.47 10.86 26.74 10.34Q26.02 9.82 25.62 9.00Q25.23 8.17 25.23 6.97L25.23 6.97Q25.23 5.82 25.68 5.04Q26.13 4.25 26.88 3.78Q27.64 3.30 28.62 3.09Q29.60 2.88 30.66 2.88L30.66 2.88Q32.01 2.88 33.04 3.10L33.04 3.10L33.04 2.68Q33.04 1.70 32.43 1.05Q31.81 0.39 30.30 0.39L30.30 0.39Q29.32 0.39 28.41 0.53Q27.50 0.67 26.94 0.86L26.94 0.86L26.46-1.91Q27.11-2.13 28.28-2.31Q29.46-2.50 30.72-2.50ZM42.00 6.10L42.00 0.70L39.01 0.70L39.01-2.16L42.00-2.16L42.00-5.46L45.45-6.02L45.45-2.16L50.96-2.16L50.96 0.70L45.45 0.70L45.45 6.02Q45.45 6.74 45.59 7.19Q45.73 7.64 45.98 7.89Q46.23 8.14 46.60 8.23Q46.96 8.31 47.41 8.31L47.41 8.31Q47.88 8.31 48.29 8.28Q48.70 8.26 49.07 8.19Q49.45 8.12 49.86 7.98Q50.26 7.84 50.74 7.61L50.74 7.61L51.22 10.58Q50.26 10.97 49.16 11.14Q48.05 11.31 47.02 11.31L47.02 11.31Q45.81 11.31 44.89 11.11Q43.96 10.92 43.32 10.36Q42.68 9.80 42.34 8.77Q42.00 7.75 42.00 6.10L42.00 6.10ZM57.21 11L53.76 11L53.76-7.84L57.21-8.43L57.21-2.05Q57.63-2.19 58.22-2.31Q58.80-2.44 59.25-2.44L59.25-2.44Q60.71-2.44 61.69-2.01Q62.67-1.57 63.26-0.77Q63.84 0.02 64.10 1.13Q64.35 2.24 64.35 3.58L64.35 3.58L64.35 11L60.90 11L60.90 4.03Q60.90 2.18 60.48 1.37Q60.06 0.56 58.89 0.56L58.89 0.56Q58.41 0.56 57.95 0.67Q57.49 0.78 57.21 0.86L57.21 0.86L57.21 11ZM66.87 4.53L66.87 4.53Q66.87 2.80 67.40 1.48Q67.93 0.16 68.80-0.72Q69.67-1.60 70.79-2.05Q71.91-2.50 73.08-2.50L73.08-2.50Q76.00-2.50 77.51-0.77Q79.02 0.95 79.02 4.25L79.02 4.25Q79.02 4.59 79.01 4.95Q78.99 5.32 78.96 5.54L78.96 5.54L70.42 5.54Q70.42 6.83 71.49 7.57Q72.55 8.31 74.23 8.31L74.23 8.31Q75.27 8.31 76.21 8.09Q77.14 7.86 77.79 7.64L77.79 7.64L78.26 10.58Q77.37 10.89 76.36 11.10Q75.35 11.31 74.09 11.31L74.09 11.31Q72.41 11.31 71.08 10.87Q69.75 10.44 68.81 9.59Q67.88 8.73 67.37 7.47Q66.87 6.21 66.87 4.53ZM70.42 3.16L75.69 3.16Q75.69 2.63 75.55 2.14Q75.41 1.65 75.10 1.26Q74.79 0.86 74.32 0.63Q73.84 0.39 73.14 0.39L73.14 0.39Q72.47 0.39 71.98 0.61Q71.49 0.84 71.17 1.23Q70.84 1.62 70.66 2.12Q70.48 2.63 70.42 3.16L70.42 3.16ZM89.60-2.30L89.60-2.30Q90.70-2.30 91.40-1.96Q92.10-1.63 92.50-0.96Q92.91-0.28 93.05 0.74Q93.19 1.76 93.19 3.13L93.19 3.13L93.19 11L90.39 11L90.39 2.96Q90.39 2.18 90.29 1.70Q90.19 1.23 90.04 0.98Q89.88 0.72 89.67 0.64Q89.46 0.56 89.24 0.56L89.24 0.56Q88.99 0.56 88.71 0.60Q88.43 0.64 88.20 0.75L88.20 0.75Q88.29 1.28 88.34 1.93Q88.40 2.57 88.40 3.36L88.40 3.36L88.40 5.99L85.60 5.99L85.60 2.96Q85.60 1.62 85.33 1.09Q85.07 0.56 84.48 0.56L84.48 0.56Q84.31 0.56 84.07 0.58Q83.84 0.61 83.61 0.67L83.61 0.67L83.61 11L80.81 11L80.81-1.66Q81.90-1.96 82.97-2.13Q84.03-2.30 84.84-2.30L84.84-2.30Q85.57-2.30 86.15-2.12Q86.72-1.94 87.14-1.52L87.14-1.52Q87.62-1.82 88.26-2.06Q88.90-2.30 89.60-2.30ZM101.03 8.54L101.03 8.54Q101.59 8.54 102.12 8.52Q102.65 8.51 103.04 8.45L103.04 8.45L103.04 5.43Q102.71 5.37 102.23 5.33Q101.76 5.29 101.36 5.29L101.36 5.29Q100.83 5.29 100.33 5.36Q99.82 5.43 99.45 5.60Q99.07 5.76 98.84 6.07Q98.62 6.38 98.62 6.88L98.62 6.88Q98.62 7.78 99.29 8.16Q99.96 8.54 101.03 8.54ZM100.72-2.50L100.72-2.50Q102.34-2.50 103.42-2.12Q104.50-1.74 105.14-1.05Q105.79-0.37 106.07 0.63Q106.35 1.62 106.35 2.85L106.35 2.85L106.35 10.69Q105.59 10.86 104.11 11.08Q102.62 11.31 100.78 11.31L100.78 11.31Q99.52 11.31 98.49 11.08Q97.47 10.86 96.74 10.34Q96.02 9.82 95.62 9.00Q95.23 8.17 95.23 6.97L95.23 6.97Q95.23 5.82 95.68 5.04Q96.13 4.25 96.88 3.78Q97.64 3.30 98.62 3.09Q99.60 2.88 100.66 2.88L100.66 2.88Q102.01 2.88 103.04 3.10L103.04 3.10L103.04 2.68Q103.04 1.70 102.43 1.05Q101.81 0.39 100.30 0.39L100.30 0.39Q99.32 0.39 98.41 0.53Q97.50 0.67 96.94 0.86L96.94 0.86L96.46-1.91Q97.11-2.13 98.28-2.31Q99.46-2.50 100.72-2.50ZM112.00 6.10L112.00 0.70L109.01 0.70L109.01-2.16L112.00-2.16L112.00-5.46L115.45-6.02L115.45-2.16L120.96-2.16L120.96 0.70L115.45 0.70L115.45 6.02Q115.45 6.74 115.59 7.19Q115.73 7.64 115.98 7.89Q116.23 8.14 116.60 8.23Q116.96 8.31 117.41 8.31L117.41 8.31Q117.88 8.31 118.29 8.28Q118.70 8.26 119.07 8.19Q119.45 8.12 119.86 7.98Q120.26 7.84 120.74 7.61L120.74 7.61L121.22 10.58Q120.26 10.97 119.16 11.14Q118.05 11.31 117.02 11.31L117.02 11.31Q115.81 11.31 114.89 11.11Q113.96 10.92 113.32 10.36Q112.68 9.80 112.34 8.77Q112.00 7.75 112.00 6.10L112.00 6.10ZM129.95-5.94L129.95-5.94Q129.95-4.93 129.31-4.34Q128.66-3.76 127.77-3.76L127.77-3.76Q126.87-3.76 126.24-4.34Q125.61-4.93 125.61-5.94L125.61-5.94Q125.61-6.98 126.24-7.56Q126.87-8.15 127.77-8.15L127.77-8.15Q128.66-8.15 129.31-7.56Q129.95-6.98 129.95-5.94ZM134.63 7.67L135.08 10.44Q134.01 10.94 133.07 11.13Q132.14 11.31 131.35 11.31L131.35 11.31Q130.01 11.31 129.10 10.92Q128.19 10.52 127.64 9.78Q127.10 9.04 126.87 7.98Q126.65 6.91 126.65 5.54L126.65 5.54L126.65 0.70L123.01 0.70L123.01-2.16L130.09-2.16L130.09 5.99Q130.09 7.16 130.53 7.74Q130.96 8.31 131.97 8.31L131.97 8.31Q132.44 8.31 133.12 8.19Q133.79 8.06 134.63 7.67L134.63 7.67ZM137.23 4.42L137.23 4.42Q137.23 2.99 137.68 1.73Q138.13 0.47 139.05-0.47Q139.98-1.40 141.39-1.95Q142.80-2.50 144.76-2.50L144.76-2.50Q145.94-2.50 146.89-2.33Q147.84-2.16 148.82-1.77L148.82-1.77L148.07 1.00Q147.51 0.81 146.82 0.65Q146.14 0.50 145.07 0.50L145.07 0.50Q143.84 0.50 143.01 0.79Q142.19 1.09 141.68 1.61Q141.18 2.12 140.96 2.85Q140.73 3.58 140.73 4.42L140.73 4.42Q140.73 6.24 141.75 7.28Q142.78 8.31 145.24 8.31L145.24 8.31Q146.05 8.31 146.93 8.20Q147.82 8.09 148.54 7.84L148.54 7.84L149.05 10.66Q148.32 10.94 147.28 11.13Q146.25 11.31 144.85 11.31L144.85 11.31Q142.83 11.31 141.39 10.78Q139.95 10.24 139.02 9.32Q138.10 8.40 137.67 7.14Q137.23 5.88 137.23 4.42ZM157.03 8.54L157.03 8.54Q157.59 8.54 158.12 8.52Q158.65 8.51 159.04 8.45L159.04 8.45L159.04 5.43Q158.71 5.37 158.23 5.33Q157.76 5.29 157.36 5.29L157.36 5.29Q156.83 5.29 156.33 5.36Q155.82 5.43 155.45 5.60Q155.07 5.76 154.84 6.07Q154.62 6.38 154.62 6.88L154.62 6.88Q154.62 7.78 155.29 8.16Q155.96 8.54 157.03 8.54ZM156.72-2.50L156.72-2.50Q158.34-2.50 159.42-2.12Q160.50-1.74 161.14-1.05Q161.79-0.37 162.07 0.63Q162.35 1.62 162.35 2.85L162.35 2.85L162.35 10.69Q161.59 10.86 160.11 11.08Q158.62 11.31 156.78 11.31L156.78 11.31Q155.52 11.31 154.49 11.08Q153.47 10.86 152.74 10.34Q152.02 9.82 151.62 9.00Q151.23 8.17 151.23 6.97L151.23 6.97Q151.23 5.82 151.68 5.04Q152.13 4.25 152.88 3.78Q153.64 3.30 154.62 3.09Q155.60 2.88 156.66 2.88L156.66 2.88Q158.01 2.88 159.04 3.10L159.04 3.10L159.04 2.68Q159.04 1.70 158.43 1.05Q157.81 0.39 156.30 0.39L156.30 0.39Q155.32 0.39 154.41 0.53Q153.50 0.67 152.94 0.86L152.94 0.86L152.46-1.91Q153.11-2.13 154.28-2.31Q155.46-2.50 156.72-2.50Z"/>
    </g>
</svg>