<?xml version="1.0" encoding="UTF-8"?>
<svg height="34" width="219.4" version="1.1" xmlns="http://www.w3.org/2000/svg">
    <rect
        height="32"
        width="217.4"
        rx="1"
        ry="1"
        x="1"
        y="1"
        fill="#ed2cd6"
        stroke="#750a69"
        stroke-width="1"
         />
    <g transform="translate(0, 14)">
        <path fill="#750a69" d="M18.29 11.36L18.29 11.36Q14.62 11.36 12.69 9.01Q10.76 6.66 10.76 2.32L10.76 2.32Q10.76 0.16 11.34-1.52Q11.93-3.20 12.98-4.36Q14.03-5.52 15.47-6.12Q16.92-6.72 18.62-6.72L18.62-6.72Q19.55-6.72 20.29-6.57Q21.03-6.42 21.59-6.22Q22.15-6.02 22.53-5.80Q22.91-5.58 23.10-5.46L23.10-5.46L22.21-2.72Q21.56-3.14 20.65-3.43Q19.74-3.73 18.57-3.73L18.57-3.73Q17.76-3.73 16.99-3.43Q16.22-3.14 15.61-2.45Q15.01-1.77 14.63-0.62Q14.26 0.53 14.26 2.24L14.26 2.24Q14.26 5.20 15.28 6.79Q16.30 8.37 18.62 8.37L18.62 8.37Q19.97 8.37 20.85 8.06Q21.73 7.75 22.26 7.44L22.26 7.44L23.13 10.16Q22.40 10.61 21.16 10.99Q19.91 11.36 18.29 11.36ZM37.22 4.39L37.22 4.39Q37.22 5.96 36.77 7.23Q36.32 8.51 35.51 9.43Q34.70 10.36 33.56 10.86Q32.43 11.36 31.03 11.36L31.03 11.36Q29.63 11.36 28.49 10.86Q27.36 10.36 26.53 9.43Q25.71 8.51 25.26 7.23Q24.81 5.96 24.81 4.39L24.81 4.39Q24.81 2.85 25.27 1.58Q25.74 0.30 26.56-0.61Q27.39-1.52 28.54-2.01Q29.68-2.50 31.03-2.50L31.03-2.50Q32.40-2.50 33.53-2.01Q34.67-1.52 35.49-0.61Q36.32 0.30 36.77 1.58Q37.22 2.85 37.22 4.39ZM28.31 4.42L28.31 4.42Q28.31 6.18 28.94 7.28Q29.57 8.37 30.97 8.37L30.97 8.37Q32.32 8.37 33.00 7.28Q33.69 6.18 33.69 4.42L33.69 4.42Q33.69 2.66 33.06 1.58Q32.43 0.50 31.03 0.50L31.03 0.50Q29.68 0.50 29.00 1.58Q28.31 2.66 28.31 4.42ZM50.63 7.67L51.08 10.44Q50.99 10.50 50.70 10.64Q50.40 10.78 49.93 10.93Q49.45 11.08 48.77 11.20Q48.08 11.31 47.21 11.31L47.21 11.31Q44.83 11.31 43.74 9.89Q42.65 8.48 42.65 5.76L42.65 5.76L42.65-5.41L39.01-5.41L39.01-8.26L46.09-8.26L46.09 6.02Q46.09 7.36 46.62 7.84Q47.16 8.31 47.97 8.31L47.97 8.31Q49.00 8.31 49.70 8.03Q50.40 7.75 50.63 7.67L50.63 7.67ZM56.28 4.34L56.28 4.34Q56.28 6.10 56.94 7.22Q57.60 8.34 59.06 8.34L59.06 8.34Q59.48 8.34 59.84 8.31Q60.20 8.28 60.60 8.23L60.60 8.23L60.60 1.06Q60.20 0.84 59.70 0.68Q59.20 0.53 58.64 0.53L58.64 0.53Q57.40 0.53 56.84 1.51Q56.28 2.49 56.28 4.34ZM64.04-8.43L64.04 10.61Q63.09 10.92 61.72 11.11Q60.34 11.31 59.03 11.31L59.03 11.31Q55.95 11.31 54.37 9.49Q52.78 7.67 52.78 4.50L52.78 4.50Q52.78 1.28 54.11-0.58Q55.44-2.44 58.05-2.44L58.05-2.44Q58.75-2.44 59.42-2.29Q60.09-2.13 60.60-1.85L60.60-1.85L60.60-7.84L64.04-8.43ZM71.21 11L67.76 11L67.76-6.33L78.38-6.33L78.38-3.48L71.21-3.48L71.21 0.72L77.48 0.72L77.48 3.58L71.21 3.58L71.21 11ZM92.26-2.16L92.26 10.55Q91.31 10.80 89.95 11.06Q88.60 11.31 87 11.31L87 11.31Q85.38 11.31 84.34 10.86Q83.30 10.41 82.70 9.59Q82.10 8.76 81.88 7.64Q81.65 6.52 81.65 5.18L81.65 5.18L81.65-2.16L85.10-2.16L85.10 4.73Q85.10 6.55 85.53 7.43Q85.96 8.31 87.22 8.31L87.22 8.31Q88.01 8.31 88.79 8.17L88.79 8.17L88.79-2.16L92.26-2.16ZM100.38 8.40L100.38 8.40Q101.64 8.40 102.32 8.21Q102.99 8.03 102.99 7.47L102.99 7.47Q102.99 7.11 102.78 6.86Q102.57 6.60 102.19 6.42Q101.81 6.24 101.32 6.07Q100.83 5.90 100.30 5.74L100.30 5.74Q99.54 5.51 98.76 5.22Q97.98 4.92 97.33 4.48Q96.69 4.03 96.27 3.34Q95.85 2.66 95.85 1.62L95.85 1.62Q95.85 0.78 96.17 0.04Q96.49-0.70 97.18-1.28Q97.86-1.85 98.93-2.17Q99.99-2.50 101.48-2.50L101.48-2.50Q102.76-2.50 103.87-2.30Q104.98-2.10 105.79-1.74L105.79-1.74L105.26 1.17Q104.78 1.03 103.77 0.71Q102.76 0.39 101.50 0.39L101.50 0.39Q100.19 0.39 99.73 0.71Q99.26 1.03 99.26 1.40L99.26 1.40Q99.26 1.70 99.47 1.94Q99.68 2.18 100.03 2.38Q100.38 2.57 100.85 2.75Q101.31 2.94 101.84 3.10L101.84 3.10Q102.60 3.36 103.41 3.66Q104.22 3.97 104.88 4.43Q105.54 4.90 105.96 5.61Q106.38 6.32 106.38 7.36L106.38 7.36Q106.38 8.17 106.07 8.90Q105.76 9.63 105.05 10.16Q104.33 10.69 103.18 11Q102.04 11.31 100.36 11.31L100.36 11.31Q98.65 11.31 97.44 10.92Q96.24 10.52 95.51 10.22L95.51 10.22L96.04 7.33Q97.02 7.72 98.13 8.06Q99.24 8.40 100.38 8.40ZM115.95-5.94L115.95-5.94Q115.95-4.93 115.31-4.34Q114.66-3.76 113.77-3.76L113.77-3.76Q112.87-3.76 112.24-4.34Q111.61-4.93 111.61-5.94L111.61-5.94Q111.61-6.98 112.24-7.56Q112.87-8.15 113.77-8.15L113.77-8.15Q114.66-8.15 115.31-7.56Q115.95-6.98 115.95-5.94ZM120.63 7.67L121.08 10.44Q120.01 10.94 119.07 11.13Q118.14 11.31 117.35 11.31L117.35 11.31Q116.01 11.31 115.10 10.92Q114.19 10.52 113.64 9.78Q113.10 9.04 112.87 7.98Q112.65 6.91 112.65 5.54L112.65 5.54L112.65 0.70L109.01 0.70L109.01-2.16L116.09-2.16L116.09 5.99Q116.09 7.16 116.53 7.74Q116.96 8.31 117.97 8.31L117.97 8.31Q118.44 8.31 119.12 8.19Q119.79 8.06 120.63 7.67L120.63 7.67ZM135.22 4.39L135.22 4.39Q135.22 5.96 134.77 7.23Q134.32 8.51 133.51 9.43Q132.70 10.36 131.56 10.86Q130.43 11.36 129.03 11.36L129.03 11.36Q127.63 11.36 126.49 10.86Q125.36 10.36 124.53 9.43Q123.71 8.51 123.26 7.23Q122.81 5.96 122.81 4.39L122.81 4.39Q122.81 2.85 123.27 1.58Q123.74 0.30 124.56-0.61Q125.39-1.52 126.54-2.01Q127.68-2.50 129.03-2.50L129.03-2.50Q130.40-2.50 131.53-2.01Q132.67-1.52 133.49-0.61Q134.32 0.30 134.77 1.58Q135.22 2.85 135.22 4.39ZM126.31 4.42L126.31 4.42Q126.31 6.18 126.94 7.28Q127.57 8.37 128.97 8.37L128.97 8.37Q130.32 8.37 131.00 7.28Q131.69 6.18 131.69 4.42L131.69 4.42Q131.69 2.66 131.06 1.58Q130.43 0.50 129.03 0.50L129.03 0.50Q127.68 0.50 127.00 1.58Q126.31 2.66 126.31 4.42ZM137.76 11L137.76-1.74Q138.69-1.99 140.05-2.22Q141.40-2.44 143-2.44L143-2.44Q144.57-2.44 145.60-2.01Q146.64-1.57 147.24-0.77Q147.84 0.02 148.10 1.13Q148.35 2.24 148.35 3.58L148.35 3.58L148.35 11L144.90 11L144.90 4.03Q144.90 2.18 144.48 1.37Q144.06 0.56 142.78 0.56L142.78 0.56Q142.38 0.56 142.01 0.58Q141.63 0.61 141.21 0.67L141.21 0.67L141.21 11L137.76 11ZM172.29 11.36L172.29 11.36Q168.62 11.36 166.69 9.01Q164.76 6.66 164.76 2.32L164.76 2.32Q164.76 0.16 165.34-1.52Q165.93-3.20 166.98-4.36Q168.03-5.52 169.47-6.12Q170.92-6.72 172.62-6.72L172.62-6.72Q173.55-6.72 174.29-6.57Q175.03-6.42 175.59-6.22Q176.15-6.02 176.53-5.80Q176.91-5.58 177.10-5.46L177.10-5.46L176.21-2.72Q175.56-3.14 174.65-3.43Q173.74-3.73 172.57-3.73L172.57-3.73Q171.76-3.73 170.99-3.43Q170.22-3.14 169.61-2.45Q169.01-1.77 168.63-0.62Q168.26 0.53 168.26 2.24L168.26 2.24Q168.26 5.20 169.28 6.79Q170.30 8.37 172.62 8.37L172.62 8.37Q173.97 8.37 174.85 8.06Q175.73 7.75 176.26 7.44L176.26 7.44L177.13 10.16Q176.40 10.61 175.16 10.99Q173.91 11.36 172.29 11.36ZM183.21 11L179.76 11L179.76-6.33L190.38-6.33L190.38-3.48L183.21-3.48L183.21 0.72L189.48 0.72L189.48 3.58L183.21 3.58L183.21 11ZM200.29 11.36L200.29 11.36Q196.62 11.36 194.69 9.01Q192.76 6.66 192.76 2.32L192.76 2.32Q192.76 0.16 193.34-1.52Q193.93-3.20 194.98-4.36Q196.03-5.52 197.47-6.12Q198.92-6.72 200.62-6.72L200.62-6.72Q201.55-6.72 202.29-6.57Q203.03-6.42 203.59-6.22Q204.15-6.02 204.53-5.80Q204.91-5.58 205.10-5.46L205.10-5.46L204.21-2.72Q203.56-3.14 202.65-3.43Q201.74-3.73 200.57-3.73L200.57-3.73Q199.76-3.73 198.99-3.43Q198.22-3.14 197.61-2.45Q197.01-1.77 196.63-0.62Q196.26 0.53 196.26 2.24L196.26 2.24Q196.26 5.20 197.28 6.79Q198.30 8.37 200.62 8.37L200.62 8.37Q201.97 8.37 202.85 8.06Q203.73 7.75 204.26 7.44L204.26 7.44L205.13 10.16Q204.40 10.61 203.16 10.99Q201.91 11.36 200.29 11.36Z"/>
    </g>
</svg>