<?xml version="1.0" encoding="UTF-8"?>
<svg height="26" width="98.69999999999999" version="1.1" xmlns="http://www.w3.org/2000/svg"><!--Created by Josélio de S. C. Júnior - 2021 - https://github.com/joseliojunior -->
    <rect
        height="24"
        width="96.69999999999999"
        rx="12"
        ry="12"
        x="1" y="1"
        fill="#0e60e3"
        stroke="#052251"
        stroke-width="1" />
    <g transform="translate(0, 8)">
        <path fill="#052251" d="M25.31 0.10L27.28 0.10L27.28 10L25.31 10L25.31 5.63L22.69 5.63L22.69 10L20.72 10L20.72 0.10L22.69 0.10L22.69 4L25.31 4L25.31 0.10ZM32.02 8.59L32.02 8.59Q32.34 8.59 32.64 8.58Q32.94 8.58 33.17 8.54L33.17 8.54L33.17 6.82Q32.98 6.78 32.70 6.76Q32.43 6.74 32.21 6.74L32.21 6.74Q31.90 6.74 31.62 6.78Q31.33 6.82 31.11 6.91Q30.90 7.01 30.77 7.18Q30.64 7.36 30.64 7.65L30.64 7.65Q30.64 8.16 31.02 8.38Q31.41 8.59 32.02 8.59ZM31.84 2.29L31.84 2.29Q32.77 2.29 33.38 2.50Q34 2.72 34.37 3.11Q34.74 3.50 34.90 4.07Q35.06 4.64 35.06 5.34L35.06 5.34L35.06 9.82Q34.62 9.92 33.78 10.05Q32.93 10.18 31.87 10.18L31.87 10.18Q31.15 10.18 30.57 10.05Q29.98 9.92 29.57 9.62Q29.15 9.33 28.93 8.86Q28.70 8.38 28.70 7.70L28.70 7.70Q28.70 7.04 28.96 6.59Q29.22 6.14 29.65 5.87Q30.08 5.60 30.64 5.48Q31.20 5.36 31.81 5.36L31.81 5.36Q32.58 5.36 33.17 5.49L33.17 5.49L33.17 5.25Q33.17 4.69 32.82 4.31Q32.46 3.94 31.60 3.94L31.60 3.94Q31.04 3.94 30.52 4.02Q30 4.10 29.68 4.21L29.68 4.21L29.41 2.62Q29.78 2.50 30.45 2.39Q31.12 2.29 31.84 2.29ZM43.34 2.66L42.99 4.48Q42.80 4.43 42.54 4.38Q42.27 4.34 42 4.30Q41.73 4.26 41.47 4.24Q41.22 4.22 41.04 4.22L41.04 4.22Q40.62 4.22 40.22 4.26Q39.82 4.30 39.41 4.42L39.41 4.42L39.41 10L37.42 10L37.42 2.98Q38.21 2.69 39.03 2.51Q39.86 2.34 40.96 2.34L40.96 2.34Q41.12 2.34 41.42 2.35Q41.71 2.37 42.05 2.41Q42.38 2.45 42.73 2.50Q43.07 2.56 43.34 2.66L43.34 2.66ZM49.52 6.19L49.52 6.19Q49.52 5.14 49.18 4.58Q48.83 4.02 48.13 4.02L48.13 4.02Q47.81 4.02 47.50 4.10Q47.18 4.19 46.96 4.32L46.96 4.32L46.96 8.40Q47.18 8.45 47.43 8.46Q47.68 8.48 47.86 8.48L47.86 8.48Q48.62 8.48 49.07 7.96Q49.52 7.44 49.52 6.19ZM51.52 6.24L51.52 6.24Q51.52 7.14 51.28 7.86Q51.04 8.59 50.58 9.10Q50.11 9.62 49.44 9.90Q48.77 10.18 47.90 10.18L47.90 10.18Q47.14 10.18 46.34 10.06Q45.54 9.95 44.99 9.78L44.99 9.78L44.99-0.77L46.96-1.10L46.96 2.66Q47.38 2.46 47.76 2.39Q48.14 2.32 48.53 2.32L48.53 2.32Q49.26 2.32 49.82 2.60Q50.38 2.88 50.76 3.40Q51.14 3.92 51.33 4.64Q51.52 5.36 51.52 6.24ZM59.55 6.22L59.55 6.22Q59.55 7.12 59.30 7.85Q59.04 8.58 58.58 9.10Q58.11 9.63 57.46 9.92Q56.82 10.21 56.02 10.21L56.02 10.21Q55.22 10.21 54.57 9.92Q53.92 9.63 53.45 9.10Q52.98 8.58 52.72 7.85Q52.46 7.12 52.46 6.22L52.46 6.22Q52.46 5.34 52.73 4.62Q52.99 3.89 53.46 3.37Q53.94 2.85 54.59 2.57Q55.25 2.29 56.02 2.29L56.02 2.29Q56.80 2.29 57.45 2.57Q58.10 2.85 58.57 3.37Q59.04 3.89 59.30 4.62Q59.55 5.34 59.55 6.22ZM54.46 6.24L54.46 6.24Q54.46 7.25 54.82 7.87Q55.18 8.50 55.98 8.50L55.98 8.50Q56.75 8.50 57.14 7.87Q57.54 7.25 57.54 6.24L57.54 6.24Q57.54 5.23 57.18 4.62Q56.82 4 56.02 4L56.02 4Q55.25 4 54.86 4.62Q54.46 5.23 54.46 6.24ZM67.01 2.48L67.01 9.74Q66.46 9.89 65.69 10.03Q64.91 10.18 64 10.18L64 10.18Q63.07 10.18 62.48 9.92Q61.89 9.66 61.54 9.19Q61.20 8.72 61.07 8.08Q60.94 7.44 60.94 6.67L60.94 6.67L60.94 2.48L62.91 2.48L62.91 6.42Q62.91 7.46 63.16 7.96Q63.41 8.46 64.13 8.46L64.13 8.46Q64.58 8.46 65.02 8.38L65.02 8.38L65.02 2.48L67.01 2.48ZM75.34 2.66L74.99 4.48Q74.80 4.43 74.54 4.38Q74.27 4.34 74 4.30Q73.73 4.26 73.47 4.24Q73.22 4.22 73.04 4.22L73.04 4.22Q72.62 4.22 72.22 4.26Q71.82 4.30 71.41 4.42L71.41 4.42L71.41 10L69.42 10L69.42 2.98Q70.21 2.69 71.03 2.51Q71.86 2.34 72.96 2.34L72.96 2.34Q73.12 2.34 73.42 2.35Q73.71 2.37 74.05 2.41Q74.38 2.45 74.73 2.50Q75.07 2.56 75.34 2.66L75.34 2.66Z"/>
    </g>
</svg>