<?xml version="1.0" encoding="UTF-8"?>
<svg height="34" width="126.7" version="1.1" xmlns="http://www.w3.org/2000/svg">
    <rect
        height="32"
        width="124.7"
        rx="1"
        ry="1"
        x="1"
        y="1"
        fill="#0e60e3"
        stroke="#052251"
        stroke-width="1"
         />
    <g transform="translate(0, 12)">
        <path fill="#052251" d="M27.97-2.86L30.92-2.86L30.92 12L27.97 12L27.97 5.45L24.03 5.45L24.03 12L21.08 12L21.08-2.86L24.03-2.86L24.03 3L27.97 3L27.97-2.86ZM38.02 9.89L38.02 9.89Q38.50 9.89 38.96 9.88Q39.42 9.86 39.75 9.82L39.75 9.82L39.75 7.22Q39.46 7.18 39.06 7.14Q38.65 7.10 38.31 7.10L38.31 7.10Q37.86 7.10 37.42 7.16Q36.99 7.22 36.67 7.37Q36.34 7.51 36.15 7.78Q35.96 8.04 35.96 8.47L35.96 8.47Q35.96 9.24 36.54 9.56Q37.11 9.89 38.02 9.89ZM37.76 0.43L37.76 0.43Q39.15 0.43 40.08 0.76Q41 1.08 41.55 1.67Q42.10 2.26 42.34 3.11Q42.58 3.96 42.58 5.02L42.58 5.02L42.58 11.74Q41.94 11.88 40.66 12.07Q39.39 12.26 37.81 12.26L37.81 12.26Q36.73 12.26 35.85 12.07Q34.98 11.88 34.35 11.44Q33.73 10.99 33.39 10.28Q33.06 9.58 33.06 8.54L33.06 8.54Q33.06 7.56 33.44 6.89Q33.82 6.22 34.47 5.81Q35.12 5.40 35.96 5.22Q36.80 5.04 37.71 5.04L37.71 5.04Q38.86 5.04 39.75 5.23L39.75 5.23L39.75 4.87Q39.75 4.03 39.22 3.47Q38.70 2.90 37.40 2.90L37.40 2.90Q36.56 2.90 35.78 3.02Q35 3.14 34.52 3.31L34.52 3.31L34.11 0.94Q34.66 0.74 35.67 0.59Q36.68 0.43 37.76 0.43ZM55.02 0.98L54.49 3.72Q54.20 3.65 53.80 3.58Q53.41 3.50 53 3.44Q52.59 3.38 52.21 3.36Q51.82 3.34 51.56 3.34L51.56 3.34Q50.94 3.34 50.34 3.40Q49.74 3.46 49.11 3.62L49.11 3.62L49.11 12L46.14 12L46.14 1.46Q47.31 1.03 48.55 0.77Q49.78 0.50 51.44 0.50L51.44 0.50Q51.68 0.50 52.12 0.53Q52.57 0.55 53.07 0.61Q53.58 0.67 54.09 0.76Q54.61 0.84 55.02 0.98L55.02 0.98ZM64.28 6.29L64.28 6.29Q64.28 4.70 63.76 3.86Q63.25 3.02 62.19 3.02L62.19 3.02Q61.71 3.02 61.24 3.16Q60.78 3.29 60.44 3.48L60.44 3.48L60.44 9.60Q60.78 9.67 61.15 9.70Q61.52 9.72 61.78 9.72L61.78 9.72Q62.94 9.72 63.61 8.94Q64.28 8.16 64.28 6.29ZM67.28 6.36L67.28 6.36Q67.28 7.70 66.92 8.80Q66.56 9.89 65.86 10.66Q65.17 11.42 64.16 11.84Q63.15 12.26 61.86 12.26L61.86 12.26Q60.70 12.26 59.50 12.10Q58.30 11.93 57.49 11.66L57.49 11.66L57.49-4.15L60.44-4.66L60.44 0.98Q61.06 0.70 61.64 0.59Q62.22 0.48 62.79 0.48L62.79 0.48Q63.90 0.48 64.74 0.90Q65.58 1.32 66.14 2.10Q66.70 2.88 66.99 3.96Q67.28 5.04 67.28 6.36ZM79.33 6.34L79.33 6.34Q79.33 7.68 78.94 8.77Q78.56 9.86 77.86 10.66Q77.17 11.45 76.20 11.88Q75.22 12.31 74.02 12.31L74.02 12.31Q72.82 12.31 71.85 11.88Q70.88 11.45 70.17 10.66Q69.46 9.86 69.08 8.77Q68.70 7.68 68.70 6.34L68.70 6.34Q68.70 5.02 69.09 3.92Q69.49 2.83 70.20 2.05Q70.90 1.27 71.89 0.85Q72.87 0.43 74.02 0.43L74.02 0.43Q75.20 0.43 76.17 0.85Q77.14 1.27 77.85 2.05Q78.56 2.83 78.94 3.92Q79.33 5.02 79.33 6.34ZM71.70 6.36L71.70 6.36Q71.70 7.87 72.24 8.81Q72.78 9.74 73.98 9.74L73.98 9.74Q75.13 9.74 75.72 8.81Q76.30 7.87 76.30 6.36L76.30 6.36Q76.30 4.85 75.76 3.92Q75.22 3 74.02 3L74.02 3Q72.87 3 72.28 3.92Q71.70 4.85 71.70 6.36ZM90.51 0.72L90.51 11.62Q89.70 11.83 88.53 12.05Q87.37 12.26 86 12.26L86 12.26Q84.61 12.26 83.72 11.88Q82.83 11.50 82.32 10.79Q81.80 10.08 81.61 9.12Q81.42 8.16 81.42 7.01L81.42 7.01L81.42 0.72L84.37 0.72L84.37 6.62Q84.37 8.18 84.74 8.94Q85.11 9.70 86.19 9.70L86.19 9.70Q86.86 9.70 87.54 9.58L87.54 9.58L87.54 0.72L90.51 0.72ZM103.02 0.98L102.49 3.72Q102.20 3.65 101.80 3.58Q101.41 3.50 101 3.44Q100.59 3.38 100.21 3.36Q99.82 3.34 99.56 3.34L99.56 3.34Q98.94 3.34 98.34 3.40Q97.74 3.46 97.11 3.62L97.11 3.62L97.11 12L94.14 12L94.14 1.46Q95.31 1.03 96.55 0.77Q97.78 0.50 99.44 0.50L99.44 0.50Q99.68 0.50 100.12 0.53Q100.57 0.55 101.07 0.61Q101.58 0.67 102.09 0.76Q102.61 0.84 103.02 0.98L103.02 0.98Z"/>
    </g>
</svg>