<?xml version="1.0" encoding="UTF-8"?><svg height="34" width="102.5" version="1.1" xmlns="http://www.w3.org/2000/svg"><!--Created by Josélio de S. C. Júnior - 2021 - https://github.com/joseliojunior --><rect height="32" width="100.5" rx="1" ry="1" x="1" y="1" fill="#d67711" stroke="#472706" stroke-width="1" /><g transform="translate(0, 12)"><path fill="#472706" d="M30.68-2.86L30.68-0.79Q29.65 0.79 28.78 2.18Q27.92 3.58 27.18 4.84Q26.43 6.10 25.77 7.26Q25.11 8.42 24.51 9.55L24.51 9.55L30.90 9.55L30.90 12L21.10 12L21.10 10.30Q21.63 9.26 22.23 8.12Q22.83 6.98 23.58 5.69Q24.32 4.39 25.20 2.88Q26.07 1.37 27.13-0.41L27.13-0.41L21.42-0.41L21.42-2.86L30.68-2.86ZM38.82-2.52L38.82-2.52Q38.82-1.66 38.26-1.15Q37.71-0.65 36.94-0.65L36.94-0.65Q36.18-0.65 35.64-1.15Q35.10-1.66 35.10-2.52L35.10-2.52Q35.10-3.41 35.64-3.91Q36.18-4.42 36.94-4.42L36.94-4.42Q37.71-4.42 38.26-3.91Q38.82-3.41 38.82-2.52ZM42.82 9.14L43.21 11.52Q42.30 11.95 41.49 12.11Q40.69 12.26 40.02 12.26L40.02 12.26Q38.86 12.26 38.08 11.93Q37.30 11.59 36.84 10.96Q36.37 10.32 36.18 9.41Q35.98 8.50 35.98 7.32L35.98 7.32L35.98 3.17L32.86 3.17L32.86 0.72L38.94 0.72L38.94 7.70Q38.94 8.71 39.31 9.20Q39.68 9.70 40.54 9.70L40.54 9.70Q40.95 9.70 41.53 9.59Q42.10 9.48 42.82 9.14L42.82 9.14ZM52.23 0.60L52.23 0.60Q53.17 0.60 53.77 0.89Q54.37 1.18 54.72 1.75Q55.06 2.33 55.18 3.20Q55.30 4.08 55.30 5.26L55.30 5.26L55.30 12L52.90 12L52.90 5.11Q52.90 4.44 52.82 4.03Q52.74 3.62 52.60 3.41Q52.47 3.19 52.29 3.12Q52.11 3.05 51.92 3.05L51.92 3.05Q51.70 3.05 51.46 3.08Q51.22 3.12 51.03 3.22L51.03 3.22Q51.10 3.67 51.15 4.22Q51.20 4.78 51.20 5.45L51.20 5.45L51.20 7.70L48.80 7.70L48.80 5.11Q48.80 3.96 48.57 3.50Q48.34 3.05 47.84 3.05L47.84 3.05Q47.70 3.05 47.49 3.07Q47.29 3.10 47.10 3.14L47.10 3.14L47.10 12L44.70 12L44.70 1.15Q45.63 0.89 46.54 0.74Q47.46 0.60 48.15 0.60L48.15 0.60Q48.78 0.60 49.27 0.76Q49.76 0.91 50.12 1.27L50.12 1.27Q50.53 1.01 51.08 0.80Q51.63 0.60 52.23 0.60ZM64.26 6.46L64.26 6.46Q64.26 4.94 63.66 3.97Q63.06 3 61.83 3L61.83 3Q61.50 3 61.11 3.04Q60.73 3.07 60.46 3.10L60.46 3.10L60.46 9.29Q60.75 9.48 61.23 9.60Q61.71 9.72 62.19 9.72L62.19 9.72Q63.25 9.72 63.75 8.87Q64.26 8.02 64.26 6.46ZM67.26 6.36L67.26 6.36Q67.26 7.66 66.97 8.75Q66.68 9.84 66.13 10.62Q65.58 11.40 64.74 11.83Q63.90 12.26 62.79 12.26L62.79 12.26Q61.66 12.26 60.46 11.71L60.46 11.71L60.46 15.96L57.51 15.96L57.51 1.08Q58.33 0.82 59.52 0.65Q60.70 0.48 61.86 0.48L61.86 0.48Q64.47 0.48 65.86 2.06Q67.26 3.65 67.26 6.36ZM78.82 9.14L79.21 11.52Q79.14 11.57 78.88 11.69Q78.63 11.81 78.22 11.94Q77.82 12.07 77.23 12.17Q76.64 12.26 75.90 12.26L75.90 12.26Q73.86 12.26 72.92 11.05Q71.98 9.84 71.98 7.51L71.98 7.51L71.98-2.06L68.86-2.06L68.86-4.51L74.94-4.51L74.94 7.73Q74.94 8.88 75.39 9.29Q75.85 9.70 76.54 9.70L76.54 9.70Q77.43 9.70 78.03 9.46Q78.63 9.22 78.82 9.14L78.82 9.14Z"/></g></svg>