<?xml version="1.0" encoding="UTF-8"?>
<svg height="34" width="247.6" version="1.1" xmlns="http://www.w3.org/2000/svg">
    <rect
        height="32"
        width="245.6"
        rx="1"
        ry="1"
        x="1"
        y="1"
        fill="#DA5B0B"
        stroke="#491e04"
        stroke-width="1"
         />
    <g transform="translate(0, 14)">
        <path fill="#491e04" d="M22.26-6.33L22.26 5.20Q22.26 6.46 21.94 7.58Q21.62 8.70 20.88 9.54Q20.14 10.38 18.96 10.87Q17.78 11.36 16.10 11.36L16.10 11.36Q14.34 11.36 13.16 10.92Q11.99 10.47 11.18 9.82L11.18 9.82L12.49 7.08Q13.19 7.53 14.05 7.95Q14.90 8.37 15.80 8.37L15.80 8.37Q17.14 8.37 17.97 7.65Q18.79 6.94 18.79 5.01L18.79 5.01L18.79-3.48L13.00-3.48L13.00-6.33L22.26-6.33ZM36.26-2.16L36.26 10.55Q35.31 10.80 33.95 11.06Q32.60 11.31 31 11.31L31 11.31Q29.38 11.31 28.34 10.86Q27.30 10.41 26.70 9.59Q26.10 8.76 25.88 7.64Q25.65 6.52 25.65 5.18L25.65 5.18L25.65-2.16L29.10-2.16L29.10 4.73Q29.10 6.55 29.53 7.43Q29.96 8.31 31.22 8.31L31.22 8.31Q32.01 8.31 32.79 8.17L32.79 8.17L32.79-2.16L36.26-2.16ZM47.63 4.53L47.63 4.53Q47.63 2.77 46.93 1.63Q46.23 0.50 44.80 0.50L44.80 0.50Q44.41 0.50 43.96 0.54Q43.52 0.58 43.21 0.61L43.21 0.61L43.21 7.84Q43.54 8.06 44.10 8.20Q44.66 8.34 45.22 8.34L45.22 8.34Q46.46 8.34 47.04 7.35Q47.63 6.35 47.63 4.53ZM51.13 4.42L51.13 4.42Q51.13 5.93 50.80 7.21Q50.46 8.48 49.82 9.39Q49.17 10.30 48.19 10.80Q47.21 11.31 45.92 11.31L45.92 11.31Q44.61 11.31 43.21 10.66L43.21 10.66L43.21 15.62L39.76 15.62L39.76-1.74Q40.72-2.05 42.10-2.24Q43.49-2.44 44.83-2.44L44.83-2.44Q47.88-2.44 49.51-0.59Q51.13 1.26 51.13 4.42ZM61.69-2.16L65.22-2.16Q64.68-0.31 64.19 1.47Q63.70 3.24 63.17 4.94Q62.64 6.63 62.04 8.26Q61.44 9.88 60.74 11.42L60.74 11.42Q60.20 12.54 59.69 13.35Q59.17 14.16 58.54 14.68Q57.91 15.20 57.14 15.45Q56.37 15.70 55.33 15.70L55.33 15.70Q54.46 15.70 53.75 15.56Q53.04 15.42 52.56 15.20L52.56 15.20L53.20 12.32Q53.76 12.57 54.20 12.67Q54.63 12.76 55.14 12.76L55.14 12.76Q56.14 12.76 56.76 12.09Q57.38 11.42 57.74 10.50L57.74 10.50Q56.51 8.03 55.28 4.85Q54.04 1.68 53.04-2.16L53.04-2.16L56.62-2.16Q56.87-1.12 57.19 0.05Q57.52 1.23 57.88 2.40Q58.24 3.58 58.65 4.71Q59.06 5.85 59.48 6.83L59.48 6.83Q59.76 5.85 60.06 4.71Q60.37 3.58 60.65 2.42Q60.93 1.26 61.20 0.08Q61.46-1.10 61.69-2.16L61.69-2.16ZM70.00 6.10L70.00 0.70L67.01 0.70L67.01-2.16L70.00-2.16L70.00-5.46L73.45-6.02L73.45-2.16L78.96-2.16L78.96 0.70L73.45 0.70L73.45 6.02Q73.45 6.74 73.59 7.19Q73.73 7.64 73.98 7.89Q74.23 8.14 74.60 8.23Q74.96 8.31 75.41 8.31L75.41 8.31Q75.88 8.31 76.29 8.28Q76.70 8.26 77.07 8.19Q77.45 8.12 77.86 7.98Q78.26 7.84 78.74 7.61L78.74 7.61L79.22 10.58Q78.26 10.97 77.16 11.14Q76.05 11.31 75.02 11.31L75.02 11.31Q73.81 11.31 72.89 11.11Q71.96 10.92 71.32 10.36Q70.68 9.80 70.34 8.77Q70.00 7.75 70.00 6.10L70.00 6.10ZM80.87 4.53L80.87 4.53Q80.87 2.80 81.40 1.48Q81.93 0.16 82.80-0.72Q83.67-1.60 84.79-2.05Q85.91-2.50 87.08-2.50L87.08-2.50Q90.00-2.50 91.51-0.77Q93.02 0.95 93.02 4.25L93.02 4.25Q93.02 4.59 93.01 4.95Q92.99 5.32 92.96 5.54L92.96 5.54L84.42 5.54Q84.42 6.83 85.49 7.57Q86.55 8.31 88.23 8.31L88.23 8.31Q89.27 8.31 90.21 8.09Q91.14 7.86 91.79 7.64L91.79 7.64L92.26 10.58Q91.37 10.89 90.36 11.10Q89.35 11.31 88.09 11.31L88.09 11.31Q86.41 11.31 85.08 10.87Q83.75 10.44 82.81 9.59Q81.88 8.73 81.37 7.47Q80.87 6.21 80.87 4.53ZM84.42 3.16L89.69 3.16Q89.69 2.63 89.55 2.14Q89.41 1.65 89.10 1.26Q88.79 0.86 88.32 0.63Q87.84 0.39 87.14 0.39L87.14 0.39Q86.47 0.39 85.98 0.61Q85.49 0.84 85.17 1.23Q84.84 1.62 84.66 2.12Q84.48 2.63 84.42 3.16L84.42 3.16ZM106.85-1.85L106.24 1.34Q105.90 1.26 105.44 1.17Q104.98 1.09 104.50 1.02Q104.02 0.95 103.58 0.92Q103.13 0.89 102.82 0.89L102.82 0.89Q102.09 0.89 101.39 0.96Q100.69 1.03 99.96 1.23L99.96 1.23L99.96 11L96.49 11L96.49-1.29Q97.86-1.80 99.31-2.10Q100.75-2.41 102.68-2.41L102.68-2.41Q102.96-2.41 103.48-2.38Q104.00-2.36 104.58-2.29Q105.17-2.22 105.77-2.12Q106.38-2.02 106.85-1.85L106.85-1.85ZM134.71 11L131.94 11Q130.76 8.12 129.38 5.25Q127.99 2.38 126.40-0.51L126.40-0.51L126.40 11L123.29 11L123.29-6.33L126.06-6.33Q126.84-5.10 127.63-3.66Q128.41-2.22 129.15-0.79Q129.90 0.64 130.53 1.98Q131.16 3.33 131.60 4.34L131.60 4.34L131.60-6.33L134.71-6.33L134.71 11ZM149.22 4.39L149.22 4.39Q149.22 5.96 148.77 7.23Q148.32 8.51 147.51 9.43Q146.70 10.36 145.56 10.86Q144.43 11.36 143.03 11.36L143.03 11.36Q141.63 11.36 140.49 10.86Q139.36 10.36 138.53 9.43Q137.71 8.51 137.26 7.23Q136.81 5.96 136.81 4.39L136.81 4.39Q136.81 2.85 137.27 1.58Q137.74 0.30 138.56-0.61Q139.39-1.52 140.54-2.01Q141.68-2.50 143.03-2.50L143.03-2.50Q144.40-2.50 145.53-2.01Q146.67-1.52 147.49-0.61Q148.32 0.30 148.77 1.58Q149.22 2.85 149.22 4.39ZM140.31 4.42L140.31 4.42Q140.31 6.18 140.94 7.28Q141.57 8.37 142.97 8.37L142.97 8.37Q144.32 8.37 145.00 7.28Q145.69 6.18 145.69 4.42L145.69 4.42Q145.69 2.66 145.06 1.58Q144.43 0.50 143.03 0.50L143.03 0.50Q141.68 0.50 141.00 1.58Q140.31 2.66 140.31 4.42ZM154.00 6.10L154.00 0.70L151.01 0.70L151.01-2.16L154.00-2.16L154.00-5.46L157.45-6.02L157.45-2.16L162.96-2.16L162.96 0.70L157.45 0.70L157.45 6.02Q157.45 6.74 157.59 7.19Q157.73 7.64 157.98 7.89Q158.23 8.14 158.60 8.23Q158.96 8.31 159.41 8.31L159.41 8.31Q159.88 8.31 160.29 8.28Q160.70 8.26 161.07 8.19Q161.45 8.12 161.86 7.98Q162.26 7.84 162.74 7.61L162.74 7.61L163.22 10.58Q162.26 10.97 161.16 11.14Q160.05 11.31 159.02 11.31L159.02 11.31Q157.81 11.31 156.89 11.11Q155.96 10.92 155.32 10.36Q154.68 9.80 154.34 8.77Q154.00 7.75 154.00 6.10L154.00 6.10ZM164.87 4.53L164.87 4.53Q164.87 2.80 165.40 1.48Q165.93 0.16 166.80-0.72Q167.67-1.60 168.79-2.05Q169.91-2.50 171.08-2.50L171.08-2.50Q174.00-2.50 175.51-0.77Q177.02 0.95 177.02 4.25L177.02 4.25Q177.02 4.59 177.01 4.95Q176.99 5.32 176.96 5.54L176.96 5.54L168.42 5.54Q168.42 6.83 169.49 7.57Q170.55 8.31 172.23 8.31L172.23 8.31Q173.27 8.31 174.21 8.09Q175.14 7.86 175.79 7.64L175.79 7.64L176.26 10.58Q175.37 10.89 174.36 11.10Q173.35 11.31 172.09 11.31L172.09 11.31Q170.41 11.31 169.08 10.87Q167.75 10.44 166.81 9.59Q165.88 8.73 165.37 7.47Q164.87 6.21 164.87 4.53ZM168.42 3.16L173.69 3.16Q173.69 2.63 173.55 2.14Q173.41 1.65 173.10 1.26Q172.79 0.86 172.32 0.63Q171.84 0.39 171.14 0.39L171.14 0.39Q170.47 0.39 169.98 0.61Q169.49 0.84 169.17 1.23Q168.84 1.62 168.66 2.12Q168.48 2.63 168.42 3.16L168.42 3.16ZM187.66 4.34L187.66 4.34Q187.66 2.49 187.06 1.51Q186.46 0.53 185.22 0.53L185.22 0.53Q184.66 0.53 184.12 0.68Q183.57 0.84 183.18 1.06L183.18 1.06L183.18 8.20Q183.57 8.28 184.01 8.31Q184.44 8.34 184.75 8.34L184.75 8.34Q186.09 8.34 186.88 7.43Q187.66 6.52 187.66 4.34ZM191.16 4.42L191.16 4.42Q191.16 5.99 190.74 7.26Q190.32 8.54 189.51 9.43Q188.70 10.33 187.52 10.82Q186.34 11.31 184.83 11.31L184.83 11.31Q183.49 11.31 182.09 11.11Q180.69 10.92 179.74 10.61L179.74 10.61L179.74-7.84L183.18-8.43L183.18-1.85Q183.91-2.19 184.58-2.31Q185.25-2.44 185.92-2.44L185.92-2.44Q187.21-2.44 188.19-1.95Q189.17-1.46 189.83-0.55Q190.49 0.36 190.82 1.62Q191.16 2.88 191.16 4.42ZM205.22 4.39L205.22 4.39Q205.22 5.96 204.77 7.23Q204.32 8.51 203.51 9.43Q202.70 10.36 201.56 10.86Q200.43 11.36 199.03 11.36L199.03 11.36Q197.63 11.36 196.49 10.86Q195.36 10.36 194.53 9.43Q193.71 8.51 193.26 7.23Q192.81 5.96 192.81 4.39L192.81 4.39Q192.81 2.85 193.27 1.58Q193.74 0.30 194.56-0.61Q195.39-1.52 196.54-2.01Q197.68-2.50 199.03-2.50L199.03-2.50Q200.40-2.50 201.53-2.01Q202.67-1.52 203.49-0.61Q204.32 0.30 204.77 1.58Q205.22 2.85 205.22 4.39ZM196.31 4.42L196.31 4.42Q196.31 6.18 196.94 7.28Q197.57 8.37 198.97 8.37L198.97 8.37Q200.32 8.37 201.00 7.28Q201.69 6.18 201.69 4.42L201.69 4.42Q201.69 2.66 201.06 1.58Q200.43 0.50 199.03 0.50L199.03 0.50Q197.68 0.50 197.00 1.58Q196.31 2.66 196.31 4.42ZM219.22 4.39L219.22 4.39Q219.22 5.96 218.77 7.23Q218.32 8.51 217.51 9.43Q216.70 10.36 215.56 10.86Q214.43 11.36 213.03 11.36L213.03 11.36Q211.63 11.36 210.49 10.86Q209.36 10.36 208.53 9.43Q207.71 8.51 207.26 7.23Q206.81 5.96 206.81 4.39L206.81 4.39Q206.81 2.85 207.27 1.58Q207.74 0.30 208.56-0.61Q209.39-1.52 210.54-2.01Q211.68-2.50 213.03-2.50L213.03-2.50Q214.40-2.50 215.53-2.01Q216.67-1.52 217.49-0.61Q218.32 0.30 218.77 1.58Q219.22 2.85 219.22 4.39ZM210.31 4.42L210.31 4.42Q210.31 6.18 210.94 7.28Q211.57 8.37 212.97 8.37L212.97 8.37Q214.32 8.37 215.00 7.28Q215.69 6.18 215.69 4.42L215.69 4.42Q215.69 2.66 215.06 1.58Q214.43 0.50 213.03 0.50L213.03 0.50Q211.68 0.50 211.00 1.58Q210.31 2.66 210.31 4.42ZM225.24-8.43L225.24 3.05Q225.74 2.46 226.26 1.80Q226.78 1.14 227.27 0.44Q227.76-0.26 228.20-0.91Q228.65-1.57 228.99-2.16L228.99-2.16L233.13-2.16Q232.63-1.52 231.98-0.76Q231.34-0.00 230.65 0.78Q229.97 1.56 229.28 2.29Q228.60 3.02 228.04 3.64L228.04 3.64Q228.74 4.31 229.55 5.25Q230.36 6.18 231.14 7.19Q231.93 8.20 232.59 9.21Q233.24 10.22 233.64 11L233.64 11L229.69 11Q229.35 10.30 228.81 9.42Q228.26 8.54 227.64 7.68Q227.03 6.83 226.40 6.06Q225.77 5.29 225.24 4.78L225.24 4.78L225.24 11L221.76 11L221.76-7.84L225.24-8.43Z"/>
    </g>
</svg>