<?xml version="1.0" encoding="UTF-8"?>
<svg height="322" width="90.4" version="1.1" xmlns="http://www.w3.org/2000/svg"><!--Created by Josélio de S. C. Júnior - 2021 - https://github.com/joseliojunior -->
    <rect
        height="32"
        width="88.4"
        rx="1"
        ry="1"
        x="1" y="1"
        fill="#0579aa"
        stroke="#4dc6f9"
        stroke-width="1" />
    <g transform="translate(0, 12)">
        <path fill="#4dc6f9" stroke="none" d="M25.57 9.84L25.57 9.84Q26.31 9.84 26.80 9.68Q27.30 9.53 27.58 9.25Q27.87 8.98 27.98 8.63Q28.09 8.28 28.09 7.92L28.09 7.92Q28.09 7.46 27.82 7.10Q27.56 6.74 27.15 6.47Q26.74 6.19 26.24 5.96Q25.74 5.74 25.23 5.54L25.23 5.54Q24.56 5.30 23.84 4.99Q23.12 4.68 22.53 4.20Q21.94 3.72 21.56 3.01Q21.18 2.30 21.18 1.25L21.18 1.25Q21.18-0.84 22.53-2.02Q23.89-3.19 26.26-3.19L26.26-3.19Q27.63-3.19 28.65-2.88Q29.67-2.57 30.37-2.18L30.37-2.18L29.50 0.10Q28.90-0.24 28.17-0.48Q27.44-0.72 26.48-0.72L26.48-0.72Q24.13-0.72 24.13 0.98L24.13 0.98Q24.13 1.42 24.37 1.74Q24.61 2.06 24.98 2.32Q25.35 2.57 25.82 2.76Q26.29 2.95 26.74 3.12L26.74 3.12Q27.44 3.38 28.20 3.71Q28.95 4.03 29.59 4.57Q30.22 5.11 30.63 5.92Q31.04 6.72 31.04 7.94L31.04 7.94Q31.04 10.03 29.68 11.17Q28.33 12.31 25.57 12.31L25.57 12.31Q23.72 12.31 22.62 11.92Q21.51 11.52 20.96 11.18L20.96 11.18L21.82 8.78Q22.47 9.17 23.37 9.50Q24.27 9.84 25.57 9.84ZM32.74 6.46L32.74 6.46Q32.74 4.97 33.20 3.84Q33.66 2.71 34.40 1.96Q35.14 1.20 36.10 0.82Q37.06 0.43 38.07 0.43L38.07 0.43Q40.57 0.43 41.86 1.91Q43.16 3.38 43.16 6.22L43.16 6.22Q43.16 6.50 43.15 6.82Q43.14 7.13 43.11 7.32L43.11 7.32L35.79 7.32Q35.79 8.42 36.70 9.06Q37.62 9.70 39.06 9.70L39.06 9.70Q39.94 9.70 40.75 9.50Q41.55 9.31 42.10 9.12L42.10 9.12L42.51 11.64Q41.74 11.90 40.88 12.08Q40.02 12.26 38.94 12.26L38.94 12.26Q37.50 12.26 36.36 11.89Q35.22 11.52 34.41 10.79Q33.61 10.06 33.18 8.98Q32.74 7.90 32.74 6.46ZM35.79 5.28L40.30 5.28Q40.30 4.82 40.18 4.40Q40.06 3.98 39.80 3.65Q39.54 3.31 39.13 3.11Q38.72 2.90 38.12 2.90L38.12 2.90Q37.54 2.90 37.12 3.10Q36.70 3.29 36.43 3.62Q36.15 3.96 36.00 4.39Q35.84 4.82 35.79 5.28L35.79 5.28ZM54.82 9.14L55.21 11.52Q55.14 11.57 54.88 11.69Q54.63 11.81 54.22 11.94Q53.82 12.07 53.23 12.17Q52.64 12.26 51.90 12.26L51.90 12.26Q49.86 12.26 48.92 11.05Q47.98 9.84 47.98 7.51L47.98 7.51L47.98-2.06L44.86-2.06L44.86-4.51L50.94-4.51L50.94 7.73Q50.94 8.88 51.39 9.29Q51.85 9.70 52.54 9.70L52.54 9.70Q53.43 9.70 54.03 9.46Q54.63 9.22 54.82 9.14L54.82 9.14ZM62.31 12L59.34 12L59.34 3.17L56.86 3.17L56.86 0.72L59.34 0.72L59.34 0.07Q59.34-1.30 59.73-2.20Q60.13-3.10 60.80-3.64Q61.47-4.18 62.34-4.40Q63.20-4.63 64.11-4.63L64.11-4.63Q65.05-4.63 66.03-4.46Q67.02-4.30 67.81-3.91L67.81-3.91L67.30-1.51Q66.75-1.70 65.92-1.91Q65.10-2.11 64.35-2.11L64.35-2.11Q63.94-2.11 63.57-2.04Q63.20-1.97 62.92-1.73Q62.65-1.49 62.48-1.04Q62.31-0.60 62.31 0.12L62.31 0.12L62.31 0.72L66.94 0.72L66.94 3.17L62.31 3.17L62.31 12Z"/>
    </g>
</svg>