<?xml version="1.0" encoding="UTF-8"?>
<svg height="34" width="78.4" version="1.1" xmlns="http://www.w3.org/2000/svg">
    <rect
        height="32"
        width="76.4"
        rx="1"
        ry="1"
        x="1"
        y="1"
        fill="#ecdebe"
        stroke="#ae8932"
        stroke-width="1"
         />
    <g transform="translate(0, 14)">
        <path fill="#ae8932" d="M15.99-6.53L15.99-6.53Q17.48-6.53 18.68-6.19Q19.88-5.86 20.75-5.16Q21.62-4.46 22.08-3.38Q22.54-2.30 22.54-0.84L22.54-0.84Q22.54 0.67 21.93 1.90Q21.31 3.13 19.88 3.78L19.88 3.78Q20.36 4.50 20.89 5.39Q21.42 6.27 21.93 7.23Q22.43 8.20 22.89 9.17Q23.36 10.13 23.69 11L23.69 11L20.08 11Q19.44 9.32 18.58 7.77Q17.73 6.21 16.75 4.62L16.75 4.62L14.96 4.62L14.96 11L11.51 11L11.51-6.08Q12.02-6.19 12.62-6.29Q13.22-6.39 13.84-6.43Q14.45-6.47 15.01-6.50Q15.57-6.53 15.99-6.53ZM19.04-0.87L19.04-0.87Q19.04-2.24 18.20-2.89Q17.36-3.53 15.99-3.53L15.99-3.53Q15.80-3.53 15.52-3.52Q15.24-3.50 14.96-3.45L14.96-3.45L14.96 1.76L15.71 1.76Q17.48 1.76 18.26 1.07Q19.04 0.39 19.04-0.87ZM37.22 4.39L37.22 4.39Q37.22 5.96 36.77 7.23Q36.32 8.51 35.51 9.43Q34.70 10.36 33.56 10.86Q32.43 11.36 31.03 11.36L31.03 11.36Q29.63 11.36 28.49 10.86Q27.36 10.36 26.53 9.43Q25.71 8.51 25.26 7.23Q24.81 5.96 24.81 4.39L24.81 4.39Q24.81 2.85 25.27 1.58Q25.74 0.30 26.56-0.61Q27.39-1.52 28.54-2.01Q29.68-2.50 31.03-2.50L31.03-2.50Q32.40-2.50 33.53-2.01Q34.67-1.52 35.49-0.61Q36.32 0.30 36.77 1.58Q37.22 2.85 37.22 4.39ZM28.31 4.42L28.31 4.42Q28.31 6.18 28.94 7.28Q29.57 8.37 30.97 8.37L30.97 8.37Q32.32 8.37 33.00 7.28Q33.69 6.18 33.69 4.42L33.69 4.42Q33.69 2.66 33.06 1.58Q32.43 0.50 31.03 0.50L31.03 0.50Q29.68 0.50 29.00 1.58Q28.31 2.66 28.31 4.42ZM45.36 11L41.89 11L41.89 0.70L39.01 0.70L39.01-2.16L41.89-2.16L41.89-2.92Q41.89-4.51 42.35-5.56Q42.82-6.61 43.60-7.24Q44.38-7.87 45.39-8.14Q46.40-8.40 47.46-8.40L47.46-8.40Q48.56-8.40 49.70-8.21Q50.85-8.01 51.78-7.56L51.78-7.56L51.19-4.76Q50.54-4.99 49.58-5.23Q48.61-5.46 47.74-5.46L47.74-5.46Q47.27-5.46 46.83-5.38Q46.40-5.30 46.08-5.02Q45.76-4.74 45.56-4.22Q45.36-3.70 45.36-2.86L45.36-2.86L45.36-2.16L50.77-2.16L50.77 0.70L45.36 0.70L45.36 11ZM59.36 11L55.89 11L55.89 0.70L53.01 0.70L53.01-2.16L55.89-2.16L55.89-2.92Q55.89-4.51 56.35-5.56Q56.82-6.61 57.60-7.24Q58.38-7.87 59.39-8.14Q60.40-8.40 61.46-8.40L61.46-8.40Q62.56-8.40 63.70-8.21Q64.85-8.01 65.78-7.56L65.78-7.56L65.19-4.76Q64.54-4.99 63.58-5.23Q62.61-5.46 61.74-5.46L61.74-5.46Q61.27-5.46 60.83-5.38Q60.40-5.30 60.08-5.02Q59.76-4.74 59.56-4.22Q59.36-3.70 59.36-2.86L59.36-2.86L59.36-2.16L64.77-2.16L64.77 0.70L59.36 0.70L59.36 11Z"/>
    </g>
</svg>