<?xml version="1.0" encoding="UTF-8"?>
<svg height="34" width="90.4" version="1.1" xmlns="http://www.w3.org/2000/svg"><!--Created by Josélio de S. C. Júnior - 2021 - https://github.com/joseliojunior -->
    <rect
        height="32"
        width="88.4"
        rx="1"
        ry="1"
        x="1" y="1"
        fill="#ecdebe"
        stroke="#ae8932"
        stroke-width="1" />
    <g transform="translate(0, 12)">
        <path fill="#ae8932" stroke="none" d="M25.14-3.02L25.14-3.02Q26.41-3.02 27.44-2.74Q28.47-2.45 29.22-1.85Q29.96-1.25 30.36-0.32Q30.75 0.60 30.75 1.85L30.75 1.85Q30.75 3.14 30.22 4.20Q29.70 5.26 28.47 5.81L28.47 5.81Q28.88 6.43 29.34 7.19Q29.79 7.94 30.22 8.77Q30.66 9.60 31.05 10.43Q31.45 11.26 31.74 12L31.74 12L28.64 12Q28.09 10.56 27.36 9.23Q26.62 7.90 25.78 6.53L25.78 6.53L24.25 6.53L24.25 12L21.30 12L21.30-2.64Q21.73-2.74 22.24-2.82Q22.76-2.90 23.29-2.94Q23.82-2.98 24.30-3Q24.78-3.02 25.14-3.02ZM27.75 1.82L27.75 1.82Q27.75 0.65 27.03 0.10Q26.31-0.46 25.14-0.46L25.14-0.46Q24.97-0.46 24.73-0.44Q24.49-0.43 24.25-0.38L24.25-0.38L24.25 4.08L24.90 4.08Q26.41 4.08 27.08 3.49Q27.75 2.90 27.75 1.82ZM43.33 6.34L43.33 6.34Q43.33 7.68 42.94 8.77Q42.56 9.86 41.86 10.66Q41.17 11.45 40.20 11.88Q39.22 12.31 38.02 12.31L38.02 12.31Q36.82 12.31 35.85 11.88Q34.88 11.45 34.17 10.66Q33.46 9.86 33.08 8.77Q32.70 7.68 32.70 6.34L32.70 6.34Q32.70 5.02 33.09 3.92Q33.49 2.83 34.20 2.05Q34.90 1.27 35.89 0.85Q36.87 0.43 38.02 0.43L38.02 0.43Q39.20 0.43 40.17 0.85Q41.14 1.27 41.85 2.05Q42.56 2.83 42.94 3.92Q43.33 5.02 43.33 6.34ZM35.70 6.36L35.70 6.36Q35.70 7.87 36.24 8.81Q36.78 9.74 37.98 9.74L37.98 9.74Q39.13 9.74 39.72 8.81Q40.30 7.87 40.30 6.36L40.30 6.36Q40.30 4.85 39.76 3.92Q39.22 3 38.02 3L38.02 3Q36.87 3 36.28 3.92Q35.70 4.85 35.70 6.36ZM50.31 12L47.34 12L47.34 3.17L44.86 3.17L44.86 0.72L47.34 0.72L47.34 0.07Q47.34-1.30 47.73-2.20Q48.13-3.10 48.80-3.64Q49.47-4.18 50.34-4.40Q51.20-4.63 52.11-4.63L52.11-4.63Q53.05-4.63 54.03-4.46Q55.02-4.30 55.81-3.91L55.81-3.91L55.30-1.51Q54.75-1.70 53.92-1.91Q53.10-2.11 52.35-2.11L52.35-2.11Q51.94-2.11 51.57-2.04Q51.20-1.97 50.92-1.73Q50.65-1.49 50.48-1.04Q50.31-0.60 50.31 0.12L50.31 0.12L50.31 0.72L54.94 0.72L54.94 3.17L50.31 3.17L50.31 12ZM62.31 12L59.34 12L59.34 3.17L56.86 3.17L56.86 0.72L59.34 0.72L59.34 0.07Q59.34-1.30 59.73-2.20Q60.13-3.10 60.80-3.64Q61.47-4.18 62.34-4.40Q63.20-4.63 64.11-4.63L64.11-4.63Q65.05-4.63 66.03-4.46Q67.02-4.30 67.81-3.91L67.81-3.91L67.30-1.51Q66.75-1.70 65.92-1.91Q65.10-2.11 64.35-2.11L64.35-2.11Q63.94-2.11 63.57-2.04Q63.20-1.97 62.92-1.73Q62.65-1.49 62.48-1.04Q62.31-0.60 62.31 0.12L62.31 0.12L62.31 0.72L66.94 0.72L66.94 3.17L62.31 3.17L62.31 12Z"/>
    </g>
</svg>