<?xml version="1.0" encoding="UTF-8"?>
<svg height="34" width="120.7" version="1.1" xmlns="http://www.w3.org/2000/svg">
    <rect
        height="32"
        width="118.7"
        rx="1"
        ry="1"
        x="1"
        y="1"
        fill="#cdd0e3"
        stroke="#535b93"
        stroke-width="1"
         />
    <g transform="translate(0, 14)">
        <path fill="#535b93" d="M14.26 2.32L14.26 2.32Q14.26 3.58 14.35 4.69Q14.45 5.79 14.75 6.60Q15.04 7.42 15.57 7.89Q16.10 8.37 17 8.37L17 8.37Q17.87 8.37 18.41 7.89Q18.96 7.42 19.25 6.59Q19.55 5.76 19.65 4.67Q19.74 3.58 19.74 2.32L19.74 2.32Q19.74 1.06 19.65-0.05Q19.55-1.15 19.25-1.96Q18.96-2.78 18.43-3.25Q17.90-3.73 17-3.73L17-3.73Q16.10-3.73 15.57-3.25Q15.04-2.78 14.75-1.95Q14.45-1.12 14.35-0.03Q14.26 1.06 14.26 2.32ZM10.76 2.32L10.76 2.32Q10.76-2.16 12.41-4.44Q14.06-6.72 17-6.72L17-6.72Q20.05-6.72 21.65-4.44Q23.24-2.16 23.24 2.32L23.24 2.32Q23.24 6.80 21.62 9.08Q20.00 11.36 17.03 11.36L17.03 11.36Q13.98 11.36 12.37 9.08Q10.76 6.80 10.76 2.32ZM28.20-2.16L31.11 1.96L33.80-2.16L37.30-2.16L33.04 4.17Q33.72 4.98 34.36 5.89Q35.00 6.80 35.59 7.72Q36.18 8.65 36.66 9.49Q37.13 10.33 37.47 11L37.47 11L33.88 11Q33.13 9.57 32.37 8.45Q31.62 7.33 30.94 6.44L30.94 6.44Q30.10 7.56 29.43 8.62Q28.76 9.68 28.06 11L28.06 11L24.56 11Q24.98 10.22 25.53 9.36Q26.07 8.51 26.67 7.63Q27.28 6.74 27.93 5.88Q28.59 5.01 29.21 4.22L29.21 4.22L24.59-2.16L28.20-2.16ZM47.69-2.16L51.22-2.16Q50.68-0.31 50.19 1.47Q49.70 3.24 49.17 4.94Q48.64 6.63 48.04 8.26Q47.44 9.88 46.74 11.42L46.74 11.42Q46.20 12.54 45.69 13.35Q45.17 14.16 44.54 14.68Q43.91 15.20 43.14 15.45Q42.37 15.70 41.33 15.70L41.33 15.70Q40.46 15.70 39.75 15.56Q39.04 15.42 38.56 15.20L38.56 15.20L39.20 12.32Q39.76 12.57 40.20 12.67Q40.63 12.76 41.14 12.76L41.14 12.76Q42.14 12.76 42.76 12.09Q43.38 11.42 43.74 10.50L43.74 10.50Q42.51 8.03 41.28 4.85Q40.04 1.68 39.04-2.16L39.04-2.16L42.62-2.16Q42.87-1.12 43.19 0.05Q43.52 1.23 43.88 2.40Q44.24 3.58 44.65 4.71Q45.06 5.85 45.48 6.83L45.48 6.83Q45.76 5.85 46.06 4.71Q46.37 3.58 46.65 2.42Q46.93 1.26 47.20 0.08Q47.46-1.10 47.69-2.16L47.69-2.16ZM56.42 4L56.42 4Q56.42 5.62 57.01 6.48Q57.60 7.33 58.86 7.33L58.86 7.33Q59.42 7.33 59.91 7.19Q60.40 7.05 60.79 6.83L60.79 6.83L60.79 0.50Q60.40 0.42 60.09 0.39Q59.78 0.36 59.45 0.36L59.45 0.36Q56.42 0.36 56.42 4ZM64.26-1.74L64.26 9.40Q64.26 12.62 62.71 14.16Q61.16 15.70 57.71 15.70L57.71 15.70Q56.48 15.70 55.35 15.45Q54.21 15.20 53.18 14.86L53.18 14.86L53.82 11.95Q54.63 12.26 55.53 12.53Q56.42 12.79 57.77 12.79L57.77 12.79Q58.66 12.79 59.25 12.58Q59.84 12.37 60.18 12.01Q60.51 11.64 60.65 11.15Q60.79 10.66 60.79 10.10L60.79 10.10L60.79 9.57Q60.06 9.85 59.46 9.99Q58.86 10.13 58.16 10.13L58.16 10.13Q55.58 10.13 54.25 8.51Q52.92 6.88 52.92 4L52.92 4Q52.92 0.75 54.72-0.84Q56.51-2.44 59.59-2.44L59.59-2.44Q61.74-2.44 64.26-1.74L64.26-1.74ZM66.87 4.53L66.87 4.53Q66.87 2.80 67.40 1.48Q67.93 0.16 68.80-0.72Q69.67-1.60 70.79-2.05Q71.91-2.50 73.08-2.50L73.08-2.50Q76.00-2.50 77.51-0.77Q79.02 0.95 79.02 4.25L79.02 4.25Q79.02 4.59 79.01 4.95Q78.99 5.32 78.96 5.54L78.96 5.54L70.42 5.54Q70.42 6.83 71.49 7.57Q72.55 8.31 74.23 8.31L74.23 8.31Q75.27 8.31 76.21 8.09Q77.14 7.86 77.79 7.64L77.79 7.64L78.26 10.58Q77.37 10.89 76.36 11.10Q75.35 11.31 74.09 11.31L74.09 11.31Q72.41 11.31 71.08 10.87Q69.75 10.44 68.81 9.59Q67.88 8.73 67.37 7.47Q66.87 6.21 66.87 4.53ZM70.42 3.16L75.69 3.16Q75.69 2.63 75.55 2.14Q75.41 1.65 75.10 1.26Q74.79 0.86 74.32 0.63Q73.84 0.39 73.14 0.39L73.14 0.39Q72.47 0.39 71.98 0.61Q71.49 0.84 71.17 1.23Q70.84 1.62 70.66 2.12Q70.48 2.63 70.42 3.16L70.42 3.16ZM81.76 11L81.76-1.74Q82.69-1.99 84.05-2.22Q85.40-2.44 87-2.44L87-2.44Q88.57-2.44 89.60-2.01Q90.64-1.57 91.24-0.77Q91.84 0.02 92.10 1.13Q92.35 2.24 92.35 3.58L92.35 3.58L92.35 11L88.90 11L88.90 4.03Q88.90 2.18 88.48 1.37Q88.06 0.56 86.78 0.56L86.78 0.56Q86.38 0.56 86.01 0.58Q85.63 0.61 85.21 0.67L85.21 0.67L85.21 11L81.76 11ZM94.87 4.53L94.87 4.53Q94.87 2.80 95.40 1.48Q95.93 0.16 96.80-0.72Q97.67-1.60 98.79-2.05Q99.91-2.50 101.08-2.50L101.08-2.50Q104.00-2.50 105.51-0.77Q107.02 0.95 107.02 4.25L107.02 4.25Q107.02 4.59 107.01 4.95Q106.99 5.32 106.96 5.54L106.96 5.54L98.42 5.54Q98.42 6.83 99.49 7.57Q100.55 8.31 102.23 8.31L102.23 8.31Q103.27 8.31 104.21 8.09Q105.14 7.86 105.79 7.64L105.79 7.64L106.26 10.58Q105.37 10.89 104.36 11.10Q103.35 11.31 102.09 11.31L102.09 11.31Q100.41 11.31 99.08 10.87Q97.75 10.44 96.81 9.59Q95.88 8.73 95.37 7.47Q94.87 6.21 94.87 4.53ZM98.42 3.16L103.69 3.16Q103.69 2.63 103.55 2.14Q103.41 1.65 103.10 1.26Q102.79 0.86 102.32 0.63Q101.84 0.39 101.14 0.39L101.14 0.39Q100.47 0.39 99.98 0.61Q99.49 0.84 99.17 1.23Q98.84 1.62 98.66 2.12Q98.48 2.63 98.42 3.16L98.42 3.16Z"/>
    </g>
</svg>