<?xml version="1.0" encoding="UTF-8"?><svg height="34" width="126.7" version="1.1" xmlns="http://www.w3.org/2000/svg"><!--Created by Josélio de S. C. Júnior - 2021 - https://github.com/joseliojunior --><rect height="32" width="124.7" rx="1" ry="1" x="1" y="1" fill="#cdd0e3" stroke="#535b93" stroke-width="1" /><g transform="translate(0, 12)"><path fill="#535b93" d="M23.65 4.56L23.65 4.56Q23.65 5.64 23.73 6.59Q23.82 7.54 24.07 8.23Q24.32 8.93 24.78 9.34Q25.23 9.74 26 9.74L26 9.74Q26.74 9.74 27.21 9.34Q27.68 8.93 27.93 8.22Q28.18 7.51 28.27 6.58Q28.35 5.64 28.35 4.56L28.35 4.56Q28.35 3.48 28.27 2.53Q28.18 1.58 27.93 0.89Q27.68 0.19 27.22-0.22Q26.77-0.62 26-0.62L26-0.62Q25.23-0.62 24.78-0.22Q24.32 0.19 24.07 0.90Q23.82 1.61 23.73 2.54Q23.65 3.48 23.65 4.56ZM20.65 4.56L20.65 4.56Q20.65 0.72 22.06-1.24Q23.48-3.19 26-3.19L26-3.19Q28.62-3.19 29.98-1.24Q31.35 0.72 31.35 4.56L31.35 4.56Q31.35 8.40 29.96 10.36Q28.57 12.31 26.02 12.31L26.02 12.31Q23.41 12.31 22.03 10.36Q20.65 8.40 20.65 4.56ZM35.60 0.72L38.10 4.25L40.40 0.72L43.40 0.72L39.75 6.14Q40.33 6.84 40.88 7.62Q41.43 8.40 41.94 9.19Q42.44 9.98 42.85 10.70Q43.26 11.42 43.54 12L43.54 12L40.47 12Q39.82 10.78 39.18 9.82Q38.53 8.86 37.95 8.09L37.95 8.09Q37.23 9.05 36.66 9.96Q36.08 10.87 35.48 12L35.48 12L32.48 12Q32.84 11.33 33.31 10.60Q33.78 9.86 34.29 9.11Q34.81 8.35 35.37 7.61Q35.94 6.86 36.46 6.19L36.46 6.19L32.50 0.72L35.60 0.72ZM52.30 0.72L55.33 0.72Q54.87 2.30 54.45 3.83Q54.03 5.35 53.58 6.80Q53.12 8.26 52.60 9.65Q52.09 11.04 51.49 12.36L51.49 12.36Q51.03 13.32 50.59 14.02Q50.14 14.71 49.60 15.16Q49.06 15.60 48.40 15.82Q47.74 16.03 46.86 16.03L46.86 16.03Q46.11 16.03 45.50 15.91Q44.89 15.79 44.48 15.60L44.48 15.60L45.03 13.13Q45.51 13.34 45.88 13.43Q46.26 13.51 46.69 13.51L46.69 13.51Q47.55 13.51 48.08 12.94Q48.61 12.36 48.92 11.57L48.92 11.57Q47.86 9.46 46.81 6.73Q45.75 4.01 44.89 0.72L44.89 0.72L47.96 0.72Q48.18 1.61 48.45 2.62Q48.73 3.62 49.04 4.63Q49.35 5.64 49.70 6.61Q50.05 7.58 50.41 8.42L50.41 8.42Q50.65 7.58 50.91 6.61Q51.18 5.64 51.42 4.64Q51.66 3.65 51.88 2.64Q52.11 1.63 52.30 0.72L52.30 0.72ZM59.79 6L59.79 6Q59.79 7.39 60.30 8.12Q60.80 8.86 61.88 8.86L61.88 8.86Q62.36 8.86 62.78 8.74Q63.20 8.62 63.54 8.42L63.54 8.42L63.54 3Q63.20 2.93 62.94 2.90Q62.67 2.88 62.38 2.88L62.38 2.88Q59.79 2.88 59.79 6ZM66.51 1.08L66.51 10.63Q66.51 13.39 65.18 14.71Q63.85 16.03 60.90 16.03L60.90 16.03Q59.84 16.03 58.87 15.82Q57.90 15.60 57.01 15.31L57.01 15.31L57.56 12.82Q58.26 13.08 59.02 13.31Q59.79 13.54 60.94 13.54L60.94 13.54Q61.71 13.54 62.22 13.36Q62.72 13.18 63.01 12.86Q63.30 12.55 63.42 12.13Q63.54 11.71 63.54 11.23L63.54 11.23L63.54 10.78Q62.91 11.02 62.40 11.14Q61.88 11.26 61.28 11.26L61.28 11.26Q59.07 11.26 57.93 9.86Q56.79 8.47 56.79 6L56.79 6Q56.79 3.22 58.33 1.85Q59.86 0.48 62.50 0.48L62.50 0.48Q64.35 0.48 66.51 1.08L66.51 1.08ZM68.74 6.46L68.74 6.46Q68.74 4.97 69.20 3.84Q69.66 2.71 70.40 1.96Q71.14 1.20 72.10 0.82Q73.06 0.43 74.07 0.43L74.07 0.43Q76.57 0.43 77.86 1.91Q79.16 3.38 79.16 6.22L79.16 6.22Q79.16 6.50 79.15 6.82Q79.14 7.13 79.11 7.32L79.11 7.32L71.79 7.32Q71.79 8.42 72.70 9.06Q73.62 9.70 75.06 9.70L75.06 9.70Q75.94 9.70 76.75 9.50Q77.55 9.31 78.10 9.12L78.10 9.12L78.51 11.64Q77.74 11.90 76.88 12.08Q76.02 12.26 74.94 12.26L74.94 12.26Q73.50 12.26 72.36 11.89Q71.22 11.52 70.41 10.79Q69.61 10.06 69.18 8.98Q68.74 7.90 68.74 6.46ZM71.79 5.28L76.30 5.28Q76.30 4.82 76.18 4.40Q76.06 3.98 75.80 3.65Q75.54 3.31 75.13 3.11Q74.72 2.90 74.12 2.90L74.12 2.90Q73.54 2.90 73.12 3.10Q72.70 3.29 72.43 3.62Q72.15 3.96 72.00 4.39Q71.84 4.82 71.79 5.28L71.79 5.28ZM81.51 12L81.51 1.08Q82.30 0.86 83.47 0.67Q84.63 0.48 86 0.48L86 0.48Q87.34 0.48 88.23 0.85Q89.12 1.22 89.64 1.91Q90.15 2.59 90.37 3.54Q90.58 4.49 90.58 5.64L90.58 5.64L90.58 12L87.63 12L87.63 6.02Q87.63 4.44 87.27 3.74Q86.91 3.05 85.81 3.05L85.81 3.05Q85.47 3.05 85.15 3.07Q84.82 3.10 84.46 3.14L84.46 3.14L84.46 12L81.51 12ZM92.74 6.46L92.74 6.46Q92.74 4.97 93.20 3.84Q93.66 2.71 94.40 1.96Q95.14 1.20 96.10 0.82Q97.06 0.43 98.07 0.43L98.07 0.43Q100.57 0.43 101.86 1.91Q103.16 3.38 103.16 6.22L103.16 6.22Q103.16 6.50 103.15 6.82Q103.14 7.13 103.11 7.32L103.11 7.32L95.79 7.32Q95.79 8.42 96.70 9.06Q97.62 9.70 99.06 9.70L99.06 9.70Q99.94 9.70 100.75 9.50Q101.55 9.31 102.10 9.12L102.10 9.12L102.51 11.64Q101.74 11.90 100.88 12.08Q100.02 12.26 98.94 12.26L98.94 12.26Q97.50 12.26 96.36 11.89Q95.22 11.52 94.41 10.79Q93.61 10.06 93.18 8.98Q92.74 7.90 92.74 6.46ZM95.79 5.28L100.30 5.28Q100.30 4.82 100.18 4.40Q100.06 3.98 99.80 3.65Q99.54 3.31 99.13 3.11Q98.72 2.90 98.12 2.90L98.12 2.90Q97.54 2.90 97.12 3.10Q96.70 3.29 96.43 3.62Q96.15 3.96 96.00 4.39Q95.84 4.82 95.79 5.28L95.79 5.28Z"/></g></svg>