<?xml version="1.0" encoding="UTF-8"?>
<svg height="26" width="98.69999999999999" version="1.1" xmlns="http://www.w3.org/2000/svg"><!--Created by Josélio de S. C. Júnior - 2021 - https://github.com/joseliojunior -->
    <rect
        height="24"
        width="96.69999999999999"
        rx="1"
        ry="1"
        x="1" y="1"
        fill="#cdd0e3"
        stroke="#535b93"
        stroke-width="1" />
    <g transform="translate(0, 8)">
        <path fill="#535b93" stroke="none" d="M22.43 5.04L22.43 5.04Q22.43 5.76 22.49 6.39Q22.54 7.02 22.71 7.49Q22.88 7.95 23.18 8.22Q23.49 8.50 24 8.50L24 8.50Q24.50 8.50 24.81 8.22Q25.12 7.95 25.29 7.48Q25.46 7.01 25.51 6.38Q25.57 5.76 25.57 5.04L25.57 5.04Q25.57 4.32 25.51 3.69Q25.46 3.06 25.29 2.59Q25.12 2.13 24.82 1.86Q24.51 1.58 24 1.58L24 1.58Q23.49 1.58 23.18 1.86Q22.88 2.13 22.71 2.60Q22.54 3.07 22.49 3.70Q22.43 4.32 22.43 5.04ZM20.43 5.04L20.43 5.04Q20.43 2.48 21.38 1.18Q22.32-0.13 24-0.13L24-0.13Q25.74-0.13 26.66 1.18Q27.57 2.48 27.57 5.04L27.57 5.04Q27.57 7.60 26.64 8.90Q25.71 10.21 24.02 10.21L24.02 10.21Q22.27 10.21 21.35 8.90Q20.43 7.60 20.43 5.04ZM30.40 2.48L32.06 4.83L33.60 2.48L35.60 2.48L33.17 6.10Q33.55 6.56 33.92 7.08Q34.29 7.60 34.62 8.13Q34.96 8.66 35.23 9.14Q35.50 9.62 35.70 10L35.70 10L33.65 10Q33.22 9.18 32.78 8.54Q32.35 7.90 31.97 7.39L31.97 7.39Q31.49 8.03 31.10 8.64Q30.72 9.25 30.32 10L30.32 10L28.32 10Q28.56 9.55 28.87 9.06Q29.18 8.58 29.53 8.07Q29.87 7.57 30.25 7.07Q30.62 6.58 30.98 6.13L30.98 6.13L28.34 2.48L30.40 2.48ZM41.54 2.48L43.55 2.48Q43.25 3.54 42.97 4.55Q42.69 5.57 42.38 6.54Q42.08 7.50 41.74 8.43Q41.39 9.36 40.99 10.24L40.99 10.24Q40.69 10.88 40.39 11.34Q40.10 11.81 39.74 12.10Q39.38 12.40 38.94 12.54Q38.50 12.69 37.90 12.69L37.90 12.69Q37.41 12.69 37 12.61Q36.59 12.53 36.32 12.40L36.32 12.40L36.69 10.75Q37.01 10.90 37.26 10.95Q37.50 11.01 37.79 11.01L37.79 11.01Q38.37 11.01 38.72 10.62Q39.07 10.24 39.28 9.71L39.28 9.71Q38.58 8.30 37.87 6.49Q37.17 4.67 36.59 2.48L36.59 2.48L38.64 2.48Q38.78 3.07 38.97 3.74Q39.15 4.42 39.36 5.09Q39.57 5.76 39.80 6.41Q40.03 7.06 40.27 7.62L40.27 7.62Q40.43 7.06 40.61 6.41Q40.78 5.76 40.94 5.10Q41.10 4.43 41.26 3.76Q41.41 3.09 41.54 2.48L41.54 2.48ZM46.53 6L46.53 6Q46.53 6.93 46.86 7.42Q47.20 7.90 47.92 7.90L47.92 7.90Q48.24 7.90 48.52 7.82Q48.80 7.74 49.02 7.62L49.02 7.62L49.02 4Q48.80 3.95 48.62 3.94Q48.45 3.92 48.26 3.92L48.26 3.92Q46.53 3.92 46.53 6ZM51.01 2.72L51.01 9.09Q51.01 10.93 50.12 11.81Q49.23 12.69 47.26 12.69L47.26 12.69Q46.56 12.69 45.91 12.54Q45.26 12.40 44.67 12.21L44.67 12.21L45.04 10.54Q45.50 10.72 46.02 10.87Q46.53 11.02 47.30 11.02L47.30 11.02Q47.81 11.02 48.14 10.90Q48.48 10.78 48.67 10.58Q48.86 10.37 48.94 10.09Q49.02 9.81 49.02 9.49L49.02 9.49L49.02 9.18Q48.61 9.34 48.26 9.42Q47.92 9.50 47.52 9.50L47.52 9.50Q46.05 9.50 45.29 8.58Q44.53 7.65 44.53 6L44.53 6Q44.53 4.14 45.55 3.23Q46.58 2.32 48.34 2.32L48.34 2.32Q49.57 2.32 51.01 2.72L51.01 2.72ZM52.50 6.30L52.50 6.30Q52.50 5.31 52.80 4.56Q53.10 3.81 53.60 3.30Q54.10 2.80 54.74 2.54Q55.38 2.29 56.05 2.29L56.05 2.29Q57.71 2.29 58.58 3.27Q59.44 4.26 59.44 6.14L59.44 6.14Q59.44 6.34 59.43 6.54Q59.42 6.75 59.41 6.88L59.41 6.88L54.53 6.88Q54.53 7.62 55.14 8.04Q55.74 8.46 56.70 8.46L56.70 8.46Q57.30 8.46 57.83 8.34Q58.37 8.21 58.74 8.08L58.74 8.08L59.01 9.76Q58.50 9.94 57.92 10.06Q57.34 10.18 56.62 10.18L56.62 10.18Q55.66 10.18 54.90 9.93Q54.14 9.68 53.61 9.19Q53.07 8.70 52.78 7.98Q52.50 7.26 52.50 6.30ZM54.53 5.52L57.54 5.52Q57.54 5.22 57.46 4.94Q57.38 4.66 57.20 4.43Q57.02 4.21 56.75 4.07Q56.48 3.94 56.08 3.94L56.08 3.94Q55.70 3.94 55.42 4.06Q55.14 4.19 54.95 4.42Q54.77 4.64 54.66 4.93Q54.56 5.22 54.53 5.52L54.53 5.52ZM61.01 10L61.01 2.72Q61.54 2.58 62.31 2.45Q63.09 2.32 64 2.32L64 2.32Q64.90 2.32 65.49 2.57Q66.08 2.82 66.42 3.27Q66.77 3.73 66.91 4.36Q67.06 4.99 67.06 5.76L67.06 5.76L67.06 10L65.09 10L65.09 6.02Q65.09 4.96 64.85 4.50Q64.61 4.03 63.87 4.03L63.87 4.03Q63.65 4.03 63.43 4.05Q63.22 4.06 62.98 4.10L62.98 4.10L62.98 10L61.01 10ZM68.50 6.30L68.50 6.30Q68.50 5.31 68.80 4.56Q69.10 3.81 69.60 3.30Q70.10 2.80 70.74 2.54Q71.38 2.29 72.05 2.29L72.05 2.29Q73.71 2.29 74.58 3.27Q75.44 4.26 75.44 6.14L75.44 6.14Q75.44 6.34 75.43 6.54Q75.42 6.75 75.41 6.88L75.41 6.88L70.53 6.88Q70.53 7.62 71.14 8.04Q71.74 8.46 72.70 8.46L72.70 8.46Q73.30 8.46 73.83 8.34Q74.37 8.21 74.74 8.08L74.74 8.08L75.01 9.76Q74.50 9.94 73.92 10.06Q73.34 10.18 72.62 10.18L72.62 10.18Q71.66 10.18 70.90 9.93Q70.14 9.68 69.61 9.19Q69.07 8.70 68.78 7.98Q68.50 7.26 68.50 6.30ZM70.53 5.52L73.54 5.52Q73.54 5.22 73.46 4.94Q73.38 4.66 73.20 4.43Q73.02 4.21 72.75 4.07Q72.48 3.94 72.08 3.94L72.08 3.94Q71.70 3.94 71.42 4.06Q71.14 4.19 70.95 4.42Q70.77 4.64 70.66 4.93Q70.56 5.22 70.53 5.52L70.53 5.52Z"/>
    </g>
</svg>