<?xml version="1.0" encoding="UTF-8"?><svg height="34" width="78.3" version="1.1" xmlns="http://www.w3.org/2000/svg"><!--Created by Josélio de S. C. Júnior - 2021 - https://github.com/joseliojunior --><rect height="32" width="76.3" rx="16" ry="16" x="1" y="1" fill="#000080" stroke="#1a1aff" stroke-width="1" /><g transform="translate(0, 12)"><path fill="#1a1aff" d="M31.04 9.55L31.04 12L21.70 12L21.70-2.86L24.68-2.86L24.68 9.55L31.04 9.55ZM42.51 0.72L42.51 11.62Q41.70 11.83 40.53 12.05Q39.37 12.26 38 12.26L38 12.26Q36.61 12.26 35.72 11.88Q34.83 11.50 34.32 10.79Q33.80 10.08 33.61 9.12Q33.42 8.16 33.42 7.01L33.42 7.01L33.42 0.72L36.37 0.72L36.37 6.62Q36.37 8.18 36.74 8.94Q37.11 9.70 38.19 9.70L38.19 9.70Q38.86 9.70 39.54 9.58L39.54 9.58L39.54 0.72L42.51 0.72ZM50.02 9.89L50.02 9.89Q50.50 9.89 50.96 9.88Q51.42 9.86 51.75 9.82L51.75 9.82L51.75 7.22Q51.46 7.18 51.06 7.14Q50.65 7.10 50.31 7.10L50.31 7.10Q49.86 7.10 49.42 7.16Q48.99 7.22 48.67 7.37Q48.34 7.51 48.15 7.78Q47.96 8.04 47.96 8.47L47.96 8.47Q47.96 9.24 48.54 9.56Q49.11 9.89 50.02 9.89ZM49.76 0.43L49.76 0.43Q51.15 0.43 52.08 0.76Q53 1.08 53.55 1.67Q54.10 2.26 54.34 3.11Q54.58 3.96 54.58 5.02L54.58 5.02L54.58 11.74Q53.94 11.88 52.66 12.07Q51.39 12.26 49.81 12.26L49.81 12.26Q48.73 12.26 47.85 12.07Q46.98 11.88 46.35 11.44Q45.73 10.99 45.39 10.28Q45.06 9.58 45.06 8.54L45.06 8.54Q45.06 7.56 45.44 6.89Q45.82 6.22 46.47 5.81Q47.12 5.40 47.96 5.22Q48.80 5.04 49.71 5.04L49.71 5.04Q50.86 5.04 51.75 5.23L51.75 5.23L51.75 4.87Q51.75 4.03 51.22 3.47Q50.70 2.90 49.40 2.90L49.40 2.90Q48.56 2.90 47.78 3.02Q47 3.14 46.52 3.31L46.52 3.31L46.11 0.94Q46.66 0.74 47.67 0.59Q48.68 0.43 49.76 0.43Z"/></g></svg>