<?xml version="1.0" encoding="UTF-8"?>
<svg height="34" width="102.5" version="1.1" xmlns="http://www.w3.org/2000/svg"><!--Created by Josélio de S. C. Júnior - 2021 - https://github.com/joseliojunior -->
    <rect
        height="32"
        width="100.5"
        rx="1"
        ry="1"
        x="1" y="1"
        fill="#FFEC25"
        stroke="#8a7e00"
        stroke-width="1" />
    <g transform="translate(0, 12)">
        <path fill="#8a7e00" stroke="none" d="M24.25-0.38L24.25 9.60Q24.37 9.62 24.51 9.62Q24.66 9.62 24.78 9.62L24.78 9.62Q25.78 9.62 26.47 9.24Q27.15 8.86 27.57 8.18Q27.99 7.51 28.17 6.59Q28.35 5.66 28.35 4.56L28.35 4.56Q28.35 3.60 28.21 2.69Q28.06 1.78 27.70 1.08Q27.34 0.38 26.72-0.04Q26.10-0.46 25.11-0.46L25.11-0.46Q24.92-0.46 24.68-0.44Q24.44-0.43 24.25-0.38L24.25-0.38ZM31.35 4.56L31.35 4.56Q31.35 6.62 30.84 8.08Q30.32 9.53 29.41 10.44Q28.50 11.35 27.24 11.77Q25.98 12.19 24.46 12.19L24.46 12.19Q23.67 12.19 22.92 12.11Q22.16 12.02 21.30 11.83L21.30 11.83L21.30-2.66Q22.30-2.88 23.19-2.95Q24.08-3.02 24.85-3.02L24.85-3.02Q26.31-3.02 27.52-2.59Q28.74-2.16 29.58-1.24Q30.42-0.31 30.88 1.12Q31.35 2.54 31.35 4.56ZM38.02 9.89L38.02 9.89Q38.50 9.89 38.96 9.88Q39.42 9.86 39.75 9.82L39.75 9.82L39.75 7.22Q39.46 7.18 39.06 7.14Q38.65 7.10 38.31 7.10L38.31 7.10Q37.86 7.10 37.42 7.16Q36.99 7.22 36.67 7.37Q36.34 7.51 36.15 7.78Q35.96 8.04 35.96 8.47L35.96 8.47Q35.96 9.24 36.54 9.56Q37.11 9.89 38.02 9.89ZM37.76 0.43L37.76 0.43Q39.15 0.43 40.08 0.76Q41 1.08 41.55 1.67Q42.10 2.26 42.34 3.11Q42.58 3.96 42.58 5.02L42.58 5.02L42.58 11.74Q41.94 11.88 40.66 12.07Q39.39 12.26 37.81 12.26L37.81 12.26Q36.73 12.26 35.85 12.07Q34.98 11.88 34.35 11.44Q33.73 10.99 33.39 10.28Q33.06 9.58 33.06 8.54L33.06 8.54Q33.06 7.56 33.44 6.89Q33.82 6.22 34.47 5.81Q35.12 5.40 35.96 5.22Q36.80 5.04 37.71 5.04L37.71 5.04Q38.86 5.04 39.75 5.23L39.75 5.23L39.75 4.87Q39.75 4.03 39.22 3.47Q38.70 2.90 37.40 2.90L37.40 2.90Q36.56 2.90 35.78 3.02Q35 3.14 34.52 3.31L34.52 3.31L34.11 0.94Q34.66 0.74 35.67 0.59Q36.68 0.43 37.76 0.43ZM50.31 12L47.34 12L47.34 3.17L44.86 3.17L44.86 0.72L47.34 0.72L47.34 0.07Q47.34-1.30 47.73-2.20Q48.13-3.10 48.80-3.64Q49.47-4.18 50.34-4.40Q51.20-4.63 52.11-4.63L52.11-4.63Q53.05-4.63 54.03-4.46Q55.02-4.30 55.81-3.91L55.81-3.91L55.30-1.51Q54.75-1.70 53.92-1.91Q53.10-2.11 52.35-2.11L52.35-2.11Q51.94-2.11 51.57-2.04Q51.20-1.97 50.92-1.73Q50.65-1.49 50.48-1.04Q50.31-0.60 50.31 0.12L50.31 0.12L50.31 0.72L54.94 0.72L54.94 3.17L50.31 3.17L50.31 12ZM57.51 12L57.51 1.08Q58.30 0.86 59.47 0.67Q60.63 0.48 62 0.48L62 0.48Q63.34 0.48 64.23 0.85Q65.12 1.22 65.64 1.91Q66.15 2.59 66.37 3.54Q66.58 4.49 66.58 5.64L66.58 5.64L66.58 12L63.63 12L63.63 6.02Q63.63 4.44 63.27 3.74Q62.91 3.05 61.81 3.05L61.81 3.05Q61.47 3.05 61.15 3.07Q60.82 3.10 60.46 3.14L60.46 3.14L60.46 12L57.51 12ZM76.30 0.72L79.33 0.72Q78.87 2.30 78.45 3.83Q78.03 5.35 77.58 6.80Q77.12 8.26 76.60 9.65Q76.09 11.04 75.49 12.36L75.49 12.36Q75.03 13.32 74.59 14.02Q74.14 14.71 73.60 15.16Q73.06 15.60 72.40 15.82Q71.74 16.03 70.86 16.03L70.86 16.03Q70.11 16.03 69.50 15.91Q68.89 15.79 68.48 15.60L68.48 15.60L69.03 13.13Q69.51 13.34 69.88 13.43Q70.26 13.51 70.69 13.51L70.69 13.51Q71.55 13.51 72.08 12.94Q72.61 12.36 72.92 11.57L72.92 11.57Q71.86 9.46 70.81 6.73Q69.75 4.01 68.89 0.72L68.89 0.72L71.96 0.72Q72.18 1.61 72.45 2.62Q72.73 3.62 73.04 4.63Q73.35 5.64 73.70 6.61Q74.05 7.58 74.41 8.42L74.41 8.42Q74.65 7.58 74.91 6.61Q75.18 5.64 75.42 4.64Q75.66 3.65 75.88 2.64Q76.11 1.63 76.30 0.72L76.30 0.72Z"/>
    </g>
</svg>