<?xml version="1.0" encoding="UTF-8"?>
<svg height="34" width="187.2" version="1.1" xmlns="http://www.w3.org/2000/svg"><!--Created by Josélio de S. C. Júnior - 2021 - https://github.com/joseliojunior -->
    <defs>
        <pattern id="pattern"
                x="3" y="3" width="6" height="6"
                patternUnits="userSpaceOnUse"
                patternTransform="rotate(45)" >
            <rect height="6" width="6"
                fill="#ffffff"/>
            <line x1="0" y1="0" x2="0" y2="6"
                stroke="#888888"
                stroke-width="2" />
        </pattern>
    </defs>
    <rect
        height="32"
        width="185.2"
        rx="1"
        ry="1"
        x="1" y="1"
        fill="url(#pattern)" />
    <g transform="translate(0, 12)">
        <path fill="#000000" d="M25.57 9.84L25.57 9.84Q26.31 9.84 26.80 9.68Q27.30 9.53 27.58 9.25Q27.87 8.98 27.98 8.63Q28.09 8.28 28.09 7.92L28.09 7.92Q28.09 7.46 27.82 7.10Q27.56 6.74 27.15 6.47Q26.74 6.19 26.24 5.96Q25.74 5.74 25.23 5.54L25.23 5.54Q24.56 5.30 23.84 4.99Q23.12 4.68 22.53 4.20Q21.94 3.72 21.56 3.01Q21.18 2.30 21.18 1.25L21.18 1.25Q21.18-0.84 22.53-2.02Q23.89-3.19 26.26-3.19L26.26-3.19Q27.63-3.19 28.65-2.88Q29.67-2.57 30.37-2.18L30.37-2.18L29.50 0.10Q28.90-0.24 28.17-0.48Q27.44-0.72 26.48-0.72L26.48-0.72Q24.13-0.72 24.13 0.98L24.13 0.98Q24.13 1.42 24.37 1.74Q24.61 2.06 24.98 2.32Q25.35 2.57 25.82 2.76Q26.29 2.95 26.74 3.12L26.74 3.12Q27.44 3.38 28.20 3.71Q28.95 4.03 29.59 4.57Q30.22 5.11 30.63 5.92Q31.04 6.72 31.04 7.94L31.04 7.94Q31.04 10.03 29.68 11.17Q28.33 12.31 25.57 12.31L25.57 12.31Q23.72 12.31 22.62 11.92Q21.51 11.52 20.96 11.18L20.96 11.18L21.82 8.78Q22.47 9.17 23.37 9.50Q24.27 9.84 25.57 9.84ZM36.46 12L33.51 12L33.51-4.15L36.46-4.66L36.46 0.82Q36.82 0.70 37.33 0.59Q37.83 0.48 38.22 0.48L38.22 0.48Q39.46 0.48 40.30 0.85Q41.14 1.22 41.65 1.91Q42.15 2.59 42.37 3.54Q42.58 4.49 42.58 5.64L42.58 5.64L42.58 12L39.63 12L39.63 6.02Q39.63 4.44 39.27 3.74Q38.91 3.05 37.90 3.05L37.90 3.05Q37.50 3.05 37.10 3.14Q36.70 3.24 36.46 3.31L36.46 3.31L36.46 12ZM44.74 6.46L44.74 6.46Q44.74 4.97 45.20 3.84Q45.66 2.71 46.40 1.96Q47.14 1.20 48.10 0.82Q49.06 0.43 50.07 0.43L50.07 0.43Q52.57 0.43 53.86 1.91Q55.16 3.38 55.16 6.22L55.16 6.22Q55.16 6.50 55.15 6.82Q55.14 7.13 55.11 7.32L55.11 7.32L47.79 7.32Q47.79 8.42 48.70 9.06Q49.62 9.70 51.06 9.70L51.06 9.70Q51.94 9.70 52.75 9.50Q53.55 9.31 54.10 9.12L54.10 9.12L54.51 11.64Q53.74 11.90 52.88 12.08Q52.02 12.26 50.94 12.26L50.94 12.26Q49.50 12.26 48.36 11.89Q47.22 11.52 46.41 10.79Q45.61 10.06 45.18 8.98Q44.74 7.90 44.74 6.46ZM47.79 5.28L52.30 5.28Q52.30 4.82 52.18 4.40Q52.06 3.98 51.80 3.65Q51.54 3.31 51.13 3.11Q50.72 2.90 50.12 2.90L50.12 2.90Q49.54 2.90 49.12 3.10Q48.70 3.29 48.43 3.62Q48.15 3.96 48.00 4.39Q47.84 4.82 47.79 5.28L47.79 5.28ZM66.82 9.14L67.21 11.52Q67.14 11.57 66.88 11.69Q66.63 11.81 66.22 11.94Q65.82 12.07 65.23 12.17Q64.64 12.26 63.90 12.26L63.90 12.26Q61.86 12.26 60.92 11.05Q59.98 9.84 59.98 7.51L59.98 7.51L59.98-2.06L56.86-2.06L56.86-4.51L62.94-4.51L62.94 7.73Q62.94 8.88 63.39 9.29Q63.85 9.70 64.54 9.70L64.54 9.70Q65.43 9.70 66.03 9.46Q66.63 9.22 66.82 9.14L66.82 9.14ZM78.82 9.14L79.21 11.52Q79.14 11.57 78.88 11.69Q78.63 11.81 78.22 11.94Q77.82 12.07 77.23 12.17Q76.64 12.26 75.90 12.26L75.90 12.26Q73.86 12.26 72.92 11.05Q71.98 9.84 71.98 7.51L71.98 7.51L71.98-2.06L68.86-2.06L68.86-4.51L74.94-4.51L74.94 7.73Q74.94 8.88 75.39 9.29Q75.85 9.70 76.54 9.70L76.54 9.70Q77.43 9.70 78.03 9.46Q78.63 9.22 78.82 9.14L78.82 9.14ZM85.57 9.84L85.57 9.84Q86.31 9.84 86.80 9.68Q87.30 9.53 87.58 9.25Q87.87 8.98 87.98 8.63Q88.09 8.28 88.09 7.92L88.09 7.92Q88.09 7.46 87.82 7.10Q87.56 6.74 87.15 6.47Q86.74 6.19 86.24 5.96Q85.74 5.74 85.23 5.54L85.23 5.54Q84.56 5.30 83.84 4.99Q83.12 4.68 82.53 4.20Q81.94 3.72 81.56 3.01Q81.18 2.30 81.18 1.25L81.18 1.25Q81.18-0.84 82.53-2.02Q83.89-3.19 86.26-3.19L86.26-3.19Q87.63-3.19 88.65-2.88Q89.67-2.57 90.37-2.18L90.37-2.18L89.50 0.10Q88.90-0.24 88.17-0.48Q87.44-0.72 86.48-0.72L86.48-0.72Q84.13-0.72 84.13 0.98L84.13 0.98Q84.13 1.42 84.37 1.74Q84.61 2.06 84.98 2.32Q85.35 2.57 85.82 2.76Q86.29 2.95 86.74 3.12L86.74 3.12Q87.44 3.38 88.20 3.71Q88.95 4.03 89.59 4.57Q90.22 5.11 90.63 5.92Q91.04 6.72 91.04 7.94L91.04 7.94Q91.04 10.03 89.68 11.17Q88.33 12.31 85.57 12.31L85.57 12.31Q83.72 12.31 82.62 11.92Q81.51 11.52 80.96 11.18L80.96 11.18L81.82 8.78Q82.47 9.17 83.37 9.50Q84.27 9.84 85.57 9.84ZM92.74 6.46L92.74 6.46Q92.74 4.97 93.20 3.84Q93.66 2.71 94.40 1.96Q95.14 1.20 96.10 0.82Q97.06 0.43 98.07 0.43L98.07 0.43Q100.57 0.43 101.86 1.91Q103.16 3.38 103.16 6.22L103.16 6.22Q103.16 6.50 103.15 6.82Q103.14 7.13 103.11 7.32L103.11 7.32L95.79 7.32Q95.79 8.42 96.70 9.06Q97.62 9.70 99.06 9.70L99.06 9.70Q99.94 9.70 100.75 9.50Q101.55 9.31 102.10 9.12L102.10 9.12L102.51 11.64Q101.74 11.90 100.88 12.08Q100.02 12.26 98.94 12.26L98.94 12.26Q97.50 12.26 96.36 11.89Q95.22 11.52 94.41 10.79Q93.61 10.06 93.18 8.98Q92.74 7.90 92.74 6.46ZM95.79 5.28L100.30 5.28Q100.30 4.82 100.18 4.40Q100.06 3.98 99.80 3.65Q99.54 3.31 99.13 3.11Q98.72 2.90 98.12 2.90L98.12 2.90Q97.54 2.90 97.12 3.10Q96.70 3.29 96.43 3.62Q96.15 3.96 96.00 4.39Q95.84 4.82 95.79 5.28L95.79 5.28ZM109.47 9.77L109.47 9.77Q110.55 9.77 111.13 9.61Q111.70 9.46 111.70 8.98L111.70 8.98Q111.70 8.66 111.52 8.45Q111.34 8.23 111.02 8.08Q110.70 7.92 110.28 7.78Q109.86 7.63 109.40 7.49L109.40 7.49Q108.75 7.30 108.08 7.04Q107.41 6.79 106.86 6.41Q106.30 6.02 105.94 5.44Q105.58 4.85 105.58 3.96L105.58 3.96Q105.58 3.24 105.86 2.60Q106.14 1.97 106.72 1.48Q107.31 0.98 108.22 0.71Q109.14 0.43 110.41 0.43L110.41 0.43Q111.51 0.43 112.46 0.60Q113.41 0.77 114.10 1.08L114.10 1.08L113.65 3.58Q113.24 3.46 112.38 3.18Q111.51 2.90 110.43 2.90L110.43 2.90Q109.30 2.90 108.91 3.18Q108.51 3.46 108.51 3.77L108.51 3.77Q108.51 4.03 108.69 4.24Q108.87 4.44 109.17 4.61Q109.47 4.78 109.87 4.93Q110.26 5.09 110.72 5.23L110.72 5.23Q111.37 5.45 112.06 5.71Q112.76 5.98 113.32 6.37Q113.89 6.77 114.25 7.38Q114.61 7.99 114.61 8.88L114.61 8.88Q114.61 9.58 114.34 10.20Q114.08 10.82 113.47 11.28Q112.86 11.74 111.87 12Q110.89 12.26 109.45 12.26L109.45 12.26Q107.98 12.26 106.95 11.93Q105.92 11.59 105.30 11.33L105.30 11.33L105.75 8.86Q106.59 9.19 107.54 9.48Q108.49 9.77 109.47 9.77ZM121.47 9.77L121.47 9.77Q122.55 9.77 123.13 9.61Q123.70 9.46 123.70 8.98L123.70 8.98Q123.70 8.66 123.52 8.45Q123.34 8.23 123.02 8.08Q122.70 7.92 122.28 7.78Q121.86 7.63 121.40 7.49L121.40 7.49Q120.75 7.30 120.08 7.04Q119.41 6.79 118.86 6.41Q118.30 6.02 117.94 5.44Q117.58 4.85 117.58 3.96L117.58 3.96Q117.58 3.24 117.86 2.60Q118.14 1.97 118.72 1.48Q119.31 0.98 120.22 0.71Q121.14 0.43 122.41 0.43L122.41 0.43Q123.51 0.43 124.46 0.60Q125.41 0.77 126.10 1.08L126.10 1.08L125.65 3.58Q125.24 3.46 124.38 3.18Q123.51 2.90 122.43 2.90L122.43 2.90Q121.30 2.90 120.91 3.18Q120.51 3.46 120.51 3.77L120.51 3.77Q120.51 4.03 120.69 4.24Q120.87 4.44 121.17 4.61Q121.47 4.78 121.87 4.93Q122.26 5.09 122.72 5.23L122.72 5.23Q123.37 5.45 124.06 5.71Q124.76 5.98 125.32 6.37Q125.89 6.77 126.25 7.38Q126.61 7.99 126.61 8.88L126.61 8.88Q126.61 9.58 126.34 10.20Q126.08 10.82 125.47 11.28Q124.86 11.74 123.87 12Q122.89 12.26 121.45 12.26L121.45 12.26Q119.98 12.26 118.95 11.93Q117.92 11.59 117.30 11.33L117.30 11.33L117.75 8.86Q118.59 9.19 119.54 9.48Q120.49 9.77 121.47 9.77ZM134.82-2.52L134.82-2.52Q134.82-1.66 134.26-1.15Q133.71-0.65 132.94-0.65L132.94-0.65Q132.18-0.65 131.64-1.15Q131.10-1.66 131.10-2.52L131.10-2.52Q131.10-3.41 131.64-3.91Q132.18-4.42 132.94-4.42L132.94-4.42Q133.71-4.42 134.26-3.91Q134.82-3.41 134.82-2.52ZM138.82 9.14L139.21 11.52Q138.30 11.95 137.49 12.11Q136.69 12.26 136.02 12.26L136.02 12.26Q134.86 12.26 134.08 11.93Q133.30 11.59 132.84 10.96Q132.37 10.32 132.18 9.41Q131.98 8.50 131.98 7.32L131.98 7.32L131.98 3.17L128.86 3.17L128.86 0.72L134.94 0.72L134.94 7.70Q134.94 8.71 135.31 9.20Q135.68 9.70 136.54 9.70L136.54 9.70Q136.95 9.70 137.53 9.59Q138.10 9.48 138.82 9.14L138.82 9.14ZM151.33 6.34L151.33 6.34Q151.33 7.68 150.94 8.77Q150.56 9.86 149.86 10.66Q149.17 11.45 148.20 11.88Q147.22 12.31 146.02 12.31L146.02 12.31Q144.82 12.31 143.85 11.88Q142.88 11.45 142.17 10.66Q141.46 9.86 141.08 8.77Q140.70 7.68 140.70 6.34L140.70 6.34Q140.70 5.02 141.09 3.92Q141.49 2.83 142.20 2.05Q142.90 1.27 143.89 0.85Q144.87 0.43 146.02 0.43L146.02 0.43Q147.20 0.43 148.17 0.85Q149.14 1.27 149.85 2.05Q150.56 2.83 150.94 3.92Q151.33 5.02 151.33 6.34ZM143.70 6.36L143.70 6.36Q143.70 7.87 144.24 8.81Q144.78 9.74 145.98 9.74L145.98 9.74Q147.13 9.74 147.72 8.81Q148.30 7.87 148.30 6.36L148.30 6.36Q148.30 4.85 147.76 3.92Q147.22 3 146.02 3L146.02 3Q144.87 3 144.28 3.92Q143.70 4.85 143.70 6.36ZM153.51 12L153.51 1.08Q154.30 0.86 155.47 0.67Q156.63 0.48 158 0.48L158 0.48Q159.34 0.48 160.23 0.85Q161.12 1.22 161.64 1.91Q162.15 2.59 162.37 3.54Q162.58 4.49 162.58 5.64L162.58 5.64L162.58 12L159.63 12L159.63 6.02Q159.63 4.44 159.27 3.74Q158.91 3.05 157.81 3.05L157.81 3.05Q157.47 3.05 157.15 3.07Q156.82 3.10 156.46 3.14L156.46 3.14L156.46 12L153.51 12Z"/>
    </g>
</svg>