<?xml version="1.0" encoding="UTF-8"?>
<svg height="34" width="163" version="1.1" xmlns="http://www.w3.org/2000/svg">
    <rect
        height="32"
        width="161"
        rx="14"
        ry="14"
        x="1"
        y="1"
        fill="#f69e1d"
        stroke="#764805"
        stroke-width="1"
         />
    <g transform="translate(0, 14)">
        <path fill="#764805" d="M16.50 8.48L16.50 8.48Q17.36 8.48 17.94 8.30Q18.51 8.12 18.85 7.79Q19.18 7.47 19.31 7.07Q19.44 6.66 19.44 6.24L19.44 6.24Q19.44 5.71 19.13 5.29Q18.82 4.87 18.34 4.55Q17.87 4.22 17.28 3.96Q16.69 3.69 16.10 3.47L16.10 3.47Q15.32 3.19 14.48 2.82Q13.64 2.46 12.95 1.90Q12.27 1.34 11.82 0.51Q11.37-0.31 11.37-1.54L11.37-1.54Q11.37-3.98 12.95-5.35Q14.54-6.72 17.31-6.72L17.31-6.72Q18.90-6.72 20.09-6.36Q21.28-6.00 22.10-5.55L22.10-5.55L21.09-2.89Q20.39-3.28 19.53-3.56Q18.68-3.84 17.56-3.84L17.56-3.84Q14.82-3.84 14.82-1.85L14.82-1.85Q14.82-1.35 15.10-0.97Q15.38-0.59 15.81-0.30Q16.24-0.00 16.79 0.22Q17.34 0.44 17.87 0.64L17.87 0.64Q18.68 0.95 19.56 1.33Q20.44 1.70 21.19 2.33Q21.93 2.96 22.40 3.90Q22.88 4.84 22.88 6.27L22.88 6.27Q22.88 8.70 21.30 10.03Q19.72 11.36 16.50 11.36L16.50 11.36Q14.34 11.36 13.05 10.90Q11.76 10.44 11.12 10.05L11.12 10.05L12.13 7.25Q12.88 7.70 13.93 8.09Q14.98 8.48 16.50 8.48ZM37.22 4.39L37.22 4.39Q37.22 5.96 36.77 7.23Q36.32 8.51 35.51 9.43Q34.70 10.36 33.56 10.86Q32.43 11.36 31.03 11.36L31.03 11.36Q29.63 11.36 28.49 10.86Q27.36 10.36 26.53 9.43Q25.71 8.51 25.26 7.23Q24.81 5.96 24.81 4.39L24.81 4.39Q24.81 2.85 25.27 1.58Q25.74 0.30 26.56-0.61Q27.39-1.52 28.54-2.01Q29.68-2.50 31.03-2.50L31.03-2.50Q32.40-2.50 33.53-2.01Q34.67-1.52 35.49-0.61Q36.32 0.30 36.77 1.58Q37.22 2.85 37.22 4.39ZM28.31 4.42L28.31 4.42Q28.31 6.18 28.94 7.28Q29.57 8.37 30.97 8.37L30.97 8.37Q32.32 8.37 33.00 7.28Q33.69 6.18 33.69 4.42L33.69 4.42Q33.69 2.66 33.06 1.58Q32.43 0.50 31.03 0.50L31.03 0.50Q29.68 0.50 29.00 1.58Q28.31 2.66 28.31 4.42ZM50.26-2.16L50.26 10.55Q49.31 10.80 47.95 11.06Q46.60 11.31 45 11.31L45 11.31Q43.38 11.31 42.34 10.86Q41.30 10.41 40.70 9.59Q40.10 8.76 39.88 7.64Q39.65 6.52 39.65 5.18L39.65 5.18L39.65-2.16L43.10-2.16L43.10 4.73Q43.10 6.55 43.53 7.43Q43.96 8.31 45.22 8.31L45.22 8.31Q46.01 8.31 46.79 8.17L46.79 8.17L46.79-2.16L50.26-2.16ZM64.85-1.85L64.24 1.34Q63.90 1.26 63.44 1.17Q62.98 1.09 62.50 1.02Q62.02 0.95 61.58 0.92Q61.13 0.89 60.82 0.89L60.82 0.89Q60.09 0.89 59.39 0.96Q58.69 1.03 57.96 1.23L57.96 1.23L57.96 11L54.49 11L54.49-1.29Q55.86-1.80 57.31-2.10Q58.75-2.41 60.68-2.41L60.68-2.41Q60.96-2.41 61.48-2.38Q62.00-2.36 62.58-2.29Q63.17-2.22 63.77-2.12Q64.38-2.02 64.85-1.85L64.85-1.85ZM67.23 4.42L67.23 4.42Q67.23 2.99 67.68 1.73Q68.13 0.47 69.05-0.47Q69.98-1.40 71.39-1.95Q72.80-2.50 74.76-2.50L74.76-2.50Q75.94-2.50 76.89-2.33Q77.84-2.16 78.82-1.77L78.82-1.77L78.07 1.00Q77.51 0.81 76.82 0.65Q76.14 0.50 75.07 0.50L75.07 0.50Q73.84 0.50 73.01 0.79Q72.19 1.09 71.68 1.61Q71.18 2.12 70.96 2.85Q70.73 3.58 70.73 4.42L70.73 4.42Q70.73 6.24 71.75 7.28Q72.78 8.31 75.24 8.31L75.24 8.31Q76.05 8.31 76.93 8.20Q77.82 8.09 78.54 7.84L78.54 7.84L79.05 10.66Q78.32 10.94 77.28 11.13Q76.25 11.31 74.85 11.31L74.85 11.31Q72.83 11.31 71.39 10.78Q69.95 10.24 69.02 9.32Q68.10 8.40 67.67 7.14Q67.23 5.88 67.23 4.42ZM80.87 4.53L80.87 4.53Q80.87 2.80 81.40 1.48Q81.93 0.16 82.80-0.72Q83.67-1.60 84.79-2.05Q85.91-2.50 87.08-2.50L87.08-2.50Q90.00-2.50 91.51-0.77Q93.02 0.95 93.02 4.25L93.02 4.25Q93.02 4.59 93.01 4.95Q92.99 5.32 92.96 5.54L92.96 5.54L84.42 5.54Q84.42 6.83 85.49 7.57Q86.55 8.31 88.23 8.31L88.23 8.31Q89.27 8.31 90.21 8.09Q91.14 7.86 91.79 7.64L91.79 7.64L92.26 10.58Q91.37 10.89 90.36 11.10Q89.35 11.31 88.09 11.31L88.09 11.31Q86.41 11.31 85.08 10.87Q83.75 10.44 82.81 9.59Q81.88 8.73 81.37 7.47Q80.87 6.21 80.87 4.53ZM84.42 3.16L89.69 3.16Q89.69 2.63 89.55 2.14Q89.41 1.65 89.10 1.26Q88.79 0.86 88.32 0.63Q87.84 0.39 87.14 0.39L87.14 0.39Q86.47 0.39 85.98 0.61Q85.49 0.84 85.17 1.23Q84.84 1.62 84.66 2.12Q84.48 2.63 84.42 3.16L84.42 3.16ZM100.27-6.53L100.27-6.53Q103.58-6.53 105.40-5.17Q107.22-3.81 107.22-0.73L107.22-0.73Q107.22 2.38 105.38 3.76Q103.55 5.15 100.19 5.15L100.19 5.15L98.96 5.15L98.96 11L95.51 11L95.51-6.11Q96.02-6.22 96.65-6.30Q97.28-6.39 97.92-6.43Q98.56-6.47 99.18-6.50Q99.80-6.53 100.27-6.53ZM100.66-3.53L100.66-3.53Q100.36-3.53 99.81-3.52Q99.26-3.50 98.96-3.45L98.96-3.45L98.96 2.15L100.36 2.15Q102.01 2.15 102.85 1.49Q103.69 0.84 103.69-0.76L103.69-0.76Q103.69-2.27 102.86-2.90Q102.04-3.53 100.66-3.53ZM115.03 8.54L115.03 8.54Q115.59 8.54 116.12 8.52Q116.65 8.51 117.04 8.45L117.04 8.45L117.04 5.43Q116.71 5.37 116.23 5.33Q115.76 5.29 115.36 5.29L115.36 5.29Q114.83 5.29 114.33 5.36Q113.82 5.43 113.45 5.60Q113.07 5.76 112.84 6.07Q112.62 6.38 112.62 6.88L112.62 6.88Q112.62 7.78 113.29 8.16Q113.96 8.54 115.03 8.54ZM114.72-2.50L114.72-2.50Q116.34-2.50 117.42-2.12Q118.50-1.74 119.14-1.05Q119.79-0.37 120.07 0.63Q120.35 1.62 120.35 2.85L120.35 2.85L120.35 10.69Q119.59 10.86 118.11 11.08Q116.62 11.31 114.78 11.31L114.78 11.31Q113.52 11.31 112.49 11.08Q111.47 10.86 110.74 10.34Q110.02 9.82 109.62 9.00Q109.23 8.17 109.23 6.97L109.23 6.97Q109.23 5.82 109.68 5.04Q110.13 4.25 110.88 3.78Q111.64 3.30 112.62 3.09Q113.60 2.88 114.66 2.88L114.66 2.88Q116.01 2.88 117.04 3.10L117.04 3.10L117.04 2.68Q117.04 1.70 116.43 1.05Q115.81 0.39 114.30 0.39L114.30 0.39Q113.32 0.39 112.41 0.53Q111.50 0.67 110.94 0.86L110.94 0.86L110.46-1.91Q111.11-2.13 112.28-2.31Q113.46-2.50 114.72-2.50ZM133.62 11L131.02 11Q130.71 10.13 130.44 9.40Q130.18 8.68 129.94 7.99Q129.70 7.30 129.46 6.56Q129.22 5.82 128.97 4.92L128.97 4.92Q128.69 5.82 128.47 6.53Q128.24 7.25 128.01 7.95Q127.77 8.65 127.52 9.38Q127.26 10.10 126.90 11L126.90 11L124.30 11Q123.96 9.77 123.67 8.27Q123.37 6.77 123.12 5.08Q122.87 3.38 122.67 1.56Q122.48-0.26 122.31-2.16L122.31-2.16L125.25-2.16Q125.36 0.28 125.49 2.60Q125.61 4.92 125.95 7.39L125.95 7.39Q126.31 6.32 126.58 5.41Q126.84 4.50 127.05 3.68Q127.26 2.85 127.45 2.08Q127.63 1.31 127.82 0.50L127.82 0.50L130.32 0.50Q130.48 1.31 130.67 2.08Q130.85 2.85 131.06 3.68Q131.27 4.50 131.51 5.41Q131.74 6.32 132.08 7.39L132.08 7.39Q132.25 6.10 132.36 4.92Q132.47 3.75 132.54 2.59Q132.61 1.42 132.65 0.26Q132.70-0.90 132.75-2.16L132.75-2.16L135.69-2.16Q135.38 1.68 134.84 5.06Q134.29 8.45 133.62 11L133.62 11ZM137.76 11L137.76-1.74Q138.69-1.99 140.05-2.22Q141.40-2.44 143-2.44L143-2.44Q144.57-2.44 145.60-2.01Q146.64-1.57 147.24-0.77Q147.84 0.02 148.10 1.13Q148.35 2.24 148.35 3.58L148.35 3.58L148.35 11L144.90 11L144.90 4.03Q144.90 2.18 144.48 1.37Q144.06 0.56 142.78 0.56L142.78 0.56Q142.38 0.56 142.01 0.58Q141.63 0.61 141.21 0.67L141.21 0.67L141.21 11L137.76 11Z"/>
    </g>
</svg>