<?xml version="1.0" encoding="UTF-8"?><svg height="26" width="123" version="1.1" xmlns="http://www.w3.org/2000/svg"><!--Created by Josélio de S. C. Júnior - 2021 - https://github.com/joseliojunior --><rect height="24" width="121" rx="1" ry="1" x="1" y="1" fill="#f69e1d" stroke="#764805" stroke-width="1" /><g transform="translate(0, 8)"><path fill="#764805" d="M23.71 8.56L23.71 8.56Q24.21 8.56 24.54 8.46Q24.86 8.35 25.06 8.17Q25.25 7.98 25.32 7.75Q25.39 7.52 25.39 7.28L25.39 7.28Q25.39 6.98 25.22 6.74Q25.04 6.50 24.77 6.31Q24.50 6.13 24.16 5.98Q23.82 5.82 23.49 5.70L23.49 5.70Q23.04 5.54 22.56 5.33Q22.08 5.12 21.69 4.80Q21.30 4.48 21.04 4.01Q20.78 3.54 20.78 2.83L20.78 2.83Q20.78 1.44 21.69 0.66Q22.59-0.13 24.18-0.13L24.18-0.13Q25.09-0.13 25.77 0.08Q26.45 0.29 26.91 0.54L26.91 0.54L26.34 2.06Q25.94 1.84 25.45 1.68Q24.96 1.52 24.32 1.52L24.32 1.52Q22.75 1.52 22.75 2.66L22.75 2.66Q22.75 2.94 22.91 3.16Q23.07 3.38 23.32 3.54Q23.57 3.71 23.88 3.84Q24.19 3.97 24.50 4.08L24.50 4.08Q24.96 4.26 25.46 4.47Q25.97 4.69 26.39 5.05Q26.82 5.41 27.09 5.94Q27.36 6.48 27.36 7.30L27.36 7.30Q27.36 8.69 26.46 9.45Q25.55 10.21 23.71 10.21L23.71 10.21Q22.48 10.21 21.74 9.94Q21.01 9.68 20.64 9.46L20.64 9.46L21.22 7.86Q21.65 8.11 22.25 8.34Q22.85 8.56 23.71 8.56ZM35.55 6.22L35.55 6.22Q35.55 7.12 35.30 7.85Q35.04 8.58 34.58 9.10Q34.11 9.63 33.46 9.92Q32.82 10.21 32.02 10.21L32.02 10.21Q31.22 10.21 30.57 9.92Q29.92 9.63 29.45 9.10Q28.98 8.58 28.72 7.85Q28.46 7.12 28.46 6.22L28.46 6.22Q28.46 5.34 28.73 4.62Q28.99 3.89 29.46 3.37Q29.94 2.85 30.59 2.57Q31.25 2.29 32.02 2.29L32.02 2.29Q32.80 2.29 33.45 2.57Q34.10 2.85 34.57 3.37Q35.04 3.89 35.30 4.62Q35.55 5.34 35.55 6.22ZM30.46 6.24L30.46 6.24Q30.46 7.25 30.82 7.87Q31.18 8.50 31.98 8.50L31.98 8.50Q32.75 8.50 33.14 7.87Q33.54 7.25 33.54 6.24L33.54 6.24Q33.54 5.23 33.18 4.62Q32.82 4 32.02 4L32.02 4Q31.25 4 30.86 4.62Q30.46 5.23 30.46 6.24ZM43.01 2.48L43.01 9.74Q42.46 9.89 41.69 10.03Q40.91 10.18 40 10.18L40 10.18Q39.07 10.18 38.48 9.92Q37.89 9.66 37.54 9.19Q37.20 8.72 37.07 8.08Q36.94 7.44 36.94 6.67L36.94 6.67L36.94 2.48L38.91 2.48L38.91 6.42Q38.91 7.46 39.16 7.96Q39.41 8.46 40.13 8.46L40.13 8.46Q40.58 8.46 41.02 8.38L41.02 8.38L41.02 2.48L43.01 2.48ZM51.34 2.66L50.99 4.48Q50.80 4.43 50.54 4.38Q50.27 4.34 50 4.30Q49.73 4.26 49.47 4.24Q49.22 4.22 49.04 4.22L49.04 4.22Q48.62 4.22 48.22 4.26Q47.82 4.30 47.41 4.42L47.41 4.42L47.41 10L45.42 10L45.42 2.98Q46.21 2.69 47.03 2.51Q47.86 2.34 48.96 2.34L48.96 2.34Q49.12 2.34 49.42 2.35Q49.71 2.37 50.05 2.41Q50.38 2.45 50.73 2.50Q51.07 2.56 51.34 2.66L51.34 2.66ZM52.70 6.24L52.70 6.24Q52.70 5.42 52.96 4.70Q53.22 3.98 53.74 3.45Q54.27 2.91 55.08 2.60Q55.89 2.29 57.01 2.29L57.01 2.29Q57.68 2.29 58.22 2.38Q58.77 2.48 59.33 2.70L59.33 2.70L58.90 4.29Q58.58 4.18 58.18 4.09Q57.79 4 57.18 4L57.18 4Q56.48 4 56.01 4.17Q55.54 4.34 55.25 4.63Q54.96 4.93 54.83 5.34Q54.70 5.76 54.70 6.24L54.70 6.24Q54.70 7.28 55.29 7.87Q55.87 8.46 57.28 8.46L57.28 8.46Q57.74 8.46 58.25 8.40Q58.75 8.34 59.17 8.19L59.17 8.19L59.46 9.81Q59.04 9.97 58.45 10.07Q57.86 10.18 57.06 10.18L57.06 10.18Q55.90 10.18 55.08 9.87Q54.26 9.57 53.73 9.04Q53.20 8.51 52.95 7.79Q52.70 7.07 52.70 6.24ZM60.50 6.30L60.50 6.30Q60.50 5.31 60.80 4.56Q61.10 3.81 61.60 3.30Q62.10 2.80 62.74 2.54Q63.38 2.29 64.05 2.29L64.05 2.29Q65.71 2.29 66.58 3.27Q67.44 4.26 67.44 6.14L67.44 6.14Q67.44 6.34 67.43 6.54Q67.42 6.75 67.41 6.88L67.41 6.88L62.53 6.88Q62.53 7.62 63.14 8.04Q63.74 8.46 64.70 8.46L64.70 8.46Q65.30 8.46 65.83 8.34Q66.37 8.21 66.74 8.08L66.74 8.08L67.01 9.76Q66.50 9.94 65.92 10.06Q65.34 10.18 64.62 10.18L64.62 10.18Q63.66 10.18 62.90 9.93Q62.14 9.68 61.61 9.19Q61.07 8.70 60.78 7.98Q60.50 7.26 60.50 6.30ZM62.53 5.52L65.54 5.52Q65.54 5.22 65.46 4.94Q65.38 4.66 65.20 4.43Q65.02 4.21 64.75 4.07Q64.48 3.94 64.08 3.94L64.08 3.94Q63.70 3.94 63.42 4.06Q63.14 4.19 62.95 4.42Q62.77 4.64 62.66 4.93Q62.56 5.22 62.53 5.52L62.53 5.52ZM71.58-0.02L71.58-0.02Q73.47-0.02 74.51 0.76Q75.55 1.54 75.55 3.30L75.55 3.30Q75.55 5.07 74.50 5.86Q73.46 6.66 71.54 6.66L71.54 6.66L70.83 6.66L70.83 10L68.86 10L68.86 0.22Q69.15 0.16 69.51 0.11Q69.87 0.06 70.24 0.04Q70.61 0.02 70.96 0Q71.31-0.02 71.58-0.02ZM71.81 1.70L71.81 1.70Q71.63 1.70 71.32 1.70Q71.01 1.71 70.83 1.74L70.83 1.74L70.83 4.94L71.63 4.94Q72.58 4.94 73.06 4.57Q73.54 4.19 73.54 3.28L73.54 3.28Q73.54 2.42 73.06 2.06Q72.59 1.70 71.81 1.70ZM80.02 8.59L80.02 8.59Q80.34 8.59 80.64 8.58Q80.94 8.58 81.17 8.54L81.17 8.54L81.17 6.82Q80.98 6.78 80.70 6.76Q80.43 6.74 80.21 6.74L80.21 6.74Q79.90 6.74 79.62 6.78Q79.33 6.82 79.11 6.91Q78.90 7.01 78.77 7.18Q78.64 7.36 78.64 7.65L78.64 7.65Q78.64 8.16 79.02 8.38Q79.41 8.59 80.02 8.59ZM79.84 2.29L79.84 2.29Q80.77 2.29 81.38 2.50Q82 2.72 82.37 3.11Q82.74 3.50 82.90 4.07Q83.06 4.64 83.06 5.34L83.06 5.34L83.06 9.82Q82.62 9.92 81.78 10.05Q80.93 10.18 79.87 10.18L79.87 10.18Q79.15 10.18 78.57 10.05Q77.98 9.92 77.57 9.62Q77.15 9.33 76.93 8.86Q76.70 8.38 76.70 7.70L76.70 7.70Q76.70 7.04 76.96 6.59Q77.22 6.14 77.65 5.87Q78.08 5.60 78.64 5.48Q79.20 5.36 79.81 5.36L79.81 5.36Q80.58 5.36 81.17 5.49L81.17 5.49L81.17 5.25Q81.17 4.69 80.82 4.31Q80.46 3.94 79.60 3.94L79.60 3.94Q79.04 3.94 78.52 4.02Q78 4.10 77.68 4.21L77.68 4.21L77.41 2.62Q77.78 2.50 78.45 2.39Q79.12 2.29 79.84 2.29ZM90.64 10L89.15 10Q88.98 9.50 88.82 9.09Q88.67 8.67 88.54 8.28Q88.40 7.89 88.26 7.46Q88.13 7.04 87.98 6.53L87.98 6.53Q87.82 7.04 87.70 7.45Q87.57 7.86 87.43 8.26Q87.30 8.66 87.15 9.07Q87.01 9.49 86.80 10L86.80 10L85.31 10Q85.12 9.30 84.95 8.44Q84.78 7.58 84.64 6.62Q84.50 5.65 84.38 4.61Q84.27 3.57 84.18 2.48L84.18 2.48L85.86 2.48Q85.92 3.87 85.99 5.20Q86.06 6.53 86.26 7.94L86.26 7.94Q86.46 7.33 86.62 6.81Q86.77 6.29 86.89 5.82Q87.01 5.34 87.11 4.90Q87.22 4.46 87.33 4L87.33 4L88.75 4Q88.85 4.46 88.95 4.90Q89.06 5.34 89.18 5.82Q89.30 6.29 89.43 6.81Q89.57 7.33 89.76 7.94L89.76 7.94Q89.86 7.20 89.92 6.53Q89.98 5.86 90.02 5.19Q90.06 4.53 90.09 3.86Q90.11 3.20 90.14 2.48L90.14 2.48L91.82 2.48Q91.65 4.67 91.34 6.61Q91.02 8.54 90.64 10L90.64 10ZM93.01 10L93.01 2.72Q93.54 2.58 94.31 2.45Q95.09 2.32 96 2.32L96 2.32Q96.90 2.32 97.49 2.57Q98.08 2.82 98.42 3.27Q98.77 3.73 98.91 4.36Q99.06 4.99 99.06 5.76L99.06 5.76L99.06 10L97.09 10L97.09 6.02Q97.09 4.96 96.85 4.50Q96.61 4.03 95.87 4.03L95.87 4.03Q95.65 4.03 95.43 4.05Q95.22 4.06 94.98 4.10L94.98 4.10L94.98 10L93.01 10Z"/></g></svg>