<?xml version="1.0" encoding="UTF-8"?>
<svg height="322" width="90.4" version="1.1" xmlns="http://www.w3.org/2000/svg"><!--Created by Josélio de S. C. Júnior - 2021 - https://github.com/joseliojunior -->
    <rect
        height="32"
        width="88.4"
        rx="16"
        ry="16"
        x="1" y="1"
        fill="#4B6C4B"
        stroke="#0d120d"
        stroke-width="1" />
    <g transform="translate(0, 12)">
        <path fill="#0d120d" stroke="none" d="M26.10 3.94L26.10 3.94Q26.36 3.38 26.71 2.54Q27.06 1.70 27.40 0.77Q27.75-0.17 28.08-1.13Q28.40-2.09 28.66-2.86L28.66-2.86L31.71-2.86Q31.26-1.63 30.80-0.48Q30.34 0.67 29.84 1.80Q29.34 2.93 28.76 4.04Q28.18 5.16 27.51 6.34L27.51 6.34L27.51 12L24.54 12L24.54 6.36Q23.22 4.03 22.22 1.81Q21.22-0.41 20.31-2.86L20.31-2.86L23.48-2.86Q24.03-1.13 24.70 0.66Q25.38 2.45 26.10 3.94ZM38.02 9.89L38.02 9.89Q38.50 9.89 38.96 9.88Q39.42 9.86 39.75 9.82L39.75 9.82L39.75 7.22Q39.46 7.18 39.06 7.14Q38.65 7.10 38.31 7.10L38.31 7.10Q37.86 7.10 37.42 7.16Q36.99 7.22 36.67 7.37Q36.34 7.51 36.15 7.78Q35.96 8.04 35.96 8.47L35.96 8.47Q35.96 9.24 36.54 9.56Q37.11 9.89 38.02 9.89ZM37.76 0.43L37.76 0.43Q39.15 0.43 40.08 0.76Q41 1.08 41.55 1.67Q42.10 2.26 42.34 3.11Q42.58 3.96 42.58 5.02L42.58 5.02L42.58 11.74Q41.94 11.88 40.66 12.07Q39.39 12.26 37.81 12.26L37.81 12.26Q36.73 12.26 35.85 12.07Q34.98 11.88 34.35 11.44Q33.73 10.99 33.39 10.28Q33.06 9.58 33.06 8.54L33.06 8.54Q33.06 7.56 33.44 6.89Q33.82 6.22 34.47 5.81Q35.12 5.40 35.96 5.22Q36.80 5.04 37.71 5.04L37.71 5.04Q38.86 5.04 39.75 5.23L39.75 5.23L39.75 4.87Q39.75 4.03 39.22 3.47Q38.70 2.90 37.40 2.90L37.40 2.90Q36.56 2.90 35.78 3.02Q35 3.14 34.52 3.31L34.52 3.31L34.11 0.94Q34.66 0.74 35.67 0.59Q36.68 0.43 37.76 0.43ZM45.06 6.36L45.06 6.36Q45.06 5.14 45.44 4.06Q45.82 2.98 46.62 2.17Q47.41 1.37 48.62 0.90Q49.83 0.43 51.51 0.43L51.51 0.43Q52.52 0.43 53.34 0.58Q54.15 0.72 54.99 1.06L54.99 1.06L54.34 3.43Q53.86 3.26 53.28 3.13Q52.69 3 51.78 3L51.78 3Q50.72 3 50.01 3.25Q49.30 3.50 48.87 3.95Q48.44 4.39 48.25 5.02Q48.06 5.64 48.06 6.36L48.06 6.36Q48.06 7.92 48.93 8.81Q49.81 9.70 51.92 9.70L51.92 9.70Q52.62 9.70 53.37 9.60Q54.13 9.50 54.75 9.29L54.75 9.29L55.18 11.71Q54.56 11.95 53.67 12.11Q52.78 12.26 51.58 12.26L51.58 12.26Q49.86 12.26 48.62 11.81Q47.38 11.35 46.59 10.56Q45.80 9.77 45.43 8.69Q45.06 7.61 45.06 6.36ZM57.06 6.36L57.06 6.36Q57.06 5.14 57.44 4.06Q57.82 2.98 58.62 2.17Q59.41 1.37 60.62 0.90Q61.83 0.43 63.51 0.43L63.51 0.43Q64.52 0.43 65.34 0.58Q66.15 0.72 66.99 1.06L66.99 1.06L66.34 3.43Q65.86 3.26 65.28 3.13Q64.69 3 63.78 3L63.78 3Q62.72 3 62.01 3.25Q61.30 3.50 60.87 3.95Q60.44 4.39 60.25 5.02Q60.06 5.64 60.06 6.36L60.06 6.36Q60.06 7.92 60.93 8.81Q61.81 9.70 63.92 9.70L63.92 9.70Q64.62 9.70 65.37 9.60Q66.13 9.50 66.75 9.29L66.75 9.29L67.18 11.71Q66.56 11.95 65.67 12.11Q64.78 12.26 63.58 12.26L63.58 12.26Q61.86 12.26 60.62 11.81Q59.38 11.35 58.59 10.56Q57.80 9.77 57.43 8.69Q57.06 7.61 57.06 6.36Z"/>
    </g>
</svg>