<?xml version="1.0" encoding="UTF-8"?>
<svg height="34" width="102.5" version="1.1" xmlns="http://www.w3.org/2000/svg">
    <rect
        height="32"
        width="100.5"
        rx="16"
        ry="16"
        x="1"
        y="1"
        fill="#a270ba"
        stroke="#512e60"
        stroke-width="1"
         />
    <g transform="translate(0, 12)">
        <path fill="#512e60" d="M30.51-2.86L30.51 7.03Q30.51 8.11 30.24 9.07Q29.96 10.03 29.32 10.75Q28.69 11.47 27.68 11.89Q26.67 12.31 25.23 12.31L25.23 12.31Q23.72 12.31 22.71 11.93Q21.70 11.54 21.01 10.99L21.01 10.99L22.14 8.64Q22.74 9.02 23.47 9.38Q24.20 9.74 24.97 9.74L24.97 9.74Q26.12 9.74 26.83 9.13Q27.54 8.52 27.54 6.86L27.54 6.86L27.54-0.41L22.57-0.41L22.57-2.86L30.51-2.86ZM42.51 0.72L42.51 11.62Q41.70 11.83 40.53 12.05Q39.37 12.26 38 12.26L38 12.26Q36.61 12.26 35.72 11.88Q34.83 11.50 34.32 10.79Q33.80 10.08 33.61 9.12Q33.42 8.16 33.42 7.01L33.42 7.01L33.42 0.72L36.37 0.72L36.37 6.62Q36.37 8.18 36.74 8.94Q37.11 9.70 38.19 9.70L38.19 9.70Q38.86 9.70 39.54 9.58L39.54 9.58L39.54 0.72L42.51 0.72ZM54.82 9.14L55.21 11.52Q55.14 11.57 54.88 11.69Q54.63 11.81 54.22 11.94Q53.82 12.07 53.23 12.17Q52.64 12.26 51.90 12.26L51.90 12.26Q49.86 12.26 48.92 11.05Q47.98 9.84 47.98 7.51L47.98 7.51L47.98-2.06L44.86-2.06L44.86-4.51L50.94-4.51L50.94 7.73Q50.94 8.88 51.39 9.29Q51.85 9.70 52.54 9.70L52.54 9.70Q53.43 9.70 54.03 9.46Q54.63 9.22 54.82 9.14L54.82 9.14ZM62.82-2.52L62.82-2.52Q62.82-1.66 62.26-1.15Q61.71-0.65 60.94-0.65L60.94-0.65Q60.18-0.65 59.64-1.15Q59.10-1.66 59.10-2.52L59.10-2.52Q59.10-3.41 59.64-3.91Q60.18-4.42 60.94-4.42L60.94-4.42Q61.71-4.42 62.26-3.91Q62.82-3.41 62.82-2.52ZM66.82 9.14L67.21 11.52Q66.30 11.95 65.49 12.11Q64.69 12.26 64.02 12.26L64.02 12.26Q62.86 12.26 62.08 11.93Q61.30 11.59 60.84 10.96Q60.37 10.32 60.18 9.41Q59.98 8.50 59.98 7.32L59.98 7.32L59.98 3.17L56.86 3.17L56.86 0.72L62.94 0.72L62.94 7.70Q62.94 8.71 63.31 9.20Q63.68 9.70 64.54 9.70L64.54 9.70Q64.95 9.70 65.53 9.59Q66.10 9.48 66.82 9.14L66.82 9.14ZM74.02 9.89L74.02 9.89Q74.50 9.89 74.96 9.88Q75.42 9.86 75.75 9.82L75.75 9.82L75.75 7.22Q75.46 7.18 75.06 7.14Q74.65 7.10 74.31 7.10L74.31 7.10Q73.86 7.10 73.42 7.16Q72.99 7.22 72.67 7.37Q72.34 7.51 72.15 7.78Q71.96 8.04 71.96 8.47L71.96 8.47Q71.96 9.24 72.54 9.56Q73.11 9.89 74.02 9.89ZM73.76 0.43L73.76 0.43Q75.15 0.43 76.08 0.76Q77 1.08 77.55 1.67Q78.10 2.26 78.34 3.11Q78.58 3.96 78.58 5.02L78.58 5.02L78.58 11.74Q77.94 11.88 76.66 12.07Q75.39 12.26 73.81 12.26L73.81 12.26Q72.73 12.26 71.85 12.07Q70.98 11.88 70.35 11.44Q69.73 10.99 69.39 10.28Q69.06 9.58 69.06 8.54L69.06 8.54Q69.06 7.56 69.44 6.89Q69.82 6.22 70.47 5.81Q71.12 5.40 71.96 5.22Q72.80 5.04 73.71 5.04L73.71 5.04Q74.86 5.04 75.75 5.23L75.75 5.23L75.75 4.87Q75.75 4.03 75.22 3.47Q74.70 2.90 73.40 2.90L73.40 2.90Q72.56 2.90 71.78 3.02Q71 3.14 70.52 3.31L70.52 3.31L70.11 0.94Q70.66 0.74 71.67 0.59Q72.68 0.43 73.76 0.43Z"/>
    </g>
</svg>