<?xml version="1.0" encoding="UTF-8"?>
<svg height="34" width="92.5" version="1.1" xmlns="http://www.w3.org/2000/svg">
    <rect
        height="32"
        width="90.5"
        rx="14"
        ry="14"
        x="1"
        y="1"
        fill="#a270ba"
        stroke="#512e60"
        stroke-width="1"
         />
    <g transform="translate(0, 14)">
        <path fill="#512e60" d="M22.26-6.33L22.26 5.20Q22.26 6.46 21.94 7.58Q21.62 8.70 20.88 9.54Q20.14 10.38 18.96 10.87Q17.78 11.36 16.10 11.36L16.10 11.36Q14.34 11.36 13.16 10.92Q11.99 10.47 11.18 9.82L11.18 9.82L12.49 7.08Q13.19 7.53 14.05 7.95Q14.90 8.37 15.80 8.37L15.80 8.37Q17.14 8.37 17.97 7.65Q18.79 6.94 18.79 5.01L18.79 5.01L18.79-3.48L13.00-3.48L13.00-6.33L22.26-6.33ZM36.26-2.16L36.26 10.55Q35.31 10.80 33.95 11.06Q32.60 11.31 31 11.31L31 11.31Q29.38 11.31 28.34 10.86Q27.30 10.41 26.70 9.59Q26.10 8.76 25.88 7.64Q25.65 6.52 25.65 5.18L25.65 5.18L25.65-2.16L29.10-2.16L29.10 4.73Q29.10 6.55 29.53 7.43Q29.96 8.31 31.22 8.31L31.22 8.31Q32.01 8.31 32.79 8.17L32.79 8.17L32.79-2.16L36.26-2.16ZM50.63 7.67L51.08 10.44Q50.99 10.50 50.70 10.64Q50.40 10.78 49.93 10.93Q49.45 11.08 48.77 11.20Q48.08 11.31 47.21 11.31L47.21 11.31Q44.83 11.31 43.74 9.89Q42.65 8.48 42.65 5.76L42.65 5.76L42.65-5.41L39.01-5.41L39.01-8.26L46.09-8.26L46.09 6.02Q46.09 7.36 46.62 7.84Q47.16 8.31 47.97 8.31L47.97 8.31Q49.00 8.31 49.70 8.03Q50.40 7.75 50.63 7.67L50.63 7.67ZM59.95-5.94L59.95-5.94Q59.95-4.93 59.31-4.34Q58.66-3.76 57.77-3.76L57.77-3.76Q56.87-3.76 56.24-4.34Q55.61-4.93 55.61-5.94L55.61-5.94Q55.61-6.98 56.24-7.56Q56.87-8.15 57.77-8.15L57.77-8.15Q58.66-8.15 59.31-7.56Q59.95-6.98 59.95-5.94ZM64.63 7.67L65.08 10.44Q64.01 10.94 63.07 11.13Q62.14 11.31 61.35 11.31L61.35 11.31Q60.01 11.31 59.10 10.92Q58.19 10.52 57.64 9.78Q57.10 9.04 56.87 7.98Q56.65 6.91 56.65 5.54L56.65 5.54L56.65 0.70L53.01 0.70L53.01-2.16L60.09-2.16L60.09 5.99Q60.09 7.16 60.53 7.74Q60.96 8.31 61.97 8.31L61.97 8.31Q62.44 8.31 63.12 8.19Q63.79 8.06 64.63 7.67L64.63 7.67ZM73.03 8.54L73.03 8.54Q73.59 8.54 74.12 8.52Q74.65 8.51 75.04 8.45L75.04 8.45L75.04 5.43Q74.71 5.37 74.23 5.33Q73.76 5.29 73.36 5.29L73.36 5.29Q72.83 5.29 72.33 5.36Q71.82 5.43 71.45 5.60Q71.07 5.76 70.84 6.07Q70.62 6.38 70.62 6.88L70.62 6.88Q70.62 7.78 71.29 8.16Q71.96 8.54 73.03 8.54ZM72.72-2.50L72.72-2.50Q74.34-2.50 75.42-2.12Q76.50-1.74 77.14-1.05Q77.79-0.37 78.07 0.63Q78.35 1.62 78.35 2.85L78.35 2.85L78.35 10.69Q77.59 10.86 76.11 11.08Q74.62 11.31 72.78 11.31L72.78 11.31Q71.52 11.31 70.49 11.08Q69.47 10.86 68.74 10.34Q68.02 9.82 67.62 9.00Q67.23 8.17 67.23 6.97L67.23 6.97Q67.23 5.82 67.68 5.04Q68.13 4.25 68.88 3.78Q69.64 3.30 70.62 3.09Q71.60 2.88 72.66 2.88L72.66 2.88Q74.01 2.88 75.04 3.10L75.04 3.10L75.04 2.68Q75.04 1.70 74.43 1.05Q73.81 0.39 72.30 0.39L72.30 0.39Q71.32 0.39 70.41 0.53Q69.50 0.67 68.94 0.86L68.94 0.86L68.46-1.91Q69.11-2.13 70.28-2.31Q71.46-2.50 72.72-2.50Z"/>
    </g>
</svg>