<?xml version="1.0" encoding="UTF-8"?><svg height="34" width="90.4" version="1.1" xmlns="http://www.w3.org/2000/svg"><!--Created by Josélio de S. C. Júnior - 2021 - https://github.com/joseliojunior --><rect height="32" width="88.4" rx="1" ry="1" x="1" y="1" fill="#dbb284" stroke="#734d21" stroke-width="1" /><g transform="translate(0, 12)"><path fill="#734d21" d="M25.38-3.02L25.38-3.02Q28.21-3.02 29.77-1.86Q31.33-0.70 31.33 1.94L31.33 1.94Q31.33 4.61 29.76 5.80Q28.18 6.98 25.30 6.98L25.30 6.98L24.25 6.98L24.25 12L21.30 12L21.30-2.66Q21.73-2.76 22.27-2.83Q22.81-2.90 23.36-2.94Q23.91-2.98 24.44-3Q24.97-3.02 25.38-3.02ZM25.71-0.46L25.71-0.46Q25.45-0.46 24.98-0.44Q24.51-0.43 24.25-0.38L24.25-0.38L24.25 4.42L25.45 4.42Q26.86 4.42 27.58 3.85Q28.30 3.29 28.30 1.92L28.30 1.92Q28.30 0.62 27.60 0.08Q26.89-0.46 25.71-0.46ZM38.02 9.89L38.02 9.89Q38.50 9.89 38.96 9.88Q39.42 9.86 39.75 9.82L39.75 9.82L39.75 7.22Q39.46 7.18 39.06 7.14Q38.65 7.10 38.31 7.10L38.31 7.10Q37.86 7.10 37.42 7.16Q36.99 7.22 36.67 7.37Q36.34 7.51 36.15 7.78Q35.96 8.04 35.96 8.47L35.96 8.47Q35.96 9.24 36.54 9.56Q37.11 9.89 38.02 9.89ZM37.76 0.43L37.76 0.43Q39.15 0.43 40.08 0.76Q41 1.08 41.55 1.67Q42.10 2.26 42.34 3.11Q42.58 3.96 42.58 5.02L42.58 5.02L42.58 11.74Q41.94 11.88 40.66 12.07Q39.39 12.26 37.81 12.26L37.81 12.26Q36.73 12.26 35.85 12.07Q34.98 11.88 34.35 11.44Q33.73 10.99 33.39 10.28Q33.06 9.58 33.06 8.54L33.06 8.54Q33.06 7.56 33.44 6.89Q33.82 6.22 34.47 5.81Q35.12 5.40 35.96 5.22Q36.80 5.04 37.71 5.04L37.71 5.04Q38.86 5.04 39.75 5.23L39.75 5.23L39.75 4.87Q39.75 4.03 39.22 3.47Q38.70 2.90 37.40 2.90L37.40 2.90Q36.56 2.90 35.78 3.02Q35 3.14 34.52 3.31L34.52 3.31L34.11 0.94Q34.66 0.74 35.67 0.59Q36.68 0.43 37.76 0.43ZM53.96 12L51.73 12Q51.46 11.26 51.24 10.63Q51.01 10.01 50.80 9.42Q50.60 8.83 50.40 8.20Q50.19 7.56 49.98 6.79L49.98 6.79Q49.74 7.56 49.54 8.17Q49.35 8.78 49.15 9.38Q48.94 9.98 48.73 10.61Q48.51 11.23 48.20 12L48.20 12L45.97 12Q45.68 10.94 45.43 9.66Q45.18 8.38 44.96 6.92Q44.74 5.47 44.58 3.91Q44.41 2.35 44.26 0.72L44.26 0.72L46.78 0.72Q46.88 2.81 46.99 4.80Q47.10 6.79 47.38 8.90L47.38 8.90Q47.70 7.99 47.92 7.21Q48.15 6.43 48.33 5.72Q48.51 5.02 48.67 4.36Q48.82 3.70 48.99 3L48.99 3L51.13 3Q51.27 3.70 51.43 4.36Q51.58 5.02 51.76 5.72Q51.94 6.43 52.15 7.21Q52.35 7.99 52.64 8.90L52.64 8.90Q52.78 7.80 52.88 6.79Q52.98 5.78 53.04 4.79Q53.10 3.79 53.13 2.80Q53.17 1.80 53.22 0.72L53.22 0.72L55.74 0.72Q55.47 4.01 55.00 6.91Q54.54 9.82 53.96 12L53.96 12ZM57.51 12L57.51 1.08Q58.30 0.86 59.47 0.67Q60.63 0.48 62 0.48L62 0.48Q63.34 0.48 64.23 0.85Q65.12 1.22 65.64 1.91Q66.15 2.59 66.37 3.54Q66.58 4.49 66.58 5.64L66.58 5.64L66.58 12L63.63 12L63.63 6.02Q63.63 4.44 63.27 3.74Q62.91 3.05 61.81 3.05L61.81 3.05Q61.47 3.05 61.15 3.07Q60.82 3.10 60.46 3.14L60.46 3.14L60.46 12L57.51 12Z"/></g></svg>