<?xml version="1.0" encoding="UTF-8"?>
<svg height="26" width="82.5" version="1.1" xmlns="http://www.w3.org/2000/svg"><!--Created by Josélio de S. C. Júnior - 2021 - https://github.com/joseliojunior -->
    <rect
        height="24"
        width="80.5"
        rx="12"
        ry="12"
        x="1" y="1"
        fill="#615f8b"
        stroke="#222131"
        stroke-width="1" />
    <g transform="translate(0, 8)">
        <path fill="#222131" d="M24.99 1.58L24.99 1.58Q24.29 1.58 23.81 1.84Q23.33 2.10 23.02 2.55Q22.70 3.01 22.57 3.64Q22.43 4.27 22.43 5.04L22.43 5.04Q22.43 6.82 22.99 7.66Q23.55 8.50 24.64 8.50L24.64 8.50Q24.82 8.50 25.02 8.48Q25.23 8.46 25.41 8.43L25.41 8.43L25.41 4.82L27.38 4.82L27.38 9.76Q27.02 9.89 26.28 10.05Q25.54 10.21 24.48 10.21L24.48 10.21Q23.55 10.21 22.81 9.88Q22.06 9.55 21.54 8.90Q21.01 8.26 20.72 7.29Q20.43 6.32 20.43 5.04L20.43 5.04Q20.43 3.78 20.77 2.81Q21.10 1.84 21.68 1.18Q22.26 0.53 23.04 0.20Q23.82-0.13 24.72-0.13L24.72-0.13Q25.30-0.13 25.75-0.04Q26.21 0.05 26.54 0.16Q26.88 0.27 27.10 0.40Q27.31 0.53 27.42 0.59L27.42 0.59L26.91 2.16Q26.56 1.94 26.05 1.76Q25.54 1.58 24.99 1.58ZM35.34 2.66L34.99 4.48Q34.80 4.43 34.54 4.38Q34.27 4.34 34 4.30Q33.73 4.26 33.47 4.24Q33.22 4.22 33.04 4.22L33.04 4.22Q32.62 4.22 32.22 4.26Q31.82 4.30 31.41 4.42L31.41 4.42L31.41 10L29.42 10L29.42 2.98Q30.21 2.69 31.03 2.51Q31.86 2.34 32.96 2.34L32.96 2.34Q33.12 2.34 33.42 2.35Q33.71 2.37 34.05 2.41Q34.38 2.45 34.73 2.50Q35.07 2.56 35.34 2.66L35.34 2.66ZM40.02 8.59L40.02 8.59Q40.34 8.59 40.64 8.58Q40.94 8.58 41.17 8.54L41.17 8.54L41.17 6.82Q40.98 6.78 40.70 6.76Q40.43 6.74 40.21 6.74L40.21 6.74Q39.90 6.74 39.62 6.78Q39.33 6.82 39.11 6.91Q38.90 7.01 38.77 7.18Q38.64 7.36 38.64 7.65L38.64 7.65Q38.64 8.16 39.02 8.38Q39.41 8.59 40.02 8.59ZM39.84 2.29L39.84 2.29Q40.77 2.29 41.38 2.50Q42 2.72 42.37 3.11Q42.74 3.50 42.90 4.07Q43.06 4.64 43.06 5.34L43.06 5.34L43.06 9.82Q42.62 9.92 41.78 10.05Q40.93 10.18 39.87 10.18L39.87 10.18Q39.15 10.18 38.57 10.05Q37.98 9.92 37.57 9.62Q37.15 9.33 36.93 8.86Q36.70 8.38 36.70 7.70L36.70 7.70Q36.70 7.04 36.96 6.59Q37.22 6.14 37.65 5.87Q38.08 5.60 38.64 5.48Q39.20 5.36 39.81 5.36L39.81 5.36Q40.58 5.36 41.17 5.49L41.17 5.49L41.17 5.25Q41.17 4.69 40.82 4.31Q40.46 3.94 39.60 3.94L39.60 3.94Q39.04 3.94 38.52 4.02Q38 4.10 37.68 4.21L37.68 4.21L37.41 2.62Q37.78 2.50 38.45 2.39Q39.12 2.29 39.84 2.29ZM44.70 6.24L44.70 6.24Q44.70 5.42 44.96 4.70Q45.22 3.98 45.74 3.45Q46.27 2.91 47.08 2.60Q47.89 2.29 49.01 2.29L49.01 2.29Q49.68 2.29 50.22 2.38Q50.77 2.48 51.33 2.70L51.33 2.70L50.90 4.29Q50.58 4.18 50.18 4.09Q49.79 4 49.18 4L49.18 4Q48.48 4 48.01 4.17Q47.54 4.34 47.25 4.63Q46.96 4.93 46.83 5.34Q46.70 5.76 46.70 6.24L46.70 6.24Q46.70 7.28 47.29 7.87Q47.87 8.46 49.28 8.46L49.28 8.46Q49.74 8.46 50.25 8.40Q50.75 8.34 51.17 8.19L51.17 8.19L51.46 9.81Q51.04 9.97 50.45 10.07Q49.86 10.18 49.06 10.18L49.06 10.18Q47.90 10.18 47.08 9.87Q46.26 9.57 45.73 9.04Q45.20 8.51 44.95 7.79Q44.70 7.07 44.70 6.24ZM52.50 6.30L52.50 6.30Q52.50 5.31 52.80 4.56Q53.10 3.81 53.60 3.30Q54.10 2.80 54.74 2.54Q55.38 2.29 56.05 2.29L56.05 2.29Q57.71 2.29 58.58 3.27Q59.44 4.26 59.44 6.14L59.44 6.14Q59.44 6.34 59.43 6.54Q59.42 6.75 59.41 6.88L59.41 6.88L54.53 6.88Q54.53 7.62 55.14 8.04Q55.74 8.46 56.70 8.46L56.70 8.46Q57.30 8.46 57.83 8.34Q58.37 8.21 58.74 8.08L58.74 8.08L59.01 9.76Q58.50 9.94 57.92 10.06Q57.34 10.18 56.62 10.18L56.62 10.18Q55.66 10.18 54.90 9.93Q54.14 9.68 53.61 9.19Q53.07 8.70 52.78 7.98Q52.50 7.26 52.50 6.30ZM54.53 5.52L57.54 5.52Q57.54 5.22 57.46 4.94Q57.38 4.66 57.20 4.43Q57.02 4.21 56.75 4.07Q56.48 3.94 56.08 3.94L56.08 3.94Q55.70 3.94 55.42 4.06Q55.14 4.19 54.95 4.42Q54.77 4.64 54.66 4.93Q54.56 5.22 54.53 5.52L54.53 5.52Z"/>
    </g>
</svg>