<?xml version="1.0" encoding="UTF-8"?>
<svg height="34" width="102.5" version="1.1" xmlns="http://www.w3.org/2000/svg">
    <rect
        height="32"
        width="100.5"
        rx="1"
        ry="1"
        x="1"
        y="1"
        fill="#615f8b"
        stroke="#222131"
        stroke-width="1"
         />
    <g transform="translate(0, 12)">
        <path fill="#222131" d="M27.49-0.62L27.49-0.62Q26.43-0.62 25.71-0.24Q24.99 0.14 24.52 0.83Q24.06 1.51 23.85 2.46Q23.65 3.41 23.65 4.56L23.65 4.56Q23.65 7.22 24.49 8.48Q25.33 9.74 26.96 9.74L26.96 9.74Q27.22 9.74 27.54 9.72Q27.85 9.70 28.11 9.65L28.11 9.65L28.11 4.22L31.06 4.22L31.06 11.64Q30.54 11.83 29.42 12.07Q28.30 12.31 26.72 12.31L26.72 12.31Q25.33 12.31 24.21 11.82Q23.10 11.33 22.30 10.36Q21.51 9.38 21.08 7.93Q20.65 6.48 20.65 4.56L20.65 4.56Q20.65 2.66 21.15 1.21Q21.66-0.24 22.52-1.22Q23.38-2.21 24.56-2.70Q25.74-3.19 27.08-3.19L27.08-3.19Q27.94-3.19 28.63-3.06Q29.31-2.93 29.82-2.76Q30.32-2.59 30.64-2.40Q30.97-2.21 31.14-2.11L31.14-2.11L30.37 0.24Q29.84-0.10 29.07-0.36Q28.30-0.62 27.49-0.62ZM43.02 0.98L42.49 3.72Q42.20 3.65 41.80 3.58Q41.41 3.50 41 3.44Q40.59 3.38 40.21 3.36Q39.82 3.34 39.56 3.34L39.56 3.34Q38.94 3.34 38.34 3.40Q37.74 3.46 37.11 3.62L37.11 3.62L37.11 12L34.14 12L34.14 1.46Q35.31 1.03 36.55 0.77Q37.78 0.50 39.44 0.50L39.44 0.50Q39.68 0.50 40.12 0.53Q40.57 0.55 41.07 0.61Q41.58 0.67 42.09 0.76Q42.61 0.84 43.02 0.98L43.02 0.98ZM50.02 9.89L50.02 9.89Q50.50 9.89 50.96 9.88Q51.42 9.86 51.75 9.82L51.75 9.82L51.75 7.22Q51.46 7.18 51.06 7.14Q50.65 7.10 50.31 7.10L50.31 7.10Q49.86 7.10 49.42 7.16Q48.99 7.22 48.67 7.37Q48.34 7.51 48.15 7.78Q47.96 8.04 47.96 8.47L47.96 8.47Q47.96 9.24 48.54 9.56Q49.11 9.89 50.02 9.89ZM49.76 0.43L49.76 0.43Q51.15 0.43 52.08 0.76Q53 1.08 53.55 1.67Q54.10 2.26 54.34 3.11Q54.58 3.96 54.58 5.02L54.58 5.02L54.58 11.74Q53.94 11.88 52.66 12.07Q51.39 12.26 49.81 12.26L49.81 12.26Q48.73 12.26 47.85 12.07Q46.98 11.88 46.35 11.44Q45.73 10.99 45.39 10.28Q45.06 9.58 45.06 8.54L45.06 8.54Q45.06 7.56 45.44 6.89Q45.82 6.22 46.47 5.81Q47.12 5.40 47.96 5.22Q48.80 5.04 49.71 5.04L49.71 5.04Q50.86 5.04 51.75 5.23L51.75 5.23L51.75 4.87Q51.75 4.03 51.22 3.47Q50.70 2.90 49.40 2.90L49.40 2.90Q48.56 2.90 47.78 3.02Q47 3.14 46.52 3.31L46.52 3.31L46.11 0.94Q46.66 0.74 47.67 0.59Q48.68 0.43 49.76 0.43ZM57.06 6.36L57.06 6.36Q57.06 5.14 57.44 4.06Q57.82 2.98 58.62 2.17Q59.41 1.37 60.62 0.90Q61.83 0.43 63.51 0.43L63.51 0.43Q64.52 0.43 65.34 0.58Q66.15 0.72 66.99 1.06L66.99 1.06L66.34 3.43Q65.86 3.26 65.28 3.13Q64.69 3 63.78 3L63.78 3Q62.72 3 62.01 3.25Q61.30 3.50 60.87 3.95Q60.44 4.39 60.25 5.02Q60.06 5.64 60.06 6.36L60.06 6.36Q60.06 7.92 60.93 8.81Q61.81 9.70 63.92 9.70L63.92 9.70Q64.62 9.70 65.37 9.60Q66.13 9.50 66.75 9.29L66.75 9.29L67.18 11.71Q66.56 11.95 65.67 12.11Q64.78 12.26 63.58 12.26L63.58 12.26Q61.86 12.26 60.62 11.81Q59.38 11.35 58.59 10.56Q57.80 9.77 57.43 8.69Q57.06 7.61 57.06 6.36ZM68.74 6.46L68.74 6.46Q68.74 4.97 69.20 3.84Q69.66 2.71 70.40 1.96Q71.14 1.20 72.10 0.82Q73.06 0.43 74.07 0.43L74.07 0.43Q76.57 0.43 77.86 1.91Q79.16 3.38 79.16 6.22L79.16 6.22Q79.16 6.50 79.15 6.82Q79.14 7.13 79.11 7.32L79.11 7.32L71.79 7.32Q71.79 8.42 72.70 9.06Q73.62 9.70 75.06 9.70L75.06 9.70Q75.94 9.70 76.75 9.50Q77.55 9.31 78.10 9.12L78.10 9.12L78.51 11.64Q77.74 11.90 76.88 12.08Q76.02 12.26 74.94 12.26L74.94 12.26Q73.50 12.26 72.36 11.89Q71.22 11.52 70.41 10.79Q69.61 10.06 69.18 8.98Q68.74 7.90 68.74 6.46ZM71.79 5.28L76.30 5.28Q76.30 4.82 76.18 4.40Q76.06 3.98 75.80 3.65Q75.54 3.31 75.13 3.11Q74.72 2.90 74.12 2.90L74.12 2.90Q73.54 2.90 73.12 3.10Q72.70 3.29 72.43 3.62Q72.15 3.96 72.00 4.39Q71.84 4.82 71.79 5.28L71.79 5.28Z"/>
    </g>
</svg>