<?xml version="1.0" encoding="UTF-8"?>
<svg height="26" width="139.2" version="1.1" xmlns="http://www.w3.org/2000/svg"><!--Created by Josélio de S. C. Júnior - 2021 - https://github.com/joseliojunior -->
    <rect
        height="24"
        width="137.2"
        rx="12"
        ry="12"
        x="1" y="1"
        fill="#ffd539"
        stroke="#9e7c00"
        stroke-width="1" />
    <g transform="translate(0, 8)">
        <path fill="#9e7c00" d="M27.50 7.01L27.50 7.01Q27.50 7.90 27.20 8.50Q26.90 9.10 26.38 9.46Q25.86 9.82 25.14 9.98Q24.43 10.13 23.62 10.13L23.62 10.13Q22.96 10.13 22.26 10.06Q21.55 9.98 20.86 9.84L20.86 9.84L20.86 0.22Q21.42 0.13 22.10 0.06Q22.77-0.02 23.42-0.02L23.42-0.02Q24.54-0.02 25.25 0.22Q25.95 0.45 26.35 0.82Q26.75 1.20 26.90 1.66Q27.04 2.13 27.04 2.59L27.04 2.59Q27.04 3.30 26.70 3.84Q26.35 4.38 25.78 4.70L25.78 4.70Q26.78 5.07 27.14 5.70Q27.50 6.32 27.50 7.01ZM23.89 5.66L22.83 5.66L22.83 8.35Q23.04 8.38 23.29 8.40Q23.54 8.42 23.78 8.42L23.78 8.42Q24.11 8.42 24.43 8.36Q24.75 8.30 25 8.15Q25.25 8 25.41 7.72Q25.57 7.44 25.57 7.01L25.57 7.01Q25.57 6.29 25.11 5.98Q24.66 5.66 23.89 5.66L23.89 5.66ZM22.83 4.03L23.60 4.03Q24.35 4.03 24.74 3.70Q25.12 3.38 25.12 2.80L25.12 2.80Q25.12 2.45 25.01 2.23Q24.90 2.02 24.70 1.90Q24.51 1.78 24.26 1.74Q24 1.70 23.73 1.70L23.73 1.70Q23.50 1.70 23.26 1.71Q23.02 1.73 22.83 1.76L22.83 1.76L22.83 4.03ZM35.34 2.66L34.99 4.48Q34.80 4.43 34.54 4.38Q34.27 4.34 34 4.30Q33.73 4.26 33.47 4.24Q33.22 4.22 33.04 4.22L33.04 4.22Q32.62 4.22 32.22 4.26Q31.82 4.30 31.41 4.42L31.41 4.42L31.41 10L29.42 10L29.42 2.98Q30.21 2.69 31.03 2.51Q31.86 2.34 32.96 2.34L32.96 2.34Q33.12 2.34 33.42 2.35Q33.71 2.37 34.05 2.41Q34.38 2.45 34.73 2.50Q35.07 2.56 35.34 2.66L35.34 2.66ZM43.55 6.22L43.55 6.22Q43.55 7.12 43.30 7.85Q43.04 8.58 42.58 9.10Q42.11 9.63 41.46 9.92Q40.82 10.21 40.02 10.21L40.02 10.21Q39.22 10.21 38.57 9.92Q37.92 9.63 37.45 9.10Q36.98 8.58 36.72 7.85Q36.46 7.12 36.46 6.22L36.46 6.22Q36.46 5.34 36.73 4.62Q36.99 3.89 37.46 3.37Q37.94 2.85 38.59 2.57Q39.25 2.29 40.02 2.29L40.02 2.29Q40.80 2.29 41.45 2.57Q42.10 2.85 42.57 3.37Q43.04 3.89 43.30 4.62Q43.55 5.34 43.55 6.22ZM38.46 6.24L38.46 6.24Q38.46 7.25 38.82 7.87Q39.18 8.50 39.98 8.50L39.98 8.50Q40.75 8.50 41.14 7.87Q41.54 7.25 41.54 6.24L41.54 6.24Q41.54 5.23 41.18 4.62Q40.82 4 40.02 4L40.02 4Q39.25 4 38.86 4.62Q38.46 5.23 38.46 6.24ZM50.64 10L49.15 10Q48.98 9.50 48.82 9.09Q48.67 8.67 48.54 8.28Q48.40 7.89 48.26 7.46Q48.13 7.04 47.98 6.53L47.98 6.53Q47.82 7.04 47.70 7.45Q47.57 7.86 47.43 8.26Q47.30 8.66 47.15 9.07Q47.01 9.49 46.80 10L46.80 10L45.31 10Q45.12 9.30 44.95 8.44Q44.78 7.58 44.64 6.62Q44.50 5.65 44.38 4.61Q44.27 3.57 44.18 2.48L44.18 2.48L45.86 2.48Q45.92 3.87 45.99 5.20Q46.06 6.53 46.26 7.94L46.26 7.94Q46.46 7.33 46.62 6.81Q46.77 6.29 46.89 5.82Q47.01 5.34 47.11 4.90Q47.22 4.46 47.33 4L47.33 4L48.75 4Q48.85 4.46 48.95 4.90Q49.06 5.34 49.18 5.82Q49.30 6.29 49.43 6.81Q49.57 7.33 49.76 7.94L49.76 7.94Q49.86 7.20 49.92 6.53Q49.98 5.86 50.02 5.19Q50.06 4.53 50.09 3.86Q50.11 3.20 50.14 2.48L50.14 2.48L51.82 2.48Q51.65 4.67 51.34 6.61Q51.02 8.54 50.64 10L50.64 10ZM55.65 8.51L55.65 8.51Q56.37 8.51 56.75 8.41Q57.14 8.30 57.14 7.98L57.14 7.98Q57.14 7.78 57.02 7.63Q56.90 7.49 56.68 7.38Q56.46 7.28 56.18 7.18Q55.90 7.09 55.60 6.99L55.60 6.99Q55.17 6.86 54.72 6.70Q54.27 6.53 53.90 6.27Q53.54 6.02 53.30 5.62Q53.06 5.23 53.06 4.64L53.06 4.64Q53.06 4.16 53.24 3.74Q53.42 3.31 53.82 2.98Q54.21 2.66 54.82 2.47Q55.42 2.29 56.27 2.29L56.27 2.29Q57.01 2.29 57.64 2.40Q58.27 2.51 58.74 2.72L58.74 2.72L58.43 4.38Q58.16 4.30 57.58 4.12Q57.01 3.94 56.29 3.94L56.29 3.94Q55.54 3.94 55.27 4.12Q55.01 4.30 55.01 4.51L55.01 4.51Q55.01 4.69 55.13 4.82Q55.25 4.96 55.45 5.07Q55.65 5.18 55.91 5.29Q56.18 5.39 56.48 5.49L56.48 5.49Q56.91 5.63 57.38 5.81Q57.84 5.98 58.22 6.25Q58.59 6.51 58.83 6.92Q59.07 7.33 59.07 7.92L59.07 7.92Q59.07 8.38 58.90 8.80Q58.72 9.22 58.31 9.52Q57.90 9.82 57.25 10Q56.59 10.18 55.63 10.18L55.63 10.18Q54.66 10.18 53.97 9.95Q53.28 9.73 52.86 9.55L52.86 9.55L53.17 7.90Q53.73 8.13 54.36 8.32Q54.99 8.51 55.65 8.51ZM60.50 6.30L60.50 6.30Q60.50 5.31 60.80 4.56Q61.10 3.81 61.60 3.30Q62.10 2.80 62.74 2.54Q63.38 2.29 64.05 2.29L64.05 2.29Q65.71 2.29 66.58 3.27Q67.44 4.26 67.44 6.14L67.44 6.14Q67.44 6.34 67.43 6.54Q67.42 6.75 67.41 6.88L67.41 6.88L62.53 6.88Q62.53 7.62 63.14 8.04Q63.74 8.46 64.70 8.46L64.70 8.46Q65.30 8.46 65.83 8.34Q66.37 8.21 66.74 8.08L66.74 8.08L67.01 9.76Q66.50 9.94 65.92 10.06Q65.34 10.18 64.62 10.18L64.62 10.18Q63.66 10.18 62.90 9.93Q62.14 9.68 61.61 9.19Q61.07 8.70 60.78 7.98Q60.50 7.26 60.50 6.30ZM62.53 5.52L65.54 5.52Q65.54 5.22 65.46 4.94Q65.38 4.66 65.20 4.43Q65.02 4.21 64.75 4.07Q64.48 3.94 64.08 3.94L64.08 3.94Q63.70 3.94 63.42 4.06Q63.14 4.19 62.95 4.42Q62.77 4.64 62.66 4.93Q62.56 5.22 62.53 5.52L62.53 5.52ZM75.34 2.66L74.99 4.48Q74.80 4.43 74.54 4.38Q74.27 4.34 74 4.30Q73.73 4.26 73.47 4.24Q73.22 4.22 73.04 4.22L73.04 4.22Q72.62 4.22 72.22 4.26Q71.82 4.30 71.41 4.42L71.41 4.42L71.41 10L69.42 10L69.42 2.98Q70.21 2.69 71.03 2.51Q71.86 2.34 72.96 2.34L72.96 2.34Q73.12 2.34 73.42 2.35Q73.71 2.37 74.05 2.41Q74.38 2.45 74.73 2.50Q75.07 2.56 75.34 2.66L75.34 2.66ZM79.65 8.51L79.65 8.51Q80.37 8.51 80.75 8.41Q81.14 8.30 81.14 7.98L81.14 7.98Q81.14 7.78 81.02 7.63Q80.90 7.49 80.68 7.38Q80.46 7.28 80.18 7.18Q79.90 7.09 79.60 6.99L79.60 6.99Q79.17 6.86 78.72 6.70Q78.27 6.53 77.90 6.27Q77.54 6.02 77.30 5.62Q77.06 5.23 77.06 4.64L77.06 4.64Q77.06 4.16 77.24 3.74Q77.42 3.31 77.82 2.98Q78.21 2.66 78.82 2.47Q79.42 2.29 80.27 2.29L80.27 2.29Q81.01 2.29 81.64 2.40Q82.27 2.51 82.74 2.72L82.74 2.72L82.43 4.38Q82.16 4.30 81.58 4.12Q81.01 3.94 80.29 3.94L80.29 3.94Q79.54 3.94 79.27 4.12Q79.01 4.30 79.01 4.51L79.01 4.51Q79.01 4.69 79.13 4.82Q79.25 4.96 79.45 5.07Q79.65 5.18 79.91 5.29Q80.18 5.39 80.48 5.49L80.48 5.49Q80.91 5.63 81.38 5.81Q81.84 5.98 82.22 6.25Q82.59 6.51 82.83 6.92Q83.07 7.33 83.07 7.92L83.07 7.92Q83.07 8.38 82.90 8.80Q82.72 9.22 82.31 9.52Q81.90 9.82 81.25 10Q80.59 10.18 79.63 10.18L79.63 10.18Q78.66 10.18 77.97 9.95Q77.28 9.73 76.86 9.55L76.86 9.55L77.17 7.90Q77.73 8.13 78.36 8.32Q78.99 8.51 79.65 8.51ZM91.22 8.10L91.47 9.68Q91.42 9.71 91.26 9.79Q91.09 9.87 90.82 9.96Q90.54 10.05 90.15 10.11Q89.76 10.18 89.26 10.18L89.26 10.18Q87.90 10.18 87.28 9.37Q86.66 8.56 86.66 7.01L86.66 7.01L86.66 0.62L84.58 0.62L84.58-1.01L88.62-1.01L88.62 7.15Q88.62 7.92 88.93 8.19Q89.23 8.46 89.70 8.46L89.70 8.46Q90.29 8.46 90.69 8.30Q91.09 8.14 91.22 8.10L91.22 8.10ZM96.54 0.32L96.54 0.32Q96.54 0.90 96.18 1.23Q95.81 1.57 95.30 1.57L95.30 1.57Q94.78 1.57 94.42 1.23Q94.06 0.90 94.06 0.32L94.06 0.32Q94.06-0.27 94.42-0.61Q94.78-0.94 95.30-0.94L95.30-0.94Q95.81-0.94 96.18-0.61Q96.54-0.27 96.54 0.32ZM99.22 8.10L99.47 9.68Q98.86 9.97 98.33 10.07Q97.79 10.18 97.34 10.18L97.34 10.18Q96.58 10.18 96.06 9.95Q95.54 9.73 95.22 9.30Q94.91 8.88 94.78 8.27Q94.66 7.66 94.66 6.88L94.66 6.88L94.66 4.11L92.58 4.11L92.58 2.48L96.62 2.48L96.62 7.14Q96.62 7.81 96.87 8.14Q97.12 8.46 97.70 8.46L97.70 8.46Q97.97 8.46 98.35 8.39Q98.74 8.32 99.22 8.10L99.22 8.10ZM103.65 8.51L103.65 8.51Q104.37 8.51 104.75 8.41Q105.14 8.30 105.14 7.98L105.14 7.98Q105.14 7.78 105.02 7.63Q104.90 7.49 104.68 7.38Q104.46 7.28 104.18 7.18Q103.90 7.09 103.60 6.99L103.60 6.99Q103.17 6.86 102.72 6.70Q102.27 6.53 101.90 6.27Q101.54 6.02 101.30 5.62Q101.06 5.23 101.06 4.64L101.06 4.64Q101.06 4.16 101.24 3.74Q101.42 3.31 101.82 2.98Q102.21 2.66 102.82 2.47Q103.42 2.29 104.27 2.29L104.27 2.29Q105.01 2.29 105.64 2.40Q106.27 2.51 106.74 2.72L106.74 2.72L106.43 4.38Q106.16 4.30 105.58 4.12Q105.01 3.94 104.29 3.94L104.29 3.94Q103.54 3.94 103.27 4.12Q103.01 4.30 103.01 4.51L103.01 4.51Q103.01 4.69 103.13 4.82Q103.25 4.96 103.45 5.07Q103.65 5.18 103.91 5.29Q104.18 5.39 104.48 5.49L104.48 5.49Q104.91 5.63 105.38 5.81Q105.84 5.98 106.22 6.25Q106.59 6.51 106.83 6.92Q107.07 7.33 107.07 7.92L107.07 7.92Q107.07 8.38 106.90 8.80Q106.72 9.22 106.31 9.52Q105.90 9.82 105.25 10Q104.59 10.18 103.63 10.18L103.63 10.18Q102.66 10.18 101.97 9.95Q101.28 9.73 100.86 9.55L100.86 9.55L101.17 7.90Q101.73 8.13 102.36 8.32Q102.99 8.51 103.65 8.51ZM110.29 7.20L110.29 4.11L108.58 4.11L108.58 2.48L110.29 2.48L110.29 0.59L112.26 0.27L112.26 2.48L115.41 2.48L115.41 4.11L112.26 4.11L112.26 7.15Q112.26 7.57 112.34 7.82Q112.42 8.08 112.56 8.22Q112.70 8.37 112.91 8.42Q113.12 8.46 113.38 8.46L113.38 8.46Q113.65 8.46 113.88 8.45Q114.11 8.43 114.33 8.39Q114.54 8.35 114.78 8.27Q115.01 8.19 115.28 8.06L115.28 8.06L115.55 9.76Q115.01 9.98 114.38 10.08Q113.74 10.18 113.15 10.18L113.15 10.18Q112.46 10.18 111.94 10.06Q111.41 9.95 111.04 9.63Q110.67 9.31 110.48 8.73Q110.29 8.14 110.29 7.20L110.29 7.20Z"/>
    </g>
</svg>