<?xml version="1.0" encoding="UTF-8"?>
<svg height="34" width="187.2" version="1.1" xmlns="http://www.w3.org/2000/svg"><!--Created by Josélio de S. C. Júnior - 2021 - https://github.com/joseliojunior -->
    <rect
        height="32"
        width="185.2"
        rx="1"
        ry="1"
        x="1" y="1"
        fill="#ffd539"
        stroke="#9e7c00"
        stroke-width="1" />
    <g transform="translate(0, 12)">
        <path fill="#9e7c00" stroke="none" d="M31.26 7.51L31.26 7.51Q31.26 8.86 30.80 9.76Q30.34 10.66 29.56 11.20Q28.78 11.74 27.72 11.96Q26.65 12.19 25.42 12.19L25.42 12.19Q24.44 12.19 23.38 12.08Q22.33 11.98 21.30 11.76L21.30 11.76L21.30-2.66Q22.14-2.81 23.14-2.92Q24.15-3.02 25.14-3.02L25.14-3.02Q26.82-3.02 27.87-2.68Q28.93-2.33 29.53-1.76Q30.13-1.20 30.34-0.50Q30.56 0.19 30.56 0.89L30.56 0.89Q30.56 1.94 30.04 2.76Q29.53 3.58 28.66 4.06L28.66 4.06Q30.18 4.61 30.72 5.54Q31.26 6.48 31.26 7.51ZM25.83 5.50L24.25 5.50L24.25 9.53Q24.56 9.58 24.93 9.60Q25.30 9.62 25.66 9.62L25.66 9.62Q26.17 9.62 26.65 9.54Q27.13 9.46 27.50 9.23Q27.87 9 28.11 8.58Q28.35 8.16 28.35 7.51L28.35 7.51Q28.35 6.43 27.67 5.96Q26.98 5.50 25.83 5.50L25.83 5.50ZM24.25 3.05L25.40 3.05Q26.53 3.05 27.10 2.56Q27.68 2.06 27.68 1.20L27.68 1.20Q27.68 0.67 27.51 0.35Q27.34 0.02 27.06-0.16Q26.77-0.34 26.38-0.40Q26-0.46 25.59-0.46L25.59-0.46Q25.26-0.46 24.90-0.43Q24.54-0.41 24.25-0.36L24.25-0.36L24.25 3.05ZM43.02 0.98L42.49 3.72Q42.20 3.65 41.80 3.58Q41.41 3.50 41 3.44Q40.59 3.38 40.21 3.36Q39.82 3.34 39.56 3.34L39.56 3.34Q38.94 3.34 38.34 3.40Q37.74 3.46 37.11 3.62L37.11 3.62L37.11 12L34.14 12L34.14 1.46Q35.31 1.03 36.55 0.77Q37.78 0.50 39.44 0.50L39.44 0.50Q39.68 0.50 40.12 0.53Q40.57 0.55 41.07 0.61Q41.58 0.67 42.09 0.76Q42.61 0.84 43.02 0.98L43.02 0.98ZM55.33 6.34L55.33 6.34Q55.33 7.68 54.94 8.77Q54.56 9.86 53.86 10.66Q53.17 11.45 52.20 11.88Q51.22 12.31 50.02 12.31L50.02 12.31Q48.82 12.31 47.85 11.88Q46.88 11.45 46.17 10.66Q45.46 9.86 45.08 8.77Q44.70 7.68 44.70 6.34L44.70 6.34Q44.70 5.02 45.09 3.92Q45.49 2.83 46.20 2.05Q46.90 1.27 47.89 0.85Q48.87 0.43 50.02 0.43L50.02 0.43Q51.20 0.43 52.17 0.85Q53.14 1.27 53.85 2.05Q54.56 2.83 54.94 3.92Q55.33 5.02 55.33 6.34ZM47.70 6.36L47.70 6.36Q47.70 7.87 48.24 8.81Q48.78 9.74 49.98 9.74L49.98 9.74Q51.13 9.74 51.72 8.81Q52.30 7.87 52.30 6.36L52.30 6.36Q52.30 4.85 51.76 3.92Q51.22 3 50.02 3L50.02 3Q48.87 3 48.28 3.92Q47.70 4.85 47.70 6.36ZM65.96 12L63.73 12Q63.46 11.26 63.24 10.63Q63.01 10.01 62.80 9.42Q62.60 8.83 62.40 8.20Q62.19 7.56 61.98 6.79L61.98 6.79Q61.74 7.56 61.54 8.17Q61.35 8.78 61.15 9.38Q60.94 9.98 60.73 10.61Q60.51 11.23 60.20 12L60.20 12L57.97 12Q57.68 10.94 57.43 9.66Q57.18 8.38 56.96 6.92Q56.74 5.47 56.58 3.91Q56.41 2.35 56.26 0.72L56.26 0.72L58.78 0.72Q58.88 2.81 58.99 4.80Q59.10 6.79 59.38 8.90L59.38 8.90Q59.70 7.99 59.92 7.21Q60.15 6.43 60.33 5.72Q60.51 5.02 60.67 4.36Q60.82 3.70 60.99 3L60.99 3L63.13 3Q63.27 3.70 63.43 4.36Q63.58 5.02 63.76 5.72Q63.94 6.43 64.15 7.21Q64.35 7.99 64.64 8.90L64.64 8.90Q64.78 7.80 64.88 6.79Q64.98 5.78 65.04 4.79Q65.10 3.79 65.13 2.80Q65.17 1.80 65.22 0.72L65.22 0.72L67.74 0.72Q67.47 4.01 67.00 6.91Q66.54 9.82 65.96 12L65.96 12ZM73.47 9.77L73.47 9.77Q74.55 9.77 75.13 9.61Q75.70 9.46 75.70 8.98L75.70 8.98Q75.70 8.66 75.52 8.45Q75.34 8.23 75.02 8.08Q74.70 7.92 74.28 7.78Q73.86 7.63 73.40 7.49L73.40 7.49Q72.75 7.30 72.08 7.04Q71.41 6.79 70.86 6.41Q70.30 6.02 69.94 5.44Q69.58 4.85 69.58 3.96L69.58 3.96Q69.58 3.24 69.86 2.60Q70.14 1.97 70.72 1.48Q71.31 0.98 72.22 0.71Q73.14 0.43 74.41 0.43L74.41 0.43Q75.51 0.43 76.46 0.60Q77.41 0.77 78.10 1.08L78.10 1.08L77.65 3.58Q77.24 3.46 76.38 3.18Q75.51 2.90 74.43 2.90L74.43 2.90Q73.30 2.90 72.91 3.18Q72.51 3.46 72.51 3.77L72.51 3.77Q72.51 4.03 72.69 4.24Q72.87 4.44 73.17 4.61Q73.47 4.78 73.87 4.93Q74.26 5.09 74.72 5.23L74.72 5.23Q75.37 5.45 76.06 5.71Q76.76 5.98 77.32 6.37Q77.89 6.77 78.25 7.38Q78.61 7.99 78.61 8.88L78.61 8.88Q78.61 9.58 78.34 10.20Q78.08 10.82 77.47 11.28Q76.86 11.74 75.87 12Q74.89 12.26 73.45 12.26L73.45 12.26Q71.98 12.26 70.95 11.93Q69.92 11.59 69.30 11.33L69.30 11.33L69.75 8.86Q70.59 9.19 71.54 9.48Q72.49 9.77 73.47 9.77ZM80.74 6.46L80.74 6.46Q80.74 4.97 81.20 3.84Q81.66 2.71 82.40 1.96Q83.14 1.20 84.10 0.82Q85.06 0.43 86.07 0.43L86.07 0.43Q88.57 0.43 89.86 1.91Q91.16 3.38 91.16 6.22L91.16 6.22Q91.16 6.50 91.15 6.82Q91.14 7.13 91.11 7.32L91.11 7.32L83.79 7.32Q83.79 8.42 84.70 9.06Q85.62 9.70 87.06 9.70L87.06 9.70Q87.94 9.70 88.75 9.50Q89.55 9.31 90.10 9.12L90.10 9.12L90.51 11.64Q89.74 11.90 88.88 12.08Q88.02 12.26 86.94 12.26L86.94 12.26Q85.50 12.26 84.36 11.89Q83.22 11.52 82.41 10.79Q81.61 10.06 81.18 8.98Q80.74 7.90 80.74 6.46ZM83.79 5.28L88.30 5.28Q88.30 4.82 88.18 4.40Q88.06 3.98 87.80 3.65Q87.54 3.31 87.13 3.11Q86.72 2.90 86.12 2.90L86.12 2.90Q85.54 2.90 85.12 3.10Q84.70 3.29 84.43 3.62Q84.15 3.96 84.00 4.39Q83.84 4.82 83.79 5.28L83.79 5.28ZM103.02 0.98L102.49 3.72Q102.20 3.65 101.80 3.58Q101.41 3.50 101 3.44Q100.59 3.38 100.21 3.36Q99.82 3.34 99.56 3.34L99.56 3.34Q98.94 3.34 98.34 3.40Q97.74 3.46 97.11 3.62L97.11 3.62L97.11 12L94.14 12L94.14 1.46Q95.31 1.03 96.55 0.77Q97.78 0.50 99.44 0.50L99.44 0.50Q99.68 0.50 100.12 0.53Q100.57 0.55 101.07 0.61Q101.58 0.67 102.09 0.76Q102.61 0.84 103.02 0.98L103.02 0.98ZM109.47 9.77L109.47 9.77Q110.55 9.77 111.13 9.61Q111.70 9.46 111.70 8.98L111.70 8.98Q111.70 8.66 111.52 8.45Q111.34 8.23 111.02 8.08Q110.70 7.92 110.28 7.78Q109.86 7.63 109.40 7.49L109.40 7.49Q108.75 7.30 108.08 7.04Q107.41 6.79 106.86 6.41Q106.30 6.02 105.94 5.44Q105.58 4.85 105.58 3.96L105.58 3.96Q105.58 3.24 105.86 2.60Q106.14 1.97 106.72 1.48Q107.31 0.98 108.22 0.71Q109.14 0.43 110.41 0.43L110.41 0.43Q111.51 0.43 112.46 0.60Q113.41 0.77 114.10 1.08L114.10 1.08L113.65 3.58Q113.24 3.46 112.38 3.18Q111.51 2.90 110.43 2.90L110.43 2.90Q109.30 2.90 108.91 3.18Q108.51 3.46 108.51 3.77L108.51 3.77Q108.51 4.03 108.69 4.24Q108.87 4.44 109.17 4.61Q109.47 4.78 109.87 4.93Q110.26 5.09 110.72 5.23L110.72 5.23Q111.37 5.45 112.06 5.71Q112.76 5.98 113.32 6.37Q113.89 6.77 114.25 7.38Q114.61 7.99 114.61 8.88L114.61 8.88Q114.61 9.58 114.34 10.20Q114.08 10.82 113.47 11.28Q112.86 11.74 111.87 12Q110.89 12.26 109.45 12.26L109.45 12.26Q107.98 12.26 106.95 11.93Q105.92 11.59 105.30 11.33L105.30 11.33L105.75 8.86Q106.59 9.19 107.54 9.48Q108.49 9.77 109.47 9.77ZM126.82 9.14L127.21 11.52Q127.14 11.57 126.88 11.69Q126.63 11.81 126.22 11.94Q125.82 12.07 125.23 12.17Q124.64 12.26 123.90 12.26L123.90 12.26Q121.86 12.26 120.92 11.05Q119.98 9.84 119.98 7.51L119.98 7.51L119.98-2.06L116.86-2.06L116.86-4.51L122.94-4.51L122.94 7.73Q122.94 8.88 123.39 9.29Q123.85 9.70 124.54 9.70L124.54 9.70Q125.43 9.70 126.03 9.46Q126.63 9.22 126.82 9.14L126.82 9.14ZM134.82-2.52L134.82-2.52Q134.82-1.66 134.26-1.15Q133.71-0.65 132.94-0.65L132.94-0.65Q132.18-0.65 131.64-1.15Q131.10-1.66 131.10-2.52L131.10-2.52Q131.10-3.41 131.64-3.91Q132.18-4.42 132.94-4.42L132.94-4.42Q133.71-4.42 134.26-3.91Q134.82-3.41 134.82-2.52ZM138.82 9.14L139.21 11.52Q138.30 11.95 137.49 12.11Q136.69 12.26 136.02 12.26L136.02 12.26Q134.86 12.26 134.08 11.93Q133.30 11.59 132.84 10.96Q132.37 10.32 132.18 9.41Q131.98 8.50 131.98 7.32L131.98 7.32L131.98 3.17L128.86 3.17L128.86 0.72L134.94 0.72L134.94 7.70Q134.94 8.71 135.31 9.20Q135.68 9.70 136.54 9.70L136.54 9.70Q136.95 9.70 137.53 9.59Q138.10 9.48 138.82 9.14L138.82 9.14ZM145.47 9.77L145.47 9.77Q146.55 9.77 147.13 9.61Q147.70 9.46 147.70 8.98L147.70 8.98Q147.70 8.66 147.52 8.45Q147.34 8.23 147.02 8.08Q146.70 7.92 146.28 7.78Q145.86 7.63 145.40 7.49L145.40 7.49Q144.75 7.30 144.08 7.04Q143.41 6.79 142.86 6.41Q142.30 6.02 141.94 5.44Q141.58 4.85 141.58 3.96L141.58 3.96Q141.58 3.24 141.86 2.60Q142.14 1.97 142.72 1.48Q143.31 0.98 144.22 0.71Q145.14 0.43 146.41 0.43L146.41 0.43Q147.51 0.43 148.46 0.60Q149.41 0.77 150.10 1.08L150.10 1.08L149.65 3.58Q149.24 3.46 148.38 3.18Q147.51 2.90 146.43 2.90L146.43 2.90Q145.30 2.90 144.91 3.18Q144.51 3.46 144.51 3.77L144.51 3.77Q144.51 4.03 144.69 4.24Q144.87 4.44 145.17 4.61Q145.47 4.78 145.87 4.93Q146.26 5.09 146.72 5.23L146.72 5.23Q147.37 5.45 148.06 5.71Q148.76 5.98 149.32 6.37Q149.89 6.77 150.25 7.38Q150.61 7.99 150.61 8.88L150.61 8.88Q150.61 9.58 150.34 10.20Q150.08 10.82 149.47 11.28Q148.86 11.74 147.87 12Q146.89 12.26 145.45 12.26L145.45 12.26Q143.98 12.26 142.95 11.93Q141.92 11.59 141.30 11.33L141.30 11.33L141.75 8.86Q142.59 9.19 143.54 9.48Q144.49 9.77 145.47 9.77ZM155.43 7.80L155.43 3.17L152.86 3.17L152.86 0.72L155.43 0.72L155.43-2.11L158.38-2.59L158.38 0.72L163.11 0.72L163.11 3.17L158.38 3.17L158.38 7.73Q158.38 8.35 158.50 8.74Q158.62 9.12 158.84 9.34Q159.06 9.55 159.37 9.62Q159.68 9.70 160.06 9.70L160.06 9.70Q160.47 9.70 160.82 9.67Q161.17 9.65 161.49 9.59Q161.82 9.53 162.16 9.41Q162.51 9.29 162.92 9.10L162.92 9.10L163.33 11.64Q162.51 11.98 161.56 12.12Q160.62 12.26 159.73 12.26L159.73 12.26Q158.70 12.26 157.90 12.10Q157.11 11.93 156.56 11.45Q156.01 10.97 155.72 10.09Q155.43 9.22 155.43 7.80L155.43 7.80Z"/>
    </g>
</svg>