<?xml version="1.0" encoding="UTF-8"?>
<svg height="322" width="320.3" version="1.1" xmlns="http://www.w3.org/2000/svg"><!--Created by Josélio de S. C. Júnior - 2021 - https://github.com/joseliojunior -->
    <rect
        height="32"
        width="318.3"
        rx="16"
        ry="16"
        x="1" y="1"
        fill="#FFCFAB"
        stroke="#e06100"
        stroke-width="1" />
    <g transform="translate(0, 12)">
        <path fill="#e06100" stroke="none" d="M27.49-0.62L27.49-0.62Q26.43-0.62 25.71-0.24Q24.99 0.14 24.52 0.83Q24.06 1.51 23.85 2.46Q23.65 3.41 23.65 4.56L23.65 4.56Q23.65 7.22 24.49 8.48Q25.33 9.74 26.96 9.74L26.96 9.74Q27.22 9.74 27.54 9.72Q27.85 9.70 28.11 9.65L28.11 9.65L28.11 4.22L31.06 4.22L31.06 11.64Q30.54 11.83 29.42 12.07Q28.30 12.31 26.72 12.31L26.72 12.31Q25.33 12.31 24.21 11.82Q23.10 11.33 22.30 10.36Q21.51 9.38 21.08 7.93Q20.65 6.48 20.65 4.56L20.65 4.56Q20.65 2.66 21.15 1.21Q21.66-0.24 22.52-1.22Q23.38-2.21 24.56-2.70Q25.74-3.19 27.08-3.19L27.08-3.19Q27.94-3.19 28.63-3.06Q29.31-2.93 29.82-2.76Q30.32-2.59 30.64-2.40Q30.97-2.21 31.14-2.11L31.14-2.11L30.37 0.24Q29.84-0.10 29.07-0.36Q28.30-0.62 27.49-0.62ZM39.10 12.31L39.10 12.31Q35.96 12.31 34.30 10.30Q32.65 8.28 32.65 4.56L32.65 4.56Q32.65 2.71 33.15 1.27Q33.66-0.17 34.56-1.16Q35.46-2.16 36.69-2.68Q37.93-3.19 39.39-3.19L39.39-3.19Q40.18-3.19 40.82-3.06Q41.46-2.93 41.94-2.76Q42.42-2.59 42.74-2.40Q43.06-2.21 43.23-2.11L43.23-2.11L42.46 0.24Q41.91-0.12 41.13-0.37Q40.35-0.62 39.34-0.62L39.34-0.62Q38.65-0.62 37.99-0.37Q37.33-0.12 36.81 0.47Q36.30 1.06 35.97 2.04Q35.65 3.02 35.65 4.49L35.65 4.49Q35.65 7.03 36.52 8.39Q37.40 9.74 39.39 9.74L39.39 9.74Q40.54 9.74 41.30 9.48Q42.06 9.22 42.51 8.95L42.51 8.95L43.26 11.28Q42.63 11.66 41.56 11.99Q40.50 12.31 39.10 12.31ZM51.10 12.31L51.10 12.31Q47.96 12.31 46.30 10.30Q44.65 8.28 44.65 4.56L44.65 4.56Q44.65 2.71 45.15 1.27Q45.66-0.17 46.56-1.16Q47.46-2.16 48.69-2.68Q49.93-3.19 51.39-3.19L51.39-3.19Q52.18-3.19 52.82-3.06Q53.46-2.93 53.94-2.76Q54.42-2.59 54.74-2.40Q55.06-2.21 55.23-2.11L55.23-2.11L54.46 0.24Q53.91-0.12 53.13-0.37Q52.35-0.62 51.34-0.62L51.34-0.62Q50.65-0.62 49.99-0.37Q49.33-0.12 48.81 0.47Q48.30 1.06 47.97 2.04Q47.65 3.02 47.65 4.49L47.65 4.49Q47.65 7.03 48.52 8.39Q49.40 9.74 51.39 9.74L51.39 9.74Q52.54 9.74 53.30 9.48Q54.06 9.22 54.51 8.95L54.51 8.95L55.26 11.28Q54.63 11.66 53.56 11.99Q52.50 12.31 51.10 12.31ZM69.42-2.86L71.86-2.86Q72.03-2.35 72.28-1.56Q72.54-0.77 72.82 0.14Q73.11 1.06 73.40 1.99Q73.69 2.93 73.95 3.72L73.95 3.72Q74.24 2.83 74.55 1.88Q74.86 0.94 75.15 0.06Q75.44-0.82 75.68-1.58Q75.92-2.35 76.11-2.86L76.11-2.86L78.56-2.86Q78.73-0.91 78.88 0.94Q79.04 2.78 79.15 4.60Q79.26 6.41 79.33 8.24Q79.40 10.08 79.45 12L79.45 12L76.74 12L76.88 0.46L75.06 6.74L72.90 6.74L71.14 0.46L71.26 12L68.55 12Q68.62 10.18 68.71 8.21Q68.79 6.24 68.89 4.30Q68.98 2.35 69.12 0.53Q69.25-1.30 69.42-2.86L69.42-2.86ZM86.02 9.89L86.02 9.89Q86.50 9.89 86.96 9.88Q87.42 9.86 87.75 9.82L87.75 9.82L87.75 7.22Q87.46 7.18 87.06 7.14Q86.65 7.10 86.31 7.10L86.31 7.10Q85.86 7.10 85.42 7.16Q84.99 7.22 84.67 7.37Q84.34 7.51 84.15 7.78Q83.96 8.04 83.96 8.47L83.96 8.47Q83.96 9.24 84.54 9.56Q85.11 9.89 86.02 9.89ZM85.76 0.43L85.76 0.43Q87.15 0.43 88.08 0.76Q89 1.08 89.55 1.67Q90.10 2.26 90.34 3.11Q90.58 3.96 90.58 5.02L90.58 5.02L90.58 11.74Q89.94 11.88 88.66 12.07Q87.39 12.26 85.81 12.26L85.81 12.26Q84.73 12.26 83.85 12.07Q82.98 11.88 82.35 11.44Q81.73 10.99 81.39 10.28Q81.06 9.58 81.06 8.54L81.06 8.54Q81.06 7.56 81.44 6.89Q81.82 6.22 82.47 5.81Q83.12 5.40 83.96 5.22Q84.80 5.04 85.71 5.04L85.71 5.04Q86.86 5.04 87.75 5.23L87.75 5.23L87.75 4.87Q87.75 4.03 87.22 3.47Q86.70 2.90 85.40 2.90L85.40 2.90Q84.56 2.90 83.78 3.02Q83 3.14 82.52 3.31L82.52 3.31L82.11 0.94Q82.66 0.74 83.67 0.59Q84.68 0.43 85.76 0.43ZM93.06 6.36L93.06 6.36Q93.06 5.14 93.44 4.06Q93.82 2.98 94.62 2.17Q95.41 1.37 96.62 0.90Q97.83 0.43 99.51 0.43L99.51 0.43Q100.52 0.43 101.34 0.58Q102.15 0.72 102.99 1.06L102.99 1.06L102.34 3.43Q101.86 3.26 101.28 3.13Q100.69 3 99.78 3L99.78 3Q98.72 3 98.01 3.25Q97.30 3.50 96.87 3.95Q96.44 4.39 96.25 5.02Q96.06 5.64 96.06 6.36L96.06 6.36Q96.06 7.92 96.93 8.81Q97.81 9.70 99.92 9.70L99.92 9.70Q100.62 9.70 101.37 9.60Q102.13 9.50 102.75 9.29L102.75 9.29L103.18 11.71Q102.56 11.95 101.67 12.11Q100.78 12.26 99.58 12.26L99.58 12.26Q97.86 12.26 96.62 11.81Q95.38 11.35 94.59 10.56Q93.80 9.77 93.43 8.69Q93.06 7.61 93.06 6.36ZM108.46 12L105.51 12L105.51-4.15L108.46-4.66L108.46 0.82Q108.82 0.70 109.33 0.59Q109.83 0.48 110.22 0.48L110.22 0.48Q111.46 0.48 112.30 0.85Q113.14 1.22 113.65 1.91Q114.15 2.59 114.37 3.54Q114.58 4.49 114.58 5.64L114.58 5.64L114.58 12L111.63 12L111.63 6.02Q111.63 4.44 111.27 3.74Q110.91 3.05 109.90 3.05L109.90 3.05Q109.50 3.05 109.10 3.14Q108.70 3.24 108.46 3.31L108.46 3.31L108.46 12ZM122.82-2.52L122.82-2.52Q122.82-1.66 122.26-1.15Q121.71-0.65 120.94-0.65L120.94-0.65Q120.18-0.65 119.64-1.15Q119.10-1.66 119.10-2.52L119.10-2.52Q119.10-3.41 119.64-3.91Q120.18-4.42 120.94-4.42L120.94-4.42Q121.71-4.42 122.26-3.91Q122.82-3.41 122.82-2.52ZM126.82 9.14L127.21 11.52Q126.30 11.95 125.49 12.11Q124.69 12.26 124.02 12.26L124.02 12.26Q122.86 12.26 122.08 11.93Q121.30 11.59 120.84 10.96Q120.37 10.32 120.18 9.41Q119.98 8.50 119.98 7.32L119.98 7.32L119.98 3.17L116.86 3.17L116.86 0.72L122.94 0.72L122.94 7.70Q122.94 8.71 123.31 9.20Q123.68 9.70 124.54 9.70L124.54 9.70Q124.95 9.70 125.53 9.59Q126.10 9.48 126.82 9.14L126.82 9.14ZM129.51 12L129.51 1.08Q130.30 0.86 131.47 0.67Q132.63 0.48 134 0.48L134 0.48Q135.34 0.48 136.23 0.85Q137.12 1.22 137.64 1.91Q138.15 2.59 138.37 3.54Q138.58 4.49 138.58 5.64L138.58 5.64L138.58 12L135.63 12L135.63 6.02Q135.63 4.44 135.27 3.74Q134.91 3.05 133.81 3.05L133.81 3.05Q133.47 3.05 133.15 3.07Q132.82 3.10 132.46 3.14L132.46 3.14L132.46 12L129.51 12ZM140.74 6.46L140.74 6.46Q140.74 4.97 141.20 3.84Q141.66 2.71 142.40 1.96Q143.14 1.20 144.10 0.82Q145.06 0.43 146.07 0.43L146.07 0.43Q148.57 0.43 149.86 1.91Q151.16 3.38 151.16 6.22L151.16 6.22Q151.16 6.50 151.15 6.82Q151.14 7.13 151.11 7.32L151.11 7.32L143.79 7.32Q143.79 8.42 144.70 9.06Q145.62 9.70 147.06 9.70L147.06 9.70Q147.94 9.70 148.75 9.50Q149.55 9.31 150.10 9.12L150.10 9.12L150.51 11.64Q149.74 11.90 148.88 12.08Q148.02 12.26 146.94 12.26L146.94 12.26Q145.50 12.26 144.36 11.89Q143.22 11.52 142.41 10.79Q141.61 10.06 141.18 8.98Q140.74 7.90 140.74 6.46ZM143.79 5.28L148.30 5.28Q148.30 4.82 148.18 4.40Q148.06 3.98 147.80 3.65Q147.54 3.31 147.13 3.11Q146.72 2.90 146.12 2.90L146.12 2.90Q145.54 2.90 145.12 3.10Q144.70 3.29 144.43 3.62Q144.15 3.96 144.00 4.39Q143.84 4.82 143.79 5.28L143.79 5.28ZM168.25-0.38L168.25 9.60Q168.37 9.62 168.51 9.62Q168.66 9.62 168.78 9.62L168.78 9.62Q169.78 9.62 170.47 9.24Q171.15 8.86 171.57 8.18Q171.99 7.51 172.17 6.59Q172.35 5.66 172.35 4.56L172.35 4.56Q172.35 3.60 172.21 2.69Q172.06 1.78 171.70 1.08Q171.34 0.38 170.72-0.04Q170.10-0.46 169.11-0.46L169.11-0.46Q168.92-0.46 168.68-0.44Q168.44-0.43 168.25-0.38L168.25-0.38ZM175.35 4.56L175.35 4.56Q175.35 6.62 174.84 8.08Q174.32 9.53 173.41 10.44Q172.50 11.35 171.24 11.77Q169.98 12.19 168.46 12.19L168.46 12.19Q167.67 12.19 166.92 12.11Q166.16 12.02 165.30 11.83L165.30 11.83L165.30-2.66Q166.30-2.88 167.19-2.95Q168.08-3.02 168.85-3.02L168.85-3.02Q170.31-3.02 171.52-2.59Q172.74-2.16 173.58-1.24Q174.42-0.31 174.88 1.12Q175.35 2.54 175.35 4.56ZM176.74 6.46L176.74 6.46Q176.74 4.97 177.20 3.84Q177.66 2.71 178.40 1.96Q179.14 1.20 180.10 0.82Q181.06 0.43 182.07 0.43L182.07 0.43Q184.57 0.43 185.86 1.91Q187.16 3.38 187.16 6.22L187.16 6.22Q187.16 6.50 187.15 6.82Q187.14 7.13 187.11 7.32L187.11 7.32L179.79 7.32Q179.79 8.42 180.70 9.06Q181.62 9.70 183.06 9.70L183.06 9.70Q183.94 9.70 184.75 9.50Q185.55 9.31 186.10 9.12L186.10 9.12L186.51 11.64Q185.74 11.90 184.88 12.08Q184.02 12.26 182.94 12.26L182.94 12.26Q181.50 12.26 180.36 11.89Q179.22 11.52 178.41 10.79Q177.61 10.06 177.18 8.98Q176.74 7.90 176.74 6.46ZM179.79 5.28L184.30 5.28Q184.30 4.82 184.18 4.40Q184.06 3.98 183.80 3.65Q183.54 3.31 183.13 3.11Q182.72 2.90 182.12 2.90L182.12 2.90Q181.54 2.90 181.12 3.10Q180.70 3.29 180.43 3.62Q180.15 3.96 180.00 4.39Q179.84 4.82 179.79 5.28L179.79 5.28ZM193.47 9.77L193.47 9.77Q194.55 9.77 195.13 9.61Q195.70 9.46 195.70 8.98L195.70 8.98Q195.70 8.66 195.52 8.45Q195.34 8.23 195.02 8.08Q194.70 7.92 194.28 7.78Q193.86 7.63 193.40 7.49L193.40 7.49Q192.75 7.30 192.08 7.04Q191.41 6.79 190.86 6.41Q190.30 6.02 189.94 5.44Q189.58 4.85 189.58 3.96L189.58 3.96Q189.58 3.24 189.86 2.60Q190.14 1.97 190.72 1.48Q191.31 0.98 192.22 0.71Q193.14 0.43 194.41 0.43L194.41 0.43Q195.51 0.43 196.46 0.60Q197.41 0.77 198.10 1.08L198.10 1.08L197.65 3.58Q197.24 3.46 196.38 3.18Q195.51 2.90 194.43 2.90L194.43 2.90Q193.30 2.90 192.91 3.18Q192.51 3.46 192.51 3.77L192.51 3.77Q192.51 4.03 192.69 4.24Q192.87 4.44 193.17 4.61Q193.47 4.78 193.87 4.93Q194.26 5.09 194.72 5.23L194.72 5.23Q195.37 5.45 196.06 5.71Q196.76 5.98 197.32 6.37Q197.89 6.77 198.25 7.38Q198.61 7.99 198.61 8.88L198.61 8.88Q198.61 9.58 198.34 10.20Q198.08 10.82 197.47 11.28Q196.86 11.74 195.87 12Q194.89 12.26 193.45 12.26L193.45 12.26Q191.98 12.26 190.95 11.93Q189.92 11.59 189.30 11.33L189.30 11.33L189.75 8.86Q190.59 9.19 191.54 9.48Q192.49 9.77 193.47 9.77ZM201.06 6.36L201.06 6.36Q201.06 5.14 201.44 4.06Q201.82 2.98 202.62 2.17Q203.41 1.37 204.62 0.90Q205.83 0.43 207.51 0.43L207.51 0.43Q208.52 0.43 209.34 0.58Q210.15 0.72 210.99 1.06L210.99 1.06L210.34 3.43Q209.86 3.26 209.28 3.13Q208.69 3 207.78 3L207.78 3Q206.72 3 206.01 3.25Q205.30 3.50 204.87 3.95Q204.44 4.39 204.25 5.02Q204.06 5.64 204.06 6.36L204.06 6.36Q204.06 7.92 204.93 8.81Q205.81 9.70 207.92 9.70L207.92 9.70Q208.62 9.70 209.37 9.60Q210.13 9.50 210.75 9.29L210.75 9.29L211.18 11.71Q210.56 11.95 209.67 12.11Q208.78 12.26 207.58 12.26L207.58 12.26Q205.86 12.26 204.62 11.81Q203.38 11.35 202.59 10.56Q201.80 9.77 201.43 8.69Q201.06 7.61 201.06 6.36ZM223.02 0.98L222.49 3.72Q222.20 3.65 221.80 3.58Q221.41 3.50 221 3.44Q220.59 3.38 220.21 3.36Q219.82 3.34 219.56 3.34L219.56 3.34Q218.94 3.34 218.34 3.40Q217.74 3.46 217.11 3.62L217.11 3.62L217.11 12L214.14 12L214.14 1.46Q215.31 1.03 216.55 0.77Q217.78 0.50 219.44 0.50L219.44 0.50Q219.68 0.50 220.12 0.53Q220.57 0.55 221.07 0.61Q221.58 0.67 222.09 0.76Q222.61 0.84 223.02 0.98L223.02 0.98ZM230.82-2.52L230.82-2.52Q230.82-1.66 230.26-1.15Q229.71-0.65 228.94-0.65L228.94-0.65Q228.18-0.65 227.64-1.15Q227.10-1.66 227.10-2.52L227.10-2.52Q227.10-3.41 227.64-3.91Q228.18-4.42 228.94-4.42L228.94-4.42Q229.71-4.42 230.26-3.91Q230.82-3.41 230.82-2.52ZM234.82 9.14L235.21 11.52Q234.30 11.95 233.49 12.11Q232.69 12.26 232.02 12.26L232.02 12.26Q230.86 12.26 230.08 11.93Q229.30 11.59 228.84 10.96Q228.37 10.32 228.18 9.41Q227.98 8.50 227.98 7.32L227.98 7.32L227.98 3.17L224.86 3.17L224.86 0.72L230.94 0.72L230.94 7.70Q230.94 8.71 231.31 9.20Q231.68 9.70 232.54 9.70L232.54 9.70Q232.95 9.70 233.53 9.59Q234.10 9.48 234.82 9.14L234.82 9.14ZM244.26 6.46L244.26 6.46Q244.26 4.94 243.66 3.97Q243.06 3 241.83 3L241.83 3Q241.50 3 241.11 3.04Q240.73 3.07 240.46 3.10L240.46 3.10L240.46 9.29Q240.75 9.48 241.23 9.60Q241.71 9.72 242.19 9.72L242.19 9.72Q243.25 9.72 243.75 8.87Q244.26 8.02 244.26 6.46ZM247.26 6.36L247.26 6.36Q247.26 7.66 246.97 8.75Q246.68 9.84 246.13 10.62Q245.58 11.40 244.74 11.83Q243.90 12.26 242.79 12.26L242.79 12.26Q241.66 12.26 240.46 11.71L240.46 11.71L240.46 15.96L237.51 15.96L237.51 1.08Q238.33 0.82 239.52 0.65Q240.70 0.48 241.86 0.48L241.86 0.48Q244.47 0.48 245.86 2.06Q247.26 3.65 247.26 6.36ZM251.43 7.80L251.43 3.17L248.86 3.17L248.86 0.72L251.43 0.72L251.43-2.11L254.38-2.59L254.38 0.72L259.11 0.72L259.11 3.17L254.38 3.17L254.38 7.73Q254.38 8.35 254.50 8.74Q254.62 9.12 254.84 9.34Q255.06 9.55 255.37 9.62Q255.68 9.70 256.06 9.70L256.06 9.70Q256.47 9.70 256.82 9.67Q257.17 9.65 257.49 9.59Q257.82 9.53 258.16 9.41Q258.51 9.29 258.92 9.10L258.92 9.10L259.33 11.64Q258.51 11.98 257.56 12.12Q256.62 12.26 255.73 12.26L255.73 12.26Q254.70 12.26 253.90 12.10Q253.11 11.93 252.56 11.45Q252.01 10.97 251.72 10.09Q251.43 9.22 251.43 7.80L251.43 7.80ZM266.82-2.52L266.82-2.52Q266.82-1.66 266.26-1.15Q265.71-0.65 264.94-0.65L264.94-0.65Q264.18-0.65 263.64-1.15Q263.10-1.66 263.10-2.52L263.10-2.52Q263.10-3.41 263.64-3.91Q264.18-4.42 264.94-4.42L264.94-4.42Q265.71-4.42 266.26-3.91Q266.82-3.41 266.82-2.52ZM270.82 9.14L271.21 11.52Q270.30 11.95 269.49 12.11Q268.69 12.26 268.02 12.26L268.02 12.26Q266.86 12.26 266.08 11.93Q265.30 11.59 264.84 10.96Q264.37 10.32 264.18 9.41Q263.98 8.50 263.98 7.32L263.98 7.32L263.98 3.17L260.86 3.17L260.86 0.72L266.94 0.72L266.94 7.70Q266.94 8.71 267.31 9.20Q267.68 9.70 268.54 9.70L268.54 9.70Q268.95 9.70 269.53 9.59Q270.10 9.48 270.82 9.14L270.82 9.14ZM283.33 6.34L283.33 6.34Q283.33 7.68 282.94 8.77Q282.56 9.86 281.86 10.66Q281.17 11.45 280.20 11.88Q279.22 12.31 278.02 12.31L278.02 12.31Q276.82 12.31 275.85 11.88Q274.88 11.45 274.17 10.66Q273.46 9.86 273.08 8.77Q272.70 7.68 272.70 6.34L272.70 6.34Q272.70 5.02 273.09 3.92Q273.49 2.83 274.20 2.05Q274.90 1.27 275.89 0.85Q276.87 0.43 278.02 0.43L278.02 0.43Q279.20 0.43 280.17 0.85Q281.14 1.27 281.85 2.05Q282.56 2.83 282.94 3.92Q283.33 5.02 283.33 6.34ZM275.70 6.36L275.70 6.36Q275.70 7.87 276.24 8.81Q276.78 9.74 277.98 9.74L277.98 9.74Q279.13 9.74 279.72 8.81Q280.30 7.87 280.30 6.36L280.30 6.36Q280.30 4.85 279.76 3.92Q279.22 3 278.02 3L278.02 3Q276.87 3 276.28 3.92Q275.70 4.85 275.70 6.36ZM285.51 12L285.51 1.08Q286.30 0.86 287.47 0.67Q288.63 0.48 290 0.48L290 0.48Q291.34 0.48 292.23 0.85Q293.12 1.22 293.64 1.91Q294.15 2.59 294.37 3.54Q294.58 4.49 294.58 5.64L294.58 5.64L294.58 12L291.63 12L291.63 6.02Q291.63 4.44 291.27 3.74Q290.91 3.05 289.81 3.05L289.81 3.05Q289.47 3.05 289.15 3.07Q288.82 3.10 288.46 3.14L288.46 3.14L288.46 12L285.51 12Z"/>
    </g>
</svg>