<?xml version="1.0" encoding="UTF-8"?>
<svg height="26" width="228.29999999999998" version="1.1" xmlns="http://www.w3.org/2000/svg"><!--Created by Josélio de S. C. Júnior - 2021 - https://github.com/joseliojunior -->
    <rect
        height="24"
        width="226.29999999999998"
        rx="12"
        ry="12"
        x="1" y="1"
        fill="#FFCFAB"
        stroke="#e06100"
        stroke-width="1" />
    <g transform="translate(0, 8)">
        <path fill="#e06100" d="M24.99 1.58L24.99 1.58Q24.29 1.58 23.81 1.84Q23.33 2.10 23.02 2.55Q22.70 3.01 22.57 3.64Q22.43 4.27 22.43 5.04L22.43 5.04Q22.43 6.82 22.99 7.66Q23.55 8.50 24.64 8.50L24.64 8.50Q24.82 8.50 25.02 8.48Q25.23 8.46 25.41 8.43L25.41 8.43L25.41 4.82L27.38 4.82L27.38 9.76Q27.02 9.89 26.28 10.05Q25.54 10.21 24.48 10.21L24.48 10.21Q23.55 10.21 22.81 9.88Q22.06 9.55 21.54 8.90Q21.01 8.26 20.72 7.29Q20.43 6.32 20.43 5.04L20.43 5.04Q20.43 3.78 20.77 2.81Q21.10 1.84 21.68 1.18Q22.26 0.53 23.04 0.20Q23.82-0.13 24.72-0.13L24.72-0.13Q25.30-0.13 25.75-0.04Q26.21 0.05 26.54 0.16Q26.88 0.27 27.10 0.40Q27.31 0.53 27.42 0.59L27.42 0.59L26.91 2.16Q26.56 1.94 26.05 1.76Q25.54 1.58 24.99 1.58ZM32.74 10.21L32.74 10.21Q30.64 10.21 29.54 8.86Q28.43 7.52 28.43 5.04L28.43 5.04Q28.43 3.81 28.77 2.85Q29.10 1.89 29.70 1.22Q30.30 0.56 31.13 0.22Q31.95-0.13 32.93-0.13L32.93-0.13Q33.46-0.13 33.88-0.04Q34.30 0.05 34.62 0.16Q34.94 0.27 35.16 0.40Q35.38 0.53 35.49 0.59L35.49 0.59L34.98 2.16Q34.61 1.92 34.09 1.75Q33.57 1.58 32.90 1.58L32.90 1.58Q32.43 1.58 31.99 1.75Q31.55 1.92 31.21 2.31Q30.86 2.70 30.65 3.36Q30.43 4.02 30.43 4.99L30.43 4.99Q30.43 6.69 31.02 7.59Q31.60 8.50 32.93 8.50L32.93 8.50Q33.70 8.50 34.20 8.32Q34.70 8.14 35.01 7.97L35.01 7.97L35.50 9.52Q35.09 9.78 34.38 9.99Q33.66 10.21 32.74 10.21ZM40.74 10.21L40.74 10.21Q38.64 10.21 37.54 8.86Q36.43 7.52 36.43 5.04L36.43 5.04Q36.43 3.81 36.77 2.85Q37.10 1.89 37.70 1.22Q38.30 0.56 39.13 0.22Q39.95-0.13 40.93-0.13L40.93-0.13Q41.46-0.13 41.88-0.04Q42.30 0.05 42.62 0.16Q42.94 0.27 43.16 0.40Q43.38 0.53 43.49 0.59L43.49 0.59L42.98 2.16Q42.61 1.92 42.09 1.75Q41.57 1.58 40.90 1.58L40.90 1.58Q40.43 1.58 39.99 1.75Q39.55 1.92 39.21 2.31Q38.86 2.70 38.65 3.36Q38.43 4.02 38.43 4.99L38.43 4.99Q38.43 6.69 39.02 7.59Q39.60 8.50 40.93 8.50L40.93 8.50Q41.70 8.50 42.20 8.32Q42.70 8.14 43.01 7.97L43.01 7.97L43.50 9.52Q43.09 9.78 42.38 9.99Q41.66 10.21 40.74 10.21ZM52.94 0.10L54.58 0.10Q54.69 0.43 54.86 0.96Q55.02 1.49 55.22 2.10Q55.41 2.70 55.60 3.33Q55.79 3.95 55.97 4.48L55.97 4.48Q56.16 3.89 56.37 3.26Q56.58 2.62 56.77 2.04Q56.96 1.46 57.12 0.94Q57.28 0.43 57.41 0.10L57.41 0.10L59.04 0.10Q59.15 1.39 59.26 2.62Q59.36 3.86 59.43 5.06Q59.50 6.27 59.55 7.50Q59.60 8.72 59.63 10L59.63 10L57.82 10L57.92 2.30L56.70 6.50L55.26 6.50L54.10 2.30L54.18 10L52.37 10Q52.42 8.78 52.47 7.47Q52.53 6.16 52.59 4.86Q52.66 3.57 52.74 2.35Q52.83 1.14 52.94 0.10L52.94 0.10ZM64.02 8.59L64.02 8.59Q64.34 8.59 64.64 8.58Q64.94 8.58 65.17 8.54L65.17 8.54L65.17 6.82Q64.98 6.78 64.70 6.76Q64.43 6.74 64.21 6.74L64.21 6.74Q63.90 6.74 63.62 6.78Q63.33 6.82 63.11 6.91Q62.90 7.01 62.77 7.18Q62.64 7.36 62.64 7.65L62.64 7.65Q62.64 8.16 63.02 8.38Q63.41 8.59 64.02 8.59ZM63.84 2.29L63.84 2.29Q64.77 2.29 65.38 2.50Q66 2.72 66.37 3.11Q66.74 3.50 66.90 4.07Q67.06 4.64 67.06 5.34L67.06 5.34L67.06 9.82Q66.62 9.92 65.78 10.05Q64.93 10.18 63.87 10.18L63.87 10.18Q63.15 10.18 62.57 10.05Q61.98 9.92 61.57 9.62Q61.15 9.33 60.93 8.86Q60.70 8.38 60.70 7.70L60.70 7.70Q60.70 7.04 60.96 6.59Q61.22 6.14 61.65 5.87Q62.08 5.60 62.64 5.48Q63.20 5.36 63.81 5.36L63.81 5.36Q64.58 5.36 65.17 5.49L65.17 5.49L65.17 5.25Q65.17 4.69 64.82 4.31Q64.46 3.94 63.60 3.94L63.60 3.94Q63.04 3.94 62.52 4.02Q62 4.10 61.68 4.21L61.68 4.21L61.41 2.62Q61.78 2.50 62.45 2.39Q63.12 2.29 63.84 2.29ZM68.70 6.24L68.70 6.24Q68.70 5.42 68.96 4.70Q69.22 3.98 69.74 3.45Q70.27 2.91 71.08 2.60Q71.89 2.29 73.01 2.29L73.01 2.29Q73.68 2.29 74.22 2.38Q74.77 2.48 75.33 2.70L75.33 2.70L74.90 4.29Q74.58 4.18 74.18 4.09Q73.79 4 73.18 4L73.18 4Q72.48 4 72.01 4.17Q71.54 4.34 71.25 4.63Q70.96 4.93 70.83 5.34Q70.70 5.76 70.70 6.24L70.70 6.24Q70.70 7.28 71.29 7.87Q71.87 8.46 73.28 8.46L73.28 8.46Q73.74 8.46 74.25 8.40Q74.75 8.34 75.17 8.19L75.17 8.19L75.46 9.81Q75.04 9.97 74.45 10.07Q73.86 10.18 73.06 10.18L73.06 10.18Q71.90 10.18 71.08 9.87Q70.26 9.57 69.73 9.04Q69.20 8.51 68.95 7.79Q68.70 7.07 68.70 6.24ZM78.98 10L77.01 10L77.01-0.77L78.98-1.10L78.98 2.54Q79.22 2.46 79.55 2.39Q79.89 2.32 80.14 2.32L80.14 2.32Q80.98 2.32 81.54 2.57Q82.10 2.82 82.43 3.27Q82.77 3.73 82.91 4.36Q83.06 4.99 83.06 5.76L83.06 5.76L83.06 10L81.09 10L81.09 6.02Q81.09 4.96 80.85 4.50Q80.61 4.03 79.94 4.03L79.94 4.03Q79.66 4.03 79.40 4.10Q79.14 4.16 78.98 4.21L78.98 4.21L78.98 10ZM88.54 0.32L88.54 0.32Q88.54 0.90 88.18 1.23Q87.81 1.57 87.30 1.57L87.30 1.57Q86.78 1.57 86.42 1.23Q86.06 0.90 86.06 0.32L86.06 0.32Q86.06-0.27 86.42-0.61Q86.78-0.94 87.30-0.94L87.30-0.94Q87.81-0.94 88.18-0.61Q88.54-0.27 88.54 0.32ZM91.22 8.10L91.47 9.68Q90.86 9.97 90.33 10.07Q89.79 10.18 89.34 10.18L89.34 10.18Q88.58 10.18 88.06 9.95Q87.54 9.73 87.22 9.30Q86.91 8.88 86.78 8.27Q86.66 7.66 86.66 6.88L86.66 6.88L86.66 4.11L84.58 4.11L84.58 2.48L88.62 2.48L88.62 7.14Q88.62 7.81 88.87 8.14Q89.12 8.46 89.70 8.46L89.70 8.46Q89.97 8.46 90.35 8.39Q90.74 8.32 91.22 8.10L91.22 8.10ZM93.01 10L93.01 2.72Q93.54 2.58 94.31 2.45Q95.09 2.32 96 2.32L96 2.32Q96.90 2.32 97.49 2.57Q98.08 2.82 98.42 3.27Q98.77 3.73 98.91 4.36Q99.06 4.99 99.06 5.76L99.06 5.76L99.06 10L97.09 10L97.09 6.02Q97.09 4.96 96.85 4.50Q96.61 4.03 95.87 4.03L95.87 4.03Q95.65 4.03 95.43 4.05Q95.22 4.06 94.98 4.10L94.98 4.10L94.98 10L93.01 10ZM100.50 6.30L100.50 6.30Q100.50 5.31 100.80 4.56Q101.10 3.81 101.60 3.30Q102.10 2.80 102.74 2.54Q103.38 2.29 104.05 2.29L104.05 2.29Q105.71 2.29 106.58 3.27Q107.44 4.26 107.44 6.14L107.44 6.14Q107.44 6.34 107.43 6.54Q107.42 6.75 107.41 6.88L107.41 6.88L102.53 6.88Q102.53 7.62 103.14 8.04Q103.74 8.46 104.70 8.46L104.70 8.46Q105.30 8.46 105.83 8.34Q106.37 8.21 106.74 8.08L106.74 8.08L107.01 9.76Q106.50 9.94 105.92 10.06Q105.34 10.18 104.62 10.18L104.62 10.18Q103.66 10.18 102.90 9.93Q102.14 9.68 101.61 9.19Q101.07 8.70 100.78 7.98Q100.50 7.26 100.50 6.30ZM102.53 5.52L105.54 5.52Q105.54 5.22 105.46 4.94Q105.38 4.66 105.20 4.43Q105.02 4.21 104.75 4.07Q104.48 3.94 104.08 3.94L104.08 3.94Q103.70 3.94 103.42 4.06Q103.14 4.19 102.95 4.42Q102.77 4.64 102.66 4.93Q102.56 5.22 102.53 5.52L102.53 5.52ZM118.83 1.74L118.83 8.40Q118.91 8.42 119.01 8.42Q119.10 8.42 119.18 8.42L119.18 8.42Q119.86 8.42 120.31 8.16Q120.77 7.90 121.05 7.46Q121.33 7.01 121.45 6.39Q121.57 5.78 121.57 5.04L121.57 5.04Q121.57 4.40 121.47 3.79Q121.38 3.18 121.14 2.72Q120.90 2.26 120.48 1.98Q120.06 1.70 119.41 1.70L119.41 1.70Q119.28 1.70 119.12 1.70Q118.96 1.71 118.83 1.74L118.83 1.74ZM123.57 5.04L123.57 5.04Q123.57 6.42 123.22 7.38Q122.88 8.35 122.27 8.96Q121.66 9.57 120.82 9.85Q119.98 10.13 118.98 10.13L118.98 10.13Q118.45 10.13 117.94 10.07Q117.44 10.02 116.86 9.89L116.86 9.89L116.86 0.22Q117.54 0.08 118.13 0.03Q118.72-0.02 119.23-0.02L119.23-0.02Q120.21-0.02 121.02 0.27Q121.82 0.56 122.38 1.18Q122.94 1.79 123.26 2.74Q123.57 3.70 123.57 5.04ZM124.50 6.30L124.50 6.30Q124.50 5.31 124.80 4.56Q125.10 3.81 125.60 3.30Q126.10 2.80 126.74 2.54Q127.38 2.29 128.05 2.29L128.05 2.29Q129.71 2.29 130.58 3.27Q131.44 4.26 131.44 6.14L131.44 6.14Q131.44 6.34 131.43 6.54Q131.42 6.75 131.41 6.88L131.41 6.88L126.53 6.88Q126.53 7.62 127.14 8.04Q127.74 8.46 128.70 8.46L128.70 8.46Q129.30 8.46 129.83 8.34Q130.37 8.21 130.74 8.08L130.74 8.08L131.01 9.76Q130.50 9.94 129.92 10.06Q129.34 10.18 128.62 10.18L128.62 10.18Q127.66 10.18 126.90 9.93Q126.14 9.68 125.61 9.19Q125.07 8.70 124.78 7.98Q124.50 7.26 124.50 6.30ZM126.53 5.52L129.54 5.52Q129.54 5.22 129.46 4.94Q129.38 4.66 129.20 4.43Q129.02 4.21 128.75 4.07Q128.48 3.94 128.08 3.94L128.08 3.94Q127.70 3.94 127.42 4.06Q127.14 4.19 126.95 4.42Q126.77 4.64 126.66 4.93Q126.56 5.22 126.53 5.52L126.53 5.52ZM135.65 8.51L135.65 8.51Q136.37 8.51 136.75 8.41Q137.14 8.30 137.14 7.98L137.14 7.98Q137.14 7.78 137.02 7.63Q136.90 7.49 136.68 7.38Q136.46 7.28 136.18 7.18Q135.90 7.09 135.60 6.99L135.60 6.99Q135.17 6.86 134.72 6.70Q134.27 6.53 133.90 6.27Q133.54 6.02 133.30 5.62Q133.06 5.23 133.06 4.64L133.06 4.64Q133.06 4.16 133.24 3.74Q133.42 3.31 133.82 2.98Q134.21 2.66 134.82 2.47Q135.42 2.29 136.27 2.29L136.27 2.29Q137.01 2.29 137.64 2.40Q138.27 2.51 138.74 2.72L138.74 2.72L138.43 4.38Q138.16 4.30 137.58 4.12Q137.01 3.94 136.29 3.94L136.29 3.94Q135.54 3.94 135.27 4.12Q135.01 4.30 135.01 4.51L135.01 4.51Q135.01 4.69 135.13 4.82Q135.25 4.96 135.45 5.07Q135.65 5.18 135.91 5.29Q136.18 5.39 136.48 5.49L136.48 5.49Q136.91 5.63 137.38 5.81Q137.84 5.98 138.22 6.25Q138.59 6.51 138.83 6.92Q139.07 7.33 139.07 7.92L139.07 7.92Q139.07 8.38 138.90 8.80Q138.72 9.22 138.31 9.52Q137.90 9.82 137.25 10Q136.59 10.18 135.63 10.18L135.63 10.18Q134.66 10.18 133.97 9.95Q133.28 9.73 132.86 9.55L132.86 9.55L133.17 7.90Q133.73 8.13 134.36 8.32Q134.99 8.51 135.65 8.51ZM140.70 6.24L140.70 6.24Q140.70 5.42 140.96 4.70Q141.22 3.98 141.74 3.45Q142.27 2.91 143.08 2.60Q143.89 2.29 145.01 2.29L145.01 2.29Q145.68 2.29 146.22 2.38Q146.77 2.48 147.33 2.70L147.33 2.70L146.90 4.29Q146.58 4.18 146.18 4.09Q145.79 4 145.18 4L145.18 4Q144.48 4 144.01 4.17Q143.54 4.34 143.25 4.63Q142.96 4.93 142.83 5.34Q142.70 5.76 142.70 6.24L142.70 6.24Q142.70 7.28 143.29 7.87Q143.87 8.46 145.28 8.46L145.28 8.46Q145.74 8.46 146.25 8.40Q146.75 8.34 147.17 8.19L147.17 8.19L147.46 9.81Q147.04 9.97 146.45 10.07Q145.86 10.18 145.06 10.18L145.06 10.18Q143.90 10.18 143.08 9.87Q142.26 9.57 141.73 9.04Q141.20 8.51 140.95 7.79Q140.70 7.07 140.70 6.24ZM155.34 2.66L154.99 4.48Q154.80 4.43 154.54 4.38Q154.27 4.34 154 4.30Q153.73 4.26 153.47 4.24Q153.22 4.22 153.04 4.22L153.04 4.22Q152.62 4.22 152.22 4.26Q151.82 4.30 151.41 4.42L151.41 4.42L151.41 10L149.42 10L149.42 2.98Q150.21 2.69 151.03 2.51Q151.86 2.34 152.96 2.34L152.96 2.34Q153.12 2.34 153.42 2.35Q153.71 2.37 154.05 2.41Q154.38 2.45 154.73 2.50Q155.07 2.56 155.34 2.66L155.34 2.66ZM160.54 0.32L160.54 0.32Q160.54 0.90 160.18 1.23Q159.81 1.57 159.30 1.57L159.30 1.57Q158.78 1.57 158.42 1.23Q158.06 0.90 158.06 0.32L158.06 0.32Q158.06-0.27 158.42-0.61Q158.78-0.94 159.30-0.94L159.30-0.94Q159.81-0.94 160.18-0.61Q160.54-0.27 160.54 0.32ZM163.22 8.10L163.47 9.68Q162.86 9.97 162.33 10.07Q161.79 10.18 161.34 10.18L161.34 10.18Q160.58 10.18 160.06 9.95Q159.54 9.73 159.22 9.30Q158.91 8.88 158.78 8.27Q158.66 7.66 158.66 6.88L158.66 6.88L158.66 4.11L156.58 4.11L156.58 2.48L160.62 2.48L160.62 7.14Q160.62 7.81 160.87 8.14Q161.12 8.46 161.70 8.46L161.70 8.46Q161.97 8.46 162.35 8.39Q162.74 8.32 163.22 8.10L163.22 8.10ZM169.50 6.30L169.50 6.30Q169.50 5.30 169.10 4.65Q168.70 4 167.89 4L167.89 4Q167.66 4 167.41 4.02Q167.15 4.05 166.98 4.06L166.98 4.06L166.98 8.19Q167.17 8.32 167.49 8.40Q167.81 8.48 168.13 8.48L168.13 8.48Q168.83 8.48 169.17 7.91Q169.50 7.34 169.50 6.30ZM171.50 6.24L171.50 6.24Q171.50 7.10 171.31 7.83Q171.12 8.56 170.75 9.08Q170.38 9.60 169.82 9.89Q169.26 10.18 168.53 10.18L168.53 10.18Q167.78 10.18 166.98 9.81L166.98 9.81L166.98 12.64L165.01 12.64L165.01 2.72Q165.55 2.54 166.34 2.43Q167.14 2.32 167.90 2.32L167.90 2.32Q169.65 2.32 170.58 3.38Q171.50 4.43 171.50 6.24ZM174.29 7.20L174.29 4.11L172.58 4.11L172.58 2.48L174.29 2.48L174.29 0.59L176.26 0.27L176.26 2.48L179.41 2.48L179.41 4.11L176.26 4.11L176.26 7.15Q176.26 7.57 176.34 7.82Q176.42 8.08 176.56 8.22Q176.70 8.37 176.91 8.42Q177.12 8.46 177.38 8.46L177.38 8.46Q177.65 8.46 177.88 8.45Q178.11 8.43 178.33 8.39Q178.54 8.35 178.78 8.27Q179.01 8.19 179.28 8.06L179.28 8.06L179.55 9.76Q179.01 9.98 178.38 10.08Q177.74 10.18 177.15 10.18L177.15 10.18Q176.46 10.18 175.94 10.06Q175.41 9.95 175.04 9.63Q174.67 9.31 174.48 8.73Q174.29 8.14 174.29 7.20L174.29 7.20ZM184.54 0.32L184.54 0.32Q184.54 0.90 184.18 1.23Q183.81 1.57 183.30 1.57L183.30 1.57Q182.78 1.57 182.42 1.23Q182.06 0.90 182.06 0.32L182.06 0.32Q182.06-0.27 182.42-0.61Q182.78-0.94 183.30-0.94L183.30-0.94Q183.81-0.94 184.18-0.61Q184.54-0.27 184.54 0.32ZM187.22 8.10L187.47 9.68Q186.86 9.97 186.33 10.07Q185.79 10.18 185.34 10.18L185.34 10.18Q184.58 10.18 184.06 9.95Q183.54 9.73 183.22 9.30Q182.91 8.88 182.78 8.27Q182.66 7.66 182.66 6.88L182.66 6.88L182.66 4.11L180.58 4.11L180.58 2.48L184.62 2.48L184.62 7.14Q184.62 7.81 184.87 8.14Q185.12 8.46 185.70 8.46L185.70 8.46Q185.97 8.46 186.35 8.39Q186.74 8.32 187.22 8.10L187.22 8.10ZM195.55 6.22L195.55 6.22Q195.55 7.12 195.30 7.85Q195.04 8.58 194.58 9.10Q194.11 9.63 193.46 9.92Q192.82 10.21 192.02 10.21L192.02 10.21Q191.22 10.21 190.57 9.92Q189.92 9.63 189.45 9.10Q188.98 8.58 188.72 7.85Q188.46 7.12 188.46 6.22L188.46 6.22Q188.46 5.34 188.73 4.62Q188.99 3.89 189.46 3.37Q189.94 2.85 190.59 2.57Q191.25 2.29 192.02 2.29L192.02 2.29Q192.80 2.29 193.45 2.57Q194.10 2.85 194.57 3.37Q195.04 3.89 195.30 4.62Q195.55 5.34 195.55 6.22ZM190.46 6.24L190.46 6.24Q190.46 7.25 190.82 7.87Q191.18 8.50 191.98 8.50L191.98 8.50Q192.75 8.50 193.14 7.87Q193.54 7.25 193.54 6.24L193.54 6.24Q193.54 5.23 193.18 4.62Q192.82 4 192.02 4L192.02 4Q191.25 4 190.86 4.62Q190.46 5.23 190.46 6.24ZM197.01 10L197.01 2.72Q197.54 2.58 198.31 2.45Q199.09 2.32 200 2.32L200 2.32Q200.90 2.32 201.49 2.57Q202.08 2.82 202.42 3.27Q202.77 3.73 202.91 4.36Q203.06 4.99 203.06 5.76L203.06 5.76L203.06 10L201.09 10L201.09 6.02Q201.09 4.96 200.85 4.50Q200.61 4.03 199.87 4.03L199.87 4.03Q199.65 4.03 199.43 4.05Q199.22 4.06 198.98 4.10L198.98 4.10L198.98 10L197.01 10Z"/>
    </g>
</svg>