<?xml version="1.0" encoding="UTF-8"?>
<svg height="322" width="235.6" version="1.1" xmlns="http://www.w3.org/2000/svg"><!--Created by Josélio de S. C. Júnior - 2021 - https://github.com/joseliojunior -->
    <rect
        height="32"
        width="233.6"
        rx="16"
        ry="16"
        x="1" y="1"
        fill="#141414"
        stroke="#616161"
        stroke-width="1" />
    <g transform="translate(0, 12)">
        <path fill="#616161" stroke="none" d="M31.02 0.98L30.49 3.72Q30.20 3.65 29.80 3.58Q29.41 3.50 29 3.44Q28.59 3.38 28.21 3.36Q27.82 3.34 27.56 3.34L27.56 3.34Q26.94 3.34 26.34 3.40Q25.74 3.46 25.11 3.62L25.11 3.62L25.11 12L22.14 12L22.14 1.46Q23.31 1.03 24.55 0.77Q25.78 0.50 27.44 0.50L27.44 0.50Q27.68 0.50 28.12 0.53Q28.57 0.55 29.07 0.61Q29.58 0.67 30.09 0.76Q30.61 0.84 31.02 0.98L31.02 0.98ZM32.74 6.46L32.74 6.46Q32.74 4.97 33.20 3.84Q33.66 2.71 34.40 1.96Q35.14 1.20 36.10 0.82Q37.06 0.43 38.07 0.43L38.07 0.43Q40.57 0.43 41.86 1.91Q43.16 3.38 43.16 6.22L43.16 6.22Q43.16 6.50 43.15 6.82Q43.14 7.13 43.11 7.32L43.11 7.32L35.79 7.32Q35.79 8.42 36.70 9.06Q37.62 9.70 39.06 9.70L39.06 9.70Q39.94 9.70 40.75 9.50Q41.55 9.31 42.10 9.12L42.10 9.12L42.51 11.64Q41.74 11.90 40.88 12.08Q40.02 12.26 38.94 12.26L38.94 12.26Q37.50 12.26 36.36 11.89Q35.22 11.52 34.41 10.79Q33.61 10.06 33.18 8.98Q32.74 7.90 32.74 6.46ZM35.79 5.28L40.30 5.28Q40.30 4.82 40.18 4.40Q40.06 3.98 39.80 3.65Q39.54 3.31 39.13 3.11Q38.72 2.90 38.12 2.90L38.12 2.90Q37.54 2.90 37.12 3.10Q36.70 3.29 36.43 3.62Q36.15 3.96 36.00 4.39Q35.84 4.82 35.79 5.28L35.79 5.28ZM49.57 9.84L49.57 9.84Q50.31 9.84 50.80 9.68Q51.30 9.53 51.58 9.25Q51.87 8.98 51.98 8.63Q52.09 8.28 52.09 7.92L52.09 7.92Q52.09 7.46 51.82 7.10Q51.56 6.74 51.15 6.47Q50.74 6.19 50.24 5.96Q49.74 5.74 49.23 5.54L49.23 5.54Q48.56 5.30 47.84 4.99Q47.12 4.68 46.53 4.20Q45.94 3.72 45.56 3.01Q45.18 2.30 45.18 1.25L45.18 1.25Q45.18-0.84 46.53-2.02Q47.89-3.19 50.26-3.19L50.26-3.19Q51.63-3.19 52.65-2.88Q53.67-2.57 54.37-2.18L54.37-2.18L53.50 0.10Q52.90-0.24 52.17-0.48Q51.44-0.72 50.48-0.72L50.48-0.72Q48.13-0.72 48.13 0.98L48.13 0.98Q48.13 1.42 48.37 1.74Q48.61 2.06 48.98 2.32Q49.35 2.57 49.82 2.76Q50.29 2.95 50.74 3.12L50.74 3.12Q51.44 3.38 52.20 3.71Q52.95 4.03 53.59 4.57Q54.22 5.11 54.63 5.92Q55.04 6.72 55.04 7.94L55.04 7.94Q55.04 10.03 53.68 11.17Q52.33 12.31 49.57 12.31L49.57 12.31Q47.72 12.31 46.62 11.92Q45.51 11.52 44.96 11.18L44.96 11.18L45.82 8.78Q46.47 9.17 47.37 9.50Q48.27 9.84 49.57 9.84ZM59.43 7.80L59.43 3.17L56.86 3.17L56.86 0.72L59.43 0.72L59.43-2.11L62.38-2.59L62.38 0.72L67.11 0.72L67.11 3.17L62.38 3.17L62.38 7.73Q62.38 8.35 62.50 8.74Q62.62 9.12 62.84 9.34Q63.06 9.55 63.37 9.62Q63.68 9.70 64.06 9.70L64.06 9.70Q64.47 9.70 64.82 9.67Q65.17 9.65 65.49 9.59Q65.82 9.53 66.16 9.41Q66.51 9.29 66.92 9.10L66.92 9.10L67.33 11.64Q66.51 11.98 65.56 12.12Q64.62 12.26 63.73 12.26L63.73 12.26Q62.70 12.26 61.90 12.10Q61.11 11.93 60.56 11.45Q60.01 10.97 59.72 10.09Q59.43 9.22 59.43 7.80L59.43 7.80ZM79.02 0.98L78.49 3.72Q78.20 3.65 77.80 3.58Q77.41 3.50 77 3.44Q76.59 3.38 76.21 3.36Q75.82 3.34 75.56 3.34L75.56 3.34Q74.94 3.34 74.34 3.40Q73.74 3.46 73.11 3.62L73.11 3.62L73.11 12L70.14 12L70.14 1.46Q71.31 1.03 72.55 0.77Q73.78 0.50 75.44 0.50L75.44 0.50Q75.68 0.50 76.12 0.53Q76.57 0.55 77.07 0.61Q77.58 0.67 78.09 0.76Q78.61 0.84 79.02 0.98L79.02 0.98ZM90.51 0.72L90.51 11.62Q89.70 11.83 88.53 12.05Q87.37 12.26 86 12.26L86 12.26Q84.61 12.26 83.72 11.88Q82.83 11.50 82.32 10.79Q81.80 10.08 81.61 9.12Q81.42 8.16 81.42 7.01L81.42 7.01L81.42 0.72L84.37 0.72L84.37 6.62Q84.37 8.18 84.74 8.94Q85.11 9.70 86.19 9.70L86.19 9.70Q86.86 9.70 87.54 9.58L87.54 9.58L87.54 0.72L90.51 0.72ZM93.06 6.36L93.06 6.36Q93.06 5.14 93.44 4.06Q93.82 2.98 94.62 2.17Q95.41 1.37 96.62 0.90Q97.83 0.43 99.51 0.43L99.51 0.43Q100.52 0.43 101.34 0.58Q102.15 0.72 102.99 1.06L102.99 1.06L102.34 3.43Q101.86 3.26 101.28 3.13Q100.69 3 99.78 3L99.78 3Q98.72 3 98.01 3.25Q97.30 3.50 96.87 3.95Q96.44 4.39 96.25 5.02Q96.06 5.64 96.06 6.36L96.06 6.36Q96.06 7.92 96.93 8.81Q97.81 9.70 99.92 9.70L99.92 9.70Q100.62 9.70 101.37 9.60Q102.13 9.50 102.75 9.29L102.75 9.29L103.18 11.71Q102.56 11.95 101.67 12.11Q100.78 12.26 99.58 12.26L99.58 12.26Q97.86 12.26 96.62 11.81Q95.38 11.35 94.59 10.56Q93.80 9.77 93.43 8.69Q93.06 7.61 93.06 6.36ZM107.43 7.80L107.43 3.17L104.86 3.17L104.86 0.72L107.43 0.72L107.43-2.11L110.38-2.59L110.38 0.72L115.11 0.72L115.11 3.17L110.38 3.17L110.38 7.73Q110.38 8.35 110.50 8.74Q110.62 9.12 110.84 9.34Q111.06 9.55 111.37 9.62Q111.68 9.70 112.06 9.70L112.06 9.70Q112.47 9.70 112.82 9.67Q113.17 9.65 113.49 9.59Q113.82 9.53 114.16 9.41Q114.51 9.29 114.92 9.10L114.92 9.10L115.33 11.64Q114.51 11.98 113.56 12.12Q112.62 12.26 111.73 12.26L111.73 12.26Q110.70 12.26 109.90 12.10Q109.11 11.93 108.56 11.45Q108.01 10.97 107.72 10.09Q107.43 9.22 107.43 7.80L107.43 7.80ZM126.51 0.72L126.51 11.62Q125.70 11.83 124.53 12.05Q123.37 12.26 122 12.26L122 12.26Q120.61 12.26 119.72 11.88Q118.83 11.50 118.32 10.79Q117.80 10.08 117.61 9.12Q117.42 8.16 117.42 7.01L117.42 7.01L117.42 0.72L120.37 0.72L120.37 6.62Q120.37 8.18 120.74 8.94Q121.11 9.70 122.19 9.70L122.19 9.70Q122.86 9.70 123.54 9.58L123.54 9.58L123.54 0.72L126.51 0.72ZM139.02 0.98L138.49 3.72Q138.20 3.65 137.80 3.58Q137.41 3.50 137 3.44Q136.59 3.38 136.21 3.36Q135.82 3.34 135.56 3.34L135.56 3.34Q134.94 3.34 134.34 3.40Q133.74 3.46 133.11 3.62L133.11 3.62L133.11 12L130.14 12L130.14 1.46Q131.31 1.03 132.55 0.77Q133.78 0.50 135.44 0.50L135.44 0.50Q135.68 0.50 136.12 0.53Q136.57 0.55 137.07 0.61Q137.58 0.67 138.09 0.76Q138.61 0.84 139.02 0.98L139.02 0.98ZM140.74 6.46L140.74 6.46Q140.74 4.97 141.20 3.84Q141.66 2.71 142.40 1.96Q143.14 1.20 144.10 0.82Q145.06 0.43 146.07 0.43L146.07 0.43Q148.57 0.43 149.86 1.91Q151.16 3.38 151.16 6.22L151.16 6.22Q151.16 6.50 151.15 6.82Q151.14 7.13 151.11 7.32L151.11 7.32L143.79 7.32Q143.79 8.42 144.70 9.06Q145.62 9.70 147.06 9.70L147.06 9.70Q147.94 9.70 148.75 9.50Q149.55 9.31 150.10 9.12L150.10 9.12L150.51 11.64Q149.74 11.90 148.88 12.08Q148.02 12.26 146.94 12.26L146.94 12.26Q145.50 12.26 144.36 11.89Q143.22 11.52 142.41 10.79Q141.61 10.06 141.18 8.98Q140.74 7.90 140.74 6.46ZM143.79 5.28L148.30 5.28Q148.30 4.82 148.18 4.40Q148.06 3.98 147.80 3.65Q147.54 3.31 147.13 3.11Q146.72 2.90 146.12 2.90L146.12 2.90Q145.54 2.90 145.12 3.10Q144.70 3.29 144.43 3.62Q144.15 3.96 144.00 4.39Q143.84 4.82 143.79 5.28L143.79 5.28ZM155.67 6.29L155.67 6.29Q155.67 7.80 156.24 8.76Q156.80 9.72 158.05 9.72L158.05 9.72Q158.41 9.72 158.72 9.70Q159.03 9.67 159.37 9.62L159.37 9.62L159.37 3.48Q159.03 3.29 158.60 3.16Q158.17 3.02 157.69 3.02L157.69 3.02Q156.63 3.02 156.15 3.86Q155.67 4.70 155.67 6.29ZM162.32-4.66L162.32 11.66Q161.50 11.93 160.33 12.10Q159.15 12.26 158.02 12.26L158.02 12.26Q155.38 12.26 154.03 10.70Q152.67 9.14 152.67 6.43L152.67 6.43Q152.67 3.67 153.81 2.08Q154.95 0.48 157.18 0.48L157.18 0.48Q157.78 0.48 158.36 0.61Q158.94 0.74 159.37 0.98L159.37 0.98L159.37-4.15L162.32-4.66ZM164.60-2.86L175.40-2.86L175.40-0.41L171.49-0.41L171.49 12L168.51 12L168.51-0.41L164.60-0.41L164.60-2.86ZM176.74 6.46L176.74 6.46Q176.74 4.97 177.20 3.84Q177.66 2.71 178.40 1.96Q179.14 1.20 180.10 0.82Q181.06 0.43 182.07 0.43L182.07 0.43Q184.57 0.43 185.86 1.91Q187.16 3.38 187.16 6.22L187.16 6.22Q187.16 6.50 187.15 6.82Q187.14 7.13 187.11 7.32L187.11 7.32L179.79 7.32Q179.79 8.42 180.70 9.06Q181.62 9.70 183.06 9.70L183.06 9.70Q183.94 9.70 184.75 9.50Q185.55 9.31 186.10 9.12L186.10 9.12L186.51 11.64Q185.74 11.90 184.88 12.08Q184.02 12.26 182.94 12.26L182.94 12.26Q181.50 12.26 180.36 11.89Q179.22 11.52 178.41 10.79Q177.61 10.06 177.18 8.98Q176.74 7.90 176.74 6.46ZM179.79 5.28L184.30 5.28Q184.30 4.82 184.18 4.40Q184.06 3.98 183.80 3.65Q183.54 3.31 183.13 3.11Q182.72 2.90 182.12 2.90L182.12 2.90Q181.54 2.90 181.12 3.10Q180.70 3.29 180.43 3.62Q180.15 3.96 180.00 4.39Q179.84 4.82 179.79 5.28L179.79 5.28ZM191.60 0.72L194.10 4.25L196.40 0.72L199.40 0.72L195.75 6.14Q196.33 6.84 196.88 7.62Q197.43 8.40 197.94 9.19Q198.44 9.98 198.85 10.70Q199.26 11.42 199.54 12L199.54 12L196.47 12Q195.82 10.78 195.18 9.82Q194.53 8.86 193.95 8.09L193.95 8.09Q193.23 9.05 192.66 9.96Q192.08 10.87 191.48 12L191.48 12L188.48 12Q188.84 11.33 189.31 10.60Q189.78 9.86 190.29 9.11Q190.81 8.35 191.37 7.61Q191.94 6.86 192.46 6.19L192.46 6.19L188.50 0.72L191.60 0.72ZM203.43 7.80L203.43 3.17L200.86 3.17L200.86 0.72L203.43 0.72L203.43-2.11L206.38-2.59L206.38 0.72L211.11 0.72L211.11 3.17L206.38 3.17L206.38 7.73Q206.38 8.35 206.50 8.74Q206.62 9.12 206.84 9.34Q207.06 9.55 207.37 9.62Q207.68 9.70 208.06 9.70L208.06 9.70Q208.47 9.70 208.82 9.67Q209.17 9.65 209.49 9.59Q209.82 9.53 210.16 9.41Q210.51 9.29 210.92 9.10L210.92 9.10L211.33 11.64Q210.51 11.98 209.56 12.12Q208.62 12.26 207.73 12.26L207.73 12.26Q206.70 12.26 205.90 12.10Q205.11 11.93 204.56 11.45Q204.01 10.97 203.72 10.09Q203.43 9.22 203.43 7.80L203.43 7.80Z"/>
    </g>
</svg>