<?xml version="1.0" encoding="UTF-8"?><svg height="26" width="171.6" version="1.1" xmlns="http://www.w3.org/2000/svg"><!--Created by Josélio de S. C. Júnior - 2021 - https://github.com/joseliojunior --><rect height="24" width="169.6" rx="1" ry="1" x="1" y="1" fill="#141414" stroke="#616161" stroke-width="1" /><g transform="translate(0, 8)"><path fill="#616161" d="M27.34 2.66L26.99 4.48Q26.80 4.43 26.54 4.38Q26.27 4.34 26 4.30Q25.73 4.26 25.47 4.24Q25.22 4.22 25.04 4.22L25.04 4.22Q24.62 4.22 24.22 4.26Q23.82 4.30 23.41 4.42L23.41 4.42L23.41 10L21.42 10L21.42 2.98Q22.21 2.69 23.03 2.51Q23.86 2.34 24.96 2.34L24.96 2.34Q25.12 2.34 25.42 2.35Q25.71 2.37 26.05 2.41Q26.38 2.45 26.73 2.50Q27.07 2.56 27.34 2.66L27.34 2.66ZM28.50 6.30L28.50 6.30Q28.50 5.31 28.80 4.56Q29.10 3.81 29.60 3.30Q30.10 2.80 30.74 2.54Q31.38 2.29 32.05 2.29L32.05 2.29Q33.71 2.29 34.58 3.27Q35.44 4.26 35.44 6.14L35.44 6.14Q35.44 6.34 35.43 6.54Q35.42 6.75 35.41 6.88L35.41 6.88L30.53 6.88Q30.53 7.62 31.14 8.04Q31.74 8.46 32.70 8.46L32.70 8.46Q33.30 8.46 33.83 8.34Q34.37 8.21 34.74 8.08L34.74 8.08L35.01 9.76Q34.50 9.94 33.92 10.06Q33.34 10.18 32.62 10.18L32.62 10.18Q31.66 10.18 30.90 9.93Q30.14 9.68 29.61 9.19Q29.07 8.70 28.78 7.98Q28.50 7.26 28.50 6.30ZM30.53 5.52L33.54 5.52Q33.54 5.22 33.46 4.94Q33.38 4.66 33.20 4.43Q33.02 4.21 32.75 4.07Q32.48 3.94 32.08 3.94L32.08 3.94Q31.70 3.94 31.42 4.06Q31.14 4.19 30.95 4.42Q30.77 4.64 30.66 4.93Q30.56 5.22 30.53 5.52L30.53 5.52ZM39.71 8.56L39.71 8.56Q40.21 8.56 40.54 8.46Q40.86 8.35 41.06 8.17Q41.25 7.98 41.32 7.75Q41.39 7.52 41.39 7.28L41.39 7.28Q41.39 6.98 41.22 6.74Q41.04 6.50 40.77 6.31Q40.50 6.13 40.16 5.98Q39.82 5.82 39.49 5.70L39.49 5.70Q39.04 5.54 38.56 5.33Q38.08 5.12 37.69 4.80Q37.30 4.48 37.04 4.01Q36.78 3.54 36.78 2.83L36.78 2.83Q36.78 1.44 37.69 0.66Q38.59-0.13 40.18-0.13L40.18-0.13Q41.09-0.13 41.77 0.08Q42.45 0.29 42.91 0.54L42.91 0.54L42.34 2.06Q41.94 1.84 41.45 1.68Q40.96 1.52 40.32 1.52L40.32 1.52Q38.75 1.52 38.75 2.66L38.75 2.66Q38.75 2.94 38.91 3.16Q39.07 3.38 39.32 3.54Q39.57 3.71 39.88 3.84Q40.19 3.97 40.50 4.08L40.50 4.08Q40.96 4.26 41.46 4.47Q41.97 4.69 42.39 5.05Q42.82 5.41 43.09 5.94Q43.36 6.48 43.36 7.30L43.36 7.30Q43.36 8.69 42.46 9.45Q41.55 10.21 39.71 10.21L39.71 10.21Q38.48 10.21 37.74 9.94Q37.01 9.68 36.64 9.46L36.64 9.46L37.22 7.86Q37.65 8.11 38.25 8.34Q38.85 8.56 39.71 8.56ZM46.29 7.20L46.29 4.11L44.58 4.11L44.58 2.48L46.29 2.48L46.29 0.59L48.26 0.27L48.26 2.48L51.41 2.48L51.41 4.11L48.26 4.11L48.26 7.15Q48.26 7.57 48.34 7.82Q48.42 8.08 48.56 8.22Q48.70 8.37 48.91 8.42Q49.12 8.46 49.38 8.46L49.38 8.46Q49.65 8.46 49.88 8.45Q50.11 8.43 50.33 8.39Q50.54 8.35 50.78 8.27Q51.01 8.19 51.28 8.06L51.28 8.06L51.55 9.76Q51.01 9.98 50.38 10.08Q49.74 10.18 49.15 10.18L49.15 10.18Q48.46 10.18 47.94 10.06Q47.41 9.95 47.04 9.63Q46.67 9.31 46.48 8.73Q46.29 8.14 46.29 7.20L46.29 7.20ZM59.34 2.66L58.99 4.48Q58.80 4.43 58.54 4.38Q58.27 4.34 58 4.30Q57.73 4.26 57.47 4.24Q57.22 4.22 57.04 4.22L57.04 4.22Q56.62 4.22 56.22 4.26Q55.82 4.30 55.41 4.42L55.41 4.42L55.41 10L53.42 10L53.42 2.98Q54.21 2.69 55.03 2.51Q55.86 2.34 56.96 2.34L56.96 2.34Q57.12 2.34 57.42 2.35Q57.71 2.37 58.05 2.41Q58.38 2.45 58.73 2.50Q59.07 2.56 59.34 2.66L59.34 2.66ZM67.01 2.48L67.01 9.74Q66.46 9.89 65.69 10.03Q64.91 10.18 64 10.18L64 10.18Q63.07 10.18 62.48 9.92Q61.89 9.66 61.54 9.19Q61.20 8.72 61.07 8.08Q60.94 7.44 60.94 6.67L60.94 6.67L60.94 2.48L62.91 2.48L62.91 6.42Q62.91 7.46 63.16 7.96Q63.41 8.46 64.13 8.46L64.13 8.46Q64.58 8.46 65.02 8.38L65.02 8.38L65.02 2.48L67.01 2.48ZM68.70 6.24L68.70 6.24Q68.70 5.42 68.96 4.70Q69.22 3.98 69.74 3.45Q70.27 2.91 71.08 2.60Q71.89 2.29 73.01 2.29L73.01 2.29Q73.68 2.29 74.22 2.38Q74.77 2.48 75.33 2.70L75.33 2.70L74.90 4.29Q74.58 4.18 74.18 4.09Q73.79 4 73.18 4L73.18 4Q72.48 4 72.01 4.17Q71.54 4.34 71.25 4.63Q70.96 4.93 70.83 5.34Q70.70 5.76 70.70 6.24L70.70 6.24Q70.70 7.28 71.29 7.87Q71.87 8.46 73.28 8.46L73.28 8.46Q73.74 8.46 74.25 8.40Q74.75 8.34 75.17 8.19L75.17 8.19L75.46 9.81Q75.04 9.97 74.45 10.07Q73.86 10.18 73.06 10.18L73.06 10.18Q71.90 10.18 71.08 9.87Q70.26 9.57 69.73 9.04Q69.20 8.51 68.95 7.79Q68.70 7.07 68.70 6.24ZM78.29 7.20L78.29 4.11L76.58 4.11L76.58 2.48L78.29 2.48L78.29 0.59L80.26 0.27L80.26 2.48L83.41 2.48L83.41 4.11L80.26 4.11L80.26 7.15Q80.26 7.57 80.34 7.82Q80.42 8.08 80.56 8.22Q80.70 8.37 80.91 8.42Q81.12 8.46 81.38 8.46L81.38 8.46Q81.65 8.46 81.88 8.45Q82.11 8.43 82.33 8.39Q82.54 8.35 82.78 8.27Q83.01 8.19 83.28 8.06L83.28 8.06L83.55 9.76Q83.01 9.98 82.38 10.08Q81.74 10.18 81.15 10.18L81.15 10.18Q80.46 10.18 79.94 10.06Q79.41 9.95 79.04 9.63Q78.67 9.31 78.48 8.73Q78.29 8.14 78.29 7.20L78.29 7.20ZM91.01 2.48L91.01 9.74Q90.46 9.89 89.69 10.03Q88.91 10.18 88 10.18L88 10.18Q87.07 10.18 86.48 9.92Q85.89 9.66 85.54 9.19Q85.20 8.72 85.07 8.08Q84.94 7.44 84.94 6.67L84.94 6.67L84.94 2.48L86.91 2.48L86.91 6.42Q86.91 7.46 87.16 7.96Q87.41 8.46 88.13 8.46L88.13 8.46Q88.58 8.46 89.02 8.38L89.02 8.38L89.02 2.48L91.01 2.48ZM99.34 2.66L98.99 4.48Q98.80 4.43 98.54 4.38Q98.27 4.34 98 4.30Q97.73 4.26 97.47 4.24Q97.22 4.22 97.04 4.22L97.04 4.22Q96.62 4.22 96.22 4.26Q95.82 4.30 95.41 4.42L95.41 4.42L95.41 10L93.42 10L93.42 2.98Q94.21 2.69 95.03 2.51Q95.86 2.34 96.96 2.34L96.96 2.34Q97.12 2.34 97.42 2.35Q97.71 2.37 98.05 2.41Q98.38 2.45 98.73 2.50Q99.07 2.56 99.34 2.66L99.34 2.66ZM100.50 6.30L100.50 6.30Q100.50 5.31 100.80 4.56Q101.10 3.81 101.60 3.30Q102.10 2.80 102.74 2.54Q103.38 2.29 104.05 2.29L104.05 2.29Q105.71 2.29 106.58 3.27Q107.44 4.26 107.44 6.14L107.44 6.14Q107.44 6.34 107.43 6.54Q107.42 6.75 107.41 6.88L107.41 6.88L102.53 6.88Q102.53 7.62 103.14 8.04Q103.74 8.46 104.70 8.46L104.70 8.46Q105.30 8.46 105.83 8.34Q106.37 8.21 106.74 8.08L106.74 8.08L107.01 9.76Q106.50 9.94 105.92 10.06Q105.34 10.18 104.62 10.18L104.62 10.18Q103.66 10.18 102.90 9.93Q102.14 9.68 101.61 9.19Q101.07 8.70 100.78 7.98Q100.50 7.26 100.50 6.30ZM102.53 5.52L105.54 5.52Q105.54 5.22 105.46 4.94Q105.38 4.66 105.20 4.43Q105.02 4.21 104.75 4.07Q104.48 3.94 104.08 3.94L104.08 3.94Q103.70 3.94 103.42 4.06Q103.14 4.19 102.95 4.42Q102.77 4.64 102.66 4.93Q102.56 5.22 102.53 5.52L102.53 5.52ZM110.45 6.19L110.45 6.19Q110.45 7.20 110.82 7.84Q111.20 8.48 112.03 8.48L112.03 8.48Q112.27 8.48 112.48 8.46Q112.69 8.45 112.91 8.42L112.91 8.42L112.91 4.32Q112.69 4.19 112.40 4.10Q112.11 4.02 111.79 4.02L111.79 4.02Q111.09 4.02 110.77 4.58Q110.45 5.14 110.45 6.19ZM114.88-1.10L114.88 9.78Q114.34 9.95 113.55 10.06Q112.77 10.18 112.02 10.18L112.02 10.18Q110.26 10.18 109.35 9.14Q108.45 8.10 108.45 6.29L108.45 6.29Q108.45 4.45 109.21 3.38Q109.97 2.32 111.46 2.32L111.46 2.32Q111.86 2.32 112.24 2.41Q112.62 2.50 112.91 2.66L112.91 2.66L112.91-0.77L114.88-1.10ZM116.40 0.10L123.60 0.10L123.60 1.73L120.99 1.73L120.99 10L119.01 10L119.01 1.73L116.40 1.73L116.40 0.10ZM124.50 6.30L124.50 6.30Q124.50 5.31 124.80 4.56Q125.10 3.81 125.60 3.30Q126.10 2.80 126.74 2.54Q127.38 2.29 128.05 2.29L128.05 2.29Q129.71 2.29 130.58 3.27Q131.44 4.26 131.44 6.14L131.44 6.14Q131.44 6.34 131.43 6.54Q131.42 6.75 131.41 6.88L131.41 6.88L126.53 6.88Q126.53 7.62 127.14 8.04Q127.74 8.46 128.70 8.46L128.70 8.46Q129.30 8.46 129.83 8.34Q130.37 8.21 130.74 8.08L130.74 8.08L131.01 9.76Q130.50 9.94 129.92 10.06Q129.34 10.18 128.62 10.18L128.62 10.18Q127.66 10.18 126.90 9.93Q126.14 9.68 125.61 9.19Q125.07 8.70 124.78 7.98Q124.50 7.26 124.50 6.30ZM126.53 5.52L129.54 5.52Q129.54 5.22 129.46 4.94Q129.38 4.66 129.20 4.43Q129.02 4.21 128.75 4.07Q128.48 3.94 128.08 3.94L128.08 3.94Q127.70 3.94 127.42 4.06Q127.14 4.19 126.95 4.42Q126.77 4.64 126.66 4.93Q126.56 5.22 126.53 5.52L126.53 5.52ZM134.40 2.48L136.06 4.83L137.60 2.48L139.60 2.48L137.17 6.10Q137.55 6.56 137.92 7.08Q138.29 7.60 138.62 8.13Q138.96 8.66 139.23 9.14Q139.50 9.62 139.70 10L139.70 10L137.65 10Q137.22 9.18 136.78 8.54Q136.35 7.90 135.97 7.39L135.97 7.39Q135.49 8.03 135.10 8.64Q134.72 9.25 134.32 10L134.32 10L132.32 10Q132.56 9.55 132.87 9.06Q133.18 8.58 133.53 8.07Q133.87 7.57 134.25 7.07Q134.62 6.58 134.98 6.13L134.98 6.13L132.34 2.48L134.40 2.48ZM142.29 7.20L142.29 4.11L140.58 4.11L140.58 2.48L142.29 2.48L142.29 0.59L144.26 0.27L144.26 2.48L147.41 2.48L147.41 4.11L144.26 4.11L144.26 7.15Q144.26 7.57 144.34 7.82Q144.42 8.08 144.56 8.22Q144.70 8.37 144.91 8.42Q145.12 8.46 145.38 8.46L145.38 8.46Q145.65 8.46 145.88 8.45Q146.11 8.43 146.33 8.39Q146.54 8.35 146.78 8.27Q147.01 8.19 147.28 8.06L147.28 8.06L147.55 9.76Q147.01 9.98 146.38 10.08Q145.74 10.18 145.15 10.18L145.15 10.18Q144.46 10.18 143.94 10.06Q143.41 9.95 143.04 9.63Q142.67 9.31 142.48 8.73Q142.29 8.14 142.29 7.20L142.29 7.20Z"/></g></svg>