<?xml version="1.0" encoding="UTF-8"?>
<svg height="34" width="205.29999999999998" version="1.1" xmlns="http://www.w3.org/2000/svg">
    <rect
        height="32"
        width="203.29999999999998"
        rx="14"
        ry="14"
        x="1"
        y="1"
        fill="#6f8042"
        stroke="#171b0e"
        stroke-width="1"
         />
    <g transform="translate(0, 14)">
        <path fill="#171b0e" d="M23.69 11L19.80 11Q19.49 10.02 18.92 8.89Q18.34 7.75 17.64 6.67Q16.94 5.60 16.17 4.66Q15.40 3.72 14.70 3.08L14.70 3.08L14.70 11L11.26 11L11.26-6.33L14.70-6.33L14.70 0.86Q15.32 0.08 15.99-0.87Q16.66-1.82 17.27-2.78Q17.87-3.73 18.37-4.65Q18.88-5.58 19.21-6.33L19.21-6.33L23.10-6.33Q22.71-5.58 22.17-4.61Q21.62-3.64 20.92-2.59Q20.22-1.54 19.42-0.45Q18.62 0.64 17.76 1.65L17.76 1.65Q18.62 2.49 19.52 3.58Q20.42 4.67 21.21 5.92Q22.01 7.16 22.66 8.47Q23.30 9.77 23.69 11L23.69 11ZM31.03 8.54L31.03 8.54Q31.59 8.54 32.12 8.52Q32.65 8.51 33.04 8.45L33.04 8.45L33.04 5.43Q32.71 5.37 32.23 5.33Q31.76 5.29 31.36 5.29L31.36 5.29Q30.83 5.29 30.33 5.36Q29.82 5.43 29.45 5.60Q29.07 5.76 28.84 6.07Q28.62 6.38 28.62 6.88L28.62 6.88Q28.62 7.78 29.29 8.16Q29.96 8.54 31.03 8.54ZM30.72-2.50L30.72-2.50Q32.34-2.50 33.42-2.12Q34.50-1.74 35.14-1.05Q35.79-0.37 36.07 0.63Q36.35 1.62 36.35 2.85L36.35 2.85L36.35 10.69Q35.59 10.86 34.11 11.08Q32.62 11.31 30.78 11.31L30.78 11.31Q29.52 11.31 28.49 11.08Q27.47 10.86 26.74 10.34Q26.02 9.82 25.62 9.00Q25.23 8.17 25.23 6.97L25.23 6.97Q25.23 5.82 25.68 5.04Q26.13 4.25 26.88 3.78Q27.64 3.30 28.62 3.09Q29.60 2.88 30.66 2.88L30.66 2.88Q32.01 2.88 33.04 3.10L33.04 3.10L33.04 2.68Q33.04 1.70 32.43 1.05Q31.81 0.39 30.30 0.39L30.30 0.39Q29.32 0.39 28.41 0.53Q27.50 0.67 26.94 0.86L26.94 0.86L26.46-1.91Q27.11-2.13 28.28-2.31Q29.46-2.50 30.72-2.50ZM43.24-8.43L43.24 3.05Q43.74 2.46 44.26 1.80Q44.78 1.14 45.27 0.44Q45.76-0.26 46.20-0.91Q46.65-1.57 46.99-2.16L46.99-2.16L51.13-2.16Q50.63-1.52 49.98-0.76Q49.34-0.00 48.65 0.78Q47.97 1.56 47.28 2.29Q46.60 3.02 46.04 3.64L46.04 3.64Q46.74 4.31 47.55 5.25Q48.36 6.18 49.14 7.19Q49.93 8.20 50.59 9.21Q51.24 10.22 51.64 11L51.64 11L47.69 11Q47.35 10.30 46.81 9.42Q46.26 8.54 45.64 7.68Q45.03 6.83 44.40 6.06Q43.77 5.29 43.24 4.78L43.24 4.78L43.24 11L39.76 11L39.76-7.84L43.24-8.43ZM65.22 4.39L65.22 4.39Q65.22 5.96 64.77 7.23Q64.32 8.51 63.51 9.43Q62.70 10.36 61.56 10.86Q60.43 11.36 59.03 11.36L59.03 11.36Q57.63 11.36 56.49 10.86Q55.36 10.36 54.53 9.43Q53.71 8.51 53.26 7.23Q52.81 5.96 52.81 4.39L52.81 4.39Q52.81 2.85 53.27 1.58Q53.74 0.30 54.56-0.61Q55.39-1.52 56.54-2.01Q57.68-2.50 59.03-2.50L59.03-2.50Q60.40-2.50 61.53-2.01Q62.67-1.52 63.49-0.61Q64.32 0.30 64.77 1.58Q65.22 2.85 65.22 4.39ZM56.31 4.42L56.31 4.42Q56.31 6.18 56.94 7.28Q57.57 8.37 58.97 8.37L58.97 8.37Q60.32 8.37 61.00 7.28Q61.69 6.18 61.69 4.42L61.69 4.42Q61.69 2.66 61.06 1.58Q60.43 0.50 59.03 0.50L59.03 0.50Q57.68 0.50 57.00 1.58Q56.31 2.66 56.31 4.42ZM78.26-2.16L78.26 10.55Q77.31 10.80 75.95 11.06Q74.60 11.31 73 11.31L73 11.31Q71.38 11.31 70.34 10.86Q69.30 10.41 68.70 9.59Q68.10 8.76 67.88 7.64Q67.65 6.52 67.65 5.18L67.65 5.18L67.65-2.16L71.10-2.16L71.10 4.73Q71.10 6.55 71.53 7.43Q71.96 8.31 73.22 8.31L73.22 8.31Q74.01 8.31 74.79 8.17L74.79 8.17L74.79-2.16L78.26-2.16ZM81.76 11L81.76-1.74Q82.69-1.99 84.05-2.22Q85.40-2.44 87-2.44L87-2.44Q88.57-2.44 89.60-2.01Q90.64-1.57 91.24-0.77Q91.84 0.02 92.10 1.13Q92.35 2.24 92.35 3.58L92.35 3.58L92.35 11L88.90 11L88.90 4.03Q88.90 2.18 88.48 1.37Q88.06 0.56 86.78 0.56L86.78 0.56Q86.38 0.56 86.01 0.58Q85.63 0.61 85.21 0.67L85.21 0.67L85.21 11L81.76 11ZM94.87 4.53L94.87 4.53Q94.87 2.80 95.40 1.48Q95.93 0.16 96.80-0.72Q97.67-1.60 98.79-2.05Q99.91-2.50 101.08-2.50L101.08-2.50Q104.00-2.50 105.51-0.77Q107.02 0.95 107.02 4.25L107.02 4.25Q107.02 4.59 107.01 4.95Q106.99 5.32 106.96 5.54L106.96 5.54L98.42 5.54Q98.42 6.83 99.49 7.57Q100.55 8.31 102.23 8.31L102.23 8.31Q103.27 8.31 104.21 8.09Q105.14 7.86 105.79 7.64L105.79 7.64L106.26 10.58Q105.37 10.89 104.36 11.10Q103.35 11.31 102.09 11.31L102.09 11.31Q100.41 11.31 99.08 10.87Q97.75 10.44 96.81 9.59Q95.88 8.73 95.37 7.47Q94.87 6.21 94.87 4.53ZM98.42 3.16L103.69 3.16Q103.69 2.63 103.55 2.14Q103.41 1.65 103.10 1.26Q102.79 0.86 102.32 0.63Q101.84 0.39 101.14 0.39L101.14 0.39Q100.47 0.39 99.98 0.61Q99.49 0.84 99.17 1.23Q98.84 1.62 98.66 2.12Q98.48 2.63 98.42 3.16L98.42 3.16ZM114.50 8.48L114.50 8.48Q115.36 8.48 115.94 8.30Q116.51 8.12 116.85 7.79Q117.18 7.47 117.31 7.07Q117.44 6.66 117.44 6.24L117.44 6.24Q117.44 5.71 117.13 5.29Q116.82 4.87 116.34 4.55Q115.87 4.22 115.28 3.96Q114.69 3.69 114.10 3.47L114.10 3.47Q113.32 3.19 112.48 2.82Q111.64 2.46 110.95 1.90Q110.27 1.34 109.82 0.51Q109.37-0.31 109.37-1.54L109.37-1.54Q109.37-3.98 110.95-5.35Q112.54-6.72 115.31-6.72L115.31-6.72Q116.90-6.72 118.09-6.36Q119.28-6.00 120.10-5.55L120.10-5.55L119.09-2.89Q118.39-3.28 117.53-3.56Q116.68-3.84 115.56-3.84L115.56-3.84Q112.82-3.84 112.82-1.85L112.82-1.85Q112.82-1.35 113.10-0.97Q113.38-0.59 113.81-0.30Q114.24-0.00 114.79 0.22Q115.34 0.44 115.87 0.64L115.87 0.64Q116.68 0.95 117.56 1.33Q118.44 1.70 119.19 2.33Q119.93 2.96 120.40 3.90Q120.88 4.84 120.88 6.27L120.88 6.27Q120.88 8.70 119.30 10.03Q117.72 11.36 114.50 11.36L114.50 11.36Q112.34 11.36 111.05 10.90Q109.76 10.44 109.12 10.05L109.12 10.05L110.13 7.25Q110.88 7.70 111.93 8.09Q112.98 8.48 114.50 8.48ZM123.23 4.42L123.23 4.42Q123.23 2.99 123.68 1.73Q124.13 0.47 125.05-0.47Q125.98-1.40 127.39-1.95Q128.80-2.50 130.76-2.50L130.76-2.50Q131.94-2.50 132.89-2.33Q133.84-2.16 134.82-1.77L134.82-1.77L134.07 1.00Q133.51 0.81 132.82 0.65Q132.14 0.50 131.07 0.50L131.07 0.50Q129.84 0.50 129.01 0.79Q128.19 1.09 127.68 1.61Q127.18 2.12 126.96 2.85Q126.73 3.58 126.73 4.42L126.73 4.42Q126.73 6.24 127.75 7.28Q128.78 8.31 131.24 8.31L131.24 8.31Q132.05 8.31 132.93 8.20Q133.82 8.09 134.54 7.84L134.54 7.84L135.05 10.66Q134.32 10.94 133.28 11.13Q132.25 11.31 130.85 11.31L130.85 11.31Q128.83 11.31 127.39 10.78Q125.95 10.24 125.02 9.32Q124.10 8.40 123.67 7.14Q123.23 5.88 123.23 4.42ZM148.85-1.85L148.24 1.34Q147.90 1.26 147.44 1.17Q146.98 1.09 146.50 1.02Q146.02 0.95 145.58 0.92Q145.13 0.89 144.82 0.89L144.82 0.89Q144.09 0.89 143.39 0.96Q142.69 1.03 141.96 1.23L141.96 1.23L141.96 11L138.49 11L138.49-1.29Q139.86-1.80 141.31-2.10Q142.75-2.41 144.68-2.41L144.68-2.41Q144.96-2.41 145.48-2.38Q146.00-2.36 146.58-2.29Q147.17-2.22 147.77-2.12Q148.38-2.02 148.85-1.85L148.85-1.85ZM157.95-5.94L157.95-5.94Q157.95-4.93 157.31-4.34Q156.66-3.76 155.77-3.76L155.77-3.76Q154.87-3.76 154.24-4.34Q153.61-4.93 153.61-5.94L153.61-5.94Q153.61-6.98 154.24-7.56Q154.87-8.15 155.77-8.15L155.77-8.15Q156.66-8.15 157.31-7.56Q157.95-6.98 157.95-5.94ZM162.63 7.67L163.08 10.44Q162.01 10.94 161.07 11.13Q160.14 11.31 159.35 11.31L159.35 11.31Q158.01 11.31 157.10 10.92Q156.19 10.52 155.64 9.78Q155.10 9.04 154.87 7.98Q154.65 6.91 154.65 5.54L154.65 5.54L154.65 0.70L151.01 0.70L151.01-2.16L158.09-2.16L158.09 5.99Q158.09 7.16 158.53 7.74Q158.96 8.31 159.97 8.31L159.97 8.31Q160.44 8.31 161.12 8.19Q161.79 8.06 162.63 7.67L162.63 7.67ZM173.63 4.53L173.63 4.53Q173.63 2.77 172.93 1.63Q172.23 0.50 170.80 0.50L170.80 0.50Q170.41 0.50 169.96 0.54Q169.52 0.58 169.21 0.61L169.21 0.61L169.21 7.84Q169.54 8.06 170.10 8.20Q170.66 8.34 171.22 8.34L171.22 8.34Q172.46 8.34 173.04 7.35Q173.63 6.35 173.63 4.53ZM177.13 4.42L177.13 4.42Q177.13 5.93 176.80 7.21Q176.46 8.48 175.82 9.39Q175.17 10.30 174.19 10.80Q173.21 11.31 171.92 11.31L171.92 11.31Q170.61 11.31 169.21 10.66L169.21 10.66L169.21 15.62L165.76 15.62L165.76-1.74Q166.72-2.05 168.10-2.24Q169.49-2.44 170.83-2.44L170.83-2.44Q173.88-2.44 175.51-0.59Q177.13 1.26 177.13 4.42ZM182.00 6.10L182.00 0.70L179.01 0.70L179.01-2.16L182.00-2.16L182.00-5.46L185.45-6.02L185.45-2.16L190.96-2.16L190.96 0.70L185.45 0.70L185.45 6.02Q185.45 6.74 185.59 7.19Q185.73 7.64 185.98 7.89Q186.23 8.14 186.60 8.23Q186.96 8.31 187.41 8.31L187.41 8.31Q187.88 8.31 188.29 8.28Q188.70 8.26 189.07 8.19Q189.45 8.12 189.86 7.98Q190.26 7.84 190.74 7.61L190.74 7.61L191.22 10.58Q190.26 10.97 189.16 11.14Q188.05 11.31 187.02 11.31L187.02 11.31Q185.81 11.31 184.89 11.11Q183.96 10.92 183.32 10.36Q182.68 9.80 182.34 8.77Q182.00 7.75 182.00 6.10L182.00 6.10Z"/>
    </g>
</svg>