<?xml version="1.0" encoding="UTF-8"?>
<svg height="34" width="205.29999999999998" version="1.1" xmlns="http://www.w3.org/2000/svg">
    <rect
        height="32"
        width="203.29999999999998"
        rx="14"
        ry="14"
        x="1"
        y="1"
        fill="#46390b"
        stroke="#cba620"
        stroke-width="1"
         />
    <g transform="translate(0, 14)">
        <path fill="#cba620" d="M16.50 8.48L16.50 8.48Q17.36 8.48 17.94 8.30Q18.51 8.12 18.85 7.79Q19.18 7.47 19.31 7.07Q19.44 6.66 19.44 6.24L19.44 6.24Q19.44 5.71 19.13 5.29Q18.82 4.87 18.34 4.55Q17.87 4.22 17.28 3.96Q16.69 3.69 16.10 3.47L16.10 3.47Q15.32 3.19 14.48 2.82Q13.64 2.46 12.95 1.90Q12.27 1.34 11.82 0.51Q11.37-0.31 11.37-1.54L11.37-1.54Q11.37-3.98 12.95-5.35Q14.54-6.72 17.31-6.72L17.31-6.72Q18.90-6.72 20.09-6.36Q21.28-6.00 22.10-5.55L22.10-5.55L21.09-2.89Q20.39-3.28 19.53-3.56Q18.68-3.84 17.56-3.84L17.56-3.84Q14.82-3.84 14.82-1.85L14.82-1.85Q14.82-1.35 15.10-0.97Q15.38-0.59 15.81-0.30Q16.24-0.00 16.79 0.22Q17.34 0.44 17.87 0.64L17.87 0.64Q18.68 0.95 19.56 1.33Q20.44 1.70 21.19 2.33Q21.93 2.96 22.40 3.90Q22.88 4.84 22.88 6.27L22.88 6.27Q22.88 8.70 21.30 10.03Q19.72 11.36 16.50 11.36L16.50 11.36Q14.34 11.36 13.05 10.90Q11.76 10.44 11.12 10.05L11.12 10.05L12.13 7.25Q12.88 7.70 13.93 8.09Q14.98 8.48 16.50 8.48ZM36.26-2.16L36.26 10.55Q35.31 10.80 33.95 11.06Q32.60 11.31 31 11.31L31 11.31Q29.38 11.31 28.34 10.86Q27.30 10.41 26.70 9.59Q26.10 8.76 25.88 7.64Q25.65 6.52 25.65 5.18L25.65 5.18L25.65-2.16L29.10-2.16L29.10 4.73Q29.10 6.55 29.53 7.43Q29.96 8.31 31.22 8.31L31.22 8.31Q32.01 8.31 32.79 8.17L32.79 8.17L32.79-2.16L36.26-2.16ZM47.63 4.53L47.63 4.53Q47.63 2.77 46.93 1.63Q46.23 0.50 44.80 0.50L44.80 0.50Q44.41 0.50 43.96 0.54Q43.52 0.58 43.21 0.61L43.21 0.61L43.21 7.84Q43.54 8.06 44.10 8.20Q44.66 8.34 45.22 8.34L45.22 8.34Q46.46 8.34 47.04 7.35Q47.63 6.35 47.63 4.53ZM51.13 4.42L51.13 4.42Q51.13 5.93 50.80 7.21Q50.46 8.48 49.82 9.39Q49.17 10.30 48.19 10.80Q47.21 11.31 45.92 11.31L45.92 11.31Q44.61 11.31 43.21 10.66L43.21 10.66L43.21 15.62L39.76 15.62L39.76-1.74Q40.72-2.05 42.10-2.24Q43.49-2.44 44.83-2.44L44.83-2.44Q47.88-2.44 49.51-0.59Q51.13 1.26 51.13 4.42ZM52.87 4.53L52.87 4.53Q52.87 2.80 53.40 1.48Q53.93 0.16 54.80-0.72Q55.67-1.60 56.79-2.05Q57.91-2.50 59.08-2.50L59.08-2.50Q62.00-2.50 63.51-0.77Q65.02 0.95 65.02 4.25L65.02 4.25Q65.02 4.59 65.01 4.95Q64.99 5.32 64.96 5.54L64.96 5.54L56.42 5.54Q56.42 6.83 57.49 7.57Q58.55 8.31 60.23 8.31L60.23 8.31Q61.27 8.31 62.21 8.09Q63.14 7.86 63.79 7.64L63.79 7.64L64.26 10.58Q63.37 10.89 62.36 11.10Q61.35 11.31 60.09 11.31L60.09 11.31Q58.41 11.31 57.08 10.87Q55.75 10.44 54.81 9.59Q53.88 8.73 53.37 7.47Q52.87 6.21 52.87 4.53ZM56.42 3.16L61.69 3.16Q61.69 2.63 61.55 2.14Q61.41 1.65 61.10 1.26Q60.79 0.86 60.32 0.63Q59.84 0.39 59.14 0.39L59.14 0.39Q58.47 0.39 57.98 0.61Q57.49 0.84 57.17 1.23Q56.84 1.62 56.66 2.12Q56.48 2.63 56.42 3.16L56.42 3.16ZM78.85-1.85L78.24 1.34Q77.90 1.26 77.44 1.17Q76.98 1.09 76.50 1.02Q76.02 0.95 75.58 0.92Q75.13 0.89 74.82 0.89L74.82 0.89Q74.09 0.89 73.39 0.96Q72.69 1.03 71.96 1.23L71.96 1.23L71.96 11L68.49 11L68.49-1.29Q69.86-1.80 71.31-2.10Q72.75-2.41 74.68-2.41L74.68-2.41Q74.96-2.41 75.48-2.38Q76.00-2.36 76.58-2.29Q77.17-2.22 77.77-2.12Q78.38-2.02 78.85-1.85L78.85-1.85ZM88.29 11.36L88.29 11.36Q84.62 11.36 82.69 9.01Q80.76 6.66 80.76 2.32L80.76 2.32Q80.76 0.16 81.34-1.52Q81.93-3.20 82.98-4.36Q84.03-5.52 85.47-6.12Q86.92-6.72 88.62-6.72L88.62-6.72Q89.55-6.72 90.29-6.57Q91.03-6.42 91.59-6.22Q92.15-6.02 92.53-5.80Q92.91-5.58 93.10-5.46L93.10-5.46L92.21-2.72Q91.56-3.14 90.65-3.43Q89.74-3.73 88.57-3.73L88.57-3.73Q87.76-3.73 86.99-3.43Q86.22-3.14 85.61-2.45Q85.01-1.77 84.63-0.62Q84.26 0.53 84.26 2.24L84.26 2.24Q84.26 5.20 85.28 6.79Q86.30 8.37 88.62 8.37L88.62 8.37Q89.97 8.37 90.85 8.06Q91.73 7.75 92.26 7.44L92.26 7.44L93.13 10.16Q92.40 10.61 91.16 10.99Q89.91 11.36 88.29 11.36ZM107.22 4.39L107.22 4.39Q107.22 5.96 106.77 7.23Q106.32 8.51 105.51 9.43Q104.70 10.36 103.56 10.86Q102.43 11.36 101.03 11.36L101.03 11.36Q99.63 11.36 98.49 10.86Q97.36 10.36 96.53 9.43Q95.71 8.51 95.26 7.23Q94.81 5.96 94.81 4.39L94.81 4.39Q94.81 2.85 95.27 1.58Q95.74 0.30 96.56-0.61Q97.39-1.52 98.54-2.01Q99.68-2.50 101.03-2.50L101.03-2.50Q102.40-2.50 103.53-2.01Q104.67-1.52 105.49-0.61Q106.32 0.30 106.77 1.58Q107.22 2.85 107.22 4.39ZM98.31 4.42L98.31 4.42Q98.31 6.18 98.94 7.28Q99.57 8.37 100.97 8.37L100.97 8.37Q102.32 8.37 103.00 7.28Q103.69 6.18 103.69 4.42L103.69 4.42Q103.69 2.66 103.06 1.58Q102.43 0.50 101.03 0.50L101.03 0.50Q99.68 0.50 99.00 1.58Q98.31 2.66 98.31 4.42ZM120.63 7.67L121.08 10.44Q120.99 10.50 120.70 10.64Q120.40 10.78 119.93 10.93Q119.45 11.08 118.77 11.20Q118.08 11.31 117.21 11.31L117.21 11.31Q114.83 11.31 113.74 9.89Q112.65 8.48 112.65 5.76L112.65 5.76L112.65-5.41L109.01-5.41L109.01-8.26L116.09-8.26L116.09 6.02Q116.09 7.36 116.62 7.84Q117.16 8.31 117.97 8.31L117.97 8.31Q119.00 8.31 119.70 8.03Q120.40 7.75 120.63 7.67L120.63 7.67ZM134.63 7.67L135.08 10.44Q134.99 10.50 134.70 10.64Q134.40 10.78 133.93 10.93Q133.45 11.08 132.77 11.20Q132.08 11.31 131.21 11.31L131.21 11.31Q128.83 11.31 127.74 9.89Q126.65 8.48 126.65 5.76L126.65 5.76L126.65-5.41L123.01-5.41L123.01-8.26L130.09-8.26L130.09 6.02Q130.09 7.36 130.62 7.84Q131.16 8.31 131.97 8.31L131.97 8.31Q133.00 8.31 133.70 8.03Q134.40 7.75 134.63 7.67L134.63 7.67ZM143.95-5.94L143.95-5.94Q143.95-4.93 143.31-4.34Q142.66-3.76 141.77-3.76L141.77-3.76Q140.87-3.76 140.24-4.34Q139.61-4.93 139.61-5.94L139.61-5.94Q139.61-6.98 140.24-7.56Q140.87-8.15 141.77-8.15L141.77-8.15Q142.66-8.15 143.31-7.56Q143.95-6.98 143.95-5.94ZM148.63 7.67L149.08 10.44Q148.01 10.94 147.07 11.13Q146.14 11.31 145.35 11.31L145.35 11.31Q144.01 11.31 143.10 10.92Q142.19 10.52 141.64 9.78Q141.10 9.04 140.87 7.98Q140.65 6.91 140.65 5.54L140.65 5.54L140.65 0.70L137.01 0.70L137.01-2.16L144.09-2.16L144.09 5.99Q144.09 7.16 144.53 7.74Q144.96 8.31 145.97 8.31L145.97 8.31Q146.44 8.31 147.12 8.19Q147.79 8.06 148.63 7.67L148.63 7.67ZM154.28 4.34L154.28 4.34Q154.28 6.10 154.94 7.22Q155.60 8.34 157.06 8.34L157.06 8.34Q157.48 8.34 157.84 8.31Q158.20 8.28 158.60 8.23L158.60 8.23L158.60 1.06Q158.20 0.84 157.70 0.68Q157.20 0.53 156.64 0.53L156.64 0.53Q155.40 0.53 154.84 1.51Q154.28 2.49 154.28 4.34ZM162.04-8.43L162.04 10.61Q161.09 10.92 159.72 11.11Q158.34 11.31 157.03 11.31L157.03 11.31Q153.95 11.31 152.37 9.49Q150.78 7.67 150.78 4.50L150.78 4.50Q150.78 1.28 152.11-0.58Q153.44-2.44 156.05-2.44L156.05-2.44Q156.75-2.44 157.42-2.29Q158.09-2.13 158.60-1.85L158.60-1.85L158.60-7.84L162.04-8.43ZM164.87 4.53L164.87 4.53Q164.87 2.80 165.40 1.48Q165.93 0.16 166.80-0.72Q167.67-1.60 168.79-2.05Q169.91-2.50 171.08-2.50L171.08-2.50Q174.00-2.50 175.51-0.77Q177.02 0.95 177.02 4.25L177.02 4.25Q177.02 4.59 177.01 4.95Q176.99 5.32 176.96 5.54L176.96 5.54L168.42 5.54Q168.42 6.83 169.49 7.57Q170.55 8.31 172.23 8.31L172.23 8.31Q173.27 8.31 174.21 8.09Q175.14 7.86 175.79 7.64L175.79 7.64L176.26 10.58Q175.37 10.89 174.36 11.10Q173.35 11.31 172.09 11.31L172.09 11.31Q170.41 11.31 169.08 10.87Q167.75 10.44 166.81 9.59Q165.88 8.73 165.37 7.47Q164.87 6.21 164.87 4.53ZM168.42 3.16L173.69 3.16Q173.69 2.63 173.55 2.14Q173.41 1.65 173.10 1.26Q172.79 0.86 172.32 0.63Q171.84 0.39 171.14 0.39L171.14 0.39Q170.47 0.39 169.98 0.61Q169.49 0.84 169.17 1.23Q168.84 1.62 168.66 2.12Q168.48 2.63 168.42 3.16L168.42 3.16ZM190.85-1.85L190.24 1.34Q189.90 1.26 189.44 1.17Q188.98 1.09 188.50 1.02Q188.02 0.95 187.58 0.92Q187.13 0.89 186.82 0.89L186.82 0.89Q186.09 0.89 185.39 0.96Q184.69 1.03 183.96 1.23L183.96 1.23L183.96 11L180.49 11L180.49-1.29Q181.86-1.80 183.31-2.10Q184.75-2.41 186.68-2.41L186.68-2.41Q186.96-2.41 187.48-2.38Q188.00-2.36 188.58-2.29Q189.17-2.22 189.77-2.12Q190.38-2.02 190.85-1.85L190.85-1.85Z"/>
    </g>
</svg>