<?xml version="1.0" encoding="UTF-8"?><svg height="26" width="147.3" version="1.1" xmlns="http://www.w3.org/2000/svg"><!--Created by Josélio de S. C. Júnior - 2021 - https://github.com/joseliojunior --><rect height="24" width="145.3" rx="1" ry="1" x="1" y="1" fill="#46390b" stroke="#cba620" stroke-width="1" /><g transform="translate(0, 8)"><path fill="#cba620" d="M23.71 8.56L23.71 8.56Q24.21 8.56 24.54 8.46Q24.86 8.35 25.06 8.17Q25.25 7.98 25.32 7.75Q25.39 7.52 25.39 7.28L25.39 7.28Q25.39 6.98 25.22 6.74Q25.04 6.50 24.77 6.31Q24.50 6.13 24.16 5.98Q23.82 5.82 23.49 5.70L23.49 5.70Q23.04 5.54 22.56 5.33Q22.08 5.12 21.69 4.80Q21.30 4.48 21.04 4.01Q20.78 3.54 20.78 2.83L20.78 2.83Q20.78 1.44 21.69 0.66Q22.59-0.13 24.18-0.13L24.18-0.13Q25.09-0.13 25.77 0.08Q26.45 0.29 26.91 0.54L26.91 0.54L26.34 2.06Q25.94 1.84 25.45 1.68Q24.96 1.52 24.32 1.52L24.32 1.52Q22.75 1.52 22.75 2.66L22.75 2.66Q22.75 2.94 22.91 3.16Q23.07 3.38 23.32 3.54Q23.57 3.71 23.88 3.84Q24.19 3.97 24.50 4.08L24.50 4.08Q24.96 4.26 25.46 4.47Q25.97 4.69 26.39 5.05Q26.82 5.41 27.09 5.94Q27.36 6.48 27.36 7.30L27.36 7.30Q27.36 8.69 26.46 9.45Q25.55 10.21 23.71 10.21L23.71 10.21Q22.48 10.21 21.74 9.94Q21.01 9.68 20.64 9.46L20.64 9.46L21.22 7.86Q21.65 8.11 22.25 8.34Q22.85 8.56 23.71 8.56ZM35.01 2.48L35.01 9.74Q34.46 9.89 33.69 10.03Q32.91 10.18 32 10.18L32 10.18Q31.07 10.18 30.48 9.92Q29.89 9.66 29.54 9.19Q29.20 8.72 29.07 8.08Q28.94 7.44 28.94 6.67L28.94 6.67L28.94 2.48L30.91 2.48L30.91 6.42Q30.91 7.46 31.16 7.96Q31.41 8.46 32.13 8.46L32.13 8.46Q32.58 8.46 33.02 8.38L33.02 8.38L33.02 2.48L35.01 2.48ZM41.50 6.30L41.50 6.30Q41.50 5.30 41.10 4.65Q40.70 4 39.89 4L39.89 4Q39.66 4 39.41 4.02Q39.15 4.05 38.98 4.06L38.98 4.06L38.98 8.19Q39.17 8.32 39.49 8.40Q39.81 8.48 40.13 8.48L40.13 8.48Q40.83 8.48 41.17 7.91Q41.50 7.34 41.50 6.30ZM43.50 6.24L43.50 6.24Q43.50 7.10 43.31 7.83Q43.12 8.56 42.75 9.08Q42.38 9.60 41.82 9.89Q41.26 10.18 40.53 10.18L40.53 10.18Q39.78 10.18 38.98 9.81L38.98 9.81L38.98 12.64L37.01 12.64L37.01 2.72Q37.55 2.54 38.34 2.43Q39.14 2.32 39.90 2.32L39.90 2.32Q41.65 2.32 42.58 3.38Q43.50 4.43 43.50 6.24ZM44.50 6.30L44.50 6.30Q44.50 5.31 44.80 4.56Q45.10 3.81 45.60 3.30Q46.10 2.80 46.74 2.54Q47.38 2.29 48.05 2.29L48.05 2.29Q49.71 2.29 50.58 3.27Q51.44 4.26 51.44 6.14L51.44 6.14Q51.44 6.34 51.43 6.54Q51.42 6.75 51.41 6.88L51.41 6.88L46.53 6.88Q46.53 7.62 47.14 8.04Q47.74 8.46 48.70 8.46L48.70 8.46Q49.30 8.46 49.83 8.34Q50.37 8.21 50.74 8.08L50.74 8.08L51.01 9.76Q50.50 9.94 49.92 10.06Q49.34 10.18 48.62 10.18L48.62 10.18Q47.66 10.18 46.90 9.93Q46.14 9.68 45.61 9.19Q45.07 8.70 44.78 7.98Q44.50 7.26 44.50 6.30ZM46.53 5.52L49.54 5.52Q49.54 5.22 49.46 4.94Q49.38 4.66 49.20 4.43Q49.02 4.21 48.75 4.07Q48.48 3.94 48.08 3.94L48.08 3.94Q47.70 3.94 47.42 4.06Q47.14 4.19 46.95 4.42Q46.77 4.64 46.66 4.93Q46.56 5.22 46.53 5.52L46.53 5.52ZM59.34 2.66L58.99 4.48Q58.80 4.43 58.54 4.38Q58.27 4.34 58 4.30Q57.73 4.26 57.47 4.24Q57.22 4.22 57.04 4.22L57.04 4.22Q56.62 4.22 56.22 4.26Q55.82 4.30 55.41 4.42L55.41 4.42L55.41 10L53.42 10L53.42 2.98Q54.21 2.69 55.03 2.51Q55.86 2.34 56.96 2.34L56.96 2.34Q57.12 2.34 57.42 2.35Q57.71 2.37 58.05 2.41Q58.38 2.45 58.73 2.50Q59.07 2.56 59.34 2.66L59.34 2.66ZM64.74 10.21L64.74 10.21Q62.64 10.21 61.54 8.86Q60.43 7.52 60.43 5.04L60.43 5.04Q60.43 3.81 60.77 2.85Q61.10 1.89 61.70 1.22Q62.30 0.56 63.13 0.22Q63.95-0.13 64.93-0.13L64.93-0.13Q65.46-0.13 65.88-0.04Q66.30 0.05 66.62 0.16Q66.94 0.27 67.16 0.40Q67.38 0.53 67.49 0.59L67.49 0.59L66.98 2.16Q66.61 1.92 66.09 1.75Q65.57 1.58 64.90 1.58L64.90 1.58Q64.43 1.58 63.99 1.75Q63.55 1.92 63.21 2.31Q62.86 2.70 62.65 3.36Q62.43 4.02 62.43 4.99L62.43 4.99Q62.43 6.69 63.02 7.59Q63.60 8.50 64.93 8.50L64.93 8.50Q65.70 8.50 66.20 8.32Q66.70 8.14 67.01 7.97L67.01 7.97L67.50 9.52Q67.09 9.78 66.38 9.99Q65.66 10.21 64.74 10.21ZM75.55 6.22L75.55 6.22Q75.55 7.12 75.30 7.85Q75.04 8.58 74.58 9.10Q74.11 9.63 73.46 9.92Q72.82 10.21 72.02 10.21L72.02 10.21Q71.22 10.21 70.57 9.92Q69.92 9.63 69.45 9.10Q68.98 8.58 68.72 7.85Q68.46 7.12 68.46 6.22L68.46 6.22Q68.46 5.34 68.73 4.62Q68.99 3.89 69.46 3.37Q69.94 2.85 70.59 2.57Q71.25 2.29 72.02 2.29L72.02 2.29Q72.80 2.29 73.45 2.57Q74.10 2.85 74.57 3.37Q75.04 3.89 75.30 4.62Q75.55 5.34 75.55 6.22ZM70.46 6.24L70.46 6.24Q70.46 7.25 70.82 7.87Q71.18 8.50 71.98 8.50L71.98 8.50Q72.75 8.50 73.14 7.87Q73.54 7.25 73.54 6.24L73.54 6.24Q73.54 5.23 73.18 4.62Q72.82 4 72.02 4L72.02 4Q71.25 4 70.86 4.62Q70.46 5.23 70.46 6.24ZM83.22 8.10L83.47 9.68Q83.42 9.71 83.26 9.79Q83.09 9.87 82.82 9.96Q82.54 10.05 82.15 10.11Q81.76 10.18 81.26 10.18L81.26 10.18Q79.90 10.18 79.28 9.37Q78.66 8.56 78.66 7.01L78.66 7.01L78.66 0.62L76.58 0.62L76.58-1.01L80.62-1.01L80.62 7.15Q80.62 7.92 80.93 8.19Q81.23 8.46 81.70 8.46L81.70 8.46Q82.29 8.46 82.69 8.30Q83.09 8.14 83.22 8.10L83.22 8.10ZM91.22 8.10L91.47 9.68Q91.42 9.71 91.26 9.79Q91.09 9.87 90.82 9.96Q90.54 10.05 90.15 10.11Q89.76 10.18 89.26 10.18L89.26 10.18Q87.90 10.18 87.28 9.37Q86.66 8.56 86.66 7.01L86.66 7.01L86.66 0.62L84.58 0.62L84.58-1.01L88.62-1.01L88.62 7.15Q88.62 7.92 88.93 8.19Q89.23 8.46 89.70 8.46L89.70 8.46Q90.29 8.46 90.69 8.30Q91.09 8.14 91.22 8.10L91.22 8.10ZM96.54 0.32L96.54 0.32Q96.54 0.90 96.18 1.23Q95.81 1.57 95.30 1.57L95.30 1.57Q94.78 1.57 94.42 1.23Q94.06 0.90 94.06 0.32L94.06 0.32Q94.06-0.27 94.42-0.61Q94.78-0.94 95.30-0.94L95.30-0.94Q95.81-0.94 96.18-0.61Q96.54-0.27 96.54 0.32ZM99.22 8.10L99.47 9.68Q98.86 9.97 98.33 10.07Q97.79 10.18 97.34 10.18L97.34 10.18Q96.58 10.18 96.06 9.95Q95.54 9.73 95.22 9.30Q94.91 8.88 94.78 8.27Q94.66 7.66 94.66 6.88L94.66 6.88L94.66 4.11L92.58 4.11L92.58 2.48L96.62 2.48L96.62 7.14Q96.62 7.81 96.87 8.14Q97.12 8.46 97.70 8.46L97.70 8.46Q97.97 8.46 98.35 8.39Q98.74 8.32 99.22 8.10L99.22 8.10ZM102.45 6.19L102.45 6.19Q102.45 7.20 102.82 7.84Q103.20 8.48 104.03 8.48L104.03 8.48Q104.27 8.48 104.48 8.46Q104.69 8.45 104.91 8.42L104.91 8.42L104.91 4.32Q104.69 4.19 104.40 4.10Q104.11 4.02 103.79 4.02L103.79 4.02Q103.09 4.02 102.77 4.58Q102.45 5.14 102.45 6.19ZM106.88-1.10L106.88 9.78Q106.34 9.95 105.55 10.06Q104.77 10.18 104.02 10.18L104.02 10.18Q102.26 10.18 101.35 9.14Q100.45 8.10 100.45 6.29L100.45 6.29Q100.45 4.45 101.21 3.38Q101.97 2.32 103.46 2.32L103.46 2.32Q103.86 2.32 104.24 2.41Q104.62 2.50 104.91 2.66L104.91 2.66L104.91-0.77L106.88-1.10ZM108.50 6.30L108.50 6.30Q108.50 5.31 108.80 4.56Q109.10 3.81 109.60 3.30Q110.10 2.80 110.74 2.54Q111.38 2.29 112.05 2.29L112.05 2.29Q113.71 2.29 114.58 3.27Q115.44 4.26 115.44 6.14L115.44 6.14Q115.44 6.34 115.43 6.54Q115.42 6.75 115.41 6.88L115.41 6.88L110.53 6.88Q110.53 7.62 111.14 8.04Q111.74 8.46 112.70 8.46L112.70 8.46Q113.30 8.46 113.83 8.34Q114.37 8.21 114.74 8.08L114.74 8.08L115.01 9.76Q114.50 9.94 113.92 10.06Q113.34 10.18 112.62 10.18L112.62 10.18Q111.66 10.18 110.90 9.93Q110.14 9.68 109.61 9.19Q109.07 8.70 108.78 7.98Q108.50 7.26 108.50 6.30ZM110.53 5.52L113.54 5.52Q113.54 5.22 113.46 4.94Q113.38 4.66 113.20 4.43Q113.02 4.21 112.75 4.07Q112.48 3.94 112.08 3.94L112.08 3.94Q111.70 3.94 111.42 4.06Q111.14 4.19 110.95 4.42Q110.77 4.64 110.66 4.93Q110.56 5.22 110.53 5.52L110.53 5.52ZM123.34 2.66L122.99 4.48Q122.80 4.43 122.54 4.38Q122.27 4.34 122 4.30Q121.73 4.26 121.47 4.24Q121.22 4.22 121.04 4.22L121.04 4.22Q120.62 4.22 120.22 4.26Q119.82 4.30 119.41 4.42L119.41 4.42L119.41 10L117.42 10L117.42 2.98Q118.21 2.69 119.03 2.51Q119.86 2.34 120.96 2.34L120.96 2.34Q121.12 2.34 121.42 2.35Q121.71 2.37 122.05 2.41Q122.38 2.45 122.73 2.50Q123.07 2.56 123.34 2.66L123.34 2.66Z"/></g></svg>