<?xml version="1.0" encoding="UTF-8"?>
<svg height="34" width="199.29999999999998" version="1.1" xmlns="http://www.w3.org/2000/svg">
    <rect
        height="32"
        width="197.29999999999998"
        rx="1"
        ry="1"
        x="1"
        y="1"
        fill="#46390b"
        stroke="#cba620"
        stroke-width="1"
         />
    <g transform="translate(0, 12)">
        <path fill="#cba620" d="M25.57 9.84L25.57 9.84Q26.31 9.84 26.80 9.68Q27.30 9.53 27.58 9.25Q27.87 8.98 27.98 8.63Q28.09 8.28 28.09 7.92L28.09 7.92Q28.09 7.46 27.82 7.10Q27.56 6.74 27.15 6.47Q26.74 6.19 26.24 5.96Q25.74 5.74 25.23 5.54L25.23 5.54Q24.56 5.30 23.84 4.99Q23.12 4.68 22.53 4.20Q21.94 3.72 21.56 3.01Q21.18 2.30 21.18 1.25L21.18 1.25Q21.18-0.84 22.53-2.02Q23.89-3.19 26.26-3.19L26.26-3.19Q27.63-3.19 28.65-2.88Q29.67-2.57 30.37-2.18L30.37-2.18L29.50 0.10Q28.90-0.24 28.17-0.48Q27.44-0.72 26.48-0.72L26.48-0.72Q24.13-0.72 24.13 0.98L24.13 0.98Q24.13 1.42 24.37 1.74Q24.61 2.06 24.98 2.32Q25.35 2.57 25.82 2.76Q26.29 2.95 26.74 3.12L26.74 3.12Q27.44 3.38 28.20 3.71Q28.95 4.03 29.59 4.57Q30.22 5.11 30.63 5.92Q31.04 6.72 31.04 7.94L31.04 7.94Q31.04 10.03 29.68 11.17Q28.33 12.31 25.57 12.31L25.57 12.31Q23.72 12.31 22.62 11.92Q21.51 11.52 20.96 11.18L20.96 11.18L21.82 8.78Q22.47 9.17 23.37 9.50Q24.27 9.84 25.57 9.84ZM42.51 0.72L42.51 11.62Q41.70 11.83 40.53 12.05Q39.37 12.26 38 12.26L38 12.26Q36.61 12.26 35.72 11.88Q34.83 11.50 34.32 10.79Q33.80 10.08 33.61 9.12Q33.42 8.16 33.42 7.01L33.42 7.01L33.42 0.72L36.37 0.72L36.37 6.62Q36.37 8.18 36.74 8.94Q37.11 9.70 38.19 9.70L38.19 9.70Q38.86 9.70 39.54 9.58L39.54 9.58L39.54 0.72L42.51 0.72ZM52.26 6.46L52.26 6.46Q52.26 4.94 51.66 3.97Q51.06 3 49.83 3L49.83 3Q49.50 3 49.11 3.04Q48.73 3.07 48.46 3.10L48.46 3.10L48.46 9.29Q48.75 9.48 49.23 9.60Q49.71 9.72 50.19 9.72L50.19 9.72Q51.25 9.72 51.75 8.87Q52.26 8.02 52.26 6.46ZM55.26 6.36L55.26 6.36Q55.26 7.66 54.97 8.75Q54.68 9.84 54.13 10.62Q53.58 11.40 52.74 11.83Q51.90 12.26 50.79 12.26L50.79 12.26Q49.66 12.26 48.46 11.71L48.46 11.71L48.46 15.96L45.51 15.96L45.51 1.08Q46.33 0.82 47.52 0.65Q48.70 0.48 49.86 0.48L49.86 0.48Q52.47 0.48 53.86 2.06Q55.26 3.65 55.26 6.36ZM56.74 6.46L56.74 6.46Q56.74 4.97 57.20 3.84Q57.66 2.71 58.40 1.96Q59.14 1.20 60.10 0.82Q61.06 0.43 62.07 0.43L62.07 0.43Q64.57 0.43 65.86 1.91Q67.16 3.38 67.16 6.22L67.16 6.22Q67.16 6.50 67.15 6.82Q67.14 7.13 67.11 7.32L67.11 7.32L59.79 7.32Q59.79 8.42 60.70 9.06Q61.62 9.70 63.06 9.70L63.06 9.70Q63.94 9.70 64.75 9.50Q65.55 9.31 66.10 9.12L66.10 9.12L66.51 11.64Q65.74 11.90 64.88 12.08Q64.02 12.26 62.94 12.26L62.94 12.26Q61.50 12.26 60.36 11.89Q59.22 11.52 58.41 10.79Q57.61 10.06 57.18 8.98Q56.74 7.90 56.74 6.46ZM59.79 5.28L64.30 5.28Q64.30 4.82 64.18 4.40Q64.06 3.98 63.80 3.65Q63.54 3.31 63.13 3.11Q62.72 2.90 62.12 2.90L62.12 2.90Q61.54 2.90 61.12 3.10Q60.70 3.29 60.43 3.62Q60.15 3.96 60.00 4.39Q59.84 4.82 59.79 5.28L59.79 5.28ZM79.02 0.98L78.49 3.72Q78.20 3.65 77.80 3.58Q77.41 3.50 77 3.44Q76.59 3.38 76.21 3.36Q75.82 3.34 75.56 3.34L75.56 3.34Q74.94 3.34 74.34 3.40Q73.74 3.46 73.11 3.62L73.11 3.62L73.11 12L70.14 12L70.14 1.46Q71.31 1.03 72.55 0.77Q73.78 0.50 75.44 0.50L75.44 0.50Q75.68 0.50 76.12 0.53Q76.57 0.55 77.07 0.61Q77.58 0.67 78.09 0.76Q78.61 0.84 79.02 0.98L79.02 0.98ZM87.10 12.31L87.10 12.31Q83.96 12.31 82.30 10.30Q80.65 8.28 80.65 4.56L80.65 4.56Q80.65 2.71 81.15 1.27Q81.66-0.17 82.56-1.16Q83.46-2.16 84.69-2.68Q85.93-3.19 87.39-3.19L87.39-3.19Q88.18-3.19 88.82-3.06Q89.46-2.93 89.94-2.76Q90.42-2.59 90.74-2.40Q91.06-2.21 91.23-2.11L91.23-2.11L90.46 0.24Q89.91-0.12 89.13-0.37Q88.35-0.62 87.34-0.62L87.34-0.62Q86.65-0.62 85.99-0.37Q85.33-0.12 84.81 0.47Q84.30 1.06 83.97 2.04Q83.65 3.02 83.65 4.49L83.65 4.49Q83.65 7.03 84.52 8.39Q85.40 9.74 87.39 9.74L87.39 9.74Q88.54 9.74 89.30 9.48Q90.06 9.22 90.51 8.95L90.51 8.95L91.26 11.28Q90.63 11.66 89.56 11.99Q88.50 12.31 87.10 12.31ZM103.33 6.34L103.33 6.34Q103.33 7.68 102.94 8.77Q102.56 9.86 101.86 10.66Q101.17 11.45 100.20 11.88Q99.22 12.31 98.02 12.31L98.02 12.31Q96.82 12.31 95.85 11.88Q94.88 11.45 94.17 10.66Q93.46 9.86 93.08 8.77Q92.70 7.68 92.70 6.34L92.70 6.34Q92.70 5.02 93.09 3.92Q93.49 2.83 94.20 2.05Q94.90 1.27 95.89 0.85Q96.87 0.43 98.02 0.43L98.02 0.43Q99.20 0.43 100.17 0.85Q101.14 1.27 101.85 2.05Q102.56 2.83 102.94 3.92Q103.33 5.02 103.33 6.34ZM95.70 6.36L95.70 6.36Q95.70 7.87 96.24 8.81Q96.78 9.74 97.98 9.74L97.98 9.74Q99.13 9.74 99.72 8.81Q100.30 7.87 100.30 6.36L100.30 6.36Q100.30 4.85 99.76 3.92Q99.22 3 98.02 3L98.02 3Q96.87 3 96.28 3.92Q95.70 4.85 95.70 6.36ZM114.82 9.14L115.21 11.52Q115.14 11.57 114.88 11.69Q114.63 11.81 114.22 11.94Q113.82 12.07 113.23 12.17Q112.64 12.26 111.90 12.26L111.90 12.26Q109.86 12.26 108.92 11.05Q107.98 9.84 107.98 7.51L107.98 7.51L107.98-2.06L104.86-2.06L104.86-4.51L110.94-4.51L110.94 7.73Q110.94 8.88 111.39 9.29Q111.85 9.70 112.54 9.70L112.54 9.70Q113.43 9.70 114.03 9.46Q114.63 9.22 114.82 9.14L114.82 9.14ZM126.82 9.14L127.21 11.52Q127.14 11.57 126.88 11.69Q126.63 11.81 126.22 11.94Q125.82 12.07 125.23 12.17Q124.64 12.26 123.90 12.26L123.90 12.26Q121.86 12.26 120.92 11.05Q119.98 9.84 119.98 7.51L119.98 7.51L119.98-2.06L116.86-2.06L116.86-4.51L122.94-4.51L122.94 7.73Q122.94 8.88 123.39 9.29Q123.85 9.70 124.54 9.70L124.54 9.70Q125.43 9.70 126.03 9.46Q126.63 9.22 126.82 9.14L126.82 9.14ZM134.82-2.52L134.82-2.52Q134.82-1.66 134.26-1.15Q133.71-0.65 132.94-0.65L132.94-0.65Q132.18-0.65 131.64-1.15Q131.10-1.66 131.10-2.52L131.10-2.52Q131.10-3.41 131.64-3.91Q132.18-4.42 132.94-4.42L132.94-4.42Q133.71-4.42 134.26-3.91Q134.82-3.41 134.82-2.52ZM138.82 9.14L139.21 11.52Q138.30 11.95 137.49 12.11Q136.69 12.26 136.02 12.26L136.02 12.26Q134.86 12.26 134.08 11.93Q133.30 11.59 132.84 10.96Q132.37 10.32 132.18 9.41Q131.98 8.50 131.98 7.32L131.98 7.32L131.98 3.17L128.86 3.17L128.86 0.72L134.94 0.72L134.94 7.70Q134.94 8.71 135.31 9.20Q135.68 9.70 136.54 9.70L136.54 9.70Q136.95 9.70 137.53 9.59Q138.10 9.48 138.82 9.14L138.82 9.14ZM143.67 6.29L143.67 6.29Q143.67 7.80 144.24 8.76Q144.80 9.72 146.05 9.72L146.05 9.72Q146.41 9.72 146.72 9.70Q147.03 9.67 147.37 9.62L147.37 9.62L147.37 3.48Q147.03 3.29 146.60 3.16Q146.17 3.02 145.69 3.02L145.69 3.02Q144.63 3.02 144.15 3.86Q143.67 4.70 143.67 6.29ZM150.32-4.66L150.32 11.66Q149.50 11.93 148.33 12.10Q147.15 12.26 146.02 12.26L146.02 12.26Q143.38 12.26 142.03 10.70Q140.67 9.14 140.67 6.43L140.67 6.43Q140.67 3.67 141.81 2.08Q142.95 0.48 145.18 0.48L145.18 0.48Q145.78 0.48 146.36 0.61Q146.94 0.74 147.37 0.98L147.37 0.98L147.37-4.15L150.32-4.66ZM152.74 6.46L152.74 6.46Q152.74 4.97 153.20 3.84Q153.66 2.71 154.40 1.96Q155.14 1.20 156.10 0.82Q157.06 0.43 158.07 0.43L158.07 0.43Q160.57 0.43 161.86 1.91Q163.16 3.38 163.16 6.22L163.16 6.22Q163.16 6.50 163.15 6.82Q163.14 7.13 163.11 7.32L163.11 7.32L155.79 7.32Q155.79 8.42 156.70 9.06Q157.62 9.70 159.06 9.70L159.06 9.70Q159.94 9.70 160.75 9.50Q161.55 9.31 162.10 9.12L162.10 9.12L162.51 11.64Q161.74 11.90 160.88 12.08Q160.02 12.26 158.94 12.26L158.94 12.26Q157.50 12.26 156.36 11.89Q155.22 11.52 154.41 10.79Q153.61 10.06 153.18 8.98Q152.74 7.90 152.74 6.46ZM155.79 5.28L160.30 5.28Q160.30 4.82 160.18 4.40Q160.06 3.98 159.80 3.65Q159.54 3.31 159.13 3.11Q158.72 2.90 158.12 2.90L158.12 2.90Q157.54 2.90 157.12 3.10Q156.70 3.29 156.43 3.62Q156.15 3.96 156.00 4.39Q155.84 4.82 155.79 5.28L155.79 5.28ZM175.02 0.98L174.49 3.72Q174.20 3.65 173.80 3.58Q173.41 3.50 173 3.44Q172.59 3.38 172.21 3.36Q171.82 3.34 171.56 3.34L171.56 3.34Q170.94 3.34 170.34 3.40Q169.74 3.46 169.11 3.62L169.11 3.62L169.11 12L166.14 12L166.14 1.46Q167.31 1.03 168.55 0.77Q169.78 0.50 171.44 0.50L171.44 0.50Q171.68 0.50 172.12 0.53Q172.57 0.55 173.07 0.61Q173.58 0.67 174.09 0.76Q174.61 0.84 175.02 0.98L175.02 0.98Z"/>
    </g>
</svg>