<?xml version="1.0" encoding="UTF-8"?>
<svg height="26" width="98.69999999999999" version="1.1" xmlns="http://www.w3.org/2000/svg"><!--Created by Josélio de S. C. Júnior - 2021 - https://github.com/joseliojunior -->
    <rect
        height="24"
        width="96.69999999999999"
        rx="12"
        ry="12"
        x="1" y="1"
        fill="#cc9900"
        stroke="#332600"
        stroke-width="1" />
    <g transform="translate(0, 8)">
        <path fill="#332600" stroke="none" d="M27.36 8.37L27.36 10L21.14 10L21.14 0.10L23.12 0.10L23.12 8.37L27.36 8.37ZM30.43 5.04L30.43 5.04Q30.43 5.76 30.49 6.39Q30.54 7.02 30.71 7.49Q30.88 7.95 31.18 8.22Q31.49 8.50 32 8.50L32 8.50Q32.50 8.50 32.81 8.22Q33.12 7.95 33.29 7.48Q33.46 7.01 33.51 6.38Q33.57 5.76 33.57 5.04L33.57 5.04Q33.57 4.32 33.51 3.69Q33.46 3.06 33.29 2.59Q33.12 2.13 32.82 1.86Q32.51 1.58 32 1.58L32 1.58Q31.49 1.58 31.18 1.86Q30.88 2.13 30.71 2.60Q30.54 3.07 30.49 3.70Q30.43 4.32 30.43 5.04ZM28.43 5.04L28.43 5.04Q28.43 2.48 29.38 1.18Q30.32-0.13 32-0.13L32-0.13Q33.74-0.13 34.66 1.18Q35.57 2.48 35.57 5.04L35.57 5.04Q35.57 7.60 34.64 8.90Q33.71 10.21 32.02 10.21L32.02 10.21Q30.27 10.21 29.35 8.90Q28.43 7.60 28.43 5.04ZM43.36 8.37L43.36 10L37.14 10L37.14 0.10L39.12 0.10L39.12 8.37L43.36 8.37ZM48.74 10.21L48.74 10.21Q46.64 10.21 45.54 8.86Q44.43 7.52 44.43 5.04L44.43 5.04Q44.43 3.81 44.77 2.85Q45.10 1.89 45.70 1.22Q46.30 0.56 47.13 0.22Q47.95-0.13 48.93-0.13L48.93-0.13Q49.46-0.13 49.88-0.04Q50.30 0.05 50.62 0.16Q50.94 0.27 51.16 0.40Q51.38 0.53 51.49 0.59L51.49 0.59L50.98 2.16Q50.61 1.92 50.09 1.75Q49.57 1.58 48.90 1.58L48.90 1.58Q48.43 1.58 47.99 1.75Q47.55 1.92 47.21 2.31Q46.86 2.70 46.65 3.36Q46.43 4.02 46.43 4.99L46.43 4.99Q46.43 6.69 47.02 7.59Q47.60 8.50 48.93 8.50L48.93 8.50Q49.70 8.50 50.20 8.32Q50.70 8.14 51.01 7.97L51.01 7.97L51.50 9.52Q51.09 9.78 50.38 9.99Q49.66 10.21 48.74 10.21ZM54.43 5.04L54.43 5.04Q54.43 5.76 54.49 6.39Q54.54 7.02 54.71 7.49Q54.88 7.95 55.18 8.22Q55.49 8.50 56 8.50L56 8.50Q56.50 8.50 56.81 8.22Q57.12 7.95 57.29 7.48Q57.46 7.01 57.51 6.38Q57.57 5.76 57.57 5.04L57.57 5.04Q57.57 4.32 57.51 3.69Q57.46 3.06 57.29 2.59Q57.12 2.13 56.82 1.86Q56.51 1.58 56 1.58L56 1.58Q55.49 1.58 55.18 1.86Q54.88 2.13 54.71 2.60Q54.54 3.07 54.49 3.70Q54.43 4.32 54.43 5.04ZM52.43 5.04L52.43 5.04Q52.43 2.48 53.38 1.18Q54.32-0.13 56-0.13L56-0.13Q57.74-0.13 58.66 1.18Q59.57 2.48 59.57 5.04L59.57 5.04Q59.57 7.60 58.64 8.90Q57.71 10.21 56.02 10.21L56.02 10.21Q54.27 10.21 53.35 8.90Q52.43 7.60 52.43 5.04ZM62.83 1.74L62.83 8.40Q62.91 8.42 63.01 8.42Q63.10 8.42 63.18 8.42L63.18 8.42Q63.86 8.42 64.31 8.16Q64.77 7.90 65.05 7.46Q65.33 7.01 65.45 6.39Q65.57 5.78 65.57 5.04L65.57 5.04Q65.57 4.40 65.47 3.79Q65.38 3.18 65.14 2.72Q64.90 2.26 64.48 1.98Q64.06 1.70 63.41 1.70L63.41 1.70Q63.28 1.70 63.12 1.70Q62.96 1.71 62.83 1.74L62.83 1.74ZM67.57 5.04L67.57 5.04Q67.57 6.42 67.22 7.38Q66.88 8.35 66.27 8.96Q65.66 9.57 64.82 9.85Q63.98 10.13 62.98 10.13L62.98 10.13Q62.45 10.13 61.94 10.07Q61.44 10.02 60.86 9.89L60.86 9.89L60.86 0.22Q61.54 0.08 62.13 0.03Q62.72-0.02 63.23-0.02L63.23-0.02Q64.21-0.02 65.02 0.27Q65.82 0.56 66.38 1.18Q66.94 1.79 67.26 2.74Q67.57 3.70 67.57 5.04ZM75.36 10L69.01 10L69.01 0.10L75.01 0.10L75.01 1.73L70.98 1.73L70.98 3.95L74.48 3.95L74.48 5.58L70.98 5.58L70.98 8.37L75.36 8.37L75.36 10Z"/>
    </g>
</svg>