<?xml version="1.0" encoding="UTF-8"?>
<svg height="34" width="120.7" version="1.1" xmlns="http://www.w3.org/2000/svg">
    <rect
        height="32"
        width="118.7"
        rx="1"
        ry="1"
        x="1"
        y="1"
        fill="#cc9900"
        stroke="#332600"
        stroke-width="1"
         />
    <g transform="translate(0, 14)">
        <path fill="#332600" d="M22.88 8.14L22.88 11L11.99 11L11.99-6.33L15.46-6.33L15.46 8.14L22.88 8.14ZM28.26 2.32L28.26 2.32Q28.26 3.58 28.35 4.69Q28.45 5.79 28.75 6.60Q29.04 7.42 29.57 7.89Q30.10 8.37 31 8.37L31 8.37Q31.87 8.37 32.41 7.89Q32.96 7.42 33.25 6.59Q33.55 5.76 33.65 4.67Q33.74 3.58 33.74 2.32L33.74 2.32Q33.74 1.06 33.65-0.05Q33.55-1.15 33.25-1.96Q32.96-2.78 32.43-3.25Q31.90-3.73 31-3.73L31-3.73Q30.10-3.73 29.57-3.25Q29.04-2.78 28.75-1.95Q28.45-1.12 28.35-0.03Q28.26 1.06 28.26 2.32ZM24.76 2.32L24.76 2.32Q24.76-2.16 26.41-4.44Q28.06-6.72 31-6.72L31-6.72Q34.05-6.72 35.65-4.44Q37.24-2.16 37.24 2.32L37.24 2.32Q37.24 6.80 35.62 9.08Q34.00 11.36 31.03 11.36L31.03 11.36Q27.98 11.36 26.37 9.08Q24.76 6.80 24.76 2.32ZM50.88 8.14L50.88 11L39.99 11L39.99-6.33L43.46-6.33L43.46 8.14L50.88 8.14ZM60.29 11.36L60.29 11.36Q56.62 11.36 54.69 9.01Q52.76 6.66 52.76 2.32L52.76 2.32Q52.76 0.16 53.34-1.52Q53.93-3.20 54.98-4.36Q56.03-5.52 57.47-6.12Q58.92-6.72 60.62-6.72L60.62-6.72Q61.55-6.72 62.29-6.57Q63.03-6.42 63.59-6.22Q64.15-6.02 64.53-5.80Q64.91-5.58 65.10-5.46L65.10-5.46L64.21-2.72Q63.56-3.14 62.65-3.43Q61.74-3.73 60.57-3.73L60.57-3.73Q59.76-3.73 58.99-3.43Q58.22-3.14 57.61-2.45Q57.01-1.77 56.63-0.62Q56.26 0.53 56.26 2.24L56.26 2.24Q56.26 5.20 57.28 6.79Q58.30 8.37 60.62 8.37L60.62 8.37Q61.97 8.37 62.85 8.06Q63.73 7.75 64.26 7.44L64.26 7.44L65.13 10.16Q64.40 10.61 63.16 10.99Q61.91 11.36 60.29 11.36ZM70.26 2.32L70.26 2.32Q70.26 3.58 70.35 4.69Q70.45 5.79 70.75 6.60Q71.04 7.42 71.57 7.89Q72.10 8.37 73 8.37L73 8.37Q73.87 8.37 74.41 7.89Q74.96 7.42 75.25 6.59Q75.55 5.76 75.65 4.67Q75.74 3.58 75.74 2.32L75.74 2.32Q75.74 1.06 75.65-0.05Q75.55-1.15 75.25-1.96Q74.96-2.78 74.43-3.25Q73.90-3.73 73-3.73L73-3.73Q72.10-3.73 71.57-3.25Q71.04-2.78 70.75-1.95Q70.45-1.12 70.35-0.03Q70.26 1.06 70.26 2.32ZM66.76 2.32L66.76 2.32Q66.76-2.16 68.41-4.44Q70.06-6.72 73-6.72L73-6.72Q76.05-6.72 77.65-4.44Q79.24-2.16 79.24 2.32L79.24 2.32Q79.24 6.80 77.62 9.08Q76.00 11.36 73.03 11.36L73.03 11.36Q69.98 11.36 68.37 9.08Q66.76 6.80 66.76 2.32ZM84.96-3.45L84.96 8.20Q85.10 8.23 85.26 8.23Q85.43 8.23 85.57 8.23L85.57 8.23Q86.75 8.23 87.55 7.78Q88.34 7.33 88.83 6.55Q89.32 5.76 89.53 4.69Q89.74 3.61 89.74 2.32L89.74 2.32Q89.74 1.20 89.58 0.14Q89.41-0.93 88.99-1.74Q88.57-2.55 87.84-3.04Q87.11-3.53 85.96-3.53L85.96-3.53Q85.74-3.53 85.46-3.52Q85.18-3.50 84.96-3.45L84.96-3.45ZM93.24 2.32L93.24 2.32Q93.24 4.73 92.64 6.42Q92.04 8.12 90.98 9.18Q89.91 10.24 88.44 10.73Q86.97 11.22 85.21 11.22L85.21 11.22Q84.28 11.22 83.40 11.13Q82.52 11.03 81.51 10.80L81.51 10.80L81.51-6.11Q82.69-6.36 83.72-6.44Q84.76-6.53 85.66-6.53L85.66-6.53Q87.36-6.53 88.78-6.02Q90.19-5.52 91.17-4.44Q92.15-3.36 92.70-1.70Q93.24-0.03 93.24 2.32ZM106.88 11L95.76 11L95.76-6.33L106.26-6.33L106.26-3.48L99.21-3.48L99.21 0.42L105.34 0.42L105.34 3.27L99.21 3.27L99.21 8.14L106.88 8.14L106.88 11Z"/>
    </g>
</svg>