<?xml version="1.0" encoding="UTF-8"?>
<svg height="34" width="90.4" version="1.1" xmlns="http://www.w3.org/2000/svg"><!--Created by Josélio de S. C. Júnior - 2021 - https://github.com/joseliojunior -->
    <defs>
        <pattern id="pattern"
                x="3" y="3" width="6" height="6"
                patternUnits="userSpaceOnUse"
                patternTransform="rotate(45)" >
            <rect height="6" width="6"
                fill="#ffffff"/>
            <line x1="0" y1="0" x2="0" y2="6"
                stroke="#888888"
                stroke-width="2" />
        </pattern>
    </defs>
    <rect
        height="32"
        width="88.4"
        rx="1"
        ry="1"
        x="1" y="1"
        fill="url(#pattern)"
        stroke="#000000"
        stroke-width="1" />
    <g transform="translate(0, 12)">
        <path fill="#ffffff" stroke="#000000" d="M30.90 12L28.52 12Q27.51 9.53 26.32 7.07Q25.14 4.61 23.77 2.14L23.77 2.14L23.77 12L21.10 12L21.10-2.86L23.48-2.86Q24.15-1.80 24.82-0.56Q25.50 0.67 26.13 1.90Q26.77 3.12 27.31 4.27Q27.85 5.42 28.23 6.29L28.23 6.29L28.23-2.86L30.90-2.86L30.90 12ZM37.57 9.84L37.57 9.84Q38.31 9.84 38.80 9.68Q39.30 9.53 39.58 9.25Q39.87 8.98 39.98 8.63Q40.09 8.28 40.09 7.92L40.09 7.92Q40.09 7.46 39.82 7.10Q39.56 6.74 39.15 6.47Q38.74 6.19 38.24 5.96Q37.74 5.74 37.23 5.54L37.23 5.54Q36.56 5.30 35.84 4.99Q35.12 4.68 34.53 4.20Q33.94 3.72 33.56 3.01Q33.18 2.30 33.18 1.25L33.18 1.25Q33.18-0.84 34.53-2.02Q35.89-3.19 38.26-3.19L38.26-3.19Q39.63-3.19 40.65-2.88Q41.67-2.57 42.37-2.18L42.37-2.18L41.50 0.10Q40.90-0.24 40.17-0.48Q39.44-0.72 38.48-0.72L38.48-0.72Q36.13-0.72 36.13 0.98L36.13 0.98Q36.13 1.42 36.37 1.74Q36.61 2.06 36.98 2.32Q37.35 2.57 37.82 2.76Q38.29 2.95 38.74 3.12L38.74 3.12Q39.44 3.38 40.20 3.71Q40.95 4.03 41.59 4.57Q42.22 5.11 42.63 5.92Q43.04 6.72 43.04 7.94L43.04 7.94Q43.04 10.03 41.68 11.17Q40.33 12.31 37.57 12.31L37.57 12.31Q35.72 12.31 34.62 11.92Q33.51 11.52 32.96 11.18L32.96 11.18L33.82 8.78Q34.47 9.17 35.37 9.50Q36.27 9.84 37.57 9.84ZM54.73 12L45.30 12L45.30 9.55L48.54 9.55L48.54-0.41L45.30-0.41L45.30-2.86L54.73-2.86L54.73-0.41L51.51-0.41L51.51 9.55L54.73 9.55L54.73 12ZM61.57 9.84L61.57 9.84Q62.31 9.84 62.80 9.68Q63.30 9.53 63.58 9.25Q63.87 8.98 63.98 8.63Q64.09 8.28 64.09 7.92L64.09 7.92Q64.09 7.46 63.82 7.10Q63.56 6.74 63.15 6.47Q62.74 6.19 62.24 5.96Q61.74 5.74 61.23 5.54L61.23 5.54Q60.56 5.30 59.84 4.99Q59.12 4.68 58.53 4.20Q57.94 3.72 57.56 3.01Q57.18 2.30 57.18 1.25L57.18 1.25Q57.18-0.84 58.53-2.02Q59.89-3.19 62.26-3.19L62.26-3.19Q63.63-3.19 64.65-2.88Q65.67-2.57 66.37-2.18L66.37-2.18L65.50 0.10Q64.90-0.24 64.17-0.48Q63.44-0.72 62.48-0.72L62.48-0.72Q60.13-0.72 60.13 0.98L60.13 0.98Q60.13 1.42 60.37 1.74Q60.61 2.06 60.98 2.32Q61.35 2.57 61.82 2.76Q62.29 2.95 62.74 3.12L62.74 3.12Q63.44 3.38 64.20 3.71Q64.95 4.03 65.59 4.57Q66.22 5.11 66.63 5.92Q67.04 6.72 67.04 7.94L67.04 7.94Q67.04 10.03 65.68 11.17Q64.33 12.31 61.57 12.31L61.57 12.31Q59.72 12.31 58.62 11.92Q57.51 11.52 56.96 11.18L56.96 11.18L57.82 8.78Q58.47 9.17 59.37 9.50Q60.27 9.84 61.57 9.84Z"/>
    </g>
</svg>