<?xml version="1.0" encoding="UTF-8"?>
<svg height="26" width="139.2" version="1.1" xmlns="http://www.w3.org/2000/svg"><!--Created by Josélio de S. C. Júnior - 2021 - https://github.com/joseliojunior -->
    <rect
        height="24"
        width="137.2"
        rx="12"
        ry="12"
        x="1" y="1"
        fill="#701516"
        stroke="#db4345"
        stroke-width="1" />
    <g transform="translate(0, 8)">
        <path fill="#db4345" d="M24.99 1.58L24.99 1.58Q24.29 1.58 23.81 1.84Q23.33 2.10 23.02 2.55Q22.70 3.01 22.57 3.64Q22.43 4.27 22.43 5.04L22.43 5.04Q22.43 6.82 22.99 7.66Q23.55 8.50 24.64 8.50L24.64 8.50Q24.82 8.50 25.02 8.48Q25.23 8.46 25.41 8.43L25.41 8.43L25.41 4.82L27.38 4.82L27.38 9.76Q27.02 9.89 26.28 10.05Q25.54 10.21 24.48 10.21L24.48 10.21Q23.55 10.21 22.81 9.88Q22.06 9.55 21.54 8.90Q21.01 8.26 20.72 7.29Q20.43 6.32 20.43 5.04L20.43 5.04Q20.43 3.78 20.77 2.81Q21.10 1.84 21.68 1.18Q22.26 0.53 23.04 0.20Q23.82-0.13 24.72-0.13L24.72-0.13Q25.30-0.13 25.75-0.04Q26.21 0.05 26.54 0.16Q26.88 0.27 27.10 0.40Q27.31 0.53 27.42 0.59L27.42 0.59L26.91 2.16Q26.56 1.94 26.05 1.76Q25.54 1.58 24.99 1.58ZM28.50 6.30L28.50 6.30Q28.50 5.31 28.80 4.56Q29.10 3.81 29.60 3.30Q30.10 2.80 30.74 2.54Q31.38 2.29 32.05 2.29L32.05 2.29Q33.71 2.29 34.58 3.27Q35.44 4.26 35.44 6.14L35.44 6.14Q35.44 6.34 35.43 6.54Q35.42 6.75 35.41 6.88L35.41 6.88L30.53 6.88Q30.53 7.62 31.14 8.04Q31.74 8.46 32.70 8.46L32.70 8.46Q33.30 8.46 33.83 8.34Q34.37 8.21 34.74 8.08L34.74 8.08L35.01 9.76Q34.50 9.94 33.92 10.06Q33.34 10.18 32.62 10.18L32.62 10.18Q31.66 10.18 30.90 9.93Q30.14 9.68 29.61 9.19Q29.07 8.70 28.78 7.98Q28.50 7.26 28.50 6.30ZM30.53 5.52L33.54 5.52Q33.54 5.22 33.46 4.94Q33.38 4.66 33.20 4.43Q33.02 4.21 32.75 4.07Q32.48 3.94 32.08 3.94L32.08 3.94Q31.70 3.94 31.42 4.06Q31.14 4.19 30.95 4.42Q30.77 4.64 30.66 4.93Q30.56 5.22 30.53 5.52L30.53 5.52ZM41.49 2.40L41.49 2.40Q42.11 2.40 42.51 2.59Q42.91 2.78 43.14 3.17Q43.38 3.55 43.46 4.14Q43.54 4.72 43.54 5.50L43.54 5.50L43.54 10L41.94 10L41.94 5.41Q41.94 4.96 41.88 4.69Q41.82 4.42 41.74 4.27Q41.65 4.13 41.53 4.08Q41.41 4.03 41.28 4.03L41.28 4.03Q41.14 4.03 40.98 4.06Q40.82 4.08 40.69 4.14L40.69 4.14Q40.74 4.45 40.77 4.82Q40.80 5.18 40.80 5.63L40.80 5.63L40.80 7.14L39.20 7.14L39.20 5.41Q39.20 4.64 39.05 4.34Q38.90 4.03 38.56 4.03L38.56 4.03Q38.46 4.03 38.33 4.05Q38.19 4.06 38.06 4.10L38.06 4.10L38.06 10L36.46 10L36.46 2.77Q37.09 2.59 37.70 2.50Q38.30 2.40 38.77 2.40L38.77 2.40Q39.18 2.40 39.51 2.50Q39.84 2.61 40.08 2.85L40.08 2.85Q40.35 2.67 40.72 2.54Q41.09 2.40 41.49 2.40ZM48.21 10L46.22 10L46.22 4.11L44.58 4.11L44.58 2.48L46.22 2.48L46.22 2.05Q46.22 1.14 46.49 0.54Q46.75-0.06 47.20-0.42Q47.65-0.78 48.22-0.94Q48.80-1.09 49.41-1.09L49.41-1.09Q50.03-1.09 50.69-0.98Q51.34-0.86 51.87-0.61L51.87-0.61L51.54 0.99Q51.17 0.86 50.62 0.73Q50.06 0.59 49.57 0.59L49.57 0.59Q49.30 0.59 49.05 0.64Q48.80 0.69 48.62 0.85Q48.43 1.01 48.32 1.30Q48.21 1.60 48.21 2.08L48.21 2.08L48.21 2.48L51.30 2.48L51.30 4.11L48.21 4.11L48.21 10ZM56.54 0.32L56.54 0.32Q56.54 0.90 56.18 1.23Q55.81 1.57 55.30 1.57L55.30 1.57Q54.78 1.57 54.42 1.23Q54.06 0.90 54.06 0.32L54.06 0.32Q54.06-0.27 54.42-0.61Q54.78-0.94 55.30-0.94L55.30-0.94Q55.81-0.94 56.18-0.61Q56.54-0.27 56.54 0.32ZM59.22 8.10L59.47 9.68Q58.86 9.97 58.33 10.07Q57.79 10.18 57.34 10.18L57.34 10.18Q56.58 10.18 56.06 9.95Q55.54 9.73 55.22 9.30Q54.91 8.88 54.78 8.27Q54.66 7.66 54.66 6.88L54.66 6.88L54.66 4.11L52.58 4.11L52.58 2.48L56.62 2.48L56.62 7.14Q56.62 7.81 56.87 8.14Q57.12 8.46 57.70 8.46L57.70 8.46Q57.97 8.46 58.35 8.39Q58.74 8.32 59.22 8.10L59.22 8.10ZM67.22 8.10L67.47 9.68Q67.42 9.71 67.26 9.79Q67.09 9.87 66.82 9.96Q66.54 10.05 66.15 10.11Q65.76 10.18 65.26 10.18L65.26 10.18Q63.90 10.18 63.28 9.37Q62.66 8.56 62.66 7.01L62.66 7.01L62.66 0.62L60.58 0.62L60.58-1.01L64.62-1.01L64.62 7.15Q64.62 7.92 64.93 8.19Q65.23 8.46 65.70 8.46L65.70 8.46Q66.29 8.46 66.69 8.30Q67.09 8.14 67.22 8.10L67.22 8.10ZM68.50 6.30L68.50 6.30Q68.50 5.31 68.80 4.56Q69.10 3.81 69.60 3.30Q70.10 2.80 70.74 2.54Q71.38 2.29 72.05 2.29L72.05 2.29Q73.71 2.29 74.58 3.27Q75.44 4.26 75.44 6.14L75.44 6.14Q75.44 6.34 75.43 6.54Q75.42 6.75 75.41 6.88L75.41 6.88L70.53 6.88Q70.53 7.62 71.14 8.04Q71.74 8.46 72.70 8.46L72.70 8.46Q73.30 8.46 73.83 8.34Q74.37 8.21 74.74 8.08L74.74 8.08L75.01 9.76Q74.50 9.94 73.92 10.06Q73.34 10.18 72.62 10.18L72.62 10.18Q71.66 10.18 70.90 9.93Q70.14 9.68 69.61 9.19Q69.07 8.70 68.78 7.98Q68.50 7.26 68.50 6.30ZM70.53 5.52L73.54 5.52Q73.54 5.22 73.46 4.94Q73.38 4.66 73.20 4.43Q73.02 4.21 72.75 4.07Q72.48 3.94 72.08 3.94L72.08 3.94Q71.70 3.94 71.42 4.06Q71.14 4.19 70.95 4.42Q70.77 4.64 70.66 4.93Q70.56 5.22 70.53 5.52L70.53 5.52ZM81.44 8.74L81.44 8.74Q81.44 9.44 81.01 9.81Q80.58 10.18 80.02 10.18L80.02 10.18Q79.73 10.18 79.47 10.08Q79.22 9.98 79.02 9.80Q78.82 9.62 78.70 9.35Q78.58 9.09 78.58 8.74L78.58 8.74Q78.58 8.40 78.70 8.14Q78.82 7.87 79.02 7.70Q79.22 7.52 79.47 7.42Q79.73 7.33 80.02 7.33L80.02 7.33Q80.58 7.33 81.01 7.70Q81.44 8.06 81.44 8.74ZM91.22 8.10L91.47 9.68Q91.42 9.71 91.26 9.79Q91.09 9.87 90.82 9.96Q90.54 10.05 90.15 10.11Q89.76 10.18 89.26 10.18L89.26 10.18Q87.90 10.18 87.28 9.37Q86.66 8.56 86.66 7.01L86.66 7.01L86.66 0.62L84.58 0.62L84.58-1.01L88.62-1.01L88.62 7.15Q88.62 7.92 88.93 8.19Q89.23 8.46 89.70 8.46L89.70 8.46Q90.29 8.46 90.69 8.30Q91.09 8.14 91.22 8.10L91.22 8.10ZM99.55 6.22L99.55 6.22Q99.55 7.12 99.30 7.85Q99.04 8.58 98.58 9.10Q98.11 9.63 97.46 9.92Q96.82 10.21 96.02 10.21L96.02 10.21Q95.22 10.21 94.57 9.92Q93.92 9.63 93.45 9.10Q92.98 8.58 92.72 7.85Q92.46 7.12 92.46 6.22L92.46 6.22Q92.46 5.34 92.73 4.62Q92.99 3.89 93.46 3.37Q93.94 2.85 94.59 2.57Q95.25 2.29 96.02 2.29L96.02 2.29Q96.80 2.29 97.45 2.57Q98.10 2.85 98.57 3.37Q99.04 3.89 99.30 4.62Q99.55 5.34 99.55 6.22ZM94.46 6.24L94.46 6.24Q94.46 7.25 94.82 7.87Q95.18 8.50 95.98 8.50L95.98 8.50Q96.75 8.50 97.14 7.87Q97.54 7.25 97.54 6.24L97.54 6.24Q97.54 5.23 97.18 4.62Q96.82 4 96.02 4L96.02 4Q95.25 4 94.86 4.62Q94.46 5.23 94.46 6.24ZM100.70 6.24L100.70 6.24Q100.70 5.42 100.96 4.70Q101.22 3.98 101.74 3.45Q102.27 2.91 103.08 2.60Q103.89 2.29 105.01 2.29L105.01 2.29Q105.68 2.29 106.22 2.38Q106.77 2.48 107.33 2.70L107.33 2.70L106.90 4.29Q106.58 4.18 106.18 4.09Q105.79 4 105.18 4L105.18 4Q104.48 4 104.01 4.17Q103.54 4.34 103.25 4.63Q102.96 4.93 102.83 5.34Q102.70 5.76 102.70 6.24L102.70 6.24Q102.70 7.28 103.29 7.87Q103.87 8.46 105.28 8.46L105.28 8.46Q105.74 8.46 106.25 8.40Q106.75 8.34 107.17 8.19L107.17 8.19L107.46 9.81Q107.04 9.97 106.45 10.07Q105.86 10.18 105.06 10.18L105.06 10.18Q103.90 10.18 103.08 9.87Q102.26 9.57 101.73 9.04Q101.20 8.51 100.95 7.79Q100.70 7.07 100.70 6.24ZM110.99-1.10L110.99 5.46Q111.28 5.12 111.58 4.74Q111.87 4.37 112.15 3.97Q112.43 3.57 112.69 3.19Q112.94 2.82 113.14 2.48L113.14 2.48L115.50 2.48Q115.22 2.85 114.85 3.28Q114.48 3.71 114.09 4.16Q113.70 4.61 113.30 5.02Q112.91 5.44 112.59 5.79L112.59 5.79Q112.99 6.18 113.46 6.71Q113.92 7.25 114.37 7.82Q114.82 8.40 115.19 8.98Q115.57 9.55 115.79 10L115.79 10L113.54 10Q113.34 9.60 113.03 9.10Q112.72 8.59 112.37 8.10Q112.02 7.62 111.66 7.18Q111.30 6.74 110.99 6.45L110.99 6.45L110.99 10L109.01 10L109.01-0.77L110.99-1.10Z"/>
    </g>
</svg>