<?xml version="1.0" encoding="UTF-8"?>
<svg height="34" width="187.2" version="1.1" xmlns="http://www.w3.org/2000/svg"><!--Created by Josélio de S. C. Júnior - 2021 - https://github.com/joseliojunior -->
    <rect
        height="32"
        width="185.2"
        rx="16"
        ry="16"
        x="1" y="1"
        fill="#701516"
        stroke="#db4345"
        stroke-width="1" />
    <g transform="translate(0, 12)">
        <path fill="#db4345" stroke="none" d="M27.49-0.62L27.49-0.62Q26.43-0.62 25.71-0.24Q24.99 0.14 24.52 0.83Q24.06 1.51 23.85 2.46Q23.65 3.41 23.65 4.56L23.65 4.56Q23.65 7.22 24.49 8.48Q25.33 9.74 26.96 9.74L26.96 9.74Q27.22 9.74 27.54 9.72Q27.85 9.70 28.11 9.65L28.11 9.65L28.11 4.22L31.06 4.22L31.06 11.64Q30.54 11.83 29.42 12.07Q28.30 12.31 26.72 12.31L26.72 12.31Q25.33 12.31 24.21 11.82Q23.10 11.33 22.30 10.36Q21.51 9.38 21.08 7.93Q20.65 6.48 20.65 4.56L20.65 4.56Q20.65 2.66 21.15 1.21Q21.66-0.24 22.52-1.22Q23.38-2.21 24.56-2.70Q25.74-3.19 27.08-3.19L27.08-3.19Q27.94-3.19 28.63-3.06Q29.31-2.93 29.82-2.76Q30.32-2.59 30.64-2.40Q30.97-2.21 31.14-2.11L31.14-2.11L30.37 0.24Q29.84-0.10 29.07-0.36Q28.30-0.62 27.49-0.62ZM32.74 6.46L32.74 6.46Q32.74 4.97 33.20 3.84Q33.66 2.71 34.40 1.96Q35.14 1.20 36.10 0.82Q37.06 0.43 38.07 0.43L38.07 0.43Q40.57 0.43 41.86 1.91Q43.16 3.38 43.16 6.22L43.16 6.22Q43.16 6.50 43.15 6.82Q43.14 7.13 43.11 7.32L43.11 7.32L35.79 7.32Q35.79 8.42 36.70 9.06Q37.62 9.70 39.06 9.70L39.06 9.70Q39.94 9.70 40.75 9.50Q41.55 9.31 42.10 9.12L42.10 9.12L42.51 11.64Q41.74 11.90 40.88 12.08Q40.02 12.26 38.94 12.26L38.94 12.26Q37.50 12.26 36.36 11.89Q35.22 11.52 34.41 10.79Q33.61 10.06 33.18 8.98Q32.74 7.90 32.74 6.46ZM35.79 5.28L40.30 5.28Q40.30 4.82 40.18 4.40Q40.06 3.98 39.80 3.65Q39.54 3.31 39.13 3.11Q38.72 2.90 38.12 2.90L38.12 2.90Q37.54 2.90 37.12 3.10Q36.70 3.29 36.43 3.62Q36.15 3.96 36.00 4.39Q35.84 4.82 35.79 5.28L35.79 5.28ZM52.23 0.60L52.23 0.60Q53.17 0.60 53.77 0.89Q54.37 1.18 54.72 1.75Q55.06 2.33 55.18 3.20Q55.30 4.08 55.30 5.26L55.30 5.26L55.30 12L52.90 12L52.90 5.11Q52.90 4.44 52.82 4.03Q52.74 3.62 52.60 3.41Q52.47 3.19 52.29 3.12Q52.11 3.05 51.92 3.05L51.92 3.05Q51.70 3.05 51.46 3.08Q51.22 3.12 51.03 3.22L51.03 3.22Q51.10 3.67 51.15 4.22Q51.20 4.78 51.20 5.45L51.20 5.45L51.20 7.70L48.80 7.70L48.80 5.11Q48.80 3.96 48.57 3.50Q48.34 3.05 47.84 3.05L47.84 3.05Q47.70 3.05 47.49 3.07Q47.29 3.10 47.10 3.14L47.10 3.14L47.10 12L44.70 12L44.70 1.15Q45.63 0.89 46.54 0.74Q47.46 0.60 48.15 0.60L48.15 0.60Q48.78 0.60 49.27 0.76Q49.76 0.91 50.12 1.27L50.12 1.27Q50.53 1.01 51.08 0.80Q51.63 0.60 52.23 0.60ZM62.31 12L59.34 12L59.34 3.17L56.86 3.17L56.86 0.72L59.34 0.72L59.34 0.07Q59.34-1.30 59.73-2.20Q60.13-3.10 60.80-3.64Q61.47-4.18 62.34-4.40Q63.20-4.63 64.11-4.63L64.11-4.63Q65.05-4.63 66.03-4.46Q67.02-4.30 67.81-3.91L67.81-3.91L67.30-1.51Q66.75-1.70 65.92-1.91Q65.10-2.11 64.35-2.11L64.35-2.11Q63.94-2.11 63.57-2.04Q63.20-1.97 62.92-1.73Q62.65-1.49 62.48-1.04Q62.31-0.60 62.31 0.12L62.31 0.12L62.31 0.72L66.94 0.72L66.94 3.17L62.31 3.17L62.31 12ZM74.82-2.52L74.82-2.52Q74.82-1.66 74.26-1.15Q73.71-0.65 72.94-0.65L72.94-0.65Q72.18-0.65 71.64-1.15Q71.10-1.66 71.10-2.52L71.10-2.52Q71.10-3.41 71.64-3.91Q72.18-4.42 72.94-4.42L72.94-4.42Q73.71-4.42 74.26-3.91Q74.82-3.41 74.82-2.52ZM78.82 9.14L79.21 11.52Q78.30 11.95 77.49 12.11Q76.69 12.26 76.02 12.26L76.02 12.26Q74.86 12.26 74.08 11.93Q73.30 11.59 72.84 10.96Q72.37 10.32 72.18 9.41Q71.98 8.50 71.98 7.32L71.98 7.32L71.98 3.17L68.86 3.17L68.86 0.72L74.94 0.72L74.94 7.70Q74.94 8.71 75.31 9.20Q75.68 9.70 76.54 9.70L76.54 9.70Q76.95 9.70 77.53 9.59Q78.10 9.48 78.82 9.14L78.82 9.14ZM90.82 9.14L91.21 11.52Q91.14 11.57 90.88 11.69Q90.63 11.81 90.22 11.94Q89.82 12.07 89.23 12.17Q88.64 12.26 87.90 12.26L87.90 12.26Q85.86 12.26 84.92 11.05Q83.98 9.84 83.98 7.51L83.98 7.51L83.98-2.06L80.86-2.06L80.86-4.51L86.94-4.51L86.94 7.73Q86.94 8.88 87.39 9.29Q87.85 9.70 88.54 9.70L88.54 9.70Q89.43 9.70 90.03 9.46Q90.63 9.22 90.82 9.14L90.82 9.14ZM92.74 6.46L92.74 6.46Q92.74 4.97 93.20 3.84Q93.66 2.71 94.40 1.96Q95.14 1.20 96.10 0.82Q97.06 0.43 98.07 0.43L98.07 0.43Q100.57 0.43 101.86 1.91Q103.16 3.38 103.16 6.22L103.16 6.22Q103.16 6.50 103.15 6.82Q103.14 7.13 103.11 7.32L103.11 7.32L95.79 7.32Q95.79 8.42 96.70 9.06Q97.62 9.70 99.06 9.70L99.06 9.70Q99.94 9.70 100.75 9.50Q101.55 9.31 102.10 9.12L102.10 9.12L102.51 11.64Q101.74 11.90 100.88 12.08Q100.02 12.26 98.94 12.26L98.94 12.26Q97.50 12.26 96.36 11.89Q95.22 11.52 94.41 10.79Q93.61 10.06 93.18 8.98Q92.74 7.90 92.74 6.46ZM95.79 5.28L100.30 5.28Q100.30 4.82 100.18 4.40Q100.06 3.98 99.80 3.65Q99.54 3.31 99.13 3.11Q98.72 2.90 98.12 2.90L98.12 2.90Q97.54 2.90 97.12 3.10Q96.70 3.29 96.43 3.62Q96.15 3.96 96.00 4.39Q95.84 4.82 95.79 5.28L95.79 5.28ZM112.16 10.10L112.16 10.10Q112.16 11.16 111.51 11.71Q110.86 12.26 110.02 12.26L110.02 12.26Q109.59 12.26 109.21 12.12Q108.82 11.98 108.52 11.70Q108.22 11.42 108.04 11.03Q107.86 10.63 107.86 10.10L107.86 10.10Q107.86 9.60 108.04 9.20Q108.22 8.81 108.52 8.54Q108.82 8.28 109.21 8.14Q109.59 7.99 110.02 7.99L110.02 7.99Q110.86 7.99 111.51 8.54Q112.16 9.10 112.16 10.10ZM126.82 9.14L127.21 11.52Q127.14 11.57 126.88 11.69Q126.63 11.81 126.22 11.94Q125.82 12.07 125.23 12.17Q124.64 12.26 123.90 12.26L123.90 12.26Q121.86 12.26 120.92 11.05Q119.98 9.84 119.98 7.51L119.98 7.51L119.98-2.06L116.86-2.06L116.86-4.51L122.94-4.51L122.94 7.73Q122.94 8.88 123.39 9.29Q123.85 9.70 124.54 9.70L124.54 9.70Q125.43 9.70 126.03 9.46Q126.63 9.22 126.82 9.14L126.82 9.14ZM139.33 6.34L139.33 6.34Q139.33 7.68 138.94 8.77Q138.56 9.86 137.86 10.66Q137.17 11.45 136.20 11.88Q135.22 12.31 134.02 12.31L134.02 12.31Q132.82 12.31 131.85 11.88Q130.88 11.45 130.17 10.66Q129.46 9.86 129.08 8.77Q128.70 7.68 128.70 6.34L128.70 6.34Q128.70 5.02 129.09 3.92Q129.49 2.83 130.20 2.05Q130.90 1.27 131.89 0.85Q132.87 0.43 134.02 0.43L134.02 0.43Q135.20 0.43 136.17 0.85Q137.14 1.27 137.85 2.05Q138.56 2.83 138.94 3.92Q139.33 5.02 139.33 6.34ZM131.70 6.36L131.70 6.36Q131.70 7.87 132.24 8.81Q132.78 9.74 133.98 9.74L133.98 9.74Q135.13 9.74 135.72 8.81Q136.30 7.87 136.30 6.36L136.30 6.36Q136.30 4.85 135.76 3.92Q135.22 3 134.02 3L134.02 3Q132.87 3 132.28 3.92Q131.70 4.85 131.70 6.36ZM141.06 6.36L141.06 6.36Q141.06 5.14 141.44 4.06Q141.82 2.98 142.62 2.17Q143.41 1.37 144.62 0.90Q145.83 0.43 147.51 0.43L147.51 0.43Q148.52 0.43 149.34 0.58Q150.15 0.72 150.99 1.06L150.99 1.06L150.34 3.43Q149.86 3.26 149.28 3.13Q148.69 3 147.78 3L147.78 3Q146.72 3 146.01 3.25Q145.30 3.50 144.87 3.95Q144.44 4.39 144.25 5.02Q144.06 5.64 144.06 6.36L144.06 6.36Q144.06 7.92 144.93 8.81Q145.81 9.70 147.92 9.70L147.92 9.70Q148.62 9.70 149.37 9.60Q150.13 9.50 150.75 9.29L150.75 9.29L151.18 11.71Q150.56 11.95 149.67 12.11Q148.78 12.26 147.58 12.26L147.58 12.26Q145.86 12.26 144.62 11.81Q143.38 11.35 142.59 10.56Q141.80 9.77 141.43 8.69Q141.06 7.61 141.06 6.36ZM156.49-4.66L156.49 5.18Q156.92 4.68 157.36 4.12Q157.81 3.55 158.23 2.95Q158.65 2.35 159.03 1.79Q159.42 1.22 159.70 0.72L159.70 0.72L163.26 0.72Q162.82 1.27 162.27 1.92Q161.72 2.57 161.13 3.24Q160.54 3.91 159.96 4.54Q159.37 5.16 158.89 5.69L158.89 5.69Q159.49 6.26 160.18 7.07Q160.88 7.87 161.55 8.74Q162.22 9.60 162.79 10.46Q163.35 11.33 163.69 12L163.69 12L160.30 12Q160.02 11.40 159.55 10.64Q159.08 9.89 158.55 9.16Q158.02 8.42 157.48 7.76Q156.94 7.10 156.49 6.67L156.49 6.67L156.49 12L153.51 12L153.51-4.15L156.49-4.66Z"/>
    </g>
</svg>