<?xml version="1.0" encoding="UTF-8"?>
<svg height="34" width="191.2" version="1.1" xmlns="http://www.w3.org/2000/svg">
    <rect
        height="32"
        width="189.2"
        rx="1"
        ry="1"
        x="1"
        y="1"
        fill="#701516"
        stroke="#db4345"
        stroke-width="1"
         />
    <g transform="translate(0, 14)">
        <path fill="#db4345" d="M18.74-3.73L18.74-3.73Q17.50-3.73 16.66-3.28Q15.82-2.83 15.28-2.03Q14.73-1.24 14.49-0.13Q14.26 0.98 14.26 2.32L14.26 2.32Q14.26 5.43 15.24 6.90Q16.22 8.37 18.12 8.37L18.12 8.37Q18.43 8.37 18.79 8.34Q19.16 8.31 19.46 8.26L19.46 8.26L19.46 1.93L22.91 1.93L22.91 10.58Q22.29 10.80 20.99 11.08Q19.69 11.36 17.84 11.36L17.84 11.36Q16.22 11.36 14.91 10.79Q13.61 10.22 12.69 9.08Q11.76 7.95 11.26 6.25Q10.76 4.56 10.76 2.32L10.76 2.32Q10.76 0.11 11.34-1.59Q11.93-3.28 12.94-4.43Q13.95-5.58 15.32-6.15Q16.69-6.72 18.26-6.72L18.26-6.72Q19.27-6.72 20.07-6.57Q20.86-6.42 21.45-6.22Q22.04-6.02 22.42-5.80Q22.80-5.58 22.99-5.46L22.99-5.46L22.10-2.72Q21.48-3.11 20.58-3.42Q19.69-3.73 18.74-3.73ZM24.87 4.53L24.87 4.53Q24.87 2.80 25.40 1.48Q25.93 0.16 26.80-0.72Q27.67-1.60 28.79-2.05Q29.91-2.50 31.08-2.50L31.08-2.50Q34.00-2.50 35.51-0.77Q37.02 0.95 37.02 4.25L37.02 4.25Q37.02 4.59 37.01 4.95Q36.99 5.32 36.96 5.54L36.96 5.54L28.42 5.54Q28.42 6.83 29.49 7.57Q30.55 8.31 32.23 8.31L32.23 8.31Q33.27 8.31 34.21 8.09Q35.14 7.86 35.79 7.64L35.79 7.64L36.26 10.58Q35.37 10.89 34.36 11.10Q33.35 11.31 32.09 11.31L32.09 11.31Q30.41 11.31 29.08 10.87Q27.75 10.44 26.81 9.59Q25.88 8.73 25.37 7.47Q24.87 6.21 24.87 4.53ZM28.42 3.16L33.69 3.16Q33.69 2.63 33.55 2.14Q33.41 1.65 33.10 1.26Q32.79 0.86 32.32 0.63Q31.84 0.39 31.14 0.39L31.14 0.39Q30.47 0.39 29.98 0.61Q29.49 0.84 29.17 1.23Q28.84 1.62 28.66 2.12Q28.48 2.63 28.42 3.16L28.42 3.16ZM47.60-2.30L47.60-2.30Q48.70-2.30 49.40-1.96Q50.10-1.63 50.50-0.96Q50.91-0.28 51.05 0.74Q51.19 1.76 51.19 3.13L51.19 3.13L51.19 11L48.39 11L48.39 2.96Q48.39 2.18 48.29 1.70Q48.19 1.23 48.04 0.98Q47.88 0.72 47.67 0.64Q47.46 0.56 47.24 0.56L47.24 0.56Q46.99 0.56 46.71 0.60Q46.43 0.64 46.20 0.75L46.20 0.75Q46.29 1.28 46.34 1.93Q46.40 2.57 46.40 3.36L46.40 3.36L46.40 5.99L43.60 5.99L43.60 2.96Q43.60 1.62 43.33 1.09Q43.07 0.56 42.48 0.56L42.48 0.56Q42.31 0.56 42.07 0.58Q41.84 0.61 41.61 0.67L41.61 0.67L41.61 11L38.81 11L38.81-1.66Q39.90-1.96 40.97-2.13Q42.03-2.30 42.84-2.30L42.84-2.30Q43.57-2.30 44.15-2.12Q44.72-1.94 45.14-1.52L45.14-1.52Q45.62-1.82 46.26-2.06Q46.90-2.30 47.60-2.30ZM59.36 11L55.89 11L55.89 0.70L53.01 0.70L53.01-2.16L55.89-2.16L55.89-2.92Q55.89-4.51 56.35-5.56Q56.82-6.61 57.60-7.24Q58.38-7.87 59.39-8.14Q60.40-8.40 61.46-8.40L61.46-8.40Q62.56-8.40 63.70-8.21Q64.85-8.01 65.78-7.56L65.78-7.56L65.19-4.76Q64.54-4.99 63.58-5.23Q62.61-5.46 61.74-5.46L61.74-5.46Q61.27-5.46 60.83-5.38Q60.40-5.30 60.08-5.02Q59.76-4.74 59.56-4.22Q59.36-3.70 59.36-2.86L59.36-2.86L59.36-2.16L64.77-2.16L64.77 0.70L59.36 0.70L59.36 11ZM73.95-5.94L73.95-5.94Q73.95-4.93 73.31-4.34Q72.66-3.76 71.77-3.76L71.77-3.76Q70.87-3.76 70.24-4.34Q69.61-4.93 69.61-5.94L69.61-5.94Q69.61-6.98 70.24-7.56Q70.87-8.15 71.77-8.15L71.77-8.15Q72.66-8.15 73.31-7.56Q73.95-6.98 73.95-5.94ZM78.63 7.67L79.08 10.44Q78.01 10.94 77.07 11.13Q76.14 11.31 75.35 11.31L75.35 11.31Q74.01 11.31 73.10 10.92Q72.19 10.52 71.64 9.78Q71.10 9.04 70.87 7.98Q70.65 6.91 70.65 5.54L70.65 5.54L70.65 0.70L67.01 0.70L67.01-2.16L74.09-2.16L74.09 5.99Q74.09 7.16 74.53 7.74Q74.96 8.31 75.97 8.31L75.97 8.31Q76.44 8.31 77.12 8.19Q77.79 8.06 78.63 7.67L78.63 7.67ZM92.63 7.67L93.08 10.44Q92.99 10.50 92.70 10.64Q92.40 10.78 91.93 10.93Q91.45 11.08 90.77 11.20Q90.08 11.31 89.21 11.31L89.21 11.31Q86.83 11.31 85.74 9.89Q84.65 8.48 84.65 5.76L84.65 5.76L84.65-5.41L81.01-5.41L81.01-8.26L88.09-8.26L88.09 6.02Q88.09 7.36 88.62 7.84Q89.16 8.31 89.97 8.31L89.97 8.31Q91.00 8.31 91.70 8.03Q92.40 7.75 92.63 7.67L92.63 7.67ZM94.87 4.53L94.87 4.53Q94.87 2.80 95.40 1.48Q95.93 0.16 96.80-0.72Q97.67-1.60 98.79-2.05Q99.91-2.50 101.08-2.50L101.08-2.50Q104.00-2.50 105.51-0.77Q107.02 0.95 107.02 4.25L107.02 4.25Q107.02 4.59 107.01 4.95Q106.99 5.32 106.96 5.54L106.96 5.54L98.42 5.54Q98.42 6.83 99.49 7.57Q100.55 8.31 102.23 8.31L102.23 8.31Q103.27 8.31 104.21 8.09Q105.14 7.86 105.79 7.64L105.79 7.64L106.26 10.58Q105.37 10.89 104.36 11.10Q103.35 11.31 102.09 11.31L102.09 11.31Q100.41 11.31 99.08 10.87Q97.75 10.44 96.81 9.59Q95.88 8.73 95.37 7.47Q94.87 6.21 94.87 4.53ZM98.42 3.16L103.69 3.16Q103.69 2.63 103.55 2.14Q103.41 1.65 103.10 1.26Q102.79 0.86 102.32 0.63Q101.84 0.39 101.14 0.39L101.14 0.39Q100.47 0.39 99.98 0.61Q99.49 0.84 99.17 1.23Q98.84 1.62 98.66 2.12Q98.48 2.63 98.42 3.16L98.42 3.16ZM117.52 8.79L117.52 8.79Q117.52 10.02 116.76 10.66Q116.01 11.31 115.03 11.31L115.03 11.31Q114.52 11.31 114.08 11.14Q113.63 10.97 113.28 10.65Q112.93 10.33 112.72 9.87Q112.51 9.40 112.51 8.79L112.51 8.79Q112.51 8.20 112.72 7.74Q112.93 7.28 113.28 6.97Q113.63 6.66 114.08 6.49Q114.52 6.32 115.03 6.32L115.03 6.32Q116.01 6.32 116.76 6.97Q117.52 7.61 117.52 8.79ZM134.63 7.67L135.08 10.44Q134.99 10.50 134.70 10.64Q134.40 10.78 133.93 10.93Q133.45 11.08 132.77 11.20Q132.08 11.31 131.21 11.31L131.21 11.31Q128.83 11.31 127.74 9.89Q126.65 8.48 126.65 5.76L126.65 5.76L126.65-5.41L123.01-5.41L123.01-8.26L130.09-8.26L130.09 6.02Q130.09 7.36 130.62 7.84Q131.16 8.31 131.97 8.31L131.97 8.31Q133.00 8.31 133.70 8.03Q134.40 7.75 134.63 7.67L134.63 7.67ZM149.22 4.39L149.22 4.39Q149.22 5.96 148.77 7.23Q148.32 8.51 147.51 9.43Q146.70 10.36 145.56 10.86Q144.43 11.36 143.03 11.36L143.03 11.36Q141.63 11.36 140.49 10.86Q139.36 10.36 138.53 9.43Q137.71 8.51 137.26 7.23Q136.81 5.96 136.81 4.39L136.81 4.39Q136.81 2.85 137.27 1.58Q137.74 0.30 138.56-0.61Q139.39-1.52 140.54-2.01Q141.68-2.50 143.03-2.50L143.03-2.50Q144.40-2.50 145.53-2.01Q146.67-1.52 147.49-0.61Q148.32 0.30 148.77 1.58Q149.22 2.85 149.22 4.39ZM140.31 4.42L140.31 4.42Q140.31 6.18 140.94 7.28Q141.57 8.37 142.97 8.37L142.97 8.37Q144.32 8.37 145.00 7.28Q145.69 6.18 145.69 4.42L145.69 4.42Q145.69 2.66 145.06 1.58Q144.43 0.50 143.03 0.50L143.03 0.50Q141.68 0.50 141.00 1.58Q140.31 2.66 140.31 4.42ZM151.23 4.42L151.23 4.42Q151.23 2.99 151.68 1.73Q152.13 0.47 153.05-0.47Q153.98-1.40 155.39-1.95Q156.80-2.50 158.76-2.50L158.76-2.50Q159.94-2.50 160.89-2.33Q161.84-2.16 162.82-1.77L162.82-1.77L162.07 1.00Q161.51 0.81 160.82 0.65Q160.14 0.50 159.07 0.50L159.07 0.50Q157.84 0.50 157.01 0.79Q156.19 1.09 155.68 1.61Q155.18 2.12 154.96 2.85Q154.73 3.58 154.73 4.42L154.73 4.42Q154.73 6.24 155.75 7.28Q156.78 8.31 159.24 8.31L159.24 8.31Q160.05 8.31 160.93 8.20Q161.82 8.09 162.54 7.84L162.54 7.84L163.05 10.66Q162.32 10.94 161.28 11.13Q160.25 11.31 158.85 11.31L158.85 11.31Q156.83 11.31 155.39 10.78Q153.95 10.24 153.02 9.32Q152.10 8.40 151.67 7.14Q151.23 5.88 151.23 4.42ZM169.24-8.43L169.24 3.05Q169.74 2.46 170.26 1.80Q170.78 1.14 171.27 0.44Q171.76-0.26 172.20-0.91Q172.65-1.57 172.99-2.16L172.99-2.16L177.13-2.16Q176.63-1.52 175.98-0.76Q175.34-0.00 174.65 0.78Q173.97 1.56 173.28 2.29Q172.60 3.02 172.04 3.64L172.04 3.64Q172.74 4.31 173.55 5.25Q174.36 6.18 175.14 7.19Q175.93 8.20 176.59 9.21Q177.24 10.22 177.64 11L177.64 11L173.69 11Q173.35 10.30 172.81 9.42Q172.26 8.54 171.64 7.68Q171.03 6.83 170.40 6.06Q169.77 5.29 169.24 4.78L169.24 4.78L169.24 11L165.76 11L165.76-7.84L169.24-8.43Z"/>
    </g>
</svg>