<?xml version="1.0" encoding="UTF-8"?>
<svg height="34" width="148.89999999999998" version="1.1" xmlns="http://www.w3.org/2000/svg">
    <rect
        height="32"
        width="146.89999999999998"
        rx="14"
        ry="14"
        x="1"
        y="1"
        fill="#d8ffff"
        stroke="#00a3a3"
        stroke-width="1"
         />
    <g transform="translate(0, 14)">
        <path fill="#00a3a3" d="M11.65-6.33L14.51-6.33Q14.70-5.74 15.00-4.82Q15.29-3.90 15.63-2.83Q15.96-1.77 16.30-0.68Q16.64 0.42 16.94 1.34L16.94 1.34Q17.28 0.30 17.64-0.80Q18.01-1.91 18.34-2.93Q18.68-3.95 18.96-4.85Q19.24-5.74 19.46-6.33L19.46-6.33L22.32-6.33Q22.52-4.06 22.70-1.91Q22.88 0.25 23.01 2.36Q23.13 4.48 23.22 6.62Q23.30 8.76 23.36 11L23.36 11L20.19 11L20.36-2.47L18.23 4.87L15.71 4.87L13.67-2.47L13.81 11L10.64 11Q10.73 8.87 10.83 6.58Q10.92 4.28 11.04 2.01Q11.15-0.26 11.30-2.38Q11.46-4.51 11.65-6.33L11.65-6.33ZM31.03 8.54L31.03 8.54Q31.59 8.54 32.12 8.52Q32.65 8.51 33.04 8.45L33.04 8.45L33.04 5.43Q32.71 5.37 32.23 5.33Q31.76 5.29 31.36 5.29L31.36 5.29Q30.83 5.29 30.33 5.36Q29.82 5.43 29.45 5.60Q29.07 5.76 28.84 6.07Q28.62 6.38 28.62 6.88L28.62 6.88Q28.62 7.78 29.29 8.16Q29.96 8.54 31.03 8.54ZM30.72-2.50L30.72-2.50Q32.34-2.50 33.42-2.12Q34.50-1.74 35.14-1.05Q35.79-0.37 36.07 0.63Q36.35 1.62 36.35 2.85L36.35 2.85L36.35 10.69Q35.59 10.86 34.11 11.08Q32.62 11.31 30.78 11.31L30.78 11.31Q29.52 11.31 28.49 11.08Q27.47 10.86 26.74 10.34Q26.02 9.82 25.62 9.00Q25.23 8.17 25.23 6.97L25.23 6.97Q25.23 5.82 25.68 5.04Q26.13 4.25 26.88 3.78Q27.64 3.30 28.62 3.09Q29.60 2.88 30.66 2.88L30.66 2.88Q32.01 2.88 33.04 3.10L33.04 3.10L33.04 2.68Q33.04 1.70 32.43 1.05Q31.81 0.39 30.30 0.39L30.30 0.39Q29.32 0.39 28.41 0.53Q27.50 0.67 26.94 0.86L26.94 0.86L26.46-1.91Q27.11-2.13 28.28-2.31Q29.46-2.50 30.72-2.50ZM39.23 4.42L39.23 4.42Q39.23 2.99 39.68 1.73Q40.13 0.47 41.05-0.47Q41.98-1.40 43.39-1.95Q44.80-2.50 46.76-2.50L46.76-2.50Q47.94-2.50 48.89-2.33Q49.84-2.16 50.82-1.77L50.82-1.77L50.07 1.00Q49.51 0.81 48.82 0.65Q48.14 0.50 47.07 0.50L47.07 0.50Q45.84 0.50 45.01 0.79Q44.19 1.09 43.68 1.61Q43.18 2.12 42.96 2.85Q42.73 3.58 42.73 4.42L42.73 4.42Q42.73 6.24 43.75 7.28Q44.78 8.31 47.24 8.31L47.24 8.31Q48.05 8.31 48.93 8.20Q49.82 8.09 50.54 7.84L50.54 7.84L51.05 10.66Q50.32 10.94 49.28 11.13Q48.25 11.31 46.85 11.31L46.85 11.31Q44.83 11.31 43.39 10.78Q41.95 10.24 41.02 9.32Q40.10 8.40 39.67 7.14Q39.23 5.88 39.23 4.42ZM59.03 8.54L59.03 8.54Q59.59 8.54 60.12 8.52Q60.65 8.51 61.04 8.45L61.04 8.45L61.04 5.43Q60.71 5.37 60.23 5.33Q59.76 5.29 59.36 5.29L59.36 5.29Q58.83 5.29 58.33 5.36Q57.82 5.43 57.45 5.60Q57.07 5.76 56.84 6.07Q56.62 6.38 56.62 6.88L56.62 6.88Q56.62 7.78 57.29 8.16Q57.96 8.54 59.03 8.54ZM58.72-2.50L58.72-2.50Q60.34-2.50 61.42-2.12Q62.50-1.74 63.14-1.05Q63.79-0.37 64.07 0.63Q64.35 1.62 64.35 2.85L64.35 2.85L64.35 10.69Q63.59 10.86 62.11 11.08Q60.62 11.31 58.78 11.31L58.78 11.31Q57.52 11.31 56.49 11.08Q55.47 10.86 54.74 10.34Q54.02 9.82 53.62 9.00Q53.23 8.17 53.23 6.97L53.23 6.97Q53.23 5.82 53.68 5.04Q54.13 4.25 54.88 3.78Q55.64 3.30 56.62 3.09Q57.60 2.88 58.66 2.88L58.66 2.88Q60.01 2.88 61.04 3.10L61.04 3.10L61.04 2.68Q61.04 1.70 60.43 1.05Q59.81 0.39 58.30 0.39L58.30 0.39Q57.32 0.39 56.41 0.53Q55.50 0.67 54.94 0.86L54.94 0.86L54.46-1.91Q55.11-2.13 56.28-2.31Q57.46-2.50 58.72-2.50ZM78.26-2.16L78.26 10.55Q77.31 10.80 75.95 11.06Q74.60 11.31 73 11.31L73 11.31Q71.38 11.31 70.34 10.86Q69.30 10.41 68.70 9.59Q68.10 8.76 67.88 7.64Q67.65 6.52 67.65 5.18L67.65 5.18L67.65-2.16L71.10-2.16L71.10 4.73Q71.10 6.55 71.53 7.43Q71.96 8.31 73.22 8.31L73.22 8.31Q74.01 8.31 74.79 8.17L74.79 8.17L74.79-2.16L78.26-2.16ZM92.63 7.67L93.08 10.44Q92.99 10.50 92.70 10.64Q92.40 10.78 91.93 10.93Q91.45 11.08 90.77 11.20Q90.08 11.31 89.21 11.31L89.21 11.31Q86.83 11.31 85.74 9.89Q84.65 8.48 84.65 5.76L84.65 5.76L84.65-5.41L81.01-5.41L81.01-8.26L88.09-8.26L88.09 6.02Q88.09 7.36 88.62 7.84Q89.16 8.31 89.97 8.31L89.97 8.31Q91.00 8.31 91.70 8.03Q92.40 7.75 92.63 7.67L92.63 7.67ZM101.03 8.54L101.03 8.54Q101.59 8.54 102.12 8.52Q102.65 8.51 103.04 8.45L103.04 8.45L103.04 5.43Q102.71 5.37 102.23 5.33Q101.76 5.29 101.36 5.29L101.36 5.29Q100.83 5.29 100.33 5.36Q99.82 5.43 99.45 5.60Q99.07 5.76 98.84 6.07Q98.62 6.38 98.62 6.88L98.62 6.88Q98.62 7.78 99.29 8.16Q99.96 8.54 101.03 8.54ZM100.72-2.50L100.72-2.50Q102.34-2.50 103.42-2.12Q104.50-1.74 105.14-1.05Q105.79-0.37 106.07 0.63Q106.35 1.62 106.35 2.85L106.35 2.85L106.35 10.69Q105.59 10.86 104.11 11.08Q102.62 11.31 100.78 11.31L100.78 11.31Q99.52 11.31 98.49 11.08Q97.47 10.86 96.74 10.34Q96.02 9.82 95.62 9.00Q95.23 8.17 95.23 6.97L95.23 6.97Q95.23 5.82 95.68 5.04Q96.13 4.25 96.88 3.78Q97.64 3.30 98.62 3.09Q99.60 2.88 100.66 2.88L100.66 2.88Q102.01 2.88 103.04 3.10L103.04 3.10L103.04 2.68Q103.04 1.70 102.43 1.05Q101.81 0.39 100.30 0.39L100.30 0.39Q99.32 0.39 98.41 0.53Q97.50 0.67 96.94 0.86L96.94 0.86L96.46-1.91Q97.11-2.13 98.28-2.31Q99.46-2.50 100.72-2.50ZM117.69-2.16L121.22-2.16Q120.68-0.31 120.19 1.47Q119.70 3.24 119.17 4.94Q118.64 6.63 118.04 8.26Q117.44 9.88 116.74 11.42L116.74 11.42Q116.20 12.54 115.69 13.35Q115.17 14.16 114.54 14.68Q113.91 15.20 113.14 15.45Q112.37 15.70 111.33 15.70L111.33 15.70Q110.46 15.70 109.75 15.56Q109.04 15.42 108.56 15.20L108.56 15.20L109.20 12.32Q109.76 12.57 110.20 12.67Q110.63 12.76 111.14 12.76L111.14 12.76Q112.14 12.76 112.76 12.09Q113.38 11.42 113.74 10.50L113.74 10.50Q112.51 8.03 111.28 4.85Q110.04 1.68 109.04-2.16L109.04-2.16L112.62-2.16Q112.87-1.12 113.19 0.05Q113.52 1.23 113.88 2.40Q114.24 3.58 114.65 4.71Q115.06 5.85 115.48 6.83L115.48 6.83Q115.76 5.85 116.06 4.71Q116.37 3.58 116.65 2.42Q116.93 1.26 117.20 0.08Q117.46-1.10 117.69-2.16L117.69-2.16ZM134.15-1.77L134.15-1.77Q134.15-0.87 133.82-0.05Q133.48 0.78 132.92 1.56Q132.36 2.35 131.66 3.08Q130.96 3.80 130.23 4.48L130.23 4.48Q129.87 4.81 129.39 5.27Q128.92 5.74 128.50 6.23Q128.08 6.72 127.78 7.22Q127.49 7.72 127.49 8.14L127.49 8.14L134.94 8.14L134.94 11L123.62 11Q123.54 10.72 123.55 10.30Q123.57 9.88 123.57 9.71L123.57 9.71Q123.57 8.31 124.09 7.14Q124.60 5.96 125.40 4.97Q126.20 3.97 127.11 3.12Q128.02 2.26 128.82 1.48Q129.62 0.70 130.13-0.03Q130.65-0.76 130.65-1.52L130.65-1.52Q130.65-2.58 130.01-3.15Q129.36-3.73 128.38-3.73L128.38-3.73Q127.57-3.73 126.68-3.34Q125.78-2.94 124.91-2.02L124.91-2.02L123.20-4.43Q124.32-5.60 125.79-6.16Q127.26-6.72 128.72-6.72L128.72-6.72Q129.78-6.72 130.76-6.42Q131.74-6.11 132.50-5.49Q133.26-4.88 133.70-3.94Q134.15-3 134.15-1.77Z"/>
    </g>
</svg>