<?xml version="1.0" encoding="UTF-8"?>
<svg height="26" width="131.1" version="1.1" xmlns="http://www.w3.org/2000/svg"><!--Created by Josélio de S. C. Júnior - 2021 - https://github.com/joseliojunior -->
    <rect
        height="24"
        width="129.1"
        rx="12"
        ry="12"
        x="1" y="1"
        fill="#6bac65"
        stroke="#2e502b"
        stroke-width="1" />
    <g transform="translate(0, 8)">
        <path fill="#2e502b" d="M23.58-0.02L23.58-0.02Q25.47-0.02 26.51 0.76Q27.55 1.54 27.55 3.30L27.55 3.30Q27.55 5.07 26.50 5.86Q25.46 6.66 23.54 6.66L23.54 6.66L22.83 6.66L22.83 10L20.86 10L20.86 0.22Q21.15 0.16 21.51 0.11Q21.87 0.06 22.24 0.04Q22.61 0.02 22.96 0Q23.31-0.02 23.58-0.02ZM23.81 1.70L23.81 1.70Q23.63 1.70 23.32 1.70Q23.01 1.71 22.83 1.74L22.83 1.74L22.83 4.94L23.63 4.94Q24.58 4.94 25.06 4.57Q25.54 4.19 25.54 3.28L25.54 3.28Q25.54 2.42 25.06 2.06Q24.59 1.70 23.81 1.70ZM30.43 5.04L30.43 5.04Q30.43 5.76 30.49 6.39Q30.54 7.02 30.71 7.49Q30.88 7.95 31.18 8.22Q31.49 8.50 32 8.50L32 8.50Q32.50 8.50 32.81 8.22Q33.12 7.95 33.29 7.48Q33.46 7.01 33.51 6.38Q33.57 5.76 33.57 5.04L33.57 5.04Q33.57 4.32 33.51 3.69Q33.46 3.06 33.29 2.59Q33.12 2.13 32.82 1.86Q32.51 1.58 32 1.58L32 1.58Q31.49 1.58 31.18 1.86Q30.88 2.13 30.71 2.60Q30.54 3.07 30.49 3.70Q30.43 4.32 30.43 5.04ZM28.43 5.04L28.43 5.04Q28.43 2.48 29.38 1.18Q30.32-0.13 32-0.13L32-0.13Q33.74-0.13 34.66 1.18Q35.57 2.48 35.57 5.04L35.57 5.04Q35.57 7.60 34.64 8.90Q33.71 10.21 32.02 10.21L32.02 10.21Q30.27 10.21 29.35 8.90Q28.43 7.60 28.43 5.04ZM41.01 10L38.98 10Q38.59 8.90 38.16 7.50Q37.73 6.11 37.34 4.73Q36.96 3.34 36.66 2.11Q36.35 0.88 36.21 0.10L36.21 0.10L38.29 0.10Q38.38 0.86 38.58 1.88Q38.77 2.90 39 3.98Q39.23 5.06 39.50 6.10Q39.76 7.15 40.02 7.98L40.02 7.98Q40.27 7.17 40.53 6.12Q40.78 5.07 41.01 3.99Q41.23 2.91 41.42 1.89Q41.62 0.86 41.74 0.10L41.74 0.10L43.81 0.10Q43.62 1.06 43.34 2.24Q43.06 3.42 42.70 4.73Q42.34 6.03 41.90 7.38Q41.47 8.74 41.01 10L41.01 10ZM45.81 6.86L45.81 4.93L50.19 4.93L50.19 6.86L45.81 6.86ZM55.42-0.02L55.42-0.02Q56.27-0.02 56.96 0.18Q57.65 0.37 58.14 0.77Q58.64 1.17 58.90 1.78Q59.17 2.40 59.17 3.23L59.17 3.23Q59.17 4.10 58.82 4.80Q58.46 5.50 57.65 5.87L57.65 5.87Q57.92 6.29 58.22 6.79Q58.53 7.30 58.82 7.85Q59.10 8.40 59.37 8.95Q59.63 9.50 59.82 10L59.82 10L57.76 10Q57.39 9.04 56.90 8.15Q56.42 7.26 55.86 6.35L55.86 6.35L54.83 6.35L54.83 10L52.86 10L52.86 0.24Q53.15 0.18 53.50 0.12Q53.84 0.06 54.19 0.04Q54.54 0.02 54.86 0Q55.18-0.02 55.42-0.02ZM57.17 3.22L57.17 3.22Q57.17 2.43 56.69 2.06Q56.21 1.70 55.42 1.70L55.42 1.70Q55.31 1.70 55.15 1.70Q54.99 1.71 54.83 1.74L54.83 1.74L54.83 4.72L55.26 4.72Q56.27 4.72 56.72 4.33Q57.17 3.94 57.17 3.22ZM64.02 8.59L64.02 8.59Q64.34 8.59 64.64 8.58Q64.94 8.58 65.17 8.54L65.17 8.54L65.17 6.82Q64.98 6.78 64.70 6.76Q64.43 6.74 64.21 6.74L64.21 6.74Q63.90 6.74 63.62 6.78Q63.33 6.82 63.11 6.91Q62.90 7.01 62.77 7.18Q62.64 7.36 62.64 7.65L62.64 7.65Q62.64 8.16 63.02 8.38Q63.41 8.59 64.02 8.59ZM63.84 2.29L63.84 2.29Q64.77 2.29 65.38 2.50Q66 2.72 66.37 3.11Q66.74 3.50 66.90 4.07Q67.06 4.64 67.06 5.34L67.06 5.34L67.06 9.82Q66.62 9.92 65.78 10.05Q64.93 10.18 63.87 10.18L63.87 10.18Q63.15 10.18 62.57 10.05Q61.98 9.92 61.57 9.62Q61.15 9.33 60.93 8.86Q60.70 8.38 60.70 7.70L60.70 7.70Q60.70 7.04 60.96 6.59Q61.22 6.14 61.65 5.87Q62.08 5.60 62.64 5.48Q63.20 5.36 63.81 5.36L63.81 5.36Q64.58 5.36 65.17 5.49L65.17 5.49L65.17 5.25Q65.17 4.69 64.82 4.31Q64.46 3.94 63.60 3.94L63.60 3.94Q63.04 3.94 62.52 4.02Q62 4.10 61.68 4.21L61.68 4.21L61.41 2.62Q61.78 2.50 62.45 2.39Q63.12 2.29 63.84 2.29ZM73.54 2.48L75.55 2.48Q75.25 3.54 74.97 4.55Q74.69 5.57 74.38 6.54Q74.08 7.50 73.74 8.43Q73.39 9.36 72.99 10.24L72.99 10.24Q72.69 10.88 72.39 11.34Q72.10 11.81 71.74 12.10Q71.38 12.40 70.94 12.54Q70.50 12.69 69.90 12.69L69.90 12.69Q69.41 12.69 69 12.61Q68.59 12.53 68.32 12.40L68.32 12.40L68.69 10.75Q69.01 10.90 69.26 10.95Q69.50 11.01 69.79 11.01L69.79 11.01Q70.37 11.01 70.72 10.62Q71.07 10.24 71.28 9.71L71.28 9.71Q70.58 8.30 69.87 6.49Q69.17 4.67 68.59 2.48L68.59 2.48L70.64 2.48Q70.78 3.07 70.97 3.74Q71.15 4.42 71.36 5.09Q71.57 5.76 71.80 6.41Q72.03 7.06 72.27 7.62L72.27 7.62Q72.43 7.06 72.61 6.41Q72.78 5.76 72.94 5.10Q73.10 4.43 73.26 3.76Q73.41 3.09 73.54 2.48L73.54 2.48ZM87.71 8.56L87.71 8.56Q88.21 8.56 88.54 8.46Q88.86 8.35 89.06 8.17Q89.25 7.98 89.32 7.75Q89.39 7.52 89.39 7.28L89.39 7.28Q89.39 6.98 89.22 6.74Q89.04 6.50 88.77 6.31Q88.50 6.13 88.16 5.98Q87.82 5.82 87.49 5.70L87.49 5.70Q87.04 5.54 86.56 5.33Q86.08 5.12 85.69 4.80Q85.30 4.48 85.04 4.01Q84.78 3.54 84.78 2.83L84.78 2.83Q84.78 1.44 85.69 0.66Q86.59-0.13 88.18-0.13L88.18-0.13Q89.09-0.13 89.77 0.08Q90.45 0.29 90.91 0.54L90.91 0.54L90.34 2.06Q89.94 1.84 89.45 1.68Q88.96 1.52 88.32 1.52L88.32 1.52Q86.75 1.52 86.75 2.66L86.75 2.66Q86.75 2.94 86.91 3.16Q87.07 3.38 87.32 3.54Q87.57 3.71 87.88 3.84Q88.19 3.97 88.50 4.08L88.50 4.08Q88.96 4.26 89.46 4.47Q89.97 4.69 90.39 5.05Q90.82 5.41 91.09 5.94Q91.36 6.48 91.36 7.30L91.36 7.30Q91.36 8.69 90.46 9.45Q89.55 10.21 87.71 10.21L87.71 10.21Q86.48 10.21 85.74 9.94Q85.01 9.68 84.64 9.46L84.64 9.46L85.22 7.86Q85.65 8.11 86.25 8.34Q86.85 8.56 87.71 8.56ZM94.83 1.74L94.83 8.40Q94.91 8.42 95.01 8.42Q95.10 8.42 95.18 8.42L95.18 8.42Q95.86 8.42 96.31 8.16Q96.77 7.90 97.05 7.46Q97.33 7.01 97.45 6.39Q97.57 5.78 97.57 5.04L97.57 5.04Q97.57 4.40 97.47 3.79Q97.38 3.18 97.14 2.72Q96.90 2.26 96.48 1.98Q96.06 1.70 95.41 1.70L95.41 1.70Q95.28 1.70 95.12 1.70Q94.96 1.71 94.83 1.74L94.83 1.74ZM99.57 5.04L99.57 5.04Q99.57 6.42 99.22 7.38Q98.88 8.35 98.27 8.96Q97.66 9.57 96.82 9.85Q95.98 10.13 94.98 10.13L94.98 10.13Q94.45 10.13 93.94 10.07Q93.44 10.02 92.86 9.89L92.86 9.89L92.86 0.22Q93.54 0.08 94.13 0.03Q94.72-0.02 95.23-0.02L95.23-0.02Q96.21-0.02 97.02 0.27Q97.82 0.56 98.38 1.18Q98.94 1.79 99.26 2.74Q99.57 3.70 99.57 5.04ZM107.36 8.37L107.36 10L101.14 10L101.14 0.10L103.12 0.10L103.12 8.37L107.36 8.37Z"/>
    </g>
</svg>