<?xml version="1.0" encoding="UTF-8"?>
<svg height="26" width="98.69999999999999" version="1.1" xmlns="http://www.w3.org/2000/svg"><!--Created by Josélio de S. C. Júnior - 2021 - https://github.com/joseliojunior -->
    <rect
        height="24"
        width="96.69999999999999"
        rx="12"
        ry="12"
        x="1" y="1"
        fill="#fede06"
        stroke="#6b5c01"
        stroke-width="1" />
    <g transform="translate(0, 8)">
        <path fill="#6b5c01" stroke="none" d="M27.36 8.37L27.36 10L21.14 10L21.14 0.10L23.12 0.10L23.12 8.37L27.36 8.37ZM32.02 8.59L32.02 8.59Q32.34 8.59 32.64 8.58Q32.94 8.58 33.17 8.54L33.17 8.54L33.17 6.82Q32.98 6.78 32.70 6.76Q32.43 6.74 32.21 6.74L32.21 6.74Q31.90 6.74 31.62 6.78Q31.33 6.82 31.11 6.91Q30.90 7.01 30.77 7.18Q30.64 7.36 30.64 7.65L30.64 7.65Q30.64 8.16 31.02 8.38Q31.41 8.59 32.02 8.59ZM31.84 2.29L31.84 2.29Q32.77 2.29 33.38 2.50Q34 2.72 34.37 3.11Q34.74 3.50 34.90 4.07Q35.06 4.64 35.06 5.34L35.06 5.34L35.06 9.82Q34.62 9.92 33.78 10.05Q32.93 10.18 31.87 10.18L31.87 10.18Q31.15 10.18 30.57 10.05Q29.98 9.92 29.57 9.62Q29.15 9.33 28.93 8.86Q28.70 8.38 28.70 7.70L28.70 7.70Q28.70 7.04 28.96 6.59Q29.22 6.14 29.65 5.87Q30.08 5.60 30.64 5.48Q31.20 5.36 31.81 5.36L31.81 5.36Q32.58 5.36 33.17 5.49L33.17 5.49L33.17 5.25Q33.17 4.69 32.82 4.31Q32.46 3.94 31.60 3.94L31.60 3.94Q31.04 3.94 30.52 4.02Q30 4.10 29.68 4.21L29.68 4.21L29.41 2.62Q29.78 2.50 30.45 2.39Q31.12 2.29 31.84 2.29ZM41.52 6.19L41.52 6.19Q41.52 5.14 41.18 4.58Q40.83 4.02 40.13 4.02L40.13 4.02Q39.81 4.02 39.50 4.10Q39.18 4.19 38.96 4.32L38.96 4.32L38.96 8.40Q39.18 8.45 39.43 8.46Q39.68 8.48 39.86 8.48L39.86 8.48Q40.62 8.48 41.07 7.96Q41.52 7.44 41.52 6.19ZM43.52 6.24L43.52 6.24Q43.52 7.14 43.28 7.86Q43.04 8.59 42.58 9.10Q42.11 9.62 41.44 9.90Q40.77 10.18 39.90 10.18L39.90 10.18Q39.14 10.18 38.34 10.06Q37.54 9.95 36.99 9.78L36.99 9.78L36.99-0.77L38.96-1.10L38.96 2.66Q39.38 2.46 39.76 2.39Q40.14 2.32 40.53 2.32L40.53 2.32Q41.26 2.32 41.82 2.60Q42.38 2.88 42.76 3.40Q43.14 3.92 43.33 4.64Q43.52 5.36 43.52 6.24ZM49.01 10L46.98 10Q46.59 8.90 46.16 7.50Q45.73 6.11 45.34 4.73Q44.96 3.34 44.66 2.11Q44.35 0.88 44.21 0.10L44.21 0.10L46.29 0.10Q46.38 0.86 46.58 1.88Q46.77 2.90 47 3.98Q47.23 5.06 47.50 6.10Q47.76 7.15 48.02 7.98L48.02 7.98Q48.27 7.17 48.53 6.12Q48.78 5.07 49.01 3.99Q49.23 2.91 49.42 1.89Q49.62 0.86 49.74 0.10L49.74 0.10L51.81 0.10Q51.62 1.06 51.34 2.24Q51.06 3.42 50.70 4.73Q50.34 6.03 49.90 7.38Q49.47 8.74 49.01 10L49.01 10ZM59.15 10L52.86 10L52.86 8.37L55.02 8.37L55.02 1.73L52.86 1.73L52.86 0.10L59.15 0.10L59.15 1.73L57.01 1.73L57.01 8.37L59.15 8.37L59.15 10ZM67.36 10L61.01 10L61.01 0.10L67.01 0.10L67.01 1.73L62.98 1.73L62.98 3.95L66.48 3.95L66.48 5.58L62.98 5.58L62.98 8.37L67.36 8.37L67.36 10ZM71.30 3.60L72.74 3.60Q72.80 3.90 72.93 4.35Q73.06 4.80 73.21 5.34Q73.36 5.89 73.54 6.51Q73.73 7.14 73.90 7.79L73.90 7.79Q73.90 6.96 73.89 6.01Q73.87 5.06 73.86 4.06Q73.84 3.07 73.82 2.06Q73.81 1.04 73.81 0.10L73.81 0.10L75.63 0.10Q75.58 1.31 75.54 2.60Q75.49 3.89 75.42 5.16Q75.36 6.43 75.27 7.66Q75.18 8.90 75.07 10L75.07 10L73.44 10Q73.09 8.99 72.74 7.83Q72.38 6.67 72.03 5.62L72.03 5.62Q71.68 6.62 71.30 7.81Q70.91 8.99 70.59 10L70.59 10L68.96 10Q68.83 8.90 68.74 7.66Q68.64 6.42 68.57 5.14Q68.50 3.87 68.45 2.58Q68.40 1.30 68.37 0.10L68.37 0.10L70.19 0.10Q70.18 1.04 70.16 2.05Q70.14 3.06 70.13 4.06Q70.11 5.06 70.10 6.01Q70.08 6.96 70.08 7.79L70.08 7.79Q70.22 7.28 70.41 6.67Q70.59 6.06 70.76 5.47Q70.93 4.88 71.07 4.38Q71.22 3.89 71.30 3.60L71.30 3.60Z"/>
    </g>
</svg>