<?xml version="1.0" encoding="UTF-8"?>
<svg height="322" width="126.7" version="1.1" xmlns="http://www.w3.org/2000/svg"><!--Created by Josélio de S. C. Júnior - 2021 - https://github.com/joseliojunior -->
    <rect
        height="32"
        width="124.7"
        rx="1"
        ry="1"
        x="1" y="1"
        fill="#fede06"
        stroke="#6b5c01"
        stroke-width="1" />
    <g transform="translate(0, 12)">
        <path fill="#6b5c01" stroke="none" d="M31.04 9.55L31.04 12L21.70 12L21.70-2.86L24.68-2.86L24.68 9.55L31.04 9.55ZM38.02 9.89L38.02 9.89Q38.50 9.89 38.96 9.88Q39.42 9.86 39.75 9.82L39.75 9.82L39.75 7.22Q39.46 7.18 39.06 7.14Q38.65 7.10 38.31 7.10L38.31 7.10Q37.86 7.10 37.42 7.16Q36.99 7.22 36.67 7.37Q36.34 7.51 36.15 7.78Q35.96 8.04 35.96 8.47L35.96 8.47Q35.96 9.24 36.54 9.56Q37.11 9.89 38.02 9.89ZM37.76 0.43L37.76 0.43Q39.15 0.43 40.08 0.76Q41 1.08 41.55 1.67Q42.10 2.26 42.34 3.11Q42.58 3.96 42.58 5.02L42.58 5.02L42.58 11.74Q41.94 11.88 40.66 12.07Q39.39 12.26 37.81 12.26L37.81 12.26Q36.73 12.26 35.85 12.07Q34.98 11.88 34.35 11.44Q33.73 10.99 33.39 10.28Q33.06 9.58 33.06 8.54L33.06 8.54Q33.06 7.56 33.44 6.89Q33.82 6.22 34.47 5.81Q35.12 5.40 35.96 5.22Q36.80 5.04 37.71 5.04L37.71 5.04Q38.86 5.04 39.75 5.23L39.75 5.23L39.75 4.87Q39.75 4.03 39.22 3.47Q38.70 2.90 37.40 2.90L37.40 2.90Q36.56 2.90 35.78 3.02Q35 3.14 34.52 3.31L34.52 3.31L34.11 0.94Q34.66 0.74 35.67 0.59Q36.68 0.43 37.76 0.43ZM52.28 6.29L52.28 6.29Q52.28 4.70 51.76 3.86Q51.25 3.02 50.19 3.02L50.19 3.02Q49.71 3.02 49.24 3.16Q48.78 3.29 48.44 3.48L48.44 3.48L48.44 9.60Q48.78 9.67 49.15 9.70Q49.52 9.72 49.78 9.72L49.78 9.72Q50.94 9.72 51.61 8.94Q52.28 8.16 52.28 6.29ZM55.28 6.36L55.28 6.36Q55.28 7.70 54.92 8.80Q54.56 9.89 53.86 10.66Q53.17 11.42 52.16 11.84Q51.15 12.26 49.86 12.26L49.86 12.26Q48.70 12.26 47.50 12.10Q46.30 11.93 45.49 11.66L45.49 11.66L45.49-4.15L48.44-4.66L48.44 0.98Q49.06 0.70 49.64 0.59Q50.22 0.48 50.79 0.48L50.79 0.48Q51.90 0.48 52.74 0.90Q53.58 1.32 54.14 2.10Q54.70 2.88 54.99 3.96Q55.28 5.04 55.28 6.36ZM63.51 12L60.46 12Q59.89 10.34 59.24 8.26Q58.59 6.17 58.02 4.09Q57.44 2.02 56.98 0.17Q56.53-1.68 56.31-2.86L56.31-2.86L59.43-2.86Q59.58-1.70 59.86-0.18Q60.15 1.34 60.50 2.96Q60.85 4.58 61.24 6.16Q61.64 7.73 62.02 8.98L62.02 8.98Q62.41 7.75 62.79 6.18Q63.18 4.61 63.51 2.99Q63.85 1.37 64.14-0.17Q64.42-1.70 64.62-2.86L64.62-2.86L67.71-2.86Q67.42-1.42 67.00 0.36Q66.58 2.14 66.04 4.09Q65.50 6.05 64.86 8.08Q64.21 10.10 63.51 12L63.51 12ZM78.73 12L69.30 12L69.30 9.55L72.54 9.55L72.54-0.41L69.30-0.41L69.30-2.86L78.73-2.86L78.73-0.41L75.51-0.41L75.51 9.55L78.73 9.55L78.73 12ZM91.04 12L81.51 12L81.51-2.86L90.51-2.86L90.51-0.41L84.46-0.41L84.46 2.93L89.72 2.93L89.72 5.38L84.46 5.38L84.46 9.55L91.04 9.55L91.04 12ZM96.94 2.40L99.10 2.40Q99.20 2.86 99.39 3.53Q99.58 4.20 99.81 5.02Q100.04 5.83 100.32 6.77Q100.59 7.70 100.86 8.69L100.86 8.69Q100.86 7.44 100.83 6.01Q100.81 4.58 100.78 3.10Q100.76 1.61 100.74 0.08Q100.71-1.44 100.71-2.86L100.71-2.86L103.45-2.86Q103.38-1.03 103.30 0.90Q103.23 2.83 103.14 4.74Q103.04 6.65 102.91 8.50Q102.78 10.34 102.61 12L102.61 12L100.16 12Q99.63 10.49 99.10 8.75Q98.58 7.01 98.05 5.42L98.05 5.42Q97.52 6.94 96.94 8.71Q96.37 10.49 95.89 12L95.89 12L93.44 12Q93.25 10.34 93.10 8.48Q92.96 6.62 92.85 4.72Q92.74 2.81 92.67 0.88Q92.60-1.06 92.55-2.86L92.55-2.86L95.29-2.86Q95.26-1.44 95.24 0.07Q95.22 1.58 95.19 3.08Q95.17 4.58 95.14 6.01Q95.12 7.44 95.12 8.69L95.12 8.69Q95.34 7.92 95.61 7.01Q95.89 6.10 96.14 5.21Q96.39 4.32 96.61 3.58Q96.82 2.83 96.94 2.40L96.94 2.40Z"/>
    </g>
</svg>