<?xml version="1.0" encoding="UTF-8"?>
<svg height="26" width="147.3" version="1.1" xmlns="http://www.w3.org/2000/svg"><!--Created by Josélio de S. C. Júnior - 2021 - https://github.com/joseliojunior -->
    <rect
        height="24"
        width="145.3"
        rx="12"
        ry="12"
        x="1" y="1"
        fill="#814CCC"
        stroke="#3a1c63"
        stroke-width="1" />
    <g transform="translate(0, 8)">
        <path fill="#3a1c63" d="M21.33 8.37L23.41 8.37L23.41 2.83Q22.96 3.15 22.38 3.40Q21.81 3.65 21.41 3.79L21.41 3.79L20.77 2.16Q21.15 2.02 21.60 1.79Q22.05 1.57 22.50 1.30Q22.94 1.02 23.34 0.72Q23.74 0.42 24.03 0.10L24.03 0.10L25.38 0.10L25.38 8.37L27.34 8.37L27.34 10L21.33 10L21.33 8.37ZM32.74 10.21L32.74 10.21Q30.64 10.21 29.54 8.86Q28.43 7.52 28.43 5.04L28.43 5.04Q28.43 3.81 28.77 2.85Q29.10 1.89 29.70 1.22Q30.30 0.56 31.13 0.22Q31.95-0.13 32.93-0.13L32.93-0.13Q33.46-0.13 33.88-0.04Q34.30 0.05 34.62 0.16Q34.94 0.27 35.16 0.40Q35.38 0.53 35.49 0.59L35.49 0.59L34.98 2.16Q34.61 1.92 34.09 1.75Q33.57 1.58 32.90 1.58L32.90 1.58Q32.43 1.58 31.99 1.75Q31.55 1.92 31.21 2.31Q30.86 2.70 30.65 3.36Q30.43 4.02 30.43 4.99L30.43 4.99Q30.43 6.69 31.02 7.59Q31.60 8.50 32.93 8.50L32.93 8.50Q33.70 8.50 34.20 8.32Q34.70 8.14 35.01 7.97L35.01 7.97L35.50 9.52Q35.09 9.78 34.38 9.99Q33.66 10.21 32.74 10.21ZM51.36 10L45.01 10L45.01 0.10L51.01 0.10L51.01 1.73L46.98 1.73L46.98 3.95L50.48 3.95L50.48 5.58L46.98 5.58L46.98 8.37L51.36 8.37L51.36 10ZM53.01 10L53.01 2.72Q53.54 2.58 54.31 2.45Q55.09 2.32 56 2.32L56 2.32Q56.90 2.32 57.49 2.57Q58.08 2.82 58.42 3.27Q58.77 3.73 58.91 4.36Q59.06 4.99 59.06 5.76L59.06 5.76L59.06 10L57.09 10L57.09 6.02Q57.09 4.96 56.85 4.50Q56.61 4.03 55.87 4.03L55.87 4.03Q55.65 4.03 55.43 4.05Q55.22 4.06 54.98 4.10L54.98 4.10L54.98 10L53.01 10ZM62.29 7.20L62.29 4.11L60.58 4.11L60.58 2.48L62.29 2.48L62.29 0.59L64.26 0.27L64.26 2.48L67.41 2.48L67.41 4.11L64.26 4.11L64.26 7.15Q64.26 7.57 64.34 7.82Q64.42 8.08 64.56 8.22Q64.70 8.37 64.91 8.42Q65.12 8.46 65.38 8.46L65.38 8.46Q65.65 8.46 65.88 8.45Q66.11 8.43 66.33 8.39Q66.54 8.35 66.78 8.27Q67.01 8.19 67.28 8.06L67.28 8.06L67.55 9.76Q67.01 9.98 66.38 10.08Q65.74 10.18 65.15 10.18L65.15 10.18Q64.46 10.18 63.94 10.06Q63.41 9.95 63.04 9.63Q62.67 9.31 62.48 8.73Q62.29 8.14 62.29 7.20L62.29 7.20ZM68.50 6.30L68.50 6.30Q68.50 5.31 68.80 4.56Q69.10 3.81 69.60 3.30Q70.10 2.80 70.74 2.54Q71.38 2.29 72.05 2.29L72.05 2.29Q73.71 2.29 74.58 3.27Q75.44 4.26 75.44 6.14L75.44 6.14Q75.44 6.34 75.43 6.54Q75.42 6.75 75.41 6.88L75.41 6.88L70.53 6.88Q70.53 7.62 71.14 8.04Q71.74 8.46 72.70 8.46L72.70 8.46Q73.30 8.46 73.83 8.34Q74.37 8.21 74.74 8.08L74.74 8.08L75.01 9.76Q74.50 9.94 73.92 10.06Q73.34 10.18 72.62 10.18L72.62 10.18Q71.66 10.18 70.90 9.93Q70.14 9.68 69.61 9.19Q69.07 8.70 68.78 7.98Q68.50 7.26 68.50 6.30ZM70.53 5.52L73.54 5.52Q73.54 5.22 73.46 4.94Q73.38 4.66 73.20 4.43Q73.02 4.21 72.75 4.07Q72.48 3.94 72.08 3.94L72.08 3.94Q71.70 3.94 71.42 4.06Q71.14 4.19 70.95 4.42Q70.77 4.64 70.66 4.93Q70.56 5.22 70.53 5.52L70.53 5.52ZM83.34 2.66L82.99 4.48Q82.80 4.43 82.54 4.38Q82.27 4.34 82 4.30Q81.73 4.26 81.47 4.24Q81.22 4.22 81.04 4.22L81.04 4.22Q80.62 4.22 80.22 4.26Q79.82 4.30 79.41 4.42L79.41 4.42L79.41 10L77.42 10L77.42 2.98Q78.21 2.69 79.03 2.51Q79.86 2.34 80.96 2.34L80.96 2.34Q81.12 2.34 81.42 2.35Q81.71 2.37 82.05 2.41Q82.38 2.45 82.73 2.50Q83.07 2.56 83.34 2.66L83.34 2.66ZM89.50 6.30L89.50 6.30Q89.50 5.30 89.10 4.65Q88.70 4 87.89 4L87.89 4Q87.66 4 87.41 4.02Q87.15 4.05 86.98 4.06L86.98 4.06L86.98 8.19Q87.17 8.32 87.49 8.40Q87.81 8.48 88.13 8.48L88.13 8.48Q88.83 8.48 89.17 7.91Q89.50 7.34 89.50 6.30ZM91.50 6.24L91.50 6.24Q91.50 7.10 91.31 7.83Q91.12 8.56 90.75 9.08Q90.38 9.60 89.82 9.89Q89.26 10.18 88.53 10.18L88.53 10.18Q87.78 10.18 86.98 9.81L86.98 9.81L86.98 12.64L85.01 12.64L85.01 2.72Q85.55 2.54 86.34 2.43Q87.14 2.32 87.90 2.32L87.90 2.32Q89.65 2.32 90.58 3.38Q91.50 4.43 91.50 6.24ZM99.34 2.66L98.99 4.48Q98.80 4.43 98.54 4.38Q98.27 4.34 98 4.30Q97.73 4.26 97.47 4.24Q97.22 4.22 97.04 4.22L97.04 4.22Q96.62 4.22 96.22 4.26Q95.82 4.30 95.41 4.42L95.41 4.42L95.41 10L93.42 10L93.42 2.98Q94.21 2.69 95.03 2.51Q95.86 2.34 96.96 2.34L96.96 2.34Q97.12 2.34 97.42 2.35Q97.71 2.37 98.05 2.41Q98.38 2.45 98.73 2.50Q99.07 2.56 99.34 2.66L99.34 2.66ZM104.54 0.32L104.54 0.32Q104.54 0.90 104.18 1.23Q103.81 1.57 103.30 1.57L103.30 1.57Q102.78 1.57 102.42 1.23Q102.06 0.90 102.06 0.32L102.06 0.32Q102.06-0.27 102.42-0.61Q102.78-0.94 103.30-0.94L103.30-0.94Q103.81-0.94 104.18-0.61Q104.54-0.27 104.54 0.32ZM107.22 8.10L107.47 9.68Q106.86 9.97 106.33 10.07Q105.79 10.18 105.34 10.18L105.34 10.18Q104.58 10.18 104.06 9.95Q103.54 9.73 103.22 9.30Q102.91 8.88 102.78 8.27Q102.66 7.66 102.66 6.88L102.66 6.88L102.66 4.11L100.58 4.11L100.58 2.48L104.62 2.48L104.62 7.14Q104.62 7.81 104.87 8.14Q105.12 8.46 105.70 8.46L105.70 8.46Q105.97 8.46 106.35 8.39Q106.74 8.32 107.22 8.10L107.22 8.10ZM111.65 8.51L111.65 8.51Q112.37 8.51 112.75 8.41Q113.14 8.30 113.14 7.98L113.14 7.98Q113.14 7.78 113.02 7.63Q112.90 7.49 112.68 7.38Q112.46 7.28 112.18 7.18Q111.90 7.09 111.60 6.99L111.60 6.99Q111.17 6.86 110.72 6.70Q110.27 6.53 109.90 6.27Q109.54 6.02 109.30 5.62Q109.06 5.23 109.06 4.64L109.06 4.64Q109.06 4.16 109.24 3.74Q109.42 3.31 109.82 2.98Q110.21 2.66 110.82 2.47Q111.42 2.29 112.27 2.29L112.27 2.29Q113.01 2.29 113.64 2.40Q114.27 2.51 114.74 2.72L114.74 2.72L114.43 4.38Q114.16 4.30 113.58 4.12Q113.01 3.94 112.29 3.94L112.29 3.94Q111.54 3.94 111.27 4.12Q111.01 4.30 111.01 4.51L111.01 4.51Q111.01 4.69 111.13 4.82Q111.25 4.96 111.45 5.07Q111.65 5.18 111.91 5.29Q112.18 5.39 112.48 5.49L112.48 5.49Q112.91 5.63 113.38 5.81Q113.84 5.98 114.22 6.25Q114.59 6.51 114.83 6.92Q115.07 7.33 115.07 7.92L115.07 7.92Q115.07 8.38 114.90 8.80Q114.72 9.22 114.31 9.52Q113.90 9.82 113.25 10Q112.59 10.18 111.63 10.18L111.63 10.18Q110.66 10.18 109.97 9.95Q109.28 9.73 108.86 9.55L108.86 9.55L109.17 7.90Q109.73 8.13 110.36 8.32Q110.99 8.51 111.65 8.51ZM116.50 6.30L116.50 6.30Q116.50 5.31 116.80 4.56Q117.10 3.81 117.60 3.30Q118.10 2.80 118.74 2.54Q119.38 2.29 120.05 2.29L120.05 2.29Q121.71 2.29 122.58 3.27Q123.44 4.26 123.44 6.14L123.44 6.14Q123.44 6.34 123.43 6.54Q123.42 6.75 123.41 6.88L123.41 6.88L118.53 6.88Q118.53 7.62 119.14 8.04Q119.74 8.46 120.70 8.46L120.70 8.46Q121.30 8.46 121.83 8.34Q122.37 8.21 122.74 8.08L122.74 8.08L123.01 9.76Q122.50 9.94 121.92 10.06Q121.34 10.18 120.62 10.18L120.62 10.18Q119.66 10.18 118.90 9.93Q118.14 9.68 117.61 9.19Q117.07 8.70 116.78 7.98Q116.50 7.26 116.50 6.30ZM118.53 5.52L121.54 5.52Q121.54 5.22 121.46 4.94Q121.38 4.66 121.20 4.43Q121.02 4.21 120.75 4.07Q120.48 3.94 120.08 3.94L120.08 3.94Q119.70 3.94 119.42 4.06Q119.14 4.19 118.95 4.42Q118.77 4.64 118.66 4.93Q118.56 5.22 118.53 5.52L118.53 5.52Z"/>
    </g>
</svg>