<?xml version="1.0" encoding="UTF-8"?>
<svg height="34" width="163" version="1.1" xmlns="http://www.w3.org/2000/svg">
    <rect
        height="32"
        width="161"
        rx="1"
        ry="1"
        x="1"
        y="1"
        fill="#cca760"
        stroke="#705524"
        stroke-width="1"
         />
    <g transform="translate(0, 14)">
        <path fill="#705524" d="M14.96-3.45L14.96 8.20Q15.10 8.23 15.26 8.23Q15.43 8.23 15.57 8.23L15.57 8.23Q16.75 8.23 17.55 7.78Q18.34 7.33 18.83 6.55Q19.32 5.76 19.53 4.69Q19.74 3.61 19.74 2.32L19.74 2.32Q19.74 1.20 19.58 0.14Q19.41-0.93 18.99-1.74Q18.57-2.55 17.84-3.04Q17.11-3.53 15.96-3.53L15.96-3.53Q15.74-3.53 15.46-3.52Q15.18-3.50 14.96-3.45L14.96-3.45ZM23.24 2.32L23.24 2.32Q23.24 4.73 22.64 6.42Q22.04 8.12 20.98 9.18Q19.91 10.24 18.44 10.73Q16.97 11.22 15.21 11.22L15.21 11.22Q14.28 11.22 13.40 11.13Q12.52 11.03 11.51 10.80L11.51 10.80L11.51-6.11Q12.69-6.36 13.72-6.44Q14.76-6.53 15.66-6.53L15.66-6.53Q17.36-6.53 18.78-6.02Q20.19-5.52 21.17-4.44Q22.15-3.36 22.70-1.70Q23.24-0.03 23.24 2.32ZM37.22 4.39L37.22 4.39Q37.22 5.96 36.77 7.23Q36.32 8.51 35.51 9.43Q34.70 10.36 33.56 10.86Q32.43 11.36 31.03 11.36L31.03 11.36Q29.63 11.36 28.49 10.86Q27.36 10.36 26.53 9.43Q25.71 8.51 25.26 7.23Q24.81 5.96 24.81 4.39L24.81 4.39Q24.81 2.85 25.27 1.58Q25.74 0.30 26.56-0.61Q27.39-1.52 28.54-2.01Q29.68-2.50 31.03-2.50L31.03-2.50Q32.40-2.50 33.53-2.01Q34.67-1.52 35.49-0.61Q36.32 0.30 36.77 1.58Q37.22 2.85 37.22 4.39ZM28.31 4.42L28.31 4.42Q28.31 6.18 28.94 7.28Q29.57 8.37 30.97 8.37L30.97 8.37Q32.32 8.37 33.00 7.28Q33.69 6.18 33.69 4.42L33.69 4.42Q33.69 2.66 33.06 1.58Q32.43 0.50 31.03 0.50L31.03 0.50Q29.68 0.50 29.00 1.58Q28.31 2.66 28.31 4.42ZM42.42 4L42.42 4Q42.42 5.62 43.01 6.48Q43.60 7.33 44.86 7.33L44.86 7.33Q45.42 7.33 45.91 7.19Q46.40 7.05 46.79 6.83L46.79 6.83L46.79 0.50Q46.40 0.42 46.09 0.39Q45.78 0.36 45.45 0.36L45.45 0.36Q42.42 0.36 42.42 4ZM50.26-1.74L50.26 9.40Q50.26 12.62 48.71 14.16Q47.16 15.70 43.71 15.70L43.71 15.70Q42.48 15.70 41.35 15.45Q40.21 15.20 39.18 14.86L39.18 14.86L39.82 11.95Q40.63 12.26 41.53 12.53Q42.42 12.79 43.77 12.79L43.77 12.79Q44.66 12.79 45.25 12.58Q45.84 12.37 46.18 12.01Q46.51 11.64 46.65 11.15Q46.79 10.66 46.79 10.10L46.79 10.10L46.79 9.57Q46.06 9.85 45.46 9.99Q44.86 10.13 44.16 10.13L44.16 10.13Q41.58 10.13 40.25 8.51Q38.92 6.88 38.92 4L38.92 4Q38.92 0.75 40.72-0.84Q42.51-2.44 45.59-2.44L45.59-2.44Q47.74-2.44 50.26-1.74L50.26-1.74ZM52.87 4.53L52.87 4.53Q52.87 2.80 53.40 1.48Q53.93 0.16 54.80-0.72Q55.67-1.60 56.79-2.05Q57.91-2.50 59.08-2.50L59.08-2.50Q62.00-2.50 63.51-0.77Q65.02 0.95 65.02 4.25L65.02 4.25Q65.02 4.59 65.01 4.95Q64.99 5.32 64.96 5.54L64.96 5.54L56.42 5.54Q56.42 6.83 57.49 7.57Q58.55 8.31 60.23 8.31L60.23 8.31Q61.27 8.31 62.21 8.09Q63.14 7.86 63.79 7.64L63.79 7.64L64.26 10.58Q63.37 10.89 62.36 11.10Q61.35 11.31 60.09 11.31L60.09 11.31Q58.41 11.31 57.08 10.87Q55.75 10.44 54.81 9.59Q53.88 8.73 53.37 7.47Q52.87 6.21 52.87 4.53ZM56.42 3.16L61.69 3.16Q61.69 2.63 61.55 2.14Q61.41 1.65 61.10 1.26Q60.79 0.86 60.32 0.63Q59.84 0.39 59.14 0.39L59.14 0.39Q58.47 0.39 57.98 0.61Q57.49 0.84 57.17 1.23Q56.84 1.62 56.66 2.12Q56.48 2.63 56.42 3.16L56.42 3.16ZM72.38 8.40L72.38 8.40Q73.64 8.40 74.32 8.21Q74.99 8.03 74.99 7.47L74.99 7.47Q74.99 7.11 74.78 6.86Q74.57 6.60 74.19 6.42Q73.81 6.24 73.32 6.07Q72.83 5.90 72.30 5.74L72.30 5.74Q71.54 5.51 70.76 5.22Q69.98 4.92 69.33 4.48Q68.69 4.03 68.27 3.34Q67.85 2.66 67.85 1.62L67.85 1.62Q67.85 0.78 68.17 0.04Q68.49-0.70 69.18-1.28Q69.86-1.85 70.93-2.17Q71.99-2.50 73.48-2.50L73.48-2.50Q74.76-2.50 75.87-2.30Q76.98-2.10 77.79-1.74L77.79-1.74L77.26 1.17Q76.78 1.03 75.77 0.71Q74.76 0.39 73.50 0.39L73.50 0.39Q72.19 0.39 71.73 0.71Q71.26 1.03 71.26 1.40L71.26 1.40Q71.26 1.70 71.47 1.94Q71.68 2.18 72.03 2.38Q72.38 2.57 72.85 2.75Q73.31 2.94 73.84 3.10L73.84 3.10Q74.60 3.36 75.41 3.66Q76.22 3.97 76.88 4.43Q77.54 4.90 77.96 5.61Q78.38 6.32 78.38 7.36L78.38 7.36Q78.38 8.17 78.07 8.90Q77.76 9.63 77.05 10.16Q76.33 10.69 75.18 11Q74.04 11.31 72.36 11.31L72.36 11.31Q70.65 11.31 69.44 10.92Q68.24 10.52 67.51 10.22L67.51 10.22L68.04 7.33Q69.02 7.72 70.13 8.06Q71.24 8.40 72.38 8.40ZM81.23 4.42L81.23 4.42Q81.23 2.99 81.68 1.73Q82.13 0.47 83.05-0.47Q83.98-1.40 85.39-1.95Q86.80-2.50 88.76-2.50L88.76-2.50Q89.94-2.50 90.89-2.33Q91.84-2.16 92.82-1.77L92.82-1.77L92.07 1.00Q91.51 0.81 90.82 0.65Q90.14 0.50 89.07 0.50L89.07 0.50Q87.84 0.50 87.01 0.79Q86.19 1.09 85.68 1.61Q85.18 2.12 84.96 2.85Q84.73 3.58 84.73 4.42L84.73 4.42Q84.73 6.24 85.75 7.28Q86.78 8.31 89.24 8.31L89.24 8.31Q90.05 8.31 90.93 8.20Q91.82 8.09 92.54 7.84L92.54 7.84L93.05 10.66Q92.32 10.94 91.28 11.13Q90.25 11.31 88.85 11.31L88.85 11.31Q86.83 11.31 85.39 10.78Q83.95 10.24 83.02 9.32Q82.10 8.40 81.67 7.14Q81.23 5.88 81.23 4.42ZM106.85-1.85L106.24 1.34Q105.90 1.26 105.44 1.17Q104.98 1.09 104.50 1.02Q104.02 0.95 103.58 0.92Q103.13 0.89 102.82 0.89L102.82 0.89Q102.09 0.89 101.39 0.96Q100.69 1.03 99.96 1.23L99.96 1.23L99.96 11L96.49 11L96.49-1.29Q97.86-1.80 99.31-2.10Q100.75-2.41 102.68-2.41L102.68-2.41Q102.96-2.41 103.48-2.38Q104.00-2.36 104.58-2.29Q105.17-2.22 105.77-2.12Q106.38-2.02 106.85-1.85L106.85-1.85ZM115.95-5.94L115.95-5.94Q115.95-4.93 115.31-4.34Q114.66-3.76 113.77-3.76L113.77-3.76Q112.87-3.76 112.24-4.34Q111.61-4.93 111.61-5.94L111.61-5.94Q111.61-6.98 112.24-7.56Q112.87-8.15 113.77-8.15L113.77-8.15Q114.66-8.15 115.31-7.56Q115.95-6.98 115.95-5.94ZM120.63 7.67L121.08 10.44Q120.01 10.94 119.07 11.13Q118.14 11.31 117.35 11.31L117.35 11.31Q116.01 11.31 115.10 10.92Q114.19 10.52 113.64 9.78Q113.10 9.04 112.87 7.98Q112.65 6.91 112.65 5.54L112.65 5.54L112.65 0.70L109.01 0.70L109.01-2.16L116.09-2.16L116.09 5.99Q116.09 7.16 116.53 7.74Q116.96 8.31 117.97 8.31L117.97 8.31Q118.44 8.31 119.12 8.19Q119.79 8.06 120.63 7.67L120.63 7.67ZM131.63 4.53L131.63 4.53Q131.63 2.77 130.93 1.63Q130.23 0.50 128.80 0.50L128.80 0.50Q128.41 0.50 127.96 0.54Q127.52 0.58 127.21 0.61L127.21 0.61L127.21 7.84Q127.54 8.06 128.10 8.20Q128.66 8.34 129.22 8.34L129.22 8.34Q130.46 8.34 131.04 7.35Q131.63 6.35 131.63 4.53ZM135.13 4.42L135.13 4.42Q135.13 5.93 134.80 7.21Q134.46 8.48 133.82 9.39Q133.17 10.30 132.19 10.80Q131.21 11.31 129.92 11.31L129.92 11.31Q128.61 11.31 127.21 10.66L127.21 10.66L127.21 15.62L123.76 15.62L123.76-1.74Q124.72-2.05 126.10-2.24Q127.49-2.44 128.83-2.44L128.83-2.44Q131.88-2.44 133.51-0.59Q135.13 1.26 135.13 4.42ZM140.00 6.10L140.00 0.70L137.01 0.70L137.01-2.16L140.00-2.16L140.00-5.46L143.45-6.02L143.45-2.16L148.96-2.16L148.96 0.70L143.45 0.70L143.45 6.02Q143.45 6.74 143.59 7.19Q143.73 7.64 143.98 7.89Q144.23 8.14 144.60 8.23Q144.96 8.31 145.41 8.31L145.41 8.31Q145.88 8.31 146.29 8.28Q146.70 8.26 147.07 8.19Q147.45 8.12 147.86 7.98Q148.26 7.84 148.74 7.61L148.74 7.61L149.22 10.58Q148.26 10.97 147.16 11.14Q146.05 11.31 145.02 11.31L145.02 11.31Q143.81 11.31 142.89 11.11Q141.96 10.92 141.32 10.36Q140.68 9.80 140.34 8.77Q140.00 7.75 140.00 6.10L140.00 6.10Z"/>
    </g>
</svg>