<?xml version="1.0" encoding="UTF-8"?>
<svg height="26" width="82.5" version="1.1" xmlns="http://www.w3.org/2000/svg"><!--Created by Josélio de S. C. Júnior - 2021 - https://github.com/joseliojunior -->
    <defs>
        <pattern id="pattern"
                x="3" y="3" width="6" height="6"
                patternUnits="userSpaceOnUse"
                patternTransform="rotate(45)" >
            <rect height="6" width="6"
                fill="#ffffff"/>
            <line x1="0" y1="0" x2="0" y2="6"
                stroke="#888888"
                stroke-width="2" />
        </pattern>
    </defs>
    <rect
        height="24"
        width="80.5"
        rx="12"
        ry="12"
        x="1" y="1"
        fill="url(#pattern)"
        stroke="#000000"
        stroke-width="1" />
    <g transform="translate(0, 8)">
        <path fill="#ffffff" stroke="#000000" d="M27.36 8.37L27.36 10L21.14 10L21.14 0.10L23.12 0.10L23.12 8.37L27.36 8.37ZM35.55 6.22L35.55 6.22Q35.55 7.12 35.30 7.85Q35.04 8.58 34.58 9.10Q34.11 9.63 33.46 9.92Q32.82 10.21 32.02 10.21L32.02 10.21Q31.22 10.21 30.57 9.92Q29.92 9.63 29.45 9.10Q28.98 8.58 28.72 7.85Q28.46 7.12 28.46 6.22L28.46 6.22Q28.46 5.34 28.73 4.62Q28.99 3.89 29.46 3.37Q29.94 2.85 30.59 2.57Q31.25 2.29 32.02 2.29L32.02 2.29Q32.80 2.29 33.45 2.57Q34.10 2.85 34.57 3.37Q35.04 3.89 35.30 4.62Q35.55 5.34 35.55 6.22ZM30.46 6.24L30.46 6.24Q30.46 7.25 30.82 7.87Q31.18 8.50 31.98 8.50L31.98 8.50Q32.75 8.50 33.14 7.87Q33.54 7.25 33.54 6.24L33.54 6.24Q33.54 5.23 33.18 4.62Q32.82 4 32.02 4L32.02 4Q31.25 4 30.86 4.62Q30.46 5.23 30.46 6.24ZM38.53 6L38.53 6Q38.53 6.93 38.86 7.42Q39.20 7.90 39.92 7.90L39.92 7.90Q40.24 7.90 40.52 7.82Q40.80 7.74 41.02 7.62L41.02 7.62L41.02 4Q40.80 3.95 40.62 3.94Q40.45 3.92 40.26 3.92L40.26 3.92Q38.53 3.92 38.53 6ZM43.01 2.72L43.01 9.09Q43.01 10.93 42.12 11.81Q41.23 12.69 39.26 12.69L39.26 12.69Q38.56 12.69 37.91 12.54Q37.26 12.40 36.67 12.21L36.67 12.21L37.04 10.54Q37.50 10.72 38.02 10.87Q38.53 11.02 39.30 11.02L39.30 11.02Q39.81 11.02 40.14 10.90Q40.48 10.78 40.67 10.58Q40.86 10.37 40.94 10.09Q41.02 9.81 41.02 9.49L41.02 9.49L41.02 9.18Q40.61 9.34 40.26 9.42Q39.92 9.50 39.52 9.50L39.52 9.50Q38.05 9.50 37.29 8.58Q36.53 7.65 36.53 6L36.53 6Q36.53 4.14 37.55 3.23Q38.58 2.32 40.34 2.32L40.34 2.32Q41.57 2.32 43.01 2.72L43.01 2.72ZM51.55 6.22L51.55 6.22Q51.55 7.12 51.30 7.85Q51.04 8.58 50.58 9.10Q50.11 9.63 49.46 9.92Q48.82 10.21 48.02 10.21L48.02 10.21Q47.22 10.21 46.57 9.92Q45.92 9.63 45.45 9.10Q44.98 8.58 44.72 7.85Q44.46 7.12 44.46 6.22L44.46 6.22Q44.46 5.34 44.73 4.62Q44.99 3.89 45.46 3.37Q45.94 2.85 46.59 2.57Q47.25 2.29 48.02 2.29L48.02 2.29Q48.80 2.29 49.45 2.57Q50.10 2.85 50.57 3.37Q51.04 3.89 51.30 4.62Q51.55 5.34 51.55 6.22ZM46.46 6.24L46.46 6.24Q46.46 7.25 46.82 7.87Q47.18 8.50 47.98 8.50L47.98 8.50Q48.75 8.50 49.14 7.87Q49.54 7.25 49.54 6.24L49.54 6.24Q49.54 5.23 49.18 4.62Q48.82 4 48.02 4L48.02 4Q47.25 4 46.86 4.62Q46.46 5.23 46.46 6.24ZM55.65 8.51L55.65 8.51Q56.37 8.51 56.75 8.41Q57.14 8.30 57.14 7.98L57.14 7.98Q57.14 7.78 57.02 7.63Q56.90 7.49 56.68 7.38Q56.46 7.28 56.18 7.18Q55.90 7.09 55.60 6.99L55.60 6.99Q55.17 6.86 54.72 6.70Q54.27 6.53 53.90 6.27Q53.54 6.02 53.30 5.62Q53.06 5.23 53.06 4.64L53.06 4.64Q53.06 4.16 53.24 3.74Q53.42 3.31 53.82 2.98Q54.21 2.66 54.82 2.47Q55.42 2.29 56.27 2.29L56.27 2.29Q57.01 2.29 57.64 2.40Q58.27 2.51 58.74 2.72L58.74 2.72L58.43 4.38Q58.16 4.30 57.58 4.12Q57.01 3.94 56.29 3.94L56.29 3.94Q55.54 3.94 55.27 4.12Q55.01 4.30 55.01 4.51L55.01 4.51Q55.01 4.69 55.13 4.82Q55.25 4.96 55.45 5.07Q55.65 5.18 55.91 5.29Q56.18 5.39 56.48 5.49L56.48 5.49Q56.91 5.63 57.38 5.81Q57.84 5.98 58.22 6.25Q58.59 6.51 58.83 6.92Q59.07 7.33 59.07 7.92L59.07 7.92Q59.07 8.38 58.90 8.80Q58.72 9.22 58.31 9.52Q57.90 9.82 57.25 10Q56.59 10.18 55.63 10.18L55.63 10.18Q54.66 10.18 53.97 9.95Q53.28 9.73 52.86 9.55L52.86 9.55L53.17 7.90Q53.73 8.13 54.36 8.32Q54.99 8.51 55.65 8.51Z"/>
    </g>
</svg>