<?xml version="1.0" encoding="UTF-8"?>
<svg height="322" width="90.4" version="1.1" xmlns="http://www.w3.org/2000/svg"><!--Created by Josélio de S. C. Júnior - 2021 - https://github.com/joseliojunior -->
    <rect
        height="32"
        width="88.4"
        rx="16"
        ry="16"
        x="1" y="1"
        fill="#C76F5B"
        stroke="#672f23"
        stroke-width="1" />
    <g transform="translate(0, 12)">
        <path fill="#672f23" stroke="none" d="M25.38-3.02L25.38-3.02Q28.21-3.02 29.77-1.86Q31.33-0.70 31.33 1.94L31.33 1.94Q31.33 4.61 29.76 5.80Q28.18 6.98 25.30 6.98L25.30 6.98L24.25 6.98L24.25 12L21.30 12L21.30-2.66Q21.73-2.76 22.27-2.83Q22.81-2.90 23.36-2.94Q23.91-2.98 24.44-3Q24.97-3.02 25.38-3.02ZM25.71-0.46L25.71-0.46Q25.45-0.46 24.98-0.44Q24.51-0.43 24.25-0.38L24.25-0.38L24.25 4.42L25.45 4.42Q26.86 4.42 27.58 3.85Q28.30 3.29 28.30 1.92L28.30 1.92Q28.30 0.62 27.60 0.08Q26.89-0.46 25.71-0.46ZM32.74 6.46L32.74 6.46Q32.74 4.97 33.20 3.84Q33.66 2.71 34.40 1.96Q35.14 1.20 36.10 0.82Q37.06 0.43 38.07 0.43L38.07 0.43Q40.57 0.43 41.86 1.91Q43.16 3.38 43.16 6.22L43.16 6.22Q43.16 6.50 43.15 6.82Q43.14 7.13 43.11 7.32L43.11 7.32L35.79 7.32Q35.79 8.42 36.70 9.06Q37.62 9.70 39.06 9.70L39.06 9.70Q39.94 9.70 40.75 9.50Q41.55 9.31 42.10 9.12L42.10 9.12L42.51 11.64Q41.74 11.90 40.88 12.08Q40.02 12.26 38.94 12.26L38.94 12.26Q37.50 12.26 36.36 11.89Q35.22 11.52 34.41 10.79Q33.61 10.06 33.18 8.98Q32.74 7.90 32.74 6.46ZM35.79 5.28L40.30 5.28Q40.30 4.82 40.18 4.40Q40.06 3.98 39.80 3.65Q39.54 3.31 39.13 3.11Q38.72 2.90 38.12 2.90L38.12 2.90Q37.54 2.90 37.12 3.10Q36.70 3.29 36.43 3.62Q36.15 3.96 36.00 4.39Q35.84 4.82 35.79 5.28L35.79 5.28ZM52.26 6.46L52.26 6.46Q52.26 4.94 51.66 3.97Q51.06 3 49.83 3L49.83 3Q49.50 3 49.11 3.04Q48.73 3.07 48.46 3.10L48.46 3.10L48.46 9.29Q48.75 9.48 49.23 9.60Q49.71 9.72 50.19 9.72L50.19 9.72Q51.25 9.72 51.75 8.87Q52.26 8.02 52.26 6.46ZM55.26 6.36L55.26 6.36Q55.26 7.66 54.97 8.75Q54.68 9.84 54.13 10.62Q53.58 11.40 52.74 11.83Q51.90 12.26 50.79 12.26L50.79 12.26Q49.66 12.26 48.46 11.71L48.46 11.71L48.46 15.96L45.51 15.96L45.51 1.08Q46.33 0.82 47.52 0.65Q48.70 0.48 49.86 0.48L49.86 0.48Q52.47 0.48 53.86 2.06Q55.26 3.65 55.26 6.36ZM66.70 0.67L66.70 0.67Q66.70 1.70 66.20 2.70Q65.70 3.70 64.62 4.37L64.62 4.37Q65.98 5.16 66.55 6.10Q67.11 7.03 67.11 8.16L67.11 8.16Q67.11 8.88 66.84 9.62Q66.56 10.37 65.95 10.96Q65.34 11.54 64.35 11.93Q63.37 12.31 61.93 12.31L61.93 12.31Q60.80 12.31 59.88 12.04Q58.95 11.76 58.29 11.24Q57.63 10.73 57.27 9.97Q56.91 9.22 56.91 8.28L56.91 8.28Q56.91 7.15 57.44 6.16Q57.97 5.16 59.10 4.39L59.10 4.39Q58.04 3.67 57.66 2.86Q57.27 2.04 57.27 1.13L57.27 1.13Q57.27 0.41 57.52-0.37Q57.78-1.15 58.33-1.78Q58.88-2.40 59.79-2.81Q60.70-3.22 62.05-3.22L62.05-3.22Q64.18-3.22 65.44-2.16Q66.70-1.10 66.70 0.67ZM64.33 8.11L64.33 8.11Q64.33 7.63 64.15 7.27Q63.97 6.91 63.57 6.61Q63.18 6.31 62.55 6.01Q61.93 5.71 61.06 5.38L61.06 5.38Q60.39 5.93 60.03 6.61Q59.67 7.30 59.67 7.92L59.67 7.92Q59.67 8.88 60.36 9.37Q61.04 9.86 61.98 9.86L61.98 9.86Q63.06 9.86 63.69 9.35Q64.33 8.83 64.33 8.11ZM62-0.77L62-0.77Q61.23-0.77 60.64-0.34Q60.06 0.10 60.06 0.94L60.06 0.94Q60.06 1.78 60.61 2.30Q61.16 2.83 62.55 3.41L62.55 3.41Q63.30 2.86 63.61 2.20Q63.92 1.54 63.92 0.91L63.92 0.91Q63.92 0.07 63.36-0.35Q62.79-0.77 62-0.77Z"/>
    </g>
</svg>