<?xml version="1.0" encoding="UTF-8"?>
<svg height="34" width="78.4" version="1.1" xmlns="http://www.w3.org/2000/svg">
    <rect
        height="32"
        width="76.4"
        rx="1"
        ry="1"
        x="1"
        y="1"
        fill="#C76F5B"
        stroke="#672f23"
        stroke-width="1"
         />
    <g transform="translate(0, 14)">
        <path fill="#672f23" d="M16.27-6.53L16.27-6.53Q19.58-6.53 21.40-5.17Q23.22-3.81 23.22-0.73L23.22-0.73Q23.22 2.38 21.38 3.76Q19.55 5.15 16.19 5.15L16.19 5.15L14.96 5.15L14.96 11L11.51 11L11.51-6.11Q12.02-6.22 12.65-6.30Q13.28-6.39 13.92-6.43Q14.56-6.47 15.18-6.50Q15.80-6.53 16.27-6.53ZM16.66-3.53L16.66-3.53Q16.36-3.53 15.81-3.52Q15.26-3.50 14.96-3.45L14.96-3.45L14.96 2.15L16.36 2.15Q18.01 2.15 18.85 1.49Q19.69 0.84 19.69-0.76L19.69-0.76Q19.69-2.27 18.86-2.90Q18.04-3.53 16.66-3.53ZM24.87 4.53L24.87 4.53Q24.87 2.80 25.40 1.48Q25.93 0.16 26.80-0.72Q27.67-1.60 28.79-2.05Q29.91-2.50 31.08-2.50L31.08-2.50Q34.00-2.50 35.51-0.77Q37.02 0.95 37.02 4.25L37.02 4.25Q37.02 4.59 37.01 4.95Q36.99 5.32 36.96 5.54L36.96 5.54L28.42 5.54Q28.42 6.83 29.49 7.57Q30.55 8.31 32.23 8.31L32.23 8.31Q33.27 8.31 34.21 8.09Q35.14 7.86 35.79 7.64L35.79 7.64L36.26 10.58Q35.37 10.89 34.36 11.10Q33.35 11.31 32.09 11.31L32.09 11.31Q30.41 11.31 29.08 10.87Q27.75 10.44 26.81 9.59Q25.88 8.73 25.37 7.47Q24.87 6.21 24.87 4.53ZM28.42 3.16L33.69 3.16Q33.69 2.63 33.55 2.14Q33.41 1.65 33.10 1.26Q32.79 0.86 32.32 0.63Q31.84 0.39 31.14 0.39L31.14 0.39Q30.47 0.39 29.98 0.61Q29.49 0.84 29.17 1.23Q28.84 1.62 28.66 2.12Q28.48 2.63 28.42 3.16L28.42 3.16ZM47.63 4.53L47.63 4.53Q47.63 2.77 46.93 1.63Q46.23 0.50 44.80 0.50L44.80 0.50Q44.41 0.50 43.96 0.54Q43.52 0.58 43.21 0.61L43.21 0.61L43.21 7.84Q43.54 8.06 44.10 8.20Q44.66 8.34 45.22 8.34L45.22 8.34Q46.46 8.34 47.04 7.35Q47.63 6.35 47.63 4.53ZM51.13 4.42L51.13 4.42Q51.13 5.93 50.80 7.21Q50.46 8.48 49.82 9.39Q49.17 10.30 48.19 10.80Q47.21 11.31 45.92 11.31L45.92 11.31Q44.61 11.31 43.21 10.66L43.21 10.66L43.21 15.62L39.76 15.62L39.76-1.74Q40.72-2.05 42.10-2.24Q43.49-2.44 44.83-2.44L44.83-2.44Q47.88-2.44 49.51-0.59Q51.13 1.26 51.13 4.42ZM64.49-2.22L64.49-2.22Q64.49-1.01 63.90 0.15Q63.31 1.31 62.05 2.10L62.05 2.10Q63.65 3.02 64.31 4.11Q64.96 5.20 64.96 6.52L64.96 6.52Q64.96 7.36 64.64 8.23Q64.32 9.10 63.61 9.78Q62.89 10.47 61.74 10.92Q60.60 11.36 58.92 11.36L58.92 11.36Q57.60 11.36 56.52 11.04Q55.44 10.72 54.67 10.12Q53.90 9.52 53.48 8.63Q53.06 7.75 53.06 6.66L53.06 6.66Q53.06 5.34 53.68 4.18Q54.30 3.02 55.61 2.12L55.61 2.12Q54.38 1.28 53.93 0.33Q53.48-0.62 53.48-1.68L53.48-1.68Q53.48-2.52 53.78-3.43Q54.07-4.34 54.72-5.07Q55.36-5.80 56.42-6.28Q57.49-6.75 59.06-6.75L59.06-6.75Q61.55-6.75 63.02-5.52Q64.49-4.29 64.49-2.22ZM61.72 6.46L61.72 6.46Q61.72 5.90 61.51 5.48Q61.30 5.06 60.83 4.71Q60.37 4.36 59.64 4.01Q58.92 3.66 57.91 3.27L57.91 3.27Q57.12 3.92 56.70 4.71Q56.28 5.51 56.28 6.24L56.28 6.24Q56.28 7.36 57.08 7.93Q57.88 8.51 58.97 8.51L58.97 8.51Q60.23 8.51 60.97 7.91Q61.72 7.30 61.72 6.46ZM59-3.90L59-3.90Q58.10-3.90 57.42-3.39Q56.73-2.89 56.73-1.91L56.73-1.91Q56.73-0.93 57.38-0.31Q58.02 0.30 59.64 0.98L59.64 0.98Q60.51 0.33 60.88-0.44Q61.24-1.21 61.24-1.94L61.24-1.94Q61.24-2.92 60.58-3.41Q59.92-3.90 59-3.90Z"/>
    </g>
</svg>