<?xml version="1.0" encoding="UTF-8"?><svg height="26" width="74.4" version="1.1" xmlns="http://www.w3.org/2000/svg"><!--Created by Josélio de S. C. Júnior - 2021 - https://github.com/joseliojunior --><rect height="24" width="72.4" rx="1" ry="1" x="1" y="1" fill="#C76F5B" stroke="#672f23" stroke-width="1" /><g transform="translate(0, 8)"><path fill="#672f23" d="M23.58-0.02L23.58-0.02Q25.47-0.02 26.51 0.76Q27.55 1.54 27.55 3.30L27.55 3.30Q27.55 5.07 26.50 5.86Q25.46 6.66 23.54 6.66L23.54 6.66L22.83 6.66L22.83 10L20.86 10L20.86 0.22Q21.15 0.16 21.51 0.11Q21.87 0.06 22.24 0.04Q22.61 0.02 22.96 0Q23.31-0.02 23.58-0.02ZM23.81 1.70L23.81 1.70Q23.63 1.70 23.32 1.70Q23.01 1.71 22.83 1.74L22.83 1.74L22.83 4.94L23.63 4.94Q24.58 4.94 25.06 4.57Q25.54 4.19 25.54 3.28L25.54 3.28Q25.54 2.42 25.06 2.06Q24.59 1.70 23.81 1.70ZM28.50 6.30L28.50 6.30Q28.50 5.31 28.80 4.56Q29.10 3.81 29.60 3.30Q30.10 2.80 30.74 2.54Q31.38 2.29 32.05 2.29L32.05 2.29Q33.71 2.29 34.58 3.27Q35.44 4.26 35.44 6.14L35.44 6.14Q35.44 6.34 35.43 6.54Q35.42 6.75 35.41 6.88L35.41 6.88L30.53 6.88Q30.53 7.62 31.14 8.04Q31.74 8.46 32.70 8.46L32.70 8.46Q33.30 8.46 33.83 8.34Q34.37 8.21 34.74 8.08L34.74 8.08L35.01 9.76Q34.50 9.94 33.92 10.06Q33.34 10.18 32.62 10.18L32.62 10.18Q31.66 10.18 30.90 9.93Q30.14 9.68 29.61 9.19Q29.07 8.70 28.78 7.98Q28.50 7.26 28.50 6.30ZM30.53 5.52L33.54 5.52Q33.54 5.22 33.46 4.94Q33.38 4.66 33.20 4.43Q33.02 4.21 32.75 4.07Q32.48 3.94 32.08 3.94L32.08 3.94Q31.70 3.94 31.42 4.06Q31.14 4.19 30.95 4.42Q30.77 4.64 30.66 4.93Q30.56 5.22 30.53 5.52L30.53 5.52ZM41.50 6.30L41.50 6.30Q41.50 5.30 41.10 4.65Q40.70 4 39.89 4L39.89 4Q39.66 4 39.41 4.02Q39.15 4.05 38.98 4.06L38.98 4.06L38.98 8.19Q39.17 8.32 39.49 8.40Q39.81 8.48 40.13 8.48L40.13 8.48Q40.83 8.48 41.17 7.91Q41.50 7.34 41.50 6.30ZM43.50 6.24L43.50 6.24Q43.50 7.10 43.31 7.83Q43.12 8.56 42.75 9.08Q42.38 9.60 41.82 9.89Q41.26 10.18 40.53 10.18L40.53 10.18Q39.78 10.18 38.98 9.81L38.98 9.81L38.98 12.64L37.01 12.64L37.01 2.72Q37.55 2.54 38.34 2.43Q39.14 2.32 39.90 2.32L39.90 2.32Q41.65 2.32 42.58 3.38Q43.50 4.43 43.50 6.24ZM51.14 2.45L51.14 2.45Q51.14 3.14 50.80 3.80Q50.46 4.46 49.74 4.91L49.74 4.91Q50.66 5.44 51.03 6.06Q51.41 6.69 51.41 7.44L51.41 7.44Q51.41 7.92 51.22 8.42Q51.04 8.91 50.63 9.30Q50.22 9.70 49.57 9.95Q48.91 10.21 47.95 10.21L47.95 10.21Q47.20 10.21 46.58 10.02Q45.97 9.84 45.53 9.50Q45.09 9.15 44.85 8.65Q44.61 8.14 44.61 7.52L44.61 7.52Q44.61 6.77 44.96 6.10Q45.31 5.44 46.06 4.93L46.06 4.93Q45.36 4.45 45.10 3.90Q44.85 3.36 44.85 2.75L44.85 2.75Q44.85 2.27 45.02 1.75Q45.18 1.23 45.55 0.82Q45.92 0.40 46.53 0.13Q47.14-0.14 48.03-0.14L48.03-0.14Q49.46-0.14 50.30 0.56Q51.14 1.26 51.14 2.45ZM49.55 7.41L49.55 7.41Q49.55 7.09 49.43 6.85Q49.31 6.61 49.05 6.41Q48.78 6.21 48.37 6.01Q47.95 5.81 47.38 5.58L47.38 5.58Q46.93 5.95 46.69 6.41Q46.45 6.86 46.45 7.28L46.45 7.28Q46.45 7.92 46.90 8.25Q47.36 8.58 47.98 8.58L47.98 8.58Q48.70 8.58 49.13 8.23Q49.55 7.89 49.55 7.41ZM48 1.49L48 1.49Q47.49 1.49 47.10 1.78Q46.70 2.06 46.70 2.62L46.70 2.62Q46.70 3.18 47.07 3.54Q47.44 3.89 48.37 4.27L48.37 4.27Q48.86 3.90 49.07 3.46Q49.28 3.02 49.28 2.61L49.28 2.61Q49.28 2.05 48.90 1.77Q48.53 1.49 48 1.49Z"/></g></svg>