<?xml version="1.0" encoding="UTF-8"?>
<svg height="26" width="66.3" version="1.1" xmlns="http://www.w3.org/2000/svg"><!--Created by Josélio de S. C. Júnior - 2021 - https://github.com/joseliojunior -->
    <defs>
        <pattern id="pattern"
                x="1.5" y="3" width="3" height="6"
                patternUnits="userSpaceOnUse"
                patternTransform="rotate(45)" >
            <rect height="6" width="1" fill="#999999"/>
        </pattern>
    </defs>
    <rect
        height="24"
        width="64.3"
        rx="12"
        ry="12"
        x="1" y="1"
        fill="url(#pattern)"
        stroke="#000000"
        stroke-width="1" />
    <g transform="translate(0, 8)">
        <path fill="#ffffff" stroke="#000000" d="M27.86 10L25.74 10L25.28 7.71L22.64 7.71L22.19 10L20.14 10Q20.85 7.07 21.57 4.66Q22.29 2.26 22.96 0.10L22.96 0.10L25.10 0.10Q25.81 2.27 26.50 4.71Q27.20 7.15 27.86 10L27.86 10ZM23.98 2.02L23.98 2.02Q23.82 2.58 23.69 3.08Q23.55 3.58 23.43 4.07Q23.31 4.56 23.21 5.06Q23.10 5.55 23.01 6.08L23.01 6.08L24.94 6.08Q24.85 5.55 24.75 5.06Q24.66 4.56 24.54 4.07Q24.42 3.58 24.28 3.08Q24.14 2.58 23.98 2.02ZM31.71 8.56L31.71 8.56Q32.21 8.56 32.54 8.46Q32.86 8.35 33.06 8.17Q33.25 7.98 33.32 7.75Q33.39 7.52 33.39 7.28L33.39 7.28Q33.39 6.98 33.22 6.74Q33.04 6.50 32.77 6.31Q32.50 6.13 32.16 5.98Q31.82 5.82 31.49 5.70L31.49 5.70Q31.04 5.54 30.56 5.33Q30.08 5.12 29.69 4.80Q29.30 4.48 29.04 4.01Q28.78 3.54 28.78 2.83L28.78 2.83Q28.78 1.44 29.69 0.66Q30.59-0.13 32.18-0.13L32.18-0.13Q33.09-0.13 33.77 0.08Q34.45 0.29 34.91 0.54L34.91 0.54L34.34 2.06Q33.94 1.84 33.45 1.68Q32.96 1.52 32.32 1.52L32.32 1.52Q30.75 1.52 30.75 2.66L30.75 2.66Q30.75 2.94 30.91 3.16Q31.07 3.38 31.32 3.54Q31.57 3.71 31.88 3.84Q32.19 3.97 32.50 4.08L32.50 4.08Q32.96 4.26 33.46 4.47Q33.97 4.69 34.39 5.05Q34.82 5.41 35.09 5.94Q35.36 6.48 35.36 7.30L35.36 7.30Q35.36 8.69 34.46 9.45Q33.55 10.21 31.71 10.21L31.71 10.21Q30.48 10.21 29.74 9.94Q29.01 9.68 28.64 9.46L28.64 9.46L29.22 7.86Q29.65 8.11 30.25 8.34Q30.85 8.56 31.71 8.56ZM43.36 8.37L43.36 10L37.14 10L37.14 0.10L39.12 0.10L39.12 8.37L43.36 8.37Z"/>
    </g>
</svg>