<?xml version="1.0" encoding="UTF-8"?>
<svg height="34" width="247.6" version="1.1" xmlns="http://www.w3.org/2000/svg">
    <rect
        height="32"
        width="245.6"
        rx="14"
        ry="14"
        x="1"
        y="1"
        fill="#A9157E"
        stroke="#200418"
        stroke-width="1"
         />
    <g transform="translate(0, 14)">
        <path fill="#200418" d="M23.75 11L20.05 11L19.24 7.00L14.62 7.00L13.84 11L10.25 11Q11.48 5.88 12.74 1.66Q14.00-2.55 15.18-6.33L15.18-6.33L18.93-6.33Q20.16-2.52 21.38 1.75Q22.60 6.02 23.75 11L23.75 11ZM16.97-2.97L16.97-2.97Q16.69-1.99 16.45-1.11Q16.22-0.23 16.01 0.63Q15.80 1.48 15.61 2.35Q15.43 3.22 15.26 4.14L15.26 4.14L18.65 4.14Q18.48 3.22 18.32 2.35Q18.15 1.48 17.94 0.63Q17.73-0.23 17.49-1.11Q17.25-1.99 16.97-2.97ZM25.76 11L25.76-1.74Q26.69-1.99 28.05-2.22Q29.40-2.44 31-2.44L31-2.44Q32.57-2.44 33.60-2.01Q34.64-1.57 35.24-0.77Q35.84 0.02 36.10 1.13Q36.35 2.24 36.35 3.58L36.35 3.58L36.35 11L32.90 11L32.90 4.03Q32.90 2.18 32.48 1.37Q32.06 0.56 30.78 0.56L30.78 0.56Q30.38 0.56 30.01 0.58Q29.63 0.61 29.21 0.67L29.21 0.67L29.21 11L25.76 11ZM42.00 6.10L42.00 0.70L39.01 0.70L39.01-2.16L42.00-2.16L42.00-5.46L45.45-6.02L45.45-2.16L50.96-2.16L50.96 0.70L45.45 0.70L45.45 6.02Q45.45 6.74 45.59 7.19Q45.73 7.64 45.98 7.89Q46.23 8.14 46.60 8.23Q46.96 8.31 47.41 8.31L47.41 8.31Q47.88 8.31 48.29 8.28Q48.70 8.26 49.07 8.19Q49.45 8.12 49.86 7.98Q50.26 7.84 50.74 7.61L50.74 7.61L51.22 10.58Q50.26 10.97 49.16 11.14Q48.05 11.31 47.02 11.31L47.02 11.31Q45.81 11.31 44.89 11.11Q43.96 10.92 43.32 10.36Q42.68 9.80 42.34 8.77Q42.00 7.75 42.00 6.10L42.00 6.10ZM79.13 5.76L79.13 5.76Q79.13 7.33 78.60 8.38Q78.07 9.43 77.16 10.06Q76.25 10.69 75.00 10.96Q73.76 11.22 72.33 11.22L72.33 11.22Q71.18 11.22 69.95 11.10Q68.72 10.97 67.51 10.72L67.51 10.72L67.51-6.11Q68.49-6.28 69.67-6.40Q70.84-6.53 71.99-6.53L71.99-6.53Q73.95-6.53 75.18-6.12Q76.42-5.72 77.12-5.06Q77.82-4.40 78.07-3.59Q78.32-2.78 78.32-1.96L78.32-1.96Q78.32-0.73 77.72 0.22Q77.12 1.17 76.11 1.73L76.11 1.73Q77.87 2.38 78.50 3.47Q79.13 4.56 79.13 5.76ZM72.80 3.41L70.96 3.41L70.96 8.12Q71.32 8.17 71.75 8.20Q72.19 8.23 72.61 8.23L72.61 8.23Q73.20 8.23 73.76 8.13Q74.32 8.03 74.75 7.77Q75.18 7.50 75.46 7.01Q75.74 6.52 75.74 5.76L75.74 5.76Q75.74 4.50 74.95 3.96Q74.15 3.41 72.80 3.41L72.80 3.41ZM70.96 0.56L72.30 0.56Q73.62 0.56 74.29-0.02Q74.96-0.59 74.96-1.60L74.96-1.60Q74.96-2.22 74.76-2.59Q74.57-2.97 74.23-3.18Q73.90-3.39 73.45-3.46Q73-3.53 72.52-3.53L72.52-3.53Q72.13-3.53 71.71-3.50Q71.29-3.48 70.96-3.42L70.96-3.42L70.96 0.56ZM92.26-2.16L92.26 10.55Q91.31 10.80 89.95 11.06Q88.60 11.31 87 11.31L87 11.31Q85.38 11.31 84.34 10.86Q83.30 10.41 82.70 9.59Q82.10 8.76 81.88 7.64Q81.65 6.52 81.65 5.18L81.65 5.18L81.65-2.16L85.10-2.16L85.10 4.73Q85.10 6.55 85.53 7.43Q85.96 8.31 87.22 8.31L87.22 8.31Q88.01 8.31 88.79 8.17L88.79 8.17L88.79-2.16L92.26-2.16ZM101.95-5.94L101.95-5.94Q101.95-4.93 101.31-4.34Q100.66-3.76 99.77-3.76L99.77-3.76Q98.87-3.76 98.24-4.34Q97.61-4.93 97.61-5.94L97.61-5.94Q97.61-6.98 98.24-7.56Q98.87-8.15 99.77-8.15L99.77-8.15Q100.66-8.15 101.31-7.56Q101.95-6.98 101.95-5.94ZM106.63 7.67L107.08 10.44Q106.01 10.94 105.07 11.13Q104.14 11.31 103.35 11.31L103.35 11.31Q102.01 11.31 101.10 10.92Q100.19 10.52 99.64 9.78Q99.10 9.04 98.87 7.98Q98.65 6.91 98.65 5.54L98.65 5.54L98.65 0.70L95.01 0.70L95.01-2.16L102.09-2.16L102.09 5.99Q102.09 7.16 102.53 7.74Q102.96 8.31 103.97 8.31L103.97 8.31Q104.44 8.31 105.12 8.19Q105.79 8.06 106.63 7.67L106.63 7.67ZM120.63 7.67L121.08 10.44Q120.99 10.50 120.70 10.64Q120.40 10.78 119.93 10.93Q119.45 11.08 118.77 11.20Q118.08 11.31 117.21 11.31L117.21 11.31Q114.83 11.31 113.74 9.89Q112.65 8.48 112.65 5.76L112.65 5.76L112.65-5.41L109.01-5.41L109.01-8.26L116.09-8.26L116.09 6.02Q116.09 7.36 116.62 7.84Q117.16 8.31 117.97 8.31L117.97 8.31Q119.00 8.31 119.70 8.03Q120.40 7.75 120.63 7.67L120.63 7.67ZM126.28 4.34L126.28 4.34Q126.28 6.10 126.94 7.22Q127.60 8.34 129.06 8.34L129.06 8.34Q129.48 8.34 129.84 8.31Q130.20 8.28 130.60 8.23L130.60 8.23L130.60 1.06Q130.20 0.84 129.70 0.68Q129.20 0.53 128.64 0.53L128.64 0.53Q127.40 0.53 126.84 1.51Q126.28 2.49 126.28 4.34ZM134.04-8.43L134.04 10.61Q133.09 10.92 131.72 11.11Q130.34 11.31 129.03 11.31L129.03 11.31Q125.95 11.31 124.37 9.49Q122.78 7.67 122.78 4.50L122.78 4.50Q122.78 1.28 124.11-0.58Q125.44-2.44 128.05-2.44L128.05-2.44Q128.75-2.44 129.42-2.29Q130.09-2.13 130.60-1.85L130.60-1.85L130.60-7.84L134.04-8.43ZM156.50 8.48L156.50 8.48Q157.36 8.48 157.94 8.30Q158.51 8.12 158.85 7.79Q159.18 7.47 159.31 7.07Q159.44 6.66 159.44 6.24L159.44 6.24Q159.44 5.71 159.13 5.29Q158.82 4.87 158.34 4.55Q157.87 4.22 157.28 3.96Q156.69 3.69 156.10 3.47L156.10 3.47Q155.32 3.19 154.48 2.82Q153.64 2.46 152.95 1.90Q152.27 1.34 151.82 0.51Q151.37-0.31 151.37-1.54L151.37-1.54Q151.37-3.98 152.95-5.35Q154.54-6.72 157.31-6.72L157.31-6.72Q158.90-6.72 160.09-6.36Q161.28-6.00 162.10-5.55L162.10-5.55L161.09-2.89Q160.39-3.28 159.53-3.56Q158.68-3.84 157.56-3.84L157.56-3.84Q154.82-3.84 154.82-1.85L154.82-1.85Q154.82-1.35 155.10-0.97Q155.38-0.59 155.81-0.30Q156.24-0.00 156.79 0.22Q157.34 0.44 157.87 0.64L157.87 0.64Q158.68 0.95 159.56 1.33Q160.44 1.70 161.19 2.33Q161.93 2.96 162.40 3.90Q162.88 4.84 162.88 6.27L162.88 6.27Q162.88 8.70 161.30 10.03Q159.72 11.36 156.50 11.36L156.50 11.36Q154.34 11.36 153.05 10.90Q151.76 10.44 151.12 10.05L151.12 10.05L152.13 7.25Q152.88 7.70 153.93 8.09Q154.98 8.48 156.50 8.48ZM173.69-2.16L177.22-2.16Q176.68-0.31 176.19 1.47Q175.70 3.24 175.17 4.94Q174.64 6.63 174.04 8.26Q173.44 9.88 172.74 11.42L172.74 11.42Q172.20 12.54 171.69 13.35Q171.17 14.16 170.54 14.68Q169.91 15.20 169.14 15.45Q168.37 15.70 167.33 15.70L167.33 15.70Q166.46 15.70 165.75 15.56Q165.04 15.42 164.56 15.20L164.56 15.20L165.20 12.32Q165.76 12.57 166.20 12.67Q166.63 12.76 167.14 12.76L167.14 12.76Q168.14 12.76 168.76 12.09Q169.38 11.42 169.74 10.50L169.74 10.50Q168.51 8.03 167.28 4.85Q166.04 1.68 165.04-2.16L165.04-2.16L168.62-2.16Q168.87-1.12 169.19 0.05Q169.52 1.23 169.88 2.40Q170.24 3.58 170.65 4.71Q171.06 5.85 171.48 6.83L171.48 6.83Q171.76 5.85 172.06 4.71Q172.37 3.58 172.65 2.42Q172.93 1.26 173.20 0.08Q173.46-1.10 173.69-2.16L173.69-2.16ZM184.38 8.40L184.38 8.40Q185.64 8.40 186.32 8.21Q186.99 8.03 186.99 7.47L186.99 7.47Q186.99 7.11 186.78 6.86Q186.57 6.60 186.19 6.42Q185.81 6.24 185.32 6.07Q184.83 5.90 184.30 5.74L184.30 5.74Q183.54 5.51 182.76 5.22Q181.98 4.92 181.33 4.48Q180.69 4.03 180.27 3.34Q179.85 2.66 179.85 1.62L179.85 1.62Q179.85 0.78 180.17 0.04Q180.49-0.70 181.18-1.28Q181.86-1.85 182.93-2.17Q183.99-2.50 185.48-2.50L185.48-2.50Q186.76-2.50 187.87-2.30Q188.98-2.10 189.79-1.74L189.79-1.74L189.26 1.17Q188.78 1.03 187.77 0.71Q186.76 0.39 185.50 0.39L185.50 0.39Q184.19 0.39 183.73 0.71Q183.26 1.03 183.26 1.40L183.26 1.40Q183.26 1.70 183.47 1.94Q183.68 2.18 184.03 2.38Q184.38 2.57 184.85 2.75Q185.31 2.94 185.84 3.10L185.84 3.10Q186.60 3.36 187.41 3.66Q188.22 3.97 188.88 4.43Q189.54 4.90 189.96 5.61Q190.38 6.32 190.38 7.36L190.38 7.36Q190.38 8.17 190.07 8.90Q189.76 9.63 189.05 10.16Q188.33 10.69 187.18 11Q186.04 11.31 184.36 11.31L184.36 11.31Q182.65 11.31 181.44 10.92Q180.24 10.52 179.51 10.22L179.51 10.22L180.04 7.33Q181.02 7.72 182.13 8.06Q183.24 8.40 184.38 8.40ZM196.00 6.10L196.00 0.70L193.01 0.70L193.01-2.16L196.00-2.16L196.00-5.46L199.45-6.02L199.45-2.16L204.96-2.16L204.96 0.70L199.45 0.70L199.45 6.02Q199.45 6.74 199.59 7.19Q199.73 7.64 199.98 7.89Q200.23 8.14 200.60 8.23Q200.96 8.31 201.41 8.31L201.41 8.31Q201.88 8.31 202.29 8.28Q202.70 8.26 203.07 8.19Q203.45 8.12 203.86 7.98Q204.26 7.84 204.74 7.61L204.74 7.61L205.22 10.58Q204.26 10.97 203.16 11.14Q202.05 11.31 201.02 11.31L201.02 11.31Q199.81 11.31 198.89 11.11Q197.96 10.92 197.32 10.36Q196.68 9.80 196.34 8.77Q196.00 7.75 196.00 6.10L196.00 6.10ZM206.87 4.53L206.87 4.53Q206.87 2.80 207.40 1.48Q207.93 0.16 208.80-0.72Q209.67-1.60 210.79-2.05Q211.91-2.50 213.08-2.50L213.08-2.50Q216.00-2.50 217.51-0.77Q219.02 0.95 219.02 4.25L219.02 4.25Q219.02 4.59 219.01 4.95Q218.99 5.32 218.96 5.54L218.96 5.54L210.42 5.54Q210.42 6.83 211.49 7.57Q212.55 8.31 214.23 8.31L214.23 8.31Q215.27 8.31 216.21 8.09Q217.14 7.86 217.79 7.64L217.79 7.64L218.26 10.58Q217.37 10.89 216.36 11.10Q215.35 11.31 214.09 11.31L214.09 11.31Q212.41 11.31 211.08 10.87Q209.75 10.44 208.81 9.59Q207.88 8.73 207.37 7.47Q206.87 6.21 206.87 4.53ZM210.42 3.16L215.69 3.16Q215.69 2.63 215.55 2.14Q215.41 1.65 215.10 1.26Q214.79 0.86 214.32 0.63Q213.84 0.39 213.14 0.39L213.14 0.39Q212.47 0.39 211.98 0.61Q211.49 0.84 211.17 1.23Q210.84 1.62 210.66 2.12Q210.48 2.63 210.42 3.16L210.42 3.16ZM229.60-2.30L229.60-2.30Q230.70-2.30 231.40-1.96Q232.10-1.63 232.50-0.96Q232.91-0.28 233.05 0.74Q233.19 1.76 233.19 3.13L233.19 3.13L233.19 11L230.39 11L230.39 2.96Q230.39 2.18 230.29 1.70Q230.19 1.23 230.04 0.98Q229.88 0.72 229.67 0.64Q229.46 0.56 229.24 0.56L229.24 0.56Q228.99 0.56 228.71 0.60Q228.43 0.64 228.20 0.75L228.20 0.75Q228.29 1.28 228.34 1.93Q228.40 2.57 228.40 3.36L228.40 3.36L228.40 5.99L225.60 5.99L225.60 2.96Q225.60 1.62 225.33 1.09Q225.07 0.56 224.48 0.56L224.48 0.56Q224.31 0.56 224.07 0.58Q223.84 0.61 223.61 0.67L223.61 0.67L223.61 11L220.81 11L220.81-1.66Q221.90-1.96 222.97-2.13Q224.03-2.30 224.84-2.30L224.84-2.30Q225.57-2.30 226.15-2.12Q226.72-1.94 227.14-1.52L227.14-1.52Q227.62-1.82 228.26-2.06Q228.90-2.30 229.60-2.30Z"/>
    </g>
</svg>