<?xml version="1.0" encoding="UTF-8"?>
<svg height="34" width="177.1" version="1.1" xmlns="http://www.w3.org/2000/svg">
    <rect
        height="32"
        width="175.1"
        rx="1"
        ry="1"
        x="1"
        y="1"
        fill="#3d57c3"
        stroke="#18234e"
        stroke-width="1"
         />
    <g transform="translate(0, 14)">
        <path fill="#18234e" d="M19.60-2.30L19.60-2.30Q20.70-2.30 21.40-1.96Q22.10-1.63 22.50-0.96Q22.91-0.28 23.05 0.74Q23.19 1.76 23.19 3.13L23.19 3.13L23.19 11L20.39 11L20.39 2.96Q20.39 2.18 20.29 1.70Q20.19 1.23 20.04 0.98Q19.88 0.72 19.67 0.64Q19.46 0.56 19.24 0.56L19.24 0.56Q18.99 0.56 18.71 0.60Q18.43 0.64 18.20 0.75L18.20 0.75Q18.29 1.28 18.34 1.93Q18.40 2.57 18.40 3.36L18.40 3.36L18.40 5.99L15.60 5.99L15.60 2.96Q15.60 1.62 15.33 1.09Q15.07 0.56 14.48 0.56L14.48 0.56Q14.31 0.56 14.07 0.58Q13.84 0.61 13.61 0.67L13.61 0.67L13.61 11L10.81 11L10.81-1.66Q11.90-1.96 12.97-2.13Q14.03-2.30 14.84-2.30L14.84-2.30Q15.57-2.30 16.15-2.12Q16.72-1.94 17.14-1.52L17.14-1.52Q17.62-1.82 18.26-2.06Q18.90-2.30 19.60-2.30ZM36.52 11L25.51 11L25.51 8.14L29.29 8.14L29.29-3.48L25.51-3.48L25.51-6.33L36.52-6.33L36.52-3.48L32.76-3.48L32.76 8.14L36.52 8.14L36.52 11ZM43.99-6.53L43.99-6.53Q45.48-6.53 46.68-6.19Q47.88-5.86 48.75-5.16Q49.62-4.46 50.08-3.38Q50.54-2.30 50.54-0.84L50.54-0.84Q50.54 0.67 49.93 1.90Q49.31 3.13 47.88 3.78L47.88 3.78Q48.36 4.50 48.89 5.39Q49.42 6.27 49.93 7.23Q50.43 8.20 50.89 9.17Q51.36 10.13 51.69 11L51.69 11L48.08 11Q47.44 9.32 46.58 7.77Q45.73 6.21 44.75 4.62L44.75 4.62L42.96 4.62L42.96 11L39.51 11L39.51-6.08Q40.02-6.19 40.62-6.29Q41.22-6.39 41.84-6.43Q42.45-6.47 43.01-6.50Q43.57-6.53 43.99-6.53ZM47.04-0.87L47.04-0.87Q47.04-2.24 46.20-2.89Q45.36-3.53 43.99-3.53L43.99-3.53Q43.80-3.53 43.52-3.52Q43.24-3.50 42.96-3.45L42.96-3.45L42.96 1.76L43.71 1.76Q45.48 1.76 46.26 1.07Q47.04 0.39 47.04-0.87ZM60.29 11.36L60.29 11.36Q56.62 11.36 54.69 9.01Q52.76 6.66 52.76 2.32L52.76 2.32Q52.76 0.16 53.34-1.52Q53.93-3.20 54.98-4.36Q56.03-5.52 57.47-6.12Q58.92-6.72 60.62-6.72L60.62-6.72Q61.55-6.72 62.29-6.57Q63.03-6.42 63.59-6.22Q64.15-6.02 64.53-5.80Q64.91-5.58 65.10-5.46L65.10-5.46L64.21-2.72Q63.56-3.14 62.65-3.43Q61.74-3.73 60.57-3.73L60.57-3.73Q59.76-3.73 58.99-3.43Q58.22-3.14 57.61-2.45Q57.01-1.77 56.63-0.62Q56.26 0.53 56.26 2.24L56.26 2.24Q56.26 5.20 57.28 6.79Q58.30 8.37 60.62 8.37L60.62 8.37Q61.97 8.37 62.85 8.06Q63.73 7.75 64.26 7.44L64.26 7.44L65.13 10.16Q64.40 10.61 63.16 10.99Q61.91 11.36 60.29 11.36ZM86.50 8.48L86.50 8.48Q87.36 8.48 87.94 8.30Q88.51 8.12 88.85 7.79Q89.18 7.47 89.31 7.07Q89.44 6.66 89.44 6.24L89.44 6.24Q89.44 5.71 89.13 5.29Q88.82 4.87 88.34 4.55Q87.87 4.22 87.28 3.96Q86.69 3.69 86.10 3.47L86.10 3.47Q85.32 3.19 84.48 2.82Q83.64 2.46 82.95 1.90Q82.27 1.34 81.82 0.51Q81.37-0.31 81.37-1.54L81.37-1.54Q81.37-3.98 82.95-5.35Q84.54-6.72 87.31-6.72L87.31-6.72Q88.90-6.72 90.09-6.36Q91.28-6.00 92.10-5.55L92.10-5.55L91.09-2.89Q90.39-3.28 89.53-3.56Q88.68-3.84 87.56-3.84L87.56-3.84Q84.82-3.84 84.82-1.85L84.82-1.85Q84.82-1.35 85.10-0.97Q85.38-0.59 85.81-0.30Q86.24-0.00 86.79 0.22Q87.34 0.44 87.87 0.64L87.87 0.64Q88.68 0.95 89.56 1.33Q90.44 1.70 91.19 2.33Q91.93 2.96 92.40 3.90Q92.88 4.84 92.88 6.27L92.88 6.27Q92.88 8.70 91.30 10.03Q89.72 11.36 86.50 11.36L86.50 11.36Q84.34 11.36 83.05 10.90Q81.76 10.44 81.12 10.05L81.12 10.05L82.13 7.25Q82.88 7.70 83.93 8.09Q84.98 8.48 86.50 8.48ZM95.23 4.42L95.23 4.42Q95.23 2.99 95.68 1.73Q96.13 0.47 97.05-0.47Q97.98-1.40 99.39-1.95Q100.80-2.50 102.76-2.50L102.76-2.50Q103.94-2.50 104.89-2.33Q105.84-2.16 106.82-1.77L106.82-1.77L106.07 1.00Q105.51 0.81 104.82 0.65Q104.14 0.50 103.07 0.50L103.07 0.50Q101.84 0.50 101.01 0.79Q100.19 1.09 99.68 1.61Q99.18 2.12 98.96 2.85Q98.73 3.58 98.73 4.42L98.73 4.42Q98.73 6.24 99.75 7.28Q100.78 8.31 103.24 8.31L103.24 8.31Q104.05 8.31 104.93 8.20Q105.82 8.09 106.54 7.84L106.54 7.84L107.05 10.66Q106.32 10.94 105.28 11.13Q104.25 11.31 102.85 11.31L102.85 11.31Q100.83 11.31 99.39 10.78Q97.95 10.24 97.02 9.32Q96.10 8.40 95.67 7.14Q95.23 5.88 95.23 4.42ZM120.85-1.85L120.24 1.34Q119.90 1.26 119.44 1.17Q118.98 1.09 118.50 1.02Q118.02 0.95 117.58 0.92Q117.13 0.89 116.82 0.89L116.82 0.89Q116.09 0.89 115.39 0.96Q114.69 1.03 113.96 1.23L113.96 1.23L113.96 11L110.49 11L110.49-1.29Q111.86-1.80 113.31-2.10Q114.75-2.41 116.68-2.41L116.68-2.41Q116.96-2.41 117.48-2.38Q118.00-2.36 118.58-2.29Q119.17-2.22 119.77-2.12Q120.38-2.02 120.85-1.85L120.85-1.85ZM129.95-5.94L129.95-5.94Q129.95-4.93 129.31-4.34Q128.66-3.76 127.77-3.76L127.77-3.76Q126.87-3.76 126.24-4.34Q125.61-4.93 125.61-5.94L125.61-5.94Q125.61-6.98 126.24-7.56Q126.87-8.15 127.77-8.15L127.77-8.15Q128.66-8.15 129.31-7.56Q129.95-6.98 129.95-5.94ZM134.63 7.67L135.08 10.44Q134.01 10.94 133.07 11.13Q132.14 11.31 131.35 11.31L131.35 11.31Q130.01 11.31 129.10 10.92Q128.19 10.52 127.64 9.78Q127.10 9.04 126.87 7.98Q126.65 6.91 126.65 5.54L126.65 5.54L126.65 0.70L123.01 0.70L123.01-2.16L130.09-2.16L130.09 5.99Q130.09 7.16 130.53 7.74Q130.96 8.31 131.97 8.31L131.97 8.31Q132.44 8.31 133.12 8.19Q133.79 8.06 134.63 7.67L134.63 7.67ZM145.63 4.53L145.63 4.53Q145.63 2.77 144.93 1.63Q144.23 0.50 142.80 0.50L142.80 0.50Q142.41 0.50 141.96 0.54Q141.52 0.58 141.21 0.61L141.21 0.61L141.21 7.84Q141.54 8.06 142.10 8.20Q142.66 8.34 143.22 8.34L143.22 8.34Q144.46 8.34 145.04 7.35Q145.63 6.35 145.63 4.53ZM149.13 4.42L149.13 4.42Q149.13 5.93 148.80 7.21Q148.46 8.48 147.82 9.39Q147.17 10.30 146.19 10.80Q145.21 11.31 143.92 11.31L143.92 11.31Q142.61 11.31 141.21 10.66L141.21 10.66L141.21 15.62L137.76 15.62L137.76-1.74Q138.72-2.05 140.10-2.24Q141.49-2.44 142.83-2.44L142.83-2.44Q145.88-2.44 147.51-0.59Q149.13 1.26 149.13 4.42ZM154.00 6.10L154.00 0.70L151.01 0.70L151.01-2.16L154.00-2.16L154.00-5.46L157.45-6.02L157.45-2.16L162.96-2.16L162.96 0.70L157.45 0.70L157.45 6.02Q157.45 6.74 157.59 7.19Q157.73 7.64 157.98 7.89Q158.23 8.14 158.60 8.23Q158.96 8.31 159.41 8.31L159.41 8.31Q159.88 8.31 160.29 8.28Q160.70 8.26 161.07 8.19Q161.45 8.12 161.86 7.98Q162.26 7.84 162.74 7.61L162.74 7.61L163.22 10.58Q162.26 10.97 161.16 11.14Q160.05 11.31 159.02 11.31L159.02 11.31Q157.81 11.31 156.89 11.11Q155.96 10.92 155.32 10.36Q154.68 9.80 154.34 8.77Q154.00 7.75 154.00 6.10L154.00 6.10Z"/>
    </g>
</svg>