<?xml version="1.0" encoding="UTF-8"?>
<svg height="34" width="102.5" version="1.1" xmlns="http://www.w3.org/2000/svg"><!--Created by Josélio de S. C. Júnior - 2021 - https://github.com/joseliojunior -->
    <rect
        height="32"
        width="100.5"
        rx="16"
        ry="16"
        x="1" y="1"
        fill="#3f8000"
        stroke="#8cff1a"
        stroke-width="1" />
    <g transform="translate(0, 12)">
        <path fill="#8cff1a" stroke="none" d="M27.10 12.31L27.10 12.31Q23.96 12.31 22.30 10.30Q20.65 8.28 20.65 4.56L20.65 4.56Q20.65 2.71 21.15 1.27Q21.66-0.17 22.56-1.16Q23.46-2.16 24.69-2.68Q25.93-3.19 27.39-3.19L27.39-3.19Q28.18-3.19 28.82-3.06Q29.46-2.93 29.94-2.76Q30.42-2.59 30.74-2.40Q31.06-2.21 31.23-2.11L31.23-2.11L30.46 0.24Q29.91-0.12 29.13-0.37Q28.35-0.62 27.34-0.62L27.34-0.62Q26.65-0.62 25.99-0.37Q25.33-0.12 24.81 0.47Q24.30 1.06 23.97 2.04Q23.65 3.02 23.65 4.49L23.65 4.49Q23.65 7.03 24.52 8.39Q25.40 9.74 27.39 9.74L27.39 9.74Q28.54 9.74 29.30 9.48Q30.06 9.22 30.51 8.95L30.51 8.95L31.26 11.28Q30.63 11.66 29.56 11.99Q28.50 12.31 27.10 12.31ZM36.46 12L33.51 12L33.51-4.15L36.46-4.66L36.46 0.82Q36.82 0.70 37.33 0.59Q37.83 0.48 38.22 0.48L38.22 0.48Q39.46 0.48 40.30 0.85Q41.14 1.22 41.65 1.91Q42.15 2.59 42.37 3.54Q42.58 4.49 42.58 5.64L42.58 5.64L42.58 12L39.63 12L39.63 6.02Q39.63 4.44 39.27 3.74Q38.91 3.05 37.90 3.05L37.90 3.05Q37.50 3.05 37.10 3.14Q36.70 3.24 36.46 3.31L36.46 3.31L36.46 12ZM54.51 0.72L54.51 11.62Q53.70 11.83 52.53 12.05Q51.37 12.26 50 12.26L50 12.26Q48.61 12.26 47.72 11.88Q46.83 11.50 46.32 10.79Q45.80 10.08 45.61 9.12Q45.42 8.16 45.42 7.01L45.42 7.01L45.42 0.72L48.37 0.72L48.37 6.62Q48.37 8.18 48.74 8.94Q49.11 9.70 50.19 9.70L50.19 9.70Q50.86 9.70 51.54 9.58L51.54 9.58L51.54 0.72L54.51 0.72ZM57.06 6.36L57.06 6.36Q57.06 5.14 57.44 4.06Q57.82 2.98 58.62 2.17Q59.41 1.37 60.62 0.90Q61.83 0.43 63.51 0.43L63.51 0.43Q64.52 0.43 65.34 0.58Q66.15 0.72 66.99 1.06L66.99 1.06L66.34 3.43Q65.86 3.26 65.28 3.13Q64.69 3 63.78 3L63.78 3Q62.72 3 62.01 3.25Q61.30 3.50 60.87 3.95Q60.44 4.39 60.25 5.02Q60.06 5.64 60.06 6.36L60.06 6.36Q60.06 7.92 60.93 8.81Q61.81 9.70 63.92 9.70L63.92 9.70Q64.62 9.70 65.37 9.60Q66.13 9.50 66.75 9.29L66.75 9.29L67.18 11.71Q66.56 11.95 65.67 12.11Q64.78 12.26 63.58 12.26L63.58 12.26Q61.86 12.26 60.62 11.81Q59.38 11.35 58.59 10.56Q57.80 9.77 57.43 8.69Q57.06 7.61 57.06 6.36ZM79.74 12L76.40 12Q76.14 11.16 75.64 10.19Q75.15 9.22 74.55 8.29Q73.95 7.37 73.29 6.56Q72.63 5.76 72.03 5.21L72.03 5.21L72.03 12L69.08 12L69.08-2.86L72.03-2.86L72.03 3.31Q72.56 2.64 73.14 1.82Q73.71 1.01 74.23 0.19Q74.74-0.62 75.18-1.42Q75.61-2.21 75.90-2.86L75.90-2.86L79.23-2.86Q78.90-2.21 78.43-1.38Q77.96-0.55 77.36 0.35Q76.76 1.25 76.08 2.18Q75.39 3.12 74.65 3.98L74.65 3.98Q75.39 4.70 76.16 5.64Q76.93 6.58 77.61 7.64Q78.30 8.71 78.85 9.83Q79.40 10.94 79.74 12L79.74 12Z"/>
    </g>
</svg>