<?xml version="1.0" encoding="UTF-8"?>
<svg height="26" width="82.5" version="1.1" xmlns="http://www.w3.org/2000/svg"><!--Created by Josélio de S. C. Júnior - 2021 - https://github.com/joseliojunior -->
    <rect
        height="24"
        width="80.5"
        rx="1"
        ry="1"
        x="1" y="1"
        fill="#3f8000"
        stroke="#8cff1a"
        stroke-width="1" />
    <g transform="translate(0, 8)">
        <path fill="#8cff1a" stroke="none" d="M24.74 10.21L24.74 10.21Q22.64 10.21 21.54 8.86Q20.43 7.52 20.43 5.04L20.43 5.04Q20.43 3.81 20.77 2.85Q21.10 1.89 21.70 1.22Q22.30 0.56 23.13 0.22Q23.95-0.13 24.93-0.13L24.93-0.13Q25.46-0.13 25.88-0.04Q26.30 0.05 26.62 0.16Q26.94 0.27 27.16 0.40Q27.38 0.53 27.49 0.59L27.49 0.59L26.98 2.16Q26.61 1.92 26.09 1.75Q25.57 1.58 24.90 1.58L24.90 1.58Q24.43 1.58 23.99 1.75Q23.55 1.92 23.21 2.31Q22.86 2.70 22.65 3.36Q22.43 4.02 22.43 4.99L22.43 4.99Q22.43 6.69 23.02 7.59Q23.60 8.50 24.93 8.50L24.93 8.50Q25.70 8.50 26.20 8.32Q26.70 8.14 27.01 7.97L27.01 7.97L27.50 9.52Q27.09 9.78 26.38 9.99Q25.66 10.21 24.74 10.21ZM30.98 10L29.01 10L29.01-0.77L30.98-1.10L30.98 2.54Q31.22 2.46 31.55 2.39Q31.89 2.32 32.14 2.32L32.14 2.32Q32.98 2.32 33.54 2.57Q34.10 2.82 34.43 3.27Q34.77 3.73 34.91 4.36Q35.06 4.99 35.06 5.76L35.06 5.76L35.06 10L33.09 10L33.09 6.02Q33.09 4.96 32.85 4.50Q32.61 4.03 31.94 4.03L31.94 4.03Q31.66 4.03 31.40 4.10Q31.14 4.16 30.98 4.21L30.98 4.21L30.98 10ZM43.01 2.48L43.01 9.74Q42.46 9.89 41.69 10.03Q40.91 10.18 40 10.18L40 10.18Q39.07 10.18 38.48 9.92Q37.89 9.66 37.54 9.19Q37.20 8.72 37.07 8.08Q36.94 7.44 36.94 6.67L36.94 6.67L36.94 2.48L38.91 2.48L38.91 6.42Q38.91 7.46 39.16 7.96Q39.41 8.46 40.13 8.46L40.13 8.46Q40.58 8.46 41.02 8.38L41.02 8.38L41.02 2.48L43.01 2.48ZM44.70 6.24L44.70 6.24Q44.70 5.42 44.96 4.70Q45.22 3.98 45.74 3.45Q46.27 2.91 47.08 2.60Q47.89 2.29 49.01 2.29L49.01 2.29Q49.68 2.29 50.22 2.38Q50.77 2.48 51.33 2.70L51.33 2.70L50.90 4.29Q50.58 4.18 50.18 4.09Q49.79 4 49.18 4L49.18 4Q48.48 4 48.01 4.17Q47.54 4.34 47.25 4.63Q46.96 4.93 46.83 5.34Q46.70 5.76 46.70 6.24L46.70 6.24Q46.70 7.28 47.29 7.87Q47.87 8.46 49.28 8.46L49.28 8.46Q49.74 8.46 50.25 8.40Q50.75 8.34 51.17 8.19L51.17 8.19L51.46 9.81Q51.04 9.97 50.45 10.07Q49.86 10.18 49.06 10.18L49.06 10.18Q47.90 10.18 47.08 9.87Q46.26 9.57 45.73 9.04Q45.20 8.51 44.95 7.79Q44.70 7.07 44.70 6.24ZM59.82 10L57.60 10Q57.42 9.44 57.10 8.79Q56.77 8.14 56.37 7.53Q55.97 6.91 55.53 6.38Q55.09 5.84 54.69 5.47L54.69 5.47L54.69 10L52.72 10L52.72 0.10L54.69 0.10L54.69 4.21Q55.04 3.76 55.42 3.22Q55.81 2.67 56.15 2.13Q56.50 1.58 56.78 1.06Q57.07 0.53 57.26 0.10L57.26 0.10L59.49 0.10Q59.26 0.53 58.95 1.08Q58.64 1.63 58.24 2.23Q57.84 2.83 57.38 3.46Q56.93 4.08 56.43 4.66L56.43 4.66Q56.93 5.14 57.44 5.76Q57.95 6.38 58.41 7.10Q58.86 7.81 59.23 8.55Q59.60 9.30 59.82 10L59.82 10Z"/>
    </g>
</svg>