<?xml version="1.0" encoding="UTF-8"?>
<svg height="26" width="98.69999999999999" version="1.1" xmlns="http://www.w3.org/2000/svg"><!--Created by Josélio de S. C. Júnior - 2021 - https://github.com/joseliojunior -->
    <rect
        height="24"
        width="96.69999999999999"
        rx="12"
        ry="12"
        x="1" y="1"
        fill="#6600cc"
        stroke="#1a0033"
        stroke-width="1" />
    <g transform="translate(0, 8)">
        <path fill="#1a0033" d="M23.58-0.02L23.58-0.02Q25.47-0.02 26.51 0.76Q27.55 1.54 27.55 3.30L27.55 3.30Q27.55 5.07 26.50 5.86Q25.46 6.66 23.54 6.66L23.54 6.66L22.83 6.66L22.83 10L20.86 10L20.86 0.22Q21.15 0.16 21.51 0.11Q21.87 0.06 22.24 0.04Q22.61 0.02 22.96 0Q23.31-0.02 23.58-0.02ZM23.81 1.70L23.81 1.70Q23.63 1.70 23.32 1.70Q23.01 1.71 22.83 1.74L22.83 1.74L22.83 4.94L23.63 4.94Q24.58 4.94 25.06 4.57Q25.54 4.19 25.54 3.28L25.54 3.28Q25.54 2.42 25.06 2.06Q24.59 1.70 23.81 1.70ZM32.02 8.59L32.02 8.59Q32.34 8.59 32.64 8.58Q32.94 8.58 33.17 8.54L33.17 8.54L33.17 6.82Q32.98 6.78 32.70 6.76Q32.43 6.74 32.21 6.74L32.21 6.74Q31.90 6.74 31.62 6.78Q31.33 6.82 31.11 6.91Q30.90 7.01 30.77 7.18Q30.64 7.36 30.64 7.65L30.64 7.65Q30.64 8.16 31.02 8.38Q31.41 8.59 32.02 8.59ZM31.84 2.29L31.84 2.29Q32.77 2.29 33.38 2.50Q34 2.72 34.37 3.11Q34.74 3.50 34.90 4.07Q35.06 4.64 35.06 5.34L35.06 5.34L35.06 9.82Q34.62 9.92 33.78 10.05Q32.93 10.18 31.87 10.18L31.87 10.18Q31.15 10.18 30.57 10.05Q29.98 9.92 29.57 9.62Q29.15 9.33 28.93 8.86Q28.70 8.38 28.70 7.70L28.70 7.70Q28.70 7.04 28.96 6.59Q29.22 6.14 29.65 5.87Q30.08 5.60 30.64 5.48Q31.20 5.36 31.81 5.36L31.81 5.36Q32.58 5.36 33.17 5.49L33.17 5.49L33.17 5.25Q33.17 4.69 32.82 4.31Q32.46 3.94 31.60 3.94L31.60 3.94Q31.04 3.94 30.52 4.02Q30 4.10 29.68 4.21L29.68 4.21L29.41 2.62Q29.78 2.50 30.45 2.39Q31.12 2.29 31.84 2.29ZM41.50 6.30L41.50 6.30Q41.50 5.30 41.10 4.65Q40.70 4 39.89 4L39.89 4Q39.66 4 39.41 4.02Q39.15 4.05 38.98 4.06L38.98 4.06L38.98 8.19Q39.17 8.32 39.49 8.40Q39.81 8.48 40.13 8.48L40.13 8.48Q40.83 8.48 41.17 7.91Q41.50 7.34 41.50 6.30ZM43.50 6.24L43.50 6.24Q43.50 7.10 43.31 7.83Q43.12 8.56 42.75 9.08Q42.38 9.60 41.82 9.89Q41.26 10.18 40.53 10.18L40.53 10.18Q39.78 10.18 38.98 9.81L38.98 9.81L38.98 12.64L37.01 12.64L37.01 2.72Q37.55 2.54 38.34 2.43Q39.14 2.32 39.90 2.32L39.90 2.32Q41.65 2.32 42.58 3.38Q43.50 4.43 43.50 6.24ZM49.54 2.48L51.55 2.48Q51.25 3.54 50.97 4.55Q50.69 5.57 50.38 6.54Q50.08 7.50 49.74 8.43Q49.39 9.36 48.99 10.24L48.99 10.24Q48.69 10.88 48.39 11.34Q48.10 11.81 47.74 12.10Q47.38 12.40 46.94 12.54Q46.50 12.69 45.90 12.69L45.90 12.69Q45.41 12.69 45 12.61Q44.59 12.53 44.32 12.40L44.32 12.40L44.69 10.75Q45.01 10.90 45.26 10.95Q45.50 11.01 45.79 11.01L45.79 11.01Q46.37 11.01 46.72 10.62Q47.07 10.24 47.28 9.71L47.28 9.71Q46.58 8.30 45.87 6.49Q45.17 4.67 44.59 2.48L44.59 2.48L46.64 2.48Q46.78 3.07 46.97 3.74Q47.15 4.42 47.36 5.09Q47.57 5.76 47.80 6.41Q48.03 7.06 48.27 7.62L48.27 7.62Q48.43 7.06 48.61 6.41Q48.78 5.76 48.94 5.10Q49.10 4.43 49.26 3.76Q49.41 3.09 49.54 2.48L49.54 2.48ZM59.34 2.66L58.99 4.48Q58.80 4.43 58.54 4.38Q58.27 4.34 58 4.30Q57.73 4.26 57.47 4.24Q57.22 4.22 57.04 4.22L57.04 4.22Q56.62 4.22 56.22 4.26Q55.82 4.30 55.41 4.42L55.41 4.42L55.41 10L53.42 10L53.42 2.98Q54.21 2.69 55.03 2.51Q55.86 2.34 56.96 2.34L56.96 2.34Q57.12 2.34 57.42 2.35Q57.71 2.37 58.05 2.41Q58.38 2.45 58.73 2.50Q59.07 2.56 59.34 2.66L59.34 2.66ZM67.01 2.48L67.01 9.74Q66.46 9.89 65.69 10.03Q64.91 10.18 64 10.18L64 10.18Q63.07 10.18 62.48 9.92Q61.89 9.66 61.54 9.19Q61.20 8.72 61.07 8.08Q60.94 7.44 60.94 6.67L60.94 6.67L60.94 2.48L62.91 2.48L62.91 6.42Q62.91 7.46 63.16 7.96Q63.41 8.46 64.13 8.46L64.13 8.46Q64.58 8.46 65.02 8.38L65.02 8.38L65.02 2.48L67.01 2.48ZM71.65 8.51L71.65 8.51Q72.37 8.51 72.75 8.41Q73.14 8.30 73.14 7.98L73.14 7.98Q73.14 7.78 73.02 7.63Q72.90 7.49 72.68 7.38Q72.46 7.28 72.18 7.18Q71.90 7.09 71.60 6.99L71.60 6.99Q71.17 6.86 70.72 6.70Q70.27 6.53 69.90 6.27Q69.54 6.02 69.30 5.62Q69.06 5.23 69.06 4.64L69.06 4.64Q69.06 4.16 69.24 3.74Q69.42 3.31 69.82 2.98Q70.21 2.66 70.82 2.47Q71.42 2.29 72.27 2.29L72.27 2.29Q73.01 2.29 73.64 2.40Q74.27 2.51 74.74 2.72L74.74 2.72L74.43 4.38Q74.16 4.30 73.58 4.12Q73.01 3.94 72.29 3.94L72.29 3.94Q71.54 3.94 71.27 4.12Q71.01 4.30 71.01 4.51L71.01 4.51Q71.01 4.69 71.13 4.82Q71.25 4.96 71.45 5.07Q71.65 5.18 71.91 5.29Q72.18 5.39 72.48 5.49L72.48 5.49Q72.91 5.63 73.38 5.81Q73.84 5.98 74.22 6.25Q74.59 6.51 74.83 6.92Q75.07 7.33 75.07 7.92L75.07 7.92Q75.07 8.38 74.90 8.80Q74.72 9.22 74.31 9.52Q73.90 9.82 73.25 10Q72.59 10.18 71.63 10.18L71.63 10.18Q70.66 10.18 69.97 9.95Q69.28 9.73 68.86 9.55L68.86 9.55L69.17 7.90Q69.73 8.13 70.36 8.32Q70.99 8.51 71.65 8.51Z"/>
    </g>
</svg>