<?xml version="1.0" encoding="UTF-8"?>
<svg height="322" width="114.6" version="1.1" xmlns="http://www.w3.org/2000/svg"><!--Created by Josélio de S. C. Júnior - 2021 - https://github.com/joseliojunior -->
    <defs>
        <pattern id="pattern"
                x="1.5" y="3" width="3" height="6"
                patternUnits="userSpaceOnUse"
                patternTransform="rotate(45)" >
            <rect height="6" width="1" fill="#999999"/>
        </pattern>
    </defs>
    <rect
        height="32"
        width="112.6"
        rx="1"
        ry="1"
        x="1" y="1"
        fill="url(#pattern)"
        stroke="#000000"
        stroke-width="1" />
    <g transform="translate(0, 12)">
        <path fill="#ffffff" stroke="#000000" d="M21.42-2.86L23.86-2.86Q24.03-2.35 24.28-1.56Q24.54-0.77 24.82 0.14Q25.11 1.06 25.40 1.99Q25.69 2.93 25.95 3.72L25.95 3.72Q26.24 2.83 26.55 1.88Q26.86 0.94 27.15 0.06Q27.44-0.82 27.68-1.58Q27.92-2.35 28.11-2.86L28.11-2.86L30.56-2.86Q30.73-0.91 30.88 0.94Q31.04 2.78 31.15 4.60Q31.26 6.41 31.33 8.24Q31.40 10.08 31.45 12L31.45 12L28.74 12L28.88 0.46L27.06 6.74L24.90 6.74L23.14 0.46L23.26 12L20.55 12Q20.62 10.18 20.71 8.21Q20.79 6.24 20.89 4.30Q20.98 2.35 21.12 0.53Q21.25-1.30 21.42-2.86L21.42-2.86ZM43.33 6.34L43.33 6.34Q43.33 7.68 42.94 8.77Q42.56 9.86 41.86 10.66Q41.17 11.45 40.20 11.88Q39.22 12.31 38.02 12.31L38.02 12.31Q36.82 12.31 35.85 11.88Q34.88 11.45 34.17 10.66Q33.46 9.86 33.08 8.77Q32.70 7.68 32.70 6.34L32.70 6.34Q32.70 5.02 33.09 3.92Q33.49 2.83 34.20 2.05Q34.90 1.27 35.89 0.85Q36.87 0.43 38.02 0.43L38.02 0.43Q39.20 0.43 40.17 0.85Q41.14 1.27 41.85 2.05Q42.56 2.83 42.94 3.92Q43.33 5.02 43.33 6.34ZM35.70 6.36L35.70 6.36Q35.70 7.87 36.24 8.81Q36.78 9.74 37.98 9.74L37.98 9.74Q39.13 9.74 39.72 8.81Q40.30 7.87 40.30 6.36L40.30 6.36Q40.30 4.85 39.76 3.92Q39.22 3 38.02 3L38.02 3Q36.87 3 36.28 3.92Q35.70 4.85 35.70 6.36ZM45.51 12L45.51 1.08Q46.30 0.86 47.47 0.67Q48.63 0.48 50 0.48L50 0.48Q51.34 0.48 52.23 0.85Q53.12 1.22 53.64 1.91Q54.15 2.59 54.37 3.54Q54.58 4.49 54.58 5.64L54.58 5.64L54.58 12L51.63 12L51.63 6.02Q51.63 4.44 51.27 3.74Q50.91 3.05 49.81 3.05L49.81 3.05Q49.47 3.05 49.15 3.07Q48.82 3.10 48.46 3.14L48.46 3.14L48.46 12L45.51 12ZM60.49-4.66L60.49 5.18Q60.92 4.68 61.36 4.12Q61.81 3.55 62.23 2.95Q62.65 2.35 63.03 1.79Q63.42 1.22 63.70 0.72L63.70 0.72L67.26 0.72Q66.82 1.27 66.27 1.92Q65.72 2.57 65.13 3.24Q64.54 3.91 63.96 4.54Q63.37 5.16 62.89 5.69L62.89 5.69Q63.49 6.26 64.18 7.07Q64.88 7.87 65.55 8.74Q66.22 9.60 66.79 10.46Q67.35 11.33 67.69 12L67.69 12L64.30 12Q64.02 11.40 63.55 10.64Q63.08 9.89 62.55 9.16Q62.02 8.42 61.48 7.76Q60.94 7.10 60.49 6.67L60.49 6.67L60.49 12L57.51 12L57.51-4.15L60.49-4.66ZM68.74 6.46L68.74 6.46Q68.74 4.97 69.20 3.84Q69.66 2.71 70.40 1.96Q71.14 1.20 72.10 0.82Q73.06 0.43 74.07 0.43L74.07 0.43Q76.57 0.43 77.86 1.91Q79.16 3.38 79.16 6.22L79.16 6.22Q79.16 6.50 79.15 6.82Q79.14 7.13 79.11 7.32L79.11 7.32L71.79 7.32Q71.79 8.42 72.70 9.06Q73.62 9.70 75.06 9.70L75.06 9.70Q75.94 9.70 76.75 9.50Q77.55 9.31 78.10 9.12L78.10 9.12L78.51 11.64Q77.74 11.90 76.88 12.08Q76.02 12.26 74.94 12.26L74.94 12.26Q73.50 12.26 72.36 11.89Q71.22 11.52 70.41 10.79Q69.61 10.06 69.18 8.98Q68.74 7.90 68.74 6.46ZM71.79 5.28L76.30 5.28Q76.30 4.82 76.18 4.40Q76.06 3.98 75.80 3.65Q75.54 3.31 75.13 3.11Q74.72 2.90 74.12 2.90L74.12 2.90Q73.54 2.90 73.12 3.10Q72.70 3.29 72.43 3.62Q72.15 3.96 72.00 4.39Q71.84 4.82 71.79 5.28L71.79 5.28ZM88.30 0.72L91.33 0.72Q90.87 2.30 90.45 3.83Q90.03 5.35 89.58 6.80Q89.12 8.26 88.60 9.65Q88.09 11.04 87.49 12.36L87.49 12.36Q87.03 13.32 86.59 14.02Q86.14 14.71 85.60 15.16Q85.06 15.60 84.40 15.82Q83.74 16.03 82.86 16.03L82.86 16.03Q82.11 16.03 81.50 15.91Q80.89 15.79 80.48 15.60L80.48 15.60L81.03 13.13Q81.51 13.34 81.88 13.43Q82.26 13.51 82.69 13.51L82.69 13.51Q83.55 13.51 84.08 12.94Q84.61 12.36 84.92 11.57L84.92 11.57Q83.86 9.46 82.81 6.73Q81.75 4.01 80.89 0.72L80.89 0.72L83.96 0.72Q84.18 1.61 84.45 2.62Q84.73 3.62 85.04 4.63Q85.35 5.64 85.70 6.61Q86.05 7.58 86.41 8.42L86.41 8.42Q86.65 7.58 86.91 6.61Q87.18 5.64 87.42 4.64Q87.66 3.65 87.88 2.64Q88.11 1.63 88.30 0.72L88.30 0.72Z"/>
    </g>
</svg>