<?xml version="1.0" encoding="UTF-8"?>
<svg height="34" width="114.6" version="1.1" xmlns="http://www.w3.org/2000/svg"><!--Created by Josélio de S. C. Júnior - 2021 - https://github.com/joseliojunior -->
    <rect
        height="32"
        width="112.6"
        rx="16"
        ry="16"
        x="1" y="1"
        fill="#0c479c"
        stroke="#5093f2"
        stroke-width="1" />
    <g transform="translate(0, 12)">
        <path fill="#5093f2" d="M30.51-2.86L30.51 7.03Q30.51 8.11 30.24 9.07Q29.96 10.03 29.32 10.75Q28.69 11.47 27.68 11.89Q26.67 12.31 25.23 12.31L25.23 12.31Q23.72 12.31 22.71 11.93Q21.70 11.54 21.01 10.99L21.01 10.99L22.14 8.64Q22.74 9.02 23.47 9.38Q24.20 9.74 24.97 9.74L24.97 9.74Q26.12 9.74 26.83 9.13Q27.54 8.52 27.54 6.86L27.54 6.86L27.54-0.41L22.57-0.41L22.57-2.86L30.51-2.86ZM37.57 9.84L37.57 9.84Q38.31 9.84 38.80 9.68Q39.30 9.53 39.58 9.25Q39.87 8.98 39.98 8.63Q40.09 8.28 40.09 7.92L40.09 7.92Q40.09 7.46 39.82 7.10Q39.56 6.74 39.15 6.47Q38.74 6.19 38.24 5.96Q37.74 5.74 37.23 5.54L37.23 5.54Q36.56 5.30 35.84 4.99Q35.12 4.68 34.53 4.20Q33.94 3.72 33.56 3.01Q33.18 2.30 33.18 1.25L33.18 1.25Q33.18-0.84 34.53-2.02Q35.89-3.19 38.26-3.19L38.26-3.19Q39.63-3.19 40.65-2.88Q41.67-2.57 42.37-2.18L42.37-2.18L41.50 0.10Q40.90-0.24 40.17-0.48Q39.44-0.72 38.48-0.72L38.48-0.72Q36.13-0.72 36.13 0.98L36.13 0.98Q36.13 1.42 36.37 1.74Q36.61 2.06 36.98 2.32Q37.35 2.57 37.82 2.76Q38.29 2.95 38.74 3.12L38.74 3.12Q39.44 3.38 40.20 3.71Q40.95 4.03 41.59 4.57Q42.22 5.11 42.63 5.92Q43.04 6.72 43.04 7.94L43.04 7.94Q43.04 10.03 41.68 11.17Q40.33 12.31 37.57 12.31L37.57 12.31Q35.72 12.31 34.62 11.92Q33.51 11.52 32.96 11.18L32.96 11.18L33.82 8.78Q34.47 9.17 35.37 9.50Q36.27 9.84 37.57 9.84ZM47.65 4.56L47.65 4.56Q47.65 5.64 47.73 6.59Q47.82 7.54 48.07 8.23Q48.32 8.93 48.78 9.34Q49.23 9.74 50 9.74L50 9.74Q50.74 9.74 51.21 9.34Q51.68 8.93 51.93 8.22Q52.18 7.51 52.27 6.58Q52.35 5.64 52.35 4.56L52.35 4.56Q52.35 3.48 52.27 2.53Q52.18 1.58 51.93 0.89Q51.68 0.19 51.22-0.22Q50.77-0.62 50-0.62L50-0.62Q49.23-0.62 48.78-0.22Q48.32 0.19 48.07 0.90Q47.82 1.61 47.73 2.54Q47.65 3.48 47.65 4.56ZM44.65 4.56L44.65 4.56Q44.65 0.72 46.06-1.24Q47.48-3.19 50-3.19L50-3.19Q52.62-3.19 53.98-1.24Q55.35 0.72 55.35 4.56L55.35 4.56Q55.35 8.40 53.96 10.36Q52.57 12.31 50.02 12.31L50.02 12.31Q47.41 12.31 46.03 10.36Q44.65 8.40 44.65 4.56ZM66.90 12L64.52 12Q63.51 9.53 62.32 7.07Q61.14 4.61 59.77 2.14L59.77 2.14L59.77 12L57.10 12L57.10-2.86L59.48-2.86Q60.15-1.80 60.82-0.56Q61.50 0.67 62.13 1.90Q62.77 3.12 63.31 4.27Q63.85 5.42 64.23 6.29L64.23 6.29L64.23-2.86L66.90-2.86L66.90 12ZM79.04 9.55L79.04 12L69.70 12L69.70-2.86L72.68-2.86L72.68 9.55L79.04 9.55ZM84.25-0.38L84.25 9.60Q84.37 9.62 84.51 9.62Q84.66 9.62 84.78 9.62L84.78 9.62Q85.78 9.62 86.47 9.24Q87.15 8.86 87.57 8.18Q87.99 7.51 88.17 6.59Q88.35 5.66 88.35 4.56L88.35 4.56Q88.35 3.60 88.21 2.69Q88.06 1.78 87.70 1.08Q87.34 0.38 86.72-0.04Q86.10-0.46 85.11-0.46L85.11-0.46Q84.92-0.46 84.68-0.44Q84.44-0.43 84.25-0.38L84.25-0.38ZM91.35 4.56L91.35 4.56Q91.35 6.62 90.84 8.08Q90.32 9.53 89.41 10.44Q88.50 11.35 87.24 11.77Q85.98 12.19 84.46 12.19L84.46 12.19Q83.67 12.19 82.92 12.11Q82.16 12.02 81.30 11.83L81.30 11.83L81.30-2.66Q82.30-2.88 83.19-2.95Q84.08-3.02 84.85-3.02L84.85-3.02Q86.31-3.02 87.52-2.59Q88.74-2.16 89.58-1.24Q90.42-0.31 90.88 1.12Q91.35 2.54 91.35 4.56Z"/>
    </g>
</svg>