<?xml version="1.0" encoding="UTF-8"?><svg height="34" width="150.9" version="1.1" xmlns="http://www.w3.org/2000/svg"><!--Created by Josélio de S. C. Júnior - 2021 - https://github.com/joseliojunior --><rect height="32" width="148.9" rx="16" ry="16" x="1" y="1" fill="#56b3cb" stroke="#205b69" stroke-width="1" /><g transform="translate(0, 12)"><path fill="#205b69" d="M30.51-2.86L30.51 7.03Q30.51 8.11 30.24 9.07Q29.96 10.03 29.32 10.75Q28.69 11.47 27.68 11.89Q26.67 12.31 25.23 12.31L25.23 12.31Q23.72 12.31 22.71 11.93Q21.70 11.54 21.01 10.99L21.01 10.99L22.14 8.64Q22.74 9.02 23.47 9.38Q24.20 9.74 24.97 9.74L24.97 9.74Q26.12 9.74 26.83 9.13Q27.54 8.52 27.54 6.86L27.54 6.86L27.54-0.41L22.57-0.41L22.57-2.86L30.51-2.86ZM38.82-2.52L38.82-2.52Q38.82-1.66 38.26-1.15Q37.71-0.65 36.94-0.65L36.94-0.65Q36.18-0.65 35.64-1.15Q35.10-1.66 35.10-2.52L35.10-2.52Q35.10-3.41 35.64-3.91Q36.18-4.42 36.94-4.42L36.94-4.42Q37.71-4.42 38.26-3.91Q38.82-3.41 38.82-2.52ZM42.82 9.14L43.21 11.52Q42.30 11.95 41.49 12.11Q40.69 12.26 40.02 12.26L40.02 12.26Q38.86 12.26 38.08 11.93Q37.30 11.59 36.84 10.96Q36.37 10.32 36.18 9.41Q35.98 8.50 35.98 7.32L35.98 7.32L35.98 3.17L32.86 3.17L32.86 0.72L38.94 0.72L38.94 7.70Q38.94 8.71 39.31 9.20Q39.68 9.70 40.54 9.70L40.54 9.70Q40.95 9.70 41.53 9.59Q42.10 9.48 42.82 9.14L42.82 9.14ZM49.47 9.77L49.47 9.77Q50.55 9.77 51.13 9.61Q51.70 9.46 51.70 8.98L51.70 8.98Q51.70 8.66 51.52 8.45Q51.34 8.23 51.02 8.08Q50.70 7.92 50.28 7.78Q49.86 7.63 49.40 7.49L49.40 7.49Q48.75 7.30 48.08 7.04Q47.41 6.79 46.86 6.41Q46.30 6.02 45.94 5.44Q45.58 4.85 45.58 3.96L45.58 3.96Q45.58 3.24 45.86 2.60Q46.14 1.97 46.72 1.48Q47.31 0.98 48.22 0.71Q49.14 0.43 50.41 0.43L50.41 0.43Q51.51 0.43 52.46 0.60Q53.41 0.77 54.10 1.08L54.10 1.08L53.65 3.58Q53.24 3.46 52.38 3.18Q51.51 2.90 50.43 2.90L50.43 2.90Q49.30 2.90 48.91 3.18Q48.51 3.46 48.51 3.77L48.51 3.77Q48.51 4.03 48.69 4.24Q48.87 4.44 49.17 4.61Q49.47 4.78 49.87 4.93Q50.26 5.09 50.72 5.23L50.72 5.23Q51.37 5.45 52.06 5.71Q52.76 5.98 53.32 6.37Q53.89 6.77 54.25 7.38Q54.61 7.99 54.61 8.88L54.61 8.88Q54.61 9.58 54.34 10.20Q54.08 10.82 53.47 11.28Q52.86 11.74 51.87 12Q50.89 12.26 49.45 12.26L49.45 12.26Q47.98 12.26 46.95 11.93Q45.92 11.59 45.30 11.33L45.30 11.33L45.75 8.86Q46.59 9.19 47.54 9.48Q48.49 9.77 49.47 9.77ZM67.33 6.34L67.33 6.34Q67.33 7.68 66.94 8.77Q66.56 9.86 65.86 10.66Q65.17 11.45 64.20 11.88Q63.22 12.31 62.02 12.31L62.02 12.31Q60.82 12.31 59.85 11.88Q58.88 11.45 58.17 10.66Q57.46 9.86 57.08 8.77Q56.70 7.68 56.70 6.34L56.70 6.34Q56.70 5.02 57.09 3.92Q57.49 2.83 58.20 2.05Q58.90 1.27 59.89 0.85Q60.87 0.43 62.02 0.43L62.02 0.43Q63.20 0.43 64.17 0.85Q65.14 1.27 65.85 2.05Q66.56 2.83 66.94 3.92Q67.33 5.02 67.33 6.34ZM59.70 6.36L59.70 6.36Q59.70 7.87 60.24 8.81Q60.78 9.74 61.98 9.74L61.98 9.74Q63.13 9.74 63.72 8.81Q64.30 7.87 64.30 6.36L64.30 6.36Q64.30 4.85 63.76 3.92Q63.22 3 62.02 3L62.02 3Q60.87 3 60.28 3.92Q59.70 4.85 59.70 6.36ZM69.51 12L69.51 1.08Q70.30 0.86 71.47 0.67Q72.63 0.48 74 0.48L74 0.48Q75.34 0.48 76.23 0.85Q77.12 1.22 77.64 1.91Q78.15 2.59 78.37 3.54Q78.58 4.49 78.58 5.64L78.58 5.64L78.58 12L75.63 12L75.63 6.02Q75.63 4.44 75.27 3.74Q74.91 3.05 73.81 3.05L73.81 3.05Q73.47 3.05 73.15 3.07Q72.82 3.10 72.46 3.14L72.46 3.14L72.46 12L69.51 12ZM103.04 9.55L103.04 12L93.70 12L93.70-2.86L96.68-2.86L96.68 9.55L103.04 9.55ZM104.74 6.46L104.74 6.46Q104.74 4.97 105.20 3.84Q105.66 2.71 106.40 1.96Q107.14 1.20 108.10 0.82Q109.06 0.43 110.07 0.43L110.07 0.43Q112.57 0.43 113.86 1.91Q115.16 3.38 115.16 6.22L115.16 6.22Q115.16 6.50 115.15 6.82Q115.14 7.13 115.11 7.32L115.11 7.32L107.79 7.32Q107.79 8.42 108.70 9.06Q109.62 9.70 111.06 9.70L111.06 9.70Q111.94 9.70 112.75 9.50Q113.55 9.31 114.10 9.12L114.10 9.12L114.51 11.64Q113.74 11.90 112.88 12.08Q112.02 12.26 110.94 12.26L110.94 12.26Q109.50 12.26 108.36 11.89Q107.22 11.52 106.41 10.79Q105.61 10.06 105.18 8.98Q104.74 7.90 104.74 6.46ZM107.79 5.28L112.30 5.28Q112.30 4.82 112.18 4.40Q112.06 3.98 111.80 3.65Q111.54 3.31 111.13 3.11Q110.72 2.90 110.12 2.90L110.12 2.90Q109.54 2.90 109.12 3.10Q108.70 3.29 108.43 3.62Q108.15 3.96 108.00 4.39Q107.84 4.82 107.79 5.28L107.79 5.28ZM119.60 0.72L122.10 4.25L124.40 0.72L127.40 0.72L123.75 6.14Q124.33 6.84 124.88 7.62Q125.43 8.40 125.94 9.19Q126.44 9.98 126.85 10.70Q127.26 11.42 127.54 12L127.54 12L124.47 12Q123.82 10.78 123.18 9.82Q122.53 8.86 121.95 8.09L121.95 8.09Q121.23 9.05 120.66 9.96Q120.08 10.87 119.48 12L119.48 12L116.48 12Q116.84 11.33 117.31 10.60Q117.78 9.86 118.29 9.11Q118.81 8.35 119.37 7.61Q119.94 6.86 120.46 6.19L120.46 6.19L116.50 0.72L119.60 0.72Z"/></g></svg>