<?xml version="1.0" encoding="UTF-8"?>
<svg height="34" width="205.29999999999998" version="1.1" xmlns="http://www.w3.org/2000/svg">
    <rect
        height="32"
        width="203.29999999999998"
        rx="1"
        ry="1"
        x="1"
        y="1"
        fill="#9400ff"
        stroke="#3b0066"
        stroke-width="1"
         />
    <g transform="translate(0, 14)">
        <path fill="#3b0066" d="M18.74-3.73L18.74-3.73Q17.50-3.73 16.66-3.28Q15.82-2.83 15.28-2.03Q14.73-1.24 14.49-0.13Q14.26 0.98 14.26 2.32L14.26 2.32Q14.26 5.43 15.24 6.90Q16.22 8.37 18.12 8.37L18.12 8.37Q18.43 8.37 18.79 8.34Q19.16 8.31 19.46 8.26L19.46 8.26L19.46 1.93L22.91 1.93L22.91 10.58Q22.29 10.80 20.99 11.08Q19.69 11.36 17.84 11.36L17.84 11.36Q16.22 11.36 14.91 10.79Q13.61 10.22 12.69 9.08Q11.76 7.95 11.26 6.25Q10.76 4.56 10.76 2.32L10.76 2.32Q10.76 0.11 11.34-1.59Q11.93-3.28 12.94-4.43Q13.95-5.58 15.32-6.15Q16.69-6.72 18.26-6.72L18.26-6.72Q19.27-6.72 20.07-6.57Q20.86-6.42 21.45-6.22Q22.04-6.02 22.42-5.80Q22.80-5.58 22.99-5.46L22.99-5.46L22.10-2.72Q21.48-3.11 20.58-3.42Q19.69-3.73 18.74-3.73ZM24.87 4.53L24.87 4.53Q24.87 2.80 25.40 1.48Q25.93 0.16 26.80-0.72Q27.67-1.60 28.79-2.05Q29.91-2.50 31.08-2.50L31.08-2.50Q34.00-2.50 35.51-0.77Q37.02 0.95 37.02 4.25L37.02 4.25Q37.02 4.59 37.01 4.95Q36.99 5.32 36.96 5.54L36.96 5.54L28.42 5.54Q28.42 6.83 29.49 7.57Q30.55 8.31 32.23 8.31L32.23 8.31Q33.27 8.31 34.21 8.09Q35.14 7.86 35.79 7.64L35.79 7.64L36.26 10.58Q35.37 10.89 34.36 11.10Q33.35 11.31 32.09 11.31L32.09 11.31Q30.41 11.31 29.08 10.87Q27.75 10.44 26.81 9.59Q25.88 8.73 25.37 7.47Q24.87 6.21 24.87 4.53ZM28.42 3.16L33.69 3.16Q33.69 2.63 33.55 2.14Q33.41 1.65 33.10 1.26Q32.79 0.86 32.32 0.63Q31.84 0.39 31.14 0.39L31.14 0.39Q30.47 0.39 29.98 0.61Q29.49 0.84 29.17 1.23Q28.84 1.62 28.66 2.12Q28.48 2.63 28.42 3.16L28.42 3.16ZM39.76 11L39.76-1.74Q40.69-1.99 42.05-2.22Q43.40-2.44 45-2.44L45-2.44Q46.57-2.44 47.60-2.01Q48.64-1.57 49.24-0.77Q49.84 0.02 50.10 1.13Q50.35 2.24 50.35 3.58L50.35 3.58L50.35 11L46.90 11L46.90 4.03Q46.90 2.18 46.48 1.37Q46.06 0.56 44.78 0.56L44.78 0.56Q44.38 0.56 44.01 0.58Q43.63 0.61 43.21 0.67L43.21 0.67L43.21 11L39.76 11ZM56.00 6.10L56.00 0.70L53.01 0.70L53.01-2.16L56.00-2.16L56.00-5.46L59.45-6.02L59.45-2.16L64.96-2.16L64.96 0.70L59.45 0.70L59.45 6.02Q59.45 6.74 59.59 7.19Q59.73 7.64 59.98 7.89Q60.23 8.14 60.60 8.23Q60.96 8.31 61.41 8.31L61.41 8.31Q61.88 8.31 62.29 8.28Q62.70 8.26 63.07 8.19Q63.45 8.12 63.86 7.98Q64.26 7.84 64.74 7.61L64.74 7.61L65.22 10.58Q64.26 10.97 63.16 11.14Q62.05 11.31 61.02 11.31L61.02 11.31Q59.81 11.31 58.89 11.11Q57.96 10.92 57.32 10.36Q56.68 9.80 56.34 8.77Q56.00 7.75 56.00 6.10L56.00 6.10ZM79.22 4.39L79.22 4.39Q79.22 5.96 78.77 7.23Q78.32 8.51 77.51 9.43Q76.70 10.36 75.56 10.86Q74.43 11.36 73.03 11.36L73.03 11.36Q71.63 11.36 70.49 10.86Q69.36 10.36 68.53 9.43Q67.71 8.51 67.26 7.23Q66.81 5.96 66.81 4.39L66.81 4.39Q66.81 2.85 67.27 1.58Q67.74 0.30 68.56-0.61Q69.39-1.52 70.54-2.01Q71.68-2.50 73.03-2.50L73.03-2.50Q74.40-2.50 75.53-2.01Q76.67-1.52 77.49-0.61Q78.32 0.30 78.77 1.58Q79.22 2.85 79.22 4.39ZM70.31 4.42L70.31 4.42Q70.31 6.18 70.94 7.28Q71.57 8.37 72.97 8.37L72.97 8.37Q74.32 8.37 75.00 7.28Q75.69 6.18 75.69 4.42L75.69 4.42Q75.69 2.66 75.06 1.58Q74.43 0.50 73.03 0.50L73.03 0.50Q71.68 0.50 71.00 1.58Q70.31 2.66 70.31 4.42ZM93.22 4.39L93.22 4.39Q93.22 5.96 92.77 7.23Q92.32 8.51 91.51 9.43Q90.70 10.36 89.56 10.86Q88.43 11.36 87.03 11.36L87.03 11.36Q85.63 11.36 84.49 10.86Q83.36 10.36 82.53 9.43Q81.71 8.51 81.26 7.23Q80.81 5.96 80.81 4.39L80.81 4.39Q80.81 2.85 81.27 1.58Q81.74 0.30 82.56-0.61Q83.39-1.52 84.54-2.01Q85.68-2.50 87.03-2.50L87.03-2.50Q88.40-2.50 89.53-2.01Q90.67-1.52 91.49-0.61Q92.32 0.30 92.77 1.58Q93.22 2.85 93.22 4.39ZM84.31 4.42L84.31 4.42Q84.31 6.18 84.94 7.28Q85.57 8.37 86.97 8.37L86.97 8.37Q88.32 8.37 89.00 7.28Q89.69 6.18 89.69 4.42L89.69 4.42Q89.69 2.66 89.06 1.58Q88.43 0.50 87.03 0.50L87.03 0.50Q85.68 0.50 85.00 1.58Q84.31 2.66 84.31 4.42ZM120.88 11L109.76 11L109.76-6.33L120.26-6.33L120.26-3.48L113.21-3.48L113.21 0.42L119.34 0.42L119.34 3.27L113.21 3.27L113.21 8.14L120.88 8.14L120.88 11ZM131.66 4.34L131.66 4.34Q131.66 2.49 131.06 1.51Q130.46 0.53 129.22 0.53L129.22 0.53Q128.66 0.53 128.12 0.68Q127.57 0.84 127.18 1.06L127.18 1.06L127.18 8.20Q127.57 8.28 128.01 8.31Q128.44 8.34 128.75 8.34L128.75 8.34Q130.09 8.34 130.88 7.43Q131.66 6.52 131.66 4.34ZM135.16 4.42L135.16 4.42Q135.16 5.99 134.74 7.26Q134.32 8.54 133.51 9.43Q132.70 10.33 131.52 10.82Q130.34 11.31 128.83 11.31L128.83 11.31Q127.49 11.31 126.09 11.11Q124.69 10.92 123.74 10.61L123.74 10.61L123.74-7.84L127.18-8.43L127.18-1.85Q127.91-2.19 128.58-2.31Q129.25-2.44 129.92-2.44L129.92-2.44Q131.21-2.44 132.19-1.95Q133.17-1.46 133.83-0.55Q134.49 0.36 134.82 1.62Q135.16 2.88 135.16 4.42ZM148.26-2.16L148.26 10.55Q147.31 10.80 145.95 11.06Q144.60 11.31 143 11.31L143 11.31Q141.38 11.31 140.34 10.86Q139.30 10.41 138.70 9.59Q138.10 8.76 137.88 7.64Q137.65 6.52 137.65 5.18L137.65 5.18L137.65-2.16L141.10-2.16L141.10 4.73Q141.10 6.55 141.53 7.43Q141.96 8.31 143.22 8.31L143.22 8.31Q144.01 8.31 144.79 8.17L144.79 8.17L144.79-2.16L148.26-2.16ZM157.95-5.94L157.95-5.94Q157.95-4.93 157.31-4.34Q156.66-3.76 155.77-3.76L155.77-3.76Q154.87-3.76 154.24-4.34Q153.61-4.93 153.61-5.94L153.61-5.94Q153.61-6.98 154.24-7.56Q154.87-8.15 155.77-8.15L155.77-8.15Q156.66-8.15 157.31-7.56Q157.95-6.98 157.95-5.94ZM162.63 7.67L163.08 10.44Q162.01 10.94 161.07 11.13Q160.14 11.31 159.35 11.31L159.35 11.31Q158.01 11.31 157.10 10.92Q156.19 10.52 155.64 9.78Q155.10 9.04 154.87 7.98Q154.65 6.91 154.65 5.54L154.65 5.54L154.65 0.70L151.01 0.70L151.01-2.16L158.09-2.16L158.09 5.99Q158.09 7.16 158.53 7.74Q158.96 8.31 159.97 8.31L159.97 8.31Q160.44 8.31 161.12 8.19Q161.79 8.06 162.63 7.67L162.63 7.67ZM176.63 7.67L177.08 10.44Q176.99 10.50 176.70 10.64Q176.40 10.78 175.93 10.93Q175.45 11.08 174.77 11.20Q174.08 11.31 173.21 11.31L173.21 11.31Q170.83 11.31 169.74 9.89Q168.65 8.48 168.65 5.76L168.65 5.76L168.65-5.41L165.01-5.41L165.01-8.26L172.09-8.26L172.09 6.02Q172.09 7.36 172.62 7.84Q173.16 8.31 173.97 8.31L173.97 8.31Q175.00 8.31 175.70 8.03Q176.40 7.75 176.63 7.67L176.63 7.67ZM182.28 4.34L182.28 4.34Q182.28 6.10 182.94 7.22Q183.60 8.34 185.06 8.34L185.06 8.34Q185.48 8.34 185.84 8.31Q186.20 8.28 186.60 8.23L186.60 8.23L186.60 1.06Q186.20 0.84 185.70 0.68Q185.20 0.53 184.64 0.53L184.64 0.53Q183.40 0.53 182.84 1.51Q182.28 2.49 182.28 4.34ZM190.04-8.43L190.04 10.61Q189.09 10.92 187.72 11.11Q186.34 11.31 185.03 11.31L185.03 11.31Q181.95 11.31 180.37 9.49Q178.78 7.67 178.78 4.50L178.78 4.50Q178.78 1.28 180.11-0.58Q181.44-2.44 184.05-2.44L184.05-2.44Q184.75-2.44 185.42-2.29Q186.09-2.13 186.60-1.85L186.60-1.85L186.60-7.84L190.04-8.43Z"/>
    </g>
</svg>