<?xml version="1.0" encoding="UTF-8"?>
<svg height="322" width="187.2" version="1.1" xmlns="http://www.w3.org/2000/svg"><!--Created by Josélio de S. C. Júnior - 2021 - https://github.com/joseliojunior -->
    <rect
        height="32"
        width="185.2"
        rx="16"
        ry="16"
        x="1" y="1"
        fill="#fff1f2"
        stroke="#bd000d"
        stroke-width="1" />
    <g transform="translate(0, 12)">
        <path fill="#bd000d" stroke="none" d="M31.04 12L21.51 12L21.51-2.86L30.51-2.86L30.51-0.41L24.46-0.41L24.46 2.93L29.72 2.93L29.72 5.38L24.46 5.38L24.46 9.55L31.04 9.55L31.04 12ZM35.67 6.29L35.67 6.29Q35.67 7.80 36.24 8.76Q36.80 9.72 38.05 9.72L38.05 9.72Q38.41 9.72 38.72 9.70Q39.03 9.67 39.37 9.62L39.37 9.62L39.37 3.48Q39.03 3.29 38.60 3.16Q38.17 3.02 37.69 3.02L37.69 3.02Q36.63 3.02 36.15 3.86Q35.67 4.70 35.67 6.29ZM42.32-4.66L42.32 11.66Q41.50 11.93 40.33 12.10Q39.15 12.26 38.02 12.26L38.02 12.26Q35.38 12.26 34.03 10.70Q32.67 9.14 32.67 6.43L32.67 6.43Q32.67 3.67 33.81 2.08Q34.95 0.48 37.18 0.48L37.18 0.48Q37.78 0.48 38.36 0.61Q38.94 0.74 39.37 0.98L39.37 0.98L39.37-4.15L42.32-4.66ZM50.82-2.52L50.82-2.52Q50.82-1.66 50.26-1.15Q49.71-0.65 48.94-0.65L48.94-0.65Q48.18-0.65 47.64-1.15Q47.10-1.66 47.10-2.52L47.10-2.52Q47.10-3.41 47.64-3.91Q48.18-4.42 48.94-4.42L48.94-4.42Q49.71-4.42 50.26-3.91Q50.82-3.41 50.82-2.52ZM54.82 9.14L55.21 11.52Q54.30 11.95 53.49 12.11Q52.69 12.26 52.02 12.26L52.02 12.26Q50.86 12.26 50.08 11.93Q49.30 11.59 48.84 10.96Q48.37 10.32 48.18 9.41Q47.98 8.50 47.98 7.32L47.98 7.32L47.98 3.17L44.86 3.17L44.86 0.72L50.94 0.72L50.94 7.70Q50.94 8.71 51.31 9.20Q51.68 9.70 52.54 9.70L52.54 9.70Q52.95 9.70 53.53 9.59Q54.10 9.48 54.82 9.14L54.82 9.14ZM59.43 7.80L59.43 3.17L56.86 3.17L56.86 0.72L59.43 0.72L59.43-2.11L62.38-2.59L62.38 0.72L67.11 0.72L67.11 3.17L62.38 3.17L62.38 7.73Q62.38 8.35 62.50 8.74Q62.62 9.12 62.84 9.34Q63.06 9.55 63.37 9.62Q63.68 9.70 64.06 9.70L64.06 9.70Q64.47 9.70 64.82 9.67Q65.17 9.65 65.49 9.59Q65.82 9.53 66.16 9.41Q66.51 9.29 66.92 9.10L66.92 9.10L67.33 11.64Q66.51 11.98 65.56 12.12Q64.62 12.26 63.73 12.26L63.73 12.26Q62.70 12.26 61.90 12.10Q61.11 11.93 60.56 11.45Q60.01 10.97 59.72 10.09Q59.43 9.22 59.43 7.80L59.43 7.80ZM79.33 6.34L79.33 6.34Q79.33 7.68 78.94 8.77Q78.56 9.86 77.86 10.66Q77.17 11.45 76.20 11.88Q75.22 12.31 74.02 12.31L74.02 12.31Q72.82 12.31 71.85 11.88Q70.88 11.45 70.17 10.66Q69.46 9.86 69.08 8.77Q68.70 7.68 68.70 6.34L68.70 6.34Q68.70 5.02 69.09 3.92Q69.49 2.83 70.20 2.05Q70.90 1.27 71.89 0.85Q72.87 0.43 74.02 0.43L74.02 0.43Q75.20 0.43 76.17 0.85Q77.14 1.27 77.85 2.05Q78.56 2.83 78.94 3.92Q79.33 5.02 79.33 6.34ZM71.70 6.36L71.70 6.36Q71.70 7.87 72.24 8.81Q72.78 9.74 73.98 9.74L73.98 9.74Q75.13 9.74 75.72 8.81Q76.30 7.87 76.30 6.36L76.30 6.36Q76.30 4.85 75.76 3.92Q75.22 3 74.02 3L74.02 3Q72.87 3 72.28 3.92Q71.70 4.85 71.70 6.36ZM91.02 0.98L90.49 3.72Q90.20 3.65 89.80 3.58Q89.41 3.50 89 3.44Q88.59 3.38 88.21 3.36Q87.82 3.34 87.56 3.34L87.56 3.34Q86.94 3.34 86.34 3.40Q85.74 3.46 85.11 3.62L85.11 3.62L85.11 12L82.14 12L82.14 1.46Q83.31 1.03 84.55 0.77Q85.78 0.50 87.44 0.50L87.44 0.50Q87.68 0.50 88.12 0.53Q88.57 0.55 89.07 0.61Q89.58 0.67 90.09 0.76Q90.61 0.84 91.02 0.98L91.02 0.98ZM99.10 12.31L99.10 12.31Q95.96 12.31 94.30 10.30Q92.65 8.28 92.65 4.56L92.65 4.56Q92.65 2.71 93.15 1.27Q93.66-0.17 94.56-1.16Q95.46-2.16 96.69-2.68Q97.93-3.19 99.39-3.19L99.39-3.19Q100.18-3.19 100.82-3.06Q101.46-2.93 101.94-2.76Q102.42-2.59 102.74-2.40Q103.06-2.21 103.23-2.11L103.23-2.11L102.46 0.24Q101.91-0.12 101.13-0.37Q100.35-0.62 99.34-0.62L99.34-0.62Q98.65-0.62 97.99-0.37Q97.33-0.12 96.81 0.47Q96.30 1.06 95.97 2.04Q95.65 3.02 95.65 4.49L95.65 4.49Q95.65 7.03 96.52 8.39Q97.40 9.74 99.39 9.74L99.39 9.74Q100.54 9.74 101.30 9.48Q102.06 9.22 102.51 8.95L102.51 8.95L103.26 11.28Q102.63 11.66 101.56 11.99Q100.50 12.31 99.10 12.31ZM115.33 6.34L115.33 6.34Q115.33 7.68 114.94 8.77Q114.56 9.86 113.86 10.66Q113.17 11.45 112.20 11.88Q111.22 12.31 110.02 12.31L110.02 12.31Q108.82 12.31 107.85 11.88Q106.88 11.45 106.17 10.66Q105.46 9.86 105.08 8.77Q104.70 7.68 104.70 6.34L104.70 6.34Q104.70 5.02 105.09 3.92Q105.49 2.83 106.20 2.05Q106.90 1.27 107.89 0.85Q108.87 0.43 110.02 0.43L110.02 0.43Q111.20 0.43 112.17 0.85Q113.14 1.27 113.85 2.05Q114.56 2.83 114.94 3.92Q115.33 5.02 115.33 6.34ZM107.70 6.36L107.70 6.36Q107.70 7.87 108.24 8.81Q108.78 9.74 109.98 9.74L109.98 9.74Q111.13 9.74 111.72 8.81Q112.30 7.87 112.30 6.36L112.30 6.36Q112.30 4.85 111.76 3.92Q111.22 3 110.02 3L110.02 3Q108.87 3 108.28 3.92Q107.70 4.85 107.70 6.36ZM117.51 12L117.51 1.08Q118.30 0.86 119.47 0.67Q120.63 0.48 122 0.48L122 0.48Q123.34 0.48 124.23 0.85Q125.12 1.22 125.64 1.91Q126.15 2.59 126.37 3.54Q126.58 4.49 126.58 5.64L126.58 5.64L126.58 12L123.63 12L123.63 6.02Q123.63 4.44 123.27 3.74Q122.91 3.05 121.81 3.05L121.81 3.05Q121.47 3.05 121.15 3.07Q120.82 3.10 120.46 3.14L120.46 3.14L120.46 12L117.51 12ZM134.31 12L131.34 12L131.34 3.17L128.86 3.17L128.86 0.72L131.34 0.72L131.34 0.07Q131.34-1.30 131.73-2.20Q132.13-3.10 132.80-3.64Q133.47-4.18 134.34-4.40Q135.20-4.63 136.11-4.63L136.11-4.63Q137.05-4.63 138.03-4.46Q139.02-4.30 139.81-3.91L139.81-3.91L139.30-1.51Q138.75-1.70 137.92-1.91Q137.10-2.11 136.35-2.11L136.35-2.11Q135.94-2.11 135.57-2.04Q135.20-1.97 134.92-1.73Q134.65-1.49 134.48-1.04Q134.31-0.60 134.31 0.12L134.31 0.12L134.31 0.72L138.94 0.72L138.94 3.17L134.31 3.17L134.31 12ZM146.82-2.52L146.82-2.52Q146.82-1.66 146.26-1.15Q145.71-0.65 144.94-0.65L144.94-0.65Q144.18-0.65 143.64-1.15Q143.10-1.66 143.10-2.52L143.10-2.52Q143.10-3.41 143.64-3.91Q144.18-4.42 144.94-4.42L144.94-4.42Q145.71-4.42 146.26-3.91Q146.82-3.41 146.82-2.52ZM150.82 9.14L151.21 11.52Q150.30 11.95 149.49 12.11Q148.69 12.26 148.02 12.26L148.02 12.26Q146.86 12.26 146.08 11.93Q145.30 11.59 144.84 10.96Q144.37 10.32 144.18 9.41Q143.98 8.50 143.98 7.32L143.98 7.32L143.98 3.17L140.86 3.17L140.86 0.72L146.94 0.72L146.94 7.70Q146.94 8.71 147.31 9.20Q147.68 9.70 148.54 9.70L148.54 9.70Q148.95 9.70 149.53 9.59Q150.10 9.48 150.82 9.14L150.82 9.14ZM155.79 6L155.79 6Q155.79 7.39 156.30 8.12Q156.80 8.86 157.88 8.86L157.88 8.86Q158.36 8.86 158.78 8.74Q159.20 8.62 159.54 8.42L159.54 8.42L159.54 3Q159.20 2.93 158.94 2.90Q158.67 2.88 158.38 2.88L158.38 2.88Q155.79 2.88 155.79 6ZM162.51 1.08L162.51 10.63Q162.51 13.39 161.18 14.71Q159.85 16.03 156.90 16.03L156.90 16.03Q155.84 16.03 154.87 15.82Q153.90 15.60 153.01 15.31L153.01 15.31L153.56 12.82Q154.26 13.08 155.02 13.31Q155.79 13.54 156.94 13.54L156.94 13.54Q157.71 13.54 158.22 13.36Q158.72 13.18 159.01 12.86Q159.30 12.55 159.42 12.13Q159.54 11.71 159.54 11.23L159.54 11.23L159.54 10.78Q158.91 11.02 158.40 11.14Q157.88 11.26 157.28 11.26L157.28 11.26Q155.07 11.26 153.93 9.86Q152.79 8.47 152.79 6L152.79 6Q152.79 3.22 154.33 1.85Q155.86 0.48 158.50 0.48L158.50 0.48Q160.35 0.48 162.51 1.08L162.51 1.08Z"/>
    </g>
</svg>