<?xml version="1.0" encoding="UTF-8"?><svg height="26" width="139.2" version="1.1" xmlns="http://www.w3.org/2000/svg"><!--Created by Josélio de S. C. Júnior - 2021 - https://github.com/joseliojunior --><rect height="24" width="137.2" rx="1" ry="1" x="1" y="1" fill="#fff1f2" stroke="#bd000d" stroke-width="1" /><g transform="translate(0, 8)"><path fill="#bd000d" d="M27.36 10L21.01 10L21.01 0.10L27.01 0.10L27.01 1.73L22.98 1.73L22.98 3.95L26.48 3.95L26.48 5.58L22.98 5.58L22.98 8.37L27.36 8.37L27.36 10ZM30.45 6.19L30.45 6.19Q30.45 7.20 30.82 7.84Q31.20 8.48 32.03 8.48L32.03 8.48Q32.27 8.48 32.48 8.46Q32.69 8.45 32.91 8.42L32.91 8.42L32.91 4.32Q32.69 4.19 32.40 4.10Q32.11 4.02 31.79 4.02L31.79 4.02Q31.09 4.02 30.77 4.58Q30.45 5.14 30.45 6.19ZM34.88-1.10L34.88 9.78Q34.34 9.95 33.55 10.06Q32.77 10.18 32.02 10.18L32.02 10.18Q30.26 10.18 29.35 9.14Q28.45 8.10 28.45 6.29L28.45 6.29Q28.45 4.45 29.21 3.38Q29.97 2.32 31.46 2.32L31.46 2.32Q31.86 2.32 32.24 2.41Q32.62 2.50 32.91 2.66L32.91 2.66L32.91-0.77L34.88-1.10ZM40.54 0.32L40.54 0.32Q40.54 0.90 40.18 1.23Q39.81 1.57 39.30 1.57L39.30 1.57Q38.78 1.57 38.42 1.23Q38.06 0.90 38.06 0.32L38.06 0.32Q38.06-0.27 38.42-0.61Q38.78-0.94 39.30-0.94L39.30-0.94Q39.81-0.94 40.18-0.61Q40.54-0.27 40.54 0.32ZM43.22 8.10L43.47 9.68Q42.86 9.97 42.33 10.07Q41.79 10.18 41.34 10.18L41.34 10.18Q40.58 10.18 40.06 9.95Q39.54 9.73 39.22 9.30Q38.91 8.88 38.78 8.27Q38.66 7.66 38.66 6.88L38.66 6.88L38.66 4.11L36.58 4.11L36.58 2.48L40.62 2.48L40.62 7.14Q40.62 7.81 40.87 8.14Q41.12 8.46 41.70 8.46L41.70 8.46Q41.97 8.46 42.35 8.39Q42.74 8.32 43.22 8.10L43.22 8.10ZM46.29 7.20L46.29 4.11L44.58 4.11L44.58 2.48L46.29 2.48L46.29 0.59L48.26 0.27L48.26 2.48L51.41 2.48L51.41 4.11L48.26 4.11L48.26 7.15Q48.26 7.57 48.34 7.82Q48.42 8.08 48.56 8.22Q48.70 8.37 48.91 8.42Q49.12 8.46 49.38 8.46L49.38 8.46Q49.65 8.46 49.88 8.45Q50.11 8.43 50.33 8.39Q50.54 8.35 50.78 8.27Q51.01 8.19 51.28 8.06L51.28 8.06L51.55 9.76Q51.01 9.98 50.38 10.08Q49.74 10.18 49.15 10.18L49.15 10.18Q48.46 10.18 47.94 10.06Q47.41 9.95 47.04 9.63Q46.67 9.31 46.48 8.73Q46.29 8.14 46.29 7.20L46.29 7.20ZM59.55 6.22L59.55 6.22Q59.55 7.12 59.30 7.85Q59.04 8.58 58.58 9.10Q58.11 9.63 57.46 9.92Q56.82 10.21 56.02 10.21L56.02 10.21Q55.22 10.21 54.57 9.92Q53.92 9.63 53.45 9.10Q52.98 8.58 52.72 7.85Q52.46 7.12 52.46 6.22L52.46 6.22Q52.46 5.34 52.73 4.62Q52.99 3.89 53.46 3.37Q53.94 2.85 54.59 2.57Q55.25 2.29 56.02 2.29L56.02 2.29Q56.80 2.29 57.45 2.57Q58.10 2.85 58.57 3.37Q59.04 3.89 59.30 4.62Q59.55 5.34 59.55 6.22ZM54.46 6.24L54.46 6.24Q54.46 7.25 54.82 7.87Q55.18 8.50 55.98 8.50L55.98 8.50Q56.75 8.50 57.14 7.87Q57.54 7.25 57.54 6.24L57.54 6.24Q57.54 5.23 57.18 4.62Q56.82 4 56.02 4L56.02 4Q55.25 4 54.86 4.62Q54.46 5.23 54.46 6.24ZM67.34 2.66L66.99 4.48Q66.80 4.43 66.54 4.38Q66.27 4.34 66 4.30Q65.73 4.26 65.47 4.24Q65.22 4.22 65.04 4.22L65.04 4.22Q64.62 4.22 64.22 4.26Q63.82 4.30 63.41 4.42L63.41 4.42L63.41 10L61.42 10L61.42 2.98Q62.21 2.69 63.03 2.51Q63.86 2.34 64.96 2.34L64.96 2.34Q65.12 2.34 65.42 2.35Q65.71 2.37 66.05 2.41Q66.38 2.45 66.73 2.50Q67.07 2.56 67.34 2.66L67.34 2.66ZM72.74 10.21L72.74 10.21Q70.64 10.21 69.54 8.86Q68.43 7.52 68.43 5.04L68.43 5.04Q68.43 3.81 68.77 2.85Q69.10 1.89 69.70 1.22Q70.30 0.56 71.13 0.22Q71.95-0.13 72.93-0.13L72.93-0.13Q73.46-0.13 73.88-0.04Q74.30 0.05 74.62 0.16Q74.94 0.27 75.16 0.40Q75.38 0.53 75.49 0.59L75.49 0.59L74.98 2.16Q74.61 1.92 74.09 1.75Q73.57 1.58 72.90 1.58L72.90 1.58Q72.43 1.58 71.99 1.75Q71.55 1.92 71.21 2.31Q70.86 2.70 70.65 3.36Q70.43 4.02 70.43 4.99L70.43 4.99Q70.43 6.69 71.02 7.59Q71.60 8.50 72.93 8.50L72.93 8.50Q73.70 8.50 74.20 8.32Q74.70 8.14 75.01 7.97L75.01 7.97L75.50 9.52Q75.09 9.78 74.38 9.99Q73.66 10.21 72.74 10.21ZM83.55 6.22L83.55 6.22Q83.55 7.12 83.30 7.85Q83.04 8.58 82.58 9.10Q82.11 9.63 81.46 9.92Q80.82 10.21 80.02 10.21L80.02 10.21Q79.22 10.21 78.57 9.92Q77.92 9.63 77.45 9.10Q76.98 8.58 76.72 7.85Q76.46 7.12 76.46 6.22L76.46 6.22Q76.46 5.34 76.73 4.62Q76.99 3.89 77.46 3.37Q77.94 2.85 78.59 2.57Q79.25 2.29 80.02 2.29L80.02 2.29Q80.80 2.29 81.45 2.57Q82.10 2.85 82.57 3.37Q83.04 3.89 83.30 4.62Q83.55 5.34 83.55 6.22ZM78.46 6.24L78.46 6.24Q78.46 7.25 78.82 7.87Q79.18 8.50 79.98 8.50L79.98 8.50Q80.75 8.50 81.14 7.87Q81.54 7.25 81.54 6.24L81.54 6.24Q81.54 5.23 81.18 4.62Q80.82 4 80.02 4L80.02 4Q79.25 4 78.86 4.62Q78.46 5.23 78.46 6.24ZM85.01 10L85.01 2.72Q85.54 2.58 86.31 2.45Q87.09 2.32 88 2.32L88 2.32Q88.90 2.32 89.49 2.57Q90.08 2.82 90.42 3.27Q90.77 3.73 90.91 4.36Q91.06 4.99 91.06 5.76L91.06 5.76L91.06 10L89.09 10L89.09 6.02Q89.09 4.96 88.85 4.50Q88.61 4.03 87.87 4.03L87.87 4.03Q87.65 4.03 87.43 4.05Q87.22 4.06 86.98 4.10L86.98 4.10L86.98 10L85.01 10ZM96.21 10L94.22 10L94.22 4.11L92.58 4.11L92.58 2.48L94.22 2.48L94.22 2.05Q94.22 1.14 94.49 0.54Q94.75-0.06 95.20-0.42Q95.65-0.78 96.22-0.94Q96.80-1.09 97.41-1.09L97.41-1.09Q98.03-1.09 98.69-0.98Q99.34-0.86 99.87-0.61L99.87-0.61L99.54 0.99Q99.17 0.86 98.62 0.73Q98.06 0.59 97.57 0.59L97.57 0.59Q97.30 0.59 97.05 0.64Q96.80 0.69 96.62 0.85Q96.43 1.01 96.32 1.30Q96.21 1.60 96.21 2.08L96.21 2.08L96.21 2.48L99.30 2.48L99.30 4.11L96.21 4.11L96.21 10ZM104.54 0.32L104.54 0.32Q104.54 0.90 104.18 1.23Q103.81 1.57 103.30 1.57L103.30 1.57Q102.78 1.57 102.42 1.23Q102.06 0.90 102.06 0.32L102.06 0.32Q102.06-0.27 102.42-0.61Q102.78-0.94 103.30-0.94L103.30-0.94Q103.81-0.94 104.18-0.61Q104.54-0.27 104.54 0.32ZM107.22 8.10L107.47 9.68Q106.86 9.97 106.33 10.07Q105.79 10.18 105.34 10.18L105.34 10.18Q104.58 10.18 104.06 9.95Q103.54 9.73 103.22 9.30Q102.91 8.88 102.78 8.27Q102.66 7.66 102.66 6.88L102.66 6.88L102.66 4.11L100.58 4.11L100.58 2.48L104.62 2.48L104.62 7.14Q104.62 7.81 104.87 8.14Q105.12 8.46 105.70 8.46L105.70 8.46Q105.97 8.46 106.35 8.39Q106.74 8.32 107.22 8.10L107.22 8.10ZM110.53 6L110.53 6Q110.53 6.93 110.86 7.42Q111.20 7.90 111.92 7.90L111.92 7.90Q112.24 7.90 112.52 7.82Q112.80 7.74 113.02 7.62L113.02 7.62L113.02 4Q112.80 3.95 112.62 3.94Q112.45 3.92 112.26 3.92L112.26 3.92Q110.53 3.92 110.53 6ZM115.01 2.72L115.01 9.09Q115.01 10.93 114.12 11.81Q113.23 12.69 111.26 12.69L111.26 12.69Q110.56 12.69 109.91 12.54Q109.26 12.40 108.67 12.21L108.67 12.21L109.04 10.54Q109.50 10.72 110.02 10.87Q110.53 11.02 111.30 11.02L111.30 11.02Q111.81 11.02 112.14 10.90Q112.48 10.78 112.67 10.58Q112.86 10.37 112.94 10.09Q113.02 9.81 113.02 9.49L113.02 9.49L113.02 9.18Q112.61 9.34 112.26 9.42Q111.92 9.50 111.52 9.50L111.52 9.50Q110.05 9.50 109.29 8.58Q108.53 7.65 108.53 6L108.53 6Q108.53 4.14 109.55 3.23Q110.58 2.32 112.34 2.32L112.34 2.32Q113.57 2.32 115.01 2.72L115.01 2.72Z"/></g></svg>