<?xml version="1.0" encoding="UTF-8"?>
<svg height="34" width="64.3" version="1.1" xmlns="http://www.w3.org/2000/svg">
    <rect
        height="32"
        width="62.3"
        rx="14"
        ry="14"
        x="1"
        y="1"
        fill="#4C3023"
        stroke="#b27457"
        stroke-width="1"
         />
    <g transform="translate(0, 14)">
        <path fill="#b27457" d="M22.88 8.14L22.88 11L11.99 11L11.99-6.33L15.46-6.33L15.46 8.14L22.88 8.14ZM29.21 11L25.76 11L25.76-6.33L36.38-6.33L36.38-3.48L29.21-3.48L29.21 0.72L35.48 0.72L35.48 3.58L29.21 3.58L29.21 11ZM50.88 11L39.76 11L39.76-6.33L50.26-6.33L50.26-3.48L43.21-3.48L43.21 0.42L49.34 0.42L49.34 3.27L43.21 3.27L43.21 8.14L50.88 8.14L50.88 11Z"/>
    </g>
</svg>