<?xml version="1.0" encoding="UTF-8"?>
<svg height="34" width="163" version="1.1" xmlns="http://www.w3.org/2000/svg">
    <rect
        height="32"
        width="161"
        rx="1"
        ry="1"
        x="1"
        y="1"
        fill="#E22837"
        stroke="#630d15"
        stroke-width="1"
         />
    <g transform="translate(0, 14)">
        <path fill="#630d15" d="M19.60-2.30L19.60-2.30Q20.70-2.30 21.40-1.96Q22.10-1.63 22.50-0.96Q22.91-0.28 23.05 0.74Q23.19 1.76 23.19 3.13L23.19 3.13L23.19 11L20.39 11L20.39 2.96Q20.39 2.18 20.29 1.70Q20.19 1.23 20.04 0.98Q19.88 0.72 19.67 0.64Q19.46 0.56 19.24 0.56L19.24 0.56Q18.99 0.56 18.71 0.60Q18.43 0.64 18.20 0.75L18.20 0.75Q18.29 1.28 18.34 1.93Q18.40 2.57 18.40 3.36L18.40 3.36L18.40 5.99L15.60 5.99L15.60 2.96Q15.60 1.62 15.33 1.09Q15.07 0.56 14.48 0.56L14.48 0.56Q14.31 0.56 14.07 0.58Q13.84 0.61 13.61 0.67L13.61 0.67L13.61 11L10.81 11L10.81-1.66Q11.90-1.96 12.97-2.13Q14.03-2.30 14.84-2.30L14.84-2.30Q15.57-2.30 16.15-2.12Q16.72-1.94 17.14-1.52L17.14-1.52Q17.62-1.82 18.26-2.06Q18.90-2.30 19.60-2.30ZM25.23 4.42L25.23 4.42Q25.23 2.99 25.68 1.73Q26.13 0.47 27.05-0.47Q27.98-1.40 29.39-1.95Q30.80-2.50 32.76-2.50L32.76-2.50Q33.94-2.50 34.89-2.33Q35.84-2.16 36.82-1.77L36.82-1.77L36.07 1.00Q35.51 0.81 34.82 0.65Q34.14 0.50 33.07 0.50L33.07 0.50Q31.84 0.50 31.01 0.79Q30.19 1.09 29.68 1.61Q29.18 2.12 28.96 2.85Q28.73 3.58 28.73 4.42L28.73 4.42Q28.73 6.24 29.75 7.28Q30.78 8.31 33.24 8.31L33.24 8.31Q34.05 8.31 34.93 8.20Q35.82 8.09 36.54 7.84L36.54 7.84L37.05 10.66Q36.32 10.94 35.28 11.13Q34.25 11.31 32.85 11.31L32.85 11.31Q30.83 11.31 29.39 10.78Q27.95 10.24 27.02 9.32Q26.10 8.40 25.67 7.14Q25.23 5.88 25.23 4.42ZM45.36 11L41.89 11L41.89 0.70L39.01 0.70L39.01-2.16L41.89-2.16L41.89-2.92Q41.89-4.51 42.35-5.56Q42.82-6.61 43.60-7.24Q44.38-7.87 45.39-8.14Q46.40-8.40 47.46-8.40L47.46-8.40Q48.56-8.40 49.70-8.21Q50.85-8.01 51.78-7.56L51.78-7.56L51.19-4.76Q50.54-4.99 49.58-5.23Q48.61-5.46 47.74-5.46L47.74-5.46Q47.27-5.46 46.83-5.38Q46.40-5.30 46.08-5.02Q45.76-4.74 45.56-4.22Q45.36-3.70 45.36-2.86L45.36-2.86L45.36-2.16L50.77-2.16L50.77 0.70L45.36 0.70L45.36 11ZM64.26-2.16L64.26 10.55Q63.31 10.80 61.95 11.06Q60.60 11.31 59 11.31L59 11.31Q57.38 11.31 56.34 10.86Q55.30 10.41 54.70 9.59Q54.10 8.76 53.88 7.64Q53.65 6.52 53.65 5.18L53.65 5.18L53.65-2.16L57.10-2.16L57.10 4.73Q57.10 6.55 57.53 7.43Q57.96 8.31 59.22 8.31L59.22 8.31Q60.01 8.31 60.79 8.17L60.79 8.17L60.79-2.16L64.26-2.16ZM67.76 11L67.76-1.74Q68.69-1.99 70.05-2.22Q71.40-2.44 73-2.44L73-2.44Q74.57-2.44 75.60-2.01Q76.64-1.57 77.24-0.77Q77.84 0.02 78.10 1.13Q78.35 2.24 78.35 3.58L78.35 3.58L78.35 11L74.90 11L74.90 4.03Q74.90 2.18 74.48 1.37Q74.06 0.56 72.78 0.56L72.78 0.56Q72.38 0.56 72.01 0.58Q71.63 0.61 71.21 0.67L71.21 0.67L71.21 11L67.76 11ZM81.23 4.42L81.23 4.42Q81.23 2.99 81.68 1.73Q82.13 0.47 83.05-0.47Q83.98-1.40 85.39-1.95Q86.80-2.50 88.76-2.50L88.76-2.50Q89.94-2.50 90.89-2.33Q91.84-2.16 92.82-1.77L92.82-1.77L92.07 1.00Q91.51 0.81 90.82 0.65Q90.14 0.50 89.07 0.50L89.07 0.50Q87.84 0.50 87.01 0.79Q86.19 1.09 85.68 1.61Q85.18 2.12 84.96 2.85Q84.73 3.58 84.73 4.42L84.73 4.42Q84.73 6.24 85.75 7.28Q86.78 8.31 89.24 8.31L89.24 8.31Q90.05 8.31 90.93 8.20Q91.82 8.09 92.54 7.84L92.54 7.84L93.05 10.66Q92.32 10.94 91.28 11.13Q90.25 11.31 88.85 11.31L88.85 11.31Q86.83 11.31 85.39 10.78Q83.95 10.24 83.02 9.32Q82.10 8.40 81.67 7.14Q81.23 5.88 81.23 4.42ZM98.00 6.10L98.00 0.70L95.01 0.70L95.01-2.16L98.00-2.16L98.00-5.46L101.45-6.02L101.45-2.16L106.96-2.16L106.96 0.70L101.45 0.70L101.45 6.02Q101.45 6.74 101.59 7.19Q101.73 7.64 101.98 7.89Q102.23 8.14 102.60 8.23Q102.96 8.31 103.41 8.31L103.41 8.31Q103.88 8.31 104.29 8.28Q104.70 8.26 105.07 8.19Q105.45 8.12 105.86 7.98Q106.26 7.84 106.74 7.61L106.74 7.61L107.22 10.58Q106.26 10.97 105.16 11.14Q104.05 11.31 103.02 11.31L103.02 11.31Q101.81 11.31 100.89 11.11Q99.96 10.92 99.32 10.36Q98.68 9.80 98.34 8.77Q98.00 7.75 98.00 6.10L98.00 6.10ZM115.95-5.94L115.95-5.94Q115.95-4.93 115.31-4.34Q114.66-3.76 113.77-3.76L113.77-3.76Q112.87-3.76 112.24-4.34Q111.61-4.93 111.61-5.94L111.61-5.94Q111.61-6.98 112.24-7.56Q112.87-8.15 113.77-8.15L113.77-8.15Q114.66-8.15 115.31-7.56Q115.95-6.98 115.95-5.94ZM120.63 7.67L121.08 10.44Q120.01 10.94 119.07 11.13Q118.14 11.31 117.35 11.31L117.35 11.31Q116.01 11.31 115.10 10.92Q114.19 10.52 113.64 9.78Q113.10 9.04 112.87 7.98Q112.65 6.91 112.65 5.54L112.65 5.54L112.65 0.70L109.01 0.70L109.01-2.16L116.09-2.16L116.09 5.99Q116.09 7.16 116.53 7.74Q116.96 8.31 117.97 8.31L117.97 8.31Q118.44 8.31 119.12 8.19Q119.79 8.06 120.63 7.67L120.63 7.67ZM135.22 4.39L135.22 4.39Q135.22 5.96 134.77 7.23Q134.32 8.51 133.51 9.43Q132.70 10.36 131.56 10.86Q130.43 11.36 129.03 11.36L129.03 11.36Q127.63 11.36 126.49 10.86Q125.36 10.36 124.53 9.43Q123.71 8.51 123.26 7.23Q122.81 5.96 122.81 4.39L122.81 4.39Q122.81 2.85 123.27 1.58Q123.74 0.30 124.56-0.61Q125.39-1.52 126.54-2.01Q127.68-2.50 129.03-2.50L129.03-2.50Q130.40-2.50 131.53-2.01Q132.67-1.52 133.49-0.61Q134.32 0.30 134.77 1.58Q135.22 2.85 135.22 4.39ZM126.31 4.42L126.31 4.42Q126.31 6.18 126.94 7.28Q127.57 8.37 128.97 8.37L128.97 8.37Q130.32 8.37 131.00 7.28Q131.69 6.18 131.69 4.42L131.69 4.42Q131.69 2.66 131.06 1.58Q130.43 0.50 129.03 0.50L129.03 0.50Q127.68 0.50 127.00 1.58Q126.31 2.66 126.31 4.42ZM137.76 11L137.76-1.74Q138.69-1.99 140.05-2.22Q141.40-2.44 143-2.44L143-2.44Q144.57-2.44 145.60-2.01Q146.64-1.57 147.24-0.77Q147.84 0.02 148.10 1.13Q148.35 2.24 148.35 3.58L148.35 3.58L148.35 11L144.90 11L144.90 4.03Q144.90 2.18 144.48 1.37Q144.06 0.56 142.78 0.56L142.78 0.56Q142.38 0.56 142.01 0.58Q141.63 0.61 141.21 0.67L141.21 0.67L141.21 11L137.76 11Z"/>
    </g>
</svg>