<?xml version="1.0" encoding="UTF-8"?>
<svg height="34" width="114.6" version="1.1" xmlns="http://www.w3.org/2000/svg"><!--Created by Josélio de S. C. Júnior - 2021 - https://github.com/joseliojunior -->
    <rect
        height="32"
        width="112.6"
        rx="16"
        ry="16"
        x="1" y="1"
        fill="#cf142b"
        stroke="#46070e"
        stroke-width="1" />
    <g transform="translate(0, 12)">
        <path fill="#46070e" d="M20.60-2.86L31.40-2.86L31.40-0.41L27.49-0.41L27.49 12L24.51 12L24.51-0.41L20.60-0.41L20.60-2.86ZM42.51 0.72L42.51 11.62Q41.70 11.83 40.53 12.05Q39.37 12.26 38 12.26L38 12.26Q36.61 12.26 35.72 11.88Q34.83 11.50 34.32 10.79Q33.80 10.08 33.61 9.12Q33.42 8.16 33.42 7.01L33.42 7.01L33.42 0.72L36.37 0.72L36.37 6.62Q36.37 8.18 36.74 8.94Q37.11 9.70 38.19 9.70L38.19 9.70Q38.86 9.70 39.54 9.58L39.54 9.58L39.54 0.72L42.51 0.72ZM55.02 0.98L54.49 3.72Q54.20 3.65 53.80 3.58Q53.41 3.50 53 3.44Q52.59 3.38 52.21 3.36Q51.82 3.34 51.56 3.34L51.56 3.34Q50.94 3.34 50.34 3.40Q49.74 3.46 49.11 3.62L49.11 3.62L49.11 12L46.14 12L46.14 1.46Q47.31 1.03 48.55 0.77Q49.78 0.50 51.44 0.50L51.44 0.50Q51.68 0.50 52.12 0.53Q52.57 0.55 53.07 0.61Q53.58 0.67 54.09 0.76Q54.61 0.84 55.02 0.98L55.02 0.98ZM62.82-2.52L62.82-2.52Q62.82-1.66 62.26-1.15Q61.71-0.65 60.94-0.65L60.94-0.65Q60.18-0.65 59.64-1.15Q59.10-1.66 59.10-2.52L59.10-2.52Q59.10-3.41 59.64-3.91Q60.18-4.42 60.94-4.42L60.94-4.42Q61.71-4.42 62.26-3.91Q62.82-3.41 62.82-2.52ZM66.82 9.14L67.21 11.52Q66.30 11.95 65.49 12.11Q64.69 12.26 64.02 12.26L64.02 12.26Q62.86 12.26 62.08 11.93Q61.30 11.59 60.84 10.96Q60.37 10.32 60.18 9.41Q59.98 8.50 59.98 7.32L59.98 7.32L59.98 3.17L56.86 3.17L56.86 0.72L62.94 0.72L62.94 7.70Q62.94 8.71 63.31 9.20Q63.68 9.70 64.54 9.70L64.54 9.70Q64.95 9.70 65.53 9.59Q66.10 9.48 66.82 9.14L66.82 9.14ZM69.51 12L69.51 1.08Q70.30 0.86 71.47 0.67Q72.63 0.48 74 0.48L74 0.48Q75.34 0.48 76.23 0.85Q77.12 1.22 77.64 1.91Q78.15 2.59 78.37 3.54Q78.58 4.49 78.58 5.64L78.58 5.64L78.58 12L75.63 12L75.63 6.02Q75.63 4.44 75.27 3.74Q74.91 3.05 73.81 3.05L73.81 3.05Q73.47 3.05 73.15 3.07Q72.82 3.10 72.46 3.14L72.46 3.14L72.46 12L69.51 12ZM83.79 6L83.79 6Q83.79 7.39 84.30 8.12Q84.80 8.86 85.88 8.86L85.88 8.86Q86.36 8.86 86.78 8.74Q87.20 8.62 87.54 8.42L87.54 8.42L87.54 3Q87.20 2.93 86.94 2.90Q86.67 2.88 86.38 2.88L86.38 2.88Q83.79 2.88 83.79 6ZM90.51 1.08L90.51 10.63Q90.51 13.39 89.18 14.71Q87.85 16.03 84.90 16.03L84.90 16.03Q83.84 16.03 82.87 15.82Q81.90 15.60 81.01 15.31L81.01 15.31L81.56 12.82Q82.26 13.08 83.02 13.31Q83.79 13.54 84.94 13.54L84.94 13.54Q85.71 13.54 86.22 13.36Q86.72 13.18 87.01 12.86Q87.30 12.55 87.42 12.13Q87.54 11.71 87.54 11.23L87.54 11.23L87.54 10.78Q86.91 11.02 86.40 11.14Q85.88 11.26 85.28 11.26L85.28 11.26Q83.07 11.26 81.93 9.86Q80.79 8.47 80.79 6L80.79 6Q80.79 3.22 82.33 1.85Q83.86 0.48 86.50 0.48L86.50 0.48Q88.35 0.48 90.51 1.08L90.51 1.08Z"/>
    </g>
</svg>