<?xml version="1.0" encoding="UTF-8"?>
<svg height="26" width="90.6" version="1.1" xmlns="http://www.w3.org/2000/svg"><!--Created by Josélio de S. C. Júnior - 2021 - https://github.com/joseliojunior -->
    <rect
        height="24"
        width="88.6"
        rx="12"
        ry="12"
        x="1" y="1"
        fill="#cf142b"
        stroke="#46070e"
        stroke-width="1" />
    <g transform="translate(0, 8)">
        <path fill="#46070e" stroke="none" d="M20.40 0.10L27.60 0.10L27.60 1.73L24.99 1.73L24.99 10L23.01 10L23.01 1.73L20.40 1.73L20.40 0.10ZM35.01 2.48L35.01 9.74Q34.46 9.89 33.69 10.03Q32.91 10.18 32 10.18L32 10.18Q31.07 10.18 30.48 9.92Q29.89 9.66 29.54 9.19Q29.20 8.72 29.07 8.08Q28.94 7.44 28.94 6.67L28.94 6.67L28.94 2.48L30.91 2.48L30.91 6.42Q30.91 7.46 31.16 7.96Q31.41 8.46 32.13 8.46L32.13 8.46Q32.58 8.46 33.02 8.38L33.02 8.38L33.02 2.48L35.01 2.48ZM43.34 2.66L42.99 4.48Q42.80 4.43 42.54 4.38Q42.27 4.34 42 4.30Q41.73 4.26 41.47 4.24Q41.22 4.22 41.04 4.22L41.04 4.22Q40.62 4.22 40.22 4.26Q39.82 4.30 39.41 4.42L39.41 4.42L39.41 10L37.42 10L37.42 2.98Q38.21 2.69 39.03 2.51Q39.86 2.34 40.96 2.34L40.96 2.34Q41.12 2.34 41.42 2.35Q41.71 2.37 42.05 2.41Q42.38 2.45 42.73 2.50Q43.07 2.56 43.34 2.66L43.34 2.66ZM48.54 0.32L48.54 0.32Q48.54 0.90 48.18 1.23Q47.81 1.57 47.30 1.57L47.30 1.57Q46.78 1.57 46.42 1.23Q46.06 0.90 46.06 0.32L46.06 0.32Q46.06-0.27 46.42-0.61Q46.78-0.94 47.30-0.94L47.30-0.94Q47.81-0.94 48.18-0.61Q48.54-0.27 48.54 0.32ZM51.22 8.10L51.47 9.68Q50.86 9.97 50.33 10.07Q49.79 10.18 49.34 10.18L49.34 10.18Q48.58 10.18 48.06 9.95Q47.54 9.73 47.22 9.30Q46.91 8.88 46.78 8.27Q46.66 7.66 46.66 6.88L46.66 6.88L46.66 4.11L44.58 4.11L44.58 2.48L48.62 2.48L48.62 7.14Q48.62 7.81 48.87 8.14Q49.12 8.46 49.70 8.46L49.70 8.46Q49.97 8.46 50.35 8.39Q50.74 8.32 51.22 8.10L51.22 8.10ZM53.01 10L53.01 2.72Q53.54 2.58 54.31 2.45Q55.09 2.32 56 2.32L56 2.32Q56.90 2.32 57.49 2.57Q58.08 2.82 58.42 3.27Q58.77 3.73 58.91 4.36Q59.06 4.99 59.06 5.76L59.06 5.76L59.06 10L57.09 10L57.09 6.02Q57.09 4.96 56.85 4.50Q56.61 4.03 55.87 4.03L55.87 4.03Q55.65 4.03 55.43 4.05Q55.22 4.06 54.98 4.10L54.98 4.10L54.98 10L53.01 10ZM62.53 6L62.53 6Q62.53 6.93 62.86 7.42Q63.20 7.90 63.92 7.90L63.92 7.90Q64.24 7.90 64.52 7.82Q64.80 7.74 65.02 7.62L65.02 7.62L65.02 4Q64.80 3.95 64.62 3.94Q64.45 3.92 64.26 3.92L64.26 3.92Q62.53 3.92 62.53 6ZM67.01 2.72L67.01 9.09Q67.01 10.93 66.12 11.81Q65.23 12.69 63.26 12.69L63.26 12.69Q62.56 12.69 61.91 12.54Q61.26 12.40 60.67 12.21L60.67 12.21L61.04 10.54Q61.50 10.72 62.02 10.87Q62.53 11.02 63.30 11.02L63.30 11.02Q63.81 11.02 64.14 10.90Q64.48 10.78 64.67 10.58Q64.86 10.37 64.94 10.09Q65.02 9.81 65.02 9.49L65.02 9.49L65.02 9.18Q64.61 9.34 64.26 9.42Q63.92 9.50 63.52 9.50L63.52 9.50Q62.05 9.50 61.29 8.58Q60.53 7.65 60.53 6L60.53 6Q60.53 4.14 61.55 3.23Q62.58 2.32 64.34 2.32L64.34 2.32Q65.57 2.32 67.01 2.72L67.01 2.72Z"/>
    </g>
</svg>