<?xml version="1.0" encoding="UTF-8"?>
<svg height="34" width="106.6" version="1.1" xmlns="http://www.w3.org/2000/svg">
    <rect
        height="32"
        width="104.6"
        rx="1"
        ry="1"
        x="1"
        y="1"
        fill="#cf142b"
        stroke="#46070e"
        stroke-width="1"
         />
    <g transform="translate(0, 14)">
        <path fill="#46070e" d="M10.70-6.33L23.30-6.33L23.30-3.48L18.74-3.48L18.74 11L15.26 11L15.26-3.48L10.70-3.48L10.70-6.33ZM36.26-2.16L36.26 10.55Q35.31 10.80 33.95 11.06Q32.60 11.31 31 11.31L31 11.31Q29.38 11.31 28.34 10.86Q27.30 10.41 26.70 9.59Q26.10 8.76 25.88 7.64Q25.65 6.52 25.65 5.18L25.65 5.18L25.65-2.16L29.10-2.16L29.10 4.73Q29.10 6.55 29.53 7.43Q29.96 8.31 31.22 8.31L31.22 8.31Q32.01 8.31 32.79 8.17L32.79 8.17L32.79-2.16L36.26-2.16ZM50.85-1.85L50.24 1.34Q49.90 1.26 49.44 1.17Q48.98 1.09 48.50 1.02Q48.02 0.95 47.58 0.92Q47.13 0.89 46.82 0.89L46.82 0.89Q46.09 0.89 45.39 0.96Q44.69 1.03 43.96 1.23L43.96 1.23L43.96 11L40.49 11L40.49-1.29Q41.86-1.80 43.31-2.10Q44.75-2.41 46.68-2.41L46.68-2.41Q46.96-2.41 47.48-2.38Q48.00-2.36 48.58-2.29Q49.17-2.22 49.77-2.12Q50.38-2.02 50.85-1.85L50.85-1.85ZM59.95-5.94L59.95-5.94Q59.95-4.93 59.31-4.34Q58.66-3.76 57.77-3.76L57.77-3.76Q56.87-3.76 56.24-4.34Q55.61-4.93 55.61-5.94L55.61-5.94Q55.61-6.98 56.24-7.56Q56.87-8.15 57.77-8.15L57.77-8.15Q58.66-8.15 59.31-7.56Q59.95-6.98 59.95-5.94ZM64.63 7.67L65.08 10.44Q64.01 10.94 63.07 11.13Q62.14 11.31 61.35 11.31L61.35 11.31Q60.01 11.31 59.10 10.92Q58.19 10.52 57.64 9.78Q57.10 9.04 56.87 7.98Q56.65 6.91 56.65 5.54L56.65 5.54L56.65 0.70L53.01 0.70L53.01-2.16L60.09-2.16L60.09 5.99Q60.09 7.16 60.53 7.74Q60.96 8.31 61.97 8.31L61.97 8.31Q62.44 8.31 63.12 8.19Q63.79 8.06 64.63 7.67L64.63 7.67ZM67.76 11L67.76-1.74Q68.69-1.99 70.05-2.22Q71.40-2.44 73-2.44L73-2.44Q74.57-2.44 75.60-2.01Q76.64-1.57 77.24-0.77Q77.84 0.02 78.10 1.13Q78.35 2.24 78.35 3.58L78.35 3.58L78.35 11L74.90 11L74.90 4.03Q74.90 2.18 74.48 1.37Q74.06 0.56 72.78 0.56L72.78 0.56Q72.38 0.56 72.01 0.58Q71.63 0.61 71.21 0.67L71.21 0.67L71.21 11L67.76 11ZM84.42 4L84.42 4Q84.42 5.62 85.01 6.48Q85.60 7.33 86.86 7.33L86.86 7.33Q87.42 7.33 87.91 7.19Q88.40 7.05 88.79 6.83L88.79 6.83L88.79 0.50Q88.40 0.42 88.09 0.39Q87.78 0.36 87.45 0.36L87.45 0.36Q84.42 0.36 84.42 4ZM92.26-1.74L92.26 9.40Q92.26 12.62 90.71 14.16Q89.16 15.70 85.71 15.70L85.71 15.70Q84.48 15.70 83.35 15.45Q82.21 15.20 81.18 14.86L81.18 14.86L81.82 11.95Q82.63 12.26 83.53 12.53Q84.42 12.79 85.77 12.79L85.77 12.79Q86.66 12.79 87.25 12.58Q87.84 12.37 88.18 12.01Q88.51 11.64 88.65 11.15Q88.79 10.66 88.79 10.10L88.79 10.10L88.79 9.57Q88.06 9.85 87.46 9.99Q86.86 10.13 86.16 10.13L86.16 10.13Q83.58 10.13 82.25 8.51Q80.92 6.88 80.92 4L80.92 4Q80.92 0.75 82.72-0.84Q84.51-2.44 87.59-2.44L87.59-2.44Q89.74-2.44 92.26-1.74L92.26-1.74Z"/>
    </g>
</svg>