<?xml version="1.0" encoding="UTF-8"?>
<svg height="34" width="199.29999999999998" version="1.1" xmlns="http://www.w3.org/2000/svg"><!--Created by Josélio de S. C. Júnior - 2021 - https://github.com/joseliojunior -->
    <rect
        height="32"
        width="197.29999999999998"
        rx="16"
        ry="16"
        x="1" y="1"
        fill="#199f4b"
        stroke="#041a0c"
        stroke-width="1" />
    <g transform="translate(0, 12)">
        <path fill="#041a0c" stroke="none" d="M27.51 12L24.46 12Q23.89 10.34 23.24 8.26Q22.59 6.17 22.02 4.09Q21.44 2.02 20.98 0.17Q20.53-1.68 20.31-2.86L20.31-2.86L23.43-2.86Q23.58-1.70 23.86-0.18Q24.15 1.34 24.50 2.96Q24.85 4.58 25.24 6.16Q25.64 7.73 26.02 8.98L26.02 8.98Q26.41 7.75 26.79 6.18Q27.18 4.61 27.51 2.99Q27.85 1.37 28.14-0.17Q28.42-1.70 28.62-2.86L28.62-2.86L31.71-2.86Q31.42-1.42 31.00 0.36Q30.58 2.14 30.04 4.09Q29.50 6.05 28.86 8.08Q28.21 10.10 27.51 12L27.51 12ZM38.82-2.52L38.82-2.52Q38.82-1.66 38.26-1.15Q37.71-0.65 36.94-0.65L36.94-0.65Q36.18-0.65 35.64-1.15Q35.10-1.66 35.10-2.52L35.10-2.52Q35.10-3.41 35.64-3.91Q36.18-4.42 36.94-4.42L36.94-4.42Q37.71-4.42 38.26-3.91Q38.82-3.41 38.82-2.52ZM42.82 9.14L43.21 11.52Q42.30 11.95 41.49 12.11Q40.69 12.26 40.02 12.26L40.02 12.26Q38.86 12.26 38.08 11.93Q37.30 11.59 36.84 10.96Q36.37 10.32 36.18 9.41Q35.98 8.50 35.98 7.32L35.98 7.32L35.98 3.17L32.86 3.17L32.86 0.72L38.94 0.72L38.94 7.70Q38.94 8.71 39.31 9.20Q39.68 9.70 40.54 9.70L40.54 9.70Q40.95 9.70 41.53 9.59Q42.10 9.48 42.82 9.14L42.82 9.14ZM52.23 0.60L52.23 0.60Q53.17 0.60 53.77 0.89Q54.37 1.18 54.72 1.75Q55.06 2.33 55.18 3.20Q55.30 4.08 55.30 5.26L55.30 5.26L55.30 12L52.90 12L52.90 5.11Q52.90 4.44 52.82 4.03Q52.74 3.62 52.60 3.41Q52.47 3.19 52.29 3.12Q52.11 3.05 51.92 3.05L51.92 3.05Q51.70 3.05 51.46 3.08Q51.22 3.12 51.03 3.22L51.03 3.22Q51.10 3.67 51.15 4.22Q51.20 4.78 51.20 5.45L51.20 5.45L51.20 7.70L48.80 7.70L48.80 5.11Q48.80 3.96 48.57 3.50Q48.34 3.05 47.84 3.05L47.84 3.05Q47.70 3.05 47.49 3.07Q47.29 3.10 47.10 3.14L47.10 3.14L47.10 12L44.70 12L44.70 1.15Q45.63 0.89 46.54 0.74Q47.46 0.60 48.15 0.60L48.15 0.60Q48.78 0.60 49.27 0.76Q49.76 0.91 50.12 1.27L50.12 1.27Q50.53 1.01 51.08 0.80Q51.63 0.60 52.23 0.60ZM75.97-2.86L78.92-2.86L78.92 12L75.97 12L75.97 5.45L72.03 5.45L72.03 12L69.08 12L69.08-2.86L72.03-2.86L72.03 3L75.97 3L75.97-2.86ZM80.74 6.46L80.74 6.46Q80.74 4.97 81.20 3.84Q81.66 2.71 82.40 1.96Q83.14 1.20 84.10 0.82Q85.06 0.43 86.07 0.43L86.07 0.43Q88.57 0.43 89.86 1.91Q91.16 3.38 91.16 6.22L91.16 6.22Q91.16 6.50 91.15 6.82Q91.14 7.13 91.11 7.32L91.11 7.32L83.79 7.32Q83.79 8.42 84.70 9.06Q85.62 9.70 87.06 9.70L87.06 9.70Q87.94 9.70 88.75 9.50Q89.55 9.31 90.10 9.12L90.10 9.12L90.51 11.64Q89.74 11.90 88.88 12.08Q88.02 12.26 86.94 12.26L86.94 12.26Q85.50 12.26 84.36 11.89Q83.22 11.52 82.41 10.79Q81.61 10.06 81.18 8.98Q80.74 7.90 80.74 6.46ZM83.79 5.28L88.30 5.28Q88.30 4.82 88.18 4.40Q88.06 3.98 87.80 3.65Q87.54 3.31 87.13 3.11Q86.72 2.90 86.12 2.90L86.12 2.90Q85.54 2.90 85.12 3.10Q84.70 3.29 84.43 3.62Q84.15 3.96 84.00 4.39Q83.84 4.82 83.79 5.28L83.79 5.28ZM102.82 9.14L103.21 11.52Q103.14 11.57 102.88 11.69Q102.63 11.81 102.22 11.94Q101.82 12.07 101.23 12.17Q100.64 12.26 99.90 12.26L99.90 12.26Q97.86 12.26 96.92 11.05Q95.98 9.84 95.98 7.51L95.98 7.51L95.98-2.06L92.86-2.06L92.86-4.51L98.94-4.51L98.94 7.73Q98.94 8.88 99.39 9.29Q99.85 9.70 100.54 9.70L100.54 9.70Q101.43 9.70 102.03 9.46Q102.63 9.22 102.82 9.14L102.82 9.14ZM112.26 6.46L112.26 6.46Q112.26 4.94 111.66 3.97Q111.06 3 109.83 3L109.83 3Q109.50 3 109.11 3.04Q108.73 3.07 108.46 3.10L108.46 3.10L108.46 9.29Q108.75 9.48 109.23 9.60Q109.71 9.72 110.19 9.72L110.19 9.72Q111.25 9.72 111.75 8.87Q112.26 8.02 112.26 6.46ZM115.26 6.36L115.26 6.36Q115.26 7.66 114.97 8.75Q114.68 9.84 114.13 10.62Q113.58 11.40 112.74 11.83Q111.90 12.26 110.79 12.26L110.79 12.26Q109.66 12.26 108.46 11.71L108.46 11.71L108.46 15.96L105.51 15.96L105.51 1.08Q106.33 0.82 107.52 0.65Q108.70 0.48 109.86 0.48L109.86 0.48Q112.47 0.48 113.86 2.06Q115.26 3.65 115.26 6.36ZM132.46 12L129.51 12L129.51-2.86L138.61-2.86L138.61-0.41L132.46-0.41L132.46 3.19L137.84 3.19L137.84 5.64L132.46 5.64L132.46 12ZM146.82-2.52L146.82-2.52Q146.82-1.66 146.26-1.15Q145.71-0.65 144.94-0.65L144.94-0.65Q144.18-0.65 143.64-1.15Q143.10-1.66 143.10-2.52L143.10-2.52Q143.10-3.41 143.64-3.91Q144.18-4.42 144.94-4.42L144.94-4.42Q145.71-4.42 146.26-3.91Q146.82-3.41 146.82-2.52ZM150.82 9.14L151.21 11.52Q150.30 11.95 149.49 12.11Q148.69 12.26 148.02 12.26L148.02 12.26Q146.86 12.26 146.08 11.93Q145.30 11.59 144.84 10.96Q144.37 10.32 144.18 9.41Q143.98 8.50 143.98 7.32L143.98 7.32L143.98 3.17L140.86 3.17L140.86 0.72L146.94 0.72L146.94 7.70Q146.94 8.71 147.31 9.20Q147.68 9.70 148.54 9.70L148.54 9.70Q148.95 9.70 149.53 9.59Q150.10 9.48 150.82 9.14L150.82 9.14ZM162.82 9.14L163.21 11.52Q163.14 11.57 162.88 11.69Q162.63 11.81 162.22 11.94Q161.82 12.07 161.23 12.17Q160.64 12.26 159.90 12.26L159.90 12.26Q157.86 12.26 156.92 11.05Q155.98 9.84 155.98 7.51L155.98 7.51L155.98-2.06L152.86-2.06L152.86-4.51L158.94-4.51L158.94 7.73Q158.94 8.88 159.39 9.29Q159.85 9.70 160.54 9.70L160.54 9.70Q161.43 9.70 162.03 9.46Q162.63 9.22 162.82 9.14L162.82 9.14ZM164.74 6.46L164.74 6.46Q164.74 4.97 165.20 3.84Q165.66 2.71 166.40 1.96Q167.14 1.20 168.10 0.82Q169.06 0.43 170.07 0.43L170.07 0.43Q172.57 0.43 173.86 1.91Q175.16 3.38 175.16 6.22L175.16 6.22Q175.16 6.50 175.15 6.82Q175.14 7.13 175.11 7.32L175.11 7.32L167.79 7.32Q167.79 8.42 168.70 9.06Q169.62 9.70 171.06 9.70L171.06 9.70Q171.94 9.70 172.75 9.50Q173.55 9.31 174.10 9.12L174.10 9.12L174.51 11.64Q173.74 11.90 172.88 12.08Q172.02 12.26 170.94 12.26L170.94 12.26Q169.50 12.26 168.36 11.89Q167.22 11.52 166.41 10.79Q165.61 10.06 165.18 8.98Q164.74 7.90 164.74 6.46ZM167.79 5.28L172.30 5.28Q172.30 4.82 172.18 4.40Q172.06 3.98 171.80 3.65Q171.54 3.31 171.13 3.11Q170.72 2.90 170.12 2.90L170.12 2.90Q169.54 2.90 169.12 3.10Q168.70 3.29 168.43 3.62Q168.15 3.96 168.00 4.39Q167.84 4.82 167.79 5.28L167.79 5.28Z"/>
    </g>
</svg>