<?xml version="1.0" encoding="UTF-8"?>
<svg height="26" width="147.3" version="1.1" xmlns="http://www.w3.org/2000/svg"><!--Created by Josélio de S. C. Júnior - 2021 - https://github.com/joseliojunior -->
    <rect
        height="24"
        width="145.3"
        rx="12"
        ry="12"
        x="1" y="1"
        fill="#199f4b"
        stroke="#041a0c"
        stroke-width="1" />
    <g transform="translate(0, 8)">
        <path fill="#041a0c" stroke="none" d="M25.01 10L22.98 10Q22.59 8.90 22.16 7.50Q21.73 6.11 21.34 4.73Q20.96 3.34 20.66 2.11Q20.35 0.88 20.21 0.10L20.21 0.10L22.29 0.10Q22.38 0.86 22.58 1.88Q22.77 2.90 23 3.98Q23.23 5.06 23.50 6.10Q23.76 7.15 24.02 7.98L24.02 7.98Q24.27 7.17 24.53 6.12Q24.78 5.07 25.01 3.99Q25.23 2.91 25.42 1.89Q25.62 0.86 25.74 0.10L25.74 0.10L27.81 0.10Q27.62 1.06 27.34 2.24Q27.06 3.42 26.70 4.73Q26.34 6.03 25.90 7.38Q25.47 8.74 25.01 10L25.01 10ZM32.54 0.32L32.54 0.32Q32.54 0.90 32.18 1.23Q31.81 1.57 31.30 1.57L31.30 1.57Q30.78 1.57 30.42 1.23Q30.06 0.90 30.06 0.32L30.06 0.32Q30.06-0.27 30.42-0.61Q30.78-0.94 31.30-0.94L31.30-0.94Q31.81-0.94 32.18-0.61Q32.54-0.27 32.54 0.32ZM35.22 8.10L35.47 9.68Q34.86 9.97 34.33 10.07Q33.79 10.18 33.34 10.18L33.34 10.18Q32.58 10.18 32.06 9.95Q31.54 9.73 31.22 9.30Q30.91 8.88 30.78 8.27Q30.66 7.66 30.66 6.88L30.66 6.88L30.66 4.11L28.58 4.11L28.58 2.48L32.62 2.48L32.62 7.14Q32.62 7.81 32.87 8.14Q33.12 8.46 33.70 8.46L33.70 8.46Q33.97 8.46 34.35 8.39Q34.74 8.32 35.22 8.10L35.22 8.10ZM41.49 2.40L41.49 2.40Q42.11 2.40 42.51 2.59Q42.91 2.78 43.14 3.17Q43.38 3.55 43.46 4.14Q43.54 4.72 43.54 5.50L43.54 5.50L43.54 10L41.94 10L41.94 5.41Q41.94 4.96 41.88 4.69Q41.82 4.42 41.74 4.27Q41.65 4.13 41.53 4.08Q41.41 4.03 41.28 4.03L41.28 4.03Q41.14 4.03 40.98 4.06Q40.82 4.08 40.69 4.14L40.69 4.14Q40.74 4.45 40.77 4.82Q40.80 5.18 40.80 5.63L40.80 5.63L40.80 7.14L39.20 7.14L39.20 5.41Q39.20 4.64 39.05 4.34Q38.90 4.03 38.56 4.03L38.56 4.03Q38.46 4.03 38.33 4.05Q38.19 4.06 38.06 4.10L38.06 4.10L38.06 10L36.46 10L36.46 2.77Q37.09 2.59 37.70 2.50Q38.30 2.40 38.77 2.40L38.77 2.40Q39.18 2.40 39.51 2.50Q39.84 2.61 40.08 2.85L40.08 2.85Q40.35 2.67 40.72 2.54Q41.09 2.40 41.49 2.40ZM57.31 0.10L59.28 0.10L59.28 10L57.31 10L57.31 5.63L54.69 5.63L54.69 10L52.72 10L52.72 0.10L54.69 0.10L54.69 4L57.31 4L57.31 0.10ZM60.50 6.30L60.50 6.30Q60.50 5.31 60.80 4.56Q61.10 3.81 61.60 3.30Q62.10 2.80 62.74 2.54Q63.38 2.29 64.05 2.29L64.05 2.29Q65.71 2.29 66.58 3.27Q67.44 4.26 67.44 6.14L67.44 6.14Q67.44 6.34 67.43 6.54Q67.42 6.75 67.41 6.88L67.41 6.88L62.53 6.88Q62.53 7.62 63.14 8.04Q63.74 8.46 64.70 8.46L64.70 8.46Q65.30 8.46 65.83 8.34Q66.37 8.21 66.74 8.08L66.74 8.08L67.01 9.76Q66.50 9.94 65.92 10.06Q65.34 10.18 64.62 10.18L64.62 10.18Q63.66 10.18 62.90 9.93Q62.14 9.68 61.61 9.19Q61.07 8.70 60.78 7.98Q60.50 7.26 60.50 6.30ZM62.53 5.52L65.54 5.52Q65.54 5.22 65.46 4.94Q65.38 4.66 65.20 4.43Q65.02 4.21 64.75 4.07Q64.48 3.94 64.08 3.94L64.08 3.94Q63.70 3.94 63.42 4.06Q63.14 4.19 62.95 4.42Q62.77 4.64 62.66 4.93Q62.56 5.22 62.53 5.52L62.53 5.52ZM75.22 8.10L75.47 9.68Q75.42 9.71 75.26 9.79Q75.09 9.87 74.82 9.96Q74.54 10.05 74.15 10.11Q73.76 10.18 73.26 10.18L73.26 10.18Q71.90 10.18 71.28 9.37Q70.66 8.56 70.66 7.01L70.66 7.01L70.66 0.62L68.58 0.62L68.58-1.01L72.62-1.01L72.62 7.15Q72.62 7.92 72.93 8.19Q73.23 8.46 73.70 8.46L73.70 8.46Q74.29 8.46 74.69 8.30Q75.09 8.14 75.22 8.10L75.22 8.10ZM81.50 6.30L81.50 6.30Q81.50 5.30 81.10 4.65Q80.70 4 79.89 4L79.89 4Q79.66 4 79.41 4.02Q79.15 4.05 78.98 4.06L78.98 4.06L78.98 8.19Q79.17 8.32 79.49 8.40Q79.81 8.48 80.13 8.48L80.13 8.48Q80.83 8.48 81.17 7.91Q81.50 7.34 81.50 6.30ZM83.50 6.24L83.50 6.24Q83.50 7.10 83.31 7.83Q83.12 8.56 82.75 9.08Q82.38 9.60 81.82 9.89Q81.26 10.18 80.53 10.18L80.53 10.18Q79.78 10.18 78.98 9.81L78.98 9.81L78.98 12.64L77.01 12.64L77.01 2.72Q77.55 2.54 78.34 2.43Q79.14 2.32 79.90 2.32L79.90 2.32Q81.65 2.32 82.58 3.38Q83.50 4.43 83.50 6.24ZM94.98 10L93.01 10L93.01 0.10L99.07 0.10L99.07 1.73L94.98 1.73L94.98 4.13L98.56 4.13L98.56 5.76L94.98 5.76L94.98 10ZM104.54 0.32L104.54 0.32Q104.54 0.90 104.18 1.23Q103.81 1.57 103.30 1.57L103.30 1.57Q102.78 1.57 102.42 1.23Q102.06 0.90 102.06 0.32L102.06 0.32Q102.06-0.27 102.42-0.61Q102.78-0.94 103.30-0.94L103.30-0.94Q103.81-0.94 104.18-0.61Q104.54-0.27 104.54 0.32ZM107.22 8.10L107.47 9.68Q106.86 9.97 106.33 10.07Q105.79 10.18 105.34 10.18L105.34 10.18Q104.58 10.18 104.06 9.95Q103.54 9.73 103.22 9.30Q102.91 8.88 102.78 8.27Q102.66 7.66 102.66 6.88L102.66 6.88L102.66 4.11L100.58 4.11L100.58 2.48L104.62 2.48L104.62 7.14Q104.62 7.81 104.87 8.14Q105.12 8.46 105.70 8.46L105.70 8.46Q105.97 8.46 106.35 8.39Q106.74 8.32 107.22 8.10L107.22 8.10ZM115.22 8.10L115.47 9.68Q115.42 9.71 115.26 9.79Q115.09 9.87 114.82 9.96Q114.54 10.05 114.15 10.11Q113.76 10.18 113.26 10.18L113.26 10.18Q111.90 10.18 111.28 9.37Q110.66 8.56 110.66 7.01L110.66 7.01L110.66 0.62L108.58 0.62L108.58-1.01L112.62-1.01L112.62 7.15Q112.62 7.92 112.93 8.19Q113.23 8.46 113.70 8.46L113.70 8.46Q114.29 8.46 114.69 8.30Q115.09 8.14 115.22 8.10L115.22 8.10ZM116.50 6.30L116.50 6.30Q116.50 5.31 116.80 4.56Q117.10 3.81 117.60 3.30Q118.10 2.80 118.74 2.54Q119.38 2.29 120.05 2.29L120.05 2.29Q121.71 2.29 122.58 3.27Q123.44 4.26 123.44 6.14L123.44 6.14Q123.44 6.34 123.43 6.54Q123.42 6.75 123.41 6.88L123.41 6.88L118.53 6.88Q118.53 7.62 119.14 8.04Q119.74 8.46 120.70 8.46L120.70 8.46Q121.30 8.46 121.83 8.34Q122.37 8.21 122.74 8.08L122.74 8.08L123.01 9.76Q122.50 9.94 121.92 10.06Q121.34 10.18 120.62 10.18L120.62 10.18Q119.66 10.18 118.90 9.93Q118.14 9.68 117.61 9.19Q117.07 8.70 116.78 7.98Q116.50 7.26 116.50 6.30ZM118.53 5.52L121.54 5.52Q121.54 5.22 121.46 4.94Q121.38 4.66 121.20 4.43Q121.02 4.21 120.75 4.07Q120.48 3.94 120.08 3.94L120.08 3.94Q119.70 3.94 119.42 4.06Q119.14 4.19 118.95 4.42Q118.77 4.64 118.66 4.93Q118.56 5.22 118.53 5.52L118.53 5.52Z"/>
    </g>
</svg>