<?xml version="1.0" encoding="UTF-8"?>
<svg height="34" width="134.8" version="1.1" xmlns="http://www.w3.org/2000/svg">
    <rect
        height="32"
        width="132.8"
        rx="14"
        ry="14"
        x="1"
        y="1"
        fill="#9ccc7c"
        stroke="#4f7d31"
        stroke-width="1"
         />
    <g transform="translate(0, 14)">
        <path fill="#4f7d31" d="M22.88 8.14L22.88 11L11.99 11L11.99-6.33L15.46-6.33L15.46 8.14L22.88 8.14ZM31.95-5.94L31.95-5.94Q31.95-4.93 31.31-4.34Q30.66-3.76 29.77-3.76L29.77-3.76Q28.87-3.76 28.24-4.34Q27.61-4.93 27.61-5.94L27.61-5.94Q27.61-6.98 28.24-7.56Q28.87-8.15 29.77-8.15L29.77-8.15Q30.66-8.15 31.31-7.56Q31.95-6.98 31.95-5.94ZM36.63 7.67L37.08 10.44Q36.01 10.94 35.07 11.13Q34.14 11.31 33.35 11.31L33.35 11.31Q32.01 11.31 31.10 10.92Q30.19 10.52 29.64 9.78Q29.10 9.04 28.87 7.98Q28.65 6.91 28.65 5.54L28.65 5.54L28.65 0.70L25.01 0.70L25.01-2.16L32.09-2.16L32.09 5.99Q32.09 7.16 32.53 7.74Q32.96 8.31 33.97 8.31L33.97 8.31Q34.44 8.31 35.12 8.19Q35.79 8.06 36.63 7.67L36.63 7.67ZM50.63 7.67L51.08 10.44Q50.99 10.50 50.70 10.64Q50.40 10.78 49.93 10.93Q49.45 11.08 48.77 11.20Q48.08 11.31 47.21 11.31L47.21 11.31Q44.83 11.31 43.74 9.89Q42.65 8.48 42.65 5.76L42.65 5.76L42.65-5.41L39.01-5.41L39.01-8.26L46.09-8.26L46.09 6.02Q46.09 7.36 46.62 7.84Q47.16 8.31 47.97 8.31L47.97 8.31Q49.00 8.31 49.70 8.03Q50.40 7.75 50.63 7.67L50.63 7.67ZM61.69-2.16L65.22-2.16Q64.68-0.31 64.19 1.47Q63.70 3.24 63.17 4.94Q62.64 6.63 62.04 8.26Q61.44 9.88 60.74 11.42L60.74 11.42Q60.20 12.54 59.69 13.35Q59.17 14.16 58.54 14.68Q57.91 15.20 57.14 15.45Q56.37 15.70 55.33 15.70L55.33 15.70Q54.46 15.70 53.75 15.56Q53.04 15.42 52.56 15.20L52.56 15.20L53.20 12.32Q53.76 12.57 54.20 12.67Q54.63 12.76 55.14 12.76L55.14 12.76Q56.14 12.76 56.76 12.09Q57.38 11.42 57.74 10.50L57.74 10.50Q56.51 8.03 55.28 4.85Q54.04 1.68 53.04-2.16L53.04-2.16L56.62-2.16Q56.87-1.12 57.19 0.05Q57.52 1.23 57.88 2.40Q58.24 3.58 58.65 4.71Q59.06 5.85 59.48 6.83L59.48 6.83Q59.76 5.85 60.06 4.71Q60.37 3.58 60.65 2.42Q60.93 1.26 61.20 0.08Q61.46-1.10 61.69-2.16L61.69-2.16ZM72.27-6.53L72.27-6.53Q75.58-6.53 77.40-5.17Q79.22-3.81 79.22-0.73L79.22-0.73Q79.22 2.38 77.38 3.76Q75.55 5.15 72.19 5.15L72.19 5.15L70.96 5.15L70.96 11L67.51 11L67.51-6.11Q68.02-6.22 68.65-6.30Q69.28-6.39 69.92-6.43Q70.56-6.47 71.18-6.50Q71.80-6.53 72.27-6.53ZM72.66-3.53L72.66-3.53Q72.36-3.53 71.81-3.52Q71.26-3.50 70.96-3.45L70.96-3.45L70.96 2.15L72.36 2.15Q74.01 2.15 74.85 1.49Q75.69 0.84 75.69-0.76L75.69-0.76Q75.69-2.27 74.86-2.90Q74.04-3.53 72.66-3.53ZM93.22 4.39L93.22 4.39Q93.22 5.96 92.77 7.23Q92.32 8.51 91.51 9.43Q90.70 10.36 89.56 10.86Q88.43 11.36 87.03 11.36L87.03 11.36Q85.63 11.36 84.49 10.86Q83.36 10.36 82.53 9.43Q81.71 8.51 81.26 7.23Q80.81 5.96 80.81 4.39L80.81 4.39Q80.81 2.85 81.27 1.58Q81.74 0.30 82.56-0.61Q83.39-1.52 84.54-2.01Q85.68-2.50 87.03-2.50L87.03-2.50Q88.40-2.50 89.53-2.01Q90.67-1.52 91.49-0.61Q92.32 0.30 92.77 1.58Q93.22 2.85 93.22 4.39ZM84.31 4.42L84.31 4.42Q84.31 6.18 84.94 7.28Q85.57 8.37 86.97 8.37L86.97 8.37Q88.32 8.37 89.00 7.28Q89.69 6.18 89.69 4.42L89.69 4.42Q89.69 2.66 89.06 1.58Q88.43 0.50 87.03 0.50L87.03 0.50Q85.68 0.50 85.00 1.58Q84.31 2.66 84.31 4.42ZM95.76 11L95.76-1.74Q96.69-1.99 98.05-2.22Q99.40-2.44 101-2.44L101-2.44Q102.57-2.44 103.60-2.01Q104.64-1.57 105.24-0.77Q105.84 0.02 106.10 1.13Q106.35 2.24 106.35 3.58L106.35 3.58L106.35 11L102.90 11L102.90 4.03Q102.90 2.18 102.48 1.37Q102.06 0.56 100.78 0.56L100.78 0.56Q100.38 0.56 100.01 0.58Q99.63 0.61 99.21 0.67L99.21 0.67L99.21 11L95.76 11ZM112.28 4.34L112.28 4.34Q112.28 6.10 112.94 7.22Q113.60 8.34 115.06 8.34L115.06 8.34Q115.48 8.34 115.84 8.31Q116.20 8.28 116.60 8.23L116.60 8.23L116.60 1.06Q116.20 0.84 115.70 0.68Q115.20 0.53 114.64 0.53L114.64 0.53Q113.40 0.53 112.84 1.51Q112.28 2.49 112.28 4.34ZM120.04-8.43L120.04 10.61Q119.09 10.92 117.72 11.11Q116.34 11.31 115.03 11.31L115.03 11.31Q111.95 11.31 110.37 9.49Q108.78 7.67 108.78 4.50L108.78 4.50Q108.78 1.28 110.11-0.58Q111.44-2.44 114.05-2.44L114.05-2.44Q114.75-2.44 115.42-2.29Q116.09-2.13 116.60-1.85L116.60-1.85L116.60-7.84L120.04-8.43Z"/>
    </g>
</svg>