<?xml version="1.0" encoding="UTF-8"?>
<svg height="26" width="106.8" version="1.1" xmlns="http://www.w3.org/2000/svg"><!--Created by Josélio de S. C. Júnior - 2021 - https://github.com/joseliojunior -->
    <rect
        height="24"
        width="104.8"
        rx="1"
        ry="1"
        x="1" y="1"
        fill="#9ccc7c"
        stroke="#4f7d31"
        stroke-width="1" />
    <g transform="translate(0, 8)">
        <path fill="#4f7d31" d="M27.36 8.37L27.36 10L21.14 10L21.14 0.10L23.12 0.10L23.12 8.37L27.36 8.37ZM32.54 0.32L32.54 0.32Q32.54 0.90 32.18 1.23Q31.81 1.57 31.30 1.57L31.30 1.57Q30.78 1.57 30.42 1.23Q30.06 0.90 30.06 0.32L30.06 0.32Q30.06-0.27 30.42-0.61Q30.78-0.94 31.30-0.94L31.30-0.94Q31.81-0.94 32.18-0.61Q32.54-0.27 32.54 0.32ZM35.22 8.10L35.47 9.68Q34.86 9.97 34.33 10.07Q33.79 10.18 33.34 10.18L33.34 10.18Q32.58 10.18 32.06 9.95Q31.54 9.73 31.22 9.30Q30.91 8.88 30.78 8.27Q30.66 7.66 30.66 6.88L30.66 6.88L30.66 4.11L28.58 4.11L28.58 2.48L32.62 2.48L32.62 7.14Q32.62 7.81 32.87 8.14Q33.12 8.46 33.70 8.46L33.70 8.46Q33.97 8.46 34.35 8.39Q34.74 8.32 35.22 8.10L35.22 8.10ZM43.22 8.10L43.47 9.68Q43.42 9.71 43.26 9.79Q43.09 9.87 42.82 9.96Q42.54 10.05 42.15 10.11Q41.76 10.18 41.26 10.18L41.26 10.18Q39.90 10.18 39.28 9.37Q38.66 8.56 38.66 7.01L38.66 7.01L38.66 0.62L36.58 0.62L36.58-1.01L40.62-1.01L40.62 7.15Q40.62 7.92 40.93 8.19Q41.23 8.46 41.70 8.46L41.70 8.46Q42.29 8.46 42.69 8.30Q43.09 8.14 43.22 8.10L43.22 8.10ZM49.54 2.48L51.55 2.48Q51.25 3.54 50.97 4.55Q50.69 5.57 50.38 6.54Q50.08 7.50 49.74 8.43Q49.39 9.36 48.99 10.24L48.99 10.24Q48.69 10.88 48.39 11.34Q48.10 11.81 47.74 12.10Q47.38 12.40 46.94 12.54Q46.50 12.69 45.90 12.69L45.90 12.69Q45.41 12.69 45 12.61Q44.59 12.53 44.32 12.40L44.32 12.40L44.69 10.75Q45.01 10.90 45.26 10.95Q45.50 11.01 45.79 11.01L45.79 11.01Q46.37 11.01 46.72 10.62Q47.07 10.24 47.28 9.71L47.28 9.71Q46.58 8.30 45.87 6.49Q45.17 4.67 44.59 2.48L44.59 2.48L46.64 2.48Q46.78 3.07 46.97 3.74Q47.15 4.42 47.36 5.09Q47.57 5.76 47.80 6.41Q48.03 7.06 48.27 7.62L48.27 7.62Q48.43 7.06 48.61 6.41Q48.78 5.76 48.94 5.10Q49.10 4.43 49.26 3.76Q49.41 3.09 49.54 2.48L49.54 2.48ZM55.58-0.02L55.58-0.02Q57.47-0.02 58.51 0.76Q59.55 1.54 59.55 3.30L59.55 3.30Q59.55 5.07 58.50 5.86Q57.46 6.66 55.54 6.66L55.54 6.66L54.83 6.66L54.83 10L52.86 10L52.86 0.22Q53.15 0.16 53.51 0.11Q53.87 0.06 54.24 0.04Q54.61 0.02 54.96 0Q55.31-0.02 55.58-0.02ZM55.81 1.70L55.81 1.70Q55.63 1.70 55.32 1.70Q55.01 1.71 54.83 1.74L54.83 1.74L54.83 4.94L55.63 4.94Q56.58 4.94 57.06 4.57Q57.54 4.19 57.54 3.28L57.54 3.28Q57.54 2.42 57.06 2.06Q56.59 1.70 55.81 1.70ZM67.55 6.22L67.55 6.22Q67.55 7.12 67.30 7.85Q67.04 8.58 66.58 9.10Q66.11 9.63 65.46 9.92Q64.82 10.21 64.02 10.21L64.02 10.21Q63.22 10.21 62.57 9.92Q61.92 9.63 61.45 9.10Q60.98 8.58 60.72 7.85Q60.46 7.12 60.46 6.22L60.46 6.22Q60.46 5.34 60.73 4.62Q60.99 3.89 61.46 3.37Q61.94 2.85 62.59 2.57Q63.25 2.29 64.02 2.29L64.02 2.29Q64.80 2.29 65.45 2.57Q66.10 2.85 66.57 3.37Q67.04 3.89 67.30 4.62Q67.55 5.34 67.55 6.22ZM62.46 6.24L62.46 6.24Q62.46 7.25 62.82 7.87Q63.18 8.50 63.98 8.50L63.98 8.50Q64.75 8.50 65.14 7.87Q65.54 7.25 65.54 6.24L65.54 6.24Q65.54 5.23 65.18 4.62Q64.82 4 64.02 4L64.02 4Q63.25 4 62.86 4.62Q62.46 5.23 62.46 6.24ZM69.01 10L69.01 2.72Q69.54 2.58 70.31 2.45Q71.09 2.32 72 2.32L72 2.32Q72.90 2.32 73.49 2.57Q74.08 2.82 74.42 3.27Q74.77 3.73 74.91 4.36Q75.06 4.99 75.06 5.76L75.06 5.76L75.06 10L73.09 10L73.09 6.02Q73.09 4.96 72.85 4.50Q72.61 4.03 71.87 4.03L71.87 4.03Q71.65 4.03 71.43 4.05Q71.22 4.06 70.98 4.10L70.98 4.10L70.98 10L69.01 10ZM78.45 6.19L78.45 6.19Q78.45 7.20 78.82 7.84Q79.20 8.48 80.03 8.48L80.03 8.48Q80.27 8.48 80.48 8.46Q80.69 8.45 80.91 8.42L80.91 8.42L80.91 4.32Q80.69 4.19 80.40 4.10Q80.11 4.02 79.79 4.02L79.79 4.02Q79.09 4.02 78.77 4.58Q78.45 5.14 78.45 6.19ZM82.88-1.10L82.88 9.78Q82.34 9.95 81.55 10.06Q80.77 10.18 80.02 10.18L80.02 10.18Q78.26 10.18 77.35 9.14Q76.45 8.10 76.45 6.29L76.45 6.29Q76.45 4.45 77.21 3.38Q77.97 2.32 79.46 2.32L79.46 2.32Q79.86 2.32 80.24 2.41Q80.62 2.50 80.91 2.66L80.91 2.66L80.91-0.77L82.88-1.10Z"/>
    </g>
</svg>