<?xml version="1.0" encoding="UTF-8"?><svg height="34" width="138.8" version="1.1" xmlns="http://www.w3.org/2000/svg"><!--Created by Josélio de S. C. Júnior - 2021 - https://github.com/joseliojunior --><rect height="32" width="136.8" rx="1" ry="1" x="1" y="1" fill="#9ccc7c" stroke="#4f7d31" stroke-width="1" /><g transform="translate(0, 12)"><path fill="#4f7d31" d="M31.04 9.55L31.04 12L21.70 12L21.70-2.86L24.68-2.86L24.68 9.55L31.04 9.55ZM38.82-2.52L38.82-2.52Q38.82-1.66 38.26-1.15Q37.71-0.65 36.94-0.65L36.94-0.65Q36.18-0.65 35.64-1.15Q35.10-1.66 35.10-2.52L35.10-2.52Q35.10-3.41 35.64-3.91Q36.18-4.42 36.94-4.42L36.94-4.42Q37.71-4.42 38.26-3.91Q38.82-3.41 38.82-2.52ZM42.82 9.14L43.21 11.52Q42.30 11.95 41.49 12.11Q40.69 12.26 40.02 12.26L40.02 12.26Q38.86 12.26 38.08 11.93Q37.30 11.59 36.84 10.96Q36.37 10.32 36.18 9.41Q35.98 8.50 35.98 7.32L35.98 7.32L35.98 3.17L32.86 3.17L32.86 0.72L38.94 0.72L38.94 7.70Q38.94 8.71 39.31 9.20Q39.68 9.70 40.54 9.70L40.54 9.70Q40.95 9.70 41.53 9.59Q42.10 9.48 42.82 9.14L42.82 9.14ZM54.82 9.14L55.21 11.52Q55.14 11.57 54.88 11.69Q54.63 11.81 54.22 11.94Q53.82 12.07 53.23 12.17Q52.64 12.26 51.90 12.26L51.90 12.26Q49.86 12.26 48.92 11.05Q47.98 9.84 47.98 7.51L47.98 7.51L47.98-2.06L44.86-2.06L44.86-4.51L50.94-4.51L50.94 7.73Q50.94 8.88 51.39 9.29Q51.85 9.70 52.54 9.70L52.54 9.70Q53.43 9.70 54.03 9.46Q54.63 9.22 54.82 9.14L54.82 9.14ZM64.30 0.72L67.33 0.72Q66.87 2.30 66.45 3.83Q66.03 5.35 65.58 6.80Q65.12 8.26 64.60 9.65Q64.09 11.04 63.49 12.36L63.49 12.36Q63.03 13.32 62.59 14.02Q62.14 14.71 61.60 15.16Q61.06 15.60 60.40 15.82Q59.74 16.03 58.86 16.03L58.86 16.03Q58.11 16.03 57.50 15.91Q56.89 15.79 56.48 15.60L56.48 15.60L57.03 13.13Q57.51 13.34 57.88 13.43Q58.26 13.51 58.69 13.51L58.69 13.51Q59.55 13.51 60.08 12.94Q60.61 12.36 60.92 11.57L60.92 11.57Q59.86 9.46 58.81 6.73Q57.75 4.01 56.89 0.72L56.89 0.72L59.96 0.72Q60.18 1.61 60.45 2.62Q60.73 3.62 61.04 4.63Q61.35 5.64 61.70 6.61Q62.05 7.58 62.41 8.42L62.41 8.42Q62.65 7.58 62.91 6.61Q63.18 5.64 63.42 4.64Q63.66 3.65 63.88 2.64Q64.11 1.63 64.30 0.72L64.30 0.72ZM73.38-3.02L73.38-3.02Q76.21-3.02 77.77-1.86Q79.33-0.70 79.33 1.94L79.33 1.94Q79.33 4.61 77.76 5.80Q76.18 6.98 73.30 6.98L73.30 6.98L72.25 6.98L72.25 12L69.30 12L69.30-2.66Q69.73-2.76 70.27-2.83Q70.81-2.90 71.36-2.94Q71.91-2.98 72.44-3Q72.97-3.02 73.38-3.02ZM73.71-0.46L73.71-0.46Q73.45-0.46 72.98-0.44Q72.51-0.43 72.25-0.38L72.25-0.38L72.25 4.42L73.45 4.42Q74.86 4.42 75.58 3.85Q76.30 3.29 76.30 1.92L76.30 1.92Q76.30 0.62 75.60 0.08Q74.89-0.46 73.71-0.46ZM91.33 6.34L91.33 6.34Q91.33 7.68 90.94 8.77Q90.56 9.86 89.86 10.66Q89.17 11.45 88.20 11.88Q87.22 12.31 86.02 12.31L86.02 12.31Q84.82 12.31 83.85 11.88Q82.88 11.45 82.17 10.66Q81.46 9.86 81.08 8.77Q80.70 7.68 80.70 6.34L80.70 6.34Q80.70 5.02 81.09 3.92Q81.49 2.83 82.20 2.05Q82.90 1.27 83.89 0.85Q84.87 0.43 86.02 0.43L86.02 0.43Q87.20 0.43 88.17 0.85Q89.14 1.27 89.85 2.05Q90.56 2.83 90.94 3.92Q91.33 5.02 91.33 6.34ZM83.70 6.36L83.70 6.36Q83.70 7.87 84.24 8.81Q84.78 9.74 85.98 9.74L85.98 9.74Q87.13 9.74 87.72 8.81Q88.30 7.87 88.30 6.36L88.30 6.36Q88.30 4.85 87.76 3.92Q87.22 3 86.02 3L86.02 3Q84.87 3 84.28 3.92Q83.70 4.85 83.70 6.36ZM93.51 12L93.51 1.08Q94.30 0.86 95.47 0.67Q96.63 0.48 98 0.48L98 0.48Q99.34 0.48 100.23 0.85Q101.12 1.22 101.64 1.91Q102.15 2.59 102.37 3.54Q102.58 4.49 102.58 5.64L102.58 5.64L102.58 12L99.63 12L99.63 6.02Q99.63 4.44 99.27 3.74Q98.91 3.05 97.81 3.05L97.81 3.05Q97.47 3.05 97.15 3.07Q96.82 3.10 96.46 3.14L96.46 3.14L96.46 12L93.51 12ZM107.67 6.29L107.67 6.29Q107.67 7.80 108.24 8.76Q108.80 9.72 110.05 9.72L110.05 9.72Q110.41 9.72 110.72 9.70Q111.03 9.67 111.37 9.62L111.37 9.62L111.37 3.48Q111.03 3.29 110.60 3.16Q110.17 3.02 109.69 3.02L109.69 3.02Q108.63 3.02 108.15 3.86Q107.67 4.70 107.67 6.29ZM114.32-4.66L114.32 11.66Q113.50 11.93 112.33 12.10Q111.15 12.26 110.02 12.26L110.02 12.26Q107.38 12.26 106.03 10.70Q104.67 9.14 104.67 6.43L104.67 6.43Q104.67 3.67 105.81 2.08Q106.95 0.48 109.18 0.48L109.18 0.48Q109.78 0.48 110.36 0.61Q110.94 0.74 111.37 0.98L111.37 0.98L111.37-4.15L114.32-4.66Z"/></g></svg>