<?xml version="1.0" encoding="UTF-8"?><svg height="26" width="66.3" version="1.1" xmlns="http://www.w3.org/2000/svg"><!--Created by Josélio de S. C. Júnior - 2021 - https://github.com/joseliojunior --><rect height="24" width="64.3" rx="1" ry="1" x="1" y="1" fill="#d0b68c" stroke="#654e29" stroke-width="1" /><g transform="translate(0, 8)"><path fill="#654e29" d="M24.74 10.21L24.74 10.21Q22.64 10.21 21.54 8.86Q20.43 7.52 20.43 5.04L20.43 5.04Q20.43 3.81 20.77 2.85Q21.10 1.89 21.70 1.22Q22.30 0.56 23.13 0.22Q23.95-0.13 24.93-0.13L24.93-0.13Q25.46-0.13 25.88-0.04Q26.30 0.05 26.62 0.16Q26.94 0.27 27.16 0.40Q27.38 0.53 27.49 0.59L27.49 0.59L26.98 2.16Q26.61 1.92 26.09 1.75Q25.57 1.58 24.90 1.58L24.90 1.58Q24.43 1.58 23.99 1.75Q23.55 1.92 23.21 2.31Q22.86 2.70 22.65 3.36Q22.43 4.02 22.43 4.99L22.43 4.99Q22.43 6.69 23.02 7.59Q23.60 8.50 24.93 8.50L24.93 8.50Q25.70 8.50 26.20 8.32Q26.70 8.14 27.01 7.97L27.01 7.97L27.50 9.52Q27.09 9.78 26.38 9.99Q25.66 10.21 24.74 10.21ZM35.55 6.22L35.55 6.22Q35.55 7.12 35.30 7.85Q35.04 8.58 34.58 9.10Q34.11 9.63 33.46 9.92Q32.82 10.21 32.02 10.21L32.02 10.21Q31.22 10.21 30.57 9.92Q29.92 9.63 29.45 9.10Q28.98 8.58 28.72 7.85Q28.46 7.12 28.46 6.22L28.46 6.22Q28.46 5.34 28.73 4.62Q28.99 3.89 29.46 3.37Q29.94 2.85 30.59 2.57Q31.25 2.29 32.02 2.29L32.02 2.29Q32.80 2.29 33.45 2.57Q34.10 2.85 34.57 3.37Q35.04 3.89 35.30 4.62Q35.55 5.34 35.55 6.22ZM30.46 6.24L30.46 6.24Q30.46 7.25 30.82 7.87Q31.18 8.50 31.98 8.50L31.98 8.50Q32.75 8.50 33.14 7.87Q33.54 7.25 33.54 6.24L33.54 6.24Q33.54 5.23 33.18 4.62Q32.82 4 32.02 4L32.02 4Q31.25 4 30.86 4.62Q30.46 5.23 30.46 6.24ZM38.50 6.30L38.50 6.30Q38.50 7.34 38.84 7.91Q39.18 8.48 39.89 8.48L39.89 8.48Q40.22 8.48 40.52 8.40Q40.82 8.32 41.04 8.19L41.04 8.19L41.04 4.06Q40.90 4.05 40.65 4.02Q40.40 4 40.13 4L40.13 4Q39.31 4 38.90 4.65Q38.50 5.30 38.50 6.30ZM36.50 6.24L36.50 6.24Q36.50 5.38 36.74 4.65Q36.98 3.92 37.43 3.41Q37.89 2.90 38.57 2.61Q39.25 2.32 40.11 2.32L40.11 2.32Q40.48 2.32 40.89 2.35Q41.30 2.38 41.68 2.44Q42.06 2.50 42.41 2.57Q42.75 2.64 43.01 2.72L43.01 2.72L43.01 12.64L41.04 12.64L41.04 9.79Q40.67 9.97 40.26 10.07Q39.86 10.18 39.49 10.18L39.49 10.18Q38.75 10.18 38.19 9.90Q37.63 9.62 37.26 9.10Q36.88 8.59 36.69 7.86Q36.50 7.14 36.50 6.24Z"/></g></svg>