<?xml version="1.0" encoding="UTF-8"?><svg height="34" width="78.3" version="1.1" xmlns="http://www.w3.org/2000/svg"><!--Created by Josélio de S. C. Júnior - 2021 - https://github.com/joseliojunior --><rect height="32" width="76.3" rx="1" ry="1" x="1" y="1" fill="#d0b68c" stroke="#654e29" stroke-width="1" /><g transform="translate(0, 12)"><path fill="#654e29" d="M27.10 12.31L27.10 12.31Q23.96 12.31 22.30 10.30Q20.65 8.28 20.65 4.56L20.65 4.56Q20.65 2.71 21.15 1.27Q21.66-0.17 22.56-1.16Q23.46-2.16 24.69-2.68Q25.93-3.19 27.39-3.19L27.39-3.19Q28.18-3.19 28.82-3.06Q29.46-2.93 29.94-2.76Q30.42-2.59 30.74-2.40Q31.06-2.21 31.23-2.11L31.23-2.11L30.46 0.24Q29.91-0.12 29.13-0.37Q28.35-0.62 27.34-0.62L27.34-0.62Q26.65-0.62 25.99-0.37Q25.33-0.12 24.81 0.47Q24.30 1.06 23.97 2.04Q23.65 3.02 23.65 4.49L23.65 4.49Q23.65 7.03 24.52 8.39Q25.40 9.74 27.39 9.74L27.39 9.74Q28.54 9.74 29.30 9.48Q30.06 9.22 30.51 8.95L30.51 8.95L31.26 11.28Q30.63 11.66 29.56 11.99Q28.50 12.31 27.10 12.31ZM43.33 6.34L43.33 6.34Q43.33 7.68 42.94 8.77Q42.56 9.86 41.86 10.66Q41.17 11.45 40.20 11.88Q39.22 12.31 38.02 12.31L38.02 12.31Q36.82 12.31 35.85 11.88Q34.88 11.45 34.17 10.66Q33.46 9.86 33.08 8.77Q32.70 7.68 32.70 6.34L32.70 6.34Q32.70 5.02 33.09 3.92Q33.49 2.83 34.20 2.05Q34.90 1.27 35.89 0.85Q36.87 0.43 38.02 0.43L38.02 0.43Q39.20 0.43 40.17 0.85Q41.14 1.27 41.85 2.05Q42.56 2.83 42.94 3.92Q43.33 5.02 43.33 6.34ZM35.70 6.36L35.70 6.36Q35.70 7.87 36.24 8.81Q36.78 9.74 37.98 9.74L37.98 9.74Q39.13 9.74 39.72 8.81Q40.30 7.87 40.30 6.36L40.30 6.36Q40.30 4.85 39.76 3.92Q39.22 3 38.02 3L38.02 3Q36.87 3 36.28 3.92Q35.70 4.85 35.70 6.36ZM47.74 6.46L47.74 6.46Q47.74 8.02 48.26 8.87Q48.78 9.72 49.83 9.72L49.83 9.72Q50.34 9.72 50.78 9.60Q51.22 9.48 51.56 9.29L51.56 9.29L51.56 3.10Q51.34 3.07 50.97 3.04Q50.60 3 50.19 3L50.19 3Q48.97 3 48.36 3.97Q47.74 4.94 47.74 6.46ZM44.74 6.36L44.74 6.36Q44.74 5.06 45.10 3.97Q45.46 2.88 46.15 2.11Q46.83 1.34 47.85 0.91Q48.87 0.48 50.17 0.48L50.17 0.48Q50.72 0.48 51.33 0.53Q51.94 0.58 52.52 0.66Q53.10 0.74 53.61 0.85Q54.13 0.96 54.51 1.08L54.51 1.08L54.51 15.96L51.56 15.96L51.56 11.69Q51.01 11.95 50.40 12.11Q49.78 12.26 49.23 12.26L49.23 12.26Q48.13 12.26 47.29 11.84Q46.45 11.42 45.88 10.66Q45.32 9.89 45.03 8.80Q44.74 7.70 44.74 6.36Z"/></g></svg>