<?xml version="1.0" encoding="UTF-8"?>
<svg height="34" width="64.3" version="1.1" xmlns="http://www.w3.org/2000/svg">
    <rect
        height="32"
        width="62.3"
        rx="1"
        ry="1"
        x="1"
        y="1"
        fill="#d0b68c"
        stroke="#654e29"
        stroke-width="1"
         />
    <g transform="translate(0, 14)">
        <path fill="#654e29" d="M18.29 11.36L18.29 11.36Q14.62 11.36 12.69 9.01Q10.76 6.66 10.76 2.32L10.76 2.32Q10.76 0.16 11.34-1.52Q11.93-3.20 12.98-4.36Q14.03-5.52 15.47-6.12Q16.92-6.72 18.62-6.72L18.62-6.72Q19.55-6.72 20.29-6.57Q21.03-6.42 21.59-6.22Q22.15-6.02 22.53-5.80Q22.91-5.58 23.10-5.46L23.10-5.46L22.21-2.72Q21.56-3.14 20.65-3.43Q19.74-3.73 18.57-3.73L18.57-3.73Q17.76-3.73 16.99-3.43Q16.22-3.14 15.61-2.45Q15.01-1.77 14.63-0.62Q14.26 0.53 14.26 2.24L14.26 2.24Q14.26 5.20 15.28 6.79Q16.30 8.37 18.62 8.37L18.62 8.37Q19.97 8.37 20.85 8.06Q21.73 7.75 22.26 7.44L22.26 7.44L23.13 10.16Q22.40 10.61 21.16 10.99Q19.91 11.36 18.29 11.36ZM37.22 4.39L37.22 4.39Q37.22 5.96 36.77 7.23Q36.32 8.51 35.51 9.43Q34.70 10.36 33.56 10.86Q32.43 11.36 31.03 11.36L31.03 11.36Q29.63 11.36 28.49 10.86Q27.36 10.36 26.53 9.43Q25.71 8.51 25.26 7.23Q24.81 5.96 24.81 4.39L24.81 4.39Q24.81 2.85 25.27 1.58Q25.74 0.30 26.56-0.61Q27.39-1.52 28.54-2.01Q29.68-2.50 31.03-2.50L31.03-2.50Q32.40-2.50 33.53-2.01Q34.67-1.52 35.49-0.61Q36.32 0.30 36.77 1.58Q37.22 2.85 37.22 4.39ZM28.31 4.42L28.31 4.42Q28.31 6.18 28.94 7.28Q29.57 8.37 30.97 8.37L30.97 8.37Q32.32 8.37 33.00 7.28Q33.69 6.18 33.69 4.42L33.69 4.42Q33.69 2.66 33.06 1.58Q32.43 0.50 31.03 0.50L31.03 0.50Q29.68 0.50 29.00 1.58Q28.31 2.66 28.31 4.42ZM42.37 4.53L42.37 4.53Q42.37 6.35 42.97 7.35Q43.57 8.34 44.80 8.34L44.80 8.34Q45.39 8.34 45.91 8.20Q46.43 8.06 46.82 7.84L46.82 7.84L46.82 0.61Q46.57 0.58 46.13 0.54Q45.70 0.50 45.22 0.50L45.22 0.50Q43.80 0.50 43.08 1.63Q42.37 2.77 42.37 4.53ZM38.87 4.42L38.87 4.42Q38.87 2.91 39.29 1.63Q39.71 0.36 40.51-0.54Q41.30-1.43 42.49-1.94Q43.68-2.44 45.20-2.44L45.20-2.44Q45.84-2.44 46.55-2.38Q47.27-2.33 47.94-2.23Q48.61-2.13 49.21-2.01Q49.82-1.88 50.26-1.74L50.26-1.74L50.26 15.62L46.82 15.62L46.82 10.64Q46.18 10.94 45.46 11.13Q44.75 11.31 44.10 11.31L44.10 11.31Q42.82 11.31 41.84 10.82Q40.86 10.33 40.20 9.43Q39.54 8.54 39.20 7.26Q38.87 5.99 38.87 4.42Z"/>
    </g>
</svg>