<?xml version="1.0" encoding="UTF-8"?>
<svg height="34" width="261.7" version="1.1" xmlns="http://www.w3.org/2000/svg">
    <rect
        height="32"
        width="259.7"
        rx="1"
        ry="1"
        x="1"
        y="1"
        fill="#f26025"
        stroke="#782707"
        stroke-width="1"
         />
    <g transform="translate(0, 14)">
        <path fill="#782707" d="M18.76 11L15.21 11Q14.54 9.07 13.78 6.63Q13.02 4.20 12.35 1.77Q11.68-0.65 11.15-2.80Q10.62-4.96 10.36-6.33L10.36-6.33L14.00-6.33Q14.17-4.99 14.51-3.21Q14.84-1.43 15.25 0.46Q15.66 2.35 16.12 4.18Q16.58 6.02 17.03 7.47L17.03 7.47Q17.48 6.04 17.92 4.21Q18.37 2.38 18.76 0.49Q19.16-1.40 19.49-3.20Q19.83-4.99 20.05-6.33L20.05-6.33L23.66-6.33Q23.33-4.65 22.84-2.58Q22.35-0.51 21.72 1.77Q21.09 4.06 20.33 6.42Q19.58 8.79 18.76 11L18.76 11ZM31.03 8.54L31.03 8.54Q31.59 8.54 32.12 8.52Q32.65 8.51 33.04 8.45L33.04 8.45L33.04 5.43Q32.71 5.37 32.23 5.33Q31.76 5.29 31.36 5.29L31.36 5.29Q30.83 5.29 30.33 5.36Q29.82 5.43 29.45 5.60Q29.07 5.76 28.84 6.07Q28.62 6.38 28.62 6.88L28.62 6.88Q28.62 7.78 29.29 8.16Q29.96 8.54 31.03 8.54ZM30.72-2.50L30.72-2.50Q32.34-2.50 33.42-2.12Q34.50-1.74 35.14-1.05Q35.79-0.37 36.07 0.63Q36.35 1.62 36.35 2.85L36.35 2.85L36.35 10.69Q35.59 10.86 34.11 11.08Q32.62 11.31 30.78 11.31L30.78 11.31Q29.52 11.31 28.49 11.08Q27.47 10.86 26.74 10.34Q26.02 9.82 25.62 9.00Q25.23 8.17 25.23 6.97L25.23 6.97Q25.23 5.82 25.68 5.04Q26.13 4.25 26.88 3.78Q27.64 3.30 28.62 3.09Q29.60 2.88 30.66 2.88L30.66 2.88Q32.01 2.88 33.04 3.10L33.04 3.10L33.04 2.68Q33.04 1.70 32.43 1.05Q31.81 0.39 30.30 0.39L30.30 0.39Q29.32 0.39 28.41 0.53Q27.50 0.67 26.94 0.86L26.94 0.86L26.46-1.91Q27.11-2.13 28.28-2.31Q29.46-2.50 30.72-2.50ZM50.63 7.67L51.08 10.44Q50.99 10.50 50.70 10.64Q50.40 10.78 49.93 10.93Q49.45 11.08 48.77 11.20Q48.08 11.31 47.21 11.31L47.21 11.31Q44.83 11.31 43.74 9.89Q42.65 8.48 42.65 5.76L42.65 5.76L42.65-5.41L39.01-5.41L39.01-8.26L46.09-8.26L46.09 6.02Q46.09 7.36 46.62 7.84Q47.16 8.31 47.97 8.31L47.97 8.31Q49.00 8.31 49.70 8.03Q50.40 7.75 50.63 7.67L50.63 7.67ZM60.32 11L57.43 11Q56.17 8.51 54.87 5.16Q53.57 1.82 52.39-2.16L52.39-2.16L56.00-2.16Q56.26-1.10 56.61 0.11Q56.96 1.31 57.35 2.53Q57.74 3.75 58.15 4.90Q58.55 6.04 58.92 7.00L58.92 7.00Q59.28 6.04 59.73 4.90Q60.18 3.75 60.61 2.53Q61.04 1.31 61.45 0.11Q61.86-1.10 62.11-2.16L62.11-2.16L65.61-2.16Q64.43 1.82 63.00 5.16Q61.58 8.51 60.32 11L60.32 11ZM66.87 4.53L66.87 4.53Q66.87 2.80 67.40 1.48Q67.93 0.16 68.80-0.72Q69.67-1.60 70.79-2.05Q71.91-2.50 73.08-2.50L73.08-2.50Q76.00-2.50 77.51-0.77Q79.02 0.95 79.02 4.25L79.02 4.25Q79.02 4.59 79.01 4.95Q78.99 5.32 78.96 5.54L78.96 5.54L70.42 5.54Q70.42 6.83 71.49 7.57Q72.55 8.31 74.23 8.31L74.23 8.31Q75.27 8.31 76.21 8.09Q77.14 7.86 77.79 7.64L77.79 7.64L78.26 10.58Q77.37 10.89 76.36 11.10Q75.35 11.31 74.09 11.31L74.09 11.31Q72.41 11.31 71.08 10.87Q69.75 10.44 68.81 9.59Q67.88 8.73 67.37 7.47Q66.87 6.21 66.87 4.53ZM70.42 3.16L75.69 3.16Q75.69 2.63 75.55 2.14Q75.41 1.65 75.10 1.26Q74.79 0.86 74.32 0.63Q73.84 0.39 73.14 0.39L73.14 0.39Q72.47 0.39 71.98 0.61Q71.49 0.84 71.17 1.23Q70.84 1.62 70.66 2.12Q70.48 2.63 70.42 3.16L70.42 3.16ZM98.96-3.45L98.96 8.20Q99.10 8.23 99.26 8.23Q99.43 8.23 99.57 8.23L99.57 8.23Q100.75 8.23 101.55 7.78Q102.34 7.33 102.83 6.55Q103.32 5.76 103.53 4.69Q103.74 3.61 103.74 2.32L103.74 2.32Q103.74 1.20 103.58 0.14Q103.41-0.93 102.99-1.74Q102.57-2.55 101.84-3.04Q101.11-3.53 99.96-3.53L99.96-3.53Q99.74-3.53 99.46-3.52Q99.18-3.50 98.96-3.45L98.96-3.45ZM107.24 2.32L107.24 2.32Q107.24 4.73 106.64 6.42Q106.04 8.12 104.98 9.18Q103.91 10.24 102.44 10.73Q100.97 11.22 99.21 11.22L99.21 11.22Q98.28 11.22 97.40 11.13Q96.52 11.03 95.51 10.80L95.51 10.80L95.51-6.11Q96.69-6.36 97.72-6.44Q98.76-6.53 99.66-6.53L99.66-6.53Q101.36-6.53 102.78-6.02Q104.19-5.52 105.17-4.44Q106.15-3.36 106.70-1.70Q107.24-0.03 107.24 2.32ZM115.03 8.54L115.03 8.54Q115.59 8.54 116.12 8.52Q116.65 8.51 117.04 8.45L117.04 8.45L117.04 5.43Q116.71 5.37 116.23 5.33Q115.76 5.29 115.36 5.29L115.36 5.29Q114.83 5.29 114.33 5.36Q113.82 5.43 113.45 5.60Q113.07 5.76 112.84 6.07Q112.62 6.38 112.62 6.88L112.62 6.88Q112.62 7.78 113.29 8.16Q113.96 8.54 115.03 8.54ZM114.72-2.50L114.72-2.50Q116.34-2.50 117.42-2.12Q118.50-1.74 119.14-1.05Q119.79-0.37 120.07 0.63Q120.35 1.62 120.35 2.85L120.35 2.85L120.35 10.69Q119.59 10.86 118.11 11.08Q116.62 11.31 114.78 11.31L114.78 11.31Q113.52 11.31 112.49 11.08Q111.47 10.86 110.74 10.34Q110.02 9.82 109.62 9.00Q109.23 8.17 109.23 6.97L109.23 6.97Q109.23 5.82 109.68 5.04Q110.13 4.25 110.88 3.78Q111.64 3.30 112.62 3.09Q113.60 2.88 114.66 2.88L114.66 2.88Q116.01 2.88 117.04 3.10L117.04 3.10L117.04 2.68Q117.04 1.70 116.43 1.05Q115.81 0.39 114.30 0.39L114.30 0.39Q113.32 0.39 112.41 0.53Q111.50 0.67 110.94 0.86L110.94 0.86L110.46-1.91Q111.11-2.13 112.28-2.31Q113.46-2.50 114.72-2.50ZM126.00 6.10L126.00 0.70L123.01 0.70L123.01-2.16L126.00-2.16L126.00-5.46L129.45-6.02L129.45-2.16L134.96-2.16L134.96 0.70L129.45 0.70L129.45 6.02Q129.45 6.74 129.59 7.19Q129.73 7.64 129.98 7.89Q130.23 8.14 130.60 8.23Q130.96 8.31 131.41 8.31L131.41 8.31Q131.88 8.31 132.29 8.28Q132.70 8.26 133.07 8.19Q133.45 8.12 133.86 7.98Q134.26 7.84 134.74 7.61L134.74 7.61L135.22 10.58Q134.26 10.97 133.16 11.14Q132.05 11.31 131.02 11.31L131.02 11.31Q129.81 11.31 128.89 11.11Q127.96 10.92 127.32 10.36Q126.68 9.80 126.34 8.77Q126.00 7.75 126.00 6.10L126.00 6.10ZM143.03 8.54L143.03 8.54Q143.59 8.54 144.12 8.52Q144.65 8.51 145.04 8.45L145.04 8.45L145.04 5.43Q144.71 5.37 144.23 5.33Q143.76 5.29 143.36 5.29L143.36 5.29Q142.83 5.29 142.33 5.36Q141.82 5.43 141.45 5.60Q141.07 5.76 140.84 6.07Q140.62 6.38 140.62 6.88L140.62 6.88Q140.62 7.78 141.29 8.16Q141.96 8.54 143.03 8.54ZM142.72-2.50L142.72-2.50Q144.34-2.50 145.42-2.12Q146.50-1.74 147.14-1.05Q147.79-0.37 148.07 0.63Q148.35 1.62 148.35 2.85L148.35 2.85L148.35 10.69Q147.59 10.86 146.11 11.08Q144.62 11.31 142.78 11.31L142.78 11.31Q141.52 11.31 140.49 11.08Q139.47 10.86 138.74 10.34Q138.02 9.82 137.62 9.00Q137.23 8.17 137.23 6.97L137.23 6.97Q137.23 5.82 137.68 5.04Q138.13 4.25 138.88 3.78Q139.64 3.30 140.62 3.09Q141.60 2.88 142.66 2.88L142.66 2.88Q144.01 2.88 145.04 3.10L145.04 3.10L145.04 2.68Q145.04 1.70 144.43 1.05Q143.81 0.39 142.30 0.39L142.30 0.39Q141.32 0.39 140.41 0.53Q139.50 0.67 138.94 0.86L138.94 0.86L138.46-1.91Q139.11-2.13 140.28-2.31Q141.46-2.50 142.72-2.50ZM169.21 11L165.76 11L165.76-6.33L176.38-6.33L176.38-3.48L169.21-3.48L169.21 0.72L175.48 0.72L175.48 3.58L169.21 3.58L169.21 11ZM191.22 4.39L191.22 4.39Q191.22 5.96 190.77 7.23Q190.32 8.51 189.51 9.43Q188.70 10.36 187.56 10.86Q186.43 11.36 185.03 11.36L185.03 11.36Q183.63 11.36 182.49 10.86Q181.36 10.36 180.53 9.43Q179.71 8.51 179.26 7.23Q178.81 5.96 178.81 4.39L178.81 4.39Q178.81 2.85 179.27 1.58Q179.74 0.30 180.56-0.61Q181.39-1.52 182.54-2.01Q183.68-2.50 185.03-2.50L185.03-2.50Q186.40-2.50 187.53-2.01Q188.67-1.52 189.49-0.61Q190.32 0.30 190.77 1.58Q191.22 2.85 191.22 4.39ZM182.31 4.42L182.31 4.42Q182.31 6.18 182.94 7.28Q183.57 8.37 184.97 8.37L184.97 8.37Q186.32 8.37 187.00 7.28Q187.69 6.18 187.69 4.42L187.69 4.42Q187.69 2.66 187.06 1.58Q186.43 0.50 185.03 0.50L185.03 0.50Q183.68 0.50 183.00 1.58Q182.31 2.66 182.31 4.42ZM204.85-1.85L204.24 1.34Q203.90 1.26 203.44 1.17Q202.98 1.09 202.50 1.02Q202.02 0.95 201.58 0.92Q201.13 0.89 200.82 0.89L200.82 0.89Q200.09 0.89 199.39 0.96Q198.69 1.03 197.96 1.23L197.96 1.23L197.96 11L194.49 11L194.49-1.29Q195.86-1.80 197.31-2.10Q198.75-2.41 200.68-2.41L200.68-2.41Q200.96-2.41 201.48-2.38Q202.00-2.36 202.58-2.29Q203.17-2.22 203.77-2.12Q204.38-2.02 204.85-1.85L204.85-1.85ZM215.60-2.30L215.60-2.30Q216.70-2.30 217.40-1.96Q218.10-1.63 218.50-0.96Q218.91-0.28 219.05 0.74Q219.19 1.76 219.19 3.13L219.19 3.13L219.19 11L216.39 11L216.39 2.96Q216.39 2.18 216.29 1.70Q216.19 1.23 216.04 0.98Q215.88 0.72 215.67 0.64Q215.46 0.56 215.24 0.56L215.24 0.56Q214.99 0.56 214.71 0.60Q214.43 0.64 214.20 0.75L214.20 0.75Q214.29 1.28 214.34 1.93Q214.40 2.57 214.40 3.36L214.40 3.36L214.40 5.99L211.60 5.99L211.60 2.96Q211.60 1.62 211.33 1.09Q211.07 0.56 210.48 0.56L210.48 0.56Q210.31 0.56 210.07 0.58Q209.84 0.61 209.61 0.67L209.61 0.67L209.61 11L206.81 11L206.81-1.66Q207.90-1.96 208.97-2.13Q210.03-2.30 210.84-2.30L210.84-2.30Q211.57-2.30 212.15-2.12Q212.72-1.94 213.14-1.52L213.14-1.52Q213.62-1.82 214.26-2.06Q214.90-2.30 215.60-2.30ZM227.03 8.54L227.03 8.54Q227.59 8.54 228.12 8.52Q228.65 8.51 229.04 8.45L229.04 8.45L229.04 5.43Q228.71 5.37 228.23 5.33Q227.76 5.29 227.36 5.29L227.36 5.29Q226.83 5.29 226.33 5.36Q225.82 5.43 225.45 5.60Q225.07 5.76 224.84 6.07Q224.62 6.38 224.62 6.88L224.62 6.88Q224.62 7.78 225.29 8.16Q225.96 8.54 227.03 8.54ZM226.72-2.50L226.72-2.50Q228.34-2.50 229.42-2.12Q230.50-1.74 231.14-1.05Q231.79-0.37 232.07 0.63Q232.35 1.62 232.35 2.85L232.35 2.85L232.35 10.69Q231.59 10.86 230.11 11.08Q228.62 11.31 226.78 11.31L226.78 11.31Q225.52 11.31 224.49 11.08Q223.47 10.86 222.74 10.34Q222.02 9.82 221.62 9.00Q221.23 8.17 221.23 6.97L221.23 6.97Q221.23 5.82 221.68 5.04Q222.13 4.25 222.88 3.78Q223.64 3.30 224.62 3.09Q225.60 2.88 226.66 2.88L226.66 2.88Q228.01 2.88 229.04 3.10L229.04 3.10L229.04 2.68Q229.04 1.70 228.43 1.05Q227.81 0.39 226.30 0.39L226.30 0.39Q225.32 0.39 224.41 0.53Q223.50 0.67 222.94 0.86L222.94 0.86L222.46-1.91Q223.11-2.13 224.28-2.31Q225.46-2.50 226.72-2.50ZM238.00 6.10L238.00 0.70L235.01 0.70L235.01-2.16L238.00-2.16L238.00-5.46L241.45-6.02L241.45-2.16L246.96-2.16L246.96 0.70L241.45 0.70L241.45 6.02Q241.45 6.74 241.59 7.19Q241.73 7.64 241.98 7.89Q242.23 8.14 242.60 8.23Q242.96 8.31 243.41 8.31L243.41 8.31Q243.88 8.31 244.29 8.28Q244.70 8.26 245.07 8.19Q245.45 8.12 245.86 7.98Q246.26 7.84 246.74 7.61L246.74 7.61L247.22 10.58Q246.26 10.97 245.16 11.14Q244.05 11.31 243.02 11.31L243.02 11.31Q241.81 11.31 240.89 11.11Q239.96 10.92 239.32 10.36Q238.68 9.80 238.34 8.77Q238.00 7.75 238.00 6.10L238.00 6.10Z"/>
    </g>
</svg>