<?xml version="1.0" encoding="UTF-8"?>
<svg height="34" width="247.7" version="1.1" xmlns="http://www.w3.org/2000/svg"><!--Created by Josélio de S. C. Júnior - 2021 - https://github.com/joseliojunior -->
    <rect
        height="32"
        width="245.7"
        rx="1"
        ry="1"
        x="1" y="1"
        fill="#f26025"
        stroke="#782707"
        stroke-width="1" />
    <g transform="translate(0, 12)">
        <path fill="#782707" d="M27.51 12L24.46 12Q23.89 10.34 23.24 8.26Q22.59 6.17 22.02 4.09Q21.44 2.02 20.98 0.17Q20.53-1.68 20.31-2.86L20.31-2.86L23.43-2.86Q23.58-1.70 23.86-0.18Q24.15 1.34 24.50 2.96Q24.85 4.58 25.24 6.16Q25.64 7.73 26.02 8.98L26.02 8.98Q26.41 7.75 26.79 6.18Q27.18 4.61 27.51 2.99Q27.85 1.37 28.14-0.17Q28.42-1.70 28.62-2.86L28.62-2.86L31.71-2.86Q31.42-1.42 31.00 0.36Q30.58 2.14 30.04 4.09Q29.50 6.05 28.86 8.08Q28.21 10.10 27.51 12L27.51 12ZM38.02 9.89L38.02 9.89Q38.50 9.89 38.96 9.88Q39.42 9.86 39.75 9.82L39.75 9.82L39.75 7.22Q39.46 7.18 39.06 7.14Q38.65 7.10 38.31 7.10L38.31 7.10Q37.86 7.10 37.42 7.16Q36.99 7.22 36.67 7.37Q36.34 7.51 36.15 7.78Q35.96 8.04 35.96 8.47L35.96 8.47Q35.96 9.24 36.54 9.56Q37.11 9.89 38.02 9.89ZM37.76 0.43L37.76 0.43Q39.15 0.43 40.08 0.76Q41 1.08 41.55 1.67Q42.10 2.26 42.34 3.11Q42.58 3.96 42.58 5.02L42.58 5.02L42.58 11.74Q41.94 11.88 40.66 12.07Q39.39 12.26 37.81 12.26L37.81 12.26Q36.73 12.26 35.85 12.07Q34.98 11.88 34.35 11.44Q33.73 10.99 33.39 10.28Q33.06 9.58 33.06 8.54L33.06 8.54Q33.06 7.56 33.44 6.89Q33.82 6.22 34.47 5.81Q35.12 5.40 35.96 5.22Q36.80 5.04 37.71 5.04L37.71 5.04Q38.86 5.04 39.75 5.23L39.75 5.23L39.75 4.87Q39.75 4.03 39.22 3.47Q38.70 2.90 37.40 2.90L37.40 2.90Q36.56 2.90 35.78 3.02Q35 3.14 34.52 3.31L34.52 3.31L34.11 0.94Q34.66 0.74 35.67 0.59Q36.68 0.43 37.76 0.43ZM54.82 9.14L55.21 11.52Q55.14 11.57 54.88 11.69Q54.63 11.81 54.22 11.94Q53.82 12.07 53.23 12.17Q52.64 12.26 51.90 12.26L51.90 12.26Q49.86 12.26 48.92 11.05Q47.98 9.84 47.98 7.51L47.98 7.51L47.98-2.06L44.86-2.06L44.86-4.51L50.94-4.51L50.94 7.73Q50.94 8.88 51.39 9.29Q51.85 9.70 52.54 9.70L52.54 9.70Q53.43 9.70 54.03 9.46Q54.63 9.22 54.82 9.14L54.82 9.14ZM63.13 12L60.66 12Q59.58 9.86 58.46 7.00Q57.34 4.13 56.34 0.72L56.34 0.72L59.43 0.72Q59.65 1.63 59.95 2.66Q60.25 3.70 60.58 4.74Q60.92 5.78 61.27 6.77Q61.62 7.75 61.93 8.57L61.93 8.57Q62.24 7.75 62.62 6.77Q63.01 5.78 63.38 4.74Q63.75 3.70 64.10 2.66Q64.45 1.63 64.66 0.72L64.66 0.72L67.66 0.72Q66.66 4.13 65.43 7.00Q64.21 9.86 63.13 12L63.13 12ZM68.74 6.46L68.74 6.46Q68.74 4.97 69.20 3.84Q69.66 2.71 70.40 1.96Q71.14 1.20 72.10 0.82Q73.06 0.43 74.07 0.43L74.07 0.43Q76.57 0.43 77.86 1.91Q79.16 3.38 79.16 6.22L79.16 6.22Q79.16 6.50 79.15 6.82Q79.14 7.13 79.11 7.32L79.11 7.32L71.79 7.32Q71.79 8.42 72.70 9.06Q73.62 9.70 75.06 9.70L75.06 9.70Q75.94 9.70 76.75 9.50Q77.55 9.31 78.10 9.12L78.10 9.12L78.51 11.64Q77.74 11.90 76.88 12.08Q76.02 12.26 74.94 12.26L74.94 12.26Q73.50 12.26 72.36 11.89Q71.22 11.52 70.41 10.79Q69.61 10.06 69.18 8.98Q68.74 7.90 68.74 6.46ZM71.79 5.28L76.30 5.28Q76.30 4.82 76.18 4.40Q76.06 3.98 75.80 3.65Q75.54 3.31 75.13 3.11Q74.72 2.90 74.12 2.90L74.12 2.90Q73.54 2.90 73.12 3.10Q72.70 3.29 72.43 3.62Q72.15 3.96 72.00 4.39Q71.84 4.82 71.79 5.28L71.79 5.28ZM96.25-0.38L96.25 9.60Q96.37 9.62 96.51 9.62Q96.66 9.62 96.78 9.62L96.78 9.62Q97.78 9.62 98.47 9.24Q99.15 8.86 99.57 8.18Q99.99 7.51 100.17 6.59Q100.35 5.66 100.35 4.56L100.35 4.56Q100.35 3.60 100.21 2.69Q100.06 1.78 99.70 1.08Q99.34 0.38 98.72-0.04Q98.10-0.46 97.11-0.46L97.11-0.46Q96.92-0.46 96.68-0.44Q96.44-0.43 96.25-0.38L96.25-0.38ZM103.35 4.56L103.35 4.56Q103.35 6.62 102.84 8.08Q102.32 9.53 101.41 10.44Q100.50 11.35 99.24 11.77Q97.98 12.19 96.46 12.19L96.46 12.19Q95.67 12.19 94.92 12.11Q94.16 12.02 93.30 11.83L93.30 11.83L93.30-2.66Q94.30-2.88 95.19-2.95Q96.08-3.02 96.85-3.02L96.85-3.02Q98.31-3.02 99.52-2.59Q100.74-2.16 101.58-1.24Q102.42-0.31 102.88 1.12Q103.35 2.54 103.35 4.56ZM110.02 9.89L110.02 9.89Q110.50 9.89 110.96 9.88Q111.42 9.86 111.75 9.82L111.75 9.82L111.75 7.22Q111.46 7.18 111.06 7.14Q110.65 7.10 110.31 7.10L110.31 7.10Q109.86 7.10 109.42 7.16Q108.99 7.22 108.67 7.37Q108.34 7.51 108.15 7.78Q107.96 8.04 107.96 8.47L107.96 8.47Q107.96 9.24 108.54 9.56Q109.11 9.89 110.02 9.89ZM109.76 0.43L109.76 0.43Q111.15 0.43 112.08 0.76Q113 1.08 113.55 1.67Q114.10 2.26 114.34 3.11Q114.58 3.96 114.58 5.02L114.58 5.02L114.58 11.74Q113.94 11.88 112.66 12.07Q111.39 12.26 109.81 12.26L109.81 12.26Q108.73 12.26 107.85 12.07Q106.98 11.88 106.35 11.44Q105.73 10.99 105.39 10.28Q105.06 9.58 105.06 8.54L105.06 8.54Q105.06 7.56 105.44 6.89Q105.82 6.22 106.47 5.81Q107.12 5.40 107.96 5.22Q108.80 5.04 109.71 5.04L109.71 5.04Q110.86 5.04 111.75 5.23L111.75 5.23L111.75 4.87Q111.75 4.03 111.22 3.47Q110.70 2.90 109.40 2.90L109.40 2.90Q108.56 2.90 107.78 3.02Q107 3.14 106.52 3.31L106.52 3.31L106.11 0.94Q106.66 0.74 107.67 0.59Q108.68 0.43 109.76 0.43ZM119.43 7.80L119.43 3.17L116.86 3.17L116.86 0.72L119.43 0.72L119.43-2.11L122.38-2.59L122.38 0.72L127.11 0.72L127.11 3.17L122.38 3.17L122.38 7.73Q122.38 8.35 122.50 8.74Q122.62 9.12 122.84 9.34Q123.06 9.55 123.37 9.62Q123.68 9.70 124.06 9.70L124.06 9.70Q124.47 9.70 124.82 9.67Q125.17 9.65 125.49 9.59Q125.82 9.53 126.16 9.41Q126.51 9.29 126.92 9.10L126.92 9.10L127.33 11.64Q126.51 11.98 125.56 12.12Q124.62 12.26 123.73 12.26L123.73 12.26Q122.70 12.26 121.90 12.10Q121.11 11.93 120.56 11.45Q120.01 10.97 119.72 10.09Q119.43 9.22 119.43 7.80L119.43 7.80ZM134.02 9.89L134.02 9.89Q134.50 9.89 134.96 9.88Q135.42 9.86 135.75 9.82L135.75 9.82L135.75 7.22Q135.46 7.18 135.06 7.14Q134.65 7.10 134.31 7.10L134.31 7.10Q133.86 7.10 133.42 7.16Q132.99 7.22 132.67 7.37Q132.34 7.51 132.15 7.78Q131.96 8.04 131.96 8.47L131.96 8.47Q131.96 9.24 132.54 9.56Q133.11 9.89 134.02 9.89ZM133.76 0.43L133.76 0.43Q135.15 0.43 136.08 0.76Q137 1.08 137.55 1.67Q138.10 2.26 138.34 3.11Q138.58 3.96 138.58 5.02L138.58 5.02L138.58 11.74Q137.94 11.88 136.66 12.07Q135.39 12.26 133.81 12.26L133.81 12.26Q132.73 12.26 131.85 12.07Q130.98 11.88 130.35 11.44Q129.73 10.99 129.39 10.28Q129.06 9.58 129.06 8.54L129.06 8.54Q129.06 7.56 129.44 6.89Q129.82 6.22 130.47 5.81Q131.12 5.40 131.96 5.22Q132.80 5.04 133.71 5.04L133.71 5.04Q134.86 5.04 135.75 5.23L135.75 5.23L135.75 4.87Q135.75 4.03 135.22 3.47Q134.70 2.90 133.40 2.90L133.40 2.90Q132.56 2.90 131.78 3.02Q131 3.14 130.52 3.31L130.52 3.31L130.11 0.94Q130.66 0.74 131.67 0.59Q132.68 0.43 133.76 0.43ZM156.46 12L153.51 12L153.51-2.86L162.61-2.86L162.61-0.41L156.46-0.41L156.46 3.19L161.84 3.19L161.84 5.64L156.46 5.64L156.46 12ZM175.33 6.34L175.33 6.34Q175.33 7.68 174.94 8.77Q174.56 9.86 173.86 10.66Q173.17 11.45 172.20 11.88Q171.22 12.31 170.02 12.31L170.02 12.31Q168.82 12.31 167.85 11.88Q166.88 11.45 166.17 10.66Q165.46 9.86 165.08 8.77Q164.70 7.68 164.70 6.34L164.70 6.34Q164.70 5.02 165.09 3.92Q165.49 2.83 166.20 2.05Q166.90 1.27 167.89 0.85Q168.87 0.43 170.02 0.43L170.02 0.43Q171.20 0.43 172.17 0.85Q173.14 1.27 173.85 2.05Q174.56 2.83 174.94 3.92Q175.33 5.02 175.33 6.34ZM167.70 6.36L167.70 6.36Q167.70 7.87 168.24 8.81Q168.78 9.74 169.98 9.74L169.98 9.74Q171.13 9.74 171.72 8.81Q172.30 7.87 172.30 6.36L172.30 6.36Q172.30 4.85 171.76 3.92Q171.22 3 170.02 3L170.02 3Q168.87 3 168.28 3.92Q167.70 4.85 167.70 6.36ZM187.02 0.98L186.49 3.72Q186.20 3.65 185.80 3.58Q185.41 3.50 185 3.44Q184.59 3.38 184.21 3.36Q183.82 3.34 183.56 3.34L183.56 3.34Q182.94 3.34 182.34 3.40Q181.74 3.46 181.11 3.62L181.11 3.62L181.11 12L178.14 12L178.14 1.46Q179.31 1.03 180.55 0.77Q181.78 0.50 183.44 0.50L183.44 0.50Q183.68 0.50 184.12 0.53Q184.57 0.55 185.07 0.61Q185.58 0.67 186.09 0.76Q186.61 0.84 187.02 0.98L187.02 0.98ZM196.23 0.60L196.23 0.60Q197.17 0.60 197.77 0.89Q198.37 1.18 198.72 1.75Q199.06 2.33 199.18 3.20Q199.30 4.08 199.30 5.26L199.30 5.26L199.30 12L196.90 12L196.90 5.11Q196.90 4.44 196.82 4.03Q196.74 3.62 196.60 3.41Q196.47 3.19 196.29 3.12Q196.11 3.05 195.92 3.05L195.92 3.05Q195.70 3.05 195.46 3.08Q195.22 3.12 195.03 3.22L195.03 3.22Q195.10 3.67 195.15 4.22Q195.20 4.78 195.20 5.45L195.20 5.45L195.20 7.70L192.80 7.70L192.80 5.11Q192.80 3.96 192.57 3.50Q192.34 3.05 191.84 3.05L191.84 3.05Q191.70 3.05 191.49 3.07Q191.29 3.10 191.10 3.14L191.10 3.14L191.10 12L188.70 12L188.70 1.15Q189.63 0.89 190.54 0.74Q191.46 0.60 192.15 0.60L192.15 0.60Q192.78 0.60 193.27 0.76Q193.76 0.91 194.12 1.27L194.12 1.27Q194.53 1.01 195.08 0.80Q195.63 0.60 196.23 0.60ZM206.02 9.89L206.02 9.89Q206.50 9.89 206.96 9.88Q207.42 9.86 207.75 9.82L207.75 9.82L207.75 7.22Q207.46 7.18 207.06 7.14Q206.65 7.10 206.31 7.10L206.31 7.10Q205.86 7.10 205.42 7.16Q204.99 7.22 204.67 7.37Q204.34 7.51 204.15 7.78Q203.96 8.04 203.96 8.47L203.96 8.47Q203.96 9.24 204.54 9.56Q205.11 9.89 206.02 9.89ZM205.76 0.43L205.76 0.43Q207.15 0.43 208.08 0.76Q209 1.08 209.55 1.67Q210.10 2.26 210.34 3.11Q210.58 3.96 210.58 5.02L210.58 5.02L210.58 11.74Q209.94 11.88 208.66 12.07Q207.39 12.26 205.81 12.26L205.81 12.26Q204.73 12.26 203.85 12.07Q202.98 11.88 202.35 11.44Q201.73 10.99 201.39 10.28Q201.06 9.58 201.06 8.54L201.06 8.54Q201.06 7.56 201.44 6.89Q201.82 6.22 202.47 5.81Q203.12 5.40 203.96 5.22Q204.80 5.04 205.71 5.04L205.71 5.04Q206.86 5.04 207.75 5.23L207.75 5.23L207.75 4.87Q207.75 4.03 207.22 3.47Q206.70 2.90 205.40 2.90L205.40 2.90Q204.56 2.90 203.78 3.02Q203 3.14 202.52 3.31L202.52 3.31L202.11 0.94Q202.66 0.74 203.67 0.59Q204.68 0.43 205.76 0.43ZM215.43 7.80L215.43 3.17L212.86 3.17L212.86 0.72L215.43 0.72L215.43-2.11L218.38-2.59L218.38 0.72L223.11 0.72L223.11 3.17L218.38 3.17L218.38 7.73Q218.38 8.35 218.50 8.74Q218.62 9.12 218.84 9.34Q219.06 9.55 219.37 9.62Q219.68 9.70 220.06 9.70L220.06 9.70Q220.47 9.70 220.82 9.67Q221.17 9.65 221.49 9.59Q221.82 9.53 222.16 9.41Q222.51 9.29 222.92 9.10L222.92 9.10L223.33 11.64Q222.51 11.98 221.56 12.12Q220.62 12.26 219.73 12.26L219.73 12.26Q218.70 12.26 217.90 12.10Q217.11 11.93 216.56 11.45Q216.01 10.97 215.72 10.09Q215.43 9.22 215.43 7.80L215.43 7.80Z"/>
    </g>
</svg>