<?xml version="1.0" encoding="UTF-8"?>
<svg height="26" width="179.7" version="1.1" xmlns="http://www.w3.org/2000/svg"><!--Created by Josélio de S. C. Júnior - 2021 - https://github.com/joseliojunior -->
    <rect
        height="24"
        width="177.7"
        rx="1"
        ry="1"
        x="1" y="1"
        fill="#f26025"
        stroke="#782707"
        stroke-width="1" />
    <g transform="translate(0, 8)">
        <path fill="#782707" d="M25.01 10L22.98 10Q22.59 8.90 22.16 7.50Q21.73 6.11 21.34 4.73Q20.96 3.34 20.66 2.11Q20.35 0.88 20.21 0.10L20.21 0.10L22.29 0.10Q22.38 0.86 22.58 1.88Q22.77 2.90 23 3.98Q23.23 5.06 23.50 6.10Q23.76 7.15 24.02 7.98L24.02 7.98Q24.27 7.17 24.53 6.12Q24.78 5.07 25.01 3.99Q25.23 2.91 25.42 1.89Q25.62 0.86 25.74 0.10L25.74 0.10L27.81 0.10Q27.62 1.06 27.34 2.24Q27.06 3.42 26.70 4.73Q26.34 6.03 25.90 7.38Q25.47 8.74 25.01 10L25.01 10ZM32.02 8.59L32.02 8.59Q32.34 8.59 32.64 8.58Q32.94 8.58 33.17 8.54L33.17 8.54L33.17 6.82Q32.98 6.78 32.70 6.76Q32.43 6.74 32.21 6.74L32.21 6.74Q31.90 6.74 31.62 6.78Q31.33 6.82 31.11 6.91Q30.90 7.01 30.77 7.18Q30.64 7.36 30.64 7.65L30.64 7.65Q30.64 8.16 31.02 8.38Q31.41 8.59 32.02 8.59ZM31.84 2.29L31.84 2.29Q32.77 2.29 33.38 2.50Q34 2.72 34.37 3.11Q34.74 3.50 34.90 4.07Q35.06 4.64 35.06 5.34L35.06 5.34L35.06 9.82Q34.62 9.92 33.78 10.05Q32.93 10.18 31.87 10.18L31.87 10.18Q31.15 10.18 30.57 10.05Q29.98 9.92 29.57 9.62Q29.15 9.33 28.93 8.86Q28.70 8.38 28.70 7.70L28.70 7.70Q28.70 7.04 28.96 6.59Q29.22 6.14 29.65 5.87Q30.08 5.60 30.64 5.48Q31.20 5.36 31.81 5.36L31.81 5.36Q32.58 5.36 33.17 5.49L33.17 5.49L33.17 5.25Q33.17 4.69 32.82 4.31Q32.46 3.94 31.60 3.94L31.60 3.94Q31.04 3.94 30.52 4.02Q30 4.10 29.68 4.21L29.68 4.21L29.41 2.62Q29.78 2.50 30.45 2.39Q31.12 2.29 31.84 2.29ZM43.22 8.10L43.47 9.68Q43.42 9.71 43.26 9.79Q43.09 9.87 42.82 9.96Q42.54 10.05 42.15 10.11Q41.76 10.18 41.26 10.18L41.26 10.18Q39.90 10.18 39.28 9.37Q38.66 8.56 38.66 7.01L38.66 7.01L38.66 0.62L36.58 0.62L36.58-1.01L40.62-1.01L40.62 7.15Q40.62 7.92 40.93 8.19Q41.23 8.46 41.70 8.46L41.70 8.46Q42.29 8.46 42.69 8.30Q43.09 8.14 43.22 8.10L43.22 8.10ZM48.75 10L47.10 10Q46.38 8.58 45.64 6.66Q44.90 4.75 44.22 2.48L44.22 2.48L46.29 2.48Q46.43 3.09 46.63 3.78Q46.83 4.46 47.06 5.16Q47.28 5.86 47.51 6.51Q47.74 7.17 47.95 7.71L47.95 7.71Q48.16 7.17 48.42 6.51Q48.67 5.86 48.92 5.16Q49.17 4.46 49.40 3.78Q49.63 3.09 49.78 2.48L49.78 2.48L51.78 2.48Q51.10 4.75 50.29 6.66Q49.47 8.58 48.75 10L48.75 10ZM52.50 6.30L52.50 6.30Q52.50 5.31 52.80 4.56Q53.10 3.81 53.60 3.30Q54.10 2.80 54.74 2.54Q55.38 2.29 56.05 2.29L56.05 2.29Q57.71 2.29 58.58 3.27Q59.44 4.26 59.44 6.14L59.44 6.14Q59.44 6.34 59.43 6.54Q59.42 6.75 59.41 6.88L59.41 6.88L54.53 6.88Q54.53 7.62 55.14 8.04Q55.74 8.46 56.70 8.46L56.70 8.46Q57.30 8.46 57.83 8.34Q58.37 8.21 58.74 8.08L58.74 8.08L59.01 9.76Q58.50 9.94 57.92 10.06Q57.34 10.18 56.62 10.18L56.62 10.18Q55.66 10.18 54.90 9.93Q54.14 9.68 53.61 9.19Q53.07 8.70 52.78 7.98Q52.50 7.26 52.50 6.30ZM54.53 5.52L57.54 5.52Q57.54 5.22 57.46 4.94Q57.38 4.66 57.20 4.43Q57.02 4.21 56.75 4.07Q56.48 3.94 56.08 3.94L56.08 3.94Q55.70 3.94 55.42 4.06Q55.14 4.19 54.95 4.42Q54.77 4.64 54.66 4.93Q54.56 5.22 54.53 5.52L54.53 5.52ZM70.83 1.74L70.83 8.40Q70.91 8.42 71.01 8.42Q71.10 8.42 71.18 8.42L71.18 8.42Q71.86 8.42 72.31 8.16Q72.77 7.90 73.05 7.46Q73.33 7.01 73.45 6.39Q73.57 5.78 73.57 5.04L73.57 5.04Q73.57 4.40 73.47 3.79Q73.38 3.18 73.14 2.72Q72.90 2.26 72.48 1.98Q72.06 1.70 71.41 1.70L71.41 1.70Q71.28 1.70 71.12 1.70Q70.96 1.71 70.83 1.74L70.83 1.74ZM75.57 5.04L75.57 5.04Q75.57 6.42 75.22 7.38Q74.88 8.35 74.27 8.96Q73.66 9.57 72.82 9.85Q71.98 10.13 70.98 10.13L70.98 10.13Q70.45 10.13 69.94 10.07Q69.44 10.02 68.86 9.89L68.86 9.89L68.86 0.22Q69.54 0.08 70.13 0.03Q70.72-0.02 71.23-0.02L71.23-0.02Q72.21-0.02 73.02 0.27Q73.82 0.56 74.38 1.18Q74.94 1.79 75.26 2.74Q75.57 3.70 75.57 5.04ZM80.02 8.59L80.02 8.59Q80.34 8.59 80.64 8.58Q80.94 8.58 81.17 8.54L81.17 8.54L81.17 6.82Q80.98 6.78 80.70 6.76Q80.43 6.74 80.21 6.74L80.21 6.74Q79.90 6.74 79.62 6.78Q79.33 6.82 79.11 6.91Q78.90 7.01 78.77 7.18Q78.64 7.36 78.64 7.65L78.64 7.65Q78.64 8.16 79.02 8.38Q79.41 8.59 80.02 8.59ZM79.84 2.29L79.84 2.29Q80.77 2.29 81.38 2.50Q82 2.72 82.37 3.11Q82.74 3.50 82.90 4.07Q83.06 4.64 83.06 5.34L83.06 5.34L83.06 9.82Q82.62 9.92 81.78 10.05Q80.93 10.18 79.87 10.18L79.87 10.18Q79.15 10.18 78.57 10.05Q77.98 9.92 77.57 9.62Q77.15 9.33 76.93 8.86Q76.70 8.38 76.70 7.70L76.70 7.70Q76.70 7.04 76.96 6.59Q77.22 6.14 77.65 5.87Q78.08 5.60 78.64 5.48Q79.20 5.36 79.81 5.36L79.81 5.36Q80.58 5.36 81.17 5.49L81.17 5.49L81.17 5.25Q81.17 4.69 80.82 4.31Q80.46 3.94 79.60 3.94L79.60 3.94Q79.04 3.94 78.52 4.02Q78 4.10 77.68 4.21L77.68 4.21L77.41 2.62Q77.78 2.50 78.45 2.39Q79.12 2.29 79.84 2.29ZM86.29 7.20L86.29 4.11L84.58 4.11L84.58 2.48L86.29 2.48L86.29 0.59L88.26 0.27L88.26 2.48L91.41 2.48L91.41 4.11L88.26 4.11L88.26 7.15Q88.26 7.57 88.34 7.82Q88.42 8.08 88.56 8.22Q88.70 8.37 88.91 8.42Q89.12 8.46 89.38 8.46L89.38 8.46Q89.65 8.46 89.88 8.45Q90.11 8.43 90.33 8.39Q90.54 8.35 90.78 8.27Q91.01 8.19 91.28 8.06L91.28 8.06L91.55 9.76Q91.01 9.98 90.38 10.08Q89.74 10.18 89.15 10.18L89.15 10.18Q88.46 10.18 87.94 10.06Q87.41 9.95 87.04 9.63Q86.67 9.31 86.48 8.73Q86.29 8.14 86.29 7.20L86.29 7.20ZM96.02 8.59L96.02 8.59Q96.34 8.59 96.64 8.58Q96.94 8.58 97.17 8.54L97.17 8.54L97.17 6.82Q96.98 6.78 96.70 6.76Q96.43 6.74 96.21 6.74L96.21 6.74Q95.90 6.74 95.62 6.78Q95.33 6.82 95.11 6.91Q94.90 7.01 94.77 7.18Q94.64 7.36 94.64 7.65L94.64 7.65Q94.64 8.16 95.02 8.38Q95.41 8.59 96.02 8.59ZM95.84 2.29L95.84 2.29Q96.77 2.29 97.38 2.50Q98 2.72 98.37 3.11Q98.74 3.50 98.90 4.07Q99.06 4.64 99.06 5.34L99.06 5.34L99.06 9.82Q98.62 9.92 97.78 10.05Q96.93 10.18 95.87 10.18L95.87 10.18Q95.15 10.18 94.57 10.05Q93.98 9.92 93.57 9.62Q93.15 9.33 92.93 8.86Q92.70 8.38 92.70 7.70L92.70 7.70Q92.70 7.04 92.96 6.59Q93.22 6.14 93.65 5.87Q94.08 5.60 94.64 5.48Q95.20 5.36 95.81 5.36L95.81 5.36Q96.58 5.36 97.17 5.49L97.17 5.49L97.17 5.25Q97.17 4.69 96.82 4.31Q96.46 3.94 95.60 3.94L95.60 3.94Q95.04 3.94 94.52 4.02Q94 4.10 93.68 4.21L93.68 4.21L93.41 2.62Q93.78 2.50 94.45 2.39Q95.12 2.29 95.84 2.29ZM110.98 10L109.01 10L109.01 0.10L115.07 0.10L115.07 1.73L110.98 1.73L110.98 4.13L114.56 4.13L114.56 5.76L110.98 5.76L110.98 10ZM123.55 6.22L123.55 6.22Q123.55 7.12 123.30 7.85Q123.04 8.58 122.58 9.10Q122.11 9.63 121.46 9.92Q120.82 10.21 120.02 10.21L120.02 10.21Q119.22 10.21 118.57 9.92Q117.92 9.63 117.45 9.10Q116.98 8.58 116.72 7.85Q116.46 7.12 116.46 6.22L116.46 6.22Q116.46 5.34 116.73 4.62Q116.99 3.89 117.46 3.37Q117.94 2.85 118.59 2.57Q119.25 2.29 120.02 2.29L120.02 2.29Q120.80 2.29 121.45 2.57Q122.10 2.85 122.57 3.37Q123.04 3.89 123.30 4.62Q123.55 5.34 123.55 6.22ZM118.46 6.24L118.46 6.24Q118.46 7.25 118.82 7.87Q119.18 8.50 119.98 8.50L119.98 8.50Q120.75 8.50 121.14 7.87Q121.54 7.25 121.54 6.24L121.54 6.24Q121.54 5.23 121.18 4.62Q120.82 4 120.02 4L120.02 4Q119.25 4 118.86 4.62Q118.46 5.23 118.46 6.24ZM131.34 2.66L130.99 4.48Q130.80 4.43 130.54 4.38Q130.27 4.34 130 4.30Q129.73 4.26 129.47 4.24Q129.22 4.22 129.04 4.22L129.04 4.22Q128.62 4.22 128.22 4.26Q127.82 4.30 127.41 4.42L127.41 4.42L127.41 10L125.42 10L125.42 2.98Q126.21 2.69 127.03 2.51Q127.86 2.34 128.96 2.34L128.96 2.34Q129.12 2.34 129.42 2.35Q129.71 2.37 130.05 2.41Q130.38 2.45 130.73 2.50Q131.07 2.56 131.34 2.66L131.34 2.66ZM137.49 2.40L137.49 2.40Q138.11 2.40 138.51 2.59Q138.91 2.78 139.14 3.17Q139.38 3.55 139.46 4.14Q139.54 4.72 139.54 5.50L139.54 5.50L139.54 10L137.94 10L137.94 5.41Q137.94 4.96 137.88 4.69Q137.82 4.42 137.74 4.27Q137.65 4.13 137.53 4.08Q137.41 4.03 137.28 4.03L137.28 4.03Q137.14 4.03 136.98 4.06Q136.82 4.08 136.69 4.14L136.69 4.14Q136.74 4.45 136.77 4.82Q136.80 5.18 136.80 5.63L136.80 5.63L136.80 7.14L135.20 7.14L135.20 5.41Q135.20 4.64 135.05 4.34Q134.90 4.03 134.56 4.03L134.56 4.03Q134.46 4.03 134.33 4.05Q134.19 4.06 134.06 4.10L134.06 4.10L134.06 10L132.46 10L132.46 2.77Q133.09 2.59 133.70 2.50Q134.30 2.40 134.77 2.40L134.77 2.40Q135.18 2.40 135.51 2.50Q135.84 2.61 136.08 2.85L136.08 2.85Q136.35 2.67 136.72 2.54Q137.09 2.40 137.49 2.40ZM144.02 8.59L144.02 8.59Q144.34 8.59 144.64 8.58Q144.94 8.58 145.17 8.54L145.17 8.54L145.17 6.82Q144.98 6.78 144.70 6.76Q144.43 6.74 144.21 6.74L144.21 6.74Q143.90 6.74 143.62 6.78Q143.33 6.82 143.11 6.91Q142.90 7.01 142.77 7.18Q142.64 7.36 142.64 7.65L142.64 7.65Q142.64 8.16 143.02 8.38Q143.41 8.59 144.02 8.59ZM143.84 2.29L143.84 2.29Q144.77 2.29 145.38 2.50Q146 2.72 146.37 3.11Q146.74 3.50 146.90 4.07Q147.06 4.64 147.06 5.34L147.06 5.34L147.06 9.82Q146.62 9.92 145.78 10.05Q144.93 10.18 143.87 10.18L143.87 10.18Q143.15 10.18 142.57 10.05Q141.98 9.92 141.57 9.62Q141.15 9.33 140.93 8.86Q140.70 8.38 140.70 7.70L140.70 7.70Q140.70 7.04 140.96 6.59Q141.22 6.14 141.65 5.87Q142.08 5.60 142.64 5.48Q143.20 5.36 143.81 5.36L143.81 5.36Q144.58 5.36 145.17 5.49L145.17 5.49L145.17 5.25Q145.17 4.69 144.82 4.31Q144.46 3.94 143.60 3.94L143.60 3.94Q143.04 3.94 142.52 4.02Q142 4.10 141.68 4.21L141.68 4.21L141.41 2.62Q141.78 2.50 142.45 2.39Q143.12 2.29 143.84 2.29ZM150.29 7.20L150.29 4.11L148.58 4.11L148.58 2.48L150.29 2.48L150.29 0.59L152.26 0.27L152.26 2.48L155.41 2.48L155.41 4.11L152.26 4.11L152.26 7.15Q152.26 7.57 152.34 7.82Q152.42 8.08 152.56 8.22Q152.70 8.37 152.91 8.42Q153.12 8.46 153.38 8.46L153.38 8.46Q153.65 8.46 153.88 8.45Q154.11 8.43 154.33 8.39Q154.54 8.35 154.78 8.27Q155.01 8.19 155.28 8.06L155.28 8.06L155.55 9.76Q155.01 9.98 154.38 10.08Q153.74 10.18 153.15 10.18L153.15 10.18Q152.46 10.18 151.94 10.06Q151.41 9.95 151.04 9.63Q150.67 9.31 150.48 8.73Q150.29 8.14 150.29 7.20L150.29 7.20Z"/>
    </g>
</svg>