<?xml version="1.0" encoding="UTF-8"?>
<svg height="34" width="163" version="1.1" xmlns="http://www.w3.org/2000/svg"><!--Created by Josélio de S. C. Júnior - 2021 - https://github.com/joseliojunior -->
    <rect
        height="32"
        width="161"
        rx="16"
        ry="16"
        x="1" y="1"
        fill="#f7931e"
        stroke="#764104"
        stroke-width="1" />
    <g transform="translate(0, 12)">
        <path fill="#764104" stroke="none" d="M27.97-2.86L30.92-2.86L30.92 12L27.97 12L27.97 5.45L24.03 5.45L24.03 12L21.08 12L21.08-2.86L24.03-2.86L24.03 3L27.97 3L27.97-2.86ZM38.02 9.89L38.02 9.89Q38.50 9.89 38.96 9.88Q39.42 9.86 39.75 9.82L39.75 9.82L39.75 7.22Q39.46 7.18 39.06 7.14Q38.65 7.10 38.31 7.10L38.31 7.10Q37.86 7.10 37.42 7.16Q36.99 7.22 36.67 7.37Q36.34 7.51 36.15 7.78Q35.96 8.04 35.96 8.47L35.96 8.47Q35.96 9.24 36.54 9.56Q37.11 9.89 38.02 9.89ZM37.76 0.43L37.76 0.43Q39.15 0.43 40.08 0.76Q41 1.08 41.55 1.67Q42.10 2.26 42.34 3.11Q42.58 3.96 42.58 5.02L42.58 5.02L42.58 11.74Q41.94 11.88 40.66 12.07Q39.39 12.26 37.81 12.26L37.81 12.26Q36.73 12.26 35.85 12.07Q34.98 11.88 34.35 11.44Q33.73 10.99 33.39 10.28Q33.06 9.58 33.06 8.54L33.06 8.54Q33.06 7.56 33.44 6.89Q33.82 6.22 34.47 5.81Q35.12 5.40 35.96 5.22Q36.80 5.04 37.71 5.04L37.71 5.04Q38.86 5.04 39.75 5.23L39.75 5.23L39.75 4.87Q39.75 4.03 39.22 3.47Q38.70 2.90 37.40 2.90L37.40 2.90Q36.56 2.90 35.78 3.02Q35 3.14 34.52 3.31L34.52 3.31L34.11 0.94Q34.66 0.74 35.67 0.59Q36.68 0.43 37.76 0.43ZM45.51 12L45.51 1.08Q46.30 0.86 47.47 0.67Q48.63 0.48 50 0.48L50 0.48Q51.34 0.48 52.23 0.85Q53.12 1.22 53.64 1.91Q54.15 2.59 54.37 3.54Q54.58 4.49 54.58 5.64L54.58 5.64L54.58 12L51.63 12L51.63 6.02Q51.63 4.44 51.27 3.74Q50.91 3.05 49.81 3.05L49.81 3.05Q49.47 3.05 49.15 3.07Q48.82 3.10 48.46 3.14L48.46 3.14L48.46 12L45.51 12ZM59.67 6.29L59.67 6.29Q59.67 7.80 60.24 8.76Q60.80 9.72 62.05 9.72L62.05 9.72Q62.41 9.72 62.72 9.70Q63.03 9.67 63.37 9.62L63.37 9.62L63.37 3.48Q63.03 3.29 62.60 3.16Q62.17 3.02 61.69 3.02L61.69 3.02Q60.63 3.02 60.15 3.86Q59.67 4.70 59.67 6.29ZM66.32-4.66L66.32 11.66Q65.50 11.93 64.33 12.10Q63.15 12.26 62.02 12.26L62.02 12.26Q59.38 12.26 58.03 10.70Q56.67 9.14 56.67 6.43L56.67 6.43Q56.67 3.67 57.81 2.08Q58.95 0.48 61.18 0.48L61.18 0.48Q61.78 0.48 62.36 0.61Q62.94 0.74 63.37 0.98L63.37 0.98L63.37-4.15L66.32-4.66ZM78.82 9.14L79.21 11.52Q79.14 11.57 78.88 11.69Q78.63 11.81 78.22 11.94Q77.82 12.07 77.23 12.17Q76.64 12.26 75.90 12.26L75.90 12.26Q73.86 12.26 72.92 11.05Q71.98 9.84 71.98 7.51L71.98 7.51L71.98-2.06L68.86-2.06L68.86-4.51L74.94-4.51L74.94 7.73Q74.94 8.88 75.39 9.29Q75.85 9.70 76.54 9.70L76.54 9.70Q77.43 9.70 78.03 9.46Q78.63 9.22 78.82 9.14L78.82 9.14ZM80.74 6.46L80.74 6.46Q80.74 4.97 81.20 3.84Q81.66 2.71 82.40 1.96Q83.14 1.20 84.10 0.82Q85.06 0.43 86.07 0.43L86.07 0.43Q88.57 0.43 89.86 1.91Q91.16 3.38 91.16 6.22L91.16 6.22Q91.16 6.50 91.15 6.82Q91.14 7.13 91.11 7.32L91.11 7.32L83.79 7.32Q83.79 8.42 84.70 9.06Q85.62 9.70 87.06 9.70L87.06 9.70Q87.94 9.70 88.75 9.50Q89.55 9.31 90.10 9.12L90.10 9.12L90.51 11.64Q89.74 11.90 88.88 12.08Q88.02 12.26 86.94 12.26L86.94 12.26Q85.50 12.26 84.36 11.89Q83.22 11.52 82.41 10.79Q81.61 10.06 81.18 8.98Q80.74 7.90 80.74 6.46ZM83.79 5.28L88.30 5.28Q88.30 4.82 88.18 4.40Q88.06 3.98 87.80 3.65Q87.54 3.31 87.13 3.11Q86.72 2.90 86.12 2.90L86.12 2.90Q85.54 2.90 85.12 3.10Q84.70 3.29 84.43 3.62Q84.15 3.96 84.00 4.39Q83.84 4.82 83.79 5.28L83.79 5.28ZM100.28 6.29L100.28 6.29Q100.28 4.70 99.76 3.86Q99.25 3.02 98.19 3.02L98.19 3.02Q97.71 3.02 97.24 3.16Q96.78 3.29 96.44 3.48L96.44 3.48L96.44 9.60Q96.78 9.67 97.15 9.70Q97.52 9.72 97.78 9.72L97.78 9.72Q98.94 9.72 99.61 8.94Q100.28 8.16 100.28 6.29ZM103.28 6.36L103.28 6.36Q103.28 7.70 102.92 8.80Q102.56 9.89 101.86 10.66Q101.17 11.42 100.16 11.84Q99.15 12.26 97.86 12.26L97.86 12.26Q96.70 12.26 95.50 12.10Q94.30 11.93 93.49 11.66L93.49 11.66L93.49-4.15L96.44-4.66L96.44 0.98Q97.06 0.70 97.64 0.59Q98.22 0.48 98.79 0.48L98.79 0.48Q99.90 0.48 100.74 0.90Q101.58 1.32 102.14 2.10Q102.70 2.88 102.99 3.96Q103.28 5.04 103.28 6.36ZM110.02 9.89L110.02 9.89Q110.50 9.89 110.96 9.88Q111.42 9.86 111.75 9.82L111.75 9.82L111.75 7.22Q111.46 7.18 111.06 7.14Q110.65 7.10 110.31 7.10L110.31 7.10Q109.86 7.10 109.42 7.16Q108.99 7.22 108.67 7.37Q108.34 7.51 108.15 7.78Q107.96 8.04 107.96 8.47L107.96 8.47Q107.96 9.24 108.54 9.56Q109.11 9.89 110.02 9.89ZM109.76 0.43L109.76 0.43Q111.15 0.43 112.08 0.76Q113 1.08 113.55 1.67Q114.10 2.26 114.34 3.11Q114.58 3.96 114.58 5.02L114.58 5.02L114.58 11.74Q113.94 11.88 112.66 12.07Q111.39 12.26 109.81 12.26L109.81 12.26Q108.73 12.26 107.85 12.07Q106.98 11.88 106.35 11.44Q105.73 10.99 105.39 10.28Q105.06 9.58 105.06 8.54L105.06 8.54Q105.06 7.56 105.44 6.89Q105.82 6.22 106.47 5.81Q107.12 5.40 107.96 5.22Q108.80 5.04 109.71 5.04L109.71 5.04Q110.86 5.04 111.75 5.23L111.75 5.23L111.75 4.87Q111.75 4.03 111.22 3.47Q110.70 2.90 109.40 2.90L109.40 2.90Q108.56 2.90 107.78 3.02Q107 3.14 106.52 3.31L106.52 3.31L106.11 0.94Q106.66 0.74 107.67 0.59Q108.68 0.43 109.76 0.43ZM127.02 0.98L126.49 3.72Q126.20 3.65 125.80 3.58Q125.41 3.50 125 3.44Q124.59 3.38 124.21 3.36Q123.82 3.34 123.56 3.34L123.56 3.34Q122.94 3.34 122.34 3.40Q121.74 3.46 121.11 3.62L121.11 3.62L121.11 12L118.14 12L118.14 1.46Q119.31 1.03 120.55 0.77Q121.78 0.50 123.44 0.50L123.44 0.50Q123.68 0.50 124.12 0.53Q124.57 0.55 125.07 0.61Q125.58 0.67 126.09 0.76Q126.61 0.84 127.02 0.98L127.02 0.98ZM133.47 9.77L133.47 9.77Q134.55 9.77 135.13 9.61Q135.70 9.46 135.70 8.98L135.70 8.98Q135.70 8.66 135.52 8.45Q135.34 8.23 135.02 8.08Q134.70 7.92 134.28 7.78Q133.86 7.63 133.40 7.49L133.40 7.49Q132.75 7.30 132.08 7.04Q131.41 6.79 130.86 6.41Q130.30 6.02 129.94 5.44Q129.58 4.85 129.58 3.96L129.58 3.96Q129.58 3.24 129.86 2.60Q130.14 1.97 130.72 1.48Q131.31 0.98 132.22 0.71Q133.14 0.43 134.41 0.43L134.41 0.43Q135.51 0.43 136.46 0.60Q137.41 0.77 138.10 1.08L138.10 1.08L137.65 3.58Q137.24 3.46 136.38 3.18Q135.51 2.90 134.43 2.90L134.43 2.90Q133.30 2.90 132.91 3.18Q132.51 3.46 132.51 3.77L132.51 3.77Q132.51 4.03 132.69 4.24Q132.87 4.44 133.17 4.61Q133.47 4.78 133.87 4.93Q134.26 5.09 134.72 5.23L134.72 5.23Q135.37 5.45 136.06 5.71Q136.76 5.98 137.32 6.37Q137.89 6.77 138.25 7.38Q138.61 7.99 138.61 8.88L138.61 8.88Q138.61 9.58 138.34 10.20Q138.08 10.82 137.47 11.28Q136.86 11.74 135.87 12Q134.89 12.26 133.45 12.26L133.45 12.26Q131.98 12.26 130.95 11.93Q129.92 11.59 129.30 11.33L129.30 11.33L129.75 8.86Q130.59 9.19 131.54 9.48Q132.49 9.77 133.47 9.77Z"/>
    </g>
</svg>