<?xml version="1.0" encoding="UTF-8"?>
<svg height="34" width="64.3" version="1.1" xmlns="http://www.w3.org/2000/svg">
    <rect
        height="32"
        width="62.3"
        rx="1"
        ry="1"
        x="1"
        y="1"
        fill="#28430A"
        stroke="#78c81e"
        stroke-width="1"
         />
    <g transform="translate(0, 14)">
        <path fill="#78c81e" d="M23.69 11L19.80 11Q19.49 10.02 18.92 8.89Q18.34 7.75 17.64 6.67Q16.94 5.60 16.17 4.66Q15.40 3.72 14.70 3.08L14.70 3.08L14.70 11L11.26 11L11.26-6.33L14.70-6.33L14.70 0.86Q15.32 0.08 15.99-0.87Q16.66-1.82 17.27-2.78Q17.87-3.73 18.37-4.65Q18.88-5.58 19.21-6.33L19.21-6.33L23.10-6.33Q22.71-5.58 22.17-4.61Q21.62-3.64 20.92-2.59Q20.22-1.54 19.42-0.45Q18.62 0.64 17.76 1.65L17.76 1.65Q18.62 2.49 19.52 3.58Q20.42 4.67 21.21 5.92Q22.01 7.16 22.66 8.47Q23.30 9.77 23.69 11L23.69 11ZM29.99-6.53L29.99-6.53Q31.48-6.53 32.68-6.19Q33.88-5.86 34.75-5.16Q35.62-4.46 36.08-3.38Q36.54-2.30 36.54-0.84L36.54-0.84Q36.54 0.67 35.93 1.90Q35.31 3.13 33.88 3.78L33.88 3.78Q34.36 4.50 34.89 5.39Q35.42 6.27 35.93 7.23Q36.43 8.20 36.89 9.17Q37.36 10.13 37.69 11L37.69 11L34.08 11Q33.44 9.32 32.58 7.77Q31.73 6.21 30.75 4.62L30.75 4.62L28.96 4.62L28.96 11L25.51 11L25.51-6.08Q26.02-6.19 26.62-6.29Q27.22-6.39 27.84-6.43Q28.45-6.47 29.01-6.50Q29.57-6.53 29.99-6.53ZM33.04-0.87L33.04-0.87Q33.04-2.24 32.20-2.89Q31.36-3.53 29.99-3.53L29.99-3.53Q29.80-3.53 29.52-3.52Q29.24-3.50 28.96-3.45L28.96-3.45L28.96 1.76L29.71 1.76Q31.48 1.76 32.26 1.07Q33.04 0.39 33.04-0.87ZM50.88 8.14L50.88 11L39.99 11L39.99-6.33L43.46-6.33L43.46 8.14L50.88 8.14Z"/>
    </g>
</svg>