<?xml version="1.0" encoding="UTF-8"?>
<svg height="26" width="171.6" version="1.1" xmlns="http://www.w3.org/2000/svg"><!--Created by Josélio de S. C. Júnior - 2021 - https://github.com/joseliojunior -->
    <rect
        height="24"
        width="169.6"
        rx="1"
        ry="1"
        x="1" y="1"
        fill="#3572A5"
        stroke="#102332"
        stroke-width="1" />
    <g transform="translate(0, 8)">
        <path fill="#102332" d="M23.58-0.02L23.58-0.02Q25.47-0.02 26.51 0.76Q27.55 1.54 27.55 3.30L27.55 3.30Q27.55 5.07 26.50 5.86Q25.46 6.66 23.54 6.66L23.54 6.66L22.83 6.66L22.83 10L20.86 10L20.86 0.22Q21.15 0.16 21.51 0.11Q21.87 0.06 22.24 0.04Q22.61 0.02 22.96 0Q23.31-0.02 23.58-0.02ZM23.81 1.70L23.81 1.70Q23.63 1.70 23.32 1.70Q23.01 1.71 22.83 1.74L22.83 1.74L22.83 4.94L23.63 4.94Q24.58 4.94 25.06 4.57Q25.54 4.19 25.54 3.28L25.54 3.28Q25.54 2.42 25.06 2.06Q24.59 1.70 23.81 1.70ZM33.54 2.48L35.55 2.48Q35.25 3.54 34.97 4.55Q34.69 5.57 34.38 6.54Q34.08 7.50 33.74 8.43Q33.39 9.36 32.99 10.24L32.99 10.24Q32.69 10.88 32.39 11.34Q32.10 11.81 31.74 12.10Q31.38 12.40 30.94 12.54Q30.50 12.69 29.90 12.69L29.90 12.69Q29.41 12.69 29 12.61Q28.59 12.53 28.32 12.40L28.32 12.40L28.69 10.75Q29.01 10.90 29.26 10.95Q29.50 11.01 29.79 11.01L29.79 11.01Q30.37 11.01 30.72 10.62Q31.07 10.24 31.28 9.71L31.28 9.71Q30.58 8.30 29.87 6.49Q29.17 4.67 28.59 2.48L28.59 2.48L30.64 2.48Q30.78 3.07 30.97 3.74Q31.15 4.42 31.36 5.09Q31.57 5.76 31.80 6.41Q32.03 7.06 32.27 7.62L32.27 7.62Q32.43 7.06 32.61 6.41Q32.78 5.76 32.94 5.10Q33.10 4.43 33.26 3.76Q33.41 3.09 33.54 2.48L33.54 2.48ZM38.29 7.20L38.29 4.11L36.58 4.11L36.58 2.48L38.29 2.48L38.29 0.59L40.26 0.27L40.26 2.48L43.41 2.48L43.41 4.11L40.26 4.11L40.26 7.15Q40.26 7.57 40.34 7.82Q40.42 8.08 40.56 8.22Q40.70 8.37 40.91 8.42Q41.12 8.46 41.38 8.46L41.38 8.46Q41.65 8.46 41.88 8.45Q42.11 8.43 42.33 8.39Q42.54 8.35 42.78 8.27Q43.01 8.19 43.28 8.06L43.28 8.06L43.55 9.76Q43.01 9.98 42.38 10.08Q41.74 10.18 41.15 10.18L41.15 10.18Q40.46 10.18 39.94 10.06Q39.41 9.95 39.04 9.63Q38.67 9.31 38.48 8.73Q38.29 8.14 38.29 7.20L38.29 7.20ZM46.98 10L45.01 10L45.01-0.77L46.98-1.10L46.98 2.54Q47.22 2.46 47.55 2.39Q47.89 2.32 48.14 2.32L48.14 2.32Q48.98 2.32 49.54 2.57Q50.10 2.82 50.43 3.27Q50.77 3.73 50.91 4.36Q51.06 4.99 51.06 5.76L51.06 5.76L51.06 10L49.09 10L49.09 6.02Q49.09 4.96 48.85 4.50Q48.61 4.03 47.94 4.03L47.94 4.03Q47.66 4.03 47.40 4.10Q47.14 4.16 46.98 4.21L46.98 4.21L46.98 10ZM59.55 6.22L59.55 6.22Q59.55 7.12 59.30 7.85Q59.04 8.58 58.58 9.10Q58.11 9.63 57.46 9.92Q56.82 10.21 56.02 10.21L56.02 10.21Q55.22 10.21 54.57 9.92Q53.92 9.63 53.45 9.10Q52.98 8.58 52.72 7.85Q52.46 7.12 52.46 6.22L52.46 6.22Q52.46 5.34 52.73 4.62Q52.99 3.89 53.46 3.37Q53.94 2.85 54.59 2.57Q55.25 2.29 56.02 2.29L56.02 2.29Q56.80 2.29 57.45 2.57Q58.10 2.85 58.57 3.37Q59.04 3.89 59.30 4.62Q59.55 5.34 59.55 6.22ZM54.46 6.24L54.46 6.24Q54.46 7.25 54.82 7.87Q55.18 8.50 55.98 8.50L55.98 8.50Q56.75 8.50 57.14 7.87Q57.54 7.25 57.54 6.24L57.54 6.24Q57.54 5.23 57.18 4.62Q56.82 4 56.02 4L56.02 4Q55.25 4 54.86 4.62Q54.46 5.23 54.46 6.24ZM61.01 10L61.01 2.72Q61.54 2.58 62.31 2.45Q63.09 2.32 64 2.32L64 2.32Q64.90 2.32 65.49 2.57Q66.08 2.82 66.42 3.27Q66.77 3.73 66.91 4.36Q67.06 4.99 67.06 5.76L67.06 5.76L67.06 10L65.09 10L65.09 6.02Q65.09 4.96 64.85 4.50Q64.61 4.03 63.87 4.03L63.87 4.03Q63.65 4.03 63.43 4.05Q63.22 4.06 62.98 4.10L62.98 4.10L62.98 10L61.01 10ZM78.29 7.20L78.29 4.11L76.58 4.11L76.58 2.48L78.29 2.48L78.29 0.59L80.26 0.27L80.26 2.48L83.41 2.48L83.41 4.11L80.26 4.11L80.26 7.15Q80.26 7.57 80.34 7.82Q80.42 8.08 80.56 8.22Q80.70 8.37 80.91 8.42Q81.12 8.46 81.38 8.46L81.38 8.46Q81.65 8.46 81.88 8.45Q82.11 8.43 82.33 8.39Q82.54 8.35 82.78 8.27Q83.01 8.19 83.28 8.06L83.28 8.06L83.55 9.76Q83.01 9.98 82.38 10.08Q81.74 10.18 81.15 10.18L81.15 10.18Q80.46 10.18 79.94 10.06Q79.41 9.95 79.04 9.63Q78.67 9.31 78.48 8.73Q78.29 8.14 78.29 7.20L78.29 7.20ZM91.34 2.66L90.99 4.48Q90.80 4.43 90.54 4.38Q90.27 4.34 90 4.30Q89.73 4.26 89.47 4.24Q89.22 4.22 89.04 4.22L89.04 4.22Q88.62 4.22 88.22 4.26Q87.82 4.30 87.41 4.42L87.41 4.42L87.41 10L85.42 10L85.42 2.98Q86.21 2.69 87.03 2.51Q87.86 2.34 88.96 2.34L88.96 2.34Q89.12 2.34 89.42 2.35Q89.71 2.37 90.05 2.41Q90.38 2.45 90.73 2.50Q91.07 2.56 91.34 2.66L91.34 2.66ZM96.02 8.59L96.02 8.59Q96.34 8.59 96.64 8.58Q96.94 8.58 97.17 8.54L97.17 8.54L97.17 6.82Q96.98 6.78 96.70 6.76Q96.43 6.74 96.21 6.74L96.21 6.74Q95.90 6.74 95.62 6.78Q95.33 6.82 95.11 6.91Q94.90 7.01 94.77 7.18Q94.64 7.36 94.64 7.65L94.64 7.65Q94.64 8.16 95.02 8.38Q95.41 8.59 96.02 8.59ZM95.84 2.29L95.84 2.29Q96.77 2.29 97.38 2.50Q98 2.72 98.37 3.11Q98.74 3.50 98.90 4.07Q99.06 4.64 99.06 5.34L99.06 5.34L99.06 9.82Q98.62 9.92 97.78 10.05Q96.93 10.18 95.87 10.18L95.87 10.18Q95.15 10.18 94.57 10.05Q93.98 9.92 93.57 9.62Q93.15 9.33 92.93 8.86Q92.70 8.38 92.70 7.70L92.70 7.70Q92.70 7.04 92.96 6.59Q93.22 6.14 93.65 5.87Q94.08 5.60 94.64 5.48Q95.20 5.36 95.81 5.36L95.81 5.36Q96.58 5.36 97.17 5.49L97.17 5.49L97.17 5.25Q97.17 4.69 96.82 4.31Q96.46 3.94 95.60 3.94L95.60 3.94Q95.04 3.94 94.52 4.02Q94 4.10 93.68 4.21L93.68 4.21L93.41 2.62Q93.78 2.50 94.45 2.39Q95.12 2.29 95.84 2.29ZM100.70 6.24L100.70 6.24Q100.70 5.42 100.96 4.70Q101.22 3.98 101.74 3.45Q102.27 2.91 103.08 2.60Q103.89 2.29 105.01 2.29L105.01 2.29Q105.68 2.29 106.22 2.38Q106.77 2.48 107.33 2.70L107.33 2.70L106.90 4.29Q106.58 4.18 106.18 4.09Q105.79 4 105.18 4L105.18 4Q104.48 4 104.01 4.17Q103.54 4.34 103.25 4.63Q102.96 4.93 102.83 5.34Q102.70 5.76 102.70 6.24L102.70 6.24Q102.70 7.28 103.29 7.87Q103.87 8.46 105.28 8.46L105.28 8.46Q105.74 8.46 106.25 8.40Q106.75 8.34 107.17 8.19L107.17 8.19L107.46 9.81Q107.04 9.97 106.45 10.07Q105.86 10.18 105.06 10.18L105.06 10.18Q103.90 10.18 103.08 9.87Q102.26 9.57 101.73 9.04Q101.20 8.51 100.95 7.79Q100.70 7.07 100.70 6.24ZM108.50 6.30L108.50 6.30Q108.50 5.31 108.80 4.56Q109.10 3.81 109.60 3.30Q110.10 2.80 110.74 2.54Q111.38 2.29 112.05 2.29L112.05 2.29Q113.71 2.29 114.58 3.27Q115.44 4.26 115.44 6.14L115.44 6.14Q115.44 6.34 115.43 6.54Q115.42 6.75 115.41 6.88L115.41 6.88L110.53 6.88Q110.53 7.62 111.14 8.04Q111.74 8.46 112.70 8.46L112.70 8.46Q113.30 8.46 113.83 8.34Q114.37 8.21 114.74 8.08L114.74 8.08L115.01 9.76Q114.50 9.94 113.92 10.06Q113.34 10.18 112.62 10.18L112.62 10.18Q111.66 10.18 110.90 9.93Q110.14 9.68 109.61 9.19Q109.07 8.70 108.78 7.98Q108.50 7.26 108.50 6.30ZM110.53 5.52L113.54 5.52Q113.54 5.22 113.46 4.94Q113.38 4.66 113.20 4.43Q113.02 4.21 112.75 4.07Q112.48 3.94 112.08 3.94L112.08 3.94Q111.70 3.94 111.42 4.06Q111.14 4.19 110.95 4.42Q110.77 4.64 110.66 4.93Q110.56 5.22 110.53 5.52L110.53 5.52ZM121.52 6.19L121.52 6.19Q121.52 5.14 121.18 4.58Q120.83 4.02 120.13 4.02L120.13 4.02Q119.81 4.02 119.50 4.10Q119.18 4.19 118.96 4.32L118.96 4.32L118.96 8.40Q119.18 8.45 119.43 8.46Q119.68 8.48 119.86 8.48L119.86 8.48Q120.62 8.48 121.07 7.96Q121.52 7.44 121.52 6.19ZM123.52 6.24L123.52 6.24Q123.52 7.14 123.28 7.86Q123.04 8.59 122.58 9.10Q122.11 9.62 121.44 9.90Q120.77 10.18 119.90 10.18L119.90 10.18Q119.14 10.18 118.34 10.06Q117.54 9.95 116.99 9.78L116.99 9.78L116.99-0.77L118.96-1.10L118.96 2.66Q119.38 2.46 119.76 2.39Q120.14 2.32 120.53 2.32L120.53 2.32Q121.26 2.32 121.82 2.60Q122.38 2.88 122.76 3.40Q123.14 3.92 123.33 4.64Q123.52 5.36 123.52 6.24ZM128.02 8.59L128.02 8.59Q128.34 8.59 128.64 8.58Q128.94 8.58 129.17 8.54L129.17 8.54L129.17 6.82Q128.98 6.78 128.70 6.76Q128.43 6.74 128.21 6.74L128.21 6.74Q127.90 6.74 127.62 6.78Q127.33 6.82 127.11 6.91Q126.90 7.01 126.77 7.18Q126.64 7.36 126.64 7.65L126.64 7.65Q126.64 8.16 127.02 8.38Q127.41 8.59 128.02 8.59ZM127.84 2.29L127.84 2.29Q128.77 2.29 129.38 2.50Q130 2.72 130.37 3.11Q130.74 3.50 130.90 4.07Q131.06 4.64 131.06 5.34L131.06 5.34L131.06 9.82Q130.62 9.92 129.78 10.05Q128.93 10.18 127.87 10.18L127.87 10.18Q127.15 10.18 126.57 10.05Q125.98 9.92 125.57 9.62Q125.15 9.33 124.93 8.86Q124.70 8.38 124.70 7.70L124.70 7.70Q124.70 7.04 124.96 6.59Q125.22 6.14 125.65 5.87Q126.08 5.60 126.64 5.48Q127.20 5.36 127.81 5.36L127.81 5.36Q128.58 5.36 129.17 5.49L129.17 5.49L129.17 5.25Q129.17 4.69 128.82 4.31Q128.46 3.94 127.60 3.94L127.60 3.94Q127.04 3.94 126.52 4.02Q126 4.10 125.68 4.21L125.68 4.21L125.41 2.62Q125.78 2.50 126.45 2.39Q127.12 2.29 127.84 2.29ZM132.70 6.24L132.70 6.24Q132.70 5.42 132.96 4.70Q133.22 3.98 133.74 3.45Q134.27 2.91 135.08 2.60Q135.89 2.29 137.01 2.29L137.01 2.29Q137.68 2.29 138.22 2.38Q138.77 2.48 139.33 2.70L139.33 2.70L138.90 4.29Q138.58 4.18 138.18 4.09Q137.79 4 137.18 4L137.18 4Q136.48 4 136.01 4.17Q135.54 4.34 135.25 4.63Q134.96 4.93 134.83 5.34Q134.70 5.76 134.70 6.24L134.70 6.24Q134.70 7.28 135.29 7.87Q135.87 8.46 137.28 8.46L137.28 8.46Q137.74 8.46 138.25 8.40Q138.75 8.34 139.17 8.19L139.17 8.19L139.46 9.81Q139.04 9.97 138.45 10.07Q137.86 10.18 137.06 10.18L137.06 10.18Q135.90 10.18 135.08 9.87Q134.26 9.57 133.73 9.04Q133.20 8.51 132.95 7.79Q132.70 7.07 132.70 6.24ZM142.99-1.10L142.99 5.46Q143.28 5.12 143.58 4.74Q143.87 4.37 144.15 3.97Q144.43 3.57 144.69 3.19Q144.94 2.82 145.14 2.48L145.14 2.48L147.50 2.48Q147.22 2.85 146.85 3.28Q146.48 3.71 146.09 4.16Q145.70 4.61 145.30 5.02Q144.91 5.44 144.59 5.79L144.59 5.79Q144.99 6.18 145.46 6.71Q145.92 7.25 146.37 7.82Q146.82 8.40 147.19 8.98Q147.57 9.55 147.79 10L147.79 10L145.54 10Q145.34 9.60 145.03 9.10Q144.72 8.59 144.37 8.10Q144.02 7.62 143.66 7.18Q143.30 6.74 142.99 6.45L142.99 6.45L142.99 10L141.01 10L141.01-0.77L142.99-1.10Z"/>
    </g>
</svg>