<?xml version="1.0" encoding="UTF-8"?>
<svg height="322" width="235.6" version="1.1" xmlns="http://www.w3.org/2000/svg"><!--Created by Josélio de S. C. Júnior - 2021 - https://github.com/joseliojunior -->
    <rect
        height="32"
        width="233.6"
        rx="1"
        ry="1"
        x="1" y="1"
        fill="#3572A5"
        stroke="#102332"
        stroke-width="1" />
    <g transform="translate(0, 12)">
        <path fill="#102332" stroke="none" d="M25.38-3.02L25.38-3.02Q28.21-3.02 29.77-1.86Q31.33-0.70 31.33 1.94L31.33 1.94Q31.33 4.61 29.76 5.80Q28.18 6.98 25.30 6.98L25.30 6.98L24.25 6.98L24.25 12L21.30 12L21.30-2.66Q21.73-2.76 22.27-2.83Q22.81-2.90 23.36-2.94Q23.91-2.98 24.44-3Q24.97-3.02 25.38-3.02ZM25.71-0.46L25.71-0.46Q25.45-0.46 24.98-0.44Q24.51-0.43 24.25-0.38L24.25-0.38L24.25 4.42L25.45 4.42Q26.86 4.42 27.58 3.85Q28.30 3.29 28.30 1.92L28.30 1.92Q28.30 0.62 27.60 0.08Q26.89-0.46 25.71-0.46ZM40.30 0.72L43.33 0.72Q42.87 2.30 42.45 3.83Q42.03 5.35 41.58 6.80Q41.12 8.26 40.60 9.65Q40.09 11.04 39.49 12.36L39.49 12.36Q39.03 13.32 38.59 14.02Q38.14 14.71 37.60 15.16Q37.06 15.60 36.40 15.82Q35.74 16.03 34.86 16.03L34.86 16.03Q34.11 16.03 33.50 15.91Q32.89 15.79 32.48 15.60L32.48 15.60L33.03 13.13Q33.51 13.34 33.88 13.43Q34.26 13.51 34.69 13.51L34.69 13.51Q35.55 13.51 36.08 12.94Q36.61 12.36 36.92 11.57L36.92 11.57Q35.86 9.46 34.81 6.73Q33.75 4.01 32.89 0.72L32.89 0.72L35.96 0.72Q36.18 1.61 36.45 2.62Q36.73 3.62 37.04 4.63Q37.35 5.64 37.70 6.61Q38.05 7.58 38.41 8.42L38.41 8.42Q38.65 7.58 38.91 6.61Q39.18 5.64 39.42 4.64Q39.66 3.65 39.88 2.64Q40.11 1.63 40.30 0.72L40.30 0.72ZM47.43 7.80L47.43 3.17L44.86 3.17L44.86 0.72L47.43 0.72L47.43-2.11L50.38-2.59L50.38 0.72L55.11 0.72L55.11 3.17L50.38 3.17L50.38 7.73Q50.38 8.35 50.50 8.74Q50.62 9.12 50.84 9.34Q51.06 9.55 51.37 9.62Q51.68 9.70 52.06 9.70L52.06 9.70Q52.47 9.70 52.82 9.67Q53.17 9.65 53.49 9.59Q53.82 9.53 54.16 9.41Q54.51 9.29 54.92 9.10L54.92 9.10L55.33 11.64Q54.51 11.98 53.56 12.12Q52.62 12.26 51.73 12.26L51.73 12.26Q50.70 12.26 49.90 12.10Q49.11 11.93 48.56 11.45Q48.01 10.97 47.72 10.09Q47.43 9.22 47.43 7.80L47.43 7.80ZM60.46 12L57.51 12L57.51-4.15L60.46-4.66L60.46 0.82Q60.82 0.70 61.33 0.59Q61.83 0.48 62.22 0.48L62.22 0.48Q63.46 0.48 64.30 0.85Q65.14 1.22 65.65 1.91Q66.15 2.59 66.37 3.54Q66.58 4.49 66.58 5.64L66.58 5.64L66.58 12L63.63 12L63.63 6.02Q63.63 4.44 63.27 3.74Q62.91 3.05 61.90 3.05L61.90 3.05Q61.50 3.05 61.10 3.14Q60.70 3.24 60.46 3.31L60.46 3.31L60.46 12ZM79.33 6.34L79.33 6.34Q79.33 7.68 78.94 8.77Q78.56 9.86 77.86 10.66Q77.17 11.45 76.20 11.88Q75.22 12.31 74.02 12.31L74.02 12.31Q72.82 12.31 71.85 11.88Q70.88 11.45 70.17 10.66Q69.46 9.86 69.08 8.77Q68.70 7.68 68.70 6.34L68.70 6.34Q68.70 5.02 69.09 3.92Q69.49 2.83 70.20 2.05Q70.90 1.27 71.89 0.85Q72.87 0.43 74.02 0.43L74.02 0.43Q75.20 0.43 76.17 0.85Q77.14 1.27 77.85 2.05Q78.56 2.83 78.94 3.92Q79.33 5.02 79.33 6.34ZM71.70 6.36L71.70 6.36Q71.70 7.87 72.24 8.81Q72.78 9.74 73.98 9.74L73.98 9.74Q75.13 9.74 75.72 8.81Q76.30 7.87 76.30 6.36L76.30 6.36Q76.30 4.85 75.76 3.92Q75.22 3 74.02 3L74.02 3Q72.87 3 72.28 3.92Q71.70 4.85 71.70 6.36ZM81.51 12L81.51 1.08Q82.30 0.86 83.47 0.67Q84.63 0.48 86 0.48L86 0.48Q87.34 0.48 88.23 0.85Q89.12 1.22 89.64 1.91Q90.15 2.59 90.37 3.54Q90.58 4.49 90.58 5.64L90.58 5.64L90.58 12L87.63 12L87.63 6.02Q87.63 4.44 87.27 3.74Q86.91 3.05 85.81 3.05L85.81 3.05Q85.47 3.05 85.15 3.07Q84.82 3.10 84.46 3.14L84.46 3.14L84.46 12L81.51 12ZM107.43 7.80L107.43 3.17L104.86 3.17L104.86 0.72L107.43 0.72L107.43-2.11L110.38-2.59L110.38 0.72L115.11 0.72L115.11 3.17L110.38 3.17L110.38 7.73Q110.38 8.35 110.50 8.74Q110.62 9.12 110.84 9.34Q111.06 9.55 111.37 9.62Q111.68 9.70 112.06 9.70L112.06 9.70Q112.47 9.70 112.82 9.67Q113.17 9.65 113.49 9.59Q113.82 9.53 114.16 9.41Q114.51 9.29 114.92 9.10L114.92 9.10L115.33 11.64Q114.51 11.98 113.56 12.12Q112.62 12.26 111.73 12.26L111.73 12.26Q110.70 12.26 109.90 12.10Q109.11 11.93 108.56 11.45Q108.01 10.97 107.72 10.09Q107.43 9.22 107.43 7.80L107.43 7.80ZM127.02 0.98L126.49 3.72Q126.20 3.65 125.80 3.58Q125.41 3.50 125 3.44Q124.59 3.38 124.21 3.36Q123.82 3.34 123.56 3.34L123.56 3.34Q122.94 3.34 122.34 3.40Q121.74 3.46 121.11 3.62L121.11 3.62L121.11 12L118.14 12L118.14 1.46Q119.31 1.03 120.55 0.77Q121.78 0.50 123.44 0.50L123.44 0.50Q123.68 0.50 124.12 0.53Q124.57 0.55 125.07 0.61Q125.58 0.67 126.09 0.76Q126.61 0.84 127.02 0.98L127.02 0.98ZM134.02 9.89L134.02 9.89Q134.50 9.89 134.96 9.88Q135.42 9.86 135.75 9.82L135.75 9.82L135.75 7.22Q135.46 7.18 135.06 7.14Q134.65 7.10 134.31 7.10L134.31 7.10Q133.86 7.10 133.42 7.16Q132.99 7.22 132.67 7.37Q132.34 7.51 132.15 7.78Q131.96 8.04 131.96 8.47L131.96 8.47Q131.96 9.24 132.54 9.56Q133.11 9.89 134.02 9.89ZM133.76 0.43L133.76 0.43Q135.15 0.43 136.08 0.76Q137 1.08 137.55 1.67Q138.10 2.26 138.34 3.11Q138.58 3.96 138.58 5.02L138.58 5.02L138.58 11.74Q137.94 11.88 136.66 12.07Q135.39 12.26 133.81 12.26L133.81 12.26Q132.73 12.26 131.85 12.07Q130.98 11.88 130.35 11.44Q129.73 10.99 129.39 10.28Q129.06 9.58 129.06 8.54L129.06 8.54Q129.06 7.56 129.44 6.89Q129.82 6.22 130.47 5.81Q131.12 5.40 131.96 5.22Q132.80 5.04 133.71 5.04L133.71 5.04Q134.86 5.04 135.75 5.23L135.75 5.23L135.75 4.87Q135.75 4.03 135.22 3.47Q134.70 2.90 133.40 2.90L133.40 2.90Q132.56 2.90 131.78 3.02Q131 3.14 130.52 3.31L130.52 3.31L130.11 0.94Q130.66 0.74 131.67 0.59Q132.68 0.43 133.76 0.43ZM141.06 6.36L141.06 6.36Q141.06 5.14 141.44 4.06Q141.82 2.98 142.62 2.17Q143.41 1.37 144.62 0.90Q145.83 0.43 147.51 0.43L147.51 0.43Q148.52 0.43 149.34 0.58Q150.15 0.72 150.99 1.06L150.99 1.06L150.34 3.43Q149.86 3.26 149.28 3.13Q148.69 3 147.78 3L147.78 3Q146.72 3 146.01 3.25Q145.30 3.50 144.87 3.95Q144.44 4.39 144.25 5.02Q144.06 5.64 144.06 6.36L144.06 6.36Q144.06 7.92 144.93 8.81Q145.81 9.70 147.92 9.70L147.92 9.70Q148.62 9.70 149.37 9.60Q150.13 9.50 150.75 9.29L150.75 9.29L151.18 11.71Q150.56 11.95 149.67 12.11Q148.78 12.26 147.58 12.26L147.58 12.26Q145.86 12.26 144.62 11.81Q143.38 11.35 142.59 10.56Q141.80 9.77 141.43 8.69Q141.06 7.61 141.06 6.36ZM152.74 6.46L152.74 6.46Q152.74 4.97 153.20 3.84Q153.66 2.71 154.40 1.96Q155.14 1.20 156.10 0.82Q157.06 0.43 158.07 0.43L158.07 0.43Q160.57 0.43 161.86 1.91Q163.16 3.38 163.16 6.22L163.16 6.22Q163.16 6.50 163.15 6.82Q163.14 7.13 163.11 7.32L163.11 7.32L155.79 7.32Q155.79 8.42 156.70 9.06Q157.62 9.70 159.06 9.70L159.06 9.70Q159.94 9.70 160.75 9.50Q161.55 9.31 162.10 9.12L162.10 9.12L162.51 11.64Q161.74 11.90 160.88 12.08Q160.02 12.26 158.94 12.26L158.94 12.26Q157.50 12.26 156.36 11.89Q155.22 11.52 154.41 10.79Q153.61 10.06 153.18 8.98Q152.74 7.90 152.74 6.46ZM155.79 5.28L160.30 5.28Q160.30 4.82 160.18 4.40Q160.06 3.98 159.80 3.65Q159.54 3.31 159.13 3.11Q158.72 2.90 158.12 2.90L158.12 2.90Q157.54 2.90 157.12 3.10Q156.70 3.29 156.43 3.62Q156.15 3.96 156.00 4.39Q155.84 4.82 155.79 5.28L155.79 5.28ZM172.28 6.29L172.28 6.29Q172.28 4.70 171.76 3.86Q171.25 3.02 170.19 3.02L170.19 3.02Q169.71 3.02 169.24 3.16Q168.78 3.29 168.44 3.48L168.44 3.48L168.44 9.60Q168.78 9.67 169.15 9.70Q169.52 9.72 169.78 9.72L169.78 9.72Q170.94 9.72 171.61 8.94Q172.28 8.16 172.28 6.29ZM175.28 6.36L175.28 6.36Q175.28 7.70 174.92 8.80Q174.56 9.89 173.86 10.66Q173.17 11.42 172.16 11.84Q171.15 12.26 169.86 12.26L169.86 12.26Q168.70 12.26 167.50 12.10Q166.30 11.93 165.49 11.66L165.49 11.66L165.49-4.15L168.44-4.66L168.44 0.98Q169.06 0.70 169.64 0.59Q170.22 0.48 170.79 0.48L170.79 0.48Q171.90 0.48 172.74 0.90Q173.58 1.32 174.14 2.10Q174.70 2.88 174.99 3.96Q175.28 5.04 175.28 6.36ZM182.02 9.89L182.02 9.89Q182.50 9.89 182.96 9.88Q183.42 9.86 183.75 9.82L183.75 9.82L183.75 7.22Q183.46 7.18 183.06 7.14Q182.65 7.10 182.31 7.10L182.31 7.10Q181.86 7.10 181.42 7.16Q180.99 7.22 180.67 7.37Q180.34 7.51 180.15 7.78Q179.96 8.04 179.96 8.47L179.96 8.47Q179.96 9.24 180.54 9.56Q181.11 9.89 182.02 9.89ZM181.76 0.43L181.76 0.43Q183.15 0.43 184.08 0.76Q185 1.08 185.55 1.67Q186.10 2.26 186.34 3.11Q186.58 3.96 186.58 5.02L186.58 5.02L186.58 11.74Q185.94 11.88 184.66 12.07Q183.39 12.26 181.81 12.26L181.81 12.26Q180.73 12.26 179.85 12.07Q178.98 11.88 178.35 11.44Q177.73 10.99 177.39 10.28Q177.06 9.58 177.06 8.54L177.06 8.54Q177.06 7.56 177.44 6.89Q177.82 6.22 178.47 5.81Q179.12 5.40 179.96 5.22Q180.80 5.04 181.71 5.04L181.71 5.04Q182.86 5.04 183.75 5.23L183.75 5.23L183.75 4.87Q183.75 4.03 183.22 3.47Q182.70 2.90 181.40 2.90L181.40 2.90Q180.56 2.90 179.78 3.02Q179 3.14 178.52 3.31L178.52 3.31L178.11 0.94Q178.66 0.74 179.67 0.59Q180.68 0.43 181.76 0.43ZM189.06 6.36L189.06 6.36Q189.06 5.14 189.44 4.06Q189.82 2.98 190.62 2.17Q191.41 1.37 192.62 0.90Q193.83 0.43 195.51 0.43L195.51 0.43Q196.52 0.43 197.34 0.58Q198.15 0.72 198.99 1.06L198.99 1.06L198.34 3.43Q197.86 3.26 197.28 3.13Q196.69 3 195.78 3L195.78 3Q194.72 3 194.01 3.25Q193.30 3.50 192.87 3.95Q192.44 4.39 192.25 5.02Q192.06 5.64 192.06 6.36L192.06 6.36Q192.06 7.92 192.93 8.81Q193.81 9.70 195.92 9.70L195.92 9.70Q196.62 9.70 197.37 9.60Q198.13 9.50 198.75 9.29L198.75 9.29L199.18 11.71Q198.56 11.95 197.67 12.11Q196.78 12.26 195.58 12.26L195.58 12.26Q193.86 12.26 192.62 11.81Q191.38 11.35 190.59 10.56Q189.80 9.77 189.43 8.69Q189.06 7.61 189.06 6.36ZM204.49-4.66L204.49 5.18Q204.92 4.68 205.36 4.12Q205.81 3.55 206.23 2.95Q206.65 2.35 207.03 1.79Q207.42 1.22 207.70 0.72L207.70 0.72L211.26 0.72Q210.82 1.27 210.27 1.92Q209.72 2.57 209.13 3.24Q208.54 3.91 207.96 4.54Q207.37 5.16 206.89 5.69L206.89 5.69Q207.49 6.26 208.18 7.07Q208.88 7.87 209.55 8.74Q210.22 9.60 210.79 10.46Q211.35 11.33 211.69 12L211.69 12L208.30 12Q208.02 11.40 207.55 10.64Q207.08 9.89 206.55 9.16Q206.02 8.42 205.48 7.76Q204.94 7.10 204.49 6.67L204.49 6.67L204.49 12L201.51 12L201.51-4.15L204.49-4.66Z"/>
    </g>
</svg>