<?xml version="1.0" encoding="UTF-8"?>
<svg height="34" width="114.6" version="1.1" xmlns="http://www.w3.org/2000/svg"><!--Created by Josélio de S. C. Júnior - 2021 - https://github.com/joseliojunior -->
    <rect
        height="32"
        width="112.6"
        rx="16"
        ry="16"
        x="1" y="1"
        fill="#dce200"
        stroke="#454700"
        stroke-width="1" />
    <g transform="translate(0, 12)">
        <path fill="#454700" d="M27.97-2.86L30.92-2.86L30.92 12L27.97 12L27.97 5.45L24.03 5.45L24.03 12L21.08 12L21.08-2.86L24.03-2.86L24.03 3L27.97 3L27.97-2.86ZM38.82-2.52L38.82-2.52Q38.82-1.66 38.26-1.15Q37.71-0.65 36.94-0.65L36.94-0.65Q36.18-0.65 35.64-1.15Q35.10-1.66 35.10-2.52L35.10-2.52Q35.10-3.41 35.64-3.91Q36.18-4.42 36.94-4.42L36.94-4.42Q37.71-4.42 38.26-3.91Q38.82-3.41 38.82-2.52ZM42.82 9.14L43.21 11.52Q42.30 11.95 41.49 12.11Q40.69 12.26 40.02 12.26L40.02 12.26Q38.86 12.26 38.08 11.93Q37.30 11.59 36.84 10.96Q36.37 10.32 36.18 9.41Q35.98 8.50 35.98 7.32L35.98 7.32L35.98 3.17L32.86 3.17L32.86 0.72L38.94 0.72L38.94 7.70Q38.94 8.71 39.31 9.20Q39.68 9.70 40.54 9.70L40.54 9.70Q40.95 9.70 41.53 9.59Q42.10 9.48 42.82 9.14L42.82 9.14ZM51.13 12L48.66 12Q47.58 9.86 46.46 7.00Q45.34 4.13 44.34 0.72L44.34 0.72L47.43 0.72Q47.65 1.63 47.95 2.66Q48.25 3.70 48.58 4.74Q48.92 5.78 49.27 6.77Q49.62 7.75 49.93 8.57L49.93 8.57Q50.24 7.75 50.62 6.77Q51.01 5.78 51.38 4.74Q51.75 3.70 52.10 2.66Q52.45 1.63 52.66 0.72L52.66 0.72L55.66 0.72Q54.66 4.13 53.43 7.00Q52.21 9.86 51.13 12L51.13 12ZM56.74 6.46L56.74 6.46Q56.74 4.97 57.20 3.84Q57.66 2.71 58.40 1.96Q59.14 1.20 60.10 0.82Q61.06 0.43 62.07 0.43L62.07 0.43Q64.57 0.43 65.86 1.91Q67.16 3.38 67.16 6.22L67.16 6.22Q67.16 6.50 67.15 6.82Q67.14 7.13 67.11 7.32L67.11 7.32L59.79 7.32Q59.79 8.42 60.70 9.06Q61.62 9.70 63.06 9.70L63.06 9.70Q63.94 9.70 64.75 9.50Q65.55 9.31 66.10 9.12L66.10 9.12L66.51 11.64Q65.74 11.90 64.88 12.08Q64.02 12.26 62.94 12.26L62.94 12.26Q61.50 12.26 60.36 11.89Q59.22 11.52 58.41 10.79Q57.61 10.06 57.18 8.98Q56.74 7.90 56.74 6.46ZM59.79 5.28L64.30 5.28Q64.30 4.82 64.18 4.40Q64.06 3.98 63.80 3.65Q63.54 3.31 63.13 3.11Q62.72 2.90 62.12 2.90L62.12 2.90Q61.54 2.90 61.12 3.10Q60.70 3.29 60.43 3.62Q60.15 3.96 60.00 4.39Q59.84 4.82 59.79 5.28L59.79 5.28ZM68.65 4.63L68.65 4.63Q68.65 0.79 70.06-1.16Q71.48-3.12 74-3.12L74-3.12Q76.62-3.12 77.98-1.16Q79.35 0.79 79.35 4.63L79.35 4.63Q79.35 7.99 78.27 9.92Q77.19 11.86 75.15 12.26L75.15 12.26Q75.42 12.86 76.44 13.26Q77.46 13.66 79.23 13.97L79.23 13.97L78.61 16.08Q75.80 15.70 74.37 14.80Q72.94 13.90 72.68 12.22L72.68 12.22Q70.74 11.74 69.69 9.83Q68.65 7.92 68.65 4.63ZM71.65 4.63L71.65 4.63Q71.65 5.71 71.73 6.65Q71.82 7.58 72.07 8.29Q72.32 9 72.78 9.41Q73.23 9.82 74 9.82L74 9.82Q74.74 9.82 75.21 9.41Q75.68 9 75.93 8.29Q76.18 7.58 76.27 6.65Q76.35 5.71 76.35 4.63L76.35 4.63Q76.35 3.55 76.27 2.60Q76.18 1.66 75.93 0.96Q75.68 0.26 75.22-0.14Q74.77-0.55 74-0.55L74-0.55Q73.23-0.55 72.78-0.14Q72.32 0.26 72.07 0.97Q71.82 1.68 71.73 2.62Q71.65 3.55 71.65 4.63ZM91.04 9.55L91.04 12L81.70 12L81.70-2.86L84.68-2.86L84.68 9.55L91.04 9.55Z"/>
    </g>
</svg>