<?xml version="1.0" encoding="UTF-8"?>
<svg height="26" width="90.6" version="1.1" xmlns="http://www.w3.org/2000/svg"><!--Created by Josélio de S. C. Júnior - 2021 - https://github.com/joseliojunior -->
    <rect
        height="24"
        width="88.6"
        rx="12"
        ry="12"
        x="1" y="1"
        fill="#dce200"
        stroke="#454700"
        stroke-width="1" />
    <g transform="translate(0, 8)">
        <path fill="#454700" stroke="none" d="M25.31 0.10L27.28 0.10L27.28 10L25.31 10L25.31 5.63L22.69 5.63L22.69 10L20.72 10L20.72 0.10L22.69 0.10L22.69 4L25.31 4L25.31 0.10ZM32.54 0.32L32.54 0.32Q32.54 0.90 32.18 1.23Q31.81 1.57 31.30 1.57L31.30 1.57Q30.78 1.57 30.42 1.23Q30.06 0.90 30.06 0.32L30.06 0.32Q30.06-0.27 30.42-0.61Q30.78-0.94 31.30-0.94L31.30-0.94Q31.81-0.94 32.18-0.61Q32.54-0.27 32.54 0.32ZM35.22 8.10L35.47 9.68Q34.86 9.97 34.33 10.07Q33.79 10.18 33.34 10.18L33.34 10.18Q32.58 10.18 32.06 9.95Q31.54 9.73 31.22 9.30Q30.91 8.88 30.78 8.27Q30.66 7.66 30.66 6.88L30.66 6.88L30.66 4.11L28.58 4.11L28.58 2.48L32.62 2.48L32.62 7.14Q32.62 7.81 32.87 8.14Q33.12 8.46 33.70 8.46L33.70 8.46Q33.97 8.46 34.35 8.39Q34.74 8.32 35.22 8.10L35.22 8.10ZM40.75 10L39.10 10Q38.38 8.58 37.64 6.66Q36.90 4.75 36.22 2.48L36.22 2.48L38.29 2.48Q38.43 3.09 38.63 3.78Q38.83 4.46 39.06 5.16Q39.28 5.86 39.51 6.51Q39.74 7.17 39.95 7.71L39.95 7.71Q40.16 7.17 40.42 6.51Q40.67 5.86 40.92 5.16Q41.17 4.46 41.40 3.78Q41.63 3.09 41.78 2.48L41.78 2.48L43.78 2.48Q43.10 4.75 42.29 6.66Q41.47 8.58 40.75 10L40.75 10ZM44.50 6.30L44.50 6.30Q44.50 5.31 44.80 4.56Q45.10 3.81 45.60 3.30Q46.10 2.80 46.74 2.54Q47.38 2.29 48.05 2.29L48.05 2.29Q49.71 2.29 50.58 3.27Q51.44 4.26 51.44 6.14L51.44 6.14Q51.44 6.34 51.43 6.54Q51.42 6.75 51.41 6.88L51.41 6.88L46.53 6.88Q46.53 7.62 47.14 8.04Q47.74 8.46 48.70 8.46L48.70 8.46Q49.30 8.46 49.83 8.34Q50.37 8.21 50.74 8.08L50.74 8.08L51.01 9.76Q50.50 9.94 49.92 10.06Q49.34 10.18 48.62 10.18L48.62 10.18Q47.66 10.18 46.90 9.93Q46.14 9.68 45.61 9.19Q45.07 8.70 44.78 7.98Q44.50 7.26 44.50 6.30ZM46.53 5.52L49.54 5.52Q49.54 5.22 49.46 4.94Q49.38 4.66 49.20 4.43Q49.02 4.21 48.75 4.07Q48.48 3.94 48.08 3.94L48.08 3.94Q47.70 3.94 47.42 4.06Q47.14 4.19 46.95 4.42Q46.77 4.64 46.66 4.93Q46.56 5.22 46.53 5.52L46.53 5.52ZM52.43 5.09L52.43 5.09Q52.43 2.53 53.38 1.22Q54.32-0.08 56-0.08L56-0.08Q57.74-0.08 58.66 1.22Q59.57 2.53 59.57 5.09L59.57 5.09Q59.57 7.33 58.85 8.62Q58.13 9.90 56.77 10.18L56.77 10.18Q56.94 10.58 57.62 10.84Q58.30 11.10 59.49 11.31L59.49 11.31L59.07 12.72Q57.20 12.46 56.25 11.86Q55.30 11.26 55.12 10.14L55.12 10.14Q53.82 9.82 53.13 8.55Q52.43 7.28 52.43 5.09ZM54.43 5.09L54.43 5.09Q54.43 5.81 54.49 6.43Q54.54 7.06 54.71 7.53Q54.88 8 55.18 8.27Q55.49 8.54 56 8.54L56 8.54Q56.50 8.54 56.81 8.27Q57.12 8 57.29 7.53Q57.46 7.06 57.51 6.43Q57.57 5.81 57.57 5.09L57.57 5.09Q57.57 4.37 57.51 3.74Q57.46 3.10 57.29 2.64Q57.12 2.18 56.82 1.90Q56.51 1.63 56 1.63L56 1.63Q55.49 1.63 55.18 1.90Q54.88 2.18 54.71 2.65Q54.54 3.12 54.49 3.74Q54.43 4.37 54.43 5.09ZM67.36 8.37L67.36 10L61.14 10L61.14 0.10L63.12 0.10L63.12 8.37L67.36 8.37Z"/>
    </g>
</svg>