<?xml version="1.0" encoding="UTF-8"?>
<svg height="34" width="120.7" version="1.1" xmlns="http://www.w3.org/2000/svg">
    <rect
        height="32"
        width="118.7"
        rx="1"
        ry="1"
        x="1"
        y="1"
        fill="#ffe7ac"
        stroke="#e0a100"
        stroke-width="1"
         />
    <g transform="translate(0, 14)">
        <path fill="#e0a100" d="M10.70-6.33L23.30-6.33L23.30-3.48L18.74-3.48L18.74 11L15.26 11L15.26-3.48L10.70-3.48L10.70-6.33ZM24.87 4.53L24.87 4.53Q24.87 2.80 25.40 1.48Q25.93 0.16 26.80-0.72Q27.67-1.60 28.79-2.05Q29.91-2.50 31.08-2.50L31.08-2.50Q34.00-2.50 35.51-0.77Q37.02 0.95 37.02 4.25L37.02 4.25Q37.02 4.59 37.01 4.95Q36.99 5.32 36.96 5.54L36.96 5.54L28.42 5.54Q28.42 6.83 29.49 7.57Q30.55 8.31 32.23 8.31L32.23 8.31Q33.27 8.31 34.21 8.09Q35.14 7.86 35.79 7.64L35.79 7.64L36.26 10.58Q35.37 10.89 34.36 11.10Q33.35 11.31 32.09 11.31L32.09 11.31Q30.41 11.31 29.08 10.87Q27.75 10.44 26.81 9.59Q25.88 8.73 25.37 7.47Q24.87 6.21 24.87 4.53ZM28.42 3.16L33.69 3.16Q33.69 2.63 33.55 2.14Q33.41 1.65 33.10 1.26Q32.79 0.86 32.32 0.63Q31.84 0.39 31.14 0.39L31.14 0.39Q30.47 0.39 29.98 0.61Q29.49 0.84 29.17 1.23Q28.84 1.62 28.66 2.12Q28.48 2.63 28.42 3.16L28.42 3.16ZM42.20-2.16L45.11 1.96L47.80-2.16L51.30-2.16L47.04 4.17Q47.72 4.98 48.36 5.89Q49.00 6.80 49.59 7.72Q50.18 8.65 50.66 9.49Q51.13 10.33 51.47 11L51.47 11L47.88 11Q47.13 9.57 46.37 8.45Q45.62 7.33 44.94 6.44L44.94 6.44Q44.10 7.56 43.43 8.62Q42.76 9.68 42.06 11L42.06 11L38.56 11Q38.98 10.22 39.53 9.36Q40.07 8.51 40.67 7.63Q41.28 6.74 41.93 5.88Q42.59 5.01 43.21 4.22L43.21 4.22L38.59-2.16L42.20-2.16ZM56.00 6.10L56.00 0.70L53.01 0.70L53.01-2.16L56.00-2.16L56.00-5.46L59.45-6.02L59.45-2.16L64.96-2.16L64.96 0.70L59.45 0.70L59.45 6.02Q59.45 6.74 59.59 7.19Q59.73 7.64 59.98 7.89Q60.23 8.14 60.60 8.23Q60.96 8.31 61.41 8.31L61.41 8.31Q61.88 8.31 62.29 8.28Q62.70 8.26 63.07 8.19Q63.45 8.12 63.86 7.98Q64.26 7.84 64.74 7.61L64.74 7.61L65.22 10.58Q64.26 10.97 63.16 11.14Q62.05 11.31 61.02 11.31L61.02 11.31Q59.81 11.31 58.89 11.11Q57.96 10.92 57.32 10.36Q56.68 9.80 56.34 8.77Q56.00 7.75 56.00 6.10L56.00 6.10ZM73.95-5.94L73.95-5.94Q73.95-4.93 73.31-4.34Q72.66-3.76 71.77-3.76L71.77-3.76Q70.87-3.76 70.24-4.34Q69.61-4.93 69.61-5.94L69.61-5.94Q69.61-6.98 70.24-7.56Q70.87-8.15 71.77-8.15L71.77-8.15Q72.66-8.15 73.31-7.56Q73.95-6.98 73.95-5.94ZM78.63 7.67L79.08 10.44Q78.01 10.94 77.07 11.13Q76.14 11.31 75.35 11.31L75.35 11.31Q74.01 11.31 73.10 10.92Q72.19 10.52 71.64 9.78Q71.10 9.04 70.87 7.98Q70.65 6.91 70.65 5.54L70.65 5.54L70.65 0.70L67.01 0.70L67.01-2.16L74.09-2.16L74.09 5.99Q74.09 7.16 74.53 7.74Q74.96 8.31 75.97 8.31L75.97 8.31Q76.44 8.31 77.12 8.19Q77.79 8.06 78.63 7.67L78.63 7.67ZM92.63 7.67L93.08 10.44Q92.99 10.50 92.70 10.64Q92.40 10.78 91.93 10.93Q91.45 11.08 90.77 11.20Q90.08 11.31 89.21 11.31L89.21 11.31Q86.83 11.31 85.74 9.89Q84.65 8.48 84.65 5.76L84.65 5.76L84.65-5.41L81.01-5.41L81.01-8.26L88.09-8.26L88.09 6.02Q88.09 7.36 88.62 7.84Q89.16 8.31 89.97 8.31L89.97 8.31Q91.00 8.31 91.70 8.03Q92.40 7.75 92.63 7.67L92.63 7.67ZM94.87 4.53L94.87 4.53Q94.87 2.80 95.40 1.48Q95.93 0.16 96.80-0.72Q97.67-1.60 98.79-2.05Q99.91-2.50 101.08-2.50L101.08-2.50Q104.00-2.50 105.51-0.77Q107.02 0.95 107.02 4.25L107.02 4.25Q107.02 4.59 107.01 4.95Q106.99 5.32 106.96 5.54L106.96 5.54L98.42 5.54Q98.42 6.83 99.49 7.57Q100.55 8.31 102.23 8.31L102.23 8.31Q103.27 8.31 104.21 8.09Q105.14 7.86 105.79 7.64L105.79 7.64L106.26 10.58Q105.37 10.89 104.36 11.10Q103.35 11.31 102.09 11.31L102.09 11.31Q100.41 11.31 99.08 10.87Q97.75 10.44 96.81 9.59Q95.88 8.73 95.37 7.47Q94.87 6.21 94.87 4.53ZM98.42 3.16L103.69 3.16Q103.69 2.63 103.55 2.14Q103.41 1.65 103.10 1.26Q102.79 0.86 102.32 0.63Q101.84 0.39 101.14 0.39L101.14 0.39Q100.47 0.39 99.98 0.61Q99.49 0.84 99.17 1.23Q98.84 1.62 98.66 2.12Q98.48 2.63 98.42 3.16L98.42 3.16Z"/>
    </g>
</svg>