<?xml version="1.0" encoding="UTF-8"?>
<svg height="34" width="126.7" version="1.1" xmlns="http://www.w3.org/2000/svg"><!--Created by Josélio de S. C. Júnior - 2021 - https://github.com/joseliojunior -->
    <rect
        height="32"
        width="124.7"
        rx="16"
        ry="16"
        x="1" y="1"
        fill="#9400ff"
        stroke="#3b0066"
        stroke-width="1" />
    <g transform="translate(0, 12)">
        <path fill="#3b0066" d="M31.78 12L28.62 12L27.92 8.57L23.96 8.57L23.29 12L20.22 12Q21.27 7.61 22.35 4.00Q23.43 0.38 24.44-2.86L24.44-2.86L27.66-2.86Q28.71 0.41 29.76 4.07Q30.80 7.73 31.78 12L31.78 12ZM25.98 0.02L25.98 0.02Q25.74 0.86 25.53 1.62Q25.33 2.38 25.15 3.11Q24.97 3.84 24.81 4.58Q24.66 5.33 24.51 6.12L24.51 6.12L27.42 6.12Q27.27 5.33 27.13 4.58Q26.98 3.84 26.80 3.11Q26.62 2.38 26.42 1.62Q26.22 0.86 25.98 0.02ZM37.57 9.84L37.57 9.84Q38.31 9.84 38.80 9.68Q39.30 9.53 39.58 9.25Q39.87 8.98 39.98 8.63Q40.09 8.28 40.09 7.92L40.09 7.92Q40.09 7.46 39.82 7.10Q39.56 6.74 39.15 6.47Q38.74 6.19 38.24 5.96Q37.74 5.74 37.23 5.54L37.23 5.54Q36.56 5.30 35.84 4.99Q35.12 4.68 34.53 4.20Q33.94 3.72 33.56 3.01Q33.18 2.30 33.18 1.25L33.18 1.25Q33.18-0.84 34.53-2.02Q35.89-3.19 38.26-3.19L38.26-3.19Q39.63-3.19 40.65-2.88Q41.67-2.57 42.37-2.18L42.37-2.18L41.50 0.10Q40.90-0.24 40.17-0.48Q39.44-0.72 38.48-0.72L38.48-0.72Q36.13-0.72 36.13 0.98L36.13 0.98Q36.13 1.42 36.37 1.74Q36.61 2.06 36.98 2.32Q37.35 2.57 37.82 2.76Q38.29 2.95 38.74 3.12L38.74 3.12Q39.44 3.38 40.20 3.71Q40.95 4.03 41.59 4.57Q42.22 5.11 42.63 5.92Q43.04 6.72 43.04 7.94L43.04 7.94Q43.04 10.03 41.68 11.17Q40.33 12.31 37.57 12.31L37.57 12.31Q35.72 12.31 34.62 11.92Q33.51 11.52 32.96 11.18L32.96 11.18L33.82 8.78Q34.47 9.17 35.37 9.50Q36.27 9.84 37.57 9.84ZM49.38-3.02L49.38-3.02Q52.21-3.02 53.77-1.86Q55.33-0.70 55.33 1.94L55.33 1.94Q55.33 4.61 53.76 5.80Q52.18 6.98 49.30 6.98L49.30 6.98L48.25 6.98L48.25 12L45.30 12L45.30-2.66Q45.73-2.76 46.27-2.83Q46.81-2.90 47.36-2.94Q47.91-2.98 48.44-3Q48.97-3.02 49.38-3.02ZM49.71-0.46L49.71-0.46Q49.45-0.46 48.98-0.44Q48.51-0.43 48.25-0.38L48.25-0.38L48.25 4.42L49.45 4.42Q50.86 4.42 51.58 3.85Q52.30 3.29 52.30 1.92L52.30 1.92Q52.30 0.62 51.60 0.08Q50.89-0.46 49.71-0.46ZM64.16 10.10L64.16 10.10Q64.16 11.16 63.51 11.71Q62.86 12.26 62.02 12.26L62.02 12.26Q61.59 12.26 61.21 12.12Q60.82 11.98 60.52 11.70Q60.22 11.42 60.04 11.03Q59.86 10.63 59.86 10.10L59.86 10.10Q59.86 9.60 60.04 9.20Q60.22 8.81 60.52 8.54Q60.82 8.28 61.21 8.14Q61.59 7.99 62.02 7.99L62.02 7.99Q62.86 7.99 63.51 8.54Q64.16 9.10 64.16 10.10ZM78.90 12L76.52 12Q75.51 9.53 74.32 7.07Q73.14 4.61 71.77 2.14L71.77 2.14L71.77 12L69.10 12L69.10-2.86L71.48-2.86Q72.15-1.80 72.82-0.56Q73.50 0.67 74.13 1.90Q74.77 3.12 75.31 4.27Q75.85 5.42 76.23 6.29L76.23 6.29L76.23-2.86L78.90-2.86L78.90 12ZM91.04 12L81.51 12L81.51-2.86L90.51-2.86L90.51-0.41L84.46-0.41L84.46 2.93L89.72 2.93L89.72 5.38L84.46 5.38L84.46 9.55L91.04 9.55L91.04 12ZM92.60-2.86L103.40-2.86L103.40-0.41L99.49-0.41L99.49 12L96.51 12L96.51-0.41L92.60-0.41L92.60-2.86Z"/>
    </g>
</svg>