<?xml version="1.0" encoding="UTF-8"?>
<svg height="34" width="120.7" version="1.1" xmlns="http://www.w3.org/2000/svg">
    <rect
        height="32"
        width="118.7"
        rx="1"
        ry="1"
        x="1"
        y="1"
        fill="#9400ff"
        stroke="#3b0066"
        stroke-width="1"
         />
    <g transform="translate(0, 14)">
        <path fill="#3b0066" d="M23.75 11L20.05 11L19.24 7.00L14.62 7.00L13.84 11L10.25 11Q11.48 5.88 12.74 1.66Q14.00-2.55 15.18-6.33L15.18-6.33L18.93-6.33Q20.16-2.52 21.38 1.75Q22.60 6.02 23.75 11L23.75 11ZM16.97-2.97L16.97-2.97Q16.69-1.99 16.45-1.11Q16.22-0.23 16.01 0.63Q15.80 1.48 15.61 2.35Q15.43 3.22 15.26 4.14L15.26 4.14L18.65 4.14Q18.48 3.22 18.32 2.35Q18.15 1.48 17.94 0.63Q17.73-0.23 17.49-1.11Q17.25-1.99 16.97-2.97ZM30.50 8.48L30.50 8.48Q31.36 8.48 31.94 8.30Q32.51 8.12 32.85 7.79Q33.18 7.47 33.31 7.07Q33.44 6.66 33.44 6.24L33.44 6.24Q33.44 5.71 33.13 5.29Q32.82 4.87 32.34 4.55Q31.87 4.22 31.28 3.96Q30.69 3.69 30.10 3.47L30.10 3.47Q29.32 3.19 28.48 2.82Q27.64 2.46 26.95 1.90Q26.27 1.34 25.82 0.51Q25.37-0.31 25.37-1.54L25.37-1.54Q25.37-3.98 26.95-5.35Q28.54-6.72 31.31-6.72L31.31-6.72Q32.90-6.72 34.09-6.36Q35.28-6.00 36.10-5.55L36.10-5.55L35.09-2.89Q34.39-3.28 33.53-3.56Q32.68-3.84 31.56-3.84L31.56-3.84Q28.82-3.84 28.82-1.85L28.82-1.85Q28.82-1.35 29.10-0.97Q29.38-0.59 29.81-0.30Q30.24-0.00 30.79 0.22Q31.34 0.44 31.87 0.64L31.87 0.64Q32.68 0.95 33.56 1.33Q34.44 1.70 35.19 2.33Q35.93 2.96 36.40 3.90Q36.88 4.84 36.88 6.27L36.88 6.27Q36.88 8.70 35.30 10.03Q33.72 11.36 30.50 11.36L30.50 11.36Q28.34 11.36 27.05 10.90Q25.76 10.44 25.12 10.05L25.12 10.05L26.13 7.25Q26.88 7.70 27.93 8.09Q28.98 8.48 30.50 8.48ZM44.27-6.53L44.27-6.53Q47.58-6.53 49.40-5.17Q51.22-3.81 51.22-0.73L51.22-0.73Q51.22 2.38 49.38 3.76Q47.55 5.15 44.19 5.15L44.19 5.15L42.96 5.15L42.96 11L39.51 11L39.51-6.11Q40.02-6.22 40.65-6.30Q41.28-6.39 41.92-6.43Q42.56-6.47 43.18-6.50Q43.80-6.53 44.27-6.53ZM44.66-3.53L44.66-3.53Q44.36-3.53 43.81-3.52Q43.26-3.50 42.96-3.45L42.96-3.45L42.96 2.15L44.36 2.15Q46.01 2.15 46.85 1.49Q47.69 0.84 47.69-0.76L47.69-0.76Q47.69-2.27 46.86-2.90Q46.04-3.53 44.66-3.53ZM61.52 8.79L61.52 8.79Q61.52 10.02 60.76 10.66Q60.01 11.31 59.03 11.31L59.03 11.31Q58.52 11.31 58.08 11.14Q57.63 10.97 57.28 10.65Q56.93 10.33 56.72 9.87Q56.51 9.40 56.51 8.79L56.51 8.79Q56.51 8.20 56.72 7.74Q56.93 7.28 57.28 6.97Q57.63 6.66 58.08 6.49Q58.52 6.32 59.03 6.32L59.03 6.32Q60.01 6.32 60.76 6.97Q61.52 7.61 61.52 8.79ZM78.71 11L75.94 11Q74.76 8.12 73.38 5.25Q71.99 2.38 70.40-0.51L70.40-0.51L70.40 11L67.29 11L67.29-6.33L70.06-6.33Q70.84-5.10 71.63-3.66Q72.41-2.22 73.15-0.79Q73.90 0.64 74.53 1.98Q75.16 3.33 75.60 4.34L75.60 4.34L75.60-6.33L78.71-6.33L78.71 11ZM92.88 11L81.76 11L81.76-6.33L92.26-6.33L92.26-3.48L85.21-3.48L85.21 0.42L91.34 0.42L91.34 3.27L85.21 3.27L85.21 8.14L92.88 8.14L92.88 11ZM94.70-6.33L107.30-6.33L107.30-3.48L102.74-3.48L102.74 11L99.26 11L99.26-3.48L94.70-3.48L94.70-6.33Z"/>
    </g>
</svg>