<?xml version="1.0" encoding="UTF-8"?>
<svg height="26" width="98.69999999999999" version="1.1" xmlns="http://www.w3.org/2000/svg"><!--Created by Josélio de S. C. Júnior - 2021 - https://github.com/joseliojunior -->
    <rect
        height="24"
        width="96.69999999999999"
        rx="1"
        ry="1"
        x="1" y="1"
        fill="#9400ff"
        stroke="#3b0066"
        stroke-width="1" />
    <g transform="translate(0, 8)">
        <path fill="#3b0066" stroke="none" d="M27.86 10L25.74 10L25.28 7.71L22.64 7.71L22.19 10L20.14 10Q20.85 7.07 21.57 4.66Q22.29 2.26 22.96 0.10L22.96 0.10L25.10 0.10Q25.81 2.27 26.50 4.71Q27.20 7.15 27.86 10L27.86 10ZM23.98 2.02L23.98 2.02Q23.82 2.58 23.69 3.08Q23.55 3.58 23.43 4.07Q23.31 4.56 23.21 5.06Q23.10 5.55 23.01 6.08L23.01 6.08L24.94 6.08Q24.85 5.55 24.75 5.06Q24.66 4.56 24.54 4.07Q24.42 3.58 24.28 3.08Q24.14 2.58 23.98 2.02ZM31.71 8.56L31.71 8.56Q32.21 8.56 32.54 8.46Q32.86 8.35 33.06 8.17Q33.25 7.98 33.32 7.75Q33.39 7.52 33.39 7.28L33.39 7.28Q33.39 6.98 33.22 6.74Q33.04 6.50 32.77 6.31Q32.50 6.13 32.16 5.98Q31.82 5.82 31.49 5.70L31.49 5.70Q31.04 5.54 30.56 5.33Q30.08 5.12 29.69 4.80Q29.30 4.48 29.04 4.01Q28.78 3.54 28.78 2.83L28.78 2.83Q28.78 1.44 29.69 0.66Q30.59-0.13 32.18-0.13L32.18-0.13Q33.09-0.13 33.77 0.08Q34.45 0.29 34.91 0.54L34.91 0.54L34.34 2.06Q33.94 1.84 33.45 1.68Q32.96 1.52 32.32 1.52L32.32 1.52Q30.75 1.52 30.75 2.66L30.75 2.66Q30.75 2.94 30.91 3.16Q31.07 3.38 31.32 3.54Q31.57 3.71 31.88 3.84Q32.19 3.97 32.50 4.08L32.50 4.08Q32.96 4.26 33.46 4.47Q33.97 4.69 34.39 5.05Q34.82 5.41 35.09 5.94Q35.36 6.48 35.36 7.30L35.36 7.30Q35.36 8.69 34.46 9.45Q33.55 10.21 31.71 10.21L31.71 10.21Q30.48 10.21 29.74 9.94Q29.01 9.68 28.64 9.46L28.64 9.46L29.22 7.86Q29.65 8.11 30.25 8.34Q30.85 8.56 31.71 8.56ZM39.58-0.02L39.58-0.02Q41.47-0.02 42.51 0.76Q43.55 1.54 43.55 3.30L43.55 3.30Q43.55 5.07 42.50 5.86Q41.46 6.66 39.54 6.66L39.54 6.66L38.83 6.66L38.83 10L36.86 10L36.86 0.22Q37.15 0.16 37.51 0.11Q37.87 0.06 38.24 0.04Q38.61 0.02 38.96 0Q39.31-0.02 39.58-0.02ZM39.81 1.70L39.81 1.70Q39.63 1.70 39.32 1.70Q39.01 1.71 38.83 1.74L38.83 1.74L38.83 4.94L39.63 4.94Q40.58 4.94 41.06 4.57Q41.54 4.19 41.54 3.28L41.54 3.28Q41.54 2.42 41.06 2.06Q40.59 1.70 39.81 1.70ZM49.44 8.74L49.44 8.74Q49.44 9.44 49.01 9.81Q48.58 10.18 48.02 10.18L48.02 10.18Q47.73 10.18 47.47 10.08Q47.22 9.98 47.02 9.80Q46.82 9.62 46.70 9.35Q46.58 9.09 46.58 8.74L46.58 8.74Q46.58 8.40 46.70 8.14Q46.82 7.87 47.02 7.70Q47.22 7.52 47.47 7.42Q47.73 7.33 48.02 7.33L48.02 7.33Q48.58 7.33 49.01 7.70Q49.44 8.06 49.44 8.74ZM59.26 10L57.68 10Q57.01 8.35 56.22 6.71Q55.42 5.07 54.51 3.42L54.51 3.42L54.51 10L52.74 10L52.74 0.10L54.32 0.10Q54.77 0.80 55.22 1.62Q55.66 2.45 56.09 3.26Q56.51 4.08 56.87 4.85Q57.23 5.62 57.49 6.19L57.49 6.19L57.49 0.10L59.26 0.10L59.26 10ZM67.36 10L61.01 10L61.01 0.10L67.01 0.10L67.01 1.73L62.98 1.73L62.98 3.95L66.48 3.95L66.48 5.58L62.98 5.58L62.98 8.37L67.36 8.37L67.36 10ZM68.40 0.10L75.60 0.10L75.60 1.73L72.99 1.73L72.99 10L71.01 10L71.01 1.73L68.40 1.73L68.40 0.10Z"/>
    </g>
</svg>