<?xml version="1.0" encoding="UTF-8"?>
<svg height="34" width="205.29999999999998" version="1.1" xmlns="http://www.w3.org/2000/svg">
    <rect
        height="32"
        width="203.29999999999998"
        rx="14"
        ry="14"
        x="1"
        y="1"
        fill="#199f4b"
        stroke="#041a0c"
        stroke-width="1"
         />
    <g transform="translate(0, 14)">
        <path fill="#041a0c" d="M18.76 11L15.21 11Q14.54 9.07 13.78 6.63Q13.02 4.20 12.35 1.77Q11.68-0.65 11.15-2.80Q10.62-4.96 10.36-6.33L10.36-6.33L14.00-6.33Q14.17-4.99 14.51-3.21Q14.84-1.43 15.25 0.46Q15.66 2.35 16.12 4.18Q16.58 6.02 17.03 7.47L17.03 7.47Q17.48 6.04 17.92 4.21Q18.37 2.38 18.76 0.49Q19.16-1.40 19.49-3.20Q19.83-4.99 20.05-6.33L20.05-6.33L23.66-6.33Q23.33-4.65 22.84-2.58Q22.35-0.51 21.72 1.77Q21.09 4.06 20.33 6.42Q19.58 8.79 18.76 11L18.76 11ZM31.95-5.94L31.95-5.94Q31.95-4.93 31.31-4.34Q30.66-3.76 29.77-3.76L29.77-3.76Q28.87-3.76 28.24-4.34Q27.61-4.93 27.61-5.94L27.61-5.94Q27.61-6.98 28.24-7.56Q28.87-8.15 29.77-8.15L29.77-8.15Q30.66-8.15 31.31-7.56Q31.95-6.98 31.95-5.94ZM36.63 7.67L37.08 10.44Q36.01 10.94 35.07 11.13Q34.14 11.31 33.35 11.31L33.35 11.31Q32.01 11.31 31.10 10.92Q30.19 10.52 29.64 9.78Q29.10 9.04 28.87 7.98Q28.65 6.91 28.65 5.54L28.65 5.54L28.65 0.70L25.01 0.70L25.01-2.16L32.09-2.16L32.09 5.99Q32.09 7.16 32.53 7.74Q32.96 8.31 33.97 8.31L33.97 8.31Q34.44 8.31 35.12 8.19Q35.79 8.06 36.63 7.67L36.63 7.67ZM47.60-2.30L47.60-2.30Q48.70-2.30 49.40-1.96Q50.10-1.63 50.50-0.96Q50.91-0.28 51.05 0.74Q51.19 1.76 51.19 3.13L51.19 3.13L51.19 11L48.39 11L48.39 2.96Q48.39 2.18 48.29 1.70Q48.19 1.23 48.04 0.98Q47.88 0.72 47.67 0.64Q47.46 0.56 47.24 0.56L47.24 0.56Q46.99 0.56 46.71 0.60Q46.43 0.64 46.20 0.75L46.20 0.75Q46.29 1.28 46.34 1.93Q46.40 2.57 46.40 3.36L46.40 3.36L46.40 5.99L43.60 5.99L43.60 2.96Q43.60 1.62 43.33 1.09Q43.07 0.56 42.48 0.56L42.48 0.56Q42.31 0.56 42.07 0.58Q41.84 0.61 41.61 0.67L41.61 0.67L41.61 11L38.81 11L38.81-1.66Q39.90-1.96 40.97-2.13Q42.03-2.30 42.84-2.30L42.84-2.30Q43.57-2.30 44.15-2.12Q44.72-1.94 45.14-1.52L45.14-1.52Q45.62-1.82 46.26-2.06Q46.90-2.30 47.60-2.30ZM75.30-6.33L78.74-6.33L78.74 11L75.30 11L75.30 3.36L70.70 3.36L70.70 11L67.26 11L67.26-6.33L70.70-6.33L70.70 0.50L75.30 0.50L75.30-6.33ZM80.87 4.53L80.87 4.53Q80.87 2.80 81.40 1.48Q81.93 0.16 82.80-0.72Q83.67-1.60 84.79-2.05Q85.91-2.50 87.08-2.50L87.08-2.50Q90.00-2.50 91.51-0.77Q93.02 0.95 93.02 4.25L93.02 4.25Q93.02 4.59 93.01 4.95Q92.99 5.32 92.96 5.54L92.96 5.54L84.42 5.54Q84.42 6.83 85.49 7.57Q86.55 8.31 88.23 8.31L88.23 8.31Q89.27 8.31 90.21 8.09Q91.14 7.86 91.79 7.64L91.79 7.64L92.26 10.58Q91.37 10.89 90.36 11.10Q89.35 11.31 88.09 11.31L88.09 11.31Q86.41 11.31 85.08 10.87Q83.75 10.44 82.81 9.59Q81.88 8.73 81.37 7.47Q80.87 6.21 80.87 4.53ZM84.42 3.16L89.69 3.16Q89.69 2.63 89.55 2.14Q89.41 1.65 89.10 1.26Q88.79 0.86 88.32 0.63Q87.84 0.39 87.14 0.39L87.14 0.39Q86.47 0.39 85.98 0.61Q85.49 0.84 85.17 1.23Q84.84 1.62 84.66 2.12Q84.48 2.63 84.42 3.16L84.42 3.16ZM106.63 7.67L107.08 10.44Q106.99 10.50 106.70 10.64Q106.40 10.78 105.93 10.93Q105.45 11.08 104.77 11.20Q104.08 11.31 103.21 11.31L103.21 11.31Q100.83 11.31 99.74 9.89Q98.65 8.48 98.65 5.76L98.65 5.76L98.65-5.41L95.01-5.41L95.01-8.26L102.09-8.26L102.09 6.02Q102.09 7.36 102.62 7.84Q103.16 8.31 103.97 8.31L103.97 8.31Q105.00 8.31 105.70 8.03Q106.40 7.75 106.63 7.67L106.63 7.67ZM117.63 4.53L117.63 4.53Q117.63 2.77 116.93 1.63Q116.23 0.50 114.80 0.50L114.80 0.50Q114.41 0.50 113.96 0.54Q113.52 0.58 113.21 0.61L113.21 0.61L113.21 7.84Q113.54 8.06 114.10 8.20Q114.66 8.34 115.22 8.34L115.22 8.34Q116.46 8.34 117.04 7.35Q117.63 6.35 117.63 4.53ZM121.13 4.42L121.13 4.42Q121.13 5.93 120.80 7.21Q120.46 8.48 119.82 9.39Q119.17 10.30 118.19 10.80Q117.21 11.31 115.92 11.31L115.92 11.31Q114.61 11.31 113.21 10.66L113.21 10.66L113.21 15.62L109.76 15.62L109.76-1.74Q110.72-2.05 112.10-2.24Q113.49-2.44 114.83-2.44L114.83-2.44Q117.88-2.44 119.51-0.59Q121.13 1.26 121.13 4.42ZM141.21 11L137.76 11L137.76-6.33L148.38-6.33L148.38-3.48L141.21-3.48L141.21 0.72L147.48 0.72L147.48 3.58L141.21 3.58L141.21 11ZM157.95-5.94L157.95-5.94Q157.95-4.93 157.31-4.34Q156.66-3.76 155.77-3.76L155.77-3.76Q154.87-3.76 154.24-4.34Q153.61-4.93 153.61-5.94L153.61-5.94Q153.61-6.98 154.24-7.56Q154.87-8.15 155.77-8.15L155.77-8.15Q156.66-8.15 157.31-7.56Q157.95-6.98 157.95-5.94ZM162.63 7.67L163.08 10.44Q162.01 10.94 161.07 11.13Q160.14 11.31 159.35 11.31L159.35 11.31Q158.01 11.31 157.10 10.92Q156.19 10.52 155.64 9.78Q155.10 9.04 154.87 7.98Q154.65 6.91 154.65 5.54L154.65 5.54L154.65 0.70L151.01 0.70L151.01-2.16L158.09-2.16L158.09 5.99Q158.09 7.16 158.53 7.74Q158.96 8.31 159.97 8.31L159.97 8.31Q160.44 8.31 161.12 8.19Q161.79 8.06 162.63 7.67L162.63 7.67ZM176.63 7.67L177.08 10.44Q176.99 10.50 176.70 10.64Q176.40 10.78 175.93 10.93Q175.45 11.08 174.77 11.20Q174.08 11.31 173.21 11.31L173.21 11.31Q170.83 11.31 169.74 9.89Q168.65 8.48 168.65 5.76L168.65 5.76L168.65-5.41L165.01-5.41L165.01-8.26L172.09-8.26L172.09 6.02Q172.09 7.36 172.62 7.84Q173.16 8.31 173.97 8.31L173.97 8.31Q175.00 8.31 175.70 8.03Q176.40 7.75 176.63 7.67L176.63 7.67ZM178.87 4.53L178.87 4.53Q178.87 2.80 179.40 1.48Q179.93 0.16 180.80-0.72Q181.67-1.60 182.79-2.05Q183.91-2.50 185.08-2.50L185.08-2.50Q188.00-2.50 189.51-0.77Q191.02 0.95 191.02 4.25L191.02 4.25Q191.02 4.59 191.01 4.95Q190.99 5.32 190.96 5.54L190.96 5.54L182.42 5.54Q182.42 6.83 183.49 7.57Q184.55 8.31 186.23 8.31L186.23 8.31Q187.27 8.31 188.21 8.09Q189.14 7.86 189.79 7.64L189.79 7.64L190.26 10.58Q189.37 10.89 188.36 11.10Q187.35 11.31 186.09 11.31L186.09 11.31Q184.41 11.31 183.08 10.87Q181.75 10.44 180.81 9.59Q179.88 8.73 179.37 7.47Q178.87 6.21 178.87 4.53ZM182.42 3.16L187.69 3.16Q187.69 2.63 187.55 2.14Q187.41 1.65 187.10 1.26Q186.79 0.86 186.32 0.63Q185.84 0.39 185.14 0.39L185.14 0.39Q184.47 0.39 183.98 0.61Q183.49 0.84 183.17 1.23Q182.84 1.62 182.66 2.12Q182.48 2.63 182.42 3.16L182.42 3.16Z"/>
    </g>
</svg>