<?xml version="1.0" encoding="UTF-8"?>
<svg height="34" width="191.2" version="1.1" xmlns="http://www.w3.org/2000/svg">
    <rect
        height="32"
        width="189.2"
        rx="1"
        ry="1"
        x="1"
        y="1"
        fill="#ffd539"
        stroke="#9e7c00"
        stroke-width="1"
         />
    <g transform="translate(0, 14)">
        <path fill="#9e7c00" d="M23.13 5.76L23.13 5.76Q23.13 7.33 22.60 8.38Q22.07 9.43 21.16 10.06Q20.25 10.69 19.00 10.96Q17.76 11.22 16.33 11.22L16.33 11.22Q15.18 11.22 13.95 11.10Q12.72 10.97 11.51 10.72L11.51 10.72L11.51-6.11Q12.49-6.28 13.67-6.40Q14.84-6.53 15.99-6.53L15.99-6.53Q17.95-6.53 19.18-6.12Q20.42-5.72 21.12-5.06Q21.82-4.40 22.07-3.59Q22.32-2.78 22.32-1.96L22.32-1.96Q22.32-0.73 21.72 0.22Q21.12 1.17 20.11 1.73L20.11 1.73Q21.87 2.38 22.50 3.47Q23.13 4.56 23.13 5.76ZM16.80 3.41L14.96 3.41L14.96 8.12Q15.32 8.17 15.75 8.20Q16.19 8.23 16.61 8.23L16.61 8.23Q17.20 8.23 17.76 8.13Q18.32 8.03 18.75 7.77Q19.18 7.50 19.46 7.01Q19.74 6.52 19.74 5.76L19.74 5.76Q19.74 4.50 18.95 3.96Q18.15 3.41 16.80 3.41L16.80 3.41ZM14.96 0.56L16.30 0.56Q17.62 0.56 18.29-0.02Q18.96-0.59 18.96-1.60L18.96-1.60Q18.96-2.22 18.76-2.59Q18.57-2.97 18.23-3.18Q17.90-3.39 17.45-3.46Q17-3.53 16.52-3.53L16.52-3.53Q16.13-3.53 15.71-3.50Q15.29-3.48 14.96-3.42L14.96-3.42L14.96 0.56ZM36.85-1.85L36.24 1.34Q35.90 1.26 35.44 1.17Q34.98 1.09 34.50 1.02Q34.02 0.95 33.58 0.92Q33.13 0.89 32.82 0.89L32.82 0.89Q32.09 0.89 31.39 0.96Q30.69 1.03 29.96 1.23L29.96 1.23L29.96 11L26.49 11L26.49-1.29Q27.86-1.80 29.31-2.10Q30.75-2.41 32.68-2.41L32.68-2.41Q32.96-2.41 33.48-2.38Q34.00-2.36 34.58-2.29Q35.17-2.22 35.77-2.12Q36.38-2.02 36.85-1.85L36.85-1.85ZM51.22 4.39L51.22 4.39Q51.22 5.96 50.77 7.23Q50.32 8.51 49.51 9.43Q48.70 10.36 47.56 10.86Q46.43 11.36 45.03 11.36L45.03 11.36Q43.63 11.36 42.49 10.86Q41.36 10.36 40.53 9.43Q39.71 8.51 39.26 7.23Q38.81 5.96 38.81 4.39L38.81 4.39Q38.81 2.85 39.27 1.58Q39.74 0.30 40.56-0.61Q41.39-1.52 42.54-2.01Q43.68-2.50 45.03-2.50L45.03-2.50Q46.40-2.50 47.53-2.01Q48.67-1.52 49.49-0.61Q50.32 0.30 50.77 1.58Q51.22 2.85 51.22 4.39ZM42.31 4.42L42.31 4.42Q42.31 6.18 42.94 7.28Q43.57 8.37 44.97 8.37L44.97 8.37Q46.32 8.37 47.00 7.28Q47.69 6.18 47.69 4.42L47.69 4.42Q47.69 2.66 47.06 1.58Q46.43 0.50 45.03 0.50L45.03 0.50Q43.68 0.50 43.00 1.58Q42.31 2.66 42.31 4.42ZM63.62 11L61.02 11Q60.71 10.13 60.44 9.40Q60.18 8.68 59.94 7.99Q59.70 7.30 59.46 6.56Q59.22 5.82 58.97 4.92L58.97 4.92Q58.69 5.82 58.47 6.53Q58.24 7.25 58.01 7.95Q57.77 8.65 57.52 9.38Q57.26 10.10 56.90 11L56.90 11L54.30 11Q53.96 9.77 53.67 8.27Q53.37 6.77 53.12 5.08Q52.87 3.38 52.67 1.56Q52.48-0.26 52.31-2.16L52.31-2.16L55.25-2.16Q55.36 0.28 55.49 2.60Q55.61 4.92 55.95 7.39L55.95 7.39Q56.31 6.32 56.58 5.41Q56.84 4.50 57.05 3.68Q57.26 2.85 57.45 2.08Q57.63 1.31 57.82 0.50L57.82 0.50L60.32 0.50Q60.48 1.31 60.67 2.08Q60.85 2.85 61.06 3.68Q61.27 4.50 61.51 5.41Q61.74 6.32 62.08 7.39L62.08 7.39Q62.25 6.10 62.36 4.92Q62.47 3.75 62.54 2.59Q62.61 1.42 62.65 0.26Q62.70-0.90 62.75-2.16L62.75-2.16L65.69-2.16Q65.38 1.68 64.84 5.06Q64.29 8.45 63.62 11L63.62 11ZM72.38 8.40L72.38 8.40Q73.64 8.40 74.32 8.21Q74.99 8.03 74.99 7.47L74.99 7.47Q74.99 7.11 74.78 6.86Q74.57 6.60 74.19 6.42Q73.81 6.24 73.32 6.07Q72.83 5.90 72.30 5.74L72.30 5.74Q71.54 5.51 70.76 5.22Q69.98 4.92 69.33 4.48Q68.69 4.03 68.27 3.34Q67.85 2.66 67.85 1.62L67.85 1.62Q67.85 0.78 68.17 0.04Q68.49-0.70 69.18-1.28Q69.86-1.85 70.93-2.17Q71.99-2.50 73.48-2.50L73.48-2.50Q74.76-2.50 75.87-2.30Q76.98-2.10 77.79-1.74L77.79-1.74L77.26 1.17Q76.78 1.03 75.77 0.71Q74.76 0.39 73.50 0.39L73.50 0.39Q72.19 0.39 71.73 0.71Q71.26 1.03 71.26 1.40L71.26 1.40Q71.26 1.70 71.47 1.94Q71.68 2.18 72.03 2.38Q72.38 2.57 72.85 2.75Q73.31 2.94 73.84 3.10L73.84 3.10Q74.60 3.36 75.41 3.66Q76.22 3.97 76.88 4.43Q77.54 4.90 77.96 5.61Q78.38 6.32 78.38 7.36L78.38 7.36Q78.38 8.17 78.07 8.90Q77.76 9.63 77.05 10.16Q76.33 10.69 75.18 11Q74.04 11.31 72.36 11.31L72.36 11.31Q70.65 11.31 69.44 10.92Q68.24 10.52 67.51 10.22L67.51 10.22L68.04 7.33Q69.02 7.72 70.13 8.06Q71.24 8.40 72.38 8.40ZM80.87 4.53L80.87 4.53Q80.87 2.80 81.40 1.48Q81.93 0.16 82.80-0.72Q83.67-1.60 84.79-2.05Q85.91-2.50 87.08-2.50L87.08-2.50Q90.00-2.50 91.51-0.77Q93.02 0.95 93.02 4.25L93.02 4.25Q93.02 4.59 93.01 4.95Q92.99 5.32 92.96 5.54L92.96 5.54L84.42 5.54Q84.42 6.83 85.49 7.57Q86.55 8.31 88.23 8.31L88.23 8.31Q89.27 8.31 90.21 8.09Q91.14 7.86 91.79 7.64L91.79 7.64L92.26 10.58Q91.37 10.89 90.36 11.10Q89.35 11.31 88.09 11.31L88.09 11.31Q86.41 11.31 85.08 10.87Q83.75 10.44 82.81 9.59Q81.88 8.73 81.37 7.47Q80.87 6.21 80.87 4.53ZM84.42 3.16L89.69 3.16Q89.69 2.63 89.55 2.14Q89.41 1.65 89.10 1.26Q88.79 0.86 88.32 0.63Q87.84 0.39 87.14 0.39L87.14 0.39Q86.47 0.39 85.98 0.61Q85.49 0.84 85.17 1.23Q84.84 1.62 84.66 2.12Q84.48 2.63 84.42 3.16L84.42 3.16ZM106.85-1.85L106.24 1.34Q105.90 1.26 105.44 1.17Q104.98 1.09 104.50 1.02Q104.02 0.95 103.58 0.92Q103.13 0.89 102.82 0.89L102.82 0.89Q102.09 0.89 101.39 0.96Q100.69 1.03 99.96 1.23L99.96 1.23L99.96 11L96.49 11L96.49-1.29Q97.86-1.80 99.31-2.10Q100.75-2.41 102.68-2.41L102.68-2.41Q102.96-2.41 103.48-2.38Q104.00-2.36 104.58-2.29Q105.17-2.22 105.77-2.12Q106.38-2.02 106.85-1.85L106.85-1.85ZM114.38 8.40L114.38 8.40Q115.64 8.40 116.32 8.21Q116.99 8.03 116.99 7.47L116.99 7.47Q116.99 7.11 116.78 6.86Q116.57 6.60 116.19 6.42Q115.81 6.24 115.32 6.07Q114.83 5.90 114.30 5.74L114.30 5.74Q113.54 5.51 112.76 5.22Q111.98 4.92 111.33 4.48Q110.69 4.03 110.27 3.34Q109.85 2.66 109.85 1.62L109.85 1.62Q109.85 0.78 110.17 0.04Q110.49-0.70 111.18-1.28Q111.86-1.85 112.93-2.17Q113.99-2.50 115.48-2.50L115.48-2.50Q116.76-2.50 117.87-2.30Q118.98-2.10 119.79-1.74L119.79-1.74L119.26 1.17Q118.78 1.03 117.77 0.71Q116.76 0.39 115.50 0.39L115.50 0.39Q114.19 0.39 113.73 0.71Q113.26 1.03 113.26 1.40L113.26 1.40Q113.26 1.70 113.47 1.94Q113.68 2.18 114.03 2.38Q114.38 2.57 114.85 2.75Q115.31 2.94 115.84 3.10L115.84 3.10Q116.60 3.36 117.41 3.66Q118.22 3.97 118.88 4.43Q119.54 4.90 119.96 5.61Q120.38 6.32 120.38 7.36L120.38 7.36Q120.38 8.17 120.07 8.90Q119.76 9.63 119.05 10.16Q118.33 10.69 117.18 11Q116.04 11.31 114.36 11.31L114.36 11.31Q112.65 11.31 111.44 10.92Q110.24 10.52 109.51 10.22L109.51 10.22L110.04 7.33Q111.02 7.72 112.13 8.06Q113.24 8.40 114.38 8.40ZM134.63 7.67L135.08 10.44Q134.99 10.50 134.70 10.64Q134.40 10.78 133.93 10.93Q133.45 11.08 132.77 11.20Q132.08 11.31 131.21 11.31L131.21 11.31Q128.83 11.31 127.74 9.89Q126.65 8.48 126.65 5.76L126.65 5.76L126.65-5.41L123.01-5.41L123.01-8.26L130.09-8.26L130.09 6.02Q130.09 7.36 130.62 7.84Q131.16 8.31 131.97 8.31L131.97 8.31Q133.00 8.31 133.70 8.03Q134.40 7.75 134.63 7.67L134.63 7.67ZM143.95-5.94L143.95-5.94Q143.95-4.93 143.31-4.34Q142.66-3.76 141.77-3.76L141.77-3.76Q140.87-3.76 140.24-4.34Q139.61-4.93 139.61-5.94L139.61-5.94Q139.61-6.98 140.24-7.56Q140.87-8.15 141.77-8.15L141.77-8.15Q142.66-8.15 143.31-7.56Q143.95-6.98 143.95-5.94ZM148.63 7.67L149.08 10.44Q148.01 10.94 147.07 11.13Q146.14 11.31 145.35 11.31L145.35 11.31Q144.01 11.31 143.10 10.92Q142.19 10.52 141.64 9.78Q141.10 9.04 140.87 7.98Q140.65 6.91 140.65 5.54L140.65 5.54L140.65 0.70L137.01 0.70L137.01-2.16L144.09-2.16L144.09 5.99Q144.09 7.16 144.53 7.74Q144.96 8.31 145.97 8.31L145.97 8.31Q146.44 8.31 147.12 8.19Q147.79 8.06 148.63 7.67L148.63 7.67ZM156.38 8.40L156.38 8.40Q157.64 8.40 158.32 8.21Q158.99 8.03 158.99 7.47L158.99 7.47Q158.99 7.11 158.78 6.86Q158.57 6.60 158.19 6.42Q157.81 6.24 157.32 6.07Q156.83 5.90 156.30 5.74L156.30 5.74Q155.54 5.51 154.76 5.22Q153.98 4.92 153.33 4.48Q152.69 4.03 152.27 3.34Q151.85 2.66 151.85 1.62L151.85 1.62Q151.85 0.78 152.17 0.04Q152.49-0.70 153.18-1.28Q153.86-1.85 154.93-2.17Q155.99-2.50 157.48-2.50L157.48-2.50Q158.76-2.50 159.87-2.30Q160.98-2.10 161.79-1.74L161.79-1.74L161.26 1.17Q160.78 1.03 159.77 0.71Q158.76 0.39 157.50 0.39L157.50 0.39Q156.19 0.39 155.73 0.71Q155.26 1.03 155.26 1.40L155.26 1.40Q155.26 1.70 155.47 1.94Q155.68 2.18 156.03 2.38Q156.38 2.57 156.85 2.75Q157.31 2.94 157.84 3.10L157.84 3.10Q158.60 3.36 159.41 3.66Q160.22 3.97 160.88 4.43Q161.54 4.90 161.96 5.61Q162.38 6.32 162.38 7.36L162.38 7.36Q162.38 8.17 162.07 8.90Q161.76 9.63 161.05 10.16Q160.33 10.69 159.18 11Q158.04 11.31 156.36 11.31L156.36 11.31Q154.65 11.31 153.44 10.92Q152.24 10.52 151.51 10.22L151.51 10.22L152.04 7.33Q153.02 7.72 154.13 8.06Q155.24 8.40 156.38 8.40ZM168.00 6.10L168.00 0.70L165.01 0.70L165.01-2.16L168.00-2.16L168.00-5.46L171.45-6.02L171.45-2.16L176.96-2.16L176.96 0.70L171.45 0.70L171.45 6.02Q171.45 6.74 171.59 7.19Q171.73 7.64 171.98 7.89Q172.23 8.14 172.60 8.23Q172.96 8.31 173.41 8.31L173.41 8.31Q173.88 8.31 174.29 8.28Q174.70 8.26 175.07 8.19Q175.45 8.12 175.86 7.98Q176.26 7.84 176.74 7.61L176.74 7.61L177.22 10.58Q176.26 10.97 175.16 11.14Q174.05 11.31 173.02 11.31L173.02 11.31Q171.81 11.31 170.89 11.11Q169.96 10.92 169.32 10.36Q168.68 9.80 168.34 8.77Q168.00 7.75 168.00 6.10L168.00 6.10Z"/>
    </g>
</svg>