<?xml version="1.0" encoding="UTF-8"?>
<svg height="34" width="138.8" version="1.1" xmlns="http://www.w3.org/2000/svg"><!--Created by Josélio de S. C. Júnior - 2021 - https://github.com/joseliojunior -->
    <rect
        height="32"
        width="136.8"
        rx="16"
        ry="16"
        x="1" y="1"
        fill="#4f5d95"
        stroke="#1a1f32"
        stroke-width="1" />
    <g transform="translate(0, 12)">
        <path fill="#1a1f32" stroke="none" d="M27.97-2.86L30.92-2.86L30.92 12L27.97 12L27.97 5.45L24.03 5.45L24.03 12L21.08 12L21.08-2.86L24.03-2.86L24.03 3L27.97 3L27.97-2.86ZM32.60-2.86L43.40-2.86L43.40-0.41L39.49-0.41L39.49 12L36.51 12L36.51-0.41L32.60-0.41L32.60-2.86ZM45.42-2.86L47.86-2.86Q48.03-2.35 48.28-1.56Q48.54-0.77 48.82 0.14Q49.11 1.06 49.40 1.99Q49.69 2.93 49.95 3.72L49.95 3.72Q50.24 2.83 50.55 1.88Q50.86 0.94 51.15 0.06Q51.44-0.82 51.68-1.58Q51.92-2.35 52.11-2.86L52.11-2.86L54.56-2.86Q54.73-0.91 54.88 0.94Q55.04 2.78 55.15 4.60Q55.26 6.41 55.33 8.24Q55.40 10.08 55.45 12L55.45 12L52.74 12L52.88 0.46L51.06 6.74L48.90 6.74L47.14 0.46L47.26 12L44.55 12Q44.62 10.18 44.71 8.21Q44.79 6.24 44.89 4.30Q44.98 2.35 45.12 0.53Q45.25-1.30 45.42-2.86L45.42-2.86ZM67.04 9.55L67.04 12L57.70 12L57.70-2.86L60.68-2.86L60.68 9.55L67.04 9.55ZM68.96 6.91L68.96 4.49L72.73 4.49L72.73 0.31L75.27 0.31L75.27 4.49L79.04 4.49L79.04 6.91L75.27 6.91L75.27 11.09L72.73 11.09L72.73 6.91L68.96 6.91ZM85.38-3.02L85.38-3.02Q88.21-3.02 89.77-1.86Q91.33-0.70 91.33 1.94L91.33 1.94Q91.33 4.61 89.76 5.80Q88.18 6.98 85.30 6.98L85.30 6.98L84.25 6.98L84.25 12L81.30 12L81.30-2.66Q81.73-2.76 82.27-2.83Q82.81-2.90 83.36-2.94Q83.91-2.98 84.44-3Q84.97-3.02 85.38-3.02ZM85.71-0.46L85.71-0.46Q85.45-0.46 84.98-0.44Q84.51-0.43 84.25-0.38L84.25-0.38L84.25 4.42L85.45 4.42Q86.86 4.42 87.58 3.85Q88.30 3.29 88.30 1.92L88.30 1.92Q88.30 0.62 87.60 0.08Q86.89-0.46 85.71-0.46ZM99.97-2.86L102.92-2.86L102.92 12L99.97 12L99.97 5.45L96.03 5.45L96.03 12L93.08 12L93.08-2.86L96.03-2.86L96.03 3L99.97 3L99.97-2.86ZM109.38-3.02L109.38-3.02Q112.21-3.02 113.77-1.86Q115.33-0.70 115.33 1.94L115.33 1.94Q115.33 4.61 113.76 5.80Q112.18 6.98 109.30 6.98L109.30 6.98L108.25 6.98L108.25 12L105.30 12L105.30-2.66Q105.73-2.76 106.27-2.83Q106.81-2.90 107.36-2.94Q107.91-2.98 108.44-3Q108.97-3.02 109.38-3.02ZM109.71-0.46L109.71-0.46Q109.45-0.46 108.98-0.44Q108.51-0.43 108.25-0.38L108.25-0.38L108.25 4.42L109.45 4.42Q110.86 4.42 111.58 3.85Q112.30 3.29 112.30 1.92L112.30 1.92Q112.30 0.62 111.60 0.08Q110.89-0.46 109.71-0.46Z"/>
    </g>
</svg>