<?xml version="1.0" encoding="UTF-8"?>
<svg height="26" width="106.8" version="1.1" xmlns="http://www.w3.org/2000/svg"><!--Created by Josélio de S. C. Júnior - 2021 - https://github.com/joseliojunior -->
    <rect
        height="24"
        width="104.8"
        rx="12"
        ry="12"
        x="1" y="1"
        fill="#4f5d95"
        stroke="#1a1f32"
        stroke-width="1" />
    <g transform="translate(0, 8)">
        <path fill="#1a1f32" d="M25.31 0.10L27.28 0.10L27.28 10L25.31 10L25.31 5.63L22.69 5.63L22.69 10L20.72 10L20.72 0.10L22.69 0.10L22.69 4L25.31 4L25.31 0.10ZM28.40 0.10L35.60 0.10L35.60 1.73L32.99 1.73L32.99 10L31.01 10L31.01 1.73L28.40 1.73L28.40 0.10ZM36.94 0.10L38.58 0.10Q38.69 0.43 38.86 0.96Q39.02 1.49 39.22 2.10Q39.41 2.70 39.60 3.33Q39.79 3.95 39.97 4.48L39.97 4.48Q40.16 3.89 40.37 3.26Q40.58 2.62 40.77 2.04Q40.96 1.46 41.12 0.94Q41.28 0.43 41.41 0.10L41.41 0.10L43.04 0.10Q43.15 1.39 43.26 2.62Q43.36 3.86 43.43 5.06Q43.50 6.27 43.55 7.50Q43.60 8.72 43.63 10L43.63 10L41.82 10L41.92 2.30L40.70 6.50L39.26 6.50L38.10 2.30L38.18 10L36.37 10Q36.42 8.78 36.47 7.47Q36.53 6.16 36.59 4.86Q36.66 3.57 36.74 2.35Q36.83 1.14 36.94 0.10L36.94 0.10ZM51.36 8.37L51.36 10L45.14 10L45.14 0.10L47.12 0.10L47.12 8.37L51.36 8.37ZM52.64 6.61L52.64 4.99L55.15 4.99L55.15 2.21L56.85 2.21L56.85 4.99L59.36 4.99L59.36 6.61L56.85 6.61L56.85 9.39L55.15 9.39L55.15 6.61L52.64 6.61ZM63.58-0.02L63.58-0.02Q65.47-0.02 66.51 0.76Q67.55 1.54 67.55 3.30L67.55 3.30Q67.55 5.07 66.50 5.86Q65.46 6.66 63.54 6.66L63.54 6.66L62.83 6.66L62.83 10L60.86 10L60.86 0.22Q61.15 0.16 61.51 0.11Q61.87 0.06 62.24 0.04Q62.61 0.02 62.96 0Q63.31-0.02 63.58-0.02ZM63.81 1.70L63.81 1.70Q63.63 1.70 63.32 1.70Q63.01 1.71 62.83 1.74L62.83 1.74L62.83 4.94L63.63 4.94Q64.58 4.94 65.06 4.57Q65.54 4.19 65.54 3.28L65.54 3.28Q65.54 2.42 65.06 2.06Q64.59 1.70 63.81 1.70ZM73.31 0.10L75.28 0.10L75.28 10L73.31 10L73.31 5.63L70.69 5.63L70.69 10L68.72 10L68.72 0.10L70.69 0.10L70.69 4L73.31 4L73.31 0.10ZM79.58-0.02L79.58-0.02Q81.47-0.02 82.51 0.76Q83.55 1.54 83.55 3.30L83.55 3.30Q83.55 5.07 82.50 5.86Q81.46 6.66 79.54 6.66L79.54 6.66L78.83 6.66L78.83 10L76.86 10L76.86 0.22Q77.15 0.16 77.51 0.11Q77.87 0.06 78.24 0.04Q78.61 0.02 78.96 0Q79.31-0.02 79.58-0.02ZM79.81 1.70L79.81 1.70Q79.63 1.70 79.32 1.70Q79.01 1.71 78.83 1.74L78.83 1.74L78.83 4.94L79.63 4.94Q80.58 4.94 81.06 4.57Q81.54 4.19 81.54 3.28L81.54 3.28Q81.54 2.42 81.06 2.06Q80.59 1.70 79.81 1.70Z"/>
    </g>
</svg>