<?xml version="1.0" encoding="UTF-8"?>
<svg height="26" width="82.5" version="1.1" xmlns="http://www.w3.org/2000/svg"><!--Created by Josélio de S. C. Júnior - 2021 - https://github.com/joseliojunior -->
    <rect
        height="24"
        width="80.5"
        rx="1"
        ry="1"
        x="1" y="1"
        fill="#244963"
        stroke="#5a98c4"
        stroke-width="1" />
    <g transform="translate(0, 8)">
        <path fill="#5a98c4" d="M25.49 2.40L25.49 2.40Q26.11 2.40 26.51 2.59Q26.91 2.78 27.14 3.17Q27.38 3.55 27.46 4.14Q27.54 4.72 27.54 5.50L27.54 5.50L27.54 10L25.94 10L25.94 5.41Q25.94 4.96 25.88 4.69Q25.82 4.42 25.74 4.27Q25.65 4.13 25.53 4.08Q25.41 4.03 25.28 4.03L25.28 4.03Q25.14 4.03 24.98 4.06Q24.82 4.08 24.69 4.14L24.69 4.14Q24.74 4.45 24.77 4.82Q24.80 5.18 24.80 5.63L24.80 5.63L24.80 7.14L23.20 7.14L23.20 5.41Q23.20 4.64 23.05 4.34Q22.90 4.03 22.56 4.03L22.56 4.03Q22.46 4.03 22.33 4.05Q22.19 4.06 22.06 4.10L22.06 4.10L22.06 10L20.46 10L20.46 2.77Q21.09 2.59 21.70 2.50Q22.30 2.40 22.77 2.40L22.77 2.40Q23.18 2.40 23.51 2.50Q23.84 2.61 24.08 2.85L24.08 2.85Q24.35 2.67 24.72 2.54Q25.09 2.40 25.49 2.40ZM35.01 2.48L35.01 9.74Q34.46 9.89 33.69 10.03Q32.91 10.18 32 10.18L32 10.18Q31.07 10.18 30.48 9.92Q29.89 9.66 29.54 9.19Q29.20 8.72 29.07 8.08Q28.94 7.44 28.94 6.67L28.94 6.67L28.94 2.48L30.91 2.48L30.91 6.42Q30.91 7.46 31.16 7.96Q31.41 8.46 32.13 8.46L32.13 8.46Q32.58 8.46 33.02 8.38L33.02 8.38L33.02 2.48L35.01 2.48ZM41.50 6.30L41.50 6.30Q41.50 5.30 41.10 4.65Q40.70 4 39.89 4L39.89 4Q39.66 4 39.41 4.02Q39.15 4.05 38.98 4.06L38.98 4.06L38.98 8.19Q39.17 8.32 39.49 8.40Q39.81 8.48 40.13 8.48L40.13 8.48Q40.83 8.48 41.17 7.91Q41.50 7.34 41.50 6.30ZM43.50 6.24L43.50 6.24Q43.50 7.10 43.31 7.83Q43.12 8.56 42.75 9.08Q42.38 9.60 41.82 9.89Q41.26 10.18 40.53 10.18L40.53 10.18Q39.78 10.18 38.98 9.81L38.98 9.81L38.98 12.64L37.01 12.64L37.01 2.72Q37.55 2.54 38.34 2.43Q39.14 2.32 39.90 2.32L39.90 2.32Q41.65 2.32 42.58 3.38Q43.50 4.43 43.50 6.24ZM48.02 8.59L48.02 8.59Q48.34 8.59 48.64 8.58Q48.94 8.58 49.17 8.54L49.17 8.54L49.17 6.82Q48.98 6.78 48.70 6.76Q48.43 6.74 48.21 6.74L48.21 6.74Q47.90 6.74 47.62 6.78Q47.33 6.82 47.11 6.91Q46.90 7.01 46.77 7.18Q46.64 7.36 46.64 7.65L46.64 7.65Q46.64 8.16 47.02 8.38Q47.41 8.59 48.02 8.59ZM47.84 2.29L47.84 2.29Q48.77 2.29 49.38 2.50Q50 2.72 50.37 3.11Q50.74 3.50 50.90 4.07Q51.06 4.64 51.06 5.34L51.06 5.34L51.06 9.82Q50.62 9.92 49.78 10.05Q48.93 10.18 47.87 10.18L47.87 10.18Q47.15 10.18 46.57 10.05Q45.98 9.92 45.57 9.62Q45.15 9.33 44.93 8.86Q44.70 8.38 44.70 7.70L44.70 7.70Q44.70 7.04 44.96 6.59Q45.22 6.14 45.65 5.87Q46.08 5.60 46.64 5.48Q47.20 5.36 47.81 5.36L47.81 5.36Q48.58 5.36 49.17 5.49L49.17 5.49L49.17 5.25Q49.17 4.69 48.82 4.31Q48.46 3.94 47.60 3.94L47.60 3.94Q47.04 3.94 46.52 4.02Q46 4.10 45.68 4.21L45.68 4.21L45.41 2.62Q45.78 2.50 46.45 2.39Q47.12 2.29 47.84 2.29ZM54.45 6.19L54.45 6.19Q54.45 7.20 54.82 7.84Q55.20 8.48 56.03 8.48L56.03 8.48Q56.27 8.48 56.48 8.46Q56.69 8.45 56.91 8.42L56.91 8.42L56.91 4.32Q56.69 4.19 56.40 4.10Q56.11 4.02 55.79 4.02L55.79 4.02Q55.09 4.02 54.77 4.58Q54.45 5.14 54.45 6.19ZM58.88-1.10L58.88 9.78Q58.34 9.95 57.55 10.06Q56.77 10.18 56.02 10.18L56.02 10.18Q54.26 10.18 53.35 9.14Q52.45 8.10 52.45 6.29L52.45 6.29Q52.45 4.45 53.21 3.38Q53.97 2.32 55.46 2.32L55.46 2.32Q55.86 2.32 56.24 2.41Q56.62 2.50 56.91 2.66L56.91 2.66L56.91-0.77L58.88-1.10Z"/>
    </g>
</svg>