<?xml version="1.0" encoding="UTF-8"?>
<svg height="322" width="163" version="1.1" xmlns="http://www.w3.org/2000/svg"><!--Created by Josélio de S. C. Júnior - 2021 - https://github.com/joseliojunior -->
    <rect
        height="32"
        width="161"
        rx="16"
        ry="16"
        x="1" y="1"
        fill="#d80074"
        stroke="#3d0021"
        stroke-width="1" />
    <g transform="translate(0, 12)">
        <path fill="#3d0021" stroke="none" d="M25.38-3.02L25.38-3.02Q28.21-3.02 29.77-1.86Q31.33-0.70 31.33 1.94L31.33 1.94Q31.33 4.61 29.76 5.80Q28.18 6.98 25.30 6.98L25.30 6.98L24.25 6.98L24.25 12L21.30 12L21.30-2.66Q21.73-2.76 22.27-2.83Q22.81-2.90 23.36-2.94Q23.91-2.98 24.44-3Q24.97-3.02 25.38-3.02ZM25.71-0.46L25.71-0.46Q25.45-0.46 24.98-0.44Q24.51-0.43 24.25-0.38L24.25-0.38L24.25 4.42L25.45 4.42Q26.86 4.42 27.58 3.85Q28.30 3.29 28.30 1.92L28.30 1.92Q28.30 0.62 27.60 0.08Q26.89-0.46 25.71-0.46ZM43.33 6.34L43.33 6.34Q43.33 7.68 42.94 8.77Q42.56 9.86 41.86 10.66Q41.17 11.45 40.20 11.88Q39.22 12.31 38.02 12.31L38.02 12.31Q36.82 12.31 35.85 11.88Q34.88 11.45 34.17 10.66Q33.46 9.86 33.08 8.77Q32.70 7.68 32.70 6.34L32.70 6.34Q32.70 5.02 33.09 3.92Q33.49 2.83 34.20 2.05Q34.90 1.27 35.89 0.85Q36.87 0.43 38.02 0.43L38.02 0.43Q39.20 0.43 40.17 0.85Q41.14 1.27 41.85 2.05Q42.56 2.83 42.94 3.92Q43.33 5.02 43.33 6.34ZM35.70 6.36L35.70 6.36Q35.70 7.87 36.24 8.81Q36.78 9.74 37.98 9.74L37.98 9.74Q39.13 9.74 39.72 8.81Q40.30 7.87 40.30 6.36L40.30 6.36Q40.30 4.85 39.76 3.92Q39.22 3 38.02 3L38.02 3Q36.87 3 36.28 3.92Q35.70 4.85 35.70 6.36ZM47.79 6L47.79 6Q47.79 7.39 48.30 8.12Q48.80 8.86 49.88 8.86L49.88 8.86Q50.36 8.86 50.78 8.74Q51.20 8.62 51.54 8.42L51.54 8.42L51.54 3Q51.20 2.93 50.94 2.90Q50.67 2.88 50.38 2.88L50.38 2.88Q47.79 2.88 47.79 6ZM54.51 1.08L54.51 10.63Q54.51 13.39 53.18 14.71Q51.85 16.03 48.90 16.03L48.90 16.03Q47.84 16.03 46.87 15.82Q45.90 15.60 45.01 15.31L45.01 15.31L45.56 12.82Q46.26 13.08 47.02 13.31Q47.79 13.54 48.94 13.54L48.94 13.54Q49.71 13.54 50.22 13.36Q50.72 13.18 51.01 12.86Q51.30 12.55 51.42 12.13Q51.54 11.71 51.54 11.23L51.54 11.23L51.54 10.78Q50.91 11.02 50.40 11.14Q49.88 11.26 49.28 11.26L49.28 11.26Q47.07 11.26 45.93 9.86Q44.79 8.47 44.79 6L44.79 6Q44.79 3.22 46.33 1.85Q47.86 0.48 50.50 0.48L50.50 0.48Q52.35 0.48 54.51 1.08L54.51 1.08ZM67.33 6.34L67.33 6.34Q67.33 7.68 66.94 8.77Q66.56 9.86 65.86 10.66Q65.17 11.45 64.20 11.88Q63.22 12.31 62.02 12.31L62.02 12.31Q60.82 12.31 59.85 11.88Q58.88 11.45 58.17 10.66Q57.46 9.86 57.08 8.77Q56.70 7.68 56.70 6.34L56.70 6.34Q56.70 5.02 57.09 3.92Q57.49 2.83 58.20 2.05Q58.90 1.27 59.89 0.85Q60.87 0.43 62.02 0.43L62.02 0.43Q63.20 0.43 64.17 0.85Q65.14 1.27 65.85 2.05Q66.56 2.83 66.94 3.92Q67.33 5.02 67.33 6.34ZM59.70 6.36L59.70 6.36Q59.70 7.87 60.24 8.81Q60.78 9.74 61.98 9.74L61.98 9.74Q63.13 9.74 63.72 8.81Q64.30 7.87 64.30 6.36L64.30 6.36Q64.30 4.85 63.76 3.92Q63.22 3 62.02 3L62.02 3Q60.87 3 60.28 3.92Q59.70 4.85 59.70 6.36ZM73.57 9.84L73.57 9.84Q74.31 9.84 74.80 9.68Q75.30 9.53 75.58 9.25Q75.87 8.98 75.98 8.63Q76.09 8.28 76.09 7.92L76.09 7.92Q76.09 7.46 75.82 7.10Q75.56 6.74 75.15 6.47Q74.74 6.19 74.24 5.96Q73.74 5.74 73.23 5.54L73.23 5.54Q72.56 5.30 71.84 4.99Q71.12 4.68 70.53 4.20Q69.94 3.72 69.56 3.01Q69.18 2.30 69.18 1.25L69.18 1.25Q69.18-0.84 70.53-2.02Q71.89-3.19 74.26-3.19L74.26-3.19Q75.63-3.19 76.65-2.88Q77.67-2.57 78.37-2.18L78.37-2.18L77.50 0.10Q76.90-0.24 76.17-0.48Q75.44-0.72 74.48-0.72L74.48-0.72Q72.13-0.72 72.13 0.98L72.13 0.98Q72.13 1.42 72.37 1.74Q72.61 2.06 72.98 2.32Q73.35 2.57 73.82 2.76Q74.29 2.95 74.74 3.12L74.74 3.12Q75.44 3.38 76.20 3.71Q76.95 4.03 77.59 4.57Q78.22 5.11 78.63 5.92Q79.04 6.72 79.04 7.94L79.04 7.94Q79.04 10.03 77.68 11.17Q76.33 12.31 73.57 12.31L73.57 12.31Q71.72 12.31 70.62 11.92Q69.51 11.52 68.96 11.18L68.96 11.18L69.82 8.78Q70.47 9.17 71.37 9.50Q72.27 9.84 73.57 9.84ZM81.06 6.36L81.06 6.36Q81.06 5.14 81.44 4.06Q81.82 2.98 82.62 2.17Q83.41 1.37 84.62 0.90Q85.83 0.43 87.51 0.43L87.51 0.43Q88.52 0.43 89.34 0.58Q90.15 0.72 90.99 1.06L90.99 1.06L90.34 3.43Q89.86 3.26 89.28 3.13Q88.69 3 87.78 3L87.78 3Q86.72 3 86.01 3.25Q85.30 3.50 84.87 3.95Q84.44 4.39 84.25 5.02Q84.06 5.64 84.06 6.36L84.06 6.36Q84.06 7.92 84.93 8.81Q85.81 9.70 87.92 9.70L87.92 9.70Q88.62 9.70 89.37 9.60Q90.13 9.50 90.75 9.29L90.75 9.29L91.18 11.71Q90.56 11.95 89.67 12.11Q88.78 12.26 87.58 12.26L87.58 12.26Q85.86 12.26 84.62 11.81Q83.38 11.35 82.59 10.56Q81.80 9.77 81.43 8.69Q81.06 7.61 81.06 6.36ZM103.02 0.98L102.49 3.72Q102.20 3.65 101.80 3.58Q101.41 3.50 101 3.44Q100.59 3.38 100.21 3.36Q99.82 3.34 99.56 3.34L99.56 3.34Q98.94 3.34 98.34 3.40Q97.74 3.46 97.11 3.62L97.11 3.62L97.11 12L94.14 12L94.14 1.46Q95.31 1.03 96.55 0.77Q97.78 0.50 99.44 0.50L99.44 0.50Q99.68 0.50 100.12 0.53Q100.57 0.55 101.07 0.61Q101.58 0.67 102.09 0.76Q102.61 0.84 103.02 0.98L103.02 0.98ZM110.82-2.52L110.82-2.52Q110.82-1.66 110.26-1.15Q109.71-0.65 108.94-0.65L108.94-0.65Q108.18-0.65 107.64-1.15Q107.10-1.66 107.10-2.52L107.10-2.52Q107.10-3.41 107.64-3.91Q108.18-4.42 108.94-4.42L108.94-4.42Q109.71-4.42 110.26-3.91Q110.82-3.41 110.82-2.52ZM114.82 9.14L115.21 11.52Q114.30 11.95 113.49 12.11Q112.69 12.26 112.02 12.26L112.02 12.26Q110.86 12.26 110.08 11.93Q109.30 11.59 108.84 10.96Q108.37 10.32 108.18 9.41Q107.98 8.50 107.98 7.32L107.98 7.32L107.98 3.17L104.86 3.17L104.86 0.72L110.94 0.72L110.94 7.70Q110.94 8.71 111.31 9.20Q111.68 9.70 112.54 9.70L112.54 9.70Q112.95 9.70 113.53 9.59Q114.10 9.48 114.82 9.14L114.82 9.14ZM124.26 6.46L124.26 6.46Q124.26 4.94 123.66 3.97Q123.06 3 121.83 3L121.83 3Q121.50 3 121.11 3.04Q120.73 3.07 120.46 3.10L120.46 3.10L120.46 9.29Q120.75 9.48 121.23 9.60Q121.71 9.72 122.19 9.72L122.19 9.72Q123.25 9.72 123.75 8.87Q124.26 8.02 124.26 6.46ZM127.26 6.36L127.26 6.36Q127.26 7.66 126.97 8.75Q126.68 9.84 126.13 10.62Q125.58 11.40 124.74 11.83Q123.90 12.26 122.79 12.26L122.79 12.26Q121.66 12.26 120.46 11.71L120.46 11.71L120.46 15.96L117.51 15.96L117.51 1.08Q118.33 0.82 119.52 0.65Q120.70 0.48 121.86 0.48L121.86 0.48Q124.47 0.48 125.86 2.06Q127.26 3.65 127.26 6.36ZM131.43 7.80L131.43 3.17L128.86 3.17L128.86 0.72L131.43 0.72L131.43-2.11L134.38-2.59L134.38 0.72L139.11 0.72L139.11 3.17L134.38 3.17L134.38 7.73Q134.38 8.35 134.50 8.74Q134.62 9.12 134.84 9.34Q135.06 9.55 135.37 9.62Q135.68 9.70 136.06 9.70L136.06 9.70Q136.47 9.70 136.82 9.67Q137.17 9.65 137.49 9.59Q137.82 9.53 138.16 9.41Q138.51 9.29 138.92 9.10L138.92 9.10L139.33 11.64Q138.51 11.98 137.56 12.12Q136.62 12.26 135.73 12.26L135.73 12.26Q134.70 12.26 133.90 12.10Q133.11 11.93 132.56 11.45Q132.01 10.97 131.72 10.09Q131.43 9.22 131.43 7.80L131.43 7.80Z"/>
    </g>
</svg>