<?xml version="1.0" encoding="UTF-8"?>
<svg height="34" width="64.3" version="1.1" xmlns="http://www.w3.org/2000/svg">
    <rect
        height="32"
        width="62.3"
        rx="14"
        ry="14"
        x="1"
        y="1"
        fill="#c30e9b"
        stroke="#34042a"
        stroke-width="1"
         />
    <g transform="translate(0, 14)">
        <path fill="#34042a" d="M23.75 11L20.05 11L19.24 7.00L14.62 7.00L13.84 11L10.25 11Q11.48 5.88 12.74 1.66Q14.00-2.55 15.18-6.33L15.18-6.33L18.93-6.33Q20.16-2.52 21.38 1.75Q22.60 6.02 23.75 11L23.75 11ZM16.97-2.97L16.97-2.97Q16.69-1.99 16.45-1.11Q16.22-0.23 16.01 0.63Q15.80 1.48 15.61 2.35Q15.43 3.22 15.26 4.14L15.26 4.14L18.65 4.14Q18.48 3.22 18.32 2.35Q18.15 1.48 17.94 0.63Q17.73-0.23 17.49-1.11Q17.25-1.99 16.97-2.97ZM35.62 11L33.02 11Q32.71 10.13 32.44 9.40Q32.18 8.68 31.94 7.99Q31.70 7.30 31.46 6.56Q31.22 5.82 30.97 4.92L30.97 4.92Q30.69 5.82 30.47 6.53Q30.24 7.25 30.01 7.95Q29.77 8.65 29.52 9.38Q29.26 10.10 28.90 11L28.90 11L26.30 11Q25.96 9.77 25.67 8.27Q25.37 6.77 25.12 5.08Q24.87 3.38 24.67 1.56Q24.48-0.26 24.31-2.16L24.31-2.16L27.25-2.16Q27.36 0.28 27.49 2.60Q27.61 4.92 27.95 7.39L27.95 7.39Q28.31 6.32 28.58 5.41Q28.84 4.50 29.05 3.68Q29.26 2.85 29.45 2.08Q29.63 1.31 29.82 0.50L29.82 0.50L32.32 0.50Q32.48 1.31 32.67 2.08Q32.85 2.85 33.06 3.68Q33.27 4.50 33.51 5.41Q33.74 6.32 34.08 7.39L34.08 7.39Q34.25 6.10 34.36 4.92Q34.47 3.75 34.54 2.59Q34.61 1.42 34.65 0.26Q34.70-0.90 34.75-2.16L34.75-2.16L37.69-2.16Q37.38 1.68 36.84 5.06Q36.29 8.45 35.62 11L35.62 11ZM43.24-8.43L43.24 3.05Q43.74 2.46 44.26 1.80Q44.78 1.14 45.27 0.44Q45.76-0.26 46.20-0.91Q46.65-1.57 46.99-2.16L46.99-2.16L51.13-2.16Q50.63-1.52 49.98-0.76Q49.34-0.00 48.65 0.78Q47.97 1.56 47.28 2.29Q46.60 3.02 46.04 3.64L46.04 3.64Q46.74 4.31 47.55 5.25Q48.36 6.18 49.14 7.19Q49.93 8.20 50.59 9.21Q51.24 10.22 51.64 11L51.64 11L47.69 11Q47.35 10.30 46.81 9.42Q46.26 8.54 45.64 7.68Q45.03 6.83 44.40 6.06Q43.77 5.29 43.24 4.78L43.24 4.78L43.24 11L39.76 11L39.76-7.84L43.24-8.43Z"/>
    </g>
</svg>