<?xml version="1.0" encoding="UTF-8"?>
<svg height="34" width="177.1" version="1.1" xmlns="http://www.w3.org/2000/svg">
    <rect
        height="32"
        width="175.1"
        rx="1"
        ry="1"
        x="1"
        y="1"
        fill="#199f4b"
        stroke="#041a0c"
        stroke-width="1"
         />
    <g transform="translate(0, 14)">
        <path fill="#041a0c" d="M18.76 11L15.21 11Q14.54 9.07 13.78 6.63Q13.02 4.20 12.35 1.77Q11.68-0.65 11.15-2.80Q10.62-4.96 10.36-6.33L10.36-6.33L14.00-6.33Q14.17-4.99 14.51-3.21Q14.84-1.43 15.25 0.46Q15.66 2.35 16.12 4.18Q16.58 6.02 17.03 7.47L17.03 7.47Q17.48 6.04 17.92 4.21Q18.37 2.38 18.76 0.49Q19.16-1.40 19.49-3.20Q19.83-4.99 20.05-6.33L20.05-6.33L23.66-6.33Q23.33-4.65 22.84-2.58Q22.35-0.51 21.72 1.77Q21.09 4.06 20.33 6.42Q19.58 8.79 18.76 11L18.76 11ZM31.95-5.94L31.95-5.94Q31.95-4.93 31.31-4.34Q30.66-3.76 29.77-3.76L29.77-3.76Q28.87-3.76 28.24-4.34Q27.61-4.93 27.61-5.94L27.61-5.94Q27.61-6.98 28.24-7.56Q28.87-8.15 29.77-8.15L29.77-8.15Q30.66-8.15 31.31-7.56Q31.95-6.98 31.95-5.94ZM36.63 7.67L37.08 10.44Q36.01 10.94 35.07 11.13Q34.14 11.31 33.35 11.31L33.35 11.31Q32.01 11.31 31.10 10.92Q30.19 10.52 29.64 9.78Q29.10 9.04 28.87 7.98Q28.65 6.91 28.65 5.54L28.65 5.54L28.65 0.70L25.01 0.70L25.01-2.16L32.09-2.16L32.09 5.99Q32.09 7.16 32.53 7.74Q32.96 8.31 33.97 8.31L33.97 8.31Q34.44 8.31 35.12 8.19Q35.79 8.06 36.63 7.67L36.63 7.67ZM47.60-2.30L47.60-2.30Q48.70-2.30 49.40-1.96Q50.10-1.63 50.50-0.96Q50.91-0.28 51.05 0.74Q51.19 1.76 51.19 3.13L51.19 3.13L51.19 11L48.39 11L48.39 2.96Q48.39 2.18 48.29 1.70Q48.19 1.23 48.04 0.98Q47.88 0.72 47.67 0.64Q47.46 0.56 47.24 0.56L47.24 0.56Q46.99 0.56 46.71 0.60Q46.43 0.64 46.20 0.75L46.20 0.75Q46.29 1.28 46.34 1.93Q46.40 2.57 46.40 3.36L46.40 3.36L46.40 5.99L43.60 5.99L43.60 2.96Q43.60 1.62 43.33 1.09Q43.07 0.56 42.48 0.56L42.48 0.56Q42.31 0.56 42.07 0.58Q41.84 0.61 41.61 0.67L41.61 0.67L41.61 11L38.81 11L38.81-1.66Q39.90-1.96 40.97-2.13Q42.03-2.30 42.84-2.30L42.84-2.30Q43.57-2.30 44.15-2.12Q44.72-1.94 45.14-1.52L45.14-1.52Q45.62-1.82 46.26-2.06Q46.90-2.30 47.60-2.30ZM72.50 8.48L72.50 8.48Q73.36 8.48 73.94 8.30Q74.51 8.12 74.85 7.79Q75.18 7.47 75.31 7.07Q75.44 6.66 75.44 6.24L75.44 6.24Q75.44 5.71 75.13 5.29Q74.82 4.87 74.34 4.55Q73.87 4.22 73.28 3.96Q72.69 3.69 72.10 3.47L72.10 3.47Q71.32 3.19 70.48 2.82Q69.64 2.46 68.95 1.90Q68.27 1.34 67.82 0.51Q67.37-0.31 67.37-1.54L67.37-1.54Q67.37-3.98 68.95-5.35Q70.54-6.72 73.31-6.72L73.31-6.72Q74.90-6.72 76.09-6.36Q77.28-6.00 78.10-5.55L78.10-5.55L77.09-2.89Q76.39-3.28 75.53-3.56Q74.68-3.84 73.56-3.84L73.56-3.84Q70.82-3.84 70.82-1.85L70.82-1.85Q70.82-1.35 71.10-0.97Q71.38-0.59 71.81-0.30Q72.24-0.00 72.79 0.22Q73.34 0.44 73.87 0.64L73.87 0.64Q74.68 0.95 75.56 1.33Q76.44 1.70 77.19 2.33Q77.93 2.96 78.40 3.90Q78.88 4.84 78.88 6.27L78.88 6.27Q78.88 8.70 77.30 10.03Q75.72 11.36 72.50 11.36L72.50 11.36Q70.34 11.36 69.05 10.90Q67.76 10.44 67.12 10.05L67.12 10.05L68.13 7.25Q68.88 7.70 69.93 8.09Q70.98 8.48 72.50 8.48ZM81.76 11L81.76-1.74Q82.69-1.99 84.05-2.22Q85.40-2.44 87-2.44L87-2.44Q88.57-2.44 89.60-2.01Q90.64-1.57 91.24-0.77Q91.84 0.02 92.10 1.13Q92.35 2.24 92.35 3.58L92.35 3.58L92.35 11L88.90 11L88.90 4.03Q88.90 2.18 88.48 1.37Q88.06 0.56 86.78 0.56L86.78 0.56Q86.38 0.56 86.01 0.58Q85.63 0.61 85.21 0.67L85.21 0.67L85.21 11L81.76 11ZM101.95-5.94L101.95-5.94Q101.95-4.93 101.31-4.34Q100.66-3.76 99.77-3.76L99.77-3.76Q98.87-3.76 98.24-4.34Q97.61-4.93 97.61-5.94L97.61-5.94Q97.61-6.98 98.24-7.56Q98.87-8.15 99.77-8.15L99.77-8.15Q100.66-8.15 101.31-7.56Q101.95-6.98 101.95-5.94ZM106.63 7.67L107.08 10.44Q106.01 10.94 105.07 11.13Q104.14 11.31 103.35 11.31L103.35 11.31Q102.01 11.31 101.10 10.92Q100.19 10.52 99.64 9.78Q99.10 9.04 98.87 7.98Q98.65 6.91 98.65 5.54L98.65 5.54L98.65 0.70L95.01 0.70L95.01-2.16L102.09-2.16L102.09 5.99Q102.09 7.16 102.53 7.74Q102.96 8.31 103.97 8.31L103.97 8.31Q104.44 8.31 105.12 8.19Q105.79 8.06 106.63 7.67L106.63 7.67ZM117.63 4.53L117.63 4.53Q117.63 2.77 116.93 1.63Q116.23 0.50 114.80 0.50L114.80 0.50Q114.41 0.50 113.96 0.54Q113.52 0.58 113.21 0.61L113.21 0.61L113.21 7.84Q113.54 8.06 114.10 8.20Q114.66 8.34 115.22 8.34L115.22 8.34Q116.46 8.34 117.04 7.35Q117.63 6.35 117.63 4.53ZM121.13 4.42L121.13 4.42Q121.13 5.93 120.80 7.21Q120.46 8.48 119.82 9.39Q119.17 10.30 118.19 10.80Q117.21 11.31 115.92 11.31L115.92 11.31Q114.61 11.31 113.21 10.66L113.21 10.66L113.21 15.62L109.76 15.62L109.76-1.74Q110.72-2.05 112.10-2.24Q113.49-2.44 114.83-2.44L114.83-2.44Q117.88-2.44 119.51-0.59Q121.13 1.26 121.13 4.42ZM131.63 4.53L131.63 4.53Q131.63 2.77 130.93 1.63Q130.23 0.50 128.80 0.50L128.80 0.50Q128.41 0.50 127.96 0.54Q127.52 0.58 127.21 0.61L127.21 0.61L127.21 7.84Q127.54 8.06 128.10 8.20Q128.66 8.34 129.22 8.34L129.22 8.34Q130.46 8.34 131.04 7.35Q131.63 6.35 131.63 4.53ZM135.13 4.42L135.13 4.42Q135.13 5.93 134.80 7.21Q134.46 8.48 133.82 9.39Q133.17 10.30 132.19 10.80Q131.21 11.31 129.92 11.31L129.92 11.31Q128.61 11.31 127.21 10.66L127.21 10.66L127.21 15.62L123.76 15.62L123.76-1.74Q124.72-2.05 126.10-2.24Q127.49-2.44 128.83-2.44L128.83-2.44Q131.88-2.44 133.51-0.59Q135.13 1.26 135.13 4.42ZM136.87 4.53L136.87 4.53Q136.87 2.80 137.40 1.48Q137.93 0.16 138.80-0.72Q139.67-1.60 140.79-2.05Q141.91-2.50 143.08-2.50L143.08-2.50Q146.00-2.50 147.51-0.77Q149.02 0.95 149.02 4.25L149.02 4.25Q149.02 4.59 149.01 4.95Q148.99 5.32 148.96 5.54L148.96 5.54L140.42 5.54Q140.42 6.83 141.49 7.57Q142.55 8.31 144.23 8.31L144.23 8.31Q145.27 8.31 146.21 8.09Q147.14 7.86 147.79 7.64L147.79 7.64L148.26 10.58Q147.37 10.89 146.36 11.10Q145.35 11.31 144.09 11.31L144.09 11.31Q142.41 11.31 141.08 10.87Q139.75 10.44 138.81 9.59Q137.88 8.73 137.37 7.47Q136.87 6.21 136.87 4.53ZM140.42 3.16L145.69 3.16Q145.69 2.63 145.55 2.14Q145.41 1.65 145.10 1.26Q144.79 0.86 144.32 0.63Q143.84 0.39 143.14 0.39L143.14 0.39Q142.47 0.39 141.98 0.61Q141.49 0.84 141.17 1.23Q140.84 1.62 140.66 2.12Q140.48 2.63 140.42 3.16L140.42 3.16ZM154.00 6.10L154.00 0.70L151.01 0.70L151.01-2.16L154.00-2.16L154.00-5.46L157.45-6.02L157.45-2.16L162.96-2.16L162.96 0.70L157.45 0.70L157.45 6.02Q157.45 6.74 157.59 7.19Q157.73 7.64 157.98 7.89Q158.23 8.14 158.60 8.23Q158.96 8.31 159.41 8.31L159.41 8.31Q159.88 8.31 160.29 8.28Q160.70 8.26 161.07 8.19Q161.45 8.12 161.86 7.98Q162.26 7.84 162.74 7.61L162.74 7.61L163.22 10.58Q162.26 10.97 161.16 11.14Q160.05 11.31 159.02 11.31L159.02 11.31Q157.81 11.31 156.89 11.11Q155.96 10.92 155.32 10.36Q154.68 9.80 154.34 8.77Q154.00 7.75 154.00 6.10L154.00 6.10Z"/>
    </g>
</svg>