<?xml version="1.0" encoding="UTF-8"?>
<svg height="34" width="289.9" version="1.1" xmlns="http://www.w3.org/2000/svg">
    <rect
        height="32"
        width="287.9"
        rx="14"
        ry="14"
        x="1"
        y="1"
        fill="#4298b8"
        stroke="#1a3b47"
        stroke-width="1"
         />
    <g transform="translate(0, 14)">
        <path fill="#1a3b47" d="M18.74-3.73L18.74-3.73Q17.50-3.73 16.66-3.28Q15.82-2.83 15.28-2.03Q14.73-1.24 14.49-0.13Q14.26 0.98 14.26 2.32L14.26 2.32Q14.26 5.43 15.24 6.90Q16.22 8.37 18.12 8.37L18.12 8.37Q18.43 8.37 18.79 8.34Q19.16 8.31 19.46 8.26L19.46 8.26L19.46 1.93L22.91 1.93L22.91 10.58Q22.29 10.80 20.99 11.08Q19.69 11.36 17.84 11.36L17.84 11.36Q16.22 11.36 14.91 10.79Q13.61 10.22 12.69 9.08Q11.76 7.95 11.26 6.25Q10.76 4.56 10.76 2.32L10.76 2.32Q10.76 0.11 11.34-1.59Q11.93-3.28 12.94-4.43Q13.95-5.58 15.32-6.15Q16.69-6.72 18.26-6.72L18.26-6.72Q19.27-6.72 20.07-6.57Q20.86-6.42 21.45-6.22Q22.04-6.02 22.42-5.80Q22.80-5.58 22.99-5.46L22.99-5.46L22.10-2.72Q21.48-3.11 20.58-3.42Q19.69-3.73 18.74-3.73ZM36.85-1.85L36.24 1.34Q35.90 1.26 35.44 1.17Q34.98 1.09 34.50 1.02Q34.02 0.95 33.58 0.92Q33.13 0.89 32.82 0.89L32.82 0.89Q32.09 0.89 31.39 0.96Q30.69 1.03 29.96 1.23L29.96 1.23L29.96 11L26.49 11L26.49-1.29Q27.86-1.80 29.31-2.10Q30.75-2.41 32.68-2.41L32.68-2.41Q32.96-2.41 33.48-2.38Q34.00-2.36 34.58-2.29Q35.17-2.22 35.77-2.12Q36.38-2.02 36.85-1.85L36.85-1.85ZM51.22 4.39L51.22 4.39Q51.22 5.96 50.77 7.23Q50.32 8.51 49.51 9.43Q48.70 10.36 47.56 10.86Q46.43 11.36 45.03 11.36L45.03 11.36Q43.63 11.36 42.49 10.86Q41.36 10.36 40.53 9.43Q39.71 8.51 39.26 7.23Q38.81 5.96 38.81 4.39L38.81 4.39Q38.81 2.85 39.27 1.58Q39.74 0.30 40.56-0.61Q41.39-1.52 42.54-2.01Q43.68-2.50 45.03-2.50L45.03-2.50Q46.40-2.50 47.53-2.01Q48.67-1.52 49.49-0.61Q50.32 0.30 50.77 1.58Q51.22 2.85 51.22 4.39ZM42.31 4.42L42.31 4.42Q42.31 6.18 42.94 7.28Q43.57 8.37 44.97 8.37L44.97 8.37Q46.32 8.37 47.00 7.28Q47.69 6.18 47.69 4.42L47.69 4.42Q47.69 2.66 47.06 1.58Q46.43 0.50 45.03 0.50L45.03 0.50Q43.68 0.50 43.00 1.58Q42.31 2.66 42.31 4.42ZM65.22 4.39L65.22 4.39Q65.22 5.96 64.77 7.23Q64.32 8.51 63.51 9.43Q62.70 10.36 61.56 10.86Q60.43 11.36 59.03 11.36L59.03 11.36Q57.63 11.36 56.49 10.86Q55.36 10.36 54.53 9.43Q53.71 8.51 53.26 7.23Q52.81 5.96 52.81 4.39L52.81 4.39Q52.81 2.85 53.27 1.58Q53.74 0.30 54.56-0.61Q55.39-1.52 56.54-2.01Q57.68-2.50 59.03-2.50L59.03-2.50Q60.40-2.50 61.53-2.01Q62.67-1.52 63.49-0.61Q64.32 0.30 64.77 1.58Q65.22 2.85 65.22 4.39ZM56.31 4.42L56.31 4.42Q56.31 6.18 56.94 7.28Q57.57 8.37 58.97 8.37L58.97 8.37Q60.32 8.37 61.00 7.28Q61.69 6.18 61.69 4.42L61.69 4.42Q61.69 2.66 61.06 1.58Q60.43 0.50 59.03 0.50L59.03 0.50Q57.68 0.50 57.00 1.58Q56.31 2.66 56.31 4.42ZM74.32 11L71.43 11Q70.17 8.51 68.87 5.16Q67.57 1.82 66.39-2.16L66.39-2.16L70.00-2.16Q70.26-1.10 70.61 0.11Q70.96 1.31 71.35 2.53Q71.74 3.75 72.15 4.90Q72.55 6.04 72.92 7.00L72.92 7.00Q73.28 6.04 73.73 4.90Q74.18 3.75 74.61 2.53Q75.04 1.31 75.45 0.11Q75.86-1.10 76.11-2.16L76.11-2.16L79.61-2.16Q78.43 1.82 77.00 5.16Q75.58 8.51 74.32 11L74.32 11ZM89.69-2.16L93.22-2.16Q92.68-0.31 92.19 1.47Q91.70 3.24 91.17 4.94Q90.64 6.63 90.04 8.26Q89.44 9.88 88.74 11.42L88.74 11.42Q88.20 12.54 87.69 13.35Q87.17 14.16 86.54 14.68Q85.91 15.20 85.14 15.45Q84.37 15.70 83.33 15.70L83.33 15.70Q82.46 15.70 81.75 15.56Q81.04 15.42 80.56 15.20L80.56 15.20L81.20 12.32Q81.76 12.57 82.20 12.67Q82.63 12.76 83.14 12.76L83.14 12.76Q84.14 12.76 84.76 12.09Q85.38 11.42 85.74 10.50L85.74 10.50Q84.51 8.03 83.28 4.85Q82.04 1.68 81.04-2.16L81.04-2.16L84.62-2.16Q84.87-1.12 85.19 0.05Q85.52 1.23 85.88 2.40Q86.24 3.58 86.65 4.71Q87.06 5.85 87.48 6.83L87.48 6.83Q87.76 5.85 88.06 4.71Q88.37 3.58 88.65 2.42Q88.93 1.26 89.20 0.08Q89.46-1.10 89.69-2.16L89.69-2.16ZM114.50 8.48L114.50 8.48Q115.36 8.48 115.94 8.30Q116.51 8.12 116.85 7.79Q117.18 7.47 117.31 7.07Q117.44 6.66 117.44 6.24L117.44 6.24Q117.44 5.71 117.13 5.29Q116.82 4.87 116.34 4.55Q115.87 4.22 115.28 3.96Q114.69 3.69 114.10 3.47L114.10 3.47Q113.32 3.19 112.48 2.82Q111.64 2.46 110.95 1.90Q110.27 1.34 109.82 0.51Q109.37-0.31 109.37-1.54L109.37-1.54Q109.37-3.98 110.95-5.35Q112.54-6.72 115.31-6.72L115.31-6.72Q116.90-6.72 118.09-6.36Q119.28-6.00 120.10-5.55L120.10-5.55L119.09-2.89Q118.39-3.28 117.53-3.56Q116.68-3.84 115.56-3.84L115.56-3.84Q112.82-3.84 112.82-1.85L112.82-1.85Q112.82-1.35 113.10-0.97Q113.38-0.59 113.81-0.30Q114.24-0.00 114.79 0.22Q115.34 0.44 115.87 0.64L115.87 0.64Q116.68 0.95 117.56 1.33Q118.44 1.70 119.19 2.33Q119.93 2.96 120.40 3.90Q120.88 4.84 120.88 6.27L120.88 6.27Q120.88 8.70 119.30 10.03Q117.72 11.36 114.50 11.36L114.50 11.36Q112.34 11.36 111.05 10.90Q109.76 10.44 109.12 10.05L109.12 10.05L110.13 7.25Q110.88 7.70 111.93 8.09Q112.98 8.48 114.50 8.48ZM122.87 4.53L122.87 4.53Q122.87 2.80 123.40 1.48Q123.93 0.16 124.80-0.72Q125.67-1.60 126.79-2.05Q127.91-2.50 129.08-2.50L129.08-2.50Q132.00-2.50 133.51-0.77Q135.02 0.95 135.02 4.25L135.02 4.25Q135.02 4.59 135.01 4.95Q134.99 5.32 134.96 5.54L134.96 5.54L126.42 5.54Q126.42 6.83 127.49 7.57Q128.55 8.31 130.23 8.31L130.23 8.31Q131.27 8.31 132.21 8.09Q133.14 7.86 133.79 7.64L133.79 7.64L134.26 10.58Q133.37 10.89 132.36 11.10Q131.35 11.31 130.09 11.31L130.09 11.31Q128.41 11.31 127.08 10.87Q125.75 10.44 124.81 9.59Q123.88 8.73 123.37 7.47Q122.87 6.21 122.87 4.53ZM126.42 3.16L131.69 3.16Q131.69 2.63 131.55 2.14Q131.41 1.65 131.10 1.26Q130.79 0.86 130.32 0.63Q129.84 0.39 129.14 0.39L129.14 0.39Q128.47 0.39 127.98 0.61Q127.49 0.84 127.17 1.23Q126.84 1.62 126.66 2.12Q126.48 2.63 126.42 3.16L126.42 3.16ZM148.85-1.85L148.24 1.34Q147.90 1.26 147.44 1.17Q146.98 1.09 146.50 1.02Q146.02 0.95 145.58 0.92Q145.13 0.89 144.82 0.89L144.82 0.89Q144.09 0.89 143.39 0.96Q142.69 1.03 141.96 1.23L141.96 1.23L141.96 11L138.49 11L138.49-1.29Q139.86-1.80 141.31-2.10Q142.75-2.41 144.68-2.41L144.68-2.41Q144.96-2.41 145.48-2.38Q146.00-2.36 146.58-2.29Q147.17-2.22 147.77-2.12Q148.38-2.02 148.85-1.85L148.85-1.85ZM158.32 11L155.43 11Q154.17 8.51 152.87 5.16Q151.57 1.82 150.39-2.16L150.39-2.16L154.00-2.16Q154.26-1.10 154.61 0.11Q154.96 1.31 155.35 2.53Q155.74 3.75 156.15 4.90Q156.55 6.04 156.92 7.00L156.92 7.00Q157.28 6.04 157.73 4.90Q158.18 3.75 158.61 2.53Q159.04 1.31 159.45 0.11Q159.86-1.10 160.11-2.16L160.11-2.16L163.61-2.16Q162.43 1.82 161.00 5.16Q159.58 8.51 158.32 11L158.32 11ZM164.87 4.53L164.87 4.53Q164.87 2.80 165.40 1.48Q165.93 0.16 166.80-0.72Q167.67-1.60 168.79-2.05Q169.91-2.50 171.08-2.50L171.08-2.50Q174.00-2.50 175.51-0.77Q177.02 0.95 177.02 4.25L177.02 4.25Q177.02 4.59 177.01 4.95Q176.99 5.32 176.96 5.54L176.96 5.54L168.42 5.54Q168.42 6.83 169.49 7.57Q170.55 8.31 172.23 8.31L172.23 8.31Q173.27 8.31 174.21 8.09Q175.14 7.86 175.79 7.64L175.79 7.64L176.26 10.58Q175.37 10.89 174.36 11.10Q173.35 11.31 172.09 11.31L172.09 11.31Q170.41 11.31 169.08 10.87Q167.75 10.44 166.81 9.59Q165.88 8.73 165.37 7.47Q164.87 6.21 164.87 4.53ZM168.42 3.16L173.69 3.16Q173.69 2.63 173.55 2.14Q173.41 1.65 173.10 1.26Q172.79 0.86 172.32 0.63Q171.84 0.39 171.14 0.39L171.14 0.39Q170.47 0.39 169.98 0.61Q169.49 0.84 169.17 1.23Q168.84 1.62 168.66 2.12Q168.48 2.63 168.42 3.16L168.42 3.16ZM190.85-1.85L190.24 1.34Q189.90 1.26 189.44 1.17Q188.98 1.09 188.50 1.02Q188.02 0.95 187.58 0.92Q187.13 0.89 186.82 0.89L186.82 0.89Q186.09 0.89 185.39 0.96Q184.69 1.03 183.96 1.23L183.96 1.23L183.96 11L180.49 11L180.49-1.29Q181.86-1.80 183.31-2.10Q184.75-2.41 186.68-2.41L186.68-2.41Q186.96-2.41 187.48-2.38Q188.00-2.36 188.58-2.29Q189.17-2.22 189.77-2.12Q190.38-2.02 190.85-1.85L190.85-1.85ZM212.27-6.53L212.27-6.53Q215.58-6.53 217.40-5.17Q219.22-3.81 219.22-0.73L219.22-0.73Q219.22 2.38 217.38 3.76Q215.55 5.15 212.19 5.15L212.19 5.15L210.96 5.15L210.96 11L207.51 11L207.51-6.11Q208.02-6.22 208.65-6.30Q209.28-6.39 209.92-6.43Q210.56-6.47 211.18-6.50Q211.80-6.53 212.27-6.53ZM212.66-3.53L212.66-3.53Q212.36-3.53 211.81-3.52Q211.26-3.50 210.96-3.45L210.96-3.45L210.96 2.15L212.36 2.15Q214.01 2.15 214.85 1.49Q215.69 0.84 215.69-0.76L215.69-0.76Q215.69-2.27 214.86-2.90Q214.04-3.53 212.66-3.53ZM227.03 8.54L227.03 8.54Q227.59 8.54 228.12 8.52Q228.65 8.51 229.04 8.45L229.04 8.45L229.04 5.43Q228.71 5.37 228.23 5.33Q227.76 5.29 227.36 5.29L227.36 5.29Q226.83 5.29 226.33 5.36Q225.82 5.43 225.45 5.60Q225.07 5.76 224.84 6.07Q224.62 6.38 224.62 6.88L224.62 6.88Q224.62 7.78 225.29 8.16Q225.96 8.54 227.03 8.54ZM226.72-2.50L226.72-2.50Q228.34-2.50 229.42-2.12Q230.50-1.74 231.14-1.05Q231.79-0.37 232.07 0.63Q232.35 1.62 232.35 2.85L232.35 2.85L232.35 10.69Q231.59 10.86 230.11 11.08Q228.62 11.31 226.78 11.31L226.78 11.31Q225.52 11.31 224.49 11.08Q223.47 10.86 222.74 10.34Q222.02 9.82 221.62 9.00Q221.23 8.17 221.23 6.97L221.23 6.97Q221.23 5.82 221.68 5.04Q222.13 4.25 222.88 3.78Q223.64 3.30 224.62 3.09Q225.60 2.88 226.66 2.88L226.66 2.88Q228.01 2.88 229.04 3.10L229.04 3.10L229.04 2.68Q229.04 1.70 228.43 1.05Q227.81 0.39 226.30 0.39L226.30 0.39Q225.32 0.39 224.41 0.53Q223.50 0.67 222.94 0.86L222.94 0.86L222.46-1.91Q223.11-2.13 224.28-2.31Q225.46-2.50 226.72-2.50ZM238.42 4L238.42 4Q238.42 5.62 239.01 6.48Q239.60 7.33 240.86 7.33L240.86 7.33Q241.42 7.33 241.91 7.19Q242.40 7.05 242.79 6.83L242.79 6.83L242.79 0.50Q242.40 0.42 242.09 0.39Q241.78 0.36 241.45 0.36L241.45 0.36Q238.42 0.36 238.42 4ZM246.26-1.74L246.26 9.40Q246.26 12.62 244.71 14.16Q243.16 15.70 239.71 15.70L239.71 15.70Q238.48 15.70 237.35 15.45Q236.21 15.20 235.18 14.86L235.18 14.86L235.82 11.95Q236.63 12.26 237.53 12.53Q238.42 12.79 239.77 12.79L239.77 12.79Q240.66 12.79 241.25 12.58Q241.84 12.37 242.18 12.01Q242.51 11.64 242.65 11.15Q242.79 10.66 242.79 10.10L242.79 10.10L242.79 9.57Q242.06 9.85 241.46 9.99Q240.86 10.13 240.16 10.13L240.16 10.13Q237.58 10.13 236.25 8.51Q234.92 6.88 234.92 4L234.92 4Q234.92 0.75 236.72-0.84Q238.51-2.44 241.59-2.44L241.59-2.44Q243.74-2.44 246.26-1.74L246.26-1.74ZM248.87 4.53L248.87 4.53Q248.87 2.80 249.40 1.48Q249.93 0.16 250.80-0.72Q251.67-1.60 252.79-2.05Q253.91-2.50 255.08-2.50L255.08-2.50Q258.00-2.50 259.51-0.77Q261.02 0.95 261.02 4.25L261.02 4.25Q261.02 4.59 261.01 4.95Q260.99 5.32 260.96 5.54L260.96 5.54L252.42 5.54Q252.42 6.83 253.49 7.57Q254.55 8.31 256.23 8.31L256.23 8.31Q257.27 8.31 258.21 8.09Q259.14 7.86 259.79 7.64L259.79 7.64L260.26 10.58Q259.37 10.89 258.36 11.10Q257.35 11.31 256.09 11.31L256.09 11.31Q254.41 11.31 253.08 10.87Q251.75 10.44 250.81 9.59Q249.88 8.73 249.37 7.47Q248.87 6.21 248.87 4.53ZM252.42 3.16L257.69 3.16Q257.69 2.63 257.55 2.14Q257.41 1.65 257.10 1.26Q256.79 0.86 256.32 0.63Q255.84 0.39 255.14 0.39L255.14 0.39Q254.47 0.39 253.98 0.61Q253.49 0.84 253.17 1.23Q252.84 1.62 252.66 2.12Q252.48 2.63 252.42 3.16L252.42 3.16ZM268.38 8.40L268.38 8.40Q269.64 8.40 270.32 8.21Q270.99 8.03 270.99 7.47L270.99 7.47Q270.99 7.11 270.78 6.86Q270.57 6.60 270.19 6.42Q269.81 6.24 269.32 6.07Q268.83 5.90 268.30 5.74L268.30 5.74Q267.54 5.51 266.76 5.22Q265.98 4.92 265.33 4.48Q264.69 4.03 264.27 3.34Q263.85 2.66 263.85 1.62L263.85 1.62Q263.85 0.78 264.17 0.04Q264.49-0.70 265.18-1.28Q265.86-1.85 266.93-2.17Q267.99-2.50 269.48-2.50L269.48-2.50Q270.76-2.50 271.87-2.30Q272.98-2.10 273.79-1.74L273.79-1.74L273.26 1.17Q272.78 1.03 271.77 0.71Q270.76 0.39 269.50 0.39L269.50 0.39Q268.19 0.39 267.73 0.71Q267.26 1.03 267.26 1.40L267.26 1.40Q267.26 1.70 267.47 1.94Q267.68 2.18 268.03 2.38Q268.38 2.57 268.85 2.75Q269.31 2.94 269.84 3.10L269.84 3.10Q270.60 3.36 271.41 3.66Q272.22 3.97 272.88 4.43Q273.54 4.90 273.96 5.61Q274.38 6.32 274.38 7.36L274.38 7.36Q274.38 8.17 274.07 8.90Q273.76 9.63 273.05 10.16Q272.33 10.69 271.18 11Q270.04 11.31 268.36 11.31L268.36 11.31Q266.65 11.31 265.44 10.92Q264.24 10.52 263.51 10.22L263.51 10.22L264.04 7.33Q265.02 7.72 266.13 8.06Q267.24 8.40 268.38 8.40Z"/>
    </g>
</svg>