<?xml version="1.0" encoding="UTF-8"?><svg height="26" width="82.5" version="1.1" xmlns="http://www.w3.org/2000/svg"><!--Created by Josélio de S. C. Júnior - 2021 - https://github.com/joseliojunior --><rect height="24" width="80.5" rx="1" ry="1" x="1" y="1" fill="#E4E6F3" stroke="#333b71" stroke-width="1" /><g transform="translate(0, 8)"><path fill="#333b71" d="M24.74 10.21L24.74 10.21Q22.64 10.21 21.54 8.86Q20.43 7.52 20.43 5.04L20.43 5.04Q20.43 3.81 20.77 2.85Q21.10 1.89 21.70 1.22Q22.30 0.56 23.13 0.22Q23.95-0.13 24.93-0.13L24.93-0.13Q25.46-0.13 25.88-0.04Q26.30 0.05 26.62 0.16Q26.94 0.27 27.16 0.40Q27.38 0.53 27.49 0.59L27.49 0.59L26.98 2.16Q26.61 1.92 26.09 1.75Q25.57 1.58 24.90 1.58L24.90 1.58Q24.43 1.58 23.99 1.75Q23.55 1.92 23.21 2.31Q22.86 2.70 22.65 3.36Q22.43 4.02 22.43 4.99L22.43 4.99Q22.43 6.69 23.02 7.59Q23.60 8.50 24.93 8.50L24.93 8.50Q25.70 8.50 26.20 8.32Q26.70 8.14 27.01 7.97L27.01 7.97L27.50 9.52Q27.09 9.78 26.38 9.99Q25.66 10.21 24.74 10.21ZM35.22 8.10L35.47 9.68Q35.42 9.71 35.26 9.79Q35.09 9.87 34.82 9.96Q34.54 10.05 34.15 10.11Q33.76 10.18 33.26 10.18L33.26 10.18Q31.90 10.18 31.28 9.37Q30.66 8.56 30.66 7.01L30.66 7.01L30.66 0.62L28.58 0.62L28.58-1.01L32.62-1.01L32.62 7.15Q32.62 7.92 32.93 8.19Q33.23 8.46 33.70 8.46L33.70 8.46Q34.29 8.46 34.69 8.30Q35.09 8.14 35.22 8.10L35.22 8.10ZM40.54 0.32L40.54 0.32Q40.54 0.90 40.18 1.23Q39.81 1.57 39.30 1.57L39.30 1.57Q38.78 1.57 38.42 1.23Q38.06 0.90 38.06 0.32L38.06 0.32Q38.06-0.27 38.42-0.61Q38.78-0.94 39.30-0.94L39.30-0.94Q39.81-0.94 40.18-0.61Q40.54-0.27 40.54 0.32ZM43.22 8.10L43.47 9.68Q42.86 9.97 42.33 10.07Q41.79 10.18 41.34 10.18L41.34 10.18Q40.58 10.18 40.06 9.95Q39.54 9.73 39.22 9.30Q38.91 8.88 38.78 8.27Q38.66 7.66 38.66 6.88L38.66 6.88L38.66 4.11L36.58 4.11L36.58 2.48L40.62 2.48L40.62 7.14Q40.62 7.81 40.87 8.14Q41.12 8.46 41.70 8.46L41.70 8.46Q41.97 8.46 42.35 8.39Q42.74 8.32 43.22 8.10L43.22 8.10ZM44.70 6.24L44.70 6.24Q44.70 5.42 44.96 4.70Q45.22 3.98 45.74 3.45Q46.27 2.91 47.08 2.60Q47.89 2.29 49.01 2.29L49.01 2.29Q49.68 2.29 50.22 2.38Q50.77 2.48 51.33 2.70L51.33 2.70L50.90 4.29Q50.58 4.18 50.18 4.09Q49.79 4 49.18 4L49.18 4Q48.48 4 48.01 4.17Q47.54 4.34 47.25 4.63Q46.96 4.93 46.83 5.34Q46.70 5.76 46.70 6.24L46.70 6.24Q46.70 7.28 47.29 7.87Q47.87 8.46 49.28 8.46L49.28 8.46Q49.74 8.46 50.25 8.40Q50.75 8.34 51.17 8.19L51.17 8.19L51.46 9.81Q51.04 9.97 50.45 10.07Q49.86 10.18 49.06 10.18L49.06 10.18Q47.90 10.18 47.08 9.87Q46.26 9.57 45.73 9.04Q45.20 8.51 44.95 7.79Q44.70 7.07 44.70 6.24ZM54.99-1.10L54.99 5.46Q55.28 5.12 55.58 4.74Q55.87 4.37 56.15 3.97Q56.43 3.57 56.69 3.19Q56.94 2.82 57.14 2.48L57.14 2.48L59.50 2.48Q59.22 2.85 58.85 3.28Q58.48 3.71 58.09 4.16Q57.70 4.61 57.30 5.02Q56.91 5.44 56.59 5.79L56.59 5.79Q56.99 6.18 57.46 6.71Q57.92 7.25 58.37 7.82Q58.82 8.40 59.19 8.98Q59.57 9.55 59.79 10L59.79 10L57.54 10Q57.34 9.60 57.03 9.10Q56.72 8.59 56.37 8.10Q56.02 7.62 55.66 7.18Q55.30 6.74 54.99 6.45L54.99 6.45L54.99 10L53.01 10L53.01-0.77L54.99-1.10Z"/></g></svg>