<?xml version="1.0" encoding="UTF-8"?>
<svg height="34" width="191.2" version="1.1" xmlns="http://www.w3.org/2000/svg">
    <rect
        height="32"
        width="189.2"
        rx="14"
        ry="14"
        x="1"
        y="1"
        fill="#ecdebe"
        stroke="#ae8932"
        stroke-width="1"
         />
    <g transform="translate(0, 14)">
        <path fill="#ae8932" d="M15.99-6.53L15.99-6.53Q17.48-6.53 18.68-6.19Q19.88-5.86 20.75-5.16Q21.62-4.46 22.08-3.38Q22.54-2.30 22.54-0.84L22.54-0.84Q22.54 0.67 21.93 1.90Q21.31 3.13 19.88 3.78L19.88 3.78Q20.36 4.50 20.89 5.39Q21.42 6.27 21.93 7.23Q22.43 8.20 22.89 9.17Q23.36 10.13 23.69 11L23.69 11L20.08 11Q19.44 9.32 18.58 7.77Q17.73 6.21 16.75 4.62L16.75 4.62L14.96 4.62L14.96 11L11.51 11L11.51-6.08Q12.02-6.19 12.62-6.29Q13.22-6.39 13.84-6.43Q14.45-6.47 15.01-6.50Q15.57-6.53 15.99-6.53ZM19.04-0.87L19.04-0.87Q19.04-2.24 18.20-2.89Q17.36-3.53 15.99-3.53L15.99-3.53Q15.80-3.53 15.52-3.52Q15.24-3.50 14.96-3.45L14.96-3.45L14.96 1.76L15.71 1.76Q17.48 1.76 18.26 1.07Q19.04 0.39 19.04-0.87ZM37.22 4.39L37.22 4.39Q37.22 5.96 36.77 7.23Q36.32 8.51 35.51 9.43Q34.70 10.36 33.56 10.86Q32.43 11.36 31.03 11.36L31.03 11.36Q29.63 11.36 28.49 10.86Q27.36 10.36 26.53 9.43Q25.71 8.51 25.26 7.23Q24.81 5.96 24.81 4.39L24.81 4.39Q24.81 2.85 25.27 1.58Q25.74 0.30 26.56-0.61Q27.39-1.52 28.54-2.01Q29.68-2.50 31.03-2.50L31.03-2.50Q32.40-2.50 33.53-2.01Q34.67-1.52 35.49-0.61Q36.32 0.30 36.77 1.58Q37.22 2.85 37.22 4.39ZM28.31 4.42L28.31 4.42Q28.31 6.18 28.94 7.28Q29.57 8.37 30.97 8.37L30.97 8.37Q32.32 8.37 33.00 7.28Q33.69 6.18 33.69 4.42L33.69 4.42Q33.69 2.66 33.06 1.58Q32.43 0.50 31.03 0.50L31.03 0.50Q29.68 0.50 29.00 1.58Q28.31 2.66 28.31 4.42ZM45.36 11L41.89 11L41.89 0.70L39.01 0.70L39.01-2.16L41.89-2.16L41.89-2.92Q41.89-4.51 42.35-5.56Q42.82-6.61 43.60-7.24Q44.38-7.87 45.39-8.14Q46.40-8.40 47.46-8.40L47.46-8.40Q48.56-8.40 49.70-8.21Q50.85-8.01 51.78-7.56L51.78-7.56L51.19-4.76Q50.54-4.99 49.58-5.23Q48.61-5.46 47.74-5.46L47.74-5.46Q47.27-5.46 46.83-5.38Q46.40-5.30 46.08-5.02Q45.76-4.74 45.56-4.22Q45.36-3.70 45.36-2.86L45.36-2.86L45.36-2.16L50.77-2.16L50.77 0.70L45.36 0.70L45.36 11ZM59.36 11L55.89 11L55.89 0.70L53.01 0.70L53.01-2.16L55.89-2.16L55.89-2.92Q55.89-4.51 56.35-5.56Q56.82-6.61 57.60-7.24Q58.38-7.87 59.39-8.14Q60.40-8.40 61.46-8.40L61.46-8.40Q62.56-8.40 63.70-8.21Q64.85-8.01 65.78-7.56L65.78-7.56L65.19-4.76Q64.54-4.99 63.58-5.23Q62.61-5.46 61.74-5.46L61.74-5.46Q61.27-5.46 60.83-5.38Q60.40-5.30 60.08-5.02Q59.76-4.74 59.56-4.22Q59.36-3.70 59.36-2.86L59.36-2.86L59.36-2.16L64.77-2.16L64.77 0.70L59.36 0.70L59.36 11ZM81.65-6.33L84.51-6.33Q84.70-5.74 85.00-4.82Q85.29-3.90 85.63-2.83Q85.96-1.77 86.30-0.68Q86.64 0.42 86.94 1.34L86.94 1.34Q87.28 0.30 87.64-0.80Q88.01-1.91 88.34-2.93Q88.68-3.95 88.96-4.85Q89.24-5.74 89.46-6.33L89.46-6.33L92.32-6.33Q92.52-4.06 92.70-1.91Q92.88 0.25 93.01 2.36Q93.13 4.48 93.22 6.62Q93.30 8.76 93.36 11L93.36 11L90.19 11L90.36-2.47L88.23 4.87L85.71 4.87L83.67-2.47L83.81 11L80.64 11Q80.73 8.87 80.83 6.58Q80.92 4.28 81.04 2.01Q81.15-0.26 81.30-2.38Q81.46-4.51 81.65-6.33L81.65-6.33ZM101.03 8.54L101.03 8.54Q101.59 8.54 102.12 8.52Q102.65 8.51 103.04 8.45L103.04 8.45L103.04 5.43Q102.71 5.37 102.23 5.33Q101.76 5.29 101.36 5.29L101.36 5.29Q100.83 5.29 100.33 5.36Q99.82 5.43 99.45 5.60Q99.07 5.76 98.84 6.07Q98.62 6.38 98.62 6.88L98.62 6.88Q98.62 7.78 99.29 8.16Q99.96 8.54 101.03 8.54ZM100.72-2.50L100.72-2.50Q102.34-2.50 103.42-2.12Q104.50-1.74 105.14-1.05Q105.79-0.37 106.07 0.63Q106.35 1.62 106.35 2.85L106.35 2.85L106.35 10.69Q105.59 10.86 104.11 11.08Q102.62 11.31 100.78 11.31L100.78 11.31Q99.52 11.31 98.49 11.08Q97.47 10.86 96.74 10.34Q96.02 9.82 95.62 9.00Q95.23 8.17 95.23 6.97L95.23 6.97Q95.23 5.82 95.68 5.04Q96.13 4.25 96.88 3.78Q97.64 3.30 98.62 3.09Q99.60 2.88 100.66 2.88L100.66 2.88Q102.01 2.88 103.04 3.10L103.04 3.10L103.04 2.68Q103.04 1.70 102.43 1.05Q101.81 0.39 100.30 0.39L100.30 0.39Q99.32 0.39 98.41 0.53Q97.50 0.67 96.94 0.86L96.94 0.86L96.46-1.91Q97.11-2.13 98.28-2.31Q99.46-2.50 100.72-2.50ZM109.76 11L109.76-1.74Q110.69-1.99 112.05-2.22Q113.40-2.44 115-2.44L115-2.44Q116.57-2.44 117.60-2.01Q118.64-1.57 119.24-0.77Q119.84 0.02 120.10 1.13Q120.35 2.24 120.35 3.58L120.35 3.58L120.35 11L116.90 11L116.90 4.03Q116.90 2.18 116.48 1.37Q116.06 0.56 114.78 0.56L114.78 0.56Q114.38 0.56 114.01 0.58Q113.63 0.61 113.21 0.67L113.21 0.67L113.21 11L109.76 11ZM131.63 4.53L131.63 4.53Q131.63 2.77 130.93 1.63Q130.23 0.50 128.80 0.50L128.80 0.50Q128.41 0.50 127.96 0.54Q127.52 0.58 127.21 0.61L127.21 0.61L127.21 7.84Q127.54 8.06 128.10 8.20Q128.66 8.34 129.22 8.34L129.22 8.34Q130.46 8.34 131.04 7.35Q131.63 6.35 131.63 4.53ZM135.13 4.42L135.13 4.42Q135.13 5.93 134.80 7.21Q134.46 8.48 133.82 9.39Q133.17 10.30 132.19 10.80Q131.21 11.31 129.92 11.31L129.92 11.31Q128.61 11.31 127.21 10.66L127.21 10.66L127.21 15.62L123.76 15.62L123.76-1.74Q124.72-2.05 126.10-2.24Q127.49-2.44 128.83-2.44L128.83-2.44Q131.88-2.44 133.51-0.59Q135.13 1.26 135.13 4.42ZM143.03 8.54L143.03 8.54Q143.59 8.54 144.12 8.52Q144.65 8.51 145.04 8.45L145.04 8.45L145.04 5.43Q144.71 5.37 144.23 5.33Q143.76 5.29 143.36 5.29L143.36 5.29Q142.83 5.29 142.33 5.36Q141.82 5.43 141.45 5.60Q141.07 5.76 140.84 6.07Q140.62 6.38 140.62 6.88L140.62 6.88Q140.62 7.78 141.29 8.16Q141.96 8.54 143.03 8.54ZM142.72-2.50L142.72-2.50Q144.34-2.50 145.42-2.12Q146.50-1.74 147.14-1.05Q147.79-0.37 148.07 0.63Q148.35 1.62 148.35 2.85L148.35 2.85L148.35 10.69Q147.59 10.86 146.11 11.08Q144.62 11.31 142.78 11.31L142.78 11.31Q141.52 11.31 140.49 11.08Q139.47 10.86 138.74 10.34Q138.02 9.82 137.62 9.00Q137.23 8.17 137.23 6.97L137.23 6.97Q137.23 5.82 137.68 5.04Q138.13 4.25 138.88 3.78Q139.64 3.30 140.62 3.09Q141.60 2.88 142.66 2.88L142.66 2.88Q144.01 2.88 145.04 3.10L145.04 3.10L145.04 2.68Q145.04 1.70 144.43 1.05Q143.81 0.39 142.30 0.39L142.30 0.39Q141.32 0.39 140.41 0.53Q139.50 0.67 138.94 0.86L138.94 0.86L138.46-1.91Q139.11-2.13 140.28-2.31Q141.46-2.50 142.72-2.50ZM154.42 4L154.42 4Q154.42 5.62 155.01 6.48Q155.60 7.33 156.86 7.33L156.86 7.33Q157.42 7.33 157.91 7.19Q158.40 7.05 158.79 6.83L158.79 6.83L158.79 0.50Q158.40 0.42 158.09 0.39Q157.78 0.36 157.45 0.36L157.45 0.36Q154.42 0.36 154.42 4ZM162.26-1.74L162.26 9.40Q162.26 12.62 160.71 14.16Q159.16 15.70 155.71 15.70L155.71 15.70Q154.48 15.70 153.35 15.45Q152.21 15.20 151.18 14.86L151.18 14.86L151.82 11.95Q152.63 12.26 153.53 12.53Q154.42 12.79 155.77 12.79L155.77 12.79Q156.66 12.79 157.25 12.58Q157.84 12.37 158.18 12.01Q158.51 11.64 158.65 11.15Q158.79 10.66 158.79 10.10L158.79 10.10L158.79 9.57Q158.06 9.85 157.46 9.99Q156.86 10.13 156.16 10.13L156.16 10.13Q153.58 10.13 152.25 8.51Q150.92 6.88 150.92 4L150.92 4Q150.92 0.75 152.72-0.84Q154.51-2.44 157.59-2.44L157.59-2.44Q159.74-2.44 162.26-1.74L162.26-1.74ZM164.87 4.53L164.87 4.53Q164.87 2.80 165.40 1.48Q165.93 0.16 166.80-0.72Q167.67-1.60 168.79-2.05Q169.91-2.50 171.08-2.50L171.08-2.50Q174.00-2.50 175.51-0.77Q177.02 0.95 177.02 4.25L177.02 4.25Q177.02 4.59 177.01 4.95Q176.99 5.32 176.96 5.54L176.96 5.54L168.42 5.54Q168.42 6.83 169.49 7.57Q170.55 8.31 172.23 8.31L172.23 8.31Q173.27 8.31 174.21 8.09Q175.14 7.86 175.79 7.64L175.79 7.64L176.26 10.58Q175.37 10.89 174.36 11.10Q173.35 11.31 172.09 11.31L172.09 11.31Q170.41 11.31 169.08 10.87Q167.75 10.44 166.81 9.59Q165.88 8.73 165.37 7.47Q164.87 6.21 164.87 4.53ZM168.42 3.16L173.69 3.16Q173.69 2.63 173.55 2.14Q173.41 1.65 173.10 1.26Q172.79 0.86 172.32 0.63Q171.84 0.39 171.14 0.39L171.14 0.39Q170.47 0.39 169.98 0.61Q169.49 0.84 169.17 1.23Q168.84 1.62 168.66 2.12Q168.48 2.63 168.42 3.16L168.42 3.16Z"/>
    </g>
</svg>