<?xml version="1.0" encoding="UTF-8"?>
<svg height="26" width="139.2" version="1.1" xmlns="http://www.w3.org/2000/svg"><!--Created by Josélio de S. C. Júnior - 2021 - https://github.com/joseliojunior -->
    <rect
        height="24"
        width="137.2"
        rx="1"
        ry="1"
        x="1" y="1"
        fill="#ecdebe"
        stroke="#ae8932"
        stroke-width="1" />
    <g transform="translate(0, 8)">
        <path fill="#ae8932" d="M23.42-0.02L23.42-0.02Q24.27-0.02 24.96 0.18Q25.65 0.37 26.14 0.77Q26.64 1.17 26.90 1.78Q27.17 2.40 27.17 3.23L27.17 3.23Q27.17 4.10 26.82 4.80Q26.46 5.50 25.65 5.87L25.65 5.87Q25.92 6.29 26.22 6.79Q26.53 7.30 26.82 7.85Q27.10 8.40 27.37 8.95Q27.63 9.50 27.82 10L27.82 10L25.76 10Q25.39 9.04 24.90 8.15Q24.42 7.26 23.86 6.35L23.86 6.35L22.83 6.35L22.83 10L20.86 10L20.86 0.24Q21.15 0.18 21.50 0.12Q21.84 0.06 22.19 0.04Q22.54 0.02 22.86 0Q23.18-0.02 23.42-0.02ZM25.17 3.22L25.17 3.22Q25.17 2.43 24.69 2.06Q24.21 1.70 23.42 1.70L23.42 1.70Q23.31 1.70 23.15 1.70Q22.99 1.71 22.83 1.74L22.83 1.74L22.83 4.72L23.26 4.72Q24.27 4.72 24.72 4.33Q25.17 3.94 25.17 3.22ZM35.55 6.22L35.55 6.22Q35.55 7.12 35.30 7.85Q35.04 8.58 34.58 9.10Q34.11 9.63 33.46 9.92Q32.82 10.21 32.02 10.21L32.02 10.21Q31.22 10.21 30.57 9.92Q29.92 9.63 29.45 9.10Q28.98 8.58 28.72 7.85Q28.46 7.12 28.46 6.22L28.46 6.22Q28.46 5.34 28.73 4.62Q28.99 3.89 29.46 3.37Q29.94 2.85 30.59 2.57Q31.25 2.29 32.02 2.29L32.02 2.29Q32.80 2.29 33.45 2.57Q34.10 2.85 34.57 3.37Q35.04 3.89 35.30 4.62Q35.55 5.34 35.55 6.22ZM30.46 6.24L30.46 6.24Q30.46 7.25 30.82 7.87Q31.18 8.50 31.98 8.50L31.98 8.50Q32.75 8.50 33.14 7.87Q33.54 7.25 33.54 6.24L33.54 6.24Q33.54 5.23 33.18 4.62Q32.82 4 32.02 4L32.02 4Q31.25 4 30.86 4.62Q30.46 5.23 30.46 6.24ZM40.21 10L38.22 10L38.22 4.11L36.58 4.11L36.58 2.48L38.22 2.48L38.22 2.05Q38.22 1.14 38.49 0.54Q38.75-0.06 39.20-0.42Q39.65-0.78 40.22-0.94Q40.80-1.09 41.41-1.09L41.41-1.09Q42.03-1.09 42.69-0.98Q43.34-0.86 43.87-0.61L43.87-0.61L43.54 0.99Q43.17 0.86 42.62 0.73Q42.06 0.59 41.57 0.59L41.57 0.59Q41.30 0.59 41.05 0.64Q40.80 0.69 40.62 0.85Q40.43 1.01 40.32 1.30Q40.21 1.60 40.21 2.08L40.21 2.08L40.21 2.48L43.30 2.48L43.30 4.11L40.21 4.11L40.21 10ZM48.21 10L46.22 10L46.22 4.11L44.58 4.11L44.58 2.48L46.22 2.48L46.22 2.05Q46.22 1.14 46.49 0.54Q46.75-0.06 47.20-0.42Q47.65-0.78 48.22-0.94Q48.80-1.09 49.41-1.09L49.41-1.09Q50.03-1.09 50.69-0.98Q51.34-0.86 51.87-0.61L51.87-0.61L51.54 0.99Q51.17 0.86 50.62 0.73Q50.06 0.59 49.57 0.59L49.57 0.59Q49.30 0.59 49.05 0.64Q48.80 0.69 48.62 0.85Q48.43 1.01 48.32 1.30Q48.21 1.60 48.21 2.08L48.21 2.08L48.21 2.48L51.30 2.48L51.30 4.11L48.21 4.11L48.21 10ZM60.94 0.10L62.58 0.10Q62.69 0.43 62.86 0.96Q63.02 1.49 63.22 2.10Q63.41 2.70 63.60 3.33Q63.79 3.95 63.97 4.48L63.97 4.48Q64.16 3.89 64.37 3.26Q64.58 2.62 64.77 2.04Q64.96 1.46 65.12 0.94Q65.28 0.43 65.41 0.10L65.41 0.10L67.04 0.10Q67.15 1.39 67.26 2.62Q67.36 3.86 67.43 5.06Q67.50 6.27 67.55 7.50Q67.60 8.72 67.63 10L67.63 10L65.82 10L65.92 2.30L64.70 6.50L63.26 6.50L62.10 2.30L62.18 10L60.37 10Q60.42 8.78 60.47 7.47Q60.53 6.16 60.59 4.86Q60.66 3.57 60.74 2.35Q60.83 1.14 60.94 0.10L60.94 0.10ZM72.02 8.59L72.02 8.59Q72.34 8.59 72.64 8.58Q72.94 8.58 73.17 8.54L73.17 8.54L73.17 6.82Q72.98 6.78 72.70 6.76Q72.43 6.74 72.21 6.74L72.21 6.74Q71.90 6.74 71.62 6.78Q71.33 6.82 71.11 6.91Q70.90 7.01 70.77 7.18Q70.64 7.36 70.64 7.65L70.64 7.65Q70.64 8.16 71.02 8.38Q71.41 8.59 72.02 8.59ZM71.84 2.29L71.84 2.29Q72.77 2.29 73.38 2.50Q74 2.72 74.37 3.11Q74.74 3.50 74.90 4.07Q75.06 4.64 75.06 5.34L75.06 5.34L75.06 9.82Q74.62 9.92 73.78 10.05Q72.93 10.18 71.87 10.18L71.87 10.18Q71.15 10.18 70.57 10.05Q69.98 9.92 69.57 9.62Q69.15 9.33 68.93 8.86Q68.70 8.38 68.70 7.70L68.70 7.70Q68.70 7.04 68.96 6.59Q69.22 6.14 69.65 5.87Q70.08 5.60 70.64 5.48Q71.20 5.36 71.81 5.36L71.81 5.36Q72.58 5.36 73.17 5.49L73.17 5.49L73.17 5.25Q73.17 4.69 72.82 4.31Q72.46 3.94 71.60 3.94L71.60 3.94Q71.04 3.94 70.52 4.02Q70 4.10 69.68 4.21L69.68 4.21L69.41 2.62Q69.78 2.50 70.45 2.39Q71.12 2.29 71.84 2.29ZM77.01 10L77.01 2.72Q77.54 2.58 78.31 2.45Q79.09 2.32 80 2.32L80 2.32Q80.90 2.32 81.49 2.57Q82.08 2.82 82.42 3.27Q82.77 3.73 82.91 4.36Q83.06 4.99 83.06 5.76L83.06 5.76L83.06 10L81.09 10L81.09 6.02Q81.09 4.96 80.85 4.50Q80.61 4.03 79.87 4.03L79.87 4.03Q79.65 4.03 79.43 4.05Q79.22 4.06 78.98 4.10L78.98 4.10L78.98 10L77.01 10ZM89.50 6.30L89.50 6.30Q89.50 5.30 89.10 4.65Q88.70 4 87.89 4L87.89 4Q87.66 4 87.41 4.02Q87.15 4.05 86.98 4.06L86.98 4.06L86.98 8.19Q87.17 8.32 87.49 8.40Q87.81 8.48 88.13 8.48L88.13 8.48Q88.83 8.48 89.17 7.91Q89.50 7.34 89.50 6.30ZM91.50 6.24L91.50 6.24Q91.50 7.10 91.31 7.83Q91.12 8.56 90.75 9.08Q90.38 9.60 89.82 9.89Q89.26 10.18 88.53 10.18L88.53 10.18Q87.78 10.18 86.98 9.81L86.98 9.81L86.98 12.64L85.01 12.64L85.01 2.72Q85.55 2.54 86.34 2.43Q87.14 2.32 87.90 2.32L87.90 2.32Q89.65 2.32 90.58 3.38Q91.50 4.43 91.50 6.24ZM96.02 8.59L96.02 8.59Q96.34 8.59 96.64 8.58Q96.94 8.58 97.17 8.54L97.17 8.54L97.17 6.82Q96.98 6.78 96.70 6.76Q96.43 6.74 96.21 6.74L96.21 6.74Q95.90 6.74 95.62 6.78Q95.33 6.82 95.11 6.91Q94.90 7.01 94.77 7.18Q94.64 7.36 94.64 7.65L94.64 7.65Q94.64 8.16 95.02 8.38Q95.41 8.59 96.02 8.59ZM95.84 2.29L95.84 2.29Q96.77 2.29 97.38 2.50Q98 2.72 98.37 3.11Q98.74 3.50 98.90 4.07Q99.06 4.64 99.06 5.34L99.06 5.34L99.06 9.82Q98.62 9.92 97.78 10.05Q96.93 10.18 95.87 10.18L95.87 10.18Q95.15 10.18 94.57 10.05Q93.98 9.92 93.57 9.62Q93.15 9.33 92.93 8.86Q92.70 8.38 92.70 7.70L92.70 7.70Q92.70 7.04 92.96 6.59Q93.22 6.14 93.65 5.87Q94.08 5.60 94.64 5.48Q95.20 5.36 95.81 5.36L95.81 5.36Q96.58 5.36 97.17 5.49L97.17 5.49L97.17 5.25Q97.17 4.69 96.82 4.31Q96.46 3.94 95.60 3.94L95.60 3.94Q95.04 3.94 94.52 4.02Q94 4.10 93.68 4.21L93.68 4.21L93.41 2.62Q93.78 2.50 94.45 2.39Q95.12 2.29 95.84 2.29ZM102.53 6L102.53 6Q102.53 6.93 102.86 7.42Q103.20 7.90 103.92 7.90L103.92 7.90Q104.24 7.90 104.52 7.82Q104.80 7.74 105.02 7.62L105.02 7.62L105.02 4Q104.80 3.95 104.62 3.94Q104.45 3.92 104.26 3.92L104.26 3.92Q102.53 3.92 102.53 6ZM107.01 2.72L107.01 9.09Q107.01 10.93 106.12 11.81Q105.23 12.69 103.26 12.69L103.26 12.69Q102.56 12.69 101.91 12.54Q101.26 12.40 100.67 12.21L100.67 12.21L101.04 10.54Q101.50 10.72 102.02 10.87Q102.53 11.02 103.30 11.02L103.30 11.02Q103.81 11.02 104.14 10.90Q104.48 10.78 104.67 10.58Q104.86 10.37 104.94 10.09Q105.02 9.81 105.02 9.49L105.02 9.49L105.02 9.18Q104.61 9.34 104.26 9.42Q103.92 9.50 103.52 9.50L103.52 9.50Q102.05 9.50 101.29 8.58Q100.53 7.65 100.53 6L100.53 6Q100.53 4.14 101.55 3.23Q102.58 2.32 104.34 2.32L104.34 2.32Q105.57 2.32 107.01 2.72L107.01 2.72ZM108.50 6.30L108.50 6.30Q108.50 5.31 108.80 4.56Q109.10 3.81 109.60 3.30Q110.10 2.80 110.74 2.54Q111.38 2.29 112.05 2.29L112.05 2.29Q113.71 2.29 114.58 3.27Q115.44 4.26 115.44 6.14L115.44 6.14Q115.44 6.34 115.43 6.54Q115.42 6.75 115.41 6.88L115.41 6.88L110.53 6.88Q110.53 7.62 111.14 8.04Q111.74 8.46 112.70 8.46L112.70 8.46Q113.30 8.46 113.83 8.34Q114.37 8.21 114.74 8.08L114.74 8.08L115.01 9.76Q114.50 9.94 113.92 10.06Q113.34 10.18 112.62 10.18L112.62 10.18Q111.66 10.18 110.90 9.93Q110.14 9.68 109.61 9.19Q109.07 8.70 108.78 7.98Q108.50 7.26 108.50 6.30ZM110.53 5.52L113.54 5.52Q113.54 5.22 113.46 4.94Q113.38 4.66 113.20 4.43Q113.02 4.21 112.75 4.07Q112.48 3.94 112.08 3.94L112.08 3.94Q111.70 3.94 111.42 4.06Q111.14 4.19 110.95 4.42Q110.77 4.64 110.66 4.93Q110.56 5.22 110.53 5.52L110.53 5.52Z"/>
    </g>
</svg>