<?xml version="1.0" encoding="UTF-8"?>
<svg height="34" width="187.2" version="1.1" xmlns="http://www.w3.org/2000/svg">
    <rect
        height="32"
        width="185.2"
        rx="1"
        ry="1"
        x="1"
        y="1"
        fill="#ecdebe"
        stroke="#ae8932"
        stroke-width="1"
         />
    <g transform="translate(0, 12)">
        <path fill="#ae8932" d="M25.14-3.02L25.14-3.02Q26.41-3.02 27.44-2.74Q28.47-2.45 29.22-1.85Q29.96-1.25 30.36-0.32Q30.75 0.60 30.75 1.85L30.75 1.85Q30.75 3.14 30.22 4.20Q29.70 5.26 28.47 5.81L28.47 5.81Q28.88 6.43 29.34 7.19Q29.79 7.94 30.22 8.77Q30.66 9.60 31.05 10.43Q31.45 11.26 31.74 12L31.74 12L28.64 12Q28.09 10.56 27.36 9.23Q26.62 7.90 25.78 6.53L25.78 6.53L24.25 6.53L24.25 12L21.30 12L21.30-2.64Q21.73-2.74 22.24-2.82Q22.76-2.90 23.29-2.94Q23.82-2.98 24.30-3Q24.78-3.02 25.14-3.02ZM27.75 1.82L27.75 1.82Q27.75 0.65 27.03 0.10Q26.31-0.46 25.14-0.46L25.14-0.46Q24.97-0.46 24.73-0.44Q24.49-0.43 24.25-0.38L24.25-0.38L24.25 4.08L24.90 4.08Q26.41 4.08 27.08 3.49Q27.75 2.90 27.75 1.82ZM43.33 6.34L43.33 6.34Q43.33 7.68 42.94 8.77Q42.56 9.86 41.86 10.66Q41.17 11.45 40.20 11.88Q39.22 12.31 38.02 12.31L38.02 12.31Q36.82 12.31 35.85 11.88Q34.88 11.45 34.17 10.66Q33.46 9.86 33.08 8.77Q32.70 7.68 32.70 6.34L32.70 6.34Q32.70 5.02 33.09 3.92Q33.49 2.83 34.20 2.05Q34.90 1.27 35.89 0.85Q36.87 0.43 38.02 0.43L38.02 0.43Q39.20 0.43 40.17 0.85Q41.14 1.27 41.85 2.05Q42.56 2.83 42.94 3.92Q43.33 5.02 43.33 6.34ZM35.70 6.36L35.70 6.36Q35.70 7.87 36.24 8.81Q36.78 9.74 37.98 9.74L37.98 9.74Q39.13 9.74 39.72 8.81Q40.30 7.87 40.30 6.36L40.30 6.36Q40.30 4.85 39.76 3.92Q39.22 3 38.02 3L38.02 3Q36.87 3 36.28 3.92Q35.70 4.85 35.70 6.36ZM50.31 12L47.34 12L47.34 3.17L44.86 3.17L44.86 0.72L47.34 0.72L47.34 0.07Q47.34-1.30 47.73-2.20Q48.13-3.10 48.80-3.64Q49.47-4.18 50.34-4.40Q51.20-4.63 52.11-4.63L52.11-4.63Q53.05-4.63 54.03-4.46Q55.02-4.30 55.81-3.91L55.81-3.91L55.30-1.51Q54.75-1.70 53.92-1.91Q53.10-2.11 52.35-2.11L52.35-2.11Q51.94-2.11 51.57-2.04Q51.20-1.97 50.92-1.73Q50.65-1.49 50.48-1.04Q50.31-0.60 50.31 0.12L50.31 0.12L50.31 0.72L54.94 0.72L54.94 3.17L50.31 3.17L50.31 12ZM62.31 12L59.34 12L59.34 3.17L56.86 3.17L56.86 0.72L59.34 0.72L59.34 0.07Q59.34-1.30 59.73-2.20Q60.13-3.10 60.80-3.64Q61.47-4.18 62.34-4.40Q63.20-4.63 64.11-4.63L64.11-4.63Q65.05-4.63 66.03-4.46Q67.02-4.30 67.81-3.91L67.81-3.91L67.30-1.51Q66.75-1.70 65.92-1.91Q65.10-2.11 64.35-2.11L64.35-2.11Q63.94-2.11 63.57-2.04Q63.20-1.97 62.92-1.73Q62.65-1.49 62.48-1.04Q62.31-0.60 62.31 0.12L62.31 0.12L62.31 0.72L66.94 0.72L66.94 3.17L62.31 3.17L62.31 12ZM81.42-2.86L83.86-2.86Q84.03-2.35 84.28-1.56Q84.54-0.77 84.82 0.14Q85.11 1.06 85.40 1.99Q85.69 2.93 85.95 3.72L85.95 3.72Q86.24 2.83 86.55 1.88Q86.86 0.94 87.15 0.06Q87.44-0.82 87.68-1.58Q87.92-2.35 88.11-2.86L88.11-2.86L90.56-2.86Q90.73-0.91 90.88 0.94Q91.04 2.78 91.15 4.60Q91.26 6.41 91.33 8.24Q91.40 10.08 91.45 12L91.45 12L88.74 12L88.88 0.46L87.06 6.74L84.90 6.74L83.14 0.46L83.26 12L80.55 12Q80.62 10.18 80.71 8.21Q80.79 6.24 80.89 4.30Q80.98 2.35 81.12 0.53Q81.25-1.30 81.42-2.86L81.42-2.86ZM98.02 9.89L98.02 9.89Q98.50 9.89 98.96 9.88Q99.42 9.86 99.75 9.82L99.75 9.82L99.75 7.22Q99.46 7.18 99.06 7.14Q98.65 7.10 98.31 7.10L98.31 7.10Q97.86 7.10 97.42 7.16Q96.99 7.22 96.67 7.37Q96.34 7.51 96.15 7.78Q95.96 8.04 95.96 8.47L95.96 8.47Q95.96 9.24 96.54 9.56Q97.11 9.89 98.02 9.89ZM97.76 0.43L97.76 0.43Q99.15 0.43 100.08 0.76Q101 1.08 101.55 1.67Q102.10 2.26 102.34 3.11Q102.58 3.96 102.58 5.02L102.58 5.02L102.58 11.74Q101.94 11.88 100.66 12.07Q99.39 12.26 97.81 12.26L97.81 12.26Q96.73 12.26 95.85 12.07Q94.98 11.88 94.35 11.44Q93.73 10.99 93.39 10.28Q93.06 9.58 93.06 8.54L93.06 8.54Q93.06 7.56 93.44 6.89Q93.82 6.22 94.47 5.81Q95.12 5.40 95.96 5.22Q96.80 5.04 97.71 5.04L97.71 5.04Q98.86 5.04 99.75 5.23L99.75 5.23L99.75 4.87Q99.75 4.03 99.22 3.47Q98.70 2.90 97.40 2.90L97.40 2.90Q96.56 2.90 95.78 3.02Q95 3.14 94.52 3.31L94.52 3.31L94.11 0.94Q94.66 0.74 95.67 0.59Q96.68 0.43 97.76 0.43ZM105.51 12L105.51 1.08Q106.30 0.86 107.47 0.67Q108.63 0.48 110 0.48L110 0.48Q111.34 0.48 112.23 0.85Q113.12 1.22 113.64 1.91Q114.15 2.59 114.37 3.54Q114.58 4.49 114.58 5.64L114.58 5.64L114.58 12L111.63 12L111.63 6.02Q111.63 4.44 111.27 3.74Q110.91 3.05 109.81 3.05L109.81 3.05Q109.47 3.05 109.15 3.07Q108.82 3.10 108.46 3.14L108.46 3.14L108.46 12L105.51 12ZM124.26 6.46L124.26 6.46Q124.26 4.94 123.66 3.97Q123.06 3 121.83 3L121.83 3Q121.50 3 121.11 3.04Q120.73 3.07 120.46 3.10L120.46 3.10L120.46 9.29Q120.75 9.48 121.23 9.60Q121.71 9.72 122.19 9.72L122.19 9.72Q123.25 9.72 123.75 8.87Q124.26 8.02 124.26 6.46ZM127.26 6.36L127.26 6.36Q127.26 7.66 126.97 8.75Q126.68 9.84 126.13 10.62Q125.58 11.40 124.74 11.83Q123.90 12.26 122.79 12.26L122.79 12.26Q121.66 12.26 120.46 11.71L120.46 11.71L120.46 15.96L117.51 15.96L117.51 1.08Q118.33 0.82 119.52 0.65Q120.70 0.48 121.86 0.48L121.86 0.48Q124.47 0.48 125.86 2.06Q127.26 3.65 127.26 6.36ZM134.02 9.89L134.02 9.89Q134.50 9.89 134.96 9.88Q135.42 9.86 135.75 9.82L135.75 9.82L135.75 7.22Q135.46 7.18 135.06 7.14Q134.65 7.10 134.31 7.10L134.31 7.10Q133.86 7.10 133.42 7.16Q132.99 7.22 132.67 7.37Q132.34 7.51 132.15 7.78Q131.96 8.04 131.96 8.47L131.96 8.47Q131.96 9.24 132.54 9.56Q133.11 9.89 134.02 9.89ZM133.76 0.43L133.76 0.43Q135.15 0.43 136.08 0.76Q137 1.08 137.55 1.67Q138.10 2.26 138.34 3.11Q138.58 3.96 138.58 5.02L138.58 5.02L138.58 11.74Q137.94 11.88 136.66 12.07Q135.39 12.26 133.81 12.26L133.81 12.26Q132.73 12.26 131.85 12.07Q130.98 11.88 130.35 11.44Q129.73 10.99 129.39 10.28Q129.06 9.58 129.06 8.54L129.06 8.54Q129.06 7.56 129.44 6.89Q129.82 6.22 130.47 5.81Q131.12 5.40 131.96 5.22Q132.80 5.04 133.71 5.04L133.71 5.04Q134.86 5.04 135.75 5.23L135.75 5.23L135.75 4.87Q135.75 4.03 135.22 3.47Q134.70 2.90 133.40 2.90L133.40 2.90Q132.56 2.90 131.78 3.02Q131 3.14 130.52 3.31L130.52 3.31L130.11 0.94Q130.66 0.74 131.67 0.59Q132.68 0.43 133.76 0.43ZM143.79 6L143.79 6Q143.79 7.39 144.30 8.12Q144.80 8.86 145.88 8.86L145.88 8.86Q146.36 8.86 146.78 8.74Q147.20 8.62 147.54 8.42L147.54 8.42L147.54 3Q147.20 2.93 146.94 2.90Q146.67 2.88 146.38 2.88L146.38 2.88Q143.79 2.88 143.79 6ZM150.51 1.08L150.51 10.63Q150.51 13.39 149.18 14.71Q147.85 16.03 144.90 16.03L144.90 16.03Q143.84 16.03 142.87 15.82Q141.90 15.60 141.01 15.31L141.01 15.31L141.56 12.82Q142.26 13.08 143.02 13.31Q143.79 13.54 144.94 13.54L144.94 13.54Q145.71 13.54 146.22 13.36Q146.72 13.18 147.01 12.86Q147.30 12.55 147.42 12.13Q147.54 11.71 147.54 11.23L147.54 11.23L147.54 10.78Q146.91 11.02 146.40 11.14Q145.88 11.26 145.28 11.26L145.28 11.26Q143.07 11.26 141.93 9.86Q140.79 8.47 140.79 6L140.79 6Q140.79 3.22 142.33 1.85Q143.86 0.48 146.50 0.48L146.50 0.48Q148.35 0.48 150.51 1.08L150.51 1.08ZM152.74 6.46L152.74 6.46Q152.74 4.97 153.20 3.84Q153.66 2.71 154.40 1.96Q155.14 1.20 156.10 0.82Q157.06 0.43 158.07 0.43L158.07 0.43Q160.57 0.43 161.86 1.91Q163.16 3.38 163.16 6.22L163.16 6.22Q163.16 6.50 163.15 6.82Q163.14 7.13 163.11 7.32L163.11 7.32L155.79 7.32Q155.79 8.42 156.70 9.06Q157.62 9.70 159.06 9.70L159.06 9.70Q159.94 9.70 160.75 9.50Q161.55 9.31 162.10 9.12L162.10 9.12L162.51 11.64Q161.74 11.90 160.88 12.08Q160.02 12.26 158.94 12.26L158.94 12.26Q157.50 12.26 156.36 11.89Q155.22 11.52 154.41 10.79Q153.61 10.06 153.18 8.98Q152.74 7.90 152.74 6.46ZM155.79 5.28L160.30 5.28Q160.30 4.82 160.18 4.40Q160.06 3.98 159.80 3.65Q159.54 3.31 159.13 3.11Q158.72 2.90 158.12 2.90L158.12 2.90Q157.54 2.90 157.12 3.10Q156.70 3.29 156.43 3.62Q156.15 3.96 156.00 4.39Q155.84 4.82 155.79 5.28L155.79 5.28Z"/>
    </g>
</svg>