<?xml version="1.0" encoding="UTF-8"?>
<svg height="34" width="177.1" version="1.1" xmlns="http://www.w3.org/2000/svg">
    <rect
        height="32"
        width="175.1"
        rx="14"
        ry="14"
        x="1"
        y="1"
        fill="#FFF4F3"
        stroke="#c21000"
        stroke-width="1"
         />
    <g transform="translate(0, 14)">
        <path fill="#c21000" d="M22.88 11L11.76 11L11.76-6.33L22.26-6.33L22.26-3.48L15.21-3.48L15.21 0.42L21.34 0.42L21.34 3.27L15.21 3.27L15.21 8.14L22.88 8.14L22.88 11ZM33.60-2.30L33.60-2.30Q34.70-2.30 35.40-1.96Q36.10-1.63 36.50-0.96Q36.91-0.28 37.05 0.74Q37.19 1.76 37.19 3.13L37.19 3.13L37.19 11L34.39 11L34.39 2.96Q34.39 2.18 34.29 1.70Q34.19 1.23 34.04 0.98Q33.88 0.72 33.67 0.64Q33.46 0.56 33.24 0.56L33.24 0.56Q32.99 0.56 32.71 0.60Q32.43 0.64 32.20 0.75L32.20 0.75Q32.29 1.28 32.34 1.93Q32.40 2.57 32.40 3.36L32.40 3.36L32.40 5.99L29.60 5.99L29.60 2.96Q29.60 1.62 29.33 1.09Q29.07 0.56 28.48 0.56L28.48 0.56Q28.31 0.56 28.07 0.58Q27.84 0.61 27.61 0.67L27.61 0.67L27.61 11L24.81 11L24.81-1.66Q25.90-1.96 26.97-2.13Q28.03-2.30 28.84-2.30L28.84-2.30Q29.57-2.30 30.15-2.12Q30.72-1.94 31.14-1.52L31.14-1.52Q31.62-1.82 32.26-2.06Q32.90-2.30 33.60-2.30ZM47.66 4.34L47.66 4.34Q47.66 2.49 47.06 1.51Q46.46 0.53 45.22 0.53L45.22 0.53Q44.66 0.53 44.12 0.68Q43.57 0.84 43.18 1.06L43.18 1.06L43.18 8.20Q43.57 8.28 44.01 8.31Q44.44 8.34 44.75 8.34L44.75 8.34Q46.09 8.34 46.88 7.43Q47.66 6.52 47.66 4.34ZM51.16 4.42L51.16 4.42Q51.16 5.99 50.74 7.26Q50.32 8.54 49.51 9.43Q48.70 10.33 47.52 10.82Q46.34 11.31 44.83 11.31L44.83 11.31Q43.49 11.31 42.09 11.11Q40.69 10.92 39.74 10.61L39.74 10.61L39.74-7.84L43.18-8.43L43.18-1.85Q43.91-2.19 44.58-2.31Q45.25-2.44 45.92-2.44L45.92-2.44Q47.21-2.44 48.19-1.95Q49.17-1.46 49.83-0.55Q50.49 0.36 50.82 1.62Q51.16 2.88 51.16 4.42ZM52.87 4.53L52.87 4.53Q52.87 2.80 53.40 1.48Q53.93 0.16 54.80-0.72Q55.67-1.60 56.79-2.05Q57.91-2.50 59.08-2.50L59.08-2.50Q62.00-2.50 63.51-0.77Q65.02 0.95 65.02 4.25L65.02 4.25Q65.02 4.59 65.01 4.95Q64.99 5.32 64.96 5.54L64.96 5.54L56.42 5.54Q56.42 6.83 57.49 7.57Q58.55 8.31 60.23 8.31L60.23 8.31Q61.27 8.31 62.21 8.09Q63.14 7.86 63.79 7.64L63.79 7.64L64.26 10.58Q63.37 10.89 62.36 11.10Q61.35 11.31 60.09 11.31L60.09 11.31Q58.41 11.31 57.08 10.87Q55.75 10.44 54.81 9.59Q53.88 8.73 53.37 7.47Q52.87 6.21 52.87 4.53ZM56.42 3.16L61.69 3.16Q61.69 2.63 61.55 2.14Q61.41 1.65 61.10 1.26Q60.79 0.86 60.32 0.63Q59.84 0.39 59.14 0.39L59.14 0.39Q58.47 0.39 57.98 0.61Q57.49 0.84 57.17 1.23Q56.84 1.62 56.66 2.12Q56.48 2.63 56.42 3.16L56.42 3.16ZM78.85-1.85L78.24 1.34Q77.90 1.26 77.44 1.17Q76.98 1.09 76.50 1.02Q76.02 0.95 75.58 0.92Q75.13 0.89 74.82 0.89L74.82 0.89Q74.09 0.89 73.39 0.96Q72.69 1.03 71.96 1.23L71.96 1.23L71.96 11L68.49 11L68.49-1.29Q69.86-1.80 71.31-2.10Q72.75-2.41 74.68-2.41L74.68-2.41Q74.96-2.41 75.48-2.38Q76.00-2.36 76.58-2.29Q77.17-2.22 77.77-2.12Q78.38-2.02 78.85-1.85L78.85-1.85ZM86.50 8.48L86.50 8.48Q87.36 8.48 87.94 8.30Q88.51 8.12 88.85 7.79Q89.18 7.47 89.31 7.07Q89.44 6.66 89.44 6.24L89.44 6.24Q89.44 5.71 89.13 5.29Q88.82 4.87 88.34 4.55Q87.87 4.22 87.28 3.96Q86.69 3.69 86.10 3.47L86.10 3.47Q85.32 3.19 84.48 2.82Q83.64 2.46 82.95 1.90Q82.27 1.34 81.82 0.51Q81.37-0.31 81.37-1.54L81.37-1.54Q81.37-3.98 82.95-5.35Q84.54-6.72 87.31-6.72L87.31-6.72Q88.90-6.72 90.09-6.36Q91.28-6.00 92.10-5.55L92.10-5.55L91.09-2.89Q90.39-3.28 89.53-3.56Q88.68-3.84 87.56-3.84L87.56-3.84Q84.82-3.84 84.82-1.85L84.82-1.85Q84.82-1.35 85.10-0.97Q85.38-0.59 85.81-0.30Q86.24-0.00 86.79 0.22Q87.34 0.44 87.87 0.64L87.87 0.64Q88.68 0.95 89.56 1.33Q90.44 1.70 91.19 2.33Q91.93 2.96 92.40 3.90Q92.88 4.84 92.88 6.27L92.88 6.27Q92.88 8.70 91.30 10.03Q89.72 11.36 86.50 11.36L86.50 11.36Q84.34 11.36 83.05 10.90Q81.76 10.44 81.12 10.05L81.12 10.05L82.13 7.25Q82.88 7.70 83.93 8.09Q84.98 8.48 86.50 8.48ZM95.23 4.42L95.23 4.42Q95.23 2.99 95.68 1.73Q96.13 0.47 97.05-0.47Q97.98-1.40 99.39-1.95Q100.80-2.50 102.76-2.50L102.76-2.50Q103.94-2.50 104.89-2.33Q105.84-2.16 106.82-1.77L106.82-1.77L106.07 1.00Q105.51 0.81 104.82 0.65Q104.14 0.50 103.07 0.50L103.07 0.50Q101.84 0.50 101.01 0.79Q100.19 1.09 99.68 1.61Q99.18 2.12 98.96 2.85Q98.73 3.58 98.73 4.42L98.73 4.42Q98.73 6.24 99.75 7.28Q100.78 8.31 103.24 8.31L103.24 8.31Q104.05 8.31 104.93 8.20Q105.82 8.09 106.54 7.84L106.54 7.84L107.05 10.66Q106.32 10.94 105.28 11.13Q104.25 11.31 102.85 11.31L102.85 11.31Q100.83 11.31 99.39 10.78Q97.95 10.24 97.02 9.32Q96.10 8.40 95.67 7.14Q95.23 5.88 95.23 4.42ZM120.85-1.85L120.24 1.34Q119.90 1.26 119.44 1.17Q118.98 1.09 118.50 1.02Q118.02 0.95 117.58 0.92Q117.13 0.89 116.82 0.89L116.82 0.89Q116.09 0.89 115.39 0.96Q114.69 1.03 113.96 1.23L113.96 1.23L113.96 11L110.49 11L110.49-1.29Q111.86-1.80 113.31-2.10Q114.75-2.41 116.68-2.41L116.68-2.41Q116.96-2.41 117.48-2.38Q118.00-2.36 118.58-2.29Q119.17-2.22 119.77-2.12Q120.38-2.02 120.85-1.85L120.85-1.85ZM129.95-5.94L129.95-5.94Q129.95-4.93 129.31-4.34Q128.66-3.76 127.77-3.76L127.77-3.76Q126.87-3.76 126.24-4.34Q125.61-4.93 125.61-5.94L125.61-5.94Q125.61-6.98 126.24-7.56Q126.87-8.15 127.77-8.15L127.77-8.15Q128.66-8.15 129.31-7.56Q129.95-6.98 129.95-5.94ZM134.63 7.67L135.08 10.44Q134.01 10.94 133.07 11.13Q132.14 11.31 131.35 11.31L131.35 11.31Q130.01 11.31 129.10 10.92Q128.19 10.52 127.64 9.78Q127.10 9.04 126.87 7.98Q126.65 6.91 126.65 5.54L126.65 5.54L126.65 0.70L123.01 0.70L123.01-2.16L130.09-2.16L130.09 5.99Q130.09 7.16 130.53 7.74Q130.96 8.31 131.97 8.31L131.97 8.31Q132.44 8.31 133.12 8.19Q133.79 8.06 134.63 7.67L134.63 7.67ZM145.63 4.53L145.63 4.53Q145.63 2.77 144.93 1.63Q144.23 0.50 142.80 0.50L142.80 0.50Q142.41 0.50 141.96 0.54Q141.52 0.58 141.21 0.61L141.21 0.61L141.21 7.84Q141.54 8.06 142.10 8.20Q142.66 8.34 143.22 8.34L143.22 8.34Q144.46 8.34 145.04 7.35Q145.63 6.35 145.63 4.53ZM149.13 4.42L149.13 4.42Q149.13 5.93 148.80 7.21Q148.46 8.48 147.82 9.39Q147.17 10.30 146.19 10.80Q145.21 11.31 143.92 11.31L143.92 11.31Q142.61 11.31 141.21 10.66L141.21 10.66L141.21 15.62L137.76 15.62L137.76-1.74Q138.72-2.05 140.10-2.24Q141.49-2.44 142.83-2.44L142.83-2.44Q145.88-2.44 147.51-0.59Q149.13 1.26 149.13 4.42ZM154.00 6.10L154.00 0.70L151.01 0.70L151.01-2.16L154.00-2.16L154.00-5.46L157.45-6.02L157.45-2.16L162.96-2.16L162.96 0.70L157.45 0.70L157.45 6.02Q157.45 6.74 157.59 7.19Q157.73 7.64 157.98 7.89Q158.23 8.14 158.60 8.23Q158.96 8.31 159.41 8.31L159.41 8.31Q159.88 8.31 160.29 8.28Q160.70 8.26 161.07 8.19Q161.45 8.12 161.86 7.98Q162.26 7.84 162.74 7.61L162.74 7.61L163.22 10.58Q162.26 10.97 161.16 11.14Q160.05 11.31 159.02 11.31L159.02 11.31Q157.81 11.31 156.89 11.11Q155.96 10.92 155.32 10.36Q154.68 9.80 154.34 8.77Q154.00 7.75 154.00 6.10L154.00 6.10Z"/>
    </g>
</svg>