<?xml version="1.0" encoding="UTF-8"?>
<svg height="34" width="106.6" version="1.1" xmlns="http://www.w3.org/2000/svg">
    <rect
        height="32"
        width="104.6"
        rx="14"
        ry="14"
        x="1"
        y="1"
        fill="#3c5caa"
        stroke="#141e39"
        stroke-width="1"
         />
    <g transform="translate(0, 14)">
        <path fill="#141e39" d="M15.99-6.53L15.99-6.53Q17.48-6.53 18.68-6.19Q19.88-5.86 20.75-5.16Q21.62-4.46 22.08-3.38Q22.54-2.30 22.54-0.84L22.54-0.84Q22.54 0.67 21.93 1.90Q21.31 3.13 19.88 3.78L19.88 3.78Q20.36 4.50 20.89 5.39Q21.42 6.27 21.93 7.23Q22.43 8.20 22.89 9.17Q23.36 10.13 23.69 11L23.69 11L20.08 11Q19.44 9.32 18.58 7.77Q17.73 6.21 16.75 4.62L16.75 4.62L14.96 4.62L14.96 11L11.51 11L11.51-6.08Q12.02-6.19 12.62-6.29Q13.22-6.39 13.84-6.43Q14.45-6.47 15.01-6.50Q15.57-6.53 15.99-6.53ZM19.04-0.87L19.04-0.87Q19.04-2.24 18.20-2.89Q17.36-3.53 15.99-3.53L15.99-3.53Q15.80-3.53 15.52-3.52Q15.24-3.50 14.96-3.45L14.96-3.45L14.96 1.76L15.71 1.76Q17.48 1.76 18.26 1.07Q19.04 0.39 19.04-0.87ZM31.03 8.54L31.03 8.54Q31.59 8.54 32.12 8.52Q32.65 8.51 33.04 8.45L33.04 8.45L33.04 5.43Q32.71 5.37 32.23 5.33Q31.76 5.29 31.36 5.29L31.36 5.29Q30.83 5.29 30.33 5.36Q29.82 5.43 29.45 5.60Q29.07 5.76 28.84 6.07Q28.62 6.38 28.62 6.88L28.62 6.88Q28.62 7.78 29.29 8.16Q29.96 8.54 31.03 8.54ZM30.72-2.50L30.72-2.50Q32.34-2.50 33.42-2.12Q34.50-1.74 35.14-1.05Q35.79-0.37 36.07 0.63Q36.35 1.62 36.35 2.85L36.35 2.85L36.35 10.69Q35.59 10.86 34.11 11.08Q32.62 11.31 30.78 11.31L30.78 11.31Q29.52 11.31 28.49 11.08Q27.47 10.86 26.74 10.34Q26.02 9.82 25.62 9.00Q25.23 8.17 25.23 6.97L25.23 6.97Q25.23 5.82 25.68 5.04Q26.13 4.25 26.88 3.78Q27.64 3.30 28.62 3.09Q29.60 2.88 30.66 2.88L30.66 2.88Q32.01 2.88 33.04 3.10L33.04 3.10L33.04 2.68Q33.04 1.70 32.43 1.05Q31.81 0.39 30.30 0.39L30.30 0.39Q29.32 0.39 28.41 0.53Q27.50 0.67 26.94 0.86L26.94 0.86L26.46-1.91Q27.11-2.13 28.28-2.31Q29.46-2.50 30.72-2.50ZM39.23 4.42L39.23 4.42Q39.23 2.99 39.68 1.73Q40.13 0.47 41.05-0.47Q41.98-1.40 43.39-1.95Q44.80-2.50 46.76-2.50L46.76-2.50Q47.94-2.50 48.89-2.33Q49.84-2.16 50.82-1.77L50.82-1.77L50.07 1.00Q49.51 0.81 48.82 0.65Q48.14 0.50 47.07 0.50L47.07 0.50Q45.84 0.50 45.01 0.79Q44.19 1.09 43.68 1.61Q43.18 2.12 42.96 2.85Q42.73 3.58 42.73 4.42L42.73 4.42Q42.73 6.24 43.75 7.28Q44.78 8.31 47.24 8.31L47.24 8.31Q48.05 8.31 48.93 8.20Q49.82 8.09 50.54 7.84L50.54 7.84L51.05 10.66Q50.32 10.94 49.28 11.13Q48.25 11.31 46.85 11.31L46.85 11.31Q44.83 11.31 43.39 10.78Q41.95 10.24 41.02 9.32Q40.10 8.40 39.67 7.14Q39.23 5.88 39.23 4.42ZM57.24-8.43L57.24 3.05Q57.74 2.46 58.26 1.80Q58.78 1.14 59.27 0.44Q59.76-0.26 60.20-0.91Q60.65-1.57 60.99-2.16L60.99-2.16L65.13-2.16Q64.63-1.52 63.98-0.76Q63.34-0.00 62.65 0.78Q61.97 1.56 61.28 2.29Q60.60 3.02 60.04 3.64L60.04 3.64Q60.74 4.31 61.55 5.25Q62.36 6.18 63.14 7.19Q63.93 8.20 64.59 9.21Q65.24 10.22 65.64 11L65.64 11L61.69 11Q61.35 10.30 60.81 9.42Q60.26 8.54 59.64 7.68Q59.03 6.83 58.40 6.06Q57.77 5.29 57.24 4.78L57.24 4.78L57.24 11L53.76 11L53.76-7.84L57.24-8.43ZM66.87 4.53L66.87 4.53Q66.87 2.80 67.40 1.48Q67.93 0.16 68.80-0.72Q69.67-1.60 70.79-2.05Q71.91-2.50 73.08-2.50L73.08-2.50Q76.00-2.50 77.51-0.77Q79.02 0.95 79.02 4.25L79.02 4.25Q79.02 4.59 79.01 4.95Q78.99 5.32 78.96 5.54L78.96 5.54L70.42 5.54Q70.42 6.83 71.49 7.57Q72.55 8.31 74.23 8.31L74.23 8.31Q75.27 8.31 76.21 8.09Q77.14 7.86 77.79 7.64L77.79 7.64L78.26 10.58Q77.37 10.89 76.36 11.10Q75.35 11.31 74.09 11.31L74.09 11.31Q72.41 11.31 71.08 10.87Q69.75 10.44 68.81 9.59Q67.88 8.73 67.37 7.47Q66.87 6.21 66.87 4.53ZM70.42 3.16L75.69 3.16Q75.69 2.63 75.55 2.14Q75.41 1.65 75.10 1.26Q74.79 0.86 74.32 0.63Q73.84 0.39 73.14 0.39L73.14 0.39Q72.47 0.39 71.98 0.61Q71.49 0.84 71.17 1.23Q70.84 1.62 70.66 2.12Q70.48 2.63 70.42 3.16L70.42 3.16ZM84.00 6.10L84.00 0.70L81.01 0.70L81.01-2.16L84.00-2.16L84.00-5.46L87.45-6.02L87.45-2.16L92.96-2.16L92.96 0.70L87.45 0.70L87.45 6.02Q87.45 6.74 87.59 7.19Q87.73 7.64 87.98 7.89Q88.23 8.14 88.60 8.23Q88.96 8.31 89.41 8.31L89.41 8.31Q89.88 8.31 90.29 8.28Q90.70 8.26 91.07 8.19Q91.45 8.12 91.86 7.98Q92.26 7.84 92.74 7.61L92.74 7.61L93.22 10.58Q92.26 10.97 91.16 11.14Q90.05 11.31 89.02 11.31L89.02 11.31Q87.81 11.31 86.89 11.11Q85.96 10.92 85.32 10.36Q84.68 9.80 84.34 8.77Q84.00 7.75 84.00 6.10L84.00 6.10Z"/>
    </g>
</svg>