<?xml version="1.0" encoding="UTF-8"?>
<svg height="34" width="78.3" version="1.1" xmlns="http://www.w3.org/2000/svg"><!--Created by Josélio de S. C. Júnior - 2021 - https://github.com/joseliojunior -->
    <rect
        height="32"
        width="76.3"
        rx="16"
        ry="16"
        x="1" y="1"
        fill="#0d665e"
        stroke="#2be3d4"
        stroke-width="1" />
    <g transform="translate(0, 12)">
        <path fill="#2be3d4" stroke="none" d="M30.68-2.86L30.68-0.79Q29.65 0.79 28.78 2.18Q27.92 3.58 27.18 4.84Q26.43 6.10 25.77 7.26Q25.11 8.42 24.51 9.55L24.51 9.55L30.90 9.55L30.90 12L21.10 12L21.10 10.30Q21.63 9.26 22.23 8.12Q22.83 6.98 23.58 5.69Q24.32 4.39 25.20 2.88Q26.07 1.37 27.13-0.41L27.13-0.41L21.42-0.41L21.42-2.86L30.68-2.86ZM43.78 12L40.62 12L39.92 8.57L35.96 8.57L35.29 12L32.22 12Q33.27 7.61 34.35 4.00Q35.43 0.38 36.44-2.86L36.44-2.86L39.66-2.86Q40.71 0.41 41.76 4.07Q42.80 7.73 43.78 12L43.78 12ZM37.98 0.02L37.98 0.02Q37.74 0.86 37.53 1.62Q37.33 2.38 37.15 3.11Q36.97 3.84 36.81 4.58Q36.66 5.33 36.51 6.12L36.51 6.12L39.42 6.12Q39.27 5.33 39.13 4.58Q38.98 3.84 38.80 3.11Q38.62 2.38 38.42 1.62Q38.22 0.86 37.98 0.02ZM49.38-3.02L49.38-3.02Q52.21-3.02 53.77-1.86Q55.33-0.70 55.33 1.94L55.33 1.94Q55.33 4.61 53.76 5.80Q52.18 6.98 49.30 6.98L49.30 6.98L48.25 6.98L48.25 12L45.30 12L45.30-2.66Q45.73-2.76 46.27-2.83Q46.81-2.90 47.36-2.94Q47.91-2.98 48.44-3Q48.97-3.02 49.38-3.02ZM49.71-0.46L49.71-0.46Q49.45-0.46 48.98-0.44Q48.51-0.43 48.25-0.38L48.25-0.38L48.25 4.42L49.45 4.42Q50.86 4.42 51.58 3.85Q52.30 3.29 52.30 1.92L52.30 1.92Q52.30 0.62 51.60 0.08Q50.89-0.46 49.71-0.46Z"/>
    </g>
</svg>