<?xml version="1.0" encoding="UTF-8"?>
<svg height="34" width="64.3" version="1.1" xmlns="http://www.w3.org/2000/svg">
    <rect
        height="32"
        width="62.3"
        rx="14"
        ry="14"
        x="1"
        y="1"
        fill="#0d665e"
        stroke="#2be3d4"
        stroke-width="1"
         />
    <g transform="translate(0, 14)">
        <path fill="#2be3d4" d="M22.46-6.33L22.46-3.92Q21.26-2.08 20.25-0.45Q19.24 1.17 18.37 2.64Q17.50 4.11 16.73 5.47Q15.96 6.83 15.26 8.14L15.26 8.14L22.71 8.14L22.71 11L11.29 11L11.29 9.01Q11.90 7.81 12.60 6.48Q13.30 5.15 14.17 3.64Q15.04 2.12 16.06 0.36Q17.08-1.40 18.32-3.48L18.32-3.48L11.65-3.48L11.65-6.33L22.46-6.33ZM37.75 11L34.05 11L33.24 7.00L28.62 7.00L27.84 11L24.25 11Q25.48 5.88 26.74 1.66Q28.00-2.55 29.18-6.33L29.18-6.33L32.93-6.33Q34.16-2.52 35.38 1.75Q36.60 6.02 37.75 11L37.75 11ZM30.97-2.97L30.97-2.97Q30.69-1.99 30.45-1.11Q30.22-0.23 30.01 0.63Q29.80 1.48 29.61 2.35Q29.43 3.22 29.26 4.14L29.26 4.14L32.65 4.14Q32.48 3.22 32.32 2.35Q32.15 1.48 31.94 0.63Q31.73-0.23 31.49-1.11Q31.25-1.99 30.97-2.97ZM44.27-6.53L44.27-6.53Q47.58-6.53 49.40-5.17Q51.22-3.81 51.22-0.73L51.22-0.73Q51.22 2.38 49.38 3.76Q47.55 5.15 44.19 5.15L44.19 5.15L42.96 5.15L42.96 11L39.51 11L39.51-6.11Q40.02-6.22 40.65-6.30Q41.28-6.39 41.92-6.43Q42.56-6.47 43.18-6.50Q43.80-6.53 44.27-6.53ZM44.66-3.53L44.66-3.53Q44.36-3.53 43.81-3.52Q43.26-3.50 42.96-3.45L42.96-3.45L42.96 2.15L44.36 2.15Q46.01 2.15 46.85 1.49Q47.69 0.84 47.69-0.76L47.69-0.76Q47.69-2.27 46.86-2.90Q46.04-3.53 44.66-3.53Z"/>
    </g>
</svg>