<?xml version="1.0" encoding="UTF-8"?>
<svg height="26" width="66.3" version="1.1" xmlns="http://www.w3.org/2000/svg"><!--Created by Josélio de S. C. Júnior - 2021 - https://github.com/joseliojunior -->
    <rect
        height="24"
        width="64.3"
        rx="1"
        ry="1"
        x="1" y="1"
        fill="#0d665e"
        stroke="#2be3d4"
        stroke-width="1" />
    <g transform="translate(0, 8)">
        <path fill="#2be3d4" stroke="none" d="M27.12 0.10L27.12 1.47Q26.43 2.53 25.86 3.46Q25.28 4.38 24.78 5.22Q24.29 6.06 23.85 6.84Q23.41 7.62 23.01 8.37L23.01 8.37L27.26 8.37L27.26 10L20.74 10L20.74 8.86Q21.09 8.18 21.49 7.42Q21.89 6.66 22.38 5.79Q22.88 4.93 23.46 3.92Q24.05 2.91 24.75 1.73L24.75 1.73L20.94 1.73L20.94 0.10L27.12 0.10ZM35.86 10L33.74 10L33.28 7.71L30.64 7.71L30.19 10L28.14 10Q28.85 7.07 29.57 4.66Q30.29 2.26 30.96 0.10L30.96 0.10L33.10 0.10Q33.81 2.27 34.50 4.71Q35.20 7.15 35.86 10L35.86 10ZM31.98 2.02L31.98 2.02Q31.82 2.58 31.69 3.08Q31.55 3.58 31.43 4.07Q31.31 4.56 31.21 5.06Q31.10 5.55 31.01 6.08L31.01 6.08L32.94 6.08Q32.85 5.55 32.75 5.06Q32.66 4.56 32.54 4.07Q32.42 3.58 32.28 3.08Q32.14 2.58 31.98 2.02ZM39.58-0.02L39.58-0.02Q41.47-0.02 42.51 0.76Q43.55 1.54 43.55 3.30L43.55 3.30Q43.55 5.07 42.50 5.86Q41.46 6.66 39.54 6.66L39.54 6.66L38.83 6.66L38.83 10L36.86 10L36.86 0.22Q37.15 0.16 37.51 0.11Q37.87 0.06 38.24 0.04Q38.61 0.02 38.96 0Q39.31-0.02 39.58-0.02ZM39.81 1.70L39.81 1.70Q39.63 1.70 39.32 1.70Q39.01 1.71 38.83 1.74L38.83 1.74L38.83 4.94L39.63 4.94Q40.58 4.94 41.06 4.57Q41.54 4.19 41.54 3.28L41.54 3.28Q41.54 2.42 41.06 2.06Q40.59 1.70 39.81 1.70Z"/>
    </g>
</svg>