<?xml version="1.0" encoding="UTF-8"?>
<svg height="34" width="50.2" version="1.1" xmlns="http://www.w3.org/2000/svg">
    <rect
        height="32"
        width="48.2"
        rx="1"
        ry="1"
        x="1"
        y="1"
        fill="#913960"
        stroke="#250e18"
        stroke-width="1"
         />
    <g transform="translate(0, 14)">
        <path fill="#250e18" d="M10.87 4.53L10.87 4.53Q10.87 2.80 11.40 1.48Q11.93 0.16 12.80-0.72Q13.67-1.60 14.79-2.05Q15.91-2.50 17.08-2.50L17.08-2.50Q20.00-2.50 21.51-0.77Q23.02 0.95 23.02 4.25L23.02 4.25Q23.02 4.59 23.01 4.95Q22.99 5.32 22.96 5.54L22.96 5.54L14.42 5.54Q14.42 6.83 15.49 7.57Q16.55 8.31 18.23 8.31L18.23 8.31Q19.27 8.31 20.21 8.09Q21.14 7.86 21.79 7.64L21.79 7.64L22.26 10.58Q21.37 10.89 20.36 11.10Q19.35 11.31 18.09 11.31L18.09 11.31Q16.41 11.31 15.08 10.87Q13.75 10.44 12.81 9.59Q11.88 8.73 11.37 7.47Q10.87 6.21 10.87 4.53ZM14.42 3.16L19.69 3.16Q19.69 2.63 19.55 2.14Q19.41 1.65 19.10 1.26Q18.79 0.86 18.32 0.63Q17.84 0.39 17.14 0.39L17.14 0.39Q16.47 0.39 15.98 0.61Q15.49 0.84 15.17 1.23Q14.84 1.62 14.66 2.12Q14.48 2.63 14.42 3.16L14.42 3.16ZM32.29 11.36L32.29 11.36Q28.62 11.36 26.69 9.01Q24.76 6.66 24.76 2.32L24.76 2.32Q24.76 0.16 25.34-1.52Q25.93-3.20 26.98-4.36Q28.03-5.52 29.47-6.12Q30.92-6.72 32.62-6.72L32.62-6.72Q33.55-6.72 34.29-6.57Q35.03-6.42 35.59-6.22Q36.15-6.02 36.53-5.80Q36.91-5.58 37.10-5.46L37.10-5.46L36.21-2.72Q35.56-3.14 34.65-3.43Q33.74-3.73 32.57-3.73L32.57-3.73Q31.76-3.73 30.99-3.43Q30.22-3.14 29.61-2.45Q29.01-1.77 28.63-0.62Q28.26 0.53 28.26 2.24L28.26 2.24Q28.26 5.20 29.28 6.79Q30.30 8.37 32.62 8.37L32.62 8.37Q33.97 8.37 34.85 8.06Q35.73 7.75 36.26 7.44L36.26 7.44L37.13 10.16Q36.40 10.61 35.16 10.99Q33.91 11.36 32.29 11.36Z"/>
    </g>
</svg>