<?xml version="1.0" encoding="UTF-8"?>
<svg height="34" width="106.6" version="1.1" xmlns="http://www.w3.org/2000/svg">
    <rect
        height="32"
        width="104.6"
        rx="1"
        ry="1"
        x="1"
        y="1"
        fill="#e16737"
        stroke="#6f2b11"
        stroke-width="1"
         />
    <g transform="translate(0, 14)">
        <path fill="#6f2b11" d="M11.65-6.33L14.51-6.33Q14.70-5.74 15.00-4.82Q15.29-3.90 15.63-2.83Q15.96-1.77 16.30-0.68Q16.64 0.42 16.94 1.34L16.94 1.34Q17.28 0.30 17.64-0.80Q18.01-1.91 18.34-2.93Q18.68-3.95 18.96-4.85Q19.24-5.74 19.46-6.33L19.46-6.33L22.32-6.33Q22.52-4.06 22.70-1.91Q22.88 0.25 23.01 2.36Q23.13 4.48 23.22 6.62Q23.30 8.76 23.36 11L23.36 11L20.19 11L20.36-2.47L18.23 4.87L15.71 4.87L13.67-2.47L13.81 11L10.64 11Q10.73 8.87 10.83 6.58Q10.92 4.28 11.04 2.01Q11.15-0.26 11.30-2.38Q11.46-4.51 11.65-6.33L11.65-6.33ZM37.75 11L34.05 11L33.24 7.00L28.62 7.00L27.84 11L24.25 11Q25.48 5.88 26.74 1.66Q28.00-2.55 29.18-6.33L29.18-6.33L32.93-6.33Q34.16-2.52 35.38 1.75Q36.60 6.02 37.75 11L37.75 11ZM30.97-2.97L30.97-2.97Q30.69-1.99 30.45-1.11Q30.22-0.23 30.01 0.63Q29.80 1.48 29.61 2.35Q29.43 3.22 29.26 4.14L29.26 4.14L32.65 4.14Q32.48 3.22 32.32 2.35Q32.15 1.48 31.94 0.63Q31.73-0.23 31.49-1.11Q31.25-1.99 30.97-2.97ZM38.70-6.33L51.30-6.33L51.30-3.48L46.74-3.48L46.74 11L43.26 11L43.26-3.48L38.70-3.48L38.70-6.33ZM64.88 8.14L64.88 11L53.99 11L53.99-6.33L57.46-6.33L57.46 8.14L64.88 8.14ZM79.75 11L76.05 11L75.24 7.00L70.62 7.00L69.84 11L66.25 11Q67.48 5.88 68.74 1.66Q70.00-2.55 71.18-6.33L71.18-6.33L74.93-6.33Q76.16-2.52 77.38 1.75Q78.60 6.02 79.75 11L79.75 11ZM72.97-2.97L72.97-2.97Q72.69-1.99 72.45-1.11Q72.22-0.23 72.01 0.63Q71.80 1.48 71.61 2.35Q71.43 3.22 71.26 4.14L71.26 4.14L74.65 4.14Q74.48 3.22 74.32 2.35Q74.15 1.48 73.94 0.63Q73.73-0.23 73.49-1.11Q73.25-1.99 72.97-2.97ZM93.13 5.76L93.13 5.76Q93.13 7.33 92.60 8.38Q92.07 9.43 91.16 10.06Q90.25 10.69 89.00 10.96Q87.76 11.22 86.33 11.22L86.33 11.22Q85.18 11.22 83.95 11.10Q82.72 10.97 81.51 10.72L81.51 10.72L81.51-6.11Q82.49-6.28 83.67-6.40Q84.84-6.53 85.99-6.53L85.99-6.53Q87.95-6.53 89.18-6.12Q90.42-5.72 91.12-5.06Q91.82-4.40 92.07-3.59Q92.32-2.78 92.32-1.96L92.32-1.96Q92.32-0.73 91.72 0.22Q91.12 1.17 90.11 1.73L90.11 1.73Q91.87 2.38 92.50 3.47Q93.13 4.56 93.13 5.76ZM86.80 3.41L84.96 3.41L84.96 8.12Q85.32 8.17 85.75 8.20Q86.19 8.23 86.61 8.23L86.61 8.23Q87.20 8.23 87.76 8.13Q88.32 8.03 88.75 7.77Q89.18 7.50 89.46 7.01Q89.74 6.52 89.74 5.76L89.74 5.76Q89.74 4.50 88.95 3.96Q88.15 3.41 86.80 3.41L86.80 3.41ZM84.96 0.56L86.30 0.56Q87.62 0.56 88.29-0.02Q88.96-0.59 88.96-1.60L88.96-1.60Q88.96-2.22 88.76-2.59Q88.57-2.97 88.23-3.18Q87.90-3.39 87.45-3.46Q87-3.53 86.52-3.53L86.52-3.53Q86.13-3.53 85.71-3.50Q85.29-3.48 84.96-3.42L84.96-3.42L84.96 0.56Z"/>
    </g>
</svg>