<?xml version="1.0" encoding="UTF-8"?><svg height="34" width="235.6" version="1.1" xmlns="http://www.w3.org/2000/svg"><!--Created by Josélio de S. C. Júnior - 2021 - https://github.com/joseliojunior --><defs><pattern id="pattern" x="3" y="3" width="6" height="6" patternUnits="userSpaceOnUse" patternTransform="rotate(45)"><rect height="6" width="6" fill="#ffffff"/><line x1="0" y1="0" x2="0" y2="6" stroke="#bbbbbb" stroke-width="2" /></pattern></defs><rect height="32" width="233.6" rx="1" ry="1" x="1" y="1" fill="url(#pattern)" /><g transform="translate(0, 12)"><path fill="#000000" d="M25.14-3.02L25.14-3.02Q26.41-3.02 27.44-2.74Q28.47-2.45 29.22-1.85Q29.96-1.25 30.36-0.32Q30.75 0.60 30.75 1.85L30.75 1.85Q30.75 3.14 30.22 4.20Q29.70 5.26 28.47 5.81L28.47 5.81Q28.88 6.43 29.34 7.19Q29.79 7.94 30.22 8.77Q30.66 9.60 31.05 10.43Q31.45 11.26 31.74 12L31.74 12L28.64 12Q28.09 10.56 27.36 9.23Q26.62 7.90 25.78 6.53L25.78 6.53L24.25 6.53L24.25 12L21.30 12L21.30-2.64Q21.73-2.74 22.24-2.82Q22.76-2.90 23.29-2.94Q23.82-2.98 24.30-3Q24.78-3.02 25.14-3.02ZM27.75 1.82L27.75 1.82Q27.75 0.65 27.03 0.10Q26.31-0.46 25.14-0.46L25.14-0.46Q24.97-0.46 24.73-0.44Q24.49-0.43 24.25-0.38L24.25-0.38L24.25 4.08L24.90 4.08Q26.41 4.08 27.08 3.49Q27.75 2.90 27.75 1.82ZM38.82-2.52L38.82-2.52Q38.82-1.66 38.26-1.15Q37.71-0.65 36.94-0.65L36.94-0.65Q36.18-0.65 35.64-1.15Q35.10-1.66 35.10-2.52L35.10-2.52Q35.10-3.41 35.64-3.91Q36.18-4.42 36.94-4.42L36.94-4.42Q37.71-4.42 38.26-3.91Q38.82-3.41 38.82-2.52ZM42.82 9.14L43.21 11.52Q42.30 11.95 41.49 12.11Q40.69 12.26 40.02 12.26L40.02 12.26Q38.86 12.26 38.08 11.93Q37.30 11.59 36.84 10.96Q36.37 10.32 36.18 9.41Q35.98 8.50 35.98 7.32L35.98 7.32L35.98 3.17L32.86 3.17L32.86 0.72L38.94 0.72L38.94 7.70Q38.94 8.71 39.31 9.20Q39.68 9.70 40.54 9.70L40.54 9.70Q40.95 9.70 41.53 9.59Q42.10 9.48 42.82 9.14L42.82 9.14ZM45.06 6.36L45.06 6.36Q45.06 5.14 45.44 4.06Q45.82 2.98 46.62 2.17Q47.41 1.37 48.62 0.90Q49.83 0.43 51.51 0.43L51.51 0.43Q52.52 0.43 53.34 0.58Q54.15 0.72 54.99 1.06L54.99 1.06L54.34 3.43Q53.86 3.26 53.28 3.13Q52.69 3 51.78 3L51.78 3Q50.72 3 50.01 3.25Q49.30 3.50 48.87 3.95Q48.44 4.39 48.25 5.02Q48.06 5.64 48.06 6.36L48.06 6.36Q48.06 7.92 48.93 8.81Q49.81 9.70 51.92 9.70L51.92 9.70Q52.62 9.70 53.37 9.60Q54.13 9.50 54.75 9.29L54.75 9.29L55.18 11.71Q54.56 11.95 53.67 12.11Q52.78 12.26 51.58 12.26L51.58 12.26Q49.86 12.26 48.62 11.81Q47.38 11.35 46.59 10.56Q45.80 9.77 45.43 8.69Q45.06 7.61 45.06 6.36ZM60.46 12L57.51 12L57.51-4.15L60.46-4.66L60.46 0.82Q60.82 0.70 61.33 0.59Q61.83 0.48 62.22 0.48L62.22 0.48Q63.46 0.48 64.30 0.85Q65.14 1.22 65.65 1.91Q66.15 2.59 66.37 3.54Q66.58 4.49 66.58 5.64L66.58 5.64L66.58 12L63.63 12L63.63 6.02Q63.63 4.44 63.27 3.74Q62.91 3.05 61.90 3.05L61.90 3.05Q61.50 3.05 61.10 3.14Q60.70 3.24 60.46 3.31L60.46 3.31L60.46 12ZM80.60-2.86L91.40-2.86L91.40-0.41L87.49-0.41L87.49 12L84.51 12L84.51-0.41L80.60-0.41L80.60-2.86ZM92.74 6.46L92.74 6.46Q92.74 4.97 93.20 3.84Q93.66 2.71 94.40 1.96Q95.14 1.20 96.10 0.82Q97.06 0.43 98.07 0.43L98.07 0.43Q100.57 0.43 101.86 1.91Q103.16 3.38 103.16 6.22L103.16 6.22Q103.16 6.50 103.15 6.82Q103.14 7.13 103.11 7.32L103.11 7.32L95.79 7.32Q95.79 8.42 96.70 9.06Q97.62 9.70 99.06 9.70L99.06 9.70Q99.94 9.70 100.75 9.50Q101.55 9.31 102.10 9.12L102.10 9.12L102.51 11.64Q101.74 11.90 100.88 12.08Q100.02 12.26 98.94 12.26L98.94 12.26Q97.50 12.26 96.36 11.89Q95.22 11.52 94.41 10.79Q93.61 10.06 93.18 8.98Q92.74 7.90 92.74 6.46ZM95.79 5.28L100.30 5.28Q100.30 4.82 100.18 4.40Q100.06 3.98 99.80 3.65Q99.54 3.31 99.13 3.11Q98.72 2.90 98.12 2.90L98.12 2.90Q97.54 2.90 97.12 3.10Q96.70 3.29 96.43 3.62Q96.15 3.96 96.00 4.39Q95.84 4.82 95.79 5.28L95.79 5.28ZM107.60 0.72L110.10 4.25L112.40 0.72L115.40 0.72L111.75 6.14Q112.33 6.84 112.88 7.62Q113.43 8.40 113.94 9.19Q114.44 9.98 114.85 10.70Q115.26 11.42 115.54 12L115.54 12L112.47 12Q111.82 10.78 111.18 9.82Q110.53 8.86 109.95 8.09L109.95 8.09Q109.23 9.05 108.66 9.96Q108.08 10.87 107.48 12L107.48 12L104.48 12Q104.84 11.33 105.31 10.60Q105.78 9.86 106.29 9.11Q106.81 8.35 107.37 7.61Q107.94 6.86 108.46 6.19L108.46 6.19L104.50 0.72L107.60 0.72ZM119.43 7.80L119.43 3.17L116.86 3.17L116.86 0.72L119.43 0.72L119.43-2.11L122.38-2.59L122.38 0.72L127.11 0.72L127.11 3.17L122.38 3.17L122.38 7.73Q122.38 8.35 122.50 8.74Q122.62 9.12 122.84 9.34Q123.06 9.55 123.37 9.62Q123.68 9.70 124.06 9.70L124.06 9.70Q124.47 9.70 124.82 9.67Q125.17 9.65 125.49 9.59Q125.82 9.53 126.16 9.41Q126.51 9.29 126.92 9.10L126.92 9.10L127.33 11.64Q126.51 11.98 125.56 12.12Q124.62 12.26 123.73 12.26L123.73 12.26Q122.70 12.26 121.90 12.10Q121.11 11.93 120.56 11.45Q120.01 10.97 119.72 10.09Q119.43 9.22 119.43 7.80L119.43 7.80ZM144.46 12L141.51 12L141.51-2.86L150.61-2.86L150.61-0.41L144.46-0.41L144.46 3.19L149.84 3.19L149.84 5.64L144.46 5.64L144.46 12ZM163.33 6.34L163.33 6.34Q163.33 7.68 162.94 8.77Q162.56 9.86 161.86 10.66Q161.17 11.45 160.20 11.88Q159.22 12.31 158.02 12.31L158.02 12.31Q156.82 12.31 155.85 11.88Q154.88 11.45 154.17 10.66Q153.46 9.86 153.08 8.77Q152.70 7.68 152.70 6.34L152.70 6.34Q152.70 5.02 153.09 3.92Q153.49 2.83 154.20 2.05Q154.90 1.27 155.89 0.85Q156.87 0.43 158.02 0.43L158.02 0.43Q159.20 0.43 160.17 0.85Q161.14 1.27 161.85 2.05Q162.56 2.83 162.94 3.92Q163.33 5.02 163.33 6.34ZM155.70 6.36L155.70 6.36Q155.70 7.87 156.24 8.81Q156.78 9.74 157.98 9.74L157.98 9.74Q159.13 9.74 159.72 8.81Q160.30 7.87 160.30 6.36L160.30 6.36Q160.30 4.85 159.76 3.92Q159.22 3 158.02 3L158.02 3Q156.87 3 156.28 3.92Q155.70 4.85 155.70 6.36ZM175.02 0.98L174.49 3.72Q174.20 3.65 173.80 3.58Q173.41 3.50 173 3.44Q172.59 3.38 172.21 3.36Q171.82 3.34 171.56 3.34L171.56 3.34Q170.94 3.34 170.34 3.40Q169.74 3.46 169.11 3.62L169.11 3.62L169.11 12L166.14 12L166.14 1.46Q167.31 1.03 168.55 0.77Q169.78 0.50 171.44 0.50L171.44 0.50Q171.68 0.50 172.12 0.53Q172.57 0.55 173.07 0.61Q173.58 0.67 174.09 0.76Q174.61 0.84 175.02 0.98L175.02 0.98ZM184.23 0.60L184.23 0.60Q185.17 0.60 185.77 0.89Q186.37 1.18 186.72 1.75Q187.06 2.33 187.18 3.20Q187.30 4.08 187.30 5.26L187.30 5.26L187.30 12L184.90 12L184.90 5.11Q184.90 4.44 184.82 4.03Q184.74 3.62 184.60 3.41Q184.47 3.19 184.29 3.12Q184.11 3.05 183.92 3.05L183.92 3.05Q183.70 3.05 183.46 3.08Q183.22 3.12 183.03 3.22L183.03 3.22Q183.10 3.67 183.15 4.22Q183.20 4.78 183.20 5.45L183.20 5.45L183.20 7.70L180.80 7.70L180.80 5.11Q180.80 3.96 180.57 3.50Q180.34 3.05 179.84 3.05L179.84 3.05Q179.70 3.05 179.49 3.07Q179.29 3.10 179.10 3.14L179.10 3.14L179.10 12L176.70 12L176.70 1.15Q177.63 0.89 178.54 0.74Q179.46 0.60 180.15 0.60L180.15 0.60Q180.78 0.60 181.27 0.76Q181.76 0.91 182.12 1.27L182.12 1.27Q182.53 1.01 183.08 0.80Q183.63 0.60 184.23 0.60ZM194.02 9.89L194.02 9.89Q194.50 9.89 194.96 9.88Q195.42 9.86 195.75 9.82L195.75 9.82L195.75 7.22Q195.46 7.18 195.06 7.14Q194.65 7.10 194.31 7.10L194.31 7.10Q193.86 7.10 193.42 7.16Q192.99 7.22 192.67 7.37Q192.34 7.51 192.15 7.78Q191.96 8.04 191.96 8.47L191.96 8.47Q191.96 9.24 192.54 9.56Q193.11 9.89 194.02 9.89ZM193.76 0.43L193.76 0.43Q195.15 0.43 196.08 0.76Q197 1.08 197.55 1.67Q198.10 2.26 198.34 3.11Q198.58 3.96 198.58 5.02L198.58 5.02L198.58 11.74Q197.94 11.88 196.66 12.07Q195.39 12.26 193.81 12.26L193.81 12.26Q192.73 12.26 191.85 12.07Q190.98 11.88 190.35 11.44Q189.73 10.99 189.39 10.28Q189.06 9.58 189.06 8.54L189.06 8.54Q189.06 7.56 189.44 6.89Q189.82 6.22 190.47 5.81Q191.12 5.40 191.96 5.22Q192.80 5.04 193.71 5.04L193.71 5.04Q194.86 5.04 195.75 5.23L195.75 5.23L195.75 4.87Q195.75 4.03 195.22 3.47Q194.70 2.90 193.40 2.90L193.40 2.90Q192.56 2.90 191.78 3.02Q191 3.14 190.52 3.31L190.52 3.31L190.11 0.94Q190.66 0.74 191.67 0.59Q192.68 0.43 193.76 0.43ZM203.43 7.80L203.43 3.17L200.86 3.17L200.86 0.72L203.43 0.72L203.43-2.11L206.38-2.59L206.38 0.72L211.11 0.72L211.11 3.17L206.38 3.17L206.38 7.73Q206.38 8.35 206.50 8.74Q206.62 9.12 206.84 9.34Q207.06 9.55 207.37 9.62Q207.68 9.70 208.06 9.70L208.06 9.70Q208.47 9.70 208.82 9.67Q209.17 9.65 209.49 9.59Q209.82 9.53 210.16 9.41Q210.51 9.29 210.92 9.10L210.92 9.10L211.33 11.64Q210.51 11.98 209.56 12.12Q208.62 12.26 207.73 12.26L207.73 12.26Q206.70 12.26 205.90 12.10Q205.11 11.93 204.56 11.45Q204.01 10.97 203.72 10.09Q203.43 9.22 203.43 7.80L203.43 7.80Z"/></g></svg>