<?xml version="1.0" encoding="UTF-8"?>
<svg height="34" width="126.7" version="1.1" xmlns="http://www.w3.org/2000/svg"><!--Created by Josélio de S. C. Júnior - 2021 - https://github.com/joseliojunior -->
    <rect
        height="32"
        width="124.7"
        rx="16"
        ry="16"
        x="1" y="1"
        fill="#ffe7ac"
        stroke="#e0a100"
        stroke-width="1" />
    <g transform="translate(0, 12)">
        <path fill="#e0a100" stroke="none" d="M20.60-2.86L31.40-2.86L31.40-0.41L27.49-0.41L27.49 12L24.51 12L24.51-0.41L20.60-0.41L20.60-2.86ZM32.74 6.46L32.74 6.46Q32.74 4.97 33.20 3.84Q33.66 2.71 34.40 1.96Q35.14 1.20 36.10 0.82Q37.06 0.43 38.07 0.43L38.07 0.43Q40.57 0.43 41.86 1.91Q43.16 3.38 43.16 6.22L43.16 6.22Q43.16 6.50 43.15 6.82Q43.14 7.13 43.11 7.32L43.11 7.32L35.79 7.32Q35.79 8.42 36.70 9.06Q37.62 9.70 39.06 9.70L39.06 9.70Q39.94 9.70 40.75 9.50Q41.55 9.31 42.10 9.12L42.10 9.12L42.51 11.64Q41.74 11.90 40.88 12.08Q40.02 12.26 38.94 12.26L38.94 12.26Q37.50 12.26 36.36 11.89Q35.22 11.52 34.41 10.79Q33.61 10.06 33.18 8.98Q32.74 7.90 32.74 6.46ZM35.79 5.28L40.30 5.28Q40.30 4.82 40.18 4.40Q40.06 3.98 39.80 3.65Q39.54 3.31 39.13 3.11Q38.72 2.90 38.12 2.90L38.12 2.90Q37.54 2.90 37.12 3.10Q36.70 3.29 36.43 3.62Q36.15 3.96 36.00 4.39Q35.84 4.82 35.79 5.28L35.79 5.28ZM47.60 0.72L50.10 4.25L52.40 0.72L55.40 0.72L51.75 6.14Q52.33 6.84 52.88 7.62Q53.43 8.40 53.94 9.19Q54.44 9.98 54.85 10.70Q55.26 11.42 55.54 12L55.54 12L52.47 12Q51.82 10.78 51.18 9.82Q50.53 8.86 49.95 8.09L49.95 8.09Q49.23 9.05 48.66 9.96Q48.08 10.87 47.48 12L47.48 12L44.48 12Q44.84 11.33 45.31 10.60Q45.78 9.86 46.29 9.11Q46.81 8.35 47.37 7.61Q47.94 6.86 48.46 6.19L48.46 6.19L44.50 0.72L47.60 0.72ZM59.43 7.80L59.43 3.17L56.86 3.17L56.86 0.72L59.43 0.72L59.43-2.11L62.38-2.59L62.38 0.72L67.11 0.72L67.11 3.17L62.38 3.17L62.38 7.73Q62.38 8.35 62.50 8.74Q62.62 9.12 62.84 9.34Q63.06 9.55 63.37 9.62Q63.68 9.70 64.06 9.70L64.06 9.70Q64.47 9.70 64.82 9.67Q65.17 9.65 65.49 9.59Q65.82 9.53 66.16 9.41Q66.51 9.29 66.92 9.10L66.92 9.10L67.33 11.64Q66.51 11.98 65.56 12.12Q64.62 12.26 63.73 12.26L63.73 12.26Q62.70 12.26 61.90 12.10Q61.11 11.93 60.56 11.45Q60.01 10.97 59.72 10.09Q59.43 9.22 59.43 7.80L59.43 7.80ZM74.82-2.52L74.82-2.52Q74.82-1.66 74.26-1.15Q73.71-0.65 72.94-0.65L72.94-0.65Q72.18-0.65 71.64-1.15Q71.10-1.66 71.10-2.52L71.10-2.52Q71.10-3.41 71.64-3.91Q72.18-4.42 72.94-4.42L72.94-4.42Q73.71-4.42 74.26-3.91Q74.82-3.41 74.82-2.52ZM78.82 9.14L79.21 11.52Q78.30 11.95 77.49 12.11Q76.69 12.26 76.02 12.26L76.02 12.26Q74.86 12.26 74.08 11.93Q73.30 11.59 72.84 10.96Q72.37 10.32 72.18 9.41Q71.98 8.50 71.98 7.32L71.98 7.32L71.98 3.17L68.86 3.17L68.86 0.72L74.94 0.72L74.94 7.70Q74.94 8.71 75.31 9.20Q75.68 9.70 76.54 9.70L76.54 9.70Q76.95 9.70 77.53 9.59Q78.10 9.48 78.82 9.14L78.82 9.14ZM90.82 9.14L91.21 11.52Q91.14 11.57 90.88 11.69Q90.63 11.81 90.22 11.94Q89.82 12.07 89.23 12.17Q88.64 12.26 87.90 12.26L87.90 12.26Q85.86 12.26 84.92 11.05Q83.98 9.84 83.98 7.51L83.98 7.51L83.98-2.06L80.86-2.06L80.86-4.51L86.94-4.51L86.94 7.73Q86.94 8.88 87.39 9.29Q87.85 9.70 88.54 9.70L88.54 9.70Q89.43 9.70 90.03 9.46Q90.63 9.22 90.82 9.14L90.82 9.14ZM92.74 6.46L92.74 6.46Q92.74 4.97 93.20 3.84Q93.66 2.71 94.40 1.96Q95.14 1.20 96.10 0.82Q97.06 0.43 98.07 0.43L98.07 0.43Q100.57 0.43 101.86 1.91Q103.16 3.38 103.16 6.22L103.16 6.22Q103.16 6.50 103.15 6.82Q103.14 7.13 103.11 7.32L103.11 7.32L95.79 7.32Q95.79 8.42 96.70 9.06Q97.62 9.70 99.06 9.70L99.06 9.70Q99.94 9.70 100.75 9.50Q101.55 9.31 102.10 9.12L102.10 9.12L102.51 11.64Q101.74 11.90 100.88 12.08Q100.02 12.26 98.94 12.26L98.94 12.26Q97.50 12.26 96.36 11.89Q95.22 11.52 94.41 10.79Q93.61 10.06 93.18 8.98Q92.74 7.90 92.74 6.46ZM95.79 5.28L100.30 5.28Q100.30 4.82 100.18 4.40Q100.06 3.98 99.80 3.65Q99.54 3.31 99.13 3.11Q98.72 2.90 98.12 2.90L98.12 2.90Q97.54 2.90 97.12 3.10Q96.70 3.29 96.43 3.62Q96.15 3.96 96.00 4.39Q95.84 4.82 95.79 5.28L95.79 5.28Z"/>
    </g>
</svg>