<?xml version="1.0" encoding="UTF-8"?>
<svg height="34" width="177.1" version="1.1" xmlns="http://www.w3.org/2000/svg">
    <rect
        height="32"
        width="175.1"
        rx="14"
        ry="14"
        x="1"
        y="1"
        fill="#c42727"
        stroke="#440d0d"
        stroke-width="1"
         />
    <g transform="translate(0, 14)">
        <path fill="#440d0d" d="M18.29 11.36L18.29 11.36Q14.62 11.36 12.69 9.01Q10.76 6.66 10.76 2.32L10.76 2.32Q10.76 0.16 11.34-1.52Q11.93-3.20 12.98-4.36Q14.03-5.52 15.47-6.12Q16.92-6.72 18.62-6.72L18.62-6.72Q19.55-6.72 20.29-6.57Q21.03-6.42 21.59-6.22Q22.15-6.02 22.53-5.80Q22.91-5.58 23.10-5.46L23.10-5.46L22.21-2.72Q21.56-3.14 20.65-3.43Q19.74-3.73 18.57-3.73L18.57-3.73Q17.76-3.73 16.99-3.43Q16.22-3.14 15.61-2.45Q15.01-1.77 14.63-0.62Q14.26 0.53 14.26 2.24L14.26 2.24Q14.26 5.20 15.28 6.79Q16.30 8.37 18.62 8.37L18.62 8.37Q19.97 8.37 20.85 8.06Q21.73 7.75 22.26 7.44L22.26 7.44L23.13 10.16Q22.40 10.61 21.16 10.99Q19.91 11.36 18.29 11.36ZM31.03 8.54L31.03 8.54Q31.59 8.54 32.12 8.52Q32.65 8.51 33.04 8.45L33.04 8.45L33.04 5.43Q32.71 5.37 32.23 5.33Q31.76 5.29 31.36 5.29L31.36 5.29Q30.83 5.29 30.33 5.36Q29.82 5.43 29.45 5.60Q29.07 5.76 28.84 6.07Q28.62 6.38 28.62 6.88L28.62 6.88Q28.62 7.78 29.29 8.16Q29.96 8.54 31.03 8.54ZM30.72-2.50L30.72-2.50Q32.34-2.50 33.42-2.12Q34.50-1.74 35.14-1.05Q35.79-0.37 36.07 0.63Q36.35 1.62 36.35 2.85L36.35 2.85L36.35 10.69Q35.59 10.86 34.11 11.08Q32.62 11.31 30.78 11.31L30.78 11.31Q29.52 11.31 28.49 11.08Q27.47 10.86 26.74 10.34Q26.02 9.82 25.62 9.00Q25.23 8.17 25.23 6.97L25.23 6.97Q25.23 5.82 25.68 5.04Q26.13 4.25 26.88 3.78Q27.64 3.30 28.62 3.09Q29.60 2.88 30.66 2.88L30.66 2.88Q32.01 2.88 33.04 3.10L33.04 3.10L33.04 2.68Q33.04 1.70 32.43 1.05Q31.81 0.39 30.30 0.39L30.30 0.39Q29.32 0.39 28.41 0.53Q27.50 0.67 26.94 0.86L26.94 0.86L26.46-1.91Q27.11-2.13 28.28-2.31Q29.46-2.50 30.72-2.50ZM47.63 4.53L47.63 4.53Q47.63 2.77 46.93 1.63Q46.23 0.50 44.80 0.50L44.80 0.50Q44.41 0.50 43.96 0.54Q43.52 0.58 43.21 0.61L43.21 0.61L43.21 7.84Q43.54 8.06 44.10 8.20Q44.66 8.34 45.22 8.34L45.22 8.34Q46.46 8.34 47.04 7.35Q47.63 6.35 47.63 4.53ZM51.13 4.42L51.13 4.42Q51.13 5.93 50.80 7.21Q50.46 8.48 49.82 9.39Q49.17 10.30 48.19 10.80Q47.21 11.31 45.92 11.31L45.92 11.31Q44.61 11.31 43.21 10.66L43.21 10.66L43.21 15.62L39.76 15.62L39.76-1.74Q40.72-2.05 42.10-2.24Q43.49-2.44 44.83-2.44L44.83-2.44Q47.88-2.44 49.51-0.59Q51.13 1.26 51.13 4.42ZM57.21-8.01L60.88-8.01L60.88-6.16Q60.88-5.46 60.81-4.64Q60.74-3.81 60.61-2.94Q60.48-2.08 60.34-1.22Q60.20-0.37 60.06 0.36L60.06 0.36L58.05 0.36Q57.91-0.37 57.77-1.22Q57.63-2.08 57.50-2.94Q57.38-3.81 57.29-4.64Q57.21-5.46 57.21-6.16L57.21-6.16L57.21-8.01ZM67.76 11L67.76-1.74Q68.69-1.99 70.05-2.22Q71.40-2.44 73-2.44L73-2.44Q74.57-2.44 75.60-2.01Q76.64-1.57 77.24-0.77Q77.84 0.02 78.10 1.13Q78.35 2.24 78.35 3.58L78.35 3.58L78.35 11L74.90 11L74.90 4.03Q74.90 2.18 74.48 1.37Q74.06 0.56 72.78 0.56L72.78 0.56Q72.38 0.56 72.01 0.58Q71.63 0.61 71.21 0.67L71.21 0.67L71.21 11L67.76 11ZM100.27-6.53L100.27-6.53Q103.58-6.53 105.40-5.17Q107.22-3.81 107.22-0.73L107.22-0.73Q107.22 2.38 105.38 3.76Q103.55 5.15 100.19 5.15L100.19 5.15L98.96 5.15L98.96 11L95.51 11L95.51-6.11Q96.02-6.22 96.65-6.30Q97.28-6.39 97.92-6.43Q98.56-6.47 99.18-6.50Q99.80-6.53 100.27-6.53ZM100.66-3.53L100.66-3.53Q100.36-3.53 99.81-3.52Q99.26-3.50 98.96-3.45L98.96-3.45L98.96 2.15L100.36 2.15Q102.01 2.15 102.85 1.49Q103.69 0.84 103.69-0.76L103.69-0.76Q103.69-2.27 102.86-2.90Q102.04-3.53 100.66-3.53ZM120.85-1.85L120.24 1.34Q119.90 1.26 119.44 1.17Q118.98 1.09 118.50 1.02Q118.02 0.95 117.58 0.92Q117.13 0.89 116.82 0.89L116.82 0.89Q116.09 0.89 115.39 0.96Q114.69 1.03 113.96 1.23L113.96 1.23L113.96 11L110.49 11L110.49-1.29Q111.86-1.80 113.31-2.10Q114.75-2.41 116.68-2.41L116.68-2.41Q116.96-2.41 117.48-2.38Q118.00-2.36 118.58-2.29Q119.17-2.22 119.77-2.12Q120.38-2.02 120.85-1.85L120.85-1.85ZM135.22 4.39L135.22 4.39Q135.22 5.96 134.77 7.23Q134.32 8.51 133.51 9.43Q132.70 10.36 131.56 10.86Q130.43 11.36 129.03 11.36L129.03 11.36Q127.63 11.36 126.49 10.86Q125.36 10.36 124.53 9.43Q123.71 8.51 123.26 7.23Q122.81 5.96 122.81 4.39L122.81 4.39Q122.81 2.85 123.27 1.58Q123.74 0.30 124.56-0.61Q125.39-1.52 126.54-2.01Q127.68-2.50 129.03-2.50L129.03-2.50Q130.40-2.50 131.53-2.01Q132.67-1.52 133.49-0.61Q134.32 0.30 134.77 1.58Q135.22 2.85 135.22 4.39ZM126.31 4.42L126.31 4.42Q126.31 6.18 126.94 7.28Q127.57 8.37 128.97 8.37L128.97 8.37Q130.32 8.37 131.00 7.28Q131.69 6.18 131.69 4.42L131.69 4.42Q131.69 2.66 131.06 1.58Q130.43 0.50 129.03 0.50L129.03 0.50Q127.68 0.50 127.00 1.58Q126.31 2.66 126.31 4.42ZM140.00 6.10L140.00 0.70L137.01 0.70L137.01-2.16L140.00-2.16L140.00-5.46L143.45-6.02L143.45-2.16L148.96-2.16L148.96 0.70L143.45 0.70L143.45 6.02Q143.45 6.74 143.59 7.19Q143.73 7.64 143.98 7.89Q144.23 8.14 144.60 8.23Q144.96 8.31 145.41 8.31L145.41 8.31Q145.88 8.31 146.29 8.28Q146.70 8.26 147.07 8.19Q147.45 8.12 147.86 7.98Q148.26 7.84 148.74 7.61L148.74 7.61L149.22 10.58Q148.26 10.97 147.16 11.14Q146.05 11.31 145.02 11.31L145.02 11.31Q143.81 11.31 142.89 11.11Q141.96 10.92 141.32 10.36Q140.68 9.80 140.34 8.77Q140.00 7.75 140.00 6.10L140.00 6.10ZM163.22 4.39L163.22 4.39Q163.22 5.96 162.77 7.23Q162.32 8.51 161.51 9.43Q160.70 10.36 159.56 10.86Q158.43 11.36 157.03 11.36L157.03 11.36Q155.63 11.36 154.49 10.86Q153.36 10.36 152.53 9.43Q151.71 8.51 151.26 7.23Q150.81 5.96 150.81 4.39L150.81 4.39Q150.81 2.85 151.27 1.58Q151.74 0.30 152.56-0.61Q153.39-1.52 154.54-2.01Q155.68-2.50 157.03-2.50L157.03-2.50Q158.40-2.50 159.53-2.01Q160.67-1.52 161.49-0.61Q162.32 0.30 162.77 1.58Q163.22 2.85 163.22 4.39ZM154.31 4.42L154.31 4.42Q154.31 6.18 154.94 7.28Q155.57 8.37 156.97 8.37L156.97 8.37Q158.32 8.37 159.00 7.28Q159.69 6.18 159.69 4.42L159.69 4.42Q159.69 2.66 159.06 1.58Q158.43 0.50 157.03 0.50L157.03 0.50Q155.68 0.50 155.00 1.58Q154.31 2.66 154.31 4.42Z"/>
    </g>
</svg>