<?xml version="1.0" encoding="UTF-8"?>
<svg height="34" width="114.6" version="1.1" xmlns="http://www.w3.org/2000/svg">
    <rect
        height="32"
        width="112.6"
        rx="1"
        ry="1"
        x="1"
        y="1"
        fill="#1C3552"
        stroke="#4981c1"
        stroke-width="1"
         />
    <g transform="translate(0, 12)">
        <path fill="#4981c1" d="M31.78 12L28.62 12L27.92 8.57L23.96 8.57L23.29 12L20.22 12Q21.27 7.61 22.35 4.00Q23.43 0.38 24.44-2.86L24.44-2.86L27.66-2.86Q28.71 0.41 29.76 4.07Q30.80 7.73 31.78 12L31.78 12ZM25.98 0.02L25.98 0.02Q25.74 0.86 25.53 1.62Q25.33 2.38 25.15 3.11Q24.97 3.84 24.81 4.58Q24.66 5.33 24.51 6.12L24.51 6.12L27.42 6.12Q27.27 5.33 27.13 4.58Q26.98 3.84 26.80 3.11Q26.62 2.38 26.42 1.62Q26.22 0.86 25.98 0.02ZM42.51 0.72L42.51 11.62Q41.70 11.83 40.53 12.05Q39.37 12.26 38 12.26L38 12.26Q36.61 12.26 35.72 11.88Q34.83 11.50 34.32 10.79Q33.80 10.08 33.61 9.12Q33.42 8.16 33.42 7.01L33.42 7.01L33.42 0.72L36.37 0.72L36.37 6.62Q36.37 8.18 36.74 8.94Q37.11 9.70 38.19 9.70L38.19 9.70Q38.86 9.70 39.54 9.58L39.54 9.58L39.54 0.72L42.51 0.72ZM47.43 7.80L47.43 3.17L44.86 3.17L44.86 0.72L47.43 0.72L47.43-2.11L50.38-2.59L50.38 0.72L55.11 0.72L55.11 3.17L50.38 3.17L50.38 7.73Q50.38 8.35 50.50 8.74Q50.62 9.12 50.84 9.34Q51.06 9.55 51.37 9.62Q51.68 9.70 52.06 9.70L52.06 9.70Q52.47 9.70 52.82 9.67Q53.17 9.65 53.49 9.59Q53.82 9.53 54.16 9.41Q54.51 9.29 54.92 9.10L54.92 9.10L55.33 11.64Q54.51 11.98 53.56 12.12Q52.62 12.26 51.73 12.26L51.73 12.26Q50.70 12.26 49.90 12.10Q49.11 11.93 48.56 11.45Q48.01 10.97 47.72 10.09Q47.43 9.22 47.43 7.80L47.43 7.80ZM67.33 6.34L67.33 6.34Q67.33 7.68 66.94 8.77Q66.56 9.86 65.86 10.66Q65.17 11.45 64.20 11.88Q63.22 12.31 62.02 12.31L62.02 12.31Q60.82 12.31 59.85 11.88Q58.88 11.45 58.17 10.66Q57.46 9.86 57.08 8.77Q56.70 7.68 56.70 6.34L56.70 6.34Q56.70 5.02 57.09 3.92Q57.49 2.83 58.20 2.05Q58.90 1.27 59.89 0.85Q60.87 0.43 62.02 0.43L62.02 0.43Q63.20 0.43 64.17 0.85Q65.14 1.27 65.85 2.05Q66.56 2.83 66.94 3.92Q67.33 5.02 67.33 6.34ZM59.70 6.36L59.70 6.36Q59.70 7.87 60.24 8.81Q60.78 9.74 61.98 9.74L61.98 9.74Q63.13 9.74 63.72 8.81Q64.30 7.87 64.30 6.36L64.30 6.36Q64.30 4.85 63.76 3.92Q63.22 3 62.02 3L62.02 3Q60.87 3 60.28 3.92Q59.70 4.85 59.70 6.36ZM78.73 12L69.30 12L69.30 9.55L72.54 9.55L72.54-0.41L69.30-0.41L69.30-2.86L78.73-2.86L78.73-0.41L75.51-0.41L75.51 9.55L78.73 9.55L78.73 12ZM83.43 7.80L83.43 3.17L80.86 3.17L80.86 0.72L83.43 0.72L83.43-2.11L86.38-2.59L86.38 0.72L91.11 0.72L91.11 3.17L86.38 3.17L86.38 7.73Q86.38 8.35 86.50 8.74Q86.62 9.12 86.84 9.34Q87.06 9.55 87.37 9.62Q87.68 9.70 88.06 9.70L88.06 9.70Q88.47 9.70 88.82 9.67Q89.17 9.65 89.49 9.59Q89.82 9.53 90.16 9.41Q90.51 9.29 90.92 9.10L90.92 9.10L91.33 11.64Q90.51 11.98 89.56 12.12Q88.62 12.26 87.73 12.26L87.73 12.26Q86.70 12.26 85.90 12.10Q85.11 11.93 84.56 11.45Q84.01 10.97 83.72 10.09Q83.43 9.22 83.43 7.80L83.43 7.80Z"/>
    </g>
</svg>