<?xml version="1.0" encoding="UTF-8"?>
<svg height="26" width="90.6" version="1.1" xmlns="http://www.w3.org/2000/svg"><!--Created by Josélio de S. C. Júnior - 2021 - https://github.com/joseliojunior -->
    <rect
        height="24"
        width="88.6"
        rx="1"
        ry="1"
        x="1" y="1"
        fill="#1C3552"
        stroke="#4981c1"
        stroke-width="1" />
    <g transform="translate(0, 8)">
        <path fill="#4981c1" stroke="none" d="M27.86 10L25.74 10L25.28 7.71L22.64 7.71L22.19 10L20.14 10Q20.85 7.07 21.57 4.66Q22.29 2.26 22.96 0.10L22.96 0.10L25.10 0.10Q25.81 2.27 26.50 4.71Q27.20 7.15 27.86 10L27.86 10ZM23.98 2.02L23.98 2.02Q23.82 2.58 23.69 3.08Q23.55 3.58 23.43 4.07Q23.31 4.56 23.21 5.06Q23.10 5.55 23.01 6.08L23.01 6.08L24.94 6.08Q24.85 5.55 24.75 5.06Q24.66 4.56 24.54 4.07Q24.42 3.58 24.28 3.08Q24.14 2.58 23.98 2.02ZM35.01 2.48L35.01 9.74Q34.46 9.89 33.69 10.03Q32.91 10.18 32 10.18L32 10.18Q31.07 10.18 30.48 9.92Q29.89 9.66 29.54 9.19Q29.20 8.72 29.07 8.08Q28.94 7.44 28.94 6.67L28.94 6.67L28.94 2.48L30.91 2.48L30.91 6.42Q30.91 7.46 31.16 7.96Q31.41 8.46 32.13 8.46L32.13 8.46Q32.58 8.46 33.02 8.38L33.02 8.38L33.02 2.48L35.01 2.48ZM38.29 7.20L38.29 4.11L36.58 4.11L36.58 2.48L38.29 2.48L38.29 0.59L40.26 0.27L40.26 2.48L43.41 2.48L43.41 4.11L40.26 4.11L40.26 7.15Q40.26 7.57 40.34 7.82Q40.42 8.08 40.56 8.22Q40.70 8.37 40.91 8.42Q41.12 8.46 41.38 8.46L41.38 8.46Q41.65 8.46 41.88 8.45Q42.11 8.43 42.33 8.39Q42.54 8.35 42.78 8.27Q43.01 8.19 43.28 8.06L43.28 8.06L43.55 9.76Q43.01 9.98 42.38 10.08Q41.74 10.18 41.15 10.18L41.15 10.18Q40.46 10.18 39.94 10.06Q39.41 9.95 39.04 9.63Q38.67 9.31 38.48 8.73Q38.29 8.14 38.29 7.20L38.29 7.20ZM51.55 6.22L51.55 6.22Q51.55 7.12 51.30 7.85Q51.04 8.58 50.58 9.10Q50.11 9.63 49.46 9.92Q48.82 10.21 48.02 10.21L48.02 10.21Q47.22 10.21 46.57 9.92Q45.92 9.63 45.45 9.10Q44.98 8.58 44.72 7.85Q44.46 7.12 44.46 6.22L44.46 6.22Q44.46 5.34 44.73 4.62Q44.99 3.89 45.46 3.37Q45.94 2.85 46.59 2.57Q47.25 2.29 48.02 2.29L48.02 2.29Q48.80 2.29 49.45 2.57Q50.10 2.85 50.57 3.37Q51.04 3.89 51.30 4.62Q51.55 5.34 51.55 6.22ZM46.46 6.24L46.46 6.24Q46.46 7.25 46.82 7.87Q47.18 8.50 47.98 8.50L47.98 8.50Q48.75 8.50 49.14 7.87Q49.54 7.25 49.54 6.24L49.54 6.24Q49.54 5.23 49.18 4.62Q48.82 4 48.02 4L48.02 4Q47.25 4 46.86 4.62Q46.46 5.23 46.46 6.24ZM59.15 10L52.86 10L52.86 8.37L55.02 8.37L55.02 1.73L52.86 1.73L52.86 0.10L59.15 0.10L59.15 1.73L57.01 1.73L57.01 8.37L59.15 8.37L59.15 10ZM62.29 7.20L62.29 4.11L60.58 4.11L60.58 2.48L62.29 2.48L62.29 0.59L64.26 0.27L64.26 2.48L67.41 2.48L67.41 4.11L64.26 4.11L64.26 7.15Q64.26 7.57 64.34 7.82Q64.42 8.08 64.56 8.22Q64.70 8.37 64.91 8.42Q65.12 8.46 65.38 8.46L65.38 8.46Q65.65 8.46 65.88 8.45Q66.11 8.43 66.33 8.39Q66.54 8.35 66.78 8.27Q67.01 8.19 67.28 8.06L67.28 8.06L67.55 9.76Q67.01 9.98 66.38 10.08Q65.74 10.18 65.15 10.18L65.15 10.18Q64.46 10.18 63.94 10.06Q63.41 9.95 63.04 9.63Q62.67 9.31 62.48 8.73Q62.29 8.14 62.29 7.20L62.29 7.20Z"/>
    </g>
</svg>