<?xml version="1.0" encoding="UTF-8"?>
<svg height="34" width="66.2" version="1.1" xmlns="http://www.w3.org/2000/svg"><!--Created by Josélio de S. C. Júnior - 2021 - https://github.com/joseliojunior -->
    <rect
        height="32"
        width="64.2"
        rx="16"
        ry="16"
        x="1" y="1"
        fill="#fab738"
        stroke="#956204"
        stroke-width="1" />
    <g transform="translate(0, 12)">
        <path fill="#956204" stroke="none" d="M23.65 4.56L23.65 4.56Q23.65 5.64 23.73 6.59Q23.82 7.54 24.07 8.23Q24.32 8.93 24.78 9.34Q25.23 9.74 26 9.74L26 9.74Q26.74 9.74 27.21 9.34Q27.68 8.93 27.93 8.22Q28.18 7.51 28.27 6.58Q28.35 5.64 28.35 4.56L28.35 4.56Q28.35 3.48 28.27 2.53Q28.18 1.58 27.93 0.89Q27.68 0.19 27.22-0.22Q26.77-0.62 26-0.62L26-0.62Q25.23-0.62 24.78-0.22Q24.32 0.19 24.07 0.90Q23.82 1.61 23.73 2.54Q23.65 3.48 23.65 4.56ZM20.65 4.56L20.65 4.56Q20.65 0.72 22.06-1.24Q23.48-3.19 26-3.19L26-3.19Q28.62-3.19 29.98-1.24Q31.35 0.72 31.35 4.56L31.35 4.56Q31.35 8.40 29.96 10.36Q28.57 12.31 26.02 12.31L26.02 12.31Q23.41 12.31 22.03 10.36Q20.65 8.40 20.65 4.56ZM42.22 0.72L42.22 2.88Q41.89 3.26 41.26 4.02Q40.64 4.78 39.91 5.71Q39.18 6.65 38.44 7.67Q37.71 8.69 37.14 9.55L37.14 9.55L42.46 9.55L42.46 12L33.61 12L33.61 10.20Q34.16 9.29 34.81 8.33Q35.46 7.37 36.10 6.44Q36.75 5.52 37.38 4.68Q38 3.84 38.50 3.17L38.50 3.17L33.85 3.17L33.85 0.72L42.22 0.72Z"/>
    </g>
</svg>