<?xml version="1.0" encoding="UTF-8"?><svg height="26" width="58.2" version="1.1" xmlns="http://www.w3.org/2000/svg"><!--Created by Josélio de S. C. Júnior - 2021 - https://github.com/joseliojunior --><rect height="24" width="56.2" rx="1" ry="1" x="1" y="1" fill="#fab738" stroke="#956204" stroke-width="1" /><g transform="translate(0, 8)"><path fill="#956204" d="M22.43 5.04L22.43 5.04Q22.43 5.76 22.49 6.39Q22.54 7.02 22.71 7.49Q22.88 7.95 23.18 8.22Q23.49 8.50 24 8.50L24 8.50Q24.50 8.50 24.81 8.22Q25.12 7.95 25.29 7.48Q25.46 7.01 25.51 6.38Q25.57 5.76 25.57 5.04L25.57 5.04Q25.57 4.32 25.51 3.69Q25.46 3.06 25.29 2.59Q25.12 2.13 24.82 1.86Q24.51 1.58 24 1.58L24 1.58Q23.49 1.58 23.18 1.86Q22.88 2.13 22.71 2.60Q22.54 3.07 22.49 3.70Q22.43 4.32 22.43 5.04ZM20.43 5.04L20.43 5.04Q20.43 2.48 21.38 1.18Q22.32-0.13 24-0.13L24-0.13Q25.74-0.13 26.66 1.18Q27.57 2.48 27.57 5.04L27.57 5.04Q27.57 7.60 26.64 8.90Q25.71 10.21 24.02 10.21L24.02 10.21Q22.27 10.21 21.35 8.90Q20.43 7.60 20.43 5.04ZM34.82 2.48L34.82 3.92Q34.59 4.18 34.18 4.68Q33.76 5.18 33.27 5.81Q32.78 6.43 32.30 7.11Q31.81 7.79 31.42 8.37L31.42 8.37L34.98 8.37L34.98 10L29.07 10L29.07 8.80Q29.44 8.19 29.87 7.55Q30.30 6.91 30.74 6.30Q31.17 5.68 31.58 5.12Q32 4.56 32.34 4.11L32.34 4.11L29.23 4.11L29.23 2.48L34.82 2.48Z"/></g></svg>