<?xml version="1.0" encoding="UTF-8"?>
<svg height="34" width="90.4" version="1.1" xmlns="http://www.w3.org/2000/svg"><!--Created by Josélio de S. C. Júnior - 2021 - https://github.com/joseliojunior -->
    <rect
        height="32"
        width="88.4"
        rx="16"
        ry="16"
        x="1" y="1"
        fill="#315665"
        stroke="#72a6bb"
        stroke-width="1" />
    <g transform="translate(0, 12)">
        <path fill="#72a6bb" d="M31.78 12L28.62 12L27.92 8.57L23.96 8.57L23.29 12L20.22 12Q21.27 7.61 22.35 4.00Q23.43 0.38 24.44-2.86L24.44-2.86L27.66-2.86Q28.71 0.41 29.76 4.07Q30.80 7.73 31.78 12L31.78 12ZM25.98 0.02L25.98 0.02Q25.74 0.86 25.53 1.62Q25.33 2.38 25.15 3.11Q24.97 3.84 24.81 4.58Q24.66 5.33 24.51 6.12L24.51 6.12L27.42 6.12Q27.27 5.33 27.13 4.58Q26.98 3.84 26.80 3.11Q26.62 2.38 26.42 1.62Q26.22 0.86 25.98 0.02ZM35.79 6L35.79 6Q35.79 7.39 36.30 8.12Q36.80 8.86 37.88 8.86L37.88 8.86Q38.36 8.86 38.78 8.74Q39.20 8.62 39.54 8.42L39.54 8.42L39.54 3Q39.20 2.93 38.94 2.90Q38.67 2.88 38.38 2.88L38.38 2.88Q35.79 2.88 35.79 6ZM42.51 1.08L42.51 10.63Q42.51 13.39 41.18 14.71Q39.85 16.03 36.90 16.03L36.90 16.03Q35.84 16.03 34.87 15.82Q33.90 15.60 33.01 15.31L33.01 15.31L33.56 12.82Q34.26 13.08 35.02 13.31Q35.79 13.54 36.94 13.54L36.94 13.54Q37.71 13.54 38.22 13.36Q38.72 13.18 39.01 12.86Q39.30 12.55 39.42 12.13Q39.54 11.71 39.54 11.23L39.54 11.23L39.54 10.78Q38.91 11.02 38.40 11.14Q37.88 11.26 37.28 11.26L37.28 11.26Q35.07 11.26 33.93 9.86Q32.79 8.47 32.79 6L32.79 6Q32.79 3.22 34.33 1.85Q35.86 0.48 38.50 0.48L38.50 0.48Q40.35 0.48 42.51 1.08L42.51 1.08ZM47.67 6.29L47.67 6.29Q47.67 7.80 48.24 8.76Q48.80 9.72 50.05 9.72L50.05 9.72Q50.41 9.72 50.72 9.70Q51.03 9.67 51.37 9.62L51.37 9.62L51.37 3.48Q51.03 3.29 50.60 3.16Q50.17 3.02 49.69 3.02L49.69 3.02Q48.63 3.02 48.15 3.86Q47.67 4.70 47.67 6.29ZM54.32-4.66L54.32 11.66Q53.50 11.93 52.33 12.10Q51.15 12.26 50.02 12.26L50.02 12.26Q47.38 12.26 46.03 10.70Q44.67 9.14 44.67 6.43L44.67 6.43Q44.67 3.67 45.81 2.08Q46.95 0.48 49.18 0.48L49.18 0.48Q49.78 0.48 50.36 0.61Q50.94 0.74 51.37 0.98L51.37 0.98L51.37-4.15L54.32-4.66ZM62.02 9.89L62.02 9.89Q62.50 9.89 62.96 9.88Q63.42 9.86 63.75 9.82L63.75 9.82L63.75 7.22Q63.46 7.18 63.06 7.14Q62.65 7.10 62.31 7.10L62.31 7.10Q61.86 7.10 61.42 7.16Q60.99 7.22 60.67 7.37Q60.34 7.51 60.15 7.78Q59.96 8.04 59.96 8.47L59.96 8.47Q59.96 9.24 60.54 9.56Q61.11 9.89 62.02 9.89ZM61.76 0.43L61.76 0.43Q63.15 0.43 64.08 0.76Q65 1.08 65.55 1.67Q66.10 2.26 66.34 3.11Q66.58 3.96 66.58 5.02L66.58 5.02L66.58 11.74Q65.94 11.88 64.66 12.07Q63.39 12.26 61.81 12.26L61.81 12.26Q60.73 12.26 59.85 12.07Q58.98 11.88 58.35 11.44Q57.73 10.99 57.39 10.28Q57.06 9.58 57.06 8.54L57.06 8.54Q57.06 7.56 57.44 6.89Q57.82 6.22 58.47 5.81Q59.12 5.40 59.96 5.22Q60.80 5.04 61.71 5.04L61.71 5.04Q62.86 5.04 63.75 5.23L63.75 5.23L63.75 4.87Q63.75 4.03 63.22 3.47Q62.70 2.90 61.40 2.90L61.40 2.90Q60.56 2.90 59.78 3.02Q59 3.14 58.52 3.31L58.52 3.31L58.11 0.94Q58.66 0.74 59.67 0.59Q60.68 0.43 61.76 0.43Z"/>
    </g>
</svg>