<?xml version="1.0" encoding="UTF-8"?>
<svg height="34" width="78.4" version="1.1" xmlns="http://www.w3.org/2000/svg">
    <rect
        height="32"
        width="76.4"
        rx="1"
        ry="1"
        x="1"
        y="1"
        fill="#315665"
        stroke="#72a6bb"
        stroke-width="1"
         />
    <g transform="translate(0, 14)">
        <path fill="#72a6bb" d="M23.75 11L20.05 11L19.24 7.00L14.62 7.00L13.84 11L10.25 11Q11.48 5.88 12.74 1.66Q14.00-2.55 15.18-6.33L15.18-6.33L18.93-6.33Q20.16-2.52 21.38 1.75Q22.60 6.02 23.75 11L23.75 11ZM16.97-2.97L16.97-2.97Q16.69-1.99 16.45-1.11Q16.22-0.23 16.01 0.63Q15.80 1.48 15.61 2.35Q15.43 3.22 15.26 4.14L15.26 4.14L18.65 4.14Q18.48 3.22 18.32 2.35Q18.15 1.48 17.94 0.63Q17.73-0.23 17.49-1.11Q17.25-1.99 16.97-2.97ZM28.42 4L28.42 4Q28.42 5.62 29.01 6.48Q29.60 7.33 30.86 7.33L30.86 7.33Q31.42 7.33 31.91 7.19Q32.40 7.05 32.79 6.83L32.79 6.83L32.79 0.50Q32.40 0.42 32.09 0.39Q31.78 0.36 31.45 0.36L31.45 0.36Q28.42 0.36 28.42 4ZM36.26-1.74L36.26 9.40Q36.26 12.62 34.71 14.16Q33.16 15.70 29.71 15.70L29.71 15.70Q28.48 15.70 27.35 15.45Q26.21 15.20 25.18 14.86L25.18 14.86L25.82 11.95Q26.63 12.26 27.53 12.53Q28.42 12.79 29.77 12.79L29.77 12.79Q30.66 12.79 31.25 12.58Q31.84 12.37 32.18 12.01Q32.51 11.64 32.65 11.15Q32.79 10.66 32.79 10.10L32.79 10.10L32.79 9.57Q32.06 9.85 31.46 9.99Q30.86 10.13 30.16 10.13L30.16 10.13Q27.58 10.13 26.25 8.51Q24.92 6.88 24.92 4L24.92 4Q24.92 0.75 26.72-0.84Q28.51-2.44 31.59-2.44L31.59-2.44Q33.74-2.44 36.26-1.74L36.26-1.74ZM42.28 4.34L42.28 4.34Q42.28 6.10 42.94 7.22Q43.60 8.34 45.06 8.34L45.06 8.34Q45.48 8.34 45.84 8.31Q46.20 8.28 46.60 8.23L46.60 8.23L46.60 1.06Q46.20 0.84 45.70 0.68Q45.20 0.53 44.64 0.53L44.64 0.53Q43.40 0.53 42.84 1.51Q42.28 2.49 42.28 4.34ZM50.04-8.43L50.04 10.61Q49.09 10.92 47.72 11.11Q46.34 11.31 45.03 11.31L45.03 11.31Q41.95 11.31 40.37 9.49Q38.78 7.67 38.78 4.50L38.78 4.50Q38.78 1.28 40.11-0.58Q41.44-2.44 44.05-2.44L44.05-2.44Q44.75-2.44 45.42-2.29Q46.09-2.13 46.60-1.85L46.60-1.85L46.60-7.84L50.04-8.43ZM59.03 8.54L59.03 8.54Q59.59 8.54 60.12 8.52Q60.65 8.51 61.04 8.45L61.04 8.45L61.04 5.43Q60.71 5.37 60.23 5.33Q59.76 5.29 59.36 5.29L59.36 5.29Q58.83 5.29 58.33 5.36Q57.82 5.43 57.45 5.60Q57.07 5.76 56.84 6.07Q56.62 6.38 56.62 6.88L56.62 6.88Q56.62 7.78 57.29 8.16Q57.96 8.54 59.03 8.54ZM58.72-2.50L58.72-2.50Q60.34-2.50 61.42-2.12Q62.50-1.74 63.14-1.05Q63.79-0.37 64.07 0.63Q64.35 1.62 64.35 2.85L64.35 2.85L64.35 10.69Q63.59 10.86 62.11 11.08Q60.62 11.31 58.78 11.31L58.78 11.31Q57.52 11.31 56.49 11.08Q55.47 10.86 54.74 10.34Q54.02 9.82 53.62 9.00Q53.23 8.17 53.23 6.97L53.23 6.97Q53.23 5.82 53.68 5.04Q54.13 4.25 54.88 3.78Q55.64 3.30 56.62 3.09Q57.60 2.88 58.66 2.88L58.66 2.88Q60.01 2.88 61.04 3.10L61.04 3.10L61.04 2.68Q61.04 1.70 60.43 1.05Q59.81 0.39 58.30 0.39L58.30 0.39Q57.32 0.39 56.41 0.53Q55.50 0.67 54.94 0.86L54.94 0.86L54.46-1.91Q55.11-2.13 56.28-2.31Q57.46-2.50 58.72-2.50Z"/>
    </g>
</svg>