<?xml version="1.0" encoding="UTF-8"?>
<svg height="34" width="134.8" version="1.1" xmlns="http://www.w3.org/2000/svg">
    <rect
        height="32"
        width="132.8"
        rx="14"
        ry="14"
        x="1"
        y="1"
        fill="#AA70FF"
        stroke="#4100a3"
        stroke-width="1"
         />
    <g transform="translate(0, 14)">
        <path fill="#4100a3" d="M14.26 2.32L14.26 2.32Q14.26 3.58 14.35 4.69Q14.45 5.79 14.75 6.60Q15.04 7.42 15.57 7.89Q16.10 8.37 17 8.37L17 8.37Q17.87 8.37 18.41 7.89Q18.96 7.42 19.25 6.59Q19.55 5.76 19.65 4.67Q19.74 3.58 19.74 2.32L19.74 2.32Q19.74 1.06 19.65-0.05Q19.55-1.15 19.25-1.96Q18.96-2.78 18.43-3.25Q17.90-3.73 17-3.73L17-3.73Q16.10-3.73 15.57-3.25Q15.04-2.78 14.75-1.95Q14.45-1.12 14.35-0.03Q14.26 1.06 14.26 2.32ZM10.76 2.32L10.76 2.32Q10.76-2.16 12.41-4.44Q14.06-6.72 17-6.72L17-6.72Q20.05-6.72 21.65-4.44Q23.24-2.16 23.24 2.32L23.24 2.32Q23.24 6.80 21.62 9.08Q20.00 11.36 17.03 11.36L17.03 11.36Q13.98 11.36 12.37 9.08Q10.76 6.80 10.76 2.32ZM33.63 4.53L33.63 4.53Q33.63 2.77 32.93 1.63Q32.23 0.50 30.80 0.50L30.80 0.50Q30.41 0.50 29.96 0.54Q29.52 0.58 29.21 0.61L29.21 0.61L29.21 7.84Q29.54 8.06 30.10 8.20Q30.66 8.34 31.22 8.34L31.22 8.34Q32.46 8.34 33.04 7.35Q33.63 6.35 33.63 4.53ZM37.13 4.42L37.13 4.42Q37.13 5.93 36.80 7.21Q36.46 8.48 35.82 9.39Q35.17 10.30 34.19 10.80Q33.21 11.31 31.92 11.31L31.92 11.31Q30.61 11.31 29.21 10.66L29.21 10.66L29.21 15.62L25.76 15.62L25.76-1.74Q26.72-2.05 28.10-2.24Q29.49-2.44 30.83-2.44L30.83-2.44Q33.88-2.44 35.51-0.59Q37.13 1.26 37.13 4.42ZM38.87 4.53L38.87 4.53Q38.87 2.80 39.40 1.48Q39.93 0.16 40.80-0.72Q41.67-1.60 42.79-2.05Q43.91-2.50 45.08-2.50L45.08-2.50Q48.00-2.50 49.51-0.77Q51.02 0.95 51.02 4.25L51.02 4.25Q51.02 4.59 51.01 4.95Q50.99 5.32 50.96 5.54L50.96 5.54L42.42 5.54Q42.42 6.83 43.49 7.57Q44.55 8.31 46.23 8.31L46.23 8.31Q47.27 8.31 48.21 8.09Q49.14 7.86 49.79 7.64L49.79 7.64L50.26 10.58Q49.37 10.89 48.36 11.10Q47.35 11.31 46.09 11.31L46.09 11.31Q44.41 11.31 43.08 10.87Q41.75 10.44 40.81 9.59Q39.88 8.73 39.37 7.47Q38.87 6.21 38.87 4.53ZM42.42 3.16L47.69 3.16Q47.69 2.63 47.55 2.14Q47.41 1.65 47.10 1.26Q46.79 0.86 46.32 0.63Q45.84 0.39 45.14 0.39L45.14 0.39Q44.47 0.39 43.98 0.61Q43.49 0.84 43.17 1.23Q42.84 1.62 42.66 2.12Q42.48 2.63 42.42 3.16L42.42 3.16ZM53.76 11L53.76-1.74Q54.69-1.99 56.05-2.22Q57.40-2.44 59-2.44L59-2.44Q60.57-2.44 61.60-2.01Q62.64-1.57 63.24-0.77Q63.84 0.02 64.10 1.13Q64.35 2.24 64.35 3.58L64.35 3.58L64.35 11L60.90 11L60.90 4.03Q60.90 2.18 60.48 1.37Q60.06 0.56 58.78 0.56L58.78 0.56Q58.38 0.56 58.01 0.58Q57.63 0.61 57.21 0.67L57.21 0.67L57.21 11L53.76 11ZM66.76 2.40L66.76 2.40Q66.76-2.08 68.41-4.36Q70.06-6.64 73-6.64L73-6.64Q76.05-6.64 77.65-4.36Q79.24-2.08 79.24 2.40L79.24 2.40Q79.24 6.32 77.98 8.58Q76.72 10.83 74.34 11.31L74.34 11.31Q74.65 12.01 75.84 12.47Q77.03 12.93 79.10 13.30L79.10 13.30L78.38 15.76Q75.10 15.31 73.43 14.26Q71.77 13.21 71.46 11.25L71.46 11.25Q69.19 10.69 67.97 8.47Q66.76 6.24 66.76 2.40ZM70.26 2.40L70.26 2.40Q70.26 3.66 70.35 4.76Q70.45 5.85 70.75 6.67Q71.04 7.50 71.57 7.98Q72.10 8.45 73 8.45L73 8.45Q73.87 8.45 74.41 7.98Q74.96 7.50 75.25 6.67Q75.55 5.85 75.65 4.76Q75.74 3.66 75.74 2.40L75.74 2.40Q75.74 1.14 75.65 0.04Q75.55-1.07 75.25-1.88Q74.96-2.69 74.43-3.17Q73.90-3.64 73-3.64L73-3.64Q72.10-3.64 71.57-3.17Q71.04-2.69 70.75-1.87Q70.45-1.04 70.35 0.05Q70.26 1.14 70.26 2.40ZM93.75 11L90.05 11L89.24 7.00L84.62 7.00L83.84 11L80.25 11Q81.48 5.88 82.74 1.66Q84.00-2.55 85.18-6.33L85.18-6.33L88.93-6.33Q90.16-2.52 91.38 1.75Q92.60 6.02 93.75 11L93.75 11ZM86.97-2.97L86.97-2.97Q86.69-1.99 86.45-1.11Q86.22-0.23 86.01 0.63Q85.80 1.48 85.61 2.35Q85.43 3.22 85.26 4.14L85.26 4.14L88.65 4.14Q88.48 3.22 88.32 2.35Q88.15 1.48 87.94 0.63Q87.73-0.23 87.49-1.11Q87.25-1.99 86.97-2.97ZM100.50 8.48L100.50 8.48Q101.36 8.48 101.94 8.30Q102.51 8.12 102.85 7.79Q103.18 7.47 103.31 7.07Q103.44 6.66 103.44 6.24L103.44 6.24Q103.44 5.71 103.13 5.29Q102.82 4.87 102.34 4.55Q101.87 4.22 101.28 3.96Q100.69 3.69 100.10 3.47L100.10 3.47Q99.32 3.19 98.48 2.82Q97.64 2.46 96.95 1.90Q96.27 1.34 95.82 0.51Q95.37-0.31 95.37-1.54L95.37-1.54Q95.37-3.98 96.95-5.35Q98.54-6.72 101.31-6.72L101.31-6.72Q102.90-6.72 104.09-6.36Q105.28-6.00 106.10-5.55L106.10-5.55L105.09-2.89Q104.39-3.28 103.53-3.56Q102.68-3.84 101.56-3.84L101.56-3.84Q98.82-3.84 98.82-1.85L98.82-1.85Q98.82-1.35 99.10-0.97Q99.38-0.59 99.81-0.30Q100.24-0.00 100.79 0.22Q101.34 0.44 101.87 0.64L101.87 0.64Q102.68 0.95 103.56 1.33Q104.44 1.70 105.19 2.33Q105.93 2.96 106.40 3.90Q106.88 4.84 106.88 6.27L106.88 6.27Q106.88 8.70 105.30 10.03Q103.72 11.36 100.50 11.36L100.50 11.36Q98.34 11.36 97.05 10.90Q95.76 10.44 95.12 10.05L95.12 10.05L96.13 7.25Q96.88 7.70 97.93 8.09Q98.98 8.48 100.50 8.48ZM109.65-6.33L112.51-6.33Q112.70-5.74 113.00-4.82Q113.29-3.90 113.63-2.83Q113.96-1.77 114.30-0.68Q114.64 0.42 114.94 1.34L114.94 1.34Q115.28 0.30 115.64-0.80Q116.01-1.91 116.34-2.93Q116.68-3.95 116.96-4.85Q117.24-5.74 117.46-6.33L117.46-6.33L120.32-6.33Q120.52-4.06 120.70-1.91Q120.88 0.25 121.01 2.36Q121.13 4.48 121.22 6.62Q121.30 8.76 121.36 11L121.36 11L118.19 11L118.36-2.47L116.23 4.87L113.71 4.87L111.67-2.47L111.81 11L108.64 11Q108.73 8.87 108.83 6.58Q108.92 4.28 109.04 2.01Q109.15-0.26 109.30-2.38Q109.46-4.51 109.65-6.33L109.65-6.33Z"/>
    </g>
</svg>