<?xml version="1.0" encoding="UTF-8"?><svg height="26" width="106.8" version="1.1" xmlns="http://www.w3.org/2000/svg"><!--Created by Josélio de S. C. Júnior - 2021 - https://github.com/joseliojunior --><rect height="24" width="104.8" rx="12" ry="12" x="1" y="1" fill="#AA70FF" stroke="#4100a3" stroke-width="1" /><g transform="translate(0, 8)"><path fill="#4100a3" d="M22.43 5.04L22.43 5.04Q22.43 5.76 22.49 6.39Q22.54 7.02 22.71 7.49Q22.88 7.95 23.18 8.22Q23.49 8.50 24 8.50L24 8.50Q24.50 8.50 24.81 8.22Q25.12 7.95 25.29 7.48Q25.46 7.01 25.51 6.38Q25.57 5.76 25.57 5.04L25.57 5.04Q25.57 4.32 25.51 3.69Q25.46 3.06 25.29 2.59Q25.12 2.13 24.82 1.86Q24.51 1.58 24 1.58L24 1.58Q23.49 1.58 23.18 1.86Q22.88 2.13 22.71 2.60Q22.54 3.07 22.49 3.70Q22.43 4.32 22.43 5.04ZM20.43 5.04L20.43 5.04Q20.43 2.48 21.38 1.18Q22.32-0.13 24-0.13L24-0.13Q25.74-0.13 26.66 1.18Q27.57 2.48 27.57 5.04L27.57 5.04Q27.57 7.60 26.64 8.90Q25.71 10.21 24.02 10.21L24.02 10.21Q22.27 10.21 21.35 8.90Q20.43 7.60 20.43 5.04ZM33.50 6.30L33.50 6.30Q33.50 5.30 33.10 4.65Q32.70 4 31.89 4L31.89 4Q31.66 4 31.41 4.02Q31.15 4.05 30.98 4.06L30.98 4.06L30.98 8.19Q31.17 8.32 31.49 8.40Q31.81 8.48 32.13 8.48L32.13 8.48Q32.83 8.48 33.17 7.91Q33.50 7.34 33.50 6.30ZM35.50 6.24L35.50 6.24Q35.50 7.10 35.31 7.83Q35.12 8.56 34.75 9.08Q34.38 9.60 33.82 9.89Q33.26 10.18 32.53 10.18L32.53 10.18Q31.78 10.18 30.98 9.81L30.98 9.81L30.98 12.64L29.01 12.64L29.01 2.72Q29.55 2.54 30.34 2.43Q31.14 2.32 31.90 2.32L31.90 2.32Q33.65 2.32 34.58 3.38Q35.50 4.43 35.50 6.24ZM36.50 6.30L36.50 6.30Q36.50 5.31 36.80 4.56Q37.10 3.81 37.60 3.30Q38.10 2.80 38.74 2.54Q39.38 2.29 40.05 2.29L40.05 2.29Q41.71 2.29 42.58 3.27Q43.44 4.26 43.44 6.14L43.44 6.14Q43.44 6.34 43.43 6.54Q43.42 6.75 43.41 6.88L43.41 6.88L38.53 6.88Q38.53 7.62 39.14 8.04Q39.74 8.46 40.70 8.46L40.70 8.46Q41.30 8.46 41.83 8.34Q42.37 8.21 42.74 8.08L42.74 8.08L43.01 9.76Q42.50 9.94 41.92 10.06Q41.34 10.18 40.62 10.18L40.62 10.18Q39.66 10.18 38.90 9.93Q38.14 9.68 37.61 9.19Q37.07 8.70 36.78 7.98Q36.50 7.26 36.50 6.30ZM38.53 5.52L41.54 5.52Q41.54 5.22 41.46 4.94Q41.38 4.66 41.20 4.43Q41.02 4.21 40.75 4.07Q40.48 3.94 40.08 3.94L40.08 3.94Q39.70 3.94 39.42 4.06Q39.14 4.19 38.95 4.42Q38.77 4.64 38.66 4.93Q38.56 5.22 38.53 5.52L38.53 5.52ZM45.01 10L45.01 2.72Q45.54 2.58 46.31 2.45Q47.09 2.32 48 2.32L48 2.32Q48.90 2.32 49.49 2.57Q50.08 2.82 50.42 3.27Q50.77 3.73 50.91 4.36Q51.06 4.99 51.06 5.76L51.06 5.76L51.06 10L49.09 10L49.09 6.02Q49.09 4.96 48.85 4.50Q48.61 4.03 47.87 4.03L47.87 4.03Q47.65 4.03 47.43 4.05Q47.22 4.06 46.98 4.10L46.98 4.10L46.98 10L45.01 10ZM52.43 5.09L52.43 5.09Q52.43 2.53 53.38 1.22Q54.32-0.08 56-0.08L56-0.08Q57.74-0.08 58.66 1.22Q59.57 2.53 59.57 5.09L59.57 5.09Q59.57 7.33 58.85 8.62Q58.13 9.90 56.77 10.18L56.77 10.18Q56.94 10.58 57.62 10.84Q58.30 11.10 59.49 11.31L59.49 11.31L59.07 12.72Q57.20 12.46 56.25 11.86Q55.30 11.26 55.12 10.14L55.12 10.14Q53.82 9.82 53.13 8.55Q52.43 7.28 52.43 5.09ZM54.43 5.09L54.43 5.09Q54.43 5.81 54.49 6.43Q54.54 7.06 54.71 7.53Q54.88 8 55.18 8.27Q55.49 8.54 56 8.54L56 8.54Q56.50 8.54 56.81 8.27Q57.12 8 57.29 7.53Q57.46 7.06 57.51 6.43Q57.57 5.81 57.57 5.09L57.57 5.09Q57.57 4.37 57.51 3.74Q57.46 3.10 57.29 2.64Q57.12 2.18 56.82 1.90Q56.51 1.63 56 1.63L56 1.63Q55.49 1.63 55.18 1.90Q54.88 2.18 54.71 2.65Q54.54 3.12 54.49 3.74Q54.43 4.37 54.43 5.09ZM67.86 10L65.74 10L65.28 7.71L62.64 7.71L62.19 10L60.14 10Q60.85 7.07 61.57 4.66Q62.29 2.26 62.96 0.10L62.96 0.10L65.10 0.10Q65.81 2.27 66.50 4.71Q67.20 7.15 67.86 10L67.86 10ZM63.98 2.02L63.98 2.02Q63.82 2.58 63.69 3.08Q63.55 3.58 63.43 4.07Q63.31 4.56 63.21 5.06Q63.10 5.55 63.01 6.08L63.01 6.08L64.94 6.08Q64.85 5.55 64.75 5.06Q64.66 4.56 64.54 4.07Q64.42 3.58 64.28 3.08Q64.14 2.58 63.98 2.02ZM71.71 8.56L71.71 8.56Q72.21 8.56 72.54 8.46Q72.86 8.35 73.06 8.17Q73.25 7.98 73.32 7.75Q73.39 7.52 73.39 7.28L73.39 7.28Q73.39 6.98 73.22 6.74Q73.04 6.50 72.77 6.31Q72.50 6.13 72.16 5.98Q71.82 5.82 71.49 5.70L71.49 5.70Q71.04 5.54 70.56 5.33Q70.08 5.12 69.69 4.80Q69.30 4.48 69.04 4.01Q68.78 3.54 68.78 2.83L68.78 2.83Q68.78 1.44 69.69 0.66Q70.59-0.13 72.18-0.13L72.18-0.13Q73.09-0.13 73.77 0.08Q74.45 0.29 74.91 0.54L74.91 0.54L74.34 2.06Q73.94 1.84 73.45 1.68Q72.96 1.52 72.32 1.52L72.32 1.52Q70.75 1.52 70.75 2.66L70.75 2.66Q70.75 2.94 70.91 3.16Q71.07 3.38 71.32 3.54Q71.57 3.71 71.88 3.84Q72.19 3.97 72.50 4.08L72.50 4.08Q72.96 4.26 73.46 4.47Q73.97 4.69 74.39 5.05Q74.82 5.41 75.09 5.94Q75.36 6.48 75.36 7.30L75.36 7.30Q75.36 8.69 74.46 9.45Q73.55 10.21 71.71 10.21L71.71 10.21Q70.48 10.21 69.74 9.94Q69.01 9.68 68.64 9.46L68.64 9.46L69.22 7.86Q69.65 8.11 70.25 8.34Q70.85 8.56 71.71 8.56ZM76.94 0.10L78.58 0.10Q78.69 0.43 78.86 0.96Q79.02 1.49 79.22 2.10Q79.41 2.70 79.60 3.33Q79.79 3.95 79.97 4.48L79.97 4.48Q80.16 3.89 80.37 3.26Q80.58 2.62 80.77 2.04Q80.96 1.46 81.12 0.94Q81.28 0.43 81.41 0.10L81.41 0.10L83.04 0.10Q83.15 1.39 83.26 2.62Q83.36 3.86 83.43 5.06Q83.50 6.27 83.55 7.50Q83.60 8.72 83.63 10L83.63 10L81.82 10L81.92 2.30L80.70 6.50L79.26 6.50L78.10 2.30L78.18 10L76.37 10Q76.42 8.78 76.47 7.47Q76.53 6.16 76.59 4.86Q76.66 3.57 76.74 2.35Q76.83 1.14 76.94 0.10L76.94 0.10Z"/></g></svg>