<?xml version="1.0" encoding="UTF-8"?>
<svg height="322" width="138.8" version="1.1" xmlns="http://www.w3.org/2000/svg"><!--Created by Josélio de S. C. Júnior - 2021 - https://github.com/joseliojunior -->
    <rect
        height="32"
        width="136.8"
        rx="16"
        ry="16"
        x="1" y="1"
        fill="#AA70FF"
        stroke="#4100a3"
        stroke-width="1" />
    <g transform="translate(0, 12)">
        <path fill="#4100a3" stroke="none" d="M23.65 4.56L23.65 4.56Q23.65 5.64 23.73 6.59Q23.82 7.54 24.07 8.23Q24.32 8.93 24.78 9.34Q25.23 9.74 26 9.74L26 9.74Q26.74 9.74 27.21 9.34Q27.68 8.93 27.93 8.22Q28.18 7.51 28.27 6.58Q28.35 5.64 28.35 4.56L28.35 4.56Q28.35 3.48 28.27 2.53Q28.18 1.58 27.93 0.89Q27.68 0.19 27.22-0.22Q26.77-0.62 26-0.62L26-0.62Q25.23-0.62 24.78-0.22Q24.32 0.19 24.07 0.90Q23.82 1.61 23.73 2.54Q23.65 3.48 23.65 4.56ZM20.65 4.56L20.65 4.56Q20.65 0.72 22.06-1.24Q23.48-3.19 26-3.19L26-3.19Q28.62-3.19 29.98-1.24Q31.35 0.72 31.35 4.56L31.35 4.56Q31.35 8.40 29.96 10.36Q28.57 12.31 26.02 12.31L26.02 12.31Q23.41 12.31 22.03 10.36Q20.65 8.40 20.65 4.56ZM40.26 6.46L40.26 6.46Q40.26 4.94 39.66 3.97Q39.06 3 37.83 3L37.83 3Q37.50 3 37.11 3.04Q36.73 3.07 36.46 3.10L36.46 3.10L36.46 9.29Q36.75 9.48 37.23 9.60Q37.71 9.72 38.19 9.72L38.19 9.72Q39.25 9.72 39.75 8.87Q40.26 8.02 40.26 6.46ZM43.26 6.36L43.26 6.36Q43.26 7.66 42.97 8.75Q42.68 9.84 42.13 10.62Q41.58 11.40 40.74 11.83Q39.90 12.26 38.79 12.26L38.79 12.26Q37.66 12.26 36.46 11.71L36.46 11.71L36.46 15.96L33.51 15.96L33.51 1.08Q34.33 0.82 35.52 0.65Q36.70 0.48 37.86 0.48L37.86 0.48Q40.47 0.48 41.86 2.06Q43.26 3.65 43.26 6.36ZM44.74 6.46L44.74 6.46Q44.74 4.97 45.20 3.84Q45.66 2.71 46.40 1.96Q47.14 1.20 48.10 0.82Q49.06 0.43 50.07 0.43L50.07 0.43Q52.57 0.43 53.86 1.91Q55.16 3.38 55.16 6.22L55.16 6.22Q55.16 6.50 55.15 6.82Q55.14 7.13 55.11 7.32L55.11 7.32L47.79 7.32Q47.79 8.42 48.70 9.06Q49.62 9.70 51.06 9.70L51.06 9.70Q51.94 9.70 52.75 9.50Q53.55 9.31 54.10 9.12L54.10 9.12L54.51 11.64Q53.74 11.90 52.88 12.08Q52.02 12.26 50.94 12.26L50.94 12.26Q49.50 12.26 48.36 11.89Q47.22 11.52 46.41 10.79Q45.61 10.06 45.18 8.98Q44.74 7.90 44.74 6.46ZM47.79 5.28L52.30 5.28Q52.30 4.82 52.18 4.40Q52.06 3.98 51.80 3.65Q51.54 3.31 51.13 3.11Q50.72 2.90 50.12 2.90L50.12 2.90Q49.54 2.90 49.12 3.10Q48.70 3.29 48.43 3.62Q48.15 3.96 48.00 4.39Q47.84 4.82 47.79 5.28L47.79 5.28ZM57.51 12L57.51 1.08Q58.30 0.86 59.47 0.67Q60.63 0.48 62 0.48L62 0.48Q63.34 0.48 64.23 0.85Q65.12 1.22 65.64 1.91Q66.15 2.59 66.37 3.54Q66.58 4.49 66.58 5.64L66.58 5.64L66.58 12L63.63 12L63.63 6.02Q63.63 4.44 63.27 3.74Q62.91 3.05 61.81 3.05L61.81 3.05Q61.47 3.05 61.15 3.07Q60.82 3.10 60.46 3.14L60.46 3.14L60.46 12L57.51 12ZM68.65 4.63L68.65 4.63Q68.65 0.79 70.06-1.16Q71.48-3.12 74-3.12L74-3.12Q76.62-3.12 77.98-1.16Q79.35 0.79 79.35 4.63L79.35 4.63Q79.35 7.99 78.27 9.92Q77.19 11.86 75.15 12.26L75.15 12.26Q75.42 12.86 76.44 13.26Q77.46 13.66 79.23 13.97L79.23 13.97L78.61 16.08Q75.80 15.70 74.37 14.80Q72.94 13.90 72.68 12.22L72.68 12.22Q70.74 11.74 69.69 9.83Q68.65 7.92 68.65 4.63ZM71.65 4.63L71.65 4.63Q71.65 5.71 71.73 6.65Q71.82 7.58 72.07 8.29Q72.32 9 72.78 9.41Q73.23 9.82 74 9.82L74 9.82Q74.74 9.82 75.21 9.41Q75.68 9 75.93 8.29Q76.18 7.58 76.27 6.65Q76.35 5.71 76.35 4.63L76.35 4.63Q76.35 3.55 76.27 2.60Q76.18 1.66 75.93 0.96Q75.68 0.26 75.22-0.14Q74.77-0.55 74-0.55L74-0.55Q73.23-0.55 72.78-0.14Q72.32 0.26 72.07 0.97Q71.82 1.68 71.73 2.62Q71.65 3.55 71.65 4.63ZM91.78 12L88.62 12L87.92 8.57L83.96 8.57L83.29 12L80.22 12Q81.27 7.61 82.35 4.00Q83.43 0.38 84.44-2.86L84.44-2.86L87.66-2.86Q88.71 0.41 89.76 4.07Q90.80 7.73 91.78 12L91.78 12ZM85.98 0.02L85.98 0.02Q85.74 0.86 85.53 1.62Q85.33 2.38 85.15 3.11Q84.97 3.84 84.81 4.58Q84.66 5.33 84.51 6.12L84.51 6.12L87.42 6.12Q87.27 5.33 87.13 4.58Q86.98 3.84 86.80 3.11Q86.62 2.38 86.42 1.62Q86.22 0.86 85.98 0.02ZM97.57 9.84L97.57 9.84Q98.31 9.84 98.80 9.68Q99.30 9.53 99.58 9.25Q99.87 8.98 99.98 8.63Q100.09 8.28 100.09 7.92L100.09 7.92Q100.09 7.46 99.82 7.10Q99.56 6.74 99.15 6.47Q98.74 6.19 98.24 5.96Q97.74 5.74 97.23 5.54L97.23 5.54Q96.56 5.30 95.84 4.99Q95.12 4.68 94.53 4.20Q93.94 3.72 93.56 3.01Q93.18 2.30 93.18 1.25L93.18 1.25Q93.18-0.84 94.53-2.02Q95.89-3.19 98.26-3.19L98.26-3.19Q99.63-3.19 100.65-2.88Q101.67-2.57 102.37-2.18L102.37-2.18L101.50 0.10Q100.90-0.24 100.17-0.48Q99.44-0.72 98.48-0.72L98.48-0.72Q96.13-0.72 96.13 0.98L96.13 0.98Q96.13 1.42 96.37 1.74Q96.61 2.06 96.98 2.32Q97.35 2.57 97.82 2.76Q98.29 2.95 98.74 3.12L98.74 3.12Q99.44 3.38 100.20 3.71Q100.95 4.03 101.59 4.57Q102.22 5.11 102.63 5.92Q103.04 6.72 103.04 7.94L103.04 7.94Q103.04 10.03 101.68 11.17Q100.33 12.31 97.57 12.31L97.57 12.31Q95.72 12.31 94.62 11.92Q93.51 11.52 92.96 11.18L92.96 11.18L93.82 8.78Q94.47 9.17 95.37 9.50Q96.27 9.84 97.57 9.84ZM105.42-2.86L107.86-2.86Q108.03-2.35 108.28-1.56Q108.54-0.77 108.82 0.14Q109.11 1.06 109.40 1.99Q109.69 2.93 109.95 3.72L109.95 3.72Q110.24 2.83 110.55 1.88Q110.86 0.94 111.15 0.06Q111.44-0.82 111.68-1.58Q111.92-2.35 112.11-2.86L112.11-2.86L114.56-2.86Q114.73-0.91 114.88 0.94Q115.04 2.78 115.15 4.60Q115.26 6.41 115.33 8.24Q115.40 10.08 115.45 12L115.45 12L112.74 12L112.88 0.46L111.06 6.74L108.90 6.74L107.14 0.46L107.26 12L104.55 12Q104.62 10.18 104.71 8.21Q104.79 6.24 104.89 4.30Q104.98 2.35 105.12 0.53Q105.25-1.30 105.42-2.86L105.42-2.86Z"/>
    </g>
</svg>