<?xml version="1.0" encoding="UTF-8"?>
<svg height="26" width="139.2" version="1.1" xmlns="http://www.w3.org/2000/svg"><!--Created by Josélio de S. C. Júnior - 2021 - https://github.com/joseliojunior -->
<rect
    height="24"
    width="137.2"
    rx="1"
    ry="1"
    x="1" y="1"
    fill="#282c34"
    stroke="#61dafb"
    stroke-width="1" />
<g transform="translate(0, 8)">
    <path fill="#61dafb" d="M23.42-0.02L23.42-0.02Q24.27-0.02 24.96 0.18Q25.65 0.37 26.14 0.77Q26.64 1.17 26.90 1.78Q27.17 2.40 27.17 3.23L27.17 3.23Q27.17 4.10 26.82 4.80Q26.46 5.50 25.65 5.87L25.65 5.87Q25.92 6.29 26.22 6.79Q26.53 7.30 26.82 7.85Q27.10 8.40 27.37 8.95Q27.63 9.50 27.82 10L27.82 10L25.76 10Q25.39 9.04 24.90 8.15Q24.42 7.26 23.86 6.35L23.86 6.35L22.83 6.35L22.83 10L20.86 10L20.86 0.24Q21.15 0.18 21.50 0.12Q21.84 0.06 22.19 0.04Q22.54 0.02 22.86 0Q23.18-0.02 23.42-0.02ZM25.17 3.22L25.17 3.22Q25.17 2.43 24.69 2.06Q24.21 1.70 23.42 1.70L23.42 1.70Q23.31 1.70 23.15 1.70Q22.99 1.71 22.83 1.74L22.83 1.74L22.83 4.72L23.26 4.72Q24.27 4.72 24.72 4.33Q25.17 3.94 25.17 3.22ZM28.50 6.30L28.50 6.30Q28.50 5.31 28.80 4.56Q29.10 3.81 29.60 3.30Q30.10 2.80 30.74 2.54Q31.38 2.29 32.05 2.29L32.05 2.29Q33.71 2.29 34.58 3.27Q35.44 4.26 35.44 6.14L35.44 6.14Q35.44 6.34 35.43 6.54Q35.42 6.75 35.41 6.88L35.41 6.88L30.53 6.88Q30.53 7.62 31.14 8.04Q31.74 8.46 32.70 8.46L32.70 8.46Q33.30 8.46 33.83 8.34Q34.37 8.21 34.74 8.08L34.74 8.08L35.01 9.76Q34.50 9.94 33.92 10.06Q33.34 10.18 32.62 10.18L32.62 10.18Q31.66 10.18 30.90 9.93Q30.14 9.68 29.61 9.19Q29.07 8.70 28.78 7.98Q28.50 7.26 28.50 6.30ZM30.53 5.52L33.54 5.52Q33.54 5.22 33.46 4.94Q33.38 4.66 33.20 4.43Q33.02 4.21 32.75 4.07Q32.48 3.94 32.08 3.94L32.08 3.94Q31.70 3.94 31.42 4.06Q31.14 4.19 30.95 4.42Q30.77 4.64 30.66 4.93Q30.56 5.22 30.53 5.52L30.53 5.52ZM40.02 8.59L40.02 8.59Q40.34 8.59 40.64 8.58Q40.94 8.58 41.17 8.54L41.17 8.54L41.17 6.82Q40.98 6.78 40.70 6.76Q40.43 6.74 40.21 6.74L40.21 6.74Q39.90 6.74 39.62 6.78Q39.33 6.82 39.11 6.91Q38.90 7.01 38.77 7.18Q38.64 7.36 38.64 7.65L38.64 7.65Q38.64 8.16 39.02 8.38Q39.41 8.59 40.02 8.59ZM39.84 2.29L39.84 2.29Q40.77 2.29 41.38 2.50Q42 2.72 42.37 3.11Q42.74 3.50 42.90 4.07Q43.06 4.64 43.06 5.34L43.06 5.34L43.06 9.82Q42.62 9.92 41.78 10.05Q40.93 10.18 39.87 10.18L39.87 10.18Q39.15 10.18 38.57 10.05Q37.98 9.92 37.57 9.62Q37.15 9.33 36.93 8.86Q36.70 8.38 36.70 7.70L36.70 7.70Q36.70 7.04 36.96 6.59Q37.22 6.14 37.65 5.87Q38.08 5.60 38.64 5.48Q39.20 5.36 39.81 5.36L39.81 5.36Q40.58 5.36 41.17 5.49L41.17 5.49L41.17 5.25Q41.17 4.69 40.82 4.31Q40.46 3.94 39.60 3.94L39.60 3.94Q39.04 3.94 38.52 4.02Q38 4.10 37.68 4.21L37.68 4.21L37.41 2.62Q37.78 2.50 38.45 2.39Q39.12 2.29 39.84 2.29ZM44.70 6.24L44.70 6.24Q44.70 5.42 44.96 4.70Q45.22 3.98 45.74 3.45Q46.27 2.91 47.08 2.60Q47.89 2.29 49.01 2.29L49.01 2.29Q49.68 2.29 50.22 2.38Q50.77 2.48 51.33 2.70L51.33 2.70L50.90 4.29Q50.58 4.18 50.18 4.09Q49.79 4 49.18 4L49.18 4Q48.48 4 48.01 4.17Q47.54 4.34 47.25 4.63Q46.96 4.93 46.83 5.34Q46.70 5.76 46.70 6.24L46.70 6.24Q46.70 7.28 47.29 7.87Q47.87 8.46 49.28 8.46L49.28 8.46Q49.74 8.46 50.25 8.40Q50.75 8.34 51.17 8.19L51.17 8.19L51.46 9.81Q51.04 9.97 50.45 10.07Q49.86 10.18 49.06 10.18L49.06 10.18Q47.90 10.18 47.08 9.87Q46.26 9.57 45.73 9.04Q45.20 8.51 44.95 7.79Q44.70 7.07 44.70 6.24ZM54.29 7.20L54.29 4.11L52.58 4.11L52.58 2.48L54.29 2.48L54.29 0.59L56.26 0.27L56.26 2.48L59.41 2.48L59.41 4.11L56.26 4.11L56.26 7.15Q56.26 7.57 56.34 7.82Q56.42 8.08 56.56 8.22Q56.70 8.37 56.91 8.42Q57.12 8.46 57.38 8.46L57.38 8.46Q57.65 8.46 57.88 8.45Q58.11 8.43 58.33 8.39Q58.54 8.35 58.78 8.27Q59.01 8.19 59.28 8.06L59.28 8.06L59.55 9.76Q59.01 9.98 58.38 10.08Q57.74 10.18 57.15 10.18L57.15 10.18Q56.46 10.18 55.94 10.06Q55.41 9.95 55.04 9.63Q54.67 9.31 54.48 8.73Q54.29 8.14 54.29 7.20L54.29 7.20ZM75.26 10L73.68 10Q73.01 8.35 72.22 6.71Q71.42 5.07 70.51 3.42L70.51 3.42L70.51 10L68.74 10L68.74 0.10L70.32 0.10Q70.77 0.80 71.22 1.62Q71.66 2.45 72.09 3.26Q72.51 4.08 72.87 4.85Q73.23 5.62 73.49 6.19L73.49 6.19L73.49 0.10L75.26 0.10L75.26 10ZM80.02 8.59L80.02 8.59Q80.34 8.59 80.64 8.58Q80.94 8.58 81.17 8.54L81.17 8.54L81.17 6.82Q80.98 6.78 80.70 6.76Q80.43 6.74 80.21 6.74L80.21 6.74Q79.90 6.74 79.62 6.78Q79.33 6.82 79.11 6.91Q78.90 7.01 78.77 7.18Q78.64 7.36 78.64 7.65L78.64 7.65Q78.64 8.16 79.02 8.38Q79.41 8.59 80.02 8.59ZM79.84 2.29L79.84 2.29Q80.77 2.29 81.38 2.50Q82 2.72 82.37 3.11Q82.74 3.50 82.90 4.07Q83.06 4.64 83.06 5.34L83.06 5.34L83.06 9.82Q82.62 9.92 81.78 10.05Q80.93 10.18 79.87 10.18L79.87 10.18Q79.15 10.18 78.57 10.05Q77.98 9.92 77.57 9.62Q77.15 9.33 76.93 8.86Q76.70 8.38 76.70 7.70L76.70 7.70Q76.70 7.04 76.96 6.59Q77.22 6.14 77.65 5.87Q78.08 5.60 78.64 5.48Q79.20 5.36 79.81 5.36L79.81 5.36Q80.58 5.36 81.17 5.49L81.17 5.49L81.17 5.25Q81.17 4.69 80.82 4.31Q80.46 3.94 79.60 3.94L79.60 3.94Q79.04 3.94 78.52 4.02Q78 4.10 77.68 4.21L77.68 4.21L77.41 2.62Q77.78 2.50 78.45 2.39Q79.12 2.29 79.84 2.29ZM86.29 7.20L86.29 4.11L84.58 4.11L84.58 2.48L86.29 2.48L86.29 0.59L88.26 0.27L88.26 2.48L91.41 2.48L91.41 4.11L88.26 4.11L88.26 7.15Q88.26 7.57 88.34 7.82Q88.42 8.08 88.56 8.22Q88.70 8.37 88.91 8.42Q89.12 8.46 89.38 8.46L89.38 8.46Q89.65 8.46 89.88 8.45Q90.11 8.43 90.33 8.39Q90.54 8.35 90.78 8.27Q91.01 8.19 91.28 8.06L91.28 8.06L91.55 9.76Q91.01 9.98 90.38 10.08Q89.74 10.18 89.15 10.18L89.15 10.18Q88.46 10.18 87.94 10.06Q87.41 9.95 87.04 9.63Q86.67 9.31 86.48 8.73Q86.29 8.14 86.29 7.20L86.29 7.20ZM96.54 0.32L96.54 0.32Q96.54 0.90 96.18 1.23Q95.81 1.57 95.30 1.57L95.30 1.57Q94.78 1.57 94.42 1.23Q94.06 0.90 94.06 0.32L94.06 0.32Q94.06-0.27 94.42-0.61Q94.78-0.94 95.30-0.94L95.30-0.94Q95.81-0.94 96.18-0.61Q96.54-0.27 96.54 0.32ZM99.22 8.10L99.47 9.68Q98.86 9.97 98.33 10.07Q97.79 10.18 97.34 10.18L97.34 10.18Q96.58 10.18 96.06 9.95Q95.54 9.73 95.22 9.30Q94.91 8.88 94.78 8.27Q94.66 7.66 94.66 6.88L94.66 6.88L94.66 4.11L92.58 4.11L92.58 2.48L96.62 2.48L96.62 7.14Q96.62 7.81 96.87 8.14Q97.12 8.46 97.70 8.46L97.70 8.46Q97.97 8.46 98.35 8.39Q98.74 8.32 99.22 8.10L99.22 8.10ZM104.75 10L103.10 10Q102.38 8.58 101.64 6.66Q100.90 4.75 100.22 2.48L100.22 2.48L102.29 2.48Q102.43 3.09 102.63 3.78Q102.83 4.46 103.06 5.16Q103.28 5.86 103.51 6.51Q103.74 7.17 103.95 7.71L103.95 7.71Q104.16 7.17 104.42 6.51Q104.67 5.86 104.92 5.16Q105.17 4.46 105.40 3.78Q105.63 3.09 105.78 2.48L105.78 2.48L107.78 2.48Q107.10 4.75 106.29 6.66Q105.47 8.58 104.75 10L104.75 10ZM108.50 6.30L108.50 6.30Q108.50 5.31 108.80 4.56Q109.10 3.81 109.60 3.30Q110.10 2.80 110.74 2.54Q111.38 2.29 112.05 2.29L112.05 2.29Q113.71 2.29 114.58 3.27Q115.44 4.26 115.44 6.14L115.44 6.14Q115.44 6.34 115.43 6.54Q115.42 6.75 115.41 6.88L115.41 6.88L110.53 6.88Q110.53 7.62 111.14 8.04Q111.74 8.46 112.70 8.46L112.70 8.46Q113.30 8.46 113.83 8.34Q114.37 8.21 114.74 8.08L114.74 8.08L115.01 9.76Q114.50 9.94 113.92 10.06Q113.34 10.18 112.62 10.18L112.62 10.18Q111.66 10.18 110.90 9.93Q110.14 9.68 109.61 9.19Q109.07 8.70 108.78 7.98Q108.50 7.26 108.50 6.30ZM110.53 5.52L113.54 5.52Q113.54 5.22 113.46 4.94Q113.38 4.66 113.20 4.43Q113.02 4.21 112.75 4.07Q112.48 3.94 112.08 3.94L112.08 3.94Q111.70 3.94 111.42 4.06Q111.14 4.19 110.95 4.42Q110.77 4.64 110.66 4.93Q110.56 5.22 110.53 5.52L110.53 5.52Z"/>
</g>
</svg>