<?xml version="1.0" encoding="UTF-8"?>
<svg height="34" width="187.2" version="1.1" xmlns="http://www.w3.org/2000/svg"><!--Created by Josélio de S. C. Júnior - 2021 - https://github.com/joseliojunior -->
<rect
    height="32"
    width="185.2"
    rx="1"
    ry="1"
    x="1" y="1"
    fill="#282c34"
    stroke="#61dafb"
    stroke-width="1" />
<g transform="translate(0, 12)">
    <path fill="#61dafb" d="M25.14-3.02L25.14-3.02Q26.41-3.02 27.44-2.74Q28.47-2.45 29.22-1.85Q29.96-1.25 30.36-0.32Q30.75 0.60 30.75 1.85L30.75 1.85Q30.75 3.14 30.22 4.20Q29.70 5.26 28.47 5.81L28.47 5.81Q28.88 6.43 29.34 7.19Q29.79 7.94 30.22 8.77Q30.66 9.60 31.05 10.43Q31.45 11.26 31.74 12L31.74 12L28.64 12Q28.09 10.56 27.36 9.23Q26.62 7.90 25.78 6.53L25.78 6.53L24.25 6.53L24.25 12L21.30 12L21.30-2.64Q21.73-2.74 22.24-2.82Q22.76-2.90 23.29-2.94Q23.82-2.98 24.30-3Q24.78-3.02 25.14-3.02ZM27.75 1.82L27.75 1.82Q27.75 0.65 27.03 0.10Q26.31-0.46 25.14-0.46L25.14-0.46Q24.97-0.46 24.73-0.44Q24.49-0.43 24.25-0.38L24.25-0.38L24.25 4.08L24.90 4.08Q26.41 4.08 27.08 3.49Q27.75 2.90 27.75 1.82ZM32.74 6.46L32.74 6.46Q32.74 4.97 33.20 3.84Q33.66 2.71 34.40 1.96Q35.14 1.20 36.10 0.82Q37.06 0.43 38.07 0.43L38.07 0.43Q40.57 0.43 41.86 1.91Q43.16 3.38 43.16 6.22L43.16 6.22Q43.16 6.50 43.15 6.82Q43.14 7.13 43.11 7.32L43.11 7.32L35.79 7.32Q35.79 8.42 36.70 9.06Q37.62 9.70 39.06 9.70L39.06 9.70Q39.94 9.70 40.75 9.50Q41.55 9.31 42.10 9.12L42.10 9.12L42.51 11.64Q41.74 11.90 40.88 12.08Q40.02 12.26 38.94 12.26L38.94 12.26Q37.50 12.26 36.36 11.89Q35.22 11.52 34.41 10.79Q33.61 10.06 33.18 8.98Q32.74 7.90 32.74 6.46ZM35.79 5.28L40.30 5.28Q40.30 4.82 40.18 4.40Q40.06 3.98 39.80 3.65Q39.54 3.31 39.13 3.11Q38.72 2.90 38.12 2.90L38.12 2.90Q37.54 2.90 37.12 3.10Q36.70 3.29 36.43 3.62Q36.15 3.96 36.00 4.39Q35.84 4.82 35.79 5.28L35.79 5.28ZM50.02 9.89L50.02 9.89Q50.50 9.89 50.96 9.88Q51.42 9.86 51.75 9.82L51.75 9.82L51.75 7.22Q51.46 7.18 51.06 7.14Q50.65 7.10 50.31 7.10L50.31 7.10Q49.86 7.10 49.42 7.16Q48.99 7.22 48.67 7.37Q48.34 7.51 48.15 7.78Q47.96 8.04 47.96 8.47L47.96 8.47Q47.96 9.24 48.54 9.56Q49.11 9.89 50.02 9.89ZM49.76 0.43L49.76 0.43Q51.15 0.43 52.08 0.76Q53 1.08 53.55 1.67Q54.10 2.26 54.34 3.11Q54.58 3.96 54.58 5.02L54.58 5.02L54.58 11.74Q53.94 11.88 52.66 12.07Q51.39 12.26 49.81 12.26L49.81 12.26Q48.73 12.26 47.85 12.07Q46.98 11.88 46.35 11.44Q45.73 10.99 45.39 10.28Q45.06 9.58 45.06 8.54L45.06 8.54Q45.06 7.56 45.44 6.89Q45.82 6.22 46.47 5.81Q47.12 5.40 47.96 5.22Q48.80 5.04 49.71 5.04L49.71 5.04Q50.86 5.04 51.75 5.23L51.75 5.23L51.75 4.87Q51.75 4.03 51.22 3.47Q50.70 2.90 49.40 2.90L49.40 2.90Q48.56 2.90 47.78 3.02Q47 3.14 46.52 3.31L46.52 3.31L46.11 0.94Q46.66 0.74 47.67 0.59Q48.68 0.43 49.76 0.43ZM57.06 6.36L57.06 6.36Q57.06 5.14 57.44 4.06Q57.82 2.98 58.62 2.17Q59.41 1.37 60.62 0.90Q61.83 0.43 63.51 0.43L63.51 0.43Q64.52 0.43 65.34 0.58Q66.15 0.72 66.99 1.06L66.99 1.06L66.34 3.43Q65.86 3.26 65.28 3.13Q64.69 3 63.78 3L63.78 3Q62.72 3 62.01 3.25Q61.30 3.50 60.87 3.95Q60.44 4.39 60.25 5.02Q60.06 5.64 60.06 6.36L60.06 6.36Q60.06 7.92 60.93 8.81Q61.81 9.70 63.92 9.70L63.92 9.70Q64.62 9.70 65.37 9.60Q66.13 9.50 66.75 9.29L66.75 9.29L67.18 11.71Q66.56 11.95 65.67 12.11Q64.78 12.26 63.58 12.26L63.58 12.26Q61.86 12.26 60.62 11.81Q59.38 11.35 58.59 10.56Q57.80 9.77 57.43 8.69Q57.06 7.61 57.06 6.36ZM71.43 7.80L71.43 3.17L68.86 3.17L68.86 0.72L71.43 0.72L71.43-2.11L74.38-2.59L74.38 0.72L79.11 0.72L79.11 3.17L74.38 3.17L74.38 7.73Q74.38 8.35 74.50 8.74Q74.62 9.12 74.84 9.34Q75.06 9.55 75.37 9.62Q75.68 9.70 76.06 9.70L76.06 9.70Q76.47 9.70 76.82 9.67Q77.17 9.65 77.49 9.59Q77.82 9.53 78.16 9.41Q78.51 9.29 78.92 9.10L78.92 9.10L79.33 11.64Q78.51 11.98 77.56 12.12Q76.62 12.26 75.73 12.26L75.73 12.26Q74.70 12.26 73.90 12.10Q73.11 11.93 72.56 11.45Q72.01 10.97 71.72 10.09Q71.43 9.22 71.43 7.80L71.43 7.80ZM102.90 12L100.52 12Q99.51 9.53 98.32 7.07Q97.14 4.61 95.77 2.14L95.77 2.14L95.77 12L93.10 12L93.10-2.86L95.48-2.86Q96.15-1.80 96.82-0.56Q97.50 0.67 98.13 1.90Q98.77 3.12 99.31 4.27Q99.85 5.42 100.23 6.29L100.23 6.29L100.23-2.86L102.90-2.86L102.90 12ZM110.02 9.89L110.02 9.89Q110.50 9.89 110.96 9.88Q111.42 9.86 111.75 9.82L111.75 9.82L111.75 7.22Q111.46 7.18 111.06 7.14Q110.65 7.10 110.31 7.10L110.31 7.10Q109.86 7.10 109.42 7.16Q108.99 7.22 108.67 7.37Q108.34 7.51 108.15 7.78Q107.96 8.04 107.96 8.47L107.96 8.47Q107.96 9.24 108.54 9.56Q109.11 9.89 110.02 9.89ZM109.76 0.43L109.76 0.43Q111.15 0.43 112.08 0.76Q113 1.08 113.55 1.67Q114.10 2.26 114.34 3.11Q114.58 3.96 114.58 5.02L114.58 5.02L114.58 11.74Q113.94 11.88 112.66 12.07Q111.39 12.26 109.81 12.26L109.81 12.26Q108.73 12.26 107.85 12.07Q106.98 11.88 106.35 11.44Q105.73 10.99 105.39 10.28Q105.06 9.58 105.06 8.54L105.06 8.54Q105.06 7.56 105.44 6.89Q105.82 6.22 106.47 5.81Q107.12 5.40 107.96 5.22Q108.80 5.04 109.71 5.04L109.71 5.04Q110.86 5.04 111.75 5.23L111.75 5.23L111.75 4.87Q111.75 4.03 111.22 3.47Q110.70 2.90 109.40 2.90L109.40 2.90Q108.56 2.90 107.78 3.02Q107 3.14 106.52 3.31L106.52 3.31L106.11 0.94Q106.66 0.74 107.67 0.59Q108.68 0.43 109.76 0.43ZM119.43 7.80L119.43 3.17L116.86 3.17L116.86 0.72L119.43 0.72L119.43-2.11L122.38-2.59L122.38 0.72L127.11 0.72L127.11 3.17L122.38 3.17L122.38 7.73Q122.38 8.35 122.50 8.74Q122.62 9.12 122.84 9.34Q123.06 9.55 123.37 9.62Q123.68 9.70 124.06 9.70L124.06 9.70Q124.47 9.70 124.82 9.67Q125.17 9.65 125.49 9.59Q125.82 9.53 126.16 9.41Q126.51 9.29 126.92 9.10L126.92 9.10L127.33 11.64Q126.51 11.98 125.56 12.12Q124.62 12.26 123.73 12.26L123.73 12.26Q122.70 12.26 121.90 12.10Q121.11 11.93 120.56 11.45Q120.01 10.97 119.72 10.09Q119.43 9.22 119.43 7.80L119.43 7.80ZM134.82-2.52L134.82-2.52Q134.82-1.66 134.26-1.15Q133.71-0.65 132.94-0.65L132.94-0.65Q132.18-0.65 131.64-1.15Q131.10-1.66 131.10-2.52L131.10-2.52Q131.10-3.41 131.64-3.91Q132.18-4.42 132.94-4.42L132.94-4.42Q133.71-4.42 134.26-3.91Q134.82-3.41 134.82-2.52ZM138.82 9.14L139.21 11.52Q138.30 11.95 137.49 12.11Q136.69 12.26 136.02 12.26L136.02 12.26Q134.86 12.26 134.08 11.93Q133.30 11.59 132.84 10.96Q132.37 10.32 132.18 9.41Q131.98 8.50 131.98 7.32L131.98 7.32L131.98 3.17L128.86 3.17L128.86 0.72L134.94 0.72L134.94 7.70Q134.94 8.71 135.31 9.20Q135.68 9.70 136.54 9.70L136.54 9.70Q136.95 9.70 137.53 9.59Q138.10 9.48 138.82 9.14L138.82 9.14ZM147.13 12L144.66 12Q143.58 9.86 142.46 7.00Q141.34 4.13 140.34 0.72L140.34 0.72L143.43 0.72Q143.65 1.63 143.95 2.66Q144.25 3.70 144.58 4.74Q144.92 5.78 145.27 6.77Q145.62 7.75 145.93 8.57L145.93 8.57Q146.24 7.75 146.62 6.77Q147.01 5.78 147.38 4.74Q147.75 3.70 148.10 2.66Q148.45 1.63 148.66 0.72L148.66 0.72L151.66 0.72Q150.66 4.13 149.43 7.00Q148.21 9.86 147.13 12L147.13 12ZM152.74 6.46L152.74 6.46Q152.74 4.97 153.20 3.84Q153.66 2.71 154.40 1.96Q155.14 1.20 156.10 0.82Q157.06 0.43 158.07 0.43L158.07 0.43Q160.57 0.43 161.86 1.91Q163.16 3.38 163.16 6.22L163.16 6.22Q163.16 6.50 163.15 6.82Q163.14 7.13 163.11 7.32L163.11 7.32L155.79 7.32Q155.79 8.42 156.70 9.06Q157.62 9.70 159.06 9.70L159.06 9.70Q159.94 9.70 160.75 9.50Q161.55 9.31 162.10 9.12L162.10 9.12L162.51 11.64Q161.74 11.90 160.88 12.08Q160.02 12.26 158.94 12.26L158.94 12.26Q157.50 12.26 156.36 11.89Q155.22 11.52 154.41 10.79Q153.61 10.06 153.18 8.98Q152.74 7.90 152.74 6.46ZM155.79 5.28L160.30 5.28Q160.30 4.82 160.18 4.40Q160.06 3.98 159.80 3.65Q159.54 3.31 159.13 3.11Q158.72 2.90 158.12 2.90L158.12 2.90Q157.54 2.90 157.12 3.10Q156.70 3.29 156.43 3.62Q156.15 3.96 156.00 4.39Q155.84 4.82 155.79 5.28L155.79 5.28Z"/>
</g>
</svg>