<?xml version="1.0" encoding="UTF-8"?>
<svg height="322" width="114.6" version="1.1" xmlns="http://www.w3.org/2000/svg"><!--Created by Josélio de S. C. Júnior - 2021 - https://github.com/joseliojunior -->
    <rect
        height="32"
        width="112.6"
        rx="1"
        ry="1"
        x="1" y="1"
        fill="#dfa535"
        stroke="#6a4c11"
        stroke-width="1" />
    <g transform="translate(0, 12)">
        <path fill="#6a4c11" stroke="none" d="M27.10 12.31L27.10 12.31Q23.96 12.31 22.30 10.30Q20.65 8.28 20.65 4.56L20.65 4.56Q20.65 2.71 21.15 1.27Q21.66-0.17 22.56-1.16Q23.46-2.16 24.69-2.68Q25.93-3.19 27.39-3.19L27.39-3.19Q28.18-3.19 28.82-3.06Q29.46-2.93 29.94-2.76Q30.42-2.59 30.74-2.40Q31.06-2.21 31.23-2.11L31.23-2.11L30.46 0.24Q29.91-0.12 29.13-0.37Q28.35-0.62 27.34-0.62L27.34-0.62Q26.65-0.62 25.99-0.37Q25.33-0.12 24.81 0.47Q24.30 1.06 23.97 2.04Q23.65 3.02 23.65 4.49L23.65 4.49Q23.65 7.03 24.52 8.39Q25.40 9.74 27.39 9.74L27.39 9.74Q28.54 9.74 29.30 9.48Q30.06 9.22 30.51 8.95L30.51 8.95L31.26 11.28Q30.63 11.66 29.56 11.99Q28.50 12.31 27.10 12.31ZM32.74 6.46L32.74 6.46Q32.74 4.97 33.20 3.84Q33.66 2.71 34.40 1.96Q35.14 1.20 36.10 0.82Q37.06 0.43 38.07 0.43L38.07 0.43Q40.57 0.43 41.86 1.91Q43.16 3.38 43.16 6.22L43.16 6.22Q43.16 6.50 43.15 6.82Q43.14 7.13 43.11 7.32L43.11 7.32L35.79 7.32Q35.79 8.42 36.70 9.06Q37.62 9.70 39.06 9.70L39.06 9.70Q39.94 9.70 40.75 9.50Q41.55 9.31 42.10 9.12L42.10 9.12L42.51 11.64Q41.74 11.90 40.88 12.08Q40.02 12.26 38.94 12.26L38.94 12.26Q37.50 12.26 36.36 11.89Q35.22 11.52 34.41 10.79Q33.61 10.06 33.18 8.98Q32.74 7.90 32.74 6.46ZM35.79 5.28L40.30 5.28Q40.30 4.82 40.18 4.40Q40.06 3.98 39.80 3.65Q39.54 3.31 39.13 3.11Q38.72 2.90 38.12 2.90L38.12 2.90Q37.54 2.90 37.12 3.10Q36.70 3.29 36.43 3.62Q36.15 3.96 36.00 4.39Q35.84 4.82 35.79 5.28L35.79 5.28ZM52.30 0.72L55.33 0.72Q54.87 2.30 54.45 3.83Q54.03 5.35 53.58 6.80Q53.12 8.26 52.60 9.65Q52.09 11.04 51.49 12.36L51.49 12.36Q51.03 13.32 50.59 14.02Q50.14 14.71 49.60 15.16Q49.06 15.60 48.40 15.82Q47.74 16.03 46.86 16.03L46.86 16.03Q46.11 16.03 45.50 15.91Q44.89 15.79 44.48 15.60L44.48 15.60L45.03 13.13Q45.51 13.34 45.88 13.43Q46.26 13.51 46.69 13.51L46.69 13.51Q47.55 13.51 48.08 12.94Q48.61 12.36 48.92 11.57L48.92 11.57Q47.86 9.46 46.81 6.73Q45.75 4.01 44.89 0.72L44.89 0.72L47.96 0.72Q48.18 1.61 48.45 2.62Q48.73 3.62 49.04 4.63Q49.35 5.64 49.70 6.61Q50.05 7.58 50.41 8.42L50.41 8.42Q50.65 7.58 50.91 6.61Q51.18 5.64 51.42 4.64Q51.66 3.65 51.88 2.64Q52.11 1.63 52.30 0.72L52.30 0.72ZM66.82 9.14L67.21 11.52Q67.14 11.57 66.88 11.69Q66.63 11.81 66.22 11.94Q65.82 12.07 65.23 12.17Q64.64 12.26 63.90 12.26L63.90 12.26Q61.86 12.26 60.92 11.05Q59.98 9.84 59.98 7.51L59.98 7.51L59.98-2.06L56.86-2.06L56.86-4.51L62.94-4.51L62.94 7.73Q62.94 8.88 63.39 9.29Q63.85 9.70 64.54 9.70L64.54 9.70Q65.43 9.70 66.03 9.46Q66.63 9.22 66.82 9.14L66.82 9.14ZM79.33 6.34L79.33 6.34Q79.33 7.68 78.94 8.77Q78.56 9.86 77.86 10.66Q77.17 11.45 76.20 11.88Q75.22 12.31 74.02 12.31L74.02 12.31Q72.82 12.31 71.85 11.88Q70.88 11.45 70.17 10.66Q69.46 9.86 69.08 8.77Q68.70 7.68 68.70 6.34L68.70 6.34Q68.70 5.02 69.09 3.92Q69.49 2.83 70.20 2.05Q70.90 1.27 71.89 0.85Q72.87 0.43 74.02 0.43L74.02 0.43Q75.20 0.43 76.17 0.85Q77.14 1.27 77.85 2.05Q78.56 2.83 78.94 3.92Q79.33 5.02 79.33 6.34ZM71.70 6.36L71.70 6.36Q71.70 7.87 72.24 8.81Q72.78 9.74 73.98 9.74L73.98 9.74Q75.13 9.74 75.72 8.81Q76.30 7.87 76.30 6.36L76.30 6.36Q76.30 4.85 75.76 3.92Q75.22 3 74.02 3L74.02 3Q72.87 3 72.28 3.92Q71.70 4.85 71.70 6.36ZM81.51 12L81.51 1.08Q82.30 0.86 83.47 0.67Q84.63 0.48 86 0.48L86 0.48Q87.34 0.48 88.23 0.85Q89.12 1.22 89.64 1.91Q90.15 2.59 90.37 3.54Q90.58 4.49 90.58 5.64L90.58 5.64L90.58 12L87.63 12L87.63 6.02Q87.63 4.44 87.27 3.74Q86.91 3.05 85.81 3.05L85.81 3.05Q85.47 3.05 85.15 3.07Q84.82 3.10 84.46 3.14L84.46 3.14L84.46 12L81.51 12Z"/>
    </g>
</svg>