<?xml version="1.0" encoding="UTF-8"?>
<svg height="34" width="126.7" version="1.1" xmlns="http://www.w3.org/2000/svg">
    <rect
        height="32"
        width="124.7"
        rx="16"
        ry="16"
        x="1"
        y="1"
        fill="#106da9"
        stroke="#03121c"
        stroke-width="1"
         />
    <g transform="translate(0, 12)">
        <path fill="#03121c" d="M27.97-2.86L30.92-2.86L30.92 12L27.97 12L27.97 5.45L24.03 5.45L24.03 12L21.08 12L21.08-2.86L24.03-2.86L24.03 3L27.97 3L27.97-2.86ZM43.78 12L40.62 12L39.92 8.57L35.96 8.57L35.29 12L32.22 12Q33.27 7.61 34.35 4.00Q35.43 0.38 36.44-2.86L36.44-2.86L39.66-2.86Q40.71 0.41 41.76 4.07Q42.80 7.73 43.78 12L43.78 12ZM37.98 0.02L37.98 0.02Q37.74 0.86 37.53 1.62Q37.33 2.38 37.15 3.11Q36.97 3.84 36.81 4.58Q36.66 5.33 36.51 6.12L36.51 6.12L39.42 6.12Q39.27 5.33 39.13 4.58Q38.98 3.84 38.80 3.11Q38.62 2.38 38.42 1.62Q38.22 0.86 37.98 0.02ZM49.38-3.02L49.38-3.02Q52.21-3.02 53.77-1.86Q55.33-0.70 55.33 1.94L55.33 1.94Q55.33 4.61 53.76 5.80Q52.18 6.98 49.30 6.98L49.30 6.98L48.25 6.98L48.25 12L45.30 12L45.30-2.66Q45.73-2.76 46.27-2.83Q46.81-2.90 47.36-2.94Q47.91-2.98 48.44-3Q48.97-3.02 49.38-3.02ZM49.71-0.46L49.71-0.46Q49.45-0.46 48.98-0.44Q48.51-0.43 48.25-0.38L48.25-0.38L48.25 4.42L49.45 4.42Q50.86 4.42 51.58 3.85Q52.30 3.29 52.30 1.92L52.30 1.92Q52.30 0.62 51.60 0.08Q50.89-0.46 49.71-0.46ZM67.02 0.98L66.49 3.72Q66.20 3.65 65.80 3.58Q65.41 3.50 65 3.44Q64.59 3.38 64.21 3.36Q63.82 3.34 63.56 3.34L63.56 3.34Q62.94 3.34 62.34 3.40Q61.74 3.46 61.11 3.62L61.11 3.62L61.11 12L58.14 12L58.14 1.46Q59.31 1.03 60.55 0.77Q61.78 0.50 63.44 0.50L63.44 0.50Q63.68 0.50 64.12 0.53Q64.57 0.55 65.07 0.61Q65.58 0.67 66.09 0.76Q66.61 0.84 67.02 0.98L67.02 0.98ZM79.33 6.34L79.33 6.34Q79.33 7.68 78.94 8.77Q78.56 9.86 77.86 10.66Q77.17 11.45 76.20 11.88Q75.22 12.31 74.02 12.31L74.02 12.31Q72.82 12.31 71.85 11.88Q70.88 11.45 70.17 10.66Q69.46 9.86 69.08 8.77Q68.70 7.68 68.70 6.34L68.70 6.34Q68.70 5.02 69.09 3.92Q69.49 2.83 70.20 2.05Q70.90 1.27 71.89 0.85Q72.87 0.43 74.02 0.43L74.02 0.43Q75.20 0.43 76.17 0.85Q77.14 1.27 77.85 2.05Q78.56 2.83 78.94 3.92Q79.33 5.02 79.33 6.34ZM71.70 6.36L71.70 6.36Q71.70 7.87 72.24 8.81Q72.78 9.74 73.98 9.74L73.98 9.74Q75.13 9.74 75.72 8.81Q76.30 7.87 76.30 6.36L76.30 6.36Q76.30 4.85 75.76 3.92Q75.22 3 74.02 3L74.02 3Q72.87 3 72.28 3.92Q71.70 4.85 71.70 6.36ZM83.60 0.72L86.10 4.25L88.40 0.72L91.40 0.72L87.75 6.14Q88.33 6.84 88.88 7.62Q89.43 8.40 89.94 9.19Q90.44 9.98 90.85 10.70Q91.26 11.42 91.54 12L91.54 12L88.47 12Q87.82 10.78 87.18 9.82Q86.53 8.86 85.95 8.09L85.95 8.09Q85.23 9.05 84.66 9.96Q84.08 10.87 83.48 12L83.48 12L80.48 12Q80.84 11.33 81.31 10.60Q81.78 9.86 82.29 9.11Q82.81 8.35 83.37 7.61Q83.94 6.86 84.46 6.19L84.46 6.19L80.50 0.72L83.60 0.72ZM100.30 0.72L103.33 0.72Q102.87 2.30 102.45 3.83Q102.03 5.35 101.58 6.80Q101.12 8.26 100.60 9.65Q100.09 11.04 99.49 12.36L99.49 12.36Q99.03 13.32 98.59 14.02Q98.14 14.71 97.60 15.16Q97.06 15.60 96.40 15.82Q95.74 16.03 94.86 16.03L94.86 16.03Q94.11 16.03 93.50 15.91Q92.89 15.79 92.48 15.60L92.48 15.60L93.03 13.13Q93.51 13.34 93.88 13.43Q94.26 13.51 94.69 13.51L94.69 13.51Q95.55 13.51 96.08 12.94Q96.61 12.36 96.92 11.57L96.92 11.57Q95.86 9.46 94.81 6.73Q93.75 4.01 92.89 0.72L92.89 0.72L95.96 0.72Q96.18 1.61 96.45 2.62Q96.73 3.62 97.04 4.63Q97.35 5.64 97.70 6.61Q98.05 7.58 98.41 8.42L98.41 8.42Q98.65 7.58 98.91 6.61Q99.18 5.64 99.42 4.64Q99.66 3.65 99.88 2.64Q100.11 1.63 100.30 0.72L100.30 0.72Z"/>
    </g>
</svg>