<?xml version="1.0" encoding="UTF-8"?>
<svg height="34" width="120.7" version="1.1" xmlns="http://www.w3.org/2000/svg">
    <rect
        height="32"
        width="118.7"
        rx="1"
        ry="1"
        x="1"
        y="1"
        fill="#106da9"
        stroke="#03121c"
        stroke-width="1"
         />
    <g transform="translate(0, 14)">
        <path fill="#03121c" d="M19.30-6.33L22.74-6.33L22.74 11L19.30 11L19.30 3.36L14.70 3.36L14.70 11L11.26 11L11.26-6.33L14.70-6.33L14.70 0.50L19.30 0.50L19.30-6.33ZM37.75 11L34.05 11L33.24 7.00L28.62 7.00L27.84 11L24.25 11Q25.48 5.88 26.74 1.66Q28.00-2.55 29.18-6.33L29.18-6.33L32.93-6.33Q34.16-2.52 35.38 1.75Q36.60 6.02 37.75 11L37.75 11ZM30.97-2.97L30.97-2.97Q30.69-1.99 30.45-1.11Q30.22-0.23 30.01 0.63Q29.80 1.48 29.61 2.35Q29.43 3.22 29.26 4.14L29.26 4.14L32.65 4.14Q32.48 3.22 32.32 2.35Q32.15 1.48 31.94 0.63Q31.73-0.23 31.49-1.11Q31.25-1.99 30.97-2.97ZM44.27-6.53L44.27-6.53Q47.58-6.53 49.40-5.17Q51.22-3.81 51.22-0.73L51.22-0.73Q51.22 2.38 49.38 3.76Q47.55 5.15 44.19 5.15L44.19 5.15L42.96 5.15L42.96 11L39.51 11L39.51-6.11Q40.02-6.22 40.65-6.30Q41.28-6.39 41.92-6.43Q42.56-6.47 43.18-6.50Q43.80-6.53 44.27-6.53ZM44.66-3.53L44.66-3.53Q44.36-3.53 43.81-3.52Q43.26-3.50 42.96-3.45L42.96-3.45L42.96 2.15L44.36 2.15Q46.01 2.15 46.85 1.49Q47.69 0.84 47.69-0.76L47.69-0.76Q47.69-2.27 46.86-2.90Q46.04-3.53 44.66-3.53ZM64.85-1.85L64.24 1.34Q63.90 1.26 63.44 1.17Q62.98 1.09 62.50 1.02Q62.02 0.95 61.58 0.92Q61.13 0.89 60.82 0.89L60.82 0.89Q60.09 0.89 59.39 0.96Q58.69 1.03 57.96 1.23L57.96 1.23L57.96 11L54.49 11L54.49-1.29Q55.86-1.80 57.31-2.10Q58.75-2.41 60.68-2.41L60.68-2.41Q60.96-2.41 61.48-2.38Q62.00-2.36 62.58-2.29Q63.17-2.22 63.77-2.12Q64.38-2.02 64.85-1.85L64.85-1.85ZM79.22 4.39L79.22 4.39Q79.22 5.96 78.77 7.23Q78.32 8.51 77.51 9.43Q76.70 10.36 75.56 10.86Q74.43 11.36 73.03 11.36L73.03 11.36Q71.63 11.36 70.49 10.86Q69.36 10.36 68.53 9.43Q67.71 8.51 67.26 7.23Q66.81 5.96 66.81 4.39L66.81 4.39Q66.81 2.85 67.27 1.58Q67.74 0.30 68.56-0.61Q69.39-1.52 70.54-2.01Q71.68-2.50 73.03-2.50L73.03-2.50Q74.40-2.50 75.53-2.01Q76.67-1.52 77.49-0.61Q78.32 0.30 78.77 1.58Q79.22 2.85 79.22 4.39ZM70.31 4.42L70.31 4.42Q70.31 6.18 70.94 7.28Q71.57 8.37 72.97 8.37L72.97 8.37Q74.32 8.37 75.00 7.28Q75.69 6.18 75.69 4.42L75.69 4.42Q75.69 2.66 75.06 1.58Q74.43 0.50 73.03 0.50L73.03 0.50Q71.68 0.50 71.00 1.58Q70.31 2.66 70.31 4.42ZM84.20-2.16L87.11 1.96L89.80-2.16L93.30-2.16L89.04 4.17Q89.72 4.98 90.36 5.89Q91.00 6.80 91.59 7.72Q92.18 8.65 92.66 9.49Q93.13 10.33 93.47 11L93.47 11L89.88 11Q89.13 9.57 88.37 8.45Q87.62 7.33 86.94 6.44L86.94 6.44Q86.10 7.56 85.43 8.62Q84.76 9.68 84.06 11L84.06 11L80.56 11Q80.98 10.22 81.53 9.36Q82.07 8.51 82.67 7.63Q83.28 6.74 83.93 5.88Q84.59 5.01 85.21 4.22L85.21 4.22L80.59-2.16L84.20-2.16ZM103.69-2.16L107.22-2.16Q106.68-0.31 106.19 1.47Q105.70 3.24 105.17 4.94Q104.64 6.63 104.04 8.26Q103.44 9.88 102.74 11.42L102.74 11.42Q102.20 12.54 101.69 13.35Q101.17 14.16 100.54 14.68Q99.91 15.20 99.14 15.45Q98.37 15.70 97.33 15.70L97.33 15.70Q96.46 15.70 95.75 15.56Q95.04 15.42 94.56 15.20L94.56 15.20L95.20 12.32Q95.76 12.57 96.20 12.67Q96.63 12.76 97.14 12.76L97.14 12.76Q98.14 12.76 98.76 12.09Q99.38 11.42 99.74 10.50L99.74 10.50Q98.51 8.03 97.28 4.85Q96.04 1.68 95.04-2.16L95.04-2.16L98.62-2.16Q98.87-1.12 99.19 0.05Q99.52 1.23 99.88 2.40Q100.24 3.58 100.65 4.71Q101.06 5.85 101.48 6.83L101.48 6.83Q101.76 5.85 102.06 4.71Q102.37 3.58 102.65 2.42Q102.93 1.26 103.20 0.08Q103.46-1.10 103.69-2.16L103.69-2.16Z"/>
    </g>
</svg>