<?xml version="1.0" encoding="UTF-8"?><svg height="26" width="139.2" version="1.1" xmlns="http://www.w3.org/2000/svg"><!--Created by Josélio de S. C. Júnior - 2021 - https://github.com/joseliojunior --><rect height="24" width="137.2" rx="1" ry="1" x="1" y="1" fill="#882B0F" stroke="#eb6d47" stroke-width="1" /><g transform="translate(0, 8)"><path fill="#eb6d47" d="M27.86 10L25.74 10L25.28 7.71L22.64 7.71L22.19 10L20.14 10Q20.85 7.07 21.57 4.66Q22.29 2.26 22.96 0.10L22.96 0.10L25.10 0.10Q25.81 2.27 26.50 4.71Q27.20 7.15 27.86 10L27.86 10ZM23.98 2.02L23.98 2.02Q23.82 2.58 23.69 3.08Q23.55 3.58 23.43 4.07Q23.31 4.56 23.21 5.06Q23.10 5.55 23.01 6.08L23.01 6.08L24.94 6.08Q24.85 5.55 24.75 5.06Q24.66 4.56 24.54 4.07Q24.42 3.58 24.28 3.08Q24.14 2.58 23.98 2.02ZM28.70 6.24L28.70 6.24Q28.70 5.42 28.96 4.70Q29.22 3.98 29.74 3.45Q30.27 2.91 31.08 2.60Q31.89 2.29 33.01 2.29L33.01 2.29Q33.68 2.29 34.22 2.38Q34.77 2.48 35.33 2.70L35.33 2.70L34.90 4.29Q34.58 4.18 34.18 4.09Q33.79 4 33.18 4L33.18 4Q32.48 4 32.01 4.17Q31.54 4.34 31.25 4.63Q30.96 4.93 30.83 5.34Q30.70 5.76 30.70 6.24L30.70 6.24Q30.70 7.28 31.29 7.87Q31.87 8.46 33.28 8.46L33.28 8.46Q33.74 8.46 34.25 8.40Q34.75 8.34 35.17 8.19L35.17 8.19L35.46 9.81Q35.04 9.97 34.45 10.07Q33.86 10.18 33.06 10.18L33.06 10.18Q31.90 10.18 31.08 9.87Q30.26 9.57 29.73 9.04Q29.20 8.51 28.95 7.79Q28.70 7.07 28.70 6.24ZM38.29 7.20L38.29 4.11L36.58 4.11L36.58 2.48L38.29 2.48L38.29 0.59L40.26 0.27L40.26 2.48L43.41 2.48L43.41 4.11L40.26 4.11L40.26 7.15Q40.26 7.57 40.34 7.82Q40.42 8.08 40.56 8.22Q40.70 8.37 40.91 8.42Q41.12 8.46 41.38 8.46L41.38 8.46Q41.65 8.46 41.88 8.45Q42.11 8.43 42.33 8.39Q42.54 8.35 42.78 8.27Q43.01 8.19 43.28 8.06L43.28 8.06L43.55 9.76Q43.01 9.98 42.38 10.08Q41.74 10.18 41.15 10.18L41.15 10.18Q40.46 10.18 39.94 10.06Q39.41 9.95 39.04 9.63Q38.67 9.31 38.48 8.73Q38.29 8.14 38.29 7.20L38.29 7.20ZM48.54 0.32L48.54 0.32Q48.54 0.90 48.18 1.23Q47.81 1.57 47.30 1.57L47.30 1.57Q46.78 1.57 46.42 1.23Q46.06 0.90 46.06 0.32L46.06 0.32Q46.06-0.27 46.42-0.61Q46.78-0.94 47.30-0.94L47.30-0.94Q47.81-0.94 48.18-0.61Q48.54-0.27 48.54 0.32ZM51.22 8.10L51.47 9.68Q50.86 9.97 50.33 10.07Q49.79 10.18 49.34 10.18L49.34 10.18Q48.58 10.18 48.06 9.95Q47.54 9.73 47.22 9.30Q46.91 8.88 46.78 8.27Q46.66 7.66 46.66 6.88L46.66 6.88L46.66 4.11L44.58 4.11L44.58 2.48L48.62 2.48L48.62 7.14Q48.62 7.81 48.87 8.14Q49.12 8.46 49.70 8.46L49.70 8.46Q49.97 8.46 50.35 8.39Q50.74 8.32 51.22 8.10L51.22 8.10ZM59.55 6.22L59.55 6.22Q59.55 7.12 59.30 7.85Q59.04 8.58 58.58 9.10Q58.11 9.63 57.46 9.92Q56.82 10.21 56.02 10.21L56.02 10.21Q55.22 10.21 54.57 9.92Q53.92 9.63 53.45 9.10Q52.98 8.58 52.72 7.85Q52.46 7.12 52.46 6.22L52.46 6.22Q52.46 5.34 52.73 4.62Q52.99 3.89 53.46 3.37Q53.94 2.85 54.59 2.57Q55.25 2.29 56.02 2.29L56.02 2.29Q56.80 2.29 57.45 2.57Q58.10 2.85 58.57 3.37Q59.04 3.89 59.30 4.62Q59.55 5.34 59.55 6.22ZM54.46 6.24L54.46 6.24Q54.46 7.25 54.82 7.87Q55.18 8.50 55.98 8.50L55.98 8.50Q56.75 8.50 57.14 7.87Q57.54 7.25 57.54 6.24L57.54 6.24Q57.54 5.23 57.18 4.62Q56.82 4 56.02 4L56.02 4Q55.25 4 54.86 4.62Q54.46 5.23 54.46 6.24ZM61.01 10L61.01 2.72Q61.54 2.58 62.31 2.45Q63.09 2.32 64 2.32L64 2.32Q64.90 2.32 65.49 2.57Q66.08 2.82 66.42 3.27Q66.77 3.73 66.91 4.36Q67.06 4.99 67.06 5.76L67.06 5.76L67.06 10L65.09 10L65.09 6.02Q65.09 4.96 64.85 4.50Q64.61 4.03 63.87 4.03L63.87 4.03Q63.65 4.03 63.43 4.05Q63.22 4.06 62.98 4.10L62.98 4.10L62.98 10L61.01 10ZM71.71 8.56L71.71 8.56Q72.21 8.56 72.54 8.46Q72.86 8.35 73.06 8.17Q73.25 7.98 73.32 7.75Q73.39 7.52 73.39 7.28L73.39 7.28Q73.39 6.98 73.22 6.74Q73.04 6.50 72.77 6.31Q72.50 6.13 72.16 5.98Q71.82 5.82 71.49 5.70L71.49 5.70Q71.04 5.54 70.56 5.33Q70.08 5.12 69.69 4.80Q69.30 4.48 69.04 4.01Q68.78 3.54 68.78 2.83L68.78 2.83Q68.78 1.44 69.69 0.66Q70.59-0.13 72.18-0.13L72.18-0.13Q73.09-0.13 73.77 0.08Q74.45 0.29 74.91 0.54L74.91 0.54L74.34 2.06Q73.94 1.84 73.45 1.68Q72.96 1.52 72.32 1.52L72.32 1.52Q70.75 1.52 70.75 2.66L70.75 2.66Q70.75 2.94 70.91 3.16Q71.07 3.38 71.32 3.54Q71.57 3.71 71.88 3.84Q72.19 3.97 72.50 4.08L72.50 4.08Q72.96 4.26 73.46 4.47Q73.97 4.69 74.39 5.05Q74.82 5.41 75.09 5.94Q75.36 6.48 75.36 7.30L75.36 7.30Q75.36 8.69 74.46 9.45Q73.55 10.21 71.71 10.21L71.71 10.21Q70.48 10.21 69.74 9.94Q69.01 9.68 68.64 9.46L68.64 9.46L69.22 7.86Q69.65 8.11 70.25 8.34Q70.85 8.56 71.71 8.56ZM76.70 6.24L76.70 6.24Q76.70 5.42 76.96 4.70Q77.22 3.98 77.74 3.45Q78.27 2.91 79.08 2.60Q79.89 2.29 81.01 2.29L81.01 2.29Q81.68 2.29 82.22 2.38Q82.77 2.48 83.33 2.70L83.33 2.70L82.90 4.29Q82.58 4.18 82.18 4.09Q81.79 4 81.18 4L81.18 4Q80.48 4 80.01 4.17Q79.54 4.34 79.25 4.63Q78.96 4.93 78.83 5.34Q78.70 5.76 78.70 6.24L78.70 6.24Q78.70 7.28 79.29 7.87Q79.87 8.46 81.28 8.46L81.28 8.46Q81.74 8.46 82.25 8.40Q82.75 8.34 83.17 8.19L83.17 8.19L83.46 9.81Q83.04 9.97 82.45 10.07Q81.86 10.18 81.06 10.18L81.06 10.18Q79.90 10.18 79.08 9.87Q78.26 9.57 77.73 9.04Q77.20 8.51 76.95 7.79Q76.70 7.07 76.70 6.24ZM91.34 2.66L90.99 4.48Q90.80 4.43 90.54 4.38Q90.27 4.34 90 4.30Q89.73 4.26 89.47 4.24Q89.22 4.22 89.04 4.22L89.04 4.22Q88.62 4.22 88.22 4.26Q87.82 4.30 87.41 4.42L87.41 4.42L87.41 10L85.42 10L85.42 2.98Q86.21 2.69 87.03 2.51Q87.86 2.34 88.96 2.34L88.96 2.34Q89.12 2.34 89.42 2.35Q89.71 2.37 90.05 2.41Q90.38 2.45 90.73 2.50Q91.07 2.56 91.34 2.66L91.34 2.66ZM96.54 0.32L96.54 0.32Q96.54 0.90 96.18 1.23Q95.81 1.57 95.30 1.57L95.30 1.57Q94.78 1.57 94.42 1.23Q94.06 0.90 94.06 0.32L94.06 0.32Q94.06-0.27 94.42-0.61Q94.78-0.94 95.30-0.94L95.30-0.94Q95.81-0.94 96.18-0.61Q96.54-0.27 96.54 0.32ZM99.22 8.10L99.47 9.68Q98.86 9.97 98.33 10.07Q97.79 10.18 97.34 10.18L97.34 10.18Q96.58 10.18 96.06 9.95Q95.54 9.73 95.22 9.30Q94.91 8.88 94.78 8.27Q94.66 7.66 94.66 6.88L94.66 6.88L94.66 4.11L92.58 4.11L92.58 2.48L96.62 2.48L96.62 7.14Q96.62 7.81 96.87 8.14Q97.12 8.46 97.70 8.46L97.70 8.46Q97.97 8.46 98.35 8.39Q98.74 8.32 99.22 8.10L99.22 8.10ZM105.50 6.30L105.50 6.30Q105.50 5.30 105.10 4.65Q104.70 4 103.89 4L103.89 4Q103.66 4 103.41 4.02Q103.15 4.05 102.98 4.06L102.98 4.06L102.98 8.19Q103.17 8.32 103.49 8.40Q103.81 8.48 104.13 8.48L104.13 8.48Q104.83 8.48 105.17 7.91Q105.50 7.34 105.50 6.30ZM107.50 6.24L107.50 6.24Q107.50 7.10 107.31 7.83Q107.12 8.56 106.75 9.08Q106.38 9.60 105.82 9.89Q105.26 10.18 104.53 10.18L104.53 10.18Q103.78 10.18 102.98 9.81L102.98 9.81L102.98 12.64L101.01 12.64L101.01 2.72Q101.55 2.54 102.34 2.43Q103.14 2.32 103.90 2.32L103.90 2.32Q105.65 2.32 106.58 3.38Q107.50 4.43 107.50 6.24ZM110.29 7.20L110.29 4.11L108.58 4.11L108.58 2.48L110.29 2.48L110.29 0.59L112.26 0.27L112.26 2.48L115.41 2.48L115.41 4.11L112.26 4.11L112.26 7.15Q112.26 7.57 112.34 7.82Q112.42 8.08 112.56 8.22Q112.70 8.37 112.91 8.42Q113.12 8.46 113.38 8.46L113.38 8.46Q113.65 8.46 113.88 8.45Q114.11 8.43 114.33 8.39Q114.54 8.35 114.78 8.27Q115.01 8.19 115.28 8.06L115.28 8.06L115.55 9.76Q115.01 9.98 114.38 10.08Q113.74 10.18 113.15 10.18L113.15 10.18Q112.46 10.18 111.94 10.06Q111.41 9.95 111.04 9.63Q110.67 9.31 110.48 8.73Q110.29 8.14 110.29 7.20L110.29 7.20Z"/></g></svg>