<?xml version="1.0" encoding="UTF-8"?><svg height="26" width="106.8" version="1.1" xmlns="http://www.w3.org/2000/svg"><!--Created by Josélio de S. C. Júnior - 2021 - https://github.com/joseliojunior --><defs><pattern id="pattern" x="3" y="3" width="6" height="6" patternUnits="userSpaceOnUse" patternTransform="rotate(45)"><rect height="6" width="6" fill="#ffffff"/><line x1="0" y1="0" x2="0" y2="6" stroke="#bbbbbb" stroke-width="2" /></pattern></defs><rect height="24" width="104.8" rx="12" ry="12" x="1" y="1" fill="url(#pattern)" /><g transform="translate(0, 8)"><path fill="#000000" d="M23.42-0.02L23.42-0.02Q24.27-0.02 24.96 0.18Q25.65 0.37 26.14 0.77Q26.64 1.17 26.90 1.78Q27.17 2.40 27.17 3.23L27.17 3.23Q27.17 4.10 26.82 4.80Q26.46 5.50 25.65 5.87L25.65 5.87Q25.92 6.29 26.22 6.79Q26.53 7.30 26.82 7.85Q27.10 8.40 27.37 8.95Q27.63 9.50 27.82 10L27.82 10L25.76 10Q25.39 9.04 24.90 8.15Q24.42 7.26 23.86 6.35L23.86 6.35L22.83 6.35L22.83 10L20.86 10L20.86 0.24Q21.15 0.18 21.50 0.12Q21.84 0.06 22.19 0.04Q22.54 0.02 22.86 0Q23.18-0.02 23.42-0.02ZM25.17 3.22L25.17 3.22Q25.17 2.43 24.69 2.06Q24.21 1.70 23.42 1.70L23.42 1.70Q23.31 1.70 23.15 1.70Q22.99 1.71 22.83 1.74L22.83 1.74L22.83 4.72L23.26 4.72Q24.27 4.72 24.72 4.33Q25.17 3.94 25.17 3.22ZM31.58-0.02L31.58-0.02Q33.47-0.02 34.51 0.76Q35.55 1.54 35.55 3.30L35.55 3.30Q35.55 5.07 34.50 5.86Q33.46 6.66 31.54 6.66L31.54 6.66L30.83 6.66L30.83 10L28.86 10L28.86 0.22Q29.15 0.16 29.51 0.11Q29.87 0.06 30.24 0.04Q30.61 0.02 30.96 0Q31.31-0.02 31.58-0.02ZM31.81 1.70L31.81 1.70Q31.63 1.70 31.32 1.70Q31.01 1.71 30.83 1.74L30.83 1.74L30.83 4.94L31.63 4.94Q32.58 4.94 33.06 4.57Q33.54 4.19 33.54 3.28L33.54 3.28Q33.54 2.42 33.06 2.06Q32.59 1.70 31.81 1.70ZM36.94 0.10L38.58 0.10Q38.69 0.43 38.86 0.96Q39.02 1.49 39.22 2.10Q39.41 2.70 39.60 3.33Q39.79 3.95 39.97 4.48L39.97 4.48Q40.16 3.89 40.37 3.26Q40.58 2.62 40.77 2.04Q40.96 1.46 41.12 0.94Q41.28 0.43 41.41 0.10L41.41 0.10L43.04 0.10Q43.15 1.39 43.26 2.62Q43.36 3.86 43.43 5.06Q43.50 6.27 43.55 7.50Q43.60 8.72 43.63 10L43.63 10L41.82 10L41.92 2.30L40.70 6.50L39.26 6.50L38.10 2.30L38.18 10L36.37 10Q36.42 8.78 36.47 7.47Q36.53 6.16 36.59 4.86Q36.66 3.57 36.74 2.35Q36.83 1.14 36.94 0.10L36.94 0.10ZM55.71 8.56L55.71 8.56Q56.21 8.56 56.54 8.46Q56.86 8.35 57.06 8.17Q57.25 7.98 57.32 7.75Q57.39 7.52 57.39 7.28L57.39 7.28Q57.39 6.98 57.22 6.74Q57.04 6.50 56.77 6.31Q56.50 6.13 56.16 5.98Q55.82 5.82 55.49 5.70L55.49 5.70Q55.04 5.54 54.56 5.33Q54.08 5.12 53.69 4.80Q53.30 4.48 53.04 4.01Q52.78 3.54 52.78 2.83L52.78 2.83Q52.78 1.44 53.69 0.66Q54.59-0.13 56.18-0.13L56.18-0.13Q57.09-0.13 57.77 0.08Q58.45 0.29 58.91 0.54L58.91 0.54L58.34 2.06Q57.94 1.84 57.45 1.68Q56.96 1.52 56.32 1.52L56.32 1.52Q54.75 1.52 54.75 2.66L54.75 2.66Q54.75 2.94 54.91 3.16Q55.07 3.38 55.32 3.54Q55.57 3.71 55.88 3.84Q56.19 3.97 56.50 4.08L56.50 4.08Q56.96 4.26 57.46 4.47Q57.97 4.69 58.39 5.05Q58.82 5.41 59.09 5.94Q59.36 6.48 59.36 7.30L59.36 7.30Q59.36 8.69 58.46 9.45Q57.55 10.21 55.71 10.21L55.71 10.21Q54.48 10.21 53.74 9.94Q53.01 9.68 52.64 9.46L52.64 9.46L53.22 7.86Q53.65 8.11 54.25 8.34Q54.85 8.56 55.71 8.56ZM65.50 6.30L65.50 6.30Q65.50 5.30 65.10 4.65Q64.70 4 63.89 4L63.89 4Q63.66 4 63.41 4.02Q63.15 4.05 62.98 4.06L62.98 4.06L62.98 8.19Q63.17 8.32 63.49 8.40Q63.81 8.48 64.13 8.48L64.13 8.48Q64.83 8.48 65.17 7.91Q65.50 7.34 65.50 6.30ZM67.50 6.24L67.50 6.24Q67.50 7.10 67.31 7.83Q67.12 8.56 66.75 9.08Q66.38 9.60 65.82 9.89Q65.26 10.18 64.53 10.18L64.53 10.18Q63.78 10.18 62.98 9.81L62.98 9.81L62.98 12.64L61.01 12.64L61.01 2.72Q61.55 2.54 62.34 2.43Q63.14 2.32 63.90 2.32L63.90 2.32Q65.65 2.32 66.58 3.38Q67.50 4.43 67.50 6.24ZM68.50 6.30L68.50 6.30Q68.50 5.31 68.80 4.56Q69.10 3.81 69.60 3.30Q70.10 2.80 70.74 2.54Q71.38 2.29 72.05 2.29L72.05 2.29Q73.71 2.29 74.58 3.27Q75.44 4.26 75.44 6.14L75.44 6.14Q75.44 6.34 75.43 6.54Q75.42 6.75 75.41 6.88L75.41 6.88L70.53 6.88Q70.53 7.62 71.14 8.04Q71.74 8.46 72.70 8.46L72.70 8.46Q73.30 8.46 73.83 8.34Q74.37 8.21 74.74 8.08L74.74 8.08L75.01 9.76Q74.50 9.94 73.92 10.06Q73.34 10.18 72.62 10.18L72.62 10.18Q71.66 10.18 70.90 9.93Q70.14 9.68 69.61 9.19Q69.07 8.70 68.78 7.98Q68.50 7.26 68.50 6.30ZM70.53 5.52L73.54 5.52Q73.54 5.22 73.46 4.94Q73.38 4.66 73.20 4.43Q73.02 4.21 72.75 4.07Q72.48 3.94 72.08 3.94L72.08 3.94Q71.70 3.94 71.42 4.06Q71.14 4.19 70.95 4.42Q70.77 4.64 70.66 4.93Q70.56 5.22 70.53 5.52L70.53 5.52ZM76.70 6.24L76.70 6.24Q76.70 5.42 76.96 4.70Q77.22 3.98 77.74 3.45Q78.27 2.91 79.08 2.60Q79.89 2.29 81.01 2.29L81.01 2.29Q81.68 2.29 82.22 2.38Q82.77 2.48 83.33 2.70L83.33 2.70L82.90 4.29Q82.58 4.18 82.18 4.09Q81.79 4 81.18 4L81.18 4Q80.48 4 80.01 4.17Q79.54 4.34 79.25 4.63Q78.96 4.93 78.83 5.34Q78.70 5.76 78.70 6.24L78.70 6.24Q78.70 7.28 79.29 7.87Q79.87 8.46 81.28 8.46L81.28 8.46Q81.74 8.46 82.25 8.40Q82.75 8.34 83.17 8.19L83.17 8.19L83.46 9.81Q83.04 9.97 82.45 10.07Q81.86 10.18 81.06 10.18L81.06 10.18Q79.90 10.18 79.08 9.87Q78.26 9.57 77.73 9.04Q77.20 8.51 76.95 7.79Q76.70 7.07 76.70 6.24Z"/></g></svg>