<?xml version="1.0" encoding="UTF-8"?>
<svg height="34" width="138.8" version="1.1" xmlns="http://www.w3.org/2000/svg"><!--Created by Josélio de S. C. Júnior - 2021 - https://github.com/joseliojunior -->
    <defs>
        <pattern id="pattern"
                x="3" y="3" width="6" height="6"
                patternUnits="userSpaceOnUse"
                patternTransform="rotate(45)" >
            <rect height="6" width="6"
                fill="#ffffff"/>
            <line x1="0" y1="0" x2="0" y2="6"
                stroke="#888888"
                stroke-width="2" />
        </pattern>
    </defs>
    <rect
        height="32"
        width="136.8"
        rx="16"
        ry="16"
        x="1" y="1"
        fill="url(#pattern)" />
    <g transform="translate(0, 12)">
        <path fill="#000000" d="M25.14-3.02L25.14-3.02Q26.41-3.02 27.44-2.74Q28.47-2.45 29.22-1.85Q29.96-1.25 30.36-0.32Q30.75 0.60 30.75 1.85L30.75 1.85Q30.75 3.14 30.22 4.20Q29.70 5.26 28.47 5.81L28.47 5.81Q28.88 6.43 29.34 7.19Q29.79 7.94 30.22 8.77Q30.66 9.60 31.05 10.43Q31.45 11.26 31.74 12L31.74 12L28.64 12Q28.09 10.56 27.36 9.23Q26.62 7.90 25.78 6.53L25.78 6.53L24.25 6.53L24.25 12L21.30 12L21.30-2.64Q21.73-2.74 22.24-2.82Q22.76-2.90 23.29-2.94Q23.82-2.98 24.30-3Q24.78-3.02 25.14-3.02ZM27.75 1.82L27.75 1.82Q27.75 0.65 27.03 0.10Q26.31-0.46 25.14-0.46L25.14-0.46Q24.97-0.46 24.73-0.44Q24.49-0.43 24.25-0.38L24.25-0.38L24.25 4.08L24.90 4.08Q26.41 4.08 27.08 3.49Q27.75 2.90 27.75 1.82ZM37.38-3.02L37.38-3.02Q40.21-3.02 41.77-1.86Q43.33-0.70 43.33 1.94L43.33 1.94Q43.33 4.61 41.76 5.80Q40.18 6.98 37.30 6.98L37.30 6.98L36.25 6.98L36.25 12L33.30 12L33.30-2.66Q33.73-2.76 34.27-2.83Q34.81-2.90 35.36-2.94Q35.91-2.98 36.44-3Q36.97-3.02 37.38-3.02ZM37.71-0.46L37.71-0.46Q37.45-0.46 36.98-0.44Q36.51-0.43 36.25-0.38L36.25-0.38L36.25 4.42L37.45 4.42Q38.86 4.42 39.58 3.85Q40.30 3.29 40.30 1.92L40.30 1.92Q40.30 0.62 39.60 0.08Q38.89-0.46 37.71-0.46ZM45.42-2.86L47.86-2.86Q48.03-2.35 48.28-1.56Q48.54-0.77 48.82 0.14Q49.11 1.06 49.40 1.99Q49.69 2.93 49.95 3.72L49.95 3.72Q50.24 2.83 50.55 1.88Q50.86 0.94 51.15 0.06Q51.44-0.82 51.68-1.58Q51.92-2.35 52.11-2.86L52.11-2.86L54.56-2.86Q54.73-0.91 54.88 0.94Q55.04 2.78 55.15 4.60Q55.26 6.41 55.33 8.24Q55.40 10.08 55.45 12L55.45 12L52.74 12L52.88 0.46L51.06 6.74L48.90 6.74L47.14 0.46L47.26 12L44.55 12Q44.62 10.18 44.71 8.21Q44.79 6.24 44.89 4.30Q44.98 2.35 45.12 0.53Q45.25-1.30 45.42-2.86L45.42-2.86ZM73.57 9.84L73.57 9.84Q74.31 9.84 74.80 9.68Q75.30 9.53 75.58 9.25Q75.87 8.98 75.98 8.63Q76.09 8.28 76.09 7.92L76.09 7.92Q76.09 7.46 75.82 7.10Q75.56 6.74 75.15 6.47Q74.74 6.19 74.24 5.96Q73.74 5.74 73.23 5.54L73.23 5.54Q72.56 5.30 71.84 4.99Q71.12 4.68 70.53 4.20Q69.94 3.72 69.56 3.01Q69.18 2.30 69.18 1.25L69.18 1.25Q69.18-0.84 70.53-2.02Q71.89-3.19 74.26-3.19L74.26-3.19Q75.63-3.19 76.65-2.88Q77.67-2.57 78.37-2.18L78.37-2.18L77.50 0.10Q76.90-0.24 76.17-0.48Q75.44-0.72 74.48-0.72L74.48-0.72Q72.13-0.72 72.13 0.98L72.13 0.98Q72.13 1.42 72.37 1.74Q72.61 2.06 72.98 2.32Q73.35 2.57 73.82 2.76Q74.29 2.95 74.74 3.12L74.74 3.12Q75.44 3.38 76.20 3.71Q76.95 4.03 77.59 4.57Q78.22 5.11 78.63 5.92Q79.04 6.72 79.04 7.94L79.04 7.94Q79.04 10.03 77.68 11.17Q76.33 12.31 73.57 12.31L73.57 12.31Q71.72 12.31 70.62 11.92Q69.51 11.52 68.96 11.18L68.96 11.18L69.82 8.78Q70.47 9.17 71.37 9.50Q72.27 9.84 73.57 9.84ZM88.26 6.46L88.26 6.46Q88.26 4.94 87.66 3.97Q87.06 3 85.83 3L85.83 3Q85.50 3 85.11 3.04Q84.73 3.07 84.46 3.10L84.46 3.10L84.46 9.29Q84.75 9.48 85.23 9.60Q85.71 9.72 86.19 9.72L86.19 9.72Q87.25 9.72 87.75 8.87Q88.26 8.02 88.26 6.46ZM91.26 6.36L91.26 6.36Q91.26 7.66 90.97 8.75Q90.68 9.84 90.13 10.62Q89.58 11.40 88.74 11.83Q87.90 12.26 86.79 12.26L86.79 12.26Q85.66 12.26 84.46 11.71L84.46 11.71L84.46 15.96L81.51 15.96L81.51 1.08Q82.33 0.82 83.52 0.65Q84.70 0.48 85.86 0.48L85.86 0.48Q88.47 0.48 89.86 2.06Q91.26 3.65 91.26 6.36ZM92.74 6.46L92.74 6.46Q92.74 4.97 93.20 3.84Q93.66 2.71 94.40 1.96Q95.14 1.20 96.10 0.82Q97.06 0.43 98.07 0.43L98.07 0.43Q100.57 0.43 101.86 1.91Q103.16 3.38 103.16 6.22L103.16 6.22Q103.16 6.50 103.15 6.82Q103.14 7.13 103.11 7.32L103.11 7.32L95.79 7.32Q95.79 8.42 96.70 9.06Q97.62 9.70 99.06 9.70L99.06 9.70Q99.94 9.70 100.75 9.50Q101.55 9.31 102.10 9.12L102.10 9.12L102.51 11.64Q101.74 11.90 100.88 12.08Q100.02 12.26 98.94 12.26L98.94 12.26Q97.50 12.26 96.36 11.89Q95.22 11.52 94.41 10.79Q93.61 10.06 93.18 8.98Q92.74 7.90 92.74 6.46ZM95.79 5.28L100.30 5.28Q100.30 4.82 100.18 4.40Q100.06 3.98 99.80 3.65Q99.54 3.31 99.13 3.11Q98.72 2.90 98.12 2.90L98.12 2.90Q97.54 2.90 97.12 3.10Q96.70 3.29 96.43 3.62Q96.15 3.96 96.00 4.39Q95.84 4.82 95.79 5.28L95.79 5.28ZM105.06 6.36L105.06 6.36Q105.06 5.14 105.44 4.06Q105.82 2.98 106.62 2.17Q107.41 1.37 108.62 0.90Q109.83 0.43 111.51 0.43L111.51 0.43Q112.52 0.43 113.34 0.58Q114.15 0.72 114.99 1.06L114.99 1.06L114.34 3.43Q113.86 3.26 113.28 3.13Q112.69 3 111.78 3L111.78 3Q110.72 3 110.01 3.25Q109.30 3.50 108.87 3.95Q108.44 4.39 108.25 5.02Q108.06 5.64 108.06 6.36L108.06 6.36Q108.06 7.92 108.93 8.81Q109.81 9.70 111.92 9.70L111.92 9.70Q112.62 9.70 113.37 9.60Q114.13 9.50 114.75 9.29L114.75 9.29L115.18 11.71Q114.56 11.95 113.67 12.11Q112.78 12.26 111.58 12.26L111.58 12.26Q109.86 12.26 108.62 11.81Q107.38 11.35 106.59 10.56Q105.80 9.77 105.43 8.69Q105.06 7.61 105.06 6.36Z"/>
    </g>
</svg>