<?xml version="1.0" encoding="UTF-8"?>
<svg height="34" width="259.79999999999995" version="1.1" xmlns="http://www.w3.org/2000/svg"><!--Created by Josélio de S. C. Júnior - 2021 - https://github.com/joseliojunior -->
    <rect
        height="32"
        width="257.79999999999995"
        rx="16"
        ry="16"
        x="1" y="1"
        fill="#292929"
        stroke="#757575"
        stroke-width="1" />
    <g transform="translate(0, 12)">
        <path fill="#757575" stroke="none" d="M30.51-2.86L30.51 7.03Q30.51 8.11 30.24 9.07Q29.96 10.03 29.32 10.75Q28.69 11.47 27.68 11.89Q26.67 12.31 25.23 12.31L25.23 12.31Q23.72 12.31 22.71 11.93Q21.70 11.54 21.01 10.99L21.01 10.99L22.14 8.64Q22.74 9.02 23.47 9.38Q24.20 9.74 24.97 9.74L24.97 9.74Q26.12 9.74 26.83 9.13Q27.54 8.52 27.54 6.86L27.54 6.86L27.54-0.41L22.57-0.41L22.57-2.86L30.51-2.86ZM37.57 9.84L37.57 9.84Q38.31 9.84 38.80 9.68Q39.30 9.53 39.58 9.25Q39.87 8.98 39.98 8.63Q40.09 8.28 40.09 7.92L40.09 7.92Q40.09 7.46 39.82 7.10Q39.56 6.74 39.15 6.47Q38.74 6.19 38.24 5.96Q37.74 5.74 37.23 5.54L37.23 5.54Q36.56 5.30 35.84 4.99Q35.12 4.68 34.53 4.20Q33.94 3.72 33.56 3.01Q33.18 2.30 33.18 1.25L33.18 1.25Q33.18-0.84 34.53-2.02Q35.89-3.19 38.26-3.19L38.26-3.19Q39.63-3.19 40.65-2.88Q41.67-2.57 42.37-2.18L42.37-2.18L41.50 0.10Q40.90-0.24 40.17-0.48Q39.44-0.72 38.48-0.72L38.48-0.72Q36.13-0.72 36.13 0.98L36.13 0.98Q36.13 1.42 36.37 1.74Q36.61 2.06 36.98 2.32Q37.35 2.57 37.82 2.76Q38.29 2.95 38.74 3.12L38.74 3.12Q39.44 3.38 40.20 3.71Q40.95 4.03 41.59 4.57Q42.22 5.11 42.63 5.92Q43.04 6.72 43.04 7.94L43.04 7.94Q43.04 10.03 41.68 11.17Q40.33 12.31 37.57 12.31L37.57 12.31Q35.72 12.31 34.62 11.92Q33.51 11.52 32.96 11.18L32.96 11.18L33.82 8.78Q34.47 9.17 35.37 9.50Q36.27 9.84 37.57 9.84ZM47.65 4.56L47.65 4.56Q47.65 5.64 47.73 6.59Q47.82 7.54 48.07 8.23Q48.32 8.93 48.78 9.34Q49.23 9.74 50 9.74L50 9.74Q50.74 9.74 51.21 9.34Q51.68 8.93 51.93 8.22Q52.18 7.51 52.27 6.58Q52.35 5.64 52.35 4.56L52.35 4.56Q52.35 3.48 52.27 2.53Q52.18 1.58 51.93 0.89Q51.68 0.19 51.22-0.22Q50.77-0.62 50-0.62L50-0.62Q49.23-0.62 48.78-0.22Q48.32 0.19 48.07 0.90Q47.82 1.61 47.73 2.54Q47.65 3.48 47.65 4.56ZM44.65 4.56L44.65 4.56Q44.65 0.72 46.06-1.24Q47.48-3.19 50-3.19L50-3.19Q52.62-3.19 53.98-1.24Q55.35 0.72 55.35 4.56L55.35 4.56Q55.35 8.40 53.96 10.36Q52.57 12.31 50.02 12.31L50.02 12.31Q47.41 12.31 46.03 10.36Q44.65 8.40 44.65 4.56ZM66.90 12L64.52 12Q63.51 9.53 62.32 7.07Q61.14 4.61 59.77 2.14L59.77 2.14L59.77 12L57.10 12L57.10-2.86L59.48-2.86Q60.15-1.80 60.82-0.56Q61.50 0.67 62.13 1.90Q62.77 3.12 63.31 4.27Q63.85 5.42 64.23 6.29L64.23 6.29L64.23-2.86L66.90-2.86L66.90 12ZM89.96 12L87.73 12Q87.46 11.26 87.24 10.63Q87.01 10.01 86.80 9.42Q86.60 8.83 86.40 8.20Q86.19 7.56 85.98 6.79L85.98 6.79Q85.74 7.56 85.54 8.17Q85.35 8.78 85.15 9.38Q84.94 9.98 84.73 10.61Q84.51 11.23 84.20 12L84.20 12L81.97 12Q81.68 10.94 81.43 9.66Q81.18 8.38 80.96 6.92Q80.74 5.47 80.58 3.91Q80.41 2.35 80.26 0.72L80.26 0.72L82.78 0.72Q82.88 2.81 82.99 4.80Q83.10 6.79 83.38 8.90L83.38 8.90Q83.70 7.99 83.92 7.21Q84.15 6.43 84.33 5.72Q84.51 5.02 84.67 4.36Q84.82 3.70 84.99 3L84.99 3L87.13 3Q87.27 3.70 87.43 4.36Q87.58 5.02 87.76 5.72Q87.94 6.43 88.15 7.21Q88.35 7.99 88.64 8.90L88.64 8.90Q88.78 7.80 88.88 6.79Q88.98 5.78 89.04 4.79Q89.10 3.79 89.13 2.80Q89.17 1.80 89.22 0.72L89.22 0.72L91.74 0.72Q91.47 4.01 91.00 6.91Q90.54 9.82 89.96 12L89.96 12ZM98.82-2.52L98.82-2.52Q98.82-1.66 98.26-1.15Q97.71-0.65 96.94-0.65L96.94-0.65Q96.18-0.65 95.64-1.15Q95.10-1.66 95.10-2.52L95.10-2.52Q95.10-3.41 95.64-3.91Q96.18-4.42 96.94-4.42L96.94-4.42Q97.71-4.42 98.26-3.91Q98.82-3.41 98.82-2.52ZM102.82 9.14L103.21 11.52Q102.30 11.95 101.49 12.11Q100.69 12.26 100.02 12.26L100.02 12.26Q98.86 12.26 98.08 11.93Q97.30 11.59 96.84 10.96Q96.37 10.32 96.18 9.41Q95.98 8.50 95.98 7.32L95.98 7.32L95.98 3.17L92.86 3.17L92.86 0.72L98.94 0.72L98.94 7.70Q98.94 8.71 99.31 9.20Q99.68 9.70 100.54 9.70L100.54 9.70Q100.95 9.70 101.53 9.59Q102.10 9.48 102.82 9.14L102.82 9.14ZM107.43 7.80L107.43 3.17L104.86 3.17L104.86 0.72L107.43 0.72L107.43-2.11L110.38-2.59L110.38 0.72L115.11 0.72L115.11 3.17L110.38 3.17L110.38 7.73Q110.38 8.35 110.50 8.74Q110.62 9.12 110.84 9.34Q111.06 9.55 111.37 9.62Q111.68 9.70 112.06 9.70L112.06 9.70Q112.47 9.70 112.82 9.67Q113.17 9.65 113.49 9.59Q113.82 9.53 114.16 9.41Q114.51 9.29 114.92 9.10L114.92 9.10L115.33 11.64Q114.51 11.98 113.56 12.12Q112.62 12.26 111.73 12.26L111.73 12.26Q110.70 12.26 109.90 12.10Q109.11 11.93 108.56 11.45Q108.01 10.97 107.72 10.09Q107.43 9.22 107.43 7.80L107.43 7.80ZM120.46 12L117.51 12L117.51-4.15L120.46-4.66L120.46 0.82Q120.82 0.70 121.33 0.59Q121.83 0.48 122.22 0.48L122.22 0.48Q123.46 0.48 124.30 0.85Q125.14 1.22 125.65 1.91Q126.15 2.59 126.37 3.54Q126.58 4.49 126.58 5.64L126.58 5.64L126.58 12L123.63 12L123.63 6.02Q123.63 4.44 123.27 3.74Q122.91 3.05 121.90 3.05L121.90 3.05Q121.50 3.05 121.10 3.14Q120.70 3.24 120.46 3.31L120.46 3.31L120.46 12ZM147.10 12.31L147.10 12.31Q143.96 12.31 142.30 10.30Q140.65 8.28 140.65 4.56L140.65 4.56Q140.65 2.71 141.15 1.27Q141.66-0.17 142.56-1.16Q143.46-2.16 144.69-2.68Q145.93-3.19 147.39-3.19L147.39-3.19Q148.18-3.19 148.82-3.06Q149.46-2.93 149.94-2.76Q150.42-2.59 150.74-2.40Q151.06-2.21 151.23-2.11L151.23-2.11L150.46 0.24Q149.91-0.12 149.13-0.37Q148.35-0.62 147.34-0.62L147.34-0.62Q146.65-0.62 145.99-0.37Q145.33-0.12 144.81 0.47Q144.30 1.06 143.97 2.04Q143.65 3.02 143.65 4.49L143.65 4.49Q143.65 7.03 144.52 8.39Q145.40 9.74 147.39 9.74L147.39 9.74Q148.54 9.74 149.30 9.48Q150.06 9.22 150.51 8.95L150.51 8.95L151.26 11.28Q150.63 11.66 149.56 11.99Q148.50 12.31 147.10 12.31ZM163.33 6.34L163.33 6.34Q163.33 7.68 162.94 8.77Q162.56 9.86 161.86 10.66Q161.17 11.45 160.20 11.88Q159.22 12.31 158.02 12.31L158.02 12.31Q156.82 12.31 155.85 11.88Q154.88 11.45 154.17 10.66Q153.46 9.86 153.08 8.77Q152.70 7.68 152.70 6.34L152.70 6.34Q152.70 5.02 153.09 3.92Q153.49 2.83 154.20 2.05Q154.90 1.27 155.89 0.85Q156.87 0.43 158.02 0.43L158.02 0.43Q159.20 0.43 160.17 0.85Q161.14 1.27 161.85 2.05Q162.56 2.83 162.94 3.92Q163.33 5.02 163.33 6.34ZM155.70 6.36L155.70 6.36Q155.70 7.87 156.24 8.81Q156.78 9.74 157.98 9.74L157.98 9.74Q159.13 9.74 159.72 8.81Q160.30 7.87 160.30 6.36L160.30 6.36Q160.30 4.85 159.76 3.92Q159.22 3 158.02 3L158.02 3Q156.87 3 156.28 3.92Q155.70 4.85 155.70 6.36ZM172.23 0.60L172.23 0.60Q173.17 0.60 173.77 0.89Q174.37 1.18 174.72 1.75Q175.06 2.33 175.18 3.20Q175.30 4.08 175.30 5.26L175.30 5.26L175.30 12L172.90 12L172.90 5.11Q172.90 4.44 172.82 4.03Q172.74 3.62 172.60 3.41Q172.47 3.19 172.29 3.12Q172.11 3.05 171.92 3.05L171.92 3.05Q171.70 3.05 171.46 3.08Q171.22 3.12 171.03 3.22L171.03 3.22Q171.10 3.67 171.15 4.22Q171.20 4.78 171.20 5.45L171.20 5.45L171.20 7.70L168.80 7.70L168.80 5.11Q168.80 3.96 168.57 3.50Q168.34 3.05 167.84 3.05L167.84 3.05Q167.70 3.05 167.49 3.07Q167.29 3.10 167.10 3.14L167.10 3.14L167.10 12L164.70 12L164.70 1.15Q165.63 0.89 166.54 0.74Q167.46 0.60 168.15 0.60L168.15 0.60Q168.78 0.60 169.27 0.76Q169.76 0.91 170.12 1.27L170.12 1.27Q170.53 1.01 171.08 0.80Q171.63 0.60 172.23 0.60ZM184.23 0.60L184.23 0.60Q185.17 0.60 185.77 0.89Q186.37 1.18 186.72 1.75Q187.06 2.33 187.18 3.20Q187.30 4.08 187.30 5.26L187.30 5.26L187.30 12L184.90 12L184.90 5.11Q184.90 4.44 184.82 4.03Q184.74 3.62 184.60 3.41Q184.47 3.19 184.29 3.12Q184.11 3.05 183.92 3.05L183.92 3.05Q183.70 3.05 183.46 3.08Q183.22 3.12 183.03 3.22L183.03 3.22Q183.10 3.67 183.15 4.22Q183.20 4.78 183.20 5.45L183.20 5.45L183.20 7.70L180.80 7.70L180.80 5.11Q180.80 3.96 180.57 3.50Q180.34 3.05 179.84 3.05L179.84 3.05Q179.70 3.05 179.49 3.07Q179.29 3.10 179.10 3.14L179.10 3.14L179.10 12L176.70 12L176.70 1.15Q177.63 0.89 178.54 0.74Q179.46 0.60 180.15 0.60L180.15 0.60Q180.78 0.60 181.27 0.76Q181.76 0.91 182.12 1.27L182.12 1.27Q182.53 1.01 183.08 0.80Q183.63 0.60 184.23 0.60ZM188.74 6.46L188.74 6.46Q188.74 4.97 189.20 3.84Q189.66 2.71 190.40 1.96Q191.14 1.20 192.10 0.82Q193.06 0.43 194.07 0.43L194.07 0.43Q196.57 0.43 197.86 1.91Q199.16 3.38 199.16 6.22L199.16 6.22Q199.16 6.50 199.15 6.82Q199.14 7.13 199.11 7.32L199.11 7.32L191.79 7.32Q191.79 8.42 192.70 9.06Q193.62 9.70 195.06 9.70L195.06 9.70Q195.94 9.70 196.75 9.50Q197.55 9.31 198.10 9.12L198.10 9.12L198.51 11.64Q197.74 11.90 196.88 12.08Q196.02 12.26 194.94 12.26L194.94 12.26Q193.50 12.26 192.36 11.89Q191.22 11.52 190.41 10.79Q189.61 10.06 189.18 8.98Q188.74 7.90 188.74 6.46ZM191.79 5.28L196.30 5.28Q196.30 4.82 196.18 4.40Q196.06 3.98 195.80 3.65Q195.54 3.31 195.13 3.11Q194.72 2.90 194.12 2.90L194.12 2.90Q193.54 2.90 193.12 3.10Q192.70 3.29 192.43 3.62Q192.15 3.96 192.00 4.39Q191.84 4.82 191.79 5.28L191.79 5.28ZM201.51 12L201.51 1.08Q202.30 0.86 203.47 0.67Q204.63 0.48 206 0.48L206 0.48Q207.34 0.48 208.23 0.85Q209.12 1.22 209.64 1.91Q210.15 2.59 210.37 3.54Q210.58 4.49 210.58 5.64L210.58 5.64L210.58 12L207.63 12L207.63 6.02Q207.63 4.44 207.27 3.74Q206.91 3.05 205.81 3.05L205.81 3.05Q205.47 3.05 205.15 3.07Q204.82 3.10 204.46 3.14L204.46 3.14L204.46 12L201.51 12ZM215.43 7.80L215.43 3.17L212.86 3.17L212.86 0.72L215.43 0.72L215.43-2.11L218.38-2.59L218.38 0.72L223.11 0.72L223.11 3.17L218.38 3.17L218.38 7.73Q218.38 8.35 218.50 8.74Q218.62 9.12 218.84 9.34Q219.06 9.55 219.37 9.62Q219.68 9.70 220.06 9.70L220.06 9.70Q220.47 9.70 220.82 9.67Q221.17 9.65 221.49 9.59Q221.82 9.53 222.16 9.41Q222.51 9.29 222.92 9.10L222.92 9.10L223.33 11.64Q222.51 11.98 221.56 12.12Q220.62 12.26 219.73 12.26L219.73 12.26Q218.70 12.26 217.90 12.10Q217.11 11.93 216.56 11.45Q216.01 10.97 215.72 10.09Q215.43 9.22 215.43 7.80L215.43 7.80ZM229.47 9.77L229.47 9.77Q230.55 9.77 231.13 9.61Q231.70 9.46 231.70 8.98L231.70 8.98Q231.70 8.66 231.52 8.45Q231.34 8.23 231.02 8.08Q230.70 7.92 230.28 7.78Q229.86 7.63 229.40 7.49L229.40 7.49Q228.75 7.30 228.08 7.04Q227.41 6.79 226.86 6.41Q226.30 6.02 225.94 5.44Q225.58 4.85 225.58 3.96L225.58 3.96Q225.58 3.24 225.86 2.60Q226.14 1.97 226.72 1.48Q227.31 0.98 228.22 0.71Q229.14 0.43 230.41 0.43L230.41 0.43Q231.51 0.43 232.46 0.60Q233.41 0.77 234.10 1.08L234.10 1.08L233.65 3.58Q233.24 3.46 232.38 3.18Q231.51 2.90 230.43 2.90L230.43 2.90Q229.30 2.90 228.91 3.18Q228.51 3.46 228.51 3.77L228.51 3.77Q228.51 4.03 228.69 4.24Q228.87 4.44 229.17 4.61Q229.47 4.78 229.87 4.93Q230.26 5.09 230.72 5.23L230.72 5.23Q231.37 5.45 232.06 5.71Q232.76 5.98 233.32 6.37Q233.89 6.77 234.25 7.38Q234.61 7.99 234.61 8.88L234.61 8.88Q234.61 9.58 234.34 10.20Q234.08 10.82 233.47 11.28Q232.86 11.74 231.87 12Q230.89 12.26 229.45 12.26L229.45 12.26Q227.98 12.26 226.95 11.93Q225.92 11.59 225.30 11.33L225.30 11.33L225.75 8.86Q226.59 9.19 227.54 9.48Q228.49 9.77 229.47 9.77Z"/>
    </g>
</svg>