<?xml version="1.0" encoding="UTF-8"?>
<svg height="34" width="78.4" version="1.1" xmlns="http://www.w3.org/2000/svg">
    <rect
        height="32"
        width="76.4"
        rx="1"
        ry="1"
        x="1"
        y="1"
        fill="#88562A"
        stroke="#140c06"
        stroke-width="1"
         />
    <g transform="translate(0, 14)">
        <path fill="#140c06" d="M18.74-3.73L18.74-3.73Q17.50-3.73 16.66-3.28Q15.82-2.83 15.28-2.03Q14.73-1.24 14.49-0.13Q14.26 0.98 14.26 2.32L14.26 2.32Q14.26 5.43 15.24 6.90Q16.22 8.37 18.12 8.37L18.12 8.37Q18.43 8.37 18.79 8.34Q19.16 8.31 19.46 8.26L19.46 8.26L19.46 1.93L22.91 1.93L22.91 10.58Q22.29 10.80 20.99 11.08Q19.69 11.36 17.84 11.36L17.84 11.36Q16.22 11.36 14.91 10.79Q13.61 10.22 12.69 9.08Q11.76 7.95 11.26 6.25Q10.76 4.56 10.76 2.32L10.76 2.32Q10.76 0.11 11.34-1.59Q11.93-3.28 12.94-4.43Q13.95-5.58 15.32-6.15Q16.69-6.72 18.26-6.72L18.26-6.72Q19.27-6.72 20.07-6.57Q20.86-6.42 21.45-6.22Q22.04-6.02 22.42-5.80Q22.80-5.58 22.99-5.46L22.99-5.46L22.10-2.72Q21.48-3.11 20.58-3.42Q19.69-3.73 18.74-3.73ZM37.22 4.39L37.22 4.39Q37.22 5.96 36.77 7.23Q36.32 8.51 35.51 9.43Q34.70 10.36 33.56 10.86Q32.43 11.36 31.03 11.36L31.03 11.36Q29.63 11.36 28.49 10.86Q27.36 10.36 26.53 9.43Q25.71 8.51 25.26 7.23Q24.81 5.96 24.81 4.39L24.81 4.39Q24.81 2.85 25.27 1.58Q25.74 0.30 26.56-0.61Q27.39-1.52 28.54-2.01Q29.68-2.50 31.03-2.50L31.03-2.50Q32.40-2.50 33.53-2.01Q34.67-1.52 35.49-0.61Q36.32 0.30 36.77 1.58Q37.22 2.85 37.22 4.39ZM28.31 4.42L28.31 4.42Q28.31 6.18 28.94 7.28Q29.57 8.37 30.97 8.37L30.97 8.37Q32.32 8.37 33.00 7.28Q33.69 6.18 33.69 4.42L33.69 4.42Q33.69 2.66 33.06 1.58Q32.43 0.50 31.03 0.50L31.03 0.50Q29.68 0.50 29.00 1.58Q28.31 2.66 28.31 4.42ZM50.63 7.67L51.08 10.44Q50.99 10.50 50.70 10.64Q50.40 10.78 49.93 10.93Q49.45 11.08 48.77 11.20Q48.08 11.31 47.21 11.31L47.21 11.31Q44.83 11.31 43.74 9.89Q42.65 8.48 42.65 5.76L42.65 5.76L42.65-5.41L39.01-5.41L39.01-8.26L46.09-8.26L46.09 6.02Q46.09 7.36 46.62 7.84Q47.16 8.31 47.97 8.31L47.97 8.31Q49.00 8.31 49.70 8.03Q50.40 7.75 50.63 7.67L50.63 7.67ZM65.22 4.39L65.22 4.39Q65.22 5.96 64.77 7.23Q64.32 8.51 63.51 9.43Q62.70 10.36 61.56 10.86Q60.43 11.36 59.03 11.36L59.03 11.36Q57.63 11.36 56.49 10.86Q55.36 10.36 54.53 9.43Q53.71 8.51 53.26 7.23Q52.81 5.96 52.81 4.39L52.81 4.39Q52.81 2.85 53.27 1.58Q53.74 0.30 54.56-0.61Q55.39-1.52 56.54-2.01Q57.68-2.50 59.03-2.50L59.03-2.50Q60.40-2.50 61.53-2.01Q62.67-1.52 63.49-0.61Q64.32 0.30 64.77 1.58Q65.22 2.85 65.22 4.39ZM56.31 4.42L56.31 4.42Q56.31 6.18 56.94 7.28Q57.57 8.37 58.97 8.37L58.97 8.37Q60.32 8.37 61.00 7.28Q61.69 6.18 61.69 4.42L61.69 4.42Q61.69 2.66 61.06 1.58Q60.43 0.50 59.03 0.50L59.03 0.50Q57.68 0.50 57.00 1.58Q56.31 2.66 56.31 4.42Z"/>
    </g>
</svg>