<?xml version="1.0" encoding="UTF-8"?><svg height="26" width="82.5" version="1.1" xmlns="http://www.w3.org/2000/svg"><!--Created by Josélio de S. C. Júnior - 2021 - https://github.com/joseliojunior --><rect height="24" width="80.5" rx="12" ry="12" x="1" y="1" fill="#dad8d8" stroke="#766f6f" stroke-width="1" /><g transform="translate(0, 8)"><path fill="#766f6f" d="M23.58-0.02L23.58-0.02Q25.47-0.02 26.51 0.76Q27.55 1.54 27.55 3.30L27.55 3.30Q27.55 5.07 26.50 5.86Q25.46 6.66 23.54 6.66L23.54 6.66L22.83 6.66L22.83 10L20.86 10L20.86 0.22Q21.15 0.16 21.51 0.11Q21.87 0.06 22.24 0.04Q22.61 0.02 22.96 0Q23.31-0.02 23.58-0.02ZM23.81 1.70L23.81 1.70Q23.63 1.70 23.32 1.70Q23.01 1.71 22.83 1.74L22.83 1.74L22.83 4.94L23.63 4.94Q24.58 4.94 25.06 4.57Q25.54 4.19 25.54 3.28L25.54 3.28Q25.54 2.42 25.06 2.06Q24.59 1.70 23.81 1.70ZM35.36 8.37L35.36 10L29.14 10L29.14 0.10L31.12 0.10L31.12 8.37L35.36 8.37ZM39.71 8.56L39.71 8.56Q40.21 8.56 40.54 8.46Q40.86 8.35 41.06 8.17Q41.25 7.98 41.32 7.75Q41.39 7.52 41.39 7.28L41.39 7.28Q41.39 6.98 41.22 6.74Q41.04 6.50 40.77 6.31Q40.50 6.13 40.16 5.98Q39.82 5.82 39.49 5.70L39.49 5.70Q39.04 5.54 38.56 5.33Q38.08 5.12 37.69 4.80Q37.30 4.48 37.04 4.01Q36.78 3.54 36.78 2.83L36.78 2.83Q36.78 1.44 37.69 0.66Q38.59-0.13 40.18-0.13L40.18-0.13Q41.09-0.13 41.77 0.08Q42.45 0.29 42.91 0.54L42.91 0.54L42.34 2.06Q41.94 1.84 41.45 1.68Q40.96 1.52 40.32 1.52L40.32 1.52Q38.75 1.52 38.75 2.66L38.75 2.66Q38.75 2.94 38.91 3.16Q39.07 3.38 39.32 3.54Q39.57 3.71 39.88 3.84Q40.19 3.97 40.50 4.08L40.50 4.08Q40.96 4.26 41.46 4.47Q41.97 4.69 42.39 5.05Q42.82 5.41 43.09 5.94Q43.36 6.48 43.36 7.30L43.36 7.30Q43.36 8.69 42.46 9.45Q41.55 10.21 39.71 10.21L39.71 10.21Q38.48 10.21 37.74 9.94Q37.01 9.68 36.64 9.46L36.64 9.46L37.22 7.86Q37.65 8.11 38.25 8.34Q38.85 8.56 39.71 8.56ZM44.43 5.09L44.43 5.09Q44.43 2.53 45.38 1.22Q46.32-0.08 48-0.08L48-0.08Q49.74-0.08 50.66 1.22Q51.57 2.53 51.57 5.09L51.57 5.09Q51.57 7.33 50.85 8.62Q50.13 9.90 48.77 10.18L48.77 10.18Q48.94 10.58 49.62 10.84Q50.30 11.10 51.49 11.31L51.49 11.31L51.07 12.72Q49.20 12.46 48.25 11.86Q47.30 11.26 47.12 10.14L47.12 10.14Q45.82 9.82 45.13 8.55Q44.43 7.28 44.43 5.09ZM46.43 5.09L46.43 5.09Q46.43 5.81 46.49 6.43Q46.54 7.06 46.71 7.53Q46.88 8 47.18 8.27Q47.49 8.54 48 8.54L48 8.54Q48.50 8.54 48.81 8.27Q49.12 8 49.29 7.53Q49.46 7.06 49.51 6.43Q49.57 5.81 49.57 5.09L49.57 5.09Q49.57 4.37 49.51 3.74Q49.46 3.10 49.29 2.64Q49.12 2.18 48.82 1.90Q48.51 1.63 48 1.63L48 1.63Q47.49 1.63 47.18 1.90Q46.88 2.18 46.71 2.65Q46.54 3.12 46.49 3.74Q46.43 4.37 46.43 5.09ZM59.36 8.37L59.36 10L53.14 10L53.14 0.10L55.12 0.10L55.12 8.37L59.36 8.37Z"/></g></svg>