<?xml version="1.0" encoding="UTF-8"?>
<svg height="34" width="102.5" version="1.1" xmlns="http://www.w3.org/2000/svg"><!--Created by Josélio de S. C. Júnior - 2021 - https://github.com/joseliojunior -->
    <rect
        height="32"
        width="100.5"
        rx="16"
        ry="16"
        x="1" y="1"
        fill="#dad8d8"
        stroke="#766f6f"
        stroke-width="1" />
    <g transform="translate(0, 12)">
        <path fill="#766f6f" stroke="none" d="M25.38-3.02L25.38-3.02Q28.21-3.02 29.77-1.86Q31.33-0.70 31.33 1.94L31.33 1.94Q31.33 4.61 29.76 5.80Q28.18 6.98 25.30 6.98L25.30 6.98L24.25 6.98L24.25 12L21.30 12L21.30-2.66Q21.73-2.76 22.27-2.83Q22.81-2.90 23.36-2.94Q23.91-2.98 24.44-3Q24.97-3.02 25.38-3.02ZM25.71-0.46L25.71-0.46Q25.45-0.46 24.98-0.44Q24.51-0.43 24.25-0.38L24.25-0.38L24.25 4.42L25.45 4.42Q26.86 4.42 27.58 3.85Q28.30 3.29 28.30 1.92L28.30 1.92Q28.30 0.62 27.60 0.08Q26.89-0.46 25.71-0.46ZM43.04 9.55L43.04 12L33.70 12L33.70-2.86L36.68-2.86L36.68 9.55L43.04 9.55ZM49.57 9.84L49.57 9.84Q50.31 9.84 50.80 9.68Q51.30 9.53 51.58 9.25Q51.87 8.98 51.98 8.63Q52.09 8.28 52.09 7.92L52.09 7.92Q52.09 7.46 51.82 7.10Q51.56 6.74 51.15 6.47Q50.74 6.19 50.24 5.96Q49.74 5.74 49.23 5.54L49.23 5.54Q48.56 5.30 47.84 4.99Q47.12 4.68 46.53 4.20Q45.94 3.72 45.56 3.01Q45.18 2.30 45.18 1.25L45.18 1.25Q45.18-0.84 46.53-2.02Q47.89-3.19 50.26-3.19L50.26-3.19Q51.63-3.19 52.65-2.88Q53.67-2.57 54.37-2.18L54.37-2.18L53.50 0.10Q52.90-0.24 52.17-0.48Q51.44-0.72 50.48-0.72L50.48-0.72Q48.13-0.72 48.13 0.98L48.13 0.98Q48.13 1.42 48.37 1.74Q48.61 2.06 48.98 2.32Q49.35 2.57 49.82 2.76Q50.29 2.95 50.74 3.12L50.74 3.12Q51.44 3.38 52.20 3.71Q52.95 4.03 53.59 4.57Q54.22 5.11 54.63 5.92Q55.04 6.72 55.04 7.94L55.04 7.94Q55.04 10.03 53.68 11.17Q52.33 12.31 49.57 12.31L49.57 12.31Q47.72 12.31 46.62 11.92Q45.51 11.52 44.96 11.18L44.96 11.18L45.82 8.78Q46.47 9.17 47.37 9.50Q48.27 9.84 49.57 9.84ZM56.65 4.63L56.65 4.63Q56.65 0.79 58.06-1.16Q59.48-3.12 62-3.12L62-3.12Q64.62-3.12 65.98-1.16Q67.35 0.79 67.35 4.63L67.35 4.63Q67.35 7.99 66.27 9.92Q65.19 11.86 63.15 12.26L63.15 12.26Q63.42 12.86 64.44 13.26Q65.46 13.66 67.23 13.97L67.23 13.97L66.61 16.08Q63.80 15.70 62.37 14.80Q60.94 13.90 60.68 12.22L60.68 12.22Q58.74 11.74 57.69 9.83Q56.65 7.92 56.65 4.63ZM59.65 4.63L59.65 4.63Q59.65 5.71 59.73 6.65Q59.82 7.58 60.07 8.29Q60.32 9 60.78 9.41Q61.23 9.82 62 9.82L62 9.82Q62.74 9.82 63.21 9.41Q63.68 9 63.93 8.29Q64.18 7.58 64.27 6.65Q64.35 5.71 64.35 4.63L64.35 4.63Q64.35 3.55 64.27 2.60Q64.18 1.66 63.93 0.96Q63.68 0.26 63.22-0.14Q62.77-0.55 62-0.55L62-0.55Q61.23-0.55 60.78-0.14Q60.32 0.26 60.07 0.97Q59.82 1.68 59.73 2.62Q59.65 3.55 59.65 4.63ZM79.04 9.55L79.04 12L69.70 12L69.70-2.86L72.68-2.86L72.68 9.55L79.04 9.55Z"/>
    </g>
</svg>