<?xml version="1.0" encoding="UTF-8"?>
<svg height="34" width="92.5" version="1.1" xmlns="http://www.w3.org/2000/svg">
    <rect
        height="32"
        width="90.5"
        rx="14"
        ry="14"
        x="1"
        y="1"
        fill="#64C800"
        stroke="#172e00"
        stroke-width="1"
         />
    <g transform="translate(0, 14)">
        <path fill="#172e00" d="M23.75 11L20.05 11L19.24 7.00L14.62 7.00L13.84 11L10.25 11Q11.48 5.88 12.74 1.66Q14.00-2.55 15.18-6.33L15.18-6.33L18.93-6.33Q20.16-2.52 21.38 1.75Q22.60 6.02 23.75 11L23.75 11ZM16.97-2.97L16.97-2.97Q16.69-1.99 16.45-1.11Q16.22-0.23 16.01 0.63Q15.80 1.48 15.61 2.35Q15.43 3.22 15.26 4.14L15.26 4.14L18.65 4.14Q18.48 3.22 18.32 2.35Q18.15 1.48 17.94 0.63Q17.73-0.23 17.49-1.11Q17.25-1.99 16.97-2.97ZM36.63 7.67L37.08 10.44Q36.99 10.50 36.70 10.64Q36.40 10.78 35.93 10.93Q35.45 11.08 34.77 11.20Q34.08 11.31 33.21 11.31L33.21 11.31Q30.83 11.31 29.74 9.89Q28.65 8.48 28.65 5.76L28.65 5.76L28.65-5.41L25.01-5.41L25.01-8.26L32.09-8.26L32.09 6.02Q32.09 7.36 32.62 7.84Q33.16 8.31 33.97 8.31L33.97 8.31Q35.00 8.31 35.70 8.03Q36.40 7.75 36.63 7.67L36.63 7.67ZM50.63 7.67L51.08 10.44Q50.99 10.50 50.70 10.64Q50.40 10.78 49.93 10.93Q49.45 11.08 48.77 11.20Q48.08 11.31 47.21 11.31L47.21 11.31Q44.83 11.31 43.74 9.89Q42.65 8.48 42.65 5.76L42.65 5.76L42.65-5.41L39.01-5.41L39.01-8.26L46.09-8.26L46.09 6.02Q46.09 7.36 46.62 7.84Q47.16 8.31 47.97 8.31L47.97 8.31Q49.00 8.31 49.70 8.03Q50.40 7.75 50.63 7.67L50.63 7.67ZM65.22 4.39L65.22 4.39Q65.22 5.96 64.77 7.23Q64.32 8.51 63.51 9.43Q62.70 10.36 61.56 10.86Q60.43 11.36 59.03 11.36L59.03 11.36Q57.63 11.36 56.49 10.86Q55.36 10.36 54.53 9.43Q53.71 8.51 53.26 7.23Q52.81 5.96 52.81 4.39L52.81 4.39Q52.81 2.85 53.27 1.58Q53.74 0.30 54.56-0.61Q55.39-1.52 56.54-2.01Q57.68-2.50 59.03-2.50L59.03-2.50Q60.40-2.50 61.53-2.01Q62.67-1.52 63.49-0.61Q64.32 0.30 64.77 1.58Q65.22 2.85 65.22 4.39ZM56.31 4.42L56.31 4.42Q56.31 6.18 56.94 7.28Q57.57 8.37 58.97 8.37L58.97 8.37Q60.32 8.37 61.00 7.28Q61.69 6.18 61.69 4.42L61.69 4.42Q61.69 2.66 61.06 1.58Q60.43 0.50 59.03 0.50L59.03 0.50Q57.68 0.50 57.00 1.58Q56.31 2.66 56.31 4.42ZM75.69-2.16L79.22-2.16Q78.68-0.31 78.19 1.47Q77.70 3.24 77.17 4.94Q76.64 6.63 76.04 8.26Q75.44 9.88 74.74 11.42L74.74 11.42Q74.20 12.54 73.69 13.35Q73.17 14.16 72.54 14.68Q71.91 15.20 71.14 15.45Q70.37 15.70 69.33 15.70L69.33 15.70Q68.46 15.70 67.75 15.56Q67.04 15.42 66.56 15.20L66.56 15.20L67.20 12.32Q67.76 12.57 68.20 12.67Q68.63 12.76 69.14 12.76L69.14 12.76Q70.14 12.76 70.76 12.09Q71.38 11.42 71.74 10.50L71.74 10.50Q70.51 8.03 69.28 4.85Q68.04 1.68 67.04-2.16L67.04-2.16L70.62-2.16Q70.87-1.12 71.19 0.05Q71.52 1.23 71.88 2.40Q72.24 3.58 72.65 4.71Q73.06 5.85 73.48 6.83L73.48 6.83Q73.76 5.85 74.06 4.71Q74.37 3.58 74.65 2.42Q74.93 1.26 75.20 0.08Q75.46-1.10 75.69-2.16L75.69-2.16Z"/>
    </g>
</svg>