<?xml version="1.0" encoding="UTF-8"?>
<svg height="34" width="191.2" version="1.1" xmlns="http://www.w3.org/2000/svg">
    <rect
        height="32"
        width="189.2"
        rx="1"
        ry="1"
        x="1"
        y="1"
        fill="#662D91"
        stroke="#13081b"
        stroke-width="1"
         />
    <g transform="translate(0, 14)">
        <path fill="#13081b" d="M23.13 5.76L23.13 5.76Q23.13 7.33 22.60 8.38Q22.07 9.43 21.16 10.06Q20.25 10.69 19.00 10.96Q17.76 11.22 16.33 11.22L16.33 11.22Q15.18 11.22 13.95 11.10Q12.72 10.97 11.51 10.72L11.51 10.72L11.51-6.11Q12.49-6.28 13.67-6.40Q14.84-6.53 15.99-6.53L15.99-6.53Q17.95-6.53 19.18-6.12Q20.42-5.72 21.12-5.06Q21.82-4.40 22.07-3.59Q22.32-2.78 22.32-1.96L22.32-1.96Q22.32-0.73 21.72 0.22Q21.12 1.17 20.11 1.73L20.11 1.73Q21.87 2.38 22.50 3.47Q23.13 4.56 23.13 5.76ZM16.80 3.41L14.96 3.41L14.96 8.12Q15.32 8.17 15.75 8.20Q16.19 8.23 16.61 8.23L16.61 8.23Q17.20 8.23 17.76 8.13Q18.32 8.03 18.75 7.77Q19.18 7.50 19.46 7.01Q19.74 6.52 19.74 5.76L19.74 5.76Q19.74 4.50 18.95 3.96Q18.15 3.41 16.80 3.41L16.80 3.41ZM14.96 0.56L16.30 0.56Q17.62 0.56 18.29-0.02Q18.96-0.59 18.96-1.60L18.96-1.60Q18.96-2.22 18.76-2.59Q18.57-2.97 18.23-3.18Q17.90-3.39 17.45-3.46Q17-3.53 16.52-3.53L16.52-3.53Q16.13-3.53 15.71-3.50Q15.29-3.48 14.96-3.42L14.96-3.42L14.96 0.56ZM36.85-1.85L36.24 1.34Q35.90 1.26 35.44 1.17Q34.98 1.09 34.50 1.02Q34.02 0.95 33.58 0.92Q33.13 0.89 32.82 0.89L32.82 0.89Q32.09 0.89 31.39 0.96Q30.69 1.03 29.96 1.23L29.96 1.23L29.96 11L26.49 11L26.49-1.29Q27.86-1.80 29.31-2.10Q30.75-2.41 32.68-2.41L32.68-2.41Q32.96-2.41 33.48-2.38Q34.00-2.36 34.58-2.29Q35.17-2.22 35.77-2.12Q36.38-2.02 36.85-1.85L36.85-1.85ZM45.95-5.94L45.95-5.94Q45.95-4.93 45.31-4.34Q44.66-3.76 43.77-3.76L43.77-3.76Q42.87-3.76 42.24-4.34Q41.61-4.93 41.61-5.94L41.61-5.94Q41.61-6.98 42.24-7.56Q42.87-8.15 43.77-8.15L43.77-8.15Q44.66-8.15 45.31-7.56Q45.95-6.98 45.95-5.94ZM50.63 7.67L51.08 10.44Q50.01 10.94 49.07 11.13Q48.14 11.31 47.35 11.31L47.35 11.31Q46.01 11.31 45.10 10.92Q44.19 10.52 43.64 9.78Q43.10 9.04 42.87 7.98Q42.65 6.91 42.65 5.54L42.65 5.54L42.65 0.70L39.01 0.70L39.01-2.16L46.09-2.16L46.09 5.99Q46.09 7.16 46.53 7.74Q46.96 8.31 47.97 8.31L47.97 8.31Q48.44 8.31 49.12 8.19Q49.79 8.06 50.63 7.67L50.63 7.67ZM56.42 4L56.42 4Q56.42 5.62 57.01 6.48Q57.60 7.33 58.86 7.33L58.86 7.33Q59.42 7.33 59.91 7.19Q60.40 7.05 60.79 6.83L60.79 6.83L60.79 0.50Q60.40 0.42 60.09 0.39Q59.78 0.36 59.45 0.36L59.45 0.36Q56.42 0.36 56.42 4ZM64.26-1.74L64.26 9.40Q64.26 12.62 62.71 14.16Q61.16 15.70 57.71 15.70L57.71 15.70Q56.48 15.70 55.35 15.45Q54.21 15.20 53.18 14.86L53.18 14.86L53.82 11.95Q54.63 12.26 55.53 12.53Q56.42 12.79 57.77 12.79L57.77 12.79Q58.66 12.79 59.25 12.58Q59.84 12.37 60.18 12.01Q60.51 11.64 60.65 11.15Q60.79 10.66 60.79 10.10L60.79 10.10L60.79 9.57Q60.06 9.85 59.46 9.99Q58.86 10.13 58.16 10.13L58.16 10.13Q55.58 10.13 54.25 8.51Q52.92 6.88 52.92 4L52.92 4Q52.92 0.75 54.72-0.84Q56.51-2.44 59.59-2.44L59.59-2.44Q61.74-2.44 64.26-1.74L64.26-1.74ZM71.21 11L67.76 11L67.76-7.84L71.21-8.43L71.21-2.05Q71.63-2.19 72.22-2.31Q72.80-2.44 73.25-2.44L73.25-2.44Q74.71-2.44 75.69-2.01Q76.67-1.57 77.26-0.77Q77.84 0.02 78.10 1.13Q78.35 2.24 78.35 3.58L78.35 3.58L78.35 11L74.90 11L74.90 4.03Q74.90 2.18 74.48 1.37Q74.06 0.56 72.89 0.56L72.89 0.56Q72.41 0.56 71.95 0.67Q71.49 0.78 71.21 0.86L71.21 0.86L71.21 11ZM84.00 6.10L84.00 0.70L81.01 0.70L81.01-2.16L84.00-2.16L84.00-5.46L87.45-6.02L87.45-2.16L92.96-2.16L92.96 0.70L87.45 0.70L87.45 6.02Q87.45 6.74 87.59 7.19Q87.73 7.64 87.98 7.89Q88.23 8.14 88.60 8.23Q88.96 8.31 89.41 8.31L89.41 8.31Q89.88 8.31 90.29 8.28Q90.70 8.26 91.07 8.19Q91.45 8.12 91.86 7.98Q92.26 7.84 92.74 7.61L92.74 7.61L93.22 10.58Q92.26 10.97 91.16 11.14Q90.05 11.31 89.02 11.31L89.02 11.31Q87.81 11.31 86.89 11.11Q85.96 10.92 85.32 10.36Q84.68 9.80 84.34 8.77Q84.00 7.75 84.00 6.10L84.00 6.10ZM100.38 8.40L100.38 8.40Q101.64 8.40 102.32 8.21Q102.99 8.03 102.99 7.47L102.99 7.47Q102.99 7.11 102.78 6.86Q102.57 6.60 102.19 6.42Q101.81 6.24 101.32 6.07Q100.83 5.90 100.30 5.74L100.30 5.74Q99.54 5.51 98.76 5.22Q97.98 4.92 97.33 4.48Q96.69 4.03 96.27 3.34Q95.85 2.66 95.85 1.62L95.85 1.62Q95.85 0.78 96.17 0.04Q96.49-0.70 97.18-1.28Q97.86-1.85 98.93-2.17Q99.99-2.50 101.48-2.50L101.48-2.50Q102.76-2.50 103.87-2.30Q104.98-2.10 105.79-1.74L105.79-1.74L105.26 1.17Q104.78 1.03 103.77 0.71Q102.76 0.39 101.50 0.39L101.50 0.39Q100.19 0.39 99.73 0.71Q99.26 1.03 99.26 1.40L99.26 1.40Q99.26 1.70 99.47 1.94Q99.68 2.18 100.03 2.38Q100.38 2.57 100.85 2.75Q101.31 2.94 101.84 3.10L101.84 3.10Q102.60 3.36 103.41 3.66Q104.22 3.97 104.88 4.43Q105.54 4.90 105.96 5.61Q106.38 6.32 106.38 7.36L106.38 7.36Q106.38 8.17 106.07 8.90Q105.76 9.63 105.05 10.16Q104.33 10.69 103.18 11Q102.04 11.31 100.36 11.31L100.36 11.31Q98.65 11.31 97.44 10.92Q96.24 10.52 95.51 10.22L95.51 10.22L96.04 7.33Q97.02 7.72 98.13 8.06Q99.24 8.40 100.38 8.40ZM109.23 4.42L109.23 4.42Q109.23 2.99 109.68 1.73Q110.13 0.47 111.05-0.47Q111.98-1.40 113.39-1.95Q114.80-2.50 116.76-2.50L116.76-2.50Q117.94-2.50 118.89-2.33Q119.84-2.16 120.82-1.77L120.82-1.77L120.07 1.00Q119.51 0.81 118.82 0.65Q118.14 0.50 117.07 0.50L117.07 0.50Q115.84 0.50 115.01 0.79Q114.19 1.09 113.68 1.61Q113.18 2.12 112.96 2.85Q112.73 3.58 112.73 4.42L112.73 4.42Q112.73 6.24 113.75 7.28Q114.78 8.31 117.24 8.31L117.24 8.31Q118.05 8.31 118.93 8.20Q119.82 8.09 120.54 7.84L120.54 7.84L121.05 10.66Q120.32 10.94 119.28 11.13Q118.25 11.31 116.85 11.31L116.85 11.31Q114.83 11.31 113.39 10.78Q111.95 10.24 111.02 9.32Q110.10 8.40 109.67 7.14Q109.23 5.88 109.23 4.42ZM134.85-1.85L134.24 1.34Q133.90 1.26 133.44 1.17Q132.98 1.09 132.50 1.02Q132.02 0.95 131.58 0.92Q131.13 0.89 130.82 0.89L130.82 0.89Q130.09 0.89 129.39 0.96Q128.69 1.03 127.96 1.23L127.96 1.23L127.96 11L124.49 11L124.49-1.29Q125.86-1.80 127.31-2.10Q128.75-2.41 130.68-2.41L130.68-2.41Q130.96-2.41 131.48-2.38Q132.00-2.36 132.58-2.29Q133.17-2.22 133.77-2.12Q134.38-2.02 134.85-1.85L134.85-1.85ZM143.95-5.94L143.95-5.94Q143.95-4.93 143.31-4.34Q142.66-3.76 141.77-3.76L141.77-3.76Q140.87-3.76 140.24-4.34Q139.61-4.93 139.61-5.94L139.61-5.94Q139.61-6.98 140.24-7.56Q140.87-8.15 141.77-8.15L141.77-8.15Q142.66-8.15 143.31-7.56Q143.95-6.98 143.95-5.94ZM148.63 7.67L149.08 10.44Q148.01 10.94 147.07 11.13Q146.14 11.31 145.35 11.31L145.35 11.31Q144.01 11.31 143.10 10.92Q142.19 10.52 141.64 9.78Q141.10 9.04 140.87 7.98Q140.65 6.91 140.65 5.54L140.65 5.54L140.65 0.70L137.01 0.70L137.01-2.16L144.09-2.16L144.09 5.99Q144.09 7.16 144.53 7.74Q144.96 8.31 145.97 8.31L145.97 8.31Q146.44 8.31 147.12 8.19Q147.79 8.06 148.63 7.67L148.63 7.67ZM159.63 4.53L159.63 4.53Q159.63 2.77 158.93 1.63Q158.23 0.50 156.80 0.50L156.80 0.50Q156.41 0.50 155.96 0.54Q155.52 0.58 155.21 0.61L155.21 0.61L155.21 7.84Q155.54 8.06 156.10 8.20Q156.66 8.34 157.22 8.34L157.22 8.34Q158.46 8.34 159.04 7.35Q159.63 6.35 159.63 4.53ZM163.13 4.42L163.13 4.42Q163.13 5.93 162.80 7.21Q162.46 8.48 161.82 9.39Q161.17 10.30 160.19 10.80Q159.21 11.31 157.92 11.31L157.92 11.31Q156.61 11.31 155.21 10.66L155.21 10.66L155.21 15.62L151.76 15.62L151.76-1.74Q152.72-2.05 154.10-2.24Q155.49-2.44 156.83-2.44L156.83-2.44Q159.88-2.44 161.51-0.59Q163.13 1.26 163.13 4.42ZM168.00 6.10L168.00 0.70L165.01 0.70L165.01-2.16L168.00-2.16L168.00-5.46L171.45-6.02L171.45-2.16L176.96-2.16L176.96 0.70L171.45 0.70L171.45 6.02Q171.45 6.74 171.59 7.19Q171.73 7.64 171.98 7.89Q172.23 8.14 172.60 8.23Q172.96 8.31 173.41 8.31L173.41 8.31Q173.88 8.31 174.29 8.28Q174.70 8.26 175.07 8.19Q175.45 8.12 175.86 7.98Q176.26 7.84 176.74 7.61L176.74 7.61L177.22 10.58Q176.26 10.97 175.16 11.14Q174.05 11.31 173.02 11.31L173.02 11.31Q171.81 11.31 170.89 11.11Q169.96 10.92 169.32 10.36Q168.68 9.80 168.34 8.77Q168.00 7.75 168.00 6.10L168.00 6.10Z"/>
    </g>
</svg>