<?xml version="1.0" encoding="UTF-8"?>
<svg height="34" width="92.5" version="1.1" xmlns="http://www.w3.org/2000/svg">
    <rect
        height="32"
        width="90.5"
        rx="14"
        ry="14"
        x="1"
        y="1"
        fill="#358a5b"
        stroke="#0a1a11"
        stroke-width="1"
         />
    <g transform="translate(0, 14)">
        <path fill="#0a1a11" d="M15.99-6.53L15.99-6.53Q17.48-6.53 18.68-6.19Q19.88-5.86 20.75-5.16Q21.62-4.46 22.08-3.38Q22.54-2.30 22.54-0.84L22.54-0.84Q22.54 0.67 21.93 1.90Q21.31 3.13 19.88 3.78L19.88 3.78Q20.36 4.50 20.89 5.39Q21.42 6.27 21.93 7.23Q22.43 8.20 22.89 9.17Q23.36 10.13 23.69 11L23.69 11L20.08 11Q19.44 9.32 18.58 7.77Q17.73 6.21 16.75 4.62L16.75 4.62L14.96 4.62L14.96 11L11.51 11L11.51-6.08Q12.02-6.19 12.62-6.29Q13.22-6.39 13.84-6.43Q14.45-6.47 15.01-6.50Q15.57-6.53 15.99-6.53ZM19.04-0.87L19.04-0.87Q19.04-2.24 18.20-2.89Q17.36-3.53 15.99-3.53L15.99-3.53Q15.80-3.53 15.52-3.52Q15.24-3.50 14.96-3.45L14.96-3.45L14.96 1.76L15.71 1.76Q17.48 1.76 18.26 1.07Q19.04 0.39 19.04-0.87ZM24.87 4.53L24.87 4.53Q24.87 2.80 25.40 1.48Q25.93 0.16 26.80-0.72Q27.67-1.60 28.79-2.05Q29.91-2.50 31.08-2.50L31.08-2.50Q34.00-2.50 35.51-0.77Q37.02 0.95 37.02 4.25L37.02 4.25Q37.02 4.59 37.01 4.95Q36.99 5.32 36.96 5.54L36.96 5.54L28.42 5.54Q28.42 6.83 29.49 7.57Q30.55 8.31 32.23 8.31L32.23 8.31Q33.27 8.31 34.21 8.09Q35.14 7.86 35.79 7.64L35.79 7.64L36.26 10.58Q35.37 10.89 34.36 11.10Q33.35 11.31 32.09 11.31L32.09 11.31Q30.41 11.31 29.08 10.87Q27.75 10.44 26.81 9.59Q25.88 8.73 25.37 7.47Q24.87 6.21 24.87 4.53ZM28.42 3.16L33.69 3.16Q33.69 2.63 33.55 2.14Q33.41 1.65 33.10 1.26Q32.79 0.86 32.32 0.63Q31.84 0.39 31.14 0.39L31.14 0.39Q30.47 0.39 29.98 0.61Q29.49 0.84 29.17 1.23Q28.84 1.62 28.66 2.12Q28.48 2.63 28.42 3.16L28.42 3.16ZM47.66 4.34L47.66 4.34Q47.66 2.49 47.06 1.51Q46.46 0.53 45.22 0.53L45.22 0.53Q44.66 0.53 44.12 0.68Q43.57 0.84 43.18 1.06L43.18 1.06L43.18 8.20Q43.57 8.28 44.01 8.31Q44.44 8.34 44.75 8.34L44.75 8.34Q46.09 8.34 46.88 7.43Q47.66 6.52 47.66 4.34ZM51.16 4.42L51.16 4.42Q51.16 5.99 50.74 7.26Q50.32 8.54 49.51 9.43Q48.70 10.33 47.52 10.82Q46.34 11.31 44.83 11.31L44.83 11.31Q43.49 11.31 42.09 11.11Q40.69 10.92 39.74 10.61L39.74 10.61L39.74-7.84L43.18-8.43L43.18-1.85Q43.91-2.19 44.58-2.31Q45.25-2.44 45.92-2.44L45.92-2.44Q47.21-2.44 48.19-1.95Q49.17-1.46 49.83-0.55Q50.49 0.36 50.82 1.62Q51.16 2.88 51.16 4.42ZM65.22 4.39L65.22 4.39Q65.22 5.96 64.77 7.23Q64.32 8.51 63.51 9.43Q62.70 10.36 61.56 10.86Q60.43 11.36 59.03 11.36L59.03 11.36Q57.63 11.36 56.49 10.86Q55.36 10.36 54.53 9.43Q53.71 8.51 53.26 7.23Q52.81 5.96 52.81 4.39L52.81 4.39Q52.81 2.85 53.27 1.58Q53.74 0.30 54.56-0.61Q55.39-1.52 56.54-2.01Q57.68-2.50 59.03-2.50L59.03-2.50Q60.40-2.50 61.53-2.01Q62.67-1.52 63.49-0.61Q64.32 0.30 64.77 1.58Q65.22 2.85 65.22 4.39ZM56.31 4.42L56.31 4.42Q56.31 6.18 56.94 7.28Q57.57 8.37 58.97 8.37L58.97 8.37Q60.32 8.37 61.00 7.28Q61.69 6.18 61.69 4.42L61.69 4.42Q61.69 2.66 61.06 1.58Q60.43 0.50 59.03 0.50L59.03 0.50Q57.68 0.50 57.00 1.58Q56.31 2.66 56.31 4.42ZM78.63 7.67L79.08 10.44Q78.99 10.50 78.70 10.64Q78.40 10.78 77.93 10.93Q77.45 11.08 76.77 11.20Q76.08 11.31 75.21 11.31L75.21 11.31Q72.83 11.31 71.74 9.89Q70.65 8.48 70.65 5.76L70.65 5.76L70.65-5.41L67.01-5.41L67.01-8.26L74.09-8.26L74.09 6.02Q74.09 7.36 74.62 7.84Q75.16 8.31 75.97 8.31L75.97 8.31Q77.00 8.31 77.70 8.03Q78.40 7.75 78.63 7.67L78.63 7.67Z"/>
    </g>
</svg>