<?xml version="1.0" encoding="UTF-8"?>
<svg height="34" width="261.7" version="1.1" xmlns="http://www.w3.org/2000/svg">
    <rect
        height="32"
        width="259.7"
        rx="14"
        ry="14"
        x="1"
        y="1"
        fill="#945db7"
        stroke="#432654"
        stroke-width="1"
         />
    <g transform="translate(0, 14)">
        <path fill="#432654" d="M18.76 11L15.21 11Q14.54 9.07 13.78 6.63Q13.02 4.20 12.35 1.77Q11.68-0.65 11.15-2.80Q10.62-4.96 10.36-6.33L10.36-6.33L14.00-6.33Q14.17-4.99 14.51-3.21Q14.84-1.43 15.25 0.46Q15.66 2.35 16.12 4.18Q16.58 6.02 17.03 7.47L17.03 7.47Q17.48 6.04 17.92 4.21Q18.37 2.38 18.76 0.49Q19.16-1.40 19.49-3.20Q19.83-4.99 20.05-6.33L20.05-6.33L23.66-6.33Q23.33-4.65 22.84-2.58Q22.35-0.51 21.72 1.77Q21.09 4.06 20.33 6.42Q19.58 8.79 18.76 11L18.76 11ZM31.95-5.94L31.95-5.94Q31.95-4.93 31.31-4.34Q30.66-3.76 29.77-3.76L29.77-3.76Q28.87-3.76 28.24-4.34Q27.61-4.93 27.61-5.94L27.61-5.94Q27.61-6.98 28.24-7.56Q28.87-8.15 29.77-8.15L29.77-8.15Q30.66-8.15 31.31-7.56Q31.95-6.98 31.95-5.94ZM36.63 7.67L37.08 10.44Q36.01 10.94 35.07 11.13Q34.14 11.31 33.35 11.31L33.35 11.31Q32.01 11.31 31.10 10.92Q30.19 10.52 29.64 9.78Q29.10 9.04 28.87 7.98Q28.65 6.91 28.65 5.54L28.65 5.54L28.65 0.70L25.01 0.70L25.01-2.16L32.09-2.16L32.09 5.99Q32.09 7.16 32.53 7.74Q32.96 8.31 33.97 8.31L33.97 8.31Q34.44 8.31 35.12 8.19Q35.79 8.06 36.63 7.67L36.63 7.67ZM44.38 8.40L44.38 8.40Q45.64 8.40 46.32 8.21Q46.99 8.03 46.99 7.47L46.99 7.47Q46.99 7.11 46.78 6.86Q46.57 6.60 46.19 6.42Q45.81 6.24 45.32 6.07Q44.83 5.90 44.30 5.74L44.30 5.74Q43.54 5.51 42.76 5.22Q41.98 4.92 41.33 4.48Q40.69 4.03 40.27 3.34Q39.85 2.66 39.85 1.62L39.85 1.62Q39.85 0.78 40.17 0.04Q40.49-0.70 41.18-1.28Q41.86-1.85 42.93-2.17Q43.99-2.50 45.48-2.50L45.48-2.50Q46.76-2.50 47.87-2.30Q48.98-2.10 49.79-1.74L49.79-1.74L49.26 1.17Q48.78 1.03 47.77 0.71Q46.76 0.39 45.50 0.39L45.50 0.39Q44.19 0.39 43.73 0.71Q43.26 1.03 43.26 1.40L43.26 1.40Q43.26 1.70 43.47 1.94Q43.68 2.18 44.03 2.38Q44.38 2.57 44.85 2.75Q45.31 2.94 45.84 3.10L45.84 3.10Q46.60 3.36 47.41 3.66Q48.22 3.97 48.88 4.43Q49.54 4.90 49.96 5.61Q50.38 6.32 50.38 7.36L50.38 7.36Q50.38 8.17 50.07 8.90Q49.76 9.63 49.05 10.16Q48.33 10.69 47.18 11Q46.04 11.31 44.36 11.31L44.36 11.31Q42.65 11.31 41.44 10.92Q40.24 10.52 39.51 10.22L39.51 10.22L40.04 7.33Q41.02 7.72 42.13 8.06Q43.24 8.40 44.38 8.40ZM64.26-2.16L64.26 10.55Q63.31 10.80 61.95 11.06Q60.60 11.31 59 11.31L59 11.31Q57.38 11.31 56.34 10.86Q55.30 10.41 54.70 9.59Q54.10 8.76 53.88 7.64Q53.65 6.52 53.65 5.18L53.65 5.18L53.65-2.16L57.10-2.16L57.10 4.73Q57.10 6.55 57.53 7.43Q57.96 8.31 59.22 8.31L59.22 8.31Q60.01 8.31 60.79 8.17L60.79 8.17L60.79-2.16L64.26-2.16ZM73.03 8.54L73.03 8.54Q73.59 8.54 74.12 8.52Q74.65 8.51 75.04 8.45L75.04 8.45L75.04 5.43Q74.71 5.37 74.23 5.33Q73.76 5.29 73.36 5.29L73.36 5.29Q72.83 5.29 72.33 5.36Q71.82 5.43 71.45 5.60Q71.07 5.76 70.84 6.07Q70.62 6.38 70.62 6.88L70.62 6.88Q70.62 7.78 71.29 8.16Q71.96 8.54 73.03 8.54ZM72.72-2.50L72.72-2.50Q74.34-2.50 75.42-2.12Q76.50-1.74 77.14-1.05Q77.79-0.37 78.07 0.63Q78.35 1.62 78.35 2.85L78.35 2.85L78.35 10.69Q77.59 10.86 76.11 11.08Q74.62 11.31 72.78 11.31L72.78 11.31Q71.52 11.31 70.49 11.08Q69.47 10.86 68.74 10.34Q68.02 9.82 67.62 9.00Q67.23 8.17 67.23 6.97L67.23 6.97Q67.23 5.82 67.68 5.04Q68.13 4.25 68.88 3.78Q69.64 3.30 70.62 3.09Q71.60 2.88 72.66 2.88L72.66 2.88Q74.01 2.88 75.04 3.10L75.04 3.10L75.04 2.68Q75.04 1.70 74.43 1.05Q73.81 0.39 72.30 0.39L72.30 0.39Q71.32 0.39 70.41 0.53Q69.50 0.67 68.94 0.86L68.94 0.86L68.46-1.91Q69.11-2.13 70.28-2.31Q71.46-2.50 72.72-2.50ZM92.63 7.67L93.08 10.44Q92.99 10.50 92.70 10.64Q92.40 10.78 91.93 10.93Q91.45 11.08 90.77 11.20Q90.08 11.31 89.21 11.31L89.21 11.31Q86.83 11.31 85.74 9.89Q84.65 8.48 84.65 5.76L84.65 5.76L84.65-5.41L81.01-5.41L81.01-8.26L88.09-8.26L88.09 6.02Q88.09 7.36 88.62 7.84Q89.16 8.31 89.97 8.31L89.97 8.31Q91.00 8.31 91.70 8.03Q92.40 7.75 92.63 7.67L92.63 7.67ZM121.13 5.76L121.13 5.76Q121.13 7.33 120.60 8.38Q120.07 9.43 119.16 10.06Q118.25 10.69 117.00 10.96Q115.76 11.22 114.33 11.22L114.33 11.22Q113.18 11.22 111.95 11.10Q110.72 10.97 109.51 10.72L109.51 10.72L109.51-6.11Q110.49-6.28 111.67-6.40Q112.84-6.53 113.99-6.53L113.99-6.53Q115.95-6.53 117.18-6.12Q118.42-5.72 119.12-5.06Q119.82-4.40 120.07-3.59Q120.32-2.78 120.32-1.96L120.32-1.96Q120.32-0.73 119.72 0.22Q119.12 1.17 118.11 1.73L118.11 1.73Q119.87 2.38 120.50 3.47Q121.13 4.56 121.13 5.76ZM114.80 3.41L112.96 3.41L112.96 8.12Q113.32 8.17 113.75 8.20Q114.19 8.23 114.61 8.23L114.61 8.23Q115.20 8.23 115.76 8.13Q116.32 8.03 116.75 7.77Q117.18 7.50 117.46 7.01Q117.74 6.52 117.74 5.76L117.74 5.76Q117.74 4.50 116.95 3.96Q116.15 3.41 114.80 3.41L114.80 3.41ZM112.96 0.56L114.30 0.56Q115.62 0.56 116.29-0.02Q116.96-0.59 116.96-1.60L116.96-1.60Q116.96-2.22 116.76-2.59Q116.57-2.97 116.23-3.18Q115.90-3.39 115.45-3.46Q115-3.53 114.52-3.53L114.52-3.53Q114.13-3.53 113.71-3.50Q113.29-3.48 112.96-3.42L112.96-3.42L112.96 0.56ZM129.03 8.54L129.03 8.54Q129.59 8.54 130.12 8.52Q130.65 8.51 131.04 8.45L131.04 8.45L131.04 5.43Q130.71 5.37 130.23 5.33Q129.76 5.29 129.36 5.29L129.36 5.29Q128.83 5.29 128.33 5.36Q127.82 5.43 127.45 5.60Q127.07 5.76 126.84 6.07Q126.62 6.38 126.62 6.88L126.62 6.88Q126.62 7.78 127.29 8.16Q127.96 8.54 129.03 8.54ZM128.72-2.50L128.72-2.50Q130.34-2.50 131.42-2.12Q132.50-1.74 133.14-1.05Q133.79-0.37 134.07 0.63Q134.35 1.62 134.35 2.85L134.35 2.85L134.35 10.69Q133.59 10.86 132.11 11.08Q130.62 11.31 128.78 11.31L128.78 11.31Q127.52 11.31 126.49 11.08Q125.47 10.86 124.74 10.34Q124.02 9.82 123.62 9.00Q123.23 8.17 123.23 6.97L123.23 6.97Q123.23 5.82 123.68 5.04Q124.13 4.25 124.88 3.78Q125.64 3.30 126.62 3.09Q127.60 2.88 128.66 2.88L128.66 2.88Q130.01 2.88 131.04 3.10L131.04 3.10L131.04 2.68Q131.04 1.70 130.43 1.05Q129.81 0.39 128.30 0.39L128.30 0.39Q127.32 0.39 126.41 0.53Q125.50 0.67 124.94 0.86L124.94 0.86L124.46-1.91Q125.11-2.13 126.28-2.31Q127.46-2.50 128.72-2.50ZM142.38 8.40L142.38 8.40Q143.64 8.40 144.32 8.21Q144.99 8.03 144.99 7.47L144.99 7.47Q144.99 7.11 144.78 6.86Q144.57 6.60 144.19 6.42Q143.81 6.24 143.32 6.07Q142.83 5.90 142.30 5.74L142.30 5.74Q141.54 5.51 140.76 5.22Q139.98 4.92 139.33 4.48Q138.69 4.03 138.27 3.34Q137.85 2.66 137.85 1.62L137.85 1.62Q137.85 0.78 138.17 0.04Q138.49-0.70 139.18-1.28Q139.86-1.85 140.93-2.17Q141.99-2.50 143.48-2.50L143.48-2.50Q144.76-2.50 145.87-2.30Q146.98-2.10 147.79-1.74L147.79-1.74L147.26 1.17Q146.78 1.03 145.77 0.71Q144.76 0.39 143.50 0.39L143.50 0.39Q142.19 0.39 141.73 0.71Q141.26 1.03 141.26 1.40L141.26 1.40Q141.26 1.70 141.47 1.94Q141.68 2.18 142.03 2.38Q142.38 2.57 142.85 2.75Q143.31 2.94 143.84 3.10L143.84 3.10Q144.60 3.36 145.41 3.66Q146.22 3.97 146.88 4.43Q147.54 4.90 147.96 5.61Q148.38 6.32 148.38 7.36L148.38 7.36Q148.38 8.17 148.07 8.90Q147.76 9.63 147.05 10.16Q146.33 10.69 145.18 11Q144.04 11.31 142.36 11.31L142.36 11.31Q140.65 11.31 139.44 10.92Q138.24 10.52 137.51 10.22L137.51 10.22L138.04 7.33Q139.02 7.72 140.13 8.06Q141.24 8.40 142.38 8.40ZM157.95-5.94L157.95-5.94Q157.95-4.93 157.31-4.34Q156.66-3.76 155.77-3.76L155.77-3.76Q154.87-3.76 154.24-4.34Q153.61-4.93 153.61-5.94L153.61-5.94Q153.61-6.98 154.24-7.56Q154.87-8.15 155.77-8.15L155.77-8.15Q156.66-8.15 157.31-7.56Q157.95-6.98 157.95-5.94ZM162.63 7.67L163.08 10.44Q162.01 10.94 161.07 11.13Q160.14 11.31 159.35 11.31L159.35 11.31Q158.01 11.31 157.10 10.92Q156.19 10.52 155.64 9.78Q155.10 9.04 154.87 7.98Q154.65 6.91 154.65 5.54L154.65 5.54L154.65 0.70L151.01 0.70L151.01-2.16L158.09-2.16L158.09 5.99Q158.09 7.16 158.53 7.74Q158.96 8.31 159.97 8.31L159.97 8.31Q160.44 8.31 161.12 8.19Q161.79 8.06 162.63 7.67L162.63 7.67ZM165.23 4.42L165.23 4.42Q165.23 2.99 165.68 1.73Q166.13 0.47 167.05-0.47Q167.98-1.40 169.39-1.95Q170.80-2.50 172.76-2.50L172.76-2.50Q173.94-2.50 174.89-2.33Q175.84-2.16 176.82-1.77L176.82-1.77L176.07 1.00Q175.51 0.81 174.82 0.65Q174.14 0.50 173.07 0.50L173.07 0.50Q171.84 0.50 171.01 0.79Q170.19 1.09 169.68 1.61Q169.18 2.12 168.96 2.85Q168.73 3.58 168.73 4.42L168.73 4.42Q168.73 6.24 169.75 7.28Q170.78 8.31 173.24 8.31L173.24 8.31Q174.05 8.31 174.93 8.20Q175.82 8.09 176.54 7.84L176.54 7.84L177.05 10.66Q176.32 10.94 175.28 11.13Q174.25 11.31 172.85 11.31L172.85 11.31Q170.83 11.31 169.39 10.78Q167.95 10.24 167.02 9.32Q166.10 8.40 165.67 7.14Q165.23 5.88 165.23 4.42ZM201.52 8.79L201.52 8.79Q201.52 10.02 200.76 10.66Q200.01 11.31 199.03 11.31L199.03 11.31Q198.52 11.31 198.08 11.14Q197.63 10.97 197.28 10.65Q196.93 10.33 196.72 9.87Q196.51 9.40 196.51 8.79L196.51 8.79Q196.51 8.20 196.72 7.74Q196.93 7.28 197.28 6.97Q197.63 6.66 198.08 6.49Q198.52 6.32 199.03 6.32L199.03 6.32Q200.01 6.32 200.76 6.97Q201.52 7.61 201.52 8.79ZM218.71 11L215.94 11Q214.76 8.12 213.38 5.25Q211.99 2.38 210.40-0.51L210.40-0.51L210.40 11L207.29 11L207.29-6.33L210.06-6.33Q210.84-5.10 211.63-3.66Q212.41-2.22 213.15-0.79Q213.90 0.64 214.53 1.98Q215.16 3.33 215.60 4.34L215.60 4.34L215.60-6.33L218.71-6.33L218.71 11ZM232.88 11L221.76 11L221.76-6.33L232.26-6.33L232.26-3.48L225.21-3.48L225.21 0.42L231.34 0.42L231.34 3.27L225.21 3.27L225.21 8.14L232.88 8.14L232.88 11ZM234.70-6.33L247.30-6.33L247.30-3.48L242.74-3.48L242.74 11L239.26 11L239.26-3.48L234.70-3.48L234.70-6.33Z"/>
    </g>
</svg>