<?xml version="1.0" encoding="UTF-8"?>
<svg height="26" width="114.89999999999999" version="1.1" xmlns="http://www.w3.org/2000/svg"><!--Created by Josélio de S. C. Júnior - 2021 - https://github.com/joseliojunior -->
    <defs>
        <pattern id="pattern"
                x="1.5" y="3" width="3" height="6"
                patternUnits="userSpaceOnUse"
                patternTransform="rotate(45)" >
            <rect height="6" width="1" fill="#999999"/>
        </pattern>
    </defs>
    <rect
        height="24"
        width="112.89999999999999"
        rx="1"
        ry="1"
        x="1" y="1"
        fill="url(#pattern)"
        stroke="#000000"
        stroke-width="1" />
    <g transform="translate(0, 8)">
        <path fill="#ffffff" stroke="#000000" d="M23.58-0.02L23.58-0.02Q25.47-0.02 26.51 0.76Q27.55 1.54 27.55 3.30L27.55 3.30Q27.55 5.07 26.50 5.86Q25.46 6.66 23.54 6.66L23.54 6.66L22.83 6.66L22.83 10L20.86 10L20.86 0.22Q21.15 0.16 21.51 0.11Q21.87 0.06 22.24 0.04Q22.61 0.02 22.96 0Q23.31-0.02 23.58-0.02ZM23.81 1.70L23.81 1.70Q23.63 1.70 23.32 1.70Q23.01 1.71 22.83 1.74L22.83 1.74L22.83 4.94L23.63 4.94Q24.58 4.94 25.06 4.57Q25.54 4.19 25.54 3.28L25.54 3.28Q25.54 2.42 25.06 2.06Q24.59 1.70 23.81 1.70ZM35.01 2.48L35.01 9.74Q34.46 9.89 33.69 10.03Q32.91 10.18 32 10.18L32 10.18Q31.07 10.18 30.48 9.92Q29.89 9.66 29.54 9.19Q29.20 8.72 29.07 8.08Q28.94 7.44 28.94 6.67L28.94 6.67L28.94 2.48L30.91 2.48L30.91 6.42Q30.91 7.46 31.16 7.96Q31.41 8.46 32.13 8.46L32.13 8.46Q32.58 8.46 33.02 8.38L33.02 8.38L33.02 2.48L35.01 2.48ZM43.34 2.66L42.99 4.48Q42.80 4.43 42.54 4.38Q42.27 4.34 42 4.30Q41.73 4.26 41.47 4.24Q41.22 4.22 41.04 4.22L41.04 4.22Q40.62 4.22 40.22 4.26Q39.82 4.30 39.41 4.42L39.41 4.42L39.41 10L37.42 10L37.42 2.98Q38.21 2.69 39.03 2.51Q39.86 2.34 40.96 2.34L40.96 2.34Q41.12 2.34 41.42 2.35Q41.71 2.37 42.05 2.41Q42.38 2.45 42.73 2.50Q43.07 2.56 43.34 2.66L43.34 2.66ZM44.50 6.30L44.50 6.30Q44.50 5.31 44.80 4.56Q45.10 3.81 45.60 3.30Q46.10 2.80 46.74 2.54Q47.38 2.29 48.05 2.29L48.05 2.29Q49.71 2.29 50.58 3.27Q51.44 4.26 51.44 6.14L51.44 6.14Q51.44 6.34 51.43 6.54Q51.42 6.75 51.41 6.88L51.41 6.88L46.53 6.88Q46.53 7.62 47.14 8.04Q47.74 8.46 48.70 8.46L48.70 8.46Q49.30 8.46 49.83 8.34Q50.37 8.21 50.74 8.08L50.74 8.08L51.01 9.76Q50.50 9.94 49.92 10.06Q49.34 10.18 48.62 10.18L48.62 10.18Q47.66 10.18 46.90 9.93Q46.14 9.68 45.61 9.19Q45.07 8.70 44.78 7.98Q44.50 7.26 44.50 6.30ZM46.53 5.52L49.54 5.52Q49.54 5.22 49.46 4.94Q49.38 4.66 49.20 4.43Q49.02 4.21 48.75 4.07Q48.48 3.94 48.08 3.94L48.08 3.94Q47.70 3.94 47.42 4.06Q47.14 4.19 46.95 4.42Q46.77 4.64 46.66 4.93Q46.56 5.22 46.53 5.52L46.53 5.52ZM62.83 1.74L62.83 8.40Q62.91 8.42 63.01 8.42Q63.10 8.42 63.18 8.42L63.18 8.42Q63.86 8.42 64.31 8.16Q64.77 7.90 65.05 7.46Q65.33 7.01 65.45 6.39Q65.57 5.78 65.57 5.04L65.57 5.04Q65.57 4.40 65.47 3.79Q65.38 3.18 65.14 2.72Q64.90 2.26 64.48 1.98Q64.06 1.70 63.41 1.70L63.41 1.70Q63.28 1.70 63.12 1.70Q62.96 1.71 62.83 1.74L62.83 1.74ZM67.57 5.04L67.57 5.04Q67.57 6.42 67.22 7.38Q66.88 8.35 66.27 8.96Q65.66 9.57 64.82 9.85Q63.98 10.13 62.98 10.13L62.98 10.13Q62.45 10.13 61.94 10.07Q61.44 10.02 60.86 9.89L60.86 9.89L60.86 0.22Q61.54 0.08 62.13 0.03Q62.72-0.02 63.23-0.02L63.23-0.02Q64.21-0.02 65.02 0.27Q65.82 0.56 66.38 1.18Q66.94 1.79 67.26 2.74Q67.57 3.70 67.57 5.04ZM72.02 8.59L72.02 8.59Q72.34 8.59 72.64 8.58Q72.94 8.58 73.17 8.54L73.17 8.54L73.17 6.82Q72.98 6.78 72.70 6.76Q72.43 6.74 72.21 6.74L72.21 6.74Q71.90 6.74 71.62 6.78Q71.33 6.82 71.11 6.91Q70.90 7.01 70.77 7.18Q70.64 7.36 70.64 7.65L70.64 7.65Q70.64 8.16 71.02 8.38Q71.41 8.59 72.02 8.59ZM71.84 2.29L71.84 2.29Q72.77 2.29 73.38 2.50Q74 2.72 74.37 3.11Q74.74 3.50 74.90 4.07Q75.06 4.64 75.06 5.34L75.06 5.34L75.06 9.82Q74.62 9.92 73.78 10.05Q72.93 10.18 71.87 10.18L71.87 10.18Q71.15 10.18 70.57 10.05Q69.98 9.92 69.57 9.62Q69.15 9.33 68.93 8.86Q68.70 8.38 68.70 7.70L68.70 7.70Q68.70 7.04 68.96 6.59Q69.22 6.14 69.65 5.87Q70.08 5.60 70.64 5.48Q71.20 5.36 71.81 5.36L71.81 5.36Q72.58 5.36 73.17 5.49L73.17 5.49L73.17 5.25Q73.17 4.69 72.82 4.31Q72.46 3.94 71.60 3.94L71.60 3.94Q71.04 3.94 70.52 4.02Q70 4.10 69.68 4.21L69.68 4.21L69.41 2.62Q69.78 2.50 70.45 2.39Q71.12 2.29 71.84 2.29ZM78.29 7.20L78.29 4.11L76.58 4.11L76.58 2.48L78.29 2.48L78.29 0.59L80.26 0.27L80.26 2.48L83.41 2.48L83.41 4.11L80.26 4.11L80.26 7.15Q80.26 7.57 80.34 7.82Q80.42 8.08 80.56 8.22Q80.70 8.37 80.91 8.42Q81.12 8.46 81.38 8.46L81.38 8.46Q81.65 8.46 81.88 8.45Q82.11 8.43 82.33 8.39Q82.54 8.35 82.78 8.27Q83.01 8.19 83.28 8.06L83.28 8.06L83.55 9.76Q83.01 9.98 82.38 10.08Q81.74 10.18 81.15 10.18L81.15 10.18Q80.46 10.18 79.94 10.06Q79.41 9.95 79.04 9.63Q78.67 9.31 78.48 8.73Q78.29 8.14 78.29 7.20L78.29 7.20ZM88.02 8.59L88.02 8.59Q88.34 8.59 88.64 8.58Q88.94 8.58 89.17 8.54L89.17 8.54L89.17 6.82Q88.98 6.78 88.70 6.76Q88.43 6.74 88.21 6.74L88.21 6.74Q87.90 6.74 87.62 6.78Q87.33 6.82 87.11 6.91Q86.90 7.01 86.77 7.18Q86.64 7.36 86.64 7.65L86.64 7.65Q86.64 8.16 87.02 8.38Q87.41 8.59 88.02 8.59ZM87.84 2.29L87.84 2.29Q88.77 2.29 89.38 2.50Q90 2.72 90.37 3.11Q90.74 3.50 90.90 4.07Q91.06 4.64 91.06 5.34L91.06 5.34L91.06 9.82Q90.62 9.92 89.78 10.05Q88.93 10.18 87.87 10.18L87.87 10.18Q87.15 10.18 86.57 10.05Q85.98 9.92 85.57 9.62Q85.15 9.33 84.93 8.86Q84.70 8.38 84.70 7.70L84.70 7.70Q84.70 7.04 84.96 6.59Q85.22 6.14 85.65 5.87Q86.08 5.60 86.64 5.48Q87.20 5.36 87.81 5.36L87.81 5.36Q88.58 5.36 89.17 5.49L89.17 5.49L89.17 5.25Q89.17 4.69 88.82 4.31Q88.46 3.94 87.60 3.94L87.60 3.94Q87.04 3.94 86.52 4.02Q86 4.10 85.68 4.21L85.68 4.21L85.41 2.62Q85.78 2.50 86.45 2.39Q87.12 2.29 87.84 2.29Z"/>
    </g>
</svg>