<?xml version="1.0" encoding="UTF-8"?>
<svg height="34" width="102.5" version="1.1" xmlns="http://www.w3.org/2000/svg"><!--Created by Josélio de S. C. Júnior - 2021 - https://github.com/joseliojunior -->
    <rect
        height="32"
        width="100.5"
        rx="1"
        ry="1"
        x="1" y="1"
        fill="#007eff"
        stroke="#003366"
        stroke-width="1" />
    <g transform="translate(0, 12)">
        <path fill="#003366" d="M25.57 9.84L25.57 9.84Q26.31 9.84 26.80 9.68Q27.30 9.53 27.58 9.25Q27.87 8.98 27.98 8.63Q28.09 8.28 28.09 7.92L28.09 7.92Q28.09 7.46 27.82 7.10Q27.56 6.74 27.15 6.47Q26.74 6.19 26.24 5.96Q25.74 5.74 25.23 5.54L25.23 5.54Q24.56 5.30 23.84 4.99Q23.12 4.68 22.53 4.20Q21.94 3.72 21.56 3.01Q21.18 2.30 21.18 1.25L21.18 1.25Q21.18-0.84 22.53-2.02Q23.89-3.19 26.26-3.19L26.26-3.19Q27.63-3.19 28.65-2.88Q29.67-2.57 30.37-2.18L30.37-2.18L29.50 0.10Q28.90-0.24 28.17-0.48Q27.44-0.72 26.48-0.72L26.48-0.72Q24.13-0.72 24.13 0.98L24.13 0.98Q24.13 1.42 24.37 1.74Q24.61 2.06 24.98 2.32Q25.35 2.57 25.82 2.76Q26.29 2.95 26.74 3.12L26.74 3.12Q27.44 3.38 28.20 3.71Q28.95 4.03 29.59 4.57Q30.22 5.11 30.63 5.92Q31.04 6.72 31.04 7.94L31.04 7.94Q31.04 10.03 29.68 11.17Q28.33 12.31 25.57 12.31L25.57 12.31Q23.72 12.31 22.62 11.92Q21.51 11.52 20.96 11.18L20.96 11.18L21.82 8.78Q22.47 9.17 23.37 9.50Q24.27 9.84 25.57 9.84ZM42.82 9.14L43.21 11.52Q43.14 11.57 42.88 11.69Q42.63 11.81 42.22 11.94Q41.82 12.07 41.23 12.17Q40.64 12.26 39.90 12.26L39.90 12.26Q37.86 12.26 36.92 11.05Q35.98 9.84 35.98 7.51L35.98 7.51L35.98-2.06L32.86-2.06L32.86-4.51L38.94-4.51L38.94 7.73Q38.94 8.88 39.39 9.29Q39.85 9.70 40.54 9.70L40.54 9.70Q41.43 9.70 42.03 9.46Q42.63 9.22 42.82 9.14L42.82 9.14ZM50.02 9.89L50.02 9.89Q50.50 9.89 50.96 9.88Q51.42 9.86 51.75 9.82L51.75 9.82L51.75 7.22Q51.46 7.18 51.06 7.14Q50.65 7.10 50.31 7.10L50.31 7.10Q49.86 7.10 49.42 7.16Q48.99 7.22 48.67 7.37Q48.34 7.51 48.15 7.78Q47.96 8.04 47.96 8.47L47.96 8.47Q47.96 9.24 48.54 9.56Q49.11 9.89 50.02 9.89ZM49.76 0.43L49.76 0.43Q51.15 0.43 52.08 0.76Q53 1.08 53.55 1.67Q54.10 2.26 54.34 3.11Q54.58 3.96 54.58 5.02L54.58 5.02L54.58 11.74Q53.94 11.88 52.66 12.07Q51.39 12.26 49.81 12.26L49.81 12.26Q48.73 12.26 47.85 12.07Q46.98 11.88 46.35 11.44Q45.73 10.99 45.39 10.28Q45.06 9.58 45.06 8.54L45.06 8.54Q45.06 7.56 45.44 6.89Q45.82 6.22 46.47 5.81Q47.12 5.40 47.96 5.22Q48.80 5.04 49.71 5.04L49.71 5.04Q50.86 5.04 51.75 5.23L51.75 5.23L51.75 4.87Q51.75 4.03 51.22 3.47Q50.70 2.90 49.40 2.90L49.40 2.90Q48.56 2.90 47.78 3.02Q47 3.14 46.52 3.31L46.52 3.31L46.11 0.94Q46.66 0.74 47.67 0.59Q48.68 0.43 49.76 0.43ZM61.47 9.77L61.47 9.77Q62.55 9.77 63.13 9.61Q63.70 9.46 63.70 8.98L63.70 8.98Q63.70 8.66 63.52 8.45Q63.34 8.23 63.02 8.08Q62.70 7.92 62.28 7.78Q61.86 7.63 61.40 7.49L61.40 7.49Q60.75 7.30 60.08 7.04Q59.41 6.79 58.86 6.41Q58.30 6.02 57.94 5.44Q57.58 4.85 57.58 3.96L57.58 3.96Q57.58 3.24 57.86 2.60Q58.14 1.97 58.72 1.48Q59.31 0.98 60.22 0.71Q61.14 0.43 62.41 0.43L62.41 0.43Q63.51 0.43 64.46 0.60Q65.41 0.77 66.10 1.08L66.10 1.08L65.65 3.58Q65.24 3.46 64.38 3.18Q63.51 2.90 62.43 2.90L62.43 2.90Q61.30 2.90 60.91 3.18Q60.51 3.46 60.51 3.77L60.51 3.77Q60.51 4.03 60.69 4.24Q60.87 4.44 61.17 4.61Q61.47 4.78 61.87 4.93Q62.26 5.09 62.72 5.23L62.72 5.23Q63.37 5.45 64.06 5.71Q64.76 5.98 65.32 6.37Q65.89 6.77 66.25 7.38Q66.61 7.99 66.61 8.88L66.61 8.88Q66.61 9.58 66.34 10.20Q66.08 10.82 65.47 11.28Q64.86 11.74 63.87 12Q62.89 12.26 61.45 12.26L61.45 12.26Q59.98 12.26 58.95 11.93Q57.92 11.59 57.30 11.33L57.30 11.33L57.75 8.86Q58.59 9.19 59.54 9.48Q60.49 9.77 61.47 9.77ZM72.46 12L69.51 12L69.51-4.15L72.46-4.66L72.46 0.82Q72.82 0.70 73.33 0.59Q73.83 0.48 74.22 0.48L74.22 0.48Q75.46 0.48 76.30 0.85Q77.14 1.22 77.65 1.91Q78.15 2.59 78.37 3.54Q78.58 4.49 78.58 5.64L78.58 5.64L78.58 12L75.63 12L75.63 6.02Q75.63 4.44 75.27 3.74Q74.91 3.05 73.90 3.05L73.90 3.05Q73.50 3.05 73.10 3.14Q72.70 3.24 72.46 3.31L72.46 3.31L72.46 12Z"/>
    </g>
</svg>