<?xml version="1.0" encoding="UTF-8"?>
<svg height="34" width="106.6" version="1.1" xmlns="http://www.w3.org/2000/svg">
    <rect
        height="32"
        width="104.6"
        rx="1"
        ry="1"
        x="1"
        y="1"
        fill="#14253c"
        stroke="#3b6db0"
        stroke-width="1"
         />
    <g transform="translate(0, 14)">
        <path fill="#3b6db0" d="M15.21 11L11.76 11L11.76-6.33L22.38-6.33L22.38-3.48L15.21-3.48L15.21 0.72L21.48 0.72L21.48 3.58L15.21 3.58L15.21 11ZM31.03 8.54L31.03 8.54Q31.59 8.54 32.12 8.52Q32.65 8.51 33.04 8.45L33.04 8.45L33.04 5.43Q32.71 5.37 32.23 5.33Q31.76 5.29 31.36 5.29L31.36 5.29Q30.83 5.29 30.33 5.36Q29.82 5.43 29.45 5.60Q29.07 5.76 28.84 6.07Q28.62 6.38 28.62 6.88L28.62 6.88Q28.62 7.78 29.29 8.16Q29.96 8.54 31.03 8.54ZM30.72-2.50L30.72-2.50Q32.34-2.50 33.42-2.12Q34.50-1.74 35.14-1.05Q35.79-0.37 36.07 0.63Q36.35 1.62 36.35 2.85L36.35 2.85L36.35 10.69Q35.59 10.86 34.11 11.08Q32.62 11.31 30.78 11.31L30.78 11.31Q29.52 11.31 28.49 11.08Q27.47 10.86 26.74 10.34Q26.02 9.82 25.62 9.00Q25.23 8.17 25.23 6.97L25.23 6.97Q25.23 5.82 25.68 5.04Q26.13 4.25 26.88 3.78Q27.64 3.30 28.62 3.09Q29.60 2.88 30.66 2.88L30.66 2.88Q32.01 2.88 33.04 3.10L33.04 3.10L33.04 2.68Q33.04 1.70 32.43 1.05Q31.81 0.39 30.30 0.39L30.30 0.39Q29.32 0.39 28.41 0.53Q27.50 0.67 26.94 0.86L26.94 0.86L26.46-1.91Q27.11-2.13 28.28-2.31Q29.46-2.50 30.72-2.50ZM39.76 11L39.76-1.74Q40.69-1.99 42.05-2.22Q43.40-2.44 45-2.44L45-2.44Q46.57-2.44 47.60-2.01Q48.64-1.57 49.24-0.77Q49.84 0.02 50.10 1.13Q50.35 2.24 50.35 3.58L50.35 3.58L50.35 11L46.90 11L46.90 4.03Q46.90 2.18 46.48 1.37Q46.06 0.56 44.78 0.56L44.78 0.56Q44.38 0.56 44.01 0.58Q43.63 0.61 43.21 0.67L43.21 0.67L43.21 11L39.76 11ZM56.00 6.10L56.00 0.70L53.01 0.70L53.01-2.16L56.00-2.16L56.00-5.46L59.45-6.02L59.45-2.16L64.96-2.16L64.96 0.70L59.45 0.70L59.45 6.02Q59.45 6.74 59.59 7.19Q59.73 7.64 59.98 7.89Q60.23 8.14 60.60 8.23Q60.96 8.31 61.41 8.31L61.41 8.31Q61.88 8.31 62.29 8.28Q62.70 8.26 63.07 8.19Q63.45 8.12 63.86 7.98Q64.26 7.84 64.74 7.61L64.74 7.61L65.22 10.58Q64.26 10.97 63.16 11.14Q62.05 11.31 61.02 11.31L61.02 11.31Q59.81 11.31 58.89 11.11Q57.96 10.92 57.32 10.36Q56.68 9.80 56.34 8.77Q56.00 7.75 56.00 6.10L56.00 6.10ZM79.22 4.39L79.22 4.39Q79.22 5.96 78.77 7.23Q78.32 8.51 77.51 9.43Q76.70 10.36 75.56 10.86Q74.43 11.36 73.03 11.36L73.03 11.36Q71.63 11.36 70.49 10.86Q69.36 10.36 68.53 9.43Q67.71 8.51 67.26 7.23Q66.81 5.96 66.81 4.39L66.81 4.39Q66.81 2.85 67.27 1.58Q67.74 0.30 68.56-0.61Q69.39-1.52 70.54-2.01Q71.68-2.50 73.03-2.50L73.03-2.50Q74.40-2.50 75.53-2.01Q76.67-1.52 77.49-0.61Q78.32 0.30 78.77 1.58Q79.22 2.85 79.22 4.39ZM70.31 4.42L70.31 4.42Q70.31 6.18 70.94 7.28Q71.57 8.37 72.97 8.37L72.97 8.37Q74.32 8.37 75.00 7.28Q75.69 6.18 75.69 4.42L75.69 4.42Q75.69 2.66 75.06 1.58Q74.43 0.50 73.03 0.50L73.03 0.50Q71.68 0.50 71.00 1.58Q70.31 2.66 70.31 4.42ZM89.60-2.30L89.60-2.30Q90.70-2.30 91.40-1.96Q92.10-1.63 92.50-0.96Q92.91-0.28 93.05 0.74Q93.19 1.76 93.19 3.13L93.19 3.13L93.19 11L90.39 11L90.39 2.96Q90.39 2.18 90.29 1.70Q90.19 1.23 90.04 0.98Q89.88 0.72 89.67 0.64Q89.46 0.56 89.24 0.56L89.24 0.56Q88.99 0.56 88.71 0.60Q88.43 0.64 88.20 0.75L88.20 0.75Q88.29 1.28 88.34 1.93Q88.40 2.57 88.40 3.36L88.40 3.36L88.40 5.99L85.60 5.99L85.60 2.96Q85.60 1.62 85.33 1.09Q85.07 0.56 84.48 0.56L84.48 0.56Q84.31 0.56 84.07 0.58Q83.84 0.61 83.61 0.67L83.61 0.67L83.61 11L80.81 11L80.81-1.66Q81.90-1.96 82.97-2.13Q84.03-2.30 84.84-2.30L84.84-2.30Q85.57-2.30 86.15-2.12Q86.72-1.94 87.14-1.52L87.14-1.52Q87.62-1.82 88.26-2.06Q88.90-2.30 89.60-2.30Z"/>
    </g>
</svg>