<?xml version="1.0" encoding="UTF-8"?><svg height="26" width="58.2" version="1.1" xmlns="http://www.w3.org/2000/svg"><!--Created by Josélio de S. C. Júnior - 2021 - https://github.com/joseliojunior --><rect height="24" width="56.2" rx="12" ry="12" x="1" y="1" fill="#572e30" stroke="#b26c6f" stroke-width="1" /><g transform="translate(0, 8)"><path fill="#b26c6f" d="M22.98 10L21.01 10L21.01 0.10L27.07 0.10L27.07 1.73L22.98 1.73L22.98 4.13L26.56 4.13L26.56 5.76L22.98 5.76L22.98 10ZM32.03 4.02L32.03 4.02Q31.98 4.21 31.89 4.48Q31.79 4.75 31.69 5.02Q31.58 5.30 31.46 5.54Q31.34 5.78 31.23 5.94L31.23 5.94L30.93 6.34L29.42 5.26L29.73 4.86Q29.84 4.70 30.04 4.51Q30.24 4.32 30.46 4.13Q30.67 3.94 30.90 3.77Q31.12 3.60 31.28 3.49L31.28 3.49Q31.07 3.49 30.79 3.49Q30.51 3.49 30.22 3.46Q29.94 3.44 29.66 3.39Q29.39 3.34 29.22 3.28L29.22 3.28L28.74 3.12L29.33 1.38L29.81 1.52Q29.98 1.58 30.22 1.72Q30.46 1.86 30.70 2.02Q30.94 2.18 31.18 2.34Q31.41 2.50 31.57 2.62L31.57 2.62Q31.50 2.43 31.42 2.17Q31.34 1.90 31.27 1.62Q31.20 1.33 31.15 1.06Q31.10 0.78 31.10 0.59L31.10 0.59L31.10 0.10L32.96 0.10L32.96 0.59Q32.96 0.78 32.91 1.06Q32.86 1.33 32.79 1.62Q32.72 1.90 32.63 2.17Q32.54 2.43 32.48 2.62L32.48 2.62Q32.64 2.51 32.88 2.35Q33.12 2.19 33.37 2.04Q33.62 1.89 33.86 1.76Q34.10 1.63 34.29 1.57L34.29 1.57L34.75 1.41L35.33 3.18L34.85 3.33Q34.66 3.39 34.38 3.42Q34.11 3.46 33.82 3.48Q33.54 3.50 33.26 3.50Q32.98 3.50 32.77 3.50L32.77 3.50Q32.94 3.62 33.17 3.78Q33.39 3.95 33.62 4.14Q33.84 4.32 34.03 4.51Q34.22 4.70 34.34 4.86L34.34 4.86L34.64 5.26L33.14 6.35L32.85 5.95Q32.74 5.79 32.62 5.55Q32.50 5.31 32.38 5.03Q32.27 4.75 32.18 4.49Q32.10 4.22 32.03 4.02Z"/></g></svg>