<?xml version="1.0" encoding="UTF-8"?>
<svg height="322" width="66.2" version="1.1" xmlns="http://www.w3.org/2000/svg"><!--Created by Josélio de S. C. Júnior - 2021 - https://github.com/joseliojunior -->
    <rect
        height="32"
        width="64.2"
        rx="1"
        ry="1"
        x="1" y="1"
        fill="#572e30"
        stroke="#b26c6f"
        stroke-width="1" />
    <g transform="translate(0, 12)">
        <path fill="#b26c6f" stroke="none" d="M24.46 12L21.51 12L21.51-2.86L30.61-2.86L30.61-0.41L24.46-0.41L24.46 3.19L29.84 3.19L29.84 5.64L24.46 5.64L24.46 12ZM38.05 3.02L38.05 3.02Q37.98 3.31 37.83 3.72Q37.69 4.13 37.53 4.54Q37.38 4.94 37.20 5.30Q37.02 5.66 36.85 5.90L36.85 5.90L36.39 6.50L34.14 4.90L34.59 4.30Q34.76 4.06 35.06 3.77Q35.36 3.48 35.68 3.19Q36.01 2.90 36.34 2.65Q36.68 2.40 36.92 2.23L36.92 2.23Q36.61 2.23 36.19 2.23Q35.77 2.23 35.34 2.20Q34.90 2.16 34.50 2.09Q34.09 2.02 33.82 1.92L33.82 1.92L33.10 1.68L33.99-0.94L34.71-0.72Q34.98-0.62 35.34-0.42Q35.70-0.22 36.06 0.02Q36.42 0.26 36.76 0.50Q37.11 0.74 37.35 0.94L37.35 0.94Q37.26 0.65 37.14 0.25Q37.02-0.14 36.91-0.58Q36.80-1.01 36.73-1.42Q36.66-1.82 36.66-2.11L36.66-2.11L36.66-2.86L39.44-2.86L39.44-2.11Q39.44-1.82 39.37-1.42Q39.30-1.01 39.19-0.58Q39.08-0.14 38.95 0.25Q38.82 0.65 38.72 0.94L38.72 0.94Q38.96 0.77 39.32 0.53Q39.68 0.29 40.05 0.06Q40.42-0.17 40.78-0.36Q41.14-0.55 41.43-0.65L41.43-0.65L42.13-0.89L42.99 1.78L42.27 1.99Q41.98 2.09 41.58 2.14Q41.17 2.18 40.74 2.22Q40.30 2.26 39.88 2.26Q39.46 2.26 39.15 2.26L39.15 2.26Q39.42 2.42 39.75 2.68Q40.09 2.93 40.42 3.20Q40.76 3.48 41.05 3.77Q41.34 4.06 41.50 4.30L41.50 4.30L41.96 4.90L39.70 6.53L39.27 5.93Q39.10 5.69 38.92 5.33Q38.74 4.97 38.58 4.55Q38.41 4.13 38.28 3.73Q38.14 3.34 38.05 3.02Z"/>
    </g>
</svg>