<?xml version="1.0" encoding="UTF-8"?><svg height="34" width="235.6" version="1.1" xmlns="http://www.w3.org/2000/svg"><!--Created by Josélio de S. C. Júnior - 2021 - https://github.com/joseliojunior --><rect height="32" width="233.6" rx="16" ry="16" x="1" y="1" fill="#5e5086" stroke="#1b1726" stroke-width="1" /><g transform="translate(0, 12)"><path fill="#1b1726" d="M31.04 9.55L31.04 12L21.70 12L21.70-2.86L24.68-2.86L24.68 9.55L31.04 9.55ZM38.82-2.52L38.82-2.52Q38.82-1.66 38.26-1.15Q37.71-0.65 36.94-0.65L36.94-0.65Q36.18-0.65 35.64-1.15Q35.10-1.66 35.10-2.52L35.10-2.52Q35.10-3.41 35.64-3.91Q36.18-4.42 36.94-4.42L36.94-4.42Q37.71-4.42 38.26-3.91Q38.82-3.41 38.82-2.52ZM42.82 9.14L43.21 11.52Q42.30 11.95 41.49 12.11Q40.69 12.26 40.02 12.26L40.02 12.26Q38.86 12.26 38.08 11.93Q37.30 11.59 36.84 10.96Q36.37 10.32 36.18 9.41Q35.98 8.50 35.98 7.32L35.98 7.32L35.98 3.17L32.86 3.17L32.86 0.72L38.94 0.72L38.94 7.70Q38.94 8.71 39.31 9.20Q39.68 9.70 40.54 9.70L40.54 9.70Q40.95 9.70 41.53 9.59Q42.10 9.48 42.82 9.14L42.82 9.14ZM47.43 7.80L47.43 3.17L44.86 3.17L44.86 0.72L47.43 0.72L47.43-2.11L50.38-2.59L50.38 0.72L55.11 0.72L55.11 3.17L50.38 3.17L50.38 7.73Q50.38 8.35 50.50 8.74Q50.62 9.12 50.84 9.34Q51.06 9.55 51.37 9.62Q51.68 9.70 52.06 9.70L52.06 9.70Q52.47 9.70 52.82 9.67Q53.17 9.65 53.49 9.59Q53.82 9.53 54.16 9.41Q54.51 9.29 54.92 9.10L54.92 9.10L55.33 11.64Q54.51 11.98 53.56 12.12Q52.62 12.26 51.73 12.26L51.73 12.26Q50.70 12.26 49.90 12.10Q49.11 11.93 48.56 11.45Q48.01 10.97 47.72 10.09Q47.43 9.22 47.43 7.80L47.43 7.80ZM56.74 6.46L56.74 6.46Q56.74 4.97 57.20 3.84Q57.66 2.71 58.40 1.96Q59.14 1.20 60.10 0.82Q61.06 0.43 62.07 0.43L62.07 0.43Q64.57 0.43 65.86 1.91Q67.16 3.38 67.16 6.22L67.16 6.22Q67.16 6.50 67.15 6.82Q67.14 7.13 67.11 7.32L67.11 7.32L59.79 7.32Q59.79 8.42 60.70 9.06Q61.62 9.70 63.06 9.70L63.06 9.70Q63.94 9.70 64.75 9.50Q65.55 9.31 66.10 9.12L66.10 9.12L66.51 11.64Q65.74 11.90 64.88 12.08Q64.02 12.26 62.94 12.26L62.94 12.26Q61.50 12.26 60.36 11.89Q59.22 11.52 58.41 10.79Q57.61 10.06 57.18 8.98Q56.74 7.90 56.74 6.46ZM59.79 5.28L64.30 5.28Q64.30 4.82 64.18 4.40Q64.06 3.98 63.80 3.65Q63.54 3.31 63.13 3.11Q62.72 2.90 62.12 2.90L62.12 2.90Q61.54 2.90 61.12 3.10Q60.70 3.29 60.43 3.62Q60.15 3.96 60.00 4.39Q59.84 4.82 59.79 5.28L59.79 5.28ZM79.02 0.98L78.49 3.72Q78.20 3.65 77.80 3.58Q77.41 3.50 77 3.44Q76.59 3.38 76.21 3.36Q75.82 3.34 75.56 3.34L75.56 3.34Q74.94 3.34 74.34 3.40Q73.74 3.46 73.11 3.62L73.11 3.62L73.11 12L70.14 12L70.14 1.46Q71.31 1.03 72.55 0.77Q73.78 0.50 75.44 0.50L75.44 0.50Q75.68 0.50 76.12 0.53Q76.57 0.55 77.07 0.61Q77.58 0.67 78.09 0.76Q78.61 0.84 79.02 0.98L79.02 0.98ZM86.02 9.89L86.02 9.89Q86.50 9.89 86.96 9.88Q87.42 9.86 87.75 9.82L87.75 9.82L87.75 7.22Q87.46 7.18 87.06 7.14Q86.65 7.10 86.31 7.10L86.31 7.10Q85.86 7.10 85.42 7.16Q84.99 7.22 84.67 7.37Q84.34 7.51 84.15 7.78Q83.96 8.04 83.96 8.47L83.96 8.47Q83.96 9.24 84.54 9.56Q85.11 9.89 86.02 9.89ZM85.76 0.43L85.76 0.43Q87.15 0.43 88.08 0.76Q89 1.08 89.55 1.67Q90.10 2.26 90.34 3.11Q90.58 3.96 90.58 5.02L90.58 5.02L90.58 11.74Q89.94 11.88 88.66 12.07Q87.39 12.26 85.81 12.26L85.81 12.26Q84.73 12.26 83.85 12.07Q82.98 11.88 82.35 11.44Q81.73 10.99 81.39 10.28Q81.06 9.58 81.06 8.54L81.06 8.54Q81.06 7.56 81.44 6.89Q81.82 6.22 82.47 5.81Q83.12 5.40 83.96 5.22Q84.80 5.04 85.71 5.04L85.71 5.04Q86.86 5.04 87.75 5.23L87.75 5.23L87.75 4.87Q87.75 4.03 87.22 3.47Q86.70 2.90 85.40 2.90L85.40 2.90Q84.56 2.90 83.78 3.02Q83 3.14 82.52 3.31L82.52 3.31L82.11 0.94Q82.66 0.74 83.67 0.59Q84.68 0.43 85.76 0.43ZM95.43 7.80L95.43 3.17L92.86 3.17L92.86 0.72L95.43 0.72L95.43-2.11L98.38-2.59L98.38 0.72L103.11 0.72L103.11 3.17L98.38 3.17L98.38 7.73Q98.38 8.35 98.50 8.74Q98.62 9.12 98.84 9.34Q99.06 9.55 99.37 9.62Q99.68 9.70 100.06 9.70L100.06 9.70Q100.47 9.70 100.82 9.67Q101.17 9.65 101.49 9.59Q101.82 9.53 102.16 9.41Q102.51 9.29 102.92 9.10L102.92 9.10L103.33 11.64Q102.51 11.98 101.56 12.12Q100.62 12.26 99.73 12.26L99.73 12.26Q98.70 12.26 97.90 12.10Q97.11 11.93 96.56 11.45Q96.01 10.97 95.72 10.09Q95.43 9.22 95.43 7.80L95.43 7.80ZM104.74 6.46L104.74 6.46Q104.74 4.97 105.20 3.84Q105.66 2.71 106.40 1.96Q107.14 1.20 108.10 0.82Q109.06 0.43 110.07 0.43L110.07 0.43Q112.57 0.43 113.86 1.91Q115.16 3.38 115.16 6.22L115.16 6.22Q115.16 6.50 115.15 6.82Q115.14 7.13 115.11 7.32L115.11 7.32L107.79 7.32Q107.79 8.42 108.70 9.06Q109.62 9.70 111.06 9.70L111.06 9.70Q111.94 9.70 112.75 9.50Q113.55 9.31 114.10 9.12L114.10 9.12L114.51 11.64Q113.74 11.90 112.88 12.08Q112.02 12.26 110.94 12.26L110.94 12.26Q109.50 12.26 108.36 11.89Q107.22 11.52 106.41 10.79Q105.61 10.06 105.18 8.98Q104.74 7.90 104.74 6.46ZM107.79 5.28L112.30 5.28Q112.30 4.82 112.18 4.40Q112.06 3.98 111.80 3.65Q111.54 3.31 111.13 3.11Q110.72 2.90 110.12 2.90L110.12 2.90Q109.54 2.90 109.12 3.10Q108.70 3.29 108.43 3.62Q108.15 3.96 108.00 4.39Q107.84 4.82 107.79 5.28L107.79 5.28ZM135.97-2.86L138.92-2.86L138.92 12L135.97 12L135.97 5.45L132.03 5.45L132.03 12L129.08 12L129.08-2.86L132.03-2.86L132.03 3L135.97 3L135.97-2.86ZM146.02 9.89L146.02 9.89Q146.50 9.89 146.96 9.88Q147.42 9.86 147.75 9.82L147.75 9.82L147.75 7.22Q147.46 7.18 147.06 7.14Q146.65 7.10 146.31 7.10L146.31 7.10Q145.86 7.10 145.42 7.16Q144.99 7.22 144.67 7.37Q144.34 7.51 144.15 7.78Q143.96 8.04 143.96 8.47L143.96 8.47Q143.96 9.24 144.54 9.56Q145.11 9.89 146.02 9.89ZM145.76 0.43L145.76 0.43Q147.15 0.43 148.08 0.76Q149 1.08 149.55 1.67Q150.10 2.26 150.34 3.11Q150.58 3.96 150.58 5.02L150.58 5.02L150.58 11.74Q149.94 11.88 148.66 12.07Q147.39 12.26 145.81 12.26L145.81 12.26Q144.73 12.26 143.85 12.07Q142.98 11.88 142.35 11.44Q141.73 10.99 141.39 10.28Q141.06 9.58 141.06 8.54L141.06 8.54Q141.06 7.56 141.44 6.89Q141.82 6.22 142.47 5.81Q143.12 5.40 143.96 5.22Q144.80 5.04 145.71 5.04L145.71 5.04Q146.86 5.04 147.75 5.23L147.75 5.23L147.75 4.87Q147.75 4.03 147.22 3.47Q146.70 2.90 145.40 2.90L145.40 2.90Q144.56 2.90 143.78 3.02Q143 3.14 142.52 3.31L142.52 3.31L142.11 0.94Q142.66 0.74 143.67 0.59Q144.68 0.43 145.76 0.43ZM157.47 9.77L157.47 9.77Q158.55 9.77 159.13 9.61Q159.70 9.46 159.70 8.98L159.70 8.98Q159.70 8.66 159.52 8.45Q159.34 8.23 159.02 8.08Q158.70 7.92 158.28 7.78Q157.86 7.63 157.40 7.49L157.40 7.49Q156.75 7.30 156.08 7.04Q155.41 6.79 154.86 6.41Q154.30 6.02 153.94 5.44Q153.58 4.85 153.58 3.96L153.58 3.96Q153.58 3.24 153.86 2.60Q154.14 1.97 154.72 1.48Q155.31 0.98 156.22 0.71Q157.14 0.43 158.41 0.43L158.41 0.43Q159.51 0.43 160.46 0.60Q161.41 0.77 162.10 1.08L162.10 1.08L161.65 3.58Q161.24 3.46 160.38 3.18Q159.51 2.90 158.43 2.90L158.43 2.90Q157.30 2.90 156.91 3.18Q156.51 3.46 156.51 3.77L156.51 3.77Q156.51 4.03 156.69 4.24Q156.87 4.44 157.17 4.61Q157.47 4.78 157.87 4.93Q158.26 5.09 158.72 5.23L158.72 5.23Q159.37 5.45 160.06 5.71Q160.76 5.98 161.32 6.37Q161.89 6.77 162.25 7.38Q162.61 7.99 162.61 8.88L162.61 8.88Q162.61 9.58 162.34 10.20Q162.08 10.82 161.47 11.28Q160.86 11.74 159.87 12Q158.89 12.26 157.45 12.26L157.45 12.26Q155.98 12.26 154.95 11.93Q153.92 11.59 153.30 11.33L153.30 11.33L153.75 8.86Q154.59 9.19 155.54 9.48Q156.49 9.77 157.47 9.77ZM168.49-4.66L168.49 5.18Q168.92 4.68 169.36 4.12Q169.81 3.55 170.23 2.95Q170.65 2.35 171.03 1.79Q171.42 1.22 171.70 0.72L171.70 0.72L175.26 0.72Q174.82 1.27 174.27 1.92Q173.72 2.57 173.13 3.24Q172.54 3.91 171.96 4.54Q171.37 5.16 170.89 5.69L170.89 5.69Q171.49 6.26 172.18 7.07Q172.88 7.87 173.55 8.74Q174.22 9.60 174.79 10.46Q175.35 11.33 175.69 12L175.69 12L172.30 12Q172.02 11.40 171.55 10.64Q171.08 9.89 170.55 9.16Q170.02 8.42 169.48 7.76Q168.94 7.10 168.49 6.67L168.49 6.67L168.49 12L165.51 12L165.51-4.15L168.49-4.66ZM176.74 6.46L176.74 6.46Q176.74 4.97 177.20 3.84Q177.66 2.71 178.40 1.96Q179.14 1.20 180.10 0.82Q181.06 0.43 182.07 0.43L182.07 0.43Q184.57 0.43 185.86 1.91Q187.16 3.38 187.16 6.22L187.16 6.22Q187.16 6.50 187.15 6.82Q187.14 7.13 187.11 7.32L187.11 7.32L179.79 7.32Q179.79 8.42 180.70 9.06Q181.62 9.70 183.06 9.70L183.06 9.70Q183.94 9.70 184.75 9.50Q185.55 9.31 186.10 9.12L186.10 9.12L186.51 11.64Q185.74 11.90 184.88 12.08Q184.02 12.26 182.94 12.26L182.94 12.26Q181.50 12.26 180.36 11.89Q179.22 11.52 178.41 10.79Q177.61 10.06 177.18 8.98Q176.74 7.90 176.74 6.46ZM179.79 5.28L184.30 5.28Q184.30 4.82 184.18 4.40Q184.06 3.98 183.80 3.65Q183.54 3.31 183.13 3.11Q182.72 2.90 182.12 2.90L182.12 2.90Q181.54 2.90 181.12 3.10Q180.70 3.29 180.43 3.62Q180.15 3.96 180.00 4.39Q179.84 4.82 179.79 5.28L179.79 5.28ZM198.82 9.14L199.21 11.52Q199.14 11.57 198.88 11.69Q198.63 11.81 198.22 11.94Q197.82 12.07 197.23 12.17Q196.64 12.26 195.90 12.26L195.90 12.26Q193.86 12.26 192.92 11.05Q191.98 9.84 191.98 7.51L191.98 7.51L191.98-2.06L188.86-2.06L188.86-4.51L194.94-4.51L194.94 7.73Q194.94 8.88 195.39 9.29Q195.85 9.70 196.54 9.70L196.54 9.70Q197.43 9.70 198.03 9.46Q198.63 9.22 198.82 9.14L198.82 9.14ZM210.82 9.14L211.21 11.52Q211.14 11.57 210.88 11.69Q210.63 11.81 210.22 11.94Q209.82 12.07 209.23 12.17Q208.64 12.26 207.90 12.26L207.90 12.26Q205.86 12.26 204.92 11.05Q203.98 9.84 203.98 7.51L203.98 7.51L203.98-2.06L200.86-2.06L200.86-4.51L206.94-4.51L206.94 7.73Q206.94 8.88 207.39 9.29Q207.85 9.70 208.54 9.70L208.54 9.70Q209.43 9.70 210.03 9.46Q210.63 9.22 210.82 9.14L210.82 9.14Z"/></g></svg>