<?xml version="1.0" encoding="UTF-8"?><svg height="26" width="171.6" version="1.1" xmlns="http://www.w3.org/2000/svg"><!--Created by Josélio de S. C. Júnior - 2021 - https://github.com/joseliojunior --><rect height="24" width="169.6" rx="12" ry="12" x="1" y="1" fill="#5e5086" stroke="#1b1726" stroke-width="1" /><g transform="translate(0, 8)"><path fill="#1b1726" d="M27.36 8.37L27.36 10L21.14 10L21.14 0.10L23.12 0.10L23.12 8.37L27.36 8.37ZM32.54 0.32L32.54 0.32Q32.54 0.90 32.18 1.23Q31.81 1.57 31.30 1.57L31.30 1.57Q30.78 1.57 30.42 1.23Q30.06 0.90 30.06 0.32L30.06 0.32Q30.06-0.27 30.42-0.61Q30.78-0.94 31.30-0.94L31.30-0.94Q31.81-0.94 32.18-0.61Q32.54-0.27 32.54 0.32ZM35.22 8.10L35.47 9.68Q34.86 9.97 34.33 10.07Q33.79 10.18 33.34 10.18L33.34 10.18Q32.58 10.18 32.06 9.95Q31.54 9.73 31.22 9.30Q30.91 8.88 30.78 8.27Q30.66 7.66 30.66 6.88L30.66 6.88L30.66 4.11L28.58 4.11L28.58 2.48L32.62 2.48L32.62 7.14Q32.62 7.81 32.87 8.14Q33.12 8.46 33.70 8.46L33.70 8.46Q33.97 8.46 34.35 8.39Q34.74 8.32 35.22 8.10L35.22 8.10ZM38.29 7.20L38.29 4.11L36.58 4.11L36.58 2.48L38.29 2.48L38.29 0.59L40.26 0.27L40.26 2.48L43.41 2.48L43.41 4.11L40.26 4.11L40.26 7.15Q40.26 7.57 40.34 7.82Q40.42 8.08 40.56 8.22Q40.70 8.37 40.91 8.42Q41.12 8.46 41.38 8.46L41.38 8.46Q41.65 8.46 41.88 8.45Q42.11 8.43 42.33 8.39Q42.54 8.35 42.78 8.27Q43.01 8.19 43.28 8.06L43.28 8.06L43.55 9.76Q43.01 9.98 42.38 10.08Q41.74 10.18 41.15 10.18L41.15 10.18Q40.46 10.18 39.94 10.06Q39.41 9.95 39.04 9.63Q38.67 9.31 38.48 8.73Q38.29 8.14 38.29 7.20L38.29 7.20ZM44.50 6.30L44.50 6.30Q44.50 5.31 44.80 4.56Q45.10 3.81 45.60 3.30Q46.10 2.80 46.74 2.54Q47.38 2.29 48.05 2.29L48.05 2.29Q49.71 2.29 50.58 3.27Q51.44 4.26 51.44 6.14L51.44 6.14Q51.44 6.34 51.43 6.54Q51.42 6.75 51.41 6.88L51.41 6.88L46.53 6.88Q46.53 7.62 47.14 8.04Q47.74 8.46 48.70 8.46L48.70 8.46Q49.30 8.46 49.83 8.34Q50.37 8.21 50.74 8.08L50.74 8.08L51.01 9.76Q50.50 9.94 49.92 10.06Q49.34 10.18 48.62 10.18L48.62 10.18Q47.66 10.18 46.90 9.93Q46.14 9.68 45.61 9.19Q45.07 8.70 44.78 7.98Q44.50 7.26 44.50 6.30ZM46.53 5.52L49.54 5.52Q49.54 5.22 49.46 4.94Q49.38 4.66 49.20 4.43Q49.02 4.21 48.75 4.07Q48.48 3.94 48.08 3.94L48.08 3.94Q47.70 3.94 47.42 4.06Q47.14 4.19 46.95 4.42Q46.77 4.64 46.66 4.93Q46.56 5.22 46.53 5.52L46.53 5.52ZM59.34 2.66L58.99 4.48Q58.80 4.43 58.54 4.38Q58.27 4.34 58 4.30Q57.73 4.26 57.47 4.24Q57.22 4.22 57.04 4.22L57.04 4.22Q56.62 4.22 56.22 4.26Q55.82 4.30 55.41 4.42L55.41 4.42L55.41 10L53.42 10L53.42 2.98Q54.21 2.69 55.03 2.51Q55.86 2.34 56.96 2.34L56.96 2.34Q57.12 2.34 57.42 2.35Q57.71 2.37 58.05 2.41Q58.38 2.45 58.73 2.50Q59.07 2.56 59.34 2.66L59.34 2.66ZM64.02 8.59L64.02 8.59Q64.34 8.59 64.64 8.58Q64.94 8.58 65.17 8.54L65.17 8.54L65.17 6.82Q64.98 6.78 64.70 6.76Q64.43 6.74 64.21 6.74L64.21 6.74Q63.90 6.74 63.62 6.78Q63.33 6.82 63.11 6.91Q62.90 7.01 62.77 7.18Q62.64 7.36 62.64 7.65L62.64 7.65Q62.64 8.16 63.02 8.38Q63.41 8.59 64.02 8.59ZM63.84 2.29L63.84 2.29Q64.77 2.29 65.38 2.50Q66 2.72 66.37 3.11Q66.74 3.50 66.90 4.07Q67.06 4.64 67.06 5.34L67.06 5.34L67.06 9.82Q66.62 9.92 65.78 10.05Q64.93 10.18 63.87 10.18L63.87 10.18Q63.15 10.18 62.57 10.05Q61.98 9.92 61.57 9.62Q61.15 9.33 60.93 8.86Q60.70 8.38 60.70 7.70L60.70 7.70Q60.70 7.04 60.96 6.59Q61.22 6.14 61.65 5.87Q62.08 5.60 62.64 5.48Q63.20 5.36 63.81 5.36L63.81 5.36Q64.58 5.36 65.17 5.49L65.17 5.49L65.17 5.25Q65.17 4.69 64.82 4.31Q64.46 3.94 63.60 3.94L63.60 3.94Q63.04 3.94 62.52 4.02Q62 4.10 61.68 4.21L61.68 4.21L61.41 2.62Q61.78 2.50 62.45 2.39Q63.12 2.29 63.84 2.29ZM70.29 7.20L70.29 4.11L68.58 4.11L68.58 2.48L70.29 2.48L70.29 0.59L72.26 0.27L72.26 2.48L75.41 2.48L75.41 4.11L72.26 4.11L72.26 7.15Q72.26 7.57 72.34 7.82Q72.42 8.08 72.56 8.22Q72.70 8.37 72.91 8.42Q73.12 8.46 73.38 8.46L73.38 8.46Q73.65 8.46 73.88 8.45Q74.11 8.43 74.33 8.39Q74.54 8.35 74.78 8.27Q75.01 8.19 75.28 8.06L75.28 8.06L75.55 9.76Q75.01 9.98 74.38 10.08Q73.74 10.18 73.15 10.18L73.15 10.18Q72.46 10.18 71.94 10.06Q71.41 9.95 71.04 9.63Q70.67 9.31 70.48 8.73Q70.29 8.14 70.29 7.20L70.29 7.20ZM76.50 6.30L76.50 6.30Q76.50 5.31 76.80 4.56Q77.10 3.81 77.60 3.30Q78.10 2.80 78.74 2.54Q79.38 2.29 80.05 2.29L80.05 2.29Q81.71 2.29 82.58 3.27Q83.44 4.26 83.44 6.14L83.44 6.14Q83.44 6.34 83.43 6.54Q83.42 6.75 83.41 6.88L83.41 6.88L78.53 6.88Q78.53 7.62 79.14 8.04Q79.74 8.46 80.70 8.46L80.70 8.46Q81.30 8.46 81.83 8.34Q82.37 8.21 82.74 8.08L82.74 8.08L83.01 9.76Q82.50 9.94 81.92 10.06Q81.34 10.18 80.62 10.18L80.62 10.18Q79.66 10.18 78.90 9.93Q78.14 9.68 77.61 9.19Q77.07 8.70 76.78 7.98Q76.50 7.26 76.50 6.30ZM78.53 5.52L81.54 5.52Q81.54 5.22 81.46 4.94Q81.38 4.66 81.20 4.43Q81.02 4.21 80.75 4.07Q80.48 3.94 80.08 3.94L80.08 3.94Q79.70 3.94 79.42 4.06Q79.14 4.19 78.95 4.42Q78.77 4.64 78.66 4.93Q78.56 5.22 78.53 5.52L78.53 5.52ZM97.31 0.10L99.28 0.10L99.28 10L97.31 10L97.31 5.63L94.69 5.63L94.69 10L92.72 10L92.72 0.10L94.69 0.10L94.69 4L97.31 4L97.31 0.10ZM104.02 8.59L104.02 8.59Q104.34 8.59 104.64 8.58Q104.94 8.58 105.17 8.54L105.17 8.54L105.17 6.82Q104.98 6.78 104.70 6.76Q104.43 6.74 104.21 6.74L104.21 6.74Q103.90 6.74 103.62 6.78Q103.33 6.82 103.11 6.91Q102.90 7.01 102.77 7.18Q102.64 7.36 102.64 7.65L102.64 7.65Q102.64 8.16 103.02 8.38Q103.41 8.59 104.02 8.59ZM103.84 2.29L103.84 2.29Q104.77 2.29 105.38 2.50Q106 2.72 106.37 3.11Q106.74 3.50 106.90 4.07Q107.06 4.64 107.06 5.34L107.06 5.34L107.06 9.82Q106.62 9.92 105.78 10.05Q104.93 10.18 103.87 10.18L103.87 10.18Q103.15 10.18 102.57 10.05Q101.98 9.92 101.57 9.62Q101.15 9.33 100.93 8.86Q100.70 8.38 100.70 7.70L100.70 7.70Q100.70 7.04 100.96 6.59Q101.22 6.14 101.65 5.87Q102.08 5.60 102.64 5.48Q103.20 5.36 103.81 5.36L103.81 5.36Q104.58 5.36 105.17 5.49L105.17 5.49L105.17 5.25Q105.17 4.69 104.82 4.31Q104.46 3.94 103.60 3.94L103.60 3.94Q103.04 3.94 102.52 4.02Q102 4.10 101.68 4.21L101.68 4.21L101.41 2.62Q101.78 2.50 102.45 2.39Q103.12 2.29 103.84 2.29ZM111.65 8.51L111.65 8.51Q112.37 8.51 112.75 8.41Q113.14 8.30 113.14 7.98L113.14 7.98Q113.14 7.78 113.02 7.63Q112.90 7.49 112.68 7.38Q112.46 7.28 112.18 7.18Q111.90 7.09 111.60 6.99L111.60 6.99Q111.17 6.86 110.72 6.70Q110.27 6.53 109.90 6.27Q109.54 6.02 109.30 5.62Q109.06 5.23 109.06 4.64L109.06 4.64Q109.06 4.16 109.24 3.74Q109.42 3.31 109.82 2.98Q110.21 2.66 110.82 2.47Q111.42 2.29 112.27 2.29L112.27 2.29Q113.01 2.29 113.64 2.40Q114.27 2.51 114.74 2.72L114.74 2.72L114.43 4.38Q114.16 4.30 113.58 4.12Q113.01 3.94 112.29 3.94L112.29 3.94Q111.54 3.94 111.27 4.12Q111.01 4.30 111.01 4.51L111.01 4.51Q111.01 4.69 111.13 4.82Q111.25 4.96 111.45 5.07Q111.65 5.18 111.91 5.29Q112.18 5.39 112.48 5.49L112.48 5.49Q112.91 5.63 113.38 5.81Q113.84 5.98 114.22 6.25Q114.59 6.51 114.83 6.92Q115.07 7.33 115.07 7.92L115.07 7.92Q115.07 8.38 114.90 8.80Q114.72 9.22 114.31 9.52Q113.90 9.82 113.25 10Q112.59 10.18 111.63 10.18L111.63 10.18Q110.66 10.18 109.97 9.95Q109.28 9.73 108.86 9.55L108.86 9.55L109.17 7.90Q109.73 8.13 110.36 8.32Q110.99 8.51 111.65 8.51ZM118.99-1.10L118.99 5.46Q119.28 5.12 119.58 4.74Q119.87 4.37 120.15 3.97Q120.43 3.57 120.69 3.19Q120.94 2.82 121.14 2.48L121.14 2.48L123.50 2.48Q123.22 2.85 122.85 3.28Q122.48 3.71 122.09 4.16Q121.70 4.61 121.30 5.02Q120.91 5.44 120.59 5.79L120.59 5.79Q120.99 6.18 121.46 6.71Q121.92 7.25 122.37 7.82Q122.82 8.40 123.19 8.98Q123.57 9.55 123.79 10L123.79 10L121.54 10Q121.34 9.60 121.03 9.10Q120.72 8.59 120.37 8.10Q120.02 7.62 119.66 7.18Q119.30 6.74 118.99 6.45L118.99 6.45L118.99 10L117.01 10L117.01-0.77L118.99-1.10ZM124.50 6.30L124.50 6.30Q124.50 5.31 124.80 4.56Q125.10 3.81 125.60 3.30Q126.10 2.80 126.74 2.54Q127.38 2.29 128.05 2.29L128.05 2.29Q129.71 2.29 130.58 3.27Q131.44 4.26 131.44 6.14L131.44 6.14Q131.44 6.34 131.43 6.54Q131.42 6.75 131.41 6.88L131.41 6.88L126.53 6.88Q126.53 7.62 127.14 8.04Q127.74 8.46 128.70 8.46L128.70 8.46Q129.30 8.46 129.83 8.34Q130.37 8.21 130.74 8.08L130.74 8.08L131.01 9.76Q130.50 9.94 129.92 10.06Q129.34 10.18 128.62 10.18L128.62 10.18Q127.66 10.18 126.90 9.93Q126.14 9.68 125.61 9.19Q125.07 8.70 124.78 7.98Q124.50 7.26 124.50 6.30ZM126.53 5.52L129.54 5.52Q129.54 5.22 129.46 4.94Q129.38 4.66 129.20 4.43Q129.02 4.21 128.75 4.07Q128.48 3.94 128.08 3.94L128.08 3.94Q127.70 3.94 127.42 4.06Q127.14 4.19 126.95 4.42Q126.77 4.64 126.66 4.93Q126.56 5.22 126.53 5.52L126.53 5.52ZM139.22 8.10L139.47 9.68Q139.42 9.71 139.26 9.79Q139.09 9.87 138.82 9.96Q138.54 10.05 138.15 10.11Q137.76 10.18 137.26 10.18L137.26 10.18Q135.90 10.18 135.28 9.37Q134.66 8.56 134.66 7.01L134.66 7.01L134.66 0.62L132.58 0.62L132.58-1.01L136.62-1.01L136.62 7.15Q136.62 7.92 136.93 8.19Q137.23 8.46 137.70 8.46L137.70 8.46Q138.29 8.46 138.69 8.30Q139.09 8.14 139.22 8.10L139.22 8.10ZM147.22 8.10L147.47 9.68Q147.42 9.71 147.26 9.79Q147.09 9.87 146.82 9.96Q146.54 10.05 146.15 10.11Q145.76 10.18 145.26 10.18L145.26 10.18Q143.90 10.18 143.28 9.37Q142.66 8.56 142.66 7.01L142.66 7.01L142.66 0.62L140.58 0.62L140.58-1.01L144.62-1.01L144.62 7.15Q144.62 7.92 144.93 8.19Q145.23 8.46 145.70 8.46L145.70 8.46Q146.29 8.46 146.69 8.30Q147.09 8.14 147.22 8.10L147.22 8.10Z"/></g></svg>