<?xml version="1.0" encoding="UTF-8"?>
<svg height="26" width="163.5" version="1.1" xmlns="http://www.w3.org/2000/svg"><!--Created by Josélio de S. C. Júnior - 2021 - https://github.com/joseliojunior -->
    <defs>
        <pattern id="pattern"
                x="3" y="3" width="6" height="6"
                patternUnits="userSpaceOnUse"
                patternTransform="rotate(45)" >
            <rect height="6" width="6"
                fill="#ffffff"/>
            <line x1="0" y1="0" x2="0" y2="6"
                stroke="#bbbbbb"
                stroke-width="2" />
        </pattern>
    </defs>
    <rect
        height="24"
        width="161.5"
        rx="12"
        ry="12"
        x="1" y="1"
        fill="url(#pattern)" />
    <g transform="translate(0, 8)">
        <path fill="#000000" d="M24.99 1.58L24.99 1.58Q24.29 1.58 23.81 1.84Q23.33 2.10 23.02 2.55Q22.70 3.01 22.57 3.64Q22.43 4.27 22.43 5.04L22.43 5.04Q22.43 6.82 22.99 7.66Q23.55 8.50 24.64 8.50L24.64 8.50Q24.82 8.50 25.02 8.48Q25.23 8.46 25.41 8.43L25.41 8.43L25.41 4.82L27.38 4.82L27.38 9.76Q27.02 9.89 26.28 10.05Q25.54 10.21 24.48 10.21L24.48 10.21Q23.55 10.21 22.81 9.88Q22.06 9.55 21.54 8.90Q21.01 8.26 20.72 7.29Q20.43 6.32 20.43 5.04L20.43 5.04Q20.43 3.78 20.77 2.81Q21.10 1.84 21.68 1.18Q22.26 0.53 23.04 0.20Q23.82-0.13 24.72-0.13L24.72-0.13Q25.30-0.13 25.75-0.04Q26.21 0.05 26.54 0.16Q26.88 0.27 27.10 0.40Q27.31 0.53 27.42 0.59L27.42 0.59L26.91 2.16Q26.56 1.94 26.05 1.76Q25.54 1.58 24.99 1.58ZM28.50 6.30L28.50 6.30Q28.50 5.31 28.80 4.56Q29.10 3.81 29.60 3.30Q30.10 2.80 30.74 2.54Q31.38 2.29 32.05 2.29L32.05 2.29Q33.71 2.29 34.58 3.27Q35.44 4.26 35.44 6.14L35.44 6.14Q35.44 6.34 35.43 6.54Q35.42 6.75 35.41 6.88L35.41 6.88L30.53 6.88Q30.53 7.62 31.14 8.04Q31.74 8.46 32.70 8.46L32.70 8.46Q33.30 8.46 33.83 8.34Q34.37 8.21 34.74 8.08L34.74 8.08L35.01 9.76Q34.50 9.94 33.92 10.06Q33.34 10.18 32.62 10.18L32.62 10.18Q31.66 10.18 30.90 9.93Q30.14 9.68 29.61 9.19Q29.07 8.70 28.78 7.98Q28.50 7.26 28.50 6.30ZM30.53 5.52L33.54 5.52Q33.54 5.22 33.46 4.94Q33.38 4.66 33.20 4.43Q33.02 4.21 32.75 4.07Q32.48 3.94 32.08 3.94L32.08 3.94Q31.70 3.94 31.42 4.06Q31.14 4.19 30.95 4.42Q30.77 4.64 30.66 4.93Q30.56 5.22 30.53 5.52L30.53 5.52ZM38.29 7.20L38.29 4.11L36.58 4.11L36.58 2.48L38.29 2.48L38.29 0.59L40.26 0.27L40.26 2.48L43.41 2.48L43.41 4.11L40.26 4.11L40.26 7.15Q40.26 7.57 40.34 7.82Q40.42 8.08 40.56 8.22Q40.70 8.37 40.91 8.42Q41.12 8.46 41.38 8.46L41.38 8.46Q41.65 8.46 41.88 8.45Q42.11 8.43 42.33 8.39Q42.54 8.35 42.78 8.27Q43.01 8.19 43.28 8.06L43.28 8.06L43.55 9.76Q43.01 9.98 42.38 10.08Q41.74 10.18 41.15 10.18L41.15 10.18Q40.46 10.18 39.94 10.06Q39.41 9.95 39.04 9.63Q38.67 9.31 38.48 8.73Q38.29 8.14 38.29 7.20L38.29 7.20ZM46.29 7.20L46.29 4.11L44.58 4.11L44.58 2.48L46.29 2.48L46.29 0.59L48.26 0.27L48.26 2.48L51.41 2.48L51.41 4.11L48.26 4.11L48.26 7.15Q48.26 7.57 48.34 7.82Q48.42 8.08 48.56 8.22Q48.70 8.37 48.91 8.42Q49.12 8.46 49.38 8.46L49.38 8.46Q49.65 8.46 49.88 8.45Q50.11 8.43 50.33 8.39Q50.54 8.35 50.78 8.27Q51.01 8.19 51.28 8.06L51.28 8.06L51.55 9.76Q51.01 9.98 50.38 10.08Q49.74 10.18 49.15 10.18L49.15 10.18Q48.46 10.18 47.94 10.06Q47.41 9.95 47.04 9.63Q46.67 9.31 46.48 8.73Q46.29 8.14 46.29 7.20L46.29 7.20ZM52.50 6.30L52.50 6.30Q52.50 5.31 52.80 4.56Q53.10 3.81 53.60 3.30Q54.10 2.80 54.74 2.54Q55.38 2.29 56.05 2.29L56.05 2.29Q57.71 2.29 58.58 3.27Q59.44 4.26 59.44 6.14L59.44 6.14Q59.44 6.34 59.43 6.54Q59.42 6.75 59.41 6.88L59.41 6.88L54.53 6.88Q54.53 7.62 55.14 8.04Q55.74 8.46 56.70 8.46L56.70 8.46Q57.30 8.46 57.83 8.34Q58.37 8.21 58.74 8.08L58.74 8.08L59.01 9.76Q58.50 9.94 57.92 10.06Q57.34 10.18 56.62 10.18L56.62 10.18Q55.66 10.18 54.90 9.93Q54.14 9.68 53.61 9.19Q53.07 8.70 52.78 7.98Q52.50 7.26 52.50 6.30ZM54.53 5.52L57.54 5.52Q57.54 5.22 57.46 4.94Q57.38 4.66 57.20 4.43Q57.02 4.21 56.75 4.07Q56.48 3.94 56.08 3.94L56.08 3.94Q55.70 3.94 55.42 4.06Q55.14 4.19 54.95 4.42Q54.77 4.64 54.66 4.93Q54.56 5.22 54.53 5.52L54.53 5.52ZM62.40 2.48L64.06 4.83L65.60 2.48L67.60 2.48L65.17 6.10Q65.55 6.56 65.92 7.08Q66.29 7.60 66.62 8.13Q66.96 8.66 67.23 9.14Q67.50 9.62 67.70 10L67.70 10L65.65 10Q65.22 9.18 64.78 8.54Q64.35 7.90 63.97 7.39L63.97 7.39Q63.49 8.03 63.10 8.64Q62.72 9.25 62.32 10L62.32 10L60.32 10Q60.56 9.55 60.87 9.06Q61.18 8.58 61.53 8.07Q61.87 7.57 62.25 7.07Q62.62 6.58 62.98 6.13L62.98 6.13L60.34 2.48L62.40 2.48ZM70.29 7.20L70.29 4.11L68.58 4.11L68.58 2.48L70.29 2.48L70.29 0.59L72.26 0.27L72.26 2.48L75.41 2.48L75.41 4.11L72.26 4.11L72.26 7.15Q72.26 7.57 72.34 7.82Q72.42 8.08 72.56 8.22Q72.70 8.37 72.91 8.42Q73.12 8.46 73.38 8.46L73.38 8.46Q73.65 8.46 73.88 8.45Q74.11 8.43 74.33 8.39Q74.54 8.35 74.78 8.27Q75.01 8.19 75.28 8.06L75.28 8.06L75.55 9.76Q75.01 9.98 74.38 10.08Q73.74 10.18 73.15 10.18L73.15 10.18Q72.46 10.18 71.94 10.06Q71.41 9.95 71.04 9.63Q70.67 9.31 70.48 8.73Q70.29 8.14 70.29 7.20L70.29 7.20ZM88.74 10.21L88.74 10.21Q86.64 10.21 85.54 8.86Q84.43 7.52 84.43 5.04L84.43 5.04Q84.43 3.81 84.77 2.85Q85.10 1.89 85.70 1.22Q86.30 0.56 87.13 0.22Q87.95-0.13 88.93-0.13L88.93-0.13Q89.46-0.13 89.88-0.04Q90.30 0.05 90.62 0.16Q90.94 0.27 91.16 0.40Q91.38 0.53 91.49 0.59L91.49 0.59L90.98 2.16Q90.61 1.92 90.09 1.75Q89.57 1.58 88.90 1.58L88.90 1.58Q88.43 1.58 87.99 1.75Q87.55 1.92 87.21 2.31Q86.86 2.70 86.65 3.36Q86.43 4.02 86.43 4.99L86.43 4.99Q86.43 6.69 87.02 7.59Q87.60 8.50 88.93 8.50L88.93 8.50Q89.70 8.50 90.20 8.32Q90.70 8.14 91.01 7.97L91.01 7.97L91.50 9.52Q91.09 9.78 90.38 9.99Q89.66 10.21 88.74 10.21ZM96.02 8.59L96.02 8.59Q96.34 8.59 96.64 8.58Q96.94 8.58 97.17 8.54L97.17 8.54L97.17 6.82Q96.98 6.78 96.70 6.76Q96.43 6.74 96.21 6.74L96.21 6.74Q95.90 6.74 95.62 6.78Q95.33 6.82 95.11 6.91Q94.90 7.01 94.77 7.18Q94.64 7.36 94.64 7.65L94.64 7.65Q94.64 8.16 95.02 8.38Q95.41 8.59 96.02 8.59ZM95.84 2.29L95.84 2.29Q96.77 2.29 97.38 2.50Q98 2.72 98.37 3.11Q98.74 3.50 98.90 4.07Q99.06 4.64 99.06 5.34L99.06 5.34L99.06 9.82Q98.62 9.92 97.78 10.05Q96.93 10.18 95.87 10.18L95.87 10.18Q95.15 10.18 94.57 10.05Q93.98 9.92 93.57 9.62Q93.15 9.33 92.93 8.86Q92.70 8.38 92.70 7.70L92.70 7.70Q92.70 7.04 92.96 6.59Q93.22 6.14 93.65 5.87Q94.08 5.60 94.64 5.48Q95.20 5.36 95.81 5.36L95.81 5.36Q96.58 5.36 97.17 5.49L97.17 5.49L97.17 5.25Q97.17 4.69 96.82 4.31Q96.46 3.94 95.60 3.94L95.60 3.94Q95.04 3.94 94.52 4.02Q94 4.10 93.68 4.21L93.68 4.21L93.41 2.62Q93.78 2.50 94.45 2.39Q95.12 2.29 95.84 2.29ZM102.29 7.20L102.29 4.11L100.58 4.11L100.58 2.48L102.29 2.48L102.29 0.59L104.26 0.27L104.26 2.48L107.41 2.48L107.41 4.11L104.26 4.11L104.26 7.15Q104.26 7.57 104.34 7.82Q104.42 8.08 104.56 8.22Q104.70 8.37 104.91 8.42Q105.12 8.46 105.38 8.46L105.38 8.46Q105.65 8.46 105.88 8.45Q106.11 8.43 106.33 8.39Q106.54 8.35 106.78 8.27Q107.01 8.19 107.28 8.06L107.28 8.06L107.55 9.76Q107.01 9.98 106.38 10.08Q105.74 10.18 105.15 10.18L105.15 10.18Q104.46 10.18 103.94 10.06Q103.41 9.95 103.04 9.63Q102.67 9.31 102.48 8.73Q102.29 8.14 102.29 7.20L102.29 7.20ZM112.02 8.59L112.02 8.59Q112.34 8.59 112.64 8.58Q112.94 8.58 113.17 8.54L113.17 8.54L113.17 6.82Q112.98 6.78 112.70 6.76Q112.43 6.74 112.21 6.74L112.21 6.74Q111.90 6.74 111.62 6.78Q111.33 6.82 111.11 6.91Q110.90 7.01 110.77 7.18Q110.64 7.36 110.64 7.65L110.64 7.65Q110.64 8.16 111.02 8.38Q111.41 8.59 112.02 8.59ZM111.84 2.29L111.84 2.29Q112.77 2.29 113.38 2.50Q114 2.72 114.37 3.11Q114.74 3.50 114.90 4.07Q115.06 4.64 115.06 5.34L115.06 5.34L115.06 9.82Q114.62 9.92 113.78 10.05Q112.93 10.18 111.87 10.18L111.87 10.18Q111.15 10.18 110.57 10.05Q109.98 9.92 109.57 9.62Q109.15 9.33 108.93 8.86Q108.70 8.38 108.70 7.70L108.70 7.70Q108.70 7.04 108.96 6.59Q109.22 6.14 109.65 5.87Q110.08 5.60 110.64 5.48Q111.20 5.36 111.81 5.36L111.81 5.36Q112.58 5.36 113.17 5.49L113.17 5.49L113.17 5.25Q113.17 4.69 112.82 4.31Q112.46 3.94 111.60 3.94L111.60 3.94Q111.04 3.94 110.52 4.02Q110 4.10 109.68 4.21L109.68 4.21L109.41 2.62Q109.78 2.50 110.45 2.39Q111.12 2.29 111.84 2.29ZM123.22 8.10L123.47 9.68Q123.42 9.71 123.26 9.79Q123.09 9.87 122.82 9.96Q122.54 10.05 122.15 10.11Q121.76 10.18 121.26 10.18L121.26 10.18Q119.90 10.18 119.28 9.37Q118.66 8.56 118.66 7.01L118.66 7.01L118.66 0.62L116.58 0.62L116.58-1.01L120.62-1.01L120.62 7.15Q120.62 7.92 120.93 8.19Q121.23 8.46 121.70 8.46L121.70 8.46Q122.29 8.46 122.69 8.30Q123.09 8.14 123.22 8.10L123.22 8.10ZM131.55 6.22L131.55 6.22Q131.55 7.12 131.30 7.85Q131.04 8.58 130.58 9.10Q130.11 9.63 129.46 9.92Q128.82 10.21 128.02 10.21L128.02 10.21Q127.22 10.21 126.57 9.92Q125.92 9.63 125.45 9.10Q124.98 8.58 124.72 7.85Q124.46 7.12 124.46 6.22L124.46 6.22Q124.46 5.34 124.73 4.62Q124.99 3.89 125.46 3.37Q125.94 2.85 126.59 2.57Q127.25 2.29 128.02 2.29L128.02 2.29Q128.80 2.29 129.45 2.57Q130.10 2.85 130.57 3.37Q131.04 3.89 131.30 4.62Q131.55 5.34 131.55 6.22ZM126.46 6.24L126.46 6.24Q126.46 7.25 126.82 7.87Q127.18 8.50 127.98 8.50L127.98 8.50Q128.75 8.50 129.14 7.87Q129.54 7.25 129.54 6.24L129.54 6.24Q129.54 5.23 129.18 4.62Q128.82 4 128.02 4L128.02 4Q127.25 4 126.86 4.62Q126.46 5.23 126.46 6.24ZM134.53 6L134.53 6Q134.53 6.93 134.86 7.42Q135.20 7.90 135.92 7.90L135.92 7.90Q136.24 7.90 136.52 7.82Q136.80 7.74 137.02 7.62L137.02 7.62L137.02 4Q136.80 3.95 136.62 3.94Q136.45 3.92 136.26 3.92L136.26 3.92Q134.53 3.92 134.53 6ZM139.01 2.72L139.01 9.09Q139.01 10.93 138.12 11.81Q137.23 12.69 135.26 12.69L135.26 12.69Q134.56 12.69 133.91 12.54Q133.26 12.40 132.67 12.21L132.67 12.21L133.04 10.54Q133.50 10.72 134.02 10.87Q134.53 11.02 135.30 11.02L135.30 11.02Q135.81 11.02 136.14 10.90Q136.48 10.78 136.67 10.58Q136.86 10.37 136.94 10.09Q137.02 9.81 137.02 9.49L137.02 9.49L137.02 9.18Q136.61 9.34 136.26 9.42Q135.92 9.50 135.52 9.50L135.52 9.50Q134.05 9.50 133.29 8.58Q132.53 7.65 132.53 6L132.53 6Q132.53 4.14 133.55 3.23Q134.58 2.32 136.34 2.32L136.34 2.32Q137.57 2.32 139.01 2.72L139.01 2.72Z"/>
    </g>
</svg>