<?xml version="1.0" encoding="UTF-8"?><svg height="26" width="114.9" version="1.1" xmlns="http://www.w3.org/2000/svg"><!--Created by Josélio de S. C. Júnior - 2021 - https://github.com/joseliojunior --><defs><pattern id="pattern" x="3" y="3" width="6" height="6" patternUnits="userSpaceOnUse" patternTransform="rotate(45)"><rect height="6" width="6" fill="#ffffff"/><line x1="0" y1="0" x2="0" y2="6" stroke="#bbbbbb" stroke-width="2" /></pattern></defs><rect height="24" width="112.9" rx="12" ry="12" x="1" y="1" fill="url(#pattern)" /><g transform="translate(0, 8)"><path fill="#000000" d="M23.42-0.02L23.42-0.02Q24.27-0.02 24.96 0.18Q25.65 0.37 26.14 0.77Q26.64 1.17 26.90 1.78Q27.17 2.40 27.17 3.23L27.17 3.23Q27.17 4.10 26.82 4.80Q26.46 5.50 25.65 5.87L25.65 5.87Q25.92 6.29 26.22 6.79Q26.53 7.30 26.82 7.85Q27.10 8.40 27.37 8.95Q27.63 9.50 27.82 10L27.82 10L25.76 10Q25.39 9.04 24.90 8.15Q24.42 7.26 23.86 6.35L23.86 6.35L22.83 6.35L22.83 10L20.86 10L20.86 0.24Q21.15 0.18 21.50 0.12Q21.84 0.06 22.19 0.04Q22.54 0.02 22.86 0Q23.18-0.02 23.42-0.02ZM25.17 3.22L25.17 3.22Q25.17 2.43 24.69 2.06Q24.21 1.70 23.42 1.70L23.42 1.70Q23.31 1.70 23.15 1.70Q22.99 1.71 22.83 1.74L22.83 1.74L22.83 4.72L23.26 4.72Q24.27 4.72 24.72 4.33Q25.17 3.94 25.17 3.22ZM35.36 10L29.01 10L29.01 0.10L35.01 0.10L35.01 1.73L30.98 1.73L30.98 3.95L34.48 3.95L34.48 5.58L30.98 5.58L30.98 8.37L35.36 8.37L35.36 10ZM43.86 10L41.74 10L41.28 7.71L38.64 7.71L38.19 10L36.14 10Q36.85 7.07 37.57 4.66Q38.29 2.26 38.96 0.10L38.96 0.10L41.10 0.10Q41.81 2.27 42.50 4.71Q43.20 7.15 43.86 10L43.86 10ZM39.98 2.02L39.98 2.02Q39.82 2.58 39.69 3.08Q39.55 3.58 39.43 4.07Q39.31 4.56 39.21 5.06Q39.10 5.55 39.01 6.08L39.01 6.08L40.94 6.08Q40.85 5.55 40.75 5.06Q40.66 4.56 40.54 4.07Q40.42 3.58 40.28 3.08Q40.14 2.58 39.98 2.02ZM51.36 8.37L51.36 10L45.14 10L45.14 0.10L47.12 0.10L47.12 8.37L51.36 8.37ZM57.52 6.19L57.52 6.19Q57.52 5.14 57.18 4.58Q56.83 4.02 56.13 4.02L56.13 4.02Q55.81 4.02 55.50 4.10Q55.18 4.19 54.96 4.32L54.96 4.32L54.96 8.40Q55.18 8.45 55.43 8.46Q55.68 8.48 55.86 8.48L55.86 8.48Q56.62 8.48 57.07 7.96Q57.52 7.44 57.52 6.19ZM59.52 6.24L59.52 6.24Q59.52 7.14 59.28 7.86Q59.04 8.59 58.58 9.10Q58.11 9.62 57.44 9.90Q56.77 10.18 55.90 10.18L55.90 10.18Q55.14 10.18 54.34 10.06Q53.54 9.95 52.99 9.78L52.99 9.78L52.99-0.77L54.96-1.10L54.96 2.66Q55.38 2.46 55.76 2.39Q56.14 2.32 56.53 2.32L56.53 2.32Q57.26 2.32 57.82 2.60Q58.38 2.88 58.76 3.40Q59.14 3.92 59.33 4.64Q59.52 5.36 59.52 6.24ZM64.02 8.59L64.02 8.59Q64.34 8.59 64.64 8.58Q64.94 8.58 65.17 8.54L65.17 8.54L65.17 6.82Q64.98 6.78 64.70 6.76Q64.43 6.74 64.21 6.74L64.21 6.74Q63.90 6.74 63.62 6.78Q63.33 6.82 63.11 6.91Q62.90 7.01 62.77 7.18Q62.64 7.36 62.64 7.65L62.64 7.65Q62.64 8.16 63.02 8.38Q63.41 8.59 64.02 8.59ZM63.84 2.29L63.84 2.29Q64.77 2.29 65.38 2.50Q66 2.72 66.37 3.11Q66.74 3.50 66.90 4.07Q67.06 4.64 67.06 5.34L67.06 5.34L67.06 9.82Q66.62 9.92 65.78 10.05Q64.93 10.18 63.87 10.18L63.87 10.18Q63.15 10.18 62.57 10.05Q61.98 9.92 61.57 9.62Q61.15 9.33 60.93 8.86Q60.70 8.38 60.70 7.70L60.70 7.70Q60.70 7.04 60.96 6.59Q61.22 6.14 61.65 5.87Q62.08 5.60 62.64 5.48Q63.20 5.36 63.81 5.36L63.81 5.36Q64.58 5.36 65.17 5.49L65.17 5.49L65.17 5.25Q65.17 4.69 64.82 4.31Q64.46 3.94 63.60 3.94L63.60 3.94Q63.04 3.94 62.52 4.02Q62 4.10 61.68 4.21L61.68 4.21L61.41 2.62Q61.78 2.50 62.45 2.39Q63.12 2.29 63.84 2.29ZM71.65 8.51L71.65 8.51Q72.37 8.51 72.75 8.41Q73.14 8.30 73.14 7.98L73.14 7.98Q73.14 7.78 73.02 7.63Q72.90 7.49 72.68 7.38Q72.46 7.28 72.18 7.18Q71.90 7.09 71.60 6.99L71.60 6.99Q71.17 6.86 70.72 6.70Q70.27 6.53 69.90 6.27Q69.54 6.02 69.30 5.62Q69.06 5.23 69.06 4.64L69.06 4.64Q69.06 4.16 69.24 3.74Q69.42 3.31 69.82 2.98Q70.21 2.66 70.82 2.47Q71.42 2.29 72.27 2.29L72.27 2.29Q73.01 2.29 73.64 2.40Q74.27 2.51 74.74 2.72L74.74 2.72L74.43 4.38Q74.16 4.30 73.58 4.12Q73.01 3.94 72.29 3.94L72.29 3.94Q71.54 3.94 71.27 4.12Q71.01 4.30 71.01 4.51L71.01 4.51Q71.01 4.69 71.13 4.82Q71.25 4.96 71.45 5.07Q71.65 5.18 71.91 5.29Q72.18 5.39 72.48 5.49L72.48 5.49Q72.91 5.63 73.38 5.81Q73.84 5.98 74.22 6.25Q74.59 6.51 74.83 6.92Q75.07 7.33 75.07 7.92L75.07 7.92Q75.07 8.38 74.90 8.80Q74.72 9.22 74.31 9.52Q73.90 9.82 73.25 10Q72.59 10.18 71.63 10.18L71.63 10.18Q70.66 10.18 69.97 9.95Q69.28 9.73 68.86 9.55L68.86 9.55L69.17 7.90Q69.73 8.13 70.36 8.32Q70.99 8.51 71.65 8.51ZM80.54 0.32L80.54 0.32Q80.54 0.90 80.18 1.23Q79.81 1.57 79.30 1.57L79.30 1.57Q78.78 1.57 78.42 1.23Q78.06 0.90 78.06 0.32L78.06 0.32Q78.06-0.27 78.42-0.61Q78.78-0.94 79.30-0.94L79.30-0.94Q79.81-0.94 80.18-0.61Q80.54-0.27 80.54 0.32ZM83.22 8.10L83.47 9.68Q82.86 9.97 82.33 10.07Q81.79 10.18 81.34 10.18L81.34 10.18Q80.58 10.18 80.06 9.95Q79.54 9.73 79.22 9.30Q78.91 8.88 78.78 8.27Q78.66 7.66 78.66 6.88L78.66 6.88L78.66 4.11L76.58 4.11L76.58 2.48L80.62 2.48L80.62 7.14Q80.62 7.81 80.87 8.14Q81.12 8.46 81.70 8.46L81.70 8.46Q81.97 8.46 82.35 8.39Q82.74 8.32 83.22 8.10L83.22 8.10ZM84.70 6.24L84.70 6.24Q84.70 5.42 84.96 4.70Q85.22 3.98 85.74 3.45Q86.27 2.91 87.08 2.60Q87.89 2.29 89.01 2.29L89.01 2.29Q89.68 2.29 90.22 2.38Q90.77 2.48 91.33 2.70L91.33 2.70L90.90 4.29Q90.58 4.18 90.18 4.09Q89.79 4 89.18 4L89.18 4Q88.48 4 88.01 4.17Q87.54 4.34 87.25 4.63Q86.96 4.93 86.83 5.34Q86.70 5.76 86.70 6.24L86.70 6.24Q86.70 7.28 87.29 7.87Q87.87 8.46 89.28 8.46L89.28 8.46Q89.74 8.46 90.25 8.40Q90.75 8.34 91.17 8.19L91.17 8.19L91.46 9.81Q91.04 9.97 90.45 10.07Q89.86 10.18 89.06 10.18L89.06 10.18Q87.90 10.18 87.08 9.87Q86.26 9.57 85.73 9.04Q85.20 8.51 84.95 7.79Q84.70 7.07 84.70 6.24Z"/></g></svg>