<?xml version="1.0" encoding="UTF-8"?>
<svg height="34" width="150.89999999999998" version="1.1" xmlns="http://www.w3.org/2000/svg"><!--Created by Josélio de S. C. Júnior - 2021 - https://github.com/joseliojunior -->
    <defs>
        <pattern id="pattern"
                x="3" y="3" width="6" height="6"
                patternUnits="userSpaceOnUse"
                patternTransform="rotate(45)" >
            <rect height="6" width="6"
                fill="#ffffff"/>
            <line x1="0" y1="0" x2="0" y2="6"
                stroke="#888888"
                stroke-width="2" />
        </pattern>
    </defs>
    <rect
        height="32"
        width="148.89999999999998"
        rx="16"
        ry="16"
        x="1" y="1"
        fill="url(#pattern)" />
    <g transform="translate(0, 12)">
        <path fill="#000000" d="M25.14-3.02L25.14-3.02Q26.41-3.02 27.44-2.74Q28.47-2.45 29.22-1.85Q29.96-1.25 30.36-0.32Q30.75 0.60 30.75 1.85L30.75 1.85Q30.75 3.14 30.22 4.20Q29.70 5.26 28.47 5.81L28.47 5.81Q28.88 6.43 29.34 7.19Q29.79 7.94 30.22 8.77Q30.66 9.60 31.05 10.43Q31.45 11.26 31.74 12L31.74 12L28.64 12Q28.09 10.56 27.36 9.23Q26.62 7.90 25.78 6.53L25.78 6.53L24.25 6.53L24.25 12L21.30 12L21.30-2.64Q21.73-2.74 22.24-2.82Q22.76-2.90 23.29-2.94Q23.82-2.98 24.30-3Q24.78-3.02 25.14-3.02ZM27.75 1.82L27.75 1.82Q27.75 0.65 27.03 0.10Q26.31-0.46 25.14-0.46L25.14-0.46Q24.97-0.46 24.73-0.44Q24.49-0.43 24.25-0.38L24.25-0.38L24.25 4.08L24.90 4.08Q26.41 4.08 27.08 3.49Q27.75 2.90 27.75 1.82ZM43.04 12L33.51 12L33.51-2.86L42.51-2.86L42.51-0.41L36.46-0.41L36.46 2.93L41.72 2.93L41.72 5.38L36.46 5.38L36.46 9.55L43.04 9.55L43.04 12ZM55.78 12L52.62 12L51.92 8.57L47.96 8.57L47.29 12L44.22 12Q45.27 7.61 46.35 4.00Q47.43 0.38 48.44-2.86L48.44-2.86L51.66-2.86Q52.71 0.41 53.76 4.07Q54.80 7.73 55.78 12L55.78 12ZM49.98 0.02L49.98 0.02Q49.74 0.86 49.53 1.62Q49.33 2.38 49.15 3.11Q48.97 3.84 48.81 4.58Q48.66 5.33 48.51 6.12L48.51 6.12L51.42 6.12Q51.27 5.33 51.13 4.58Q50.98 3.84 50.80 3.11Q50.62 2.38 50.42 1.62Q50.22 0.86 49.98 0.02ZM67.04 9.55L67.04 12L57.70 12L57.70-2.86L60.68-2.86L60.68 9.55L67.04 9.55ZM76.28 6.29L76.28 6.29Q76.28 4.70 75.76 3.86Q75.25 3.02 74.19 3.02L74.19 3.02Q73.71 3.02 73.24 3.16Q72.78 3.29 72.44 3.48L72.44 3.48L72.44 9.60Q72.78 9.67 73.15 9.70Q73.52 9.72 73.78 9.72L73.78 9.72Q74.94 9.72 75.61 8.94Q76.28 8.16 76.28 6.29ZM79.28 6.36L79.28 6.36Q79.28 7.70 78.92 8.80Q78.56 9.89 77.86 10.66Q77.17 11.42 76.16 11.84Q75.15 12.26 73.86 12.26L73.86 12.26Q72.70 12.26 71.50 12.10Q70.30 11.93 69.49 11.66L69.49 11.66L69.49-4.15L72.44-4.66L72.44 0.98Q73.06 0.70 73.64 0.59Q74.22 0.48 74.79 0.48L74.79 0.48Q75.90 0.48 76.74 0.90Q77.58 1.32 78.14 2.10Q78.70 2.88 78.99 3.96Q79.28 5.04 79.28 6.36ZM86.02 9.89L86.02 9.89Q86.50 9.89 86.96 9.88Q87.42 9.86 87.75 9.82L87.75 9.82L87.75 7.22Q87.46 7.18 87.06 7.14Q86.65 7.10 86.31 7.10L86.31 7.10Q85.86 7.10 85.42 7.16Q84.99 7.22 84.67 7.37Q84.34 7.51 84.15 7.78Q83.96 8.04 83.96 8.47L83.96 8.47Q83.96 9.24 84.54 9.56Q85.11 9.89 86.02 9.89ZM85.76 0.43L85.76 0.43Q87.15 0.43 88.08 0.76Q89 1.08 89.55 1.67Q90.10 2.26 90.34 3.11Q90.58 3.96 90.58 5.02L90.58 5.02L90.58 11.74Q89.94 11.88 88.66 12.07Q87.39 12.26 85.81 12.26L85.81 12.26Q84.73 12.26 83.85 12.07Q82.98 11.88 82.35 11.44Q81.73 10.99 81.39 10.28Q81.06 9.58 81.06 8.54L81.06 8.54Q81.06 7.56 81.44 6.89Q81.82 6.22 82.47 5.81Q83.12 5.40 83.96 5.22Q84.80 5.04 85.71 5.04L85.71 5.04Q86.86 5.04 87.75 5.23L87.75 5.23L87.75 4.87Q87.75 4.03 87.22 3.47Q86.70 2.90 85.40 2.90L85.40 2.90Q84.56 2.90 83.78 3.02Q83 3.14 82.52 3.31L82.52 3.31L82.11 0.94Q82.66 0.74 83.67 0.59Q84.68 0.43 85.76 0.43ZM97.47 9.77L97.47 9.77Q98.55 9.77 99.13 9.61Q99.70 9.46 99.70 8.98L99.70 8.98Q99.70 8.66 99.52 8.45Q99.34 8.23 99.02 8.08Q98.70 7.92 98.28 7.78Q97.86 7.63 97.40 7.49L97.40 7.49Q96.75 7.30 96.08 7.04Q95.41 6.79 94.86 6.41Q94.30 6.02 93.94 5.44Q93.58 4.85 93.58 3.96L93.58 3.96Q93.58 3.24 93.86 2.60Q94.14 1.97 94.72 1.48Q95.31 0.98 96.22 0.71Q97.14 0.43 98.41 0.43L98.41 0.43Q99.51 0.43 100.46 0.60Q101.41 0.77 102.10 1.08L102.10 1.08L101.65 3.58Q101.24 3.46 100.38 3.18Q99.51 2.90 98.43 2.90L98.43 2.90Q97.30 2.90 96.91 3.18Q96.51 3.46 96.51 3.77L96.51 3.77Q96.51 4.03 96.69 4.24Q96.87 4.44 97.17 4.61Q97.47 4.78 97.87 4.93Q98.26 5.09 98.72 5.23L98.72 5.23Q99.37 5.45 100.06 5.71Q100.76 5.98 101.32 6.37Q101.89 6.77 102.25 7.38Q102.61 7.99 102.61 8.88L102.61 8.88Q102.61 9.58 102.34 10.20Q102.08 10.82 101.47 11.28Q100.86 11.74 99.87 12Q98.89 12.26 97.45 12.26L97.45 12.26Q95.98 12.26 94.95 11.93Q93.92 11.59 93.30 11.33L93.30 11.33L93.75 8.86Q94.59 9.19 95.54 9.48Q96.49 9.77 97.47 9.77ZM110.82-2.52L110.82-2.52Q110.82-1.66 110.26-1.15Q109.71-0.65 108.94-0.65L108.94-0.65Q108.18-0.65 107.64-1.15Q107.10-1.66 107.10-2.52L107.10-2.52Q107.10-3.41 107.64-3.91Q108.18-4.42 108.94-4.42L108.94-4.42Q109.71-4.42 110.26-3.91Q110.82-3.41 110.82-2.52ZM114.82 9.14L115.21 11.52Q114.30 11.95 113.49 12.11Q112.69 12.26 112.02 12.26L112.02 12.26Q110.86 12.26 110.08 11.93Q109.30 11.59 108.84 10.96Q108.37 10.32 108.18 9.41Q107.98 8.50 107.98 7.32L107.98 7.32L107.98 3.17L104.86 3.17L104.86 0.72L110.94 0.72L110.94 7.70Q110.94 8.71 111.31 9.20Q111.68 9.70 112.54 9.70L112.54 9.70Q112.95 9.70 113.53 9.59Q114.10 9.48 114.82 9.14L114.82 9.14ZM117.06 6.36L117.06 6.36Q117.06 5.14 117.44 4.06Q117.82 2.98 118.62 2.17Q119.41 1.37 120.62 0.90Q121.83 0.43 123.51 0.43L123.51 0.43Q124.52 0.43 125.34 0.58Q126.15 0.72 126.99 1.06L126.99 1.06L126.34 3.43Q125.86 3.26 125.28 3.13Q124.69 3 123.78 3L123.78 3Q122.72 3 122.01 3.25Q121.30 3.50 120.87 3.95Q120.44 4.39 120.25 5.02Q120.06 5.64 120.06 6.36L120.06 6.36Q120.06 7.92 120.93 8.81Q121.81 9.70 123.92 9.70L123.92 9.70Q124.62 9.70 125.37 9.60Q126.13 9.50 126.75 9.29L126.75 9.29L127.18 11.71Q126.56 11.95 125.67 12.11Q124.78 12.26 123.58 12.26L123.58 12.26Q121.86 12.26 120.62 11.81Q119.38 11.35 118.59 10.56Q117.80 9.77 117.43 8.69Q117.06 7.61 117.06 6.36Z"/>
    </g>
</svg>