<?xml version="1.0" encoding="UTF-8"?>
<svg height="26" width="98.69999999999999" version="1.1" xmlns="http://www.w3.org/2000/svg"><!--Created by Josélio de S. C. Júnior - 2021 - https://github.com/joseliojunior -->
    <rect
        height="24"
        width="96.69999999999999"
        rx="1"
        ry="1"
        x="1" y="1"
        fill="#0aa0ff"
        stroke="#004570"
        stroke-width="1" />
    <g transform="translate(0, 8)">
        <path fill="#004570" d="M27.26 10L25.68 10Q25.01 8.35 24.22 6.71Q23.42 5.07 22.51 3.42L22.51 3.42L22.51 10L20.74 10L20.74 0.10L22.32 0.10Q22.77 0.80 23.22 1.62Q23.66 2.45 24.09 3.26Q24.51 4.08 24.87 4.85Q25.23 5.62 25.49 6.19L25.49 6.19L25.49 0.10L27.26 0.10L27.26 10ZM28.50 6.30L28.50 6.30Q28.50 5.31 28.80 4.56Q29.10 3.81 29.60 3.30Q30.10 2.80 30.74 2.54Q31.38 2.29 32.05 2.29L32.05 2.29Q33.71 2.29 34.58 3.27Q35.44 4.26 35.44 6.14L35.44 6.14Q35.44 6.34 35.43 6.54Q35.42 6.75 35.41 6.88L35.41 6.88L30.53 6.88Q30.53 7.62 31.14 8.04Q31.74 8.46 32.70 8.46L32.70 8.46Q33.30 8.46 33.83 8.34Q34.37 8.21 34.74 8.08L34.74 8.08L35.01 9.76Q34.50 9.94 33.92 10.06Q33.34 10.18 32.62 10.18L32.62 10.18Q31.66 10.18 30.90 9.93Q30.14 9.68 29.61 9.19Q29.07 8.70 28.78 7.98Q28.50 7.26 28.50 6.30ZM30.53 5.52L33.54 5.52Q33.54 5.22 33.46 4.94Q33.38 4.66 33.20 4.43Q33.02 4.21 32.75 4.07Q32.48 3.94 32.08 3.94L32.08 3.94Q31.70 3.94 31.42 4.06Q31.14 4.19 30.95 4.42Q30.77 4.64 30.66 4.93Q30.56 5.22 30.53 5.52L30.53 5.52ZM38.29 7.20L38.29 4.11L36.58 4.11L36.58 2.48L38.29 2.48L38.29 0.59L40.26 0.27L40.26 2.48L43.41 2.48L43.41 4.11L40.26 4.11L40.26 7.15Q40.26 7.57 40.34 7.82Q40.42 8.08 40.56 8.22Q40.70 8.37 40.91 8.42Q41.12 8.46 41.38 8.46L41.38 8.46Q41.65 8.46 41.88 8.45Q42.11 8.43 42.33 8.39Q42.54 8.35 42.78 8.27Q43.01 8.19 43.28 8.06L43.28 8.06L43.55 9.76Q43.01 9.98 42.38 10.08Q41.74 10.18 41.15 10.18L41.15 10.18Q40.46 10.18 39.94 10.06Q39.41 9.95 39.04 9.63Q38.67 9.31 38.48 8.73Q38.29 8.14 38.29 7.20L38.29 7.20ZM51.36 8.37L51.36 10L45.14 10L45.14 0.10L47.12 0.10L47.12 8.37L51.36 8.37ZM56.54 0.32L56.54 0.32Q56.54 0.90 56.18 1.23Q55.81 1.57 55.30 1.57L55.30 1.57Q54.78 1.57 54.42 1.23Q54.06 0.90 54.06 0.32L54.06 0.32Q54.06-0.27 54.42-0.61Q54.78-0.94 55.30-0.94L55.30-0.94Q55.81-0.94 56.18-0.61Q56.54-0.27 56.54 0.32ZM59.22 8.10L59.47 9.68Q58.86 9.97 58.33 10.07Q57.79 10.18 57.34 10.18L57.34 10.18Q56.58 10.18 56.06 9.95Q55.54 9.73 55.22 9.30Q54.91 8.88 54.78 8.27Q54.66 7.66 54.66 6.88L54.66 6.88L54.66 4.11L52.58 4.11L52.58 2.48L56.62 2.48L56.62 7.14Q56.62 7.81 56.87 8.14Q57.12 8.46 57.70 8.46L57.70 8.46Q57.97 8.46 58.35 8.39Q58.74 8.32 59.22 8.10L59.22 8.10ZM61.01 10L61.01 2.72Q61.54 2.58 62.31 2.45Q63.09 2.32 64 2.32L64 2.32Q64.90 2.32 65.49 2.57Q66.08 2.82 66.42 3.27Q66.77 3.73 66.91 4.36Q67.06 4.99 67.06 5.76L67.06 5.76L67.06 10L65.09 10L65.09 6.02Q65.09 4.96 64.85 4.50Q64.61 4.03 63.87 4.03L63.87 4.03Q63.65 4.03 63.43 4.05Q63.22 4.06 62.98 4.10L62.98 4.10L62.98 10L61.01 10ZM70.40 2.48L72.06 4.83L73.60 2.48L75.60 2.48L73.17 6.10Q73.55 6.56 73.92 7.08Q74.29 7.60 74.62 8.13Q74.96 8.66 75.23 9.14Q75.50 9.62 75.70 10L75.70 10L73.65 10Q73.22 9.18 72.78 8.54Q72.35 7.90 71.97 7.39L71.97 7.39Q71.49 8.03 71.10 8.64Q70.72 9.25 70.32 10L70.32 10L68.32 10Q68.56 9.55 68.87 9.06Q69.18 8.58 69.53 8.07Q69.87 7.57 70.25 7.07Q70.62 6.58 70.98 6.13L70.98 6.13L68.34 2.48L70.40 2.48Z"/>
    </g>
</svg>