<?xml version="1.0" encoding="UTF-8"?>
<svg height="34" width="106.6" version="1.1" xmlns="http://www.w3.org/2000/svg">
    <rect
        height="32"
        width="104.6"
        rx="14"
        ry="14"
        x="1"
        y="1"
        fill="#0C4597"
        stroke="#4c90f0"
        stroke-width="1"
         />
    <g transform="translate(0, 14)">
        <path fill="#4c90f0" d="M16.50 8.48L16.50 8.48Q17.36 8.48 17.94 8.30Q18.51 8.12 18.85 7.79Q19.18 7.47 19.31 7.07Q19.44 6.66 19.44 6.24L19.44 6.24Q19.44 5.71 19.13 5.29Q18.82 4.87 18.34 4.55Q17.87 4.22 17.28 3.96Q16.69 3.69 16.10 3.47L16.10 3.47Q15.32 3.19 14.48 2.82Q13.64 2.46 12.95 1.90Q12.27 1.34 11.82 0.51Q11.37-0.31 11.37-1.54L11.37-1.54Q11.37-3.98 12.95-5.35Q14.54-6.72 17.31-6.72L17.31-6.72Q18.90-6.72 20.09-6.36Q21.28-6.00 22.10-5.55L22.10-5.55L21.09-2.89Q20.39-3.28 19.53-3.56Q18.68-3.84 17.56-3.84L17.56-3.84Q14.82-3.84 14.82-1.85L14.82-1.85Q14.82-1.35 15.10-0.97Q15.38-0.59 15.81-0.30Q16.24-0.00 16.79 0.22Q17.34 0.44 17.87 0.64L17.87 0.64Q18.68 0.95 19.56 1.33Q20.44 1.70 21.19 2.33Q21.93 2.96 22.40 3.90Q22.88 4.84 22.88 6.27L22.88 6.27Q22.88 8.70 21.30 10.03Q19.72 11.36 16.50 11.36L16.50 11.36Q14.34 11.36 13.05 10.90Q11.76 10.44 11.12 10.05L11.12 10.05L12.13 7.25Q12.88 7.70 13.93 8.09Q14.98 8.48 16.50 8.48ZM30.27-6.53L30.27-6.53Q33.58-6.53 35.40-5.17Q37.22-3.81 37.22-0.73L37.22-0.73Q37.22 2.38 35.38 3.76Q33.55 5.15 30.19 5.15L30.19 5.15L28.96 5.15L28.96 11L25.51 11L25.51-6.11Q26.02-6.22 26.65-6.30Q27.28-6.39 27.92-6.43Q28.56-6.47 29.18-6.50Q29.80-6.53 30.27-6.53ZM30.66-3.53L30.66-3.53Q30.36-3.53 29.81-3.52Q29.26-3.50 28.96-3.45L28.96-3.45L28.96 2.15L30.36 2.15Q32.01 2.15 32.85 1.49Q33.69 0.84 33.69-0.76L33.69-0.76Q33.69-2.27 32.86-2.90Q32.04-3.53 30.66-3.53ZM51.75 11L48.05 11L47.24 7.00L42.62 7.00L41.84 11L38.25 11Q39.48 5.88 40.74 1.66Q42.00-2.55 43.18-6.33L43.18-6.33L46.93-6.33Q48.16-2.52 49.38 1.75Q50.60 6.02 51.75 11L51.75 11ZM44.97-2.97L44.97-2.97Q44.69-1.99 44.45-1.11Q44.22-0.23 44.01 0.63Q43.80 1.48 43.61 2.35Q43.43 3.22 43.26 4.14L43.26 4.14L46.65 4.14Q46.48 3.22 46.32 2.35Q46.15 1.48 45.94 0.63Q45.73-0.23 45.49-1.11Q45.25-1.99 44.97-2.97ZM57.99-6.53L57.99-6.53Q59.48-6.53 60.68-6.19Q61.88-5.86 62.75-5.16Q63.62-4.46 64.08-3.38Q64.54-2.30 64.54-0.84L64.54-0.84Q64.54 0.67 63.93 1.90Q63.31 3.13 61.88 3.78L61.88 3.78Q62.36 4.50 62.89 5.39Q63.42 6.27 63.93 7.23Q64.43 8.20 64.89 9.17Q65.36 10.13 65.69 11L65.69 11L62.08 11Q61.44 9.32 60.58 7.77Q59.73 6.21 58.75 4.62L58.75 4.62L56.96 4.62L56.96 11L53.51 11L53.51-6.08Q54.02-6.19 54.62-6.29Q55.22-6.39 55.84-6.43Q56.45-6.47 57.01-6.50Q57.57-6.53 57.99-6.53ZM61.04-0.87L61.04-0.87Q61.04-2.24 60.20-2.89Q59.36-3.53 57.99-3.53L57.99-3.53Q57.80-3.53 57.52-3.52Q57.24-3.50 56.96-3.45L56.96-3.45L56.96 1.76L57.71 1.76Q59.48 1.76 60.26 1.07Q61.04 0.39 61.04-0.87ZM66.76 2.40L66.76 2.40Q66.76-2.08 68.41-4.36Q70.06-6.64 73-6.64L73-6.64Q76.05-6.64 77.65-4.36Q79.24-2.08 79.24 2.40L79.24 2.40Q79.24 6.32 77.98 8.58Q76.72 10.83 74.34 11.31L74.34 11.31Q74.65 12.01 75.84 12.47Q77.03 12.93 79.10 13.30L79.10 13.30L78.38 15.76Q75.10 15.31 73.43 14.26Q71.77 13.21 71.46 11.25L71.46 11.25Q69.19 10.69 67.97 8.47Q66.76 6.24 66.76 2.40ZM70.26 2.40L70.26 2.40Q70.26 3.66 70.35 4.76Q70.45 5.85 70.75 6.67Q71.04 7.50 71.57 7.98Q72.10 8.45 73 8.45L73 8.45Q73.87 8.45 74.41 7.98Q74.96 7.50 75.25 6.67Q75.55 5.85 75.65 4.76Q75.74 3.66 75.74 2.40L75.74 2.40Q75.74 1.14 75.65 0.04Q75.55-1.07 75.25-1.88Q74.96-2.69 74.43-3.17Q73.90-3.64 73-3.64L73-3.64Q72.10-3.64 71.57-3.17Q71.04-2.69 70.75-1.87Q70.45-1.04 70.35 0.05Q70.26 1.14 70.26 2.40ZM92.88 8.14L92.88 11L81.99 11L81.99-6.33L85.46-6.33L85.46 8.14L92.88 8.14Z"/>
    </g>
</svg>