<?xml version="1.0" encoding="UTF-8"?>
<svg height="26" width="90.6" version="1.1" xmlns="http://www.w3.org/2000/svg"><!--Created by Josélio de S. C. Júnior - 2021 - https://github.com/joseliojunior -->
    <rect
        height="24"
        width="88.6"
        rx="12"
        ry="12"
        x="1" y="1"
        fill="#0C4597"
        stroke="#4c90f0"
        stroke-width="1" />
    <g transform="translate(0, 8)">
        <path fill="#4c90f0" stroke="none" d="M23.71 8.56L23.71 8.56Q24.21 8.56 24.54 8.46Q24.86 8.35 25.06 8.17Q25.25 7.98 25.32 7.75Q25.39 7.52 25.39 7.28L25.39 7.28Q25.39 6.98 25.22 6.74Q25.04 6.50 24.77 6.31Q24.50 6.13 24.16 5.98Q23.82 5.82 23.49 5.70L23.49 5.70Q23.04 5.54 22.56 5.33Q22.08 5.12 21.69 4.80Q21.30 4.48 21.04 4.01Q20.78 3.54 20.78 2.83L20.78 2.83Q20.78 1.44 21.69 0.66Q22.59-0.13 24.18-0.13L24.18-0.13Q25.09-0.13 25.77 0.08Q26.45 0.29 26.91 0.54L26.91 0.54L26.34 2.06Q25.94 1.84 25.45 1.68Q24.96 1.52 24.32 1.52L24.32 1.52Q22.75 1.52 22.75 2.66L22.75 2.66Q22.75 2.94 22.91 3.16Q23.07 3.38 23.32 3.54Q23.57 3.71 23.88 3.84Q24.19 3.97 24.50 4.08L24.50 4.08Q24.96 4.26 25.46 4.47Q25.97 4.69 26.39 5.05Q26.82 5.41 27.09 5.94Q27.36 6.48 27.36 7.30L27.36 7.30Q27.36 8.69 26.46 9.45Q25.55 10.21 23.71 10.21L23.71 10.21Q22.48 10.21 21.74 9.94Q21.01 9.68 20.64 9.46L20.64 9.46L21.22 7.86Q21.65 8.11 22.25 8.34Q22.85 8.56 23.71 8.56ZM31.58-0.02L31.58-0.02Q33.47-0.02 34.51 0.76Q35.55 1.54 35.55 3.30L35.55 3.30Q35.55 5.07 34.50 5.86Q33.46 6.66 31.54 6.66L31.54 6.66L30.83 6.66L30.83 10L28.86 10L28.86 0.22Q29.15 0.16 29.51 0.11Q29.87 0.06 30.24 0.04Q30.61 0.02 30.96 0Q31.31-0.02 31.58-0.02ZM31.81 1.70L31.81 1.70Q31.63 1.70 31.32 1.70Q31.01 1.71 30.83 1.74L30.83 1.74L30.83 4.94L31.63 4.94Q32.58 4.94 33.06 4.57Q33.54 4.19 33.54 3.28L33.54 3.28Q33.54 2.42 33.06 2.06Q32.59 1.70 31.81 1.70ZM43.86 10L41.74 10L41.28 7.71L38.64 7.71L38.19 10L36.14 10Q36.85 7.07 37.57 4.66Q38.29 2.26 38.96 0.10L38.96 0.10L41.10 0.10Q41.81 2.27 42.50 4.71Q43.20 7.15 43.86 10L43.86 10ZM39.98 2.02L39.98 2.02Q39.82 2.58 39.69 3.08Q39.55 3.58 39.43 4.07Q39.31 4.56 39.21 5.06Q39.10 5.55 39.01 6.08L39.01 6.08L40.94 6.08Q40.85 5.55 40.75 5.06Q40.66 4.56 40.54 4.07Q40.42 3.58 40.28 3.08Q40.14 2.58 39.98 2.02ZM47.42-0.02L47.42-0.02Q48.27-0.02 48.96 0.18Q49.65 0.37 50.14 0.77Q50.64 1.17 50.90 1.78Q51.17 2.40 51.17 3.23L51.17 3.23Q51.17 4.10 50.82 4.80Q50.46 5.50 49.65 5.87L49.65 5.87Q49.92 6.29 50.22 6.79Q50.53 7.30 50.82 7.85Q51.10 8.40 51.37 8.95Q51.63 9.50 51.82 10L51.82 10L49.76 10Q49.39 9.04 48.90 8.15Q48.42 7.26 47.86 6.35L47.86 6.35L46.83 6.35L46.83 10L44.86 10L44.86 0.24Q45.15 0.18 45.50 0.12Q45.84 0.06 46.19 0.04Q46.54 0.02 46.86 0Q47.18-0.02 47.42-0.02ZM49.17 3.22L49.17 3.22Q49.17 2.43 48.69 2.06Q48.21 1.70 47.42 1.70L47.42 1.70Q47.31 1.70 47.15 1.70Q46.99 1.71 46.83 1.74L46.83 1.74L46.83 4.72L47.26 4.72Q48.27 4.72 48.72 4.33Q49.17 3.94 49.17 3.22ZM52.43 5.09L52.43 5.09Q52.43 2.53 53.38 1.22Q54.32-0.08 56-0.08L56-0.08Q57.74-0.08 58.66 1.22Q59.57 2.53 59.57 5.09L59.57 5.09Q59.57 7.33 58.85 8.62Q58.13 9.90 56.77 10.18L56.77 10.18Q56.94 10.58 57.62 10.84Q58.30 11.10 59.49 11.31L59.49 11.31L59.07 12.72Q57.20 12.46 56.25 11.86Q55.30 11.26 55.12 10.14L55.12 10.14Q53.82 9.82 53.13 8.55Q52.43 7.28 52.43 5.09ZM54.43 5.09L54.43 5.09Q54.43 5.81 54.49 6.43Q54.54 7.06 54.71 7.53Q54.88 8 55.18 8.27Q55.49 8.54 56 8.54L56 8.54Q56.50 8.54 56.81 8.27Q57.12 8 57.29 7.53Q57.46 7.06 57.51 6.43Q57.57 5.81 57.57 5.09L57.57 5.09Q57.57 4.37 57.51 3.74Q57.46 3.10 57.29 2.64Q57.12 2.18 56.82 1.90Q56.51 1.63 56 1.63L56 1.63Q55.49 1.63 55.18 1.90Q54.88 2.18 54.71 2.65Q54.54 3.12 54.49 3.74Q54.43 4.37 54.43 5.09ZM67.36 8.37L67.36 10L61.14 10L61.14 0.10L63.12 0.10L63.12 8.37L67.36 8.37Z"/>
    </g>
</svg>