<?xml version="1.0" encoding="UTF-8"?>
<svg height="34" width="114.6" version="1.1" xmlns="http://www.w3.org/2000/svg"><!--Created by Josélio de S. C. Júnior - 2021 - https://github.com/joseliojunior -->
    <rect
        height="32"
        width="112.6"
        rx="1"
        ry="1"
        x="1" y="1"
        fill="#0C4597"
        stroke="#4c90f0"
        stroke-width="1" />
    <g transform="translate(0, 12)">
        <path fill="#4c90f0" d="M25.57 9.84L25.57 9.84Q26.31 9.84 26.80 9.68Q27.30 9.53 27.58 9.25Q27.87 8.98 27.98 8.63Q28.09 8.28 28.09 7.92L28.09 7.92Q28.09 7.46 27.82 7.10Q27.56 6.74 27.15 6.47Q26.74 6.19 26.24 5.96Q25.74 5.74 25.23 5.54L25.23 5.54Q24.56 5.30 23.84 4.99Q23.12 4.68 22.53 4.20Q21.94 3.72 21.56 3.01Q21.18 2.30 21.18 1.25L21.18 1.25Q21.18-0.84 22.53-2.02Q23.89-3.19 26.26-3.19L26.26-3.19Q27.63-3.19 28.65-2.88Q29.67-2.57 30.37-2.18L30.37-2.18L29.50 0.10Q28.90-0.24 28.17-0.48Q27.44-0.72 26.48-0.72L26.48-0.72Q24.13-0.72 24.13 0.98L24.13 0.98Q24.13 1.42 24.37 1.74Q24.61 2.06 24.98 2.32Q25.35 2.57 25.82 2.76Q26.29 2.95 26.74 3.12L26.74 3.12Q27.44 3.38 28.20 3.71Q28.95 4.03 29.59 4.57Q30.22 5.11 30.63 5.92Q31.04 6.72 31.04 7.94L31.04 7.94Q31.04 10.03 29.68 11.17Q28.33 12.31 25.57 12.31L25.57 12.31Q23.72 12.31 22.62 11.92Q21.51 11.52 20.96 11.18L20.96 11.18L21.82 8.78Q22.47 9.17 23.37 9.50Q24.27 9.84 25.57 9.84ZM37.38-3.02L37.38-3.02Q40.21-3.02 41.77-1.86Q43.33-0.70 43.33 1.94L43.33 1.94Q43.33 4.61 41.76 5.80Q40.18 6.98 37.30 6.98L37.30 6.98L36.25 6.98L36.25 12L33.30 12L33.30-2.66Q33.73-2.76 34.27-2.83Q34.81-2.90 35.36-2.94Q35.91-2.98 36.44-3Q36.97-3.02 37.38-3.02ZM37.71-0.46L37.71-0.46Q37.45-0.46 36.98-0.44Q36.51-0.43 36.25-0.38L36.25-0.38L36.25 4.42L37.45 4.42Q38.86 4.42 39.58 3.85Q40.30 3.29 40.30 1.92L40.30 1.92Q40.30 0.62 39.60 0.08Q38.89-0.46 37.71-0.46ZM55.78 12L52.62 12L51.92 8.57L47.96 8.57L47.29 12L44.22 12Q45.27 7.61 46.35 4.00Q47.43 0.38 48.44-2.86L48.44-2.86L51.66-2.86Q52.71 0.41 53.76 4.07Q54.80 7.73 55.78 12L55.78 12ZM49.98 0.02L49.98 0.02Q49.74 0.86 49.53 1.62Q49.33 2.38 49.15 3.11Q48.97 3.84 48.81 4.58Q48.66 5.33 48.51 6.12L48.51 6.12L51.42 6.12Q51.27 5.33 51.13 4.58Q50.98 3.84 50.80 3.11Q50.62 2.38 50.42 1.62Q50.22 0.86 49.98 0.02ZM61.14-3.02L61.14-3.02Q62.41-3.02 63.44-2.74Q64.47-2.45 65.22-1.85Q65.96-1.25 66.36-0.32Q66.75 0.60 66.75 1.85L66.75 1.85Q66.75 3.14 66.22 4.20Q65.70 5.26 64.47 5.81L64.47 5.81Q64.88 6.43 65.34 7.19Q65.79 7.94 66.22 8.77Q66.66 9.60 67.05 10.43Q67.45 11.26 67.74 12L67.74 12L64.64 12Q64.09 10.56 63.36 9.23Q62.62 7.90 61.78 6.53L61.78 6.53L60.25 6.53L60.25 12L57.30 12L57.30-2.64Q57.73-2.74 58.24-2.82Q58.76-2.90 59.29-2.94Q59.82-2.98 60.30-3Q60.78-3.02 61.14-3.02ZM63.75 1.82L63.75 1.82Q63.75 0.65 63.03 0.10Q62.31-0.46 61.14-0.46L61.14-0.46Q60.97-0.46 60.73-0.44Q60.49-0.43 60.25-0.38L60.25-0.38L60.25 4.08L60.90 4.08Q62.41 4.08 63.08 3.49Q63.75 2.90 63.75 1.82ZM68.65 4.63L68.65 4.63Q68.65 0.79 70.06-1.16Q71.48-3.12 74-3.12L74-3.12Q76.62-3.12 77.98-1.16Q79.35 0.79 79.35 4.63L79.35 4.63Q79.35 7.99 78.27 9.92Q77.19 11.86 75.15 12.26L75.15 12.26Q75.42 12.86 76.44 13.26Q77.46 13.66 79.23 13.97L79.23 13.97L78.61 16.08Q75.80 15.70 74.37 14.80Q72.94 13.90 72.68 12.22L72.68 12.22Q70.74 11.74 69.69 9.83Q68.65 7.92 68.65 4.63ZM71.65 4.63L71.65 4.63Q71.65 5.71 71.73 6.65Q71.82 7.58 72.07 8.29Q72.32 9 72.78 9.41Q73.23 9.82 74 9.82L74 9.82Q74.74 9.82 75.21 9.41Q75.68 9 75.93 8.29Q76.18 7.58 76.27 6.65Q76.35 5.71 76.35 4.63L76.35 4.63Q76.35 3.55 76.27 2.60Q76.18 1.66 75.93 0.96Q75.68 0.26 75.22-0.14Q74.77-0.55 74-0.55L74-0.55Q73.23-0.55 72.78-0.14Q72.32 0.26 72.07 0.97Q71.82 1.68 71.73 2.62Q71.65 3.55 71.65 4.63ZM91.04 9.55L91.04 12L81.70 12L81.70-2.86L84.68-2.86L84.68 9.55L91.04 9.55Z"/>
    </g>
</svg>