<?xml version="1.0" encoding="UTF-8"?>
<svg height="26" width="74.4" version="1.1" xmlns="http://www.w3.org/2000/svg"><!--Created by Josélio de S. C. Júnior - 2021 - https://github.com/joseliojunior -->
    <rect
        height="24"
        width="72.4"
        rx="12"
        ry="12"
        x="1" y="1"
        fill="#d90e09"
        stroke="#450403"
        stroke-width="1" />
    <g transform="translate(0, 8)">
        <path fill="#450403" stroke="none" d="M23.42-0.02L23.42-0.02Q24.27-0.02 24.96 0.18Q25.65 0.37 26.14 0.77Q26.64 1.17 26.90 1.78Q27.17 2.40 27.17 3.23L27.17 3.23Q27.17 4.10 26.82 4.80Q26.46 5.50 25.65 5.87L25.65 5.87Q25.92 6.29 26.22 6.79Q26.53 7.30 26.82 7.85Q27.10 8.40 27.37 8.95Q27.63 9.50 27.82 10L27.82 10L25.76 10Q25.39 9.04 24.90 8.15Q24.42 7.26 23.86 6.35L23.86 6.35L22.83 6.35L22.83 10L20.86 10L20.86 0.24Q21.15 0.18 21.50 0.12Q21.84 0.06 22.19 0.04Q22.54 0.02 22.86 0Q23.18-0.02 23.42-0.02ZM25.17 3.22L25.17 3.22Q25.17 2.43 24.69 2.06Q24.21 1.70 23.42 1.70L23.42 1.70Q23.31 1.70 23.15 1.70Q22.99 1.71 22.83 1.74L22.83 1.74L22.83 4.72L23.26 4.72Q24.27 4.72 24.72 4.33Q25.17 3.94 25.17 3.22ZM35.36 10L29.01 10L29.01 0.10L35.01 0.10L35.01 1.73L30.98 1.73L30.98 3.95L34.48 3.95L34.48 5.58L30.98 5.58L30.98 8.37L35.36 8.37L35.36 10ZM43.82 10L41.70 10Q41.39 9.18 40.95 8.19Q40.51 7.20 40.03 6.21L40.03 6.21Q39.57 7.15 39.10 8.17Q38.64 9.18 38.30 10L38.30 10L36.18 10Q36.34 9.57 36.65 8.96Q36.96 8.35 37.34 7.65Q37.71 6.94 38.13 6.20Q38.54 5.46 38.93 4.77L38.93 4.77L36.34 0.10L38.46 0.10L40.03 3.26L41.68 0.10L43.66 0.10L41.14 4.72Q41.57 5.41 41.98 6.16Q42.40 6.91 42.76 7.62Q43.12 8.34 43.39 8.95Q43.66 9.57 43.82 10L43.82 10ZM51.82 10L49.70 10Q49.39 9.18 48.95 8.19Q48.51 7.20 48.03 6.21L48.03 6.21Q47.57 7.15 47.10 8.17Q46.64 9.18 46.30 10L46.30 10L44.18 10Q44.34 9.57 44.65 8.96Q44.96 8.35 45.34 7.65Q45.71 6.94 46.13 6.20Q46.54 5.46 46.93 4.77L46.93 4.77L44.34 0.10L46.46 0.10L48.03 3.26L49.68 0.10L51.66 0.10L49.14 4.72Q49.57 5.41 49.98 6.16Q50.40 6.91 50.76 7.62Q51.12 8.34 51.39 8.95Q51.66 9.57 51.82 10L51.82 10Z"/>
    </g>
</svg>