<?xml version="1.0" encoding="UTF-8"?><svg height="34" width="90.4" version="1.1" xmlns="http://www.w3.org/2000/svg"><!--Created by Josélio de S. C. Júnior - 2021 - https://github.com/joseliojunior --><rect height="32" width="88.4" rx="16" ry="16" x="1" y="1" fill="#d90e09" stroke="#450403" stroke-width="1" /><g transform="translate(0, 12)"><path fill="#450403" d="M25.14-3.02L25.14-3.02Q26.41-3.02 27.44-2.74Q28.47-2.45 29.22-1.85Q29.96-1.25 30.36-0.32Q30.75 0.60 30.75 1.85L30.75 1.85Q30.75 3.14 30.22 4.20Q29.70 5.26 28.47 5.81L28.47 5.81Q28.88 6.43 29.34 7.19Q29.79 7.94 30.22 8.77Q30.66 9.60 31.05 10.43Q31.45 11.26 31.74 12L31.74 12L28.64 12Q28.09 10.56 27.36 9.23Q26.62 7.90 25.78 6.53L25.78 6.53L24.25 6.53L24.25 12L21.30 12L21.30-2.64Q21.73-2.74 22.24-2.82Q22.76-2.90 23.29-2.94Q23.82-2.98 24.30-3Q24.78-3.02 25.14-3.02ZM27.75 1.82L27.75 1.82Q27.75 0.65 27.03 0.10Q26.31-0.46 25.14-0.46L25.14-0.46Q24.97-0.46 24.73-0.44Q24.49-0.43 24.25-0.38L24.25-0.38L24.25 4.08L24.90 4.08Q26.41 4.08 27.08 3.49Q27.75 2.90 27.75 1.82ZM43.04 12L33.51 12L33.51-2.86L42.51-2.86L42.51-0.41L36.46-0.41L36.46 2.93L41.72 2.93L41.72 5.38L36.46 5.38L36.46 9.55L43.04 9.55L43.04 12ZM55.74 12L52.54 12Q52.09 10.78 51.43 9.29Q50.77 7.80 50.05 6.31L50.05 6.31Q49.35 7.73 48.66 9.25Q47.96 10.78 47.46 12L47.46 12L44.26 12Q44.50 11.35 44.97 10.44Q45.44 9.53 46.00 8.47Q46.57 7.42 47.19 6.30Q47.82 5.18 48.39 4.15L48.39 4.15L44.50-2.86L47.70-2.86L50.05 1.90L52.52-2.86L55.50-2.86L51.70 4.08Q52.35 5.11 52.98 6.24Q53.60 7.37 54.14 8.44Q54.68 9.50 55.09 10.43Q55.50 11.35 55.74 12L55.74 12ZM67.74 12L64.54 12Q64.09 10.78 63.43 9.29Q62.77 7.80 62.05 6.31L62.05 6.31Q61.35 7.73 60.66 9.25Q59.96 10.78 59.46 12L59.46 12L56.26 12Q56.50 11.35 56.97 10.44Q57.44 9.53 58.00 8.47Q58.57 7.42 59.19 6.30Q59.82 5.18 60.39 4.15L60.39 4.15L56.50-2.86L59.70-2.86L62.05 1.90L64.52-2.86L67.50-2.86L63.70 4.08Q64.35 5.11 64.98 6.24Q65.60 7.37 66.14 8.44Q66.68 9.50 67.09 10.43Q67.50 11.35 67.74 12L67.74 12Z"/></g></svg>