<?xml version="1.0" encoding="UTF-8"?>
<svg height="26" width="147.3" version="1.1" xmlns="http://www.w3.org/2000/svg"><!--Created by Josélio de S. C. Júnior - 2021 - https://github.com/joseliojunior -->
    <defs>
        <pattern id="pattern"
                x="1.5" y="3" width="3" height="6"
                patternUnits="userSpaceOnUse"
                patternTransform="rotate(45)" >
            <rect height="6" width="1" fill="#999999"/>
        </pattern>
    </defs>
    <rect
        height="24"
        width="145.3"
        rx="12"
        ry="12"
        x="1" y="1"
        fill="url(#pattern)"
        stroke="#000000"
        stroke-width="1" />
    <g transform="translate(0, 8)">
        <path fill="#ffffff" stroke="#000000" d="M20.40 0.10L27.60 0.10L27.60 1.73L24.99 1.73L24.99 10L23.01 10L23.01 1.73L20.40 1.73L20.40 0.10ZM33.54 2.48L35.55 2.48Q35.25 3.54 34.97 4.55Q34.69 5.57 34.38 6.54Q34.08 7.50 33.74 8.43Q33.39 9.36 32.99 10.24L32.99 10.24Q32.69 10.88 32.39 11.34Q32.10 11.81 31.74 12.10Q31.38 12.40 30.94 12.54Q30.50 12.69 29.90 12.69L29.90 12.69Q29.41 12.69 29 12.61Q28.59 12.53 28.32 12.40L28.32 12.40L28.69 10.75Q29.01 10.90 29.26 10.95Q29.50 11.01 29.79 11.01L29.79 11.01Q30.37 11.01 30.72 10.62Q31.07 10.24 31.28 9.71L31.28 9.71Q30.58 8.30 29.87 6.49Q29.17 4.67 28.59 2.48L28.59 2.48L30.64 2.48Q30.78 3.07 30.97 3.74Q31.15 4.42 31.36 5.09Q31.57 5.76 31.80 6.41Q32.03 7.06 32.27 7.62L32.27 7.62Q32.43 7.06 32.61 6.41Q32.78 5.76 32.94 5.10Q33.10 4.43 33.26 3.76Q33.41 3.09 33.54 2.48L33.54 2.48ZM41.50 6.30L41.50 6.30Q41.50 5.30 41.10 4.65Q40.70 4 39.89 4L39.89 4Q39.66 4 39.41 4.02Q39.15 4.05 38.98 4.06L38.98 4.06L38.98 8.19Q39.17 8.32 39.49 8.40Q39.81 8.48 40.13 8.48L40.13 8.48Q40.83 8.48 41.17 7.91Q41.50 7.34 41.50 6.30ZM43.50 6.24L43.50 6.24Q43.50 7.10 43.31 7.83Q43.12 8.56 42.75 9.08Q42.38 9.60 41.82 9.89Q41.26 10.18 40.53 10.18L40.53 10.18Q39.78 10.18 38.98 9.81L38.98 9.81L38.98 12.64L37.01 12.64L37.01 2.72Q37.55 2.54 38.34 2.43Q39.14 2.32 39.90 2.32L39.90 2.32Q41.65 2.32 42.58 3.38Q43.50 4.43 43.50 6.24ZM44.50 6.30L44.50 6.30Q44.50 5.31 44.80 4.56Q45.10 3.81 45.60 3.30Q46.10 2.80 46.74 2.54Q47.38 2.29 48.05 2.29L48.05 2.29Q49.71 2.29 50.58 3.27Q51.44 4.26 51.44 6.14L51.44 6.14Q51.44 6.34 51.43 6.54Q51.42 6.75 51.41 6.88L51.41 6.88L46.53 6.88Q46.53 7.62 47.14 8.04Q47.74 8.46 48.70 8.46L48.70 8.46Q49.30 8.46 49.83 8.34Q50.37 8.21 50.74 8.08L50.74 8.08L51.01 9.76Q50.50 9.94 49.92 10.06Q49.34 10.18 48.62 10.18L48.62 10.18Q47.66 10.18 46.90 9.93Q46.14 9.68 45.61 9.19Q45.07 8.70 44.78 7.98Q44.50 7.26 44.50 6.30ZM46.53 5.52L49.54 5.52Q49.54 5.22 49.46 4.94Q49.38 4.66 49.20 4.43Q49.02 4.21 48.75 4.07Q48.48 3.94 48.08 3.94L48.08 3.94Q47.70 3.94 47.42 4.06Q47.14 4.19 46.95 4.42Q46.77 4.64 46.66 4.93Q46.56 5.22 46.53 5.52L46.53 5.52ZM67.36 8.37L67.36 10L61.14 10L61.14 0.10L63.12 0.10L63.12 8.37L67.36 8.37ZM72.02 8.59L72.02 8.59Q72.34 8.59 72.64 8.58Q72.94 8.58 73.17 8.54L73.17 8.54L73.17 6.82Q72.98 6.78 72.70 6.76Q72.43 6.74 72.21 6.74L72.21 6.74Q71.90 6.74 71.62 6.78Q71.33 6.82 71.11 6.91Q70.90 7.01 70.77 7.18Q70.64 7.36 70.64 7.65L70.64 7.65Q70.64 8.16 71.02 8.38Q71.41 8.59 72.02 8.59ZM71.84 2.29L71.84 2.29Q72.77 2.29 73.38 2.50Q74 2.72 74.37 3.11Q74.74 3.50 74.90 4.07Q75.06 4.64 75.06 5.34L75.06 5.34L75.06 9.82Q74.62 9.92 73.78 10.05Q72.93 10.18 71.87 10.18L71.87 10.18Q71.15 10.18 70.57 10.05Q69.98 9.92 69.57 9.62Q69.15 9.33 68.93 8.86Q68.70 8.38 68.70 7.70L68.70 7.70Q68.70 7.04 68.96 6.59Q69.22 6.14 69.65 5.87Q70.08 5.60 70.64 5.48Q71.20 5.36 71.81 5.36L71.81 5.36Q72.58 5.36 73.17 5.49L73.17 5.49L73.17 5.25Q73.17 4.69 72.82 4.31Q72.46 3.94 71.60 3.94L71.60 3.94Q71.04 3.94 70.52 4.02Q70 4.10 69.68 4.21L69.68 4.21L69.41 2.62Q69.78 2.50 70.45 2.39Q71.12 2.29 71.84 2.29ZM77.01 10L77.01 2.72Q77.54 2.58 78.31 2.45Q79.09 2.32 80 2.32L80 2.32Q80.90 2.32 81.49 2.57Q82.08 2.82 82.42 3.27Q82.77 3.73 82.91 4.36Q83.06 4.99 83.06 5.76L83.06 5.76L83.06 10L81.09 10L81.09 6.02Q81.09 4.96 80.85 4.50Q80.61 4.03 79.87 4.03L79.87 4.03Q79.65 4.03 79.43 4.05Q79.22 4.06 78.98 4.10L78.98 4.10L78.98 10L77.01 10ZM86.53 6L86.53 6Q86.53 6.93 86.86 7.42Q87.20 7.90 87.92 7.90L87.92 7.90Q88.24 7.90 88.52 7.82Q88.80 7.74 89.02 7.62L89.02 7.62L89.02 4Q88.80 3.95 88.62 3.94Q88.45 3.92 88.26 3.92L88.26 3.92Q86.53 3.92 86.53 6ZM91.01 2.72L91.01 9.09Q91.01 10.93 90.12 11.81Q89.23 12.69 87.26 12.69L87.26 12.69Q86.56 12.69 85.91 12.54Q85.26 12.40 84.67 12.21L84.67 12.21L85.04 10.54Q85.50 10.72 86.02 10.87Q86.53 11.02 87.30 11.02L87.30 11.02Q87.81 11.02 88.14 10.90Q88.48 10.78 88.67 10.58Q88.86 10.37 88.94 10.09Q89.02 9.81 89.02 9.49L89.02 9.49L89.02 9.18Q88.61 9.34 88.26 9.42Q87.92 9.50 87.52 9.50L87.52 9.50Q86.05 9.50 85.29 8.58Q84.53 7.65 84.53 6L84.53 6Q84.53 4.14 85.55 3.23Q86.58 2.32 88.34 2.32L88.34 2.32Q89.57 2.32 91.01 2.72L91.01 2.72ZM99.01 2.48L99.01 9.74Q98.46 9.89 97.69 10.03Q96.91 10.18 96 10.18L96 10.18Q95.07 10.18 94.48 9.92Q93.89 9.66 93.54 9.19Q93.20 8.72 93.07 8.08Q92.94 7.44 92.94 6.67L92.94 6.67L92.94 2.48L94.91 2.48L94.91 6.42Q94.91 7.46 95.16 7.96Q95.41 8.46 96.13 8.46L96.13 8.46Q96.58 8.46 97.02 8.38L97.02 8.38L97.02 2.48L99.01 2.48ZM104.02 8.59L104.02 8.59Q104.34 8.59 104.64 8.58Q104.94 8.58 105.17 8.54L105.17 8.54L105.17 6.82Q104.98 6.78 104.70 6.76Q104.43 6.74 104.21 6.74L104.21 6.74Q103.90 6.74 103.62 6.78Q103.33 6.82 103.11 6.91Q102.90 7.01 102.77 7.18Q102.64 7.36 102.64 7.65L102.64 7.65Q102.64 8.16 103.02 8.38Q103.41 8.59 104.02 8.59ZM103.84 2.29L103.84 2.29Q104.77 2.29 105.38 2.50Q106 2.72 106.37 3.11Q106.74 3.50 106.90 4.07Q107.06 4.64 107.06 5.34L107.06 5.34L107.06 9.82Q106.62 9.92 105.78 10.05Q104.93 10.18 103.87 10.18L103.87 10.18Q103.15 10.18 102.57 10.05Q101.98 9.92 101.57 9.62Q101.15 9.33 100.93 8.86Q100.70 8.38 100.70 7.70L100.70 7.70Q100.70 7.04 100.96 6.59Q101.22 6.14 101.65 5.87Q102.08 5.60 102.64 5.48Q103.20 5.36 103.81 5.36L103.81 5.36Q104.58 5.36 105.17 5.49L105.17 5.49L105.17 5.25Q105.17 4.69 104.82 4.31Q104.46 3.94 103.60 3.94L103.60 3.94Q103.04 3.94 102.52 4.02Q102 4.10 101.68 4.21L101.68 4.21L101.41 2.62Q101.78 2.50 102.45 2.39Q103.12 2.29 103.84 2.29ZM110.53 6L110.53 6Q110.53 6.93 110.86 7.42Q111.20 7.90 111.92 7.90L111.92 7.90Q112.24 7.90 112.52 7.82Q112.80 7.74 113.02 7.62L113.02 7.62L113.02 4Q112.80 3.95 112.62 3.94Q112.45 3.92 112.26 3.92L112.26 3.92Q110.53 3.92 110.53 6ZM115.01 2.72L115.01 9.09Q115.01 10.93 114.12 11.81Q113.23 12.69 111.26 12.69L111.26 12.69Q110.56 12.69 109.91 12.54Q109.26 12.40 108.67 12.21L108.67 12.21L109.04 10.54Q109.50 10.72 110.02 10.87Q110.53 11.02 111.30 11.02L111.30 11.02Q111.81 11.02 112.14 10.90Q112.48 10.78 112.67 10.58Q112.86 10.37 112.94 10.09Q113.02 9.81 113.02 9.49L113.02 9.49L113.02 9.18Q112.61 9.34 112.26 9.42Q111.92 9.50 111.52 9.50L111.52 9.50Q110.05 9.50 109.29 8.58Q108.53 7.65 108.53 6L108.53 6Q108.53 4.14 109.55 3.23Q110.58 2.32 112.34 2.32L112.34 2.32Q113.57 2.32 115.01 2.72L115.01 2.72ZM116.50 6.30L116.50 6.30Q116.50 5.31 116.80 4.56Q117.10 3.81 117.60 3.30Q118.10 2.80 118.74 2.54Q119.38 2.29 120.05 2.29L120.05 2.29Q121.71 2.29 122.58 3.27Q123.44 4.26 123.44 6.14L123.44 6.14Q123.44 6.34 123.43 6.54Q123.42 6.75 123.41 6.88L123.41 6.88L118.53 6.88Q118.53 7.62 119.14 8.04Q119.74 8.46 120.70 8.46L120.70 8.46Q121.30 8.46 121.83 8.34Q122.37 8.21 122.74 8.08L122.74 8.08L123.01 9.76Q122.50 9.94 121.92 10.06Q121.34 10.18 120.62 10.18L120.62 10.18Q119.66 10.18 118.90 9.93Q118.14 9.68 117.61 9.19Q117.07 8.70 116.78 7.98Q116.50 7.26 116.50 6.30ZM118.53 5.52L121.54 5.52Q121.54 5.22 121.46 4.94Q121.38 4.66 121.20 4.43Q121.02 4.21 120.75 4.07Q120.48 3.94 120.08 3.94L120.08 3.94Q119.70 3.94 119.42 4.06Q119.14 4.19 118.95 4.42Q118.77 4.64 118.66 4.93Q118.56 5.22 118.53 5.52L118.53 5.52Z"/>
    </g>
</svg>