<?xml version="1.0" encoding="UTF-8"?><svg height="26" width="98.7" version="1.1" xmlns="http://www.w3.org/2000/svg"><!--Created by Josélio de S. C. Júnior - 2021 - https://github.com/joseliojunior --><rect height="24" width="96.7" rx="1" ry="1" x="1" y="1" fill="#2af0ff" stroke="#00858f" stroke-width="1" /><g transform="translate(0, 8)"><path fill="#00858f" d="M27.36 10L21.01 10L21.01 0.10L27.01 0.10L27.01 1.73L22.98 1.73L22.98 3.95L26.48 3.95L26.48 5.58L22.98 5.58L22.98 8.37L27.36 8.37L27.36 10ZM32.02 8.59L32.02 8.59Q32.34 8.59 32.64 8.58Q32.94 8.58 33.17 8.54L33.17 8.54L33.17 6.82Q32.98 6.78 32.70 6.76Q32.43 6.74 32.21 6.74L32.21 6.74Q31.90 6.74 31.62 6.78Q31.33 6.82 31.11 6.91Q30.90 7.01 30.77 7.18Q30.64 7.36 30.64 7.65L30.64 7.65Q30.64 8.16 31.02 8.38Q31.41 8.59 32.02 8.59ZM31.84 2.29L31.84 2.29Q32.77 2.29 33.38 2.50Q34 2.72 34.37 3.11Q34.74 3.50 34.90 4.07Q35.06 4.64 35.06 5.34L35.06 5.34L35.06 9.82Q34.62 9.92 33.78 10.05Q32.93 10.18 31.87 10.18L31.87 10.18Q31.15 10.18 30.57 10.05Q29.98 9.92 29.57 9.62Q29.15 9.33 28.93 8.86Q28.70 8.38 28.70 7.70L28.70 7.70Q28.70 7.04 28.96 6.59Q29.22 6.14 29.65 5.87Q30.08 5.60 30.64 5.48Q31.20 5.36 31.81 5.36L31.81 5.36Q32.58 5.36 33.17 5.49L33.17 5.49L33.17 5.25Q33.17 4.69 32.82 4.31Q32.46 3.94 31.60 3.94L31.60 3.94Q31.04 3.94 30.52 4.02Q30 4.10 29.68 4.21L29.68 4.21L29.41 2.62Q29.78 2.50 30.45 2.39Q31.12 2.29 31.84 2.29ZM43.34 2.66L42.99 4.48Q42.80 4.43 42.54 4.38Q42.27 4.34 42 4.30Q41.73 4.26 41.47 4.24Q41.22 4.22 41.04 4.22L41.04 4.22Q40.62 4.22 40.22 4.26Q39.82 4.30 39.41 4.42L39.41 4.42L39.41 10L37.42 10L37.42 2.98Q38.21 2.69 39.03 2.51Q39.86 2.34 40.96 2.34L40.96 2.34Q41.12 2.34 41.42 2.35Q41.71 2.37 42.05 2.41Q42.38 2.45 42.73 2.50Q43.07 2.56 43.34 2.66L43.34 2.66ZM46.29 7.20L46.29 4.11L44.58 4.11L44.58 2.48L46.29 2.48L46.29 0.59L48.26 0.27L48.26 2.48L51.41 2.48L51.41 4.11L48.26 4.11L48.26 7.15Q48.26 7.57 48.34 7.82Q48.42 8.08 48.56 8.22Q48.70 8.37 48.91 8.42Q49.12 8.46 49.38 8.46L49.38 8.46Q49.65 8.46 49.88 8.45Q50.11 8.43 50.33 8.39Q50.54 8.35 50.78 8.27Q51.01 8.19 51.28 8.06L51.28 8.06L51.55 9.76Q51.01 9.98 50.38 10.08Q49.74 10.18 49.15 10.18L49.15 10.18Q48.46 10.18 47.94 10.06Q47.41 9.95 47.04 9.63Q46.67 9.31 46.48 8.73Q46.29 8.14 46.29 7.20L46.29 7.20ZM54.98 10L53.01 10L53.01-0.77L54.98-1.10L54.98 2.54Q55.22 2.46 55.55 2.39Q55.89 2.32 56.14 2.32L56.14 2.32Q56.98 2.32 57.54 2.57Q58.10 2.82 58.43 3.27Q58.77 3.73 58.91 4.36Q59.06 4.99 59.06 5.76L59.06 5.76L59.06 10L57.09 10L57.09 6.02Q57.09 4.96 56.85 4.50Q56.61 4.03 55.94 4.03L55.94 4.03Q55.66 4.03 55.40 4.10Q55.14 4.16 54.98 4.21L54.98 4.21L54.98 10ZM67.22 8.10L67.47 9.68Q67.42 9.71 67.26 9.79Q67.09 9.87 66.82 9.96Q66.54 10.05 66.15 10.11Q65.76 10.18 65.26 10.18L65.26 10.18Q63.90 10.18 63.28 9.37Q62.66 8.56 62.66 7.01L62.66 7.01L62.66 0.62L60.58 0.62L60.58-1.01L64.62-1.01L64.62 7.15Q64.62 7.92 64.93 8.19Q65.23 8.46 65.70 8.46L65.70 8.46Q66.29 8.46 66.69 8.30Q67.09 8.14 67.22 8.10L67.22 8.10ZM73.54 2.48L75.55 2.48Q75.25 3.54 74.97 4.55Q74.69 5.57 74.38 6.54Q74.08 7.50 73.74 8.43Q73.39 9.36 72.99 10.24L72.99 10.24Q72.69 10.88 72.39 11.34Q72.10 11.81 71.74 12.10Q71.38 12.40 70.94 12.54Q70.50 12.69 69.90 12.69L69.90 12.69Q69.41 12.69 69 12.61Q68.59 12.53 68.32 12.40L68.32 12.40L68.69 10.75Q69.01 10.90 69.26 10.95Q69.50 11.01 69.79 11.01L69.79 11.01Q70.37 11.01 70.72 10.62Q71.07 10.24 71.28 9.71L71.28 9.71Q70.58 8.30 69.87 6.49Q69.17 4.67 68.59 2.48L68.59 2.48L70.64 2.48Q70.78 3.07 70.97 3.74Q71.15 4.42 71.36 5.09Q71.57 5.76 71.80 6.41Q72.03 7.06 72.27 7.62L72.27 7.62Q72.43 7.06 72.61 6.41Q72.78 5.76 72.94 5.10Q73.10 4.43 73.26 3.76Q73.41 3.09 73.54 2.48L73.54 2.48Z"/></g></svg>