<?xml version="1.0" encoding="UTF-8"?><svg height="34" width="126.7" version="1.1" xmlns="http://www.w3.org/2000/svg"><!--Created by Josélio de S. C. Júnior - 2021 - https://github.com/joseliojunior --><rect height="32" width="124.7" rx="1" ry="1" x="1" y="1" fill="#2af0ff" stroke="#00858f" stroke-width="1" /><g transform="translate(0, 12)"><path fill="#00858f" d="M31.04 12L21.51 12L21.51-2.86L30.51-2.86L30.51-0.41L24.46-0.41L24.46 2.93L29.72 2.93L29.72 5.38L24.46 5.38L24.46 9.55L31.04 9.55L31.04 12ZM38.02 9.89L38.02 9.89Q38.50 9.89 38.96 9.88Q39.42 9.86 39.75 9.82L39.75 9.82L39.75 7.22Q39.46 7.18 39.06 7.14Q38.65 7.10 38.31 7.10L38.31 7.10Q37.86 7.10 37.42 7.16Q36.99 7.22 36.67 7.37Q36.34 7.51 36.15 7.78Q35.96 8.04 35.96 8.47L35.96 8.47Q35.96 9.24 36.54 9.56Q37.11 9.89 38.02 9.89ZM37.76 0.43L37.76 0.43Q39.15 0.43 40.08 0.76Q41 1.08 41.55 1.67Q42.10 2.26 42.34 3.11Q42.58 3.96 42.58 5.02L42.58 5.02L42.58 11.74Q41.94 11.88 40.66 12.07Q39.39 12.26 37.81 12.26L37.81 12.26Q36.73 12.26 35.85 12.07Q34.98 11.88 34.35 11.44Q33.73 10.99 33.39 10.28Q33.06 9.58 33.06 8.54L33.06 8.54Q33.06 7.56 33.44 6.89Q33.82 6.22 34.47 5.81Q35.12 5.40 35.96 5.22Q36.80 5.04 37.71 5.04L37.71 5.04Q38.86 5.04 39.75 5.23L39.75 5.23L39.75 4.87Q39.75 4.03 39.22 3.47Q38.70 2.90 37.40 2.90L37.40 2.90Q36.56 2.90 35.78 3.02Q35 3.14 34.52 3.31L34.52 3.31L34.11 0.94Q34.66 0.74 35.67 0.59Q36.68 0.43 37.76 0.43ZM55.02 0.98L54.49 3.72Q54.20 3.65 53.80 3.58Q53.41 3.50 53 3.44Q52.59 3.38 52.21 3.36Q51.82 3.34 51.56 3.34L51.56 3.34Q50.94 3.34 50.34 3.40Q49.74 3.46 49.11 3.62L49.11 3.62L49.11 12L46.14 12L46.14 1.46Q47.31 1.03 48.55 0.77Q49.78 0.50 51.44 0.50L51.44 0.50Q51.68 0.50 52.12 0.53Q52.57 0.55 53.07 0.61Q53.58 0.67 54.09 0.76Q54.61 0.84 55.02 0.98L55.02 0.98ZM59.43 7.80L59.43 3.17L56.86 3.17L56.86 0.72L59.43 0.72L59.43-2.11L62.38-2.59L62.38 0.72L67.11 0.72L67.11 3.17L62.38 3.17L62.38 7.73Q62.38 8.35 62.50 8.74Q62.62 9.12 62.84 9.34Q63.06 9.55 63.37 9.62Q63.68 9.70 64.06 9.70L64.06 9.70Q64.47 9.70 64.82 9.67Q65.17 9.65 65.49 9.59Q65.82 9.53 66.16 9.41Q66.51 9.29 66.92 9.10L66.92 9.10L67.33 11.64Q66.51 11.98 65.56 12.12Q64.62 12.26 63.73 12.26L63.73 12.26Q62.70 12.26 61.90 12.10Q61.11 11.93 60.56 11.45Q60.01 10.97 59.72 10.09Q59.43 9.22 59.43 7.80L59.43 7.80ZM72.46 12L69.51 12L69.51-4.15L72.46-4.66L72.46 0.82Q72.82 0.70 73.33 0.59Q73.83 0.48 74.22 0.48L74.22 0.48Q75.46 0.48 76.30 0.85Q77.14 1.22 77.65 1.91Q78.15 2.59 78.37 3.54Q78.58 4.49 78.58 5.64L78.58 5.64L78.58 12L75.63 12L75.63 6.02Q75.63 4.44 75.27 3.74Q74.91 3.05 73.90 3.05L73.90 3.05Q73.50 3.05 73.10 3.14Q72.70 3.24 72.46 3.31L72.46 3.31L72.46 12ZM90.82 9.14L91.21 11.52Q91.14 11.57 90.88 11.69Q90.63 11.81 90.22 11.94Q89.82 12.07 89.23 12.17Q88.64 12.26 87.90 12.26L87.90 12.26Q85.86 12.26 84.92 11.05Q83.98 9.84 83.98 7.51L83.98 7.51L83.98-2.06L80.86-2.06L80.86-4.51L86.94-4.51L86.94 7.73Q86.94 8.88 87.39 9.29Q87.85 9.70 88.54 9.70L88.54 9.70Q89.43 9.70 90.03 9.46Q90.63 9.22 90.82 9.14L90.82 9.14ZM100.30 0.72L103.33 0.72Q102.87 2.30 102.45 3.83Q102.03 5.35 101.58 6.80Q101.12 8.26 100.60 9.65Q100.09 11.04 99.49 12.36L99.49 12.36Q99.03 13.32 98.59 14.02Q98.14 14.71 97.60 15.16Q97.06 15.60 96.40 15.82Q95.74 16.03 94.86 16.03L94.86 16.03Q94.11 16.03 93.50 15.91Q92.89 15.79 92.48 15.60L92.48 15.60L93.03 13.13Q93.51 13.34 93.88 13.43Q94.26 13.51 94.69 13.51L94.69 13.51Q95.55 13.51 96.08 12.94Q96.61 12.36 96.92 11.57L96.92 11.57Q95.86 9.46 94.81 6.73Q93.75 4.01 92.89 0.72L92.89 0.72L95.96 0.72Q96.18 1.61 96.45 2.62Q96.73 3.62 97.04 4.63Q97.35 5.64 97.70 6.61Q98.05 7.58 98.41 8.42L98.41 8.42Q98.65 7.58 98.91 6.61Q99.18 5.64 99.42 4.64Q99.66 3.65 99.88 2.64Q100.11 1.63 100.30 0.72L100.30 0.72Z"/></g></svg>