<?xml version="1.0" encoding="UTF-8"?>
<svg height="34" width="223.5" version="1.1" xmlns="http://www.w3.org/2000/svg"><!--Created by Josélio de S. C. Júnior - 2021 - https://github.com/joseliojunior -->
    <rect
        height="32"
        width="221.5"
        rx="16"
        ry="16"
        x="1" y="1"
        fill="#2f4aab"
        stroke="#0e1634"
        stroke-width="1" />
    <g transform="translate(0, 12)">
        <path fill="#0e1634" stroke="none" d="M31.74 12L28.40 12Q28.14 11.16 27.64 10.19Q27.15 9.22 26.55 8.29Q25.95 7.37 25.29 6.56Q24.63 5.76 24.03 5.21L24.03 5.21L24.03 12L21.08 12L21.08-2.86L24.03-2.86L24.03 3.31Q24.56 2.64 25.14 1.82Q25.71 1.01 26.23 0.19Q26.74-0.62 27.18-1.42Q27.61-2.21 27.90-2.86L27.90-2.86L31.23-2.86Q30.90-2.21 30.43-1.38Q29.96-0.55 29.36 0.35Q28.76 1.25 28.08 2.18Q27.39 3.12 26.65 3.98L26.65 3.98Q27.39 4.70 28.16 5.64Q28.93 6.58 29.61 7.64Q30.30 8.71 30.85 9.83Q31.40 10.94 31.74 12L31.74 12ZM38.82-2.52L38.82-2.52Q38.82-1.66 38.26-1.15Q37.71-0.65 36.94-0.65L36.94-0.65Q36.18-0.65 35.64-1.15Q35.10-1.66 35.10-2.52L35.10-2.52Q35.10-3.41 35.64-3.91Q36.18-4.42 36.94-4.42L36.94-4.42Q37.71-4.42 38.26-3.91Q38.82-3.41 38.82-2.52ZM42.82 9.14L43.21 11.52Q42.30 11.95 41.49 12.11Q40.69 12.26 40.02 12.26L40.02 12.26Q38.86 12.26 38.08 11.93Q37.30 11.59 36.84 10.96Q36.37 10.32 36.18 9.41Q35.98 8.50 35.98 7.32L35.98 7.32L35.98 3.17L32.86 3.17L32.86 0.72L38.94 0.72L38.94 7.70Q38.94 8.71 39.31 9.20Q39.68 9.70 40.54 9.70L40.54 9.70Q40.95 9.70 41.53 9.59Q42.10 9.48 42.82 9.14L42.82 9.14ZM51.10 12.31L51.10 12.31Q47.96 12.31 46.30 10.30Q44.65 8.28 44.65 4.56L44.65 4.56Q44.65 2.71 45.15 1.27Q45.66-0.17 46.56-1.16Q47.46-2.16 48.69-2.68Q49.93-3.19 51.39-3.19L51.39-3.19Q52.18-3.19 52.82-3.06Q53.46-2.93 53.94-2.76Q54.42-2.59 54.74-2.40Q55.06-2.21 55.23-2.11L55.23-2.11L54.46 0.24Q53.91-0.12 53.13-0.37Q52.35-0.62 51.34-0.62L51.34-0.62Q50.65-0.62 49.99-0.37Q49.33-0.12 48.81 0.47Q48.30 1.06 47.97 2.04Q47.65 3.02 47.65 4.49L47.65 4.49Q47.65 7.03 48.52 8.39Q49.40 9.74 51.39 9.74L51.39 9.74Q52.54 9.74 53.30 9.48Q54.06 9.22 54.51 8.95L54.51 8.95L55.26 11.28Q54.63 11.66 53.56 11.99Q52.50 12.31 51.10 12.31ZM62.02 9.89L62.02 9.89Q62.50 9.89 62.96 9.88Q63.42 9.86 63.75 9.82L63.75 9.82L63.75 7.22Q63.46 7.18 63.06 7.14Q62.65 7.10 62.31 7.10L62.31 7.10Q61.86 7.10 61.42 7.16Q60.99 7.22 60.67 7.37Q60.34 7.51 60.15 7.78Q59.96 8.04 59.96 8.47L59.96 8.47Q59.96 9.24 60.54 9.56Q61.11 9.89 62.02 9.89ZM61.76 0.43L61.76 0.43Q63.15 0.43 64.08 0.76Q65 1.08 65.55 1.67Q66.10 2.26 66.34 3.11Q66.58 3.96 66.58 5.02L66.58 5.02L66.58 11.74Q65.94 11.88 64.66 12.07Q63.39 12.26 61.81 12.26L61.81 12.26Q60.73 12.26 59.85 12.07Q58.98 11.88 58.35 11.44Q57.73 10.99 57.39 10.28Q57.06 9.58 57.06 8.54L57.06 8.54Q57.06 7.56 57.44 6.89Q57.82 6.22 58.47 5.81Q59.12 5.40 59.96 5.22Q60.80 5.04 61.71 5.04L61.71 5.04Q62.86 5.04 63.75 5.23L63.75 5.23L63.75 4.87Q63.75 4.03 63.22 3.47Q62.70 2.90 61.40 2.90L61.40 2.90Q60.56 2.90 59.78 3.02Q59 3.14 58.52 3.31L58.52 3.31L58.11 0.94Q58.66 0.74 59.67 0.59Q60.68 0.43 61.76 0.43ZM71.67 6.29L71.67 6.29Q71.67 7.80 72.24 8.76Q72.80 9.72 74.05 9.72L74.05 9.72Q74.41 9.72 74.72 9.70Q75.03 9.67 75.37 9.62L75.37 9.62L75.37 3.48Q75.03 3.29 74.60 3.16Q74.17 3.02 73.69 3.02L73.69 3.02Q72.63 3.02 72.15 3.86Q71.67 4.70 71.67 6.29ZM78.32-4.66L78.32 11.66Q77.50 11.93 76.33 12.10Q75.15 12.26 74.02 12.26L74.02 12.26Q71.38 12.26 70.03 10.70Q68.67 9.14 68.67 6.43L68.67 6.43Q68.67 3.67 69.81 2.08Q70.95 0.48 73.18 0.48L73.18 0.48Q73.78 0.48 74.36 0.61Q74.94 0.74 75.37 0.98L75.37 0.98L75.37-4.15L78.32-4.66ZM97.57 9.84L97.57 9.84Q98.31 9.84 98.80 9.68Q99.30 9.53 99.58 9.25Q99.87 8.98 99.98 8.63Q100.09 8.28 100.09 7.92L100.09 7.92Q100.09 7.46 99.82 7.10Q99.56 6.74 99.15 6.47Q98.74 6.19 98.24 5.96Q97.74 5.74 97.23 5.54L97.23 5.54Q96.56 5.30 95.84 4.99Q95.12 4.68 94.53 4.20Q93.94 3.72 93.56 3.01Q93.18 2.30 93.18 1.25L93.18 1.25Q93.18-0.84 94.53-2.02Q95.89-3.19 98.26-3.19L98.26-3.19Q99.63-3.19 100.65-2.88Q101.67-2.57 102.37-2.18L102.37-2.18L101.50 0.10Q100.90-0.24 100.17-0.48Q99.44-0.72 98.48-0.72L98.48-0.72Q96.13-0.72 96.13 0.98L96.13 0.98Q96.13 1.42 96.37 1.74Q96.61 2.06 96.98 2.32Q97.35 2.57 97.82 2.76Q98.29 2.95 98.74 3.12L98.74 3.12Q99.44 3.38 100.20 3.71Q100.95 4.03 101.59 4.57Q102.22 5.11 102.63 5.92Q103.04 6.72 103.04 7.94L103.04 7.94Q103.04 10.03 101.68 11.17Q100.33 12.31 97.57 12.31L97.57 12.31Q95.72 12.31 94.62 11.92Q93.51 11.52 92.96 11.18L92.96 11.18L93.82 8.78Q94.47 9.17 95.37 9.50Q96.27 9.84 97.57 9.84ZM105.06 6.36L105.06 6.36Q105.06 5.14 105.44 4.06Q105.82 2.98 106.62 2.17Q107.41 1.37 108.62 0.90Q109.83 0.43 111.51 0.43L111.51 0.43Q112.52 0.43 113.34 0.58Q114.15 0.72 114.99 1.06L114.99 1.06L114.34 3.43Q113.86 3.26 113.28 3.13Q112.69 3 111.78 3L111.78 3Q110.72 3 110.01 3.25Q109.30 3.50 108.87 3.95Q108.44 4.39 108.25 5.02Q108.06 5.64 108.06 6.36L108.06 6.36Q108.06 7.92 108.93 8.81Q109.81 9.70 111.92 9.70L111.92 9.70Q112.62 9.70 113.37 9.60Q114.13 9.50 114.75 9.29L114.75 9.29L115.18 11.71Q114.56 11.95 113.67 12.11Q112.78 12.26 111.58 12.26L111.58 12.26Q109.86 12.26 108.62 11.81Q107.38 11.35 106.59 10.56Q105.80 9.77 105.43 8.69Q105.06 7.61 105.06 6.36ZM120.46 12L117.51 12L117.51-4.15L120.46-4.66L120.46 0.82Q120.82 0.70 121.33 0.59Q121.83 0.48 122.22 0.48L122.22 0.48Q123.46 0.48 124.30 0.85Q125.14 1.22 125.65 1.91Q126.15 2.59 126.37 3.54Q126.58 4.49 126.58 5.64L126.58 5.64L126.58 12L123.63 12L123.63 6.02Q123.63 4.44 123.27 3.74Q122.91 3.05 121.90 3.05L121.90 3.05Q121.50 3.05 121.10 3.14Q120.70 3.24 120.46 3.31L120.46 3.31L120.46 12ZM128.74 6.46L128.74 6.46Q128.74 4.97 129.20 3.84Q129.66 2.71 130.40 1.96Q131.14 1.20 132.10 0.82Q133.06 0.43 134.07 0.43L134.07 0.43Q136.57 0.43 137.86 1.91Q139.16 3.38 139.16 6.22L139.16 6.22Q139.16 6.50 139.15 6.82Q139.14 7.13 139.11 7.32L139.11 7.32L131.79 7.32Q131.79 8.42 132.70 9.06Q133.62 9.70 135.06 9.70L135.06 9.70Q135.94 9.70 136.75 9.50Q137.55 9.31 138.10 9.12L138.10 9.12L138.51 11.64Q137.74 11.90 136.88 12.08Q136.02 12.26 134.94 12.26L134.94 12.26Q133.50 12.26 132.36 11.89Q131.22 11.52 130.41 10.79Q129.61 10.06 129.18 8.98Q128.74 7.90 128.74 6.46ZM131.79 5.28L136.30 5.28Q136.30 4.82 136.18 4.40Q136.06 3.98 135.80 3.65Q135.54 3.31 135.13 3.11Q134.72 2.90 134.12 2.90L134.12 2.90Q133.54 2.90 133.12 3.10Q132.70 3.29 132.43 3.62Q132.15 3.96 132.00 4.39Q131.84 4.82 131.79 5.28L131.79 5.28ZM148.23 0.60L148.23 0.60Q149.17 0.60 149.77 0.89Q150.37 1.18 150.72 1.75Q151.06 2.33 151.18 3.20Q151.30 4.08 151.30 5.26L151.30 5.26L151.30 12L148.90 12L148.90 5.11Q148.90 4.44 148.82 4.03Q148.74 3.62 148.60 3.41Q148.47 3.19 148.29 3.12Q148.11 3.05 147.92 3.05L147.92 3.05Q147.70 3.05 147.46 3.08Q147.22 3.12 147.03 3.22L147.03 3.22Q147.10 3.67 147.15 4.22Q147.20 4.78 147.20 5.45L147.20 5.45L147.20 7.70L144.80 7.70L144.80 5.11Q144.80 3.96 144.57 3.50Q144.34 3.05 143.84 3.05L143.84 3.05Q143.70 3.05 143.49 3.07Q143.29 3.10 143.10 3.14L143.10 3.14L143.10 12L140.70 12L140.70 1.15Q141.63 0.89 142.54 0.74Q143.46 0.60 144.15 0.60L144.15 0.60Q144.78 0.60 145.27 0.76Q145.76 0.91 146.12 1.27L146.12 1.27Q146.53 1.01 147.08 0.80Q147.63 0.60 148.23 0.60ZM158.02 9.89L158.02 9.89Q158.50 9.89 158.96 9.88Q159.42 9.86 159.75 9.82L159.75 9.82L159.75 7.22Q159.46 7.18 159.06 7.14Q158.65 7.10 158.31 7.10L158.31 7.10Q157.86 7.10 157.42 7.16Q156.99 7.22 156.67 7.37Q156.34 7.51 156.15 7.78Q155.96 8.04 155.96 8.47L155.96 8.47Q155.96 9.24 156.54 9.56Q157.11 9.89 158.02 9.89ZM157.76 0.43L157.76 0.43Q159.15 0.43 160.08 0.76Q161 1.08 161.55 1.67Q162.10 2.26 162.34 3.11Q162.58 3.96 162.58 5.02L162.58 5.02L162.58 11.74Q161.94 11.88 160.66 12.07Q159.39 12.26 157.81 12.26L157.81 12.26Q156.73 12.26 155.85 12.07Q154.98 11.88 154.35 11.44Q153.73 10.99 153.39 10.28Q153.06 9.58 153.06 8.54L153.06 8.54Q153.06 7.56 153.44 6.89Q153.82 6.22 154.47 5.81Q155.12 5.40 155.96 5.22Q156.80 5.04 157.71 5.04L157.71 5.04Q158.86 5.04 159.75 5.23L159.75 5.23L159.75 4.87Q159.75 4.03 159.22 3.47Q158.70 2.90 157.40 2.90L157.40 2.90Q156.56 2.90 155.78 3.02Q155 3.14 154.52 3.31L154.52 3.31L154.11 0.94Q154.66 0.74 155.67 0.59Q156.68 0.43 157.76 0.43ZM167.43 7.80L167.43 3.17L164.86 3.17L164.86 0.72L167.43 0.72L167.43-2.11L170.38-2.59L170.38 0.72L175.11 0.72L175.11 3.17L170.38 3.17L170.38 7.73Q170.38 8.35 170.50 8.74Q170.62 9.12 170.84 9.34Q171.06 9.55 171.37 9.62Q171.68 9.70 172.06 9.70L172.06 9.70Q172.47 9.70 172.82 9.67Q173.17 9.65 173.49 9.59Q173.82 9.53 174.16 9.41Q174.51 9.29 174.92 9.10L174.92 9.10L175.33 11.64Q174.51 11.98 173.56 12.12Q172.62 12.26 171.73 12.26L171.73 12.26Q170.70 12.26 169.90 12.10Q169.11 11.93 168.56 11.45Q168.01 10.97 167.72 10.09Q167.43 9.22 167.43 7.80L167.43 7.80ZM182.82-2.52L182.82-2.52Q182.82-1.66 182.26-1.15Q181.71-0.65 180.94-0.65L180.94-0.65Q180.18-0.65 179.64-1.15Q179.10-1.66 179.10-2.52L179.10-2.52Q179.10-3.41 179.64-3.91Q180.18-4.42 180.94-4.42L180.94-4.42Q181.71-4.42 182.26-3.91Q182.82-3.41 182.82-2.52ZM186.82 9.14L187.21 11.52Q186.30 11.95 185.49 12.11Q184.69 12.26 184.02 12.26L184.02 12.26Q182.86 12.26 182.08 11.93Q181.30 11.59 180.84 10.96Q180.37 10.32 180.18 9.41Q179.98 8.50 179.98 7.32L179.98 7.32L179.98 3.17L176.86 3.17L176.86 0.72L182.94 0.72L182.94 7.70Q182.94 8.71 183.31 9.20Q183.68 9.70 184.54 9.70L184.54 9.70Q184.95 9.70 185.53 9.59Q186.10 9.48 186.82 9.14L186.82 9.14ZM189.06 6.36L189.06 6.36Q189.06 5.14 189.44 4.06Q189.82 2.98 190.62 2.17Q191.41 1.37 192.62 0.90Q193.83 0.43 195.51 0.43L195.51 0.43Q196.52 0.43 197.34 0.58Q198.15 0.72 198.99 1.06L198.99 1.06L198.34 3.43Q197.86 3.26 197.28 3.13Q196.69 3 195.78 3L195.78 3Q194.72 3 194.01 3.25Q193.30 3.50 192.87 3.95Q192.44 4.39 192.25 5.02Q192.06 5.64 192.06 6.36L192.06 6.36Q192.06 7.92 192.93 8.81Q193.81 9.70 195.92 9.70L195.92 9.70Q196.62 9.70 197.37 9.60Q198.13 9.50 198.75 9.29L198.75 9.29L199.18 11.71Q198.56 11.95 197.67 12.11Q196.78 12.26 195.58 12.26L195.58 12.26Q193.86 12.26 192.62 11.81Q191.38 11.35 190.59 10.56Q189.80 9.77 189.43 8.69Q189.06 7.61 189.06 6.36Z"/>
    </g>
</svg>