<?xml version="1.0" encoding="UTF-8"?>
<svg height="26" width="163.5" version="1.1" xmlns="http://www.w3.org/2000/svg"><!--Created by Josélio de S. C. Júnior - 2021 - https://github.com/joseliojunior -->
    <rect
        height="24"
        width="161.5"
        rx="12"
        ry="12"
        x="1" y="1"
        fill="#2f4aab"
        stroke="#0e1634"
        stroke-width="1" />
    <g transform="translate(0, 8)">
        <path fill="#0e1634" d="M27.82 10L25.60 10Q25.42 9.44 25.10 8.79Q24.77 8.14 24.37 7.53Q23.97 6.91 23.53 6.38Q23.09 5.84 22.69 5.47L22.69 5.47L22.69 10L20.72 10L20.72 0.10L22.69 0.10L22.69 4.21Q23.04 3.76 23.42 3.22Q23.81 2.67 24.15 2.13Q24.50 1.58 24.78 1.06Q25.07 0.53 25.26 0.10L25.26 0.10L27.49 0.10Q27.26 0.53 26.95 1.08Q26.64 1.63 26.24 2.23Q25.84 2.83 25.38 3.46Q24.93 4.08 24.43 4.66L24.43 4.66Q24.93 5.14 25.44 5.76Q25.95 6.38 26.41 7.10Q26.86 7.81 27.23 8.55Q27.60 9.30 27.82 10L27.82 10ZM32.54 0.32L32.54 0.32Q32.54 0.90 32.18 1.23Q31.81 1.57 31.30 1.57L31.30 1.57Q30.78 1.57 30.42 1.23Q30.06 0.90 30.06 0.32L30.06 0.32Q30.06-0.27 30.42-0.61Q30.78-0.94 31.30-0.94L31.30-0.94Q31.81-0.94 32.18-0.61Q32.54-0.27 32.54 0.32ZM35.22 8.10L35.47 9.68Q34.86 9.97 34.33 10.07Q33.79 10.18 33.34 10.18L33.34 10.18Q32.58 10.18 32.06 9.95Q31.54 9.73 31.22 9.30Q30.91 8.88 30.78 8.27Q30.66 7.66 30.66 6.88L30.66 6.88L30.66 4.11L28.58 4.11L28.58 2.48L32.62 2.48L32.62 7.14Q32.62 7.81 32.87 8.14Q33.12 8.46 33.70 8.46L33.70 8.46Q33.97 8.46 34.35 8.39Q34.74 8.32 35.22 8.10L35.22 8.10ZM40.74 10.21L40.74 10.21Q38.64 10.21 37.54 8.86Q36.43 7.52 36.43 5.04L36.43 5.04Q36.43 3.81 36.77 2.85Q37.10 1.89 37.70 1.22Q38.30 0.56 39.13 0.22Q39.95-0.13 40.93-0.13L40.93-0.13Q41.46-0.13 41.88-0.04Q42.30 0.05 42.62 0.16Q42.94 0.27 43.16 0.40Q43.38 0.53 43.49 0.59L43.49 0.59L42.98 2.16Q42.61 1.92 42.09 1.75Q41.57 1.58 40.90 1.58L40.90 1.58Q40.43 1.58 39.99 1.75Q39.55 1.92 39.21 2.31Q38.86 2.70 38.65 3.36Q38.43 4.02 38.43 4.99L38.43 4.99Q38.43 6.69 39.02 7.59Q39.60 8.50 40.93 8.50L40.93 8.50Q41.70 8.50 42.20 8.32Q42.70 8.14 43.01 7.97L43.01 7.97L43.50 9.52Q43.09 9.78 42.38 9.99Q41.66 10.21 40.74 10.21ZM48.02 8.59L48.02 8.59Q48.34 8.59 48.64 8.58Q48.94 8.58 49.17 8.54L49.17 8.54L49.17 6.82Q48.98 6.78 48.70 6.76Q48.43 6.74 48.21 6.74L48.21 6.74Q47.90 6.74 47.62 6.78Q47.33 6.82 47.11 6.91Q46.90 7.01 46.77 7.18Q46.64 7.36 46.64 7.65L46.64 7.65Q46.64 8.16 47.02 8.38Q47.41 8.59 48.02 8.59ZM47.84 2.29L47.84 2.29Q48.77 2.29 49.38 2.50Q50 2.72 50.37 3.11Q50.74 3.50 50.90 4.07Q51.06 4.64 51.06 5.34L51.06 5.34L51.06 9.82Q50.62 9.92 49.78 10.05Q48.93 10.18 47.87 10.18L47.87 10.18Q47.15 10.18 46.57 10.05Q45.98 9.92 45.57 9.62Q45.15 9.33 44.93 8.86Q44.70 8.38 44.70 7.70L44.70 7.70Q44.70 7.04 44.96 6.59Q45.22 6.14 45.65 5.87Q46.08 5.60 46.64 5.48Q47.20 5.36 47.81 5.36L47.81 5.36Q48.58 5.36 49.17 5.49L49.17 5.49L49.17 5.25Q49.17 4.69 48.82 4.31Q48.46 3.94 47.60 3.94L47.60 3.94Q47.04 3.94 46.52 4.02Q46 4.10 45.68 4.21L45.68 4.21L45.41 2.62Q45.78 2.50 46.45 2.39Q47.12 2.29 47.84 2.29ZM54.45 6.19L54.45 6.19Q54.45 7.20 54.82 7.84Q55.20 8.48 56.03 8.48L56.03 8.48Q56.27 8.48 56.48 8.46Q56.69 8.45 56.91 8.42L56.91 8.42L56.91 4.32Q56.69 4.19 56.40 4.10Q56.11 4.02 55.79 4.02L55.79 4.02Q55.09 4.02 54.77 4.58Q54.45 5.14 54.45 6.19ZM58.88-1.10L58.88 9.78Q58.34 9.95 57.55 10.06Q56.77 10.18 56.02 10.18L56.02 10.18Q54.26 10.18 53.35 9.14Q52.45 8.10 52.45 6.29L52.45 6.29Q52.45 4.45 53.21 3.38Q53.97 2.32 55.46 2.32L55.46 2.32Q55.86 2.32 56.24 2.41Q56.62 2.50 56.91 2.66L56.91 2.66L56.91-0.77L58.88-1.10ZM71.71 8.56L71.71 8.56Q72.21 8.56 72.54 8.46Q72.86 8.35 73.06 8.17Q73.25 7.98 73.32 7.75Q73.39 7.52 73.39 7.28L73.39 7.28Q73.39 6.98 73.22 6.74Q73.04 6.50 72.77 6.31Q72.50 6.13 72.16 5.98Q71.82 5.82 71.49 5.70L71.49 5.70Q71.04 5.54 70.56 5.33Q70.08 5.12 69.69 4.80Q69.30 4.48 69.04 4.01Q68.78 3.54 68.78 2.83L68.78 2.83Q68.78 1.44 69.69 0.66Q70.59-0.13 72.18-0.13L72.18-0.13Q73.09-0.13 73.77 0.08Q74.45 0.29 74.91 0.54L74.91 0.54L74.34 2.06Q73.94 1.84 73.45 1.68Q72.96 1.52 72.32 1.52L72.32 1.52Q70.75 1.52 70.75 2.66L70.75 2.66Q70.75 2.94 70.91 3.16Q71.07 3.38 71.32 3.54Q71.57 3.71 71.88 3.84Q72.19 3.97 72.50 4.08L72.50 4.08Q72.96 4.26 73.46 4.47Q73.97 4.69 74.39 5.05Q74.82 5.41 75.09 5.94Q75.36 6.48 75.36 7.30L75.36 7.30Q75.36 8.69 74.46 9.45Q73.55 10.21 71.71 10.21L71.71 10.21Q70.48 10.21 69.74 9.94Q69.01 9.68 68.64 9.46L68.64 9.46L69.22 7.86Q69.65 8.11 70.25 8.34Q70.85 8.56 71.71 8.56ZM76.70 6.24L76.70 6.24Q76.70 5.42 76.96 4.70Q77.22 3.98 77.74 3.45Q78.27 2.91 79.08 2.60Q79.89 2.29 81.01 2.29L81.01 2.29Q81.68 2.29 82.22 2.38Q82.77 2.48 83.33 2.70L83.33 2.70L82.90 4.29Q82.58 4.18 82.18 4.09Q81.79 4 81.18 4L81.18 4Q80.48 4 80.01 4.17Q79.54 4.34 79.25 4.63Q78.96 4.93 78.83 5.34Q78.70 5.76 78.70 6.24L78.70 6.24Q78.70 7.28 79.29 7.87Q79.87 8.46 81.28 8.46L81.28 8.46Q81.74 8.46 82.25 8.40Q82.75 8.34 83.17 8.19L83.17 8.19L83.46 9.81Q83.04 9.97 82.45 10.07Q81.86 10.18 81.06 10.18L81.06 10.18Q79.90 10.18 79.08 9.87Q78.26 9.57 77.73 9.04Q77.20 8.51 76.95 7.79Q76.70 7.07 76.70 6.24ZM86.98 10L85.01 10L85.01-0.77L86.98-1.10L86.98 2.54Q87.22 2.46 87.55 2.39Q87.89 2.32 88.14 2.32L88.14 2.32Q88.98 2.32 89.54 2.57Q90.10 2.82 90.43 3.27Q90.77 3.73 90.91 4.36Q91.06 4.99 91.06 5.76L91.06 5.76L91.06 10L89.09 10L89.09 6.02Q89.09 4.96 88.85 4.50Q88.61 4.03 87.94 4.03L87.94 4.03Q87.66 4.03 87.40 4.10Q87.14 4.16 86.98 4.21L86.98 4.21L86.98 10ZM92.50 6.30L92.50 6.30Q92.50 5.31 92.80 4.56Q93.10 3.81 93.60 3.30Q94.10 2.80 94.74 2.54Q95.38 2.29 96.05 2.29L96.05 2.29Q97.71 2.29 98.58 3.27Q99.44 4.26 99.44 6.14L99.44 6.14Q99.44 6.34 99.43 6.54Q99.42 6.75 99.41 6.88L99.41 6.88L94.53 6.88Q94.53 7.62 95.14 8.04Q95.74 8.46 96.70 8.46L96.70 8.46Q97.30 8.46 97.83 8.34Q98.37 8.21 98.74 8.08L98.74 8.08L99.01 9.76Q98.50 9.94 97.92 10.06Q97.34 10.18 96.62 10.18L96.62 10.18Q95.66 10.18 94.90 9.93Q94.14 9.68 93.61 9.19Q93.07 8.70 92.78 7.98Q92.50 7.26 92.50 6.30ZM94.53 5.52L97.54 5.52Q97.54 5.22 97.46 4.94Q97.38 4.66 97.20 4.43Q97.02 4.21 96.75 4.07Q96.48 3.94 96.08 3.94L96.08 3.94Q95.70 3.94 95.42 4.06Q95.14 4.19 94.95 4.42Q94.77 4.64 94.66 4.93Q94.56 5.22 94.53 5.52L94.53 5.52ZM105.49 2.40L105.49 2.40Q106.11 2.40 106.51 2.59Q106.91 2.78 107.14 3.17Q107.38 3.55 107.46 4.14Q107.54 4.72 107.54 5.50L107.54 5.50L107.54 10L105.94 10L105.94 5.41Q105.94 4.96 105.88 4.69Q105.82 4.42 105.74 4.27Q105.65 4.13 105.53 4.08Q105.41 4.03 105.28 4.03L105.28 4.03Q105.14 4.03 104.98 4.06Q104.82 4.08 104.69 4.14L104.69 4.14Q104.74 4.45 104.77 4.82Q104.80 5.18 104.80 5.63L104.80 5.63L104.80 7.14L103.20 7.14L103.20 5.41Q103.20 4.64 103.05 4.34Q102.90 4.03 102.56 4.03L102.56 4.03Q102.46 4.03 102.33 4.05Q102.19 4.06 102.06 4.10L102.06 4.10L102.06 10L100.46 10L100.46 2.77Q101.09 2.59 101.70 2.50Q102.30 2.40 102.77 2.40L102.77 2.40Q103.18 2.40 103.51 2.50Q103.84 2.61 104.08 2.85L104.08 2.85Q104.35 2.67 104.72 2.54Q105.09 2.40 105.49 2.40ZM112.02 8.59L112.02 8.59Q112.34 8.59 112.64 8.58Q112.94 8.58 113.17 8.54L113.17 8.54L113.17 6.82Q112.98 6.78 112.70 6.76Q112.43 6.74 112.21 6.74L112.21 6.74Q111.90 6.74 111.62 6.78Q111.33 6.82 111.11 6.91Q110.90 7.01 110.77 7.18Q110.64 7.36 110.64 7.65L110.64 7.65Q110.64 8.16 111.02 8.38Q111.41 8.59 112.02 8.59ZM111.84 2.29L111.84 2.29Q112.77 2.29 113.38 2.50Q114 2.72 114.37 3.11Q114.74 3.50 114.90 4.07Q115.06 4.64 115.06 5.34L115.06 5.34L115.06 9.82Q114.62 9.92 113.78 10.05Q112.93 10.18 111.87 10.18L111.87 10.18Q111.15 10.18 110.57 10.05Q109.98 9.92 109.57 9.62Q109.15 9.33 108.93 8.86Q108.70 8.38 108.70 7.70L108.70 7.70Q108.70 7.04 108.96 6.59Q109.22 6.14 109.65 5.87Q110.08 5.60 110.64 5.48Q111.20 5.36 111.81 5.36L111.81 5.36Q112.58 5.36 113.17 5.49L113.17 5.49L113.17 5.25Q113.17 4.69 112.82 4.31Q112.46 3.94 111.60 3.94L111.60 3.94Q111.04 3.94 110.52 4.02Q110 4.10 109.68 4.21L109.68 4.21L109.41 2.62Q109.78 2.50 110.45 2.39Q111.12 2.29 111.84 2.29ZM118.29 7.20L118.29 4.11L116.58 4.11L116.58 2.48L118.29 2.48L118.29 0.59L120.26 0.27L120.26 2.48L123.41 2.48L123.41 4.11L120.26 4.11L120.26 7.15Q120.26 7.57 120.34 7.82Q120.42 8.08 120.56 8.22Q120.70 8.37 120.91 8.42Q121.12 8.46 121.38 8.46L121.38 8.46Q121.65 8.46 121.88 8.45Q122.11 8.43 122.33 8.39Q122.54 8.35 122.78 8.27Q123.01 8.19 123.28 8.06L123.28 8.06L123.55 9.76Q123.01 9.98 122.38 10.08Q121.74 10.18 121.15 10.18L121.15 10.18Q120.46 10.18 119.94 10.06Q119.41 9.95 119.04 9.63Q118.67 9.31 118.48 8.73Q118.29 8.14 118.29 7.20L118.29 7.20ZM128.54 0.32L128.54 0.32Q128.54 0.90 128.18 1.23Q127.81 1.57 127.30 1.57L127.30 1.57Q126.78 1.57 126.42 1.23Q126.06 0.90 126.06 0.32L126.06 0.32Q126.06-0.27 126.42-0.61Q126.78-0.94 127.30-0.94L127.30-0.94Q127.81-0.94 128.18-0.61Q128.54-0.27 128.54 0.32ZM131.22 8.10L131.47 9.68Q130.86 9.97 130.33 10.07Q129.79 10.18 129.34 10.18L129.34 10.18Q128.58 10.18 128.06 9.95Q127.54 9.73 127.22 9.30Q126.91 8.88 126.78 8.27Q126.66 7.66 126.66 6.88L126.66 6.88L126.66 4.11L124.58 4.11L124.58 2.48L128.62 2.48L128.62 7.14Q128.62 7.81 128.87 8.14Q129.12 8.46 129.70 8.46L129.70 8.46Q129.97 8.46 130.35 8.39Q130.74 8.32 131.22 8.10L131.22 8.10ZM132.70 6.24L132.70 6.24Q132.70 5.42 132.96 4.70Q133.22 3.98 133.74 3.45Q134.27 2.91 135.08 2.60Q135.89 2.29 137.01 2.29L137.01 2.29Q137.68 2.29 138.22 2.38Q138.77 2.48 139.33 2.70L139.33 2.70L138.90 4.29Q138.58 4.18 138.18 4.09Q137.79 4 137.18 4L137.18 4Q136.48 4 136.01 4.17Q135.54 4.34 135.25 4.63Q134.96 4.93 134.83 5.34Q134.70 5.76 134.70 6.24L134.70 6.24Q134.70 7.28 135.29 7.87Q135.87 8.46 137.28 8.46L137.28 8.46Q137.74 8.46 138.25 8.40Q138.75 8.34 139.17 8.19L139.17 8.19L139.46 9.81Q139.04 9.97 138.45 10.07Q137.86 10.18 137.06 10.18L137.06 10.18Q135.90 10.18 135.08 9.87Q134.26 9.57 133.73 9.04Q133.20 8.51 132.95 7.79Q132.70 7.07 132.70 6.24Z"/>
    </g>
</svg>