<?xml version="1.0" encoding="UTF-8"?>
<svg height="34" width="233.5" version="1.1" xmlns="http://www.w3.org/2000/svg">
    <rect
        height="32"
        width="231.5"
        rx="1"
        ry="1"
        x="1"
        y="1"
        fill="#2f4aab"
        stroke="#0e1634"
        stroke-width="1"
         />
    <g transform="translate(0, 14)">
        <path fill="#0e1634" d="M23.69 11L19.80 11Q19.49 10.02 18.92 8.89Q18.34 7.75 17.64 6.67Q16.94 5.60 16.17 4.66Q15.40 3.72 14.70 3.08L14.70 3.08L14.70 11L11.26 11L11.26-6.33L14.70-6.33L14.70 0.86Q15.32 0.08 15.99-0.87Q16.66-1.82 17.27-2.78Q17.87-3.73 18.37-4.65Q18.88-5.58 19.21-6.33L19.21-6.33L23.10-6.33Q22.71-5.58 22.17-4.61Q21.62-3.64 20.92-2.59Q20.22-1.54 19.42-0.45Q18.62 0.64 17.76 1.65L17.76 1.65Q18.62 2.49 19.52 3.58Q20.42 4.67 21.21 5.92Q22.01 7.16 22.66 8.47Q23.30 9.77 23.69 11L23.69 11ZM31.95-5.94L31.95-5.94Q31.95-4.93 31.31-4.34Q30.66-3.76 29.77-3.76L29.77-3.76Q28.87-3.76 28.24-4.34Q27.61-4.93 27.61-5.94L27.61-5.94Q27.61-6.98 28.24-7.56Q28.87-8.15 29.77-8.15L29.77-8.15Q30.66-8.15 31.31-7.56Q31.95-6.98 31.95-5.94ZM36.63 7.67L37.08 10.44Q36.01 10.94 35.07 11.13Q34.14 11.31 33.35 11.31L33.35 11.31Q32.01 11.31 31.10 10.92Q30.19 10.52 29.64 9.78Q29.10 9.04 28.87 7.98Q28.65 6.91 28.65 5.54L28.65 5.54L28.65 0.70L25.01 0.70L25.01-2.16L32.09-2.16L32.09 5.99Q32.09 7.16 32.53 7.74Q32.96 8.31 33.97 8.31L33.97 8.31Q34.44 8.31 35.12 8.19Q35.79 8.06 36.63 7.67L36.63 7.67ZM46.29 11.36L46.29 11.36Q42.62 11.36 40.69 9.01Q38.76 6.66 38.76 2.32L38.76 2.32Q38.76 0.16 39.34-1.52Q39.93-3.20 40.98-4.36Q42.03-5.52 43.47-6.12Q44.92-6.72 46.62-6.72L46.62-6.72Q47.55-6.72 48.29-6.57Q49.03-6.42 49.59-6.22Q50.15-6.02 50.53-5.80Q50.91-5.58 51.10-5.46L51.10-5.46L50.21-2.72Q49.56-3.14 48.65-3.43Q47.74-3.73 46.57-3.73L46.57-3.73Q45.76-3.73 44.99-3.43Q44.22-3.14 43.61-2.45Q43.01-1.77 42.63-0.62Q42.26 0.53 42.26 2.24L42.26 2.24Q42.26 5.20 43.28 6.79Q44.30 8.37 46.62 8.37L46.62 8.37Q47.97 8.37 48.85 8.06Q49.73 7.75 50.26 7.44L50.26 7.44L51.13 10.16Q50.40 10.61 49.16 10.99Q47.91 11.36 46.29 11.36ZM59.03 8.54L59.03 8.54Q59.59 8.54 60.12 8.52Q60.65 8.51 61.04 8.45L61.04 8.45L61.04 5.43Q60.71 5.37 60.23 5.33Q59.76 5.29 59.36 5.29L59.36 5.29Q58.83 5.29 58.33 5.36Q57.82 5.43 57.45 5.60Q57.07 5.76 56.84 6.07Q56.62 6.38 56.62 6.88L56.62 6.88Q56.62 7.78 57.29 8.16Q57.96 8.54 59.03 8.54ZM58.72-2.50L58.72-2.50Q60.34-2.50 61.42-2.12Q62.50-1.74 63.14-1.05Q63.79-0.37 64.07 0.63Q64.35 1.62 64.35 2.85L64.35 2.85L64.35 10.69Q63.59 10.86 62.11 11.08Q60.62 11.31 58.78 11.31L58.78 11.31Q57.52 11.31 56.49 11.08Q55.47 10.86 54.74 10.34Q54.02 9.82 53.62 9.00Q53.23 8.17 53.23 6.97L53.23 6.97Q53.23 5.82 53.68 5.04Q54.13 4.25 54.88 3.78Q55.64 3.30 56.62 3.09Q57.60 2.88 58.66 2.88L58.66 2.88Q60.01 2.88 61.04 3.10L61.04 3.10L61.04 2.68Q61.04 1.70 60.43 1.05Q59.81 0.39 58.30 0.39L58.30 0.39Q57.32 0.39 56.41 0.53Q55.50 0.67 54.94 0.86L54.94 0.86L54.46-1.91Q55.11-2.13 56.28-2.31Q57.46-2.50 58.72-2.50ZM70.28 4.34L70.28 4.34Q70.28 6.10 70.94 7.22Q71.60 8.34 73.06 8.34L73.06 8.34Q73.48 8.34 73.84 8.31Q74.20 8.28 74.60 8.23L74.60 8.23L74.60 1.06Q74.20 0.84 73.70 0.68Q73.20 0.53 72.64 0.53L72.64 0.53Q71.40 0.53 70.84 1.51Q70.28 2.49 70.28 4.34ZM78.04-8.43L78.04 10.61Q77.09 10.92 75.72 11.11Q74.34 11.31 73.03 11.31L73.03 11.31Q69.95 11.31 68.37 9.49Q66.78 7.67 66.78 4.50L66.78 4.50Q66.78 1.28 68.11-0.58Q69.44-2.44 72.05-2.44L72.05-2.44Q72.75-2.44 73.42-2.29Q74.09-2.13 74.60-1.85L74.60-1.85L74.60-7.84L78.04-8.43ZM100.50 8.48L100.50 8.48Q101.36 8.48 101.94 8.30Q102.51 8.12 102.85 7.79Q103.18 7.47 103.31 7.07Q103.44 6.66 103.44 6.24L103.44 6.24Q103.44 5.71 103.13 5.29Q102.82 4.87 102.34 4.55Q101.87 4.22 101.28 3.96Q100.69 3.69 100.10 3.47L100.10 3.47Q99.32 3.19 98.48 2.82Q97.64 2.46 96.95 1.90Q96.27 1.34 95.82 0.51Q95.37-0.31 95.37-1.54L95.37-1.54Q95.37-3.98 96.95-5.35Q98.54-6.72 101.31-6.72L101.31-6.72Q102.90-6.72 104.09-6.36Q105.28-6.00 106.10-5.55L106.10-5.55L105.09-2.89Q104.39-3.28 103.53-3.56Q102.68-3.84 101.56-3.84L101.56-3.84Q98.82-3.84 98.82-1.85L98.82-1.85Q98.82-1.35 99.10-0.97Q99.38-0.59 99.81-0.30Q100.24-0.00 100.79 0.22Q101.34 0.44 101.87 0.64L101.87 0.64Q102.68 0.95 103.56 1.33Q104.44 1.70 105.19 2.33Q105.93 2.96 106.40 3.90Q106.88 4.84 106.88 6.27L106.88 6.27Q106.88 8.70 105.30 10.03Q103.72 11.36 100.50 11.36L100.50 11.36Q98.34 11.36 97.05 10.90Q95.76 10.44 95.12 10.05L95.12 10.05L96.13 7.25Q96.88 7.70 97.93 8.09Q98.98 8.48 100.50 8.48ZM109.23 4.42L109.23 4.42Q109.23 2.99 109.68 1.73Q110.13 0.47 111.05-0.47Q111.98-1.40 113.39-1.95Q114.80-2.50 116.76-2.50L116.76-2.50Q117.94-2.50 118.89-2.33Q119.84-2.16 120.82-1.77L120.82-1.77L120.07 1.00Q119.51 0.81 118.82 0.65Q118.14 0.50 117.07 0.50L117.07 0.50Q115.84 0.50 115.01 0.79Q114.19 1.09 113.68 1.61Q113.18 2.12 112.96 2.85Q112.73 3.58 112.73 4.42L112.73 4.42Q112.73 6.24 113.75 7.28Q114.78 8.31 117.24 8.31L117.24 8.31Q118.05 8.31 118.93 8.20Q119.82 8.09 120.54 7.84L120.54 7.84L121.05 10.66Q120.32 10.94 119.28 11.13Q118.25 11.31 116.85 11.31L116.85 11.31Q114.83 11.31 113.39 10.78Q111.95 10.24 111.02 9.32Q110.10 8.40 109.67 7.14Q109.23 5.88 109.23 4.42ZM127.21 11L123.76 11L123.76-7.84L127.21-8.43L127.21-2.05Q127.63-2.19 128.22-2.31Q128.80-2.44 129.25-2.44L129.25-2.44Q130.71-2.44 131.69-2.01Q132.67-1.57 133.26-0.77Q133.84 0.02 134.10 1.13Q134.35 2.24 134.35 3.58L134.35 3.58L134.35 11L130.90 11L130.90 4.03Q130.90 2.18 130.48 1.37Q130.06 0.56 128.89 0.56L128.89 0.56Q128.41 0.56 127.95 0.67Q127.49 0.78 127.21 0.86L127.21 0.86L127.21 11ZM136.87 4.53L136.87 4.53Q136.87 2.80 137.40 1.48Q137.93 0.16 138.80-0.72Q139.67-1.60 140.79-2.05Q141.91-2.50 143.08-2.50L143.08-2.50Q146.00-2.50 147.51-0.77Q149.02 0.95 149.02 4.25L149.02 4.25Q149.02 4.59 149.01 4.95Q148.99 5.32 148.96 5.54L148.96 5.54L140.42 5.54Q140.42 6.83 141.49 7.57Q142.55 8.31 144.23 8.31L144.23 8.31Q145.27 8.31 146.21 8.09Q147.14 7.86 147.79 7.64L147.79 7.64L148.26 10.58Q147.37 10.89 146.36 11.10Q145.35 11.31 144.09 11.31L144.09 11.31Q142.41 11.31 141.08 10.87Q139.75 10.44 138.81 9.59Q137.88 8.73 137.37 7.47Q136.87 6.21 136.87 4.53ZM140.42 3.16L145.69 3.16Q145.69 2.63 145.55 2.14Q145.41 1.65 145.10 1.26Q144.79 0.86 144.32 0.63Q143.84 0.39 143.14 0.39L143.14 0.39Q142.47 0.39 141.98 0.61Q141.49 0.84 141.17 1.23Q140.84 1.62 140.66 2.12Q140.48 2.63 140.42 3.16L140.42 3.16ZM159.60-2.30L159.60-2.30Q160.70-2.30 161.40-1.96Q162.10-1.63 162.50-0.96Q162.91-0.28 163.05 0.74Q163.19 1.76 163.19 3.13L163.19 3.13L163.19 11L160.39 11L160.39 2.96Q160.39 2.18 160.29 1.70Q160.19 1.23 160.04 0.98Q159.88 0.72 159.67 0.64Q159.46 0.56 159.24 0.56L159.24 0.56Q158.99 0.56 158.71 0.60Q158.43 0.64 158.20 0.75L158.20 0.75Q158.29 1.28 158.34 1.93Q158.40 2.57 158.40 3.36L158.40 3.36L158.40 5.99L155.60 5.99L155.60 2.96Q155.60 1.62 155.33 1.09Q155.07 0.56 154.48 0.56L154.48 0.56Q154.31 0.56 154.07 0.58Q153.84 0.61 153.61 0.67L153.61 0.67L153.61 11L150.81 11L150.81-1.66Q151.90-1.96 152.97-2.13Q154.03-2.30 154.84-2.30L154.84-2.30Q155.57-2.30 156.15-2.12Q156.72-1.94 157.14-1.52L157.14-1.52Q157.62-1.82 158.26-2.06Q158.90-2.30 159.60-2.30ZM171.03 8.54L171.03 8.54Q171.59 8.54 172.12 8.52Q172.65 8.51 173.04 8.45L173.04 8.45L173.04 5.43Q172.71 5.37 172.23 5.33Q171.76 5.29 171.36 5.29L171.36 5.29Q170.83 5.29 170.33 5.36Q169.82 5.43 169.45 5.60Q169.07 5.76 168.84 6.07Q168.62 6.38 168.62 6.88L168.62 6.88Q168.62 7.78 169.29 8.16Q169.96 8.54 171.03 8.54ZM170.72-2.50L170.72-2.50Q172.34-2.50 173.42-2.12Q174.50-1.74 175.14-1.05Q175.79-0.37 176.07 0.63Q176.35 1.62 176.35 2.85L176.35 2.85L176.35 10.69Q175.59 10.86 174.11 11.08Q172.62 11.31 170.78 11.31L170.78 11.31Q169.52 11.31 168.49 11.08Q167.47 10.86 166.74 10.34Q166.02 9.82 165.62 9.00Q165.23 8.17 165.23 6.97L165.23 6.97Q165.23 5.82 165.68 5.04Q166.13 4.25 166.88 3.78Q167.64 3.30 168.62 3.09Q169.60 2.88 170.66 2.88L170.66 2.88Q172.01 2.88 173.04 3.10L173.04 3.10L173.04 2.68Q173.04 1.70 172.43 1.05Q171.81 0.39 170.30 0.39L170.30 0.39Q169.32 0.39 168.41 0.53Q167.50 0.67 166.94 0.86L166.94 0.86L166.46-1.91Q167.11-2.13 168.28-2.31Q169.46-2.50 170.72-2.50ZM182.00 6.10L182.00 0.70L179.01 0.70L179.01-2.16L182.00-2.16L182.00-5.46L185.45-6.02L185.45-2.16L190.96-2.16L190.96 0.70L185.45 0.70L185.45 6.02Q185.45 6.74 185.59 7.19Q185.73 7.64 185.98 7.89Q186.23 8.14 186.60 8.23Q186.96 8.31 187.41 8.31L187.41 8.31Q187.88 8.31 188.29 8.28Q188.70 8.26 189.07 8.19Q189.45 8.12 189.86 7.98Q190.26 7.84 190.74 7.61L190.74 7.61L191.22 10.58Q190.26 10.97 189.16 11.14Q188.05 11.31 187.02 11.31L187.02 11.31Q185.81 11.31 184.89 11.11Q183.96 10.92 183.32 10.36Q182.68 9.80 182.34 8.77Q182.00 7.75 182.00 6.10L182.00 6.10ZM199.95-5.94L199.95-5.94Q199.95-4.93 199.31-4.34Q198.66-3.76 197.77-3.76L197.77-3.76Q196.87-3.76 196.24-4.34Q195.61-4.93 195.61-5.94L195.61-5.94Q195.61-6.98 196.24-7.56Q196.87-8.15 197.77-8.15L197.77-8.15Q198.66-8.15 199.31-7.56Q199.95-6.98 199.95-5.94ZM204.63 7.67L205.08 10.44Q204.01 10.94 203.07 11.13Q202.14 11.31 201.35 11.31L201.35 11.31Q200.01 11.31 199.10 10.92Q198.19 10.52 197.64 9.78Q197.10 9.04 196.87 7.98Q196.65 6.91 196.65 5.54L196.65 5.54L196.65 0.70L193.01 0.70L193.01-2.16L200.09-2.16L200.09 5.99Q200.09 7.16 200.53 7.74Q200.96 8.31 201.97 8.31L201.97 8.31Q202.44 8.31 203.12 8.19Q203.79 8.06 204.63 7.67L204.63 7.67ZM207.23 4.42L207.23 4.42Q207.23 2.99 207.68 1.73Q208.13 0.47 209.05-0.47Q209.98-1.40 211.39-1.95Q212.80-2.50 214.76-2.50L214.76-2.50Q215.94-2.50 216.89-2.33Q217.84-2.16 218.82-1.77L218.82-1.77L218.07 1.00Q217.51 0.81 216.82 0.65Q216.14 0.50 215.07 0.50L215.07 0.50Q213.84 0.50 213.01 0.79Q212.19 1.09 211.68 1.61Q211.18 2.12 210.96 2.85Q210.73 3.58 210.73 4.42L210.73 4.42Q210.73 6.24 211.75 7.28Q212.78 8.31 215.24 8.31L215.24 8.31Q216.05 8.31 216.93 8.20Q217.82 8.09 218.54 7.84L218.54 7.84L219.05 10.66Q218.32 10.94 217.28 11.13Q216.25 11.31 214.85 11.31L214.85 11.31Q212.83 11.31 211.39 10.78Q209.95 10.24 209.02 9.32Q208.10 8.40 207.67 7.14Q207.23 5.88 207.23 4.42Z"/>
    </g>
</svg>