<?xml version="1.0" encoding="UTF-8"?>
<svg height="34" width="114.6" version="1.1" xmlns="http://www.w3.org/2000/svg"><!--Created by Josélio de S. C. Júnior - 2021 - https://github.com/joseliojunior -->
    <rect
        height="32"
        width="112.6"
        rx="16"
        ry="16"
        x="1" y="1"
        fill="#f0c040"
        stroke="#8e6b0b"
        stroke-width="1" />
    <g transform="translate(0, 12)">
        <path fill="#8e6b0b" stroke="none" d="M25.57 9.84L25.57 9.84Q26.31 9.84 26.80 9.68Q27.30 9.53 27.58 9.25Q27.87 8.98 27.98 8.63Q28.09 8.28 28.09 7.92L28.09 7.92Q28.09 7.46 27.82 7.10Q27.56 6.74 27.15 6.47Q26.74 6.19 26.24 5.96Q25.74 5.74 25.23 5.54L25.23 5.54Q24.56 5.30 23.84 4.99Q23.12 4.68 22.53 4.20Q21.94 3.72 21.56 3.01Q21.18 2.30 21.18 1.25L21.18 1.25Q21.18-0.84 22.53-2.02Q23.89-3.19 26.26-3.19L26.26-3.19Q27.63-3.19 28.65-2.88Q29.67-2.57 30.37-2.18L30.37-2.18L29.50 0.10Q28.90-0.24 28.17-0.48Q27.44-0.72 26.48-0.72L26.48-0.72Q24.13-0.72 24.13 0.98L24.13 0.98Q24.13 1.42 24.37 1.74Q24.61 2.06 24.98 2.32Q25.35 2.57 25.82 2.76Q26.29 2.95 26.74 3.12L26.74 3.12Q27.44 3.38 28.20 3.71Q28.95 4.03 29.59 4.57Q30.22 5.11 30.63 5.92Q31.04 6.72 31.04 7.94L31.04 7.94Q31.04 10.03 29.68 11.17Q28.33 12.31 25.57 12.31L25.57 12.31Q23.72 12.31 22.62 11.92Q21.51 11.52 20.96 11.18L20.96 11.18L21.82 8.78Q22.47 9.17 23.37 9.50Q24.27 9.84 25.57 9.84ZM40.23 0.60L40.23 0.60Q41.17 0.60 41.77 0.89Q42.37 1.18 42.72 1.75Q43.06 2.33 43.18 3.20Q43.30 4.08 43.30 5.26L43.30 5.26L43.30 12L40.90 12L40.90 5.11Q40.90 4.44 40.82 4.03Q40.74 3.62 40.60 3.41Q40.47 3.19 40.29 3.12Q40.11 3.05 39.92 3.05L39.92 3.05Q39.70 3.05 39.46 3.08Q39.22 3.12 39.03 3.22L39.03 3.22Q39.10 3.67 39.15 4.22Q39.20 4.78 39.20 5.45L39.20 5.45L39.20 7.70L36.80 7.70L36.80 5.11Q36.80 3.96 36.57 3.50Q36.34 3.05 35.84 3.05L35.84 3.05Q35.70 3.05 35.49 3.07Q35.29 3.10 35.10 3.14L35.10 3.14L35.10 12L32.70 12L32.70 1.15Q33.63 0.89 34.54 0.74Q35.46 0.60 36.15 0.60L36.15 0.60Q36.78 0.60 37.27 0.76Q37.76 0.91 38.12 1.27L38.12 1.27Q38.53 1.01 39.08 0.80Q39.63 0.60 40.23 0.60ZM50.02 9.89L50.02 9.89Q50.50 9.89 50.96 9.88Q51.42 9.86 51.75 9.82L51.75 9.82L51.75 7.22Q51.46 7.18 51.06 7.14Q50.65 7.10 50.31 7.10L50.31 7.10Q49.86 7.10 49.42 7.16Q48.99 7.22 48.67 7.37Q48.34 7.51 48.15 7.78Q47.96 8.04 47.96 8.47L47.96 8.47Q47.96 9.24 48.54 9.56Q49.11 9.89 50.02 9.89ZM49.76 0.43L49.76 0.43Q51.15 0.43 52.08 0.76Q53 1.08 53.55 1.67Q54.10 2.26 54.34 3.11Q54.58 3.96 54.58 5.02L54.58 5.02L54.58 11.74Q53.94 11.88 52.66 12.07Q51.39 12.26 49.81 12.26L49.81 12.26Q48.73 12.26 47.85 12.07Q46.98 11.88 46.35 11.44Q45.73 10.99 45.39 10.28Q45.06 9.58 45.06 8.54L45.06 8.54Q45.06 7.56 45.44 6.89Q45.82 6.22 46.47 5.81Q47.12 5.40 47.96 5.22Q48.80 5.04 49.71 5.04L49.71 5.04Q50.86 5.04 51.75 5.23L51.75 5.23L51.75 4.87Q51.75 4.03 51.22 3.47Q50.70 2.90 49.40 2.90L49.40 2.90Q48.56 2.90 47.78 3.02Q47 3.14 46.52 3.31L46.52 3.31L46.11 0.94Q46.66 0.74 47.67 0.59Q48.68 0.43 49.76 0.43ZM67.02 0.98L66.49 3.72Q66.20 3.65 65.80 3.58Q65.41 3.50 65 3.44Q64.59 3.38 64.21 3.36Q63.82 3.34 63.56 3.34L63.56 3.34Q62.94 3.34 62.34 3.40Q61.74 3.46 61.11 3.62L61.11 3.62L61.11 12L58.14 12L58.14 1.46Q59.31 1.03 60.55 0.77Q61.78 0.50 63.44 0.50L63.44 0.50Q63.68 0.50 64.12 0.53Q64.57 0.55 65.07 0.61Q65.58 0.67 66.09 0.76Q66.61 0.84 67.02 0.98L67.02 0.98ZM71.43 7.80L71.43 3.17L68.86 3.17L68.86 0.72L71.43 0.72L71.43-2.11L74.38-2.59L74.38 0.72L79.11 0.72L79.11 3.17L74.38 3.17L74.38 7.73Q74.38 8.35 74.50 8.74Q74.62 9.12 74.84 9.34Q75.06 9.55 75.37 9.62Q75.68 9.70 76.06 9.70L76.06 9.70Q76.47 9.70 76.82 9.67Q77.17 9.65 77.49 9.59Q77.82 9.53 78.16 9.41Q78.51 9.29 78.92 9.10L78.92 9.10L79.33 11.64Q78.51 11.98 77.56 12.12Q76.62 12.26 75.73 12.26L75.73 12.26Q74.70 12.26 73.90 12.10Q73.11 11.93 72.56 11.45Q72.01 10.97 71.72 10.09Q71.43 9.22 71.43 7.80L71.43 7.80ZM88.30 0.72L91.33 0.72Q90.87 2.30 90.45 3.83Q90.03 5.35 89.58 6.80Q89.12 8.26 88.60 9.65Q88.09 11.04 87.49 12.36L87.49 12.36Q87.03 13.32 86.59 14.02Q86.14 14.71 85.60 15.16Q85.06 15.60 84.40 15.82Q83.74 16.03 82.86 16.03L82.86 16.03Q82.11 16.03 81.50 15.91Q80.89 15.79 80.48 15.60L80.48 15.60L81.03 13.13Q81.51 13.34 81.88 13.43Q82.26 13.51 82.69 13.51L82.69 13.51Q83.55 13.51 84.08 12.94Q84.61 12.36 84.92 11.57L84.92 11.57Q83.86 9.46 82.81 6.73Q81.75 4.01 80.89 0.72L80.89 0.72L83.96 0.72Q84.18 1.61 84.45 2.62Q84.73 3.62 85.04 4.63Q85.35 5.64 85.70 6.61Q86.05 7.58 86.41 8.42L86.41 8.42Q86.65 7.58 86.91 6.61Q87.18 5.64 87.42 4.64Q87.66 3.65 87.88 2.64Q88.11 1.63 88.30 0.72L88.30 0.72Z"/>
    </g>
</svg>