<?xml version="1.0" encoding="UTF-8"?>
<svg height="34" width="148.89999999999998" version="1.1" xmlns="http://www.w3.org/2000/svg">
    <rect
        height="32"
        width="146.89999999999998"
        rx="1"
        ry="1"
        x="1"
        y="1"
        fill="#867db1"
        stroke="#3e375c"
        stroke-width="1"
         />
    <g transform="translate(0, 14)">
        <path fill="#3e375c" d="M15.21 11L11.76 11L11.76-6.33L22.38-6.33L22.38-3.48L15.21-3.48L15.21 0.72L21.48 0.72L21.48 3.58L15.21 3.58L15.21 11ZM36.85-1.85L36.24 1.34Q35.90 1.26 35.44 1.17Q34.98 1.09 34.50 1.02Q34.02 0.95 33.58 0.92Q33.13 0.89 32.82 0.89L32.82 0.89Q32.09 0.89 31.39 0.96Q30.69 1.03 29.96 1.23L29.96 1.23L29.96 11L26.49 11L26.49-1.29Q27.86-1.80 29.31-2.10Q30.75-2.41 32.68-2.41L32.68-2.41Q32.96-2.41 33.48-2.38Q34.00-2.36 34.58-2.29Q35.17-2.22 35.77-2.12Q36.38-2.02 36.85-1.85L36.85-1.85ZM38.87 4.53L38.87 4.53Q38.87 2.80 39.40 1.48Q39.93 0.16 40.80-0.72Q41.67-1.60 42.79-2.05Q43.91-2.50 45.08-2.50L45.08-2.50Q48.00-2.50 49.51-0.77Q51.02 0.95 51.02 4.25L51.02 4.25Q51.02 4.59 51.01 4.95Q50.99 5.32 50.96 5.54L50.96 5.54L42.42 5.54Q42.42 6.83 43.49 7.57Q44.55 8.31 46.23 8.31L46.23 8.31Q47.27 8.31 48.21 8.09Q49.14 7.86 49.79 7.64L49.79 7.64L50.26 10.58Q49.37 10.89 48.36 11.10Q47.35 11.31 46.09 11.31L46.09 11.31Q44.41 11.31 43.08 10.87Q41.75 10.44 40.81 9.59Q39.88 8.73 39.37 7.47Q38.87 6.21 38.87 4.53ZM42.42 3.16L47.69 3.16Q47.69 2.63 47.55 2.14Q47.41 1.65 47.10 1.26Q46.79 0.86 46.32 0.63Q45.84 0.39 45.14 0.39L45.14 0.39Q44.47 0.39 43.98 0.61Q43.49 0.84 43.17 1.23Q42.84 1.62 42.66 2.12Q42.48 2.63 42.42 3.16L42.42 3.16ZM52.87 4.53L52.87 4.53Q52.87 2.80 53.40 1.48Q53.93 0.16 54.80-0.72Q55.67-1.60 56.79-2.05Q57.91-2.50 59.08-2.50L59.08-2.50Q62.00-2.50 63.51-0.77Q65.02 0.95 65.02 4.25L65.02 4.25Q65.02 4.59 65.01 4.95Q64.99 5.32 64.96 5.54L64.96 5.54L56.42 5.54Q56.42 6.83 57.49 7.57Q58.55 8.31 60.23 8.31L60.23 8.31Q61.27 8.31 62.21 8.09Q63.14 7.86 63.79 7.64L63.79 7.64L64.26 10.58Q63.37 10.89 62.36 11.10Q61.35 11.31 60.09 11.31L60.09 11.31Q58.41 11.31 57.08 10.87Q55.75 10.44 54.81 9.59Q53.88 8.73 53.37 7.47Q52.87 6.21 52.87 4.53ZM56.42 3.16L61.69 3.16Q61.69 2.63 61.55 2.14Q61.41 1.65 61.10 1.26Q60.79 0.86 60.32 0.63Q59.84 0.39 59.14 0.39L59.14 0.39Q58.47 0.39 57.98 0.61Q57.49 0.84 57.17 1.23Q56.84 1.62 56.66 2.12Q56.48 2.63 56.42 3.16L56.42 3.16ZM79.13 5.76L79.13 5.76Q79.13 7.33 78.60 8.38Q78.07 9.43 77.16 10.06Q76.25 10.69 75.00 10.96Q73.76 11.22 72.33 11.22L72.33 11.22Q71.18 11.22 69.95 11.10Q68.72 10.97 67.51 10.72L67.51 10.72L67.51-6.11Q68.49-6.28 69.67-6.40Q70.84-6.53 71.99-6.53L71.99-6.53Q73.95-6.53 75.18-6.12Q76.42-5.72 77.12-5.06Q77.82-4.40 78.07-3.59Q78.32-2.78 78.32-1.96L78.32-1.96Q78.32-0.73 77.72 0.22Q77.12 1.17 76.11 1.73L76.11 1.73Q77.87 2.38 78.50 3.47Q79.13 4.56 79.13 5.76ZM72.80 3.41L70.96 3.41L70.96 8.12Q71.32 8.17 71.75 8.20Q72.19 8.23 72.61 8.23L72.61 8.23Q73.20 8.23 73.76 8.13Q74.32 8.03 74.75 7.77Q75.18 7.50 75.46 7.01Q75.74 6.52 75.74 5.76L75.74 5.76Q75.74 4.50 74.95 3.96Q74.15 3.41 72.80 3.41L72.80 3.41ZM70.96 0.56L72.30 0.56Q73.62 0.56 74.29-0.02Q74.96-0.59 74.96-1.60L74.96-1.60Q74.96-2.22 74.76-2.59Q74.57-2.97 74.23-3.18Q73.90-3.39 73.45-3.46Q73-3.53 72.52-3.53L72.52-3.53Q72.13-3.53 71.71-3.50Q71.29-3.48 70.96-3.42L70.96-3.42L70.96 0.56ZM87.03 8.54L87.03 8.54Q87.59 8.54 88.12 8.52Q88.65 8.51 89.04 8.45L89.04 8.45L89.04 5.43Q88.71 5.37 88.23 5.33Q87.76 5.29 87.36 5.29L87.36 5.29Q86.83 5.29 86.33 5.36Q85.82 5.43 85.45 5.60Q85.07 5.76 84.84 6.07Q84.62 6.38 84.62 6.88L84.62 6.88Q84.62 7.78 85.29 8.16Q85.96 8.54 87.03 8.54ZM86.72-2.50L86.72-2.50Q88.34-2.50 89.42-2.12Q90.50-1.74 91.14-1.05Q91.79-0.37 92.07 0.63Q92.35 1.62 92.35 2.85L92.35 2.85L92.35 10.69Q91.59 10.86 90.11 11.08Q88.62 11.31 86.78 11.31L86.78 11.31Q85.52 11.31 84.49 11.08Q83.47 10.86 82.74 10.34Q82.02 9.82 81.62 9.00Q81.23 8.17 81.23 6.97L81.23 6.97Q81.23 5.82 81.68 5.04Q82.13 4.25 82.88 3.78Q83.64 3.30 84.62 3.09Q85.60 2.88 86.66 2.88L86.66 2.88Q88.01 2.88 89.04 3.10L89.04 3.10L89.04 2.68Q89.04 1.70 88.43 1.05Q87.81 0.39 86.30 0.39L86.30 0.39Q85.32 0.39 84.41 0.53Q83.50 0.67 82.94 0.86L82.94 0.86L82.46-1.91Q83.11-2.13 84.28-2.31Q85.46-2.50 86.72-2.50ZM100.38 8.40L100.38 8.40Q101.64 8.40 102.32 8.21Q102.99 8.03 102.99 7.47L102.99 7.47Q102.99 7.11 102.78 6.86Q102.57 6.60 102.19 6.42Q101.81 6.24 101.32 6.07Q100.83 5.90 100.30 5.74L100.30 5.74Q99.54 5.51 98.76 5.22Q97.98 4.92 97.33 4.48Q96.69 4.03 96.27 3.34Q95.85 2.66 95.85 1.62L95.85 1.62Q95.85 0.78 96.17 0.04Q96.49-0.70 97.18-1.28Q97.86-1.85 98.93-2.17Q99.99-2.50 101.48-2.50L101.48-2.50Q102.76-2.50 103.87-2.30Q104.98-2.10 105.79-1.74L105.79-1.74L105.26 1.17Q104.78 1.03 103.77 0.71Q102.76 0.39 101.50 0.39L101.50 0.39Q100.19 0.39 99.73 0.71Q99.26 1.03 99.26 1.40L99.26 1.40Q99.26 1.70 99.47 1.94Q99.68 2.18 100.03 2.38Q100.38 2.57 100.85 2.75Q101.31 2.94 101.84 3.10L101.84 3.10Q102.60 3.36 103.41 3.66Q104.22 3.97 104.88 4.43Q105.54 4.90 105.96 5.61Q106.38 6.32 106.38 7.36L106.38 7.36Q106.38 8.17 106.07 8.90Q105.76 9.63 105.05 10.16Q104.33 10.69 103.18 11Q102.04 11.31 100.36 11.31L100.36 11.31Q98.65 11.31 97.44 10.92Q96.24 10.52 95.51 10.22L95.51 10.22L96.04 7.33Q97.02 7.72 98.13 8.06Q99.24 8.40 100.38 8.40ZM115.95-5.94L115.95-5.94Q115.95-4.93 115.31-4.34Q114.66-3.76 113.77-3.76L113.77-3.76Q112.87-3.76 112.24-4.34Q111.61-4.93 111.61-5.94L111.61-5.94Q111.61-6.98 112.24-7.56Q112.87-8.15 113.77-8.15L113.77-8.15Q114.66-8.15 115.31-7.56Q115.95-6.98 115.95-5.94ZM120.63 7.67L121.08 10.44Q120.01 10.94 119.07 11.13Q118.14 11.31 117.35 11.31L117.35 11.31Q116.01 11.31 115.10 10.92Q114.19 10.52 113.64 9.78Q113.10 9.04 112.87 7.98Q112.65 6.91 112.65 5.54L112.65 5.54L112.65 0.70L109.01 0.70L109.01-2.16L116.09-2.16L116.09 5.99Q116.09 7.16 116.53 7.74Q116.96 8.31 117.97 8.31L117.97 8.31Q118.44 8.31 119.12 8.19Q119.79 8.06 120.63 7.67L120.63 7.67ZM123.23 4.42L123.23 4.42Q123.23 2.99 123.68 1.73Q124.13 0.47 125.05-0.47Q125.98-1.40 127.39-1.95Q128.80-2.50 130.76-2.50L130.76-2.50Q131.94-2.50 132.89-2.33Q133.84-2.16 134.82-1.77L134.82-1.77L134.07 1.00Q133.51 0.81 132.82 0.65Q132.14 0.50 131.07 0.50L131.07 0.50Q129.84 0.50 129.01 0.79Q128.19 1.09 127.68 1.61Q127.18 2.12 126.96 2.85Q126.73 3.58 126.73 4.42L126.73 4.42Q126.73 6.24 127.75 7.28Q128.78 8.31 131.24 8.31L131.24 8.31Q132.05 8.31 132.93 8.20Q133.82 8.09 134.54 7.84L134.54 7.84L135.05 10.66Q134.32 10.94 133.28 11.13Q132.25 11.31 130.85 11.31L130.85 11.31Q128.83 11.31 127.39 10.78Q125.95 10.24 125.02 9.32Q124.10 8.40 123.67 7.14Q123.23 5.88 123.23 4.42Z"/>
    </g>
</svg>