<?xml version="1.0" encoding="UTF-8"?>
<svg height="34" width="78.4" version="1.1" xmlns="http://www.w3.org/2000/svg">
    <rect
        height="32"
        width="76.4"
        rx="14"
        ry="14"
        x="1"
        y="1"
        fill="#b2011d"
        stroke="#190004"
        stroke-width="1"
         />
    <g transform="translate(0, 14)">
        <path fill="#190004" d="M16.50 8.48L16.50 8.48Q17.36 8.48 17.94 8.30Q18.51 8.12 18.85 7.79Q19.18 7.47 19.31 7.07Q19.44 6.66 19.44 6.24L19.44 6.24Q19.44 5.71 19.13 5.29Q18.82 4.87 18.34 4.55Q17.87 4.22 17.28 3.96Q16.69 3.69 16.10 3.47L16.10 3.47Q15.32 3.19 14.48 2.82Q13.64 2.46 12.95 1.90Q12.27 1.34 11.82 0.51Q11.37-0.31 11.37-1.54L11.37-1.54Q11.37-3.98 12.95-5.35Q14.54-6.72 17.31-6.72L17.31-6.72Q18.90-6.72 20.09-6.36Q21.28-6.00 22.10-5.55L22.10-5.55L21.09-2.89Q20.39-3.28 19.53-3.56Q18.68-3.84 17.56-3.84L17.56-3.84Q14.82-3.84 14.82-1.85L14.82-1.85Q14.82-1.35 15.10-0.97Q15.38-0.59 15.81-0.30Q16.24-0.00 16.79 0.22Q17.34 0.44 17.87 0.64L17.87 0.64Q18.68 0.95 19.56 1.33Q20.44 1.70 21.19 2.33Q21.93 2.96 22.40 3.90Q22.88 4.84 22.88 6.27L22.88 6.27Q22.88 8.70 21.30 10.03Q19.72 11.36 16.50 11.36L16.50 11.36Q14.34 11.36 13.05 10.90Q11.76 10.44 11.12 10.05L11.12 10.05L12.13 7.25Q12.88 7.70 13.93 8.09Q14.98 8.48 16.50 8.48ZM28.00 6.10L28.00 0.70L25.01 0.70L25.01-2.16L28.00-2.16L28.00-5.46L31.45-6.02L31.45-2.16L36.96-2.16L36.96 0.70L31.45 0.70L31.45 6.02Q31.45 6.74 31.59 7.19Q31.73 7.64 31.98 7.89Q32.23 8.14 32.60 8.23Q32.96 8.31 33.41 8.31L33.41 8.31Q33.88 8.31 34.29 8.28Q34.70 8.26 35.07 8.19Q35.45 8.12 35.86 7.98Q36.26 7.84 36.74 7.61L36.74 7.61L37.22 10.58Q36.26 10.97 35.16 11.14Q34.05 11.31 33.02 11.31L33.02 11.31Q31.81 11.31 30.89 11.11Q29.96 10.92 29.32 10.36Q28.68 9.80 28.34 8.77Q28.00 7.75 28.00 6.10L28.00 6.10ZM45.03 8.54L45.03 8.54Q45.59 8.54 46.12 8.52Q46.65 8.51 47.04 8.45L47.04 8.45L47.04 5.43Q46.71 5.37 46.23 5.33Q45.76 5.29 45.36 5.29L45.36 5.29Q44.83 5.29 44.33 5.36Q43.82 5.43 43.45 5.60Q43.07 5.76 42.84 6.07Q42.62 6.38 42.62 6.88L42.62 6.88Q42.62 7.78 43.29 8.16Q43.96 8.54 45.03 8.54ZM44.72-2.50L44.72-2.50Q46.34-2.50 47.42-2.12Q48.50-1.74 49.14-1.05Q49.79-0.37 50.07 0.63Q50.35 1.62 50.35 2.85L50.35 2.85L50.35 10.69Q49.59 10.86 48.11 11.08Q46.62 11.31 44.78 11.31L44.78 11.31Q43.52 11.31 42.49 11.08Q41.47 10.86 40.74 10.34Q40.02 9.82 39.62 9.00Q39.23 8.17 39.23 6.97L39.23 6.97Q39.23 5.82 39.68 5.04Q40.13 4.25 40.88 3.78Q41.64 3.30 42.62 3.09Q43.60 2.88 44.66 2.88L44.66 2.88Q46.01 2.88 47.04 3.10L47.04 3.10L47.04 2.68Q47.04 1.70 46.43 1.05Q45.81 0.39 44.30 0.39L44.30 0.39Q43.32 0.39 42.41 0.53Q41.50 0.67 40.94 0.86L40.94 0.86L40.46-1.91Q41.11-2.13 42.28-2.31Q43.46-2.50 44.72-2.50ZM53.76 11L53.76-1.74Q54.69-1.99 56.05-2.22Q57.40-2.44 59-2.44L59-2.44Q60.57-2.44 61.60-2.01Q62.64-1.57 63.24-0.77Q63.84 0.02 64.10 1.13Q64.35 2.24 64.35 3.58L64.35 3.58L64.35 11L60.90 11L60.90 4.03Q60.90 2.18 60.48 1.37Q60.06 0.56 58.78 0.56L58.78 0.56Q58.38 0.56 58.01 0.58Q57.63 0.61 57.21 0.67L57.21 0.67L57.21 11L53.76 11Z"/>
    </g>
</svg>