<?xml version="1.0" encoding="UTF-8"?>
<svg height="34" width="106.6" version="1.1" xmlns="http://www.w3.org/2000/svg">
    <rect
        height="32"
        width="104.6"
        rx="14"
        ry="14"
        x="1"
        y="1"
        fill="#ffcc33"
        stroke="#997300"
        stroke-width="1"
         />
    <g transform="translate(0, 14)">
        <path fill="#997300" d="M15.21 11L11.76 11L11.76-6.33L22.38-6.33L22.38-3.48L15.21-3.48L15.21 0.72L21.48 0.72L21.48 3.58L15.21 3.58L15.21 11ZM36.63 7.67L37.08 10.44Q36.99 10.50 36.70 10.64Q36.40 10.78 35.93 10.93Q35.45 11.08 34.77 11.20Q34.08 11.31 33.21 11.31L33.21 11.31Q30.83 11.31 29.74 9.89Q28.65 8.48 28.65 5.76L28.65 5.76L28.65-5.41L25.01-5.41L25.01-8.26L32.09-8.26L32.09 6.02Q32.09 7.36 32.62 7.84Q33.16 8.31 33.97 8.31L33.97 8.31Q35.00 8.31 35.70 8.03Q36.40 7.75 36.63 7.67L36.63 7.67ZM50.26-2.16L50.26 10.55Q49.31 10.80 47.95 11.06Q46.60 11.31 45 11.31L45 11.31Q43.38 11.31 42.34 10.86Q41.30 10.41 40.70 9.59Q40.10 8.76 39.88 7.64Q39.65 6.52 39.65 5.18L39.65 5.18L39.65-2.16L43.10-2.16L43.10 4.73Q43.10 6.55 43.53 7.43Q43.96 8.31 45.22 8.31L45.22 8.31Q46.01 8.31 46.79 8.17L46.79 8.17L46.79-2.16L50.26-2.16ZM52.87 4.53L52.87 4.53Q52.87 2.80 53.40 1.48Q53.93 0.16 54.80-0.72Q55.67-1.60 56.79-2.05Q57.91-2.50 59.08-2.50L59.08-2.50Q62.00-2.50 63.51-0.77Q65.02 0.95 65.02 4.25L65.02 4.25Q65.02 4.59 65.01 4.95Q64.99 5.32 64.96 5.54L64.96 5.54L56.42 5.54Q56.42 6.83 57.49 7.57Q58.55 8.31 60.23 8.31L60.23 8.31Q61.27 8.31 62.21 8.09Q63.14 7.86 63.79 7.64L63.79 7.64L64.26 10.58Q63.37 10.89 62.36 11.10Q61.35 11.31 60.09 11.31L60.09 11.31Q58.41 11.31 57.08 10.87Q55.75 10.44 54.81 9.59Q53.88 8.73 53.37 7.47Q52.87 6.21 52.87 4.53ZM56.42 3.16L61.69 3.16Q61.69 2.63 61.55 2.14Q61.41 1.65 61.10 1.26Q60.79 0.86 60.32 0.63Q59.84 0.39 59.14 0.39L59.14 0.39Q58.47 0.39 57.98 0.61Q57.49 0.84 57.17 1.23Q56.84 1.62 56.66 2.12Q56.48 2.63 56.42 3.16L56.42 3.16ZM67.76 11L67.76-1.74Q68.69-1.99 70.05-2.22Q71.40-2.44 73-2.44L73-2.44Q74.57-2.44 75.60-2.01Q76.64-1.57 77.24-0.77Q77.84 0.02 78.10 1.13Q78.35 2.24 78.35 3.58L78.35 3.58L78.35 11L74.90 11L74.90 4.03Q74.90 2.18 74.48 1.37Q74.06 0.56 72.78 0.56L72.78 0.56Q72.38 0.56 72.01 0.58Q71.63 0.61 71.21 0.67L71.21 0.67L71.21 11L67.76 11ZM84.00 6.10L84.00 0.70L81.01 0.70L81.01-2.16L84.00-2.16L84.00-5.46L87.45-6.02L87.45-2.16L92.96-2.16L92.96 0.70L87.45 0.70L87.45 6.02Q87.45 6.74 87.59 7.19Q87.73 7.64 87.98 7.89Q88.23 8.14 88.60 8.23Q88.96 8.31 89.41 8.31L89.41 8.31Q89.88 8.31 90.29 8.28Q90.70 8.26 91.07 8.19Q91.45 8.12 91.86 7.98Q92.26 7.84 92.74 7.61L92.74 7.61L93.22 10.58Q92.26 10.97 91.16 11.14Q90.05 11.31 89.02 11.31L89.02 11.31Q87.81 11.31 86.89 11.11Q85.96 10.92 85.32 10.36Q84.68 9.80 84.34 8.77Q84.00 7.75 84.00 6.10L84.00 6.10Z"/>
    </g>
</svg>