<?xml version="1.0" encoding="UTF-8"?>
<svg height="26" width="90.6" version="1.1" xmlns="http://www.w3.org/2000/svg"><!--Created by Josélio de S. C. Júnior - 2021 - https://github.com/joseliojunior -->
    <rect
        height="24"
        width="88.6"
        rx="1"
        ry="1"
        x="1" y="1"
        fill="#ffcc33"
        stroke="#997300"
        stroke-width="1" />
    <g transform="translate(0, 8)">
        <path fill="#997300" d="M22.98 10L21.01 10L21.01 0.10L27.07 0.10L27.07 1.73L22.98 1.73L22.98 4.13L26.56 4.13L26.56 5.76L22.98 5.76L22.98 10ZM35.22 8.10L35.47 9.68Q35.42 9.71 35.26 9.79Q35.09 9.87 34.82 9.96Q34.54 10.05 34.15 10.11Q33.76 10.18 33.26 10.18L33.26 10.18Q31.90 10.18 31.28 9.37Q30.66 8.56 30.66 7.01L30.66 7.01L30.66 0.62L28.58 0.62L28.58-1.01L32.62-1.01L32.62 7.15Q32.62 7.92 32.93 8.19Q33.23 8.46 33.70 8.46L33.70 8.46Q34.29 8.46 34.69 8.30Q35.09 8.14 35.22 8.10L35.22 8.10ZM43.01 2.48L43.01 9.74Q42.46 9.89 41.69 10.03Q40.91 10.18 40 10.18L40 10.18Q39.07 10.18 38.48 9.92Q37.89 9.66 37.54 9.19Q37.20 8.72 37.07 8.08Q36.94 7.44 36.94 6.67L36.94 6.67L36.94 2.48L38.91 2.48L38.91 6.42Q38.91 7.46 39.16 7.96Q39.41 8.46 40.13 8.46L40.13 8.46Q40.58 8.46 41.02 8.38L41.02 8.38L41.02 2.48L43.01 2.48ZM44.50 6.30L44.50 6.30Q44.50 5.31 44.80 4.56Q45.10 3.81 45.60 3.30Q46.10 2.80 46.74 2.54Q47.38 2.29 48.05 2.29L48.05 2.29Q49.71 2.29 50.58 3.27Q51.44 4.26 51.44 6.14L51.44 6.14Q51.44 6.34 51.43 6.54Q51.42 6.75 51.41 6.88L51.41 6.88L46.53 6.88Q46.53 7.62 47.14 8.04Q47.74 8.46 48.70 8.46L48.70 8.46Q49.30 8.46 49.83 8.34Q50.37 8.21 50.74 8.08L50.74 8.08L51.01 9.76Q50.50 9.94 49.92 10.06Q49.34 10.18 48.62 10.18L48.62 10.18Q47.66 10.18 46.90 9.93Q46.14 9.68 45.61 9.19Q45.07 8.70 44.78 7.98Q44.50 7.26 44.50 6.30ZM46.53 5.52L49.54 5.52Q49.54 5.22 49.46 4.94Q49.38 4.66 49.20 4.43Q49.02 4.21 48.75 4.07Q48.48 3.94 48.08 3.94L48.08 3.94Q47.70 3.94 47.42 4.06Q47.14 4.19 46.95 4.42Q46.77 4.64 46.66 4.93Q46.56 5.22 46.53 5.52L46.53 5.52ZM53.01 10L53.01 2.72Q53.54 2.58 54.31 2.45Q55.09 2.32 56 2.32L56 2.32Q56.90 2.32 57.49 2.57Q58.08 2.82 58.42 3.27Q58.77 3.73 58.91 4.36Q59.06 4.99 59.06 5.76L59.06 5.76L59.06 10L57.09 10L57.09 6.02Q57.09 4.96 56.85 4.50Q56.61 4.03 55.87 4.03L55.87 4.03Q55.65 4.03 55.43 4.05Q55.22 4.06 54.98 4.10L54.98 4.10L54.98 10L53.01 10ZM62.29 7.20L62.29 4.11L60.58 4.11L60.58 2.48L62.29 2.48L62.29 0.59L64.26 0.27L64.26 2.48L67.41 2.48L67.41 4.11L64.26 4.11L64.26 7.15Q64.26 7.57 64.34 7.82Q64.42 8.08 64.56 8.22Q64.70 8.37 64.91 8.42Q65.12 8.46 65.38 8.46L65.38 8.46Q65.65 8.46 65.88 8.45Q66.11 8.43 66.33 8.39Q66.54 8.35 66.78 8.27Q67.01 8.19 67.28 8.06L67.28 8.06L67.55 9.76Q67.01 9.98 66.38 10.08Q65.74 10.18 65.15 10.18L65.15 10.18Q64.46 10.18 63.94 10.06Q63.41 9.95 63.04 9.63Q62.67 9.31 62.48 8.73Q62.29 8.14 62.29 7.20L62.29 7.20Z"/>
    </g>
</svg>