<?xml version="1.0" encoding="UTF-8"?>
<svg height="34" width="78.4" version="1.1" xmlns="http://www.w3.org/2000/svg">
    <rect
        height="32"
        width="76.4"
        rx="14"
        ry="14"
        x="1"
        y="1"
        fill="#185619"
        stroke="#40c942"
        stroke-width="1"
         />
    <g transform="translate(0, 14)">
        <path fill="#40c942" d="M22.88 8.14L22.88 11L11.99 11L11.99-6.33L15.46-6.33L15.46 8.14L22.88 8.14ZM36.88 8.14L36.88 11L25.99 11L25.99-6.33L29.46-6.33L29.46 8.14L36.88 8.14ZM46.76 11L43.21 11Q42.54 9.07 41.78 6.63Q41.02 4.20 40.35 1.77Q39.68-0.65 39.15-2.80Q38.62-4.96 38.36-6.33L38.36-6.33L42.00-6.33Q42.17-4.99 42.51-3.21Q42.84-1.43 43.25 0.46Q43.66 2.35 44.12 4.18Q44.58 6.02 45.03 7.47L45.03 7.47Q45.48 6.04 45.92 4.21Q46.37 2.38 46.76 0.49Q47.16-1.40 47.49-3.20Q47.83-4.99 48.05-6.33L48.05-6.33L51.66-6.33Q51.33-4.65 50.84-2.58Q50.35-0.51 49.72 1.77Q49.09 4.06 48.33 6.42Q47.58 8.79 46.76 11L46.76 11ZM53.65-6.33L56.51-6.33Q56.70-5.74 57.00-4.82Q57.29-3.90 57.63-2.83Q57.96-1.77 58.30-0.68Q58.64 0.42 58.94 1.34L58.94 1.34Q59.28 0.30 59.64-0.80Q60.01-1.91 60.34-2.93Q60.68-3.95 60.96-4.85Q61.24-5.74 61.46-6.33L61.46-6.33L64.32-6.33Q64.52-4.06 64.70-1.91Q64.88 0.25 65.01 2.36Q65.13 4.48 65.22 6.62Q65.30 8.76 65.36 11L65.36 11L62.19 11L62.36-2.47L60.23 4.87L57.71 4.87L55.67-2.47L55.81 11L52.64 11Q52.73 8.87 52.83 6.58Q52.92 4.28 53.04 2.01Q53.15-0.26 53.30-2.38Q53.46-4.51 53.65-6.33L53.65-6.33Z"/>
    </g>
</svg>