<?xml version="1.0" encoding="UTF-8"?>
<svg height="34" width="90.4" version="1.1" xmlns="http://www.w3.org/2000/svg"><!--Created by Josélio de S. C. Júnior - 2021 - https://github.com/joseliojunior -->
    <rect
        height="32"
        width="88.4"
        rx="16"
        ry="16"
        x="1" y="1"
        fill="#185619"
        stroke="#40c942"
        stroke-width="1" />
    <g transform="translate(0, 12)">
        <path fill="#40c942" stroke="none" d="M31.04 9.55L31.04 12L21.70 12L21.70-2.86L24.68-2.86L24.68 9.55L31.04 9.55ZM43.04 9.55L43.04 12L33.70 12L33.70-2.86L36.68-2.86L36.68 9.55L43.04 9.55ZM51.51 12L48.46 12Q47.89 10.34 47.24 8.26Q46.59 6.17 46.02 4.09Q45.44 2.02 44.98 0.17Q44.53-1.68 44.31-2.86L44.31-2.86L47.43-2.86Q47.58-1.70 47.86-0.18Q48.15 1.34 48.50 2.96Q48.85 4.58 49.24 6.16Q49.64 7.73 50.02 8.98L50.02 8.98Q50.41 7.75 50.79 6.18Q51.18 4.61 51.51 2.99Q51.85 1.37 52.14-0.17Q52.42-1.70 52.62-2.86L52.62-2.86L55.71-2.86Q55.42-1.42 55.00 0.36Q54.58 2.14 54.04 4.09Q53.50 6.05 52.86 8.08Q52.21 10.10 51.51 12L51.51 12ZM57.42-2.86L59.86-2.86Q60.03-2.35 60.28-1.56Q60.54-0.77 60.82 0.14Q61.11 1.06 61.40 1.99Q61.69 2.93 61.95 3.72L61.95 3.72Q62.24 2.83 62.55 1.88Q62.86 0.94 63.15 0.06Q63.44-0.82 63.68-1.58Q63.92-2.35 64.11-2.86L64.11-2.86L66.56-2.86Q66.73-0.91 66.88 0.94Q67.04 2.78 67.15 4.60Q67.26 6.41 67.33 8.24Q67.40 10.08 67.45 12L67.45 12L64.74 12L64.88 0.46L63.06 6.74L60.90 6.74L59.14 0.46L59.26 12L56.55 12Q56.62 10.18 56.71 8.21Q56.79 6.24 56.89 4.30Q56.98 2.35 57.12 0.53Q57.25-1.30 57.42-2.86L57.42-2.86Z"/>
    </g>
</svg>