<?xml version="1.0" encoding="UTF-8"?><svg height="26" width="74.4" version="1.1" xmlns="http://www.w3.org/2000/svg"><!--Created by Josélio de S. C. Júnior - 2021 - https://github.com/joseliojunior --><rect height="24" width="72.4" rx="12" ry="12" x="1" y="1" fill="#185619" stroke="#40c942" stroke-width="1" /><g transform="translate(0, 8)"><path fill="#40c942" d="M27.36 8.37L27.36 10L21.14 10L21.14 0.10L23.12 0.10L23.12 8.37L27.36 8.37ZM35.36 8.37L35.36 10L29.14 10L29.14 0.10L31.12 0.10L31.12 8.37L35.36 8.37ZM41.01 10L38.98 10Q38.59 8.90 38.16 7.50Q37.73 6.11 37.34 4.73Q36.96 3.34 36.66 2.11Q36.35 0.88 36.21 0.10L36.21 0.10L38.29 0.10Q38.38 0.86 38.58 1.88Q38.77 2.90 39 3.98Q39.23 5.06 39.50 6.10Q39.76 7.15 40.02 7.98L40.02 7.98Q40.27 7.17 40.53 6.12Q40.78 5.07 41.01 3.99Q41.23 2.91 41.42 1.89Q41.62 0.86 41.74 0.10L41.74 0.10L43.81 0.10Q43.62 1.06 43.34 2.24Q43.06 3.42 42.70 4.73Q42.34 6.03 41.90 7.38Q41.47 8.74 41.01 10L41.01 10ZM44.94 0.10L46.58 0.10Q46.69 0.43 46.86 0.96Q47.02 1.49 47.22 2.10Q47.41 2.70 47.60 3.33Q47.79 3.95 47.97 4.48L47.97 4.48Q48.16 3.89 48.37 3.26Q48.58 2.62 48.77 2.04Q48.96 1.46 49.12 0.94Q49.28 0.43 49.41 0.10L49.41 0.10L51.04 0.10Q51.15 1.39 51.26 2.62Q51.36 3.86 51.43 5.06Q51.50 6.27 51.55 7.50Q51.60 8.72 51.63 10L51.63 10L49.82 10L49.92 2.30L48.70 6.50L47.26 6.50L46.10 2.30L46.18 10L44.37 10Q44.42 8.78 44.47 7.47Q44.53 6.16 44.59 4.86Q44.66 3.57 44.74 2.35Q44.83 1.14 44.94 0.10L44.94 0.10Z"/></g></svg>