<?xml version="1.0" encoding="UTF-8"?>
<svg height="26" width="212.1" version="1.1" xmlns="http://www.w3.org/2000/svg"><!--Created by Josélio de S. C. Júnior - 2021 - https://github.com/joseliojunior -->
    <rect
        height="24"
        width="210.1"
        rx="12"
        ry="12"
        x="1" y="1"
        fill="#ff0000"
        stroke="#660000"
        stroke-width="1" />
    <g transform="translate(0, 8)">
        <path fill="#660000" stroke="none" d="M24.99 1.58L24.99 1.58Q24.29 1.58 23.81 1.84Q23.33 2.10 23.02 2.55Q22.70 3.01 22.57 3.64Q22.43 4.27 22.43 5.04L22.43 5.04Q22.43 6.82 22.99 7.66Q23.55 8.50 24.64 8.50L24.64 8.50Q24.82 8.50 25.02 8.48Q25.23 8.46 25.41 8.43L25.41 8.43L25.41 4.82L27.38 4.82L27.38 9.76Q27.02 9.89 26.28 10.05Q25.54 10.21 24.48 10.21L24.48 10.21Q23.55 10.21 22.81 9.88Q22.06 9.55 21.54 8.90Q21.01 8.26 20.72 7.29Q20.43 6.32 20.43 5.04L20.43 5.04Q20.43 3.78 20.77 2.81Q21.10 1.84 21.68 1.18Q22.26 0.53 23.04 0.20Q23.82-0.13 24.72-0.13L24.72-0.13Q25.30-0.13 25.75-0.04Q26.21 0.05 26.54 0.16Q26.88 0.27 27.10 0.40Q27.31 0.53 27.42 0.59L27.42 0.59L26.91 2.16Q26.56 1.94 26.05 1.76Q25.54 1.58 24.99 1.58ZM35.34 2.66L34.99 4.48Q34.80 4.43 34.54 4.38Q34.27 4.34 34 4.30Q33.73 4.26 33.47 4.24Q33.22 4.22 33.04 4.22L33.04 4.22Q32.62 4.22 32.22 4.26Q31.82 4.30 31.41 4.42L31.41 4.42L31.41 10L29.42 10L29.42 2.98Q30.21 2.69 31.03 2.51Q31.86 2.34 32.96 2.34L32.96 2.34Q33.12 2.34 33.42 2.35Q33.71 2.37 34.05 2.41Q34.38 2.45 34.73 2.50Q35.07 2.56 35.34 2.66L35.34 2.66ZM40.02 8.59L40.02 8.59Q40.34 8.59 40.64 8.58Q40.94 8.58 41.17 8.54L41.17 8.54L41.17 6.82Q40.98 6.78 40.70 6.76Q40.43 6.74 40.21 6.74L40.21 6.74Q39.90 6.74 39.62 6.78Q39.33 6.82 39.11 6.91Q38.90 7.01 38.77 7.18Q38.64 7.36 38.64 7.65L38.64 7.65Q38.64 8.16 39.02 8.38Q39.41 8.59 40.02 8.59ZM39.84 2.29L39.84 2.29Q40.77 2.29 41.38 2.50Q42 2.72 42.37 3.11Q42.74 3.50 42.90 4.07Q43.06 4.64 43.06 5.34L43.06 5.34L43.06 9.82Q42.62 9.92 41.78 10.05Q40.93 10.18 39.87 10.18L39.87 10.18Q39.15 10.18 38.57 10.05Q37.98 9.92 37.57 9.62Q37.15 9.33 36.93 8.86Q36.70 8.38 36.70 7.70L36.70 7.70Q36.70 7.04 36.96 6.59Q37.22 6.14 37.65 5.87Q38.08 5.60 38.64 5.48Q39.20 5.36 39.81 5.36L39.81 5.36Q40.58 5.36 41.17 5.49L41.17 5.49L41.17 5.25Q41.17 4.69 40.82 4.31Q40.46 3.94 39.60 3.94L39.60 3.94Q39.04 3.94 38.52 4.02Q38 4.10 37.68 4.21L37.68 4.21L37.41 2.62Q37.78 2.50 38.45 2.39Q39.12 2.29 39.84 2.29ZM49.49 2.40L49.49 2.40Q50.11 2.40 50.51 2.59Q50.91 2.78 51.14 3.17Q51.38 3.55 51.46 4.14Q51.54 4.72 51.54 5.50L51.54 5.50L51.54 10L49.94 10L49.94 5.41Q49.94 4.96 49.88 4.69Q49.82 4.42 49.74 4.27Q49.65 4.13 49.53 4.08Q49.41 4.03 49.28 4.03L49.28 4.03Q49.14 4.03 48.98 4.06Q48.82 4.08 48.69 4.14L48.69 4.14Q48.74 4.45 48.77 4.82Q48.80 5.18 48.80 5.63L48.80 5.63L48.80 7.14L47.20 7.14L47.20 5.41Q47.20 4.64 47.05 4.34Q46.90 4.03 46.56 4.03L46.56 4.03Q46.46 4.03 46.33 4.05Q46.19 4.06 46.06 4.10L46.06 4.10L46.06 10L44.46 10L44.46 2.77Q45.09 2.59 45.70 2.50Q46.30 2.40 46.77 2.40L46.77 2.40Q47.18 2.40 47.51 2.50Q47.84 2.61 48.08 2.85L48.08 2.85Q48.35 2.67 48.72 2.54Q49.09 2.40 49.49 2.40ZM57.49 2.40L57.49 2.40Q58.11 2.40 58.51 2.59Q58.91 2.78 59.14 3.17Q59.38 3.55 59.46 4.14Q59.54 4.72 59.54 5.50L59.54 5.50L59.54 10L57.94 10L57.94 5.41Q57.94 4.96 57.88 4.69Q57.82 4.42 57.74 4.27Q57.65 4.13 57.53 4.08Q57.41 4.03 57.28 4.03L57.28 4.03Q57.14 4.03 56.98 4.06Q56.82 4.08 56.69 4.14L56.69 4.14Q56.74 4.45 56.77 4.82Q56.80 5.18 56.80 5.63L56.80 5.63L56.80 7.14L55.20 7.14L55.20 5.41Q55.20 4.64 55.05 4.34Q54.90 4.03 54.56 4.03L54.56 4.03Q54.46 4.03 54.33 4.05Q54.19 4.06 54.06 4.10L54.06 4.10L54.06 10L52.46 10L52.46 2.77Q53.09 2.59 53.70 2.50Q54.30 2.40 54.77 2.40L54.77 2.40Q55.18 2.40 55.51 2.50Q55.84 2.61 56.08 2.85L56.08 2.85Q56.35 2.67 56.72 2.54Q57.09 2.40 57.49 2.40ZM64.02 8.59L64.02 8.59Q64.34 8.59 64.64 8.58Q64.94 8.58 65.17 8.54L65.17 8.54L65.17 6.82Q64.98 6.78 64.70 6.76Q64.43 6.74 64.21 6.74L64.21 6.74Q63.90 6.74 63.62 6.78Q63.33 6.82 63.11 6.91Q62.90 7.01 62.77 7.18Q62.64 7.36 62.64 7.65L62.64 7.65Q62.64 8.16 63.02 8.38Q63.41 8.59 64.02 8.59ZM63.84 2.29L63.84 2.29Q64.77 2.29 65.38 2.50Q66 2.72 66.37 3.11Q66.74 3.50 66.90 4.07Q67.06 4.64 67.06 5.34L67.06 5.34L67.06 9.82Q66.62 9.92 65.78 10.05Q64.93 10.18 63.87 10.18L63.87 10.18Q63.15 10.18 62.57 10.05Q61.98 9.92 61.57 9.62Q61.15 9.33 60.93 8.86Q60.70 8.38 60.70 7.70L60.70 7.70Q60.70 7.04 60.96 6.59Q61.22 6.14 61.65 5.87Q62.08 5.60 62.64 5.48Q63.20 5.36 63.81 5.36L63.81 5.36Q64.58 5.36 65.17 5.49L65.17 5.49L65.17 5.25Q65.17 4.69 64.82 4.31Q64.46 3.94 63.60 3.94L63.60 3.94Q63.04 3.94 62.52 4.02Q62 4.10 61.68 4.21L61.68 4.21L61.41 2.62Q61.78 2.50 62.45 2.39Q63.12 2.29 63.84 2.29ZM70.29 7.20L70.29 4.11L68.58 4.11L68.58 2.48L70.29 2.48L70.29 0.59L72.26 0.27L72.26 2.48L75.41 2.48L75.41 4.11L72.26 4.11L72.26 7.15Q72.26 7.57 72.34 7.82Q72.42 8.08 72.56 8.22Q72.70 8.37 72.91 8.42Q73.12 8.46 73.38 8.46L73.38 8.46Q73.65 8.46 73.88 8.45Q74.11 8.43 74.33 8.39Q74.54 8.35 74.78 8.27Q75.01 8.19 75.28 8.06L75.28 8.06L75.55 9.76Q75.01 9.98 74.38 10.08Q73.74 10.18 73.15 10.18L73.15 10.18Q72.46 10.18 71.94 10.06Q71.41 9.95 71.04 9.63Q70.67 9.31 70.48 8.73Q70.29 8.14 70.29 7.20L70.29 7.20ZM80.54 0.32L80.54 0.32Q80.54 0.90 80.18 1.23Q79.81 1.57 79.30 1.57L79.30 1.57Q78.78 1.57 78.42 1.23Q78.06 0.90 78.06 0.32L78.06 0.32Q78.06-0.27 78.42-0.61Q78.78-0.94 79.30-0.94L79.30-0.94Q79.81-0.94 80.18-0.61Q80.54-0.27 80.54 0.32ZM83.22 8.10L83.47 9.68Q82.86 9.97 82.33 10.07Q81.79 10.18 81.34 10.18L81.34 10.18Q80.58 10.18 80.06 9.95Q79.54 9.73 79.22 9.30Q78.91 8.88 78.78 8.27Q78.66 7.66 78.66 6.88L78.66 6.88L78.66 4.11L76.58 4.11L76.58 2.48L80.62 2.48L80.62 7.14Q80.62 7.81 80.87 8.14Q81.12 8.46 81.70 8.46L81.70 8.46Q81.97 8.46 82.35 8.39Q82.74 8.32 83.22 8.10L83.22 8.10ZM84.70 6.24L84.70 6.24Q84.70 5.42 84.96 4.70Q85.22 3.98 85.74 3.45Q86.27 2.91 87.08 2.60Q87.89 2.29 89.01 2.29L89.01 2.29Q89.68 2.29 90.22 2.38Q90.77 2.48 91.33 2.70L91.33 2.70L90.90 4.29Q90.58 4.18 90.18 4.09Q89.79 4 89.18 4L89.18 4Q88.48 4 88.01 4.17Q87.54 4.34 87.25 4.63Q86.96 4.93 86.83 5.34Q86.70 5.76 86.70 6.24L86.70 6.24Q86.70 7.28 87.29 7.87Q87.87 8.46 89.28 8.46L89.28 8.46Q89.74 8.46 90.25 8.40Q90.75 8.34 91.17 8.19L91.17 8.19L91.46 9.81Q91.04 9.97 90.45 10.07Q89.86 10.18 89.06 10.18L89.06 10.18Q87.90 10.18 87.08 9.87Q86.26 9.57 85.73 9.04Q85.20 8.51 84.95 7.79Q84.70 7.07 84.70 6.24ZM96.02 8.59L96.02 8.59Q96.34 8.59 96.64 8.58Q96.94 8.58 97.17 8.54L97.17 8.54L97.17 6.82Q96.98 6.78 96.70 6.76Q96.43 6.74 96.21 6.74L96.21 6.74Q95.90 6.74 95.62 6.78Q95.33 6.82 95.11 6.91Q94.90 7.01 94.77 7.18Q94.64 7.36 94.64 7.65L94.64 7.65Q94.64 8.16 95.02 8.38Q95.41 8.59 96.02 8.59ZM95.84 2.29L95.84 2.29Q96.77 2.29 97.38 2.50Q98 2.72 98.37 3.11Q98.74 3.50 98.90 4.07Q99.06 4.64 99.06 5.34L99.06 5.34L99.06 9.82Q98.62 9.92 97.78 10.05Q96.93 10.18 95.87 10.18L95.87 10.18Q95.15 10.18 94.57 10.05Q93.98 9.92 93.57 9.62Q93.15 9.33 92.93 8.86Q92.70 8.38 92.70 7.70L92.70 7.70Q92.70 7.04 92.96 6.59Q93.22 6.14 93.65 5.87Q94.08 5.60 94.64 5.48Q95.20 5.36 95.81 5.36L95.81 5.36Q96.58 5.36 97.17 5.49L97.17 5.49L97.17 5.25Q97.17 4.69 96.82 4.31Q96.46 3.94 95.60 3.94L95.60 3.94Q95.04 3.94 94.52 4.02Q94 4.10 93.68 4.21L93.68 4.21L93.41 2.62Q93.78 2.50 94.45 2.39Q95.12 2.29 95.84 2.29ZM107.22 8.10L107.47 9.68Q107.42 9.71 107.26 9.79Q107.09 9.87 106.82 9.96Q106.54 10.05 106.15 10.11Q105.76 10.18 105.26 10.18L105.26 10.18Q103.90 10.18 103.28 9.37Q102.66 8.56 102.66 7.01L102.66 7.01L102.66 0.62L100.58 0.62L100.58-1.01L104.62-1.01L104.62 7.15Q104.62 7.92 104.93 8.19Q105.23 8.46 105.70 8.46L105.70 8.46Q106.29 8.46 106.69 8.30Q107.09 8.14 107.22 8.10L107.22 8.10ZM118.98 10L117.01 10L117.01 0.10L123.07 0.10L123.07 1.73L118.98 1.73L118.98 4.13L122.56 4.13L122.56 5.76L118.98 5.76L118.98 10ZM131.34 2.66L130.99 4.48Q130.80 4.43 130.54 4.38Q130.27 4.34 130 4.30Q129.73 4.26 129.47 4.24Q129.22 4.22 129.04 4.22L129.04 4.22Q128.62 4.22 128.22 4.26Q127.82 4.30 127.41 4.42L127.41 4.42L127.41 10L125.42 10L125.42 2.98Q126.21 2.69 127.03 2.51Q127.86 2.34 128.96 2.34L128.96 2.34Q129.12 2.34 129.42 2.35Q129.71 2.37 130.05 2.41Q130.38 2.45 130.73 2.50Q131.07 2.56 131.34 2.66L131.34 2.66ZM136.02 8.59L136.02 8.59Q136.34 8.59 136.64 8.58Q136.94 8.58 137.17 8.54L137.17 8.54L137.17 6.82Q136.98 6.78 136.70 6.76Q136.43 6.74 136.21 6.74L136.21 6.74Q135.90 6.74 135.62 6.78Q135.33 6.82 135.11 6.91Q134.90 7.01 134.77 7.18Q134.64 7.36 134.64 7.65L134.64 7.65Q134.64 8.16 135.02 8.38Q135.41 8.59 136.02 8.59ZM135.84 2.29L135.84 2.29Q136.77 2.29 137.38 2.50Q138 2.72 138.37 3.11Q138.74 3.50 138.90 4.07Q139.06 4.64 139.06 5.34L139.06 5.34L139.06 9.82Q138.62 9.92 137.78 10.05Q136.93 10.18 135.87 10.18L135.87 10.18Q135.15 10.18 134.57 10.05Q133.98 9.92 133.57 9.62Q133.15 9.33 132.93 8.86Q132.70 8.38 132.70 7.70L132.70 7.70Q132.70 7.04 132.96 6.59Q133.22 6.14 133.65 5.87Q134.08 5.60 134.64 5.48Q135.20 5.36 135.81 5.36L135.81 5.36Q136.58 5.36 137.17 5.49L137.17 5.49L137.17 5.25Q137.17 4.69 136.82 4.31Q136.46 3.94 135.60 3.94L135.60 3.94Q135.04 3.94 134.52 4.02Q134 4.10 133.68 4.21L133.68 4.21L133.41 2.62Q133.78 2.50 134.45 2.39Q135.12 2.29 135.84 2.29ZM145.49 2.40L145.49 2.40Q146.11 2.40 146.51 2.59Q146.91 2.78 147.14 3.17Q147.38 3.55 147.46 4.14Q147.54 4.72 147.54 5.50L147.54 5.50L147.54 10L145.94 10L145.94 5.41Q145.94 4.96 145.88 4.69Q145.82 4.42 145.74 4.27Q145.65 4.13 145.53 4.08Q145.41 4.03 145.28 4.03L145.28 4.03Q145.14 4.03 144.98 4.06Q144.82 4.08 144.69 4.14L144.69 4.14Q144.74 4.45 144.77 4.82Q144.80 5.18 144.80 5.63L144.80 5.63L144.80 7.14L143.20 7.14L143.20 5.41Q143.20 4.64 143.05 4.34Q142.90 4.03 142.56 4.03L142.56 4.03Q142.46 4.03 142.33 4.05Q142.19 4.06 142.06 4.10L142.06 4.10L142.06 10L140.46 10L140.46 2.77Q141.09 2.59 141.70 2.50Q142.30 2.40 142.77 2.40L142.77 2.40Q143.18 2.40 143.51 2.50Q143.84 2.61 144.08 2.85L144.08 2.85Q144.35 2.67 144.72 2.54Q145.09 2.40 145.49 2.40ZM148.50 6.30L148.50 6.30Q148.50 5.31 148.80 4.56Q149.10 3.81 149.60 3.30Q150.10 2.80 150.74 2.54Q151.38 2.29 152.05 2.29L152.05 2.29Q153.71 2.29 154.58 3.27Q155.44 4.26 155.44 6.14L155.44 6.14Q155.44 6.34 155.43 6.54Q155.42 6.75 155.41 6.88L155.41 6.88L150.53 6.88Q150.53 7.62 151.14 8.04Q151.74 8.46 152.70 8.46L152.70 8.46Q153.30 8.46 153.83 8.34Q154.37 8.21 154.74 8.08L154.74 8.08L155.01 9.76Q154.50 9.94 153.92 10.06Q153.34 10.18 152.62 10.18L152.62 10.18Q151.66 10.18 150.90 9.93Q150.14 9.68 149.61 9.19Q149.07 8.70 148.78 7.98Q148.50 7.26 148.50 6.30ZM150.53 5.52L153.54 5.52Q153.54 5.22 153.46 4.94Q153.38 4.66 153.20 4.43Q153.02 4.21 152.75 4.07Q152.48 3.94 152.08 3.94L152.08 3.94Q151.70 3.94 151.42 4.06Q151.14 4.19 150.95 4.42Q150.77 4.64 150.66 4.93Q150.56 5.22 150.53 5.52L150.53 5.52ZM162.64 10L161.15 10Q160.98 9.50 160.82 9.09Q160.67 8.67 160.54 8.28Q160.40 7.89 160.26 7.46Q160.13 7.04 159.98 6.53L159.98 6.53Q159.82 7.04 159.70 7.45Q159.57 7.86 159.43 8.26Q159.30 8.66 159.15 9.07Q159.01 9.49 158.80 10L158.80 10L157.31 10Q157.12 9.30 156.95 8.44Q156.78 7.58 156.64 6.62Q156.50 5.65 156.38 4.61Q156.27 3.57 156.18 2.48L156.18 2.48L157.86 2.48Q157.92 3.87 157.99 5.20Q158.06 6.53 158.26 7.94L158.26 7.94Q158.46 7.33 158.62 6.81Q158.77 6.29 158.89 5.82Q159.01 5.34 159.11 4.90Q159.22 4.46 159.33 4L159.33 4L160.75 4Q160.85 4.46 160.95 4.90Q161.06 5.34 161.18 5.82Q161.30 6.29 161.43 6.81Q161.57 7.33 161.76 7.94L161.76 7.94Q161.86 7.20 161.92 6.53Q161.98 5.86 162.02 5.19Q162.06 4.53 162.09 3.86Q162.11 3.20 162.14 2.48L162.14 2.48L163.82 2.48Q163.65 4.67 163.34 6.61Q163.02 8.54 162.64 10L162.64 10ZM171.55 6.22L171.55 6.22Q171.55 7.12 171.30 7.85Q171.04 8.58 170.58 9.10Q170.11 9.63 169.46 9.92Q168.82 10.21 168.02 10.21L168.02 10.21Q167.22 10.21 166.57 9.92Q165.92 9.63 165.45 9.10Q164.98 8.58 164.72 7.85Q164.46 7.12 164.46 6.22L164.46 6.22Q164.46 5.34 164.73 4.62Q164.99 3.89 165.46 3.37Q165.94 2.85 166.59 2.57Q167.25 2.29 168.02 2.29L168.02 2.29Q168.80 2.29 169.45 2.57Q170.10 2.85 170.57 3.37Q171.04 3.89 171.30 4.62Q171.55 5.34 171.55 6.22ZM166.46 6.24L166.46 6.24Q166.46 7.25 166.82 7.87Q167.18 8.50 167.98 8.50L167.98 8.50Q168.75 8.50 169.14 7.87Q169.54 7.25 169.54 6.24L169.54 6.24Q169.54 5.23 169.18 4.62Q168.82 4 168.02 4L168.02 4Q167.25 4 166.86 4.62Q166.46 5.23 166.46 6.24ZM179.34 2.66L178.99 4.48Q178.80 4.43 178.54 4.38Q178.27 4.34 178 4.30Q177.73 4.26 177.47 4.24Q177.22 4.22 177.04 4.22L177.04 4.22Q176.62 4.22 176.22 4.26Q175.82 4.30 175.41 4.42L175.41 4.42L175.41 10L173.42 10L173.42 2.98Q174.21 2.69 175.03 2.51Q175.86 2.34 176.96 2.34L176.96 2.34Q177.12 2.34 177.42 2.35Q177.71 2.37 178.05 2.41Q178.38 2.45 178.73 2.50Q179.07 2.56 179.34 2.66L179.34 2.66ZM182.99-1.10L182.99 5.46Q183.28 5.12 183.58 4.74Q183.87 4.37 184.15 3.97Q184.43 3.57 184.69 3.19Q184.94 2.82 185.14 2.48L185.14 2.48L187.50 2.48Q187.22 2.85 186.85 3.28Q186.48 3.71 186.09 4.16Q185.70 4.61 185.30 5.02Q184.91 5.44 184.59 5.79L184.59 5.79Q184.99 6.18 185.46 6.71Q185.92 7.25 186.37 7.82Q186.82 8.40 187.19 8.98Q187.57 9.55 187.79 10L187.79 10L185.54 10Q185.34 9.60 185.03 9.10Q184.72 8.59 184.37 8.10Q184.02 7.62 183.66 7.18Q183.30 6.74 182.99 6.45L182.99 6.45L182.99 10L181.01 10L181.01-0.77L182.99-1.10Z"/>
    </g>
</svg>