<?xml version="1.0" encoding="UTF-8"?>
<svg height="34" width="64.3" version="1.1" xmlns="http://www.w3.org/2000/svg">
    <rect
        height="32"
        width="62.3"
        rx="1"
        ry="1"
        x="1"
        y="1"
        fill="#0000cc"
        stroke="#000033"
        stroke-width="1"
         />
    <g transform="translate(0, 14)">
        <path fill="#000033" d="M18.74-3.73L18.74-3.73Q17.50-3.73 16.66-3.28Q15.82-2.83 15.28-2.03Q14.73-1.24 14.49-0.13Q14.26 0.98 14.26 2.32L14.26 2.32Q14.26 5.43 15.24 6.90Q16.22 8.37 18.12 8.37L18.12 8.37Q18.43 8.37 18.79 8.34Q19.16 8.31 19.46 8.26L19.46 8.26L19.46 1.93L22.91 1.93L22.91 10.58Q22.29 10.80 20.99 11.08Q19.69 11.36 17.84 11.36L17.84 11.36Q16.22 11.36 14.91 10.79Q13.61 10.22 12.69 9.08Q11.76 7.95 11.26 6.25Q10.76 4.56 10.76 2.32L10.76 2.32Q10.76 0.11 11.34-1.59Q11.93-3.28 12.94-4.43Q13.95-5.58 15.32-6.15Q16.69-6.72 18.26-6.72L18.26-6.72Q19.27-6.72 20.07-6.57Q20.86-6.42 21.45-6.22Q22.04-6.02 22.42-5.80Q22.80-5.58 22.99-5.46L22.99-5.46L22.10-2.72Q21.48-3.11 20.58-3.42Q19.69-3.73 18.74-3.73ZM37.75 11L34.05 11L33.24 7.00L28.62 7.00L27.84 11L24.25 11Q25.48 5.88 26.74 1.66Q28.00-2.55 29.18-6.33L29.18-6.33L32.93-6.33Q34.16-2.52 35.38 1.75Q36.60 6.02 37.75 11L37.75 11ZM30.97-2.97L30.97-2.97Q30.69-1.99 30.45-1.11Q30.22-0.23 30.01 0.63Q29.80 1.48 29.61 2.35Q29.43 3.22 29.26 4.14L29.26 4.14L32.65 4.14Q32.48 3.22 32.32 2.35Q32.15 1.48 31.94 0.63Q31.73-0.23 31.49-1.11Q31.25-1.99 30.97-2.97ZM44.27-6.53L44.27-6.53Q47.58-6.53 49.40-5.17Q51.22-3.81 51.22-0.73L51.22-0.73Q51.22 2.38 49.38 3.76Q47.55 5.15 44.19 5.15L44.19 5.15L42.96 5.15L42.96 11L39.51 11L39.51-6.11Q40.02-6.22 40.65-6.30Q41.28-6.39 41.92-6.43Q42.56-6.47 43.18-6.50Q43.80-6.53 44.27-6.53ZM44.66-3.53L44.66-3.53Q44.36-3.53 43.81-3.52Q43.26-3.50 42.96-3.45L42.96-3.45L42.96 2.15L44.36 2.15Q46.01 2.15 46.85 1.49Q47.69 0.84 47.69-0.76L47.69-0.76Q47.69-2.27 46.86-2.90Q46.04-3.53 44.66-3.53Z"/>
    </g>
</svg>