<?xml version="1.0" encoding="UTF-8"?>
<svg height="26" width="114.89999999999999" version="1.1" xmlns="http://www.w3.org/2000/svg"><!--Created by Josélio de S. C. Júnior - 2021 - https://github.com/joseliojunior -->
<rect
    height="24"
    width="112.89999999999999"
    rx="1"
    ry="1"
    x="1" y="1"
    fill="#f1e05a"
    stroke="#563d7c"
    stroke-width="1" />
<g transform="translate(0, 8)">
    <path fill="#e32c26" d="M23.30 3.60L24.74 3.60Q24.80 3.90 24.93 4.35Q25.06 4.80 25.21 5.34Q25.36 5.89 25.54 6.51Q25.73 7.14 25.90 7.79L25.90 7.79Q25.90 6.96 25.89 6.01Q25.87 5.06 25.86 4.06Q25.84 3.07 25.82 2.06Q25.81 1.04 25.81 0.10L25.81 0.10L27.63 0.10Q27.58 1.31 27.54 2.60Q27.49 3.89 27.42 5.16Q27.36 6.43 27.27 7.66Q27.18 8.90 27.07 10L27.07 10L25.44 10Q25.09 8.99 24.74 7.83Q24.38 6.67 24.03 5.62L24.03 5.62Q23.68 6.62 23.30 7.81Q22.91 8.99 22.59 10L22.59 10L20.96 10Q20.83 8.90 20.74 7.66Q20.64 6.42 20.57 5.14Q20.50 3.87 20.45 2.58Q20.40 1.30 20.37 0.10L20.37 0.10L22.19 0.10Q22.18 1.04 22.16 2.05Q22.14 3.06 22.13 4.06Q22.11 5.06 22.10 6.01Q22.08 6.96 22.08 7.79L22.08 7.79Q22.22 7.28 22.41 6.67Q22.59 6.06 22.76 5.47Q22.93 4.88 23.07 4.38Q23.22 3.89 23.30 3.60L23.30 3.60ZM28.50 6.30L28.50 6.30Q28.50 5.31 28.80 4.56Q29.10 3.81 29.60 3.30Q30.10 2.80 30.74 2.54Q31.38 2.29 32.05 2.29L32.05 2.29Q33.71 2.29 34.58 3.27Q35.44 4.26 35.44 6.14L35.44 6.14Q35.44 6.34 35.43 6.54Q35.42 6.75 35.41 6.88L35.41 6.88L30.53 6.88Q30.53 7.62 31.14 8.04Q31.74 8.46 32.70 8.46L32.70 8.46Q33.30 8.46 33.83 8.34Q34.37 8.21 34.74 8.08L34.74 8.08L35.01 9.76Q34.50 9.94 33.92 10.06Q33.34 10.18 32.62 10.18L32.62 10.18Q31.66 10.18 30.90 9.93Q30.14 9.68 29.61 9.19Q29.07 8.70 28.78 7.98Q28.50 7.26 28.50 6.30ZM30.53 5.52L33.54 5.52Q33.54 5.22 33.46 4.94Q33.38 4.66 33.20 4.43Q33.02 4.21 32.75 4.07Q32.48 3.94 32.08 3.94L32.08 3.94Q31.70 3.94 31.42 4.06Q31.14 4.19 30.95 4.42Q30.77 4.64 30.66 4.93Q30.56 5.22 30.53 5.52L30.53 5.52ZM41.52 6.19L41.52 6.19Q41.52 5.14 41.18 4.58Q40.83 4.02 40.13 4.02L40.13 4.02Q39.81 4.02 39.50 4.10Q39.18 4.19 38.96 4.32L38.96 4.32L38.96 8.40Q39.18 8.45 39.43 8.46Q39.68 8.48 39.86 8.48L39.86 8.48Q40.62 8.48 41.07 7.96Q41.52 7.44 41.52 6.19ZM43.52 6.24L43.52 6.24Q43.52 7.14 43.28 7.86Q43.04 8.59 42.58 9.10Q42.11 9.62 41.44 9.90Q40.77 10.18 39.90 10.18L39.90 10.18Q39.14 10.18 38.34 10.06Q37.54 9.95 36.99 9.78L36.99 9.78L36.99-0.77L38.96-1.10L38.96 2.66Q39.38 2.46 39.76 2.39Q40.14 2.32 40.53 2.32L40.53 2.32Q41.26 2.32 41.82 2.60Q42.38 2.88 42.76 3.40Q43.14 3.92 43.33 4.64Q43.52 5.36 43.52 6.24ZM57.50 6.30L57.50 6.30Q57.50 5.30 57.10 4.65Q56.70 4 55.89 4L55.89 4Q55.66 4 55.41 4.02Q55.15 4.05 54.98 4.06L54.98 4.06L54.98 8.19Q55.17 8.32 55.49 8.40Q55.81 8.48 56.13 8.48L56.13 8.48Q56.83 8.48 57.17 7.91Q57.50 7.34 57.50 6.30ZM59.50 6.24L59.50 6.24Q59.50 7.10 59.31 7.83Q59.12 8.56 58.75 9.08Q58.38 9.60 57.82 9.89Q57.26 10.18 56.53 10.18L56.53 10.18Q55.78 10.18 54.98 9.81L54.98 9.81L54.98 12.64L53.01 12.64L53.01 2.72Q53.55 2.54 54.34 2.43Q55.14 2.32 55.90 2.32L55.90 2.32Q57.65 2.32 58.58 3.38Q59.50 4.43 59.50 6.24ZM64.02 8.59L64.02 8.59Q64.34 8.59 64.64 8.58Q64.94 8.58 65.17 8.54L65.17 8.54L65.17 6.82Q64.98 6.78 64.70 6.76Q64.43 6.74 64.21 6.74L64.21 6.74Q63.90 6.74 63.62 6.78Q63.33 6.82 63.11 6.91Q62.90 7.01 62.77 7.18Q62.64 7.36 62.64 7.65L62.64 7.65Q62.64 8.16 63.02 8.38Q63.41 8.59 64.02 8.59ZM63.84 2.29L63.84 2.29Q64.77 2.29 65.38 2.50Q66 2.72 66.37 3.11Q66.74 3.50 66.90 4.07Q67.06 4.64 67.06 5.34L67.06 5.34L67.06 9.82Q66.62 9.92 65.78 10.05Q64.93 10.18 63.87 10.18L63.87 10.18Q63.15 10.18 62.57 10.05Q61.98 9.92 61.57 9.62Q61.15 9.33 60.93 8.86Q60.70 8.38 60.70 7.70L60.70 7.70Q60.70 7.04 60.96 6.59Q61.22 6.14 61.65 5.87Q62.08 5.60 62.64 5.48Q63.20 5.36 63.81 5.36L63.81 5.36Q64.58 5.36 65.17 5.49L65.17 5.49L65.17 5.25Q65.17 4.69 64.82 4.31Q64.46 3.94 63.60 3.94L63.60 3.94Q63.04 3.94 62.52 4.02Q62 4.10 61.68 4.21L61.68 4.21L61.41 2.62Q61.78 2.50 62.45 2.39Q63.12 2.29 63.84 2.29ZM70.53 6L70.53 6Q70.53 6.93 70.86 7.42Q71.20 7.90 71.92 7.90L71.92 7.90Q72.24 7.90 72.52 7.82Q72.80 7.74 73.02 7.62L73.02 7.62L73.02 4Q72.80 3.95 72.62 3.94Q72.45 3.92 72.26 3.92L72.26 3.92Q70.53 3.92 70.53 6ZM75.01 2.72L75.01 9.09Q75.01 10.93 74.12 11.81Q73.23 12.69 71.26 12.69L71.26 12.69Q70.56 12.69 69.91 12.54Q69.26 12.40 68.67 12.21L68.67 12.21L69.04 10.54Q69.50 10.72 70.02 10.87Q70.53 11.02 71.30 11.02L71.30 11.02Q71.81 11.02 72.14 10.90Q72.48 10.78 72.67 10.58Q72.86 10.37 72.94 10.09Q73.02 9.81 73.02 9.49L73.02 9.49L73.02 9.18Q72.61 9.34 72.26 9.42Q71.92 9.50 71.52 9.50L71.52 9.50Q70.05 9.50 69.29 8.58Q68.53 7.65 68.53 6L68.53 6Q68.53 4.14 69.55 3.23Q70.58 2.32 72.34 2.32L72.34 2.32Q73.57 2.32 75.01 2.72L75.01 2.72ZM76.50 6.30L76.50 6.30Q76.50 5.31 76.80 4.56Q77.10 3.81 77.60 3.30Q78.10 2.80 78.74 2.54Q79.38 2.29 80.05 2.29L80.05 2.29Q81.71 2.29 82.58 3.27Q83.44 4.26 83.44 6.14L83.44 6.14Q83.44 6.34 83.43 6.54Q83.42 6.75 83.41 6.88L83.41 6.88L78.53 6.88Q78.53 7.62 79.14 8.04Q79.74 8.46 80.70 8.46L80.70 8.46Q81.30 8.46 81.83 8.34Q82.37 8.21 82.74 8.08L82.74 8.08L83.01 9.76Q82.50 9.94 81.92 10.06Q81.34 10.18 80.62 10.18L80.62 10.18Q79.66 10.18 78.90 9.93Q78.14 9.68 77.61 9.19Q77.07 8.70 76.78 7.98Q76.50 7.26 76.50 6.30ZM78.53 5.52L81.54 5.52Q81.54 5.22 81.46 4.94Q81.38 4.66 81.20 4.43Q81.02 4.21 80.75 4.07Q80.48 3.94 80.08 3.94L80.08 3.94Q79.70 3.94 79.42 4.06Q79.14 4.19 78.95 4.42Q78.77 4.64 78.66 4.93Q78.56 5.22 78.53 5.52L78.53 5.52ZM87.65 8.51L87.65 8.51Q88.37 8.51 88.75 8.41Q89.14 8.30 89.14 7.98L89.14 7.98Q89.14 7.78 89.02 7.63Q88.90 7.49 88.68 7.38Q88.46 7.28 88.18 7.18Q87.90 7.09 87.60 6.99L87.60 6.99Q87.17 6.86 86.72 6.70Q86.27 6.53 85.90 6.27Q85.54 6.02 85.30 5.62Q85.06 5.23 85.06 4.64L85.06 4.64Q85.06 4.16 85.24 3.74Q85.42 3.31 85.82 2.98Q86.21 2.66 86.82 2.47Q87.42 2.29 88.27 2.29L88.27 2.29Q89.01 2.29 89.64 2.40Q90.27 2.51 90.74 2.72L90.74 2.72L90.43 4.38Q90.16 4.30 89.58 4.12Q89.01 3.94 88.29 3.94L88.29 3.94Q87.54 3.94 87.27 4.12Q87.01 4.30 87.01 4.51L87.01 4.51Q87.01 4.69 87.13 4.82Q87.25 4.96 87.45 5.07Q87.65 5.18 87.91 5.29Q88.18 5.39 88.48 5.49L88.48 5.49Q88.91 5.63 89.38 5.81Q89.84 5.98 90.22 6.25Q90.59 6.51 90.83 6.92Q91.07 7.33 91.07 7.92L91.07 7.92Q91.07 8.38 90.90 8.80Q90.72 9.22 90.31 9.52Q89.90 9.82 89.25 10Q88.59 10.18 87.63 10.18L87.63 10.18Q86.66 10.18 85.97 9.95Q85.28 9.73 84.86 9.55L84.86 9.55L85.17 7.90Q85.73 8.13 86.36 8.32Q86.99 8.51 87.65 8.51Z"/>
</g>
</svg>