<?xml version="1.0" encoding="UTF-8"?>
<svg height="34" width="150.89999999999998" version="1.1" xmlns="http://www.w3.org/2000/svg"><!--Created by Josélio de S. C. Júnior - 2021 - https://github.com/joseliojunior -->
<rect
    height="32"
    width="148.89999999999998"
    rx="1"
    ry="1"
    x="1" y="1"
    fill="#f1e05a"
    stroke="#563d7c"
    stroke-width="1" />
<g transform="translate(0, 12)">
    <path fill="#e32c26" d="M24.94 2.40L27.10 2.40Q27.20 2.86 27.39 3.53Q27.58 4.20 27.81 5.02Q28.04 5.83 28.32 6.77Q28.59 7.70 28.86 8.69L28.86 8.69Q28.86 7.44 28.83 6.01Q28.81 4.58 28.78 3.10Q28.76 1.61 28.74 0.08Q28.71-1.44 28.71-2.86L28.71-2.86L31.45-2.86Q31.38-1.03 31.30 0.90Q31.23 2.83 31.14 4.74Q31.04 6.65 30.91 8.50Q30.78 10.34 30.61 12L30.61 12L28.16 12Q27.63 10.49 27.10 8.75Q26.58 7.01 26.05 5.42L26.05 5.42Q25.52 6.94 24.94 8.71Q24.37 10.49 23.89 12L23.89 12L21.44 12Q21.25 10.34 21.10 8.48Q20.96 6.62 20.85 4.72Q20.74 2.81 20.67 0.88Q20.60-1.06 20.55-2.86L20.55-2.86L23.29-2.86Q23.26-1.44 23.24 0.07Q23.22 1.58 23.19 3.08Q23.17 4.58 23.14 6.01Q23.12 7.44 23.12 8.69L23.12 8.69Q23.34 7.92 23.61 7.01Q23.89 6.10 24.14 5.21Q24.39 4.32 24.61 3.58Q24.82 2.83 24.94 2.40L24.94 2.40ZM32.74 6.46L32.74 6.46Q32.74 4.97 33.20 3.84Q33.66 2.71 34.40 1.96Q35.14 1.20 36.10 0.82Q37.06 0.43 38.07 0.43L38.07 0.43Q40.57 0.43 41.86 1.91Q43.16 3.38 43.16 6.22L43.16 6.22Q43.16 6.50 43.15 6.82Q43.14 7.13 43.11 7.32L43.11 7.32L35.79 7.32Q35.79 8.42 36.70 9.06Q37.62 9.70 39.06 9.70L39.06 9.70Q39.94 9.70 40.75 9.50Q41.55 9.31 42.10 9.12L42.10 9.12L42.51 11.64Q41.74 11.90 40.88 12.08Q40.02 12.26 38.94 12.26L38.94 12.26Q37.50 12.26 36.36 11.89Q35.22 11.52 34.41 10.79Q33.61 10.06 33.18 8.98Q32.74 7.90 32.74 6.46ZM35.79 5.28L40.30 5.28Q40.30 4.82 40.18 4.40Q40.06 3.98 39.80 3.65Q39.54 3.31 39.13 3.11Q38.72 2.90 38.12 2.90L38.12 2.90Q37.54 2.90 37.12 3.10Q36.70 3.29 36.43 3.62Q36.15 3.96 36.00 4.39Q35.84 4.82 35.79 5.28L35.79 5.28ZM52.28 6.29L52.28 6.29Q52.28 4.70 51.76 3.86Q51.25 3.02 50.19 3.02L50.19 3.02Q49.71 3.02 49.24 3.16Q48.78 3.29 48.44 3.48L48.44 3.48L48.44 9.60Q48.78 9.67 49.15 9.70Q49.52 9.72 49.78 9.72L49.78 9.72Q50.94 9.72 51.61 8.94Q52.28 8.16 52.28 6.29ZM55.28 6.36L55.28 6.36Q55.28 7.70 54.92 8.80Q54.56 9.89 53.86 10.66Q53.17 11.42 52.16 11.84Q51.15 12.26 49.86 12.26L49.86 12.26Q48.70 12.26 47.50 12.10Q46.30 11.93 45.49 11.66L45.49 11.66L45.49-4.15L48.44-4.66L48.44 0.98Q49.06 0.70 49.64 0.59Q50.22 0.48 50.79 0.48L50.79 0.48Q51.90 0.48 52.74 0.90Q53.58 1.32 54.14 2.10Q54.70 2.88 54.99 3.96Q55.28 5.04 55.28 6.36ZM76.26 6.46L76.26 6.46Q76.26 4.94 75.66 3.97Q75.06 3 73.83 3L73.83 3Q73.50 3 73.11 3.04Q72.73 3.07 72.46 3.10L72.46 3.10L72.46 9.29Q72.75 9.48 73.23 9.60Q73.71 9.72 74.19 9.72L74.19 9.72Q75.25 9.72 75.75 8.87Q76.26 8.02 76.26 6.46ZM79.26 6.36L79.26 6.36Q79.26 7.66 78.97 8.75Q78.68 9.84 78.13 10.62Q77.58 11.40 76.74 11.83Q75.90 12.26 74.79 12.26L74.79 12.26Q73.66 12.26 72.46 11.71L72.46 11.71L72.46 15.96L69.51 15.96L69.51 1.08Q70.33 0.82 71.52 0.65Q72.70 0.48 73.86 0.48L73.86 0.48Q76.47 0.48 77.86 2.06Q79.26 3.65 79.26 6.36ZM86.02 9.89L86.02 9.89Q86.50 9.89 86.96 9.88Q87.42 9.86 87.75 9.82L87.75 9.82L87.75 7.22Q87.46 7.18 87.06 7.14Q86.65 7.10 86.31 7.10L86.31 7.10Q85.86 7.10 85.42 7.16Q84.99 7.22 84.67 7.37Q84.34 7.51 84.15 7.78Q83.96 8.04 83.96 8.47L83.96 8.47Q83.96 9.24 84.54 9.56Q85.11 9.89 86.02 9.89ZM85.76 0.43L85.76 0.43Q87.15 0.43 88.08 0.76Q89 1.08 89.55 1.67Q90.10 2.26 90.34 3.11Q90.58 3.96 90.58 5.02L90.58 5.02L90.58 11.74Q89.94 11.88 88.66 12.07Q87.39 12.26 85.81 12.26L85.81 12.26Q84.73 12.26 83.85 12.07Q82.98 11.88 82.35 11.44Q81.73 10.99 81.39 10.28Q81.06 9.58 81.06 8.54L81.06 8.54Q81.06 7.56 81.44 6.89Q81.82 6.22 82.47 5.81Q83.12 5.40 83.96 5.22Q84.80 5.04 85.71 5.04L85.71 5.04Q86.86 5.04 87.75 5.23L87.75 5.23L87.75 4.87Q87.75 4.03 87.22 3.47Q86.70 2.90 85.40 2.90L85.40 2.90Q84.56 2.90 83.78 3.02Q83 3.14 82.52 3.31L82.52 3.31L82.11 0.94Q82.66 0.74 83.67 0.59Q84.68 0.43 85.76 0.43ZM95.79 6L95.79 6Q95.79 7.39 96.30 8.12Q96.80 8.86 97.88 8.86L97.88 8.86Q98.36 8.86 98.78 8.74Q99.20 8.62 99.54 8.42L99.54 8.42L99.54 3Q99.20 2.93 98.94 2.90Q98.67 2.88 98.38 2.88L98.38 2.88Q95.79 2.88 95.79 6ZM102.51 1.08L102.51 10.63Q102.51 13.39 101.18 14.71Q99.85 16.03 96.90 16.03L96.90 16.03Q95.84 16.03 94.87 15.82Q93.90 15.60 93.01 15.31L93.01 15.31L93.56 12.82Q94.26 13.08 95.02 13.31Q95.79 13.54 96.94 13.54L96.94 13.54Q97.71 13.54 98.22 13.36Q98.72 13.18 99.01 12.86Q99.30 12.55 99.42 12.13Q99.54 11.71 99.54 11.23L99.54 11.23L99.54 10.78Q98.91 11.02 98.40 11.14Q97.88 11.26 97.28 11.26L97.28 11.26Q95.07 11.26 93.93 9.86Q92.79 8.47 92.79 6L92.79 6Q92.79 3.22 94.33 1.85Q95.86 0.48 98.50 0.48L98.50 0.48Q100.35 0.48 102.51 1.08L102.51 1.08ZM104.74 6.46L104.74 6.46Q104.74 4.97 105.20 3.84Q105.66 2.71 106.40 1.96Q107.14 1.20 108.10 0.82Q109.06 0.43 110.07 0.43L110.07 0.43Q112.57 0.43 113.86 1.91Q115.16 3.38 115.16 6.22L115.16 6.22Q115.16 6.50 115.15 6.82Q115.14 7.13 115.11 7.32L115.11 7.32L107.79 7.32Q107.79 8.42 108.70 9.06Q109.62 9.70 111.06 9.70L111.06 9.70Q111.94 9.70 112.75 9.50Q113.55 9.31 114.10 9.12L114.10 9.12L114.51 11.64Q113.74 11.90 112.88 12.08Q112.02 12.26 110.94 12.26L110.94 12.26Q109.50 12.26 108.36 11.89Q107.22 11.52 106.41 10.79Q105.61 10.06 105.18 8.98Q104.74 7.90 104.74 6.46ZM107.79 5.28L112.30 5.28Q112.30 4.82 112.18 4.40Q112.06 3.98 111.80 3.65Q111.54 3.31 111.13 3.11Q110.72 2.90 110.12 2.90L110.12 2.90Q109.54 2.90 109.12 3.10Q108.70 3.29 108.43 3.62Q108.15 3.96 108.00 4.39Q107.84 4.82 107.79 5.28L107.79 5.28ZM121.47 9.77L121.47 9.77Q122.55 9.77 123.13 9.61Q123.70 9.46 123.70 8.98L123.70 8.98Q123.70 8.66 123.52 8.45Q123.34 8.23 123.02 8.08Q122.70 7.92 122.28 7.78Q121.86 7.63 121.40 7.49L121.40 7.49Q120.75 7.30 120.08 7.04Q119.41 6.79 118.86 6.41Q118.30 6.02 117.94 5.44Q117.58 4.85 117.58 3.96L117.58 3.96Q117.58 3.24 117.86 2.60Q118.14 1.97 118.72 1.48Q119.31 0.98 120.22 0.71Q121.14 0.43 122.41 0.43L122.41 0.43Q123.51 0.43 124.46 0.60Q125.41 0.77 126.10 1.08L126.10 1.08L125.65 3.58Q125.24 3.46 124.38 3.18Q123.51 2.90 122.43 2.90L122.43 2.90Q121.30 2.90 120.91 3.18Q120.51 3.46 120.51 3.77L120.51 3.77Q120.51 4.03 120.69 4.24Q120.87 4.44 121.17 4.61Q121.47 4.78 121.87 4.93Q122.26 5.09 122.72 5.23L122.72 5.23Q123.37 5.45 124.06 5.71Q124.76 5.98 125.32 6.37Q125.89 6.77 126.25 7.38Q126.61 7.99 126.61 8.88L126.61 8.88Q126.61 9.58 126.34 10.20Q126.08 10.82 125.47 11.28Q124.86 11.74 123.87 12Q122.89 12.26 121.45 12.26L121.45 12.26Q119.98 12.26 118.95 11.93Q117.92 11.59 117.30 11.33L117.30 11.33L117.75 8.86Q118.59 9.19 119.54 9.48Q120.49 9.77 121.47 9.77Z"/>
</g>
</svg>