<?xml version="1.0" encoding="UTF-8"?><svg height="26" width="179.7" version="1.1" xmlns="http://www.w3.org/2000/svg"><!--Created by Josélio de S. C. Júnior - 2021 - https://github.com/joseliojunior --><rect height="24" width="177.7" rx="12" ry="12" x="1" y="1" fill="#4d41b1" stroke="#1b173f" stroke-width="1" /><g transform="translate(0, 8)"><path fill="#1b173f" d="M22.98 10L21.01 10L21.01 0.10L27.07 0.10L27.07 1.73L22.98 1.73L22.98 4.13L26.56 4.13L26.56 5.76L22.98 5.76L22.98 10ZM35.55 6.22L35.55 6.22Q35.55 7.12 35.30 7.85Q35.04 8.58 34.58 9.10Q34.11 9.63 33.46 9.92Q32.82 10.21 32.02 10.21L32.02 10.21Q31.22 10.21 30.57 9.92Q29.92 9.63 29.45 9.10Q28.98 8.58 28.72 7.85Q28.46 7.12 28.46 6.22L28.46 6.22Q28.46 5.34 28.73 4.62Q28.99 3.89 29.46 3.37Q29.94 2.85 30.59 2.57Q31.25 2.29 32.02 2.29L32.02 2.29Q32.80 2.29 33.45 2.57Q34.10 2.85 34.57 3.37Q35.04 3.89 35.30 4.62Q35.55 5.34 35.55 6.22ZM30.46 6.24L30.46 6.24Q30.46 7.25 30.82 7.87Q31.18 8.50 31.98 8.50L31.98 8.50Q32.75 8.50 33.14 7.87Q33.54 7.25 33.54 6.24L33.54 6.24Q33.54 5.23 33.18 4.62Q32.82 4 32.02 4L32.02 4Q31.25 4 30.86 4.62Q30.46 5.23 30.46 6.24ZM43.34 2.66L42.99 4.48Q42.80 4.43 42.54 4.38Q42.27 4.34 42 4.30Q41.73 4.26 41.47 4.24Q41.22 4.22 41.04 4.22L41.04 4.22Q40.62 4.22 40.22 4.26Q39.82 4.30 39.41 4.42L39.41 4.42L39.41 10L37.42 10L37.42 2.98Q38.21 2.69 39.03 2.51Q39.86 2.34 40.96 2.34L40.96 2.34Q41.12 2.34 41.42 2.35Q41.71 2.37 42.05 2.41Q42.38 2.45 42.73 2.50Q43.07 2.56 43.34 2.66L43.34 2.66ZM46.29 7.20L46.29 4.11L44.58 4.11L44.58 2.48L46.29 2.48L46.29 0.59L48.26 0.27L48.26 2.48L51.41 2.48L51.41 4.11L48.26 4.11L48.26 7.15Q48.26 7.57 48.34 7.82Q48.42 8.08 48.56 8.22Q48.70 8.37 48.91 8.42Q49.12 8.46 49.38 8.46L49.38 8.46Q49.65 8.46 49.88 8.45Q50.11 8.43 50.33 8.39Q50.54 8.35 50.78 8.27Q51.01 8.19 51.28 8.06L51.28 8.06L51.55 9.76Q51.01 9.98 50.38 10.08Q49.74 10.18 49.15 10.18L49.15 10.18Q48.46 10.18 47.94 10.06Q47.41 9.95 47.04 9.63Q46.67 9.31 46.48 8.73Q46.29 8.14 46.29 7.20L46.29 7.20ZM59.34 2.66L58.99 4.48Q58.80 4.43 58.54 4.38Q58.27 4.34 58 4.30Q57.73 4.26 57.47 4.24Q57.22 4.22 57.04 4.22L57.04 4.22Q56.62 4.22 56.22 4.26Q55.82 4.30 55.41 4.42L55.41 4.42L55.41 10L53.42 10L53.42 2.98Q54.21 2.69 55.03 2.51Q55.86 2.34 56.96 2.34L56.96 2.34Q57.12 2.34 57.42 2.35Q57.71 2.37 58.05 2.41Q58.38 2.45 58.73 2.50Q59.07 2.56 59.34 2.66L59.34 2.66ZM64.02 8.59L64.02 8.59Q64.34 8.59 64.64 8.58Q64.94 8.58 65.17 8.54L65.17 8.54L65.17 6.82Q64.98 6.78 64.70 6.76Q64.43 6.74 64.21 6.74L64.21 6.74Q63.90 6.74 63.62 6.78Q63.33 6.82 63.11 6.91Q62.90 7.01 62.77 7.18Q62.64 7.36 62.64 7.65L62.64 7.65Q62.64 8.16 63.02 8.38Q63.41 8.59 64.02 8.59ZM63.84 2.29L63.84 2.29Q64.77 2.29 65.38 2.50Q66 2.72 66.37 3.11Q66.74 3.50 66.90 4.07Q67.06 4.64 67.06 5.34L67.06 5.34L67.06 9.82Q66.62 9.92 65.78 10.05Q64.93 10.18 63.87 10.18L63.87 10.18Q63.15 10.18 62.57 10.05Q61.98 9.92 61.57 9.62Q61.15 9.33 60.93 8.86Q60.70 8.38 60.70 7.70L60.70 7.70Q60.70 7.04 60.96 6.59Q61.22 6.14 61.65 5.87Q62.08 5.60 62.64 5.48Q63.20 5.36 63.81 5.36L63.81 5.36Q64.58 5.36 65.17 5.49L65.17 5.49L65.17 5.25Q65.17 4.69 64.82 4.31Q64.46 3.94 63.60 3.94L63.60 3.94Q63.04 3.94 62.52 4.02Q62 4.10 61.68 4.21L61.68 4.21L61.41 2.62Q61.78 2.50 62.45 2.39Q63.12 2.29 63.84 2.29ZM69.01 10L69.01 2.72Q69.54 2.58 70.31 2.45Q71.09 2.32 72 2.32L72 2.32Q72.90 2.32 73.49 2.57Q74.08 2.82 74.42 3.27Q74.77 3.73 74.91 4.36Q75.06 4.99 75.06 5.76L75.06 5.76L75.06 10L73.09 10L73.09 6.02Q73.09 4.96 72.85 4.50Q72.61 4.03 71.87 4.03L71.87 4.03Q71.65 4.03 71.43 4.05Q71.22 4.06 70.98 4.10L70.98 4.10L70.98 10L69.01 10ZM86.98 10L85.01 10L85.01 0.10L91.07 0.10L91.07 1.73L86.98 1.73L86.98 4.13L90.56 4.13L90.56 5.76L86.98 5.76L86.98 10ZM99.34 2.66L98.99 4.48Q98.80 4.43 98.54 4.38Q98.27 4.34 98 4.30Q97.73 4.26 97.47 4.24Q97.22 4.22 97.04 4.22L97.04 4.22Q96.62 4.22 96.22 4.26Q95.82 4.30 95.41 4.42L95.41 4.42L95.41 10L93.42 10L93.42 2.98Q94.21 2.69 95.03 2.51Q95.86 2.34 96.96 2.34L96.96 2.34Q97.12 2.34 97.42 2.35Q97.71 2.37 98.05 2.41Q98.38 2.45 98.73 2.50Q99.07 2.56 99.34 2.66L99.34 2.66ZM100.50 6.30L100.50 6.30Q100.50 5.31 100.80 4.56Q101.10 3.81 101.60 3.30Q102.10 2.80 102.74 2.54Q103.38 2.29 104.05 2.29L104.05 2.29Q105.71 2.29 106.58 3.27Q107.44 4.26 107.44 6.14L107.44 6.14Q107.44 6.34 107.43 6.54Q107.42 6.75 107.41 6.88L107.41 6.88L102.53 6.88Q102.53 7.62 103.14 8.04Q103.74 8.46 104.70 8.46L104.70 8.46Q105.30 8.46 105.83 8.34Q106.37 8.21 106.74 8.08L106.74 8.08L107.01 9.76Q106.50 9.94 105.92 10.06Q105.34 10.18 104.62 10.18L104.62 10.18Q103.66 10.18 102.90 9.93Q102.14 9.68 101.61 9.19Q101.07 8.70 100.78 7.98Q100.50 7.26 100.50 6.30ZM102.53 5.52L105.54 5.52Q105.54 5.22 105.46 4.94Q105.38 4.66 105.20 4.43Q105.02 4.21 104.75 4.07Q104.48 3.94 104.08 3.94L104.08 3.94Q103.70 3.94 103.42 4.06Q103.14 4.19 102.95 4.42Q102.77 4.64 102.66 4.93Q102.56 5.22 102.53 5.52L102.53 5.52ZM108.50 6.30L108.50 6.30Q108.50 5.31 108.80 4.56Q109.10 3.81 109.60 3.30Q110.10 2.80 110.74 2.54Q111.38 2.29 112.05 2.29L112.05 2.29Q113.71 2.29 114.58 3.27Q115.44 4.26 115.44 6.14L115.44 6.14Q115.44 6.34 115.43 6.54Q115.42 6.75 115.41 6.88L115.41 6.88L110.53 6.88Q110.53 7.62 111.14 8.04Q111.74 8.46 112.70 8.46L112.70 8.46Q113.30 8.46 113.83 8.34Q114.37 8.21 114.74 8.08L114.74 8.08L115.01 9.76Q114.50 9.94 113.92 10.06Q113.34 10.18 112.62 10.18L112.62 10.18Q111.66 10.18 110.90 9.93Q110.14 9.68 109.61 9.19Q109.07 8.70 108.78 7.98Q108.50 7.26 108.50 6.30ZM110.53 5.52L113.54 5.52Q113.54 5.22 113.46 4.94Q113.38 4.66 113.20 4.43Q113.02 4.21 112.75 4.07Q112.48 3.94 112.08 3.94L112.08 3.94Q111.70 3.94 111.42 4.06Q111.14 4.19 110.95 4.42Q110.77 4.64 110.66 4.93Q110.56 5.22 110.53 5.52L110.53 5.52ZM126.98 10L125.01 10L125.01 0.10L131.07 0.10L131.07 1.73L126.98 1.73L126.98 4.13L130.56 4.13L130.56 5.76L126.98 5.76L126.98 10ZM139.55 6.22L139.55 6.22Q139.55 7.12 139.30 7.85Q139.04 8.58 138.58 9.10Q138.11 9.63 137.46 9.92Q136.82 10.21 136.02 10.21L136.02 10.21Q135.22 10.21 134.57 9.92Q133.92 9.63 133.45 9.10Q132.98 8.58 132.72 7.85Q132.46 7.12 132.46 6.22L132.46 6.22Q132.46 5.34 132.73 4.62Q132.99 3.89 133.46 3.37Q133.94 2.85 134.59 2.57Q135.25 2.29 136.02 2.29L136.02 2.29Q136.80 2.29 137.45 2.57Q138.10 2.85 138.57 3.37Q139.04 3.89 139.30 4.62Q139.55 5.34 139.55 6.22ZM134.46 6.24L134.46 6.24Q134.46 7.25 134.82 7.87Q135.18 8.50 135.98 8.50L135.98 8.50Q136.75 8.50 137.14 7.87Q137.54 7.25 137.54 6.24L137.54 6.24Q137.54 5.23 137.18 4.62Q136.82 4 136.02 4L136.02 4Q135.25 4 134.86 4.62Q134.46 5.23 134.46 6.24ZM147.34 2.66L146.99 4.48Q146.80 4.43 146.54 4.38Q146.27 4.34 146 4.30Q145.73 4.26 145.47 4.24Q145.22 4.22 145.04 4.22L145.04 4.22Q144.62 4.22 144.22 4.26Q143.82 4.30 143.41 4.42L143.41 4.42L143.41 10L141.42 10L141.42 2.98Q142.21 2.69 143.03 2.51Q143.86 2.34 144.96 2.34L144.96 2.34Q145.12 2.34 145.42 2.35Q145.71 2.37 146.05 2.41Q146.38 2.45 146.73 2.50Q147.07 2.56 147.34 2.66L147.34 2.66ZM153.49 2.40L153.49 2.40Q154.11 2.40 154.51 2.59Q154.91 2.78 155.14 3.17Q155.38 3.55 155.46 4.14Q155.54 4.72 155.54 5.50L155.54 5.50L155.54 10L153.94 10L153.94 5.41Q153.94 4.96 153.88 4.69Q153.82 4.42 153.74 4.27Q153.65 4.13 153.53 4.08Q153.41 4.03 153.28 4.03L153.28 4.03Q153.14 4.03 152.98 4.06Q152.82 4.08 152.69 4.14L152.69 4.14Q152.74 4.45 152.77 4.82Q152.80 5.18 152.80 5.63L152.80 5.63L152.80 7.14L151.20 7.14L151.20 5.41Q151.20 4.64 151.05 4.34Q150.90 4.03 150.56 4.03L150.56 4.03Q150.46 4.03 150.33 4.05Q150.19 4.06 150.06 4.10L150.06 4.10L150.06 10L148.46 10L148.46 2.77Q149.09 2.59 149.70 2.50Q150.30 2.40 150.77 2.40L150.77 2.40Q151.18 2.40 151.51 2.50Q151.84 2.61 152.08 2.85L152.08 2.85Q152.35 2.67 152.72 2.54Q153.09 2.40 153.49 2.40Z"/></g></svg>