<?xml version="1.0" encoding="UTF-8"?>
<svg height="34" width="247.7" version="1.1" xmlns="http://www.w3.org/2000/svg"><!--Created by Josélio de S. C. Júnior - 2021 - https://github.com/joseliojunior -->
    <rect
        height="32"
        width="245.7"
        rx="1"
        ry="1"
        x="1" y="1"
        fill="#4d41b1"
        stroke="#1b173f"
        stroke-width="1" />
    <g transform="translate(0, 12)">
        <path fill="#1b173f" stroke="none" d="M24.46 12L21.51 12L21.51-2.86L30.61-2.86L30.61-0.41L24.46-0.41L24.46 3.19L29.84 3.19L29.84 5.64L24.46 5.64L24.46 12ZM43.33 6.34L43.33 6.34Q43.33 7.68 42.94 8.77Q42.56 9.86 41.86 10.66Q41.17 11.45 40.20 11.88Q39.22 12.31 38.02 12.31L38.02 12.31Q36.82 12.31 35.85 11.88Q34.88 11.45 34.17 10.66Q33.46 9.86 33.08 8.77Q32.70 7.68 32.70 6.34L32.70 6.34Q32.70 5.02 33.09 3.92Q33.49 2.83 34.20 2.05Q34.90 1.27 35.89 0.85Q36.87 0.43 38.02 0.43L38.02 0.43Q39.20 0.43 40.17 0.85Q41.14 1.27 41.85 2.05Q42.56 2.83 42.94 3.92Q43.33 5.02 43.33 6.34ZM35.70 6.36L35.70 6.36Q35.70 7.87 36.24 8.81Q36.78 9.74 37.98 9.74L37.98 9.74Q39.13 9.74 39.72 8.81Q40.30 7.87 40.30 6.36L40.30 6.36Q40.30 4.85 39.76 3.92Q39.22 3 38.02 3L38.02 3Q36.87 3 36.28 3.92Q35.70 4.85 35.70 6.36ZM55.02 0.98L54.49 3.72Q54.20 3.65 53.80 3.58Q53.41 3.50 53 3.44Q52.59 3.38 52.21 3.36Q51.82 3.34 51.56 3.34L51.56 3.34Q50.94 3.34 50.34 3.40Q49.74 3.46 49.11 3.62L49.11 3.62L49.11 12L46.14 12L46.14 1.46Q47.31 1.03 48.55 0.77Q49.78 0.50 51.44 0.50L51.44 0.50Q51.68 0.50 52.12 0.53Q52.57 0.55 53.07 0.61Q53.58 0.67 54.09 0.76Q54.61 0.84 55.02 0.98L55.02 0.98ZM59.43 7.80L59.43 3.17L56.86 3.17L56.86 0.72L59.43 0.72L59.43-2.11L62.38-2.59L62.38 0.72L67.11 0.72L67.11 3.17L62.38 3.17L62.38 7.73Q62.38 8.35 62.50 8.74Q62.62 9.12 62.84 9.34Q63.06 9.55 63.37 9.62Q63.68 9.70 64.06 9.70L64.06 9.70Q64.47 9.70 64.82 9.67Q65.17 9.65 65.49 9.59Q65.82 9.53 66.16 9.41Q66.51 9.29 66.92 9.10L66.92 9.10L67.33 11.64Q66.51 11.98 65.56 12.12Q64.62 12.26 63.73 12.26L63.73 12.26Q62.70 12.26 61.90 12.10Q61.11 11.93 60.56 11.45Q60.01 10.97 59.72 10.09Q59.43 9.22 59.43 7.80L59.43 7.80ZM79.02 0.98L78.49 3.72Q78.20 3.65 77.80 3.58Q77.41 3.50 77 3.44Q76.59 3.38 76.21 3.36Q75.82 3.34 75.56 3.34L75.56 3.34Q74.94 3.34 74.34 3.40Q73.74 3.46 73.11 3.62L73.11 3.62L73.11 12L70.14 12L70.14 1.46Q71.31 1.03 72.55 0.77Q73.78 0.50 75.44 0.50L75.44 0.50Q75.68 0.50 76.12 0.53Q76.57 0.55 77.07 0.61Q77.58 0.67 78.09 0.76Q78.61 0.84 79.02 0.98L79.02 0.98ZM86.02 9.89L86.02 9.89Q86.50 9.89 86.96 9.88Q87.42 9.86 87.75 9.82L87.75 9.82L87.75 7.22Q87.46 7.18 87.06 7.14Q86.65 7.10 86.31 7.10L86.31 7.10Q85.86 7.10 85.42 7.16Q84.99 7.22 84.67 7.37Q84.34 7.51 84.15 7.78Q83.96 8.04 83.96 8.47L83.96 8.47Q83.96 9.24 84.54 9.56Q85.11 9.89 86.02 9.89ZM85.76 0.43L85.76 0.43Q87.15 0.43 88.08 0.76Q89 1.08 89.55 1.67Q90.10 2.26 90.34 3.11Q90.58 3.96 90.58 5.02L90.58 5.02L90.58 11.74Q89.94 11.88 88.66 12.07Q87.39 12.26 85.81 12.26L85.81 12.26Q84.73 12.26 83.85 12.07Q82.98 11.88 82.35 11.44Q81.73 10.99 81.39 10.28Q81.06 9.58 81.06 8.54L81.06 8.54Q81.06 7.56 81.44 6.89Q81.82 6.22 82.47 5.81Q83.12 5.40 83.96 5.22Q84.80 5.04 85.71 5.04L85.71 5.04Q86.86 5.04 87.75 5.23L87.75 5.23L87.75 4.87Q87.75 4.03 87.22 3.47Q86.70 2.90 85.40 2.90L85.40 2.90Q84.56 2.90 83.78 3.02Q83 3.14 82.52 3.31L82.52 3.31L82.11 0.94Q82.66 0.74 83.67 0.59Q84.68 0.43 85.76 0.43ZM93.51 12L93.51 1.08Q94.30 0.86 95.47 0.67Q96.63 0.48 98 0.48L98 0.48Q99.34 0.48 100.23 0.85Q101.12 1.22 101.64 1.91Q102.15 2.59 102.37 3.54Q102.58 4.49 102.58 5.64L102.58 5.64L102.58 12L99.63 12L99.63 6.02Q99.63 4.44 99.27 3.74Q98.91 3.05 97.81 3.05L97.81 3.05Q97.47 3.05 97.15 3.07Q96.82 3.10 96.46 3.14L96.46 3.14L96.46 12L93.51 12ZM120.46 12L117.51 12L117.51-2.86L126.61-2.86L126.61-0.41L120.46-0.41L120.46 3.19L125.84 3.19L125.84 5.64L120.46 5.64L120.46 12ZM139.02 0.98L138.49 3.72Q138.20 3.65 137.80 3.58Q137.41 3.50 137 3.44Q136.59 3.38 136.21 3.36Q135.82 3.34 135.56 3.34L135.56 3.34Q134.94 3.34 134.34 3.40Q133.74 3.46 133.11 3.62L133.11 3.62L133.11 12L130.14 12L130.14 1.46Q131.31 1.03 132.55 0.77Q133.78 0.50 135.44 0.50L135.44 0.50Q135.68 0.50 136.12 0.53Q136.57 0.55 137.07 0.61Q137.58 0.67 138.09 0.76Q138.61 0.84 139.02 0.98L139.02 0.98ZM140.74 6.46L140.74 6.46Q140.74 4.97 141.20 3.84Q141.66 2.71 142.40 1.96Q143.14 1.20 144.10 0.82Q145.06 0.43 146.07 0.43L146.07 0.43Q148.57 0.43 149.86 1.91Q151.16 3.38 151.16 6.22L151.16 6.22Q151.16 6.50 151.15 6.82Q151.14 7.13 151.11 7.32L151.11 7.32L143.79 7.32Q143.79 8.42 144.70 9.06Q145.62 9.70 147.06 9.70L147.06 9.70Q147.94 9.70 148.75 9.50Q149.55 9.31 150.10 9.12L150.10 9.12L150.51 11.64Q149.74 11.90 148.88 12.08Q148.02 12.26 146.94 12.26L146.94 12.26Q145.50 12.26 144.36 11.89Q143.22 11.52 142.41 10.79Q141.61 10.06 141.18 8.98Q140.74 7.90 140.74 6.46ZM143.79 5.28L148.30 5.28Q148.30 4.82 148.18 4.40Q148.06 3.98 147.80 3.65Q147.54 3.31 147.13 3.11Q146.72 2.90 146.12 2.90L146.12 2.90Q145.54 2.90 145.12 3.10Q144.70 3.29 144.43 3.62Q144.15 3.96 144.00 4.39Q143.84 4.82 143.79 5.28L143.79 5.28ZM152.74 6.46L152.74 6.46Q152.74 4.97 153.20 3.84Q153.66 2.71 154.40 1.96Q155.14 1.20 156.10 0.82Q157.06 0.43 158.07 0.43L158.07 0.43Q160.57 0.43 161.86 1.91Q163.16 3.38 163.16 6.22L163.16 6.22Q163.16 6.50 163.15 6.82Q163.14 7.13 163.11 7.32L163.11 7.32L155.79 7.32Q155.79 8.42 156.70 9.06Q157.62 9.70 159.06 9.70L159.06 9.70Q159.94 9.70 160.75 9.50Q161.55 9.31 162.10 9.12L162.10 9.12L162.51 11.64Q161.74 11.90 160.88 12.08Q160.02 12.26 158.94 12.26L158.94 12.26Q157.50 12.26 156.36 11.89Q155.22 11.52 154.41 10.79Q153.61 10.06 153.18 8.98Q152.74 7.90 152.74 6.46ZM155.79 5.28L160.30 5.28Q160.30 4.82 160.18 4.40Q160.06 3.98 159.80 3.65Q159.54 3.31 159.13 3.11Q158.72 2.90 158.12 2.90L158.12 2.90Q157.54 2.90 157.12 3.10Q156.70 3.29 156.43 3.62Q156.15 3.96 156.00 4.39Q155.84 4.82 155.79 5.28L155.79 5.28ZM180.46 12L177.51 12L177.51-2.86L186.61-2.86L186.61-0.41L180.46-0.41L180.46 3.19L185.84 3.19L185.84 5.64L180.46 5.64L180.46 12ZM199.33 6.34L199.33 6.34Q199.33 7.68 198.94 8.77Q198.56 9.86 197.86 10.66Q197.17 11.45 196.20 11.88Q195.22 12.31 194.02 12.31L194.02 12.31Q192.82 12.31 191.85 11.88Q190.88 11.45 190.17 10.66Q189.46 9.86 189.08 8.77Q188.70 7.68 188.70 6.34L188.70 6.34Q188.70 5.02 189.09 3.92Q189.49 2.83 190.20 2.05Q190.90 1.27 191.89 0.85Q192.87 0.43 194.02 0.43L194.02 0.43Q195.20 0.43 196.17 0.85Q197.14 1.27 197.85 2.05Q198.56 2.83 198.94 3.92Q199.33 5.02 199.33 6.34ZM191.70 6.36L191.70 6.36Q191.70 7.87 192.24 8.81Q192.78 9.74 193.98 9.74L193.98 9.74Q195.13 9.74 195.72 8.81Q196.30 7.87 196.30 6.36L196.30 6.36Q196.30 4.85 195.76 3.92Q195.22 3 194.02 3L194.02 3Q192.87 3 192.28 3.92Q191.70 4.85 191.70 6.36ZM211.02 0.98L210.49 3.72Q210.20 3.65 209.80 3.58Q209.41 3.50 209 3.44Q208.59 3.38 208.21 3.36Q207.82 3.34 207.56 3.34L207.56 3.34Q206.94 3.34 206.34 3.40Q205.74 3.46 205.11 3.62L205.11 3.62L205.11 12L202.14 12L202.14 1.46Q203.31 1.03 204.55 0.77Q205.78 0.50 207.44 0.50L207.44 0.50Q207.68 0.50 208.12 0.53Q208.57 0.55 209.07 0.61Q209.58 0.67 210.09 0.76Q210.61 0.84 211.02 0.98L211.02 0.98ZM220.23 0.60L220.23 0.60Q221.17 0.60 221.77 0.89Q222.37 1.18 222.72 1.75Q223.06 2.33 223.18 3.20Q223.30 4.08 223.30 5.26L223.30 5.26L223.30 12L220.90 12L220.90 5.11Q220.90 4.44 220.82 4.03Q220.74 3.62 220.60 3.41Q220.47 3.19 220.29 3.12Q220.11 3.05 219.92 3.05L219.92 3.05Q219.70 3.05 219.46 3.08Q219.22 3.12 219.03 3.22L219.03 3.22Q219.10 3.67 219.15 4.22Q219.20 4.78 219.20 5.45L219.20 5.45L219.20 7.70L216.80 7.70L216.80 5.11Q216.80 3.96 216.57 3.50Q216.34 3.05 215.84 3.05L215.84 3.05Q215.70 3.05 215.49 3.07Q215.29 3.10 215.10 3.14L215.10 3.14L215.10 12L212.70 12L212.70 1.15Q213.63 0.89 214.54 0.74Q215.46 0.60 216.15 0.60L216.15 0.60Q216.78 0.60 217.27 0.76Q217.76 0.91 218.12 1.27L218.12 1.27Q218.53 1.01 219.08 0.80Q219.63 0.60 220.23 0.60Z"/>
    </g>
</svg>