<?xml version="1.0" encoding="UTF-8"?>
<svg height="34" width="261.7" version="1.1" xmlns="http://www.w3.org/2000/svg">
    <rect
        height="32"
        width="259.7"
        rx="1"
        ry="1"
        x="1"
        y="1"
        fill="#4d41b1"
        stroke="#1b173f"
        stroke-width="1"
         />
    <g transform="translate(0, 14)">
        <path fill="#1b173f" d="M15.21 11L11.76 11L11.76-6.33L22.38-6.33L22.38-3.48L15.21-3.48L15.21 0.72L21.48 0.72L21.48 3.58L15.21 3.58L15.21 11ZM37.22 4.39L37.22 4.39Q37.22 5.96 36.77 7.23Q36.32 8.51 35.51 9.43Q34.70 10.36 33.56 10.86Q32.43 11.36 31.03 11.36L31.03 11.36Q29.63 11.36 28.49 10.86Q27.36 10.36 26.53 9.43Q25.71 8.51 25.26 7.23Q24.81 5.96 24.81 4.39L24.81 4.39Q24.81 2.85 25.27 1.58Q25.74 0.30 26.56-0.61Q27.39-1.52 28.54-2.01Q29.68-2.50 31.03-2.50L31.03-2.50Q32.40-2.50 33.53-2.01Q34.67-1.52 35.49-0.61Q36.32 0.30 36.77 1.58Q37.22 2.85 37.22 4.39ZM28.31 4.42L28.31 4.42Q28.31 6.18 28.94 7.28Q29.57 8.37 30.97 8.37L30.97 8.37Q32.32 8.37 33.00 7.28Q33.69 6.18 33.69 4.42L33.69 4.42Q33.69 2.66 33.06 1.58Q32.43 0.50 31.03 0.50L31.03 0.50Q29.68 0.50 29.00 1.58Q28.31 2.66 28.31 4.42ZM50.85-1.85L50.24 1.34Q49.90 1.26 49.44 1.17Q48.98 1.09 48.50 1.02Q48.02 0.95 47.58 0.92Q47.13 0.89 46.82 0.89L46.82 0.89Q46.09 0.89 45.39 0.96Q44.69 1.03 43.96 1.23L43.96 1.23L43.96 11L40.49 11L40.49-1.29Q41.86-1.80 43.31-2.10Q44.75-2.41 46.68-2.41L46.68-2.41Q46.96-2.41 47.48-2.38Q48.00-2.36 48.58-2.29Q49.17-2.22 49.77-2.12Q50.38-2.02 50.85-1.85L50.85-1.85ZM56.00 6.10L56.00 0.70L53.01 0.70L53.01-2.16L56.00-2.16L56.00-5.46L59.45-6.02L59.45-2.16L64.96-2.16L64.96 0.70L59.45 0.70L59.45 6.02Q59.45 6.74 59.59 7.19Q59.73 7.64 59.98 7.89Q60.23 8.14 60.60 8.23Q60.96 8.31 61.41 8.31L61.41 8.31Q61.88 8.31 62.29 8.28Q62.70 8.26 63.07 8.19Q63.45 8.12 63.86 7.98Q64.26 7.84 64.74 7.61L64.74 7.61L65.22 10.58Q64.26 10.97 63.16 11.14Q62.05 11.31 61.02 11.31L61.02 11.31Q59.81 11.31 58.89 11.11Q57.96 10.92 57.32 10.36Q56.68 9.80 56.34 8.77Q56.00 7.75 56.00 6.10L56.00 6.10ZM78.85-1.85L78.24 1.34Q77.90 1.26 77.44 1.17Q76.98 1.09 76.50 1.02Q76.02 0.95 75.58 0.92Q75.13 0.89 74.82 0.89L74.82 0.89Q74.09 0.89 73.39 0.96Q72.69 1.03 71.96 1.23L71.96 1.23L71.96 11L68.49 11L68.49-1.29Q69.86-1.80 71.31-2.10Q72.75-2.41 74.68-2.41L74.68-2.41Q74.96-2.41 75.48-2.38Q76.00-2.36 76.58-2.29Q77.17-2.22 77.77-2.12Q78.38-2.02 78.85-1.85L78.85-1.85ZM87.03 8.54L87.03 8.54Q87.59 8.54 88.12 8.52Q88.65 8.51 89.04 8.45L89.04 8.45L89.04 5.43Q88.71 5.37 88.23 5.33Q87.76 5.29 87.36 5.29L87.36 5.29Q86.83 5.29 86.33 5.36Q85.82 5.43 85.45 5.60Q85.07 5.76 84.84 6.07Q84.62 6.38 84.62 6.88L84.62 6.88Q84.62 7.78 85.29 8.16Q85.96 8.54 87.03 8.54ZM86.72-2.50L86.72-2.50Q88.34-2.50 89.42-2.12Q90.50-1.74 91.14-1.05Q91.79-0.37 92.07 0.63Q92.35 1.62 92.35 2.85L92.35 2.85L92.35 10.69Q91.59 10.86 90.11 11.08Q88.62 11.31 86.78 11.31L86.78 11.31Q85.52 11.31 84.49 11.08Q83.47 10.86 82.74 10.34Q82.02 9.82 81.62 9.00Q81.23 8.17 81.23 6.97L81.23 6.97Q81.23 5.82 81.68 5.04Q82.13 4.25 82.88 3.78Q83.64 3.30 84.62 3.09Q85.60 2.88 86.66 2.88L86.66 2.88Q88.01 2.88 89.04 3.10L89.04 3.10L89.04 2.68Q89.04 1.70 88.43 1.05Q87.81 0.39 86.30 0.39L86.30 0.39Q85.32 0.39 84.41 0.53Q83.50 0.67 82.94 0.86L82.94 0.86L82.46-1.91Q83.11-2.13 84.28-2.31Q85.46-2.50 86.72-2.50ZM95.76 11L95.76-1.74Q96.69-1.99 98.05-2.22Q99.40-2.44 101-2.44L101-2.44Q102.57-2.44 103.60-2.01Q104.64-1.57 105.24-0.77Q105.84 0.02 106.10 1.13Q106.35 2.24 106.35 3.58L106.35 3.58L106.35 11L102.90 11L102.90 4.03Q102.90 2.18 102.48 1.37Q102.06 0.56 100.78 0.56L100.78 0.56Q100.38 0.56 100.01 0.58Q99.63 0.61 99.21 0.67L99.21 0.67L99.21 11L95.76 11ZM127.21 11L123.76 11L123.76-6.33L134.38-6.33L134.38-3.48L127.21-3.48L127.21 0.72L133.48 0.72L133.48 3.58L127.21 3.58L127.21 11ZM148.85-1.85L148.24 1.34Q147.90 1.26 147.44 1.17Q146.98 1.09 146.50 1.02Q146.02 0.95 145.58 0.92Q145.13 0.89 144.82 0.89L144.82 0.89Q144.09 0.89 143.39 0.96Q142.69 1.03 141.96 1.23L141.96 1.23L141.96 11L138.49 11L138.49-1.29Q139.86-1.80 141.31-2.10Q142.75-2.41 144.68-2.41L144.68-2.41Q144.96-2.41 145.48-2.38Q146.00-2.36 146.58-2.29Q147.17-2.22 147.77-2.12Q148.38-2.02 148.85-1.85L148.85-1.85ZM150.87 4.53L150.87 4.53Q150.87 2.80 151.40 1.48Q151.93 0.16 152.80-0.72Q153.67-1.60 154.79-2.05Q155.91-2.50 157.08-2.50L157.08-2.50Q160.00-2.50 161.51-0.77Q163.02 0.95 163.02 4.25L163.02 4.25Q163.02 4.59 163.01 4.95Q162.99 5.32 162.96 5.54L162.96 5.54L154.42 5.54Q154.42 6.83 155.49 7.57Q156.55 8.31 158.23 8.31L158.23 8.31Q159.27 8.31 160.21 8.09Q161.14 7.86 161.79 7.64L161.79 7.64L162.26 10.58Q161.37 10.89 160.36 11.10Q159.35 11.31 158.09 11.31L158.09 11.31Q156.41 11.31 155.08 10.87Q153.75 10.44 152.81 9.59Q151.88 8.73 151.37 7.47Q150.87 6.21 150.87 4.53ZM154.42 3.16L159.69 3.16Q159.69 2.63 159.55 2.14Q159.41 1.65 159.10 1.26Q158.79 0.86 158.32 0.63Q157.84 0.39 157.14 0.39L157.14 0.39Q156.47 0.39 155.98 0.61Q155.49 0.84 155.17 1.23Q154.84 1.62 154.66 2.12Q154.48 2.63 154.42 3.16L154.42 3.16ZM164.87 4.53L164.87 4.53Q164.87 2.80 165.40 1.48Q165.93 0.16 166.80-0.72Q167.67-1.60 168.79-2.05Q169.91-2.50 171.08-2.50L171.08-2.50Q174.00-2.50 175.51-0.77Q177.02 0.95 177.02 4.25L177.02 4.25Q177.02 4.59 177.01 4.95Q176.99 5.32 176.96 5.54L176.96 5.54L168.42 5.54Q168.42 6.83 169.49 7.57Q170.55 8.31 172.23 8.31L172.23 8.31Q173.27 8.31 174.21 8.09Q175.14 7.86 175.79 7.64L175.79 7.64L176.26 10.58Q175.37 10.89 174.36 11.10Q173.35 11.31 172.09 11.31L172.09 11.31Q170.41 11.31 169.08 10.87Q167.75 10.44 166.81 9.59Q165.88 8.73 165.37 7.47Q164.87 6.21 164.87 4.53ZM168.42 3.16L173.69 3.16Q173.69 2.63 173.55 2.14Q173.41 1.65 173.10 1.26Q172.79 0.86 172.32 0.63Q171.84 0.39 171.14 0.39L171.14 0.39Q170.47 0.39 169.98 0.61Q169.49 0.84 169.17 1.23Q168.84 1.62 168.66 2.12Q168.48 2.63 168.42 3.16L168.42 3.16ZM197.21 11L193.76 11L193.76-6.33L204.38-6.33L204.38-3.48L197.21-3.48L197.21 0.72L203.48 0.72L203.48 3.58L197.21 3.58L197.21 11ZM219.22 4.39L219.22 4.39Q219.22 5.96 218.77 7.23Q218.32 8.51 217.51 9.43Q216.70 10.36 215.56 10.86Q214.43 11.36 213.03 11.36L213.03 11.36Q211.63 11.36 210.49 10.86Q209.36 10.36 208.53 9.43Q207.71 8.51 207.26 7.23Q206.81 5.96 206.81 4.39L206.81 4.39Q206.81 2.85 207.27 1.58Q207.74 0.30 208.56-0.61Q209.39-1.52 210.54-2.01Q211.68-2.50 213.03-2.50L213.03-2.50Q214.40-2.50 215.53-2.01Q216.67-1.52 217.49-0.61Q218.32 0.30 218.77 1.58Q219.22 2.85 219.22 4.39ZM210.31 4.42L210.31 4.42Q210.31 6.18 210.94 7.28Q211.57 8.37 212.97 8.37L212.97 8.37Q214.32 8.37 215.00 7.28Q215.69 6.18 215.69 4.42L215.69 4.42Q215.69 2.66 215.06 1.58Q214.43 0.50 213.03 0.50L213.03 0.50Q211.68 0.50 211.00 1.58Q210.31 2.66 210.31 4.42ZM232.85-1.85L232.24 1.34Q231.90 1.26 231.44 1.17Q230.98 1.09 230.50 1.02Q230.02 0.95 229.58 0.92Q229.13 0.89 228.82 0.89L228.82 0.89Q228.09 0.89 227.39 0.96Q226.69 1.03 225.96 1.23L225.96 1.23L225.96 11L222.49 11L222.49-1.29Q223.86-1.80 225.31-2.10Q226.75-2.41 228.68-2.41L228.68-2.41Q228.96-2.41 229.48-2.38Q230.00-2.36 230.58-2.29Q231.17-2.22 231.77-2.12Q232.38-2.02 232.85-1.85L232.85-1.85ZM243.60-2.30L243.60-2.30Q244.70-2.30 245.40-1.96Q246.10-1.63 246.50-0.96Q246.91-0.28 247.05 0.74Q247.19 1.76 247.19 3.13L247.19 3.13L247.19 11L244.39 11L244.39 2.96Q244.39 2.18 244.29 1.70Q244.19 1.23 244.04 0.98Q243.88 0.72 243.67 0.64Q243.46 0.56 243.24 0.56L243.24 0.56Q242.99 0.56 242.71 0.60Q242.43 0.64 242.20 0.75L242.20 0.75Q242.29 1.28 242.34 1.93Q242.40 2.57 242.40 3.36L242.40 3.36L242.40 5.99L239.60 5.99L239.60 2.96Q239.60 1.62 239.33 1.09Q239.07 0.56 238.48 0.56L238.48 0.56Q238.31 0.56 238.07 0.58Q237.84 0.61 237.61 0.67L237.61 0.67L237.61 11L234.81 11L234.81-1.66Q235.90-1.96 236.97-2.13Q238.03-2.30 238.84-2.30L238.84-2.30Q239.57-2.30 240.15-2.12Q240.72-1.94 241.14-1.52L241.14-1.52Q241.62-1.82 242.26-2.06Q242.90-2.30 243.60-2.30Z"/>
    </g>
</svg>