<?xml version="1.0" encoding="UTF-8"?>
<svg height="34" width="120.7" version="1.1" xmlns="http://www.w3.org/2000/svg">
    <rect
        height="32"
        width="118.7"
        rx="14"
        ry="14"
        x="1"
        y="1"
        fill="#db901e"
        stroke="#55380c"
        stroke-width="1"
         />
    <g transform="translate(0, 14)">
        <path fill="#55380c" d="M18.29 11.36L18.29 11.36Q14.62 11.36 12.69 9.01Q10.76 6.66 10.76 2.32L10.76 2.32Q10.76 0.16 11.34-1.52Q11.93-3.20 12.98-4.36Q14.03-5.52 15.47-6.12Q16.92-6.72 18.62-6.72L18.62-6.72Q19.55-6.72 20.29-6.57Q21.03-6.42 21.59-6.22Q22.15-6.02 22.53-5.80Q22.91-5.58 23.10-5.46L23.10-5.46L22.21-2.72Q21.56-3.14 20.65-3.43Q19.74-3.73 18.57-3.73L18.57-3.73Q17.76-3.73 16.99-3.43Q16.22-3.14 15.61-2.45Q15.01-1.77 14.63-0.62Q14.26 0.53 14.26 2.24L14.26 2.24Q14.26 5.20 15.28 6.79Q16.30 8.37 18.62 8.37L18.62 8.37Q19.97 8.37 20.85 8.06Q21.73 7.75 22.26 7.44L22.26 7.44L23.13 10.16Q22.40 10.61 21.16 10.99Q19.91 11.36 18.29 11.36ZM36.63 7.67L37.08 10.44Q36.99 10.50 36.70 10.64Q36.40 10.78 35.93 10.93Q35.45 11.08 34.77 11.20Q34.08 11.31 33.21 11.31L33.21 11.31Q30.83 11.31 29.74 9.89Q28.65 8.48 28.65 5.76L28.65 5.76L28.65-5.41L25.01-5.41L25.01-8.26L32.09-8.26L32.09 6.02Q32.09 7.36 32.62 7.84Q33.16 8.31 33.97 8.31L33.97 8.31Q35.00 8.31 35.70 8.03Q36.40 7.75 36.63 7.67L36.63 7.67ZM45.03 8.54L45.03 8.54Q45.59 8.54 46.12 8.52Q46.65 8.51 47.04 8.45L47.04 8.45L47.04 5.43Q46.71 5.37 46.23 5.33Q45.76 5.29 45.36 5.29L45.36 5.29Q44.83 5.29 44.33 5.36Q43.82 5.43 43.45 5.60Q43.07 5.76 42.84 6.07Q42.62 6.38 42.62 6.88L42.62 6.88Q42.62 7.78 43.29 8.16Q43.96 8.54 45.03 8.54ZM44.72-2.50L44.72-2.50Q46.34-2.50 47.42-2.12Q48.50-1.74 49.14-1.05Q49.79-0.37 50.07 0.63Q50.35 1.62 50.35 2.85L50.35 2.85L50.35 10.69Q49.59 10.86 48.11 11.08Q46.62 11.31 44.78 11.31L44.78 11.31Q43.52 11.31 42.49 11.08Q41.47 10.86 40.74 10.34Q40.02 9.82 39.62 9.00Q39.23 8.17 39.23 6.97L39.23 6.97Q39.23 5.82 39.68 5.04Q40.13 4.25 40.88 3.78Q41.64 3.30 42.62 3.09Q43.60 2.88 44.66 2.88L44.66 2.88Q46.01 2.88 47.04 3.10L47.04 3.10L47.04 2.68Q47.04 1.70 46.43 1.05Q45.81 0.39 44.30 0.39L44.30 0.39Q43.32 0.39 42.41 0.53Q41.50 0.67 40.94 0.86L40.94 0.86L40.46-1.91Q41.11-2.13 42.28-2.31Q43.46-2.50 44.72-2.50ZM64.85-1.85L64.24 1.34Q63.90 1.26 63.44 1.17Q62.98 1.09 62.50 1.02Q62.02 0.95 61.58 0.92Q61.13 0.89 60.82 0.89L60.82 0.89Q60.09 0.89 59.39 0.96Q58.69 1.03 57.96 1.23L57.96 1.23L57.96 11L54.49 11L54.49-1.29Q55.86-1.80 57.31-2.10Q58.75-2.41 60.68-2.41L60.68-2.41Q60.96-2.41 61.48-2.38Q62.00-2.36 62.58-2.29Q63.17-2.22 63.77-2.12Q64.38-2.02 64.85-1.85L64.85-1.85ZM73.95-5.94L73.95-5.94Q73.95-4.93 73.31-4.34Q72.66-3.76 71.77-3.76L71.77-3.76Q70.87-3.76 70.24-4.34Q69.61-4.93 69.61-5.94L69.61-5.94Q69.61-6.98 70.24-7.56Q70.87-8.15 71.77-8.15L71.77-8.15Q72.66-8.15 73.31-7.56Q73.95-6.98 73.95-5.94ZM78.63 7.67L79.08 10.44Q78.01 10.94 77.07 11.13Q76.14 11.31 75.35 11.31L75.35 11.31Q74.01 11.31 73.10 10.92Q72.19 10.52 71.64 9.78Q71.10 9.04 70.87 7.98Q70.65 6.91 70.65 5.54L70.65 5.54L70.65 0.70L67.01 0.70L67.01-2.16L74.09-2.16L74.09 5.99Q74.09 7.16 74.53 7.74Q74.96 8.31 75.97 8.31L75.97 8.31Q76.44 8.31 77.12 8.19Q77.79 8.06 78.63 7.67L78.63 7.67ZM93.22 4.39L93.22 4.39Q93.22 5.96 92.77 7.23Q92.32 8.51 91.51 9.43Q90.70 10.36 89.56 10.86Q88.43 11.36 87.03 11.36L87.03 11.36Q85.63 11.36 84.49 10.86Q83.36 10.36 82.53 9.43Q81.71 8.51 81.26 7.23Q80.81 5.96 80.81 4.39L80.81 4.39Q80.81 2.85 81.27 1.58Q81.74 0.30 82.56-0.61Q83.39-1.52 84.54-2.01Q85.68-2.50 87.03-2.50L87.03-2.50Q88.40-2.50 89.53-2.01Q90.67-1.52 91.49-0.61Q92.32 0.30 92.77 1.58Q93.22 2.85 93.22 4.39ZM84.31 4.42L84.31 4.42Q84.31 6.18 84.94 7.28Q85.57 8.37 86.97 8.37L86.97 8.37Q88.32 8.37 89.00 7.28Q89.69 6.18 89.69 4.42L89.69 4.42Q89.69 2.66 89.06 1.58Q88.43 0.50 87.03 0.50L87.03 0.50Q85.68 0.50 85.00 1.58Q84.31 2.66 84.31 4.42ZM95.76 11L95.76-1.74Q96.69-1.99 98.05-2.22Q99.40-2.44 101-2.44L101-2.44Q102.57-2.44 103.60-2.01Q104.64-1.57 105.24-0.77Q105.84 0.02 106.10 1.13Q106.35 2.24 106.35 3.58L106.35 3.58L106.35 11L102.90 11L102.90 4.03Q102.90 2.18 102.48 1.37Q102.06 0.56 100.78 0.56L100.78 0.56Q100.38 0.56 100.01 0.58Q99.63 0.61 99.21 0.67L99.21 0.67L99.21 11L95.76 11Z"/>
    </g>
</svg>