<?xml version="1.0" encoding="UTF-8"?>
<svg height="34" width="102.5" version="1.1" xmlns="http://www.w3.org/2000/svg">
    <rect
        height="32"
        width="100.5"
        rx="1"
        ry="1"
        x="1"
        y="1"
        fill="#003fa2"
        stroke="#3d87ff"
        stroke-width="1"
         />
    <g transform="translate(0, 12)">
        <path fill="#3d87ff" d="M25.57 9.84L25.57 9.84Q26.31 9.84 26.80 9.68Q27.30 9.53 27.58 9.25Q27.87 8.98 27.98 8.63Q28.09 8.28 28.09 7.92L28.09 7.92Q28.09 7.46 27.82 7.10Q27.56 6.74 27.15 6.47Q26.74 6.19 26.24 5.96Q25.74 5.74 25.23 5.54L25.23 5.54Q24.56 5.30 23.84 4.99Q23.12 4.68 22.53 4.20Q21.94 3.72 21.56 3.01Q21.18 2.30 21.18 1.25L21.18 1.25Q21.18-0.84 22.53-2.02Q23.89-3.19 26.26-3.19L26.26-3.19Q27.63-3.19 28.65-2.88Q29.67-2.57 30.37-2.18L30.37-2.18L29.50 0.10Q28.90-0.24 28.17-0.48Q27.44-0.72 26.48-0.72L26.48-0.72Q24.13-0.72 24.13 0.98L24.13 0.98Q24.13 1.42 24.37 1.74Q24.61 2.06 24.98 2.32Q25.35 2.57 25.82 2.76Q26.29 2.95 26.74 3.12L26.74 3.12Q27.44 3.38 28.20 3.71Q28.95 4.03 29.59 4.57Q30.22 5.11 30.63 5.92Q31.04 6.72 31.04 7.94L31.04 7.94Q31.04 10.03 29.68 11.17Q28.33 12.31 25.57 12.31L25.57 12.31Q23.72 12.31 22.62 11.92Q21.51 11.52 20.96 11.18L20.96 11.18L21.82 8.78Q22.47 9.17 23.37 9.50Q24.27 9.84 25.57 9.84ZM42.82 9.14L43.21 11.52Q43.14 11.57 42.88 11.69Q42.63 11.81 42.22 11.94Q41.82 12.07 41.23 12.17Q40.64 12.26 39.90 12.26L39.90 12.26Q37.86 12.26 36.92 11.05Q35.98 9.84 35.98 7.51L35.98 7.51L35.98-2.06L32.86-2.06L32.86-4.51L38.94-4.51L38.94 7.73Q38.94 8.88 39.39 9.29Q39.85 9.70 40.54 9.70L40.54 9.70Q41.43 9.70 42.03 9.46Q42.63 9.22 42.82 9.14L42.82 9.14ZM50.82-2.52L50.82-2.52Q50.82-1.66 50.26-1.15Q49.71-0.65 48.94-0.65L48.94-0.65Q48.18-0.65 47.64-1.15Q47.10-1.66 47.10-2.52L47.10-2.52Q47.10-3.41 47.64-3.91Q48.18-4.42 48.94-4.42L48.94-4.42Q49.71-4.42 50.26-3.91Q50.82-3.41 50.82-2.52ZM54.82 9.14L55.21 11.52Q54.30 11.95 53.49 12.11Q52.69 12.26 52.02 12.26L52.02 12.26Q50.86 12.26 50.08 11.93Q49.30 11.59 48.84 10.96Q48.37 10.32 48.18 9.41Q47.98 8.50 47.98 7.32L47.98 7.32L47.98 3.17L44.86 3.17L44.86 0.72L50.94 0.72L50.94 7.70Q50.94 8.71 51.31 9.20Q51.68 9.70 52.54 9.70L52.54 9.70Q52.95 9.70 53.53 9.59Q54.10 9.48 54.82 9.14L54.82 9.14ZM57.06 6.36L57.06 6.36Q57.06 5.14 57.44 4.06Q57.82 2.98 58.62 2.17Q59.41 1.37 60.62 0.90Q61.83 0.43 63.51 0.43L63.51 0.43Q64.52 0.43 65.34 0.58Q66.15 0.72 66.99 1.06L66.99 1.06L66.34 3.43Q65.86 3.26 65.28 3.13Q64.69 3 63.78 3L63.78 3Q62.72 3 62.01 3.25Q61.30 3.50 60.87 3.95Q60.44 4.39 60.25 5.02Q60.06 5.64 60.06 6.36L60.06 6.36Q60.06 7.92 60.93 8.81Q61.81 9.70 63.92 9.70L63.92 9.70Q64.62 9.70 65.37 9.60Q66.13 9.50 66.75 9.29L66.75 9.29L67.18 11.71Q66.56 11.95 65.67 12.11Q64.78 12.26 63.58 12.26L63.58 12.26Q61.86 12.26 60.62 11.81Q59.38 11.35 58.59 10.56Q57.80 9.77 57.43 8.69Q57.06 7.61 57.06 6.36ZM68.74 6.46L68.74 6.46Q68.74 4.97 69.20 3.84Q69.66 2.71 70.40 1.96Q71.14 1.20 72.10 0.82Q73.06 0.43 74.07 0.43L74.07 0.43Q76.57 0.43 77.86 1.91Q79.16 3.38 79.16 6.22L79.16 6.22Q79.16 6.50 79.15 6.82Q79.14 7.13 79.11 7.32L79.11 7.32L71.79 7.32Q71.79 8.42 72.70 9.06Q73.62 9.70 75.06 9.70L75.06 9.70Q75.94 9.70 76.75 9.50Q77.55 9.31 78.10 9.12L78.10 9.12L78.51 11.64Q77.74 11.90 76.88 12.08Q76.02 12.26 74.94 12.26L74.94 12.26Q73.50 12.26 72.36 11.89Q71.22 11.52 70.41 10.79Q69.61 10.06 69.18 8.98Q68.74 7.90 68.74 6.46ZM71.79 5.28L76.30 5.28Q76.30 4.82 76.18 4.40Q76.06 3.98 75.80 3.65Q75.54 3.31 75.13 3.11Q74.72 2.90 74.12 2.90L74.12 2.90Q73.54 2.90 73.12 3.10Q72.70 3.29 72.43 3.62Q72.15 3.96 72.00 4.39Q71.84 4.82 71.79 5.28L71.79 5.28Z"/>
    </g>
</svg>