<?xml version="1.0" encoding="UTF-8"?>
<svg height="26" width="66.3" version="1.1" xmlns="http://www.w3.org/2000/svg"><!--Created by Josélio de S. C. Júnior - 2021 - https://github.com/joseliojunior -->
    <rect
        height="24"
        width="64.3"
        rx="12"
        ry="12"
        x="1" y="1"
        fill="#64b970"
        stroke="#295b30"
        stroke-width="1" />
    <g transform="translate(0, 8)">
        <path fill="#295b30" d="M23.65 8.51L23.65 8.51Q24.37 8.51 24.75 8.41Q25.14 8.30 25.14 7.98L25.14 7.98Q25.14 7.78 25.02 7.63Q24.90 7.49 24.68 7.38Q24.46 7.28 24.18 7.18Q23.90 7.09 23.60 6.99L23.60 6.99Q23.17 6.86 22.72 6.70Q22.27 6.53 21.90 6.27Q21.54 6.02 21.30 5.62Q21.06 5.23 21.06 4.64L21.06 4.64Q21.06 4.16 21.24 3.74Q21.42 3.31 21.82 2.98Q22.21 2.66 22.82 2.47Q23.42 2.29 24.27 2.29L24.27 2.29Q25.01 2.29 25.64 2.40Q26.27 2.51 26.74 2.72L26.74 2.72L26.43 4.38Q26.16 4.30 25.58 4.12Q25.01 3.94 24.29 3.94L24.29 3.94Q23.54 3.94 23.27 4.12Q23.01 4.30 23.01 4.51L23.01 4.51Q23.01 4.69 23.13 4.82Q23.25 4.96 23.45 5.07Q23.65 5.18 23.91 5.29Q24.18 5.39 24.48 5.49L24.48 5.49Q24.91 5.63 25.38 5.81Q25.84 5.98 26.22 6.25Q26.59 6.51 26.83 6.92Q27.07 7.33 27.07 7.92L27.07 7.92Q27.07 8.38 26.90 8.80Q26.72 9.22 26.31 9.52Q25.90 9.82 25.25 10Q24.59 10.18 23.63 10.18L23.63 10.18Q22.66 10.18 21.97 9.95Q21.28 9.73 20.86 9.55L20.86 9.55L21.17 7.90Q21.73 8.13 22.36 8.32Q22.99 8.51 23.65 8.51ZM28.50 6.30L28.50 6.30Q28.50 5.31 28.80 4.56Q29.10 3.81 29.60 3.30Q30.10 2.80 30.74 2.54Q31.38 2.29 32.05 2.29L32.05 2.29Q33.71 2.29 34.58 3.27Q35.44 4.26 35.44 6.14L35.44 6.14Q35.44 6.34 35.43 6.54Q35.42 6.75 35.41 6.88L35.41 6.88L30.53 6.88Q30.53 7.62 31.14 8.04Q31.74 8.46 32.70 8.46L32.70 8.46Q33.30 8.46 33.83 8.34Q34.37 8.21 34.74 8.08L34.74 8.08L35.01 9.76Q34.50 9.94 33.92 10.06Q33.34 10.18 32.62 10.18L32.62 10.18Q31.66 10.18 30.90 9.93Q30.14 9.68 29.61 9.19Q29.07 8.70 28.78 7.98Q28.50 7.26 28.50 6.30ZM30.53 5.52L33.54 5.52Q33.54 5.22 33.46 4.94Q33.38 4.66 33.20 4.43Q33.02 4.21 32.75 4.07Q32.48 3.94 32.08 3.94L32.08 3.94Q31.70 3.94 31.42 4.06Q31.14 4.19 30.95 4.42Q30.77 4.64 30.66 4.93Q30.56 5.22 30.53 5.52L30.53 5.52ZM38.45 6.19L38.45 6.19Q38.45 7.20 38.82 7.84Q39.20 8.48 40.03 8.48L40.03 8.48Q40.27 8.48 40.48 8.46Q40.69 8.45 40.91 8.42L40.91 8.42L40.91 4.32Q40.69 4.19 40.40 4.10Q40.11 4.02 39.79 4.02L39.79 4.02Q39.09 4.02 38.77 4.58Q38.45 5.14 38.45 6.19ZM42.88-1.10L42.88 9.78Q42.34 9.95 41.55 10.06Q40.77 10.18 40.02 10.18L40.02 10.18Q38.26 10.18 37.35 9.14Q36.45 8.10 36.45 6.29L36.45 6.29Q36.45 4.45 37.21 3.38Q37.97 2.32 39.46 2.32L39.46 2.32Q39.86 2.32 40.24 2.41Q40.62 2.50 40.91 2.66L40.91 2.66L40.91-0.77L42.88-1.10Z"/>
    </g>
</svg>