<?xml version="1.0" encoding="UTF-8"?>
<svg height="34" width="78.3" version="1.1" xmlns="http://www.w3.org/2000/svg"><!--Created by Josélio de S. C. Júnior - 2021 - https://github.com/joseliojunior -->
    <rect
        height="32"
        width="76.3"
        rx="1"
        ry="1"
        x="1" y="1"
        fill="#64b970"
        stroke="#295b30"
        stroke-width="1" />
    <g transform="translate(0, 12)">
        <path fill="#295b30" stroke="none" d="M25.47 9.77L25.47 9.77Q26.55 9.77 27.13 9.61Q27.70 9.46 27.70 8.98L27.70 8.98Q27.70 8.66 27.52 8.45Q27.34 8.23 27.02 8.08Q26.70 7.92 26.28 7.78Q25.86 7.63 25.40 7.49L25.40 7.49Q24.75 7.30 24.08 7.04Q23.41 6.79 22.86 6.41Q22.30 6.02 21.94 5.44Q21.58 4.85 21.58 3.96L21.58 3.96Q21.58 3.24 21.86 2.60Q22.14 1.97 22.72 1.48Q23.31 0.98 24.22 0.71Q25.14 0.43 26.41 0.43L26.41 0.43Q27.51 0.43 28.46 0.60Q29.41 0.77 30.10 1.08L30.10 1.08L29.65 3.58Q29.24 3.46 28.38 3.18Q27.51 2.90 26.43 2.90L26.43 2.90Q25.30 2.90 24.91 3.18Q24.51 3.46 24.51 3.77L24.51 3.77Q24.51 4.03 24.69 4.24Q24.87 4.44 25.17 4.61Q25.47 4.78 25.87 4.93Q26.26 5.09 26.72 5.23L26.72 5.23Q27.37 5.45 28.06 5.71Q28.76 5.98 29.32 6.37Q29.89 6.77 30.25 7.38Q30.61 7.99 30.61 8.88L30.61 8.88Q30.61 9.58 30.34 10.20Q30.08 10.82 29.47 11.28Q28.86 11.74 27.87 12Q26.89 12.26 25.45 12.26L25.45 12.26Q23.98 12.26 22.95 11.93Q21.92 11.59 21.30 11.33L21.30 11.33L21.75 8.86Q22.59 9.19 23.54 9.48Q24.49 9.77 25.47 9.77ZM32.74 6.46L32.74 6.46Q32.74 4.97 33.20 3.84Q33.66 2.71 34.40 1.96Q35.14 1.20 36.10 0.82Q37.06 0.43 38.07 0.43L38.07 0.43Q40.57 0.43 41.86 1.91Q43.16 3.38 43.16 6.22L43.16 6.22Q43.16 6.50 43.15 6.82Q43.14 7.13 43.11 7.32L43.11 7.32L35.79 7.32Q35.79 8.42 36.70 9.06Q37.62 9.70 39.06 9.70L39.06 9.70Q39.94 9.70 40.75 9.50Q41.55 9.31 42.10 9.12L42.10 9.12L42.51 11.64Q41.74 11.90 40.88 12.08Q40.02 12.26 38.94 12.26L38.94 12.26Q37.50 12.26 36.36 11.89Q35.22 11.52 34.41 10.79Q33.61 10.06 33.18 8.98Q32.74 7.90 32.74 6.46ZM35.79 5.28L40.30 5.28Q40.30 4.82 40.18 4.40Q40.06 3.98 39.80 3.65Q39.54 3.31 39.13 3.11Q38.72 2.90 38.12 2.90L38.12 2.90Q37.54 2.90 37.12 3.10Q36.70 3.29 36.43 3.62Q36.15 3.96 36.00 4.39Q35.84 4.82 35.79 5.28L35.79 5.28ZM47.67 6.29L47.67 6.29Q47.67 7.80 48.24 8.76Q48.80 9.72 50.05 9.72L50.05 9.72Q50.41 9.72 50.72 9.70Q51.03 9.67 51.37 9.62L51.37 9.62L51.37 3.48Q51.03 3.29 50.60 3.16Q50.17 3.02 49.69 3.02L49.69 3.02Q48.63 3.02 48.15 3.86Q47.67 4.70 47.67 6.29ZM54.32-4.66L54.32 11.66Q53.50 11.93 52.33 12.10Q51.15 12.26 50.02 12.26L50.02 12.26Q47.38 12.26 46.03 10.70Q44.67 9.14 44.67 6.43L44.67 6.43Q44.67 3.67 45.81 2.08Q46.95 0.48 49.18 0.48L49.18 0.48Q49.78 0.48 50.36 0.61Q50.94 0.74 51.37 0.98L51.37 0.98L51.37-4.15L54.32-4.66Z"/>
    </g>
</svg>