<?xml version="1.0" encoding="UTF-8"?>
<svg height="34" width="90.4" version="1.1" xmlns="http://www.w3.org/2000/svg"><!--Created by Josélio de S. C. Júnior - 2021 - https://github.com/joseliojunior -->
    <rect
        height="32"
        width="88.4"
        rx="16"
        ry="16"
        x="1" y="1"
        fill="#f68712"
        stroke="#6c3a04"
        stroke-width="1" />
    <g transform="translate(0, 12)">
        <path fill="#6c3a04" d="M27.97-2.86L30.92-2.86L30.92 12L27.97 12L27.97 5.45L24.03 5.45L24.03 12L21.08 12L21.08-2.86L24.03-2.86L24.03 3L27.97 3L27.97-2.86ZM43.74 12L40.54 12Q40.09 10.78 39.43 9.29Q38.77 7.80 38.05 6.31L38.05 6.31Q37.35 7.73 36.66 9.25Q35.96 10.78 35.46 12L35.46 12L32.26 12Q32.50 11.35 32.97 10.44Q33.44 9.53 34.00 8.47Q34.57 7.42 35.19 6.30Q35.82 5.18 36.39 4.15L36.39 4.15L32.50-2.86L35.70-2.86L38.05 1.90L40.52-2.86L43.50-2.86L39.70 4.08Q40.35 5.11 40.98 6.24Q41.60 7.37 42.14 8.44Q42.68 9.50 43.09 10.43Q43.50 11.35 43.74 12L43.74 12ZM45.42-2.86L47.86-2.86Q48.03-2.35 48.28-1.56Q48.54-0.77 48.82 0.14Q49.11 1.06 49.40 1.99Q49.69 2.93 49.95 3.72L49.95 3.72Q50.24 2.83 50.55 1.88Q50.86 0.94 51.15 0.06Q51.44-0.82 51.68-1.58Q51.92-2.35 52.11-2.86L52.11-2.86L54.56-2.86Q54.73-0.91 54.88 0.94Q55.04 2.78 55.15 4.60Q55.26 6.41 55.33 8.24Q55.40 10.08 55.45 12L55.45 12L52.74 12L52.88 0.46L51.06 6.74L48.90 6.74L47.14 0.46L47.26 12L44.55 12Q44.62 10.18 44.71 8.21Q44.79 6.24 44.89 4.30Q44.98 2.35 45.12 0.53Q45.25-1.30 45.42-2.86L45.42-2.86ZM67.04 9.55L67.04 12L57.70 12L57.70-2.86L60.68-2.86L60.68 9.55L67.04 9.55Z"/>
    </g>
</svg>