<?xml version="1.0" encoding="UTF-8"?>
<svg height="26" width="74.4" version="1.1" xmlns="http://www.w3.org/2000/svg"><!--Created by Josélio de S. C. Júnior - 2021 - https://github.com/joseliojunior -->
    <rect
        height="24"
        width="72.4"
        rx="1"
        ry="1"
        x="1" y="1"
        fill="#f68712"
        stroke="#6c3a04"
        stroke-width="1" />
    <g transform="translate(0, 8)">
        <path fill="#6c3a04" d="M25.31 0.10L27.28 0.10L27.28 10L25.31 10L25.31 5.63L22.69 5.63L22.69 10L20.72 10L20.72 0.10L22.69 0.10L22.69 4L25.31 4L25.31 0.10ZM35.82 10L33.70 10Q33.39 9.18 32.95 8.19Q32.51 7.20 32.03 6.21L32.03 6.21Q31.57 7.15 31.10 8.17Q30.64 9.18 30.30 10L30.30 10L28.18 10Q28.34 9.57 28.65 8.96Q28.96 8.35 29.34 7.65Q29.71 6.94 30.13 6.20Q30.54 5.46 30.93 4.77L30.93 4.77L28.34 0.10L30.46 0.10L32.03 3.26L33.68 0.10L35.66 0.10L33.14 4.72Q33.57 5.41 33.98 6.16Q34.40 6.91 34.76 7.62Q35.12 8.34 35.39 8.95Q35.66 9.57 35.82 10L35.82 10ZM36.94 0.10L38.58 0.10Q38.69 0.43 38.86 0.96Q39.02 1.49 39.22 2.10Q39.41 2.70 39.60 3.33Q39.79 3.95 39.97 4.48L39.97 4.48Q40.16 3.89 40.37 3.26Q40.58 2.62 40.77 2.04Q40.96 1.46 41.12 0.94Q41.28 0.43 41.41 0.10L41.41 0.10L43.04 0.10Q43.15 1.39 43.26 2.62Q43.36 3.86 43.43 5.06Q43.50 6.27 43.55 7.50Q43.60 8.72 43.63 10L43.63 10L41.82 10L41.92 2.30L40.70 6.50L39.26 6.50L38.10 2.30L38.18 10L36.37 10Q36.42 8.78 36.47 7.47Q36.53 6.16 36.59 4.86Q36.66 3.57 36.74 2.35Q36.83 1.14 36.94 0.10L36.94 0.10ZM51.36 8.37L51.36 10L45.14 10L45.14 0.10L47.12 0.10L47.12 8.37L51.36 8.37Z"/>
    </g>
</svg>