<?xml version="1.0" encoding="UTF-8"?>
<svg height="26" width="98.69999999999999" version="1.1" xmlns="http://www.w3.org/2000/svg"><!--Created by Josélio de S. C. Júnior - 2021 - https://github.com/joseliojunior -->
    <rect
        height="24"
        width="96.69999999999999"
        rx="12"
        ry="12"
        x="1" y="1"
        fill="#b2b7f8"
        stroke="#131fcd"
        stroke-width="1" />
    <g transform="translate(0, 8)">
        <path fill="#131fcd" stroke="none" d="M25.01 10L22.98 10Q22.59 8.90 22.16 7.50Q21.73 6.11 21.34 4.73Q20.96 3.34 20.66 2.11Q20.35 0.88 20.21 0.10L20.21 0.10L22.29 0.10Q22.38 0.86 22.58 1.88Q22.77 2.90 23 3.98Q23.23 5.06 23.50 6.10Q23.76 7.15 24.02 7.98L24.02 7.98Q24.27 7.17 24.53 6.12Q24.78 5.07 25.01 3.99Q25.23 2.91 25.42 1.89Q25.62 0.86 25.74 0.10L25.74 0.10L27.81 0.10Q27.62 1.06 27.34 2.24Q27.06 3.42 26.70 4.73Q26.34 6.03 25.90 7.38Q25.47 8.74 25.01 10L25.01 10ZM28.50 6.30L28.50 6.30Q28.50 5.31 28.80 4.56Q29.10 3.81 29.60 3.30Q30.10 2.80 30.74 2.54Q31.38 2.29 32.05 2.29L32.05 2.29Q33.71 2.29 34.58 3.27Q35.44 4.26 35.44 6.14L35.44 6.14Q35.44 6.34 35.43 6.54Q35.42 6.75 35.41 6.88L35.41 6.88L30.53 6.88Q30.53 7.62 31.14 8.04Q31.74 8.46 32.70 8.46L32.70 8.46Q33.30 8.46 33.83 8.34Q34.37 8.21 34.74 8.08L34.74 8.08L35.01 9.76Q34.50 9.94 33.92 10.06Q33.34 10.18 32.62 10.18L32.62 10.18Q31.66 10.18 30.90 9.93Q30.14 9.68 29.61 9.19Q29.07 8.70 28.78 7.98Q28.50 7.26 28.50 6.30ZM30.53 5.52L33.54 5.52Q33.54 5.22 33.46 4.94Q33.38 4.66 33.20 4.43Q33.02 4.21 32.75 4.07Q32.48 3.94 32.08 3.94L32.08 3.94Q31.70 3.94 31.42 4.06Q31.14 4.19 30.95 4.42Q30.77 4.64 30.66 4.93Q30.56 5.22 30.53 5.52L30.53 5.52ZM43.34 2.66L42.99 4.48Q42.80 4.43 42.54 4.38Q42.27 4.34 42 4.30Q41.73 4.26 41.47 4.24Q41.22 4.22 41.04 4.22L41.04 4.22Q40.62 4.22 40.22 4.26Q39.82 4.30 39.41 4.42L39.41 4.42L39.41 10L37.42 10L37.42 2.98Q38.21 2.69 39.03 2.51Q39.86 2.34 40.96 2.34L40.96 2.34Q41.12 2.34 41.42 2.35Q41.71 2.37 42.05 2.41Q42.38 2.45 42.73 2.50Q43.07 2.56 43.34 2.66L43.34 2.66ZM48.54 0.32L48.54 0.32Q48.54 0.90 48.18 1.23Q47.81 1.57 47.30 1.57L47.30 1.57Q46.78 1.57 46.42 1.23Q46.06 0.90 46.06 0.32L46.06 0.32Q46.06-0.27 46.42-0.61Q46.78-0.94 47.30-0.94L47.30-0.94Q47.81-0.94 48.18-0.61Q48.54-0.27 48.54 0.32ZM51.22 8.10L51.47 9.68Q50.86 9.97 50.33 10.07Q49.79 10.18 49.34 10.18L49.34 10.18Q48.58 10.18 48.06 9.95Q47.54 9.73 47.22 9.30Q46.91 8.88 46.78 8.27Q46.66 7.66 46.66 6.88L46.66 6.88L46.66 4.11L44.58 4.11L44.58 2.48L48.62 2.48L48.62 7.14Q48.62 7.81 48.87 8.14Q49.12 8.46 49.70 8.46L49.70 8.46Q49.97 8.46 50.35 8.39Q50.74 8.32 51.22 8.10L51.22 8.10ZM59.22 8.10L59.47 9.68Q59.42 9.71 59.26 9.79Q59.09 9.87 58.82 9.96Q58.54 10.05 58.15 10.11Q57.76 10.18 57.26 10.18L57.26 10.18Q55.90 10.18 55.28 9.37Q54.66 8.56 54.66 7.01L54.66 7.01L54.66 0.62L52.58 0.62L52.58-1.01L56.62-1.01L56.62 7.15Q56.62 7.92 56.93 8.19Q57.23 8.46 57.70 8.46L57.70 8.46Q58.29 8.46 58.69 8.30Q59.09 8.14 59.22 8.10L59.22 8.10ZM67.55 6.22L67.55 6.22Q67.55 7.12 67.30 7.85Q67.04 8.58 66.58 9.10Q66.11 9.63 65.46 9.92Q64.82 10.21 64.02 10.21L64.02 10.21Q63.22 10.21 62.57 9.92Q61.92 9.63 61.45 9.10Q60.98 8.58 60.72 7.85Q60.46 7.12 60.46 6.22L60.46 6.22Q60.46 5.34 60.73 4.62Q60.99 3.89 61.46 3.37Q61.94 2.85 62.59 2.57Q63.25 2.29 64.02 2.29L64.02 2.29Q64.80 2.29 65.45 2.57Q66.10 2.85 66.57 3.37Q67.04 3.89 67.30 4.62Q67.55 5.34 67.55 6.22ZM62.46 6.24L62.46 6.24Q62.46 7.25 62.82 7.87Q63.18 8.50 63.98 8.50L63.98 8.50Q64.75 8.50 65.14 7.87Q65.54 7.25 65.54 6.24L65.54 6.24Q65.54 5.23 65.18 4.62Q64.82 4 64.02 4L64.02 4Q63.25 4 62.86 4.62Q62.46 5.23 62.46 6.24ZM70.53 6L70.53 6Q70.53 6.93 70.86 7.42Q71.20 7.90 71.92 7.90L71.92 7.90Q72.24 7.90 72.52 7.82Q72.80 7.74 73.02 7.62L73.02 7.62L73.02 4Q72.80 3.95 72.62 3.94Q72.45 3.92 72.26 3.92L72.26 3.92Q70.53 3.92 70.53 6ZM75.01 2.72L75.01 9.09Q75.01 10.93 74.12 11.81Q73.23 12.69 71.26 12.69L71.26 12.69Q70.56 12.69 69.91 12.54Q69.26 12.40 68.67 12.21L68.67 12.21L69.04 10.54Q69.50 10.72 70.02 10.87Q70.53 11.02 71.30 11.02L71.30 11.02Q71.81 11.02 72.14 10.90Q72.48 10.78 72.67 10.58Q72.86 10.37 72.94 10.09Q73.02 9.81 73.02 9.49L73.02 9.49L73.02 9.18Q72.61 9.34 72.26 9.42Q71.92 9.50 71.52 9.50L71.52 9.50Q70.05 9.50 69.29 8.58Q68.53 7.65 68.53 6L68.53 6Q68.53 4.14 69.55 3.23Q70.58 2.32 72.34 2.32L72.34 2.32Q73.57 2.32 75.01 2.72L75.01 2.72Z"/>
    </g>
</svg>