<?xml version="1.0" encoding="UTF-8"?>
<svg height="34" width="120.7" version="1.1" xmlns="http://www.w3.org/2000/svg">
    <rect
        height="32"
        width="118.7"
        rx="1"
        ry="1"
        x="1"
        y="1"
        fill="#b2b7f8"
        stroke="#131fcd"
        stroke-width="1"
         />
    <g transform="translate(0, 14)">
        <path fill="#131fcd" d="M18.76 11L15.21 11Q14.54 9.07 13.78 6.63Q13.02 4.20 12.35 1.77Q11.68-0.65 11.15-2.80Q10.62-4.96 10.36-6.33L10.36-6.33L14.00-6.33Q14.17-4.99 14.51-3.21Q14.84-1.43 15.25 0.46Q15.66 2.35 16.12 4.18Q16.58 6.02 17.03 7.47L17.03 7.47Q17.48 6.04 17.92 4.21Q18.37 2.38 18.76 0.49Q19.16-1.40 19.49-3.20Q19.83-4.99 20.05-6.33L20.05-6.33L23.66-6.33Q23.33-4.65 22.84-2.58Q22.35-0.51 21.72 1.77Q21.09 4.06 20.33 6.42Q19.58 8.79 18.76 11L18.76 11ZM24.87 4.53L24.87 4.53Q24.87 2.80 25.40 1.48Q25.93 0.16 26.80-0.72Q27.67-1.60 28.79-2.05Q29.91-2.50 31.08-2.50L31.08-2.50Q34.00-2.50 35.51-0.77Q37.02 0.95 37.02 4.25L37.02 4.25Q37.02 4.59 37.01 4.95Q36.99 5.32 36.96 5.54L36.96 5.54L28.42 5.54Q28.42 6.83 29.49 7.57Q30.55 8.31 32.23 8.31L32.23 8.31Q33.27 8.31 34.21 8.09Q35.14 7.86 35.79 7.64L35.79 7.64L36.26 10.58Q35.37 10.89 34.36 11.10Q33.35 11.31 32.09 11.31L32.09 11.31Q30.41 11.31 29.08 10.87Q27.75 10.44 26.81 9.59Q25.88 8.73 25.37 7.47Q24.87 6.21 24.87 4.53ZM28.42 3.16L33.69 3.16Q33.69 2.63 33.55 2.14Q33.41 1.65 33.10 1.26Q32.79 0.86 32.32 0.63Q31.84 0.39 31.14 0.39L31.14 0.39Q30.47 0.39 29.98 0.61Q29.49 0.84 29.17 1.23Q28.84 1.62 28.66 2.12Q28.48 2.63 28.42 3.16L28.42 3.16ZM50.85-1.85L50.24 1.34Q49.90 1.26 49.44 1.17Q48.98 1.09 48.50 1.02Q48.02 0.95 47.58 0.92Q47.13 0.89 46.82 0.89L46.82 0.89Q46.09 0.89 45.39 0.96Q44.69 1.03 43.96 1.23L43.96 1.23L43.96 11L40.49 11L40.49-1.29Q41.86-1.80 43.31-2.10Q44.75-2.41 46.68-2.41L46.68-2.41Q46.96-2.41 47.48-2.38Q48.00-2.36 48.58-2.29Q49.17-2.22 49.77-2.12Q50.38-2.02 50.85-1.85L50.85-1.85ZM59.95-5.94L59.95-5.94Q59.95-4.93 59.31-4.34Q58.66-3.76 57.77-3.76L57.77-3.76Q56.87-3.76 56.24-4.34Q55.61-4.93 55.61-5.94L55.61-5.94Q55.61-6.98 56.24-7.56Q56.87-8.15 57.77-8.15L57.77-8.15Q58.66-8.15 59.31-7.56Q59.95-6.98 59.95-5.94ZM64.63 7.67L65.08 10.44Q64.01 10.94 63.07 11.13Q62.14 11.31 61.35 11.31L61.35 11.31Q60.01 11.31 59.10 10.92Q58.19 10.52 57.64 9.78Q57.10 9.04 56.87 7.98Q56.65 6.91 56.65 5.54L56.65 5.54L56.65 0.70L53.01 0.70L53.01-2.16L60.09-2.16L60.09 5.99Q60.09 7.16 60.53 7.74Q60.96 8.31 61.97 8.31L61.97 8.31Q62.44 8.31 63.12 8.19Q63.79 8.06 64.63 7.67L64.63 7.67ZM78.63 7.67L79.08 10.44Q78.99 10.50 78.70 10.64Q78.40 10.78 77.93 10.93Q77.45 11.08 76.77 11.20Q76.08 11.31 75.21 11.31L75.21 11.31Q72.83 11.31 71.74 9.89Q70.65 8.48 70.65 5.76L70.65 5.76L70.65-5.41L67.01-5.41L67.01-8.26L74.09-8.26L74.09 6.02Q74.09 7.36 74.62 7.84Q75.16 8.31 75.97 8.31L75.97 8.31Q77.00 8.31 77.70 8.03Q78.40 7.75 78.63 7.67L78.63 7.67ZM93.22 4.39L93.22 4.39Q93.22 5.96 92.77 7.23Q92.32 8.51 91.51 9.43Q90.70 10.36 89.56 10.86Q88.43 11.36 87.03 11.36L87.03 11.36Q85.63 11.36 84.49 10.86Q83.36 10.36 82.53 9.43Q81.71 8.51 81.26 7.23Q80.81 5.96 80.81 4.39L80.81 4.39Q80.81 2.85 81.27 1.58Q81.74 0.30 82.56-0.61Q83.39-1.52 84.54-2.01Q85.68-2.50 87.03-2.50L87.03-2.50Q88.40-2.50 89.53-2.01Q90.67-1.52 91.49-0.61Q92.32 0.30 92.77 1.58Q93.22 2.85 93.22 4.39ZM84.31 4.42L84.31 4.42Q84.31 6.18 84.94 7.28Q85.57 8.37 86.97 8.37L86.97 8.37Q88.32 8.37 89.00 7.28Q89.69 6.18 89.69 4.42L89.69 4.42Q89.69 2.66 89.06 1.58Q88.43 0.50 87.03 0.50L87.03 0.50Q85.68 0.50 85.00 1.58Q84.31 2.66 84.31 4.42ZM98.42 4L98.42 4Q98.42 5.62 99.01 6.48Q99.60 7.33 100.86 7.33L100.86 7.33Q101.42 7.33 101.91 7.19Q102.40 7.05 102.79 6.83L102.79 6.83L102.79 0.50Q102.40 0.42 102.09 0.39Q101.78 0.36 101.45 0.36L101.45 0.36Q98.42 0.36 98.42 4ZM106.26-1.74L106.26 9.40Q106.26 12.62 104.71 14.16Q103.16 15.70 99.71 15.70L99.71 15.70Q98.48 15.70 97.35 15.45Q96.21 15.20 95.18 14.86L95.18 14.86L95.82 11.95Q96.63 12.26 97.53 12.53Q98.42 12.79 99.77 12.79L99.77 12.79Q100.66 12.79 101.25 12.58Q101.84 12.37 102.18 12.01Q102.51 11.64 102.65 11.15Q102.79 10.66 102.79 10.10L102.79 10.10L102.79 9.57Q102.06 9.85 101.46 9.99Q100.86 10.13 100.16 10.13L100.16 10.13Q97.58 10.13 96.25 8.51Q94.92 6.88 94.92 4L94.92 4Q94.92 0.75 96.72-0.84Q98.51-2.44 101.59-2.44L101.59-2.44Q103.74-2.44 106.26-1.74L106.26-1.74Z"/>
    </g>
</svg>