<?xml version="1.0" encoding="UTF-8"?>
<svg height="26" width="90.6" version="1.1" xmlns="http://www.w3.org/2000/svg"><!--Created by Josélio de S. C. Júnior - 2021 - https://github.com/joseliojunior -->
    <rect
        height="24"
        width="88.6"
        rx="12"
        ry="12"
        x="1" y="1"
        fill="#e16737"
        stroke="#6f2b11"
        stroke-width="1" />
    <g transform="translate(0, 8)">
        <path fill="#6f2b11" d="M20.94 0.10L22.58 0.10Q22.69 0.43 22.86 0.96Q23.02 1.49 23.22 2.10Q23.41 2.70 23.60 3.33Q23.79 3.95 23.97 4.48L23.97 4.48Q24.16 3.89 24.37 3.26Q24.58 2.62 24.77 2.04Q24.96 1.46 25.12 0.94Q25.28 0.43 25.41 0.10L25.41 0.10L27.04 0.10Q27.15 1.39 27.26 2.62Q27.36 3.86 27.43 5.06Q27.50 6.27 27.55 7.50Q27.60 8.72 27.63 10L27.63 10L25.82 10L25.92 2.30L24.70 6.50L23.26 6.50L22.10 2.30L22.18 10L20.37 10Q20.42 8.78 20.47 7.47Q20.53 6.16 20.59 4.86Q20.66 3.57 20.74 2.35Q20.83 1.14 20.94 0.10L20.94 0.10ZM35.86 10L33.74 10L33.28 7.71L30.64 7.71L30.19 10L28.14 10Q28.85 7.07 29.57 4.66Q30.29 2.26 30.96 0.10L30.96 0.10L33.10 0.10Q33.81 2.27 34.50 4.71Q35.20 7.15 35.86 10L35.86 10ZM31.98 2.02L31.98 2.02Q31.82 2.58 31.69 3.08Q31.55 3.58 31.43 4.07Q31.31 4.56 31.21 5.06Q31.10 5.55 31.01 6.08L31.01 6.08L32.94 6.08Q32.85 5.55 32.75 5.06Q32.66 4.56 32.54 4.07Q32.42 3.58 32.28 3.08Q32.14 2.58 31.98 2.02ZM36.40 0.10L43.60 0.10L43.60 1.73L40.99 1.73L40.99 10L39.01 10L39.01 1.73L36.40 1.73L36.40 0.10ZM51.36 8.37L51.36 10L45.14 10L45.14 0.10L47.12 0.10L47.12 8.37L51.36 8.37ZM59.86 10L57.74 10L57.28 7.71L54.64 7.71L54.19 10L52.14 10Q52.85 7.07 53.57 4.66Q54.29 2.26 54.96 0.10L54.96 0.10L57.10 0.10Q57.81 2.27 58.50 4.71Q59.20 7.15 59.86 10L59.86 10ZM55.98 2.02L55.98 2.02Q55.82 2.58 55.69 3.08Q55.55 3.58 55.43 4.07Q55.31 4.56 55.21 5.06Q55.10 5.55 55.01 6.08L55.01 6.08L56.94 6.08Q56.85 5.55 56.75 5.06Q56.66 4.56 56.54 4.07Q56.42 3.58 56.28 3.08Q56.14 2.58 55.98 2.02ZM67.50 7.01L67.50 7.01Q67.50 7.90 67.20 8.50Q66.90 9.10 66.38 9.46Q65.86 9.82 65.14 9.98Q64.43 10.13 63.62 10.13L63.62 10.13Q62.96 10.13 62.26 10.06Q61.55 9.98 60.86 9.84L60.86 9.84L60.86 0.22Q61.42 0.13 62.10 0.06Q62.77-0.02 63.42-0.02L63.42-0.02Q64.54-0.02 65.25 0.22Q65.95 0.45 66.35 0.82Q66.75 1.20 66.90 1.66Q67.04 2.13 67.04 2.59L67.04 2.59Q67.04 3.30 66.70 3.84Q66.35 4.38 65.78 4.70L65.78 4.70Q66.78 5.07 67.14 5.70Q67.50 6.32 67.50 7.01ZM63.89 5.66L62.83 5.66L62.83 8.35Q63.04 8.38 63.29 8.40Q63.54 8.42 63.78 8.42L63.78 8.42Q64.11 8.42 64.43 8.36Q64.75 8.30 65 8.15Q65.25 8 65.41 7.72Q65.57 7.44 65.57 7.01L65.57 7.01Q65.57 6.29 65.11 5.98Q64.66 5.66 63.89 5.66L63.89 5.66ZM62.83 4.03L63.60 4.03Q64.35 4.03 64.74 3.70Q65.12 3.38 65.12 2.80L65.12 2.80Q65.12 2.45 65.01 2.23Q64.90 2.02 64.70 1.90Q64.51 1.78 64.26 1.74Q64 1.70 63.73 1.70L63.73 1.70Q63.50 1.70 63.26 1.71Q63.02 1.73 62.83 1.76L62.83 1.76L62.83 4.03Z"/>
    </g>
</svg>