<?xml version="1.0" encoding="UTF-8"?>
<svg height="34" width="114.6" version="1.1" xmlns="http://www.w3.org/2000/svg"><!--Created by Josélio de S. C. Júnior - 2021 - https://github.com/joseliojunior -->
    <rect
        height="32"
        width="112.6"
        rx="1"
        ry="1"
        x="1" y="1"
        fill="#e16737"
        stroke="#6f2b11"
        stroke-width="1" />
    <g transform="translate(0, 12)">
        <path fill="#6f2b11" d="M21.42-2.86L23.86-2.86Q24.03-2.35 24.28-1.56Q24.54-0.77 24.82 0.14Q25.11 1.06 25.40 1.99Q25.69 2.93 25.95 3.72L25.95 3.72Q26.24 2.83 26.55 1.88Q26.86 0.94 27.15 0.06Q27.44-0.82 27.68-1.58Q27.92-2.35 28.11-2.86L28.11-2.86L30.56-2.86Q30.73-0.91 30.88 0.94Q31.04 2.78 31.15 4.60Q31.26 6.41 31.33 8.24Q31.40 10.08 31.45 12L31.45 12L28.74 12L28.88 0.46L27.06 6.74L24.90 6.74L23.14 0.46L23.26 12L20.55 12Q20.62 10.18 20.71 8.21Q20.79 6.24 20.89 4.30Q20.98 2.35 21.12 0.53Q21.25-1.30 21.42-2.86L21.42-2.86ZM43.78 12L40.62 12L39.92 8.57L35.96 8.57L35.29 12L32.22 12Q33.27 7.61 34.35 4.00Q35.43 0.38 36.44-2.86L36.44-2.86L39.66-2.86Q40.71 0.41 41.76 4.07Q42.80 7.73 43.78 12L43.78 12ZM37.98 0.02L37.98 0.02Q37.74 0.86 37.53 1.62Q37.33 2.38 37.15 3.11Q36.97 3.84 36.81 4.58Q36.66 5.33 36.51 6.12L36.51 6.12L39.42 6.12Q39.27 5.33 39.13 4.58Q38.98 3.84 38.80 3.11Q38.62 2.38 38.42 1.62Q38.22 0.86 37.98 0.02ZM44.60-2.86L55.40-2.86L55.40-0.41L51.49-0.41L51.49 12L48.51 12L48.51-0.41L44.60-0.41L44.60-2.86ZM67.04 9.55L67.04 12L57.70 12L57.70-2.86L60.68-2.86L60.68 9.55L67.04 9.55ZM79.78 12L76.62 12L75.92 8.57L71.96 8.57L71.29 12L68.22 12Q69.27 7.61 70.35 4.00Q71.43 0.38 72.44-2.86L72.44-2.86L75.66-2.86Q76.71 0.41 77.76 4.07Q78.80 7.73 79.78 12L79.78 12ZM73.98 0.02L73.98 0.02Q73.74 0.86 73.53 1.62Q73.33 2.38 73.15 3.11Q72.97 3.84 72.81 4.58Q72.66 5.33 72.51 6.12L72.51 6.12L75.42 6.12Q75.27 5.33 75.13 4.58Q74.98 3.84 74.80 3.11Q74.62 2.38 74.42 1.62Q74.22 0.86 73.98 0.02ZM91.26 7.51L91.26 7.51Q91.26 8.86 90.80 9.76Q90.34 10.66 89.56 11.20Q88.78 11.74 87.72 11.96Q86.65 12.19 85.42 12.19L85.42 12.19Q84.44 12.19 83.38 12.08Q82.33 11.98 81.30 11.76L81.30 11.76L81.30-2.66Q82.14-2.81 83.14-2.92Q84.15-3.02 85.14-3.02L85.14-3.02Q86.82-3.02 87.87-2.68Q88.93-2.33 89.53-1.76Q90.13-1.20 90.34-0.50Q90.56 0.19 90.56 0.89L90.56 0.89Q90.56 1.94 90.04 2.76Q89.53 3.58 88.66 4.06L88.66 4.06Q90.18 4.61 90.72 5.54Q91.26 6.48 91.26 7.51ZM85.83 5.50L84.25 5.50L84.25 9.53Q84.56 9.58 84.93 9.60Q85.30 9.62 85.66 9.62L85.66 9.62Q86.17 9.62 86.65 9.54Q87.13 9.46 87.50 9.23Q87.87 9 88.11 8.58Q88.35 8.16 88.35 7.51L88.35 7.51Q88.35 6.43 87.67 5.96Q86.98 5.50 85.83 5.50L85.83 5.50ZM84.25 3.05L85.40 3.05Q86.53 3.05 87.10 2.56Q87.68 2.06 87.68 1.20L87.68 1.20Q87.68 0.67 87.51 0.35Q87.34 0.02 87.06-0.16Q86.77-0.34 86.38-0.40Q86-0.46 85.59-0.46L85.59-0.46Q85.26-0.46 84.90-0.43Q84.54-0.41 84.25-0.36L84.25-0.36L84.25 3.05Z"/>
    </g>
</svg>