<?xml version="1.0" encoding="UTF-8"?>
<svg height="34" width="247.6" version="1.1" xmlns="http://www.w3.org/2000/svg">
    <rect
        height="32"
        width="245.6"
        rx="1"
        ry="1"
        x="1"
        y="1"
        fill="#B0CE4E"
        stroke="#56681d"
        stroke-width="1"
         />
    <g transform="translate(0, 14)">
        <path fill="#56681d" d="M18.29 11.36L18.29 11.36Q14.62 11.36 12.69 9.01Q10.76 6.66 10.76 2.32L10.76 2.32Q10.76 0.16 11.34-1.52Q11.93-3.20 12.98-4.36Q14.03-5.52 15.47-6.12Q16.92-6.72 18.62-6.72L18.62-6.72Q19.55-6.72 20.29-6.57Q21.03-6.42 21.59-6.22Q22.15-6.02 22.53-5.80Q22.91-5.58 23.10-5.46L23.10-5.46L22.21-2.72Q21.56-3.14 20.65-3.43Q19.74-3.73 18.57-3.73L18.57-3.73Q17.76-3.73 16.99-3.43Q16.22-3.14 15.61-2.45Q15.01-1.77 14.63-0.62Q14.26 0.53 14.26 2.24L14.26 2.24Q14.26 5.20 15.28 6.79Q16.30 8.37 18.62 8.37L18.62 8.37Q19.97 8.37 20.85 8.06Q21.73 7.75 22.26 7.44L22.26 7.44L23.13 10.16Q22.40 10.61 21.16 10.99Q19.91 11.36 18.29 11.36ZM37.22 4.39L37.22 4.39Q37.22 5.96 36.77 7.23Q36.32 8.51 35.51 9.43Q34.70 10.36 33.56 10.86Q32.43 11.36 31.03 11.36L31.03 11.36Q29.63 11.36 28.49 10.86Q27.36 10.36 26.53 9.43Q25.71 8.51 25.26 7.23Q24.81 5.96 24.81 4.39L24.81 4.39Q24.81 2.85 25.27 1.58Q25.74 0.30 26.56-0.61Q27.39-1.52 28.54-2.01Q29.68-2.50 31.03-2.50L31.03-2.50Q32.40-2.50 33.53-2.01Q34.67-1.52 35.49-0.61Q36.32 0.30 36.77 1.58Q37.22 2.85 37.22 4.39ZM28.31 4.42L28.31 4.42Q28.31 6.18 28.94 7.28Q29.57 8.37 30.97 8.37L30.97 8.37Q32.32 8.37 33.00 7.28Q33.69 6.18 33.69 4.42L33.69 4.42Q33.69 2.66 33.06 1.58Q32.43 0.50 31.03 0.50L31.03 0.50Q29.68 0.50 29.00 1.58Q28.31 2.66 28.31 4.42ZM47.60-2.30L47.60-2.30Q48.70-2.30 49.40-1.96Q50.10-1.63 50.50-0.96Q50.91-0.28 51.05 0.74Q51.19 1.76 51.19 3.13L51.19 3.13L51.19 11L48.39 11L48.39 2.96Q48.39 2.18 48.29 1.70Q48.19 1.23 48.04 0.98Q47.88 0.72 47.67 0.64Q47.46 0.56 47.24 0.56L47.24 0.56Q46.99 0.56 46.71 0.60Q46.43 0.64 46.20 0.75L46.20 0.75Q46.29 1.28 46.34 1.93Q46.40 2.57 46.40 3.36L46.40 3.36L46.40 5.99L43.60 5.99L43.60 2.96Q43.60 1.62 43.33 1.09Q43.07 0.56 42.48 0.56L42.48 0.56Q42.31 0.56 42.07 0.58Q41.84 0.61 41.61 0.67L41.61 0.67L41.61 11L38.81 11L38.81-1.66Q39.90-1.96 40.97-2.13Q42.03-2.30 42.84-2.30L42.84-2.30Q43.57-2.30 44.15-2.12Q44.72-1.94 45.14-1.52L45.14-1.52Q45.62-1.82 46.26-2.06Q46.90-2.30 47.60-2.30ZM61.63 4.53L61.63 4.53Q61.63 2.77 60.93 1.63Q60.23 0.50 58.80 0.50L58.80 0.50Q58.41 0.50 57.96 0.54Q57.52 0.58 57.21 0.61L57.21 0.61L57.21 7.84Q57.54 8.06 58.10 8.20Q58.66 8.34 59.22 8.34L59.22 8.34Q60.46 8.34 61.04 7.35Q61.63 6.35 61.63 4.53ZM65.13 4.42L65.13 4.42Q65.13 5.93 64.80 7.21Q64.46 8.48 63.82 9.39Q63.17 10.30 62.19 10.80Q61.21 11.31 59.92 11.31L59.92 11.31Q58.61 11.31 57.21 10.66L57.21 10.66L57.21 15.62L53.76 15.62L53.76-1.74Q54.72-2.05 56.10-2.24Q57.49-2.44 58.83-2.44L58.83-2.44Q61.88-2.44 63.51-0.59Q65.13 1.26 65.13 4.42ZM79.22 4.39L79.22 4.39Q79.22 5.96 78.77 7.23Q78.32 8.51 77.51 9.43Q76.70 10.36 75.56 10.86Q74.43 11.36 73.03 11.36L73.03 11.36Q71.63 11.36 70.49 10.86Q69.36 10.36 68.53 9.43Q67.71 8.51 67.26 7.23Q66.81 5.96 66.81 4.39L66.81 4.39Q66.81 2.85 67.27 1.58Q67.74 0.30 68.56-0.61Q69.39-1.52 70.54-2.01Q71.68-2.50 73.03-2.50L73.03-2.50Q74.40-2.50 75.53-2.01Q76.67-1.52 77.49-0.61Q78.32 0.30 78.77 1.58Q79.22 2.85 79.22 4.39ZM70.31 4.42L70.31 4.42Q70.31 6.18 70.94 7.28Q71.57 8.37 72.97 8.37L72.97 8.37Q74.32 8.37 75.00 7.28Q75.69 6.18 75.69 4.42L75.69 4.42Q75.69 2.66 75.06 1.58Q74.43 0.50 73.03 0.50L73.03 0.50Q71.68 0.50 71.00 1.58Q70.31 2.66 70.31 4.42ZM81.76 11L81.76-1.74Q82.69-1.99 84.05-2.22Q85.40-2.44 87-2.44L87-2.44Q88.57-2.44 89.60-2.01Q90.64-1.57 91.24-0.77Q91.84 0.02 92.10 1.13Q92.35 2.24 92.35 3.58L92.35 3.58L92.35 11L88.90 11L88.90 4.03Q88.90 2.18 88.48 1.37Q88.06 0.56 86.78 0.56L86.78 0.56Q86.38 0.56 86.01 0.58Q85.63 0.61 85.21 0.67L85.21 0.67L85.21 11L81.76 11ZM94.87 4.53L94.87 4.53Q94.87 2.80 95.40 1.48Q95.93 0.16 96.80-0.72Q97.67-1.60 98.79-2.05Q99.91-2.50 101.08-2.50L101.08-2.50Q104.00-2.50 105.51-0.77Q107.02 0.95 107.02 4.25L107.02 4.25Q107.02 4.59 107.01 4.95Q106.99 5.32 106.96 5.54L106.96 5.54L98.42 5.54Q98.42 6.83 99.49 7.57Q100.55 8.31 102.23 8.31L102.23 8.31Q103.27 8.31 104.21 8.09Q105.14 7.86 105.79 7.64L105.79 7.64L106.26 10.58Q105.37 10.89 104.36 11.10Q103.35 11.31 102.09 11.31L102.09 11.31Q100.41 11.31 99.08 10.87Q97.75 10.44 96.81 9.59Q95.88 8.73 95.37 7.47Q94.87 6.21 94.87 4.53ZM98.42 3.16L103.69 3.16Q103.69 2.63 103.55 2.14Q103.41 1.65 103.10 1.26Q102.79 0.86 102.32 0.63Q101.84 0.39 101.14 0.39L101.14 0.39Q100.47 0.39 99.98 0.61Q99.49 0.84 99.17 1.23Q98.84 1.62 98.66 2.12Q98.48 2.63 98.42 3.16L98.42 3.16ZM109.76 11L109.76-1.74Q110.69-1.99 112.05-2.22Q113.40-2.44 115-2.44L115-2.44Q116.57-2.44 117.60-2.01Q118.64-1.57 119.24-0.77Q119.84 0.02 120.10 1.13Q120.35 2.24 120.35 3.58L120.35 3.58L120.35 11L116.90 11L116.90 4.03Q116.90 2.18 116.48 1.37Q116.06 0.56 114.78 0.56L114.78 0.56Q114.38 0.56 114.01 0.58Q113.63 0.61 113.21 0.67L113.21 0.67L113.21 11L109.76 11ZM126.00 6.10L126.00 0.70L123.01 0.70L123.01-2.16L126.00-2.16L126.00-5.46L129.45-6.02L129.45-2.16L134.96-2.16L134.96 0.70L129.45 0.70L129.45 6.02Q129.45 6.74 129.59 7.19Q129.73 7.64 129.98 7.89Q130.23 8.14 130.60 8.23Q130.96 8.31 131.41 8.31L131.41 8.31Q131.88 8.31 132.29 8.28Q132.70 8.26 133.07 8.19Q133.45 8.12 133.86 7.98Q134.26 7.84 134.74 7.61L134.74 7.61L135.22 10.58Q134.26 10.97 133.16 11.14Q132.05 11.31 131.02 11.31L131.02 11.31Q129.81 11.31 128.89 11.11Q127.96 10.92 127.32 10.36Q126.68 9.80 126.34 8.77Q126.00 7.75 126.00 6.10L126.00 6.10ZM156.27-6.53L156.27-6.53Q159.58-6.53 161.40-5.17Q163.22-3.81 163.22-0.73L163.22-0.73Q163.22 2.38 161.38 3.76Q159.55 5.15 156.19 5.15L156.19 5.15L154.96 5.15L154.96 11L151.51 11L151.51-6.11Q152.02-6.22 152.65-6.30Q153.28-6.39 153.92-6.43Q154.56-6.47 155.18-6.50Q155.80-6.53 156.27-6.53ZM156.66-3.53L156.66-3.53Q156.36-3.53 155.81-3.52Q155.26-3.50 154.96-3.45L154.96-3.45L154.96 2.15L156.36 2.15Q158.01 2.15 158.85 1.49Q159.69 0.84 159.69-0.76L159.69-0.76Q159.69-2.27 158.86-2.90Q158.04-3.53 156.66-3.53ZM171.03 8.54L171.03 8.54Q171.59 8.54 172.12 8.52Q172.65 8.51 173.04 8.45L173.04 8.45L173.04 5.43Q172.71 5.37 172.23 5.33Q171.76 5.29 171.36 5.29L171.36 5.29Q170.83 5.29 170.33 5.36Q169.82 5.43 169.45 5.60Q169.07 5.76 168.84 6.07Q168.62 6.38 168.62 6.88L168.62 6.88Q168.62 7.78 169.29 8.16Q169.96 8.54 171.03 8.54ZM170.72-2.50L170.72-2.50Q172.34-2.50 173.42-2.12Q174.50-1.74 175.14-1.05Q175.79-0.37 176.07 0.63Q176.35 1.62 176.35 2.85L176.35 2.85L176.35 10.69Q175.59 10.86 174.11 11.08Q172.62 11.31 170.78 11.31L170.78 11.31Q169.52 11.31 168.49 11.08Q167.47 10.86 166.74 10.34Q166.02 9.82 165.62 9.00Q165.23 8.17 165.23 6.97L165.23 6.97Q165.23 5.82 165.68 5.04Q166.13 4.25 166.88 3.78Q167.64 3.30 168.62 3.09Q169.60 2.88 170.66 2.88L170.66 2.88Q172.01 2.88 173.04 3.10L173.04 3.10L173.04 2.68Q173.04 1.70 172.43 1.05Q171.81 0.39 170.30 0.39L170.30 0.39Q169.32 0.39 168.41 0.53Q167.50 0.67 166.94 0.86L166.94 0.86L166.46-1.91Q167.11-2.13 168.28-2.31Q169.46-2.50 170.72-2.50ZM184.38 8.40L184.38 8.40Q185.64 8.40 186.32 8.21Q186.99 8.03 186.99 7.47L186.99 7.47Q186.99 7.11 186.78 6.86Q186.57 6.60 186.19 6.42Q185.81 6.24 185.32 6.07Q184.83 5.90 184.30 5.74L184.30 5.74Q183.54 5.51 182.76 5.22Q181.98 4.92 181.33 4.48Q180.69 4.03 180.27 3.34Q179.85 2.66 179.85 1.62L179.85 1.62Q179.85 0.78 180.17 0.04Q180.49-0.70 181.18-1.28Q181.86-1.85 182.93-2.17Q183.99-2.50 185.48-2.50L185.48-2.50Q186.76-2.50 187.87-2.30Q188.98-2.10 189.79-1.74L189.79-1.74L189.26 1.17Q188.78 1.03 187.77 0.71Q186.76 0.39 185.50 0.39L185.50 0.39Q184.19 0.39 183.73 0.71Q183.26 1.03 183.26 1.40L183.26 1.40Q183.26 1.70 183.47 1.94Q183.68 2.18 184.03 2.38Q184.38 2.57 184.85 2.75Q185.31 2.94 185.84 3.10L185.84 3.10Q186.60 3.36 187.41 3.66Q188.22 3.97 188.88 4.43Q189.54 4.90 189.96 5.61Q190.38 6.32 190.38 7.36L190.38 7.36Q190.38 8.17 190.07 8.90Q189.76 9.63 189.05 10.16Q188.33 10.69 187.18 11Q186.04 11.31 184.36 11.31L184.36 11.31Q182.65 11.31 181.44 10.92Q180.24 10.52 179.51 10.22L179.51 10.22L180.04 7.33Q181.02 7.72 182.13 8.06Q183.24 8.40 184.38 8.40ZM193.23 4.42L193.23 4.42Q193.23 2.99 193.68 1.73Q194.13 0.47 195.05-0.47Q195.98-1.40 197.39-1.95Q198.80-2.50 200.76-2.50L200.76-2.50Q201.94-2.50 202.89-2.33Q203.84-2.16 204.82-1.77L204.82-1.77L204.07 1.00Q203.51 0.81 202.82 0.65Q202.14 0.50 201.07 0.50L201.07 0.50Q199.84 0.50 199.01 0.79Q198.19 1.09 197.68 1.61Q197.18 2.12 196.96 2.85Q196.73 3.58 196.73 4.42L196.73 4.42Q196.73 6.24 197.75 7.28Q198.78 8.31 201.24 8.31L201.24 8.31Q202.05 8.31 202.93 8.20Q203.82 8.09 204.54 7.84L204.54 7.84L205.05 10.66Q204.32 10.94 203.28 11.13Q202.25 11.31 200.85 11.31L200.85 11.31Q198.83 11.31 197.39 10.78Q195.95 10.24 195.02 9.32Q194.10 8.40 193.67 7.14Q193.23 5.88 193.23 4.42ZM213.03 8.54L213.03 8.54Q213.59 8.54 214.12 8.52Q214.65 8.51 215.04 8.45L215.04 8.45L215.04 5.43Q214.71 5.37 214.23 5.33Q213.76 5.29 213.36 5.29L213.36 5.29Q212.83 5.29 212.33 5.36Q211.82 5.43 211.45 5.60Q211.07 5.76 210.84 6.07Q210.62 6.38 210.62 6.88L210.62 6.88Q210.62 7.78 211.29 8.16Q211.96 8.54 213.03 8.54ZM212.72-2.50L212.72-2.50Q214.34-2.50 215.42-2.12Q216.50-1.74 217.14-1.05Q217.79-0.37 218.07 0.63Q218.35 1.62 218.35 2.85L218.35 2.85L218.35 10.69Q217.59 10.86 216.11 11.08Q214.62 11.31 212.78 11.31L212.78 11.31Q211.52 11.31 210.49 11.08Q209.47 10.86 208.74 10.34Q208.02 9.82 207.62 9.00Q207.23 8.17 207.23 6.97L207.23 6.97Q207.23 5.82 207.68 5.04Q208.13 4.25 208.88 3.78Q209.64 3.30 210.62 3.09Q211.60 2.88 212.66 2.88L212.66 2.88Q214.01 2.88 215.04 3.10L215.04 3.10L215.04 2.68Q215.04 1.70 214.43 1.05Q213.81 0.39 212.30 0.39L212.30 0.39Q211.32 0.39 210.41 0.53Q209.50 0.67 208.94 0.86L208.94 0.86L208.46-1.91Q209.11-2.13 210.28-2.31Q211.46-2.50 212.72-2.50ZM232.63 7.67L233.08 10.44Q232.99 10.50 232.70 10.64Q232.40 10.78 231.93 10.93Q231.45 11.08 230.77 11.20Q230.08 11.31 229.21 11.31L229.21 11.31Q226.83 11.31 225.74 9.89Q224.65 8.48 224.65 5.76L224.65 5.76L224.65-5.41L221.01-5.41L221.01-8.26L228.09-8.26L228.09 6.02Q228.09 7.36 228.62 7.84Q229.16 8.31 229.97 8.31L229.97 8.31Q231.00 8.31 231.70 8.03Q232.40 7.75 232.63 7.67L232.63 7.67Z"/>
    </g>
</svg>