<?xml version="1.0" encoding="UTF-8"?>
<svg height="34" width="148.89999999999998" version="1.1" xmlns="http://www.w3.org/2000/svg">
    <rect
        height="32"
        width="146.89999999999998"
        rx="14"
        ry="14"
        x="1"
        y="1"
        fill="#003a52"
        stroke="#00a4eb"
        stroke-width="1"
         />
    <g transform="translate(0, 14)">
        <path fill="#00a4eb" d="M14.96-3.45L14.96 8.20Q15.10 8.23 15.26 8.23Q15.43 8.23 15.57 8.23L15.57 8.23Q16.75 8.23 17.55 7.78Q18.34 7.33 18.83 6.55Q19.32 5.76 19.53 4.69Q19.74 3.61 19.74 2.32L19.74 2.32Q19.74 1.20 19.58 0.14Q19.41-0.93 18.99-1.74Q18.57-2.55 17.84-3.04Q17.11-3.53 15.96-3.53L15.96-3.53Q15.74-3.53 15.46-3.52Q15.18-3.50 14.96-3.45L14.96-3.45ZM23.24 2.32L23.24 2.32Q23.24 4.73 22.64 6.42Q22.04 8.12 20.98 9.18Q19.91 10.24 18.44 10.73Q16.97 11.22 15.21 11.22L15.21 11.22Q14.28 11.22 13.40 11.13Q12.52 11.03 11.51 10.80L11.51 10.80L11.51-6.11Q12.69-6.36 13.72-6.44Q14.76-6.53 15.66-6.53L15.66-6.53Q17.36-6.53 18.78-6.02Q20.19-5.52 21.17-4.44Q22.15-3.36 22.70-1.70Q23.24-0.03 23.24 2.32ZM31.03 8.54L31.03 8.54Q31.59 8.54 32.12 8.52Q32.65 8.51 33.04 8.45L33.04 8.45L33.04 5.43Q32.71 5.37 32.23 5.33Q31.76 5.29 31.36 5.29L31.36 5.29Q30.83 5.29 30.33 5.36Q29.82 5.43 29.45 5.60Q29.07 5.76 28.84 6.07Q28.62 6.38 28.62 6.88L28.62 6.88Q28.62 7.78 29.29 8.16Q29.96 8.54 31.03 8.54ZM30.72-2.50L30.72-2.50Q32.34-2.50 33.42-2.12Q34.50-1.74 35.14-1.05Q35.79-0.37 36.07 0.63Q36.35 1.62 36.35 2.85L36.35 2.85L36.35 10.69Q35.59 10.86 34.11 11.08Q32.62 11.31 30.78 11.31L30.78 11.31Q29.52 11.31 28.49 11.08Q27.47 10.86 26.74 10.34Q26.02 9.82 25.62 9.00Q25.23 8.17 25.23 6.97L25.23 6.97Q25.23 5.82 25.68 5.04Q26.13 4.25 26.88 3.78Q27.64 3.30 28.62 3.09Q29.60 2.88 30.66 2.88L30.66 2.88Q32.01 2.88 33.04 3.10L33.04 3.10L33.04 2.68Q33.04 1.70 32.43 1.05Q31.81 0.39 30.30 0.39L30.30 0.39Q29.32 0.39 28.41 0.53Q27.50 0.67 26.94 0.86L26.94 0.86L26.46-1.91Q27.11-2.13 28.28-2.31Q29.46-2.50 30.72-2.50ZM42.00 6.10L42.00 0.70L39.01 0.70L39.01-2.16L42.00-2.16L42.00-5.46L45.45-6.02L45.45-2.16L50.96-2.16L50.96 0.70L45.45 0.70L45.45 6.02Q45.45 6.74 45.59 7.19Q45.73 7.64 45.98 7.89Q46.23 8.14 46.60 8.23Q46.96 8.31 47.41 8.31L47.41 8.31Q47.88 8.31 48.29 8.28Q48.70 8.26 49.07 8.19Q49.45 8.12 49.86 7.98Q50.26 7.84 50.74 7.61L50.74 7.61L51.22 10.58Q50.26 10.97 49.16 11.14Q48.05 11.31 47.02 11.31L47.02 11.31Q45.81 11.31 44.89 11.11Q43.96 10.92 43.32 10.36Q42.68 9.80 42.34 8.77Q42.00 7.75 42.00 6.10L42.00 6.10ZM59.03 8.54L59.03 8.54Q59.59 8.54 60.12 8.52Q60.65 8.51 61.04 8.45L61.04 8.45L61.04 5.43Q60.71 5.37 60.23 5.33Q59.76 5.29 59.36 5.29L59.36 5.29Q58.83 5.29 58.33 5.36Q57.82 5.43 57.45 5.60Q57.07 5.76 56.84 6.07Q56.62 6.38 56.62 6.88L56.62 6.88Q56.62 7.78 57.29 8.16Q57.96 8.54 59.03 8.54ZM58.72-2.50L58.72-2.50Q60.34-2.50 61.42-2.12Q62.50-1.74 63.14-1.05Q63.79-0.37 64.07 0.63Q64.35 1.62 64.35 2.85L64.35 2.85L64.35 10.69Q63.59 10.86 62.11 11.08Q60.62 11.31 58.78 11.31L58.78 11.31Q57.52 11.31 56.49 11.08Q55.47 10.86 54.74 10.34Q54.02 9.82 53.62 9.00Q53.23 8.17 53.23 6.97L53.23 6.97Q53.23 5.82 53.68 5.04Q54.13 4.25 54.88 3.78Q55.64 3.30 56.62 3.09Q57.60 2.88 58.66 2.88L58.66 2.88Q60.01 2.88 61.04 3.10L61.04 3.10L61.04 2.68Q61.04 1.70 60.43 1.05Q59.81 0.39 58.30 0.39L58.30 0.39Q57.32 0.39 56.41 0.53Q55.50 0.67 54.94 0.86L54.94 0.86L54.46-1.91Q55.11-2.13 56.28-2.31Q57.46-2.50 58.72-2.50ZM71.77-0.20L74.29-0.20Q74.40 0.33 74.62 1.12Q74.85 1.90 75.11 2.85Q75.38 3.80 75.70 4.90Q76.02 5.99 76.33 7.14L76.33 7.14Q76.33 5.68 76.30 4.01Q76.28 2.35 76.25 0.61Q76.22-1.12 76.19-2.90Q76.16-4.68 76.16-6.33L76.16-6.33L79.36-6.33Q79.27-4.20 79.19-1.95Q79.10 0.30 78.99 2.53Q78.88 4.76 78.73 6.91Q78.57 9.07 78.38 11L78.38 11L75.52 11Q74.90 9.24 74.29 7.21Q73.67 5.18 73.06 3.33L73.06 3.33Q72.44 5.09 71.77 7.16Q71.10 9.24 70.54 11L70.54 11L67.68 11Q67.46 9.07 67.29 6.90Q67.12 4.73 66.99 2.50Q66.87 0.28 66.78-1.98Q66.70-4.23 66.64-6.33L66.64-6.33L69.84-6.33Q69.81-4.68 69.78-2.92Q69.75-1.15 69.72 0.60Q69.70 2.35 69.67 4.01Q69.64 5.68 69.64 7.14L69.64 7.14Q69.89 6.24 70.21 5.18Q70.54 4.11 70.83 3.08Q71.12 2.04 71.38 1.17Q71.63 0.30 71.77-0.20L71.77-0.20ZM80.87 4.53L80.87 4.53Q80.87 2.80 81.40 1.48Q81.93 0.16 82.80-0.72Q83.67-1.60 84.79-2.05Q85.91-2.50 87.08-2.50L87.08-2.50Q90.00-2.50 91.51-0.77Q93.02 0.95 93.02 4.25L93.02 4.25Q93.02 4.59 93.01 4.95Q92.99 5.32 92.96 5.54L92.96 5.54L84.42 5.54Q84.42 6.83 85.49 7.57Q86.55 8.31 88.23 8.31L88.23 8.31Q89.27 8.31 90.21 8.09Q91.14 7.86 91.79 7.64L91.79 7.64L92.26 10.58Q91.37 10.89 90.36 11.10Q89.35 11.31 88.09 11.31L88.09 11.31Q86.41 11.31 85.08 10.87Q83.75 10.44 82.81 9.59Q81.88 8.73 81.37 7.47Q80.87 6.21 80.87 4.53ZM84.42 3.16L89.69 3.16Q89.69 2.63 89.55 2.14Q89.41 1.65 89.10 1.26Q88.79 0.86 88.32 0.63Q87.84 0.39 87.14 0.39L87.14 0.39Q86.47 0.39 85.98 0.61Q85.49 0.84 85.17 1.23Q84.84 1.62 84.66 2.12Q84.48 2.63 84.42 3.16L84.42 3.16ZM101.03 8.54L101.03 8.54Q101.59 8.54 102.12 8.52Q102.65 8.51 103.04 8.45L103.04 8.45L103.04 5.43Q102.71 5.37 102.23 5.33Q101.76 5.29 101.36 5.29L101.36 5.29Q100.83 5.29 100.33 5.36Q99.82 5.43 99.45 5.60Q99.07 5.76 98.84 6.07Q98.62 6.38 98.62 6.88L98.62 6.88Q98.62 7.78 99.29 8.16Q99.96 8.54 101.03 8.54ZM100.72-2.50L100.72-2.50Q102.34-2.50 103.42-2.12Q104.50-1.74 105.14-1.05Q105.79-0.37 106.07 0.63Q106.35 1.62 106.35 2.85L106.35 2.85L106.35 10.69Q105.59 10.86 104.11 11.08Q102.62 11.31 100.78 11.31L100.78 11.31Q99.52 11.31 98.49 11.08Q97.47 10.86 96.74 10.34Q96.02 9.82 95.62 9.00Q95.23 8.17 95.23 6.97L95.23 6.97Q95.23 5.82 95.68 5.04Q96.13 4.25 96.88 3.78Q97.64 3.30 98.62 3.09Q99.60 2.88 100.66 2.88L100.66 2.88Q102.01 2.88 103.04 3.10L103.04 3.10L103.04 2.68Q103.04 1.70 102.43 1.05Q101.81 0.39 100.30 0.39L100.30 0.39Q99.32 0.39 98.41 0.53Q97.50 0.67 96.94 0.86L96.94 0.86L96.46-1.91Q97.11-2.13 98.28-2.31Q99.46-2.50 100.72-2.50ZM116.32 11L113.43 11Q112.17 8.51 110.87 5.16Q109.57 1.82 108.39-2.16L108.39-2.16L112.00-2.16Q112.26-1.10 112.61 0.11Q112.96 1.31 113.35 2.53Q113.74 3.75 114.15 4.90Q114.55 6.04 114.92 7.00L114.92 7.00Q115.28 6.04 115.73 4.90Q116.18 3.75 116.61 2.53Q117.04 1.31 117.45 0.11Q117.86-1.10 118.11-2.16L118.11-2.16L121.61-2.16Q120.43 1.82 119.00 5.16Q117.58 8.51 116.32 11L116.32 11ZM122.87 4.53L122.87 4.53Q122.87 2.80 123.40 1.48Q123.93 0.16 124.80-0.72Q125.67-1.60 126.79-2.05Q127.91-2.50 129.08-2.50L129.08-2.50Q132.00-2.50 133.51-0.77Q135.02 0.95 135.02 4.25L135.02 4.25Q135.02 4.59 135.01 4.95Q134.99 5.32 134.96 5.54L134.96 5.54L126.42 5.54Q126.42 6.83 127.49 7.57Q128.55 8.31 130.23 8.31L130.23 8.31Q131.27 8.31 132.21 8.09Q133.14 7.86 133.79 7.64L133.79 7.64L134.26 10.58Q133.37 10.89 132.36 11.10Q131.35 11.31 130.09 11.31L130.09 11.31Q128.41 11.31 127.08 10.87Q125.75 10.44 124.81 9.59Q123.88 8.73 123.37 7.47Q122.87 6.21 122.87 4.53ZM126.42 3.16L131.69 3.16Q131.69 2.63 131.55 2.14Q131.41 1.65 131.10 1.26Q130.79 0.86 130.32 0.63Q129.84 0.39 129.14 0.39L129.14 0.39Q128.47 0.39 127.98 0.61Q127.49 0.84 127.17 1.23Q126.84 1.62 126.66 2.12Q126.48 2.63 126.42 3.16L126.42 3.16Z"/>
    </g>
</svg>