<?xml version="1.0" encoding="UTF-8"?>
<svg height="34" width="235.6" version="1.1" xmlns="http://www.w3.org/2000/svg">
    <rect
        height="32"
        width="233.6"
        rx="16"
        ry="16"
        x="1"
        y="1"
        fill="#A9157E"
        stroke="#200418"
        stroke-width="1"
         />
    <g transform="translate(0, 12)">
        <path fill="#200418" d="M31.78 12L28.62 12L27.92 8.57L23.96 8.57L23.29 12L20.22 12Q21.27 7.61 22.35 4.00Q23.43 0.38 24.44-2.86L24.44-2.86L27.66-2.86Q28.71 0.41 29.76 4.07Q30.80 7.73 31.78 12L31.78 12ZM25.98 0.02L25.98 0.02Q25.74 0.86 25.53 1.62Q25.33 2.38 25.15 3.11Q24.97 3.84 24.81 4.58Q24.66 5.33 24.51 6.12L24.51 6.12L27.42 6.12Q27.27 5.33 27.13 4.58Q26.98 3.84 26.80 3.11Q26.62 2.38 26.42 1.62Q26.22 0.86 25.98 0.02ZM33.51 12L33.51 1.08Q34.30 0.86 35.47 0.67Q36.63 0.48 38 0.48L38 0.48Q39.34 0.48 40.23 0.85Q41.12 1.22 41.64 1.91Q42.15 2.59 42.37 3.54Q42.58 4.49 42.58 5.64L42.58 5.64L42.58 12L39.63 12L39.63 6.02Q39.63 4.44 39.27 3.74Q38.91 3.05 37.81 3.05L37.81 3.05Q37.47 3.05 37.15 3.07Q36.82 3.10 36.46 3.14L36.46 3.14L36.46 12L33.51 12ZM47.43 7.80L47.43 3.17L44.86 3.17L44.86 0.72L47.43 0.72L47.43-2.11L50.38-2.59L50.38 0.72L55.11 0.72L55.11 3.17L50.38 3.17L50.38 7.73Q50.38 8.35 50.50 8.74Q50.62 9.12 50.84 9.34Q51.06 9.55 51.37 9.62Q51.68 9.70 52.06 9.70L52.06 9.70Q52.47 9.70 52.82 9.67Q53.17 9.65 53.49 9.59Q53.82 9.53 54.16 9.41Q54.51 9.29 54.92 9.10L54.92 9.10L55.33 11.64Q54.51 11.98 53.56 12.12Q52.62 12.26 51.73 12.26L51.73 12.26Q50.70 12.26 49.90 12.10Q49.11 11.93 48.56 11.45Q48.01 10.97 47.72 10.09Q47.43 9.22 47.43 7.80L47.43 7.80ZM79.26 7.51L79.26 7.51Q79.26 8.86 78.80 9.76Q78.34 10.66 77.56 11.20Q76.78 11.74 75.72 11.96Q74.65 12.19 73.42 12.19L73.42 12.19Q72.44 12.19 71.38 12.08Q70.33 11.98 69.30 11.76L69.30 11.76L69.30-2.66Q70.14-2.81 71.14-2.92Q72.15-3.02 73.14-3.02L73.14-3.02Q74.82-3.02 75.87-2.68Q76.93-2.33 77.53-1.76Q78.13-1.20 78.34-0.50Q78.56 0.19 78.56 0.89L78.56 0.89Q78.56 1.94 78.04 2.76Q77.53 3.58 76.66 4.06L76.66 4.06Q78.18 4.61 78.72 5.54Q79.26 6.48 79.26 7.51ZM73.83 5.50L72.25 5.50L72.25 9.53Q72.56 9.58 72.93 9.60Q73.30 9.62 73.66 9.62L73.66 9.62Q74.17 9.62 74.65 9.54Q75.13 9.46 75.50 9.23Q75.87 9 76.11 8.58Q76.35 8.16 76.35 7.51L76.35 7.51Q76.35 6.43 75.67 5.96Q74.98 5.50 73.83 5.50L73.83 5.50ZM72.25 3.05L73.40 3.05Q74.53 3.05 75.10 2.56Q75.68 2.06 75.68 1.20L75.68 1.20Q75.68 0.67 75.51 0.35Q75.34 0.02 75.06-0.16Q74.77-0.34 74.38-0.40Q74-0.46 73.59-0.46L73.59-0.46Q73.26-0.46 72.90-0.43Q72.54-0.41 72.25-0.36L72.25-0.36L72.25 3.05ZM90.51 0.72L90.51 11.62Q89.70 11.83 88.53 12.05Q87.37 12.26 86 12.26L86 12.26Q84.61 12.26 83.72 11.88Q82.83 11.50 82.32 10.79Q81.80 10.08 81.61 9.12Q81.42 8.16 81.42 7.01L81.42 7.01L81.42 0.72L84.37 0.72L84.37 6.62Q84.37 8.18 84.74 8.94Q85.11 9.70 86.19 9.70L86.19 9.70Q86.86 9.70 87.54 9.58L87.54 9.58L87.54 0.72L90.51 0.72ZM98.82-2.52L98.82-2.52Q98.82-1.66 98.26-1.15Q97.71-0.65 96.94-0.65L96.94-0.65Q96.18-0.65 95.64-1.15Q95.10-1.66 95.10-2.52L95.10-2.52Q95.10-3.41 95.64-3.91Q96.18-4.42 96.94-4.42L96.94-4.42Q97.71-4.42 98.26-3.91Q98.82-3.41 98.82-2.52ZM102.82 9.14L103.21 11.52Q102.30 11.95 101.49 12.11Q100.69 12.26 100.02 12.26L100.02 12.26Q98.86 12.26 98.08 11.93Q97.30 11.59 96.84 10.96Q96.37 10.32 96.18 9.41Q95.98 8.50 95.98 7.32L95.98 7.32L95.98 3.17L92.86 3.17L92.86 0.72L98.94 0.72L98.94 7.70Q98.94 8.71 99.31 9.20Q99.68 9.70 100.54 9.70L100.54 9.70Q100.95 9.70 101.53 9.59Q102.10 9.48 102.82 9.14L102.82 9.14ZM114.82 9.14L115.21 11.52Q115.14 11.57 114.88 11.69Q114.63 11.81 114.22 11.94Q113.82 12.07 113.23 12.17Q112.64 12.26 111.90 12.26L111.90 12.26Q109.86 12.26 108.92 11.05Q107.98 9.84 107.98 7.51L107.98 7.51L107.98-2.06L104.86-2.06L104.86-4.51L110.94-4.51L110.94 7.73Q110.94 8.88 111.39 9.29Q111.85 9.70 112.54 9.70L112.54 9.70Q113.43 9.70 114.03 9.46Q114.63 9.22 114.82 9.14L114.82 9.14ZM119.67 6.29L119.67 6.29Q119.67 7.80 120.24 8.76Q120.80 9.72 122.05 9.72L122.05 9.72Q122.41 9.72 122.72 9.70Q123.03 9.67 123.37 9.62L123.37 9.62L123.37 3.48Q123.03 3.29 122.60 3.16Q122.17 3.02 121.69 3.02L121.69 3.02Q120.63 3.02 120.15 3.86Q119.67 4.70 119.67 6.29ZM126.32-4.66L126.32 11.66Q125.50 11.93 124.33 12.10Q123.15 12.26 122.02 12.26L122.02 12.26Q119.38 12.26 118.03 10.70Q116.67 9.14 116.67 6.43L116.67 6.43Q116.67 3.67 117.81 2.08Q118.95 0.48 121.18 0.48L121.18 0.48Q121.78 0.48 122.36 0.61Q122.94 0.74 123.37 0.98L123.37 0.98L123.37-4.15L126.32-4.66ZM145.57 9.84L145.57 9.84Q146.31 9.84 146.80 9.68Q147.30 9.53 147.58 9.25Q147.87 8.98 147.98 8.63Q148.09 8.28 148.09 7.92L148.09 7.92Q148.09 7.46 147.82 7.10Q147.56 6.74 147.15 6.47Q146.74 6.19 146.24 5.96Q145.74 5.74 145.23 5.54L145.23 5.54Q144.56 5.30 143.84 4.99Q143.12 4.68 142.53 4.20Q141.94 3.72 141.56 3.01Q141.18 2.30 141.18 1.25L141.18 1.25Q141.18-0.84 142.53-2.02Q143.89-3.19 146.26-3.19L146.26-3.19Q147.63-3.19 148.65-2.88Q149.67-2.57 150.37-2.18L150.37-2.18L149.50 0.10Q148.90-0.24 148.17-0.48Q147.44-0.72 146.48-0.72L146.48-0.72Q144.13-0.72 144.13 0.98L144.13 0.98Q144.13 1.42 144.37 1.74Q144.61 2.06 144.98 2.32Q145.35 2.57 145.82 2.76Q146.29 2.95 146.74 3.12L146.74 3.12Q147.44 3.38 148.20 3.71Q148.95 4.03 149.59 4.57Q150.22 5.11 150.63 5.92Q151.04 6.72 151.04 7.94L151.04 7.94Q151.04 10.03 149.68 11.17Q148.33 12.31 145.57 12.31L145.57 12.31Q143.72 12.31 142.62 11.92Q141.51 11.52 140.96 11.18L140.96 11.18L141.82 8.78Q142.47 9.17 143.37 9.50Q144.27 9.84 145.57 9.84ZM160.30 0.72L163.33 0.72Q162.87 2.30 162.45 3.83Q162.03 5.35 161.58 6.80Q161.12 8.26 160.60 9.65Q160.09 11.04 159.49 12.36L159.49 12.36Q159.03 13.32 158.59 14.02Q158.14 14.71 157.60 15.16Q157.06 15.60 156.40 15.82Q155.74 16.03 154.86 16.03L154.86 16.03Q154.11 16.03 153.50 15.91Q152.89 15.79 152.48 15.60L152.48 15.60L153.03 13.13Q153.51 13.34 153.88 13.43Q154.26 13.51 154.69 13.51L154.69 13.51Q155.55 13.51 156.08 12.94Q156.61 12.36 156.92 11.57L156.92 11.57Q155.86 9.46 154.81 6.73Q153.75 4.01 152.89 0.72L152.89 0.72L155.96 0.72Q156.18 1.61 156.45 2.62Q156.73 3.62 157.04 4.63Q157.35 5.64 157.70 6.61Q158.05 7.58 158.41 8.42L158.41 8.42Q158.65 7.58 158.91 6.61Q159.18 5.64 159.42 4.64Q159.66 3.65 159.88 2.64Q160.11 1.63 160.30 0.72L160.30 0.72ZM169.47 9.77L169.47 9.77Q170.55 9.77 171.13 9.61Q171.70 9.46 171.70 8.98L171.70 8.98Q171.70 8.66 171.52 8.45Q171.34 8.23 171.02 8.08Q170.70 7.92 170.28 7.78Q169.86 7.63 169.40 7.49L169.40 7.49Q168.75 7.30 168.08 7.04Q167.41 6.79 166.86 6.41Q166.30 6.02 165.94 5.44Q165.58 4.85 165.58 3.96L165.58 3.96Q165.58 3.24 165.86 2.60Q166.14 1.97 166.72 1.48Q167.31 0.98 168.22 0.71Q169.14 0.43 170.41 0.43L170.41 0.43Q171.51 0.43 172.46 0.60Q173.41 0.77 174.10 1.08L174.10 1.08L173.65 3.58Q173.24 3.46 172.38 3.18Q171.51 2.90 170.43 2.90L170.43 2.90Q169.30 2.90 168.91 3.18Q168.51 3.46 168.51 3.77L168.51 3.77Q168.51 4.03 168.69 4.24Q168.87 4.44 169.17 4.61Q169.47 4.78 169.87 4.93Q170.26 5.09 170.72 5.23L170.72 5.23Q171.37 5.45 172.06 5.71Q172.76 5.98 173.32 6.37Q173.89 6.77 174.25 7.38Q174.61 7.99 174.61 8.88L174.61 8.88Q174.61 9.58 174.34 10.20Q174.08 10.82 173.47 11.28Q172.86 11.74 171.87 12Q170.89 12.26 169.45 12.26L169.45 12.26Q167.98 12.26 166.95 11.93Q165.92 11.59 165.30 11.33L165.30 11.33L165.75 8.86Q166.59 9.19 167.54 9.48Q168.49 9.77 169.47 9.77ZM179.43 7.80L179.43 3.17L176.86 3.17L176.86 0.72L179.43 0.72L179.43-2.11L182.38-2.59L182.38 0.72L187.11 0.72L187.11 3.17L182.38 3.17L182.38 7.73Q182.38 8.35 182.50 8.74Q182.62 9.12 182.84 9.34Q183.06 9.55 183.37 9.62Q183.68 9.70 184.06 9.70L184.06 9.70Q184.47 9.70 184.82 9.67Q185.17 9.65 185.49 9.59Q185.82 9.53 186.16 9.41Q186.51 9.29 186.92 9.10L186.92 9.10L187.33 11.64Q186.51 11.98 185.56 12.12Q184.62 12.26 183.73 12.26L183.73 12.26Q182.70 12.26 181.90 12.10Q181.11 11.93 180.56 11.45Q180.01 10.97 179.72 10.09Q179.43 9.22 179.43 7.80L179.43 7.80ZM188.74 6.46L188.74 6.46Q188.74 4.97 189.20 3.84Q189.66 2.71 190.40 1.96Q191.14 1.20 192.10 0.82Q193.06 0.43 194.07 0.43L194.07 0.43Q196.57 0.43 197.86 1.91Q199.16 3.38 199.16 6.22L199.16 6.22Q199.16 6.50 199.15 6.82Q199.14 7.13 199.11 7.32L199.11 7.32L191.79 7.32Q191.79 8.42 192.70 9.06Q193.62 9.70 195.06 9.70L195.06 9.70Q195.94 9.70 196.75 9.50Q197.55 9.31 198.10 9.12L198.10 9.12L198.51 11.64Q197.74 11.90 196.88 12.08Q196.02 12.26 194.94 12.26L194.94 12.26Q193.50 12.26 192.36 11.89Q191.22 11.52 190.41 10.79Q189.61 10.06 189.18 8.98Q188.74 7.90 188.74 6.46ZM191.79 5.28L196.30 5.28Q196.30 4.82 196.18 4.40Q196.06 3.98 195.80 3.65Q195.54 3.31 195.13 3.11Q194.72 2.90 194.12 2.90L194.12 2.90Q193.54 2.90 193.12 3.10Q192.70 3.29 192.43 3.62Q192.15 3.96 192.00 4.39Q191.84 4.82 191.79 5.28L191.79 5.28ZM208.23 0.60L208.23 0.60Q209.17 0.60 209.77 0.89Q210.37 1.18 210.72 1.75Q211.06 2.33 211.18 3.20Q211.30 4.08 211.30 5.26L211.30 5.26L211.30 12L208.90 12L208.90 5.11Q208.90 4.44 208.82 4.03Q208.74 3.62 208.60 3.41Q208.47 3.19 208.29 3.12Q208.11 3.05 207.92 3.05L207.92 3.05Q207.70 3.05 207.46 3.08Q207.22 3.12 207.03 3.22L207.03 3.22Q207.10 3.67 207.15 4.22Q207.20 4.78 207.20 5.45L207.20 5.45L207.20 7.70L204.80 7.70L204.80 5.11Q204.80 3.96 204.57 3.50Q204.34 3.05 203.84 3.05L203.84 3.05Q203.70 3.05 203.49 3.07Q203.29 3.10 203.10 3.14L203.10 3.14L203.10 12L200.70 12L200.70 1.15Q201.63 0.89 202.54 0.74Q203.46 0.60 204.15 0.60L204.15 0.60Q204.78 0.60 205.27 0.76Q205.76 0.91 206.12 1.27L206.12 1.27Q206.53 1.01 207.08 0.80Q207.63 0.60 208.23 0.60Z"/>
    </g>
</svg>