<?xml version="1.0" encoding="UTF-8"?>
<svg height="26" width="171.6" version="1.1" xmlns="http://www.w3.org/2000/svg"><!--Created by Josélio de S. C. Júnior - 2021 - https://github.com/joseliojunior -->
    <rect
        height="24"
        width="169.6"
        rx="1"
        ry="1"
        x="1" y="1"
        fill="#A9157E"
        stroke="#200418"
        stroke-width="1" />
    <g transform="translate(0, 8)">
        <path fill="#200418" d="M27.86 10L25.74 10L25.28 7.71L22.64 7.71L22.19 10L20.14 10Q20.85 7.07 21.57 4.66Q22.29 2.26 22.96 0.10L22.96 0.10L25.10 0.10Q25.81 2.27 26.50 4.71Q27.20 7.15 27.86 10L27.86 10ZM23.98 2.02L23.98 2.02Q23.82 2.58 23.69 3.08Q23.55 3.58 23.43 4.07Q23.31 4.56 23.21 5.06Q23.10 5.55 23.01 6.08L23.01 6.08L24.94 6.08Q24.85 5.55 24.75 5.06Q24.66 4.56 24.54 4.07Q24.42 3.58 24.28 3.08Q24.14 2.58 23.98 2.02ZM29.01 10L29.01 2.72Q29.54 2.58 30.31 2.45Q31.09 2.32 32 2.32L32 2.32Q32.90 2.32 33.49 2.57Q34.08 2.82 34.42 3.27Q34.77 3.73 34.91 4.36Q35.06 4.99 35.06 5.76L35.06 5.76L35.06 10L33.09 10L33.09 6.02Q33.09 4.96 32.85 4.50Q32.61 4.03 31.87 4.03L31.87 4.03Q31.65 4.03 31.43 4.05Q31.22 4.06 30.98 4.10L30.98 4.10L30.98 10L29.01 10ZM38.29 7.20L38.29 4.11L36.58 4.11L36.58 2.48L38.29 2.48L38.29 0.59L40.26 0.27L40.26 2.48L43.41 2.48L43.41 4.11L40.26 4.11L40.26 7.15Q40.26 7.57 40.34 7.82Q40.42 8.08 40.56 8.22Q40.70 8.37 40.91 8.42Q41.12 8.46 41.38 8.46L41.38 8.46Q41.65 8.46 41.88 8.45Q42.11 8.43 42.33 8.39Q42.54 8.35 42.78 8.27Q43.01 8.19 43.28 8.06L43.28 8.06L43.55 9.76Q43.01 9.98 42.38 10.08Q41.74 10.18 41.15 10.18L41.15 10.18Q40.46 10.18 39.94 10.06Q39.41 9.95 39.04 9.63Q38.67 9.31 38.48 8.73Q38.29 8.14 38.29 7.20L38.29 7.20ZM59.50 7.01L59.50 7.01Q59.50 7.90 59.20 8.50Q58.90 9.10 58.38 9.46Q57.86 9.82 57.14 9.98Q56.43 10.13 55.62 10.13L55.62 10.13Q54.96 10.13 54.26 10.06Q53.55 9.98 52.86 9.84L52.86 9.84L52.86 0.22Q53.42 0.13 54.10 0.06Q54.77-0.02 55.42-0.02L55.42-0.02Q56.54-0.02 57.25 0.22Q57.95 0.45 58.35 0.82Q58.75 1.20 58.90 1.66Q59.04 2.13 59.04 2.59L59.04 2.59Q59.04 3.30 58.70 3.84Q58.35 4.38 57.78 4.70L57.78 4.70Q58.78 5.07 59.14 5.70Q59.50 6.32 59.50 7.01ZM55.89 5.66L54.83 5.66L54.83 8.35Q55.04 8.38 55.29 8.40Q55.54 8.42 55.78 8.42L55.78 8.42Q56.11 8.42 56.43 8.36Q56.75 8.30 57 8.15Q57.25 8 57.41 7.72Q57.57 7.44 57.57 7.01L57.57 7.01Q57.57 6.29 57.11 5.98Q56.66 5.66 55.89 5.66L55.89 5.66ZM54.83 4.03L55.60 4.03Q56.35 4.03 56.74 3.70Q57.12 3.38 57.12 2.80L57.12 2.80Q57.12 2.45 57.01 2.23Q56.90 2.02 56.70 1.90Q56.51 1.78 56.26 1.74Q56 1.70 55.73 1.70L55.73 1.70Q55.50 1.70 55.26 1.71Q55.02 1.73 54.83 1.76L54.83 1.76L54.83 4.03ZM67.01 2.48L67.01 9.74Q66.46 9.89 65.69 10.03Q64.91 10.18 64 10.18L64 10.18Q63.07 10.18 62.48 9.92Q61.89 9.66 61.54 9.19Q61.20 8.72 61.07 8.08Q60.94 7.44 60.94 6.67L60.94 6.67L60.94 2.48L62.91 2.48L62.91 6.42Q62.91 7.46 63.16 7.96Q63.41 8.46 64.13 8.46L64.13 8.46Q64.58 8.46 65.02 8.38L65.02 8.38L65.02 2.48L67.01 2.48ZM72.54 0.32L72.54 0.32Q72.54 0.90 72.18 1.23Q71.81 1.57 71.30 1.57L71.30 1.57Q70.78 1.57 70.42 1.23Q70.06 0.90 70.06 0.32L70.06 0.32Q70.06-0.27 70.42-0.61Q70.78-0.94 71.30-0.94L71.30-0.94Q71.81-0.94 72.18-0.61Q72.54-0.27 72.54 0.32ZM75.22 8.10L75.47 9.68Q74.86 9.97 74.33 10.07Q73.79 10.18 73.34 10.18L73.34 10.18Q72.58 10.18 72.06 9.95Q71.54 9.73 71.22 9.30Q70.91 8.88 70.78 8.27Q70.66 7.66 70.66 6.88L70.66 6.88L70.66 4.11L68.58 4.11L68.58 2.48L72.62 2.48L72.62 7.14Q72.62 7.81 72.87 8.14Q73.12 8.46 73.70 8.46L73.70 8.46Q73.97 8.46 74.35 8.39Q74.74 8.32 75.22 8.10L75.22 8.10ZM83.22 8.10L83.47 9.68Q83.42 9.71 83.26 9.79Q83.09 9.87 82.82 9.96Q82.54 10.05 82.15 10.11Q81.76 10.18 81.26 10.18L81.26 10.18Q79.90 10.18 79.28 9.37Q78.66 8.56 78.66 7.01L78.66 7.01L78.66 0.62L76.58 0.62L76.58-1.01L80.62-1.01L80.62 7.15Q80.62 7.92 80.93 8.19Q81.23 8.46 81.70 8.46L81.70 8.46Q82.29 8.46 82.69 8.30Q83.09 8.14 83.22 8.10L83.22 8.10ZM86.45 6.19L86.45 6.19Q86.45 7.20 86.82 7.84Q87.20 8.48 88.03 8.48L88.03 8.48Q88.27 8.48 88.48 8.46Q88.69 8.45 88.91 8.42L88.91 8.42L88.91 4.32Q88.69 4.19 88.40 4.10Q88.11 4.02 87.79 4.02L87.79 4.02Q87.09 4.02 86.77 4.58Q86.45 5.14 86.45 6.19ZM90.88-1.10L90.88 9.78Q90.34 9.95 89.55 10.06Q88.77 10.18 88.02 10.18L88.02 10.18Q86.26 10.18 85.35 9.14Q84.45 8.10 84.45 6.29L84.45 6.29Q84.45 4.45 85.21 3.38Q85.97 2.32 87.46 2.32L87.46 2.32Q87.86 2.32 88.24 2.41Q88.62 2.50 88.91 2.66L88.91 2.66L88.91-0.77L90.88-1.10ZM103.71 8.56L103.71 8.56Q104.21 8.56 104.54 8.46Q104.86 8.35 105.06 8.17Q105.25 7.98 105.32 7.75Q105.39 7.52 105.39 7.28L105.39 7.28Q105.39 6.98 105.22 6.74Q105.04 6.50 104.77 6.31Q104.50 6.13 104.16 5.98Q103.82 5.82 103.49 5.70L103.49 5.70Q103.04 5.54 102.56 5.33Q102.08 5.12 101.69 4.80Q101.30 4.48 101.04 4.01Q100.78 3.54 100.78 2.83L100.78 2.83Q100.78 1.44 101.69 0.66Q102.59-0.13 104.18-0.13L104.18-0.13Q105.09-0.13 105.77 0.08Q106.45 0.29 106.91 0.54L106.91 0.54L106.34 2.06Q105.94 1.84 105.45 1.68Q104.96 1.52 104.32 1.52L104.32 1.52Q102.75 1.52 102.75 2.66L102.75 2.66Q102.75 2.94 102.91 3.16Q103.07 3.38 103.32 3.54Q103.57 3.71 103.88 3.84Q104.19 3.97 104.50 4.08L104.50 4.08Q104.96 4.26 105.46 4.47Q105.97 4.69 106.39 5.05Q106.82 5.41 107.09 5.94Q107.36 6.48 107.36 7.30L107.36 7.30Q107.36 8.69 106.46 9.45Q105.55 10.21 103.71 10.21L103.71 10.21Q102.48 10.21 101.74 9.94Q101.01 9.68 100.64 9.46L100.64 9.46L101.22 7.86Q101.65 8.11 102.25 8.34Q102.85 8.56 103.71 8.56ZM113.54 2.48L115.55 2.48Q115.25 3.54 114.97 4.55Q114.69 5.57 114.38 6.54Q114.08 7.50 113.74 8.43Q113.39 9.36 112.99 10.24L112.99 10.24Q112.69 10.88 112.39 11.34Q112.10 11.81 111.74 12.10Q111.38 12.40 110.94 12.54Q110.50 12.69 109.90 12.69L109.90 12.69Q109.41 12.69 109 12.61Q108.59 12.53 108.32 12.40L108.32 12.40L108.69 10.75Q109.01 10.90 109.26 10.95Q109.50 11.01 109.79 11.01L109.79 11.01Q110.37 11.01 110.72 10.62Q111.07 10.24 111.28 9.71L111.28 9.71Q110.58 8.30 109.87 6.49Q109.17 4.67 108.59 2.48L108.59 2.48L110.64 2.48Q110.78 3.07 110.97 3.74Q111.15 4.42 111.36 5.09Q111.57 5.76 111.80 6.41Q112.03 7.06 112.27 7.62L112.27 7.62Q112.43 7.06 112.61 6.41Q112.78 5.76 112.94 5.10Q113.10 4.43 113.26 3.76Q113.41 3.09 113.54 2.48L113.54 2.48ZM119.65 8.51L119.65 8.51Q120.37 8.51 120.75 8.41Q121.14 8.30 121.14 7.98L121.14 7.98Q121.14 7.78 121.02 7.63Q120.90 7.49 120.68 7.38Q120.46 7.28 120.18 7.18Q119.90 7.09 119.60 6.99L119.60 6.99Q119.17 6.86 118.72 6.70Q118.27 6.53 117.90 6.27Q117.54 6.02 117.30 5.62Q117.06 5.23 117.06 4.64L117.06 4.64Q117.06 4.16 117.24 3.74Q117.42 3.31 117.82 2.98Q118.21 2.66 118.82 2.47Q119.42 2.29 120.27 2.29L120.27 2.29Q121.01 2.29 121.64 2.40Q122.27 2.51 122.74 2.72L122.74 2.72L122.43 4.38Q122.16 4.30 121.58 4.12Q121.01 3.94 120.29 3.94L120.29 3.94Q119.54 3.94 119.27 4.12Q119.01 4.30 119.01 4.51L119.01 4.51Q119.01 4.69 119.13 4.82Q119.25 4.96 119.45 5.07Q119.65 5.18 119.91 5.29Q120.18 5.39 120.48 5.49L120.48 5.49Q120.91 5.63 121.38 5.81Q121.84 5.98 122.22 6.25Q122.59 6.51 122.83 6.92Q123.07 7.33 123.07 7.92L123.07 7.92Q123.07 8.38 122.90 8.80Q122.72 9.22 122.31 9.52Q121.90 9.82 121.25 10Q120.59 10.18 119.63 10.18L119.63 10.18Q118.66 10.18 117.97 9.95Q117.28 9.73 116.86 9.55L116.86 9.55L117.17 7.90Q117.73 8.13 118.36 8.32Q118.99 8.51 119.65 8.51ZM126.29 7.20L126.29 4.11L124.58 4.11L124.58 2.48L126.29 2.48L126.29 0.59L128.26 0.27L128.26 2.48L131.41 2.48L131.41 4.11L128.26 4.11L128.26 7.15Q128.26 7.57 128.34 7.82Q128.42 8.08 128.56 8.22Q128.70 8.37 128.91 8.42Q129.12 8.46 129.38 8.46L129.38 8.46Q129.65 8.46 129.88 8.45Q130.11 8.43 130.33 8.39Q130.54 8.35 130.78 8.27Q131.01 8.19 131.28 8.06L131.28 8.06L131.55 9.76Q131.01 9.98 130.38 10.08Q129.74 10.18 129.15 10.18L129.15 10.18Q128.46 10.18 127.94 10.06Q127.41 9.95 127.04 9.63Q126.67 9.31 126.48 8.73Q126.29 8.14 126.29 7.20L126.29 7.20ZM132.50 6.30L132.50 6.30Q132.50 5.31 132.80 4.56Q133.10 3.81 133.60 3.30Q134.10 2.80 134.74 2.54Q135.38 2.29 136.05 2.29L136.05 2.29Q137.71 2.29 138.58 3.27Q139.44 4.26 139.44 6.14L139.44 6.14Q139.44 6.34 139.43 6.54Q139.42 6.75 139.41 6.88L139.41 6.88L134.53 6.88Q134.53 7.62 135.14 8.04Q135.74 8.46 136.70 8.46L136.70 8.46Q137.30 8.46 137.83 8.34Q138.37 8.21 138.74 8.08L138.74 8.08L139.01 9.76Q138.50 9.94 137.92 10.06Q137.34 10.18 136.62 10.18L136.62 10.18Q135.66 10.18 134.90 9.93Q134.14 9.68 133.61 9.19Q133.07 8.70 132.78 7.98Q132.50 7.26 132.50 6.30ZM134.53 5.52L137.54 5.52Q137.54 5.22 137.46 4.94Q137.38 4.66 137.20 4.43Q137.02 4.21 136.75 4.07Q136.48 3.94 136.08 3.94L136.08 3.94Q135.70 3.94 135.42 4.06Q135.14 4.19 134.95 4.42Q134.77 4.64 134.66 4.93Q134.56 5.22 134.53 5.52L134.53 5.52ZM145.49 2.40L145.49 2.40Q146.11 2.40 146.51 2.59Q146.91 2.78 147.14 3.17Q147.38 3.55 147.46 4.14Q147.54 4.72 147.54 5.50L147.54 5.50L147.54 10L145.94 10L145.94 5.41Q145.94 4.96 145.88 4.69Q145.82 4.42 145.74 4.27Q145.65 4.13 145.53 4.08Q145.41 4.03 145.28 4.03L145.28 4.03Q145.14 4.03 144.98 4.06Q144.82 4.08 144.69 4.14L144.69 4.14Q144.74 4.45 144.77 4.82Q144.80 5.18 144.80 5.63L144.80 5.63L144.80 7.14L143.20 7.14L143.20 5.41Q143.20 4.64 143.05 4.34Q142.90 4.03 142.56 4.03L142.56 4.03Q142.46 4.03 142.33 4.05Q142.19 4.06 142.06 4.10L142.06 4.10L142.06 10L140.46 10L140.46 2.77Q141.09 2.59 141.70 2.50Q142.30 2.40 142.77 2.40L142.77 2.40Q143.18 2.40 143.51 2.50Q143.84 2.61 144.08 2.85L144.08 2.85Q144.35 2.67 144.72 2.54Q145.09 2.40 145.49 2.40Z"/>
    </g>
</svg>