<?xml version="1.0" encoding="UTF-8"?>
<svg height="34" width="92.5" version="1.1" xmlns="http://www.w3.org/2000/svg">
    <rect
        height="32"
        width="90.5"
        rx="14"
        ry="14"
        x="1"
        y="1"
        fill="#ff0000"
        stroke="#660000"
        stroke-width="1"
         />
    <g transform="translate(0, 14)">
        <path fill="#660000" d="M23.13 5.76L23.13 5.76Q23.13 7.33 22.60 8.38Q22.07 9.43 21.16 10.06Q20.25 10.69 19.00 10.96Q17.76 11.22 16.33 11.22L16.33 11.22Q15.18 11.22 13.95 11.10Q12.72 10.97 11.51 10.72L11.51 10.72L11.51-6.11Q12.49-6.28 13.67-6.40Q14.84-6.53 15.99-6.53L15.99-6.53Q17.95-6.53 19.18-6.12Q20.42-5.72 21.12-5.06Q21.82-4.40 22.07-3.59Q22.32-2.78 22.32-1.96L22.32-1.96Q22.32-0.73 21.72 0.22Q21.12 1.17 20.11 1.73L20.11 1.73Q21.87 2.38 22.50 3.47Q23.13 4.56 23.13 5.76ZM16.80 3.41L14.96 3.41L14.96 8.12Q15.32 8.17 15.75 8.20Q16.19 8.23 16.61 8.23L16.61 8.23Q17.20 8.23 17.76 8.13Q18.32 8.03 18.75 7.77Q19.18 7.50 19.46 7.01Q19.74 6.52 19.74 5.76L19.74 5.76Q19.74 4.50 18.95 3.96Q18.15 3.41 16.80 3.41L16.80 3.41ZM14.96 0.56L16.30 0.56Q17.62 0.56 18.29-0.02Q18.96-0.59 18.96-1.60L18.96-1.60Q18.96-2.22 18.76-2.59Q18.57-2.97 18.23-3.18Q17.90-3.39 17.45-3.46Q17-3.53 16.52-3.53L16.52-3.53Q16.13-3.53 15.71-3.50Q15.29-3.48 14.96-3.42L14.96-3.42L14.96 0.56ZM37.75 11L34.05 11L33.24 7.00L28.62 7.00L27.84 11L24.25 11Q25.48 5.88 26.74 1.66Q28.00-2.55 29.18-6.33L29.18-6.33L32.93-6.33Q34.16-2.52 35.38 1.75Q36.60 6.02 37.75 11L37.75 11ZM30.97-2.97L30.97-2.97Q30.69-1.99 30.45-1.11Q30.22-0.23 30.01 0.63Q29.80 1.48 29.61 2.35Q29.43 3.22 29.26 4.14L29.26 4.14L32.65 4.14Q32.48 3.22 32.32 2.35Q32.15 1.48 31.94 0.63Q31.73-0.23 31.49-1.11Q31.25-1.99 30.97-2.97ZM44.50 8.48L44.50 8.48Q45.36 8.48 45.94 8.30Q46.51 8.12 46.85 7.79Q47.18 7.47 47.31 7.07Q47.44 6.66 47.44 6.24L47.44 6.24Q47.44 5.71 47.13 5.29Q46.82 4.87 46.34 4.55Q45.87 4.22 45.28 3.96Q44.69 3.69 44.10 3.47L44.10 3.47Q43.32 3.19 42.48 2.82Q41.64 2.46 40.95 1.90Q40.27 1.34 39.82 0.51Q39.37-0.31 39.37-1.54L39.37-1.54Q39.37-3.98 40.95-5.35Q42.54-6.72 45.31-6.72L45.31-6.72Q46.90-6.72 48.09-6.36Q49.28-6.00 50.10-5.55L50.10-5.55L49.09-2.89Q48.39-3.28 47.53-3.56Q46.68-3.84 45.56-3.84L45.56-3.84Q42.82-3.84 42.82-1.85L42.82-1.85Q42.82-1.35 43.10-0.97Q43.38-0.59 43.81-0.30Q44.24-0.00 44.79 0.22Q45.34 0.44 45.87 0.64L45.87 0.64Q46.68 0.95 47.56 1.33Q48.44 1.70 49.19 2.33Q49.93 2.96 50.40 3.90Q50.88 4.84 50.88 6.27L50.88 6.27Q50.88 8.70 49.30 10.03Q47.72 11.36 44.50 11.36L44.50 11.36Q42.34 11.36 41.05 10.90Q39.76 10.44 39.12 10.05L39.12 10.05L40.13 7.25Q40.88 7.70 41.93 8.09Q42.98 8.48 44.50 8.48ZM64.52 11L53.51 11L53.51 8.14L57.29 8.14L57.29-3.48L53.51-3.48L53.51-6.33L64.52-6.33L64.52-3.48L60.76-3.48L60.76 8.14L64.52 8.14L64.52 11ZM74.29 11.36L74.29 11.36Q70.62 11.36 68.69 9.01Q66.76 6.66 66.76 2.32L66.76 2.32Q66.76 0.16 67.34-1.52Q67.93-3.20 68.98-4.36Q70.03-5.52 71.47-6.12Q72.92-6.72 74.62-6.72L74.62-6.72Q75.55-6.72 76.29-6.57Q77.03-6.42 77.59-6.22Q78.15-6.02 78.53-5.80Q78.91-5.58 79.10-5.46L79.10-5.46L78.21-2.72Q77.56-3.14 76.65-3.43Q75.74-3.73 74.57-3.73L74.57-3.73Q73.76-3.73 72.99-3.43Q72.22-3.14 71.61-2.45Q71.01-1.77 70.63-0.62Q70.26 0.53 70.26 2.24L70.26 2.24Q70.26 5.20 71.28 6.79Q72.30 8.37 74.62 8.37L74.62 8.37Q75.97 8.37 76.85 8.06Q77.73 7.75 78.26 7.44L78.26 7.44L79.13 10.16Q78.40 10.61 77.16 10.99Q75.91 11.36 74.29 11.36Z"/>
    </g>
</svg>