<?xml version="1.0" encoding="UTF-8"?>
<svg height="34" width="102.5" version="1.1" xmlns="http://www.w3.org/2000/svg">
    <rect
        height="32"
        width="100.5"
        rx="1"
        ry="1"
        x="1"
        y="1"
        fill="#ff0000"
        stroke="#660000"
        stroke-width="1"
         />
    <g transform="translate(0, 12)">
        <path fill="#660000" d="M31.26 7.51L31.26 7.51Q31.26 8.86 30.80 9.76Q30.34 10.66 29.56 11.20Q28.78 11.74 27.72 11.96Q26.65 12.19 25.42 12.19L25.42 12.19Q24.44 12.19 23.38 12.08Q22.33 11.98 21.30 11.76L21.30 11.76L21.30-2.66Q22.14-2.81 23.14-2.92Q24.15-3.02 25.14-3.02L25.14-3.02Q26.82-3.02 27.87-2.68Q28.93-2.33 29.53-1.76Q30.13-1.20 30.34-0.50Q30.56 0.19 30.56 0.89L30.56 0.89Q30.56 1.94 30.04 2.76Q29.53 3.58 28.66 4.06L28.66 4.06Q30.18 4.61 30.72 5.54Q31.26 6.48 31.26 7.51ZM25.83 5.50L24.25 5.50L24.25 9.53Q24.56 9.58 24.93 9.60Q25.30 9.62 25.66 9.62L25.66 9.62Q26.17 9.62 26.65 9.54Q27.13 9.46 27.50 9.23Q27.87 9 28.11 8.58Q28.35 8.16 28.35 7.51L28.35 7.51Q28.35 6.43 27.67 5.96Q26.98 5.50 25.83 5.50L25.83 5.50ZM24.25 3.05L25.40 3.05Q26.53 3.05 27.10 2.56Q27.68 2.06 27.68 1.20L27.68 1.20Q27.68 0.67 27.51 0.35Q27.34 0.02 27.06-0.16Q26.77-0.34 26.38-0.40Q26-0.46 25.59-0.46L25.59-0.46Q25.26-0.46 24.90-0.43Q24.54-0.41 24.25-0.36L24.25-0.36L24.25 3.05ZM43.78 12L40.62 12L39.92 8.57L35.96 8.57L35.29 12L32.22 12Q33.27 7.61 34.35 4.00Q35.43 0.38 36.44-2.86L36.44-2.86L39.66-2.86Q40.71 0.41 41.76 4.07Q42.80 7.73 43.78 12L43.78 12ZM37.98 0.02L37.98 0.02Q37.74 0.86 37.53 1.62Q37.33 2.38 37.15 3.11Q36.97 3.84 36.81 4.58Q36.66 5.33 36.51 6.12L36.51 6.12L39.42 6.12Q39.27 5.33 39.13 4.58Q38.98 3.84 38.80 3.11Q38.62 2.38 38.42 1.62Q38.22 0.86 37.98 0.02ZM49.57 9.84L49.57 9.84Q50.31 9.84 50.80 9.68Q51.30 9.53 51.58 9.25Q51.87 8.98 51.98 8.63Q52.09 8.28 52.09 7.92L52.09 7.92Q52.09 7.46 51.82 7.10Q51.56 6.74 51.15 6.47Q50.74 6.19 50.24 5.96Q49.74 5.74 49.23 5.54L49.23 5.54Q48.56 5.30 47.84 4.99Q47.12 4.68 46.53 4.20Q45.94 3.72 45.56 3.01Q45.18 2.30 45.18 1.25L45.18 1.25Q45.18-0.84 46.53-2.02Q47.89-3.19 50.26-3.19L50.26-3.19Q51.63-3.19 52.65-2.88Q53.67-2.57 54.37-2.18L54.37-2.18L53.50 0.10Q52.90-0.24 52.17-0.48Q51.44-0.72 50.48-0.72L50.48-0.72Q48.13-0.72 48.13 0.98L48.13 0.98Q48.13 1.42 48.37 1.74Q48.61 2.06 48.98 2.32Q49.35 2.57 49.82 2.76Q50.29 2.95 50.74 3.12L50.74 3.12Q51.44 3.38 52.20 3.71Q52.95 4.03 53.59 4.57Q54.22 5.11 54.63 5.92Q55.04 6.72 55.04 7.94L55.04 7.94Q55.04 10.03 53.68 11.17Q52.33 12.31 49.57 12.31L49.57 12.31Q47.72 12.31 46.62 11.92Q45.51 11.52 44.96 11.18L44.96 11.18L45.82 8.78Q46.47 9.17 47.37 9.50Q48.27 9.84 49.57 9.84ZM66.73 12L57.30 12L57.30 9.55L60.54 9.55L60.54-0.41L57.30-0.41L57.30-2.86L66.73-2.86L66.73-0.41L63.51-0.41L63.51 9.55L66.73 9.55L66.73 12ZM75.10 12.31L75.10 12.31Q71.96 12.31 70.30 10.30Q68.65 8.28 68.65 4.56L68.65 4.56Q68.65 2.71 69.15 1.27Q69.66-0.17 70.56-1.16Q71.46-2.16 72.69-2.68Q73.93-3.19 75.39-3.19L75.39-3.19Q76.18-3.19 76.82-3.06Q77.46-2.93 77.94-2.76Q78.42-2.59 78.74-2.40Q79.06-2.21 79.23-2.11L79.23-2.11L78.46 0.24Q77.91-0.12 77.13-0.37Q76.35-0.62 75.34-0.62L75.34-0.62Q74.65-0.62 73.99-0.37Q73.33-0.12 72.81 0.47Q72.30 1.06 71.97 2.04Q71.65 3.02 71.65 4.49L71.65 4.49Q71.65 7.03 72.52 8.39Q73.40 9.74 75.39 9.74L75.39 9.74Q76.54 9.74 77.30 9.48Q78.06 9.22 78.51 8.95L78.51 8.95L79.26 11.28Q78.63 11.66 77.56 11.99Q76.50 12.31 75.10 12.31Z"/>
    </g>
</svg>