<?xml version="1.0" encoding="UTF-8"?>
<svg height="34" width="163" version="1.1" xmlns="http://www.w3.org/2000/svg">
    <rect
        height="32"
        width="161"
        rx="14"
        ry="14"
        x="1"
        y="1"
        fill="#0050b2"
        stroke="#000b19"
        stroke-width="1"
         />
    <g transform="translate(0, 14)">
        <path fill="#000b19" d="M15.21 11L11.76 11L11.76-6.33L22.38-6.33L22.38-3.48L15.21-3.48L15.21 0.72L21.48 0.72L21.48 3.58L15.21 3.58L15.21 11ZM36.85-1.85L36.24 1.34Q35.90 1.26 35.44 1.17Q34.98 1.09 34.50 1.02Q34.02 0.95 33.58 0.92Q33.13 0.89 32.82 0.89L32.82 0.89Q32.09 0.89 31.39 0.96Q30.69 1.03 29.96 1.23L29.96 1.23L29.96 11L26.49 11L26.49-1.29Q27.86-1.80 29.31-2.10Q30.75-2.41 32.68-2.41L32.68-2.41Q32.96-2.41 33.48-2.38Q34.00-2.36 34.58-2.29Q35.17-2.22 35.77-2.12Q36.38-2.02 36.85-1.85L36.85-1.85ZM38.87 4.53L38.87 4.53Q38.87 2.80 39.40 1.48Q39.93 0.16 40.80-0.72Q41.67-1.60 42.79-2.05Q43.91-2.50 45.08-2.50L45.08-2.50Q48.00-2.50 49.51-0.77Q51.02 0.95 51.02 4.25L51.02 4.25Q51.02 4.59 51.01 4.95Q50.99 5.32 50.96 5.54L50.96 5.54L42.42 5.54Q42.42 6.83 43.49 7.57Q44.55 8.31 46.23 8.31L46.23 8.31Q47.27 8.31 48.21 8.09Q49.14 7.86 49.79 7.64L49.79 7.64L50.26 10.58Q49.37 10.89 48.36 11.10Q47.35 11.31 46.09 11.31L46.09 11.31Q44.41 11.31 43.08 10.87Q41.75 10.44 40.81 9.59Q39.88 8.73 39.37 7.47Q38.87 6.21 38.87 4.53ZM42.42 3.16L47.69 3.16Q47.69 2.63 47.55 2.14Q47.41 1.65 47.10 1.26Q46.79 0.86 46.32 0.63Q45.84 0.39 45.14 0.39L45.14 0.39Q44.47 0.39 43.98 0.61Q43.49 0.84 43.17 1.23Q42.84 1.62 42.66 2.12Q42.48 2.63 42.42 3.16L42.42 3.16ZM52.87 4.53L52.87 4.53Q52.87 2.80 53.40 1.48Q53.93 0.16 54.80-0.72Q55.67-1.60 56.79-2.05Q57.91-2.50 59.08-2.50L59.08-2.50Q62.00-2.50 63.51-0.77Q65.02 0.95 65.02 4.25L65.02 4.25Q65.02 4.59 65.01 4.95Q64.99 5.32 64.96 5.54L64.96 5.54L56.42 5.54Q56.42 6.83 57.49 7.57Q58.55 8.31 60.23 8.31L60.23 8.31Q61.27 8.31 62.21 8.09Q63.14 7.86 63.79 7.64L63.79 7.64L64.26 10.58Q63.37 10.89 62.36 11.10Q61.35 11.31 60.09 11.31L60.09 11.31Q58.41 11.31 57.08 10.87Q55.75 10.44 54.81 9.59Q53.88 8.73 53.37 7.47Q52.87 6.21 52.87 4.53ZM56.42 3.16L61.69 3.16Q61.69 2.63 61.55 2.14Q61.41 1.65 61.10 1.26Q60.79 0.86 60.32 0.63Q59.84 0.39 59.14 0.39L59.14 0.39Q58.47 0.39 57.98 0.61Q57.49 0.84 57.17 1.23Q56.84 1.62 56.66 2.12Q56.48 2.63 56.42 3.16L56.42 3.16ZM67.65-6.33L70.51-6.33Q70.70-5.74 71.00-4.82Q71.29-3.90 71.63-2.83Q71.96-1.77 72.30-0.68Q72.64 0.42 72.94 1.34L72.94 1.34Q73.28 0.30 73.64-0.80Q74.01-1.91 74.34-2.93Q74.68-3.95 74.96-4.85Q75.24-5.74 75.46-6.33L75.46-6.33L78.32-6.33Q78.52-4.06 78.70-1.91Q78.88 0.25 79.01 2.36Q79.13 4.48 79.22 6.62Q79.30 8.76 79.36 11L79.36 11L76.19 11L76.36-2.47L74.23 4.87L71.71 4.87L69.67-2.47L69.81 11L66.64 11Q66.73 8.87 66.83 6.58Q66.92 4.28 67.04 2.01Q67.15-0.26 67.30-2.38Q67.46-4.51 67.65-6.33L67.65-6.33ZM87.03 8.54L87.03 8.54Q87.59 8.54 88.12 8.52Q88.65 8.51 89.04 8.45L89.04 8.45L89.04 5.43Q88.71 5.37 88.23 5.33Q87.76 5.29 87.36 5.29L87.36 5.29Q86.83 5.29 86.33 5.36Q85.82 5.43 85.45 5.60Q85.07 5.76 84.84 6.07Q84.62 6.38 84.62 6.88L84.62 6.88Q84.62 7.78 85.29 8.16Q85.96 8.54 87.03 8.54ZM86.72-2.50L86.72-2.50Q88.34-2.50 89.42-2.12Q90.50-1.74 91.14-1.05Q91.79-0.37 92.07 0.63Q92.35 1.62 92.35 2.85L92.35 2.85L92.35 10.69Q91.59 10.86 90.11 11.08Q88.62 11.31 86.78 11.31L86.78 11.31Q85.52 11.31 84.49 11.08Q83.47 10.86 82.74 10.34Q82.02 9.82 81.62 9.00Q81.23 8.17 81.23 6.97L81.23 6.97Q81.23 5.82 81.68 5.04Q82.13 4.25 82.88 3.78Q83.64 3.30 84.62 3.09Q85.60 2.88 86.66 2.88L86.66 2.88Q88.01 2.88 89.04 3.10L89.04 3.10L89.04 2.68Q89.04 1.70 88.43 1.05Q87.81 0.39 86.30 0.39L86.30 0.39Q85.32 0.39 84.41 0.53Q83.50 0.67 82.94 0.86L82.94 0.86L82.46-1.91Q83.11-2.13 84.28-2.31Q85.46-2.50 86.72-2.50ZM106.85-1.85L106.24 1.34Q105.90 1.26 105.44 1.17Q104.98 1.09 104.50 1.02Q104.02 0.95 103.58 0.92Q103.13 0.89 102.82 0.89L102.82 0.89Q102.09 0.89 101.39 0.96Q100.69 1.03 99.96 1.23L99.96 1.23L99.96 11L96.49 11L96.49-1.29Q97.86-1.80 99.31-2.10Q100.75-2.41 102.68-2.41L102.68-2.41Q102.96-2.41 103.48-2.38Q104.00-2.36 104.58-2.29Q105.17-2.22 105.77-2.12Q106.38-2.02 106.85-1.85L106.85-1.85ZM113.24-8.43L113.24 3.05Q113.74 2.46 114.26 1.80Q114.78 1.14 115.27 0.44Q115.76-0.26 116.20-0.91Q116.65-1.57 116.99-2.16L116.99-2.16L121.13-2.16Q120.63-1.52 119.98-0.76Q119.34-0.00 118.65 0.78Q117.97 1.56 117.28 2.29Q116.60 3.02 116.04 3.64L116.04 3.64Q116.74 4.31 117.55 5.25Q118.36 6.18 119.14 7.19Q119.93 8.20 120.59 9.21Q121.24 10.22 121.64 11L121.64 11L117.69 11Q117.35 10.30 116.81 9.42Q116.26 8.54 115.64 7.68Q115.03 6.83 114.40 6.06Q113.77 5.29 113.24 4.78L113.24 4.78L113.24 11L109.76 11L109.76-7.84L113.24-8.43ZM122.87 4.53L122.87 4.53Q122.87 2.80 123.40 1.48Q123.93 0.16 124.80-0.72Q125.67-1.60 126.79-2.05Q127.91-2.50 129.08-2.50L129.08-2.50Q132.00-2.50 133.51-0.77Q135.02 0.95 135.02 4.25L135.02 4.25Q135.02 4.59 135.01 4.95Q134.99 5.32 134.96 5.54L134.96 5.54L126.42 5.54Q126.42 6.83 127.49 7.57Q128.55 8.31 130.23 8.31L130.23 8.31Q131.27 8.31 132.21 8.09Q133.14 7.86 133.79 7.64L133.79 7.64L134.26 10.58Q133.37 10.89 132.36 11.10Q131.35 11.31 130.09 11.31L130.09 11.31Q128.41 11.31 127.08 10.87Q125.75 10.44 124.81 9.59Q123.88 8.73 123.37 7.47Q122.87 6.21 122.87 4.53ZM126.42 3.16L131.69 3.16Q131.69 2.63 131.55 2.14Q131.41 1.65 131.10 1.26Q130.79 0.86 130.32 0.63Q129.84 0.39 129.14 0.39L129.14 0.39Q128.47 0.39 127.98 0.61Q127.49 0.84 127.17 1.23Q126.84 1.62 126.66 2.12Q126.48 2.63 126.42 3.16L126.42 3.16ZM148.85-1.85L148.24 1.34Q147.90 1.26 147.44 1.17Q146.98 1.09 146.50 1.02Q146.02 0.95 145.58 0.92Q145.13 0.89 144.82 0.89L144.82 0.89Q144.09 0.89 143.39 0.96Q142.69 1.03 141.96 1.23L141.96 1.23L141.96 11L138.49 11L138.49-1.29Q139.86-1.80 141.31-2.10Q142.75-2.41 144.68-2.41L144.68-2.41Q144.96-2.41 145.48-2.38Q146.00-2.36 146.58-2.29Q147.17-2.22 147.77-2.12Q148.38-2.02 148.85-1.85L148.85-1.85Z"/>
    </g>
</svg>