<?xml version="1.0" encoding="UTF-8"?>
<svg height="34" width="163" version="1.1" xmlns="http://www.w3.org/2000/svg">
    <rect
        height="32"
        width="161"
        rx="1"
        ry="1"
        x="1"
        y="1"
        fill="#0050b2"
        stroke="#000b19"
        stroke-width="1"
         />
    <g transform="translate(0, 12)">
        <path fill="#000b19" d="M24.46 12L21.51 12L21.51-2.86L30.61-2.86L30.61-0.41L24.46-0.41L24.46 3.19L29.84 3.19L29.84 5.64L24.46 5.64L24.46 12ZM43.02 0.98L42.49 3.72Q42.20 3.65 41.80 3.58Q41.41 3.50 41 3.44Q40.59 3.38 40.21 3.36Q39.82 3.34 39.56 3.34L39.56 3.34Q38.94 3.34 38.34 3.40Q37.74 3.46 37.11 3.62L37.11 3.62L37.11 12L34.14 12L34.14 1.46Q35.31 1.03 36.55 0.77Q37.78 0.50 39.44 0.50L39.44 0.50Q39.68 0.50 40.12 0.53Q40.57 0.55 41.07 0.61Q41.58 0.67 42.09 0.76Q42.61 0.84 43.02 0.98L43.02 0.98ZM44.74 6.46L44.74 6.46Q44.74 4.97 45.20 3.84Q45.66 2.71 46.40 1.96Q47.14 1.20 48.10 0.82Q49.06 0.43 50.07 0.43L50.07 0.43Q52.57 0.43 53.86 1.91Q55.16 3.38 55.16 6.22L55.16 6.22Q55.16 6.50 55.15 6.82Q55.14 7.13 55.11 7.32L55.11 7.32L47.79 7.32Q47.79 8.42 48.70 9.06Q49.62 9.70 51.06 9.70L51.06 9.70Q51.94 9.70 52.75 9.50Q53.55 9.31 54.10 9.12L54.10 9.12L54.51 11.64Q53.74 11.90 52.88 12.08Q52.02 12.26 50.94 12.26L50.94 12.26Q49.50 12.26 48.36 11.89Q47.22 11.52 46.41 10.79Q45.61 10.06 45.18 8.98Q44.74 7.90 44.74 6.46ZM47.79 5.28L52.30 5.28Q52.30 4.82 52.18 4.40Q52.06 3.98 51.80 3.65Q51.54 3.31 51.13 3.11Q50.72 2.90 50.12 2.90L50.12 2.90Q49.54 2.90 49.12 3.10Q48.70 3.29 48.43 3.62Q48.15 3.96 48.00 4.39Q47.84 4.82 47.79 5.28L47.79 5.28ZM56.74 6.46L56.74 6.46Q56.74 4.97 57.20 3.84Q57.66 2.71 58.40 1.96Q59.14 1.20 60.10 0.82Q61.06 0.43 62.07 0.43L62.07 0.43Q64.57 0.43 65.86 1.91Q67.16 3.38 67.16 6.22L67.16 6.22Q67.16 6.50 67.15 6.82Q67.14 7.13 67.11 7.32L67.11 7.32L59.79 7.32Q59.79 8.42 60.70 9.06Q61.62 9.70 63.06 9.70L63.06 9.70Q63.94 9.70 64.75 9.50Q65.55 9.31 66.10 9.12L66.10 9.12L66.51 11.64Q65.74 11.90 64.88 12.08Q64.02 12.26 62.94 12.26L62.94 12.26Q61.50 12.26 60.36 11.89Q59.22 11.52 58.41 10.79Q57.61 10.06 57.18 8.98Q56.74 7.90 56.74 6.46ZM59.79 5.28L64.30 5.28Q64.30 4.82 64.18 4.40Q64.06 3.98 63.80 3.65Q63.54 3.31 63.13 3.11Q62.72 2.90 62.12 2.90L62.12 2.90Q61.54 2.90 61.12 3.10Q60.70 3.29 60.43 3.62Q60.15 3.96 60.00 4.39Q59.84 4.82 59.79 5.28L59.79 5.28ZM69.42-2.86L71.86-2.86Q72.03-2.35 72.28-1.56Q72.54-0.77 72.82 0.14Q73.11 1.06 73.40 1.99Q73.69 2.93 73.95 3.72L73.95 3.72Q74.24 2.83 74.55 1.88Q74.86 0.94 75.15 0.06Q75.44-0.82 75.68-1.58Q75.92-2.35 76.11-2.86L76.11-2.86L78.56-2.86Q78.73-0.91 78.88 0.94Q79.04 2.78 79.15 4.60Q79.26 6.41 79.33 8.24Q79.40 10.08 79.45 12L79.45 12L76.74 12L76.88 0.46L75.06 6.74L72.90 6.74L71.14 0.46L71.26 12L68.55 12Q68.62 10.18 68.71 8.21Q68.79 6.24 68.89 4.30Q68.98 2.35 69.12 0.53Q69.25-1.30 69.42-2.86L69.42-2.86ZM86.02 9.89L86.02 9.89Q86.50 9.89 86.96 9.88Q87.42 9.86 87.75 9.82L87.75 9.82L87.75 7.22Q87.46 7.18 87.06 7.14Q86.65 7.10 86.31 7.10L86.31 7.10Q85.86 7.10 85.42 7.16Q84.99 7.22 84.67 7.37Q84.34 7.51 84.15 7.78Q83.96 8.04 83.96 8.47L83.96 8.47Q83.96 9.24 84.54 9.56Q85.11 9.89 86.02 9.89ZM85.76 0.43L85.76 0.43Q87.15 0.43 88.08 0.76Q89 1.08 89.55 1.67Q90.10 2.26 90.34 3.11Q90.58 3.96 90.58 5.02L90.58 5.02L90.58 11.74Q89.94 11.88 88.66 12.07Q87.39 12.26 85.81 12.26L85.81 12.26Q84.73 12.26 83.85 12.07Q82.98 11.88 82.35 11.44Q81.73 10.99 81.39 10.28Q81.06 9.58 81.06 8.54L81.06 8.54Q81.06 7.56 81.44 6.89Q81.82 6.22 82.47 5.81Q83.12 5.40 83.96 5.22Q84.80 5.04 85.71 5.04L85.71 5.04Q86.86 5.04 87.75 5.23L87.75 5.23L87.75 4.87Q87.75 4.03 87.22 3.47Q86.70 2.90 85.40 2.90L85.40 2.90Q84.56 2.90 83.78 3.02Q83 3.14 82.52 3.31L82.52 3.31L82.11 0.94Q82.66 0.74 83.67 0.59Q84.68 0.43 85.76 0.43ZM103.02 0.98L102.49 3.72Q102.20 3.65 101.80 3.58Q101.41 3.50 101 3.44Q100.59 3.38 100.21 3.36Q99.82 3.34 99.56 3.34L99.56 3.34Q98.94 3.34 98.34 3.40Q97.74 3.46 97.11 3.62L97.11 3.62L97.11 12L94.14 12L94.14 1.46Q95.31 1.03 96.55 0.77Q97.78 0.50 99.44 0.50L99.44 0.50Q99.68 0.50 100.12 0.53Q100.57 0.55 101.07 0.61Q101.58 0.67 102.09 0.76Q102.61 0.84 103.02 0.98L103.02 0.98ZM108.49-4.66L108.49 5.18Q108.92 4.68 109.36 4.12Q109.81 3.55 110.23 2.95Q110.65 2.35 111.03 1.79Q111.42 1.22 111.70 0.72L111.70 0.72L115.26 0.72Q114.82 1.27 114.27 1.92Q113.72 2.57 113.13 3.24Q112.54 3.91 111.96 4.54Q111.37 5.16 110.89 5.69L110.89 5.69Q111.49 6.26 112.18 7.07Q112.88 7.87 113.55 8.74Q114.22 9.60 114.79 10.46Q115.35 11.33 115.69 12L115.69 12L112.30 12Q112.02 11.40 111.55 10.64Q111.08 9.89 110.55 9.16Q110.02 8.42 109.48 7.76Q108.94 7.10 108.49 6.67L108.49 6.67L108.49 12L105.51 12L105.51-4.15L108.49-4.66ZM116.74 6.46L116.74 6.46Q116.74 4.97 117.20 3.84Q117.66 2.71 118.40 1.96Q119.14 1.20 120.10 0.82Q121.06 0.43 122.07 0.43L122.07 0.43Q124.57 0.43 125.86 1.91Q127.16 3.38 127.16 6.22L127.16 6.22Q127.16 6.50 127.15 6.82Q127.14 7.13 127.11 7.32L127.11 7.32L119.79 7.32Q119.79 8.42 120.70 9.06Q121.62 9.70 123.06 9.70L123.06 9.70Q123.94 9.70 124.75 9.50Q125.55 9.31 126.10 9.12L126.10 9.12L126.51 11.64Q125.74 11.90 124.88 12.08Q124.02 12.26 122.94 12.26L122.94 12.26Q121.50 12.26 120.36 11.89Q119.22 11.52 118.41 10.79Q117.61 10.06 117.18 8.98Q116.74 7.90 116.74 6.46ZM119.79 5.28L124.30 5.28Q124.30 4.82 124.18 4.40Q124.06 3.98 123.80 3.65Q123.54 3.31 123.13 3.11Q122.72 2.90 122.12 2.90L122.12 2.90Q121.54 2.90 121.12 3.10Q120.70 3.29 120.43 3.62Q120.15 3.96 120.00 4.39Q119.84 4.82 119.79 5.28L119.79 5.28ZM139.02 0.98L138.49 3.72Q138.20 3.65 137.80 3.58Q137.41 3.50 137 3.44Q136.59 3.38 136.21 3.36Q135.82 3.34 135.56 3.34L135.56 3.34Q134.94 3.34 134.34 3.40Q133.74 3.46 133.11 3.62L133.11 3.62L133.11 12L130.14 12L130.14 1.46Q131.31 1.03 132.55 0.77Q133.78 0.50 135.44 0.50L135.44 0.50Q135.68 0.50 136.12 0.53Q136.57 0.55 137.07 0.61Q137.58 0.67 138.09 0.76Q138.61 0.84 139.02 0.98L139.02 0.98Z"/>
    </g>
</svg>