<?xml version="1.0" encoding="UTF-8"?>
<svg height="34" width="64.3" version="1.1" xmlns="http://www.w3.org/2000/svg">
    <rect
        height="32"
        width="62.3"
        rx="14"
        ry="14"
        x="1"
        y="1"
        fill="#8a1267"
        stroke="#e84fba"
        stroke-width="1"
         />
    <g transform="translate(0, 14)">
        <path fill="#e84fba" d="M22.88 11L11.76 11L11.76-6.33L22.26-6.33L22.26-3.48L15.21-3.48L15.21 0.42L21.34 0.42L21.34 3.27L15.21 3.27L15.21 8.14L22.88 8.14L22.88 11ZM32.29 11.36L32.29 11.36Q28.62 11.36 26.69 9.01Q24.76 6.66 24.76 2.32L24.76 2.32Q24.76 0.16 25.34-1.52Q25.93-3.20 26.98-4.36Q28.03-5.52 29.47-6.12Q30.92-6.72 32.62-6.72L32.62-6.72Q33.55-6.72 34.29-6.57Q35.03-6.42 35.59-6.22Q36.15-6.02 36.53-5.80Q36.91-5.58 37.10-5.46L37.10-5.46L36.21-2.72Q35.56-3.14 34.65-3.43Q33.74-3.73 32.57-3.73L32.57-3.73Q31.76-3.73 30.99-3.43Q30.22-3.14 29.61-2.45Q29.01-1.77 28.63-0.62Q28.26 0.53 28.26 2.24L28.26 2.24Q28.26 5.20 29.28 6.79Q30.30 8.37 32.62 8.37L32.62 8.37Q33.97 8.37 34.85 8.06Q35.73 7.75 36.26 7.44L36.26 7.44L37.13 10.16Q36.40 10.61 35.16 10.99Q33.91 11.36 32.29 11.36ZM50.88 8.14L50.88 11L39.99 11L39.99-6.33L43.46-6.33L43.46 8.14L50.88 8.14Z"/>
    </g>
</svg>