<?xml version="1.0" encoding="UTF-8"?>
<svg height="34" width="138.8" version="1.1" xmlns="http://www.w3.org/2000/svg"><!--Created by Josélio de S. C. Júnior - 2021 - https://github.com/joseliojunior -->
    <rect
        height="32"
        width="136.8"
        rx="16"
        ry="16"
        x="1" y="1"
        fill="#6E4C13"
        stroke="#dea23b"
        stroke-width="1" />
    <g transform="translate(0, 12)">
        <path fill="#dea23b" stroke="none" d="M31.78 12L28.62 12L27.92 8.57L23.96 8.57L23.29 12L20.22 12Q21.27 7.61 22.35 4.00Q23.43 0.38 24.44-2.86L24.44-2.86L27.66-2.86Q28.71 0.41 29.76 4.07Q30.80 7.73 31.78 12L31.78 12ZM25.98 0.02L25.98 0.02Q25.74 0.86 25.53 1.62Q25.33 2.38 25.15 3.11Q24.97 3.84 24.81 4.58Q24.66 5.33 24.51 6.12L24.51 6.12L27.42 6.12Q27.27 5.33 27.13 4.58Q26.98 3.84 26.80 3.11Q26.62 2.38 26.42 1.62Q26.22 0.86 25.98 0.02ZM37.47 9.77L37.47 9.77Q38.55 9.77 39.13 9.61Q39.70 9.46 39.70 8.98L39.70 8.98Q39.70 8.66 39.52 8.45Q39.34 8.23 39.02 8.08Q38.70 7.92 38.28 7.78Q37.86 7.63 37.40 7.49L37.40 7.49Q36.75 7.30 36.08 7.04Q35.41 6.79 34.86 6.41Q34.30 6.02 33.94 5.44Q33.58 4.85 33.58 3.96L33.58 3.96Q33.58 3.24 33.86 2.60Q34.14 1.97 34.72 1.48Q35.31 0.98 36.22 0.71Q37.14 0.43 38.41 0.43L38.41 0.43Q39.51 0.43 40.46 0.60Q41.41 0.77 42.10 1.08L42.10 1.08L41.65 3.58Q41.24 3.46 40.38 3.18Q39.51 2.90 38.43 2.90L38.43 2.90Q37.30 2.90 36.91 3.18Q36.51 3.46 36.51 3.77L36.51 3.77Q36.51 4.03 36.69 4.24Q36.87 4.44 37.17 4.61Q37.47 4.78 37.87 4.93Q38.26 5.09 38.72 5.23L38.72 5.23Q39.37 5.45 40.06 5.71Q40.76 5.98 41.32 6.37Q41.89 6.77 42.25 7.38Q42.61 7.99 42.61 8.88L42.61 8.88Q42.61 9.58 42.34 10.20Q42.08 10.82 41.47 11.28Q40.86 11.74 39.87 12Q38.89 12.26 37.45 12.26L37.45 12.26Q35.98 12.26 34.95 11.93Q33.92 11.59 33.30 11.33L33.30 11.33L33.75 8.86Q34.59 9.19 35.54 9.48Q36.49 9.77 37.47 9.77ZM49.47 9.77L49.47 9.77Q50.55 9.77 51.13 9.61Q51.70 9.46 51.70 8.98L51.70 8.98Q51.70 8.66 51.52 8.45Q51.34 8.23 51.02 8.08Q50.70 7.92 50.28 7.78Q49.86 7.63 49.40 7.49L49.40 7.49Q48.75 7.30 48.08 7.04Q47.41 6.79 46.86 6.41Q46.30 6.02 45.94 5.44Q45.58 4.85 45.58 3.96L45.58 3.96Q45.58 3.24 45.86 2.60Q46.14 1.97 46.72 1.48Q47.31 0.98 48.22 0.71Q49.14 0.43 50.41 0.43L50.41 0.43Q51.51 0.43 52.46 0.60Q53.41 0.77 54.10 1.08L54.10 1.08L53.65 3.58Q53.24 3.46 52.38 3.18Q51.51 2.90 50.43 2.90L50.43 2.90Q49.30 2.90 48.91 3.18Q48.51 3.46 48.51 3.77L48.51 3.77Q48.51 4.03 48.69 4.24Q48.87 4.44 49.17 4.61Q49.47 4.78 49.87 4.93Q50.26 5.09 50.72 5.23L50.72 5.23Q51.37 5.45 52.06 5.71Q52.76 5.98 53.32 6.37Q53.89 6.77 54.25 7.38Q54.61 7.99 54.61 8.88L54.61 8.88Q54.61 9.58 54.34 10.20Q54.08 10.82 53.47 11.28Q52.86 11.74 51.87 12Q50.89 12.26 49.45 12.26L49.45 12.26Q47.98 12.26 46.95 11.93Q45.92 11.59 45.30 11.33L45.30 11.33L45.75 8.86Q46.59 9.19 47.54 9.48Q48.49 9.77 49.47 9.77ZM56.74 6.46L56.74 6.46Q56.74 4.97 57.20 3.84Q57.66 2.71 58.40 1.96Q59.14 1.20 60.10 0.82Q61.06 0.43 62.07 0.43L62.07 0.43Q64.57 0.43 65.86 1.91Q67.16 3.38 67.16 6.22L67.16 6.22Q67.16 6.50 67.15 6.82Q67.14 7.13 67.11 7.32L67.11 7.32L59.79 7.32Q59.79 8.42 60.70 9.06Q61.62 9.70 63.06 9.70L63.06 9.70Q63.94 9.70 64.75 9.50Q65.55 9.31 66.10 9.12L66.10 9.12L66.51 11.64Q65.74 11.90 64.88 12.08Q64.02 12.26 62.94 12.26L62.94 12.26Q61.50 12.26 60.36 11.89Q59.22 11.52 58.41 10.79Q57.61 10.06 57.18 8.98Q56.74 7.90 56.74 6.46ZM59.79 5.28L64.30 5.28Q64.30 4.82 64.18 4.40Q64.06 3.98 63.80 3.65Q63.54 3.31 63.13 3.11Q62.72 2.90 62.12 2.90L62.12 2.90Q61.54 2.90 61.12 3.10Q60.70 3.29 60.43 3.62Q60.15 3.96 60.00 4.39Q59.84 4.82 59.79 5.28L59.79 5.28ZM76.23 0.60L76.23 0.60Q77.17 0.60 77.77 0.89Q78.37 1.18 78.72 1.75Q79.06 2.33 79.18 3.20Q79.30 4.08 79.30 5.26L79.30 5.26L79.30 12L76.90 12L76.90 5.11Q76.90 4.44 76.82 4.03Q76.74 3.62 76.60 3.41Q76.47 3.19 76.29 3.12Q76.11 3.05 75.92 3.05L75.92 3.05Q75.70 3.05 75.46 3.08Q75.22 3.12 75.03 3.22L75.03 3.22Q75.10 3.67 75.15 4.22Q75.20 4.78 75.20 5.45L75.20 5.45L75.20 7.70L72.80 7.70L72.80 5.11Q72.80 3.96 72.57 3.50Q72.34 3.05 71.84 3.05L71.84 3.05Q71.70 3.05 71.49 3.07Q71.29 3.10 71.10 3.14L71.10 3.14L71.10 12L68.70 12L68.70 1.15Q69.63 0.89 70.54 0.74Q71.46 0.60 72.15 0.60L72.15 0.60Q72.78 0.60 73.27 0.76Q73.76 0.91 74.12 1.27L74.12 1.27Q74.53 1.01 75.08 0.80Q75.63 0.60 76.23 0.60ZM88.28 6.29L88.28 6.29Q88.28 4.70 87.76 3.86Q87.25 3.02 86.19 3.02L86.19 3.02Q85.71 3.02 85.24 3.16Q84.78 3.29 84.44 3.48L84.44 3.48L84.44 9.60Q84.78 9.67 85.15 9.70Q85.52 9.72 85.78 9.72L85.78 9.72Q86.94 9.72 87.61 8.94Q88.28 8.16 88.28 6.29ZM91.28 6.36L91.28 6.36Q91.28 7.70 90.92 8.80Q90.56 9.89 89.86 10.66Q89.17 11.42 88.16 11.84Q87.15 12.26 85.86 12.26L85.86 12.26Q84.70 12.26 83.50 12.10Q82.30 11.93 81.49 11.66L81.49 11.66L81.49-4.15L84.44-4.66L84.44 0.98Q85.06 0.70 85.64 0.59Q86.22 0.48 86.79 0.48L86.79 0.48Q87.90 0.48 88.74 0.90Q89.58 1.32 90.14 2.10Q90.70 2.88 90.99 3.96Q91.28 5.04 91.28 6.36ZM102.82 9.14L103.21 11.52Q103.14 11.57 102.88 11.69Q102.63 11.81 102.22 11.94Q101.82 12.07 101.23 12.17Q100.64 12.26 99.90 12.26L99.90 12.26Q97.86 12.26 96.92 11.05Q95.98 9.84 95.98 7.51L95.98 7.51L95.98-2.06L92.86-2.06L92.86-4.51L98.94-4.51L98.94 7.73Q98.94 8.88 99.39 9.29Q99.85 9.70 100.54 9.70L100.54 9.70Q101.43 9.70 102.03 9.46Q102.63 9.22 102.82 9.14L102.82 9.14ZM112.30 0.72L115.33 0.72Q114.87 2.30 114.45 3.83Q114.03 5.35 113.58 6.80Q113.12 8.26 112.60 9.65Q112.09 11.04 111.49 12.36L111.49 12.36Q111.03 13.32 110.59 14.02Q110.14 14.71 109.60 15.16Q109.06 15.60 108.40 15.82Q107.74 16.03 106.86 16.03L106.86 16.03Q106.11 16.03 105.50 15.91Q104.89 15.79 104.48 15.60L104.48 15.60L105.03 13.13Q105.51 13.34 105.88 13.43Q106.26 13.51 106.69 13.51L106.69 13.51Q107.55 13.51 108.08 12.94Q108.61 12.36 108.92 11.57L108.92 11.57Q107.86 9.46 106.81 6.73Q105.75 4.01 104.89 0.72L104.89 0.72L107.96 0.72Q108.18 1.61 108.45 2.62Q108.73 3.62 109.04 4.63Q109.35 5.64 109.70 6.61Q110.05 7.58 110.41 8.42L110.41 8.42Q110.65 7.58 110.91 6.61Q111.18 5.64 111.42 4.64Q111.66 3.65 111.88 2.64Q112.11 1.63 112.30 0.72L112.30 0.72Z"/>
    </g>
</svg>