<?xml version="1.0" encoding="UTF-8"?><svg height="26" width="106.8" version="1.1" xmlns="http://www.w3.org/2000/svg"><!--Created by Josélio de S. C. Júnior - 2021 - https://github.com/joseliojunior --><rect height="24" width="104.8" rx="1" ry="1" x="1" y="1" fill="#6E4C13" stroke="#dea23b" stroke-width="1" /><g transform="translate(0, 8)"><path fill="#dea23b" d="M27.86 10L25.74 10L25.28 7.71L22.64 7.71L22.19 10L20.14 10Q20.85 7.07 21.57 4.66Q22.29 2.26 22.96 0.10L22.96 0.10L25.10 0.10Q25.81 2.27 26.50 4.71Q27.20 7.15 27.86 10L27.86 10ZM23.98 2.02L23.98 2.02Q23.82 2.58 23.69 3.08Q23.55 3.58 23.43 4.07Q23.31 4.56 23.21 5.06Q23.10 5.55 23.01 6.08L23.01 6.08L24.94 6.08Q24.85 5.55 24.75 5.06Q24.66 4.56 24.54 4.07Q24.42 3.58 24.28 3.08Q24.14 2.58 23.98 2.02ZM31.65 8.51L31.65 8.51Q32.37 8.51 32.75 8.41Q33.14 8.30 33.14 7.98L33.14 7.98Q33.14 7.78 33.02 7.63Q32.90 7.49 32.68 7.38Q32.46 7.28 32.18 7.18Q31.90 7.09 31.60 6.99L31.60 6.99Q31.17 6.86 30.72 6.70Q30.27 6.53 29.90 6.27Q29.54 6.02 29.30 5.62Q29.06 5.23 29.06 4.64L29.06 4.64Q29.06 4.16 29.24 3.74Q29.42 3.31 29.82 2.98Q30.21 2.66 30.82 2.47Q31.42 2.29 32.27 2.29L32.27 2.29Q33.01 2.29 33.64 2.40Q34.27 2.51 34.74 2.72L34.74 2.72L34.43 4.38Q34.16 4.30 33.58 4.12Q33.01 3.94 32.29 3.94L32.29 3.94Q31.54 3.94 31.27 4.12Q31.01 4.30 31.01 4.51L31.01 4.51Q31.01 4.69 31.13 4.82Q31.25 4.96 31.45 5.07Q31.65 5.18 31.91 5.29Q32.18 5.39 32.48 5.49L32.48 5.49Q32.91 5.63 33.38 5.81Q33.84 5.98 34.22 6.25Q34.59 6.51 34.83 6.92Q35.07 7.33 35.07 7.92L35.07 7.92Q35.07 8.38 34.90 8.80Q34.72 9.22 34.31 9.52Q33.90 9.82 33.25 10Q32.59 10.18 31.63 10.18L31.63 10.18Q30.66 10.18 29.97 9.95Q29.28 9.73 28.86 9.55L28.86 9.55L29.17 7.90Q29.73 8.13 30.36 8.32Q30.99 8.51 31.65 8.51ZM39.65 8.51L39.65 8.51Q40.37 8.51 40.75 8.41Q41.14 8.30 41.14 7.98L41.14 7.98Q41.14 7.78 41.02 7.63Q40.90 7.49 40.68 7.38Q40.46 7.28 40.18 7.18Q39.90 7.09 39.60 6.99L39.60 6.99Q39.17 6.86 38.72 6.70Q38.27 6.53 37.90 6.27Q37.54 6.02 37.30 5.62Q37.06 5.23 37.06 4.64L37.06 4.64Q37.06 4.16 37.24 3.74Q37.42 3.31 37.82 2.98Q38.21 2.66 38.82 2.47Q39.42 2.29 40.27 2.29L40.27 2.29Q41.01 2.29 41.64 2.40Q42.27 2.51 42.74 2.72L42.74 2.72L42.43 4.38Q42.16 4.30 41.58 4.12Q41.01 3.94 40.29 3.94L40.29 3.94Q39.54 3.94 39.27 4.12Q39.01 4.30 39.01 4.51L39.01 4.51Q39.01 4.69 39.13 4.82Q39.25 4.96 39.45 5.07Q39.65 5.18 39.91 5.29Q40.18 5.39 40.48 5.49L40.48 5.49Q40.91 5.63 41.38 5.81Q41.84 5.98 42.22 6.25Q42.59 6.51 42.83 6.92Q43.07 7.33 43.07 7.92L43.07 7.92Q43.07 8.38 42.90 8.80Q42.72 9.22 42.31 9.52Q41.90 9.82 41.25 10Q40.59 10.18 39.63 10.18L39.63 10.18Q38.66 10.18 37.97 9.95Q37.28 9.73 36.86 9.55L36.86 9.55L37.17 7.90Q37.73 8.13 38.36 8.32Q38.99 8.51 39.65 8.51ZM44.50 6.30L44.50 6.30Q44.50 5.31 44.80 4.56Q45.10 3.81 45.60 3.30Q46.10 2.80 46.74 2.54Q47.38 2.29 48.05 2.29L48.05 2.29Q49.71 2.29 50.58 3.27Q51.44 4.26 51.44 6.14L51.44 6.14Q51.44 6.34 51.43 6.54Q51.42 6.75 51.41 6.88L51.41 6.88L46.53 6.88Q46.53 7.62 47.14 8.04Q47.74 8.46 48.70 8.46L48.70 8.46Q49.30 8.46 49.83 8.34Q50.37 8.21 50.74 8.08L50.74 8.08L51.01 9.76Q50.50 9.94 49.92 10.06Q49.34 10.18 48.62 10.18L48.62 10.18Q47.66 10.18 46.90 9.93Q46.14 9.68 45.61 9.19Q45.07 8.70 44.78 7.98Q44.50 7.26 44.50 6.30ZM46.53 5.52L49.54 5.52Q49.54 5.22 49.46 4.94Q49.38 4.66 49.20 4.43Q49.02 4.21 48.75 4.07Q48.48 3.94 48.08 3.94L48.08 3.94Q47.70 3.94 47.42 4.06Q47.14 4.19 46.95 4.42Q46.77 4.64 46.66 4.93Q46.56 5.22 46.53 5.52L46.53 5.52ZM57.49 2.40L57.49 2.40Q58.11 2.40 58.51 2.59Q58.91 2.78 59.14 3.17Q59.38 3.55 59.46 4.14Q59.54 4.72 59.54 5.50L59.54 5.50L59.54 10L57.94 10L57.94 5.41Q57.94 4.96 57.88 4.69Q57.82 4.42 57.74 4.27Q57.65 4.13 57.53 4.08Q57.41 4.03 57.28 4.03L57.28 4.03Q57.14 4.03 56.98 4.06Q56.82 4.08 56.69 4.14L56.69 4.14Q56.74 4.45 56.77 4.82Q56.80 5.18 56.80 5.63L56.80 5.63L56.80 7.14L55.20 7.14L55.20 5.41Q55.20 4.64 55.05 4.34Q54.90 4.03 54.56 4.03L54.56 4.03Q54.46 4.03 54.33 4.05Q54.19 4.06 54.06 4.10L54.06 4.10L54.06 10L52.46 10L52.46 2.77Q53.09 2.59 53.70 2.50Q54.30 2.40 54.77 2.40L54.77 2.40Q55.18 2.40 55.51 2.50Q55.84 2.61 56.08 2.85L56.08 2.85Q56.35 2.67 56.72 2.54Q57.09 2.40 57.49 2.40ZM65.52 6.19L65.52 6.19Q65.52 5.14 65.18 4.58Q64.83 4.02 64.13 4.02L64.13 4.02Q63.81 4.02 63.50 4.10Q63.18 4.19 62.96 4.32L62.96 4.32L62.96 8.40Q63.18 8.45 63.43 8.46Q63.68 8.48 63.86 8.48L63.86 8.48Q64.62 8.48 65.07 7.96Q65.52 7.44 65.52 6.19ZM67.52 6.24L67.52 6.24Q67.52 7.14 67.28 7.86Q67.04 8.59 66.58 9.10Q66.11 9.62 65.44 9.90Q64.77 10.18 63.90 10.18L63.90 10.18Q63.14 10.18 62.34 10.06Q61.54 9.95 60.99 9.78L60.99 9.78L60.99-0.77L62.96-1.10L62.96 2.66Q63.38 2.46 63.76 2.39Q64.14 2.32 64.53 2.32L64.53 2.32Q65.26 2.32 65.82 2.60Q66.38 2.88 66.76 3.40Q67.14 3.92 67.33 4.64Q67.52 5.36 67.52 6.24ZM75.22 8.10L75.47 9.68Q75.42 9.71 75.26 9.79Q75.09 9.87 74.82 9.96Q74.54 10.05 74.15 10.11Q73.76 10.18 73.26 10.18L73.26 10.18Q71.90 10.18 71.28 9.37Q70.66 8.56 70.66 7.01L70.66 7.01L70.66 0.62L68.58 0.62L68.58-1.01L72.62-1.01L72.62 7.15Q72.62 7.92 72.93 8.19Q73.23 8.46 73.70 8.46L73.70 8.46Q74.29 8.46 74.69 8.30Q75.09 8.14 75.22 8.10L75.22 8.10ZM81.54 2.48L83.55 2.48Q83.25 3.54 82.97 4.55Q82.69 5.57 82.38 6.54Q82.08 7.50 81.74 8.43Q81.39 9.36 80.99 10.24L80.99 10.24Q80.69 10.88 80.39 11.34Q80.10 11.81 79.74 12.10Q79.38 12.40 78.94 12.54Q78.50 12.69 77.90 12.69L77.90 12.69Q77.41 12.69 77 12.61Q76.59 12.53 76.32 12.40L76.32 12.40L76.69 10.75Q77.01 10.90 77.26 10.95Q77.50 11.01 77.79 11.01L77.79 11.01Q78.37 11.01 78.72 10.62Q79.07 10.24 79.28 9.71L79.28 9.71Q78.58 8.30 77.87 6.49Q77.17 4.67 76.59 2.48L76.59 2.48L78.64 2.48Q78.78 3.07 78.97 3.74Q79.15 4.42 79.36 5.09Q79.57 5.76 79.80 6.41Q80.03 7.06 80.27 7.62L80.27 7.62Q80.43 7.06 80.61 6.41Q80.78 5.76 80.94 5.10Q81.10 4.43 81.26 3.76Q81.41 3.09 81.54 2.48L81.54 2.48Z"/></g></svg>