<?xml version="1.0" encoding="UTF-8"?>
<svg height="34" width="134.8" version="1.1" xmlns="http://www.w3.org/2000/svg">
    <rect
        height="32"
        width="132.8"
        rx="1"
        ry="1"
        x="1"
        y="1"
        fill="#6E4C13"
        stroke="#dea23b"
        stroke-width="1"
         />
    <g transform="translate(0, 14)">
        <path fill="#dea23b" d="M23.75 11L20.05 11L19.24 7.00L14.62 7.00L13.84 11L10.25 11Q11.48 5.88 12.74 1.66Q14.00-2.55 15.18-6.33L15.18-6.33L18.93-6.33Q20.16-2.52 21.38 1.75Q22.60 6.02 23.75 11L23.75 11ZM16.97-2.97L16.97-2.97Q16.69-1.99 16.45-1.11Q16.22-0.23 16.01 0.63Q15.80 1.48 15.61 2.35Q15.43 3.22 15.26 4.14L15.26 4.14L18.65 4.14Q18.48 3.22 18.32 2.35Q18.15 1.48 17.94 0.63Q17.73-0.23 17.49-1.11Q17.25-1.99 16.97-2.97ZM30.38 8.40L30.38 8.40Q31.64 8.40 32.32 8.21Q32.99 8.03 32.99 7.47L32.99 7.47Q32.99 7.11 32.78 6.86Q32.57 6.60 32.19 6.42Q31.81 6.24 31.32 6.07Q30.83 5.90 30.30 5.74L30.30 5.74Q29.54 5.51 28.76 5.22Q27.98 4.92 27.33 4.48Q26.69 4.03 26.27 3.34Q25.85 2.66 25.85 1.62L25.85 1.62Q25.85 0.78 26.17 0.04Q26.49-0.70 27.18-1.28Q27.86-1.85 28.93-2.17Q29.99-2.50 31.48-2.50L31.48-2.50Q32.76-2.50 33.87-2.30Q34.98-2.10 35.79-1.74L35.79-1.74L35.26 1.17Q34.78 1.03 33.77 0.71Q32.76 0.39 31.50 0.39L31.50 0.39Q30.19 0.39 29.73 0.71Q29.26 1.03 29.26 1.40L29.26 1.40Q29.26 1.70 29.47 1.94Q29.68 2.18 30.03 2.38Q30.38 2.57 30.85 2.75Q31.31 2.94 31.84 3.10L31.84 3.10Q32.60 3.36 33.41 3.66Q34.22 3.97 34.88 4.43Q35.54 4.90 35.96 5.61Q36.38 6.32 36.38 7.36L36.38 7.36Q36.38 8.17 36.07 8.90Q35.76 9.63 35.05 10.16Q34.33 10.69 33.18 11Q32.04 11.31 30.36 11.31L30.36 11.31Q28.65 11.31 27.44 10.92Q26.24 10.52 25.51 10.22L25.51 10.22L26.04 7.33Q27.02 7.72 28.13 8.06Q29.24 8.40 30.38 8.40ZM44.38 8.40L44.38 8.40Q45.64 8.40 46.32 8.21Q46.99 8.03 46.99 7.47L46.99 7.47Q46.99 7.11 46.78 6.86Q46.57 6.60 46.19 6.42Q45.81 6.24 45.32 6.07Q44.83 5.90 44.30 5.74L44.30 5.74Q43.54 5.51 42.76 5.22Q41.98 4.92 41.33 4.48Q40.69 4.03 40.27 3.34Q39.85 2.66 39.85 1.62L39.85 1.62Q39.85 0.78 40.17 0.04Q40.49-0.70 41.18-1.28Q41.86-1.85 42.93-2.17Q43.99-2.50 45.48-2.50L45.48-2.50Q46.76-2.50 47.87-2.30Q48.98-2.10 49.79-1.74L49.79-1.74L49.26 1.17Q48.78 1.03 47.77 0.71Q46.76 0.39 45.50 0.39L45.50 0.39Q44.19 0.39 43.73 0.71Q43.26 1.03 43.26 1.40L43.26 1.40Q43.26 1.70 43.47 1.94Q43.68 2.18 44.03 2.38Q44.38 2.57 44.85 2.75Q45.31 2.94 45.84 3.10L45.84 3.10Q46.60 3.36 47.41 3.66Q48.22 3.97 48.88 4.43Q49.54 4.90 49.96 5.61Q50.38 6.32 50.38 7.36L50.38 7.36Q50.38 8.17 50.07 8.90Q49.76 9.63 49.05 10.16Q48.33 10.69 47.18 11Q46.04 11.31 44.36 11.31L44.36 11.31Q42.65 11.31 41.44 10.92Q40.24 10.52 39.51 10.22L39.51 10.22L40.04 7.33Q41.02 7.72 42.13 8.06Q43.24 8.40 44.38 8.40ZM52.87 4.53L52.87 4.53Q52.87 2.80 53.40 1.48Q53.93 0.16 54.80-0.72Q55.67-1.60 56.79-2.05Q57.91-2.50 59.08-2.50L59.08-2.50Q62.00-2.50 63.51-0.77Q65.02 0.95 65.02 4.25L65.02 4.25Q65.02 4.59 65.01 4.95Q64.99 5.32 64.96 5.54L64.96 5.54L56.42 5.54Q56.42 6.83 57.49 7.57Q58.55 8.31 60.23 8.31L60.23 8.31Q61.27 8.31 62.21 8.09Q63.14 7.86 63.79 7.64L63.79 7.64L64.26 10.58Q63.37 10.89 62.36 11.10Q61.35 11.31 60.09 11.31L60.09 11.31Q58.41 11.31 57.08 10.87Q55.75 10.44 54.81 9.59Q53.88 8.73 53.37 7.47Q52.87 6.21 52.87 4.53ZM56.42 3.16L61.69 3.16Q61.69 2.63 61.55 2.14Q61.41 1.65 61.10 1.26Q60.79 0.86 60.32 0.63Q59.84 0.39 59.14 0.39L59.14 0.39Q58.47 0.39 57.98 0.61Q57.49 0.84 57.17 1.23Q56.84 1.62 56.66 2.12Q56.48 2.63 56.42 3.16L56.42 3.16ZM75.60-2.30L75.60-2.30Q76.70-2.30 77.40-1.96Q78.10-1.63 78.50-0.96Q78.91-0.28 79.05 0.74Q79.19 1.76 79.19 3.13L79.19 3.13L79.19 11L76.39 11L76.39 2.96Q76.39 2.18 76.29 1.70Q76.19 1.23 76.04 0.98Q75.88 0.72 75.67 0.64Q75.46 0.56 75.24 0.56L75.24 0.56Q74.99 0.56 74.71 0.60Q74.43 0.64 74.20 0.75L74.20 0.75Q74.29 1.28 74.34 1.93Q74.40 2.57 74.40 3.36L74.40 3.36L74.40 5.99L71.60 5.99L71.60 2.96Q71.60 1.62 71.33 1.09Q71.07 0.56 70.48 0.56L70.48 0.56Q70.31 0.56 70.07 0.58Q69.84 0.61 69.61 0.67L69.61 0.67L69.61 11L66.81 11L66.81-1.66Q67.90-1.96 68.97-2.13Q70.03-2.30 70.84-2.30L70.84-2.30Q71.57-2.30 72.15-2.12Q72.72-1.94 73.14-1.52L73.14-1.52Q73.62-1.82 74.26-2.06Q74.90-2.30 75.60-2.30ZM89.66 4.34L89.66 4.34Q89.66 2.49 89.06 1.51Q88.46 0.53 87.22 0.53L87.22 0.53Q86.66 0.53 86.12 0.68Q85.57 0.84 85.18 1.06L85.18 1.06L85.18 8.20Q85.57 8.28 86.01 8.31Q86.44 8.34 86.75 8.34L86.75 8.34Q88.09 8.34 88.88 7.43Q89.66 6.52 89.66 4.34ZM93.16 4.42L93.16 4.42Q93.16 5.99 92.74 7.26Q92.32 8.54 91.51 9.43Q90.70 10.33 89.52 10.82Q88.34 11.31 86.83 11.31L86.83 11.31Q85.49 11.31 84.09 11.11Q82.69 10.92 81.74 10.61L81.74 10.61L81.74-7.84L85.18-8.43L85.18-1.85Q85.91-2.19 86.58-2.31Q87.25-2.44 87.92-2.44L87.92-2.44Q89.21-2.44 90.19-1.95Q91.17-1.46 91.83-0.55Q92.49 0.36 92.82 1.62Q93.16 2.88 93.16 4.42ZM106.63 7.67L107.08 10.44Q106.99 10.50 106.70 10.64Q106.40 10.78 105.93 10.93Q105.45 11.08 104.77 11.20Q104.08 11.31 103.21 11.31L103.21 11.31Q100.83 11.31 99.74 9.89Q98.65 8.48 98.65 5.76L98.65 5.76L98.65-5.41L95.01-5.41L95.01-8.26L102.09-8.26L102.09 6.02Q102.09 7.36 102.62 7.84Q103.16 8.31 103.97 8.31L103.97 8.31Q105.00 8.31 105.70 8.03Q106.40 7.75 106.63 7.67L106.63 7.67ZM117.69-2.16L121.22-2.16Q120.68-0.31 120.19 1.47Q119.70 3.24 119.17 4.94Q118.64 6.63 118.04 8.26Q117.44 9.88 116.74 11.42L116.74 11.42Q116.20 12.54 115.69 13.35Q115.17 14.16 114.54 14.68Q113.91 15.20 113.14 15.45Q112.37 15.70 111.33 15.70L111.33 15.70Q110.46 15.70 109.75 15.56Q109.04 15.42 108.56 15.20L108.56 15.20L109.20 12.32Q109.76 12.57 110.20 12.67Q110.63 12.76 111.14 12.76L111.14 12.76Q112.14 12.76 112.76 12.09Q113.38 11.42 113.74 10.50L113.74 10.50Q112.51 8.03 111.28 4.85Q110.04 1.68 109.04-2.16L109.04-2.16L112.62-2.16Q112.87-1.12 113.19 0.05Q113.52 1.23 113.88 2.40Q114.24 3.58 114.65 4.71Q115.06 5.85 115.48 6.83L115.48 6.83Q115.76 5.85 116.06 4.71Q116.37 3.58 116.65 2.42Q116.93 1.26 117.20 0.08Q117.46-1.10 117.69-2.16L117.69-2.16Z"/>
    </g>
</svg>