<?xml version="1.0" encoding="UTF-8"?>
<svg height="34" width="64.3" version="1.1" xmlns="http://www.w3.org/2000/svg">
    <rect
        height="32"
        width="62.3"
        rx="14"
        ry="14"
        x="1"
        y="1"
        fill="#9933cc"
        stroke="#3d1452"
        stroke-width="1"
         />
    <g transform="translate(0, 14)">
        <path fill="#3d1452" d="M16.94 11.36L16.94 11.36Q15.26 11.36 14.13 10.90Q13.00 10.44 12.32 9.57Q11.65 8.70 11.37 7.47Q11.09 6.24 11.09 4.73L11.09 4.73L11.09-6.33L14.56-6.33L14.56 4.50Q14.56 5.60 14.68 6.34Q14.79 7.08 15.05 7.53Q15.32 7.98 15.80 8.17Q16.27 8.37 17 8.37L17 8.37Q17.73 8.37 18.20 8.17Q18.68 7.98 18.96 7.51Q19.24 7.05 19.35 6.31Q19.46 5.57 19.46 4.48L19.46 4.48L19.46-6.33L22.91-6.33L22.91 4.73Q22.91 6.24 22.63 7.47Q22.35 8.70 21.65 9.57Q20.95 10.44 19.80 10.90Q18.65 11.36 16.94 11.36ZM25.76 11L25.76-1.74Q26.69-1.99 28.05-2.22Q29.40-2.44 31-2.44L31-2.44Q32.57-2.44 33.60-2.01Q34.64-1.57 35.24-0.77Q35.84 0.02 36.10 1.13Q36.35 2.24 36.35 3.58L36.35 3.58L36.35 11L32.90 11L32.90 4.03Q32.90 2.18 32.48 1.37Q32.06 0.56 30.78 0.56L30.78 0.56Q30.38 0.56 30.01 0.58Q29.63 0.61 29.21 0.67L29.21 0.67L29.21 11L25.76 11ZM51.22 4.39L51.22 4.39Q51.22 5.96 50.77 7.23Q50.32 8.51 49.51 9.43Q48.70 10.36 47.56 10.86Q46.43 11.36 45.03 11.36L45.03 11.36Q43.63 11.36 42.49 10.86Q41.36 10.36 40.53 9.43Q39.71 8.51 39.26 7.23Q38.81 5.96 38.81 4.39L38.81 4.39Q38.81 2.85 39.27 1.58Q39.74 0.30 40.56-0.61Q41.39-1.52 42.54-2.01Q43.68-2.50 45.03-2.50L45.03-2.50Q46.40-2.50 47.53-2.01Q48.67-1.52 49.49-0.61Q50.32 0.30 50.77 1.58Q51.22 2.85 51.22 4.39ZM42.31 4.42L42.31 4.42Q42.31 6.18 42.94 7.28Q43.57 8.37 44.97 8.37L44.97 8.37Q46.32 8.37 47.00 7.28Q47.69 6.18 47.69 4.42L47.69 4.42Q47.69 2.66 47.06 1.58Q46.43 0.50 45.03 0.50L45.03 0.50Q43.68 0.50 43.00 1.58Q42.31 2.66 42.31 4.42Z"/>
    </g>
</svg>