<?xml version="1.0" encoding="UTF-8"?>
<svg height="26" width="82.5" version="1.1" xmlns="http://www.w3.org/2000/svg"><!--Created by Josélio de S. C. Júnior - 2021 - https://github.com/joseliojunior -->
    <defs>
        <pattern id="pattern"
                x="3" y="3" width="6" height="6"
                patternUnits="userSpaceOnUse"
                patternTransform="rotate(45)" >
            <rect height="6" width="6"
                fill="#ffffff"/>
            <line x1="0" y1="0" x2="0" y2="6"
                stroke="#888888"
                stroke-width="2" />
        </pattern>
    </defs>
    <rect
        height="24"
        width="80.5"
        rx="12"
        ry="12"
        x="1" y="1"
        fill="url(#pattern)" />
    <g transform="translate(0, 8)">
        <path fill="#000000" d="M27.86 10L25.74 10L25.28 7.71L22.64 7.71L22.19 10L20.14 10Q20.85 7.07 21.57 4.66Q22.29 2.26 22.96 0.10L22.96 0.10L25.10 0.10Q25.81 2.27 26.50 4.71Q27.20 7.15 27.86 10L27.86 10ZM23.98 2.02L23.98 2.02Q23.82 2.58 23.69 3.08Q23.55 3.58 23.43 4.07Q23.31 4.56 23.21 5.06Q23.10 5.55 23.01 6.08L23.01 6.08L24.94 6.08Q24.85 5.55 24.75 5.06Q24.66 4.56 24.54 4.07Q24.42 3.58 24.28 3.08Q24.14 2.58 23.98 2.02ZM31.71 8.56L31.71 8.56Q32.21 8.56 32.54 8.46Q32.86 8.35 33.06 8.17Q33.25 7.98 33.32 7.75Q33.39 7.52 33.39 7.28L33.39 7.28Q33.39 6.98 33.22 6.74Q33.04 6.50 32.77 6.31Q32.50 6.13 32.16 5.98Q31.82 5.82 31.49 5.70L31.49 5.70Q31.04 5.54 30.56 5.33Q30.08 5.12 29.69 4.80Q29.30 4.48 29.04 4.01Q28.78 3.54 28.78 2.83L28.78 2.83Q28.78 1.44 29.69 0.66Q30.59-0.13 32.18-0.13L32.18-0.13Q33.09-0.13 33.77 0.08Q34.45 0.29 34.91 0.54L34.91 0.54L34.34 2.06Q33.94 1.84 33.45 1.68Q32.96 1.52 32.32 1.52L32.32 1.52Q30.75 1.52 30.75 2.66L30.75 2.66Q30.75 2.94 30.91 3.16Q31.07 3.38 31.32 3.54Q31.57 3.71 31.88 3.84Q32.19 3.97 32.50 4.08L32.50 4.08Q32.96 4.26 33.46 4.47Q33.97 4.69 34.39 5.05Q34.82 5.41 35.09 5.94Q35.36 6.48 35.36 7.30L35.36 7.30Q35.36 8.69 34.46 9.45Q33.55 10.21 31.71 10.21L31.71 10.21Q30.48 10.21 29.74 9.94Q29.01 9.68 28.64 9.46L28.64 9.46L29.22 7.86Q29.65 8.11 30.25 8.34Q30.85 8.56 31.71 8.56ZM43.26 10L41.68 10Q41.01 8.35 40.22 6.71Q39.42 5.07 38.51 3.42L38.51 3.42L38.51 10L36.74 10L36.74 0.10L38.32 0.10Q38.77 0.80 39.22 1.62Q39.66 2.45 40.09 3.26Q40.51 4.08 40.87 4.85Q41.23 5.62 41.49 6.19L41.49 6.19L41.49 0.10L43.26 0.10L43.26 10ZM49.44 8.74L49.44 8.74Q49.44 9.44 49.01 9.81Q48.58 10.18 48.02 10.18L48.02 10.18Q47.73 10.18 47.47 10.08Q47.22 9.98 47.02 9.80Q46.82 9.62 46.70 9.35Q46.58 9.09 46.58 8.74L46.58 8.74Q46.58 8.40 46.70 8.14Q46.82 7.87 47.02 7.70Q47.22 7.52 47.47 7.42Q47.73 7.33 48.02 7.33L48.02 7.33Q48.58 7.33 49.01 7.70Q49.44 8.06 49.44 8.74ZM53.33 8.37L55.41 8.37L55.41 2.83Q54.96 3.15 54.38 3.40Q53.81 3.65 53.41 3.79L53.41 3.79L52.77 2.16Q53.15 2.02 53.60 1.79Q54.05 1.57 54.50 1.30Q54.94 1.02 55.34 0.72Q55.74 0.42 56.03 0.10L56.03 0.10L57.38 0.10L57.38 8.37L59.34 8.37L59.34 10L53.33 10L53.33 8.37Z"/>
    </g>
</svg>