<?xml version="1.0" encoding="UTF-8"?>
<svg height="34" width="78.4" version="1.1" xmlns="http://www.w3.org/2000/svg">
    <rect
        height="32"
        width="76.4"
        rx="1"
        ry="1"
        x="1"
        y="1"
        fill="#E8274B"
        stroke="#6a0b1d"
        stroke-width="1"
         />
    <g transform="translate(0, 14)">
        <path fill="#6a0b1d" d="M23.75 11L20.05 11L19.24 7.00L14.62 7.00L13.84 11L10.25 11Q11.48 5.88 12.74 1.66Q14.00-2.55 15.18-6.33L15.18-6.33L18.93-6.33Q20.16-2.52 21.38 1.75Q22.60 6.02 23.75 11L23.75 11ZM16.97-2.97L16.97-2.97Q16.69-1.99 16.45-1.11Q16.22-0.23 16.01 0.63Q15.80 1.48 15.61 2.35Q15.43 3.22 15.26 4.14L15.26 4.14L18.65 4.14Q18.48 3.22 18.32 2.35Q18.15 1.48 17.94 0.63Q17.73-0.23 17.49-1.11Q17.25-1.99 16.97-2.97ZM37.13 5.76L37.13 5.76Q37.13 7.33 36.60 8.38Q36.07 9.43 35.16 10.06Q34.25 10.69 33.00 10.96Q31.76 11.22 30.33 11.22L30.33 11.22Q29.18 11.22 27.95 11.10Q26.72 10.97 25.51 10.72L25.51 10.72L25.51-6.11Q26.49-6.28 27.67-6.40Q28.84-6.53 29.99-6.53L29.99-6.53Q31.95-6.53 33.18-6.12Q34.42-5.72 35.12-5.06Q35.82-4.40 36.07-3.59Q36.32-2.78 36.32-1.96L36.32-1.96Q36.32-0.73 35.72 0.22Q35.12 1.17 34.11 1.73L34.11 1.73Q35.87 2.38 36.50 3.47Q37.13 4.56 37.13 5.76ZM30.80 3.41L28.96 3.41L28.96 8.12Q29.32 8.17 29.75 8.20Q30.19 8.23 30.61 8.23L30.61 8.23Q31.20 8.23 31.76 8.13Q32.32 8.03 32.75 7.77Q33.18 7.50 33.46 7.01Q33.74 6.52 33.74 5.76L33.74 5.76Q33.74 4.50 32.95 3.96Q32.15 3.41 30.80 3.41L30.80 3.41ZM28.96 0.56L30.30 0.56Q31.62 0.56 32.29-0.02Q32.96-0.59 32.96-1.60L32.96-1.60Q32.96-2.22 32.76-2.59Q32.57-2.97 32.23-3.18Q31.90-3.39 31.45-3.46Q31-3.53 30.52-3.53L30.52-3.53Q30.13-3.53 29.71-3.50Q29.29-3.48 28.96-3.42L28.96-3.42L28.96 0.56ZM51.75 11L48.05 11L47.24 7.00L42.62 7.00L41.84 11L38.25 11Q39.48 5.88 40.74 1.66Q42.00-2.55 43.18-6.33L43.18-6.33L46.93-6.33Q48.16-2.52 49.38 1.75Q50.60 6.02 51.75 11L51.75 11ZM44.97-2.97L44.97-2.97Q44.69-1.99 44.45-1.11Q44.22-0.23 44.01 0.63Q43.80 1.48 43.61 2.35Q43.43 3.22 43.26 4.14L43.26 4.14L46.65 4.14Q46.48 3.22 46.32 2.35Q46.15 1.48 45.94 0.63Q45.73-0.23 45.49-1.11Q45.25-1.99 44.97-2.97ZM58.27-6.53L58.27-6.53Q61.58-6.53 63.40-5.17Q65.22-3.81 65.22-0.73L65.22-0.73Q65.22 2.38 63.38 3.76Q61.55 5.15 58.19 5.15L58.19 5.15L56.96 5.15L56.96 11L53.51 11L53.51-6.11Q54.02-6.22 54.65-6.30Q55.28-6.39 55.92-6.43Q56.56-6.47 57.18-6.50Q57.80-6.53 58.27-6.53ZM58.66-3.53L58.66-3.53Q58.36-3.53 57.81-3.52Q57.26-3.50 56.96-3.45L56.96-3.45L56.96 2.15L58.36 2.15Q60.01 2.15 60.85 1.49Q61.69 0.84 61.69-0.76L61.69-0.76Q61.69-2.27 60.86-2.90Q60.04-3.53 58.66-3.53Z"/>
    </g>
</svg>