<?xml version="1.0" encoding="UTF-8"?>
<svg height="322" width="90.4" version="1.1" xmlns="http://www.w3.org/2000/svg"><!--Created by Josélio de S. C. Júnior - 2021 - https://github.com/joseliojunior -->
    <rect
        height="32"
        width="88.4"
        rx="1"
        ry="1"
        x="1" y="1"
        fill="#E8274B"
        stroke="#6a0b1d"
        stroke-width="1" />
    <g transform="translate(0, 12)">
        <path fill="#6a0b1d" stroke="none" d="M31.78 12L28.62 12L27.92 8.57L23.96 8.57L23.29 12L20.22 12Q21.27 7.61 22.35 4.00Q23.43 0.38 24.44-2.86L24.44-2.86L27.66-2.86Q28.71 0.41 29.76 4.07Q30.80 7.73 31.78 12L31.78 12ZM25.98 0.02L25.98 0.02Q25.74 0.86 25.53 1.62Q25.33 2.38 25.15 3.11Q24.97 3.84 24.81 4.58Q24.66 5.33 24.51 6.12L24.51 6.12L27.42 6.12Q27.27 5.33 27.13 4.58Q26.98 3.84 26.80 3.11Q26.62 2.38 26.42 1.62Q26.22 0.86 25.98 0.02ZM43.26 7.51L43.26 7.51Q43.26 8.86 42.80 9.76Q42.34 10.66 41.56 11.20Q40.78 11.74 39.72 11.96Q38.65 12.19 37.42 12.19L37.42 12.19Q36.44 12.19 35.38 12.08Q34.33 11.98 33.30 11.76L33.30 11.76L33.30-2.66Q34.14-2.81 35.14-2.92Q36.15-3.02 37.14-3.02L37.14-3.02Q38.82-3.02 39.87-2.68Q40.93-2.33 41.53-1.76Q42.13-1.20 42.34-0.50Q42.56 0.19 42.56 0.89L42.56 0.89Q42.56 1.94 42.04 2.76Q41.53 3.58 40.66 4.06L40.66 4.06Q42.18 4.61 42.72 5.54Q43.26 6.48 43.26 7.51ZM37.83 5.50L36.25 5.50L36.25 9.53Q36.56 9.58 36.93 9.60Q37.30 9.62 37.66 9.62L37.66 9.62Q38.17 9.62 38.65 9.54Q39.13 9.46 39.50 9.23Q39.87 9 40.11 8.58Q40.35 8.16 40.35 7.51L40.35 7.51Q40.35 6.43 39.67 5.96Q38.98 5.50 37.83 5.50L37.83 5.50ZM36.25 3.05L37.40 3.05Q38.53 3.05 39.10 2.56Q39.68 2.06 39.68 1.20L39.68 1.20Q39.68 0.67 39.51 0.35Q39.34 0.02 39.06-0.16Q38.77-0.34 38.38-0.40Q38-0.46 37.59-0.46L37.59-0.46Q37.26-0.46 36.90-0.43Q36.54-0.41 36.25-0.36L36.25-0.36L36.25 3.05ZM55.78 12L52.62 12L51.92 8.57L47.96 8.57L47.29 12L44.22 12Q45.27 7.61 46.35 4.00Q47.43 0.38 48.44-2.86L48.44-2.86L51.66-2.86Q52.71 0.41 53.76 4.07Q54.80 7.73 55.78 12L55.78 12ZM49.98 0.02L49.98 0.02Q49.74 0.86 49.53 1.62Q49.33 2.38 49.15 3.11Q48.97 3.84 48.81 4.58Q48.66 5.33 48.51 6.12L48.51 6.12L51.42 6.12Q51.27 5.33 51.13 4.58Q50.98 3.84 50.80 3.11Q50.62 2.38 50.42 1.62Q50.22 0.86 49.98 0.02ZM61.38-3.02L61.38-3.02Q64.21-3.02 65.77-1.86Q67.33-0.70 67.33 1.94L67.33 1.94Q67.33 4.61 65.76 5.80Q64.18 6.98 61.30 6.98L61.30 6.98L60.25 6.98L60.25 12L57.30 12L57.30-2.66Q57.73-2.76 58.27-2.83Q58.81-2.90 59.36-2.94Q59.91-2.98 60.44-3Q60.97-3.02 61.38-3.02ZM61.71-0.46L61.71-0.46Q61.45-0.46 60.98-0.44Q60.51-0.43 60.25-0.38L60.25-0.38L60.25 4.42L61.45 4.42Q62.86 4.42 63.58 3.85Q64.30 3.29 64.30 1.92L64.30 1.92Q64.30 0.62 63.60 0.08Q62.89-0.46 61.71-0.46Z"/>
    </g>
</svg>