<?xml version="1.0" encoding="UTF-8"?>
<svg height="26" width="74.4" version="1.1" xmlns="http://www.w3.org/2000/svg"><!--Created by Josélio de S. C. Júnior - 2021 - https://github.com/joseliojunior -->
    <rect
        height="24"
        width="72.4"
        rx="1"
        ry="1"
        x="1" y="1"
        fill="#E8274B"
        stroke="#6a0b1d"
        stroke-width="1" />
    <g transform="translate(0, 8)">
        <path fill="#6a0b1d" stroke="none" d="M27.86 10L25.74 10L25.28 7.71L22.64 7.71L22.19 10L20.14 10Q20.85 7.07 21.57 4.66Q22.29 2.26 22.96 0.10L22.96 0.10L25.10 0.10Q25.81 2.27 26.50 4.71Q27.20 7.15 27.86 10L27.86 10ZM23.98 2.02L23.98 2.02Q23.82 2.58 23.69 3.08Q23.55 3.58 23.43 4.07Q23.31 4.56 23.21 5.06Q23.10 5.55 23.01 6.08L23.01 6.08L24.94 6.08Q24.85 5.55 24.75 5.06Q24.66 4.56 24.54 4.07Q24.42 3.58 24.28 3.08Q24.14 2.58 23.98 2.02ZM35.50 7.01L35.50 7.01Q35.50 7.90 35.20 8.50Q34.90 9.10 34.38 9.46Q33.86 9.82 33.14 9.98Q32.43 10.13 31.62 10.13L31.62 10.13Q30.96 10.13 30.26 10.06Q29.55 9.98 28.86 9.84L28.86 9.84L28.86 0.22Q29.42 0.13 30.10 0.06Q30.77-0.02 31.42-0.02L31.42-0.02Q32.54-0.02 33.25 0.22Q33.95 0.45 34.35 0.82Q34.75 1.20 34.90 1.66Q35.04 2.13 35.04 2.59L35.04 2.59Q35.04 3.30 34.70 3.84Q34.35 4.38 33.78 4.70L33.78 4.70Q34.78 5.07 35.14 5.70Q35.50 6.32 35.50 7.01ZM31.89 5.66L30.83 5.66L30.83 8.35Q31.04 8.38 31.29 8.40Q31.54 8.42 31.78 8.42L31.78 8.42Q32.11 8.42 32.43 8.36Q32.75 8.30 33 8.15Q33.25 8 33.41 7.72Q33.57 7.44 33.57 7.01L33.57 7.01Q33.57 6.29 33.11 5.98Q32.66 5.66 31.89 5.66L31.89 5.66ZM30.83 4.03L31.60 4.03Q32.35 4.03 32.74 3.70Q33.12 3.38 33.12 2.80L33.12 2.80Q33.12 2.45 33.01 2.23Q32.90 2.02 32.70 1.90Q32.51 1.78 32.26 1.74Q32 1.70 31.73 1.70L31.73 1.70Q31.50 1.70 31.26 1.71Q31.02 1.73 30.83 1.76L30.83 1.76L30.83 4.03ZM43.86 10L41.74 10L41.28 7.71L38.64 7.71L38.19 10L36.14 10Q36.85 7.07 37.57 4.66Q38.29 2.26 38.96 0.10L38.96 0.10L41.10 0.10Q41.81 2.27 42.50 4.71Q43.20 7.15 43.86 10L43.86 10ZM39.98 2.02L39.98 2.02Q39.82 2.58 39.69 3.08Q39.55 3.58 39.43 4.07Q39.31 4.56 39.21 5.06Q39.10 5.55 39.01 6.08L39.01 6.08L40.94 6.08Q40.85 5.55 40.75 5.06Q40.66 4.56 40.54 4.07Q40.42 3.58 40.28 3.08Q40.14 2.58 39.98 2.02ZM47.58-0.02L47.58-0.02Q49.47-0.02 50.51 0.76Q51.55 1.54 51.55 3.30L51.55 3.30Q51.55 5.07 50.50 5.86Q49.46 6.66 47.54 6.66L47.54 6.66L46.83 6.66L46.83 10L44.86 10L44.86 0.22Q45.15 0.16 45.51 0.11Q45.87 0.06 46.24 0.04Q46.61 0.02 46.96 0Q47.31-0.02 47.58-0.02ZM47.81 1.70L47.81 1.70Q47.63 1.70 47.32 1.70Q47.01 1.71 46.83 1.74L46.83 1.74L46.83 4.94L47.63 4.94Q48.58 4.94 49.06 4.57Q49.54 4.19 49.54 3.28L49.54 3.28Q49.54 2.42 49.06 2.06Q48.59 1.70 47.81 1.70Z"/>
    </g>
</svg>