<?xml version="1.0" encoding="UTF-8"?>
<svg height="34" width="102.5" version="1.1" xmlns="http://www.w3.org/2000/svg"><!--Created by Josélio de S. C. Júnior - 2021 - https://github.com/joseliojunior -->
    <rect
        height="32"
        width="100.5"
        rx="16"
        ry="16"
        x="1" y="1"
        fill="#6c616e"
        stroke="#1d1a1e"
        stroke-width="1" />
    <g transform="translate(0, 12)">
        <path fill="#1d1a1e" d="M24.25-0.38L24.25 9.60Q24.37 9.62 24.51 9.62Q24.66 9.62 24.78 9.62L24.78 9.62Q25.78 9.62 26.47 9.24Q27.15 8.86 27.57 8.18Q27.99 7.51 28.17 6.59Q28.35 5.66 28.35 4.56L28.35 4.56Q28.35 3.60 28.21 2.69Q28.06 1.78 27.70 1.08Q27.34 0.38 26.72-0.04Q26.10-0.46 25.11-0.46L25.11-0.46Q24.92-0.46 24.68-0.44Q24.44-0.43 24.25-0.38L24.25-0.38ZM31.35 4.56L31.35 4.56Q31.35 6.62 30.84 8.08Q30.32 9.53 29.41 10.44Q28.50 11.35 27.24 11.77Q25.98 12.19 24.46 12.19L24.46 12.19Q23.67 12.19 22.92 12.11Q22.16 12.02 21.30 11.83L21.30 11.83L21.30-2.66Q22.30-2.88 23.19-2.95Q24.08-3.02 24.85-3.02L24.85-3.02Q26.31-3.02 27.52-2.59Q28.74-2.16 29.58-1.24Q30.42-0.31 30.88 1.12Q31.35 2.54 31.35 4.56ZM40.30 0.72L43.33 0.72Q42.87 2.30 42.45 3.83Q42.03 5.35 41.58 6.80Q41.12 8.26 40.60 9.65Q40.09 11.04 39.49 12.36L39.49 12.36Q39.03 13.32 38.59 14.02Q38.14 14.71 37.60 15.16Q37.06 15.60 36.40 15.82Q35.74 16.03 34.86 16.03L34.86 16.03Q34.11 16.03 33.50 15.91Q32.89 15.79 32.48 15.60L32.48 15.60L33.03 13.13Q33.51 13.34 33.88 13.43Q34.26 13.51 34.69 13.51L34.69 13.51Q35.55 13.51 36.08 12.94Q36.61 12.36 36.92 11.57L36.92 11.57Q35.86 9.46 34.81 6.73Q33.75 4.01 32.89 0.72L32.89 0.72L35.96 0.72Q36.18 1.61 36.45 2.62Q36.73 3.62 37.04 4.63Q37.35 5.64 37.70 6.61Q38.05 7.58 38.41 8.42L38.41 8.42Q38.65 7.58 38.91 6.61Q39.18 5.64 39.42 4.64Q39.66 3.65 39.88 2.64Q40.11 1.63 40.30 0.72L40.30 0.72ZM54.82 9.14L55.21 11.52Q55.14 11.57 54.88 11.69Q54.63 11.81 54.22 11.94Q53.82 12.07 53.23 12.17Q52.64 12.26 51.90 12.26L51.90 12.26Q49.86 12.26 48.92 11.05Q47.98 9.84 47.98 7.51L47.98 7.51L47.98-2.06L44.86-2.06L44.86-4.51L50.94-4.51L50.94 7.73Q50.94 8.88 51.39 9.29Q51.85 9.70 52.54 9.70L52.54 9.70Q53.43 9.70 54.03 9.46Q54.63 9.22 54.82 9.14L54.82 9.14ZM62.02 9.89L62.02 9.89Q62.50 9.89 62.96 9.88Q63.42 9.86 63.75 9.82L63.75 9.82L63.75 7.22Q63.46 7.18 63.06 7.14Q62.65 7.10 62.31 7.10L62.31 7.10Q61.86 7.10 61.42 7.16Q60.99 7.22 60.67 7.37Q60.34 7.51 60.15 7.78Q59.96 8.04 59.96 8.47L59.96 8.47Q59.96 9.24 60.54 9.56Q61.11 9.89 62.02 9.89ZM61.76 0.43L61.76 0.43Q63.15 0.43 64.08 0.76Q65 1.08 65.55 1.67Q66.10 2.26 66.34 3.11Q66.58 3.96 66.58 5.02L66.58 5.02L66.58 11.74Q65.94 11.88 64.66 12.07Q63.39 12.26 61.81 12.26L61.81 12.26Q60.73 12.26 59.85 12.07Q58.98 11.88 58.35 11.44Q57.73 10.99 57.39 10.28Q57.06 9.58 57.06 8.54L57.06 8.54Q57.06 7.56 57.44 6.89Q57.82 6.22 58.47 5.81Q59.12 5.40 59.96 5.22Q60.80 5.04 61.71 5.04L61.71 5.04Q62.86 5.04 63.75 5.23L63.75 5.23L63.75 4.87Q63.75 4.03 63.22 3.47Q62.70 2.90 61.40 2.90L61.40 2.90Q60.56 2.90 59.78 3.02Q59 3.14 58.52 3.31L58.52 3.31L58.11 0.94Q58.66 0.74 59.67 0.59Q60.68 0.43 61.76 0.43ZM69.51 12L69.51 1.08Q70.30 0.86 71.47 0.67Q72.63 0.48 74 0.48L74 0.48Q75.34 0.48 76.23 0.85Q77.12 1.22 77.64 1.91Q78.15 2.59 78.37 3.54Q78.58 4.49 78.58 5.64L78.58 5.64L78.58 12L75.63 12L75.63 6.02Q75.63 4.44 75.27 3.74Q74.91 3.05 73.81 3.05L73.81 3.05Q73.47 3.05 73.15 3.07Q72.82 3.10 72.46 3.14L72.46 3.14L72.46 12L69.51 12Z"/>
    </g>
</svg>