<?xml version="1.0" encoding="UTF-8"?><svg height="26" width="82.5" version="1.1" xmlns="http://www.w3.org/2000/svg"><!--Created by Josélio de S. C. Júnior - 2021 - https://github.com/joseliojunior --><rect height="24" width="80.5" rx="1" ry="1" x="1" y="1" fill="#6c616e" stroke="#1d1a1e" stroke-width="1" /><g transform="translate(0, 8)"><path fill="#1d1a1e" d="M22.83 1.74L22.83 8.40Q22.91 8.42 23.01 8.42Q23.10 8.42 23.18 8.42L23.18 8.42Q23.86 8.42 24.31 8.16Q24.77 7.90 25.05 7.46Q25.33 7.01 25.45 6.39Q25.57 5.78 25.57 5.04L25.57 5.04Q25.57 4.40 25.47 3.79Q25.38 3.18 25.14 2.72Q24.90 2.26 24.48 1.98Q24.06 1.70 23.41 1.70L23.41 1.70Q23.28 1.70 23.12 1.70Q22.96 1.71 22.83 1.74L22.83 1.74ZM27.57 5.04L27.57 5.04Q27.57 6.42 27.22 7.38Q26.88 8.35 26.27 8.96Q25.66 9.57 24.82 9.85Q23.98 10.13 22.98 10.13L22.98 10.13Q22.45 10.13 21.94 10.07Q21.44 10.02 20.86 9.89L20.86 9.89L20.86 0.22Q21.54 0.08 22.13 0.03Q22.72-0.02 23.23-0.02L23.23-0.02Q24.21-0.02 25.02 0.27Q25.82 0.56 26.38 1.18Q26.94 1.79 27.26 2.74Q27.57 3.70 27.57 5.04ZM33.54 2.48L35.55 2.48Q35.25 3.54 34.97 4.55Q34.69 5.57 34.38 6.54Q34.08 7.50 33.74 8.43Q33.39 9.36 32.99 10.24L32.99 10.24Q32.69 10.88 32.39 11.34Q32.10 11.81 31.74 12.10Q31.38 12.40 30.94 12.54Q30.50 12.69 29.90 12.69L29.90 12.69Q29.41 12.69 29 12.61Q28.59 12.53 28.32 12.40L28.32 12.40L28.69 10.75Q29.01 10.90 29.26 10.95Q29.50 11.01 29.79 11.01L29.79 11.01Q30.37 11.01 30.72 10.62Q31.07 10.24 31.28 9.71L31.28 9.71Q30.58 8.30 29.87 6.49Q29.17 4.67 28.59 2.48L28.59 2.48L30.64 2.48Q30.78 3.07 30.97 3.74Q31.15 4.42 31.36 5.09Q31.57 5.76 31.80 6.41Q32.03 7.06 32.27 7.62L32.27 7.62Q32.43 7.06 32.61 6.41Q32.78 5.76 32.94 5.10Q33.10 4.43 33.26 3.76Q33.41 3.09 33.54 2.48L33.54 2.48ZM43.22 8.10L43.47 9.68Q43.42 9.71 43.26 9.79Q43.09 9.87 42.82 9.96Q42.54 10.05 42.15 10.11Q41.76 10.18 41.26 10.18L41.26 10.18Q39.90 10.18 39.28 9.37Q38.66 8.56 38.66 7.01L38.66 7.01L38.66 0.62L36.58 0.62L36.58-1.01L40.62-1.01L40.62 7.15Q40.62 7.92 40.93 8.19Q41.23 8.46 41.70 8.46L41.70 8.46Q42.29 8.46 42.69 8.30Q43.09 8.14 43.22 8.10L43.22 8.10ZM48.02 8.59L48.02 8.59Q48.34 8.59 48.64 8.58Q48.94 8.58 49.17 8.54L49.17 8.54L49.17 6.82Q48.98 6.78 48.70 6.76Q48.43 6.74 48.21 6.74L48.21 6.74Q47.90 6.74 47.62 6.78Q47.33 6.82 47.11 6.91Q46.90 7.01 46.77 7.18Q46.64 7.36 46.64 7.65L46.64 7.65Q46.64 8.16 47.02 8.38Q47.41 8.59 48.02 8.59ZM47.84 2.29L47.84 2.29Q48.77 2.29 49.38 2.50Q50 2.72 50.37 3.11Q50.74 3.50 50.90 4.07Q51.06 4.64 51.06 5.34L51.06 5.34L51.06 9.82Q50.62 9.92 49.78 10.05Q48.93 10.18 47.87 10.18L47.87 10.18Q47.15 10.18 46.57 10.05Q45.98 9.92 45.57 9.62Q45.15 9.33 44.93 8.86Q44.70 8.38 44.70 7.70L44.70 7.70Q44.70 7.04 44.96 6.59Q45.22 6.14 45.65 5.87Q46.08 5.60 46.64 5.48Q47.20 5.36 47.81 5.36L47.81 5.36Q48.58 5.36 49.17 5.49L49.17 5.49L49.17 5.25Q49.17 4.69 48.82 4.31Q48.46 3.94 47.60 3.94L47.60 3.94Q47.04 3.94 46.52 4.02Q46 4.10 45.68 4.21L45.68 4.21L45.41 2.62Q45.78 2.50 46.45 2.39Q47.12 2.29 47.84 2.29ZM53.01 10L53.01 2.72Q53.54 2.58 54.31 2.45Q55.09 2.32 56 2.32L56 2.32Q56.90 2.32 57.49 2.57Q58.08 2.82 58.42 3.27Q58.77 3.73 58.91 4.36Q59.06 4.99 59.06 5.76L59.06 5.76L59.06 10L57.09 10L57.09 6.02Q57.09 4.96 56.85 4.50Q56.61 4.03 55.87 4.03L55.87 4.03Q55.65 4.03 55.43 4.05Q55.22 4.06 54.98 4.10L54.98 4.10L54.98 10L53.01 10Z"/></g></svg>