<?xml version="1.0" encoding="UTF-8"?>
<svg height="34" width="64.3" version="1.1" xmlns="http://www.w3.org/2000/svg">
    <rect
        height="32"
        width="62.3"
        rx="1"
        ry="1"
        x="1"
        y="1"
        fill="#02f88c"
        stroke="#016037"
        stroke-width="1"
         />
    <g transform="translate(0, 14)">
        <path fill="#016037" d="M23.75 11L20.05 11L19.24 7.00L14.62 7.00L13.84 11L10.25 11Q11.48 5.88 12.74 1.66Q14.00-2.55 15.18-6.33L15.18-6.33L18.93-6.33Q20.16-2.52 21.38 1.75Q22.60 6.02 23.75 11L23.75 11ZM16.97-2.97L16.97-2.97Q16.69-1.99 16.45-1.11Q16.22-0.23 16.01 0.63Q15.80 1.48 15.61 2.35Q15.43 3.22 15.26 4.14L15.26 4.14L18.65 4.14Q18.48 3.22 18.32 2.35Q18.15 1.48 17.94 0.63Q17.73-0.23 17.49-1.11Q17.25-1.99 16.97-2.97ZM28.28 4.34L28.28 4.34Q28.28 6.10 28.94 7.22Q29.60 8.34 31.06 8.34L31.06 8.34Q31.48 8.34 31.84 8.31Q32.20 8.28 32.60 8.23L32.60 8.23L32.60 1.06Q32.20 0.84 31.70 0.68Q31.20 0.53 30.64 0.53L30.64 0.53Q29.40 0.53 28.84 1.51Q28.28 2.49 28.28 4.34ZM36.04-8.43L36.04 10.61Q35.09 10.92 33.72 11.11Q32.34 11.31 31.03 11.31L31.03 11.31Q27.95 11.31 26.37 9.49Q24.78 7.67 24.78 4.50L24.78 4.50Q24.78 1.28 26.11-0.58Q27.44-2.44 30.05-2.44L30.05-2.44Q30.75-2.44 31.42-2.29Q32.09-2.13 32.60-1.85L32.60-1.85L32.60-7.84L36.04-8.43ZM45.03 8.54L45.03 8.54Q45.59 8.54 46.12 8.52Q46.65 8.51 47.04 8.45L47.04 8.45L47.04 5.43Q46.71 5.37 46.23 5.33Q45.76 5.29 45.36 5.29L45.36 5.29Q44.83 5.29 44.33 5.36Q43.82 5.43 43.45 5.60Q43.07 5.76 42.84 6.07Q42.62 6.38 42.62 6.88L42.62 6.88Q42.62 7.78 43.29 8.16Q43.96 8.54 45.03 8.54ZM44.72-2.50L44.72-2.50Q46.34-2.50 47.42-2.12Q48.50-1.74 49.14-1.05Q49.79-0.37 50.07 0.63Q50.35 1.62 50.35 2.85L50.35 2.85L50.35 10.69Q49.59 10.86 48.11 11.08Q46.62 11.31 44.78 11.31L44.78 11.31Q43.52 11.31 42.49 11.08Q41.47 10.86 40.74 10.34Q40.02 9.82 39.62 9.00Q39.23 8.17 39.23 6.97L39.23 6.97Q39.23 5.82 39.68 5.04Q40.13 4.25 40.88 3.78Q41.64 3.30 42.62 3.09Q43.60 2.88 44.66 2.88L44.66 2.88Q46.01 2.88 47.04 3.10L47.04 3.10L47.04 2.68Q47.04 1.70 46.43 1.05Q45.81 0.39 44.30 0.39L44.30 0.39Q43.32 0.39 42.41 0.53Q41.50 0.67 40.94 0.86L40.94 0.86L40.46-1.91Q41.11-2.13 42.28-2.31Q43.46-2.50 44.72-2.50Z"/>
    </g>
</svg>