<?xml version="1.0" encoding="UTF-8"?>
<svg height="34" width="138.8" version="1.1" xmlns="http://www.w3.org/2000/svg"><!--Created by Josélio de S. C. Júnior - 2021 - https://github.com/joseliojunior -->
<rect
    height="32"
    width="136.8"
    rx="16"
    ry="16"
    x="1" y="1"
    fill="#282c34"
    stroke="#61dafb"
    stroke-width="1" />
<g transform="translate(0, 12)">
    <path fill="#61dafb" d="M25.14-3.02L25.14-3.02Q26.41-3.02 27.44-2.74Q28.47-2.45 29.22-1.85Q29.96-1.25 30.36-0.32Q30.75 0.60 30.75 1.85L30.75 1.85Q30.75 3.14 30.22 4.20Q29.70 5.26 28.47 5.81L28.47 5.81Q28.88 6.43 29.34 7.19Q29.79 7.94 30.22 8.77Q30.66 9.60 31.05 10.43Q31.45 11.26 31.74 12L31.74 12L28.64 12Q28.09 10.56 27.36 9.23Q26.62 7.90 25.78 6.53L25.78 6.53L24.25 6.53L24.25 12L21.30 12L21.30-2.64Q21.73-2.74 22.24-2.82Q22.76-2.90 23.29-2.94Q23.82-2.98 24.30-3Q24.78-3.02 25.14-3.02ZM27.75 1.82L27.75 1.82Q27.75 0.65 27.03 0.10Q26.31-0.46 25.14-0.46L25.14-0.46Q24.97-0.46 24.73-0.44Q24.49-0.43 24.25-0.38L24.25-0.38L24.25 4.08L24.90 4.08Q26.41 4.08 27.08 3.49Q27.75 2.90 27.75 1.82ZM32.74 6.46L32.74 6.46Q32.74 4.97 33.20 3.84Q33.66 2.71 34.40 1.96Q35.14 1.20 36.10 0.82Q37.06 0.43 38.07 0.43L38.07 0.43Q40.57 0.43 41.86 1.91Q43.16 3.38 43.16 6.22L43.16 6.22Q43.16 6.50 43.15 6.82Q43.14 7.13 43.11 7.32L43.11 7.32L35.79 7.32Q35.79 8.42 36.70 9.06Q37.62 9.70 39.06 9.70L39.06 9.70Q39.94 9.70 40.75 9.50Q41.55 9.31 42.10 9.12L42.10 9.12L42.51 11.64Q41.74 11.90 40.88 12.08Q40.02 12.26 38.94 12.26L38.94 12.26Q37.50 12.26 36.36 11.89Q35.22 11.52 34.41 10.79Q33.61 10.06 33.18 8.98Q32.74 7.90 32.74 6.46ZM35.79 5.28L40.30 5.28Q40.30 4.82 40.18 4.40Q40.06 3.98 39.80 3.65Q39.54 3.31 39.13 3.11Q38.72 2.90 38.12 2.90L38.12 2.90Q37.54 2.90 37.12 3.10Q36.70 3.29 36.43 3.62Q36.15 3.96 36.00 4.39Q35.84 4.82 35.79 5.28L35.79 5.28ZM50.02 9.89L50.02 9.89Q50.50 9.89 50.96 9.88Q51.42 9.86 51.75 9.82L51.75 9.82L51.75 7.22Q51.46 7.18 51.06 7.14Q50.65 7.10 50.31 7.10L50.31 7.10Q49.86 7.10 49.42 7.16Q48.99 7.22 48.67 7.37Q48.34 7.51 48.15 7.78Q47.96 8.04 47.96 8.47L47.96 8.47Q47.96 9.24 48.54 9.56Q49.11 9.89 50.02 9.89ZM49.76 0.43L49.76 0.43Q51.15 0.43 52.08 0.76Q53 1.08 53.55 1.67Q54.10 2.26 54.34 3.11Q54.58 3.96 54.58 5.02L54.58 5.02L54.58 11.74Q53.94 11.88 52.66 12.07Q51.39 12.26 49.81 12.26L49.81 12.26Q48.73 12.26 47.85 12.07Q46.98 11.88 46.35 11.44Q45.73 10.99 45.39 10.28Q45.06 9.58 45.06 8.54L45.06 8.54Q45.06 7.56 45.44 6.89Q45.82 6.22 46.47 5.81Q47.12 5.40 47.96 5.22Q48.80 5.04 49.71 5.04L49.71 5.04Q50.86 5.04 51.75 5.23L51.75 5.23L51.75 4.87Q51.75 4.03 51.22 3.47Q50.70 2.90 49.40 2.90L49.40 2.90Q48.56 2.90 47.78 3.02Q47 3.14 46.52 3.31L46.52 3.31L46.11 0.94Q46.66 0.74 47.67 0.59Q48.68 0.43 49.76 0.43ZM57.06 6.36L57.06 6.36Q57.06 5.14 57.44 4.06Q57.82 2.98 58.62 2.17Q59.41 1.37 60.62 0.90Q61.83 0.43 63.51 0.43L63.51 0.43Q64.52 0.43 65.34 0.58Q66.15 0.72 66.99 1.06L66.99 1.06L66.34 3.43Q65.86 3.26 65.28 3.13Q64.69 3 63.78 3L63.78 3Q62.72 3 62.01 3.25Q61.30 3.50 60.87 3.95Q60.44 4.39 60.25 5.02Q60.06 5.64 60.06 6.36L60.06 6.36Q60.06 7.92 60.93 8.81Q61.81 9.70 63.92 9.70L63.92 9.70Q64.62 9.70 65.37 9.60Q66.13 9.50 66.75 9.29L66.75 9.29L67.18 11.71Q66.56 11.95 65.67 12.11Q64.78 12.26 63.58 12.26L63.58 12.26Q61.86 12.26 60.62 11.81Q59.38 11.35 58.59 10.56Q57.80 9.77 57.43 8.69Q57.06 7.61 57.06 6.36ZM71.43 7.80L71.43 3.17L68.86 3.17L68.86 0.72L71.43 0.72L71.43-2.11L74.38-2.59L74.38 0.72L79.11 0.72L79.11 3.17L74.38 3.17L74.38 7.73Q74.38 8.35 74.50 8.74Q74.62 9.12 74.84 9.34Q75.06 9.55 75.37 9.62Q75.68 9.70 76.06 9.70L76.06 9.70Q76.47 9.70 76.82 9.67Q77.17 9.65 77.49 9.59Q77.82 9.53 78.16 9.41Q78.51 9.29 78.92 9.10L78.92 9.10L79.33 11.64Q78.51 11.98 77.56 12.12Q76.62 12.26 75.73 12.26L75.73 12.26Q74.70 12.26 73.90 12.10Q73.11 11.93 72.56 11.45Q72.01 10.97 71.72 10.09Q71.43 9.22 71.43 7.80L71.43 7.80ZM88.16 10.10L88.16 10.10Q88.16 11.16 87.51 11.71Q86.86 12.26 86.02 12.26L86.02 12.26Q85.59 12.26 85.21 12.12Q84.82 11.98 84.52 11.70Q84.22 11.42 84.04 11.03Q83.86 10.63 83.86 10.10L83.86 10.10Q83.86 9.60 84.04 9.20Q84.22 8.81 84.52 8.54Q84.82 8.28 85.21 8.14Q85.59 7.99 86.02 7.99L86.02 7.99Q86.86 7.99 87.51 8.54Q88.16 9.10 88.16 10.10ZM101.60 0.72L101.60 11.26Q101.60 12.62 101.26 13.55Q100.93 14.47 100.34 15.04Q99.75 15.60 98.95 15.84Q98.14 16.08 97.21 16.08L97.21 16.08Q96.06 16.08 95.07 15.79Q94.09 15.50 93.18 15.05L93.18 15.05L94.09 12.55Q94.69 12.89 95.54 13.19Q96.39 13.49 97.09 13.49L97.09 13.49Q97.83 13.49 98.24 13.04Q98.65 12.60 98.65 11.40L98.65 11.40L98.65 3.17L94.09 3.17L94.09 0.72L101.60 0.72ZM101.24-2.52L101.24-2.52Q101.24-1.66 100.69-1.15Q100.14-0.65 99.37-0.65L99.37-0.65Q98.60-0.65 98.06-1.15Q97.52-1.66 97.52-2.52L97.52-2.52Q97.52-3.41 98.06-3.91Q98.60-4.42 99.37-4.42L99.37-4.42Q100.14-4.42 100.69-3.91Q101.24-3.41 101.24-2.52ZM109.47 9.77L109.47 9.77Q110.55 9.77 111.13 9.61Q111.70 9.46 111.70 8.98L111.70 8.98Q111.70 8.66 111.52 8.45Q111.34 8.23 111.02 8.08Q110.70 7.92 110.28 7.78Q109.86 7.63 109.40 7.49L109.40 7.49Q108.75 7.30 108.08 7.04Q107.41 6.79 106.86 6.41Q106.30 6.02 105.94 5.44Q105.58 4.85 105.58 3.96L105.58 3.96Q105.58 3.24 105.86 2.60Q106.14 1.97 106.72 1.48Q107.31 0.98 108.22 0.71Q109.14 0.43 110.41 0.43L110.41 0.43Q111.51 0.43 112.46 0.60Q113.41 0.77 114.10 1.08L114.10 1.08L113.65 3.58Q113.24 3.46 112.38 3.18Q111.51 2.90 110.43 2.90L110.43 2.90Q109.30 2.90 108.91 3.18Q108.51 3.46 108.51 3.77L108.51 3.77Q108.51 4.03 108.69 4.24Q108.87 4.44 109.17 4.61Q109.47 4.78 109.87 4.93Q110.26 5.09 110.72 5.23L110.72 5.23Q111.37 5.45 112.06 5.71Q112.76 5.98 113.32 6.37Q113.89 6.77 114.25 7.38Q114.61 7.99 114.61 8.88L114.61 8.88Q114.61 9.58 114.34 10.20Q114.08 10.82 113.47 11.28Q112.86 11.74 111.87 12Q110.89 12.26 109.45 12.26L109.45 12.26Q107.98 12.26 106.95 11.93Q105.92 11.59 105.30 11.33L105.30 11.33L105.75 8.86Q106.59 9.19 107.54 9.48Q108.49 9.77 109.47 9.77Z"/>
</g>
</svg>