<?xml version="1.0" encoding="UTF-8"?>
<svg height="26" width="106.8" version="1.1" xmlns="http://www.w3.org/2000/svg"><!--Created by Josélio de S. C. Júnior - 2021 - https://github.com/joseliojunior -->
<rect
    height="24"
    width="104.8"
    rx="1"
    ry="1"
    x="1" y="1"
    fill="#282c34"
    stroke="#61dafb"
    stroke-width="1" />
<g transform="translate(0, 8)">
    <path fill="#61dafb" d="M23.42-0.02L23.42-0.02Q24.27-0.02 24.96 0.18Q25.65 0.37 26.14 0.77Q26.64 1.17 26.90 1.78Q27.17 2.40 27.17 3.23L27.17 3.23Q27.17 4.10 26.82 4.80Q26.46 5.50 25.65 5.87L25.65 5.87Q25.92 6.29 26.22 6.79Q26.53 7.30 26.82 7.85Q27.10 8.40 27.37 8.95Q27.63 9.50 27.82 10L27.82 10L25.76 10Q25.39 9.04 24.90 8.15Q24.42 7.26 23.86 6.35L23.86 6.35L22.83 6.35L22.83 10L20.86 10L20.86 0.24Q21.15 0.18 21.50 0.12Q21.84 0.06 22.19 0.04Q22.54 0.02 22.86 0Q23.18-0.02 23.42-0.02ZM25.17 3.22L25.17 3.22Q25.17 2.43 24.69 2.06Q24.21 1.70 23.42 1.70L23.42 1.70Q23.31 1.70 23.15 1.70Q22.99 1.71 22.83 1.74L22.83 1.74L22.83 4.72L23.26 4.72Q24.27 4.72 24.72 4.33Q25.17 3.94 25.17 3.22ZM28.50 6.30L28.50 6.30Q28.50 5.31 28.80 4.56Q29.10 3.81 29.60 3.30Q30.10 2.80 30.74 2.54Q31.38 2.29 32.05 2.29L32.05 2.29Q33.71 2.29 34.58 3.27Q35.44 4.26 35.44 6.14L35.44 6.14Q35.44 6.34 35.43 6.54Q35.42 6.75 35.41 6.88L35.41 6.88L30.53 6.88Q30.53 7.62 31.14 8.04Q31.74 8.46 32.70 8.46L32.70 8.46Q33.30 8.46 33.83 8.34Q34.37 8.21 34.74 8.08L34.74 8.08L35.01 9.76Q34.50 9.94 33.92 10.06Q33.34 10.18 32.62 10.18L32.62 10.18Q31.66 10.18 30.90 9.93Q30.14 9.68 29.61 9.19Q29.07 8.70 28.78 7.98Q28.50 7.26 28.50 6.30ZM30.53 5.52L33.54 5.52Q33.54 5.22 33.46 4.94Q33.38 4.66 33.20 4.43Q33.02 4.21 32.75 4.07Q32.48 3.94 32.08 3.94L32.08 3.94Q31.70 3.94 31.42 4.06Q31.14 4.19 30.95 4.42Q30.77 4.64 30.66 4.93Q30.56 5.22 30.53 5.52L30.53 5.52ZM40.02 8.59L40.02 8.59Q40.34 8.59 40.64 8.58Q40.94 8.58 41.17 8.54L41.17 8.54L41.17 6.82Q40.98 6.78 40.70 6.76Q40.43 6.74 40.21 6.74L40.21 6.74Q39.90 6.74 39.62 6.78Q39.33 6.82 39.11 6.91Q38.90 7.01 38.77 7.18Q38.64 7.36 38.64 7.65L38.64 7.65Q38.64 8.16 39.02 8.38Q39.41 8.59 40.02 8.59ZM39.84 2.29L39.84 2.29Q40.77 2.29 41.38 2.50Q42 2.72 42.37 3.11Q42.74 3.50 42.90 4.07Q43.06 4.64 43.06 5.34L43.06 5.34L43.06 9.82Q42.62 9.92 41.78 10.05Q40.93 10.18 39.87 10.18L39.87 10.18Q39.15 10.18 38.57 10.05Q37.98 9.92 37.57 9.62Q37.15 9.33 36.93 8.86Q36.70 8.38 36.70 7.70L36.70 7.70Q36.70 7.04 36.96 6.59Q37.22 6.14 37.65 5.87Q38.08 5.60 38.64 5.48Q39.20 5.36 39.81 5.36L39.81 5.36Q40.58 5.36 41.17 5.49L41.17 5.49L41.17 5.25Q41.17 4.69 40.82 4.31Q40.46 3.94 39.60 3.94L39.60 3.94Q39.04 3.94 38.52 4.02Q38 4.10 37.68 4.21L37.68 4.21L37.41 2.62Q37.78 2.50 38.45 2.39Q39.12 2.29 39.84 2.29ZM44.70 6.24L44.70 6.24Q44.70 5.42 44.96 4.70Q45.22 3.98 45.74 3.45Q46.27 2.91 47.08 2.60Q47.89 2.29 49.01 2.29L49.01 2.29Q49.68 2.29 50.22 2.38Q50.77 2.48 51.33 2.70L51.33 2.70L50.90 4.29Q50.58 4.18 50.18 4.09Q49.79 4 49.18 4L49.18 4Q48.48 4 48.01 4.17Q47.54 4.34 47.25 4.63Q46.96 4.93 46.83 5.34Q46.70 5.76 46.70 6.24L46.70 6.24Q46.70 7.28 47.29 7.87Q47.87 8.46 49.28 8.46L49.28 8.46Q49.74 8.46 50.25 8.40Q50.75 8.34 51.17 8.19L51.17 8.19L51.46 9.81Q51.04 9.97 50.45 10.07Q49.86 10.18 49.06 10.18L49.06 10.18Q47.90 10.18 47.08 9.87Q46.26 9.57 45.73 9.04Q45.20 8.51 44.95 7.79Q44.70 7.07 44.70 6.24ZM54.29 7.20L54.29 4.11L52.58 4.11L52.58 2.48L54.29 2.48L54.29 0.59L56.26 0.27L56.26 2.48L59.41 2.48L59.41 4.11L56.26 4.11L56.26 7.15Q56.26 7.57 56.34 7.82Q56.42 8.08 56.56 8.22Q56.70 8.37 56.91 8.42Q57.12 8.46 57.38 8.46L57.38 8.46Q57.65 8.46 57.88 8.45Q58.11 8.43 58.33 8.39Q58.54 8.35 58.78 8.27Q59.01 8.19 59.28 8.06L59.28 8.06L59.55 9.76Q59.01 9.98 58.38 10.08Q57.74 10.18 57.15 10.18L57.15 10.18Q56.46 10.18 55.94 10.06Q55.41 9.95 55.04 9.63Q54.67 9.31 54.48 8.73Q54.29 8.14 54.29 7.20L54.29 7.20ZM65.44 8.74L65.44 8.74Q65.44 9.44 65.01 9.81Q64.58 10.18 64.02 10.18L64.02 10.18Q63.73 10.18 63.47 10.08Q63.22 9.98 63.02 9.80Q62.82 9.62 62.70 9.35Q62.58 9.09 62.58 8.74L62.58 8.74Q62.58 8.40 62.70 8.14Q62.82 7.87 63.02 7.70Q63.22 7.52 63.47 7.42Q63.73 7.33 64.02 7.33L64.02 7.33Q64.58 7.33 65.01 7.70Q65.44 8.06 65.44 8.74ZM74.40 2.48L74.40 9.50Q74.40 10.42 74.18 11.03Q73.95 11.65 73.56 12.02Q73.17 12.40 72.63 12.56Q72.10 12.72 71.47 12.72L71.47 12.72Q70.70 12.72 70.05 12.53Q69.39 12.34 68.78 12.03L68.78 12.03L69.39 10.37Q69.79 10.59 70.36 10.79Q70.93 10.99 71.39 10.99L71.39 10.99Q71.89 10.99 72.16 10.70Q72.43 10.40 72.43 9.60L72.43 9.60L72.43 4.11L69.39 4.11L69.39 2.48L74.40 2.48ZM74.16 0.32L74.16 0.32Q74.16 0.90 73.79 1.23Q73.42 1.57 72.91 1.57L72.91 1.57Q72.40 1.57 72.04 1.23Q71.68 0.90 71.68 0.32L71.68 0.32Q71.68-0.27 72.04-0.61Q72.40-0.94 72.91-0.94L72.91-0.94Q73.42-0.94 73.79-0.61Q74.16-0.27 74.16 0.32ZM79.65 8.51L79.65 8.51Q80.37 8.51 80.75 8.41Q81.14 8.30 81.14 7.98L81.14 7.98Q81.14 7.78 81.02 7.63Q80.90 7.49 80.68 7.38Q80.46 7.28 80.18 7.18Q79.90 7.09 79.60 6.99L79.60 6.99Q79.17 6.86 78.72 6.70Q78.27 6.53 77.90 6.27Q77.54 6.02 77.30 5.62Q77.06 5.23 77.06 4.64L77.06 4.64Q77.06 4.16 77.24 3.74Q77.42 3.31 77.82 2.98Q78.21 2.66 78.82 2.47Q79.42 2.29 80.27 2.29L80.27 2.29Q81.01 2.29 81.64 2.40Q82.27 2.51 82.74 2.72L82.74 2.72L82.43 4.38Q82.16 4.30 81.58 4.12Q81.01 3.94 80.29 3.94L80.29 3.94Q79.54 3.94 79.27 4.12Q79.01 4.30 79.01 4.51L79.01 4.51Q79.01 4.69 79.13 4.82Q79.25 4.96 79.45 5.07Q79.65 5.18 79.91 5.29Q80.18 5.39 80.48 5.49L80.48 5.49Q80.91 5.63 81.38 5.81Q81.84 5.98 82.22 6.25Q82.59 6.51 82.83 6.92Q83.07 7.33 83.07 7.92L83.07 7.92Q83.07 8.38 82.90 8.80Q82.72 9.22 82.31 9.52Q81.90 9.82 81.25 10Q80.59 10.18 79.63 10.18L79.63 10.18Q78.66 10.18 77.97 9.95Q77.28 9.73 76.86 9.55L76.86 9.55L77.17 7.90Q77.73 8.13 78.36 8.32Q78.99 8.51 79.65 8.51Z"/>
</g>
</svg>