<?xml version="1.0" encoding="UTF-8"?><svg height="34" width="78.3" version="1.1" xmlns="http://www.w3.org/2000/svg"><!--Created by Josélio de S. C. Júnior - 2021 - https://github.com/joseliojunior --><rect height="32" width="76.3" rx="1" ry="1" x="1" y="1" fill="#0060ac" stroke="#47acff" stroke-width="1" /><g transform="translate(0, 12)"><path fill="#47acff" d="M31.74 12L28.54 12Q28.09 10.78 27.43 9.29Q26.77 7.80 26.05 6.31L26.05 6.31Q25.35 7.73 24.66 9.25Q23.96 10.78 23.46 12L23.46 12L20.26 12Q20.50 11.35 20.97 10.44Q21.44 9.53 22.00 8.47Q22.57 7.42 23.19 6.30Q23.82 5.18 24.39 4.15L24.39 4.15L20.50-2.86L23.70-2.86L26.05 1.90L28.52-2.86L31.50-2.86L27.70 4.08Q28.35 5.11 28.98 6.24Q29.60 7.37 30.14 8.44Q30.68 9.50 31.09 10.43Q31.50 11.35 31.74 12L31.74 12ZM33.42-2.86L35.86-2.86Q36.03-2.35 36.28-1.56Q36.54-0.77 36.82 0.14Q37.11 1.06 37.40 1.99Q37.69 2.93 37.95 3.72L37.95 3.72Q38.24 2.83 38.55 1.88Q38.86 0.94 39.15 0.06Q39.44-0.82 39.68-1.58Q39.92-2.35 40.11-2.86L40.11-2.86L42.56-2.86Q42.73-0.91 42.88 0.94Q43.04 2.78 43.15 4.60Q43.26 6.41 43.33 8.24Q43.40 10.08 43.45 12L43.45 12L40.74 12L40.88 0.46L39.06 6.74L36.90 6.74L35.14 0.46L35.26 12L32.55 12Q32.62 10.18 32.71 8.21Q32.79 6.24 32.89 4.30Q32.98 2.35 33.12 0.53Q33.25-1.30 33.42-2.86L33.42-2.86ZM55.04 9.55L55.04 12L45.70 12L45.70-2.86L48.68-2.86L48.68 9.55L55.04 9.55Z"/></g></svg>