<?xml version="1.0" encoding="UTF-8"?>
<svg height="26" width="90.6" version="1.1" xmlns="http://www.w3.org/2000/svg"><!--Created by Josélio de S. C. Júnior - 2021 - https://github.com/joseliojunior -->
    <rect
        height="24"
        width="88.6"
        rx="12"
        ry="12"
        x="1" y="1"
        fill="#4d6977"
        stroke="#101619"
        stroke-width="1" />
    <g transform="translate(0, 8)">
        <path fill="#101619" stroke="none" d="M27.36 10L21.01 10L21.01 0.10L27.01 0.10L27.01 1.73L22.98 1.73L22.98 3.95L26.48 3.95L26.48 5.58L22.98 5.58L22.98 8.37L27.36 8.37L27.36 10ZM32.54 0.32L32.54 0.32Q32.54 0.90 32.18 1.23Q31.81 1.57 31.30 1.57L31.30 1.57Q30.78 1.57 30.42 1.23Q30.06 0.90 30.06 0.32L30.06 0.32Q30.06-0.27 30.42-0.61Q30.78-0.94 31.30-0.94L31.30-0.94Q31.81-0.94 32.18-0.61Q32.54-0.27 32.54 0.32ZM35.22 8.10L35.47 9.68Q34.86 9.97 34.33 10.07Q33.79 10.18 33.34 10.18L33.34 10.18Q32.58 10.18 32.06 9.95Q31.54 9.73 31.22 9.30Q30.91 8.88 30.78 8.27Q30.66 7.66 30.66 6.88L30.66 6.88L30.66 4.11L28.58 4.11L28.58 2.48L32.62 2.48L32.62 7.14Q32.62 7.81 32.87 8.14Q33.12 8.46 33.70 8.46L33.70 8.46Q33.97 8.46 34.35 8.39Q34.74 8.32 35.22 8.10L35.22 8.10ZM40.21 10L38.22 10L38.22 4.11L36.58 4.11L36.58 2.48L38.22 2.48L38.22 2.05Q38.22 1.14 38.49 0.54Q38.75-0.06 39.20-0.42Q39.65-0.78 40.22-0.94Q40.80-1.09 41.41-1.09L41.41-1.09Q42.03-1.09 42.69-0.98Q43.34-0.86 43.87-0.61L43.87-0.61L43.54 0.99Q43.17 0.86 42.62 0.73Q42.06 0.59 41.57 0.59L41.57 0.59Q41.30 0.59 41.05 0.64Q40.80 0.69 40.62 0.85Q40.43 1.01 40.32 1.30Q40.21 1.60 40.21 2.08L40.21 2.08L40.21 2.48L43.30 2.48L43.30 4.11L40.21 4.11L40.21 10ZM48.21 10L46.22 10L46.22 4.11L44.58 4.11L44.58 2.48L46.22 2.48L46.22 2.05Q46.22 1.14 46.49 0.54Q46.75-0.06 47.20-0.42Q47.65-0.78 48.22-0.94Q48.80-1.09 49.41-1.09L49.41-1.09Q50.03-1.09 50.69-0.98Q51.34-0.86 51.87-0.61L51.87-0.61L51.54 0.99Q51.17 0.86 50.62 0.73Q50.06 0.59 49.57 0.59L49.57 0.59Q49.30 0.59 49.05 0.64Q48.80 0.69 48.62 0.85Q48.43 1.01 48.32 1.30Q48.21 1.60 48.21 2.08L48.21 2.08L48.21 2.48L51.30 2.48L51.30 4.11L48.21 4.11L48.21 10ZM52.50 6.30L52.50 6.30Q52.50 5.31 52.80 4.56Q53.10 3.81 53.60 3.30Q54.10 2.80 54.74 2.54Q55.38 2.29 56.05 2.29L56.05 2.29Q57.71 2.29 58.58 3.27Q59.44 4.26 59.44 6.14L59.44 6.14Q59.44 6.34 59.43 6.54Q59.42 6.75 59.41 6.88L59.41 6.88L54.53 6.88Q54.53 7.62 55.14 8.04Q55.74 8.46 56.70 8.46L56.70 8.46Q57.30 8.46 57.83 8.34Q58.37 8.21 58.74 8.08L58.74 8.08L59.01 9.76Q58.50 9.94 57.92 10.06Q57.34 10.18 56.62 10.18L56.62 10.18Q55.66 10.18 54.90 9.93Q54.14 9.68 53.61 9.19Q53.07 8.70 52.78 7.98Q52.50 7.26 52.50 6.30ZM54.53 5.52L57.54 5.52Q57.54 5.22 57.46 4.94Q57.38 4.66 57.20 4.43Q57.02 4.21 56.75 4.07Q56.48 3.94 56.08 3.94L56.08 3.94Q55.70 3.94 55.42 4.06Q55.14 4.19 54.95 4.42Q54.77 4.64 54.66 4.93Q54.56 5.22 54.53 5.52L54.53 5.52ZM67.22 8.10L67.47 9.68Q67.42 9.71 67.26 9.79Q67.09 9.87 66.82 9.96Q66.54 10.05 66.15 10.11Q65.76 10.18 65.26 10.18L65.26 10.18Q63.90 10.18 63.28 9.37Q62.66 8.56 62.66 7.01L62.66 7.01L62.66 0.62L60.58 0.62L60.58-1.01L64.62-1.01L64.62 7.15Q64.62 7.92 64.93 8.19Q65.23 8.46 65.70 8.46L65.70 8.46Q66.29 8.46 66.69 8.30Q67.09 8.14 67.22 8.10L67.22 8.10Z"/>
    </g>
</svg>