<?xml version="1.0" encoding="UTF-8"?>
<svg height="322" width="150.89999999999998" version="1.1" xmlns="http://www.w3.org/2000/svg"><!--Created by Josélio de S. C. Júnior - 2021 - https://github.com/joseliojunior -->
    <defs>
        <pattern id="pattern"
                x="1.5" y="3" width="3" height="6"
                patternUnits="userSpaceOnUse"
                patternTransform="rotate(45)" >
            <rect height="6" width="1" fill="#999999"/>
        </pattern>
    </defs>
    <rect
        height="32"
        width="148.89999999999998"
        rx="16"
        ry="16"
        x="1" y="1"
        fill="url(#pattern)"
        stroke="#000000"
        stroke-width="1" />
    <g transform="translate(0, 12)">
        <path fill="#ffffff" stroke="#000000" d="M27.10 12.31L27.10 12.31Q23.96 12.31 22.30 10.30Q20.65 8.28 20.65 4.56L20.65 4.56Q20.65 2.71 21.15 1.27Q21.66-0.17 22.56-1.16Q23.46-2.16 24.69-2.68Q25.93-3.19 27.39-3.19L27.39-3.19Q28.18-3.19 28.82-3.06Q29.46-2.93 29.94-2.76Q30.42-2.59 30.74-2.40Q31.06-2.21 31.23-2.11L31.23-2.11L30.46 0.24Q29.91-0.12 29.13-0.37Q28.35-0.62 27.34-0.62L27.34-0.62Q26.65-0.62 25.99-0.37Q25.33-0.12 24.81 0.47Q24.30 1.06 23.97 2.04Q23.65 3.02 23.65 4.49L23.65 4.49Q23.65 7.03 24.52 8.39Q25.40 9.74 27.39 9.74L27.39 9.74Q28.54 9.74 29.30 9.48Q30.06 9.22 30.51 8.95L30.51 8.95L31.26 11.28Q30.63 11.66 29.56 11.99Q28.50 12.31 27.10 12.31ZM34.71 7.30L34.71 4.39L41.29 4.39L41.29 7.30L34.71 7.30ZM47.65 4.56L47.65 4.56Q47.65 5.64 47.73 6.59Q47.82 7.54 48.07 8.23Q48.32 8.93 48.78 9.34Q49.23 9.74 50 9.74L50 9.74Q50.74 9.74 51.21 9.34Q51.68 8.93 51.93 8.22Q52.18 7.51 52.27 6.58Q52.35 5.64 52.35 4.56L52.35 4.56Q52.35 3.48 52.27 2.53Q52.18 1.58 51.93 0.89Q51.68 0.19 51.22-0.22Q50.77-0.62 50-0.62L50-0.62Q49.23-0.62 48.78-0.22Q48.32 0.19 48.07 0.90Q47.82 1.61 47.73 2.54Q47.65 3.48 47.65 4.56ZM44.65 4.56L44.65 4.56Q44.65 0.72 46.06-1.24Q47.48-3.19 50-3.19L50-3.19Q52.62-3.19 53.98-1.24Q55.35 0.72 55.35 4.56L55.35 4.56Q55.35 8.40 53.96 10.36Q52.57 12.31 50.02 12.31L50.02 12.31Q47.41 12.31 46.03 10.36Q44.65 8.40 44.65 4.56ZM64.28 6.29L64.28 6.29Q64.28 4.70 63.76 3.86Q63.25 3.02 62.19 3.02L62.19 3.02Q61.71 3.02 61.24 3.16Q60.78 3.29 60.44 3.48L60.44 3.48L60.44 9.60Q60.78 9.67 61.15 9.70Q61.52 9.72 61.78 9.72L61.78 9.72Q62.94 9.72 63.61 8.94Q64.28 8.16 64.28 6.29ZM67.28 6.36L67.28 6.36Q67.28 7.70 66.92 8.80Q66.56 9.89 65.86 10.66Q65.17 11.42 64.16 11.84Q63.15 12.26 61.86 12.26L61.86 12.26Q60.70 12.26 59.50 12.10Q58.30 11.93 57.49 11.66L57.49 11.66L57.49-4.15L60.44-4.66L60.44 0.98Q61.06 0.70 61.64 0.59Q62.22 0.48 62.79 0.48L62.79 0.48Q63.90 0.48 64.74 0.90Q65.58 1.32 66.14 2.10Q66.70 2.88 66.99 3.96Q67.28 5.04 67.28 6.36ZM77.60 0.72L77.60 11.26Q77.60 12.62 77.26 13.55Q76.93 14.47 76.34 15.04Q75.75 15.60 74.95 15.84Q74.14 16.08 73.21 16.08L73.21 16.08Q72.06 16.08 71.07 15.79Q70.09 15.50 69.18 15.05L69.18 15.05L70.09 12.55Q70.69 12.89 71.54 13.19Q72.39 13.49 73.09 13.49L73.09 13.49Q73.83 13.49 74.24 13.04Q74.65 12.60 74.65 11.40L74.65 11.40L74.65 3.17L70.09 3.17L70.09 0.72L77.60 0.72ZM77.24-2.52L77.24-2.52Q77.24-1.66 76.69-1.15Q76.14-0.65 75.37-0.65L75.37-0.65Q74.60-0.65 74.06-1.15Q73.52-1.66 73.52-2.52L73.52-2.52Q73.52-3.41 74.06-3.91Q74.60-4.42 75.37-4.42L75.37-4.42Q76.14-4.42 76.69-3.91Q77.24-3.41 77.24-2.52ZM84.25-0.38L84.25 9.60Q84.37 9.62 84.51 9.62Q84.66 9.62 84.78 9.62L84.78 9.62Q85.78 9.62 86.47 9.24Q87.15 8.86 87.57 8.18Q87.99 7.51 88.17 6.59Q88.35 5.66 88.35 4.56L88.35 4.56Q88.35 3.60 88.21 2.69Q88.06 1.78 87.70 1.08Q87.34 0.38 86.72-0.04Q86.10-0.46 85.11-0.46L85.11-0.46Q84.92-0.46 84.68-0.44Q84.44-0.43 84.25-0.38L84.25-0.38ZM91.35 4.56L91.35 4.56Q91.35 6.62 90.84 8.08Q90.32 9.53 89.41 10.44Q88.50 11.35 87.24 11.77Q85.98 12.19 84.46 12.19L84.46 12.19Q83.67 12.19 82.92 12.11Q82.16 12.02 81.30 11.83L81.30 11.83L81.30-2.66Q82.30-2.88 83.19-2.95Q84.08-3.02 84.85-3.02L84.85-3.02Q86.31-3.02 87.52-2.59Q88.74-2.16 89.58-1.24Q90.42-0.31 90.88 1.12Q91.35 2.54 91.35 4.56ZM102.51 0.72L102.51 11.62Q101.70 11.83 100.53 12.05Q99.37 12.26 98 12.26L98 12.26Q96.61 12.26 95.72 11.88Q94.83 11.50 94.32 10.79Q93.80 10.08 93.61 9.12Q93.42 8.16 93.42 7.01L93.42 7.01L93.42 0.72L96.37 0.72L96.37 6.62Q96.37 8.18 96.74 8.94Q97.11 9.70 98.19 9.70L98.19 9.70Q98.86 9.70 99.54 9.58L99.54 9.58L99.54 0.72L102.51 0.72ZM112.23 0.60L112.23 0.60Q113.17 0.60 113.77 0.89Q114.37 1.18 114.72 1.75Q115.06 2.33 115.18 3.20Q115.30 4.08 115.30 5.26L115.30 5.26L115.30 12L112.90 12L112.90 5.11Q112.90 4.44 112.82 4.03Q112.74 3.62 112.60 3.41Q112.47 3.19 112.29 3.12Q112.11 3.05 111.92 3.05L111.92 3.05Q111.70 3.05 111.46 3.08Q111.22 3.12 111.03 3.22L111.03 3.22Q111.10 3.67 111.15 4.22Q111.20 4.78 111.20 5.45L111.20 5.45L111.20 7.70L108.80 7.70L108.80 5.11Q108.80 3.96 108.57 3.50Q108.34 3.05 107.84 3.05L107.84 3.05Q107.70 3.05 107.49 3.07Q107.29 3.10 107.10 3.14L107.10 3.14L107.10 12L104.70 12L104.70 1.15Q105.63 0.89 106.54 0.74Q107.46 0.60 108.15 0.60L108.15 0.60Q108.78 0.60 109.27 0.76Q109.76 0.91 110.12 1.27L110.12 1.27Q110.53 1.01 111.08 0.80Q111.63 0.60 112.23 0.60ZM124.26 6.46L124.26 6.46Q124.26 4.94 123.66 3.97Q123.06 3 121.83 3L121.83 3Q121.50 3 121.11 3.04Q120.73 3.07 120.46 3.10L120.46 3.10L120.46 9.29Q120.75 9.48 121.23 9.60Q121.71 9.72 122.19 9.72L122.19 9.72Q123.25 9.72 123.75 8.87Q124.26 8.02 124.26 6.46ZM127.26 6.36L127.26 6.36Q127.26 7.66 126.97 8.75Q126.68 9.84 126.13 10.62Q125.58 11.40 124.74 11.83Q123.90 12.26 122.79 12.26L122.79 12.26Q121.66 12.26 120.46 11.71L120.46 11.71L120.46 15.96L117.51 15.96L117.51 1.08Q118.33 0.82 119.52 0.65Q120.70 0.48 121.86 0.48L121.86 0.48Q124.47 0.48 125.86 2.06Q127.26 3.65 127.26 6.36Z"/>
    </g>
</svg>