<?xml version="1.0" encoding="UTF-8"?>
<svg height="26" width="114.89999999999999" version="1.1" xmlns="http://www.w3.org/2000/svg"><!--Created by Josélio de S. C. Júnior - 2021 - https://github.com/joseliojunior -->
    <defs>
        <pattern id="pattern"
                x="3" y="3" width="6" height="6"
                patternUnits="userSpaceOnUse"
                patternTransform="rotate(45)" >
            <rect height="6" width="6"
                fill="#ffffff"/>
            <line x1="0" y1="0" x2="0" y2="6"
                stroke="#888888"
                stroke-width="2" />
        </pattern>
    </defs>
    <rect
        height="24"
        width="112.89999999999999"
        rx="1"
        ry="1"
        x="1" y="1"
        fill="url(#pattern)" />
    <g transform="translate(0, 8)">
        <path fill="#000000" d="M24.74 10.21L24.74 10.21Q22.64 10.21 21.54 8.86Q20.43 7.52 20.43 5.04L20.43 5.04Q20.43 3.81 20.77 2.85Q21.10 1.89 21.70 1.22Q22.30 0.56 23.13 0.22Q23.95-0.13 24.93-0.13L24.93-0.13Q25.46-0.13 25.88-0.04Q26.30 0.05 26.62 0.16Q26.94 0.27 27.16 0.40Q27.38 0.53 27.49 0.59L27.49 0.59L26.98 2.16Q26.61 1.92 26.09 1.75Q25.57 1.58 24.90 1.58L24.90 1.58Q24.43 1.58 23.99 1.75Q23.55 1.92 23.21 2.31Q22.86 2.70 22.65 3.36Q22.43 4.02 22.43 4.99L22.43 4.99Q22.43 6.69 23.02 7.59Q23.60 8.50 24.93 8.50L24.93 8.50Q25.70 8.50 26.20 8.32Q26.70 8.14 27.01 7.97L27.01 7.97L27.50 9.52Q27.09 9.78 26.38 9.99Q25.66 10.21 24.74 10.21ZM29.81 6.86L29.81 4.93L34.19 4.93L34.19 6.86L29.81 6.86ZM38.43 5.04L38.43 5.04Q38.43 5.76 38.49 6.39Q38.54 7.02 38.71 7.49Q38.88 7.95 39.18 8.22Q39.49 8.50 40 8.50L40 8.50Q40.50 8.50 40.81 8.22Q41.12 7.95 41.29 7.48Q41.46 7.01 41.51 6.38Q41.57 5.76 41.57 5.04L41.57 5.04Q41.57 4.32 41.51 3.69Q41.46 3.06 41.29 2.59Q41.12 2.13 40.82 1.86Q40.51 1.58 40 1.58L40 1.58Q39.49 1.58 39.18 1.86Q38.88 2.13 38.71 2.60Q38.54 3.07 38.49 3.70Q38.43 4.32 38.43 5.04ZM36.43 5.04L36.43 5.04Q36.43 2.48 37.38 1.18Q38.32-0.13 40-0.13L40-0.13Q41.74-0.13 42.66 1.18Q43.57 2.48 43.57 5.04L43.57 5.04Q43.57 7.60 42.64 8.90Q41.71 10.21 40.02 10.21L40.02 10.21Q38.27 10.21 37.35 8.90Q36.43 7.60 36.43 5.04ZM49.52 6.19L49.52 6.19Q49.52 5.14 49.18 4.58Q48.83 4.02 48.13 4.02L48.13 4.02Q47.81 4.02 47.50 4.10Q47.18 4.19 46.96 4.32L46.96 4.32L46.96 8.40Q47.18 8.45 47.43 8.46Q47.68 8.48 47.86 8.48L47.86 8.48Q48.62 8.48 49.07 7.96Q49.52 7.44 49.52 6.19ZM51.52 6.24L51.52 6.24Q51.52 7.14 51.28 7.86Q51.04 8.59 50.58 9.10Q50.11 9.62 49.44 9.90Q48.77 10.18 47.90 10.18L47.90 10.18Q47.14 10.18 46.34 10.06Q45.54 9.95 44.99 9.78L44.99 9.78L44.99-0.77L46.96-1.10L46.96 2.66Q47.38 2.46 47.76 2.39Q48.14 2.32 48.53 2.32L48.53 2.32Q49.26 2.32 49.82 2.60Q50.38 2.88 50.76 3.40Q51.14 3.92 51.33 4.64Q51.52 5.36 51.52 6.24ZM58.40 2.48L58.40 9.50Q58.40 10.42 58.18 11.03Q57.95 11.65 57.56 12.02Q57.17 12.40 56.63 12.56Q56.10 12.72 55.47 12.72L55.47 12.72Q54.70 12.72 54.05 12.53Q53.39 12.34 52.78 12.03L52.78 12.03L53.39 10.37Q53.79 10.59 54.36 10.79Q54.93 10.99 55.39 10.99L55.39 10.99Q55.89 10.99 56.16 10.70Q56.43 10.40 56.43 9.60L56.43 9.60L56.43 4.11L53.39 4.11L53.39 2.48L58.40 2.48ZM58.16 0.32L58.16 0.32Q58.16 0.90 57.79 1.23Q57.42 1.57 56.91 1.57L56.91 1.57Q56.40 1.57 56.04 1.23Q55.68 0.90 55.68 0.32L55.68 0.32Q55.68-0.27 56.04-0.61Q56.40-0.94 56.91-0.94L56.91-0.94Q57.42-0.94 57.79-0.61Q58.16-0.27 58.16 0.32ZM62.83 1.74L62.83 8.40Q62.91 8.42 63.01 8.42Q63.10 8.42 63.18 8.42L63.18 8.42Q63.86 8.42 64.31 8.16Q64.77 7.90 65.05 7.46Q65.33 7.01 65.45 6.39Q65.57 5.78 65.57 5.04L65.57 5.04Q65.57 4.40 65.47 3.79Q65.38 3.18 65.14 2.72Q64.90 2.26 64.48 1.98Q64.06 1.70 63.41 1.70L63.41 1.70Q63.28 1.70 63.12 1.70Q62.96 1.71 62.83 1.74L62.83 1.74ZM67.57 5.04L67.57 5.04Q67.57 6.42 67.22 7.38Q66.88 8.35 66.27 8.96Q65.66 9.57 64.82 9.85Q63.98 10.13 62.98 10.13L62.98 10.13Q62.45 10.13 61.94 10.07Q61.44 10.02 60.86 9.89L60.86 9.89L60.86 0.22Q61.54 0.08 62.13 0.03Q62.72-0.02 63.23-0.02L63.23-0.02Q64.21-0.02 65.02 0.27Q65.82 0.56 66.38 1.18Q66.94 1.79 67.26 2.74Q67.57 3.70 67.57 5.04ZM75.01 2.48L75.01 9.74Q74.46 9.89 73.69 10.03Q72.91 10.18 72 10.18L72 10.18Q71.07 10.18 70.48 9.92Q69.89 9.66 69.54 9.19Q69.20 8.72 69.07 8.08Q68.94 7.44 68.94 6.67L68.94 6.67L68.94 2.48L70.91 2.48L70.91 6.42Q70.91 7.46 71.16 7.96Q71.41 8.46 72.13 8.46L72.13 8.46Q72.58 8.46 73.02 8.38L73.02 8.38L73.02 2.48L75.01 2.48ZM81.49 2.40L81.49 2.40Q82.11 2.40 82.51 2.59Q82.91 2.78 83.14 3.17Q83.38 3.55 83.46 4.14Q83.54 4.72 83.54 5.50L83.54 5.50L83.54 10L81.94 10L81.94 5.41Q81.94 4.96 81.88 4.69Q81.82 4.42 81.74 4.27Q81.65 4.13 81.53 4.08Q81.41 4.03 81.28 4.03L81.28 4.03Q81.14 4.03 80.98 4.06Q80.82 4.08 80.69 4.14L80.69 4.14Q80.74 4.45 80.77 4.82Q80.80 5.18 80.80 5.63L80.80 5.63L80.80 7.14L79.20 7.14L79.20 5.41Q79.20 4.64 79.05 4.34Q78.90 4.03 78.56 4.03L78.56 4.03Q78.46 4.03 78.33 4.05Q78.19 4.06 78.06 4.10L78.06 4.10L78.06 10L76.46 10L76.46 2.77Q77.09 2.59 77.70 2.50Q78.30 2.40 78.77 2.40L78.77 2.40Q79.18 2.40 79.51 2.50Q79.84 2.61 80.08 2.85L80.08 2.85Q80.35 2.67 80.72 2.54Q81.09 2.40 81.49 2.40ZM89.50 6.30L89.50 6.30Q89.50 5.30 89.10 4.65Q88.70 4 87.89 4L87.89 4Q87.66 4 87.41 4.02Q87.15 4.05 86.98 4.06L86.98 4.06L86.98 8.19Q87.17 8.32 87.49 8.40Q87.81 8.48 88.13 8.48L88.13 8.48Q88.83 8.48 89.17 7.91Q89.50 7.34 89.50 6.30ZM91.50 6.24L91.50 6.24Q91.50 7.10 91.31 7.83Q91.12 8.56 90.75 9.08Q90.38 9.60 89.82 9.89Q89.26 10.18 88.53 10.18L88.53 10.18Q87.78 10.18 86.98 9.81L86.98 9.81L86.98 12.64L85.01 12.64L85.01 2.72Q85.55 2.54 86.34 2.43Q87.14 2.32 87.90 2.32L87.90 2.32Q89.65 2.32 90.58 3.38Q91.50 4.43 91.50 6.24Z"/>
    </g>
</svg>