<?xml version="1.0" encoding="UTF-8"?><svg height="34" width="211.4" version="1.1" xmlns="http://www.w3.org/2000/svg"><!--Created by Josélio de S. C. Júnior - 2021 - https://github.com/joseliojunior --><defs><pattern id="pattern" x="3" y="3" width="6" height="6" patternUnits="userSpaceOnUse" patternTransform="rotate(45)"><rect height="6" width="6" fill="#ffffff"/><line x1="0" y1="0" x2="0" y2="6" stroke="#bbbbbb" stroke-width="2" /></pattern></defs><rect height="32" width="209.4" rx="16" ry="16" x="1" y="1" fill="url(#pattern)" /><g transform="translate(0, 12)"><path fill="#000000" d="M31.04 9.55L31.04 12L21.70 12L21.70-2.86L24.68-2.86L24.68 9.55L31.04 9.55ZM32.60-2.86L43.40-2.86L43.40-0.41L39.49-0.41L39.49 12L36.51 12L36.51-0.41L32.60-0.41L32.60-2.86ZM49.47 9.77L49.47 9.77Q50.55 9.77 51.13 9.61Q51.70 9.46 51.70 8.98L51.70 8.98Q51.70 8.66 51.52 8.45Q51.34 8.23 51.02 8.08Q50.70 7.92 50.28 7.78Q49.86 7.63 49.40 7.49L49.40 7.49Q48.75 7.30 48.08 7.04Q47.41 6.79 46.86 6.41Q46.30 6.02 45.94 5.44Q45.58 4.85 45.58 3.96L45.58 3.96Q45.58 3.24 45.86 2.60Q46.14 1.97 46.72 1.48Q47.31 0.98 48.22 0.71Q49.14 0.43 50.41 0.43L50.41 0.43Q51.51 0.43 52.46 0.60Q53.41 0.77 54.10 1.08L54.10 1.08L53.65 3.58Q53.24 3.46 52.38 3.18Q51.51 2.90 50.43 2.90L50.43 2.90Q49.30 2.90 48.91 3.18Q48.51 3.46 48.51 3.77L48.51 3.77Q48.51 4.03 48.69 4.24Q48.87 4.44 49.17 4.61Q49.47 4.78 49.87 4.93Q50.26 5.09 50.72 5.23L50.72 5.23Q51.37 5.45 52.06 5.71Q52.76 5.98 53.32 6.37Q53.89 6.77 54.25 7.38Q54.61 7.99 54.61 8.88L54.61 8.88Q54.61 9.58 54.34 10.20Q54.08 10.82 53.47 11.28Q52.86 11.74 51.87 12Q50.89 12.26 49.45 12.26L49.45 12.26Q47.98 12.26 46.95 11.93Q45.92 11.59 45.30 11.33L45.30 11.33L45.75 8.86Q46.59 9.19 47.54 9.48Q48.49 9.77 49.47 9.77ZM64.26 6.46L64.26 6.46Q64.26 4.94 63.66 3.97Q63.06 3 61.83 3L61.83 3Q61.50 3 61.11 3.04Q60.73 3.07 60.46 3.10L60.46 3.10L60.46 9.29Q60.75 9.48 61.23 9.60Q61.71 9.72 62.19 9.72L62.19 9.72Q63.25 9.72 63.75 8.87Q64.26 8.02 64.26 6.46ZM67.26 6.36L67.26 6.36Q67.26 7.66 66.97 8.75Q66.68 9.84 66.13 10.62Q65.58 11.40 64.74 11.83Q63.90 12.26 62.79 12.26L62.79 12.26Q61.66 12.26 60.46 11.71L60.46 11.71L60.46 15.96L57.51 15.96L57.51 1.08Q58.33 0.82 59.52 0.65Q60.70 0.48 61.86 0.48L61.86 0.48Q64.47 0.48 65.86 2.06Q67.26 3.65 67.26 6.36ZM74.82-2.52L74.82-2.52Q74.82-1.66 74.26-1.15Q73.71-0.65 72.94-0.65L72.94-0.65Q72.18-0.65 71.64-1.15Q71.10-1.66 71.10-2.52L71.10-2.52Q71.10-3.41 71.64-3.91Q72.18-4.42 72.94-4.42L72.94-4.42Q73.71-4.42 74.26-3.91Q74.82-3.41 74.82-2.52ZM78.82 9.14L79.21 11.52Q78.30 11.95 77.49 12.11Q76.69 12.26 76.02 12.26L76.02 12.26Q74.86 12.26 74.08 11.93Q73.30 11.59 72.84 10.96Q72.37 10.32 72.18 9.41Q71.98 8.50 71.98 7.32L71.98 7.32L71.98 3.17L68.86 3.17L68.86 0.72L74.94 0.72L74.94 7.70Q74.94 8.71 75.31 9.20Q75.68 9.70 76.54 9.70L76.54 9.70Q76.95 9.70 77.53 9.59Q78.10 9.48 78.82 9.14L78.82 9.14ZM81.06 6.36L81.06 6.36Q81.06 5.14 81.44 4.06Q81.82 2.98 82.62 2.17Q83.41 1.37 84.62 0.90Q85.83 0.43 87.51 0.43L87.51 0.43Q88.52 0.43 89.34 0.58Q90.15 0.72 90.99 1.06L90.99 1.06L90.34 3.43Q89.86 3.26 89.28 3.13Q88.69 3 87.78 3L87.78 3Q86.72 3 86.01 3.25Q85.30 3.50 84.87 3.95Q84.44 4.39 84.25 5.02Q84.06 5.64 84.06 6.36L84.06 6.36Q84.06 7.92 84.93 8.81Q85.81 9.70 87.92 9.70L87.92 9.70Q88.62 9.70 89.37 9.60Q90.13 9.50 90.75 9.29L90.75 9.29L91.18 11.71Q90.56 11.95 89.67 12.11Q88.78 12.26 87.58 12.26L87.58 12.26Q85.86 12.26 84.62 11.81Q83.38 11.35 82.59 10.56Q81.80 9.77 81.43 8.69Q81.06 7.61 81.06 6.36ZM92.74 6.46L92.74 6.46Q92.74 4.97 93.20 3.84Q93.66 2.71 94.40 1.96Q95.14 1.20 96.10 0.82Q97.06 0.43 98.07 0.43L98.07 0.43Q100.57 0.43 101.86 1.91Q103.16 3.38 103.16 6.22L103.16 6.22Q103.16 6.50 103.15 6.82Q103.14 7.13 103.11 7.32L103.11 7.32L95.79 7.32Q95.79 8.42 96.70 9.06Q97.62 9.70 99.06 9.70L99.06 9.70Q99.94 9.70 100.75 9.50Q101.55 9.31 102.10 9.12L102.10 9.12L102.51 11.64Q101.74 11.90 100.88 12.08Q100.02 12.26 98.94 12.26L98.94 12.26Q97.50 12.26 96.36 11.89Q95.22 11.52 94.41 10.79Q93.61 10.06 93.18 8.98Q92.74 7.90 92.74 6.46ZM95.79 5.28L100.30 5.28Q100.30 4.82 100.18 4.40Q100.06 3.98 99.80 3.65Q99.54 3.31 99.13 3.11Q98.72 2.90 98.12 2.90L98.12 2.90Q97.54 2.90 97.12 3.10Q96.70 3.29 96.43 3.62Q96.15 3.96 96.00 4.39Q95.84 4.82 95.79 5.28L95.79 5.28ZM121.57 9.84L121.57 9.84Q122.31 9.84 122.80 9.68Q123.30 9.53 123.58 9.25Q123.87 8.98 123.98 8.63Q124.09 8.28 124.09 7.92L124.09 7.92Q124.09 7.46 123.82 7.10Q123.56 6.74 123.15 6.47Q122.74 6.19 122.24 5.96Q121.74 5.74 121.23 5.54L121.23 5.54Q120.56 5.30 119.84 4.99Q119.12 4.68 118.53 4.20Q117.94 3.72 117.56 3.01Q117.18 2.30 117.18 1.25L117.18 1.25Q117.18-0.84 118.53-2.02Q119.89-3.19 122.26-3.19L122.26-3.19Q123.63-3.19 124.65-2.88Q125.67-2.57 126.37-2.18L126.37-2.18L125.50 0.10Q124.90-0.24 124.17-0.48Q123.44-0.72 122.48-0.72L122.48-0.72Q120.13-0.72 120.13 0.98L120.13 0.98Q120.13 1.42 120.37 1.74Q120.61 2.06 120.98 2.32Q121.35 2.57 121.82 2.76Q122.29 2.95 122.74 3.12L122.74 3.12Q123.44 3.38 124.20 3.71Q124.95 4.03 125.59 4.57Q126.22 5.11 126.63 5.92Q127.04 6.72 127.04 7.94L127.04 7.94Q127.04 10.03 125.68 11.17Q124.33 12.31 121.57 12.31L121.57 12.31Q119.72 12.31 118.62 11.92Q117.51 11.52 116.96 11.18L116.96 11.18L117.82 8.78Q118.47 9.17 119.37 9.50Q120.27 9.84 121.57 9.84ZM136.30 0.72L139.33 0.72Q138.87 2.30 138.45 3.83Q138.03 5.35 137.58 6.80Q137.12 8.26 136.60 9.65Q136.09 11.04 135.49 12.36L135.49 12.36Q135.03 13.32 134.59 14.02Q134.14 14.71 133.60 15.16Q133.06 15.60 132.40 15.82Q131.74 16.03 130.86 16.03L130.86 16.03Q130.11 16.03 129.50 15.91Q128.89 15.79 128.48 15.60L128.48 15.60L129.03 13.13Q129.51 13.34 129.88 13.43Q130.26 13.51 130.69 13.51L130.69 13.51Q131.55 13.51 132.08 12.94Q132.61 12.36 132.92 11.57L132.92 11.57Q131.86 9.46 130.81 6.73Q129.75 4.01 128.89 0.72L128.89 0.72L131.96 0.72Q132.18 1.61 132.45 2.62Q132.73 3.62 133.04 4.63Q133.35 5.64 133.70 6.61Q134.05 7.58 134.41 8.42L134.41 8.42Q134.65 7.58 134.91 6.61Q135.18 5.64 135.42 4.64Q135.66 3.65 135.88 2.64Q136.11 1.63 136.30 0.72L136.30 0.72ZM148.23 0.60L148.23 0.60Q149.17 0.60 149.77 0.89Q150.37 1.18 150.72 1.75Q151.06 2.33 151.18 3.20Q151.30 4.08 151.30 5.26L151.30 5.26L151.30 12L148.90 12L148.90 5.11Q148.90 4.44 148.82 4.03Q148.74 3.62 148.60 3.41Q148.47 3.19 148.29 3.12Q148.11 3.05 147.92 3.05L147.92 3.05Q147.70 3.05 147.46 3.08Q147.22 3.12 147.03 3.22L147.03 3.22Q147.10 3.67 147.15 4.22Q147.20 4.78 147.20 5.45L147.20 5.45L147.20 7.70L144.80 7.70L144.80 5.11Q144.80 3.96 144.57 3.50Q144.34 3.05 143.84 3.05L143.84 3.05Q143.70 3.05 143.49 3.07Q143.29 3.10 143.10 3.14L143.10 3.14L143.10 12L140.70 12L140.70 1.15Q141.63 0.89 142.54 0.74Q143.46 0.60 144.15 0.60L144.15 0.60Q144.78 0.60 145.27 0.76Q145.76 0.91 146.12 1.27L146.12 1.27Q146.53 1.01 147.08 0.80Q147.63 0.60 148.23 0.60ZM160.28 6.29L160.28 6.29Q160.28 4.70 159.76 3.86Q159.25 3.02 158.19 3.02L158.19 3.02Q157.71 3.02 157.24 3.16Q156.78 3.29 156.44 3.48L156.44 3.48L156.44 9.60Q156.78 9.67 157.15 9.70Q157.52 9.72 157.78 9.72L157.78 9.72Q158.94 9.72 159.61 8.94Q160.28 8.16 160.28 6.29ZM163.28 6.36L163.28 6.36Q163.28 7.70 162.92 8.80Q162.56 9.89 161.86 10.66Q161.17 11.42 160.16 11.84Q159.15 12.26 157.86 12.26L157.86 12.26Q156.70 12.26 155.50 12.10Q154.30 11.93 153.49 11.66L153.49 11.66L153.49-4.15L156.44-4.66L156.44 0.98Q157.06 0.70 157.64 0.59Q158.22 0.48 158.79 0.48L158.79 0.48Q159.90 0.48 160.74 0.90Q161.58 1.32 162.14 2.10Q162.70 2.88 162.99 3.96Q163.28 5.04 163.28 6.36ZM175.33 6.34L175.33 6.34Q175.33 7.68 174.94 8.77Q174.56 9.86 173.86 10.66Q173.17 11.45 172.20 11.88Q171.22 12.31 170.02 12.31L170.02 12.31Q168.82 12.31 167.85 11.88Q166.88 11.45 166.17 10.66Q165.46 9.86 165.08 8.77Q164.70 7.68 164.70 6.34L164.70 6.34Q164.70 5.02 165.09 3.92Q165.49 2.83 166.20 2.05Q166.90 1.27 167.89 0.85Q168.87 0.43 170.02 0.43L170.02 0.43Q171.20 0.43 172.17 0.85Q173.14 1.27 173.85 2.05Q174.56 2.83 174.94 3.92Q175.33 5.02 175.33 6.34ZM167.70 6.36L167.70 6.36Q167.70 7.87 168.24 8.81Q168.78 9.74 169.98 9.74L169.98 9.74Q171.13 9.74 171.72 8.81Q172.30 7.87 172.30 6.36L172.30 6.36Q172.30 4.85 171.76 3.92Q171.22 3 170.02 3L170.02 3Q168.87 3 168.28 3.92Q167.70 4.85 167.70 6.36ZM186.82 9.14L187.21 11.52Q187.14 11.57 186.88 11.69Q186.63 11.81 186.22 11.94Q185.82 12.07 185.23 12.17Q184.64 12.26 183.90 12.26L183.90 12.26Q181.86 12.26 180.92 11.05Q179.98 9.84 179.98 7.51L179.98 7.51L179.98-2.06L176.86-2.06L176.86-4.51L182.94-4.51L182.94 7.73Q182.94 8.88 183.39 9.29Q183.85 9.70 184.54 9.70L184.54 9.70Q185.43 9.70 186.03 9.46Q186.63 9.22 186.82 9.14L186.82 9.14Z"/></g></svg>