<?xml version="1.0" encoding="UTF-8"?>
<svg height="34" width="64.3" version="1.1" xmlns="http://www.w3.org/2000/svg">
    <rect
        height="32"
        width="62.3"
        rx="1"
        ry="1"
        x="1"
        y="1"
        fill="#dc75e5"
        stroke="#701778"
        stroke-width="1"
         />
    <g transform="translate(0, 14)">
        <path fill="#701778" d="M22.46-6.33L22.46-3.92Q21.26-2.08 20.25-0.45Q19.24 1.17 18.37 2.64Q17.50 4.11 16.73 5.47Q15.96 6.83 15.26 8.14L15.26 8.14L22.71 8.14L22.71 11L11.29 11L11.29 9.01Q11.90 7.81 12.60 6.48Q13.30 5.15 14.17 3.64Q15.04 2.12 16.06 0.36Q17.08-1.40 18.32-3.48L18.32-3.48L11.65-3.48L11.65-6.33L22.46-6.33ZM36.52 11L25.51 11L25.51 8.14L29.29 8.14L29.29-3.48L25.51-3.48L25.51-6.33L36.52-6.33L36.52-3.48L32.76-3.48L32.76 8.14L36.52 8.14L36.52 11ZM50.88 8.14L50.88 11L39.99 11L39.99-6.33L43.46-6.33L43.46 8.14L50.88 8.14Z"/>
    </g>
</svg>