<?xml version="1.0" encoding="UTF-8"?>
<svg height="34" width="78.3" version="1.1" xmlns="http://www.w3.org/2000/svg">
    <rect
        height="32"
        width="76.3"
        rx="16"
        ry="16"
        x="1"
        y="1"
        fill="#5A8164"
        stroke="#1b271e"
        stroke-width="1"
         />
    <g transform="translate(0, 12)">
        <path fill="#1b271e" d="M31.78 12L28.62 12L27.92 8.57L23.96 8.57L23.29 12L20.22 12Q21.27 7.61 22.35 4.00Q23.43 0.38 24.44-2.86L24.44-2.86L27.66-2.86Q28.71 0.41 29.76 4.07Q30.80 7.73 31.78 12L31.78 12ZM25.98 0.02L25.98 0.02Q25.74 0.86 25.53 1.62Q25.33 2.38 25.15 3.11Q24.97 3.84 24.81 4.58Q24.66 5.33 24.51 6.12L24.51 6.12L27.42 6.12Q27.27 5.33 27.13 4.58Q26.98 3.84 26.80 3.11Q26.62 2.38 26.42 1.62Q26.22 0.86 25.98 0.02ZM37.38-3.02L37.38-3.02Q40.21-3.02 41.77-1.86Q43.33-0.70 43.33 1.94L43.33 1.94Q43.33 4.61 41.76 5.80Q40.18 6.98 37.30 6.98L37.30 6.98L36.25 6.98L36.25 12L33.30 12L33.30-2.66Q33.73-2.76 34.27-2.83Q34.81-2.90 35.36-2.94Q35.91-2.98 36.44-3Q36.97-3.02 37.38-3.02ZM37.71-0.46L37.71-0.46Q37.45-0.46 36.98-0.44Q36.51-0.43 36.25-0.38L36.25-0.38L36.25 4.42L37.45 4.42Q38.86 4.42 39.58 3.85Q40.30 3.29 40.30 1.92L40.30 1.92Q40.30 0.62 39.60 0.08Q38.89-0.46 37.71-0.46ZM55.04 9.55L55.04 12L45.70 12L45.70-2.86L48.68-2.86L48.68 9.55L55.04 9.55Z"/>
    </g>
</svg>