<?xml version="1.0" encoding="UTF-8"?><svg height="26" width="66.3" version="1.1" xmlns="http://www.w3.org/2000/svg"><!--Created by Josélio de S. C. Júnior - 2021 - https://github.com/joseliojunior --><rect height="24" width="64.3" rx="1" ry="1" x="1" y="1" fill="#5A8164" stroke="#1b271e" stroke-width="1" /><g transform="translate(0, 8)"><path fill="#1b271e" d="M27.86 10L25.74 10L25.28 7.71L22.64 7.71L22.19 10L20.14 10Q20.85 7.07 21.57 4.66Q22.29 2.26 22.96 0.10L22.96 0.10L25.10 0.10Q25.81 2.27 26.50 4.71Q27.20 7.15 27.86 10L27.86 10ZM23.98 2.02L23.98 2.02Q23.82 2.58 23.69 3.08Q23.55 3.58 23.43 4.07Q23.31 4.56 23.21 5.06Q23.10 5.55 23.01 6.08L23.01 6.08L24.94 6.08Q24.85 5.55 24.75 5.06Q24.66 4.56 24.54 4.07Q24.42 3.58 24.28 3.08Q24.14 2.58 23.98 2.02ZM31.58-0.02L31.58-0.02Q33.47-0.02 34.51 0.76Q35.55 1.54 35.55 3.30L35.55 3.30Q35.55 5.07 34.50 5.86Q33.46 6.66 31.54 6.66L31.54 6.66L30.83 6.66L30.83 10L28.86 10L28.86 0.22Q29.15 0.16 29.51 0.11Q29.87 0.06 30.24 0.04Q30.61 0.02 30.96 0Q31.31-0.02 31.58-0.02ZM31.81 1.70L31.81 1.70Q31.63 1.70 31.32 1.70Q31.01 1.71 30.83 1.74L30.83 1.74L30.83 4.94L31.63 4.94Q32.58 4.94 33.06 4.57Q33.54 4.19 33.54 3.28L33.54 3.28Q33.54 2.42 33.06 2.06Q32.59 1.70 31.81 1.70ZM43.36 8.37L43.36 10L37.14 10L37.14 0.10L39.12 0.10L39.12 8.37L43.36 8.37Z"/></g></svg>