<?xml version="1.0" encoding="UTF-8"?>
<svg height="26" width="131.1" version="1.1" xmlns="http://www.w3.org/2000/svg"><!--Created by Josélio de S. C. Júnior - 2021 - https://github.com/joseliojunior -->
    <rect
        height="24"
        width="129.1"
        rx="1"
        ry="1"
        x="1" y="1"
        fill="#C7D7DC"
        stroke="#527884"
        stroke-width="1" />
    <g transform="translate(0, 8)">
        <path fill="#527884" stroke="none" d="M27.86 10L25.74 10L25.28 7.71L22.64 7.71L22.19 10L20.14 10Q20.85 7.07 21.57 4.66Q22.29 2.26 22.96 0.10L22.96 0.10L25.10 0.10Q25.81 2.27 26.50 4.71Q27.20 7.15 27.86 10L27.86 10ZM23.98 2.02L23.98 2.02Q23.82 2.58 23.69 3.08Q23.55 3.58 23.43 4.07Q23.31 4.56 23.21 5.06Q23.10 5.55 23.01 6.08L23.01 6.08L24.94 6.08Q24.85 5.55 24.75 5.06Q24.66 4.56 24.54 4.07Q24.42 3.58 24.28 3.08Q24.14 2.58 23.98 2.02ZM29.01 10L29.01 2.72Q29.54 2.58 30.31 2.45Q31.09 2.32 32 2.32L32 2.32Q32.90 2.32 33.49 2.57Q34.08 2.82 34.42 3.27Q34.77 3.73 34.91 4.36Q35.06 4.99 35.06 5.76L35.06 5.76L35.06 10L33.09 10L33.09 6.02Q33.09 4.96 32.85 4.50Q32.61 4.03 31.87 4.03L31.87 4.03Q31.65 4.03 31.43 4.05Q31.22 4.06 30.98 4.10L30.98 4.10L30.98 10L29.01 10ZM38.53 6L38.53 6Q38.53 6.93 38.86 7.42Q39.20 7.90 39.92 7.90L39.92 7.90Q40.24 7.90 40.52 7.82Q40.80 7.74 41.02 7.62L41.02 7.62L41.02 4Q40.80 3.95 40.62 3.94Q40.45 3.92 40.26 3.92L40.26 3.92Q38.53 3.92 38.53 6ZM43.01 2.72L43.01 9.09Q43.01 10.93 42.12 11.81Q41.23 12.69 39.26 12.69L39.26 12.69Q38.56 12.69 37.91 12.54Q37.26 12.40 36.67 12.21L36.67 12.21L37.04 10.54Q37.50 10.72 38.02 10.87Q38.53 11.02 39.30 11.02L39.30 11.02Q39.81 11.02 40.14 10.90Q40.48 10.78 40.67 10.58Q40.86 10.37 40.94 10.09Q41.02 9.81 41.02 9.49L41.02 9.49L41.02 9.18Q40.61 9.34 40.26 9.42Q39.92 9.50 39.52 9.50L39.52 9.50Q38.05 9.50 37.29 8.58Q36.53 7.65 36.53 6L36.53 6Q36.53 4.14 37.55 3.23Q38.58 2.32 40.34 2.32L40.34 2.32Q41.57 2.32 43.01 2.72L43.01 2.72ZM44.50 6.30L44.50 6.30Q44.50 5.31 44.80 4.56Q45.10 3.81 45.60 3.30Q46.10 2.80 46.74 2.54Q47.38 2.29 48.05 2.29L48.05 2.29Q49.71 2.29 50.58 3.27Q51.44 4.26 51.44 6.14L51.44 6.14Q51.44 6.34 51.43 6.54Q51.42 6.75 51.41 6.88L51.41 6.88L46.53 6.88Q46.53 7.62 47.14 8.04Q47.74 8.46 48.70 8.46L48.70 8.46Q49.30 8.46 49.83 8.34Q50.37 8.21 50.74 8.08L50.74 8.08L51.01 9.76Q50.50 9.94 49.92 10.06Q49.34 10.18 48.62 10.18L48.62 10.18Q47.66 10.18 46.90 9.93Q46.14 9.68 45.61 9.19Q45.07 8.70 44.78 7.98Q44.50 7.26 44.50 6.30ZM46.53 5.52L49.54 5.52Q49.54 5.22 49.46 4.94Q49.38 4.66 49.20 4.43Q49.02 4.21 48.75 4.07Q48.48 3.94 48.08 3.94L48.08 3.94Q47.70 3.94 47.42 4.06Q47.14 4.19 46.95 4.42Q46.77 4.64 46.66 4.93Q46.56 5.22 46.53 5.52L46.53 5.52ZM59.22 8.10L59.47 9.68Q59.42 9.71 59.26 9.79Q59.09 9.87 58.82 9.96Q58.54 10.05 58.15 10.11Q57.76 10.18 57.26 10.18L57.26 10.18Q55.90 10.18 55.28 9.37Q54.66 8.56 54.66 7.01L54.66 7.01L54.66 0.62L52.58 0.62L52.58-1.01L56.62-1.01L56.62 7.15Q56.62 7.92 56.93 8.19Q57.23 8.46 57.70 8.46L57.70 8.46Q58.29 8.46 58.69 8.30Q59.09 8.14 59.22 8.10L59.22 8.10ZM63.71 8.56L63.71 8.56Q64.21 8.56 64.54 8.46Q64.86 8.35 65.06 8.17Q65.25 7.98 65.32 7.75Q65.39 7.52 65.39 7.28L65.39 7.28Q65.39 6.98 65.22 6.74Q65.04 6.50 64.77 6.31Q64.50 6.13 64.16 5.98Q63.82 5.82 63.49 5.70L63.49 5.70Q63.04 5.54 62.56 5.33Q62.08 5.12 61.69 4.80Q61.30 4.48 61.04 4.01Q60.78 3.54 60.78 2.83L60.78 2.83Q60.78 1.44 61.69 0.66Q62.59-0.13 64.18-0.13L64.18-0.13Q65.09-0.13 65.77 0.08Q66.45 0.29 66.91 0.54L66.91 0.54L66.34 2.06Q65.94 1.84 65.45 1.68Q64.96 1.52 64.32 1.52L64.32 1.52Q62.75 1.52 62.75 2.66L62.75 2.66Q62.75 2.94 62.91 3.16Q63.07 3.38 63.32 3.54Q63.57 3.71 63.88 3.84Q64.19 3.97 64.50 4.08L64.50 4.08Q64.96 4.26 65.46 4.47Q65.97 4.69 66.39 5.05Q66.82 5.41 67.09 5.94Q67.36 6.48 67.36 7.30L67.36 7.30Q67.36 8.69 66.46 9.45Q65.55 10.21 63.71 10.21L63.71 10.21Q62.48 10.21 61.74 9.94Q61.01 9.68 60.64 9.46L60.64 9.46L61.22 7.86Q61.65 8.11 62.25 8.34Q62.85 8.56 63.71 8.56ZM68.70 6.24L68.70 6.24Q68.70 5.42 68.96 4.70Q69.22 3.98 69.74 3.45Q70.27 2.91 71.08 2.60Q71.89 2.29 73.01 2.29L73.01 2.29Q73.68 2.29 74.22 2.38Q74.77 2.48 75.33 2.70L75.33 2.70L74.90 4.29Q74.58 4.18 74.18 4.09Q73.79 4 73.18 4L73.18 4Q72.48 4 72.01 4.17Q71.54 4.34 71.25 4.63Q70.96 4.93 70.83 5.34Q70.70 5.76 70.70 6.24L70.70 6.24Q70.70 7.28 71.29 7.87Q71.87 8.46 73.28 8.46L73.28 8.46Q73.74 8.46 74.25 8.40Q74.75 8.34 75.17 8.19L75.17 8.19L75.46 9.81Q75.04 9.97 74.45 10.07Q73.86 10.18 73.06 10.18L73.06 10.18Q71.90 10.18 71.08 9.87Q70.26 9.57 69.73 9.04Q69.20 8.51 68.95 7.79Q68.70 7.07 68.70 6.24ZM83.34 2.66L82.99 4.48Q82.80 4.43 82.54 4.38Q82.27 4.34 82 4.30Q81.73 4.26 81.47 4.24Q81.22 4.22 81.04 4.22L81.04 4.22Q80.62 4.22 80.22 4.26Q79.82 4.30 79.41 4.42L79.41 4.42L79.41 10L77.42 10L77.42 2.98Q78.21 2.69 79.03 2.51Q79.86 2.34 80.96 2.34L80.96 2.34Q81.12 2.34 81.42 2.35Q81.71 2.37 82.05 2.41Q82.38 2.45 82.73 2.50Q83.07 2.56 83.34 2.66L83.34 2.66ZM88.54 0.32L88.54 0.32Q88.54 0.90 88.18 1.23Q87.81 1.57 87.30 1.57L87.30 1.57Q86.78 1.57 86.42 1.23Q86.06 0.90 86.06 0.32L86.06 0.32Q86.06-0.27 86.42-0.61Q86.78-0.94 87.30-0.94L87.30-0.94Q87.81-0.94 88.18-0.61Q88.54-0.27 88.54 0.32ZM91.22 8.10L91.47 9.68Q90.86 9.97 90.33 10.07Q89.79 10.18 89.34 10.18L89.34 10.18Q88.58 10.18 88.06 9.95Q87.54 9.73 87.22 9.30Q86.91 8.88 86.78 8.27Q86.66 7.66 86.66 6.88L86.66 6.88L86.66 4.11L84.58 4.11L84.58 2.48L88.62 2.48L88.62 7.14Q88.62 7.81 88.87 8.14Q89.12 8.46 89.70 8.46L89.70 8.46Q89.97 8.46 90.35 8.39Q90.74 8.32 91.22 8.10L91.22 8.10ZM97.50 6.30L97.50 6.30Q97.50 5.30 97.10 4.65Q96.70 4 95.89 4L95.89 4Q95.66 4 95.41 4.02Q95.15 4.05 94.98 4.06L94.98 4.06L94.98 8.19Q95.17 8.32 95.49 8.40Q95.81 8.48 96.13 8.48L96.13 8.48Q96.83 8.48 97.17 7.91Q97.50 7.34 97.50 6.30ZM99.50 6.24L99.50 6.24Q99.50 7.10 99.31 7.83Q99.12 8.56 98.75 9.08Q98.38 9.60 97.82 9.89Q97.26 10.18 96.53 10.18L96.53 10.18Q95.78 10.18 94.98 9.81L94.98 9.81L94.98 12.64L93.01 12.64L93.01 2.72Q93.55 2.54 94.34 2.43Q95.14 2.32 95.90 2.32L95.90 2.32Q97.65 2.32 98.58 3.38Q99.50 4.43 99.50 6.24ZM102.29 7.20L102.29 4.11L100.58 4.11L100.58 2.48L102.29 2.48L102.29 0.59L104.26 0.27L104.26 2.48L107.41 2.48L107.41 4.11L104.26 4.11L104.26 7.15Q104.26 7.57 104.34 7.82Q104.42 8.08 104.56 8.22Q104.70 8.37 104.91 8.42Q105.12 8.46 105.38 8.46L105.38 8.46Q105.65 8.46 105.88 8.45Q106.11 8.43 106.33 8.39Q106.54 8.35 106.78 8.27Q107.01 8.19 107.28 8.06L107.28 8.06L107.55 9.76Q107.01 9.98 106.38 10.08Q105.74 10.18 105.15 10.18L105.15 10.18Q104.46 10.18 103.94 10.06Q103.41 9.95 103.04 9.63Q102.67 9.31 102.48 8.73Q102.29 8.14 102.29 7.20L102.29 7.20Z"/>
    </g>
</svg>