<?xml version="1.0" encoding="UTF-8"?>
<svg height="34" width="175.1" version="1.1" xmlns="http://www.w3.org/2000/svg">
    <rect
        height="32"
        width="173.1"
        rx="1"
        ry="1"
        x="1"
        y="1"
        fill="#C7D7DC"
        stroke="#527884"
        stroke-width="1"
         />
    <g transform="translate(0, 12)">
        <path fill="#527884" d="M31.78 12L28.62 12L27.92 8.57L23.96 8.57L23.29 12L20.22 12Q21.27 7.61 22.35 4.00Q23.43 0.38 24.44-2.86L24.44-2.86L27.66-2.86Q28.71 0.41 29.76 4.07Q30.80 7.73 31.78 12L31.78 12ZM25.98 0.02L25.98 0.02Q25.74 0.86 25.53 1.62Q25.33 2.38 25.15 3.11Q24.97 3.84 24.81 4.58Q24.66 5.33 24.51 6.12L24.51 6.12L27.42 6.12Q27.27 5.33 27.13 4.58Q26.98 3.84 26.80 3.11Q26.62 2.38 26.42 1.62Q26.22 0.86 25.98 0.02ZM33.51 12L33.51 1.08Q34.30 0.86 35.47 0.67Q36.63 0.48 38 0.48L38 0.48Q39.34 0.48 40.23 0.85Q41.12 1.22 41.64 1.91Q42.15 2.59 42.37 3.54Q42.58 4.49 42.58 5.64L42.58 5.64L42.58 12L39.63 12L39.63 6.02Q39.63 4.44 39.27 3.74Q38.91 3.05 37.81 3.05L37.81 3.05Q37.47 3.05 37.15 3.07Q36.82 3.10 36.46 3.14L36.46 3.14L36.46 12L33.51 12ZM47.79 6L47.79 6Q47.79 7.39 48.30 8.12Q48.80 8.86 49.88 8.86L49.88 8.86Q50.36 8.86 50.78 8.74Q51.20 8.62 51.54 8.42L51.54 8.42L51.54 3Q51.20 2.93 50.94 2.90Q50.67 2.88 50.38 2.88L50.38 2.88Q47.79 2.88 47.79 6ZM54.51 1.08L54.51 10.63Q54.51 13.39 53.18 14.71Q51.85 16.03 48.90 16.03L48.90 16.03Q47.84 16.03 46.87 15.82Q45.90 15.60 45.01 15.31L45.01 15.31L45.56 12.82Q46.26 13.08 47.02 13.31Q47.79 13.54 48.94 13.54L48.94 13.54Q49.71 13.54 50.22 13.36Q50.72 13.18 51.01 12.86Q51.30 12.55 51.42 12.13Q51.54 11.71 51.54 11.23L51.54 11.23L51.54 10.78Q50.91 11.02 50.40 11.14Q49.88 11.26 49.28 11.26L49.28 11.26Q47.07 11.26 45.93 9.86Q44.79 8.47 44.79 6L44.79 6Q44.79 3.22 46.33 1.85Q47.86 0.48 50.50 0.48L50.50 0.48Q52.35 0.48 54.51 1.08L54.51 1.08ZM56.74 6.46L56.74 6.46Q56.74 4.97 57.20 3.84Q57.66 2.71 58.40 1.96Q59.14 1.20 60.10 0.82Q61.06 0.43 62.07 0.43L62.07 0.43Q64.57 0.43 65.86 1.91Q67.16 3.38 67.16 6.22L67.16 6.22Q67.16 6.50 67.15 6.82Q67.14 7.13 67.11 7.32L67.11 7.32L59.79 7.32Q59.79 8.42 60.70 9.06Q61.62 9.70 63.06 9.70L63.06 9.70Q63.94 9.70 64.75 9.50Q65.55 9.31 66.10 9.12L66.10 9.12L66.51 11.64Q65.74 11.90 64.88 12.08Q64.02 12.26 62.94 12.26L62.94 12.26Q61.50 12.26 60.36 11.89Q59.22 11.52 58.41 10.79Q57.61 10.06 57.18 8.98Q56.74 7.90 56.74 6.46ZM59.79 5.28L64.30 5.28Q64.30 4.82 64.18 4.40Q64.06 3.98 63.80 3.65Q63.54 3.31 63.13 3.11Q62.72 2.90 62.12 2.90L62.12 2.90Q61.54 2.90 61.12 3.10Q60.70 3.29 60.43 3.62Q60.15 3.96 60.00 4.39Q59.84 4.82 59.79 5.28L59.79 5.28ZM78.82 9.14L79.21 11.52Q79.14 11.57 78.88 11.69Q78.63 11.81 78.22 11.94Q77.82 12.07 77.23 12.17Q76.64 12.26 75.90 12.26L75.90 12.26Q73.86 12.26 72.92 11.05Q71.98 9.84 71.98 7.51L71.98 7.51L71.98-2.06L68.86-2.06L68.86-4.51L74.94-4.51L74.94 7.73Q74.94 8.88 75.39 9.29Q75.85 9.70 76.54 9.70L76.54 9.70Q77.43 9.70 78.03 9.46Q78.63 9.22 78.82 9.14L78.82 9.14ZM85.57 9.84L85.57 9.84Q86.31 9.84 86.80 9.68Q87.30 9.53 87.58 9.25Q87.87 8.98 87.98 8.63Q88.09 8.28 88.09 7.92L88.09 7.92Q88.09 7.46 87.82 7.10Q87.56 6.74 87.15 6.47Q86.74 6.19 86.24 5.96Q85.74 5.74 85.23 5.54L85.23 5.54Q84.56 5.30 83.84 4.99Q83.12 4.68 82.53 4.20Q81.94 3.72 81.56 3.01Q81.18 2.30 81.18 1.25L81.18 1.25Q81.18-0.84 82.53-2.02Q83.89-3.19 86.26-3.19L86.26-3.19Q87.63-3.19 88.65-2.88Q89.67-2.57 90.37-2.18L90.37-2.18L89.50 0.10Q88.90-0.24 88.17-0.48Q87.44-0.72 86.48-0.72L86.48-0.72Q84.13-0.72 84.13 0.98L84.13 0.98Q84.13 1.42 84.37 1.74Q84.61 2.06 84.98 2.32Q85.35 2.57 85.82 2.76Q86.29 2.95 86.74 3.12L86.74 3.12Q87.44 3.38 88.20 3.71Q88.95 4.03 89.59 4.57Q90.22 5.11 90.63 5.92Q91.04 6.72 91.04 7.94L91.04 7.94Q91.04 10.03 89.68 11.17Q88.33 12.31 85.57 12.31L85.57 12.31Q83.72 12.31 82.62 11.92Q81.51 11.52 80.96 11.18L80.96 11.18L81.82 8.78Q82.47 9.17 83.37 9.50Q84.27 9.84 85.57 9.84ZM93.06 6.36L93.06 6.36Q93.06 5.14 93.44 4.06Q93.82 2.98 94.62 2.17Q95.41 1.37 96.62 0.90Q97.83 0.43 99.51 0.43L99.51 0.43Q100.52 0.43 101.34 0.58Q102.15 0.72 102.99 1.06L102.99 1.06L102.34 3.43Q101.86 3.26 101.28 3.13Q100.69 3 99.78 3L99.78 3Q98.72 3 98.01 3.25Q97.30 3.50 96.87 3.95Q96.44 4.39 96.25 5.02Q96.06 5.64 96.06 6.36L96.06 6.36Q96.06 7.92 96.93 8.81Q97.81 9.70 99.92 9.70L99.92 9.70Q100.62 9.70 101.37 9.60Q102.13 9.50 102.75 9.29L102.75 9.29L103.18 11.71Q102.56 11.95 101.67 12.11Q100.78 12.26 99.58 12.26L99.58 12.26Q97.86 12.26 96.62 11.81Q95.38 11.35 94.59 10.56Q93.80 9.77 93.43 8.69Q93.06 7.61 93.06 6.36ZM115.02 0.98L114.49 3.72Q114.20 3.65 113.80 3.58Q113.41 3.50 113 3.44Q112.59 3.38 112.21 3.36Q111.82 3.34 111.56 3.34L111.56 3.34Q110.94 3.34 110.34 3.40Q109.74 3.46 109.11 3.62L109.11 3.62L109.11 12L106.14 12L106.14 1.46Q107.31 1.03 108.55 0.77Q109.78 0.50 111.44 0.50L111.44 0.50Q111.68 0.50 112.12 0.53Q112.57 0.55 113.07 0.61Q113.58 0.67 114.09 0.76Q114.61 0.84 115.02 0.98L115.02 0.98ZM122.82-2.52L122.82-2.52Q122.82-1.66 122.26-1.15Q121.71-0.65 120.94-0.65L120.94-0.65Q120.18-0.65 119.64-1.15Q119.10-1.66 119.10-2.52L119.10-2.52Q119.10-3.41 119.64-3.91Q120.18-4.42 120.94-4.42L120.94-4.42Q121.71-4.42 122.26-3.91Q122.82-3.41 122.82-2.52ZM126.82 9.14L127.21 11.52Q126.30 11.95 125.49 12.11Q124.69 12.26 124.02 12.26L124.02 12.26Q122.86 12.26 122.08 11.93Q121.30 11.59 120.84 10.96Q120.37 10.32 120.18 9.41Q119.98 8.50 119.98 7.32L119.98 7.32L119.98 3.17L116.86 3.17L116.86 0.72L122.94 0.72L122.94 7.70Q122.94 8.71 123.31 9.20Q123.68 9.70 124.54 9.70L124.54 9.70Q124.95 9.70 125.53 9.59Q126.10 9.48 126.82 9.14L126.82 9.14ZM136.26 6.46L136.26 6.46Q136.26 4.94 135.66 3.97Q135.06 3 133.83 3L133.83 3Q133.50 3 133.11 3.04Q132.73 3.07 132.46 3.10L132.46 3.10L132.46 9.29Q132.75 9.48 133.23 9.60Q133.71 9.72 134.19 9.72L134.19 9.72Q135.25 9.72 135.75 8.87Q136.26 8.02 136.26 6.46ZM139.26 6.36L139.26 6.36Q139.26 7.66 138.97 8.75Q138.68 9.84 138.13 10.62Q137.58 11.40 136.74 11.83Q135.90 12.26 134.79 12.26L134.79 12.26Q133.66 12.26 132.46 11.71L132.46 11.71L132.46 15.96L129.51 15.96L129.51 1.08Q130.33 0.82 131.52 0.65Q132.70 0.48 133.86 0.48L133.86 0.48Q136.47 0.48 137.86 2.06Q139.26 3.65 139.26 6.36ZM143.43 7.80L143.43 3.17L140.86 3.17L140.86 0.72L143.43 0.72L143.43-2.11L146.38-2.59L146.38 0.72L151.11 0.72L151.11 3.17L146.38 3.17L146.38 7.73Q146.38 8.35 146.50 8.74Q146.62 9.12 146.84 9.34Q147.06 9.55 147.37 9.62Q147.68 9.70 148.06 9.70L148.06 9.70Q148.47 9.70 148.82 9.67Q149.17 9.65 149.49 9.59Q149.82 9.53 150.16 9.41Q150.51 9.29 150.92 9.10L150.92 9.10L151.33 11.64Q150.51 11.98 149.56 12.12Q148.62 12.26 147.73 12.26L147.73 12.26Q146.70 12.26 145.90 12.10Q145.11 11.93 144.56 11.45Q144.01 10.97 143.72 10.09Q143.43 9.22 143.43 7.80L143.43 7.80Z"/>
    </g>
</svg>