<?xml version="1.0" encoding="UTF-8"?>
<svg height="34" width="148.89999999999998" version="1.1" xmlns="http://www.w3.org/2000/svg">
    <rect
        height="32"
        width="146.89999999999998"
        rx="14"
        ry="14"
        x="1"
        y="1"
        fill="#00a6a6"
        stroke="#42ffff"
        stroke-width="1"
         />
    <g transform="translate(0, 14)">
        <path fill="#42ffff" d="M11.65-6.33L14.51-6.33Q14.70-5.74 15.00-4.82Q15.29-3.90 15.63-2.83Q15.96-1.77 16.30-0.68Q16.64 0.42 16.94 1.34L16.94 1.34Q17.28 0.30 17.64-0.80Q18.01-1.91 18.34-2.93Q18.68-3.95 18.96-4.85Q19.24-5.74 19.46-6.33L19.46-6.33L22.32-6.33Q22.52-4.06 22.70-1.91Q22.88 0.25 23.01 2.36Q23.13 4.48 23.22 6.62Q23.30 8.76 23.36 11L23.36 11L20.19 11L20.36-2.47L18.23 4.87L15.71 4.87L13.67-2.47L13.81 11L10.64 11Q10.73 8.87 10.83 6.58Q10.92 4.28 11.04 2.01Q11.15-0.26 11.30-2.38Q11.46-4.51 11.65-6.33L11.65-6.33ZM37.75 11L34.05 11L33.24 7.00L28.62 7.00L27.84 11L24.25 11Q25.48 5.88 26.74 1.66Q28.00-2.55 29.18-6.33L29.18-6.33L32.93-6.33Q34.16-2.52 35.38 1.75Q36.60 6.02 37.75 11L37.75 11ZM30.97-2.97L30.97-2.97Q30.69-1.99 30.45-1.11Q30.22-0.23 30.01 0.63Q29.80 1.48 29.61 2.35Q29.43 3.22 29.26 4.14L29.26 4.14L32.65 4.14Q32.48 3.22 32.32 2.35Q32.15 1.48 31.94 0.63Q31.73-0.23 31.49-1.11Q31.25-1.99 30.97-2.97ZM51.69 11L47.97 11Q47.44 9.57 46.67 7.84Q45.90 6.10 45.06 4.36L45.06 4.36Q44.24 6.02 43.43 7.79Q42.62 9.57 42.03 11L42.03 11L38.31 11Q38.59 10.24 39.13 9.18Q39.68 8.12 40.34 6.88Q41.00 5.65 41.72 4.35Q42.45 3.05 43.12 1.84L43.12 1.84L38.59-6.33L42.31-6.33L45.06-0.79L47.94-6.33L51.41-6.33L46.99 1.76Q47.74 2.96 48.47 4.28Q49.20 5.60 49.83 6.84Q50.46 8.09 50.94 9.17Q51.41 10.24 51.69 11L51.69 11ZM58.50 8.48L58.50 8.48Q59.36 8.48 59.94 8.30Q60.51 8.12 60.85 7.79Q61.18 7.47 61.31 7.07Q61.44 6.66 61.44 6.24L61.44 6.24Q61.44 5.71 61.13 5.29Q60.82 4.87 60.34 4.55Q59.87 4.22 59.28 3.96Q58.69 3.69 58.10 3.47L58.10 3.47Q57.32 3.19 56.48 2.82Q55.64 2.46 54.95 1.90Q54.27 1.34 53.82 0.51Q53.37-0.31 53.37-1.54L53.37-1.54Q53.37-3.98 54.95-5.35Q56.54-6.72 59.31-6.72L59.31-6.72Q60.90-6.72 62.09-6.36Q63.28-6.00 64.10-5.55L64.10-5.55L63.09-2.89Q62.39-3.28 61.53-3.56Q60.68-3.84 59.56-3.84L59.56-3.84Q56.82-3.84 56.82-1.85L56.82-1.85Q56.82-1.35 57.10-0.97Q57.38-0.59 57.81-0.30Q58.24-0.00 58.79 0.22Q59.34 0.44 59.87 0.64L59.87 0.64Q60.68 0.95 61.56 1.33Q62.44 1.70 63.19 2.33Q63.93 2.96 64.40 3.90Q64.88 4.84 64.88 6.27L64.88 6.27Q64.88 8.70 63.30 10.03Q61.72 11.36 58.50 11.36L58.50 11.36Q56.34 11.36 55.05 10.90Q53.76 10.44 53.12 10.05L53.12 10.05L54.13 7.25Q54.88 7.70 55.93 8.09Q56.98 8.48 58.50 8.48ZM67.23 4.42L67.23 4.42Q67.23 2.99 67.68 1.73Q68.13 0.47 69.05-0.47Q69.98-1.40 71.39-1.95Q72.80-2.50 74.76-2.50L74.76-2.50Q75.94-2.50 76.89-2.33Q77.84-2.16 78.82-1.77L78.82-1.77L78.07 1.00Q77.51 0.81 76.82 0.65Q76.14 0.50 75.07 0.50L75.07 0.50Q73.84 0.50 73.01 0.79Q72.19 1.09 71.68 1.61Q71.18 2.12 70.96 2.85Q70.73 3.58 70.73 4.42L70.73 4.42Q70.73 6.24 71.75 7.28Q72.78 8.31 75.24 8.31L75.24 8.31Q76.05 8.31 76.93 8.20Q77.82 8.09 78.54 7.84L78.54 7.84L79.05 10.66Q78.32 10.94 77.28 11.13Q76.25 11.31 74.85 11.31L74.85 11.31Q72.83 11.31 71.39 10.78Q69.95 10.24 69.02 9.32Q68.10 8.40 67.67 7.14Q67.23 5.88 67.23 4.42ZM92.85-1.85L92.24 1.34Q91.90 1.26 91.44 1.17Q90.98 1.09 90.50 1.02Q90.02 0.95 89.58 0.92Q89.13 0.89 88.82 0.89L88.82 0.89Q88.09 0.89 87.39 0.96Q86.69 1.03 85.96 1.23L85.96 1.23L85.96 11L82.49 11L82.49-1.29Q83.86-1.80 85.31-2.10Q86.75-2.41 88.68-2.41L88.68-2.41Q88.96-2.41 89.48-2.38Q90.00-2.36 90.58-2.29Q91.17-2.22 91.77-2.12Q92.38-2.02 92.85-1.85L92.85-1.85ZM101.95-5.94L101.95-5.94Q101.95-4.93 101.31-4.34Q100.66-3.76 99.77-3.76L99.77-3.76Q98.87-3.76 98.24-4.34Q97.61-4.93 97.61-5.94L97.61-5.94Q97.61-6.98 98.24-7.56Q98.87-8.15 99.77-8.15L99.77-8.15Q100.66-8.15 101.31-7.56Q101.95-6.98 101.95-5.94ZM106.63 7.67L107.08 10.44Q106.01 10.94 105.07 11.13Q104.14 11.31 103.35 11.31L103.35 11.31Q102.01 11.31 101.10 10.92Q100.19 10.52 99.64 9.78Q99.10 9.04 98.87 7.98Q98.65 6.91 98.65 5.54L98.65 5.54L98.65 0.70L95.01 0.70L95.01-2.16L102.09-2.16L102.09 5.99Q102.09 7.16 102.53 7.74Q102.96 8.31 103.97 8.31L103.97 8.31Q104.44 8.31 105.12 8.19Q105.79 8.06 106.63 7.67L106.63 7.67ZM117.63 4.53L117.63 4.53Q117.63 2.77 116.93 1.63Q116.23 0.50 114.80 0.50L114.80 0.50Q114.41 0.50 113.96 0.54Q113.52 0.58 113.21 0.61L113.21 0.61L113.21 7.84Q113.54 8.06 114.10 8.20Q114.66 8.34 115.22 8.34L115.22 8.34Q116.46 8.34 117.04 7.35Q117.63 6.35 117.63 4.53ZM121.13 4.42L121.13 4.42Q121.13 5.93 120.80 7.21Q120.46 8.48 119.82 9.39Q119.17 10.30 118.19 10.80Q117.21 11.31 115.92 11.31L115.92 11.31Q114.61 11.31 113.21 10.66L113.21 10.66L113.21 15.62L109.76 15.62L109.76-1.74Q110.72-2.05 112.10-2.24Q113.49-2.44 114.83-2.44L114.83-2.44Q117.88-2.44 119.51-0.59Q121.13 1.26 121.13 4.42ZM126.00 6.10L126.00 0.70L123.01 0.70L123.01-2.16L126.00-2.16L126.00-5.46L129.45-6.02L129.45-2.16L134.96-2.16L134.96 0.70L129.45 0.70L129.45 6.02Q129.45 6.74 129.59 7.19Q129.73 7.64 129.98 7.89Q130.23 8.14 130.60 8.23Q130.96 8.31 131.41 8.31L131.41 8.31Q131.88 8.31 132.29 8.28Q132.70 8.26 133.07 8.19Q133.45 8.12 133.86 7.98Q134.26 7.84 134.74 7.61L134.74 7.61L135.22 10.58Q134.26 10.97 133.16 11.14Q132.05 11.31 131.02 11.31L131.02 11.31Q129.81 11.31 128.89 11.11Q127.96 10.92 127.32 10.36Q126.68 9.80 126.34 8.77Q126.00 7.75 126.00 6.10L126.00 6.10Z"/>
    </g>
</svg>