<?xml version="1.0" encoding="UTF-8"?>
<svg height="26" width="74.4" version="1.1" xmlns="http://www.w3.org/2000/svg"><!--Created by Josélio de S. C. Júnior - 2021 - https://github.com/joseliojunior -->
    <rect
        height="24"
        width="72.4"
        rx="1"
        ry="1"
        x="1" y="1"
        fill="#7e858d"
        stroke="#35383b"
        stroke-width="1" />
    <g transform="translate(0, 8)">
        <path fill="#35383b" d="M20.94 0.10L22.58 0.10Q22.69 0.43 22.86 0.96Q23.02 1.49 23.22 2.10Q23.41 2.70 23.60 3.33Q23.79 3.95 23.97 4.48L23.97 4.48Q24.16 3.89 24.37 3.26Q24.58 2.62 24.77 2.04Q24.96 1.46 25.12 0.94Q25.28 0.43 25.41 0.10L25.41 0.10L27.04 0.10Q27.15 1.39 27.26 2.62Q27.36 3.86 27.43 5.06Q27.50 6.27 27.55 7.50Q27.60 8.72 27.63 10L27.63 10L25.82 10L25.92 2.30L24.70 6.50L23.26 6.50L22.10 2.30L22.18 10L20.37 10Q20.42 8.78 20.47 7.47Q20.53 6.16 20.59 4.86Q20.66 3.57 20.74 2.35Q20.83 1.14 20.94 0.10L20.94 0.10ZM32.02 8.59L32.02 8.59Q32.34 8.59 32.64 8.58Q32.94 8.58 33.17 8.54L33.17 8.54L33.17 6.82Q32.98 6.78 32.70 6.76Q32.43 6.74 32.21 6.74L32.21 6.74Q31.90 6.74 31.62 6.78Q31.33 6.82 31.11 6.91Q30.90 7.01 30.77 7.18Q30.64 7.36 30.64 7.65L30.64 7.65Q30.64 8.16 31.02 8.38Q31.41 8.59 32.02 8.59ZM31.84 2.29L31.84 2.29Q32.77 2.29 33.38 2.50Q34 2.72 34.37 3.11Q34.74 3.50 34.90 4.07Q35.06 4.64 35.06 5.34L35.06 5.34L35.06 9.82Q34.62 9.92 33.78 10.05Q32.93 10.18 31.87 10.18L31.87 10.18Q31.15 10.18 30.57 10.05Q29.98 9.92 29.57 9.62Q29.15 9.33 28.93 8.86Q28.70 8.38 28.70 7.70L28.70 7.70Q28.70 7.04 28.96 6.59Q29.22 6.14 29.65 5.87Q30.08 5.60 30.64 5.48Q31.20 5.36 31.81 5.36L31.81 5.36Q32.58 5.36 33.17 5.49L33.17 5.49L33.17 5.25Q33.17 4.69 32.82 4.31Q32.46 3.94 31.60 3.94L31.60 3.94Q31.04 3.94 30.52 4.02Q30 4.10 29.68 4.21L29.68 4.21L29.41 2.62Q29.78 2.50 30.45 2.39Q31.12 2.29 31.84 2.29ZM38.99-1.10L38.99 5.46Q39.28 5.12 39.58 4.74Q39.87 4.37 40.15 3.97Q40.43 3.57 40.69 3.19Q40.94 2.82 41.14 2.48L41.14 2.48L43.50 2.48Q43.22 2.85 42.85 3.28Q42.48 3.71 42.09 4.16Q41.70 4.61 41.30 5.02Q40.91 5.44 40.59 5.79L40.59 5.79Q40.99 6.18 41.46 6.71Q41.92 7.25 42.37 7.82Q42.82 8.40 43.19 8.98Q43.57 9.55 43.79 10L43.79 10L41.54 10Q41.34 9.60 41.03 9.10Q40.72 8.59 40.37 8.10Q40.02 7.62 39.66 7.18Q39.30 6.74 38.99 6.45L38.99 6.45L38.99 10L37.01 10L37.01-0.77L38.99-1.10ZM51.55 6.22L51.55 6.22Q51.55 7.12 51.30 7.85Q51.04 8.58 50.58 9.10Q50.11 9.63 49.46 9.92Q48.82 10.21 48.02 10.21L48.02 10.21Q47.22 10.21 46.57 9.92Q45.92 9.63 45.45 9.10Q44.98 8.58 44.72 7.85Q44.46 7.12 44.46 6.22L44.46 6.22Q44.46 5.34 44.73 4.62Q44.99 3.89 45.46 3.37Q45.94 2.85 46.59 2.57Q47.25 2.29 48.02 2.29L48.02 2.29Q48.80 2.29 49.45 2.57Q50.10 2.85 50.57 3.37Q51.04 3.89 51.30 4.62Q51.55 5.34 51.55 6.22ZM46.46 6.24L46.46 6.24Q46.46 7.25 46.82 7.87Q47.18 8.50 47.98 8.50L47.98 8.50Q48.75 8.50 49.14 7.87Q49.54 7.25 49.54 6.24L49.54 6.24Q49.54 5.23 49.18 4.62Q48.82 4 48.02 4L48.02 4Q47.25 4 46.86 4.62Q46.46 5.23 46.46 6.24Z"/>
    </g>
</svg>