<?xml version="1.0" encoding="UTF-8"?>
<svg height="34" width="102.5" version="1.1" xmlns="http://www.w3.org/2000/svg"><!--Created by Josélio de S. C. Júnior - 2021 - https://github.com/joseliojunior -->
    <rect
        height="32"
        width="100.5"
        rx="16"
        ry="16"
        x="1" y="1"
        fill="#007800"
        stroke="#14ff14"
        stroke-width="1" />
    <g transform="translate(0, 12)">
        <path fill="#14ff14" d="M21.42-2.86L23.86-2.86Q24.03-2.35 24.28-1.56Q24.54-0.77 24.82 0.14Q25.11 1.06 25.40 1.99Q25.69 2.93 25.95 3.72L25.95 3.72Q26.24 2.83 26.55 1.88Q26.86 0.94 27.15 0.06Q27.44-0.82 27.68-1.58Q27.92-2.35 28.11-2.86L28.11-2.86L30.56-2.86Q30.73-0.91 30.88 0.94Q31.04 2.78 31.15 4.60Q31.26 6.41 31.33 8.24Q31.40 10.08 31.45 12L31.45 12L28.74 12L28.88 0.46L27.06 6.74L24.90 6.74L23.14 0.46L23.26 12L20.55 12Q20.62 10.18 20.71 8.21Q20.79 6.24 20.89 4.30Q20.98 2.35 21.12 0.53Q21.25-1.30 21.42-2.86L21.42-2.86ZM32.74 6.46L32.74 6.46Q32.74 4.97 33.20 3.84Q33.66 2.71 34.40 1.96Q35.14 1.20 36.10 0.82Q37.06 0.43 38.07 0.43L38.07 0.43Q40.57 0.43 41.86 1.91Q43.16 3.38 43.16 6.22L43.16 6.22Q43.16 6.50 43.15 6.82Q43.14 7.13 43.11 7.32L43.11 7.32L35.79 7.32Q35.79 8.42 36.70 9.06Q37.62 9.70 39.06 9.70L39.06 9.70Q39.94 9.70 40.75 9.50Q41.55 9.31 42.10 9.12L42.10 9.12L42.51 11.64Q41.74 11.90 40.88 12.08Q40.02 12.26 38.94 12.26L38.94 12.26Q37.50 12.26 36.36 11.89Q35.22 11.52 34.41 10.79Q33.61 10.06 33.18 8.98Q32.74 7.90 32.74 6.46ZM35.79 5.28L40.30 5.28Q40.30 4.82 40.18 4.40Q40.06 3.98 39.80 3.65Q39.54 3.31 39.13 3.11Q38.72 2.90 38.12 2.90L38.12 2.90Q37.54 2.90 37.12 3.10Q36.70 3.29 36.43 3.62Q36.15 3.96 36.00 4.39Q35.84 4.82 35.79 5.28L35.79 5.28ZM49.47 9.77L49.47 9.77Q50.55 9.77 51.13 9.61Q51.70 9.46 51.70 8.98L51.70 8.98Q51.70 8.66 51.52 8.45Q51.34 8.23 51.02 8.08Q50.70 7.92 50.28 7.78Q49.86 7.63 49.40 7.49L49.40 7.49Q48.75 7.30 48.08 7.04Q47.41 6.79 46.86 6.41Q46.30 6.02 45.94 5.44Q45.58 4.85 45.58 3.96L45.58 3.96Q45.58 3.24 45.86 2.60Q46.14 1.97 46.72 1.48Q47.31 0.98 48.22 0.71Q49.14 0.43 50.41 0.43L50.41 0.43Q51.51 0.43 52.46 0.60Q53.41 0.77 54.10 1.08L54.10 1.08L53.65 3.58Q53.24 3.46 52.38 3.18Q51.51 2.90 50.43 2.90L50.43 2.90Q49.30 2.90 48.91 3.18Q48.51 3.46 48.51 3.77L48.51 3.77Q48.51 4.03 48.69 4.24Q48.87 4.44 49.17 4.61Q49.47 4.78 49.87 4.93Q50.26 5.09 50.72 5.23L50.72 5.23Q51.37 5.45 52.06 5.71Q52.76 5.98 53.32 6.37Q53.89 6.77 54.25 7.38Q54.61 7.99 54.61 8.88L54.61 8.88Q54.61 9.58 54.34 10.20Q54.08 10.82 53.47 11.28Q52.86 11.74 51.87 12Q50.89 12.26 49.45 12.26L49.45 12.26Q47.98 12.26 46.95 11.93Q45.92 11.59 45.30 11.33L45.30 11.33L45.75 8.86Q46.59 9.19 47.54 9.48Q48.49 9.77 49.47 9.77ZM67.33 6.34L67.33 6.34Q67.33 7.68 66.94 8.77Q66.56 9.86 65.86 10.66Q65.17 11.45 64.20 11.88Q63.22 12.31 62.02 12.31L62.02 12.31Q60.82 12.31 59.85 11.88Q58.88 11.45 58.17 10.66Q57.46 9.86 57.08 8.77Q56.70 7.68 56.70 6.34L56.70 6.34Q56.70 5.02 57.09 3.92Q57.49 2.83 58.20 2.05Q58.90 1.27 59.89 0.85Q60.87 0.43 62.02 0.43L62.02 0.43Q63.20 0.43 64.17 0.85Q65.14 1.27 65.85 2.05Q66.56 2.83 66.94 3.92Q67.33 5.02 67.33 6.34ZM59.70 6.36L59.70 6.36Q59.70 7.87 60.24 8.81Q60.78 9.74 61.98 9.74L61.98 9.74Q63.13 9.74 63.72 8.81Q64.30 7.87 64.30 6.36L64.30 6.36Q64.30 4.85 63.76 3.92Q63.22 3 62.02 3L62.02 3Q60.87 3 60.28 3.92Q59.70 4.85 59.70 6.36ZM69.51 12L69.51 1.08Q70.30 0.86 71.47 0.67Q72.63 0.48 74 0.48L74 0.48Q75.34 0.48 76.23 0.85Q77.12 1.22 77.64 1.91Q78.15 2.59 78.37 3.54Q78.58 4.49 78.58 5.64L78.58 5.64L78.58 12L75.63 12L75.63 6.02Q75.63 4.44 75.27 3.74Q74.91 3.05 73.81 3.05L73.81 3.05Q73.47 3.05 73.15 3.07Q72.82 3.10 72.46 3.14L72.46 3.14L72.46 12L69.51 12Z"/>
    </g>
</svg>