<?xml version="1.0" encoding="UTF-8"?>
<svg height="34" width="90.4" version="1.1" xmlns="http://www.w3.org/2000/svg"><!--Created by Josélio de S. C. Júnior - 2021 - https://github.com/joseliojunior -->
    <rect
        height="32"
        width="88.4"
        rx="1"
        ry="1"
        x="1" y="1"
        fill="#4aae47"
        stroke="#1c411b"
        stroke-width="1" />
    <g transform="translate(0, 12)">
        <path fill="#1c411b" d="M26.31 12L23.34 12L23.34 3.17L20.86 3.17L20.86 0.72L23.34 0.72L23.34 0.07Q23.34-1.30 23.73-2.20Q24.13-3.10 24.80-3.64Q25.47-4.18 26.34-4.40Q27.20-4.63 28.11-4.63L28.11-4.63Q29.05-4.63 30.03-4.46Q31.02-4.30 31.81-3.91L31.81-3.91L31.30-1.51Q30.75-1.70 29.92-1.91Q29.10-2.11 28.35-2.11L28.35-2.11Q27.94-2.11 27.57-2.04Q27.20-1.97 26.92-1.73Q26.65-1.49 26.48-1.04Q26.31-0.60 26.31 0.12L26.31 0.12L26.31 0.72L30.94 0.72L30.94 3.17L26.31 3.17L26.31 12ZM38.82-2.52L38.82-2.52Q38.82-1.66 38.26-1.15Q37.71-0.65 36.94-0.65L36.94-0.65Q36.18-0.65 35.64-1.15Q35.10-1.66 35.10-2.52L35.10-2.52Q35.10-3.41 35.64-3.91Q36.18-4.42 36.94-4.42L36.94-4.42Q37.71-4.42 38.26-3.91Q38.82-3.41 38.82-2.52ZM42.82 9.14L43.21 11.52Q42.30 11.95 41.49 12.11Q40.69 12.26 40.02 12.26L40.02 12.26Q38.86 12.26 38.08 11.93Q37.30 11.59 36.84 10.96Q36.37 10.32 36.18 9.41Q35.98 8.50 35.98 7.32L35.98 7.32L35.98 3.17L32.86 3.17L32.86 0.72L38.94 0.72L38.94 7.70Q38.94 8.71 39.31 9.20Q39.68 9.70 40.54 9.70L40.54 9.70Q40.95 9.70 41.53 9.59Q42.10 9.48 42.82 9.14L42.82 9.14ZM49.47 9.77L49.47 9.77Q50.55 9.77 51.13 9.61Q51.70 9.46 51.70 8.98L51.70 8.98Q51.70 8.66 51.52 8.45Q51.34 8.23 51.02 8.08Q50.70 7.92 50.28 7.78Q49.86 7.63 49.40 7.49L49.40 7.49Q48.75 7.30 48.08 7.04Q47.41 6.79 46.86 6.41Q46.30 6.02 45.94 5.44Q45.58 4.85 45.58 3.96L45.58 3.96Q45.58 3.24 45.86 2.60Q46.14 1.97 46.72 1.48Q47.31 0.98 48.22 0.71Q49.14 0.43 50.41 0.43L50.41 0.43Q51.51 0.43 52.46 0.60Q53.41 0.77 54.10 1.08L54.10 1.08L53.65 3.58Q53.24 3.46 52.38 3.18Q51.51 2.90 50.43 2.90L50.43 2.90Q49.30 2.90 48.91 3.18Q48.51 3.46 48.51 3.77L48.51 3.77Q48.51 4.03 48.69 4.24Q48.87 4.44 49.17 4.61Q49.47 4.78 49.87 4.93Q50.26 5.09 50.72 5.23L50.72 5.23Q51.37 5.45 52.06 5.71Q52.76 5.98 53.32 6.37Q53.89 6.77 54.25 7.38Q54.61 7.99 54.61 8.88L54.61 8.88Q54.61 9.58 54.34 10.20Q54.08 10.82 53.47 11.28Q52.86 11.74 51.87 12Q50.89 12.26 49.45 12.26L49.45 12.26Q47.98 12.26 46.95 11.93Q45.92 11.59 45.30 11.33L45.30 11.33L45.75 8.86Q46.59 9.19 47.54 9.48Q48.49 9.77 49.47 9.77ZM60.46 12L57.51 12L57.51-4.15L60.46-4.66L60.46 0.82Q60.82 0.70 61.33 0.59Q61.83 0.48 62.22 0.48L62.22 0.48Q63.46 0.48 64.30 0.85Q65.14 1.22 65.65 1.91Q66.15 2.59 66.37 3.54Q66.58 4.49 66.58 5.64L66.58 5.64L66.58 12L63.63 12L63.63 6.02Q63.63 4.44 63.27 3.74Q62.91 3.05 61.90 3.05L61.90 3.05Q61.50 3.05 61.10 3.14Q60.70 3.24 60.46 3.31L60.46 3.31L60.46 12Z"/>
    </g>
</svg>