<?xml version="1.0" encoding="UTF-8"?>
<svg height="34" width="64.3" version="1.1" xmlns="http://www.w3.org/2000/svg">
    <rect
        height="32"
        width="62.3"
        rx="14"
        ry="14"
        x="1"
        y="1"
        fill="#0178b8"
        stroke="#00141e"
        stroke-width="1"
         />
    <g transform="translate(0, 14)">
        <path fill="#00141e" d="M10.70-6.33L23.30-6.33L23.30-3.48L18.74-3.48L18.74 11L15.26 11L15.26-3.48L10.70-3.48L10.70-6.33ZM37.69 11L33.97 11Q33.44 9.57 32.67 7.84Q31.90 6.10 31.06 4.36L31.06 4.36Q30.24 6.02 29.43 7.79Q28.62 9.57 28.03 11L28.03 11L24.31 11Q24.59 10.24 25.13 9.18Q25.68 8.12 26.34 6.88Q27.00 5.65 27.72 4.35Q28.45 3.05 29.12 1.84L29.12 1.84L24.59-6.33L28.31-6.33L31.06-0.79L33.94-6.33L37.41-6.33L32.99 1.76Q33.74 2.96 34.47 4.28Q35.20 5.60 35.83 6.84Q36.46 8.09 36.94 9.17Q37.41 10.24 37.69 11L37.69 11ZM50.88 8.14L50.88 11L39.99 11L39.99-6.33L43.46-6.33L43.46 8.14L50.88 8.14Z"/>
    </g>
</svg>