<?xml version="1.0" encoding="UTF-8"?>
<svg height="322" width="259.79999999999995" version="1.1" xmlns="http://www.w3.org/2000/svg"><!--Created by Josélio de S. C. Júnior - 2021 - https://github.com/joseliojunior -->
    <rect
        height="32"
        width="257.79999999999995"
        rx="16"
        ry="16"
        x="1" y="1"
        fill="#fa0f00"
        stroke="#610600"
        stroke-width="1" />
    <g transform="translate(0, 12)">
        <path fill="#610600" stroke="none" d="M31.78 12L28.62 12L27.92 8.57L23.96 8.57L23.29 12L20.22 12Q21.27 7.61 22.35 4.00Q23.43 0.38 24.44-2.86L24.44-2.86L27.66-2.86Q28.71 0.41 29.76 4.07Q30.80 7.73 31.78 12L31.78 12ZM25.98 0.02L25.98 0.02Q25.74 0.86 25.53 1.62Q25.33 2.38 25.15 3.11Q24.97 3.84 24.81 4.58Q24.66 5.33 24.51 6.12L24.51 6.12L27.42 6.12Q27.27 5.33 27.13 4.58Q26.98 3.84 26.80 3.11Q26.62 2.38 26.42 1.62Q26.22 0.86 25.98 0.02ZM35.67 6.29L35.67 6.29Q35.67 7.80 36.24 8.76Q36.80 9.72 38.05 9.72L38.05 9.72Q38.41 9.72 38.72 9.70Q39.03 9.67 39.37 9.62L39.37 9.62L39.37 3.48Q39.03 3.29 38.60 3.16Q38.17 3.02 37.69 3.02L37.69 3.02Q36.63 3.02 36.15 3.86Q35.67 4.70 35.67 6.29ZM42.32-4.66L42.32 11.66Q41.50 11.93 40.33 12.10Q39.15 12.26 38.02 12.26L38.02 12.26Q35.38 12.26 34.03 10.70Q32.67 9.14 32.67 6.43L32.67 6.43Q32.67 3.67 33.81 2.08Q34.95 0.48 37.18 0.48L37.18 0.48Q37.78 0.48 38.36 0.61Q38.94 0.74 39.37 0.98L39.37 0.98L39.37-4.15L42.32-4.66ZM55.33 6.34L55.33 6.34Q55.33 7.68 54.94 8.77Q54.56 9.86 53.86 10.66Q53.17 11.45 52.20 11.88Q51.22 12.31 50.02 12.31L50.02 12.31Q48.82 12.31 47.85 11.88Q46.88 11.45 46.17 10.66Q45.46 9.86 45.08 8.77Q44.70 7.68 44.70 6.34L44.70 6.34Q44.70 5.02 45.09 3.92Q45.49 2.83 46.20 2.05Q46.90 1.27 47.89 0.85Q48.87 0.43 50.02 0.43L50.02 0.43Q51.20 0.43 52.17 0.85Q53.14 1.27 53.85 2.05Q54.56 2.83 54.94 3.92Q55.33 5.02 55.33 6.34ZM47.70 6.36L47.70 6.36Q47.70 7.87 48.24 8.81Q48.78 9.74 49.98 9.74L49.98 9.74Q51.13 9.74 51.72 8.81Q52.30 7.87 52.30 6.36L52.30 6.36Q52.30 4.85 51.76 3.92Q51.22 3 50.02 3L50.02 3Q48.87 3 48.28 3.92Q47.70 4.85 47.70 6.36ZM64.28 6.29L64.28 6.29Q64.28 4.70 63.76 3.86Q63.25 3.02 62.19 3.02L62.19 3.02Q61.71 3.02 61.24 3.16Q60.78 3.29 60.44 3.48L60.44 3.48L60.44 9.60Q60.78 9.67 61.15 9.70Q61.52 9.72 61.78 9.72L61.78 9.72Q62.94 9.72 63.61 8.94Q64.28 8.16 64.28 6.29ZM67.28 6.36L67.28 6.36Q67.28 7.70 66.92 8.80Q66.56 9.89 65.86 10.66Q65.17 11.42 64.16 11.84Q63.15 12.26 61.86 12.26L61.86 12.26Q60.70 12.26 59.50 12.10Q58.30 11.93 57.49 11.66L57.49 11.66L57.49-4.15L60.44-4.66L60.44 0.98Q61.06 0.70 61.64 0.59Q62.22 0.48 62.79 0.48L62.79 0.48Q63.90 0.48 64.74 0.90Q65.58 1.32 66.14 2.10Q66.70 2.88 66.99 3.96Q67.28 5.04 67.28 6.36ZM68.74 6.46L68.74 6.46Q68.74 4.97 69.20 3.84Q69.66 2.71 70.40 1.96Q71.14 1.20 72.10 0.82Q73.06 0.43 74.07 0.43L74.07 0.43Q76.57 0.43 77.86 1.91Q79.16 3.38 79.16 6.22L79.16 6.22Q79.16 6.50 79.15 6.82Q79.14 7.13 79.11 7.32L79.11 7.32L71.79 7.32Q71.79 8.42 72.70 9.06Q73.62 9.70 75.06 9.70L75.06 9.70Q75.94 9.70 76.75 9.50Q77.55 9.31 78.10 9.12L78.10 9.12L78.51 11.64Q77.74 11.90 76.88 12.08Q76.02 12.26 74.94 12.26L74.94 12.26Q73.50 12.26 72.36 11.89Q71.22 11.52 70.41 10.79Q69.61 10.06 69.18 8.98Q68.74 7.90 68.74 6.46ZM71.79 5.28L76.30 5.28Q76.30 4.82 76.18 4.40Q76.06 3.98 75.80 3.65Q75.54 3.31 75.13 3.11Q74.72 2.90 74.12 2.90L74.12 2.90Q73.54 2.90 73.12 3.10Q72.70 3.29 72.43 3.62Q72.15 3.96 72.00 4.39Q71.84 4.82 71.79 5.28L71.79 5.28ZM96.46 12L93.51 12L93.51-2.86L102.61-2.86L102.61-0.41L96.46-0.41L96.46 3.19L101.84 3.19L101.84 5.64L96.46 5.64L96.46 12ZM115.33 6.34L115.33 6.34Q115.33 7.68 114.94 8.77Q114.56 9.86 113.86 10.66Q113.17 11.45 112.20 11.88Q111.22 12.31 110.02 12.31L110.02 12.31Q108.82 12.31 107.85 11.88Q106.88 11.45 106.17 10.66Q105.46 9.86 105.08 8.77Q104.70 7.68 104.70 6.34L104.70 6.34Q104.70 5.02 105.09 3.92Q105.49 2.83 106.20 2.05Q106.90 1.27 107.89 0.85Q108.87 0.43 110.02 0.43L110.02 0.43Q111.20 0.43 112.17 0.85Q113.14 1.27 113.85 2.05Q114.56 2.83 114.94 3.92Q115.33 5.02 115.33 6.34ZM107.70 6.36L107.70 6.36Q107.70 7.87 108.24 8.81Q108.78 9.74 109.98 9.74L109.98 9.74Q111.13 9.74 111.72 8.81Q112.30 7.87 112.30 6.36L112.30 6.36Q112.30 4.85 111.76 3.92Q111.22 3 110.02 3L110.02 3Q108.87 3 108.28 3.92Q107.70 4.85 107.70 6.36ZM117.51 12L117.51 1.08Q118.30 0.86 119.47 0.67Q120.63 0.48 122 0.48L122 0.48Q123.34 0.48 124.23 0.85Q125.12 1.22 125.64 1.91Q126.15 2.59 126.37 3.54Q126.58 4.49 126.58 5.64L126.58 5.64L126.58 12L123.63 12L123.63 6.02Q123.63 4.44 123.27 3.74Q122.91 3.05 121.81 3.05L121.81 3.05Q121.47 3.05 121.15 3.07Q120.82 3.10 120.46 3.14L120.46 3.14L120.46 12L117.51 12ZM131.43 7.80L131.43 3.17L128.86 3.17L128.86 0.72L131.43 0.72L131.43-2.11L134.38-2.59L134.38 0.72L139.11 0.72L139.11 3.17L134.38 3.17L134.38 7.73Q134.38 8.35 134.50 8.74Q134.62 9.12 134.84 9.34Q135.06 9.55 135.37 9.62Q135.68 9.70 136.06 9.70L136.06 9.70Q136.47 9.70 136.82 9.67Q137.17 9.65 137.49 9.59Q137.82 9.53 138.16 9.41Q138.51 9.29 138.92 9.10L138.92 9.10L139.33 11.64Q138.51 11.98 137.56 12.12Q136.62 12.26 135.73 12.26L135.73 12.26Q134.70 12.26 133.90 12.10Q133.11 11.93 132.56 11.45Q132.01 10.97 131.72 10.09Q131.43 9.22 131.43 7.80L131.43 7.80ZM153.42-2.86L155.86-2.86Q156.03-2.35 156.28-1.56Q156.54-0.77 156.82 0.14Q157.11 1.06 157.40 1.99Q157.69 2.93 157.95 3.72L157.95 3.72Q158.24 2.83 158.55 1.88Q158.86 0.94 159.15 0.06Q159.44-0.82 159.68-1.58Q159.92-2.35 160.11-2.86L160.11-2.86L162.56-2.86Q162.73-0.91 162.88 0.94Q163.04 2.78 163.15 4.60Q163.26 6.41 163.33 8.24Q163.40 10.08 163.45 12L163.45 12L160.74 12L160.88 0.46L159.06 6.74L156.90 6.74L155.14 0.46L155.26 12L152.55 12Q152.62 10.18 152.71 8.21Q152.79 6.24 152.89 4.30Q152.98 2.35 153.12 0.53Q153.25-1.30 153.42-2.86L153.42-2.86ZM164.74 6.46L164.74 6.46Q164.74 4.97 165.20 3.84Q165.66 2.71 166.40 1.96Q167.14 1.20 168.10 0.82Q169.06 0.43 170.07 0.43L170.07 0.43Q172.57 0.43 173.86 1.91Q175.16 3.38 175.16 6.22L175.16 6.22Q175.16 6.50 175.15 6.82Q175.14 7.13 175.11 7.32L175.11 7.32L167.79 7.32Q167.79 8.42 168.70 9.06Q169.62 9.70 171.06 9.70L171.06 9.70Q171.94 9.70 172.75 9.50Q173.55 9.31 174.10 9.12L174.10 9.12L174.51 11.64Q173.74 11.90 172.88 12.08Q172.02 12.26 170.94 12.26L170.94 12.26Q169.50 12.26 168.36 11.89Q167.22 11.52 166.41 10.79Q165.61 10.06 165.18 8.98Q164.74 7.90 164.74 6.46ZM167.79 5.28L172.30 5.28Q172.30 4.82 172.18 4.40Q172.06 3.98 171.80 3.65Q171.54 3.31 171.13 3.11Q170.72 2.90 170.12 2.90L170.12 2.90Q169.54 2.90 169.12 3.10Q168.70 3.29 168.43 3.62Q168.15 3.96 168.00 4.39Q167.84 4.82 167.79 5.28L167.79 5.28ZM179.43 7.80L179.43 3.17L176.86 3.17L176.86 0.72L179.43 0.72L179.43-2.11L182.38-2.59L182.38 0.72L187.11 0.72L187.11 3.17L182.38 3.17L182.38 7.73Q182.38 8.35 182.50 8.74Q182.62 9.12 182.84 9.34Q183.06 9.55 183.37 9.62Q183.68 9.70 184.06 9.70L184.06 9.70Q184.47 9.70 184.82 9.67Q185.17 9.65 185.49 9.59Q185.82 9.53 186.16 9.41Q186.51 9.29 186.92 9.10L186.92 9.10L187.33 11.64Q186.51 11.98 185.56 12.12Q184.62 12.26 183.73 12.26L183.73 12.26Q182.70 12.26 181.90 12.10Q181.11 11.93 180.56 11.45Q180.01 10.97 179.72 10.09Q179.43 9.22 179.43 7.80L179.43 7.80ZM199.02 0.98L198.49 3.72Q198.20 3.65 197.80 3.58Q197.41 3.50 197 3.44Q196.59 3.38 196.21 3.36Q195.82 3.34 195.56 3.34L195.56 3.34Q194.94 3.34 194.34 3.40Q193.74 3.46 193.11 3.62L193.11 3.62L193.11 12L190.14 12L190.14 1.46Q191.31 1.03 192.55 0.77Q193.78 0.50 195.44 0.50L195.44 0.50Q195.68 0.50 196.12 0.53Q196.57 0.55 197.07 0.61Q197.58 0.67 198.09 0.76Q198.61 0.84 199.02 0.98L199.02 0.98ZM206.82-2.52L206.82-2.52Q206.82-1.66 206.26-1.15Q205.71-0.65 204.94-0.65L204.94-0.65Q204.18-0.65 203.64-1.15Q203.10-1.66 203.10-2.52L203.10-2.52Q203.10-3.41 203.64-3.91Q204.18-4.42 204.94-4.42L204.94-4.42Q205.71-4.42 206.26-3.91Q206.82-3.41 206.82-2.52ZM210.82 9.14L211.21 11.52Q210.30 11.95 209.49 12.11Q208.69 12.26 208.02 12.26L208.02 12.26Q206.86 12.26 206.08 11.93Q205.30 11.59 204.84 10.96Q204.37 10.32 204.18 9.41Q203.98 8.50 203.98 7.32L203.98 7.32L203.98 3.17L200.86 3.17L200.86 0.72L206.94 0.72L206.94 7.70Q206.94 8.71 207.31 9.20Q207.68 9.70 208.54 9.70L208.54 9.70Q208.95 9.70 209.53 9.59Q210.10 9.48 210.82 9.14L210.82 9.14ZM213.06 6.36L213.06 6.36Q213.06 5.14 213.44 4.06Q213.82 2.98 214.62 2.17Q215.41 1.37 216.62 0.90Q217.83 0.43 219.51 0.43L219.51 0.43Q220.52 0.43 221.34 0.58Q222.15 0.72 222.99 1.06L222.99 1.06L222.34 3.43Q221.86 3.26 221.28 3.13Q220.69 3 219.78 3L219.78 3Q218.72 3 218.01 3.25Q217.30 3.50 216.87 3.95Q216.44 4.39 216.25 5.02Q216.06 5.64 216.06 6.36L216.06 6.36Q216.06 7.92 216.93 8.81Q217.81 9.70 219.92 9.70L219.92 9.70Q220.62 9.70 221.37 9.60Q222.13 9.50 222.75 9.29L222.75 9.29L223.18 11.71Q222.56 11.95 221.67 12.11Q220.78 12.26 219.58 12.26L219.58 12.26Q217.86 12.26 216.62 11.81Q215.38 11.35 214.59 10.56Q213.80 9.77 213.43 8.69Q213.06 7.61 213.06 6.36ZM229.47 9.77L229.47 9.77Q230.55 9.77 231.13 9.61Q231.70 9.46 231.70 8.98L231.70 8.98Q231.70 8.66 231.52 8.45Q231.34 8.23 231.02 8.08Q230.70 7.92 230.28 7.78Q229.86 7.63 229.40 7.49L229.40 7.49Q228.75 7.30 228.08 7.04Q227.41 6.79 226.86 6.41Q226.30 6.02 225.94 5.44Q225.58 4.85 225.58 3.96L225.58 3.96Q225.58 3.24 225.86 2.60Q226.14 1.97 226.72 1.48Q227.31 0.98 228.22 0.71Q229.14 0.43 230.41 0.43L230.41 0.43Q231.51 0.43 232.46 0.60Q233.41 0.77 234.10 1.08L234.10 1.08L233.65 3.58Q233.24 3.46 232.38 3.18Q231.51 2.90 230.43 2.90L230.43 2.90Q229.30 2.90 228.91 3.18Q228.51 3.46 228.51 3.77L228.51 3.77Q228.51 4.03 228.69 4.24Q228.87 4.44 229.17 4.61Q229.47 4.78 229.87 4.93Q230.26 5.09 230.72 5.23L230.72 5.23Q231.37 5.45 232.06 5.71Q232.76 5.98 233.32 6.37Q233.89 6.77 234.25 7.38Q234.61 7.99 234.61 8.88L234.61 8.88Q234.61 9.58 234.34 10.20Q234.08 10.82 233.47 11.28Q232.86 11.74 231.87 12Q230.89 12.26 229.45 12.26L229.45 12.26Q227.98 12.26 226.95 11.93Q225.92 11.59 225.30 11.33L225.30 11.33L225.75 8.86Q226.59 9.19 227.54 9.48Q228.49 9.77 229.47 9.77Z"/>
    </g>
</svg>