<?xml version="1.0" encoding="UTF-8"?>
<svg height="34" width="275.79999999999995" version="1.1" xmlns="http://www.w3.org/2000/svg">
    <rect
        height="32"
        width="273.79999999999995"
        rx="1"
        ry="1"
        x="1"
        y="1"
        fill="#fa0f00"
        stroke="#610600"
        stroke-width="1"
         />
    <g transform="translate(0, 14)">
        <path fill="#610600" d="M23.75 11L20.05 11L19.24 7.00L14.62 7.00L13.84 11L10.25 11Q11.48 5.88 12.74 1.66Q14.00-2.55 15.18-6.33L15.18-6.33L18.93-6.33Q20.16-2.52 21.38 1.75Q22.60 6.02 23.75 11L23.75 11ZM16.97-2.97L16.97-2.97Q16.69-1.99 16.45-1.11Q16.22-0.23 16.01 0.63Q15.80 1.48 15.61 2.35Q15.43 3.22 15.26 4.14L15.26 4.14L18.65 4.14Q18.48 3.22 18.32 2.35Q18.15 1.48 17.94 0.63Q17.73-0.23 17.49-1.11Q17.25-1.99 16.97-2.97ZM28.28 4.34L28.28 4.34Q28.28 6.10 28.94 7.22Q29.60 8.34 31.06 8.34L31.06 8.34Q31.48 8.34 31.84 8.31Q32.20 8.28 32.60 8.23L32.60 8.23L32.60 1.06Q32.20 0.84 31.70 0.68Q31.20 0.53 30.64 0.53L30.64 0.53Q29.40 0.53 28.84 1.51Q28.28 2.49 28.28 4.34ZM36.04-8.43L36.04 10.61Q35.09 10.92 33.72 11.11Q32.34 11.31 31.03 11.31L31.03 11.31Q27.95 11.31 26.37 9.49Q24.78 7.67 24.78 4.50L24.78 4.50Q24.78 1.28 26.11-0.58Q27.44-2.44 30.05-2.44L30.05-2.44Q30.75-2.44 31.42-2.29Q32.09-2.13 32.60-1.85L32.60-1.85L32.60-7.84L36.04-8.43ZM51.22 4.39L51.22 4.39Q51.22 5.96 50.77 7.23Q50.32 8.51 49.51 9.43Q48.70 10.36 47.56 10.86Q46.43 11.36 45.03 11.36L45.03 11.36Q43.63 11.36 42.49 10.86Q41.36 10.36 40.53 9.43Q39.71 8.51 39.26 7.23Q38.81 5.96 38.81 4.39L38.81 4.39Q38.81 2.85 39.27 1.58Q39.74 0.30 40.56-0.61Q41.39-1.52 42.54-2.01Q43.68-2.50 45.03-2.50L45.03-2.50Q46.40-2.50 47.53-2.01Q48.67-1.52 49.49-0.61Q50.32 0.30 50.77 1.58Q51.22 2.85 51.22 4.39ZM42.31 4.42L42.31 4.42Q42.31 6.18 42.94 7.28Q43.57 8.37 44.97 8.37L44.97 8.37Q46.32 8.37 47.00 7.28Q47.69 6.18 47.69 4.42L47.69 4.42Q47.69 2.66 47.06 1.58Q46.43 0.50 45.03 0.50L45.03 0.50Q43.68 0.50 43.00 1.58Q42.31 2.66 42.31 4.42ZM61.66 4.34L61.66 4.34Q61.66 2.49 61.06 1.51Q60.46 0.53 59.22 0.53L59.22 0.53Q58.66 0.53 58.12 0.68Q57.57 0.84 57.18 1.06L57.18 1.06L57.18 8.20Q57.57 8.28 58.01 8.31Q58.44 8.34 58.75 8.34L58.75 8.34Q60.09 8.34 60.88 7.43Q61.66 6.52 61.66 4.34ZM65.16 4.42L65.16 4.42Q65.16 5.99 64.74 7.26Q64.32 8.54 63.51 9.43Q62.70 10.33 61.52 10.82Q60.34 11.31 58.83 11.31L58.83 11.31Q57.49 11.31 56.09 11.11Q54.69 10.92 53.74 10.61L53.74 10.61L53.74-7.84L57.18-8.43L57.18-1.85Q57.91-2.19 58.58-2.31Q59.25-2.44 59.92-2.44L59.92-2.44Q61.21-2.44 62.19-1.95Q63.17-1.46 63.83-0.55Q64.49 0.36 64.82 1.62Q65.16 2.88 65.16 4.42ZM66.87 4.53L66.87 4.53Q66.87 2.80 67.40 1.48Q67.93 0.16 68.80-0.72Q69.67-1.60 70.79-2.05Q71.91-2.50 73.08-2.50L73.08-2.50Q76.00-2.50 77.51-0.77Q79.02 0.95 79.02 4.25L79.02 4.25Q79.02 4.59 79.01 4.95Q78.99 5.32 78.96 5.54L78.96 5.54L70.42 5.54Q70.42 6.83 71.49 7.57Q72.55 8.31 74.23 8.31L74.23 8.31Q75.27 8.31 76.21 8.09Q77.14 7.86 77.79 7.64L77.79 7.64L78.26 10.58Q77.37 10.89 76.36 11.10Q75.35 11.31 74.09 11.31L74.09 11.31Q72.41 11.31 71.08 10.87Q69.75 10.44 68.81 9.59Q67.88 8.73 67.37 7.47Q66.87 6.21 66.87 4.53ZM70.42 3.16L75.69 3.16Q75.69 2.63 75.55 2.14Q75.41 1.65 75.10 1.26Q74.79 0.86 74.32 0.63Q73.84 0.39 73.14 0.39L73.14 0.39Q72.47 0.39 71.98 0.61Q71.49 0.84 71.17 1.23Q70.84 1.62 70.66 2.12Q70.48 2.63 70.42 3.16L70.42 3.16ZM99.21 11L95.76 11L95.76-6.33L106.38-6.33L106.38-3.48L99.21-3.48L99.21 0.72L105.48 0.72L105.48 3.58L99.21 3.58L99.21 11ZM121.22 4.39L121.22 4.39Q121.22 5.96 120.77 7.23Q120.32 8.51 119.51 9.43Q118.70 10.36 117.56 10.86Q116.43 11.36 115.03 11.36L115.03 11.36Q113.63 11.36 112.49 10.86Q111.36 10.36 110.53 9.43Q109.71 8.51 109.26 7.23Q108.81 5.96 108.81 4.39L108.81 4.39Q108.81 2.85 109.27 1.58Q109.74 0.30 110.56-0.61Q111.39-1.52 112.54-2.01Q113.68-2.50 115.03-2.50L115.03-2.50Q116.40-2.50 117.53-2.01Q118.67-1.52 119.49-0.61Q120.32 0.30 120.77 1.58Q121.22 2.85 121.22 4.39ZM112.31 4.42L112.31 4.42Q112.31 6.18 112.94 7.28Q113.57 8.37 114.97 8.37L114.97 8.37Q116.32 8.37 117.00 7.28Q117.69 6.18 117.69 4.42L117.69 4.42Q117.69 2.66 117.06 1.58Q116.43 0.50 115.03 0.50L115.03 0.50Q113.68 0.50 113.00 1.58Q112.31 2.66 112.31 4.42ZM123.76 11L123.76-1.74Q124.69-1.99 126.05-2.22Q127.40-2.44 129-2.44L129-2.44Q130.57-2.44 131.60-2.01Q132.64-1.57 133.24-0.77Q133.84 0.02 134.10 1.13Q134.35 2.24 134.35 3.58L134.35 3.58L134.35 11L130.90 11L130.90 4.03Q130.90 2.18 130.48 1.37Q130.06 0.56 128.78 0.56L128.78 0.56Q128.38 0.56 128.01 0.58Q127.63 0.61 127.21 0.67L127.21 0.67L127.21 11L123.76 11ZM140.00 6.10L140.00 0.70L137.01 0.70L137.01-2.16L140.00-2.16L140.00-5.46L143.45-6.02L143.45-2.16L148.96-2.16L148.96 0.70L143.45 0.70L143.45 6.02Q143.45 6.74 143.59 7.19Q143.73 7.64 143.98 7.89Q144.23 8.14 144.60 8.23Q144.96 8.31 145.41 8.31L145.41 8.31Q145.88 8.31 146.29 8.28Q146.70 8.26 147.07 8.19Q147.45 8.12 147.86 7.98Q148.26 7.84 148.74 7.61L148.74 7.61L149.22 10.58Q148.26 10.97 147.16 11.14Q146.05 11.31 145.02 11.31L145.02 11.31Q143.81 11.31 142.89 11.11Q141.96 10.92 141.32 10.36Q140.68 9.80 140.34 8.77Q140.00 7.75 140.00 6.10L140.00 6.10ZM165.65-6.33L168.51-6.33Q168.70-5.74 169.00-4.82Q169.29-3.90 169.63-2.83Q169.96-1.77 170.30-0.68Q170.64 0.42 170.94 1.34L170.94 1.34Q171.28 0.30 171.64-0.80Q172.01-1.91 172.34-2.93Q172.68-3.95 172.96-4.85Q173.24-5.74 173.46-6.33L173.46-6.33L176.32-6.33Q176.52-4.06 176.70-1.91Q176.88 0.25 177.01 2.36Q177.13 4.48 177.22 6.62Q177.30 8.76 177.36 11L177.36 11L174.19 11L174.36-2.47L172.23 4.87L169.71 4.87L167.67-2.47L167.81 11L164.64 11Q164.73 8.87 164.83 6.58Q164.92 4.28 165.04 2.01Q165.15-0.26 165.30-2.38Q165.46-4.51 165.65-6.33L165.65-6.33ZM178.87 4.53L178.87 4.53Q178.87 2.80 179.40 1.48Q179.93 0.16 180.80-0.72Q181.67-1.60 182.79-2.05Q183.91-2.50 185.08-2.50L185.08-2.50Q188.00-2.50 189.51-0.77Q191.02 0.95 191.02 4.25L191.02 4.25Q191.02 4.59 191.01 4.95Q190.99 5.32 190.96 5.54L190.96 5.54L182.42 5.54Q182.42 6.83 183.49 7.57Q184.55 8.31 186.23 8.31L186.23 8.31Q187.27 8.31 188.21 8.09Q189.14 7.86 189.79 7.64L189.79 7.64L190.26 10.58Q189.37 10.89 188.36 11.10Q187.35 11.31 186.09 11.31L186.09 11.31Q184.41 11.31 183.08 10.87Q181.75 10.44 180.81 9.59Q179.88 8.73 179.37 7.47Q178.87 6.21 178.87 4.53ZM182.42 3.16L187.69 3.16Q187.69 2.63 187.55 2.14Q187.41 1.65 187.10 1.26Q186.79 0.86 186.32 0.63Q185.84 0.39 185.14 0.39L185.14 0.39Q184.47 0.39 183.98 0.61Q183.49 0.84 183.17 1.23Q182.84 1.62 182.66 2.12Q182.48 2.63 182.42 3.16L182.42 3.16ZM196.00 6.10L196.00 0.70L193.01 0.70L193.01-2.16L196.00-2.16L196.00-5.46L199.45-6.02L199.45-2.16L204.96-2.16L204.96 0.70L199.45 0.70L199.45 6.02Q199.45 6.74 199.59 7.19Q199.73 7.64 199.98 7.89Q200.23 8.14 200.60 8.23Q200.96 8.31 201.41 8.31L201.41 8.31Q201.88 8.31 202.29 8.28Q202.70 8.26 203.07 8.19Q203.45 8.12 203.86 7.98Q204.26 7.84 204.74 7.61L204.74 7.61L205.22 10.58Q204.26 10.97 203.16 11.14Q202.05 11.31 201.02 11.31L201.02 11.31Q199.81 11.31 198.89 11.11Q197.96 10.92 197.32 10.36Q196.68 9.80 196.34 8.77Q196.00 7.75 196.00 6.10L196.00 6.10ZM218.85-1.85L218.24 1.34Q217.90 1.26 217.44 1.17Q216.98 1.09 216.50 1.02Q216.02 0.95 215.58 0.92Q215.13 0.89 214.82 0.89L214.82 0.89Q214.09 0.89 213.39 0.96Q212.69 1.03 211.96 1.23L211.96 1.23L211.96 11L208.49 11L208.49-1.29Q209.86-1.80 211.31-2.10Q212.75-2.41 214.68-2.41L214.68-2.41Q214.96-2.41 215.48-2.38Q216.00-2.36 216.58-2.29Q217.17-2.22 217.77-2.12Q218.38-2.02 218.85-1.85L218.85-1.85ZM227.95-5.94L227.95-5.94Q227.95-4.93 227.31-4.34Q226.66-3.76 225.77-3.76L225.77-3.76Q224.87-3.76 224.24-4.34Q223.61-4.93 223.61-5.94L223.61-5.94Q223.61-6.98 224.24-7.56Q224.87-8.15 225.77-8.15L225.77-8.15Q226.66-8.15 227.31-7.56Q227.95-6.98 227.95-5.94ZM232.63 7.67L233.08 10.44Q232.01 10.94 231.07 11.13Q230.14 11.31 229.35 11.31L229.35 11.31Q228.01 11.31 227.10 10.92Q226.19 10.52 225.64 9.78Q225.10 9.04 224.87 7.98Q224.65 6.91 224.65 5.54L224.65 5.54L224.65 0.70L221.01 0.70L221.01-2.16L228.09-2.16L228.09 5.99Q228.09 7.16 228.53 7.74Q228.96 8.31 229.97 8.31L229.97 8.31Q230.44 8.31 231.12 8.19Q231.79 8.06 232.63 7.67L232.63 7.67ZM235.23 4.42L235.23 4.42Q235.23 2.99 235.68 1.73Q236.13 0.47 237.05-0.47Q237.98-1.40 239.39-1.95Q240.80-2.50 242.76-2.50L242.76-2.50Q243.94-2.50 244.89-2.33Q245.84-2.16 246.82-1.77L246.82-1.77L246.07 1.00Q245.51 0.81 244.82 0.65Q244.14 0.50 243.07 0.50L243.07 0.50Q241.84 0.50 241.01 0.79Q240.19 1.09 239.68 1.61Q239.18 2.12 238.96 2.85Q238.73 3.58 238.73 4.42L238.73 4.42Q238.73 6.24 239.75 7.28Q240.78 8.31 243.24 8.31L243.24 8.31Q244.05 8.31 244.93 8.20Q245.82 8.09 246.54 7.84L246.54 7.84L247.05 10.66Q246.32 10.94 245.28 11.13Q244.25 11.31 242.85 11.31L242.85 11.31Q240.83 11.31 239.39 10.78Q237.95 10.24 237.02 9.32Q236.10 8.40 235.67 7.14Q235.23 5.88 235.23 4.42ZM254.38 8.40L254.38 8.40Q255.64 8.40 256.32 8.21Q256.99 8.03 256.99 7.47L256.99 7.47Q256.99 7.11 256.78 6.86Q256.57 6.60 256.19 6.42Q255.81 6.24 255.32 6.07Q254.83 5.90 254.30 5.74L254.30 5.74Q253.54 5.51 252.76 5.22Q251.98 4.92 251.33 4.48Q250.69 4.03 250.27 3.34Q249.85 2.66 249.85 1.62L249.85 1.62Q249.85 0.78 250.17 0.04Q250.49-0.70 251.18-1.28Q251.86-1.85 252.93-2.17Q253.99-2.50 255.48-2.50L255.48-2.50Q256.76-2.50 257.87-2.30Q258.98-2.10 259.79-1.74L259.79-1.74L259.26 1.17Q258.78 1.03 257.77 0.71Q256.76 0.39 255.50 0.39L255.50 0.39Q254.19 0.39 253.73 0.71Q253.26 1.03 253.26 1.40L253.26 1.40Q253.26 1.70 253.47 1.94Q253.68 2.18 254.03 2.38Q254.38 2.57 254.85 2.75Q255.31 2.94 255.84 3.10L255.84 3.10Q256.60 3.36 257.41 3.66Q258.22 3.97 258.88 4.43Q259.54 4.90 259.96 5.61Q260.38 6.32 260.38 7.36L260.38 7.36Q260.38 8.17 260.07 8.90Q259.76 9.63 259.05 10.16Q258.33 10.69 257.18 11Q256.04 11.31 254.36 11.31L254.36 11.31Q252.65 11.31 251.44 10.92Q250.24 10.52 249.51 10.22L249.51 10.22L250.04 7.33Q251.02 7.72 252.13 8.06Q253.24 8.40 254.38 8.40Z"/>
    </g>
</svg>