<?xml version="1.0" encoding="UTF-8"?>
<svg height="26" width="187.79999999999998" version="1.1" xmlns="http://www.w3.org/2000/svg"><!--Created by Josélio de S. C. Júnior - 2021 - https://github.com/joseliojunior -->
    <rect
        height="24"
        width="185.79999999999998"
        rx="1"
        ry="1"
        x="1" y="1"
        fill="#fa0f00"
        stroke="#610600"
        stroke-width="1" />
    <g transform="translate(0, 8)">
        <path fill="#610600" stroke="none" d="M27.86 10L25.74 10L25.28 7.71L22.64 7.71L22.19 10L20.14 10Q20.85 7.07 21.57 4.66Q22.29 2.26 22.96 0.10L22.96 0.10L25.10 0.10Q25.81 2.27 26.50 4.71Q27.20 7.15 27.86 10L27.86 10ZM23.98 2.02L23.98 2.02Q23.82 2.58 23.69 3.08Q23.55 3.58 23.43 4.07Q23.31 4.56 23.21 5.06Q23.10 5.55 23.01 6.08L23.01 6.08L24.94 6.08Q24.85 5.55 24.75 5.06Q24.66 4.56 24.54 4.07Q24.42 3.58 24.28 3.08Q24.14 2.58 23.98 2.02ZM30.45 6.19L30.45 6.19Q30.45 7.20 30.82 7.84Q31.20 8.48 32.03 8.48L32.03 8.48Q32.27 8.48 32.48 8.46Q32.69 8.45 32.91 8.42L32.91 8.42L32.91 4.32Q32.69 4.19 32.40 4.10Q32.11 4.02 31.79 4.02L31.79 4.02Q31.09 4.02 30.77 4.58Q30.45 5.14 30.45 6.19ZM34.88-1.10L34.88 9.78Q34.34 9.95 33.55 10.06Q32.77 10.18 32.02 10.18L32.02 10.18Q30.26 10.18 29.35 9.14Q28.45 8.10 28.45 6.29L28.45 6.29Q28.45 4.45 29.21 3.38Q29.97 2.32 31.46 2.32L31.46 2.32Q31.86 2.32 32.24 2.41Q32.62 2.50 32.91 2.66L32.91 2.66L32.91-0.77L34.88-1.10ZM43.55 6.22L43.55 6.22Q43.55 7.12 43.30 7.85Q43.04 8.58 42.58 9.10Q42.11 9.63 41.46 9.92Q40.82 10.21 40.02 10.21L40.02 10.21Q39.22 10.21 38.57 9.92Q37.92 9.63 37.45 9.10Q36.98 8.58 36.72 7.85Q36.46 7.12 36.46 6.22L36.46 6.22Q36.46 5.34 36.73 4.62Q36.99 3.89 37.46 3.37Q37.94 2.85 38.59 2.57Q39.25 2.29 40.02 2.29L40.02 2.29Q40.80 2.29 41.45 2.57Q42.10 2.85 42.57 3.37Q43.04 3.89 43.30 4.62Q43.55 5.34 43.55 6.22ZM38.46 6.24L38.46 6.24Q38.46 7.25 38.82 7.87Q39.18 8.50 39.98 8.50L39.98 8.50Q40.75 8.50 41.14 7.87Q41.54 7.25 41.54 6.24L41.54 6.24Q41.54 5.23 41.18 4.62Q40.82 4 40.02 4L40.02 4Q39.25 4 38.86 4.62Q38.46 5.23 38.46 6.24ZM49.52 6.19L49.52 6.19Q49.52 5.14 49.18 4.58Q48.83 4.02 48.13 4.02L48.13 4.02Q47.81 4.02 47.50 4.10Q47.18 4.19 46.96 4.32L46.96 4.32L46.96 8.40Q47.18 8.45 47.43 8.46Q47.68 8.48 47.86 8.48L47.86 8.48Q48.62 8.48 49.07 7.96Q49.52 7.44 49.52 6.19ZM51.52 6.24L51.52 6.24Q51.52 7.14 51.28 7.86Q51.04 8.59 50.58 9.10Q50.11 9.62 49.44 9.90Q48.77 10.18 47.90 10.18L47.90 10.18Q47.14 10.18 46.34 10.06Q45.54 9.95 44.99 9.78L44.99 9.78L44.99-0.77L46.96-1.10L46.96 2.66Q47.38 2.46 47.76 2.39Q48.14 2.32 48.53 2.32L48.53 2.32Q49.26 2.32 49.82 2.60Q50.38 2.88 50.76 3.40Q51.14 3.92 51.33 4.64Q51.52 5.36 51.52 6.24ZM52.50 6.30L52.50 6.30Q52.50 5.31 52.80 4.56Q53.10 3.81 53.60 3.30Q54.10 2.80 54.74 2.54Q55.38 2.29 56.05 2.29L56.05 2.29Q57.71 2.29 58.58 3.27Q59.44 4.26 59.44 6.14L59.44 6.14Q59.44 6.34 59.43 6.54Q59.42 6.75 59.41 6.88L59.41 6.88L54.53 6.88Q54.53 7.62 55.14 8.04Q55.74 8.46 56.70 8.46L56.70 8.46Q57.30 8.46 57.83 8.34Q58.37 8.21 58.74 8.08L58.74 8.08L59.01 9.76Q58.50 9.94 57.92 10.06Q57.34 10.18 56.62 10.18L56.62 10.18Q55.66 10.18 54.90 9.93Q54.14 9.68 53.61 9.19Q53.07 8.70 52.78 7.98Q52.50 7.26 52.50 6.30ZM54.53 5.52L57.54 5.52Q57.54 5.22 57.46 4.94Q57.38 4.66 57.20 4.43Q57.02 4.21 56.75 4.07Q56.48 3.94 56.08 3.94L56.08 3.94Q55.70 3.94 55.42 4.06Q55.14 4.19 54.95 4.42Q54.77 4.64 54.66 4.93Q54.56 5.22 54.53 5.52L54.53 5.52ZM70.98 10L69.01 10L69.01 0.10L75.07 0.10L75.07 1.73L70.98 1.73L70.98 4.13L74.56 4.13L74.56 5.76L70.98 5.76L70.98 10ZM83.55 6.22L83.55 6.22Q83.55 7.12 83.30 7.85Q83.04 8.58 82.58 9.10Q82.11 9.63 81.46 9.92Q80.82 10.21 80.02 10.21L80.02 10.21Q79.22 10.21 78.57 9.92Q77.92 9.63 77.45 9.10Q76.98 8.58 76.72 7.85Q76.46 7.12 76.46 6.22L76.46 6.22Q76.46 5.34 76.73 4.62Q76.99 3.89 77.46 3.37Q77.94 2.85 78.59 2.57Q79.25 2.29 80.02 2.29L80.02 2.29Q80.80 2.29 81.45 2.57Q82.10 2.85 82.57 3.37Q83.04 3.89 83.30 4.62Q83.55 5.34 83.55 6.22ZM78.46 6.24L78.46 6.24Q78.46 7.25 78.82 7.87Q79.18 8.50 79.98 8.50L79.98 8.50Q80.75 8.50 81.14 7.87Q81.54 7.25 81.54 6.24L81.54 6.24Q81.54 5.23 81.18 4.62Q80.82 4 80.02 4L80.02 4Q79.25 4 78.86 4.62Q78.46 5.23 78.46 6.24ZM85.01 10L85.01 2.72Q85.54 2.58 86.31 2.45Q87.09 2.32 88 2.32L88 2.32Q88.90 2.32 89.49 2.57Q90.08 2.82 90.42 3.27Q90.77 3.73 90.91 4.36Q91.06 4.99 91.06 5.76L91.06 5.76L91.06 10L89.09 10L89.09 6.02Q89.09 4.96 88.85 4.50Q88.61 4.03 87.87 4.03L87.87 4.03Q87.65 4.03 87.43 4.05Q87.22 4.06 86.98 4.10L86.98 4.10L86.98 10L85.01 10ZM94.29 7.20L94.29 4.11L92.58 4.11L92.58 2.48L94.29 2.48L94.29 0.59L96.26 0.27L96.26 2.48L99.41 2.48L99.41 4.11L96.26 4.11L96.26 7.15Q96.26 7.57 96.34 7.82Q96.42 8.08 96.56 8.22Q96.70 8.37 96.91 8.42Q97.12 8.46 97.38 8.46L97.38 8.46Q97.65 8.46 97.88 8.45Q98.11 8.43 98.33 8.39Q98.54 8.35 98.78 8.27Q99.01 8.19 99.28 8.06L99.28 8.06L99.55 9.76Q99.01 9.98 98.38 10.08Q97.74 10.18 97.15 10.18L97.15 10.18Q96.46 10.18 95.94 10.06Q95.41 9.95 95.04 9.63Q94.67 9.31 94.48 8.73Q94.29 8.14 94.29 7.20L94.29 7.20ZM108.94 0.10L110.58 0.10Q110.69 0.43 110.86 0.96Q111.02 1.49 111.22 2.10Q111.41 2.70 111.60 3.33Q111.79 3.95 111.97 4.48L111.97 4.48Q112.16 3.89 112.37 3.26Q112.58 2.62 112.77 2.04Q112.96 1.46 113.12 0.94Q113.28 0.43 113.41 0.10L113.41 0.10L115.04 0.10Q115.15 1.39 115.26 2.62Q115.36 3.86 115.43 5.06Q115.50 6.27 115.55 7.50Q115.60 8.72 115.63 10L115.63 10L113.82 10L113.92 2.30L112.70 6.50L111.26 6.50L110.10 2.30L110.18 10L108.37 10Q108.42 8.78 108.47 7.47Q108.53 6.16 108.59 4.86Q108.66 3.57 108.74 2.35Q108.83 1.14 108.94 0.10L108.94 0.10ZM116.50 6.30L116.50 6.30Q116.50 5.31 116.80 4.56Q117.10 3.81 117.60 3.30Q118.10 2.80 118.74 2.54Q119.38 2.29 120.05 2.29L120.05 2.29Q121.71 2.29 122.58 3.27Q123.44 4.26 123.44 6.14L123.44 6.14Q123.44 6.34 123.43 6.54Q123.42 6.75 123.41 6.88L123.41 6.88L118.53 6.88Q118.53 7.62 119.14 8.04Q119.74 8.46 120.70 8.46L120.70 8.46Q121.30 8.46 121.83 8.34Q122.37 8.21 122.74 8.08L122.74 8.08L123.01 9.76Q122.50 9.94 121.92 10.06Q121.34 10.18 120.62 10.18L120.62 10.18Q119.66 10.18 118.90 9.93Q118.14 9.68 117.61 9.19Q117.07 8.70 116.78 7.98Q116.50 7.26 116.50 6.30ZM118.53 5.52L121.54 5.52Q121.54 5.22 121.46 4.94Q121.38 4.66 121.20 4.43Q121.02 4.21 120.75 4.07Q120.48 3.94 120.08 3.94L120.08 3.94Q119.70 3.94 119.42 4.06Q119.14 4.19 118.95 4.42Q118.77 4.64 118.66 4.93Q118.56 5.22 118.53 5.52L118.53 5.52ZM126.29 7.20L126.29 4.11L124.58 4.11L124.58 2.48L126.29 2.48L126.29 0.59L128.26 0.27L128.26 2.48L131.41 2.48L131.41 4.11L128.26 4.11L128.26 7.15Q128.26 7.57 128.34 7.82Q128.42 8.08 128.56 8.22Q128.70 8.37 128.91 8.42Q129.12 8.46 129.38 8.46L129.38 8.46Q129.65 8.46 129.88 8.45Q130.11 8.43 130.33 8.39Q130.54 8.35 130.78 8.27Q131.01 8.19 131.28 8.06L131.28 8.06L131.55 9.76Q131.01 9.98 130.38 10.08Q129.74 10.18 129.15 10.18L129.15 10.18Q128.46 10.18 127.94 10.06Q127.41 9.95 127.04 9.63Q126.67 9.31 126.48 8.73Q126.29 8.14 126.29 7.20L126.29 7.20ZM139.34 2.66L138.99 4.48Q138.80 4.43 138.54 4.38Q138.27 4.34 138 4.30Q137.73 4.26 137.47 4.24Q137.22 4.22 137.04 4.22L137.04 4.22Q136.62 4.22 136.22 4.26Q135.82 4.30 135.41 4.42L135.41 4.42L135.41 10L133.42 10L133.42 2.98Q134.21 2.69 135.03 2.51Q135.86 2.34 136.96 2.34L136.96 2.34Q137.12 2.34 137.42 2.35Q137.71 2.37 138.05 2.41Q138.38 2.45 138.73 2.50Q139.07 2.56 139.34 2.66L139.34 2.66ZM144.54 0.32L144.54 0.32Q144.54 0.90 144.18 1.23Q143.81 1.57 143.30 1.57L143.30 1.57Q142.78 1.57 142.42 1.23Q142.06 0.90 142.06 0.32L142.06 0.32Q142.06-0.27 142.42-0.61Q142.78-0.94 143.30-0.94L143.30-0.94Q143.81-0.94 144.18-0.61Q144.54-0.27 144.54 0.32ZM147.22 8.10L147.47 9.68Q146.86 9.97 146.33 10.07Q145.79 10.18 145.34 10.18L145.34 10.18Q144.58 10.18 144.06 9.95Q143.54 9.73 143.22 9.30Q142.91 8.88 142.78 8.27Q142.66 7.66 142.66 6.88L142.66 6.88L142.66 4.11L140.58 4.11L140.58 2.48L144.62 2.48L144.62 7.14Q144.62 7.81 144.87 8.14Q145.12 8.46 145.70 8.46L145.70 8.46Q145.97 8.46 146.35 8.39Q146.74 8.32 147.22 8.10L147.22 8.10ZM148.70 6.24L148.70 6.24Q148.70 5.42 148.96 4.70Q149.22 3.98 149.74 3.45Q150.27 2.91 151.08 2.60Q151.89 2.29 153.01 2.29L153.01 2.29Q153.68 2.29 154.22 2.38Q154.77 2.48 155.33 2.70L155.33 2.70L154.90 4.29Q154.58 4.18 154.18 4.09Q153.79 4 153.18 4L153.18 4Q152.48 4 152.01 4.17Q151.54 4.34 151.25 4.63Q150.96 4.93 150.83 5.34Q150.70 5.76 150.70 6.24L150.70 6.24Q150.70 7.28 151.29 7.87Q151.87 8.46 153.28 8.46L153.28 8.46Q153.74 8.46 154.25 8.40Q154.75 8.34 155.17 8.19L155.17 8.19L155.46 9.81Q155.04 9.97 154.45 10.07Q153.86 10.18 153.06 10.18L153.06 10.18Q151.90 10.18 151.08 9.87Q150.26 9.57 149.73 9.04Q149.20 8.51 148.95 7.79Q148.70 7.07 148.70 6.24ZM159.65 8.51L159.65 8.51Q160.37 8.51 160.75 8.41Q161.14 8.30 161.14 7.98L161.14 7.98Q161.14 7.78 161.02 7.63Q160.90 7.49 160.68 7.38Q160.46 7.28 160.18 7.18Q159.90 7.09 159.60 6.99L159.60 6.99Q159.17 6.86 158.72 6.70Q158.27 6.53 157.90 6.27Q157.54 6.02 157.30 5.62Q157.06 5.23 157.06 4.64L157.06 4.64Q157.06 4.16 157.24 3.74Q157.42 3.31 157.82 2.98Q158.21 2.66 158.82 2.47Q159.42 2.29 160.27 2.29L160.27 2.29Q161.01 2.29 161.64 2.40Q162.27 2.51 162.74 2.72L162.74 2.72L162.43 4.38Q162.16 4.30 161.58 4.12Q161.01 3.94 160.29 3.94L160.29 3.94Q159.54 3.94 159.27 4.12Q159.01 4.30 159.01 4.51L159.01 4.51Q159.01 4.69 159.13 4.82Q159.25 4.96 159.45 5.07Q159.65 5.18 159.91 5.29Q160.18 5.39 160.48 5.49L160.48 5.49Q160.91 5.63 161.38 5.81Q161.84 5.98 162.22 6.25Q162.59 6.51 162.83 6.92Q163.07 7.33 163.07 7.92L163.07 7.92Q163.07 8.38 162.90 8.80Q162.72 9.22 162.31 9.52Q161.90 9.82 161.25 10Q160.59 10.18 159.63 10.18L159.63 10.18Q158.66 10.18 157.97 9.95Q157.28 9.73 156.86 9.55L156.86 9.55L157.17 7.90Q157.73 8.13 158.36 8.32Q158.99 8.51 159.65 8.51Z"/>
    </g>
</svg>