<?xml version="1.0" encoding="UTF-8"?>
<svg height="34" width="126.7" version="1.1" xmlns="http://www.w3.org/2000/svg"><!--Created by Josélio de S. C. Júnior - 2021 - https://github.com/joseliojunior -->
    <defs>
        <pattern id="pattern"
                x="3" y="3" width="6" height="6"
                patternUnits="userSpaceOnUse"
                patternTransform="rotate(45)" >
            <rect height="6" width="6"
                fill="#ffffff"/>
            <line x1="0" y1="0" x2="0" y2="6"
                stroke="#888888"
                stroke-width="2" />
        </pattern>
    </defs>
    <rect
        height="32"
        width="124.7"
        rx="16"
        ry="16"
        x="1" y="1"
        fill="url(#pattern)" />
    <g transform="translate(0, 12)">
        <path fill="#000000" d="M30.73 12L21.30 12L21.30 9.55L24.54 9.55L24.54-0.41L21.30-0.41L21.30-2.86L30.73-2.86L30.73-0.41L27.51-0.41L27.51 9.55L30.73 9.55L30.73 12ZM37.14-3.02L37.14-3.02Q38.41-3.02 39.44-2.74Q40.47-2.45 41.22-1.85Q41.96-1.25 42.36-0.32Q42.75 0.60 42.75 1.85L42.75 1.85Q42.75 3.14 42.22 4.20Q41.70 5.26 40.47 5.81L40.47 5.81Q40.88 6.43 41.34 7.19Q41.79 7.94 42.22 8.77Q42.66 9.60 43.05 10.43Q43.45 11.26 43.74 12L43.74 12L40.64 12Q40.09 10.56 39.36 9.23Q38.62 7.90 37.78 6.53L37.78 6.53L36.25 6.53L36.25 12L33.30 12L33.30-2.64Q33.73-2.74 34.24-2.82Q34.76-2.90 35.29-2.94Q35.82-2.98 36.30-3Q36.78-3.02 37.14-3.02ZM39.75 1.82L39.75 1.82Q39.75 0.65 39.03 0.10Q38.31-0.46 37.14-0.46L37.14-0.46Q36.97-0.46 36.73-0.44Q36.49-0.43 36.25-0.38L36.25-0.38L36.25 4.08L36.90 4.08Q38.41 4.08 39.08 3.49Q39.75 2.90 39.75 1.82ZM51.10 12.31L51.10 12.31Q47.96 12.31 46.30 10.30Q44.65 8.28 44.65 4.56L44.65 4.56Q44.65 2.71 45.15 1.27Q45.66-0.17 46.56-1.16Q47.46-2.16 48.69-2.68Q49.93-3.19 51.39-3.19L51.39-3.19Q52.18-3.19 52.82-3.06Q53.46-2.93 53.94-2.76Q54.42-2.59 54.74-2.40Q55.06-2.21 55.23-2.11L55.23-2.11L54.46 0.24Q53.91-0.12 53.13-0.37Q52.35-0.62 51.34-0.62L51.34-0.62Q50.65-0.62 49.99-0.37Q49.33-0.12 48.81 0.47Q48.30 1.06 47.97 2.04Q47.65 3.02 47.65 4.49L47.65 4.49Q47.65 7.03 48.52 8.39Q49.40 9.74 51.39 9.74L51.39 9.74Q52.54 9.74 53.30 9.48Q54.06 9.22 54.51 8.95L54.51 8.95L55.26 11.28Q54.63 11.66 53.56 11.99Q52.50 12.31 51.10 12.31ZM78.82 9.14L79.21 11.52Q79.14 11.57 78.88 11.69Q78.63 11.81 78.22 11.94Q77.82 12.07 77.23 12.17Q76.64 12.26 75.90 12.26L75.90 12.26Q73.86 12.26 72.92 11.05Q71.98 9.84 71.98 7.51L71.98 7.51L71.98-2.06L68.86-2.06L68.86-4.51L74.94-4.51L74.94 7.73Q74.94 8.88 75.39 9.29Q75.85 9.70 76.54 9.70L76.54 9.70Q77.43 9.70 78.03 9.46Q78.63 9.22 78.82 9.14L78.82 9.14ZM91.33 6.34L91.33 6.34Q91.33 7.68 90.94 8.77Q90.56 9.86 89.86 10.66Q89.17 11.45 88.20 11.88Q87.22 12.31 86.02 12.31L86.02 12.31Q84.82 12.31 83.85 11.88Q82.88 11.45 82.17 10.66Q81.46 9.86 81.08 8.77Q80.70 7.68 80.70 6.34L80.70 6.34Q80.70 5.02 81.09 3.92Q81.49 2.83 82.20 2.05Q82.90 1.27 83.89 0.85Q84.87 0.43 86.02 0.43L86.02 0.43Q87.20 0.43 88.17 0.85Q89.14 1.27 89.85 2.05Q90.56 2.83 90.94 3.92Q91.33 5.02 91.33 6.34ZM83.70 6.36L83.70 6.36Q83.70 7.87 84.24 8.81Q84.78 9.74 85.98 9.74L85.98 9.74Q87.13 9.74 87.72 8.81Q88.30 7.87 88.30 6.36L88.30 6.36Q88.30 4.85 87.76 3.92Q87.22 3 86.02 3L86.02 3Q84.87 3 84.28 3.92Q83.70 4.85 83.70 6.36ZM95.79 6L95.79 6Q95.79 7.39 96.30 8.12Q96.80 8.86 97.88 8.86L97.88 8.86Q98.36 8.86 98.78 8.74Q99.20 8.62 99.54 8.42L99.54 8.42L99.54 3Q99.20 2.93 98.94 2.90Q98.67 2.88 98.38 2.88L98.38 2.88Q95.79 2.88 95.79 6ZM102.51 1.08L102.51 10.63Q102.51 13.39 101.18 14.71Q99.85 16.03 96.90 16.03L96.90 16.03Q95.84 16.03 94.87 15.82Q93.90 15.60 93.01 15.31L93.01 15.31L93.56 12.82Q94.26 13.08 95.02 13.31Q95.79 13.54 96.94 13.54L96.94 13.54Q97.71 13.54 98.22 13.36Q98.72 13.18 99.01 12.86Q99.30 12.55 99.42 12.13Q99.54 11.71 99.54 11.23L99.54 11.23L99.54 10.78Q98.91 11.02 98.40 11.14Q97.88 11.26 97.28 11.26L97.28 11.26Q95.07 11.26 93.93 9.86Q92.79 8.47 92.79 6L92.79 6Q92.79 3.22 94.33 1.85Q95.86 0.48 98.50 0.48L98.50 0.48Q100.35 0.48 102.51 1.08L102.51 1.08Z"/>
    </g>
</svg>