<?xml version="1.0" encoding="UTF-8"?><svg height="26" width="98.7" version="1.1" xmlns="http://www.w3.org/2000/svg"><!--Created by Josélio de S. C. Júnior - 2021 - https://github.com/joseliojunior --><defs><pattern id="pattern" x="3" y="3" width="6" height="6" patternUnits="userSpaceOnUse" patternTransform="rotate(45)"><rect height="6" width="6" fill="#ffffff"/><line x1="0" y1="0" x2="0" y2="6" stroke="#bbbbbb" stroke-width="2" /></pattern></defs><rect height="24" width="96.7" rx="1" ry="1" x="1" y="1" fill="url(#pattern)" /><g transform="translate(0, 8)"><path fill="#000000" d="M27.15 10L20.86 10L20.86 8.37L23.02 8.37L23.02 1.73L20.86 1.73L20.86 0.10L27.15 0.10L27.15 1.73L25.01 1.73L25.01 8.37L27.15 8.37L27.15 10ZM31.42-0.02L31.42-0.02Q32.27-0.02 32.96 0.18Q33.65 0.37 34.14 0.77Q34.64 1.17 34.90 1.78Q35.17 2.40 35.17 3.23L35.17 3.23Q35.17 4.10 34.82 4.80Q34.46 5.50 33.65 5.87L33.65 5.87Q33.92 6.29 34.22 6.79Q34.53 7.30 34.82 7.85Q35.10 8.40 35.37 8.95Q35.63 9.50 35.82 10L35.82 10L33.76 10Q33.39 9.04 32.90 8.15Q32.42 7.26 31.86 6.35L31.86 6.35L30.83 6.35L30.83 10L28.86 10L28.86 0.24Q29.15 0.18 29.50 0.12Q29.84 0.06 30.19 0.04Q30.54 0.02 30.86 0Q31.18-0.02 31.42-0.02ZM33.17 3.22L33.17 3.22Q33.17 2.43 32.69 2.06Q32.21 1.70 31.42 1.70L31.42 1.70Q31.31 1.70 31.15 1.70Q30.99 1.71 30.83 1.74L30.83 1.74L30.83 4.72L31.26 4.72Q32.27 4.72 32.72 4.33Q33.17 3.94 33.17 3.22ZM40.74 10.21L40.74 10.21Q38.64 10.21 37.54 8.86Q36.43 7.52 36.43 5.04L36.43 5.04Q36.43 3.81 36.77 2.85Q37.10 1.89 37.70 1.22Q38.30 0.56 39.13 0.22Q39.95-0.13 40.93-0.13L40.93-0.13Q41.46-0.13 41.88-0.04Q42.30 0.05 42.62 0.16Q42.94 0.27 43.16 0.40Q43.38 0.53 43.49 0.59L43.49 0.59L42.98 2.16Q42.61 1.92 42.09 1.75Q41.57 1.58 40.90 1.58L40.90 1.58Q40.43 1.58 39.99 1.75Q39.55 1.92 39.21 2.31Q38.86 2.70 38.65 3.36Q38.43 4.02 38.43 4.99L38.43 4.99Q38.43 6.69 39.02 7.59Q39.60 8.50 40.93 8.50L40.93 8.50Q41.70 8.50 42.20 8.32Q42.70 8.14 43.01 7.97L43.01 7.97L43.50 9.52Q43.09 9.78 42.38 9.99Q41.66 10.21 40.74 10.21ZM59.22 8.10L59.47 9.68Q59.42 9.71 59.26 9.79Q59.09 9.87 58.82 9.96Q58.54 10.05 58.15 10.11Q57.76 10.18 57.26 10.18L57.26 10.18Q55.90 10.18 55.28 9.37Q54.66 8.56 54.66 7.01L54.66 7.01L54.66 0.62L52.58 0.62L52.58-1.01L56.62-1.01L56.62 7.15Q56.62 7.92 56.93 8.19Q57.23 8.46 57.70 8.46L57.70 8.46Q58.29 8.46 58.69 8.30Q59.09 8.14 59.22 8.10L59.22 8.10ZM67.55 6.22L67.55 6.22Q67.55 7.12 67.30 7.85Q67.04 8.58 66.58 9.10Q66.11 9.63 65.46 9.92Q64.82 10.21 64.02 10.21L64.02 10.21Q63.22 10.21 62.57 9.92Q61.92 9.63 61.45 9.10Q60.98 8.58 60.72 7.85Q60.46 7.12 60.46 6.22L60.46 6.22Q60.46 5.34 60.73 4.62Q60.99 3.89 61.46 3.37Q61.94 2.85 62.59 2.57Q63.25 2.29 64.02 2.29L64.02 2.29Q64.80 2.29 65.45 2.57Q66.10 2.85 66.57 3.37Q67.04 3.89 67.30 4.62Q67.55 5.34 67.55 6.22ZM62.46 6.24L62.46 6.24Q62.46 7.25 62.82 7.87Q63.18 8.50 63.98 8.50L63.98 8.50Q64.75 8.50 65.14 7.87Q65.54 7.25 65.54 6.24L65.54 6.24Q65.54 5.23 65.18 4.62Q64.82 4 64.02 4L64.02 4Q63.25 4 62.86 4.62Q62.46 5.23 62.46 6.24ZM70.53 6L70.53 6Q70.53 6.93 70.86 7.42Q71.20 7.90 71.92 7.90L71.92 7.90Q72.24 7.90 72.52 7.82Q72.80 7.74 73.02 7.62L73.02 7.62L73.02 4Q72.80 3.95 72.62 3.94Q72.45 3.92 72.26 3.92L72.26 3.92Q70.53 3.92 70.53 6ZM75.01 2.72L75.01 9.09Q75.01 10.93 74.12 11.81Q73.23 12.69 71.26 12.69L71.26 12.69Q70.56 12.69 69.91 12.54Q69.26 12.40 68.67 12.21L68.67 12.21L69.04 10.54Q69.50 10.72 70.02 10.87Q70.53 11.02 71.30 11.02L71.30 11.02Q71.81 11.02 72.14 10.90Q72.48 10.78 72.67 10.58Q72.86 10.37 72.94 10.09Q73.02 9.81 73.02 9.49L73.02 9.49L73.02 9.18Q72.61 9.34 72.26 9.42Q71.92 9.50 71.52 9.50L71.52 9.50Q70.05 9.50 69.29 8.58Q68.53 7.65 68.53 6L68.53 6Q68.53 4.14 69.55 3.23Q70.58 2.32 72.34 2.32L72.34 2.32Q73.57 2.32 75.01 2.72L75.01 2.72Z"/></g></svg>