<?xml version="1.0" encoding="UTF-8"?>
<svg height="34" width="78.4" version="1.1" xmlns="http://www.w3.org/2000/svg">
    <rect
        height="32"
        width="76.4"
        rx="1"
        ry="1"
        x="1"
        y="1"
        fill="#f68712"
        stroke="#6c3a04"
        stroke-width="1"
         />
    <g transform="translate(0, 14)">
        <path fill="#6c3a04" d="M19.30-6.33L22.74-6.33L22.74 11L19.30 11L19.30 3.36L14.70 3.36L14.70 11L11.26 11L11.26-6.33L14.70-6.33L14.70 0.50L19.30 0.50L19.30-6.33ZM37.69 11L33.97 11Q33.44 9.57 32.67 7.84Q31.90 6.10 31.06 4.36L31.06 4.36Q30.24 6.02 29.43 7.79Q28.62 9.57 28.03 11L28.03 11L24.31 11Q24.59 10.24 25.13 9.18Q25.68 8.12 26.34 6.88Q27.00 5.65 27.72 4.35Q28.45 3.05 29.12 1.84L29.12 1.84L24.59-6.33L28.31-6.33L31.06-0.79L33.94-6.33L37.41-6.33L32.99 1.76Q33.74 2.96 34.47 4.28Q35.20 5.60 35.83 6.84Q36.46 8.09 36.94 9.17Q37.41 10.24 37.69 11L37.69 11ZM39.65-6.33L42.51-6.33Q42.70-5.74 43.00-4.82Q43.29-3.90 43.63-2.83Q43.96-1.77 44.30-0.68Q44.64 0.42 44.94 1.34L44.94 1.34Q45.28 0.30 45.64-0.80Q46.01-1.91 46.34-2.93Q46.68-3.95 46.96-4.85Q47.24-5.74 47.46-6.33L47.46-6.33L50.32-6.33Q50.52-4.06 50.70-1.91Q50.88 0.25 51.01 2.36Q51.13 4.48 51.22 6.62Q51.30 8.76 51.36 11L51.36 11L48.19 11L48.36-2.47L46.23 4.87L43.71 4.87L41.67-2.47L41.81 11L38.64 11Q38.73 8.87 38.83 6.58Q38.92 4.28 39.04 2.01Q39.15-0.26 39.30-2.38Q39.46-4.51 39.65-6.33L39.65-6.33ZM64.88 8.14L64.88 11L53.99 11L53.99-6.33L57.46-6.33L57.46 8.14L64.88 8.14Z"/>
    </g>
</svg>