<?xml version="1.0" encoding="UTF-8"?>
<svg height="34" width="92.5" version="1.1" xmlns="http://www.w3.org/2000/svg">
    <rect
        height="32"
        width="90.5"
        rx="14"
        ry="14"
        x="1"
        y="1"
        fill="#b30000"
        stroke="#190000"
        stroke-width="1"
         />
    <g transform="translate(0, 14)">
        <path fill="#190000" d="M22.52 11L11.51 11L11.51 8.14L15.29 8.14L15.29-3.48L11.51-3.48L11.51-6.33L22.52-6.33L22.52-3.48L18.76-3.48L18.76 8.14L22.52 8.14L22.52 11ZM28.28 4.34L28.28 4.34Q28.28 6.10 28.94 7.22Q29.60 8.34 31.06 8.34L31.06 8.34Q31.48 8.34 31.84 8.31Q32.20 8.28 32.60 8.23L32.60 8.23L32.60 1.06Q32.20 0.84 31.70 0.68Q31.20 0.53 30.64 0.53L30.64 0.53Q29.40 0.53 28.84 1.51Q28.28 2.49 28.28 4.34ZM36.04-8.43L36.04 10.61Q35.09 10.92 33.72 11.11Q32.34 11.31 31.03 11.31L31.03 11.31Q27.95 11.31 26.37 9.49Q24.78 7.67 24.78 4.50L24.78 4.50Q24.78 1.28 26.11-0.58Q27.44-2.44 30.05-2.44L30.05-2.44Q30.75-2.44 31.42-2.29Q32.09-2.13 32.60-1.85L32.60-1.85L32.60-7.84L36.04-8.43ZM50.85-1.85L50.24 1.34Q49.90 1.26 49.44 1.17Q48.98 1.09 48.50 1.02Q48.02 0.95 47.58 0.92Q47.13 0.89 46.82 0.89L46.82 0.89Q46.09 0.89 45.39 0.96Q44.69 1.03 43.96 1.23L43.96 1.23L43.96 11L40.49 11L40.49-1.29Q41.86-1.80 43.31-2.10Q44.75-2.41 46.68-2.41L46.68-2.41Q46.96-2.41 47.48-2.38Q48.00-2.36 48.58-2.29Q49.17-2.22 49.77-2.12Q50.38-2.02 50.85-1.85L50.85-1.85ZM59.95-5.94L59.95-5.94Q59.95-4.93 59.31-4.34Q58.66-3.76 57.77-3.76L57.77-3.76Q56.87-3.76 56.24-4.34Q55.61-4.93 55.61-5.94L55.61-5.94Q55.61-6.98 56.24-7.56Q56.87-8.15 57.77-8.15L57.77-8.15Q58.66-8.15 59.31-7.56Q59.95-6.98 59.95-5.94ZM64.63 7.67L65.08 10.44Q64.01 10.94 63.07 11.13Q62.14 11.31 61.35 11.31L61.35 11.31Q60.01 11.31 59.10 10.92Q58.19 10.52 57.64 9.78Q57.10 9.04 56.87 7.98Q56.65 6.91 56.65 5.54L56.65 5.54L56.65 0.70L53.01 0.70L53.01-2.16L60.09-2.16L60.09 5.99Q60.09 7.16 60.53 7.74Q60.96 8.31 61.97 8.31L61.97 8.31Q62.44 8.31 63.12 8.19Q63.79 8.06 64.63 7.67L64.63 7.67ZM72.38 8.40L72.38 8.40Q73.64 8.40 74.32 8.21Q74.99 8.03 74.99 7.47L74.99 7.47Q74.99 7.11 74.78 6.86Q74.57 6.60 74.19 6.42Q73.81 6.24 73.32 6.07Q72.83 5.90 72.30 5.74L72.30 5.74Q71.54 5.51 70.76 5.22Q69.98 4.92 69.33 4.48Q68.69 4.03 68.27 3.34Q67.85 2.66 67.85 1.62L67.85 1.62Q67.85 0.78 68.17 0.04Q68.49-0.70 69.18-1.28Q69.86-1.85 70.93-2.17Q71.99-2.50 73.48-2.50L73.48-2.50Q74.76-2.50 75.87-2.30Q76.98-2.10 77.79-1.74L77.79-1.74L77.26 1.17Q76.78 1.03 75.77 0.71Q74.76 0.39 73.50 0.39L73.50 0.39Q72.19 0.39 71.73 0.71Q71.26 1.03 71.26 1.40L71.26 1.40Q71.26 1.70 71.47 1.94Q71.68 2.18 72.03 2.38Q72.38 2.57 72.85 2.75Q73.31 2.94 73.84 3.10L73.84 3.10Q74.60 3.36 75.41 3.66Q76.22 3.97 76.88 4.43Q77.54 4.90 77.96 5.61Q78.38 6.32 78.38 7.36L78.38 7.36Q78.38 8.17 78.07 8.90Q77.76 9.63 77.05 10.16Q76.33 10.69 75.18 11Q74.04 11.31 72.36 11.31L72.36 11.31Q70.65 11.31 69.44 10.92Q68.24 10.52 67.51 10.22L67.51 10.22L68.04 7.33Q69.02 7.72 70.13 8.06Q71.24 8.40 72.38 8.40Z"/>
    </g>
</svg>