<?xml version="1.0" encoding="UTF-8"?>
<svg height="34" width="78.4" version="1.1" xmlns="http://www.w3.org/2000/svg">
    <rect
        height="32"
        width="76.4"
        rx="1"
        ry="1"
        x="1"
        y="1"
        fill="#078193"
        stroke="#3cddf6"
        stroke-width="1"
         />
    <g transform="translate(0, 14)">
        <path fill="#3cddf6" d="M22.52 11L11.51 11L11.51 8.14L15.29 8.14L15.29-3.48L11.51-3.48L11.51-6.33L22.52-6.33L22.52-3.48L18.76-3.48L18.76 8.14L22.52 8.14L22.52 11ZM37.22 4.39L37.22 4.39Q37.22 5.96 36.77 7.23Q36.32 8.51 35.51 9.43Q34.70 10.36 33.56 10.86Q32.43 11.36 31.03 11.36L31.03 11.36Q29.63 11.36 28.49 10.86Q27.36 10.36 26.53 9.43Q25.71 8.51 25.26 7.23Q24.81 5.96 24.81 4.39L24.81 4.39Q24.81 2.85 25.27 1.58Q25.74 0.30 26.56-0.61Q27.39-1.52 28.54-2.01Q29.68-2.50 31.03-2.50L31.03-2.50Q32.40-2.50 33.53-2.01Q34.67-1.52 35.49-0.61Q36.32 0.30 36.77 1.58Q37.22 2.85 37.22 4.39ZM28.31 4.42L28.31 4.42Q28.31 6.18 28.94 7.28Q29.57 8.37 30.97 8.37L30.97 8.37Q32.32 8.37 33.00 7.28Q33.69 6.18 33.69 4.42L33.69 4.42Q33.69 2.66 33.06 1.58Q32.43 0.50 31.03 0.50L31.03 0.50Q29.68 0.50 29.00 1.58Q28.31 2.66 28.31 4.42ZM43.24-8.43L43.24 3.05Q43.74 2.46 44.26 1.80Q44.78 1.14 45.27 0.44Q45.76-0.26 46.20-0.91Q46.65-1.57 46.99-2.16L46.99-2.16L51.13-2.16Q50.63-1.52 49.98-0.76Q49.34-0.00 48.65 0.78Q47.97 1.56 47.28 2.29Q46.60 3.02 46.04 3.64L46.04 3.64Q46.74 4.31 47.55 5.25Q48.36 6.18 49.14 7.19Q49.93 8.20 50.59 9.21Q51.24 10.22 51.64 11L51.64 11L47.69 11Q47.35 10.30 46.81 9.42Q46.26 8.54 45.64 7.68Q45.03 6.83 44.40 6.06Q43.77 5.29 43.24 4.78L43.24 4.78L43.24 11L39.76 11L39.76-7.84L43.24-8.43ZM52.87 4.53L52.87 4.53Q52.87 2.80 53.40 1.48Q53.93 0.16 54.80-0.72Q55.67-1.60 56.79-2.05Q57.91-2.50 59.08-2.50L59.08-2.50Q62.00-2.50 63.51-0.77Q65.02 0.95 65.02 4.25L65.02 4.25Q65.02 4.59 65.01 4.95Q64.99 5.32 64.96 5.54L64.96 5.54L56.42 5.54Q56.42 6.83 57.49 7.57Q58.55 8.31 60.23 8.31L60.23 8.31Q61.27 8.31 62.21 8.09Q63.14 7.86 63.79 7.64L63.79 7.64L64.26 10.58Q63.37 10.89 62.36 11.10Q61.35 11.31 60.09 11.31L60.09 11.31Q58.41 11.31 57.08 10.87Q55.75 10.44 54.81 9.59Q53.88 8.73 53.37 7.47Q52.87 6.21 52.87 4.53ZM56.42 3.16L61.69 3.16Q61.69 2.63 61.55 2.14Q61.41 1.65 61.10 1.26Q60.79 0.86 60.32 0.63Q59.84 0.39 59.14 0.39L59.14 0.39Q58.47 0.39 57.98 0.61Q57.49 0.84 57.17 1.23Q56.84 1.62 56.66 2.12Q56.48 2.63 56.42 3.16L56.42 3.16Z"/>
    </g>
</svg>