<?xml version="1.0" encoding="UTF-8"?>
<svg height="322" width="90.4" version="1.1" xmlns="http://www.w3.org/2000/svg"><!--Created by Josélio de S. C. Júnior - 2021 - https://github.com/joseliojunior -->
    <rect
        height="32"
        width="88.4"
        rx="1"
        ry="1"
        x="1" y="1"
        fill="#94B0C7"
        stroke="#314a5e"
        stroke-width="1" />
    <g transform="translate(0, 12)">
        <path fill="#314a5e" stroke="none" d="M21.51 12L21.51 1.08Q22.30 0.86 23.47 0.67Q24.63 0.48 26 0.48L26 0.48Q27.34 0.48 28.23 0.85Q29.12 1.22 29.64 1.91Q30.15 2.59 30.37 3.54Q30.58 4.49 30.58 5.64L30.58 5.64L30.58 12L27.63 12L27.63 6.02Q27.63 4.44 27.27 3.74Q26.91 3.05 25.81 3.05L25.81 3.05Q25.47 3.05 25.15 3.07Q24.82 3.10 24.46 3.14L24.46 3.14L24.46 12L21.51 12ZM32.74 6.46L32.74 6.46Q32.74 4.97 33.20 3.84Q33.66 2.71 34.40 1.96Q35.14 1.20 36.10 0.82Q37.06 0.43 38.07 0.43L38.07 0.43Q40.57 0.43 41.86 1.91Q43.16 3.38 43.16 6.22L43.16 6.22Q43.16 6.50 43.15 6.82Q43.14 7.13 43.11 7.32L43.11 7.32L35.79 7.32Q35.79 8.42 36.70 9.06Q37.62 9.70 39.06 9.70L39.06 9.70Q39.94 9.70 40.75 9.50Q41.55 9.31 42.10 9.12L42.10 9.12L42.51 11.64Q41.74 11.90 40.88 12.08Q40.02 12.26 38.94 12.26L38.94 12.26Q37.50 12.26 36.36 11.89Q35.22 11.52 34.41 10.79Q33.61 10.06 33.18 8.98Q32.74 7.90 32.74 6.46ZM35.79 5.28L40.30 5.28Q40.30 4.82 40.18 4.40Q40.06 3.98 39.80 3.65Q39.54 3.31 39.13 3.11Q38.72 2.90 38.12 2.90L38.12 2.90Q37.54 2.90 37.12 3.10Q36.70 3.29 36.43 3.62Q36.15 3.96 36.00 4.39Q35.84 4.82 35.79 5.28L35.79 5.28ZM49.47 9.77L49.47 9.77Q50.55 9.77 51.13 9.61Q51.70 9.46 51.70 8.98L51.70 8.98Q51.70 8.66 51.52 8.45Q51.34 8.23 51.02 8.08Q50.70 7.92 50.28 7.78Q49.86 7.63 49.40 7.49L49.40 7.49Q48.75 7.30 48.08 7.04Q47.41 6.79 46.86 6.41Q46.30 6.02 45.94 5.44Q45.58 4.85 45.58 3.96L45.58 3.96Q45.58 3.24 45.86 2.60Q46.14 1.97 46.72 1.48Q47.31 0.98 48.22 0.71Q49.14 0.43 50.41 0.43L50.41 0.43Q51.51 0.43 52.46 0.60Q53.41 0.77 54.10 1.08L54.10 1.08L53.65 3.58Q53.24 3.46 52.38 3.18Q51.51 2.90 50.43 2.90L50.43 2.90Q49.30 2.90 48.91 3.18Q48.51 3.46 48.51 3.77L48.51 3.77Q48.51 4.03 48.69 4.24Q48.87 4.44 49.17 4.61Q49.47 4.78 49.87 4.93Q50.26 5.09 50.72 5.23L50.72 5.23Q51.37 5.45 52.06 5.71Q52.76 5.98 53.32 6.37Q53.89 6.77 54.25 7.38Q54.61 7.99 54.61 8.88L54.61 8.88Q54.61 9.58 54.34 10.20Q54.08 10.82 53.47 11.28Q52.86 11.74 51.87 12Q50.89 12.26 49.45 12.26L49.45 12.26Q47.98 12.26 46.95 11.93Q45.92 11.59 45.30 11.33L45.30 11.33L45.75 8.86Q46.59 9.19 47.54 9.48Q48.49 9.77 49.47 9.77ZM63.10 12.31L63.10 12.31Q59.96 12.31 58.30 10.30Q56.65 8.28 56.65 4.56L56.65 4.56Q56.65 2.71 57.15 1.27Q57.66-0.17 58.56-1.16Q59.46-2.16 60.69-2.68Q61.93-3.19 63.39-3.19L63.39-3.19Q64.18-3.19 64.82-3.06Q65.46-2.93 65.94-2.76Q66.42-2.59 66.74-2.40Q67.06-2.21 67.23-2.11L67.23-2.11L66.46 0.24Q65.91-0.12 65.13-0.37Q64.35-0.62 63.34-0.62L63.34-0.62Q62.65-0.62 61.99-0.37Q61.33-0.12 60.81 0.47Q60.30 1.06 59.97 2.04Q59.65 3.02 59.65 4.49L59.65 4.49Q59.65 7.03 60.52 8.39Q61.40 9.74 63.39 9.74L63.39 9.74Q64.54 9.74 65.30 9.48Q66.06 9.22 66.51 8.95L66.51 8.95L67.26 11.28Q66.63 11.66 65.56 11.99Q64.50 12.31 63.10 12.31Z"/>
    </g>
</svg>