<?xml version="1.0" encoding="UTF-8"?>
<svg height="34" width="78.4" version="1.1" xmlns="http://www.w3.org/2000/svg">
    <rect
        height="32"
        width="76.4"
        rx="1"
        ry="1"
        x="1"
        y="1"
        fill="#94B0C7"
        stroke="#314a5e"
        stroke-width="1"
         />
    <g transform="translate(0, 14)">
        <path fill="#314a5e" d="M11.76 11L11.76-1.74Q12.69-1.99 14.05-2.22Q15.40-2.44 17-2.44L17-2.44Q18.57-2.44 19.60-2.01Q20.64-1.57 21.24-0.77Q21.84 0.02 22.10 1.13Q22.35 2.24 22.35 3.58L22.35 3.58L22.35 11L18.90 11L18.90 4.03Q18.90 2.18 18.48 1.37Q18.06 0.56 16.78 0.56L16.78 0.56Q16.38 0.56 16.01 0.58Q15.63 0.61 15.21 0.67L15.21 0.67L15.21 11L11.76 11ZM24.87 4.53L24.87 4.53Q24.87 2.80 25.40 1.48Q25.93 0.16 26.80-0.72Q27.67-1.60 28.79-2.05Q29.91-2.50 31.08-2.50L31.08-2.50Q34.00-2.50 35.51-0.77Q37.02 0.95 37.02 4.25L37.02 4.25Q37.02 4.59 37.01 4.95Q36.99 5.32 36.96 5.54L36.96 5.54L28.42 5.54Q28.42 6.83 29.49 7.57Q30.55 8.31 32.23 8.31L32.23 8.31Q33.27 8.31 34.21 8.09Q35.14 7.86 35.79 7.64L35.79 7.64L36.26 10.58Q35.37 10.89 34.36 11.10Q33.35 11.31 32.09 11.31L32.09 11.31Q30.41 11.31 29.08 10.87Q27.75 10.44 26.81 9.59Q25.88 8.73 25.37 7.47Q24.87 6.21 24.87 4.53ZM28.42 3.16L33.69 3.16Q33.69 2.63 33.55 2.14Q33.41 1.65 33.10 1.26Q32.79 0.86 32.32 0.63Q31.84 0.39 31.14 0.39L31.14 0.39Q30.47 0.39 29.98 0.61Q29.49 0.84 29.17 1.23Q28.84 1.62 28.66 2.12Q28.48 2.63 28.42 3.16L28.42 3.16ZM44.38 8.40L44.38 8.40Q45.64 8.40 46.32 8.21Q46.99 8.03 46.99 7.47L46.99 7.47Q46.99 7.11 46.78 6.86Q46.57 6.60 46.19 6.42Q45.81 6.24 45.32 6.07Q44.83 5.90 44.30 5.74L44.30 5.74Q43.54 5.51 42.76 5.22Q41.98 4.92 41.33 4.48Q40.69 4.03 40.27 3.34Q39.85 2.66 39.85 1.62L39.85 1.62Q39.85 0.78 40.17 0.04Q40.49-0.70 41.18-1.28Q41.86-1.85 42.93-2.17Q43.99-2.50 45.48-2.50L45.48-2.50Q46.76-2.50 47.87-2.30Q48.98-2.10 49.79-1.74L49.79-1.74L49.26 1.17Q48.78 1.03 47.77 0.71Q46.76 0.39 45.50 0.39L45.50 0.39Q44.19 0.39 43.73 0.71Q43.26 1.03 43.26 1.40L43.26 1.40Q43.26 1.70 43.47 1.94Q43.68 2.18 44.03 2.38Q44.38 2.57 44.85 2.75Q45.31 2.94 45.84 3.10L45.84 3.10Q46.60 3.36 47.41 3.66Q48.22 3.97 48.88 4.43Q49.54 4.90 49.96 5.61Q50.38 6.32 50.38 7.36L50.38 7.36Q50.38 8.17 50.07 8.90Q49.76 9.63 49.05 10.16Q48.33 10.69 47.18 11Q46.04 11.31 44.36 11.31L44.36 11.31Q42.65 11.31 41.44 10.92Q40.24 10.52 39.51 10.22L39.51 10.22L40.04 7.33Q41.02 7.72 42.13 8.06Q43.24 8.40 44.38 8.40ZM60.29 11.36L60.29 11.36Q56.62 11.36 54.69 9.01Q52.76 6.66 52.76 2.32L52.76 2.32Q52.76 0.16 53.34-1.52Q53.93-3.20 54.98-4.36Q56.03-5.52 57.47-6.12Q58.92-6.72 60.62-6.72L60.62-6.72Q61.55-6.72 62.29-6.57Q63.03-6.42 63.59-6.22Q64.15-6.02 64.53-5.80Q64.91-5.58 65.10-5.46L65.10-5.46L64.21-2.72Q63.56-3.14 62.65-3.43Q61.74-3.73 60.57-3.73L60.57-3.73Q59.76-3.73 58.99-3.43Q58.22-3.14 57.61-2.45Q57.01-1.77 56.63-0.62Q56.26 0.53 56.26 2.24L56.26 2.24Q56.26 5.20 57.28 6.79Q58.30 8.37 60.62 8.37L60.62 8.37Q61.97 8.37 62.85 8.06Q63.73 7.75 64.26 7.44L64.26 7.44L65.13 10.16Q64.40 10.61 63.16 10.99Q61.91 11.36 60.29 11.36Z"/>
    </g>
</svg>