<?xml version="1.0" encoding="UTF-8"?>
<svg height="26" width="58.2" version="1.1" xmlns="http://www.w3.org/2000/svg"><!--Created by Josélio de S. C. Júnior - 2021 - https://github.com/joseliojunior -->
    <rect
        height="24"
        width="56.2"
        rx="1"
        ry="1"
        x="1" y="1"
        fill="#3AA2B5"
        stroke="#153b41"
        stroke-width="1" />
    <g transform="translate(0, 8)">
        <path fill="#153b41" d="M27.86 10L25.74 10L25.28 7.71L22.64 7.71L22.19 10L20.14 10Q20.85 7.07 21.57 4.66Q22.29 2.26 22.96 0.10L22.96 0.10L25.10 0.10Q25.81 2.27 26.50 4.71Q27.20 7.15 27.86 10L27.86 10ZM23.98 2.02L23.98 2.02Q23.82 2.58 23.69 3.08Q23.55 3.58 23.43 4.07Q23.31 4.56 23.21 5.06Q23.10 5.55 23.01 6.08L23.01 6.08L24.94 6.08Q24.85 5.55 24.75 5.06Q24.66 4.56 24.54 4.07Q24.42 3.58 24.28 3.08Q24.14 2.58 23.98 2.02ZM35.36 8.37L35.36 10L29.14 10L29.14 0.10L31.12 0.10L31.12 8.37L35.36 8.37Z"/>
    </g>
</svg>