<?xml version="1.0" encoding="UTF-8"?>
<svg height="34" width="78.4" version="1.1" xmlns="http://www.w3.org/2000/svg">
    <rect
        height="32"
        width="76.4"
        rx="14"
        ry="14"
        x="1"
        y="1"
        fill="#60AFFE"
        stroke="#014a93"
        stroke-width="1"
         />
    <g transform="translate(0, 14)">
        <path fill="#014a93" d="M14.26 2.32L14.26 2.32Q14.26 3.58 14.35 4.69Q14.45 5.79 14.75 6.60Q15.04 7.42 15.57 7.89Q16.10 8.37 17 8.37L17 8.37Q17.87 8.37 18.41 7.89Q18.96 7.42 19.25 6.59Q19.55 5.76 19.65 4.67Q19.74 3.58 19.74 2.32L19.74 2.32Q19.74 1.06 19.65-0.05Q19.55-1.15 19.25-1.96Q18.96-2.78 18.43-3.25Q17.90-3.73 17-3.73L17-3.73Q16.10-3.73 15.57-3.25Q15.04-2.78 14.75-1.95Q14.45-1.12 14.35-0.03Q14.26 1.06 14.26 2.32ZM10.76 2.32L10.76 2.32Q10.76-2.16 12.41-4.44Q14.06-6.72 17-6.72L17-6.72Q20.05-6.72 21.65-4.44Q23.24-2.16 23.24 2.32L23.24 2.32Q23.24 6.80 21.62 9.08Q20.00 11.36 17.03 11.36L17.03 11.36Q13.98 11.36 12.37 9.08Q10.76 6.80 10.76 2.32ZM28.28 4.34L28.28 4.34Q28.28 6.10 28.94 7.22Q29.60 8.34 31.06 8.34L31.06 8.34Q31.48 8.34 31.84 8.31Q32.20 8.28 32.60 8.23L32.60 8.23L32.60 1.06Q32.20 0.84 31.70 0.68Q31.20 0.53 30.64 0.53L30.64 0.53Q29.40 0.53 28.84 1.51Q28.28 2.49 28.28 4.34ZM36.04-8.43L36.04 10.61Q35.09 10.92 33.72 11.11Q32.34 11.31 31.03 11.31L31.03 11.31Q27.95 11.31 26.37 9.49Q24.78 7.67 24.78 4.50L24.78 4.50Q24.78 1.28 26.11-0.58Q27.44-2.44 30.05-2.44L30.05-2.44Q30.75-2.44 31.42-2.29Q32.09-2.13 32.60-1.85L32.60-1.85L32.60-7.84L36.04-8.43ZM45.95-5.94L45.95-5.94Q45.95-4.93 45.31-4.34Q44.66-3.76 43.77-3.76L43.77-3.76Q42.87-3.76 42.24-4.34Q41.61-4.93 41.61-5.94L41.61-5.94Q41.61-6.98 42.24-7.56Q42.87-8.15 43.77-8.15L43.77-8.15Q44.66-8.15 45.31-7.56Q45.95-6.98 45.95-5.94ZM50.63 7.67L51.08 10.44Q50.01 10.94 49.07 11.13Q48.14 11.31 47.35 11.31L47.35 11.31Q46.01 11.31 45.10 10.92Q44.19 10.52 43.64 9.78Q43.10 9.04 42.87 7.98Q42.65 6.91 42.65 5.54L42.65 5.54L42.65 0.70L39.01 0.70L39.01-2.16L46.09-2.16L46.09 5.99Q46.09 7.16 46.53 7.74Q46.96 8.31 47.97 8.31L47.97 8.31Q48.44 8.31 49.12 8.19Q49.79 8.06 50.63 7.67L50.63 7.67ZM53.76 11L53.76-1.74Q54.69-1.99 56.05-2.22Q57.40-2.44 59-2.44L59-2.44Q60.57-2.44 61.60-2.01Q62.64-1.57 63.24-0.77Q63.84 0.02 64.10 1.13Q64.35 2.24 64.35 3.58L64.35 3.58L64.35 11L60.90 11L60.90 4.03Q60.90 2.18 60.48 1.37Q60.06 0.56 58.78 0.56L58.78 0.56Q58.38 0.56 58.01 0.58Q57.63 0.61 57.21 0.67L57.21 0.67L57.21 11L53.76 11Z"/>
    </g>
</svg>