<?xml version="1.0" encoding="UTF-8"?>
<svg height="34" width="163" version="1.1" xmlns="http://www.w3.org/2000/svg">
    <rect
        height="32"
        width="161"
        rx="14"
        ry="14"
        x="1"
        y="1"
        fill="#384d54"
        stroke="#7b9ca7"
        stroke-width="1"
         />
    <g transform="translate(0, 14)">
        <path fill="#7b9ca7" d="M14.96-3.45L14.96 8.20Q15.10 8.23 15.26 8.23Q15.43 8.23 15.57 8.23L15.57 8.23Q16.75 8.23 17.55 7.78Q18.34 7.33 18.83 6.55Q19.32 5.76 19.53 4.69Q19.74 3.61 19.74 2.32L19.74 2.32Q19.74 1.20 19.58 0.14Q19.41-0.93 18.99-1.74Q18.57-2.55 17.84-3.04Q17.11-3.53 15.96-3.53L15.96-3.53Q15.74-3.53 15.46-3.52Q15.18-3.50 14.96-3.45L14.96-3.45ZM23.24 2.32L23.24 2.32Q23.24 4.73 22.64 6.42Q22.04 8.12 20.98 9.18Q19.91 10.24 18.44 10.73Q16.97 11.22 15.21 11.22L15.21 11.22Q14.28 11.22 13.40 11.13Q12.52 11.03 11.51 10.80L11.51 10.80L11.51-6.11Q12.69-6.36 13.72-6.44Q14.76-6.53 15.66-6.53L15.66-6.53Q17.36-6.53 18.78-6.02Q20.19-5.52 21.17-4.44Q22.15-3.36 22.70-1.70Q23.24-0.03 23.24 2.32ZM37.22 4.39L37.22 4.39Q37.22 5.96 36.77 7.23Q36.32 8.51 35.51 9.43Q34.70 10.36 33.56 10.86Q32.43 11.36 31.03 11.36L31.03 11.36Q29.63 11.36 28.49 10.86Q27.36 10.36 26.53 9.43Q25.71 8.51 25.26 7.23Q24.81 5.96 24.81 4.39L24.81 4.39Q24.81 2.85 25.27 1.58Q25.74 0.30 26.56-0.61Q27.39-1.52 28.54-2.01Q29.68-2.50 31.03-2.50L31.03-2.50Q32.40-2.50 33.53-2.01Q34.67-1.52 35.49-0.61Q36.32 0.30 36.77 1.58Q37.22 2.85 37.22 4.39ZM28.31 4.42L28.31 4.42Q28.31 6.18 28.94 7.28Q29.57 8.37 30.97 8.37L30.97 8.37Q32.32 8.37 33.00 7.28Q33.69 6.18 33.69 4.42L33.69 4.42Q33.69 2.66 33.06 1.58Q32.43 0.50 31.03 0.50L31.03 0.50Q29.68 0.50 29.00 1.58Q28.31 2.66 28.31 4.42ZM39.23 4.42L39.23 4.42Q39.23 2.99 39.68 1.73Q40.13 0.47 41.05-0.47Q41.98-1.40 43.39-1.95Q44.80-2.50 46.76-2.50L46.76-2.50Q47.94-2.50 48.89-2.33Q49.84-2.16 50.82-1.77L50.82-1.77L50.07 1.00Q49.51 0.81 48.82 0.65Q48.14 0.50 47.07 0.50L47.07 0.50Q45.84 0.50 45.01 0.79Q44.19 1.09 43.68 1.61Q43.18 2.12 42.96 2.85Q42.73 3.58 42.73 4.42L42.73 4.42Q42.73 6.24 43.75 7.28Q44.78 8.31 47.24 8.31L47.24 8.31Q48.05 8.31 48.93 8.20Q49.82 8.09 50.54 7.84L50.54 7.84L51.05 10.66Q50.32 10.94 49.28 11.13Q48.25 11.31 46.85 11.31L46.85 11.31Q44.83 11.31 43.39 10.78Q41.95 10.24 41.02 9.32Q40.10 8.40 39.67 7.14Q39.23 5.88 39.23 4.42ZM57.24-8.43L57.24 3.05Q57.74 2.46 58.26 1.80Q58.78 1.14 59.27 0.44Q59.76-0.26 60.20-0.91Q60.65-1.57 60.99-2.16L60.99-2.16L65.13-2.16Q64.63-1.52 63.98-0.76Q63.34-0.00 62.65 0.78Q61.97 1.56 61.28 2.29Q60.60 3.02 60.04 3.64L60.04 3.64Q60.74 4.31 61.55 5.25Q62.36 6.18 63.14 7.19Q63.93 8.20 64.59 9.21Q65.24 10.22 65.64 11L65.64 11L61.69 11Q61.35 10.30 60.81 9.42Q60.26 8.54 59.64 7.68Q59.03 6.83 58.40 6.06Q57.77 5.29 57.24 4.78L57.24 4.78L57.24 11L53.76 11L53.76-7.84L57.24-8.43ZM66.87 4.53L66.87 4.53Q66.87 2.80 67.40 1.48Q67.93 0.16 68.80-0.72Q69.67-1.60 70.79-2.05Q71.91-2.50 73.08-2.50L73.08-2.50Q76.00-2.50 77.51-0.77Q79.02 0.95 79.02 4.25L79.02 4.25Q79.02 4.59 79.01 4.95Q78.99 5.32 78.96 5.54L78.96 5.54L70.42 5.54Q70.42 6.83 71.49 7.57Q72.55 8.31 74.23 8.31L74.23 8.31Q75.27 8.31 76.21 8.09Q77.14 7.86 77.79 7.64L77.79 7.64L78.26 10.58Q77.37 10.89 76.36 11.10Q75.35 11.31 74.09 11.31L74.09 11.31Q72.41 11.31 71.08 10.87Q69.75 10.44 68.81 9.59Q67.88 8.73 67.37 7.47Q66.87 6.21 66.87 4.53ZM70.42 3.16L75.69 3.16Q75.69 2.63 75.55 2.14Q75.41 1.65 75.10 1.26Q74.79 0.86 74.32 0.63Q73.84 0.39 73.14 0.39L73.14 0.39Q72.47 0.39 71.98 0.61Q71.49 0.84 71.17 1.23Q70.84 1.62 70.66 2.12Q70.48 2.63 70.42 3.16L70.42 3.16ZM92.85-1.85L92.24 1.34Q91.90 1.26 91.44 1.17Q90.98 1.09 90.50 1.02Q90.02 0.95 89.58 0.92Q89.13 0.89 88.82 0.89L88.82 0.89Q88.09 0.89 87.39 0.96Q86.69 1.03 85.96 1.23L85.96 1.23L85.96 11L82.49 11L82.49-1.29Q83.86-1.80 85.31-2.10Q86.75-2.41 88.68-2.41L88.68-2.41Q88.96-2.41 89.48-2.38Q90.00-2.36 90.58-2.29Q91.17-2.22 91.77-2.12Q92.38-2.02 92.85-1.85L92.85-1.85ZM101.36 11L97.89 11L97.89 0.70L95.01 0.70L95.01-2.16L97.89-2.16L97.89-2.92Q97.89-4.51 98.35-5.56Q98.82-6.61 99.60-7.24Q100.38-7.87 101.39-8.14Q102.40-8.40 103.46-8.40L103.46-8.40Q104.56-8.40 105.70-8.21Q106.85-8.01 107.78-7.56L107.78-7.56L107.19-4.76Q106.54-4.99 105.58-5.23Q104.61-5.46 103.74-5.46L103.74-5.46Q103.27-5.46 102.83-5.38Q102.40-5.30 102.08-5.02Q101.76-4.74 101.56-4.22Q101.36-3.70 101.36-2.86L101.36-2.86L101.36-2.16L106.77-2.16L106.77 0.70L101.36 0.70L101.36 11ZM115.95-5.94L115.95-5.94Q115.95-4.93 115.31-4.34Q114.66-3.76 113.77-3.76L113.77-3.76Q112.87-3.76 112.24-4.34Q111.61-4.93 111.61-5.94L111.61-5.94Q111.61-6.98 112.24-7.56Q112.87-8.15 113.77-8.15L113.77-8.15Q114.66-8.15 115.31-7.56Q115.95-6.98 115.95-5.94ZM120.63 7.67L121.08 10.44Q120.01 10.94 119.07 11.13Q118.14 11.31 117.35 11.31L117.35 11.31Q116.01 11.31 115.10 10.92Q114.19 10.52 113.64 9.78Q113.10 9.04 112.87 7.98Q112.65 6.91 112.65 5.54L112.65 5.54L112.65 0.70L109.01 0.70L109.01-2.16L116.09-2.16L116.09 5.99Q116.09 7.16 116.53 7.74Q116.96 8.31 117.97 8.31L117.97 8.31Q118.44 8.31 119.12 8.19Q119.79 8.06 120.63 7.67L120.63 7.67ZM134.63 7.67L135.08 10.44Q134.99 10.50 134.70 10.64Q134.40 10.78 133.93 10.93Q133.45 11.08 132.77 11.20Q132.08 11.31 131.21 11.31L131.21 11.31Q128.83 11.31 127.74 9.89Q126.65 8.48 126.65 5.76L126.65 5.76L126.65-5.41L123.01-5.41L123.01-8.26L130.09-8.26L130.09 6.02Q130.09 7.36 130.62 7.84Q131.16 8.31 131.97 8.31L131.97 8.31Q133.00 8.31 133.70 8.03Q134.40 7.75 134.63 7.67L134.63 7.67ZM136.87 4.53L136.87 4.53Q136.87 2.80 137.40 1.48Q137.93 0.16 138.80-0.72Q139.67-1.60 140.79-2.05Q141.91-2.50 143.08-2.50L143.08-2.50Q146.00-2.50 147.51-0.77Q149.02 0.95 149.02 4.25L149.02 4.25Q149.02 4.59 149.01 4.95Q148.99 5.32 148.96 5.54L148.96 5.54L140.42 5.54Q140.42 6.83 141.49 7.57Q142.55 8.31 144.23 8.31L144.23 8.31Q145.27 8.31 146.21 8.09Q147.14 7.86 147.79 7.64L147.79 7.64L148.26 10.58Q147.37 10.89 146.36 11.10Q145.35 11.31 144.09 11.31L144.09 11.31Q142.41 11.31 141.08 10.87Q139.75 10.44 138.81 9.59Q137.88 8.73 137.37 7.47Q136.87 6.21 136.87 4.53ZM140.42 3.16L145.69 3.16Q145.69 2.63 145.55 2.14Q145.41 1.65 145.10 1.26Q144.79 0.86 144.32 0.63Q143.84 0.39 143.14 0.39L143.14 0.39Q142.47 0.39 141.98 0.61Q141.49 0.84 141.17 1.23Q140.84 1.62 140.66 2.12Q140.48 2.63 140.42 3.16L140.42 3.16Z"/>
    </g>
</svg>