<?xml version="1.0" encoding="UTF-8"?>
<svg height="26" width="123" version="1.1" xmlns="http://www.w3.org/2000/svg"><!--Created by Josélio de S. C. Júnior - 2021 - https://github.com/joseliojunior -->
    <rect
        height="24"
        width="121"
        rx="12"
        ry="12"
        x="1" y="1"
        fill="#384d54"
        stroke="#7b9ca7"
        stroke-width="1" />
    <g transform="translate(0, 8)">
        <path fill="#7b9ca7" d="M22.83 1.74L22.83 8.40Q22.91 8.42 23.01 8.42Q23.10 8.42 23.18 8.42L23.18 8.42Q23.86 8.42 24.31 8.16Q24.77 7.90 25.05 7.46Q25.33 7.01 25.45 6.39Q25.57 5.78 25.57 5.04L25.57 5.04Q25.57 4.40 25.47 3.79Q25.38 3.18 25.14 2.72Q24.90 2.26 24.48 1.98Q24.06 1.70 23.41 1.70L23.41 1.70Q23.28 1.70 23.12 1.70Q22.96 1.71 22.83 1.74L22.83 1.74ZM27.57 5.04L27.57 5.04Q27.57 6.42 27.22 7.38Q26.88 8.35 26.27 8.96Q25.66 9.57 24.82 9.85Q23.98 10.13 22.98 10.13L22.98 10.13Q22.45 10.13 21.94 10.07Q21.44 10.02 20.86 9.89L20.86 9.89L20.86 0.22Q21.54 0.08 22.13 0.03Q22.72-0.02 23.23-0.02L23.23-0.02Q24.21-0.02 25.02 0.27Q25.82 0.56 26.38 1.18Q26.94 1.79 27.26 2.74Q27.57 3.70 27.57 5.04ZM35.55 6.22L35.55 6.22Q35.55 7.12 35.30 7.85Q35.04 8.58 34.58 9.10Q34.11 9.63 33.46 9.92Q32.82 10.21 32.02 10.21L32.02 10.21Q31.22 10.21 30.57 9.92Q29.92 9.63 29.45 9.10Q28.98 8.58 28.72 7.85Q28.46 7.12 28.46 6.22L28.46 6.22Q28.46 5.34 28.73 4.62Q28.99 3.89 29.46 3.37Q29.94 2.85 30.59 2.57Q31.25 2.29 32.02 2.29L32.02 2.29Q32.80 2.29 33.45 2.57Q34.10 2.85 34.57 3.37Q35.04 3.89 35.30 4.62Q35.55 5.34 35.55 6.22ZM30.46 6.24L30.46 6.24Q30.46 7.25 30.82 7.87Q31.18 8.50 31.98 8.50L31.98 8.50Q32.75 8.50 33.14 7.87Q33.54 7.25 33.54 6.24L33.54 6.24Q33.54 5.23 33.18 4.62Q32.82 4 32.02 4L32.02 4Q31.25 4 30.86 4.62Q30.46 5.23 30.46 6.24ZM36.70 6.24L36.70 6.24Q36.70 5.42 36.96 4.70Q37.22 3.98 37.74 3.45Q38.27 2.91 39.08 2.60Q39.89 2.29 41.01 2.29L41.01 2.29Q41.68 2.29 42.22 2.38Q42.77 2.48 43.33 2.70L43.33 2.70L42.90 4.29Q42.58 4.18 42.18 4.09Q41.79 4 41.18 4L41.18 4Q40.48 4 40.01 4.17Q39.54 4.34 39.25 4.63Q38.96 4.93 38.83 5.34Q38.70 5.76 38.70 6.24L38.70 6.24Q38.70 7.28 39.29 7.87Q39.87 8.46 41.28 8.46L41.28 8.46Q41.74 8.46 42.25 8.40Q42.75 8.34 43.17 8.19L43.17 8.19L43.46 9.81Q43.04 9.97 42.45 10.07Q41.86 10.18 41.06 10.18L41.06 10.18Q39.90 10.18 39.08 9.87Q38.26 9.57 37.73 9.04Q37.20 8.51 36.95 7.79Q36.70 7.07 36.70 6.24ZM46.99-1.10L46.99 5.46Q47.28 5.12 47.58 4.74Q47.87 4.37 48.15 3.97Q48.43 3.57 48.69 3.19Q48.94 2.82 49.14 2.48L49.14 2.48L51.50 2.48Q51.22 2.85 50.85 3.28Q50.48 3.71 50.09 4.16Q49.70 4.61 49.30 5.02Q48.91 5.44 48.59 5.79L48.59 5.79Q48.99 6.18 49.46 6.71Q49.92 7.25 50.37 7.82Q50.82 8.40 51.19 8.98Q51.57 9.55 51.79 10L51.79 10L49.54 10Q49.34 9.60 49.03 9.10Q48.72 8.59 48.37 8.10Q48.02 7.62 47.66 7.18Q47.30 6.74 46.99 6.45L46.99 6.45L46.99 10L45.01 10L45.01-0.77L46.99-1.10ZM52.50 6.30L52.50 6.30Q52.50 5.31 52.80 4.56Q53.10 3.81 53.60 3.30Q54.10 2.80 54.74 2.54Q55.38 2.29 56.05 2.29L56.05 2.29Q57.71 2.29 58.58 3.27Q59.44 4.26 59.44 6.14L59.44 6.14Q59.44 6.34 59.43 6.54Q59.42 6.75 59.41 6.88L59.41 6.88L54.53 6.88Q54.53 7.62 55.14 8.04Q55.74 8.46 56.70 8.46L56.70 8.46Q57.30 8.46 57.83 8.34Q58.37 8.21 58.74 8.08L58.74 8.08L59.01 9.76Q58.50 9.94 57.92 10.06Q57.34 10.18 56.62 10.18L56.62 10.18Q55.66 10.18 54.90 9.93Q54.14 9.68 53.61 9.19Q53.07 8.70 52.78 7.98Q52.50 7.26 52.50 6.30ZM54.53 5.52L57.54 5.52Q57.54 5.22 57.46 4.94Q57.38 4.66 57.20 4.43Q57.02 4.21 56.75 4.07Q56.48 3.94 56.08 3.94L56.08 3.94Q55.70 3.94 55.42 4.06Q55.14 4.19 54.95 4.42Q54.77 4.64 54.66 4.93Q54.56 5.22 54.53 5.52L54.53 5.52ZM67.34 2.66L66.99 4.48Q66.80 4.43 66.54 4.38Q66.27 4.34 66 4.30Q65.73 4.26 65.47 4.24Q65.22 4.22 65.04 4.22L65.04 4.22Q64.62 4.22 64.22 4.26Q63.82 4.30 63.41 4.42L63.41 4.42L63.41 10L61.42 10L61.42 2.98Q62.21 2.69 63.03 2.51Q63.86 2.34 64.96 2.34L64.96 2.34Q65.12 2.34 65.42 2.35Q65.71 2.37 66.05 2.41Q66.38 2.45 66.73 2.50Q67.07 2.56 67.34 2.66L67.34 2.66ZM72.21 10L70.22 10L70.22 4.11L68.58 4.11L68.58 2.48L70.22 2.48L70.22 2.05Q70.22 1.14 70.49 0.54Q70.75-0.06 71.20-0.42Q71.65-0.78 72.22-0.94Q72.80-1.09 73.41-1.09L73.41-1.09Q74.03-1.09 74.69-0.98Q75.34-0.86 75.87-0.61L75.87-0.61L75.54 0.99Q75.17 0.86 74.62 0.73Q74.06 0.59 73.57 0.59L73.57 0.59Q73.30 0.59 73.05 0.64Q72.80 0.69 72.62 0.85Q72.43 1.01 72.32 1.30Q72.21 1.60 72.21 2.08L72.21 2.08L72.21 2.48L75.30 2.48L75.30 4.11L72.21 4.11L72.21 10ZM80.54 0.32L80.54 0.32Q80.54 0.90 80.18 1.23Q79.81 1.57 79.30 1.57L79.30 1.57Q78.78 1.57 78.42 1.23Q78.06 0.90 78.06 0.32L78.06 0.32Q78.06-0.27 78.42-0.61Q78.78-0.94 79.30-0.94L79.30-0.94Q79.81-0.94 80.18-0.61Q80.54-0.27 80.54 0.32ZM83.22 8.10L83.47 9.68Q82.86 9.97 82.33 10.07Q81.79 10.18 81.34 10.18L81.34 10.18Q80.58 10.18 80.06 9.95Q79.54 9.73 79.22 9.30Q78.91 8.88 78.78 8.27Q78.66 7.66 78.66 6.88L78.66 6.88L78.66 4.11L76.58 4.11L76.58 2.48L80.62 2.48L80.62 7.14Q80.62 7.81 80.87 8.14Q81.12 8.46 81.70 8.46L81.70 8.46Q81.97 8.46 82.35 8.39Q82.74 8.32 83.22 8.10L83.22 8.10ZM91.22 8.10L91.47 9.68Q91.42 9.71 91.26 9.79Q91.09 9.87 90.82 9.96Q90.54 10.05 90.15 10.11Q89.76 10.18 89.26 10.18L89.26 10.18Q87.90 10.18 87.28 9.37Q86.66 8.56 86.66 7.01L86.66 7.01L86.66 0.62L84.58 0.62L84.58-1.01L88.62-1.01L88.62 7.15Q88.62 7.92 88.93 8.19Q89.23 8.46 89.70 8.46L89.70 8.46Q90.29 8.46 90.69 8.30Q91.09 8.14 91.22 8.10L91.22 8.10ZM92.50 6.30L92.50 6.30Q92.50 5.31 92.80 4.56Q93.10 3.81 93.60 3.30Q94.10 2.80 94.74 2.54Q95.38 2.29 96.05 2.29L96.05 2.29Q97.71 2.29 98.58 3.27Q99.44 4.26 99.44 6.14L99.44 6.14Q99.44 6.34 99.43 6.54Q99.42 6.75 99.41 6.88L99.41 6.88L94.53 6.88Q94.53 7.62 95.14 8.04Q95.74 8.46 96.70 8.46L96.70 8.46Q97.30 8.46 97.83 8.34Q98.37 8.21 98.74 8.08L98.74 8.08L99.01 9.76Q98.50 9.94 97.92 10.06Q97.34 10.18 96.62 10.18L96.62 10.18Q95.66 10.18 94.90 9.93Q94.14 9.68 93.61 9.19Q93.07 8.70 92.78 7.98Q92.50 7.26 92.50 6.30ZM94.53 5.52L97.54 5.52Q97.54 5.22 97.46 4.94Q97.38 4.66 97.20 4.43Q97.02 4.21 96.75 4.07Q96.48 3.94 96.08 3.94L96.08 3.94Q95.70 3.94 95.42 4.06Q95.14 4.19 94.95 4.42Q94.77 4.64 94.66 4.93Q94.56 5.22 94.53 5.52L94.53 5.52Z"/>
    </g>
</svg>