<?xml version="1.0" encoding="UTF-8"?>
<svg height="34" width="78.4" version="1.1" xmlns="http://www.w3.org/2000/svg">
    <rect
        height="32"
        width="76.4"
        rx="1"
        ry="1"
        x="1"
        y="1"
        fill="#dbb284"
        stroke="#734d21"
        stroke-width="1"
         />
    <g transform="translate(0, 14)">
        <path fill="#734d21" d="M16.27-6.53L16.27-6.53Q19.58-6.53 21.40-5.17Q23.22-3.81 23.22-0.73L23.22-0.73Q23.22 2.38 21.38 3.76Q19.55 5.15 16.19 5.15L16.19 5.15L14.96 5.15L14.96 11L11.51 11L11.51-6.11Q12.02-6.22 12.65-6.30Q13.28-6.39 13.92-6.43Q14.56-6.47 15.18-6.50Q15.80-6.53 16.27-6.53ZM16.66-3.53L16.66-3.53Q16.36-3.53 15.81-3.52Q15.26-3.50 14.96-3.45L14.96-3.45L14.96 2.15L16.36 2.15Q18.01 2.15 18.85 1.49Q19.69 0.84 19.69-0.76L19.69-0.76Q19.69-2.27 18.86-2.90Q18.04-3.53 16.66-3.53ZM31.03 8.54L31.03 8.54Q31.59 8.54 32.12 8.52Q32.65 8.51 33.04 8.45L33.04 8.45L33.04 5.43Q32.71 5.37 32.23 5.33Q31.76 5.29 31.36 5.29L31.36 5.29Q30.83 5.29 30.33 5.36Q29.82 5.43 29.45 5.60Q29.07 5.76 28.84 6.07Q28.62 6.38 28.62 6.88L28.62 6.88Q28.62 7.78 29.29 8.16Q29.96 8.54 31.03 8.54ZM30.72-2.50L30.72-2.50Q32.34-2.50 33.42-2.12Q34.50-1.74 35.14-1.05Q35.79-0.37 36.07 0.63Q36.35 1.62 36.35 2.85L36.35 2.85L36.35 10.69Q35.59 10.86 34.11 11.08Q32.62 11.31 30.78 11.31L30.78 11.31Q29.52 11.31 28.49 11.08Q27.47 10.86 26.74 10.34Q26.02 9.82 25.62 9.00Q25.23 8.17 25.23 6.97L25.23 6.97Q25.23 5.82 25.68 5.04Q26.13 4.25 26.88 3.78Q27.64 3.30 28.62 3.09Q29.60 2.88 30.66 2.88L30.66 2.88Q32.01 2.88 33.04 3.10L33.04 3.10L33.04 2.68Q33.04 1.70 32.43 1.05Q31.81 0.39 30.30 0.39L30.30 0.39Q29.32 0.39 28.41 0.53Q27.50 0.67 26.94 0.86L26.94 0.86L26.46-1.91Q27.11-2.13 28.28-2.31Q29.46-2.50 30.72-2.50ZM49.62 11L47.02 11Q46.71 10.13 46.44 9.40Q46.18 8.68 45.94 7.99Q45.70 7.30 45.46 6.56Q45.22 5.82 44.97 4.92L44.97 4.92Q44.69 5.82 44.47 6.53Q44.24 7.25 44.01 7.95Q43.77 8.65 43.52 9.38Q43.26 10.10 42.90 11L42.90 11L40.30 11Q39.96 9.77 39.67 8.27Q39.37 6.77 39.12 5.08Q38.87 3.38 38.67 1.56Q38.48-0.26 38.31-2.16L38.31-2.16L41.25-2.16Q41.36 0.28 41.49 2.60Q41.61 4.92 41.95 7.39L41.95 7.39Q42.31 6.32 42.58 5.41Q42.84 4.50 43.05 3.68Q43.26 2.85 43.45 2.08Q43.63 1.31 43.82 0.50L43.82 0.50L46.32 0.50Q46.48 1.31 46.67 2.08Q46.85 2.85 47.06 3.68Q47.27 4.50 47.51 5.41Q47.74 6.32 48.08 7.39L48.08 7.39Q48.25 6.10 48.36 4.92Q48.47 3.75 48.54 2.59Q48.61 1.42 48.65 0.26Q48.70-0.90 48.75-2.16L48.75-2.16L51.69-2.16Q51.38 1.68 50.84 5.06Q50.29 8.45 49.62 11L49.62 11ZM53.76 11L53.76-1.74Q54.69-1.99 56.05-2.22Q57.40-2.44 59-2.44L59-2.44Q60.57-2.44 61.60-2.01Q62.64-1.57 63.24-0.77Q63.84 0.02 64.10 1.13Q64.35 2.24 64.35 3.58L64.35 3.58L64.35 11L60.90 11L60.90 4.03Q60.90 2.18 60.48 1.37Q60.06 0.56 58.78 0.56L58.78 0.56Q58.38 0.56 58.01 0.58Q57.63 0.61 57.21 0.67L57.21 0.67L57.21 11L53.76 11Z"/>
    </g>
</svg>