<?xml version="1.0" encoding="UTF-8"?>
<svg height="322" width="102.5" version="1.1" xmlns="http://www.w3.org/2000/svg"><!--Created by Josélio de S. C. Júnior - 2021 - https://github.com/joseliojunior -->
    <rect
        height="32"
        width="100.5"
        rx="16"
        ry="16"
        x="1" y="1"
        fill="#00004c"
        stroke="#0000e6"
        stroke-width="1" />
    <g transform="translate(0, 12)">
        <path fill="#0000e6" stroke="none" d="M20.60-2.86L31.40-2.86L31.40-0.41L27.49-0.41L27.49 12L24.51 12L24.51-0.41L20.60-0.41L20.60-2.86ZM32.74 6.46L32.74 6.46Q32.74 4.97 33.20 3.84Q33.66 2.71 34.40 1.96Q35.14 1.20 36.10 0.82Q37.06 0.43 38.07 0.43L38.07 0.43Q40.57 0.43 41.86 1.91Q43.16 3.38 43.16 6.22L43.16 6.22Q43.16 6.50 43.15 6.82Q43.14 7.13 43.11 7.32L43.11 7.32L35.79 7.32Q35.79 8.42 36.70 9.06Q37.62 9.70 39.06 9.70L39.06 9.70Q39.94 9.70 40.75 9.50Q41.55 9.31 42.10 9.12L42.10 9.12L42.51 11.64Q41.74 11.90 40.88 12.08Q40.02 12.26 38.94 12.26L38.94 12.26Q37.50 12.26 36.36 11.89Q35.22 11.52 34.41 10.79Q33.61 10.06 33.18 8.98Q32.74 7.90 32.74 6.46ZM35.79 5.28L40.30 5.28Q40.30 4.82 40.18 4.40Q40.06 3.98 39.80 3.65Q39.54 3.31 39.13 3.11Q38.72 2.90 38.12 2.90L38.12 2.90Q37.54 2.90 37.12 3.10Q36.70 3.29 36.43 3.62Q36.15 3.96 36.00 4.39Q35.84 4.82 35.79 5.28L35.79 5.28ZM55.02 0.98L54.49 3.72Q54.20 3.65 53.80 3.58Q53.41 3.50 53 3.44Q52.59 3.38 52.21 3.36Q51.82 3.34 51.56 3.34L51.56 3.34Q50.94 3.34 50.34 3.40Q49.74 3.46 49.11 3.62L49.11 3.62L49.11 12L46.14 12L46.14 1.46Q47.31 1.03 48.55 0.77Q49.78 0.50 51.44 0.50L51.44 0.50Q51.68 0.50 52.12 0.53Q52.57 0.55 53.07 0.61Q53.58 0.67 54.09 0.76Q54.61 0.84 55.02 0.98L55.02 0.98ZM67.02 0.98L66.49 3.72Q66.20 3.65 65.80 3.58Q65.41 3.50 65 3.44Q64.59 3.38 64.21 3.36Q63.82 3.34 63.56 3.34L63.56 3.34Q62.94 3.34 62.34 3.40Q61.74 3.46 61.11 3.62L61.11 3.62L61.11 12L58.14 12L58.14 1.46Q59.31 1.03 60.55 0.77Q61.78 0.50 63.44 0.50L63.44 0.50Q63.68 0.50 64.12 0.53Q64.57 0.55 65.07 0.61Q65.58 0.67 66.09 0.76Q66.61 0.84 67.02 0.98L67.02 0.98ZM74.02 9.89L74.02 9.89Q74.50 9.89 74.96 9.88Q75.42 9.86 75.75 9.82L75.75 9.82L75.75 7.22Q75.46 7.18 75.06 7.14Q74.65 7.10 74.31 7.10L74.31 7.10Q73.86 7.10 73.42 7.16Q72.99 7.22 72.67 7.37Q72.34 7.51 72.15 7.78Q71.96 8.04 71.96 8.47L71.96 8.47Q71.96 9.24 72.54 9.56Q73.11 9.89 74.02 9.89ZM73.76 0.43L73.76 0.43Q75.15 0.43 76.08 0.76Q77 1.08 77.55 1.67Q78.10 2.26 78.34 3.11Q78.58 3.96 78.58 5.02L78.58 5.02L78.58 11.74Q77.94 11.88 76.66 12.07Q75.39 12.26 73.81 12.26L73.81 12.26Q72.73 12.26 71.85 12.07Q70.98 11.88 70.35 11.44Q69.73 10.99 69.39 10.28Q69.06 9.58 69.06 8.54L69.06 8.54Q69.06 7.56 69.44 6.89Q69.82 6.22 70.47 5.81Q71.12 5.40 71.96 5.22Q72.80 5.04 73.71 5.04L73.71 5.04Q74.86 5.04 75.75 5.23L75.75 5.23L75.75 4.87Q75.75 4.03 75.22 3.47Q74.70 2.90 73.40 2.90L73.40 2.90Q72.56 2.90 71.78 3.02Q71 3.14 70.52 3.31L70.52 3.31L70.11 0.94Q70.66 0.74 71.67 0.59Q72.68 0.43 73.76 0.43Z"/>
    </g>
</svg>