<?xml version="1.0" encoding="UTF-8"?>
<svg height="34" width="64.3" version="1.1" xmlns="http://www.w3.org/2000/svg">
    <rect
        height="32"
        width="62.3"
        rx="1"
        ry="1"
        x="1"
        y="1"
        fill="#f34b7d"
        stroke="#990b35"
        stroke-width="1"
         />
    <g transform="translate(0, 14)">
        <path fill="#990b35" d="M18.29 11.36L18.29 11.36Q14.62 11.36 12.69 9.01Q10.76 6.66 10.76 2.32L10.76 2.32Q10.76 0.16 11.34-1.52Q11.93-3.20 12.98-4.36Q14.03-5.52 15.47-6.12Q16.92-6.72 18.62-6.72L18.62-6.72Q19.55-6.72 20.29-6.57Q21.03-6.42 21.59-6.22Q22.15-6.02 22.53-5.80Q22.91-5.58 23.10-5.46L23.10-5.46L22.21-2.72Q21.56-3.14 20.65-3.43Q19.74-3.73 18.57-3.73L18.57-3.73Q17.76-3.73 16.99-3.43Q16.22-3.14 15.61-2.45Q15.01-1.77 14.63-0.62Q14.26 0.53 14.26 2.24L14.26 2.24Q14.26 5.20 15.28 6.79Q16.30 8.37 18.62 8.37L18.62 8.37Q19.97 8.37 20.85 8.06Q21.73 7.75 22.26 7.44L22.26 7.44L23.13 10.16Q22.40 10.61 21.16 10.99Q19.91 11.36 18.29 11.36ZM25.12 5.06L25.12 2.24L29.52 2.24L29.52-2.64L32.48-2.64L32.48 2.24L36.88 2.24L36.88 5.06L32.48 5.06L32.48 9.94L29.52 9.94L29.52 5.06L25.12 5.06ZM39.12 5.06L39.12 2.24L43.52 2.24L43.52-2.64L46.48-2.64L46.48 2.24L50.88 2.24L50.88 5.06L46.48 5.06L46.48 9.94L43.52 9.94L43.52 5.06L39.12 5.06Z"/>
    </g>
</svg>