<?xml version="1.0" encoding="UTF-8"?><svg height="26" width="98.7" version="1.1" xmlns="http://www.w3.org/2000/svg"><!--Created by Josélio de S. C. Júnior - 2021 - https://github.com/joseliojunior --><rect height="24" width="96.7" rx="12" ry="12" x="1" y="1" fill="#e10098" stroke="#470031" stroke-width="1" /><g transform="translate(0, 8)"><path fill="#470031" d="M24.99 1.58L24.99 1.58Q24.29 1.58 23.81 1.84Q23.33 2.10 23.02 2.55Q22.70 3.01 22.57 3.64Q22.43 4.27 22.43 5.04L22.43 5.04Q22.43 6.82 22.99 7.66Q23.55 8.50 24.64 8.50L24.64 8.50Q24.82 8.50 25.02 8.48Q25.23 8.46 25.41 8.43L25.41 8.43L25.41 4.82L27.38 4.82L27.38 9.76Q27.02 9.89 26.28 10.05Q25.54 10.21 24.48 10.21L24.48 10.21Q23.55 10.21 22.81 9.88Q22.06 9.55 21.54 8.90Q21.01 8.26 20.72 7.29Q20.43 6.32 20.43 5.04L20.43 5.04Q20.43 3.78 20.77 2.81Q21.10 1.84 21.68 1.18Q22.26 0.53 23.04 0.20Q23.82-0.13 24.72-0.13L24.72-0.13Q25.30-0.13 25.75-0.04Q26.21 0.05 26.54 0.16Q26.88 0.27 27.10 0.40Q27.31 0.53 27.42 0.59L27.42 0.59L26.91 2.16Q26.56 1.94 26.05 1.76Q25.54 1.58 24.99 1.58ZM35.34 2.66L34.99 4.48Q34.80 4.43 34.54 4.38Q34.27 4.34 34 4.30Q33.73 4.26 33.47 4.24Q33.22 4.22 33.04 4.22L33.04 4.22Q32.62 4.22 32.22 4.26Q31.82 4.30 31.41 4.42L31.41 4.42L31.41 10L29.42 10L29.42 2.98Q30.21 2.69 31.03 2.51Q31.86 2.34 32.96 2.34L32.96 2.34Q33.12 2.34 33.42 2.35Q33.71 2.37 34.05 2.41Q34.38 2.45 34.73 2.50Q35.07 2.56 35.34 2.66L35.34 2.66ZM40.02 8.59L40.02 8.59Q40.34 8.59 40.64 8.58Q40.94 8.58 41.17 8.54L41.17 8.54L41.17 6.82Q40.98 6.78 40.70 6.76Q40.43 6.74 40.21 6.74L40.21 6.74Q39.90 6.74 39.62 6.78Q39.33 6.82 39.11 6.91Q38.90 7.01 38.77 7.18Q38.64 7.36 38.64 7.65L38.64 7.65Q38.64 8.16 39.02 8.38Q39.41 8.59 40.02 8.59ZM39.84 2.29L39.84 2.29Q40.77 2.29 41.38 2.50Q42 2.72 42.37 3.11Q42.74 3.50 42.90 4.07Q43.06 4.64 43.06 5.34L43.06 5.34L43.06 9.82Q42.62 9.92 41.78 10.05Q40.93 10.18 39.87 10.18L39.87 10.18Q39.15 10.18 38.57 10.05Q37.98 9.92 37.57 9.62Q37.15 9.33 36.93 8.86Q36.70 8.38 36.70 7.70L36.70 7.70Q36.70 7.04 36.96 6.59Q37.22 6.14 37.65 5.87Q38.08 5.60 38.64 5.48Q39.20 5.36 39.81 5.36L39.81 5.36Q40.58 5.36 41.17 5.49L41.17 5.49L41.17 5.25Q41.17 4.69 40.82 4.31Q40.46 3.94 39.60 3.94L39.60 3.94Q39.04 3.94 38.52 4.02Q38 4.10 37.68 4.21L37.68 4.21L37.41 2.62Q37.78 2.50 38.45 2.39Q39.12 2.29 39.84 2.29ZM49.50 6.30L49.50 6.30Q49.50 5.30 49.10 4.65Q48.70 4 47.89 4L47.89 4Q47.66 4 47.41 4.02Q47.15 4.05 46.98 4.06L46.98 4.06L46.98 8.19Q47.17 8.32 47.49 8.40Q47.81 8.48 48.13 8.48L48.13 8.48Q48.83 8.48 49.17 7.91Q49.50 7.34 49.50 6.30ZM51.50 6.24L51.50 6.24Q51.50 7.10 51.31 7.83Q51.12 8.56 50.75 9.08Q50.38 9.60 49.82 9.89Q49.26 10.18 48.53 10.18L48.53 10.18Q47.78 10.18 46.98 9.81L46.98 9.81L46.98 12.64L45.01 12.64L45.01 2.72Q45.55 2.54 46.34 2.43Q47.14 2.32 47.90 2.32L47.90 2.32Q49.65 2.32 50.58 3.38Q51.50 4.43 51.50 6.24ZM54.98 10L53.01 10L53.01-0.77L54.98-1.10L54.98 2.54Q55.22 2.46 55.55 2.39Q55.89 2.32 56.14 2.32L56.14 2.32Q56.98 2.32 57.54 2.57Q58.10 2.82 58.43 3.27Q58.77 3.73 58.91 4.36Q59.06 4.99 59.06 5.76L59.06 5.76L59.06 10L57.09 10L57.09 6.02Q57.09 4.96 56.85 4.50Q56.61 4.03 55.94 4.03L55.94 4.03Q55.66 4.03 55.40 4.10Q55.14 4.16 54.98 4.21L54.98 4.21L54.98 10ZM60.43 5.09L60.43 5.09Q60.43 2.53 61.38 1.22Q62.32-0.08 64-0.08L64-0.08Q65.74-0.08 66.66 1.22Q67.57 2.53 67.57 5.09L67.57 5.09Q67.57 7.33 66.85 8.62Q66.13 9.90 64.77 10.18L64.77 10.18Q64.94 10.58 65.62 10.84Q66.30 11.10 67.49 11.31L67.49 11.31L67.07 12.72Q65.20 12.46 64.25 11.86Q63.30 11.26 63.12 10.14L63.12 10.14Q61.82 9.82 61.13 8.55Q60.43 7.28 60.43 5.09ZM62.43 5.09L62.43 5.09Q62.43 5.81 62.49 6.43Q62.54 7.06 62.71 7.53Q62.88 8 63.18 8.27Q63.49 8.54 64 8.54L64 8.54Q64.50 8.54 64.81 8.27Q65.12 8 65.29 7.53Q65.46 7.06 65.51 6.43Q65.57 5.81 65.57 5.09L65.57 5.09Q65.57 4.37 65.51 3.74Q65.46 3.10 65.29 2.64Q65.12 2.18 64.82 1.90Q64.51 1.63 64 1.63L64 1.63Q63.49 1.63 63.18 1.90Q62.88 2.18 62.71 2.65Q62.54 3.12 62.49 3.74Q62.43 4.37 62.43 5.09ZM75.36 8.37L75.36 10L69.14 10L69.14 0.10L71.12 0.10L71.12 8.37L75.36 8.37Z"/></g></svg>