<?xml version="1.0" encoding="UTF-8"?>
<svg height="34" width="120.7" version="1.1" xmlns="http://www.w3.org/2000/svg">
    <rect
        height="32"
        width="118.7"
        rx="14"
        ry="14"
        x="1"
        y="1"
        fill="#e10098"
        stroke="#470031"
        stroke-width="1"
         />
    <g transform="translate(0, 14)">
        <path fill="#470031" d="M18.74-3.73L18.74-3.73Q17.50-3.73 16.66-3.28Q15.82-2.83 15.28-2.03Q14.73-1.24 14.49-0.13Q14.26 0.98 14.26 2.32L14.26 2.32Q14.26 5.43 15.24 6.90Q16.22 8.37 18.12 8.37L18.12 8.37Q18.43 8.37 18.79 8.34Q19.16 8.31 19.46 8.26L19.46 8.26L19.46 1.93L22.91 1.93L22.91 10.58Q22.29 10.80 20.99 11.08Q19.69 11.36 17.84 11.36L17.84 11.36Q16.22 11.36 14.91 10.79Q13.61 10.22 12.69 9.08Q11.76 7.95 11.26 6.25Q10.76 4.56 10.76 2.32L10.76 2.32Q10.76 0.11 11.34-1.59Q11.93-3.28 12.94-4.43Q13.95-5.58 15.32-6.15Q16.69-6.72 18.26-6.72L18.26-6.72Q19.27-6.72 20.07-6.57Q20.86-6.42 21.45-6.22Q22.04-6.02 22.42-5.80Q22.80-5.58 22.99-5.46L22.99-5.46L22.10-2.72Q21.48-3.11 20.58-3.42Q19.69-3.73 18.74-3.73ZM36.85-1.85L36.24 1.34Q35.90 1.26 35.44 1.17Q34.98 1.09 34.50 1.02Q34.02 0.95 33.58 0.92Q33.13 0.89 32.82 0.89L32.82 0.89Q32.09 0.89 31.39 0.96Q30.69 1.03 29.96 1.23L29.96 1.23L29.96 11L26.49 11L26.49-1.29Q27.86-1.80 29.31-2.10Q30.75-2.41 32.68-2.41L32.68-2.41Q32.96-2.41 33.48-2.38Q34.00-2.36 34.58-2.29Q35.17-2.22 35.77-2.12Q36.38-2.02 36.85-1.85L36.85-1.85ZM45.03 8.54L45.03 8.54Q45.59 8.54 46.12 8.52Q46.65 8.51 47.04 8.45L47.04 8.45L47.04 5.43Q46.71 5.37 46.23 5.33Q45.76 5.29 45.36 5.29L45.36 5.29Q44.83 5.29 44.33 5.36Q43.82 5.43 43.45 5.60Q43.07 5.76 42.84 6.07Q42.62 6.38 42.62 6.88L42.62 6.88Q42.62 7.78 43.29 8.16Q43.96 8.54 45.03 8.54ZM44.72-2.50L44.72-2.50Q46.34-2.50 47.42-2.12Q48.50-1.74 49.14-1.05Q49.79-0.37 50.07 0.63Q50.35 1.62 50.35 2.85L50.35 2.85L50.35 10.69Q49.59 10.86 48.11 11.08Q46.62 11.31 44.78 11.31L44.78 11.31Q43.52 11.31 42.49 11.08Q41.47 10.86 40.74 10.34Q40.02 9.82 39.62 9.00Q39.23 8.17 39.23 6.97L39.23 6.97Q39.23 5.82 39.68 5.04Q40.13 4.25 40.88 3.78Q41.64 3.30 42.62 3.09Q43.60 2.88 44.66 2.88L44.66 2.88Q46.01 2.88 47.04 3.10L47.04 3.10L47.04 2.68Q47.04 1.70 46.43 1.05Q45.81 0.39 44.30 0.39L44.30 0.39Q43.32 0.39 42.41 0.53Q41.50 0.67 40.94 0.86L40.94 0.86L40.46-1.91Q41.11-2.13 42.28-2.31Q43.46-2.50 44.72-2.50ZM61.63 4.53L61.63 4.53Q61.63 2.77 60.93 1.63Q60.23 0.50 58.80 0.50L58.80 0.50Q58.41 0.50 57.96 0.54Q57.52 0.58 57.21 0.61L57.21 0.61L57.21 7.84Q57.54 8.06 58.10 8.20Q58.66 8.34 59.22 8.34L59.22 8.34Q60.46 8.34 61.04 7.35Q61.63 6.35 61.63 4.53ZM65.13 4.42L65.13 4.42Q65.13 5.93 64.80 7.21Q64.46 8.48 63.82 9.39Q63.17 10.30 62.19 10.80Q61.21 11.31 59.92 11.31L59.92 11.31Q58.61 11.31 57.21 10.66L57.21 10.66L57.21 15.62L53.76 15.62L53.76-1.74Q54.72-2.05 56.10-2.24Q57.49-2.44 58.83-2.44L58.83-2.44Q61.88-2.44 63.51-0.59Q65.13 1.26 65.13 4.42ZM71.21 11L67.76 11L67.76-7.84L71.21-8.43L71.21-2.05Q71.63-2.19 72.22-2.31Q72.80-2.44 73.25-2.44L73.25-2.44Q74.71-2.44 75.69-2.01Q76.67-1.57 77.26-0.77Q77.84 0.02 78.10 1.13Q78.35 2.24 78.35 3.58L78.35 3.58L78.35 11L74.90 11L74.90 4.03Q74.90 2.18 74.48 1.37Q74.06 0.56 72.89 0.56L72.89 0.56Q72.41 0.56 71.95 0.67Q71.49 0.78 71.21 0.86L71.21 0.86L71.21 11ZM80.76 2.40L80.76 2.40Q80.76-2.08 82.41-4.36Q84.06-6.64 87-6.64L87-6.64Q90.05-6.64 91.65-4.36Q93.24-2.08 93.24 2.40L93.24 2.40Q93.24 6.32 91.98 8.58Q90.72 10.83 88.34 11.31L88.34 11.31Q88.65 12.01 89.84 12.47Q91.03 12.93 93.10 13.30L93.10 13.30L92.38 15.76Q89.10 15.31 87.43 14.26Q85.77 13.21 85.46 11.25L85.46 11.25Q83.19 10.69 81.97 8.47Q80.76 6.24 80.76 2.40ZM84.26 2.40L84.26 2.40Q84.26 3.66 84.35 4.76Q84.45 5.85 84.75 6.67Q85.04 7.50 85.57 7.98Q86.10 8.45 87 8.45L87 8.45Q87.87 8.45 88.41 7.98Q88.96 7.50 89.25 6.67Q89.55 5.85 89.65 4.76Q89.74 3.66 89.74 2.40L89.74 2.40Q89.74 1.14 89.65 0.04Q89.55-1.07 89.25-1.88Q88.96-2.69 88.43-3.17Q87.90-3.64 87-3.64L87-3.64Q86.10-3.64 85.57-3.17Q85.04-2.69 84.75-1.87Q84.45-1.04 84.35 0.05Q84.26 1.14 84.26 2.40ZM106.88 8.14L106.88 11L95.99 11L95.99-6.33L99.46-6.33L99.46 8.14L106.88 8.14Z"/>
    </g>
</svg>