<?xml version="1.0" encoding="UTF-8"?>
<svg height="26" width="66.3" version="1.1" xmlns="http://www.w3.org/2000/svg"><!--Created by Josélio de S. C. Júnior - 2021 - https://github.com/joseliojunior -->
    <rect
        height="24"
        width="64.3"
        rx="12"
        ry="12"
        x="1" y="1"
        fill="#0178b8"
        stroke="#00141e"
        stroke-width="1" />
    <g transform="translate(0, 8)">
        <path fill="#00141e" stroke="none" d="M20.40 0.10L27.60 0.10L27.60 1.73L24.99 1.73L24.99 10L23.01 10L23.01 1.73L20.40 1.73L20.40 0.10ZM35.82 10L33.70 10Q33.39 9.18 32.95 8.19Q32.51 7.20 32.03 6.21L32.03 6.21Q31.57 7.15 31.10 8.17Q30.64 9.18 30.30 10L30.30 10L28.18 10Q28.34 9.57 28.65 8.96Q28.96 8.35 29.34 7.65Q29.71 6.94 30.13 6.20Q30.54 5.46 30.93 4.77L30.93 4.77L28.34 0.10L30.46 0.10L32.03 3.26L33.68 0.10L35.66 0.10L33.14 4.72Q33.57 5.41 33.98 6.16Q34.40 6.91 34.76 7.62Q35.12 8.34 35.39 8.95Q35.66 9.57 35.82 10L35.82 10ZM43.36 8.37L43.36 10L37.14 10L37.14 0.10L39.12 0.10L39.12 8.37L43.36 8.37Z"/>
    </g>
</svg>