<?xml version="1.0" encoding="UTF-8"?>
<svg height="26" width="139.2" version="1.1" xmlns="http://www.w3.org/2000/svg"><!--Created by Josélio de S. C. Júnior - 2021 - https://github.com/joseliojunior -->
    <defs>
        <pattern id="pattern"
                x="3" y="3" width="6" height="6"
                patternUnits="userSpaceOnUse"
                patternTransform="rotate(45)" >
            <rect height="6" width="6"
                fill="#ffffff"/>
            <line x1="0" y1="0" x2="0" y2="6"
                stroke="#bbbbbb"
                stroke-width="2" />
        </pattern>
    </defs>
    <rect
        height="24"
        width="137.2"
        rx="12"
        ry="12"
        x="1" y="1"
        fill="url(#pattern)" />
    <g transform="translate(0, 8)">
        <path fill="#000000" d="M22.98 10L21.01 10L21.01 0.10L27.07 0.10L27.07 1.73L22.98 1.73L22.98 4.13L26.56 4.13L26.56 5.76L22.98 5.76L22.98 10ZM32.54 0.32L32.54 0.32Q32.54 0.90 32.18 1.23Q31.81 1.57 31.30 1.57L31.30 1.57Q30.78 1.57 30.42 1.23Q30.06 0.90 30.06 0.32L30.06 0.32Q30.06-0.27 30.42-0.61Q30.78-0.94 31.30-0.94L31.30-0.94Q31.81-0.94 32.18-0.61Q32.54-0.27 32.54 0.32ZM35.22 8.10L35.47 9.68Q34.86 9.97 34.33 10.07Q33.79 10.18 33.34 10.18L33.34 10.18Q32.58 10.18 32.06 9.95Q31.54 9.73 31.22 9.30Q30.91 8.88 30.78 8.27Q30.66 7.66 30.66 6.88L30.66 6.88L30.66 4.11L28.58 4.11L28.58 2.48L32.62 2.48L32.62 7.14Q32.62 7.81 32.87 8.14Q33.12 8.46 33.70 8.46L33.70 8.46Q33.97 8.46 34.35 8.39Q34.74 8.32 35.22 8.10L35.22 8.10ZM43.22 8.10L43.47 9.68Q43.42 9.71 43.26 9.79Q43.09 9.87 42.82 9.96Q42.54 10.05 42.15 10.11Q41.76 10.18 41.26 10.18L41.26 10.18Q39.90 10.18 39.28 9.37Q38.66 8.56 38.66 7.01L38.66 7.01L38.66 0.62L36.58 0.62L36.58-1.01L40.62-1.01L40.62 7.15Q40.62 7.92 40.93 8.19Q41.23 8.46 41.70 8.46L41.70 8.46Q42.29 8.46 42.69 8.30Q43.09 8.14 43.22 8.10L43.22 8.10ZM46.29 7.20L46.29 4.11L44.58 4.11L44.58 2.48L46.29 2.48L46.29 0.59L48.26 0.27L48.26 2.48L51.41 2.48L51.41 4.11L48.26 4.11L48.26 7.15Q48.26 7.57 48.34 7.82Q48.42 8.08 48.56 8.22Q48.70 8.37 48.91 8.42Q49.12 8.46 49.38 8.46L49.38 8.46Q49.65 8.46 49.88 8.45Q50.11 8.43 50.33 8.39Q50.54 8.35 50.78 8.27Q51.01 8.19 51.28 8.06L51.28 8.06L51.55 9.76Q51.01 9.98 50.38 10.08Q49.74 10.18 49.15 10.18L49.15 10.18Q48.46 10.18 47.94 10.06Q47.41 9.95 47.04 9.63Q46.67 9.31 46.48 8.73Q46.29 8.14 46.29 7.20L46.29 7.20ZM52.50 6.30L52.50 6.30Q52.50 5.31 52.80 4.56Q53.10 3.81 53.60 3.30Q54.10 2.80 54.74 2.54Q55.38 2.29 56.05 2.29L56.05 2.29Q57.71 2.29 58.58 3.27Q59.44 4.26 59.44 6.14L59.44 6.14Q59.44 6.34 59.43 6.54Q59.42 6.75 59.41 6.88L59.41 6.88L54.53 6.88Q54.53 7.62 55.14 8.04Q55.74 8.46 56.70 8.46L56.70 8.46Q57.30 8.46 57.83 8.34Q58.37 8.21 58.74 8.08L58.74 8.08L59.01 9.76Q58.50 9.94 57.92 10.06Q57.34 10.18 56.62 10.18L56.62 10.18Q55.66 10.18 54.90 9.93Q54.14 9.68 53.61 9.19Q53.07 8.70 52.78 7.98Q52.50 7.26 52.50 6.30ZM54.53 5.52L57.54 5.52Q57.54 5.22 57.46 4.94Q57.38 4.66 57.20 4.43Q57.02 4.21 56.75 4.07Q56.48 3.94 56.08 3.94L56.08 3.94Q55.70 3.94 55.42 4.06Q55.14 4.19 54.95 4.42Q54.77 4.64 54.66 4.93Q54.56 5.22 54.53 5.52L54.53 5.52ZM67.34 2.66L66.99 4.48Q66.80 4.43 66.54 4.38Q66.27 4.34 66 4.30Q65.73 4.26 65.47 4.24Q65.22 4.22 65.04 4.22L65.04 4.22Q64.62 4.22 64.22 4.26Q63.82 4.30 63.41 4.42L63.41 4.42L63.41 10L61.42 10L61.42 2.98Q62.21 2.69 63.03 2.51Q63.86 2.34 64.96 2.34L64.96 2.34Q65.12 2.34 65.42 2.35Q65.71 2.37 66.05 2.41Q66.38 2.45 66.73 2.50Q67.07 2.56 67.34 2.66L67.34 2.66ZM71.65 8.51L71.65 8.51Q72.37 8.51 72.75 8.41Q73.14 8.30 73.14 7.98L73.14 7.98Q73.14 7.78 73.02 7.63Q72.90 7.49 72.68 7.38Q72.46 7.28 72.18 7.18Q71.90 7.09 71.60 6.99L71.60 6.99Q71.17 6.86 70.72 6.70Q70.27 6.53 69.90 6.27Q69.54 6.02 69.30 5.62Q69.06 5.23 69.06 4.64L69.06 4.64Q69.06 4.16 69.24 3.74Q69.42 3.31 69.82 2.98Q70.21 2.66 70.82 2.47Q71.42 2.29 72.27 2.29L72.27 2.29Q73.01 2.29 73.64 2.40Q74.27 2.51 74.74 2.72L74.74 2.72L74.43 4.38Q74.16 4.30 73.58 4.12Q73.01 3.94 72.29 3.94L72.29 3.94Q71.54 3.94 71.27 4.12Q71.01 4.30 71.01 4.51L71.01 4.51Q71.01 4.69 71.13 4.82Q71.25 4.96 71.45 5.07Q71.65 5.18 71.91 5.29Q72.18 5.39 72.48 5.49L72.48 5.49Q72.91 5.63 73.38 5.81Q73.84 5.98 74.22 6.25Q74.59 6.51 74.83 6.92Q75.07 7.33 75.07 7.92L75.07 7.92Q75.07 8.38 74.90 8.80Q74.72 9.22 74.31 9.52Q73.90 9.82 73.25 10Q72.59 10.18 71.63 10.18L71.63 10.18Q70.66 10.18 69.97 9.95Q69.28 9.73 68.86 9.55L68.86 9.55L69.17 7.90Q69.73 8.13 70.36 8.32Q70.99 8.51 71.65 8.51ZM76.70 6.24L76.70 6.24Q76.70 5.42 76.96 4.70Q77.22 3.98 77.74 3.45Q78.27 2.91 79.08 2.60Q79.89 2.29 81.01 2.29L81.01 2.29Q81.68 2.29 82.22 2.38Q82.77 2.48 83.33 2.70L83.33 2.70L82.90 4.29Q82.58 4.18 82.18 4.09Q81.79 4 81.18 4L81.18 4Q80.48 4 80.01 4.17Q79.54 4.34 79.25 4.63Q78.96 4.93 78.83 5.34Q78.70 5.76 78.70 6.24L78.70 6.24Q78.70 7.28 79.29 7.87Q79.87 8.46 81.28 8.46L81.28 8.46Q81.74 8.46 82.25 8.40Q82.75 8.34 83.17 8.19L83.17 8.19L83.46 9.81Q83.04 9.97 82.45 10.07Q81.86 10.18 81.06 10.18L81.06 10.18Q79.90 10.18 79.08 9.87Q78.26 9.57 77.73 9.04Q77.20 8.51 76.95 7.79Q76.70 7.07 76.70 6.24ZM91.34 2.66L90.99 4.48Q90.80 4.43 90.54 4.38Q90.27 4.34 90 4.30Q89.73 4.26 89.47 4.24Q89.22 4.22 89.04 4.22L89.04 4.22Q88.62 4.22 88.22 4.26Q87.82 4.30 87.41 4.42L87.41 4.42L87.41 10L85.42 10L85.42 2.98Q86.21 2.69 87.03 2.51Q87.86 2.34 88.96 2.34L88.96 2.34Q89.12 2.34 89.42 2.35Q89.71 2.37 90.05 2.41Q90.38 2.45 90.73 2.50Q91.07 2.56 91.34 2.66L91.34 2.66ZM96.54 0.32L96.54 0.32Q96.54 0.90 96.18 1.23Q95.81 1.57 95.30 1.57L95.30 1.57Q94.78 1.57 94.42 1.23Q94.06 0.90 94.06 0.32L94.06 0.32Q94.06-0.27 94.42-0.61Q94.78-0.94 95.30-0.94L95.30-0.94Q95.81-0.94 96.18-0.61Q96.54-0.27 96.54 0.32ZM99.22 8.10L99.47 9.68Q98.86 9.97 98.33 10.07Q97.79 10.18 97.34 10.18L97.34 10.18Q96.58 10.18 96.06 9.95Q95.54 9.73 95.22 9.30Q94.91 8.88 94.78 8.27Q94.66 7.66 94.66 6.88L94.66 6.88L94.66 4.11L92.58 4.11L92.58 2.48L96.62 2.48L96.62 7.14Q96.62 7.81 96.87 8.14Q97.12 8.46 97.70 8.46L97.70 8.46Q97.97 8.46 98.35 8.39Q98.74 8.32 99.22 8.10L99.22 8.10ZM105.50 6.30L105.50 6.30Q105.50 5.30 105.10 4.65Q104.70 4 103.89 4L103.89 4Q103.66 4 103.41 4.02Q103.15 4.05 102.98 4.06L102.98 4.06L102.98 8.19Q103.17 8.32 103.49 8.40Q103.81 8.48 104.13 8.48L104.13 8.48Q104.83 8.48 105.17 7.91Q105.50 7.34 105.50 6.30ZM107.50 6.24L107.50 6.24Q107.50 7.10 107.31 7.83Q107.12 8.56 106.75 9.08Q106.38 9.60 105.82 9.89Q105.26 10.18 104.53 10.18L104.53 10.18Q103.78 10.18 102.98 9.81L102.98 9.81L102.98 12.64L101.01 12.64L101.01 2.72Q101.55 2.54 102.34 2.43Q103.14 2.32 103.90 2.32L103.90 2.32Q105.65 2.32 106.58 3.38Q107.50 4.43 107.50 6.24ZM110.29 7.20L110.29 4.11L108.58 4.11L108.58 2.48L110.29 2.48L110.29 0.59L112.26 0.27L112.26 2.48L115.41 2.48L115.41 4.11L112.26 4.11L112.26 7.15Q112.26 7.57 112.34 7.82Q112.42 8.08 112.56 8.22Q112.70 8.37 112.91 8.42Q113.12 8.46 113.38 8.46L113.38 8.46Q113.65 8.46 113.88 8.45Q114.11 8.43 114.33 8.39Q114.54 8.35 114.78 8.27Q115.01 8.19 115.28 8.06L115.28 8.06L115.55 9.76Q115.01 9.98 114.38 10.08Q113.74 10.18 113.15 10.18L113.15 10.18Q112.46 10.18 111.94 10.06Q111.41 9.95 111.04 9.63Q110.67 9.31 110.48 8.73Q110.29 8.14 110.29 7.20L110.29 7.20Z"/>
    </g>
</svg>