<?xml version="1.0" encoding="UTF-8"?>
<svg height="34" width="187.2" version="1.1" xmlns="http://www.w3.org/2000/svg"><!--Created by Josélio de S. C. Júnior - 2021 - https://github.com/joseliojunior -->
    <defs>
        <pattern id="pattern"
                x="3" y="3" width="6" height="6"
                patternUnits="userSpaceOnUse"
                patternTransform="rotate(45)" >
            <rect height="6" width="6"
                fill="#ffffff"/>
            <line x1="0" y1="0" x2="0" y2="6"
                stroke="#888888"
                stroke-width="2" />
        </pattern>
    </defs>
    <rect
        height="32"
        width="185.2"
        rx="1"
        ry="1"
        x="1" y="1"
        fill="url(#pattern)" />
    <g transform="translate(0, 12)">
        <path fill="#000000" d="M24.46 12L21.51 12L21.51-2.86L30.61-2.86L30.61-0.41L24.46-0.41L24.46 3.19L29.84 3.19L29.84 5.64L24.46 5.64L24.46 12ZM38.82-2.52L38.82-2.52Q38.82-1.66 38.26-1.15Q37.71-0.65 36.94-0.65L36.94-0.65Q36.18-0.65 35.64-1.15Q35.10-1.66 35.10-2.52L35.10-2.52Q35.10-3.41 35.64-3.91Q36.18-4.42 36.94-4.42L36.94-4.42Q37.71-4.42 38.26-3.91Q38.82-3.41 38.82-2.52ZM42.82 9.14L43.21 11.52Q42.30 11.95 41.49 12.11Q40.69 12.26 40.02 12.26L40.02 12.26Q38.86 12.26 38.08 11.93Q37.30 11.59 36.84 10.96Q36.37 10.32 36.18 9.41Q35.98 8.50 35.98 7.32L35.98 7.32L35.98 3.17L32.86 3.17L32.86 0.72L38.94 0.72L38.94 7.70Q38.94 8.71 39.31 9.20Q39.68 9.70 40.54 9.70L40.54 9.70Q40.95 9.70 41.53 9.59Q42.10 9.48 42.82 9.14L42.82 9.14ZM54.82 9.14L55.21 11.52Q55.14 11.57 54.88 11.69Q54.63 11.81 54.22 11.94Q53.82 12.07 53.23 12.17Q52.64 12.26 51.90 12.26L51.90 12.26Q49.86 12.26 48.92 11.05Q47.98 9.84 47.98 7.51L47.98 7.51L47.98-2.06L44.86-2.06L44.86-4.51L50.94-4.51L50.94 7.73Q50.94 8.88 51.39 9.29Q51.85 9.70 52.54 9.70L52.54 9.70Q53.43 9.70 54.03 9.46Q54.63 9.22 54.82 9.14L54.82 9.14ZM59.43 7.80L59.43 3.17L56.86 3.17L56.86 0.72L59.43 0.72L59.43-2.11L62.38-2.59L62.38 0.72L67.11 0.72L67.11 3.17L62.38 3.17L62.38 7.73Q62.38 8.35 62.50 8.74Q62.62 9.12 62.84 9.34Q63.06 9.55 63.37 9.62Q63.68 9.70 64.06 9.70L64.06 9.70Q64.47 9.70 64.82 9.67Q65.17 9.65 65.49 9.59Q65.82 9.53 66.16 9.41Q66.51 9.29 66.92 9.10L66.92 9.10L67.33 11.64Q66.51 11.98 65.56 12.12Q64.62 12.26 63.73 12.26L63.73 12.26Q62.70 12.26 61.90 12.10Q61.11 11.93 60.56 11.45Q60.01 10.97 59.72 10.09Q59.43 9.22 59.43 7.80L59.43 7.80ZM68.74 6.46L68.74 6.46Q68.74 4.97 69.20 3.84Q69.66 2.71 70.40 1.96Q71.14 1.20 72.10 0.82Q73.06 0.43 74.07 0.43L74.07 0.43Q76.57 0.43 77.86 1.91Q79.16 3.38 79.16 6.22L79.16 6.22Q79.16 6.50 79.15 6.82Q79.14 7.13 79.11 7.32L79.11 7.32L71.79 7.32Q71.79 8.42 72.70 9.06Q73.62 9.70 75.06 9.70L75.06 9.70Q75.94 9.70 76.75 9.50Q77.55 9.31 78.10 9.12L78.10 9.12L78.51 11.64Q77.74 11.90 76.88 12.08Q76.02 12.26 74.94 12.26L74.94 12.26Q73.50 12.26 72.36 11.89Q71.22 11.52 70.41 10.79Q69.61 10.06 69.18 8.98Q68.74 7.90 68.74 6.46ZM71.79 5.28L76.30 5.28Q76.30 4.82 76.18 4.40Q76.06 3.98 75.80 3.65Q75.54 3.31 75.13 3.11Q74.72 2.90 74.12 2.90L74.12 2.90Q73.54 2.90 73.12 3.10Q72.70 3.29 72.43 3.62Q72.15 3.96 72.00 4.39Q71.84 4.82 71.79 5.28L71.79 5.28ZM91.02 0.98L90.49 3.72Q90.20 3.65 89.80 3.58Q89.41 3.50 89 3.44Q88.59 3.38 88.21 3.36Q87.82 3.34 87.56 3.34L87.56 3.34Q86.94 3.34 86.34 3.40Q85.74 3.46 85.11 3.62L85.11 3.62L85.11 12L82.14 12L82.14 1.46Q83.31 1.03 84.55 0.77Q85.78 0.50 87.44 0.50L87.44 0.50Q87.68 0.50 88.12 0.53Q88.57 0.55 89.07 0.61Q89.58 0.67 90.09 0.76Q90.61 0.84 91.02 0.98L91.02 0.98ZM97.47 9.77L97.47 9.77Q98.55 9.77 99.13 9.61Q99.70 9.46 99.70 8.98L99.70 8.98Q99.70 8.66 99.52 8.45Q99.34 8.23 99.02 8.08Q98.70 7.92 98.28 7.78Q97.86 7.63 97.40 7.49L97.40 7.49Q96.75 7.30 96.08 7.04Q95.41 6.79 94.86 6.41Q94.30 6.02 93.94 5.44Q93.58 4.85 93.58 3.96L93.58 3.96Q93.58 3.24 93.86 2.60Q94.14 1.97 94.72 1.48Q95.31 0.98 96.22 0.71Q97.14 0.43 98.41 0.43L98.41 0.43Q99.51 0.43 100.46 0.60Q101.41 0.77 102.10 1.08L102.10 1.08L101.65 3.58Q101.24 3.46 100.38 3.18Q99.51 2.90 98.43 2.90L98.43 2.90Q97.30 2.90 96.91 3.18Q96.51 3.46 96.51 3.77L96.51 3.77Q96.51 4.03 96.69 4.24Q96.87 4.44 97.17 4.61Q97.47 4.78 97.87 4.93Q98.26 5.09 98.72 5.23L98.72 5.23Q99.37 5.45 100.06 5.71Q100.76 5.98 101.32 6.37Q101.89 6.77 102.25 7.38Q102.61 7.99 102.61 8.88L102.61 8.88Q102.61 9.58 102.34 10.20Q102.08 10.82 101.47 11.28Q100.86 11.74 99.87 12Q98.89 12.26 97.45 12.26L97.45 12.26Q95.98 12.26 94.95 11.93Q93.92 11.59 93.30 11.33L93.30 11.33L93.75 8.86Q94.59 9.19 95.54 9.48Q96.49 9.77 97.47 9.77ZM105.06 6.36L105.06 6.36Q105.06 5.14 105.44 4.06Q105.82 2.98 106.62 2.17Q107.41 1.37 108.62 0.90Q109.83 0.43 111.51 0.43L111.51 0.43Q112.52 0.43 113.34 0.58Q114.15 0.72 114.99 1.06L114.99 1.06L114.34 3.43Q113.86 3.26 113.28 3.13Q112.69 3 111.78 3L111.78 3Q110.72 3 110.01 3.25Q109.30 3.50 108.87 3.95Q108.44 4.39 108.25 5.02Q108.06 5.64 108.06 6.36L108.06 6.36Q108.06 7.92 108.93 8.81Q109.81 9.70 111.92 9.70L111.92 9.70Q112.62 9.70 113.37 9.60Q114.13 9.50 114.75 9.29L114.75 9.29L115.18 11.71Q114.56 11.95 113.67 12.11Q112.78 12.26 111.58 12.26L111.58 12.26Q109.86 12.26 108.62 11.81Q107.38 11.35 106.59 10.56Q105.80 9.77 105.43 8.69Q105.06 7.61 105.06 6.36ZM127.02 0.98L126.49 3.72Q126.20 3.65 125.80 3.58Q125.41 3.50 125 3.44Q124.59 3.38 124.21 3.36Q123.82 3.34 123.56 3.34L123.56 3.34Q122.94 3.34 122.34 3.40Q121.74 3.46 121.11 3.62L121.11 3.62L121.11 12L118.14 12L118.14 1.46Q119.31 1.03 120.55 0.77Q121.78 0.50 123.44 0.50L123.44 0.50Q123.68 0.50 124.12 0.53Q124.57 0.55 125.07 0.61Q125.58 0.67 126.09 0.76Q126.61 0.84 127.02 0.98L127.02 0.98ZM134.82-2.52L134.82-2.52Q134.82-1.66 134.26-1.15Q133.71-0.65 132.94-0.65L132.94-0.65Q132.18-0.65 131.64-1.15Q131.10-1.66 131.10-2.52L131.10-2.52Q131.10-3.41 131.64-3.91Q132.18-4.42 132.94-4.42L132.94-4.42Q133.71-4.42 134.26-3.91Q134.82-3.41 134.82-2.52ZM138.82 9.14L139.21 11.52Q138.30 11.95 137.49 12.11Q136.69 12.26 136.02 12.26L136.02 12.26Q134.86 12.26 134.08 11.93Q133.30 11.59 132.84 10.96Q132.37 10.32 132.18 9.41Q131.98 8.50 131.98 7.32L131.98 7.32L131.98 3.17L128.86 3.17L128.86 0.72L134.94 0.72L134.94 7.70Q134.94 8.71 135.31 9.20Q135.68 9.70 136.54 9.70L136.54 9.70Q136.95 9.70 137.53 9.59Q138.10 9.48 138.82 9.14L138.82 9.14ZM148.26 6.46L148.26 6.46Q148.26 4.94 147.66 3.97Q147.06 3 145.83 3L145.83 3Q145.50 3 145.11 3.04Q144.73 3.07 144.46 3.10L144.46 3.10L144.46 9.29Q144.75 9.48 145.23 9.60Q145.71 9.72 146.19 9.72L146.19 9.72Q147.25 9.72 147.75 8.87Q148.26 8.02 148.26 6.46ZM151.26 6.36L151.26 6.36Q151.26 7.66 150.97 8.75Q150.68 9.84 150.13 10.62Q149.58 11.40 148.74 11.83Q147.90 12.26 146.79 12.26L146.79 12.26Q145.66 12.26 144.46 11.71L144.46 11.71L144.46 15.96L141.51 15.96L141.51 1.08Q142.33 0.82 143.52 0.65Q144.70 0.48 145.86 0.48L145.86 0.48Q148.47 0.48 149.86 2.06Q151.26 3.65 151.26 6.36ZM155.43 7.80L155.43 3.17L152.86 3.17L152.86 0.72L155.43 0.72L155.43-2.11L158.38-2.59L158.38 0.72L163.11 0.72L163.11 3.17L158.38 3.17L158.38 7.73Q158.38 8.35 158.50 8.74Q158.62 9.12 158.84 9.34Q159.06 9.55 159.37 9.62Q159.68 9.70 160.06 9.70L160.06 9.70Q160.47 9.70 160.82 9.67Q161.17 9.65 161.49 9.59Q161.82 9.53 162.16 9.41Q162.51 9.29 162.92 9.10L162.92 9.10L163.33 11.64Q162.51 11.98 161.56 12.12Q160.62 12.26 159.73 12.26L159.73 12.26Q158.70 12.26 157.90 12.10Q157.11 11.93 156.56 11.45Q156.01 10.97 155.72 10.09Q155.43 9.22 155.43 7.80L155.43 7.80Z"/>
    </g>
</svg>