<?xml version="1.0" encoding="UTF-8"?>
<svg height="34" width="64.3" version="1.1" xmlns="http://www.w3.org/2000/svg">
    <rect
        height="32"
        width="62.3"
        rx="14"
        ry="14"
        x="1"
        y="1"
        fill="#aa2afe"
        stroke="#56018e"
        stroke-width="1"
         />
    <g transform="translate(0, 14)">
        <path fill="#56018e" d="M23.75 11L20.05 11L19.24 7.00L14.62 7.00L13.84 11L10.25 11Q11.48 5.88 12.74 1.66Q14.00-2.55 15.18-6.33L15.18-6.33L18.93-6.33Q20.16-2.52 21.38 1.75Q22.60 6.02 23.75 11L23.75 11ZM16.97-2.97L16.97-2.97Q16.69-1.99 16.45-1.11Q16.22-0.23 16.01 0.63Q15.80 1.48 15.61 2.35Q15.43 3.22 15.26 4.14L15.26 4.14L18.65 4.14Q18.48 3.22 18.32 2.35Q18.15 1.48 17.94 0.63Q17.73-0.23 17.49-1.11Q17.25-1.99 16.97-2.97ZM36.85-1.85L36.24 1.34Q35.90 1.26 35.44 1.17Q34.98 1.09 34.50 1.02Q34.02 0.95 33.58 0.92Q33.13 0.89 32.82 0.89L32.82 0.89Q32.09 0.89 31.39 0.96Q30.69 1.03 29.96 1.23L29.96 1.23L29.96 11L26.49 11L26.49-1.29Q27.86-1.80 29.31-2.10Q30.75-2.41 32.68-2.41L32.68-2.41Q32.96-2.41 33.48-2.38Q34.00-2.36 34.58-2.29Q35.17-2.22 35.77-2.12Q36.38-2.02 36.85-1.85L36.85-1.85ZM39.23 4.42L39.23 4.42Q39.23 2.99 39.68 1.73Q40.13 0.47 41.05-0.47Q41.98-1.40 43.39-1.95Q44.80-2.50 46.76-2.50L46.76-2.50Q47.94-2.50 48.89-2.33Q49.84-2.16 50.82-1.77L50.82-1.77L50.07 1.00Q49.51 0.81 48.82 0.65Q48.14 0.50 47.07 0.50L47.07 0.50Q45.84 0.50 45.01 0.79Q44.19 1.09 43.68 1.61Q43.18 2.12 42.96 2.85Q42.73 3.58 42.73 4.42L42.73 4.42Q42.73 6.24 43.75 7.28Q44.78 8.31 47.24 8.31L47.24 8.31Q48.05 8.31 48.93 8.20Q49.82 8.09 50.54 7.84L50.54 7.84L51.05 10.66Q50.32 10.94 49.28 11.13Q48.25 11.31 46.85 11.31L46.85 11.31Q44.83 11.31 43.39 10.78Q41.95 10.24 41.02 9.32Q40.10 8.40 39.67 7.14Q39.23 5.88 39.23 4.42Z"/>
    </g>
</svg>