<?xml version="1.0" encoding="UTF-8"?>
<svg height="34" width="64.3" version="1.1" xmlns="http://www.w3.org/2000/svg">
    <rect
        height="32"
        width="62.3"
        rx="14"
        ry="14"
        x="1"
        y="1"
        fill="#ec915c"
        stroke="#9b4412"
        stroke-width="1"
         />
    <g transform="translate(0, 14)">
        <path fill="#9b4412" d="M22.46-6.33L22.46-3.92Q21.26-2.08 20.25-0.45Q19.24 1.17 18.37 2.64Q17.50 4.11 16.73 5.47Q15.96 6.83 15.26 8.14L15.26 8.14L22.71 8.14L22.71 11L11.29 11L11.29 9.01Q11.90 7.81 12.60 6.48Q13.30 5.15 14.17 3.64Q15.04 2.12 16.06 0.36Q17.08-1.40 18.32-3.48L18.32-3.48L11.65-3.48L11.65-6.33L22.46-6.33ZM31.95-5.94L31.95-5.94Q31.95-4.93 31.31-4.34Q30.66-3.76 29.77-3.76L29.77-3.76Q28.87-3.76 28.24-4.34Q27.61-4.93 27.61-5.94L27.61-5.94Q27.61-6.98 28.24-7.56Q28.87-8.15 29.77-8.15L29.77-8.15Q30.66-8.15 31.31-7.56Q31.95-6.98 31.95-5.94ZM36.63 7.67L37.08 10.44Q36.01 10.94 35.07 11.13Q34.14 11.31 33.35 11.31L33.35 11.31Q32.01 11.31 31.10 10.92Q30.19 10.52 29.64 9.78Q29.10 9.04 28.87 7.98Q28.65 6.91 28.65 5.54L28.65 5.54L28.65 0.70L25.01 0.70L25.01-2.16L32.09-2.16L32.09 5.99Q32.09 7.16 32.53 7.74Q32.96 8.31 33.97 8.31L33.97 8.31Q34.44 8.31 35.12 8.19Q35.79 8.06 36.63 7.67L36.63 7.67ZM42.42 4L42.42 4Q42.42 5.62 43.01 6.48Q43.60 7.33 44.86 7.33L44.86 7.33Q45.42 7.33 45.91 7.19Q46.40 7.05 46.79 6.83L46.79 6.83L46.79 0.50Q46.40 0.42 46.09 0.39Q45.78 0.36 45.45 0.36L45.45 0.36Q42.42 0.36 42.42 4ZM50.26-1.74L50.26 9.40Q50.26 12.62 48.71 14.16Q47.16 15.70 43.71 15.70L43.71 15.70Q42.48 15.70 41.35 15.45Q40.21 15.20 39.18 14.86L39.18 14.86L39.82 11.95Q40.63 12.26 41.53 12.53Q42.42 12.79 43.77 12.79L43.77 12.79Q44.66 12.79 45.25 12.58Q45.84 12.37 46.18 12.01Q46.51 11.64 46.65 11.15Q46.79 10.66 46.79 10.10L46.79 10.10L46.79 9.57Q46.06 9.85 45.46 9.99Q44.86 10.13 44.16 10.13L44.16 10.13Q41.58 10.13 40.25 8.51Q38.92 6.88 38.92 4L38.92 4Q38.92 0.75 40.72-0.84Q42.51-2.44 45.59-2.44L45.59-2.44Q47.74-2.44 50.26-1.74L50.26-1.74Z"/>
    </g>
</svg>