<?xml version="1.0" encoding="UTF-8"?>
<svg height="34" width="78.3" version="1.1" xmlns="http://www.w3.org/2000/svg"><!--Created by Josélio de S. C. Júnior - 2021 - https://github.com/joseliojunior -->
    <rect
        height="32"
        width="76.3"
        rx="1"
        ry="1"
        x="1" y="1"
        fill="#ec915c"
        stroke="#9b4412"
        stroke-width="1" />
    <g transform="translate(0, 12)">
        <path fill="#9b4412" d="M30.68-2.86L30.68-0.79Q29.65 0.79 28.78 2.18Q27.92 3.58 27.18 4.84Q26.43 6.10 25.77 7.26Q25.11 8.42 24.51 9.55L24.51 9.55L30.90 9.55L30.90 12L21.10 12L21.10 10.30Q21.63 9.26 22.23 8.12Q22.83 6.98 23.58 5.69Q24.32 4.39 25.20 2.88Q26.07 1.37 27.13-0.41L27.13-0.41L21.42-0.41L21.42-2.86L30.68-2.86ZM38.82-2.52L38.82-2.52Q38.82-1.66 38.26-1.15Q37.71-0.65 36.94-0.65L36.94-0.65Q36.18-0.65 35.64-1.15Q35.10-1.66 35.10-2.52L35.10-2.52Q35.10-3.41 35.64-3.91Q36.18-4.42 36.94-4.42L36.94-4.42Q37.71-4.42 38.26-3.91Q38.82-3.41 38.82-2.52ZM42.82 9.14L43.21 11.52Q42.30 11.95 41.49 12.11Q40.69 12.26 40.02 12.26L40.02 12.26Q38.86 12.26 38.08 11.93Q37.30 11.59 36.84 10.96Q36.37 10.32 36.18 9.41Q35.98 8.50 35.98 7.32L35.98 7.32L35.98 3.17L32.86 3.17L32.86 0.72L38.94 0.72L38.94 7.70Q38.94 8.71 39.31 9.20Q39.68 9.70 40.54 9.70L40.54 9.70Q40.95 9.70 41.53 9.59Q42.10 9.48 42.82 9.14L42.82 9.14ZM47.79 6L47.79 6Q47.79 7.39 48.30 8.12Q48.80 8.86 49.88 8.86L49.88 8.86Q50.36 8.86 50.78 8.74Q51.20 8.62 51.54 8.42L51.54 8.42L51.54 3Q51.20 2.93 50.94 2.90Q50.67 2.88 50.38 2.88L50.38 2.88Q47.79 2.88 47.79 6ZM54.51 1.08L54.51 10.63Q54.51 13.39 53.18 14.71Q51.85 16.03 48.90 16.03L48.90 16.03Q47.84 16.03 46.87 15.82Q45.90 15.60 45.01 15.31L45.01 15.31L45.56 12.82Q46.26 13.08 47.02 13.31Q47.79 13.54 48.94 13.54L48.94 13.54Q49.71 13.54 50.22 13.36Q50.72 13.18 51.01 12.86Q51.30 12.55 51.42 12.13Q51.54 11.71 51.54 11.23L51.54 11.23L51.54 10.78Q50.91 11.02 50.40 11.14Q49.88 11.26 49.28 11.26L49.28 11.26Q47.07 11.26 45.93 9.86Q44.79 8.47 44.79 6L44.79 6Q44.79 3.22 46.33 1.85Q47.86 0.48 50.50 0.48L50.50 0.48Q52.35 0.48 54.51 1.08L54.51 1.08Z"/>
    </g>
</svg>