<?xml version="1.0" encoding="UTF-8"?>
<svg height="26" width="155.39999999999998" version="1.1" xmlns="http://www.w3.org/2000/svg"><!--Created by Josélio de S. C. Júnior - 2021 - https://github.com/joseliojunior -->
    <defs>
        <pattern id="pattern"
                x="3" y="3" width="6" height="6"
                patternUnits="userSpaceOnUse"
                patternTransform="rotate(45)" >
            <rect height="6" width="6"
                fill="#ffffff"/>
            <line x1="0" y1="0" x2="0" y2="6"
                stroke="#888888"
                stroke-width="2" />
        </pattern>
    </defs>
    <rect
        height="24"
        width="153.39999999999998"
        rx="1"
        ry="1"
        x="1" y="1"
        fill="url(#pattern)"
        stroke="#000000"
        stroke-width="1" />
    <g transform="translate(0, 8)">
        <path fill="#ffffff" stroke="#000000" d="M23.42-0.02L23.42-0.02Q24.27-0.02 24.96 0.18Q25.65 0.37 26.14 0.77Q26.64 1.17 26.90 1.78Q27.17 2.40 27.17 3.23L27.17 3.23Q27.17 4.10 26.82 4.80Q26.46 5.50 25.65 5.87L25.65 5.87Q25.92 6.29 26.22 6.79Q26.53 7.30 26.82 7.85Q27.10 8.40 27.37 8.95Q27.63 9.50 27.82 10L27.82 10L25.76 10Q25.39 9.04 24.90 8.15Q24.42 7.26 23.86 6.35L23.86 6.35L22.83 6.35L22.83 10L20.86 10L20.86 0.24Q21.15 0.18 21.50 0.12Q21.84 0.06 22.19 0.04Q22.54 0.02 22.86 0Q23.18-0.02 23.42-0.02ZM25.17 3.22L25.17 3.22Q25.17 2.43 24.69 2.06Q24.21 1.70 23.42 1.70L23.42 1.70Q23.31 1.70 23.15 1.70Q22.99 1.71 22.83 1.74L22.83 1.74L22.83 4.72L23.26 4.72Q24.27 4.72 24.72 4.33Q25.17 3.94 25.17 3.22ZM32.02 8.59L32.02 8.59Q32.34 8.59 32.64 8.58Q32.94 8.58 33.17 8.54L33.17 8.54L33.17 6.82Q32.98 6.78 32.70 6.76Q32.43 6.74 32.21 6.74L32.21 6.74Q31.90 6.74 31.62 6.78Q31.33 6.82 31.11 6.91Q30.90 7.01 30.77 7.18Q30.64 7.36 30.64 7.65L30.64 7.65Q30.64 8.16 31.02 8.38Q31.41 8.59 32.02 8.59ZM31.84 2.29L31.84 2.29Q32.77 2.29 33.38 2.50Q34 2.72 34.37 3.11Q34.74 3.50 34.90 4.07Q35.06 4.64 35.06 5.34L35.06 5.34L35.06 9.82Q34.62 9.92 33.78 10.05Q32.93 10.18 31.87 10.18L31.87 10.18Q31.15 10.18 30.57 10.05Q29.98 9.92 29.57 9.62Q29.15 9.33 28.93 8.86Q28.70 8.38 28.70 7.70L28.70 7.70Q28.70 7.04 28.96 6.59Q29.22 6.14 29.65 5.87Q30.08 5.60 30.64 5.48Q31.20 5.36 31.81 5.36L31.81 5.36Q32.58 5.36 33.17 5.49L33.17 5.49L33.17 5.25Q33.17 4.69 32.82 4.31Q32.46 3.94 31.60 3.94L31.60 3.94Q31.04 3.94 30.52 4.02Q30 4.10 29.68 4.21L29.68 4.21L29.41 2.62Q29.78 2.50 30.45 2.39Q31.12 2.29 31.84 2.29ZM42.64 10L41.15 10Q40.98 9.50 40.82 9.09Q40.67 8.67 40.54 8.28Q40.40 7.89 40.26 7.46Q40.13 7.04 39.98 6.53L39.98 6.53Q39.82 7.04 39.70 7.45Q39.57 7.86 39.43 8.26Q39.30 8.66 39.15 9.07Q39.01 9.49 38.80 10L38.80 10L37.31 10Q37.12 9.30 36.95 8.44Q36.78 7.58 36.64 6.62Q36.50 5.65 36.38 4.61Q36.27 3.57 36.18 2.48L36.18 2.48L37.86 2.48Q37.92 3.87 37.99 5.20Q38.06 6.53 38.26 7.94L38.26 7.94Q38.46 7.33 38.62 6.81Q38.77 6.29 38.89 5.82Q39.01 5.34 39.11 4.90Q39.22 4.46 39.33 4L39.33 4L40.75 4Q40.85 4.46 40.95 4.90Q41.06 5.34 41.18 5.82Q41.30 6.29 41.43 6.81Q41.57 7.33 41.76 7.94L41.76 7.94Q41.86 7.20 41.92 6.53Q41.98 5.86 42.02 5.19Q42.06 4.53 42.09 3.86Q42.11 3.20 42.14 2.48L42.14 2.48L43.82 2.48Q43.65 4.67 43.34 6.61Q43.02 8.54 42.64 10L42.64 10ZM54.29 7.20L54.29 4.11L52.58 4.11L52.58 2.48L54.29 2.48L54.29 0.59L56.26 0.27L56.26 2.48L59.41 2.48L59.41 4.11L56.26 4.11L56.26 7.15Q56.26 7.57 56.34 7.82Q56.42 8.08 56.56 8.22Q56.70 8.37 56.91 8.42Q57.12 8.46 57.38 8.46L57.38 8.46Q57.65 8.46 57.88 8.45Q58.11 8.43 58.33 8.39Q58.54 8.35 58.78 8.27Q59.01 8.19 59.28 8.06L59.28 8.06L59.55 9.76Q59.01 9.98 58.38 10.08Q57.74 10.18 57.15 10.18L57.15 10.18Q56.46 10.18 55.94 10.06Q55.41 9.95 55.04 9.63Q54.67 9.31 54.48 8.73Q54.29 8.14 54.29 7.20L54.29 7.20ZM67.55 6.22L67.55 6.22Q67.55 7.12 67.30 7.85Q67.04 8.58 66.58 9.10Q66.11 9.63 65.46 9.92Q64.82 10.21 64.02 10.21L64.02 10.21Q63.22 10.21 62.57 9.92Q61.92 9.63 61.45 9.10Q60.98 8.58 60.72 7.85Q60.46 7.12 60.46 6.22L60.46 6.22Q60.46 5.34 60.73 4.62Q60.99 3.89 61.46 3.37Q61.94 2.85 62.59 2.57Q63.25 2.29 64.02 2.29L64.02 2.29Q64.80 2.29 65.45 2.57Q66.10 2.85 66.57 3.37Q67.04 3.89 67.30 4.62Q67.55 5.34 67.55 6.22ZM62.46 6.24L62.46 6.24Q62.46 7.25 62.82 7.87Q63.18 8.50 63.98 8.50L63.98 8.50Q64.75 8.50 65.14 7.87Q65.54 7.25 65.54 6.24L65.54 6.24Q65.54 5.23 65.18 4.62Q64.82 4 64.02 4L64.02 4Q63.25 4 62.86 4.62Q62.46 5.23 62.46 6.24ZM70.99-1.10L70.99 5.46Q71.28 5.12 71.58 4.74Q71.87 4.37 72.15 3.97Q72.43 3.57 72.69 3.19Q72.94 2.82 73.14 2.48L73.14 2.48L75.50 2.48Q75.22 2.85 74.85 3.28Q74.48 3.71 74.09 4.16Q73.70 4.61 73.30 5.02Q72.91 5.44 72.59 5.79L72.59 5.79Q72.99 6.18 73.46 6.71Q73.92 7.25 74.37 7.82Q74.82 8.40 75.19 8.98Q75.57 9.55 75.79 10L75.79 10L73.54 10Q73.34 9.60 73.03 9.10Q72.72 8.59 72.37 8.10Q72.02 7.62 71.66 7.18Q71.30 6.74 70.99 6.45L70.99 6.45L70.99 10L69.01 10L69.01-0.77L70.99-1.10ZM76.50 6.30L76.50 6.30Q76.50 5.31 76.80 4.56Q77.10 3.81 77.60 3.30Q78.10 2.80 78.74 2.54Q79.38 2.29 80.05 2.29L80.05 2.29Q81.71 2.29 82.58 3.27Q83.44 4.26 83.44 6.14L83.44 6.14Q83.44 6.34 83.43 6.54Q83.42 6.75 83.41 6.88L83.41 6.88L78.53 6.88Q78.53 7.62 79.14 8.04Q79.74 8.46 80.70 8.46L80.70 8.46Q81.30 8.46 81.83 8.34Q82.37 8.21 82.74 8.08L82.74 8.08L83.01 9.76Q82.50 9.94 81.92 10.06Q81.34 10.18 80.62 10.18L80.62 10.18Q79.66 10.18 78.90 9.93Q78.14 9.68 77.61 9.19Q77.07 8.70 76.78 7.98Q76.50 7.26 76.50 6.30ZM78.53 5.52L81.54 5.52Q81.54 5.22 81.46 4.94Q81.38 4.66 81.20 4.43Q81.02 4.21 80.75 4.07Q80.48 3.94 80.08 3.94L80.08 3.94Q79.70 3.94 79.42 4.06Q79.14 4.19 78.95 4.42Q78.77 4.64 78.66 4.93Q78.56 5.22 78.53 5.52L78.53 5.52ZM85.01 10L85.01 2.72Q85.54 2.58 86.31 2.45Q87.09 2.32 88 2.32L88 2.32Q88.90 2.32 89.49 2.57Q90.08 2.82 90.42 3.27Q90.77 3.73 90.91 4.36Q91.06 4.99 91.06 5.76L91.06 5.76L91.06 10L89.09 10L89.09 6.02Q89.09 4.96 88.85 4.50Q88.61 4.03 87.87 4.03L87.87 4.03Q87.65 4.03 87.43 4.05Q87.22 4.06 86.98 4.10L86.98 4.10L86.98 10L85.01 10ZM102.45 6.19L102.45 6.19Q102.45 7.20 102.82 7.84Q103.20 8.48 104.03 8.48L104.03 8.48Q104.27 8.48 104.48 8.46Q104.69 8.45 104.91 8.42L104.91 8.42L104.91 4.32Q104.69 4.19 104.40 4.10Q104.11 4.02 103.79 4.02L103.79 4.02Q103.09 4.02 102.77 4.58Q102.45 5.14 102.45 6.19ZM106.88-1.10L106.88 9.78Q106.34 9.95 105.55 10.06Q104.77 10.18 104.02 10.18L104.02 10.18Q102.26 10.18 101.35 9.14Q100.45 8.10 100.45 6.29L100.45 6.29Q100.45 4.45 101.21 3.38Q101.97 2.32 103.46 2.32L103.46 2.32Q103.86 2.32 104.24 2.41Q104.62 2.50 104.91 2.66L104.91 2.66L104.91-0.77L106.88-1.10ZM112.02 8.59L112.02 8.59Q112.34 8.59 112.64 8.58Q112.94 8.58 113.17 8.54L113.17 8.54L113.17 6.82Q112.98 6.78 112.70 6.76Q112.43 6.74 112.21 6.74L112.21 6.74Q111.90 6.74 111.62 6.78Q111.33 6.82 111.11 6.91Q110.90 7.01 110.77 7.18Q110.64 7.36 110.64 7.65L110.64 7.65Q110.64 8.16 111.02 8.38Q111.41 8.59 112.02 8.59ZM111.84 2.29L111.84 2.29Q112.77 2.29 113.38 2.50Q114 2.72 114.37 3.11Q114.74 3.50 114.90 4.07Q115.06 4.64 115.06 5.34L115.06 5.34L115.06 9.82Q114.62 9.92 113.78 10.05Q112.93 10.18 111.87 10.18L111.87 10.18Q111.15 10.18 110.57 10.05Q109.98 9.92 109.57 9.62Q109.15 9.33 108.93 8.86Q108.70 8.38 108.70 7.70L108.70 7.70Q108.70 7.04 108.96 6.59Q109.22 6.14 109.65 5.87Q110.08 5.60 110.64 5.48Q111.20 5.36 111.81 5.36L111.81 5.36Q112.58 5.36 113.17 5.49L113.17 5.49L113.17 5.25Q113.17 4.69 112.82 4.31Q112.46 3.94 111.60 3.94L111.60 3.94Q111.04 3.94 110.52 4.02Q110 4.10 109.68 4.21L109.68 4.21L109.41 2.62Q109.78 2.50 110.45 2.39Q111.12 2.29 111.84 2.29ZM118.29 7.20L118.29 4.11L116.58 4.11L116.58 2.48L118.29 2.48L118.29 0.59L120.26 0.27L120.26 2.48L123.41 2.48L123.41 4.11L120.26 4.11L120.26 7.15Q120.26 7.57 120.34 7.82Q120.42 8.08 120.56 8.22Q120.70 8.37 120.91 8.42Q121.12 8.46 121.38 8.46L121.38 8.46Q121.65 8.46 121.88 8.45Q122.11 8.43 122.33 8.39Q122.54 8.35 122.78 8.27Q123.01 8.19 123.28 8.06L123.28 8.06L123.55 9.76Q123.01 9.98 122.38 10.08Q121.74 10.18 121.15 10.18L121.15 10.18Q120.46 10.18 119.94 10.06Q119.41 9.95 119.04 9.63Q118.67 9.31 118.48 8.73Q118.29 8.14 118.29 7.20L118.29 7.20ZM128.02 8.59L128.02 8.59Q128.34 8.59 128.64 8.58Q128.94 8.58 129.17 8.54L129.17 8.54L129.17 6.82Q128.98 6.78 128.70 6.76Q128.43 6.74 128.21 6.74L128.21 6.74Q127.90 6.74 127.62 6.78Q127.33 6.82 127.11 6.91Q126.90 7.01 126.77 7.18Q126.64 7.36 126.64 7.65L126.64 7.65Q126.64 8.16 127.02 8.38Q127.41 8.59 128.02 8.59ZM127.84 2.29L127.84 2.29Q128.77 2.29 129.38 2.50Q130 2.72 130.37 3.11Q130.74 3.50 130.90 4.07Q131.06 4.64 131.06 5.34L131.06 5.34L131.06 9.82Q130.62 9.92 129.78 10.05Q128.93 10.18 127.87 10.18L127.87 10.18Q127.15 10.18 126.57 10.05Q125.98 9.92 125.57 9.62Q125.15 9.33 124.93 8.86Q124.70 8.38 124.70 7.70L124.70 7.70Q124.70 7.04 124.96 6.59Q125.22 6.14 125.65 5.87Q126.08 5.60 126.64 5.48Q127.20 5.36 127.81 5.36L127.81 5.36Q128.58 5.36 129.17 5.49L129.17 5.49L129.17 5.25Q129.17 4.69 128.82 4.31Q128.46 3.94 127.60 3.94L127.60 3.94Q127.04 3.94 126.52 4.02Q126 4.10 125.68 4.21L125.68 4.21L125.41 2.62Q125.78 2.50 126.45 2.39Q127.12 2.29 127.84 2.29Z"/>
    </g>
</svg>