<?xml version="1.0" encoding="UTF-8"?>
<svg height="34" width="138.8" version="1.1" xmlns="http://www.w3.org/2000/svg">
    <rect
        height="32"
        width="136.8"
        rx="16"
        ry="16"
        x="1"
        y="1"
        fill="#de1d31"
        stroke="#560b13"
        stroke-width="1"
         />
    <g transform="translate(0, 12)">
        <path fill="#560b13" d="M21.42-2.86L23.86-2.86Q24.03-2.35 24.28-1.56Q24.54-0.77 24.82 0.14Q25.11 1.06 25.40 1.99Q25.69 2.93 25.95 3.72L25.95 3.72Q26.24 2.83 26.55 1.88Q26.86 0.94 27.15 0.06Q27.44-0.82 27.68-1.58Q27.92-2.35 28.11-2.86L28.11-2.86L30.56-2.86Q30.73-0.91 30.88 0.94Q31.04 2.78 31.15 4.60Q31.26 6.41 31.33 8.24Q31.40 10.08 31.45 12L31.45 12L28.74 12L28.88 0.46L27.06 6.74L24.90 6.74L23.14 0.46L23.26 12L20.55 12Q20.62 10.18 20.71 8.21Q20.79 6.24 20.89 4.30Q20.98 2.35 21.12 0.53Q21.25-1.30 21.42-2.86L21.42-2.86ZM43.33 6.34L43.33 6.34Q43.33 7.68 42.94 8.77Q42.56 9.86 41.86 10.66Q41.17 11.45 40.20 11.88Q39.22 12.31 38.02 12.31L38.02 12.31Q36.82 12.31 35.85 11.88Q34.88 11.45 34.17 10.66Q33.46 9.86 33.08 8.77Q32.70 7.68 32.70 6.34L32.70 6.34Q32.70 5.02 33.09 3.92Q33.49 2.83 34.20 2.05Q34.90 1.27 35.89 0.85Q36.87 0.43 38.02 0.43L38.02 0.43Q39.20 0.43 40.17 0.85Q41.14 1.27 41.85 2.05Q42.56 2.83 42.94 3.92Q43.33 5.02 43.33 6.34ZM35.70 6.36L35.70 6.36Q35.70 7.87 36.24 8.81Q36.78 9.74 37.98 9.74L37.98 9.74Q39.13 9.74 39.72 8.81Q40.30 7.87 40.30 6.36L40.30 6.36Q40.30 4.85 39.76 3.92Q39.22 3 38.02 3L38.02 3Q36.87 3 36.28 3.92Q35.70 4.85 35.70 6.36ZM47.67 6.29L47.67 6.29Q47.67 7.80 48.24 8.76Q48.80 9.72 50.05 9.72L50.05 9.72Q50.41 9.72 50.72 9.70Q51.03 9.67 51.37 9.62L51.37 9.62L51.37 3.48Q51.03 3.29 50.60 3.16Q50.17 3.02 49.69 3.02L49.69 3.02Q48.63 3.02 48.15 3.86Q47.67 4.70 47.67 6.29ZM54.32-4.66L54.32 11.66Q53.50 11.93 52.33 12.10Q51.15 12.26 50.02 12.26L50.02 12.26Q47.38 12.26 46.03 10.70Q44.67 9.14 44.67 6.43L44.67 6.43Q44.67 3.67 45.81 2.08Q46.95 0.48 49.18 0.48L49.18 0.48Q49.78 0.48 50.36 0.61Q50.94 0.74 51.37 0.98L51.37 0.98L51.37-4.15L54.32-4.66ZM56.74 6.46L56.74 6.46Q56.74 4.97 57.20 3.84Q57.66 2.71 58.40 1.96Q59.14 1.20 60.10 0.82Q61.06 0.43 62.07 0.43L62.07 0.43Q64.57 0.43 65.86 1.91Q67.16 3.38 67.16 6.22L67.16 6.22Q67.16 6.50 67.15 6.82Q67.14 7.13 67.11 7.32L67.11 7.32L59.79 7.32Q59.79 8.42 60.70 9.06Q61.62 9.70 63.06 9.70L63.06 9.70Q63.94 9.70 64.75 9.50Q65.55 9.31 66.10 9.12L66.10 9.12L66.51 11.64Q65.74 11.90 64.88 12.08Q64.02 12.26 62.94 12.26L62.94 12.26Q61.50 12.26 60.36 11.89Q59.22 11.52 58.41 10.79Q57.61 10.06 57.18 8.98Q56.74 7.90 56.74 6.46ZM59.79 5.28L64.30 5.28Q64.30 4.82 64.18 4.40Q64.06 3.98 63.80 3.65Q63.54 3.31 63.13 3.11Q62.72 2.90 62.12 2.90L62.12 2.90Q61.54 2.90 61.12 3.10Q60.70 3.29 60.43 3.62Q60.15 3.96 60.00 4.39Q59.84 4.82 59.79 5.28L59.79 5.28ZM78.82 9.14L79.21 11.52Q79.14 11.57 78.88 11.69Q78.63 11.81 78.22 11.94Q77.82 12.07 77.23 12.17Q76.64 12.26 75.90 12.26L75.90 12.26Q73.86 12.26 72.92 11.05Q71.98 9.84 71.98 7.51L71.98 7.51L71.98-2.06L68.86-2.06L68.86-4.51L74.94-4.51L74.94 7.73Q74.94 8.88 75.39 9.29Q75.85 9.70 76.54 9.70L76.54 9.70Q77.43 9.70 78.03 9.46Q78.63 9.22 78.82 9.14L78.82 9.14ZM86.82-2.52L86.82-2.52Q86.82-1.66 86.26-1.15Q85.71-0.65 84.94-0.65L84.94-0.65Q84.18-0.65 83.64-1.15Q83.10-1.66 83.10-2.52L83.10-2.52Q83.10-3.41 83.64-3.91Q84.18-4.42 84.94-4.42L84.94-4.42Q85.71-4.42 86.26-3.91Q86.82-3.41 86.82-2.52ZM90.82 9.14L91.21 11.52Q90.30 11.95 89.49 12.11Q88.69 12.26 88.02 12.26L88.02 12.26Q86.86 12.26 86.08 11.93Q85.30 11.59 84.84 10.96Q84.37 10.32 84.18 9.41Q83.98 8.50 83.98 7.32L83.98 7.32L83.98 3.17L80.86 3.17L80.86 0.72L86.94 0.72L86.94 7.70Q86.94 8.71 87.31 9.20Q87.68 9.70 88.54 9.70L88.54 9.70Q88.95 9.70 89.53 9.59Q90.10 9.48 90.82 9.14L90.82 9.14ZM93.06 6.36L93.06 6.36Q93.06 5.14 93.44 4.06Q93.82 2.98 94.62 2.17Q95.41 1.37 96.62 0.90Q97.83 0.43 99.51 0.43L99.51 0.43Q100.52 0.43 101.34 0.58Q102.15 0.72 102.99 1.06L102.99 1.06L102.34 3.43Q101.86 3.26 101.28 3.13Q100.69 3 99.78 3L99.78 3Q98.72 3 98.01 3.25Q97.30 3.50 96.87 3.95Q96.44 4.39 96.25 5.02Q96.06 5.64 96.06 6.36L96.06 6.36Q96.06 7.92 96.93 8.81Q97.81 9.70 99.92 9.70L99.92 9.70Q100.62 9.70 101.37 9.60Q102.13 9.50 102.75 9.29L102.75 9.29L103.18 11.71Q102.56 11.95 101.67 12.11Q100.78 12.26 99.58 12.26L99.58 12.26Q97.86 12.26 96.62 11.81Q95.38 11.35 94.59 10.56Q93.80 9.77 93.43 8.69Q93.06 7.61 93.06 6.36ZM110.02 9.89L110.02 9.89Q110.50 9.89 110.96 9.88Q111.42 9.86 111.75 9.82L111.75 9.82L111.75 7.22Q111.46 7.18 111.06 7.14Q110.65 7.10 110.31 7.10L110.31 7.10Q109.86 7.10 109.42 7.16Q108.99 7.22 108.67 7.37Q108.34 7.51 108.15 7.78Q107.96 8.04 107.96 8.47L107.96 8.47Q107.96 9.24 108.54 9.56Q109.11 9.89 110.02 9.89ZM109.76 0.43L109.76 0.43Q111.15 0.43 112.08 0.76Q113 1.08 113.55 1.67Q114.10 2.26 114.34 3.11Q114.58 3.96 114.58 5.02L114.58 5.02L114.58 11.74Q113.94 11.88 112.66 12.07Q111.39 12.26 109.81 12.26L109.81 12.26Q108.73 12.26 107.85 12.07Q106.98 11.88 106.35 11.44Q105.73 10.99 105.39 10.28Q105.06 9.58 105.06 8.54L105.06 8.54Q105.06 7.56 105.44 6.89Q105.82 6.22 106.47 5.81Q107.12 5.40 107.96 5.22Q108.80 5.04 109.71 5.04L109.71 5.04Q110.86 5.04 111.75 5.23L111.75 5.23L111.75 4.87Q111.75 4.03 111.22 3.47Q110.70 2.90 109.40 2.90L109.40 2.90Q108.56 2.90 107.78 3.02Q107 3.14 106.52 3.31L106.52 3.31L106.11 0.94Q106.66 0.74 107.67 0.59Q108.68 0.43 109.76 0.43Z"/>
    </g>
</svg>