<?xml version="1.0" encoding="UTF-8"?>
<svg height="26" width="106.8" version="1.1" xmlns="http://www.w3.org/2000/svg"><!--Created by Josélio de S. C. Júnior - 2021 - https://github.com/joseliojunior -->
    <rect
        height="24"
        width="104.8"
        rx="1"
        ry="1"
        x="1" y="1"
        fill="#de1d31"
        stroke="#560b13"
        stroke-width="1" />
    <g transform="translate(0, 8)">
        <path fill="#560b13" d="M20.94 0.10L22.58 0.10Q22.69 0.43 22.86 0.96Q23.02 1.49 23.22 2.10Q23.41 2.70 23.60 3.33Q23.79 3.95 23.97 4.48L23.97 4.48Q24.16 3.89 24.37 3.26Q24.58 2.62 24.77 2.04Q24.96 1.46 25.12 0.94Q25.28 0.43 25.41 0.10L25.41 0.10L27.04 0.10Q27.15 1.39 27.26 2.62Q27.36 3.86 27.43 5.06Q27.50 6.27 27.55 7.50Q27.60 8.72 27.63 10L27.63 10L25.82 10L25.92 2.30L24.70 6.50L23.26 6.50L22.10 2.30L22.18 10L20.37 10Q20.42 8.78 20.47 7.47Q20.53 6.16 20.59 4.86Q20.66 3.57 20.74 2.35Q20.83 1.14 20.94 0.10L20.94 0.10ZM35.55 6.22L35.55 6.22Q35.55 7.12 35.30 7.85Q35.04 8.58 34.58 9.10Q34.11 9.63 33.46 9.92Q32.82 10.21 32.02 10.21L32.02 10.21Q31.22 10.21 30.57 9.92Q29.92 9.63 29.45 9.10Q28.98 8.58 28.72 7.85Q28.46 7.12 28.46 6.22L28.46 6.22Q28.46 5.34 28.73 4.62Q28.99 3.89 29.46 3.37Q29.94 2.85 30.59 2.57Q31.25 2.29 32.02 2.29L32.02 2.29Q32.80 2.29 33.45 2.57Q34.10 2.85 34.57 3.37Q35.04 3.89 35.30 4.62Q35.55 5.34 35.55 6.22ZM30.46 6.24L30.46 6.24Q30.46 7.25 30.82 7.87Q31.18 8.50 31.98 8.50L31.98 8.50Q32.75 8.50 33.14 7.87Q33.54 7.25 33.54 6.24L33.54 6.24Q33.54 5.23 33.18 4.62Q32.82 4 32.02 4L32.02 4Q31.25 4 30.86 4.62Q30.46 5.23 30.46 6.24ZM38.45 6.19L38.45 6.19Q38.45 7.20 38.82 7.84Q39.20 8.48 40.03 8.48L40.03 8.48Q40.27 8.48 40.48 8.46Q40.69 8.45 40.91 8.42L40.91 8.42L40.91 4.32Q40.69 4.19 40.40 4.10Q40.11 4.02 39.79 4.02L39.79 4.02Q39.09 4.02 38.77 4.58Q38.45 5.14 38.45 6.19ZM42.88-1.10L42.88 9.78Q42.34 9.95 41.55 10.06Q40.77 10.18 40.02 10.18L40.02 10.18Q38.26 10.18 37.35 9.14Q36.45 8.10 36.45 6.29L36.45 6.29Q36.45 4.45 37.21 3.38Q37.97 2.32 39.46 2.32L39.46 2.32Q39.86 2.32 40.24 2.41Q40.62 2.50 40.91 2.66L40.91 2.66L40.91-0.77L42.88-1.10ZM44.50 6.30L44.50 6.30Q44.50 5.31 44.80 4.56Q45.10 3.81 45.60 3.30Q46.10 2.80 46.74 2.54Q47.38 2.29 48.05 2.29L48.05 2.29Q49.71 2.29 50.58 3.27Q51.44 4.26 51.44 6.14L51.44 6.14Q51.44 6.34 51.43 6.54Q51.42 6.75 51.41 6.88L51.41 6.88L46.53 6.88Q46.53 7.62 47.14 8.04Q47.74 8.46 48.70 8.46L48.70 8.46Q49.30 8.46 49.83 8.34Q50.37 8.21 50.74 8.08L50.74 8.08L51.01 9.76Q50.50 9.94 49.92 10.06Q49.34 10.18 48.62 10.18L48.62 10.18Q47.66 10.18 46.90 9.93Q46.14 9.68 45.61 9.19Q45.07 8.70 44.78 7.98Q44.50 7.26 44.50 6.30ZM46.53 5.52L49.54 5.52Q49.54 5.22 49.46 4.94Q49.38 4.66 49.20 4.43Q49.02 4.21 48.75 4.07Q48.48 3.94 48.08 3.94L48.08 3.94Q47.70 3.94 47.42 4.06Q47.14 4.19 46.95 4.42Q46.77 4.64 46.66 4.93Q46.56 5.22 46.53 5.52L46.53 5.52ZM59.22 8.10L59.47 9.68Q59.42 9.71 59.26 9.79Q59.09 9.87 58.82 9.96Q58.54 10.05 58.15 10.11Q57.76 10.18 57.26 10.18L57.26 10.18Q55.90 10.18 55.28 9.37Q54.66 8.56 54.66 7.01L54.66 7.01L54.66 0.62L52.58 0.62L52.58-1.01L56.62-1.01L56.62 7.15Q56.62 7.92 56.93 8.19Q57.23 8.46 57.70 8.46L57.70 8.46Q58.29 8.46 58.69 8.30Q59.09 8.14 59.22 8.10L59.22 8.10ZM64.54 0.32L64.54 0.32Q64.54 0.90 64.18 1.23Q63.81 1.57 63.30 1.57L63.30 1.57Q62.78 1.57 62.42 1.23Q62.06 0.90 62.06 0.32L62.06 0.32Q62.06-0.27 62.42-0.61Q62.78-0.94 63.30-0.94L63.30-0.94Q63.81-0.94 64.18-0.61Q64.54-0.27 64.54 0.32ZM67.22 8.10L67.47 9.68Q66.86 9.97 66.33 10.07Q65.79 10.18 65.34 10.18L65.34 10.18Q64.58 10.18 64.06 9.95Q63.54 9.73 63.22 9.30Q62.91 8.88 62.78 8.27Q62.66 7.66 62.66 6.88L62.66 6.88L62.66 4.11L60.58 4.11L60.58 2.48L64.62 2.48L64.62 7.14Q64.62 7.81 64.87 8.14Q65.12 8.46 65.70 8.46L65.70 8.46Q65.97 8.46 66.35 8.39Q66.74 8.32 67.22 8.10L67.22 8.10ZM68.70 6.24L68.70 6.24Q68.70 5.42 68.96 4.70Q69.22 3.98 69.74 3.45Q70.27 2.91 71.08 2.60Q71.89 2.29 73.01 2.29L73.01 2.29Q73.68 2.29 74.22 2.38Q74.77 2.48 75.33 2.70L75.33 2.70L74.90 4.29Q74.58 4.18 74.18 4.09Q73.79 4 73.18 4L73.18 4Q72.48 4 72.01 4.17Q71.54 4.34 71.25 4.63Q70.96 4.93 70.83 5.34Q70.70 5.76 70.70 6.24L70.70 6.24Q70.70 7.28 71.29 7.87Q71.87 8.46 73.28 8.46L73.28 8.46Q73.74 8.46 74.25 8.40Q74.75 8.34 75.17 8.19L75.17 8.19L75.46 9.81Q75.04 9.97 74.45 10.07Q73.86 10.18 73.06 10.18L73.06 10.18Q71.90 10.18 71.08 9.87Q70.26 9.57 69.73 9.04Q69.20 8.51 68.95 7.79Q68.70 7.07 68.70 6.24ZM80.02 8.59L80.02 8.59Q80.34 8.59 80.64 8.58Q80.94 8.58 81.17 8.54L81.17 8.54L81.17 6.82Q80.98 6.78 80.70 6.76Q80.43 6.74 80.21 6.74L80.21 6.74Q79.90 6.74 79.62 6.78Q79.33 6.82 79.11 6.91Q78.90 7.01 78.77 7.18Q78.64 7.36 78.64 7.65L78.64 7.65Q78.64 8.16 79.02 8.38Q79.41 8.59 80.02 8.59ZM79.84 2.29L79.84 2.29Q80.77 2.29 81.38 2.50Q82 2.72 82.37 3.11Q82.74 3.50 82.90 4.07Q83.06 4.64 83.06 5.34L83.06 5.34L83.06 9.82Q82.62 9.92 81.78 10.05Q80.93 10.18 79.87 10.18L79.87 10.18Q79.15 10.18 78.57 10.05Q77.98 9.92 77.57 9.62Q77.15 9.33 76.93 8.86Q76.70 8.38 76.70 7.70L76.70 7.70Q76.70 7.04 76.96 6.59Q77.22 6.14 77.65 5.87Q78.08 5.60 78.64 5.48Q79.20 5.36 79.81 5.36L79.81 5.36Q80.58 5.36 81.17 5.49L81.17 5.49L81.17 5.25Q81.17 4.69 80.82 4.31Q80.46 3.94 79.60 3.94L79.60 3.94Q79.04 3.94 78.52 4.02Q78 4.10 77.68 4.21L77.68 4.21L77.41 2.62Q77.78 2.50 78.45 2.39Q79.12 2.29 79.84 2.29Z"/>
    </g>
</svg>