<?xml version="1.0" encoding="UTF-8"?>
<svg height="34" width="163" version="1.1" xmlns="http://www.w3.org/2000/svg">
    <rect
        height="32"
        width="161"
        rx="14"
        ry="14"
        x="1"
        y="1"
        fill="#00FFAE"
        stroke="#006646"
        stroke-width="1"
         />
    <g transform="translate(0, 14)">
        <path fill="#006646" d="M23.13 5.76L23.13 5.76Q23.13 7.33 22.60 8.38Q22.07 9.43 21.16 10.06Q20.25 10.69 19.00 10.96Q17.76 11.22 16.33 11.22L16.33 11.22Q15.18 11.22 13.95 11.10Q12.72 10.97 11.51 10.72L11.51 10.72L11.51-6.11Q12.49-6.28 13.67-6.40Q14.84-6.53 15.99-6.53L15.99-6.53Q17.95-6.53 19.18-6.12Q20.42-5.72 21.12-5.06Q21.82-4.40 22.07-3.59Q22.32-2.78 22.32-1.96L22.32-1.96Q22.32-0.73 21.72 0.22Q21.12 1.17 20.11 1.73L20.11 1.73Q21.87 2.38 22.50 3.47Q23.13 4.56 23.13 5.76ZM16.80 3.41L14.96 3.41L14.96 8.12Q15.32 8.17 15.75 8.20Q16.19 8.23 16.61 8.23L16.61 8.23Q17.20 8.23 17.76 8.13Q18.32 8.03 18.75 7.77Q19.18 7.50 19.46 7.01Q19.74 6.52 19.74 5.76L19.74 5.76Q19.74 4.50 18.95 3.96Q18.15 3.41 16.80 3.41L16.80 3.41ZM14.96 0.56L16.30 0.56Q17.62 0.56 18.29-0.02Q18.96-0.59 18.96-1.60L18.96-1.60Q18.96-2.22 18.76-2.59Q18.57-2.97 18.23-3.18Q17.90-3.39 17.45-3.46Q17-3.53 16.52-3.53L16.52-3.53Q16.13-3.53 15.71-3.50Q15.29-3.48 14.96-3.42L14.96-3.42L14.96 0.56ZM36.63 7.67L37.08 10.44Q36.99 10.50 36.70 10.64Q36.40 10.78 35.93 10.93Q35.45 11.08 34.77 11.20Q34.08 11.31 33.21 11.31L33.21 11.31Q30.83 11.31 29.74 9.89Q28.65 8.48 28.65 5.76L28.65 5.76L28.65-5.41L25.01-5.41L25.01-8.26L32.09-8.26L32.09 6.02Q32.09 7.36 32.62 7.84Q33.16 8.31 33.97 8.31L33.97 8.31Q35.00 8.31 35.70 8.03Q36.40 7.75 36.63 7.67L36.63 7.67ZM45.95-5.94L45.95-5.94Q45.95-4.93 45.31-4.34Q44.66-3.76 43.77-3.76L43.77-3.76Q42.87-3.76 42.24-4.34Q41.61-4.93 41.61-5.94L41.61-5.94Q41.61-6.98 42.24-7.56Q42.87-8.15 43.77-8.15L43.77-8.15Q44.66-8.15 45.31-7.56Q45.95-6.98 45.95-5.94ZM50.63 7.67L51.08 10.44Q50.01 10.94 49.07 11.13Q48.14 11.31 47.35 11.31L47.35 11.31Q46.01 11.31 45.10 10.92Q44.19 10.52 43.64 9.78Q43.10 9.04 42.87 7.98Q42.65 6.91 42.65 5.54L42.65 5.54L42.65 0.70L39.01 0.70L39.01-2.16L46.09-2.16L46.09 5.99Q46.09 7.16 46.53 7.74Q46.96 8.31 47.97 8.31L47.97 8.31Q48.44 8.31 49.12 8.19Q49.79 8.06 50.63 7.67L50.63 7.67ZM56.00 6.10L56.00 0.70L53.01 0.70L53.01-2.16L56.00-2.16L56.00-5.46L59.45-6.02L59.45-2.16L64.96-2.16L64.96 0.70L59.45 0.70L59.45 6.02Q59.45 6.74 59.59 7.19Q59.73 7.64 59.98 7.89Q60.23 8.14 60.60 8.23Q60.96 8.31 61.41 8.31L61.41 8.31Q61.88 8.31 62.29 8.28Q62.70 8.26 63.07 8.19Q63.45 8.12 63.86 7.98Q64.26 7.84 64.74 7.61L64.74 7.61L65.22 10.58Q64.26 10.97 63.16 11.14Q62.05 11.31 61.02 11.31L61.02 11.31Q59.81 11.31 58.89 11.11Q57.96 10.92 57.32 10.36Q56.68 9.80 56.34 8.77Q56.00 7.75 56.00 6.10L56.00 6.10ZM77.93-2.16L77.93 0.36Q77.54 0.81 76.81 1.69Q76.08 2.57 75.23 3.66Q74.37 4.76 73.52 5.95Q72.66 7.14 71.99 8.14L71.99 8.14L78.21 8.14L78.21 11L67.88 11L67.88 8.90Q68.52 7.84 69.28 6.72Q70.03 5.60 70.79 4.52Q71.54 3.44 72.27 2.46Q73 1.48 73.59 0.70L73.59 0.70L68.16 0.70L68.16-2.16L77.93-2.16ZM93.13 5.76L93.13 5.76Q93.13 7.33 92.60 8.38Q92.07 9.43 91.16 10.06Q90.25 10.69 89.00 10.96Q87.76 11.22 86.33 11.22L86.33 11.22Q85.18 11.22 83.95 11.10Q82.72 10.97 81.51 10.72L81.51 10.72L81.51-6.11Q82.49-6.28 83.67-6.40Q84.84-6.53 85.99-6.53L85.99-6.53Q87.95-6.53 89.18-6.12Q90.42-5.72 91.12-5.06Q91.82-4.40 92.07-3.59Q92.32-2.78 92.32-1.96L92.32-1.96Q92.32-0.73 91.72 0.22Q91.12 1.17 90.11 1.73L90.11 1.73Q91.87 2.38 92.50 3.47Q93.13 4.56 93.13 5.76ZM86.80 3.41L84.96 3.41L84.96 8.12Q85.32 8.17 85.75 8.20Q86.19 8.23 86.61 8.23L86.61 8.23Q87.20 8.23 87.76 8.13Q88.32 8.03 88.75 7.77Q89.18 7.50 89.46 7.01Q89.74 6.52 89.74 5.76L89.74 5.76Q89.74 4.50 88.95 3.96Q88.15 3.41 86.80 3.41L86.80 3.41ZM84.96 0.56L86.30 0.56Q87.62 0.56 88.29-0.02Q88.96-0.59 88.96-1.60L88.96-1.60Q88.96-2.22 88.76-2.59Q88.57-2.97 88.23-3.18Q87.90-3.39 87.45-3.46Q87-3.53 86.52-3.53L86.52-3.53Q86.13-3.53 85.71-3.50Q85.29-3.48 84.96-3.42L84.96-3.42L84.96 0.56ZM101.03 8.54L101.03 8.54Q101.59 8.54 102.12 8.52Q102.65 8.51 103.04 8.45L103.04 8.45L103.04 5.43Q102.71 5.37 102.23 5.33Q101.76 5.29 101.36 5.29L101.36 5.29Q100.83 5.29 100.33 5.36Q99.82 5.43 99.45 5.60Q99.07 5.76 98.84 6.07Q98.62 6.38 98.62 6.88L98.62 6.88Q98.62 7.78 99.29 8.16Q99.96 8.54 101.03 8.54ZM100.72-2.50L100.72-2.50Q102.34-2.50 103.42-2.12Q104.50-1.74 105.14-1.05Q105.79-0.37 106.07 0.63Q106.35 1.62 106.35 2.85L106.35 2.85L106.35 10.69Q105.59 10.86 104.11 11.08Q102.62 11.31 100.78 11.31L100.78 11.31Q99.52 11.31 98.49 11.08Q97.47 10.86 96.74 10.34Q96.02 9.82 95.62 9.00Q95.23 8.17 95.23 6.97L95.23 6.97Q95.23 5.82 95.68 5.04Q96.13 4.25 96.88 3.78Q97.64 3.30 98.62 3.09Q99.60 2.88 100.66 2.88L100.66 2.88Q102.01 2.88 103.04 3.10L103.04 3.10L103.04 2.68Q103.04 1.70 102.43 1.05Q101.81 0.39 100.30 0.39L100.30 0.39Q99.32 0.39 98.41 0.53Q97.50 0.67 96.94 0.86L96.94 0.86L96.46-1.91Q97.11-2.13 98.28-2.31Q99.46-2.50 100.72-2.50ZM114.38 8.40L114.38 8.40Q115.64 8.40 116.32 8.21Q116.99 8.03 116.99 7.47L116.99 7.47Q116.99 7.11 116.78 6.86Q116.57 6.60 116.19 6.42Q115.81 6.24 115.32 6.07Q114.83 5.90 114.30 5.74L114.30 5.74Q113.54 5.51 112.76 5.22Q111.98 4.92 111.33 4.48Q110.69 4.03 110.27 3.34Q109.85 2.66 109.85 1.62L109.85 1.62Q109.85 0.78 110.17 0.04Q110.49-0.70 111.18-1.28Q111.86-1.85 112.93-2.17Q113.99-2.50 115.48-2.50L115.48-2.50Q116.76-2.50 117.87-2.30Q118.98-2.10 119.79-1.74L119.79-1.74L119.26 1.17Q118.78 1.03 117.77 0.71Q116.76 0.39 115.50 0.39L115.50 0.39Q114.19 0.39 113.73 0.71Q113.26 1.03 113.26 1.40L113.26 1.40Q113.26 1.70 113.47 1.94Q113.68 2.18 114.03 2.38Q114.38 2.57 114.85 2.75Q115.31 2.94 115.84 3.10L115.84 3.10Q116.60 3.36 117.41 3.66Q118.22 3.97 118.88 4.43Q119.54 4.90 119.96 5.61Q120.38 6.32 120.38 7.36L120.38 7.36Q120.38 8.17 120.07 8.90Q119.76 9.63 119.05 10.16Q118.33 10.69 117.18 11Q116.04 11.31 114.36 11.31L114.36 11.31Q112.65 11.31 111.44 10.92Q110.24 10.52 109.51 10.22L109.51 10.22L110.04 7.33Q111.02 7.72 112.13 8.06Q113.24 8.40 114.38 8.40ZM129.95-5.94L129.95-5.94Q129.95-4.93 129.31-4.34Q128.66-3.76 127.77-3.76L127.77-3.76Q126.87-3.76 126.24-4.34Q125.61-4.93 125.61-5.94L125.61-5.94Q125.61-6.98 126.24-7.56Q126.87-8.15 127.77-8.15L127.77-8.15Q128.66-8.15 129.31-7.56Q129.95-6.98 129.95-5.94ZM134.63 7.67L135.08 10.44Q134.01 10.94 133.07 11.13Q132.14 11.31 131.35 11.31L131.35 11.31Q130.01 11.31 129.10 10.92Q128.19 10.52 127.64 9.78Q127.10 9.04 126.87 7.98Q126.65 6.91 126.65 5.54L126.65 5.54L126.65 0.70L123.01 0.70L123.01-2.16L130.09-2.16L130.09 5.99Q130.09 7.16 130.53 7.74Q130.96 8.31 131.97 8.31L131.97 8.31Q132.44 8.31 133.12 8.19Q133.79 8.06 134.63 7.67L134.63 7.67ZM137.23 4.42L137.23 4.42Q137.23 2.99 137.68 1.73Q138.13 0.47 139.05-0.47Q139.98-1.40 141.39-1.95Q142.80-2.50 144.76-2.50L144.76-2.50Q145.94-2.50 146.89-2.33Q147.84-2.16 148.82-1.77L148.82-1.77L148.07 1.00Q147.51 0.81 146.82 0.65Q146.14 0.50 145.07 0.50L145.07 0.50Q143.84 0.50 143.01 0.79Q142.19 1.09 141.68 1.61Q141.18 2.12 140.96 2.85Q140.73 3.58 140.73 4.42L140.73 4.42Q140.73 6.24 141.75 7.28Q142.78 8.31 145.24 8.31L145.24 8.31Q146.05 8.31 146.93 8.20Q147.82 8.09 148.54 7.84L148.54 7.84L149.05 10.66Q148.32 10.94 147.28 11.13Q146.25 11.31 144.85 11.31L144.85 11.31Q142.83 11.31 141.39 10.78Q139.95 10.24 139.02 9.32Q138.10 8.40 137.67 7.14Q137.23 5.88 137.23 4.42Z"/>
    </g>
</svg>