<?xml version="1.0" encoding="UTF-8"?>
<svg height="34" width="163" version="1.1" xmlns="http://www.w3.org/2000/svg">
    <rect
        height="32"
        width="161"
        rx="16"
        ry="16"
        x="1"
        y="1"
        fill="#00FFAE"
        stroke="#006646"
        stroke-width="1"
         />
    <g transform="translate(0, 12)">
        <path fill="#006646" d="M31.26 7.51L31.26 7.51Q31.26 8.86 30.80 9.76Q30.34 10.66 29.56 11.20Q28.78 11.74 27.72 11.96Q26.65 12.19 25.42 12.19L25.42 12.19Q24.44 12.19 23.38 12.08Q22.33 11.98 21.30 11.76L21.30 11.76L21.30-2.66Q22.14-2.81 23.14-2.92Q24.15-3.02 25.14-3.02L25.14-3.02Q26.82-3.02 27.87-2.68Q28.93-2.33 29.53-1.76Q30.13-1.20 30.34-0.50Q30.56 0.19 30.56 0.89L30.56 0.89Q30.56 1.94 30.04 2.76Q29.53 3.58 28.66 4.06L28.66 4.06Q30.18 4.61 30.72 5.54Q31.26 6.48 31.26 7.51ZM25.83 5.50L24.25 5.50L24.25 9.53Q24.56 9.58 24.93 9.60Q25.30 9.62 25.66 9.62L25.66 9.62Q26.17 9.62 26.65 9.54Q27.13 9.46 27.50 9.23Q27.87 9 28.11 8.58Q28.35 8.16 28.35 7.51L28.35 7.51Q28.35 6.43 27.67 5.96Q26.98 5.50 25.83 5.50L25.83 5.50ZM24.25 3.05L25.40 3.05Q26.53 3.05 27.10 2.56Q27.68 2.06 27.68 1.20L27.68 1.20Q27.68 0.67 27.51 0.35Q27.34 0.02 27.06-0.16Q26.77-0.34 26.38-0.40Q26-0.46 25.59-0.46L25.59-0.46Q25.26-0.46 24.90-0.43Q24.54-0.41 24.25-0.36L24.25-0.36L24.25 3.05ZM42.82 9.14L43.21 11.52Q43.14 11.57 42.88 11.69Q42.63 11.81 42.22 11.94Q41.82 12.07 41.23 12.17Q40.64 12.26 39.90 12.26L39.90 12.26Q37.86 12.26 36.92 11.05Q35.98 9.84 35.98 7.51L35.98 7.51L35.98-2.06L32.86-2.06L32.86-4.51L38.94-4.51L38.94 7.73Q38.94 8.88 39.39 9.29Q39.85 9.70 40.54 9.70L40.54 9.70Q41.43 9.70 42.03 9.46Q42.63 9.22 42.82 9.14L42.82 9.14ZM50.82-2.52L50.82-2.52Q50.82-1.66 50.26-1.15Q49.71-0.65 48.94-0.65L48.94-0.65Q48.18-0.65 47.64-1.15Q47.10-1.66 47.10-2.52L47.10-2.52Q47.10-3.41 47.64-3.91Q48.18-4.42 48.94-4.42L48.94-4.42Q49.71-4.42 50.26-3.91Q50.82-3.41 50.82-2.52ZM54.82 9.14L55.21 11.52Q54.30 11.95 53.49 12.11Q52.69 12.26 52.02 12.26L52.02 12.26Q50.86 12.26 50.08 11.93Q49.30 11.59 48.84 10.96Q48.37 10.32 48.18 9.41Q47.98 8.50 47.98 7.32L47.98 7.32L47.98 3.17L44.86 3.17L44.86 0.72L50.94 0.72L50.94 7.70Q50.94 8.71 51.31 9.20Q51.68 9.70 52.54 9.70L52.54 9.70Q52.95 9.70 53.53 9.59Q54.10 9.48 54.82 9.14L54.82 9.14ZM59.43 7.80L59.43 3.17L56.86 3.17L56.86 0.72L59.43 0.72L59.43-2.11L62.38-2.59L62.38 0.72L67.11 0.72L67.11 3.17L62.38 3.17L62.38 7.73Q62.38 8.35 62.50 8.74Q62.62 9.12 62.84 9.34Q63.06 9.55 63.37 9.62Q63.68 9.70 64.06 9.70L64.06 9.70Q64.47 9.70 64.82 9.67Q65.17 9.65 65.49 9.59Q65.82 9.53 66.16 9.41Q66.51 9.29 66.92 9.10L66.92 9.10L67.33 11.64Q66.51 11.98 65.56 12.12Q64.62 12.26 63.73 12.26L63.73 12.26Q62.70 12.26 61.90 12.10Q61.11 11.93 60.56 11.45Q60.01 10.97 59.72 10.09Q59.43 9.22 59.43 7.80L59.43 7.80ZM78.22 0.72L78.22 2.88Q77.89 3.26 77.26 4.02Q76.64 4.78 75.91 5.71Q75.18 6.65 74.44 7.67Q73.71 8.69 73.14 9.55L73.14 9.55L78.46 9.55L78.46 12L69.61 12L69.61 10.20Q70.16 9.29 70.81 8.33Q71.46 7.37 72.10 6.44Q72.75 5.52 73.38 4.68Q74 3.84 74.50 3.17L74.50 3.17L69.85 3.17L69.85 0.72L78.22 0.72ZM91.26 7.51L91.26 7.51Q91.26 8.86 90.80 9.76Q90.34 10.66 89.56 11.20Q88.78 11.74 87.72 11.96Q86.65 12.19 85.42 12.19L85.42 12.19Q84.44 12.19 83.38 12.08Q82.33 11.98 81.30 11.76L81.30 11.76L81.30-2.66Q82.14-2.81 83.14-2.92Q84.15-3.02 85.14-3.02L85.14-3.02Q86.82-3.02 87.87-2.68Q88.93-2.33 89.53-1.76Q90.13-1.20 90.34-0.50Q90.56 0.19 90.56 0.89L90.56 0.89Q90.56 1.94 90.04 2.76Q89.53 3.58 88.66 4.06L88.66 4.06Q90.18 4.61 90.72 5.54Q91.26 6.48 91.26 7.51ZM85.83 5.50L84.25 5.50L84.25 9.53Q84.56 9.58 84.93 9.60Q85.30 9.62 85.66 9.62L85.66 9.62Q86.17 9.62 86.65 9.54Q87.13 9.46 87.50 9.23Q87.87 9 88.11 8.58Q88.35 8.16 88.35 7.51L88.35 7.51Q88.35 6.43 87.67 5.96Q86.98 5.50 85.83 5.50L85.83 5.50ZM84.25 3.05L85.40 3.05Q86.53 3.05 87.10 2.56Q87.68 2.06 87.68 1.20L87.68 1.20Q87.68 0.67 87.51 0.35Q87.34 0.02 87.06-0.16Q86.77-0.34 86.38-0.40Q86-0.46 85.59-0.46L85.59-0.46Q85.26-0.46 84.90-0.43Q84.54-0.41 84.25-0.36L84.25-0.36L84.25 3.05ZM98.02 9.89L98.02 9.89Q98.50 9.89 98.96 9.88Q99.42 9.86 99.75 9.82L99.75 9.82L99.75 7.22Q99.46 7.18 99.06 7.14Q98.65 7.10 98.31 7.10L98.31 7.10Q97.86 7.10 97.42 7.16Q96.99 7.22 96.67 7.37Q96.34 7.51 96.15 7.78Q95.96 8.04 95.96 8.47L95.96 8.47Q95.96 9.24 96.54 9.56Q97.11 9.89 98.02 9.89ZM97.76 0.43L97.76 0.43Q99.15 0.43 100.08 0.76Q101 1.08 101.55 1.67Q102.10 2.26 102.34 3.11Q102.58 3.96 102.58 5.02L102.58 5.02L102.58 11.74Q101.94 11.88 100.66 12.07Q99.39 12.26 97.81 12.26L97.81 12.26Q96.73 12.26 95.85 12.07Q94.98 11.88 94.35 11.44Q93.73 10.99 93.39 10.28Q93.06 9.58 93.06 8.54L93.06 8.54Q93.06 7.56 93.44 6.89Q93.82 6.22 94.47 5.81Q95.12 5.40 95.96 5.22Q96.80 5.04 97.71 5.04L97.71 5.04Q98.86 5.04 99.75 5.23L99.75 5.23L99.75 4.87Q99.75 4.03 99.22 3.47Q98.70 2.90 97.40 2.90L97.40 2.90Q96.56 2.90 95.78 3.02Q95 3.14 94.52 3.31L94.52 3.31L94.11 0.94Q94.66 0.74 95.67 0.59Q96.68 0.43 97.76 0.43ZM109.47 9.77L109.47 9.77Q110.55 9.77 111.13 9.61Q111.70 9.46 111.70 8.98L111.70 8.98Q111.70 8.66 111.52 8.45Q111.34 8.23 111.02 8.08Q110.70 7.92 110.28 7.78Q109.86 7.63 109.40 7.49L109.40 7.49Q108.75 7.30 108.08 7.04Q107.41 6.79 106.86 6.41Q106.30 6.02 105.94 5.44Q105.58 4.85 105.58 3.96L105.58 3.96Q105.58 3.24 105.86 2.60Q106.14 1.97 106.72 1.48Q107.31 0.98 108.22 0.71Q109.14 0.43 110.41 0.43L110.41 0.43Q111.51 0.43 112.46 0.60Q113.41 0.77 114.10 1.08L114.10 1.08L113.65 3.58Q113.24 3.46 112.38 3.18Q111.51 2.90 110.43 2.90L110.43 2.90Q109.30 2.90 108.91 3.18Q108.51 3.46 108.51 3.77L108.51 3.77Q108.51 4.03 108.69 4.24Q108.87 4.44 109.17 4.61Q109.47 4.78 109.87 4.93Q110.26 5.09 110.72 5.23L110.72 5.23Q111.37 5.45 112.06 5.71Q112.76 5.98 113.32 6.37Q113.89 6.77 114.25 7.38Q114.61 7.99 114.61 8.88L114.61 8.88Q114.61 9.58 114.34 10.20Q114.08 10.82 113.47 11.28Q112.86 11.74 111.87 12Q110.89 12.26 109.45 12.26L109.45 12.26Q107.98 12.26 106.95 11.93Q105.92 11.59 105.30 11.33L105.30 11.33L105.75 8.86Q106.59 9.19 107.54 9.48Q108.49 9.77 109.47 9.77ZM122.82-2.52L122.82-2.52Q122.82-1.66 122.26-1.15Q121.71-0.65 120.94-0.65L120.94-0.65Q120.18-0.65 119.64-1.15Q119.10-1.66 119.10-2.52L119.10-2.52Q119.10-3.41 119.64-3.91Q120.18-4.42 120.94-4.42L120.94-4.42Q121.71-4.42 122.26-3.91Q122.82-3.41 122.82-2.52ZM126.82 9.14L127.21 11.52Q126.30 11.95 125.49 12.11Q124.69 12.26 124.02 12.26L124.02 12.26Q122.86 12.26 122.08 11.93Q121.30 11.59 120.84 10.96Q120.37 10.32 120.18 9.41Q119.98 8.50 119.98 7.32L119.98 7.32L119.98 3.17L116.86 3.17L116.86 0.72L122.94 0.72L122.94 7.70Q122.94 8.71 123.31 9.20Q123.68 9.70 124.54 9.70L124.54 9.70Q124.95 9.70 125.53 9.59Q126.10 9.48 126.82 9.14L126.82 9.14ZM129.06 6.36L129.06 6.36Q129.06 5.14 129.44 4.06Q129.82 2.98 130.62 2.17Q131.41 1.37 132.62 0.90Q133.83 0.43 135.51 0.43L135.51 0.43Q136.52 0.43 137.34 0.58Q138.15 0.72 138.99 1.06L138.99 1.06L138.34 3.43Q137.86 3.26 137.28 3.13Q136.69 3 135.78 3L135.78 3Q134.72 3 134.01 3.25Q133.30 3.50 132.87 3.95Q132.44 4.39 132.25 5.02Q132.06 5.64 132.06 6.36L132.06 6.36Q132.06 7.92 132.93 8.81Q133.81 9.70 135.92 9.70L135.92 9.70Q136.62 9.70 137.37 9.60Q138.13 9.50 138.75 9.29L138.75 9.29L139.18 11.71Q138.56 11.95 137.67 12.11Q136.78 12.26 135.58 12.26L135.58 12.26Q133.86 12.26 132.62 11.81Q131.38 11.35 130.59 10.56Q129.80 9.77 129.43 8.69Q129.06 7.61 129.06 6.36Z"/>
    </g>
</svg>