<?xml version="1.0" encoding="UTF-8"?>
<svg height="26" width="123" version="1.1" xmlns="http://www.w3.org/2000/svg"><!--Created by Josélio de S. C. Júnior - 2021 - https://github.com/joseliojunior -->
    <rect
        height="24"
        width="121"
        rx="1"
        ry="1"
        x="1" y="1"
        fill="#00FFAE"
        stroke="#006646"
        stroke-width="1" />
    <g transform="translate(0, 8)">
        <path fill="#006646" stroke="none" d="M27.50 7.01L27.50 7.01Q27.50 7.90 27.20 8.50Q26.90 9.10 26.38 9.46Q25.86 9.82 25.14 9.98Q24.43 10.13 23.62 10.13L23.62 10.13Q22.96 10.13 22.26 10.06Q21.55 9.98 20.86 9.84L20.86 9.84L20.86 0.22Q21.42 0.13 22.10 0.06Q22.77-0.02 23.42-0.02L23.42-0.02Q24.54-0.02 25.25 0.22Q25.95 0.45 26.35 0.82Q26.75 1.20 26.90 1.66Q27.04 2.13 27.04 2.59L27.04 2.59Q27.04 3.30 26.70 3.84Q26.35 4.38 25.78 4.70L25.78 4.70Q26.78 5.07 27.14 5.70Q27.50 6.32 27.50 7.01ZM23.89 5.66L22.83 5.66L22.83 8.35Q23.04 8.38 23.29 8.40Q23.54 8.42 23.78 8.42L23.78 8.42Q24.11 8.42 24.43 8.36Q24.75 8.30 25 8.15Q25.25 8 25.41 7.72Q25.57 7.44 25.57 7.01L25.57 7.01Q25.57 6.29 25.11 5.98Q24.66 5.66 23.89 5.66L23.89 5.66ZM22.83 4.03L23.60 4.03Q24.35 4.03 24.74 3.70Q25.12 3.38 25.12 2.80L25.12 2.80Q25.12 2.45 25.01 2.23Q24.90 2.02 24.70 1.90Q24.51 1.78 24.26 1.74Q24 1.70 23.73 1.70L23.73 1.70Q23.50 1.70 23.26 1.71Q23.02 1.73 22.83 1.76L22.83 1.76L22.83 4.03ZM35.22 8.10L35.47 9.68Q35.42 9.71 35.26 9.79Q35.09 9.87 34.82 9.96Q34.54 10.05 34.15 10.11Q33.76 10.18 33.26 10.18L33.26 10.18Q31.90 10.18 31.28 9.37Q30.66 8.56 30.66 7.01L30.66 7.01L30.66 0.62L28.58 0.62L28.58-1.01L32.62-1.01L32.62 7.15Q32.62 7.92 32.93 8.19Q33.23 8.46 33.70 8.46L33.70 8.46Q34.29 8.46 34.69 8.30Q35.09 8.14 35.22 8.10L35.22 8.10ZM40.54 0.32L40.54 0.32Q40.54 0.90 40.18 1.23Q39.81 1.57 39.30 1.57L39.30 1.57Q38.78 1.57 38.42 1.23Q38.06 0.90 38.06 0.32L38.06 0.32Q38.06-0.27 38.42-0.61Q38.78-0.94 39.30-0.94L39.30-0.94Q39.81-0.94 40.18-0.61Q40.54-0.27 40.54 0.32ZM43.22 8.10L43.47 9.68Q42.86 9.97 42.33 10.07Q41.79 10.18 41.34 10.18L41.34 10.18Q40.58 10.18 40.06 9.95Q39.54 9.73 39.22 9.30Q38.91 8.88 38.78 8.27Q38.66 7.66 38.66 6.88L38.66 6.88L38.66 4.11L36.58 4.11L36.58 2.48L40.62 2.48L40.62 7.14Q40.62 7.81 40.87 8.14Q41.12 8.46 41.70 8.46L41.70 8.46Q41.97 8.46 42.35 8.39Q42.74 8.32 43.22 8.10L43.22 8.10ZM46.29 7.20L46.29 4.11L44.58 4.11L44.58 2.48L46.29 2.48L46.29 0.59L48.26 0.27L48.26 2.48L51.41 2.48L51.41 4.11L48.26 4.11L48.26 7.15Q48.26 7.57 48.34 7.82Q48.42 8.08 48.56 8.22Q48.70 8.37 48.91 8.42Q49.12 8.46 49.38 8.46L49.38 8.46Q49.65 8.46 49.88 8.45Q50.11 8.43 50.33 8.39Q50.54 8.35 50.78 8.27Q51.01 8.19 51.28 8.06L51.28 8.06L51.55 9.76Q51.01 9.98 50.38 10.08Q49.74 10.18 49.15 10.18L49.15 10.18Q48.46 10.18 47.94 10.06Q47.41 9.95 47.04 9.63Q46.67 9.31 46.48 8.73Q46.29 8.14 46.29 7.20L46.29 7.20ZM58.82 2.48L58.82 3.92Q58.59 4.18 58.18 4.68Q57.76 5.18 57.27 5.81Q56.78 6.43 56.30 7.11Q55.81 7.79 55.42 8.37L55.42 8.37L58.98 8.37L58.98 10L53.07 10L53.07 8.80Q53.44 8.19 53.87 7.55Q54.30 6.91 54.74 6.30Q55.17 5.68 55.58 5.12Q56 4.56 56.34 4.11L56.34 4.11L53.23 4.11L53.23 2.48L58.82 2.48ZM67.50 7.01L67.50 7.01Q67.50 7.90 67.20 8.50Q66.90 9.10 66.38 9.46Q65.86 9.82 65.14 9.98Q64.43 10.13 63.62 10.13L63.62 10.13Q62.96 10.13 62.26 10.06Q61.55 9.98 60.86 9.84L60.86 9.84L60.86 0.22Q61.42 0.13 62.10 0.06Q62.77-0.02 63.42-0.02L63.42-0.02Q64.54-0.02 65.25 0.22Q65.95 0.45 66.35 0.82Q66.75 1.20 66.90 1.66Q67.04 2.13 67.04 2.59L67.04 2.59Q67.04 3.30 66.70 3.84Q66.35 4.38 65.78 4.70L65.78 4.70Q66.78 5.07 67.14 5.70Q67.50 6.32 67.50 7.01ZM63.89 5.66L62.83 5.66L62.83 8.35Q63.04 8.38 63.29 8.40Q63.54 8.42 63.78 8.42L63.78 8.42Q64.11 8.42 64.43 8.36Q64.75 8.30 65 8.15Q65.25 8 65.41 7.72Q65.57 7.44 65.57 7.01L65.57 7.01Q65.57 6.29 65.11 5.98Q64.66 5.66 63.89 5.66L63.89 5.66ZM62.83 4.03L63.60 4.03Q64.35 4.03 64.74 3.70Q65.12 3.38 65.12 2.80L65.12 2.80Q65.12 2.45 65.01 2.23Q64.90 2.02 64.70 1.90Q64.51 1.78 64.26 1.74Q64 1.70 63.73 1.70L63.73 1.70Q63.50 1.70 63.26 1.71Q63.02 1.73 62.83 1.76L62.83 1.76L62.83 4.03ZM72.02 8.59L72.02 8.59Q72.34 8.59 72.64 8.58Q72.94 8.58 73.17 8.54L73.17 8.54L73.17 6.82Q72.98 6.78 72.70 6.76Q72.43 6.74 72.21 6.74L72.21 6.74Q71.90 6.74 71.62 6.78Q71.33 6.82 71.11 6.91Q70.90 7.01 70.77 7.18Q70.64 7.36 70.64 7.65L70.64 7.65Q70.64 8.16 71.02 8.38Q71.41 8.59 72.02 8.59ZM71.84 2.29L71.84 2.29Q72.77 2.29 73.38 2.50Q74 2.72 74.37 3.11Q74.74 3.50 74.90 4.07Q75.06 4.64 75.06 5.34L75.06 5.34L75.06 9.82Q74.62 9.92 73.78 10.05Q72.93 10.18 71.87 10.18L71.87 10.18Q71.15 10.18 70.57 10.05Q69.98 9.92 69.57 9.62Q69.15 9.33 68.93 8.86Q68.70 8.38 68.70 7.70L68.70 7.70Q68.70 7.04 68.96 6.59Q69.22 6.14 69.65 5.87Q70.08 5.60 70.64 5.48Q71.20 5.36 71.81 5.36L71.81 5.36Q72.58 5.36 73.17 5.49L73.17 5.49L73.17 5.25Q73.17 4.69 72.82 4.31Q72.46 3.94 71.60 3.94L71.60 3.94Q71.04 3.94 70.52 4.02Q70 4.10 69.68 4.21L69.68 4.21L69.41 2.62Q69.78 2.50 70.45 2.39Q71.12 2.29 71.84 2.29ZM79.65 8.51L79.65 8.51Q80.37 8.51 80.75 8.41Q81.14 8.30 81.14 7.98L81.14 7.98Q81.14 7.78 81.02 7.63Q80.90 7.49 80.68 7.38Q80.46 7.28 80.18 7.18Q79.90 7.09 79.60 6.99L79.60 6.99Q79.17 6.86 78.72 6.70Q78.27 6.53 77.90 6.27Q77.54 6.02 77.30 5.62Q77.06 5.23 77.06 4.64L77.06 4.64Q77.06 4.16 77.24 3.74Q77.42 3.31 77.82 2.98Q78.21 2.66 78.82 2.47Q79.42 2.29 80.27 2.29L80.27 2.29Q81.01 2.29 81.64 2.40Q82.27 2.51 82.74 2.72L82.74 2.72L82.43 4.38Q82.16 4.30 81.58 4.12Q81.01 3.94 80.29 3.94L80.29 3.94Q79.54 3.94 79.27 4.12Q79.01 4.30 79.01 4.51L79.01 4.51Q79.01 4.69 79.13 4.82Q79.25 4.96 79.45 5.07Q79.65 5.18 79.91 5.29Q80.18 5.39 80.48 5.49L80.48 5.49Q80.91 5.63 81.38 5.81Q81.84 5.98 82.22 6.25Q82.59 6.51 82.83 6.92Q83.07 7.33 83.07 7.92L83.07 7.92Q83.07 8.38 82.90 8.80Q82.72 9.22 82.31 9.52Q81.90 9.82 81.25 10Q80.59 10.18 79.63 10.18L79.63 10.18Q78.66 10.18 77.97 9.95Q77.28 9.73 76.86 9.55L76.86 9.55L77.17 7.90Q77.73 8.13 78.36 8.32Q78.99 8.51 79.65 8.51ZM88.54 0.32L88.54 0.32Q88.54 0.90 88.18 1.23Q87.81 1.57 87.30 1.57L87.30 1.57Q86.78 1.57 86.42 1.23Q86.06 0.90 86.06 0.32L86.06 0.32Q86.06-0.27 86.42-0.61Q86.78-0.94 87.30-0.94L87.30-0.94Q87.81-0.94 88.18-0.61Q88.54-0.27 88.54 0.32ZM91.22 8.10L91.47 9.68Q90.86 9.97 90.33 10.07Q89.79 10.18 89.34 10.18L89.34 10.18Q88.58 10.18 88.06 9.95Q87.54 9.73 87.22 9.30Q86.91 8.88 86.78 8.27Q86.66 7.66 86.66 6.88L86.66 6.88L86.66 4.11L84.58 4.11L84.58 2.48L88.62 2.48L88.62 7.14Q88.62 7.81 88.87 8.14Q89.12 8.46 89.70 8.46L89.70 8.46Q89.97 8.46 90.35 8.39Q90.74 8.32 91.22 8.10L91.22 8.10ZM92.70 6.24L92.70 6.24Q92.70 5.42 92.96 4.70Q93.22 3.98 93.74 3.45Q94.27 2.91 95.08 2.60Q95.89 2.29 97.01 2.29L97.01 2.29Q97.68 2.29 98.22 2.38Q98.77 2.48 99.33 2.70L99.33 2.70L98.90 4.29Q98.58 4.18 98.18 4.09Q97.79 4 97.18 4L97.18 4Q96.48 4 96.01 4.17Q95.54 4.34 95.25 4.63Q94.96 4.93 94.83 5.34Q94.70 5.76 94.70 6.24L94.70 6.24Q94.70 7.28 95.29 7.87Q95.87 8.46 97.28 8.46L97.28 8.46Q97.74 8.46 98.25 8.40Q98.75 8.34 99.17 8.19L99.17 8.19L99.46 9.81Q99.04 9.97 98.45 10.07Q97.86 10.18 97.06 10.18L97.06 10.18Q95.90 10.18 95.08 9.87Q94.26 9.57 93.73 9.04Q93.20 8.51 92.95 7.79Q92.70 7.07 92.70 6.24Z"/>
    </g>
</svg>