<?xml version="1.0" encoding="UTF-8"?>
<svg height="26" width="50.1" version="1.1" xmlns="http://www.w3.org/2000/svg"><!--Created by Josélio de S. C. Júnior - 2021 - https://github.com/joseliojunior -->
    <rect
        height="24"
        width="48.1"
        rx="1"
        ry="1"
        x="1" y="1"
        fill="#0040cd"
        stroke="#001033"
        stroke-width="1" />
    <g transform="translate(0, 8)">
        <path fill="#001033" d="M22.50 6.30L22.50 6.30Q22.50 7.34 22.84 7.91Q23.18 8.48 23.89 8.48L23.89 8.48Q24.22 8.48 24.52 8.40Q24.82 8.32 25.04 8.19L25.04 8.19L25.04 4.06Q24.90 4.05 24.65 4.02Q24.40 4 24.13 4L24.13 4Q23.31 4 22.90 4.65Q22.50 5.30 22.50 6.30ZM20.50 6.24L20.50 6.24Q20.50 5.38 20.74 4.65Q20.98 3.92 21.43 3.41Q21.89 2.90 22.57 2.61Q23.25 2.32 24.11 2.32L24.11 2.32Q24.48 2.32 24.89 2.35Q25.30 2.38 25.68 2.44Q26.06 2.50 26.41 2.57Q26.75 2.64 27.01 2.72L27.01 2.72L27.01 12.64L25.04 12.64L25.04 9.79Q24.67 9.97 24.26 10.07Q23.86 10.18 23.49 10.18L23.49 10.18Q22.75 10.18 22.19 9.90Q21.63 9.62 21.26 9.10Q20.88 8.59 20.69 7.86Q20.50 7.14 20.50 6.24Z"/>
    </g>
</svg>