<?xml version="1.0" encoding="UTF-8"?>
<svg height="322" width="54.1" version="1.1" xmlns="http://www.w3.org/2000/svg"><!--Created by Josélio de S. C. Júnior - 2021 - https://github.com/joseliojunior -->
    <rect
        height="32"
        width="52.1"
        rx="1"
        ry="1"
        x="1" y="1"
        fill="#0040cd"
        stroke="#001033"
        stroke-width="1" />
    <g transform="translate(0, 12)">
        <path fill="#001033" stroke="none" d="M23.74 6.46L23.74 6.46Q23.74 8.02 24.26 8.87Q24.78 9.72 25.83 9.72L25.83 9.72Q26.34 9.72 26.78 9.60Q27.22 9.48 27.56 9.29L27.56 9.29L27.56 3.10Q27.34 3.07 26.97 3.04Q26.60 3 26.19 3L26.19 3Q24.97 3 24.36 3.97Q23.74 4.94 23.74 6.46ZM20.74 6.36L20.74 6.36Q20.74 5.06 21.10 3.97Q21.46 2.88 22.15 2.11Q22.83 1.34 23.85 0.91Q24.87 0.48 26.17 0.48L26.17 0.48Q26.72 0.48 27.33 0.53Q27.94 0.58 28.52 0.66Q29.10 0.74 29.61 0.85Q30.13 0.96 30.51 1.08L30.51 1.08L30.51 15.96L27.56 15.96L27.56 11.69Q27.01 11.95 26.40 12.11Q25.78 12.26 25.23 12.26L25.23 12.26Q24.13 12.26 23.29 11.84Q22.45 11.42 21.88 10.66Q21.32 9.89 21.03 8.80Q20.74 7.70 20.74 6.36Z"/>
    </g>
</svg>