<?xml version="1.0" encoding="UTF-8"?><svg height="26" width="90.6" version="1.1" xmlns="http://www.w3.org/2000/svg"><!--Created by Josélio de S. C. Júnior - 2021 - https://github.com/joseliojunior --><rect height="24" width="88.6" rx="12" ry="12" x="1" y="1" fill="#665a4e" stroke="#0e0d0b" stroke-width="1" /><g transform="translate(0, 8)"><path fill="#0e0d0b" d="M23.42-0.02L23.42-0.02Q24.27-0.02 24.96 0.18Q25.65 0.37 26.14 0.77Q26.64 1.17 26.90 1.78Q27.17 2.40 27.17 3.23L27.17 3.23Q27.17 4.10 26.82 4.80Q26.46 5.50 25.65 5.87L25.65 5.87Q25.92 6.29 26.22 6.79Q26.53 7.30 26.82 7.85Q27.10 8.40 27.37 8.95Q27.63 9.50 27.82 10L27.82 10L25.76 10Q25.39 9.04 24.90 8.15Q24.42 7.26 23.86 6.35L23.86 6.35L22.83 6.35L22.83 10L20.86 10L20.86 0.24Q21.15 0.18 21.50 0.12Q21.84 0.06 22.19 0.04Q22.54 0.02 22.86 0Q23.18-0.02 23.42-0.02ZM25.17 3.22L25.17 3.22Q25.17 2.43 24.69 2.06Q24.21 1.70 23.42 1.70L23.42 1.70Q23.31 1.70 23.15 1.70Q22.99 1.71 22.83 1.74L22.83 1.74L22.83 4.72L23.26 4.72Q24.27 4.72 24.72 4.33Q25.17 3.94 25.17 3.22ZM31.97 10.21L31.97 10.21Q31.01 10.21 30.36 9.94Q29.71 9.68 29.33 9.18Q28.94 8.69 28.78 7.98Q28.62 7.28 28.62 6.42L28.62 6.42L28.62 0.10L30.61 0.10L30.61 6.29Q30.61 6.91 30.67 7.34Q30.74 7.76 30.89 8.02Q31.04 8.27 31.31 8.38Q31.58 8.50 32 8.50L32 8.50Q32.42 8.50 32.69 8.38Q32.96 8.27 33.12 8.01Q33.28 7.74 33.34 7.32Q33.41 6.90 33.41 6.27L33.41 6.27L33.41 0.10L35.38 0.10L35.38 6.42Q35.38 7.28 35.22 7.98Q35.06 8.69 34.66 9.18Q34.26 9.68 33.60 9.94Q32.94 10.21 31.97 10.21ZM43.26 10L41.68 10Q41.01 8.35 40.22 6.71Q39.42 5.07 38.51 3.42L38.51 3.42L38.51 10L36.74 10L36.74 0.10L38.32 0.10Q38.77 0.80 39.22 1.62Q39.66 2.45 40.09 3.26Q40.51 4.08 40.87 4.85Q41.23 5.62 41.49 6.19L41.49 6.19L41.49 0.10L43.26 0.10L43.26 10ZM46.43 5.04L46.43 5.04Q46.43 5.76 46.49 6.39Q46.54 7.02 46.71 7.49Q46.88 7.95 47.18 8.22Q47.49 8.50 48 8.50L48 8.50Q48.50 8.50 48.81 8.22Q49.12 7.95 49.29 7.48Q49.46 7.01 49.51 6.38Q49.57 5.76 49.57 5.04L49.57 5.04Q49.57 4.32 49.51 3.69Q49.46 3.06 49.29 2.59Q49.12 2.13 48.82 1.86Q48.51 1.58 48 1.58L48 1.58Q47.49 1.58 47.18 1.86Q46.88 2.13 46.71 2.60Q46.54 3.07 46.49 3.70Q46.43 4.32 46.43 5.04ZM44.43 5.04L44.43 5.04Q44.43 2.48 45.38 1.18Q46.32-0.13 48-0.13L48-0.13Q49.74-0.13 50.66 1.18Q51.57 2.48 51.57 5.04L51.57 5.04Q51.57 7.60 50.64 8.90Q49.71 10.21 48.02 10.21L48.02 10.21Q46.27 10.21 45.35 8.90Q44.43 7.60 44.43 5.04ZM54.98 10L53.01 10L53.01 0.10L59.07 0.10L59.07 1.73L54.98 1.73L54.98 4.13L58.56 4.13L58.56 5.76L54.98 5.76L54.98 10ZM62.98 10L61.01 10L61.01 0.10L67.07 0.10L67.07 1.73L62.98 1.73L62.98 4.13L66.56 4.13L66.56 5.76L62.98 5.76L62.98 10Z"/></g></svg>