<?xml version="1.0" encoding="UTF-8"?><svg height="34" width="114.6" version="1.1" xmlns="http://www.w3.org/2000/svg"><!--Created by Josélio de S. C. Júnior - 2021 - https://github.com/joseliojunior --><rect height="32" width="112.6" rx="1" ry="1" x="1" y="1" fill="#665a4e" stroke="#0e0d0b" stroke-width="1" /><g transform="translate(0, 12)"><path fill="#0e0d0b" d="M25.14-3.02L25.14-3.02Q26.41-3.02 27.44-2.74Q28.47-2.45 29.22-1.85Q29.96-1.25 30.36-0.32Q30.75 0.60 30.75 1.85L30.75 1.85Q30.75 3.14 30.22 4.20Q29.70 5.26 28.47 5.81L28.47 5.81Q28.88 6.43 29.34 7.19Q29.79 7.94 30.22 8.77Q30.66 9.60 31.05 10.43Q31.45 11.26 31.74 12L31.74 12L28.64 12Q28.09 10.56 27.36 9.23Q26.62 7.90 25.78 6.53L25.78 6.53L24.25 6.53L24.25 12L21.30 12L21.30-2.64Q21.73-2.74 22.24-2.82Q22.76-2.90 23.29-2.94Q23.82-2.98 24.30-3Q24.78-3.02 25.14-3.02ZM27.75 1.82L27.75 1.82Q27.75 0.65 27.03 0.10Q26.31-0.46 25.14-0.46L25.14-0.46Q24.97-0.46 24.73-0.44Q24.49-0.43 24.25-0.38L24.25-0.38L24.25 4.08L24.90 4.08Q26.41 4.08 27.08 3.49Q27.75 2.90 27.75 1.82ZM37.95 12.31L37.95 12.31Q36.51 12.31 35.54 11.92Q34.57 11.52 33.99 10.78Q33.42 10.03 33.18 8.98Q32.94 7.92 32.94 6.62L32.94 6.62L32.94-2.86L35.91-2.86L35.91 6.43Q35.91 7.37 36.01 8.00Q36.10 8.64 36.33 9.02Q36.56 9.41 36.97 9.58Q37.38 9.74 38 9.74L38 9.74Q38.62 9.74 39.03 9.58Q39.44 9.41 39.68 9.01Q39.92 8.62 40.02 7.98Q40.11 7.34 40.11 6.41L40.11 6.41L40.11-2.86L43.06-2.86L43.06 6.62Q43.06 7.92 42.82 8.98Q42.58 10.03 41.98 10.78Q41.38 11.52 40.40 11.92Q39.42 12.31 37.95 12.31ZM54.90 12L52.52 12Q51.51 9.53 50.32 7.07Q49.14 4.61 47.77 2.14L47.77 2.14L47.77 12L45.10 12L45.10-2.86L47.48-2.86Q48.15-1.80 48.82-0.56Q49.50 0.67 50.13 1.90Q50.77 3.12 51.31 4.27Q51.85 5.42 52.23 6.29L52.23 6.29L52.23-2.86L54.90-2.86L54.90 12ZM59.65 4.56L59.65 4.56Q59.65 5.64 59.73 6.59Q59.82 7.54 60.07 8.23Q60.32 8.93 60.78 9.34Q61.23 9.74 62 9.74L62 9.74Q62.74 9.74 63.21 9.34Q63.68 8.93 63.93 8.22Q64.18 7.51 64.27 6.58Q64.35 5.64 64.35 4.56L64.35 4.56Q64.35 3.48 64.27 2.53Q64.18 1.58 63.93 0.89Q63.68 0.19 63.22-0.22Q62.77-0.62 62-0.62L62-0.62Q61.23-0.62 60.78-0.22Q60.32 0.19 60.07 0.90Q59.82 1.61 59.73 2.54Q59.65 3.48 59.65 4.56ZM56.65 4.56L56.65 4.56Q56.65 0.72 58.06-1.24Q59.48-3.19 62-3.19L62-3.19Q64.62-3.19 65.98-1.24Q67.35 0.72 67.35 4.56L67.35 4.56Q67.35 8.40 65.96 10.36Q64.57 12.31 62.02 12.31L62.02 12.31Q59.41 12.31 58.03 10.36Q56.65 8.40 56.65 4.56ZM72.46 12L69.51 12L69.51-2.86L78.61-2.86L78.61-0.41L72.46-0.41L72.46 3.19L77.84 3.19L77.84 5.64L72.46 5.64L72.46 12ZM84.46 12L81.51 12L81.51-2.86L90.61-2.86L90.61-0.41L84.46-0.41L84.46 3.19L89.84 3.19L89.84 5.64L84.46 5.64L84.46 12Z"/></g></svg>