<?xml version="1.0" encoding="UTF-8"?>
<svg height="34" width="50.2" version="1.1" xmlns="http://www.w3.org/2000/svg">
    <rect
        height="32"
        width="48.2"
        rx="1"
        ry="1"
        x="1"
        y="1"
        fill="#7790B2"
        stroke="#33445b"
        stroke-width="1"
         />
    <g transform="translate(0, 14)">
        <path fill="#33445b" d="M19.30-6.33L22.74-6.33L22.74 11L19.30 11L19.30 3.36L14.70 3.36L14.70 11L11.26 11L11.26-6.33L14.70-6.33L14.70 0.50L19.30 0.50L19.30-6.33ZM33.69-2.16L37.22-2.16Q36.68-0.31 36.19 1.47Q35.70 3.24 35.17 4.94Q34.64 6.63 34.04 8.26Q33.44 9.88 32.74 11.42L32.74 11.42Q32.20 12.54 31.69 13.35Q31.17 14.16 30.54 14.68Q29.91 15.20 29.14 15.45Q28.37 15.70 27.33 15.70L27.33 15.70Q26.46 15.70 25.75 15.56Q25.04 15.42 24.56 15.20L24.56 15.20L25.20 12.32Q25.76 12.57 26.20 12.67Q26.63 12.76 27.14 12.76L27.14 12.76Q28.14 12.76 28.76 12.09Q29.38 11.42 29.74 10.50L29.74 10.50Q28.51 8.03 27.28 4.85Q26.04 1.68 25.04-2.16L25.04-2.16L28.62-2.16Q28.87-1.12 29.19 0.05Q29.52 1.23 29.88 2.40Q30.24 3.58 30.65 4.71Q31.06 5.85 31.48 6.83L31.48 6.83Q31.76 5.85 32.06 4.71Q32.37 3.58 32.65 2.42Q32.93 1.26 33.20 0.08Q33.46-1.10 33.69-2.16L33.69-2.16Z"/>
    </g>
</svg>