<?xml version="1.0" encoding="UTF-8"?>
<svg height="34" width="148.89999999999998" version="1.1" xmlns="http://www.w3.org/2000/svg">
    <rect
        height="32"
        width="146.89999999999998"
        rx="1"
        ry="1"
        x="1"
        y="1"
        fill="#C1F12E"
        stroke="#5f7c09"
        stroke-width="1"
         />
    <g transform="translate(0, 14)">
        <path fill="#5f7c09" d="M23.13 5.76L23.13 5.76Q23.13 7.33 22.60 8.38Q22.07 9.43 21.16 10.06Q20.25 10.69 19.00 10.96Q17.76 11.22 16.33 11.22L16.33 11.22Q15.18 11.22 13.95 11.10Q12.72 10.97 11.51 10.72L11.51 10.72L11.51-6.11Q12.49-6.28 13.67-6.40Q14.84-6.53 15.99-6.53L15.99-6.53Q17.95-6.53 19.18-6.12Q20.42-5.72 21.12-5.06Q21.82-4.40 22.07-3.59Q22.32-2.78 22.32-1.96L22.32-1.96Q22.32-0.73 21.72 0.22Q21.12 1.17 20.11 1.73L20.11 1.73Q21.87 2.38 22.50 3.47Q23.13 4.56 23.13 5.76ZM16.80 3.41L14.96 3.41L14.96 8.12Q15.32 8.17 15.75 8.20Q16.19 8.23 16.61 8.23L16.61 8.23Q17.20 8.23 17.76 8.13Q18.32 8.03 18.75 7.77Q19.18 7.50 19.46 7.01Q19.74 6.52 19.74 5.76L19.74 5.76Q19.74 4.50 18.95 3.96Q18.15 3.41 16.80 3.41L16.80 3.41ZM14.96 0.56L16.30 0.56Q17.62 0.56 18.29-0.02Q18.96-0.59 18.96-1.60L18.96-1.60Q18.96-2.22 18.76-2.59Q18.57-2.97 18.23-3.18Q17.90-3.39 17.45-3.46Q17-3.53 16.52-3.53L16.52-3.53Q16.13-3.53 15.71-3.50Q15.29-3.48 14.96-3.42L14.96-3.42L14.96 0.56ZM31.03 8.54L31.03 8.54Q31.59 8.54 32.12 8.52Q32.65 8.51 33.04 8.45L33.04 8.45L33.04 5.43Q32.71 5.37 32.23 5.33Q31.76 5.29 31.36 5.29L31.36 5.29Q30.83 5.29 30.33 5.36Q29.82 5.43 29.45 5.60Q29.07 5.76 28.84 6.07Q28.62 6.38 28.62 6.88L28.62 6.88Q28.62 7.78 29.29 8.16Q29.96 8.54 31.03 8.54ZM30.72-2.50L30.72-2.50Q32.34-2.50 33.42-2.12Q34.50-1.74 35.14-1.05Q35.79-0.37 36.07 0.63Q36.35 1.62 36.35 2.85L36.35 2.85L36.35 10.69Q35.59 10.86 34.11 11.08Q32.62 11.31 30.78 11.31L30.78 11.31Q29.52 11.31 28.49 11.08Q27.47 10.86 26.74 10.34Q26.02 9.82 25.62 9.00Q25.23 8.17 25.23 6.97L25.23 6.97Q25.23 5.82 25.68 5.04Q26.13 4.25 26.88 3.78Q27.64 3.30 28.62 3.09Q29.60 2.88 30.66 2.88L30.66 2.88Q32.01 2.88 33.04 3.10L33.04 3.10L33.04 2.68Q33.04 1.70 32.43 1.05Q31.81 0.39 30.30 0.39L30.30 0.39Q29.32 0.39 28.41 0.53Q27.50 0.67 26.94 0.86L26.94 0.86L26.46-1.91Q27.11-2.13 28.28-2.31Q29.46-2.50 30.72-2.50ZM42.00 6.10L42.00 0.70L39.01 0.70L39.01-2.16L42.00-2.16L42.00-5.46L45.45-6.02L45.45-2.16L50.96-2.16L50.96 0.70L45.45 0.70L45.45 6.02Q45.45 6.74 45.59 7.19Q45.73 7.64 45.98 7.89Q46.23 8.14 46.60 8.23Q46.96 8.31 47.41 8.31L47.41 8.31Q47.88 8.31 48.29 8.28Q48.70 8.26 49.07 8.19Q49.45 8.12 49.86 7.98Q50.26 7.84 50.74 7.61L50.74 7.61L51.22 10.58Q50.26 10.97 49.16 11.14Q48.05 11.31 47.02 11.31L47.02 11.31Q45.81 11.31 44.89 11.11Q43.96 10.92 43.32 10.36Q42.68 9.80 42.34 8.77Q42.00 7.75 42.00 6.10L42.00 6.10ZM53.23 4.42L53.23 4.42Q53.23 2.99 53.68 1.73Q54.13 0.47 55.05-0.47Q55.98-1.40 57.39-1.95Q58.80-2.50 60.76-2.50L60.76-2.50Q61.94-2.50 62.89-2.33Q63.84-2.16 64.82-1.77L64.82-1.77L64.07 1.00Q63.51 0.81 62.82 0.65Q62.14 0.50 61.07 0.50L61.07 0.50Q59.84 0.50 59.01 0.79Q58.19 1.09 57.68 1.61Q57.18 2.12 56.96 2.85Q56.73 3.58 56.73 4.42L56.73 4.42Q56.73 6.24 57.75 7.28Q58.78 8.31 61.24 8.31L61.24 8.31Q62.05 8.31 62.93 8.20Q63.82 8.09 64.54 7.84L64.54 7.84L65.05 10.66Q64.32 10.94 63.28 11.13Q62.25 11.31 60.85 11.31L60.85 11.31Q58.83 11.31 57.39 10.78Q55.95 10.24 55.02 9.32Q54.10 8.40 53.67 7.14Q53.23 5.88 53.23 4.42ZM71.21 11L67.76 11L67.76-7.84L71.21-8.43L71.21-2.05Q71.63-2.19 72.22-2.31Q72.80-2.44 73.25-2.44L73.25-2.44Q74.71-2.44 75.69-2.01Q76.67-1.57 77.26-0.77Q77.84 0.02 78.10 1.13Q78.35 2.24 78.35 3.58L78.35 3.58L78.35 11L74.90 11L74.90 4.03Q74.90 2.18 74.48 1.37Q74.06 0.56 72.89 0.56L72.89 0.56Q72.41 0.56 71.95 0.67Q71.49 0.78 71.21 0.86L71.21 0.86L71.21 11ZM87.36 11L83.89 11L83.89 0.70L81.01 0.70L81.01-2.16L83.89-2.16L83.89-2.92Q83.89-4.51 84.35-5.56Q84.82-6.61 85.60-7.24Q86.38-7.87 87.39-8.14Q88.40-8.40 89.46-8.40L89.46-8.40Q90.56-8.40 91.70-8.21Q92.85-8.01 93.78-7.56L93.78-7.56L93.19-4.76Q92.54-4.99 91.58-5.23Q90.61-5.46 89.74-5.46L89.74-5.46Q89.27-5.46 88.83-5.38Q88.40-5.30 88.08-5.02Q87.76-4.74 87.56-4.22Q87.36-3.70 87.36-2.86L87.36-2.86L87.36-2.16L92.77-2.16L92.77 0.70L87.36 0.70L87.36 11ZM101.95-5.94L101.95-5.94Q101.95-4.93 101.31-4.34Q100.66-3.76 99.77-3.76L99.77-3.76Q98.87-3.76 98.24-4.34Q97.61-4.93 97.61-5.94L97.61-5.94Q97.61-6.98 98.24-7.56Q98.87-8.15 99.77-8.15L99.77-8.15Q100.66-8.15 101.31-7.56Q101.95-6.98 101.95-5.94ZM106.63 7.67L107.08 10.44Q106.01 10.94 105.07 11.13Q104.14 11.31 103.35 11.31L103.35 11.31Q102.01 11.31 101.10 10.92Q100.19 10.52 99.64 9.78Q99.10 9.04 98.87 7.98Q98.65 6.91 98.65 5.54L98.65 5.54L98.65 0.70L95.01 0.70L95.01-2.16L102.09-2.16L102.09 5.99Q102.09 7.16 102.53 7.74Q102.96 8.31 103.97 8.31L103.97 8.31Q104.44 8.31 105.12 8.19Q105.79 8.06 106.63 7.67L106.63 7.67ZM120.63 7.67L121.08 10.44Q120.99 10.50 120.70 10.64Q120.40 10.78 119.93 10.93Q119.45 11.08 118.77 11.20Q118.08 11.31 117.21 11.31L117.21 11.31Q114.83 11.31 113.74 9.89Q112.65 8.48 112.65 5.76L112.65 5.76L112.65-5.41L109.01-5.41L109.01-8.26L116.09-8.26L116.09 6.02Q116.09 7.36 116.62 7.84Q117.16 8.31 117.97 8.31L117.97 8.31Q119.00 8.31 119.70 8.03Q120.40 7.75 120.63 7.67L120.63 7.67ZM122.87 4.53L122.87 4.53Q122.87 2.80 123.40 1.48Q123.93 0.16 124.80-0.72Q125.67-1.60 126.79-2.05Q127.91-2.50 129.08-2.50L129.08-2.50Q132.00-2.50 133.51-0.77Q135.02 0.95 135.02 4.25L135.02 4.25Q135.02 4.59 135.01 4.95Q134.99 5.32 134.96 5.54L134.96 5.54L126.42 5.54Q126.42 6.83 127.49 7.57Q128.55 8.31 130.23 8.31L130.23 8.31Q131.27 8.31 132.21 8.09Q133.14 7.86 133.79 7.64L133.79 7.64L134.26 10.58Q133.37 10.89 132.36 11.10Q131.35 11.31 130.09 11.31L130.09 11.31Q128.41 11.31 127.08 10.87Q125.75 10.44 124.81 9.59Q123.88 8.73 123.37 7.47Q122.87 6.21 122.87 4.53ZM126.42 3.16L131.69 3.16Q131.69 2.63 131.55 2.14Q131.41 1.65 131.10 1.26Q130.79 0.86 130.32 0.63Q129.84 0.39 129.14 0.39L129.14 0.39Q128.47 0.39 127.98 0.61Q127.49 0.84 127.17 1.23Q126.84 1.62 126.66 2.12Q126.48 2.63 126.42 3.16L126.42 3.16Z"/>
    </g>
</svg>