<?xml version="1.0" encoding="UTF-8"?>
<svg height="26" width="114.89999999999999" version="1.1" xmlns="http://www.w3.org/2000/svg"><!--Created by Josélio de S. C. Júnior - 2021 - https://github.com/joseliojunior -->
    <rect
        height="24"
        width="112.89999999999999"
        rx="12"
        ry="12"
        x="1" y="1"
        fill="#00BCD1"
        stroke="#003238"
        stroke-width="1" />
    <g transform="translate(0, 8)">
        <path fill="#003238" d="M27.12 0.10L27.12 1.47Q26.43 2.53 25.86 3.46Q25.28 4.38 24.78 5.22Q24.29 6.06 23.85 6.84Q23.41 7.62 23.01 8.37L23.01 8.37L27.26 8.37L27.26 10L20.74 10L20.74 8.86Q21.09 8.18 21.49 7.42Q21.89 6.66 22.38 5.79Q22.88 4.93 23.46 3.92Q24.05 2.91 24.75 1.73L24.75 1.73L20.94 1.73L20.94 0.10L27.12 0.10ZM28.50 6.30L28.50 6.30Q28.50 5.31 28.80 4.56Q29.10 3.81 29.60 3.30Q30.10 2.80 30.74 2.54Q31.38 2.29 32.05 2.29L32.05 2.29Q33.71 2.29 34.58 3.27Q35.44 4.26 35.44 6.14L35.44 6.14Q35.44 6.34 35.43 6.54Q35.42 6.75 35.41 6.88L35.41 6.88L30.53 6.88Q30.53 7.62 31.14 8.04Q31.74 8.46 32.70 8.46L32.70 8.46Q33.30 8.46 33.83 8.34Q34.37 8.21 34.74 8.08L34.74 8.08L35.01 9.76Q34.50 9.94 33.92 10.06Q33.34 10.18 32.62 10.18L32.62 10.18Q31.66 10.18 30.90 9.93Q30.14 9.68 29.61 9.19Q29.07 8.70 28.78 7.98Q28.50 7.26 28.50 6.30ZM30.53 5.52L33.54 5.52Q33.54 5.22 33.46 4.94Q33.38 4.66 33.20 4.43Q33.02 4.21 32.75 4.07Q32.48 3.94 32.08 3.94L32.08 3.94Q31.70 3.94 31.42 4.06Q31.14 4.19 30.95 4.42Q30.77 4.64 30.66 4.93Q30.56 5.22 30.53 5.52L30.53 5.52ZM37.01 10L37.01 2.72Q37.54 2.58 38.31 2.45Q39.09 2.32 40 2.32L40 2.32Q40.90 2.32 41.49 2.57Q42.08 2.82 42.42 3.27Q42.77 3.73 42.91 4.36Q43.06 4.99 43.06 5.76L43.06 5.76L43.06 10L41.09 10L41.09 6.02Q41.09 4.96 40.85 4.50Q40.61 4.03 39.87 4.03L39.87 4.03Q39.65 4.03 39.43 4.05Q39.22 4.06 38.98 4.10L38.98 4.10L38.98 10L37.01 10ZM47.71 8.56L47.71 8.56Q48.21 8.56 48.54 8.46Q48.86 8.35 49.06 8.17Q49.25 7.98 49.32 7.75Q49.39 7.52 49.39 7.28L49.39 7.28Q49.39 6.98 49.22 6.74Q49.04 6.50 48.77 6.31Q48.50 6.13 48.16 5.98Q47.82 5.82 47.49 5.70L47.49 5.70Q47.04 5.54 46.56 5.33Q46.08 5.12 45.69 4.80Q45.30 4.48 45.04 4.01Q44.78 3.54 44.78 2.83L44.78 2.83Q44.78 1.44 45.69 0.66Q46.59-0.13 48.18-0.13L48.18-0.13Q49.09-0.13 49.77 0.08Q50.45 0.29 50.91 0.54L50.91 0.54L50.34 2.06Q49.94 1.84 49.45 1.68Q48.96 1.52 48.32 1.52L48.32 1.52Q46.75 1.52 46.75 2.66L46.75 2.66Q46.75 2.94 46.91 3.16Q47.07 3.38 47.32 3.54Q47.57 3.71 47.88 3.84Q48.19 3.97 48.50 4.08L48.50 4.08Q48.96 4.26 49.46 4.47Q49.97 4.69 50.39 5.05Q50.82 5.41 51.09 5.94Q51.36 6.48 51.36 7.30L51.36 7.30Q51.36 8.69 50.46 9.45Q49.55 10.21 47.71 10.21L47.71 10.21Q46.48 10.21 45.74 9.94Q45.01 9.68 44.64 9.46L44.64 9.46L45.22 7.86Q45.65 8.11 46.25 8.34Q46.85 8.56 47.71 8.56ZM52.70 6.24L52.70 6.24Q52.70 5.42 52.96 4.70Q53.22 3.98 53.74 3.45Q54.27 2.91 55.08 2.60Q55.89 2.29 57.01 2.29L57.01 2.29Q57.68 2.29 58.22 2.38Q58.77 2.48 59.33 2.70L59.33 2.70L58.90 4.29Q58.58 4.18 58.18 4.09Q57.79 4 57.18 4L57.18 4Q56.48 4 56.01 4.17Q55.54 4.34 55.25 4.63Q54.96 4.93 54.83 5.34Q54.70 5.76 54.70 6.24L54.70 6.24Q54.70 7.28 55.29 7.87Q55.87 8.46 57.28 8.46L57.28 8.46Q57.74 8.46 58.25 8.40Q58.75 8.34 59.17 8.19L59.17 8.19L59.46 9.81Q59.04 9.97 58.45 10.07Q57.86 10.18 57.06 10.18L57.06 10.18Q55.90 10.18 55.08 9.87Q54.26 9.57 53.73 9.04Q53.20 8.51 52.95 7.79Q52.70 7.07 52.70 6.24ZM67.34 2.66L66.99 4.48Q66.80 4.43 66.54 4.38Q66.27 4.34 66 4.30Q65.73 4.26 65.47 4.24Q65.22 4.22 65.04 4.22L65.04 4.22Q64.62 4.22 64.22 4.26Q63.82 4.30 63.41 4.42L63.41 4.42L63.41 10L61.42 10L61.42 2.98Q62.21 2.69 63.03 2.51Q63.86 2.34 64.96 2.34L64.96 2.34Q65.12 2.34 65.42 2.35Q65.71 2.37 66.05 2.41Q66.38 2.45 66.73 2.50Q67.07 2.56 67.34 2.66L67.34 2.66ZM72.54 0.32L72.54 0.32Q72.54 0.90 72.18 1.23Q71.81 1.57 71.30 1.57L71.30 1.57Q70.78 1.57 70.42 1.23Q70.06 0.90 70.06 0.32L70.06 0.32Q70.06-0.27 70.42-0.61Q70.78-0.94 71.30-0.94L71.30-0.94Q71.81-0.94 72.18-0.61Q72.54-0.27 72.54 0.32ZM75.22 8.10L75.47 9.68Q74.86 9.97 74.33 10.07Q73.79 10.18 73.34 10.18L73.34 10.18Q72.58 10.18 72.06 9.95Q71.54 9.73 71.22 9.30Q70.91 8.88 70.78 8.27Q70.66 7.66 70.66 6.88L70.66 6.88L70.66 4.11L68.58 4.11L68.58 2.48L72.62 2.48L72.62 7.14Q72.62 7.81 72.87 8.14Q73.12 8.46 73.70 8.46L73.70 8.46Q73.97 8.46 74.35 8.39Q74.74 8.32 75.22 8.10L75.22 8.10ZM81.50 6.30L81.50 6.30Q81.50 5.30 81.10 4.65Q80.70 4 79.89 4L79.89 4Q79.66 4 79.41 4.02Q79.15 4.05 78.98 4.06L78.98 4.06L78.98 8.19Q79.17 8.32 79.49 8.40Q79.81 8.48 80.13 8.48L80.13 8.48Q80.83 8.48 81.17 7.91Q81.50 7.34 81.50 6.30ZM83.50 6.24L83.50 6.24Q83.50 7.10 83.31 7.83Q83.12 8.56 82.75 9.08Q82.38 9.60 81.82 9.89Q81.26 10.18 80.53 10.18L80.53 10.18Q79.78 10.18 78.98 9.81L78.98 9.81L78.98 12.64L77.01 12.64L77.01 2.72Q77.55 2.54 78.34 2.43Q79.14 2.32 79.90 2.32L79.90 2.32Q81.65 2.32 82.58 3.38Q83.50 4.43 83.50 6.24ZM86.29 7.20L86.29 4.11L84.58 4.11L84.58 2.48L86.29 2.48L86.29 0.59L88.26 0.27L88.26 2.48L91.41 2.48L91.41 4.11L88.26 4.11L88.26 7.15Q88.26 7.57 88.34 7.82Q88.42 8.08 88.56 8.22Q88.70 8.37 88.91 8.42Q89.12 8.46 89.38 8.46L89.38 8.46Q89.65 8.46 89.88 8.45Q90.11 8.43 90.33 8.39Q90.54 8.35 90.78 8.27Q91.01 8.19 91.28 8.06L91.28 8.06L91.55 9.76Q91.01 9.98 90.38 10.08Q89.74 10.18 89.15 10.18L89.15 10.18Q88.46 10.18 87.94 10.06Q87.41 9.95 87.04 9.63Q86.67 9.31 86.48 8.73Q86.29 8.14 86.29 7.20L86.29 7.20Z"/>
    </g>
</svg>