<?xml version="1.0" encoding="UTF-8"?>
<svg height="34" width="150.89999999999998" version="1.1" xmlns="http://www.w3.org/2000/svg"><!--Created by Josélio de S. C. Júnior - 2021 - https://github.com/joseliojunior -->
    <rect
        height="32"
        width="148.89999999999998"
        rx="1"
        ry="1"
        x="1" y="1"
        fill="#00BCD1"
        stroke="#003238"
        stroke-width="1" />
    <g transform="translate(0, 12)">
        <path fill="#003238" d="M30.68-2.86L30.68-0.79Q29.65 0.79 28.78 2.18Q27.92 3.58 27.18 4.84Q26.43 6.10 25.77 7.26Q25.11 8.42 24.51 9.55L24.51 9.55L30.90 9.55L30.90 12L21.10 12L21.10 10.30Q21.63 9.26 22.23 8.12Q22.83 6.98 23.58 5.69Q24.32 4.39 25.20 2.88Q26.07 1.37 27.13-0.41L27.13-0.41L21.42-0.41L21.42-2.86L30.68-2.86ZM32.74 6.46L32.74 6.46Q32.74 4.97 33.20 3.84Q33.66 2.71 34.40 1.96Q35.14 1.20 36.10 0.82Q37.06 0.43 38.07 0.43L38.07 0.43Q40.57 0.43 41.86 1.91Q43.16 3.38 43.16 6.22L43.16 6.22Q43.16 6.50 43.15 6.82Q43.14 7.13 43.11 7.32L43.11 7.32L35.79 7.32Q35.79 8.42 36.70 9.06Q37.62 9.70 39.06 9.70L39.06 9.70Q39.94 9.70 40.75 9.50Q41.55 9.31 42.10 9.12L42.10 9.12L42.51 11.64Q41.74 11.90 40.88 12.08Q40.02 12.26 38.94 12.26L38.94 12.26Q37.50 12.26 36.36 11.89Q35.22 11.52 34.41 10.79Q33.61 10.06 33.18 8.98Q32.74 7.90 32.74 6.46ZM35.79 5.28L40.30 5.28Q40.30 4.82 40.18 4.40Q40.06 3.98 39.80 3.65Q39.54 3.31 39.13 3.11Q38.72 2.90 38.12 2.90L38.12 2.90Q37.54 2.90 37.12 3.10Q36.70 3.29 36.43 3.62Q36.15 3.96 36.00 4.39Q35.84 4.82 35.79 5.28L35.79 5.28ZM45.51 12L45.51 1.08Q46.30 0.86 47.47 0.67Q48.63 0.48 50 0.48L50 0.48Q51.34 0.48 52.23 0.85Q53.12 1.22 53.64 1.91Q54.15 2.59 54.37 3.54Q54.58 4.49 54.58 5.64L54.58 5.64L54.58 12L51.63 12L51.63 6.02Q51.63 4.44 51.27 3.74Q50.91 3.05 49.81 3.05L49.81 3.05Q49.47 3.05 49.15 3.07Q48.82 3.10 48.46 3.14L48.46 3.14L48.46 12L45.51 12ZM61.57 9.84L61.57 9.84Q62.31 9.84 62.80 9.68Q63.30 9.53 63.58 9.25Q63.87 8.98 63.98 8.63Q64.09 8.28 64.09 7.92L64.09 7.92Q64.09 7.46 63.82 7.10Q63.56 6.74 63.15 6.47Q62.74 6.19 62.24 5.96Q61.74 5.74 61.23 5.54L61.23 5.54Q60.56 5.30 59.84 4.99Q59.12 4.68 58.53 4.20Q57.94 3.72 57.56 3.01Q57.18 2.30 57.18 1.25L57.18 1.25Q57.18-0.84 58.53-2.02Q59.89-3.19 62.26-3.19L62.26-3.19Q63.63-3.19 64.65-2.88Q65.67-2.57 66.37-2.18L66.37-2.18L65.50 0.10Q64.90-0.24 64.17-0.48Q63.44-0.72 62.48-0.72L62.48-0.72Q60.13-0.72 60.13 0.98L60.13 0.98Q60.13 1.42 60.37 1.74Q60.61 2.06 60.98 2.32Q61.35 2.57 61.82 2.76Q62.29 2.95 62.74 3.12L62.74 3.12Q63.44 3.38 64.20 3.71Q64.95 4.03 65.59 4.57Q66.22 5.11 66.63 5.92Q67.04 6.72 67.04 7.94L67.04 7.94Q67.04 10.03 65.68 11.17Q64.33 12.31 61.57 12.31L61.57 12.31Q59.72 12.31 58.62 11.92Q57.51 11.52 56.96 11.18L56.96 11.18L57.82 8.78Q58.47 9.17 59.37 9.50Q60.27 9.84 61.57 9.84ZM69.06 6.36L69.06 6.36Q69.06 5.14 69.44 4.06Q69.82 2.98 70.62 2.17Q71.41 1.37 72.62 0.90Q73.83 0.43 75.51 0.43L75.51 0.43Q76.52 0.43 77.34 0.58Q78.15 0.72 78.99 1.06L78.99 1.06L78.34 3.43Q77.86 3.26 77.28 3.13Q76.69 3 75.78 3L75.78 3Q74.72 3 74.01 3.25Q73.30 3.50 72.87 3.95Q72.44 4.39 72.25 5.02Q72.06 5.64 72.06 6.36L72.06 6.36Q72.06 7.92 72.93 8.81Q73.81 9.70 75.92 9.70L75.92 9.70Q76.62 9.70 77.37 9.60Q78.13 9.50 78.75 9.29L78.75 9.29L79.18 11.71Q78.56 11.95 77.67 12.11Q76.78 12.26 75.58 12.26L75.58 12.26Q73.86 12.26 72.62 11.81Q71.38 11.35 70.59 10.56Q69.80 9.77 69.43 8.69Q69.06 7.61 69.06 6.36ZM91.02 0.98L90.49 3.72Q90.20 3.65 89.80 3.58Q89.41 3.50 89 3.44Q88.59 3.38 88.21 3.36Q87.82 3.34 87.56 3.34L87.56 3.34Q86.94 3.34 86.34 3.40Q85.74 3.46 85.11 3.62L85.11 3.62L85.11 12L82.14 12L82.14 1.46Q83.31 1.03 84.55 0.77Q85.78 0.50 87.44 0.50L87.44 0.50Q87.68 0.50 88.12 0.53Q88.57 0.55 89.07 0.61Q89.58 0.67 90.09 0.76Q90.61 0.84 91.02 0.98L91.02 0.98ZM98.82-2.52L98.82-2.52Q98.82-1.66 98.26-1.15Q97.71-0.65 96.94-0.65L96.94-0.65Q96.18-0.65 95.64-1.15Q95.10-1.66 95.10-2.52L95.10-2.52Q95.10-3.41 95.64-3.91Q96.18-4.42 96.94-4.42L96.94-4.42Q97.71-4.42 98.26-3.91Q98.82-3.41 98.82-2.52ZM102.82 9.14L103.21 11.52Q102.30 11.95 101.49 12.11Q100.69 12.26 100.02 12.26L100.02 12.26Q98.86 12.26 98.08 11.93Q97.30 11.59 96.84 10.96Q96.37 10.32 96.18 9.41Q95.98 8.50 95.98 7.32L95.98 7.32L95.98 3.17L92.86 3.17L92.86 0.72L98.94 0.72L98.94 7.70Q98.94 8.71 99.31 9.20Q99.68 9.70 100.54 9.70L100.54 9.70Q100.95 9.70 101.53 9.59Q102.10 9.48 102.82 9.14L102.82 9.14ZM112.26 6.46L112.26 6.46Q112.26 4.94 111.66 3.97Q111.06 3 109.83 3L109.83 3Q109.50 3 109.11 3.04Q108.73 3.07 108.46 3.10L108.46 3.10L108.46 9.29Q108.75 9.48 109.23 9.60Q109.71 9.72 110.19 9.72L110.19 9.72Q111.25 9.72 111.75 8.87Q112.26 8.02 112.26 6.46ZM115.26 6.36L115.26 6.36Q115.26 7.66 114.97 8.75Q114.68 9.84 114.13 10.62Q113.58 11.40 112.74 11.83Q111.90 12.26 110.79 12.26L110.79 12.26Q109.66 12.26 108.46 11.71L108.46 11.71L108.46 15.96L105.51 15.96L105.51 1.08Q106.33 0.82 107.52 0.65Q108.70 0.48 109.86 0.48L109.86 0.48Q112.47 0.48 113.86 2.06Q115.26 3.65 115.26 6.36ZM119.43 7.80L119.43 3.17L116.86 3.17L116.86 0.72L119.43 0.72L119.43-2.11L122.38-2.59L122.38 0.72L127.11 0.72L127.11 3.17L122.38 3.17L122.38 7.73Q122.38 8.35 122.50 8.74Q122.62 9.12 122.84 9.34Q123.06 9.55 123.37 9.62Q123.68 9.70 124.06 9.70L124.06 9.70Q124.47 9.70 124.82 9.67Q125.17 9.65 125.49 9.59Q125.82 9.53 126.16 9.41Q126.51 9.29 126.92 9.10L126.92 9.10L127.33 11.64Q126.51 11.98 125.56 12.12Q124.62 12.26 123.73 12.26L123.73 12.26Q122.70 12.26 121.90 12.10Q121.11 11.93 120.56 11.45Q120.01 10.97 119.72 10.09Q119.43 9.22 119.43 7.80L119.43 7.80Z"/>
    </g>
</svg>