<?xml version="1.0" encoding="UTF-8"?>
<svg height="26" width="90.6" version="1.1" xmlns="http://www.w3.org/2000/svg"><!--Created by Josélio de S. C. Júnior - 2021 - https://github.com/joseliojunior -->
    <rect
        height="24"
        width="88.6"
        rx="1"
        ry="1"
        x="1" y="1"
        fill="#140f46"
        stroke="#372ac6"
        stroke-width="1" />
    <g transform="translate(0, 8)">
        <path fill="#372ac6" stroke="none" d="M24.74 10.21L24.74 10.21Q22.64 10.21 21.54 8.86Q20.43 7.52 20.43 5.04L20.43 5.04Q20.43 3.81 20.77 2.85Q21.10 1.89 21.70 1.22Q22.30 0.56 23.13 0.22Q23.95-0.13 24.93-0.13L24.93-0.13Q25.46-0.13 25.88-0.04Q26.30 0.05 26.62 0.16Q26.94 0.27 27.16 0.40Q27.38 0.53 27.49 0.59L27.49 0.59L26.98 2.16Q26.61 1.92 26.09 1.75Q25.57 1.58 24.90 1.58L24.90 1.58Q24.43 1.58 23.99 1.75Q23.55 1.92 23.21 2.31Q22.86 2.70 22.65 3.36Q22.43 4.02 22.43 4.99L22.43 4.99Q22.43 6.69 23.02 7.59Q23.60 8.50 24.93 8.50L24.93 8.50Q25.70 8.50 26.20 8.32Q26.70 8.14 27.01 7.97L27.01 7.97L27.50 9.52Q27.09 9.78 26.38 9.99Q25.66 10.21 24.74 10.21ZM35.55 6.22L35.55 6.22Q35.55 7.12 35.30 7.85Q35.04 8.58 34.58 9.10Q34.11 9.63 33.46 9.92Q32.82 10.21 32.02 10.21L32.02 10.21Q31.22 10.21 30.57 9.92Q29.92 9.63 29.45 9.10Q28.98 8.58 28.72 7.85Q28.46 7.12 28.46 6.22L28.46 6.22Q28.46 5.34 28.73 4.62Q28.99 3.89 29.46 3.37Q29.94 2.85 30.59 2.57Q31.25 2.29 32.02 2.29L32.02 2.29Q32.80 2.29 33.45 2.57Q34.10 2.85 34.57 3.37Q35.04 3.89 35.30 4.62Q35.55 5.34 35.55 6.22ZM30.46 6.24L30.46 6.24Q30.46 7.25 30.82 7.87Q31.18 8.50 31.98 8.50L31.98 8.50Q32.75 8.50 33.14 7.87Q33.54 7.25 33.54 6.24L33.54 6.24Q33.54 5.23 33.18 4.62Q32.82 4 32.02 4L32.02 4Q31.25 4 30.86 4.62Q30.46 5.23 30.46 6.24ZM38.45 6.19L38.45 6.19Q38.45 7.20 38.82 7.84Q39.20 8.48 40.03 8.48L40.03 8.48Q40.27 8.48 40.48 8.46Q40.69 8.45 40.91 8.42L40.91 8.42L40.91 4.32Q40.69 4.19 40.40 4.10Q40.11 4.02 39.79 4.02L39.79 4.02Q39.09 4.02 38.77 4.58Q38.45 5.14 38.45 6.19ZM42.88-1.10L42.88 9.78Q42.34 9.95 41.55 10.06Q40.77 10.18 40.02 10.18L40.02 10.18Q38.26 10.18 37.35 9.14Q36.45 8.10 36.45 6.29L36.45 6.29Q36.45 4.45 37.21 3.38Q37.97 2.32 39.46 2.32L39.46 2.32Q39.86 2.32 40.24 2.41Q40.62 2.50 40.91 2.66L40.91 2.66L40.91-0.77L42.88-1.10ZM44.50 6.30L44.50 6.30Q44.50 5.31 44.80 4.56Q45.10 3.81 45.60 3.30Q46.10 2.80 46.74 2.54Q47.38 2.29 48.05 2.29L48.05 2.29Q49.71 2.29 50.58 3.27Q51.44 4.26 51.44 6.14L51.44 6.14Q51.44 6.34 51.43 6.54Q51.42 6.75 51.41 6.88L51.41 6.88L46.53 6.88Q46.53 7.62 47.14 8.04Q47.74 8.46 48.70 8.46L48.70 8.46Q49.30 8.46 49.83 8.34Q50.37 8.21 50.74 8.08L50.74 8.08L51.01 9.76Q50.50 9.94 49.92 10.06Q49.34 10.18 48.62 10.18L48.62 10.18Q47.66 10.18 46.90 9.93Q46.14 9.68 45.61 9.19Q45.07 8.70 44.78 7.98Q44.50 7.26 44.50 6.30ZM46.53 5.52L49.54 5.52Q49.54 5.22 49.46 4.94Q49.38 4.66 49.20 4.43Q49.02 4.21 48.75 4.07Q48.48 3.94 48.08 3.94L48.08 3.94Q47.70 3.94 47.42 4.06Q47.14 4.19 46.95 4.42Q46.77 4.64 46.66 4.93Q46.56 5.22 46.53 5.52L46.53 5.52ZM52.43 5.09L52.43 5.09Q52.43 2.53 53.38 1.22Q54.32-0.08 56-0.08L56-0.08Q57.74-0.08 58.66 1.22Q59.57 2.53 59.57 5.09L59.57 5.09Q59.57 7.33 58.85 8.62Q58.13 9.90 56.77 10.18L56.77 10.18Q56.94 10.58 57.62 10.84Q58.30 11.10 59.49 11.31L59.49 11.31L59.07 12.72Q57.20 12.46 56.25 11.86Q55.30 11.26 55.12 10.14L55.12 10.14Q53.82 9.82 53.13 8.55Q52.43 7.28 52.43 5.09ZM54.43 5.09L54.43 5.09Q54.43 5.81 54.49 6.43Q54.54 7.06 54.71 7.53Q54.88 8 55.18 8.27Q55.49 8.54 56 8.54L56 8.54Q56.50 8.54 56.81 8.27Q57.12 8 57.29 7.53Q57.46 7.06 57.51 6.43Q57.57 5.81 57.57 5.09L57.57 5.09Q57.57 4.37 57.51 3.74Q57.46 3.10 57.29 2.64Q57.12 2.18 56.82 1.90Q56.51 1.63 56 1.63L56 1.63Q55.49 1.63 55.18 1.90Q54.88 2.18 54.71 2.65Q54.54 3.12 54.49 3.74Q54.43 4.37 54.43 5.09ZM67.36 8.37L67.36 10L61.14 10L61.14 0.10L63.12 0.10L63.12 8.37L67.36 8.37Z"/>
    </g>
</svg>