<?xml version="1.0" encoding="UTF-8"?>
<svg height="34" width="191.2" version="1.1" xmlns="http://www.w3.org/2000/svg">
    <rect
        height="32"
        width="189.2"
        rx="1"
        ry="1"
        x="1"
        y="1"
        fill="#99AAFF"
        stroke="#0022cc"
        stroke-width="1"
         />
    <g transform="translate(0, 14)">
        <path fill="#0022cc" d="M22.52 11L11.51 11L11.51 8.14L15.29 8.14L15.29-3.48L11.51-3.48L11.51-6.33L22.52-6.33L22.52-3.48L18.76-3.48L18.76 8.14L22.52 8.14L22.52 11ZM33.60-2.30L33.60-2.30Q34.70-2.30 35.40-1.96Q36.10-1.63 36.50-0.96Q36.91-0.28 37.05 0.74Q37.19 1.76 37.19 3.13L37.19 3.13L37.19 11L34.39 11L34.39 2.96Q34.39 2.18 34.29 1.70Q34.19 1.23 34.04 0.98Q33.88 0.72 33.67 0.64Q33.46 0.56 33.24 0.56L33.24 0.56Q32.99 0.56 32.71 0.60Q32.43 0.64 32.20 0.75L32.20 0.75Q32.29 1.28 32.34 1.93Q32.40 2.57 32.40 3.36L32.40 3.36L32.40 5.99L29.60 5.99L29.60 2.96Q29.60 1.62 29.33 1.09Q29.07 0.56 28.48 0.56L28.48 0.56Q28.31 0.56 28.07 0.58Q27.84 0.61 27.61 0.67L27.61 0.67L27.61 11L24.81 11L24.81-1.66Q25.90-1.96 26.97-2.13Q28.03-2.30 28.84-2.30L28.84-2.30Q29.57-2.30 30.15-2.12Q30.72-1.94 31.14-1.52L31.14-1.52Q31.62-1.82 32.26-2.06Q32.90-2.30 33.60-2.30ZM45.03 8.54L45.03 8.54Q45.59 8.54 46.12 8.52Q46.65 8.51 47.04 8.45L47.04 8.45L47.04 5.43Q46.71 5.37 46.23 5.33Q45.76 5.29 45.36 5.29L45.36 5.29Q44.83 5.29 44.33 5.36Q43.82 5.43 43.45 5.60Q43.07 5.76 42.84 6.07Q42.62 6.38 42.62 6.88L42.62 6.88Q42.62 7.78 43.29 8.16Q43.96 8.54 45.03 8.54ZM44.72-2.50L44.72-2.50Q46.34-2.50 47.42-2.12Q48.50-1.74 49.14-1.05Q49.79-0.37 50.07 0.63Q50.35 1.62 50.35 2.85L50.35 2.85L50.35 10.69Q49.59 10.86 48.11 11.08Q46.62 11.31 44.78 11.31L44.78 11.31Q43.52 11.31 42.49 11.08Q41.47 10.86 40.74 10.34Q40.02 9.82 39.62 9.00Q39.23 8.17 39.23 6.97L39.23 6.97Q39.23 5.82 39.68 5.04Q40.13 4.25 40.88 3.78Q41.64 3.30 42.62 3.09Q43.60 2.88 44.66 2.88L44.66 2.88Q46.01 2.88 47.04 3.10L47.04 3.10L47.04 2.68Q47.04 1.70 46.43 1.05Q45.81 0.39 44.30 0.39L44.30 0.39Q43.32 0.39 42.41 0.53Q41.50 0.67 40.94 0.86L40.94 0.86L40.46-1.91Q41.11-2.13 42.28-2.31Q43.46-2.50 44.72-2.50ZM56.42 4L56.42 4Q56.42 5.62 57.01 6.48Q57.60 7.33 58.86 7.33L58.86 7.33Q59.42 7.33 59.91 7.19Q60.40 7.05 60.79 6.83L60.79 6.83L60.79 0.50Q60.40 0.42 60.09 0.39Q59.78 0.36 59.45 0.36L59.45 0.36Q56.42 0.36 56.42 4ZM64.26-1.74L64.26 9.40Q64.26 12.62 62.71 14.16Q61.16 15.70 57.71 15.70L57.71 15.70Q56.48 15.70 55.35 15.45Q54.21 15.20 53.18 14.86L53.18 14.86L53.82 11.95Q54.63 12.26 55.53 12.53Q56.42 12.79 57.77 12.79L57.77 12.79Q58.66 12.79 59.25 12.58Q59.84 12.37 60.18 12.01Q60.51 11.64 60.65 11.15Q60.79 10.66 60.79 10.10L60.79 10.10L60.79 9.57Q60.06 9.85 59.46 9.99Q58.86 10.13 58.16 10.13L58.16 10.13Q55.58 10.13 54.25 8.51Q52.92 6.88 52.92 4L52.92 4Q52.92 0.75 54.72-0.84Q56.51-2.44 59.59-2.44L59.59-2.44Q61.74-2.44 64.26-1.74L64.26-1.74ZM66.87 4.53L66.87 4.53Q66.87 2.80 67.40 1.48Q67.93 0.16 68.80-0.72Q69.67-1.60 70.79-2.05Q71.91-2.50 73.08-2.50L73.08-2.50Q76.00-2.50 77.51-0.77Q79.02 0.95 79.02 4.25L79.02 4.25Q79.02 4.59 79.01 4.95Q78.99 5.32 78.96 5.54L78.96 5.54L70.42 5.54Q70.42 6.83 71.49 7.57Q72.55 8.31 74.23 8.31L74.23 8.31Q75.27 8.31 76.21 8.09Q77.14 7.86 77.79 7.64L77.79 7.64L78.26 10.58Q77.37 10.89 76.36 11.10Q75.35 11.31 74.09 11.31L74.09 11.31Q72.41 11.31 71.08 10.87Q69.75 10.44 68.81 9.59Q67.88 8.73 67.37 7.47Q66.87 6.21 66.87 4.53ZM70.42 3.16L75.69 3.16Q75.69 2.63 75.55 2.14Q75.41 1.65 75.10 1.26Q74.79 0.86 74.32 0.63Q73.84 0.39 73.14 0.39L73.14 0.39Q72.47 0.39 71.98 0.61Q71.49 0.84 71.17 1.23Q70.84 1.62 70.66 2.12Q70.48 2.63 70.42 3.16L70.42 3.16ZM92.26-6.33L92.26 5.20Q92.26 6.46 91.94 7.58Q91.62 8.70 90.88 9.54Q90.14 10.38 88.96 10.87Q87.78 11.36 86.10 11.36L86.10 11.36Q84.34 11.36 83.16 10.92Q81.99 10.47 81.18 9.82L81.18 9.82L82.49 7.08Q83.19 7.53 84.05 7.95Q84.90 8.37 85.80 8.37L85.80 8.37Q87.14 8.37 87.97 7.65Q88.79 6.94 88.79 5.01L88.79 5.01L88.79-3.48L83.00-3.48L83.00-6.33L92.26-6.33ZM109.65-6.33L112.51-6.33Q112.70-5.74 113.00-4.82Q113.29-3.90 113.63-2.83Q113.96-1.77 114.30-0.68Q114.64 0.42 114.94 1.34L114.94 1.34Q115.28 0.30 115.64-0.80Q116.01-1.91 116.34-2.93Q116.68-3.95 116.96-4.85Q117.24-5.74 117.46-6.33L117.46-6.33L120.32-6.33Q120.52-4.06 120.70-1.91Q120.88 0.25 121.01 2.36Q121.13 4.48 121.22 6.62Q121.30 8.76 121.36 11L121.36 11L118.19 11L118.36-2.47L116.23 4.87L113.71 4.87L111.67-2.47L111.81 11L108.64 11Q108.73 8.87 108.83 6.58Q108.92 4.28 109.04 2.01Q109.15-0.26 109.30-2.38Q109.46-4.51 109.65-6.33L109.65-6.33ZM129.03 8.54L129.03 8.54Q129.59 8.54 130.12 8.52Q130.65 8.51 131.04 8.45L131.04 8.45L131.04 5.43Q130.71 5.37 130.23 5.33Q129.76 5.29 129.36 5.29L129.36 5.29Q128.83 5.29 128.33 5.36Q127.82 5.43 127.45 5.60Q127.07 5.76 126.84 6.07Q126.62 6.38 126.62 6.88L126.62 6.88Q126.62 7.78 127.29 8.16Q127.96 8.54 129.03 8.54ZM128.72-2.50L128.72-2.50Q130.34-2.50 131.42-2.12Q132.50-1.74 133.14-1.05Q133.79-0.37 134.07 0.63Q134.35 1.62 134.35 2.85L134.35 2.85L134.35 10.69Q133.59 10.86 132.11 11.08Q130.62 11.31 128.78 11.31L128.78 11.31Q127.52 11.31 126.49 11.08Q125.47 10.86 124.74 10.34Q124.02 9.82 123.62 9.00Q123.23 8.17 123.23 6.97L123.23 6.97Q123.23 5.82 123.68 5.04Q124.13 4.25 124.88 3.78Q125.64 3.30 126.62 3.09Q127.60 2.88 128.66 2.88L128.66 2.88Q130.01 2.88 131.04 3.10L131.04 3.10L131.04 2.68Q131.04 1.70 130.43 1.05Q129.81 0.39 128.30 0.39L128.30 0.39Q127.32 0.39 126.41 0.53Q125.50 0.67 124.94 0.86L124.94 0.86L124.46-1.91Q125.11-2.13 126.28-2.31Q127.46-2.50 128.72-2.50ZM137.23 4.42L137.23 4.42Q137.23 2.99 137.68 1.73Q138.13 0.47 139.05-0.47Q139.98-1.40 141.39-1.95Q142.80-2.50 144.76-2.50L144.76-2.50Q145.94-2.50 146.89-2.33Q147.84-2.16 148.82-1.77L148.82-1.77L148.07 1.00Q147.51 0.81 146.82 0.65Q146.14 0.50 145.07 0.50L145.07 0.50Q143.84 0.50 143.01 0.79Q142.19 1.09 141.68 1.61Q141.18 2.12 140.96 2.85Q140.73 3.58 140.73 4.42L140.73 4.42Q140.73 6.24 141.75 7.28Q142.78 8.31 145.24 8.31L145.24 8.31Q146.05 8.31 146.93 8.20Q147.82 8.09 148.54 7.84L148.54 7.84L149.05 10.66Q148.32 10.94 147.28 11.13Q146.25 11.31 144.85 11.31L144.85 11.31Q142.83 11.31 141.39 10.78Q139.95 10.24 139.02 9.32Q138.10 8.40 137.67 7.14Q137.23 5.88 137.23 4.42ZM162.85-1.85L162.24 1.34Q161.90 1.26 161.44 1.17Q160.98 1.09 160.50 1.02Q160.02 0.95 159.58 0.92Q159.13 0.89 158.82 0.89L158.82 0.89Q158.09 0.89 157.39 0.96Q156.69 1.03 155.96 1.23L155.96 1.23L155.96 11L152.49 11L152.49-1.29Q153.86-1.80 155.31-2.10Q156.75-2.41 158.68-2.41L158.68-2.41Q158.96-2.41 159.48-2.38Q160.00-2.36 160.58-2.29Q161.17-2.22 161.77-2.12Q162.38-2.02 162.85-1.85L162.85-1.85ZM177.22 4.39L177.22 4.39Q177.22 5.96 176.77 7.23Q176.32 8.51 175.51 9.43Q174.70 10.36 173.56 10.86Q172.43 11.36 171.03 11.36L171.03 11.36Q169.63 11.36 168.49 10.86Q167.36 10.36 166.53 9.43Q165.71 8.51 165.26 7.23Q164.81 5.96 164.81 4.39L164.81 4.39Q164.81 2.85 165.27 1.58Q165.74 0.30 166.56-0.61Q167.39-1.52 168.54-2.01Q169.68-2.50 171.03-2.50L171.03-2.50Q172.40-2.50 173.53-2.01Q174.67-1.52 175.49-0.61Q176.32 0.30 176.77 1.58Q177.22 2.85 177.22 4.39ZM168.31 4.42L168.31 4.42Q168.31 6.18 168.94 7.28Q169.57 8.37 170.97 8.37L170.97 8.37Q172.32 8.37 173.00 7.28Q173.69 6.18 173.69 4.42L173.69 4.42Q173.69 2.66 173.06 1.58Q172.43 0.50 171.03 0.50L171.03 0.50Q169.68 0.50 169.00 1.58Q168.31 2.66 168.31 4.42Z"/>
    </g>
</svg>