<?xml version="1.0" encoding="UTF-8"?><svg height="26" width="74.4" version="1.1" xmlns="http://www.w3.org/2000/svg"><!--Created by Josélio de S. C. Júnior - 2021 - https://github.com/joseliojunior --><rect height="24" width="72.4" rx="1" ry="1" x="1" y="1" fill="#dea584" stroke="#753f1f" stroke-width="1" /><g transform="translate(0, 8)"><path fill="#753f1f" d="M23.42-0.02L23.42-0.02Q24.27-0.02 24.96 0.18Q25.65 0.37 26.14 0.77Q26.64 1.17 26.90 1.78Q27.17 2.40 27.17 3.23L27.17 3.23Q27.17 4.10 26.82 4.80Q26.46 5.50 25.65 5.87L25.65 5.87Q25.92 6.29 26.22 6.79Q26.53 7.30 26.82 7.85Q27.10 8.40 27.37 8.95Q27.63 9.50 27.82 10L27.82 10L25.76 10Q25.39 9.04 24.90 8.15Q24.42 7.26 23.86 6.35L23.86 6.35L22.83 6.35L22.83 10L20.86 10L20.86 0.24Q21.15 0.18 21.50 0.12Q21.84 0.06 22.19 0.04Q22.54 0.02 22.86 0Q23.18-0.02 23.42-0.02ZM25.17 3.22L25.17 3.22Q25.17 2.43 24.69 2.06Q24.21 1.70 23.42 1.70L23.42 1.70Q23.31 1.70 23.15 1.70Q22.99 1.71 22.83 1.74L22.83 1.74L22.83 4.72L23.26 4.72Q24.27 4.72 24.72 4.33Q25.17 3.94 25.17 3.22ZM35.01 2.48L35.01 9.74Q34.46 9.89 33.69 10.03Q32.91 10.18 32 10.18L32 10.18Q31.07 10.18 30.48 9.92Q29.89 9.66 29.54 9.19Q29.20 8.72 29.07 8.08Q28.94 7.44 28.94 6.67L28.94 6.67L28.94 2.48L30.91 2.48L30.91 6.42Q30.91 7.46 31.16 7.96Q31.41 8.46 32.13 8.46L32.13 8.46Q32.58 8.46 33.02 8.38L33.02 8.38L33.02 2.48L35.01 2.48ZM39.65 8.51L39.65 8.51Q40.37 8.51 40.75 8.41Q41.14 8.30 41.14 7.98L41.14 7.98Q41.14 7.78 41.02 7.63Q40.90 7.49 40.68 7.38Q40.46 7.28 40.18 7.18Q39.90 7.09 39.60 6.99L39.60 6.99Q39.17 6.86 38.72 6.70Q38.27 6.53 37.90 6.27Q37.54 6.02 37.30 5.62Q37.06 5.23 37.06 4.64L37.06 4.64Q37.06 4.16 37.24 3.74Q37.42 3.31 37.82 2.98Q38.21 2.66 38.82 2.47Q39.42 2.29 40.27 2.29L40.27 2.29Q41.01 2.29 41.64 2.40Q42.27 2.51 42.74 2.72L42.74 2.72L42.43 4.38Q42.16 4.30 41.58 4.12Q41.01 3.94 40.29 3.94L40.29 3.94Q39.54 3.94 39.27 4.12Q39.01 4.30 39.01 4.51L39.01 4.51Q39.01 4.69 39.13 4.82Q39.25 4.96 39.45 5.07Q39.65 5.18 39.91 5.29Q40.18 5.39 40.48 5.49L40.48 5.49Q40.91 5.63 41.38 5.81Q41.84 5.98 42.22 6.25Q42.59 6.51 42.83 6.92Q43.07 7.33 43.07 7.92L43.07 7.92Q43.07 8.38 42.90 8.80Q42.72 9.22 42.31 9.52Q41.90 9.82 41.25 10Q40.59 10.18 39.63 10.18L39.63 10.18Q38.66 10.18 37.97 9.95Q37.28 9.73 36.86 9.55L36.86 9.55L37.17 7.90Q37.73 8.13 38.36 8.32Q38.99 8.51 39.65 8.51ZM46.29 7.20L46.29 4.11L44.58 4.11L44.58 2.48L46.29 2.48L46.29 0.59L48.26 0.27L48.26 2.48L51.41 2.48L51.41 4.11L48.26 4.11L48.26 7.15Q48.26 7.57 48.34 7.82Q48.42 8.08 48.56 8.22Q48.70 8.37 48.91 8.42Q49.12 8.46 49.38 8.46L49.38 8.46Q49.65 8.46 49.88 8.45Q50.11 8.43 50.33 8.39Q50.54 8.35 50.78 8.27Q51.01 8.19 51.28 8.06L51.28 8.06L51.55 9.76Q51.01 9.98 50.38 10.08Q49.74 10.18 49.15 10.18L49.15 10.18Q48.46 10.18 47.94 10.06Q47.41 9.95 47.04 9.63Q46.67 9.31 46.48 8.73Q46.29 8.14 46.29 7.20L46.29 7.20Z"/></g></svg>