<?xml version="1.0" encoding="UTF-8"?>
<svg height="34" width="106.6" version="1.1" xmlns="http://www.w3.org/2000/svg">
    <rect
        height="32"
        width="104.6"
        rx="1"
        ry="1"
        x="1"
        y="1"
        fill="#f0c040"
        stroke="#8e6b0b"
        stroke-width="1"
         />
    <g transform="translate(0, 14)">
        <path fill="#8e6b0b" d="M16.50 8.48L16.50 8.48Q17.36 8.48 17.94 8.30Q18.51 8.12 18.85 7.79Q19.18 7.47 19.31 7.07Q19.44 6.66 19.44 6.24L19.44 6.24Q19.44 5.71 19.13 5.29Q18.82 4.87 18.34 4.55Q17.87 4.22 17.28 3.96Q16.69 3.69 16.10 3.47L16.10 3.47Q15.32 3.19 14.48 2.82Q13.64 2.46 12.95 1.90Q12.27 1.34 11.82 0.51Q11.37-0.31 11.37-1.54L11.37-1.54Q11.37-3.98 12.95-5.35Q14.54-6.72 17.31-6.72L17.31-6.72Q18.90-6.72 20.09-6.36Q21.28-6.00 22.10-5.55L22.10-5.55L21.09-2.89Q20.39-3.28 19.53-3.56Q18.68-3.84 17.56-3.84L17.56-3.84Q14.82-3.84 14.82-1.85L14.82-1.85Q14.82-1.35 15.10-0.97Q15.38-0.59 15.81-0.30Q16.24-0.00 16.79 0.22Q17.34 0.44 17.87 0.64L17.87 0.64Q18.68 0.95 19.56 1.33Q20.44 1.70 21.19 2.33Q21.93 2.96 22.40 3.90Q22.88 4.84 22.88 6.27L22.88 6.27Q22.88 8.70 21.30 10.03Q19.72 11.36 16.50 11.36L16.50 11.36Q14.34 11.36 13.05 10.90Q11.76 10.44 11.12 10.05L11.12 10.05L12.13 7.25Q12.88 7.70 13.93 8.09Q14.98 8.48 16.50 8.48ZM33.60-2.30L33.60-2.30Q34.70-2.30 35.40-1.96Q36.10-1.63 36.50-0.96Q36.91-0.28 37.05 0.74Q37.19 1.76 37.19 3.13L37.19 3.13L37.19 11L34.39 11L34.39 2.96Q34.39 2.18 34.29 1.70Q34.19 1.23 34.04 0.98Q33.88 0.72 33.67 0.64Q33.46 0.56 33.24 0.56L33.24 0.56Q32.99 0.56 32.71 0.60Q32.43 0.64 32.20 0.75L32.20 0.75Q32.29 1.28 32.34 1.93Q32.40 2.57 32.40 3.36L32.40 3.36L32.40 5.99L29.60 5.99L29.60 2.96Q29.60 1.62 29.33 1.09Q29.07 0.56 28.48 0.56L28.48 0.56Q28.31 0.56 28.07 0.58Q27.84 0.61 27.61 0.67L27.61 0.67L27.61 11L24.81 11L24.81-1.66Q25.90-1.96 26.97-2.13Q28.03-2.30 28.84-2.30L28.84-2.30Q29.57-2.30 30.15-2.12Q30.72-1.94 31.14-1.52L31.14-1.52Q31.62-1.82 32.26-2.06Q32.90-2.30 33.60-2.30ZM45.03 8.54L45.03 8.54Q45.59 8.54 46.12 8.52Q46.65 8.51 47.04 8.45L47.04 8.45L47.04 5.43Q46.71 5.37 46.23 5.33Q45.76 5.29 45.36 5.29L45.36 5.29Q44.83 5.29 44.33 5.36Q43.82 5.43 43.45 5.60Q43.07 5.76 42.84 6.07Q42.62 6.38 42.62 6.88L42.62 6.88Q42.62 7.78 43.29 8.16Q43.96 8.54 45.03 8.54ZM44.72-2.50L44.72-2.50Q46.34-2.50 47.42-2.12Q48.50-1.74 49.14-1.05Q49.79-0.37 50.07 0.63Q50.35 1.62 50.35 2.85L50.35 2.85L50.35 10.69Q49.59 10.86 48.11 11.08Q46.62 11.31 44.78 11.31L44.78 11.31Q43.52 11.31 42.49 11.08Q41.47 10.86 40.74 10.34Q40.02 9.82 39.62 9.00Q39.23 8.17 39.23 6.97L39.23 6.97Q39.23 5.82 39.68 5.04Q40.13 4.25 40.88 3.78Q41.64 3.30 42.62 3.09Q43.60 2.88 44.66 2.88L44.66 2.88Q46.01 2.88 47.04 3.10L47.04 3.10L47.04 2.68Q47.04 1.70 46.43 1.05Q45.81 0.39 44.30 0.39L44.30 0.39Q43.32 0.39 42.41 0.53Q41.50 0.67 40.94 0.86L40.94 0.86L40.46-1.91Q41.11-2.13 42.28-2.31Q43.46-2.50 44.72-2.50ZM64.85-1.85L64.24 1.34Q63.90 1.26 63.44 1.17Q62.98 1.09 62.50 1.02Q62.02 0.95 61.58 0.92Q61.13 0.89 60.82 0.89L60.82 0.89Q60.09 0.89 59.39 0.96Q58.69 1.03 57.96 1.23L57.96 1.23L57.96 11L54.49 11L54.49-1.29Q55.86-1.80 57.31-2.10Q58.75-2.41 60.68-2.41L60.68-2.41Q60.96-2.41 61.48-2.38Q62.00-2.36 62.58-2.29Q63.17-2.22 63.77-2.12Q64.38-2.02 64.85-1.85L64.85-1.85ZM70.00 6.10L70.00 0.70L67.01 0.70L67.01-2.16L70.00-2.16L70.00-5.46L73.45-6.02L73.45-2.16L78.96-2.16L78.96 0.70L73.45 0.70L73.45 6.02Q73.45 6.74 73.59 7.19Q73.73 7.64 73.98 7.89Q74.23 8.14 74.60 8.23Q74.96 8.31 75.41 8.31L75.41 8.31Q75.88 8.31 76.29 8.28Q76.70 8.26 77.07 8.19Q77.45 8.12 77.86 7.98Q78.26 7.84 78.74 7.61L78.74 7.61L79.22 10.58Q78.26 10.97 77.16 11.14Q76.05 11.31 75.02 11.31L75.02 11.31Q73.81 11.31 72.89 11.11Q71.96 10.92 71.32 10.36Q70.68 9.80 70.34 8.77Q70.00 7.75 70.00 6.10L70.00 6.10ZM89.69-2.16L93.22-2.16Q92.68-0.31 92.19 1.47Q91.70 3.24 91.17 4.94Q90.64 6.63 90.04 8.26Q89.44 9.88 88.74 11.42L88.74 11.42Q88.20 12.54 87.69 13.35Q87.17 14.16 86.54 14.68Q85.91 15.20 85.14 15.45Q84.37 15.70 83.33 15.70L83.33 15.70Q82.46 15.70 81.75 15.56Q81.04 15.42 80.56 15.20L80.56 15.20L81.20 12.32Q81.76 12.57 82.20 12.67Q82.63 12.76 83.14 12.76L83.14 12.76Q84.14 12.76 84.76 12.09Q85.38 11.42 85.74 10.50L85.74 10.50Q84.51 8.03 83.28 4.85Q82.04 1.68 81.04-2.16L81.04-2.16L84.62-2.16Q84.87-1.12 85.19 0.05Q85.52 1.23 85.88 2.40Q86.24 3.58 86.65 4.71Q87.06 5.85 87.48 6.83L87.48 6.83Q87.76 5.85 88.06 4.71Q88.37 3.58 88.65 2.42Q88.93 1.26 89.20 0.08Q89.46-1.10 89.69-2.16L89.69-2.16Z"/>
    </g>
</svg>