<?xml version="1.0" encoding="UTF-8"?><svg height="26" width="66.3" version="1.1" xmlns="http://www.w3.org/2000/svg"><!--Created by Josélio de S. C. Júnior - 2021 - https://github.com/joseliojunior --><rect height="24" width="64.3" rx="12" ry="12" x="1" y="1" fill="#3D6117" stroke="#8cd241" stroke-width="1" /><g transform="translate(0, 8)"><path fill="#8cd241" d="M20.40 0.10L27.60 0.10L27.60 1.73L24.99 1.73L24.99 10L23.01 10L23.01 1.73L20.40 1.73L20.40 0.10ZM28.50 6.30L28.50 6.30Q28.50 5.31 28.80 4.56Q29.10 3.81 29.60 3.30Q30.10 2.80 30.74 2.54Q31.38 2.29 32.05 2.29L32.05 2.29Q33.71 2.29 34.58 3.27Q35.44 4.26 35.44 6.14L35.44 6.14Q35.44 6.34 35.43 6.54Q35.42 6.75 35.41 6.88L35.41 6.88L30.53 6.88Q30.53 7.62 31.14 8.04Q31.74 8.46 32.70 8.46L32.70 8.46Q33.30 8.46 33.83 8.34Q34.37 8.21 34.74 8.08L34.74 8.08L35.01 9.76Q34.50 9.94 33.92 10.06Q33.34 10.18 32.62 10.18L32.62 10.18Q31.66 10.18 30.90 9.93Q30.14 9.68 29.61 9.19Q29.07 8.70 28.78 7.98Q28.50 7.26 28.50 6.30ZM30.53 5.52L33.54 5.52Q33.54 5.22 33.46 4.94Q33.38 4.66 33.20 4.43Q33.02 4.21 32.75 4.07Q32.48 3.94 32.08 3.94L32.08 3.94Q31.70 3.94 31.42 4.06Q31.14 4.19 30.95 4.42Q30.77 4.64 30.66 4.93Q30.56 5.22 30.53 5.52L30.53 5.52ZM43.82 10L41.70 10Q41.39 9.18 40.95 8.19Q40.51 7.20 40.03 6.21L40.03 6.21Q39.57 7.15 39.10 8.17Q38.64 9.18 38.30 10L38.30 10L36.18 10Q36.34 9.57 36.65 8.96Q36.96 8.35 37.34 7.65Q37.71 6.94 38.13 6.20Q38.54 5.46 38.93 4.77L38.93 4.77L36.34 0.10L38.46 0.10L40.03 3.26L41.68 0.10L43.66 0.10L41.14 4.72Q41.57 5.41 41.98 6.16Q42.40 6.91 42.76 7.62Q43.12 8.34 43.39 8.95Q43.66 9.57 43.82 10L43.82 10Z"/></g></svg>