<?xml version="1.0" encoding="UTF-8"?>
<svg height="322" width="78.3" version="1.1" xmlns="http://www.w3.org/2000/svg"><!--Created by Josélio de S. C. Júnior - 2021 - https://github.com/joseliojunior -->
    <rect
        height="32"
        width="76.3"
        rx="1"
        ry="1"
        x="1" y="1"
        fill="#3D6117"
        stroke="#8cd241"
        stroke-width="1" />
    <g transform="translate(0, 12)">
        <path fill="#8cd241" stroke="none" d="M20.60-2.86L31.40-2.86L31.40-0.41L27.49-0.41L27.49 12L24.51 12L24.51-0.41L20.60-0.41L20.60-2.86ZM32.74 6.46L32.74 6.46Q32.74 4.97 33.20 3.84Q33.66 2.71 34.40 1.96Q35.14 1.20 36.10 0.82Q37.06 0.43 38.07 0.43L38.07 0.43Q40.57 0.43 41.86 1.91Q43.16 3.38 43.16 6.22L43.16 6.22Q43.16 6.50 43.15 6.82Q43.14 7.13 43.11 7.32L43.11 7.32L35.79 7.32Q35.79 8.42 36.70 9.06Q37.62 9.70 39.06 9.70L39.06 9.70Q39.94 9.70 40.75 9.50Q41.55 9.31 42.10 9.12L42.10 9.12L42.51 11.64Q41.74 11.90 40.88 12.08Q40.02 12.26 38.94 12.26L38.94 12.26Q37.50 12.26 36.36 11.89Q35.22 11.52 34.41 10.79Q33.61 10.06 33.18 8.98Q32.74 7.90 32.74 6.46ZM35.79 5.28L40.30 5.28Q40.30 4.82 40.18 4.40Q40.06 3.98 39.80 3.65Q39.54 3.31 39.13 3.11Q38.72 2.90 38.12 2.90L38.12 2.90Q37.54 2.90 37.12 3.10Q36.70 3.29 36.43 3.62Q36.15 3.96 36.00 4.39Q35.84 4.82 35.79 5.28L35.79 5.28ZM55.74 12L52.54 12Q52.09 10.78 51.43 9.29Q50.77 7.80 50.05 6.31L50.05 6.31Q49.35 7.73 48.66 9.25Q47.96 10.78 47.46 12L47.46 12L44.26 12Q44.50 11.35 44.97 10.44Q45.44 9.53 46.00 8.47Q46.57 7.42 47.19 6.30Q47.82 5.18 48.39 4.15L48.39 4.15L44.50-2.86L47.70-2.86L50.05 1.90L52.52-2.86L55.50-2.86L51.70 4.08Q52.35 5.11 52.98 6.24Q53.60 7.37 54.14 8.44Q54.68 9.50 55.09 10.43Q55.50 11.35 55.74 12L55.74 12Z"/>
    </g>
</svg>