<?xml version="1.0" encoding="UTF-8"?>
<svg height="26" width="131.1" version="1.1" xmlns="http://www.w3.org/2000/svg"><!--Created by Josélio de S. C. Júnior - 2021 - https://github.com/joseliojunior -->
    <rect
        height="24"
        width="129.1"
        rx="12"
        ry="12"
        x="1" y="1"
        fill="#3d57c3"
        stroke="#18234e"
        stroke-width="1" />
    <g transform="translate(0, 8)">
        <path fill="#18234e" stroke="none" d="M25.49 2.40L25.49 2.40Q26.11 2.40 26.51 2.59Q26.91 2.78 27.14 3.17Q27.38 3.55 27.46 4.14Q27.54 4.72 27.54 5.50L27.54 5.50L27.54 10L25.94 10L25.94 5.41Q25.94 4.96 25.88 4.69Q25.82 4.42 25.74 4.27Q25.65 4.13 25.53 4.08Q25.41 4.03 25.28 4.03L25.28 4.03Q25.14 4.03 24.98 4.06Q24.82 4.08 24.69 4.14L24.69 4.14Q24.74 4.45 24.77 4.82Q24.80 5.18 24.80 5.63L24.80 5.63L24.80 7.14L23.20 7.14L23.20 5.41Q23.20 4.64 23.05 4.34Q22.90 4.03 22.56 4.03L22.56 4.03Q22.46 4.03 22.33 4.05Q22.19 4.06 22.06 4.10L22.06 4.10L22.06 10L20.46 10L20.46 2.77Q21.09 2.59 21.70 2.50Q22.30 2.40 22.77 2.40L22.77 2.40Q23.18 2.40 23.51 2.50Q23.84 2.61 24.08 2.85L24.08 2.85Q24.35 2.67 24.72 2.54Q25.09 2.40 25.49 2.40ZM35.15 10L28.86 10L28.86 8.37L31.02 8.37L31.02 1.73L28.86 1.73L28.86 0.10L35.15 0.10L35.15 1.73L33.01 1.73L33.01 8.37L35.15 8.37L35.15 10ZM39.42-0.02L39.42-0.02Q40.27-0.02 40.96 0.18Q41.65 0.37 42.14 0.77Q42.64 1.17 42.90 1.78Q43.17 2.40 43.17 3.23L43.17 3.23Q43.17 4.10 42.82 4.80Q42.46 5.50 41.65 5.87L41.65 5.87Q41.92 6.29 42.22 6.79Q42.53 7.30 42.82 7.85Q43.10 8.40 43.37 8.95Q43.63 9.50 43.82 10L43.82 10L41.76 10Q41.39 9.04 40.90 8.15Q40.42 7.26 39.86 6.35L39.86 6.35L38.83 6.35L38.83 10L36.86 10L36.86 0.24Q37.15 0.18 37.50 0.12Q37.84 0.06 38.19 0.04Q38.54 0.02 38.86 0Q39.18-0.02 39.42-0.02ZM41.17 3.22L41.17 3.22Q41.17 2.43 40.69 2.06Q40.21 1.70 39.42 1.70L39.42 1.70Q39.31 1.70 39.15 1.70Q38.99 1.71 38.83 1.74L38.83 1.74L38.83 4.72L39.26 4.72Q40.27 4.72 40.72 4.33Q41.17 3.94 41.17 3.22ZM48.74 10.21L48.74 10.21Q46.64 10.21 45.54 8.86Q44.43 7.52 44.43 5.04L44.43 5.04Q44.43 3.81 44.77 2.85Q45.10 1.89 45.70 1.22Q46.30 0.56 47.13 0.22Q47.95-0.13 48.93-0.13L48.93-0.13Q49.46-0.13 49.88-0.04Q50.30 0.05 50.62 0.16Q50.94 0.27 51.16 0.40Q51.38 0.53 51.49 0.59L51.49 0.59L50.98 2.16Q50.61 1.92 50.09 1.75Q49.57 1.58 48.90 1.58L48.90 1.58Q48.43 1.58 47.99 1.75Q47.55 1.92 47.21 2.31Q46.86 2.70 46.65 3.36Q46.43 4.02 46.43 4.99L46.43 4.99Q46.43 6.69 47.02 7.59Q47.60 8.50 48.93 8.50L48.93 8.50Q49.70 8.50 50.20 8.32Q50.70 8.14 51.01 7.97L51.01 7.97L51.50 9.52Q51.09 9.78 50.38 9.99Q49.66 10.21 48.74 10.21ZM63.71 8.56L63.71 8.56Q64.21 8.56 64.54 8.46Q64.86 8.35 65.06 8.17Q65.25 7.98 65.32 7.75Q65.39 7.52 65.39 7.28L65.39 7.28Q65.39 6.98 65.22 6.74Q65.04 6.50 64.77 6.31Q64.50 6.13 64.16 5.98Q63.82 5.82 63.49 5.70L63.49 5.70Q63.04 5.54 62.56 5.33Q62.08 5.12 61.69 4.80Q61.30 4.48 61.04 4.01Q60.78 3.54 60.78 2.83L60.78 2.83Q60.78 1.44 61.69 0.66Q62.59-0.13 64.18-0.13L64.18-0.13Q65.09-0.13 65.77 0.08Q66.45 0.29 66.91 0.54L66.91 0.54L66.34 2.06Q65.94 1.84 65.45 1.68Q64.96 1.52 64.32 1.52L64.32 1.52Q62.75 1.52 62.75 2.66L62.75 2.66Q62.75 2.94 62.91 3.16Q63.07 3.38 63.32 3.54Q63.57 3.71 63.88 3.84Q64.19 3.97 64.50 4.08L64.50 4.08Q64.96 4.26 65.46 4.47Q65.97 4.69 66.39 5.05Q66.82 5.41 67.09 5.94Q67.36 6.48 67.36 7.30L67.36 7.30Q67.36 8.69 66.46 9.45Q65.55 10.21 63.71 10.21L63.71 10.21Q62.48 10.21 61.74 9.94Q61.01 9.68 60.64 9.46L60.64 9.46L61.22 7.86Q61.65 8.11 62.25 8.34Q62.85 8.56 63.71 8.56ZM68.70 6.24L68.70 6.24Q68.70 5.42 68.96 4.70Q69.22 3.98 69.74 3.45Q70.27 2.91 71.08 2.60Q71.89 2.29 73.01 2.29L73.01 2.29Q73.68 2.29 74.22 2.38Q74.77 2.48 75.33 2.70L75.33 2.70L74.90 4.29Q74.58 4.18 74.18 4.09Q73.79 4 73.18 4L73.18 4Q72.48 4 72.01 4.17Q71.54 4.34 71.25 4.63Q70.96 4.93 70.83 5.34Q70.70 5.76 70.70 6.24L70.70 6.24Q70.70 7.28 71.29 7.87Q71.87 8.46 73.28 8.46L73.28 8.46Q73.74 8.46 74.25 8.40Q74.75 8.34 75.17 8.19L75.17 8.19L75.46 9.81Q75.04 9.97 74.45 10.07Q73.86 10.18 73.06 10.18L73.06 10.18Q71.90 10.18 71.08 9.87Q70.26 9.57 69.73 9.04Q69.20 8.51 68.95 7.79Q68.70 7.07 68.70 6.24ZM83.34 2.66L82.99 4.48Q82.80 4.43 82.54 4.38Q82.27 4.34 82 4.30Q81.73 4.26 81.47 4.24Q81.22 4.22 81.04 4.22L81.04 4.22Q80.62 4.22 80.22 4.26Q79.82 4.30 79.41 4.42L79.41 4.42L79.41 10L77.42 10L77.42 2.98Q78.21 2.69 79.03 2.51Q79.86 2.34 80.96 2.34L80.96 2.34Q81.12 2.34 81.42 2.35Q81.71 2.37 82.05 2.41Q82.38 2.45 82.73 2.50Q83.07 2.56 83.34 2.66L83.34 2.66ZM88.54 0.32L88.54 0.32Q88.54 0.90 88.18 1.23Q87.81 1.57 87.30 1.57L87.30 1.57Q86.78 1.57 86.42 1.23Q86.06 0.90 86.06 0.32L86.06 0.32Q86.06-0.27 86.42-0.61Q86.78-0.94 87.30-0.94L87.30-0.94Q87.81-0.94 88.18-0.61Q88.54-0.27 88.54 0.32ZM91.22 8.10L91.47 9.68Q90.86 9.97 90.33 10.07Q89.79 10.18 89.34 10.18L89.34 10.18Q88.58 10.18 88.06 9.95Q87.54 9.73 87.22 9.30Q86.91 8.88 86.78 8.27Q86.66 7.66 86.66 6.88L86.66 6.88L86.66 4.11L84.58 4.11L84.58 2.48L88.62 2.48L88.62 7.14Q88.62 7.81 88.87 8.14Q89.12 8.46 89.70 8.46L89.70 8.46Q89.97 8.46 90.35 8.39Q90.74 8.32 91.22 8.10L91.22 8.10ZM97.50 6.30L97.50 6.30Q97.50 5.30 97.10 4.65Q96.70 4 95.89 4L95.89 4Q95.66 4 95.41 4.02Q95.15 4.05 94.98 4.06L94.98 4.06L94.98 8.19Q95.17 8.32 95.49 8.40Q95.81 8.48 96.13 8.48L96.13 8.48Q96.83 8.48 97.17 7.91Q97.50 7.34 97.50 6.30ZM99.50 6.24L99.50 6.24Q99.50 7.10 99.31 7.83Q99.12 8.56 98.75 9.08Q98.38 9.60 97.82 9.89Q97.26 10.18 96.53 10.18L96.53 10.18Q95.78 10.18 94.98 9.81L94.98 9.81L94.98 12.64L93.01 12.64L93.01 2.72Q93.55 2.54 94.34 2.43Q95.14 2.32 95.90 2.32L95.90 2.32Q97.65 2.32 98.58 3.38Q99.50 4.43 99.50 6.24ZM102.29 7.20L102.29 4.11L100.58 4.11L100.58 2.48L102.29 2.48L102.29 0.59L104.26 0.27L104.26 2.48L107.41 2.48L107.41 4.11L104.26 4.11L104.26 7.15Q104.26 7.57 104.34 7.82Q104.42 8.08 104.56 8.22Q104.70 8.37 104.91 8.42Q105.12 8.46 105.38 8.46L105.38 8.46Q105.65 8.46 105.88 8.45Q106.11 8.43 106.33 8.39Q106.54 8.35 106.78 8.27Q107.01 8.19 107.28 8.06L107.28 8.06L107.55 9.76Q107.01 9.98 106.38 10.08Q105.74 10.18 105.15 10.18L105.15 10.18Q104.46 10.18 103.94 10.06Q103.41 9.95 103.04 9.63Q102.67 9.31 102.48 8.73Q102.29 8.14 102.29 7.20L102.29 7.20Z"/>
    </g>
</svg>