<?xml version="1.0" encoding="UTF-8"?><svg height="34" width="175.1" version="1.1" xmlns="http://www.w3.org/2000/svg"><!--Created by Josélio de S. C. Júnior - 2021 - https://github.com/joseliojunior --><rect height="32" width="173.1" rx="1" ry="1" x="1" y="1" fill="#3d57c3" stroke="#18234e" stroke-width="1" /><g transform="translate(0, 12)"><path fill="#18234e" d="M28.23 0.60L28.23 0.60Q29.17 0.60 29.77 0.89Q30.37 1.18 30.72 1.75Q31.06 2.33 31.18 3.20Q31.30 4.08 31.30 5.26L31.30 5.26L31.30 12L28.90 12L28.90 5.11Q28.90 4.44 28.82 4.03Q28.74 3.62 28.60 3.41Q28.47 3.19 28.29 3.12Q28.11 3.05 27.92 3.05L27.92 3.05Q27.70 3.05 27.46 3.08Q27.22 3.12 27.03 3.22L27.03 3.22Q27.10 3.67 27.15 4.22Q27.20 4.78 27.20 5.45L27.20 5.45L27.20 7.70L24.80 7.70L24.80 5.11Q24.80 3.96 24.57 3.50Q24.34 3.05 23.84 3.05L23.84 3.05Q23.70 3.05 23.49 3.07Q23.29 3.10 23.10 3.14L23.10 3.14L23.10 12L20.70 12L20.70 1.15Q21.63 0.89 22.54 0.74Q23.46 0.60 24.15 0.60L24.15 0.60Q24.78 0.60 25.27 0.76Q25.76 0.91 26.12 1.27L26.12 1.27Q26.53 1.01 27.08 0.80Q27.63 0.60 28.23 0.60ZM42.73 12L33.30 12L33.30 9.55L36.54 9.55L36.54-0.41L33.30-0.41L33.30-2.86L42.73-2.86L42.73-0.41L39.51-0.41L39.51 9.55L42.73 9.55L42.73 12ZM49.14-3.02L49.14-3.02Q50.41-3.02 51.44-2.74Q52.47-2.45 53.22-1.85Q53.96-1.25 54.36-0.32Q54.75 0.60 54.75 1.85L54.75 1.85Q54.75 3.14 54.22 4.20Q53.70 5.26 52.47 5.81L52.47 5.81Q52.88 6.43 53.34 7.19Q53.79 7.94 54.22 8.77Q54.66 9.60 55.05 10.43Q55.45 11.26 55.74 12L55.74 12L52.64 12Q52.09 10.56 51.36 9.23Q50.62 7.90 49.78 6.53L49.78 6.53L48.25 6.53L48.25 12L45.30 12L45.30-2.64Q45.73-2.74 46.24-2.82Q46.76-2.90 47.29-2.94Q47.82-2.98 48.30-3Q48.78-3.02 49.14-3.02ZM51.75 1.82L51.75 1.82Q51.75 0.65 51.03 0.10Q50.31-0.46 49.14-0.46L49.14-0.46Q48.97-0.46 48.73-0.44Q48.49-0.43 48.25-0.38L48.25-0.38L48.25 4.08L48.90 4.08Q50.41 4.08 51.08 3.49Q51.75 2.90 51.75 1.82ZM63.10 12.31L63.10 12.31Q59.96 12.31 58.30 10.30Q56.65 8.28 56.65 4.56L56.65 4.56Q56.65 2.71 57.15 1.27Q57.66-0.17 58.56-1.16Q59.46-2.16 60.69-2.68Q61.93-3.19 63.39-3.19L63.39-3.19Q64.18-3.19 64.82-3.06Q65.46-2.93 65.94-2.76Q66.42-2.59 66.74-2.40Q67.06-2.21 67.23-2.11L67.23-2.11L66.46 0.24Q65.91-0.12 65.13-0.37Q64.35-0.62 63.34-0.62L63.34-0.62Q62.65-0.62 61.99-0.37Q61.33-0.12 60.81 0.47Q60.30 1.06 59.97 2.04Q59.65 3.02 59.65 4.49L59.65 4.49Q59.65 7.03 60.52 8.39Q61.40 9.74 63.39 9.74L63.39 9.74Q64.54 9.74 65.30 9.48Q66.06 9.22 66.51 8.95L66.51 8.95L67.26 11.28Q66.63 11.66 65.56 11.99Q64.50 12.31 63.10 12.31ZM85.57 9.84L85.57 9.84Q86.31 9.84 86.80 9.68Q87.30 9.53 87.58 9.25Q87.87 8.98 87.98 8.63Q88.09 8.28 88.09 7.92L88.09 7.92Q88.09 7.46 87.82 7.10Q87.56 6.74 87.15 6.47Q86.74 6.19 86.24 5.96Q85.74 5.74 85.23 5.54L85.23 5.54Q84.56 5.30 83.84 4.99Q83.12 4.68 82.53 4.20Q81.94 3.72 81.56 3.01Q81.18 2.30 81.18 1.25L81.18 1.25Q81.18-0.84 82.53-2.02Q83.89-3.19 86.26-3.19L86.26-3.19Q87.63-3.19 88.65-2.88Q89.67-2.57 90.37-2.18L90.37-2.18L89.50 0.10Q88.90-0.24 88.17-0.48Q87.44-0.72 86.48-0.72L86.48-0.72Q84.13-0.72 84.13 0.98L84.13 0.98Q84.13 1.42 84.37 1.74Q84.61 2.06 84.98 2.32Q85.35 2.57 85.82 2.76Q86.29 2.95 86.74 3.12L86.74 3.12Q87.44 3.38 88.20 3.71Q88.95 4.03 89.59 4.57Q90.22 5.11 90.63 5.92Q91.04 6.72 91.04 7.94L91.04 7.94Q91.04 10.03 89.68 11.17Q88.33 12.31 85.57 12.31L85.57 12.31Q83.72 12.31 82.62 11.92Q81.51 11.52 80.96 11.18L80.96 11.18L81.82 8.78Q82.47 9.17 83.37 9.50Q84.27 9.84 85.57 9.84ZM93.06 6.36L93.06 6.36Q93.06 5.14 93.44 4.06Q93.82 2.98 94.62 2.17Q95.41 1.37 96.62 0.90Q97.83 0.43 99.51 0.43L99.51 0.43Q100.52 0.43 101.34 0.58Q102.15 0.72 102.99 1.06L102.99 1.06L102.34 3.43Q101.86 3.26 101.28 3.13Q100.69 3 99.78 3L99.78 3Q98.72 3 98.01 3.25Q97.30 3.50 96.87 3.95Q96.44 4.39 96.25 5.02Q96.06 5.64 96.06 6.36L96.06 6.36Q96.06 7.92 96.93 8.81Q97.81 9.70 99.92 9.70L99.92 9.70Q100.62 9.70 101.37 9.60Q102.13 9.50 102.75 9.29L102.75 9.29L103.18 11.71Q102.56 11.95 101.67 12.11Q100.78 12.26 99.58 12.26L99.58 12.26Q97.86 12.26 96.62 11.81Q95.38 11.35 94.59 10.56Q93.80 9.77 93.43 8.69Q93.06 7.61 93.06 6.36ZM115.02 0.98L114.49 3.72Q114.20 3.65 113.80 3.58Q113.41 3.50 113 3.44Q112.59 3.38 112.21 3.36Q111.82 3.34 111.56 3.34L111.56 3.34Q110.94 3.34 110.34 3.40Q109.74 3.46 109.11 3.62L109.11 3.62L109.11 12L106.14 12L106.14 1.46Q107.31 1.03 108.55 0.77Q109.78 0.50 111.44 0.50L111.44 0.50Q111.68 0.50 112.12 0.53Q112.57 0.55 113.07 0.61Q113.58 0.67 114.09 0.76Q114.61 0.84 115.02 0.98L115.02 0.98ZM122.82-2.52L122.82-2.52Q122.82-1.66 122.26-1.15Q121.71-0.65 120.94-0.65L120.94-0.65Q120.18-0.65 119.64-1.15Q119.10-1.66 119.10-2.52L119.10-2.52Q119.10-3.41 119.64-3.91Q120.18-4.42 120.94-4.42L120.94-4.42Q121.71-4.42 122.26-3.91Q122.82-3.41 122.82-2.52ZM126.82 9.14L127.21 11.52Q126.30 11.95 125.49 12.11Q124.69 12.26 124.02 12.26L124.02 12.26Q122.86 12.26 122.08 11.93Q121.30 11.59 120.84 10.96Q120.37 10.32 120.18 9.41Q119.98 8.50 119.98 7.32L119.98 7.32L119.98 3.17L116.86 3.17L116.86 0.72L122.94 0.72L122.94 7.70Q122.94 8.71 123.31 9.20Q123.68 9.70 124.54 9.70L124.54 9.70Q124.95 9.70 125.53 9.59Q126.10 9.48 126.82 9.14L126.82 9.14ZM136.26 6.46L136.26 6.46Q136.26 4.94 135.66 3.97Q135.06 3 133.83 3L133.83 3Q133.50 3 133.11 3.04Q132.73 3.07 132.46 3.10L132.46 3.10L132.46 9.29Q132.75 9.48 133.23 9.60Q133.71 9.72 134.19 9.72L134.19 9.72Q135.25 9.72 135.75 8.87Q136.26 8.02 136.26 6.46ZM139.26 6.36L139.26 6.36Q139.26 7.66 138.97 8.75Q138.68 9.84 138.13 10.62Q137.58 11.40 136.74 11.83Q135.90 12.26 134.79 12.26L134.79 12.26Q133.66 12.26 132.46 11.71L132.46 11.71L132.46 15.96L129.51 15.96L129.51 1.08Q130.33 0.82 131.52 0.65Q132.70 0.48 133.86 0.48L133.86 0.48Q136.47 0.48 137.86 2.06Q139.26 3.65 139.26 6.36ZM143.43 7.80L143.43 3.17L140.86 3.17L140.86 0.72L143.43 0.72L143.43-2.11L146.38-2.59L146.38 0.72L151.11 0.72L151.11 3.17L146.38 3.17L146.38 7.73Q146.38 8.35 146.50 8.74Q146.62 9.12 146.84 9.34Q147.06 9.55 147.37 9.62Q147.68 9.70 148.06 9.70L148.06 9.70Q148.47 9.70 148.82 9.67Q149.17 9.65 149.49 9.59Q149.82 9.53 150.16 9.41Q150.51 9.29 150.92 9.10L150.92 9.10L151.33 11.64Q150.51 11.98 149.56 12.12Q148.62 12.26 147.73 12.26L147.73 12.26Q146.70 12.26 145.90 12.10Q145.11 11.93 144.56 11.45Q144.01 10.97 143.72 10.09Q143.43 9.22 143.43 7.80L143.43 7.80Z"/></g></svg>