<?xml version="1.0" encoding="UTF-8"?>
<svg height="34" width="148.89999999999998" version="1.1" xmlns="http://www.w3.org/2000/svg">
    <rect
        height="32"
        width="146.89999999999998"
        rx="14"
        ry="14"
        x="1"
        y="1"
        fill="#32AB90"
        stroke="#0f332b"
        stroke-width="1"
         />
    <g transform="translate(0, 14)">
        <path fill="#0f332b" d="M17.11 1.59L17.11 1.59Q17.42 0.95 17.83-0.03Q18.23-1.01 18.64-2.10Q19.04-3.20 19.42-4.32Q19.80-5.44 20.11-6.33L20.11-6.33L23.66-6.33Q23.13-4.90 22.60-3.56Q22.07-2.22 21.48-0.90Q20.89 0.42 20.22 1.72Q19.55 3.02 18.76 4.39L18.76 4.39L18.76 11L15.29 11L15.29 4.42Q13.75 1.70 12.59-0.89Q11.43-3.48 10.36-6.33L10.36-6.33L14.06-6.33Q14.70-4.32 15.49-2.23Q16.27-0.14 17.11 1.59ZM37.75 11L34.05 11L33.24 7.00L28.62 7.00L27.84 11L24.25 11Q25.48 5.88 26.74 1.66Q28.00-2.55 29.18-6.33L29.18-6.33L32.93-6.33Q34.16-2.52 35.38 1.75Q36.60 6.02 37.75 11L37.75 11ZM30.97-2.97L30.97-2.97Q30.69-1.99 30.45-1.11Q30.22-0.23 30.01 0.63Q29.80 1.48 29.61 2.35Q29.43 3.22 29.26 4.14L29.26 4.14L32.65 4.14Q32.48 3.22 32.32 2.35Q32.15 1.48 31.94 0.63Q31.73-0.23 31.49-1.11Q31.25-1.99 30.97-2.97ZM44.50 8.48L44.50 8.48Q45.36 8.48 45.94 8.30Q46.51 8.12 46.85 7.79Q47.18 7.47 47.31 7.07Q47.44 6.66 47.44 6.24L47.44 6.24Q47.44 5.71 47.13 5.29Q46.82 4.87 46.34 4.55Q45.87 4.22 45.28 3.96Q44.69 3.69 44.10 3.47L44.10 3.47Q43.32 3.19 42.48 2.82Q41.64 2.46 40.95 1.90Q40.27 1.34 39.82 0.51Q39.37-0.31 39.37-1.54L39.37-1.54Q39.37-3.98 40.95-5.35Q42.54-6.72 45.31-6.72L45.31-6.72Q46.90-6.72 48.09-6.36Q49.28-6.00 50.10-5.55L50.10-5.55L49.09-2.89Q48.39-3.28 47.53-3.56Q46.68-3.84 45.56-3.84L45.56-3.84Q42.82-3.84 42.82-1.85L42.82-1.85Q42.82-1.35 43.10-0.97Q43.38-0.59 43.81-0.30Q44.24-0.00 44.79 0.22Q45.34 0.44 45.87 0.64L45.87 0.64Q46.68 0.95 47.56 1.33Q48.44 1.70 49.19 2.33Q49.93 2.96 50.40 3.90Q50.88 4.84 50.88 6.27L50.88 6.27Q50.88 8.70 49.30 10.03Q47.72 11.36 44.50 11.36L44.50 11.36Q42.34 11.36 41.05 10.90Q39.76 10.44 39.12 10.05L39.12 10.05L40.13 7.25Q40.88 7.70 41.93 8.09Q42.98 8.48 44.50 8.48ZM53.76 11L53.76-1.74Q54.69-1.99 56.05-2.22Q57.40-2.44 59-2.44L59-2.44Q60.57-2.44 61.60-2.01Q62.64-1.57 63.24-0.77Q63.84 0.02 64.10 1.13Q64.35 2.24 64.35 3.58L64.35 3.58L64.35 11L60.90 11L60.90 4.03Q60.90 2.18 60.48 1.37Q60.06 0.56 58.78 0.56L58.78 0.56Q58.38 0.56 58.01 0.58Q57.63 0.61 57.21 0.67L57.21 0.67L57.21 11L53.76 11ZM73.95-5.94L73.95-5.94Q73.95-4.93 73.31-4.34Q72.66-3.76 71.77-3.76L71.77-3.76Q70.87-3.76 70.24-4.34Q69.61-4.93 69.61-5.94L69.61-5.94Q69.61-6.98 70.24-7.56Q70.87-8.15 71.77-8.15L71.77-8.15Q72.66-8.15 73.31-7.56Q73.95-6.98 73.95-5.94ZM78.63 7.67L79.08 10.44Q78.01 10.94 77.07 11.13Q76.14 11.31 75.35 11.31L75.35 11.31Q74.01 11.31 73.10 10.92Q72.19 10.52 71.64 9.78Q71.10 9.04 70.87 7.98Q70.65 6.91 70.65 5.54L70.65 5.54L70.65 0.70L67.01 0.70L67.01-2.16L74.09-2.16L74.09 5.99Q74.09 7.16 74.53 7.74Q74.96 8.31 75.97 8.31L75.97 8.31Q76.44 8.31 77.12 8.19Q77.79 8.06 78.63 7.67L78.63 7.67ZM89.63 4.53L89.63 4.53Q89.63 2.77 88.93 1.63Q88.23 0.50 86.80 0.50L86.80 0.50Q86.41 0.50 85.96 0.54Q85.52 0.58 85.21 0.61L85.21 0.61L85.21 7.84Q85.54 8.06 86.10 8.20Q86.66 8.34 87.22 8.34L87.22 8.34Q88.46 8.34 89.04 7.35Q89.63 6.35 89.63 4.53ZM93.13 4.42L93.13 4.42Q93.13 5.93 92.80 7.21Q92.46 8.48 91.82 9.39Q91.17 10.30 90.19 10.80Q89.21 11.31 87.92 11.31L87.92 11.31Q86.61 11.31 85.21 10.66L85.21 10.66L85.21 15.62L81.76 15.62L81.76-1.74Q82.72-2.05 84.10-2.24Q85.49-2.44 86.83-2.44L86.83-2.44Q89.88-2.44 91.51-0.59Q93.13 1.26 93.13 4.42ZM103.63 4.53L103.63 4.53Q103.63 2.77 102.93 1.63Q102.23 0.50 100.80 0.50L100.80 0.50Q100.41 0.50 99.96 0.54Q99.52 0.58 99.21 0.61L99.21 0.61L99.21 7.84Q99.54 8.06 100.10 8.20Q100.66 8.34 101.22 8.34L101.22 8.34Q102.46 8.34 103.04 7.35Q103.63 6.35 103.63 4.53ZM107.13 4.42L107.13 4.42Q107.13 5.93 106.80 7.21Q106.46 8.48 105.82 9.39Q105.17 10.30 104.19 10.80Q103.21 11.31 101.92 11.31L101.92 11.31Q100.61 11.31 99.21 10.66L99.21 10.66L99.21 15.62L95.76 15.62L95.76-1.74Q96.72-2.05 98.10-2.24Q99.49-2.44 100.83-2.44L100.83-2.44Q103.88-2.44 105.51-0.59Q107.13 1.26 107.13 4.42ZM108.87 4.53L108.87 4.53Q108.87 2.80 109.40 1.48Q109.93 0.16 110.80-0.72Q111.67-1.60 112.79-2.05Q113.91-2.50 115.08-2.50L115.08-2.50Q118.00-2.50 119.51-0.77Q121.02 0.95 121.02 4.25L121.02 4.25Q121.02 4.59 121.01 4.95Q120.99 5.32 120.96 5.54L120.96 5.54L112.42 5.54Q112.42 6.83 113.49 7.57Q114.55 8.31 116.23 8.31L116.23 8.31Q117.27 8.31 118.21 8.09Q119.14 7.86 119.79 7.64L119.79 7.64L120.26 10.58Q119.37 10.89 118.36 11.10Q117.35 11.31 116.09 11.31L116.09 11.31Q114.41 11.31 113.08 10.87Q111.75 10.44 110.81 9.59Q109.88 8.73 109.37 7.47Q108.87 6.21 108.87 4.53ZM112.42 3.16L117.69 3.16Q117.69 2.63 117.55 2.14Q117.41 1.65 117.10 1.26Q116.79 0.86 116.32 0.63Q115.84 0.39 115.14 0.39L115.14 0.39Q114.47 0.39 113.98 0.61Q113.49 0.84 113.17 1.23Q112.84 1.62 112.66 2.12Q112.48 2.63 112.42 3.16L112.42 3.16ZM126.00 6.10L126.00 0.70L123.01 0.70L123.01-2.16L126.00-2.16L126.00-5.46L129.45-6.02L129.45-2.16L134.96-2.16L134.96 0.70L129.45 0.70L129.45 6.02Q129.45 6.74 129.59 7.19Q129.73 7.64 129.98 7.89Q130.23 8.14 130.60 8.23Q130.96 8.31 131.41 8.31L131.41 8.31Q131.88 8.31 132.29 8.28Q132.70 8.26 133.07 8.19Q133.45 8.12 133.86 7.98Q134.26 7.84 134.74 7.61L134.74 7.61L135.22 10.58Q134.26 10.97 133.16 11.14Q132.05 11.31 131.02 11.31L131.02 11.31Q129.81 11.31 128.89 11.11Q127.96 10.92 127.32 10.36Q126.68 9.80 126.34 8.77Q126.00 7.75 126.00 6.10L126.00 6.10Z"/>
    </g>
</svg>