<?xml version="1.0" encoding="UTF-8"?><svg height="34" width="150.9" version="1.1" xmlns="http://www.w3.org/2000/svg"><!--Created by Josélio de S. C. Júnior - 2021 - https://github.com/joseliojunior --><rect height="32" width="148.9" rx="16" ry="16" x="1" y="1" fill="#32AB90" stroke="#0f332b" stroke-width="1" /><g transform="translate(0, 12)"><path fill="#0f332b" d="M26.10 3.94L26.10 3.94Q26.36 3.38 26.71 2.54Q27.06 1.70 27.40 0.77Q27.75-0.17 28.08-1.13Q28.40-2.09 28.66-2.86L28.66-2.86L31.71-2.86Q31.26-1.63 30.80-0.48Q30.34 0.67 29.84 1.80Q29.34 2.93 28.76 4.04Q28.18 5.16 27.51 6.34L27.51 6.34L27.51 12L24.54 12L24.54 6.36Q23.22 4.03 22.22 1.81Q21.22-0.41 20.31-2.86L20.31-2.86L23.48-2.86Q24.03-1.13 24.70 0.66Q25.38 2.45 26.10 3.94ZM43.78 12L40.62 12L39.92 8.57L35.96 8.57L35.29 12L32.22 12Q33.27 7.61 34.35 4.00Q35.43 0.38 36.44-2.86L36.44-2.86L39.66-2.86Q40.71 0.41 41.76 4.07Q42.80 7.73 43.78 12L43.78 12ZM37.98 0.02L37.98 0.02Q37.74 0.86 37.53 1.62Q37.33 2.38 37.15 3.11Q36.97 3.84 36.81 4.58Q36.66 5.33 36.51 6.12L36.51 6.12L39.42 6.12Q39.27 5.33 39.13 4.58Q38.98 3.84 38.80 3.11Q38.62 2.38 38.42 1.62Q38.22 0.86 37.98 0.02ZM49.57 9.84L49.57 9.84Q50.31 9.84 50.80 9.68Q51.30 9.53 51.58 9.25Q51.87 8.98 51.98 8.63Q52.09 8.28 52.09 7.92L52.09 7.92Q52.09 7.46 51.82 7.10Q51.56 6.74 51.15 6.47Q50.74 6.19 50.24 5.96Q49.74 5.74 49.23 5.54L49.23 5.54Q48.56 5.30 47.84 4.99Q47.12 4.68 46.53 4.20Q45.94 3.72 45.56 3.01Q45.18 2.30 45.18 1.25L45.18 1.25Q45.18-0.84 46.53-2.02Q47.89-3.19 50.26-3.19L50.26-3.19Q51.63-3.19 52.65-2.88Q53.67-2.57 54.37-2.18L54.37-2.18L53.50 0.10Q52.90-0.24 52.17-0.48Q51.44-0.72 50.48-0.72L50.48-0.72Q48.13-0.72 48.13 0.98L48.13 0.98Q48.13 1.42 48.37 1.74Q48.61 2.06 48.98 2.32Q49.35 2.57 49.82 2.76Q50.29 2.95 50.74 3.12L50.74 3.12Q51.44 3.38 52.20 3.71Q52.95 4.03 53.59 4.57Q54.22 5.11 54.63 5.92Q55.04 6.72 55.04 7.94L55.04 7.94Q55.04 10.03 53.68 11.17Q52.33 12.31 49.57 12.31L49.57 12.31Q47.72 12.31 46.62 11.92Q45.51 11.52 44.96 11.18L44.96 11.18L45.82 8.78Q46.47 9.17 47.37 9.50Q48.27 9.84 49.57 9.84ZM57.51 12L57.51 1.08Q58.30 0.86 59.47 0.67Q60.63 0.48 62 0.48L62 0.48Q63.34 0.48 64.23 0.85Q65.12 1.22 65.64 1.91Q66.15 2.59 66.37 3.54Q66.58 4.49 66.58 5.64L66.58 5.64L66.58 12L63.63 12L63.63 6.02Q63.63 4.44 63.27 3.74Q62.91 3.05 61.81 3.05L61.81 3.05Q61.47 3.05 61.15 3.07Q60.82 3.10 60.46 3.14L60.46 3.14L60.46 12L57.51 12ZM74.82-2.52L74.82-2.52Q74.82-1.66 74.26-1.15Q73.71-0.65 72.94-0.65L72.94-0.65Q72.18-0.65 71.64-1.15Q71.10-1.66 71.10-2.52L71.10-2.52Q71.10-3.41 71.64-3.91Q72.18-4.42 72.94-4.42L72.94-4.42Q73.71-4.42 74.26-3.91Q74.82-3.41 74.82-2.52ZM78.82 9.14L79.21 11.52Q78.30 11.95 77.49 12.11Q76.69 12.26 76.02 12.26L76.02 12.26Q74.86 12.26 74.08 11.93Q73.30 11.59 72.84 10.96Q72.37 10.32 72.18 9.41Q71.98 8.50 71.98 7.32L71.98 7.32L71.98 3.17L68.86 3.17L68.86 0.72L74.94 0.72L74.94 7.70Q74.94 8.71 75.31 9.20Q75.68 9.70 76.54 9.70L76.54 9.70Q76.95 9.70 77.53 9.59Q78.10 9.48 78.82 9.14L78.82 9.14ZM88.26 6.46L88.26 6.46Q88.26 4.94 87.66 3.97Q87.06 3 85.83 3L85.83 3Q85.50 3 85.11 3.04Q84.73 3.07 84.46 3.10L84.46 3.10L84.46 9.29Q84.75 9.48 85.23 9.60Q85.71 9.72 86.19 9.72L86.19 9.72Q87.25 9.72 87.75 8.87Q88.26 8.02 88.26 6.46ZM91.26 6.36L91.26 6.36Q91.26 7.66 90.97 8.75Q90.68 9.84 90.13 10.62Q89.58 11.40 88.74 11.83Q87.90 12.26 86.79 12.26L86.79 12.26Q85.66 12.26 84.46 11.71L84.46 11.71L84.46 15.96L81.51 15.96L81.51 1.08Q82.33 0.82 83.52 0.65Q84.70 0.48 85.86 0.48L85.86 0.48Q88.47 0.48 89.86 2.06Q91.26 3.65 91.26 6.36ZM100.26 6.46L100.26 6.46Q100.26 4.94 99.66 3.97Q99.06 3 97.83 3L97.83 3Q97.50 3 97.11 3.04Q96.73 3.07 96.46 3.10L96.46 3.10L96.46 9.29Q96.75 9.48 97.23 9.60Q97.71 9.72 98.19 9.72L98.19 9.72Q99.25 9.72 99.75 8.87Q100.26 8.02 100.26 6.46ZM103.26 6.36L103.26 6.36Q103.26 7.66 102.97 8.75Q102.68 9.84 102.13 10.62Q101.58 11.40 100.74 11.83Q99.90 12.26 98.79 12.26L98.79 12.26Q97.66 12.26 96.46 11.71L96.46 11.71L96.46 15.96L93.51 15.96L93.51 1.08Q94.33 0.82 95.52 0.65Q96.70 0.48 97.86 0.48L97.86 0.48Q100.47 0.48 101.86 2.06Q103.26 3.65 103.26 6.36ZM104.74 6.46L104.74 6.46Q104.74 4.97 105.20 3.84Q105.66 2.71 106.40 1.96Q107.14 1.20 108.10 0.82Q109.06 0.43 110.07 0.43L110.07 0.43Q112.57 0.43 113.86 1.91Q115.16 3.38 115.16 6.22L115.16 6.22Q115.16 6.50 115.15 6.82Q115.14 7.13 115.11 7.32L115.11 7.32L107.79 7.32Q107.79 8.42 108.70 9.06Q109.62 9.70 111.06 9.70L111.06 9.70Q111.94 9.70 112.75 9.50Q113.55 9.31 114.10 9.12L114.10 9.12L114.51 11.64Q113.74 11.90 112.88 12.08Q112.02 12.26 110.94 12.26L110.94 12.26Q109.50 12.26 108.36 11.89Q107.22 11.52 106.41 10.79Q105.61 10.06 105.18 8.98Q104.74 7.90 104.74 6.46ZM107.79 5.28L112.30 5.28Q112.30 4.82 112.18 4.40Q112.06 3.98 111.80 3.65Q111.54 3.31 111.13 3.11Q110.72 2.90 110.12 2.90L110.12 2.90Q109.54 2.90 109.12 3.10Q108.70 3.29 108.43 3.62Q108.15 3.96 108.00 4.39Q107.84 4.82 107.79 5.28L107.79 5.28ZM119.43 7.80L119.43 3.17L116.86 3.17L116.86 0.72L119.43 0.72L119.43-2.11L122.38-2.59L122.38 0.72L127.11 0.72L127.11 3.17L122.38 3.17L122.38 7.73Q122.38 8.35 122.50 8.74Q122.62 9.12 122.84 9.34Q123.06 9.55 123.37 9.62Q123.68 9.70 124.06 9.70L124.06 9.70Q124.47 9.70 124.82 9.67Q125.17 9.65 125.49 9.59Q125.82 9.53 126.16 9.41Q126.51 9.29 126.92 9.10L126.92 9.10L127.33 11.64Q126.51 11.98 125.56 12.12Q124.62 12.26 123.73 12.26L123.73 12.26Q122.70 12.26 121.90 12.10Q121.11 11.93 120.56 11.45Q120.01 10.97 119.72 10.09Q119.43 9.22 119.43 7.80L119.43 7.80Z"/></g></svg>