<?xml version="1.0" encoding="UTF-8"?>
<svg height="34" width="235.6" version="1.1" xmlns="http://www.w3.org/2000/svg"><!--Created by Josélio de S. C. Júnior - 2021 - https://github.com/joseliojunior -->
    <rect
        height="32"
        width="233.6"
        rx="16"
        ry="16"
        x="1" y="1"
        fill="#DA5B0B"
        stroke="#491e04"
        stroke-width="1" />
    <g transform="translate(0, 12)">
        <path fill="#491e04" d="M30.51-2.86L30.51 7.03Q30.51 8.11 30.24 9.07Q29.96 10.03 29.32 10.75Q28.69 11.47 27.68 11.89Q26.67 12.31 25.23 12.31L25.23 12.31Q23.72 12.31 22.71 11.93Q21.70 11.54 21.01 10.99L21.01 10.99L22.14 8.64Q22.74 9.02 23.47 9.38Q24.20 9.74 24.97 9.74L24.97 9.74Q26.12 9.74 26.83 9.13Q27.54 8.52 27.54 6.86L27.54 6.86L27.54-0.41L22.57-0.41L22.57-2.86L30.51-2.86ZM42.51 0.72L42.51 11.62Q41.70 11.83 40.53 12.05Q39.37 12.26 38 12.26L38 12.26Q36.61 12.26 35.72 11.88Q34.83 11.50 34.32 10.79Q33.80 10.08 33.61 9.12Q33.42 8.16 33.42 7.01L33.42 7.01L33.42 0.72L36.37 0.72L36.37 6.62Q36.37 8.18 36.74 8.94Q37.11 9.70 38.19 9.70L38.19 9.70Q38.86 9.70 39.54 9.58L39.54 9.58L39.54 0.72L42.51 0.72ZM52.26 6.46L52.26 6.46Q52.26 4.94 51.66 3.97Q51.06 3 49.83 3L49.83 3Q49.50 3 49.11 3.04Q48.73 3.07 48.46 3.10L48.46 3.10L48.46 9.29Q48.75 9.48 49.23 9.60Q49.71 9.72 50.19 9.72L50.19 9.72Q51.25 9.72 51.75 8.87Q52.26 8.02 52.26 6.46ZM55.26 6.36L55.26 6.36Q55.26 7.66 54.97 8.75Q54.68 9.84 54.13 10.62Q53.58 11.40 52.74 11.83Q51.90 12.26 50.79 12.26L50.79 12.26Q49.66 12.26 48.46 11.71L48.46 11.71L48.46 15.96L45.51 15.96L45.51 1.08Q46.33 0.82 47.52 0.65Q48.70 0.48 49.86 0.48L49.86 0.48Q52.47 0.48 53.86 2.06Q55.26 3.65 55.26 6.36ZM64.30 0.72L67.33 0.72Q66.87 2.30 66.45 3.83Q66.03 5.35 65.58 6.80Q65.12 8.26 64.60 9.65Q64.09 11.04 63.49 12.36L63.49 12.36Q63.03 13.32 62.59 14.02Q62.14 14.71 61.60 15.16Q61.06 15.60 60.40 15.82Q59.74 16.03 58.86 16.03L58.86 16.03Q58.11 16.03 57.50 15.91Q56.89 15.79 56.48 15.60L56.48 15.60L57.03 13.13Q57.51 13.34 57.88 13.43Q58.26 13.51 58.69 13.51L58.69 13.51Q59.55 13.51 60.08 12.94Q60.61 12.36 60.92 11.57L60.92 11.57Q59.86 9.46 58.81 6.73Q57.75 4.01 56.89 0.72L56.89 0.72L59.96 0.72Q60.18 1.61 60.45 2.62Q60.73 3.62 61.04 4.63Q61.35 5.64 61.70 6.61Q62.05 7.58 62.41 8.42L62.41 8.42Q62.65 7.58 62.91 6.61Q63.18 5.64 63.42 4.64Q63.66 3.65 63.88 2.64Q64.11 1.63 64.30 0.72L64.30 0.72ZM71.43 7.80L71.43 3.17L68.86 3.17L68.86 0.72L71.43 0.72L71.43-2.11L74.38-2.59L74.38 0.72L79.11 0.72L79.11 3.17L74.38 3.17L74.38 7.73Q74.38 8.35 74.50 8.74Q74.62 9.12 74.84 9.34Q75.06 9.55 75.37 9.62Q75.68 9.70 76.06 9.70L76.06 9.70Q76.47 9.70 76.82 9.67Q77.17 9.65 77.49 9.59Q77.82 9.53 78.16 9.41Q78.51 9.29 78.92 9.10L78.92 9.10L79.33 11.64Q78.51 11.98 77.56 12.12Q76.62 12.26 75.73 12.26L75.73 12.26Q74.70 12.26 73.90 12.10Q73.11 11.93 72.56 11.45Q72.01 10.97 71.72 10.09Q71.43 9.22 71.43 7.80L71.43 7.80ZM80.74 6.46L80.74 6.46Q80.74 4.97 81.20 3.84Q81.66 2.71 82.40 1.96Q83.14 1.20 84.10 0.82Q85.06 0.43 86.07 0.43L86.07 0.43Q88.57 0.43 89.86 1.91Q91.16 3.38 91.16 6.22L91.16 6.22Q91.16 6.50 91.15 6.82Q91.14 7.13 91.11 7.32L91.11 7.32L83.79 7.32Q83.79 8.42 84.70 9.06Q85.62 9.70 87.06 9.70L87.06 9.70Q87.94 9.70 88.75 9.50Q89.55 9.31 90.10 9.12L90.10 9.12L90.51 11.64Q89.74 11.90 88.88 12.08Q88.02 12.26 86.94 12.26L86.94 12.26Q85.50 12.26 84.36 11.89Q83.22 11.52 82.41 10.79Q81.61 10.06 81.18 8.98Q80.74 7.90 80.74 6.46ZM83.79 5.28L88.30 5.28Q88.30 4.82 88.18 4.40Q88.06 3.98 87.80 3.65Q87.54 3.31 87.13 3.11Q86.72 2.90 86.12 2.90L86.12 2.90Q85.54 2.90 85.12 3.10Q84.70 3.29 84.43 3.62Q84.15 3.96 84.00 4.39Q83.84 4.82 83.79 5.28L83.79 5.28ZM103.02 0.98L102.49 3.72Q102.20 3.65 101.80 3.58Q101.41 3.50 101 3.44Q100.59 3.38 100.21 3.36Q99.82 3.34 99.56 3.34L99.56 3.34Q98.94 3.34 98.34 3.40Q97.74 3.46 97.11 3.62L97.11 3.62L97.11 12L94.14 12L94.14 1.46Q95.31 1.03 96.55 0.77Q97.78 0.50 99.44 0.50L99.44 0.50Q99.68 0.50 100.12 0.53Q100.57 0.55 101.07 0.61Q101.58 0.67 102.09 0.76Q102.61 0.84 103.02 0.98L103.02 0.98ZM126.90 12L124.52 12Q123.51 9.53 122.32 7.07Q121.14 4.61 119.77 2.14L119.77 2.14L119.77 12L117.10 12L117.10-2.86L119.48-2.86Q120.15-1.80 120.82-0.56Q121.50 0.67 122.13 1.90Q122.77 3.12 123.31 4.27Q123.85 5.42 124.23 6.29L124.23 6.29L124.23-2.86L126.90-2.86L126.90 12ZM139.33 6.34L139.33 6.34Q139.33 7.68 138.94 8.77Q138.56 9.86 137.86 10.66Q137.17 11.45 136.20 11.88Q135.22 12.31 134.02 12.31L134.02 12.31Q132.82 12.31 131.85 11.88Q130.88 11.45 130.17 10.66Q129.46 9.86 129.08 8.77Q128.70 7.68 128.70 6.34L128.70 6.34Q128.70 5.02 129.09 3.92Q129.49 2.83 130.20 2.05Q130.90 1.27 131.89 0.85Q132.87 0.43 134.02 0.43L134.02 0.43Q135.20 0.43 136.17 0.85Q137.14 1.27 137.85 2.05Q138.56 2.83 138.94 3.92Q139.33 5.02 139.33 6.34ZM131.70 6.36L131.70 6.36Q131.70 7.87 132.24 8.81Q132.78 9.74 133.98 9.74L133.98 9.74Q135.13 9.74 135.72 8.81Q136.30 7.87 136.30 6.36L136.30 6.36Q136.30 4.85 135.76 3.92Q135.22 3 134.02 3L134.02 3Q132.87 3 132.28 3.92Q131.70 4.85 131.70 6.36ZM143.43 7.80L143.43 3.17L140.86 3.17L140.86 0.72L143.43 0.72L143.43-2.11L146.38-2.59L146.38 0.72L151.11 0.72L151.11 3.17L146.38 3.17L146.38 7.73Q146.38 8.35 146.50 8.74Q146.62 9.12 146.84 9.34Q147.06 9.55 147.37 9.62Q147.68 9.70 148.06 9.70L148.06 9.70Q148.47 9.70 148.82 9.67Q149.17 9.65 149.49 9.59Q149.82 9.53 150.16 9.41Q150.51 9.29 150.92 9.10L150.92 9.10L151.33 11.64Q150.51 11.98 149.56 12.12Q148.62 12.26 147.73 12.26L147.73 12.26Q146.70 12.26 145.90 12.10Q145.11 11.93 144.56 11.45Q144.01 10.97 143.72 10.09Q143.43 9.22 143.43 7.80L143.43 7.80ZM152.74 6.46L152.74 6.46Q152.74 4.97 153.20 3.84Q153.66 2.71 154.40 1.96Q155.14 1.20 156.10 0.82Q157.06 0.43 158.07 0.43L158.07 0.43Q160.57 0.43 161.86 1.91Q163.16 3.38 163.16 6.22L163.16 6.22Q163.16 6.50 163.15 6.82Q163.14 7.13 163.11 7.32L163.11 7.32L155.79 7.32Q155.79 8.42 156.70 9.06Q157.62 9.70 159.06 9.70L159.06 9.70Q159.94 9.70 160.75 9.50Q161.55 9.31 162.10 9.12L162.10 9.12L162.51 11.64Q161.74 11.90 160.88 12.08Q160.02 12.26 158.94 12.26L158.94 12.26Q157.50 12.26 156.36 11.89Q155.22 11.52 154.41 10.79Q153.61 10.06 153.18 8.98Q152.74 7.90 152.74 6.46ZM155.79 5.28L160.30 5.28Q160.30 4.82 160.18 4.40Q160.06 3.98 159.80 3.65Q159.54 3.31 159.13 3.11Q158.72 2.90 158.12 2.90L158.12 2.90Q157.54 2.90 157.12 3.10Q156.70 3.29 156.43 3.62Q156.15 3.96 156.00 4.39Q155.84 4.82 155.79 5.28L155.79 5.28ZM172.28 6.29L172.28 6.29Q172.28 4.70 171.76 3.86Q171.25 3.02 170.19 3.02L170.19 3.02Q169.71 3.02 169.24 3.16Q168.78 3.29 168.44 3.48L168.44 3.48L168.44 9.60Q168.78 9.67 169.15 9.70Q169.52 9.72 169.78 9.72L169.78 9.72Q170.94 9.72 171.61 8.94Q172.28 8.16 172.28 6.29ZM175.28 6.36L175.28 6.36Q175.28 7.70 174.92 8.80Q174.56 9.89 173.86 10.66Q173.17 11.42 172.16 11.84Q171.15 12.26 169.86 12.26L169.86 12.26Q168.70 12.26 167.50 12.10Q166.30 11.93 165.49 11.66L165.49 11.66L165.49-4.15L168.44-4.66L168.44 0.98Q169.06 0.70 169.64 0.59Q170.22 0.48 170.79 0.48L170.79 0.48Q171.90 0.48 172.74 0.90Q173.58 1.32 174.14 2.10Q174.70 2.88 174.99 3.96Q175.28 5.04 175.28 6.36ZM187.33 6.34L187.33 6.34Q187.33 7.68 186.94 8.77Q186.56 9.86 185.86 10.66Q185.17 11.45 184.20 11.88Q183.22 12.31 182.02 12.31L182.02 12.31Q180.82 12.31 179.85 11.88Q178.88 11.45 178.17 10.66Q177.46 9.86 177.08 8.77Q176.70 7.68 176.70 6.34L176.70 6.34Q176.70 5.02 177.09 3.92Q177.49 2.83 178.20 2.05Q178.90 1.27 179.89 0.85Q180.87 0.43 182.02 0.43L182.02 0.43Q183.20 0.43 184.17 0.85Q185.14 1.27 185.85 2.05Q186.56 2.83 186.94 3.92Q187.33 5.02 187.33 6.34ZM179.70 6.36L179.70 6.36Q179.70 7.87 180.24 8.81Q180.78 9.74 181.98 9.74L181.98 9.74Q183.13 9.74 183.72 8.81Q184.30 7.87 184.30 6.36L184.30 6.36Q184.30 4.85 183.76 3.92Q183.22 3 182.02 3L182.02 3Q180.87 3 180.28 3.92Q179.70 4.85 179.70 6.36ZM199.33 6.34L199.33 6.34Q199.33 7.68 198.94 8.77Q198.56 9.86 197.86 10.66Q197.17 11.45 196.20 11.88Q195.22 12.31 194.02 12.31L194.02 12.31Q192.82 12.31 191.85 11.88Q190.88 11.45 190.17 10.66Q189.46 9.86 189.08 8.77Q188.70 7.68 188.70 6.34L188.70 6.34Q188.70 5.02 189.09 3.92Q189.49 2.83 190.20 2.05Q190.90 1.27 191.89 0.85Q192.87 0.43 194.02 0.43L194.02 0.43Q195.20 0.43 196.17 0.85Q197.14 1.27 197.85 2.05Q198.56 2.83 198.94 3.92Q199.33 5.02 199.33 6.34ZM191.70 6.36L191.70 6.36Q191.70 7.87 192.24 8.81Q192.78 9.74 193.98 9.74L193.98 9.74Q195.13 9.74 195.72 8.81Q196.30 7.87 196.30 6.36L196.30 6.36Q196.30 4.85 195.76 3.92Q195.22 3 194.02 3L194.02 3Q192.87 3 192.28 3.92Q191.70 4.85 191.70 6.36ZM204.49-4.66L204.49 5.18Q204.92 4.68 205.36 4.12Q205.81 3.55 206.23 2.95Q206.65 2.35 207.03 1.79Q207.42 1.22 207.70 0.72L207.70 0.72L211.26 0.72Q210.82 1.27 210.27 1.92Q209.72 2.57 209.13 3.24Q208.54 3.91 207.96 4.54Q207.37 5.16 206.89 5.69L206.89 5.69Q207.49 6.26 208.18 7.07Q208.88 7.87 209.55 8.74Q210.22 9.60 210.79 10.46Q211.35 11.33 211.69 12L211.69 12L208.30 12Q208.02 11.40 207.55 10.64Q207.08 9.89 206.55 9.16Q206.02 8.42 205.48 7.76Q204.94 7.10 204.49 6.67L204.49 6.67L204.49 12L201.51 12L201.51-4.15L204.49-4.66Z"/>
    </g>
</svg>