<?xml version="1.0" encoding="UTF-8"?>
<svg height="34" width="78.4" version="1.1" xmlns="http://www.w3.org/2000/svg">
    <rect
        height="32"
        width="76.4"
        rx="14"
        ry="14"
        x="1"
        y="1"
        fill="#c6538c"
        stroke="#602040"
        stroke-width="1"
         />
    <g transform="translate(0, 14)">
        <path fill="#602040" d="M16.50 8.48L16.50 8.48Q17.36 8.48 17.94 8.30Q18.51 8.12 18.85 7.79Q19.18 7.47 19.31 7.07Q19.44 6.66 19.44 6.24L19.44 6.24Q19.44 5.71 19.13 5.29Q18.82 4.87 18.34 4.55Q17.87 4.22 17.28 3.96Q16.69 3.69 16.10 3.47L16.10 3.47Q15.32 3.19 14.48 2.82Q13.64 2.46 12.95 1.90Q12.27 1.34 11.82 0.51Q11.37-0.31 11.37-1.54L11.37-1.54Q11.37-3.98 12.95-5.35Q14.54-6.72 17.31-6.72L17.31-6.72Q18.90-6.72 20.09-6.36Q21.28-6.00 22.10-5.55L22.10-5.55L21.09-2.89Q20.39-3.28 19.53-3.56Q18.68-3.84 17.56-3.84L17.56-3.84Q14.82-3.84 14.82-1.85L14.82-1.85Q14.82-1.35 15.10-0.97Q15.38-0.59 15.81-0.30Q16.24-0.00 16.79 0.22Q17.34 0.44 17.87 0.64L17.87 0.64Q18.68 0.95 19.56 1.33Q20.44 1.70 21.19 2.33Q21.93 2.96 22.40 3.90Q22.88 4.84 22.88 6.27L22.88 6.27Q22.88 8.70 21.30 10.03Q19.72 11.36 16.50 11.36L16.50 11.36Q14.34 11.36 13.05 10.90Q11.76 10.44 11.12 10.05L11.12 10.05L12.13 7.25Q12.88 7.70 13.93 8.09Q14.98 8.48 16.50 8.48ZM32.29 11.36L32.29 11.36Q28.62 11.36 26.69 9.01Q24.76 6.66 24.76 2.32L24.76 2.32Q24.76 0.16 25.34-1.52Q25.93-3.20 26.98-4.36Q28.03-5.52 29.47-6.12Q30.92-6.72 32.62-6.72L32.62-6.72Q33.55-6.72 34.29-6.57Q35.03-6.42 35.59-6.22Q36.15-6.02 36.53-5.80Q36.91-5.58 37.10-5.46L37.10-5.46L36.21-2.72Q35.56-3.14 34.65-3.43Q33.74-3.73 32.57-3.73L32.57-3.73Q31.76-3.73 30.99-3.43Q30.22-3.14 29.61-2.45Q29.01-1.77 28.63-0.62Q28.26 0.53 28.26 2.24L28.26 2.24Q28.26 5.20 29.28 6.79Q30.30 8.37 32.62 8.37L32.62 8.37Q33.97 8.37 34.85 8.06Q35.73 7.75 36.26 7.44L36.26 7.44L37.13 10.16Q36.40 10.61 35.16 10.99Q33.91 11.36 32.29 11.36ZM44.50 8.48L44.50 8.48Q45.36 8.48 45.94 8.30Q46.51 8.12 46.85 7.79Q47.18 7.47 47.31 7.07Q47.44 6.66 47.44 6.24L47.44 6.24Q47.44 5.71 47.13 5.29Q46.82 4.87 46.34 4.55Q45.87 4.22 45.28 3.96Q44.69 3.69 44.10 3.47L44.10 3.47Q43.32 3.19 42.48 2.82Q41.64 2.46 40.95 1.90Q40.27 1.34 39.82 0.51Q39.37-0.31 39.37-1.54L39.37-1.54Q39.37-3.98 40.95-5.35Q42.54-6.72 45.31-6.72L45.31-6.72Q46.90-6.72 48.09-6.36Q49.28-6.00 50.10-5.55L50.10-5.55L49.09-2.89Q48.39-3.28 47.53-3.56Q46.68-3.84 45.56-3.84L45.56-3.84Q42.82-3.84 42.82-1.85L42.82-1.85Q42.82-1.35 43.10-0.97Q43.38-0.59 43.81-0.30Q44.24-0.00 44.79 0.22Q45.34 0.44 45.87 0.64L45.87 0.64Q46.68 0.95 47.56 1.33Q48.44 1.70 49.19 2.33Q49.93 2.96 50.40 3.90Q50.88 4.84 50.88 6.27L50.88 6.27Q50.88 8.70 49.30 10.03Q47.72 11.36 44.50 11.36L44.50 11.36Q42.34 11.36 41.05 10.90Q39.76 10.44 39.12 10.05L39.12 10.05L40.13 7.25Q40.88 7.70 41.93 8.09Q42.98 8.48 44.50 8.48ZM58.50 8.48L58.50 8.48Q59.36 8.48 59.94 8.30Q60.51 8.12 60.85 7.79Q61.18 7.47 61.31 7.07Q61.44 6.66 61.44 6.24L61.44 6.24Q61.44 5.71 61.13 5.29Q60.82 4.87 60.34 4.55Q59.87 4.22 59.28 3.96Q58.69 3.69 58.10 3.47L58.10 3.47Q57.32 3.19 56.48 2.82Q55.64 2.46 54.95 1.90Q54.27 1.34 53.82 0.51Q53.37-0.31 53.37-1.54L53.37-1.54Q53.37-3.98 54.95-5.35Q56.54-6.72 59.31-6.72L59.31-6.72Q60.90-6.72 62.09-6.36Q63.28-6.00 64.10-5.55L64.10-5.55L63.09-2.89Q62.39-3.28 61.53-3.56Q60.68-3.84 59.56-3.84L59.56-3.84Q56.82-3.84 56.82-1.85L56.82-1.85Q56.82-1.35 57.10-0.97Q57.38-0.59 57.81-0.30Q58.24-0.00 58.79 0.22Q59.34 0.44 59.87 0.64L59.87 0.64Q60.68 0.95 61.56 1.33Q62.44 1.70 63.19 2.33Q63.93 2.96 64.40 3.90Q64.88 4.84 64.88 6.27L64.88 6.27Q64.88 8.70 63.30 10.03Q61.72 11.36 58.50 11.36L58.50 11.36Q56.34 11.36 55.05 10.90Q53.76 10.44 53.12 10.05L53.12 10.05L54.13 7.25Q54.88 7.70 55.93 8.09Q56.98 8.48 58.50 8.48Z"/>
    </g>
</svg>