<?xml version="1.0" encoding="UTF-8"?>
<svg height="26" width="114.89999999999999" version="1.1" xmlns="http://www.w3.org/2000/svg"><!--Created by Josélio de S. C. Júnior - 2021 - https://github.com/joseliojunior -->
    <rect
        height="24"
        width="112.89999999999999"
        rx="12"
        ry="12"
        x="1" y="1"
        fill="#ff0000"
        stroke="#660000"
        stroke-width="1" />
    <g transform="translate(0, 8)">
        <path fill="#660000" stroke="none" d="M27.86 10L25.74 10L25.28 7.71L22.64 7.71L22.19 10L20.14 10Q20.85 7.07 21.57 4.66Q22.29 2.26 22.96 0.10L22.96 0.10L25.10 0.10Q25.81 2.27 26.50 4.71Q27.20 7.15 27.86 10L27.86 10ZM23.98 2.02L23.98 2.02Q23.82 2.58 23.69 3.08Q23.55 3.58 23.43 4.07Q23.31 4.56 23.21 5.06Q23.10 5.55 23.01 6.08L23.01 6.08L24.94 6.08Q24.85 5.55 24.75 5.06Q24.66 4.56 24.54 4.07Q24.42 3.58 24.28 3.08Q24.14 2.58 23.98 2.02ZM31.65 8.51L31.65 8.51Q32.37 8.51 32.75 8.41Q33.14 8.30 33.14 7.98L33.14 7.98Q33.14 7.78 33.02 7.63Q32.90 7.49 32.68 7.38Q32.46 7.28 32.18 7.18Q31.90 7.09 31.60 6.99L31.60 6.99Q31.17 6.86 30.72 6.70Q30.27 6.53 29.90 6.27Q29.54 6.02 29.30 5.62Q29.06 5.23 29.06 4.64L29.06 4.64Q29.06 4.16 29.24 3.74Q29.42 3.31 29.82 2.98Q30.21 2.66 30.82 2.47Q31.42 2.29 32.27 2.29L32.27 2.29Q33.01 2.29 33.64 2.40Q34.27 2.51 34.74 2.72L34.74 2.72L34.43 4.38Q34.16 4.30 33.58 4.12Q33.01 3.94 32.29 3.94L32.29 3.94Q31.54 3.94 31.27 4.12Q31.01 4.30 31.01 4.51L31.01 4.51Q31.01 4.69 31.13 4.82Q31.25 4.96 31.45 5.07Q31.65 5.18 31.91 5.29Q32.18 5.39 32.48 5.49L32.48 5.49Q32.91 5.63 33.38 5.81Q33.84 5.98 34.22 6.25Q34.59 6.51 34.83 6.92Q35.07 7.33 35.07 7.92L35.07 7.92Q35.07 8.38 34.90 8.80Q34.72 9.22 34.31 9.52Q33.90 9.82 33.25 10Q32.59 10.18 31.63 10.18L31.63 10.18Q30.66 10.18 29.97 9.95Q29.28 9.73 28.86 9.55L28.86 9.55L29.17 7.90Q29.73 8.13 30.36 8.32Q30.99 8.51 31.65 8.51ZM41.54 2.48L43.55 2.48Q43.25 3.54 42.97 4.55Q42.69 5.57 42.38 6.54Q42.08 7.50 41.74 8.43Q41.39 9.36 40.99 10.24L40.99 10.24Q40.69 10.88 40.39 11.34Q40.10 11.81 39.74 12.10Q39.38 12.40 38.94 12.54Q38.50 12.69 37.90 12.69L37.90 12.69Q37.41 12.69 37 12.61Q36.59 12.53 36.32 12.40L36.32 12.40L36.69 10.75Q37.01 10.90 37.26 10.95Q37.50 11.01 37.79 11.01L37.79 11.01Q38.37 11.01 38.72 10.62Q39.07 10.24 39.28 9.71L39.28 9.71Q38.58 8.30 37.87 6.49Q37.17 4.67 36.59 2.48L36.59 2.48L38.64 2.48Q38.78 3.07 38.97 3.74Q39.15 4.42 39.36 5.09Q39.57 5.76 39.80 6.41Q40.03 7.06 40.27 7.62L40.27 7.62Q40.43 7.06 40.61 6.41Q40.78 5.76 40.94 5.10Q41.10 4.43 41.26 3.76Q41.41 3.09 41.54 2.48L41.54 2.48ZM49.49 2.40L49.49 2.40Q50.11 2.40 50.51 2.59Q50.91 2.78 51.14 3.17Q51.38 3.55 51.46 4.14Q51.54 4.72 51.54 5.50L51.54 5.50L51.54 10L49.94 10L49.94 5.41Q49.94 4.96 49.88 4.69Q49.82 4.42 49.74 4.27Q49.65 4.13 49.53 4.08Q49.41 4.03 49.28 4.03L49.28 4.03Q49.14 4.03 48.98 4.06Q48.82 4.08 48.69 4.14L48.69 4.14Q48.74 4.45 48.77 4.82Q48.80 5.18 48.80 5.63L48.80 5.63L48.80 7.14L47.20 7.14L47.20 5.41Q47.20 4.64 47.05 4.34Q46.90 4.03 46.56 4.03L46.56 4.03Q46.46 4.03 46.33 4.05Q46.19 4.06 46.06 4.10L46.06 4.10L46.06 10L44.46 10L44.46 2.77Q45.09 2.59 45.70 2.50Q46.30 2.40 46.77 2.40L46.77 2.40Q47.18 2.40 47.51 2.50Q47.84 2.61 48.08 2.85L48.08 2.85Q48.35 2.67 48.72 2.54Q49.09 2.40 49.49 2.40ZM57.50 6.30L57.50 6.30Q57.50 5.30 57.10 4.65Q56.70 4 55.89 4L55.89 4Q55.66 4 55.41 4.02Q55.15 4.05 54.98 4.06L54.98 4.06L54.98 8.19Q55.17 8.32 55.49 8.40Q55.81 8.48 56.13 8.48L56.13 8.48Q56.83 8.48 57.17 7.91Q57.50 7.34 57.50 6.30ZM59.50 6.24L59.50 6.24Q59.50 7.10 59.31 7.83Q59.12 8.56 58.75 9.08Q58.38 9.60 57.82 9.89Q57.26 10.18 56.53 10.18L56.53 10.18Q55.78 10.18 54.98 9.81L54.98 9.81L54.98 12.64L53.01 12.64L53.01 2.72Q53.55 2.54 54.34 2.43Q55.14 2.32 55.90 2.32L55.90 2.32Q57.65 2.32 58.58 3.38Q59.50 4.43 59.50 6.24ZM62.29 7.20L62.29 4.11L60.58 4.11L60.58 2.48L62.29 2.48L62.29 0.59L64.26 0.27L64.26 2.48L67.41 2.48L67.41 4.11L64.26 4.11L64.26 7.15Q64.26 7.57 64.34 7.82Q64.42 8.08 64.56 8.22Q64.70 8.37 64.91 8.42Q65.12 8.46 65.38 8.46L65.38 8.46Q65.65 8.46 65.88 8.45Q66.11 8.43 66.33 8.39Q66.54 8.35 66.78 8.27Q67.01 8.19 67.28 8.06L67.28 8.06L67.55 9.76Q67.01 9.98 66.38 10.08Q65.74 10.18 65.15 10.18L65.15 10.18Q64.46 10.18 63.94 10.06Q63.41 9.95 63.04 9.63Q62.67 9.31 62.48 8.73Q62.29 8.14 62.29 7.20L62.29 7.20ZM75.55 6.22L75.55 6.22Q75.55 7.12 75.30 7.85Q75.04 8.58 74.58 9.10Q74.11 9.63 73.46 9.92Q72.82 10.21 72.02 10.21L72.02 10.21Q71.22 10.21 70.57 9.92Q69.92 9.63 69.45 9.10Q68.98 8.58 68.72 7.85Q68.46 7.12 68.46 6.22L68.46 6.22Q68.46 5.34 68.73 4.62Q68.99 3.89 69.46 3.37Q69.94 2.85 70.59 2.57Q71.25 2.29 72.02 2.29L72.02 2.29Q72.80 2.29 73.45 2.57Q74.10 2.85 74.57 3.37Q75.04 3.89 75.30 4.62Q75.55 5.34 75.55 6.22ZM70.46 6.24L70.46 6.24Q70.46 7.25 70.82 7.87Q71.18 8.50 71.98 8.50L71.98 8.50Q72.75 8.50 73.14 7.87Q73.54 7.25 73.54 6.24L73.54 6.24Q73.54 5.23 73.18 4.62Q72.82 4 72.02 4L72.02 4Q71.25 4 70.86 4.62Q70.46 5.23 70.46 6.24ZM78.29 7.20L78.29 4.11L76.58 4.11L76.58 2.48L78.29 2.48L78.29 0.59L80.26 0.27L80.26 2.48L83.41 2.48L83.41 4.11L80.26 4.11L80.26 7.15Q80.26 7.57 80.34 7.82Q80.42 8.08 80.56 8.22Q80.70 8.37 80.91 8.42Q81.12 8.46 81.38 8.46L81.38 8.46Q81.65 8.46 81.88 8.45Q82.11 8.43 82.33 8.39Q82.54 8.35 82.78 8.27Q83.01 8.19 83.28 8.06L83.28 8.06L83.55 9.76Q83.01 9.98 82.38 10.08Q81.74 10.18 81.15 10.18L81.15 10.18Q80.46 10.18 79.94 10.06Q79.41 9.95 79.04 9.63Q78.67 9.31 78.48 8.73Q78.29 8.14 78.29 7.20L78.29 7.20ZM84.50 6.30L84.50 6.30Q84.50 5.31 84.80 4.56Q85.10 3.81 85.60 3.30Q86.10 2.80 86.74 2.54Q87.38 2.29 88.05 2.29L88.05 2.29Q89.71 2.29 90.58 3.27Q91.44 4.26 91.44 6.14L91.44 6.14Q91.44 6.34 91.43 6.54Q91.42 6.75 91.41 6.88L91.41 6.88L86.53 6.88Q86.53 7.62 87.14 8.04Q87.74 8.46 88.70 8.46L88.70 8.46Q89.30 8.46 89.83 8.34Q90.37 8.21 90.74 8.08L90.74 8.08L91.01 9.76Q90.50 9.94 89.92 10.06Q89.34 10.18 88.62 10.18L88.62 10.18Q87.66 10.18 86.90 9.93Q86.14 9.68 85.61 9.19Q85.07 8.70 84.78 7.98Q84.50 7.26 84.50 6.30ZM86.53 5.52L89.54 5.52Q89.54 5.22 89.46 4.94Q89.38 4.66 89.20 4.43Q89.02 4.21 88.75 4.07Q88.48 3.94 88.08 3.94L88.08 3.94Q87.70 3.94 87.42 4.06Q87.14 4.19 86.95 4.42Q86.77 4.64 86.66 4.93Q86.56 5.22 86.53 5.52L86.53 5.52Z"/>
    </g>
</svg>