<?xml version="1.0" encoding="UTF-8"?>
<svg height="34" width="102.5" version="1.1" xmlns="http://www.w3.org/2000/svg"><!--Created by Josélio de S. C. Júnior - 2021 - https://github.com/joseliojunior -->
    <defs>
        <pattern id="pattern"
                x="3" y="3" width="6" height="6"
                patternUnits="userSpaceOnUse"
                patternTransform="rotate(45)" >
            <rect height="6" width="6"
                fill="#ffffff"/>
            <line x1="0" y1="0" x2="0" y2="6"
                stroke="#bbbbbb"
                stroke-width="2" />
        </pattern>
    </defs>
    <rect
        height="32"
        width="100.5"
        rx="16"
        ry="16"
        x="1" y="1"
        fill="url(#pattern)" />
    <g transform="translate(0, 12)">
        <path fill="#000000" d="M27.10 12.31L27.10 12.31Q23.96 12.31 22.30 10.30Q20.65 8.28 20.65 4.56L20.65 4.56Q20.65 2.71 21.15 1.27Q21.66-0.17 22.56-1.16Q23.46-2.16 24.69-2.68Q25.93-3.19 27.39-3.19L27.39-3.19Q28.18-3.19 28.82-3.06Q29.46-2.93 29.94-2.76Q30.42-2.59 30.74-2.40Q31.06-2.21 31.23-2.11L31.23-2.11L30.46 0.24Q29.91-0.12 29.13-0.37Q28.35-0.62 27.34-0.62L27.34-0.62Q26.65-0.62 25.99-0.37Q25.33-0.12 24.81 0.47Q24.30 1.06 23.97 2.04Q23.65 3.02 23.65 4.49L23.65 4.49Q23.65 7.03 24.52 8.39Q25.40 9.74 27.39 9.74L27.39 9.74Q28.54 9.74 29.30 9.48Q30.06 9.22 30.51 8.95L30.51 8.95L31.26 11.28Q30.63 11.66 29.56 11.99Q28.50 12.31 27.10 12.31ZM35.65 4.56L35.65 4.56Q35.65 5.64 35.73 6.59Q35.82 7.54 36.07 8.23Q36.32 8.93 36.78 9.34Q37.23 9.74 38 9.74L38 9.74Q38.74 9.74 39.21 9.34Q39.68 8.93 39.93 8.22Q40.18 7.51 40.27 6.58Q40.35 5.64 40.35 4.56L40.35 4.56Q40.35 3.48 40.27 2.53Q40.18 1.58 39.93 0.89Q39.68 0.19 39.22-0.22Q38.77-0.62 38-0.62L38-0.62Q37.23-0.62 36.78-0.22Q36.32 0.19 36.07 0.90Q35.82 1.61 35.73 2.54Q35.65 3.48 35.65 4.56ZM32.65 4.56L32.65 4.56Q32.65 0.72 34.06-1.24Q35.48-3.19 38-3.19L38-3.19Q40.62-3.19 41.98-1.24Q43.35 0.72 43.35 4.56L43.35 4.56Q43.35 8.40 41.96 10.36Q40.57 12.31 38.02 12.31L38.02 12.31Q35.41 12.31 34.03 10.36Q32.65 8.40 32.65 4.56ZM55.26 7.51L55.26 7.51Q55.26 8.86 54.80 9.76Q54.34 10.66 53.56 11.20Q52.78 11.74 51.72 11.96Q50.65 12.19 49.42 12.19L49.42 12.19Q48.44 12.19 47.38 12.08Q46.33 11.98 45.30 11.76L45.30 11.76L45.30-2.66Q46.14-2.81 47.14-2.92Q48.15-3.02 49.14-3.02L49.14-3.02Q50.82-3.02 51.87-2.68Q52.93-2.33 53.53-1.76Q54.13-1.20 54.34-0.50Q54.56 0.19 54.56 0.89L54.56 0.89Q54.56 1.94 54.04 2.76Q53.53 3.58 52.66 4.06L52.66 4.06Q54.18 4.61 54.72 5.54Q55.26 6.48 55.26 7.51ZM49.83 5.50L48.25 5.50L48.25 9.53Q48.56 9.58 48.93 9.60Q49.30 9.62 49.66 9.62L49.66 9.62Q50.17 9.62 50.65 9.54Q51.13 9.46 51.50 9.23Q51.87 9 52.11 8.58Q52.35 8.16 52.35 7.51L52.35 7.51Q52.35 6.43 51.67 5.96Q50.98 5.50 49.83 5.50L49.83 5.50ZM48.25 3.05L49.40 3.05Q50.53 3.05 51.10 2.56Q51.68 2.06 51.68 1.20L51.68 1.20Q51.68 0.67 51.51 0.35Q51.34 0.02 51.06-0.16Q50.77-0.34 50.38-0.40Q50-0.46 49.59-0.46L49.59-0.46Q49.26-0.46 48.90-0.43Q48.54-0.41 48.25-0.36L48.25-0.36L48.25 3.05ZM59.65 4.56L59.65 4.56Q59.65 5.64 59.73 6.59Q59.82 7.54 60.07 8.23Q60.32 8.93 60.78 9.34Q61.23 9.74 62 9.74L62 9.74Q62.74 9.74 63.21 9.34Q63.68 8.93 63.93 8.22Q64.18 7.51 64.27 6.58Q64.35 5.64 64.35 4.56L64.35 4.56Q64.35 3.48 64.27 2.53Q64.18 1.58 63.93 0.89Q63.68 0.19 63.22-0.22Q62.77-0.62 62-0.62L62-0.62Q61.23-0.62 60.78-0.22Q60.32 0.19 60.07 0.90Q59.82 1.61 59.73 2.54Q59.65 3.48 59.65 4.56ZM56.65 4.56L56.65 4.56Q56.65 0.72 58.06-1.24Q59.48-3.19 62-3.19L62-3.19Q64.62-3.19 65.98-1.24Q67.35 0.72 67.35 4.56L67.35 4.56Q67.35 8.40 65.96 10.36Q64.57 12.31 62.02 12.31L62.02 12.31Q59.41 12.31 58.03 10.36Q56.65 8.40 56.65 4.56ZM79.04 9.55L79.04 12L69.70 12L69.70-2.86L72.68-2.86L72.68 9.55L79.04 9.55Z"/>
    </g>
</svg>