<?xml version="1.0" encoding="UTF-8"?>
<svg height="26" width="82.5" version="1.1" xmlns="http://www.w3.org/2000/svg"><!--Created by Josélio de S. C. Júnior - 2021 - https://github.com/joseliojunior -->
    <defs>
        <pattern id="pattern"
                x="3" y="3" width="6" height="6"
                patternUnits="userSpaceOnUse"
                patternTransform="rotate(45)" >
            <rect height="6" width="6"
                fill="#ffffff"/>
            <line x1="0" y1="0" x2="0" y2="6"
                stroke="#888888"
                stroke-width="2" />
        </pattern>
    </defs>
    <rect
        height="24"
        width="80.5"
        rx="1"
        ry="1"
        x="1" y="1"
        fill="url(#pattern)"
        stroke="#000000"
        stroke-width="1" />
    <g transform="translate(0, 8)">
        <path fill="#ffffff" stroke="#000000" d="M24.74 10.21L24.74 10.21Q22.64 10.21 21.54 8.86Q20.43 7.52 20.43 5.04L20.43 5.04Q20.43 3.81 20.77 2.85Q21.10 1.89 21.70 1.22Q22.30 0.56 23.13 0.22Q23.95-0.13 24.93-0.13L24.93-0.13Q25.46-0.13 25.88-0.04Q26.30 0.05 26.62 0.16Q26.94 0.27 27.16 0.40Q27.38 0.53 27.49 0.59L27.49 0.59L26.98 2.16Q26.61 1.92 26.09 1.75Q25.57 1.58 24.90 1.58L24.90 1.58Q24.43 1.58 23.99 1.75Q23.55 1.92 23.21 2.31Q22.86 2.70 22.65 3.36Q22.43 4.02 22.43 4.99L22.43 4.99Q22.43 6.69 23.02 7.59Q23.60 8.50 24.93 8.50L24.93 8.50Q25.70 8.50 26.20 8.32Q26.70 8.14 27.01 7.97L27.01 7.97L27.50 9.52Q27.09 9.78 26.38 9.99Q25.66 10.21 24.74 10.21ZM30.43 5.04L30.43 5.04Q30.43 5.76 30.49 6.39Q30.54 7.02 30.71 7.49Q30.88 7.95 31.18 8.22Q31.49 8.50 32 8.50L32 8.50Q32.50 8.50 32.81 8.22Q33.12 7.95 33.29 7.48Q33.46 7.01 33.51 6.38Q33.57 5.76 33.57 5.04L33.57 5.04Q33.57 4.32 33.51 3.69Q33.46 3.06 33.29 2.59Q33.12 2.13 32.82 1.86Q32.51 1.58 32 1.58L32 1.58Q31.49 1.58 31.18 1.86Q30.88 2.13 30.71 2.60Q30.54 3.07 30.49 3.70Q30.43 4.32 30.43 5.04ZM28.43 5.04L28.43 5.04Q28.43 2.48 29.38 1.18Q30.32-0.13 32-0.13L32-0.13Q33.74-0.13 34.66 1.18Q35.57 2.48 35.57 5.04L35.57 5.04Q35.57 7.60 34.64 8.90Q33.71 10.21 32.02 10.21L32.02 10.21Q30.27 10.21 29.35 8.90Q28.43 7.60 28.43 5.04ZM43.50 7.01L43.50 7.01Q43.50 7.90 43.20 8.50Q42.90 9.10 42.38 9.46Q41.86 9.82 41.14 9.98Q40.43 10.13 39.62 10.13L39.62 10.13Q38.96 10.13 38.26 10.06Q37.55 9.98 36.86 9.84L36.86 9.84L36.86 0.22Q37.42 0.13 38.10 0.06Q38.77-0.02 39.42-0.02L39.42-0.02Q40.54-0.02 41.25 0.22Q41.95 0.45 42.35 0.82Q42.75 1.20 42.90 1.66Q43.04 2.13 43.04 2.59L43.04 2.59Q43.04 3.30 42.70 3.84Q42.35 4.38 41.78 4.70L41.78 4.70Q42.78 5.07 43.14 5.70Q43.50 6.32 43.50 7.01ZM39.89 5.66L38.83 5.66L38.83 8.35Q39.04 8.38 39.29 8.40Q39.54 8.42 39.78 8.42L39.78 8.42Q40.11 8.42 40.43 8.36Q40.75 8.30 41 8.15Q41.25 8 41.41 7.72Q41.57 7.44 41.57 7.01L41.57 7.01Q41.57 6.29 41.11 5.98Q40.66 5.66 39.89 5.66L39.89 5.66ZM38.83 4.03L39.60 4.03Q40.35 4.03 40.74 3.70Q41.12 3.38 41.12 2.80L41.12 2.80Q41.12 2.45 41.01 2.23Q40.90 2.02 40.70 1.90Q40.51 1.78 40.26 1.74Q40 1.70 39.73 1.70L39.73 1.70Q39.50 1.70 39.26 1.71Q39.02 1.73 38.83 1.76L38.83 1.76L38.83 4.03ZM46.43 5.04L46.43 5.04Q46.43 5.76 46.49 6.39Q46.54 7.02 46.71 7.49Q46.88 7.95 47.18 8.22Q47.49 8.50 48 8.50L48 8.50Q48.50 8.50 48.81 8.22Q49.12 7.95 49.29 7.48Q49.46 7.01 49.51 6.38Q49.57 5.76 49.57 5.04L49.57 5.04Q49.57 4.32 49.51 3.69Q49.46 3.06 49.29 2.59Q49.12 2.13 48.82 1.86Q48.51 1.58 48 1.58L48 1.58Q47.49 1.58 47.18 1.86Q46.88 2.13 46.71 2.60Q46.54 3.07 46.49 3.70Q46.43 4.32 46.43 5.04ZM44.43 5.04L44.43 5.04Q44.43 2.48 45.38 1.18Q46.32-0.13 48-0.13L48-0.13Q49.74-0.13 50.66 1.18Q51.57 2.48 51.57 5.04L51.57 5.04Q51.57 7.60 50.64 8.90Q49.71 10.21 48.02 10.21L48.02 10.21Q46.27 10.21 45.35 8.90Q44.43 7.60 44.43 5.04ZM59.36 8.37L59.36 10L53.14 10L53.14 0.10L55.12 0.10L55.12 8.37L59.36 8.37Z"/>
    </g>
</svg>