<?xml version="1.0" encoding="UTF-8"?>
<svg height="26" width="66.3" version="1.1" xmlns="http://www.w3.org/2000/svg"><!--Created by Josélio de S. C. Júnior - 2021 - https://github.com/joseliojunior -->
    <defs>
        <pattern id="pattern"
                x="3" y="3" width="6" height="6"
                patternUnits="userSpaceOnUse"
                patternTransform="rotate(45)" >
            <rect height="6" width="6"
                fill="#ffffff"/>
            <line x1="0" y1="0" x2="0" y2="6"
                stroke="#888888"
                stroke-width="2" />
        </pattern>
    </defs>
    <rect
        height="24"
        width="64.3"
        rx="12"
        ry="12"
        x="1" y="1"
        fill="url(#pattern)"
        stroke="#000000"
        stroke-width="1" />
    <g transform="translate(0, 8)">
        <path fill="#ffffff" stroke="#000000" d="M23.42-0.02L23.42-0.02Q24.27-0.02 24.96 0.18Q25.65 0.37 26.14 0.77Q26.64 1.17 26.90 1.78Q27.17 2.40 27.17 3.23L27.17 3.23Q27.17 4.10 26.82 4.80Q26.46 5.50 25.65 5.87L25.65 5.87Q25.92 6.29 26.22 6.79Q26.53 7.30 26.82 7.85Q27.10 8.40 27.37 8.95Q27.63 9.50 27.82 10L27.82 10L25.76 10Q25.39 9.04 24.90 8.15Q24.42 7.26 23.86 6.35L23.86 6.35L22.83 6.35L22.83 10L20.86 10L20.86 0.24Q21.15 0.18 21.50 0.12Q21.84 0.06 22.19 0.04Q22.54 0.02 22.86 0Q23.18-0.02 23.42-0.02ZM25.17 3.22L25.17 3.22Q25.17 2.43 24.69 2.06Q24.21 1.70 23.42 1.70L23.42 1.70Q23.31 1.70 23.15 1.70Q22.99 1.71 22.83 1.74L22.83 1.74L22.83 4.72L23.26 4.72Q24.27 4.72 24.72 4.33Q25.17 3.94 25.17 3.22ZM31.58-0.02L31.58-0.02Q33.47-0.02 34.51 0.76Q35.55 1.54 35.55 3.30L35.55 3.30Q35.55 5.07 34.50 5.86Q33.46 6.66 31.54 6.66L31.54 6.66L30.83 6.66L30.83 10L28.86 10L28.86 0.22Q29.15 0.16 29.51 0.11Q29.87 0.06 30.24 0.04Q30.61 0.02 30.96 0Q31.31-0.02 31.58-0.02ZM31.81 1.70L31.81 1.70Q31.63 1.70 31.32 1.70Q31.01 1.71 30.83 1.74L30.83 1.74L30.83 4.94L31.63 4.94Q32.58 4.94 33.06 4.57Q33.54 4.19 33.54 3.28L33.54 3.28Q33.54 2.42 33.06 2.06Q32.59 1.70 31.81 1.70ZM40.74 10.21L40.74 10.21Q38.64 10.21 37.54 8.86Q36.43 7.52 36.43 5.04L36.43 5.04Q36.43 3.81 36.77 2.85Q37.10 1.89 37.70 1.22Q38.30 0.56 39.13 0.22Q39.95-0.13 40.93-0.13L40.93-0.13Q41.46-0.13 41.88-0.04Q42.30 0.05 42.62 0.16Q42.94 0.27 43.16 0.40Q43.38 0.53 43.49 0.59L43.49 0.59L42.98 2.16Q42.61 1.92 42.09 1.75Q41.57 1.58 40.90 1.58L40.90 1.58Q40.43 1.58 39.99 1.75Q39.55 1.92 39.21 2.31Q38.86 2.70 38.65 3.36Q38.43 4.02 38.43 4.99L38.43 4.99Q38.43 6.69 39.02 7.59Q39.60 8.50 40.93 8.50L40.93 8.50Q41.70 8.50 42.20 8.32Q42.70 8.14 43.01 7.97L43.01 7.97L43.50 9.52Q43.09 9.78 42.38 9.99Q41.66 10.21 40.74 10.21Z"/>
    </g>
</svg>