<?xml version="1.0" encoding="UTF-8"?>
<svg height="26" width="90.6" version="1.1" xmlns="http://www.w3.org/2000/svg"><!--Created by Josélio de S. C. Júnior - 2021 - https://github.com/joseliojunior -->
    <rect
        height="24"
        width="88.6"
        rx="12"
        ry="12"
        x="1" y="1"
        fill="#1e4aec"
        stroke="#091d67"
        stroke-width="1" />
    <g transform="translate(0, 8)">
        <path fill="#091d67" d="M23.71 8.56L23.71 8.56Q24.21 8.56 24.54 8.46Q24.86 8.35 25.06 8.17Q25.25 7.98 25.32 7.75Q25.39 7.52 25.39 7.28L25.39 7.28Q25.39 6.98 25.22 6.74Q25.04 6.50 24.77 6.31Q24.50 6.13 24.16 5.98Q23.82 5.82 23.49 5.70L23.49 5.70Q23.04 5.54 22.56 5.33Q22.08 5.12 21.69 4.80Q21.30 4.48 21.04 4.01Q20.78 3.54 20.78 2.83L20.78 2.83Q20.78 1.44 21.69 0.66Q22.59-0.13 24.18-0.13L24.18-0.13Q25.09-0.13 25.77 0.08Q26.45 0.29 26.91 0.54L26.91 0.54L26.34 2.06Q25.94 1.84 25.45 1.68Q24.96 1.52 24.32 1.52L24.32 1.52Q22.75 1.52 22.75 2.66L22.75 2.66Q22.75 2.94 22.91 3.16Q23.07 3.38 23.32 3.54Q23.57 3.71 23.88 3.84Q24.19 3.97 24.50 4.08L24.50 4.08Q24.96 4.26 25.46 4.47Q25.97 4.69 26.39 5.05Q26.82 5.41 27.09 5.94Q27.36 6.48 27.36 7.30L27.36 7.30Q27.36 8.69 26.46 9.45Q25.55 10.21 23.71 10.21L23.71 10.21Q22.48 10.21 21.74 9.94Q21.01 9.68 20.64 9.46L20.64 9.46L21.22 7.86Q21.65 8.11 22.25 8.34Q22.85 8.56 23.71 8.56ZM28.70 6.24L28.70 6.24Q28.70 5.42 28.96 4.70Q29.22 3.98 29.74 3.45Q30.27 2.91 31.08 2.60Q31.89 2.29 33.01 2.29L33.01 2.29Q33.68 2.29 34.22 2.38Q34.77 2.48 35.33 2.70L35.33 2.70L34.90 4.29Q34.58 4.18 34.18 4.09Q33.79 4 33.18 4L33.18 4Q32.48 4 32.01 4.17Q31.54 4.34 31.25 4.63Q30.96 4.93 30.83 5.34Q30.70 5.76 30.70 6.24L30.70 6.24Q30.70 7.28 31.29 7.87Q31.87 8.46 33.28 8.46L33.28 8.46Q33.74 8.46 34.25 8.40Q34.75 8.34 35.17 8.19L35.17 8.19L35.46 9.81Q35.04 9.97 34.45 10.07Q33.86 10.18 33.06 10.18L33.06 10.18Q31.90 10.18 31.08 9.87Q30.26 9.57 29.73 9.04Q29.20 8.51 28.95 7.79Q28.70 7.07 28.70 6.24ZM38.98 10L37.01 10L37.01-0.77L38.98-1.10L38.98 2.54Q39.22 2.46 39.55 2.39Q39.89 2.32 40.14 2.32L40.14 2.32Q40.98 2.32 41.54 2.57Q42.10 2.82 42.43 3.27Q42.77 3.73 42.91 4.36Q43.06 4.99 43.06 5.76L43.06 5.76L43.06 10L41.09 10L41.09 6.02Q41.09 4.96 40.85 4.50Q40.61 4.03 39.94 4.03L39.94 4.03Q39.66 4.03 39.40 4.10Q39.14 4.16 38.98 4.21L38.98 4.21L38.98 10ZM44.50 6.30L44.50 6.30Q44.50 5.31 44.80 4.56Q45.10 3.81 45.60 3.30Q46.10 2.80 46.74 2.54Q47.38 2.29 48.05 2.29L48.05 2.29Q49.71 2.29 50.58 3.27Q51.44 4.26 51.44 6.14L51.44 6.14Q51.44 6.34 51.43 6.54Q51.42 6.75 51.41 6.88L51.41 6.88L46.53 6.88Q46.53 7.62 47.14 8.04Q47.74 8.46 48.70 8.46L48.70 8.46Q49.30 8.46 49.83 8.34Q50.37 8.21 50.74 8.08L50.74 8.08L51.01 9.76Q50.50 9.94 49.92 10.06Q49.34 10.18 48.62 10.18L48.62 10.18Q47.66 10.18 46.90 9.93Q46.14 9.68 45.61 9.19Q45.07 8.70 44.78 7.98Q44.50 7.26 44.50 6.30ZM46.53 5.52L49.54 5.52Q49.54 5.22 49.46 4.94Q49.38 4.66 49.20 4.43Q49.02 4.21 48.75 4.07Q48.48 3.94 48.08 3.94L48.08 3.94Q47.70 3.94 47.42 4.06Q47.14 4.19 46.95 4.42Q46.77 4.64 46.66 4.93Q46.56 5.22 46.53 5.52L46.53 5.52ZM57.49 2.40L57.49 2.40Q58.11 2.40 58.51 2.59Q58.91 2.78 59.14 3.17Q59.38 3.55 59.46 4.14Q59.54 4.72 59.54 5.50L59.54 5.50L59.54 10L57.94 10L57.94 5.41Q57.94 4.96 57.88 4.69Q57.82 4.42 57.74 4.27Q57.65 4.13 57.53 4.08Q57.41 4.03 57.28 4.03L57.28 4.03Q57.14 4.03 56.98 4.06Q56.82 4.08 56.69 4.14L56.69 4.14Q56.74 4.45 56.77 4.82Q56.80 5.18 56.80 5.63L56.80 5.63L56.80 7.14L55.20 7.14L55.20 5.41Q55.20 4.64 55.05 4.34Q54.90 4.03 54.56 4.03L54.56 4.03Q54.46 4.03 54.33 4.05Q54.19 4.06 54.06 4.10L54.06 4.10L54.06 10L52.46 10L52.46 2.77Q53.09 2.59 53.70 2.50Q54.30 2.40 54.77 2.40L54.77 2.40Q55.18 2.40 55.51 2.50Q55.84 2.61 56.08 2.85L56.08 2.85Q56.35 2.67 56.72 2.54Q57.09 2.40 57.49 2.40ZM60.50 6.30L60.50 6.30Q60.50 5.31 60.80 4.56Q61.10 3.81 61.60 3.30Q62.10 2.80 62.74 2.54Q63.38 2.29 64.05 2.29L64.05 2.29Q65.71 2.29 66.58 3.27Q67.44 4.26 67.44 6.14L67.44 6.14Q67.44 6.34 67.43 6.54Q67.42 6.75 67.41 6.88L67.41 6.88L62.53 6.88Q62.53 7.62 63.14 8.04Q63.74 8.46 64.70 8.46L64.70 8.46Q65.30 8.46 65.83 8.34Q66.37 8.21 66.74 8.08L66.74 8.08L67.01 9.76Q66.50 9.94 65.92 10.06Q65.34 10.18 64.62 10.18L64.62 10.18Q63.66 10.18 62.90 9.93Q62.14 9.68 61.61 9.19Q61.07 8.70 60.78 7.98Q60.50 7.26 60.50 6.30ZM62.53 5.52L65.54 5.52Q65.54 5.22 65.46 4.94Q65.38 4.66 65.20 4.43Q65.02 4.21 64.75 4.07Q64.48 3.94 64.08 3.94L64.08 3.94Q63.70 3.94 63.42 4.06Q63.14 4.19 62.95 4.42Q62.77 4.64 62.66 4.93Q62.56 5.22 62.53 5.52L62.53 5.52Z"/>
    </g>
</svg>