<?xml version="1.0" encoding="UTF-8"?>
<svg height="26" width="106.8" version="1.1" xmlns="http://www.w3.org/2000/svg"><!--Created by Josélio de S. C. Júnior - 2021 - https://github.com/joseliojunior -->
    <rect
        height="24"
        width="104.8"
        rx="1"
        ry="1"
        x="1" y="1"
        fill="#3d8137"
        stroke="#0a1509"
        stroke-width="1" />
    <g transform="translate(0, 8)">
        <path fill="#0a1509" d="M27.26 10L25.68 10Q25.01 8.35 24.22 6.71Q23.42 5.07 22.51 3.42L22.51 3.42L22.51 10L20.74 10L20.74 0.10L22.32 0.10Q22.77 0.80 23.22 1.62Q23.66 2.45 24.09 3.26Q24.51 4.08 24.87 4.85Q25.23 5.62 25.49 6.19L25.49 6.19L25.49 0.10L27.26 0.10L27.26 10ZM35.01 2.48L35.01 9.74Q34.46 9.89 33.69 10.03Q32.91 10.18 32 10.18L32 10.18Q31.07 10.18 30.48 9.92Q29.89 9.66 29.54 9.19Q29.20 8.72 29.07 8.08Q28.94 7.44 28.94 6.67L28.94 6.67L28.94 2.48L30.91 2.48L30.91 6.42Q30.91 7.46 31.16 7.96Q31.41 8.46 32.13 8.46L32.13 8.46Q32.58 8.46 33.02 8.38L33.02 8.38L33.02 2.48L35.01 2.48ZM37.01 10L37.01 2.72Q37.54 2.58 38.31 2.45Q39.09 2.32 40 2.32L40 2.32Q40.90 2.32 41.49 2.57Q42.08 2.82 42.42 3.27Q42.77 3.73 42.91 4.36Q43.06 4.99 43.06 5.76L43.06 5.76L43.06 10L41.09 10L41.09 6.02Q41.09 4.96 40.85 4.50Q40.61 4.03 39.87 4.03L39.87 4.03Q39.65 4.03 39.43 4.05Q39.22 4.06 38.98 4.10L38.98 4.10L38.98 10L37.01 10ZM50.40 2.48L50.40 9.50Q50.40 10.42 50.18 11.03Q49.95 11.65 49.56 12.02Q49.17 12.40 48.63 12.56Q48.10 12.72 47.47 12.72L47.47 12.72Q46.70 12.72 46.05 12.53Q45.39 12.34 44.78 12.03L44.78 12.03L45.39 10.37Q45.79 10.59 46.36 10.79Q46.93 10.99 47.39 10.99L47.39 10.99Q47.89 10.99 48.16 10.70Q48.43 10.40 48.43 9.60L48.43 9.60L48.43 4.11L45.39 4.11L45.39 2.48L50.40 2.48ZM50.16 0.32L50.16 0.32Q50.16 0.90 49.79 1.23Q49.42 1.57 48.91 1.57L48.91 1.57Q48.40 1.57 48.04 1.23Q47.68 0.90 47.68 0.32L47.68 0.32Q47.68-0.27 48.04-0.61Q48.40-0.94 48.91-0.94L48.91-0.94Q49.42-0.94 49.79-0.61Q50.16-0.27 50.16 0.32ZM59.01 2.48L59.01 9.74Q58.46 9.89 57.69 10.03Q56.91 10.18 56 10.18L56 10.18Q55.07 10.18 54.48 9.92Q53.89 9.66 53.54 9.19Q53.20 8.72 53.07 8.08Q52.94 7.44 52.94 6.67L52.94 6.67L52.94 2.48L54.91 2.48L54.91 6.42Q54.91 7.46 55.16 7.96Q55.41 8.46 56.13 8.46L56.13 8.46Q56.58 8.46 57.02 8.38L57.02 8.38L57.02 2.48L59.01 2.48ZM60.70 6.24L60.70 6.24Q60.70 5.42 60.96 4.70Q61.22 3.98 61.74 3.45Q62.27 2.91 63.08 2.60Q63.89 2.29 65.01 2.29L65.01 2.29Q65.68 2.29 66.22 2.38Q66.77 2.48 67.33 2.70L67.33 2.70L66.90 4.29Q66.58 4.18 66.18 4.09Q65.79 4 65.18 4L65.18 4Q64.48 4 64.01 4.17Q63.54 4.34 63.25 4.63Q62.96 4.93 62.83 5.34Q62.70 5.76 62.70 6.24L62.70 6.24Q62.70 7.28 63.29 7.87Q63.87 8.46 65.28 8.46L65.28 8.46Q65.74 8.46 66.25 8.40Q66.75 8.34 67.17 8.19L67.17 8.19L67.46 9.81Q67.04 9.97 66.45 10.07Q65.86 10.18 65.06 10.18L65.06 10.18Q63.90 10.18 63.08 9.87Q62.26 9.57 61.73 9.04Q61.20 8.51 60.95 7.79Q60.70 7.07 60.70 6.24ZM70.99-1.10L70.99 5.46Q71.28 5.12 71.58 4.74Q71.87 4.37 72.15 3.97Q72.43 3.57 72.69 3.19Q72.94 2.82 73.14 2.48L73.14 2.48L75.50 2.48Q75.22 2.85 74.85 3.28Q74.48 3.71 74.09 4.16Q73.70 4.61 73.30 5.02Q72.91 5.44 72.59 5.79L72.59 5.79Q72.99 6.18 73.46 6.71Q73.92 7.25 74.37 7.82Q74.82 8.40 75.19 8.98Q75.57 9.55 75.79 10L75.79 10L73.54 10Q73.34 9.60 73.03 9.10Q72.72 8.59 72.37 8.10Q72.02 7.62 71.66 7.18Q71.30 6.74 70.99 6.45L70.99 6.45L70.99 10L69.01 10L69.01-0.77L70.99-1.10ZM79.65 8.51L79.65 8.51Q80.37 8.51 80.75 8.41Q81.14 8.30 81.14 7.98L81.14 7.98Q81.14 7.78 81.02 7.63Q80.90 7.49 80.68 7.38Q80.46 7.28 80.18 7.18Q79.90 7.09 79.60 6.99L79.60 6.99Q79.17 6.86 78.72 6.70Q78.27 6.53 77.90 6.27Q77.54 6.02 77.30 5.62Q77.06 5.23 77.06 4.64L77.06 4.64Q77.06 4.16 77.24 3.74Q77.42 3.31 77.82 2.98Q78.21 2.66 78.82 2.47Q79.42 2.29 80.27 2.29L80.27 2.29Q81.01 2.29 81.64 2.40Q82.27 2.51 82.74 2.72L82.74 2.72L82.43 4.38Q82.16 4.30 81.58 4.12Q81.01 3.94 80.29 3.94L80.29 3.94Q79.54 3.94 79.27 4.12Q79.01 4.30 79.01 4.51L79.01 4.51Q79.01 4.69 79.13 4.82Q79.25 4.96 79.45 5.07Q79.65 5.18 79.91 5.29Q80.18 5.39 80.48 5.49L80.48 5.49Q80.91 5.63 81.38 5.81Q81.84 5.98 82.22 6.25Q82.59 6.51 82.83 6.92Q83.07 7.33 83.07 7.92L83.07 7.92Q83.07 8.38 82.90 8.80Q82.72 9.22 82.31 9.52Q81.90 9.82 81.25 10Q80.59 10.18 79.63 10.18L79.63 10.18Q78.66 10.18 77.97 9.95Q77.28 9.73 76.86 9.55L76.86 9.55L77.17 7.90Q77.73 8.13 78.36 8.32Q78.99 8.51 79.65 8.51Z"/>
    </g>
</svg>