<?xml version="1.0" encoding="UTF-8"?><svg height="26" width="106.8" version="1.1" xmlns="http://www.w3.org/2000/svg"><!--Created by Josélio de S. C. Júnior - 2021 - https://github.com/joseliojunior --><defs><pattern id="pattern" x="3" y="3" width="6" height="6" patternUnits="userSpaceOnUse" patternTransform="rotate(45)"><rect height="6" width="6" fill="#ffffff"/><line x1="0" y1="0" x2="0" y2="6" stroke="#bbbbbb" stroke-width="2" /></pattern></defs><rect height="24" width="104.8" rx="12" ry="12" x="1" y="1" fill="url(#pattern)" /><g transform="translate(0, 8)"><path fill="#000000" d="M22.83 1.74L22.83 8.40Q22.91 8.42 23.01 8.42Q23.10 8.42 23.18 8.42L23.18 8.42Q23.86 8.42 24.31 8.16Q24.77 7.90 25.05 7.46Q25.33 7.01 25.45 6.39Q25.57 5.78 25.57 5.04L25.57 5.04Q25.57 4.40 25.47 3.79Q25.38 3.18 25.14 2.72Q24.90 2.26 24.48 1.98Q24.06 1.70 23.41 1.70L23.41 1.70Q23.28 1.70 23.12 1.70Q22.96 1.71 22.83 1.74L22.83 1.74ZM27.57 5.04L27.57 5.04Q27.57 6.42 27.22 7.38Q26.88 8.35 26.27 8.96Q25.66 9.57 24.82 9.85Q23.98 10.13 22.98 10.13L22.98 10.13Q22.45 10.13 21.94 10.07Q21.44 10.02 20.86 9.89L20.86 9.89L20.86 0.22Q21.54 0.08 22.13 0.03Q22.72-0.02 23.23-0.02L23.23-0.02Q24.21-0.02 25.02 0.27Q25.82 0.56 26.38 1.18Q26.94 1.79 27.26 2.74Q27.57 3.70 27.57 5.04ZM35.26 10L33.68 10Q33.01 8.35 32.22 6.71Q31.42 5.07 30.51 3.42L30.51 3.42L30.51 10L28.74 10L28.74 0.10L30.32 0.10Q30.77 0.80 31.22 1.62Q31.66 2.45 32.09 3.26Q32.51 4.08 32.87 4.85Q33.23 5.62 33.49 6.19L33.49 6.19L33.49 0.10L35.26 0.10L35.26 10ZM39.71 8.56L39.71 8.56Q40.21 8.56 40.54 8.46Q40.86 8.35 41.06 8.17Q41.25 7.98 41.32 7.75Q41.39 7.52 41.39 7.28L41.39 7.28Q41.39 6.98 41.22 6.74Q41.04 6.50 40.77 6.31Q40.50 6.13 40.16 5.98Q39.82 5.82 39.49 5.70L39.49 5.70Q39.04 5.54 38.56 5.33Q38.08 5.12 37.69 4.80Q37.30 4.48 37.04 4.01Q36.78 3.54 36.78 2.83L36.78 2.83Q36.78 1.44 37.69 0.66Q38.59-0.13 40.18-0.13L40.18-0.13Q41.09-0.13 41.77 0.08Q42.45 0.29 42.91 0.54L42.91 0.54L42.34 2.06Q41.94 1.84 41.45 1.68Q40.96 1.52 40.32 1.52L40.32 1.52Q38.75 1.52 38.75 2.66L38.75 2.66Q38.75 2.94 38.91 3.16Q39.07 3.38 39.32 3.54Q39.57 3.71 39.88 3.84Q40.19 3.97 40.50 4.08L40.50 4.08Q40.96 4.26 41.46 4.47Q41.97 4.69 42.39 5.05Q42.82 5.41 43.09 5.94Q43.36 6.48 43.36 7.30L43.36 7.30Q43.36 8.69 42.46 9.45Q41.55 10.21 39.71 10.21L39.71 10.21Q38.48 10.21 37.74 9.94Q37.01 9.68 36.64 9.46L36.64 9.46L37.22 7.86Q37.65 8.11 38.25 8.34Q38.85 8.56 39.71 8.56ZM59.12 0.10L59.12 1.47Q58.43 2.53 57.86 3.46Q57.28 4.38 56.78 5.22Q56.29 6.06 55.85 6.84Q55.41 7.62 55.01 8.37L55.01 8.37L59.26 8.37L59.26 10L52.74 10L52.74 8.86Q53.09 8.18 53.49 7.42Q53.89 6.66 54.38 5.79Q54.88 4.93 55.46 3.92Q56.05 2.91 56.75 1.73L56.75 1.73L52.94 1.73L52.94 0.10L59.12 0.10ZM67.55 6.22L67.55 6.22Q67.55 7.12 67.30 7.85Q67.04 8.58 66.58 9.10Q66.11 9.63 65.46 9.92Q64.82 10.21 64.02 10.21L64.02 10.21Q63.22 10.21 62.57 9.92Q61.92 9.63 61.45 9.10Q60.98 8.58 60.72 7.85Q60.46 7.12 60.46 6.22L60.46 6.22Q60.46 5.34 60.73 4.62Q60.99 3.89 61.46 3.37Q61.94 2.85 62.59 2.57Q63.25 2.29 64.02 2.29L64.02 2.29Q64.80 2.29 65.45 2.57Q66.10 2.85 66.57 3.37Q67.04 3.89 67.30 4.62Q67.55 5.34 67.55 6.22ZM62.46 6.24L62.46 6.24Q62.46 7.25 62.82 7.87Q63.18 8.50 63.98 8.50L63.98 8.50Q64.75 8.50 65.14 7.87Q65.54 7.25 65.54 6.24L65.54 6.24Q65.54 5.23 65.18 4.62Q64.82 4 64.02 4L64.02 4Q63.25 4 62.86 4.62Q62.46 5.23 62.46 6.24ZM69.01 10L69.01 2.72Q69.54 2.58 70.31 2.45Q71.09 2.32 72 2.32L72 2.32Q72.90 2.32 73.49 2.57Q74.08 2.82 74.42 3.27Q74.77 3.73 74.91 4.36Q75.06 4.99 75.06 5.76L75.06 5.76L75.06 10L73.09 10L73.09 6.02Q73.09 4.96 72.85 4.50Q72.61 4.03 71.87 4.03L71.87 4.03Q71.65 4.03 71.43 4.05Q71.22 4.06 70.98 4.10L70.98 4.10L70.98 10L69.01 10ZM76.50 6.30L76.50 6.30Q76.50 5.31 76.80 4.56Q77.10 3.81 77.60 3.30Q78.10 2.80 78.74 2.54Q79.38 2.29 80.05 2.29L80.05 2.29Q81.71 2.29 82.58 3.27Q83.44 4.26 83.44 6.14L83.44 6.14Q83.44 6.34 83.43 6.54Q83.42 6.75 83.41 6.88L83.41 6.88L78.53 6.88Q78.53 7.62 79.14 8.04Q79.74 8.46 80.70 8.46L80.70 8.46Q81.30 8.46 81.83 8.34Q82.37 8.21 82.74 8.08L82.74 8.08L83.01 9.76Q82.50 9.94 81.92 10.06Q81.34 10.18 80.62 10.18L80.62 10.18Q79.66 10.18 78.90 9.93Q78.14 9.68 77.61 9.19Q77.07 8.70 76.78 7.98Q76.50 7.26 76.50 6.30ZM78.53 5.52L81.54 5.52Q81.54 5.22 81.46 4.94Q81.38 4.66 81.20 4.43Q81.02 4.21 80.75 4.07Q80.48 3.94 80.08 3.94L80.08 3.94Q79.70 3.94 79.42 4.06Q79.14 4.19 78.95 4.42Q78.77 4.64 78.66 4.93Q78.56 5.22 78.53 5.52L78.53 5.52Z"/></g></svg>