<?xml version="1.0" encoding="UTF-8"?>
<svg height="34" width="102.5" version="1.1" xmlns="http://www.w3.org/2000/svg"><!--Created by Josélio de S. C. Júnior - 2021 - https://github.com/joseliojunior -->
    <rect
        height="32"
        width="100.5"
        rx="16"
        ry="16"
        x="1" y="1"
        fill="#00A300"
        stroke="#3dff3d"
        stroke-width="1" />
    <g transform="translate(0, 12)">
        <path fill="#3dff3d" stroke="none" d="M27.10 12.31L27.10 12.31Q23.96 12.31 22.30 10.30Q20.65 8.28 20.65 4.56L20.65 4.56Q20.65 2.71 21.15 1.27Q21.66-0.17 22.56-1.16Q23.46-2.16 24.69-2.68Q25.93-3.19 27.39-3.19L27.39-3.19Q28.18-3.19 28.82-3.06Q29.46-2.93 29.94-2.76Q30.42-2.59 30.74-2.40Q31.06-2.21 31.23-2.11L31.23-2.11L30.46 0.24Q29.91-0.12 29.13-0.37Q28.35-0.62 27.34-0.62L27.34-0.62Q26.65-0.62 25.99-0.37Q25.33-0.12 24.81 0.47Q24.30 1.06 23.97 2.04Q23.65 3.02 23.65 4.49L23.65 4.49Q23.65 7.03 24.52 8.39Q25.40 9.74 27.39 9.74L27.39 9.74Q28.54 9.74 29.30 9.48Q30.06 9.22 30.51 8.95L30.51 8.95L31.26 11.28Q30.63 11.66 29.56 11.99Q28.50 12.31 27.10 12.31ZM43.04 9.55L43.04 12L33.70 12L33.70-2.86L36.68-2.86L36.68 9.55L43.04 9.55ZM54.73 12L45.30 12L45.30 9.55L48.54 9.55L48.54-0.41L45.30-0.41L45.30-2.86L54.73-2.86L54.73-0.41L51.51-0.41L51.51 9.55L54.73 9.55L54.73 12ZM61.38-3.02L61.38-3.02Q64.21-3.02 65.77-1.86Q67.33-0.70 67.33 1.94L67.33 1.94Q67.33 4.61 65.76 5.80Q64.18 6.98 61.30 6.98L61.30 6.98L60.25 6.98L60.25 12L57.30 12L57.30-2.66Q57.73-2.76 58.27-2.83Q58.81-2.90 59.36-2.94Q59.91-2.98 60.44-3Q60.97-3.02 61.38-3.02ZM61.71-0.46L61.71-0.46Q61.45-0.46 60.98-0.44Q60.51-0.43 60.25-0.38L60.25-0.38L60.25 4.42L61.45 4.42Q62.86 4.42 63.58 3.85Q64.30 3.29 64.30 1.92L64.30 1.92Q64.30 0.62 63.60 0.08Q62.89-0.46 61.71-0.46ZM73.57 9.84L73.57 9.84Q74.31 9.84 74.80 9.68Q75.30 9.53 75.58 9.25Q75.87 8.98 75.98 8.63Q76.09 8.28 76.09 7.92L76.09 7.92Q76.09 7.46 75.82 7.10Q75.56 6.74 75.15 6.47Q74.74 6.19 74.24 5.96Q73.74 5.74 73.23 5.54L73.23 5.54Q72.56 5.30 71.84 4.99Q71.12 4.68 70.53 4.20Q69.94 3.72 69.56 3.01Q69.18 2.30 69.18 1.25L69.18 1.25Q69.18-0.84 70.53-2.02Q71.89-3.19 74.26-3.19L74.26-3.19Q75.63-3.19 76.65-2.88Q77.67-2.57 78.37-2.18L78.37-2.18L77.50 0.10Q76.90-0.24 76.17-0.48Q75.44-0.72 74.48-0.72L74.48-0.72Q72.13-0.72 72.13 0.98L72.13 0.98Q72.13 1.42 72.37 1.74Q72.61 2.06 72.98 2.32Q73.35 2.57 73.82 2.76Q74.29 2.95 74.74 3.12L74.74 3.12Q75.44 3.38 76.20 3.71Q76.95 4.03 77.59 4.57Q78.22 5.11 78.63 5.92Q79.04 6.72 79.04 7.94L79.04 7.94Q79.04 10.03 77.68 11.17Q76.33 12.31 73.57 12.31L73.57 12.31Q71.72 12.31 70.62 11.92Q69.51 11.52 68.96 11.18L68.96 11.18L69.82 8.78Q70.47 9.17 71.37 9.50Q72.27 9.84 73.57 9.84Z"/>
    </g>
</svg>