<?xml version="1.0" encoding="UTF-8"?>
<svg height="34" width="92.5" version="1.1" xmlns="http://www.w3.org/2000/svg">
    <rect
        height="32"
        width="90.5"
        rx="1"
        ry="1"
        x="1"
        y="1"
        fill="#00A300"
        stroke="#3dff3d"
        stroke-width="1"
         />
    <g transform="translate(0, 14)">
        <path fill="#3dff3d" d="M18.29 11.36L18.29 11.36Q14.62 11.36 12.69 9.01Q10.76 6.66 10.76 2.32L10.76 2.32Q10.76 0.16 11.34-1.52Q11.93-3.20 12.98-4.36Q14.03-5.52 15.47-6.12Q16.92-6.72 18.62-6.72L18.62-6.72Q19.55-6.72 20.29-6.57Q21.03-6.42 21.59-6.22Q22.15-6.02 22.53-5.80Q22.91-5.58 23.10-5.46L23.10-5.46L22.21-2.72Q21.56-3.14 20.65-3.43Q19.74-3.73 18.57-3.73L18.57-3.73Q17.76-3.73 16.99-3.43Q16.22-3.14 15.61-2.45Q15.01-1.77 14.63-0.62Q14.26 0.53 14.26 2.24L14.26 2.24Q14.26 5.20 15.28 6.79Q16.30 8.37 18.62 8.37L18.62 8.37Q19.97 8.37 20.85 8.06Q21.73 7.75 22.26 7.44L22.26 7.44L23.13 10.16Q22.40 10.61 21.16 10.99Q19.91 11.36 18.29 11.36ZM36.88 8.14L36.88 11L25.99 11L25.99-6.33L29.46-6.33L29.46 8.14L36.88 8.14ZM50.52 11L39.51 11L39.51 8.14L43.29 8.14L43.29-3.48L39.51-3.48L39.51-6.33L50.52-6.33L50.52-3.48L46.76-3.48L46.76 8.14L50.52 8.14L50.52 11ZM58.27-6.53L58.27-6.53Q61.58-6.53 63.40-5.17Q65.22-3.81 65.22-0.73L65.22-0.73Q65.22 2.38 63.38 3.76Q61.55 5.15 58.19 5.15L58.19 5.15L56.96 5.15L56.96 11L53.51 11L53.51-6.11Q54.02-6.22 54.65-6.30Q55.28-6.39 55.92-6.43Q56.56-6.47 57.18-6.50Q57.80-6.53 58.27-6.53ZM58.66-3.53L58.66-3.53Q58.36-3.53 57.81-3.52Q57.26-3.50 56.96-3.45L56.96-3.45L56.96 2.15L58.36 2.15Q60.01 2.15 60.85 1.49Q61.69 0.84 61.69-0.76L61.69-0.76Q61.69-2.27 60.86-2.90Q60.04-3.53 58.66-3.53ZM72.50 8.48L72.50 8.48Q73.36 8.48 73.94 8.30Q74.51 8.12 74.85 7.79Q75.18 7.47 75.31 7.07Q75.44 6.66 75.44 6.24L75.44 6.24Q75.44 5.71 75.13 5.29Q74.82 4.87 74.34 4.55Q73.87 4.22 73.28 3.96Q72.69 3.69 72.10 3.47L72.10 3.47Q71.32 3.19 70.48 2.82Q69.64 2.46 68.95 1.90Q68.27 1.34 67.82 0.51Q67.37-0.31 67.37-1.54L67.37-1.54Q67.37-3.98 68.95-5.35Q70.54-6.72 73.31-6.72L73.31-6.72Q74.90-6.72 76.09-6.36Q77.28-6.00 78.10-5.55L78.10-5.55L77.09-2.89Q76.39-3.28 75.53-3.56Q74.68-3.84 73.56-3.84L73.56-3.84Q70.82-3.84 70.82-1.85L70.82-1.85Q70.82-1.35 71.10-0.97Q71.38-0.59 71.81-0.30Q72.24-0.00 72.79 0.22Q73.34 0.44 73.87 0.64L73.87 0.64Q74.68 0.95 75.56 1.33Q76.44 1.70 77.19 2.33Q77.93 2.96 78.40 3.90Q78.88 4.84 78.88 6.27L78.88 6.27Q78.88 8.70 77.30 10.03Q75.72 11.36 72.50 11.36L72.50 11.36Q70.34 11.36 69.05 10.90Q67.76 10.44 67.12 10.05L67.12 10.05L68.13 7.25Q68.88 7.70 69.93 8.09Q70.98 8.48 72.50 8.48Z"/>
    </g>
</svg>