<?xml version="1.0" encoding="UTF-8"?>
<svg height="34" width="175.1" version="1.1" xmlns="http://www.w3.org/2000/svg"><!--Created by Josélio de S. C. Júnior - 2021 - https://github.com/joseliojunior -->
    <rect
        height="32"
        width="173.1"
        rx="1"
        ry="1"
        x="1" y="1"
        fill="#3fb68b"
        stroke="#174434"
        stroke-width="1" />
    <g transform="translate(0, 12)">
        <path fill="#174434" stroke="none" d="M27.10 12.31L27.10 12.31Q23.96 12.31 22.30 10.30Q20.65 8.28 20.65 4.56L20.65 4.56Q20.65 2.71 21.15 1.27Q21.66-0.17 22.56-1.16Q23.46-2.16 24.69-2.68Q25.93-3.19 27.39-3.19L27.39-3.19Q28.18-3.19 28.82-3.06Q29.46-2.93 29.94-2.76Q30.42-2.59 30.74-2.40Q31.06-2.21 31.23-2.11L31.23-2.11L30.46 0.24Q29.91-0.12 29.13-0.37Q28.35-0.62 27.34-0.62L27.34-0.62Q26.65-0.62 25.99-0.37Q25.33-0.12 24.81 0.47Q24.30 1.06 23.97 2.04Q23.65 3.02 23.65 4.49L23.65 4.49Q23.65 7.03 24.52 8.39Q25.40 9.74 27.39 9.74L27.39 9.74Q28.54 9.74 29.30 9.48Q30.06 9.22 30.51 8.95L30.51 8.95L31.26 11.28Q30.63 11.66 29.56 11.99Q28.50 12.31 27.10 12.31ZM43.33 6.34L43.33 6.34Q43.33 7.68 42.94 8.77Q42.56 9.86 41.86 10.66Q41.17 11.45 40.20 11.88Q39.22 12.31 38.02 12.31L38.02 12.31Q36.82 12.31 35.85 11.88Q34.88 11.45 34.17 10.66Q33.46 9.86 33.08 8.77Q32.70 7.68 32.70 6.34L32.70 6.34Q32.70 5.02 33.09 3.92Q33.49 2.83 34.20 2.05Q34.90 1.27 35.89 0.85Q36.87 0.43 38.02 0.43L38.02 0.43Q39.20 0.43 40.17 0.85Q41.14 1.27 41.85 2.05Q42.56 2.83 42.94 3.92Q43.33 5.02 43.33 6.34ZM35.70 6.36L35.70 6.36Q35.70 7.87 36.24 8.81Q36.78 9.74 37.98 9.74L37.98 9.74Q39.13 9.74 39.72 8.81Q40.30 7.87 40.30 6.36L40.30 6.36Q40.30 4.85 39.76 3.92Q39.22 3 38.02 3L38.02 3Q36.87 3 36.28 3.92Q35.70 4.85 35.70 6.36ZM52.23 0.60L52.23 0.60Q53.17 0.60 53.77 0.89Q54.37 1.18 54.72 1.75Q55.06 2.33 55.18 3.20Q55.30 4.08 55.30 5.26L55.30 5.26L55.30 12L52.90 12L52.90 5.11Q52.90 4.44 52.82 4.03Q52.74 3.62 52.60 3.41Q52.47 3.19 52.29 3.12Q52.11 3.05 51.92 3.05L51.92 3.05Q51.70 3.05 51.46 3.08Q51.22 3.12 51.03 3.22L51.03 3.22Q51.10 3.67 51.15 4.22Q51.20 4.78 51.20 5.45L51.20 5.45L51.20 7.70L48.80 7.70L48.80 5.11Q48.80 3.96 48.57 3.50Q48.34 3.05 47.84 3.05L47.84 3.05Q47.70 3.05 47.49 3.07Q47.29 3.10 47.10 3.14L47.10 3.14L47.10 12L44.70 12L44.70 1.15Q45.63 0.89 46.54 0.74Q47.46 0.60 48.15 0.60L48.15 0.60Q48.78 0.60 49.27 0.76Q49.76 0.91 50.12 1.27L50.12 1.27Q50.53 1.01 51.08 0.80Q51.63 0.60 52.23 0.60ZM64.23 0.60L64.23 0.60Q65.17 0.60 65.77 0.89Q66.37 1.18 66.72 1.75Q67.06 2.33 67.18 3.20Q67.30 4.08 67.30 5.26L67.30 5.26L67.30 12L64.90 12L64.90 5.11Q64.90 4.44 64.82 4.03Q64.74 3.62 64.60 3.41Q64.47 3.19 64.29 3.12Q64.11 3.05 63.92 3.05L63.92 3.05Q63.70 3.05 63.46 3.08Q63.22 3.12 63.03 3.22L63.03 3.22Q63.10 3.67 63.15 4.22Q63.20 4.78 63.20 5.45L63.20 5.45L63.20 7.70L60.80 7.70L60.80 5.11Q60.80 3.96 60.57 3.50Q60.34 3.05 59.84 3.05L59.84 3.05Q59.70 3.05 59.49 3.07Q59.29 3.10 59.10 3.14L59.10 3.14L59.10 12L56.70 12L56.70 1.15Q57.63 0.89 58.54 0.74Q59.46 0.60 60.15 0.60L60.15 0.60Q60.78 0.60 61.27 0.76Q61.76 0.91 62.12 1.27L62.12 1.27Q62.53 1.01 63.08 0.80Q63.63 0.60 64.23 0.60ZM79.33 6.34L79.33 6.34Q79.33 7.68 78.94 8.77Q78.56 9.86 77.86 10.66Q77.17 11.45 76.20 11.88Q75.22 12.31 74.02 12.31L74.02 12.31Q72.82 12.31 71.85 11.88Q70.88 11.45 70.17 10.66Q69.46 9.86 69.08 8.77Q68.70 7.68 68.70 6.34L68.70 6.34Q68.70 5.02 69.09 3.92Q69.49 2.83 70.20 2.05Q70.90 1.27 71.89 0.85Q72.87 0.43 74.02 0.43L74.02 0.43Q75.20 0.43 76.17 0.85Q77.14 1.27 77.85 2.05Q78.56 2.83 78.94 3.92Q79.33 5.02 79.33 6.34ZM71.70 6.36L71.70 6.36Q71.70 7.87 72.24 8.81Q72.78 9.74 73.98 9.74L73.98 9.74Q75.13 9.74 75.72 8.81Q76.30 7.87 76.30 6.36L76.30 6.36Q76.30 4.85 75.76 3.92Q75.22 3 74.02 3L74.02 3Q72.87 3 72.28 3.92Q71.70 4.85 71.70 6.36ZM81.51 12L81.51 1.08Q82.30 0.86 83.47 0.67Q84.63 0.48 86 0.48L86 0.48Q87.34 0.48 88.23 0.85Q89.12 1.22 89.64 1.91Q90.15 2.59 90.37 3.54Q90.58 4.49 90.58 5.64L90.58 5.64L90.58 12L87.63 12L87.63 6.02Q87.63 4.44 87.27 3.74Q86.91 3.05 85.81 3.05L85.81 3.05Q85.47 3.05 85.15 3.07Q84.82 3.10 84.46 3.14L84.46 3.14L84.46 12L81.51 12ZM115.04 9.55L115.04 12L105.70 12L105.70-2.86L108.68-2.86L108.68 9.55L115.04 9.55ZM122.82-2.52L122.82-2.52Q122.82-1.66 122.26-1.15Q121.71-0.65 120.94-0.65L120.94-0.65Q120.18-0.65 119.64-1.15Q119.10-1.66 119.10-2.52L119.10-2.52Q119.10-3.41 119.64-3.91Q120.18-4.42 120.94-4.42L120.94-4.42Q121.71-4.42 122.26-3.91Q122.82-3.41 122.82-2.52ZM126.82 9.14L127.21 11.52Q126.30 11.95 125.49 12.11Q124.69 12.26 124.02 12.26L124.02 12.26Q122.86 12.26 122.08 11.93Q121.30 11.59 120.84 10.96Q120.37 10.32 120.18 9.41Q119.98 8.50 119.98 7.32L119.98 7.32L119.98 3.17L116.86 3.17L116.86 0.72L122.94 0.72L122.94 7.70Q122.94 8.71 123.31 9.20Q123.68 9.70 124.54 9.70L124.54 9.70Q124.95 9.70 125.53 9.59Q126.10 9.48 126.82 9.14L126.82 9.14ZM133.47 9.77L133.47 9.77Q134.55 9.77 135.13 9.61Q135.70 9.46 135.70 8.98L135.70 8.98Q135.70 8.66 135.52 8.45Q135.34 8.23 135.02 8.08Q134.70 7.92 134.28 7.78Q133.86 7.63 133.40 7.49L133.40 7.49Q132.75 7.30 132.08 7.04Q131.41 6.79 130.86 6.41Q130.30 6.02 129.94 5.44Q129.58 4.85 129.58 3.96L129.58 3.96Q129.58 3.24 129.86 2.60Q130.14 1.97 130.72 1.48Q131.31 0.98 132.22 0.71Q133.14 0.43 134.41 0.43L134.41 0.43Q135.51 0.43 136.46 0.60Q137.41 0.77 138.10 1.08L138.10 1.08L137.65 3.58Q137.24 3.46 136.38 3.18Q135.51 2.90 134.43 2.90L134.43 2.90Q133.30 2.90 132.91 3.18Q132.51 3.46 132.51 3.77L132.51 3.77Q132.51 4.03 132.69 4.24Q132.87 4.44 133.17 4.61Q133.47 4.78 133.87 4.93Q134.26 5.09 134.72 5.23L134.72 5.23Q135.37 5.45 136.06 5.71Q136.76 5.98 137.32 6.37Q137.89 6.77 138.25 7.38Q138.61 7.99 138.61 8.88L138.61 8.88Q138.61 9.58 138.34 10.20Q138.08 10.82 137.47 11.28Q136.86 11.74 135.87 12Q134.89 12.26 133.45 12.26L133.45 12.26Q131.98 12.26 130.95 11.93Q129.92 11.59 129.30 11.33L129.30 11.33L129.75 8.86Q130.59 9.19 131.54 9.48Q132.49 9.77 133.47 9.77ZM148.26 6.46L148.26 6.46Q148.26 4.94 147.66 3.97Q147.06 3 145.83 3L145.83 3Q145.50 3 145.11 3.04Q144.73 3.07 144.46 3.10L144.46 3.10L144.46 9.29Q144.75 9.48 145.23 9.60Q145.71 9.72 146.19 9.72L146.19 9.72Q147.25 9.72 147.75 8.87Q148.26 8.02 148.26 6.46ZM151.26 6.36L151.26 6.36Q151.26 7.66 150.97 8.75Q150.68 9.84 150.13 10.62Q149.58 11.40 148.74 11.83Q147.90 12.26 146.79 12.26L146.79 12.26Q145.66 12.26 144.46 11.71L144.46 11.71L144.46 15.96L141.51 15.96L141.51 1.08Q142.33 0.82 143.52 0.65Q144.70 0.48 145.86 0.48L145.86 0.48Q148.47 0.48 149.86 2.06Q151.26 3.65 151.26 6.36Z"/>
    </g>
</svg>