<?xml version="1.0" encoding="UTF-8"?>
<svg height="34" width="64.3" version="1.1" xmlns="http://www.w3.org/2000/svg">
    <rect
        height="32"
        width="62.3"
        rx="14"
        ry="14"
        x="1"
        y="1"
        fill="#a3522f"
        stroke="#2b160d"
        stroke-width="1"
         />
    <g transform="translate(0, 14)">
        <path fill="#2b160d" d="M22.52 11L11.51 11L11.51 8.14L15.29 8.14L15.29-3.48L11.51-3.48L11.51-6.33L22.52-6.33L22.52-3.48L18.76-3.48L18.76 8.14L22.52 8.14L22.52 11ZM28.96-3.45L28.96 8.20Q29.10 8.23 29.26 8.23Q29.43 8.23 29.57 8.23L29.57 8.23Q30.75 8.23 31.55 7.78Q32.34 7.33 32.83 6.55Q33.32 5.76 33.53 4.69Q33.74 3.61 33.74 2.32L33.74 2.32Q33.74 1.20 33.58 0.14Q33.41-0.93 32.99-1.74Q32.57-2.55 31.84-3.04Q31.11-3.53 29.96-3.53L29.96-3.53Q29.74-3.53 29.46-3.52Q29.18-3.50 28.96-3.45L28.96-3.45ZM37.24 2.32L37.24 2.32Q37.24 4.73 36.64 6.42Q36.04 8.12 34.98 9.18Q33.91 10.24 32.44 10.73Q30.97 11.22 29.21 11.22L29.21 11.22Q28.28 11.22 27.40 11.13Q26.52 11.03 25.51 10.80L25.51 10.80L25.51-6.11Q26.69-6.36 27.72-6.44Q28.76-6.53 29.66-6.53L29.66-6.53Q31.36-6.53 32.78-6.02Q34.19-5.52 35.17-4.44Q36.15-3.36 36.70-1.70Q37.24-0.03 37.24 2.32ZM50.88 8.14L50.88 11L39.99 11L39.99-6.33L43.46-6.33L43.46 8.14L50.88 8.14Z"/>
    </g>
</svg>