<?xml version="1.0" encoding="UTF-8"?><svg height="26" width="131.1" version="1.1" xmlns="http://www.w3.org/2000/svg"><!--Created by Josélio de S. C. Júnior - 2021 - https://github.com/joseliojunior --><defs><pattern id="pattern" x="3" y="3" width="6" height="6" patternUnits="userSpaceOnUse" patternTransform="rotate(45)"><rect height="6" width="6" fill="#ffffff"/><line x1="0" y1="0" x2="0" y2="6" stroke="#bbbbbb" stroke-width="2" /></pattern></defs><rect height="24" width="129.1" rx="1" ry="1" x="1" y="1" fill="url(#pattern)" /><g transform="translate(0, 8)"><path fill="#000000" d="M24.74 10.21L24.74 10.21Q22.64 10.21 21.54 8.86Q20.43 7.52 20.43 5.04L20.43 5.04Q20.43 3.81 20.77 2.85Q21.10 1.89 21.70 1.22Q22.30 0.56 23.13 0.22Q23.95-0.13 24.93-0.13L24.93-0.13Q25.46-0.13 25.88-0.04Q26.30 0.05 26.62 0.16Q26.94 0.27 27.16 0.40Q27.38 0.53 27.49 0.59L27.49 0.59L26.98 2.16Q26.61 1.92 26.09 1.75Q25.57 1.58 24.90 1.58L24.90 1.58Q24.43 1.58 23.99 1.75Q23.55 1.92 23.21 2.31Q22.86 2.70 22.65 3.36Q22.43 4.02 22.43 4.99L22.43 4.99Q22.43 6.69 23.02 7.59Q23.60 8.50 24.93 8.50L24.93 8.50Q25.70 8.50 26.20 8.32Q26.70 8.14 27.01 7.97L27.01 7.97L27.50 9.52Q27.09 9.78 26.38 9.99Q25.66 10.21 24.74 10.21ZM33.50 6.30L33.50 6.30Q33.50 5.30 33.10 4.65Q32.70 4 31.89 4L31.89 4Q31.66 4 31.41 4.02Q31.15 4.05 30.98 4.06L30.98 4.06L30.98 8.19Q31.17 8.32 31.49 8.40Q31.81 8.48 32.13 8.48L32.13 8.48Q32.83 8.48 33.17 7.91Q33.50 7.34 33.50 6.30ZM35.50 6.24L35.50 6.24Q35.50 7.10 35.31 7.83Q35.12 8.56 34.75 9.08Q34.38 9.60 33.82 9.89Q33.26 10.18 32.53 10.18L32.53 10.18Q31.78 10.18 30.98 9.81L30.98 9.81L30.98 12.64L29.01 12.64L29.01 2.72Q29.55 2.54 30.34 2.43Q31.14 2.32 31.90 2.32L31.90 2.32Q33.65 2.32 34.58 3.38Q35.50 4.43 35.50 6.24ZM41.50 6.30L41.50 6.30Q41.50 5.30 41.10 4.65Q40.70 4 39.89 4L39.89 4Q39.66 4 39.41 4.02Q39.15 4.05 38.98 4.06L38.98 4.06L38.98 8.19Q39.17 8.32 39.49 8.40Q39.81 8.48 40.13 8.48L40.13 8.48Q40.83 8.48 41.17 7.91Q41.50 7.34 41.50 6.30ZM43.50 6.24L43.50 6.24Q43.50 7.10 43.31 7.83Q43.12 8.56 42.75 9.08Q42.38 9.60 41.82 9.89Q41.26 10.18 40.53 10.18L40.53 10.18Q39.78 10.18 38.98 9.81L38.98 9.81L38.98 12.64L37.01 12.64L37.01 2.72Q37.55 2.54 38.34 2.43Q39.14 2.32 39.90 2.32L39.90 2.32Q41.65 2.32 42.58 3.38Q43.50 4.43 43.50 6.24ZM45.81 6.86L45.81 4.93L50.19 4.93L50.19 6.86L45.81 6.86ZM54.43 5.04L54.43 5.04Q54.43 5.76 54.49 6.39Q54.54 7.02 54.71 7.49Q54.88 7.95 55.18 8.22Q55.49 8.50 56 8.50L56 8.50Q56.50 8.50 56.81 8.22Q57.12 7.95 57.29 7.48Q57.46 7.01 57.51 6.38Q57.57 5.76 57.57 5.04L57.57 5.04Q57.57 4.32 57.51 3.69Q57.46 3.06 57.29 2.59Q57.12 2.13 56.82 1.86Q56.51 1.58 56 1.58L56 1.58Q55.49 1.58 55.18 1.86Q54.88 2.13 54.71 2.60Q54.54 3.07 54.49 3.70Q54.43 4.32 54.43 5.04ZM52.43 5.04L52.43 5.04Q52.43 2.48 53.38 1.18Q54.32-0.13 56-0.13L56-0.13Q57.74-0.13 58.66 1.18Q59.57 2.48 59.57 5.04L59.57 5.04Q59.57 7.60 58.64 8.90Q57.71 10.21 56.02 10.21L56.02 10.21Q54.27 10.21 53.35 8.90Q52.43 7.60 52.43 5.04ZM65.52 6.19L65.52 6.19Q65.52 5.14 65.18 4.58Q64.83 4.02 64.13 4.02L64.13 4.02Q63.81 4.02 63.50 4.10Q63.18 4.19 62.96 4.32L62.96 4.32L62.96 8.40Q63.18 8.45 63.43 8.46Q63.68 8.48 63.86 8.48L63.86 8.48Q64.62 8.48 65.07 7.96Q65.52 7.44 65.52 6.19ZM67.52 6.24L67.52 6.24Q67.52 7.14 67.28 7.86Q67.04 8.59 66.58 9.10Q66.11 9.62 65.44 9.90Q64.77 10.18 63.90 10.18L63.90 10.18Q63.14 10.18 62.34 10.06Q61.54 9.95 60.99 9.78L60.99 9.78L60.99-0.77L62.96-1.10L62.96 2.66Q63.38 2.46 63.76 2.39Q64.14 2.32 64.53 2.32L64.53 2.32Q65.26 2.32 65.82 2.60Q66.38 2.88 66.76 3.40Q67.14 3.92 67.33 4.64Q67.52 5.36 67.52 6.24ZM74.40 2.48L74.40 9.50Q74.40 10.42 74.18 11.03Q73.95 11.65 73.56 12.02Q73.17 12.40 72.63 12.56Q72.10 12.72 71.47 12.72L71.47 12.72Q70.70 12.72 70.05 12.53Q69.39 12.34 68.78 12.03L68.78 12.03L69.39 10.37Q69.79 10.59 70.36 10.79Q70.93 10.99 71.39 10.99L71.39 10.99Q71.89 10.99 72.16 10.70Q72.43 10.40 72.43 9.60L72.43 9.60L72.43 4.11L69.39 4.11L69.39 2.48L74.40 2.48ZM74.16 0.32L74.16 0.32Q74.16 0.90 73.79 1.23Q73.42 1.57 72.91 1.57L72.91 1.57Q72.40 1.57 72.04 1.23Q71.68 0.90 71.68 0.32L71.68 0.32Q71.68-0.27 72.04-0.61Q72.40-0.94 72.91-0.94L72.91-0.94Q73.42-0.94 73.79-0.61Q74.16-0.27 74.16 0.32ZM78.83 1.74L78.83 8.40Q78.91 8.42 79.01 8.42Q79.10 8.42 79.18 8.42L79.18 8.42Q79.86 8.42 80.31 8.16Q80.77 7.90 81.05 7.46Q81.33 7.01 81.45 6.39Q81.57 5.78 81.57 5.04L81.57 5.04Q81.57 4.40 81.47 3.79Q81.38 3.18 81.14 2.72Q80.90 2.26 80.48 1.98Q80.06 1.70 79.41 1.70L79.41 1.70Q79.28 1.70 79.12 1.70Q78.96 1.71 78.83 1.74L78.83 1.74ZM83.57 5.04L83.57 5.04Q83.57 6.42 83.22 7.38Q82.88 8.35 82.27 8.96Q81.66 9.57 80.82 9.85Q79.98 10.13 78.98 10.13L78.98 10.13Q78.45 10.13 77.94 10.07Q77.44 10.02 76.86 9.89L76.86 9.89L76.86 0.22Q77.54 0.08 78.13 0.03Q78.72-0.02 79.23-0.02L79.23-0.02Q80.21-0.02 81.02 0.27Q81.82 0.56 82.38 1.18Q82.94 1.79 83.26 2.74Q83.57 3.70 83.57 5.04ZM91.01 2.48L91.01 9.74Q90.46 9.89 89.69 10.03Q88.91 10.18 88 10.18L88 10.18Q87.07 10.18 86.48 9.92Q85.89 9.66 85.54 9.19Q85.20 8.72 85.07 8.08Q84.94 7.44 84.94 6.67L84.94 6.67L84.94 2.48L86.91 2.48L86.91 6.42Q86.91 7.46 87.16 7.96Q87.41 8.46 88.13 8.46L88.13 8.46Q88.58 8.46 89.02 8.38L89.02 8.38L89.02 2.48L91.01 2.48ZM97.49 2.40L97.49 2.40Q98.11 2.40 98.51 2.59Q98.91 2.78 99.14 3.17Q99.38 3.55 99.46 4.14Q99.54 4.72 99.54 5.50L99.54 5.50L99.54 10L97.94 10L97.94 5.41Q97.94 4.96 97.88 4.69Q97.82 4.42 97.74 4.27Q97.65 4.13 97.53 4.08Q97.41 4.03 97.28 4.03L97.28 4.03Q97.14 4.03 96.98 4.06Q96.82 4.08 96.69 4.14L96.69 4.14Q96.74 4.45 96.77 4.82Q96.80 5.18 96.80 5.63L96.80 5.63L96.80 7.14L95.20 7.14L95.20 5.41Q95.20 4.64 95.05 4.34Q94.90 4.03 94.56 4.03L94.56 4.03Q94.46 4.03 94.33 4.05Q94.19 4.06 94.06 4.10L94.06 4.10L94.06 10L92.46 10L92.46 2.77Q93.09 2.59 93.70 2.50Q94.30 2.40 94.77 2.40L94.77 2.40Q95.18 2.40 95.51 2.50Q95.84 2.61 96.08 2.85L96.08 2.85Q96.35 2.67 96.72 2.54Q97.09 2.40 97.49 2.40ZM105.50 6.30L105.50 6.30Q105.50 5.30 105.10 4.65Q104.70 4 103.89 4L103.89 4Q103.66 4 103.41 4.02Q103.15 4.05 102.98 4.06L102.98 4.06L102.98 8.19Q103.17 8.32 103.49 8.40Q103.81 8.48 104.13 8.48L104.13 8.48Q104.83 8.48 105.17 7.91Q105.50 7.34 105.50 6.30ZM107.50 6.24L107.50 6.24Q107.50 7.10 107.31 7.83Q107.12 8.56 106.75 9.08Q106.38 9.60 105.82 9.89Q105.26 10.18 104.53 10.18L104.53 10.18Q103.78 10.18 102.98 9.81L102.98 9.81L102.98 12.64L101.01 12.64L101.01 2.72Q101.55 2.54 102.34 2.43Q103.14 2.32 103.90 2.32L103.90 2.32Q105.65 2.32 106.58 3.38Q107.50 4.43 107.50 6.24Z"/></g></svg>