<?xml version="1.0" encoding="UTF-8"?>
<svg height="34" width="175.1" version="1.1" xmlns="http://www.w3.org/2000/svg"><!--Created by Josélio de S. C. Júnior - 2021 - https://github.com/joseliojunior -->
    <defs>
        <pattern id="pattern"
                x="1.5" y="3" width="3" height="6"
                patternUnits="userSpaceOnUse"
                patternTransform="rotate(45)" >
            <rect height="6" width="1" fill="#999999"/>
        </pattern>
    </defs>
    <rect
        height="32"
        width="173.1"
        rx="1"
        ry="1"
        x="1" y="1"
        fill="url(#pattern)"
        stroke="#000000"
        stroke-width="1" />
    <g transform="translate(0, 12)">
        <path fill="#ffffff" stroke="#000000" d="M27.10 12.31L27.10 12.31Q23.96 12.31 22.30 10.30Q20.65 8.28 20.65 4.56L20.65 4.56Q20.65 2.71 21.15 1.27Q21.66-0.17 22.56-1.16Q23.46-2.16 24.69-2.68Q25.93-3.19 27.39-3.19L27.39-3.19Q28.18-3.19 28.82-3.06Q29.46-2.93 29.94-2.76Q30.42-2.59 30.74-2.40Q31.06-2.21 31.23-2.11L31.23-2.11L30.46 0.24Q29.91-0.12 29.13-0.37Q28.35-0.62 27.34-0.62L27.34-0.62Q26.65-0.62 25.99-0.37Q25.33-0.12 24.81 0.47Q24.30 1.06 23.97 2.04Q23.65 3.02 23.65 4.49L23.65 4.49Q23.65 7.03 24.52 8.39Q25.40 9.74 27.39 9.74L27.39 9.74Q28.54 9.74 29.30 9.48Q30.06 9.22 30.51 8.95L30.51 8.95L31.26 11.28Q30.63 11.66 29.56 11.99Q28.50 12.31 27.10 12.31ZM40.26 6.46L40.26 6.46Q40.26 4.94 39.66 3.97Q39.06 3 37.83 3L37.83 3Q37.50 3 37.11 3.04Q36.73 3.07 36.46 3.10L36.46 3.10L36.46 9.29Q36.75 9.48 37.23 9.60Q37.71 9.72 38.19 9.72L38.19 9.72Q39.25 9.72 39.75 8.87Q40.26 8.02 40.26 6.46ZM43.26 6.36L43.26 6.36Q43.26 7.66 42.97 8.75Q42.68 9.84 42.13 10.62Q41.58 11.40 40.74 11.83Q39.90 12.26 38.79 12.26L38.79 12.26Q37.66 12.26 36.46 11.71L36.46 11.71L36.46 15.96L33.51 15.96L33.51 1.08Q34.33 0.82 35.52 0.65Q36.70 0.48 37.86 0.48L37.86 0.48Q40.47 0.48 41.86 2.06Q43.26 3.65 43.26 6.36ZM52.26 6.46L52.26 6.46Q52.26 4.94 51.66 3.97Q51.06 3 49.83 3L49.83 3Q49.50 3 49.11 3.04Q48.73 3.07 48.46 3.10L48.46 3.10L48.46 9.29Q48.75 9.48 49.23 9.60Q49.71 9.72 50.19 9.72L50.19 9.72Q51.25 9.72 51.75 8.87Q52.26 8.02 52.26 6.46ZM55.26 6.36L55.26 6.36Q55.26 7.66 54.97 8.75Q54.68 9.84 54.13 10.62Q53.58 11.40 52.74 11.83Q51.90 12.26 50.79 12.26L50.79 12.26Q49.66 12.26 48.46 11.71L48.46 11.71L48.46 15.96L45.51 15.96L45.51 1.08Q46.33 0.82 47.52 0.65Q48.70 0.48 49.86 0.48L49.86 0.48Q52.47 0.48 53.86 2.06Q55.26 3.65 55.26 6.36ZM58.71 7.30L58.71 4.39L65.29 4.39L65.29 7.30L58.71 7.30ZM71.65 4.56L71.65 4.56Q71.65 5.64 71.73 6.59Q71.82 7.54 72.07 8.23Q72.32 8.93 72.78 9.34Q73.23 9.74 74 9.74L74 9.74Q74.74 9.74 75.21 9.34Q75.68 8.93 75.93 8.22Q76.18 7.51 76.27 6.58Q76.35 5.64 76.35 4.56L76.35 4.56Q76.35 3.48 76.27 2.53Q76.18 1.58 75.93 0.89Q75.68 0.19 75.22-0.22Q74.77-0.62 74-0.62L74-0.62Q73.23-0.62 72.78-0.22Q72.32 0.19 72.07 0.90Q71.82 1.61 71.73 2.54Q71.65 3.48 71.65 4.56ZM68.65 4.56L68.65 4.56Q68.65 0.72 70.06-1.24Q71.48-3.19 74-3.19L74-3.19Q76.62-3.19 77.98-1.24Q79.35 0.72 79.35 4.56L79.35 4.56Q79.35 8.40 77.96 10.36Q76.57 12.31 74.02 12.31L74.02 12.31Q71.41 12.31 70.03 10.36Q68.65 8.40 68.65 4.56ZM88.28 6.29L88.28 6.29Q88.28 4.70 87.76 3.86Q87.25 3.02 86.19 3.02L86.19 3.02Q85.71 3.02 85.24 3.16Q84.78 3.29 84.44 3.48L84.44 3.48L84.44 9.60Q84.78 9.67 85.15 9.70Q85.52 9.72 85.78 9.72L85.78 9.72Q86.94 9.72 87.61 8.94Q88.28 8.16 88.28 6.29ZM91.28 6.36L91.28 6.36Q91.28 7.70 90.92 8.80Q90.56 9.89 89.86 10.66Q89.17 11.42 88.16 11.84Q87.15 12.26 85.86 12.26L85.86 12.26Q84.70 12.26 83.50 12.10Q82.30 11.93 81.49 11.66L81.49 11.66L81.49-4.15L84.44-4.66L84.44 0.98Q85.06 0.70 85.64 0.59Q86.22 0.48 86.79 0.48L86.79 0.48Q87.90 0.48 88.74 0.90Q89.58 1.32 90.14 2.10Q90.70 2.88 90.99 3.96Q91.28 5.04 91.28 6.36ZM101.60 0.72L101.60 11.26Q101.60 12.62 101.26 13.55Q100.93 14.47 100.34 15.04Q99.75 15.60 98.95 15.84Q98.14 16.08 97.21 16.08L97.21 16.08Q96.06 16.08 95.07 15.79Q94.09 15.50 93.18 15.05L93.18 15.05L94.09 12.55Q94.69 12.89 95.54 13.19Q96.39 13.49 97.09 13.49L97.09 13.49Q97.83 13.49 98.24 13.04Q98.65 12.60 98.65 11.40L98.65 11.40L98.65 3.17L94.09 3.17L94.09 0.72L101.60 0.72ZM101.24-2.52L101.24-2.52Q101.24-1.66 100.69-1.15Q100.14-0.65 99.37-0.65L99.37-0.65Q98.60-0.65 98.06-1.15Q97.52-1.66 97.52-2.52L97.52-2.52Q97.52-3.41 98.06-3.91Q98.60-4.42 99.37-4.42L99.37-4.42Q100.14-4.42 100.69-3.91Q101.24-3.41 101.24-2.52ZM108.25-0.38L108.25 9.60Q108.37 9.62 108.51 9.62Q108.66 9.62 108.78 9.62L108.78 9.62Q109.78 9.62 110.47 9.24Q111.15 8.86 111.57 8.18Q111.99 7.51 112.17 6.59Q112.35 5.66 112.35 4.56L112.35 4.56Q112.35 3.60 112.21 2.69Q112.06 1.78 111.70 1.08Q111.34 0.38 110.72-0.04Q110.10-0.46 109.11-0.46L109.11-0.46Q108.92-0.46 108.68-0.44Q108.44-0.43 108.25-0.38L108.25-0.38ZM115.35 4.56L115.35 4.56Q115.35 6.62 114.84 8.08Q114.32 9.53 113.41 10.44Q112.50 11.35 111.24 11.77Q109.98 12.19 108.46 12.19L108.46 12.19Q107.67 12.19 106.92 12.11Q106.16 12.02 105.30 11.83L105.30 11.83L105.30-2.66Q106.30-2.88 107.19-2.95Q108.08-3.02 108.85-3.02L108.85-3.02Q110.31-3.02 111.52-2.59Q112.74-2.16 113.58-1.24Q114.42-0.31 114.88 1.12Q115.35 2.54 115.35 4.56ZM126.51 0.72L126.51 11.62Q125.70 11.83 124.53 12.05Q123.37 12.26 122 12.26L122 12.26Q120.61 12.26 119.72 11.88Q118.83 11.50 118.32 10.79Q117.80 10.08 117.61 9.12Q117.42 8.16 117.42 7.01L117.42 7.01L117.42 0.72L120.37 0.72L120.37 6.62Q120.37 8.18 120.74 8.94Q121.11 9.70 122.19 9.70L122.19 9.70Q122.86 9.70 123.54 9.58L123.54 9.58L123.54 0.72L126.51 0.72ZM136.23 0.60L136.23 0.60Q137.17 0.60 137.77 0.89Q138.37 1.18 138.72 1.75Q139.06 2.33 139.18 3.20Q139.30 4.08 139.30 5.26L139.30 5.26L139.30 12L136.90 12L136.90 5.11Q136.90 4.44 136.82 4.03Q136.74 3.62 136.60 3.41Q136.47 3.19 136.29 3.12Q136.11 3.05 135.92 3.05L135.92 3.05Q135.70 3.05 135.46 3.08Q135.22 3.12 135.03 3.22L135.03 3.22Q135.10 3.67 135.15 4.22Q135.20 4.78 135.20 5.45L135.20 5.45L135.20 7.70L132.80 7.70L132.80 5.11Q132.80 3.96 132.57 3.50Q132.34 3.05 131.84 3.05L131.84 3.05Q131.70 3.05 131.49 3.07Q131.29 3.10 131.10 3.14L131.10 3.14L131.10 12L128.70 12L128.70 1.15Q129.63 0.89 130.54 0.74Q131.46 0.60 132.15 0.60L132.15 0.60Q132.78 0.60 133.27 0.76Q133.76 0.91 134.12 1.27L134.12 1.27Q134.53 1.01 135.08 0.80Q135.63 0.60 136.23 0.60ZM148.26 6.46L148.26 6.46Q148.26 4.94 147.66 3.97Q147.06 3 145.83 3L145.83 3Q145.50 3 145.11 3.04Q144.73 3.07 144.46 3.10L144.46 3.10L144.46 9.29Q144.75 9.48 145.23 9.60Q145.71 9.72 146.19 9.72L146.19 9.72Q147.25 9.72 147.75 8.87Q148.26 8.02 148.26 6.46ZM151.26 6.36L151.26 6.36Q151.26 7.66 150.97 8.75Q150.68 9.84 150.13 10.62Q149.58 11.40 148.74 11.83Q147.90 12.26 146.79 12.26L146.79 12.26Q145.66 12.26 144.46 11.71L144.46 11.71L144.46 15.96L141.51 15.96L141.51 1.08Q142.33 0.82 143.52 0.65Q144.70 0.48 145.86 0.48L145.86 0.48Q148.47 0.48 149.86 2.06Q151.26 3.65 151.26 6.36Z"/>
    </g>
</svg>