<?xml version="1.0" encoding="UTF-8"?>
<svg height="26" width="66.3" version="1.1" xmlns="http://www.w3.org/2000/svg"><!--Created by Josélio de S. C. Júnior - 2021 - https://github.com/joseliojunior -->
    <rect
        height="24"
        width="64.3"
        rx="12"
        ry="12"
        x="1" y="1"
        fill="#4b0079"
        stroke="#a514ff"
        stroke-width="1" />
    <g transform="translate(0, 8)">
        <path fill="#a514ff" d="M20.40 0.10L27.60 0.10L27.60 1.73L24.99 1.73L24.99 10L23.01 10L23.01 1.73L20.40 1.73L20.40 0.10ZM35.36 8.37L35.36 10L29.14 10L29.14 0.10L31.12 0.10L31.12 8.37L35.36 8.37ZM43.86 10L41.74 10L41.28 7.71L38.64 7.71L38.19 10L36.14 10Q36.85 7.07 37.57 4.66Q38.29 2.26 38.96 0.10L38.96 0.10L41.10 0.10Q41.81 2.27 42.50 4.71Q43.20 7.15 43.86 10L43.86 10ZM39.98 2.02L39.98 2.02Q39.82 2.58 39.69 3.08Q39.55 3.58 39.43 4.07Q39.31 4.56 39.21 5.06Q39.10 5.55 39.01 6.08L39.01 6.08L40.94 6.08Q40.85 5.55 40.75 5.06Q40.66 4.56 40.54 4.07Q40.42 3.58 40.28 3.08Q40.14 2.58 39.98 2.02Z"/>
    </g>
</svg>