<?xml version="1.0" encoding="UTF-8"?>
<svg height="34" width="163" version="1.1" xmlns="http://www.w3.org/2000/svg">
    <rect
        height="32"
        width="161"
        rx="14"
        ry="14"
        x="1"
        y="1"
        fill="#499886"
        stroke="#17302a"
        stroke-width="1"
         />
    <g transform="translate(0, 14)">
        <path fill="#17302a" d="M22.88 8.14L22.88 11L11.99 11L11.99-6.33L15.46-6.33L15.46 8.14L22.88 8.14ZM31.95-5.94L31.95-5.94Q31.95-4.93 31.31-4.34Q30.66-3.76 29.77-3.76L29.77-3.76Q28.87-3.76 28.24-4.34Q27.61-4.93 27.61-5.94L27.61-5.94Q27.61-6.98 28.24-7.56Q28.87-8.15 29.77-8.15L29.77-8.15Q30.66-8.15 31.31-7.56Q31.95-6.98 31.95-5.94ZM36.63 7.67L37.08 10.44Q36.01 10.94 35.07 11.13Q34.14 11.31 33.35 11.31L33.35 11.31Q32.01 11.31 31.10 10.92Q30.19 10.52 29.64 9.78Q29.10 9.04 28.87 7.98Q28.65 6.91 28.65 5.54L28.65 5.54L28.65 0.70L25.01 0.70L25.01-2.16L32.09-2.16L32.09 5.99Q32.09 7.16 32.53 7.74Q32.96 8.31 33.97 8.31L33.97 8.31Q34.44 8.31 35.12 8.19Q35.79 8.06 36.63 7.67L36.63 7.67ZM46.32 11L43.43 11Q42.17 8.51 40.87 5.16Q39.57 1.82 38.39-2.16L38.39-2.16L42.00-2.16Q42.26-1.10 42.61 0.11Q42.96 1.31 43.35 2.53Q43.74 3.75 44.15 4.90Q44.55 6.04 44.92 7.00L44.92 7.00Q45.28 6.04 45.73 4.90Q46.18 3.75 46.61 2.53Q47.04 1.31 47.45 0.11Q47.86-1.10 48.11-2.16L48.11-2.16L51.61-2.16Q50.43 1.82 49.00 5.16Q47.58 8.51 46.32 11L46.32 11ZM52.87 4.53L52.87 4.53Q52.87 2.80 53.40 1.48Q53.93 0.16 54.80-0.72Q55.67-1.60 56.79-2.05Q57.91-2.50 59.08-2.50L59.08-2.50Q62.00-2.50 63.51-0.77Q65.02 0.95 65.02 4.25L65.02 4.25Q65.02 4.59 65.01 4.95Q64.99 5.32 64.96 5.54L64.96 5.54L56.42 5.54Q56.42 6.83 57.49 7.57Q58.55 8.31 60.23 8.31L60.23 8.31Q61.27 8.31 62.21 8.09Q63.14 7.86 63.79 7.64L63.79 7.64L64.26 10.58Q63.37 10.89 62.36 11.10Q61.35 11.31 60.09 11.31L60.09 11.31Q58.41 11.31 57.08 10.87Q55.75 10.44 54.81 9.59Q53.88 8.73 53.37 7.47Q52.87 6.21 52.87 4.53ZM56.42 3.16L61.69 3.16Q61.69 2.63 61.55 2.14Q61.41 1.65 61.10 1.26Q60.79 0.86 60.32 0.63Q59.84 0.39 59.14 0.39L59.14 0.39Q58.47 0.39 57.98 0.61Q57.49 0.84 57.17 1.23Q56.84 1.62 56.66 2.12Q56.48 2.63 56.42 3.16L56.42 3.16ZM72.50 8.48L72.50 8.48Q73.36 8.48 73.94 8.30Q74.51 8.12 74.85 7.79Q75.18 7.47 75.31 7.07Q75.44 6.66 75.44 6.24L75.44 6.24Q75.44 5.71 75.13 5.29Q74.82 4.87 74.34 4.55Q73.87 4.22 73.28 3.96Q72.69 3.69 72.10 3.47L72.10 3.47Q71.32 3.19 70.48 2.82Q69.64 2.46 68.95 1.90Q68.27 1.34 67.82 0.51Q67.37-0.31 67.37-1.54L67.37-1.54Q67.37-3.98 68.95-5.35Q70.54-6.72 73.31-6.72L73.31-6.72Q74.90-6.72 76.09-6.36Q77.28-6.00 78.10-5.55L78.10-5.55L77.09-2.89Q76.39-3.28 75.53-3.56Q74.68-3.84 73.56-3.84L73.56-3.84Q70.82-3.84 70.82-1.85L70.82-1.85Q70.82-1.35 71.10-0.97Q71.38-0.59 71.81-0.30Q72.24-0.00 72.79 0.22Q73.34 0.44 73.87 0.64L73.87 0.64Q74.68 0.95 75.56 1.33Q76.44 1.70 77.19 2.33Q77.93 2.96 78.40 3.90Q78.88 4.84 78.88 6.27L78.88 6.27Q78.88 8.70 77.30 10.03Q75.72 11.36 72.50 11.36L72.50 11.36Q70.34 11.36 69.05 10.90Q67.76 10.44 67.12 10.05L67.12 10.05L68.13 7.25Q68.88 7.70 69.93 8.09Q70.98 8.48 72.50 8.48ZM81.23 4.42L81.23 4.42Q81.23 2.99 81.68 1.73Q82.13 0.47 83.05-0.47Q83.98-1.40 85.39-1.95Q86.80-2.50 88.76-2.50L88.76-2.50Q89.94-2.50 90.89-2.33Q91.84-2.16 92.82-1.77L92.82-1.77L92.07 1.00Q91.51 0.81 90.82 0.65Q90.14 0.50 89.07 0.50L89.07 0.50Q87.84 0.50 87.01 0.79Q86.19 1.09 85.68 1.61Q85.18 2.12 84.96 2.85Q84.73 3.58 84.73 4.42L84.73 4.42Q84.73 6.24 85.75 7.28Q86.78 8.31 89.24 8.31L89.24 8.31Q90.05 8.31 90.93 8.20Q91.82 8.09 92.54 7.84L92.54 7.84L93.05 10.66Q92.32 10.94 91.28 11.13Q90.25 11.31 88.85 11.31L88.85 11.31Q86.83 11.31 85.39 10.78Q83.95 10.24 83.02 9.32Q82.10 8.40 81.67 7.14Q81.23 5.88 81.23 4.42ZM106.85-1.85L106.24 1.34Q105.90 1.26 105.44 1.17Q104.98 1.09 104.50 1.02Q104.02 0.95 103.58 0.92Q103.13 0.89 102.82 0.89L102.82 0.89Q102.09 0.89 101.39 0.96Q100.69 1.03 99.96 1.23L99.96 1.23L99.96 11L96.49 11L96.49-1.29Q97.86-1.80 99.31-2.10Q100.75-2.41 102.68-2.41L102.68-2.41Q102.96-2.41 103.48-2.38Q104.00-2.36 104.58-2.29Q105.17-2.22 105.77-2.12Q106.38-2.02 106.85-1.85L106.85-1.85ZM115.95-5.94L115.95-5.94Q115.95-4.93 115.31-4.34Q114.66-3.76 113.77-3.76L113.77-3.76Q112.87-3.76 112.24-4.34Q111.61-4.93 111.61-5.94L111.61-5.94Q111.61-6.98 112.24-7.56Q112.87-8.15 113.77-8.15L113.77-8.15Q114.66-8.15 115.31-7.56Q115.95-6.98 115.95-5.94ZM120.63 7.67L121.08 10.44Q120.01 10.94 119.07 11.13Q118.14 11.31 117.35 11.31L117.35 11.31Q116.01 11.31 115.10 10.92Q114.19 10.52 113.64 9.78Q113.10 9.04 112.87 7.98Q112.65 6.91 112.65 5.54L112.65 5.54L112.65 0.70L109.01 0.70L109.01-2.16L116.09-2.16L116.09 5.99Q116.09 7.16 116.53 7.74Q116.96 8.31 117.97 8.31L117.97 8.31Q118.44 8.31 119.12 8.19Q119.79 8.06 120.63 7.67L120.63 7.67ZM131.63 4.53L131.63 4.53Q131.63 2.77 130.93 1.63Q130.23 0.50 128.80 0.50L128.80 0.50Q128.41 0.50 127.96 0.54Q127.52 0.58 127.21 0.61L127.21 0.61L127.21 7.84Q127.54 8.06 128.10 8.20Q128.66 8.34 129.22 8.34L129.22 8.34Q130.46 8.34 131.04 7.35Q131.63 6.35 131.63 4.53ZM135.13 4.42L135.13 4.42Q135.13 5.93 134.80 7.21Q134.46 8.48 133.82 9.39Q133.17 10.30 132.19 10.80Q131.21 11.31 129.92 11.31L129.92 11.31Q128.61 11.31 127.21 10.66L127.21 10.66L127.21 15.62L123.76 15.62L123.76-1.74Q124.72-2.05 126.10-2.24Q127.49-2.44 128.83-2.44L128.83-2.44Q131.88-2.44 133.51-0.59Q135.13 1.26 135.13 4.42ZM140.00 6.10L140.00 0.70L137.01 0.70L137.01-2.16L140.00-2.16L140.00-5.46L143.45-6.02L143.45-2.16L148.96-2.16L148.96 0.70L143.45 0.70L143.45 6.02Q143.45 6.74 143.59 7.19Q143.73 7.64 143.98 7.89Q144.23 8.14 144.60 8.23Q144.96 8.31 145.41 8.31L145.41 8.31Q145.88 8.31 146.29 8.28Q146.70 8.26 147.07 8.19Q147.45 8.12 147.86 7.98Q148.26 7.84 148.74 7.61L148.74 7.61L149.22 10.58Q148.26 10.97 147.16 11.14Q146.05 11.31 145.02 11.31L145.02 11.31Q143.81 11.31 142.89 11.11Q141.96 10.92 141.32 10.36Q140.68 9.80 140.34 8.77Q140.00 7.75 140.00 6.10L140.00 6.10Z"/>
    </g>
</svg>