<?xml version="1.0" encoding="UTF-8"?><svg height="26" width="66.3" version="1.1" xmlns="http://www.w3.org/2000/svg"><!--Created by Josélio de S. C. Júnior - 2021 - https://github.com/joseliojunior --><rect height="24" width="64.3" rx="1" ry="1" x="1" y="1" fill="#5886E1" stroke="#183d86" stroke-width="1" /><g transform="translate(0, 8)"><path fill="#183d86" d="M24.74 10.21L24.74 10.21Q22.64 10.21 21.54 8.86Q20.43 7.52 20.43 5.04L20.43 5.04Q20.43 3.81 20.77 2.85Q21.10 1.89 21.70 1.22Q22.30 0.56 23.13 0.22Q23.95-0.13 24.93-0.13L24.93-0.13Q25.46-0.13 25.88-0.04Q26.30 0.05 26.62 0.16Q26.94 0.27 27.16 0.40Q27.38 0.53 27.49 0.59L27.49 0.59L26.98 2.16Q26.61 1.92 26.09 1.75Q25.57 1.58 24.90 1.58L24.90 1.58Q24.43 1.58 23.99 1.75Q23.55 1.92 23.21 2.31Q22.86 2.70 22.65 3.36Q22.43 4.02 22.43 4.99L22.43 4.99Q22.43 6.69 23.02 7.59Q23.60 8.50 24.93 8.50L24.93 8.50Q25.70 8.50 26.20 8.32Q26.70 8.14 27.01 7.97L27.01 7.97L27.50 9.52Q27.09 9.78 26.38 9.99Q25.66 10.21 24.74 10.21ZM31.97 10.21L31.97 10.21Q31.01 10.21 30.36 9.94Q29.71 9.68 29.33 9.18Q28.94 8.69 28.78 7.98Q28.62 7.28 28.62 6.42L28.62 6.42L28.62 0.10L30.61 0.10L30.61 6.29Q30.61 6.91 30.67 7.34Q30.74 7.76 30.89 8.02Q31.04 8.27 31.31 8.38Q31.58 8.50 32 8.50L32 8.50Q32.42 8.50 32.69 8.38Q32.96 8.27 33.12 8.01Q33.28 7.74 33.34 7.32Q33.41 6.90 33.41 6.27L33.41 6.27L33.41 0.10L35.38 0.10L35.38 6.42Q35.38 7.28 35.22 7.98Q35.06 8.69 34.66 9.18Q34.26 9.68 33.60 9.94Q32.94 10.21 31.97 10.21ZM43.36 10L37.01 10L37.01 0.10L43.01 0.10L43.01 1.73L38.98 1.73L38.98 3.95L42.48 3.95L42.48 5.58L38.98 5.58L38.98 8.37L43.36 8.37L43.36 10Z"/></g></svg>