<?xml version="1.0" encoding="UTF-8"?>
<svg height="34" width="78.3" version="1.1" xmlns="http://www.w3.org/2000/svg"><!--Created by Josélio de S. C. Júnior - 2021 - https://github.com/joseliojunior -->
    <rect
        height="32"
        width="76.3"
        rx="1"
        ry="1"
        x="1" y="1"
        fill="#5886E1"
        stroke="#183d86"
        stroke-width="1" />
    <g transform="translate(0, 12)">
        <path fill="#183d86" d="M27.10 12.31L27.10 12.31Q23.96 12.31 22.30 10.30Q20.65 8.28 20.65 4.56L20.65 4.56Q20.65 2.71 21.15 1.27Q21.66-0.17 22.56-1.16Q23.46-2.16 24.69-2.68Q25.93-3.19 27.39-3.19L27.39-3.19Q28.18-3.19 28.82-3.06Q29.46-2.93 29.94-2.76Q30.42-2.59 30.74-2.40Q31.06-2.21 31.23-2.11L31.23-2.11L30.46 0.24Q29.91-0.12 29.13-0.37Q28.35-0.62 27.34-0.62L27.34-0.62Q26.65-0.62 25.99-0.37Q25.33-0.12 24.81 0.47Q24.30 1.06 23.97 2.04Q23.65 3.02 23.65 4.49L23.65 4.49Q23.65 7.03 24.52 8.39Q25.40 9.74 27.39 9.74L27.39 9.74Q28.54 9.74 29.30 9.48Q30.06 9.22 30.51 8.95L30.51 8.95L31.26 11.28Q30.63 11.66 29.56 11.99Q28.50 12.31 27.10 12.31ZM37.95 12.31L37.95 12.31Q36.51 12.31 35.54 11.92Q34.57 11.52 33.99 10.78Q33.42 10.03 33.18 8.98Q32.94 7.92 32.94 6.62L32.94 6.62L32.94-2.86L35.91-2.86L35.91 6.43Q35.91 7.37 36.01 8.00Q36.10 8.64 36.33 9.02Q36.56 9.41 36.97 9.58Q37.38 9.74 38 9.74L38 9.74Q38.62 9.74 39.03 9.58Q39.44 9.41 39.68 9.01Q39.92 8.62 40.02 7.98Q40.11 7.34 40.11 6.41L40.11 6.41L40.11-2.86L43.06-2.86L43.06 6.62Q43.06 7.92 42.82 8.98Q42.58 10.03 41.98 10.78Q41.38 11.52 40.40 11.92Q39.42 12.31 37.95 12.31ZM55.04 12L45.51 12L45.51-2.86L54.51-2.86L54.51-0.41L48.46-0.41L48.46 2.93L53.72 2.93L53.72 5.38L48.46 5.38L48.46 9.55L55.04 9.55L55.04 12Z"/>
    </g>
</svg>