<?xml version="1.0" encoding="UTF-8"?>
<svg height="34" width="134.8" version="1.1" xmlns="http://www.w3.org/2000/svg">
    <rect
        height="32"
        width="132.8"
        rx="14"
        ry="14"
        x="1"
        y="1"
        fill="#e5cd45"
        stroke="#7d6d12"
        stroke-width="1"
         />
    <g transform="translate(0, 14)">
        <path fill="#7d6d12" d="M14.26 2.32L14.26 2.32Q14.26 3.58 14.35 4.69Q14.45 5.79 14.75 6.60Q15.04 7.42 15.57 7.89Q16.10 8.37 17 8.37L17 8.37Q17.87 8.37 18.41 7.89Q18.96 7.42 19.25 6.59Q19.55 5.76 19.65 4.67Q19.74 3.58 19.74 2.32L19.74 2.32Q19.74 1.06 19.65-0.05Q19.55-1.15 19.25-1.96Q18.96-2.78 18.43-3.25Q17.90-3.73 17-3.73L17-3.73Q16.10-3.73 15.57-3.25Q15.04-2.78 14.75-1.95Q14.45-1.12 14.35-0.03Q14.26 1.06 14.26 2.32ZM10.76 2.32L10.76 2.32Q10.76-2.16 12.41-4.44Q14.06-6.72 17-6.72L17-6.72Q20.05-6.72 21.65-4.44Q23.24-2.16 23.24 2.32L23.24 2.32Q23.24 6.80 21.62 9.08Q20.00 11.36 17.03 11.36L17.03 11.36Q13.98 11.36 12.37 9.08Q10.76 6.80 10.76 2.32ZM33.63 4.53L33.63 4.53Q33.63 2.77 32.93 1.63Q32.23 0.50 30.80 0.50L30.80 0.50Q30.41 0.50 29.96 0.54Q29.52 0.58 29.21 0.61L29.21 0.61L29.21 7.84Q29.54 8.06 30.10 8.20Q30.66 8.34 31.22 8.34L31.22 8.34Q32.46 8.34 33.04 7.35Q33.63 6.35 33.63 4.53ZM37.13 4.42L37.13 4.42Q37.13 5.93 36.80 7.21Q36.46 8.48 35.82 9.39Q35.17 10.30 34.19 10.80Q33.21 11.31 31.92 11.31L31.92 11.31Q30.61 11.31 29.21 10.66L29.21 10.66L29.21 15.62L25.76 15.62L25.76-1.74Q26.72-2.05 28.10-2.24Q29.49-2.44 30.83-2.44L30.83-2.44Q33.88-2.44 35.51-0.59Q37.13 1.26 37.13 4.42ZM38.87 4.53L38.87 4.53Q38.87 2.80 39.40 1.48Q39.93 0.16 40.80-0.72Q41.67-1.60 42.79-2.05Q43.91-2.50 45.08-2.50L45.08-2.50Q48.00-2.50 49.51-0.77Q51.02 0.95 51.02 4.25L51.02 4.25Q51.02 4.59 51.01 4.95Q50.99 5.32 50.96 5.54L50.96 5.54L42.42 5.54Q42.42 6.83 43.49 7.57Q44.55 8.31 46.23 8.31L46.23 8.31Q47.27 8.31 48.21 8.09Q49.14 7.86 49.79 7.64L49.79 7.64L50.26 10.58Q49.37 10.89 48.36 11.10Q47.35 11.31 46.09 11.31L46.09 11.31Q44.41 11.31 43.08 10.87Q41.75 10.44 40.81 9.59Q39.88 8.73 39.37 7.47Q38.87 6.21 38.87 4.53ZM42.42 3.16L47.69 3.16Q47.69 2.63 47.55 2.14Q47.41 1.65 47.10 1.26Q46.79 0.86 46.32 0.63Q45.84 0.39 45.14 0.39L45.14 0.39Q44.47 0.39 43.98 0.61Q43.49 0.84 43.17 1.23Q42.84 1.62 42.66 2.12Q42.48 2.63 42.42 3.16L42.42 3.16ZM53.76 11L53.76-1.74Q54.69-1.99 56.05-2.22Q57.40-2.44 59-2.44L59-2.44Q60.57-2.44 61.60-2.01Q62.64-1.57 63.24-0.77Q63.84 0.02 64.10 1.13Q64.35 2.24 64.35 3.58L64.35 3.58L64.35 11L60.90 11L60.90 4.03Q60.90 2.18 60.48 1.37Q60.06 0.56 58.78 0.56L58.78 0.56Q58.38 0.56 58.01 0.58Q57.63 0.61 57.21 0.67L57.21 0.67L57.21 11L53.76 11ZM72.50 8.48L72.50 8.48Q73.36 8.48 73.94 8.30Q74.51 8.12 74.85 7.79Q75.18 7.47 75.31 7.07Q75.44 6.66 75.44 6.24L75.44 6.24Q75.44 5.71 75.13 5.29Q74.82 4.87 74.34 4.55Q73.87 4.22 73.28 3.96Q72.69 3.69 72.10 3.47L72.10 3.47Q71.32 3.19 70.48 2.82Q69.64 2.46 68.95 1.90Q68.27 1.34 67.82 0.51Q67.37-0.31 67.37-1.54L67.37-1.54Q67.37-3.98 68.95-5.35Q70.54-6.72 73.31-6.72L73.31-6.72Q74.90-6.72 76.09-6.36Q77.28-6.00 78.10-5.55L78.10-5.55L77.09-2.89Q76.39-3.28 75.53-3.56Q74.68-3.84 73.56-3.84L73.56-3.84Q70.82-3.84 70.82-1.85L70.82-1.85Q70.82-1.35 71.10-0.97Q71.38-0.59 71.81-0.30Q72.24-0.00 72.79 0.22Q73.34 0.44 73.87 0.64L73.87 0.64Q74.68 0.95 75.56 1.33Q76.44 1.70 77.19 2.33Q77.93 2.96 78.40 3.90Q78.88 4.84 78.88 6.27L78.88 6.27Q78.88 8.70 77.30 10.03Q75.72 11.36 72.50 11.36L72.50 11.36Q70.34 11.36 69.05 10.90Q67.76 10.44 67.12 10.05L67.12 10.05L68.13 7.25Q68.88 7.70 69.93 8.09Q70.98 8.48 72.50 8.48ZM88.29 11.36L88.29 11.36Q84.62 11.36 82.69 9.01Q80.76 6.66 80.76 2.32L80.76 2.32Q80.76 0.16 81.34-1.52Q81.93-3.20 82.98-4.36Q84.03-5.52 85.47-6.12Q86.92-6.72 88.62-6.72L88.62-6.72Q89.55-6.72 90.29-6.57Q91.03-6.42 91.59-6.22Q92.15-6.02 92.53-5.80Q92.91-5.58 93.10-5.46L93.10-5.46L92.21-2.72Q91.56-3.14 90.65-3.43Q89.74-3.73 88.57-3.73L88.57-3.73Q87.76-3.73 86.99-3.43Q86.22-3.14 85.61-2.45Q85.01-1.77 84.63-0.62Q84.26 0.53 84.26 2.24L84.26 2.24Q84.26 5.20 85.28 6.79Q86.30 8.37 88.62 8.37L88.62 8.37Q89.97 8.37 90.85 8.06Q91.73 7.75 92.26 7.44L92.26 7.44L93.13 10.16Q92.40 10.61 91.16 10.99Q89.91 11.36 88.29 11.36ZM107.75 11L104.05 11L103.24 7.00L98.62 7.00L97.84 11L94.25 11Q95.48 5.88 96.74 1.66Q98.00-2.55 99.18-6.33L99.18-6.33L102.93-6.33Q104.16-2.52 105.38 1.75Q106.60 6.02 107.75 11L107.75 11ZM100.97-2.97L100.97-2.97Q100.69-1.99 100.45-1.11Q100.22-0.23 100.01 0.63Q99.80 1.48 99.61 2.35Q99.43 3.22 99.26 4.14L99.26 4.14L102.65 4.14Q102.48 3.22 102.32 2.35Q102.15 1.48 101.94 0.63Q101.73-0.23 101.49-1.11Q101.25-1.99 100.97-2.97ZM112.96-3.45L112.96 8.20Q113.10 8.23 113.26 8.23Q113.43 8.23 113.57 8.23L113.57 8.23Q114.75 8.23 115.55 7.78Q116.34 7.33 116.83 6.55Q117.32 5.76 117.53 4.69Q117.74 3.61 117.74 2.32L117.74 2.32Q117.74 1.20 117.58 0.14Q117.41-0.93 116.99-1.74Q116.57-2.55 115.84-3.04Q115.11-3.53 113.96-3.53L113.96-3.53Q113.74-3.53 113.46-3.52Q113.18-3.50 112.96-3.45L112.96-3.45ZM121.24 2.32L121.24 2.32Q121.24 4.73 120.64 6.42Q120.04 8.12 118.98 9.18Q117.91 10.24 116.44 10.73Q114.97 11.22 113.21 11.22L113.21 11.22Q112.28 11.22 111.40 11.13Q110.52 11.03 109.51 10.80L109.51 10.80L109.51-6.11Q110.69-6.36 111.72-6.44Q112.76-6.53 113.66-6.53L113.66-6.53Q115.36-6.53 116.78-6.02Q118.19-5.52 119.17-4.44Q120.15-3.36 120.70-1.70Q121.24-0.03 121.24 2.32Z"/>
    </g>
</svg>