<?xml version="1.0" encoding="UTF-8"?>
<svg height="34" width="205.29999999999998" version="1.1" xmlns="http://www.w3.org/2000/svg">
    <rect
        height="32"
        width="203.29999999999998"
        rx="14"
        ry="14"
        x="1"
        y="1"
        fill="#222c37"
        stroke="#5b7795"
        stroke-width="1"
         />
    <g transform="translate(0, 14)">
        <path fill="#5b7795" d="M16.94 11.36L16.94 11.36Q15.26 11.36 14.13 10.90Q13.00 10.44 12.32 9.57Q11.65 8.70 11.37 7.47Q11.09 6.24 11.09 4.73L11.09 4.73L11.09-6.33L14.56-6.33L14.56 4.50Q14.56 5.60 14.68 6.34Q14.79 7.08 15.05 7.53Q15.32 7.98 15.80 8.17Q16.27 8.37 17 8.37L17 8.37Q17.73 8.37 18.20 8.17Q18.68 7.98 18.96 7.51Q19.24 7.05 19.35 6.31Q19.46 5.57 19.46 4.48L19.46 4.48L19.46-6.33L22.91-6.33L22.91 4.73Q22.91 6.24 22.63 7.47Q22.35 8.70 21.65 9.57Q20.95 10.44 19.80 10.90Q18.65 11.36 16.94 11.36ZM25.76 11L25.76-1.74Q26.69-1.99 28.05-2.22Q29.40-2.44 31-2.44L31-2.44Q32.57-2.44 33.60-2.01Q34.64-1.57 35.24-0.77Q35.84 0.02 36.10 1.13Q36.35 2.24 36.35 3.58L36.35 3.58L36.35 11L32.90 11L32.90 4.03Q32.90 2.18 32.48 1.37Q32.06 0.56 30.78 0.56L30.78 0.56Q30.38 0.56 30.01 0.58Q29.63 0.61 29.21 0.67L29.21 0.67L29.21 11L25.76 11ZM45.95-5.94L45.95-5.94Q45.95-4.93 45.31-4.34Q44.66-3.76 43.77-3.76L43.77-3.76Q42.87-3.76 42.24-4.34Q41.61-4.93 41.61-5.94L41.61-5.94Q41.61-6.98 42.24-7.56Q42.87-8.15 43.77-8.15L43.77-8.15Q44.66-8.15 45.31-7.56Q45.95-6.98 45.95-5.94ZM50.63 7.67L51.08 10.44Q50.01 10.94 49.07 11.13Q48.14 11.31 47.35 11.31L47.35 11.31Q46.01 11.31 45.10 10.92Q44.19 10.52 43.64 9.78Q43.10 9.04 42.87 7.98Q42.65 6.91 42.65 5.54L42.65 5.54L42.65 0.70L39.01 0.70L39.01-2.16L46.09-2.16L46.09 5.99Q46.09 7.16 46.53 7.74Q46.96 8.31 47.97 8.31L47.97 8.31Q48.44 8.31 49.12 8.19Q49.79 8.06 50.63 7.67L50.63 7.67ZM56.00 6.10L56.00 0.70L53.01 0.70L53.01-2.16L56.00-2.16L56.00-5.46L59.45-6.02L59.45-2.16L64.96-2.16L64.96 0.70L59.45 0.70L59.45 6.02Q59.45 6.74 59.59 7.19Q59.73 7.64 59.98 7.89Q60.23 8.14 60.60 8.23Q60.96 8.31 61.41 8.31L61.41 8.31Q61.88 8.31 62.29 8.28Q62.70 8.26 63.07 8.19Q63.45 8.12 63.86 7.98Q64.26 7.84 64.74 7.61L64.74 7.61L65.22 10.58Q64.26 10.97 63.16 11.14Q62.05 11.31 61.02 11.31L61.02 11.31Q59.81 11.31 58.89 11.11Q57.96 10.92 57.32 10.36Q56.68 9.80 56.34 8.77Q56.00 7.75 56.00 6.10L56.00 6.10ZM75.69-2.16L79.22-2.16Q78.68-0.31 78.19 1.47Q77.70 3.24 77.17 4.94Q76.64 6.63 76.04 8.26Q75.44 9.88 74.74 11.42L74.74 11.42Q74.20 12.54 73.69 13.35Q73.17 14.16 72.54 14.68Q71.91 15.20 71.14 15.45Q70.37 15.70 69.33 15.70L69.33 15.70Q68.46 15.70 67.75 15.56Q67.04 15.42 66.56 15.20L66.56 15.20L67.20 12.32Q67.76 12.57 68.20 12.67Q68.63 12.76 69.14 12.76L69.14 12.76Q70.14 12.76 70.76 12.09Q71.38 11.42 71.74 10.50L71.74 10.50Q70.51 8.03 69.28 4.85Q68.04 1.68 67.04-2.16L67.04-2.16L70.62-2.16Q70.87-1.12 71.19 0.05Q71.52 1.23 71.88 2.40Q72.24 3.58 72.65 4.71Q73.06 5.85 73.48 6.83L73.48 6.83Q73.76 5.85 74.06 4.71Q74.37 3.58 74.65 2.42Q74.93 1.26 75.20 0.08Q75.46-1.10 75.69-2.16L75.69-2.16ZM85.96 11.36L85.96 11.36Q85.32 11.36 84.61 11.27Q83.89 11.17 83.23 11.03Q82.58 10.89 82.02 10.72Q81.46 10.55 81.15 10.41L81.15 10.41L81.82 7.53Q82.46 7.81 83.49 8.12Q84.51 8.42 85.94 8.42L85.94 8.42Q87.70 8.42 88.41 7.67Q89.13 6.91 89.13 5.79L89.13 5.79Q89.13 4.42 88.04 3.87Q86.94 3.33 85.26 3.33L85.26 3.33L84.20 3.33L84.20 0.47L85.49 0.47Q86.02 0.47 86.55 0.36Q87.08 0.25 87.50-0.00Q87.92-0.26 88.19-0.68Q88.46-1.10 88.46-1.74L88.46-1.74Q88.46-2.69 87.88-3.24Q87.31-3.78 86.30-3.78L86.30-3.78Q85.32-3.78 84.35-3.46Q83.39-3.14 82.69-2.66L82.69-2.66L81.46-5.18Q82.21-5.69 83.46-6.21Q84.70-6.72 86.27-6.72L86.27-6.72Q87.73-6.72 88.81-6.36Q89.88-6.00 90.58-5.34Q91.28-4.68 91.62-3.78Q91.96-2.89 91.96-1.85L91.96-1.85Q91.96-0.82 91.37 0.14Q90.78 1.09 89.80 1.59L89.80 1.59Q91.14 2.15 91.89 3.24Q92.63 4.34 92.63 5.85L92.63 5.85Q92.63 7.05 92.24 8.06Q91.84 9.07 91.03 9.81Q90.22 10.55 88.96 10.96Q87.70 11.36 85.96 11.36ZM98.96-3.45L98.96 8.20Q99.10 8.23 99.26 8.23Q99.43 8.23 99.57 8.23L99.57 8.23Q100.75 8.23 101.55 7.78Q102.34 7.33 102.83 6.55Q103.32 5.76 103.53 4.69Q103.74 3.61 103.74 2.32L103.74 2.32Q103.74 1.20 103.58 0.14Q103.41-0.93 102.99-1.74Q102.57-2.55 101.84-3.04Q101.11-3.53 99.96-3.53L99.96-3.53Q99.74-3.53 99.46-3.52Q99.18-3.50 98.96-3.45L98.96-3.45ZM107.24 2.32L107.24 2.32Q107.24 4.73 106.64 6.42Q106.04 8.12 104.98 9.18Q103.91 10.24 102.44 10.73Q100.97 11.22 99.21 11.22L99.21 11.22Q98.28 11.22 97.40 11.13Q96.52 11.03 95.51 10.80L95.51 10.80L95.51-6.11Q96.69-6.36 97.72-6.44Q98.76-6.53 99.66-6.53L99.66-6.53Q101.36-6.53 102.78-6.02Q104.19-5.52 105.17-4.44Q106.15-3.36 106.70-1.70Q107.24-0.03 107.24 2.32ZM135.75 11L132.05 11L131.24 7.00L126.62 7.00L125.84 11L122.25 11Q123.48 5.88 124.74 1.66Q126.00-2.55 127.18-6.33L127.18-6.33L130.93-6.33Q132.16-2.52 133.38 1.75Q134.60 6.02 135.75 11L135.75 11ZM128.97-2.97L128.97-2.97Q128.69-1.99 128.45-1.11Q128.22-0.23 128.01 0.63Q127.80 1.48 127.61 2.35Q127.43 3.22 127.26 4.14L127.26 4.14L130.65 4.14Q130.48 3.22 130.32 2.35Q130.15 1.48 129.94 0.63Q129.73-0.23 129.49-1.11Q129.25-1.99 128.97-2.97ZM142.38 8.40L142.38 8.40Q143.64 8.40 144.32 8.21Q144.99 8.03 144.99 7.47L144.99 7.47Q144.99 7.11 144.78 6.86Q144.57 6.60 144.19 6.42Q143.81 6.24 143.32 6.07Q142.83 5.90 142.30 5.74L142.30 5.74Q141.54 5.51 140.76 5.22Q139.98 4.92 139.33 4.48Q138.69 4.03 138.27 3.34Q137.85 2.66 137.85 1.62L137.85 1.62Q137.85 0.78 138.17 0.04Q138.49-0.70 139.18-1.28Q139.86-1.85 140.93-2.17Q141.99-2.50 143.48-2.50L143.48-2.50Q144.76-2.50 145.87-2.30Q146.98-2.10 147.79-1.74L147.79-1.74L147.26 1.17Q146.78 1.03 145.77 0.71Q144.76 0.39 143.50 0.39L143.50 0.39Q142.19 0.39 141.73 0.71Q141.26 1.03 141.26 1.40L141.26 1.40Q141.26 1.70 141.47 1.94Q141.68 2.18 142.03 2.38Q142.38 2.57 142.85 2.75Q143.31 2.94 143.84 3.10L143.84 3.10Q144.60 3.36 145.41 3.66Q146.22 3.97 146.88 4.43Q147.54 4.90 147.96 5.61Q148.38 6.32 148.38 7.36L148.38 7.36Q148.38 8.17 148.07 8.90Q147.76 9.63 147.05 10.16Q146.33 10.69 145.18 11Q144.04 11.31 142.36 11.31L142.36 11.31Q140.65 11.31 139.44 10.92Q138.24 10.52 137.51 10.22L137.51 10.22L138.04 7.33Q139.02 7.72 140.13 8.06Q141.24 8.40 142.38 8.40ZM156.38 8.40L156.38 8.40Q157.64 8.40 158.32 8.21Q158.99 8.03 158.99 7.47L158.99 7.47Q158.99 7.11 158.78 6.86Q158.57 6.60 158.19 6.42Q157.81 6.24 157.32 6.07Q156.83 5.90 156.30 5.74L156.30 5.74Q155.54 5.51 154.76 5.22Q153.98 4.92 153.33 4.48Q152.69 4.03 152.27 3.34Q151.85 2.66 151.85 1.62L151.85 1.62Q151.85 0.78 152.17 0.04Q152.49-0.70 153.18-1.28Q153.86-1.85 154.93-2.17Q155.99-2.50 157.48-2.50L157.48-2.50Q158.76-2.50 159.87-2.30Q160.98-2.10 161.79-1.74L161.79-1.74L161.26 1.17Q160.78 1.03 159.77 0.71Q158.76 0.39 157.50 0.39L157.50 0.39Q156.19 0.39 155.73 0.71Q155.26 1.03 155.26 1.40L155.26 1.40Q155.26 1.70 155.47 1.94Q155.68 2.18 156.03 2.38Q156.38 2.57 156.85 2.75Q157.31 2.94 157.84 3.10L157.84 3.10Q158.60 3.36 159.41 3.66Q160.22 3.97 160.88 4.43Q161.54 4.90 161.96 5.61Q162.38 6.32 162.38 7.36L162.38 7.36Q162.38 8.17 162.07 8.90Q161.76 9.63 161.05 10.16Q160.33 10.69 159.18 11Q158.04 11.31 156.36 11.31L156.36 11.31Q154.65 11.31 153.44 10.92Q152.24 10.52 151.51 10.22L151.51 10.22L152.04 7.33Q153.02 7.72 154.13 8.06Q155.24 8.40 156.38 8.40ZM164.87 4.53L164.87 4.53Q164.87 2.80 165.40 1.48Q165.93 0.16 166.80-0.72Q167.67-1.60 168.79-2.05Q169.91-2.50 171.08-2.50L171.08-2.50Q174.00-2.50 175.51-0.77Q177.02 0.95 177.02 4.25L177.02 4.25Q177.02 4.59 177.01 4.95Q176.99 5.32 176.96 5.54L176.96 5.54L168.42 5.54Q168.42 6.83 169.49 7.57Q170.55 8.31 172.23 8.31L172.23 8.31Q173.27 8.31 174.21 8.09Q175.14 7.86 175.79 7.64L175.79 7.64L176.26 10.58Q175.37 10.89 174.36 11.10Q173.35 11.31 172.09 11.31L172.09 11.31Q170.41 11.31 169.08 10.87Q167.75 10.44 166.81 9.59Q165.88 8.73 165.37 7.47Q164.87 6.21 164.87 4.53ZM168.42 3.16L173.69 3.16Q173.69 2.63 173.55 2.14Q173.41 1.65 173.10 1.26Q172.79 0.86 172.32 0.63Q171.84 0.39 171.14 0.39L171.14 0.39Q170.47 0.39 169.98 0.61Q169.49 0.84 169.17 1.23Q168.84 1.62 168.66 2.12Q168.48 2.63 168.42 3.16L168.42 3.16ZM182.00 6.10L182.00 0.70L179.01 0.70L179.01-2.16L182.00-2.16L182.00-5.46L185.45-6.02L185.45-2.16L190.96-2.16L190.96 0.70L185.45 0.70L185.45 6.02Q185.45 6.74 185.59 7.19Q185.73 7.64 185.98 7.89Q186.23 8.14 186.60 8.23Q186.96 8.31 187.41 8.31L187.41 8.31Q187.88 8.31 188.29 8.28Q188.70 8.26 189.07 8.19Q189.45 8.12 189.86 7.98Q190.26 7.84 190.74 7.61L190.74 7.61L191.22 10.58Q190.26 10.97 189.16 11.14Q188.05 11.31 187.02 11.31L187.02 11.31Q185.81 11.31 184.89 11.11Q183.96 10.92 183.32 10.36Q182.68 9.80 182.34 8.77Q182.00 7.75 182.00 6.10L182.00 6.10Z"/>
    </g>
</svg>