<?xml version="1.0" encoding="UTF-8"?>
<svg height="34" width="64.3" version="1.1" xmlns="http://www.w3.org/2000/svg">
    <rect
        height="32"
        width="62.3"
        rx="14"
        ry="14"
        x="1"
        y="1"
        fill="#0060ac"
        stroke="#47acff"
        stroke-width="1"
         />
    <g transform="translate(0, 14)">
        <path fill="#47acff" d="M23.69 11L19.97 11Q19.44 9.57 18.67 7.84Q17.90 6.10 17.06 4.36L17.06 4.36Q16.24 6.02 15.43 7.79Q14.62 9.57 14.03 11L14.03 11L10.31 11Q10.59 10.24 11.13 9.18Q11.68 8.12 12.34 6.88Q13.00 5.65 13.72 4.35Q14.45 3.05 15.12 1.84L15.12 1.84L10.59-6.33L14.31-6.33L17.06-0.79L19.94-6.33L23.41-6.33L18.99 1.76Q19.74 2.96 20.47 4.28Q21.20 5.60 21.83 6.84Q22.46 8.09 22.94 9.17Q23.41 10.24 23.69 11L23.69 11ZM25.65-6.33L28.51-6.33Q28.70-5.74 29.00-4.82Q29.29-3.90 29.63-2.83Q29.96-1.77 30.30-0.68Q30.64 0.42 30.94 1.34L30.94 1.34Q31.28 0.30 31.64-0.80Q32.01-1.91 32.34-2.93Q32.68-3.95 32.96-4.85Q33.24-5.74 33.46-6.33L33.46-6.33L36.32-6.33Q36.52-4.06 36.70-1.91Q36.88 0.25 37.01 2.36Q37.13 4.48 37.22 6.62Q37.30 8.76 37.36 11L37.36 11L34.19 11L34.36-2.47L32.23 4.87L29.71 4.87L27.67-2.47L27.81 11L24.64 11Q24.73 8.87 24.83 6.58Q24.92 4.28 25.04 2.01Q25.15-0.26 25.30-2.38Q25.46-4.51 25.65-6.33L25.65-6.33ZM50.88 8.14L50.88 11L39.99 11L39.99-6.33L43.46-6.33L43.46 8.14L50.88 8.14Z"/>
    </g>
</svg>