<?xml version="1.0" encoding="UTF-8"?>
<svg height="34" width="318.09999999999997" version="1.1" xmlns="http://www.w3.org/2000/svg">
    <rect
        height="32"
        width="316.09999999999997"
        rx="14"
        ry="14"
        x="1"
        y="1"
        fill="#005daa"
        stroke="#42aaff"
        stroke-width="1"
         />
    <g transform="translate(0, 14)">
        <path fill="#42aaff" d="M11.65-6.33L14.51-6.33Q14.70-5.74 15.00-4.82Q15.29-3.90 15.63-2.83Q15.96-1.77 16.30-0.68Q16.64 0.42 16.94 1.34L16.94 1.34Q17.28 0.30 17.64-0.80Q18.01-1.91 18.34-2.93Q18.68-3.95 18.96-4.85Q19.24-5.74 19.46-6.33L19.46-6.33L22.32-6.33Q22.52-4.06 22.70-1.91Q22.88 0.25 23.01 2.36Q23.13 4.48 23.22 6.62Q23.30 8.76 23.36 11L23.36 11L20.19 11L20.36-2.47L18.23 4.87L15.71 4.87L13.67-2.47L13.81 11L10.64 11Q10.73 8.87 10.83 6.58Q10.92 4.28 11.04 2.01Q11.15-0.26 11.30-2.38Q11.46-4.51 11.65-6.33L11.65-6.33ZM37.22 4.39L37.22 4.39Q37.22 5.96 36.77 7.23Q36.32 8.51 35.51 9.43Q34.70 10.36 33.56 10.86Q32.43 11.36 31.03 11.36L31.03 11.36Q29.63 11.36 28.49 10.86Q27.36 10.36 26.53 9.43Q25.71 8.51 25.26 7.23Q24.81 5.96 24.81 4.39L24.81 4.39Q24.81 2.85 25.27 1.58Q25.74 0.30 26.56-0.61Q27.39-1.52 28.54-2.01Q29.68-2.50 31.03-2.50L31.03-2.50Q32.40-2.50 33.53-2.01Q34.67-1.52 35.49-0.61Q36.32 0.30 36.77 1.58Q37.22 2.85 37.22 4.39ZM28.31 4.42L28.31 4.42Q28.31 6.18 28.94 7.28Q29.57 8.37 30.97 8.37L30.97 8.37Q32.32 8.37 33.00 7.28Q33.69 6.18 33.69 4.42L33.69 4.42Q33.69 2.66 33.06 1.58Q32.43 0.50 31.03 0.50L31.03 0.50Q29.68 0.50 29.00 1.58Q28.31 2.66 28.31 4.42ZM42.00 6.10L42.00 0.70L39.01 0.70L39.01-2.16L42.00-2.16L42.00-5.46L45.45-6.02L45.45-2.16L50.96-2.16L50.96 0.70L45.45 0.70L45.45 6.02Q45.45 6.74 45.59 7.19Q45.73 7.64 45.98 7.89Q46.23 8.14 46.60 8.23Q46.96 8.31 47.41 8.31L47.41 8.31Q47.88 8.31 48.29 8.28Q48.70 8.26 49.07 8.19Q49.45 8.12 49.86 7.98Q50.26 7.84 50.74 7.61L50.74 7.61L51.22 10.58Q50.26 10.97 49.16 11.14Q48.05 11.31 47.02 11.31L47.02 11.31Q45.81 11.31 44.89 11.11Q43.96 10.92 43.32 10.36Q42.68 9.80 42.34 8.77Q42.00 7.75 42.00 6.10L42.00 6.10ZM65.22 4.39L65.22 4.39Q65.22 5.96 64.77 7.23Q64.32 8.51 63.51 9.43Q62.70 10.36 61.56 10.86Q60.43 11.36 59.03 11.36L59.03 11.36Q57.63 11.36 56.49 10.86Q55.36 10.36 54.53 9.43Q53.71 8.51 53.26 7.23Q52.81 5.96 52.81 4.39L52.81 4.39Q52.81 2.85 53.27 1.58Q53.74 0.30 54.56-0.61Q55.39-1.52 56.54-2.01Q57.68-2.50 59.03-2.50L59.03-2.50Q60.40-2.50 61.53-2.01Q62.67-1.52 63.49-0.61Q64.32 0.30 64.77 1.58Q65.22 2.85 65.22 4.39ZM56.31 4.42L56.31 4.42Q56.31 6.18 56.94 7.28Q57.57 8.37 58.97 8.37L58.97 8.37Q60.32 8.37 61.00 7.28Q61.69 6.18 61.69 4.42L61.69 4.42Q61.69 2.66 61.06 1.58Q60.43 0.50 59.03 0.50L59.03 0.50Q57.68 0.50 57.00 1.58Q56.31 2.66 56.31 4.42ZM78.85-1.85L78.24 1.34Q77.90 1.26 77.44 1.17Q76.98 1.09 76.50 1.02Q76.02 0.95 75.58 0.92Q75.13 0.89 74.82 0.89L74.82 0.89Q74.09 0.89 73.39 0.96Q72.69 1.03 71.96 1.23L71.96 1.23L71.96 11L68.49 11L68.49-1.29Q69.86-1.80 71.31-2.10Q72.75-2.41 74.68-2.41L74.68-2.41Q74.96-2.41 75.48-2.38Q76.00-2.36 76.58-2.29Q77.17-2.22 77.77-2.12Q78.38-2.02 78.85-1.85L78.85-1.85ZM93.22 4.39L93.22 4.39Q93.22 5.96 92.77 7.23Q92.32 8.51 91.51 9.43Q90.70 10.36 89.56 10.86Q88.43 11.36 87.03 11.36L87.03 11.36Q85.63 11.36 84.49 10.86Q83.36 10.36 82.53 9.43Q81.71 8.51 81.26 7.23Q80.81 5.96 80.81 4.39L80.81 4.39Q80.81 2.85 81.27 1.58Q81.74 0.30 82.56-0.61Q83.39-1.52 84.54-2.01Q85.68-2.50 87.03-2.50L87.03-2.50Q88.40-2.50 89.53-2.01Q90.67-1.52 91.49-0.61Q92.32 0.30 92.77 1.58Q93.22 2.85 93.22 4.39ZM84.31 4.42L84.31 4.42Q84.31 6.18 84.94 7.28Q85.57 8.37 86.97 8.37L86.97 8.37Q88.32 8.37 89.00 7.28Q89.69 6.18 89.69 4.42L89.69 4.42Q89.69 2.66 89.06 1.58Q88.43 0.50 87.03 0.50L87.03 0.50Q85.68 0.50 85.00 1.58Q84.31 2.66 84.31 4.42ZM106.63 7.67L107.08 10.44Q106.99 10.50 106.70 10.64Q106.40 10.78 105.93 10.93Q105.45 11.08 104.77 11.20Q104.08 11.31 103.21 11.31L103.21 11.31Q100.83 11.31 99.74 9.89Q98.65 8.48 98.65 5.76L98.65 5.76L98.65-5.41L95.01-5.41L95.01-8.26L102.09-8.26L102.09 6.02Q102.09 7.36 102.62 7.84Q103.16 8.31 103.97 8.31L103.97 8.31Q105.00 8.31 105.70 8.03Q106.40 7.75 106.63 7.67L106.63 7.67ZM115.03 8.54L115.03 8.54Q115.59 8.54 116.12 8.52Q116.65 8.51 117.04 8.45L117.04 8.45L117.04 5.43Q116.71 5.37 116.23 5.33Q115.76 5.29 115.36 5.29L115.36 5.29Q114.83 5.29 114.33 5.36Q113.82 5.43 113.45 5.60Q113.07 5.76 112.84 6.07Q112.62 6.38 112.62 6.88L112.62 6.88Q112.62 7.78 113.29 8.16Q113.96 8.54 115.03 8.54ZM114.72-2.50L114.72-2.50Q116.34-2.50 117.42-2.12Q118.50-1.74 119.14-1.05Q119.79-0.37 120.07 0.63Q120.35 1.62 120.35 2.85L120.35 2.85L120.35 10.69Q119.59 10.86 118.11 11.08Q116.62 11.31 114.78 11.31L114.78 11.31Q113.52 11.31 112.49 11.08Q111.47 10.86 110.74 10.34Q110.02 9.82 109.62 9.00Q109.23 8.17 109.23 6.97L109.23 6.97Q109.23 5.82 109.68 5.04Q110.13 4.25 110.88 3.78Q111.64 3.30 112.62 3.09Q113.60 2.88 114.66 2.88L114.66 2.88Q116.01 2.88 117.04 3.10L117.04 3.10L117.04 2.68Q117.04 1.70 116.43 1.05Q115.81 0.39 114.30 0.39L114.30 0.39Q113.32 0.39 112.41 0.53Q111.50 0.67 110.94 0.86L110.94 0.86L110.46-1.91Q111.11-2.13 112.28-2.31Q113.46-2.50 114.72-2.50ZM142.75 2.77L142.75 2.77Q142.22 2.77 141.66 2.88Q141.10 2.99 140.73 3.19L140.73 3.19Q140.70 3.44 140.69 3.69Q140.68 3.94 140.68 4.22L140.68 4.22Q140.68 5.04 140.79 5.78Q140.90 6.52 141.18 7.11Q141.46 7.70 141.95 8.05Q142.44 8.40 143.17 8.40L143.17 8.40Q143.76 8.40 144.18 8.12Q144.60 7.84 144.86 7.42Q145.13 7.00 145.25 6.49Q145.38 5.99 145.38 5.51L145.38 5.51Q145.38 4.20 144.79 3.48Q144.20 2.77 142.75 2.77ZM143.20-0.09L143.20-0.09Q144.71-0.09 145.76 0.36Q146.81 0.81 147.48 1.56Q148.15 2.32 148.45 3.33Q148.74 4.34 148.74 5.46L148.74 5.46Q148.74 6.46 148.42 7.50Q148.10 8.54 147.42 9.40Q146.75 10.27 145.72 10.82Q144.68 11.36 143.25 11.36L143.25 11.36Q140.34 11.36 138.81 9.56Q137.29 7.75 137.29 3.92L137.29 3.92Q137.29 1.40 138.03-0.54Q138.77-2.47 140.14-3.78Q141.52-5.10 143.45-5.77Q145.38-6.44 147.73-6.44L147.73-6.44L147.93-3.50Q146.81-3.48 145.74-3.28Q144.68-3.08 143.78-2.62Q142.89-2.16 142.23-1.43Q141.57-0.70 141.26 0.39L141.26 0.39Q141.80 0.16 142.30 0.04Q142.80-0.09 143.20-0.09ZM162.49-2.22L162.49-2.22Q162.49-1.01 161.90 0.15Q161.31 1.31 160.05 2.10L160.05 2.10Q161.65 3.02 162.31 4.11Q162.96 5.20 162.96 6.52L162.96 6.52Q162.96 7.36 162.64 8.23Q162.32 9.10 161.61 9.78Q160.89 10.47 159.74 10.92Q158.60 11.36 156.92 11.36L156.92 11.36Q155.60 11.36 154.52 11.04Q153.44 10.72 152.67 10.12Q151.90 9.52 151.48 8.63Q151.06 7.75 151.06 6.66L151.06 6.66Q151.06 5.34 151.68 4.18Q152.30 3.02 153.61 2.12L153.61 2.12Q152.38 1.28 151.93 0.33Q151.48-0.62 151.48-1.68L151.48-1.68Q151.48-2.52 151.78-3.43Q152.07-4.34 152.72-5.07Q153.36-5.80 154.42-6.28Q155.49-6.75 157.06-6.75L157.06-6.75Q159.55-6.75 161.02-5.52Q162.49-4.29 162.49-2.22ZM159.72 6.46L159.72 6.46Q159.72 5.90 159.51 5.48Q159.30 5.06 158.83 4.71Q158.37 4.36 157.64 4.01Q156.92 3.66 155.91 3.27L155.91 3.27Q155.12 3.92 154.70 4.71Q154.28 5.51 154.28 6.24L154.28 6.24Q154.28 7.36 155.08 7.93Q155.88 8.51 156.97 8.51L156.97 8.51Q158.23 8.51 158.97 7.91Q159.72 7.30 159.72 6.46ZM157-3.90L157-3.90Q156.10-3.90 155.42-3.39Q154.73-2.89 154.73-1.91L154.73-1.91Q154.73-0.93 155.38-0.31Q156.02 0.30 157.64 0.98L157.64 0.98Q158.51 0.33 158.88-0.44Q159.24-1.21 159.24-1.94L159.24-1.94Q159.24-2.92 158.58-3.41Q157.92-3.90 157-3.90ZM177.69 11L173.80 11Q173.49 10.02 172.92 8.89Q172.34 7.75 171.64 6.67Q170.94 5.60 170.17 4.66Q169.40 3.72 168.70 3.08L168.70 3.08L168.70 11L165.26 11L165.26-6.33L168.70-6.33L168.70 0.86Q169.32 0.08 169.99-0.87Q170.66-1.82 171.27-2.78Q171.87-3.73 172.37-4.65Q172.88-5.58 173.21-6.33L173.21-6.33L177.10-6.33Q176.71-5.58 176.17-4.61Q175.62-3.64 174.92-2.59Q174.22-1.54 173.42-0.45Q172.62 0.64 171.76 1.65L171.76 1.65Q172.62 2.49 173.52 3.58Q174.42 4.67 175.21 5.92Q176.01 7.16 176.66 8.47Q177.30 9.77 177.69 11L177.69 11ZM205.75 11L202.05 11L201.24 7.00L196.62 7.00L195.84 11L192.25 11Q193.48 5.88 194.74 1.66Q196.00-2.55 197.18-6.33L197.18-6.33L200.93-6.33Q202.16-2.52 203.38 1.75Q204.60 6.02 205.75 11L205.75 11ZM198.97-2.97L198.97-2.97Q198.69-1.99 198.45-1.11Q198.22-0.23 198.01 0.63Q197.80 1.48 197.61 2.35Q197.43 3.22 197.26 4.14L197.26 4.14L200.65 4.14Q200.48 3.22 200.32 2.35Q200.15 1.48 199.94 0.63Q199.73-0.23 199.49-1.11Q199.25-1.99 198.97-2.97ZM212.38 8.40L212.38 8.40Q213.64 8.40 214.32 8.21Q214.99 8.03 214.99 7.47L214.99 7.47Q214.99 7.11 214.78 6.86Q214.57 6.60 214.19 6.42Q213.81 6.24 213.32 6.07Q212.83 5.90 212.30 5.74L212.30 5.74Q211.54 5.51 210.76 5.22Q209.98 4.92 209.33 4.48Q208.69 4.03 208.27 3.34Q207.85 2.66 207.85 1.62L207.85 1.62Q207.85 0.78 208.17 0.04Q208.49-0.70 209.18-1.28Q209.86-1.85 210.93-2.17Q211.99-2.50 213.48-2.50L213.48-2.50Q214.76-2.50 215.87-2.30Q216.98-2.10 217.79-1.74L217.79-1.74L217.26 1.17Q216.78 1.03 215.77 0.71Q214.76 0.39 213.50 0.39L213.50 0.39Q212.19 0.39 211.73 0.71Q211.26 1.03 211.26 1.40L211.26 1.40Q211.26 1.70 211.47 1.94Q211.68 2.18 212.03 2.38Q212.38 2.57 212.85 2.75Q213.31 2.94 213.84 3.10L213.84 3.10Q214.60 3.36 215.41 3.66Q216.22 3.97 216.88 4.43Q217.54 4.90 217.96 5.61Q218.38 6.32 218.38 7.36L218.38 7.36Q218.38 8.17 218.07 8.90Q217.76 9.63 217.05 10.16Q216.33 10.69 215.18 11Q214.04 11.31 212.36 11.31L212.36 11.31Q210.65 11.31 209.44 10.92Q208.24 10.52 207.51 10.22L207.51 10.22L208.04 7.33Q209.02 7.72 210.13 8.06Q211.24 8.40 212.38 8.40ZM226.38 8.40L226.38 8.40Q227.64 8.40 228.32 8.21Q228.99 8.03 228.99 7.47L228.99 7.47Q228.99 7.11 228.78 6.86Q228.57 6.60 228.19 6.42Q227.81 6.24 227.32 6.07Q226.83 5.90 226.30 5.74L226.30 5.74Q225.54 5.51 224.76 5.22Q223.98 4.92 223.33 4.48Q222.69 4.03 222.27 3.34Q221.85 2.66 221.85 1.62L221.85 1.62Q221.85 0.78 222.17 0.04Q222.49-0.70 223.18-1.28Q223.86-1.85 224.93-2.17Q225.99-2.50 227.48-2.50L227.48-2.50Q228.76-2.50 229.87-2.30Q230.98-2.10 231.79-1.74L231.79-1.74L231.26 1.17Q230.78 1.03 229.77 0.71Q228.76 0.39 227.50 0.39L227.50 0.39Q226.19 0.39 225.73 0.71Q225.26 1.03 225.26 1.40L225.26 1.40Q225.26 1.70 225.47 1.94Q225.68 2.18 226.03 2.38Q226.38 2.57 226.85 2.75Q227.31 2.94 227.84 3.10L227.84 3.10Q228.60 3.36 229.41 3.66Q230.22 3.97 230.88 4.43Q231.54 4.90 231.96 5.61Q232.38 6.32 232.38 7.36L232.38 7.36Q232.38 8.17 232.07 8.90Q231.76 9.63 231.05 10.16Q230.33 10.69 229.18 11Q228.04 11.31 226.36 11.31L226.36 11.31Q224.65 11.31 223.44 10.92Q222.24 10.52 221.51 10.22L221.51 10.22L222.04 7.33Q223.02 7.72 224.13 8.06Q225.24 8.40 226.38 8.40ZM234.87 4.53L234.87 4.53Q234.87 2.80 235.40 1.48Q235.93 0.16 236.80-0.72Q237.67-1.60 238.79-2.05Q239.91-2.50 241.08-2.50L241.08-2.50Q244.00-2.50 245.51-0.77Q247.02 0.95 247.02 4.25L247.02 4.25Q247.02 4.59 247.01 4.95Q246.99 5.32 246.96 5.54L246.96 5.54L238.42 5.54Q238.42 6.83 239.49 7.57Q240.55 8.31 242.23 8.31L242.23 8.31Q243.27 8.31 244.21 8.09Q245.14 7.86 245.79 7.64L245.79 7.64L246.26 10.58Q245.37 10.89 244.36 11.10Q243.35 11.31 242.09 11.31L242.09 11.31Q240.41 11.31 239.08 10.87Q237.75 10.44 236.81 9.59Q235.88 8.73 235.37 7.47Q234.87 6.21 234.87 4.53ZM238.42 3.16L243.69 3.16Q243.69 2.63 243.55 2.14Q243.41 1.65 243.10 1.26Q242.79 0.86 242.32 0.63Q241.84 0.39 241.14 0.39L241.14 0.39Q240.47 0.39 239.98 0.61Q239.49 0.84 239.17 1.23Q238.84 1.62 238.66 2.12Q238.48 2.63 238.42 3.16L238.42 3.16ZM257.60-2.30L257.60-2.30Q258.70-2.30 259.40-1.96Q260.10-1.63 260.50-0.96Q260.91-0.28 261.05 0.74Q261.19 1.76 261.19 3.13L261.19 3.13L261.19 11L258.39 11L258.39 2.96Q258.39 2.18 258.29 1.70Q258.19 1.23 258.04 0.98Q257.88 0.72 257.67 0.64Q257.46 0.56 257.24 0.56L257.24 0.56Q256.99 0.56 256.71 0.60Q256.43 0.64 256.20 0.75L256.20 0.75Q256.29 1.28 256.34 1.93Q256.40 2.57 256.40 3.36L256.40 3.36L256.40 5.99L253.60 5.99L253.60 2.96Q253.60 1.62 253.33 1.09Q253.07 0.56 252.48 0.56L252.48 0.56Q252.31 0.56 252.07 0.58Q251.84 0.61 251.61 0.67L251.61 0.67L251.61 11L248.81 11L248.81-1.66Q249.90-1.96 250.97-2.13Q252.03-2.30 252.84-2.30L252.84-2.30Q253.57-2.30 254.15-2.12Q254.72-1.94 255.14-1.52L255.14-1.52Q255.62-1.82 256.26-2.06Q256.90-2.30 257.60-2.30ZM271.66 4.34L271.66 4.34Q271.66 2.49 271.06 1.51Q270.46 0.53 269.22 0.53L269.22 0.53Q268.66 0.53 268.12 0.68Q267.57 0.84 267.18 1.06L267.18 1.06L267.18 8.20Q267.57 8.28 268.01 8.31Q268.44 8.34 268.75 8.34L268.75 8.34Q270.09 8.34 270.88 7.43Q271.66 6.52 271.66 4.34ZM275.16 4.42L275.16 4.42Q275.16 5.99 274.74 7.26Q274.32 8.54 273.51 9.43Q272.70 10.33 271.52 10.82Q270.34 11.31 268.83 11.31L268.83 11.31Q267.49 11.31 266.09 11.11Q264.69 10.92 263.74 10.61L263.74 10.61L263.74-7.84L267.18-8.43L267.18-1.85Q267.91-2.19 268.58-2.31Q269.25-2.44 269.92-2.44L269.92-2.44Q271.21-2.44 272.19-1.95Q273.17-1.46 273.83-0.55Q274.49 0.36 274.82 1.62Q275.16 2.88 275.16 4.42ZM288.63 7.67L289.08 10.44Q288.99 10.50 288.70 10.64Q288.40 10.78 287.93 10.93Q287.45 11.08 286.77 11.20Q286.08 11.31 285.21 11.31L285.21 11.31Q282.83 11.31 281.74 9.89Q280.65 8.48 280.65 5.76L280.65 5.76L280.65-5.41L277.01-5.41L277.01-8.26L284.09-8.26L284.09 6.02Q284.09 7.36 284.62 7.84Q285.16 8.31 285.97 8.31L285.97 8.31Q287.00 8.31 287.70 8.03Q288.40 7.75 288.63 7.67L288.63 7.67ZM299.69-2.16L303.22-2.16Q302.68-0.31 302.19 1.47Q301.70 3.24 301.17 4.94Q300.64 6.63 300.04 8.26Q299.44 9.88 298.74 11.42L298.74 11.42Q298.20 12.54 297.69 13.35Q297.17 14.16 296.54 14.68Q295.91 15.20 295.14 15.45Q294.37 15.70 293.33 15.70L293.33 15.70Q292.46 15.70 291.75 15.56Q291.04 15.42 290.56 15.20L290.56 15.20L291.20 12.32Q291.76 12.57 292.20 12.67Q292.63 12.76 293.14 12.76L293.14 12.76Q294.14 12.76 294.76 12.09Q295.38 11.42 295.74 10.50L295.74 10.50Q294.51 8.03 293.28 4.85Q292.04 1.68 291.04-2.16L291.04-2.16L294.62-2.16Q294.87-1.12 295.19 0.05Q295.52 1.23 295.88 2.40Q296.24 3.58 296.65 4.71Q297.06 5.85 297.48 6.83L297.48 6.83Q297.76 5.85 298.06 4.71Q298.37 3.58 298.65 2.42Q298.93 1.26 299.20 0.08Q299.46-1.10 299.69-2.16L299.69-2.16Z"/>
    </g>
</svg>