<?xml version="1.0" encoding="UTF-8"?>
<svg height="34" width="247.6" version="1.1" xmlns="http://www.w3.org/2000/svg">
    <rect
        height="32"
        width="245.6"
        rx="14"
        ry="14"
        x="1"
        y="1"
        fill="#141414"
        stroke="#616161"
        stroke-width="1"
         />
    <g transform="translate(0, 14)">
        <path fill="#616161" d="M22.85-1.85L22.24 1.34Q21.90 1.26 21.44 1.17Q20.98 1.09 20.50 1.02Q20.02 0.95 19.58 0.92Q19.13 0.89 18.82 0.89L18.82 0.89Q18.09 0.89 17.39 0.96Q16.69 1.03 15.96 1.23L15.96 1.23L15.96 11L12.49 11L12.49-1.29Q13.86-1.80 15.31-2.10Q16.75-2.41 18.68-2.41L18.68-2.41Q18.96-2.41 19.48-2.38Q20.00-2.36 20.58-2.29Q21.17-2.22 21.77-2.12Q22.38-2.02 22.85-1.85L22.85-1.85ZM24.87 4.53L24.87 4.53Q24.87 2.80 25.40 1.48Q25.93 0.16 26.80-0.72Q27.67-1.60 28.79-2.05Q29.91-2.50 31.08-2.50L31.08-2.50Q34.00-2.50 35.51-0.77Q37.02 0.95 37.02 4.25L37.02 4.25Q37.02 4.59 37.01 4.95Q36.99 5.32 36.96 5.54L36.96 5.54L28.42 5.54Q28.42 6.83 29.49 7.57Q30.55 8.31 32.23 8.31L32.23 8.31Q33.27 8.31 34.21 8.09Q35.14 7.86 35.79 7.64L35.79 7.64L36.26 10.58Q35.37 10.89 34.36 11.10Q33.35 11.31 32.09 11.31L32.09 11.31Q30.41 11.31 29.08 10.87Q27.75 10.44 26.81 9.59Q25.88 8.73 25.37 7.47Q24.87 6.21 24.87 4.53ZM28.42 3.16L33.69 3.16Q33.69 2.63 33.55 2.14Q33.41 1.65 33.10 1.26Q32.79 0.86 32.32 0.63Q31.84 0.39 31.14 0.39L31.14 0.39Q30.47 0.39 29.98 0.61Q29.49 0.84 29.17 1.23Q28.84 1.62 28.66 2.12Q28.48 2.63 28.42 3.16L28.42 3.16ZM44.50 8.48L44.50 8.48Q45.36 8.48 45.94 8.30Q46.51 8.12 46.85 7.79Q47.18 7.47 47.31 7.07Q47.44 6.66 47.44 6.24L47.44 6.24Q47.44 5.71 47.13 5.29Q46.82 4.87 46.34 4.55Q45.87 4.22 45.28 3.96Q44.69 3.69 44.10 3.47L44.10 3.47Q43.32 3.19 42.48 2.82Q41.64 2.46 40.95 1.90Q40.27 1.34 39.82 0.51Q39.37-0.31 39.37-1.54L39.37-1.54Q39.37-3.98 40.95-5.35Q42.54-6.72 45.31-6.72L45.31-6.72Q46.90-6.72 48.09-6.36Q49.28-6.00 50.10-5.55L50.10-5.55L49.09-2.89Q48.39-3.28 47.53-3.56Q46.68-3.84 45.56-3.84L45.56-3.84Q42.82-3.84 42.82-1.85L42.82-1.85Q42.82-1.35 43.10-0.97Q43.38-0.59 43.81-0.30Q44.24-0.00 44.79 0.22Q45.34 0.44 45.87 0.64L45.87 0.64Q46.68 0.95 47.56 1.33Q48.44 1.70 49.19 2.33Q49.93 2.96 50.40 3.90Q50.88 4.84 50.88 6.27L50.88 6.27Q50.88 8.70 49.30 10.03Q47.72 11.36 44.50 11.36L44.50 11.36Q42.34 11.36 41.05 10.90Q39.76 10.44 39.12 10.05L39.12 10.05L40.13 7.25Q40.88 7.70 41.93 8.09Q42.98 8.48 44.50 8.48ZM56.00 6.10L56.00 0.70L53.01 0.70L53.01-2.16L56.00-2.16L56.00-5.46L59.45-6.02L59.45-2.16L64.96-2.16L64.96 0.70L59.45 0.70L59.45 6.02Q59.45 6.74 59.59 7.19Q59.73 7.64 59.98 7.89Q60.23 8.14 60.60 8.23Q60.96 8.31 61.41 8.31L61.41 8.31Q61.88 8.31 62.29 8.28Q62.70 8.26 63.07 8.19Q63.45 8.12 63.86 7.98Q64.26 7.84 64.74 7.61L64.74 7.61L65.22 10.58Q64.26 10.97 63.16 11.14Q62.05 11.31 61.02 11.31L61.02 11.31Q59.81 11.31 58.89 11.11Q57.96 10.92 57.32 10.36Q56.68 9.80 56.34 8.77Q56.00 7.75 56.00 6.10L56.00 6.10ZM78.85-1.85L78.24 1.34Q77.90 1.26 77.44 1.17Q76.98 1.09 76.50 1.02Q76.02 0.95 75.58 0.92Q75.13 0.89 74.82 0.89L74.82 0.89Q74.09 0.89 73.39 0.96Q72.69 1.03 71.96 1.23L71.96 1.23L71.96 11L68.49 11L68.49-1.29Q69.86-1.80 71.31-2.10Q72.75-2.41 74.68-2.41L74.68-2.41Q74.96-2.41 75.48-2.38Q76.00-2.36 76.58-2.29Q77.17-2.22 77.77-2.12Q78.38-2.02 78.85-1.85L78.85-1.85ZM92.26-2.16L92.26 10.55Q91.31 10.80 89.95 11.06Q88.60 11.31 87 11.31L87 11.31Q85.38 11.31 84.34 10.86Q83.30 10.41 82.70 9.59Q82.10 8.76 81.88 7.64Q81.65 6.52 81.65 5.18L81.65 5.18L81.65-2.16L85.10-2.16L85.10 4.73Q85.10 6.55 85.53 7.43Q85.96 8.31 87.22 8.31L87.22 8.31Q88.01 8.31 88.79 8.17L88.79 8.17L88.79-2.16L92.26-2.16ZM95.23 4.42L95.23 4.42Q95.23 2.99 95.68 1.73Q96.13 0.47 97.05-0.47Q97.98-1.40 99.39-1.95Q100.80-2.50 102.76-2.50L102.76-2.50Q103.94-2.50 104.89-2.33Q105.84-2.16 106.82-1.77L106.82-1.77L106.07 1.00Q105.51 0.81 104.82 0.65Q104.14 0.50 103.07 0.50L103.07 0.50Q101.84 0.50 101.01 0.79Q100.19 1.09 99.68 1.61Q99.18 2.12 98.96 2.85Q98.73 3.58 98.73 4.42L98.73 4.42Q98.73 6.24 99.75 7.28Q100.78 8.31 103.24 8.31L103.24 8.31Q104.05 8.31 104.93 8.20Q105.82 8.09 106.54 7.84L106.54 7.84L107.05 10.66Q106.32 10.94 105.28 11.13Q104.25 11.31 102.85 11.31L102.85 11.31Q100.83 11.31 99.39 10.78Q97.95 10.24 97.02 9.32Q96.10 8.40 95.67 7.14Q95.23 5.88 95.23 4.42ZM112.00 6.10L112.00 0.70L109.01 0.70L109.01-2.16L112.00-2.16L112.00-5.46L115.45-6.02L115.45-2.16L120.96-2.16L120.96 0.70L115.45 0.70L115.45 6.02Q115.45 6.74 115.59 7.19Q115.73 7.64 115.98 7.89Q116.23 8.14 116.60 8.23Q116.96 8.31 117.41 8.31L117.41 8.31Q117.88 8.31 118.29 8.28Q118.70 8.26 119.07 8.19Q119.45 8.12 119.86 7.98Q120.26 7.84 120.74 7.61L120.74 7.61L121.22 10.58Q120.26 10.97 119.16 11.14Q118.05 11.31 117.02 11.31L117.02 11.31Q115.81 11.31 114.89 11.11Q113.96 10.92 113.32 10.36Q112.68 9.80 112.34 8.77Q112.00 7.75 112.00 6.10L112.00 6.10ZM134.26-2.16L134.26 10.55Q133.31 10.80 131.95 11.06Q130.60 11.31 129 11.31L129 11.31Q127.38 11.31 126.34 10.86Q125.30 10.41 124.70 9.59Q124.10 8.76 123.88 7.64Q123.65 6.52 123.65 5.18L123.65 5.18L123.65-2.16L127.10-2.16L127.10 4.73Q127.10 6.55 127.53 7.43Q127.96 8.31 129.22 8.31L129.22 8.31Q130.01 8.31 130.79 8.17L130.79 8.17L130.79-2.16L134.26-2.16ZM148.85-1.85L148.24 1.34Q147.90 1.26 147.44 1.17Q146.98 1.09 146.50 1.02Q146.02 0.95 145.58 0.92Q145.13 0.89 144.82 0.89L144.82 0.89Q144.09 0.89 143.39 0.96Q142.69 1.03 141.96 1.23L141.96 1.23L141.96 11L138.49 11L138.49-1.29Q139.86-1.80 141.31-2.10Q142.75-2.41 144.68-2.41L144.68-2.41Q144.96-2.41 145.48-2.38Q146.00-2.36 146.58-2.29Q147.17-2.22 147.77-2.12Q148.38-2.02 148.85-1.85L148.85-1.85ZM150.87 4.53L150.87 4.53Q150.87 2.80 151.40 1.48Q151.93 0.16 152.80-0.72Q153.67-1.60 154.79-2.05Q155.91-2.50 157.08-2.50L157.08-2.50Q160.00-2.50 161.51-0.77Q163.02 0.95 163.02 4.25L163.02 4.25Q163.02 4.59 163.01 4.95Q162.99 5.32 162.96 5.54L162.96 5.54L154.42 5.54Q154.42 6.83 155.49 7.57Q156.55 8.31 158.23 8.31L158.23 8.31Q159.27 8.31 160.21 8.09Q161.14 7.86 161.79 7.64L161.79 7.64L162.26 10.58Q161.37 10.89 160.36 11.10Q159.35 11.31 158.09 11.31L158.09 11.31Q156.41 11.31 155.08 10.87Q153.75 10.44 152.81 9.59Q151.88 8.73 151.37 7.47Q150.87 6.21 150.87 4.53ZM154.42 3.16L159.69 3.16Q159.69 2.63 159.55 2.14Q159.41 1.65 159.10 1.26Q158.79 0.86 158.32 0.63Q157.84 0.39 157.14 0.39L157.14 0.39Q156.47 0.39 155.98 0.61Q155.49 0.84 155.17 1.23Q154.84 1.62 154.66 2.12Q154.48 2.63 154.42 3.16L154.42 3.16ZM168.28 4.34L168.28 4.34Q168.28 6.10 168.94 7.22Q169.60 8.34 171.06 8.34L171.06 8.34Q171.48 8.34 171.84 8.31Q172.20 8.28 172.60 8.23L172.60 8.23L172.60 1.06Q172.20 0.84 171.70 0.68Q171.20 0.53 170.64 0.53L170.64 0.53Q169.40 0.53 168.84 1.51Q168.28 2.49 168.28 4.34ZM176.04-8.43L176.04 10.61Q175.09 10.92 173.72 11.11Q172.34 11.31 171.03 11.31L171.03 11.31Q167.95 11.31 166.37 9.49Q164.78 7.67 164.78 4.50L164.78 4.50Q164.78 1.28 166.11-0.58Q167.44-2.44 170.05-2.44L170.05-2.44Q170.75-2.44 171.42-2.29Q172.09-2.13 172.60-1.85L172.60-1.85L172.60-7.84L176.04-8.43ZM178.70-6.33L191.30-6.33L191.30-3.48L186.74-3.48L186.74 11L183.26 11L183.26-3.48L178.70-3.48L178.70-6.33ZM192.87 4.53L192.87 4.53Q192.87 2.80 193.40 1.48Q193.93 0.16 194.80-0.72Q195.67-1.60 196.79-2.05Q197.91-2.50 199.08-2.50L199.08-2.50Q202.00-2.50 203.51-0.77Q205.02 0.95 205.02 4.25L205.02 4.25Q205.02 4.59 205.01 4.95Q204.99 5.32 204.96 5.54L204.96 5.54L196.42 5.54Q196.42 6.83 197.49 7.57Q198.55 8.31 200.23 8.31L200.23 8.31Q201.27 8.31 202.21 8.09Q203.14 7.86 203.79 7.64L203.79 7.64L204.26 10.58Q203.37 10.89 202.36 11.10Q201.35 11.31 200.09 11.31L200.09 11.31Q198.41 11.31 197.08 10.87Q195.75 10.44 194.81 9.59Q193.88 8.73 193.37 7.47Q192.87 6.21 192.87 4.53ZM196.42 3.16L201.69 3.16Q201.69 2.63 201.55 2.14Q201.41 1.65 201.10 1.26Q200.79 0.86 200.32 0.63Q199.84 0.39 199.14 0.39L199.14 0.39Q198.47 0.39 197.98 0.61Q197.49 0.84 197.17 1.23Q196.84 1.62 196.66 2.12Q196.48 2.63 196.42 3.16L196.42 3.16ZM210.20-2.16L213.11 1.96L215.80-2.16L219.30-2.16L215.04 4.17Q215.72 4.98 216.36 5.89Q217.00 6.80 217.59 7.72Q218.18 8.65 218.66 9.49Q219.13 10.33 219.47 11L219.47 11L215.88 11Q215.13 9.57 214.37 8.45Q213.62 7.33 212.94 6.44L212.94 6.44Q212.10 7.56 211.43 8.62Q210.76 9.68 210.06 11L210.06 11L206.56 11Q206.98 10.22 207.53 9.36Q208.07 8.51 208.67 7.63Q209.28 6.74 209.93 5.88Q210.59 5.01 211.21 4.22L211.21 4.22L206.59-2.16L210.20-2.16ZM224.00 6.10L224.00 0.70L221.01 0.70L221.01-2.16L224.00-2.16L224.00-5.46L227.45-6.02L227.45-2.16L232.96-2.16L232.96 0.70L227.45 0.70L227.45 6.02Q227.45 6.74 227.59 7.19Q227.73 7.64 227.98 7.89Q228.23 8.14 228.60 8.23Q228.96 8.31 229.41 8.31L229.41 8.31Q229.88 8.31 230.29 8.28Q230.70 8.26 231.07 8.19Q231.45 8.12 231.86 7.98Q232.26 7.84 232.74 7.61L232.74 7.61L233.22 10.58Q232.26 10.97 231.16 11.14Q230.05 11.31 229.02 11.31L229.02 11.31Q227.81 11.31 226.89 11.11Q225.96 10.92 225.32 10.36Q224.68 9.80 224.34 8.77Q224.00 7.75 224.00 6.10L224.00 6.10Z"/>
    </g>
</svg>