<?xml version="1.0" encoding="UTF-8"?>
<svg height="26" width="195.9" version="1.1" xmlns="http://www.w3.org/2000/svg"><!--Created by Josélio de S. C. Júnior - 2021 - https://github.com/joseliojunior -->
    <rect
        height="24"
        width="193.9"
        rx="12"
        ry="12"
        x="1" y="1"
        fill="#4298b8"
        stroke="#1a3b47"
        stroke-width="1" />
    <g transform="translate(0, 8)">
        <path fill="#1a3b47" d="M24.99 1.58L24.99 1.58Q24.29 1.58 23.81 1.84Q23.33 2.10 23.02 2.55Q22.70 3.01 22.57 3.64Q22.43 4.27 22.43 5.04L22.43 5.04Q22.43 6.82 22.99 7.66Q23.55 8.50 24.64 8.50L24.64 8.50Q24.82 8.50 25.02 8.48Q25.23 8.46 25.41 8.43L25.41 8.43L25.41 4.82L27.38 4.82L27.38 9.76Q27.02 9.89 26.28 10.05Q25.54 10.21 24.48 10.21L24.48 10.21Q23.55 10.21 22.81 9.88Q22.06 9.55 21.54 8.90Q21.01 8.26 20.72 7.29Q20.43 6.32 20.43 5.04L20.43 5.04Q20.43 3.78 20.77 2.81Q21.10 1.84 21.68 1.18Q22.26 0.53 23.04 0.20Q23.82-0.13 24.72-0.13L24.72-0.13Q25.30-0.13 25.75-0.04Q26.21 0.05 26.54 0.16Q26.88 0.27 27.10 0.40Q27.31 0.53 27.42 0.59L27.42 0.59L26.91 2.16Q26.56 1.94 26.05 1.76Q25.54 1.58 24.99 1.58ZM35.34 2.66L34.99 4.48Q34.80 4.43 34.54 4.38Q34.27 4.34 34 4.30Q33.73 4.26 33.47 4.24Q33.22 4.22 33.04 4.22L33.04 4.22Q32.62 4.22 32.22 4.26Q31.82 4.30 31.41 4.42L31.41 4.42L31.41 10L29.42 10L29.42 2.98Q30.21 2.69 31.03 2.51Q31.86 2.34 32.96 2.34L32.96 2.34Q33.12 2.34 33.42 2.35Q33.71 2.37 34.05 2.41Q34.38 2.45 34.73 2.50Q35.07 2.56 35.34 2.66L35.34 2.66ZM43.55 6.22L43.55 6.22Q43.55 7.12 43.30 7.85Q43.04 8.58 42.58 9.10Q42.11 9.63 41.46 9.92Q40.82 10.21 40.02 10.21L40.02 10.21Q39.22 10.21 38.57 9.92Q37.92 9.63 37.45 9.10Q36.98 8.58 36.72 7.85Q36.46 7.12 36.46 6.22L36.46 6.22Q36.46 5.34 36.73 4.62Q36.99 3.89 37.46 3.37Q37.94 2.85 38.59 2.57Q39.25 2.29 40.02 2.29L40.02 2.29Q40.80 2.29 41.45 2.57Q42.10 2.85 42.57 3.37Q43.04 3.89 43.30 4.62Q43.55 5.34 43.55 6.22ZM38.46 6.24L38.46 6.24Q38.46 7.25 38.82 7.87Q39.18 8.50 39.98 8.50L39.98 8.50Q40.75 8.50 41.14 7.87Q41.54 7.25 41.54 6.24L41.54 6.24Q41.54 5.23 41.18 4.62Q40.82 4 40.02 4L40.02 4Q39.25 4 38.86 4.62Q38.46 5.23 38.46 6.24ZM51.55 6.22L51.55 6.22Q51.55 7.12 51.30 7.85Q51.04 8.58 50.58 9.10Q50.11 9.63 49.46 9.92Q48.82 10.21 48.02 10.21L48.02 10.21Q47.22 10.21 46.57 9.92Q45.92 9.63 45.45 9.10Q44.98 8.58 44.72 7.85Q44.46 7.12 44.46 6.22L44.46 6.22Q44.46 5.34 44.73 4.62Q44.99 3.89 45.46 3.37Q45.94 2.85 46.59 2.57Q47.25 2.29 48.02 2.29L48.02 2.29Q48.80 2.29 49.45 2.57Q50.10 2.85 50.57 3.37Q51.04 3.89 51.30 4.62Q51.55 5.34 51.55 6.22ZM46.46 6.24L46.46 6.24Q46.46 7.25 46.82 7.87Q47.18 8.50 47.98 8.50L47.98 8.50Q48.75 8.50 49.14 7.87Q49.54 7.25 49.54 6.24L49.54 6.24Q49.54 5.23 49.18 4.62Q48.82 4 48.02 4L48.02 4Q47.25 4 46.86 4.62Q46.46 5.23 46.46 6.24ZM56.75 10L55.10 10Q54.38 8.58 53.64 6.66Q52.90 4.75 52.22 2.48L52.22 2.48L54.29 2.48Q54.43 3.09 54.63 3.78Q54.83 4.46 55.06 5.16Q55.28 5.86 55.51 6.51Q55.74 7.17 55.95 7.71L55.95 7.71Q56.16 7.17 56.42 6.51Q56.67 5.86 56.92 5.16Q57.17 4.46 57.40 3.78Q57.63 3.09 57.78 2.48L57.78 2.48L59.78 2.48Q59.10 4.75 58.29 6.66Q57.47 8.58 56.75 10L56.75 10ZM65.54 2.48L67.55 2.48Q67.25 3.54 66.97 4.55Q66.69 5.57 66.38 6.54Q66.08 7.50 65.74 8.43Q65.39 9.36 64.99 10.24L64.99 10.24Q64.69 10.88 64.39 11.34Q64.10 11.81 63.74 12.10Q63.38 12.40 62.94 12.54Q62.50 12.69 61.90 12.69L61.90 12.69Q61.41 12.69 61 12.61Q60.59 12.53 60.32 12.40L60.32 12.40L60.69 10.75Q61.01 10.90 61.26 10.95Q61.50 11.01 61.79 11.01L61.79 11.01Q62.37 11.01 62.72 10.62Q63.07 10.24 63.28 9.71L63.28 9.71Q62.58 8.30 61.87 6.49Q61.17 4.67 60.59 2.48L60.59 2.48L62.64 2.48Q62.78 3.07 62.97 3.74Q63.15 4.42 63.36 5.09Q63.57 5.76 63.80 6.41Q64.03 7.06 64.27 7.62L64.27 7.62Q64.43 7.06 64.61 6.41Q64.78 5.76 64.94 5.10Q65.10 4.43 65.26 3.76Q65.41 3.09 65.54 2.48L65.54 2.48ZM79.71 8.56L79.71 8.56Q80.21 8.56 80.54 8.46Q80.86 8.35 81.06 8.17Q81.25 7.98 81.32 7.75Q81.39 7.52 81.39 7.28L81.39 7.28Q81.39 6.98 81.22 6.74Q81.04 6.50 80.77 6.31Q80.50 6.13 80.16 5.98Q79.82 5.82 79.49 5.70L79.49 5.70Q79.04 5.54 78.56 5.33Q78.08 5.12 77.69 4.80Q77.30 4.48 77.04 4.01Q76.78 3.54 76.78 2.83L76.78 2.83Q76.78 1.44 77.69 0.66Q78.59-0.13 80.18-0.13L80.18-0.13Q81.09-0.13 81.77 0.08Q82.45 0.29 82.91 0.54L82.91 0.54L82.34 2.06Q81.94 1.84 81.45 1.68Q80.96 1.52 80.32 1.52L80.32 1.52Q78.75 1.52 78.75 2.66L78.75 2.66Q78.75 2.94 78.91 3.16Q79.07 3.38 79.32 3.54Q79.57 3.71 79.88 3.84Q80.19 3.97 80.50 4.08L80.50 4.08Q80.96 4.26 81.46 4.47Q81.97 4.69 82.39 5.05Q82.82 5.41 83.09 5.94Q83.36 6.48 83.36 7.30L83.36 7.30Q83.36 8.69 82.46 9.45Q81.55 10.21 79.71 10.21L79.71 10.21Q78.48 10.21 77.74 9.94Q77.01 9.68 76.64 9.46L76.64 9.46L77.22 7.86Q77.65 8.11 78.25 8.34Q78.85 8.56 79.71 8.56ZM84.50 6.30L84.50 6.30Q84.50 5.31 84.80 4.56Q85.10 3.81 85.60 3.30Q86.10 2.80 86.74 2.54Q87.38 2.29 88.05 2.29L88.05 2.29Q89.71 2.29 90.58 3.27Q91.44 4.26 91.44 6.14L91.44 6.14Q91.44 6.34 91.43 6.54Q91.42 6.75 91.41 6.88L91.41 6.88L86.53 6.88Q86.53 7.62 87.14 8.04Q87.74 8.46 88.70 8.46L88.70 8.46Q89.30 8.46 89.83 8.34Q90.37 8.21 90.74 8.08L90.74 8.08L91.01 9.76Q90.50 9.94 89.92 10.06Q89.34 10.18 88.62 10.18L88.62 10.18Q87.66 10.18 86.90 9.93Q86.14 9.68 85.61 9.19Q85.07 8.70 84.78 7.98Q84.50 7.26 84.50 6.30ZM86.53 5.52L89.54 5.52Q89.54 5.22 89.46 4.94Q89.38 4.66 89.20 4.43Q89.02 4.21 88.75 4.07Q88.48 3.94 88.08 3.94L88.08 3.94Q87.70 3.94 87.42 4.06Q87.14 4.19 86.95 4.42Q86.77 4.64 86.66 4.93Q86.56 5.22 86.53 5.52L86.53 5.52ZM99.34 2.66L98.99 4.48Q98.80 4.43 98.54 4.38Q98.27 4.34 98 4.30Q97.73 4.26 97.47 4.24Q97.22 4.22 97.04 4.22L97.04 4.22Q96.62 4.22 96.22 4.26Q95.82 4.30 95.41 4.42L95.41 4.42L95.41 10L93.42 10L93.42 2.98Q94.21 2.69 95.03 2.51Q95.86 2.34 96.96 2.34L96.96 2.34Q97.12 2.34 97.42 2.35Q97.71 2.37 98.05 2.41Q98.38 2.45 98.73 2.50Q99.07 2.56 99.34 2.66L99.34 2.66ZM104.75 10L103.10 10Q102.38 8.58 101.64 6.66Q100.90 4.75 100.22 2.48L100.22 2.48L102.29 2.48Q102.43 3.09 102.63 3.78Q102.83 4.46 103.06 5.16Q103.28 5.86 103.51 6.51Q103.74 7.17 103.95 7.71L103.95 7.71Q104.16 7.17 104.42 6.51Q104.67 5.86 104.92 5.16Q105.17 4.46 105.40 3.78Q105.63 3.09 105.78 2.48L105.78 2.48L107.78 2.48Q107.10 4.75 106.29 6.66Q105.47 8.58 104.75 10L104.75 10ZM108.50 6.30L108.50 6.30Q108.50 5.31 108.80 4.56Q109.10 3.81 109.60 3.30Q110.10 2.80 110.74 2.54Q111.38 2.29 112.05 2.29L112.05 2.29Q113.71 2.29 114.58 3.27Q115.44 4.26 115.44 6.14L115.44 6.14Q115.44 6.34 115.43 6.54Q115.42 6.75 115.41 6.88L115.41 6.88L110.53 6.88Q110.53 7.62 111.14 8.04Q111.74 8.46 112.70 8.46L112.70 8.46Q113.30 8.46 113.83 8.34Q114.37 8.21 114.74 8.08L114.74 8.08L115.01 9.76Q114.50 9.94 113.92 10.06Q113.34 10.18 112.62 10.18L112.62 10.18Q111.66 10.18 110.90 9.93Q110.14 9.68 109.61 9.19Q109.07 8.70 108.78 7.98Q108.50 7.26 108.50 6.30ZM110.53 5.52L113.54 5.52Q113.54 5.22 113.46 4.94Q113.38 4.66 113.20 4.43Q113.02 4.21 112.75 4.07Q112.48 3.94 112.08 3.94L112.08 3.94Q111.70 3.94 111.42 4.06Q111.14 4.19 110.95 4.42Q110.77 4.64 110.66 4.93Q110.56 5.22 110.53 5.52L110.53 5.52ZM123.34 2.66L122.99 4.48Q122.80 4.43 122.54 4.38Q122.27 4.34 122 4.30Q121.73 4.26 121.47 4.24Q121.22 4.22 121.04 4.22L121.04 4.22Q120.62 4.22 120.22 4.26Q119.82 4.30 119.41 4.42L119.41 4.42L119.41 10L117.42 10L117.42 2.98Q118.21 2.69 119.03 2.51Q119.86 2.34 120.96 2.34L120.96 2.34Q121.12 2.34 121.42 2.35Q121.71 2.37 122.05 2.41Q122.38 2.45 122.73 2.50Q123.07 2.56 123.34 2.66L123.34 2.66ZM135.58-0.02L135.58-0.02Q137.47-0.02 138.51 0.76Q139.55 1.54 139.55 3.30L139.55 3.30Q139.55 5.07 138.50 5.86Q137.46 6.66 135.54 6.66L135.54 6.66L134.83 6.66L134.83 10L132.86 10L132.86 0.22Q133.15 0.16 133.51 0.11Q133.87 0.06 134.24 0.04Q134.61 0.02 134.96 0Q135.31-0.02 135.58-0.02ZM135.81 1.70L135.81 1.70Q135.63 1.70 135.32 1.70Q135.01 1.71 134.83 1.74L134.83 1.74L134.83 4.94L135.63 4.94Q136.58 4.94 137.06 4.57Q137.54 4.19 137.54 3.28L137.54 3.28Q137.54 2.42 137.06 2.06Q136.59 1.70 135.81 1.70ZM144.02 8.59L144.02 8.59Q144.34 8.59 144.64 8.58Q144.94 8.58 145.17 8.54L145.17 8.54L145.17 6.82Q144.98 6.78 144.70 6.76Q144.43 6.74 144.21 6.74L144.21 6.74Q143.90 6.74 143.62 6.78Q143.33 6.82 143.11 6.91Q142.90 7.01 142.77 7.18Q142.64 7.36 142.64 7.65L142.64 7.65Q142.64 8.16 143.02 8.38Q143.41 8.59 144.02 8.59ZM143.84 2.29L143.84 2.29Q144.77 2.29 145.38 2.50Q146 2.72 146.37 3.11Q146.74 3.50 146.90 4.07Q147.06 4.64 147.06 5.34L147.06 5.34L147.06 9.82Q146.62 9.92 145.78 10.05Q144.93 10.18 143.87 10.18L143.87 10.18Q143.15 10.18 142.57 10.05Q141.98 9.92 141.57 9.62Q141.15 9.33 140.93 8.86Q140.70 8.38 140.70 7.70L140.70 7.70Q140.70 7.04 140.96 6.59Q141.22 6.14 141.65 5.87Q142.08 5.60 142.64 5.48Q143.20 5.36 143.81 5.36L143.81 5.36Q144.58 5.36 145.17 5.49L145.17 5.49L145.17 5.25Q145.17 4.69 144.82 4.31Q144.46 3.94 143.60 3.94L143.60 3.94Q143.04 3.94 142.52 4.02Q142 4.10 141.68 4.21L141.68 4.21L141.41 2.62Q141.78 2.50 142.45 2.39Q143.12 2.29 143.84 2.29ZM150.53 6L150.53 6Q150.53 6.93 150.86 7.42Q151.20 7.90 151.92 7.90L151.92 7.90Q152.24 7.90 152.52 7.82Q152.80 7.74 153.02 7.62L153.02 7.62L153.02 4Q152.80 3.95 152.62 3.94Q152.45 3.92 152.26 3.92L152.26 3.92Q150.53 3.92 150.53 6ZM155.01 2.72L155.01 9.09Q155.01 10.93 154.12 11.81Q153.23 12.69 151.26 12.69L151.26 12.69Q150.56 12.69 149.91 12.54Q149.26 12.40 148.67 12.21L148.67 12.21L149.04 10.54Q149.50 10.72 150.02 10.87Q150.53 11.02 151.30 11.02L151.30 11.02Q151.81 11.02 152.14 10.90Q152.48 10.78 152.67 10.58Q152.86 10.37 152.94 10.09Q153.02 9.81 153.02 9.49L153.02 9.49L153.02 9.18Q152.61 9.34 152.26 9.42Q151.92 9.50 151.52 9.50L151.52 9.50Q150.05 9.50 149.29 8.58Q148.53 7.65 148.53 6L148.53 6Q148.53 4.14 149.55 3.23Q150.58 2.32 152.34 2.32L152.34 2.32Q153.57 2.32 155.01 2.72L155.01 2.72ZM156.50 6.30L156.50 6.30Q156.50 5.31 156.80 4.56Q157.10 3.81 157.60 3.30Q158.10 2.80 158.74 2.54Q159.38 2.29 160.05 2.29L160.05 2.29Q161.71 2.29 162.58 3.27Q163.44 4.26 163.44 6.14L163.44 6.14Q163.44 6.34 163.43 6.54Q163.42 6.75 163.41 6.88L163.41 6.88L158.53 6.88Q158.53 7.62 159.14 8.04Q159.74 8.46 160.70 8.46L160.70 8.46Q161.30 8.46 161.83 8.34Q162.37 8.21 162.74 8.08L162.74 8.08L163.01 9.76Q162.50 9.94 161.92 10.06Q161.34 10.18 160.62 10.18L160.62 10.18Q159.66 10.18 158.90 9.93Q158.14 9.68 157.61 9.19Q157.07 8.70 156.78 7.98Q156.50 7.26 156.50 6.30ZM158.53 5.52L161.54 5.52Q161.54 5.22 161.46 4.94Q161.38 4.66 161.20 4.43Q161.02 4.21 160.75 4.07Q160.48 3.94 160.08 3.94L160.08 3.94Q159.70 3.94 159.42 4.06Q159.14 4.19 158.95 4.42Q158.77 4.64 158.66 4.93Q158.56 5.22 158.53 5.52L158.53 5.52ZM167.65 8.51L167.65 8.51Q168.37 8.51 168.75 8.41Q169.14 8.30 169.14 7.98L169.14 7.98Q169.14 7.78 169.02 7.63Q168.90 7.49 168.68 7.38Q168.46 7.28 168.18 7.18Q167.90 7.09 167.60 6.99L167.60 6.99Q167.17 6.86 166.72 6.70Q166.27 6.53 165.90 6.27Q165.54 6.02 165.30 5.62Q165.06 5.23 165.06 4.64L165.06 4.64Q165.06 4.16 165.24 3.74Q165.42 3.31 165.82 2.98Q166.21 2.66 166.82 2.47Q167.42 2.29 168.27 2.29L168.27 2.29Q169.01 2.29 169.64 2.40Q170.27 2.51 170.74 2.72L170.74 2.72L170.43 4.38Q170.16 4.30 169.58 4.12Q169.01 3.94 168.29 3.94L168.29 3.94Q167.54 3.94 167.27 4.12Q167.01 4.30 167.01 4.51L167.01 4.51Q167.01 4.69 167.13 4.82Q167.25 4.96 167.45 5.07Q167.65 5.18 167.91 5.29Q168.18 5.39 168.48 5.49L168.48 5.49Q168.91 5.63 169.38 5.81Q169.84 5.98 170.22 6.25Q170.59 6.51 170.83 6.92Q171.07 7.33 171.07 7.92L171.07 7.92Q171.07 8.38 170.90 8.80Q170.72 9.22 170.31 9.52Q169.90 9.82 169.25 10Q168.59 10.18 167.63 10.18L167.63 10.18Q166.66 10.18 165.97 9.95Q165.28 9.73 164.86 9.55L164.86 9.55L165.17 7.90Q165.73 8.13 166.36 8.32Q166.99 8.51 167.65 8.51Z"/>
    </g>
</svg>