<?xml version="1.0" encoding="UTF-8"?>
<svg height="322" width="271.9" version="1.1" xmlns="http://www.w3.org/2000/svg"><!--Created by Josélio de S. C. Júnior - 2021 - https://github.com/joseliojunior -->
    <rect
        height="32"
        width="269.9"
        rx="1"
        ry="1"
        x="1" y="1"
        fill="#4298b8"
        stroke="#1a3b47"
        stroke-width="1" />
    <g transform="translate(0, 12)">
        <path fill="#1a3b47" stroke="none" d="M27.49-0.62L27.49-0.62Q26.43-0.62 25.71-0.24Q24.99 0.14 24.52 0.83Q24.06 1.51 23.85 2.46Q23.65 3.41 23.65 4.56L23.65 4.56Q23.65 7.22 24.49 8.48Q25.33 9.74 26.96 9.74L26.96 9.74Q27.22 9.74 27.54 9.72Q27.85 9.70 28.11 9.65L28.11 9.65L28.11 4.22L31.06 4.22L31.06 11.64Q30.54 11.83 29.42 12.07Q28.30 12.31 26.72 12.31L26.72 12.31Q25.33 12.31 24.21 11.82Q23.10 11.33 22.30 10.36Q21.51 9.38 21.08 7.93Q20.65 6.48 20.65 4.56L20.65 4.56Q20.65 2.66 21.15 1.21Q21.66-0.24 22.52-1.22Q23.38-2.21 24.56-2.70Q25.74-3.19 27.08-3.19L27.08-3.19Q27.94-3.19 28.63-3.06Q29.31-2.93 29.82-2.76Q30.32-2.59 30.64-2.40Q30.97-2.21 31.14-2.11L31.14-2.11L30.37 0.24Q29.84-0.10 29.07-0.36Q28.30-0.62 27.49-0.62ZM43.02 0.98L42.49 3.72Q42.20 3.65 41.80 3.58Q41.41 3.50 41 3.44Q40.59 3.38 40.21 3.36Q39.82 3.34 39.56 3.34L39.56 3.34Q38.94 3.34 38.34 3.40Q37.74 3.46 37.11 3.62L37.11 3.62L37.11 12L34.14 12L34.14 1.46Q35.31 1.03 36.55 0.77Q37.78 0.50 39.44 0.50L39.44 0.50Q39.68 0.50 40.12 0.53Q40.57 0.55 41.07 0.61Q41.58 0.67 42.09 0.76Q42.61 0.84 43.02 0.98L43.02 0.98ZM55.33 6.34L55.33 6.34Q55.33 7.68 54.94 8.77Q54.56 9.86 53.86 10.66Q53.17 11.45 52.20 11.88Q51.22 12.31 50.02 12.31L50.02 12.31Q48.82 12.31 47.85 11.88Q46.88 11.45 46.17 10.66Q45.46 9.86 45.08 8.77Q44.70 7.68 44.70 6.34L44.70 6.34Q44.70 5.02 45.09 3.92Q45.49 2.83 46.20 2.05Q46.90 1.27 47.89 0.85Q48.87 0.43 50.02 0.43L50.02 0.43Q51.20 0.43 52.17 0.85Q53.14 1.27 53.85 2.05Q54.56 2.83 54.94 3.92Q55.33 5.02 55.33 6.34ZM47.70 6.36L47.70 6.36Q47.70 7.87 48.24 8.81Q48.78 9.74 49.98 9.74L49.98 9.74Q51.13 9.74 51.72 8.81Q52.30 7.87 52.30 6.36L52.30 6.36Q52.30 4.85 51.76 3.92Q51.22 3 50.02 3L50.02 3Q48.87 3 48.28 3.92Q47.70 4.85 47.70 6.36ZM67.33 6.34L67.33 6.34Q67.33 7.68 66.94 8.77Q66.56 9.86 65.86 10.66Q65.17 11.45 64.20 11.88Q63.22 12.31 62.02 12.31L62.02 12.31Q60.82 12.31 59.85 11.88Q58.88 11.45 58.17 10.66Q57.46 9.86 57.08 8.77Q56.70 7.68 56.70 6.34L56.70 6.34Q56.70 5.02 57.09 3.92Q57.49 2.83 58.20 2.05Q58.90 1.27 59.89 0.85Q60.87 0.43 62.02 0.43L62.02 0.43Q63.20 0.43 64.17 0.85Q65.14 1.27 65.85 2.05Q66.56 2.83 66.94 3.92Q67.33 5.02 67.33 6.34ZM59.70 6.36L59.70 6.36Q59.70 7.87 60.24 8.81Q60.78 9.74 61.98 9.74L61.98 9.74Q63.13 9.74 63.72 8.81Q64.30 7.87 64.30 6.36L64.30 6.36Q64.30 4.85 63.76 3.92Q63.22 3 62.02 3L62.02 3Q60.87 3 60.28 3.92Q59.70 4.85 59.70 6.36ZM75.13 12L72.66 12Q71.58 9.86 70.46 7.00Q69.34 4.13 68.34 0.72L68.34 0.72L71.43 0.72Q71.65 1.63 71.95 2.66Q72.25 3.70 72.58 4.74Q72.92 5.78 73.27 6.77Q73.62 7.75 73.93 8.57L73.93 8.57Q74.24 7.75 74.62 6.77Q75.01 5.78 75.38 4.74Q75.75 3.70 76.10 2.66Q76.45 1.63 76.66 0.72L76.66 0.72L79.66 0.72Q78.66 4.13 77.43 7.00Q76.21 9.86 75.13 12L75.13 12ZM88.30 0.72L91.33 0.72Q90.87 2.30 90.45 3.83Q90.03 5.35 89.58 6.80Q89.12 8.26 88.60 9.65Q88.09 11.04 87.49 12.36L87.49 12.36Q87.03 13.32 86.59 14.02Q86.14 14.71 85.60 15.16Q85.06 15.60 84.40 15.82Q83.74 16.03 82.86 16.03L82.86 16.03Q82.11 16.03 81.50 15.91Q80.89 15.79 80.48 15.60L80.48 15.60L81.03 13.13Q81.51 13.34 81.88 13.43Q82.26 13.51 82.69 13.51L82.69 13.51Q83.55 13.51 84.08 12.94Q84.61 12.36 84.92 11.57L84.92 11.57Q83.86 9.46 82.81 6.73Q81.75 4.01 80.89 0.72L80.89 0.72L83.96 0.72Q84.18 1.61 84.45 2.62Q84.73 3.62 85.04 4.63Q85.35 5.64 85.70 6.61Q86.05 7.58 86.41 8.42L86.41 8.42Q86.65 7.58 86.91 6.61Q87.18 5.64 87.42 4.64Q87.66 3.65 87.88 2.64Q88.11 1.63 88.30 0.72L88.30 0.72ZM109.57 9.84L109.57 9.84Q110.31 9.84 110.80 9.68Q111.30 9.53 111.58 9.25Q111.87 8.98 111.98 8.63Q112.09 8.28 112.09 7.92L112.09 7.92Q112.09 7.46 111.82 7.10Q111.56 6.74 111.15 6.47Q110.74 6.19 110.24 5.96Q109.74 5.74 109.23 5.54L109.23 5.54Q108.56 5.30 107.84 4.99Q107.12 4.68 106.53 4.20Q105.94 3.72 105.56 3.01Q105.18 2.30 105.18 1.25L105.18 1.25Q105.18-0.84 106.53-2.02Q107.89-3.19 110.26-3.19L110.26-3.19Q111.63-3.19 112.65-2.88Q113.67-2.57 114.37-2.18L114.37-2.18L113.50 0.10Q112.90-0.24 112.17-0.48Q111.44-0.72 110.48-0.72L110.48-0.72Q108.13-0.72 108.13 0.98L108.13 0.98Q108.13 1.42 108.37 1.74Q108.61 2.06 108.98 2.32Q109.35 2.57 109.82 2.76Q110.29 2.95 110.74 3.12L110.74 3.12Q111.44 3.38 112.20 3.71Q112.95 4.03 113.59 4.57Q114.22 5.11 114.63 5.92Q115.04 6.72 115.04 7.94L115.04 7.94Q115.04 10.03 113.68 11.17Q112.33 12.31 109.57 12.31L109.57 12.31Q107.72 12.31 106.62 11.92Q105.51 11.52 104.96 11.18L104.96 11.18L105.82 8.78Q106.47 9.17 107.37 9.50Q108.27 9.84 109.57 9.84ZM116.74 6.46L116.74 6.46Q116.74 4.97 117.20 3.84Q117.66 2.71 118.40 1.96Q119.14 1.20 120.10 0.82Q121.06 0.43 122.07 0.43L122.07 0.43Q124.57 0.43 125.86 1.91Q127.16 3.38 127.16 6.22L127.16 6.22Q127.16 6.50 127.15 6.82Q127.14 7.13 127.11 7.32L127.11 7.32L119.79 7.32Q119.79 8.42 120.70 9.06Q121.62 9.70 123.06 9.70L123.06 9.70Q123.94 9.70 124.75 9.50Q125.55 9.31 126.10 9.12L126.10 9.12L126.51 11.64Q125.74 11.90 124.88 12.08Q124.02 12.26 122.94 12.26L122.94 12.26Q121.50 12.26 120.36 11.89Q119.22 11.52 118.41 10.79Q117.61 10.06 117.18 8.98Q116.74 7.90 116.74 6.46ZM119.79 5.28L124.30 5.28Q124.30 4.82 124.18 4.40Q124.06 3.98 123.80 3.65Q123.54 3.31 123.13 3.11Q122.72 2.90 122.12 2.90L122.12 2.90Q121.54 2.90 121.12 3.10Q120.70 3.29 120.43 3.62Q120.15 3.96 120.00 4.39Q119.84 4.82 119.79 5.28L119.79 5.28ZM139.02 0.98L138.49 3.72Q138.20 3.65 137.80 3.58Q137.41 3.50 137 3.44Q136.59 3.38 136.21 3.36Q135.82 3.34 135.56 3.34L135.56 3.34Q134.94 3.34 134.34 3.40Q133.74 3.46 133.11 3.62L133.11 3.62L133.11 12L130.14 12L130.14 1.46Q131.31 1.03 132.55 0.77Q133.78 0.50 135.44 0.50L135.44 0.50Q135.68 0.50 136.12 0.53Q136.57 0.55 137.07 0.61Q137.58 0.67 138.09 0.76Q138.61 0.84 139.02 0.98L139.02 0.98ZM147.13 12L144.66 12Q143.58 9.86 142.46 7.00Q141.34 4.13 140.34 0.72L140.34 0.72L143.43 0.72Q143.65 1.63 143.95 2.66Q144.25 3.70 144.58 4.74Q144.92 5.78 145.27 6.77Q145.62 7.75 145.93 8.57L145.93 8.57Q146.24 7.75 146.62 6.77Q147.01 5.78 147.38 4.74Q147.75 3.70 148.10 2.66Q148.45 1.63 148.66 0.72L148.66 0.72L151.66 0.72Q150.66 4.13 149.43 7.00Q148.21 9.86 147.13 12L147.13 12ZM152.74 6.46L152.74 6.46Q152.74 4.97 153.20 3.84Q153.66 2.71 154.40 1.96Q155.14 1.20 156.10 0.82Q157.06 0.43 158.07 0.43L158.07 0.43Q160.57 0.43 161.86 1.91Q163.16 3.38 163.16 6.22L163.16 6.22Q163.16 6.50 163.15 6.82Q163.14 7.13 163.11 7.32L163.11 7.32L155.79 7.32Q155.79 8.42 156.70 9.06Q157.62 9.70 159.06 9.70L159.06 9.70Q159.94 9.70 160.75 9.50Q161.55 9.31 162.10 9.12L162.10 9.12L162.51 11.64Q161.74 11.90 160.88 12.08Q160.02 12.26 158.94 12.26L158.94 12.26Q157.50 12.26 156.36 11.89Q155.22 11.52 154.41 10.79Q153.61 10.06 153.18 8.98Q152.74 7.90 152.74 6.46ZM155.79 5.28L160.30 5.28Q160.30 4.82 160.18 4.40Q160.06 3.98 159.80 3.65Q159.54 3.31 159.13 3.11Q158.72 2.90 158.12 2.90L158.12 2.90Q157.54 2.90 157.12 3.10Q156.70 3.29 156.43 3.62Q156.15 3.96 156.00 4.39Q155.84 4.82 155.79 5.28L155.79 5.28ZM175.02 0.98L174.49 3.72Q174.20 3.65 173.80 3.58Q173.41 3.50 173 3.44Q172.59 3.38 172.21 3.36Q171.82 3.34 171.56 3.34L171.56 3.34Q170.94 3.34 170.34 3.40Q169.74 3.46 169.11 3.62L169.11 3.62L169.11 12L166.14 12L166.14 1.46Q167.31 1.03 168.55 0.77Q169.78 0.50 171.44 0.50L171.44 0.50Q171.68 0.50 172.12 0.53Q172.57 0.55 173.07 0.61Q173.58 0.67 174.09 0.76Q174.61 0.84 175.02 0.98L175.02 0.98ZM193.38-3.02L193.38-3.02Q196.21-3.02 197.77-1.86Q199.33-0.70 199.33 1.94L199.33 1.94Q199.33 4.61 197.76 5.80Q196.18 6.98 193.30 6.98L193.30 6.98L192.25 6.98L192.25 12L189.30 12L189.30-2.66Q189.73-2.76 190.27-2.83Q190.81-2.90 191.36-2.94Q191.91-2.98 192.44-3Q192.97-3.02 193.38-3.02ZM193.71-0.46L193.71-0.46Q193.45-0.46 192.98-0.44Q192.51-0.43 192.25-0.38L192.25-0.38L192.25 4.42L193.45 4.42Q194.86 4.42 195.58 3.85Q196.30 3.29 196.30 1.92L196.30 1.92Q196.30 0.62 195.60 0.08Q194.89-0.46 193.71-0.46ZM206.02 9.89L206.02 9.89Q206.50 9.89 206.96 9.88Q207.42 9.86 207.75 9.82L207.75 9.82L207.75 7.22Q207.46 7.18 207.06 7.14Q206.65 7.10 206.31 7.10L206.31 7.10Q205.86 7.10 205.42 7.16Q204.99 7.22 204.67 7.37Q204.34 7.51 204.15 7.78Q203.96 8.04 203.96 8.47L203.96 8.47Q203.96 9.24 204.54 9.56Q205.11 9.89 206.02 9.89ZM205.76 0.43L205.76 0.43Q207.15 0.43 208.08 0.76Q209 1.08 209.55 1.67Q210.10 2.26 210.34 3.11Q210.58 3.96 210.58 5.02L210.58 5.02L210.58 11.74Q209.94 11.88 208.66 12.07Q207.39 12.26 205.81 12.26L205.81 12.26Q204.73 12.26 203.85 12.07Q202.98 11.88 202.35 11.44Q201.73 10.99 201.39 10.28Q201.06 9.58 201.06 8.54L201.06 8.54Q201.06 7.56 201.44 6.89Q201.82 6.22 202.47 5.81Q203.12 5.40 203.96 5.22Q204.80 5.04 205.71 5.04L205.71 5.04Q206.86 5.04 207.75 5.23L207.75 5.23L207.75 4.87Q207.75 4.03 207.22 3.47Q206.70 2.90 205.40 2.90L205.40 2.90Q204.56 2.90 203.78 3.02Q203 3.14 202.52 3.31L202.52 3.31L202.11 0.94Q202.66 0.74 203.67 0.59Q204.68 0.43 205.76 0.43ZM215.79 6L215.79 6Q215.79 7.39 216.30 8.12Q216.80 8.86 217.88 8.86L217.88 8.86Q218.36 8.86 218.78 8.74Q219.20 8.62 219.54 8.42L219.54 8.42L219.54 3Q219.20 2.93 218.94 2.90Q218.67 2.88 218.38 2.88L218.38 2.88Q215.79 2.88 215.79 6ZM222.51 1.08L222.51 10.63Q222.51 13.39 221.18 14.71Q219.85 16.03 216.90 16.03L216.90 16.03Q215.84 16.03 214.87 15.82Q213.90 15.60 213.01 15.31L213.01 15.31L213.56 12.82Q214.26 13.08 215.02 13.31Q215.79 13.54 216.94 13.54L216.94 13.54Q217.71 13.54 218.22 13.36Q218.72 13.18 219.01 12.86Q219.30 12.55 219.42 12.13Q219.54 11.71 219.54 11.23L219.54 11.23L219.54 10.78Q218.91 11.02 218.40 11.14Q217.88 11.26 217.28 11.26L217.28 11.26Q215.07 11.26 213.93 9.86Q212.79 8.47 212.79 6L212.79 6Q212.79 3.22 214.33 1.85Q215.86 0.48 218.50 0.48L218.50 0.48Q220.35 0.48 222.51 1.08L222.51 1.08ZM224.74 6.46L224.74 6.46Q224.74 4.97 225.20 3.84Q225.66 2.71 226.40 1.96Q227.14 1.20 228.10 0.82Q229.06 0.43 230.07 0.43L230.07 0.43Q232.57 0.43 233.86 1.91Q235.16 3.38 235.16 6.22L235.16 6.22Q235.16 6.50 235.15 6.82Q235.14 7.13 235.11 7.32L235.11 7.32L227.79 7.32Q227.79 8.42 228.70 9.06Q229.62 9.70 231.06 9.70L231.06 9.70Q231.94 9.70 232.75 9.50Q233.55 9.31 234.10 9.12L234.10 9.12L234.51 11.64Q233.74 11.90 232.88 12.08Q232.02 12.26 230.94 12.26L230.94 12.26Q229.50 12.26 228.36 11.89Q227.22 11.52 226.41 10.79Q225.61 10.06 225.18 8.98Q224.74 7.90 224.74 6.46ZM227.79 5.28L232.30 5.28Q232.30 4.82 232.18 4.40Q232.06 3.98 231.80 3.65Q231.54 3.31 231.13 3.11Q230.72 2.90 230.12 2.90L230.12 2.90Q229.54 2.90 229.12 3.10Q228.70 3.29 228.43 3.62Q228.15 3.96 228.00 4.39Q227.84 4.82 227.79 5.28L227.79 5.28ZM241.47 9.77L241.47 9.77Q242.55 9.77 243.13 9.61Q243.70 9.46 243.70 8.98L243.70 8.98Q243.70 8.66 243.52 8.45Q243.34 8.23 243.02 8.08Q242.70 7.92 242.28 7.78Q241.86 7.63 241.40 7.49L241.40 7.49Q240.75 7.30 240.08 7.04Q239.41 6.79 238.86 6.41Q238.30 6.02 237.94 5.44Q237.58 4.85 237.58 3.96L237.58 3.96Q237.58 3.24 237.86 2.60Q238.14 1.97 238.72 1.48Q239.31 0.98 240.22 0.71Q241.14 0.43 242.41 0.43L242.41 0.43Q243.51 0.43 244.46 0.60Q245.41 0.77 246.10 1.08L246.10 1.08L245.65 3.58Q245.24 3.46 244.38 3.18Q243.51 2.90 242.43 2.90L242.43 2.90Q241.30 2.90 240.91 3.18Q240.51 3.46 240.51 3.77L240.51 3.77Q240.51 4.03 240.69 4.24Q240.87 4.44 241.17 4.61Q241.47 4.78 241.87 4.93Q242.26 5.09 242.72 5.23L242.72 5.23Q243.37 5.45 244.06 5.71Q244.76 5.98 245.32 6.37Q245.89 6.77 246.25 7.38Q246.61 7.99 246.61 8.88L246.61 8.88Q246.61 9.58 246.34 10.20Q246.08 10.82 245.47 11.28Q244.86 11.74 243.87 12Q242.89 12.26 241.45 12.26L241.45 12.26Q239.98 12.26 238.95 11.93Q237.92 11.59 237.30 11.33L237.30 11.33L237.75 8.86Q238.59 9.19 239.54 9.48Q240.49 9.77 241.47 9.77Z"/>
    </g>
</svg>