<?xml version="1.0" encoding="UTF-8"?>
<svg height="26" width="66.3" version="1.1" xmlns="http://www.w3.org/2000/svg"><!--Created by Josélio de S. C. Júnior - 2021 - https://github.com/joseliojunior -->
    <rect
        height="24"
        width="64.3"
        rx="12"
        ry="12"
        x="1" y="1"
        fill="#DBCA00"
        stroke="#423d00"
        stroke-width="1" />
    <g transform="translate(0, 8)">
        <path fill="#423d00" d="M27.36 8.37L27.36 10L21.14 10L21.14 0.10L23.12 0.10L23.12 8.37L27.36 8.37ZM28.50 6.30L28.50 6.30Q28.50 5.31 28.80 4.56Q29.10 3.81 29.60 3.30Q30.10 2.80 30.74 2.54Q31.38 2.29 32.05 2.29L32.05 2.29Q33.71 2.29 34.58 3.27Q35.44 4.26 35.44 6.14L35.44 6.14Q35.44 6.34 35.43 6.54Q35.42 6.75 35.41 6.88L35.41 6.88L30.53 6.88Q30.53 7.62 31.14 8.04Q31.74 8.46 32.70 8.46L32.70 8.46Q33.30 8.46 33.83 8.34Q34.37 8.21 34.74 8.08L34.74 8.08L35.01 9.76Q34.50 9.94 33.92 10.06Q33.34 10.18 32.62 10.18L32.62 10.18Q31.66 10.18 30.90 9.93Q30.14 9.68 29.61 9.19Q29.07 8.70 28.78 7.98Q28.50 7.26 28.50 6.30ZM30.53 5.52L33.54 5.52Q33.54 5.22 33.46 4.94Q33.38 4.66 33.20 4.43Q33.02 4.21 32.75 4.07Q32.48 3.94 32.08 3.94L32.08 3.94Q31.70 3.94 31.42 4.06Q31.14 4.19 30.95 4.42Q30.77 4.64 30.66 4.93Q30.56 5.22 30.53 5.52L30.53 5.52ZM38.40 2.48L40.06 4.83L41.60 2.48L43.60 2.48L41.17 6.10Q41.55 6.56 41.92 7.08Q42.29 7.60 42.62 8.13Q42.96 8.66 43.23 9.14Q43.50 9.62 43.70 10L43.70 10L41.65 10Q41.22 9.18 40.78 8.54Q40.35 7.90 39.97 7.39L39.97 7.39Q39.49 8.03 39.10 8.64Q38.72 9.25 38.32 10L38.32 10L36.32 10Q36.56 9.55 36.87 9.06Q37.18 8.58 37.53 8.07Q37.87 7.57 38.25 7.07Q38.62 6.58 38.98 6.13L38.98 6.13L36.34 2.48L38.40 2.48Z"/>
    </g>
</svg>