<?xml version="1.0" encoding="UTF-8"?>
<svg height="34" width="78.3" version="1.1" xmlns="http://www.w3.org/2000/svg">
    <rect
        height="32"
        width="76.3"
        rx="1"
        ry="1"
        x="1"
        y="1"
        fill="#DBCA00"
        stroke="#423d00"
        stroke-width="1"
         />
    <g transform="translate(0, 12)">
        <path fill="#423d00" d="M31.04 9.55L31.04 12L21.70 12L21.70-2.86L24.68-2.86L24.68 9.55L31.04 9.55ZM32.74 6.46L32.74 6.46Q32.74 4.97 33.20 3.84Q33.66 2.71 34.40 1.96Q35.14 1.20 36.10 0.82Q37.06 0.43 38.07 0.43L38.07 0.43Q40.57 0.43 41.86 1.91Q43.16 3.38 43.16 6.22L43.16 6.22Q43.16 6.50 43.15 6.82Q43.14 7.13 43.11 7.32L43.11 7.32L35.79 7.32Q35.79 8.42 36.70 9.06Q37.62 9.70 39.06 9.70L39.06 9.70Q39.94 9.70 40.75 9.50Q41.55 9.31 42.10 9.12L42.10 9.12L42.51 11.64Q41.74 11.90 40.88 12.08Q40.02 12.26 38.94 12.26L38.94 12.26Q37.50 12.26 36.36 11.89Q35.22 11.52 34.41 10.79Q33.61 10.06 33.18 8.98Q32.74 7.90 32.74 6.46ZM35.79 5.28L40.30 5.28Q40.30 4.82 40.18 4.40Q40.06 3.98 39.80 3.65Q39.54 3.31 39.13 3.11Q38.72 2.90 38.12 2.90L38.12 2.90Q37.54 2.90 37.12 3.10Q36.70 3.29 36.43 3.62Q36.15 3.96 36.00 4.39Q35.84 4.82 35.79 5.28L35.79 5.28ZM47.60 0.72L50.10 4.25L52.40 0.72L55.40 0.72L51.75 6.14Q52.33 6.84 52.88 7.62Q53.43 8.40 53.94 9.19Q54.44 9.98 54.85 10.70Q55.26 11.42 55.54 12L55.54 12L52.47 12Q51.82 10.78 51.18 9.82Q50.53 8.86 49.95 8.09L49.95 8.09Q49.23 9.05 48.66 9.96Q48.08 10.87 47.48 12L47.48 12L44.48 12Q44.84 11.33 45.31 10.60Q45.78 9.86 46.29 9.11Q46.81 8.35 47.37 7.61Q47.94 6.86 48.46 6.19L48.46 6.19L44.50 0.72L47.60 0.72Z"/>
    </g>
</svg>