<?xml version="1.0" encoding="UTF-8"?>
<svg height="26" width="74.4" version="1.1" xmlns="http://www.w3.org/2000/svg"><!--Created by Josélio de S. C. Júnior - 2021 - https://github.com/joseliojunior -->
    <rect
        height="24"
        width="72.4"
        rx="12"
        ry="12"
        x="1" y="1"
        fill="#88ccff"
        stroke="#006bbd"
        stroke-width="1" />
    <g transform="translate(0, 8)">
        <path fill="#006bbd" d="M22.98 10L21.01 10L21.01 0.10L27.07 0.10L27.07 1.73L22.98 1.73L22.98 4.13L26.56 4.13L26.56 5.76L22.98 5.76L22.98 10ZM35.36 8.37L35.36 10L29.14 10L29.14 0.10L31.12 0.10L31.12 8.37L35.36 8.37ZM39.97 10.21L39.97 10.21Q39.01 10.21 38.36 9.94Q37.71 9.68 37.33 9.18Q36.94 8.69 36.78 7.98Q36.62 7.28 36.62 6.42L36.62 6.42L36.62 0.10L38.61 0.10L38.61 6.29Q38.61 6.91 38.67 7.34Q38.74 7.76 38.89 8.02Q39.04 8.27 39.31 8.38Q39.58 8.50 40 8.50L40 8.50Q40.42 8.50 40.69 8.38Q40.96 8.27 41.12 8.01Q41.28 7.74 41.34 7.32Q41.41 6.90 41.41 6.27L41.41 6.27L41.41 0.10L43.38 0.10L43.38 6.42Q43.38 7.28 43.22 7.98Q43.06 8.69 42.66 9.18Q42.26 9.68 41.60 9.94Q40.94 10.21 39.97 10.21ZM51.82 10L49.70 10Q49.39 9.18 48.95 8.19Q48.51 7.20 48.03 6.21L48.03 6.21Q47.57 7.15 47.10 8.17Q46.64 9.18 46.30 10L46.30 10L44.18 10Q44.34 9.57 44.65 8.96Q44.96 8.35 45.34 7.65Q45.71 6.94 46.13 6.20Q46.54 5.46 46.93 4.77L46.93 4.77L44.34 0.10L46.46 0.10L48.03 3.26L49.68 0.10L51.66 0.10L49.14 4.72Q49.57 5.41 49.98 6.16Q50.40 6.91 50.76 7.62Q51.12 8.34 51.39 8.95Q51.66 9.57 51.82 10L51.82 10Z"/>
    </g>
</svg>