<?xml version="1.0" encoding="UTF-8"?>
<svg height="34" width="78.4" version="1.1" xmlns="http://www.w3.org/2000/svg">
    <rect
        height="32"
        width="76.4"
        rx="1"
        ry="1"
        x="1"
        y="1"
        fill="#88ccff"
        stroke="#006bbd"
        stroke-width="1"
         />
    <g transform="translate(0, 14)">
        <path fill="#006bbd" d="M15.21 11L11.76 11L11.76-6.33L22.38-6.33L22.38-3.48L15.21-3.48L15.21 0.72L21.48 0.72L21.48 3.58L15.21 3.58L15.21 11ZM36.88 8.14L36.88 11L25.99 11L25.99-6.33L29.46-6.33L29.46 8.14L36.88 8.14ZM44.94 11.36L44.94 11.36Q43.26 11.36 42.13 10.90Q41.00 10.44 40.32 9.57Q39.65 8.70 39.37 7.47Q39.09 6.24 39.09 4.73L39.09 4.73L39.09-6.33L42.56-6.33L42.56 4.50Q42.56 5.60 42.68 6.34Q42.79 7.08 43.05 7.53Q43.32 7.98 43.80 8.17Q44.27 8.37 45 8.37L45 8.37Q45.73 8.37 46.20 8.17Q46.68 7.98 46.96 7.51Q47.24 7.05 47.35 6.31Q47.46 5.57 47.46 4.48L47.46 4.48L47.46-6.33L50.91-6.33L50.91 4.73Q50.91 6.24 50.63 7.47Q50.35 8.70 49.65 9.57Q48.95 10.44 47.80 10.90Q46.65 11.36 44.94 11.36ZM65.69 11L61.97 11Q61.44 9.57 60.67 7.84Q59.90 6.10 59.06 4.36L59.06 4.36Q58.24 6.02 57.43 7.79Q56.62 9.57 56.03 11L56.03 11L52.31 11Q52.59 10.24 53.13 9.18Q53.68 8.12 54.34 6.88Q55.00 5.65 55.72 4.35Q56.45 3.05 57.12 1.84L57.12 1.84L52.59-6.33L56.31-6.33L59.06-0.79L61.94-6.33L65.41-6.33L60.99 1.76Q61.74 2.96 62.47 4.28Q63.20 5.60 63.83 6.84Q64.46 8.09 64.94 9.17Q65.41 10.24 65.69 11L65.69 11Z"/>
    </g>
</svg>