<?xml version="1.0" encoding="UTF-8"?>
<svg height="34" width="90.4" version="1.1" xmlns="http://www.w3.org/2000/svg">
    <rect
        height="32"
        width="88.4"
        rx="1"
        ry="1"
        x="1"
        y="1"
        fill="#88ccff"
        stroke="#006bbd"
        stroke-width="1"
         />
    <g transform="translate(0, 12)">
        <path fill="#006bbd" d="M24.46 12L21.51 12L21.51-2.86L30.61-2.86L30.61-0.41L24.46-0.41L24.46 3.19L29.84 3.19L29.84 5.64L24.46 5.64L24.46 12ZM43.04 9.55L43.04 12L33.70 12L33.70-2.86L36.68-2.86L36.68 9.55L43.04 9.55ZM49.95 12.31L49.95 12.31Q48.51 12.31 47.54 11.92Q46.57 11.52 45.99 10.78Q45.42 10.03 45.18 8.98Q44.94 7.92 44.94 6.62L44.94 6.62L44.94-2.86L47.91-2.86L47.91 6.43Q47.91 7.37 48.01 8.00Q48.10 8.64 48.33 9.02Q48.56 9.41 48.97 9.58Q49.38 9.74 50 9.74L50 9.74Q50.62 9.74 51.03 9.58Q51.44 9.41 51.68 9.01Q51.92 8.62 52.02 7.98Q52.11 7.34 52.11 6.41L52.11 6.41L52.11-2.86L55.06-2.86L55.06 6.62Q55.06 7.92 54.82 8.98Q54.58 10.03 53.98 10.78Q53.38 11.52 52.40 11.92Q51.42 12.31 49.95 12.31ZM67.74 12L64.54 12Q64.09 10.78 63.43 9.29Q62.77 7.80 62.05 6.31L62.05 6.31Q61.35 7.73 60.66 9.25Q59.96 10.78 59.46 12L59.46 12L56.26 12Q56.50 11.35 56.97 10.44Q57.44 9.53 58.00 8.47Q58.57 7.42 59.19 6.30Q59.82 5.18 60.39 4.15L60.39 4.15L56.50-2.86L59.70-2.86L62.05 1.90L64.52-2.86L67.50-2.86L63.70 4.08Q64.35 5.11 64.98 6.24Q65.60 7.37 66.14 8.44Q66.68 9.50 67.09 10.43Q67.50 11.35 67.74 12L67.74 12Z"/>
    </g>
</svg>