<?xml version="1.0" encoding="UTF-8"?>
<svg height="26" width="236.39999999999998" version="1.1" xmlns="http://www.w3.org/2000/svg"><!--Created by Josélio de S. C. Júnior - 2021 - https://github.com/joseliojunior -->
    <rect
        height="24"
        width="234.39999999999998"
        rx="1"
        ry="1"
        x="1" y="1"
        fill="#0B3D91"
        stroke="#4685f1"
        stroke-width="1" />
    <g transform="translate(0, 8)">
        <path fill="#4685f1" stroke="none" d="M27.86 10L25.74 10L25.28 7.71L22.64 7.71L22.19 10L20.14 10Q20.85 7.07 21.57 4.66Q22.29 2.26 22.96 0.10L22.96 0.10L25.10 0.10Q25.81 2.27 26.50 4.71Q27.20 7.15 27.86 10L27.86 10ZM23.98 2.02L23.98 2.02Q23.82 2.58 23.69 3.08Q23.55 3.58 23.43 4.07Q23.31 4.56 23.21 5.06Q23.10 5.55 23.01 6.08L23.01 6.08L24.94 6.08Q24.85 5.55 24.75 5.06Q24.66 4.56 24.54 4.07Q24.42 3.58 24.28 3.08Q24.14 2.58 23.98 2.02ZM33.50 6.30L33.50 6.30Q33.50 5.30 33.10 4.65Q32.70 4 31.89 4L31.89 4Q31.66 4 31.41 4.02Q31.15 4.05 30.98 4.06L30.98 4.06L30.98 8.19Q31.17 8.32 31.49 8.40Q31.81 8.48 32.13 8.48L32.13 8.48Q32.83 8.48 33.17 7.91Q33.50 7.34 33.50 6.30ZM35.50 6.24L35.50 6.24Q35.50 7.10 35.31 7.83Q35.12 8.56 34.75 9.08Q34.38 9.60 33.82 9.89Q33.26 10.18 32.53 10.18L32.53 10.18Q31.78 10.18 30.98 9.81L30.98 9.81L30.98 12.64L29.01 12.64L29.01 2.72Q29.55 2.54 30.34 2.43Q31.14 2.32 31.90 2.32L31.90 2.32Q33.65 2.32 34.58 3.38Q35.50 4.43 35.50 6.24ZM43.55 6.22L43.55 6.22Q43.55 7.12 43.30 7.85Q43.04 8.58 42.58 9.10Q42.11 9.63 41.46 9.92Q40.82 10.21 40.02 10.21L40.02 10.21Q39.22 10.21 38.57 9.92Q37.92 9.63 37.45 9.10Q36.98 8.58 36.72 7.85Q36.46 7.12 36.46 6.22L36.46 6.22Q36.46 5.34 36.73 4.62Q36.99 3.89 37.46 3.37Q37.94 2.85 38.59 2.57Q39.25 2.29 40.02 2.29L40.02 2.29Q40.80 2.29 41.45 2.57Q42.10 2.85 42.57 3.37Q43.04 3.89 43.30 4.62Q43.55 5.34 43.55 6.22ZM38.46 6.24L38.46 6.24Q38.46 7.25 38.82 7.87Q39.18 8.50 39.98 8.50L39.98 8.50Q40.75 8.50 41.14 7.87Q41.54 7.25 41.54 6.24L41.54 6.24Q41.54 5.23 41.18 4.62Q40.82 4 40.02 4L40.02 4Q39.25 4 38.86 4.62Q38.46 5.23 38.46 6.24ZM51.22 8.10L51.47 9.68Q51.42 9.71 51.26 9.79Q51.09 9.87 50.82 9.96Q50.54 10.05 50.15 10.11Q49.76 10.18 49.26 10.18L49.26 10.18Q47.90 10.18 47.28 9.37Q46.66 8.56 46.66 7.01L46.66 7.01L46.66 0.62L44.58 0.62L44.58-1.01L48.62-1.01L48.62 7.15Q48.62 7.92 48.93 8.19Q49.23 8.46 49.70 8.46L49.70 8.46Q50.29 8.46 50.69 8.30Q51.09 8.14 51.22 8.10L51.22 8.10ZM59.22 8.10L59.47 9.68Q59.42 9.71 59.26 9.79Q59.09 9.87 58.82 9.96Q58.54 10.05 58.15 10.11Q57.76 10.18 57.26 10.18L57.26 10.18Q55.90 10.18 55.28 9.37Q54.66 8.56 54.66 7.01L54.66 7.01L54.66 0.62L52.58 0.62L52.58-1.01L56.62-1.01L56.62 7.15Q56.62 7.92 56.93 8.19Q57.23 8.46 57.70 8.46L57.70 8.46Q58.29 8.46 58.69 8.30Q59.09 8.14 59.22 8.10L59.22 8.10ZM67.55 6.22L67.55 6.22Q67.55 7.12 67.30 7.85Q67.04 8.58 66.58 9.10Q66.11 9.63 65.46 9.92Q64.82 10.21 64.02 10.21L64.02 10.21Q63.22 10.21 62.57 9.92Q61.92 9.63 61.45 9.10Q60.98 8.58 60.72 7.85Q60.46 7.12 60.46 6.22L60.46 6.22Q60.46 5.34 60.73 4.62Q60.99 3.89 61.46 3.37Q61.94 2.85 62.59 2.57Q63.25 2.29 64.02 2.29L64.02 2.29Q64.80 2.29 65.45 2.57Q66.10 2.85 66.57 3.37Q67.04 3.89 67.30 4.62Q67.55 5.34 67.55 6.22ZM62.46 6.24L62.46 6.24Q62.46 7.25 62.82 7.87Q63.18 8.50 63.98 8.50L63.98 8.50Q64.75 8.50 65.14 7.87Q65.54 7.25 65.54 6.24L65.54 6.24Q65.54 5.23 65.18 4.62Q64.82 4 64.02 4L64.02 4Q63.25 4 62.86 4.62Q62.46 5.23 62.46 6.24ZM80.99 1.58L80.99 1.58Q80.29 1.58 79.81 1.84Q79.33 2.10 79.02 2.55Q78.70 3.01 78.57 3.64Q78.43 4.27 78.43 5.04L78.43 5.04Q78.43 6.82 78.99 7.66Q79.55 8.50 80.64 8.50L80.64 8.50Q80.82 8.50 81.02 8.48Q81.23 8.46 81.41 8.43L81.41 8.43L81.41 4.82L83.38 4.82L83.38 9.76Q83.02 9.89 82.28 10.05Q81.54 10.21 80.48 10.21L80.48 10.21Q79.55 10.21 78.81 9.88Q78.06 9.55 77.54 8.90Q77.01 8.26 76.72 7.29Q76.43 6.32 76.43 5.04L76.43 5.04Q76.43 3.78 76.77 2.81Q77.10 1.84 77.68 1.18Q78.26 0.53 79.04 0.20Q79.82-0.13 80.72-0.13L80.72-0.13Q81.30-0.13 81.75-0.04Q82.21 0.05 82.54 0.16Q82.88 0.27 83.10 0.40Q83.31 0.53 83.42 0.59L83.42 0.59L82.91 2.16Q82.56 1.94 82.05 1.76Q81.54 1.58 80.99 1.58ZM91.01 2.48L91.01 9.74Q90.46 9.89 89.69 10.03Q88.91 10.18 88 10.18L88 10.18Q87.07 10.18 86.48 9.92Q85.89 9.66 85.54 9.19Q85.20 8.72 85.07 8.08Q84.94 7.44 84.94 6.67L84.94 6.67L84.94 2.48L86.91 2.48L86.91 6.42Q86.91 7.46 87.16 7.96Q87.41 8.46 88.13 8.46L88.13 8.46Q88.58 8.46 89.02 8.38L89.02 8.38L89.02 2.48L91.01 2.48ZM96.54 0.32L96.54 0.32Q96.54 0.90 96.18 1.23Q95.81 1.57 95.30 1.57L95.30 1.57Q94.78 1.57 94.42 1.23Q94.06 0.90 94.06 0.32L94.06 0.32Q94.06-0.27 94.42-0.61Q94.78-0.94 95.30-0.94L95.30-0.94Q95.81-0.94 96.18-0.61Q96.54-0.27 96.54 0.32ZM99.22 8.10L99.47 9.68Q98.86 9.97 98.33 10.07Q97.79 10.18 97.34 10.18L97.34 10.18Q96.58 10.18 96.06 9.95Q95.54 9.73 95.22 9.30Q94.91 8.88 94.78 8.27Q94.66 7.66 94.66 6.88L94.66 6.88L94.66 4.11L92.58 4.11L92.58 2.48L96.62 2.48L96.62 7.14Q96.62 7.81 96.87 8.14Q97.12 8.46 97.70 8.46L97.70 8.46Q97.97 8.46 98.35 8.39Q98.74 8.32 99.22 8.10L99.22 8.10ZM102.45 6.19L102.45 6.19Q102.45 7.20 102.82 7.84Q103.20 8.48 104.03 8.48L104.03 8.48Q104.27 8.48 104.48 8.46Q104.69 8.45 104.91 8.42L104.91 8.42L104.91 4.32Q104.69 4.19 104.40 4.10Q104.11 4.02 103.79 4.02L103.79 4.02Q103.09 4.02 102.77 4.58Q102.45 5.14 102.45 6.19ZM106.88-1.10L106.88 9.78Q106.34 9.95 105.55 10.06Q104.77 10.18 104.02 10.18L104.02 10.18Q102.26 10.18 101.35 9.14Q100.45 8.10 100.45 6.29L100.45 6.29Q100.45 4.45 101.21 3.38Q101.97 2.32 103.46 2.32L103.46 2.32Q103.86 2.32 104.24 2.41Q104.62 2.50 104.91 2.66L104.91 2.66L104.91-0.77L106.88-1.10ZM112.02 8.59L112.02 8.59Q112.34 8.59 112.64 8.58Q112.94 8.58 113.17 8.54L113.17 8.54L113.17 6.82Q112.98 6.78 112.70 6.76Q112.43 6.74 112.21 6.74L112.21 6.74Q111.90 6.74 111.62 6.78Q111.33 6.82 111.11 6.91Q110.90 7.01 110.77 7.18Q110.64 7.36 110.64 7.65L110.64 7.65Q110.64 8.16 111.02 8.38Q111.41 8.59 112.02 8.59ZM111.84 2.29L111.84 2.29Q112.77 2.29 113.38 2.50Q114 2.72 114.37 3.11Q114.74 3.50 114.90 4.07Q115.06 4.64 115.06 5.34L115.06 5.34L115.06 9.82Q114.62 9.92 113.78 10.05Q112.93 10.18 111.87 10.18L111.87 10.18Q111.15 10.18 110.57 10.05Q109.98 9.92 109.57 9.62Q109.15 9.33 108.93 8.86Q108.70 8.38 108.70 7.70L108.70 7.70Q108.70 7.04 108.96 6.59Q109.22 6.14 109.65 5.87Q110.08 5.60 110.64 5.48Q111.20 5.36 111.81 5.36L111.81 5.36Q112.58 5.36 113.17 5.49L113.17 5.49L113.17 5.25Q113.17 4.69 112.82 4.31Q112.46 3.94 111.60 3.94L111.60 3.94Q111.04 3.94 110.52 4.02Q110 4.10 109.68 4.21L109.68 4.21L109.41 2.62Q109.78 2.50 110.45 2.39Q111.12 2.29 111.84 2.29ZM117.01 10L117.01 2.72Q117.54 2.58 118.31 2.45Q119.09 2.32 120 2.32L120 2.32Q120.90 2.32 121.49 2.57Q122.08 2.82 122.42 3.27Q122.77 3.73 122.91 4.36Q123.06 4.99 123.06 5.76L123.06 5.76L123.06 10L121.09 10L121.09 6.02Q121.09 4.96 120.85 4.50Q120.61 4.03 119.87 4.03L119.87 4.03Q119.65 4.03 119.43 4.05Q119.22 4.06 118.98 4.10L118.98 4.10L118.98 10L117.01 10ZM124.70 6.24L124.70 6.24Q124.70 5.42 124.96 4.70Q125.22 3.98 125.74 3.45Q126.27 2.91 127.08 2.60Q127.89 2.29 129.01 2.29L129.01 2.29Q129.68 2.29 130.22 2.38Q130.77 2.48 131.33 2.70L131.33 2.70L130.90 4.29Q130.58 4.18 130.18 4.09Q129.79 4 129.18 4L129.18 4Q128.48 4 128.01 4.17Q127.54 4.34 127.25 4.63Q126.96 4.93 126.83 5.34Q126.70 5.76 126.70 6.24L126.70 6.24Q126.70 7.28 127.29 7.87Q127.87 8.46 129.28 8.46L129.28 8.46Q129.74 8.46 130.25 8.40Q130.75 8.34 131.17 8.19L131.17 8.19L131.46 9.81Q131.04 9.97 130.45 10.07Q129.86 10.18 129.06 10.18L129.06 10.18Q127.90 10.18 127.08 9.87Q126.26 9.57 125.73 9.04Q125.20 8.51 124.95 7.79Q124.70 7.07 124.70 6.24ZM132.50 6.30L132.50 6.30Q132.50 5.31 132.80 4.56Q133.10 3.81 133.60 3.30Q134.10 2.80 134.74 2.54Q135.38 2.29 136.05 2.29L136.05 2.29Q137.71 2.29 138.58 3.27Q139.44 4.26 139.44 6.14L139.44 6.14Q139.44 6.34 139.43 6.54Q139.42 6.75 139.41 6.88L139.41 6.88L134.53 6.88Q134.53 7.62 135.14 8.04Q135.74 8.46 136.70 8.46L136.70 8.46Q137.30 8.46 137.83 8.34Q138.37 8.21 138.74 8.08L138.74 8.08L139.01 9.76Q138.50 9.94 137.92 10.06Q137.34 10.18 136.62 10.18L136.62 10.18Q135.66 10.18 134.90 9.93Q134.14 9.68 133.61 9.19Q133.07 8.70 132.78 7.98Q132.50 7.26 132.50 6.30ZM134.53 5.52L137.54 5.52Q137.54 5.22 137.46 4.94Q137.38 4.66 137.20 4.43Q137.02 4.21 136.75 4.07Q136.48 3.94 136.08 3.94L136.08 3.94Q135.70 3.94 135.42 4.06Q135.14 4.19 134.95 4.42Q134.77 4.64 134.66 4.93Q134.56 5.22 134.53 5.52L134.53 5.52ZM152.74 10.21L152.74 10.21Q150.64 10.21 149.54 8.86Q148.43 7.52 148.43 5.04L148.43 5.04Q148.43 3.81 148.77 2.85Q149.10 1.89 149.70 1.22Q150.30 0.56 151.13 0.22Q151.95-0.13 152.93-0.13L152.93-0.13Q153.46-0.13 153.88-0.04Q154.30 0.05 154.62 0.16Q154.94 0.27 155.16 0.40Q155.38 0.53 155.49 0.59L155.49 0.59L154.98 2.16Q154.61 1.92 154.09 1.75Q153.57 1.58 152.90 1.58L152.90 1.58Q152.43 1.58 151.99 1.75Q151.55 1.92 151.21 2.31Q150.86 2.70 150.65 3.36Q150.43 4.02 150.43 4.99L150.43 4.99Q150.43 6.69 151.02 7.59Q151.60 8.50 152.93 8.50L152.93 8.50Q153.70 8.50 154.20 8.32Q154.70 8.14 155.01 7.97L155.01 7.97L155.50 9.52Q155.09 9.78 154.38 9.99Q153.66 10.21 152.74 10.21ZM163.55 6.22L163.55 6.22Q163.55 7.12 163.30 7.85Q163.04 8.58 162.58 9.10Q162.11 9.63 161.46 9.92Q160.82 10.21 160.02 10.21L160.02 10.21Q159.22 10.21 158.57 9.92Q157.92 9.63 157.45 9.10Q156.98 8.58 156.72 7.85Q156.46 7.12 156.46 6.22L156.46 6.22Q156.46 5.34 156.73 4.62Q156.99 3.89 157.46 3.37Q157.94 2.85 158.59 2.57Q159.25 2.29 160.02 2.29L160.02 2.29Q160.80 2.29 161.45 2.57Q162.10 2.85 162.57 3.37Q163.04 3.89 163.30 4.62Q163.55 5.34 163.55 6.22ZM158.46 6.24L158.46 6.24Q158.46 7.25 158.82 7.87Q159.18 8.50 159.98 8.50L159.98 8.50Q160.75 8.50 161.14 7.87Q161.54 7.25 161.54 6.24L161.54 6.24Q161.54 5.23 161.18 4.62Q160.82 4 160.02 4L160.02 4Q159.25 4 158.86 4.62Q158.46 5.23 158.46 6.24ZM169.49 2.40L169.49 2.40Q170.11 2.40 170.51 2.59Q170.91 2.78 171.14 3.17Q171.38 3.55 171.46 4.14Q171.54 4.72 171.54 5.50L171.54 5.50L171.54 10L169.94 10L169.94 5.41Q169.94 4.96 169.88 4.69Q169.82 4.42 169.74 4.27Q169.65 4.13 169.53 4.08Q169.41 4.03 169.28 4.03L169.28 4.03Q169.14 4.03 168.98 4.06Q168.82 4.08 168.69 4.14L168.69 4.14Q168.74 4.45 168.77 4.82Q168.80 5.18 168.80 5.63L168.80 5.63L168.80 7.14L167.20 7.14L167.20 5.41Q167.20 4.64 167.05 4.34Q166.90 4.03 166.56 4.03L166.56 4.03Q166.46 4.03 166.33 4.05Q166.19 4.06 166.06 4.10L166.06 4.10L166.06 10L164.46 10L164.46 2.77Q165.09 2.59 165.70 2.50Q166.30 2.40 166.77 2.40L166.77 2.40Q167.18 2.40 167.51 2.50Q167.84 2.61 168.08 2.85L168.08 2.85Q168.35 2.67 168.72 2.54Q169.09 2.40 169.49 2.40ZM177.50 6.30L177.50 6.30Q177.50 5.30 177.10 4.65Q176.70 4 175.89 4L175.89 4Q175.66 4 175.41 4.02Q175.15 4.05 174.98 4.06L174.98 4.06L174.98 8.19Q175.17 8.32 175.49 8.40Q175.81 8.48 176.13 8.48L176.13 8.48Q176.83 8.48 177.17 7.91Q177.50 7.34 177.50 6.30ZM179.50 6.24L179.50 6.24Q179.50 7.10 179.31 7.83Q179.12 8.56 178.75 9.08Q178.38 9.60 177.82 9.89Q177.26 10.18 176.53 10.18L176.53 10.18Q175.78 10.18 174.98 9.81L174.98 9.81L174.98 12.64L173.01 12.64L173.01 2.72Q173.55 2.54 174.34 2.43Q175.14 2.32 175.90 2.32L175.90 2.32Q177.65 2.32 178.58 3.38Q179.50 4.43 179.50 6.24ZM187.01 2.48L187.01 9.74Q186.46 9.89 185.69 10.03Q184.91 10.18 184 10.18L184 10.18Q183.07 10.18 182.48 9.92Q181.89 9.66 181.54 9.19Q181.20 8.72 181.07 8.08Q180.94 7.44 180.94 6.67L180.94 6.67L180.94 2.48L182.91 2.48L182.91 6.42Q182.91 7.46 183.16 7.96Q183.41 8.46 184.13 8.46L184.13 8.46Q184.58 8.46 185.02 8.38L185.02 8.38L185.02 2.48L187.01 2.48ZM190.29 7.20L190.29 4.11L188.58 4.11L188.58 2.48L190.29 2.48L190.29 0.59L192.26 0.27L192.26 2.48L195.41 2.48L195.41 4.11L192.26 4.11L192.26 7.15Q192.26 7.57 192.34 7.82Q192.42 8.08 192.56 8.22Q192.70 8.37 192.91 8.42Q193.12 8.46 193.38 8.46L193.38 8.46Q193.65 8.46 193.88 8.45Q194.11 8.43 194.33 8.39Q194.54 8.35 194.78 8.27Q195.01 8.19 195.28 8.06L195.28 8.06L195.55 9.76Q195.01 9.98 194.38 10.08Q193.74 10.18 193.15 10.18L193.15 10.18Q192.46 10.18 191.94 10.06Q191.41 9.95 191.04 9.63Q190.67 9.31 190.48 8.73Q190.29 8.14 190.29 7.20L190.29 7.20ZM196.50 6.30L196.50 6.30Q196.50 5.31 196.80 4.56Q197.10 3.81 197.60 3.30Q198.10 2.80 198.74 2.54Q199.38 2.29 200.05 2.29L200.05 2.29Q201.71 2.29 202.58 3.27Q203.44 4.26 203.44 6.14L203.44 6.14Q203.44 6.34 203.43 6.54Q203.42 6.75 203.41 6.88L203.41 6.88L198.53 6.88Q198.53 7.62 199.14 8.04Q199.74 8.46 200.70 8.46L200.70 8.46Q201.30 8.46 201.83 8.34Q202.37 8.21 202.74 8.08L202.74 8.08L203.01 9.76Q202.50 9.94 201.92 10.06Q201.34 10.18 200.62 10.18L200.62 10.18Q199.66 10.18 198.90 9.93Q198.14 9.68 197.61 9.19Q197.07 8.70 196.78 7.98Q196.50 7.26 196.50 6.30ZM198.53 5.52L201.54 5.52Q201.54 5.22 201.46 4.94Q201.38 4.66 201.20 4.43Q201.02 4.21 200.75 4.07Q200.48 3.94 200.08 3.94L200.08 3.94Q199.70 3.94 199.42 4.06Q199.14 4.19 198.95 4.42Q198.77 4.64 198.66 4.93Q198.56 5.22 198.53 5.52L198.53 5.52ZM211.34 2.66L210.99 4.48Q210.80 4.43 210.54 4.38Q210.27 4.34 210 4.30Q209.73 4.26 209.47 4.24Q209.22 4.22 209.04 4.22L209.04 4.22Q208.62 4.22 208.22 4.26Q207.82 4.30 207.41 4.42L207.41 4.42L207.41 10L205.42 10L205.42 2.98Q206.21 2.69 207.03 2.51Q207.86 2.34 208.96 2.34L208.96 2.34Q209.12 2.34 209.42 2.35Q209.71 2.37 210.05 2.41Q210.38 2.45 210.73 2.50Q211.07 2.56 211.34 2.66L211.34 2.66Z"/>
    </g>
</svg>