<?xml version="1.0" encoding="UTF-8"?>
<svg height="34" width="360.4" version="1.1" xmlns="http://www.w3.org/2000/svg">
    <rect
        height="32"
        width="358.4"
        rx="1"
        ry="1"
        x="1"
        y="1"
        fill="#0B3D91"
        stroke="#4685f1"
        stroke-width="1"
         />
    <g transform="translate(0, 14)">
        <path fill="#4685f1" d="M23.75 11L20.05 11L19.24 7.00L14.62 7.00L13.84 11L10.25 11Q11.48 5.88 12.74 1.66Q14.00-2.55 15.18-6.33L15.18-6.33L18.93-6.33Q20.16-2.52 21.38 1.75Q22.60 6.02 23.75 11L23.75 11ZM16.97-2.97L16.97-2.97Q16.69-1.99 16.45-1.11Q16.22-0.23 16.01 0.63Q15.80 1.48 15.61 2.35Q15.43 3.22 15.26 4.14L15.26 4.14L18.65 4.14Q18.48 3.22 18.32 2.35Q18.15 1.48 17.94 0.63Q17.73-0.23 17.49-1.11Q17.25-1.99 16.97-2.97ZM33.63 4.53L33.63 4.53Q33.63 2.77 32.93 1.63Q32.23 0.50 30.80 0.50L30.80 0.50Q30.41 0.50 29.96 0.54Q29.52 0.58 29.21 0.61L29.21 0.61L29.21 7.84Q29.54 8.06 30.10 8.20Q30.66 8.34 31.22 8.34L31.22 8.34Q32.46 8.34 33.04 7.35Q33.63 6.35 33.63 4.53ZM37.13 4.42L37.13 4.42Q37.13 5.93 36.80 7.21Q36.46 8.48 35.82 9.39Q35.17 10.30 34.19 10.80Q33.21 11.31 31.92 11.31L31.92 11.31Q30.61 11.31 29.21 10.66L29.21 10.66L29.21 15.62L25.76 15.62L25.76-1.74Q26.72-2.05 28.10-2.24Q29.49-2.44 30.83-2.44L30.83-2.44Q33.88-2.44 35.51-0.59Q37.13 1.26 37.13 4.42ZM51.22 4.39L51.22 4.39Q51.22 5.96 50.77 7.23Q50.32 8.51 49.51 9.43Q48.70 10.36 47.56 10.86Q46.43 11.36 45.03 11.36L45.03 11.36Q43.63 11.36 42.49 10.86Q41.36 10.36 40.53 9.43Q39.71 8.51 39.26 7.23Q38.81 5.96 38.81 4.39L38.81 4.39Q38.81 2.85 39.27 1.58Q39.74 0.30 40.56-0.61Q41.39-1.52 42.54-2.01Q43.68-2.50 45.03-2.50L45.03-2.50Q46.40-2.50 47.53-2.01Q48.67-1.52 49.49-0.61Q50.32 0.30 50.77 1.58Q51.22 2.85 51.22 4.39ZM42.31 4.42L42.31 4.42Q42.31 6.18 42.94 7.28Q43.57 8.37 44.97 8.37L44.97 8.37Q46.32 8.37 47.00 7.28Q47.69 6.18 47.69 4.42L47.69 4.42Q47.69 2.66 47.06 1.58Q46.43 0.50 45.03 0.50L45.03 0.50Q43.68 0.50 43.00 1.58Q42.31 2.66 42.31 4.42ZM64.63 7.67L65.08 10.44Q64.99 10.50 64.70 10.64Q64.40 10.78 63.93 10.93Q63.45 11.08 62.77 11.20Q62.08 11.31 61.21 11.31L61.21 11.31Q58.83 11.31 57.74 9.89Q56.65 8.48 56.65 5.76L56.65 5.76L56.65-5.41L53.01-5.41L53.01-8.26L60.09-8.26L60.09 6.02Q60.09 7.36 60.62 7.84Q61.16 8.31 61.97 8.31L61.97 8.31Q63.00 8.31 63.70 8.03Q64.40 7.75 64.63 7.67L64.63 7.67ZM78.63 7.67L79.08 10.44Q78.99 10.50 78.70 10.64Q78.40 10.78 77.93 10.93Q77.45 11.08 76.77 11.20Q76.08 11.31 75.21 11.31L75.21 11.31Q72.83 11.31 71.74 9.89Q70.65 8.48 70.65 5.76L70.65 5.76L70.65-5.41L67.01-5.41L67.01-8.26L74.09-8.26L74.09 6.02Q74.09 7.36 74.62 7.84Q75.16 8.31 75.97 8.31L75.97 8.31Q77.00 8.31 77.70 8.03Q78.40 7.75 78.63 7.67L78.63 7.67ZM93.22 4.39L93.22 4.39Q93.22 5.96 92.77 7.23Q92.32 8.51 91.51 9.43Q90.70 10.36 89.56 10.86Q88.43 11.36 87.03 11.36L87.03 11.36Q85.63 11.36 84.49 10.86Q83.36 10.36 82.53 9.43Q81.71 8.51 81.26 7.23Q80.81 5.96 80.81 4.39L80.81 4.39Q80.81 2.85 81.27 1.58Q81.74 0.30 82.56-0.61Q83.39-1.52 84.54-2.01Q85.68-2.50 87.03-2.50L87.03-2.50Q88.40-2.50 89.53-2.01Q90.67-1.52 91.49-0.61Q92.32 0.30 92.77 1.58Q93.22 2.85 93.22 4.39ZM84.31 4.42L84.31 4.42Q84.31 6.18 84.94 7.28Q85.57 8.37 86.97 8.37L86.97 8.37Q88.32 8.37 89.00 7.28Q89.69 6.18 89.69 4.42L89.69 4.42Q89.69 2.66 89.06 1.58Q88.43 0.50 87.03 0.50L87.03 0.50Q85.68 0.50 85.00 1.58Q84.31 2.66 84.31 4.42ZM116.74-3.73L116.74-3.73Q115.50-3.73 114.66-3.28Q113.82-2.83 113.28-2.03Q112.73-1.24 112.49-0.13Q112.26 0.98 112.26 2.32L112.26 2.32Q112.26 5.43 113.24 6.90Q114.22 8.37 116.12 8.37L116.12 8.37Q116.43 8.37 116.79 8.34Q117.16 8.31 117.46 8.26L117.46 8.26L117.46 1.93L120.91 1.93L120.91 10.58Q120.29 10.80 118.99 11.08Q117.69 11.36 115.84 11.36L115.84 11.36Q114.22 11.36 112.91 10.79Q111.61 10.22 110.69 9.08Q109.76 7.95 109.26 6.25Q108.76 4.56 108.76 2.32L108.76 2.32Q108.76 0.11 109.34-1.59Q109.93-3.28 110.94-4.43Q111.95-5.58 113.32-6.15Q114.69-6.72 116.26-6.72L116.26-6.72Q117.27-6.72 118.07-6.57Q118.86-6.42 119.45-6.22Q120.04-6.02 120.42-5.80Q120.80-5.58 120.99-5.46L120.99-5.46L120.10-2.72Q119.48-3.11 118.58-3.42Q117.69-3.73 116.74-3.73ZM134.26-2.16L134.26 10.55Q133.31 10.80 131.95 11.06Q130.60 11.31 129 11.31L129 11.31Q127.38 11.31 126.34 10.86Q125.30 10.41 124.70 9.59Q124.10 8.76 123.88 7.64Q123.65 6.52 123.65 5.18L123.65 5.18L123.65-2.16L127.10-2.16L127.10 4.73Q127.10 6.55 127.53 7.43Q127.96 8.31 129.22 8.31L129.22 8.31Q130.01 8.31 130.79 8.17L130.79 8.17L130.79-2.16L134.26-2.16ZM143.95-5.94L143.95-5.94Q143.95-4.93 143.31-4.34Q142.66-3.76 141.77-3.76L141.77-3.76Q140.87-3.76 140.24-4.34Q139.61-4.93 139.61-5.94L139.61-5.94Q139.61-6.98 140.24-7.56Q140.87-8.15 141.77-8.15L141.77-8.15Q142.66-8.15 143.31-7.56Q143.95-6.98 143.95-5.94ZM148.63 7.67L149.08 10.44Q148.01 10.94 147.07 11.13Q146.14 11.31 145.35 11.31L145.35 11.31Q144.01 11.31 143.10 10.92Q142.19 10.52 141.64 9.78Q141.10 9.04 140.87 7.98Q140.65 6.91 140.65 5.54L140.65 5.54L140.65 0.70L137.01 0.70L137.01-2.16L144.09-2.16L144.09 5.99Q144.09 7.16 144.53 7.74Q144.96 8.31 145.97 8.31L145.97 8.31Q146.44 8.31 147.12 8.19Q147.79 8.06 148.63 7.67L148.63 7.67ZM154.28 4.34L154.28 4.34Q154.28 6.10 154.94 7.22Q155.60 8.34 157.06 8.34L157.06 8.34Q157.48 8.34 157.84 8.31Q158.20 8.28 158.60 8.23L158.60 8.23L158.60 1.06Q158.20 0.84 157.70 0.68Q157.20 0.53 156.64 0.53L156.64 0.53Q155.40 0.53 154.84 1.51Q154.28 2.49 154.28 4.34ZM162.04-8.43L162.04 10.61Q161.09 10.92 159.72 11.11Q158.34 11.31 157.03 11.31L157.03 11.31Q153.95 11.31 152.37 9.49Q150.78 7.67 150.78 4.50L150.78 4.50Q150.78 1.28 152.11-0.58Q153.44-2.44 156.05-2.44L156.05-2.44Q156.75-2.44 157.42-2.29Q158.09-2.13 158.60-1.85L158.60-1.85L158.60-7.84L162.04-8.43ZM171.03 8.54L171.03 8.54Q171.59 8.54 172.12 8.52Q172.65 8.51 173.04 8.45L173.04 8.45L173.04 5.43Q172.71 5.37 172.23 5.33Q171.76 5.29 171.36 5.29L171.36 5.29Q170.83 5.29 170.33 5.36Q169.82 5.43 169.45 5.60Q169.07 5.76 168.84 6.07Q168.62 6.38 168.62 6.88L168.62 6.88Q168.62 7.78 169.29 8.16Q169.96 8.54 171.03 8.54ZM170.72-2.50L170.72-2.50Q172.34-2.50 173.42-2.12Q174.50-1.74 175.14-1.05Q175.79-0.37 176.07 0.63Q176.35 1.62 176.35 2.85L176.35 2.85L176.35 10.69Q175.59 10.86 174.11 11.08Q172.62 11.31 170.78 11.31L170.78 11.31Q169.52 11.31 168.49 11.08Q167.47 10.86 166.74 10.34Q166.02 9.82 165.62 9.00Q165.23 8.17 165.23 6.97L165.23 6.97Q165.23 5.82 165.68 5.04Q166.13 4.25 166.88 3.78Q167.64 3.30 168.62 3.09Q169.60 2.88 170.66 2.88L170.66 2.88Q172.01 2.88 173.04 3.10L173.04 3.10L173.04 2.68Q173.04 1.70 172.43 1.05Q171.81 0.39 170.30 0.39L170.30 0.39Q169.32 0.39 168.41 0.53Q167.50 0.67 166.94 0.86L166.94 0.86L166.46-1.91Q167.11-2.13 168.28-2.31Q169.46-2.50 170.72-2.50ZM179.76 11L179.76-1.74Q180.69-1.99 182.05-2.22Q183.40-2.44 185-2.44L185-2.44Q186.57-2.44 187.60-2.01Q188.64-1.57 189.24-0.77Q189.84 0.02 190.10 1.13Q190.35 2.24 190.35 3.58L190.35 3.58L190.35 11L186.90 11L186.90 4.03Q186.90 2.18 186.48 1.37Q186.06 0.56 184.78 0.56L184.78 0.56Q184.38 0.56 184.01 0.58Q183.63 0.61 183.21 0.67L183.21 0.67L183.21 11L179.76 11ZM193.23 4.42L193.23 4.42Q193.23 2.99 193.68 1.73Q194.13 0.47 195.05-0.47Q195.98-1.40 197.39-1.95Q198.80-2.50 200.76-2.50L200.76-2.50Q201.94-2.50 202.89-2.33Q203.84-2.16 204.82-1.77L204.82-1.77L204.07 1.00Q203.51 0.81 202.82 0.65Q202.14 0.50 201.07 0.50L201.07 0.50Q199.84 0.50 199.01 0.79Q198.19 1.09 197.68 1.61Q197.18 2.12 196.96 2.85Q196.73 3.58 196.73 4.42L196.73 4.42Q196.73 6.24 197.75 7.28Q198.78 8.31 201.24 8.31L201.24 8.31Q202.05 8.31 202.93 8.20Q203.82 8.09 204.54 7.84L204.54 7.84L205.05 10.66Q204.32 10.94 203.28 11.13Q202.25 11.31 200.85 11.31L200.85 11.31Q198.83 11.31 197.39 10.78Q195.95 10.24 195.02 9.32Q194.10 8.40 193.67 7.14Q193.23 5.88 193.23 4.42ZM206.87 4.53L206.87 4.53Q206.87 2.80 207.40 1.48Q207.93 0.16 208.80-0.72Q209.67-1.60 210.79-2.05Q211.91-2.50 213.08-2.50L213.08-2.50Q216.00-2.50 217.51-0.77Q219.02 0.95 219.02 4.25L219.02 4.25Q219.02 4.59 219.01 4.95Q218.99 5.32 218.96 5.54L218.96 5.54L210.42 5.54Q210.42 6.83 211.49 7.57Q212.55 8.31 214.23 8.31L214.23 8.31Q215.27 8.31 216.21 8.09Q217.14 7.86 217.79 7.64L217.79 7.64L218.26 10.58Q217.37 10.89 216.36 11.10Q215.35 11.31 214.09 11.31L214.09 11.31Q212.41 11.31 211.08 10.87Q209.75 10.44 208.81 9.59Q207.88 8.73 207.37 7.47Q206.87 6.21 206.87 4.53ZM210.42 3.16L215.69 3.16Q215.69 2.63 215.55 2.14Q215.41 1.65 215.10 1.26Q214.79 0.86 214.32 0.63Q213.84 0.39 213.14 0.39L213.14 0.39Q212.47 0.39 211.98 0.61Q211.49 0.84 211.17 1.23Q210.84 1.62 210.66 2.12Q210.48 2.63 210.42 3.16L210.42 3.16ZM242.29 11.36L242.29 11.36Q238.62 11.36 236.69 9.01Q234.76 6.66 234.76 2.32L234.76 2.32Q234.76 0.16 235.34-1.52Q235.93-3.20 236.98-4.36Q238.03-5.52 239.47-6.12Q240.92-6.72 242.62-6.72L242.62-6.72Q243.55-6.72 244.29-6.57Q245.03-6.42 245.59-6.22Q246.15-6.02 246.53-5.80Q246.91-5.58 247.10-5.46L247.10-5.46L246.21-2.72Q245.56-3.14 244.65-3.43Q243.74-3.73 242.57-3.73L242.57-3.73Q241.76-3.73 240.99-3.43Q240.22-3.14 239.61-2.45Q239.01-1.77 238.63-0.62Q238.26 0.53 238.26 2.24L238.26 2.24Q238.26 5.20 239.28 6.79Q240.30 8.37 242.62 8.37L242.62 8.37Q243.97 8.37 244.85 8.06Q245.73 7.75 246.26 7.44L246.26 7.44L247.13 10.16Q246.40 10.61 245.16 10.99Q243.91 11.36 242.29 11.36ZM261.22 4.39L261.22 4.39Q261.22 5.96 260.77 7.23Q260.32 8.51 259.51 9.43Q258.70 10.36 257.56 10.86Q256.43 11.36 255.03 11.36L255.03 11.36Q253.63 11.36 252.49 10.86Q251.36 10.36 250.53 9.43Q249.71 8.51 249.26 7.23Q248.81 5.96 248.81 4.39L248.81 4.39Q248.81 2.85 249.27 1.58Q249.74 0.30 250.56-0.61Q251.39-1.52 252.54-2.01Q253.68-2.50 255.03-2.50L255.03-2.50Q256.40-2.50 257.53-2.01Q258.67-1.52 259.49-0.61Q260.32 0.30 260.77 1.58Q261.22 2.85 261.22 4.39ZM252.31 4.42L252.31 4.42Q252.31 6.18 252.94 7.28Q253.57 8.37 254.97 8.37L254.97 8.37Q256.32 8.37 257.00 7.28Q257.69 6.18 257.69 4.42L257.69 4.42Q257.69 2.66 257.06 1.58Q256.43 0.50 255.03 0.50L255.03 0.50Q253.68 0.50 253.00 1.58Q252.31 2.66 252.31 4.42ZM271.60-2.30L271.60-2.30Q272.70-2.30 273.40-1.96Q274.10-1.63 274.50-0.96Q274.91-0.28 275.05 0.74Q275.19 1.76 275.19 3.13L275.19 3.13L275.19 11L272.39 11L272.39 2.96Q272.39 2.18 272.29 1.70Q272.19 1.23 272.04 0.98Q271.88 0.72 271.67 0.64Q271.46 0.56 271.24 0.56L271.24 0.56Q270.99 0.56 270.71 0.60Q270.43 0.64 270.20 0.75L270.20 0.75Q270.29 1.28 270.34 1.93Q270.40 2.57 270.40 3.36L270.40 3.36L270.40 5.99L267.60 5.99L267.60 2.96Q267.60 1.62 267.33 1.09Q267.07 0.56 266.48 0.56L266.48 0.56Q266.31 0.56 266.07 0.58Q265.84 0.61 265.61 0.67L265.61 0.67L265.61 11L262.81 11L262.81-1.66Q263.90-1.96 264.97-2.13Q266.03-2.30 266.84-2.30L266.84-2.30Q267.57-2.30 268.15-2.12Q268.72-1.94 269.14-1.52L269.14-1.52Q269.62-1.82 270.26-2.06Q270.90-2.30 271.60-2.30ZM285.63 4.53L285.63 4.53Q285.63 2.77 284.93 1.63Q284.23 0.50 282.80 0.50L282.80 0.50Q282.41 0.50 281.96 0.54Q281.52 0.58 281.21 0.61L281.21 0.61L281.21 7.84Q281.54 8.06 282.10 8.20Q282.66 8.34 283.22 8.34L283.22 8.34Q284.46 8.34 285.04 7.35Q285.63 6.35 285.63 4.53ZM289.13 4.42L289.13 4.42Q289.13 5.93 288.80 7.21Q288.46 8.48 287.82 9.39Q287.17 10.30 286.19 10.80Q285.21 11.31 283.92 11.31L283.92 11.31Q282.61 11.31 281.21 10.66L281.21 10.66L281.21 15.62L277.76 15.62L277.76-1.74Q278.72-2.05 280.10-2.24Q281.49-2.44 282.83-2.44L282.83-2.44Q285.88-2.44 287.51-0.59Q289.13 1.26 289.13 4.42ZM302.26-2.16L302.26 10.55Q301.31 10.80 299.95 11.06Q298.60 11.31 297 11.31L297 11.31Q295.38 11.31 294.34 10.86Q293.30 10.41 292.70 9.59Q292.10 8.76 291.88 7.64Q291.65 6.52 291.65 5.18L291.65 5.18L291.65-2.16L295.10-2.16L295.10 4.73Q295.10 6.55 295.53 7.43Q295.96 8.31 297.22 8.31L297.22 8.31Q298.01 8.31 298.79 8.17L298.79 8.17L298.79-2.16L302.26-2.16ZM308.00 6.10L308.00 0.70L305.01 0.70L305.01-2.16L308.00-2.16L308.00-5.46L311.45-6.02L311.45-2.16L316.96-2.16L316.96 0.70L311.45 0.70L311.45 6.02Q311.45 6.74 311.59 7.19Q311.73 7.64 311.98 7.89Q312.23 8.14 312.60 8.23Q312.96 8.31 313.41 8.31L313.41 8.31Q313.88 8.31 314.29 8.28Q314.70 8.26 315.07 8.19Q315.45 8.12 315.86 7.98Q316.26 7.84 316.74 7.61L316.74 7.61L317.22 10.58Q316.26 10.97 315.16 11.14Q314.05 11.31 313.02 11.31L313.02 11.31Q311.81 11.31 310.89 11.11Q309.96 10.92 309.32 10.36Q308.68 9.80 308.34 8.77Q308.00 7.75 308.00 6.10L308.00 6.10ZM318.87 4.53L318.87 4.53Q318.87 2.80 319.40 1.48Q319.93 0.16 320.80-0.72Q321.67-1.60 322.79-2.05Q323.91-2.50 325.08-2.50L325.08-2.50Q328.00-2.50 329.51-0.77Q331.02 0.95 331.02 4.25L331.02 4.25Q331.02 4.59 331.01 4.95Q330.99 5.32 330.96 5.54L330.96 5.54L322.42 5.54Q322.42 6.83 323.49 7.57Q324.55 8.31 326.23 8.31L326.23 8.31Q327.27 8.31 328.21 8.09Q329.14 7.86 329.79 7.64L329.79 7.64L330.26 10.58Q329.37 10.89 328.36 11.10Q327.35 11.31 326.09 11.31L326.09 11.31Q324.41 11.31 323.08 10.87Q321.75 10.44 320.81 9.59Q319.88 8.73 319.37 7.47Q318.87 6.21 318.87 4.53ZM322.42 3.16L327.69 3.16Q327.69 2.63 327.55 2.14Q327.41 1.65 327.10 1.26Q326.79 0.86 326.32 0.63Q325.84 0.39 325.14 0.39L325.14 0.39Q324.47 0.39 323.98 0.61Q323.49 0.84 323.17 1.23Q322.84 1.62 322.66 2.12Q322.48 2.63 322.42 3.16L322.42 3.16ZM344.85-1.85L344.24 1.34Q343.90 1.26 343.44 1.17Q342.98 1.09 342.50 1.02Q342.02 0.95 341.58 0.92Q341.13 0.89 340.82 0.89L340.82 0.89Q340.09 0.89 339.39 0.96Q338.69 1.03 337.96 1.23L337.96 1.23L337.96 11L334.49 11L334.49-1.29Q335.86-1.80 337.31-2.10Q338.75-2.41 340.68-2.41L340.68-2.41Q340.96-2.41 341.48-2.38Q342.00-2.36 342.58-2.29Q343.17-2.22 343.77-2.12Q344.38-2.02 344.85-1.85L344.85-1.85Z"/>
    </g>
</svg>