<?xml version="1.0" encoding="UTF-8"?>
<svg height="322" width="332.4" version="1.1" xmlns="http://www.w3.org/2000/svg"><!--Created by Josélio de S. C. Júnior - 2021 - https://github.com/joseliojunior -->
    <rect
        height="32"
        width="330.4"
        rx="1"
        ry="1"
        x="1" y="1"
        fill="#0B3D91"
        stroke="#4685f1"
        stroke-width="1" />
    <g transform="translate(0, 12)">
        <path fill="#4685f1" stroke="none" d="M31.78 12L28.62 12L27.92 8.57L23.96 8.57L23.29 12L20.22 12Q21.27 7.61 22.35 4.00Q23.43 0.38 24.44-2.86L24.44-2.86L27.66-2.86Q28.71 0.41 29.76 4.07Q30.80 7.73 31.78 12L31.78 12ZM25.98 0.02L25.98 0.02Q25.74 0.86 25.53 1.62Q25.33 2.38 25.15 3.11Q24.97 3.84 24.81 4.58Q24.66 5.33 24.51 6.12L24.51 6.12L27.42 6.12Q27.27 5.33 27.13 4.58Q26.98 3.84 26.80 3.11Q26.62 2.38 26.42 1.62Q26.22 0.86 25.98 0.02ZM40.26 6.46L40.26 6.46Q40.26 4.94 39.66 3.97Q39.06 3 37.83 3L37.83 3Q37.50 3 37.11 3.04Q36.73 3.07 36.46 3.10L36.46 3.10L36.46 9.29Q36.75 9.48 37.23 9.60Q37.71 9.72 38.19 9.72L38.19 9.72Q39.25 9.72 39.75 8.87Q40.26 8.02 40.26 6.46ZM43.26 6.36L43.26 6.36Q43.26 7.66 42.97 8.75Q42.68 9.84 42.13 10.62Q41.58 11.40 40.74 11.83Q39.90 12.26 38.79 12.26L38.79 12.26Q37.66 12.26 36.46 11.71L36.46 11.71L36.46 15.96L33.51 15.96L33.51 1.08Q34.33 0.82 35.52 0.65Q36.70 0.48 37.86 0.48L37.86 0.48Q40.47 0.48 41.86 2.06Q43.26 3.65 43.26 6.36ZM55.33 6.34L55.33 6.34Q55.33 7.68 54.94 8.77Q54.56 9.86 53.86 10.66Q53.17 11.45 52.20 11.88Q51.22 12.31 50.02 12.31L50.02 12.31Q48.82 12.31 47.85 11.88Q46.88 11.45 46.17 10.66Q45.46 9.86 45.08 8.77Q44.70 7.68 44.70 6.34L44.70 6.34Q44.70 5.02 45.09 3.92Q45.49 2.83 46.20 2.05Q46.90 1.27 47.89 0.85Q48.87 0.43 50.02 0.43L50.02 0.43Q51.20 0.43 52.17 0.85Q53.14 1.27 53.85 2.05Q54.56 2.83 54.94 3.92Q55.33 5.02 55.33 6.34ZM47.70 6.36L47.70 6.36Q47.70 7.87 48.24 8.81Q48.78 9.74 49.98 9.74L49.98 9.74Q51.13 9.74 51.72 8.81Q52.30 7.87 52.30 6.36L52.30 6.36Q52.30 4.85 51.76 3.92Q51.22 3 50.02 3L50.02 3Q48.87 3 48.28 3.92Q47.70 4.85 47.70 6.36ZM66.82 9.14L67.21 11.52Q67.14 11.57 66.88 11.69Q66.63 11.81 66.22 11.94Q65.82 12.07 65.23 12.17Q64.64 12.26 63.90 12.26L63.90 12.26Q61.86 12.26 60.92 11.05Q59.98 9.84 59.98 7.51L59.98 7.51L59.98-2.06L56.86-2.06L56.86-4.51L62.94-4.51L62.94 7.73Q62.94 8.88 63.39 9.29Q63.85 9.70 64.54 9.70L64.54 9.70Q65.43 9.70 66.03 9.46Q66.63 9.22 66.82 9.14L66.82 9.14ZM78.82 9.14L79.21 11.52Q79.14 11.57 78.88 11.69Q78.63 11.81 78.22 11.94Q77.82 12.07 77.23 12.17Q76.64 12.26 75.90 12.26L75.90 12.26Q73.86 12.26 72.92 11.05Q71.98 9.84 71.98 7.51L71.98 7.51L71.98-2.06L68.86-2.06L68.86-4.51L74.94-4.51L74.94 7.73Q74.94 8.88 75.39 9.29Q75.85 9.70 76.54 9.70L76.54 9.70Q77.43 9.70 78.03 9.46Q78.63 9.22 78.82 9.14L78.82 9.14ZM91.33 6.34L91.33 6.34Q91.33 7.68 90.94 8.77Q90.56 9.86 89.86 10.66Q89.17 11.45 88.20 11.88Q87.22 12.31 86.02 12.31L86.02 12.31Q84.82 12.31 83.85 11.88Q82.88 11.45 82.17 10.66Q81.46 9.86 81.08 8.77Q80.70 7.68 80.70 6.34L80.70 6.34Q80.70 5.02 81.09 3.92Q81.49 2.83 82.20 2.05Q82.90 1.27 83.89 0.85Q84.87 0.43 86.02 0.43L86.02 0.43Q87.20 0.43 88.17 0.85Q89.14 1.27 89.85 2.05Q90.56 2.83 90.94 3.92Q91.33 5.02 91.33 6.34ZM83.70 6.36L83.70 6.36Q83.70 7.87 84.24 8.81Q84.78 9.74 85.98 9.74L85.98 9.74Q87.13 9.74 87.72 8.81Q88.30 7.87 88.30 6.36L88.30 6.36Q88.30 4.85 87.76 3.92Q87.22 3 86.02 3L86.02 3Q84.87 3 84.28 3.92Q83.70 4.85 83.70 6.36ZM111.49-0.62L111.49-0.62Q110.43-0.62 109.71-0.24Q108.99 0.14 108.52 0.83Q108.06 1.51 107.85 2.46Q107.65 3.41 107.65 4.56L107.65 4.56Q107.65 7.22 108.49 8.48Q109.33 9.74 110.96 9.74L110.96 9.74Q111.22 9.74 111.54 9.72Q111.85 9.70 112.11 9.65L112.11 9.65L112.11 4.22L115.06 4.22L115.06 11.64Q114.54 11.83 113.42 12.07Q112.30 12.31 110.72 12.31L110.72 12.31Q109.33 12.31 108.21 11.82Q107.10 11.33 106.30 10.36Q105.51 9.38 105.08 7.93Q104.65 6.48 104.65 4.56L104.65 4.56Q104.65 2.66 105.15 1.21Q105.66-0.24 106.52-1.22Q107.38-2.21 108.56-2.70Q109.74-3.19 111.08-3.19L111.08-3.19Q111.94-3.19 112.63-3.06Q113.31-2.93 113.82-2.76Q114.32-2.59 114.64-2.40Q114.97-2.21 115.14-2.11L115.14-2.11L114.37 0.24Q113.84-0.10 113.07-0.36Q112.30-0.62 111.49-0.62ZM126.51 0.72L126.51 11.62Q125.70 11.83 124.53 12.05Q123.37 12.26 122 12.26L122 12.26Q120.61 12.26 119.72 11.88Q118.83 11.50 118.32 10.79Q117.80 10.08 117.61 9.12Q117.42 8.16 117.42 7.01L117.42 7.01L117.42 0.72L120.37 0.72L120.37 6.62Q120.37 8.18 120.74 8.94Q121.11 9.70 122.19 9.70L122.19 9.70Q122.86 9.70 123.54 9.58L123.54 9.58L123.54 0.72L126.51 0.72ZM134.82-2.52L134.82-2.52Q134.82-1.66 134.26-1.15Q133.71-0.65 132.94-0.65L132.94-0.65Q132.18-0.65 131.64-1.15Q131.10-1.66 131.10-2.52L131.10-2.52Q131.10-3.41 131.64-3.91Q132.18-4.42 132.94-4.42L132.94-4.42Q133.71-4.42 134.26-3.91Q134.82-3.41 134.82-2.52ZM138.82 9.14L139.21 11.52Q138.30 11.95 137.49 12.11Q136.69 12.26 136.02 12.26L136.02 12.26Q134.86 12.26 134.08 11.93Q133.30 11.59 132.84 10.96Q132.37 10.32 132.18 9.41Q131.98 8.50 131.98 7.32L131.98 7.32L131.98 3.17L128.86 3.17L128.86 0.72L134.94 0.72L134.94 7.70Q134.94 8.71 135.31 9.20Q135.68 9.70 136.54 9.70L136.54 9.70Q136.95 9.70 137.53 9.59Q138.10 9.48 138.82 9.14L138.82 9.14ZM143.67 6.29L143.67 6.29Q143.67 7.80 144.24 8.76Q144.80 9.72 146.05 9.72L146.05 9.72Q146.41 9.72 146.72 9.70Q147.03 9.67 147.37 9.62L147.37 9.62L147.37 3.48Q147.03 3.29 146.60 3.16Q146.17 3.02 145.69 3.02L145.69 3.02Q144.63 3.02 144.15 3.86Q143.67 4.70 143.67 6.29ZM150.32-4.66L150.32 11.66Q149.50 11.93 148.33 12.10Q147.15 12.26 146.02 12.26L146.02 12.26Q143.38 12.26 142.03 10.70Q140.67 9.14 140.67 6.43L140.67 6.43Q140.67 3.67 141.81 2.08Q142.95 0.48 145.18 0.48L145.18 0.48Q145.78 0.48 146.36 0.61Q146.94 0.74 147.37 0.98L147.37 0.98L147.37-4.15L150.32-4.66ZM158.02 9.89L158.02 9.89Q158.50 9.89 158.96 9.88Q159.42 9.86 159.75 9.82L159.75 9.82L159.75 7.22Q159.46 7.18 159.06 7.14Q158.65 7.10 158.31 7.10L158.31 7.10Q157.86 7.10 157.42 7.16Q156.99 7.22 156.67 7.37Q156.34 7.51 156.15 7.78Q155.96 8.04 155.96 8.47L155.96 8.47Q155.96 9.24 156.54 9.56Q157.11 9.89 158.02 9.89ZM157.76 0.43L157.76 0.43Q159.15 0.43 160.08 0.76Q161 1.08 161.55 1.67Q162.10 2.26 162.34 3.11Q162.58 3.96 162.58 5.02L162.58 5.02L162.58 11.74Q161.94 11.88 160.66 12.07Q159.39 12.26 157.81 12.26L157.81 12.26Q156.73 12.26 155.85 12.07Q154.98 11.88 154.35 11.44Q153.73 10.99 153.39 10.28Q153.06 9.58 153.06 8.54L153.06 8.54Q153.06 7.56 153.44 6.89Q153.82 6.22 154.47 5.81Q155.12 5.40 155.96 5.22Q156.80 5.04 157.71 5.04L157.71 5.04Q158.86 5.04 159.75 5.23L159.75 5.23L159.75 4.87Q159.75 4.03 159.22 3.47Q158.70 2.90 157.40 2.90L157.40 2.90Q156.56 2.90 155.78 3.02Q155 3.14 154.52 3.31L154.52 3.31L154.11 0.94Q154.66 0.74 155.67 0.59Q156.68 0.43 157.76 0.43ZM165.51 12L165.51 1.08Q166.30 0.86 167.47 0.67Q168.63 0.48 170 0.48L170 0.48Q171.34 0.48 172.23 0.85Q173.12 1.22 173.64 1.91Q174.15 2.59 174.37 3.54Q174.58 4.49 174.58 5.64L174.58 5.64L174.58 12L171.63 12L171.63 6.02Q171.63 4.44 171.27 3.74Q170.91 3.05 169.81 3.05L169.81 3.05Q169.47 3.05 169.15 3.07Q168.82 3.10 168.46 3.14L168.46 3.14L168.46 12L165.51 12ZM177.06 6.36L177.06 6.36Q177.06 5.14 177.44 4.06Q177.82 2.98 178.62 2.17Q179.41 1.37 180.62 0.90Q181.83 0.43 183.51 0.43L183.51 0.43Q184.52 0.43 185.34 0.58Q186.15 0.72 186.99 1.06L186.99 1.06L186.34 3.43Q185.86 3.26 185.28 3.13Q184.69 3 183.78 3L183.78 3Q182.72 3 182.01 3.25Q181.30 3.50 180.87 3.95Q180.44 4.39 180.25 5.02Q180.06 5.64 180.06 6.36L180.06 6.36Q180.06 7.92 180.93 8.81Q181.81 9.70 183.92 9.70L183.92 9.70Q184.62 9.70 185.37 9.60Q186.13 9.50 186.75 9.29L186.75 9.29L187.18 11.71Q186.56 11.95 185.67 12.11Q184.78 12.26 183.58 12.26L183.58 12.26Q181.86 12.26 180.62 11.81Q179.38 11.35 178.59 10.56Q177.80 9.77 177.43 8.69Q177.06 7.61 177.06 6.36ZM188.74 6.46L188.74 6.46Q188.74 4.97 189.20 3.84Q189.66 2.71 190.40 1.96Q191.14 1.20 192.10 0.82Q193.06 0.43 194.07 0.43L194.07 0.43Q196.57 0.43 197.86 1.91Q199.16 3.38 199.16 6.22L199.16 6.22Q199.16 6.50 199.15 6.82Q199.14 7.13 199.11 7.32L199.11 7.32L191.79 7.32Q191.79 8.42 192.70 9.06Q193.62 9.70 195.06 9.70L195.06 9.70Q195.94 9.70 196.75 9.50Q197.55 9.31 198.10 9.12L198.10 9.12L198.51 11.64Q197.74 11.90 196.88 12.08Q196.02 12.26 194.94 12.26L194.94 12.26Q193.50 12.26 192.36 11.89Q191.22 11.52 190.41 10.79Q189.61 10.06 189.18 8.98Q188.74 7.90 188.74 6.46ZM191.79 5.28L196.30 5.28Q196.30 4.82 196.18 4.40Q196.06 3.98 195.80 3.65Q195.54 3.31 195.13 3.11Q194.72 2.90 194.12 2.90L194.12 2.90Q193.54 2.90 193.12 3.10Q192.70 3.29 192.43 3.62Q192.15 3.96 192.00 4.39Q191.84 4.82 191.79 5.28L191.79 5.28ZM219.10 12.31L219.10 12.31Q215.96 12.31 214.30 10.30Q212.65 8.28 212.65 4.56L212.65 4.56Q212.65 2.71 213.15 1.27Q213.66-0.17 214.56-1.16Q215.46-2.16 216.69-2.68Q217.93-3.19 219.39-3.19L219.39-3.19Q220.18-3.19 220.82-3.06Q221.46-2.93 221.94-2.76Q222.42-2.59 222.74-2.40Q223.06-2.21 223.23-2.11L223.23-2.11L222.46 0.24Q221.91-0.12 221.13-0.37Q220.35-0.62 219.34-0.62L219.34-0.62Q218.65-0.62 217.99-0.37Q217.33-0.12 216.81 0.47Q216.30 1.06 215.97 2.04Q215.65 3.02 215.65 4.49L215.65 4.49Q215.65 7.03 216.52 8.39Q217.40 9.74 219.39 9.74L219.39 9.74Q220.54 9.74 221.30 9.48Q222.06 9.22 222.51 8.95L222.51 8.95L223.26 11.28Q222.63 11.66 221.56 11.99Q220.50 12.31 219.10 12.31ZM235.33 6.34L235.33 6.34Q235.33 7.68 234.94 8.77Q234.56 9.86 233.86 10.66Q233.17 11.45 232.20 11.88Q231.22 12.31 230.02 12.31L230.02 12.31Q228.82 12.31 227.85 11.88Q226.88 11.45 226.17 10.66Q225.46 9.86 225.08 8.77Q224.70 7.68 224.70 6.34L224.70 6.34Q224.70 5.02 225.09 3.92Q225.49 2.83 226.20 2.05Q226.90 1.27 227.89 0.85Q228.87 0.43 230.02 0.43L230.02 0.43Q231.20 0.43 232.17 0.85Q233.14 1.27 233.85 2.05Q234.56 2.83 234.94 3.92Q235.33 5.02 235.33 6.34ZM227.70 6.36L227.70 6.36Q227.70 7.87 228.24 8.81Q228.78 9.74 229.98 9.74L229.98 9.74Q231.13 9.74 231.72 8.81Q232.30 7.87 232.30 6.36L232.30 6.36Q232.30 4.85 231.76 3.92Q231.22 3 230.02 3L230.02 3Q228.87 3 228.28 3.92Q227.70 4.85 227.70 6.36ZM244.23 0.60L244.23 0.60Q245.17 0.60 245.77 0.89Q246.37 1.18 246.72 1.75Q247.06 2.33 247.18 3.20Q247.30 4.08 247.30 5.26L247.30 5.26L247.30 12L244.90 12L244.90 5.11Q244.90 4.44 244.82 4.03Q244.74 3.62 244.60 3.41Q244.47 3.19 244.29 3.12Q244.11 3.05 243.92 3.05L243.92 3.05Q243.70 3.05 243.46 3.08Q243.22 3.12 243.03 3.22L243.03 3.22Q243.10 3.67 243.15 4.22Q243.20 4.78 243.20 5.45L243.20 5.45L243.20 7.70L240.80 7.70L240.80 5.11Q240.80 3.96 240.57 3.50Q240.34 3.05 239.84 3.05L239.84 3.05Q239.70 3.05 239.49 3.07Q239.29 3.10 239.10 3.14L239.10 3.14L239.10 12L236.70 12L236.70 1.15Q237.63 0.89 238.54 0.74Q239.46 0.60 240.15 0.60L240.15 0.60Q240.78 0.60 241.27 0.76Q241.76 0.91 242.12 1.27L242.12 1.27Q242.53 1.01 243.08 0.80Q243.63 0.60 244.23 0.60ZM256.26 6.46L256.26 6.46Q256.26 4.94 255.66 3.97Q255.06 3 253.83 3L253.83 3Q253.50 3 253.11 3.04Q252.73 3.07 252.46 3.10L252.46 3.10L252.46 9.29Q252.75 9.48 253.23 9.60Q253.71 9.72 254.19 9.72L254.19 9.72Q255.25 9.72 255.75 8.87Q256.26 8.02 256.26 6.46ZM259.26 6.36L259.26 6.36Q259.26 7.66 258.97 8.75Q258.68 9.84 258.13 10.62Q257.58 11.40 256.74 11.83Q255.90 12.26 254.79 12.26L254.79 12.26Q253.66 12.26 252.46 11.71L252.46 11.71L252.46 15.96L249.51 15.96L249.51 1.08Q250.33 0.82 251.52 0.65Q252.70 0.48 253.86 0.48L253.86 0.48Q256.47 0.48 257.86 2.06Q259.26 3.65 259.26 6.36ZM270.51 0.72L270.51 11.62Q269.70 11.83 268.53 12.05Q267.37 12.26 266 12.26L266 12.26Q264.61 12.26 263.72 11.88Q262.83 11.50 262.32 10.79Q261.80 10.08 261.61 9.12Q261.42 8.16 261.42 7.01L261.42 7.01L261.42 0.72L264.37 0.72L264.37 6.62Q264.37 8.18 264.74 8.94Q265.11 9.70 266.19 9.70L266.19 9.70Q266.86 9.70 267.54 9.58L267.54 9.58L267.54 0.72L270.51 0.72ZM275.43 7.80L275.43 3.17L272.86 3.17L272.86 0.72L275.43 0.72L275.43-2.11L278.38-2.59L278.38 0.72L283.11 0.72L283.11 3.17L278.38 3.17L278.38 7.73Q278.38 8.35 278.50 8.74Q278.62 9.12 278.84 9.34Q279.06 9.55 279.37 9.62Q279.68 9.70 280.06 9.70L280.06 9.70Q280.47 9.70 280.82 9.67Q281.17 9.65 281.49 9.59Q281.82 9.53 282.16 9.41Q282.51 9.29 282.92 9.10L282.92 9.10L283.33 11.64Q282.51 11.98 281.56 12.12Q280.62 12.26 279.73 12.26L279.73 12.26Q278.70 12.26 277.90 12.10Q277.11 11.93 276.56 11.45Q276.01 10.97 275.72 10.09Q275.43 9.22 275.43 7.80L275.43 7.80ZM284.74 6.46L284.74 6.46Q284.74 4.97 285.20 3.84Q285.66 2.71 286.40 1.96Q287.14 1.20 288.10 0.82Q289.06 0.43 290.07 0.43L290.07 0.43Q292.57 0.43 293.86 1.91Q295.16 3.38 295.16 6.22L295.16 6.22Q295.16 6.50 295.15 6.82Q295.14 7.13 295.11 7.32L295.11 7.32L287.79 7.32Q287.79 8.42 288.70 9.06Q289.62 9.70 291.06 9.70L291.06 9.70Q291.94 9.70 292.75 9.50Q293.55 9.31 294.10 9.12L294.10 9.12L294.51 11.64Q293.74 11.90 292.88 12.08Q292.02 12.26 290.94 12.26L290.94 12.26Q289.50 12.26 288.36 11.89Q287.22 11.52 286.41 10.79Q285.61 10.06 285.18 8.98Q284.74 7.90 284.74 6.46ZM287.79 5.28L292.30 5.28Q292.30 4.82 292.18 4.40Q292.06 3.98 291.80 3.65Q291.54 3.31 291.13 3.11Q290.72 2.90 290.12 2.90L290.12 2.90Q289.54 2.90 289.12 3.10Q288.70 3.29 288.43 3.62Q288.15 3.96 288.00 4.39Q287.84 4.82 287.79 5.28L287.79 5.28ZM307.02 0.98L306.49 3.72Q306.20 3.65 305.80 3.58Q305.41 3.50 305 3.44Q304.59 3.38 304.21 3.36Q303.82 3.34 303.56 3.34L303.56 3.34Q302.94 3.34 302.34 3.40Q301.74 3.46 301.11 3.62L301.11 3.62L301.11 12L298.14 12L298.14 1.46Q299.31 1.03 300.55 0.77Q301.78 0.50 303.44 0.50L303.44 0.50Q303.68 0.50 304.12 0.53Q304.57 0.55 305.07 0.61Q305.58 0.67 306.09 0.76Q306.61 0.84 307.02 0.98L307.02 0.98Z"/>
    </g>
</svg>