<?xml version="1.0" encoding="UTF-8"?>
<svg height="34" width="177.1" version="1.1" xmlns="http://www.w3.org/2000/svg">
    <rect
        height="32"
        width="175.1"
        rx="1"
        ry="1"
        x="1"
        y="1"
        fill="#64E6AD"
        stroke="#126e46"
        stroke-width="1"
         />
    <g transform="translate(0, 14)">
        <path fill="#126e46" d="M16.50 8.48L16.50 8.48Q17.36 8.48 17.94 8.30Q18.51 8.12 18.85 7.79Q19.18 7.47 19.31 7.07Q19.44 6.66 19.44 6.24L19.44 6.24Q19.44 5.71 19.13 5.29Q18.82 4.87 18.34 4.55Q17.87 4.22 17.28 3.96Q16.69 3.69 16.10 3.47L16.10 3.47Q15.32 3.19 14.48 2.82Q13.64 2.46 12.95 1.90Q12.27 1.34 11.82 0.51Q11.37-0.31 11.37-1.54L11.37-1.54Q11.37-3.98 12.95-5.35Q14.54-6.72 17.31-6.72L17.31-6.72Q18.90-6.72 20.09-6.36Q21.28-6.00 22.10-5.55L22.10-5.55L21.09-2.89Q20.39-3.28 19.53-3.56Q18.68-3.84 17.56-3.84L17.56-3.84Q14.82-3.84 14.82-1.85L14.82-1.85Q14.82-1.35 15.10-0.97Q15.38-0.59 15.81-0.30Q16.24-0.00 16.79 0.22Q17.34 0.44 17.87 0.64L17.87 0.64Q18.68 0.95 19.56 1.33Q20.44 1.70 21.19 2.33Q21.93 2.96 22.40 3.90Q22.88 4.84 22.88 6.27L22.88 6.27Q22.88 8.70 21.30 10.03Q19.72 11.36 16.50 11.36L16.50 11.36Q14.34 11.36 13.05 10.90Q11.76 10.44 11.12 10.05L11.12 10.05L12.13 7.25Q12.88 7.70 13.93 8.09Q14.98 8.48 16.50 8.48ZM31.95-5.94L31.95-5.94Q31.95-4.93 31.31-4.34Q30.66-3.76 29.77-3.76L29.77-3.76Q28.87-3.76 28.24-4.34Q27.61-4.93 27.61-5.94L27.61-5.94Q27.61-6.98 28.24-7.56Q28.87-8.15 29.77-8.15L29.77-8.15Q30.66-8.15 31.31-7.56Q31.95-6.98 31.95-5.94ZM36.63 7.67L37.08 10.44Q36.01 10.94 35.07 11.13Q34.14 11.31 33.35 11.31L33.35 11.31Q32.01 11.31 31.10 10.92Q30.19 10.52 29.64 9.78Q29.10 9.04 28.87 7.98Q28.65 6.91 28.65 5.54L28.65 5.54L28.65 0.70L25.01 0.70L25.01-2.16L32.09-2.16L32.09 5.99Q32.09 7.16 32.53 7.74Q32.96 8.31 33.97 8.31L33.97 8.31Q34.44 8.31 35.12 8.19Q35.79 8.06 36.63 7.67L36.63 7.67ZM39.76 11L39.76-1.74Q40.69-1.99 42.05-2.22Q43.40-2.44 45-2.44L45-2.44Q46.57-2.44 47.60-2.01Q48.64-1.57 49.24-0.77Q49.84 0.02 50.10 1.13Q50.35 2.24 50.35 3.58L50.35 3.58L50.35 11L46.90 11L46.90 4.03Q46.90 2.18 46.48 1.37Q46.06 0.56 44.78 0.56L44.78 0.56Q44.38 0.56 44.01 0.58Q43.63 0.61 43.21 0.67L43.21 0.67L43.21 11L39.76 11ZM56.42 4L56.42 4Q56.42 5.62 57.01 6.48Q57.60 7.33 58.86 7.33L58.86 7.33Q59.42 7.33 59.91 7.19Q60.40 7.05 60.79 6.83L60.79 6.83L60.79 0.50Q60.40 0.42 60.09 0.39Q59.78 0.36 59.45 0.36L59.45 0.36Q56.42 0.36 56.42 4ZM64.26-1.74L64.26 9.40Q64.26 12.62 62.71 14.16Q61.16 15.70 57.71 15.70L57.71 15.70Q56.48 15.70 55.35 15.45Q54.21 15.20 53.18 14.86L53.18 14.86L53.82 11.95Q54.63 12.26 55.53 12.53Q56.42 12.79 57.77 12.79L57.77 12.79Q58.66 12.79 59.25 12.58Q59.84 12.37 60.18 12.01Q60.51 11.64 60.65 11.15Q60.79 10.66 60.79 10.10L60.79 10.10L60.79 9.57Q60.06 9.85 59.46 9.99Q58.86 10.13 58.16 10.13L58.16 10.13Q55.58 10.13 54.25 8.51Q52.92 6.88 52.92 4L52.92 4Q52.92 0.75 54.72-0.84Q56.51-2.44 59.59-2.44L59.59-2.44Q61.74-2.44 64.26-1.74L64.26-1.74ZM78.26-2.16L78.26 10.55Q77.31 10.80 75.95 11.06Q74.60 11.31 73 11.31L73 11.31Q71.38 11.31 70.34 10.86Q69.30 10.41 68.70 9.59Q68.10 8.76 67.88 7.64Q67.65 6.52 67.65 5.18L67.65 5.18L67.65-2.16L71.10-2.16L71.10 4.73Q71.10 6.55 71.53 7.43Q71.96 8.31 73.22 8.31L73.22 8.31Q74.01 8.31 74.79 8.17L74.79 8.17L74.79-2.16L78.26-2.16ZM92.63 7.67L93.08 10.44Q92.99 10.50 92.70 10.64Q92.40 10.78 91.93 10.93Q91.45 11.08 90.77 11.20Q90.08 11.31 89.21 11.31L89.21 11.31Q86.83 11.31 85.74 9.89Q84.65 8.48 84.65 5.76L84.65 5.76L84.65-5.41L81.01-5.41L81.01-8.26L88.09-8.26L88.09 6.02Q88.09 7.36 88.62 7.84Q89.16 8.31 89.97 8.31L89.97 8.31Q91.00 8.31 91.70 8.03Q92.40 7.75 92.63 7.67L92.63 7.67ZM101.03 8.54L101.03 8.54Q101.59 8.54 102.12 8.52Q102.65 8.51 103.04 8.45L103.04 8.45L103.04 5.43Q102.71 5.37 102.23 5.33Q101.76 5.29 101.36 5.29L101.36 5.29Q100.83 5.29 100.33 5.36Q99.82 5.43 99.45 5.60Q99.07 5.76 98.84 6.07Q98.62 6.38 98.62 6.88L98.62 6.88Q98.62 7.78 99.29 8.16Q99.96 8.54 101.03 8.54ZM100.72-2.50L100.72-2.50Q102.34-2.50 103.42-2.12Q104.50-1.74 105.14-1.05Q105.79-0.37 106.07 0.63Q106.35 1.62 106.35 2.85L106.35 2.85L106.35 10.69Q105.59 10.86 104.11 11.08Q102.62 11.31 100.78 11.31L100.78 11.31Q99.52 11.31 98.49 11.08Q97.47 10.86 96.74 10.34Q96.02 9.82 95.62 9.00Q95.23 8.17 95.23 6.97L95.23 6.97Q95.23 5.82 95.68 5.04Q96.13 4.25 96.88 3.78Q97.64 3.30 98.62 3.09Q99.60 2.88 100.66 2.88L100.66 2.88Q102.01 2.88 103.04 3.10L103.04 3.10L103.04 2.68Q103.04 1.70 102.43 1.05Q101.81 0.39 100.30 0.39L100.30 0.39Q99.32 0.39 98.41 0.53Q97.50 0.67 96.94 0.86L96.94 0.86L96.46-1.91Q97.11-2.13 98.28-2.31Q99.46-2.50 100.72-2.50ZM120.85-1.85L120.24 1.34Q119.90 1.26 119.44 1.17Q118.98 1.09 118.50 1.02Q118.02 0.95 117.58 0.92Q117.13 0.89 116.82 0.89L116.82 0.89Q116.09 0.89 115.39 0.96Q114.69 1.03 113.96 1.23L113.96 1.23L113.96 11L110.49 11L110.49-1.29Q111.86-1.80 113.31-2.10Q114.75-2.41 116.68-2.41L116.68-2.41Q116.96-2.41 117.48-2.38Q118.00-2.36 118.58-2.29Q119.17-2.22 119.77-2.12Q120.38-2.02 120.85-1.85L120.85-1.85ZM129.95-5.94L129.95-5.94Q129.95-4.93 129.31-4.34Q128.66-3.76 127.77-3.76L127.77-3.76Q126.87-3.76 126.24-4.34Q125.61-4.93 125.61-5.94L125.61-5.94Q125.61-6.98 126.24-7.56Q126.87-8.15 127.77-8.15L127.77-8.15Q128.66-8.15 129.31-7.56Q129.95-6.98 129.95-5.94ZM134.63 7.67L135.08 10.44Q134.01 10.94 133.07 11.13Q132.14 11.31 131.35 11.31L131.35 11.31Q130.01 11.31 129.10 10.92Q128.19 10.52 127.64 9.78Q127.10 9.04 126.87 7.98Q126.65 6.91 126.65 5.54L126.65 5.54L126.65 0.70L123.01 0.70L123.01-2.16L130.09-2.16L130.09 5.99Q130.09 7.16 130.53 7.74Q130.96 8.31 131.97 8.31L131.97 8.31Q132.44 8.31 133.12 8.19Q133.79 8.06 134.63 7.67L134.63 7.67ZM140.00 6.10L140.00 0.70L137.01 0.70L137.01-2.16L140.00-2.16L140.00-5.46L143.45-6.02L143.45-2.16L148.96-2.16L148.96 0.70L143.45 0.70L143.45 6.02Q143.45 6.74 143.59 7.19Q143.73 7.64 143.98 7.89Q144.23 8.14 144.60 8.23Q144.96 8.31 145.41 8.31L145.41 8.31Q145.88 8.31 146.29 8.28Q146.70 8.26 147.07 8.19Q147.45 8.12 147.86 7.98Q148.26 7.84 148.74 7.61L148.74 7.61L149.22 10.58Q148.26 10.97 147.16 11.14Q146.05 11.31 145.02 11.31L145.02 11.31Q143.81 11.31 142.89 11.11Q141.96 10.92 141.32 10.36Q140.68 9.80 140.34 8.77Q140.00 7.75 140.00 6.10L140.00 6.10ZM159.69-2.16L163.22-2.16Q162.68-0.31 162.19 1.47Q161.70 3.24 161.17 4.94Q160.64 6.63 160.04 8.26Q159.44 9.88 158.74 11.42L158.74 11.42Q158.20 12.54 157.69 13.35Q157.17 14.16 156.54 14.68Q155.91 15.20 155.14 15.45Q154.37 15.70 153.33 15.70L153.33 15.70Q152.46 15.70 151.75 15.56Q151.04 15.42 150.56 15.20L150.56 15.20L151.20 12.32Q151.76 12.57 152.20 12.67Q152.63 12.76 153.14 12.76L153.14 12.76Q154.14 12.76 154.76 12.09Q155.38 11.42 155.74 10.50L155.74 10.50Q154.51 8.03 153.28 4.85Q152.04 1.68 151.04-2.16L151.04-2.16L154.62-2.16Q154.87-1.12 155.19 0.05Q155.52 1.23 155.88 2.40Q156.24 3.58 156.65 4.71Q157.06 5.85 157.48 6.83L157.48 6.83Q157.76 5.85 158.06 4.71Q158.37 3.58 158.65 2.42Q158.93 1.26 159.20 0.08Q159.46-1.10 159.69-2.16L159.69-2.16Z"/>
    </g>
</svg>