<?xml version="1.0" encoding="UTF-8"?>
<svg height="34" width="175.1" version="1.1" xmlns="http://www.w3.org/2000/svg">
    <rect
        height="32"
        width="173.1"
        rx="1"
        ry="1"
        x="1"
        y="1"
        fill="#64E6AD"
        stroke="#126e46"
        stroke-width="1"
         />
    <g transform="translate(0, 12)">
        <path fill="#126e46" d="M25.57 9.84L25.57 9.84Q26.31 9.84 26.80 9.68Q27.30 9.53 27.58 9.25Q27.87 8.98 27.98 8.63Q28.09 8.28 28.09 7.92L28.09 7.92Q28.09 7.46 27.82 7.10Q27.56 6.74 27.15 6.47Q26.74 6.19 26.24 5.96Q25.74 5.74 25.23 5.54L25.23 5.54Q24.56 5.30 23.84 4.99Q23.12 4.68 22.53 4.20Q21.94 3.72 21.56 3.01Q21.18 2.30 21.18 1.25L21.18 1.25Q21.18-0.84 22.53-2.02Q23.89-3.19 26.26-3.19L26.26-3.19Q27.63-3.19 28.65-2.88Q29.67-2.57 30.37-2.18L30.37-2.18L29.50 0.10Q28.90-0.24 28.17-0.48Q27.44-0.72 26.48-0.72L26.48-0.72Q24.13-0.72 24.13 0.98L24.13 0.98Q24.13 1.42 24.37 1.74Q24.61 2.06 24.98 2.32Q25.35 2.57 25.82 2.76Q26.29 2.95 26.74 3.12L26.74 3.12Q27.44 3.38 28.20 3.71Q28.95 4.03 29.59 4.57Q30.22 5.11 30.63 5.92Q31.04 6.72 31.04 7.94L31.04 7.94Q31.04 10.03 29.68 11.17Q28.33 12.31 25.57 12.31L25.57 12.31Q23.72 12.31 22.62 11.92Q21.51 11.52 20.96 11.18L20.96 11.18L21.82 8.78Q22.47 9.17 23.37 9.50Q24.27 9.84 25.57 9.84ZM38.82-2.52L38.82-2.52Q38.82-1.66 38.26-1.15Q37.71-0.65 36.94-0.65L36.94-0.65Q36.18-0.65 35.64-1.15Q35.10-1.66 35.10-2.52L35.10-2.52Q35.10-3.41 35.64-3.91Q36.18-4.42 36.94-4.42L36.94-4.42Q37.71-4.42 38.26-3.91Q38.82-3.41 38.82-2.52ZM42.82 9.14L43.21 11.52Q42.30 11.95 41.49 12.11Q40.69 12.26 40.02 12.26L40.02 12.26Q38.86 12.26 38.08 11.93Q37.30 11.59 36.84 10.96Q36.37 10.32 36.18 9.41Q35.98 8.50 35.98 7.32L35.98 7.32L35.98 3.17L32.86 3.17L32.86 0.72L38.94 0.72L38.94 7.70Q38.94 8.71 39.31 9.20Q39.68 9.70 40.54 9.70L40.54 9.70Q40.95 9.70 41.53 9.59Q42.10 9.48 42.82 9.14L42.82 9.14ZM45.51 12L45.51 1.08Q46.30 0.86 47.47 0.67Q48.63 0.48 50 0.48L50 0.48Q51.34 0.48 52.23 0.85Q53.12 1.22 53.64 1.91Q54.15 2.59 54.37 3.54Q54.58 4.49 54.58 5.64L54.58 5.64L54.58 12L51.63 12L51.63 6.02Q51.63 4.44 51.27 3.74Q50.91 3.05 49.81 3.05L49.81 3.05Q49.47 3.05 49.15 3.07Q48.82 3.10 48.46 3.14L48.46 3.14L48.46 12L45.51 12ZM59.79 6L59.79 6Q59.79 7.39 60.30 8.12Q60.80 8.86 61.88 8.86L61.88 8.86Q62.36 8.86 62.78 8.74Q63.20 8.62 63.54 8.42L63.54 8.42L63.54 3Q63.20 2.93 62.94 2.90Q62.67 2.88 62.38 2.88L62.38 2.88Q59.79 2.88 59.79 6ZM66.51 1.08L66.51 10.63Q66.51 13.39 65.18 14.71Q63.85 16.03 60.90 16.03L60.90 16.03Q59.84 16.03 58.87 15.82Q57.90 15.60 57.01 15.31L57.01 15.31L57.56 12.82Q58.26 13.08 59.02 13.31Q59.79 13.54 60.94 13.54L60.94 13.54Q61.71 13.54 62.22 13.36Q62.72 13.18 63.01 12.86Q63.30 12.55 63.42 12.13Q63.54 11.71 63.54 11.23L63.54 11.23L63.54 10.78Q62.91 11.02 62.40 11.14Q61.88 11.26 61.28 11.26L61.28 11.26Q59.07 11.26 57.93 9.86Q56.79 8.47 56.79 6L56.79 6Q56.79 3.22 58.33 1.85Q59.86 0.48 62.50 0.48L62.50 0.48Q64.35 0.48 66.51 1.08L66.51 1.08ZM78.51 0.72L78.51 11.62Q77.70 11.83 76.53 12.05Q75.37 12.26 74 12.26L74 12.26Q72.61 12.26 71.72 11.88Q70.83 11.50 70.32 10.79Q69.80 10.08 69.61 9.12Q69.42 8.16 69.42 7.01L69.42 7.01L69.42 0.72L72.37 0.72L72.37 6.62Q72.37 8.18 72.74 8.94Q73.11 9.70 74.19 9.70L74.19 9.70Q74.86 9.70 75.54 9.58L75.54 9.58L75.54 0.72L78.51 0.72ZM90.82 9.14L91.21 11.52Q91.14 11.57 90.88 11.69Q90.63 11.81 90.22 11.94Q89.82 12.07 89.23 12.17Q88.64 12.26 87.90 12.26L87.90 12.26Q85.86 12.26 84.92 11.05Q83.98 9.84 83.98 7.51L83.98 7.51L83.98-2.06L80.86-2.06L80.86-4.51L86.94-4.51L86.94 7.73Q86.94 8.88 87.39 9.29Q87.85 9.70 88.54 9.70L88.54 9.70Q89.43 9.70 90.03 9.46Q90.63 9.22 90.82 9.14L90.82 9.14ZM98.02 9.89L98.02 9.89Q98.50 9.89 98.96 9.88Q99.42 9.86 99.75 9.82L99.75 9.82L99.75 7.22Q99.46 7.18 99.06 7.14Q98.65 7.10 98.31 7.10L98.31 7.10Q97.86 7.10 97.42 7.16Q96.99 7.22 96.67 7.37Q96.34 7.51 96.15 7.78Q95.96 8.04 95.96 8.47L95.96 8.47Q95.96 9.24 96.54 9.56Q97.11 9.89 98.02 9.89ZM97.76 0.43L97.76 0.43Q99.15 0.43 100.08 0.76Q101 1.08 101.55 1.67Q102.10 2.26 102.34 3.11Q102.58 3.96 102.58 5.02L102.58 5.02L102.58 11.74Q101.94 11.88 100.66 12.07Q99.39 12.26 97.81 12.26L97.81 12.26Q96.73 12.26 95.85 12.07Q94.98 11.88 94.35 11.44Q93.73 10.99 93.39 10.28Q93.06 9.58 93.06 8.54L93.06 8.54Q93.06 7.56 93.44 6.89Q93.82 6.22 94.47 5.81Q95.12 5.40 95.96 5.22Q96.80 5.04 97.71 5.04L97.71 5.04Q98.86 5.04 99.75 5.23L99.75 5.23L99.75 4.87Q99.75 4.03 99.22 3.47Q98.70 2.90 97.40 2.90L97.40 2.90Q96.56 2.90 95.78 3.02Q95 3.14 94.52 3.31L94.52 3.31L94.11 0.94Q94.66 0.74 95.67 0.59Q96.68 0.43 97.76 0.43ZM115.02 0.98L114.49 3.72Q114.20 3.65 113.80 3.58Q113.41 3.50 113 3.44Q112.59 3.38 112.21 3.36Q111.82 3.34 111.56 3.34L111.56 3.34Q110.94 3.34 110.34 3.40Q109.74 3.46 109.11 3.62L109.11 3.62L109.11 12L106.14 12L106.14 1.46Q107.31 1.03 108.55 0.77Q109.78 0.50 111.44 0.50L111.44 0.50Q111.68 0.50 112.12 0.53Q112.57 0.55 113.07 0.61Q113.58 0.67 114.09 0.76Q114.61 0.84 115.02 0.98L115.02 0.98ZM122.82-2.52L122.82-2.52Q122.82-1.66 122.26-1.15Q121.71-0.65 120.94-0.65L120.94-0.65Q120.18-0.65 119.64-1.15Q119.10-1.66 119.10-2.52L119.10-2.52Q119.10-3.41 119.64-3.91Q120.18-4.42 120.94-4.42L120.94-4.42Q121.71-4.42 122.26-3.91Q122.82-3.41 122.82-2.52ZM126.82 9.14L127.21 11.52Q126.30 11.95 125.49 12.11Q124.69 12.26 124.02 12.26L124.02 12.26Q122.86 12.26 122.08 11.93Q121.30 11.59 120.84 10.96Q120.37 10.32 120.18 9.41Q119.98 8.50 119.98 7.32L119.98 7.32L119.98 3.17L116.86 3.17L116.86 0.72L122.94 0.72L122.94 7.70Q122.94 8.71 123.31 9.20Q123.68 9.70 124.54 9.70L124.54 9.70Q124.95 9.70 125.53 9.59Q126.10 9.48 126.82 9.14L126.82 9.14ZM131.43 7.80L131.43 3.17L128.86 3.17L128.86 0.72L131.43 0.72L131.43-2.11L134.38-2.59L134.38 0.72L139.11 0.72L139.11 3.17L134.38 3.17L134.38 7.73Q134.38 8.35 134.50 8.74Q134.62 9.12 134.84 9.34Q135.06 9.55 135.37 9.62Q135.68 9.70 136.06 9.70L136.06 9.70Q136.47 9.70 136.82 9.67Q137.17 9.65 137.49 9.59Q137.82 9.53 138.16 9.41Q138.51 9.29 138.92 9.10L138.92 9.10L139.33 11.64Q138.51 11.98 137.56 12.12Q136.62 12.26 135.73 12.26L135.73 12.26Q134.70 12.26 133.90 12.10Q133.11 11.93 132.56 11.45Q132.01 10.97 131.72 10.09Q131.43 9.22 131.43 7.80L131.43 7.80ZM148.30 0.72L151.33 0.72Q150.87 2.30 150.45 3.83Q150.03 5.35 149.58 6.80Q149.12 8.26 148.60 9.65Q148.09 11.04 147.49 12.36L147.49 12.36Q147.03 13.32 146.59 14.02Q146.14 14.71 145.60 15.16Q145.06 15.60 144.40 15.82Q143.74 16.03 142.86 16.03L142.86 16.03Q142.11 16.03 141.50 15.91Q140.89 15.79 140.48 15.60L140.48 15.60L141.03 13.13Q141.51 13.34 141.88 13.43Q142.26 13.51 142.69 13.51L142.69 13.51Q143.55 13.51 144.08 12.94Q144.61 12.36 144.92 11.57L144.92 11.57Q143.86 9.46 142.81 6.73Q141.75 4.01 140.89 0.72L140.89 0.72L143.96 0.72Q144.18 1.61 144.45 2.62Q144.73 3.62 145.04 4.63Q145.35 5.64 145.70 6.61Q146.05 7.58 146.41 8.42L146.41 8.42Q146.65 7.58 146.91 6.61Q147.18 5.64 147.42 4.64Q147.66 3.65 147.88 2.64Q148.11 1.63 148.30 0.72L148.30 0.72Z"/>
    </g>
</svg>