<?xml version="1.0" encoding="UTF-8"?>
<svg height="34" width="120.7" version="1.1" xmlns="http://www.w3.org/2000/svg">
    <rect
        height="32"
        width="118.7"
        rx="14"
        ry="14"
        x="1"
        y="1"
        fill="#fede06"
        stroke="#6b5c01"
        stroke-width="1"
         />
    <g transform="translate(0, 14)">
        <path fill="#6b5c01" d="M22.88 8.14L22.88 11L11.99 11L11.99-6.33L15.46-6.33L15.46 8.14L22.88 8.14ZM31.03 8.54L31.03 8.54Q31.59 8.54 32.12 8.52Q32.65 8.51 33.04 8.45L33.04 8.45L33.04 5.43Q32.71 5.37 32.23 5.33Q31.76 5.29 31.36 5.29L31.36 5.29Q30.83 5.29 30.33 5.36Q29.82 5.43 29.45 5.60Q29.07 5.76 28.84 6.07Q28.62 6.38 28.62 6.88L28.62 6.88Q28.62 7.78 29.29 8.16Q29.96 8.54 31.03 8.54ZM30.72-2.50L30.72-2.50Q32.34-2.50 33.42-2.12Q34.50-1.74 35.14-1.05Q35.79-0.37 36.07 0.63Q36.35 1.62 36.35 2.85L36.35 2.85L36.35 10.69Q35.59 10.86 34.11 11.08Q32.62 11.31 30.78 11.31L30.78 11.31Q29.52 11.31 28.49 11.08Q27.47 10.86 26.74 10.34Q26.02 9.82 25.62 9.00Q25.23 8.17 25.23 6.97L25.23 6.97Q25.23 5.82 25.68 5.04Q26.13 4.25 26.88 3.78Q27.64 3.30 28.62 3.09Q29.60 2.88 30.66 2.88L30.66 2.88Q32.01 2.88 33.04 3.10L33.04 3.10L33.04 2.68Q33.04 1.70 32.43 1.05Q31.81 0.39 30.30 0.39L30.30 0.39Q29.32 0.39 28.41 0.53Q27.50 0.67 26.94 0.86L26.94 0.86L26.46-1.91Q27.11-2.13 28.28-2.31Q29.46-2.50 30.72-2.50ZM47.66 4.34L47.66 4.34Q47.66 2.49 47.06 1.51Q46.46 0.53 45.22 0.53L45.22 0.53Q44.66 0.53 44.12 0.68Q43.57 0.84 43.18 1.06L43.18 1.06L43.18 8.20Q43.57 8.28 44.01 8.31Q44.44 8.34 44.75 8.34L44.75 8.34Q46.09 8.34 46.88 7.43Q47.66 6.52 47.66 4.34ZM51.16 4.42L51.16 4.42Q51.16 5.99 50.74 7.26Q50.32 8.54 49.51 9.43Q48.70 10.33 47.52 10.82Q46.34 11.31 44.83 11.31L44.83 11.31Q43.49 11.31 42.09 11.11Q40.69 10.92 39.74 10.61L39.74 10.61L39.74-7.84L43.18-8.43L43.18-1.85Q43.91-2.19 44.58-2.31Q45.25-2.44 45.92-2.44L45.92-2.44Q47.21-2.44 48.19-1.95Q49.17-1.46 49.83-0.55Q50.49 0.36 50.82 1.62Q51.16 2.88 51.16 4.42ZM60.76 11L57.21 11Q56.54 9.07 55.78 6.63Q55.02 4.20 54.35 1.77Q53.68-0.65 53.15-2.80Q52.62-4.96 52.36-6.33L52.36-6.33L56.00-6.33Q56.17-4.99 56.51-3.21Q56.84-1.43 57.25 0.46Q57.66 2.35 58.12 4.18Q58.58 6.02 59.03 7.47L59.03 7.47Q59.48 6.04 59.92 4.21Q60.37 2.38 60.76 0.49Q61.16-1.40 61.49-3.20Q61.83-4.99 62.05-6.33L62.05-6.33L65.66-6.33Q65.33-4.65 64.84-2.58Q64.35-0.51 63.72 1.77Q63.09 4.06 62.33 6.42Q61.58 8.79 60.76 11L60.76 11ZM78.52 11L67.51 11L67.51 8.14L71.29 8.14L71.29-3.48L67.51-3.48L67.51-6.33L78.52-6.33L78.52-3.48L74.76-3.48L74.76 8.14L78.52 8.14L78.52 11ZM92.88 11L81.76 11L81.76-6.33L92.26-6.33L92.26-3.48L85.21-3.48L85.21 0.42L91.34 0.42L91.34 3.27L85.21 3.27L85.21 8.14L92.88 8.14L92.88 11ZM99.77-0.20L102.29-0.20Q102.40 0.33 102.62 1.12Q102.85 1.90 103.11 2.85Q103.38 3.80 103.70 4.90Q104.02 5.99 104.33 7.14L104.33 7.14Q104.33 5.68 104.30 4.01Q104.28 2.35 104.25 0.61Q104.22-1.12 104.19-2.90Q104.16-4.68 104.16-6.33L104.16-6.33L107.36-6.33Q107.27-4.20 107.19-1.95Q107.10 0.30 106.99 2.53Q106.88 4.76 106.73 6.91Q106.57 9.07 106.38 11L106.38 11L103.52 11Q102.90 9.24 102.29 7.21Q101.67 5.18 101.06 3.33L101.06 3.33Q100.44 5.09 99.77 7.16Q99.10 9.24 98.54 11L98.54 11L95.68 11Q95.46 9.07 95.29 6.90Q95.12 4.73 94.99 2.50Q94.87 0.28 94.78-1.98Q94.70-4.23 94.64-6.33L94.64-6.33L97.84-6.33Q97.81-4.68 97.78-2.92Q97.75-1.15 97.72 0.60Q97.70 2.35 97.67 4.01Q97.64 5.68 97.64 7.14L97.64 7.14Q97.89 6.24 98.21 5.18Q98.54 4.11 98.83 3.08Q99.12 2.04 99.38 1.17Q99.63 0.30 99.77-0.20L99.77-0.20Z"/>
    </g>
</svg>