<?xml version="1.0" encoding="UTF-8"?>
<svg height="34" width="92.5" version="1.1" xmlns="http://www.w3.org/2000/svg">
    <rect
        height="32"
        width="90.5"
        rx="1"
        ry="1"
        x="1"
        y="1"
        fill="#E4E6F3"
        stroke="#333b71"
        stroke-width="1"
         />
    <g transform="translate(0, 14)">
        <path fill="#333b71" d="M18.29 11.36L18.29 11.36Q14.62 11.36 12.69 9.01Q10.76 6.66 10.76 2.32L10.76 2.32Q10.76 0.16 11.34-1.52Q11.93-3.20 12.98-4.36Q14.03-5.52 15.47-6.12Q16.92-6.72 18.62-6.72L18.62-6.72Q19.55-6.72 20.29-6.57Q21.03-6.42 21.59-6.22Q22.15-6.02 22.53-5.80Q22.91-5.58 23.10-5.46L23.10-5.46L22.21-2.72Q21.56-3.14 20.65-3.43Q19.74-3.73 18.57-3.73L18.57-3.73Q17.76-3.73 16.99-3.43Q16.22-3.14 15.61-2.45Q15.01-1.77 14.63-0.62Q14.26 0.53 14.26 2.24L14.26 2.24Q14.26 5.20 15.28 6.79Q16.30 8.37 18.62 8.37L18.62 8.37Q19.97 8.37 20.85 8.06Q21.73 7.75 22.26 7.44L22.26 7.44L23.13 10.16Q22.40 10.61 21.16 10.99Q19.91 11.36 18.29 11.36ZM36.63 7.67L37.08 10.44Q36.99 10.50 36.70 10.64Q36.40 10.78 35.93 10.93Q35.45 11.08 34.77 11.20Q34.08 11.31 33.21 11.31L33.21 11.31Q30.83 11.31 29.74 9.89Q28.65 8.48 28.65 5.76L28.65 5.76L28.65-5.41L25.01-5.41L25.01-8.26L32.09-8.26L32.09 6.02Q32.09 7.36 32.62 7.84Q33.16 8.31 33.97 8.31L33.97 8.31Q35.00 8.31 35.70 8.03Q36.40 7.75 36.63 7.67L36.63 7.67ZM45.95-5.94L45.95-5.94Q45.95-4.93 45.31-4.34Q44.66-3.76 43.77-3.76L43.77-3.76Q42.87-3.76 42.24-4.34Q41.61-4.93 41.61-5.94L41.61-5.94Q41.61-6.98 42.24-7.56Q42.87-8.15 43.77-8.15L43.77-8.15Q44.66-8.15 45.31-7.56Q45.95-6.98 45.95-5.94ZM50.63 7.67L51.08 10.44Q50.01 10.94 49.07 11.13Q48.14 11.31 47.35 11.31L47.35 11.31Q46.01 11.31 45.10 10.92Q44.19 10.52 43.64 9.78Q43.10 9.04 42.87 7.98Q42.65 6.91 42.65 5.54L42.65 5.54L42.65 0.70L39.01 0.70L39.01-2.16L46.09-2.16L46.09 5.99Q46.09 7.16 46.53 7.74Q46.96 8.31 47.97 8.31L47.97 8.31Q48.44 8.31 49.12 8.19Q49.79 8.06 50.63 7.67L50.63 7.67ZM53.23 4.42L53.23 4.42Q53.23 2.99 53.68 1.73Q54.13 0.47 55.05-0.47Q55.98-1.40 57.39-1.95Q58.80-2.50 60.76-2.50L60.76-2.50Q61.94-2.50 62.89-2.33Q63.84-2.16 64.82-1.77L64.82-1.77L64.07 1.00Q63.51 0.81 62.82 0.65Q62.14 0.50 61.07 0.50L61.07 0.50Q59.84 0.50 59.01 0.79Q58.19 1.09 57.68 1.61Q57.18 2.12 56.96 2.85Q56.73 3.58 56.73 4.42L56.73 4.42Q56.73 6.24 57.75 7.28Q58.78 8.31 61.24 8.31L61.24 8.31Q62.05 8.31 62.93 8.20Q63.82 8.09 64.54 7.84L64.54 7.84L65.05 10.66Q64.32 10.94 63.28 11.13Q62.25 11.31 60.85 11.31L60.85 11.31Q58.83 11.31 57.39 10.78Q55.95 10.24 55.02 9.32Q54.10 8.40 53.67 7.14Q53.23 5.88 53.23 4.42ZM71.24-8.43L71.24 3.05Q71.74 2.46 72.26 1.80Q72.78 1.14 73.27 0.44Q73.76-0.26 74.20-0.91Q74.65-1.57 74.99-2.16L74.99-2.16L79.13-2.16Q78.63-1.52 77.98-0.76Q77.34-0.00 76.65 0.78Q75.97 1.56 75.28 2.29Q74.60 3.02 74.04 3.64L74.04 3.64Q74.74 4.31 75.55 5.25Q76.36 6.18 77.14 7.19Q77.93 8.20 78.59 9.21Q79.24 10.22 79.64 11L79.64 11L75.69 11Q75.35 10.30 74.81 9.42Q74.26 8.54 73.64 7.68Q73.03 6.83 72.40 6.06Q71.77 5.29 71.24 4.78L71.24 4.78L71.24 11L67.76 11L67.76-7.84L71.24-8.43Z"/>
    </g>
</svg>