<?xml version="1.0" encoding="UTF-8"?>
<svg height="34" width="191.2" version="1.1" xmlns="http://www.w3.org/2000/svg">
    <rect
        height="32"
        width="189.2"
        rx="1"
        ry="1"
        x="1"
        y="1"
        fill="#882B0F"
        stroke="#eb6d47"
        stroke-width="1"
         />
    <g transform="translate(0, 14)">
        <path fill="#eb6d47" d="M23.75 11L20.05 11L19.24 7.00L14.62 7.00L13.84 11L10.25 11Q11.48 5.88 12.74 1.66Q14.00-2.55 15.18-6.33L15.18-6.33L18.93-6.33Q20.16-2.52 21.38 1.75Q22.60 6.02 23.75 11L23.75 11ZM16.97-2.97L16.97-2.97Q16.69-1.99 16.45-1.11Q16.22-0.23 16.01 0.63Q15.80 1.48 15.61 2.35Q15.43 3.22 15.26 4.14L15.26 4.14L18.65 4.14Q18.48 3.22 18.32 2.35Q18.15 1.48 17.94 0.63Q17.73-0.23 17.49-1.11Q17.25-1.99 16.97-2.97ZM25.23 4.42L25.23 4.42Q25.23 2.99 25.68 1.73Q26.13 0.47 27.05-0.47Q27.98-1.40 29.39-1.95Q30.80-2.50 32.76-2.50L32.76-2.50Q33.94-2.50 34.89-2.33Q35.84-2.16 36.82-1.77L36.82-1.77L36.07 1.00Q35.51 0.81 34.82 0.65Q34.14 0.50 33.07 0.50L33.07 0.50Q31.84 0.50 31.01 0.79Q30.19 1.09 29.68 1.61Q29.18 2.12 28.96 2.85Q28.73 3.58 28.73 4.42L28.73 4.42Q28.73 6.24 29.75 7.28Q30.78 8.31 33.24 8.31L33.24 8.31Q34.05 8.31 34.93 8.20Q35.82 8.09 36.54 7.84L36.54 7.84L37.05 10.66Q36.32 10.94 35.28 11.13Q34.25 11.31 32.85 11.31L32.85 11.31Q30.83 11.31 29.39 10.78Q27.95 10.24 27.02 9.32Q26.10 8.40 25.67 7.14Q25.23 5.88 25.23 4.42ZM42.00 6.10L42.00 0.70L39.01 0.70L39.01-2.16L42.00-2.16L42.00-5.46L45.45-6.02L45.45-2.16L50.96-2.16L50.96 0.70L45.45 0.70L45.45 6.02Q45.45 6.74 45.59 7.19Q45.73 7.64 45.98 7.89Q46.23 8.14 46.60 8.23Q46.96 8.31 47.41 8.31L47.41 8.31Q47.88 8.31 48.29 8.28Q48.70 8.26 49.07 8.19Q49.45 8.12 49.86 7.98Q50.26 7.84 50.74 7.61L50.74 7.61L51.22 10.58Q50.26 10.97 49.16 11.14Q48.05 11.31 47.02 11.31L47.02 11.31Q45.81 11.31 44.89 11.11Q43.96 10.92 43.32 10.36Q42.68 9.80 42.34 8.77Q42.00 7.75 42.00 6.10L42.00 6.10ZM59.95-5.94L59.95-5.94Q59.95-4.93 59.31-4.34Q58.66-3.76 57.77-3.76L57.77-3.76Q56.87-3.76 56.24-4.34Q55.61-4.93 55.61-5.94L55.61-5.94Q55.61-6.98 56.24-7.56Q56.87-8.15 57.77-8.15L57.77-8.15Q58.66-8.15 59.31-7.56Q59.95-6.98 59.95-5.94ZM64.63 7.67L65.08 10.44Q64.01 10.94 63.07 11.13Q62.14 11.31 61.35 11.31L61.35 11.31Q60.01 11.31 59.10 10.92Q58.19 10.52 57.64 9.78Q57.10 9.04 56.87 7.98Q56.65 6.91 56.65 5.54L56.65 5.54L56.65 0.70L53.01 0.70L53.01-2.16L60.09-2.16L60.09 5.99Q60.09 7.16 60.53 7.74Q60.96 8.31 61.97 8.31L61.97 8.31Q62.44 8.31 63.12 8.19Q63.79 8.06 64.63 7.67L64.63 7.67ZM79.22 4.39L79.22 4.39Q79.22 5.96 78.77 7.23Q78.32 8.51 77.51 9.43Q76.70 10.36 75.56 10.86Q74.43 11.36 73.03 11.36L73.03 11.36Q71.63 11.36 70.49 10.86Q69.36 10.36 68.53 9.43Q67.71 8.51 67.26 7.23Q66.81 5.96 66.81 4.39L66.81 4.39Q66.81 2.85 67.27 1.58Q67.74 0.30 68.56-0.61Q69.39-1.52 70.54-2.01Q71.68-2.50 73.03-2.50L73.03-2.50Q74.40-2.50 75.53-2.01Q76.67-1.52 77.49-0.61Q78.32 0.30 78.77 1.58Q79.22 2.85 79.22 4.39ZM70.31 4.42L70.31 4.42Q70.31 6.18 70.94 7.28Q71.57 8.37 72.97 8.37L72.97 8.37Q74.32 8.37 75.00 7.28Q75.69 6.18 75.69 4.42L75.69 4.42Q75.69 2.66 75.06 1.58Q74.43 0.50 73.03 0.50L73.03 0.50Q71.68 0.50 71.00 1.58Q70.31 2.66 70.31 4.42ZM81.76 11L81.76-1.74Q82.69-1.99 84.05-2.22Q85.40-2.44 87-2.44L87-2.44Q88.57-2.44 89.60-2.01Q90.64-1.57 91.24-0.77Q91.84 0.02 92.10 1.13Q92.35 2.24 92.35 3.58L92.35 3.58L92.35 11L88.90 11L88.90 4.03Q88.90 2.18 88.48 1.37Q88.06 0.56 86.78 0.56L86.78 0.56Q86.38 0.56 86.01 0.58Q85.63 0.61 85.21 0.67L85.21 0.67L85.21 11L81.76 11ZM100.50 8.48L100.50 8.48Q101.36 8.48 101.94 8.30Q102.51 8.12 102.85 7.79Q103.18 7.47 103.31 7.07Q103.44 6.66 103.44 6.24L103.44 6.24Q103.44 5.71 103.13 5.29Q102.82 4.87 102.34 4.55Q101.87 4.22 101.28 3.96Q100.69 3.69 100.10 3.47L100.10 3.47Q99.32 3.19 98.48 2.82Q97.64 2.46 96.95 1.90Q96.27 1.34 95.82 0.51Q95.37-0.31 95.37-1.54L95.37-1.54Q95.37-3.98 96.95-5.35Q98.54-6.72 101.31-6.72L101.31-6.72Q102.90-6.72 104.09-6.36Q105.28-6.00 106.10-5.55L106.10-5.55L105.09-2.89Q104.39-3.28 103.53-3.56Q102.68-3.84 101.56-3.84L101.56-3.84Q98.82-3.84 98.82-1.85L98.82-1.85Q98.82-1.35 99.10-0.97Q99.38-0.59 99.81-0.30Q100.24-0.00 100.79 0.22Q101.34 0.44 101.87 0.64L101.87 0.64Q102.68 0.95 103.56 1.33Q104.44 1.70 105.19 2.33Q105.93 2.96 106.40 3.90Q106.88 4.84 106.88 6.27L106.88 6.27Q106.88 8.70 105.30 10.03Q103.72 11.36 100.50 11.36L100.50 11.36Q98.34 11.36 97.05 10.90Q95.76 10.44 95.12 10.05L95.12 10.05L96.13 7.25Q96.88 7.70 97.93 8.09Q98.98 8.48 100.50 8.48ZM109.23 4.42L109.23 4.42Q109.23 2.99 109.68 1.73Q110.13 0.47 111.05-0.47Q111.98-1.40 113.39-1.95Q114.80-2.50 116.76-2.50L116.76-2.50Q117.94-2.50 118.89-2.33Q119.84-2.16 120.82-1.77L120.82-1.77L120.07 1.00Q119.51 0.81 118.82 0.65Q118.14 0.50 117.07 0.50L117.07 0.50Q115.84 0.50 115.01 0.79Q114.19 1.09 113.68 1.61Q113.18 2.12 112.96 2.85Q112.73 3.58 112.73 4.42L112.73 4.42Q112.73 6.24 113.75 7.28Q114.78 8.31 117.24 8.31L117.24 8.31Q118.05 8.31 118.93 8.20Q119.82 8.09 120.54 7.84L120.54 7.84L121.05 10.66Q120.32 10.94 119.28 11.13Q118.25 11.31 116.85 11.31L116.85 11.31Q114.83 11.31 113.39 10.78Q111.95 10.24 111.02 9.32Q110.10 8.40 109.67 7.14Q109.23 5.88 109.23 4.42ZM134.85-1.85L134.24 1.34Q133.90 1.26 133.44 1.17Q132.98 1.09 132.50 1.02Q132.02 0.95 131.58 0.92Q131.13 0.89 130.82 0.89L130.82 0.89Q130.09 0.89 129.39 0.96Q128.69 1.03 127.96 1.23L127.96 1.23L127.96 11L124.49 11L124.49-1.29Q125.86-1.80 127.31-2.10Q128.75-2.41 130.68-2.41L130.68-2.41Q130.96-2.41 131.48-2.38Q132.00-2.36 132.58-2.29Q133.17-2.22 133.77-2.12Q134.38-2.02 134.85-1.85L134.85-1.85ZM143.95-5.94L143.95-5.94Q143.95-4.93 143.31-4.34Q142.66-3.76 141.77-3.76L141.77-3.76Q140.87-3.76 140.24-4.34Q139.61-4.93 139.61-5.94L139.61-5.94Q139.61-6.98 140.24-7.56Q140.87-8.15 141.77-8.15L141.77-8.15Q142.66-8.15 143.31-7.56Q143.95-6.98 143.95-5.94ZM148.63 7.67L149.08 10.44Q148.01 10.94 147.07 11.13Q146.14 11.31 145.35 11.31L145.35 11.31Q144.01 11.31 143.10 10.92Q142.19 10.52 141.64 9.78Q141.10 9.04 140.87 7.98Q140.65 6.91 140.65 5.54L140.65 5.54L140.65 0.70L137.01 0.70L137.01-2.16L144.09-2.16L144.09 5.99Q144.09 7.16 144.53 7.74Q144.96 8.31 145.97 8.31L145.97 8.31Q146.44 8.31 147.12 8.19Q147.79 8.06 148.63 7.67L148.63 7.67ZM159.63 4.53L159.63 4.53Q159.63 2.77 158.93 1.63Q158.23 0.50 156.80 0.50L156.80 0.50Q156.41 0.50 155.96 0.54Q155.52 0.58 155.21 0.61L155.21 0.61L155.21 7.84Q155.54 8.06 156.10 8.20Q156.66 8.34 157.22 8.34L157.22 8.34Q158.46 8.34 159.04 7.35Q159.63 6.35 159.63 4.53ZM163.13 4.42L163.13 4.42Q163.13 5.93 162.80 7.21Q162.46 8.48 161.82 9.39Q161.17 10.30 160.19 10.80Q159.21 11.31 157.92 11.31L157.92 11.31Q156.61 11.31 155.21 10.66L155.21 10.66L155.21 15.62L151.76 15.62L151.76-1.74Q152.72-2.05 154.10-2.24Q155.49-2.44 156.83-2.44L156.83-2.44Q159.88-2.44 161.51-0.59Q163.13 1.26 163.13 4.42ZM168.00 6.10L168.00 0.70L165.01 0.70L165.01-2.16L168.00-2.16L168.00-5.46L171.45-6.02L171.45-2.16L176.96-2.16L176.96 0.70L171.45 0.70L171.45 6.02Q171.45 6.74 171.59 7.19Q171.73 7.64 171.98 7.89Q172.23 8.14 172.60 8.23Q172.96 8.31 173.41 8.31L173.41 8.31Q173.88 8.31 174.29 8.28Q174.70 8.26 175.07 8.19Q175.45 8.12 175.86 7.98Q176.26 7.84 176.74 7.61L176.74 7.61L177.22 10.58Q176.26 10.97 175.16 11.14Q174.05 11.31 173.02 11.31L173.02 11.31Q171.81 11.31 170.89 11.11Q169.96 10.92 169.32 10.36Q168.68 9.80 168.34 8.77Q168.00 7.75 168.00 6.10L168.00 6.10Z"/>
    </g>
</svg>