<?xml version="1.0" encoding="UTF-8"?>
<svg height="322" width="66.2" version="1.1" xmlns="http://www.w3.org/2000/svg"><!--Created by Josélio de S. C. Júnior - 2021 - https://github.com/joseliojunior -->
    <rect
        height="32"
        width="64.2"
        rx="1"
        ry="1"
        x="1" y="1"
        fill="#447265"
        stroke="#0b1311"
        stroke-width="1" />
    <g transform="translate(0, 12)">
        <path fill="#0b1311" stroke="none" d="M24.25-0.38L24.25 9.60Q24.37 9.62 24.51 9.62Q24.66 9.62 24.78 9.62L24.78 9.62Q25.78 9.62 26.47 9.24Q27.15 8.86 27.57 8.18Q27.99 7.51 28.17 6.59Q28.35 5.66 28.35 4.56L28.35 4.56Q28.35 3.60 28.21 2.69Q28.06 1.78 27.70 1.08Q27.34 0.38 26.72-0.04Q26.10-0.46 25.11-0.46L25.11-0.46Q24.92-0.46 24.68-0.44Q24.44-0.43 24.25-0.38L24.25-0.38ZM31.35 4.56L31.35 4.56Q31.35 6.62 30.84 8.08Q30.32 9.53 29.41 10.44Q28.50 11.35 27.24 11.77Q25.98 12.19 24.46 12.19L24.46 12.19Q23.67 12.19 22.92 12.11Q22.16 12.02 21.30 11.83L21.30 11.83L21.30-2.66Q22.30-2.88 23.19-2.95Q24.08-3.02 24.85-3.02L24.85-3.02Q26.31-3.02 27.52-2.59Q28.74-2.16 29.58-1.24Q30.42-0.31 30.88 1.12Q31.35 2.54 31.35 4.56ZM33.42-2.86L35.86-2.86Q36.03-2.35 36.28-1.56Q36.54-0.77 36.82 0.14Q37.11 1.06 37.40 1.99Q37.69 2.93 37.95 3.72L37.95 3.72Q38.24 2.83 38.55 1.88Q38.86 0.94 39.15 0.06Q39.44-0.82 39.68-1.58Q39.92-2.35 40.11-2.86L40.11-2.86L42.56-2.86Q42.73-0.91 42.88 0.94Q43.04 2.78 43.15 4.60Q43.26 6.41 43.33 8.24Q43.40 10.08 43.45 12L43.45 12L40.74 12L40.88 0.46L39.06 6.74L36.90 6.74L35.14 0.46L35.26 12L32.55 12Q32.62 10.18 32.71 8.21Q32.79 6.24 32.89 4.30Q32.98 2.35 33.12 0.53Q33.25-1.30 33.42-2.86L33.42-2.86Z"/>
    </g>
</svg>