<?xml version="1.0" encoding="UTF-8"?><svg height="26" width="98.7" version="1.1" xmlns="http://www.w3.org/2000/svg"><!--Created by Josélio de S. C. Júnior - 2021 - https://github.com/joseliojunior --><rect height="24" width="96.7" rx="12" ry="12" x="1" y="1" fill="#F1A42B" stroke="#7d5008" stroke-width="1" /><g transform="translate(0, 8)"><path fill="#7d5008" d="M24.74 10.21L24.74 10.21Q22.64 10.21 21.54 8.86Q20.43 7.52 20.43 5.04L20.43 5.04Q20.43 3.81 20.77 2.85Q21.10 1.89 21.70 1.22Q22.30 0.56 23.13 0.22Q23.95-0.13 24.93-0.13L24.93-0.13Q25.46-0.13 25.88-0.04Q26.30 0.05 26.62 0.16Q26.94 0.27 27.16 0.40Q27.38 0.53 27.49 0.59L27.49 0.59L26.98 2.16Q26.61 1.92 26.09 1.75Q25.57 1.58 24.90 1.58L24.90 1.58Q24.43 1.58 23.99 1.75Q23.55 1.92 23.21 2.31Q22.86 2.70 22.65 3.36Q22.43 4.02 22.43 4.99L22.43 4.99Q22.43 6.69 23.02 7.59Q23.60 8.50 24.93 8.50L24.93 8.50Q25.70 8.50 26.20 8.32Q26.70 8.14 27.01 7.97L27.01 7.97L27.50 9.52Q27.09 9.78 26.38 9.99Q25.66 10.21 24.74 10.21ZM30.43 5.04L30.43 5.04Q30.43 5.76 30.49 6.39Q30.54 7.02 30.71 7.49Q30.88 7.95 31.18 8.22Q31.49 8.50 32 8.50L32 8.50Q32.50 8.50 32.81 8.22Q33.12 7.95 33.29 7.48Q33.46 7.01 33.51 6.38Q33.57 5.76 33.57 5.04L33.57 5.04Q33.57 4.32 33.51 3.69Q33.46 3.06 33.29 2.59Q33.12 2.13 32.82 1.86Q32.51 1.58 32 1.58L32 1.58Q31.49 1.58 31.18 1.86Q30.88 2.13 30.71 2.60Q30.54 3.07 30.49 3.70Q30.43 4.32 30.43 5.04ZM28.43 5.04L28.43 5.04Q28.43 2.48 29.38 1.18Q30.32-0.13 32-0.13L32-0.13Q33.74-0.13 34.66 1.18Q35.57 2.48 35.57 5.04L35.57 5.04Q35.57 7.60 34.64 8.90Q33.71 10.21 32.02 10.21L32.02 10.21Q30.27 10.21 29.35 8.90Q28.43 7.60 28.43 5.04ZM43.36 8.37L43.36 10L37.14 10L37.14 0.10L39.12 0.10L39.12 8.37L43.36 8.37ZM51.36 8.37L51.36 10L45.14 10L45.14 0.10L47.12 0.10L47.12 8.37L51.36 8.37ZM59.86 10L57.74 10L57.28 7.71L54.64 7.71L54.19 10L52.14 10Q52.85 7.07 53.57 4.66Q54.29 2.26 54.96 0.10L54.96 0.10L57.10 0.10Q57.81 2.27 58.50 4.71Q59.20 7.15 59.86 10L59.86 10ZM55.98 2.02L55.98 2.02Q55.82 2.58 55.69 3.08Q55.55 3.58 55.43 4.07Q55.31 4.56 55.21 5.06Q55.10 5.55 55.01 6.08L55.01 6.08L56.94 6.08Q56.85 5.55 56.75 5.06Q56.66 4.56 56.54 4.07Q56.42 3.58 56.28 3.08Q56.14 2.58 55.98 2.02ZM62.83 1.74L62.83 8.40Q62.91 8.42 63.01 8.42Q63.10 8.42 63.18 8.42L63.18 8.42Q63.86 8.42 64.31 8.16Q64.77 7.90 65.05 7.46Q65.33 7.01 65.45 6.39Q65.57 5.78 65.57 5.04L65.57 5.04Q65.57 4.40 65.47 3.79Q65.38 3.18 65.14 2.72Q64.90 2.26 64.48 1.98Q64.06 1.70 63.41 1.70L63.41 1.70Q63.28 1.70 63.12 1.70Q62.96 1.71 62.83 1.74L62.83 1.74ZM67.57 5.04L67.57 5.04Q67.57 6.42 67.22 7.38Q66.88 8.35 66.27 8.96Q65.66 9.57 64.82 9.85Q63.98 10.13 62.98 10.13L62.98 10.13Q62.45 10.13 61.94 10.07Q61.44 10.02 60.86 9.89L60.86 9.89L60.86 0.22Q61.54 0.08 62.13 0.03Q62.72-0.02 63.23-0.02L63.23-0.02Q64.21-0.02 65.02 0.27Q65.82 0.56 66.38 1.18Q66.94 1.79 67.26 2.74Q67.57 3.70 67.57 5.04ZM75.86 10L73.74 10L73.28 7.71L70.64 7.71L70.19 10L68.14 10Q68.85 7.07 69.57 4.66Q70.29 2.26 70.96 0.10L70.96 0.10L73.10 0.10Q73.81 2.27 74.50 4.71Q75.20 7.15 75.86 10L75.86 10ZM71.98 2.02L71.98 2.02Q71.82 2.58 71.69 3.08Q71.55 3.58 71.43 4.07Q71.31 4.56 71.21 5.06Q71.10 5.55 71.01 6.08L71.01 6.08L72.94 6.08Q72.85 5.55 72.75 5.06Q72.66 4.56 72.54 4.07Q72.42 3.58 72.28 3.08Q72.14 2.58 71.98 2.02Z"/></g></svg>