<?xml version="1.0" encoding="UTF-8"?>
<svg height="34" width="120.7" version="1.1" xmlns="http://www.w3.org/2000/svg">
    <rect
        height="32"
        width="118.7"
        rx="14"
        ry="14"
        x="1"
        y="1"
        fill="#F1A42B"
        stroke="#7d5008"
        stroke-width="1"
         />
    <g transform="translate(0, 14)">
        <path fill="#7d5008" d="M18.29 11.36L18.29 11.36Q14.62 11.36 12.69 9.01Q10.76 6.66 10.76 2.32L10.76 2.32Q10.76 0.16 11.34-1.52Q11.93-3.20 12.98-4.36Q14.03-5.52 15.47-6.12Q16.92-6.72 18.62-6.72L18.62-6.72Q19.55-6.72 20.29-6.57Q21.03-6.42 21.59-6.22Q22.15-6.02 22.53-5.80Q22.91-5.58 23.10-5.46L23.10-5.46L22.21-2.72Q21.56-3.14 20.65-3.43Q19.74-3.73 18.57-3.73L18.57-3.73Q17.76-3.73 16.99-3.43Q16.22-3.14 15.61-2.45Q15.01-1.77 14.63-0.62Q14.26 0.53 14.26 2.24L14.26 2.24Q14.26 5.20 15.28 6.79Q16.30 8.37 18.62 8.37L18.62 8.37Q19.97 8.37 20.85 8.06Q21.73 7.75 22.26 7.44L22.26 7.44L23.13 10.16Q22.40 10.61 21.16 10.99Q19.91 11.36 18.29 11.36ZM28.26 2.32L28.26 2.32Q28.26 3.58 28.35 4.69Q28.45 5.79 28.75 6.60Q29.04 7.42 29.57 7.89Q30.10 8.37 31 8.37L31 8.37Q31.87 8.37 32.41 7.89Q32.96 7.42 33.25 6.59Q33.55 5.76 33.65 4.67Q33.74 3.58 33.74 2.32L33.74 2.32Q33.74 1.06 33.65-0.05Q33.55-1.15 33.25-1.96Q32.96-2.78 32.43-3.25Q31.90-3.73 31-3.73L31-3.73Q30.10-3.73 29.57-3.25Q29.04-2.78 28.75-1.95Q28.45-1.12 28.35-0.03Q28.26 1.06 28.26 2.32ZM24.76 2.32L24.76 2.32Q24.76-2.16 26.41-4.44Q28.06-6.72 31-6.72L31-6.72Q34.05-6.72 35.65-4.44Q37.24-2.16 37.24 2.32L37.24 2.32Q37.24 6.80 35.62 9.08Q34.00 11.36 31.03 11.36L31.03 11.36Q27.98 11.36 26.37 9.08Q24.76 6.80 24.76 2.32ZM50.88 8.14L50.88 11L39.99 11L39.99-6.33L43.46-6.33L43.46 8.14L50.88 8.14ZM64.88 8.14L64.88 11L53.99 11L53.99-6.33L57.46-6.33L57.46 8.14L64.88 8.14ZM79.75 11L76.05 11L75.24 7.00L70.62 7.00L69.84 11L66.25 11Q67.48 5.88 68.74 1.66Q70.00-2.55 71.18-6.33L71.18-6.33L74.93-6.33Q76.16-2.52 77.38 1.75Q78.60 6.02 79.75 11L79.75 11ZM72.97-2.97L72.97-2.97Q72.69-1.99 72.45-1.11Q72.22-0.23 72.01 0.63Q71.80 1.48 71.61 2.35Q71.43 3.22 71.26 4.14L71.26 4.14L74.65 4.14Q74.48 3.22 74.32 2.35Q74.15 1.48 73.94 0.63Q73.73-0.23 73.49-1.11Q73.25-1.99 72.97-2.97ZM84.96-3.45L84.96 8.20Q85.10 8.23 85.26 8.23Q85.43 8.23 85.57 8.23L85.57 8.23Q86.75 8.23 87.55 7.78Q88.34 7.33 88.83 6.55Q89.32 5.76 89.53 4.69Q89.74 3.61 89.74 2.32L89.74 2.32Q89.74 1.20 89.58 0.14Q89.41-0.93 88.99-1.74Q88.57-2.55 87.84-3.04Q87.11-3.53 85.96-3.53L85.96-3.53Q85.74-3.53 85.46-3.52Q85.18-3.50 84.96-3.45L84.96-3.45ZM93.24 2.32L93.24 2.32Q93.24 4.73 92.64 6.42Q92.04 8.12 90.98 9.18Q89.91 10.24 88.44 10.73Q86.97 11.22 85.21 11.22L85.21 11.22Q84.28 11.22 83.40 11.13Q82.52 11.03 81.51 10.80L81.51 10.80L81.51-6.11Q82.69-6.36 83.72-6.44Q84.76-6.53 85.66-6.53L85.66-6.53Q87.36-6.53 88.78-6.02Q90.19-5.52 91.17-4.44Q92.15-3.36 92.70-1.70Q93.24-0.03 93.24 2.32ZM107.75 11L104.05 11L103.24 7.00L98.62 7.00L97.84 11L94.25 11Q95.48 5.88 96.74 1.66Q98.00-2.55 99.18-6.33L99.18-6.33L102.93-6.33Q104.16-2.52 105.38 1.75Q106.60 6.02 107.75 11L107.75 11ZM100.97-2.97L100.97-2.97Q100.69-1.99 100.45-1.11Q100.22-0.23 100.01 0.63Q99.80 1.48 99.61 2.35Q99.43 3.22 99.26 4.14L99.26 4.14L102.65 4.14Q102.48 3.22 102.32 2.35Q102.15 1.48 101.94 0.63Q101.73-0.23 101.49-1.11Q101.25-1.99 100.97-2.97Z"/>
    </g>
</svg>