<?xml version="1.0" encoding="UTF-8"?><svg height="34" width="126.7" version="1.1" xmlns="http://www.w3.org/2000/svg"><!--Created by Josélio de S. C. Júnior - 2021 - https://github.com/joseliojunior --><rect height="32" width="124.7" rx="1" ry="1" x="1" y="1" fill="#F1A42B" stroke="#7d5008" stroke-width="1" /><g transform="translate(0, 12)"><path fill="#7d5008" d="M27.10 12.31L27.10 12.31Q23.96 12.31 22.30 10.30Q20.65 8.28 20.65 4.56L20.65 4.56Q20.65 2.71 21.15 1.27Q21.66-0.17 22.56-1.16Q23.46-2.16 24.69-2.68Q25.93-3.19 27.39-3.19L27.39-3.19Q28.18-3.19 28.82-3.06Q29.46-2.93 29.94-2.76Q30.42-2.59 30.74-2.40Q31.06-2.21 31.23-2.11L31.23-2.11L30.46 0.24Q29.91-0.12 29.13-0.37Q28.35-0.62 27.34-0.62L27.34-0.62Q26.65-0.62 25.99-0.37Q25.33-0.12 24.81 0.47Q24.30 1.06 23.97 2.04Q23.65 3.02 23.65 4.49L23.65 4.49Q23.65 7.03 24.52 8.39Q25.40 9.74 27.39 9.74L27.39 9.74Q28.54 9.74 29.30 9.48Q30.06 9.22 30.51 8.95L30.51 8.95L31.26 11.28Q30.63 11.66 29.56 11.99Q28.50 12.31 27.10 12.31ZM35.65 4.56L35.65 4.56Q35.65 5.64 35.73 6.59Q35.82 7.54 36.07 8.23Q36.32 8.93 36.78 9.34Q37.23 9.74 38 9.74L38 9.74Q38.74 9.74 39.21 9.34Q39.68 8.93 39.93 8.22Q40.18 7.51 40.27 6.58Q40.35 5.64 40.35 4.56L40.35 4.56Q40.35 3.48 40.27 2.53Q40.18 1.58 39.93 0.89Q39.68 0.19 39.22-0.22Q38.77-0.62 38-0.62L38-0.62Q37.23-0.62 36.78-0.22Q36.32 0.19 36.07 0.90Q35.82 1.61 35.73 2.54Q35.65 3.48 35.65 4.56ZM32.65 4.56L32.65 4.56Q32.65 0.72 34.06-1.24Q35.48-3.19 38-3.19L38-3.19Q40.62-3.19 41.98-1.24Q43.35 0.72 43.35 4.56L43.35 4.56Q43.35 8.40 41.96 10.36Q40.57 12.31 38.02 12.31L38.02 12.31Q35.41 12.31 34.03 10.36Q32.65 8.40 32.65 4.56ZM55.04 9.55L55.04 12L45.70 12L45.70-2.86L48.68-2.86L48.68 9.55L55.04 9.55ZM67.04 9.55L67.04 12L57.70 12L57.70-2.86L60.68-2.86L60.68 9.55L67.04 9.55ZM79.78 12L76.62 12L75.92 8.57L71.96 8.57L71.29 12L68.22 12Q69.27 7.61 70.35 4.00Q71.43 0.38 72.44-2.86L72.44-2.86L75.66-2.86Q76.71 0.41 77.76 4.07Q78.80 7.73 79.78 12L79.78 12ZM73.98 0.02L73.98 0.02Q73.74 0.86 73.53 1.62Q73.33 2.38 73.15 3.11Q72.97 3.84 72.81 4.58Q72.66 5.33 72.51 6.12L72.51 6.12L75.42 6.12Q75.27 5.33 75.13 4.58Q74.98 3.84 74.80 3.11Q74.62 2.38 74.42 1.62Q74.22 0.86 73.98 0.02ZM84.25-0.38L84.25 9.60Q84.37 9.62 84.51 9.62Q84.66 9.62 84.78 9.62L84.78 9.62Q85.78 9.62 86.47 9.24Q87.15 8.86 87.57 8.18Q87.99 7.51 88.17 6.59Q88.35 5.66 88.35 4.56L88.35 4.56Q88.35 3.60 88.21 2.69Q88.06 1.78 87.70 1.08Q87.34 0.38 86.72-0.04Q86.10-0.46 85.11-0.46L85.11-0.46Q84.92-0.46 84.68-0.44Q84.44-0.43 84.25-0.38L84.25-0.38ZM91.35 4.56L91.35 4.56Q91.35 6.62 90.84 8.08Q90.32 9.53 89.41 10.44Q88.50 11.35 87.24 11.77Q85.98 12.19 84.46 12.19L84.46 12.19Q83.67 12.19 82.92 12.11Q82.16 12.02 81.30 11.83L81.30 11.83L81.30-2.66Q82.30-2.88 83.19-2.95Q84.08-3.02 84.85-3.02L84.85-3.02Q86.31-3.02 87.52-2.59Q88.74-2.16 89.58-1.24Q90.42-0.31 90.88 1.12Q91.35 2.54 91.35 4.56ZM103.78 12L100.62 12L99.92 8.57L95.96 8.57L95.29 12L92.22 12Q93.27 7.61 94.35 4.00Q95.43 0.38 96.44-2.86L96.44-2.86L99.66-2.86Q100.71 0.41 101.76 4.07Q102.80 7.73 103.78 12L103.78 12ZM97.98 0.02L97.98 0.02Q97.74 0.86 97.53 1.62Q97.33 2.38 97.15 3.11Q96.97 3.84 96.81 4.58Q96.66 5.33 96.51 6.12L96.51 6.12L99.42 6.12Q99.27 5.33 99.13 4.58Q98.98 3.84 98.80 3.11Q98.62 2.38 98.42 1.62Q98.22 0.86 97.98 0.02Z"/></g></svg>