<?xml version="1.0" encoding="UTF-8"?>
<svg height="26" width="74.4" version="1.1" xmlns="http://www.w3.org/2000/svg"><!--Created by Josélio de S. C. Júnior - 2021 - https://github.com/joseliojunior -->
    <defs>
        <pattern id="pattern"
                x="1.5" y="3" width="3" height="6"
                patternUnits="userSpaceOnUse"
                patternTransform="rotate(45)" >
            <rect height="6" width="1" fill="#999999"/>
        </pattern>
    </defs>
    <rect
        height="24"
        width="72.4"
        rx="12"
        ry="12"
        x="1" y="1"
        fill="url(#pattern)"
        stroke="#000000"
        stroke-width="1" />
    <g transform="translate(0, 8)">
        <path fill="#ffffff" stroke="#000000" d="M23.71 8.56L23.71 8.56Q24.21 8.56 24.54 8.46Q24.86 8.35 25.06 8.17Q25.25 7.98 25.32 7.75Q25.39 7.52 25.39 7.28L25.39 7.28Q25.39 6.98 25.22 6.74Q25.04 6.50 24.77 6.31Q24.50 6.13 24.16 5.98Q23.82 5.82 23.49 5.70L23.49 5.70Q23.04 5.54 22.56 5.33Q22.08 5.12 21.69 4.80Q21.30 4.48 21.04 4.01Q20.78 3.54 20.78 2.83L20.78 2.83Q20.78 1.44 21.69 0.66Q22.59-0.13 24.18-0.13L24.18-0.13Q25.09-0.13 25.77 0.08Q26.45 0.29 26.91 0.54L26.91 0.54L26.34 2.06Q25.94 1.84 25.45 1.68Q24.96 1.52 24.32 1.52L24.32 1.52Q22.75 1.52 22.75 2.66L22.75 2.66Q22.75 2.94 22.91 3.16Q23.07 3.38 23.32 3.54Q23.57 3.71 23.88 3.84Q24.19 3.97 24.50 4.08L24.50 4.08Q24.96 4.26 25.46 4.47Q25.97 4.69 26.39 5.05Q26.82 5.41 27.09 5.94Q27.36 6.48 27.36 7.30L27.36 7.30Q27.36 8.69 26.46 9.45Q25.55 10.21 23.71 10.21L23.71 10.21Q22.48 10.21 21.74 9.94Q21.01 9.68 20.64 9.46L20.64 9.46L21.22 7.86Q21.65 8.11 22.25 8.34Q22.85 8.56 23.71 8.56ZM32.02 8.59L32.02 8.59Q32.34 8.59 32.64 8.58Q32.94 8.58 33.17 8.54L33.17 8.54L33.17 6.82Q32.98 6.78 32.70 6.76Q32.43 6.74 32.21 6.74L32.21 6.74Q31.90 6.74 31.62 6.78Q31.33 6.82 31.11 6.91Q30.90 7.01 30.77 7.18Q30.64 7.36 30.64 7.65L30.64 7.65Q30.64 8.16 31.02 8.38Q31.41 8.59 32.02 8.59ZM31.84 2.29L31.84 2.29Q32.77 2.29 33.38 2.50Q34 2.72 34.37 3.11Q34.74 3.50 34.90 4.07Q35.06 4.64 35.06 5.34L35.06 5.34L35.06 9.82Q34.62 9.92 33.78 10.05Q32.93 10.18 31.87 10.18L31.87 10.18Q31.15 10.18 30.57 10.05Q29.98 9.92 29.57 9.62Q29.15 9.33 28.93 8.86Q28.70 8.38 28.70 7.70L28.70 7.70Q28.70 7.04 28.96 6.59Q29.22 6.14 29.65 5.87Q30.08 5.60 30.64 5.48Q31.20 5.36 31.81 5.36L31.81 5.36Q32.58 5.36 33.17 5.49L33.17 5.49L33.17 5.25Q33.17 4.69 32.82 4.31Q32.46 3.94 31.60 3.94L31.60 3.94Q31.04 3.94 30.52 4.02Q30 4.10 29.68 4.21L29.68 4.21L29.41 2.62Q29.78 2.50 30.45 2.39Q31.12 2.29 31.84 2.29ZM38.53 6L38.53 6Q38.53 6.93 38.86 7.42Q39.20 7.90 39.92 7.90L39.92 7.90Q40.24 7.90 40.52 7.82Q40.80 7.74 41.02 7.62L41.02 7.62L41.02 4Q40.80 3.95 40.62 3.94Q40.45 3.92 40.26 3.92L40.26 3.92Q38.53 3.92 38.53 6ZM43.01 2.72L43.01 9.09Q43.01 10.93 42.12 11.81Q41.23 12.69 39.26 12.69L39.26 12.69Q38.56 12.69 37.91 12.54Q37.26 12.40 36.67 12.21L36.67 12.21L37.04 10.54Q37.50 10.72 38.02 10.87Q38.53 11.02 39.30 11.02L39.30 11.02Q39.81 11.02 40.14 10.90Q40.48 10.78 40.67 10.58Q40.86 10.37 40.94 10.09Q41.02 9.81 41.02 9.49L41.02 9.49L41.02 9.18Q40.61 9.34 40.26 9.42Q39.92 9.50 39.52 9.50L39.52 9.50Q38.05 9.50 37.29 8.58Q36.53 7.65 36.53 6L36.53 6Q36.53 4.14 37.55 3.23Q38.58 2.32 40.34 2.32L40.34 2.32Q41.57 2.32 43.01 2.72L43.01 2.72ZM44.50 6.30L44.50 6.30Q44.50 5.31 44.80 4.56Q45.10 3.81 45.60 3.30Q46.10 2.80 46.74 2.54Q47.38 2.29 48.05 2.29L48.05 2.29Q49.71 2.29 50.58 3.27Q51.44 4.26 51.44 6.14L51.44 6.14Q51.44 6.34 51.43 6.54Q51.42 6.75 51.41 6.88L51.41 6.88L46.53 6.88Q46.53 7.62 47.14 8.04Q47.74 8.46 48.70 8.46L48.70 8.46Q49.30 8.46 49.83 8.34Q50.37 8.21 50.74 8.08L50.74 8.08L51.01 9.76Q50.50 9.94 49.92 10.06Q49.34 10.18 48.62 10.18L48.62 10.18Q47.66 10.18 46.90 9.93Q46.14 9.68 45.61 9.19Q45.07 8.70 44.78 7.98Q44.50 7.26 44.50 6.30ZM46.53 5.52L49.54 5.52Q49.54 5.22 49.46 4.94Q49.38 4.66 49.20 4.43Q49.02 4.21 48.75 4.07Q48.48 3.94 48.08 3.94L48.08 3.94Q47.70 3.94 47.42 4.06Q47.14 4.19 46.95 4.42Q46.77 4.64 46.66 4.93Q46.56 5.22 46.53 5.52L46.53 5.52Z"/>
    </g>
</svg>