<?xml version="1.0" encoding="UTF-8"?>
<svg height="34" width="92.5" version="1.1" xmlns="http://www.w3.org/2000/svg">
    <rect
        height="32"
        width="90.5"
        rx="1"
        ry="1"
        x="1"
        y="1"
        fill="#56b3cb"
        stroke="#205b69"
        stroke-width="1"
         />
    <g transform="translate(0, 14)">
        <path fill="#205b69" d="M22.26-6.33L22.26 5.20Q22.26 6.46 21.94 7.58Q21.62 8.70 20.88 9.54Q20.14 10.38 18.96 10.87Q17.78 11.36 16.10 11.36L16.10 11.36Q14.34 11.36 13.16 10.92Q11.99 10.47 11.18 9.82L11.18 9.82L12.49 7.08Q13.19 7.53 14.05 7.95Q14.90 8.37 15.80 8.37L15.80 8.37Q17.14 8.37 17.97 7.65Q18.79 6.94 18.79 5.01L18.79 5.01L18.79-3.48L13.00-3.48L13.00-6.33L22.26-6.33ZM31.95-5.94L31.95-5.94Q31.95-4.93 31.31-4.34Q30.66-3.76 29.77-3.76L29.77-3.76Q28.87-3.76 28.24-4.34Q27.61-4.93 27.61-5.94L27.61-5.94Q27.61-6.98 28.24-7.56Q28.87-8.15 29.77-8.15L29.77-8.15Q30.66-8.15 31.31-7.56Q31.95-6.98 31.95-5.94ZM36.63 7.67L37.08 10.44Q36.01 10.94 35.07 11.13Q34.14 11.31 33.35 11.31L33.35 11.31Q32.01 11.31 31.10 10.92Q30.19 10.52 29.64 9.78Q29.10 9.04 28.87 7.98Q28.65 6.91 28.65 5.54L28.65 5.54L28.65 0.70L25.01 0.70L25.01-2.16L32.09-2.16L32.09 5.99Q32.09 7.16 32.53 7.74Q32.96 8.31 33.97 8.31L33.97 8.31Q34.44 8.31 35.12 8.19Q35.79 8.06 36.63 7.67L36.63 7.67ZM44.38 8.40L44.38 8.40Q45.64 8.40 46.32 8.21Q46.99 8.03 46.99 7.47L46.99 7.47Q46.99 7.11 46.78 6.86Q46.57 6.60 46.19 6.42Q45.81 6.24 45.32 6.07Q44.83 5.90 44.30 5.74L44.30 5.74Q43.54 5.51 42.76 5.22Q41.98 4.92 41.33 4.48Q40.69 4.03 40.27 3.34Q39.85 2.66 39.85 1.62L39.85 1.62Q39.85 0.78 40.17 0.04Q40.49-0.70 41.18-1.28Q41.86-1.85 42.93-2.17Q43.99-2.50 45.48-2.50L45.48-2.50Q46.76-2.50 47.87-2.30Q48.98-2.10 49.79-1.74L49.79-1.74L49.26 1.17Q48.78 1.03 47.77 0.71Q46.76 0.39 45.50 0.39L45.50 0.39Q44.19 0.39 43.73 0.71Q43.26 1.03 43.26 1.40L43.26 1.40Q43.26 1.70 43.47 1.94Q43.68 2.18 44.03 2.38Q44.38 2.57 44.85 2.75Q45.31 2.94 45.84 3.10L45.84 3.10Q46.60 3.36 47.41 3.66Q48.22 3.97 48.88 4.43Q49.54 4.90 49.96 5.61Q50.38 6.32 50.38 7.36L50.38 7.36Q50.38 8.17 50.07 8.90Q49.76 9.63 49.05 10.16Q48.33 10.69 47.18 11Q46.04 11.31 44.36 11.31L44.36 11.31Q42.65 11.31 41.44 10.92Q40.24 10.52 39.51 10.22L39.51 10.22L40.04 7.33Q41.02 7.72 42.13 8.06Q43.24 8.40 44.38 8.40ZM65.22 4.39L65.22 4.39Q65.22 5.96 64.77 7.23Q64.32 8.51 63.51 9.43Q62.70 10.36 61.56 10.86Q60.43 11.36 59.03 11.36L59.03 11.36Q57.63 11.36 56.49 10.86Q55.36 10.36 54.53 9.43Q53.71 8.51 53.26 7.23Q52.81 5.96 52.81 4.39L52.81 4.39Q52.81 2.85 53.27 1.58Q53.74 0.30 54.56-0.61Q55.39-1.52 56.54-2.01Q57.68-2.50 59.03-2.50L59.03-2.50Q60.40-2.50 61.53-2.01Q62.67-1.52 63.49-0.61Q64.32 0.30 64.77 1.58Q65.22 2.85 65.22 4.39ZM56.31 4.42L56.31 4.42Q56.31 6.18 56.94 7.28Q57.57 8.37 58.97 8.37L58.97 8.37Q60.32 8.37 61.00 7.28Q61.69 6.18 61.69 4.42L61.69 4.42Q61.69 2.66 61.06 1.58Q60.43 0.50 59.03 0.50L59.03 0.50Q57.68 0.50 57.00 1.58Q56.31 2.66 56.31 4.42ZM67.76 11L67.76-1.74Q68.69-1.99 70.05-2.22Q71.40-2.44 73-2.44L73-2.44Q74.57-2.44 75.60-2.01Q76.64-1.57 77.24-0.77Q77.84 0.02 78.10 1.13Q78.35 2.24 78.35 3.58L78.35 3.58L78.35 11L74.90 11L74.90 4.03Q74.90 2.18 74.48 1.37Q74.06 0.56 72.78 0.56L72.78 0.56Q72.38 0.56 72.01 0.58Q71.63 0.61 71.21 0.67L71.21 0.67L71.21 11L67.76 11Z"/>
    </g>
</svg>