<?xml version="1.0" encoding="UTF-8"?>
<svg height="34" width="175.1" version="1.1" xmlns="http://www.w3.org/2000/svg"><!--Created by Josélio de S. C. Júnior - 2021 - https://github.com/joseliojunior -->
    <rect
        height="32"
        width="173.1"
        rx="1"
        ry="1"
        x="1" y="1"
        fill="#FFDDBB"
        stroke="#f07800"
        stroke-width="1" />
    <g transform="translate(0, 12)">
        <path fill="#f07800" stroke="none" d="M24.46 12L21.51 12L21.51-2.86L30.61-2.86L30.61-0.41L24.46-0.41L24.46 3.19L29.84 3.19L29.84 5.64L24.46 5.64L24.46 12ZM42.73 12L33.30 12L33.30 9.55L36.54 9.55L36.54-0.41L33.30-0.41L33.30-2.86L42.73-2.86L42.73-0.41L39.51-0.41L39.51 9.55L42.73 9.55L42.73 12ZM51.49-0.62L51.49-0.62Q50.43-0.62 49.71-0.24Q48.99 0.14 48.52 0.83Q48.06 1.51 47.85 2.46Q47.65 3.41 47.65 4.56L47.65 4.56Q47.65 7.22 48.49 8.48Q49.33 9.74 50.96 9.74L50.96 9.74Q51.22 9.74 51.54 9.72Q51.85 9.70 52.11 9.65L52.11 9.65L52.11 4.22L55.06 4.22L55.06 11.64Q54.54 11.83 53.42 12.07Q52.30 12.31 50.72 12.31L50.72 12.31Q49.33 12.31 48.21 11.82Q47.10 11.33 46.30 10.36Q45.51 9.38 45.08 7.93Q44.65 6.48 44.65 4.56L44.65 4.56Q44.65 2.66 45.15 1.21Q45.66-0.24 46.52-1.22Q47.38-2.21 48.56-2.70Q49.74-3.19 51.08-3.19L51.08-3.19Q51.94-3.19 52.63-3.06Q53.31-2.93 53.82-2.76Q54.32-2.59 54.64-2.40Q54.97-2.21 55.14-2.11L55.14-2.11L54.37 0.24Q53.84-0.10 53.07-0.36Q52.30-0.62 51.49-0.62ZM66.82 9.14L67.21 11.52Q67.14 11.57 66.88 11.69Q66.63 11.81 66.22 11.94Q65.82 12.07 65.23 12.17Q64.64 12.26 63.90 12.26L63.90 12.26Q61.86 12.26 60.92 11.05Q59.98 9.84 59.98 7.51L59.98 7.51L59.98-2.06L56.86-2.06L56.86-4.51L62.94-4.51L62.94 7.73Q62.94 8.88 63.39 9.29Q63.85 9.70 64.54 9.70L64.54 9.70Q65.43 9.70 66.03 9.46Q66.63 9.22 66.82 9.14L66.82 9.14ZM68.74 6.46L68.74 6.46Q68.74 4.97 69.20 3.84Q69.66 2.71 70.40 1.96Q71.14 1.20 72.10 0.82Q73.06 0.43 74.07 0.43L74.07 0.43Q76.57 0.43 77.86 1.91Q79.16 3.38 79.16 6.22L79.16 6.22Q79.16 6.50 79.15 6.82Q79.14 7.13 79.11 7.32L79.11 7.32L71.79 7.32Q71.79 8.42 72.70 9.06Q73.62 9.70 75.06 9.70L75.06 9.70Q75.94 9.70 76.75 9.50Q77.55 9.31 78.10 9.12L78.10 9.12L78.51 11.64Q77.74 11.90 76.88 12.08Q76.02 12.26 74.94 12.26L74.94 12.26Q73.50 12.26 72.36 11.89Q71.22 11.52 70.41 10.79Q69.61 10.06 69.18 8.98Q68.74 7.90 68.74 6.46ZM71.79 5.28L76.30 5.28Q76.30 4.82 76.18 4.40Q76.06 3.98 75.80 3.65Q75.54 3.31 75.13 3.11Q74.72 2.90 74.12 2.90L74.12 2.90Q73.54 2.90 73.12 3.10Q72.70 3.29 72.43 3.62Q72.15 3.96 72.00 4.39Q71.84 4.82 71.79 5.28L71.79 5.28ZM83.43 7.80L83.43 3.17L80.86 3.17L80.86 0.72L83.43 0.72L83.43-2.11L86.38-2.59L86.38 0.72L91.11 0.72L91.11 3.17L86.38 3.17L86.38 7.73Q86.38 8.35 86.50 8.74Q86.62 9.12 86.84 9.34Q87.06 9.55 87.37 9.62Q87.68 9.70 88.06 9.70L88.06 9.70Q88.47 9.70 88.82 9.67Q89.17 9.65 89.49 9.59Q89.82 9.53 90.16 9.41Q90.51 9.29 90.92 9.10L90.92 9.10L91.33 11.64Q90.51 11.98 89.56 12.12Q88.62 12.26 87.73 12.26L87.73 12.26Q86.70 12.26 85.90 12.10Q85.11 11.93 84.56 11.45Q84.01 10.97 83.72 10.09Q83.43 9.22 83.43 7.80L83.43 7.80ZM108.46 12L105.51 12L105.51-2.86L114.61-2.86L114.61-0.41L108.46-0.41L108.46 3.19L113.84 3.19L113.84 5.64L108.46 5.64L108.46 12ZM127.33 6.34L127.33 6.34Q127.33 7.68 126.94 8.77Q126.56 9.86 125.86 10.66Q125.17 11.45 124.20 11.88Q123.22 12.31 122.02 12.31L122.02 12.31Q120.82 12.31 119.85 11.88Q118.88 11.45 118.17 10.66Q117.46 9.86 117.08 8.77Q116.70 7.68 116.70 6.34L116.70 6.34Q116.70 5.02 117.09 3.92Q117.49 2.83 118.20 2.05Q118.90 1.27 119.89 0.85Q120.87 0.43 122.02 0.43L122.02 0.43Q123.20 0.43 124.17 0.85Q125.14 1.27 125.85 2.05Q126.56 2.83 126.94 3.92Q127.33 5.02 127.33 6.34ZM119.70 6.36L119.70 6.36Q119.70 7.87 120.24 8.81Q120.78 9.74 121.98 9.74L121.98 9.74Q123.13 9.74 123.72 8.81Q124.30 7.87 124.30 6.36L124.30 6.36Q124.30 4.85 123.76 3.92Q123.22 3 122.02 3L122.02 3Q120.87 3 120.28 3.92Q119.70 4.85 119.70 6.36ZM129.51 12L129.51 1.08Q130.30 0.86 131.47 0.67Q132.63 0.48 134 0.48L134 0.48Q135.34 0.48 136.23 0.85Q137.12 1.22 137.64 1.91Q138.15 2.59 138.37 3.54Q138.58 4.49 138.58 5.64L138.58 5.64L138.58 12L135.63 12L135.63 6.02Q135.63 4.44 135.27 3.74Q134.91 3.05 133.81 3.05L133.81 3.05Q133.47 3.05 133.15 3.07Q132.82 3.10 132.46 3.14L132.46 3.14L132.46 12L129.51 12ZM143.43 7.80L143.43 3.17L140.86 3.17L140.86 0.72L143.43 0.72L143.43-2.11L146.38-2.59L146.38 0.72L151.11 0.72L151.11 3.17L146.38 3.17L146.38 7.73Q146.38 8.35 146.50 8.74Q146.62 9.12 146.84 9.34Q147.06 9.55 147.37 9.62Q147.68 9.70 148.06 9.70L148.06 9.70Q148.47 9.70 148.82 9.67Q149.17 9.65 149.49 9.59Q149.82 9.53 150.16 9.41Q150.51 9.29 150.92 9.10L150.92 9.10L151.33 11.64Q150.51 11.98 149.56 12.12Q148.62 12.26 147.73 12.26L147.73 12.26Q146.70 12.26 145.90 12.10Q145.11 11.93 144.56 11.45Q144.01 10.97 143.72 10.09Q143.43 9.22 143.43 7.80L143.43 7.80Z"/>
    </g>
</svg>