<?xml version="1.0" encoding="UTF-8"?><svg height="26" width="131.1" version="1.1" xmlns="http://www.w3.org/2000/svg"><!--Created by Josélio de S. C. Júnior - 2021 - https://github.com/joseliojunior --><rect height="24" width="129.1" rx="1" ry="1" x="1" y="1" fill="#FFDDBB" stroke="#f07800" stroke-width="1" /><g transform="translate(0, 8)"><path fill="#f07800" d="M22.98 10L21.01 10L21.01 0.10L27.07 0.10L27.07 1.73L22.98 1.73L22.98 4.13L26.56 4.13L26.56 5.76L22.98 5.76L22.98 10ZM35.15 10L28.86 10L28.86 8.37L31.02 8.37L31.02 1.73L28.86 1.73L28.86 0.10L35.15 0.10L35.15 1.73L33.01 1.73L33.01 8.37L35.15 8.37L35.15 10ZM40.99 1.58L40.99 1.58Q40.29 1.58 39.81 1.84Q39.33 2.10 39.02 2.55Q38.70 3.01 38.57 3.64Q38.43 4.27 38.43 5.04L38.43 5.04Q38.43 6.82 38.99 7.66Q39.55 8.50 40.64 8.50L40.64 8.50Q40.82 8.50 41.02 8.48Q41.23 8.46 41.41 8.43L41.41 8.43L41.41 4.82L43.38 4.82L43.38 9.76Q43.02 9.89 42.28 10.05Q41.54 10.21 40.48 10.21L40.48 10.21Q39.55 10.21 38.81 9.88Q38.06 9.55 37.54 8.90Q37.01 8.26 36.72 7.29Q36.43 6.32 36.43 5.04L36.43 5.04Q36.43 3.78 36.77 2.81Q37.10 1.84 37.68 1.18Q38.26 0.53 39.04 0.20Q39.82-0.13 40.72-0.13L40.72-0.13Q41.30-0.13 41.75-0.04Q42.21 0.05 42.54 0.16Q42.88 0.27 43.10 0.40Q43.31 0.53 43.42 0.59L43.42 0.59L42.91 2.16Q42.56 1.94 42.05 1.76Q41.54 1.58 40.99 1.58ZM51.22 8.10L51.47 9.68Q51.42 9.71 51.26 9.79Q51.09 9.87 50.82 9.96Q50.54 10.05 50.15 10.11Q49.76 10.18 49.26 10.18L49.26 10.18Q47.90 10.18 47.28 9.37Q46.66 8.56 46.66 7.01L46.66 7.01L46.66 0.62L44.58 0.62L44.58-1.01L48.62-1.01L48.62 7.15Q48.62 7.92 48.93 8.19Q49.23 8.46 49.70 8.46L49.70 8.46Q50.29 8.46 50.69 8.30Q51.09 8.14 51.22 8.10L51.22 8.10ZM52.50 6.30L52.50 6.30Q52.50 5.31 52.80 4.56Q53.10 3.81 53.60 3.30Q54.10 2.80 54.74 2.54Q55.38 2.29 56.05 2.29L56.05 2.29Q57.71 2.29 58.58 3.27Q59.44 4.26 59.44 6.14L59.44 6.14Q59.44 6.34 59.43 6.54Q59.42 6.75 59.41 6.88L59.41 6.88L54.53 6.88Q54.53 7.62 55.14 8.04Q55.74 8.46 56.70 8.46L56.70 8.46Q57.30 8.46 57.83 8.34Q58.37 8.21 58.74 8.08L58.74 8.08L59.01 9.76Q58.50 9.94 57.92 10.06Q57.34 10.18 56.62 10.18L56.62 10.18Q55.66 10.18 54.90 9.93Q54.14 9.68 53.61 9.19Q53.07 8.70 52.78 7.98Q52.50 7.26 52.50 6.30ZM54.53 5.52L57.54 5.52Q57.54 5.22 57.46 4.94Q57.38 4.66 57.20 4.43Q57.02 4.21 56.75 4.07Q56.48 3.94 56.08 3.94L56.08 3.94Q55.70 3.94 55.42 4.06Q55.14 4.19 54.95 4.42Q54.77 4.64 54.66 4.93Q54.56 5.22 54.53 5.52L54.53 5.52ZM62.29 7.20L62.29 4.11L60.58 4.11L60.58 2.48L62.29 2.48L62.29 0.59L64.26 0.27L64.26 2.48L67.41 2.48L67.41 4.11L64.26 4.11L64.26 7.15Q64.26 7.57 64.34 7.82Q64.42 8.08 64.56 8.22Q64.70 8.37 64.91 8.42Q65.12 8.46 65.38 8.46L65.38 8.46Q65.65 8.46 65.88 8.45Q66.11 8.43 66.33 8.39Q66.54 8.35 66.78 8.27Q67.01 8.19 67.28 8.06L67.28 8.06L67.55 9.76Q67.01 9.98 66.38 10.08Q65.74 10.18 65.15 10.18L65.15 10.18Q64.46 10.18 63.94 10.06Q63.41 9.95 63.04 9.63Q62.67 9.31 62.48 8.73Q62.29 8.14 62.29 7.20L62.29 7.20ZM78.98 10L77.01 10L77.01 0.10L83.07 0.10L83.07 1.73L78.98 1.73L78.98 4.13L82.56 4.13L82.56 5.76L78.98 5.76L78.98 10ZM91.55 6.22L91.55 6.22Q91.55 7.12 91.30 7.85Q91.04 8.58 90.58 9.10Q90.11 9.63 89.46 9.92Q88.82 10.21 88.02 10.21L88.02 10.21Q87.22 10.21 86.57 9.92Q85.92 9.63 85.45 9.10Q84.98 8.58 84.72 7.85Q84.46 7.12 84.46 6.22L84.46 6.22Q84.46 5.34 84.73 4.62Q84.99 3.89 85.46 3.37Q85.94 2.85 86.59 2.57Q87.25 2.29 88.02 2.29L88.02 2.29Q88.80 2.29 89.45 2.57Q90.10 2.85 90.57 3.37Q91.04 3.89 91.30 4.62Q91.55 5.34 91.55 6.22ZM86.46 6.24L86.46 6.24Q86.46 7.25 86.82 7.87Q87.18 8.50 87.98 8.50L87.98 8.50Q88.75 8.50 89.14 7.87Q89.54 7.25 89.54 6.24L89.54 6.24Q89.54 5.23 89.18 4.62Q88.82 4 88.02 4L88.02 4Q87.25 4 86.86 4.62Q86.46 5.23 86.46 6.24ZM93.01 10L93.01 2.72Q93.54 2.58 94.31 2.45Q95.09 2.32 96 2.32L96 2.32Q96.90 2.32 97.49 2.57Q98.08 2.82 98.42 3.27Q98.77 3.73 98.91 4.36Q99.06 4.99 99.06 5.76L99.06 5.76L99.06 10L97.09 10L97.09 6.02Q97.09 4.96 96.85 4.50Q96.61 4.03 95.87 4.03L95.87 4.03Q95.65 4.03 95.43 4.05Q95.22 4.06 94.98 4.10L94.98 4.10L94.98 10L93.01 10ZM102.29 7.20L102.29 4.11L100.58 4.11L100.58 2.48L102.29 2.48L102.29 0.59L104.26 0.27L104.26 2.48L107.41 2.48L107.41 4.11L104.26 4.11L104.26 7.15Q104.26 7.57 104.34 7.82Q104.42 8.08 104.56 8.22Q104.70 8.37 104.91 8.42Q105.12 8.46 105.38 8.46L105.38 8.46Q105.65 8.46 105.88 8.45Q106.11 8.43 106.33 8.39Q106.54 8.35 106.78 8.27Q107.01 8.19 107.28 8.06L107.28 8.06L107.55 9.76Q107.01 9.98 106.38 10.08Q105.74 10.18 105.15 10.18L105.15 10.18Q104.46 10.18 103.94 10.06Q103.41 9.95 103.04 9.63Q102.67 9.31 102.48 8.73Q102.29 8.14 102.29 7.20L102.29 7.20Z"/></g></svg>