<?xml version="1.0" encoding="UTF-8"?>
<svg height="34" width="177.1" version="1.1" xmlns="http://www.w3.org/2000/svg">
    <rect
        height="32"
        width="175.1"
        rx="1"
        ry="1"
        x="1"
        y="1"
        fill="#FFDDBB"
        stroke="#f07800"
        stroke-width="1"
         />
    <g transform="translate(0, 14)">
        <path fill="#f07800" d="M15.21 11L11.76 11L11.76-6.33L22.38-6.33L22.38-3.48L15.21-3.48L15.21 0.72L21.48 0.72L21.48 3.58L15.21 3.58L15.21 11ZM36.52 11L25.51 11L25.51 8.14L29.29 8.14L29.29-3.48L25.51-3.48L25.51-6.33L36.52-6.33L36.52-3.48L32.76-3.48L32.76 8.14L36.52 8.14L36.52 11ZM46.74-3.73L46.74-3.73Q45.50-3.73 44.66-3.28Q43.82-2.83 43.28-2.03Q42.73-1.24 42.49-0.13Q42.26 0.98 42.26 2.32L42.26 2.32Q42.26 5.43 43.24 6.90Q44.22 8.37 46.12 8.37L46.12 8.37Q46.43 8.37 46.79 8.34Q47.16 8.31 47.46 8.26L47.46 8.26L47.46 1.93L50.91 1.93L50.91 10.58Q50.29 10.80 48.99 11.08Q47.69 11.36 45.84 11.36L45.84 11.36Q44.22 11.36 42.91 10.79Q41.61 10.22 40.69 9.08Q39.76 7.95 39.26 6.25Q38.76 4.56 38.76 2.32L38.76 2.32Q38.76 0.11 39.34-1.59Q39.93-3.28 40.94-4.43Q41.95-5.58 43.32-6.15Q44.69-6.72 46.26-6.72L46.26-6.72Q47.27-6.72 48.07-6.57Q48.86-6.42 49.45-6.22Q50.04-6.02 50.42-5.80Q50.80-5.58 50.99-5.46L50.99-5.46L50.10-2.72Q49.48-3.11 48.58-3.42Q47.69-3.73 46.74-3.73ZM64.63 7.67L65.08 10.44Q64.99 10.50 64.70 10.64Q64.40 10.78 63.93 10.93Q63.45 11.08 62.77 11.20Q62.08 11.31 61.21 11.31L61.21 11.31Q58.83 11.31 57.74 9.89Q56.65 8.48 56.65 5.76L56.65 5.76L56.65-5.41L53.01-5.41L53.01-8.26L60.09-8.26L60.09 6.02Q60.09 7.36 60.62 7.84Q61.16 8.31 61.97 8.31L61.97 8.31Q63.00 8.31 63.70 8.03Q64.40 7.75 64.63 7.67L64.63 7.67ZM66.87 4.53L66.87 4.53Q66.87 2.80 67.40 1.48Q67.93 0.16 68.80-0.72Q69.67-1.60 70.79-2.05Q71.91-2.50 73.08-2.50L73.08-2.50Q76.00-2.50 77.51-0.77Q79.02 0.95 79.02 4.25L79.02 4.25Q79.02 4.59 79.01 4.95Q78.99 5.32 78.96 5.54L78.96 5.54L70.42 5.54Q70.42 6.83 71.49 7.57Q72.55 8.31 74.23 8.31L74.23 8.31Q75.27 8.31 76.21 8.09Q77.14 7.86 77.79 7.64L77.79 7.64L78.26 10.58Q77.37 10.89 76.36 11.10Q75.35 11.31 74.09 11.31L74.09 11.31Q72.41 11.31 71.08 10.87Q69.75 10.44 68.81 9.59Q67.88 8.73 67.37 7.47Q66.87 6.21 66.87 4.53ZM70.42 3.16L75.69 3.16Q75.69 2.63 75.55 2.14Q75.41 1.65 75.10 1.26Q74.79 0.86 74.32 0.63Q73.84 0.39 73.14 0.39L73.14 0.39Q72.47 0.39 71.98 0.61Q71.49 0.84 71.17 1.23Q70.84 1.62 70.66 2.12Q70.48 2.63 70.42 3.16L70.42 3.16ZM84.00 6.10L84.00 0.70L81.01 0.70L81.01-2.16L84.00-2.16L84.00-5.46L87.45-6.02L87.45-2.16L92.96-2.16L92.96 0.70L87.45 0.70L87.45 6.02Q87.45 6.74 87.59 7.19Q87.73 7.64 87.98 7.89Q88.23 8.14 88.60 8.23Q88.96 8.31 89.41 8.31L89.41 8.31Q89.88 8.31 90.29 8.28Q90.70 8.26 91.07 8.19Q91.45 8.12 91.86 7.98Q92.26 7.84 92.74 7.61L92.74 7.61L93.22 10.58Q92.26 10.97 91.16 11.14Q90.05 11.31 89.02 11.31L89.02 11.31Q87.81 11.31 86.89 11.11Q85.96 10.92 85.32 10.36Q84.68 9.80 84.34 8.77Q84.00 7.75 84.00 6.10L84.00 6.10ZM113.21 11L109.76 11L109.76-6.33L120.38-6.33L120.38-3.48L113.21-3.48L113.21 0.72L119.48 0.72L119.48 3.58L113.21 3.58L113.21 11ZM135.22 4.39L135.22 4.39Q135.22 5.96 134.77 7.23Q134.32 8.51 133.51 9.43Q132.70 10.36 131.56 10.86Q130.43 11.36 129.03 11.36L129.03 11.36Q127.63 11.36 126.49 10.86Q125.36 10.36 124.53 9.43Q123.71 8.51 123.26 7.23Q122.81 5.96 122.81 4.39L122.81 4.39Q122.81 2.85 123.27 1.58Q123.74 0.30 124.56-0.61Q125.39-1.52 126.54-2.01Q127.68-2.50 129.03-2.50L129.03-2.50Q130.40-2.50 131.53-2.01Q132.67-1.52 133.49-0.61Q134.32 0.30 134.77 1.58Q135.22 2.85 135.22 4.39ZM126.31 4.42L126.31 4.42Q126.31 6.18 126.94 7.28Q127.57 8.37 128.97 8.37L128.97 8.37Q130.32 8.37 131.00 7.28Q131.69 6.18 131.69 4.42L131.69 4.42Q131.69 2.66 131.06 1.58Q130.43 0.50 129.03 0.50L129.03 0.50Q127.68 0.50 127.00 1.58Q126.31 2.66 126.31 4.42ZM137.76 11L137.76-1.74Q138.69-1.99 140.05-2.22Q141.40-2.44 143-2.44L143-2.44Q144.57-2.44 145.60-2.01Q146.64-1.57 147.24-0.77Q147.84 0.02 148.10 1.13Q148.35 2.24 148.35 3.58L148.35 3.58L148.35 11L144.90 11L144.90 4.03Q144.90 2.18 144.48 1.37Q144.06 0.56 142.78 0.56L142.78 0.56Q142.38 0.56 142.01 0.58Q141.63 0.61 141.21 0.67L141.21 0.67L141.21 11L137.76 11ZM154.00 6.10L154.00 0.70L151.01 0.70L151.01-2.16L154.00-2.16L154.00-5.46L157.45-6.02L157.45-2.16L162.96-2.16L162.96 0.70L157.45 0.70L157.45 6.02Q157.45 6.74 157.59 7.19Q157.73 7.64 157.98 7.89Q158.23 8.14 158.60 8.23Q158.96 8.31 159.41 8.31L159.41 8.31Q159.88 8.31 160.29 8.28Q160.70 8.26 161.07 8.19Q161.45 8.12 161.86 7.98Q162.26 7.84 162.74 7.61L162.74 7.61L163.22 10.58Q162.26 10.97 161.16 11.14Q160.05 11.31 159.02 11.31L159.02 11.31Q157.81 11.31 156.89 11.11Q155.96 10.92 155.32 10.36Q154.68 9.80 154.34 8.77Q154.00 7.75 154.00 6.10L154.00 6.10Z"/>
    </g>
</svg>