<?xml version="1.0" encoding="UTF-8"?>
<svg height="34" width="126.7" version="1.1" xmlns="http://www.w3.org/2000/svg"><!--Created by Josélio de S. C. Júnior - 2021 - https://github.com/joseliojunior -->
    <defs>
        <pattern id="pattern"
                x="1.5" y="3" width="3" height="6"
                patternUnits="userSpaceOnUse"
                patternTransform="rotate(45)" >
            <rect height="6" width="1" fill="#999999"/>
        </pattern>
    </defs>
    <rect
        height="32"
        width="124.7"
        rx="16"
        ry="16"
        x="1" y="1"
        fill="url(#pattern)"
        stroke="#000000"
        stroke-width="1" />
    <g transform="translate(0, 12)">
        <path fill="#ffffff" stroke="#000000" d="M27.10 12.31L27.10 12.31Q23.96 12.31 22.30 10.30Q20.65 8.28 20.65 4.56L20.65 4.56Q20.65 2.71 21.15 1.27Q21.66-0.17 22.56-1.16Q23.46-2.16 24.69-2.68Q25.93-3.19 27.39-3.19L27.39-3.19Q28.18-3.19 28.82-3.06Q29.46-2.93 29.94-2.76Q30.42-2.59 30.74-2.40Q31.06-2.21 31.23-2.11L31.23-2.11L30.46 0.24Q29.91-0.12 29.13-0.37Q28.35-0.62 27.34-0.62L27.34-0.62Q26.65-0.62 25.99-0.37Q25.33-0.12 24.81 0.47Q24.30 1.06 23.97 2.04Q23.65 3.02 23.65 4.49L23.65 4.49Q23.65 7.03 24.52 8.39Q25.40 9.74 27.39 9.74L27.39 9.74Q28.54 9.74 29.30 9.48Q30.06 9.22 30.51 8.95L30.51 8.95L31.26 11.28Q30.63 11.66 29.56 11.99Q28.50 12.31 27.10 12.31ZM40.30 0.72L43.33 0.72Q42.87 2.30 42.45 3.83Q42.03 5.35 41.58 6.80Q41.12 8.26 40.60 9.65Q40.09 11.04 39.49 12.36L39.49 12.36Q39.03 13.32 38.59 14.02Q38.14 14.71 37.60 15.16Q37.06 15.60 36.40 15.82Q35.74 16.03 34.86 16.03L34.86 16.03Q34.11 16.03 33.50 15.91Q32.89 15.79 32.48 15.60L32.48 15.60L33.03 13.13Q33.51 13.34 33.88 13.43Q34.26 13.51 34.69 13.51L34.69 13.51Q35.55 13.51 36.08 12.94Q36.61 12.36 36.92 11.57L36.92 11.57Q35.86 9.46 34.81 6.73Q33.75 4.01 32.89 0.72L32.89 0.72L35.96 0.72Q36.18 1.61 36.45 2.62Q36.73 3.62 37.04 4.63Q37.35 5.64 37.70 6.61Q38.05 7.58 38.41 8.42L38.41 8.42Q38.65 7.58 38.91 6.61Q39.18 5.64 39.42 4.64Q39.66 3.65 39.88 2.64Q40.11 1.63 40.30 0.72L40.30 0.72ZM45.06 6.36L45.06 6.36Q45.06 5.14 45.44 4.06Q45.82 2.98 46.62 2.17Q47.41 1.37 48.62 0.90Q49.83 0.43 51.51 0.43L51.51 0.43Q52.52 0.43 53.34 0.58Q54.15 0.72 54.99 1.06L54.99 1.06L54.34 3.43Q53.86 3.26 53.28 3.13Q52.69 3 51.78 3L51.78 3Q50.72 3 50.01 3.25Q49.30 3.50 48.87 3.95Q48.44 4.39 48.25 5.02Q48.06 5.64 48.06 6.36L48.06 6.36Q48.06 7.92 48.93 8.81Q49.81 9.70 51.92 9.70L51.92 9.70Q52.62 9.70 53.37 9.60Q54.13 9.50 54.75 9.29L54.75 9.29L55.18 11.71Q54.56 11.95 53.67 12.11Q52.78 12.26 51.58 12.26L51.58 12.26Q49.86 12.26 48.62 11.81Q47.38 11.35 46.59 10.56Q45.80 9.77 45.43 8.69Q45.06 7.61 45.06 6.36ZM67.02 0.98L66.49 3.72Q66.20 3.65 65.80 3.58Q65.41 3.50 65 3.44Q64.59 3.38 64.21 3.36Q63.82 3.34 63.56 3.34L63.56 3.34Q62.94 3.34 62.34 3.40Q61.74 3.46 61.11 3.62L61.11 3.62L61.11 12L58.14 12L58.14 1.46Q59.31 1.03 60.55 0.77Q61.78 0.50 63.44 0.50L63.44 0.50Q63.68 0.50 64.12 0.53Q64.57 0.55 65.07 0.61Q65.58 0.67 66.09 0.76Q66.61 0.84 67.02 0.98L67.02 0.98ZM74.82-2.52L74.82-2.52Q74.82-1.66 74.26-1.15Q73.71-0.65 72.94-0.65L72.94-0.65Q72.18-0.65 71.64-1.15Q71.10-1.66 71.10-2.52L71.10-2.52Q71.10-3.41 71.64-3.91Q72.18-4.42 72.94-4.42L72.94-4.42Q73.71-4.42 74.26-3.91Q74.82-3.41 74.82-2.52ZM78.82 9.14L79.21 11.52Q78.30 11.95 77.49 12.11Q76.69 12.26 76.02 12.26L76.02 12.26Q74.86 12.26 74.08 11.93Q73.30 11.59 72.84 10.96Q72.37 10.32 72.18 9.41Q71.98 8.50 71.98 7.32L71.98 7.32L71.98 3.17L68.86 3.17L68.86 0.72L74.94 0.72L74.94 7.70Q74.94 8.71 75.31 9.20Q75.68 9.70 76.54 9.70L76.54 9.70Q76.95 9.70 77.53 9.59Q78.10 9.48 78.82 9.14L78.82 9.14ZM88.26 6.46L88.26 6.46Q88.26 4.94 87.66 3.97Q87.06 3 85.83 3L85.83 3Q85.50 3 85.11 3.04Q84.73 3.07 84.46 3.10L84.46 3.10L84.46 9.29Q84.75 9.48 85.23 9.60Q85.71 9.72 86.19 9.72L86.19 9.72Q87.25 9.72 87.75 8.87Q88.26 8.02 88.26 6.46ZM91.26 6.36L91.26 6.36Q91.26 7.66 90.97 8.75Q90.68 9.84 90.13 10.62Q89.58 11.40 88.74 11.83Q87.90 12.26 86.79 12.26L86.79 12.26Q85.66 12.26 84.46 11.71L84.46 11.71L84.46 15.96L81.51 15.96L81.51 1.08Q82.33 0.82 83.52 0.65Q84.70 0.48 85.86 0.48L85.86 0.48Q88.47 0.48 89.86 2.06Q91.26 3.65 91.26 6.36ZM95.43 7.80L95.43 3.17L92.86 3.17L92.86 0.72L95.43 0.72L95.43-2.11L98.38-2.59L98.38 0.72L103.11 0.72L103.11 3.17L98.38 3.17L98.38 7.73Q98.38 8.35 98.50 8.74Q98.62 9.12 98.84 9.34Q99.06 9.55 99.37 9.62Q99.68 9.70 100.06 9.70L100.06 9.70Q100.47 9.70 100.82 9.67Q101.17 9.65 101.49 9.59Q101.82 9.53 102.16 9.41Q102.51 9.29 102.92 9.10L102.92 9.10L103.33 11.64Q102.51 11.98 101.56 12.12Q100.62 12.26 99.73 12.26L99.73 12.26Q98.70 12.26 97.90 12.10Q97.11 11.93 96.56 11.45Q96.01 10.97 95.72 10.09Q95.43 9.22 95.43 7.80L95.43 7.80Z"/>
    </g>
</svg>