<?xml version="1.0" encoding="UTF-8"?><svg height="26" width="98.7" version="1.1" xmlns="http://www.w3.org/2000/svg"><!--Created by Josélio de S. C. Júnior - 2021 - https://github.com/joseliojunior --><defs><pattern id="pattern" x="3" y="3" width="6" height="6" patternUnits="userSpaceOnUse" patternTransform="rotate(45)"><rect height="6" width="6" fill="#ffffff"/><line x1="0" y1="0" x2="0" y2="6" stroke="#bbbbbb" stroke-width="2" /></pattern></defs><rect height="24" width="96.7" rx="1" ry="1" x="1" y="1" fill="url(#pattern)" /><g transform="translate(0, 8)"><path fill="#000000" d="M24.74 10.21L24.74 10.21Q22.64 10.21 21.54 8.86Q20.43 7.52 20.43 5.04L20.43 5.04Q20.43 3.81 20.77 2.85Q21.10 1.89 21.70 1.22Q22.30 0.56 23.13 0.22Q23.95-0.13 24.93-0.13L24.93-0.13Q25.46-0.13 25.88-0.04Q26.30 0.05 26.62 0.16Q26.94 0.27 27.16 0.40Q27.38 0.53 27.49 0.59L27.49 0.59L26.98 2.16Q26.61 1.92 26.09 1.75Q25.57 1.58 24.90 1.58L24.90 1.58Q24.43 1.58 23.99 1.75Q23.55 1.92 23.21 2.31Q22.86 2.70 22.65 3.36Q22.43 4.02 22.43 4.99L22.43 4.99Q22.43 6.69 23.02 7.59Q23.60 8.50 24.93 8.50L24.93 8.50Q25.70 8.50 26.20 8.32Q26.70 8.14 27.01 7.97L27.01 7.97L27.50 9.52Q27.09 9.78 26.38 9.99Q25.66 10.21 24.74 10.21ZM33.54 2.48L35.55 2.48Q35.25 3.54 34.97 4.55Q34.69 5.57 34.38 6.54Q34.08 7.50 33.74 8.43Q33.39 9.36 32.99 10.24L32.99 10.24Q32.69 10.88 32.39 11.34Q32.10 11.81 31.74 12.10Q31.38 12.40 30.94 12.54Q30.50 12.69 29.90 12.69L29.90 12.69Q29.41 12.69 29 12.61Q28.59 12.53 28.32 12.40L28.32 12.40L28.69 10.75Q29.01 10.90 29.26 10.95Q29.50 11.01 29.79 11.01L29.79 11.01Q30.37 11.01 30.72 10.62Q31.07 10.24 31.28 9.71L31.28 9.71Q30.58 8.30 29.87 6.49Q29.17 4.67 28.59 2.48L28.59 2.48L30.64 2.48Q30.78 3.07 30.97 3.74Q31.15 4.42 31.36 5.09Q31.57 5.76 31.80 6.41Q32.03 7.06 32.27 7.62L32.27 7.62Q32.43 7.06 32.61 6.41Q32.78 5.76 32.94 5.10Q33.10 4.43 33.26 3.76Q33.41 3.09 33.54 2.48L33.54 2.48ZM36.70 6.24L36.70 6.24Q36.70 5.42 36.96 4.70Q37.22 3.98 37.74 3.45Q38.27 2.91 39.08 2.60Q39.89 2.29 41.01 2.29L41.01 2.29Q41.68 2.29 42.22 2.38Q42.77 2.48 43.33 2.70L43.33 2.70L42.90 4.29Q42.58 4.18 42.18 4.09Q41.79 4 41.18 4L41.18 4Q40.48 4 40.01 4.17Q39.54 4.34 39.25 4.63Q38.96 4.93 38.83 5.34Q38.70 5.76 38.70 6.24L38.70 6.24Q38.70 7.28 39.29 7.87Q39.87 8.46 41.28 8.46L41.28 8.46Q41.74 8.46 42.25 8.40Q42.75 8.34 43.17 8.19L43.17 8.19L43.46 9.81Q43.04 9.97 42.45 10.07Q41.86 10.18 41.06 10.18L41.06 10.18Q39.90 10.18 39.08 9.87Q38.26 9.57 37.73 9.04Q37.20 8.51 36.95 7.79Q36.70 7.07 36.70 6.24ZM51.34 2.66L50.99 4.48Q50.80 4.43 50.54 4.38Q50.27 4.34 50 4.30Q49.73 4.26 49.47 4.24Q49.22 4.22 49.04 4.22L49.04 4.22Q48.62 4.22 48.22 4.26Q47.82 4.30 47.41 4.42L47.41 4.42L47.41 10L45.42 10L45.42 2.98Q46.21 2.69 47.03 2.51Q47.86 2.34 48.96 2.34L48.96 2.34Q49.12 2.34 49.42 2.35Q49.71 2.37 50.05 2.41Q50.38 2.45 50.73 2.50Q51.07 2.56 51.34 2.66L51.34 2.66ZM56.54 0.32L56.54 0.32Q56.54 0.90 56.18 1.23Q55.81 1.57 55.30 1.57L55.30 1.57Q54.78 1.57 54.42 1.23Q54.06 0.90 54.06 0.32L54.06 0.32Q54.06-0.27 54.42-0.61Q54.78-0.94 55.30-0.94L55.30-0.94Q55.81-0.94 56.18-0.61Q56.54-0.27 56.54 0.32ZM59.22 8.10L59.47 9.68Q58.86 9.97 58.33 10.07Q57.79 10.18 57.34 10.18L57.34 10.18Q56.58 10.18 56.06 9.95Q55.54 9.73 55.22 9.30Q54.91 8.88 54.78 8.27Q54.66 7.66 54.66 6.88L54.66 6.88L54.66 4.11L52.58 4.11L52.58 2.48L56.62 2.48L56.62 7.14Q56.62 7.81 56.87 8.14Q57.12 8.46 57.70 8.46L57.70 8.46Q57.97 8.46 58.35 8.39Q58.74 8.32 59.22 8.10L59.22 8.10ZM65.50 6.30L65.50 6.30Q65.50 5.30 65.10 4.65Q64.70 4 63.89 4L63.89 4Q63.66 4 63.41 4.02Q63.15 4.05 62.98 4.06L62.98 4.06L62.98 8.19Q63.17 8.32 63.49 8.40Q63.81 8.48 64.13 8.48L64.13 8.48Q64.83 8.48 65.17 7.91Q65.50 7.34 65.50 6.30ZM67.50 6.24L67.50 6.24Q67.50 7.10 67.31 7.83Q67.12 8.56 66.75 9.08Q66.38 9.60 65.82 9.89Q65.26 10.18 64.53 10.18L64.53 10.18Q63.78 10.18 62.98 9.81L62.98 9.81L62.98 12.64L61.01 12.64L61.01 2.72Q61.55 2.54 62.34 2.43Q63.14 2.32 63.90 2.32L63.90 2.32Q65.65 2.32 66.58 3.38Q67.50 4.43 67.50 6.24ZM70.29 7.20L70.29 4.11L68.58 4.11L68.58 2.48L70.29 2.48L70.29 0.59L72.26 0.27L72.26 2.48L75.41 2.48L75.41 4.11L72.26 4.11L72.26 7.15Q72.26 7.57 72.34 7.82Q72.42 8.08 72.56 8.22Q72.70 8.37 72.91 8.42Q73.12 8.46 73.38 8.46L73.38 8.46Q73.65 8.46 73.88 8.45Q74.11 8.43 74.33 8.39Q74.54 8.35 74.78 8.27Q75.01 8.19 75.28 8.06L75.28 8.06L75.55 9.76Q75.01 9.98 74.38 10.08Q73.74 10.18 73.15 10.18L73.15 10.18Q72.46 10.18 71.94 10.06Q71.41 9.95 71.04 9.63Q70.67 9.31 70.48 8.73Q70.29 8.14 70.29 7.20L70.29 7.20Z"/></g></svg>