<?xml version="1.0" encoding="UTF-8"?>
<svg height="34" width="106.6" version="1.1" xmlns="http://www.w3.org/2000/svg">
    <rect
        height="32"
        width="104.6"
        rx="14"
        ry="14"
        x="1"
        y="1"
        fill="#a23738"
        stroke="#311111"
        stroke-width="1"
         />
    <g transform="translate(0, 14)">
        <path fill="#311111" d="M15.77-0.20L18.29-0.20Q18.40 0.33 18.62 1.12Q18.85 1.90 19.11 2.85Q19.38 3.80 19.70 4.90Q20.02 5.99 20.33 7.14L20.33 7.14Q20.33 5.68 20.30 4.01Q20.28 2.35 20.25 0.61Q20.22-1.12 20.19-2.90Q20.16-4.68 20.16-6.33L20.16-6.33L23.36-6.33Q23.27-4.20 23.19-1.95Q23.10 0.30 22.99 2.53Q22.88 4.76 22.73 6.91Q22.57 9.07 22.38 11L22.38 11L19.52 11Q18.90 9.24 18.29 7.21Q17.67 5.18 17.06 3.33L17.06 3.33Q16.44 5.09 15.77 7.16Q15.10 9.24 14.54 11L14.54 11L11.68 11Q11.46 9.07 11.29 6.90Q11.12 4.73 10.99 2.50Q10.87 0.28 10.78-1.98Q10.70-4.23 10.64-6.33L10.64-6.33L13.84-6.33Q13.81-4.68 13.78-2.92Q13.75-1.15 13.72 0.60Q13.70 2.35 13.67 4.01Q13.64 5.68 13.64 7.14L13.64 7.14Q13.89 6.24 14.21 5.18Q14.54 4.11 14.83 3.08Q15.12 2.04 15.38 1.17Q15.63 0.30 15.77-0.20L15.77-0.20ZM37.22 4.39L37.22 4.39Q37.22 5.96 36.77 7.23Q36.32 8.51 35.51 9.43Q34.70 10.36 33.56 10.86Q32.43 11.36 31.03 11.36L31.03 11.36Q29.63 11.36 28.49 10.86Q27.36 10.36 26.53 9.43Q25.71 8.51 25.26 7.23Q24.81 5.96 24.81 4.39L24.81 4.39Q24.81 2.85 25.27 1.58Q25.74 0.30 26.56-0.61Q27.39-1.52 28.54-2.01Q29.68-2.50 31.03-2.50L31.03-2.50Q32.40-2.50 33.53-2.01Q34.67-1.52 35.49-0.61Q36.32 0.30 36.77 1.58Q37.22 2.85 37.22 4.39ZM28.31 4.42L28.31 4.42Q28.31 6.18 28.94 7.28Q29.57 8.37 30.97 8.37L30.97 8.37Q32.32 8.37 33.00 7.28Q33.69 6.18 33.69 4.42L33.69 4.42Q33.69 2.66 33.06 1.58Q32.43 0.50 31.03 0.50L31.03 0.50Q29.68 0.50 29.00 1.58Q28.31 2.66 28.31 4.42ZM50.63 7.67L51.08 10.44Q50.99 10.50 50.70 10.64Q50.40 10.78 49.93 10.93Q49.45 11.08 48.77 11.20Q48.08 11.31 47.21 11.31L47.21 11.31Q44.83 11.31 43.74 9.89Q42.65 8.48 42.65 5.76L42.65 5.76L42.65-5.41L39.01-5.41L39.01-8.26L46.09-8.26L46.09 6.02Q46.09 7.36 46.62 7.84Q47.16 8.31 47.97 8.31L47.97 8.31Q49.00 8.31 49.70 8.03Q50.40 7.75 50.63 7.67L50.63 7.67ZM64.63 7.67L65.08 10.44Q64.99 10.50 64.70 10.64Q64.40 10.78 63.93 10.93Q63.45 11.08 62.77 11.20Q62.08 11.31 61.21 11.31L61.21 11.31Q58.83 11.31 57.74 9.89Q56.65 8.48 56.65 5.76L56.65 5.76L56.65-5.41L53.01-5.41L53.01-8.26L60.09-8.26L60.09 6.02Q60.09 7.36 60.62 7.84Q61.16 8.31 61.97 8.31L61.97 8.31Q63.00 8.31 63.70 8.03Q64.40 7.75 64.63 7.67L64.63 7.67ZM79.22 4.39L79.22 4.39Q79.22 5.96 78.77 7.23Q78.32 8.51 77.51 9.43Q76.70 10.36 75.56 10.86Q74.43 11.36 73.03 11.36L73.03 11.36Q71.63 11.36 70.49 10.86Q69.36 10.36 68.53 9.43Q67.71 8.51 67.26 7.23Q66.81 5.96 66.81 4.39L66.81 4.39Q66.81 2.85 67.27 1.58Q67.74 0.30 68.56-0.61Q69.39-1.52 70.54-2.01Q71.68-2.50 73.03-2.50L73.03-2.50Q74.40-2.50 75.53-2.01Q76.67-1.52 77.49-0.61Q78.32 0.30 78.77 1.58Q79.22 2.85 79.22 4.39ZM70.31 4.42L70.31 4.42Q70.31 6.18 70.94 7.28Q71.57 8.37 72.97 8.37L72.97 8.37Q74.32 8.37 75.00 7.28Q75.69 6.18 75.69 4.42L75.69 4.42Q75.69 2.66 75.06 1.58Q74.43 0.50 73.03 0.50L73.03 0.50Q71.68 0.50 71.00 1.58Q70.31 2.66 70.31 4.42ZM85.24-8.43L85.24 3.05Q85.74 2.46 86.26 1.80Q86.78 1.14 87.27 0.44Q87.76-0.26 88.20-0.91Q88.65-1.57 88.99-2.16L88.99-2.16L93.13-2.16Q92.63-1.52 91.98-0.76Q91.34-0.00 90.65 0.78Q89.97 1.56 89.28 2.29Q88.60 3.02 88.04 3.64L88.04 3.64Q88.74 4.31 89.55 5.25Q90.36 6.18 91.14 7.19Q91.93 8.20 92.59 9.21Q93.24 10.22 93.64 11L93.64 11L89.69 11Q89.35 10.30 88.81 9.42Q88.26 8.54 87.64 7.68Q87.03 6.83 86.40 6.06Q85.77 5.29 85.24 4.78L85.24 4.78L85.24 11L81.76 11L81.76-7.84L85.24-8.43Z"/>
    </g>
</svg>