<?xml version="1.0" encoding="UTF-8"?>
<svg height="26" width="66.3" version="1.1" xmlns="http://www.w3.org/2000/svg"><!--Created by Josélio de S. C. Júnior - 2021 - https://github.com/joseliojunior -->
    <rect
        height="24"
        width="64.3"
        rx="12"
        ry="12"
        x="1" y="1"
        fill="#cc0000"
        stroke="#330000"
        stroke-width="1" />
    <g transform="translate(0, 8)">
        <path fill="#330000" d="M23.58-0.02L23.58-0.02Q25.47-0.02 26.51 0.76Q27.55 1.54 27.55 3.30L27.55 3.30Q27.55 5.07 26.50 5.86Q25.46 6.66 23.54 6.66L23.54 6.66L22.83 6.66L22.83 10L20.86 10L20.86 0.22Q21.15 0.16 21.51 0.11Q21.87 0.06 22.24 0.04Q22.61 0.02 22.96 0Q23.31-0.02 23.58-0.02ZM23.81 1.70L23.81 1.70Q23.63 1.70 23.32 1.70Q23.01 1.71 22.83 1.74L22.83 1.74L22.83 4.94L23.63 4.94Q24.58 4.94 25.06 4.57Q25.54 4.19 25.54 3.28L25.54 3.28Q25.54 2.42 25.06 2.06Q24.59 1.70 23.81 1.70ZM32.02 8.59L32.02 8.59Q32.34 8.59 32.64 8.58Q32.94 8.58 33.17 8.54L33.17 8.54L33.17 6.82Q32.98 6.78 32.70 6.76Q32.43 6.74 32.21 6.74L32.21 6.74Q31.90 6.74 31.62 6.78Q31.33 6.82 31.11 6.91Q30.90 7.01 30.77 7.18Q30.64 7.36 30.64 7.65L30.64 7.65Q30.64 8.16 31.02 8.38Q31.41 8.59 32.02 8.59ZM31.84 2.29L31.84 2.29Q32.77 2.29 33.38 2.50Q34 2.72 34.37 3.11Q34.74 3.50 34.90 4.07Q35.06 4.64 35.06 5.34L35.06 5.34L35.06 9.82Q34.62 9.92 33.78 10.05Q32.93 10.18 31.87 10.18L31.87 10.18Q31.15 10.18 30.57 10.05Q29.98 9.92 29.57 9.62Q29.15 9.33 28.93 8.86Q28.70 8.38 28.70 7.70L28.70 7.70Q28.70 7.04 28.96 6.59Q29.22 6.14 29.65 5.87Q30.08 5.60 30.64 5.48Q31.20 5.36 31.81 5.36L31.81 5.36Q32.58 5.36 33.17 5.49L33.17 5.49L33.17 5.25Q33.17 4.69 32.82 4.31Q32.46 3.94 31.60 3.94L31.60 3.94Q31.04 3.94 30.52 4.02Q30 4.10 29.68 4.21L29.68 4.21L29.41 2.62Q29.78 2.50 30.45 2.39Q31.12 2.29 31.84 2.29ZM37.01 10L37.01 2.72Q37.54 2.58 38.31 2.45Q39.09 2.32 40 2.32L40 2.32Q40.90 2.32 41.49 2.57Q42.08 2.82 42.42 3.27Q42.77 3.73 42.91 4.36Q43.06 4.99 43.06 5.76L43.06 5.76L43.06 10L41.09 10L41.09 6.02Q41.09 4.96 40.85 4.50Q40.61 4.03 39.87 4.03L39.87 4.03Q39.65 4.03 39.43 4.05Q39.22 4.06 38.98 4.10L38.98 4.10L38.98 10L37.01 10Z"/>
    </g>
</svg>