<?xml version="1.0" encoding="UTF-8"?><svg height="26" width="66.3" version="1.1" xmlns="http://www.w3.org/2000/svg"><!--Created by Josélio de S. C. Júnior - 2021 - https://github.com/joseliojunior --><defs><pattern id="pattern" x="3" y="3" width="6" height="6" patternUnits="userSpaceOnUse" patternTransform="rotate(45)"><rect height="6" width="6" fill="#ffffff"/><line x1="0" y1="0" x2="0" y2="6" stroke="#bbbbbb" stroke-width="2" /></pattern></defs><rect height="24" width="64.3" rx="12" ry="12" x="1" y="1" fill="url(#pattern)" /><g transform="translate(0, 8)"><path fill="#000000" d="M24.99 1.58L24.99 1.58Q24.29 1.58 23.81 1.84Q23.33 2.10 23.02 2.55Q22.70 3.01 22.57 3.64Q22.43 4.27 22.43 5.04L22.43 5.04Q22.43 6.82 22.99 7.66Q23.55 8.50 24.64 8.50L24.64 8.50Q24.82 8.50 25.02 8.48Q25.23 8.46 25.41 8.43L25.41 8.43L25.41 4.82L27.38 4.82L27.38 9.76Q27.02 9.89 26.28 10.05Q25.54 10.21 24.48 10.21L24.48 10.21Q23.55 10.21 22.81 9.88Q22.06 9.55 21.54 8.90Q21.01 8.26 20.72 7.29Q20.43 6.32 20.43 5.04L20.43 5.04Q20.43 3.78 20.77 2.81Q21.10 1.84 21.68 1.18Q22.26 0.53 23.04 0.20Q23.82-0.13 24.72-0.13L24.72-0.13Q25.30-0.13 25.75-0.04Q26.21 0.05 26.54 0.16Q26.88 0.27 27.10 0.40Q27.31 0.53 27.42 0.59L27.42 0.59L26.91 2.16Q26.56 1.94 26.05 1.76Q25.54 1.58 24.99 1.58ZM30.83 1.74L30.83 8.40Q30.91 8.42 31.01 8.42Q31.10 8.42 31.18 8.42L31.18 8.42Q31.86 8.42 32.31 8.16Q32.77 7.90 33.05 7.46Q33.33 7.01 33.45 6.39Q33.57 5.78 33.57 5.04L33.57 5.04Q33.57 4.40 33.47 3.79Q33.38 3.18 33.14 2.72Q32.90 2.26 32.48 1.98Q32.06 1.70 31.41 1.70L31.41 1.70Q31.28 1.70 31.12 1.70Q30.96 1.71 30.83 1.74L30.83 1.74ZM35.57 5.04L35.57 5.04Q35.57 6.42 35.22 7.38Q34.88 8.35 34.27 8.96Q33.66 9.57 32.82 9.85Q31.98 10.13 30.98 10.13L30.98 10.13Q30.45 10.13 29.94 10.07Q29.44 10.02 28.86 9.89L28.86 9.89L28.86 0.22Q29.54 0.08 30.13 0.03Q30.72-0.02 31.23-0.02L31.23-0.02Q32.21-0.02 33.02 0.27Q33.82 0.56 34.38 1.18Q34.94 1.79 35.26 2.74Q35.57 3.70 35.57 5.04ZM43.50 7.01L43.50 7.01Q43.50 7.90 43.20 8.50Q42.90 9.10 42.38 9.46Q41.86 9.82 41.14 9.98Q40.43 10.13 39.62 10.13L39.62 10.13Q38.96 10.13 38.26 10.06Q37.55 9.98 36.86 9.84L36.86 9.84L36.86 0.22Q37.42 0.13 38.10 0.06Q38.77-0.02 39.42-0.02L39.42-0.02Q40.54-0.02 41.25 0.22Q41.95 0.45 42.35 0.82Q42.75 1.20 42.90 1.66Q43.04 2.13 43.04 2.59L43.04 2.59Q43.04 3.30 42.70 3.84Q42.35 4.38 41.78 4.70L41.78 4.70Q42.78 5.07 43.14 5.70Q43.50 6.32 43.50 7.01ZM39.89 5.66L38.83 5.66L38.83 8.35Q39.04 8.38 39.29 8.40Q39.54 8.42 39.78 8.42L39.78 8.42Q40.11 8.42 40.43 8.36Q40.75 8.30 41 8.15Q41.25 8 41.41 7.72Q41.57 7.44 41.57 7.01L41.57 7.01Q41.57 6.29 41.11 5.98Q40.66 5.66 39.89 5.66L39.89 5.66ZM38.83 4.03L39.60 4.03Q40.35 4.03 40.74 3.70Q41.12 3.38 41.12 2.80L41.12 2.80Q41.12 2.45 41.01 2.23Q40.90 2.02 40.70 1.90Q40.51 1.78 40.26 1.74Q40 1.70 39.73 1.70L39.73 1.70Q39.50 1.70 39.26 1.71Q39.02 1.73 38.83 1.76L38.83 1.76L38.83 4.03Z"/></g></svg>