<?xml version="1.0" encoding="UTF-8"?>
<svg height="322" width="78.3" version="1.1" xmlns="http://www.w3.org/2000/svg"><!--Created by Josélio de S. C. Júnior - 2021 - https://github.com/joseliojunior -->
    <defs>
        <pattern id="pattern"
                x="1.5" y="3" width="3" height="6"
                patternUnits="userSpaceOnUse"
                patternTransform="rotate(45)" >
            <rect height="6" width="1" fill="#999999"/>
        </pattern>
    </defs>
    <rect
        height="32"
        width="76.3"
        rx="16"
        ry="16"
        x="1" y="1"
        fill="url(#pattern)"
        stroke="#000000"
        stroke-width="1" />
    <g transform="translate(0, 12)">
        <path fill="#ffffff" stroke="#000000" d="M27.49-0.62L27.49-0.62Q26.43-0.62 25.71-0.24Q24.99 0.14 24.52 0.83Q24.06 1.51 23.85 2.46Q23.65 3.41 23.65 4.56L23.65 4.56Q23.65 7.22 24.49 8.48Q25.33 9.74 26.96 9.74L26.96 9.74Q27.22 9.74 27.54 9.72Q27.85 9.70 28.11 9.65L28.11 9.65L28.11 4.22L31.06 4.22L31.06 11.64Q30.54 11.83 29.42 12.07Q28.30 12.31 26.72 12.31L26.72 12.31Q25.33 12.31 24.21 11.82Q23.10 11.33 22.30 10.36Q21.51 9.38 21.08 7.93Q20.65 6.48 20.65 4.56L20.65 4.56Q20.65 2.66 21.15 1.21Q21.66-0.24 22.52-1.22Q23.38-2.21 24.56-2.70Q25.74-3.19 27.08-3.19L27.08-3.19Q27.94-3.19 28.63-3.06Q29.31-2.93 29.82-2.76Q30.32-2.59 30.64-2.40Q30.97-2.21 31.14-2.11L31.14-2.11L30.37 0.24Q29.84-0.10 29.07-0.36Q28.30-0.62 27.49-0.62ZM36.25-0.38L36.25 9.60Q36.37 9.62 36.51 9.62Q36.66 9.62 36.78 9.62L36.78 9.62Q37.78 9.62 38.47 9.24Q39.15 8.86 39.57 8.18Q39.99 7.51 40.17 6.59Q40.35 5.66 40.35 4.56L40.35 4.56Q40.35 3.60 40.21 2.69Q40.06 1.78 39.70 1.08Q39.34 0.38 38.72-0.04Q38.10-0.46 37.11-0.46L37.11-0.46Q36.92-0.46 36.68-0.44Q36.44-0.43 36.25-0.38L36.25-0.38ZM43.35 4.56L43.35 4.56Q43.35 6.62 42.84 8.08Q42.32 9.53 41.41 10.44Q40.50 11.35 39.24 11.77Q37.98 12.19 36.46 12.19L36.46 12.19Q35.67 12.19 34.92 12.11Q34.16 12.02 33.30 11.83L33.30 11.83L33.30-2.66Q34.30-2.88 35.19-2.95Q36.08-3.02 36.85-3.02L36.85-3.02Q38.31-3.02 39.52-2.59Q40.74-2.16 41.58-1.24Q42.42-0.31 42.88 1.12Q43.35 2.54 43.35 4.56ZM55.26 7.51L55.26 7.51Q55.26 8.86 54.80 9.76Q54.34 10.66 53.56 11.20Q52.78 11.74 51.72 11.96Q50.65 12.19 49.42 12.19L49.42 12.19Q48.44 12.19 47.38 12.08Q46.33 11.98 45.30 11.76L45.30 11.76L45.30-2.66Q46.14-2.81 47.14-2.92Q48.15-3.02 49.14-3.02L49.14-3.02Q50.82-3.02 51.87-2.68Q52.93-2.33 53.53-1.76Q54.13-1.20 54.34-0.50Q54.56 0.19 54.56 0.89L54.56 0.89Q54.56 1.94 54.04 2.76Q53.53 3.58 52.66 4.06L52.66 4.06Q54.18 4.61 54.72 5.54Q55.26 6.48 55.26 7.51ZM49.83 5.50L48.25 5.50L48.25 9.53Q48.56 9.58 48.93 9.60Q49.30 9.62 49.66 9.62L49.66 9.62Q50.17 9.62 50.65 9.54Q51.13 9.46 51.50 9.23Q51.87 9 52.11 8.58Q52.35 8.16 52.35 7.51L52.35 7.51Q52.35 6.43 51.67 5.96Q50.98 5.50 49.83 5.50L49.83 5.50ZM48.25 3.05L49.40 3.05Q50.53 3.05 51.10 2.56Q51.68 2.06 51.68 1.20L51.68 1.20Q51.68 0.67 51.51 0.35Q51.34 0.02 51.06-0.16Q50.77-0.34 50.38-0.40Q50-0.46 49.59-0.46L49.59-0.46Q49.26-0.46 48.90-0.43Q48.54-0.41 48.25-0.36L48.25-0.36L48.25 3.05Z"/>
    </g>
</svg>