<?xml version="1.0" encoding="UTF-8"?>
<svg height="26" width="131.1" version="1.1" xmlns="http://www.w3.org/2000/svg"><!--Created by Josélio de S. C. Júnior - 2021 - https://github.com/joseliojunior -->
    <rect
        height="24"
        width="129.1"
        rx="12"
        ry="12"
        x="1" y="1"
        fill="#9e0101"
        stroke="#fe3939"
        stroke-width="1" />
    <g transform="translate(0, 8)">
        <path fill="#fe3939" stroke="none" d="M23.71 8.56L23.71 8.56Q24.21 8.56 24.54 8.46Q24.86 8.35 25.06 8.17Q25.25 7.98 25.32 7.75Q25.39 7.52 25.39 7.28L25.39 7.28Q25.39 6.98 25.22 6.74Q25.04 6.50 24.77 6.31Q24.50 6.13 24.16 5.98Q23.82 5.82 23.49 5.70L23.49 5.70Q23.04 5.54 22.56 5.33Q22.08 5.12 21.69 4.80Q21.30 4.48 21.04 4.01Q20.78 3.54 20.78 2.83L20.78 2.83Q20.78 1.44 21.69 0.66Q22.59-0.13 24.18-0.13L24.18-0.13Q25.09-0.13 25.77 0.08Q26.45 0.29 26.91 0.54L26.91 0.54L26.34 2.06Q25.94 1.84 25.45 1.68Q24.96 1.52 24.32 1.52L24.32 1.52Q22.75 1.52 22.75 2.66L22.75 2.66Q22.75 2.94 22.91 3.16Q23.07 3.38 23.32 3.54Q23.57 3.71 23.88 3.84Q24.19 3.97 24.50 4.08L24.50 4.08Q24.96 4.26 25.46 4.47Q25.97 4.69 26.39 5.05Q26.82 5.41 27.09 5.94Q27.36 6.48 27.36 7.30L27.36 7.30Q27.36 8.69 26.46 9.45Q25.55 10.21 23.71 10.21L23.71 10.21Q22.48 10.21 21.74 9.94Q21.01 9.68 20.64 9.46L20.64 9.46L21.22 7.86Q21.65 8.11 22.25 8.34Q22.85 8.56 23.71 8.56ZM35.01 2.48L35.01 9.74Q34.46 9.89 33.69 10.03Q32.91 10.18 32 10.18L32 10.18Q31.07 10.18 30.48 9.92Q29.89 9.66 29.54 9.19Q29.20 8.72 29.07 8.08Q28.94 7.44 28.94 6.67L28.94 6.67L28.94 2.48L30.91 2.48L30.91 6.42Q30.91 7.46 31.16 7.96Q31.41 8.46 32.13 8.46L32.13 8.46Q32.58 8.46 33.02 8.38L33.02 8.38L33.02 2.48L35.01 2.48ZM41.52 6.19L41.52 6.19Q41.52 5.14 41.18 4.58Q40.83 4.02 40.13 4.02L40.13 4.02Q39.81 4.02 39.50 4.10Q39.18 4.19 38.96 4.32L38.96 4.32L38.96 8.40Q39.18 8.45 39.43 8.46Q39.68 8.48 39.86 8.48L39.86 8.48Q40.62 8.48 41.07 7.96Q41.52 7.44 41.52 6.19ZM43.52 6.24L43.52 6.24Q43.52 7.14 43.28 7.86Q43.04 8.59 42.58 9.10Q42.11 9.62 41.44 9.90Q40.77 10.18 39.90 10.18L39.90 10.18Q39.14 10.18 38.34 10.06Q37.54 9.95 36.99 9.78L36.99 9.78L36.99-0.77L38.96-1.10L38.96 2.66Q39.38 2.46 39.76 2.39Q40.14 2.32 40.53 2.32L40.53 2.32Q41.26 2.32 41.82 2.60Q42.38 2.88 42.76 3.40Q43.14 3.92 43.33 4.64Q43.52 5.36 43.52 6.24ZM47.42-0.02L47.42-0.02Q48.27-0.02 48.96 0.18Q49.65 0.37 50.14 0.77Q50.64 1.17 50.90 1.78Q51.17 2.40 51.17 3.23L51.17 3.23Q51.17 4.10 50.82 4.80Q50.46 5.50 49.65 5.87L49.65 5.87Q49.92 6.29 50.22 6.79Q50.53 7.30 50.82 7.85Q51.10 8.40 51.37 8.95Q51.63 9.50 51.82 10L51.82 10L49.76 10Q49.39 9.04 48.90 8.15Q48.42 7.26 47.86 6.35L47.86 6.35L46.83 6.35L46.83 10L44.86 10L44.86 0.24Q45.15 0.18 45.50 0.12Q45.84 0.06 46.19 0.04Q46.54 0.02 46.86 0Q47.18-0.02 47.42-0.02ZM49.17 3.22L49.17 3.22Q49.17 2.43 48.69 2.06Q48.21 1.70 47.42 1.70L47.42 1.70Q47.31 1.70 47.15 1.70Q46.99 1.71 46.83 1.74L46.83 1.74L46.83 4.72L47.26 4.72Q48.27 4.72 48.72 4.33Q49.17 3.94 49.17 3.22ZM56.54 0.32L56.54 0.32Q56.54 0.90 56.18 1.23Q55.81 1.57 55.30 1.57L55.30 1.57Q54.78 1.57 54.42 1.23Q54.06 0.90 54.06 0.32L54.06 0.32Q54.06-0.27 54.42-0.61Q54.78-0.94 55.30-0.94L55.30-0.94Q55.81-0.94 56.18-0.61Q56.54-0.27 56.54 0.32ZM59.22 8.10L59.47 9.68Q58.86 9.97 58.33 10.07Q57.79 10.18 57.34 10.18L57.34 10.18Q56.58 10.18 56.06 9.95Q55.54 9.73 55.22 9.30Q54.91 8.88 54.78 8.27Q54.66 7.66 54.66 6.88L54.66 6.88L54.66 4.11L52.58 4.11L52.58 2.48L56.62 2.48L56.62 7.14Q56.62 7.81 56.87 8.14Q57.12 8.46 57.70 8.46L57.70 8.46Q57.97 8.46 58.35 8.39Q58.74 8.32 59.22 8.10L59.22 8.10ZM65.50 6.30L65.50 6.30Q65.50 5.30 65.10 4.65Q64.70 4 63.89 4L63.89 4Q63.66 4 63.41 4.02Q63.15 4.05 62.98 4.06L62.98 4.06L62.98 8.19Q63.17 8.32 63.49 8.40Q63.81 8.48 64.13 8.48L64.13 8.48Q64.83 8.48 65.17 7.91Q65.50 7.34 65.50 6.30ZM67.50 6.24L67.50 6.24Q67.50 7.10 67.31 7.83Q67.12 8.56 66.75 9.08Q66.38 9.60 65.82 9.89Q65.26 10.18 64.53 10.18L64.53 10.18Q63.78 10.18 62.98 9.81L62.98 9.81L62.98 12.64L61.01 12.64L61.01 2.72Q61.55 2.54 62.34 2.43Q63.14 2.32 63.90 2.32L63.90 2.32Q65.65 2.32 66.58 3.38Q67.50 4.43 67.50 6.24ZM76.40 0.10L83.60 0.10L83.60 1.73L80.99 1.73L80.99 10L79.01 10L79.01 1.73L76.40 1.73L76.40 0.10ZM84.50 6.30L84.50 6.30Q84.50 5.31 84.80 4.56Q85.10 3.81 85.60 3.30Q86.10 2.80 86.74 2.54Q87.38 2.29 88.05 2.29L88.05 2.29Q89.71 2.29 90.58 3.27Q91.44 4.26 91.44 6.14L91.44 6.14Q91.44 6.34 91.43 6.54Q91.42 6.75 91.41 6.88L91.41 6.88L86.53 6.88Q86.53 7.62 87.14 8.04Q87.74 8.46 88.70 8.46L88.70 8.46Q89.30 8.46 89.83 8.34Q90.37 8.21 90.74 8.08L90.74 8.08L91.01 9.76Q90.50 9.94 89.92 10.06Q89.34 10.18 88.62 10.18L88.62 10.18Q87.66 10.18 86.90 9.93Q86.14 9.68 85.61 9.19Q85.07 8.70 84.78 7.98Q84.50 7.26 84.50 6.30ZM86.53 5.52L89.54 5.52Q89.54 5.22 89.46 4.94Q89.38 4.66 89.20 4.43Q89.02 4.21 88.75 4.07Q88.48 3.94 88.08 3.94L88.08 3.94Q87.70 3.94 87.42 4.06Q87.14 4.19 86.95 4.42Q86.77 4.64 86.66 4.93Q86.56 5.22 86.53 5.52L86.53 5.52ZM94.40 2.48L96.06 4.83L97.60 2.48L99.60 2.48L97.17 6.10Q97.55 6.56 97.92 7.08Q98.29 7.60 98.62 8.13Q98.96 8.66 99.23 9.14Q99.50 9.62 99.70 10L99.70 10L97.65 10Q97.22 9.18 96.78 8.54Q96.35 7.90 95.97 7.39L95.97 7.39Q95.49 8.03 95.10 8.64Q94.72 9.25 94.32 10L94.32 10L92.32 10Q92.56 9.55 92.87 9.06Q93.18 8.58 93.53 8.07Q93.87 7.57 94.25 7.07Q94.62 6.58 94.98 6.13L94.98 6.13L92.34 2.48L94.40 2.48ZM102.29 7.20L102.29 4.11L100.58 4.11L100.58 2.48L102.29 2.48L102.29 0.59L104.26 0.27L104.26 2.48L107.41 2.48L107.41 4.11L104.26 4.11L104.26 7.15Q104.26 7.57 104.34 7.82Q104.42 8.08 104.56 8.22Q104.70 8.37 104.91 8.42Q105.12 8.46 105.38 8.46L105.38 8.46Q105.65 8.46 105.88 8.45Q106.11 8.43 106.33 8.39Q106.54 8.35 106.78 8.27Q107.01 8.19 107.28 8.06L107.28 8.06L107.55 9.76Q107.01 9.98 106.38 10.08Q105.74 10.18 105.15 10.18L105.15 10.18Q104.46 10.18 103.94 10.06Q103.41 9.95 103.04 9.63Q102.67 9.31 102.48 8.73Q102.29 8.14 102.29 7.20L102.29 7.20Z"/>
    </g>
</svg>