<?xml version="1.0" encoding="UTF-8"?>
<svg height="34" width="175.1" version="1.1" xmlns="http://www.w3.org/2000/svg">
    <rect
        height="32"
        width="173.1"
        rx="1"
        ry="1"
        x="1"
        y="1"
        fill="#9e0101"
        stroke="#fe3939"
        stroke-width="1"
         />
    <g transform="translate(0, 12)">
        <path fill="#fe3939" d="M25.57 9.84L25.57 9.84Q26.31 9.84 26.80 9.68Q27.30 9.53 27.58 9.25Q27.87 8.98 27.98 8.63Q28.09 8.28 28.09 7.92L28.09 7.92Q28.09 7.46 27.82 7.10Q27.56 6.74 27.15 6.47Q26.74 6.19 26.24 5.96Q25.74 5.74 25.23 5.54L25.23 5.54Q24.56 5.30 23.84 4.99Q23.12 4.68 22.53 4.20Q21.94 3.72 21.56 3.01Q21.18 2.30 21.18 1.25L21.18 1.25Q21.18-0.84 22.53-2.02Q23.89-3.19 26.26-3.19L26.26-3.19Q27.63-3.19 28.65-2.88Q29.67-2.57 30.37-2.18L30.37-2.18L29.50 0.10Q28.90-0.24 28.17-0.48Q27.44-0.72 26.48-0.72L26.48-0.72Q24.13-0.72 24.13 0.98L24.13 0.98Q24.13 1.42 24.37 1.74Q24.61 2.06 24.98 2.32Q25.35 2.57 25.82 2.76Q26.29 2.95 26.74 3.12L26.74 3.12Q27.44 3.38 28.20 3.71Q28.95 4.03 29.59 4.57Q30.22 5.11 30.63 5.92Q31.04 6.72 31.04 7.94L31.04 7.94Q31.04 10.03 29.68 11.17Q28.33 12.31 25.57 12.31L25.57 12.31Q23.72 12.31 22.62 11.92Q21.51 11.52 20.96 11.18L20.96 11.18L21.82 8.78Q22.47 9.17 23.37 9.50Q24.27 9.84 25.57 9.84ZM42.51 0.72L42.51 11.62Q41.70 11.83 40.53 12.05Q39.37 12.26 38 12.26L38 12.26Q36.61 12.26 35.72 11.88Q34.83 11.50 34.32 10.79Q33.80 10.08 33.61 9.12Q33.42 8.16 33.42 7.01L33.42 7.01L33.42 0.72L36.37 0.72L36.37 6.62Q36.37 8.18 36.74 8.94Q37.11 9.70 38.19 9.70L38.19 9.70Q38.86 9.70 39.54 9.58L39.54 9.58L39.54 0.72L42.51 0.72ZM52.28 6.29L52.28 6.29Q52.28 4.70 51.76 3.86Q51.25 3.02 50.19 3.02L50.19 3.02Q49.71 3.02 49.24 3.16Q48.78 3.29 48.44 3.48L48.44 3.48L48.44 9.60Q48.78 9.67 49.15 9.70Q49.52 9.72 49.78 9.72L49.78 9.72Q50.94 9.72 51.61 8.94Q52.28 8.16 52.28 6.29ZM55.28 6.36L55.28 6.36Q55.28 7.70 54.92 8.80Q54.56 9.89 53.86 10.66Q53.17 11.42 52.16 11.84Q51.15 12.26 49.86 12.26L49.86 12.26Q48.70 12.26 47.50 12.10Q46.30 11.93 45.49 11.66L45.49 11.66L45.49-4.15L48.44-4.66L48.44 0.98Q49.06 0.70 49.64 0.59Q50.22 0.48 50.79 0.48L50.79 0.48Q51.90 0.48 52.74 0.90Q53.58 1.32 54.14 2.10Q54.70 2.88 54.99 3.96Q55.28 5.04 55.28 6.36ZM61.14-3.02L61.14-3.02Q62.41-3.02 63.44-2.74Q64.47-2.45 65.22-1.85Q65.96-1.25 66.36-0.32Q66.75 0.60 66.75 1.85L66.75 1.85Q66.75 3.14 66.22 4.20Q65.70 5.26 64.47 5.81L64.47 5.81Q64.88 6.43 65.34 7.19Q65.79 7.94 66.22 8.77Q66.66 9.60 67.05 10.43Q67.45 11.26 67.74 12L67.74 12L64.64 12Q64.09 10.56 63.36 9.23Q62.62 7.90 61.78 6.53L61.78 6.53L60.25 6.53L60.25 12L57.30 12L57.30-2.64Q57.73-2.74 58.24-2.82Q58.76-2.90 59.29-2.94Q59.82-2.98 60.30-3Q60.78-3.02 61.14-3.02ZM63.75 1.82L63.75 1.82Q63.75 0.65 63.03 0.10Q62.31-0.46 61.14-0.46L61.14-0.46Q60.97-0.46 60.73-0.44Q60.49-0.43 60.25-0.38L60.25-0.38L60.25 4.08L60.90 4.08Q62.41 4.08 63.08 3.49Q63.75 2.90 63.75 1.82ZM74.82-2.52L74.82-2.52Q74.82-1.66 74.26-1.15Q73.71-0.65 72.94-0.65L72.94-0.65Q72.18-0.65 71.64-1.15Q71.10-1.66 71.10-2.52L71.10-2.52Q71.10-3.41 71.64-3.91Q72.18-4.42 72.94-4.42L72.94-4.42Q73.71-4.42 74.26-3.91Q74.82-3.41 74.82-2.52ZM78.82 9.14L79.21 11.52Q78.30 11.95 77.49 12.11Q76.69 12.26 76.02 12.26L76.02 12.26Q74.86 12.26 74.08 11.93Q73.30 11.59 72.84 10.96Q72.37 10.32 72.18 9.41Q71.98 8.50 71.98 7.32L71.98 7.32L71.98 3.17L68.86 3.17L68.86 0.72L74.94 0.72L74.94 7.70Q74.94 8.71 75.31 9.20Q75.68 9.70 76.54 9.70L76.54 9.70Q76.95 9.70 77.53 9.59Q78.10 9.48 78.82 9.14L78.82 9.14ZM88.26 6.46L88.26 6.46Q88.26 4.94 87.66 3.97Q87.06 3 85.83 3L85.83 3Q85.50 3 85.11 3.04Q84.73 3.07 84.46 3.10L84.46 3.10L84.46 9.29Q84.75 9.48 85.23 9.60Q85.71 9.72 86.19 9.72L86.19 9.72Q87.25 9.72 87.75 8.87Q88.26 8.02 88.26 6.46ZM91.26 6.36L91.26 6.36Q91.26 7.66 90.97 8.75Q90.68 9.84 90.13 10.62Q89.58 11.40 88.74 11.83Q87.90 12.26 86.79 12.26L86.79 12.26Q85.66 12.26 84.46 11.71L84.46 11.71L84.46 15.96L81.51 15.96L81.51 1.08Q82.33 0.82 83.52 0.65Q84.70 0.48 85.86 0.48L85.86 0.48Q88.47 0.48 89.86 2.06Q91.26 3.65 91.26 6.36ZM104.60-2.86L115.40-2.86L115.40-0.41L111.49-0.41L111.49 12L108.51 12L108.51-0.41L104.60-0.41L104.60-2.86ZM116.74 6.46L116.74 6.46Q116.74 4.97 117.20 3.84Q117.66 2.71 118.40 1.96Q119.14 1.20 120.10 0.82Q121.06 0.43 122.07 0.43L122.07 0.43Q124.57 0.43 125.86 1.91Q127.16 3.38 127.16 6.22L127.16 6.22Q127.16 6.50 127.15 6.82Q127.14 7.13 127.11 7.32L127.11 7.32L119.79 7.32Q119.79 8.42 120.70 9.06Q121.62 9.70 123.06 9.70L123.06 9.70Q123.94 9.70 124.75 9.50Q125.55 9.31 126.10 9.12L126.10 9.12L126.51 11.64Q125.74 11.90 124.88 12.08Q124.02 12.26 122.94 12.26L122.94 12.26Q121.50 12.26 120.36 11.89Q119.22 11.52 118.41 10.79Q117.61 10.06 117.18 8.98Q116.74 7.90 116.74 6.46ZM119.79 5.28L124.30 5.28Q124.30 4.82 124.18 4.40Q124.06 3.98 123.80 3.65Q123.54 3.31 123.13 3.11Q122.72 2.90 122.12 2.90L122.12 2.90Q121.54 2.90 121.12 3.10Q120.70 3.29 120.43 3.62Q120.15 3.96 120.00 4.39Q119.84 4.82 119.79 5.28L119.79 5.28ZM131.60 0.72L134.10 4.25L136.40 0.72L139.40 0.72L135.75 6.14Q136.33 6.84 136.88 7.62Q137.43 8.40 137.94 9.19Q138.44 9.98 138.85 10.70Q139.26 11.42 139.54 12L139.54 12L136.47 12Q135.82 10.78 135.18 9.82Q134.53 8.86 133.95 8.09L133.95 8.09Q133.23 9.05 132.66 9.96Q132.08 10.87 131.48 12L131.48 12L128.48 12Q128.84 11.33 129.31 10.60Q129.78 9.86 130.29 9.11Q130.81 8.35 131.37 7.61Q131.94 6.86 132.46 6.19L132.46 6.19L128.50 0.72L131.60 0.72ZM143.43 7.80L143.43 3.17L140.86 3.17L140.86 0.72L143.43 0.72L143.43-2.11L146.38-2.59L146.38 0.72L151.11 0.72L151.11 3.17L146.38 3.17L146.38 7.73Q146.38 8.35 146.50 8.74Q146.62 9.12 146.84 9.34Q147.06 9.55 147.37 9.62Q147.68 9.70 148.06 9.70L148.06 9.70Q148.47 9.70 148.82 9.67Q149.17 9.65 149.49 9.59Q149.82 9.53 150.16 9.41Q150.51 9.29 150.92 9.10L150.92 9.10L151.33 11.64Q150.51 11.98 149.56 12.12Q148.62 12.26 147.73 12.26L147.73 12.26Q146.70 12.26 145.90 12.10Q145.11 11.93 144.56 11.45Q144.01 10.97 143.72 10.09Q143.43 9.22 143.43 7.80L143.43 7.80Z"/>
    </g>
</svg>