<?xml version="1.0" encoding="UTF-8"?>
<svg height="322" width="211.4" version="1.1" xmlns="http://www.w3.org/2000/svg"><!--Created by Josélio de S. C. Júnior - 2021 - https://github.com/joseliojunior -->
    <defs>
        <pattern id="pattern"
                x="1.5" y="3" width="3" height="6"
                patternUnits="userSpaceOnUse"
                patternTransform="rotate(45)" >
            <rect height="6" width="1" fill="#999999"/>
        </pattern>
    </defs>
    <rect
        height="32"
        width="209.4"
        rx="1"
        ry="1"
        x="1" y="1"
        fill="url(#pattern)"
        stroke="#000000"
        stroke-width="1" />
    <g transform="translate(0, 12)">
        <path fill="#ffffff" stroke="#000000" d="M25.14-3.02L25.14-3.02Q26.41-3.02 27.44-2.74Q28.47-2.45 29.22-1.85Q29.96-1.25 30.36-0.32Q30.75 0.60 30.75 1.85L30.75 1.85Q30.75 3.14 30.22 4.20Q29.70 5.26 28.47 5.81L28.47 5.81Q28.88 6.43 29.34 7.19Q29.79 7.94 30.22 8.77Q30.66 9.60 31.05 10.43Q31.45 11.26 31.74 12L31.74 12L28.64 12Q28.09 10.56 27.36 9.23Q26.62 7.90 25.78 6.53L25.78 6.53L24.25 6.53L24.25 12L21.30 12L21.30-2.64Q21.73-2.74 22.24-2.82Q22.76-2.90 23.29-2.94Q23.82-2.98 24.30-3Q24.78-3.02 25.14-3.02ZM27.75 1.82L27.75 1.82Q27.75 0.65 27.03 0.10Q26.31-0.46 25.14-0.46L25.14-0.46Q24.97-0.46 24.73-0.44Q24.49-0.43 24.25-0.38L24.25-0.38L24.25 4.08L24.90 4.08Q26.41 4.08 27.08 3.49Q27.75 2.90 27.75 1.82ZM32.74 6.46L32.74 6.46Q32.74 4.97 33.20 3.84Q33.66 2.71 34.40 1.96Q35.14 1.20 36.10 0.82Q37.06 0.43 38.07 0.43L38.07 0.43Q40.57 0.43 41.86 1.91Q43.16 3.38 43.16 6.22L43.16 6.22Q43.16 6.50 43.15 6.82Q43.14 7.13 43.11 7.32L43.11 7.32L35.79 7.32Q35.79 8.42 36.70 9.06Q37.62 9.70 39.06 9.70L39.06 9.70Q39.94 9.70 40.75 9.50Q41.55 9.31 42.10 9.12L42.10 9.12L42.51 11.64Q41.74 11.90 40.88 12.08Q40.02 12.26 38.94 12.26L38.94 12.26Q37.50 12.26 36.36 11.89Q35.22 11.52 34.41 10.79Q33.61 10.06 33.18 8.98Q32.74 7.90 32.74 6.46ZM35.79 5.28L40.30 5.28Q40.30 4.82 40.18 4.40Q40.06 3.98 39.80 3.65Q39.54 3.31 39.13 3.11Q38.72 2.90 38.12 2.90L38.12 2.90Q37.54 2.90 37.12 3.10Q36.70 3.29 36.43 3.62Q36.15 3.96 36.00 4.39Q35.84 4.82 35.79 5.28L35.79 5.28ZM47.67 6.29L47.67 6.29Q47.67 7.80 48.24 8.76Q48.80 9.72 50.05 9.72L50.05 9.72Q50.41 9.72 50.72 9.70Q51.03 9.67 51.37 9.62L51.37 9.62L51.37 3.48Q51.03 3.29 50.60 3.16Q50.17 3.02 49.69 3.02L49.69 3.02Q48.63 3.02 48.15 3.86Q47.67 4.70 47.67 6.29ZM54.32-4.66L54.32 11.66Q53.50 11.93 52.33 12.10Q51.15 12.26 50.02 12.26L50.02 12.26Q47.38 12.26 46.03 10.70Q44.67 9.14 44.67 6.43L44.67 6.43Q44.67 3.67 45.81 2.08Q46.95 0.48 49.18 0.48L49.18 0.48Q49.78 0.48 50.36 0.61Q50.94 0.74 51.37 0.98L51.37 0.98L51.37-4.15L54.32-4.66ZM62.82-2.52L62.82-2.52Q62.82-1.66 62.26-1.15Q61.71-0.65 60.94-0.65L60.94-0.65Q60.18-0.65 59.64-1.15Q59.10-1.66 59.10-2.52L59.10-2.52Q59.10-3.41 59.64-3.91Q60.18-4.42 60.94-4.42L60.94-4.42Q61.71-4.42 62.26-3.91Q62.82-3.41 62.82-2.52ZM66.82 9.14L67.21 11.52Q66.30 11.95 65.49 12.11Q64.69 12.26 64.02 12.26L64.02 12.26Q62.86 12.26 62.08 11.93Q61.30 11.59 60.84 10.96Q60.37 10.32 60.18 9.41Q59.98 8.50 59.98 7.32L59.98 7.32L59.98 3.17L56.86 3.17L56.86 0.72L62.94 0.72L62.94 7.70Q62.94 8.71 63.31 9.20Q63.68 9.70 64.54 9.70L64.54 9.70Q64.95 9.70 65.53 9.59Q66.10 9.48 66.82 9.14L66.82 9.14ZM79.02 0.98L78.49 3.72Q78.20 3.65 77.80 3.58Q77.41 3.50 77 3.44Q76.59 3.38 76.21 3.36Q75.82 3.34 75.56 3.34L75.56 3.34Q74.94 3.34 74.34 3.40Q73.74 3.46 73.11 3.62L73.11 3.62L73.11 12L70.14 12L70.14 1.46Q71.31 1.03 72.55 0.77Q73.78 0.50 75.44 0.50L75.44 0.50Q75.68 0.50 76.12 0.53Q76.57 0.55 77.07 0.61Q77.58 0.67 78.09 0.76Q78.61 0.84 79.02 0.98L79.02 0.98ZM80.74 6.46L80.74 6.46Q80.74 4.97 81.20 3.84Q81.66 2.71 82.40 1.96Q83.14 1.20 84.10 0.82Q85.06 0.43 86.07 0.43L86.07 0.43Q88.57 0.43 89.86 1.91Q91.16 3.38 91.16 6.22L91.16 6.22Q91.16 6.50 91.15 6.82Q91.14 7.13 91.11 7.32L91.11 7.32L83.79 7.32Q83.79 8.42 84.70 9.06Q85.62 9.70 87.06 9.70L87.06 9.70Q87.94 9.70 88.75 9.50Q89.55 9.31 90.10 9.12L90.10 9.12L90.51 11.64Q89.74 11.90 88.88 12.08Q88.02 12.26 86.94 12.26L86.94 12.26Q85.50 12.26 84.36 11.89Q83.22 11.52 82.41 10.79Q81.61 10.06 81.18 8.98Q80.74 7.90 80.74 6.46ZM83.79 5.28L88.30 5.28Q88.30 4.82 88.18 4.40Q88.06 3.98 87.80 3.65Q87.54 3.31 87.13 3.11Q86.72 2.90 86.12 2.90L86.12 2.90Q85.54 2.90 85.12 3.10Q84.70 3.29 84.43 3.62Q84.15 3.96 84.00 4.39Q83.84 4.82 83.79 5.28L83.79 5.28ZM93.06 6.36L93.06 6.36Q93.06 5.14 93.44 4.06Q93.82 2.98 94.62 2.17Q95.41 1.37 96.62 0.90Q97.83 0.43 99.51 0.43L99.51 0.43Q100.52 0.43 101.34 0.58Q102.15 0.72 102.99 1.06L102.99 1.06L102.34 3.43Q101.86 3.26 101.28 3.13Q100.69 3 99.78 3L99.78 3Q98.72 3 98.01 3.25Q97.30 3.50 96.87 3.95Q96.44 4.39 96.25 5.02Q96.06 5.64 96.06 6.36L96.06 6.36Q96.06 7.92 96.93 8.81Q97.81 9.70 99.92 9.70L99.92 9.70Q100.62 9.70 101.37 9.60Q102.13 9.50 102.75 9.29L102.75 9.29L103.18 11.71Q102.56 11.95 101.67 12.11Q100.78 12.26 99.58 12.26L99.58 12.26Q97.86 12.26 96.62 11.81Q95.38 11.35 94.59 10.56Q93.80 9.77 93.43 8.69Q93.06 7.61 93.06 6.36ZM107.43 7.80L107.43 3.17L104.86 3.17L104.86 0.72L107.43 0.72L107.43-2.11L110.38-2.59L110.38 0.72L115.11 0.72L115.11 3.17L110.38 3.17L110.38 7.73Q110.38 8.35 110.50 8.74Q110.62 9.12 110.84 9.34Q111.06 9.55 111.37 9.62Q111.68 9.70 112.06 9.70L112.06 9.70Q112.47 9.70 112.82 9.67Q113.17 9.65 113.49 9.59Q113.82 9.53 114.16 9.41Q114.51 9.29 114.92 9.10L114.92 9.10L115.33 11.64Q114.51 11.98 113.56 12.12Q112.62 12.26 111.73 12.26L111.73 12.26Q110.70 12.26 109.90 12.10Q109.11 11.93 108.56 11.45Q108.01 10.97 107.72 10.09Q107.43 9.22 107.43 7.80L107.43 7.80ZM133.14-3.02L133.14-3.02Q134.41-3.02 135.44-2.74Q136.47-2.45 137.22-1.85Q137.96-1.25 138.36-0.32Q138.75 0.60 138.75 1.85L138.75 1.85Q138.75 3.14 138.22 4.20Q137.70 5.26 136.47 5.81L136.47 5.81Q136.88 6.43 137.34 7.19Q137.79 7.94 138.22 8.77Q138.66 9.60 139.05 10.43Q139.45 11.26 139.74 12L139.74 12L136.64 12Q136.09 10.56 135.36 9.23Q134.62 7.90 133.78 6.53L133.78 6.53L132.25 6.53L132.25 12L129.30 12L129.30-2.64Q129.73-2.74 130.24-2.82Q130.76-2.90 131.29-2.94Q131.82-2.98 132.30-3Q132.78-3.02 133.14-3.02ZM135.75 1.82L135.75 1.82Q135.75 0.65 135.03 0.10Q134.31-0.46 133.14-0.46L133.14-0.46Q132.97-0.46 132.73-0.44Q132.49-0.43 132.25-0.38L132.25-0.38L132.25 4.08L132.90 4.08Q134.41 4.08 135.08 3.49Q135.75 2.90 135.75 1.82ZM150.51 0.72L150.51 11.62Q149.70 11.83 148.53 12.05Q147.37 12.26 146 12.26L146 12.26Q144.61 12.26 143.72 11.88Q142.83 11.50 142.32 10.79Q141.80 10.08 141.61 9.12Q141.42 8.16 141.42 7.01L141.42 7.01L141.42 0.72L144.37 0.72L144.37 6.62Q144.37 8.18 144.74 8.94Q145.11 9.70 146.19 9.70L146.19 9.70Q146.86 9.70 147.54 9.58L147.54 9.58L147.54 0.72L150.51 0.72ZM162.82 9.14L163.21 11.52Q163.14 11.57 162.88 11.69Q162.63 11.81 162.22 11.94Q161.82 12.07 161.23 12.17Q160.64 12.26 159.90 12.26L159.90 12.26Q157.86 12.26 156.92 11.05Q155.98 9.84 155.98 7.51L155.98 7.51L155.98-2.06L152.86-2.06L152.86-4.51L158.94-4.51L158.94 7.73Q158.94 8.88 159.39 9.29Q159.85 9.70 160.54 9.70L160.54 9.70Q161.43 9.70 162.03 9.46Q162.63 9.22 162.82 9.14L162.82 9.14ZM164.74 6.46L164.74 6.46Q164.74 4.97 165.20 3.84Q165.66 2.71 166.40 1.96Q167.14 1.20 168.10 0.82Q169.06 0.43 170.07 0.43L170.07 0.43Q172.57 0.43 173.86 1.91Q175.16 3.38 175.16 6.22L175.16 6.22Q175.16 6.50 175.15 6.82Q175.14 7.13 175.11 7.32L175.11 7.32L167.79 7.32Q167.79 8.42 168.70 9.06Q169.62 9.70 171.06 9.70L171.06 9.70Q171.94 9.70 172.75 9.50Q173.55 9.31 174.10 9.12L174.10 9.12L174.51 11.64Q173.74 11.90 172.88 12.08Q172.02 12.26 170.94 12.26L170.94 12.26Q169.50 12.26 168.36 11.89Q167.22 11.52 166.41 10.79Q165.61 10.06 165.18 8.98Q164.74 7.90 164.74 6.46ZM167.79 5.28L172.30 5.28Q172.30 4.82 172.18 4.40Q172.06 3.98 171.80 3.65Q171.54 3.31 171.13 3.11Q170.72 2.90 170.12 2.90L170.12 2.90Q169.54 2.90 169.12 3.10Q168.70 3.29 168.43 3.62Q168.15 3.96 168.00 4.39Q167.84 4.82 167.79 5.28L167.79 5.28ZM181.47 9.77L181.47 9.77Q182.55 9.77 183.13 9.61Q183.70 9.46 183.70 8.98L183.70 8.98Q183.70 8.66 183.52 8.45Q183.34 8.23 183.02 8.08Q182.70 7.92 182.28 7.78Q181.86 7.63 181.40 7.49L181.40 7.49Q180.75 7.30 180.08 7.04Q179.41 6.79 178.86 6.41Q178.30 6.02 177.94 5.44Q177.58 4.85 177.58 3.96L177.58 3.96Q177.58 3.24 177.86 2.60Q178.14 1.97 178.72 1.48Q179.31 0.98 180.22 0.71Q181.14 0.43 182.41 0.43L182.41 0.43Q183.51 0.43 184.46 0.60Q185.41 0.77 186.10 1.08L186.10 1.08L185.65 3.58Q185.24 3.46 184.38 3.18Q183.51 2.90 182.43 2.90L182.43 2.90Q181.30 2.90 180.91 3.18Q180.51 3.46 180.51 3.77L180.51 3.77Q180.51 4.03 180.69 4.24Q180.87 4.44 181.17 4.61Q181.47 4.78 181.87 4.93Q182.26 5.09 182.72 5.23L182.72 5.23Q183.37 5.45 184.06 5.71Q184.76 5.98 185.32 6.37Q185.89 6.77 186.25 7.38Q186.61 7.99 186.61 8.88L186.61 8.88Q186.61 9.58 186.34 10.20Q186.08 10.82 185.47 11.28Q184.86 11.74 183.87 12Q182.89 12.26 181.45 12.26L181.45 12.26Q179.98 12.26 178.95 11.93Q177.92 11.59 177.30 11.33L177.30 11.33L177.75 8.86Q178.59 9.19 179.54 9.48Q180.49 9.77 181.47 9.77Z"/>
    </g>
</svg>