<?xml version="1.0" encoding="UTF-8"?>
<svg height="26" width="195.9" version="1.1" xmlns="http://www.w3.org/2000/svg"><!--Created by Josélio de S. C. Júnior - 2021 - https://github.com/joseliojunior -->
    <rect
        height="24"
        width="193.9"
        rx="12"
        ry="12"
        x="1" y="1"
        fill="#71b417"
        stroke="#1c2d06"
        stroke-width="1" />
    <g transform="translate(0, 8)">
        <path fill="#1c2d06" stroke="none" d="M24.99 1.58L24.99 1.58Q24.29 1.58 23.81 1.84Q23.33 2.10 23.02 2.55Q22.70 3.01 22.57 3.64Q22.43 4.27 22.43 5.04L22.43 5.04Q22.43 6.82 22.99 7.66Q23.55 8.50 24.64 8.50L24.64 8.50Q24.82 8.50 25.02 8.48Q25.23 8.46 25.41 8.43L25.41 8.43L25.41 4.82L27.38 4.82L27.38 9.76Q27.02 9.89 26.28 10.05Q25.54 10.21 24.48 10.21L24.48 10.21Q23.55 10.21 22.81 9.88Q22.06 9.55 21.54 8.90Q21.01 8.26 20.72 7.29Q20.43 6.32 20.43 5.04L20.43 5.04Q20.43 3.78 20.77 2.81Q21.10 1.84 21.68 1.18Q22.26 0.53 23.04 0.20Q23.82-0.13 24.72-0.13L24.72-0.13Q25.30-0.13 25.75-0.04Q26.21 0.05 26.54 0.16Q26.88 0.27 27.10 0.40Q27.31 0.53 27.42 0.59L27.42 0.59L26.91 2.16Q26.56 1.94 26.05 1.76Q25.54 1.58 24.99 1.58ZM32.02 8.59L32.02 8.59Q32.34 8.59 32.64 8.58Q32.94 8.58 33.17 8.54L33.17 8.54L33.17 6.82Q32.98 6.78 32.70 6.76Q32.43 6.74 32.21 6.74L32.21 6.74Q31.90 6.74 31.62 6.78Q31.33 6.82 31.11 6.91Q30.90 7.01 30.77 7.18Q30.64 7.36 30.64 7.65L30.64 7.65Q30.64 8.16 31.02 8.38Q31.41 8.59 32.02 8.59ZM31.84 2.29L31.84 2.29Q32.77 2.29 33.38 2.50Q34 2.72 34.37 3.11Q34.74 3.50 34.90 4.07Q35.06 4.64 35.06 5.34L35.06 5.34L35.06 9.82Q34.62 9.92 33.78 10.05Q32.93 10.18 31.87 10.18L31.87 10.18Q31.15 10.18 30.57 10.05Q29.98 9.92 29.57 9.62Q29.15 9.33 28.93 8.86Q28.70 8.38 28.70 7.70L28.70 7.70Q28.70 7.04 28.96 6.59Q29.22 6.14 29.65 5.87Q30.08 5.60 30.64 5.48Q31.20 5.36 31.81 5.36L31.81 5.36Q32.58 5.36 33.17 5.49L33.17 5.49L33.17 5.25Q33.17 4.69 32.82 4.31Q32.46 3.94 31.60 3.94L31.60 3.94Q31.04 3.94 30.52 4.02Q30 4.10 29.68 4.21L29.68 4.21L29.41 2.62Q29.78 2.50 30.45 2.39Q31.12 2.29 31.84 2.29ZM41.49 2.40L41.49 2.40Q42.11 2.40 42.51 2.59Q42.91 2.78 43.14 3.17Q43.38 3.55 43.46 4.14Q43.54 4.72 43.54 5.50L43.54 5.50L43.54 10L41.94 10L41.94 5.41Q41.94 4.96 41.88 4.69Q41.82 4.42 41.74 4.27Q41.65 4.13 41.53 4.08Q41.41 4.03 41.28 4.03L41.28 4.03Q41.14 4.03 40.98 4.06Q40.82 4.08 40.69 4.14L40.69 4.14Q40.74 4.45 40.77 4.82Q40.80 5.18 40.80 5.63L40.80 5.63L40.80 7.14L39.20 7.14L39.20 5.41Q39.20 4.64 39.05 4.34Q38.90 4.03 38.56 4.03L38.56 4.03Q38.46 4.03 38.33 4.05Q38.19 4.06 38.06 4.10L38.06 4.10L38.06 10L36.46 10L36.46 2.77Q37.09 2.59 37.70 2.50Q38.30 2.40 38.77 2.40L38.77 2.40Q39.18 2.40 39.51 2.50Q39.84 2.61 40.08 2.85L40.08 2.85Q40.35 2.67 40.72 2.54Q41.09 2.40 41.49 2.40ZM44.50 6.30L44.50 6.30Q44.50 5.31 44.80 4.56Q45.10 3.81 45.60 3.30Q46.10 2.80 46.74 2.54Q47.38 2.29 48.05 2.29L48.05 2.29Q49.71 2.29 50.58 3.27Q51.44 4.26 51.44 6.14L51.44 6.14Q51.44 6.34 51.43 6.54Q51.42 6.75 51.41 6.88L51.41 6.88L46.53 6.88Q46.53 7.62 47.14 8.04Q47.74 8.46 48.70 8.46L48.70 8.46Q49.30 8.46 49.83 8.34Q50.37 8.21 50.74 8.08L50.74 8.08L51.01 9.76Q50.50 9.94 49.92 10.06Q49.34 10.18 48.62 10.18L48.62 10.18Q47.66 10.18 46.90 9.93Q46.14 9.68 45.61 9.19Q45.07 8.70 44.78 7.98Q44.50 7.26 44.50 6.30ZM46.53 5.52L49.54 5.52Q49.54 5.22 49.46 4.94Q49.38 4.66 49.20 4.43Q49.02 4.21 48.75 4.07Q48.48 3.94 48.08 3.94L48.08 3.94Q47.70 3.94 47.42 4.06Q47.14 4.19 46.95 4.42Q46.77 4.64 46.66 4.93Q46.56 5.22 46.53 5.52L46.53 5.52ZM60.94 0.10L62.58 0.10Q62.69 0.43 62.86 0.96Q63.02 1.49 63.22 2.10Q63.41 2.70 63.60 3.33Q63.79 3.95 63.97 4.48L63.97 4.48Q64.16 3.89 64.37 3.26Q64.58 2.62 64.77 2.04Q64.96 1.46 65.12 0.94Q65.28 0.43 65.41 0.10L65.41 0.10L67.04 0.10Q67.15 1.39 67.26 2.62Q67.36 3.86 67.43 5.06Q67.50 6.27 67.55 7.50Q67.60 8.72 67.63 10L67.63 10L65.82 10L65.92 2.30L64.70 6.50L63.26 6.50L62.10 2.30L62.18 10L60.37 10Q60.42 8.78 60.47 7.47Q60.53 6.16 60.59 4.86Q60.66 3.57 60.74 2.35Q60.83 1.14 60.94 0.10L60.94 0.10ZM72.02 8.59L72.02 8.59Q72.34 8.59 72.64 8.58Q72.94 8.58 73.17 8.54L73.17 8.54L73.17 6.82Q72.98 6.78 72.70 6.76Q72.43 6.74 72.21 6.74L72.21 6.74Q71.90 6.74 71.62 6.78Q71.33 6.82 71.11 6.91Q70.90 7.01 70.77 7.18Q70.64 7.36 70.64 7.65L70.64 7.65Q70.64 8.16 71.02 8.38Q71.41 8.59 72.02 8.59ZM71.84 2.29L71.84 2.29Q72.77 2.29 73.38 2.50Q74 2.72 74.37 3.11Q74.74 3.50 74.90 4.07Q75.06 4.64 75.06 5.34L75.06 5.34L75.06 9.82Q74.62 9.92 73.78 10.05Q72.93 10.18 71.87 10.18L71.87 10.18Q71.15 10.18 70.57 10.05Q69.98 9.92 69.57 9.62Q69.15 9.33 68.93 8.86Q68.70 8.38 68.70 7.70L68.70 7.70Q68.70 7.04 68.96 6.59Q69.22 6.14 69.65 5.87Q70.08 5.60 70.64 5.48Q71.20 5.36 71.81 5.36L71.81 5.36Q72.58 5.36 73.17 5.49L73.17 5.49L73.17 5.25Q73.17 4.69 72.82 4.31Q72.46 3.94 71.60 3.94L71.60 3.94Q71.04 3.94 70.52 4.02Q70 4.10 69.68 4.21L69.68 4.21L69.41 2.62Q69.78 2.50 70.45 2.39Q71.12 2.29 71.84 2.29ZM78.99-1.10L78.99 5.46Q79.28 5.12 79.58 4.74Q79.87 4.37 80.15 3.97Q80.43 3.57 80.69 3.19Q80.94 2.82 81.14 2.48L81.14 2.48L83.50 2.48Q83.22 2.85 82.85 3.28Q82.48 3.71 82.09 4.16Q81.70 4.61 81.30 5.02Q80.91 5.44 80.59 5.79L80.59 5.79Q80.99 6.18 81.46 6.71Q81.92 7.25 82.37 7.82Q82.82 8.40 83.19 8.98Q83.57 9.55 83.79 10L83.79 10L81.54 10Q81.34 9.60 81.03 9.10Q80.72 8.59 80.37 8.10Q80.02 7.62 79.66 7.18Q79.30 6.74 78.99 6.45L78.99 6.45L78.99 10L77.01 10L77.01-0.77L78.99-1.10ZM84.50 6.30L84.50 6.30Q84.50 5.31 84.80 4.56Q85.10 3.81 85.60 3.30Q86.10 2.80 86.74 2.54Q87.38 2.29 88.05 2.29L88.05 2.29Q89.71 2.29 90.58 3.27Q91.44 4.26 91.44 6.14L91.44 6.14Q91.44 6.34 91.43 6.54Q91.42 6.75 91.41 6.88L91.41 6.88L86.53 6.88Q86.53 7.62 87.14 8.04Q87.74 8.46 88.70 8.46L88.70 8.46Q89.30 8.46 89.83 8.34Q90.37 8.21 90.74 8.08L90.74 8.08L91.01 9.76Q90.50 9.94 89.92 10.06Q89.34 10.18 88.62 10.18L88.62 10.18Q87.66 10.18 86.90 9.93Q86.14 9.68 85.61 9.19Q85.07 8.70 84.78 7.98Q84.50 7.26 84.50 6.30ZM86.53 5.52L89.54 5.52Q89.54 5.22 89.46 4.94Q89.38 4.66 89.20 4.43Q89.02 4.21 88.75 4.07Q88.48 3.94 88.08 3.94L88.08 3.94Q87.70 3.94 87.42 4.06Q87.14 4.19 86.95 4.42Q86.77 4.64 86.66 4.93Q86.56 5.22 86.53 5.52L86.53 5.52ZM99.34 2.66L98.99 4.48Q98.80 4.43 98.54 4.38Q98.27 4.34 98 4.30Q97.73 4.26 97.47 4.24Q97.22 4.22 97.04 4.22L97.04 4.22Q96.62 4.22 96.22 4.26Q95.82 4.30 95.41 4.42L95.41 4.42L95.41 10L93.42 10L93.42 2.98Q94.21 2.69 95.03 2.51Q95.86 2.34 96.96 2.34L96.96 2.34Q97.12 2.34 97.42 2.35Q97.71 2.37 98.05 2.41Q98.38 2.45 98.73 2.50Q99.07 2.56 99.34 2.66L99.34 2.66ZM115.36 8.37L115.36 10L109.14 10L109.14 0.10L111.12 0.10L111.12 8.37L115.36 8.37ZM120.02 8.59L120.02 8.59Q120.34 8.59 120.64 8.58Q120.94 8.58 121.17 8.54L121.17 8.54L121.17 6.82Q120.98 6.78 120.70 6.76Q120.43 6.74 120.21 6.74L120.21 6.74Q119.90 6.74 119.62 6.78Q119.33 6.82 119.11 6.91Q118.90 7.01 118.77 7.18Q118.64 7.36 118.64 7.65L118.64 7.65Q118.64 8.16 119.02 8.38Q119.41 8.59 120.02 8.59ZM119.84 2.29L119.84 2.29Q120.77 2.29 121.38 2.50Q122 2.72 122.37 3.11Q122.74 3.50 122.90 4.07Q123.06 4.64 123.06 5.34L123.06 5.34L123.06 9.82Q122.62 9.92 121.78 10.05Q120.93 10.18 119.87 10.18L119.87 10.18Q119.15 10.18 118.57 10.05Q117.98 9.92 117.57 9.62Q117.15 9.33 116.93 8.86Q116.70 8.38 116.70 7.70L116.70 7.70Q116.70 7.04 116.96 6.59Q117.22 6.14 117.65 5.87Q118.08 5.60 118.64 5.48Q119.20 5.36 119.81 5.36L119.81 5.36Q120.58 5.36 121.17 5.49L121.17 5.49L121.17 5.25Q121.17 4.69 120.82 4.31Q120.46 3.94 119.60 3.94L119.60 3.94Q119.04 3.94 118.52 4.02Q118 4.10 117.68 4.21L117.68 4.21L117.41 2.62Q117.78 2.50 118.45 2.39Q119.12 2.29 119.84 2.29ZM125.01 10L125.01 2.72Q125.54 2.58 126.31 2.45Q127.09 2.32 128 2.32L128 2.32Q128.90 2.32 129.49 2.57Q130.08 2.82 130.42 3.27Q130.77 3.73 130.91 4.36Q131.06 4.99 131.06 5.76L131.06 5.76L131.06 10L129.09 10L129.09 6.02Q129.09 4.96 128.85 4.50Q128.61 4.03 127.87 4.03L127.87 4.03Q127.65 4.03 127.43 4.05Q127.22 4.06 126.98 4.10L126.98 4.10L126.98 10L125.01 10ZM134.53 6L134.53 6Q134.53 6.93 134.86 7.42Q135.20 7.90 135.92 7.90L135.92 7.90Q136.24 7.90 136.52 7.82Q136.80 7.74 137.02 7.62L137.02 7.62L137.02 4Q136.80 3.95 136.62 3.94Q136.45 3.92 136.26 3.92L136.26 3.92Q134.53 3.92 134.53 6ZM139.01 2.72L139.01 9.09Q139.01 10.93 138.12 11.81Q137.23 12.69 135.26 12.69L135.26 12.69Q134.56 12.69 133.91 12.54Q133.26 12.40 132.67 12.21L132.67 12.21L133.04 10.54Q133.50 10.72 134.02 10.87Q134.53 11.02 135.30 11.02L135.30 11.02Q135.81 11.02 136.14 10.90Q136.48 10.78 136.67 10.58Q136.86 10.37 136.94 10.09Q137.02 9.81 137.02 9.49L137.02 9.49L137.02 9.18Q136.61 9.34 136.26 9.42Q135.92 9.50 135.52 9.50L135.52 9.50Q134.05 9.50 133.29 8.58Q132.53 7.65 132.53 6L132.53 6Q132.53 4.14 133.55 3.23Q134.58 2.32 136.34 2.32L136.34 2.32Q137.57 2.32 139.01 2.72L139.01 2.72ZM147.01 2.48L147.01 9.74Q146.46 9.89 145.69 10.03Q144.91 10.18 144 10.18L144 10.18Q143.07 10.18 142.48 9.92Q141.89 9.66 141.54 9.19Q141.20 8.72 141.07 8.08Q140.94 7.44 140.94 6.67L140.94 6.67L140.94 2.48L142.91 2.48L142.91 6.42Q142.91 7.46 143.16 7.96Q143.41 8.46 144.13 8.46L144.13 8.46Q144.58 8.46 145.02 8.38L145.02 8.38L145.02 2.48L147.01 2.48ZM152.02 8.59L152.02 8.59Q152.34 8.59 152.64 8.58Q152.94 8.58 153.17 8.54L153.17 8.54L153.17 6.82Q152.98 6.78 152.70 6.76Q152.43 6.74 152.21 6.74L152.21 6.74Q151.90 6.74 151.62 6.78Q151.33 6.82 151.11 6.91Q150.90 7.01 150.77 7.18Q150.64 7.36 150.64 7.65L150.64 7.65Q150.64 8.16 151.02 8.38Q151.41 8.59 152.02 8.59ZM151.84 2.29L151.84 2.29Q152.77 2.29 153.38 2.50Q154 2.72 154.37 3.11Q154.74 3.50 154.90 4.07Q155.06 4.64 155.06 5.34L155.06 5.34L155.06 9.82Q154.62 9.92 153.78 10.05Q152.93 10.18 151.87 10.18L151.87 10.18Q151.15 10.18 150.57 10.05Q149.98 9.92 149.57 9.62Q149.15 9.33 148.93 8.86Q148.70 8.38 148.70 7.70L148.70 7.70Q148.70 7.04 148.96 6.59Q149.22 6.14 149.65 5.87Q150.08 5.60 150.64 5.48Q151.20 5.36 151.81 5.36L151.81 5.36Q152.58 5.36 153.17 5.49L153.17 5.49L153.17 5.25Q153.17 4.69 152.82 4.31Q152.46 3.94 151.60 3.94L151.60 3.94Q151.04 3.94 150.52 4.02Q150 4.10 149.68 4.21L149.68 4.21L149.41 2.62Q149.78 2.50 150.45 2.39Q151.12 2.29 151.84 2.29ZM158.53 6L158.53 6Q158.53 6.93 158.86 7.42Q159.20 7.90 159.92 7.90L159.92 7.90Q160.24 7.90 160.52 7.82Q160.80 7.74 161.02 7.62L161.02 7.62L161.02 4Q160.80 3.95 160.62 3.94Q160.45 3.92 160.26 3.92L160.26 3.92Q158.53 3.92 158.53 6ZM163.01 2.72L163.01 9.09Q163.01 10.93 162.12 11.81Q161.23 12.69 159.26 12.69L159.26 12.69Q158.56 12.69 157.91 12.54Q157.26 12.40 156.67 12.21L156.67 12.21L157.04 10.54Q157.50 10.72 158.02 10.87Q158.53 11.02 159.30 11.02L159.30 11.02Q159.81 11.02 160.14 10.90Q160.48 10.78 160.67 10.58Q160.86 10.37 160.94 10.09Q161.02 9.81 161.02 9.49L161.02 9.49L161.02 9.18Q160.61 9.34 160.26 9.42Q159.92 9.50 159.52 9.50L159.52 9.50Q158.05 9.50 157.29 8.58Q156.53 7.65 156.53 6L156.53 6Q156.53 4.14 157.55 3.23Q158.58 2.32 160.34 2.32L160.34 2.32Q161.57 2.32 163.01 2.72L163.01 2.72ZM164.50 6.30L164.50 6.30Q164.50 5.31 164.80 4.56Q165.10 3.81 165.60 3.30Q166.10 2.80 166.74 2.54Q167.38 2.29 168.05 2.29L168.05 2.29Q169.71 2.29 170.58 3.27Q171.44 4.26 171.44 6.14L171.44 6.14Q171.44 6.34 171.43 6.54Q171.42 6.75 171.41 6.88L171.41 6.88L166.53 6.88Q166.53 7.62 167.14 8.04Q167.74 8.46 168.70 8.46L168.70 8.46Q169.30 8.46 169.83 8.34Q170.37 8.21 170.74 8.08L170.74 8.08L171.01 9.76Q170.50 9.94 169.92 10.06Q169.34 10.18 168.62 10.18L168.62 10.18Q167.66 10.18 166.90 9.93Q166.14 9.68 165.61 9.19Q165.07 8.70 164.78 7.98Q164.50 7.26 164.50 6.30ZM166.53 5.52L169.54 5.52Q169.54 5.22 169.46 4.94Q169.38 4.66 169.20 4.43Q169.02 4.21 168.75 4.07Q168.48 3.94 168.08 3.94L168.08 3.94Q167.70 3.94 167.42 4.06Q167.14 4.19 166.95 4.42Q166.77 4.64 166.66 4.93Q166.56 5.22 166.53 5.52L166.53 5.52Z"/>
    </g>
</svg>