<?xml version="1.0" encoding="UTF-8"?><svg height="34" width="271.9" version="1.1" xmlns="http://www.w3.org/2000/svg"><!--Created by Josélio de S. C. Júnior - 2021 - https://github.com/joseliojunior --><rect height="32" width="269.9" rx="16" ry="16" x="1" y="1" fill="#71b417" stroke="#1c2d06" stroke-width="1" /><g transform="translate(0, 12)"><path fill="#1c2d06" d="M27.49-0.62L27.49-0.62Q26.43-0.62 25.71-0.24Q24.99 0.14 24.52 0.83Q24.06 1.51 23.85 2.46Q23.65 3.41 23.65 4.56L23.65 4.56Q23.65 7.22 24.49 8.48Q25.33 9.74 26.96 9.74L26.96 9.74Q27.22 9.74 27.54 9.72Q27.85 9.70 28.11 9.65L28.11 9.65L28.11 4.22L31.06 4.22L31.06 11.64Q30.54 11.83 29.42 12.07Q28.30 12.31 26.72 12.31L26.72 12.31Q25.33 12.31 24.21 11.82Q23.10 11.33 22.30 10.36Q21.51 9.38 21.08 7.93Q20.65 6.48 20.65 4.56L20.65 4.56Q20.65 2.66 21.15 1.21Q21.66-0.24 22.52-1.22Q23.38-2.21 24.56-2.70Q25.74-3.19 27.08-3.19L27.08-3.19Q27.94-3.19 28.63-3.06Q29.31-2.93 29.82-2.76Q30.32-2.59 30.64-2.40Q30.97-2.21 31.14-2.11L31.14-2.11L30.37 0.24Q29.84-0.10 29.07-0.36Q28.30-0.62 27.49-0.62ZM38.02 9.89L38.02 9.89Q38.50 9.89 38.96 9.88Q39.42 9.86 39.75 9.82L39.75 9.82L39.75 7.22Q39.46 7.18 39.06 7.14Q38.65 7.10 38.31 7.10L38.31 7.10Q37.86 7.10 37.42 7.16Q36.99 7.22 36.67 7.37Q36.34 7.51 36.15 7.78Q35.96 8.04 35.96 8.47L35.96 8.47Q35.96 9.24 36.54 9.56Q37.11 9.89 38.02 9.89ZM37.76 0.43L37.76 0.43Q39.15 0.43 40.08 0.76Q41 1.08 41.55 1.67Q42.10 2.26 42.34 3.11Q42.58 3.96 42.58 5.02L42.58 5.02L42.58 11.74Q41.94 11.88 40.66 12.07Q39.39 12.26 37.81 12.26L37.81 12.26Q36.73 12.26 35.85 12.07Q34.98 11.88 34.35 11.44Q33.73 10.99 33.39 10.28Q33.06 9.58 33.06 8.54L33.06 8.54Q33.06 7.56 33.44 6.89Q33.82 6.22 34.47 5.81Q35.12 5.40 35.96 5.22Q36.80 5.04 37.71 5.04L37.71 5.04Q38.86 5.04 39.75 5.23L39.75 5.23L39.75 4.87Q39.75 4.03 39.22 3.47Q38.70 2.90 37.40 2.90L37.40 2.90Q36.56 2.90 35.78 3.02Q35 3.14 34.52 3.31L34.52 3.31L34.11 0.94Q34.66 0.74 35.67 0.59Q36.68 0.43 37.76 0.43ZM52.23 0.60L52.23 0.60Q53.17 0.60 53.77 0.89Q54.37 1.18 54.72 1.75Q55.06 2.33 55.18 3.20Q55.30 4.08 55.30 5.26L55.30 5.26L55.30 12L52.90 12L52.90 5.11Q52.90 4.44 52.82 4.03Q52.74 3.62 52.60 3.41Q52.47 3.19 52.29 3.12Q52.11 3.05 51.92 3.05L51.92 3.05Q51.70 3.05 51.46 3.08Q51.22 3.12 51.03 3.22L51.03 3.22Q51.10 3.67 51.15 4.22Q51.20 4.78 51.20 5.45L51.20 5.45L51.20 7.70L48.80 7.70L48.80 5.11Q48.80 3.96 48.57 3.50Q48.34 3.05 47.84 3.05L47.84 3.05Q47.70 3.05 47.49 3.07Q47.29 3.10 47.10 3.14L47.10 3.14L47.10 12L44.70 12L44.70 1.15Q45.63 0.89 46.54 0.74Q47.46 0.60 48.15 0.60L48.15 0.60Q48.78 0.60 49.27 0.76Q49.76 0.91 50.12 1.27L50.12 1.27Q50.53 1.01 51.08 0.80Q51.63 0.60 52.23 0.60ZM56.74 6.46L56.74 6.46Q56.74 4.97 57.20 3.84Q57.66 2.71 58.40 1.96Q59.14 1.20 60.10 0.82Q61.06 0.43 62.07 0.43L62.07 0.43Q64.57 0.43 65.86 1.91Q67.16 3.38 67.16 6.22L67.16 6.22Q67.16 6.50 67.15 6.82Q67.14 7.13 67.11 7.32L67.11 7.32L59.79 7.32Q59.79 8.42 60.70 9.06Q61.62 9.70 63.06 9.70L63.06 9.70Q63.94 9.70 64.75 9.50Q65.55 9.31 66.10 9.12L66.10 9.12L66.51 11.64Q65.74 11.90 64.88 12.08Q64.02 12.26 62.94 12.26L62.94 12.26Q61.50 12.26 60.36 11.89Q59.22 11.52 58.41 10.79Q57.61 10.06 57.18 8.98Q56.74 7.90 56.74 6.46ZM59.79 5.28L64.30 5.28Q64.30 4.82 64.18 4.40Q64.06 3.98 63.80 3.65Q63.54 3.31 63.13 3.11Q62.72 2.90 62.12 2.90L62.12 2.90Q61.54 2.90 61.12 3.10Q60.70 3.29 60.43 3.62Q60.15 3.96 60.00 4.39Q59.84 4.82 59.79 5.28L59.79 5.28ZM81.42-2.86L83.86-2.86Q84.03-2.35 84.28-1.56Q84.54-0.77 84.82 0.14Q85.11 1.06 85.40 1.99Q85.69 2.93 85.95 3.72L85.95 3.72Q86.24 2.83 86.55 1.88Q86.86 0.94 87.15 0.06Q87.44-0.82 87.68-1.58Q87.92-2.35 88.11-2.86L88.11-2.86L90.56-2.86Q90.73-0.91 90.88 0.94Q91.04 2.78 91.15 4.60Q91.26 6.41 91.33 8.24Q91.40 10.08 91.45 12L91.45 12L88.74 12L88.88 0.46L87.06 6.74L84.90 6.74L83.14 0.46L83.26 12L80.55 12Q80.62 10.18 80.71 8.21Q80.79 6.24 80.89 4.30Q80.98 2.35 81.12 0.53Q81.25-1.30 81.42-2.86L81.42-2.86ZM98.02 9.89L98.02 9.89Q98.50 9.89 98.96 9.88Q99.42 9.86 99.75 9.82L99.75 9.82L99.75 7.22Q99.46 7.18 99.06 7.14Q98.65 7.10 98.31 7.10L98.31 7.10Q97.86 7.10 97.42 7.16Q96.99 7.22 96.67 7.37Q96.34 7.51 96.15 7.78Q95.96 8.04 95.96 8.47L95.96 8.47Q95.96 9.24 96.54 9.56Q97.11 9.89 98.02 9.89ZM97.76 0.43L97.76 0.43Q99.15 0.43 100.08 0.76Q101 1.08 101.55 1.67Q102.10 2.26 102.34 3.11Q102.58 3.96 102.58 5.02L102.58 5.02L102.58 11.74Q101.94 11.88 100.66 12.07Q99.39 12.26 97.81 12.26L97.81 12.26Q96.73 12.26 95.85 12.07Q94.98 11.88 94.35 11.44Q93.73 10.99 93.39 10.28Q93.06 9.58 93.06 8.54L93.06 8.54Q93.06 7.56 93.44 6.89Q93.82 6.22 94.47 5.81Q95.12 5.40 95.96 5.22Q96.80 5.04 97.71 5.04L97.71 5.04Q98.86 5.04 99.75 5.23L99.75 5.23L99.75 4.87Q99.75 4.03 99.22 3.47Q98.70 2.90 97.40 2.90L97.40 2.90Q96.56 2.90 95.78 3.02Q95 3.14 94.52 3.31L94.52 3.31L94.11 0.94Q94.66 0.74 95.67 0.59Q96.68 0.43 97.76 0.43ZM108.49-4.66L108.49 5.18Q108.92 4.68 109.36 4.12Q109.81 3.55 110.23 2.95Q110.65 2.35 111.03 1.79Q111.42 1.22 111.70 0.72L111.70 0.72L115.26 0.72Q114.82 1.27 114.27 1.92Q113.72 2.57 113.13 3.24Q112.54 3.91 111.96 4.54Q111.37 5.16 110.89 5.69L110.89 5.69Q111.49 6.26 112.18 7.07Q112.88 7.87 113.55 8.74Q114.22 9.60 114.79 10.46Q115.35 11.33 115.69 12L115.69 12L112.30 12Q112.02 11.40 111.55 10.64Q111.08 9.89 110.55 9.16Q110.02 8.42 109.48 7.76Q108.94 7.10 108.49 6.67L108.49 6.67L108.49 12L105.51 12L105.51-4.15L108.49-4.66ZM116.74 6.46L116.74 6.46Q116.74 4.97 117.20 3.84Q117.66 2.71 118.40 1.96Q119.14 1.20 120.10 0.82Q121.06 0.43 122.07 0.43L122.07 0.43Q124.57 0.43 125.86 1.91Q127.16 3.38 127.16 6.22L127.16 6.22Q127.16 6.50 127.15 6.82Q127.14 7.13 127.11 7.32L127.11 7.32L119.79 7.32Q119.79 8.42 120.70 9.06Q121.62 9.70 123.06 9.70L123.06 9.70Q123.94 9.70 124.75 9.50Q125.55 9.31 126.10 9.12L126.10 9.12L126.51 11.64Q125.74 11.90 124.88 12.08Q124.02 12.26 122.94 12.26L122.94 12.26Q121.50 12.26 120.36 11.89Q119.22 11.52 118.41 10.79Q117.61 10.06 117.18 8.98Q116.74 7.90 116.74 6.46ZM119.79 5.28L124.30 5.28Q124.30 4.82 124.18 4.40Q124.06 3.98 123.80 3.65Q123.54 3.31 123.13 3.11Q122.72 2.90 122.12 2.90L122.12 2.90Q121.54 2.90 121.12 3.10Q120.70 3.29 120.43 3.62Q120.15 3.96 120.00 4.39Q119.84 4.82 119.79 5.28L119.79 5.28ZM139.02 0.98L138.49 3.72Q138.20 3.65 137.80 3.58Q137.41 3.50 137 3.44Q136.59 3.38 136.21 3.36Q135.82 3.34 135.56 3.34L135.56 3.34Q134.94 3.34 134.34 3.40Q133.74 3.46 133.11 3.62L133.11 3.62L133.11 12L130.14 12L130.14 1.46Q131.31 1.03 132.55 0.77Q133.78 0.50 135.44 0.50L135.44 0.50Q135.68 0.50 136.12 0.53Q136.57 0.55 137.07 0.61Q137.58 0.67 138.09 0.76Q138.61 0.84 139.02 0.98L139.02 0.98ZM163.04 9.55L163.04 12L153.70 12L153.70-2.86L156.68-2.86L156.68 9.55L163.04 9.55ZM170.02 9.89L170.02 9.89Q170.50 9.89 170.96 9.88Q171.42 9.86 171.75 9.82L171.75 9.82L171.75 7.22Q171.46 7.18 171.06 7.14Q170.65 7.10 170.31 7.10L170.31 7.10Q169.86 7.10 169.42 7.16Q168.99 7.22 168.67 7.37Q168.34 7.51 168.15 7.78Q167.96 8.04 167.96 8.47L167.96 8.47Q167.96 9.24 168.54 9.56Q169.11 9.89 170.02 9.89ZM169.76 0.43L169.76 0.43Q171.15 0.43 172.08 0.76Q173 1.08 173.55 1.67Q174.10 2.26 174.34 3.11Q174.58 3.96 174.58 5.02L174.58 5.02L174.58 11.74Q173.94 11.88 172.66 12.07Q171.39 12.26 169.81 12.26L169.81 12.26Q168.73 12.26 167.85 12.07Q166.98 11.88 166.35 11.44Q165.73 10.99 165.39 10.28Q165.06 9.58 165.06 8.54L165.06 8.54Q165.06 7.56 165.44 6.89Q165.82 6.22 166.47 5.81Q167.12 5.40 167.96 5.22Q168.80 5.04 169.71 5.04L169.71 5.04Q170.86 5.04 171.75 5.23L171.75 5.23L171.75 4.87Q171.75 4.03 171.22 3.47Q170.70 2.90 169.40 2.90L169.40 2.90Q168.56 2.90 167.78 3.02Q167 3.14 166.52 3.31L166.52 3.31L166.11 0.94Q166.66 0.74 167.67 0.59Q168.68 0.43 169.76 0.43ZM177.51 12L177.51 1.08Q178.30 0.86 179.47 0.67Q180.63 0.48 182 0.48L182 0.48Q183.34 0.48 184.23 0.85Q185.12 1.22 185.64 1.91Q186.15 2.59 186.37 3.54Q186.58 4.49 186.58 5.64L186.58 5.64L186.58 12L183.63 12L183.63 6.02Q183.63 4.44 183.27 3.74Q182.91 3.05 181.81 3.05L181.81 3.05Q181.47 3.05 181.15 3.07Q180.82 3.10 180.46 3.14L180.46 3.14L180.46 12L177.51 12ZM191.79 6L191.79 6Q191.79 7.39 192.30 8.12Q192.80 8.86 193.88 8.86L193.88 8.86Q194.36 8.86 194.78 8.74Q195.20 8.62 195.54 8.42L195.54 8.42L195.54 3Q195.20 2.93 194.94 2.90Q194.67 2.88 194.38 2.88L194.38 2.88Q191.79 2.88 191.79 6ZM198.51 1.08L198.51 10.63Q198.51 13.39 197.18 14.71Q195.85 16.03 192.90 16.03L192.90 16.03Q191.84 16.03 190.87 15.82Q189.90 15.60 189.01 15.31L189.01 15.31L189.56 12.82Q190.26 13.08 191.02 13.31Q191.79 13.54 192.94 13.54L192.94 13.54Q193.71 13.54 194.22 13.36Q194.72 13.18 195.01 12.86Q195.30 12.55 195.42 12.13Q195.54 11.71 195.54 11.23L195.54 11.23L195.54 10.78Q194.91 11.02 194.40 11.14Q193.88 11.26 193.28 11.26L193.28 11.26Q191.07 11.26 189.93 9.86Q188.79 8.47 188.79 6L188.79 6Q188.79 3.22 190.33 1.85Q191.86 0.48 194.50 0.48L194.50 0.48Q196.35 0.48 198.51 1.08L198.51 1.08ZM210.51 0.72L210.51 11.62Q209.70 11.83 208.53 12.05Q207.37 12.26 206 12.26L206 12.26Q204.61 12.26 203.72 11.88Q202.83 11.50 202.32 10.79Q201.80 10.08 201.61 9.12Q201.42 8.16 201.42 7.01L201.42 7.01L201.42 0.72L204.37 0.72L204.37 6.62Q204.37 8.18 204.74 8.94Q205.11 9.70 206.19 9.70L206.19 9.70Q206.86 9.70 207.54 9.58L207.54 9.58L207.54 0.72L210.51 0.72ZM218.02 9.89L218.02 9.89Q218.50 9.89 218.96 9.88Q219.42 9.86 219.75 9.82L219.75 9.82L219.75 7.22Q219.46 7.18 219.06 7.14Q218.65 7.10 218.31 7.10L218.31 7.10Q217.86 7.10 217.42 7.16Q216.99 7.22 216.67 7.37Q216.34 7.51 216.15 7.78Q215.96 8.04 215.96 8.47L215.96 8.47Q215.96 9.24 216.54 9.56Q217.11 9.89 218.02 9.89ZM217.76 0.43L217.76 0.43Q219.15 0.43 220.08 0.76Q221 1.08 221.55 1.67Q222.10 2.26 222.34 3.11Q222.58 3.96 222.58 5.02L222.58 5.02L222.58 11.74Q221.94 11.88 220.66 12.07Q219.39 12.26 217.81 12.26L217.81 12.26Q216.73 12.26 215.85 12.07Q214.98 11.88 214.35 11.44Q213.73 10.99 213.39 10.28Q213.06 9.58 213.06 8.54L213.06 8.54Q213.06 7.56 213.44 6.89Q213.82 6.22 214.47 5.81Q215.12 5.40 215.96 5.22Q216.80 5.04 217.71 5.04L217.71 5.04Q218.86 5.04 219.75 5.23L219.75 5.23L219.75 4.87Q219.75 4.03 219.22 3.47Q218.70 2.90 217.40 2.90L217.40 2.90Q216.56 2.90 215.78 3.02Q215 3.14 214.52 3.31L214.52 3.31L214.11 0.94Q214.66 0.74 215.67 0.59Q216.68 0.43 217.76 0.43ZM227.79 6L227.79 6Q227.79 7.39 228.30 8.12Q228.80 8.86 229.88 8.86L229.88 8.86Q230.36 8.86 230.78 8.74Q231.20 8.62 231.54 8.42L231.54 8.42L231.54 3Q231.20 2.93 230.94 2.90Q230.67 2.88 230.38 2.88L230.38 2.88Q227.79 2.88 227.79 6ZM234.51 1.08L234.51 10.63Q234.51 13.39 233.18 14.71Q231.85 16.03 228.90 16.03L228.90 16.03Q227.84 16.03 226.87 15.82Q225.90 15.60 225.01 15.31L225.01 15.31L225.56 12.82Q226.26 13.08 227.02 13.31Q227.79 13.54 228.94 13.54L228.94 13.54Q229.71 13.54 230.22 13.36Q230.72 13.18 231.01 12.86Q231.30 12.55 231.42 12.13Q231.54 11.71 231.54 11.23L231.54 11.23L231.54 10.78Q230.91 11.02 230.40 11.14Q229.88 11.26 229.28 11.26L229.28 11.26Q227.07 11.26 225.93 9.86Q224.79 8.47 224.79 6L224.79 6Q224.79 3.22 226.33 1.85Q227.86 0.48 230.50 0.48L230.50 0.48Q232.35 0.48 234.51 1.08L234.51 1.08ZM236.74 6.46L236.74 6.46Q236.74 4.97 237.20 3.84Q237.66 2.71 238.40 1.96Q239.14 1.20 240.10 0.82Q241.06 0.43 242.07 0.43L242.07 0.43Q244.57 0.43 245.86 1.91Q247.16 3.38 247.16 6.22L247.16 6.22Q247.16 6.50 247.15 6.82Q247.14 7.13 247.11 7.32L247.11 7.32L239.79 7.32Q239.79 8.42 240.70 9.06Q241.62 9.70 243.06 9.70L243.06 9.70Q243.94 9.70 244.75 9.50Q245.55 9.31 246.10 9.12L246.10 9.12L246.51 11.64Q245.74 11.90 244.88 12.08Q244.02 12.26 242.94 12.26L242.94 12.26Q241.50 12.26 240.36 11.89Q239.22 11.52 238.41 10.79Q237.61 10.06 237.18 8.98Q236.74 7.90 236.74 6.46ZM239.79 5.28L244.30 5.28Q244.30 4.82 244.18 4.40Q244.06 3.98 243.80 3.65Q243.54 3.31 243.13 3.11Q242.72 2.90 242.12 2.90L242.12 2.90Q241.54 2.90 241.12 3.10Q240.70 3.29 240.43 3.62Q240.15 3.96 240.00 4.39Q239.84 4.82 239.79 5.28L239.79 5.28Z"/></g></svg>