<?xml version="1.0" encoding="UTF-8"?>
<svg height="34" width="289.9" version="1.1" xmlns="http://www.w3.org/2000/svg">
    <rect
        height="32"
        width="287.9"
        rx="14"
        ry="14"
        x="1"
        y="1"
        fill="#71b417"
        stroke="#1c2d06"
        stroke-width="1"
         />
    <g transform="translate(0, 14)">
        <path fill="#1c2d06" d="M18.74-3.73L18.74-3.73Q17.50-3.73 16.66-3.28Q15.82-2.83 15.28-2.03Q14.73-1.24 14.49-0.13Q14.26 0.98 14.26 2.32L14.26 2.32Q14.26 5.43 15.24 6.90Q16.22 8.37 18.12 8.37L18.12 8.37Q18.43 8.37 18.79 8.34Q19.16 8.31 19.46 8.26L19.46 8.26L19.46 1.93L22.91 1.93L22.91 10.58Q22.29 10.80 20.99 11.08Q19.69 11.36 17.84 11.36L17.84 11.36Q16.22 11.36 14.91 10.79Q13.61 10.22 12.69 9.08Q11.76 7.95 11.26 6.25Q10.76 4.56 10.76 2.32L10.76 2.32Q10.76 0.11 11.34-1.59Q11.93-3.28 12.94-4.43Q13.95-5.58 15.32-6.15Q16.69-6.72 18.26-6.72L18.26-6.72Q19.27-6.72 20.07-6.57Q20.86-6.42 21.45-6.22Q22.04-6.02 22.42-5.80Q22.80-5.58 22.99-5.46L22.99-5.46L22.10-2.72Q21.48-3.11 20.58-3.42Q19.69-3.73 18.74-3.73ZM31.03 8.54L31.03 8.54Q31.59 8.54 32.12 8.52Q32.65 8.51 33.04 8.45L33.04 8.45L33.04 5.43Q32.71 5.37 32.23 5.33Q31.76 5.29 31.36 5.29L31.36 5.29Q30.83 5.29 30.33 5.36Q29.82 5.43 29.45 5.60Q29.07 5.76 28.84 6.07Q28.62 6.38 28.62 6.88L28.62 6.88Q28.62 7.78 29.29 8.16Q29.96 8.54 31.03 8.54ZM30.72-2.50L30.72-2.50Q32.34-2.50 33.42-2.12Q34.50-1.74 35.14-1.05Q35.79-0.37 36.07 0.63Q36.35 1.62 36.35 2.85L36.35 2.85L36.35 10.69Q35.59 10.86 34.11 11.08Q32.62 11.31 30.78 11.31L30.78 11.31Q29.52 11.31 28.49 11.08Q27.47 10.86 26.74 10.34Q26.02 9.82 25.62 9.00Q25.23 8.17 25.23 6.97L25.23 6.97Q25.23 5.82 25.68 5.04Q26.13 4.25 26.88 3.78Q27.64 3.30 28.62 3.09Q29.60 2.88 30.66 2.88L30.66 2.88Q32.01 2.88 33.04 3.10L33.04 3.10L33.04 2.68Q33.04 1.70 32.43 1.05Q31.81 0.39 30.30 0.39L30.30 0.39Q29.32 0.39 28.41 0.53Q27.50 0.67 26.94 0.86L26.94 0.86L26.46-1.91Q27.11-2.13 28.28-2.31Q29.46-2.50 30.72-2.50ZM47.60-2.30L47.60-2.30Q48.70-2.30 49.40-1.96Q50.10-1.63 50.50-0.96Q50.91-0.28 51.05 0.74Q51.19 1.76 51.19 3.13L51.19 3.13L51.19 11L48.39 11L48.39 2.96Q48.39 2.18 48.29 1.70Q48.19 1.23 48.04 0.98Q47.88 0.72 47.67 0.64Q47.46 0.56 47.24 0.56L47.24 0.56Q46.99 0.56 46.71 0.60Q46.43 0.64 46.20 0.75L46.20 0.75Q46.29 1.28 46.34 1.93Q46.40 2.57 46.40 3.36L46.40 3.36L46.40 5.99L43.60 5.99L43.60 2.96Q43.60 1.62 43.33 1.09Q43.07 0.56 42.48 0.56L42.48 0.56Q42.31 0.56 42.07 0.58Q41.84 0.61 41.61 0.67L41.61 0.67L41.61 11L38.81 11L38.81-1.66Q39.90-1.96 40.97-2.13Q42.03-2.30 42.84-2.30L42.84-2.30Q43.57-2.30 44.15-2.12Q44.72-1.94 45.14-1.52L45.14-1.52Q45.62-1.82 46.26-2.06Q46.90-2.30 47.60-2.30ZM52.87 4.53L52.87 4.53Q52.87 2.80 53.40 1.48Q53.93 0.16 54.80-0.72Q55.67-1.60 56.79-2.05Q57.91-2.50 59.08-2.50L59.08-2.50Q62.00-2.50 63.51-0.77Q65.02 0.95 65.02 4.25L65.02 4.25Q65.02 4.59 65.01 4.95Q64.99 5.32 64.96 5.54L64.96 5.54L56.42 5.54Q56.42 6.83 57.49 7.57Q58.55 8.31 60.23 8.31L60.23 8.31Q61.27 8.31 62.21 8.09Q63.14 7.86 63.79 7.64L63.79 7.64L64.26 10.58Q63.37 10.89 62.36 11.10Q61.35 11.31 60.09 11.31L60.09 11.31Q58.41 11.31 57.08 10.87Q55.75 10.44 54.81 9.59Q53.88 8.73 53.37 7.47Q52.87 6.21 52.87 4.53ZM56.42 3.16L61.69 3.16Q61.69 2.63 61.55 2.14Q61.41 1.65 61.10 1.26Q60.79 0.86 60.32 0.63Q59.84 0.39 59.14 0.39L59.14 0.39Q58.47 0.39 57.98 0.61Q57.49 0.84 57.17 1.23Q56.84 1.62 56.66 2.12Q56.48 2.63 56.42 3.16L56.42 3.16ZM81.65-6.33L84.51-6.33Q84.70-5.74 85.00-4.82Q85.29-3.90 85.63-2.83Q85.96-1.77 86.30-0.68Q86.64 0.42 86.94 1.34L86.94 1.34Q87.28 0.30 87.64-0.80Q88.01-1.91 88.34-2.93Q88.68-3.95 88.96-4.85Q89.24-5.74 89.46-6.33L89.46-6.33L92.32-6.33Q92.52-4.06 92.70-1.91Q92.88 0.25 93.01 2.36Q93.13 4.48 93.22 6.62Q93.30 8.76 93.36 11L93.36 11L90.19 11L90.36-2.47L88.23 4.87L85.71 4.87L83.67-2.47L83.81 11L80.64 11Q80.73 8.87 80.83 6.58Q80.92 4.28 81.04 2.01Q81.15-0.26 81.30-2.38Q81.46-4.51 81.65-6.33L81.65-6.33ZM101.03 8.54L101.03 8.54Q101.59 8.54 102.12 8.52Q102.65 8.51 103.04 8.45L103.04 8.45L103.04 5.43Q102.71 5.37 102.23 5.33Q101.76 5.29 101.36 5.29L101.36 5.29Q100.83 5.29 100.33 5.36Q99.82 5.43 99.45 5.60Q99.07 5.76 98.84 6.07Q98.62 6.38 98.62 6.88L98.62 6.88Q98.62 7.78 99.29 8.16Q99.96 8.54 101.03 8.54ZM100.72-2.50L100.72-2.50Q102.34-2.50 103.42-2.12Q104.50-1.74 105.14-1.05Q105.79-0.37 106.07 0.63Q106.35 1.62 106.35 2.85L106.35 2.85L106.35 10.69Q105.59 10.86 104.11 11.08Q102.62 11.31 100.78 11.31L100.78 11.31Q99.52 11.31 98.49 11.08Q97.47 10.86 96.74 10.34Q96.02 9.82 95.62 9.00Q95.23 8.17 95.23 6.97L95.23 6.97Q95.23 5.82 95.68 5.04Q96.13 4.25 96.88 3.78Q97.64 3.30 98.62 3.09Q99.60 2.88 100.66 2.88L100.66 2.88Q102.01 2.88 103.04 3.10L103.04 3.10L103.04 2.68Q103.04 1.70 102.43 1.05Q101.81 0.39 100.30 0.39L100.30 0.39Q99.32 0.39 98.41 0.53Q97.50 0.67 96.94 0.86L96.94 0.86L96.46-1.91Q97.11-2.13 98.28-2.31Q99.46-2.50 100.72-2.50ZM113.24-8.43L113.24 3.05Q113.74 2.46 114.26 1.80Q114.78 1.14 115.27 0.44Q115.76-0.26 116.20-0.91Q116.65-1.57 116.99-2.16L116.99-2.16L121.13-2.16Q120.63-1.52 119.98-0.76Q119.34-0.00 118.65 0.78Q117.97 1.56 117.28 2.29Q116.60 3.02 116.04 3.64L116.04 3.64Q116.74 4.31 117.55 5.25Q118.36 6.18 119.14 7.19Q119.93 8.20 120.59 9.21Q121.24 10.22 121.64 11L121.64 11L117.69 11Q117.35 10.30 116.81 9.42Q116.26 8.54 115.64 7.68Q115.03 6.83 114.40 6.06Q113.77 5.29 113.24 4.78L113.24 4.78L113.24 11L109.76 11L109.76-7.84L113.24-8.43ZM122.87 4.53L122.87 4.53Q122.87 2.80 123.40 1.48Q123.93 0.16 124.80-0.72Q125.67-1.60 126.79-2.05Q127.91-2.50 129.08-2.50L129.08-2.50Q132.00-2.50 133.51-0.77Q135.02 0.95 135.02 4.25L135.02 4.25Q135.02 4.59 135.01 4.95Q134.99 5.32 134.96 5.54L134.96 5.54L126.42 5.54Q126.42 6.83 127.49 7.57Q128.55 8.31 130.23 8.31L130.23 8.31Q131.27 8.31 132.21 8.09Q133.14 7.86 133.79 7.64L133.79 7.64L134.26 10.58Q133.37 10.89 132.36 11.10Q131.35 11.31 130.09 11.31L130.09 11.31Q128.41 11.31 127.08 10.87Q125.75 10.44 124.81 9.59Q123.88 8.73 123.37 7.47Q122.87 6.21 122.87 4.53ZM126.42 3.16L131.69 3.16Q131.69 2.63 131.55 2.14Q131.41 1.65 131.10 1.26Q130.79 0.86 130.32 0.63Q129.84 0.39 129.14 0.39L129.14 0.39Q128.47 0.39 127.98 0.61Q127.49 0.84 127.17 1.23Q126.84 1.62 126.66 2.12Q126.48 2.63 126.42 3.16L126.42 3.16ZM148.85-1.85L148.24 1.34Q147.90 1.26 147.44 1.17Q146.98 1.09 146.50 1.02Q146.02 0.95 145.58 0.92Q145.13 0.89 144.82 0.89L144.82 0.89Q144.09 0.89 143.39 0.96Q142.69 1.03 141.96 1.23L141.96 1.23L141.96 11L138.49 11L138.49-1.29Q139.86-1.80 141.31-2.10Q142.75-2.41 144.68-2.41L144.68-2.41Q144.96-2.41 145.48-2.38Q146.00-2.36 146.58-2.29Q147.17-2.22 147.77-2.12Q148.38-2.02 148.85-1.85L148.85-1.85ZM176.88 8.14L176.88 11L165.99 11L165.99-6.33L169.46-6.33L169.46 8.14L176.88 8.14ZM185.03 8.54L185.03 8.54Q185.59 8.54 186.12 8.52Q186.65 8.51 187.04 8.45L187.04 8.45L187.04 5.43Q186.71 5.37 186.23 5.33Q185.76 5.29 185.36 5.29L185.36 5.29Q184.83 5.29 184.33 5.36Q183.82 5.43 183.45 5.60Q183.07 5.76 182.84 6.07Q182.62 6.38 182.62 6.88L182.62 6.88Q182.62 7.78 183.29 8.16Q183.96 8.54 185.03 8.54ZM184.72-2.50L184.72-2.50Q186.34-2.50 187.42-2.12Q188.50-1.74 189.14-1.05Q189.79-0.37 190.07 0.63Q190.35 1.62 190.35 2.85L190.35 2.85L190.35 10.69Q189.59 10.86 188.11 11.08Q186.62 11.31 184.78 11.31L184.78 11.31Q183.52 11.31 182.49 11.08Q181.47 10.86 180.74 10.34Q180.02 9.82 179.62 9.00Q179.23 8.17 179.23 6.97L179.23 6.97Q179.23 5.82 179.68 5.04Q180.13 4.25 180.88 3.78Q181.64 3.30 182.62 3.09Q183.60 2.88 184.66 2.88L184.66 2.88Q186.01 2.88 187.04 3.10L187.04 3.10L187.04 2.68Q187.04 1.70 186.43 1.05Q185.81 0.39 184.30 0.39L184.30 0.39Q183.32 0.39 182.41 0.53Q181.50 0.67 180.94 0.86L180.94 0.86L180.46-1.91Q181.11-2.13 182.28-2.31Q183.46-2.50 184.72-2.50ZM193.76 11L193.76-1.74Q194.69-1.99 196.05-2.22Q197.40-2.44 199-2.44L199-2.44Q200.57-2.44 201.60-2.01Q202.64-1.57 203.24-0.77Q203.84 0.02 204.10 1.13Q204.35 2.24 204.35 3.58L204.35 3.58L204.35 11L200.90 11L200.90 4.03Q200.90 2.18 200.48 1.37Q200.06 0.56 198.78 0.56L198.78 0.56Q198.38 0.56 198.01 0.58Q197.63 0.61 197.21 0.67L197.21 0.67L197.21 11L193.76 11ZM210.42 4L210.42 4Q210.42 5.62 211.01 6.48Q211.60 7.33 212.86 7.33L212.86 7.33Q213.42 7.33 213.91 7.19Q214.40 7.05 214.79 6.83L214.79 6.83L214.79 0.50Q214.40 0.42 214.09 0.39Q213.78 0.36 213.45 0.36L213.45 0.36Q210.42 0.36 210.42 4ZM218.26-1.74L218.26 9.40Q218.26 12.62 216.71 14.16Q215.16 15.70 211.71 15.70L211.71 15.70Q210.48 15.70 209.35 15.45Q208.21 15.20 207.18 14.86L207.18 14.86L207.82 11.95Q208.63 12.26 209.53 12.53Q210.42 12.79 211.77 12.79L211.77 12.79Q212.66 12.79 213.25 12.58Q213.84 12.37 214.18 12.01Q214.51 11.64 214.65 11.15Q214.79 10.66 214.79 10.10L214.79 10.10L214.79 9.57Q214.06 9.85 213.46 9.99Q212.86 10.13 212.16 10.13L212.16 10.13Q209.58 10.13 208.25 8.51Q206.92 6.88 206.92 4L206.92 4Q206.92 0.75 208.72-0.84Q210.51-2.44 213.59-2.44L213.59-2.44Q215.74-2.44 218.26-1.74L218.26-1.74ZM232.26-2.16L232.26 10.55Q231.31 10.80 229.95 11.06Q228.60 11.31 227 11.31L227 11.31Q225.38 11.31 224.34 10.86Q223.30 10.41 222.70 9.59Q222.10 8.76 221.88 7.64Q221.65 6.52 221.65 5.18L221.65 5.18L221.65-2.16L225.10-2.16L225.10 4.73Q225.10 6.55 225.53 7.43Q225.96 8.31 227.22 8.31L227.22 8.31Q228.01 8.31 228.79 8.17L228.79 8.17L228.79-2.16L232.26-2.16ZM241.03 8.54L241.03 8.54Q241.59 8.54 242.12 8.52Q242.65 8.51 243.04 8.45L243.04 8.45L243.04 5.43Q242.71 5.37 242.23 5.33Q241.76 5.29 241.36 5.29L241.36 5.29Q240.83 5.29 240.33 5.36Q239.82 5.43 239.45 5.60Q239.07 5.76 238.84 6.07Q238.62 6.38 238.62 6.88L238.62 6.88Q238.62 7.78 239.29 8.16Q239.96 8.54 241.03 8.54ZM240.72-2.50L240.72-2.50Q242.34-2.50 243.42-2.12Q244.50-1.74 245.14-1.05Q245.79-0.37 246.07 0.63Q246.35 1.62 246.35 2.85L246.35 2.85L246.35 10.69Q245.59 10.86 244.11 11.08Q242.62 11.31 240.78 11.31L240.78 11.31Q239.52 11.31 238.49 11.08Q237.47 10.86 236.74 10.34Q236.02 9.82 235.62 9.00Q235.23 8.17 235.23 6.97L235.23 6.97Q235.23 5.82 235.68 5.04Q236.13 4.25 236.88 3.78Q237.64 3.30 238.62 3.09Q239.60 2.88 240.66 2.88L240.66 2.88Q242.01 2.88 243.04 3.10L243.04 3.10L243.04 2.68Q243.04 1.70 242.43 1.05Q241.81 0.39 240.30 0.39L240.30 0.39Q239.32 0.39 238.41 0.53Q237.50 0.67 236.94 0.86L236.94 0.86L236.46-1.91Q237.11-2.13 238.28-2.31Q239.46-2.50 240.72-2.50ZM252.42 4L252.42 4Q252.42 5.62 253.01 6.48Q253.60 7.33 254.86 7.33L254.86 7.33Q255.42 7.33 255.91 7.19Q256.40 7.05 256.79 6.83L256.79 6.83L256.79 0.50Q256.40 0.42 256.09 0.39Q255.78 0.36 255.45 0.36L255.45 0.36Q252.42 0.36 252.42 4ZM260.26-1.74L260.26 9.40Q260.26 12.62 258.71 14.16Q257.16 15.70 253.71 15.70L253.71 15.70Q252.48 15.70 251.35 15.45Q250.21 15.20 249.18 14.86L249.18 14.86L249.82 11.95Q250.63 12.26 251.53 12.53Q252.42 12.79 253.77 12.79L253.77 12.79Q254.66 12.79 255.25 12.58Q255.84 12.37 256.18 12.01Q256.51 11.64 256.65 11.15Q256.79 10.66 256.79 10.10L256.79 10.10L256.79 9.57Q256.06 9.85 255.46 9.99Q254.86 10.13 254.16 10.13L254.16 10.13Q251.58 10.13 250.25 8.51Q248.92 6.88 248.92 4L248.92 4Q248.92 0.75 250.72-0.84Q252.51-2.44 255.59-2.44L255.59-2.44Q257.74-2.44 260.26-1.74L260.26-1.74ZM262.87 4.53L262.87 4.53Q262.87 2.80 263.40 1.48Q263.93 0.16 264.80-0.72Q265.67-1.60 266.79-2.05Q267.91-2.50 269.08-2.50L269.08-2.50Q272.00-2.50 273.51-0.77Q275.02 0.95 275.02 4.25L275.02 4.25Q275.02 4.59 275.01 4.95Q274.99 5.32 274.96 5.54L274.96 5.54L266.42 5.54Q266.42 6.83 267.49 7.57Q268.55 8.31 270.23 8.31L270.23 8.31Q271.27 8.31 272.21 8.09Q273.14 7.86 273.79 7.64L273.79 7.64L274.26 10.58Q273.37 10.89 272.36 11.10Q271.35 11.31 270.09 11.31L270.09 11.31Q268.41 11.31 267.08 10.87Q265.75 10.44 264.81 9.59Q263.88 8.73 263.37 7.47Q262.87 6.21 262.87 4.53ZM266.42 3.16L271.69 3.16Q271.69 2.63 271.55 2.14Q271.41 1.65 271.10 1.26Q270.79 0.86 270.32 0.63Q269.84 0.39 269.14 0.39L269.14 0.39Q268.47 0.39 267.98 0.61Q267.49 0.84 267.17 1.23Q266.84 1.62 266.66 2.12Q266.48 2.63 266.42 3.16L266.42 3.16Z"/>
    </g>
</svg>