<?xml version="1.0" encoding="UTF-8"?>
<svg height="34" width="92.5" version="1.1" xmlns="http://www.w3.org/2000/svg">
    <rect
        height="32"
        width="90.5"
        rx="1"
        ry="1"
        x="1"
        y="1"
        fill="#9C8AF9"
        stroke="#2509ae"
        stroke-width="1"
         />
    <g transform="translate(0, 14)">
        <path fill="#2509ae" d="M22.71 11L19.94 11Q18.76 8.12 17.38 5.25Q15.99 2.38 14.40-0.51L14.40-0.51L14.40 11L11.29 11L11.29-6.33L14.06-6.33Q14.84-5.10 15.63-3.66Q16.41-2.22 17.15-0.79Q17.90 0.64 18.53 1.98Q19.16 3.33 19.60 4.34L19.60 4.34L19.60-6.33L22.71-6.33L22.71 11ZM36.26-2.16L36.26 10.55Q35.31 10.80 33.95 11.06Q32.60 11.31 31 11.31L31 11.31Q29.38 11.31 28.34 10.86Q27.30 10.41 26.70 9.59Q26.10 8.76 25.88 7.64Q25.65 6.52 25.65 5.18L25.65 5.18L25.65-2.16L29.10-2.16L29.10 4.73Q29.10 6.55 29.53 7.43Q29.96 8.31 31.22 8.31L31.22 8.31Q32.01 8.31 32.79 8.17L32.79 8.17L32.79-2.16L36.26-2.16ZM47.60-2.30L47.60-2.30Q48.70-2.30 49.40-1.96Q50.10-1.63 50.50-0.96Q50.91-0.28 51.05 0.74Q51.19 1.76 51.19 3.13L51.19 3.13L51.19 11L48.39 11L48.39 2.96Q48.39 2.18 48.29 1.70Q48.19 1.23 48.04 0.98Q47.88 0.72 47.67 0.64Q47.46 0.56 47.24 0.56L47.24 0.56Q46.99 0.56 46.71 0.60Q46.43 0.64 46.20 0.75L46.20 0.75Q46.29 1.28 46.34 1.93Q46.40 2.57 46.40 3.36L46.40 3.36L46.40 5.99L43.60 5.99L43.60 2.96Q43.60 1.62 43.33 1.09Q43.07 0.56 42.48 0.56L42.48 0.56Q42.31 0.56 42.07 0.58Q41.84 0.61 41.61 0.67L41.61 0.67L41.61 11L38.81 11L38.81-1.66Q39.90-1.96 40.97-2.13Q42.03-2.30 42.84-2.30L42.84-2.30Q43.57-2.30 44.15-2.12Q44.72-1.94 45.14-1.52L45.14-1.52Q45.62-1.82 46.26-2.06Q46.90-2.30 47.60-2.30ZM58.27-6.53L58.27-6.53Q61.58-6.53 63.40-5.17Q65.22-3.81 65.22-0.73L65.22-0.73Q65.22 2.38 63.38 3.76Q61.55 5.15 58.19 5.15L58.19 5.15L56.96 5.15L56.96 11L53.51 11L53.51-6.11Q54.02-6.22 54.65-6.30Q55.28-6.39 55.92-6.43Q56.56-6.47 57.18-6.50Q57.80-6.53 58.27-6.53ZM58.66-3.53L58.66-3.53Q58.36-3.53 57.81-3.52Q57.26-3.50 56.96-3.45L56.96-3.45L56.96 2.15L58.36 2.15Q60.01 2.15 60.85 1.49Q61.69 0.84 61.69-0.76L61.69-0.76Q61.69-2.27 60.86-2.90Q60.04-3.53 58.66-3.53ZM75.69-2.16L79.22-2.16Q78.68-0.31 78.19 1.47Q77.70 3.24 77.17 4.94Q76.64 6.63 76.04 8.26Q75.44 9.88 74.74 11.42L74.74 11.42Q74.20 12.54 73.69 13.35Q73.17 14.16 72.54 14.68Q71.91 15.20 71.14 15.45Q70.37 15.70 69.33 15.70L69.33 15.70Q68.46 15.70 67.75 15.56Q67.04 15.42 66.56 15.20L66.56 15.20L67.20 12.32Q67.76 12.57 68.20 12.67Q68.63 12.76 69.14 12.76L69.14 12.76Q70.14 12.76 70.76 12.09Q71.38 11.42 71.74 10.50L71.74 10.50Q70.51 8.03 69.28 4.85Q68.04 1.68 67.04-2.16L67.04-2.16L70.62-2.16Q70.87-1.12 71.19 0.05Q71.52 1.23 71.88 2.40Q72.24 3.58 72.65 4.71Q73.06 5.85 73.48 6.83L73.48 6.83Q73.76 5.85 74.06 4.71Q74.37 3.58 74.65 2.42Q74.93 1.26 75.20 0.08Q75.46-1.10 75.69-2.16L75.69-2.16Z"/>
    </g>
</svg>