<?xml version="1.0" encoding="UTF-8"?><svg height="34" width="102.5" version="1.1" xmlns="http://www.w3.org/2000/svg"><!--Created by Josélio de S. C. Júnior - 2021 - https://github.com/joseliojunior --><rect height="32" width="100.5" rx="1" ry="1" x="1" y="1" fill="#9C8AF9" stroke="#2509ae" stroke-width="1" /><g transform="translate(0, 12)"><path fill="#2509ae" d="M30.90 12L28.52 12Q27.51 9.53 26.32 7.07Q25.14 4.61 23.77 2.14L23.77 2.14L23.77 12L21.10 12L21.10-2.86L23.48-2.86Q24.15-1.80 24.82-0.56Q25.50 0.67 26.13 1.90Q26.77 3.12 27.31 4.27Q27.85 5.42 28.23 6.29L28.23 6.29L28.23-2.86L30.90-2.86L30.90 12ZM42.51 0.72L42.51 11.62Q41.70 11.83 40.53 12.05Q39.37 12.26 38 12.26L38 12.26Q36.61 12.26 35.72 11.88Q34.83 11.50 34.32 10.79Q33.80 10.08 33.61 9.12Q33.42 8.16 33.42 7.01L33.42 7.01L33.42 0.72L36.37 0.72L36.37 6.62Q36.37 8.18 36.74 8.94Q37.11 9.70 38.19 9.70L38.19 9.70Q38.86 9.70 39.54 9.58L39.54 9.58L39.54 0.72L42.51 0.72ZM52.23 0.60L52.23 0.60Q53.17 0.60 53.77 0.89Q54.37 1.18 54.72 1.75Q55.06 2.33 55.18 3.20Q55.30 4.08 55.30 5.26L55.30 5.26L55.30 12L52.90 12L52.90 5.11Q52.90 4.44 52.82 4.03Q52.74 3.62 52.60 3.41Q52.47 3.19 52.29 3.12Q52.11 3.05 51.92 3.05L51.92 3.05Q51.70 3.05 51.46 3.08Q51.22 3.12 51.03 3.22L51.03 3.22Q51.10 3.67 51.15 4.22Q51.20 4.78 51.20 5.45L51.20 5.45L51.20 7.70L48.80 7.70L48.80 5.11Q48.80 3.96 48.57 3.50Q48.34 3.05 47.84 3.05L47.84 3.05Q47.70 3.05 47.49 3.07Q47.29 3.10 47.10 3.14L47.10 3.14L47.10 12L44.70 12L44.70 1.15Q45.63 0.89 46.54 0.74Q47.46 0.60 48.15 0.60L48.15 0.60Q48.78 0.60 49.27 0.76Q49.76 0.91 50.12 1.27L50.12 1.27Q50.53 1.01 51.08 0.80Q51.63 0.60 52.23 0.60ZM61.38-3.02L61.38-3.02Q64.21-3.02 65.77-1.86Q67.33-0.70 67.33 1.94L67.33 1.94Q67.33 4.61 65.76 5.80Q64.18 6.98 61.30 6.98L61.30 6.98L60.25 6.98L60.25 12L57.30 12L57.30-2.66Q57.73-2.76 58.27-2.83Q58.81-2.90 59.36-2.94Q59.91-2.98 60.44-3Q60.97-3.02 61.38-3.02ZM61.71-0.46L61.71-0.46Q61.45-0.46 60.98-0.44Q60.51-0.43 60.25-0.38L60.25-0.38L60.25 4.42L61.45 4.42Q62.86 4.42 63.58 3.85Q64.30 3.29 64.30 1.92L64.30 1.92Q64.30 0.62 63.60 0.08Q62.89-0.46 61.71-0.46ZM76.30 0.72L79.33 0.72Q78.87 2.30 78.45 3.83Q78.03 5.35 77.58 6.80Q77.12 8.26 76.60 9.65Q76.09 11.04 75.49 12.36L75.49 12.36Q75.03 13.32 74.59 14.02Q74.14 14.71 73.60 15.16Q73.06 15.60 72.40 15.82Q71.74 16.03 70.86 16.03L70.86 16.03Q70.11 16.03 69.50 15.91Q68.89 15.79 68.48 15.60L68.48 15.60L69.03 13.13Q69.51 13.34 69.88 13.43Q70.26 13.51 70.69 13.51L70.69 13.51Q71.55 13.51 72.08 12.94Q72.61 12.36 72.92 11.57L72.92 11.57Q71.86 9.46 70.81 6.73Q69.75 4.01 68.89 0.72L68.89 0.72L71.96 0.72Q72.18 1.61 72.45 2.62Q72.73 3.62 73.04 4.63Q73.35 5.64 73.70 6.61Q74.05 7.58 74.41 8.42L74.41 8.42Q74.65 7.58 74.91 6.61Q75.18 5.64 75.42 4.64Q75.66 3.65 75.88 2.64Q76.11 1.63 76.30 0.72L76.30 0.72Z"/></g></svg>