<?xml version="1.0" encoding="UTF-8"?>
<svg height="34" width="106.6" version="1.1" xmlns="http://www.w3.org/2000/svg">
    <rect
        height="32"
        width="104.6"
        rx="14"
        ry="14"
        x="1"
        y="1"
        fill="#778899"
        stroke="#323b43"
        stroke-width="1"
         />
    <g transform="translate(0, 14)">
        <path fill="#323b43" d="M23.13 5.76L23.13 5.76Q23.13 7.33 22.60 8.38Q22.07 9.43 21.16 10.06Q20.25 10.69 19.00 10.96Q17.76 11.22 16.33 11.22L16.33 11.22Q15.18 11.22 13.95 11.10Q12.72 10.97 11.51 10.72L11.51 10.72L11.51-6.11Q12.49-6.28 13.67-6.40Q14.84-6.53 15.99-6.53L15.99-6.53Q17.95-6.53 19.18-6.12Q20.42-5.72 21.12-5.06Q21.82-4.40 22.07-3.59Q22.32-2.78 22.32-1.96L22.32-1.96Q22.32-0.73 21.72 0.22Q21.12 1.17 20.11 1.73L20.11 1.73Q21.87 2.38 22.50 3.47Q23.13 4.56 23.13 5.76ZM16.80 3.41L14.96 3.41L14.96 8.12Q15.32 8.17 15.75 8.20Q16.19 8.23 16.61 8.23L16.61 8.23Q17.20 8.23 17.76 8.13Q18.32 8.03 18.75 7.77Q19.18 7.50 19.46 7.01Q19.74 6.52 19.74 5.76L19.74 5.76Q19.74 4.50 18.95 3.96Q18.15 3.41 16.80 3.41L16.80 3.41ZM14.96 0.56L16.30 0.56Q17.62 0.56 18.29-0.02Q18.96-0.59 18.96-1.60L18.96-1.60Q18.96-2.22 18.76-2.59Q18.57-2.97 18.23-3.18Q17.90-3.39 17.45-3.46Q17-3.53 16.52-3.53L16.52-3.53Q16.13-3.53 15.71-3.50Q15.29-3.48 14.96-3.42L14.96-3.42L14.96 0.56ZM31.95-5.94L31.95-5.94Q31.95-4.93 31.31-4.34Q30.66-3.76 29.77-3.76L29.77-3.76Q28.87-3.76 28.24-4.34Q27.61-4.93 27.61-5.94L27.61-5.94Q27.61-6.98 28.24-7.56Q28.87-8.15 29.77-8.15L29.77-8.15Q30.66-8.15 31.31-7.56Q31.95-6.98 31.95-5.94ZM36.63 7.67L37.08 10.44Q36.01 10.94 35.07 11.13Q34.14 11.31 33.35 11.31L33.35 11.31Q32.01 11.31 31.10 10.92Q30.19 10.52 29.64 9.78Q29.10 9.04 28.87 7.98Q28.65 6.91 28.65 5.54L28.65 5.54L28.65 0.70L25.01 0.70L25.01-2.16L32.09-2.16L32.09 5.99Q32.09 7.16 32.53 7.74Q32.96 8.31 33.97 8.31L33.97 8.31Q34.44 8.31 35.12 8.19Q35.79 8.06 36.63 7.67L36.63 7.67ZM47.66 4.34L47.66 4.34Q47.66 2.49 47.06 1.51Q46.46 0.53 45.22 0.53L45.22 0.53Q44.66 0.53 44.12 0.68Q43.57 0.84 43.18 1.06L43.18 1.06L43.18 8.20Q43.57 8.28 44.01 8.31Q44.44 8.34 44.75 8.34L44.75 8.34Q46.09 8.34 46.88 7.43Q47.66 6.52 47.66 4.34ZM51.16 4.42L51.16 4.42Q51.16 5.99 50.74 7.26Q50.32 8.54 49.51 9.43Q48.70 10.33 47.52 10.82Q46.34 11.31 44.83 11.31L44.83 11.31Q43.49 11.31 42.09 11.11Q40.69 10.92 39.74 10.61L39.74 10.61L39.74-7.84L43.18-8.43L43.18-1.85Q43.91-2.19 44.58-2.31Q45.25-2.44 45.92-2.44L45.92-2.44Q47.21-2.44 48.19-1.95Q49.17-1.46 49.83-0.55Q50.49 0.36 50.82 1.62Q51.16 2.88 51.16 4.42ZM52.70-6.33L65.30-6.33L65.30-3.48L60.74-3.48L60.74 11L57.26 11L57.26-3.48L52.70-3.48L52.70-6.33ZM66.87 4.53L66.87 4.53Q66.87 2.80 67.40 1.48Q67.93 0.16 68.80-0.72Q69.67-1.60 70.79-2.05Q71.91-2.50 73.08-2.50L73.08-2.50Q76.00-2.50 77.51-0.77Q79.02 0.95 79.02 4.25L79.02 4.25Q79.02 4.59 79.01 4.95Q78.99 5.32 78.96 5.54L78.96 5.54L70.42 5.54Q70.42 6.83 71.49 7.57Q72.55 8.31 74.23 8.31L74.23 8.31Q75.27 8.31 76.21 8.09Q77.14 7.86 77.79 7.64L77.79 7.64L78.26 10.58Q77.37 10.89 76.36 11.10Q75.35 11.31 74.09 11.31L74.09 11.31Q72.41 11.31 71.08 10.87Q69.75 10.44 68.81 9.59Q67.88 8.73 67.37 7.47Q66.87 6.21 66.87 4.53ZM70.42 3.16L75.69 3.16Q75.69 2.63 75.55 2.14Q75.41 1.65 75.10 1.26Q74.79 0.86 74.32 0.63Q73.84 0.39 73.14 0.39L73.14 0.39Q72.47 0.39 71.98 0.61Q71.49 0.84 71.17 1.23Q70.84 1.62 70.66 2.12Q70.48 2.63 70.42 3.16L70.42 3.16ZM93.69 11L89.97 11Q89.44 9.57 88.67 7.84Q87.90 6.10 87.06 4.36L87.06 4.36Q86.24 6.02 85.43 7.79Q84.62 9.57 84.03 11L84.03 11L80.31 11Q80.59 10.24 81.13 9.18Q81.68 8.12 82.34 6.88Q83.00 5.65 83.72 4.35Q84.45 3.05 85.12 1.84L85.12 1.84L80.59-6.33L84.31-6.33L87.06-0.79L89.94-6.33L93.41-6.33L88.99 1.76Q89.74 2.96 90.47 4.28Q91.20 5.60 91.83 6.84Q92.46 8.09 92.94 9.17Q93.41 10.24 93.69 11L93.69 11Z"/>
    </g>
</svg>