<?xml version="1.0" encoding="UTF-8"?>
<svg height="322" width="199.29999999999998" version="1.1" xmlns="http://www.w3.org/2000/svg"><!--Created by Josélio de S. C. Júnior - 2021 - https://github.com/joseliojunior -->
    <rect
        height="32"
        width="197.29999999999998"
        rx="16"
        ry="16"
        x="1" y="1"
        fill="#222c37"
        stroke="#5b7795"
        stroke-width="1" />
    <g transform="translate(0, 12)">
        <path fill="#5b7795" stroke="none" d="M25.95 12.31L25.95 12.31Q24.51 12.31 23.54 11.92Q22.57 11.52 21.99 10.78Q21.42 10.03 21.18 8.98Q20.94 7.92 20.94 6.62L20.94 6.62L20.94-2.86L23.91-2.86L23.91 6.43Q23.91 7.37 24.01 8.00Q24.10 8.64 24.33 9.02Q24.56 9.41 24.97 9.58Q25.38 9.74 26 9.74L26 9.74Q26.62 9.74 27.03 9.58Q27.44 9.41 27.68 9.01Q27.92 8.62 28.02 7.98Q28.11 7.34 28.11 6.41L28.11 6.41L28.11-2.86L31.06-2.86L31.06 6.62Q31.06 7.92 30.82 8.98Q30.58 10.03 29.98 10.78Q29.38 11.52 28.40 11.92Q27.42 12.31 25.95 12.31ZM33.51 12L33.51 1.08Q34.30 0.86 35.47 0.67Q36.63 0.48 38 0.48L38 0.48Q39.34 0.48 40.23 0.85Q41.12 1.22 41.64 1.91Q42.15 2.59 42.37 3.54Q42.58 4.49 42.58 5.64L42.58 5.64L42.58 12L39.63 12L39.63 6.02Q39.63 4.44 39.27 3.74Q38.91 3.05 37.81 3.05L37.81 3.05Q37.47 3.05 37.15 3.07Q36.82 3.10 36.46 3.14L36.46 3.14L36.46 12L33.51 12ZM50.82-2.52L50.82-2.52Q50.82-1.66 50.26-1.15Q49.71-0.65 48.94-0.65L48.94-0.65Q48.18-0.65 47.64-1.15Q47.10-1.66 47.10-2.52L47.10-2.52Q47.10-3.41 47.64-3.91Q48.18-4.42 48.94-4.42L48.94-4.42Q49.71-4.42 50.26-3.91Q50.82-3.41 50.82-2.52ZM54.82 9.14L55.21 11.52Q54.30 11.95 53.49 12.11Q52.69 12.26 52.02 12.26L52.02 12.26Q50.86 12.26 50.08 11.93Q49.30 11.59 48.84 10.96Q48.37 10.32 48.18 9.41Q47.98 8.50 47.98 7.32L47.98 7.32L47.98 3.17L44.86 3.17L44.86 0.72L50.94 0.72L50.94 7.70Q50.94 8.71 51.31 9.20Q51.68 9.70 52.54 9.70L52.54 9.70Q52.95 9.70 53.53 9.59Q54.10 9.48 54.82 9.14L54.82 9.14ZM59.43 7.80L59.43 3.17L56.86 3.17L56.86 0.72L59.43 0.72L59.43-2.11L62.38-2.59L62.38 0.72L67.11 0.72L67.11 3.17L62.38 3.17L62.38 7.73Q62.38 8.35 62.50 8.74Q62.62 9.12 62.84 9.34Q63.06 9.55 63.37 9.62Q63.68 9.70 64.06 9.70L64.06 9.70Q64.47 9.70 64.82 9.67Q65.17 9.65 65.49 9.59Q65.82 9.53 66.16 9.41Q66.51 9.29 66.92 9.10L66.92 9.10L67.33 11.64Q66.51 11.98 65.56 12.12Q64.62 12.26 63.73 12.26L63.73 12.26Q62.70 12.26 61.90 12.10Q61.11 11.93 60.56 11.45Q60.01 10.97 59.72 10.09Q59.43 9.22 59.43 7.80L59.43 7.80ZM76.30 0.72L79.33 0.72Q78.87 2.30 78.45 3.83Q78.03 5.35 77.58 6.80Q77.12 8.26 76.60 9.65Q76.09 11.04 75.49 12.36L75.49 12.36Q75.03 13.32 74.59 14.02Q74.14 14.71 73.60 15.16Q73.06 15.60 72.40 15.82Q71.74 16.03 70.86 16.03L70.86 16.03Q70.11 16.03 69.50 15.91Q68.89 15.79 68.48 15.60L68.48 15.60L69.03 13.13Q69.51 13.34 69.88 13.43Q70.26 13.51 70.69 13.51L70.69 13.51Q71.55 13.51 72.08 12.94Q72.61 12.36 72.92 11.57L72.92 11.57Q71.86 9.46 70.81 6.73Q69.75 4.01 68.89 0.72L68.89 0.72L71.96 0.72Q72.18 1.61 72.45 2.62Q72.73 3.62 73.04 4.63Q73.35 5.64 73.70 6.61Q74.05 7.58 74.41 8.42L74.41 8.42Q74.65 7.58 74.91 6.61Q75.18 5.64 75.42 4.64Q75.66 3.65 75.88 2.64Q76.11 1.63 76.30 0.72L76.30 0.72ZM85.11 12.31L85.11 12.31Q84.56 12.31 83.95 12.23Q83.34 12.14 82.77 12.02Q82.21 11.90 81.73 11.76Q81.25 11.62 80.98 11.50L80.98 11.50L81.56 9.02Q82.11 9.26 82.99 9.53Q83.86 9.79 85.09 9.79L85.09 9.79Q86.60 9.79 87.21 9.14Q87.82 8.50 87.82 7.54L87.82 7.54Q87.82 6.36 86.89 5.89Q85.95 5.42 84.51 5.42L84.51 5.42L83.60 5.42L83.60 2.98L84.70 2.98Q85.16 2.98 85.62 2.88Q86.07 2.78 86.43 2.57Q86.79 2.35 87.02 1.99Q87.25 1.63 87.25 1.08L87.25 1.08Q87.25 0.26 86.76-0.20Q86.26-0.67 85.40-0.67L85.40-0.67Q84.56-0.67 83.73-0.40Q82.90-0.12 82.30 0.29L82.30 0.29L81.25-1.87Q81.90-2.30 82.96-2.75Q84.03-3.19 85.38-3.19L85.38-3.19Q86.62-3.19 87.55-2.88Q88.47-2.57 89.07-2.00Q89.67-1.44 89.96-0.67Q90.25 0.10 90.25 0.98L90.25 0.98Q90.25 1.87 89.74 2.69Q89.24 3.50 88.40 3.94L88.40 3.94Q89.55 4.42 90.19 5.35Q90.82 6.29 90.82 7.58L90.82 7.58Q90.82 8.62 90.49 9.48Q90.15 10.34 89.46 10.98Q88.76 11.62 87.68 11.96Q86.60 12.31 85.11 12.31ZM96.25-0.38L96.25 9.60Q96.37 9.62 96.51 9.62Q96.66 9.62 96.78 9.62L96.78 9.62Q97.78 9.62 98.47 9.24Q99.15 8.86 99.57 8.18Q99.99 7.51 100.17 6.59Q100.35 5.66 100.35 4.56L100.35 4.56Q100.35 3.60 100.21 2.69Q100.06 1.78 99.70 1.08Q99.34 0.38 98.72-0.04Q98.10-0.46 97.11-0.46L97.11-0.46Q96.92-0.46 96.68-0.44Q96.44-0.43 96.25-0.38L96.25-0.38ZM103.35 4.56L103.35 4.56Q103.35 6.62 102.84 8.08Q102.32 9.53 101.41 10.44Q100.50 11.35 99.24 11.77Q97.98 12.19 96.46 12.19L96.46 12.19Q95.67 12.19 94.92 12.11Q94.16 12.02 93.30 11.83L93.30 11.83L93.30-2.66Q94.30-2.88 95.19-2.95Q96.08-3.02 96.85-3.02L96.85-3.02Q98.31-3.02 99.52-2.59Q100.74-2.16 101.58-1.24Q102.42-0.31 102.88 1.12Q103.35 2.54 103.35 4.56ZM127.78 12L124.62 12L123.92 8.57L119.96 8.57L119.29 12L116.22 12Q117.27 7.61 118.35 4.00Q119.43 0.38 120.44-2.86L120.44-2.86L123.66-2.86Q124.71 0.41 125.76 4.07Q126.80 7.73 127.78 12L127.78 12ZM121.98 0.02L121.98 0.02Q121.74 0.86 121.53 1.62Q121.33 2.38 121.15 3.11Q120.97 3.84 120.81 4.58Q120.66 5.33 120.51 6.12L120.51 6.12L123.42 6.12Q123.27 5.33 123.13 4.58Q122.98 3.84 122.80 3.11Q122.62 2.38 122.42 1.62Q122.22 0.86 121.98 0.02ZM133.47 9.77L133.47 9.77Q134.55 9.77 135.13 9.61Q135.70 9.46 135.70 8.98L135.70 8.98Q135.70 8.66 135.52 8.45Q135.34 8.23 135.02 8.08Q134.70 7.92 134.28 7.78Q133.86 7.63 133.40 7.49L133.40 7.49Q132.75 7.30 132.08 7.04Q131.41 6.79 130.86 6.41Q130.30 6.02 129.94 5.44Q129.58 4.85 129.58 3.96L129.58 3.96Q129.58 3.24 129.86 2.60Q130.14 1.97 130.72 1.48Q131.31 0.98 132.22 0.71Q133.14 0.43 134.41 0.43L134.41 0.43Q135.51 0.43 136.46 0.60Q137.41 0.77 138.10 1.08L138.10 1.08L137.65 3.58Q137.24 3.46 136.38 3.18Q135.51 2.90 134.43 2.90L134.43 2.90Q133.30 2.90 132.91 3.18Q132.51 3.46 132.51 3.77L132.51 3.77Q132.51 4.03 132.69 4.24Q132.87 4.44 133.17 4.61Q133.47 4.78 133.87 4.93Q134.26 5.09 134.72 5.23L134.72 5.23Q135.37 5.45 136.06 5.71Q136.76 5.98 137.32 6.37Q137.89 6.77 138.25 7.38Q138.61 7.99 138.61 8.88L138.61 8.88Q138.61 9.58 138.34 10.20Q138.08 10.82 137.47 11.28Q136.86 11.74 135.87 12Q134.89 12.26 133.45 12.26L133.45 12.26Q131.98 12.26 130.95 11.93Q129.92 11.59 129.30 11.33L129.30 11.33L129.75 8.86Q130.59 9.19 131.54 9.48Q132.49 9.77 133.47 9.77ZM145.47 9.77L145.47 9.77Q146.55 9.77 147.13 9.61Q147.70 9.46 147.70 8.98L147.70 8.98Q147.70 8.66 147.52 8.45Q147.34 8.23 147.02 8.08Q146.70 7.92 146.28 7.78Q145.86 7.63 145.40 7.49L145.40 7.49Q144.75 7.30 144.08 7.04Q143.41 6.79 142.86 6.41Q142.30 6.02 141.94 5.44Q141.58 4.85 141.58 3.96L141.58 3.96Q141.58 3.24 141.86 2.60Q142.14 1.97 142.72 1.48Q143.31 0.98 144.22 0.71Q145.14 0.43 146.41 0.43L146.41 0.43Q147.51 0.43 148.46 0.60Q149.41 0.77 150.10 1.08L150.10 1.08L149.65 3.58Q149.24 3.46 148.38 3.18Q147.51 2.90 146.43 2.90L146.43 2.90Q145.30 2.90 144.91 3.18Q144.51 3.46 144.51 3.77L144.51 3.77Q144.51 4.03 144.69 4.24Q144.87 4.44 145.17 4.61Q145.47 4.78 145.87 4.93Q146.26 5.09 146.72 5.23L146.72 5.23Q147.37 5.45 148.06 5.71Q148.76 5.98 149.32 6.37Q149.89 6.77 150.25 7.38Q150.61 7.99 150.61 8.88L150.61 8.88Q150.61 9.58 150.34 10.20Q150.08 10.82 149.47 11.28Q148.86 11.74 147.87 12Q146.89 12.26 145.45 12.26L145.45 12.26Q143.98 12.26 142.95 11.93Q141.92 11.59 141.30 11.33L141.30 11.33L141.75 8.86Q142.59 9.19 143.54 9.48Q144.49 9.77 145.47 9.77ZM152.74 6.46L152.74 6.46Q152.74 4.97 153.20 3.84Q153.66 2.71 154.40 1.96Q155.14 1.20 156.10 0.82Q157.06 0.43 158.07 0.43L158.07 0.43Q160.57 0.43 161.86 1.91Q163.16 3.38 163.16 6.22L163.16 6.22Q163.16 6.50 163.15 6.82Q163.14 7.13 163.11 7.32L163.11 7.32L155.79 7.32Q155.79 8.42 156.70 9.06Q157.62 9.70 159.06 9.70L159.06 9.70Q159.94 9.70 160.75 9.50Q161.55 9.31 162.10 9.12L162.10 9.12L162.51 11.64Q161.74 11.90 160.88 12.08Q160.02 12.26 158.94 12.26L158.94 12.26Q157.50 12.26 156.36 11.89Q155.22 11.52 154.41 10.79Q153.61 10.06 153.18 8.98Q152.74 7.90 152.74 6.46ZM155.79 5.28L160.30 5.28Q160.30 4.82 160.18 4.40Q160.06 3.98 159.80 3.65Q159.54 3.31 159.13 3.11Q158.72 2.90 158.12 2.90L158.12 2.90Q157.54 2.90 157.12 3.10Q156.70 3.29 156.43 3.62Q156.15 3.96 156.00 4.39Q155.84 4.82 155.79 5.28L155.79 5.28ZM167.43 7.80L167.43 3.17L164.86 3.17L164.86 0.72L167.43 0.72L167.43-2.11L170.38-2.59L170.38 0.72L175.11 0.72L175.11 3.17L170.38 3.17L170.38 7.73Q170.38 8.35 170.50 8.74Q170.62 9.12 170.84 9.34Q171.06 9.55 171.37 9.62Q171.68 9.70 172.06 9.70L172.06 9.70Q172.47 9.70 172.82 9.67Q173.17 9.65 173.49 9.59Q173.82 9.53 174.16 9.41Q174.51 9.29 174.92 9.10L174.92 9.10L175.33 11.64Q174.51 11.98 173.56 12.12Q172.62 12.26 171.73 12.26L171.73 12.26Q170.70 12.26 169.90 12.10Q169.11 11.93 168.56 11.45Q168.01 10.97 167.72 10.09Q167.43 9.22 167.43 7.80L167.43 7.80Z"/>
    </g>
</svg>