<?xml version="1.0" encoding="UTF-8"?>
<svg height="26" width="147.3" version="1.1" xmlns="http://www.w3.org/2000/svg"><!--Created by Josélio de S. C. Júnior - 2021 - https://github.com/joseliojunior -->
    <rect
        height="24"
        width="145.3"
        rx="1"
        ry="1"
        x="1" y="1"
        fill="#222c37"
        stroke="#5b7795"
        stroke-width="1" />
    <g transform="translate(0, 8)">
        <path fill="#5b7795" stroke="none" d="M23.97 10.21L23.97 10.21Q23.01 10.21 22.36 9.94Q21.71 9.68 21.33 9.18Q20.94 8.69 20.78 7.98Q20.62 7.28 20.62 6.42L20.62 6.42L20.62 0.10L22.61 0.10L22.61 6.29Q22.61 6.91 22.67 7.34Q22.74 7.76 22.89 8.02Q23.04 8.27 23.31 8.38Q23.58 8.50 24 8.50L24 8.50Q24.42 8.50 24.69 8.38Q24.96 8.27 25.12 8.01Q25.28 7.74 25.34 7.32Q25.41 6.90 25.41 6.27L25.41 6.27L25.41 0.10L27.38 0.10L27.38 6.42Q27.38 7.28 27.22 7.98Q27.06 8.69 26.66 9.18Q26.26 9.68 25.60 9.94Q24.94 10.21 23.97 10.21ZM29.01 10L29.01 2.72Q29.54 2.58 30.31 2.45Q31.09 2.32 32 2.32L32 2.32Q32.90 2.32 33.49 2.57Q34.08 2.82 34.42 3.27Q34.77 3.73 34.91 4.36Q35.06 4.99 35.06 5.76L35.06 5.76L35.06 10L33.09 10L33.09 6.02Q33.09 4.96 32.85 4.50Q32.61 4.03 31.87 4.03L31.87 4.03Q31.65 4.03 31.43 4.05Q31.22 4.06 30.98 4.10L30.98 4.10L30.98 10L29.01 10ZM40.54 0.32L40.54 0.32Q40.54 0.90 40.18 1.23Q39.81 1.57 39.30 1.57L39.30 1.57Q38.78 1.57 38.42 1.23Q38.06 0.90 38.06 0.32L38.06 0.32Q38.06-0.27 38.42-0.61Q38.78-0.94 39.30-0.94L39.30-0.94Q39.81-0.94 40.18-0.61Q40.54-0.27 40.54 0.32ZM43.22 8.10L43.47 9.68Q42.86 9.97 42.33 10.07Q41.79 10.18 41.34 10.18L41.34 10.18Q40.58 10.18 40.06 9.95Q39.54 9.73 39.22 9.30Q38.91 8.88 38.78 8.27Q38.66 7.66 38.66 6.88L38.66 6.88L38.66 4.11L36.58 4.11L36.58 2.48L40.62 2.48L40.62 7.14Q40.62 7.81 40.87 8.14Q41.12 8.46 41.70 8.46L41.70 8.46Q41.97 8.46 42.35 8.39Q42.74 8.32 43.22 8.10L43.22 8.10ZM46.29 7.20L46.29 4.11L44.58 4.11L44.58 2.48L46.29 2.48L46.29 0.59L48.26 0.27L48.26 2.48L51.41 2.48L51.41 4.11L48.26 4.11L48.26 7.15Q48.26 7.57 48.34 7.82Q48.42 8.08 48.56 8.22Q48.70 8.37 48.91 8.42Q49.12 8.46 49.38 8.46L49.38 8.46Q49.65 8.46 49.88 8.45Q50.11 8.43 50.33 8.39Q50.54 8.35 50.78 8.27Q51.01 8.19 51.28 8.06L51.28 8.06L51.55 9.76Q51.01 9.98 50.38 10.08Q49.74 10.18 49.15 10.18L49.15 10.18Q48.46 10.18 47.94 10.06Q47.41 9.95 47.04 9.63Q46.67 9.31 46.48 8.73Q46.29 8.14 46.29 7.20L46.29 7.20ZM57.54 2.48L59.55 2.48Q59.25 3.54 58.97 4.55Q58.69 5.57 58.38 6.54Q58.08 7.50 57.74 8.43Q57.39 9.36 56.99 10.24L56.99 10.24Q56.69 10.88 56.39 11.34Q56.10 11.81 55.74 12.10Q55.38 12.40 54.94 12.54Q54.50 12.69 53.90 12.69L53.90 12.69Q53.41 12.69 53 12.61Q52.59 12.53 52.32 12.40L52.32 12.40L52.69 10.75Q53.01 10.90 53.26 10.95Q53.50 11.01 53.79 11.01L53.79 11.01Q54.37 11.01 54.72 10.62Q55.07 10.24 55.28 9.71L55.28 9.71Q54.58 8.30 53.87 6.49Q53.17 4.67 52.59 2.48L52.59 2.48L54.64 2.48Q54.78 3.07 54.97 3.74Q55.15 4.42 55.36 5.09Q55.57 5.76 55.80 6.41Q56.03 7.06 56.27 7.62L56.27 7.62Q56.43 7.06 56.61 6.41Q56.78 5.76 56.94 5.10Q57.10 4.43 57.26 3.76Q57.41 3.09 57.54 2.48L57.54 2.48ZM63.41 10.21L63.41 10.21Q63.04 10.21 62.63 10.15Q62.22 10.10 61.85 10.02Q61.47 9.94 61.15 9.84Q60.83 9.74 60.66 9.66L60.66 9.66L61.04 8.02Q61.41 8.18 61.99 8.35Q62.58 8.53 63.39 8.53L63.39 8.53Q64.40 8.53 64.81 8.10Q65.22 7.66 65.22 7.02L65.22 7.02Q65.22 6.24 64.59 5.93Q63.97 5.62 63.01 5.62L63.01 5.62L62.40 5.62L62.40 3.98L63.14 3.98Q63.44 3.98 63.74 3.92Q64.05 3.86 64.29 3.71Q64.53 3.57 64.68 3.33Q64.83 3.09 64.83 2.72L64.83 2.72Q64.83 2.18 64.50 1.86Q64.18 1.55 63.60 1.55L63.60 1.55Q63.04 1.55 62.49 1.74Q61.94 1.92 61.54 2.19L61.54 2.19L60.83 0.75Q61.26 0.46 61.98 0.17Q62.69-0.13 63.58-0.13L63.58-0.13Q64.42-0.13 65.03 0.08Q65.65 0.29 66.05 0.66Q66.45 1.04 66.64 1.55Q66.83 2.06 66.83 2.66L66.83 2.66Q66.83 3.25 66.50 3.79Q66.16 4.34 65.60 4.62L65.60 4.62Q66.37 4.94 66.79 5.57Q67.22 6.19 67.22 7.06L67.22 7.06Q67.22 7.74 66.99 8.32Q66.77 8.90 66.30 9.32Q65.84 9.74 65.12 9.98Q64.40 10.21 63.41 10.21ZM70.83 1.74L70.83 8.40Q70.91 8.42 71.01 8.42Q71.10 8.42 71.18 8.42L71.18 8.42Q71.86 8.42 72.31 8.16Q72.77 7.90 73.05 7.46Q73.33 7.01 73.45 6.39Q73.57 5.78 73.57 5.04L73.57 5.04Q73.57 4.40 73.47 3.79Q73.38 3.18 73.14 2.72Q72.90 2.26 72.48 1.98Q72.06 1.70 71.41 1.70L71.41 1.70Q71.28 1.70 71.12 1.70Q70.96 1.71 70.83 1.74L70.83 1.74ZM75.57 5.04L75.57 5.04Q75.57 6.42 75.22 7.38Q74.88 8.35 74.27 8.96Q73.66 9.57 72.82 9.85Q71.98 10.13 70.98 10.13L70.98 10.13Q70.45 10.13 69.94 10.07Q69.44 10.02 68.86 9.89L68.86 9.89L68.86 0.22Q69.54 0.08 70.13 0.03Q70.72-0.02 71.23-0.02L71.23-0.02Q72.21-0.02 73.02 0.27Q73.82 0.56 74.38 1.18Q74.94 1.79 75.26 2.74Q75.57 3.70 75.57 5.04ZM91.86 10L89.74 10L89.28 7.71L86.64 7.71L86.19 10L84.14 10Q84.85 7.07 85.57 4.66Q86.29 2.26 86.96 0.10L86.96 0.10L89.10 0.10Q89.81 2.27 90.50 4.71Q91.20 7.15 91.86 10L91.86 10ZM87.98 2.02L87.98 2.02Q87.82 2.58 87.69 3.08Q87.55 3.58 87.43 4.07Q87.31 4.56 87.21 5.06Q87.10 5.55 87.01 6.08L87.01 6.08L88.94 6.08Q88.85 5.55 88.75 5.06Q88.66 4.56 88.54 4.07Q88.42 3.58 88.28 3.08Q88.14 2.58 87.98 2.02ZM95.65 8.51L95.65 8.51Q96.37 8.51 96.75 8.41Q97.14 8.30 97.14 7.98L97.14 7.98Q97.14 7.78 97.02 7.63Q96.90 7.49 96.68 7.38Q96.46 7.28 96.18 7.18Q95.90 7.09 95.60 6.99L95.60 6.99Q95.17 6.86 94.72 6.70Q94.27 6.53 93.90 6.27Q93.54 6.02 93.30 5.62Q93.06 5.23 93.06 4.64L93.06 4.64Q93.06 4.16 93.24 3.74Q93.42 3.31 93.82 2.98Q94.21 2.66 94.82 2.47Q95.42 2.29 96.27 2.29L96.27 2.29Q97.01 2.29 97.64 2.40Q98.27 2.51 98.74 2.72L98.74 2.72L98.43 4.38Q98.16 4.30 97.58 4.12Q97.01 3.94 96.29 3.94L96.29 3.94Q95.54 3.94 95.27 4.12Q95.01 4.30 95.01 4.51L95.01 4.51Q95.01 4.69 95.13 4.82Q95.25 4.96 95.45 5.07Q95.65 5.18 95.91 5.29Q96.18 5.39 96.48 5.49L96.48 5.49Q96.91 5.63 97.38 5.81Q97.84 5.98 98.22 6.25Q98.59 6.51 98.83 6.92Q99.07 7.33 99.07 7.92L99.07 7.92Q99.07 8.38 98.90 8.80Q98.72 9.22 98.31 9.52Q97.90 9.82 97.25 10Q96.59 10.18 95.63 10.18L95.63 10.18Q94.66 10.18 93.97 9.95Q93.28 9.73 92.86 9.55L92.86 9.55L93.17 7.90Q93.73 8.13 94.36 8.32Q94.99 8.51 95.65 8.51ZM103.65 8.51L103.65 8.51Q104.37 8.51 104.75 8.41Q105.14 8.30 105.14 7.98L105.14 7.98Q105.14 7.78 105.02 7.63Q104.90 7.49 104.68 7.38Q104.46 7.28 104.18 7.18Q103.90 7.09 103.60 6.99L103.60 6.99Q103.17 6.86 102.72 6.70Q102.27 6.53 101.90 6.27Q101.54 6.02 101.30 5.62Q101.06 5.23 101.06 4.64L101.06 4.64Q101.06 4.16 101.24 3.74Q101.42 3.31 101.82 2.98Q102.21 2.66 102.82 2.47Q103.42 2.29 104.27 2.29L104.27 2.29Q105.01 2.29 105.64 2.40Q106.27 2.51 106.74 2.72L106.74 2.72L106.43 4.38Q106.16 4.30 105.58 4.12Q105.01 3.94 104.29 3.94L104.29 3.94Q103.54 3.94 103.27 4.12Q103.01 4.30 103.01 4.51L103.01 4.51Q103.01 4.69 103.13 4.82Q103.25 4.96 103.45 5.07Q103.65 5.18 103.91 5.29Q104.18 5.39 104.48 5.49L104.48 5.49Q104.91 5.63 105.38 5.81Q105.84 5.98 106.22 6.25Q106.59 6.51 106.83 6.92Q107.07 7.33 107.07 7.92L107.07 7.92Q107.07 8.38 106.90 8.80Q106.72 9.22 106.31 9.52Q105.90 9.82 105.25 10Q104.59 10.18 103.63 10.18L103.63 10.18Q102.66 10.18 101.97 9.95Q101.28 9.73 100.86 9.55L100.86 9.55L101.17 7.90Q101.73 8.13 102.36 8.32Q102.99 8.51 103.65 8.51ZM108.50 6.30L108.50 6.30Q108.50 5.31 108.80 4.56Q109.10 3.81 109.60 3.30Q110.10 2.80 110.74 2.54Q111.38 2.29 112.05 2.29L112.05 2.29Q113.71 2.29 114.58 3.27Q115.44 4.26 115.44 6.14L115.44 6.14Q115.44 6.34 115.43 6.54Q115.42 6.75 115.41 6.88L115.41 6.88L110.53 6.88Q110.53 7.62 111.14 8.04Q111.74 8.46 112.70 8.46L112.70 8.46Q113.30 8.46 113.83 8.34Q114.37 8.21 114.74 8.08L114.74 8.08L115.01 9.76Q114.50 9.94 113.92 10.06Q113.34 10.18 112.62 10.18L112.62 10.18Q111.66 10.18 110.90 9.93Q110.14 9.68 109.61 9.19Q109.07 8.70 108.78 7.98Q108.50 7.26 108.50 6.30ZM110.53 5.52L113.54 5.52Q113.54 5.22 113.46 4.94Q113.38 4.66 113.20 4.43Q113.02 4.21 112.75 4.07Q112.48 3.94 112.08 3.94L112.08 3.94Q111.70 3.94 111.42 4.06Q111.14 4.19 110.95 4.42Q110.77 4.64 110.66 4.93Q110.56 5.22 110.53 5.52L110.53 5.52ZM118.29 7.20L118.29 4.11L116.58 4.11L116.58 2.48L118.29 2.48L118.29 0.59L120.26 0.27L120.26 2.48L123.41 2.48L123.41 4.11L120.26 4.11L120.26 7.15Q120.26 7.57 120.34 7.82Q120.42 8.08 120.56 8.22Q120.70 8.37 120.91 8.42Q121.12 8.46 121.38 8.46L121.38 8.46Q121.65 8.46 121.88 8.45Q122.11 8.43 122.33 8.39Q122.54 8.35 122.78 8.27Q123.01 8.19 123.28 8.06L123.28 8.06L123.55 9.76Q123.01 9.98 122.38 10.08Q121.74 10.18 121.15 10.18L121.15 10.18Q120.46 10.18 119.94 10.06Q119.41 9.95 119.04 9.63Q118.67 9.31 118.48 8.73Q118.29 8.14 118.29 7.20L118.29 7.20Z"/>
    </g>
</svg>