<?xml version="1.0" encoding="UTF-8"?>
<svg height="34" width="78.3" version="1.1" xmlns="http://www.w3.org/2000/svg"><!--Created by Josélio de S. C. Júnior - 2021 - https://github.com/joseliojunior -->
    <rect
        height="32"
        width="76.3"
        rx="16"
        ry="16"
        x="1" y="1"
        fill="#42f1f4"
        stroke="#099395"
        stroke-width="1" />
    <g transform="translate(0, 12)">
        <path fill="#099395" stroke="none" d="M29.96 12L27.73 12Q27.46 11.26 27.24 10.63Q27.01 10.01 26.80 9.42Q26.60 8.83 26.40 8.20Q26.19 7.56 25.98 6.79L25.98 6.79Q25.74 7.56 25.54 8.17Q25.35 8.78 25.15 9.38Q24.94 9.98 24.73 10.61Q24.51 11.23 24.20 12L24.20 12L21.97 12Q21.68 10.94 21.43 9.66Q21.18 8.38 20.96 6.92Q20.74 5.47 20.58 3.91Q20.41 2.35 20.26 0.72L20.26 0.72L22.78 0.72Q22.88 2.81 22.99 4.80Q23.10 6.79 23.38 8.90L23.38 8.90Q23.70 7.99 23.92 7.21Q24.15 6.43 24.33 5.72Q24.51 5.02 24.67 4.36Q24.82 3.70 24.99 3L24.99 3L27.13 3Q27.27 3.70 27.43 4.36Q27.58 5.02 27.76 5.72Q27.94 6.43 28.15 7.21Q28.35 7.99 28.64 8.90L28.64 8.90Q28.78 7.80 28.88 6.79Q28.98 5.78 29.04 4.79Q29.10 3.79 29.13 2.80Q29.17 1.80 29.22 0.72L29.22 0.72L31.74 0.72Q31.47 4.01 31.00 6.91Q30.54 9.82 29.96 12L29.96 12ZM35.67 6.29L35.67 6.29Q35.67 7.80 36.24 8.76Q36.80 9.72 38.05 9.72L38.05 9.72Q38.41 9.72 38.72 9.70Q39.03 9.67 39.37 9.62L39.37 9.62L39.37 3.48Q39.03 3.29 38.60 3.16Q38.17 3.02 37.69 3.02L37.69 3.02Q36.63 3.02 36.15 3.86Q35.67 4.70 35.67 6.29ZM42.32-4.66L42.32 11.66Q41.50 11.93 40.33 12.10Q39.15 12.26 38.02 12.26L38.02 12.26Q35.38 12.26 34.03 10.70Q32.67 9.14 32.67 6.43L32.67 6.43Q32.67 3.67 33.81 2.08Q34.95 0.48 37.18 0.48L37.18 0.48Q37.78 0.48 38.36 0.61Q38.94 0.74 39.37 0.98L39.37 0.98L39.37-4.15L42.32-4.66ZM54.82 9.14L55.21 11.52Q55.14 11.57 54.88 11.69Q54.63 11.81 54.22 11.94Q53.82 12.07 53.23 12.17Q52.64 12.26 51.90 12.26L51.90 12.26Q49.86 12.26 48.92 11.05Q47.98 9.84 47.98 7.51L47.98 7.51L47.98-2.06L44.86-2.06L44.86-4.51L50.94-4.51L50.94 7.73Q50.94 8.88 51.39 9.29Q51.85 9.70 52.54 9.70L52.54 9.70Q53.43 9.70 54.03 9.46Q54.63 9.22 54.82 9.14L54.82 9.14Z"/>
    </g>
</svg>