<?xml version="1.0" encoding="UTF-8"?><svg height="26" width="66.3" version="1.1" xmlns="http://www.w3.org/2000/svg"><!--Created by Josélio de S. C. Júnior - 2021 - https://github.com/joseliojunior --><rect height="24" width="64.3" rx="1" ry="1" x="1" y="1" fill="#42f1f4" stroke="#099395" stroke-width="1" /><g transform="translate(0, 8)"><path fill="#099395" d="M26.64 10L25.15 10Q24.98 9.50 24.82 9.09Q24.67 8.67 24.54 8.28Q24.40 7.89 24.26 7.46Q24.13 7.04 23.98 6.53L23.98 6.53Q23.82 7.04 23.70 7.45Q23.57 7.86 23.43 8.26Q23.30 8.66 23.15 9.07Q23.01 9.49 22.80 10L22.80 10L21.31 10Q21.12 9.30 20.95 8.44Q20.78 7.58 20.64 6.62Q20.50 5.65 20.38 4.61Q20.27 3.57 20.18 2.48L20.18 2.48L21.86 2.48Q21.92 3.87 21.99 5.20Q22.06 6.53 22.26 7.94L22.26 7.94Q22.46 7.33 22.62 6.81Q22.77 6.29 22.89 5.82Q23.01 5.34 23.11 4.90Q23.22 4.46 23.33 4L23.33 4L24.75 4Q24.85 4.46 24.95 4.90Q25.06 5.34 25.18 5.82Q25.30 6.29 25.43 6.81Q25.57 7.33 25.76 7.94L25.76 7.94Q25.86 7.20 25.92 6.53Q25.98 5.86 26.02 5.19Q26.06 4.53 26.09 3.86Q26.11 3.20 26.14 2.48L26.14 2.48L27.82 2.48Q27.65 4.67 27.34 6.61Q27.02 8.54 26.64 10L26.64 10ZM30.45 6.19L30.45 6.19Q30.45 7.20 30.82 7.84Q31.20 8.48 32.03 8.48L32.03 8.48Q32.27 8.48 32.48 8.46Q32.69 8.45 32.91 8.42L32.91 8.42L32.91 4.32Q32.69 4.19 32.40 4.10Q32.11 4.02 31.79 4.02L31.79 4.02Q31.09 4.02 30.77 4.58Q30.45 5.14 30.45 6.19ZM34.88-1.10L34.88 9.78Q34.34 9.95 33.55 10.06Q32.77 10.18 32.02 10.18L32.02 10.18Q30.26 10.18 29.35 9.14Q28.45 8.10 28.45 6.29L28.45 6.29Q28.45 4.45 29.21 3.38Q29.97 2.32 31.46 2.32L31.46 2.32Q31.86 2.32 32.24 2.41Q32.62 2.50 32.91 2.66L32.91 2.66L32.91-0.77L34.88-1.10ZM43.22 8.10L43.47 9.68Q43.42 9.71 43.26 9.79Q43.09 9.87 42.82 9.96Q42.54 10.05 42.15 10.11Q41.76 10.18 41.26 10.18L41.26 10.18Q39.90 10.18 39.28 9.37Q38.66 8.56 38.66 7.01L38.66 7.01L38.66 0.62L36.58 0.62L36.58-1.01L40.62-1.01L40.62 7.15Q40.62 7.92 40.93 8.19Q41.23 8.46 41.70 8.46L41.70 8.46Q42.29 8.46 42.69 8.30Q43.09 8.14 43.22 8.10L43.22 8.10Z"/></g></svg>