<?xml version="1.0" encoding="UTF-8"?><svg height="34" width="114.6" version="1.1" xmlns="http://www.w3.org/2000/svg"><!--Created by Josélio de S. C. Júnior - 2021 - https://github.com/joseliojunior --><defs><pattern id="pattern" x="3" y="3" width="6" height="6" patternUnits="userSpaceOnUse" patternTransform="rotate(45)"><rect height="6" width="6" fill="#ffffff"/><line x1="0" y1="0" x2="0" y2="6" stroke="#bbbbbb" stroke-width="2" /></pattern></defs><rect height="32" width="112.6" rx="16" ry="16" x="1" y="1" fill="url(#pattern)" /><g transform="translate(0, 12)"><path fill="#000000" d="M25.38-3.02L25.38-3.02Q28.21-3.02 29.77-1.86Q31.33-0.70 31.33 1.94L31.33 1.94Q31.33 4.61 29.76 5.80Q28.18 6.98 25.30 6.98L25.30 6.98L24.25 6.98L24.25 12L21.30 12L21.30-2.66Q21.73-2.76 22.27-2.83Q22.81-2.90 23.36-2.94Q23.91-2.98 24.44-3Q24.97-3.02 25.38-3.02ZM25.71-0.46L25.71-0.46Q25.45-0.46 24.98-0.44Q24.51-0.43 24.25-0.38L24.25-0.38L24.25 4.42L25.45 4.42Q26.86 4.42 27.58 3.85Q28.30 3.29 28.30 1.92L28.30 1.92Q28.30 0.62 27.60 0.08Q26.89-0.46 25.71-0.46ZM38.82-2.52L38.82-2.52Q38.82-1.66 38.26-1.15Q37.71-0.65 36.94-0.65L36.94-0.65Q36.18-0.65 35.64-1.15Q35.10-1.66 35.10-2.52L35.10-2.52Q35.10-3.41 35.64-3.91Q36.18-4.42 36.94-4.42L36.94-4.42Q37.71-4.42 38.26-3.91Q38.82-3.41 38.82-2.52ZM42.82 9.14L43.21 11.52Q42.30 11.95 41.49 12.11Q40.69 12.26 40.02 12.26L40.02 12.26Q38.86 12.26 38.08 11.93Q37.30 11.59 36.84 10.96Q36.37 10.32 36.18 9.41Q35.98 8.50 35.98 7.32L35.98 7.32L35.98 3.17L32.86 3.17L32.86 0.72L38.94 0.72L38.94 7.70Q38.94 8.71 39.31 9.20Q39.68 9.70 40.54 9.70L40.54 9.70Q40.95 9.70 41.53 9.59Q42.10 9.48 42.82 9.14L42.82 9.14ZM45.06 6.36L45.06 6.36Q45.06 5.14 45.44 4.06Q45.82 2.98 46.62 2.17Q47.41 1.37 48.62 0.90Q49.83 0.43 51.51 0.43L51.51 0.43Q52.52 0.43 53.34 0.58Q54.15 0.72 54.99 1.06L54.99 1.06L54.34 3.43Q53.86 3.26 53.28 3.13Q52.69 3 51.78 3L51.78 3Q50.72 3 50.01 3.25Q49.30 3.50 48.87 3.95Q48.44 4.39 48.25 5.02Q48.06 5.64 48.06 6.36L48.06 6.36Q48.06 7.92 48.93 8.81Q49.81 9.70 51.92 9.70L51.92 9.70Q52.62 9.70 53.37 9.60Q54.13 9.50 54.75 9.29L54.75 9.29L55.18 11.71Q54.56 11.95 53.67 12.11Q52.78 12.26 51.58 12.26L51.58 12.26Q49.86 12.26 48.62 11.81Q47.38 11.35 46.59 10.56Q45.80 9.77 45.43 8.69Q45.06 7.61 45.06 6.36ZM60.49-4.66L60.49 5.18Q60.92 4.68 61.36 4.12Q61.81 3.55 62.23 2.95Q62.65 2.35 63.03 1.79Q63.42 1.22 63.70 0.72L63.70 0.72L67.26 0.72Q66.82 1.27 66.27 1.92Q65.72 2.57 65.13 3.24Q64.54 3.91 63.96 4.54Q63.37 5.16 62.89 5.69L62.89 5.69Q63.49 6.26 64.18 7.07Q64.88 7.87 65.55 8.74Q66.22 9.60 66.79 10.46Q67.35 11.33 67.69 12L67.69 12L64.30 12Q64.02 11.40 63.55 10.64Q63.08 9.89 62.55 9.16Q62.02 8.42 61.48 7.76Q60.94 7.10 60.49 6.67L60.49 6.67L60.49 12L57.51 12L57.51-4.15L60.49-4.66ZM78.82 9.14L79.21 11.52Q79.14 11.57 78.88 11.69Q78.63 11.81 78.22 11.94Q77.82 12.07 77.23 12.17Q76.64 12.26 75.90 12.26L75.90 12.26Q73.86 12.26 72.92 11.05Q71.98 9.84 71.98 7.51L71.98 7.51L71.98-2.06L68.86-2.06L68.86-4.51L74.94-4.51L74.94 7.73Q74.94 8.88 75.39 9.29Q75.85 9.70 76.54 9.70L76.54 9.70Q77.43 9.70 78.03 9.46Q78.63 9.22 78.82 9.14L78.82 9.14ZM80.74 6.46L80.74 6.46Q80.74 4.97 81.20 3.84Q81.66 2.71 82.40 1.96Q83.14 1.20 84.10 0.82Q85.06 0.43 86.07 0.43L86.07 0.43Q88.57 0.43 89.86 1.91Q91.16 3.38 91.16 6.22L91.16 6.22Q91.16 6.50 91.15 6.82Q91.14 7.13 91.11 7.32L91.11 7.32L83.79 7.32Q83.79 8.42 84.70 9.06Q85.62 9.70 87.06 9.70L87.06 9.70Q87.94 9.70 88.75 9.50Q89.55 9.31 90.10 9.12L90.10 9.12L90.51 11.64Q89.74 11.90 88.88 12.08Q88.02 12.26 86.94 12.26L86.94 12.26Q85.50 12.26 84.36 11.89Q83.22 11.52 82.41 10.79Q81.61 10.06 81.18 8.98Q80.74 7.90 80.74 6.46ZM83.79 5.28L88.30 5.28Q88.30 4.82 88.18 4.40Q88.06 3.98 87.80 3.65Q87.54 3.31 87.13 3.11Q86.72 2.90 86.12 2.90L86.12 2.90Q85.54 2.90 85.12 3.10Q84.70 3.29 84.43 3.62Q84.15 3.96 84.00 4.39Q83.84 4.82 83.79 5.28L83.79 5.28Z"/></g></svg>