<?xml version="1.0" encoding="UTF-8"?>
<svg height="26" width="82.5" version="1.1" xmlns="http://www.w3.org/2000/svg"><!--Created by Josélio de S. C. Júnior - 2021 - https://github.com/joseliojunior -->
    <rect
        height="24"
        width="80.5"
        rx="12"
        ry="12"
        x="1" y="1"
        fill="#7b9db4"
        stroke="#354e5f"
        stroke-width="1" />
    <g transform="translate(0, 8)">
        <path fill="#354e5f" stroke="none" d="M22.98 10L21.01 10L21.01 0.10L27.07 0.10L27.07 1.73L22.98 1.73L22.98 4.13L26.56 4.13L26.56 5.76L22.98 5.76L22.98 10ZM32.02 8.59L32.02 8.59Q32.34 8.59 32.64 8.58Q32.94 8.58 33.17 8.54L33.17 8.54L33.17 6.82Q32.98 6.78 32.70 6.76Q32.43 6.74 32.21 6.74L32.21 6.74Q31.90 6.74 31.62 6.78Q31.33 6.82 31.11 6.91Q30.90 7.01 30.77 7.18Q30.64 7.36 30.64 7.65L30.64 7.65Q30.64 8.16 31.02 8.38Q31.41 8.59 32.02 8.59ZM31.84 2.29L31.84 2.29Q32.77 2.29 33.38 2.50Q34 2.72 34.37 3.11Q34.74 3.50 34.90 4.07Q35.06 4.64 35.06 5.34L35.06 5.34L35.06 9.82Q34.62 9.92 33.78 10.05Q32.93 10.18 31.87 10.18L31.87 10.18Q31.15 10.18 30.57 10.05Q29.98 9.92 29.57 9.62Q29.15 9.33 28.93 8.86Q28.70 8.38 28.70 7.70L28.70 7.70Q28.70 7.04 28.96 6.59Q29.22 6.14 29.65 5.87Q30.08 5.60 30.64 5.48Q31.20 5.36 31.81 5.36L31.81 5.36Q32.58 5.36 33.17 5.49L33.17 5.49L33.17 5.25Q33.17 4.69 32.82 4.31Q32.46 3.94 31.60 3.94L31.60 3.94Q31.04 3.94 30.52 4.02Q30 4.10 29.68 4.21L29.68 4.21L29.41 2.62Q29.78 2.50 30.45 2.39Q31.12 2.29 31.84 2.29ZM37.01 10L37.01 2.72Q37.54 2.58 38.31 2.45Q39.09 2.32 40 2.32L40 2.32Q40.90 2.32 41.49 2.57Q42.08 2.82 42.42 3.27Q42.77 3.73 42.91 4.36Q43.06 4.99 43.06 5.76L43.06 5.76L43.06 10L41.09 10L41.09 6.02Q41.09 4.96 40.85 4.50Q40.61 4.03 39.87 4.03L39.87 4.03Q39.65 4.03 39.43 4.05Q39.22 4.06 38.98 4.10L38.98 4.10L38.98 10L37.01 10ZM44.70 6.24L44.70 6.24Q44.70 5.42 44.96 4.70Q45.22 3.98 45.74 3.45Q46.27 2.91 47.08 2.60Q47.89 2.29 49.01 2.29L49.01 2.29Q49.68 2.29 50.22 2.38Q50.77 2.48 51.33 2.70L51.33 2.70L50.90 4.29Q50.58 4.18 50.18 4.09Q49.79 4 49.18 4L49.18 4Q48.48 4 48.01 4.17Q47.54 4.34 47.25 4.63Q46.96 4.93 46.83 5.34Q46.70 5.76 46.70 6.24L46.70 6.24Q46.70 7.28 47.29 7.87Q47.87 8.46 49.28 8.46L49.28 8.46Q49.74 8.46 50.25 8.40Q50.75 8.34 51.17 8.19L51.17 8.19L51.46 9.81Q51.04 9.97 50.45 10.07Q49.86 10.18 49.06 10.18L49.06 10.18Q47.90 10.18 47.08 9.87Q46.26 9.57 45.73 9.04Q45.20 8.51 44.95 7.79Q44.70 7.07 44.70 6.24ZM57.54 2.48L59.55 2.48Q59.25 3.54 58.97 4.55Q58.69 5.57 58.38 6.54Q58.08 7.50 57.74 8.43Q57.39 9.36 56.99 10.24L56.99 10.24Q56.69 10.88 56.39 11.34Q56.10 11.81 55.74 12.10Q55.38 12.40 54.94 12.54Q54.50 12.69 53.90 12.69L53.90 12.69Q53.41 12.69 53 12.61Q52.59 12.53 52.32 12.40L52.32 12.40L52.69 10.75Q53.01 10.90 53.26 10.95Q53.50 11.01 53.79 11.01L53.79 11.01Q54.37 11.01 54.72 10.62Q55.07 10.24 55.28 9.71L55.28 9.71Q54.58 8.30 53.87 6.49Q53.17 4.67 52.59 2.48L52.59 2.48L54.64 2.48Q54.78 3.07 54.97 3.74Q55.15 4.42 55.36 5.09Q55.57 5.76 55.80 6.41Q56.03 7.06 56.27 7.62L56.27 7.62Q56.43 7.06 56.61 6.41Q56.78 5.76 56.94 5.10Q57.10 4.43 57.26 3.76Q57.41 3.09 57.54 2.48L57.54 2.48Z"/>
    </g>
</svg>