<?xml version="1.0" encoding="UTF-8"?>
<svg height="34" width="275.79999999999995" version="1.1" xmlns="http://www.w3.org/2000/svg">
    <rect
        height="32"
        width="273.79999999999995"
        rx="1"
        ry="1"
        x="1"
        y="1"
        fill="#009a00"
        stroke="#33ff33"
        stroke-width="1"
         />
    <g transform="translate(0, 14)">
        <path fill="#33ff33" d="M15.99-6.53L15.99-6.53Q17.48-6.53 18.68-6.19Q19.88-5.86 20.75-5.16Q21.62-4.46 22.08-3.38Q22.54-2.30 22.54-0.84L22.54-0.84Q22.54 0.67 21.93 1.90Q21.31 3.13 19.88 3.78L19.88 3.78Q20.36 4.50 20.89 5.39Q21.42 6.27 21.93 7.23Q22.43 8.20 22.89 9.17Q23.36 10.13 23.69 11L23.69 11L20.08 11Q19.44 9.32 18.58 7.77Q17.73 6.21 16.75 4.62L16.75 4.62L14.96 4.62L14.96 11L11.51 11L11.51-6.08Q12.02-6.19 12.62-6.29Q13.22-6.39 13.84-6.43Q14.45-6.47 15.01-6.50Q15.57-6.53 15.99-6.53ZM19.04-0.87L19.04-0.87Q19.04-2.24 18.20-2.89Q17.36-3.53 15.99-3.53L15.99-3.53Q15.80-3.53 15.52-3.52Q15.24-3.50 14.96-3.45L14.96-3.45L14.96 1.76L15.71 1.76Q17.48 1.76 18.26 1.07Q19.04 0.39 19.04-0.87ZM24.87 4.53L24.87 4.53Q24.87 2.80 25.40 1.48Q25.93 0.16 26.80-0.72Q27.67-1.60 28.79-2.05Q29.91-2.50 31.08-2.50L31.08-2.50Q34.00-2.50 35.51-0.77Q37.02 0.95 37.02 4.25L37.02 4.25Q37.02 4.59 37.01 4.95Q36.99 5.32 36.96 5.54L36.96 5.54L28.42 5.54Q28.42 6.83 29.49 7.57Q30.55 8.31 32.23 8.31L32.23 8.31Q33.27 8.31 34.21 8.09Q35.14 7.86 35.79 7.64L35.79 7.64L36.26 10.58Q35.37 10.89 34.36 11.10Q33.35 11.31 32.09 11.31L32.09 11.31Q30.41 11.31 29.08 10.87Q27.75 10.44 26.81 9.59Q25.88 8.73 25.37 7.47Q24.87 6.21 24.87 4.53ZM28.42 3.16L33.69 3.16Q33.69 2.63 33.55 2.14Q33.41 1.65 33.10 1.26Q32.79 0.86 32.32 0.63Q31.84 0.39 31.14 0.39L31.14 0.39Q30.47 0.39 29.98 0.61Q29.49 0.84 29.17 1.23Q28.84 1.62 28.66 2.12Q28.48 2.63 28.42 3.16L28.42 3.16ZM42.42 4L42.42 4Q42.42 5.62 43.01 6.48Q43.60 7.33 44.86 7.33L44.86 7.33Q45.42 7.33 45.91 7.19Q46.40 7.05 46.79 6.83L46.79 6.83L46.79 0.50Q46.40 0.42 46.09 0.39Q45.78 0.36 45.45 0.36L45.45 0.36Q42.42 0.36 42.42 4ZM50.26-1.74L50.26 9.40Q50.26 12.62 48.71 14.16Q47.16 15.70 43.71 15.70L43.71 15.70Q42.48 15.70 41.35 15.45Q40.21 15.20 39.18 14.86L39.18 14.86L39.82 11.95Q40.63 12.26 41.53 12.53Q42.42 12.79 43.77 12.79L43.77 12.79Q44.66 12.79 45.25 12.58Q45.84 12.37 46.18 12.01Q46.51 11.64 46.65 11.15Q46.79 10.66 46.79 10.10L46.79 10.10L46.79 9.57Q46.06 9.85 45.46 9.99Q44.86 10.13 44.16 10.13L44.16 10.13Q41.58 10.13 40.25 8.51Q38.92 6.88 38.92 4L38.92 4Q38.92 0.75 40.72-0.84Q42.51-2.44 45.59-2.44L45.59-2.44Q47.74-2.44 50.26-1.74L50.26-1.74ZM64.26-2.16L64.26 10.55Q63.31 10.80 61.95 11.06Q60.60 11.31 59 11.31L59 11.31Q57.38 11.31 56.34 10.86Q55.30 10.41 54.70 9.59Q54.10 8.76 53.88 7.64Q53.65 6.52 53.65 5.18L53.65 5.18L53.65-2.16L57.10-2.16L57.10 4.73Q57.10 6.55 57.53 7.43Q57.96 8.31 59.22 8.31L59.22 8.31Q60.01 8.31 60.79 8.17L60.79 8.17L60.79-2.16L64.26-2.16ZM78.63 7.67L79.08 10.44Q78.99 10.50 78.70 10.64Q78.40 10.78 77.93 10.93Q77.45 11.08 76.77 11.20Q76.08 11.31 75.21 11.31L75.21 11.31Q72.83 11.31 71.74 9.89Q70.65 8.48 70.65 5.76L70.65 5.76L70.65-5.41L67.01-5.41L67.01-8.26L74.09-8.26L74.09 6.02Q74.09 7.36 74.62 7.84Q75.16 8.31 75.97 8.31L75.97 8.31Q77.00 8.31 77.70 8.03Q78.40 7.75 78.63 7.67L78.63 7.67ZM87.03 8.54L87.03 8.54Q87.59 8.54 88.12 8.52Q88.65 8.51 89.04 8.45L89.04 8.45L89.04 5.43Q88.71 5.37 88.23 5.33Q87.76 5.29 87.36 5.29L87.36 5.29Q86.83 5.29 86.33 5.36Q85.82 5.43 85.45 5.60Q85.07 5.76 84.84 6.07Q84.62 6.38 84.62 6.88L84.62 6.88Q84.62 7.78 85.29 8.16Q85.96 8.54 87.03 8.54ZM86.72-2.50L86.72-2.50Q88.34-2.50 89.42-2.12Q90.50-1.74 91.14-1.05Q91.79-0.37 92.07 0.63Q92.35 1.62 92.35 2.85L92.35 2.85L92.35 10.69Q91.59 10.86 90.11 11.08Q88.62 11.31 86.78 11.31L86.78 11.31Q85.52 11.31 84.49 11.08Q83.47 10.86 82.74 10.34Q82.02 9.82 81.62 9.00Q81.23 8.17 81.23 6.97L81.23 6.97Q81.23 5.82 81.68 5.04Q82.13 4.25 82.88 3.78Q83.64 3.30 84.62 3.09Q85.60 2.88 86.66 2.88L86.66 2.88Q88.01 2.88 89.04 3.10L89.04 3.10L89.04 2.68Q89.04 1.70 88.43 1.05Q87.81 0.39 86.30 0.39L86.30 0.39Q85.32 0.39 84.41 0.53Q83.50 0.67 82.94 0.86L82.94 0.86L82.46-1.91Q83.11-2.13 84.28-2.31Q85.46-2.50 86.72-2.50ZM106.85-1.85L106.24 1.34Q105.90 1.26 105.44 1.17Q104.98 1.09 104.50 1.02Q104.02 0.95 103.58 0.92Q103.13 0.89 102.82 0.89L102.82 0.89Q102.09 0.89 101.39 0.96Q100.69 1.03 99.96 1.23L99.96 1.23L99.96 11L96.49 11L96.49-1.29Q97.86-1.80 99.31-2.10Q100.75-2.41 102.68-2.41L102.68-2.41Q102.96-2.41 103.48-2.38Q104.00-2.36 104.58-2.29Q105.17-2.22 105.77-2.12Q106.38-2.02 106.85-1.85L106.85-1.85ZM134.88 11L123.76 11L123.76-6.33L134.26-6.33L134.26-3.48L127.21-3.48L127.21 0.42L133.34 0.42L133.34 3.27L127.21 3.27L127.21 8.14L134.88 8.14L134.88 11ZM140.20-2.16L143.11 1.96L145.80-2.16L149.30-2.16L145.04 4.17Q145.72 4.98 146.36 5.89Q147.00 6.80 147.59 7.72Q148.18 8.65 148.66 9.49Q149.13 10.33 149.47 11L149.47 11L145.88 11Q145.13 9.57 144.37 8.45Q143.62 7.33 142.94 6.44L142.94 6.44Q142.10 7.56 141.43 8.62Q140.76 9.68 140.06 11L140.06 11L136.56 11Q136.98 10.22 137.53 9.36Q138.07 8.51 138.67 7.63Q139.28 6.74 139.93 5.88Q140.59 5.01 141.21 4.22L141.21 4.22L136.59-2.16L140.20-2.16ZM159.63 4.53L159.63 4.53Q159.63 2.77 158.93 1.63Q158.23 0.50 156.80 0.50L156.80 0.50Q156.41 0.50 155.96 0.54Q155.52 0.58 155.21 0.61L155.21 0.61L155.21 7.84Q155.54 8.06 156.10 8.20Q156.66 8.34 157.22 8.34L157.22 8.34Q158.46 8.34 159.04 7.35Q159.63 6.35 159.63 4.53ZM163.13 4.42L163.13 4.42Q163.13 5.93 162.80 7.21Q162.46 8.48 161.82 9.39Q161.17 10.30 160.19 10.80Q159.21 11.31 157.92 11.31L157.92 11.31Q156.61 11.31 155.21 10.66L155.21 10.66L155.21 15.62L151.76 15.62L151.76-1.74Q152.72-2.05 154.10-2.24Q155.49-2.44 156.83-2.44L156.83-2.44Q159.88-2.44 161.51-0.59Q163.13 1.26 163.13 4.42ZM176.85-1.85L176.24 1.34Q175.90 1.26 175.44 1.17Q174.98 1.09 174.50 1.02Q174.02 0.95 173.58 0.92Q173.13 0.89 172.82 0.89L172.82 0.89Q172.09 0.89 171.39 0.96Q170.69 1.03 169.96 1.23L169.96 1.23L169.96 11L166.49 11L166.49-1.29Q167.86-1.80 169.31-2.10Q170.75-2.41 172.68-2.41L172.68-2.41Q172.96-2.41 173.48-2.38Q174.00-2.36 174.58-2.29Q175.17-2.22 175.77-2.12Q176.38-2.02 176.85-1.85L176.85-1.85ZM178.87 4.53L178.87 4.53Q178.87 2.80 179.40 1.48Q179.93 0.16 180.80-0.72Q181.67-1.60 182.79-2.05Q183.91-2.50 185.08-2.50L185.08-2.50Q188.00-2.50 189.51-0.77Q191.02 0.95 191.02 4.25L191.02 4.25Q191.02 4.59 191.01 4.95Q190.99 5.32 190.96 5.54L190.96 5.54L182.42 5.54Q182.42 6.83 183.49 7.57Q184.55 8.31 186.23 8.31L186.23 8.31Q187.27 8.31 188.21 8.09Q189.14 7.86 189.79 7.64L189.79 7.64L190.26 10.58Q189.37 10.89 188.36 11.10Q187.35 11.31 186.09 11.31L186.09 11.31Q184.41 11.31 183.08 10.87Q181.75 10.44 180.81 9.59Q179.88 8.73 179.37 7.47Q178.87 6.21 178.87 4.53ZM182.42 3.16L187.69 3.16Q187.69 2.63 187.55 2.14Q187.41 1.65 187.10 1.26Q186.79 0.86 186.32 0.63Q185.84 0.39 185.14 0.39L185.14 0.39Q184.47 0.39 183.98 0.61Q183.49 0.84 183.17 1.23Q182.84 1.62 182.66 2.12Q182.48 2.63 182.42 3.16L182.42 3.16ZM198.38 8.40L198.38 8.40Q199.64 8.40 200.32 8.21Q200.99 8.03 200.99 7.47L200.99 7.47Q200.99 7.11 200.78 6.86Q200.57 6.60 200.19 6.42Q199.81 6.24 199.32 6.07Q198.83 5.90 198.30 5.74L198.30 5.74Q197.54 5.51 196.76 5.22Q195.98 4.92 195.33 4.48Q194.69 4.03 194.27 3.34Q193.85 2.66 193.85 1.62L193.85 1.62Q193.85 0.78 194.17 0.04Q194.49-0.70 195.18-1.28Q195.86-1.85 196.93-2.17Q197.99-2.50 199.48-2.50L199.48-2.50Q200.76-2.50 201.87-2.30Q202.98-2.10 203.79-1.74L203.79-1.74L203.26 1.17Q202.78 1.03 201.77 0.71Q200.76 0.39 199.50 0.39L199.50 0.39Q198.19 0.39 197.73 0.71Q197.26 1.03 197.26 1.40L197.26 1.40Q197.26 1.70 197.47 1.94Q197.68 2.18 198.03 2.38Q198.38 2.57 198.85 2.75Q199.31 2.94 199.84 3.10L199.84 3.10Q200.60 3.36 201.41 3.66Q202.22 3.97 202.88 4.43Q203.54 4.90 203.96 5.61Q204.38 6.32 204.38 7.36L204.38 7.36Q204.38 8.17 204.07 8.90Q203.76 9.63 203.05 10.16Q202.33 10.69 201.18 11Q200.04 11.31 198.36 11.31L198.36 11.31Q196.65 11.31 195.44 10.92Q194.24 10.52 193.51 10.22L193.51 10.22L194.04 7.33Q195.02 7.72 196.13 8.06Q197.24 8.40 198.38 8.40ZM212.38 8.40L212.38 8.40Q213.64 8.40 214.32 8.21Q214.99 8.03 214.99 7.47L214.99 7.47Q214.99 7.11 214.78 6.86Q214.57 6.60 214.19 6.42Q213.81 6.24 213.32 6.07Q212.83 5.90 212.30 5.74L212.30 5.74Q211.54 5.51 210.76 5.22Q209.98 4.92 209.33 4.48Q208.69 4.03 208.27 3.34Q207.85 2.66 207.85 1.62L207.85 1.62Q207.85 0.78 208.17 0.04Q208.49-0.70 209.18-1.28Q209.86-1.85 210.93-2.17Q211.99-2.50 213.48-2.50L213.48-2.50Q214.76-2.50 215.87-2.30Q216.98-2.10 217.79-1.74L217.79-1.74L217.26 1.17Q216.78 1.03 215.77 0.71Q214.76 0.39 213.50 0.39L213.50 0.39Q212.19 0.39 211.73 0.71Q211.26 1.03 211.26 1.40L211.26 1.40Q211.26 1.70 211.47 1.94Q211.68 2.18 212.03 2.38Q212.38 2.57 212.85 2.75Q213.31 2.94 213.84 3.10L213.84 3.10Q214.60 3.36 215.41 3.66Q216.22 3.97 216.88 4.43Q217.54 4.90 217.96 5.61Q218.38 6.32 218.38 7.36L218.38 7.36Q218.38 8.17 218.07 8.90Q217.76 9.63 217.05 10.16Q216.33 10.69 215.18 11Q214.04 11.31 212.36 11.31L212.36 11.31Q210.65 11.31 209.44 10.92Q208.24 10.52 207.51 10.22L207.51 10.22L208.04 7.33Q209.02 7.72 210.13 8.06Q211.24 8.40 212.38 8.40ZM227.95-5.94L227.95-5.94Q227.95-4.93 227.31-4.34Q226.66-3.76 225.77-3.76L225.77-3.76Q224.87-3.76 224.24-4.34Q223.61-4.93 223.61-5.94L223.61-5.94Q223.61-6.98 224.24-7.56Q224.87-8.15 225.77-8.15L225.77-8.15Q226.66-8.15 227.31-7.56Q227.95-6.98 227.95-5.94ZM232.63 7.67L233.08 10.44Q232.01 10.94 231.07 11.13Q230.14 11.31 229.35 11.31L229.35 11.31Q228.01 11.31 227.10 10.92Q226.19 10.52 225.64 9.78Q225.10 9.04 224.87 7.98Q224.65 6.91 224.65 5.54L224.65 5.54L224.65 0.70L221.01 0.70L221.01-2.16L228.09-2.16L228.09 5.99Q228.09 7.16 228.53 7.74Q228.96 8.31 229.97 8.31L229.97 8.31Q230.44 8.31 231.12 8.19Q231.79 8.06 232.63 7.67L232.63 7.67ZM247.22 4.39L247.22 4.39Q247.22 5.96 246.77 7.23Q246.32 8.51 245.51 9.43Q244.70 10.36 243.56 10.86Q242.43 11.36 241.03 11.36L241.03 11.36Q239.63 11.36 238.49 10.86Q237.36 10.36 236.53 9.43Q235.71 8.51 235.26 7.23Q234.81 5.96 234.81 4.39L234.81 4.39Q234.81 2.85 235.27 1.58Q235.74 0.30 236.56-0.61Q237.39-1.52 238.54-2.01Q239.68-2.50 241.03-2.50L241.03-2.50Q242.40-2.50 243.53-2.01Q244.67-1.52 245.49-0.61Q246.32 0.30 246.77 1.58Q247.22 2.85 247.22 4.39ZM238.31 4.42L238.31 4.42Q238.31 6.18 238.94 7.28Q239.57 8.37 240.97 8.37L240.97 8.37Q242.32 8.37 243.00 7.28Q243.69 6.18 243.69 4.42L243.69 4.42Q243.69 2.66 243.06 1.58Q242.43 0.50 241.03 0.50L241.03 0.50Q239.68 0.50 239.00 1.58Q238.31 2.66 238.31 4.42ZM249.76 11L249.76-1.74Q250.69-1.99 252.05-2.22Q253.40-2.44 255-2.44L255-2.44Q256.57-2.44 257.60-2.01Q258.64-1.57 259.24-0.77Q259.84 0.02 260.10 1.13Q260.35 2.24 260.35 3.58L260.35 3.58L260.35 11L256.90 11L256.90 4.03Q256.90 2.18 256.48 1.37Q256.06 0.56 254.78 0.56L254.78 0.56Q254.38 0.56 254.01 0.58Q253.63 0.61 253.21 0.67L253.21 0.67L253.21 11L249.76 11Z"/>
    </g>
</svg>