<?xml version="1.0" encoding="UTF-8"?>
<svg height="322" width="90.4" version="1.1" xmlns="http://www.w3.org/2000/svg"><!--Created by Josélio de S. C. Júnior - 2021 - https://github.com/joseliojunior -->
    <rect
        height="32"
        width="88.4"
        rx="16"
        ry="16"
        x="1" y="1"
        fill="#cb171e"
        stroke="#400709"
        stroke-width="1" />
    <g transform="translate(0, 12)">
        <path fill="#400709" stroke="none" d="M26.10 3.94L26.10 3.94Q26.36 3.38 26.71 2.54Q27.06 1.70 27.40 0.77Q27.75-0.17 28.08-1.13Q28.40-2.09 28.66-2.86L28.66-2.86L31.71-2.86Q31.26-1.63 30.80-0.48Q30.34 0.67 29.84 1.80Q29.34 2.93 28.76 4.04Q28.18 5.16 27.51 6.34L27.51 6.34L27.51 12L24.54 12L24.54 6.36Q23.22 4.03 22.22 1.81Q21.22-0.41 20.31-2.86L20.31-2.86L23.48-2.86Q24.03-1.13 24.70 0.66Q25.38 2.45 26.10 3.94ZM43.78 12L40.62 12L39.92 8.57L35.96 8.57L35.29 12L32.22 12Q33.27 7.61 34.35 4.00Q35.43 0.38 36.44-2.86L36.44-2.86L39.66-2.86Q40.71 0.41 41.76 4.07Q42.80 7.73 43.78 12L43.78 12ZM37.98 0.02L37.98 0.02Q37.74 0.86 37.53 1.62Q37.33 2.38 37.15 3.11Q36.97 3.84 36.81 4.58Q36.66 5.33 36.51 6.12L36.51 6.12L39.42 6.12Q39.27 5.33 39.13 4.58Q38.98 3.84 38.80 3.11Q38.62 2.38 38.42 1.62Q38.22 0.86 37.98 0.02ZM45.42-2.86L47.86-2.86Q48.03-2.35 48.28-1.56Q48.54-0.77 48.82 0.14Q49.11 1.06 49.40 1.99Q49.69 2.93 49.95 3.72L49.95 3.72Q50.24 2.83 50.55 1.88Q50.86 0.94 51.15 0.06Q51.44-0.82 51.68-1.58Q51.92-2.35 52.11-2.86L52.11-2.86L54.56-2.86Q54.73-0.91 54.88 0.94Q55.04 2.78 55.15 4.60Q55.26 6.41 55.33 8.24Q55.40 10.08 55.45 12L55.45 12L52.74 12L52.88 0.46L51.06 6.74L48.90 6.74L47.14 0.46L47.26 12L44.55 12Q44.62 10.18 44.71 8.21Q44.79 6.24 44.89 4.30Q44.98 2.35 45.12 0.53Q45.25-1.30 45.42-2.86L45.42-2.86ZM67.04 9.55L67.04 12L57.70 12L57.70-2.86L60.68-2.86L60.68 9.55L67.04 9.55Z"/>
    </g>
</svg>