<?xml version="1.0" encoding="UTF-8"?>
<svg height="26" width="74.4" version="1.1" xmlns="http://www.w3.org/2000/svg"><!--Created by Josélio de S. C. Júnior - 2021 - https://github.com/joseliojunior -->
    <rect
        height="24"
        width="72.4"
        rx="12"
        ry="12"
        x="1" y="1"
        fill="#cb171e"
        stroke="#400709"
        stroke-width="1" />
    <g transform="translate(0, 8)">
        <path fill="#400709" d="M24.06 4.62L24.06 4.62Q24.24 4.26 24.47 3.70Q24.70 3.14 24.94 2.51Q25.17 1.89 25.38 1.25Q25.60 0.61 25.78 0.10L25.78 0.10L27.81 0.10Q27.50 0.91 27.20 1.68Q26.90 2.45 26.56 3.20Q26.22 3.95 25.84 4.70Q25.46 5.44 25.01 6.22L25.01 6.22L25.01 10L23.02 10L23.02 6.24Q22.14 4.69 21.48 3.21Q20.82 1.73 20.21 0.10L20.21 0.10L22.32 0.10Q22.69 1.25 23.14 2.44Q23.58 3.63 24.06 4.62ZM35.86 10L33.74 10L33.28 7.71L30.64 7.71L30.19 10L28.14 10Q28.85 7.07 29.57 4.66Q30.29 2.26 30.96 0.10L30.96 0.10L33.10 0.10Q33.81 2.27 34.50 4.71Q35.20 7.15 35.86 10L35.86 10ZM31.98 2.02L31.98 2.02Q31.82 2.58 31.69 3.08Q31.55 3.58 31.43 4.07Q31.31 4.56 31.21 5.06Q31.10 5.55 31.01 6.08L31.01 6.08L32.94 6.08Q32.85 5.55 32.75 5.06Q32.66 4.56 32.54 4.07Q32.42 3.58 32.28 3.08Q32.14 2.58 31.98 2.02ZM36.94 0.10L38.58 0.10Q38.69 0.43 38.86 0.96Q39.02 1.49 39.22 2.10Q39.41 2.70 39.60 3.33Q39.79 3.95 39.97 4.48L39.97 4.48Q40.16 3.89 40.37 3.26Q40.58 2.62 40.77 2.04Q40.96 1.46 41.12 0.94Q41.28 0.43 41.41 0.10L41.41 0.10L43.04 0.10Q43.15 1.39 43.26 2.62Q43.36 3.86 43.43 5.06Q43.50 6.27 43.55 7.50Q43.60 8.72 43.63 10L43.63 10L41.82 10L41.92 2.30L40.70 6.50L39.26 6.50L38.10 2.30L38.18 10L36.37 10Q36.42 8.78 36.47 7.47Q36.53 6.16 36.59 4.86Q36.66 3.57 36.74 2.35Q36.83 1.14 36.94 0.10L36.94 0.10ZM51.36 8.37L51.36 10L45.14 10L45.14 0.10L47.12 0.10L47.12 8.37L51.36 8.37Z"/>
    </g>
</svg>