<?xml version="1.0" encoding="UTF-8"?>
<svg height="34" width="106.6" version="1.1" xmlns="http://www.w3.org/2000/svg">
    <rect
        height="32"
        width="104.6"
        rx="14"
        ry="14"
        x="1"
        y="1"
        fill="#d03600"
        stroke="#380f00"
        stroke-width="1"
         />
    <g transform="translate(0, 14)">
        <path fill="#380f00" d="M22.26-6.33L22.26 5.20Q22.26 6.46 21.94 7.58Q21.62 8.70 20.88 9.54Q20.14 10.38 18.96 10.87Q17.78 11.36 16.10 11.36L16.10 11.36Q14.34 11.36 13.16 10.92Q11.99 10.47 11.18 9.82L11.18 9.82L12.49 7.08Q13.19 7.53 14.05 7.95Q14.90 8.37 15.80 8.37L15.80 8.37Q17.14 8.37 17.97 7.65Q18.79 6.94 18.79 5.01L18.79 5.01L18.79-3.48L13.00-3.48L13.00-6.33L22.26-6.33ZM31.03 8.54L31.03 8.54Q31.59 8.54 32.12 8.52Q32.65 8.51 33.04 8.45L33.04 8.45L33.04 5.43Q32.71 5.37 32.23 5.33Q31.76 5.29 31.36 5.29L31.36 5.29Q30.83 5.29 30.33 5.36Q29.82 5.43 29.45 5.60Q29.07 5.76 28.84 6.07Q28.62 6.38 28.62 6.88L28.62 6.88Q28.62 7.78 29.29 8.16Q29.96 8.54 31.03 8.54ZM30.72-2.50L30.72-2.50Q32.34-2.50 33.42-2.12Q34.50-1.74 35.14-1.05Q35.79-0.37 36.07 0.63Q36.35 1.62 36.35 2.85L36.35 2.85L36.35 10.69Q35.59 10.86 34.11 11.08Q32.62 11.31 30.78 11.31L30.78 11.31Q29.52 11.31 28.49 11.08Q27.47 10.86 26.74 10.34Q26.02 9.82 25.62 9.00Q25.23 8.17 25.23 6.97L25.23 6.97Q25.23 5.82 25.68 5.04Q26.13 4.25 26.88 3.78Q27.64 3.30 28.62 3.09Q29.60 2.88 30.66 2.88L30.66 2.88Q32.01 2.88 33.04 3.10L33.04 3.10L33.04 2.68Q33.04 1.70 32.43 1.05Q31.81 0.39 30.30 0.39L30.30 0.39Q29.32 0.39 28.41 0.53Q27.50 0.67 26.94 0.86L26.94 0.86L26.46-1.91Q27.11-2.13 28.28-2.31Q29.46-2.50 30.72-2.50ZM44.38 8.40L44.38 8.40Q45.64 8.40 46.32 8.21Q46.99 8.03 46.99 7.47L46.99 7.47Q46.99 7.11 46.78 6.86Q46.57 6.60 46.19 6.42Q45.81 6.24 45.32 6.07Q44.83 5.90 44.30 5.74L44.30 5.74Q43.54 5.51 42.76 5.22Q41.98 4.92 41.33 4.48Q40.69 4.03 40.27 3.34Q39.85 2.66 39.85 1.62L39.85 1.62Q39.85 0.78 40.17 0.04Q40.49-0.70 41.18-1.28Q41.86-1.85 42.93-2.17Q43.99-2.50 45.48-2.50L45.48-2.50Q46.76-2.50 47.87-2.30Q48.98-2.10 49.79-1.74L49.79-1.74L49.26 1.17Q48.78 1.03 47.77 0.71Q46.76 0.39 45.50 0.39L45.50 0.39Q44.19 0.39 43.73 0.71Q43.26 1.03 43.26 1.40L43.26 1.40Q43.26 1.70 43.47 1.94Q43.68 2.18 44.03 2.38Q44.38 2.57 44.85 2.75Q45.31 2.94 45.84 3.10L45.84 3.10Q46.60 3.36 47.41 3.66Q48.22 3.97 48.88 4.43Q49.54 4.90 49.96 5.61Q50.38 6.32 50.38 7.36L50.38 7.36Q50.38 8.17 50.07 8.90Q49.76 9.63 49.05 10.16Q48.33 10.69 47.18 11Q46.04 11.31 44.36 11.31L44.36 11.31Q42.65 11.31 41.44 10.92Q40.24 10.52 39.51 10.22L39.51 10.22L40.04 7.33Q41.02 7.72 42.13 8.06Q43.24 8.40 44.38 8.40ZM61.60-2.30L61.60-2.30Q62.70-2.30 63.40-1.96Q64.10-1.63 64.50-0.96Q64.91-0.28 65.05 0.74Q65.19 1.76 65.19 3.13L65.19 3.13L65.19 11L62.39 11L62.39 2.96Q62.39 2.18 62.29 1.70Q62.19 1.23 62.04 0.98Q61.88 0.72 61.67 0.64Q61.46 0.56 61.24 0.56L61.24 0.56Q60.99 0.56 60.71 0.60Q60.43 0.64 60.20 0.75L60.20 0.75Q60.29 1.28 60.34 1.93Q60.40 2.57 60.40 3.36L60.40 3.36L60.40 5.99L57.60 5.99L57.60 2.96Q57.60 1.62 57.33 1.09Q57.07 0.56 56.48 0.56L56.48 0.56Q56.31 0.56 56.07 0.58Q55.84 0.61 55.61 0.67L55.61 0.67L55.61 11L52.81 11L52.81-1.66Q53.90-1.96 54.97-2.13Q56.03-2.30 56.84-2.30L56.84-2.30Q57.57-2.30 58.15-2.12Q58.72-1.94 59.14-1.52L59.14-1.52Q59.62-1.82 60.26-2.06Q60.90-2.30 61.60-2.30ZM73.95-5.94L73.95-5.94Q73.95-4.93 73.31-4.34Q72.66-3.76 71.77-3.76L71.77-3.76Q70.87-3.76 70.24-4.34Q69.61-4.93 69.61-5.94L69.61-5.94Q69.61-6.98 70.24-7.56Q70.87-8.15 71.77-8.15L71.77-8.15Q72.66-8.15 73.31-7.56Q73.95-6.98 73.95-5.94ZM78.63 7.67L79.08 10.44Q78.01 10.94 77.07 11.13Q76.14 11.31 75.35 11.31L75.35 11.31Q74.01 11.31 73.10 10.92Q72.19 10.52 71.64 9.78Q71.10 9.04 70.87 7.98Q70.65 6.91 70.65 5.54L70.65 5.54L70.65 0.70L67.01 0.70L67.01-2.16L74.09-2.16L74.09 5.99Q74.09 7.16 74.53 7.74Q74.96 8.31 75.97 8.31L75.97 8.31Q76.44 8.31 77.12 8.19Q77.79 8.06 78.63 7.67L78.63 7.67ZM81.76 11L81.76-1.74Q82.69-1.99 84.05-2.22Q85.40-2.44 87-2.44L87-2.44Q88.57-2.44 89.60-2.01Q90.64-1.57 91.24-0.77Q91.84 0.02 92.10 1.13Q92.35 2.24 92.35 3.58L92.35 3.58L92.35 11L88.90 11L88.90 4.03Q88.90 2.18 88.48 1.37Q88.06 0.56 86.78 0.56L86.78 0.56Q86.38 0.56 86.01 0.58Q85.63 0.61 85.21 0.67L85.21 0.67L85.21 11L81.76 11Z"/>
    </g>
</svg>