<?xml version="1.0" encoding="UTF-8"?><svg height="26" width="74.4" version="1.1" xmlns="http://www.w3.org/2000/svg"><!--Created by Josélio de S. C. Júnior - 2021 - https://github.com/joseliojunior --><rect height="24" width="72.4" rx="12" ry="12" x="1" y="1" fill="#2D54CB" stroke="#11214f" stroke-width="1" /><g transform="translate(0, 8)"><path fill="#11214f" d="M23.42-0.02L23.42-0.02Q24.27-0.02 24.96 0.18Q25.65 0.37 26.14 0.77Q26.64 1.17 26.90 1.78Q27.17 2.40 27.17 3.23L27.17 3.23Q27.17 4.10 26.82 4.80Q26.46 5.50 25.65 5.87L25.65 5.87Q25.92 6.29 26.22 6.79Q26.53 7.30 26.82 7.85Q27.10 8.40 27.37 8.95Q27.63 9.50 27.82 10L27.82 10L25.76 10Q25.39 9.04 24.90 8.15Q24.42 7.26 23.86 6.35L23.86 6.35L22.83 6.35L22.83 10L20.86 10L20.86 0.24Q21.15 0.18 21.50 0.12Q21.84 0.06 22.19 0.04Q22.54 0.02 22.86 0Q23.18-0.02 23.42-0.02ZM25.17 3.22L25.17 3.22Q25.17 2.43 24.69 2.06Q24.21 1.70 23.42 1.70L23.42 1.70Q23.31 1.70 23.15 1.70Q22.99 1.71 22.83 1.74L22.83 1.74L22.83 4.72L23.26 4.72Q24.27 4.72 24.72 4.33Q25.17 3.94 25.17 3.22ZM32.54 0.32L32.54 0.32Q32.54 0.90 32.18 1.23Q31.81 1.57 31.30 1.57L31.30 1.57Q30.78 1.57 30.42 1.23Q30.06 0.90 30.06 0.32L30.06 0.32Q30.06-0.27 30.42-0.61Q30.78-0.94 31.30-0.94L31.30-0.94Q31.81-0.94 32.18-0.61Q32.54-0.27 32.54 0.32ZM35.22 8.10L35.47 9.68Q34.86 9.97 34.33 10.07Q33.79 10.18 33.34 10.18L33.34 10.18Q32.58 10.18 32.06 9.95Q31.54 9.73 31.22 9.30Q30.91 8.88 30.78 8.27Q30.66 7.66 30.66 6.88L30.66 6.88L30.66 4.11L28.58 4.11L28.58 2.48L32.62 2.48L32.62 7.14Q32.62 7.81 32.87 8.14Q33.12 8.46 33.70 8.46L33.70 8.46Q33.97 8.46 34.35 8.39Q34.74 8.32 35.22 8.10L35.22 8.10ZM37.01 10L37.01 2.72Q37.54 2.58 38.31 2.45Q39.09 2.32 40 2.32L40 2.32Q40.90 2.32 41.49 2.57Q42.08 2.82 42.42 3.27Q42.77 3.73 42.91 4.36Q43.06 4.99 43.06 5.76L43.06 5.76L43.06 10L41.09 10L41.09 6.02Q41.09 4.96 40.85 4.50Q40.61 4.03 39.87 4.03L39.87 4.03Q39.65 4.03 39.43 4.05Q39.22 4.06 38.98 4.10L38.98 4.10L38.98 10L37.01 10ZM46.53 6L46.53 6Q46.53 6.93 46.86 7.42Q47.20 7.90 47.92 7.90L47.92 7.90Q48.24 7.90 48.52 7.82Q48.80 7.74 49.02 7.62L49.02 7.62L49.02 4Q48.80 3.95 48.62 3.94Q48.45 3.92 48.26 3.92L48.26 3.92Q46.53 3.92 46.53 6ZM51.01 2.72L51.01 9.09Q51.01 10.93 50.12 11.81Q49.23 12.69 47.26 12.69L47.26 12.69Q46.56 12.69 45.91 12.54Q45.26 12.40 44.67 12.21L44.67 12.21L45.04 10.54Q45.50 10.72 46.02 10.87Q46.53 11.02 47.30 11.02L47.30 11.02Q47.81 11.02 48.14 10.90Q48.48 10.78 48.67 10.58Q48.86 10.37 48.94 10.09Q49.02 9.81 49.02 9.49L49.02 9.49L49.02 9.18Q48.61 9.34 48.26 9.42Q47.92 9.50 47.52 9.50L47.52 9.50Q46.05 9.50 45.29 8.58Q44.53 7.65 44.53 6L44.53 6Q44.53 4.14 45.55 3.23Q46.58 2.32 48.34 2.32L48.34 2.32Q49.57 2.32 51.01 2.72L51.01 2.72Z"/></g></svg>