<?xml version="1.0" encoding="UTF-8"?>
<svg height="34" width="78.4" version="1.1" xmlns="http://www.w3.org/2000/svg">
    <rect
        height="32"
        width="76.4"
        rx="14"
        ry="14"
        x="1"
        y="1"
        fill="#005390"
        stroke="#29a6ff"
        stroke-width="1"
         />
    <g transform="translate(0, 14)">
        <path fill="#29a6ff" d="M16.27-6.53L16.27-6.53Q19.58-6.53 21.40-5.17Q23.22-3.81 23.22-0.73L23.22-0.73Q23.22 2.38 21.38 3.76Q19.55 5.15 16.19 5.15L16.19 5.15L14.96 5.15L14.96 11L11.51 11L11.51-6.11Q12.02-6.22 12.65-6.30Q13.28-6.39 13.92-6.43Q14.56-6.47 15.18-6.50Q15.80-6.53 16.27-6.53ZM16.66-3.53L16.66-3.53Q16.36-3.53 15.81-3.52Q15.26-3.50 14.96-3.45L14.96-3.45L14.96 2.15L16.36 2.15Q18.01 2.15 18.85 1.49Q19.69 0.84 19.69-0.76L19.69-0.76Q19.69-2.27 18.86-2.90Q18.04-3.53 16.66-3.53ZM31.95-5.94L31.95-5.94Q31.95-4.93 31.31-4.34Q30.66-3.76 29.77-3.76L29.77-3.76Q28.87-3.76 28.24-4.34Q27.61-4.93 27.61-5.94L27.61-5.94Q27.61-6.98 28.24-7.56Q28.87-8.15 29.77-8.15L29.77-8.15Q30.66-8.15 31.31-7.56Q31.95-6.98 31.95-5.94ZM36.63 7.67L37.08 10.44Q36.01 10.94 35.07 11.13Q34.14 11.31 33.35 11.31L33.35 11.31Q32.01 11.31 31.10 10.92Q30.19 10.52 29.64 9.78Q29.10 9.04 28.87 7.98Q28.65 6.91 28.65 5.54L28.65 5.54L28.65 0.70L25.01 0.70L25.01-2.16L32.09-2.16L32.09 5.99Q32.09 7.16 32.53 7.74Q32.96 8.31 33.97 8.31L33.97 8.31Q34.44 8.31 35.12 8.19Q35.79 8.06 36.63 7.67L36.63 7.67ZM43.24-8.43L43.24 3.05Q43.74 2.46 44.26 1.80Q44.78 1.14 45.27 0.44Q45.76-0.26 46.20-0.91Q46.65-1.57 46.99-2.16L46.99-2.16L51.13-2.16Q50.63-1.52 49.98-0.76Q49.34-0.00 48.65 0.78Q47.97 1.56 47.28 2.29Q46.60 3.02 46.04 3.64L46.04 3.64Q46.74 4.31 47.55 5.25Q48.36 6.18 49.14 7.19Q49.93 8.20 50.59 9.21Q51.24 10.22 51.64 11L51.64 11L47.69 11Q47.35 10.30 46.81 9.42Q46.26 8.54 45.64 7.68Q45.03 6.83 44.40 6.06Q43.77 5.29 43.24 4.78L43.24 4.78L43.24 11L39.76 11L39.76-7.84L43.24-8.43ZM52.87 4.53L52.87 4.53Q52.87 2.80 53.40 1.48Q53.93 0.16 54.80-0.72Q55.67-1.60 56.79-2.05Q57.91-2.50 59.08-2.50L59.08-2.50Q62.00-2.50 63.51-0.77Q65.02 0.95 65.02 4.25L65.02 4.25Q65.02 4.59 65.01 4.95Q64.99 5.32 64.96 5.54L64.96 5.54L56.42 5.54Q56.42 6.83 57.49 7.57Q58.55 8.31 60.23 8.31L60.23 8.31Q61.27 8.31 62.21 8.09Q63.14 7.86 63.79 7.64L63.79 7.64L64.26 10.58Q63.37 10.89 62.36 11.10Q61.35 11.31 60.09 11.31L60.09 11.31Q58.41 11.31 57.08 10.87Q55.75 10.44 54.81 9.59Q53.88 8.73 53.37 7.47Q52.87 6.21 52.87 4.53ZM56.42 3.16L61.69 3.16Q61.69 2.63 61.55 2.14Q61.41 1.65 61.10 1.26Q60.79 0.86 60.32 0.63Q59.84 0.39 59.14 0.39L59.14 0.39Q58.47 0.39 57.98 0.61Q57.49 0.84 57.17 1.23Q56.84 1.62 56.66 2.12Q56.48 2.63 56.42 3.16L56.42 3.16Z"/>
    </g>
</svg>