<?xml version="1.0" encoding="UTF-8"?>
<svg height="26" width="114.89999999999999" version="1.1" xmlns="http://www.w3.org/2000/svg"><!--Created by Josélio de S. C. Júnior - 2021 - https://github.com/joseliojunior -->
    <rect
        height="24"
        width="112.89999999999999"
        rx="1"
        ry="1"
        x="1" y="1"
        fill="#222c37"
        stroke="#5b7795"
        stroke-width="1" />
    <g transform="translate(0, 8)">
        <path fill="#5b7795" d="M23.71 8.56L23.71 8.56Q24.21 8.56 24.54 8.46Q24.86 8.35 25.06 8.17Q25.25 7.98 25.32 7.75Q25.39 7.52 25.39 7.28L25.39 7.28Q25.39 6.98 25.22 6.74Q25.04 6.50 24.77 6.31Q24.50 6.13 24.16 5.98Q23.82 5.82 23.49 5.70L23.49 5.70Q23.04 5.54 22.56 5.33Q22.08 5.12 21.69 4.80Q21.30 4.48 21.04 4.01Q20.78 3.54 20.78 2.83L20.78 2.83Q20.78 1.44 21.69 0.66Q22.59-0.13 24.18-0.13L24.18-0.13Q25.09-0.13 25.77 0.08Q26.45 0.29 26.91 0.54L26.91 0.54L26.34 2.06Q25.94 1.84 25.45 1.68Q24.96 1.52 24.32 1.52L24.32 1.52Q22.75 1.52 22.75 2.66L22.75 2.66Q22.75 2.94 22.91 3.16Q23.07 3.38 23.32 3.54Q23.57 3.71 23.88 3.84Q24.19 3.97 24.50 4.08L24.50 4.08Q24.96 4.26 25.46 4.47Q25.97 4.69 26.39 5.05Q26.82 5.41 27.09 5.94Q27.36 6.48 27.36 7.30L27.36 7.30Q27.36 8.69 26.46 9.45Q25.55 10.21 23.71 10.21L23.71 10.21Q22.48 10.21 21.74 9.94Q21.01 9.68 20.64 9.46L20.64 9.46L21.22 7.86Q21.65 8.11 22.25 8.34Q22.85 8.56 23.71 8.56ZM30.98 10L29.01 10L29.01-0.77L30.98-1.10L30.98 2.54Q31.22 2.46 31.55 2.39Q31.89 2.32 32.14 2.32L32.14 2.32Q32.98 2.32 33.54 2.57Q34.10 2.82 34.43 3.27Q34.77 3.73 34.91 4.36Q35.06 4.99 35.06 5.76L35.06 5.76L35.06 10L33.09 10L33.09 6.02Q33.09 4.96 32.85 4.50Q32.61 4.03 31.94 4.03L31.94 4.03Q31.66 4.03 31.40 4.10Q31.14 4.16 30.98 4.21L30.98 4.21L30.98 10ZM40.02 8.59L40.02 8.59Q40.34 8.59 40.64 8.58Q40.94 8.58 41.17 8.54L41.17 8.54L41.17 6.82Q40.98 6.78 40.70 6.76Q40.43 6.74 40.21 6.74L40.21 6.74Q39.90 6.74 39.62 6.78Q39.33 6.82 39.11 6.91Q38.90 7.01 38.77 7.18Q38.64 7.36 38.64 7.65L38.64 7.65Q38.64 8.16 39.02 8.38Q39.41 8.59 40.02 8.59ZM39.84 2.29L39.84 2.29Q40.77 2.29 41.38 2.50Q42 2.72 42.37 3.11Q42.74 3.50 42.90 4.07Q43.06 4.64 43.06 5.34L43.06 5.34L43.06 9.82Q42.62 9.92 41.78 10.05Q40.93 10.18 39.87 10.18L39.87 10.18Q39.15 10.18 38.57 10.05Q37.98 9.92 37.57 9.62Q37.15 9.33 36.93 8.86Q36.70 8.38 36.70 7.70L36.70 7.70Q36.70 7.04 36.96 6.59Q37.22 6.14 37.65 5.87Q38.08 5.60 38.64 5.48Q39.20 5.36 39.81 5.36L39.81 5.36Q40.58 5.36 41.17 5.49L41.17 5.49L41.17 5.25Q41.17 4.69 40.82 4.31Q40.46 3.94 39.60 3.94L39.60 3.94Q39.04 3.94 38.52 4.02Q38 4.10 37.68 4.21L37.68 4.21L37.41 2.62Q37.78 2.50 38.45 2.39Q39.12 2.29 39.84 2.29ZM46.45 6.19L46.45 6.19Q46.45 7.20 46.82 7.84Q47.20 8.48 48.03 8.48L48.03 8.48Q48.27 8.48 48.48 8.46Q48.69 8.45 48.91 8.42L48.91 8.42L48.91 4.32Q48.69 4.19 48.40 4.10Q48.11 4.02 47.79 4.02L47.79 4.02Q47.09 4.02 46.77 4.58Q46.45 5.14 46.45 6.19ZM50.88-1.10L50.88 9.78Q50.34 9.95 49.55 10.06Q48.77 10.18 48.02 10.18L48.02 10.18Q46.26 10.18 45.35 9.14Q44.45 8.10 44.45 6.29L44.45 6.29Q44.45 4.45 45.21 3.38Q45.97 2.32 47.46 2.32L47.46 2.32Q47.86 2.32 48.24 2.41Q48.62 2.50 48.91 2.66L48.91 2.66L48.91-0.77L50.88-1.10ZM52.50 6.30L52.50 6.30Q52.50 5.31 52.80 4.56Q53.10 3.81 53.60 3.30Q54.10 2.80 54.74 2.54Q55.38 2.29 56.05 2.29L56.05 2.29Q57.71 2.29 58.58 3.27Q59.44 4.26 59.44 6.14L59.44 6.14Q59.44 6.34 59.43 6.54Q59.42 6.75 59.41 6.88L59.41 6.88L54.53 6.88Q54.53 7.62 55.14 8.04Q55.74 8.46 56.70 8.46L56.70 8.46Q57.30 8.46 57.83 8.34Q58.37 8.21 58.74 8.08L58.74 8.08L59.01 9.76Q58.50 9.94 57.92 10.06Q57.34 10.18 56.62 10.18L56.62 10.18Q55.66 10.18 54.90 9.93Q54.14 9.68 53.61 9.19Q53.07 8.70 52.78 7.98Q52.50 7.26 52.50 6.30ZM54.53 5.52L57.54 5.52Q57.54 5.22 57.46 4.94Q57.38 4.66 57.20 4.43Q57.02 4.21 56.75 4.07Q56.48 3.94 56.08 3.94L56.08 3.94Q55.70 3.94 55.42 4.06Q55.14 4.19 54.95 4.42Q54.77 4.64 54.66 4.93Q54.56 5.22 54.53 5.52L54.53 5.52ZM67.34 2.66L66.99 4.48Q66.80 4.43 66.54 4.38Q66.27 4.34 66 4.30Q65.73 4.26 65.47 4.24Q65.22 4.22 65.04 4.22L65.04 4.22Q64.62 4.22 64.22 4.26Q63.82 4.30 63.41 4.42L63.41 4.42L63.41 10L61.42 10L61.42 2.98Q62.21 2.69 63.03 2.51Q63.86 2.34 64.96 2.34L64.96 2.34Q65.12 2.34 65.42 2.35Q65.71 2.37 66.05 2.41Q66.38 2.45 66.73 2.50Q67.07 2.56 67.34 2.66L67.34 2.66ZM75.36 8.37L75.36 10L69.14 10L69.14 0.10L71.12 0.10L71.12 8.37L75.36 8.37ZM80.02 8.59L80.02 8.59Q80.34 8.59 80.64 8.58Q80.94 8.58 81.17 8.54L81.17 8.54L81.17 6.82Q80.98 6.78 80.70 6.76Q80.43 6.74 80.21 6.74L80.21 6.74Q79.90 6.74 79.62 6.78Q79.33 6.82 79.11 6.91Q78.90 7.01 78.77 7.18Q78.64 7.36 78.64 7.65L78.64 7.65Q78.64 8.16 79.02 8.38Q79.41 8.59 80.02 8.59ZM79.84 2.29L79.84 2.29Q80.77 2.29 81.38 2.50Q82 2.72 82.37 3.11Q82.74 3.50 82.90 4.07Q83.06 4.64 83.06 5.34L83.06 5.34L83.06 9.82Q82.62 9.92 81.78 10.05Q80.93 10.18 79.87 10.18L79.87 10.18Q79.15 10.18 78.57 10.05Q77.98 9.92 77.57 9.62Q77.15 9.33 76.93 8.86Q76.70 8.38 76.70 7.70L76.70 7.70Q76.70 7.04 76.96 6.59Q77.22 6.14 77.65 5.87Q78.08 5.60 78.64 5.48Q79.20 5.36 79.81 5.36L79.81 5.36Q80.58 5.36 81.17 5.49L81.17 5.49L81.17 5.25Q81.17 4.69 80.82 4.31Q80.46 3.94 79.60 3.94L79.60 3.94Q79.04 3.94 78.52 4.02Q78 4.10 77.68 4.21L77.68 4.21L77.41 2.62Q77.78 2.50 78.45 2.39Q79.12 2.29 79.84 2.29ZM89.52 6.19L89.52 6.19Q89.52 5.14 89.18 4.58Q88.83 4.02 88.13 4.02L88.13 4.02Q87.81 4.02 87.50 4.10Q87.18 4.19 86.96 4.32L86.96 4.32L86.96 8.40Q87.18 8.45 87.43 8.46Q87.68 8.48 87.86 8.48L87.86 8.48Q88.62 8.48 89.07 7.96Q89.52 7.44 89.52 6.19ZM91.52 6.24L91.52 6.24Q91.52 7.14 91.28 7.86Q91.04 8.59 90.58 9.10Q90.11 9.62 89.44 9.90Q88.77 10.18 87.90 10.18L87.90 10.18Q87.14 10.18 86.34 10.06Q85.54 9.95 84.99 9.78L84.99 9.78L84.99-0.77L86.96-1.10L86.96 2.66Q87.38 2.46 87.76 2.39Q88.14 2.32 88.53 2.32L88.53 2.32Q89.26 2.32 89.82 2.60Q90.38 2.88 90.76 3.40Q91.14 3.92 91.33 4.64Q91.52 5.36 91.52 6.24Z"/>
    </g>
</svg>