<?xml version="1.0" encoding="UTF-8"?>
<svg height="34" width="134.8" version="1.1" xmlns="http://www.w3.org/2000/svg">
    <rect
        height="32"
        width="132.8"
        rx="14"
        ry="14"
        x="1"
        y="1"
        fill="#724b3b"
        stroke="#c19686"
        stroke-width="1"
         />
    <g transform="translate(0, 14)">
        <path fill="#c19686" d="M11.65-6.33L14.51-6.33Q14.70-5.74 15.00-4.82Q15.29-3.90 15.63-2.83Q15.96-1.77 16.30-0.68Q16.64 0.42 16.94 1.34L16.94 1.34Q17.28 0.30 17.64-0.80Q18.01-1.91 18.34-2.93Q18.68-3.95 18.96-4.85Q19.24-5.74 19.46-6.33L19.46-6.33L22.32-6.33Q22.52-4.06 22.70-1.91Q22.88 0.25 23.01 2.36Q23.13 4.48 23.22 6.62Q23.30 8.76 23.36 11L23.36 11L20.19 11L20.36-2.47L18.23 4.87L15.71 4.87L13.67-2.47L13.81 11L10.64 11Q10.73 8.87 10.83 6.58Q10.92 4.28 11.04 2.01Q11.15-0.26 11.30-2.38Q11.46-4.51 11.65-6.33L11.65-6.33ZM36.26-2.16L36.26 10.55Q35.31 10.80 33.95 11.06Q32.60 11.31 31 11.31L31 11.31Q29.38 11.31 28.34 10.86Q27.30 10.41 26.70 9.59Q26.10 8.76 25.88 7.64Q25.65 6.52 25.65 5.18L25.65 5.18L25.65-2.16L29.10-2.16L29.10 4.73Q29.10 6.55 29.53 7.43Q29.96 8.31 31.22 8.31L31.22 8.31Q32.01 8.31 32.79 8.17L32.79 8.17L32.79-2.16L36.26-2.16ZM44.38 8.40L44.38 8.40Q45.64 8.40 46.32 8.21Q46.99 8.03 46.99 7.47L46.99 7.47Q46.99 7.11 46.78 6.86Q46.57 6.60 46.19 6.42Q45.81 6.24 45.32 6.07Q44.83 5.90 44.30 5.74L44.30 5.74Q43.54 5.51 42.76 5.22Q41.98 4.92 41.33 4.48Q40.69 4.03 40.27 3.34Q39.85 2.66 39.85 1.62L39.85 1.62Q39.85 0.78 40.17 0.04Q40.49-0.70 41.18-1.28Q41.86-1.85 42.93-2.17Q43.99-2.50 45.48-2.50L45.48-2.50Q46.76-2.50 47.87-2.30Q48.98-2.10 49.79-1.74L49.79-1.74L49.26 1.17Q48.78 1.03 47.77 0.71Q46.76 0.39 45.50 0.39L45.50 0.39Q44.19 0.39 43.73 0.71Q43.26 1.03 43.26 1.40L43.26 1.40Q43.26 1.70 43.47 1.94Q43.68 2.18 44.03 2.38Q44.38 2.57 44.85 2.75Q45.31 2.94 45.84 3.10L45.84 3.10Q46.60 3.36 47.41 3.66Q48.22 3.97 48.88 4.43Q49.54 4.90 49.96 5.61Q50.38 6.32 50.38 7.36L50.38 7.36Q50.38 8.17 50.07 8.90Q49.76 9.63 49.05 10.16Q48.33 10.69 47.18 11Q46.04 11.31 44.36 11.31L44.36 11.31Q42.65 11.31 41.44 10.92Q40.24 10.52 39.51 10.22L39.51 10.22L40.04 7.33Q41.02 7.72 42.13 8.06Q43.24 8.40 44.38 8.40ZM56.00 6.10L56.00 0.70L53.01 0.70L53.01-2.16L56.00-2.16L56.00-5.46L59.45-6.02L59.45-2.16L64.96-2.16L64.96 0.70L59.45 0.70L59.45 6.02Q59.45 6.74 59.59 7.19Q59.73 7.64 59.98 7.89Q60.23 8.14 60.60 8.23Q60.96 8.31 61.41 8.31L61.41 8.31Q61.88 8.31 62.29 8.28Q62.70 8.26 63.07 8.19Q63.45 8.12 63.86 7.98Q64.26 7.84 64.74 7.61L64.74 7.61L65.22 10.58Q64.26 10.97 63.16 11.14Q62.05 11.31 61.02 11.31L61.02 11.31Q59.81 11.31 58.89 11.11Q57.96 10.92 57.32 10.36Q56.68 9.80 56.34 8.77Q56.00 7.75 56.00 6.10L56.00 6.10ZM73.03 8.54L73.03 8.54Q73.59 8.54 74.12 8.52Q74.65 8.51 75.04 8.45L75.04 8.45L75.04 5.43Q74.71 5.37 74.23 5.33Q73.76 5.29 73.36 5.29L73.36 5.29Q72.83 5.29 72.33 5.36Q71.82 5.43 71.45 5.60Q71.07 5.76 70.84 6.07Q70.62 6.38 70.62 6.88L70.62 6.88Q70.62 7.78 71.29 8.16Q71.96 8.54 73.03 8.54ZM72.72-2.50L72.72-2.50Q74.34-2.50 75.42-2.12Q76.50-1.74 77.14-1.05Q77.79-0.37 78.07 0.63Q78.35 1.62 78.35 2.85L78.35 2.85L78.35 10.69Q77.59 10.86 76.11 11.08Q74.62 11.31 72.78 11.31L72.78 11.31Q71.52 11.31 70.49 11.08Q69.47 10.86 68.74 10.34Q68.02 9.82 67.62 9.00Q67.23 8.17 67.23 6.97L67.23 6.97Q67.23 5.82 67.68 5.04Q68.13 4.25 68.88 3.78Q69.64 3.30 70.62 3.09Q71.60 2.88 72.66 2.88L72.66 2.88Q74.01 2.88 75.04 3.10L75.04 3.10L75.04 2.68Q75.04 1.70 74.43 1.05Q73.81 0.39 72.30 0.39L72.30 0.39Q71.32 0.39 70.41 0.53Q69.50 0.67 68.94 0.86L68.94 0.86L68.46-1.91Q69.11-2.13 70.28-2.31Q71.46-2.50 72.72-2.50ZM81.23 4.42L81.23 4.42Q81.23 2.99 81.68 1.73Q82.13 0.47 83.05-0.47Q83.98-1.40 85.39-1.95Q86.80-2.50 88.76-2.50L88.76-2.50Q89.94-2.50 90.89-2.33Q91.84-2.16 92.82-1.77L92.82-1.77L92.07 1.00Q91.51 0.81 90.82 0.65Q90.14 0.50 89.07 0.50L89.07 0.50Q87.84 0.50 87.01 0.79Q86.19 1.09 85.68 1.61Q85.18 2.12 84.96 2.85Q84.73 3.58 84.73 4.42L84.73 4.42Q84.73 6.24 85.75 7.28Q86.78 8.31 89.24 8.31L89.24 8.31Q90.05 8.31 90.93 8.20Q91.82 8.09 92.54 7.84L92.54 7.84L93.05 10.66Q92.32 10.94 91.28 11.13Q90.25 11.31 88.85 11.31L88.85 11.31Q86.83 11.31 85.39 10.78Q83.95 10.24 83.02 9.32Q82.10 8.40 81.67 7.14Q81.23 5.88 81.23 4.42ZM99.21 11L95.76 11L95.76-7.84L99.21-8.43L99.21-2.05Q99.63-2.19 100.22-2.31Q100.80-2.44 101.25-2.44L101.25-2.44Q102.71-2.44 103.69-2.01Q104.67-1.57 105.26-0.77Q105.84 0.02 106.10 1.13Q106.35 2.24 106.35 3.58L106.35 3.58L106.35 11L102.90 11L102.90 4.03Q102.90 2.18 102.48 1.37Q102.06 0.56 100.89 0.56L100.89 0.56Q100.41 0.56 99.95 0.67Q99.49 0.78 99.21 0.86L99.21 0.86L99.21 11ZM108.87 4.53L108.87 4.53Q108.87 2.80 109.40 1.48Q109.93 0.16 110.80-0.72Q111.67-1.60 112.79-2.05Q113.91-2.50 115.08-2.50L115.08-2.50Q118.00-2.50 119.51-0.77Q121.02 0.95 121.02 4.25L121.02 4.25Q121.02 4.59 121.01 4.95Q120.99 5.32 120.96 5.54L120.96 5.54L112.42 5.54Q112.42 6.83 113.49 7.57Q114.55 8.31 116.23 8.31L116.23 8.31Q117.27 8.31 118.21 8.09Q119.14 7.86 119.79 7.64L119.79 7.64L120.26 10.58Q119.37 10.89 118.36 11.10Q117.35 11.31 116.09 11.31L116.09 11.31Q114.41 11.31 113.08 10.87Q111.75 10.44 110.81 9.59Q109.88 8.73 109.37 7.47Q108.87 6.21 108.87 4.53ZM112.42 3.16L117.69 3.16Q117.69 2.63 117.55 2.14Q117.41 1.65 117.10 1.26Q116.79 0.86 116.32 0.63Q115.84 0.39 115.14 0.39L115.14 0.39Q114.47 0.39 113.98 0.61Q113.49 0.84 113.17 1.23Q112.84 1.62 112.66 2.12Q112.48 2.63 112.42 3.16L112.42 3.16Z"/>
    </g>
</svg>