<?xml version="1.0" encoding="UTF-8"?>
<svg height="34" width="64.3" version="1.1" xmlns="http://www.w3.org/2000/svg">
    <rect
        height="32"
        width="62.3"
        rx="1"
        ry="1"
        x="1"
        y="1"
        fill="#867db1"
        stroke="#3e375c"
        stroke-width="1"
         />
    <g transform="translate(0, 14)">
        <path fill="#3e375c" d="M18.76 11L15.21 11Q14.54 9.07 13.78 6.63Q13.02 4.20 12.35 1.77Q11.68-0.65 11.15-2.80Q10.62-4.96 10.36-6.33L10.36-6.33L14.00-6.33Q14.17-4.99 14.51-3.21Q14.84-1.43 15.25 0.46Q15.66 2.35 16.12 4.18Q16.58 6.02 17.03 7.47L17.03 7.47Q17.48 6.04 17.92 4.21Q18.37 2.38 18.76 0.49Q19.16-1.40 19.49-3.20Q19.83-4.99 20.05-6.33L20.05-6.33L23.66-6.33Q23.33-4.65 22.84-2.58Q22.35-0.51 21.72 1.77Q21.09 4.06 20.33 6.42Q19.58 8.79 18.76 11L18.76 11ZM37.13 5.76L37.13 5.76Q37.13 7.33 36.60 8.38Q36.07 9.43 35.16 10.06Q34.25 10.69 33.00 10.96Q31.76 11.22 30.33 11.22L30.33 11.22Q29.18 11.22 27.95 11.10Q26.72 10.97 25.51 10.72L25.51 10.72L25.51-6.11Q26.49-6.28 27.67-6.40Q28.84-6.53 29.99-6.53L29.99-6.53Q31.95-6.53 33.18-6.12Q34.42-5.72 35.12-5.06Q35.82-4.40 36.07-3.59Q36.32-2.78 36.32-1.96L36.32-1.96Q36.32-0.73 35.72 0.22Q35.12 1.17 34.11 1.73L34.11 1.73Q35.87 2.38 36.50 3.47Q37.13 4.56 37.13 5.76ZM30.80 3.41L28.96 3.41L28.96 8.12Q29.32 8.17 29.75 8.20Q30.19 8.23 30.61 8.23L30.61 8.23Q31.20 8.23 31.76 8.13Q32.32 8.03 32.75 7.77Q33.18 7.50 33.46 7.01Q33.74 6.52 33.74 5.76L33.74 5.76Q33.74 4.50 32.95 3.96Q32.15 3.41 30.80 3.41L30.80 3.41ZM28.96 0.56L30.30 0.56Q31.62 0.56 32.29-0.02Q32.96-0.59 32.96-1.60L32.96-1.60Q32.96-2.22 32.76-2.59Q32.57-2.97 32.23-3.18Q31.90-3.39 31.45-3.46Q31-3.53 30.52-3.53L30.52-3.53Q30.13-3.53 29.71-3.50Q29.29-3.48 28.96-3.42L28.96-3.42L28.96 0.56ZM51.75 11L48.05 11L47.24 7.00L42.62 7.00L41.84 11L38.25 11Q39.48 5.88 40.74 1.66Q42.00-2.55 43.18-6.33L43.18-6.33L46.93-6.33Q48.16-2.52 49.38 1.75Q50.60 6.02 51.75 11L51.75 11ZM44.97-2.97L44.97-2.97Q44.69-1.99 44.45-1.11Q44.22-0.23 44.01 0.63Q43.80 1.48 43.61 2.35Q43.43 3.22 43.26 4.14L43.26 4.14L46.65 4.14Q46.48 3.22 46.32 2.35Q46.15 1.48 45.94 0.63Q45.73-0.23 45.49-1.11Q45.25-1.99 44.97-2.97Z"/>
    </g>
</svg>