<?xml version="1.0" encoding="UTF-8"?>
<svg height="34" width="102.5" version="1.1" xmlns="http://www.w3.org/2000/svg"><!--Created by Josélio de S. C. Júnior - 2021 - https://github.com/joseliojunior -->
    <defs>
        <pattern id="pattern"
                x="3" y="3" width="6" height="6"
                patternUnits="userSpaceOnUse"
                patternTransform="rotate(45)" >
            <rect height="6" width="6"
                fill="#ffffff"/>
            <line x1="0" y1="0" x2="0" y2="6"
                stroke="#bbbbbb"
                stroke-width="2" />
        </pattern>
    </defs>
    <rect
        height="32"
        width="100.5"
        rx="1"
        ry="1"
        x="1" y="1"
        fill="url(#pattern)" />
    <g transform="translate(0, 12)">
        <path fill="#000000" d="M20.65 4.63L20.65 4.63Q20.65 0.79 22.06-1.16Q23.48-3.12 26-3.12L26-3.12Q28.62-3.12 29.98-1.16Q31.35 0.79 31.35 4.63L31.35 4.63Q31.35 7.99 30.27 9.92Q29.19 11.86 27.15 12.26L27.15 12.26Q27.42 12.86 28.44 13.26Q29.46 13.66 31.23 13.97L31.23 13.97L30.61 16.08Q27.80 15.70 26.37 14.80Q24.94 13.90 24.68 12.22L24.68 12.22Q22.74 11.74 21.69 9.83Q20.65 7.92 20.65 4.63ZM23.65 4.63L23.65 4.63Q23.65 5.71 23.73 6.65Q23.82 7.58 24.07 8.29Q24.32 9 24.78 9.41Q25.23 9.82 26 9.82L26 9.82Q26.74 9.82 27.21 9.41Q27.68 9 27.93 8.29Q28.18 7.58 28.27 6.65Q28.35 5.71 28.35 4.63L28.35 4.63Q28.35 3.55 28.27 2.60Q28.18 1.66 27.93 0.96Q27.68 0.26 27.22-0.14Q26.77-0.55 26-0.55L26-0.55Q25.23-0.55 24.78-0.14Q24.32 0.26 24.07 0.97Q23.82 1.68 23.73 2.62Q23.65 3.55 23.65 4.63ZM33.42-2.86L35.86-2.86Q36.03-2.35 36.28-1.56Q36.54-0.77 36.82 0.14Q37.11 1.06 37.40 1.99Q37.69 2.93 37.95 3.72L37.95 3.72Q38.24 2.83 38.55 1.88Q38.86 0.94 39.15 0.06Q39.44-0.82 39.68-1.58Q39.92-2.35 40.11-2.86L40.11-2.86L42.56-2.86Q42.73-0.91 42.88 0.94Q43.04 2.78 43.15 4.60Q43.26 6.41 43.33 8.24Q43.40 10.08 43.45 12L43.45 12L40.74 12L40.88 0.46L39.06 6.74L36.90 6.74L35.14 0.46L35.26 12L32.55 12Q32.62 10.18 32.71 8.21Q32.79 6.24 32.89 4.30Q32.98 2.35 33.12 0.53Q33.25-1.30 33.42-2.86L33.42-2.86ZM50.02 9.89L50.02 9.89Q50.50 9.89 50.96 9.88Q51.42 9.86 51.75 9.82L51.75 9.82L51.75 7.22Q51.46 7.18 51.06 7.14Q50.65 7.10 50.31 7.10L50.31 7.10Q49.86 7.10 49.42 7.16Q48.99 7.22 48.67 7.37Q48.34 7.51 48.15 7.78Q47.96 8.04 47.96 8.47L47.96 8.47Q47.96 9.24 48.54 9.56Q49.11 9.89 50.02 9.89ZM49.76 0.43L49.76 0.43Q51.15 0.43 52.08 0.76Q53 1.08 53.55 1.67Q54.10 2.26 54.34 3.11Q54.58 3.96 54.58 5.02L54.58 5.02L54.58 11.74Q53.94 11.88 52.66 12.07Q51.39 12.26 49.81 12.26L49.81 12.26Q48.73 12.26 47.85 12.07Q46.98 11.88 46.35 11.44Q45.73 10.99 45.39 10.28Q45.06 9.58 45.06 8.54L45.06 8.54Q45.06 7.56 45.44 6.89Q45.82 6.22 46.47 5.81Q47.12 5.40 47.96 5.22Q48.80 5.04 49.71 5.04L49.71 5.04Q50.86 5.04 51.75 5.23L51.75 5.23L51.75 4.87Q51.75 4.03 51.22 3.47Q50.70 2.90 49.40 2.90L49.40 2.90Q48.56 2.90 47.78 3.02Q47 3.14 46.52 3.31L46.52 3.31L46.11 0.94Q46.66 0.74 47.67 0.59Q48.68 0.43 49.76 0.43ZM60.49-4.66L60.49 5.18Q60.92 4.68 61.36 4.12Q61.81 3.55 62.23 2.95Q62.65 2.35 63.03 1.79Q63.42 1.22 63.70 0.72L63.70 0.72L67.26 0.72Q66.82 1.27 66.27 1.92Q65.72 2.57 65.13 3.24Q64.54 3.91 63.96 4.54Q63.37 5.16 62.89 5.69L62.89 5.69Q63.49 6.26 64.18 7.07Q64.88 7.87 65.55 8.74Q66.22 9.60 66.79 10.46Q67.35 11.33 67.69 12L67.69 12L64.30 12Q64.02 11.40 63.55 10.64Q63.08 9.89 62.55 9.16Q62.02 8.42 61.48 7.76Q60.94 7.10 60.49 6.67L60.49 6.67L60.49 12L57.51 12L57.51-4.15L60.49-4.66ZM68.74 6.46L68.74 6.46Q68.74 4.97 69.20 3.84Q69.66 2.71 70.40 1.96Q71.14 1.20 72.10 0.82Q73.06 0.43 74.07 0.43L74.07 0.43Q76.57 0.43 77.86 1.91Q79.16 3.38 79.16 6.22L79.16 6.22Q79.16 6.50 79.15 6.82Q79.14 7.13 79.11 7.32L79.11 7.32L71.79 7.32Q71.79 8.42 72.70 9.06Q73.62 9.70 75.06 9.70L75.06 9.70Q75.94 9.70 76.75 9.50Q77.55 9.31 78.10 9.12L78.10 9.12L78.51 11.64Q77.74 11.90 76.88 12.08Q76.02 12.26 74.94 12.26L74.94 12.26Q73.50 12.26 72.36 11.89Q71.22 11.52 70.41 10.79Q69.61 10.06 69.18 8.98Q68.74 7.90 68.74 6.46ZM71.79 5.28L76.30 5.28Q76.30 4.82 76.18 4.40Q76.06 3.98 75.80 3.65Q75.54 3.31 75.13 3.11Q74.72 2.90 74.12 2.90L74.12 2.90Q73.54 2.90 73.12 3.10Q72.70 3.29 72.43 3.62Q72.15 3.96 72.00 4.39Q71.84 4.82 71.79 5.28L71.79 5.28Z"/>
    </g>
</svg>