<?xml version="1.0" encoding="UTF-8"?>
<svg height="26" width="147.3" version="1.1" xmlns="http://www.w3.org/2000/svg"><!--Created by Josélio de S. C. Júnior - 2021 - https://github.com/joseliojunior -->
    <rect
        height="24"
        width="145.3"
        rx="12"
        ry="12"
        x="1" y="1"
        fill="#DAE1C2"
        stroke="#7f9047"
        stroke-width="1" />
    <g transform="translate(0, 8)">
        <path fill="#7f9047" stroke="none" d="M23.71 8.56L23.71 8.56Q24.21 8.56 24.54 8.46Q24.86 8.35 25.06 8.17Q25.25 7.98 25.32 7.75Q25.39 7.52 25.39 7.28L25.39 7.28Q25.39 6.98 25.22 6.74Q25.04 6.50 24.77 6.31Q24.50 6.13 24.16 5.98Q23.82 5.82 23.49 5.70L23.49 5.70Q23.04 5.54 22.56 5.33Q22.08 5.12 21.69 4.80Q21.30 4.48 21.04 4.01Q20.78 3.54 20.78 2.83L20.78 2.83Q20.78 1.44 21.69 0.66Q22.59-0.13 24.18-0.13L24.18-0.13Q25.09-0.13 25.77 0.08Q26.45 0.29 26.91 0.54L26.91 0.54L26.34 2.06Q25.94 1.84 25.45 1.68Q24.96 1.52 24.32 1.52L24.32 1.52Q22.75 1.52 22.75 2.66L22.75 2.66Q22.75 2.94 22.91 3.16Q23.07 3.38 23.32 3.54Q23.57 3.71 23.88 3.84Q24.19 3.97 24.50 4.08L24.50 4.08Q24.96 4.26 25.46 4.47Q25.97 4.69 26.39 5.05Q26.82 5.41 27.09 5.94Q27.36 6.48 27.36 7.30L27.36 7.30Q27.36 8.69 26.46 9.45Q25.55 10.21 23.71 10.21L23.71 10.21Q22.48 10.21 21.74 9.94Q21.01 9.68 20.64 9.46L20.64 9.46L21.22 7.86Q21.65 8.11 22.25 8.34Q22.85 8.56 23.71 8.56ZM33.54 2.48L35.55 2.48Q35.25 3.54 34.97 4.55Q34.69 5.57 34.38 6.54Q34.08 7.50 33.74 8.43Q33.39 9.36 32.99 10.24L32.99 10.24Q32.69 10.88 32.39 11.34Q32.10 11.81 31.74 12.10Q31.38 12.40 30.94 12.54Q30.50 12.69 29.90 12.69L29.90 12.69Q29.41 12.69 29 12.61Q28.59 12.53 28.32 12.40L28.32 12.40L28.69 10.75Q29.01 10.90 29.26 10.95Q29.50 11.01 29.79 11.01L29.79 11.01Q30.37 11.01 30.72 10.62Q31.07 10.24 31.28 9.71L31.28 9.71Q30.58 8.30 29.87 6.49Q29.17 4.67 28.59 2.48L28.59 2.48L30.64 2.48Q30.78 3.07 30.97 3.74Q31.15 4.42 31.36 5.09Q31.57 5.76 31.80 6.41Q32.03 7.06 32.27 7.62L32.27 7.62Q32.43 7.06 32.61 6.41Q32.78 5.76 32.94 5.10Q33.10 4.43 33.26 3.76Q33.41 3.09 33.54 2.48L33.54 2.48ZM39.65 8.51L39.65 8.51Q40.37 8.51 40.75 8.41Q41.14 8.30 41.14 7.98L41.14 7.98Q41.14 7.78 41.02 7.63Q40.90 7.49 40.68 7.38Q40.46 7.28 40.18 7.18Q39.90 7.09 39.60 6.99L39.60 6.99Q39.17 6.86 38.72 6.70Q38.27 6.53 37.90 6.27Q37.54 6.02 37.30 5.62Q37.06 5.23 37.06 4.64L37.06 4.64Q37.06 4.16 37.24 3.74Q37.42 3.31 37.82 2.98Q38.21 2.66 38.82 2.47Q39.42 2.29 40.27 2.29L40.27 2.29Q41.01 2.29 41.64 2.40Q42.27 2.51 42.74 2.72L42.74 2.72L42.43 4.38Q42.16 4.30 41.58 4.12Q41.01 3.94 40.29 3.94L40.29 3.94Q39.54 3.94 39.27 4.12Q39.01 4.30 39.01 4.51L39.01 4.51Q39.01 4.69 39.13 4.82Q39.25 4.96 39.45 5.07Q39.65 5.18 39.91 5.29Q40.18 5.39 40.48 5.49L40.48 5.49Q40.91 5.63 41.38 5.81Q41.84 5.98 42.22 6.25Q42.59 6.51 42.83 6.92Q43.07 7.33 43.07 7.92L43.07 7.92Q43.07 8.38 42.90 8.80Q42.72 9.22 42.31 9.52Q41.90 9.82 41.25 10Q40.59 10.18 39.63 10.18L39.63 10.18Q38.66 10.18 37.97 9.95Q37.28 9.73 36.86 9.55L36.86 9.55L37.17 7.90Q37.73 8.13 38.36 8.32Q38.99 8.51 39.65 8.51ZM46.29 7.20L46.29 4.11L44.58 4.11L44.58 2.48L46.29 2.48L46.29 0.59L48.26 0.27L48.26 2.48L51.41 2.48L51.41 4.11L48.26 4.11L48.26 7.15Q48.26 7.57 48.34 7.82Q48.42 8.08 48.56 8.22Q48.70 8.37 48.91 8.42Q49.12 8.46 49.38 8.46L49.38 8.46Q49.65 8.46 49.88 8.45Q50.11 8.43 50.33 8.39Q50.54 8.35 50.78 8.27Q51.01 8.19 51.28 8.06L51.28 8.06L51.55 9.76Q51.01 9.98 50.38 10.08Q49.74 10.18 49.15 10.18L49.15 10.18Q48.46 10.18 47.94 10.06Q47.41 9.95 47.04 9.63Q46.67 9.31 46.48 8.73Q46.29 8.14 46.29 7.20L46.29 7.20ZM52.50 6.30L52.50 6.30Q52.50 5.31 52.80 4.56Q53.10 3.81 53.60 3.30Q54.10 2.80 54.74 2.54Q55.38 2.29 56.05 2.29L56.05 2.29Q57.71 2.29 58.58 3.27Q59.44 4.26 59.44 6.14L59.44 6.14Q59.44 6.34 59.43 6.54Q59.42 6.75 59.41 6.88L59.41 6.88L54.53 6.88Q54.53 7.62 55.14 8.04Q55.74 8.46 56.70 8.46L56.70 8.46Q57.30 8.46 57.83 8.34Q58.37 8.21 58.74 8.08L58.74 8.08L59.01 9.76Q58.50 9.94 57.92 10.06Q57.34 10.18 56.62 10.18L56.62 10.18Q55.66 10.18 54.90 9.93Q54.14 9.68 53.61 9.19Q53.07 8.70 52.78 7.98Q52.50 7.26 52.50 6.30ZM54.53 5.52L57.54 5.52Q57.54 5.22 57.46 4.94Q57.38 4.66 57.20 4.43Q57.02 4.21 56.75 4.07Q56.48 3.94 56.08 3.94L56.08 3.94Q55.70 3.94 55.42 4.06Q55.14 4.19 54.95 4.42Q54.77 4.64 54.66 4.93Q54.56 5.22 54.53 5.52L54.53 5.52ZM65.49 2.40L65.49 2.40Q66.11 2.40 66.51 2.59Q66.91 2.78 67.14 3.17Q67.38 3.55 67.46 4.14Q67.54 4.72 67.54 5.50L67.54 5.50L67.54 10L65.94 10L65.94 5.41Q65.94 4.96 65.88 4.69Q65.82 4.42 65.74 4.27Q65.65 4.13 65.53 4.08Q65.41 4.03 65.28 4.03L65.28 4.03Q65.14 4.03 64.98 4.06Q64.82 4.08 64.69 4.14L64.69 4.14Q64.74 4.45 64.77 4.82Q64.80 5.18 64.80 5.63L64.80 5.63L64.80 7.14L63.20 7.14L63.20 5.41Q63.20 4.64 63.05 4.34Q62.90 4.03 62.56 4.03L62.56 4.03Q62.46 4.03 62.33 4.05Q62.19 4.06 62.06 4.10L62.06 4.10L62.06 10L60.46 10L60.46 2.77Q61.09 2.59 61.70 2.50Q62.30 2.40 62.77 2.40L62.77 2.40Q63.18 2.40 63.51 2.50Q63.84 2.61 64.08 2.85L64.08 2.85Q64.35 2.67 64.72 2.54Q65.09 2.40 65.49 2.40ZM73.01 10L70.98 10Q70.59 8.90 70.16 7.50Q69.73 6.11 69.34 4.73Q68.96 3.34 68.66 2.11Q68.35 0.88 68.21 0.10L68.21 0.10L70.29 0.10Q70.38 0.86 70.58 1.88Q70.77 2.90 71 3.98Q71.23 5.06 71.50 6.10Q71.76 7.15 72.02 7.98L72.02 7.98Q72.27 7.17 72.53 6.12Q72.78 5.07 73.01 3.99Q73.23 2.91 73.42 1.89Q73.62 0.86 73.74 0.10L73.74 0.10L75.81 0.10Q75.62 1.06 75.34 2.24Q75.06 3.42 74.70 4.73Q74.34 6.03 73.90 7.38Q73.47 8.74 73.01 10L73.01 10ZM76.50 6.30L76.50 6.30Q76.50 5.31 76.80 4.56Q77.10 3.81 77.60 3.30Q78.10 2.80 78.74 2.54Q79.38 2.29 80.05 2.29L80.05 2.29Q81.71 2.29 82.58 3.27Q83.44 4.26 83.44 6.14L83.44 6.14Q83.44 6.34 83.43 6.54Q83.42 6.75 83.41 6.88L83.41 6.88L78.53 6.88Q78.53 7.62 79.14 8.04Q79.74 8.46 80.70 8.46L80.70 8.46Q81.30 8.46 81.83 8.34Q82.37 8.21 82.74 8.08L82.74 8.08L83.01 9.76Q82.50 9.94 81.92 10.06Q81.34 10.18 80.62 10.18L80.62 10.18Q79.66 10.18 78.90 9.93Q78.14 9.68 77.61 9.19Q77.07 8.70 76.78 7.98Q76.50 7.26 76.50 6.30ZM78.53 5.52L81.54 5.52Q81.54 5.22 81.46 4.94Q81.38 4.66 81.20 4.43Q81.02 4.21 80.75 4.07Q80.48 3.94 80.08 3.94L80.08 3.94Q79.70 3.94 79.42 4.06Q79.14 4.19 78.95 4.42Q78.77 4.64 78.66 4.93Q78.56 5.22 78.53 5.52L78.53 5.52ZM91.34 2.66L90.99 4.48Q90.80 4.43 90.54 4.38Q90.27 4.34 90 4.30Q89.73 4.26 89.47 4.24Q89.22 4.22 89.04 4.22L89.04 4.22Q88.62 4.22 88.22 4.26Q87.82 4.30 87.41 4.42L87.41 4.42L87.41 10L85.42 10L85.42 2.98Q86.21 2.69 87.03 2.51Q87.86 2.34 88.96 2.34L88.96 2.34Q89.12 2.34 89.42 2.35Q89.71 2.37 90.05 2.41Q90.38 2.45 90.73 2.50Q91.07 2.56 91.34 2.66L91.34 2.66ZM96.54 0.32L96.54 0.32Q96.54 0.90 96.18 1.23Q95.81 1.57 95.30 1.57L95.30 1.57Q94.78 1.57 94.42 1.23Q94.06 0.90 94.06 0.32L94.06 0.32Q94.06-0.27 94.42-0.61Q94.78-0.94 95.30-0.94L95.30-0.94Q95.81-0.94 96.18-0.61Q96.54-0.27 96.54 0.32ZM99.22 8.10L99.47 9.68Q98.86 9.97 98.33 10.07Q97.79 10.18 97.34 10.18L97.34 10.18Q96.58 10.18 96.06 9.95Q95.54 9.73 95.22 9.30Q94.91 8.88 94.78 8.27Q94.66 7.66 94.66 6.88L94.66 6.88L94.66 4.11L92.58 4.11L92.58 2.48L96.62 2.48L96.62 7.14Q96.62 7.81 96.87 8.14Q97.12 8.46 97.70 8.46L97.70 8.46Q97.97 8.46 98.35 8.39Q98.74 8.32 99.22 8.10L99.22 8.10ZM107.22 8.10L107.47 9.68Q107.42 9.71 107.26 9.79Q107.09 9.87 106.82 9.96Q106.54 10.05 106.15 10.11Q105.76 10.18 105.26 10.18L105.26 10.18Q103.90 10.18 103.28 9.37Q102.66 8.56 102.66 7.01L102.66 7.01L102.66 0.62L100.58 0.62L100.58-1.01L104.62-1.01L104.62 7.15Q104.62 7.92 104.93 8.19Q105.23 8.46 105.70 8.46L105.70 8.46Q106.29 8.46 106.69 8.30Q107.09 8.14 107.22 8.10L107.22 8.10ZM115.55 6.22L115.55 6.22Q115.55 7.12 115.30 7.85Q115.04 8.58 114.58 9.10Q114.11 9.63 113.46 9.92Q112.82 10.21 112.02 10.21L112.02 10.21Q111.22 10.21 110.57 9.92Q109.92 9.63 109.45 9.10Q108.98 8.58 108.72 7.85Q108.46 7.12 108.46 6.22L108.46 6.22Q108.46 5.34 108.73 4.62Q108.99 3.89 109.46 3.37Q109.94 2.85 110.59 2.57Q111.25 2.29 112.02 2.29L112.02 2.29Q112.80 2.29 113.45 2.57Q114.10 2.85 114.57 3.37Q115.04 3.89 115.30 4.62Q115.55 5.34 115.55 6.22ZM110.46 6.24L110.46 6.24Q110.46 7.25 110.82 7.87Q111.18 8.50 111.98 8.50L111.98 8.50Q112.75 8.50 113.14 7.87Q113.54 7.25 113.54 6.24L113.54 6.24Q113.54 5.23 113.18 4.62Q112.82 4 112.02 4L112.02 4Q111.25 4 110.86 4.62Q110.46 5.23 110.46 6.24ZM118.53 6L118.53 6Q118.53 6.93 118.86 7.42Q119.20 7.90 119.92 7.90L119.92 7.90Q120.24 7.90 120.52 7.82Q120.80 7.74 121.02 7.62L121.02 7.62L121.02 4Q120.80 3.95 120.62 3.94Q120.45 3.92 120.26 3.92L120.26 3.92Q118.53 3.92 118.53 6ZM123.01 2.72L123.01 9.09Q123.01 10.93 122.12 11.81Q121.23 12.69 119.26 12.69L119.26 12.69Q118.56 12.69 117.91 12.54Q117.26 12.40 116.67 12.21L116.67 12.21L117.04 10.54Q117.50 10.72 118.02 10.87Q118.53 11.02 119.30 11.02L119.30 11.02Q119.81 11.02 120.14 10.90Q120.48 10.78 120.67 10.58Q120.86 10.37 120.94 10.09Q121.02 9.81 121.02 9.49L121.02 9.49L121.02 9.18Q120.61 9.34 120.26 9.42Q119.92 9.50 119.52 9.50L119.52 9.50Q118.05 9.50 117.29 8.58Q116.53 7.65 116.53 6L116.53 6Q116.53 4.14 117.55 3.23Q118.58 2.32 120.34 2.32L120.34 2.32Q121.57 2.32 123.01 2.72L123.01 2.72Z"/>
    </g>
</svg>