<?xml version="1.0" encoding="UTF-8"?>
<svg height="34" width="199.29999999999998" version="1.1" xmlns="http://www.w3.org/2000/svg"><!--Created by Josélio de S. C. Júnior - 2021 - https://github.com/joseliojunior -->
    <rect
        height="32"
        width="197.29999999999998"
        rx="1"
        ry="1"
        x="1" y="1"
        fill="#DAE1C2"
        stroke="#7f9047"
        stroke-width="1" />
    <g transform="translate(0, 12)">
        <path fill="#7f9047" stroke="none" d="M25.57 9.84L25.57 9.84Q26.31 9.84 26.80 9.68Q27.30 9.53 27.58 9.25Q27.87 8.98 27.98 8.63Q28.09 8.28 28.09 7.92L28.09 7.92Q28.09 7.46 27.82 7.10Q27.56 6.74 27.15 6.47Q26.74 6.19 26.24 5.96Q25.74 5.74 25.23 5.54L25.23 5.54Q24.56 5.30 23.84 4.99Q23.12 4.68 22.53 4.20Q21.94 3.72 21.56 3.01Q21.18 2.30 21.18 1.25L21.18 1.25Q21.18-0.84 22.53-2.02Q23.89-3.19 26.26-3.19L26.26-3.19Q27.63-3.19 28.65-2.88Q29.67-2.57 30.37-2.18L30.37-2.18L29.50 0.10Q28.90-0.24 28.17-0.48Q27.44-0.72 26.48-0.72L26.48-0.72Q24.13-0.72 24.13 0.98L24.13 0.98Q24.13 1.42 24.37 1.74Q24.61 2.06 24.98 2.32Q25.35 2.57 25.82 2.76Q26.29 2.95 26.74 3.12L26.74 3.12Q27.44 3.38 28.20 3.71Q28.95 4.03 29.59 4.57Q30.22 5.11 30.63 5.92Q31.04 6.72 31.04 7.94L31.04 7.94Q31.04 10.03 29.68 11.17Q28.33 12.31 25.57 12.31L25.57 12.31Q23.72 12.31 22.62 11.92Q21.51 11.52 20.96 11.18L20.96 11.18L21.82 8.78Q22.47 9.17 23.37 9.50Q24.27 9.84 25.57 9.84ZM40.30 0.72L43.33 0.72Q42.87 2.30 42.45 3.83Q42.03 5.35 41.58 6.80Q41.12 8.26 40.60 9.65Q40.09 11.04 39.49 12.36L39.49 12.36Q39.03 13.32 38.59 14.02Q38.14 14.71 37.60 15.16Q37.06 15.60 36.40 15.82Q35.74 16.03 34.86 16.03L34.86 16.03Q34.11 16.03 33.50 15.91Q32.89 15.79 32.48 15.60L32.48 15.60L33.03 13.13Q33.51 13.34 33.88 13.43Q34.26 13.51 34.69 13.51L34.69 13.51Q35.55 13.51 36.08 12.94Q36.61 12.36 36.92 11.57L36.92 11.57Q35.86 9.46 34.81 6.73Q33.75 4.01 32.89 0.72L32.89 0.72L35.96 0.72Q36.18 1.61 36.45 2.62Q36.73 3.62 37.04 4.63Q37.35 5.64 37.70 6.61Q38.05 7.58 38.41 8.42L38.41 8.42Q38.65 7.58 38.91 6.61Q39.18 5.64 39.42 4.64Q39.66 3.65 39.88 2.64Q40.11 1.63 40.30 0.72L40.30 0.72ZM49.47 9.77L49.47 9.77Q50.55 9.77 51.13 9.61Q51.70 9.46 51.70 8.98L51.70 8.98Q51.70 8.66 51.52 8.45Q51.34 8.23 51.02 8.08Q50.70 7.92 50.28 7.78Q49.86 7.63 49.40 7.49L49.40 7.49Q48.75 7.30 48.08 7.04Q47.41 6.79 46.86 6.41Q46.30 6.02 45.94 5.44Q45.58 4.85 45.58 3.96L45.58 3.96Q45.58 3.24 45.86 2.60Q46.14 1.97 46.72 1.48Q47.31 0.98 48.22 0.71Q49.14 0.43 50.41 0.43L50.41 0.43Q51.51 0.43 52.46 0.60Q53.41 0.77 54.10 1.08L54.10 1.08L53.65 3.58Q53.24 3.46 52.38 3.18Q51.51 2.90 50.43 2.90L50.43 2.90Q49.30 2.90 48.91 3.18Q48.51 3.46 48.51 3.77L48.51 3.77Q48.51 4.03 48.69 4.24Q48.87 4.44 49.17 4.61Q49.47 4.78 49.87 4.93Q50.26 5.09 50.72 5.23L50.72 5.23Q51.37 5.45 52.06 5.71Q52.76 5.98 53.32 6.37Q53.89 6.77 54.25 7.38Q54.61 7.99 54.61 8.88L54.61 8.88Q54.61 9.58 54.34 10.20Q54.08 10.82 53.47 11.28Q52.86 11.74 51.87 12Q50.89 12.26 49.45 12.26L49.45 12.26Q47.98 12.26 46.95 11.93Q45.92 11.59 45.30 11.33L45.30 11.33L45.75 8.86Q46.59 9.19 47.54 9.48Q48.49 9.77 49.47 9.77ZM59.43 7.80L59.43 3.17L56.86 3.17L56.86 0.72L59.43 0.72L59.43-2.11L62.38-2.59L62.38 0.72L67.11 0.72L67.11 3.17L62.38 3.17L62.38 7.73Q62.38 8.35 62.50 8.74Q62.62 9.12 62.84 9.34Q63.06 9.55 63.37 9.62Q63.68 9.70 64.06 9.70L64.06 9.70Q64.47 9.70 64.82 9.67Q65.17 9.65 65.49 9.59Q65.82 9.53 66.16 9.41Q66.51 9.29 66.92 9.10L66.92 9.10L67.33 11.64Q66.51 11.98 65.56 12.12Q64.62 12.26 63.73 12.26L63.73 12.26Q62.70 12.26 61.90 12.10Q61.11 11.93 60.56 11.45Q60.01 10.97 59.72 10.09Q59.43 9.22 59.43 7.80L59.43 7.80ZM68.74 6.46L68.74 6.46Q68.74 4.97 69.20 3.84Q69.66 2.71 70.40 1.96Q71.14 1.20 72.10 0.82Q73.06 0.43 74.07 0.43L74.07 0.43Q76.57 0.43 77.86 1.91Q79.16 3.38 79.16 6.22L79.16 6.22Q79.16 6.50 79.15 6.82Q79.14 7.13 79.11 7.32L79.11 7.32L71.79 7.32Q71.79 8.42 72.70 9.06Q73.62 9.70 75.06 9.70L75.06 9.70Q75.94 9.70 76.75 9.50Q77.55 9.31 78.10 9.12L78.10 9.12L78.51 11.64Q77.74 11.90 76.88 12.08Q76.02 12.26 74.94 12.26L74.94 12.26Q73.50 12.26 72.36 11.89Q71.22 11.52 70.41 10.79Q69.61 10.06 69.18 8.98Q68.74 7.90 68.74 6.46ZM71.79 5.28L76.30 5.28Q76.30 4.82 76.18 4.40Q76.06 3.98 75.80 3.65Q75.54 3.31 75.13 3.11Q74.72 2.90 74.12 2.90L74.12 2.90Q73.54 2.90 73.12 3.10Q72.70 3.29 72.43 3.62Q72.15 3.96 72.00 4.39Q71.84 4.82 71.79 5.28L71.79 5.28ZM88.23 0.60L88.23 0.60Q89.17 0.60 89.77 0.89Q90.37 1.18 90.72 1.75Q91.06 2.33 91.18 3.20Q91.30 4.08 91.30 5.26L91.30 5.26L91.30 12L88.90 12L88.90 5.11Q88.90 4.44 88.82 4.03Q88.74 3.62 88.60 3.41Q88.47 3.19 88.29 3.12Q88.11 3.05 87.92 3.05L87.92 3.05Q87.70 3.05 87.46 3.08Q87.22 3.12 87.03 3.22L87.03 3.22Q87.10 3.67 87.15 4.22Q87.20 4.78 87.20 5.45L87.20 5.45L87.20 7.70L84.80 7.70L84.80 5.11Q84.80 3.96 84.57 3.50Q84.34 3.05 83.84 3.05L83.84 3.05Q83.70 3.05 83.49 3.07Q83.29 3.10 83.10 3.14L83.10 3.14L83.10 12L80.70 12L80.70 1.15Q81.63 0.89 82.54 0.74Q83.46 0.60 84.15 0.60L84.15 0.60Q84.78 0.60 85.27 0.76Q85.76 0.91 86.12 1.27L86.12 1.27Q86.53 1.01 87.08 0.80Q87.63 0.60 88.23 0.60ZM99.51 12L96.46 12Q95.89 10.34 95.24 8.26Q94.59 6.17 94.02 4.09Q93.44 2.02 92.98 0.17Q92.53-1.68 92.31-2.86L92.31-2.86L95.43-2.86Q95.58-1.70 95.86-0.18Q96.15 1.34 96.50 2.96Q96.85 4.58 97.24 6.16Q97.64 7.73 98.02 8.98L98.02 8.98Q98.41 7.75 98.79 6.18Q99.18 4.61 99.51 2.99Q99.85 1.37 100.14-0.17Q100.42-1.70 100.62-2.86L100.62-2.86L103.71-2.86Q103.42-1.42 103.00 0.36Q102.58 2.14 102.04 4.09Q101.50 6.05 100.86 8.08Q100.21 10.10 99.51 12L99.51 12ZM104.74 6.46L104.74 6.46Q104.74 4.97 105.20 3.84Q105.66 2.71 106.40 1.96Q107.14 1.20 108.10 0.82Q109.06 0.43 110.07 0.43L110.07 0.43Q112.57 0.43 113.86 1.91Q115.16 3.38 115.16 6.22L115.16 6.22Q115.16 6.50 115.15 6.82Q115.14 7.13 115.11 7.32L115.11 7.32L107.79 7.32Q107.79 8.42 108.70 9.06Q109.62 9.70 111.06 9.70L111.06 9.70Q111.94 9.70 112.75 9.50Q113.55 9.31 114.10 9.12L114.10 9.12L114.51 11.64Q113.74 11.90 112.88 12.08Q112.02 12.26 110.94 12.26L110.94 12.26Q109.50 12.26 108.36 11.89Q107.22 11.52 106.41 10.79Q105.61 10.06 105.18 8.98Q104.74 7.90 104.74 6.46ZM107.79 5.28L112.30 5.28Q112.30 4.82 112.18 4.40Q112.06 3.98 111.80 3.65Q111.54 3.31 111.13 3.11Q110.72 2.90 110.12 2.90L110.12 2.90Q109.54 2.90 109.12 3.10Q108.70 3.29 108.43 3.62Q108.15 3.96 108.00 4.39Q107.84 4.82 107.79 5.28L107.79 5.28ZM127.02 0.98L126.49 3.72Q126.20 3.65 125.80 3.58Q125.41 3.50 125 3.44Q124.59 3.38 124.21 3.36Q123.82 3.34 123.56 3.34L123.56 3.34Q122.94 3.34 122.34 3.40Q121.74 3.46 121.11 3.62L121.11 3.62L121.11 12L118.14 12L118.14 1.46Q119.31 1.03 120.55 0.77Q121.78 0.50 123.44 0.50L123.44 0.50Q123.68 0.50 124.12 0.53Q124.57 0.55 125.07 0.61Q125.58 0.67 126.09 0.76Q126.61 0.84 127.02 0.98L127.02 0.98ZM134.82-2.52L134.82-2.52Q134.82-1.66 134.26-1.15Q133.71-0.65 132.94-0.65L132.94-0.65Q132.18-0.65 131.64-1.15Q131.10-1.66 131.10-2.52L131.10-2.52Q131.10-3.41 131.64-3.91Q132.18-4.42 132.94-4.42L132.94-4.42Q133.71-4.42 134.26-3.91Q134.82-3.41 134.82-2.52ZM138.82 9.14L139.21 11.52Q138.30 11.95 137.49 12.11Q136.69 12.26 136.02 12.26L136.02 12.26Q134.86 12.26 134.08 11.93Q133.30 11.59 132.84 10.96Q132.37 10.32 132.18 9.41Q131.98 8.50 131.98 7.32L131.98 7.32L131.98 3.17L128.86 3.17L128.86 0.72L134.94 0.72L134.94 7.70Q134.94 8.71 135.31 9.20Q135.68 9.70 136.54 9.70L136.54 9.70Q136.95 9.70 137.53 9.59Q138.10 9.48 138.82 9.14L138.82 9.14ZM150.82 9.14L151.21 11.52Q151.14 11.57 150.88 11.69Q150.63 11.81 150.22 11.94Q149.82 12.07 149.23 12.17Q148.64 12.26 147.90 12.26L147.90 12.26Q145.86 12.26 144.92 11.05Q143.98 9.84 143.98 7.51L143.98 7.51L143.98-2.06L140.86-2.06L140.86-4.51L146.94-4.51L146.94 7.73Q146.94 8.88 147.39 9.29Q147.85 9.70 148.54 9.70L148.54 9.70Q149.43 9.70 150.03 9.46Q150.63 9.22 150.82 9.14L150.82 9.14ZM163.33 6.34L163.33 6.34Q163.33 7.68 162.94 8.77Q162.56 9.86 161.86 10.66Q161.17 11.45 160.20 11.88Q159.22 12.31 158.02 12.31L158.02 12.31Q156.82 12.31 155.85 11.88Q154.88 11.45 154.17 10.66Q153.46 9.86 153.08 8.77Q152.70 7.68 152.70 6.34L152.70 6.34Q152.70 5.02 153.09 3.92Q153.49 2.83 154.20 2.05Q154.90 1.27 155.89 0.85Q156.87 0.43 158.02 0.43L158.02 0.43Q159.20 0.43 160.17 0.85Q161.14 1.27 161.85 2.05Q162.56 2.83 162.94 3.92Q163.33 5.02 163.33 6.34ZM155.70 6.36L155.70 6.36Q155.70 7.87 156.24 8.81Q156.78 9.74 157.98 9.74L157.98 9.74Q159.13 9.74 159.72 8.81Q160.30 7.87 160.30 6.36L160.30 6.36Q160.30 4.85 159.76 3.92Q159.22 3 158.02 3L158.02 3Q156.87 3 156.28 3.92Q155.70 4.85 155.70 6.36ZM167.79 6L167.79 6Q167.79 7.39 168.30 8.12Q168.80 8.86 169.88 8.86L169.88 8.86Q170.36 8.86 170.78 8.74Q171.20 8.62 171.54 8.42L171.54 8.42L171.54 3Q171.20 2.93 170.94 2.90Q170.67 2.88 170.38 2.88L170.38 2.88Q167.79 2.88 167.79 6ZM174.51 1.08L174.51 10.63Q174.51 13.39 173.18 14.71Q171.85 16.03 168.90 16.03L168.90 16.03Q167.84 16.03 166.87 15.82Q165.90 15.60 165.01 15.31L165.01 15.31L165.56 12.82Q166.26 13.08 167.02 13.31Q167.79 13.54 168.94 13.54L168.94 13.54Q169.71 13.54 170.22 13.36Q170.72 13.18 171.01 12.86Q171.30 12.55 171.42 12.13Q171.54 11.71 171.54 11.23L171.54 11.23L171.54 10.78Q170.91 11.02 170.40 11.14Q169.88 11.26 169.28 11.26L169.28 11.26Q167.07 11.26 165.93 9.86Q164.79 8.47 164.79 6L164.79 6Q164.79 3.22 166.33 1.85Q167.86 0.48 170.50 0.48L170.50 0.48Q172.35 0.48 174.51 1.08L174.51 1.08Z"/>
    </g>
</svg>