<?xml version="1.0" encoding="UTF-8"?>
<svg height="34" width="177.1" version="1.1" xmlns="http://www.w3.org/2000/svg">
    <rect
        height="32"
        width="175.1"
        rx="1"
        ry="1"
        x="1"
        y="1"
        fill="#9e0101"
        stroke="#fe3939"
        stroke-width="1"
         />
    <g transform="translate(0, 14)">
        <path fill="#fe3939" d="M16.50 8.48L16.50 8.48Q17.36 8.48 17.94 8.30Q18.51 8.12 18.85 7.79Q19.18 7.47 19.31 7.07Q19.44 6.66 19.44 6.24L19.44 6.24Q19.44 5.71 19.13 5.29Q18.82 4.87 18.34 4.55Q17.87 4.22 17.28 3.96Q16.69 3.69 16.10 3.47L16.10 3.47Q15.32 3.19 14.48 2.82Q13.64 2.46 12.95 1.90Q12.27 1.34 11.82 0.51Q11.37-0.31 11.37-1.54L11.37-1.54Q11.37-3.98 12.95-5.35Q14.54-6.72 17.31-6.72L17.31-6.72Q18.90-6.72 20.09-6.36Q21.28-6.00 22.10-5.55L22.10-5.55L21.09-2.89Q20.39-3.28 19.53-3.56Q18.68-3.84 17.56-3.84L17.56-3.84Q14.82-3.84 14.82-1.85L14.82-1.85Q14.82-1.35 15.10-0.97Q15.38-0.59 15.81-0.30Q16.24-0.00 16.79 0.22Q17.34 0.44 17.87 0.64L17.87 0.64Q18.68 0.95 19.56 1.33Q20.44 1.70 21.19 2.33Q21.93 2.96 22.40 3.90Q22.88 4.84 22.88 6.27L22.88 6.27Q22.88 8.70 21.30 10.03Q19.72 11.36 16.50 11.36L16.50 11.36Q14.34 11.36 13.05 10.90Q11.76 10.44 11.12 10.05L11.12 10.05L12.13 7.25Q12.88 7.70 13.93 8.09Q14.98 8.48 16.50 8.48ZM36.26-2.16L36.26 10.55Q35.31 10.80 33.95 11.06Q32.60 11.31 31 11.31L31 11.31Q29.38 11.31 28.34 10.86Q27.30 10.41 26.70 9.59Q26.10 8.76 25.88 7.64Q25.65 6.52 25.65 5.18L25.65 5.18L25.65-2.16L29.10-2.16L29.10 4.73Q29.10 6.55 29.53 7.43Q29.96 8.31 31.22 8.31L31.22 8.31Q32.01 8.31 32.79 8.17L32.79 8.17L32.79-2.16L36.26-2.16ZM47.66 4.34L47.66 4.34Q47.66 2.49 47.06 1.51Q46.46 0.53 45.22 0.53L45.22 0.53Q44.66 0.53 44.12 0.68Q43.57 0.84 43.18 1.06L43.18 1.06L43.18 8.20Q43.57 8.28 44.01 8.31Q44.44 8.34 44.75 8.34L44.75 8.34Q46.09 8.34 46.88 7.43Q47.66 6.52 47.66 4.34ZM51.16 4.42L51.16 4.42Q51.16 5.99 50.74 7.26Q50.32 8.54 49.51 9.43Q48.70 10.33 47.52 10.82Q46.34 11.31 44.83 11.31L44.83 11.31Q43.49 11.31 42.09 11.11Q40.69 10.92 39.74 10.61L39.74 10.61L39.74-7.84L43.18-8.43L43.18-1.85Q43.91-2.19 44.58-2.31Q45.25-2.44 45.92-2.44L45.92-2.44Q47.21-2.44 48.19-1.95Q49.17-1.46 49.83-0.55Q50.49 0.36 50.82 1.62Q51.16 2.88 51.16 4.42ZM57.99-6.53L57.99-6.53Q59.48-6.53 60.68-6.19Q61.88-5.86 62.75-5.16Q63.62-4.46 64.08-3.38Q64.54-2.30 64.54-0.84L64.54-0.84Q64.54 0.67 63.93 1.90Q63.31 3.13 61.88 3.78L61.88 3.78Q62.36 4.50 62.89 5.39Q63.42 6.27 63.93 7.23Q64.43 8.20 64.89 9.17Q65.36 10.13 65.69 11L65.69 11L62.08 11Q61.44 9.32 60.58 7.77Q59.73 6.21 58.75 4.62L58.75 4.62L56.96 4.62L56.96 11L53.51 11L53.51-6.08Q54.02-6.19 54.62-6.29Q55.22-6.39 55.84-6.43Q56.45-6.47 57.01-6.50Q57.57-6.53 57.99-6.53ZM61.04-0.87L61.04-0.87Q61.04-2.24 60.20-2.89Q59.36-3.53 57.99-3.53L57.99-3.53Q57.80-3.53 57.52-3.52Q57.24-3.50 56.96-3.45L56.96-3.45L56.96 1.76L57.71 1.76Q59.48 1.76 60.26 1.07Q61.04 0.39 61.04-0.87ZM73.95-5.94L73.95-5.94Q73.95-4.93 73.31-4.34Q72.66-3.76 71.77-3.76L71.77-3.76Q70.87-3.76 70.24-4.34Q69.61-4.93 69.61-5.94L69.61-5.94Q69.61-6.98 70.24-7.56Q70.87-8.15 71.77-8.15L71.77-8.15Q72.66-8.15 73.31-7.56Q73.95-6.98 73.95-5.94ZM78.63 7.67L79.08 10.44Q78.01 10.94 77.07 11.13Q76.14 11.31 75.35 11.31L75.35 11.31Q74.01 11.31 73.10 10.92Q72.19 10.52 71.64 9.78Q71.10 9.04 70.87 7.98Q70.65 6.91 70.65 5.54L70.65 5.54L70.65 0.70L67.01 0.70L67.01-2.16L74.09-2.16L74.09 5.99Q74.09 7.16 74.53 7.74Q74.96 8.31 75.97 8.31L75.97 8.31Q76.44 8.31 77.12 8.19Q77.79 8.06 78.63 7.67L78.63 7.67ZM89.63 4.53L89.63 4.53Q89.63 2.77 88.93 1.63Q88.23 0.50 86.80 0.50L86.80 0.50Q86.41 0.50 85.96 0.54Q85.52 0.58 85.21 0.61L85.21 0.61L85.21 7.84Q85.54 8.06 86.10 8.20Q86.66 8.34 87.22 8.34L87.22 8.34Q88.46 8.34 89.04 7.35Q89.63 6.35 89.63 4.53ZM93.13 4.42L93.13 4.42Q93.13 5.93 92.80 7.21Q92.46 8.48 91.82 9.39Q91.17 10.30 90.19 10.80Q89.21 11.31 87.92 11.31L87.92 11.31Q86.61 11.31 85.21 10.66L85.21 10.66L85.21 15.62L81.76 15.62L81.76-1.74Q82.72-2.05 84.10-2.24Q85.49-2.44 86.83-2.44L86.83-2.44Q89.88-2.44 91.51-0.59Q93.13 1.26 93.13 4.42ZM108.70-6.33L121.30-6.33L121.30-3.48L116.74-3.48L116.74 11L113.26 11L113.26-3.48L108.70-3.48L108.70-6.33ZM122.87 4.53L122.87 4.53Q122.87 2.80 123.40 1.48Q123.93 0.16 124.80-0.72Q125.67-1.60 126.79-2.05Q127.91-2.50 129.08-2.50L129.08-2.50Q132.00-2.50 133.51-0.77Q135.02 0.95 135.02 4.25L135.02 4.25Q135.02 4.59 135.01 4.95Q134.99 5.32 134.96 5.54L134.96 5.54L126.42 5.54Q126.42 6.83 127.49 7.57Q128.55 8.31 130.23 8.31L130.23 8.31Q131.27 8.31 132.21 8.09Q133.14 7.86 133.79 7.64L133.79 7.64L134.26 10.58Q133.37 10.89 132.36 11.10Q131.35 11.31 130.09 11.31L130.09 11.31Q128.41 11.31 127.08 10.87Q125.75 10.44 124.81 9.59Q123.88 8.73 123.37 7.47Q122.87 6.21 122.87 4.53ZM126.42 3.16L131.69 3.16Q131.69 2.63 131.55 2.14Q131.41 1.65 131.10 1.26Q130.79 0.86 130.32 0.63Q129.84 0.39 129.14 0.39L129.14 0.39Q128.47 0.39 127.98 0.61Q127.49 0.84 127.17 1.23Q126.84 1.62 126.66 2.12Q126.48 2.63 126.42 3.16L126.42 3.16ZM140.20-2.16L143.11 1.96L145.80-2.16L149.30-2.16L145.04 4.17Q145.72 4.98 146.36 5.89Q147.00 6.80 147.59 7.72Q148.18 8.65 148.66 9.49Q149.13 10.33 149.47 11L149.47 11L145.88 11Q145.13 9.57 144.37 8.45Q143.62 7.33 142.94 6.44L142.94 6.44Q142.10 7.56 141.43 8.62Q140.76 9.68 140.06 11L140.06 11L136.56 11Q136.98 10.22 137.53 9.36Q138.07 8.51 138.67 7.63Q139.28 6.74 139.93 5.88Q140.59 5.01 141.21 4.22L141.21 4.22L136.59-2.16L140.20-2.16ZM154.00 6.10L154.00 0.70L151.01 0.70L151.01-2.16L154.00-2.16L154.00-5.46L157.45-6.02L157.45-2.16L162.96-2.16L162.96 0.70L157.45 0.70L157.45 6.02Q157.45 6.74 157.59 7.19Q157.73 7.64 157.98 7.89Q158.23 8.14 158.60 8.23Q158.96 8.31 159.41 8.31L159.41 8.31Q159.88 8.31 160.29 8.28Q160.70 8.26 161.07 8.19Q161.45 8.12 161.86 7.98Q162.26 7.84 162.74 7.61L162.74 7.61L163.22 10.58Q162.26 10.97 161.16 11.14Q160.05 11.31 159.02 11.31L159.02 11.31Q157.81 11.31 156.89 11.11Q155.96 10.92 155.32 10.36Q154.68 9.80 154.34 8.77Q154.00 7.75 154.00 6.10L154.00 6.10Z"/>
    </g>
</svg>