<?xml version="1.0" encoding="UTF-8"?>
<svg height="34" width="106.6" version="1.1" xmlns="http://www.w3.org/2000/svg">
    <rect
        height="32"
        width="104.6"
        rx="1"
        ry="1"
        x="1"
        y="1"
        fill="#E3F171"
        stroke="#78870d"
        stroke-width="1"
         />
    <g transform="translate(0, 14)">
        <path fill="#78870d" d="M16.27-6.53L16.27-6.53Q19.58-6.53 21.40-5.17Q23.22-3.81 23.22-0.73L23.22-0.73Q23.22 2.38 21.38 3.76Q19.55 5.15 16.19 5.15L16.19 5.15L14.96 5.15L14.96 11L11.51 11L11.51-6.11Q12.02-6.22 12.65-6.30Q13.28-6.39 13.92-6.43Q14.56-6.47 15.18-6.50Q15.80-6.53 16.27-6.53ZM16.66-3.53L16.66-3.53Q16.36-3.53 15.81-3.52Q15.26-3.50 14.96-3.45L14.96-3.45L14.96 2.15L16.36 2.15Q18.01 2.15 18.85 1.49Q19.69 0.84 19.69-0.76L19.69-0.76Q19.69-2.27 18.86-2.90Q18.04-3.53 16.66-3.53ZM31.03 8.54L31.03 8.54Q31.59 8.54 32.12 8.52Q32.65 8.51 33.04 8.45L33.04 8.45L33.04 5.43Q32.71 5.37 32.23 5.33Q31.76 5.29 31.36 5.29L31.36 5.29Q30.83 5.29 30.33 5.36Q29.82 5.43 29.45 5.60Q29.07 5.76 28.84 6.07Q28.62 6.38 28.62 6.88L28.62 6.88Q28.62 7.78 29.29 8.16Q29.96 8.54 31.03 8.54ZM30.72-2.50L30.72-2.50Q32.34-2.50 33.42-2.12Q34.50-1.74 35.14-1.05Q35.79-0.37 36.07 0.63Q36.35 1.62 36.35 2.85L36.35 2.85L36.35 10.69Q35.59 10.86 34.11 11.08Q32.62 11.31 30.78 11.31L30.78 11.31Q29.52 11.31 28.49 11.08Q27.47 10.86 26.74 10.34Q26.02 9.82 25.62 9.00Q25.23 8.17 25.23 6.97L25.23 6.97Q25.23 5.82 25.68 5.04Q26.13 4.25 26.88 3.78Q27.64 3.30 28.62 3.09Q29.60 2.88 30.66 2.88L30.66 2.88Q32.01 2.88 33.04 3.10L33.04 3.10L33.04 2.68Q33.04 1.70 32.43 1.05Q31.81 0.39 30.30 0.39L30.30 0.39Q29.32 0.39 28.41 0.53Q27.50 0.67 26.94 0.86L26.94 0.86L26.46-1.91Q27.11-2.13 28.28-2.31Q29.46-2.50 30.72-2.50ZM44.38 8.40L44.38 8.40Q45.64 8.40 46.32 8.21Q46.99 8.03 46.99 7.47L46.99 7.47Q46.99 7.11 46.78 6.86Q46.57 6.60 46.19 6.42Q45.81 6.24 45.32 6.07Q44.83 5.90 44.30 5.74L44.30 5.74Q43.54 5.51 42.76 5.22Q41.98 4.92 41.33 4.48Q40.69 4.03 40.27 3.34Q39.85 2.66 39.85 1.62L39.85 1.62Q39.85 0.78 40.17 0.04Q40.49-0.70 41.18-1.28Q41.86-1.85 42.93-2.17Q43.99-2.50 45.48-2.50L45.48-2.50Q46.76-2.50 47.87-2.30Q48.98-2.10 49.79-1.74L49.79-1.74L49.26 1.17Q48.78 1.03 47.77 0.71Q46.76 0.39 45.50 0.39L45.50 0.39Q44.19 0.39 43.73 0.71Q43.26 1.03 43.26 1.40L43.26 1.40Q43.26 1.70 43.47 1.94Q43.68 2.18 44.03 2.38Q44.38 2.57 44.85 2.75Q45.31 2.94 45.84 3.10L45.84 3.10Q46.60 3.36 47.41 3.66Q48.22 3.97 48.88 4.43Q49.54 4.90 49.96 5.61Q50.38 6.32 50.38 7.36L50.38 7.36Q50.38 8.17 50.07 8.90Q49.76 9.63 49.05 10.16Q48.33 10.69 47.18 11Q46.04 11.31 44.36 11.31L44.36 11.31Q42.65 11.31 41.44 10.92Q40.24 10.52 39.51 10.22L39.51 10.22L40.04 7.33Q41.02 7.72 42.13 8.06Q43.24 8.40 44.38 8.40ZM53.23 4.42L53.23 4.42Q53.23 2.99 53.68 1.73Q54.13 0.47 55.05-0.47Q55.98-1.40 57.39-1.95Q58.80-2.50 60.76-2.50L60.76-2.50Q61.94-2.50 62.89-2.33Q63.84-2.16 64.82-1.77L64.82-1.77L64.07 1.00Q63.51 0.81 62.82 0.65Q62.14 0.50 61.07 0.50L61.07 0.50Q59.84 0.50 59.01 0.79Q58.19 1.09 57.68 1.61Q57.18 2.12 56.96 2.85Q56.73 3.58 56.73 4.42L56.73 4.42Q56.73 6.24 57.75 7.28Q58.78 8.31 61.24 8.31L61.24 8.31Q62.05 8.31 62.93 8.20Q63.82 8.09 64.54 7.84L64.54 7.84L65.05 10.66Q64.32 10.94 63.28 11.13Q62.25 11.31 60.85 11.31L60.85 11.31Q58.83 11.31 57.39 10.78Q55.95 10.24 55.02 9.32Q54.10 8.40 53.67 7.14Q53.23 5.88 53.23 4.42ZM73.03 8.54L73.03 8.54Q73.59 8.54 74.12 8.52Q74.65 8.51 75.04 8.45L75.04 8.45L75.04 5.43Q74.71 5.37 74.23 5.33Q73.76 5.29 73.36 5.29L73.36 5.29Q72.83 5.29 72.33 5.36Q71.82 5.43 71.45 5.60Q71.07 5.76 70.84 6.07Q70.62 6.38 70.62 6.88L70.62 6.88Q70.62 7.78 71.29 8.16Q71.96 8.54 73.03 8.54ZM72.72-2.50L72.72-2.50Q74.34-2.50 75.42-2.12Q76.50-1.74 77.14-1.05Q77.79-0.37 78.07 0.63Q78.35 1.62 78.35 2.85L78.35 2.85L78.35 10.69Q77.59 10.86 76.11 11.08Q74.62 11.31 72.78 11.31L72.78 11.31Q71.52 11.31 70.49 11.08Q69.47 10.86 68.74 10.34Q68.02 9.82 67.62 9.00Q67.23 8.17 67.23 6.97L67.23 6.97Q67.23 5.82 67.68 5.04Q68.13 4.25 68.88 3.78Q69.64 3.30 70.62 3.09Q71.60 2.88 72.66 2.88L72.66 2.88Q74.01 2.88 75.04 3.10L75.04 3.10L75.04 2.68Q75.04 1.70 74.43 1.05Q73.81 0.39 72.30 0.39L72.30 0.39Q71.32 0.39 70.41 0.53Q69.50 0.67 68.94 0.86L68.94 0.86L68.46-1.91Q69.11-2.13 70.28-2.31Q71.46-2.50 72.72-2.50ZM92.63 7.67L93.08 10.44Q92.99 10.50 92.70 10.64Q92.40 10.78 91.93 10.93Q91.45 11.08 90.77 11.20Q90.08 11.31 89.21 11.31L89.21 11.31Q86.83 11.31 85.74 9.89Q84.65 8.48 84.65 5.76L84.65 5.76L84.65-5.41L81.01-5.41L81.01-8.26L88.09-8.26L88.09 6.02Q88.09 7.36 88.62 7.84Q89.16 8.31 89.97 8.31L89.97 8.31Q91.00 8.31 91.70 8.03Q92.40 7.75 92.63 7.67L92.63 7.67Z"/>
    </g>
</svg>