<?xml version="1.0" encoding="UTF-8"?><svg height="34" width="199.3" version="1.1" xmlns="http://www.w3.org/2000/svg"><!--Created by Josélio de S. C. Júnior - 2021 - https://github.com/joseliojunior --><rect height="32" width="197.3" rx="16" ry="16" x="1" y="1" fill="#2ACCA8" stroke="#104c3f" stroke-width="1" /><g transform="translate(0, 12)"><path fill="#104c3f" d="M31.78 12L28.62 12L27.92 8.57L23.96 8.57L23.29 12L20.22 12Q21.27 7.61 22.35 4.00Q23.43 0.38 24.44-2.86L24.44-2.86L27.66-2.86Q28.71 0.41 29.76 4.07Q30.80 7.73 31.78 12L31.78 12ZM25.98 0.02L25.98 0.02Q25.74 0.86 25.53 1.62Q25.33 2.38 25.15 3.11Q24.97 3.84 24.81 4.58Q24.66 5.33 24.51 6.12L24.51 6.12L27.42 6.12Q27.27 5.33 27.13 4.58Q26.98 3.84 26.80 3.11Q26.62 2.38 26.42 1.62Q26.22 0.86 25.98 0.02ZM37.38-3.02L37.38-3.02Q40.21-3.02 41.77-1.86Q43.33-0.70 43.33 1.94L43.33 1.94Q43.33 4.61 41.76 5.80Q40.18 6.98 37.30 6.98L37.30 6.98L36.25 6.98L36.25 12L33.30 12L33.30-2.66Q33.73-2.76 34.27-2.83Q34.81-2.90 35.36-2.94Q35.91-2.98 36.44-3Q36.97-3.02 37.38-3.02ZM37.71-0.46L37.71-0.46Q37.45-0.46 36.98-0.44Q36.51-0.43 36.25-0.38L36.25-0.38L36.25 4.42L37.45 4.42Q38.86 4.42 39.58 3.85Q40.30 3.29 40.30 1.92L40.30 1.92Q40.30 0.62 39.60 0.08Q38.89-0.46 37.71-0.46ZM54.73 12L45.30 12L45.30 9.55L48.54 9.55L48.54-0.41L45.30-0.41L45.30-2.86L54.73-2.86L54.73-0.41L51.51-0.41L51.51 9.55L54.73 9.55L54.73 12ZM79.26 7.51L79.26 7.51Q79.26 8.86 78.80 9.76Q78.34 10.66 77.56 11.20Q76.78 11.74 75.72 11.96Q74.65 12.19 73.42 12.19L73.42 12.19Q72.44 12.19 71.38 12.08Q70.33 11.98 69.30 11.76L69.30 11.76L69.30-2.66Q70.14-2.81 71.14-2.92Q72.15-3.02 73.14-3.02L73.14-3.02Q74.82-3.02 75.87-2.68Q76.93-2.33 77.53-1.76Q78.13-1.20 78.34-0.50Q78.56 0.19 78.56 0.89L78.56 0.89Q78.56 1.94 78.04 2.76Q77.53 3.58 76.66 4.06L76.66 4.06Q78.18 4.61 78.72 5.54Q79.26 6.48 79.26 7.51ZM73.83 5.50L72.25 5.50L72.25 9.53Q72.56 9.58 72.93 9.60Q73.30 9.62 73.66 9.62L73.66 9.62Q74.17 9.62 74.65 9.54Q75.13 9.46 75.50 9.23Q75.87 9 76.11 8.58Q76.35 8.16 76.35 7.51L76.35 7.51Q76.35 6.43 75.67 5.96Q74.98 5.50 73.83 5.50L73.83 5.50ZM72.25 3.05L73.40 3.05Q74.53 3.05 75.10 2.56Q75.68 2.06 75.68 1.20L75.68 1.20Q75.68 0.67 75.51 0.35Q75.34 0.02 75.06-0.16Q74.77-0.34 74.38-0.40Q74-0.46 73.59-0.46L73.59-0.46Q73.26-0.46 72.90-0.43Q72.54-0.41 72.25-0.36L72.25-0.36L72.25 3.05ZM90.82 9.14L91.21 11.52Q91.14 11.57 90.88 11.69Q90.63 11.81 90.22 11.94Q89.82 12.07 89.23 12.17Q88.64 12.26 87.90 12.26L87.90 12.26Q85.86 12.26 84.92 11.05Q83.98 9.84 83.98 7.51L83.98 7.51L83.98-2.06L80.86-2.06L80.86-4.51L86.94-4.51L86.94 7.73Q86.94 8.88 87.39 9.29Q87.85 9.70 88.54 9.70L88.54 9.70Q89.43 9.70 90.03 9.46Q90.63 9.22 90.82 9.14L90.82 9.14ZM102.51 0.72L102.51 11.62Q101.70 11.83 100.53 12.05Q99.37 12.26 98 12.26L98 12.26Q96.61 12.26 95.72 11.88Q94.83 11.50 94.32 10.79Q93.80 10.08 93.61 9.12Q93.42 8.16 93.42 7.01L93.42 7.01L93.42 0.72L96.37 0.72L96.37 6.62Q96.37 8.18 96.74 8.94Q97.11 9.70 98.19 9.70L98.19 9.70Q98.86 9.70 99.54 9.58L99.54 9.58L99.54 0.72L102.51 0.72ZM104.74 6.46L104.74 6.46Q104.74 4.97 105.20 3.84Q105.66 2.71 106.40 1.96Q107.14 1.20 108.10 0.82Q109.06 0.43 110.07 0.43L110.07 0.43Q112.57 0.43 113.86 1.91Q115.16 3.38 115.16 6.22L115.16 6.22Q115.16 6.50 115.15 6.82Q115.14 7.13 115.11 7.32L115.11 7.32L107.79 7.32Q107.79 8.42 108.70 9.06Q109.62 9.70 111.06 9.70L111.06 9.70Q111.94 9.70 112.75 9.50Q113.55 9.31 114.10 9.12L114.10 9.12L114.51 11.64Q113.74 11.90 112.88 12.08Q112.02 12.26 110.94 12.26L110.94 12.26Q109.50 12.26 108.36 11.89Q107.22 11.52 106.41 10.79Q105.61 10.06 105.18 8.98Q104.74 7.90 104.74 6.46ZM107.79 5.28L112.30 5.28Q112.30 4.82 112.18 4.40Q112.06 3.98 111.80 3.65Q111.54 3.31 111.13 3.11Q110.72 2.90 110.12 2.90L110.12 2.90Q109.54 2.90 109.12 3.10Q108.70 3.29 108.43 3.62Q108.15 3.96 108.00 4.39Q107.84 4.82 107.79 5.28L107.79 5.28ZM124.26 6.46L124.26 6.46Q124.26 4.94 123.66 3.97Q123.06 3 121.83 3L121.83 3Q121.50 3 121.11 3.04Q120.73 3.07 120.46 3.10L120.46 3.10L120.46 9.29Q120.75 9.48 121.23 9.60Q121.71 9.72 122.19 9.72L122.19 9.72Q123.25 9.72 123.75 8.87Q124.26 8.02 124.26 6.46ZM127.26 6.36L127.26 6.36Q127.26 7.66 126.97 8.75Q126.68 9.84 126.13 10.62Q125.58 11.40 124.74 11.83Q123.90 12.26 122.79 12.26L122.79 12.26Q121.66 12.26 120.46 11.71L120.46 11.71L120.46 15.96L117.51 15.96L117.51 1.08Q118.33 0.82 119.52 0.65Q120.70 0.48 121.86 0.48L121.86 0.48Q124.47 0.48 125.86 2.06Q127.26 3.65 127.26 6.36ZM139.02 0.98L138.49 3.72Q138.20 3.65 137.80 3.58Q137.41 3.50 137 3.44Q136.59 3.38 136.21 3.36Q135.82 3.34 135.56 3.34L135.56 3.34Q134.94 3.34 134.34 3.40Q133.74 3.46 133.11 3.62L133.11 3.62L133.11 12L130.14 12L130.14 1.46Q131.31 1.03 132.55 0.77Q133.78 0.50 135.44 0.50L135.44 0.50Q135.68 0.50 136.12 0.53Q136.57 0.55 137.07 0.61Q137.58 0.67 138.09 0.76Q138.61 0.84 139.02 0.98L139.02 0.98ZM146.82-2.52L146.82-2.52Q146.82-1.66 146.26-1.15Q145.71-0.65 144.94-0.65L144.94-0.65Q144.18-0.65 143.64-1.15Q143.10-1.66 143.10-2.52L143.10-2.52Q143.10-3.41 143.64-3.91Q144.18-4.42 144.94-4.42L144.94-4.42Q145.71-4.42 146.26-3.91Q146.82-3.41 146.82-2.52ZM150.82 9.14L151.21 11.52Q150.30 11.95 149.49 12.11Q148.69 12.26 148.02 12.26L148.02 12.26Q146.86 12.26 146.08 11.93Q145.30 11.59 144.84 10.96Q144.37 10.32 144.18 9.41Q143.98 8.50 143.98 7.32L143.98 7.32L143.98 3.17L140.86 3.17L140.86 0.72L146.94 0.72L146.94 7.70Q146.94 8.71 147.31 9.20Q147.68 9.70 148.54 9.70L148.54 9.70Q148.95 9.70 149.53 9.59Q150.10 9.48 150.82 9.14L150.82 9.14ZM153.51 12L153.51 1.08Q154.30 0.86 155.47 0.67Q156.63 0.48 158 0.48L158 0.48Q159.34 0.48 160.23 0.85Q161.12 1.22 161.64 1.91Q162.15 2.59 162.37 3.54Q162.58 4.49 162.58 5.64L162.58 5.64L162.58 12L159.63 12L159.63 6.02Q159.63 4.44 159.27 3.74Q158.91 3.05 157.81 3.05L157.81 3.05Q157.47 3.05 157.15 3.07Q156.82 3.10 156.46 3.14L156.46 3.14L156.46 12L153.51 12ZM167.43 7.80L167.43 3.17L164.86 3.17L164.86 0.72L167.43 0.72L167.43-2.11L170.38-2.59L170.38 0.72L175.11 0.72L175.11 3.17L170.38 3.17L170.38 7.73Q170.38 8.35 170.50 8.74Q170.62 9.12 170.84 9.34Q171.06 9.55 171.37 9.62Q171.68 9.70 172.06 9.70L172.06 9.70Q172.47 9.70 172.82 9.67Q173.17 9.65 173.49 9.59Q173.82 9.53 174.16 9.41Q174.51 9.29 174.92 9.10L174.92 9.10L175.33 11.64Q174.51 11.98 173.56 12.12Q172.62 12.26 171.73 12.26L171.73 12.26Q170.70 12.26 169.90 12.10Q169.11 11.93 168.56 11.45Q168.01 10.97 167.72 10.09Q167.43 9.22 167.43 7.80L167.43 7.80Z"/></g></svg>