<?xml version="1.0" encoding="UTF-8"?><svg height="26" width="147.3" version="1.1" xmlns="http://www.w3.org/2000/svg"><!--Created by Josélio de S. C. Júnior - 2021 - https://github.com/joseliojunior --><rect height="24" width="145.3" rx="12" ry="12" x="1" y="1" fill="#2ACCA8" stroke="#104c3f" stroke-width="1" /><g transform="translate(0, 8)"><path fill="#104c3f" d="M27.86 10L25.74 10L25.28 7.71L22.64 7.71L22.19 10L20.14 10Q20.85 7.07 21.57 4.66Q22.29 2.26 22.96 0.10L22.96 0.10L25.10 0.10Q25.81 2.27 26.50 4.71Q27.20 7.15 27.86 10L27.86 10ZM23.98 2.02L23.98 2.02Q23.82 2.58 23.69 3.08Q23.55 3.58 23.43 4.07Q23.31 4.56 23.21 5.06Q23.10 5.55 23.01 6.08L23.01 6.08L24.94 6.08Q24.85 5.55 24.75 5.06Q24.66 4.56 24.54 4.07Q24.42 3.58 24.28 3.08Q24.14 2.58 23.98 2.02ZM31.58-0.02L31.58-0.02Q33.47-0.02 34.51 0.76Q35.55 1.54 35.55 3.30L35.55 3.30Q35.55 5.07 34.50 5.86Q33.46 6.66 31.54 6.66L31.54 6.66L30.83 6.66L30.83 10L28.86 10L28.86 0.22Q29.15 0.16 29.51 0.11Q29.87 0.06 30.24 0.04Q30.61 0.02 30.96 0Q31.31-0.02 31.58-0.02ZM31.81 1.70L31.81 1.70Q31.63 1.70 31.32 1.70Q31.01 1.71 30.83 1.74L30.83 1.74L30.83 4.94L31.63 4.94Q32.58 4.94 33.06 4.57Q33.54 4.19 33.54 3.28L33.54 3.28Q33.54 2.42 33.06 2.06Q32.59 1.70 31.81 1.70ZM43.15 10L36.86 10L36.86 8.37L39.02 8.37L39.02 1.73L36.86 1.73L36.86 0.10L43.15 0.10L43.15 1.73L41.01 1.73L41.01 8.37L43.15 8.37L43.15 10ZM59.50 7.01L59.50 7.01Q59.50 7.90 59.20 8.50Q58.90 9.10 58.38 9.46Q57.86 9.82 57.14 9.98Q56.43 10.13 55.62 10.13L55.62 10.13Q54.96 10.13 54.26 10.06Q53.55 9.98 52.86 9.84L52.86 9.84L52.86 0.22Q53.42 0.13 54.10 0.06Q54.77-0.02 55.42-0.02L55.42-0.02Q56.54-0.02 57.25 0.22Q57.95 0.45 58.35 0.82Q58.75 1.20 58.90 1.66Q59.04 2.13 59.04 2.59L59.04 2.59Q59.04 3.30 58.70 3.84Q58.35 4.38 57.78 4.70L57.78 4.70Q58.78 5.07 59.14 5.70Q59.50 6.32 59.50 7.01ZM55.89 5.66L54.83 5.66L54.83 8.35Q55.04 8.38 55.29 8.40Q55.54 8.42 55.78 8.42L55.78 8.42Q56.11 8.42 56.43 8.36Q56.75 8.30 57 8.15Q57.25 8 57.41 7.72Q57.57 7.44 57.57 7.01L57.57 7.01Q57.57 6.29 57.11 5.98Q56.66 5.66 55.89 5.66L55.89 5.66ZM54.83 4.03L55.60 4.03Q56.35 4.03 56.74 3.70Q57.12 3.38 57.12 2.80L57.12 2.80Q57.12 2.45 57.01 2.23Q56.90 2.02 56.70 1.90Q56.51 1.78 56.26 1.74Q56 1.70 55.73 1.70L55.73 1.70Q55.50 1.70 55.26 1.71Q55.02 1.73 54.83 1.76L54.83 1.76L54.83 4.03ZM67.22 8.10L67.47 9.68Q67.42 9.71 67.26 9.79Q67.09 9.87 66.82 9.96Q66.54 10.05 66.15 10.11Q65.76 10.18 65.26 10.18L65.26 10.18Q63.90 10.18 63.28 9.37Q62.66 8.56 62.66 7.01L62.66 7.01L62.66 0.62L60.58 0.62L60.58-1.01L64.62-1.01L64.62 7.15Q64.62 7.92 64.93 8.19Q65.23 8.46 65.70 8.46L65.70 8.46Q66.29 8.46 66.69 8.30Q67.09 8.14 67.22 8.10L67.22 8.10ZM75.01 2.48L75.01 9.74Q74.46 9.89 73.69 10.03Q72.91 10.18 72 10.18L72 10.18Q71.07 10.18 70.48 9.92Q69.89 9.66 69.54 9.19Q69.20 8.72 69.07 8.08Q68.94 7.44 68.94 6.67L68.94 6.67L68.94 2.48L70.91 2.48L70.91 6.42Q70.91 7.46 71.16 7.96Q71.41 8.46 72.13 8.46L72.13 8.46Q72.58 8.46 73.02 8.38L73.02 8.38L73.02 2.48L75.01 2.48ZM76.50 6.30L76.50 6.30Q76.50 5.31 76.80 4.56Q77.10 3.81 77.60 3.30Q78.10 2.80 78.74 2.54Q79.38 2.29 80.05 2.29L80.05 2.29Q81.71 2.29 82.58 3.27Q83.44 4.26 83.44 6.14L83.44 6.14Q83.44 6.34 83.43 6.54Q83.42 6.75 83.41 6.88L83.41 6.88L78.53 6.88Q78.53 7.62 79.14 8.04Q79.74 8.46 80.70 8.46L80.70 8.46Q81.30 8.46 81.83 8.34Q82.37 8.21 82.74 8.08L82.74 8.08L83.01 9.76Q82.50 9.94 81.92 10.06Q81.34 10.18 80.62 10.18L80.62 10.18Q79.66 10.18 78.90 9.93Q78.14 9.68 77.61 9.19Q77.07 8.70 76.78 7.98Q76.50 7.26 76.50 6.30ZM78.53 5.52L81.54 5.52Q81.54 5.22 81.46 4.94Q81.38 4.66 81.20 4.43Q81.02 4.21 80.75 4.07Q80.48 3.94 80.08 3.94L80.08 3.94Q79.70 3.94 79.42 4.06Q79.14 4.19 78.95 4.42Q78.77 4.64 78.66 4.93Q78.56 5.22 78.53 5.52L78.53 5.52ZM89.50 6.30L89.50 6.30Q89.50 5.30 89.10 4.65Q88.70 4 87.89 4L87.89 4Q87.66 4 87.41 4.02Q87.15 4.05 86.98 4.06L86.98 4.06L86.98 8.19Q87.17 8.32 87.49 8.40Q87.81 8.48 88.13 8.48L88.13 8.48Q88.83 8.48 89.17 7.91Q89.50 7.34 89.50 6.30ZM91.50 6.24L91.50 6.24Q91.50 7.10 91.31 7.83Q91.12 8.56 90.75 9.08Q90.38 9.60 89.82 9.89Q89.26 10.18 88.53 10.18L88.53 10.18Q87.78 10.18 86.98 9.81L86.98 9.81L86.98 12.64L85.01 12.64L85.01 2.72Q85.55 2.54 86.34 2.43Q87.14 2.32 87.90 2.32L87.90 2.32Q89.65 2.32 90.58 3.38Q91.50 4.43 91.50 6.24ZM99.34 2.66L98.99 4.48Q98.80 4.43 98.54 4.38Q98.27 4.34 98 4.30Q97.73 4.26 97.47 4.24Q97.22 4.22 97.04 4.22L97.04 4.22Q96.62 4.22 96.22 4.26Q95.82 4.30 95.41 4.42L95.41 4.42L95.41 10L93.42 10L93.42 2.98Q94.21 2.69 95.03 2.51Q95.86 2.34 96.96 2.34L96.96 2.34Q97.12 2.34 97.42 2.35Q97.71 2.37 98.05 2.41Q98.38 2.45 98.73 2.50Q99.07 2.56 99.34 2.66L99.34 2.66ZM104.54 0.32L104.54 0.32Q104.54 0.90 104.18 1.23Q103.81 1.57 103.30 1.57L103.30 1.57Q102.78 1.57 102.42 1.23Q102.06 0.90 102.06 0.32L102.06 0.32Q102.06-0.27 102.42-0.61Q102.78-0.94 103.30-0.94L103.30-0.94Q103.81-0.94 104.18-0.61Q104.54-0.27 104.54 0.32ZM107.22 8.10L107.47 9.68Q106.86 9.97 106.33 10.07Q105.79 10.18 105.34 10.18L105.34 10.18Q104.58 10.18 104.06 9.95Q103.54 9.73 103.22 9.30Q102.91 8.88 102.78 8.27Q102.66 7.66 102.66 6.88L102.66 6.88L102.66 4.11L100.58 4.11L100.58 2.48L104.62 2.48L104.62 7.14Q104.62 7.81 104.87 8.14Q105.12 8.46 105.70 8.46L105.70 8.46Q105.97 8.46 106.35 8.39Q106.74 8.32 107.22 8.10L107.22 8.10ZM109.01 10L109.01 2.72Q109.54 2.58 110.31 2.45Q111.09 2.32 112 2.32L112 2.32Q112.90 2.32 113.49 2.57Q114.08 2.82 114.42 3.27Q114.77 3.73 114.91 4.36Q115.06 4.99 115.06 5.76L115.06 5.76L115.06 10L113.09 10L113.09 6.02Q113.09 4.96 112.85 4.50Q112.61 4.03 111.87 4.03L111.87 4.03Q111.65 4.03 111.43 4.05Q111.22 4.06 110.98 4.10L110.98 4.10L110.98 10L109.01 10ZM118.29 7.20L118.29 4.11L116.58 4.11L116.58 2.48L118.29 2.48L118.29 0.59L120.26 0.27L120.26 2.48L123.41 2.48L123.41 4.11L120.26 4.11L120.26 7.15Q120.26 7.57 120.34 7.82Q120.42 8.08 120.56 8.22Q120.70 8.37 120.91 8.42Q121.12 8.46 121.38 8.46L121.38 8.46Q121.65 8.46 121.88 8.45Q122.11 8.43 122.33 8.39Q122.54 8.35 122.78 8.27Q123.01 8.19 123.28 8.06L123.28 8.06L123.55 9.76Q123.01 9.98 122.38 10.08Q121.74 10.18 121.15 10.18L121.15 10.18Q120.46 10.18 119.94 10.06Q119.41 9.95 119.04 9.63Q118.67 9.31 118.48 8.73Q118.29 8.14 118.29 7.20L118.29 7.20Z"/></g></svg>