<?xml version="1.0" encoding="UTF-8"?><svg height="34" width="114.6" version="1.1" xmlns="http://www.w3.org/2000/svg"><!--Created by Josélio de S. C. Júnior - 2021 - https://github.com/joseliojunior --><rect height="32" width="112.6" rx="1" ry="1" x="1" y="1" fill="#02303a" stroke="#07aacf" stroke-width="1" /><g transform="translate(0, 12)"><path fill="#07aacf" d="M27.49-0.62L27.49-0.62Q26.43-0.62 25.71-0.24Q24.99 0.14 24.52 0.83Q24.06 1.51 23.85 2.46Q23.65 3.41 23.65 4.56L23.65 4.56Q23.65 7.22 24.49 8.48Q25.33 9.74 26.96 9.74L26.96 9.74Q27.22 9.74 27.54 9.72Q27.85 9.70 28.11 9.65L28.11 9.65L28.11 4.22L31.06 4.22L31.06 11.64Q30.54 11.83 29.42 12.07Q28.30 12.31 26.72 12.31L26.72 12.31Q25.33 12.31 24.21 11.82Q23.10 11.33 22.30 10.36Q21.51 9.38 21.08 7.93Q20.65 6.48 20.65 4.56L20.65 4.56Q20.65 2.66 21.15 1.21Q21.66-0.24 22.52-1.22Q23.38-2.21 24.56-2.70Q25.74-3.19 27.08-3.19L27.08-3.19Q27.94-3.19 28.63-3.06Q29.31-2.93 29.82-2.76Q30.32-2.59 30.64-2.40Q30.97-2.21 31.14-2.11L31.14-2.11L30.37 0.24Q29.84-0.10 29.07-0.36Q28.30-0.62 27.49-0.62ZM43.02 0.98L42.49 3.72Q42.20 3.65 41.80 3.58Q41.41 3.50 41 3.44Q40.59 3.38 40.21 3.36Q39.82 3.34 39.56 3.34L39.56 3.34Q38.94 3.34 38.34 3.40Q37.74 3.46 37.11 3.62L37.11 3.62L37.11 12L34.14 12L34.14 1.46Q35.31 1.03 36.55 0.77Q37.78 0.50 39.44 0.50L39.44 0.50Q39.68 0.50 40.12 0.53Q40.57 0.55 41.07 0.61Q41.58 0.67 42.09 0.76Q42.61 0.84 43.02 0.98L43.02 0.98ZM50.02 9.89L50.02 9.89Q50.50 9.89 50.96 9.88Q51.42 9.86 51.75 9.82L51.75 9.82L51.75 7.22Q51.46 7.18 51.06 7.14Q50.65 7.10 50.31 7.10L50.31 7.10Q49.86 7.10 49.42 7.16Q48.99 7.22 48.67 7.37Q48.34 7.51 48.15 7.78Q47.96 8.04 47.96 8.47L47.96 8.47Q47.96 9.24 48.54 9.56Q49.11 9.89 50.02 9.89ZM49.76 0.43L49.76 0.43Q51.15 0.43 52.08 0.76Q53 1.08 53.55 1.67Q54.10 2.26 54.34 3.11Q54.58 3.96 54.58 5.02L54.58 5.02L54.58 11.74Q53.94 11.88 52.66 12.07Q51.39 12.26 49.81 12.26L49.81 12.26Q48.73 12.26 47.85 12.07Q46.98 11.88 46.35 11.44Q45.73 10.99 45.39 10.28Q45.06 9.58 45.06 8.54L45.06 8.54Q45.06 7.56 45.44 6.89Q45.82 6.22 46.47 5.81Q47.12 5.40 47.96 5.22Q48.80 5.04 49.71 5.04L49.71 5.04Q50.86 5.04 51.75 5.23L51.75 5.23L51.75 4.87Q51.75 4.03 51.22 3.47Q50.70 2.90 49.40 2.90L49.40 2.90Q48.56 2.90 47.78 3.02Q47 3.14 46.52 3.31L46.52 3.31L46.11 0.94Q46.66 0.74 47.67 0.59Q48.68 0.43 49.76 0.43ZM59.67 6.29L59.67 6.29Q59.67 7.80 60.24 8.76Q60.80 9.72 62.05 9.72L62.05 9.72Q62.41 9.72 62.72 9.70Q63.03 9.67 63.37 9.62L63.37 9.62L63.37 3.48Q63.03 3.29 62.60 3.16Q62.17 3.02 61.69 3.02L61.69 3.02Q60.63 3.02 60.15 3.86Q59.67 4.70 59.67 6.29ZM66.32-4.66L66.32 11.66Q65.50 11.93 64.33 12.10Q63.15 12.26 62.02 12.26L62.02 12.26Q59.38 12.26 58.03 10.70Q56.67 9.14 56.67 6.43L56.67 6.43Q56.67 3.67 57.81 2.08Q58.95 0.48 61.18 0.48L61.18 0.48Q61.78 0.48 62.36 0.61Q62.94 0.74 63.37 0.98L63.37 0.98L63.37-4.15L66.32-4.66ZM78.82 9.14L79.21 11.52Q79.14 11.57 78.88 11.69Q78.63 11.81 78.22 11.94Q77.82 12.07 77.23 12.17Q76.64 12.26 75.90 12.26L75.90 12.26Q73.86 12.26 72.92 11.05Q71.98 9.84 71.98 7.51L71.98 7.51L71.98-2.06L68.86-2.06L68.86-4.51L74.94-4.51L74.94 7.73Q74.94 8.88 75.39 9.29Q75.85 9.70 76.54 9.70L76.54 9.70Q77.43 9.70 78.03 9.46Q78.63 9.22 78.82 9.14L78.82 9.14ZM80.74 6.46L80.74 6.46Q80.74 4.97 81.20 3.84Q81.66 2.71 82.40 1.96Q83.14 1.20 84.10 0.82Q85.06 0.43 86.07 0.43L86.07 0.43Q88.57 0.43 89.86 1.91Q91.16 3.38 91.16 6.22L91.16 6.22Q91.16 6.50 91.15 6.82Q91.14 7.13 91.11 7.32L91.11 7.32L83.79 7.32Q83.79 8.42 84.70 9.06Q85.62 9.70 87.06 9.70L87.06 9.70Q87.94 9.70 88.75 9.50Q89.55 9.31 90.10 9.12L90.10 9.12L90.51 11.64Q89.74 11.90 88.88 12.08Q88.02 12.26 86.94 12.26L86.94 12.26Q85.50 12.26 84.36 11.89Q83.22 11.52 82.41 10.79Q81.61 10.06 81.18 8.98Q80.74 7.90 80.74 6.46ZM83.79 5.28L88.30 5.28Q88.30 4.82 88.18 4.40Q88.06 3.98 87.80 3.65Q87.54 3.31 87.13 3.11Q86.72 2.90 86.12 2.90L86.12 2.90Q85.54 2.90 85.12 3.10Q84.70 3.29 84.43 3.62Q84.15 3.96 84.00 4.39Q83.84 4.82 83.79 5.28L83.79 5.28Z"/></g></svg>