<?xml version="1.0" encoding="UTF-8"?><svg height="34" width="78.3" version="1.1" xmlns="http://www.w3.org/2000/svg"><!--Created by Josélio de S. C. Júnior - 2021 - https://github.com/joseliojunior --><rect height="32" width="76.3" rx="16" ry="16" x="1" y="1" fill="#28431f" stroke="#66ab4f" stroke-width="1" /><g transform="translate(0, 12)"><path fill="#66ab4f" d="M30.90 12L28.52 12Q27.51 9.53 26.32 7.07Q25.14 4.61 23.77 2.14L23.77 2.14L23.77 12L21.10 12L21.10-2.86L23.48-2.86Q24.15-1.80 24.82-0.56Q25.50 0.67 26.13 1.90Q26.77 3.12 27.31 4.27Q27.85 5.42 28.23 6.29L28.23 6.29L28.23-2.86L30.90-2.86L30.90 12ZM39.10 12.31L39.10 12.31Q35.96 12.31 34.30 10.30Q32.65 8.28 32.65 4.56L32.65 4.56Q32.65 2.71 33.15 1.27Q33.66-0.17 34.56-1.16Q35.46-2.16 36.69-2.68Q37.93-3.19 39.39-3.19L39.39-3.19Q40.18-3.19 40.82-3.06Q41.46-2.93 41.94-2.76Q42.42-2.59 42.74-2.40Q43.06-2.21 43.23-2.11L43.23-2.11L42.46 0.24Q41.91-0.12 41.13-0.37Q40.35-0.62 39.34-0.62L39.34-0.62Q38.65-0.62 37.99-0.37Q37.33-0.12 36.81 0.47Q36.30 1.06 35.97 2.04Q35.65 3.02 35.65 4.49L35.65 4.49Q35.65 7.03 36.52 8.39Q37.40 9.74 39.39 9.74L39.39 9.74Q40.54 9.74 41.30 9.48Q42.06 9.22 42.51 8.95L42.51 8.95L43.26 11.28Q42.63 11.66 41.56 11.99Q40.50 12.31 39.10 12.31ZM55.04 9.55L55.04 12L45.70 12L45.70-2.86L48.68-2.86L48.68 9.55L55.04 9.55Z"/></g></svg>