<?xml version="1.0" encoding="UTF-8"?>
<svg height="26" width="147.3" version="1.1" xmlns="http://www.w3.org/2000/svg"><!--Created by Josélio de S. C. Júnior - 2021 - https://github.com/joseliojunior -->
    <rect
        height="24"
        width="145.3"
        rx="12"
        ry="12"
        x="1" y="1"
        fill="#FEFE00"
        stroke="#666600"
        stroke-width="1" />
    <g transform="translate(0, 8)">
        <path fill="#666600" d="M27.15 10L20.86 10L20.86 8.37L23.02 8.37L23.02 1.73L20.86 1.73L20.86 0.10L27.15 0.10L27.15 1.73L25.01 1.73L25.01 8.37L27.15 8.37L27.15 10ZM31.65 8.51L31.65 8.51Q32.37 8.51 32.75 8.41Q33.14 8.30 33.14 7.98L33.14 7.98Q33.14 7.78 33.02 7.63Q32.90 7.49 32.68 7.38Q32.46 7.28 32.18 7.18Q31.90 7.09 31.60 6.99L31.60 6.99Q31.17 6.86 30.72 6.70Q30.27 6.53 29.90 6.27Q29.54 6.02 29.30 5.62Q29.06 5.23 29.06 4.64L29.06 4.64Q29.06 4.16 29.24 3.74Q29.42 3.31 29.82 2.98Q30.21 2.66 30.82 2.47Q31.42 2.29 32.27 2.29L32.27 2.29Q33.01 2.29 33.64 2.40Q34.27 2.51 34.74 2.72L34.74 2.72L34.43 4.38Q34.16 4.30 33.58 4.12Q33.01 3.94 32.29 3.94L32.29 3.94Q31.54 3.94 31.27 4.12Q31.01 4.30 31.01 4.51L31.01 4.51Q31.01 4.69 31.13 4.82Q31.25 4.96 31.45 5.07Q31.65 5.18 31.91 5.29Q32.18 5.39 32.48 5.49L32.48 5.49Q32.91 5.63 33.38 5.81Q33.84 5.98 34.22 6.25Q34.59 6.51 34.83 6.92Q35.07 7.33 35.07 7.92L35.07 7.92Q35.07 8.38 34.90 8.80Q34.72 9.22 34.31 9.52Q33.90 9.82 33.25 10Q32.59 10.18 31.63 10.18L31.63 10.18Q30.66 10.18 29.97 9.95Q29.28 9.73 28.86 9.55L28.86 9.55L29.17 7.90Q29.73 8.13 30.36 8.32Q30.99 8.51 31.65 8.51ZM40.02 8.59L40.02 8.59Q40.34 8.59 40.64 8.58Q40.94 8.58 41.17 8.54L41.17 8.54L41.17 6.82Q40.98 6.78 40.70 6.76Q40.43 6.74 40.21 6.74L40.21 6.74Q39.90 6.74 39.62 6.78Q39.33 6.82 39.11 6.91Q38.90 7.01 38.77 7.18Q38.64 7.36 38.64 7.65L38.64 7.65Q38.64 8.16 39.02 8.38Q39.41 8.59 40.02 8.59ZM39.84 2.29L39.84 2.29Q40.77 2.29 41.38 2.50Q42 2.72 42.37 3.11Q42.74 3.50 42.90 4.07Q43.06 4.64 43.06 5.34L43.06 5.34L43.06 9.82Q42.62 9.92 41.78 10.05Q40.93 10.18 39.87 10.18L39.87 10.18Q39.15 10.18 38.57 10.05Q37.98 9.92 37.57 9.62Q37.15 9.33 36.93 8.86Q36.70 8.38 36.70 7.70L36.70 7.70Q36.70 7.04 36.96 6.59Q37.22 6.14 37.65 5.87Q38.08 5.60 38.64 5.48Q39.20 5.36 39.81 5.36L39.81 5.36Q40.58 5.36 41.17 5.49L41.17 5.49L41.17 5.25Q41.17 4.69 40.82 4.31Q40.46 3.94 39.60 3.94L39.60 3.94Q39.04 3.94 38.52 4.02Q38 4.10 37.68 4.21L37.68 4.21L37.41 2.62Q37.78 2.50 38.45 2.39Q39.12 2.29 39.84 2.29ZM49.52 6.19L49.52 6.19Q49.52 5.14 49.18 4.58Q48.83 4.02 48.13 4.02L48.13 4.02Q47.81 4.02 47.50 4.10Q47.18 4.19 46.96 4.32L46.96 4.32L46.96 8.40Q47.18 8.45 47.43 8.46Q47.68 8.48 47.86 8.48L47.86 8.48Q48.62 8.48 49.07 7.96Q49.52 7.44 49.52 6.19ZM51.52 6.24L51.52 6.24Q51.52 7.14 51.28 7.86Q51.04 8.59 50.58 9.10Q50.11 9.62 49.44 9.90Q48.77 10.18 47.90 10.18L47.90 10.18Q47.14 10.18 46.34 10.06Q45.54 9.95 44.99 9.78L44.99 9.78L44.99-0.77L46.96-1.10L46.96 2.66Q47.38 2.46 47.76 2.39Q48.14 2.32 48.53 2.32L48.53 2.32Q49.26 2.32 49.82 2.60Q50.38 2.88 50.76 3.40Q51.14 3.92 51.33 4.64Q51.52 5.36 51.52 6.24ZM52.50 6.30L52.50 6.30Q52.50 5.31 52.80 4.56Q53.10 3.81 53.60 3.30Q54.10 2.80 54.74 2.54Q55.38 2.29 56.05 2.29L56.05 2.29Q57.71 2.29 58.58 3.27Q59.44 4.26 59.44 6.14L59.44 6.14Q59.44 6.34 59.43 6.54Q59.42 6.75 59.41 6.88L59.41 6.88L54.53 6.88Q54.53 7.62 55.14 8.04Q55.74 8.46 56.70 8.46L56.70 8.46Q57.30 8.46 57.83 8.34Q58.37 8.21 58.74 8.08L58.74 8.08L59.01 9.76Q58.50 9.94 57.92 10.06Q57.34 10.18 56.62 10.18L56.62 10.18Q55.66 10.18 54.90 9.93Q54.14 9.68 53.61 9.19Q53.07 8.70 52.78 7.98Q52.50 7.26 52.50 6.30ZM54.53 5.52L57.54 5.52Q57.54 5.22 57.46 4.94Q57.38 4.66 57.20 4.43Q57.02 4.21 56.75 4.07Q56.48 3.94 56.08 3.94L56.08 3.94Q55.70 3.94 55.42 4.06Q55.14 4.19 54.95 4.42Q54.77 4.64 54.66 4.93Q54.56 5.22 54.53 5.52L54.53 5.52ZM67.22 8.10L67.47 9.68Q67.42 9.71 67.26 9.79Q67.09 9.87 66.82 9.96Q66.54 10.05 66.15 10.11Q65.76 10.18 65.26 10.18L65.26 10.18Q63.90 10.18 63.28 9.37Q62.66 8.56 62.66 7.01L62.66 7.01L62.66 0.62L60.58 0.62L60.58-1.01L64.62-1.01L64.62 7.15Q64.62 7.92 64.93 8.19Q65.23 8.46 65.70 8.46L65.70 8.46Q66.29 8.46 66.69 8.30Q67.09 8.14 67.22 8.10L67.22 8.10ZM75.22 8.10L75.47 9.68Q75.42 9.71 75.26 9.79Q75.09 9.87 74.82 9.96Q74.54 10.05 74.15 10.11Q73.76 10.18 73.26 10.18L73.26 10.18Q71.90 10.18 71.28 9.37Q70.66 8.56 70.66 7.01L70.66 7.01L70.66 0.62L68.58 0.62L68.58-1.01L72.62-1.01L72.62 7.15Q72.62 7.92 72.93 8.19Q73.23 8.46 73.70 8.46L73.70 8.46Q74.29 8.46 74.69 8.30Q75.09 8.14 75.22 8.10L75.22 8.10ZM76.50 6.30L76.50 6.30Q76.50 5.31 76.80 4.56Q77.10 3.81 77.60 3.30Q78.10 2.80 78.74 2.54Q79.38 2.29 80.05 2.29L80.05 2.29Q81.71 2.29 82.58 3.27Q83.44 4.26 83.44 6.14L83.44 6.14Q83.44 6.34 83.43 6.54Q83.42 6.75 83.41 6.88L83.41 6.88L78.53 6.88Q78.53 7.62 79.14 8.04Q79.74 8.46 80.70 8.46L80.70 8.46Q81.30 8.46 81.83 8.34Q82.37 8.21 82.74 8.08L82.74 8.08L83.01 9.76Q82.50 9.94 81.92 10.06Q81.34 10.18 80.62 10.18L80.62 10.18Q79.66 10.18 78.90 9.93Q78.14 9.68 77.61 9.19Q77.07 8.70 76.78 7.98Q76.50 7.26 76.50 6.30ZM78.53 5.52L81.54 5.52Q81.54 5.22 81.46 4.94Q81.38 4.66 81.20 4.43Q81.02 4.21 80.75 4.07Q80.48 3.94 80.08 3.94L80.08 3.94Q79.70 3.94 79.42 4.06Q79.14 4.19 78.95 4.42Q78.77 4.64 78.66 4.93Q78.56 5.22 78.53 5.52L78.53 5.52ZM95.42-0.02L95.42-0.02Q96.27-0.02 96.96 0.18Q97.65 0.37 98.14 0.77Q98.64 1.17 98.90 1.78Q99.17 2.40 99.17 3.23L99.17 3.23Q99.17 4.10 98.82 4.80Q98.46 5.50 97.65 5.87L97.65 5.87Q97.92 6.29 98.22 6.79Q98.53 7.30 98.82 7.85Q99.10 8.40 99.37 8.95Q99.63 9.50 99.82 10L99.82 10L97.76 10Q97.39 9.04 96.90 8.15Q96.42 7.26 95.86 6.35L95.86 6.35L94.83 6.35L94.83 10L92.86 10L92.86 0.24Q93.15 0.18 93.50 0.12Q93.84 0.06 94.19 0.04Q94.54 0.02 94.86 0Q95.18-0.02 95.42-0.02ZM97.17 3.22L97.17 3.22Q97.17 2.43 96.69 2.06Q96.21 1.70 95.42 1.70L95.42 1.70Q95.31 1.70 95.15 1.70Q94.99 1.71 94.83 1.74L94.83 1.74L94.83 4.72L95.26 4.72Q96.27 4.72 96.72 4.33Q97.17 3.94 97.17 3.22ZM102.43 5.04L102.43 5.04Q102.43 5.76 102.49 6.39Q102.54 7.02 102.71 7.49Q102.88 7.95 103.18 8.22Q103.49 8.50 104 8.50L104 8.50Q104.50 8.50 104.81 8.22Q105.12 7.95 105.29 7.48Q105.46 7.01 105.51 6.38Q105.57 5.76 105.57 5.04L105.57 5.04Q105.57 4.32 105.51 3.69Q105.46 3.06 105.29 2.59Q105.12 2.13 104.82 1.86Q104.51 1.58 104 1.58L104 1.58Q103.49 1.58 103.18 1.86Q102.88 2.13 102.71 2.60Q102.54 3.07 102.49 3.70Q102.43 4.32 102.43 5.04ZM100.43 5.04L100.43 5.04Q100.43 2.48 101.38 1.18Q102.32-0.13 104-0.13L104-0.13Q105.74-0.13 106.66 1.18Q107.57 2.48 107.57 5.04L107.57 5.04Q107.57 7.60 106.64 8.90Q105.71 10.21 104.02 10.21L104.02 10.21Q102.27 10.21 101.35 8.90Q100.43 7.60 100.43 5.04ZM110.43 5.04L110.43 5.04Q110.43 5.76 110.49 6.39Q110.54 7.02 110.71 7.49Q110.88 7.95 111.18 8.22Q111.49 8.50 112 8.50L112 8.50Q112.50 8.50 112.81 8.22Q113.12 7.95 113.29 7.48Q113.46 7.01 113.51 6.38Q113.57 5.76 113.57 5.04L113.57 5.04Q113.57 4.32 113.51 3.69Q113.46 3.06 113.29 2.59Q113.12 2.13 112.82 1.86Q112.51 1.58 112 1.58L112 1.58Q111.49 1.58 111.18 1.86Q110.88 2.13 110.71 2.60Q110.54 3.07 110.49 3.70Q110.43 4.32 110.43 5.04ZM108.43 5.04L108.43 5.04Q108.43 2.48 109.38 1.18Q110.32-0.13 112-0.13L112-0.13Q113.74-0.13 114.66 1.18Q115.57 2.48 115.57 5.04L115.57 5.04Q115.57 7.60 114.64 8.90Q113.71 10.21 112.02 10.21L112.02 10.21Q110.27 10.21 109.35 8.90Q108.43 7.60 108.43 5.04ZM116.40 0.10L123.60 0.10L123.60 1.73L120.99 1.73L120.99 10L119.01 10L119.01 1.73L116.40 1.73L116.40 0.10Z"/>
    </g>
</svg>