<?xml version="1.0" encoding="UTF-8"?>
<svg height="34" width="205.29999999999998" version="1.1" xmlns="http://www.w3.org/2000/svg">
    <rect
        height="32"
        width="203.29999999999998"
        rx="14"
        ry="14"
        x="1"
        y="1"
        fill="#FEFE00"
        stroke="#666600"
        stroke-width="1"
         />
    <g transform="translate(0, 14)">
        <path fill="#666600" d="M22.52 11L11.51 11L11.51 8.14L15.29 8.14L15.29-3.48L11.51-3.48L11.51-6.33L22.52-6.33L22.52-3.48L18.76-3.48L18.76 8.14L22.52 8.14L22.52 11ZM30.38 8.40L30.38 8.40Q31.64 8.40 32.32 8.21Q32.99 8.03 32.99 7.47L32.99 7.47Q32.99 7.11 32.78 6.86Q32.57 6.60 32.19 6.42Q31.81 6.24 31.32 6.07Q30.83 5.90 30.30 5.74L30.30 5.74Q29.54 5.51 28.76 5.22Q27.98 4.92 27.33 4.48Q26.69 4.03 26.27 3.34Q25.85 2.66 25.85 1.62L25.85 1.62Q25.85 0.78 26.17 0.04Q26.49-0.70 27.18-1.28Q27.86-1.85 28.93-2.17Q29.99-2.50 31.48-2.50L31.48-2.50Q32.76-2.50 33.87-2.30Q34.98-2.10 35.79-1.74L35.79-1.74L35.26 1.17Q34.78 1.03 33.77 0.71Q32.76 0.39 31.50 0.39L31.50 0.39Q30.19 0.39 29.73 0.71Q29.26 1.03 29.26 1.40L29.26 1.40Q29.26 1.70 29.47 1.94Q29.68 2.18 30.03 2.38Q30.38 2.57 30.85 2.75Q31.31 2.94 31.84 3.10L31.84 3.10Q32.60 3.36 33.41 3.66Q34.22 3.97 34.88 4.43Q35.54 4.90 35.96 5.61Q36.38 6.32 36.38 7.36L36.38 7.36Q36.38 8.17 36.07 8.90Q35.76 9.63 35.05 10.16Q34.33 10.69 33.18 11Q32.04 11.31 30.36 11.31L30.36 11.31Q28.65 11.31 27.44 10.92Q26.24 10.52 25.51 10.22L25.51 10.22L26.04 7.33Q27.02 7.72 28.13 8.06Q29.24 8.40 30.38 8.40ZM45.03 8.54L45.03 8.54Q45.59 8.54 46.12 8.52Q46.65 8.51 47.04 8.45L47.04 8.45L47.04 5.43Q46.71 5.37 46.23 5.33Q45.76 5.29 45.36 5.29L45.36 5.29Q44.83 5.29 44.33 5.36Q43.82 5.43 43.45 5.60Q43.07 5.76 42.84 6.07Q42.62 6.38 42.62 6.88L42.62 6.88Q42.62 7.78 43.29 8.16Q43.96 8.54 45.03 8.54ZM44.72-2.50L44.72-2.50Q46.34-2.50 47.42-2.12Q48.50-1.74 49.14-1.05Q49.79-0.37 50.07 0.63Q50.35 1.62 50.35 2.85L50.35 2.85L50.35 10.69Q49.59 10.86 48.11 11.08Q46.62 11.31 44.78 11.31L44.78 11.31Q43.52 11.31 42.49 11.08Q41.47 10.86 40.74 10.34Q40.02 9.82 39.62 9.00Q39.23 8.17 39.23 6.97L39.23 6.97Q39.23 5.82 39.68 5.04Q40.13 4.25 40.88 3.78Q41.64 3.30 42.62 3.09Q43.60 2.88 44.66 2.88L44.66 2.88Q46.01 2.88 47.04 3.10L47.04 3.10L47.04 2.68Q47.04 1.70 46.43 1.05Q45.81 0.39 44.30 0.39L44.30 0.39Q43.32 0.39 42.41 0.53Q41.50 0.67 40.94 0.86L40.94 0.86L40.46-1.91Q41.11-2.13 42.28-2.31Q43.46-2.50 44.72-2.50ZM61.66 4.34L61.66 4.34Q61.66 2.49 61.06 1.51Q60.46 0.53 59.22 0.53L59.22 0.53Q58.66 0.53 58.12 0.68Q57.57 0.84 57.18 1.06L57.18 1.06L57.18 8.20Q57.57 8.28 58.01 8.31Q58.44 8.34 58.75 8.34L58.75 8.34Q60.09 8.34 60.88 7.43Q61.66 6.52 61.66 4.34ZM65.16 4.42L65.16 4.42Q65.16 5.99 64.74 7.26Q64.32 8.54 63.51 9.43Q62.70 10.33 61.52 10.82Q60.34 11.31 58.83 11.31L58.83 11.31Q57.49 11.31 56.09 11.11Q54.69 10.92 53.74 10.61L53.74 10.61L53.74-7.84L57.18-8.43L57.18-1.85Q57.91-2.19 58.58-2.31Q59.25-2.44 59.92-2.44L59.92-2.44Q61.21-2.44 62.19-1.95Q63.17-1.46 63.83-0.55Q64.49 0.36 64.82 1.62Q65.16 2.88 65.16 4.42ZM66.87 4.53L66.87 4.53Q66.87 2.80 67.40 1.48Q67.93 0.16 68.80-0.72Q69.67-1.60 70.79-2.05Q71.91-2.50 73.08-2.50L73.08-2.50Q76.00-2.50 77.51-0.77Q79.02 0.95 79.02 4.25L79.02 4.25Q79.02 4.59 79.01 4.95Q78.99 5.32 78.96 5.54L78.96 5.54L70.42 5.54Q70.42 6.83 71.49 7.57Q72.55 8.31 74.23 8.31L74.23 8.31Q75.27 8.31 76.21 8.09Q77.14 7.86 77.79 7.64L77.79 7.64L78.26 10.58Q77.37 10.89 76.36 11.10Q75.35 11.31 74.09 11.31L74.09 11.31Q72.41 11.31 71.08 10.87Q69.75 10.44 68.81 9.59Q67.88 8.73 67.37 7.47Q66.87 6.21 66.87 4.53ZM70.42 3.16L75.69 3.16Q75.69 2.63 75.55 2.14Q75.41 1.65 75.10 1.26Q74.79 0.86 74.32 0.63Q73.84 0.39 73.14 0.39L73.14 0.39Q72.47 0.39 71.98 0.61Q71.49 0.84 71.17 1.23Q70.84 1.62 70.66 2.12Q70.48 2.63 70.42 3.16L70.42 3.16ZM92.63 7.67L93.08 10.44Q92.99 10.50 92.70 10.64Q92.40 10.78 91.93 10.93Q91.45 11.08 90.77 11.20Q90.08 11.31 89.21 11.31L89.21 11.31Q86.83 11.31 85.74 9.89Q84.65 8.48 84.65 5.76L84.65 5.76L84.65-5.41L81.01-5.41L81.01-8.26L88.09-8.26L88.09 6.02Q88.09 7.36 88.62 7.84Q89.16 8.31 89.97 8.31L89.97 8.31Q91.00 8.31 91.70 8.03Q92.40 7.75 92.63 7.67L92.63 7.67ZM106.63 7.67L107.08 10.44Q106.99 10.50 106.70 10.64Q106.40 10.78 105.93 10.93Q105.45 11.08 104.77 11.20Q104.08 11.31 103.21 11.31L103.21 11.31Q100.83 11.31 99.74 9.89Q98.65 8.48 98.65 5.76L98.65 5.76L98.65-5.41L95.01-5.41L95.01-8.26L102.09-8.26L102.09 6.02Q102.09 7.36 102.62 7.84Q103.16 8.31 103.97 8.31L103.97 8.31Q105.00 8.31 105.70 8.03Q106.40 7.75 106.63 7.67L106.63 7.67ZM108.87 4.53L108.87 4.53Q108.87 2.80 109.40 1.48Q109.93 0.16 110.80-0.72Q111.67-1.60 112.79-2.05Q113.91-2.50 115.08-2.50L115.08-2.50Q118.00-2.50 119.51-0.77Q121.02 0.95 121.02 4.25L121.02 4.25Q121.02 4.59 121.01 4.95Q120.99 5.32 120.96 5.54L120.96 5.54L112.42 5.54Q112.42 6.83 113.49 7.57Q114.55 8.31 116.23 8.31L116.23 8.31Q117.27 8.31 118.21 8.09Q119.14 7.86 119.79 7.64L119.79 7.64L120.26 10.58Q119.37 10.89 118.36 11.10Q117.35 11.31 116.09 11.31L116.09 11.31Q114.41 11.31 113.08 10.87Q111.75 10.44 110.81 9.59Q109.88 8.73 109.37 7.47Q108.87 6.21 108.87 4.53ZM112.42 3.16L117.69 3.16Q117.69 2.63 117.55 2.14Q117.41 1.65 117.10 1.26Q116.79 0.86 116.32 0.63Q115.84 0.39 115.14 0.39L115.14 0.39Q114.47 0.39 113.98 0.61Q113.49 0.84 113.17 1.23Q112.84 1.62 112.66 2.12Q112.48 2.63 112.42 3.16L112.42 3.16ZM141.99-6.53L141.99-6.53Q143.48-6.53 144.68-6.19Q145.88-5.86 146.75-5.16Q147.62-4.46 148.08-3.38Q148.54-2.30 148.54-0.84L148.54-0.84Q148.54 0.67 147.93 1.90Q147.31 3.13 145.88 3.78L145.88 3.78Q146.36 4.50 146.89 5.39Q147.42 6.27 147.93 7.23Q148.43 8.20 148.89 9.17Q149.36 10.13 149.69 11L149.69 11L146.08 11Q145.44 9.32 144.58 7.77Q143.73 6.21 142.75 4.62L142.75 4.62L140.96 4.62L140.96 11L137.51 11L137.51-6.08Q138.02-6.19 138.62-6.29Q139.22-6.39 139.84-6.43Q140.45-6.47 141.01-6.50Q141.57-6.53 141.99-6.53ZM145.04-0.87L145.04-0.87Q145.04-2.24 144.20-2.89Q143.36-3.53 141.99-3.53L141.99-3.53Q141.80-3.53 141.52-3.52Q141.24-3.50 140.96-3.45L140.96-3.45L140.96 1.76L141.71 1.76Q143.48 1.76 144.26 1.07Q145.04 0.39 145.04-0.87ZM154.26 2.32L154.26 2.32Q154.26 3.58 154.35 4.69Q154.45 5.79 154.75 6.60Q155.04 7.42 155.57 7.89Q156.10 8.37 157 8.37L157 8.37Q157.87 8.37 158.41 7.89Q158.96 7.42 159.25 6.59Q159.55 5.76 159.65 4.67Q159.74 3.58 159.74 2.32L159.74 2.32Q159.74 1.06 159.65-0.05Q159.55-1.15 159.25-1.96Q158.96-2.78 158.43-3.25Q157.90-3.73 157-3.73L157-3.73Q156.10-3.73 155.57-3.25Q155.04-2.78 154.75-1.95Q154.45-1.12 154.35-0.03Q154.26 1.06 154.26 2.32ZM150.76 2.32L150.76 2.32Q150.76-2.16 152.41-4.44Q154.06-6.72 157-6.72L157-6.72Q160.05-6.72 161.65-4.44Q163.24-2.16 163.24 2.32L163.24 2.32Q163.24 6.80 161.62 9.08Q160.00 11.36 157.03 11.36L157.03 11.36Q153.98 11.36 152.37 9.08Q150.76 6.80 150.76 2.32ZM168.26 2.32L168.26 2.32Q168.26 3.58 168.35 4.69Q168.45 5.79 168.75 6.60Q169.04 7.42 169.57 7.89Q170.10 8.37 171 8.37L171 8.37Q171.87 8.37 172.41 7.89Q172.96 7.42 173.25 6.59Q173.55 5.76 173.65 4.67Q173.74 3.58 173.74 2.32L173.74 2.32Q173.74 1.06 173.65-0.05Q173.55-1.15 173.25-1.96Q172.96-2.78 172.43-3.25Q171.90-3.73 171-3.73L171-3.73Q170.10-3.73 169.57-3.25Q169.04-2.78 168.75-1.95Q168.45-1.12 168.35-0.03Q168.26 1.06 168.26 2.32ZM164.76 2.32L164.76 2.32Q164.76-2.16 166.41-4.44Q168.06-6.72 171-6.72L171-6.72Q174.05-6.72 175.65-4.44Q177.24-2.16 177.24 2.32L177.24 2.32Q177.24 6.80 175.62 9.08Q174.00 11.36 171.03 11.36L171.03 11.36Q167.98 11.36 166.37 9.08Q164.76 6.80 164.76 2.32ZM178.70-6.33L191.30-6.33L191.30-3.48L186.74-3.48L186.74 11L183.26 11L183.26-3.48L178.70-3.48L178.70-6.33Z"/>
    </g>
</svg>