<?xml version="1.0" encoding="UTF-8"?>
<svg height="34" width="199.29999999999998" version="1.1" xmlns="http://www.w3.org/2000/svg">
    <rect
        height="32"
        width="197.29999999999998"
        rx="1"
        ry="1"
        x="1"
        y="1"
        fill="#FEFE00"
        stroke="#666600"
        stroke-width="1"
         />
    <g transform="translate(0, 12)">
        <path fill="#666600" d="M30.73 12L21.30 12L21.30 9.55L24.54 9.55L24.54-0.41L21.30-0.41L21.30-2.86L30.73-2.86L30.73-0.41L27.51-0.41L27.51 9.55L30.73 9.55L30.73 12ZM37.47 9.77L37.47 9.77Q38.55 9.77 39.13 9.61Q39.70 9.46 39.70 8.98L39.70 8.98Q39.70 8.66 39.52 8.45Q39.34 8.23 39.02 8.08Q38.70 7.92 38.28 7.78Q37.86 7.63 37.40 7.49L37.40 7.49Q36.75 7.30 36.08 7.04Q35.41 6.79 34.86 6.41Q34.30 6.02 33.94 5.44Q33.58 4.85 33.58 3.96L33.58 3.96Q33.58 3.24 33.86 2.60Q34.14 1.97 34.72 1.48Q35.31 0.98 36.22 0.71Q37.14 0.43 38.41 0.43L38.41 0.43Q39.51 0.43 40.46 0.60Q41.41 0.77 42.10 1.08L42.10 1.08L41.65 3.58Q41.24 3.46 40.38 3.18Q39.51 2.90 38.43 2.90L38.43 2.90Q37.30 2.90 36.91 3.18Q36.51 3.46 36.51 3.77L36.51 3.77Q36.51 4.03 36.69 4.24Q36.87 4.44 37.17 4.61Q37.47 4.78 37.87 4.93Q38.26 5.09 38.72 5.23L38.72 5.23Q39.37 5.45 40.06 5.71Q40.76 5.98 41.32 6.37Q41.89 6.77 42.25 7.38Q42.61 7.99 42.61 8.88L42.61 8.88Q42.61 9.58 42.34 10.20Q42.08 10.82 41.47 11.28Q40.86 11.74 39.87 12Q38.89 12.26 37.45 12.26L37.45 12.26Q35.98 12.26 34.95 11.93Q33.92 11.59 33.30 11.33L33.30 11.33L33.75 8.86Q34.59 9.19 35.54 9.48Q36.49 9.77 37.47 9.77ZM50.02 9.89L50.02 9.89Q50.50 9.89 50.96 9.88Q51.42 9.86 51.75 9.82L51.75 9.82L51.75 7.22Q51.46 7.18 51.06 7.14Q50.65 7.10 50.31 7.10L50.31 7.10Q49.86 7.10 49.42 7.16Q48.99 7.22 48.67 7.37Q48.34 7.51 48.15 7.78Q47.96 8.04 47.96 8.47L47.96 8.47Q47.96 9.24 48.54 9.56Q49.11 9.89 50.02 9.89ZM49.76 0.43L49.76 0.43Q51.15 0.43 52.08 0.76Q53 1.08 53.55 1.67Q54.10 2.26 54.34 3.11Q54.58 3.96 54.58 5.02L54.58 5.02L54.58 11.74Q53.94 11.88 52.66 12.07Q51.39 12.26 49.81 12.26L49.81 12.26Q48.73 12.26 47.85 12.07Q46.98 11.88 46.35 11.44Q45.73 10.99 45.39 10.28Q45.06 9.58 45.06 8.54L45.06 8.54Q45.06 7.56 45.44 6.89Q45.82 6.22 46.47 5.81Q47.12 5.40 47.96 5.22Q48.80 5.04 49.71 5.04L49.71 5.04Q50.86 5.04 51.75 5.23L51.75 5.23L51.75 4.87Q51.75 4.03 51.22 3.47Q50.70 2.90 49.40 2.90L49.40 2.90Q48.56 2.90 47.78 3.02Q47 3.14 46.52 3.31L46.52 3.31L46.11 0.94Q46.66 0.74 47.67 0.59Q48.68 0.43 49.76 0.43ZM64.28 6.29L64.28 6.29Q64.28 4.70 63.76 3.86Q63.25 3.02 62.19 3.02L62.19 3.02Q61.71 3.02 61.24 3.16Q60.78 3.29 60.44 3.48L60.44 3.48L60.44 9.60Q60.78 9.67 61.15 9.70Q61.52 9.72 61.78 9.72L61.78 9.72Q62.94 9.72 63.61 8.94Q64.28 8.16 64.28 6.29ZM67.28 6.36L67.28 6.36Q67.28 7.70 66.92 8.80Q66.56 9.89 65.86 10.66Q65.17 11.42 64.16 11.84Q63.15 12.26 61.86 12.26L61.86 12.26Q60.70 12.26 59.50 12.10Q58.30 11.93 57.49 11.66L57.49 11.66L57.49-4.15L60.44-4.66L60.44 0.98Q61.06 0.70 61.64 0.59Q62.22 0.48 62.79 0.48L62.79 0.48Q63.90 0.48 64.74 0.90Q65.58 1.32 66.14 2.10Q66.70 2.88 66.99 3.96Q67.28 5.04 67.28 6.36ZM68.74 6.46L68.74 6.46Q68.74 4.97 69.20 3.84Q69.66 2.71 70.40 1.96Q71.14 1.20 72.10 0.82Q73.06 0.43 74.07 0.43L74.07 0.43Q76.57 0.43 77.86 1.91Q79.16 3.38 79.16 6.22L79.16 6.22Q79.16 6.50 79.15 6.82Q79.14 7.13 79.11 7.32L79.11 7.32L71.79 7.32Q71.79 8.42 72.70 9.06Q73.62 9.70 75.06 9.70L75.06 9.70Q75.94 9.70 76.75 9.50Q77.55 9.31 78.10 9.12L78.10 9.12L78.51 11.64Q77.74 11.90 76.88 12.08Q76.02 12.26 74.94 12.26L74.94 12.26Q73.50 12.26 72.36 11.89Q71.22 11.52 70.41 10.79Q69.61 10.06 69.18 8.98Q68.74 7.90 68.74 6.46ZM71.79 5.28L76.30 5.28Q76.30 4.82 76.18 4.40Q76.06 3.98 75.80 3.65Q75.54 3.31 75.13 3.11Q74.72 2.90 74.12 2.90L74.12 2.90Q73.54 2.90 73.12 3.10Q72.70 3.29 72.43 3.62Q72.15 3.96 72.00 4.39Q71.84 4.82 71.79 5.28L71.79 5.28ZM90.82 9.14L91.21 11.52Q91.14 11.57 90.88 11.69Q90.63 11.81 90.22 11.94Q89.82 12.07 89.23 12.17Q88.64 12.26 87.90 12.26L87.90 12.26Q85.86 12.26 84.92 11.05Q83.98 9.84 83.98 7.51L83.98 7.51L83.98-2.06L80.86-2.06L80.86-4.51L86.94-4.51L86.94 7.73Q86.94 8.88 87.39 9.29Q87.85 9.70 88.54 9.70L88.54 9.70Q89.43 9.70 90.03 9.46Q90.63 9.22 90.82 9.14L90.82 9.14ZM102.82 9.14L103.21 11.52Q103.14 11.57 102.88 11.69Q102.63 11.81 102.22 11.94Q101.82 12.07 101.23 12.17Q100.64 12.26 99.90 12.26L99.90 12.26Q97.86 12.26 96.92 11.05Q95.98 9.84 95.98 7.51L95.98 7.51L95.98-2.06L92.86-2.06L92.86-4.51L98.94-4.51L98.94 7.73Q98.94 8.88 99.39 9.29Q99.85 9.70 100.54 9.70L100.54 9.70Q101.43 9.70 102.03 9.46Q102.63 9.22 102.82 9.14L102.82 9.14ZM104.74 6.46L104.74 6.46Q104.74 4.97 105.20 3.84Q105.66 2.71 106.40 1.96Q107.14 1.20 108.10 0.82Q109.06 0.43 110.07 0.43L110.07 0.43Q112.57 0.43 113.86 1.91Q115.16 3.38 115.16 6.22L115.16 6.22Q115.16 6.50 115.15 6.82Q115.14 7.13 115.11 7.32L115.11 7.32L107.79 7.32Q107.79 8.42 108.70 9.06Q109.62 9.70 111.06 9.70L111.06 9.70Q111.94 9.70 112.75 9.50Q113.55 9.31 114.10 9.12L114.10 9.12L114.51 11.64Q113.74 11.90 112.88 12.08Q112.02 12.26 110.94 12.26L110.94 12.26Q109.50 12.26 108.36 11.89Q107.22 11.52 106.41 10.79Q105.61 10.06 105.18 8.98Q104.74 7.90 104.74 6.46ZM107.79 5.28L112.30 5.28Q112.30 4.82 112.18 4.40Q112.06 3.98 111.80 3.65Q111.54 3.31 111.13 3.11Q110.72 2.90 110.12 2.90L110.12 2.90Q109.54 2.90 109.12 3.10Q108.70 3.29 108.43 3.62Q108.15 3.96 108.00 4.39Q107.84 4.82 107.79 5.28L107.79 5.28ZM133.14-3.02L133.14-3.02Q134.41-3.02 135.44-2.74Q136.47-2.45 137.22-1.85Q137.96-1.25 138.36-0.32Q138.75 0.60 138.75 1.85L138.75 1.85Q138.75 3.14 138.22 4.20Q137.70 5.26 136.47 5.81L136.47 5.81Q136.88 6.43 137.34 7.19Q137.79 7.94 138.22 8.77Q138.66 9.60 139.05 10.43Q139.45 11.26 139.74 12L139.74 12L136.64 12Q136.09 10.56 135.36 9.23Q134.62 7.90 133.78 6.53L133.78 6.53L132.25 6.53L132.25 12L129.30 12L129.30-2.64Q129.73-2.74 130.24-2.82Q130.76-2.90 131.29-2.94Q131.82-2.98 132.30-3Q132.78-3.02 133.14-3.02ZM135.75 1.82L135.75 1.82Q135.75 0.65 135.03 0.10Q134.31-0.46 133.14-0.46L133.14-0.46Q132.97-0.46 132.73-0.44Q132.49-0.43 132.25-0.38L132.25-0.38L132.25 4.08L132.90 4.08Q134.41 4.08 135.08 3.49Q135.75 2.90 135.75 1.82ZM143.65 4.56L143.65 4.56Q143.65 5.64 143.73 6.59Q143.82 7.54 144.07 8.23Q144.32 8.93 144.78 9.34Q145.23 9.74 146 9.74L146 9.74Q146.74 9.74 147.21 9.34Q147.68 8.93 147.93 8.22Q148.18 7.51 148.27 6.58Q148.35 5.64 148.35 4.56L148.35 4.56Q148.35 3.48 148.27 2.53Q148.18 1.58 147.93 0.89Q147.68 0.19 147.22-0.22Q146.77-0.62 146-0.62L146-0.62Q145.23-0.62 144.78-0.22Q144.32 0.19 144.07 0.90Q143.82 1.61 143.73 2.54Q143.65 3.48 143.65 4.56ZM140.65 4.56L140.65 4.56Q140.65 0.72 142.06-1.24Q143.48-3.19 146-3.19L146-3.19Q148.62-3.19 149.98-1.24Q151.35 0.72 151.35 4.56L151.35 4.56Q151.35 8.40 149.96 10.36Q148.57 12.31 146.02 12.31L146.02 12.31Q143.41 12.31 142.03 10.36Q140.65 8.40 140.65 4.56ZM155.65 4.56L155.65 4.56Q155.65 5.64 155.73 6.59Q155.82 7.54 156.07 8.23Q156.32 8.93 156.78 9.34Q157.23 9.74 158 9.74L158 9.74Q158.74 9.74 159.21 9.34Q159.68 8.93 159.93 8.22Q160.18 7.51 160.27 6.58Q160.35 5.64 160.35 4.56L160.35 4.56Q160.35 3.48 160.27 2.53Q160.18 1.58 159.93 0.89Q159.68 0.19 159.22-0.22Q158.77-0.62 158-0.62L158-0.62Q157.23-0.62 156.78-0.22Q156.32 0.19 156.07 0.90Q155.82 1.61 155.73 2.54Q155.65 3.48 155.65 4.56ZM152.65 4.56L152.65 4.56Q152.65 0.72 154.06-1.24Q155.48-3.19 158-3.19L158-3.19Q160.62-3.19 161.98-1.24Q163.35 0.72 163.35 4.56L163.35 4.56Q163.35 8.40 161.96 10.36Q160.57 12.31 158.02 12.31L158.02 12.31Q155.41 12.31 154.03 10.36Q152.65 8.40 152.65 4.56ZM164.60-2.86L175.40-2.86L175.40-0.41L171.49-0.41L171.49 12L168.51 12L168.51-0.41L164.60-0.41L164.60-2.86Z"/>
    </g>
</svg>