<?xml version="1.0" encoding="UTF-8"?>
<svg height="26" width="98.69999999999999" version="1.1" xmlns="http://www.w3.org/2000/svg"><!--Created by Josélio de S. C. Júnior - 2021 - https://github.com/joseliojunior -->
<rect
    height="24"
    width="96.69999999999999"
    rx="1"
    ry="1"
    x="1" y="1"
    fill="#026e00"
    stroke="#ffffff"
    stroke-width="1" />
<g transform="translate(0, 8)">
    <path fill="#ffffff" d="M27.26 10L25.68 10Q25.01 8.35 24.22 6.71Q23.42 5.07 22.51 3.42L22.51 3.42L22.51 10L20.74 10L20.74 0.10L22.32 0.10Q22.77 0.80 23.22 1.62Q23.66 2.45 24.09 3.26Q24.51 4.08 24.87 4.85Q25.23 5.62 25.49 6.19L25.49 6.19L25.49 0.10L27.26 0.10L27.26 10ZM35.55 6.22L35.55 6.22Q35.55 7.12 35.30 7.85Q35.04 8.58 34.58 9.10Q34.11 9.63 33.46 9.92Q32.82 10.21 32.02 10.21L32.02 10.21Q31.22 10.21 30.57 9.92Q29.92 9.63 29.45 9.10Q28.98 8.58 28.72 7.85Q28.46 7.12 28.46 6.22L28.46 6.22Q28.46 5.34 28.73 4.62Q28.99 3.89 29.46 3.37Q29.94 2.85 30.59 2.57Q31.25 2.29 32.02 2.29L32.02 2.29Q32.80 2.29 33.45 2.57Q34.10 2.85 34.57 3.37Q35.04 3.89 35.30 4.62Q35.55 5.34 35.55 6.22ZM30.46 6.24L30.46 6.24Q30.46 7.25 30.82 7.87Q31.18 8.50 31.98 8.50L31.98 8.50Q32.75 8.50 33.14 7.87Q33.54 7.25 33.54 6.24L33.54 6.24Q33.54 5.23 33.18 4.62Q32.82 4 32.02 4L32.02 4Q31.25 4 30.86 4.62Q30.46 5.23 30.46 6.24ZM38.45 6.19L38.45 6.19Q38.45 7.20 38.82 7.84Q39.20 8.48 40.03 8.48L40.03 8.48Q40.27 8.48 40.48 8.46Q40.69 8.45 40.91 8.42L40.91 8.42L40.91 4.32Q40.69 4.19 40.40 4.10Q40.11 4.02 39.79 4.02L39.79 4.02Q39.09 4.02 38.77 4.58Q38.45 5.14 38.45 6.19ZM42.88-1.10L42.88 9.78Q42.34 9.95 41.55 10.06Q40.77 10.18 40.02 10.18L40.02 10.18Q38.26 10.18 37.35 9.14Q36.45 8.10 36.45 6.29L36.45 6.29Q36.45 4.45 37.21 3.38Q37.97 2.32 39.46 2.32L39.46 2.32Q39.86 2.32 40.24 2.41Q40.62 2.50 40.91 2.66L40.91 2.66L40.91-0.77L42.88-1.10ZM44.50 6.30L44.50 6.30Q44.50 5.31 44.80 4.56Q45.10 3.81 45.60 3.30Q46.10 2.80 46.74 2.54Q47.38 2.29 48.05 2.29L48.05 2.29Q49.71 2.29 50.58 3.27Q51.44 4.26 51.44 6.14L51.44 6.14Q51.44 6.34 51.43 6.54Q51.42 6.75 51.41 6.88L51.41 6.88L46.53 6.88Q46.53 7.62 47.14 8.04Q47.74 8.46 48.70 8.46L48.70 8.46Q49.30 8.46 49.83 8.34Q50.37 8.21 50.74 8.08L50.74 8.08L51.01 9.76Q50.50 9.94 49.92 10.06Q49.34 10.18 48.62 10.18L48.62 10.18Q47.66 10.18 46.90 9.93Q46.14 9.68 45.61 9.19Q45.07 8.70 44.78 7.98Q44.50 7.26 44.50 6.30ZM46.53 5.52L49.54 5.52Q49.54 5.22 49.46 4.94Q49.38 4.66 49.20 4.43Q49.02 4.21 48.75 4.07Q48.48 3.94 48.08 3.94L48.08 3.94Q47.70 3.94 47.42 4.06Q47.14 4.19 46.95 4.42Q46.77 4.64 46.66 4.93Q46.56 5.22 46.53 5.52L46.53 5.52ZM57.44 8.74L57.44 8.74Q57.44 9.44 57.01 9.81Q56.58 10.18 56.02 10.18L56.02 10.18Q55.73 10.18 55.47 10.08Q55.22 9.98 55.02 9.80Q54.82 9.62 54.70 9.35Q54.58 9.09 54.58 8.74L54.58 8.74Q54.58 8.40 54.70 8.14Q54.82 7.87 55.02 7.70Q55.22 7.52 55.47 7.42Q55.73 7.33 56.02 7.33L56.02 7.33Q56.58 7.33 57.01 7.70Q57.44 8.06 57.44 8.74ZM66.40 2.48L66.40 9.50Q66.40 10.42 66.18 11.03Q65.95 11.65 65.56 12.02Q65.17 12.40 64.63 12.56Q64.10 12.72 63.47 12.72L63.47 12.72Q62.70 12.72 62.05 12.53Q61.39 12.34 60.78 12.03L60.78 12.03L61.39 10.37Q61.79 10.59 62.36 10.79Q62.93 10.99 63.39 10.99L63.39 10.99Q63.89 10.99 64.16 10.70Q64.43 10.40 64.43 9.60L64.43 9.60L64.43 4.11L61.39 4.11L61.39 2.48L66.40 2.48ZM66.16 0.32L66.16 0.32Q66.16 0.90 65.79 1.23Q65.42 1.57 64.91 1.57L64.91 1.57Q64.40 1.57 64.04 1.23Q63.68 0.90 63.68 0.32L63.68 0.32Q63.68-0.27 64.04-0.61Q64.40-0.94 64.91-0.94L64.91-0.94Q65.42-0.94 65.79-0.61Q66.16-0.27 66.16 0.32ZM71.65 8.51L71.65 8.51Q72.37 8.51 72.75 8.41Q73.14 8.30 73.14 7.98L73.14 7.98Q73.14 7.78 73.02 7.63Q72.90 7.49 72.68 7.38Q72.46 7.28 72.18 7.18Q71.90 7.09 71.60 6.99L71.60 6.99Q71.17 6.86 70.72 6.70Q70.27 6.53 69.90 6.27Q69.54 6.02 69.30 5.62Q69.06 5.23 69.06 4.64L69.06 4.64Q69.06 4.16 69.24 3.74Q69.42 3.31 69.82 2.98Q70.21 2.66 70.82 2.47Q71.42 2.29 72.27 2.29L72.27 2.29Q73.01 2.29 73.64 2.40Q74.27 2.51 74.74 2.72L74.74 2.72L74.43 4.38Q74.16 4.30 73.58 4.12Q73.01 3.94 72.29 3.94L72.29 3.94Q71.54 3.94 71.27 4.12Q71.01 4.30 71.01 4.51L71.01 4.51Q71.01 4.69 71.13 4.82Q71.25 4.96 71.45 5.07Q71.65 5.18 71.91 5.29Q72.18 5.39 72.48 5.49L72.48 5.49Q72.91 5.63 73.38 5.81Q73.84 5.98 74.22 6.25Q74.59 6.51 74.83 6.92Q75.07 7.33 75.07 7.92L75.07 7.92Q75.07 8.38 74.90 8.80Q74.72 9.22 74.31 9.52Q73.90 9.82 73.25 10Q72.59 10.18 71.63 10.18L71.63 10.18Q70.66 10.18 69.97 9.95Q69.28 9.73 68.86 9.55L68.86 9.55L69.17 7.90Q69.73 8.13 70.36 8.32Q70.99 8.51 71.65 8.51Z"/>
</g>
</svg>