<?xml version="1.0" encoding="UTF-8"?>
<svg height="26" width="131.1" version="1.1" xmlns="http://www.w3.org/2000/svg"><!--Created by Josélio de S. C. Júnior - 2021 - https://github.com/joseliojunior -->
    <rect
        height="24"
        width="129.1"
        rx="1"
        ry="1"
        x="1" y="1"
        fill="#6a40fd"
        stroke="#2402a2"
        stroke-width="1" />
    <g transform="translate(0, 8)">
        <path fill="#2402a2" d="M24.74 10.21L24.74 10.21Q22.64 10.21 21.54 8.86Q20.43 7.52 20.43 5.04L20.43 5.04Q20.43 3.81 20.77 2.85Q21.10 1.89 21.70 1.22Q22.30 0.56 23.13 0.22Q23.95-0.13 24.93-0.13L24.93-0.13Q25.46-0.13 25.88-0.04Q26.30 0.05 26.62 0.16Q26.94 0.27 27.16 0.40Q27.38 0.53 27.49 0.59L27.49 0.59L26.98 2.16Q26.61 1.92 26.09 1.75Q25.57 1.58 24.90 1.58L24.90 1.58Q24.43 1.58 23.99 1.75Q23.55 1.92 23.21 2.31Q22.86 2.70 22.65 3.36Q22.43 4.02 22.43 4.99L22.43 4.99Q22.43 6.69 23.02 7.59Q23.60 8.50 24.93 8.50L24.93 8.50Q25.70 8.50 26.20 8.32Q26.70 8.14 27.01 7.97L27.01 7.97L27.50 9.52Q27.09 9.78 26.38 9.99Q25.66 10.21 24.74 10.21ZM35.22 8.10L35.47 9.68Q35.42 9.71 35.26 9.79Q35.09 9.87 34.82 9.96Q34.54 10.05 34.15 10.11Q33.76 10.18 33.26 10.18L33.26 10.18Q31.90 10.18 31.28 9.37Q30.66 8.56 30.66 7.01L30.66 7.01L30.66 0.62L28.58 0.62L28.58-1.01L32.62-1.01L32.62 7.15Q32.62 7.92 32.93 8.19Q33.23 8.46 33.70 8.46L33.70 8.46Q34.29 8.46 34.69 8.30Q35.09 8.14 35.22 8.10L35.22 8.10ZM40.02 8.59L40.02 8.59Q40.34 8.59 40.64 8.58Q40.94 8.58 41.17 8.54L41.17 8.54L41.17 6.82Q40.98 6.78 40.70 6.76Q40.43 6.74 40.21 6.74L40.21 6.74Q39.90 6.74 39.62 6.78Q39.33 6.82 39.11 6.91Q38.90 7.01 38.77 7.18Q38.64 7.36 38.64 7.65L38.64 7.65Q38.64 8.16 39.02 8.38Q39.41 8.59 40.02 8.59ZM39.84 2.29L39.84 2.29Q40.77 2.29 41.38 2.50Q42 2.72 42.37 3.11Q42.74 3.50 42.90 4.07Q43.06 4.64 43.06 5.34L43.06 5.34L43.06 9.82Q42.62 9.92 41.78 10.05Q40.93 10.18 39.87 10.18L39.87 10.18Q39.15 10.18 38.57 10.05Q37.98 9.92 37.57 9.62Q37.15 9.33 36.93 8.86Q36.70 8.38 36.70 7.70L36.70 7.70Q36.70 7.04 36.96 6.59Q37.22 6.14 37.65 5.87Q38.08 5.60 38.64 5.48Q39.20 5.36 39.81 5.36L39.81 5.36Q40.58 5.36 41.17 5.49L41.17 5.49L41.17 5.25Q41.17 4.69 40.82 4.31Q40.46 3.94 39.60 3.94L39.60 3.94Q39.04 3.94 38.52 4.02Q38 4.10 37.68 4.21L37.68 4.21L37.41 2.62Q37.78 2.50 38.45 2.39Q39.12 2.29 39.84 2.29ZM47.65 8.51L47.65 8.51Q48.37 8.51 48.75 8.41Q49.14 8.30 49.14 7.98L49.14 7.98Q49.14 7.78 49.02 7.63Q48.90 7.49 48.68 7.38Q48.46 7.28 48.18 7.18Q47.90 7.09 47.60 6.99L47.60 6.99Q47.17 6.86 46.72 6.70Q46.27 6.53 45.90 6.27Q45.54 6.02 45.30 5.62Q45.06 5.23 45.06 4.64L45.06 4.64Q45.06 4.16 45.24 3.74Q45.42 3.31 45.82 2.98Q46.21 2.66 46.82 2.47Q47.42 2.29 48.27 2.29L48.27 2.29Q49.01 2.29 49.64 2.40Q50.27 2.51 50.74 2.72L50.74 2.72L50.43 4.38Q50.16 4.30 49.58 4.12Q49.01 3.94 48.29 3.94L48.29 3.94Q47.54 3.94 47.27 4.12Q47.01 4.30 47.01 4.51L47.01 4.51Q47.01 4.69 47.13 4.82Q47.25 4.96 47.45 5.07Q47.65 5.18 47.91 5.29Q48.18 5.39 48.48 5.49L48.48 5.49Q48.91 5.63 49.38 5.81Q49.84 5.98 50.22 6.25Q50.59 6.51 50.83 6.92Q51.07 7.33 51.07 7.92L51.07 7.92Q51.07 8.38 50.90 8.80Q50.72 9.22 50.31 9.52Q49.90 9.82 49.25 10Q48.59 10.18 47.63 10.18L47.63 10.18Q46.66 10.18 45.97 9.95Q45.28 9.73 44.86 9.55L44.86 9.55L45.17 7.90Q45.73 8.13 46.36 8.32Q46.99 8.51 47.65 8.51ZM55.65 8.51L55.65 8.51Q56.37 8.51 56.75 8.41Q57.14 8.30 57.14 7.98L57.14 7.98Q57.14 7.78 57.02 7.63Q56.90 7.49 56.68 7.38Q56.46 7.28 56.18 7.18Q55.90 7.09 55.60 6.99L55.60 6.99Q55.17 6.86 54.72 6.70Q54.27 6.53 53.90 6.27Q53.54 6.02 53.30 5.62Q53.06 5.23 53.06 4.64L53.06 4.64Q53.06 4.16 53.24 3.74Q53.42 3.31 53.82 2.98Q54.21 2.66 54.82 2.47Q55.42 2.29 56.27 2.29L56.27 2.29Q57.01 2.29 57.64 2.40Q58.27 2.51 58.74 2.72L58.74 2.72L58.43 4.38Q58.16 4.30 57.58 4.12Q57.01 3.94 56.29 3.94L56.29 3.94Q55.54 3.94 55.27 4.12Q55.01 4.30 55.01 4.51L55.01 4.51Q55.01 4.69 55.13 4.82Q55.25 4.96 55.45 5.07Q55.65 5.18 55.91 5.29Q56.18 5.39 56.48 5.49L56.48 5.49Q56.91 5.63 57.38 5.81Q57.84 5.98 58.22 6.25Q58.59 6.51 58.83 6.92Q59.07 7.33 59.07 7.92L59.07 7.92Q59.07 8.38 58.90 8.80Q58.72 9.22 58.31 9.52Q57.90 9.82 57.25 10Q56.59 10.18 55.63 10.18L55.63 10.18Q54.66 10.18 53.97 9.95Q53.28 9.73 52.86 9.55L52.86 9.55L53.17 7.90Q53.73 8.13 54.36 8.32Q54.99 8.51 55.65 8.51ZM64.54 0.32L64.54 0.32Q64.54 0.90 64.18 1.23Q63.81 1.57 63.30 1.57L63.30 1.57Q62.78 1.57 62.42 1.23Q62.06 0.90 62.06 0.32L62.06 0.32Q62.06-0.27 62.42-0.61Q62.78-0.94 63.30-0.94L63.30-0.94Q63.81-0.94 64.18-0.61Q64.54-0.27 64.54 0.32ZM67.22 8.10L67.47 9.68Q66.86 9.97 66.33 10.07Q65.79 10.18 65.34 10.18L65.34 10.18Q64.58 10.18 64.06 9.95Q63.54 9.73 63.22 9.30Q62.91 8.88 62.78 8.27Q62.66 7.66 62.66 6.88L62.66 6.88L62.66 4.11L60.58 4.11L60.58 2.48L64.62 2.48L64.62 7.14Q64.62 7.81 64.87 8.14Q65.12 8.46 65.70 8.46L65.70 8.46Q65.97 8.46 66.35 8.39Q66.74 8.32 67.22 8.10L67.22 8.10ZM68.70 6.24L68.70 6.24Q68.70 5.42 68.96 4.70Q69.22 3.98 69.74 3.45Q70.27 2.91 71.08 2.60Q71.89 2.29 73.01 2.29L73.01 2.29Q73.68 2.29 74.22 2.38Q74.77 2.48 75.33 2.70L75.33 2.70L74.90 4.29Q74.58 4.18 74.18 4.09Q73.79 4 73.18 4L73.18 4Q72.48 4 72.01 4.17Q71.54 4.34 71.25 4.63Q70.96 4.93 70.83 5.34Q70.70 5.76 70.70 6.24L70.70 6.24Q70.70 7.28 71.29 7.87Q71.87 8.46 73.28 8.46L73.28 8.46Q73.74 8.46 74.25 8.40Q74.75 8.34 75.17 8.19L75.17 8.19L75.46 9.81Q75.04 9.97 74.45 10.07Q73.86 10.18 73.06 10.18L73.06 10.18Q71.90 10.18 71.08 9.87Q70.26 9.57 69.73 9.04Q69.20 8.51 68.95 7.79Q68.70 7.07 68.70 6.24ZM91.86 10L89.74 10L89.28 7.71L86.64 7.71L86.19 10L84.14 10Q84.85 7.07 85.57 4.66Q86.29 2.26 86.96 0.10L86.96 0.10L89.10 0.10Q89.81 2.27 90.50 4.71Q91.20 7.15 91.86 10L91.86 10ZM87.98 2.02L87.98 2.02Q87.82 2.58 87.69 3.08Q87.55 3.58 87.43 4.07Q87.31 4.56 87.21 5.06Q87.10 5.55 87.01 6.08L87.01 6.08L88.94 6.08Q88.85 5.55 88.75 5.06Q88.66 4.56 88.54 4.07Q88.42 3.58 88.28 3.08Q88.14 2.58 87.98 2.02ZM95.71 8.56L95.71 8.56Q96.21 8.56 96.54 8.46Q96.86 8.35 97.06 8.17Q97.25 7.98 97.32 7.75Q97.39 7.52 97.39 7.28L97.39 7.28Q97.39 6.98 97.22 6.74Q97.04 6.50 96.77 6.31Q96.50 6.13 96.16 5.98Q95.82 5.82 95.49 5.70L95.49 5.70Q95.04 5.54 94.56 5.33Q94.08 5.12 93.69 4.80Q93.30 4.48 93.04 4.01Q92.78 3.54 92.78 2.83L92.78 2.83Q92.78 1.44 93.69 0.66Q94.59-0.13 96.18-0.13L96.18-0.13Q97.09-0.13 97.77 0.08Q98.45 0.29 98.91 0.54L98.91 0.54L98.34 2.06Q97.94 1.84 97.45 1.68Q96.96 1.52 96.32 1.52L96.32 1.52Q94.75 1.52 94.75 2.66L94.75 2.66Q94.75 2.94 94.91 3.16Q95.07 3.38 95.32 3.54Q95.57 3.71 95.88 3.84Q96.19 3.97 96.50 4.08L96.50 4.08Q96.96 4.26 97.46 4.47Q97.97 4.69 98.39 5.05Q98.82 5.41 99.09 5.94Q99.36 6.48 99.36 7.30L99.36 7.30Q99.36 8.69 98.46 9.45Q97.55 10.21 95.71 10.21L95.71 10.21Q94.48 10.21 93.74 9.94Q93.01 9.68 92.64 9.46L92.64 9.46L93.22 7.86Q93.65 8.11 94.25 8.34Q94.85 8.56 95.71 8.56ZM103.58-0.02L103.58-0.02Q105.47-0.02 106.51 0.76Q107.55 1.54 107.55 3.30L107.55 3.30Q107.55 5.07 106.50 5.86Q105.46 6.66 103.54 6.66L103.54 6.66L102.83 6.66L102.83 10L100.86 10L100.86 0.22Q101.15 0.16 101.51 0.11Q101.87 0.06 102.24 0.04Q102.61 0.02 102.96 0Q103.31-0.02 103.58-0.02ZM103.81 1.70L103.81 1.70Q103.63 1.70 103.32 1.70Q103.01 1.71 102.83 1.74L102.83 1.74L102.83 4.94L103.63 4.94Q104.58 4.94 105.06 4.57Q105.54 4.19 105.54 3.28L105.54 3.28Q105.54 2.42 105.06 2.06Q104.59 1.70 103.81 1.70Z"/>
    </g>
</svg>