<?xml version="1.0" encoding="UTF-8"?><svg height="34" width="150.9" version="1.1" xmlns="http://www.w3.org/2000/svg"><!--Created by Josélio de S. C. Júnior - 2021 - https://github.com/joseliojunior --><defs><pattern id="pattern" x="3" y="3" width="6" height="6" patternUnits="userSpaceOnUse" patternTransform="rotate(45)"><rect height="6" width="6" fill="#ffffff"/><line x1="0" y1="0" x2="0" y2="6" stroke="#bbbbbb" stroke-width="2" /></pattern></defs><rect height="32" width="148.9" rx="1" ry="1" x="1" y="1" fill="url(#pattern)" /><g transform="translate(0, 12)"><path fill="#000000" d="M24.46 12L21.51 12L21.51-2.86L30.61-2.86L30.61-0.41L24.46-0.41L24.46 3.19L29.84 3.19L29.84 5.64L24.46 5.64L24.46 12ZM43.33 6.34L43.33 6.34Q43.33 7.68 42.94 8.77Q42.56 9.86 41.86 10.66Q41.17 11.45 40.20 11.88Q39.22 12.31 38.02 12.31L38.02 12.31Q36.82 12.31 35.85 11.88Q34.88 11.45 34.17 10.66Q33.46 9.86 33.08 8.77Q32.70 7.68 32.70 6.34L32.70 6.34Q32.70 5.02 33.09 3.92Q33.49 2.83 34.20 2.05Q34.90 1.27 35.89 0.85Q36.87 0.43 38.02 0.43L38.02 0.43Q39.20 0.43 40.17 0.85Q41.14 1.27 41.85 2.05Q42.56 2.83 42.94 3.92Q43.33 5.02 43.33 6.34ZM35.70 6.36L35.70 6.36Q35.70 7.87 36.24 8.81Q36.78 9.74 37.98 9.74L37.98 9.74Q39.13 9.74 39.72 8.81Q40.30 7.87 40.30 6.36L40.30 6.36Q40.30 4.85 39.76 3.92Q39.22 3 38.02 3L38.02 3Q36.87 3 36.28 3.92Q35.70 4.85 35.70 6.36ZM55.02 0.98L54.49 3.72Q54.20 3.65 53.80 3.58Q53.41 3.50 53 3.44Q52.59 3.38 52.21 3.36Q51.82 3.34 51.56 3.34L51.56 3.34Q50.94 3.34 50.34 3.40Q49.74 3.46 49.11 3.62L49.11 3.62L49.11 12L46.14 12L46.14 1.46Q47.31 1.03 48.55 0.77Q49.78 0.50 51.44 0.50L51.44 0.50Q51.68 0.50 52.12 0.53Q52.57 0.55 53.07 0.61Q53.58 0.67 54.09 0.76Q54.61 0.84 55.02 0.98L55.02 0.98ZM64.23 0.60L64.23 0.60Q65.17 0.60 65.77 0.89Q66.37 1.18 66.72 1.75Q67.06 2.33 67.18 3.20Q67.30 4.08 67.30 5.26L67.30 5.26L67.30 12L64.90 12L64.90 5.11Q64.90 4.44 64.82 4.03Q64.74 3.62 64.60 3.41Q64.47 3.19 64.29 3.12Q64.11 3.05 63.92 3.05L63.92 3.05Q63.70 3.05 63.46 3.08Q63.22 3.12 63.03 3.22L63.03 3.22Q63.10 3.67 63.15 4.22Q63.20 4.78 63.20 5.45L63.20 5.45L63.20 7.70L60.80 7.70L60.80 5.11Q60.80 3.96 60.57 3.50Q60.34 3.05 59.84 3.05L59.84 3.05Q59.70 3.05 59.49 3.07Q59.29 3.10 59.10 3.14L59.10 3.14L59.10 12L56.70 12L56.70 1.15Q57.63 0.89 58.54 0.74Q59.46 0.60 60.15 0.60L60.15 0.60Q60.78 0.60 61.27 0.76Q61.76 0.91 62.12 1.27L62.12 1.27Q62.53 1.01 63.08 0.80Q63.63 0.60 64.23 0.60ZM74.02 9.89L74.02 9.89Q74.50 9.89 74.96 9.88Q75.42 9.86 75.75 9.82L75.75 9.82L75.75 7.22Q75.46 7.18 75.06 7.14Q74.65 7.10 74.31 7.10L74.31 7.10Q73.86 7.10 73.42 7.16Q72.99 7.22 72.67 7.37Q72.34 7.51 72.15 7.78Q71.96 8.04 71.96 8.47L71.96 8.47Q71.96 9.24 72.54 9.56Q73.11 9.89 74.02 9.89ZM73.76 0.43L73.76 0.43Q75.15 0.43 76.08 0.76Q77 1.08 77.55 1.67Q78.10 2.26 78.34 3.11Q78.58 3.96 78.58 5.02L78.58 5.02L78.58 11.74Q77.94 11.88 76.66 12.07Q75.39 12.26 73.81 12.26L73.81 12.26Q72.73 12.26 71.85 12.07Q70.98 11.88 70.35 11.44Q69.73 10.99 69.39 10.28Q69.06 9.58 69.06 8.54L69.06 8.54Q69.06 7.56 69.44 6.89Q69.82 6.22 70.47 5.81Q71.12 5.40 71.96 5.22Q72.80 5.04 73.71 5.04L73.71 5.04Q74.86 5.04 75.75 5.23L75.75 5.23L75.75 4.87Q75.75 4.03 75.22 3.47Q74.70 2.90 73.40 2.90L73.40 2.90Q72.56 2.90 71.78 3.02Q71 3.14 70.52 3.31L70.52 3.31L70.11 0.94Q70.66 0.74 71.67 0.59Q72.68 0.43 73.76 0.43ZM83.43 7.80L83.43 3.17L80.86 3.17L80.86 0.72L83.43 0.72L83.43-2.11L86.38-2.59L86.38 0.72L91.11 0.72L91.11 3.17L86.38 3.17L86.38 7.73Q86.38 8.35 86.50 8.74Q86.62 9.12 86.84 9.34Q87.06 9.55 87.37 9.62Q87.68 9.70 88.06 9.70L88.06 9.70Q88.47 9.70 88.82 9.67Q89.17 9.65 89.49 9.59Q89.82 9.53 90.16 9.41Q90.51 9.29 90.92 9.10L90.92 9.10L91.33 11.64Q90.51 11.98 89.56 12.12Q88.62 12.26 87.73 12.26L87.73 12.26Q86.70 12.26 85.90 12.10Q85.11 11.93 84.56 11.45Q84.01 10.97 83.72 10.09Q83.43 9.22 83.43 7.80L83.43 7.80ZM95.43 7.80L95.43 3.17L92.86 3.17L92.86 0.72L95.43 0.72L95.43-2.11L98.38-2.59L98.38 0.72L103.11 0.72L103.11 3.17L98.38 3.17L98.38 7.73Q98.38 8.35 98.50 8.74Q98.62 9.12 98.84 9.34Q99.06 9.55 99.37 9.62Q99.68 9.70 100.06 9.70L100.06 9.70Q100.47 9.70 100.82 9.67Q101.17 9.65 101.49 9.59Q101.82 9.53 102.16 9.41Q102.51 9.29 102.92 9.10L102.92 9.10L103.33 11.64Q102.51 11.98 101.56 12.12Q100.62 12.26 99.73 12.26L99.73 12.26Q98.70 12.26 97.90 12.10Q97.11 11.93 96.56 11.45Q96.01 10.97 95.72 10.09Q95.43 9.22 95.43 7.80L95.43 7.80ZM104.74 6.46L104.74 6.46Q104.74 4.97 105.20 3.84Q105.66 2.71 106.40 1.96Q107.14 1.20 108.10 0.82Q109.06 0.43 110.07 0.43L110.07 0.43Q112.57 0.43 113.86 1.91Q115.16 3.38 115.16 6.22L115.16 6.22Q115.16 6.50 115.15 6.82Q115.14 7.13 115.11 7.32L115.11 7.32L107.79 7.32Q107.79 8.42 108.70 9.06Q109.62 9.70 111.06 9.70L111.06 9.70Q111.94 9.70 112.75 9.50Q113.55 9.31 114.10 9.12L114.10 9.12L114.51 11.64Q113.74 11.90 112.88 12.08Q112.02 12.26 110.94 12.26L110.94 12.26Q109.50 12.26 108.36 11.89Q107.22 11.52 106.41 10.79Q105.61 10.06 105.18 8.98Q104.74 7.90 104.74 6.46ZM107.79 5.28L112.30 5.28Q112.30 4.82 112.18 4.40Q112.06 3.98 111.80 3.65Q111.54 3.31 111.13 3.11Q110.72 2.90 110.12 2.90L110.12 2.90Q109.54 2.90 109.12 3.10Q108.70 3.29 108.43 3.62Q108.15 3.96 108.00 4.39Q107.84 4.82 107.79 5.28L107.79 5.28ZM119.67 6.29L119.67 6.29Q119.67 7.80 120.24 8.76Q120.80 9.72 122.05 9.72L122.05 9.72Q122.41 9.72 122.72 9.70Q123.03 9.67 123.37 9.62L123.37 9.62L123.37 3.48Q123.03 3.29 122.60 3.16Q122.17 3.02 121.69 3.02L121.69 3.02Q120.63 3.02 120.15 3.86Q119.67 4.70 119.67 6.29ZM126.32-4.66L126.32 11.66Q125.50 11.93 124.33 12.10Q123.15 12.26 122.02 12.26L122.02 12.26Q119.38 12.26 118.03 10.70Q116.67 9.14 116.67 6.43L116.67 6.43Q116.67 3.67 117.81 2.08Q118.95 0.48 121.18 0.48L121.18 0.48Q121.78 0.48 122.36 0.61Q122.94 0.74 123.37 0.98L123.37 0.98L123.37-4.15L126.32-4.66Z"/></g></svg>