<?xml version="1.0" encoding="UTF-8"?>
<svg height="34" width="134.8" version="1.1" xmlns="http://www.w3.org/2000/svg">
    <rect
        height="32"
        width="132.8"
        rx="1"
        ry="1"
        x="1"
        y="1"
        fill="#15dcdc"
        stroke="#074f4f"
        stroke-width="1"
         />
    <g transform="translate(0, 14)">
        <path fill="#074f4f" d="M18.76 11L15.21 11Q14.54 9.07 13.78 6.63Q13.02 4.20 12.35 1.77Q11.68-0.65 11.15-2.80Q10.62-4.96 10.36-6.33L10.36-6.33L14.00-6.33Q14.17-4.99 14.51-3.21Q14.84-1.43 15.25 0.46Q15.66 2.35 16.12 4.18Q16.58 6.02 17.03 7.47L17.03 7.47Q17.48 6.04 17.92 4.21Q18.37 2.38 18.76 0.49Q19.16-1.40 19.49-3.20Q19.83-4.99 20.05-6.33L20.05-6.33L23.66-6.33Q23.33-4.65 22.84-2.58Q22.35-0.51 21.72 1.77Q21.09 4.06 20.33 6.42Q19.58 8.79 18.76 11L18.76 11ZM37.13 5.76L37.13 5.76Q37.13 7.33 36.60 8.38Q36.07 9.43 35.16 10.06Q34.25 10.69 33.00 10.96Q31.76 11.22 30.33 11.22L30.33 11.22Q29.18 11.22 27.95 11.10Q26.72 10.97 25.51 10.72L25.51 10.72L25.51-6.11Q26.49-6.28 27.67-6.40Q28.84-6.53 29.99-6.53L29.99-6.53Q31.95-6.53 33.18-6.12Q34.42-5.72 35.12-5.06Q35.82-4.40 36.07-3.59Q36.32-2.78 36.32-1.96L36.32-1.96Q36.32-0.73 35.72 0.22Q35.12 1.17 34.11 1.73L34.11 1.73Q35.87 2.38 36.50 3.47Q37.13 4.56 37.13 5.76ZM30.80 3.41L28.96 3.41L28.96 8.12Q29.32 8.17 29.75 8.20Q30.19 8.23 30.61 8.23L30.61 8.23Q31.20 8.23 31.76 8.13Q32.32 8.03 32.75 7.77Q33.18 7.50 33.46 7.01Q33.74 6.52 33.74 5.76L33.74 5.76Q33.74 4.50 32.95 3.96Q32.15 3.41 30.80 3.41L30.80 3.41ZM28.96 0.56L30.30 0.56Q31.62 0.56 32.29-0.02Q32.96-0.59 32.96-1.60L32.96-1.60Q32.96-2.22 32.76-2.59Q32.57-2.97 32.23-3.18Q31.90-3.39 31.45-3.46Q31-3.53 30.52-3.53L30.52-3.53Q30.13-3.53 29.71-3.50Q29.29-3.48 28.96-3.42L28.96-3.42L28.96 0.56ZM44.50 8.48L44.50 8.48Q45.36 8.48 45.94 8.30Q46.51 8.12 46.85 7.79Q47.18 7.47 47.31 7.07Q47.44 6.66 47.44 6.24L47.44 6.24Q47.44 5.71 47.13 5.29Q46.82 4.87 46.34 4.55Q45.87 4.22 45.28 3.96Q44.69 3.69 44.10 3.47L44.10 3.47Q43.32 3.19 42.48 2.82Q41.64 2.46 40.95 1.90Q40.27 1.34 39.82 0.51Q39.37-0.31 39.37-1.54L39.37-1.54Q39.37-3.98 40.95-5.35Q42.54-6.72 45.31-6.72L45.31-6.72Q46.90-6.72 48.09-6.36Q49.28-6.00 50.10-5.55L50.10-5.55L49.09-2.89Q48.39-3.28 47.53-3.56Q46.68-3.84 45.56-3.84L45.56-3.84Q42.82-3.84 42.82-1.85L42.82-1.85Q42.82-1.35 43.10-0.97Q43.38-0.59 43.81-0.30Q44.24-0.00 44.79 0.22Q45.34 0.44 45.87 0.64L45.87 0.64Q46.68 0.95 47.56 1.33Q48.44 1.70 49.19 2.33Q49.93 2.96 50.40 3.90Q50.88 4.84 50.88 6.27L50.88 6.27Q50.88 8.70 49.30 10.03Q47.72 11.36 44.50 11.36L44.50 11.36Q42.34 11.36 41.05 10.90Q39.76 10.44 39.12 10.05L39.12 10.05L40.13 7.25Q40.88 7.70 41.93 8.09Q42.98 8.48 44.50 8.48ZM53.23 4.42L53.23 4.42Q53.23 2.99 53.68 1.73Q54.13 0.47 55.05-0.47Q55.98-1.40 57.39-1.95Q58.80-2.50 60.76-2.50L60.76-2.50Q61.94-2.50 62.89-2.33Q63.84-2.16 64.82-1.77L64.82-1.77L64.07 1.00Q63.51 0.81 62.82 0.65Q62.14 0.50 61.07 0.50L61.07 0.50Q59.84 0.50 59.01 0.79Q58.19 1.09 57.68 1.61Q57.18 2.12 56.96 2.85Q56.73 3.58 56.73 4.42L56.73 4.42Q56.73 6.24 57.75 7.28Q58.78 8.31 61.24 8.31L61.24 8.31Q62.05 8.31 62.93 8.20Q63.82 8.09 64.54 7.84L64.54 7.84L65.05 10.66Q64.32 10.94 63.28 11.13Q62.25 11.31 60.85 11.31L60.85 11.31Q58.83 11.31 57.39 10.78Q55.95 10.24 55.02 9.32Q54.10 8.40 53.67 7.14Q53.23 5.88 53.23 4.42ZM78.85-1.85L78.24 1.34Q77.90 1.26 77.44 1.17Q76.98 1.09 76.50 1.02Q76.02 0.95 75.58 0.92Q75.13 0.89 74.82 0.89L74.82 0.89Q74.09 0.89 73.39 0.96Q72.69 1.03 71.96 1.23L71.96 1.23L71.96 11L68.49 11L68.49-1.29Q69.86-1.80 71.31-2.10Q72.75-2.41 74.68-2.41L74.68-2.41Q74.96-2.41 75.48-2.38Q76.00-2.36 76.58-2.29Q77.17-2.22 77.77-2.12Q78.38-2.02 78.85-1.85L78.85-1.85ZM87.95-5.94L87.95-5.94Q87.95-4.93 87.31-4.34Q86.66-3.76 85.77-3.76L85.77-3.76Q84.87-3.76 84.24-4.34Q83.61-4.93 83.61-5.94L83.61-5.94Q83.61-6.98 84.24-7.56Q84.87-8.15 85.77-8.15L85.77-8.15Q86.66-8.15 87.31-7.56Q87.95-6.98 87.95-5.94ZM92.63 7.67L93.08 10.44Q92.01 10.94 91.07 11.13Q90.14 11.31 89.35 11.31L89.35 11.31Q88.01 11.31 87.10 10.92Q86.19 10.52 85.64 9.78Q85.10 9.04 84.87 7.98Q84.65 6.91 84.65 5.54L84.65 5.54L84.65 0.70L81.01 0.70L81.01-2.16L88.09-2.16L88.09 5.99Q88.09 7.16 88.53 7.74Q88.96 8.31 89.97 8.31L89.97 8.31Q90.44 8.31 91.12 8.19Q91.79 8.06 92.63 7.67L92.63 7.67ZM103.63 4.53L103.63 4.53Q103.63 2.77 102.93 1.63Q102.23 0.50 100.80 0.50L100.80 0.50Q100.41 0.50 99.96 0.54Q99.52 0.58 99.21 0.61L99.21 0.61L99.21 7.84Q99.54 8.06 100.10 8.20Q100.66 8.34 101.22 8.34L101.22 8.34Q102.46 8.34 103.04 7.35Q103.63 6.35 103.63 4.53ZM107.13 4.42L107.13 4.42Q107.13 5.93 106.80 7.21Q106.46 8.48 105.82 9.39Q105.17 10.30 104.19 10.80Q103.21 11.31 101.92 11.31L101.92 11.31Q100.61 11.31 99.21 10.66L99.21 10.66L99.21 15.62L95.76 15.62L95.76-1.74Q96.72-2.05 98.10-2.24Q99.49-2.44 100.83-2.44L100.83-2.44Q103.88-2.44 105.51-0.59Q107.13 1.26 107.13 4.42ZM112.00 6.10L112.00 0.70L109.01 0.70L109.01-2.16L112.00-2.16L112.00-5.46L115.45-6.02L115.45-2.16L120.96-2.16L120.96 0.70L115.45 0.70L115.45 6.02Q115.45 6.74 115.59 7.19Q115.73 7.64 115.98 7.89Q116.23 8.14 116.60 8.23Q116.96 8.31 117.41 8.31L117.41 8.31Q117.88 8.31 118.29 8.28Q118.70 8.26 119.07 8.19Q119.45 8.12 119.86 7.98Q120.26 7.84 120.74 7.61L120.74 7.61L121.22 10.58Q120.26 10.97 119.16 11.14Q118.05 11.31 117.02 11.31L117.02 11.31Q115.81 11.31 114.89 11.11Q113.96 10.92 113.32 10.36Q112.68 9.80 112.34 8.77Q112.00 7.75 112.00 6.10L112.00 6.10Z"/>
    </g>
</svg>