<?xml version="1.0" encoding="UTF-8"?>
<svg height="34" width="211.4" version="1.1" xmlns="http://www.w3.org/2000/svg"><!--Created by Josélio de S. C. Júnior - 2021 - https://github.com/joseliojunior -->
    <rect
        height="32"
        width="209.4"
        rx="16"
        ry="16"
        x="1" y="1"
        fill="#3fb34f"
        stroke="#17401c"
        stroke-width="1" />
    <g transform="translate(0, 12)">
        <path fill="#17401c" stroke="none" d="M25.57 9.84L25.57 9.84Q26.31 9.84 26.80 9.68Q27.30 9.53 27.58 9.25Q27.87 8.98 27.98 8.63Q28.09 8.28 28.09 7.92L28.09 7.92Q28.09 7.46 27.82 7.10Q27.56 6.74 27.15 6.47Q26.74 6.19 26.24 5.96Q25.74 5.74 25.23 5.54L25.23 5.54Q24.56 5.30 23.84 4.99Q23.12 4.68 22.53 4.20Q21.94 3.72 21.56 3.01Q21.18 2.30 21.18 1.25L21.18 1.25Q21.18-0.84 22.53-2.02Q23.89-3.19 26.26-3.19L26.26-3.19Q27.63-3.19 28.65-2.88Q29.67-2.57 30.37-2.18L30.37-2.18L29.50 0.10Q28.90-0.24 28.17-0.48Q27.44-0.72 26.48-0.72L26.48-0.72Q24.13-0.72 24.13 0.98L24.13 0.98Q24.13 1.42 24.37 1.74Q24.61 2.06 24.98 2.32Q25.35 2.57 25.82 2.76Q26.29 2.95 26.74 3.12L26.74 3.12Q27.44 3.38 28.20 3.71Q28.95 4.03 29.59 4.57Q30.22 5.11 30.63 5.92Q31.04 6.72 31.04 7.94L31.04 7.94Q31.04 10.03 29.68 11.17Q28.33 12.31 25.57 12.31L25.57 12.31Q23.72 12.31 22.62 11.92Q21.51 11.52 20.96 11.18L20.96 11.18L21.82 8.78Q22.47 9.17 23.37 9.50Q24.27 9.84 25.57 9.84ZM35.43 7.80L35.43 3.17L32.86 3.17L32.86 0.72L35.43 0.72L35.43-2.11L38.38-2.59L38.38 0.72L43.11 0.72L43.11 3.17L38.38 3.17L38.38 7.73Q38.38 8.35 38.50 8.74Q38.62 9.12 38.84 9.34Q39.06 9.55 39.37 9.62Q39.68 9.70 40.06 9.70L40.06 9.70Q40.47 9.70 40.82 9.67Q41.17 9.65 41.49 9.59Q41.82 9.53 42.16 9.41Q42.51 9.29 42.92 9.10L42.92 9.10L43.33 11.64Q42.51 11.98 41.56 12.12Q40.62 12.26 39.73 12.26L39.73 12.26Q38.70 12.26 37.90 12.10Q37.11 11.93 36.56 11.45Q36.01 10.97 35.72 10.09Q35.43 9.22 35.43 7.80L35.43 7.80ZM55.02 0.98L54.49 3.72Q54.20 3.65 53.80 3.58Q53.41 3.50 53 3.44Q52.59 3.38 52.21 3.36Q51.82 3.34 51.56 3.34L51.56 3.34Q50.94 3.34 50.34 3.40Q49.74 3.46 49.11 3.62L49.11 3.62L49.11 12L46.14 12L46.14 1.46Q47.31 1.03 48.55 0.77Q49.78 0.50 51.44 0.50L51.44 0.50Q51.68 0.50 52.12 0.53Q52.57 0.55 53.07 0.61Q53.58 0.67 54.09 0.76Q54.61 0.84 55.02 0.98L55.02 0.98ZM62.82-2.52L62.82-2.52Q62.82-1.66 62.26-1.15Q61.71-0.65 60.94-0.65L60.94-0.65Q60.18-0.65 59.64-1.15Q59.10-1.66 59.10-2.52L59.10-2.52Q59.10-3.41 59.64-3.91Q60.18-4.42 60.94-4.42L60.94-4.42Q61.71-4.42 62.26-3.91Q62.82-3.41 62.82-2.52ZM66.82 9.14L67.21 11.52Q66.30 11.95 65.49 12.11Q64.69 12.26 64.02 12.26L64.02 12.26Q62.86 12.26 62.08 11.93Q61.30 11.59 60.84 10.96Q60.37 10.32 60.18 9.41Q59.98 8.50 59.98 7.32L59.98 7.32L59.98 3.17L56.86 3.17L56.86 0.72L62.94 0.72L62.94 7.70Q62.94 8.71 63.31 9.20Q63.68 9.70 64.54 9.70L64.54 9.70Q64.95 9.70 65.53 9.59Q66.10 9.48 66.82 9.14L66.82 9.14ZM69.51 12L69.51 1.08Q70.30 0.86 71.47 0.67Q72.63 0.48 74 0.48L74 0.48Q75.34 0.48 76.23 0.85Q77.12 1.22 77.64 1.91Q78.15 2.59 78.37 3.54Q78.58 4.49 78.58 5.64L78.58 5.64L78.58 12L75.63 12L75.63 6.02Q75.63 4.44 75.27 3.74Q74.91 3.05 73.81 3.05L73.81 3.05Q73.47 3.05 73.15 3.07Q72.82 3.10 72.46 3.14L72.46 3.14L72.46 12L69.51 12ZM83.79 6L83.79 6Q83.79 7.39 84.30 8.12Q84.80 8.86 85.88 8.86L85.88 8.86Q86.36 8.86 86.78 8.74Q87.20 8.62 87.54 8.42L87.54 8.42L87.54 3Q87.20 2.93 86.94 2.90Q86.67 2.88 86.38 2.88L86.38 2.88Q83.79 2.88 83.79 6ZM90.51 1.08L90.51 10.63Q90.51 13.39 89.18 14.71Q87.85 16.03 84.90 16.03L84.90 16.03Q83.84 16.03 82.87 15.82Q81.90 15.60 81.01 15.31L81.01 15.31L81.56 12.82Q82.26 13.08 83.02 13.31Q83.79 13.54 84.94 13.54L84.94 13.54Q85.71 13.54 86.22 13.36Q86.72 13.18 87.01 12.86Q87.30 12.55 87.42 12.13Q87.54 11.71 87.54 11.23L87.54 11.23L87.54 10.78Q86.91 11.02 86.40 11.14Q85.88 11.26 85.28 11.26L85.28 11.26Q83.07 11.26 81.93 9.86Q80.79 8.47 80.79 6L80.79 6Q80.79 3.22 82.33 1.85Q83.86 0.48 86.50 0.48L86.50 0.48Q88.35 0.48 90.51 1.08L90.51 1.08ZM92.60-2.86L103.40-2.86L103.40-0.41L99.49-0.41L99.49 12L96.51 12L96.51-0.41L92.60-0.41L92.60-2.86ZM104.74 6.46L104.74 6.46Q104.74 4.97 105.20 3.84Q105.66 2.71 106.40 1.96Q107.14 1.20 108.10 0.82Q109.06 0.43 110.07 0.43L110.07 0.43Q112.57 0.43 113.86 1.91Q115.16 3.38 115.16 6.22L115.16 6.22Q115.16 6.50 115.15 6.82Q115.14 7.13 115.11 7.32L115.11 7.32L107.79 7.32Q107.79 8.42 108.70 9.06Q109.62 9.70 111.06 9.70L111.06 9.70Q111.94 9.70 112.75 9.50Q113.55 9.31 114.10 9.12L114.10 9.12L114.51 11.64Q113.74 11.90 112.88 12.08Q112.02 12.26 110.94 12.26L110.94 12.26Q109.50 12.26 108.36 11.89Q107.22 11.52 106.41 10.79Q105.61 10.06 105.18 8.98Q104.74 7.90 104.74 6.46ZM107.79 5.28L112.30 5.28Q112.30 4.82 112.18 4.40Q112.06 3.98 111.80 3.65Q111.54 3.31 111.13 3.11Q110.72 2.90 110.12 2.90L110.12 2.90Q109.54 2.90 109.12 3.10Q108.70 3.29 108.43 3.62Q108.15 3.96 108.00 4.39Q107.84 4.82 107.79 5.28L107.79 5.28ZM124.23 0.60L124.23 0.60Q125.17 0.60 125.77 0.89Q126.37 1.18 126.72 1.75Q127.06 2.33 127.18 3.20Q127.30 4.08 127.30 5.26L127.30 5.26L127.30 12L124.90 12L124.90 5.11Q124.90 4.44 124.82 4.03Q124.74 3.62 124.60 3.41Q124.47 3.19 124.29 3.12Q124.11 3.05 123.92 3.05L123.92 3.05Q123.70 3.05 123.46 3.08Q123.22 3.12 123.03 3.22L123.03 3.22Q123.10 3.67 123.15 4.22Q123.20 4.78 123.20 5.45L123.20 5.45L123.20 7.70L120.80 7.70L120.80 5.11Q120.80 3.96 120.57 3.50Q120.34 3.05 119.84 3.05L119.84 3.05Q119.70 3.05 119.49 3.07Q119.29 3.10 119.10 3.14L119.10 3.14L119.10 12L116.70 12L116.70 1.15Q117.63 0.89 118.54 0.74Q119.46 0.60 120.15 0.60L120.15 0.60Q120.78 0.60 121.27 0.76Q121.76 0.91 122.12 1.27L122.12 1.27Q122.53 1.01 123.08 0.80Q123.63 0.60 124.23 0.60ZM136.26 6.46L136.26 6.46Q136.26 4.94 135.66 3.97Q135.06 3 133.83 3L133.83 3Q133.50 3 133.11 3.04Q132.73 3.07 132.46 3.10L132.46 3.10L132.46 9.29Q132.75 9.48 133.23 9.60Q133.71 9.72 134.19 9.72L134.19 9.72Q135.25 9.72 135.75 8.87Q136.26 8.02 136.26 6.46ZM139.26 6.36L139.26 6.36Q139.26 7.66 138.97 8.75Q138.68 9.84 138.13 10.62Q137.58 11.40 136.74 11.83Q135.90 12.26 134.79 12.26L134.79 12.26Q133.66 12.26 132.46 11.71L132.46 11.71L132.46 15.96L129.51 15.96L129.51 1.08Q130.33 0.82 131.52 0.65Q132.70 0.48 133.86 0.48L133.86 0.48Q136.47 0.48 137.86 2.06Q139.26 3.65 139.26 6.36ZM150.82 9.14L151.21 11.52Q151.14 11.57 150.88 11.69Q150.63 11.81 150.22 11.94Q149.82 12.07 149.23 12.17Q148.64 12.26 147.90 12.26L147.90 12.26Q145.86 12.26 144.92 11.05Q143.98 9.84 143.98 7.51L143.98 7.51L143.98-2.06L140.86-2.06L140.86-4.51L146.94-4.51L146.94 7.73Q146.94 8.88 147.39 9.29Q147.85 9.70 148.54 9.70L148.54 9.70Q149.43 9.70 150.03 9.46Q150.63 9.22 150.82 9.14L150.82 9.14ZM158.02 9.89L158.02 9.89Q158.50 9.89 158.96 9.88Q159.42 9.86 159.75 9.82L159.75 9.82L159.75 7.22Q159.46 7.18 159.06 7.14Q158.65 7.10 158.31 7.10L158.31 7.10Q157.86 7.10 157.42 7.16Q156.99 7.22 156.67 7.37Q156.34 7.51 156.15 7.78Q155.96 8.04 155.96 8.47L155.96 8.47Q155.96 9.24 156.54 9.56Q157.11 9.89 158.02 9.89ZM157.76 0.43L157.76 0.43Q159.15 0.43 160.08 0.76Q161 1.08 161.55 1.67Q162.10 2.26 162.34 3.11Q162.58 3.96 162.58 5.02L162.58 5.02L162.58 11.74Q161.94 11.88 160.66 12.07Q159.39 12.26 157.81 12.26L157.81 12.26Q156.73 12.26 155.85 12.07Q154.98 11.88 154.35 11.44Q153.73 10.99 153.39 10.28Q153.06 9.58 153.06 8.54L153.06 8.54Q153.06 7.56 153.44 6.89Q153.82 6.22 154.47 5.81Q155.12 5.40 155.96 5.22Q156.80 5.04 157.71 5.04L157.71 5.04Q158.86 5.04 159.75 5.23L159.75 5.23L159.75 4.87Q159.75 4.03 159.22 3.47Q158.70 2.90 157.40 2.90L157.40 2.90Q156.56 2.90 155.78 3.02Q155 3.14 154.52 3.31L154.52 3.31L154.11 0.94Q154.66 0.74 155.67 0.59Q156.68 0.43 157.76 0.43ZM167.43 7.80L167.43 3.17L164.86 3.17L164.86 0.72L167.43 0.72L167.43-2.11L170.38-2.59L170.38 0.72L175.11 0.72L175.11 3.17L170.38 3.17L170.38 7.73Q170.38 8.35 170.50 8.74Q170.62 9.12 170.84 9.34Q171.06 9.55 171.37 9.62Q171.68 9.70 172.06 9.70L172.06 9.70Q172.47 9.70 172.82 9.67Q173.17 9.65 173.49 9.59Q173.82 9.53 174.16 9.41Q174.51 9.29 174.92 9.10L174.92 9.10L175.33 11.64Q174.51 11.98 173.56 12.12Q172.62 12.26 171.73 12.26L171.73 12.26Q170.70 12.26 169.90 12.10Q169.11 11.93 168.56 11.45Q168.01 10.97 167.72 10.09Q167.43 9.22 167.43 7.80L167.43 7.80ZM176.74 6.46L176.74 6.46Q176.74 4.97 177.20 3.84Q177.66 2.71 178.40 1.96Q179.14 1.20 180.10 0.82Q181.06 0.43 182.07 0.43L182.07 0.43Q184.57 0.43 185.86 1.91Q187.16 3.38 187.16 6.22L187.16 6.22Q187.16 6.50 187.15 6.82Q187.14 7.13 187.11 7.32L187.11 7.32L179.79 7.32Q179.79 8.42 180.70 9.06Q181.62 9.70 183.06 9.70L183.06 9.70Q183.94 9.70 184.75 9.50Q185.55 9.31 186.10 9.12L186.10 9.12L186.51 11.64Q185.74 11.90 184.88 12.08Q184.02 12.26 182.94 12.26L182.94 12.26Q181.50 12.26 180.36 11.89Q179.22 11.52 178.41 10.79Q177.61 10.06 177.18 8.98Q176.74 7.90 176.74 6.46ZM179.79 5.28L184.30 5.28Q184.30 4.82 184.18 4.40Q184.06 3.98 183.80 3.65Q183.54 3.31 183.13 3.11Q182.72 2.90 182.12 2.90L182.12 2.90Q181.54 2.90 181.12 3.10Q180.70 3.29 180.43 3.62Q180.15 3.96 180.00 4.39Q179.84 4.82 179.79 5.28L179.79 5.28Z"/>
    </g>
</svg>