<?xml version="1.0" encoding="UTF-8"?>
<svg height="26" width="155.39999999999998" version="1.1" xmlns="http://www.w3.org/2000/svg"><!--Created by Josélio de S. C. Júnior - 2021 - https://github.com/joseliojunior -->
    <rect
        height="24"
        width="153.39999999999998"
        rx="12"
        ry="12"
        x="1" y="1"
        fill="#3fb34f"
        stroke="#17401c"
        stroke-width="1" />
    <g transform="translate(0, 8)">
        <path fill="#17401c" d="M23.71 8.56L23.71 8.56Q24.21 8.56 24.54 8.46Q24.86 8.35 25.06 8.17Q25.25 7.98 25.32 7.75Q25.39 7.52 25.39 7.28L25.39 7.28Q25.39 6.98 25.22 6.74Q25.04 6.50 24.77 6.31Q24.50 6.13 24.16 5.98Q23.82 5.82 23.49 5.70L23.49 5.70Q23.04 5.54 22.56 5.33Q22.08 5.12 21.69 4.80Q21.30 4.48 21.04 4.01Q20.78 3.54 20.78 2.83L20.78 2.83Q20.78 1.44 21.69 0.66Q22.59-0.13 24.18-0.13L24.18-0.13Q25.09-0.13 25.77 0.08Q26.45 0.29 26.91 0.54L26.91 0.54L26.34 2.06Q25.94 1.84 25.45 1.68Q24.96 1.52 24.32 1.52L24.32 1.52Q22.75 1.52 22.75 2.66L22.75 2.66Q22.75 2.94 22.91 3.16Q23.07 3.38 23.32 3.54Q23.57 3.71 23.88 3.84Q24.19 3.97 24.50 4.08L24.50 4.08Q24.96 4.26 25.46 4.47Q25.97 4.69 26.39 5.05Q26.82 5.41 27.09 5.94Q27.36 6.48 27.36 7.30L27.36 7.30Q27.36 8.69 26.46 9.45Q25.55 10.21 23.71 10.21L23.71 10.21Q22.48 10.21 21.74 9.94Q21.01 9.68 20.64 9.46L20.64 9.46L21.22 7.86Q21.65 8.11 22.25 8.34Q22.85 8.56 23.71 8.56ZM30.29 7.20L30.29 4.11L28.58 4.11L28.58 2.48L30.29 2.48L30.29 0.59L32.26 0.27L32.26 2.48L35.41 2.48L35.41 4.11L32.26 4.11L32.26 7.15Q32.26 7.57 32.34 7.82Q32.42 8.08 32.56 8.22Q32.70 8.37 32.91 8.42Q33.12 8.46 33.38 8.46L33.38 8.46Q33.65 8.46 33.88 8.45Q34.11 8.43 34.33 8.39Q34.54 8.35 34.78 8.27Q35.01 8.19 35.28 8.06L35.28 8.06L35.55 9.76Q35.01 9.98 34.38 10.08Q33.74 10.18 33.15 10.18L33.15 10.18Q32.46 10.18 31.94 10.06Q31.41 9.95 31.04 9.63Q30.67 9.31 30.48 8.73Q30.29 8.14 30.29 7.20L30.29 7.20ZM43.34 2.66L42.99 4.48Q42.80 4.43 42.54 4.38Q42.27 4.34 42 4.30Q41.73 4.26 41.47 4.24Q41.22 4.22 41.04 4.22L41.04 4.22Q40.62 4.22 40.22 4.26Q39.82 4.30 39.41 4.42L39.41 4.42L39.41 10L37.42 10L37.42 2.98Q38.21 2.69 39.03 2.51Q39.86 2.34 40.96 2.34L40.96 2.34Q41.12 2.34 41.42 2.35Q41.71 2.37 42.05 2.41Q42.38 2.45 42.73 2.50Q43.07 2.56 43.34 2.66L43.34 2.66ZM48.54 0.32L48.54 0.32Q48.54 0.90 48.18 1.23Q47.81 1.57 47.30 1.57L47.30 1.57Q46.78 1.57 46.42 1.23Q46.06 0.90 46.06 0.32L46.06 0.32Q46.06-0.27 46.42-0.61Q46.78-0.94 47.30-0.94L47.30-0.94Q47.81-0.94 48.18-0.61Q48.54-0.27 48.54 0.32ZM51.22 8.10L51.47 9.68Q50.86 9.97 50.33 10.07Q49.79 10.18 49.34 10.18L49.34 10.18Q48.58 10.18 48.06 9.95Q47.54 9.73 47.22 9.30Q46.91 8.88 46.78 8.27Q46.66 7.66 46.66 6.88L46.66 6.88L46.66 4.11L44.58 4.11L44.58 2.48L48.62 2.48L48.62 7.14Q48.62 7.81 48.87 8.14Q49.12 8.46 49.70 8.46L49.70 8.46Q49.97 8.46 50.35 8.39Q50.74 8.32 51.22 8.10L51.22 8.10ZM53.01 10L53.01 2.72Q53.54 2.58 54.31 2.45Q55.09 2.32 56 2.32L56 2.32Q56.90 2.32 57.49 2.57Q58.08 2.82 58.42 3.27Q58.77 3.73 58.91 4.36Q59.06 4.99 59.06 5.76L59.06 5.76L59.06 10L57.09 10L57.09 6.02Q57.09 4.96 56.85 4.50Q56.61 4.03 55.87 4.03L55.87 4.03Q55.65 4.03 55.43 4.05Q55.22 4.06 54.98 4.10L54.98 4.10L54.98 10L53.01 10ZM62.53 6L62.53 6Q62.53 6.93 62.86 7.42Q63.20 7.90 63.92 7.90L63.92 7.90Q64.24 7.90 64.52 7.82Q64.80 7.74 65.02 7.62L65.02 7.62L65.02 4Q64.80 3.95 64.62 3.94Q64.45 3.92 64.26 3.92L64.26 3.92Q62.53 3.92 62.53 6ZM67.01 2.72L67.01 9.09Q67.01 10.93 66.12 11.81Q65.23 12.69 63.26 12.69L63.26 12.69Q62.56 12.69 61.91 12.54Q61.26 12.40 60.67 12.21L60.67 12.21L61.04 10.54Q61.50 10.72 62.02 10.87Q62.53 11.02 63.30 11.02L63.30 11.02Q63.81 11.02 64.14 10.90Q64.48 10.78 64.67 10.58Q64.86 10.37 64.94 10.09Q65.02 9.81 65.02 9.49L65.02 9.49L65.02 9.18Q64.61 9.34 64.26 9.42Q63.92 9.50 63.52 9.50L63.52 9.50Q62.05 9.50 61.29 8.58Q60.53 7.65 60.53 6L60.53 6Q60.53 4.14 61.55 3.23Q62.58 2.32 64.34 2.32L64.34 2.32Q65.57 2.32 67.01 2.72L67.01 2.72ZM68.40 0.10L75.60 0.10L75.60 1.73L72.99 1.73L72.99 10L71.01 10L71.01 1.73L68.40 1.73L68.40 0.10ZM76.50 6.30L76.50 6.30Q76.50 5.31 76.80 4.56Q77.10 3.81 77.60 3.30Q78.10 2.80 78.74 2.54Q79.38 2.29 80.05 2.29L80.05 2.29Q81.71 2.29 82.58 3.27Q83.44 4.26 83.44 6.14L83.44 6.14Q83.44 6.34 83.43 6.54Q83.42 6.75 83.41 6.88L83.41 6.88L78.53 6.88Q78.53 7.62 79.14 8.04Q79.74 8.46 80.70 8.46L80.70 8.46Q81.30 8.46 81.83 8.34Q82.37 8.21 82.74 8.08L82.74 8.08L83.01 9.76Q82.50 9.94 81.92 10.06Q81.34 10.18 80.62 10.18L80.62 10.18Q79.66 10.18 78.90 9.93Q78.14 9.68 77.61 9.19Q77.07 8.70 76.78 7.98Q76.50 7.26 76.50 6.30ZM78.53 5.52L81.54 5.52Q81.54 5.22 81.46 4.94Q81.38 4.66 81.20 4.43Q81.02 4.21 80.75 4.07Q80.48 3.94 80.08 3.94L80.08 3.94Q79.70 3.94 79.42 4.06Q79.14 4.19 78.95 4.42Q78.77 4.64 78.66 4.93Q78.56 5.22 78.53 5.52L78.53 5.52ZM89.49 2.40L89.49 2.40Q90.11 2.40 90.51 2.59Q90.91 2.78 91.14 3.17Q91.38 3.55 91.46 4.14Q91.54 4.72 91.54 5.50L91.54 5.50L91.54 10L89.94 10L89.94 5.41Q89.94 4.96 89.88 4.69Q89.82 4.42 89.74 4.27Q89.65 4.13 89.53 4.08Q89.41 4.03 89.28 4.03L89.28 4.03Q89.14 4.03 88.98 4.06Q88.82 4.08 88.69 4.14L88.69 4.14Q88.74 4.45 88.77 4.82Q88.80 5.18 88.80 5.63L88.80 5.63L88.80 7.14L87.20 7.14L87.20 5.41Q87.20 4.64 87.05 4.34Q86.90 4.03 86.56 4.03L86.56 4.03Q86.46 4.03 86.33 4.05Q86.19 4.06 86.06 4.10L86.06 4.10L86.06 10L84.46 10L84.46 2.77Q85.09 2.59 85.70 2.50Q86.30 2.40 86.77 2.40L86.77 2.40Q87.18 2.40 87.51 2.50Q87.84 2.61 88.08 2.85L88.08 2.85Q88.35 2.67 88.72 2.54Q89.09 2.40 89.49 2.40ZM97.50 6.30L97.50 6.30Q97.50 5.30 97.10 4.65Q96.70 4 95.89 4L95.89 4Q95.66 4 95.41 4.02Q95.15 4.05 94.98 4.06L94.98 4.06L94.98 8.19Q95.17 8.32 95.49 8.40Q95.81 8.48 96.13 8.48L96.13 8.48Q96.83 8.48 97.17 7.91Q97.50 7.34 97.50 6.30ZM99.50 6.24L99.50 6.24Q99.50 7.10 99.31 7.83Q99.12 8.56 98.75 9.08Q98.38 9.60 97.82 9.89Q97.26 10.18 96.53 10.18L96.53 10.18Q95.78 10.18 94.98 9.81L94.98 9.81L94.98 12.64L93.01 12.64L93.01 2.72Q93.55 2.54 94.34 2.43Q95.14 2.32 95.90 2.32L95.90 2.32Q97.65 2.32 98.58 3.38Q99.50 4.43 99.50 6.24ZM107.22 8.10L107.47 9.68Q107.42 9.71 107.26 9.79Q107.09 9.87 106.82 9.96Q106.54 10.05 106.15 10.11Q105.76 10.18 105.26 10.18L105.26 10.18Q103.90 10.18 103.28 9.37Q102.66 8.56 102.66 7.01L102.66 7.01L102.66 0.62L100.58 0.62L100.58-1.01L104.62-1.01L104.62 7.15Q104.62 7.92 104.93 8.19Q105.23 8.46 105.70 8.46L105.70 8.46Q106.29 8.46 106.69 8.30Q107.09 8.14 107.22 8.10L107.22 8.10ZM112.02 8.59L112.02 8.59Q112.34 8.59 112.64 8.58Q112.94 8.58 113.17 8.54L113.17 8.54L113.17 6.82Q112.98 6.78 112.70 6.76Q112.43 6.74 112.21 6.74L112.21 6.74Q111.90 6.74 111.62 6.78Q111.33 6.82 111.11 6.91Q110.90 7.01 110.77 7.18Q110.64 7.36 110.64 7.65L110.64 7.65Q110.64 8.16 111.02 8.38Q111.41 8.59 112.02 8.59ZM111.84 2.29L111.84 2.29Q112.77 2.29 113.38 2.50Q114 2.72 114.37 3.11Q114.74 3.50 114.90 4.07Q115.06 4.64 115.06 5.34L115.06 5.34L115.06 9.82Q114.62 9.92 113.78 10.05Q112.93 10.18 111.87 10.18L111.87 10.18Q111.15 10.18 110.57 10.05Q109.98 9.92 109.57 9.62Q109.15 9.33 108.93 8.86Q108.70 8.38 108.70 7.70L108.70 7.70Q108.70 7.04 108.96 6.59Q109.22 6.14 109.65 5.87Q110.08 5.60 110.64 5.48Q111.20 5.36 111.81 5.36L111.81 5.36Q112.58 5.36 113.17 5.49L113.17 5.49L113.17 5.25Q113.17 4.69 112.82 4.31Q112.46 3.94 111.60 3.94L111.60 3.94Q111.04 3.94 110.52 4.02Q110 4.10 109.68 4.21L109.68 4.21L109.41 2.62Q109.78 2.50 110.45 2.39Q111.12 2.29 111.84 2.29ZM118.29 7.20L118.29 4.11L116.58 4.11L116.58 2.48L118.29 2.48L118.29 0.59L120.26 0.27L120.26 2.48L123.41 2.48L123.41 4.11L120.26 4.11L120.26 7.15Q120.26 7.57 120.34 7.82Q120.42 8.08 120.56 8.22Q120.70 8.37 120.91 8.42Q121.12 8.46 121.38 8.46L121.38 8.46Q121.65 8.46 121.88 8.45Q122.11 8.43 122.33 8.39Q122.54 8.35 122.78 8.27Q123.01 8.19 123.28 8.06L123.28 8.06L123.55 9.76Q123.01 9.98 122.38 10.08Q121.74 10.18 121.15 10.18L121.15 10.18Q120.46 10.18 119.94 10.06Q119.41 9.95 119.04 9.63Q118.67 9.31 118.48 8.73Q118.29 8.14 118.29 7.20L118.29 7.20ZM124.50 6.30L124.50 6.30Q124.50 5.31 124.80 4.56Q125.10 3.81 125.60 3.30Q126.10 2.80 126.74 2.54Q127.38 2.29 128.05 2.29L128.05 2.29Q129.71 2.29 130.58 3.27Q131.44 4.26 131.44 6.14L131.44 6.14Q131.44 6.34 131.43 6.54Q131.42 6.75 131.41 6.88L131.41 6.88L126.53 6.88Q126.53 7.62 127.14 8.04Q127.74 8.46 128.70 8.46L128.70 8.46Q129.30 8.46 129.83 8.34Q130.37 8.21 130.74 8.08L130.74 8.08L131.01 9.76Q130.50 9.94 129.92 10.06Q129.34 10.18 128.62 10.18L128.62 10.18Q127.66 10.18 126.90 9.93Q126.14 9.68 125.61 9.19Q125.07 8.70 124.78 7.98Q124.50 7.26 124.50 6.30ZM126.53 5.52L129.54 5.52Q129.54 5.22 129.46 4.94Q129.38 4.66 129.20 4.43Q129.02 4.21 128.75 4.07Q128.48 3.94 128.08 3.94L128.08 3.94Q127.70 3.94 127.42 4.06Q127.14 4.19 126.95 4.42Q126.77 4.64 126.66 4.93Q126.56 5.22 126.53 5.52L126.53 5.52Z"/>
    </g>
</svg>