<?xml version="1.0" encoding="UTF-8"?>
<svg height="34" width="219.4" version="1.1" xmlns="http://www.w3.org/2000/svg">
    <rect
        height="32"
        width="217.4"
        rx="14"
        ry="14"
        x="1"
        y="1"
        fill="#3fb34f"
        stroke="#17401c"
        stroke-width="1"
         />
    <g transform="translate(0, 14)">
        <path fill="#17401c" d="M16.50 8.48L16.50 8.48Q17.36 8.48 17.94 8.30Q18.51 8.12 18.85 7.79Q19.18 7.47 19.31 7.07Q19.44 6.66 19.44 6.24L19.44 6.24Q19.44 5.71 19.13 5.29Q18.82 4.87 18.34 4.55Q17.87 4.22 17.28 3.96Q16.69 3.69 16.10 3.47L16.10 3.47Q15.32 3.19 14.48 2.82Q13.64 2.46 12.95 1.90Q12.27 1.34 11.82 0.51Q11.37-0.31 11.37-1.54L11.37-1.54Q11.37-3.98 12.95-5.35Q14.54-6.72 17.31-6.72L17.31-6.72Q18.90-6.72 20.09-6.36Q21.28-6.00 22.10-5.55L22.10-5.55L21.09-2.89Q20.39-3.28 19.53-3.56Q18.68-3.84 17.56-3.84L17.56-3.84Q14.82-3.84 14.82-1.85L14.82-1.85Q14.82-1.35 15.10-0.97Q15.38-0.59 15.81-0.30Q16.24-0.00 16.79 0.22Q17.34 0.44 17.87 0.64L17.87 0.64Q18.68 0.95 19.56 1.33Q20.44 1.70 21.19 2.33Q21.93 2.96 22.40 3.90Q22.88 4.84 22.88 6.27L22.88 6.27Q22.88 8.70 21.30 10.03Q19.72 11.36 16.50 11.36L16.50 11.36Q14.34 11.36 13.05 10.90Q11.76 10.44 11.12 10.05L11.12 10.05L12.13 7.25Q12.88 7.70 13.93 8.09Q14.98 8.48 16.50 8.48ZM28.00 6.10L28.00 0.70L25.01 0.70L25.01-2.16L28.00-2.16L28.00-5.46L31.45-6.02L31.45-2.16L36.96-2.16L36.96 0.70L31.45 0.70L31.45 6.02Q31.45 6.74 31.59 7.19Q31.73 7.64 31.98 7.89Q32.23 8.14 32.60 8.23Q32.96 8.31 33.41 8.31L33.41 8.31Q33.88 8.31 34.29 8.28Q34.70 8.26 35.07 8.19Q35.45 8.12 35.86 7.98Q36.26 7.84 36.74 7.61L36.74 7.61L37.22 10.58Q36.26 10.97 35.16 11.14Q34.05 11.31 33.02 11.31L33.02 11.31Q31.81 11.31 30.89 11.11Q29.96 10.92 29.32 10.36Q28.68 9.80 28.34 8.77Q28.00 7.75 28.00 6.10L28.00 6.10ZM50.85-1.85L50.24 1.34Q49.90 1.26 49.44 1.17Q48.98 1.09 48.50 1.02Q48.02 0.95 47.58 0.92Q47.13 0.89 46.82 0.89L46.82 0.89Q46.09 0.89 45.39 0.96Q44.69 1.03 43.96 1.23L43.96 1.23L43.96 11L40.49 11L40.49-1.29Q41.86-1.80 43.31-2.10Q44.75-2.41 46.68-2.41L46.68-2.41Q46.96-2.41 47.48-2.38Q48.00-2.36 48.58-2.29Q49.17-2.22 49.77-2.12Q50.38-2.02 50.85-1.85L50.85-1.85ZM59.95-5.94L59.95-5.94Q59.95-4.93 59.31-4.34Q58.66-3.76 57.77-3.76L57.77-3.76Q56.87-3.76 56.24-4.34Q55.61-4.93 55.61-5.94L55.61-5.94Q55.61-6.98 56.24-7.56Q56.87-8.15 57.77-8.15L57.77-8.15Q58.66-8.15 59.31-7.56Q59.95-6.98 59.95-5.94ZM64.63 7.67L65.08 10.44Q64.01 10.94 63.07 11.13Q62.14 11.31 61.35 11.31L61.35 11.31Q60.01 11.31 59.10 10.92Q58.19 10.52 57.64 9.78Q57.10 9.04 56.87 7.98Q56.65 6.91 56.65 5.54L56.65 5.54L56.65 0.70L53.01 0.70L53.01-2.16L60.09-2.16L60.09 5.99Q60.09 7.16 60.53 7.74Q60.96 8.31 61.97 8.31L61.97 8.31Q62.44 8.31 63.12 8.19Q63.79 8.06 64.63 7.67L64.63 7.67ZM67.76 11L67.76-1.74Q68.69-1.99 70.05-2.22Q71.40-2.44 73-2.44L73-2.44Q74.57-2.44 75.60-2.01Q76.64-1.57 77.24-0.77Q77.84 0.02 78.10 1.13Q78.35 2.24 78.35 3.58L78.35 3.58L78.35 11L74.90 11L74.90 4.03Q74.90 2.18 74.48 1.37Q74.06 0.56 72.78 0.56L72.78 0.56Q72.38 0.56 72.01 0.58Q71.63 0.61 71.21 0.67L71.21 0.67L71.21 11L67.76 11ZM84.42 4L84.42 4Q84.42 5.62 85.01 6.48Q85.60 7.33 86.86 7.33L86.86 7.33Q87.42 7.33 87.91 7.19Q88.40 7.05 88.79 6.83L88.79 6.83L88.79 0.50Q88.40 0.42 88.09 0.39Q87.78 0.36 87.45 0.36L87.45 0.36Q84.42 0.36 84.42 4ZM92.26-1.74L92.26 9.40Q92.26 12.62 90.71 14.16Q89.16 15.70 85.71 15.70L85.71 15.70Q84.48 15.70 83.35 15.45Q82.21 15.20 81.18 14.86L81.18 14.86L81.82 11.95Q82.63 12.26 83.53 12.53Q84.42 12.79 85.77 12.79L85.77 12.79Q86.66 12.79 87.25 12.58Q87.84 12.37 88.18 12.01Q88.51 11.64 88.65 11.15Q88.79 10.66 88.79 10.10L88.79 10.10L88.79 9.57Q88.06 9.85 87.46 9.99Q86.86 10.13 86.16 10.13L86.16 10.13Q83.58 10.13 82.25 8.51Q80.92 6.88 80.92 4L80.92 4Q80.92 0.75 82.72-0.84Q84.51-2.44 87.59-2.44L87.59-2.44Q89.74-2.44 92.26-1.74L92.26-1.74ZM94.70-6.33L107.30-6.33L107.30-3.48L102.74-3.48L102.74 11L99.26 11L99.26-3.48L94.70-3.48L94.70-6.33ZM108.87 4.53L108.87 4.53Q108.87 2.80 109.40 1.48Q109.93 0.16 110.80-0.72Q111.67-1.60 112.79-2.05Q113.91-2.50 115.08-2.50L115.08-2.50Q118.00-2.50 119.51-0.77Q121.02 0.95 121.02 4.25L121.02 4.25Q121.02 4.59 121.01 4.95Q120.99 5.32 120.96 5.54L120.96 5.54L112.42 5.54Q112.42 6.83 113.49 7.57Q114.55 8.31 116.23 8.31L116.23 8.31Q117.27 8.31 118.21 8.09Q119.14 7.86 119.79 7.64L119.79 7.64L120.26 10.58Q119.37 10.89 118.36 11.10Q117.35 11.31 116.09 11.31L116.09 11.31Q114.41 11.31 113.08 10.87Q111.75 10.44 110.81 9.59Q109.88 8.73 109.37 7.47Q108.87 6.21 108.87 4.53ZM112.42 3.16L117.69 3.16Q117.69 2.63 117.55 2.14Q117.41 1.65 117.10 1.26Q116.79 0.86 116.32 0.63Q115.84 0.39 115.14 0.39L115.14 0.39Q114.47 0.39 113.98 0.61Q113.49 0.84 113.17 1.23Q112.84 1.62 112.66 2.12Q112.48 2.63 112.42 3.16L112.42 3.16ZM131.60-2.30L131.60-2.30Q132.70-2.30 133.40-1.96Q134.10-1.63 134.50-0.96Q134.91-0.28 135.05 0.74Q135.19 1.76 135.19 3.13L135.19 3.13L135.19 11L132.39 11L132.39 2.96Q132.39 2.18 132.29 1.70Q132.19 1.23 132.04 0.98Q131.88 0.72 131.67 0.64Q131.46 0.56 131.24 0.56L131.24 0.56Q130.99 0.56 130.71 0.60Q130.43 0.64 130.20 0.75L130.20 0.75Q130.29 1.28 130.34 1.93Q130.40 2.57 130.40 3.36L130.40 3.36L130.40 5.99L127.60 5.99L127.60 2.96Q127.60 1.62 127.33 1.09Q127.07 0.56 126.48 0.56L126.48 0.56Q126.31 0.56 126.07 0.58Q125.84 0.61 125.61 0.67L125.61 0.67L125.61 11L122.81 11L122.81-1.66Q123.90-1.96 124.97-2.13Q126.03-2.30 126.84-2.30L126.84-2.30Q127.57-2.30 128.15-2.12Q128.72-1.94 129.14-1.52L129.14-1.52Q129.62-1.82 130.26-2.06Q130.90-2.30 131.60-2.30ZM145.63 4.53L145.63 4.53Q145.63 2.77 144.93 1.63Q144.23 0.50 142.80 0.50L142.80 0.50Q142.41 0.50 141.96 0.54Q141.52 0.58 141.21 0.61L141.21 0.61L141.21 7.84Q141.54 8.06 142.10 8.20Q142.66 8.34 143.22 8.34L143.22 8.34Q144.46 8.34 145.04 7.35Q145.63 6.35 145.63 4.53ZM149.13 4.42L149.13 4.42Q149.13 5.93 148.80 7.21Q148.46 8.48 147.82 9.39Q147.17 10.30 146.19 10.80Q145.21 11.31 143.92 11.31L143.92 11.31Q142.61 11.31 141.21 10.66L141.21 10.66L141.21 15.62L137.76 15.62L137.76-1.74Q138.72-2.05 140.10-2.24Q141.49-2.44 142.83-2.44L142.83-2.44Q145.88-2.44 147.51-0.59Q149.13 1.26 149.13 4.42ZM162.63 7.67L163.08 10.44Q162.99 10.50 162.70 10.64Q162.40 10.78 161.93 10.93Q161.45 11.08 160.77 11.20Q160.08 11.31 159.21 11.31L159.21 11.31Q156.83 11.31 155.74 9.89Q154.65 8.48 154.65 5.76L154.65 5.76L154.65-5.41L151.01-5.41L151.01-8.26L158.09-8.26L158.09 6.02Q158.09 7.36 158.62 7.84Q159.16 8.31 159.97 8.31L159.97 8.31Q161.00 8.31 161.70 8.03Q162.40 7.75 162.63 7.67L162.63 7.67ZM171.03 8.54L171.03 8.54Q171.59 8.54 172.12 8.52Q172.65 8.51 173.04 8.45L173.04 8.45L173.04 5.43Q172.71 5.37 172.23 5.33Q171.76 5.29 171.36 5.29L171.36 5.29Q170.83 5.29 170.33 5.36Q169.82 5.43 169.45 5.60Q169.07 5.76 168.84 6.07Q168.62 6.38 168.62 6.88L168.62 6.88Q168.62 7.78 169.29 8.16Q169.96 8.54 171.03 8.54ZM170.72-2.50L170.72-2.50Q172.34-2.50 173.42-2.12Q174.50-1.74 175.14-1.05Q175.79-0.37 176.07 0.63Q176.35 1.62 176.35 2.85L176.35 2.85L176.35 10.69Q175.59 10.86 174.11 11.08Q172.62 11.31 170.78 11.31L170.78 11.31Q169.52 11.31 168.49 11.08Q167.47 10.86 166.74 10.34Q166.02 9.82 165.62 9.00Q165.23 8.17 165.23 6.97L165.23 6.97Q165.23 5.82 165.68 5.04Q166.13 4.25 166.88 3.78Q167.64 3.30 168.62 3.09Q169.60 2.88 170.66 2.88L170.66 2.88Q172.01 2.88 173.04 3.10L173.04 3.10L173.04 2.68Q173.04 1.70 172.43 1.05Q171.81 0.39 170.30 0.39L170.30 0.39Q169.32 0.39 168.41 0.53Q167.50 0.67 166.94 0.86L166.94 0.86L166.46-1.91Q167.11-2.13 168.28-2.31Q169.46-2.50 170.72-2.50ZM182.00 6.10L182.00 0.70L179.01 0.70L179.01-2.16L182.00-2.16L182.00-5.46L185.45-6.02L185.45-2.16L190.96-2.16L190.96 0.70L185.45 0.70L185.45 6.02Q185.45 6.74 185.59 7.19Q185.73 7.64 185.98 7.89Q186.23 8.14 186.60 8.23Q186.96 8.31 187.41 8.31L187.41 8.31Q187.88 8.31 188.29 8.28Q188.70 8.26 189.07 8.19Q189.45 8.12 189.86 7.98Q190.26 7.84 190.74 7.61L190.74 7.61L191.22 10.58Q190.26 10.97 189.16 11.14Q188.05 11.31 187.02 11.31L187.02 11.31Q185.81 11.31 184.89 11.11Q183.96 10.92 183.32 10.36Q182.68 9.80 182.34 8.77Q182.00 7.75 182.00 6.10L182.00 6.10ZM192.87 4.53L192.87 4.53Q192.87 2.80 193.40 1.48Q193.93 0.16 194.80-0.72Q195.67-1.60 196.79-2.05Q197.91-2.50 199.08-2.50L199.08-2.50Q202.00-2.50 203.51-0.77Q205.02 0.95 205.02 4.25L205.02 4.25Q205.02 4.59 205.01 4.95Q204.99 5.32 204.96 5.54L204.96 5.54L196.42 5.54Q196.42 6.83 197.49 7.57Q198.55 8.31 200.23 8.31L200.23 8.31Q201.27 8.31 202.21 8.09Q203.14 7.86 203.79 7.64L203.79 7.64L204.26 10.58Q203.37 10.89 202.36 11.10Q201.35 11.31 200.09 11.31L200.09 11.31Q198.41 11.31 197.08 10.87Q195.75 10.44 194.81 9.59Q193.88 8.73 193.37 7.47Q192.87 6.21 192.87 4.53ZM196.42 3.16L201.69 3.16Q201.69 2.63 201.55 2.14Q201.41 1.65 201.10 1.26Q200.79 0.86 200.32 0.63Q199.84 0.39 199.14 0.39L199.14 0.39Q198.47 0.39 197.98 0.61Q197.49 0.84 197.17 1.23Q196.84 1.62 196.66 2.12Q196.48 2.63 196.42 3.16L196.42 3.16Z"/>
    </g>
</svg>