<?xml version="1.0" encoding="UTF-8"?>
<svg height="34" width="429.2" version="1.1" xmlns="http://www.w3.org/2000/svg"><!--Created by Josélio de S. C. Júnior - 2021 - https://github.com/joseliojunior -->
    <defs>
        <pattern id="pattern"
                x="1.5" y="3" width="3" height="6"
                patternUnits="userSpaceOnUse"
                patternTransform="rotate(45)" >
            <rect height="6" width="1" fill="#999999"/>
        </pattern>
    </defs>
    <rect
        height="32"
        width="427.2"
        rx="16"
        ry="16"
        x="1" y="1"
        fill="url(#pattern)"
        stroke="#000000"
        stroke-width="1" />
    <g transform="translate(0, 12)">
        <path fill="#ffffff" stroke="#000000" d="M27.49-0.62L27.49-0.62Q26.43-0.62 25.71-0.24Q24.99 0.14 24.52 0.83Q24.06 1.51 23.85 2.46Q23.65 3.41 23.65 4.56L23.65 4.56Q23.65 7.22 24.49 8.48Q25.33 9.74 26.96 9.74L26.96 9.74Q27.22 9.74 27.54 9.72Q27.85 9.70 28.11 9.65L28.11 9.65L28.11 4.22L31.06 4.22L31.06 11.64Q30.54 11.83 29.42 12.07Q28.30 12.31 26.72 12.31L26.72 12.31Q25.33 12.31 24.21 11.82Q23.10 11.33 22.30 10.36Q21.51 9.38 21.08 7.93Q20.65 6.48 20.65 4.56L20.65 4.56Q20.65 2.66 21.15 1.21Q21.66-0.24 22.52-1.22Q23.38-2.21 24.56-2.70Q25.74-3.19 27.08-3.19L27.08-3.19Q27.94-3.19 28.63-3.06Q29.31-2.93 29.82-2.76Q30.32-2.59 30.64-2.40Q30.97-2.21 31.14-2.11L31.14-2.11L30.37 0.24Q29.84-0.10 29.07-0.36Q28.30-0.62 27.49-0.62ZM42.82 9.14L43.21 11.52Q43.14 11.57 42.88 11.69Q42.63 11.81 42.22 11.94Q41.82 12.07 41.23 12.17Q40.64 12.26 39.90 12.26L39.90 12.26Q37.86 12.26 36.92 11.05Q35.98 9.84 35.98 7.51L35.98 7.51L35.98-2.06L32.86-2.06L32.86-4.51L38.94-4.51L38.94 7.73Q38.94 8.88 39.39 9.29Q39.85 9.70 40.54 9.70L40.54 9.70Q41.43 9.70 42.03 9.46Q42.63 9.22 42.82 9.14L42.82 9.14ZM52.30 0.72L55.33 0.72Q54.87 2.30 54.45 3.83Q54.03 5.35 53.58 6.80Q53.12 8.26 52.60 9.65Q52.09 11.04 51.49 12.36L51.49 12.36Q51.03 13.32 50.59 14.02Q50.14 14.71 49.60 15.16Q49.06 15.60 48.40 15.82Q47.74 16.03 46.86 16.03L46.86 16.03Q46.11 16.03 45.50 15.91Q44.89 15.79 44.48 15.60L44.48 15.60L45.03 13.13Q45.51 13.34 45.88 13.43Q46.26 13.51 46.69 13.51L46.69 13.51Q47.55 13.51 48.08 12.94Q48.61 12.36 48.92 11.57L48.92 11.57Q47.86 9.46 46.81 6.73Q45.75 4.01 44.89 0.72L44.89 0.72L47.96 0.72Q48.18 1.61 48.45 2.62Q48.73 3.62 49.04 4.63Q49.35 5.64 49.70 6.61Q50.05 7.58 50.41 8.42L50.41 8.42Q50.65 7.58 50.91 6.61Q51.18 5.64 51.42 4.64Q51.66 3.65 51.88 2.64Q52.11 1.63 52.30 0.72L52.30 0.72ZM64.26 6.46L64.26 6.46Q64.26 4.94 63.66 3.97Q63.06 3 61.83 3L61.83 3Q61.50 3 61.11 3.04Q60.73 3.07 60.46 3.10L60.46 3.10L60.46 9.29Q60.75 9.48 61.23 9.60Q61.71 9.72 62.19 9.72L62.19 9.72Q63.25 9.72 63.75 8.87Q64.26 8.02 64.26 6.46ZM67.26 6.36L67.26 6.36Q67.26 7.66 66.97 8.75Q66.68 9.84 66.13 10.62Q65.58 11.40 64.74 11.83Q63.90 12.26 62.79 12.26L62.79 12.26Q61.66 12.26 60.46 11.71L60.46 11.71L60.46 15.96L57.51 15.96L57.51 1.08Q58.33 0.82 59.52 0.65Q60.70 0.48 61.86 0.48L61.86 0.48Q64.47 0.48 65.86 2.06Q67.26 3.65 67.26 6.36ZM72.46 12L69.51 12L69.51-4.15L72.46-4.66L72.46 0.82Q72.82 0.70 73.33 0.59Q73.83 0.48 74.22 0.48L74.22 0.48Q75.46 0.48 76.30 0.85Q77.14 1.22 77.65 1.91Q78.15 2.59 78.37 3.54Q78.58 4.49 78.58 5.64L78.58 5.64L78.58 12L75.63 12L75.63 6.02Q75.63 4.44 75.27 3.74Q74.91 3.05 73.90 3.05L73.90 3.05Q73.50 3.05 73.10 3.14Q72.70 3.24 72.46 3.31L72.46 3.31L72.46 12ZM103.26 7.51L103.26 7.51Q103.26 8.86 102.80 9.76Q102.34 10.66 101.56 11.20Q100.78 11.74 99.72 11.96Q98.65 12.19 97.42 12.19L97.42 12.19Q96.44 12.19 95.38 12.08Q94.33 11.98 93.30 11.76L93.30 11.76L93.30-2.66Q94.14-2.81 95.14-2.92Q96.15-3.02 97.14-3.02L97.14-3.02Q98.82-3.02 99.87-2.68Q100.93-2.33 101.53-1.76Q102.13-1.20 102.34-0.50Q102.56 0.19 102.56 0.89L102.56 0.89Q102.56 1.94 102.04 2.76Q101.53 3.58 100.66 4.06L100.66 4.06Q102.18 4.61 102.72 5.54Q103.26 6.48 103.26 7.51ZM97.83 5.50L96.25 5.50L96.25 9.53Q96.56 9.58 96.93 9.60Q97.30 9.62 97.66 9.62L97.66 9.62Q98.17 9.62 98.65 9.54Q99.13 9.46 99.50 9.23Q99.87 9 100.11 8.58Q100.35 8.16 100.35 7.51L100.35 7.51Q100.35 6.43 99.67 5.96Q98.98 5.50 97.83 5.50L97.83 5.50ZM96.25 3.05L97.40 3.05Q98.53 3.05 99.10 2.56Q99.68 2.06 99.68 1.20L99.68 1.20Q99.68 0.67 99.51 0.35Q99.34 0.02 99.06-0.16Q98.77-0.34 98.38-0.40Q98-0.46 97.59-0.46L97.59-0.46Q97.26-0.46 96.90-0.43Q96.54-0.41 96.25-0.36L96.25-0.36L96.25 3.05ZM110.82-2.52L110.82-2.52Q110.82-1.66 110.26-1.15Q109.71-0.65 108.94-0.65L108.94-0.65Q108.18-0.65 107.64-1.15Q107.10-1.66 107.10-2.52L107.10-2.52Q107.10-3.41 107.64-3.91Q108.18-4.42 108.94-4.42L108.94-4.42Q109.71-4.42 110.26-3.91Q110.82-3.41 110.82-2.52ZM114.82 9.14L115.21 11.52Q114.30 11.95 113.49 12.11Q112.69 12.26 112.02 12.26L112.02 12.26Q110.86 12.26 110.08 11.93Q109.30 11.59 108.84 10.96Q108.37 10.32 108.18 9.41Q107.98 8.50 107.98 7.32L107.98 7.32L107.98 3.17L104.86 3.17L104.86 0.72L110.94 0.72L110.94 7.70Q110.94 8.71 111.31 9.20Q111.68 9.70 112.54 9.70L112.54 9.70Q112.95 9.70 113.53 9.59Q114.10 9.48 114.82 9.14L114.82 9.14ZM119.43 7.80L119.43 3.17L116.86 3.17L116.86 0.72L119.43 0.72L119.43-2.11L122.38-2.59L122.38 0.72L127.11 0.72L127.11 3.17L122.38 3.17L122.38 7.73Q122.38 8.35 122.50 8.74Q122.62 9.12 122.84 9.34Q123.06 9.55 123.37 9.62Q123.68 9.70 124.06 9.70L124.06 9.70Q124.47 9.70 124.82 9.67Q125.17 9.65 125.49 9.59Q125.82 9.53 126.16 9.41Q126.51 9.29 126.92 9.10L126.92 9.10L127.33 11.64Q126.51 11.98 125.56 12.12Q124.62 12.26 123.73 12.26L123.73 12.26Q122.70 12.26 121.90 12.10Q121.11 11.93 120.56 11.45Q120.01 10.97 119.72 10.09Q119.43 9.22 119.43 7.80L119.43 7.80ZM136.23 0.60L136.23 0.60Q137.17 0.60 137.77 0.89Q138.37 1.18 138.72 1.75Q139.06 2.33 139.18 3.20Q139.30 4.08 139.30 5.26L139.30 5.26L139.30 12L136.90 12L136.90 5.11Q136.90 4.44 136.82 4.03Q136.74 3.62 136.60 3.41Q136.47 3.19 136.29 3.12Q136.11 3.05 135.92 3.05L135.92 3.05Q135.70 3.05 135.46 3.08Q135.22 3.12 135.03 3.22L135.03 3.22Q135.10 3.67 135.15 4.22Q135.20 4.78 135.20 5.45L135.20 5.45L135.20 7.70L132.80 7.70L132.80 5.11Q132.80 3.96 132.57 3.50Q132.34 3.05 131.84 3.05L131.84 3.05Q131.70 3.05 131.49 3.07Q131.29 3.10 131.10 3.14L131.10 3.14L131.10 12L128.70 12L128.70 1.15Q129.63 0.89 130.54 0.74Q131.46 0.60 132.15 0.60L132.15 0.60Q132.78 0.60 133.27 0.76Q133.76 0.91 134.12 1.27L134.12 1.27Q134.53 1.01 135.08 0.80Q135.63 0.60 136.23 0.60ZM146.02 9.89L146.02 9.89Q146.50 9.89 146.96 9.88Q147.42 9.86 147.75 9.82L147.75 9.82L147.75 7.22Q147.46 7.18 147.06 7.14Q146.65 7.10 146.31 7.10L146.31 7.10Q145.86 7.10 145.42 7.16Q144.99 7.22 144.67 7.37Q144.34 7.51 144.15 7.78Q143.96 8.04 143.96 8.47L143.96 8.47Q143.96 9.24 144.54 9.56Q145.11 9.89 146.02 9.89ZM145.76 0.43L145.76 0.43Q147.15 0.43 148.08 0.76Q149 1.08 149.55 1.67Q150.10 2.26 150.34 3.11Q150.58 3.96 150.58 5.02L150.58 5.02L150.58 11.74Q149.94 11.88 148.66 12.07Q147.39 12.26 145.81 12.26L145.81 12.26Q144.73 12.26 143.85 12.07Q142.98 11.88 142.35 11.44Q141.73 10.99 141.39 10.28Q141.06 9.58 141.06 8.54L141.06 8.54Q141.06 7.56 141.44 6.89Q141.82 6.22 142.47 5.81Q143.12 5.40 143.96 5.22Q144.80 5.04 145.71 5.04L145.71 5.04Q146.86 5.04 147.75 5.23L147.75 5.23L147.75 4.87Q147.75 4.03 147.22 3.47Q146.70 2.90 145.40 2.90L145.40 2.90Q144.56 2.90 143.78 3.02Q143 3.14 142.52 3.31L142.52 3.31L142.11 0.94Q142.66 0.74 143.67 0.59Q144.68 0.43 145.76 0.43ZM160.26 6.46L160.26 6.46Q160.26 4.94 159.66 3.97Q159.06 3 157.83 3L157.83 3Q157.50 3 157.11 3.04Q156.73 3.07 156.46 3.10L156.46 3.10L156.46 9.29Q156.75 9.48 157.23 9.60Q157.71 9.72 158.19 9.72L158.19 9.72Q159.25 9.72 159.75 8.87Q160.26 8.02 160.26 6.46ZM163.26 6.36L163.26 6.36Q163.26 7.66 162.97 8.75Q162.68 9.84 162.13 10.62Q161.58 11.40 160.74 11.83Q159.90 12.26 158.79 12.26L158.79 12.26Q157.66 12.26 156.46 11.71L156.46 11.71L156.46 15.96L153.51 15.96L153.51 1.08Q154.33 0.82 155.52 0.65Q156.70 0.48 157.86 0.48L157.86 0.48Q160.47 0.48 161.86 2.06Q163.26 3.65 163.26 6.36ZM180.25-0.38L180.25 9.60Q180.37 9.62 180.51 9.62Q180.66 9.62 180.78 9.62L180.78 9.62Q181.78 9.62 182.47 9.24Q183.15 8.86 183.57 8.18Q183.99 7.51 184.17 6.59Q184.35 5.66 184.35 4.56L184.35 4.56Q184.35 3.60 184.21 2.69Q184.06 1.78 183.70 1.08Q183.34 0.38 182.72-0.04Q182.10-0.46 181.11-0.46L181.11-0.46Q180.92-0.46 180.68-0.44Q180.44-0.43 180.25-0.38L180.25-0.38ZM187.35 4.56L187.35 4.56Q187.35 6.62 186.84 8.08Q186.32 9.53 185.41 10.44Q184.50 11.35 183.24 11.77Q181.98 12.19 180.46 12.19L180.46 12.19Q179.67 12.19 178.92 12.11Q178.16 12.02 177.30 11.83L177.30 11.83L177.30-2.66Q178.30-2.88 179.19-2.95Q180.08-3.02 180.85-3.02L180.85-3.02Q182.31-3.02 183.52-2.59Q184.74-2.16 185.58-1.24Q186.42-0.31 186.88 1.12Q187.35 2.54 187.35 4.56ZM194.82-2.52L194.82-2.52Q194.82-1.66 194.26-1.15Q193.71-0.65 192.94-0.65L192.94-0.65Q192.18-0.65 191.64-1.15Q191.10-1.66 191.10-2.52L191.10-2.52Q191.10-3.41 191.64-3.91Q192.18-4.42 192.94-4.42L192.94-4.42Q193.71-4.42 194.26-3.91Q194.82-3.41 194.82-2.52ZM198.82 9.14L199.21 11.52Q198.30 11.95 197.49 12.11Q196.69 12.26 196.02 12.26L196.02 12.26Q194.86 12.26 194.08 11.93Q193.30 11.59 192.84 10.96Q192.37 10.32 192.18 9.41Q191.98 8.50 191.98 7.32L191.98 7.32L191.98 3.17L188.86 3.17L188.86 0.72L194.94 0.72L194.94 7.70Q194.94 8.71 195.31 9.20Q195.68 9.70 196.54 9.70L196.54 9.70Q196.95 9.70 197.53 9.59Q198.10 9.48 198.82 9.14L198.82 9.14ZM205.47 9.77L205.47 9.77Q206.55 9.77 207.13 9.61Q207.70 9.46 207.70 8.98L207.70 8.98Q207.70 8.66 207.52 8.45Q207.34 8.23 207.02 8.08Q206.70 7.92 206.28 7.78Q205.86 7.63 205.40 7.49L205.40 7.49Q204.75 7.30 204.08 7.04Q203.41 6.79 202.86 6.41Q202.30 6.02 201.94 5.44Q201.58 4.85 201.58 3.96L201.58 3.96Q201.58 3.24 201.86 2.60Q202.14 1.97 202.72 1.48Q203.31 0.98 204.22 0.71Q205.14 0.43 206.41 0.43L206.41 0.43Q207.51 0.43 208.46 0.60Q209.41 0.77 210.10 1.08L210.10 1.08L209.65 3.58Q209.24 3.46 208.38 3.18Q207.51 2.90 206.43 2.90L206.43 2.90Q205.30 2.90 204.91 3.18Q204.51 3.46 204.51 3.77L204.51 3.77Q204.51 4.03 204.69 4.24Q204.87 4.44 205.17 4.61Q205.47 4.78 205.87 4.93Q206.26 5.09 206.72 5.23L206.72 5.23Q207.37 5.45 208.06 5.71Q208.76 5.98 209.32 6.37Q209.89 6.77 210.25 7.38Q210.61 7.99 210.61 8.88L210.61 8.88Q210.61 9.58 210.34 10.20Q210.08 10.82 209.47 11.28Q208.86 11.74 207.87 12Q206.89 12.26 205.45 12.26L205.45 12.26Q203.98 12.26 202.95 11.93Q201.92 11.59 201.30 11.33L201.30 11.33L201.75 8.86Q202.59 9.19 203.54 9.48Q204.49 9.77 205.47 9.77ZM215.43 7.80L215.43 3.17L212.86 3.17L212.86 0.72L215.43 0.72L215.43-2.11L218.38-2.59L218.38 0.72L223.11 0.72L223.11 3.17L218.38 3.17L218.38 7.73Q218.38 8.35 218.50 8.74Q218.62 9.12 218.84 9.34Q219.06 9.55 219.37 9.62Q219.68 9.70 220.06 9.70L220.06 9.70Q220.47 9.70 220.82 9.67Q221.17 9.65 221.49 9.59Q221.82 9.53 222.16 9.41Q222.51 9.29 222.92 9.10L222.92 9.10L223.33 11.64Q222.51 11.98 221.56 12.12Q220.62 12.26 219.73 12.26L219.73 12.26Q218.70 12.26 217.90 12.10Q217.11 11.93 216.56 11.45Q216.01 10.97 215.72 10.09Q215.43 9.22 215.43 7.80L215.43 7.80ZM235.02 0.98L234.49 3.72Q234.20 3.65 233.80 3.58Q233.41 3.50 233 3.44Q232.59 3.38 232.21 3.36Q231.82 3.34 231.56 3.34L231.56 3.34Q230.94 3.34 230.34 3.40Q229.74 3.46 229.11 3.62L229.11 3.62L229.11 12L226.14 12L226.14 1.46Q227.31 1.03 228.55 0.77Q229.78 0.50 231.44 0.50L231.44 0.50Q231.68 0.50 232.12 0.53Q232.57 0.55 233.07 0.61Q233.58 0.67 234.09 0.76Q234.61 0.84 235.02 0.98L235.02 0.98ZM242.82-2.52L242.82-2.52Q242.82-1.66 242.26-1.15Q241.71-0.65 240.94-0.65L240.94-0.65Q240.18-0.65 239.64-1.15Q239.10-1.66 239.10-2.52L239.10-2.52Q239.10-3.41 239.64-3.91Q240.18-4.42 240.94-4.42L240.94-4.42Q241.71-4.42 242.26-3.91Q242.82-3.41 242.82-2.52ZM246.82 9.14L247.21 11.52Q246.30 11.95 245.49 12.11Q244.69 12.26 244.02 12.26L244.02 12.26Q242.86 12.26 242.08 11.93Q241.30 11.59 240.84 10.96Q240.37 10.32 240.18 9.41Q239.98 8.50 239.98 7.32L239.98 7.32L239.98 3.17L236.86 3.17L236.86 0.72L242.94 0.72L242.94 7.70Q242.94 8.71 243.31 9.20Q243.68 9.70 244.54 9.70L244.54 9.70Q244.95 9.70 245.53 9.59Q246.10 9.48 246.82 9.14L246.82 9.14ZM256.28 6.29L256.28 6.29Q256.28 4.70 255.76 3.86Q255.25 3.02 254.19 3.02L254.19 3.02Q253.71 3.02 253.24 3.16Q252.78 3.29 252.44 3.48L252.44 3.48L252.44 9.60Q252.78 9.67 253.15 9.70Q253.52 9.72 253.78 9.72L253.78 9.72Q254.94 9.72 255.61 8.94Q256.28 8.16 256.28 6.29ZM259.28 6.36L259.28 6.36Q259.28 7.70 258.92 8.80Q258.56 9.89 257.86 10.66Q257.17 11.42 256.16 11.84Q255.15 12.26 253.86 12.26L253.86 12.26Q252.70 12.26 251.50 12.10Q250.30 11.93 249.49 11.66L249.49 11.66L249.49-4.15L252.44-4.66L252.44 0.98Q253.06 0.70 253.64 0.59Q254.22 0.48 254.79 0.48L254.79 0.48Q255.90 0.48 256.74 0.90Q257.58 1.32 258.14 2.10Q258.70 2.88 258.99 3.96Q259.28 5.04 259.28 6.36ZM270.51 0.72L270.51 11.62Q269.70 11.83 268.53 12.05Q267.37 12.26 266 12.26L266 12.26Q264.61 12.26 263.72 11.88Q262.83 11.50 262.32 10.79Q261.80 10.08 261.61 9.12Q261.42 8.16 261.42 7.01L261.42 7.01L261.42 0.72L264.37 0.72L264.37 6.62Q264.37 8.18 264.74 8.94Q265.11 9.70 266.19 9.70L266.19 9.70Q266.86 9.70 267.54 9.58L267.54 9.58L267.54 0.72L270.51 0.72ZM275.43 7.80L275.43 3.17L272.86 3.17L272.86 0.72L275.43 0.72L275.43-2.11L278.38-2.59L278.38 0.72L283.11 0.72L283.11 3.17L278.38 3.17L278.38 7.73Q278.38 8.35 278.50 8.74Q278.62 9.12 278.84 9.34Q279.06 9.55 279.37 9.62Q279.68 9.70 280.06 9.70L280.06 9.70Q280.47 9.70 280.82 9.67Q281.17 9.65 281.49 9.59Q281.82 9.53 282.16 9.41Q282.51 9.29 282.92 9.10L282.92 9.10L283.33 11.64Q282.51 11.98 281.56 12.12Q280.62 12.26 279.73 12.26L279.73 12.26Q278.70 12.26 277.90 12.10Q277.11 11.93 276.56 11.45Q276.01 10.97 275.72 10.09Q275.43 9.22 275.43 7.80L275.43 7.80ZM290.82-2.52L290.82-2.52Q290.82-1.66 290.26-1.15Q289.71-0.65 288.94-0.65L288.94-0.65Q288.18-0.65 287.64-1.15Q287.10-1.66 287.10-2.52L287.10-2.52Q287.10-3.41 287.64-3.91Q288.18-4.42 288.94-4.42L288.94-4.42Q289.71-4.42 290.26-3.91Q290.82-3.41 290.82-2.52ZM294.82 9.14L295.21 11.52Q294.30 11.95 293.49 12.11Q292.69 12.26 292.02 12.26L292.02 12.26Q290.86 12.26 290.08 11.93Q289.30 11.59 288.84 10.96Q288.37 10.32 288.18 9.41Q287.98 8.50 287.98 7.32L287.98 7.32L287.98 3.17L284.86 3.17L284.86 0.72L290.94 0.72L290.94 7.70Q290.94 8.71 291.31 9.20Q291.68 9.70 292.54 9.70L292.54 9.70Q292.95 9.70 293.53 9.59Q294.10 9.48 294.82 9.14L294.82 9.14ZM307.33 6.34L307.33 6.34Q307.33 7.68 306.94 8.77Q306.56 9.86 305.86 10.66Q305.17 11.45 304.20 11.88Q303.22 12.31 302.02 12.31L302.02 12.31Q300.82 12.31 299.85 11.88Q298.88 11.45 298.17 10.66Q297.46 9.86 297.08 8.77Q296.70 7.68 296.70 6.34L296.70 6.34Q296.70 5.02 297.09 3.92Q297.49 2.83 298.20 2.05Q298.90 1.27 299.89 0.85Q300.87 0.43 302.02 0.43L302.02 0.43Q303.20 0.43 304.17 0.85Q305.14 1.27 305.85 2.05Q306.56 2.83 306.94 3.92Q307.33 5.02 307.33 6.34ZM299.70 6.36L299.70 6.36Q299.70 7.87 300.24 8.81Q300.78 9.74 301.98 9.74L301.98 9.74Q303.13 9.74 303.72 8.81Q304.30 7.87 304.30 6.36L304.30 6.36Q304.30 4.85 303.76 3.92Q303.22 3 302.02 3L302.02 3Q300.87 3 300.28 3.92Q299.70 4.85 299.70 6.36ZM309.51 12L309.51 1.08Q310.30 0.86 311.47 0.67Q312.63 0.48 314 0.48L314 0.48Q315.34 0.48 316.23 0.85Q317.12 1.22 317.64 1.91Q318.15 2.59 318.37 3.54Q318.58 4.49 318.58 5.64L318.58 5.64L318.58 12L315.63 12L315.63 6.02Q315.63 4.44 315.27 3.74Q314.91 3.05 313.81 3.05L313.81 3.05Q313.47 3.05 313.15 3.07Q312.82 3.10 312.46 3.14L312.46 3.14L312.46 12L309.51 12ZM336.46 12L333.51 12L333.51-2.86L342.61-2.86L342.61-0.41L336.46-0.41L336.46 3.19L341.84 3.19L341.84 5.64L336.46 5.64L336.46 12ZM355.33 6.34L355.33 6.34Q355.33 7.68 354.94 8.77Q354.56 9.86 353.86 10.66Q353.17 11.45 352.20 11.88Q351.22 12.31 350.02 12.31L350.02 12.31Q348.82 12.31 347.85 11.88Q346.88 11.45 346.17 10.66Q345.46 9.86 345.08 8.77Q344.70 7.68 344.70 6.34L344.70 6.34Q344.70 5.02 345.09 3.92Q345.49 2.83 346.20 2.05Q346.90 1.27 347.89 0.85Q348.87 0.43 350.02 0.43L350.02 0.43Q351.20 0.43 352.17 0.85Q353.14 1.27 353.85 2.05Q354.56 2.83 354.94 3.92Q355.33 5.02 355.33 6.34ZM347.70 6.36L347.70 6.36Q347.70 7.87 348.24 8.81Q348.78 9.74 349.98 9.74L349.98 9.74Q351.13 9.74 351.72 8.81Q352.30 7.87 352.30 6.36L352.30 6.36Q352.30 4.85 351.76 3.92Q351.22 3 350.02 3L350.02 3Q348.87 3 348.28 3.92Q347.70 4.85 347.70 6.36ZM367.02 0.98L366.49 3.72Q366.20 3.65 365.80 3.58Q365.41 3.50 365 3.44Q364.59 3.38 364.21 3.36Q363.82 3.34 363.56 3.34L363.56 3.34Q362.94 3.34 362.34 3.40Q361.74 3.46 361.11 3.62L361.11 3.62L361.11 12L358.14 12L358.14 1.46Q359.31 1.03 360.55 0.77Q361.78 0.50 363.44 0.50L363.44 0.50Q363.68 0.50 364.12 0.53Q364.57 0.55 365.07 0.61Q365.58 0.67 366.09 0.76Q366.61 0.84 367.02 0.98L367.02 0.98ZM376.23 0.60L376.23 0.60Q377.17 0.60 377.77 0.89Q378.37 1.18 378.72 1.75Q379.06 2.33 379.18 3.20Q379.30 4.08 379.30 5.26L379.30 5.26L379.30 12L376.90 12L376.90 5.11Q376.90 4.44 376.82 4.03Q376.74 3.62 376.60 3.41Q376.47 3.19 376.29 3.12Q376.11 3.05 375.92 3.05L375.92 3.05Q375.70 3.05 375.46 3.08Q375.22 3.12 375.03 3.22L375.03 3.22Q375.10 3.67 375.15 4.22Q375.20 4.78 375.20 5.45L375.20 5.45L375.20 7.70L372.80 7.70L372.80 5.11Q372.80 3.96 372.57 3.50Q372.34 3.05 371.84 3.05L371.84 3.05Q371.70 3.05 371.49 3.07Q371.29 3.10 371.10 3.14L371.10 3.14L371.10 12L368.70 12L368.70 1.15Q369.63 0.89 370.54 0.74Q371.46 0.60 372.15 0.60L372.15 0.60Q372.78 0.60 373.27 0.76Q373.76 0.91 374.12 1.27L374.12 1.27Q374.53 1.01 375.08 0.80Q375.63 0.60 376.23 0.60ZM386.02 9.89L386.02 9.89Q386.50 9.89 386.96 9.88Q387.42 9.86 387.75 9.82L387.75 9.82L387.75 7.22Q387.46 7.18 387.06 7.14Q386.65 7.10 386.31 7.10L386.31 7.10Q385.86 7.10 385.42 7.16Q384.99 7.22 384.67 7.37Q384.34 7.51 384.15 7.78Q383.96 8.04 383.96 8.47L383.96 8.47Q383.96 9.24 384.54 9.56Q385.11 9.89 386.02 9.89ZM385.76 0.43L385.76 0.43Q387.15 0.43 388.08 0.76Q389 1.08 389.55 1.67Q390.10 2.26 390.34 3.11Q390.58 3.96 390.58 5.02L390.58 5.02L390.58 11.74Q389.94 11.88 388.66 12.07Q387.39 12.26 385.81 12.26L385.81 12.26Q384.73 12.26 383.85 12.07Q382.98 11.88 382.35 11.44Q381.73 10.99 381.39 10.28Q381.06 9.58 381.06 8.54L381.06 8.54Q381.06 7.56 381.44 6.89Q381.82 6.22 382.47 5.81Q383.12 5.40 383.96 5.22Q384.80 5.04 385.71 5.04L385.71 5.04Q386.86 5.04 387.75 5.23L387.75 5.23L387.75 4.87Q387.75 4.03 387.22 3.47Q386.70 2.90 385.40 2.90L385.40 2.90Q384.56 2.90 383.78 3.02Q383 3.14 382.52 3.31L382.52 3.31L382.11 0.94Q382.66 0.74 383.67 0.59Q384.68 0.43 385.76 0.43ZM395.43 7.80L395.43 3.17L392.86 3.17L392.86 0.72L395.43 0.72L395.43-2.11L398.38-2.59L398.38 0.72L403.11 0.72L403.11 3.17L398.38 3.17L398.38 7.73Q398.38 8.35 398.50 8.74Q398.62 9.12 398.84 9.34Q399.06 9.55 399.37 9.62Q399.68 9.70 400.06 9.70L400.06 9.70Q400.47 9.70 400.82 9.67Q401.17 9.65 401.49 9.59Q401.82 9.53 402.16 9.41Q402.51 9.29 402.92 9.10L402.92 9.10L403.33 11.64Q402.51 11.98 401.56 12.12Q400.62 12.26 399.73 12.26L399.73 12.26Q398.70 12.26 397.90 12.10Q397.11 11.93 396.56 11.45Q396.01 10.97 395.72 10.09Q395.43 9.22 395.43 7.80L395.43 7.80Z"/>
    </g>
</svg>