<?xml version="1.0" encoding="UTF-8"?>
<svg height="26" width="301.2" version="1.1" xmlns="http://www.w3.org/2000/svg"><!--Created by Josélio de S. C. Júnior - 2021 - https://github.com/joseliojunior -->
    <defs>
        <pattern id="pattern"
                x="3" y="3" width="6" height="6"
                patternUnits="userSpaceOnUse"
                patternTransform="rotate(45)" >
            <rect height="6" width="6"
                fill="#ffffff"/>
            <line x1="0" y1="0" x2="0" y2="6"
                stroke="#bbbbbb"
                stroke-width="2" />
        </pattern>
    </defs>
    <rect
        height="24"
        width="299.2"
        rx="1"
        ry="1"
        x="1" y="1"
        fill="url(#pattern)" />
    <g transform="translate(0, 8)">
        <path fill="#000000" d="M24.99 1.58L24.99 1.58Q24.29 1.58 23.81 1.84Q23.33 2.10 23.02 2.55Q22.70 3.01 22.57 3.64Q22.43 4.27 22.43 5.04L22.43 5.04Q22.43 6.82 22.99 7.66Q23.55 8.50 24.64 8.50L24.64 8.50Q24.82 8.50 25.02 8.48Q25.23 8.46 25.41 8.43L25.41 8.43L25.41 4.82L27.38 4.82L27.38 9.76Q27.02 9.89 26.28 10.05Q25.54 10.21 24.48 10.21L24.48 10.21Q23.55 10.21 22.81 9.88Q22.06 9.55 21.54 8.90Q21.01 8.26 20.72 7.29Q20.43 6.32 20.43 5.04L20.43 5.04Q20.43 3.78 20.77 2.81Q21.10 1.84 21.68 1.18Q22.26 0.53 23.04 0.20Q23.82-0.13 24.72-0.13L24.72-0.13Q25.30-0.13 25.75-0.04Q26.21 0.05 26.54 0.16Q26.88 0.27 27.10 0.40Q27.31 0.53 27.42 0.59L27.42 0.59L26.91 2.16Q26.56 1.94 26.05 1.76Q25.54 1.58 24.99 1.58ZM35.22 8.10L35.47 9.68Q35.42 9.71 35.26 9.79Q35.09 9.87 34.82 9.96Q34.54 10.05 34.15 10.11Q33.76 10.18 33.26 10.18L33.26 10.18Q31.90 10.18 31.28 9.37Q30.66 8.56 30.66 7.01L30.66 7.01L30.66 0.62L28.58 0.62L28.58-1.01L32.62-1.01L32.62 7.15Q32.62 7.92 32.93 8.19Q33.23 8.46 33.70 8.46L33.70 8.46Q34.29 8.46 34.69 8.30Q35.09 8.14 35.22 8.10L35.22 8.10ZM41.54 2.48L43.55 2.48Q43.25 3.54 42.97 4.55Q42.69 5.57 42.38 6.54Q42.08 7.50 41.74 8.43Q41.39 9.36 40.99 10.24L40.99 10.24Q40.69 10.88 40.39 11.34Q40.10 11.81 39.74 12.10Q39.38 12.40 38.94 12.54Q38.50 12.69 37.90 12.69L37.90 12.69Q37.41 12.69 37 12.61Q36.59 12.53 36.32 12.40L36.32 12.40L36.69 10.75Q37.01 10.90 37.26 10.95Q37.50 11.01 37.79 11.01L37.79 11.01Q38.37 11.01 38.72 10.62Q39.07 10.24 39.28 9.71L39.28 9.71Q38.58 8.30 37.87 6.49Q37.17 4.67 36.59 2.48L36.59 2.48L38.64 2.48Q38.78 3.07 38.97 3.74Q39.15 4.42 39.36 5.09Q39.57 5.76 39.80 6.41Q40.03 7.06 40.27 7.62L40.27 7.62Q40.43 7.06 40.61 6.41Q40.78 5.76 40.94 5.10Q41.10 4.43 41.26 3.76Q41.41 3.09 41.54 2.48L41.54 2.48ZM49.50 6.30L49.50 6.30Q49.50 5.30 49.10 4.65Q48.70 4 47.89 4L47.89 4Q47.66 4 47.41 4.02Q47.15 4.05 46.98 4.06L46.98 4.06L46.98 8.19Q47.17 8.32 47.49 8.40Q47.81 8.48 48.13 8.48L48.13 8.48Q48.83 8.48 49.17 7.91Q49.50 7.34 49.50 6.30ZM51.50 6.24L51.50 6.24Q51.50 7.10 51.31 7.83Q51.12 8.56 50.75 9.08Q50.38 9.60 49.82 9.89Q49.26 10.18 48.53 10.18L48.53 10.18Q47.78 10.18 46.98 9.81L46.98 9.81L46.98 12.64L45.01 12.64L45.01 2.72Q45.55 2.54 46.34 2.43Q47.14 2.32 47.90 2.32L47.90 2.32Q49.65 2.32 50.58 3.38Q51.50 4.43 51.50 6.24ZM54.98 10L53.01 10L53.01-0.77L54.98-1.10L54.98 2.54Q55.22 2.46 55.55 2.39Q55.89 2.32 56.14 2.32L56.14 2.32Q56.98 2.32 57.54 2.57Q58.10 2.82 58.43 3.27Q58.77 3.73 58.91 4.36Q59.06 4.99 59.06 5.76L59.06 5.76L59.06 10L57.09 10L57.09 6.02Q57.09 4.96 56.85 4.50Q56.61 4.03 55.94 4.03L55.94 4.03Q55.66 4.03 55.40 4.10Q55.14 4.16 54.98 4.21L54.98 4.21L54.98 10ZM75.50 7.01L75.50 7.01Q75.50 7.90 75.20 8.50Q74.90 9.10 74.38 9.46Q73.86 9.82 73.14 9.98Q72.43 10.13 71.62 10.13L71.62 10.13Q70.96 10.13 70.26 10.06Q69.55 9.98 68.86 9.84L68.86 9.84L68.86 0.22Q69.42 0.13 70.10 0.06Q70.77-0.02 71.42-0.02L71.42-0.02Q72.54-0.02 73.25 0.22Q73.95 0.45 74.35 0.82Q74.75 1.20 74.90 1.66Q75.04 2.13 75.04 2.59L75.04 2.59Q75.04 3.30 74.70 3.84Q74.35 4.38 73.78 4.70L73.78 4.70Q74.78 5.07 75.14 5.70Q75.50 6.32 75.50 7.01ZM71.89 5.66L70.83 5.66L70.83 8.35Q71.04 8.38 71.29 8.40Q71.54 8.42 71.78 8.42L71.78 8.42Q72.11 8.42 72.43 8.36Q72.75 8.30 73 8.15Q73.25 8 73.41 7.72Q73.57 7.44 73.57 7.01L73.57 7.01Q73.57 6.29 73.11 5.98Q72.66 5.66 71.89 5.66L71.89 5.66ZM70.83 4.03L71.60 4.03Q72.35 4.03 72.74 3.70Q73.12 3.38 73.12 2.80L73.12 2.80Q73.12 2.45 73.01 2.23Q72.90 2.02 72.70 1.90Q72.51 1.78 72.26 1.74Q72 1.70 71.73 1.70L71.73 1.70Q71.50 1.70 71.26 1.71Q71.02 1.73 70.83 1.76L70.83 1.76L70.83 4.03ZM80.54 0.32L80.54 0.32Q80.54 0.90 80.18 1.23Q79.81 1.57 79.30 1.57L79.30 1.57Q78.78 1.57 78.42 1.23Q78.06 0.90 78.06 0.32L78.06 0.32Q78.06-0.27 78.42-0.61Q78.78-0.94 79.30-0.94L79.30-0.94Q79.81-0.94 80.18-0.61Q80.54-0.27 80.54 0.32ZM83.22 8.10L83.47 9.68Q82.86 9.97 82.33 10.07Q81.79 10.18 81.34 10.18L81.34 10.18Q80.58 10.18 80.06 9.95Q79.54 9.73 79.22 9.30Q78.91 8.88 78.78 8.27Q78.66 7.66 78.66 6.88L78.66 6.88L78.66 4.11L76.58 4.11L76.58 2.48L80.62 2.48L80.62 7.14Q80.62 7.81 80.87 8.14Q81.12 8.46 81.70 8.46L81.70 8.46Q81.97 8.46 82.35 8.39Q82.74 8.32 83.22 8.10L83.22 8.10ZM86.29 7.20L86.29 4.11L84.58 4.11L84.58 2.48L86.29 2.48L86.29 0.59L88.26 0.27L88.26 2.48L91.41 2.48L91.41 4.11L88.26 4.11L88.26 7.15Q88.26 7.57 88.34 7.82Q88.42 8.08 88.56 8.22Q88.70 8.37 88.91 8.42Q89.12 8.46 89.38 8.46L89.38 8.46Q89.65 8.46 89.88 8.45Q90.11 8.43 90.33 8.39Q90.54 8.35 90.78 8.27Q91.01 8.19 91.28 8.06L91.28 8.06L91.55 9.76Q91.01 9.98 90.38 10.08Q89.74 10.18 89.15 10.18L89.15 10.18Q88.46 10.18 87.94 10.06Q87.41 9.95 87.04 9.63Q86.67 9.31 86.48 8.73Q86.29 8.14 86.29 7.20L86.29 7.20ZM97.49 2.40L97.49 2.40Q98.11 2.40 98.51 2.59Q98.91 2.78 99.14 3.17Q99.38 3.55 99.46 4.14Q99.54 4.72 99.54 5.50L99.54 5.50L99.54 10L97.94 10L97.94 5.41Q97.94 4.96 97.88 4.69Q97.82 4.42 97.74 4.27Q97.65 4.13 97.53 4.08Q97.41 4.03 97.28 4.03L97.28 4.03Q97.14 4.03 96.98 4.06Q96.82 4.08 96.69 4.14L96.69 4.14Q96.74 4.45 96.77 4.82Q96.80 5.18 96.80 5.63L96.80 5.63L96.80 7.14L95.20 7.14L95.20 5.41Q95.20 4.64 95.05 4.34Q94.90 4.03 94.56 4.03L94.56 4.03Q94.46 4.03 94.33 4.05Q94.19 4.06 94.06 4.10L94.06 4.10L94.06 10L92.46 10L92.46 2.77Q93.09 2.59 93.70 2.50Q94.30 2.40 94.77 2.40L94.77 2.40Q95.18 2.40 95.51 2.50Q95.84 2.61 96.08 2.85L96.08 2.85Q96.35 2.67 96.72 2.54Q97.09 2.40 97.49 2.40ZM104.02 8.59L104.02 8.59Q104.34 8.59 104.64 8.58Q104.94 8.58 105.17 8.54L105.17 8.54L105.17 6.82Q104.98 6.78 104.70 6.76Q104.43 6.74 104.21 6.74L104.21 6.74Q103.90 6.74 103.62 6.78Q103.33 6.82 103.11 6.91Q102.90 7.01 102.77 7.18Q102.64 7.36 102.64 7.65L102.64 7.65Q102.64 8.16 103.02 8.38Q103.41 8.59 104.02 8.59ZM103.84 2.29L103.84 2.29Q104.77 2.29 105.38 2.50Q106 2.72 106.37 3.11Q106.74 3.50 106.90 4.07Q107.06 4.64 107.06 5.34L107.06 5.34L107.06 9.82Q106.62 9.92 105.78 10.05Q104.93 10.18 103.87 10.18L103.87 10.18Q103.15 10.18 102.57 10.05Q101.98 9.92 101.57 9.62Q101.15 9.33 100.93 8.86Q100.70 8.38 100.70 7.70L100.70 7.70Q100.70 7.04 100.96 6.59Q101.22 6.14 101.65 5.87Q102.08 5.60 102.64 5.48Q103.20 5.36 103.81 5.36L103.81 5.36Q104.58 5.36 105.17 5.49L105.17 5.49L105.17 5.25Q105.17 4.69 104.82 4.31Q104.46 3.94 103.60 3.94L103.60 3.94Q103.04 3.94 102.52 4.02Q102 4.10 101.68 4.21L101.68 4.21L101.41 2.62Q101.78 2.50 102.45 2.39Q103.12 2.29 103.84 2.29ZM113.50 6.30L113.50 6.30Q113.50 5.30 113.10 4.65Q112.70 4 111.89 4L111.89 4Q111.66 4 111.41 4.02Q111.15 4.05 110.98 4.06L110.98 4.06L110.98 8.19Q111.17 8.32 111.49 8.40Q111.81 8.48 112.13 8.48L112.13 8.48Q112.83 8.48 113.17 7.91Q113.50 7.34 113.50 6.30ZM115.50 6.24L115.50 6.24Q115.50 7.10 115.31 7.83Q115.12 8.56 114.75 9.08Q114.38 9.60 113.82 9.89Q113.26 10.18 112.53 10.18L112.53 10.18Q111.78 10.18 110.98 9.81L110.98 9.81L110.98 12.64L109.01 12.64L109.01 2.72Q109.55 2.54 110.34 2.43Q111.14 2.32 111.90 2.32L111.90 2.32Q113.65 2.32 114.58 3.38Q115.50 4.43 115.50 6.24ZM126.83 1.74L126.83 8.40Q126.91 8.42 127.01 8.42Q127.10 8.42 127.18 8.42L127.18 8.42Q127.86 8.42 128.31 8.16Q128.77 7.90 129.05 7.46Q129.33 7.01 129.45 6.39Q129.57 5.78 129.57 5.04L129.57 5.04Q129.57 4.40 129.47 3.79Q129.38 3.18 129.14 2.72Q128.90 2.26 128.48 1.98Q128.06 1.70 127.41 1.70L127.41 1.70Q127.28 1.70 127.12 1.70Q126.96 1.71 126.83 1.74L126.83 1.74ZM131.57 5.04L131.57 5.04Q131.57 6.42 131.22 7.38Q130.88 8.35 130.27 8.96Q129.66 9.57 128.82 9.85Q127.98 10.13 126.98 10.13L126.98 10.13Q126.45 10.13 125.94 10.07Q125.44 10.02 124.86 9.89L124.86 9.89L124.86 0.22Q125.54 0.08 126.13 0.03Q126.72-0.02 127.23-0.02L127.23-0.02Q128.21-0.02 129.02 0.27Q129.82 0.56 130.38 1.18Q130.94 1.79 131.26 2.74Q131.57 3.70 131.57 5.04ZM136.54 0.32L136.54 0.32Q136.54 0.90 136.18 1.23Q135.81 1.57 135.30 1.57L135.30 1.57Q134.78 1.57 134.42 1.23Q134.06 0.90 134.06 0.32L134.06 0.32Q134.06-0.27 134.42-0.61Q134.78-0.94 135.30-0.94L135.30-0.94Q135.81-0.94 136.18-0.61Q136.54-0.27 136.54 0.32ZM139.22 8.10L139.47 9.68Q138.86 9.97 138.33 10.07Q137.79 10.18 137.34 10.18L137.34 10.18Q136.58 10.18 136.06 9.95Q135.54 9.73 135.22 9.30Q134.91 8.88 134.78 8.27Q134.66 7.66 134.66 6.88L134.66 6.88L134.66 4.11L132.58 4.11L132.58 2.48L136.62 2.48L136.62 7.14Q136.62 7.81 136.87 8.14Q137.12 8.46 137.70 8.46L137.70 8.46Q137.97 8.46 138.35 8.39Q138.74 8.32 139.22 8.10L139.22 8.10ZM143.65 8.51L143.65 8.51Q144.37 8.51 144.75 8.41Q145.14 8.30 145.14 7.98L145.14 7.98Q145.14 7.78 145.02 7.63Q144.90 7.49 144.68 7.38Q144.46 7.28 144.18 7.18Q143.90 7.09 143.60 6.99L143.60 6.99Q143.17 6.86 142.72 6.70Q142.27 6.53 141.90 6.27Q141.54 6.02 141.30 5.62Q141.06 5.23 141.06 4.64L141.06 4.64Q141.06 4.16 141.24 3.74Q141.42 3.31 141.82 2.98Q142.21 2.66 142.82 2.47Q143.42 2.29 144.27 2.29L144.27 2.29Q145.01 2.29 145.64 2.40Q146.27 2.51 146.74 2.72L146.74 2.72L146.43 4.38Q146.16 4.30 145.58 4.12Q145.01 3.94 144.29 3.94L144.29 3.94Q143.54 3.94 143.27 4.12Q143.01 4.30 143.01 4.51L143.01 4.51Q143.01 4.69 143.13 4.82Q143.25 4.96 143.45 5.07Q143.65 5.18 143.91 5.29Q144.18 5.39 144.48 5.49L144.48 5.49Q144.91 5.63 145.38 5.81Q145.84 5.98 146.22 6.25Q146.59 6.51 146.83 6.92Q147.07 7.33 147.07 7.92L147.07 7.92Q147.07 8.38 146.90 8.80Q146.72 9.22 146.31 9.52Q145.90 9.82 145.25 10Q144.59 10.18 143.63 10.18L143.63 10.18Q142.66 10.18 141.97 9.95Q141.28 9.73 140.86 9.55L140.86 9.55L141.17 7.90Q141.73 8.13 142.36 8.32Q142.99 8.51 143.65 8.51ZM150.29 7.20L150.29 4.11L148.58 4.11L148.58 2.48L150.29 2.48L150.29 0.59L152.26 0.27L152.26 2.48L155.41 2.48L155.41 4.11L152.26 4.11L152.26 7.15Q152.26 7.57 152.34 7.82Q152.42 8.08 152.56 8.22Q152.70 8.37 152.91 8.42Q153.12 8.46 153.38 8.46L153.38 8.46Q153.65 8.46 153.88 8.45Q154.11 8.43 154.33 8.39Q154.54 8.35 154.78 8.27Q155.01 8.19 155.28 8.06L155.28 8.06L155.55 9.76Q155.01 9.98 154.38 10.08Q153.74 10.18 153.15 10.18L153.15 10.18Q152.46 10.18 151.94 10.06Q151.41 9.95 151.04 9.63Q150.67 9.31 150.48 8.73Q150.29 8.14 150.29 7.20L150.29 7.20ZM163.34 2.66L162.99 4.48Q162.80 4.43 162.54 4.38Q162.27 4.34 162 4.30Q161.73 4.26 161.47 4.24Q161.22 4.22 161.04 4.22L161.04 4.22Q160.62 4.22 160.22 4.26Q159.82 4.30 159.41 4.42L159.41 4.42L159.41 10L157.42 10L157.42 2.98Q158.21 2.69 159.03 2.51Q159.86 2.34 160.96 2.34L160.96 2.34Q161.12 2.34 161.42 2.35Q161.71 2.37 162.05 2.41Q162.38 2.45 162.73 2.50Q163.07 2.56 163.34 2.66L163.34 2.66ZM168.54 0.32L168.54 0.32Q168.54 0.90 168.18 1.23Q167.81 1.57 167.30 1.57L167.30 1.57Q166.78 1.57 166.42 1.23Q166.06 0.90 166.06 0.32L166.06 0.32Q166.06-0.27 166.42-0.61Q166.78-0.94 167.30-0.94L167.30-0.94Q167.81-0.94 168.18-0.61Q168.54-0.27 168.54 0.32ZM171.22 8.10L171.47 9.68Q170.86 9.97 170.33 10.07Q169.79 10.18 169.34 10.18L169.34 10.18Q168.58 10.18 168.06 9.95Q167.54 9.73 167.22 9.30Q166.91 8.88 166.78 8.27Q166.66 7.66 166.66 6.88L166.66 6.88L166.66 4.11L164.58 4.11L164.58 2.48L168.62 2.48L168.62 7.14Q168.62 7.81 168.87 8.14Q169.12 8.46 169.70 8.46L169.70 8.46Q169.97 8.46 170.35 8.39Q170.74 8.32 171.22 8.10L171.22 8.10ZM177.52 6.19L177.52 6.19Q177.52 5.14 177.18 4.58Q176.83 4.02 176.13 4.02L176.13 4.02Q175.81 4.02 175.50 4.10Q175.18 4.19 174.96 4.32L174.96 4.32L174.96 8.40Q175.18 8.45 175.43 8.46Q175.68 8.48 175.86 8.48L175.86 8.48Q176.62 8.48 177.07 7.96Q177.52 7.44 177.52 6.19ZM179.52 6.24L179.52 6.24Q179.52 7.14 179.28 7.86Q179.04 8.59 178.58 9.10Q178.11 9.62 177.44 9.90Q176.77 10.18 175.90 10.18L175.90 10.18Q175.14 10.18 174.34 10.06Q173.54 9.95 172.99 9.78L172.99 9.78L172.99-0.77L174.96-1.10L174.96 2.66Q175.38 2.46 175.76 2.39Q176.14 2.32 176.53 2.32L176.53 2.32Q177.26 2.32 177.82 2.60Q178.38 2.88 178.76 3.40Q179.14 3.92 179.33 4.64Q179.52 5.36 179.52 6.24ZM187.01 2.48L187.01 9.74Q186.46 9.89 185.69 10.03Q184.91 10.18 184 10.18L184 10.18Q183.07 10.18 182.48 9.92Q181.89 9.66 181.54 9.19Q181.20 8.72 181.07 8.08Q180.94 7.44 180.94 6.67L180.94 6.67L180.94 2.48L182.91 2.48L182.91 6.42Q182.91 7.46 183.16 7.96Q183.41 8.46 184.13 8.46L184.13 8.46Q184.58 8.46 185.02 8.38L185.02 8.38L185.02 2.48L187.01 2.48ZM190.29 7.20L190.29 4.11L188.58 4.11L188.58 2.48L190.29 2.48L190.29 0.59L192.26 0.27L192.26 2.48L195.41 2.48L195.41 4.11L192.26 4.11L192.26 7.15Q192.26 7.57 192.34 7.82Q192.42 8.08 192.56 8.22Q192.70 8.37 192.91 8.42Q193.12 8.46 193.38 8.46L193.38 8.46Q193.65 8.46 193.88 8.45Q194.11 8.43 194.33 8.39Q194.54 8.35 194.78 8.27Q195.01 8.19 195.28 8.06L195.28 8.06L195.55 9.76Q195.01 9.98 194.38 10.08Q193.74 10.18 193.15 10.18L193.15 10.18Q192.46 10.18 191.94 10.06Q191.41 9.95 191.04 9.63Q190.67 9.31 190.48 8.73Q190.29 8.14 190.29 7.20L190.29 7.20ZM200.54 0.32L200.54 0.32Q200.54 0.90 200.18 1.23Q199.81 1.57 199.30 1.57L199.30 1.57Q198.78 1.57 198.42 1.23Q198.06 0.90 198.06 0.32L198.06 0.32Q198.06-0.27 198.42-0.61Q198.78-0.94 199.30-0.94L199.30-0.94Q199.81-0.94 200.18-0.61Q200.54-0.27 200.54 0.32ZM203.22 8.10L203.47 9.68Q202.86 9.97 202.33 10.07Q201.79 10.18 201.34 10.18L201.34 10.18Q200.58 10.18 200.06 9.95Q199.54 9.73 199.22 9.30Q198.91 8.88 198.78 8.27Q198.66 7.66 198.66 6.88L198.66 6.88L198.66 4.11L196.58 4.11L196.58 2.48L200.62 2.48L200.62 7.14Q200.62 7.81 200.87 8.14Q201.12 8.46 201.70 8.46L201.70 8.46Q201.97 8.46 202.35 8.39Q202.74 8.32 203.22 8.10L203.22 8.10ZM211.55 6.22L211.55 6.22Q211.55 7.12 211.30 7.85Q211.04 8.58 210.58 9.10Q210.11 9.63 209.46 9.92Q208.82 10.21 208.02 10.21L208.02 10.21Q207.22 10.21 206.57 9.92Q205.92 9.63 205.45 9.10Q204.98 8.58 204.72 7.85Q204.46 7.12 204.46 6.22L204.46 6.22Q204.46 5.34 204.73 4.62Q204.99 3.89 205.46 3.37Q205.94 2.85 206.59 2.57Q207.25 2.29 208.02 2.29L208.02 2.29Q208.80 2.29 209.45 2.57Q210.10 2.85 210.57 3.37Q211.04 3.89 211.30 4.62Q211.55 5.34 211.55 6.22ZM206.46 6.24L206.46 6.24Q206.46 7.25 206.82 7.87Q207.18 8.50 207.98 8.50L207.98 8.50Q208.75 8.50 209.14 7.87Q209.54 7.25 209.54 6.24L209.54 6.24Q209.54 5.23 209.18 4.62Q208.82 4 208.02 4L208.02 4Q207.25 4 206.86 4.62Q206.46 5.23 206.46 6.24ZM213.01 10L213.01 2.72Q213.54 2.58 214.31 2.45Q215.09 2.32 216 2.32L216 2.32Q216.90 2.32 217.49 2.57Q218.08 2.82 218.42 3.27Q218.77 3.73 218.91 4.36Q219.06 4.99 219.06 5.76L219.06 5.76L219.06 10L217.09 10L217.09 6.02Q217.09 4.96 216.85 4.50Q216.61 4.03 215.87 4.03L215.87 4.03Q215.65 4.03 215.43 4.05Q215.22 4.06 214.98 4.10L214.98 4.10L214.98 10L213.01 10ZM230.98 10L229.01 10L229.01 0.10L235.07 0.10L235.07 1.73L230.98 1.73L230.98 4.13L234.56 4.13L234.56 5.76L230.98 5.76L230.98 10ZM243.55 6.22L243.55 6.22Q243.55 7.12 243.30 7.85Q243.04 8.58 242.58 9.10Q242.11 9.63 241.46 9.92Q240.82 10.21 240.02 10.21L240.02 10.21Q239.22 10.21 238.57 9.92Q237.92 9.63 237.45 9.10Q236.98 8.58 236.72 7.85Q236.46 7.12 236.46 6.22L236.46 6.22Q236.46 5.34 236.73 4.62Q236.99 3.89 237.46 3.37Q237.94 2.85 238.59 2.57Q239.25 2.29 240.02 2.29L240.02 2.29Q240.80 2.29 241.45 2.57Q242.10 2.85 242.57 3.37Q243.04 3.89 243.30 4.62Q243.55 5.34 243.55 6.22ZM238.46 6.24L238.46 6.24Q238.46 7.25 238.82 7.87Q239.18 8.50 239.98 8.50L239.98 8.50Q240.75 8.50 241.14 7.87Q241.54 7.25 241.54 6.24L241.54 6.24Q241.54 5.23 241.18 4.62Q240.82 4 240.02 4L240.02 4Q239.25 4 238.86 4.62Q238.46 5.23 238.46 6.24ZM251.34 2.66L250.99 4.48Q250.80 4.43 250.54 4.38Q250.27 4.34 250 4.30Q249.73 4.26 249.47 4.24Q249.22 4.22 249.04 4.22L249.04 4.22Q248.62 4.22 248.22 4.26Q247.82 4.30 247.41 4.42L247.41 4.42L247.41 10L245.42 10L245.42 2.98Q246.21 2.69 247.03 2.51Q247.86 2.34 248.96 2.34L248.96 2.34Q249.12 2.34 249.42 2.35Q249.71 2.37 250.05 2.41Q250.38 2.45 250.73 2.50Q251.07 2.56 251.34 2.66L251.34 2.66ZM257.49 2.40L257.49 2.40Q258.11 2.40 258.51 2.59Q258.91 2.78 259.14 3.17Q259.38 3.55 259.46 4.14Q259.54 4.72 259.54 5.50L259.54 5.50L259.54 10L257.94 10L257.94 5.41Q257.94 4.96 257.88 4.69Q257.82 4.42 257.74 4.27Q257.65 4.13 257.53 4.08Q257.41 4.03 257.28 4.03L257.28 4.03Q257.14 4.03 256.98 4.06Q256.82 4.08 256.69 4.14L256.69 4.14Q256.74 4.45 256.77 4.82Q256.80 5.18 256.80 5.63L256.80 5.63L256.80 7.14L255.20 7.14L255.20 5.41Q255.20 4.64 255.05 4.34Q254.90 4.03 254.56 4.03L254.56 4.03Q254.46 4.03 254.33 4.05Q254.19 4.06 254.06 4.10L254.06 4.10L254.06 10L252.46 10L252.46 2.77Q253.09 2.59 253.70 2.50Q254.30 2.40 254.77 2.40L254.77 2.40Q255.18 2.40 255.51 2.50Q255.84 2.61 256.08 2.85L256.08 2.85Q256.35 2.67 256.72 2.54Q257.09 2.40 257.49 2.40ZM264.02 8.59L264.02 8.59Q264.34 8.59 264.64 8.58Q264.94 8.58 265.17 8.54L265.17 8.54L265.17 6.82Q264.98 6.78 264.70 6.76Q264.43 6.74 264.21 6.74L264.21 6.74Q263.90 6.74 263.62 6.78Q263.33 6.82 263.11 6.91Q262.90 7.01 262.77 7.18Q262.64 7.36 262.64 7.65L262.64 7.65Q262.64 8.16 263.02 8.38Q263.41 8.59 264.02 8.59ZM263.84 2.29L263.84 2.29Q264.77 2.29 265.38 2.50Q266 2.72 266.37 3.11Q266.74 3.50 266.90 4.07Q267.06 4.64 267.06 5.34L267.06 5.34L267.06 9.82Q266.62 9.92 265.78 10.05Q264.93 10.18 263.87 10.18L263.87 10.18Q263.15 10.18 262.57 10.05Q261.98 9.92 261.57 9.62Q261.15 9.33 260.93 8.86Q260.70 8.38 260.70 7.70L260.70 7.70Q260.70 7.04 260.96 6.59Q261.22 6.14 261.65 5.87Q262.08 5.60 262.64 5.48Q263.20 5.36 263.81 5.36L263.81 5.36Q264.58 5.36 265.17 5.49L265.17 5.49L265.17 5.25Q265.17 4.69 264.82 4.31Q264.46 3.94 263.60 3.94L263.60 3.94Q263.04 3.94 262.52 4.02Q262 4.10 261.68 4.21L261.68 4.21L261.41 2.62Q261.78 2.50 262.45 2.39Q263.12 2.29 263.84 2.29ZM270.29 7.20L270.29 4.11L268.58 4.11L268.58 2.48L270.29 2.48L270.29 0.59L272.26 0.27L272.26 2.48L275.41 2.48L275.41 4.11L272.26 4.11L272.26 7.15Q272.26 7.57 272.34 7.82Q272.42 8.08 272.56 8.22Q272.70 8.37 272.91 8.42Q273.12 8.46 273.38 8.46L273.38 8.46Q273.65 8.46 273.88 8.45Q274.11 8.43 274.33 8.39Q274.54 8.35 274.78 8.27Q275.01 8.19 275.28 8.06L275.28 8.06L275.55 9.76Q275.01 9.98 274.38 10.08Q273.74 10.18 273.15 10.18L273.15 10.18Q272.46 10.18 271.94 10.06Q271.41 9.95 271.04 9.63Q270.67 9.31 270.48 8.73Q270.29 8.14 270.29 7.20L270.29 7.20Z"/>
    </g>
</svg>