<?xml version="1.0" encoding="UTF-8"?>
<svg height="34" width="78.3" version="1.1" xmlns="http://www.w3.org/2000/svg"><!--Created by Josélio de S. C. Júnior - 2021 - https://github.com/joseliojunior -->
    <rect
        height="32"
        width="76.3"
        rx="16"
        ry="16"
        x="1" y="1"
        fill="#77aa99"
        stroke="#35554a"
        stroke-width="1" />
    <g transform="translate(0, 12)">
        <path fill="#35554a" stroke="none" d="M23.65 4.56L23.65 4.56Q23.65 5.64 23.73 6.59Q23.82 7.54 24.07 8.23Q24.32 8.93 24.78 9.34Q25.23 9.74 26 9.74L26 9.74Q26.74 9.74 27.21 9.34Q27.68 8.93 27.93 8.22Q28.18 7.51 28.27 6.58Q28.35 5.64 28.35 4.56L28.35 4.56Q28.35 3.48 28.27 2.53Q28.18 1.58 27.93 0.89Q27.68 0.19 27.22-0.22Q26.77-0.62 26-0.62L26-0.62Q25.23-0.62 24.78-0.22Q24.32 0.19 24.07 0.90Q23.82 1.61 23.73 2.54Q23.65 3.48 23.65 4.56ZM20.65 4.56L20.65 4.56Q20.65 0.72 22.06-1.24Q23.48-3.19 26-3.19L26-3.19Q28.62-3.19 29.98-1.24Q31.35 0.72 31.35 4.56L31.35 4.56Q31.35 8.40 29.96 10.36Q28.57 12.31 26.02 12.31L26.02 12.31Q23.41 12.31 22.03 10.36Q20.65 8.40 20.65 4.56ZM43.02 0.98L42.49 3.72Q42.20 3.65 41.80 3.58Q41.41 3.50 41 3.44Q40.59 3.38 40.21 3.36Q39.82 3.34 39.56 3.34L39.56 3.34Q38.94 3.34 38.34 3.40Q37.74 3.46 37.11 3.62L37.11 3.62L37.11 12L34.14 12L34.14 1.46Q35.31 1.03 36.55 0.77Q37.78 0.50 39.44 0.50L39.44 0.50Q39.68 0.50 40.12 0.53Q40.57 0.55 41.07 0.61Q41.58 0.67 42.09 0.76Q42.61 0.84 43.02 0.98L43.02 0.98ZM47.79 6L47.79 6Q47.79 7.39 48.30 8.12Q48.80 8.86 49.88 8.86L49.88 8.86Q50.36 8.86 50.78 8.74Q51.20 8.62 51.54 8.42L51.54 8.42L51.54 3Q51.20 2.93 50.94 2.90Q50.67 2.88 50.38 2.88L50.38 2.88Q47.79 2.88 47.79 6ZM54.51 1.08L54.51 10.63Q54.51 13.39 53.18 14.71Q51.85 16.03 48.90 16.03L48.90 16.03Q47.84 16.03 46.87 15.82Q45.90 15.60 45.01 15.31L45.01 15.31L45.56 12.82Q46.26 13.08 47.02 13.31Q47.79 13.54 48.94 13.54L48.94 13.54Q49.71 13.54 50.22 13.36Q50.72 13.18 51.01 12.86Q51.30 12.55 51.42 12.13Q51.54 11.71 51.54 11.23L51.54 11.23L51.54 10.78Q50.91 11.02 50.40 11.14Q49.88 11.26 49.28 11.26L49.28 11.26Q47.07 11.26 45.93 9.86Q44.79 8.47 44.79 6L44.79 6Q44.79 3.22 46.33 1.85Q47.86 0.48 50.50 0.48L50.50 0.48Q52.35 0.48 54.51 1.08L54.51 1.08Z"/>
    </g>
</svg>