<?xml version="1.0" encoding="UTF-8"?>
<svg height="26" width="66.3" version="1.1" xmlns="http://www.w3.org/2000/svg"><!--Created by Josélio de S. C. Júnior - 2021 - https://github.com/joseliojunior -->
    <rect
        height="24"
        width="64.3"
        rx="1"
        ry="1"
        x="1" y="1"
        fill="#77aa99"
        stroke="#35554a"
        stroke-width="1" />
    <g transform="translate(0, 8)">
        <path fill="#35554a" d="M22.43 5.04L22.43 5.04Q22.43 5.76 22.49 6.39Q22.54 7.02 22.71 7.49Q22.88 7.95 23.18 8.22Q23.49 8.50 24 8.50L24 8.50Q24.50 8.50 24.81 8.22Q25.12 7.95 25.29 7.48Q25.46 7.01 25.51 6.38Q25.57 5.76 25.57 5.04L25.57 5.04Q25.57 4.32 25.51 3.69Q25.46 3.06 25.29 2.59Q25.12 2.13 24.82 1.86Q24.51 1.58 24 1.58L24 1.58Q23.49 1.58 23.18 1.86Q22.88 2.13 22.71 2.60Q22.54 3.07 22.49 3.70Q22.43 4.32 22.43 5.04ZM20.43 5.04L20.43 5.04Q20.43 2.48 21.38 1.18Q22.32-0.13 24-0.13L24-0.13Q25.74-0.13 26.66 1.18Q27.57 2.48 27.57 5.04L27.57 5.04Q27.57 7.60 26.64 8.90Q25.71 10.21 24.02 10.21L24.02 10.21Q22.27 10.21 21.35 8.90Q20.43 7.60 20.43 5.04ZM35.34 2.66L34.99 4.48Q34.80 4.43 34.54 4.38Q34.27 4.34 34 4.30Q33.73 4.26 33.47 4.24Q33.22 4.22 33.04 4.22L33.04 4.22Q32.62 4.22 32.22 4.26Q31.82 4.30 31.41 4.42L31.41 4.42L31.41 10L29.42 10L29.42 2.98Q30.21 2.69 31.03 2.51Q31.86 2.34 32.96 2.34L32.96 2.34Q33.12 2.34 33.42 2.35Q33.71 2.37 34.05 2.41Q34.38 2.45 34.73 2.50Q35.07 2.56 35.34 2.66L35.34 2.66ZM38.53 6L38.53 6Q38.53 6.93 38.86 7.42Q39.20 7.90 39.92 7.90L39.92 7.90Q40.24 7.90 40.52 7.82Q40.80 7.74 41.02 7.62L41.02 7.62L41.02 4Q40.80 3.95 40.62 3.94Q40.45 3.92 40.26 3.92L40.26 3.92Q38.53 3.92 38.53 6ZM43.01 2.72L43.01 9.09Q43.01 10.93 42.12 11.81Q41.23 12.69 39.26 12.69L39.26 12.69Q38.56 12.69 37.91 12.54Q37.26 12.40 36.67 12.21L36.67 12.21L37.04 10.54Q37.50 10.72 38.02 10.87Q38.53 11.02 39.30 11.02L39.30 11.02Q39.81 11.02 40.14 10.90Q40.48 10.78 40.67 10.58Q40.86 10.37 40.94 10.09Q41.02 9.81 41.02 9.49L41.02 9.49L41.02 9.18Q40.61 9.34 40.26 9.42Q39.92 9.50 39.52 9.50L39.52 9.50Q38.05 9.50 37.29 8.58Q36.53 7.65 36.53 6L36.53 6Q36.53 4.14 37.55 3.23Q38.58 2.32 40.34 2.32L40.34 2.32Q41.57 2.32 43.01 2.72L43.01 2.72Z"/>
    </g>
</svg>