<?xml version="1.0" encoding="UTF-8"?><svg height="26" width="155.4" version="1.1" xmlns="http://www.w3.org/2000/svg"><!--Created by Josélio de S. C. Júnior - 2021 - https://github.com/joseliojunior --><rect height="24" width="153.4" rx="12" ry="12" x="1" y="1" fill="#F44D27" stroke="#791b06" stroke-width="1" /><g transform="translate(0, 8)"><path fill="#791b06" d="M24.99 1.58L24.99 1.58Q24.29 1.58 23.81 1.84Q23.33 2.10 23.02 2.55Q22.70 3.01 22.57 3.64Q22.43 4.27 22.43 5.04L22.43 5.04Q22.43 6.82 22.99 7.66Q23.55 8.50 24.64 8.50L24.64 8.50Q24.82 8.50 25.02 8.48Q25.23 8.46 25.41 8.43L25.41 8.43L25.41 4.82L27.38 4.82L27.38 9.76Q27.02 9.89 26.28 10.05Q25.54 10.21 24.48 10.21L24.48 10.21Q23.55 10.21 22.81 9.88Q22.06 9.55 21.54 8.90Q21.01 8.26 20.72 7.29Q20.43 6.32 20.43 5.04L20.43 5.04Q20.43 3.78 20.77 2.81Q21.10 1.84 21.68 1.18Q22.26 0.53 23.04 0.20Q23.82-0.13 24.72-0.13L24.72-0.13Q25.30-0.13 25.75-0.04Q26.21 0.05 26.54 0.16Q26.88 0.27 27.10 0.40Q27.31 0.53 27.42 0.59L27.42 0.59L26.91 2.16Q26.56 1.94 26.05 1.76Q25.54 1.58 24.99 1.58ZM32.54 0.32L32.54 0.32Q32.54 0.90 32.18 1.23Q31.81 1.57 31.30 1.57L31.30 1.57Q30.78 1.57 30.42 1.23Q30.06 0.90 30.06 0.32L30.06 0.32Q30.06-0.27 30.42-0.61Q30.78-0.94 31.30-0.94L31.30-0.94Q31.81-0.94 32.18-0.61Q32.54-0.27 32.54 0.32ZM35.22 8.10L35.47 9.68Q34.86 9.97 34.33 10.07Q33.79 10.18 33.34 10.18L33.34 10.18Q32.58 10.18 32.06 9.95Q31.54 9.73 31.22 9.30Q30.91 8.88 30.78 8.27Q30.66 7.66 30.66 6.88L30.66 6.88L30.66 4.11L28.58 4.11L28.58 2.48L32.62 2.48L32.62 7.14Q32.62 7.81 32.87 8.14Q33.12 8.46 33.70 8.46L33.70 8.46Q33.97 8.46 34.35 8.39Q34.74 8.32 35.22 8.10L35.22 8.10ZM38.29 7.20L38.29 4.11L36.58 4.11L36.58 2.48L38.29 2.48L38.29 0.59L40.26 0.27L40.26 2.48L43.41 2.48L43.41 4.11L40.26 4.11L40.26 7.15Q40.26 7.57 40.34 7.82Q40.42 8.08 40.56 8.22Q40.70 8.37 40.91 8.42Q41.12 8.46 41.38 8.46L41.38 8.46Q41.65 8.46 41.88 8.45Q42.11 8.43 42.33 8.39Q42.54 8.35 42.78 8.27Q43.01 8.19 43.28 8.06L43.28 8.06L43.55 9.76Q43.01 9.98 42.38 10.08Q41.74 10.18 41.15 10.18L41.15 10.18Q40.46 10.18 39.94 10.06Q39.41 9.95 39.04 9.63Q38.67 9.31 38.48 8.73Q38.29 8.14 38.29 7.20L38.29 7.20ZM59.86 10L57.74 10L57.28 7.71L54.64 7.71L54.19 10L52.14 10Q52.85 7.07 53.57 4.66Q54.29 2.26 54.96 0.10L54.96 0.10L57.10 0.10Q57.81 2.27 58.50 4.71Q59.20 7.15 59.86 10L59.86 10ZM55.98 2.02L55.98 2.02Q55.82 2.58 55.69 3.08Q55.55 3.58 55.43 4.07Q55.31 4.56 55.21 5.06Q55.10 5.55 55.01 6.08L55.01 6.08L56.94 6.08Q56.85 5.55 56.75 5.06Q56.66 4.56 56.54 4.07Q56.42 3.58 56.28 3.08Q56.14 2.58 55.98 2.02ZM62.29 7.20L62.29 4.11L60.58 4.11L60.58 2.48L62.29 2.48L62.29 0.59L64.26 0.27L64.26 2.48L67.41 2.48L67.41 4.11L64.26 4.11L64.26 7.15Q64.26 7.57 64.34 7.82Q64.42 8.08 64.56 8.22Q64.70 8.37 64.91 8.42Q65.12 8.46 65.38 8.46L65.38 8.46Q65.65 8.46 65.88 8.45Q66.11 8.43 66.33 8.39Q66.54 8.35 66.78 8.27Q67.01 8.19 67.28 8.06L67.28 8.06L67.55 9.76Q67.01 9.98 66.38 10.08Q65.74 10.18 65.15 10.18L65.15 10.18Q64.46 10.18 63.94 10.06Q63.41 9.95 63.04 9.63Q62.67 9.31 62.48 8.73Q62.29 8.14 62.29 7.20L62.29 7.20ZM70.29 7.20L70.29 4.11L68.58 4.11L68.58 2.48L70.29 2.48L70.29 0.59L72.26 0.27L72.26 2.48L75.41 2.48L75.41 4.11L72.26 4.11L72.26 7.15Q72.26 7.57 72.34 7.82Q72.42 8.08 72.56 8.22Q72.70 8.37 72.91 8.42Q73.12 8.46 73.38 8.46L73.38 8.46Q73.65 8.46 73.88 8.45Q74.11 8.43 74.33 8.39Q74.54 8.35 74.78 8.27Q75.01 8.19 75.28 8.06L75.28 8.06L75.55 9.76Q75.01 9.98 74.38 10.08Q73.74 10.18 73.15 10.18L73.15 10.18Q72.46 10.18 71.94 10.06Q71.41 9.95 71.04 9.63Q70.67 9.31 70.48 8.73Q70.29 8.14 70.29 7.20L70.29 7.20ZM83.34 2.66L82.99 4.48Q82.80 4.43 82.54 4.38Q82.27 4.34 82 4.30Q81.73 4.26 81.47 4.24Q81.22 4.22 81.04 4.22L81.04 4.22Q80.62 4.22 80.22 4.26Q79.82 4.30 79.41 4.42L79.41 4.42L79.41 10L77.42 10L77.42 2.98Q78.21 2.69 79.03 2.51Q79.86 2.34 80.96 2.34L80.96 2.34Q81.12 2.34 81.42 2.35Q81.71 2.37 82.05 2.41Q82.38 2.45 82.73 2.50Q83.07 2.56 83.34 2.66L83.34 2.66ZM88.54 0.32L88.54 0.32Q88.54 0.90 88.18 1.23Q87.81 1.57 87.30 1.57L87.30 1.57Q86.78 1.57 86.42 1.23Q86.06 0.90 86.06 0.32L86.06 0.32Q86.06-0.27 86.42-0.61Q86.78-0.94 87.30-0.94L87.30-0.94Q87.81-0.94 88.18-0.61Q88.54-0.27 88.54 0.32ZM91.22 8.10L91.47 9.68Q90.86 9.97 90.33 10.07Q89.79 10.18 89.34 10.18L89.34 10.18Q88.58 10.18 88.06 9.95Q87.54 9.73 87.22 9.30Q86.91 8.88 86.78 8.27Q86.66 7.66 86.66 6.88L86.66 6.88L86.66 4.11L84.58 4.11L84.58 2.48L88.62 2.48L88.62 7.14Q88.62 7.81 88.87 8.14Q89.12 8.46 89.70 8.46L89.70 8.46Q89.97 8.46 90.35 8.39Q90.74 8.32 91.22 8.10L91.22 8.10ZM97.52 6.19L97.52 6.19Q97.52 5.14 97.18 4.58Q96.83 4.02 96.13 4.02L96.13 4.02Q95.81 4.02 95.50 4.10Q95.18 4.19 94.96 4.32L94.96 4.32L94.96 8.40Q95.18 8.45 95.43 8.46Q95.68 8.48 95.86 8.48L95.86 8.48Q96.62 8.48 97.07 7.96Q97.52 7.44 97.52 6.19ZM99.52 6.24L99.52 6.24Q99.52 7.14 99.28 7.86Q99.04 8.59 98.58 9.10Q98.11 9.62 97.44 9.90Q96.77 10.18 95.90 10.18L95.90 10.18Q95.14 10.18 94.34 10.06Q93.54 9.95 92.99 9.78L92.99 9.78L92.99-0.77L94.96-1.10L94.96 2.66Q95.38 2.46 95.76 2.39Q96.14 2.32 96.53 2.32L96.53 2.32Q97.26 2.32 97.82 2.60Q98.38 2.88 98.76 3.40Q99.14 3.92 99.33 4.64Q99.52 5.36 99.52 6.24ZM107.01 2.48L107.01 9.74Q106.46 9.89 105.69 10.03Q104.91 10.18 104 10.18L104 10.18Q103.07 10.18 102.48 9.92Q101.89 9.66 101.54 9.19Q101.20 8.72 101.07 8.08Q100.94 7.44 100.94 6.67L100.94 6.67L100.94 2.48L102.91 2.48L102.91 6.42Q102.91 7.46 103.16 7.96Q103.41 8.46 104.13 8.46L104.13 8.46Q104.58 8.46 105.02 8.38L105.02 8.38L105.02 2.48L107.01 2.48ZM110.29 7.20L110.29 4.11L108.58 4.11L108.58 2.48L110.29 2.48L110.29 0.59L112.26 0.27L112.26 2.48L115.41 2.48L115.41 4.11L112.26 4.11L112.26 7.15Q112.26 7.57 112.34 7.82Q112.42 8.08 112.56 8.22Q112.70 8.37 112.91 8.42Q113.12 8.46 113.38 8.46L113.38 8.46Q113.65 8.46 113.88 8.45Q114.11 8.43 114.33 8.39Q114.54 8.35 114.78 8.27Q115.01 8.19 115.28 8.06L115.28 8.06L115.55 9.76Q115.01 9.98 114.38 10.08Q113.74 10.18 113.15 10.18L113.15 10.18Q112.46 10.18 111.94 10.06Q111.41 9.95 111.04 9.63Q110.67 9.31 110.48 8.73Q110.29 8.14 110.29 7.20L110.29 7.20ZM116.50 6.30L116.50 6.30Q116.50 5.31 116.80 4.56Q117.10 3.81 117.60 3.30Q118.10 2.80 118.74 2.54Q119.38 2.29 120.05 2.29L120.05 2.29Q121.71 2.29 122.58 3.27Q123.44 4.26 123.44 6.14L123.44 6.14Q123.44 6.34 123.43 6.54Q123.42 6.75 123.41 6.88L123.41 6.88L118.53 6.88Q118.53 7.62 119.14 8.04Q119.74 8.46 120.70 8.46L120.70 8.46Q121.30 8.46 121.83 8.34Q122.37 8.21 122.74 8.08L122.74 8.08L123.01 9.76Q122.50 9.94 121.92 10.06Q121.34 10.18 120.62 10.18L120.62 10.18Q119.66 10.18 118.90 9.93Q118.14 9.68 117.61 9.19Q117.07 8.70 116.78 7.98Q116.50 7.26 116.50 6.30ZM118.53 5.52L121.54 5.52Q121.54 5.22 121.46 4.94Q121.38 4.66 121.20 4.43Q121.02 4.21 120.75 4.07Q120.48 3.94 120.08 3.94L120.08 3.94Q119.70 3.94 119.42 4.06Q119.14 4.19 118.95 4.42Q118.77 4.64 118.66 4.93Q118.56 5.22 118.53 5.52L118.53 5.52ZM127.65 8.51L127.65 8.51Q128.37 8.51 128.75 8.41Q129.14 8.30 129.14 7.98L129.14 7.98Q129.14 7.78 129.02 7.63Q128.90 7.49 128.68 7.38Q128.46 7.28 128.18 7.18Q127.90 7.09 127.60 6.99L127.60 6.99Q127.17 6.86 126.72 6.70Q126.27 6.53 125.90 6.27Q125.54 6.02 125.30 5.62Q125.06 5.23 125.06 4.64L125.06 4.64Q125.06 4.16 125.24 3.74Q125.42 3.31 125.82 2.98Q126.21 2.66 126.82 2.47Q127.42 2.29 128.27 2.29L128.27 2.29Q129.01 2.29 129.64 2.40Q130.27 2.51 130.74 2.72L130.74 2.72L130.43 4.38Q130.16 4.30 129.58 4.12Q129.01 3.94 128.29 3.94L128.29 3.94Q127.54 3.94 127.27 4.12Q127.01 4.30 127.01 4.51L127.01 4.51Q127.01 4.69 127.13 4.82Q127.25 4.96 127.45 5.07Q127.65 5.18 127.91 5.29Q128.18 5.39 128.48 5.49L128.48 5.49Q128.91 5.63 129.38 5.81Q129.84 5.98 130.22 6.25Q130.59 6.51 130.83 6.92Q131.07 7.33 131.07 7.92L131.07 7.92Q131.07 8.38 130.90 8.80Q130.72 9.22 130.31 9.52Q129.90 9.82 129.25 10Q128.59 10.18 127.63 10.18L127.63 10.18Q126.66 10.18 125.97 9.95Q125.28 9.73 124.86 9.55L124.86 9.55L125.17 7.90Q125.73 8.13 126.36 8.32Q126.99 8.51 127.65 8.51Z"/></g></svg>