<?xml version="1.0" encoding="UTF-8"?><svg height="34" width="211.4" version="1.1" xmlns="http://www.w3.org/2000/svg"><!--Created by Josélio de S. C. Júnior - 2021 - https://github.com/joseliojunior --><rect height="32" width="209.4" rx="16" ry="16" x="1" y="1" fill="#F44D27" stroke="#791b06" stroke-width="1" /><g transform="translate(0, 12)"><path fill="#791b06" d="M27.49-0.62L27.49-0.62Q26.43-0.62 25.71-0.24Q24.99 0.14 24.52 0.83Q24.06 1.51 23.85 2.46Q23.65 3.41 23.65 4.56L23.65 4.56Q23.65 7.22 24.49 8.48Q25.33 9.74 26.96 9.74L26.96 9.74Q27.22 9.74 27.54 9.72Q27.85 9.70 28.11 9.65L28.11 9.65L28.11 4.22L31.06 4.22L31.06 11.64Q30.54 11.83 29.42 12.07Q28.30 12.31 26.72 12.31L26.72 12.31Q25.33 12.31 24.21 11.82Q23.10 11.33 22.30 10.36Q21.51 9.38 21.08 7.93Q20.65 6.48 20.65 4.56L20.65 4.56Q20.65 2.66 21.15 1.21Q21.66-0.24 22.52-1.22Q23.38-2.21 24.56-2.70Q25.74-3.19 27.08-3.19L27.08-3.19Q27.94-3.19 28.63-3.06Q29.31-2.93 29.82-2.76Q30.32-2.59 30.64-2.40Q30.97-2.21 31.14-2.11L31.14-2.11L30.37 0.24Q29.84-0.10 29.07-0.36Q28.30-0.62 27.49-0.62ZM38.82-2.52L38.82-2.52Q38.82-1.66 38.26-1.15Q37.71-0.65 36.94-0.65L36.94-0.65Q36.18-0.65 35.64-1.15Q35.10-1.66 35.10-2.52L35.10-2.52Q35.10-3.41 35.64-3.91Q36.18-4.42 36.94-4.42L36.94-4.42Q37.71-4.42 38.26-3.91Q38.82-3.41 38.82-2.52ZM42.82 9.14L43.21 11.52Q42.30 11.95 41.49 12.11Q40.69 12.26 40.02 12.26L40.02 12.26Q38.86 12.26 38.08 11.93Q37.30 11.59 36.84 10.96Q36.37 10.32 36.18 9.41Q35.98 8.50 35.98 7.32L35.98 7.32L35.98 3.17L32.86 3.17L32.86 0.72L38.94 0.72L38.94 7.70Q38.94 8.71 39.31 9.20Q39.68 9.70 40.54 9.70L40.54 9.70Q40.95 9.70 41.53 9.59Q42.10 9.48 42.82 9.14L42.82 9.14ZM47.43 7.80L47.43 3.17L44.86 3.17L44.86 0.72L47.43 0.72L47.43-2.11L50.38-2.59L50.38 0.72L55.11 0.72L55.11 3.17L50.38 3.17L50.38 7.73Q50.38 8.35 50.50 8.74Q50.62 9.12 50.84 9.34Q51.06 9.55 51.37 9.62Q51.68 9.70 52.06 9.70L52.06 9.70Q52.47 9.70 52.82 9.67Q53.17 9.65 53.49 9.59Q53.82 9.53 54.16 9.41Q54.51 9.29 54.92 9.10L54.92 9.10L55.33 11.64Q54.51 11.98 53.56 12.12Q52.62 12.26 51.73 12.26L51.73 12.26Q50.70 12.26 49.90 12.10Q49.11 11.93 48.56 11.45Q48.01 10.97 47.72 10.09Q47.43 9.22 47.43 7.80L47.43 7.80ZM79.78 12L76.62 12L75.92 8.57L71.96 8.57L71.29 12L68.22 12Q69.27 7.61 70.35 4.00Q71.43 0.38 72.44-2.86L72.44-2.86L75.66-2.86Q76.71 0.41 77.76 4.07Q78.80 7.73 79.78 12L79.78 12ZM73.98 0.02L73.98 0.02Q73.74 0.86 73.53 1.62Q73.33 2.38 73.15 3.11Q72.97 3.84 72.81 4.58Q72.66 5.33 72.51 6.12L72.51 6.12L75.42 6.12Q75.27 5.33 75.13 4.58Q74.98 3.84 74.80 3.11Q74.62 2.38 74.42 1.62Q74.22 0.86 73.98 0.02ZM83.43 7.80L83.43 3.17L80.86 3.17L80.86 0.72L83.43 0.72L83.43-2.11L86.38-2.59L86.38 0.72L91.11 0.72L91.11 3.17L86.38 3.17L86.38 7.73Q86.38 8.35 86.50 8.74Q86.62 9.12 86.84 9.34Q87.06 9.55 87.37 9.62Q87.68 9.70 88.06 9.70L88.06 9.70Q88.47 9.70 88.82 9.67Q89.17 9.65 89.49 9.59Q89.82 9.53 90.16 9.41Q90.51 9.29 90.92 9.10L90.92 9.10L91.33 11.64Q90.51 11.98 89.56 12.12Q88.62 12.26 87.73 12.26L87.73 12.26Q86.70 12.26 85.90 12.10Q85.11 11.93 84.56 11.45Q84.01 10.97 83.72 10.09Q83.43 9.22 83.43 7.80L83.43 7.80ZM95.43 7.80L95.43 3.17L92.86 3.17L92.86 0.72L95.43 0.72L95.43-2.11L98.38-2.59L98.38 0.72L103.11 0.72L103.11 3.17L98.38 3.17L98.38 7.73Q98.38 8.35 98.50 8.74Q98.62 9.12 98.84 9.34Q99.06 9.55 99.37 9.62Q99.68 9.70 100.06 9.70L100.06 9.70Q100.47 9.70 100.82 9.67Q101.17 9.65 101.49 9.59Q101.82 9.53 102.16 9.41Q102.51 9.29 102.92 9.10L102.92 9.10L103.33 11.64Q102.51 11.98 101.56 12.12Q100.62 12.26 99.73 12.26L99.73 12.26Q98.70 12.26 97.90 12.10Q97.11 11.93 96.56 11.45Q96.01 10.97 95.72 10.09Q95.43 9.22 95.43 7.80L95.43 7.80ZM115.02 0.98L114.49 3.72Q114.20 3.65 113.80 3.58Q113.41 3.50 113 3.44Q112.59 3.38 112.21 3.36Q111.82 3.34 111.56 3.34L111.56 3.34Q110.94 3.34 110.34 3.40Q109.74 3.46 109.11 3.62L109.11 3.62L109.11 12L106.14 12L106.14 1.46Q107.31 1.03 108.55 0.77Q109.78 0.50 111.44 0.50L111.44 0.50Q111.68 0.50 112.12 0.53Q112.57 0.55 113.07 0.61Q113.58 0.67 114.09 0.76Q114.61 0.84 115.02 0.98L115.02 0.98ZM122.82-2.52L122.82-2.52Q122.82-1.66 122.26-1.15Q121.71-0.65 120.94-0.65L120.94-0.65Q120.18-0.65 119.64-1.15Q119.10-1.66 119.10-2.52L119.10-2.52Q119.10-3.41 119.64-3.91Q120.18-4.42 120.94-4.42L120.94-4.42Q121.71-4.42 122.26-3.91Q122.82-3.41 122.82-2.52ZM126.82 9.14L127.21 11.52Q126.30 11.95 125.49 12.11Q124.69 12.26 124.02 12.26L124.02 12.26Q122.86 12.26 122.08 11.93Q121.30 11.59 120.84 10.96Q120.37 10.32 120.18 9.41Q119.98 8.50 119.98 7.32L119.98 7.32L119.98 3.17L116.86 3.17L116.86 0.72L122.94 0.72L122.94 7.70Q122.94 8.71 123.31 9.20Q123.68 9.70 124.54 9.70L124.54 9.70Q124.95 9.70 125.53 9.59Q126.10 9.48 126.82 9.14L126.82 9.14ZM136.28 6.29L136.28 6.29Q136.28 4.70 135.76 3.86Q135.25 3.02 134.19 3.02L134.19 3.02Q133.71 3.02 133.24 3.16Q132.78 3.29 132.44 3.48L132.44 3.48L132.44 9.60Q132.78 9.67 133.15 9.70Q133.52 9.72 133.78 9.72L133.78 9.72Q134.94 9.72 135.61 8.94Q136.28 8.16 136.28 6.29ZM139.28 6.36L139.28 6.36Q139.28 7.70 138.92 8.80Q138.56 9.89 137.86 10.66Q137.17 11.42 136.16 11.84Q135.15 12.26 133.86 12.26L133.86 12.26Q132.70 12.26 131.50 12.10Q130.30 11.93 129.49 11.66L129.49 11.66L129.49-4.15L132.44-4.66L132.44 0.98Q133.06 0.70 133.64 0.59Q134.22 0.48 134.79 0.48L134.79 0.48Q135.90 0.48 136.74 0.90Q137.58 1.32 138.14 2.10Q138.70 2.88 138.99 3.96Q139.28 5.04 139.28 6.36ZM150.51 0.72L150.51 11.62Q149.70 11.83 148.53 12.05Q147.37 12.26 146 12.26L146 12.26Q144.61 12.26 143.72 11.88Q142.83 11.50 142.32 10.79Q141.80 10.08 141.61 9.12Q141.42 8.16 141.42 7.01L141.42 7.01L141.42 0.72L144.37 0.72L144.37 6.62Q144.37 8.18 144.74 8.94Q145.11 9.70 146.19 9.70L146.19 9.70Q146.86 9.70 147.54 9.58L147.54 9.58L147.54 0.72L150.51 0.72ZM155.43 7.80L155.43 3.17L152.86 3.17L152.86 0.72L155.43 0.72L155.43-2.11L158.38-2.59L158.38 0.72L163.11 0.72L163.11 3.17L158.38 3.17L158.38 7.73Q158.38 8.35 158.50 8.74Q158.62 9.12 158.84 9.34Q159.06 9.55 159.37 9.62Q159.68 9.70 160.06 9.70L160.06 9.70Q160.47 9.70 160.82 9.67Q161.17 9.65 161.49 9.59Q161.82 9.53 162.16 9.41Q162.51 9.29 162.92 9.10L162.92 9.10L163.33 11.64Q162.51 11.98 161.56 12.12Q160.62 12.26 159.73 12.26L159.73 12.26Q158.70 12.26 157.90 12.10Q157.11 11.93 156.56 11.45Q156.01 10.97 155.72 10.09Q155.43 9.22 155.43 7.80L155.43 7.80ZM164.74 6.46L164.74 6.46Q164.74 4.97 165.20 3.84Q165.66 2.71 166.40 1.96Q167.14 1.20 168.10 0.82Q169.06 0.43 170.07 0.43L170.07 0.43Q172.57 0.43 173.86 1.91Q175.16 3.38 175.16 6.22L175.16 6.22Q175.16 6.50 175.15 6.82Q175.14 7.13 175.11 7.32L175.11 7.32L167.79 7.32Q167.79 8.42 168.70 9.06Q169.62 9.70 171.06 9.70L171.06 9.70Q171.94 9.70 172.75 9.50Q173.55 9.31 174.10 9.12L174.10 9.12L174.51 11.64Q173.74 11.90 172.88 12.08Q172.02 12.26 170.94 12.26L170.94 12.26Q169.50 12.26 168.36 11.89Q167.22 11.52 166.41 10.79Q165.61 10.06 165.18 8.98Q164.74 7.90 164.74 6.46ZM167.79 5.28L172.30 5.28Q172.30 4.82 172.18 4.40Q172.06 3.98 171.80 3.65Q171.54 3.31 171.13 3.11Q170.72 2.90 170.12 2.90L170.12 2.90Q169.54 2.90 169.12 3.10Q168.70 3.29 168.43 3.62Q168.15 3.96 168.00 4.39Q167.84 4.82 167.79 5.28L167.79 5.28ZM181.47 9.77L181.47 9.77Q182.55 9.77 183.13 9.61Q183.70 9.46 183.70 8.98L183.70 8.98Q183.70 8.66 183.52 8.45Q183.34 8.23 183.02 8.08Q182.70 7.92 182.28 7.78Q181.86 7.63 181.40 7.49L181.40 7.49Q180.75 7.30 180.08 7.04Q179.41 6.79 178.86 6.41Q178.30 6.02 177.94 5.44Q177.58 4.85 177.58 3.96L177.58 3.96Q177.58 3.24 177.86 2.60Q178.14 1.97 178.72 1.48Q179.31 0.98 180.22 0.71Q181.14 0.43 182.41 0.43L182.41 0.43Q183.51 0.43 184.46 0.60Q185.41 0.77 186.10 1.08L186.10 1.08L185.65 3.58Q185.24 3.46 184.38 3.18Q183.51 2.90 182.43 2.90L182.43 2.90Q181.30 2.90 180.91 3.18Q180.51 3.46 180.51 3.77L180.51 3.77Q180.51 4.03 180.69 4.24Q180.87 4.44 181.17 4.61Q181.47 4.78 181.87 4.93Q182.26 5.09 182.72 5.23L182.72 5.23Q183.37 5.45 184.06 5.71Q184.76 5.98 185.32 6.37Q185.89 6.77 186.25 7.38Q186.61 7.99 186.61 8.88L186.61 8.88Q186.61 9.58 186.34 10.20Q186.08 10.82 185.47 11.28Q184.86 11.74 183.87 12Q182.89 12.26 181.45 12.26L181.45 12.26Q179.98 12.26 178.95 11.93Q177.92 11.59 177.30 11.33L177.30 11.33L177.75 8.86Q178.59 9.19 179.54 9.48Q180.49 9.77 181.47 9.77Z"/></g></svg>