<?xml version="1.0" encoding="UTF-8"?>
<svg height="34" width="219.4" version="1.1" xmlns="http://www.w3.org/2000/svg">
    <rect
        height="32"
        width="217.4"
        rx="1"
        ry="1"
        x="1"
        y="1"
        fill="#F44D27"
        stroke="#791b06"
        stroke-width="1"
         />
    <g transform="translate(0, 14)">
        <path fill="#791b06" d="M18.74-3.73L18.74-3.73Q17.50-3.73 16.66-3.28Q15.82-2.83 15.28-2.03Q14.73-1.24 14.49-0.13Q14.26 0.98 14.26 2.32L14.26 2.32Q14.26 5.43 15.24 6.90Q16.22 8.37 18.12 8.37L18.12 8.37Q18.43 8.37 18.79 8.34Q19.16 8.31 19.46 8.26L19.46 8.26L19.46 1.93L22.91 1.93L22.91 10.58Q22.29 10.80 20.99 11.08Q19.69 11.36 17.84 11.36L17.84 11.36Q16.22 11.36 14.91 10.79Q13.61 10.22 12.69 9.08Q11.76 7.95 11.26 6.25Q10.76 4.56 10.76 2.32L10.76 2.32Q10.76 0.11 11.34-1.59Q11.93-3.28 12.94-4.43Q13.95-5.58 15.32-6.15Q16.69-6.72 18.26-6.72L18.26-6.72Q19.27-6.72 20.07-6.57Q20.86-6.42 21.45-6.22Q22.04-6.02 22.42-5.80Q22.80-5.58 22.99-5.46L22.99-5.46L22.10-2.72Q21.48-3.11 20.58-3.42Q19.69-3.73 18.74-3.73ZM31.95-5.94L31.95-5.94Q31.95-4.93 31.31-4.34Q30.66-3.76 29.77-3.76L29.77-3.76Q28.87-3.76 28.24-4.34Q27.61-4.93 27.61-5.94L27.61-5.94Q27.61-6.98 28.24-7.56Q28.87-8.15 29.77-8.15L29.77-8.15Q30.66-8.15 31.31-7.56Q31.95-6.98 31.95-5.94ZM36.63 7.67L37.08 10.44Q36.01 10.94 35.07 11.13Q34.14 11.31 33.35 11.31L33.35 11.31Q32.01 11.31 31.10 10.92Q30.19 10.52 29.64 9.78Q29.10 9.04 28.87 7.98Q28.65 6.91 28.65 5.54L28.65 5.54L28.65 0.70L25.01 0.70L25.01-2.16L32.09-2.16L32.09 5.99Q32.09 7.16 32.53 7.74Q32.96 8.31 33.97 8.31L33.97 8.31Q34.44 8.31 35.12 8.19Q35.79 8.06 36.63 7.67L36.63 7.67ZM42.00 6.10L42.00 0.70L39.01 0.70L39.01-2.16L42.00-2.16L42.00-5.46L45.45-6.02L45.45-2.16L50.96-2.16L50.96 0.70L45.45 0.70L45.45 6.02Q45.45 6.74 45.59 7.19Q45.73 7.64 45.98 7.89Q46.23 8.14 46.60 8.23Q46.96 8.31 47.41 8.31L47.41 8.31Q47.88 8.31 48.29 8.28Q48.70 8.26 49.07 8.19Q49.45 8.12 49.86 7.98Q50.26 7.84 50.74 7.61L50.74 7.61L51.22 10.58Q50.26 10.97 49.16 11.14Q48.05 11.31 47.02 11.31L47.02 11.31Q45.81 11.31 44.89 11.11Q43.96 10.92 43.32 10.36Q42.68 9.80 42.34 8.77Q42.00 7.75 42.00 6.10L42.00 6.10ZM79.75 11L76.05 11L75.24 7.00L70.62 7.00L69.84 11L66.25 11Q67.48 5.88 68.74 1.66Q70.00-2.55 71.18-6.33L71.18-6.33L74.93-6.33Q76.16-2.52 77.38 1.75Q78.60 6.02 79.75 11L79.75 11ZM72.97-2.97L72.97-2.97Q72.69-1.99 72.45-1.11Q72.22-0.23 72.01 0.63Q71.80 1.48 71.61 2.35Q71.43 3.22 71.26 4.14L71.26 4.14L74.65 4.14Q74.48 3.22 74.32 2.35Q74.15 1.48 73.94 0.63Q73.73-0.23 73.49-1.11Q73.25-1.99 72.97-2.97ZM84.00 6.10L84.00 0.70L81.01 0.70L81.01-2.16L84.00-2.16L84.00-5.46L87.45-6.02L87.45-2.16L92.96-2.16L92.96 0.70L87.45 0.70L87.45 6.02Q87.45 6.74 87.59 7.19Q87.73 7.64 87.98 7.89Q88.23 8.14 88.60 8.23Q88.96 8.31 89.41 8.31L89.41 8.31Q89.88 8.31 90.29 8.28Q90.70 8.26 91.07 8.19Q91.45 8.12 91.86 7.98Q92.26 7.84 92.74 7.61L92.74 7.61L93.22 10.58Q92.26 10.97 91.16 11.14Q90.05 11.31 89.02 11.31L89.02 11.31Q87.81 11.31 86.89 11.11Q85.96 10.92 85.32 10.36Q84.68 9.80 84.34 8.77Q84.00 7.75 84.00 6.10L84.00 6.10ZM98.00 6.10L98.00 0.70L95.01 0.70L95.01-2.16L98.00-2.16L98.00-5.46L101.45-6.02L101.45-2.16L106.96-2.16L106.96 0.70L101.45 0.70L101.45 6.02Q101.45 6.74 101.59 7.19Q101.73 7.64 101.98 7.89Q102.23 8.14 102.60 8.23Q102.96 8.31 103.41 8.31L103.41 8.31Q103.88 8.31 104.29 8.28Q104.70 8.26 105.07 8.19Q105.45 8.12 105.86 7.98Q106.26 7.84 106.74 7.61L106.74 7.61L107.22 10.58Q106.26 10.97 105.16 11.14Q104.05 11.31 103.02 11.31L103.02 11.31Q101.81 11.31 100.89 11.11Q99.96 10.92 99.32 10.36Q98.68 9.80 98.34 8.77Q98.00 7.75 98.00 6.10L98.00 6.10ZM120.85-1.85L120.24 1.34Q119.90 1.26 119.44 1.17Q118.98 1.09 118.50 1.02Q118.02 0.95 117.58 0.92Q117.13 0.89 116.82 0.89L116.82 0.89Q116.09 0.89 115.39 0.96Q114.69 1.03 113.96 1.23L113.96 1.23L113.96 11L110.49 11L110.49-1.29Q111.86-1.80 113.31-2.10Q114.75-2.41 116.68-2.41L116.68-2.41Q116.96-2.41 117.48-2.38Q118.00-2.36 118.58-2.29Q119.17-2.22 119.77-2.12Q120.38-2.02 120.85-1.85L120.85-1.85ZM129.95-5.94L129.95-5.94Q129.95-4.93 129.31-4.34Q128.66-3.76 127.77-3.76L127.77-3.76Q126.87-3.76 126.24-4.34Q125.61-4.93 125.61-5.94L125.61-5.94Q125.61-6.98 126.24-7.56Q126.87-8.15 127.77-8.15L127.77-8.15Q128.66-8.15 129.31-7.56Q129.95-6.98 129.95-5.94ZM134.63 7.67L135.08 10.44Q134.01 10.94 133.07 11.13Q132.14 11.31 131.35 11.31L131.35 11.31Q130.01 11.31 129.10 10.92Q128.19 10.52 127.64 9.78Q127.10 9.04 126.87 7.98Q126.65 6.91 126.65 5.54L126.65 5.54L126.65 0.70L123.01 0.70L123.01-2.16L130.09-2.16L130.09 5.99Q130.09 7.16 130.53 7.74Q130.96 8.31 131.97 8.31L131.97 8.31Q132.44 8.31 133.12 8.19Q133.79 8.06 134.63 7.67L134.63 7.67ZM145.66 4.34L145.66 4.34Q145.66 2.49 145.06 1.51Q144.46 0.53 143.22 0.53L143.22 0.53Q142.66 0.53 142.12 0.68Q141.57 0.84 141.18 1.06L141.18 1.06L141.18 8.20Q141.57 8.28 142.01 8.31Q142.44 8.34 142.75 8.34L142.75 8.34Q144.09 8.34 144.88 7.43Q145.66 6.52 145.66 4.34ZM149.16 4.42L149.16 4.42Q149.16 5.99 148.74 7.26Q148.32 8.54 147.51 9.43Q146.70 10.33 145.52 10.82Q144.34 11.31 142.83 11.31L142.83 11.31Q141.49 11.31 140.09 11.11Q138.69 10.92 137.74 10.61L137.74 10.61L137.74-7.84L141.18-8.43L141.18-1.85Q141.91-2.19 142.58-2.31Q143.25-2.44 143.92-2.44L143.92-2.44Q145.21-2.44 146.19-1.95Q147.17-1.46 147.83-0.55Q148.49 0.36 148.82 1.62Q149.16 2.88 149.16 4.42ZM162.26-2.16L162.26 10.55Q161.31 10.80 159.95 11.06Q158.60 11.31 157 11.31L157 11.31Q155.38 11.31 154.34 10.86Q153.30 10.41 152.70 9.59Q152.10 8.76 151.88 7.64Q151.65 6.52 151.65 5.18L151.65 5.18L151.65-2.16L155.10-2.16L155.10 4.73Q155.10 6.55 155.53 7.43Q155.96 8.31 157.22 8.31L157.22 8.31Q158.01 8.31 158.79 8.17L158.79 8.17L158.79-2.16L162.26-2.16ZM168.00 6.10L168.00 0.70L165.01 0.70L165.01-2.16L168.00-2.16L168.00-5.46L171.45-6.02L171.45-2.16L176.96-2.16L176.96 0.70L171.45 0.70L171.45 6.02Q171.45 6.74 171.59 7.19Q171.73 7.64 171.98 7.89Q172.23 8.14 172.60 8.23Q172.96 8.31 173.41 8.31L173.41 8.31Q173.88 8.31 174.29 8.28Q174.70 8.26 175.07 8.19Q175.45 8.12 175.86 7.98Q176.26 7.84 176.74 7.61L176.74 7.61L177.22 10.58Q176.26 10.97 175.16 11.14Q174.05 11.31 173.02 11.31L173.02 11.31Q171.81 11.31 170.89 11.11Q169.96 10.92 169.32 10.36Q168.68 9.80 168.34 8.77Q168.00 7.75 168.00 6.10L168.00 6.10ZM178.87 4.53L178.87 4.53Q178.87 2.80 179.40 1.48Q179.93 0.16 180.80-0.72Q181.67-1.60 182.79-2.05Q183.91-2.50 185.08-2.50L185.08-2.50Q188.00-2.50 189.51-0.77Q191.02 0.95 191.02 4.25L191.02 4.25Q191.02 4.59 191.01 4.95Q190.99 5.32 190.96 5.54L190.96 5.54L182.42 5.54Q182.42 6.83 183.49 7.57Q184.55 8.31 186.23 8.31L186.23 8.31Q187.27 8.31 188.21 8.09Q189.14 7.86 189.79 7.64L189.79 7.64L190.26 10.58Q189.37 10.89 188.36 11.10Q187.35 11.31 186.09 11.31L186.09 11.31Q184.41 11.31 183.08 10.87Q181.75 10.44 180.81 9.59Q179.88 8.73 179.37 7.47Q178.87 6.21 178.87 4.53ZM182.42 3.16L187.69 3.16Q187.69 2.63 187.55 2.14Q187.41 1.65 187.10 1.26Q186.79 0.86 186.32 0.63Q185.84 0.39 185.14 0.39L185.14 0.39Q184.47 0.39 183.98 0.61Q183.49 0.84 183.17 1.23Q182.84 1.62 182.66 2.12Q182.48 2.63 182.42 3.16L182.42 3.16ZM198.38 8.40L198.38 8.40Q199.64 8.40 200.32 8.21Q200.99 8.03 200.99 7.47L200.99 7.47Q200.99 7.11 200.78 6.86Q200.57 6.60 200.19 6.42Q199.81 6.24 199.32 6.07Q198.83 5.90 198.30 5.74L198.30 5.74Q197.54 5.51 196.76 5.22Q195.98 4.92 195.33 4.48Q194.69 4.03 194.27 3.34Q193.85 2.66 193.85 1.62L193.85 1.62Q193.85 0.78 194.17 0.04Q194.49-0.70 195.18-1.28Q195.86-1.85 196.93-2.17Q197.99-2.50 199.48-2.50L199.48-2.50Q200.76-2.50 201.87-2.30Q202.98-2.10 203.79-1.74L203.79-1.74L203.26 1.17Q202.78 1.03 201.77 0.71Q200.76 0.39 199.50 0.39L199.50 0.39Q198.19 0.39 197.73 0.71Q197.26 1.03 197.26 1.40L197.26 1.40Q197.26 1.70 197.47 1.94Q197.68 2.18 198.03 2.38Q198.38 2.57 198.85 2.75Q199.31 2.94 199.84 3.10L199.84 3.10Q200.60 3.36 201.41 3.66Q202.22 3.97 202.88 4.43Q203.54 4.90 203.96 5.61Q204.38 6.32 204.38 7.36L204.38 7.36Q204.38 8.17 204.07 8.90Q203.76 9.63 203.05 10.16Q202.33 10.69 201.18 11Q200.04 11.31 198.36 11.31L198.36 11.31Q196.65 11.31 195.44 10.92Q194.24 10.52 193.51 10.22L193.51 10.22L194.04 7.33Q195.02 7.72 196.13 8.06Q197.24 8.40 198.38 8.40Z"/>
    </g>
</svg>