<?xml version="1.0" encoding="UTF-8"?>
<svg height="34" width="78.3" version="1.1" xmlns="http://www.w3.org/2000/svg"><!--Created by Josélio de S. C. Júnior - 2021 - https://github.com/joseliojunior -->
    <rect
        height="32"
        width="76.3"
        rx="1"
        ry="1"
        x="1" y="1"
        fill="#a3522f"
        stroke="#2b160d"
        stroke-width="1" />
    <g transform="translate(0, 12)">
        <path fill="#2b160d" stroke="none" d="M30.73 12L21.30 12L21.30 9.55L24.54 9.55L24.54-0.41L21.30-0.41L21.30-2.86L30.73-2.86L30.73-0.41L27.51-0.41L27.51 9.55L30.73 9.55L30.73 12ZM36.25-0.38L36.25 9.60Q36.37 9.62 36.51 9.62Q36.66 9.62 36.78 9.62L36.78 9.62Q37.78 9.62 38.47 9.24Q39.15 8.86 39.57 8.18Q39.99 7.51 40.17 6.59Q40.35 5.66 40.35 4.56L40.35 4.56Q40.35 3.60 40.21 2.69Q40.06 1.78 39.70 1.08Q39.34 0.38 38.72-0.04Q38.10-0.46 37.11-0.46L37.11-0.46Q36.92-0.46 36.68-0.44Q36.44-0.43 36.25-0.38L36.25-0.38ZM43.35 4.56L43.35 4.56Q43.35 6.62 42.84 8.08Q42.32 9.53 41.41 10.44Q40.50 11.35 39.24 11.77Q37.98 12.19 36.46 12.19L36.46 12.19Q35.67 12.19 34.92 12.11Q34.16 12.02 33.30 11.83L33.30 11.83L33.30-2.66Q34.30-2.88 35.19-2.95Q36.08-3.02 36.85-3.02L36.85-3.02Q38.31-3.02 39.52-2.59Q40.74-2.16 41.58-1.24Q42.42-0.31 42.88 1.12Q43.35 2.54 43.35 4.56ZM55.04 9.55L55.04 12L45.70 12L45.70-2.86L48.68-2.86L48.68 9.55L55.04 9.55Z"/>
    </g>
</svg>