<?xml version="1.0" encoding="UTF-8"?>
<svg height="34" width="102.5" version="1.1" xmlns="http://www.w3.org/2000/svg"><!--Created by Josélio de S. C. Júnior - 2021 - https://github.com/joseliojunior -->
    <rect
        height="32"
        width="100.5"
        rx="16"
        ry="16"
        x="1" y="1"
        fill="#64C800"
        stroke="#172e00"
        stroke-width="1" />
    <g transform="translate(0, 12)">
        <path fill="#172e00" stroke="none" d="M31.78 12L28.62 12L27.92 8.57L23.96 8.57L23.29 12L20.22 12Q21.27 7.61 22.35 4.00Q23.43 0.38 24.44-2.86L24.44-2.86L27.66-2.86Q28.71 0.41 29.76 4.07Q30.80 7.73 31.78 12L31.78 12ZM25.98 0.02L25.98 0.02Q25.74 0.86 25.53 1.62Q25.33 2.38 25.15 3.11Q24.97 3.84 24.81 4.58Q24.66 5.33 24.51 6.12L24.51 6.12L27.42 6.12Q27.27 5.33 27.13 4.58Q26.98 3.84 26.80 3.11Q26.62 2.38 26.42 1.62Q26.22 0.86 25.98 0.02ZM42.82 9.14L43.21 11.52Q43.14 11.57 42.88 11.69Q42.63 11.81 42.22 11.94Q41.82 12.07 41.23 12.17Q40.64 12.26 39.90 12.26L39.90 12.26Q37.86 12.26 36.92 11.05Q35.98 9.84 35.98 7.51L35.98 7.51L35.98-2.06L32.86-2.06L32.86-4.51L38.94-4.51L38.94 7.73Q38.94 8.88 39.39 9.29Q39.85 9.70 40.54 9.70L40.54 9.70Q41.43 9.70 42.03 9.46Q42.63 9.22 42.82 9.14L42.82 9.14ZM54.82 9.14L55.21 11.52Q55.14 11.57 54.88 11.69Q54.63 11.81 54.22 11.94Q53.82 12.07 53.23 12.17Q52.64 12.26 51.90 12.26L51.90 12.26Q49.86 12.26 48.92 11.05Q47.98 9.84 47.98 7.51L47.98 7.51L47.98-2.06L44.86-2.06L44.86-4.51L50.94-4.51L50.94 7.73Q50.94 8.88 51.39 9.29Q51.85 9.70 52.54 9.70L52.54 9.70Q53.43 9.70 54.03 9.46Q54.63 9.22 54.82 9.14L54.82 9.14ZM67.33 6.34L67.33 6.34Q67.33 7.68 66.94 8.77Q66.56 9.86 65.86 10.66Q65.17 11.45 64.20 11.88Q63.22 12.31 62.02 12.31L62.02 12.31Q60.82 12.31 59.85 11.88Q58.88 11.45 58.17 10.66Q57.46 9.86 57.08 8.77Q56.70 7.68 56.70 6.34L56.70 6.34Q56.70 5.02 57.09 3.92Q57.49 2.83 58.20 2.05Q58.90 1.27 59.89 0.85Q60.87 0.43 62.02 0.43L62.02 0.43Q63.20 0.43 64.17 0.85Q65.14 1.27 65.85 2.05Q66.56 2.83 66.94 3.92Q67.33 5.02 67.33 6.34ZM59.70 6.36L59.70 6.36Q59.70 7.87 60.24 8.81Q60.78 9.74 61.98 9.74L61.98 9.74Q63.13 9.74 63.72 8.81Q64.30 7.87 64.30 6.36L64.30 6.36Q64.30 4.85 63.76 3.92Q63.22 3 62.02 3L62.02 3Q60.87 3 60.28 3.92Q59.70 4.85 59.70 6.36ZM76.30 0.72L79.33 0.72Q78.87 2.30 78.45 3.83Q78.03 5.35 77.58 6.80Q77.12 8.26 76.60 9.65Q76.09 11.04 75.49 12.36L75.49 12.36Q75.03 13.32 74.59 14.02Q74.14 14.71 73.60 15.16Q73.06 15.60 72.40 15.82Q71.74 16.03 70.86 16.03L70.86 16.03Q70.11 16.03 69.50 15.91Q68.89 15.79 68.48 15.60L68.48 15.60L69.03 13.13Q69.51 13.34 69.88 13.43Q70.26 13.51 70.69 13.51L70.69 13.51Q71.55 13.51 72.08 12.94Q72.61 12.36 72.92 11.57L72.92 11.57Q71.86 9.46 70.81 6.73Q69.75 4.01 68.89 0.72L68.89 0.72L71.96 0.72Q72.18 1.61 72.45 2.62Q72.73 3.62 73.04 4.63Q73.35 5.64 73.70 6.61Q74.05 7.58 74.41 8.42L74.41 8.42Q74.65 7.58 74.91 6.61Q75.18 5.64 75.42 4.64Q75.66 3.65 75.88 2.64Q76.11 1.63 76.30 0.72L76.30 0.72Z"/>
    </g>
</svg>