<?xml version="1.0" encoding="UTF-8"?>
<svg height="26" width="82.5" version="1.1" xmlns="http://www.w3.org/2000/svg"><!--Created by Josélio de S. C. Júnior - 2021 - https://github.com/joseliojunior -->
    <rect
        height="24"
        width="80.5"
        rx="12"
        ry="12"
        x="1" y="1"
        fill="#64C800"
        stroke="#172e00"
        stroke-width="1" />
    <g transform="translate(0, 8)">
        <path fill="#172e00" stroke="none" d="M27.86 10L25.74 10L25.28 7.71L22.64 7.71L22.19 10L20.14 10Q20.85 7.07 21.57 4.66Q22.29 2.26 22.96 0.10L22.96 0.10L25.10 0.10Q25.81 2.27 26.50 4.71Q27.20 7.15 27.86 10L27.86 10ZM23.98 2.02L23.98 2.02Q23.82 2.58 23.69 3.08Q23.55 3.58 23.43 4.07Q23.31 4.56 23.21 5.06Q23.10 5.55 23.01 6.08L23.01 6.08L24.94 6.08Q24.85 5.55 24.75 5.06Q24.66 4.56 24.54 4.07Q24.42 3.58 24.28 3.08Q24.14 2.58 23.98 2.02ZM35.22 8.10L35.47 9.68Q35.42 9.71 35.26 9.79Q35.09 9.87 34.82 9.96Q34.54 10.05 34.15 10.11Q33.76 10.18 33.26 10.18L33.26 10.18Q31.90 10.18 31.28 9.37Q30.66 8.56 30.66 7.01L30.66 7.01L30.66 0.62L28.58 0.62L28.58-1.01L32.62-1.01L32.62 7.15Q32.62 7.92 32.93 8.19Q33.23 8.46 33.70 8.46L33.70 8.46Q34.29 8.46 34.69 8.30Q35.09 8.14 35.22 8.10L35.22 8.10ZM43.22 8.10L43.47 9.68Q43.42 9.71 43.26 9.79Q43.09 9.87 42.82 9.96Q42.54 10.05 42.15 10.11Q41.76 10.18 41.26 10.18L41.26 10.18Q39.90 10.18 39.28 9.37Q38.66 8.56 38.66 7.01L38.66 7.01L38.66 0.62L36.58 0.62L36.58-1.01L40.62-1.01L40.62 7.15Q40.62 7.92 40.93 8.19Q41.23 8.46 41.70 8.46L41.70 8.46Q42.29 8.46 42.69 8.30Q43.09 8.14 43.22 8.10L43.22 8.10ZM51.55 6.22L51.55 6.22Q51.55 7.12 51.30 7.85Q51.04 8.58 50.58 9.10Q50.11 9.63 49.46 9.92Q48.82 10.21 48.02 10.21L48.02 10.21Q47.22 10.21 46.57 9.92Q45.92 9.63 45.45 9.10Q44.98 8.58 44.72 7.85Q44.46 7.12 44.46 6.22L44.46 6.22Q44.46 5.34 44.73 4.62Q44.99 3.89 45.46 3.37Q45.94 2.85 46.59 2.57Q47.25 2.29 48.02 2.29L48.02 2.29Q48.80 2.29 49.45 2.57Q50.10 2.85 50.57 3.37Q51.04 3.89 51.30 4.62Q51.55 5.34 51.55 6.22ZM46.46 6.24L46.46 6.24Q46.46 7.25 46.82 7.87Q47.18 8.50 47.98 8.50L47.98 8.50Q48.75 8.50 49.14 7.87Q49.54 7.25 49.54 6.24L49.54 6.24Q49.54 5.23 49.18 4.62Q48.82 4 48.02 4L48.02 4Q47.25 4 46.86 4.62Q46.46 5.23 46.46 6.24ZM57.54 2.48L59.55 2.48Q59.25 3.54 58.97 4.55Q58.69 5.57 58.38 6.54Q58.08 7.50 57.74 8.43Q57.39 9.36 56.99 10.24L56.99 10.24Q56.69 10.88 56.39 11.34Q56.10 11.81 55.74 12.10Q55.38 12.40 54.94 12.54Q54.50 12.69 53.90 12.69L53.90 12.69Q53.41 12.69 53 12.61Q52.59 12.53 52.32 12.40L52.32 12.40L52.69 10.75Q53.01 10.90 53.26 10.95Q53.50 11.01 53.79 11.01L53.79 11.01Q54.37 11.01 54.72 10.62Q55.07 10.24 55.28 9.71L55.28 9.71Q54.58 8.30 53.87 6.49Q53.17 4.67 52.59 2.48L52.59 2.48L54.64 2.48Q54.78 3.07 54.97 3.74Q55.15 4.42 55.36 5.09Q55.57 5.76 55.80 6.41Q56.03 7.06 56.27 7.62L56.27 7.62Q56.43 7.06 56.61 6.41Q56.78 5.76 56.94 5.10Q57.10 4.43 57.26 3.76Q57.41 3.09 57.54 2.48L57.54 2.48Z"/>
    </g>
</svg>