<?xml version="1.0" encoding="UTF-8"?>
<svg height="34" width="247.6" version="1.1" xmlns="http://www.w3.org/2000/svg">
    <rect
        height="32"
        width="245.6"
        rx="1"
        ry="1"
        x="1"
        y="1"
        fill="#348a34"
        stroke="#0a1a0a"
        stroke-width="1"
         />
    <g transform="translate(0, 14)">
        <path fill="#0a1a0a" d="M16.50 8.48L16.50 8.48Q17.36 8.48 17.94 8.30Q18.51 8.12 18.85 7.79Q19.18 7.47 19.31 7.07Q19.44 6.66 19.44 6.24L19.44 6.24Q19.44 5.71 19.13 5.29Q18.82 4.87 18.34 4.55Q17.87 4.22 17.28 3.96Q16.69 3.69 16.10 3.47L16.10 3.47Q15.32 3.19 14.48 2.82Q13.64 2.46 12.95 1.90Q12.27 1.34 11.82 0.51Q11.37-0.31 11.37-1.54L11.37-1.54Q11.37-3.98 12.95-5.35Q14.54-6.72 17.31-6.72L17.31-6.72Q18.90-6.72 20.09-6.36Q21.28-6.00 22.10-5.55L22.10-5.55L21.09-2.89Q20.39-3.28 19.53-3.56Q18.68-3.84 17.56-3.84L17.56-3.84Q14.82-3.84 14.82-1.85L14.82-1.85Q14.82-1.35 15.10-0.97Q15.38-0.59 15.81-0.30Q16.24-0.00 16.79 0.22Q17.34 0.44 17.87 0.64L17.87 0.64Q18.68 0.95 19.56 1.33Q20.44 1.70 21.19 2.33Q21.93 2.96 22.40 3.90Q22.88 4.84 22.88 6.27L22.88 6.27Q22.88 8.70 21.30 10.03Q19.72 11.36 16.50 11.36L16.50 11.36Q14.34 11.36 13.05 10.90Q11.76 10.44 11.12 10.05L11.12 10.05L12.13 7.25Q12.88 7.70 13.93 8.09Q14.98 8.48 16.50 8.48ZM29.99-6.53L29.99-6.53Q31.48-6.53 32.68-6.19Q33.88-5.86 34.75-5.16Q35.62-4.46 36.08-3.38Q36.54-2.30 36.54-0.84L36.54-0.84Q36.54 0.67 35.93 1.90Q35.31 3.13 33.88 3.78L33.88 3.78Q34.36 4.50 34.89 5.39Q35.42 6.27 35.93 7.23Q36.43 8.20 36.89 9.17Q37.36 10.13 37.69 11L37.69 11L34.08 11Q33.44 9.32 32.58 7.77Q31.73 6.21 30.75 4.62L30.75 4.62L28.96 4.62L28.96 11L25.51 11L25.51-6.08Q26.02-6.19 26.62-6.29Q27.22-6.39 27.84-6.43Q28.45-6.47 29.01-6.50Q29.57-6.53 29.99-6.53ZM33.04-0.87L33.04-0.87Q33.04-2.24 32.20-2.89Q31.36-3.53 29.99-3.53L29.99-3.53Q29.80-3.53 29.52-3.52Q29.24-3.50 28.96-3.45L28.96-3.45L28.96 1.76L29.71 1.76Q31.48 1.76 32.26 1.07Q33.04 0.39 33.04-0.87ZM38.87 4.53L38.87 4.53Q38.87 2.80 39.40 1.48Q39.93 0.16 40.80-0.72Q41.67-1.60 42.79-2.05Q43.91-2.50 45.08-2.50L45.08-2.50Q48.00-2.50 49.51-0.77Q51.02 0.95 51.02 4.25L51.02 4.25Q51.02 4.59 51.01 4.95Q50.99 5.32 50.96 5.54L50.96 5.54L42.42 5.54Q42.42 6.83 43.49 7.57Q44.55 8.31 46.23 8.31L46.23 8.31Q47.27 8.31 48.21 8.09Q49.14 7.86 49.79 7.64L49.79 7.64L50.26 10.58Q49.37 10.89 48.36 11.10Q47.35 11.31 46.09 11.31L46.09 11.31Q44.41 11.31 43.08 10.87Q41.75 10.44 40.81 9.59Q39.88 8.73 39.37 7.47Q38.87 6.21 38.87 4.53ZM42.42 3.16L47.69 3.16Q47.69 2.63 47.55 2.14Q47.41 1.65 47.10 1.26Q46.79 0.86 46.32 0.63Q45.84 0.39 45.14 0.39L45.14 0.39Q44.47 0.39 43.98 0.61Q43.49 0.84 43.17 1.23Q42.84 1.62 42.66 2.12Q42.48 2.63 42.42 3.16L42.42 3.16ZM53.23 4.42L53.23 4.42Q53.23 2.99 53.68 1.73Q54.13 0.47 55.05-0.47Q55.98-1.40 57.39-1.95Q58.80-2.50 60.76-2.50L60.76-2.50Q61.94-2.50 62.89-2.33Q63.84-2.16 64.82-1.77L64.82-1.77L64.07 1.00Q63.51 0.81 62.82 0.65Q62.14 0.50 61.07 0.50L61.07 0.50Q59.84 0.50 59.01 0.79Q58.19 1.09 57.68 1.61Q57.18 2.12 56.96 2.85Q56.73 3.58 56.73 4.42L56.73 4.42Q56.73 6.24 57.75 7.28Q58.78 8.31 61.24 8.31L61.24 8.31Q62.05 8.31 62.93 8.20Q63.82 8.09 64.54 7.84L64.54 7.84L65.05 10.66Q64.32 10.94 63.28 11.13Q62.25 11.31 60.85 11.31L60.85 11.31Q58.83 11.31 57.39 10.78Q55.95 10.24 55.02 9.32Q54.10 8.40 53.67 7.14Q53.23 5.88 53.23 4.42ZM79.22 4.39L79.22 4.39Q79.22 5.96 78.77 7.23Q78.32 8.51 77.51 9.43Q76.70 10.36 75.56 10.86Q74.43 11.36 73.03 11.36L73.03 11.36Q71.63 11.36 70.49 10.86Q69.36 10.36 68.53 9.43Q67.71 8.51 67.26 7.23Q66.81 5.96 66.81 4.39L66.81 4.39Q66.81 2.85 67.27 1.58Q67.74 0.30 68.56-0.61Q69.39-1.52 70.54-2.01Q71.68-2.50 73.03-2.50L73.03-2.50Q74.40-2.50 75.53-2.01Q76.67-1.52 77.49-0.61Q78.32 0.30 78.77 1.58Q79.22 2.85 79.22 4.39ZM70.31 4.42L70.31 4.42Q70.31 6.18 70.94 7.28Q71.57 8.37 72.97 8.37L72.97 8.37Q74.32 8.37 75.00 7.28Q75.69 6.18 75.69 4.42L75.69 4.42Q75.69 2.66 75.06 1.58Q74.43 0.50 73.03 0.50L73.03 0.50Q71.68 0.50 71.00 1.58Q70.31 2.66 70.31 4.42ZM84.28 4.34L84.28 4.34Q84.28 6.10 84.94 7.22Q85.60 8.34 87.06 8.34L87.06 8.34Q87.48 8.34 87.84 8.31Q88.20 8.28 88.60 8.23L88.60 8.23L88.60 1.06Q88.20 0.84 87.70 0.68Q87.20 0.53 86.64 0.53L86.64 0.53Q85.40 0.53 84.84 1.51Q84.28 2.49 84.28 4.34ZM92.04-8.43L92.04 10.61Q91.09 10.92 89.72 11.11Q88.34 11.31 87.03 11.31L87.03 11.31Q83.95 11.31 82.37 9.49Q80.78 7.67 80.78 4.50L80.78 4.50Q80.78 1.28 82.11-0.58Q83.44-2.44 86.05-2.44L86.05-2.44Q86.75-2.44 87.42-2.29Q88.09-2.13 88.60-1.85L88.60-1.85L88.60-7.84L92.04-8.43ZM94.87 4.53L94.87 4.53Q94.87 2.80 95.40 1.48Q95.93 0.16 96.80-0.72Q97.67-1.60 98.79-2.05Q99.91-2.50 101.08-2.50L101.08-2.50Q104.00-2.50 105.51-0.77Q107.02 0.95 107.02 4.25L107.02 4.25Q107.02 4.59 107.01 4.95Q106.99 5.32 106.96 5.54L106.96 5.54L98.42 5.54Q98.42 6.83 99.49 7.57Q100.55 8.31 102.23 8.31L102.23 8.31Q103.27 8.31 104.21 8.09Q105.14 7.86 105.79 7.64L105.79 7.64L106.26 10.58Q105.37 10.89 104.36 11.10Q103.35 11.31 102.09 11.31L102.09 11.31Q100.41 11.31 99.08 10.87Q97.75 10.44 96.81 9.59Q95.88 8.73 95.37 7.47Q94.87 6.21 94.87 4.53ZM98.42 3.16L103.69 3.16Q103.69 2.63 103.55 2.14Q103.41 1.65 103.10 1.26Q102.79 0.86 102.32 0.63Q101.84 0.39 101.14 0.39L101.14 0.39Q100.47 0.39 99.98 0.61Q99.49 0.84 99.17 1.23Q98.84 1.62 98.66 2.12Q98.48 2.63 98.42 3.16L98.42 3.16ZM122.70-6.33L135.30-6.33L135.30-3.48L130.74-3.48L130.74 11L127.26 11L127.26-3.48L122.70-3.48L122.70-6.33ZM136.87 4.53L136.87 4.53Q136.87 2.80 137.40 1.48Q137.93 0.16 138.80-0.72Q139.67-1.60 140.79-2.05Q141.91-2.50 143.08-2.50L143.08-2.50Q146.00-2.50 147.51-0.77Q149.02 0.95 149.02 4.25L149.02 4.25Q149.02 4.59 149.01 4.95Q148.99 5.32 148.96 5.54L148.96 5.54L140.42 5.54Q140.42 6.83 141.49 7.57Q142.55 8.31 144.23 8.31L144.23 8.31Q145.27 8.31 146.21 8.09Q147.14 7.86 147.79 7.64L147.79 7.64L148.26 10.58Q147.37 10.89 146.36 11.10Q145.35 11.31 144.09 11.31L144.09 11.31Q142.41 11.31 141.08 10.87Q139.75 10.44 138.81 9.59Q137.88 8.73 137.37 7.47Q136.87 6.21 136.87 4.53ZM140.42 3.16L145.69 3.16Q145.69 2.63 145.55 2.14Q145.41 1.65 145.10 1.26Q144.79 0.86 144.32 0.63Q143.84 0.39 143.14 0.39L143.14 0.39Q142.47 0.39 141.98 0.61Q141.49 0.84 141.17 1.23Q140.84 1.62 140.66 2.12Q140.48 2.63 140.42 3.16L140.42 3.16ZM159.60-2.30L159.60-2.30Q160.70-2.30 161.40-1.96Q162.10-1.63 162.50-0.96Q162.91-0.28 163.05 0.74Q163.19 1.76 163.19 3.13L163.19 3.13L163.19 11L160.39 11L160.39 2.96Q160.39 2.18 160.29 1.70Q160.19 1.23 160.04 0.98Q159.88 0.72 159.67 0.64Q159.46 0.56 159.24 0.56L159.24 0.56Q158.99 0.56 158.71 0.60Q158.43 0.64 158.20 0.75L158.20 0.75Q158.29 1.28 158.34 1.93Q158.40 2.57 158.40 3.36L158.40 3.36L158.40 5.99L155.60 5.99L155.60 2.96Q155.60 1.62 155.33 1.09Q155.07 0.56 154.48 0.56L154.48 0.56Q154.31 0.56 154.07 0.58Q153.84 0.61 153.61 0.67L153.61 0.67L153.61 11L150.81 11L150.81-1.66Q151.90-1.96 152.97-2.13Q154.03-2.30 154.84-2.30L154.84-2.30Q155.57-2.30 156.15-2.12Q156.72-1.94 157.14-1.52L157.14-1.52Q157.62-1.82 158.26-2.06Q158.90-2.30 159.60-2.30ZM173.63 4.53L173.63 4.53Q173.63 2.77 172.93 1.63Q172.23 0.50 170.80 0.50L170.80 0.50Q170.41 0.50 169.96 0.54Q169.52 0.58 169.21 0.61L169.21 0.61L169.21 7.84Q169.54 8.06 170.10 8.20Q170.66 8.34 171.22 8.34L171.22 8.34Q172.46 8.34 173.04 7.35Q173.63 6.35 173.63 4.53ZM177.13 4.42L177.13 4.42Q177.13 5.93 176.80 7.21Q176.46 8.48 175.82 9.39Q175.17 10.30 174.19 10.80Q173.21 11.31 171.92 11.31L171.92 11.31Q170.61 11.31 169.21 10.66L169.21 10.66L169.21 15.62L165.76 15.62L165.76-1.74Q166.72-2.05 168.10-2.24Q169.49-2.44 170.83-2.44L170.83-2.44Q173.88-2.44 175.51-0.59Q177.13 1.26 177.13 4.42ZM190.63 7.67L191.08 10.44Q190.99 10.50 190.70 10.64Q190.40 10.78 189.93 10.93Q189.45 11.08 188.77 11.20Q188.08 11.31 187.21 11.31L187.21 11.31Q184.83 11.31 183.74 9.89Q182.65 8.48 182.65 5.76L182.65 5.76L182.65-5.41L179.01-5.41L179.01-8.26L186.09-8.26L186.09 6.02Q186.09 7.36 186.62 7.84Q187.16 8.31 187.97 8.31L187.97 8.31Q189.00 8.31 189.70 8.03Q190.40 7.75 190.63 7.67L190.63 7.67ZM199.03 8.54L199.03 8.54Q199.59 8.54 200.12 8.52Q200.65 8.51 201.04 8.45L201.04 8.45L201.04 5.43Q200.71 5.37 200.23 5.33Q199.76 5.29 199.36 5.29L199.36 5.29Q198.83 5.29 198.33 5.36Q197.82 5.43 197.45 5.60Q197.07 5.76 196.84 6.07Q196.62 6.38 196.62 6.88L196.62 6.88Q196.62 7.78 197.29 8.16Q197.96 8.54 199.03 8.54ZM198.72-2.50L198.72-2.50Q200.34-2.50 201.42-2.12Q202.50-1.74 203.14-1.05Q203.79-0.37 204.07 0.63Q204.35 1.62 204.35 2.85L204.35 2.85L204.35 10.69Q203.59 10.86 202.11 11.08Q200.62 11.31 198.78 11.31L198.78 11.31Q197.52 11.31 196.49 11.08Q195.47 10.86 194.74 10.34Q194.02 9.82 193.62 9.00Q193.23 8.17 193.23 6.97L193.23 6.97Q193.23 5.82 193.68 5.04Q194.13 4.25 194.88 3.78Q195.64 3.30 196.62 3.09Q197.60 2.88 198.66 2.88L198.66 2.88Q200.01 2.88 201.04 3.10L201.04 3.10L201.04 2.68Q201.04 1.70 200.43 1.05Q199.81 0.39 198.30 0.39L198.30 0.39Q197.32 0.39 196.41 0.53Q195.50 0.67 194.94 0.86L194.94 0.86L194.46-1.91Q195.11-2.13 196.28-2.31Q197.46-2.50 198.72-2.50ZM210.00 6.10L210.00 0.70L207.01 0.70L207.01-2.16L210.00-2.16L210.00-5.46L213.45-6.02L213.45-2.16L218.96-2.16L218.96 0.70L213.45 0.70L213.45 6.02Q213.45 6.74 213.59 7.19Q213.73 7.64 213.98 7.89Q214.23 8.14 214.60 8.23Q214.96 8.31 215.41 8.31L215.41 8.31Q215.88 8.31 216.29 8.28Q216.70 8.26 217.07 8.19Q217.45 8.12 217.86 7.98Q218.26 7.84 218.74 7.61L218.74 7.61L219.22 10.58Q218.26 10.97 217.16 11.14Q216.05 11.31 215.02 11.31L215.02 11.31Q213.81 11.31 212.89 11.11Q211.96 10.92 211.32 10.36Q210.68 9.80 210.34 8.77Q210.00 7.75 210.00 6.10L210.00 6.10ZM220.87 4.53L220.87 4.53Q220.87 2.80 221.40 1.48Q221.93 0.16 222.80-0.72Q223.67-1.60 224.79-2.05Q225.91-2.50 227.08-2.50L227.08-2.50Q230.00-2.50 231.51-0.77Q233.02 0.95 233.02 4.25L233.02 4.25Q233.02 4.59 233.01 4.95Q232.99 5.32 232.96 5.54L232.96 5.54L224.42 5.54Q224.42 6.83 225.49 7.57Q226.55 8.31 228.23 8.31L228.23 8.31Q229.27 8.31 230.21 8.09Q231.14 7.86 231.79 7.64L231.79 7.64L232.26 10.58Q231.37 10.89 230.36 11.10Q229.35 11.31 228.09 11.31L228.09 11.31Q226.41 11.31 225.08 10.87Q223.75 10.44 222.81 9.59Q221.88 8.73 221.37 7.47Q220.87 6.21 220.87 4.53ZM224.42 3.16L229.69 3.16Q229.69 2.63 229.55 2.14Q229.41 1.65 229.10 1.26Q228.79 0.86 228.32 0.63Q227.84 0.39 227.14 0.39L227.14 0.39Q226.47 0.39 225.98 0.61Q225.49 0.84 225.17 1.23Q224.84 1.62 224.66 2.12Q224.48 2.63 224.42 3.16L224.42 3.16Z"/>
    </g>
</svg>