<?xml version="1.0" encoding="UTF-8"?>
<svg height="34" width="92.5" version="1.1" xmlns="http://www.w3.org/2000/svg">
    <rect
        height="32"
        width="90.5"
        rx="14"
        ry="14"
        x="1"
        y="1"
        fill="#e38c00"
        stroke="#000000"
        stroke-width="1"
         />
    <g transform="translate(0, 14)">
        <path fill="#000000" d="M16.50 8.48L16.50 8.48Q17.36 8.48 17.94 8.30Q18.51 8.12 18.85 7.79Q19.18 7.47 19.31 7.07Q19.44 6.66 19.44 6.24L19.44 6.24Q19.44 5.71 19.13 5.29Q18.82 4.87 18.34 4.55Q17.87 4.22 17.28 3.96Q16.69 3.69 16.10 3.47L16.10 3.47Q15.32 3.19 14.48 2.82Q13.64 2.46 12.95 1.90Q12.27 1.34 11.82 0.51Q11.37-0.31 11.37-1.54L11.37-1.54Q11.37-3.98 12.95-5.35Q14.54-6.72 17.31-6.72L17.31-6.72Q18.90-6.72 20.09-6.36Q21.28-6.00 22.10-5.55L22.10-5.55L21.09-2.89Q20.39-3.28 19.53-3.56Q18.68-3.84 17.56-3.84L17.56-3.84Q14.82-3.84 14.82-1.85L14.82-1.85Q14.82-1.35 15.10-0.97Q15.38-0.59 15.81-0.30Q16.24-0.00 16.79 0.22Q17.34 0.44 17.87 0.64L17.87 0.64Q18.68 0.95 19.56 1.33Q20.44 1.70 21.19 2.33Q21.93 2.96 22.40 3.90Q22.88 4.84 22.88 6.27L22.88 6.27Q22.88 8.70 21.30 10.03Q19.72 11.36 16.50 11.36L16.50 11.36Q14.34 11.36 13.05 10.90Q11.76 10.44 11.12 10.05L11.12 10.05L12.13 7.25Q12.88 7.70 13.93 8.09Q14.98 8.48 16.50 8.48ZM24.76 2.40L24.76 2.40Q24.76-2.08 26.41-4.36Q28.06-6.64 31-6.64L31-6.64Q34.05-6.64 35.65-4.36Q37.24-2.08 37.24 2.40L37.24 2.40Q37.24 6.32 35.98 8.58Q34.72 10.83 32.34 11.31L32.34 11.31Q32.65 12.01 33.84 12.47Q35.03 12.93 37.10 13.30L37.10 13.30L36.38 15.76Q33.10 15.31 31.43 14.26Q29.77 13.21 29.46 11.25L29.46 11.25Q27.19 10.69 25.97 8.47Q24.76 6.24 24.76 2.40ZM28.26 2.40L28.26 2.40Q28.26 3.66 28.35 4.76Q28.45 5.85 28.75 6.67Q29.04 7.50 29.57 7.98Q30.10 8.45 31 8.45L31 8.45Q31.87 8.45 32.41 7.98Q32.96 7.50 33.25 6.67Q33.55 5.85 33.65 4.76Q33.74 3.66 33.74 2.40L33.74 2.40Q33.74 1.14 33.65 0.04Q33.55-1.07 33.25-1.88Q32.96-2.69 32.43-3.17Q31.90-3.64 31-3.64L31-3.64Q30.10-3.64 29.57-3.17Q29.04-2.69 28.75-1.87Q28.45-1.04 28.35 0.05Q28.26 1.14 28.26 2.40ZM50.88 8.14L50.88 11L39.99 11L39.99-6.33L43.46-6.33L43.46 8.14L50.88 8.14ZM58.27-6.53L58.27-6.53Q61.58-6.53 63.40-5.17Q65.22-3.81 65.22-0.73L65.22-0.73Q65.22 2.38 63.38 3.76Q61.55 5.15 58.19 5.15L58.19 5.15L56.96 5.15L56.96 11L53.51 11L53.51-6.11Q54.02-6.22 54.65-6.30Q55.28-6.39 55.92-6.43Q56.56-6.47 57.18-6.50Q57.80-6.53 58.27-6.53ZM58.66-3.53L58.66-3.53Q58.36-3.53 57.81-3.52Q57.26-3.50 56.96-3.45L56.96-3.45L56.96 2.15L58.36 2.15Q60.01 2.15 60.85 1.49Q61.69 0.84 61.69-0.76L61.69-0.76Q61.69-2.27 60.86-2.90Q60.04-3.53 58.66-3.53ZM78.88 8.14L78.88 11L67.99 11L67.99-6.33L71.46-6.33L71.46 8.14L78.88 8.14Z"/>
    </g>
</svg>