<?xml version="1.0" encoding="UTF-8"?>
<svg height="322" width="187.2" version="1.1" xmlns="http://www.w3.org/2000/svg"><!--Created by Josélio de S. C. Júnior - 2021 - https://github.com/joseliojunior -->
    <rect
        height="32"
        width="185.2"
        rx="16"
        ry="16"
        x="1" y="1"
        fill="#8f0f8d"
        stroke="#ec4be9"
        stroke-width="1" />
    <g transform="translate(0, 12)">
        <path fill="#ec4be9" stroke="none" d="M25.38-3.02L25.38-3.02Q28.21-3.02 29.77-1.86Q31.33-0.70 31.33 1.94L31.33 1.94Q31.33 4.61 29.76 5.80Q28.18 6.98 25.30 6.98L25.30 6.98L24.25 6.98L24.25 12L21.30 12L21.30-2.66Q21.73-2.76 22.27-2.83Q22.81-2.90 23.36-2.94Q23.91-2.98 24.44-3Q24.97-3.02 25.38-3.02ZM25.71-0.46L25.71-0.46Q25.45-0.46 24.98-0.44Q24.51-0.43 24.25-0.38L24.25-0.38L24.25 4.42L25.45 4.42Q26.86 4.42 27.58 3.85Q28.30 3.29 28.30 1.92L28.30 1.92Q28.30 0.62 27.60 0.08Q26.89-0.46 25.71-0.46ZM43.33 6.34L43.33 6.34Q43.33 7.68 42.94 8.77Q42.56 9.86 41.86 10.66Q41.17 11.45 40.20 11.88Q39.22 12.31 38.02 12.31L38.02 12.31Q36.82 12.31 35.85 11.88Q34.88 11.45 34.17 10.66Q33.46 9.86 33.08 8.77Q32.70 7.68 32.70 6.34L32.70 6.34Q32.70 5.02 33.09 3.92Q33.49 2.83 34.20 2.05Q34.90 1.27 35.89 0.85Q36.87 0.43 38.02 0.43L38.02 0.43Q39.20 0.43 40.17 0.85Q41.14 1.27 41.85 2.05Q42.56 2.83 42.94 3.92Q43.33 5.02 43.33 6.34ZM35.70 6.36L35.70 6.36Q35.70 7.87 36.24 8.81Q36.78 9.74 37.98 9.74L37.98 9.74Q39.13 9.74 39.72 8.81Q40.30 7.87 40.30 6.36L40.30 6.36Q40.30 4.85 39.76 3.92Q39.22 3 38.02 3L38.02 3Q36.87 3 36.28 3.92Q35.70 4.85 35.70 6.36ZM53.96 12L51.73 12Q51.46 11.26 51.24 10.63Q51.01 10.01 50.80 9.42Q50.60 8.83 50.40 8.20Q50.19 7.56 49.98 6.79L49.98 6.79Q49.74 7.56 49.54 8.17Q49.35 8.78 49.15 9.38Q48.94 9.98 48.73 10.61Q48.51 11.23 48.20 12L48.20 12L45.97 12Q45.68 10.94 45.43 9.66Q45.18 8.38 44.96 6.92Q44.74 5.47 44.58 3.91Q44.41 2.35 44.26 0.72L44.26 0.72L46.78 0.72Q46.88 2.81 46.99 4.80Q47.10 6.79 47.38 8.90L47.38 8.90Q47.70 7.99 47.92 7.21Q48.15 6.43 48.33 5.72Q48.51 5.02 48.67 4.36Q48.82 3.70 48.99 3L48.99 3L51.13 3Q51.27 3.70 51.43 4.36Q51.58 5.02 51.76 5.72Q51.94 6.43 52.15 7.21Q52.35 7.99 52.64 8.90L52.64 8.90Q52.78 7.80 52.88 6.79Q52.98 5.78 53.04 4.79Q53.10 3.79 53.13 2.80Q53.17 1.80 53.22 0.72L53.22 0.72L55.74 0.72Q55.47 4.01 55.00 6.91Q54.54 9.82 53.96 12L53.96 12ZM56.74 6.46L56.74 6.46Q56.74 4.97 57.20 3.84Q57.66 2.71 58.40 1.96Q59.14 1.20 60.10 0.82Q61.06 0.43 62.07 0.43L62.07 0.43Q64.57 0.43 65.86 1.91Q67.16 3.38 67.16 6.22L67.16 6.22Q67.16 6.50 67.15 6.82Q67.14 7.13 67.11 7.32L67.11 7.32L59.79 7.32Q59.79 8.42 60.70 9.06Q61.62 9.70 63.06 9.70L63.06 9.70Q63.94 9.70 64.75 9.50Q65.55 9.31 66.10 9.12L66.10 9.12L66.51 11.64Q65.74 11.90 64.88 12.08Q64.02 12.26 62.94 12.26L62.94 12.26Q61.50 12.26 60.36 11.89Q59.22 11.52 58.41 10.79Q57.61 10.06 57.18 8.98Q56.74 7.90 56.74 6.46ZM59.79 5.28L64.30 5.28Q64.30 4.82 64.18 4.40Q64.06 3.98 63.80 3.65Q63.54 3.31 63.13 3.11Q62.72 2.90 62.12 2.90L62.12 2.90Q61.54 2.90 61.12 3.10Q60.70 3.29 60.43 3.62Q60.15 3.96 60.00 4.39Q59.84 4.82 59.79 5.28L59.79 5.28ZM79.02 0.98L78.49 3.72Q78.20 3.65 77.80 3.58Q77.41 3.50 77 3.44Q76.59 3.38 76.21 3.36Q75.82 3.34 75.56 3.34L75.56 3.34Q74.94 3.34 74.34 3.40Q73.74 3.46 73.11 3.62L73.11 3.62L73.11 12L70.14 12L70.14 1.46Q71.31 1.03 72.55 0.77Q73.78 0.50 75.44 0.50L75.44 0.50Q75.68 0.50 76.12 0.53Q76.57 0.55 77.07 0.61Q77.58 0.67 78.09 0.76Q78.61 0.84 79.02 0.98L79.02 0.98ZM91.26 7.51L91.26 7.51Q91.26 8.86 90.80 9.76Q90.34 10.66 89.56 11.20Q88.78 11.74 87.72 11.96Q86.65 12.19 85.42 12.19L85.42 12.19Q84.44 12.19 83.38 12.08Q82.33 11.98 81.30 11.76L81.30 11.76L81.30-2.66Q82.14-2.81 83.14-2.92Q84.15-3.02 85.14-3.02L85.14-3.02Q86.82-3.02 87.87-2.68Q88.93-2.33 89.53-1.76Q90.13-1.20 90.34-0.50Q90.56 0.19 90.56 0.89L90.56 0.89Q90.56 1.94 90.04 2.76Q89.53 3.58 88.66 4.06L88.66 4.06Q90.18 4.61 90.72 5.54Q91.26 6.48 91.26 7.51ZM85.83 5.50L84.25 5.50L84.25 9.53Q84.56 9.58 84.93 9.60Q85.30 9.62 85.66 9.62L85.66 9.62Q86.17 9.62 86.65 9.54Q87.13 9.46 87.50 9.23Q87.87 9 88.11 8.58Q88.35 8.16 88.35 7.51L88.35 7.51Q88.35 6.43 87.67 5.96Q86.98 5.50 85.83 5.50L85.83 5.50ZM84.25 3.05L85.40 3.05Q86.53 3.05 87.10 2.56Q87.68 2.06 87.68 1.20L87.68 1.20Q87.68 0.67 87.51 0.35Q87.34 0.02 87.06-0.16Q86.77-0.34 86.38-0.40Q86-0.46 85.59-0.46L85.59-0.46Q85.26-0.46 84.90-0.43Q84.54-0.41 84.25-0.36L84.25-0.36L84.25 3.05ZM102.51 0.72L102.51 11.62Q101.70 11.83 100.53 12.05Q99.37 12.26 98 12.26L98 12.26Q96.61 12.26 95.72 11.88Q94.83 11.50 94.32 10.79Q93.80 10.08 93.61 9.12Q93.42 8.16 93.42 7.01L93.42 7.01L93.42 0.72L96.37 0.72L96.37 6.62Q96.37 8.18 96.74 8.94Q97.11 9.70 98.19 9.70L98.19 9.70Q98.86 9.70 99.54 9.58L99.54 9.58L99.54 0.72L102.51 0.72ZM110.82-2.52L110.82-2.52Q110.82-1.66 110.26-1.15Q109.71-0.65 108.94-0.65L108.94-0.65Q108.18-0.65 107.64-1.15Q107.10-1.66 107.10-2.52L107.10-2.52Q107.10-3.41 107.64-3.91Q108.18-4.42 108.94-4.42L108.94-4.42Q109.71-4.42 110.26-3.91Q110.82-3.41 110.82-2.52ZM114.82 9.14L115.21 11.52Q114.30 11.95 113.49 12.11Q112.69 12.26 112.02 12.26L112.02 12.26Q110.86 12.26 110.08 11.93Q109.30 11.59 108.84 10.96Q108.37 10.32 108.18 9.41Q107.98 8.50 107.98 7.32L107.98 7.32L107.98 3.17L104.86 3.17L104.86 0.72L110.94 0.72L110.94 7.70Q110.94 8.71 111.31 9.20Q111.68 9.70 112.54 9.70L112.54 9.70Q112.95 9.70 113.53 9.59Q114.10 9.48 114.82 9.14L114.82 9.14ZM126.82 9.14L127.21 11.52Q127.14 11.57 126.88 11.69Q126.63 11.81 126.22 11.94Q125.82 12.07 125.23 12.17Q124.64 12.26 123.90 12.26L123.90 12.26Q121.86 12.26 120.92 11.05Q119.98 9.84 119.98 7.51L119.98 7.51L119.98-2.06L116.86-2.06L116.86-4.51L122.94-4.51L122.94 7.73Q122.94 8.88 123.39 9.29Q123.85 9.70 124.54 9.70L124.54 9.70Q125.43 9.70 126.03 9.46Q126.63 9.22 126.82 9.14L126.82 9.14ZM131.67 6.29L131.67 6.29Q131.67 7.80 132.24 8.76Q132.80 9.72 134.05 9.72L134.05 9.72Q134.41 9.72 134.72 9.70Q135.03 9.67 135.37 9.62L135.37 9.62L135.37 3.48Q135.03 3.29 134.60 3.16Q134.17 3.02 133.69 3.02L133.69 3.02Q132.63 3.02 132.15 3.86Q131.67 4.70 131.67 6.29ZM138.32-4.66L138.32 11.66Q137.50 11.93 136.33 12.10Q135.15 12.26 134.02 12.26L134.02 12.26Q131.38 12.26 130.03 10.70Q128.67 9.14 128.67 6.43L128.67 6.43Q128.67 3.67 129.81 2.08Q130.95 0.48 133.18 0.48L133.18 0.48Q133.78 0.48 134.36 0.61Q134.94 0.74 135.37 0.98L135.37 0.98L135.37-4.15L138.32-4.66ZM140.74 6.46L140.74 6.46Q140.74 4.97 141.20 3.84Q141.66 2.71 142.40 1.96Q143.14 1.20 144.10 0.82Q145.06 0.43 146.07 0.43L146.07 0.43Q148.57 0.43 149.86 1.91Q151.16 3.38 151.16 6.22L151.16 6.22Q151.16 6.50 151.15 6.82Q151.14 7.13 151.11 7.32L151.11 7.32L143.79 7.32Q143.79 8.42 144.70 9.06Q145.62 9.70 147.06 9.70L147.06 9.70Q147.94 9.70 148.75 9.50Q149.55 9.31 150.10 9.12L150.10 9.12L150.51 11.64Q149.74 11.90 148.88 12.08Q148.02 12.26 146.94 12.26L146.94 12.26Q145.50 12.26 144.36 11.89Q143.22 11.52 142.41 10.79Q141.61 10.06 141.18 8.98Q140.74 7.90 140.74 6.46ZM143.79 5.28L148.30 5.28Q148.30 4.82 148.18 4.40Q148.06 3.98 147.80 3.65Q147.54 3.31 147.13 3.11Q146.72 2.90 146.12 2.90L146.12 2.90Q145.54 2.90 145.12 3.10Q144.70 3.29 144.43 3.62Q144.15 3.96 144.00 4.39Q143.84 4.82 143.79 5.28L143.79 5.28ZM163.02 0.98L162.49 3.72Q162.20 3.65 161.80 3.58Q161.41 3.50 161 3.44Q160.59 3.38 160.21 3.36Q159.82 3.34 159.56 3.34L159.56 3.34Q158.94 3.34 158.34 3.40Q157.74 3.46 157.11 3.62L157.11 3.62L157.11 12L154.14 12L154.14 1.46Q155.31 1.03 156.55 0.77Q157.78 0.50 159.44 0.50L159.44 0.50Q159.68 0.50 160.12 0.53Q160.57 0.55 161.07 0.61Q161.58 0.67 162.09 0.76Q162.61 0.84 163.02 0.98L163.02 0.98Z"/>
    </g>
</svg>