<?xml version="1.0" encoding="UTF-8"?>
<svg height="26" width="139.2" version="1.1" xmlns="http://www.w3.org/2000/svg"><!--Created by Josélio de S. C. Júnior - 2021 - https://github.com/joseliojunior -->
    <rect
        height="24"
        width="137.2"
        rx="1"
        ry="1"
        x="1" y="1"
        fill="#8f0f8d"
        stroke="#ec4be9"
        stroke-width="1" />
    <g transform="translate(0, 8)">
        <path fill="#ec4be9" d="M23.58-0.02L23.58-0.02Q25.47-0.02 26.51 0.76Q27.55 1.54 27.55 3.30L27.55 3.30Q27.55 5.07 26.50 5.86Q25.46 6.66 23.54 6.66L23.54 6.66L22.83 6.66L22.83 10L20.86 10L20.86 0.22Q21.15 0.16 21.51 0.11Q21.87 0.06 22.24 0.04Q22.61 0.02 22.96 0Q23.31-0.02 23.58-0.02ZM23.81 1.70L23.81 1.70Q23.63 1.70 23.32 1.70Q23.01 1.71 22.83 1.74L22.83 1.74L22.83 4.94L23.63 4.94Q24.58 4.94 25.06 4.57Q25.54 4.19 25.54 3.28L25.54 3.28Q25.54 2.42 25.06 2.06Q24.59 1.70 23.81 1.70ZM35.55 6.22L35.55 6.22Q35.55 7.12 35.30 7.85Q35.04 8.58 34.58 9.10Q34.11 9.63 33.46 9.92Q32.82 10.21 32.02 10.21L32.02 10.21Q31.22 10.21 30.57 9.92Q29.92 9.63 29.45 9.10Q28.98 8.58 28.72 7.85Q28.46 7.12 28.46 6.22L28.46 6.22Q28.46 5.34 28.73 4.62Q28.99 3.89 29.46 3.37Q29.94 2.85 30.59 2.57Q31.25 2.29 32.02 2.29L32.02 2.29Q32.80 2.29 33.45 2.57Q34.10 2.85 34.57 3.37Q35.04 3.89 35.30 4.62Q35.55 5.34 35.55 6.22ZM30.46 6.24L30.46 6.24Q30.46 7.25 30.82 7.87Q31.18 8.50 31.98 8.50L31.98 8.50Q32.75 8.50 33.14 7.87Q33.54 7.25 33.54 6.24L33.54 6.24Q33.54 5.23 33.18 4.62Q32.82 4 32.02 4L32.02 4Q31.25 4 30.86 4.62Q30.46 5.23 30.46 6.24ZM42.64 10L41.15 10Q40.98 9.50 40.82 9.09Q40.67 8.67 40.54 8.28Q40.40 7.89 40.26 7.46Q40.13 7.04 39.98 6.53L39.98 6.53Q39.82 7.04 39.70 7.45Q39.57 7.86 39.43 8.26Q39.30 8.66 39.15 9.07Q39.01 9.49 38.80 10L38.80 10L37.31 10Q37.12 9.30 36.95 8.44Q36.78 7.58 36.64 6.62Q36.50 5.65 36.38 4.61Q36.27 3.57 36.18 2.48L36.18 2.48L37.86 2.48Q37.92 3.87 37.99 5.20Q38.06 6.53 38.26 7.94L38.26 7.94Q38.46 7.33 38.62 6.81Q38.77 6.29 38.89 5.82Q39.01 5.34 39.11 4.90Q39.22 4.46 39.33 4L39.33 4L40.75 4Q40.85 4.46 40.95 4.90Q41.06 5.34 41.18 5.82Q41.30 6.29 41.43 6.81Q41.57 7.33 41.76 7.94L41.76 7.94Q41.86 7.20 41.92 6.53Q41.98 5.86 42.02 5.19Q42.06 4.53 42.09 3.86Q42.11 3.20 42.14 2.48L42.14 2.48L43.82 2.48Q43.65 4.67 43.34 6.61Q43.02 8.54 42.64 10L42.64 10ZM44.50 6.30L44.50 6.30Q44.50 5.31 44.80 4.56Q45.10 3.81 45.60 3.30Q46.10 2.80 46.74 2.54Q47.38 2.29 48.05 2.29L48.05 2.29Q49.71 2.29 50.58 3.27Q51.44 4.26 51.44 6.14L51.44 6.14Q51.44 6.34 51.43 6.54Q51.42 6.75 51.41 6.88L51.41 6.88L46.53 6.88Q46.53 7.62 47.14 8.04Q47.74 8.46 48.70 8.46L48.70 8.46Q49.30 8.46 49.83 8.34Q50.37 8.21 50.74 8.08L50.74 8.08L51.01 9.76Q50.50 9.94 49.92 10.06Q49.34 10.18 48.62 10.18L48.62 10.18Q47.66 10.18 46.90 9.93Q46.14 9.68 45.61 9.19Q45.07 8.70 44.78 7.98Q44.50 7.26 44.50 6.30ZM46.53 5.52L49.54 5.52Q49.54 5.22 49.46 4.94Q49.38 4.66 49.20 4.43Q49.02 4.21 48.75 4.07Q48.48 3.94 48.08 3.94L48.08 3.94Q47.70 3.94 47.42 4.06Q47.14 4.19 46.95 4.42Q46.77 4.64 46.66 4.93Q46.56 5.22 46.53 5.52L46.53 5.52ZM59.34 2.66L58.99 4.48Q58.80 4.43 58.54 4.38Q58.27 4.34 58 4.30Q57.73 4.26 57.47 4.24Q57.22 4.22 57.04 4.22L57.04 4.22Q56.62 4.22 56.22 4.26Q55.82 4.30 55.41 4.42L55.41 4.42L55.41 10L53.42 10L53.42 2.98Q54.21 2.69 55.03 2.51Q55.86 2.34 56.96 2.34L56.96 2.34Q57.12 2.34 57.42 2.35Q57.71 2.37 58.05 2.41Q58.38 2.45 58.73 2.50Q59.07 2.56 59.34 2.66L59.34 2.66ZM67.50 7.01L67.50 7.01Q67.50 7.90 67.20 8.50Q66.90 9.10 66.38 9.46Q65.86 9.82 65.14 9.98Q64.43 10.13 63.62 10.13L63.62 10.13Q62.96 10.13 62.26 10.06Q61.55 9.98 60.86 9.84L60.86 9.84L60.86 0.22Q61.42 0.13 62.10 0.06Q62.77-0.02 63.42-0.02L63.42-0.02Q64.54-0.02 65.25 0.22Q65.95 0.45 66.35 0.82Q66.75 1.20 66.90 1.66Q67.04 2.13 67.04 2.59L67.04 2.59Q67.04 3.30 66.70 3.84Q66.35 4.38 65.78 4.70L65.78 4.70Q66.78 5.07 67.14 5.70Q67.50 6.32 67.50 7.01ZM63.89 5.66L62.83 5.66L62.83 8.35Q63.04 8.38 63.29 8.40Q63.54 8.42 63.78 8.42L63.78 8.42Q64.11 8.42 64.43 8.36Q64.75 8.30 65 8.15Q65.25 8 65.41 7.72Q65.57 7.44 65.57 7.01L65.57 7.01Q65.57 6.29 65.11 5.98Q64.66 5.66 63.89 5.66L63.89 5.66ZM62.83 4.03L63.60 4.03Q64.35 4.03 64.74 3.70Q65.12 3.38 65.12 2.80L65.12 2.80Q65.12 2.45 65.01 2.23Q64.90 2.02 64.70 1.90Q64.51 1.78 64.26 1.74Q64 1.70 63.73 1.70L63.73 1.70Q63.50 1.70 63.26 1.71Q63.02 1.73 62.83 1.76L62.83 1.76L62.83 4.03ZM75.01 2.48L75.01 9.74Q74.46 9.89 73.69 10.03Q72.91 10.18 72 10.18L72 10.18Q71.07 10.18 70.48 9.92Q69.89 9.66 69.54 9.19Q69.20 8.72 69.07 8.08Q68.94 7.44 68.94 6.67L68.94 6.67L68.94 2.48L70.91 2.48L70.91 6.42Q70.91 7.46 71.16 7.96Q71.41 8.46 72.13 8.46L72.13 8.46Q72.58 8.46 73.02 8.38L73.02 8.38L73.02 2.48L75.01 2.48ZM80.54 0.32L80.54 0.32Q80.54 0.90 80.18 1.23Q79.81 1.57 79.30 1.57L79.30 1.57Q78.78 1.57 78.42 1.23Q78.06 0.90 78.06 0.32L78.06 0.32Q78.06-0.27 78.42-0.61Q78.78-0.94 79.30-0.94L79.30-0.94Q79.81-0.94 80.18-0.61Q80.54-0.27 80.54 0.32ZM83.22 8.10L83.47 9.68Q82.86 9.97 82.33 10.07Q81.79 10.18 81.34 10.18L81.34 10.18Q80.58 10.18 80.06 9.95Q79.54 9.73 79.22 9.30Q78.91 8.88 78.78 8.27Q78.66 7.66 78.66 6.88L78.66 6.88L78.66 4.11L76.58 4.11L76.58 2.48L80.62 2.48L80.62 7.14Q80.62 7.81 80.87 8.14Q81.12 8.46 81.70 8.46L81.70 8.46Q81.97 8.46 82.35 8.39Q82.74 8.32 83.22 8.10L83.22 8.10ZM91.22 8.10L91.47 9.68Q91.42 9.71 91.26 9.79Q91.09 9.87 90.82 9.96Q90.54 10.05 90.15 10.11Q89.76 10.18 89.26 10.18L89.26 10.18Q87.90 10.18 87.28 9.37Q86.66 8.56 86.66 7.01L86.66 7.01L86.66 0.62L84.58 0.62L84.58-1.01L88.62-1.01L88.62 7.15Q88.62 7.92 88.93 8.19Q89.23 8.46 89.70 8.46L89.70 8.46Q90.29 8.46 90.69 8.30Q91.09 8.14 91.22 8.10L91.22 8.10ZM94.45 6.19L94.45 6.19Q94.45 7.20 94.82 7.84Q95.20 8.48 96.03 8.48L96.03 8.48Q96.27 8.48 96.48 8.46Q96.69 8.45 96.91 8.42L96.91 8.42L96.91 4.32Q96.69 4.19 96.40 4.10Q96.11 4.02 95.79 4.02L95.79 4.02Q95.09 4.02 94.77 4.58Q94.45 5.14 94.45 6.19ZM98.88-1.10L98.88 9.78Q98.34 9.95 97.55 10.06Q96.77 10.18 96.02 10.18L96.02 10.18Q94.26 10.18 93.35 9.14Q92.45 8.10 92.45 6.29L92.45 6.29Q92.45 4.45 93.21 3.38Q93.97 2.32 95.46 2.32L95.46 2.32Q95.86 2.32 96.24 2.41Q96.62 2.50 96.91 2.66L96.91 2.66L96.91-0.77L98.88-1.10ZM100.50 6.30L100.50 6.30Q100.50 5.31 100.80 4.56Q101.10 3.81 101.60 3.30Q102.10 2.80 102.74 2.54Q103.38 2.29 104.05 2.29L104.05 2.29Q105.71 2.29 106.58 3.27Q107.44 4.26 107.44 6.14L107.44 6.14Q107.44 6.34 107.43 6.54Q107.42 6.75 107.41 6.88L107.41 6.88L102.53 6.88Q102.53 7.62 103.14 8.04Q103.74 8.46 104.70 8.46L104.70 8.46Q105.30 8.46 105.83 8.34Q106.37 8.21 106.74 8.08L106.74 8.08L107.01 9.76Q106.50 9.94 105.92 10.06Q105.34 10.18 104.62 10.18L104.62 10.18Q103.66 10.18 102.90 9.93Q102.14 9.68 101.61 9.19Q101.07 8.70 100.78 7.98Q100.50 7.26 100.50 6.30ZM102.53 5.52L105.54 5.52Q105.54 5.22 105.46 4.94Q105.38 4.66 105.20 4.43Q105.02 4.21 104.75 4.07Q104.48 3.94 104.08 3.94L104.08 3.94Q103.70 3.94 103.42 4.06Q103.14 4.19 102.95 4.42Q102.77 4.64 102.66 4.93Q102.56 5.22 102.53 5.52L102.53 5.52ZM115.34 2.66L114.99 4.48Q114.80 4.43 114.54 4.38Q114.27 4.34 114 4.30Q113.73 4.26 113.47 4.24Q113.22 4.22 113.04 4.22L113.04 4.22Q112.62 4.22 112.22 4.26Q111.82 4.30 111.41 4.42L111.41 4.42L111.41 10L109.42 10L109.42 2.98Q110.21 2.69 111.03 2.51Q111.86 2.34 112.96 2.34L112.96 2.34Q113.12 2.34 113.42 2.35Q113.71 2.37 114.05 2.41Q114.38 2.45 114.73 2.50Q115.07 2.56 115.34 2.66L115.34 2.66Z"/>
    </g>
</svg>