<?xml version="1.0" encoding="UTF-8"?>
<svg height="34" width="199.29999999999998" version="1.1" xmlns="http://www.w3.org/2000/svg">
    <rect
        height="32"
        width="197.29999999999998"
        rx="1"
        ry="1"
        x="1"
        y="1"
        fill="#6f8042"
        stroke="#171b0e"
        stroke-width="1"
         />
    <g transform="translate(0, 12)">
        <path fill="#171b0e" d="M31.74 12L28.40 12Q28.14 11.16 27.64 10.19Q27.15 9.22 26.55 8.29Q25.95 7.37 25.29 6.56Q24.63 5.76 24.03 5.21L24.03 5.21L24.03 12L21.08 12L21.08-2.86L24.03-2.86L24.03 3.31Q24.56 2.64 25.14 1.82Q25.71 1.01 26.23 0.19Q26.74-0.62 27.18-1.42Q27.61-2.21 27.90-2.86L27.90-2.86L31.23-2.86Q30.90-2.21 30.43-1.38Q29.96-0.55 29.36 0.35Q28.76 1.25 28.08 2.18Q27.39 3.12 26.65 3.98L26.65 3.98Q27.39 4.70 28.16 5.64Q28.93 6.58 29.61 7.64Q30.30 8.71 30.85 9.83Q31.40 10.94 31.74 12L31.74 12ZM38.02 9.89L38.02 9.89Q38.50 9.89 38.96 9.88Q39.42 9.86 39.75 9.82L39.75 9.82L39.75 7.22Q39.46 7.18 39.06 7.14Q38.65 7.10 38.31 7.10L38.31 7.10Q37.86 7.10 37.42 7.16Q36.99 7.22 36.67 7.37Q36.34 7.51 36.15 7.78Q35.96 8.04 35.96 8.47L35.96 8.47Q35.96 9.24 36.54 9.56Q37.11 9.89 38.02 9.89ZM37.76 0.43L37.76 0.43Q39.15 0.43 40.08 0.76Q41 1.08 41.55 1.67Q42.10 2.26 42.34 3.11Q42.58 3.96 42.58 5.02L42.58 5.02L42.58 11.74Q41.94 11.88 40.66 12.07Q39.39 12.26 37.81 12.26L37.81 12.26Q36.73 12.26 35.85 12.07Q34.98 11.88 34.35 11.44Q33.73 10.99 33.39 10.28Q33.06 9.58 33.06 8.54L33.06 8.54Q33.06 7.56 33.44 6.89Q33.82 6.22 34.47 5.81Q35.12 5.40 35.96 5.22Q36.80 5.04 37.71 5.04L37.71 5.04Q38.86 5.04 39.75 5.23L39.75 5.23L39.75 4.87Q39.75 4.03 39.22 3.47Q38.70 2.90 37.40 2.90L37.40 2.90Q36.56 2.90 35.78 3.02Q35 3.14 34.52 3.31L34.52 3.31L34.11 0.94Q34.66 0.74 35.67 0.59Q36.68 0.43 37.76 0.43ZM48.49-4.66L48.49 5.18Q48.92 4.68 49.36 4.12Q49.81 3.55 50.23 2.95Q50.65 2.35 51.03 1.79Q51.42 1.22 51.70 0.72L51.70 0.72L55.26 0.72Q54.82 1.27 54.27 1.92Q53.72 2.57 53.13 3.24Q52.54 3.91 51.96 4.54Q51.37 5.16 50.89 5.69L50.89 5.69Q51.49 6.26 52.18 7.07Q52.88 7.87 53.55 8.74Q54.22 9.60 54.79 10.46Q55.35 11.33 55.69 12L55.69 12L52.30 12Q52.02 11.40 51.55 10.64Q51.08 9.89 50.55 9.16Q50.02 8.42 49.48 7.76Q48.94 7.10 48.49 6.67L48.49 6.67L48.49 12L45.51 12L45.51-4.15L48.49-4.66ZM67.33 6.34L67.33 6.34Q67.33 7.68 66.94 8.77Q66.56 9.86 65.86 10.66Q65.17 11.45 64.20 11.88Q63.22 12.31 62.02 12.31L62.02 12.31Q60.82 12.31 59.85 11.88Q58.88 11.45 58.17 10.66Q57.46 9.86 57.08 8.77Q56.70 7.68 56.70 6.34L56.70 6.34Q56.70 5.02 57.09 3.92Q57.49 2.83 58.20 2.05Q58.90 1.27 59.89 0.85Q60.87 0.43 62.02 0.43L62.02 0.43Q63.20 0.43 64.17 0.85Q65.14 1.27 65.85 2.05Q66.56 2.83 66.94 3.92Q67.33 5.02 67.33 6.34ZM59.70 6.36L59.70 6.36Q59.70 7.87 60.24 8.81Q60.78 9.74 61.98 9.74L61.98 9.74Q63.13 9.74 63.72 8.81Q64.30 7.87 64.30 6.36L64.30 6.36Q64.30 4.85 63.76 3.92Q63.22 3 62.02 3L62.02 3Q60.87 3 60.28 3.92Q59.70 4.85 59.70 6.36ZM78.51 0.72L78.51 11.62Q77.70 11.83 76.53 12.05Q75.37 12.26 74 12.26L74 12.26Q72.61 12.26 71.72 11.88Q70.83 11.50 70.32 10.79Q69.80 10.08 69.61 9.12Q69.42 8.16 69.42 7.01L69.42 7.01L69.42 0.72L72.37 0.72L72.37 6.62Q72.37 8.18 72.74 8.94Q73.11 9.70 74.19 9.70L74.19 9.70Q74.86 9.70 75.54 9.58L75.54 9.58L75.54 0.72L78.51 0.72ZM81.51 12L81.51 1.08Q82.30 0.86 83.47 0.67Q84.63 0.48 86 0.48L86 0.48Q87.34 0.48 88.23 0.85Q89.12 1.22 89.64 1.91Q90.15 2.59 90.37 3.54Q90.58 4.49 90.58 5.64L90.58 5.64L90.58 12L87.63 12L87.63 6.02Q87.63 4.44 87.27 3.74Q86.91 3.05 85.81 3.05L85.81 3.05Q85.47 3.05 85.15 3.07Q84.82 3.10 84.46 3.14L84.46 3.14L84.46 12L81.51 12ZM92.74 6.46L92.74 6.46Q92.74 4.97 93.20 3.84Q93.66 2.71 94.40 1.96Q95.14 1.20 96.10 0.82Q97.06 0.43 98.07 0.43L98.07 0.43Q100.57 0.43 101.86 1.91Q103.16 3.38 103.16 6.22L103.16 6.22Q103.16 6.50 103.15 6.82Q103.14 7.13 103.11 7.32L103.11 7.32L95.79 7.32Q95.79 8.42 96.70 9.06Q97.62 9.70 99.06 9.70L99.06 9.70Q99.94 9.70 100.75 9.50Q101.55 9.31 102.10 9.12L102.10 9.12L102.51 11.64Q101.74 11.90 100.88 12.08Q100.02 12.26 98.94 12.26L98.94 12.26Q97.50 12.26 96.36 11.89Q95.22 11.52 94.41 10.79Q93.61 10.06 93.18 8.98Q92.74 7.90 92.74 6.46ZM95.79 5.28L100.30 5.28Q100.30 4.82 100.18 4.40Q100.06 3.98 99.80 3.65Q99.54 3.31 99.13 3.11Q98.72 2.90 98.12 2.90L98.12 2.90Q97.54 2.90 97.12 3.10Q96.70 3.29 96.43 3.62Q96.15 3.96 96.00 4.39Q95.84 4.82 95.79 5.28L95.79 5.28ZM109.57 9.84L109.57 9.84Q110.31 9.84 110.80 9.68Q111.30 9.53 111.58 9.25Q111.87 8.98 111.98 8.63Q112.09 8.28 112.09 7.92L112.09 7.92Q112.09 7.46 111.82 7.10Q111.56 6.74 111.15 6.47Q110.74 6.19 110.24 5.96Q109.74 5.74 109.23 5.54L109.23 5.54Q108.56 5.30 107.84 4.99Q107.12 4.68 106.53 4.20Q105.94 3.72 105.56 3.01Q105.18 2.30 105.18 1.25L105.18 1.25Q105.18-0.84 106.53-2.02Q107.89-3.19 110.26-3.19L110.26-3.19Q111.63-3.19 112.65-2.88Q113.67-2.57 114.37-2.18L114.37-2.18L113.50 0.10Q112.90-0.24 112.17-0.48Q111.44-0.72 110.48-0.72L110.48-0.72Q108.13-0.72 108.13 0.98L108.13 0.98Q108.13 1.42 108.37 1.74Q108.61 2.06 108.98 2.32Q109.35 2.57 109.82 2.76Q110.29 2.95 110.74 3.12L110.74 3.12Q111.44 3.38 112.20 3.71Q112.95 4.03 113.59 4.57Q114.22 5.11 114.63 5.92Q115.04 6.72 115.04 7.94L115.04 7.94Q115.04 10.03 113.68 11.17Q112.33 12.31 109.57 12.31L109.57 12.31Q107.72 12.31 106.62 11.92Q105.51 11.52 104.96 11.18L104.96 11.18L105.82 8.78Q106.47 9.17 107.37 9.50Q108.27 9.84 109.57 9.84ZM117.06 6.36L117.06 6.36Q117.06 5.14 117.44 4.06Q117.82 2.98 118.62 2.17Q119.41 1.37 120.62 0.90Q121.83 0.43 123.51 0.43L123.51 0.43Q124.52 0.43 125.34 0.58Q126.15 0.72 126.99 1.06L126.99 1.06L126.34 3.43Q125.86 3.26 125.28 3.13Q124.69 3 123.78 3L123.78 3Q122.72 3 122.01 3.25Q121.30 3.50 120.87 3.95Q120.44 4.39 120.25 5.02Q120.06 5.64 120.06 6.36L120.06 6.36Q120.06 7.92 120.93 8.81Q121.81 9.70 123.92 9.70L123.92 9.70Q124.62 9.70 125.37 9.60Q126.13 9.50 126.75 9.29L126.75 9.29L127.18 11.71Q126.56 11.95 125.67 12.11Q124.78 12.26 123.58 12.26L123.58 12.26Q121.86 12.26 120.62 11.81Q119.38 11.35 118.59 10.56Q117.80 9.77 117.43 8.69Q117.06 7.61 117.06 6.36ZM139.02 0.98L138.49 3.72Q138.20 3.65 137.80 3.58Q137.41 3.50 137 3.44Q136.59 3.38 136.21 3.36Q135.82 3.34 135.56 3.34L135.56 3.34Q134.94 3.34 134.34 3.40Q133.74 3.46 133.11 3.62L133.11 3.62L133.11 12L130.14 12L130.14 1.46Q131.31 1.03 132.55 0.77Q133.78 0.50 135.44 0.50L135.44 0.50Q135.68 0.50 136.12 0.53Q136.57 0.55 137.07 0.61Q137.58 0.67 138.09 0.76Q138.61 0.84 139.02 0.98L139.02 0.98ZM146.82-2.52L146.82-2.52Q146.82-1.66 146.26-1.15Q145.71-0.65 144.94-0.65L144.94-0.65Q144.18-0.65 143.64-1.15Q143.10-1.66 143.10-2.52L143.10-2.52Q143.10-3.41 143.64-3.91Q144.18-4.42 144.94-4.42L144.94-4.42Q145.71-4.42 146.26-3.91Q146.82-3.41 146.82-2.52ZM150.82 9.14L151.21 11.52Q150.30 11.95 149.49 12.11Q148.69 12.26 148.02 12.26L148.02 12.26Q146.86 12.26 146.08 11.93Q145.30 11.59 144.84 10.96Q144.37 10.32 144.18 9.41Q143.98 8.50 143.98 7.32L143.98 7.32L143.98 3.17L140.86 3.17L140.86 0.72L146.94 0.72L146.94 7.70Q146.94 8.71 147.31 9.20Q147.68 9.70 148.54 9.70L148.54 9.70Q148.95 9.70 149.53 9.59Q150.10 9.48 150.82 9.14L150.82 9.14ZM160.26 6.46L160.26 6.46Q160.26 4.94 159.66 3.97Q159.06 3 157.83 3L157.83 3Q157.50 3 157.11 3.04Q156.73 3.07 156.46 3.10L156.46 3.10L156.46 9.29Q156.75 9.48 157.23 9.60Q157.71 9.72 158.19 9.72L158.19 9.72Q159.25 9.72 159.75 8.87Q160.26 8.02 160.26 6.46ZM163.26 6.36L163.26 6.36Q163.26 7.66 162.97 8.75Q162.68 9.84 162.13 10.62Q161.58 11.40 160.74 11.83Q159.90 12.26 158.79 12.26L158.79 12.26Q157.66 12.26 156.46 11.71L156.46 11.71L156.46 15.96L153.51 15.96L153.51 1.08Q154.33 0.82 155.52 0.65Q156.70 0.48 157.86 0.48L157.86 0.48Q160.47 0.48 161.86 2.06Q163.26 3.65 163.26 6.36ZM167.43 7.80L167.43 3.17L164.86 3.17L164.86 0.72L167.43 0.72L167.43-2.11L170.38-2.59L170.38 0.72L175.11 0.72L175.11 3.17L170.38 3.17L170.38 7.73Q170.38 8.35 170.50 8.74Q170.62 9.12 170.84 9.34Q171.06 9.55 171.37 9.62Q171.68 9.70 172.06 9.70L172.06 9.70Q172.47 9.70 172.82 9.67Q173.17 9.65 173.49 9.59Q173.82 9.53 174.16 9.41Q174.51 9.29 174.92 9.10L174.92 9.10L175.33 11.64Q174.51 11.98 173.56 12.12Q172.62 12.26 171.73 12.26L171.73 12.26Q170.70 12.26 169.90 12.10Q169.11 11.93 168.56 11.45Q168.01 10.97 167.72 10.09Q167.43 9.22 167.43 7.80L167.43 7.80Z"/>
    </g>
</svg>