<?xml version="1.0" encoding="UTF-8"?>
<svg height="26" width="74.4" version="1.1" xmlns="http://www.w3.org/2000/svg"><!--Created by Josélio de S. C. Júnior - 2021 - https://github.com/joseliojunior -->
    <defs>
        <pattern id="pattern"
                x="3" y="3" width="6" height="6"
                patternUnits="userSpaceOnUse"
                patternTransform="rotate(45)" >
            <rect height="6" width="6"
                fill="#ffffff"/>
            <line x1="0" y1="0" x2="0" y2="6"
                stroke="#888888"
                stroke-width="2" />
        </pattern>
    </defs>
    <rect
        height="24"
        width="72.4"
        rx="12"
        ry="12"
        x="1" y="1"
        fill="url(#pattern)" />
    <g transform="translate(0, 8)">
        <path fill="#000000" d="M23.71 8.56L23.71 8.56Q24.21 8.56 24.54 8.46Q24.86 8.35 25.06 8.17Q25.25 7.98 25.32 7.75Q25.39 7.52 25.39 7.28L25.39 7.28Q25.39 6.98 25.22 6.74Q25.04 6.50 24.77 6.31Q24.50 6.13 24.16 5.98Q23.82 5.82 23.49 5.70L23.49 5.70Q23.04 5.54 22.56 5.33Q22.08 5.12 21.69 4.80Q21.30 4.48 21.04 4.01Q20.78 3.54 20.78 2.83L20.78 2.83Q20.78 1.44 21.69 0.66Q22.59-0.13 24.18-0.13L24.18-0.13Q25.09-0.13 25.77 0.08Q26.45 0.29 26.91 0.54L26.91 0.54L26.34 2.06Q25.94 1.84 25.45 1.68Q24.96 1.52 24.32 1.52L24.32 1.52Q22.75 1.52 22.75 2.66L22.75 2.66Q22.75 2.94 22.91 3.16Q23.07 3.38 23.32 3.54Q23.57 3.71 23.88 3.84Q24.19 3.97 24.50 4.08L24.50 4.08Q24.96 4.26 25.46 4.47Q25.97 4.69 26.39 5.05Q26.82 5.41 27.09 5.94Q27.36 6.48 27.36 7.30L27.36 7.30Q27.36 8.69 26.46 9.45Q25.55 10.21 23.71 10.21L23.71 10.21Q22.48 10.21 21.74 9.94Q21.01 9.68 20.64 9.46L20.64 9.46L21.22 7.86Q21.65 8.11 22.25 8.34Q22.85 8.56 23.71 8.56ZM31.30 3.60L32.74 3.60Q32.80 3.90 32.93 4.35Q33.06 4.80 33.21 5.34Q33.36 5.89 33.54 6.51Q33.73 7.14 33.90 7.79L33.90 7.79Q33.90 6.96 33.89 6.01Q33.87 5.06 33.86 4.06Q33.84 3.07 33.82 2.06Q33.81 1.04 33.81 0.10L33.81 0.10L35.63 0.10Q35.58 1.31 35.54 2.60Q35.49 3.89 35.42 5.16Q35.36 6.43 35.27 7.66Q35.18 8.90 35.07 10L35.07 10L33.44 10Q33.09 8.99 32.74 7.83Q32.38 6.67 32.03 5.62L32.03 5.62Q31.68 6.62 31.30 7.81Q30.91 8.99 30.59 10L30.59 10L28.96 10Q28.83 8.90 28.74 7.66Q28.64 6.42 28.57 5.14Q28.50 3.87 28.45 2.58Q28.40 1.30 28.37 0.10L28.37 0.10L30.19 0.10Q30.18 1.04 30.16 2.05Q30.14 3.06 30.13 4.06Q30.11 5.06 30.10 6.01Q30.08 6.96 30.08 7.79L30.08 7.79Q30.22 7.28 30.41 6.67Q30.59 6.06 30.76 5.47Q30.93 4.88 31.07 4.38Q31.22 3.89 31.30 3.60L31.30 3.60ZM43.15 10L36.86 10L36.86 8.37L39.02 8.37L39.02 1.73L36.86 1.73L36.86 0.10L43.15 0.10L43.15 1.73L41.01 1.73L41.01 8.37L43.15 8.37L43.15 10ZM48.99 1.58L48.99 1.58Q48.29 1.58 47.81 1.84Q47.33 2.10 47.02 2.55Q46.70 3.01 46.57 3.64Q46.43 4.27 46.43 5.04L46.43 5.04Q46.43 6.82 46.99 7.66Q47.55 8.50 48.64 8.50L48.64 8.50Q48.82 8.50 49.02 8.48Q49.23 8.46 49.41 8.43L49.41 8.43L49.41 4.82L51.38 4.82L51.38 9.76Q51.02 9.89 50.28 10.05Q49.54 10.21 48.48 10.21L48.48 10.21Q47.55 10.21 46.81 9.88Q46.06 9.55 45.54 8.90Q45.01 8.26 44.72 7.29Q44.43 6.32 44.43 5.04L44.43 5.04Q44.43 3.78 44.77 2.81Q45.10 1.84 45.68 1.18Q46.26 0.53 47.04 0.20Q47.82-0.13 48.72-0.13L48.72-0.13Q49.30-0.13 49.75-0.04Q50.21 0.05 50.54 0.16Q50.88 0.27 51.10 0.40Q51.31 0.53 51.42 0.59L51.42 0.59L50.91 2.16Q50.56 1.94 50.05 1.76Q49.54 1.58 48.99 1.58Z"/>
    </g>
</svg>