<?xml version="1.0" encoding="UTF-8"?>
<svg height="34" width="138.8" version="1.1" xmlns="http://www.w3.org/2000/svg"><!--Created by Josélio de S. C. Júnior - 2021 - https://github.com/joseliojunior -->
    <defs>
        <pattern id="pattern"
                x="3" y="3" width="6" height="6"
                patternUnits="userSpaceOnUse"
                patternTransform="rotate(45)" >
            <rect height="6" width="6"
                fill="#ffffff"/>
            <line x1="0" y1="0" x2="0" y2="6"
                stroke="#888888"
                stroke-width="2" />
        </pattern>
    </defs>
    <rect
        height="32"
        width="136.8"
        rx="16"
        ry="16"
        x="1" y="1"
        fill="url(#pattern)" />
    <g transform="translate(0, 12)">
        <path fill="#000000" d="M25.38-3.02L25.38-3.02Q28.21-3.02 29.77-1.86Q31.33-0.70 31.33 1.94L31.33 1.94Q31.33 4.61 29.76 5.80Q28.18 6.98 25.30 6.98L25.30 6.98L24.25 6.98L24.25 12L21.30 12L21.30-2.66Q21.73-2.76 22.27-2.83Q22.81-2.90 23.36-2.94Q23.91-2.98 24.44-3Q24.97-3.02 25.38-3.02ZM25.71-0.46L25.71-0.46Q25.45-0.46 24.98-0.44Q24.51-0.43 24.25-0.38L24.25-0.38L24.25 4.42L25.45 4.42Q26.86 4.42 27.58 3.85Q28.30 3.29 28.30 1.92L28.30 1.92Q28.30 0.62 27.60 0.08Q26.89-0.46 25.71-0.46ZM42.82 9.14L43.21 11.52Q43.14 11.57 42.88 11.69Q42.63 11.81 42.22 11.94Q41.82 12.07 41.23 12.17Q40.64 12.26 39.90 12.26L39.90 12.26Q37.86 12.26 36.92 11.05Q35.98 9.84 35.98 7.51L35.98 7.51L35.98-2.06L32.86-2.06L32.86-4.51L38.94-4.51L38.94 7.73Q38.94 8.88 39.39 9.29Q39.85 9.70 40.54 9.70L40.54 9.70Q41.43 9.70 42.03 9.46Q42.63 9.22 42.82 9.14L42.82 9.14ZM50.02 9.89L50.02 9.89Q50.50 9.89 50.96 9.88Q51.42 9.86 51.75 9.82L51.75 9.82L51.75 7.22Q51.46 7.18 51.06 7.14Q50.65 7.10 50.31 7.10L50.31 7.10Q49.86 7.10 49.42 7.16Q48.99 7.22 48.67 7.37Q48.34 7.51 48.15 7.78Q47.96 8.04 47.96 8.47L47.96 8.47Q47.96 9.24 48.54 9.56Q49.11 9.89 50.02 9.89ZM49.76 0.43L49.76 0.43Q51.15 0.43 52.08 0.76Q53 1.08 53.55 1.67Q54.10 2.26 54.34 3.11Q54.58 3.96 54.58 5.02L54.58 5.02L54.58 11.74Q53.94 11.88 52.66 12.07Q51.39 12.26 49.81 12.26L49.81 12.26Q48.73 12.26 47.85 12.07Q46.98 11.88 46.35 11.44Q45.73 10.99 45.39 10.28Q45.06 9.58 45.06 8.54L45.06 8.54Q45.06 7.56 45.44 6.89Q45.82 6.22 46.47 5.81Q47.12 5.40 47.96 5.22Q48.80 5.04 49.71 5.04L49.71 5.04Q50.86 5.04 51.75 5.23L51.75 5.23L51.75 4.87Q51.75 4.03 51.22 3.47Q50.70 2.90 49.40 2.90L49.40 2.90Q48.56 2.90 47.78 3.02Q47 3.14 46.52 3.31L46.52 3.31L46.11 0.94Q46.66 0.74 47.67 0.59Q48.68 0.43 49.76 0.43ZM57.51 12L57.51 1.08Q58.30 0.86 59.47 0.67Q60.63 0.48 62 0.48L62 0.48Q63.34 0.48 64.23 0.85Q65.12 1.22 65.64 1.91Q66.15 2.59 66.37 3.54Q66.58 4.49 66.58 5.64L66.58 5.64L66.58 12L63.63 12L63.63 6.02Q63.63 4.44 63.27 3.74Q62.91 3.05 61.81 3.05L61.81 3.05Q61.47 3.05 61.15 3.07Q60.82 3.10 60.46 3.14L60.46 3.14L60.46 12L57.51 12ZM71.43 7.80L71.43 3.17L68.86 3.17L68.86 0.72L71.43 0.72L71.43-2.11L74.38-2.59L74.38 0.72L79.11 0.72L79.11 3.17L74.38 3.17L74.38 7.73Q74.38 8.35 74.50 8.74Q74.62 9.12 74.84 9.34Q75.06 9.55 75.37 9.62Q75.68 9.70 76.06 9.70L76.06 9.70Q76.47 9.70 76.82 9.67Q77.17 9.65 77.49 9.59Q77.82 9.53 78.16 9.41Q78.51 9.29 78.92 9.10L78.92 9.10L79.33 11.64Q78.51 11.98 77.56 12.12Q76.62 12.26 75.73 12.26L75.73 12.26Q74.70 12.26 73.90 12.10Q73.11 11.93 72.56 11.45Q72.01 10.97 71.72 10.09Q71.43 9.22 71.43 7.80L71.43 7.80ZM85.95 12.31L85.95 12.31Q84.51 12.31 83.54 11.92Q82.57 11.52 81.99 10.78Q81.42 10.03 81.18 8.98Q80.94 7.92 80.94 6.62L80.94 6.62L80.94-2.86L83.91-2.86L83.91 6.43Q83.91 7.37 84.01 8.00Q84.10 8.64 84.33 9.02Q84.56 9.41 84.97 9.58Q85.38 9.74 86 9.74L86 9.74Q86.62 9.74 87.03 9.58Q87.44 9.41 87.68 9.01Q87.92 8.62 88.02 7.98Q88.11 7.34 88.11 6.41L88.11 6.41L88.11-2.86L91.06-2.86L91.06 6.62Q91.06 7.92 90.82 8.98Q90.58 10.03 89.98 10.78Q89.38 11.52 88.40 11.92Q87.42 12.31 85.95 12.31ZM93.42-2.86L95.86-2.86Q96.03-2.35 96.28-1.56Q96.54-0.77 96.82 0.14Q97.11 1.06 97.40 1.99Q97.69 2.93 97.95 3.72L97.95 3.72Q98.24 2.83 98.55 1.88Q98.86 0.94 99.15 0.06Q99.44-0.82 99.68-1.58Q99.92-2.35 100.11-2.86L100.11-2.86L102.56-2.86Q102.73-0.91 102.88 0.94Q103.04 2.78 103.15 4.60Q103.26 6.41 103.33 8.24Q103.40 10.08 103.45 12L103.45 12L100.74 12L100.88 0.46L99.06 6.74L96.90 6.74L95.14 0.46L95.26 12L92.55 12Q92.62 10.18 92.71 8.21Q92.79 6.24 92.89 4.30Q92.98 2.35 93.12 0.53Q93.25-1.30 93.42-2.86L93.42-2.86ZM115.04 9.55L115.04 12L105.70 12L105.70-2.86L108.68-2.86L108.68 9.55L115.04 9.55Z"/>
    </g>
</svg>