<?xml version="1.0" encoding="UTF-8"?>
<svg height="26" width="58.2" version="1.1" xmlns="http://www.w3.org/2000/svg"><!--Created by Josélio de S. C. Júnior - 2021 - https://github.com/joseliojunior -->
    <rect
        height="24"
        width="56.2"
        rx="12"
        ry="12"
        x="1" y="1"
        fill="#913960"
        stroke="#250e18"
        stroke-width="1" />
    <g transform="translate(0, 8)">
        <path fill="#250e18" stroke="none" d="M20.50 6.30L20.50 6.30Q20.50 5.31 20.80 4.56Q21.10 3.81 21.60 3.30Q22.10 2.80 22.74 2.54Q23.38 2.29 24.05 2.29L24.05 2.29Q25.71 2.29 26.58 3.27Q27.44 4.26 27.44 6.14L27.44 6.14Q27.44 6.34 27.43 6.54Q27.42 6.75 27.41 6.88L27.41 6.88L22.53 6.88Q22.53 7.62 23.14 8.04Q23.74 8.46 24.70 8.46L24.70 8.46Q25.30 8.46 25.83 8.34Q26.37 8.21 26.74 8.08L26.74 8.08L27.01 9.76Q26.50 9.94 25.92 10.06Q25.34 10.18 24.62 10.18L24.62 10.18Q23.66 10.18 22.90 9.93Q22.14 9.68 21.61 9.19Q21.07 8.70 20.78 7.98Q20.50 7.26 20.50 6.30ZM22.53 5.52L25.54 5.52Q25.54 5.22 25.46 4.94Q25.38 4.66 25.20 4.43Q25.02 4.21 24.75 4.07Q24.48 3.94 24.08 3.94L24.08 3.94Q23.70 3.94 23.42 4.06Q23.14 4.19 22.95 4.42Q22.77 4.64 22.66 4.93Q22.56 5.22 22.53 5.52L22.53 5.52ZM32.74 10.21L32.74 10.21Q30.64 10.21 29.54 8.86Q28.43 7.52 28.43 5.04L28.43 5.04Q28.43 3.81 28.77 2.85Q29.10 1.89 29.70 1.22Q30.30 0.56 31.13 0.22Q31.95-0.13 32.93-0.13L32.93-0.13Q33.46-0.13 33.88-0.04Q34.30 0.05 34.62 0.16Q34.94 0.27 35.16 0.40Q35.38 0.53 35.49 0.59L35.49 0.59L34.98 2.16Q34.61 1.92 34.09 1.75Q33.57 1.58 32.90 1.58L32.90 1.58Q32.43 1.58 31.99 1.75Q31.55 1.92 31.21 2.31Q30.86 2.70 30.65 3.36Q30.43 4.02 30.43 4.99L30.43 4.99Q30.43 6.69 31.02 7.59Q31.60 8.50 32.93 8.50L32.93 8.50Q33.70 8.50 34.20 8.32Q34.70 8.14 35.01 7.97L35.01 7.97L35.50 9.52Q35.09 9.78 34.38 9.99Q33.66 10.21 32.74 10.21Z"/>
    </g>
</svg>