<?xml version="1.0" encoding="UTF-8"?><svg height="34" width="66.2" version="1.1" xmlns="http://www.w3.org/2000/svg"><!--Created by Josélio de S. C. Júnior - 2021 - https://github.com/joseliojunior --><rect height="32" width="64.2" rx="16" ry="16" x="1" y="1" fill="#913960" stroke="#250e18" stroke-width="1" /><g transform="translate(0, 12)"><path fill="#250e18" d="M20.74 6.46L20.74 6.46Q20.74 4.97 21.20 3.84Q21.66 2.71 22.40 1.96Q23.14 1.20 24.10 0.82Q25.06 0.43 26.07 0.43L26.07 0.43Q28.57 0.43 29.86 1.91Q31.16 3.38 31.16 6.22L31.16 6.22Q31.16 6.50 31.15 6.82Q31.14 7.13 31.11 7.32L31.11 7.32L23.79 7.32Q23.79 8.42 24.70 9.06Q25.62 9.70 27.06 9.70L27.06 9.70Q27.94 9.70 28.75 9.50Q29.55 9.31 30.10 9.12L30.10 9.12L30.51 11.64Q29.74 11.90 28.88 12.08Q28.02 12.26 26.94 12.26L26.94 12.26Q25.50 12.26 24.36 11.89Q23.22 11.52 22.41 10.79Q21.61 10.06 21.18 8.98Q20.74 7.90 20.74 6.46ZM23.79 5.28L28.30 5.28Q28.30 4.82 28.18 4.40Q28.06 3.98 27.80 3.65Q27.54 3.31 27.13 3.11Q26.72 2.90 26.12 2.90L26.12 2.90Q25.54 2.90 25.12 3.10Q24.70 3.29 24.43 3.62Q24.15 3.96 24.00 4.39Q23.84 4.82 23.79 5.28L23.79 5.28ZM39.10 12.31L39.10 12.31Q35.96 12.31 34.30 10.30Q32.65 8.28 32.65 4.56L32.65 4.56Q32.65 2.71 33.15 1.27Q33.66-0.17 34.56-1.16Q35.46-2.16 36.69-2.68Q37.93-3.19 39.39-3.19L39.39-3.19Q40.18-3.19 40.82-3.06Q41.46-2.93 41.94-2.76Q42.42-2.59 42.74-2.40Q43.06-2.21 43.23-2.11L43.23-2.11L42.46 0.24Q41.91-0.12 41.13-0.37Q40.35-0.62 39.34-0.62L39.34-0.62Q38.65-0.62 37.99-0.37Q37.33-0.12 36.81 0.47Q36.30 1.06 35.97 2.04Q35.65 3.02 35.65 4.49L35.65 4.49Q35.65 7.03 36.52 8.39Q37.40 9.74 39.39 9.74L39.39 9.74Q40.54 9.74 41.30 9.48Q42.06 9.22 42.51 8.95L42.51 8.95L43.26 11.28Q42.63 11.66 41.56 11.99Q40.50 12.31 39.10 12.31Z"/></g></svg>