<?xml version="1.0" encoding="UTF-8"?>
<svg height="34" width="114.6" version="1.1" xmlns="http://www.w3.org/2000/svg"><!--Created by Josélio de S. C. Júnior - 2021 - https://github.com/joseliojunior -->
    <rect
        height="32"
        width="112.6"
        rx="16"
        ry="16"
        x="1" y="1"
        fill="#951531"
        stroke="#e75a79"
        stroke-width="1" />
    <g transform="translate(0, 12)">
        <path fill="#e75a79" d="M27.49-0.62L27.49-0.62Q26.43-0.62 25.71-0.24Q24.99 0.14 24.52 0.83Q24.06 1.51 23.85 2.46Q23.65 3.41 23.65 4.56L23.65 4.56Q23.65 7.22 24.49 8.48Q25.33 9.74 26.96 9.74L26.96 9.74Q27.22 9.74 27.54 9.72Q27.85 9.70 28.11 9.65L28.11 9.65L28.11 4.22L31.06 4.22L31.06 11.64Q30.54 11.83 29.42 12.07Q28.30 12.31 26.72 12.31L26.72 12.31Q25.33 12.31 24.21 11.82Q23.10 11.33 22.30 10.36Q21.51 9.38 21.08 7.93Q20.65 6.48 20.65 4.56L20.65 4.56Q20.65 2.66 21.15 1.21Q21.66-0.24 22.52-1.22Q23.38-2.21 24.56-2.70Q25.74-3.19 27.08-3.19L27.08-3.19Q27.94-3.19 28.63-3.06Q29.31-2.93 29.82-2.76Q30.32-2.59 30.64-2.40Q30.97-2.21 31.14-2.11L31.14-2.11L30.37 0.24Q29.84-0.10 29.07-0.36Q28.30-0.62 27.49-0.62ZM32.74 6.46L32.74 6.46Q32.74 4.97 33.20 3.84Q33.66 2.71 34.40 1.96Q35.14 1.20 36.10 0.82Q37.06 0.43 38.07 0.43L38.07 0.43Q40.57 0.43 41.86 1.91Q43.16 3.38 43.16 6.22L43.16 6.22Q43.16 6.50 43.15 6.82Q43.14 7.13 43.11 7.32L43.11 7.32L35.79 7.32Q35.79 8.42 36.70 9.06Q37.62 9.70 39.06 9.70L39.06 9.70Q39.94 9.70 40.75 9.50Q41.55 9.31 42.10 9.12L42.10 9.12L42.51 11.64Q41.74 11.90 40.88 12.08Q40.02 12.26 38.94 12.26L38.94 12.26Q37.50 12.26 36.36 11.89Q35.22 11.52 34.41 10.79Q33.61 10.06 33.18 8.98Q32.74 7.90 32.74 6.46ZM35.79 5.28L40.30 5.28Q40.30 4.82 40.18 4.40Q40.06 3.98 39.80 3.65Q39.54 3.31 39.13 3.11Q38.72 2.90 38.12 2.90L38.12 2.90Q37.54 2.90 37.12 3.10Q36.70 3.29 36.43 3.62Q36.15 3.96 36.00 4.39Q35.84 4.82 35.79 5.28L35.79 5.28ZM45.51 12L45.51 1.08Q46.30 0.86 47.47 0.67Q48.63 0.48 50 0.48L50 0.48Q51.34 0.48 52.23 0.85Q53.12 1.22 53.64 1.91Q54.15 2.59 54.37 3.54Q54.58 4.49 54.58 5.64L54.58 5.64L54.58 12L51.63 12L51.63 6.02Q51.63 4.44 51.27 3.74Q50.91 3.05 49.81 3.05L49.81 3.05Q49.47 3.05 49.15 3.07Q48.82 3.10 48.46 3.14L48.46 3.14L48.46 12L45.51 12ZM61.47 9.77L61.47 9.77Q62.55 9.77 63.13 9.61Q63.70 9.46 63.70 8.98L63.70 8.98Q63.70 8.66 63.52 8.45Q63.34 8.23 63.02 8.08Q62.70 7.92 62.28 7.78Q61.86 7.63 61.40 7.49L61.40 7.49Q60.75 7.30 60.08 7.04Q59.41 6.79 58.86 6.41Q58.30 6.02 57.94 5.44Q57.58 4.85 57.58 3.96L57.58 3.96Q57.58 3.24 57.86 2.60Q58.14 1.97 58.72 1.48Q59.31 0.98 60.22 0.71Q61.14 0.43 62.41 0.43L62.41 0.43Q63.51 0.43 64.46 0.60Q65.41 0.77 66.10 1.08L66.10 1.08L65.65 3.58Q65.24 3.46 64.38 3.18Q63.51 2.90 62.43 2.90L62.43 2.90Q61.30 2.90 60.91 3.18Q60.51 3.46 60.51 3.77L60.51 3.77Q60.51 4.03 60.69 4.24Q60.87 4.44 61.17 4.61Q61.47 4.78 61.87 4.93Q62.26 5.09 62.72 5.23L62.72 5.23Q63.37 5.45 64.06 5.71Q64.76 5.98 65.32 6.37Q65.89 6.77 66.25 7.38Q66.61 7.99 66.61 8.88L66.61 8.88Q66.61 9.58 66.34 10.20Q66.08 10.82 65.47 11.28Q64.86 11.74 63.87 12Q62.89 12.26 61.45 12.26L61.45 12.26Q59.98 12.26 58.95 11.93Q57.92 11.59 57.30 11.33L57.30 11.33L57.75 8.86Q58.59 9.19 59.54 9.48Q60.49 9.77 61.47 9.77ZM72.46 12L69.51 12L69.51-4.15L72.46-4.66L72.46 0.82Q72.82 0.70 73.33 0.59Q73.83 0.48 74.22 0.48L74.22 0.48Q75.46 0.48 76.30 0.85Q77.14 1.22 77.65 1.91Q78.15 2.59 78.37 3.54Q78.58 4.49 78.58 5.64L78.58 5.64L78.58 12L75.63 12L75.63 6.02Q75.63 4.44 75.27 3.74Q74.91 3.05 73.90 3.05L73.90 3.05Q73.50 3.05 73.10 3.14Q72.70 3.24 72.46 3.31L72.46 3.31L72.46 12ZM86.82-2.52L86.82-2.52Q86.82-1.66 86.26-1.15Q85.71-0.65 84.94-0.65L84.94-0.65Q84.18-0.65 83.64-1.15Q83.10-1.66 83.10-2.52L83.10-2.52Q83.10-3.41 83.64-3.91Q84.18-4.42 84.94-4.42L84.94-4.42Q85.71-4.42 86.26-3.91Q86.82-3.41 86.82-2.52ZM90.82 9.14L91.21 11.52Q90.30 11.95 89.49 12.11Q88.69 12.26 88.02 12.26L88.02 12.26Q86.86 12.26 86.08 11.93Q85.30 11.59 84.84 10.96Q84.37 10.32 84.18 9.41Q83.98 8.50 83.98 7.32L83.98 7.32L83.98 3.17L80.86 3.17L80.86 0.72L86.94 0.72L86.94 7.70Q86.94 8.71 87.31 9.20Q87.68 9.70 88.54 9.70L88.54 9.70Q88.95 9.70 89.53 9.59Q90.10 9.48 90.82 9.14L90.82 9.14Z"/>
    </g>
</svg>