<?xml version="1.0" encoding="UTF-8"?>
<svg height="26" width="90.6" version="1.1" xmlns="http://www.w3.org/2000/svg"><!--Created by Josélio de S. C. Júnior - 2021 - https://github.com/joseliojunior -->
    <rect
        height="24"
        width="88.6"
        rx="12"
        ry="12"
        x="1" y="1"
        fill="#951531"
        stroke="#e75a79"
        stroke-width="1" />
    <g transform="translate(0, 8)">
        <path fill="#e75a79" d="M24.99 1.58L24.99 1.58Q24.29 1.58 23.81 1.84Q23.33 2.10 23.02 2.55Q22.70 3.01 22.57 3.64Q22.43 4.27 22.43 5.04L22.43 5.04Q22.43 6.82 22.99 7.66Q23.55 8.50 24.64 8.50L24.64 8.50Q24.82 8.50 25.02 8.48Q25.23 8.46 25.41 8.43L25.41 8.43L25.41 4.82L27.38 4.82L27.38 9.76Q27.02 9.89 26.28 10.05Q25.54 10.21 24.48 10.21L24.48 10.21Q23.55 10.21 22.81 9.88Q22.06 9.55 21.54 8.90Q21.01 8.26 20.72 7.29Q20.43 6.32 20.43 5.04L20.43 5.04Q20.43 3.78 20.77 2.81Q21.10 1.84 21.68 1.18Q22.26 0.53 23.04 0.20Q23.82-0.13 24.72-0.13L24.72-0.13Q25.30-0.13 25.75-0.04Q26.21 0.05 26.54 0.16Q26.88 0.27 27.10 0.40Q27.31 0.53 27.42 0.59L27.42 0.59L26.91 2.16Q26.56 1.94 26.05 1.76Q25.54 1.58 24.99 1.58ZM28.50 6.30L28.50 6.30Q28.50 5.31 28.80 4.56Q29.10 3.81 29.60 3.30Q30.10 2.80 30.74 2.54Q31.38 2.29 32.05 2.29L32.05 2.29Q33.71 2.29 34.58 3.27Q35.44 4.26 35.44 6.14L35.44 6.14Q35.44 6.34 35.43 6.54Q35.42 6.75 35.41 6.88L35.41 6.88L30.53 6.88Q30.53 7.62 31.14 8.04Q31.74 8.46 32.70 8.46L32.70 8.46Q33.30 8.46 33.83 8.34Q34.37 8.21 34.74 8.08L34.74 8.08L35.01 9.76Q34.50 9.94 33.92 10.06Q33.34 10.18 32.62 10.18L32.62 10.18Q31.66 10.18 30.90 9.93Q30.14 9.68 29.61 9.19Q29.07 8.70 28.78 7.98Q28.50 7.26 28.50 6.30ZM30.53 5.52L33.54 5.52Q33.54 5.22 33.46 4.94Q33.38 4.66 33.20 4.43Q33.02 4.21 32.75 4.07Q32.48 3.94 32.08 3.94L32.08 3.94Q31.70 3.94 31.42 4.06Q31.14 4.19 30.95 4.42Q30.77 4.64 30.66 4.93Q30.56 5.22 30.53 5.52L30.53 5.52ZM37.01 10L37.01 2.72Q37.54 2.58 38.31 2.45Q39.09 2.32 40 2.32L40 2.32Q40.90 2.32 41.49 2.57Q42.08 2.82 42.42 3.27Q42.77 3.73 42.91 4.36Q43.06 4.99 43.06 5.76L43.06 5.76L43.06 10L41.09 10L41.09 6.02Q41.09 4.96 40.85 4.50Q40.61 4.03 39.87 4.03L39.87 4.03Q39.65 4.03 39.43 4.05Q39.22 4.06 38.98 4.10L38.98 4.10L38.98 10L37.01 10ZM47.65 8.51L47.65 8.51Q48.37 8.51 48.75 8.41Q49.14 8.30 49.14 7.98L49.14 7.98Q49.14 7.78 49.02 7.63Q48.90 7.49 48.68 7.38Q48.46 7.28 48.18 7.18Q47.90 7.09 47.60 6.99L47.60 6.99Q47.17 6.86 46.72 6.70Q46.27 6.53 45.90 6.27Q45.54 6.02 45.30 5.62Q45.06 5.23 45.06 4.64L45.06 4.64Q45.06 4.16 45.24 3.74Q45.42 3.31 45.82 2.98Q46.21 2.66 46.82 2.47Q47.42 2.29 48.27 2.29L48.27 2.29Q49.01 2.29 49.64 2.40Q50.27 2.51 50.74 2.72L50.74 2.72L50.43 4.38Q50.16 4.30 49.58 4.12Q49.01 3.94 48.29 3.94L48.29 3.94Q47.54 3.94 47.27 4.12Q47.01 4.30 47.01 4.51L47.01 4.51Q47.01 4.69 47.13 4.82Q47.25 4.96 47.45 5.07Q47.65 5.18 47.91 5.29Q48.18 5.39 48.48 5.49L48.48 5.49Q48.91 5.63 49.38 5.81Q49.84 5.98 50.22 6.25Q50.59 6.51 50.83 6.92Q51.07 7.33 51.07 7.92L51.07 7.92Q51.07 8.38 50.90 8.80Q50.72 9.22 50.31 9.52Q49.90 9.82 49.25 10Q48.59 10.18 47.63 10.18L47.63 10.18Q46.66 10.18 45.97 9.95Q45.28 9.73 44.86 9.55L44.86 9.55L45.17 7.90Q45.73 8.13 46.36 8.32Q46.99 8.51 47.65 8.51ZM54.98 10L53.01 10L53.01-0.77L54.98-1.10L54.98 2.54Q55.22 2.46 55.55 2.39Q55.89 2.32 56.14 2.32L56.14 2.32Q56.98 2.32 57.54 2.57Q58.10 2.82 58.43 3.27Q58.77 3.73 58.91 4.36Q59.06 4.99 59.06 5.76L59.06 5.76L59.06 10L57.09 10L57.09 6.02Q57.09 4.96 56.85 4.50Q56.61 4.03 55.94 4.03L55.94 4.03Q55.66 4.03 55.40 4.10Q55.14 4.16 54.98 4.21L54.98 4.21L54.98 10ZM64.54 0.32L64.54 0.32Q64.54 0.90 64.18 1.23Q63.81 1.57 63.30 1.57L63.30 1.57Q62.78 1.57 62.42 1.23Q62.06 0.90 62.06 0.32L62.06 0.32Q62.06-0.27 62.42-0.61Q62.78-0.94 63.30-0.94L63.30-0.94Q63.81-0.94 64.18-0.61Q64.54-0.27 64.54 0.32ZM67.22 8.10L67.47 9.68Q66.86 9.97 66.33 10.07Q65.79 10.18 65.34 10.18L65.34 10.18Q64.58 10.18 64.06 9.95Q63.54 9.73 63.22 9.30Q62.91 8.88 62.78 8.27Q62.66 7.66 62.66 6.88L62.66 6.88L62.66 4.11L60.58 4.11L60.58 2.48L64.62 2.48L64.62 7.14Q64.62 7.81 64.87 8.14Q65.12 8.46 65.70 8.46L65.70 8.46Q65.97 8.46 66.35 8.39Q66.74 8.32 67.22 8.10L67.22 8.10Z"/>
    </g>
</svg>