<?xml version="1.0" encoding="UTF-8"?>
<svg height="34" width="148.89999999999998" version="1.1" xmlns="http://www.w3.org/2000/svg">
    <rect
        height="32"
        width="146.89999999999998"
        rx="1"
        ry="1"
        x="1"
        y="1"
        fill="#069406"
        stroke="#3bf73b"
        stroke-width="1"
         />
    <g transform="translate(0, 14)">
        <path fill="#3bf73b" d="M22.88 11L11.76 11L11.76-6.33L22.26-6.33L22.26-3.48L15.21-3.48L15.21 0.42L21.34 0.42L21.34 3.27L15.21 3.27L15.21 8.14L22.88 8.14L22.88 11ZM31.03 8.54L31.03 8.54Q31.59 8.54 32.12 8.52Q32.65 8.51 33.04 8.45L33.04 8.45L33.04 5.43Q32.71 5.37 32.23 5.33Q31.76 5.29 31.36 5.29L31.36 5.29Q30.83 5.29 30.33 5.36Q29.82 5.43 29.45 5.60Q29.07 5.76 28.84 6.07Q28.62 6.38 28.62 6.88L28.62 6.88Q28.62 7.78 29.29 8.16Q29.96 8.54 31.03 8.54ZM30.72-2.50L30.72-2.50Q32.34-2.50 33.42-2.12Q34.50-1.74 35.14-1.05Q35.79-0.37 36.07 0.63Q36.35 1.62 36.35 2.85L36.35 2.85L36.35 10.69Q35.59 10.86 34.11 11.08Q32.62 11.31 30.78 11.31L30.78 11.31Q29.52 11.31 28.49 11.08Q27.47 10.86 26.74 10.34Q26.02 9.82 25.62 9.00Q25.23 8.17 25.23 6.97L25.23 6.97Q25.23 5.82 25.68 5.04Q26.13 4.25 26.88 3.78Q27.64 3.30 28.62 3.09Q29.60 2.88 30.66 2.88L30.66 2.88Q32.01 2.88 33.04 3.10L33.04 3.10L33.04 2.68Q33.04 1.70 32.43 1.05Q31.81 0.39 30.30 0.39L30.30 0.39Q29.32 0.39 28.41 0.53Q27.50 0.67 26.94 0.86L26.94 0.86L26.46-1.91Q27.11-2.13 28.28-2.31Q29.46-2.50 30.72-2.50ZM44.38 8.40L44.38 8.40Q45.64 8.40 46.32 8.21Q46.99 8.03 46.99 7.47L46.99 7.47Q46.99 7.11 46.78 6.86Q46.57 6.60 46.19 6.42Q45.81 6.24 45.32 6.07Q44.83 5.90 44.30 5.74L44.30 5.74Q43.54 5.51 42.76 5.22Q41.98 4.92 41.33 4.48Q40.69 4.03 40.27 3.34Q39.85 2.66 39.85 1.62L39.85 1.62Q39.85 0.78 40.17 0.04Q40.49-0.70 41.18-1.28Q41.86-1.85 42.93-2.17Q43.99-2.50 45.48-2.50L45.48-2.50Q46.76-2.50 47.87-2.30Q48.98-2.10 49.79-1.74L49.79-1.74L49.26 1.17Q48.78 1.03 47.77 0.71Q46.76 0.39 45.50 0.39L45.50 0.39Q44.19 0.39 43.73 0.71Q43.26 1.03 43.26 1.40L43.26 1.40Q43.26 1.70 43.47 1.94Q43.68 2.18 44.03 2.38Q44.38 2.57 44.85 2.75Q45.31 2.94 45.84 3.10L45.84 3.10Q46.60 3.36 47.41 3.66Q48.22 3.97 48.88 4.43Q49.54 4.90 49.96 5.61Q50.38 6.32 50.38 7.36L50.38 7.36Q50.38 8.17 50.07 8.90Q49.76 9.63 49.05 10.16Q48.33 10.69 47.18 11Q46.04 11.31 44.36 11.31L44.36 11.31Q42.65 11.31 41.44 10.92Q40.24 10.52 39.51 10.22L39.51 10.22L40.04 7.33Q41.02 7.72 42.13 8.06Q43.24 8.40 44.38 8.40ZM61.69-2.16L65.22-2.16Q64.68-0.31 64.19 1.47Q63.70 3.24 63.17 4.94Q62.64 6.63 62.04 8.26Q61.44 9.88 60.74 11.42L60.74 11.42Q60.20 12.54 59.69 13.35Q59.17 14.16 58.54 14.68Q57.91 15.20 57.14 15.45Q56.37 15.70 55.33 15.70L55.33 15.70Q54.46 15.70 53.75 15.56Q53.04 15.42 52.56 15.20L52.56 15.20L53.20 12.32Q53.76 12.57 54.20 12.67Q54.63 12.76 55.14 12.76L55.14 12.76Q56.14 12.76 56.76 12.09Q57.38 11.42 57.74 10.50L57.74 10.50Q56.51 8.03 55.28 4.85Q54.04 1.68 53.04-2.16L53.04-2.16L56.62-2.16Q56.87-1.12 57.19 0.05Q57.52 1.23 57.88 2.40Q58.24 3.58 58.65 4.71Q59.06 5.85 59.48 6.83L59.48 6.83Q59.76 5.85 60.06 4.71Q60.37 3.58 60.65 2.42Q60.93 1.26 61.20 0.08Q61.46-1.10 61.69-2.16L61.69-2.16ZM75.66 4.34L75.66 4.34Q75.66 2.49 75.06 1.51Q74.46 0.53 73.22 0.53L73.22 0.53Q72.66 0.53 72.12 0.68Q71.57 0.84 71.18 1.06L71.18 1.06L71.18 8.20Q71.57 8.28 72.01 8.31Q72.44 8.34 72.75 8.34L72.75 8.34Q74.09 8.34 74.88 7.43Q75.66 6.52 75.66 4.34ZM79.16 4.42L79.16 4.42Q79.16 5.99 78.74 7.26Q78.32 8.54 77.51 9.43Q76.70 10.33 75.52 10.82Q74.34 11.31 72.83 11.31L72.83 11.31Q71.49 11.31 70.09 11.11Q68.69 10.92 67.74 10.61L67.74 10.61L67.74-7.84L71.18-8.43L71.18-1.85Q71.91-2.19 72.58-2.31Q73.25-2.44 73.92-2.44L73.92-2.44Q75.21-2.44 76.19-1.95Q77.17-1.46 77.83-0.55Q78.49 0.36 78.82 1.62Q79.16 2.88 79.16 4.42ZM92.26-2.16L92.26 10.55Q91.31 10.80 89.95 11.06Q88.60 11.31 87 11.31L87 11.31Q85.38 11.31 84.34 10.86Q83.30 10.41 82.70 9.59Q82.10 8.76 81.88 7.64Q81.65 6.52 81.65 5.18L81.65 5.18L81.65-2.16L85.10-2.16L85.10 4.73Q85.10 6.55 85.53 7.43Q85.96 8.31 87.22 8.31L87.22 8.31Q88.01 8.31 88.79 8.17L88.79 8.17L88.79-2.16L92.26-2.16ZM101.95-5.94L101.95-5.94Q101.95-4.93 101.31-4.34Q100.66-3.76 99.77-3.76L99.77-3.76Q98.87-3.76 98.24-4.34Q97.61-4.93 97.61-5.94L97.61-5.94Q97.61-6.98 98.24-7.56Q98.87-8.15 99.77-8.15L99.77-8.15Q100.66-8.15 101.31-7.56Q101.95-6.98 101.95-5.94ZM106.63 7.67L107.08 10.44Q106.01 10.94 105.07 11.13Q104.14 11.31 103.35 11.31L103.35 11.31Q102.01 11.31 101.10 10.92Q100.19 10.52 99.64 9.78Q99.10 9.04 98.87 7.98Q98.65 6.91 98.65 5.54L98.65 5.54L98.65 0.70L95.01 0.70L95.01-2.16L102.09-2.16L102.09 5.99Q102.09 7.16 102.53 7.74Q102.96 8.31 103.97 8.31L103.97 8.31Q104.44 8.31 105.12 8.19Q105.79 8.06 106.63 7.67L106.63 7.67ZM120.63 7.67L121.08 10.44Q120.99 10.50 120.70 10.64Q120.40 10.78 119.93 10.93Q119.45 11.08 118.77 11.20Q118.08 11.31 117.21 11.31L117.21 11.31Q114.83 11.31 113.74 9.89Q112.65 8.48 112.65 5.76L112.65 5.76L112.65-5.41L109.01-5.41L109.01-8.26L116.09-8.26L116.09 6.02Q116.09 7.36 116.62 7.84Q117.16 8.31 117.97 8.31L117.97 8.31Q119.00 8.31 119.70 8.03Q120.40 7.75 120.63 7.67L120.63 7.67ZM126.28 4.34L126.28 4.34Q126.28 6.10 126.94 7.22Q127.60 8.34 129.06 8.34L129.06 8.34Q129.48 8.34 129.84 8.31Q130.20 8.28 130.60 8.23L130.60 8.23L130.60 1.06Q130.20 0.84 129.70 0.68Q129.20 0.53 128.64 0.53L128.64 0.53Q127.40 0.53 126.84 1.51Q126.28 2.49 126.28 4.34ZM134.04-8.43L134.04 10.61Q133.09 10.92 131.72 11.11Q130.34 11.31 129.03 11.31L129.03 11.31Q125.95 11.31 124.37 9.49Q122.78 7.67 122.78 4.50L122.78 4.50Q122.78 1.28 124.11-0.58Q125.44-2.44 128.05-2.44L128.05-2.44Q128.75-2.44 129.42-2.29Q130.09-2.13 130.60-1.85L130.60-1.85L130.60-7.84L134.04-8.43Z"/>
    </g>
</svg>