<?xml version="1.0" encoding="UTF-8"?>
<svg height="26" width="66.3" version="1.1" xmlns="http://www.w3.org/2000/svg"><!--Created by Josélio de S. C. Júnior - 2021 - https://github.com/joseliojunior -->
    <rect
        height="24"
        width="64.3"
        rx="1"
        ry="1"
        x="1" y="1"
        fill="#02f88c"
        stroke="#016037"
        stroke-width="1" />
    <g transform="translate(0, 8)">
        <path fill="#016037" d="M27.86 10L25.74 10L25.28 7.71L22.64 7.71L22.19 10L20.14 10Q20.85 7.07 21.57 4.66Q22.29 2.26 22.96 0.10L22.96 0.10L25.10 0.10Q25.81 2.27 26.50 4.71Q27.20 7.15 27.86 10L27.86 10ZM23.98 2.02L23.98 2.02Q23.82 2.58 23.69 3.08Q23.55 3.58 23.43 4.07Q23.31 4.56 23.21 5.06Q23.10 5.55 23.01 6.08L23.01 6.08L24.94 6.08Q24.85 5.55 24.75 5.06Q24.66 4.56 24.54 4.07Q24.42 3.58 24.28 3.08Q24.14 2.58 23.98 2.02ZM30.45 6.19L30.45 6.19Q30.45 7.20 30.82 7.84Q31.20 8.48 32.03 8.48L32.03 8.48Q32.27 8.48 32.48 8.46Q32.69 8.45 32.91 8.42L32.91 8.42L32.91 4.32Q32.69 4.19 32.40 4.10Q32.11 4.02 31.79 4.02L31.79 4.02Q31.09 4.02 30.77 4.58Q30.45 5.14 30.45 6.19ZM34.88-1.10L34.88 9.78Q34.34 9.95 33.55 10.06Q32.77 10.18 32.02 10.18L32.02 10.18Q30.26 10.18 29.35 9.14Q28.45 8.10 28.45 6.29L28.45 6.29Q28.45 4.45 29.21 3.38Q29.97 2.32 31.46 2.32L31.46 2.32Q31.86 2.32 32.24 2.41Q32.62 2.50 32.91 2.66L32.91 2.66L32.91-0.77L34.88-1.10ZM40.02 8.59L40.02 8.59Q40.34 8.59 40.64 8.58Q40.94 8.58 41.17 8.54L41.17 8.54L41.17 6.82Q40.98 6.78 40.70 6.76Q40.43 6.74 40.21 6.74L40.21 6.74Q39.90 6.74 39.62 6.78Q39.33 6.82 39.11 6.91Q38.90 7.01 38.77 7.18Q38.64 7.36 38.64 7.65L38.64 7.65Q38.64 8.16 39.02 8.38Q39.41 8.59 40.02 8.59ZM39.84 2.29L39.84 2.29Q40.77 2.29 41.38 2.50Q42 2.72 42.37 3.11Q42.74 3.50 42.90 4.07Q43.06 4.64 43.06 5.34L43.06 5.34L43.06 9.82Q42.62 9.92 41.78 10.05Q40.93 10.18 39.87 10.18L39.87 10.18Q39.15 10.18 38.57 10.05Q37.98 9.92 37.57 9.62Q37.15 9.33 36.93 8.86Q36.70 8.38 36.70 7.70L36.70 7.70Q36.70 7.04 36.96 6.59Q37.22 6.14 37.65 5.87Q38.08 5.60 38.64 5.48Q39.20 5.36 39.81 5.36L39.81 5.36Q40.58 5.36 41.17 5.49L41.17 5.49L41.17 5.25Q41.17 4.69 40.82 4.31Q40.46 3.94 39.60 3.94L39.60 3.94Q39.04 3.94 38.52 4.02Q38 4.10 37.68 4.21L37.68 4.21L37.41 2.62Q37.78 2.50 38.45 2.39Q39.12 2.29 39.84 2.29Z"/>
    </g>
</svg>