<?xml version="1.0" encoding="UTF-8"?><svg height="26" width="74.4" version="1.1" xmlns="http://www.w3.org/2000/svg"><!--Created by Josélio de S. C. Júnior - 2021 - https://github.com/joseliojunior --><rect height="24" width="72.4" rx="12" ry="12" x="1" y="1" fill="#120F14" stroke="#61516c" stroke-width="1" /><g transform="translate(0, 8)"><path fill="#61516c" d="M23.71 8.56L23.71 8.56Q24.21 8.56 24.54 8.46Q24.86 8.35 25.06 8.17Q25.25 7.98 25.32 7.75Q25.39 7.52 25.39 7.28L25.39 7.28Q25.39 6.98 25.22 6.74Q25.04 6.50 24.77 6.31Q24.50 6.13 24.16 5.98Q23.82 5.82 23.49 5.70L23.49 5.70Q23.04 5.54 22.56 5.33Q22.08 5.12 21.69 4.80Q21.30 4.48 21.04 4.01Q20.78 3.54 20.78 2.83L20.78 2.83Q20.78 1.44 21.69 0.66Q22.59-0.13 24.18-0.13L24.18-0.13Q25.09-0.13 25.77 0.08Q26.45 0.29 26.91 0.54L26.91 0.54L26.34 2.06Q25.94 1.84 25.45 1.68Q24.96 1.52 24.32 1.52L24.32 1.52Q22.75 1.52 22.75 2.66L22.75 2.66Q22.75 2.94 22.91 3.16Q23.07 3.38 23.32 3.54Q23.57 3.71 23.88 3.84Q24.19 3.97 24.50 4.08L24.50 4.08Q24.96 4.26 25.46 4.47Q25.97 4.69 26.39 5.05Q26.82 5.41 27.09 5.94Q27.36 6.48 27.36 7.30L27.36 7.30Q27.36 8.69 26.46 9.45Q25.55 10.21 23.71 10.21L23.71 10.21Q22.48 10.21 21.74 9.94Q21.01 9.68 20.64 9.46L20.64 9.46L21.22 7.86Q21.65 8.11 22.25 8.34Q22.85 8.56 23.71 8.56ZM30.98 10L29.01 10L29.01-0.77L30.98-1.10L30.98 2.54Q31.22 2.46 31.55 2.39Q31.89 2.32 32.14 2.32L32.14 2.32Q32.98 2.32 33.54 2.57Q34.10 2.82 34.43 3.27Q34.77 3.73 34.91 4.36Q35.06 4.99 35.06 5.76L35.06 5.76L35.06 10L33.09 10L33.09 6.02Q33.09 4.96 32.85 4.50Q32.61 4.03 31.94 4.03L31.94 4.03Q31.66 4.03 31.40 4.10Q31.14 4.16 30.98 4.21L30.98 4.21L30.98 10ZM36.50 6.30L36.50 6.30Q36.50 5.31 36.80 4.56Q37.10 3.81 37.60 3.30Q38.10 2.80 38.74 2.54Q39.38 2.29 40.05 2.29L40.05 2.29Q41.71 2.29 42.58 3.27Q43.44 4.26 43.44 6.14L43.44 6.14Q43.44 6.34 43.43 6.54Q43.42 6.75 43.41 6.88L43.41 6.88L38.53 6.88Q38.53 7.62 39.14 8.04Q39.74 8.46 40.70 8.46L40.70 8.46Q41.30 8.46 41.83 8.34Q42.37 8.21 42.74 8.08L42.74 8.08L43.01 9.76Q42.50 9.94 41.92 10.06Q41.34 10.18 40.62 10.18L40.62 10.18Q39.66 10.18 38.90 9.93Q38.14 9.68 37.61 9.19Q37.07 8.70 36.78 7.98Q36.50 7.26 36.50 6.30ZM38.53 5.52L41.54 5.52Q41.54 5.22 41.46 4.94Q41.38 4.66 41.20 4.43Q41.02 4.21 40.75 4.07Q40.48 3.94 40.08 3.94L40.08 3.94Q39.70 3.94 39.42 4.06Q39.14 4.19 38.95 4.42Q38.77 4.64 38.66 4.93Q38.56 5.22 38.53 5.52L38.53 5.52ZM45.01 10L45.01 2.72Q45.54 2.58 46.31 2.45Q47.09 2.32 48 2.32L48 2.32Q48.90 2.32 49.49 2.57Q50.08 2.82 50.42 3.27Q50.77 3.73 50.91 4.36Q51.06 4.99 51.06 5.76L51.06 5.76L51.06 10L49.09 10L49.09 6.02Q49.09 4.96 48.85 4.50Q48.61 4.03 47.87 4.03L47.87 4.03Q47.65 4.03 47.43 4.05Q47.22 4.06 46.98 4.10L46.98 4.10L46.98 10L45.01 10Z"/></g></svg>