<?xml version="1.0" encoding="UTF-8"?>
<svg height="26" width="155.39999999999998" version="1.1" xmlns="http://www.w3.org/2000/svg"><!--Created by Josélio de S. C. Júnior - 2021 - https://github.com/joseliojunior -->
    <rect
        height="24"
        width="153.39999999999998"
        rx="12"
        ry="12"
        x="1" y="1"
        fill="#2596be"
        stroke="#0d3240"
        stroke-width="1" />
    <g transform="translate(0, 8)">
        <path fill="#0d3240" stroke="none" d="M24.99 1.58L24.99 1.58Q24.29 1.58 23.81 1.84Q23.33 2.10 23.02 2.55Q22.70 3.01 22.57 3.64Q22.43 4.27 22.43 5.04L22.43 5.04Q22.43 6.82 22.99 7.66Q23.55 8.50 24.64 8.50L24.64 8.50Q24.82 8.50 25.02 8.48Q25.23 8.46 25.41 8.43L25.41 8.43L25.41 4.82L27.38 4.82L27.38 9.76Q27.02 9.89 26.28 10.05Q25.54 10.21 24.48 10.21L24.48 10.21Q23.55 10.21 22.81 9.88Q22.06 9.55 21.54 8.90Q21.01 8.26 20.72 7.29Q20.43 6.32 20.43 5.04L20.43 5.04Q20.43 3.78 20.77 2.81Q21.10 1.84 21.68 1.18Q22.26 0.53 23.04 0.20Q23.82-0.13 24.72-0.13L24.72-0.13Q25.30-0.13 25.75-0.04Q26.21 0.05 26.54 0.16Q26.88 0.27 27.10 0.40Q27.31 0.53 27.42 0.59L27.42 0.59L26.91 2.16Q26.56 1.94 26.05 1.76Q25.54 1.58 24.99 1.58ZM35.34 2.66L34.99 4.48Q34.80 4.43 34.54 4.38Q34.27 4.34 34 4.30Q33.73 4.26 33.47 4.24Q33.22 4.22 33.04 4.22L33.04 4.22Q32.62 4.22 32.22 4.26Q31.82 4.30 31.41 4.42L31.41 4.42L31.41 10L29.42 10L29.42 2.98Q30.21 2.69 31.03 2.51Q31.86 2.34 32.96 2.34L32.96 2.34Q33.12 2.34 33.42 2.35Q33.71 2.37 34.05 2.41Q34.38 2.45 34.73 2.50Q35.07 2.56 35.34 2.66L35.34 2.66ZM40.02 8.59L40.02 8.59Q40.34 8.59 40.64 8.58Q40.94 8.58 41.17 8.54L41.17 8.54L41.17 6.82Q40.98 6.78 40.70 6.76Q40.43 6.74 40.21 6.74L40.21 6.74Q39.90 6.74 39.62 6.78Q39.33 6.82 39.11 6.91Q38.90 7.01 38.77 7.18Q38.64 7.36 38.64 7.65L38.64 7.65Q38.64 8.16 39.02 8.38Q39.41 8.59 40.02 8.59ZM39.84 2.29L39.84 2.29Q40.77 2.29 41.38 2.50Q42 2.72 42.37 3.11Q42.74 3.50 42.90 4.07Q43.06 4.64 43.06 5.34L43.06 5.34L43.06 9.82Q42.62 9.92 41.78 10.05Q40.93 10.18 39.87 10.18L39.87 10.18Q39.15 10.18 38.57 10.05Q37.98 9.92 37.57 9.62Q37.15 9.33 36.93 8.86Q36.70 8.38 36.70 7.70L36.70 7.70Q36.70 7.04 36.96 6.59Q37.22 6.14 37.65 5.87Q38.08 5.60 38.64 5.48Q39.20 5.36 39.81 5.36L39.81 5.36Q40.58 5.36 41.17 5.49L41.17 5.49L41.17 5.25Q41.17 4.69 40.82 4.31Q40.46 3.94 39.60 3.94L39.60 3.94Q39.04 3.94 38.52 4.02Q38 4.10 37.68 4.21L37.68 4.21L37.41 2.62Q37.78 2.50 38.45 2.39Q39.12 2.29 39.84 2.29ZM49.50 6.30L49.50 6.30Q49.50 5.30 49.10 4.65Q48.70 4 47.89 4L47.89 4Q47.66 4 47.41 4.02Q47.15 4.05 46.98 4.06L46.98 4.06L46.98 8.19Q47.17 8.32 47.49 8.40Q47.81 8.48 48.13 8.48L48.13 8.48Q48.83 8.48 49.17 7.91Q49.50 7.34 49.50 6.30ZM51.50 6.24L51.50 6.24Q51.50 7.10 51.31 7.83Q51.12 8.56 50.75 9.08Q50.38 9.60 49.82 9.89Q49.26 10.18 48.53 10.18L48.53 10.18Q47.78 10.18 46.98 9.81L46.98 9.81L46.98 12.64L45.01 12.64L45.01 2.72Q45.55 2.54 46.34 2.43Q47.14 2.32 47.90 2.32L47.90 2.32Q49.65 2.32 50.58 3.38Q51.50 4.43 51.50 6.24ZM54.98 10L53.01 10L53.01-0.77L54.98-1.10L54.98 2.54Q55.22 2.46 55.55 2.39Q55.89 2.32 56.14 2.32L56.14 2.32Q56.98 2.32 57.54 2.57Q58.10 2.82 58.43 3.27Q58.77 3.73 58.91 4.36Q59.06 4.99 59.06 5.76L59.06 5.76L59.06 10L57.09 10L57.09 6.02Q57.09 4.96 56.85 4.50Q56.61 4.03 55.94 4.03L55.94 4.03Q55.66 4.03 55.40 4.10Q55.14 4.16 54.98 4.21L54.98 4.21L54.98 10ZM64.75 10L63.10 10Q62.38 8.58 61.64 6.66Q60.90 4.75 60.22 2.48L60.22 2.48L62.29 2.48Q62.43 3.09 62.63 3.78Q62.83 4.46 63.06 5.16Q63.28 5.86 63.51 6.51Q63.74 7.17 63.95 7.71L63.95 7.71Q64.16 7.17 64.42 6.51Q64.67 5.86 64.92 5.16Q65.17 4.46 65.40 3.78Q65.63 3.09 65.78 2.48L65.78 2.48L67.78 2.48Q67.10 4.75 66.29 6.66Q65.47 8.58 64.75 10L64.75 10ZM72.54 0.32L72.54 0.32Q72.54 0.90 72.18 1.23Q71.81 1.57 71.30 1.57L71.30 1.57Q70.78 1.57 70.42 1.23Q70.06 0.90 70.06 0.32L70.06 0.32Q70.06-0.27 70.42-0.61Q70.78-0.94 71.30-0.94L71.30-0.94Q71.81-0.94 72.18-0.61Q72.54-0.27 72.54 0.32ZM75.22 8.10L75.47 9.68Q74.86 9.97 74.33 10.07Q73.79 10.18 73.34 10.18L73.34 10.18Q72.58 10.18 72.06 9.95Q71.54 9.73 71.22 9.30Q70.91 8.88 70.78 8.27Q70.66 7.66 70.66 6.88L70.66 6.88L70.66 4.11L68.58 4.11L68.58 2.48L72.62 2.48L72.62 7.14Q72.62 7.81 72.87 8.14Q73.12 8.46 73.70 8.46L73.70 8.46Q73.97 8.46 74.35 8.39Q74.74 8.32 75.22 8.10L75.22 8.10ZM82.82 2.48L82.82 3.92Q82.59 4.18 82.18 4.68Q81.76 5.18 81.27 5.81Q80.78 6.43 80.30 7.11Q79.81 7.79 79.42 8.37L79.42 8.37L82.98 8.37L82.98 10L77.07 10L77.07 8.80Q77.44 8.19 77.87 7.55Q78.30 6.91 78.74 6.30Q79.17 5.68 79.58 5.12Q80 4.56 80.34 4.11L80.34 4.11L77.23 4.11L77.23 2.48L82.82 2.48ZM95.33 5.74L95.33 5.74Q95.33 7.71 96.20 9.16Q97.07 10.61 98.61 11.50L98.61 11.50L97.70 12.72Q95.52 11.52 94.51 9.73Q93.50 7.94 93.50 5.74L93.50 5.74Q93.50 3.54 94.54 1.69Q95.58-0.16 97.76-1.36L97.76-1.36L98.67-0.14Q97.14 0.75 96.23 2.26Q95.33 3.76 95.33 5.74ZM102.83 1.74L102.83 8.40Q102.91 8.42 103.01 8.42Q103.10 8.42 103.18 8.42L103.18 8.42Q103.86 8.42 104.31 8.16Q104.77 7.90 105.05 7.46Q105.33 7.01 105.45 6.39Q105.57 5.78 105.57 5.04L105.57 5.04Q105.57 4.40 105.47 3.79Q105.38 3.18 105.14 2.72Q104.90 2.26 104.48 1.98Q104.06 1.70 103.41 1.70L103.41 1.70Q103.28 1.70 103.12 1.70Q102.96 1.71 102.83 1.74L102.83 1.74ZM107.57 5.04L107.57 5.04Q107.57 6.42 107.22 7.38Q106.88 8.35 106.27 8.96Q105.66 9.57 104.82 9.85Q103.98 10.13 102.98 10.13L102.98 10.13Q102.45 10.13 101.94 10.07Q101.44 10.02 100.86 9.89L100.86 9.89L100.86 0.22Q101.54 0.08 102.13 0.03Q102.72-0.02 103.23-0.02L103.23-0.02Q104.21-0.02 105.02 0.27Q105.82 0.56 106.38 1.18Q106.94 1.79 107.26 2.74Q107.57 3.70 107.57 5.04ZM110.43 5.04L110.43 5.04Q110.43 5.76 110.49 6.39Q110.54 7.02 110.71 7.49Q110.88 7.95 111.18 8.22Q111.49 8.50 112 8.50L112 8.50Q112.50 8.50 112.81 8.22Q113.12 7.95 113.29 7.48Q113.46 7.01 113.51 6.38Q113.57 5.76 113.57 5.04L113.57 5.04Q113.57 4.32 113.51 3.69Q113.46 3.06 113.29 2.59Q113.12 2.13 112.82 1.86Q112.51 1.58 112 1.58L112 1.58Q111.49 1.58 111.18 1.86Q110.88 2.13 110.71 2.60Q110.54 3.07 110.49 3.70Q110.43 4.32 110.43 5.04ZM108.43 5.04L108.43 5.04Q108.43 2.48 109.38 1.18Q110.32-0.13 112-0.13L112-0.13Q113.74-0.13 114.66 1.18Q115.57 2.48 115.57 5.04L115.57 5.04Q115.57 7.60 114.64 8.90Q113.71 10.21 112.02 10.21L112.02 10.21Q110.27 10.21 109.35 8.90Q108.43 7.60 108.43 5.04ZM116.40 0.10L123.60 0.10L123.60 1.73L120.99 1.73L120.99 10L119.01 10L119.01 1.73L116.40 1.73L116.40 0.10ZM128.70 5.74L128.70 5.74Q128.70 3.76 127.80 2.26Q126.90 0.75 125.36-0.14L125.36-0.14L126.27-1.36Q128.45-0.16 129.49 1.69Q130.53 3.54 130.53 5.74L130.53 5.74Q130.53 7.94 129.52 9.73Q128.51 11.52 126.34 12.72L126.34 12.72L125.42 11.50Q126.96 10.61 127.83 9.16Q128.70 7.71 128.70 5.74Z"/>
    </g>
</svg>