<?xml version="1.0" encoding="UTF-8"?>
<svg height="34" width="219.4" version="1.1" xmlns="http://www.w3.org/2000/svg">
    <rect
        height="32"
        width="217.4"
        rx="1"
        ry="1"
        x="1"
        y="1"
        fill="#2596be"
        stroke="#0d3240"
        stroke-width="1"
         />
    <g transform="translate(0, 14)">
        <path fill="#0d3240" d="M18.74-3.73L18.74-3.73Q17.50-3.73 16.66-3.28Q15.82-2.83 15.28-2.03Q14.73-1.24 14.49-0.13Q14.26 0.98 14.26 2.32L14.26 2.32Q14.26 5.43 15.24 6.90Q16.22 8.37 18.12 8.37L18.12 8.37Q18.43 8.37 18.79 8.34Q19.16 8.31 19.46 8.26L19.46 8.26L19.46 1.93L22.91 1.93L22.91 10.58Q22.29 10.80 20.99 11.08Q19.69 11.36 17.84 11.36L17.84 11.36Q16.22 11.36 14.91 10.79Q13.61 10.22 12.69 9.08Q11.76 7.95 11.26 6.25Q10.76 4.56 10.76 2.32L10.76 2.32Q10.76 0.11 11.34-1.59Q11.93-3.28 12.94-4.43Q13.95-5.58 15.32-6.15Q16.69-6.72 18.26-6.72L18.26-6.72Q19.27-6.72 20.07-6.57Q20.86-6.42 21.45-6.22Q22.04-6.02 22.42-5.80Q22.80-5.58 22.99-5.46L22.99-5.46L22.10-2.72Q21.48-3.11 20.58-3.42Q19.69-3.73 18.74-3.73ZM36.85-1.85L36.24 1.34Q35.90 1.26 35.44 1.17Q34.98 1.09 34.50 1.02Q34.02 0.95 33.58 0.92Q33.13 0.89 32.82 0.89L32.82 0.89Q32.09 0.89 31.39 0.96Q30.69 1.03 29.96 1.23L29.96 1.23L29.96 11L26.49 11L26.49-1.29Q27.86-1.80 29.31-2.10Q30.75-2.41 32.68-2.41L32.68-2.41Q32.96-2.41 33.48-2.38Q34.00-2.36 34.58-2.29Q35.17-2.22 35.77-2.12Q36.38-2.02 36.85-1.85L36.85-1.85ZM45.03 8.54L45.03 8.54Q45.59 8.54 46.12 8.52Q46.65 8.51 47.04 8.45L47.04 8.45L47.04 5.43Q46.71 5.37 46.23 5.33Q45.76 5.29 45.36 5.29L45.36 5.29Q44.83 5.29 44.33 5.36Q43.82 5.43 43.45 5.60Q43.07 5.76 42.84 6.07Q42.62 6.38 42.62 6.88L42.62 6.88Q42.62 7.78 43.29 8.16Q43.96 8.54 45.03 8.54ZM44.72-2.50L44.72-2.50Q46.34-2.50 47.42-2.12Q48.50-1.74 49.14-1.05Q49.79-0.37 50.07 0.63Q50.35 1.62 50.35 2.85L50.35 2.85L50.35 10.69Q49.59 10.86 48.11 11.08Q46.62 11.31 44.78 11.31L44.78 11.31Q43.52 11.31 42.49 11.08Q41.47 10.86 40.74 10.34Q40.02 9.82 39.62 9.00Q39.23 8.17 39.23 6.97L39.23 6.97Q39.23 5.82 39.68 5.04Q40.13 4.25 40.88 3.78Q41.64 3.30 42.62 3.09Q43.60 2.88 44.66 2.88L44.66 2.88Q46.01 2.88 47.04 3.10L47.04 3.10L47.04 2.68Q47.04 1.70 46.43 1.05Q45.81 0.39 44.30 0.39L44.30 0.39Q43.32 0.39 42.41 0.53Q41.50 0.67 40.94 0.86L40.94 0.86L40.46-1.91Q41.11-2.13 42.28-2.31Q43.46-2.50 44.72-2.50ZM61.63 4.53L61.63 4.53Q61.63 2.77 60.93 1.63Q60.23 0.50 58.80 0.50L58.80 0.50Q58.41 0.50 57.96 0.54Q57.52 0.58 57.21 0.61L57.21 0.61L57.21 7.84Q57.54 8.06 58.10 8.20Q58.66 8.34 59.22 8.34L59.22 8.34Q60.46 8.34 61.04 7.35Q61.63 6.35 61.63 4.53ZM65.13 4.42L65.13 4.42Q65.13 5.93 64.80 7.21Q64.46 8.48 63.82 9.39Q63.17 10.30 62.19 10.80Q61.21 11.31 59.92 11.31L59.92 11.31Q58.61 11.31 57.21 10.66L57.21 10.66L57.21 15.62L53.76 15.62L53.76-1.74Q54.72-2.05 56.10-2.24Q57.49-2.44 58.83-2.44L58.83-2.44Q61.88-2.44 63.51-0.59Q65.13 1.26 65.13 4.42ZM71.21 11L67.76 11L67.76-7.84L71.21-8.43L71.21-2.05Q71.63-2.19 72.22-2.31Q72.80-2.44 73.25-2.44L73.25-2.44Q74.71-2.44 75.69-2.01Q76.67-1.57 77.26-0.77Q77.84 0.02 78.10 1.13Q78.35 2.24 78.35 3.58L78.35 3.58L78.35 11L74.90 11L74.90 4.03Q74.90 2.18 74.48 1.37Q74.06 0.56 72.89 0.56L72.89 0.56Q72.41 0.56 71.95 0.67Q71.49 0.78 71.21 0.86L71.21 0.86L71.21 11ZM88.32 11L85.43 11Q84.17 8.51 82.87 5.16Q81.57 1.82 80.39-2.16L80.39-2.16L84.00-2.16Q84.26-1.10 84.61 0.11Q84.96 1.31 85.35 2.53Q85.74 3.75 86.15 4.90Q86.55 6.04 86.92 7.00L86.92 7.00Q87.28 6.04 87.73 4.90Q88.18 3.75 88.61 2.53Q89.04 1.31 89.45 0.11Q89.86-1.10 90.11-2.16L90.11-2.16L93.61-2.16Q92.43 1.82 91.00 5.16Q89.58 8.51 88.32 11L88.32 11ZM101.95-5.94L101.95-5.94Q101.95-4.93 101.31-4.34Q100.66-3.76 99.77-3.76L99.77-3.76Q98.87-3.76 98.24-4.34Q97.61-4.93 97.61-5.94L97.61-5.94Q97.61-6.98 98.24-7.56Q98.87-8.15 99.77-8.15L99.77-8.15Q100.66-8.15 101.31-7.56Q101.95-6.98 101.95-5.94ZM106.63 7.67L107.08 10.44Q106.01 10.94 105.07 11.13Q104.14 11.31 103.35 11.31L103.35 11.31Q102.01 11.31 101.10 10.92Q100.19 10.52 99.64 9.78Q99.10 9.04 98.87 7.98Q98.65 6.91 98.65 5.54L98.65 5.54L98.65 0.70L95.01 0.70L95.01-2.16L102.09-2.16L102.09 5.99Q102.09 7.16 102.53 7.74Q102.96 8.31 103.97 8.31L103.97 8.31Q104.44 8.31 105.12 8.19Q105.79 8.06 106.63 7.67L106.63 7.67ZM119.93-2.16L119.93 0.36Q119.54 0.81 118.81 1.69Q118.08 2.57 117.23 3.66Q116.37 4.76 115.52 5.95Q114.66 7.14 113.99 8.14L113.99 8.14L120.21 8.14L120.21 11L109.88 11L109.88 8.90Q110.52 7.84 111.28 6.72Q112.03 5.60 112.79 4.52Q113.54 3.44 114.27 2.46Q115 1.48 115.59 0.70L115.59 0.70L110.16 0.70L110.16-2.16L119.93-2.16ZM141.82 3.55L141.82 3.55Q141.82 7.00 143.35 9.53Q144.88 12.06 147.56 13.63L147.56 13.63L145.97 15.76Q142.16 13.66 140.40 10.52Q138.63 7.39 138.63 3.55L138.63 3.55Q138.63-0.31 140.45-3.55Q142.27-6.78 146.08-8.88L146.08-8.88L147.68-6.75Q144.99-5.18 143.41-2.55Q141.82 0.08 141.82 3.55ZM154.96-3.45L154.96 8.20Q155.10 8.23 155.26 8.23Q155.43 8.23 155.57 8.23L155.57 8.23Q156.75 8.23 157.55 7.78Q158.34 7.33 158.83 6.55Q159.32 5.76 159.53 4.69Q159.74 3.61 159.74 2.32L159.74 2.32Q159.74 1.20 159.58 0.14Q159.41-0.93 158.99-1.74Q158.57-2.55 157.84-3.04Q157.11-3.53 155.96-3.53L155.96-3.53Q155.74-3.53 155.46-3.52Q155.18-3.50 154.96-3.45L154.96-3.45ZM163.24 2.32L163.24 2.32Q163.24 4.73 162.64 6.42Q162.04 8.12 160.98 9.18Q159.91 10.24 158.44 10.73Q156.97 11.22 155.21 11.22L155.21 11.22Q154.28 11.22 153.40 11.13Q152.52 11.03 151.51 10.80L151.51 10.80L151.51-6.11Q152.69-6.36 153.72-6.44Q154.76-6.53 155.66-6.53L155.66-6.53Q157.36-6.53 158.78-6.02Q160.19-5.52 161.17-4.44Q162.15-3.36 162.70-1.70Q163.24-0.03 163.24 2.32ZM168.26 2.32L168.26 2.32Q168.26 3.58 168.35 4.69Q168.45 5.79 168.75 6.60Q169.04 7.42 169.57 7.89Q170.10 8.37 171 8.37L171 8.37Q171.87 8.37 172.41 7.89Q172.96 7.42 173.25 6.59Q173.55 5.76 173.65 4.67Q173.74 3.58 173.74 2.32L173.74 2.32Q173.74 1.06 173.65-0.05Q173.55-1.15 173.25-1.96Q172.96-2.78 172.43-3.25Q171.90-3.73 171-3.73L171-3.73Q170.10-3.73 169.57-3.25Q169.04-2.78 168.75-1.95Q168.45-1.12 168.35-0.03Q168.26 1.06 168.26 2.32ZM164.76 2.32L164.76 2.32Q164.76-2.16 166.41-4.44Q168.06-6.72 171-6.72L171-6.72Q174.05-6.72 175.65-4.44Q177.24-2.16 177.24 2.32L177.24 2.32Q177.24 6.80 175.62 9.08Q174.00 11.36 171.03 11.36L171.03 11.36Q167.98 11.36 166.37 9.08Q164.76 6.80 164.76 2.32ZM178.70-6.33L191.30-6.33L191.30-3.48L186.74-3.48L186.74 11L183.26 11L183.26-3.48L178.70-3.48L178.70-6.33ZM200.23 3.55L200.23 3.55Q200.23 0.08 198.65-2.55Q197.07-5.18 194.38-6.75L194.38-6.75L195.98-8.88Q199.78-6.78 201.60-3.55Q203.42-0.31 203.42 3.55L203.42 3.55Q203.42 7.39 201.66 10.52Q199.90 13.66 196.09 15.76L196.09 15.76L194.49 13.63Q197.18 12.06 198.71 9.53Q200.23 7.00 200.23 3.55Z"/>
    </g>
</svg>