<?xml version="1.0" encoding="UTF-8"?>
<svg height="34" width="211.4" version="1.1" xmlns="http://www.w3.org/2000/svg"><!--Created by Josélio de S. C. Júnior - 2021 - https://github.com/joseliojunior -->
    <rect
        height="32"
        width="209.4"
        rx="1"
        ry="1"
        x="1" y="1"
        fill="#2596be"
        stroke="#0d3240"
        stroke-width="1" />
    <g transform="translate(0, 12)">
        <path fill="#0d3240" d="M27.49-0.62L27.49-0.62Q26.43-0.62 25.71-0.24Q24.99 0.14 24.52 0.83Q24.06 1.51 23.85 2.46Q23.65 3.41 23.65 4.56L23.65 4.56Q23.65 7.22 24.49 8.48Q25.33 9.74 26.96 9.74L26.96 9.74Q27.22 9.74 27.54 9.72Q27.85 9.70 28.11 9.65L28.11 9.65L28.11 4.22L31.06 4.22L31.06 11.64Q30.54 11.83 29.42 12.07Q28.30 12.31 26.72 12.31L26.72 12.31Q25.33 12.31 24.21 11.82Q23.10 11.33 22.30 10.36Q21.51 9.38 21.08 7.93Q20.65 6.48 20.65 4.56L20.65 4.56Q20.65 2.66 21.15 1.21Q21.66-0.24 22.52-1.22Q23.38-2.21 24.56-2.70Q25.74-3.19 27.08-3.19L27.08-3.19Q27.94-3.19 28.63-3.06Q29.31-2.93 29.82-2.76Q30.32-2.59 30.64-2.40Q30.97-2.21 31.14-2.11L31.14-2.11L30.37 0.24Q29.84-0.10 29.07-0.36Q28.30-0.62 27.49-0.62ZM43.02 0.98L42.49 3.72Q42.20 3.65 41.80 3.58Q41.41 3.50 41 3.44Q40.59 3.38 40.21 3.36Q39.82 3.34 39.56 3.34L39.56 3.34Q38.94 3.34 38.34 3.40Q37.74 3.46 37.11 3.62L37.11 3.62L37.11 12L34.14 12L34.14 1.46Q35.31 1.03 36.55 0.77Q37.78 0.50 39.44 0.50L39.44 0.50Q39.68 0.50 40.12 0.53Q40.57 0.55 41.07 0.61Q41.58 0.67 42.09 0.76Q42.61 0.84 43.02 0.98L43.02 0.98ZM50.02 9.89L50.02 9.89Q50.50 9.89 50.96 9.88Q51.42 9.86 51.75 9.82L51.75 9.82L51.75 7.22Q51.46 7.18 51.06 7.14Q50.65 7.10 50.31 7.10L50.31 7.10Q49.86 7.10 49.42 7.16Q48.99 7.22 48.67 7.37Q48.34 7.51 48.15 7.78Q47.96 8.04 47.96 8.47L47.96 8.47Q47.96 9.24 48.54 9.56Q49.11 9.89 50.02 9.89ZM49.76 0.43L49.76 0.43Q51.15 0.43 52.08 0.76Q53 1.08 53.55 1.67Q54.10 2.26 54.34 3.11Q54.58 3.96 54.58 5.02L54.58 5.02L54.58 11.74Q53.94 11.88 52.66 12.07Q51.39 12.26 49.81 12.26L49.81 12.26Q48.73 12.26 47.85 12.07Q46.98 11.88 46.35 11.44Q45.73 10.99 45.39 10.28Q45.06 9.58 45.06 8.54L45.06 8.54Q45.06 7.56 45.44 6.89Q45.82 6.22 46.47 5.81Q47.12 5.40 47.96 5.22Q48.80 5.04 49.71 5.04L49.71 5.04Q50.86 5.04 51.75 5.23L51.75 5.23L51.75 4.87Q51.75 4.03 51.22 3.47Q50.70 2.90 49.40 2.90L49.40 2.90Q48.56 2.90 47.78 3.02Q47 3.14 46.52 3.31L46.52 3.31L46.11 0.94Q46.66 0.74 47.67 0.59Q48.68 0.43 49.76 0.43ZM64.26 6.46L64.26 6.46Q64.26 4.94 63.66 3.97Q63.06 3 61.83 3L61.83 3Q61.50 3 61.11 3.04Q60.73 3.07 60.46 3.10L60.46 3.10L60.46 9.29Q60.75 9.48 61.23 9.60Q61.71 9.72 62.19 9.72L62.19 9.72Q63.25 9.72 63.75 8.87Q64.26 8.02 64.26 6.46ZM67.26 6.36L67.26 6.36Q67.26 7.66 66.97 8.75Q66.68 9.84 66.13 10.62Q65.58 11.40 64.74 11.83Q63.90 12.26 62.79 12.26L62.79 12.26Q61.66 12.26 60.46 11.71L60.46 11.71L60.46 15.96L57.51 15.96L57.51 1.08Q58.33 0.82 59.52 0.65Q60.70 0.48 61.86 0.48L61.86 0.48Q64.47 0.48 65.86 2.06Q67.26 3.65 67.26 6.36ZM72.46 12L69.51 12L69.51-4.15L72.46-4.66L72.46 0.82Q72.82 0.70 73.33 0.59Q73.83 0.48 74.22 0.48L74.22 0.48Q75.46 0.48 76.30 0.85Q77.14 1.22 77.65 1.91Q78.15 2.59 78.37 3.54Q78.58 4.49 78.58 5.64L78.58 5.64L78.58 12L75.63 12L75.63 6.02Q75.63 4.44 75.27 3.74Q74.91 3.05 73.90 3.05L73.90 3.05Q73.50 3.05 73.10 3.14Q72.70 3.24 72.46 3.31L72.46 3.31L72.46 12ZM87.13 12L84.66 12Q83.58 9.86 82.46 7.00Q81.34 4.13 80.34 0.72L80.34 0.72L83.43 0.72Q83.65 1.63 83.95 2.66Q84.25 3.70 84.58 4.74Q84.92 5.78 85.27 6.77Q85.62 7.75 85.93 8.57L85.93 8.57Q86.24 7.75 86.62 6.77Q87.01 5.78 87.38 4.74Q87.75 3.70 88.10 2.66Q88.45 1.63 88.66 0.72L88.66 0.72L91.66 0.72Q90.66 4.13 89.43 7.00Q88.21 9.86 87.13 12L87.13 12ZM98.82-2.52L98.82-2.52Q98.82-1.66 98.26-1.15Q97.71-0.65 96.94-0.65L96.94-0.65Q96.18-0.65 95.64-1.15Q95.10-1.66 95.10-2.52L95.10-2.52Q95.10-3.41 95.64-3.91Q96.18-4.42 96.94-4.42L96.94-4.42Q97.71-4.42 98.26-3.91Q98.82-3.41 98.82-2.52ZM102.82 9.14L103.21 11.52Q102.30 11.95 101.49 12.11Q100.69 12.26 100.02 12.26L100.02 12.26Q98.86 12.26 98.08 11.93Q97.30 11.59 96.84 10.96Q96.37 10.32 96.18 9.41Q95.98 8.50 95.98 7.32L95.98 7.32L95.98 3.17L92.86 3.17L92.86 0.72L98.94 0.72L98.94 7.70Q98.94 8.71 99.31 9.20Q99.68 9.70 100.54 9.70L100.54 9.70Q100.95 9.70 101.53 9.59Q102.10 9.48 102.82 9.14L102.82 9.14ZM114.22 0.72L114.22 2.88Q113.89 3.26 113.26 4.02Q112.64 4.78 111.91 5.71Q111.18 6.65 110.44 7.67Q109.71 8.69 109.14 9.55L109.14 9.55L114.46 9.55L114.46 12L105.61 12L105.61 10.20Q106.16 9.29 106.81 8.33Q107.46 7.37 108.10 6.44Q108.75 5.52 109.38 4.68Q110 3.84 110.50 3.17L110.50 3.17L105.85 3.17L105.85 0.72L114.22 0.72ZM132.99 5.62L132.99 5.62Q132.99 8.57 134.30 10.74Q135.61 12.91 137.91 14.26L137.91 14.26L136.54 16.08Q133.28 14.28 131.77 11.59Q130.26 8.90 130.26 5.62L130.26 5.62Q130.26 2.30 131.82-0.47Q133.38-3.24 136.64-5.04L136.64-5.04L138.01-3.22Q135.70-1.87 134.35 0.38Q132.99 2.64 132.99 5.62ZM144.25-0.38L144.25 9.60Q144.37 9.62 144.51 9.62Q144.66 9.62 144.78 9.62L144.78 9.62Q145.78 9.62 146.47 9.24Q147.15 8.86 147.57 8.18Q147.99 7.51 148.17 6.59Q148.35 5.66 148.35 4.56L148.35 4.56Q148.35 3.60 148.21 2.69Q148.06 1.78 147.70 1.08Q147.34 0.38 146.72-0.04Q146.10-0.46 145.11-0.46L145.11-0.46Q144.92-0.46 144.68-0.44Q144.44-0.43 144.25-0.38L144.25-0.38ZM151.35 4.56L151.35 4.56Q151.35 6.62 150.84 8.08Q150.32 9.53 149.41 10.44Q148.50 11.35 147.24 11.77Q145.98 12.19 144.46 12.19L144.46 12.19Q143.67 12.19 142.92 12.11Q142.16 12.02 141.30 11.83L141.30 11.83L141.30-2.66Q142.30-2.88 143.19-2.95Q144.08-3.02 144.85-3.02L144.85-3.02Q146.31-3.02 147.52-2.59Q148.74-2.16 149.58-1.24Q150.42-0.31 150.88 1.12Q151.35 2.54 151.35 4.56ZM155.65 4.56L155.65 4.56Q155.65 5.64 155.73 6.59Q155.82 7.54 156.07 8.23Q156.32 8.93 156.78 9.34Q157.23 9.74 158 9.74L158 9.74Q158.74 9.74 159.21 9.34Q159.68 8.93 159.93 8.22Q160.18 7.51 160.27 6.58Q160.35 5.64 160.35 4.56L160.35 4.56Q160.35 3.48 160.27 2.53Q160.18 1.58 159.93 0.89Q159.68 0.19 159.22-0.22Q158.77-0.62 158-0.62L158-0.62Q157.23-0.62 156.78-0.22Q156.32 0.19 156.07 0.90Q155.82 1.61 155.73 2.54Q155.65 3.48 155.65 4.56ZM152.65 4.56L152.65 4.56Q152.65 0.72 154.06-1.24Q155.48-3.19 158-3.19L158-3.19Q160.62-3.19 161.98-1.24Q163.35 0.72 163.35 4.56L163.35 4.56Q163.35 8.40 161.96 10.36Q160.57 12.31 158.02 12.31L158.02 12.31Q155.41 12.31 154.03 10.36Q152.65 8.40 152.65 4.56ZM164.60-2.86L175.40-2.86L175.40-0.41L171.49-0.41L171.49 12L168.51 12L168.51-0.41L164.60-0.41L164.60-2.86ZM183.06 5.62L183.06 5.62Q183.06 2.64 181.70 0.38Q180.34-1.87 178.04-3.22L178.04-3.22L179.41-5.04Q182.67-3.24 184.23-0.47Q185.79 2.30 185.79 5.62L185.79 5.62Q185.79 8.90 184.28 11.59Q182.77 14.28 179.50 16.08L179.50 16.08L178.14 14.26Q180.44 12.91 181.75 10.74Q183.06 8.57 183.06 5.62Z"/>
    </g>
</svg>