<?xml version="1.0" encoding="UTF-8"?>
<svg height="34" width="78.3" version="1.1" xmlns="http://www.w3.org/2000/svg">
    <rect
        height="32"
        width="76.3"
        rx="16"
        ry="16"
        x="1"
        y="1"
        fill="#c30e9b"
        stroke="#34042a"
        stroke-width="1"
         />
    <g transform="translate(0, 12)">
        <path fill="#34042a" d="M31.78 12L28.62 12L27.92 8.57L23.96 8.57L23.29 12L20.22 12Q21.27 7.61 22.35 4.00Q23.43 0.38 24.44-2.86L24.44-2.86L27.66-2.86Q28.71 0.41 29.76 4.07Q30.80 7.73 31.78 12L31.78 12ZM25.98 0.02L25.98 0.02Q25.74 0.86 25.53 1.62Q25.33 2.38 25.15 3.11Q24.97 3.84 24.81 4.58Q24.66 5.33 24.51 6.12L24.51 6.12L27.42 6.12Q27.27 5.33 27.13 4.58Q26.98 3.84 26.80 3.11Q26.62 2.38 26.42 1.62Q26.22 0.86 25.98 0.02ZM41.96 12L39.73 12Q39.46 11.26 39.24 10.63Q39.01 10.01 38.80 9.42Q38.60 8.83 38.40 8.20Q38.19 7.56 37.98 6.79L37.98 6.79Q37.74 7.56 37.54 8.17Q37.35 8.78 37.15 9.38Q36.94 9.98 36.73 10.61Q36.51 11.23 36.20 12L36.20 12L33.97 12Q33.68 10.94 33.43 9.66Q33.18 8.38 32.96 6.92Q32.74 5.47 32.58 3.91Q32.41 2.35 32.26 0.72L32.26 0.72L34.78 0.72Q34.88 2.81 34.99 4.80Q35.10 6.79 35.38 8.90L35.38 8.90Q35.70 7.99 35.92 7.21Q36.15 6.43 36.33 5.72Q36.51 5.02 36.67 4.36Q36.82 3.70 36.99 3L36.99 3L39.13 3Q39.27 3.70 39.43 4.36Q39.58 5.02 39.76 5.72Q39.94 6.43 40.15 7.21Q40.35 7.99 40.64 8.90L40.64 8.90Q40.78 7.80 40.88 6.79Q40.98 5.78 41.04 4.79Q41.10 3.79 41.13 2.80Q41.17 1.80 41.22 0.72L41.22 0.72L43.74 0.72Q43.47 4.01 43.00 6.91Q42.54 9.82 41.96 12L41.96 12ZM48.49-4.66L48.49 5.18Q48.92 4.68 49.36 4.12Q49.81 3.55 50.23 2.95Q50.65 2.35 51.03 1.79Q51.42 1.22 51.70 0.72L51.70 0.72L55.26 0.72Q54.82 1.27 54.27 1.92Q53.72 2.57 53.13 3.24Q52.54 3.91 51.96 4.54Q51.37 5.16 50.89 5.69L50.89 5.69Q51.49 6.26 52.18 7.07Q52.88 7.87 53.55 8.74Q54.22 9.60 54.79 10.46Q55.35 11.33 55.69 12L55.69 12L52.30 12Q52.02 11.40 51.55 10.64Q51.08 9.89 50.55 9.16Q50.02 8.42 49.48 7.76Q48.94 7.10 48.49 6.67L48.49 6.67L48.49 12L45.51 12L45.51-4.15L48.49-4.66Z"/>
    </g>
</svg>