<?xml version="1.0" encoding="UTF-8"?>
<svg height="26" width="82.5" version="1.1" xmlns="http://www.w3.org/2000/svg"><!--Created by Josélio de S. C. Júnior - 2021 - https://github.com/joseliojunior -->
    <rect
        height="24"
        width="80.5"
        rx="12"
        ry="12"
        x="1" y="1"
        fill="#341708"
        stroke="#b9511d"
        stroke-width="1" />
    <g transform="translate(0, 8)">
        <path fill="#b9511d" stroke="none" d="M22.98 10L21.01 10L21.01 0.10L27.07 0.10L27.07 1.73L22.98 1.73L22.98 4.13L26.56 4.13L26.56 5.76L22.98 5.76L22.98 10ZM35.55 6.22L35.55 6.22Q35.55 7.12 35.30 7.85Q35.04 8.58 34.58 9.10Q34.11 9.63 33.46 9.92Q32.82 10.21 32.02 10.21L32.02 10.21Q31.22 10.21 30.57 9.92Q29.92 9.63 29.45 9.10Q28.98 8.58 28.72 7.85Q28.46 7.12 28.46 6.22L28.46 6.22Q28.46 5.34 28.73 4.62Q28.99 3.89 29.46 3.37Q29.94 2.85 30.59 2.57Q31.25 2.29 32.02 2.29L32.02 2.29Q32.80 2.29 33.45 2.57Q34.10 2.85 34.57 3.37Q35.04 3.89 35.30 4.62Q35.55 5.34 35.55 6.22ZM30.46 6.24L30.46 6.24Q30.46 7.25 30.82 7.87Q31.18 8.50 31.98 8.50L31.98 8.50Q32.75 8.50 33.14 7.87Q33.54 7.25 33.54 6.24L33.54 6.24Q33.54 5.23 33.18 4.62Q32.82 4 32.02 4L32.02 4Q31.25 4 30.86 4.62Q30.46 5.23 30.46 6.24ZM43.34 2.66L42.99 4.48Q42.80 4.43 42.54 4.38Q42.27 4.34 42 4.30Q41.73 4.26 41.47 4.24Q41.22 4.22 41.04 4.22L41.04 4.22Q40.62 4.22 40.22 4.26Q39.82 4.30 39.41 4.42L39.41 4.42L39.41 10L37.42 10L37.42 2.98Q38.21 2.69 39.03 2.51Q39.86 2.34 40.96 2.34L40.96 2.34Q41.12 2.34 41.42 2.35Q41.71 2.37 42.05 2.41Q42.38 2.45 42.73 2.50Q43.07 2.56 43.34 2.66L43.34 2.66ZM46.29 7.20L46.29 4.11L44.58 4.11L44.58 2.48L46.29 2.48L46.29 0.59L48.26 0.27L48.26 2.48L51.41 2.48L51.41 4.11L48.26 4.11L48.26 7.15Q48.26 7.57 48.34 7.82Q48.42 8.08 48.56 8.22Q48.70 8.37 48.91 8.42Q49.12 8.46 49.38 8.46L49.38 8.46Q49.65 8.46 49.88 8.45Q50.11 8.43 50.33 8.39Q50.54 8.35 50.78 8.27Q51.01 8.19 51.28 8.06L51.28 8.06L51.55 9.76Q51.01 9.98 50.38 10.08Q49.74 10.18 49.15 10.18L49.15 10.18Q48.46 10.18 47.94 10.06Q47.41 9.95 47.04 9.63Q46.67 9.31 46.48 8.73Q46.29 8.14 46.29 7.20L46.29 7.20ZM54.98 10L53.01 10L53.01-0.77L54.98-1.10L54.98 2.54Q55.22 2.46 55.55 2.39Q55.89 2.32 56.14 2.32L56.14 2.32Q56.98 2.32 57.54 2.57Q58.10 2.82 58.43 3.27Q58.77 3.73 58.91 4.36Q59.06 4.99 59.06 5.76L59.06 5.76L59.06 10L57.09 10L57.09 6.02Q57.09 4.96 56.85 4.50Q56.61 4.03 55.94 4.03L55.94 4.03Q55.66 4.03 55.40 4.10Q55.14 4.16 54.98 4.21L54.98 4.21L54.98 10Z"/>
    </g>
</svg>