<?xml version="1.0" encoding="UTF-8"?>
<svg height="34" width="92.5" version="1.1" xmlns="http://www.w3.org/2000/svg">
    <rect
        height="32"
        width="90.5"
        rx="14"
        ry="14"
        x="1"
        y="1"
        fill="#341708"
        stroke="#b9511d"
        stroke-width="1"
         />
    <g transform="translate(0, 14)">
        <path fill="#b9511d" d="M15.21 11L11.76 11L11.76-6.33L22.38-6.33L22.38-3.48L15.21-3.48L15.21 0.72L21.48 0.72L21.48 3.58L15.21 3.58L15.21 11ZM37.22 4.39L37.22 4.39Q37.22 5.96 36.77 7.23Q36.32 8.51 35.51 9.43Q34.70 10.36 33.56 10.86Q32.43 11.36 31.03 11.36L31.03 11.36Q29.63 11.36 28.49 10.86Q27.36 10.36 26.53 9.43Q25.71 8.51 25.26 7.23Q24.81 5.96 24.81 4.39L24.81 4.39Q24.81 2.85 25.27 1.58Q25.74 0.30 26.56-0.61Q27.39-1.52 28.54-2.01Q29.68-2.50 31.03-2.50L31.03-2.50Q32.40-2.50 33.53-2.01Q34.67-1.52 35.49-0.61Q36.32 0.30 36.77 1.58Q37.22 2.85 37.22 4.39ZM28.31 4.42L28.31 4.42Q28.31 6.18 28.94 7.28Q29.57 8.37 30.97 8.37L30.97 8.37Q32.32 8.37 33.00 7.28Q33.69 6.18 33.69 4.42L33.69 4.42Q33.69 2.66 33.06 1.58Q32.43 0.50 31.03 0.50L31.03 0.50Q29.68 0.50 29.00 1.58Q28.31 2.66 28.31 4.42ZM50.85-1.85L50.24 1.34Q49.90 1.26 49.44 1.17Q48.98 1.09 48.50 1.02Q48.02 0.95 47.58 0.92Q47.13 0.89 46.82 0.89L46.82 0.89Q46.09 0.89 45.39 0.96Q44.69 1.03 43.96 1.23L43.96 1.23L43.96 11L40.49 11L40.49-1.29Q41.86-1.80 43.31-2.10Q44.75-2.41 46.68-2.41L46.68-2.41Q46.96-2.41 47.48-2.38Q48.00-2.36 48.58-2.29Q49.17-2.22 49.77-2.12Q50.38-2.02 50.85-1.85L50.85-1.85ZM56.00 6.10L56.00 0.70L53.01 0.70L53.01-2.16L56.00-2.16L56.00-5.46L59.45-6.02L59.45-2.16L64.96-2.16L64.96 0.70L59.45 0.70L59.45 6.02Q59.45 6.74 59.59 7.19Q59.73 7.64 59.98 7.89Q60.23 8.14 60.60 8.23Q60.96 8.31 61.41 8.31L61.41 8.31Q61.88 8.31 62.29 8.28Q62.70 8.26 63.07 8.19Q63.45 8.12 63.86 7.98Q64.26 7.84 64.74 7.61L64.74 7.61L65.22 10.58Q64.26 10.97 63.16 11.14Q62.05 11.31 61.02 11.31L61.02 11.31Q59.81 11.31 58.89 11.11Q57.96 10.92 57.32 10.36Q56.68 9.80 56.34 8.77Q56.00 7.75 56.00 6.10L56.00 6.10ZM71.21 11L67.76 11L67.76-7.84L71.21-8.43L71.21-2.05Q71.63-2.19 72.22-2.31Q72.80-2.44 73.25-2.44L73.25-2.44Q74.71-2.44 75.69-2.01Q76.67-1.57 77.26-0.77Q77.84 0.02 78.10 1.13Q78.35 2.24 78.35 3.58L78.35 3.58L78.35 11L74.90 11L74.90 4.03Q74.90 2.18 74.48 1.37Q74.06 0.56 72.89 0.56L72.89 0.56Q72.41 0.56 71.95 0.67Q71.49 0.78 71.21 0.86L71.21 0.86L71.21 11Z"/>
    </g>
</svg>