<?xml version="1.0" encoding="UTF-8"?>
<svg height="34" width="175.1" version="1.1" xmlns="http://www.w3.org/2000/svg"><!--Created by Josélio de S. C. Júnior - 2021 - https://github.com/joseliojunior -->
    <rect
        height="32"
        width="173.1"
        rx="1"
        ry="1"
        x="1" y="1"
        fill="#199f4b"
        stroke="#041a0c"
        stroke-width="1" />
    <g transform="translate(0, 12)">
        <path fill="#041a0c" d="M27.51 12L24.46 12Q23.89 10.34 23.24 8.26Q22.59 6.17 22.02 4.09Q21.44 2.02 20.98 0.17Q20.53-1.68 20.31-2.86L20.31-2.86L23.43-2.86Q23.58-1.70 23.86-0.18Q24.15 1.34 24.50 2.96Q24.85 4.58 25.24 6.16Q25.64 7.73 26.02 8.98L26.02 8.98Q26.41 7.75 26.79 6.18Q27.18 4.61 27.51 2.99Q27.85 1.37 28.14-0.17Q28.42-1.70 28.62-2.86L28.62-2.86L31.71-2.86Q31.42-1.42 31.00 0.36Q30.58 2.14 30.04 4.09Q29.50 6.05 28.86 8.08Q28.21 10.10 27.51 12L27.51 12ZM38.82-2.52L38.82-2.52Q38.82-1.66 38.26-1.15Q37.71-0.65 36.94-0.65L36.94-0.65Q36.18-0.65 35.64-1.15Q35.10-1.66 35.10-2.52L35.10-2.52Q35.10-3.41 35.64-3.91Q36.18-4.42 36.94-4.42L36.94-4.42Q37.71-4.42 38.26-3.91Q38.82-3.41 38.82-2.52ZM42.82 9.14L43.21 11.52Q42.30 11.95 41.49 12.11Q40.69 12.26 40.02 12.26L40.02 12.26Q38.86 12.26 38.08 11.93Q37.30 11.59 36.84 10.96Q36.37 10.32 36.18 9.41Q35.98 8.50 35.98 7.32L35.98 7.32L35.98 3.17L32.86 3.17L32.86 0.72L38.94 0.72L38.94 7.70Q38.94 8.71 39.31 9.20Q39.68 9.70 40.54 9.70L40.54 9.70Q40.95 9.70 41.53 9.59Q42.10 9.48 42.82 9.14L42.82 9.14ZM52.23 0.60L52.23 0.60Q53.17 0.60 53.77 0.89Q54.37 1.18 54.72 1.75Q55.06 2.33 55.18 3.20Q55.30 4.08 55.30 5.26L55.30 5.26L55.30 12L52.90 12L52.90 5.11Q52.90 4.44 52.82 4.03Q52.74 3.62 52.60 3.41Q52.47 3.19 52.29 3.12Q52.11 3.05 51.92 3.05L51.92 3.05Q51.70 3.05 51.46 3.08Q51.22 3.12 51.03 3.22L51.03 3.22Q51.10 3.67 51.15 4.22Q51.20 4.78 51.20 5.45L51.20 5.45L51.20 7.70L48.80 7.70L48.80 5.11Q48.80 3.96 48.57 3.50Q48.34 3.05 47.84 3.05L47.84 3.05Q47.70 3.05 47.49 3.07Q47.29 3.10 47.10 3.14L47.10 3.14L47.10 12L44.70 12L44.70 1.15Q45.63 0.89 46.54 0.74Q47.46 0.60 48.15 0.60L48.15 0.60Q48.78 0.60 49.27 0.76Q49.76 0.91 50.12 1.27L50.12 1.27Q50.53 1.01 51.08 0.80Q51.63 0.60 52.23 0.60ZM73.57 9.84L73.57 9.84Q74.31 9.84 74.80 9.68Q75.30 9.53 75.58 9.25Q75.87 8.98 75.98 8.63Q76.09 8.28 76.09 7.92L76.09 7.92Q76.09 7.46 75.82 7.10Q75.56 6.74 75.15 6.47Q74.74 6.19 74.24 5.96Q73.74 5.74 73.23 5.54L73.23 5.54Q72.56 5.30 71.84 4.99Q71.12 4.68 70.53 4.20Q69.94 3.72 69.56 3.01Q69.18 2.30 69.18 1.25L69.18 1.25Q69.18-0.84 70.53-2.02Q71.89-3.19 74.26-3.19L74.26-3.19Q75.63-3.19 76.65-2.88Q77.67-2.57 78.37-2.18L78.37-2.18L77.50 0.10Q76.90-0.24 76.17-0.48Q75.44-0.72 74.48-0.72L74.48-0.72Q72.13-0.72 72.13 0.98L72.13 0.98Q72.13 1.42 72.37 1.74Q72.61 2.06 72.98 2.32Q73.35 2.57 73.82 2.76Q74.29 2.95 74.74 3.12L74.74 3.12Q75.44 3.38 76.20 3.71Q76.95 4.03 77.59 4.57Q78.22 5.11 78.63 5.92Q79.04 6.72 79.04 7.94L79.04 7.94Q79.04 10.03 77.68 11.17Q76.33 12.31 73.57 12.31L73.57 12.31Q71.72 12.31 70.62 11.92Q69.51 11.52 68.96 11.18L68.96 11.18L69.82 8.78Q70.47 9.17 71.37 9.50Q72.27 9.84 73.57 9.84ZM81.51 12L81.51 1.08Q82.30 0.86 83.47 0.67Q84.63 0.48 86 0.48L86 0.48Q87.34 0.48 88.23 0.85Q89.12 1.22 89.64 1.91Q90.15 2.59 90.37 3.54Q90.58 4.49 90.58 5.64L90.58 5.64L90.58 12L87.63 12L87.63 6.02Q87.63 4.44 87.27 3.74Q86.91 3.05 85.81 3.05L85.81 3.05Q85.47 3.05 85.15 3.07Q84.82 3.10 84.46 3.14L84.46 3.14L84.46 12L81.51 12ZM98.82-2.52L98.82-2.52Q98.82-1.66 98.26-1.15Q97.71-0.65 96.94-0.65L96.94-0.65Q96.18-0.65 95.64-1.15Q95.10-1.66 95.10-2.52L95.10-2.52Q95.10-3.41 95.64-3.91Q96.18-4.42 96.94-4.42L96.94-4.42Q97.71-4.42 98.26-3.91Q98.82-3.41 98.82-2.52ZM102.82 9.14L103.21 11.52Q102.30 11.95 101.49 12.11Q100.69 12.26 100.02 12.26L100.02 12.26Q98.86 12.26 98.08 11.93Q97.30 11.59 96.84 10.96Q96.37 10.32 96.18 9.41Q95.98 8.50 95.98 7.32L95.98 7.32L95.98 3.17L92.86 3.17L92.86 0.72L98.94 0.72L98.94 7.70Q98.94 8.71 99.31 9.20Q99.68 9.70 100.54 9.70L100.54 9.70Q100.95 9.70 101.53 9.59Q102.10 9.48 102.82 9.14L102.82 9.14ZM112.26 6.46L112.26 6.46Q112.26 4.94 111.66 3.97Q111.06 3 109.83 3L109.83 3Q109.50 3 109.11 3.04Q108.73 3.07 108.46 3.10L108.46 3.10L108.46 9.29Q108.75 9.48 109.23 9.60Q109.71 9.72 110.19 9.72L110.19 9.72Q111.25 9.72 111.75 8.87Q112.26 8.02 112.26 6.46ZM115.26 6.36L115.26 6.36Q115.26 7.66 114.97 8.75Q114.68 9.84 114.13 10.62Q113.58 11.40 112.74 11.83Q111.90 12.26 110.79 12.26L110.79 12.26Q109.66 12.26 108.46 11.71L108.46 11.71L108.46 15.96L105.51 15.96L105.51 1.08Q106.33 0.82 107.52 0.65Q108.70 0.48 109.86 0.48L109.86 0.48Q112.47 0.48 113.86 2.06Q115.26 3.65 115.26 6.36ZM124.26 6.46L124.26 6.46Q124.26 4.94 123.66 3.97Q123.06 3 121.83 3L121.83 3Q121.50 3 121.11 3.04Q120.73 3.07 120.46 3.10L120.46 3.10L120.46 9.29Q120.75 9.48 121.23 9.60Q121.71 9.72 122.19 9.72L122.19 9.72Q123.25 9.72 123.75 8.87Q124.26 8.02 124.26 6.46ZM127.26 6.36L127.26 6.36Q127.26 7.66 126.97 8.75Q126.68 9.84 126.13 10.62Q125.58 11.40 124.74 11.83Q123.90 12.26 122.79 12.26L122.79 12.26Q121.66 12.26 120.46 11.71L120.46 11.71L120.46 15.96L117.51 15.96L117.51 1.08Q118.33 0.82 119.52 0.65Q120.70 0.48 121.86 0.48L121.86 0.48Q124.47 0.48 125.86 2.06Q127.26 3.65 127.26 6.36ZM128.74 6.46L128.74 6.46Q128.74 4.97 129.20 3.84Q129.66 2.71 130.40 1.96Q131.14 1.20 132.10 0.82Q133.06 0.43 134.07 0.43L134.07 0.43Q136.57 0.43 137.86 1.91Q139.16 3.38 139.16 6.22L139.16 6.22Q139.16 6.50 139.15 6.82Q139.14 7.13 139.11 7.32L139.11 7.32L131.79 7.32Q131.79 8.42 132.70 9.06Q133.62 9.70 135.06 9.70L135.06 9.70Q135.94 9.70 136.75 9.50Q137.55 9.31 138.10 9.12L138.10 9.12L138.51 11.64Q137.74 11.90 136.88 12.08Q136.02 12.26 134.94 12.26L134.94 12.26Q133.50 12.26 132.36 11.89Q131.22 11.52 130.41 10.79Q129.61 10.06 129.18 8.98Q128.74 7.90 128.74 6.46ZM131.79 5.28L136.30 5.28Q136.30 4.82 136.18 4.40Q136.06 3.98 135.80 3.65Q135.54 3.31 135.13 3.11Q134.72 2.90 134.12 2.90L134.12 2.90Q133.54 2.90 133.12 3.10Q132.70 3.29 132.43 3.62Q132.15 3.96 132.00 4.39Q131.84 4.82 131.79 5.28L131.79 5.28ZM143.43 7.80L143.43 3.17L140.86 3.17L140.86 0.72L143.43 0.72L143.43-2.11L146.38-2.59L146.38 0.72L151.11 0.72L151.11 3.17L146.38 3.17L146.38 7.73Q146.38 8.35 146.50 8.74Q146.62 9.12 146.84 9.34Q147.06 9.55 147.37 9.62Q147.68 9.70 148.06 9.70L148.06 9.70Q148.47 9.70 148.82 9.67Q149.17 9.65 149.49 9.59Q149.82 9.53 150.16 9.41Q150.51 9.29 150.92 9.10L150.92 9.10L151.33 11.64Q150.51 11.98 149.56 12.12Q148.62 12.26 147.73 12.26L147.73 12.26Q146.70 12.26 145.90 12.10Q145.11 11.93 144.56 11.45Q144.01 10.97 143.72 10.09Q143.43 9.22 143.43 7.80L143.43 7.80Z"/>
    </g>
</svg>