<?xml version="1.0" encoding="UTF-8"?>
<svg height="34" width="380.8" version="1.1" xmlns="http://www.w3.org/2000/svg">
    <rect
        height="32"
        width="378.8"
        rx="1"
        ry="1"
        x="1"
        y="1"
        fill="#f7e43f"
        stroke="#988906"
        stroke-width="1"
         />
    <g transform="translate(0, 12)">
        <path fill="#988906" d="M24.94 2.40L27.10 2.40Q27.20 2.86 27.39 3.53Q27.58 4.20 27.81 5.02Q28.04 5.83 28.32 6.77Q28.59 7.70 28.86 8.69L28.86 8.69Q28.86 7.44 28.83 6.01Q28.81 4.58 28.78 3.10Q28.76 1.61 28.74 0.08Q28.71-1.44 28.71-2.86L28.71-2.86L31.45-2.86Q31.38-1.03 31.30 0.90Q31.23 2.83 31.14 4.74Q31.04 6.65 30.91 8.50Q30.78 10.34 30.61 12L30.61 12L28.16 12Q27.63 10.49 27.10 8.75Q26.58 7.01 26.05 5.42L26.05 5.42Q25.52 6.94 24.94 8.71Q24.37 10.49 23.89 12L23.89 12L21.44 12Q21.25 10.34 21.10 8.48Q20.96 6.62 20.85 4.72Q20.74 2.81 20.67 0.88Q20.60-1.06 20.55-2.86L20.55-2.86L23.29-2.86Q23.26-1.44 23.24 0.07Q23.22 1.58 23.19 3.08Q23.17 4.58 23.14 6.01Q23.12 7.44 23.12 8.69L23.12 8.69Q23.34 7.92 23.61 7.01Q23.89 6.10 24.14 5.21Q24.39 4.32 24.61 3.58Q24.82 2.83 24.94 2.40L24.94 2.40ZM43.33 6.34L43.33 6.34Q43.33 7.68 42.94 8.77Q42.56 9.86 41.86 10.66Q41.17 11.45 40.20 11.88Q39.22 12.31 38.02 12.31L38.02 12.31Q36.82 12.31 35.85 11.88Q34.88 11.45 34.17 10.66Q33.46 9.86 33.08 8.77Q32.70 7.68 32.70 6.34L32.70 6.34Q32.70 5.02 33.09 3.92Q33.49 2.83 34.20 2.05Q34.90 1.27 35.89 0.85Q36.87 0.43 38.02 0.43L38.02 0.43Q39.20 0.43 40.17 0.85Q41.14 1.27 41.85 2.05Q42.56 2.83 42.94 3.92Q43.33 5.02 43.33 6.34ZM35.70 6.36L35.70 6.36Q35.70 7.87 36.24 8.81Q36.78 9.74 37.98 9.74L37.98 9.74Q39.13 9.74 39.72 8.81Q40.30 7.87 40.30 6.36L40.30 6.36Q40.30 4.85 39.76 3.92Q39.22 3 38.02 3L38.02 3Q36.87 3 36.28 3.92Q35.70 4.85 35.70 6.36ZM55.02 0.98L54.49 3.72Q54.20 3.65 53.80 3.58Q53.41 3.50 53 3.44Q52.59 3.38 52.21 3.36Q51.82 3.34 51.56 3.34L51.56 3.34Q50.94 3.34 50.34 3.40Q49.74 3.46 49.11 3.62L49.11 3.62L49.11 12L46.14 12L46.14 1.46Q47.31 1.03 48.55 0.77Q49.78 0.50 51.44 0.50L51.44 0.50Q51.68 0.50 52.12 0.53Q52.57 0.55 53.07 0.61Q53.58 0.67 54.09 0.76Q54.61 0.84 55.02 0.98L55.02 0.98ZM66.82 9.14L67.21 11.52Q67.14 11.57 66.88 11.69Q66.63 11.81 66.22 11.94Q65.82 12.07 65.23 12.17Q64.64 12.26 63.90 12.26L63.90 12.26Q61.86 12.26 60.92 11.05Q59.98 9.84 59.98 7.51L59.98 7.51L59.98-2.06L56.86-2.06L56.86-4.51L62.94-4.51L62.94 7.73Q62.94 8.88 63.39 9.29Q63.85 9.70 64.54 9.70L64.54 9.70Q65.43 9.70 66.03 9.46Q66.63 9.22 66.82 9.14L66.82 9.14ZM71.67 6.29L71.67 6.29Q71.67 7.80 72.24 8.76Q72.80 9.72 74.05 9.72L74.05 9.72Q74.41 9.72 74.72 9.70Q75.03 9.67 75.37 9.62L75.37 9.62L75.37 3.48Q75.03 3.29 74.60 3.16Q74.17 3.02 73.69 3.02L73.69 3.02Q72.63 3.02 72.15 3.86Q71.67 4.70 71.67 6.29ZM78.32-4.66L78.32 11.66Q77.50 11.93 76.33 12.10Q75.15 12.26 74.02 12.26L74.02 12.26Q71.38 12.26 70.03 10.70Q68.67 9.14 68.67 6.43L68.67 6.43Q68.67 3.67 69.81 2.08Q70.95 0.48 73.18 0.48L73.18 0.48Q73.78 0.48 74.36 0.61Q74.94 0.74 75.37 0.98L75.37 0.98L75.37-4.15L78.32-4.66ZM103.33 6.34L103.33 6.34Q103.33 7.68 102.94 8.77Q102.56 9.86 101.86 10.66Q101.17 11.45 100.20 11.88Q99.22 12.31 98.02 12.31L98.02 12.31Q96.82 12.31 95.85 11.88Q94.88 11.45 94.17 10.66Q93.46 9.86 93.08 8.77Q92.70 7.68 92.70 6.34L92.70 6.34Q92.70 5.02 93.09 3.92Q93.49 2.83 94.20 2.05Q94.90 1.27 95.89 0.85Q96.87 0.43 98.02 0.43L98.02 0.43Q99.20 0.43 100.17 0.85Q101.14 1.27 101.85 2.05Q102.56 2.83 102.94 3.92Q103.33 5.02 103.33 6.34ZM95.70 6.36L95.70 6.36Q95.70 7.87 96.24 8.81Q96.78 9.74 97.98 9.74L97.98 9.74Q99.13 9.74 99.72 8.81Q100.30 7.87 100.30 6.36L100.30 6.36Q100.30 4.85 99.76 3.92Q99.22 3 98.02 3L98.02 3Q96.87 3 96.28 3.92Q95.70 4.85 95.70 6.36ZM110.31 12L107.34 12L107.34 3.17L104.86 3.17L104.86 0.72L107.34 0.72L107.34 0.07Q107.34-1.30 107.73-2.20Q108.13-3.10 108.80-3.64Q109.47-4.18 110.34-4.40Q111.20-4.63 112.11-4.63L112.11-4.63Q113.05-4.63 114.03-4.46Q115.02-4.30 115.81-3.91L115.81-3.91L115.30-1.51Q114.75-1.70 113.92-1.91Q113.10-2.11 112.35-2.11L112.35-2.11Q111.94-2.11 111.57-2.04Q111.20-1.97 110.92-1.73Q110.65-1.49 110.48-1.04Q110.31-0.60 110.31 0.12L110.31 0.12L110.31 0.72L114.94 0.72L114.94 3.17L110.31 3.17L110.31 12ZM132.94 2.40L135.10 2.40Q135.20 2.86 135.39 3.53Q135.58 4.20 135.81 5.02Q136.04 5.83 136.32 6.77Q136.59 7.70 136.86 8.69L136.86 8.69Q136.86 7.44 136.83 6.01Q136.81 4.58 136.78 3.10Q136.76 1.61 136.74 0.08Q136.71-1.44 136.71-2.86L136.71-2.86L139.45-2.86Q139.38-1.03 139.30 0.90Q139.23 2.83 139.14 4.74Q139.04 6.65 138.91 8.50Q138.78 10.34 138.61 12L138.61 12L136.16 12Q135.63 10.49 135.10 8.75Q134.58 7.01 134.05 5.42L134.05 5.42Q133.52 6.94 132.94 8.71Q132.37 10.49 131.89 12L131.89 12L129.44 12Q129.25 10.34 129.10 8.48Q128.96 6.62 128.85 4.72Q128.74 2.81 128.67 0.88Q128.60-1.06 128.55-2.86L128.55-2.86L131.29-2.86Q131.26-1.44 131.24 0.07Q131.22 1.58 131.19 3.08Q131.17 4.58 131.14 6.01Q131.12 7.44 131.12 8.69L131.12 8.69Q131.34 7.92 131.61 7.01Q131.89 6.10 132.14 5.21Q132.39 4.32 132.61 3.58Q132.82 2.83 132.94 2.40L132.94 2.40ZM146.02 9.89L146.02 9.89Q146.50 9.89 146.96 9.88Q147.42 9.86 147.75 9.82L147.75 9.82L147.75 7.22Q147.46 7.18 147.06 7.14Q146.65 7.10 146.31 7.10L146.31 7.10Q145.86 7.10 145.42 7.16Q144.99 7.22 144.67 7.37Q144.34 7.51 144.15 7.78Q143.96 8.04 143.96 8.47L143.96 8.47Q143.96 9.24 144.54 9.56Q145.11 9.89 146.02 9.89ZM145.76 0.43L145.76 0.43Q147.15 0.43 148.08 0.76Q149 1.08 149.55 1.67Q150.10 2.26 150.34 3.11Q150.58 3.96 150.58 5.02L150.58 5.02L150.58 11.74Q149.94 11.88 148.66 12.07Q147.39 12.26 145.81 12.26L145.81 12.26Q144.73 12.26 143.85 12.07Q142.98 11.88 142.35 11.44Q141.73 10.99 141.39 10.28Q141.06 9.58 141.06 8.54L141.06 8.54Q141.06 7.56 141.44 6.89Q141.82 6.22 142.47 5.81Q143.12 5.40 143.96 5.22Q144.80 5.04 145.71 5.04L145.71 5.04Q146.86 5.04 147.75 5.23L147.75 5.23L147.75 4.87Q147.75 4.03 147.22 3.47Q146.70 2.90 145.40 2.90L145.40 2.90Q144.56 2.90 143.78 3.02Q143 3.14 142.52 3.31L142.52 3.31L142.11 0.94Q142.66 0.74 143.67 0.59Q144.68 0.43 145.76 0.43ZM163.02 0.98L162.49 3.72Q162.20 3.65 161.80 3.58Q161.41 3.50 161 3.44Q160.59 3.38 160.21 3.36Q159.82 3.34 159.56 3.34L159.56 3.34Q158.94 3.34 158.34 3.40Q157.74 3.46 157.11 3.62L157.11 3.62L157.11 12L154.14 12L154.14 1.46Q155.31 1.03 156.55 0.77Q157.78 0.50 159.44 0.50L159.44 0.50Q159.68 0.50 160.12 0.53Q160.57 0.55 161.07 0.61Q161.58 0.67 162.09 0.76Q162.61 0.84 163.02 0.98L163.02 0.98ZM165.06 6.36L165.06 6.36Q165.06 5.14 165.44 4.06Q165.82 2.98 166.62 2.17Q167.41 1.37 168.62 0.90Q169.83 0.43 171.51 0.43L171.51 0.43Q172.52 0.43 173.34 0.58Q174.15 0.72 174.99 1.06L174.99 1.06L174.34 3.43Q173.86 3.26 173.28 3.13Q172.69 3 171.78 3L171.78 3Q170.72 3 170.01 3.25Q169.30 3.50 168.87 3.95Q168.44 4.39 168.25 5.02Q168.06 5.64 168.06 6.36L168.06 6.36Q168.06 7.92 168.93 8.81Q169.81 9.70 171.92 9.70L171.92 9.70Q172.62 9.70 173.37 9.60Q174.13 9.50 174.75 9.29L174.75 9.29L175.18 11.71Q174.56 11.95 173.67 12.11Q172.78 12.26 171.58 12.26L171.58 12.26Q169.86 12.26 168.62 11.81Q167.38 11.35 166.59 10.56Q165.80 9.77 165.43 8.69Q165.06 7.61 165.06 6.36ZM187.02 0.98L186.49 3.72Q186.20 3.65 185.80 3.58Q185.41 3.50 185 3.44Q184.59 3.38 184.21 3.36Q183.82 3.34 183.56 3.34L183.56 3.34Q182.94 3.34 182.34 3.40Q181.74 3.46 181.11 3.62L181.11 3.62L181.11 12L178.14 12L178.14 1.46Q179.31 1.03 180.55 0.77Q181.78 0.50 183.44 0.50L183.44 0.50Q183.68 0.50 184.12 0.53Q184.57 0.55 185.07 0.61Q185.58 0.67 186.09 0.76Q186.61 0.84 187.02 0.98L187.02 0.98ZM194.02 9.89L194.02 9.89Q194.50 9.89 194.96 9.88Q195.42 9.86 195.75 9.82L195.75 9.82L195.75 7.22Q195.46 7.18 195.06 7.14Q194.65 7.10 194.31 7.10L194.31 7.10Q193.86 7.10 193.42 7.16Q192.99 7.22 192.67 7.37Q192.34 7.51 192.15 7.78Q191.96 8.04 191.96 8.47L191.96 8.47Q191.96 9.24 192.54 9.56Q193.11 9.89 194.02 9.89ZM193.76 0.43L193.76 0.43Q195.15 0.43 196.08 0.76Q197 1.08 197.55 1.67Q198.10 2.26 198.34 3.11Q198.58 3.96 198.58 5.02L198.58 5.02L198.58 11.74Q197.94 11.88 196.66 12.07Q195.39 12.26 193.81 12.26L193.81 12.26Q192.73 12.26 191.85 12.07Q190.98 11.88 190.35 11.44Q189.73 10.99 189.39 10.28Q189.06 9.58 189.06 8.54L189.06 8.54Q189.06 7.56 189.44 6.89Q189.82 6.22 190.47 5.81Q191.12 5.40 191.96 5.22Q192.80 5.04 193.71 5.04L193.71 5.04Q194.86 5.04 195.75 5.23L195.75 5.23L195.75 4.87Q195.75 4.03 195.22 3.47Q194.70 2.90 193.40 2.90L193.40 2.90Q192.56 2.90 191.78 3.02Q191 3.14 190.52 3.31L190.52 3.31L190.11 0.94Q190.66 0.74 191.67 0.59Q192.68 0.43 193.76 0.43ZM206.31 12L203.34 12L203.34 3.17L200.86 3.17L200.86 0.72L203.34 0.72L203.34 0.07Q203.34-1.30 203.73-2.20Q204.13-3.10 204.80-3.64Q205.47-4.18 206.34-4.40Q207.20-4.63 208.11-4.63L208.11-4.63Q209.05-4.63 210.03-4.46Q211.02-4.30 211.81-3.91L211.81-3.91L211.30-1.51Q210.75-1.70 209.92-1.91Q209.10-2.11 208.35-2.11L208.35-2.11Q207.94-2.11 207.57-2.04Q207.20-1.97 206.92-1.73Q206.65-1.49 206.48-1.04Q206.31-0.60 206.31 0.12L206.31 0.12L206.31 0.72L210.94 0.72L210.94 3.17L206.31 3.17L206.31 12ZM215.43 7.80L215.43 3.17L212.86 3.17L212.86 0.72L215.43 0.72L215.43-2.11L218.38-2.59L218.38 0.72L223.11 0.72L223.11 3.17L218.38 3.17L218.38 7.73Q218.38 8.35 218.50 8.74Q218.62 9.12 218.84 9.34Q219.06 9.55 219.37 9.62Q219.68 9.70 220.06 9.70L220.06 9.70Q220.47 9.70 220.82 9.67Q221.17 9.65 221.49 9.59Q221.82 9.53 222.16 9.41Q222.51 9.29 222.92 9.10L222.92 9.10L223.33 11.64Q222.51 11.98 221.56 12.12Q220.62 12.26 219.73 12.26L219.73 12.26Q218.70 12.26 217.90 12.10Q217.11 11.93 216.56 11.45Q216.01 10.97 215.72 10.09Q215.43 9.22 215.43 7.80L215.43 7.80ZM247.78 12L244.62 12L243.92 8.57L239.96 8.57L239.29 12L236.22 12Q237.27 7.61 238.35 4.00Q239.43 0.38 240.44-2.86L240.44-2.86L243.66-2.86Q244.71 0.41 245.76 4.07Q246.80 7.73 247.78 12L247.78 12ZM241.98 0.02L241.98 0.02Q241.74 0.86 241.53 1.62Q241.33 2.38 241.15 3.11Q240.97 3.84 240.81 4.58Q240.66 5.33 240.51 6.12L240.51 6.12L243.42 6.12Q243.27 5.33 243.13 4.58Q242.98 3.84 242.80 3.11Q242.62 2.38 242.42 1.62Q242.22 0.86 241.98 0.02ZM251.67 6.29L251.67 6.29Q251.67 7.80 252.24 8.76Q252.80 9.72 254.05 9.72L254.05 9.72Q254.41 9.72 254.72 9.70Q255.03 9.67 255.37 9.62L255.37 9.62L255.37 3.48Q255.03 3.29 254.60 3.16Q254.17 3.02 253.69 3.02L253.69 3.02Q252.63 3.02 252.15 3.86Q251.67 4.70 251.67 6.29ZM258.32-4.66L258.32 11.66Q257.50 11.93 256.33 12.10Q255.15 12.26 254.02 12.26L254.02 12.26Q251.38 12.26 250.03 10.70Q248.67 9.14 248.67 6.43L248.67 6.43Q248.67 3.67 249.81 2.08Q250.95 0.48 253.18 0.48L253.18 0.48Q253.78 0.48 254.36 0.61Q254.94 0.74 255.37 0.98L255.37 0.98L255.37-4.15L258.32-4.66ZM263.67 6.29L263.67 6.29Q263.67 7.80 264.24 8.76Q264.80 9.72 266.05 9.72L266.05 9.72Q266.41 9.72 266.72 9.70Q267.03 9.67 267.37 9.62L267.37 9.62L267.37 3.48Q267.03 3.29 266.60 3.16Q266.17 3.02 265.69 3.02L265.69 3.02Q264.63 3.02 264.15 3.86Q263.67 4.70 263.67 6.29ZM270.32-4.66L270.32 11.66Q269.50 11.93 268.33 12.10Q267.15 12.26 266.02 12.26L266.02 12.26Q263.38 12.26 262.03 10.70Q260.67 9.14 260.67 6.43L260.67 6.43Q260.67 3.67 261.81 2.08Q262.95 0.48 265.18 0.48L265.18 0.48Q265.78 0.48 266.36 0.61Q266.94 0.74 267.37 0.98L267.37 0.98L267.37-4.15L270.32-4.66ZM283.33 6.34L283.33 6.34Q283.33 7.68 282.94 8.77Q282.56 9.86 281.86 10.66Q281.17 11.45 280.20 11.88Q279.22 12.31 278.02 12.31L278.02 12.31Q276.82 12.31 275.85 11.88Q274.88 11.45 274.17 10.66Q273.46 9.86 273.08 8.77Q272.70 7.68 272.70 6.34L272.70 6.34Q272.70 5.02 273.09 3.92Q273.49 2.83 274.20 2.05Q274.90 1.27 275.89 0.85Q276.87 0.43 278.02 0.43L278.02 0.43Q279.20 0.43 280.17 0.85Q281.14 1.27 281.85 2.05Q282.56 2.83 282.94 3.92Q283.33 5.02 283.33 6.34ZM275.70 6.36L275.70 6.36Q275.70 7.87 276.24 8.81Q276.78 9.74 277.98 9.74L277.98 9.74Q279.13 9.74 279.72 8.81Q280.30 7.87 280.30 6.36L280.30 6.36Q280.30 4.85 279.76 3.92Q279.22 3 278.02 3L278.02 3Q276.87 3 276.28 3.92Q275.70 4.85 275.70 6.36ZM285.51 12L285.51 1.08Q286.30 0.86 287.47 0.67Q288.63 0.48 290 0.48L290 0.48Q291.34 0.48 292.23 0.85Q293.12 1.22 293.64 1.91Q294.15 2.59 294.37 3.54Q294.58 4.49 294.58 5.64L294.58 5.64L294.58 12L291.63 12L291.63 6.02Q291.63 4.44 291.27 3.74Q290.91 3.05 289.81 3.05L289.81 3.05Q289.47 3.05 289.15 3.07Q288.82 3.10 288.46 3.14L288.46 3.14L288.46 12L285.51 12ZM312.25-0.38L312.25 9.60Q312.37 9.62 312.51 9.62Q312.66 9.62 312.78 9.62L312.78 9.62Q313.78 9.62 314.47 9.24Q315.15 8.86 315.57 8.18Q315.99 7.51 316.17 6.59Q316.35 5.66 316.35 4.56L316.35 4.56Q316.35 3.60 316.21 2.69Q316.06 1.78 315.70 1.08Q315.34 0.38 314.72-0.04Q314.10-0.46 313.11-0.46L313.11-0.46Q312.92-0.46 312.68-0.44Q312.44-0.43 312.25-0.38L312.25-0.38ZM319.35 4.56L319.35 4.56Q319.35 6.62 318.84 8.08Q318.32 9.53 317.41 10.44Q316.50 11.35 315.24 11.77Q313.98 12.19 312.46 12.19L312.46 12.19Q311.67 12.19 310.92 12.11Q310.16 12.02 309.30 11.83L309.30 11.83L309.30-2.66Q310.30-2.88 311.19-2.95Q312.08-3.02 312.85-3.02L312.85-3.02Q314.31-3.02 315.52-2.59Q316.74-2.16 317.58-1.24Q318.42-0.31 318.88 1.12Q319.35 2.54 319.35 4.56ZM326.02 9.89L326.02 9.89Q326.50 9.89 326.96 9.88Q327.42 9.86 327.75 9.82L327.75 9.82L327.75 7.22Q327.46 7.18 327.06 7.14Q326.65 7.10 326.31 7.10L326.31 7.10Q325.86 7.10 325.42 7.16Q324.99 7.22 324.67 7.37Q324.34 7.51 324.15 7.78Q323.96 8.04 323.96 8.47L323.96 8.47Q323.96 9.24 324.54 9.56Q325.11 9.89 326.02 9.89ZM325.76 0.43L325.76 0.43Q327.15 0.43 328.08 0.76Q329 1.08 329.55 1.67Q330.10 2.26 330.34 3.11Q330.58 3.96 330.58 5.02L330.58 5.02L330.58 11.74Q329.94 11.88 328.66 12.07Q327.39 12.26 325.81 12.26L325.81 12.26Q324.73 12.26 323.85 12.07Q322.98 11.88 322.35 11.44Q321.73 10.99 321.39 10.28Q321.06 9.58 321.06 8.54L321.06 8.54Q321.06 7.56 321.44 6.89Q321.82 6.22 322.47 5.81Q323.12 5.40 323.96 5.22Q324.80 5.04 325.71 5.04L325.71 5.04Q326.86 5.04 327.75 5.23L327.75 5.23L327.75 4.87Q327.75 4.03 327.22 3.47Q326.70 2.90 325.40 2.90L325.40 2.90Q324.56 2.90 323.78 3.02Q323 3.14 322.52 3.31L322.52 3.31L322.11 0.94Q322.66 0.74 323.67 0.59Q324.68 0.43 325.76 0.43ZM335.43 7.80L335.43 3.17L332.86 3.17L332.86 0.72L335.43 0.72L335.43-2.11L338.38-2.59L338.38 0.72L343.11 0.72L343.11 3.17L338.38 3.17L338.38 7.73Q338.38 8.35 338.50 8.74Q338.62 9.12 338.84 9.34Q339.06 9.55 339.37 9.62Q339.68 9.70 340.06 9.70L340.06 9.70Q340.47 9.70 340.82 9.67Q341.17 9.65 341.49 9.59Q341.82 9.53 342.16 9.41Q342.51 9.29 342.92 9.10L342.92 9.10L343.33 11.64Q342.51 11.98 341.56 12.12Q340.62 12.26 339.73 12.26L339.73 12.26Q338.70 12.26 337.90 12.10Q337.11 11.93 336.56 11.45Q336.01 10.97 335.72 10.09Q335.43 9.22 335.43 7.80L335.43 7.80ZM350.02 9.89L350.02 9.89Q350.50 9.89 350.96 9.88Q351.42 9.86 351.75 9.82L351.75 9.82L351.75 7.22Q351.46 7.18 351.06 7.14Q350.65 7.10 350.31 7.10L350.31 7.10Q349.86 7.10 349.42 7.16Q348.99 7.22 348.67 7.37Q348.34 7.51 348.15 7.78Q347.96 8.04 347.96 8.47L347.96 8.47Q347.96 9.24 348.54 9.56Q349.11 9.89 350.02 9.89ZM349.76 0.43L349.76 0.43Q351.15 0.43 352.08 0.76Q353 1.08 353.55 1.67Q354.10 2.26 354.34 3.11Q354.58 3.96 354.58 5.02L354.58 5.02L354.58 11.74Q353.94 11.88 352.66 12.07Q351.39 12.26 349.81 12.26L349.81 12.26Q348.73 12.26 347.85 12.07Q346.98 11.88 346.35 11.44Q345.73 10.99 345.39 10.28Q345.06 9.58 345.06 8.54L345.06 8.54Q345.06 7.56 345.44 6.89Q345.82 6.22 346.47 5.81Q347.12 5.40 347.96 5.22Q348.80 5.04 349.71 5.04L349.71 5.04Q350.86 5.04 351.75 5.23L351.75 5.23L351.75 4.87Q351.75 4.03 351.22 3.47Q350.70 2.90 349.40 2.90L349.40 2.90Q348.56 2.90 347.78 3.02Q347 3.14 346.52 3.31L346.52 3.31L346.11 0.94Q346.66 0.74 347.67 0.59Q348.68 0.43 349.76 0.43Z"/>
    </g>
</svg>