<?xml version="1.0" encoding="UTF-8"?>
<svg height="34" width="205.29999999999998" version="1.1" xmlns="http://www.w3.org/2000/svg">
    <rect
        height="32"
        width="203.29999999999998"
        rx="1"
        ry="1"
        x="1"
        y="1"
        fill="#6866fb"
        stroke="#060490"
        stroke-width="1"
         />
    <g transform="translate(0, 14)">
        <path fill="#060490" d="M14.26 2.32L14.26 2.32Q14.26 3.58 14.35 4.69Q14.45 5.79 14.75 6.60Q15.04 7.42 15.57 7.89Q16.10 8.37 17 8.37L17 8.37Q17.87 8.37 18.41 7.89Q18.96 7.42 19.25 6.59Q19.55 5.76 19.65 4.67Q19.74 3.58 19.74 2.32L19.74 2.32Q19.74 1.06 19.65-0.05Q19.55-1.15 19.25-1.96Q18.96-2.78 18.43-3.25Q17.90-3.73 17-3.73L17-3.73Q16.10-3.73 15.57-3.25Q15.04-2.78 14.75-1.95Q14.45-1.12 14.35-0.03Q14.26 1.06 14.26 2.32ZM10.76 2.32L10.76 2.32Q10.76-2.16 12.41-4.44Q14.06-6.72 17-6.72L17-6.72Q20.05-6.72 21.65-4.44Q23.24-2.16 23.24 2.32L23.24 2.32Q23.24 6.80 21.62 9.08Q20.00 11.36 17.03 11.36L17.03 11.36Q13.98 11.36 12.37 9.08Q10.76 6.80 10.76 2.32ZM33.66 4.34L33.66 4.34Q33.66 2.49 33.06 1.51Q32.46 0.53 31.22 0.53L31.22 0.53Q30.66 0.53 30.12 0.68Q29.57 0.84 29.18 1.06L29.18 1.06L29.18 8.20Q29.57 8.28 30.01 8.31Q30.44 8.34 30.75 8.34L30.75 8.34Q32.09 8.34 32.88 7.43Q33.66 6.52 33.66 4.34ZM37.16 4.42L37.16 4.42Q37.16 5.99 36.74 7.26Q36.32 8.54 35.51 9.43Q34.70 10.33 33.52 10.82Q32.34 11.31 30.83 11.31L30.83 11.31Q29.49 11.31 28.09 11.11Q26.69 10.92 25.74 10.61L25.74 10.61L25.74-7.84L29.18-8.43L29.18-1.85Q29.91-2.19 30.58-2.31Q31.25-2.44 31.92-2.44L31.92-2.44Q33.21-2.44 34.19-1.95Q35.17-1.46 35.83-0.55Q36.49 0.36 36.82 1.62Q37.16 2.88 37.16 4.42ZM49.20-2.16L49.20 10.13Q49.20 11.73 48.81 12.81Q48.42 13.88 47.73 14.54Q47.04 15.20 46.11 15.48Q45.17 15.76 44.08 15.76L44.08 15.76Q42.73 15.76 41.58 15.42Q40.44 15.09 39.37 14.56L39.37 14.56L40.44 11.64Q41.14 12.04 42.13 12.39Q43.12 12.74 43.94 12.74L43.94 12.74Q44.80 12.74 45.28 12.22Q45.76 11.70 45.76 10.30L45.76 10.30L45.76 0.70L40.44 0.70L40.44-2.16L49.20-2.16ZM48.78-5.94L48.78-5.94Q48.78-4.93 48.14-4.34Q47.49-3.76 46.60-3.76L46.60-3.76Q45.70-3.76 45.07-4.34Q44.44-4.93 44.44-5.94L44.44-5.94Q44.44-6.98 45.07-7.56Q45.70-8.15 46.60-8.15L46.60-8.15Q47.49-8.15 48.14-7.56Q48.78-6.98 48.78-5.94ZM52.87 4.53L52.87 4.53Q52.87 2.80 53.40 1.48Q53.93 0.16 54.80-0.72Q55.67-1.60 56.79-2.05Q57.91-2.50 59.08-2.50L59.08-2.50Q62.00-2.50 63.51-0.77Q65.02 0.95 65.02 4.25L65.02 4.25Q65.02 4.59 65.01 4.95Q64.99 5.32 64.96 5.54L64.96 5.54L56.42 5.54Q56.42 6.83 57.49 7.57Q58.55 8.31 60.23 8.31L60.23 8.31Q61.27 8.31 62.21 8.09Q63.14 7.86 63.79 7.64L63.79 7.64L64.26 10.58Q63.37 10.89 62.36 11.10Q61.35 11.31 60.09 11.31L60.09 11.31Q58.41 11.31 57.08 10.87Q55.75 10.44 54.81 9.59Q53.88 8.73 53.37 7.47Q52.87 6.21 52.87 4.53ZM56.42 3.16L61.69 3.16Q61.69 2.63 61.55 2.14Q61.41 1.65 61.10 1.26Q60.79 0.86 60.32 0.63Q59.84 0.39 59.14 0.39L59.14 0.39Q58.47 0.39 57.98 0.61Q57.49 0.84 57.17 1.23Q56.84 1.62 56.66 2.12Q56.48 2.63 56.42 3.16L56.42 3.16ZM67.23 4.42L67.23 4.42Q67.23 2.99 67.68 1.73Q68.13 0.47 69.05-0.47Q69.98-1.40 71.39-1.95Q72.80-2.50 74.76-2.50L74.76-2.50Q75.94-2.50 76.89-2.33Q77.84-2.16 78.82-1.77L78.82-1.77L78.07 1.00Q77.51 0.81 76.82 0.65Q76.14 0.50 75.07 0.50L75.07 0.50Q73.84 0.50 73.01 0.79Q72.19 1.09 71.68 1.61Q71.18 2.12 70.96 2.85Q70.73 3.58 70.73 4.42L70.73 4.42Q70.73 6.24 71.75 7.28Q72.78 8.31 75.24 8.31L75.24 8.31Q76.05 8.31 76.93 8.20Q77.82 8.09 78.54 7.84L78.54 7.84L79.05 10.66Q78.32 10.94 77.28 11.13Q76.25 11.31 74.85 11.31L74.85 11.31Q72.83 11.31 71.39 10.78Q69.95 10.24 69.02 9.32Q68.10 8.40 67.67 7.14Q67.23 5.88 67.23 4.42ZM84.00 6.10L84.00 0.70L81.01 0.70L81.01-2.16L84.00-2.16L84.00-5.46L87.45-6.02L87.45-2.16L92.96-2.16L92.96 0.70L87.45 0.70L87.45 6.02Q87.45 6.74 87.59 7.19Q87.73 7.64 87.98 7.89Q88.23 8.14 88.60 8.23Q88.96 8.31 89.41 8.31L89.41 8.31Q89.88 8.31 90.29 8.28Q90.70 8.26 91.07 8.19Q91.45 8.12 91.86 7.98Q92.26 7.84 92.74 7.61L92.74 7.61L93.22 10.58Q92.26 10.97 91.16 11.14Q90.05 11.31 89.02 11.31L89.02 11.31Q87.81 11.31 86.89 11.11Q85.96 10.92 85.32 10.36Q84.68 9.80 84.34 8.77Q84.00 7.75 84.00 6.10L84.00 6.10ZM101.95-5.94L101.95-5.94Q101.95-4.93 101.31-4.34Q100.66-3.76 99.77-3.76L99.77-3.76Q98.87-3.76 98.24-4.34Q97.61-4.93 97.61-5.94L97.61-5.94Q97.61-6.98 98.24-7.56Q98.87-8.15 99.77-8.15L99.77-8.15Q100.66-8.15 101.31-7.56Q101.95-6.98 101.95-5.94ZM106.63 7.67L107.08 10.44Q106.01 10.94 105.07 11.13Q104.14 11.31 103.35 11.31L103.35 11.31Q102.01 11.31 101.10 10.92Q100.19 10.52 99.64 9.78Q99.10 9.04 98.87 7.98Q98.65 6.91 98.65 5.54L98.65 5.54L98.65 0.70L95.01 0.70L95.01-2.16L102.09-2.16L102.09 5.99Q102.09 7.16 102.53 7.74Q102.96 8.31 103.97 8.31L103.97 8.31Q104.44 8.31 105.12 8.19Q105.79 8.06 106.63 7.67L106.63 7.67ZM116.32 11L113.43 11Q112.17 8.51 110.87 5.16Q109.57 1.82 108.39-2.16L108.39-2.16L112.00-2.16Q112.26-1.10 112.61 0.11Q112.96 1.31 113.35 2.53Q113.74 3.75 114.15 4.90Q114.55 6.04 114.92 7.00L114.92 7.00Q115.28 6.04 115.73 4.90Q116.18 3.75 116.61 2.53Q117.04 1.31 117.45 0.11Q117.86-1.10 118.11-2.16L118.11-2.16L121.61-2.16Q120.43 1.82 119.00 5.16Q117.58 8.51 116.32 11L116.32 11ZM122.87 4.53L122.87 4.53Q122.87 2.80 123.40 1.48Q123.93 0.16 124.80-0.72Q125.67-1.60 126.79-2.05Q127.91-2.50 129.08-2.50L129.08-2.50Q132.00-2.50 133.51-0.77Q135.02 0.95 135.02 4.25L135.02 4.25Q135.02 4.59 135.01 4.95Q134.99 5.32 134.96 5.54L134.96 5.54L126.42 5.54Q126.42 6.83 127.49 7.57Q128.55 8.31 130.23 8.31L130.23 8.31Q131.27 8.31 132.21 8.09Q133.14 7.86 133.79 7.64L133.79 7.64L134.26 10.58Q133.37 10.89 132.36 11.10Q131.35 11.31 130.09 11.31L130.09 11.31Q128.41 11.31 127.08 10.87Q125.75 10.44 124.81 9.59Q123.88 8.73 123.37 7.47Q122.87 6.21 122.87 4.53ZM126.42 3.16L131.69 3.16Q131.69 2.63 131.55 2.14Q131.41 1.65 131.10 1.26Q130.79 0.86 130.32 0.63Q129.84 0.39 129.14 0.39L129.14 0.39Q128.47 0.39 127.98 0.61Q127.49 0.84 127.17 1.23Q126.84 1.62 126.66 2.12Q126.48 2.63 126.42 3.16L126.42 3.16ZM139.16 5.51L139.16 2.12L146.84 2.12L146.84 5.51L139.16 5.51ZM158.29 11.36L158.29 11.36Q154.62 11.36 152.69 9.01Q150.76 6.66 150.76 2.32L150.76 2.32Q150.76 0.16 151.34-1.52Q151.93-3.20 152.98-4.36Q154.03-5.52 155.47-6.12Q156.92-6.72 158.62-6.72L158.62-6.72Q159.55-6.72 160.29-6.57Q161.03-6.42 161.59-6.22Q162.15-6.02 162.53-5.80Q162.91-5.58 163.10-5.46L163.10-5.46L162.21-2.72Q161.56-3.14 160.65-3.43Q159.74-3.73 158.57-3.73L158.57-3.73Q157.76-3.73 156.99-3.43Q156.22-3.14 155.61-2.45Q155.01-1.77 154.63-0.62Q154.26 0.53 154.26 2.24L154.26 2.24Q154.26 5.20 155.28 6.79Q156.30 8.37 158.62 8.37L158.62 8.37Q159.97 8.37 160.85 8.06Q161.73 7.75 162.26 7.44L162.26 7.44L163.13 10.16Q162.40 10.61 161.16 10.99Q159.91 11.36 158.29 11.36ZM165.12 5.06L165.12 2.24L169.52 2.24L169.52-2.64L172.48-2.64L172.48 2.24L176.88 2.24L176.88 5.06L172.48 5.06L172.48 9.94L169.52 9.94L169.52 5.06L165.12 5.06ZM179.12 5.06L179.12 2.24L183.52 2.24L183.52-2.64L186.48-2.64L186.48 2.24L190.88 2.24L190.88 5.06L186.48 5.06L186.48 9.94L183.52 9.94L183.52 5.06L179.12 5.06Z"/>
    </g>
</svg>