<?xml version="1.0" encoding="UTF-8"?>
<svg height="34" width="233.5" version="1.1" xmlns="http://www.w3.org/2000/svg">
    <rect
        height="32"
        width="231.5"
        rx="14"
        ry="14"
        x="1"
        y="1"
        fill="#2A6277"
        stroke="#70b4cd"
        stroke-width="1"
         />
    <g transform="translate(0, 14)">
        <path fill="#70b4cd" d="M22.26-6.33L22.26 5.20Q22.26 6.46 21.94 7.58Q21.62 8.70 20.88 9.54Q20.14 10.38 18.96 10.87Q17.78 11.36 16.10 11.36L16.10 11.36Q14.34 11.36 13.16 10.92Q11.99 10.47 11.18 9.82L11.18 9.82L12.49 7.08Q13.19 7.53 14.05 7.95Q14.90 8.37 15.80 8.37L15.80 8.37Q17.14 8.37 17.97 7.65Q18.79 6.94 18.79 5.01L18.79 5.01L18.79-3.48L13.00-3.48L13.00-6.33L22.26-6.33ZM31.03 8.54L31.03 8.54Q31.59 8.54 32.12 8.52Q32.65 8.51 33.04 8.45L33.04 8.45L33.04 5.43Q32.71 5.37 32.23 5.33Q31.76 5.29 31.36 5.29L31.36 5.29Q30.83 5.29 30.33 5.36Q29.82 5.43 29.45 5.60Q29.07 5.76 28.84 6.07Q28.62 6.38 28.62 6.88L28.62 6.88Q28.62 7.78 29.29 8.16Q29.96 8.54 31.03 8.54ZM30.72-2.50L30.72-2.50Q32.34-2.50 33.42-2.12Q34.50-1.74 35.14-1.05Q35.79-0.37 36.07 0.63Q36.35 1.62 36.35 2.85L36.35 2.85L36.35 10.69Q35.59 10.86 34.11 11.08Q32.62 11.31 30.78 11.31L30.78 11.31Q29.52 11.31 28.49 11.08Q27.47 10.86 26.74 10.34Q26.02 9.82 25.62 9.00Q25.23 8.17 25.23 6.97L25.23 6.97Q25.23 5.82 25.68 5.04Q26.13 4.25 26.88 3.78Q27.64 3.30 28.62 3.09Q29.60 2.88 30.66 2.88L30.66 2.88Q32.01 2.88 33.04 3.10L33.04 3.10L33.04 2.68Q33.04 1.70 32.43 1.05Q31.81 0.39 30.30 0.39L30.30 0.39Q29.32 0.39 28.41 0.53Q27.50 0.67 26.94 0.86L26.94 0.86L26.46-1.91Q27.11-2.13 28.28-2.31Q29.46-2.50 30.72-2.50ZM46.32 11L43.43 11Q42.17 8.51 40.87 5.16Q39.57 1.82 38.39-2.16L38.39-2.16L42.00-2.16Q42.26-1.10 42.61 0.11Q42.96 1.31 43.35 2.53Q43.74 3.75 44.15 4.90Q44.55 6.04 44.92 7.00L44.92 7.00Q45.28 6.04 45.73 4.90Q46.18 3.75 46.61 2.53Q47.04 1.31 47.45 0.11Q47.86-1.10 48.11-2.16L48.11-2.16L51.61-2.16Q50.43 1.82 49.00 5.16Q47.58 8.51 46.32 11L46.32 11ZM59.03 8.54L59.03 8.54Q59.59 8.54 60.12 8.52Q60.65 8.51 61.04 8.45L61.04 8.45L61.04 5.43Q60.71 5.37 60.23 5.33Q59.76 5.29 59.36 5.29L59.36 5.29Q58.83 5.29 58.33 5.36Q57.82 5.43 57.45 5.60Q57.07 5.76 56.84 6.07Q56.62 6.38 56.62 6.88L56.62 6.88Q56.62 7.78 57.29 8.16Q57.96 8.54 59.03 8.54ZM58.72-2.50L58.72-2.50Q60.34-2.50 61.42-2.12Q62.50-1.74 63.14-1.05Q63.79-0.37 64.07 0.63Q64.35 1.62 64.35 2.85L64.35 2.85L64.35 10.69Q63.59 10.86 62.11 11.08Q60.62 11.31 58.78 11.31L58.78 11.31Q57.52 11.31 56.49 11.08Q55.47 10.86 54.74 10.34Q54.02 9.82 53.62 9.00Q53.23 8.17 53.23 6.97L53.23 6.97Q53.23 5.82 53.68 5.04Q54.13 4.25 54.88 3.78Q55.64 3.30 56.62 3.09Q57.60 2.88 58.66 2.88L58.66 2.88Q60.01 2.88 61.04 3.10L61.04 3.10L61.04 2.68Q61.04 1.70 60.43 1.05Q59.81 0.39 58.30 0.39L58.30 0.39Q57.32 0.39 56.41 0.53Q55.50 0.67 54.94 0.86L54.94 0.86L54.46-1.91Q55.11-2.13 56.28-2.31Q57.46-2.50 58.72-2.50ZM86.27-6.53L86.27-6.53Q89.58-6.53 91.40-5.17Q93.22-3.81 93.22-0.73L93.22-0.73Q93.22 2.38 91.38 3.76Q89.55 5.15 86.19 5.15L86.19 5.15L84.96 5.15L84.96 11L81.51 11L81.51-6.11Q82.02-6.22 82.65-6.30Q83.28-6.39 83.92-6.43Q84.56-6.47 85.18-6.50Q85.80-6.53 86.27-6.53ZM86.66-3.53L86.66-3.53Q86.36-3.53 85.81-3.52Q85.26-3.50 84.96-3.45L84.96-3.45L84.96 2.15L86.36 2.15Q88.01 2.15 88.85 1.49Q89.69 0.84 89.69-0.76L89.69-0.76Q89.69-2.27 88.86-2.90Q88.04-3.53 86.66-3.53ZM106.85-1.85L106.24 1.34Q105.90 1.26 105.44 1.17Q104.98 1.09 104.50 1.02Q104.02 0.95 103.58 0.92Q103.13 0.89 102.82 0.89L102.82 0.89Q102.09 0.89 101.39 0.96Q100.69 1.03 99.96 1.23L99.96 1.23L99.96 11L96.49 11L96.49-1.29Q97.86-1.80 99.31-2.10Q100.75-2.41 102.68-2.41L102.68-2.41Q102.96-2.41 103.48-2.38Q104.00-2.36 104.58-2.29Q105.17-2.22 105.77-2.12Q106.38-2.02 106.85-1.85L106.85-1.85ZM121.22 4.39L121.22 4.39Q121.22 5.96 120.77 7.23Q120.32 8.51 119.51 9.43Q118.70 10.36 117.56 10.86Q116.43 11.36 115.03 11.36L115.03 11.36Q113.63 11.36 112.49 10.86Q111.36 10.36 110.53 9.43Q109.71 8.51 109.26 7.23Q108.81 5.96 108.81 4.39L108.81 4.39Q108.81 2.85 109.27 1.58Q109.74 0.30 110.56-0.61Q111.39-1.52 112.54-2.01Q113.68-2.50 115.03-2.50L115.03-2.50Q116.40-2.50 117.53-2.01Q118.67-1.52 119.49-0.61Q120.32 0.30 120.77 1.58Q121.22 2.85 121.22 4.39ZM112.31 4.42L112.31 4.42Q112.31 6.18 112.94 7.28Q113.57 8.37 114.97 8.37L114.97 8.37Q116.32 8.37 117.00 7.28Q117.69 6.18 117.69 4.42L117.69 4.42Q117.69 2.66 117.06 1.58Q116.43 0.50 115.03 0.50L115.03 0.50Q113.68 0.50 113.00 1.58Q112.31 2.66 112.31 4.42ZM131.63 4.53L131.63 4.53Q131.63 2.77 130.93 1.63Q130.23 0.50 128.80 0.50L128.80 0.50Q128.41 0.50 127.96 0.54Q127.52 0.58 127.21 0.61L127.21 0.61L127.21 7.84Q127.54 8.06 128.10 8.20Q128.66 8.34 129.22 8.34L129.22 8.34Q130.46 8.34 131.04 7.35Q131.63 6.35 131.63 4.53ZM135.13 4.42L135.13 4.42Q135.13 5.93 134.80 7.21Q134.46 8.48 133.82 9.39Q133.17 10.30 132.19 10.80Q131.21 11.31 129.92 11.31L129.92 11.31Q128.61 11.31 127.21 10.66L127.21 10.66L127.21 15.62L123.76 15.62L123.76-1.74Q124.72-2.05 126.10-2.24Q127.49-2.44 128.83-2.44L128.83-2.44Q131.88-2.44 133.51-0.59Q135.13 1.26 135.13 4.42ZM136.87 4.53L136.87 4.53Q136.87 2.80 137.40 1.48Q137.93 0.16 138.80-0.72Q139.67-1.60 140.79-2.05Q141.91-2.50 143.08-2.50L143.08-2.50Q146.00-2.50 147.51-0.77Q149.02 0.95 149.02 4.25L149.02 4.25Q149.02 4.59 149.01 4.95Q148.99 5.32 148.96 5.54L148.96 5.54L140.42 5.54Q140.42 6.83 141.49 7.57Q142.55 8.31 144.23 8.31L144.23 8.31Q145.27 8.31 146.21 8.09Q147.14 7.86 147.79 7.64L147.79 7.64L148.26 10.58Q147.37 10.89 146.36 11.10Q145.35 11.31 144.09 11.31L144.09 11.31Q142.41 11.31 141.08 10.87Q139.75 10.44 138.81 9.59Q137.88 8.73 137.37 7.47Q136.87 6.21 136.87 4.53ZM140.42 3.16L145.69 3.16Q145.69 2.63 145.55 2.14Q145.41 1.65 145.10 1.26Q144.79 0.86 144.32 0.63Q143.84 0.39 143.14 0.39L143.14 0.39Q142.47 0.39 141.98 0.61Q141.49 0.84 141.17 1.23Q140.84 1.62 140.66 2.12Q140.48 2.63 140.42 3.16L140.42 3.16ZM162.85-1.85L162.24 1.34Q161.90 1.26 161.44 1.17Q160.98 1.09 160.50 1.02Q160.02 0.95 159.58 0.92Q159.13 0.89 158.82 0.89L158.82 0.89Q158.09 0.89 157.39 0.96Q156.69 1.03 155.96 1.23L155.96 1.23L155.96 11L152.49 11L152.49-1.29Q153.86-1.80 155.31-2.10Q156.75-2.41 158.68-2.41L158.68-2.41Q158.96-2.41 159.48-2.38Q160.00-2.36 160.58-2.29Q161.17-2.22 161.77-2.12Q162.38-2.02 162.85-1.85L162.85-1.85ZM168.00 6.10L168.00 0.70L165.01 0.70L165.01-2.16L168.00-2.16L168.00-5.46L171.45-6.02L171.45-2.16L176.96-2.16L176.96 0.70L171.45 0.70L171.45 6.02Q171.45 6.74 171.59 7.19Q171.73 7.64 171.98 7.89Q172.23 8.14 172.60 8.23Q172.96 8.31 173.41 8.31L173.41 8.31Q173.88 8.31 174.29 8.28Q174.70 8.26 175.07 8.19Q175.45 8.12 175.86 7.98Q176.26 7.84 176.74 7.61L176.74 7.61L177.22 10.58Q176.26 10.97 175.16 11.14Q174.05 11.31 173.02 11.31L173.02 11.31Q171.81 11.31 170.89 11.11Q169.96 10.92 169.32 10.36Q168.68 9.80 168.34 8.77Q168.00 7.75 168.00 6.10L168.00 6.10ZM185.95-5.94L185.95-5.94Q185.95-4.93 185.31-4.34Q184.66-3.76 183.77-3.76L183.77-3.76Q182.87-3.76 182.24-4.34Q181.61-4.93 181.61-5.94L181.61-5.94Q181.61-6.98 182.24-7.56Q182.87-8.15 183.77-8.15L183.77-8.15Q184.66-8.15 185.31-7.56Q185.95-6.98 185.95-5.94ZM190.63 7.67L191.08 10.44Q190.01 10.94 189.07 11.13Q188.14 11.31 187.35 11.31L187.35 11.31Q186.01 11.31 185.10 10.92Q184.19 10.52 183.64 9.78Q183.10 9.04 182.87 7.98Q182.65 6.91 182.65 5.54L182.65 5.54L182.65 0.70L179.01 0.70L179.01-2.16L186.09-2.16L186.09 5.99Q186.09 7.16 186.53 7.74Q186.96 8.31 187.97 8.31L187.97 8.31Q188.44 8.31 189.12 8.19Q189.79 8.06 190.63 7.67L190.63 7.67ZM192.87 4.53L192.87 4.53Q192.87 2.80 193.40 1.48Q193.93 0.16 194.80-0.72Q195.67-1.60 196.79-2.05Q197.91-2.50 199.08-2.50L199.08-2.50Q202.00-2.50 203.51-0.77Q205.02 0.95 205.02 4.25L205.02 4.25Q205.02 4.59 205.01 4.95Q204.99 5.32 204.96 5.54L204.96 5.54L196.42 5.54Q196.42 6.83 197.49 7.57Q198.55 8.31 200.23 8.31L200.23 8.31Q201.27 8.31 202.21 8.09Q203.14 7.86 203.79 7.64L203.79 7.64L204.26 10.58Q203.37 10.89 202.36 11.10Q201.35 11.31 200.09 11.31L200.09 11.31Q198.41 11.31 197.08 10.87Q195.75 10.44 194.81 9.59Q193.88 8.73 193.37 7.47Q192.87 6.21 192.87 4.53ZM196.42 3.16L201.69 3.16Q201.69 2.63 201.55 2.14Q201.41 1.65 201.10 1.26Q200.79 0.86 200.32 0.63Q199.84 0.39 199.14 0.39L199.14 0.39Q198.47 0.39 197.98 0.61Q197.49 0.84 197.17 1.23Q196.84 1.62 196.66 2.12Q196.48 2.63 196.42 3.16L196.42 3.16ZM212.38 8.40L212.38 8.40Q213.64 8.40 214.32 8.21Q214.99 8.03 214.99 7.47L214.99 7.47Q214.99 7.11 214.78 6.86Q214.57 6.60 214.19 6.42Q213.81 6.24 213.32 6.07Q212.83 5.90 212.30 5.74L212.30 5.74Q211.54 5.51 210.76 5.22Q209.98 4.92 209.33 4.48Q208.69 4.03 208.27 3.34Q207.85 2.66 207.85 1.62L207.85 1.62Q207.85 0.78 208.17 0.04Q208.49-0.70 209.18-1.28Q209.86-1.85 210.93-2.17Q211.99-2.50 213.48-2.50L213.48-2.50Q214.76-2.50 215.87-2.30Q216.98-2.10 217.79-1.74L217.79-1.74L217.26 1.17Q216.78 1.03 215.77 0.71Q214.76 0.39 213.50 0.39L213.50 0.39Q212.19 0.39 211.73 0.71Q211.26 1.03 211.26 1.40L211.26 1.40Q211.26 1.70 211.47 1.94Q211.68 2.18 212.03 2.38Q212.38 2.57 212.85 2.75Q213.31 2.94 213.84 3.10L213.84 3.10Q214.60 3.36 215.41 3.66Q216.22 3.97 216.88 4.43Q217.54 4.90 217.96 5.61Q218.38 6.32 218.38 7.36L218.38 7.36Q218.38 8.17 218.07 8.90Q217.76 9.63 217.05 10.16Q216.33 10.69 215.18 11Q214.04 11.31 212.36 11.31L212.36 11.31Q210.65 11.31 209.44 10.92Q208.24 10.52 207.51 10.22L207.51 10.22L208.04 7.33Q209.02 7.72 210.13 8.06Q211.24 8.40 212.38 8.40Z"/>
    </g>
</svg>