<?xml version="1.0" encoding="UTF-8"?>
<svg height="34" width="223.5" version="1.1" xmlns="http://www.w3.org/2000/svg">
    <rect
        height="32"
        width="221.5"
        rx="1"
        ry="1"
        x="1"
        y="1"
        fill="#2A6277"
        stroke="#70b4cd"
        stroke-width="1"
         />
    <g transform="translate(0, 12)">
        <path fill="#70b4cd" d="M30.51-2.86L30.51 7.03Q30.51 8.11 30.24 9.07Q29.96 10.03 29.32 10.75Q28.69 11.47 27.68 11.89Q26.67 12.31 25.23 12.31L25.23 12.31Q23.72 12.31 22.71 11.93Q21.70 11.54 21.01 10.99L21.01 10.99L22.14 8.64Q22.74 9.02 23.47 9.38Q24.20 9.74 24.97 9.74L24.97 9.74Q26.12 9.74 26.83 9.13Q27.54 8.52 27.54 6.86L27.54 6.86L27.54-0.41L22.57-0.41L22.57-2.86L30.51-2.86ZM38.02 9.89L38.02 9.89Q38.50 9.89 38.96 9.88Q39.42 9.86 39.75 9.82L39.75 9.82L39.75 7.22Q39.46 7.18 39.06 7.14Q38.65 7.10 38.31 7.10L38.31 7.10Q37.86 7.10 37.42 7.16Q36.99 7.22 36.67 7.37Q36.34 7.51 36.15 7.78Q35.96 8.04 35.96 8.47L35.96 8.47Q35.96 9.24 36.54 9.56Q37.11 9.89 38.02 9.89ZM37.76 0.43L37.76 0.43Q39.15 0.43 40.08 0.76Q41 1.08 41.55 1.67Q42.10 2.26 42.34 3.11Q42.58 3.96 42.58 5.02L42.58 5.02L42.58 11.74Q41.94 11.88 40.66 12.07Q39.39 12.26 37.81 12.26L37.81 12.26Q36.73 12.26 35.85 12.07Q34.98 11.88 34.35 11.44Q33.73 10.99 33.39 10.28Q33.06 9.58 33.06 8.54L33.06 8.54Q33.06 7.56 33.44 6.89Q33.82 6.22 34.47 5.81Q35.12 5.40 35.96 5.22Q36.80 5.04 37.71 5.04L37.71 5.04Q38.86 5.04 39.75 5.23L39.75 5.23L39.75 4.87Q39.75 4.03 39.22 3.47Q38.70 2.90 37.40 2.90L37.40 2.90Q36.56 2.90 35.78 3.02Q35 3.14 34.52 3.31L34.52 3.31L34.11 0.94Q34.66 0.74 35.67 0.59Q36.68 0.43 37.76 0.43ZM51.13 12L48.66 12Q47.58 9.86 46.46 7.00Q45.34 4.13 44.34 0.72L44.34 0.72L47.43 0.72Q47.65 1.63 47.95 2.66Q48.25 3.70 48.58 4.74Q48.92 5.78 49.27 6.77Q49.62 7.75 49.93 8.57L49.93 8.57Q50.24 7.75 50.62 6.77Q51.01 5.78 51.38 4.74Q51.75 3.70 52.10 2.66Q52.45 1.63 52.66 0.72L52.66 0.72L55.66 0.72Q54.66 4.13 53.43 7.00Q52.21 9.86 51.13 12L51.13 12ZM62.02 9.89L62.02 9.89Q62.50 9.89 62.96 9.88Q63.42 9.86 63.75 9.82L63.75 9.82L63.75 7.22Q63.46 7.18 63.06 7.14Q62.65 7.10 62.31 7.10L62.31 7.10Q61.86 7.10 61.42 7.16Q60.99 7.22 60.67 7.37Q60.34 7.51 60.15 7.78Q59.96 8.04 59.96 8.47L59.96 8.47Q59.96 9.24 60.54 9.56Q61.11 9.89 62.02 9.89ZM61.76 0.43L61.76 0.43Q63.15 0.43 64.08 0.76Q65 1.08 65.55 1.67Q66.10 2.26 66.34 3.11Q66.58 3.96 66.58 5.02L66.58 5.02L66.58 11.74Q65.94 11.88 64.66 12.07Q63.39 12.26 61.81 12.26L61.81 12.26Q60.73 12.26 59.85 12.07Q58.98 11.88 58.35 11.44Q57.73 10.99 57.39 10.28Q57.06 9.58 57.06 8.54L57.06 8.54Q57.06 7.56 57.44 6.89Q57.82 6.22 58.47 5.81Q59.12 5.40 59.96 5.22Q60.80 5.04 61.71 5.04L61.71 5.04Q62.86 5.04 63.75 5.23L63.75 5.23L63.75 4.87Q63.75 4.03 63.22 3.47Q62.70 2.90 61.40 2.90L61.40 2.90Q60.56 2.90 59.78 3.02Q59 3.14 58.52 3.31L58.52 3.31L58.11 0.94Q58.66 0.74 59.67 0.59Q60.68 0.43 61.76 0.43ZM85.38-3.02L85.38-3.02Q88.21-3.02 89.77-1.86Q91.33-0.70 91.33 1.94L91.33 1.94Q91.33 4.61 89.76 5.80Q88.18 6.98 85.30 6.98L85.30 6.98L84.25 6.98L84.25 12L81.30 12L81.30-2.66Q81.73-2.76 82.27-2.83Q82.81-2.90 83.36-2.94Q83.91-2.98 84.44-3Q84.97-3.02 85.38-3.02ZM85.71-0.46L85.71-0.46Q85.45-0.46 84.98-0.44Q84.51-0.43 84.25-0.38L84.25-0.38L84.25 4.42L85.45 4.42Q86.86 4.42 87.58 3.85Q88.30 3.29 88.30 1.92L88.30 1.92Q88.30 0.62 87.60 0.08Q86.89-0.46 85.71-0.46ZM103.02 0.98L102.49 3.72Q102.20 3.65 101.80 3.58Q101.41 3.50 101 3.44Q100.59 3.38 100.21 3.36Q99.82 3.34 99.56 3.34L99.56 3.34Q98.94 3.34 98.34 3.40Q97.74 3.46 97.11 3.62L97.11 3.62L97.11 12L94.14 12L94.14 1.46Q95.31 1.03 96.55 0.77Q97.78 0.50 99.44 0.50L99.44 0.50Q99.68 0.50 100.12 0.53Q100.57 0.55 101.07 0.61Q101.58 0.67 102.09 0.76Q102.61 0.84 103.02 0.98L103.02 0.98ZM115.33 6.34L115.33 6.34Q115.33 7.68 114.94 8.77Q114.56 9.86 113.86 10.66Q113.17 11.45 112.20 11.88Q111.22 12.31 110.02 12.31L110.02 12.31Q108.82 12.31 107.85 11.88Q106.88 11.45 106.17 10.66Q105.46 9.86 105.08 8.77Q104.70 7.68 104.70 6.34L104.70 6.34Q104.70 5.02 105.09 3.92Q105.49 2.83 106.20 2.05Q106.90 1.27 107.89 0.85Q108.87 0.43 110.02 0.43L110.02 0.43Q111.20 0.43 112.17 0.85Q113.14 1.27 113.85 2.05Q114.56 2.83 114.94 3.92Q115.33 5.02 115.33 6.34ZM107.70 6.36L107.70 6.36Q107.70 7.87 108.24 8.81Q108.78 9.74 109.98 9.74L109.98 9.74Q111.13 9.74 111.72 8.81Q112.30 7.87 112.30 6.36L112.30 6.36Q112.30 4.85 111.76 3.92Q111.22 3 110.02 3L110.02 3Q108.87 3 108.28 3.92Q107.70 4.85 107.70 6.36ZM124.26 6.46L124.26 6.46Q124.26 4.94 123.66 3.97Q123.06 3 121.83 3L121.83 3Q121.50 3 121.11 3.04Q120.73 3.07 120.46 3.10L120.46 3.10L120.46 9.29Q120.75 9.48 121.23 9.60Q121.71 9.72 122.19 9.72L122.19 9.72Q123.25 9.72 123.75 8.87Q124.26 8.02 124.26 6.46ZM127.26 6.36L127.26 6.36Q127.26 7.66 126.97 8.75Q126.68 9.84 126.13 10.62Q125.58 11.40 124.74 11.83Q123.90 12.26 122.79 12.26L122.79 12.26Q121.66 12.26 120.46 11.71L120.46 11.71L120.46 15.96L117.51 15.96L117.51 1.08Q118.33 0.82 119.52 0.65Q120.70 0.48 121.86 0.48L121.86 0.48Q124.47 0.48 125.86 2.06Q127.26 3.65 127.26 6.36ZM128.74 6.46L128.74 6.46Q128.74 4.97 129.20 3.84Q129.66 2.71 130.40 1.96Q131.14 1.20 132.10 0.82Q133.06 0.43 134.07 0.43L134.07 0.43Q136.57 0.43 137.86 1.91Q139.16 3.38 139.16 6.22L139.16 6.22Q139.16 6.50 139.15 6.82Q139.14 7.13 139.11 7.32L139.11 7.32L131.79 7.32Q131.79 8.42 132.70 9.06Q133.62 9.70 135.06 9.70L135.06 9.70Q135.94 9.70 136.75 9.50Q137.55 9.31 138.10 9.12L138.10 9.12L138.51 11.64Q137.74 11.90 136.88 12.08Q136.02 12.26 134.94 12.26L134.94 12.26Q133.50 12.26 132.36 11.89Q131.22 11.52 130.41 10.79Q129.61 10.06 129.18 8.98Q128.74 7.90 128.74 6.46ZM131.79 5.28L136.30 5.28Q136.30 4.82 136.18 4.40Q136.06 3.98 135.80 3.65Q135.54 3.31 135.13 3.11Q134.72 2.90 134.12 2.90L134.12 2.90Q133.54 2.90 133.12 3.10Q132.70 3.29 132.43 3.62Q132.15 3.96 132.00 4.39Q131.84 4.82 131.79 5.28L131.79 5.28ZM151.02 0.98L150.49 3.72Q150.20 3.65 149.80 3.58Q149.41 3.50 149 3.44Q148.59 3.38 148.21 3.36Q147.82 3.34 147.56 3.34L147.56 3.34Q146.94 3.34 146.34 3.40Q145.74 3.46 145.11 3.62L145.11 3.62L145.11 12L142.14 12L142.14 1.46Q143.31 1.03 144.55 0.77Q145.78 0.50 147.44 0.50L147.44 0.50Q147.68 0.50 148.12 0.53Q148.57 0.55 149.07 0.61Q149.58 0.67 150.09 0.76Q150.61 0.84 151.02 0.98L151.02 0.98ZM155.43 7.80L155.43 3.17L152.86 3.17L152.86 0.72L155.43 0.72L155.43-2.11L158.38-2.59L158.38 0.72L163.11 0.72L163.11 3.17L158.38 3.17L158.38 7.73Q158.38 8.35 158.50 8.74Q158.62 9.12 158.84 9.34Q159.06 9.55 159.37 9.62Q159.68 9.70 160.06 9.70L160.06 9.70Q160.47 9.70 160.82 9.67Q161.17 9.65 161.49 9.59Q161.82 9.53 162.16 9.41Q162.51 9.29 162.92 9.10L162.92 9.10L163.33 11.64Q162.51 11.98 161.56 12.12Q160.62 12.26 159.73 12.26L159.73 12.26Q158.70 12.26 157.90 12.10Q157.11 11.93 156.56 11.45Q156.01 10.97 155.72 10.09Q155.43 9.22 155.43 7.80L155.43 7.80ZM170.82-2.52L170.82-2.52Q170.82-1.66 170.26-1.15Q169.71-0.65 168.94-0.65L168.94-0.65Q168.18-0.65 167.64-1.15Q167.10-1.66 167.10-2.52L167.10-2.52Q167.10-3.41 167.64-3.91Q168.18-4.42 168.94-4.42L168.94-4.42Q169.71-4.42 170.26-3.91Q170.82-3.41 170.82-2.52ZM174.82 9.14L175.21 11.52Q174.30 11.95 173.49 12.11Q172.69 12.26 172.02 12.26L172.02 12.26Q170.86 12.26 170.08 11.93Q169.30 11.59 168.84 10.96Q168.37 10.32 168.18 9.41Q167.98 8.50 167.98 7.32L167.98 7.32L167.98 3.17L164.86 3.17L164.86 0.72L170.94 0.72L170.94 7.70Q170.94 8.71 171.31 9.20Q171.68 9.70 172.54 9.70L172.54 9.70Q172.95 9.70 173.53 9.59Q174.10 9.48 174.82 9.14L174.82 9.14ZM176.74 6.46L176.74 6.46Q176.74 4.97 177.20 3.84Q177.66 2.71 178.40 1.96Q179.14 1.20 180.10 0.82Q181.06 0.43 182.07 0.43L182.07 0.43Q184.57 0.43 185.86 1.91Q187.16 3.38 187.16 6.22L187.16 6.22Q187.16 6.50 187.15 6.82Q187.14 7.13 187.11 7.32L187.11 7.32L179.79 7.32Q179.79 8.42 180.70 9.06Q181.62 9.70 183.06 9.70L183.06 9.70Q183.94 9.70 184.75 9.50Q185.55 9.31 186.10 9.12L186.10 9.12L186.51 11.64Q185.74 11.90 184.88 12.08Q184.02 12.26 182.94 12.26L182.94 12.26Q181.50 12.26 180.36 11.89Q179.22 11.52 178.41 10.79Q177.61 10.06 177.18 8.98Q176.74 7.90 176.74 6.46ZM179.79 5.28L184.30 5.28Q184.30 4.82 184.18 4.40Q184.06 3.98 183.80 3.65Q183.54 3.31 183.13 3.11Q182.72 2.90 182.12 2.90L182.12 2.90Q181.54 2.90 181.12 3.10Q180.70 3.29 180.43 3.62Q180.15 3.96 180.00 4.39Q179.84 4.82 179.79 5.28L179.79 5.28ZM193.47 9.77L193.47 9.77Q194.55 9.77 195.13 9.61Q195.70 9.46 195.70 8.98L195.70 8.98Q195.70 8.66 195.52 8.45Q195.34 8.23 195.02 8.08Q194.70 7.92 194.28 7.78Q193.86 7.63 193.40 7.49L193.40 7.49Q192.75 7.30 192.08 7.04Q191.41 6.79 190.86 6.41Q190.30 6.02 189.94 5.44Q189.58 4.85 189.58 3.96L189.58 3.96Q189.58 3.24 189.86 2.60Q190.14 1.97 190.72 1.48Q191.31 0.98 192.22 0.71Q193.14 0.43 194.41 0.43L194.41 0.43Q195.51 0.43 196.46 0.60Q197.41 0.77 198.10 1.08L198.10 1.08L197.65 3.58Q197.24 3.46 196.38 3.18Q195.51 2.90 194.43 2.90L194.43 2.90Q193.30 2.90 192.91 3.18Q192.51 3.46 192.51 3.77L192.51 3.77Q192.51 4.03 192.69 4.24Q192.87 4.44 193.17 4.61Q193.47 4.78 193.87 4.93Q194.26 5.09 194.72 5.23L194.72 5.23Q195.37 5.45 196.06 5.71Q196.76 5.98 197.32 6.37Q197.89 6.77 198.25 7.38Q198.61 7.99 198.61 8.88L198.61 8.88Q198.61 9.58 198.34 10.20Q198.08 10.82 197.47 11.28Q196.86 11.74 195.87 12Q194.89 12.26 193.45 12.26L193.45 12.26Q191.98 12.26 190.95 11.93Q189.92 11.59 189.30 11.33L189.30 11.33L189.75 8.86Q190.59 9.19 191.54 9.48Q192.49 9.77 193.47 9.77Z"/>
    </g>
</svg>