<?xml version="1.0" encoding="UTF-8"?><svg height="26" width="163.5" version="1.1" xmlns="http://www.w3.org/2000/svg"><!--Created by Josélio de S. C. Júnior - 2021 - https://github.com/joseliojunior --><rect height="24" width="161.5" rx="1" ry="1" x="1" y="1" fill="#2A6277" stroke="#70b4cd" stroke-width="1" /><g transform="translate(0, 8)"><path fill="#70b4cd" d="M27.01 0.10L27.01 6.69Q27.01 7.41 26.82 8.05Q26.64 8.69 26.22 9.17Q25.79 9.65 25.12 9.93Q24.45 10.21 23.49 10.21L23.49 10.21Q22.48 10.21 21.81 9.95Q21.14 9.70 20.67 9.33L20.67 9.33L21.42 7.76Q21.82 8.02 22.31 8.26Q22.80 8.50 23.31 8.50L23.31 8.50Q24.08 8.50 24.55 8.09Q25.02 7.68 25.02 6.58L25.02 6.58L25.02 1.73L21.71 1.73L21.71 0.10L27.01 0.10ZM32.02 8.59L32.02 8.59Q32.34 8.59 32.64 8.58Q32.94 8.58 33.17 8.54L33.17 8.54L33.17 6.82Q32.98 6.78 32.70 6.76Q32.43 6.74 32.21 6.74L32.21 6.74Q31.90 6.74 31.62 6.78Q31.33 6.82 31.11 6.91Q30.90 7.01 30.77 7.18Q30.64 7.36 30.64 7.65L30.64 7.65Q30.64 8.16 31.02 8.38Q31.41 8.59 32.02 8.59ZM31.84 2.29L31.84 2.29Q32.77 2.29 33.38 2.50Q34 2.72 34.37 3.11Q34.74 3.50 34.90 4.07Q35.06 4.64 35.06 5.34L35.06 5.34L35.06 9.82Q34.62 9.92 33.78 10.05Q32.93 10.18 31.87 10.18L31.87 10.18Q31.15 10.18 30.57 10.05Q29.98 9.92 29.57 9.62Q29.15 9.33 28.93 8.86Q28.70 8.38 28.70 7.70L28.70 7.70Q28.70 7.04 28.96 6.59Q29.22 6.14 29.65 5.87Q30.08 5.60 30.64 5.48Q31.20 5.36 31.81 5.36L31.81 5.36Q32.58 5.36 33.17 5.49L33.17 5.49L33.17 5.25Q33.17 4.69 32.82 4.31Q32.46 3.94 31.60 3.94L31.60 3.94Q31.04 3.94 30.52 4.02Q30 4.10 29.68 4.21L29.68 4.21L29.41 2.62Q29.78 2.50 30.45 2.39Q31.12 2.29 31.84 2.29ZM40.75 10L39.10 10Q38.38 8.58 37.64 6.66Q36.90 4.75 36.22 2.48L36.22 2.48L38.29 2.48Q38.43 3.09 38.63 3.78Q38.83 4.46 39.06 5.16Q39.28 5.86 39.51 6.51Q39.74 7.17 39.95 7.71L39.95 7.71Q40.16 7.17 40.42 6.51Q40.67 5.86 40.92 5.16Q41.17 4.46 41.40 3.78Q41.63 3.09 41.78 2.48L41.78 2.48L43.78 2.48Q43.10 4.75 42.29 6.66Q41.47 8.58 40.75 10L40.75 10ZM48.02 8.59L48.02 8.59Q48.34 8.59 48.64 8.58Q48.94 8.58 49.17 8.54L49.17 8.54L49.17 6.82Q48.98 6.78 48.70 6.76Q48.43 6.74 48.21 6.74L48.21 6.74Q47.90 6.74 47.62 6.78Q47.33 6.82 47.11 6.91Q46.90 7.01 46.77 7.18Q46.64 7.36 46.64 7.65L46.64 7.65Q46.64 8.16 47.02 8.38Q47.41 8.59 48.02 8.59ZM47.84 2.29L47.84 2.29Q48.77 2.29 49.38 2.50Q50 2.72 50.37 3.11Q50.74 3.50 50.90 4.07Q51.06 4.64 51.06 5.34L51.06 5.34L51.06 9.82Q50.62 9.92 49.78 10.05Q48.93 10.18 47.87 10.18L47.87 10.18Q47.15 10.18 46.57 10.05Q45.98 9.92 45.57 9.62Q45.15 9.33 44.93 8.86Q44.70 8.38 44.70 7.70L44.70 7.70Q44.70 7.04 44.96 6.59Q45.22 6.14 45.65 5.87Q46.08 5.60 46.64 5.48Q47.20 5.36 47.81 5.36L47.81 5.36Q48.58 5.36 49.17 5.49L49.17 5.49L49.17 5.25Q49.17 4.69 48.82 4.31Q48.46 3.94 47.60 3.94L47.60 3.94Q47.04 3.94 46.52 4.02Q46 4.10 45.68 4.21L45.68 4.21L45.41 2.62Q45.78 2.50 46.45 2.39Q47.12 2.29 47.84 2.29ZM63.58-0.02L63.58-0.02Q65.47-0.02 66.51 0.76Q67.55 1.54 67.55 3.30L67.55 3.30Q67.55 5.07 66.50 5.86Q65.46 6.66 63.54 6.66L63.54 6.66L62.83 6.66L62.83 10L60.86 10L60.86 0.22Q61.15 0.16 61.51 0.11Q61.87 0.06 62.24 0.04Q62.61 0.02 62.96 0Q63.31-0.02 63.58-0.02ZM63.81 1.70L63.81 1.70Q63.63 1.70 63.32 1.70Q63.01 1.71 62.83 1.74L62.83 1.74L62.83 4.94L63.63 4.94Q64.58 4.94 65.06 4.57Q65.54 4.19 65.54 3.28L65.54 3.28Q65.54 2.42 65.06 2.06Q64.59 1.70 63.81 1.70ZM75.34 2.66L74.99 4.48Q74.80 4.43 74.54 4.38Q74.27 4.34 74 4.30Q73.73 4.26 73.47 4.24Q73.22 4.22 73.04 4.22L73.04 4.22Q72.62 4.22 72.22 4.26Q71.82 4.30 71.41 4.42L71.41 4.42L71.41 10L69.42 10L69.42 2.98Q70.21 2.69 71.03 2.51Q71.86 2.34 72.96 2.34L72.96 2.34Q73.12 2.34 73.42 2.35Q73.71 2.37 74.05 2.41Q74.38 2.45 74.73 2.50Q75.07 2.56 75.34 2.66L75.34 2.66ZM83.55 6.22L83.55 6.22Q83.55 7.12 83.30 7.85Q83.04 8.58 82.58 9.10Q82.11 9.63 81.46 9.92Q80.82 10.21 80.02 10.21L80.02 10.21Q79.22 10.21 78.57 9.92Q77.92 9.63 77.45 9.10Q76.98 8.58 76.72 7.85Q76.46 7.12 76.46 6.22L76.46 6.22Q76.46 5.34 76.73 4.62Q76.99 3.89 77.46 3.37Q77.94 2.85 78.59 2.57Q79.25 2.29 80.02 2.29L80.02 2.29Q80.80 2.29 81.45 2.57Q82.10 2.85 82.57 3.37Q83.04 3.89 83.30 4.62Q83.55 5.34 83.55 6.22ZM78.46 6.24L78.46 6.24Q78.46 7.25 78.82 7.87Q79.18 8.50 79.98 8.50L79.98 8.50Q80.75 8.50 81.14 7.87Q81.54 7.25 81.54 6.24L81.54 6.24Q81.54 5.23 81.18 4.62Q80.82 4 80.02 4L80.02 4Q79.25 4 78.86 4.62Q78.46 5.23 78.46 6.24ZM89.50 6.30L89.50 6.30Q89.50 5.30 89.10 4.65Q88.70 4 87.89 4L87.89 4Q87.66 4 87.41 4.02Q87.15 4.05 86.98 4.06L86.98 4.06L86.98 8.19Q87.17 8.32 87.49 8.40Q87.81 8.48 88.13 8.48L88.13 8.48Q88.83 8.48 89.17 7.91Q89.50 7.34 89.50 6.30ZM91.50 6.24L91.50 6.24Q91.50 7.10 91.31 7.83Q91.12 8.56 90.75 9.08Q90.38 9.60 89.82 9.89Q89.26 10.18 88.53 10.18L88.53 10.18Q87.78 10.18 86.98 9.81L86.98 9.81L86.98 12.64L85.01 12.64L85.01 2.72Q85.55 2.54 86.34 2.43Q87.14 2.32 87.90 2.32L87.90 2.32Q89.65 2.32 90.58 3.38Q91.50 4.43 91.50 6.24ZM92.50 6.30L92.50 6.30Q92.50 5.31 92.80 4.56Q93.10 3.81 93.60 3.30Q94.10 2.80 94.74 2.54Q95.38 2.29 96.05 2.29L96.05 2.29Q97.71 2.29 98.58 3.27Q99.44 4.26 99.44 6.14L99.44 6.14Q99.44 6.34 99.43 6.54Q99.42 6.75 99.41 6.88L99.41 6.88L94.53 6.88Q94.53 7.62 95.14 8.04Q95.74 8.46 96.70 8.46L96.70 8.46Q97.30 8.46 97.83 8.34Q98.37 8.21 98.74 8.08L98.74 8.08L99.01 9.76Q98.50 9.94 97.92 10.06Q97.34 10.18 96.62 10.18L96.62 10.18Q95.66 10.18 94.90 9.93Q94.14 9.68 93.61 9.19Q93.07 8.70 92.78 7.98Q92.50 7.26 92.50 6.30ZM94.53 5.52L97.54 5.52Q97.54 5.22 97.46 4.94Q97.38 4.66 97.20 4.43Q97.02 4.21 96.75 4.07Q96.48 3.94 96.08 3.94L96.08 3.94Q95.70 3.94 95.42 4.06Q95.14 4.19 94.95 4.42Q94.77 4.64 94.66 4.93Q94.56 5.22 94.53 5.52L94.53 5.52ZM107.34 2.66L106.99 4.48Q106.80 4.43 106.54 4.38Q106.27 4.34 106 4.30Q105.73 4.26 105.47 4.24Q105.22 4.22 105.04 4.22L105.04 4.22Q104.62 4.22 104.22 4.26Q103.82 4.30 103.41 4.42L103.41 4.42L103.41 10L101.42 10L101.42 2.98Q102.21 2.69 103.03 2.51Q103.86 2.34 104.96 2.34L104.96 2.34Q105.12 2.34 105.42 2.35Q105.71 2.37 106.05 2.41Q106.38 2.45 106.73 2.50Q107.07 2.56 107.34 2.66L107.34 2.66ZM110.29 7.20L110.29 4.11L108.58 4.11L108.58 2.48L110.29 2.48L110.29 0.59L112.26 0.27L112.26 2.48L115.41 2.48L115.41 4.11L112.26 4.11L112.26 7.15Q112.26 7.57 112.34 7.82Q112.42 8.08 112.56 8.22Q112.70 8.37 112.91 8.42Q113.12 8.46 113.38 8.46L113.38 8.46Q113.65 8.46 113.88 8.45Q114.11 8.43 114.33 8.39Q114.54 8.35 114.78 8.27Q115.01 8.19 115.28 8.06L115.28 8.06L115.55 9.76Q115.01 9.98 114.38 10.08Q113.74 10.18 113.15 10.18L113.15 10.18Q112.46 10.18 111.94 10.06Q111.41 9.95 111.04 9.63Q110.67 9.31 110.48 8.73Q110.29 8.14 110.29 7.20L110.29 7.20ZM120.54 0.32L120.54 0.32Q120.54 0.90 120.18 1.23Q119.81 1.57 119.30 1.57L119.30 1.57Q118.78 1.57 118.42 1.23Q118.06 0.90 118.06 0.32L118.06 0.32Q118.06-0.27 118.42-0.61Q118.78-0.94 119.30-0.94L119.30-0.94Q119.81-0.94 120.18-0.61Q120.54-0.27 120.54 0.32ZM123.22 8.10L123.47 9.68Q122.86 9.97 122.33 10.07Q121.79 10.18 121.34 10.18L121.34 10.18Q120.58 10.18 120.06 9.95Q119.54 9.73 119.22 9.30Q118.91 8.88 118.78 8.27Q118.66 7.66 118.66 6.88L118.66 6.88L118.66 4.11L116.58 4.11L116.58 2.48L120.62 2.48L120.62 7.14Q120.62 7.81 120.87 8.14Q121.12 8.46 121.70 8.46L121.70 8.46Q121.97 8.46 122.35 8.39Q122.74 8.32 123.22 8.10L123.22 8.10ZM124.50 6.30L124.50 6.30Q124.50 5.31 124.80 4.56Q125.10 3.81 125.60 3.30Q126.10 2.80 126.74 2.54Q127.38 2.29 128.05 2.29L128.05 2.29Q129.71 2.29 130.58 3.27Q131.44 4.26 131.44 6.14L131.44 6.14Q131.44 6.34 131.43 6.54Q131.42 6.75 131.41 6.88L131.41 6.88L126.53 6.88Q126.53 7.62 127.14 8.04Q127.74 8.46 128.70 8.46L128.70 8.46Q129.30 8.46 129.83 8.34Q130.37 8.21 130.74 8.08L130.74 8.08L131.01 9.76Q130.50 9.94 129.92 10.06Q129.34 10.18 128.62 10.18L128.62 10.18Q127.66 10.18 126.90 9.93Q126.14 9.68 125.61 9.19Q125.07 8.70 124.78 7.98Q124.50 7.26 124.50 6.30ZM126.53 5.52L129.54 5.52Q129.54 5.22 129.46 4.94Q129.38 4.66 129.20 4.43Q129.02 4.21 128.75 4.07Q128.48 3.94 128.08 3.94L128.08 3.94Q127.70 3.94 127.42 4.06Q127.14 4.19 126.95 4.42Q126.77 4.64 126.66 4.93Q126.56 5.22 126.53 5.52L126.53 5.52ZM135.65 8.51L135.65 8.51Q136.37 8.51 136.75 8.41Q137.14 8.30 137.14 7.98L137.14 7.98Q137.14 7.78 137.02 7.63Q136.90 7.49 136.68 7.38Q136.46 7.28 136.18 7.18Q135.90 7.09 135.60 6.99L135.60 6.99Q135.17 6.86 134.72 6.70Q134.27 6.53 133.90 6.27Q133.54 6.02 133.30 5.62Q133.06 5.23 133.06 4.64L133.06 4.64Q133.06 4.16 133.24 3.74Q133.42 3.31 133.82 2.98Q134.21 2.66 134.82 2.47Q135.42 2.29 136.27 2.29L136.27 2.29Q137.01 2.29 137.64 2.40Q138.27 2.51 138.74 2.72L138.74 2.72L138.43 4.38Q138.16 4.30 137.58 4.12Q137.01 3.94 136.29 3.94L136.29 3.94Q135.54 3.94 135.27 4.12Q135.01 4.30 135.01 4.51L135.01 4.51Q135.01 4.69 135.13 4.82Q135.25 4.96 135.45 5.07Q135.65 5.18 135.91 5.29Q136.18 5.39 136.48 5.49L136.48 5.49Q136.91 5.63 137.38 5.81Q137.84 5.98 138.22 6.25Q138.59 6.51 138.83 6.92Q139.07 7.33 139.07 7.92L139.07 7.92Q139.07 8.38 138.90 8.80Q138.72 9.22 138.31 9.52Q137.90 9.82 137.25 10Q136.59 10.18 135.63 10.18L135.63 10.18Q134.66 10.18 133.97 9.95Q133.28 9.73 132.86 9.55L132.86 9.55L133.17 7.90Q133.73 8.13 134.36 8.32Q134.99 8.51 135.65 8.51Z"/></g></svg>