<?xml version="1.0" encoding="UTF-8"?>
<svg height="34" width="78.3" version="1.1" xmlns="http://www.w3.org/2000/svg"><!--Created by Josélio de S. C. Júnior - 2021 - https://github.com/joseliojunior -->
    <rect
        height="32"
        width="76.3"
        rx="16"
        ry="16"
        x="1" y="1"
        fill="#28430A"
        stroke="#78c81e"
        stroke-width="1" />
    <g transform="translate(0, 12)">
        <path fill="#78c81e" d="M31.74 12L28.40 12Q28.14 11.16 27.64 10.19Q27.15 9.22 26.55 8.29Q25.95 7.37 25.29 6.56Q24.63 5.76 24.03 5.21L24.03 5.21L24.03 12L21.08 12L21.08-2.86L24.03-2.86L24.03 3.31Q24.56 2.64 25.14 1.82Q25.71 1.01 26.23 0.19Q26.74-0.62 27.18-1.42Q27.61-2.21 27.90-2.86L27.90-2.86L31.23-2.86Q30.90-2.21 30.43-1.38Q29.96-0.55 29.36 0.35Q28.76 1.25 28.08 2.18Q27.39 3.12 26.65 3.98L26.65 3.98Q27.39 4.70 28.16 5.64Q28.93 6.58 29.61 7.64Q30.30 8.71 30.85 9.83Q31.40 10.94 31.74 12L31.74 12ZM37.14-3.02L37.14-3.02Q38.41-3.02 39.44-2.74Q40.47-2.45 41.22-1.85Q41.96-1.25 42.36-0.32Q42.75 0.60 42.75 1.85L42.75 1.85Q42.75 3.14 42.22 4.20Q41.70 5.26 40.47 5.81L40.47 5.81Q40.88 6.43 41.34 7.19Q41.79 7.94 42.22 8.77Q42.66 9.60 43.05 10.43Q43.45 11.26 43.74 12L43.74 12L40.64 12Q40.09 10.56 39.36 9.23Q38.62 7.90 37.78 6.53L37.78 6.53L36.25 6.53L36.25 12L33.30 12L33.30-2.64Q33.73-2.74 34.24-2.82Q34.76-2.90 35.29-2.94Q35.82-2.98 36.30-3Q36.78-3.02 37.14-3.02ZM39.75 1.82L39.75 1.82Q39.75 0.65 39.03 0.10Q38.31-0.46 37.14-0.46L37.14-0.46Q36.97-0.46 36.73-0.44Q36.49-0.43 36.25-0.38L36.25-0.38L36.25 4.08L36.90 4.08Q38.41 4.08 39.08 3.49Q39.75 2.90 39.75 1.82ZM55.04 9.55L55.04 12L45.70 12L45.70-2.86L48.68-2.86L48.68 9.55L55.04 9.55Z"/>
    </g>
</svg>