<?xml version="1.0" encoding="UTF-8"?>
<svg height="26" width="66.3" version="1.1" xmlns="http://www.w3.org/2000/svg"><!--Created by Josélio de S. C. Júnior - 2021 - https://github.com/joseliojunior -->
    <rect
        height="24"
        width="64.3"
        rx="1"
        ry="1"
        x="1" y="1"
        fill="#28430A"
        stroke="#78c81e"
        stroke-width="1" />
    <g transform="translate(0, 8)">
        <path fill="#78c81e" d="M27.82 10L25.60 10Q25.42 9.44 25.10 8.79Q24.77 8.14 24.37 7.53Q23.97 6.91 23.53 6.38Q23.09 5.84 22.69 5.47L22.69 5.47L22.69 10L20.72 10L20.72 0.10L22.69 0.10L22.69 4.21Q23.04 3.76 23.42 3.22Q23.81 2.67 24.15 2.13Q24.50 1.58 24.78 1.06Q25.07 0.53 25.26 0.10L25.26 0.10L27.49 0.10Q27.26 0.53 26.95 1.08Q26.64 1.63 26.24 2.23Q25.84 2.83 25.38 3.46Q24.93 4.08 24.43 4.66L24.43 4.66Q24.93 5.14 25.44 5.76Q25.95 6.38 26.41 7.10Q26.86 7.81 27.23 8.55Q27.60 9.30 27.82 10L27.82 10ZM31.42-0.02L31.42-0.02Q32.27-0.02 32.96 0.18Q33.65 0.37 34.14 0.77Q34.64 1.17 34.90 1.78Q35.17 2.40 35.17 3.23L35.17 3.23Q35.17 4.10 34.82 4.80Q34.46 5.50 33.65 5.87L33.65 5.87Q33.92 6.29 34.22 6.79Q34.53 7.30 34.82 7.85Q35.10 8.40 35.37 8.95Q35.63 9.50 35.82 10L35.82 10L33.76 10Q33.39 9.04 32.90 8.15Q32.42 7.26 31.86 6.35L31.86 6.35L30.83 6.35L30.83 10L28.86 10L28.86 0.24Q29.15 0.18 29.50 0.12Q29.84 0.06 30.19 0.04Q30.54 0.02 30.86 0Q31.18-0.02 31.42-0.02ZM33.17 3.22L33.17 3.22Q33.17 2.43 32.69 2.06Q32.21 1.70 31.42 1.70L31.42 1.70Q31.31 1.70 31.15 1.70Q30.99 1.71 30.83 1.74L30.83 1.74L30.83 4.72L31.26 4.72Q32.27 4.72 32.72 4.33Q33.17 3.94 33.17 3.22ZM43.36 8.37L43.36 10L37.14 10L37.14 0.10L39.12 0.10L39.12 8.37L43.36 8.37Z"/>
    </g>
</svg>