<?xml version="1.0" encoding="UTF-8"?>
<svg height="34" width="66.2" version="1.1" xmlns="http://www.w3.org/2000/svg">
    <rect
        height="32"
        width="64.2"
        rx="16"
        ry="16"
        x="1"
        y="1"
        fill="#7055b5"
        stroke="#2f224e"
        stroke-width="1"
         />
    <g transform="translate(0, 12)">
        <path fill="#2f224e" d="M25.38-3.02L25.38-3.02Q28.21-3.02 29.77-1.86Q31.33-0.70 31.33 1.94L31.33 1.94Q31.33 4.61 29.76 5.80Q28.18 6.98 25.30 6.98L25.30 6.98L24.25 6.98L24.25 12L21.30 12L21.30-2.66Q21.73-2.76 22.27-2.83Q22.81-2.90 23.36-2.94Q23.91-2.98 24.44-3Q24.97-3.02 25.38-3.02ZM25.71-0.46L25.71-0.46Q25.45-0.46 24.98-0.44Q24.51-0.43 24.25-0.38L24.25-0.38L24.25 4.42L25.45 4.42Q26.86 4.42 27.58 3.85Q28.30 3.29 28.30 1.92L28.30 1.92Q28.30 0.62 27.60 0.08Q26.89-0.46 25.71-0.46ZM38.84 6.07L38.84 0.84Q38.41 1.39 37.95 2.02Q37.50 2.64 37.05 3.32Q36.61 4.01 36.20 4.70Q35.79 5.40 35.48 6.07L35.48 6.07L38.84 6.07ZM39.15-2.86L41.79-2.86L41.79 6.07L43.40 6.07L43.40 8.50L41.79 8.50L41.79 12L38.84 12L38.84 8.50L32.65 8.50L32.65 6.34Q33.10 5.40 33.82 4.21Q34.54 3.02 35.41 1.78Q36.27 0.53 37.23-0.68Q38.19-1.90 39.15-2.86L39.15-2.86Z"/>
    </g>
</svg>