<?xml version="1.0" encoding="UTF-8"?>
<svg height="26" width="58.2" version="1.1" xmlns="http://www.w3.org/2000/svg"><!--Created by Josélio de S. C. Júnior - 2021 - https://github.com/joseliojunior -->
    <rect
        height="24"
        width="56.2"
        rx="12"
        ry="12"
        x="1" y="1"
        fill="#7055b5"
        stroke="#2f224e"
        stroke-width="1" />
    <g transform="translate(0, 8)">
        <path fill="#2f224e" stroke="none" d="M23.58-0.02L23.58-0.02Q25.47-0.02 26.51 0.76Q27.55 1.54 27.55 3.30L27.55 3.30Q27.55 5.07 26.50 5.86Q25.46 6.66 23.54 6.66L23.54 6.66L22.83 6.66L22.83 10L20.86 10L20.86 0.22Q21.15 0.16 21.51 0.11Q21.87 0.06 22.24 0.04Q22.61 0.02 22.96 0Q23.31-0.02 23.58-0.02ZM23.81 1.70L23.81 1.70Q23.63 1.70 23.32 1.70Q23.01 1.71 22.83 1.74L22.83 1.74L22.83 4.94L23.63 4.94Q24.58 4.94 25.06 4.57Q25.54 4.19 25.54 3.28L25.54 3.28Q25.54 2.42 25.06 2.06Q24.59 1.70 23.81 1.70ZM32.56 6.05L32.56 2.56Q32.27 2.93 31.97 3.34Q31.66 3.76 31.37 4.22Q31.07 4.67 30.80 5.14Q30.53 5.60 30.32 6.05L30.32 6.05L32.56 6.05ZM32.77 0.10L34.53 0.10L34.53 6.05L35.60 6.05L35.60 7.66L34.53 7.66L34.53 10L32.56 10L32.56 7.66L28.43 7.66L28.43 6.22Q28.74 5.60 29.22 4.81Q29.70 4.02 30.27 3.18Q30.85 2.35 31.49 1.54Q32.13 0.74 32.77 0.10L32.77 0.10Z"/>
    </g>
</svg>