<?xml version="1.0" encoding="UTF-8"?>
<svg height="26" width="90.6" version="1.1" xmlns="http://www.w3.org/2000/svg"><!--Created by Josélio de S. C. Júnior - 2021 - https://github.com/joseliojunior -->
    <rect
        height="24"
        width="88.6"
        rx="12"
        ry="12"
        x="1" y="1"
        fill="#c80fa0"
        stroke="#39042e"
        stroke-width="1" />
    <g transform="translate(0, 8)">
        <path fill="#39042e" d="M27.50 7.01L27.50 7.01Q27.50 7.90 27.20 8.50Q26.90 9.10 26.38 9.46Q25.86 9.82 25.14 9.98Q24.43 10.13 23.62 10.13L23.62 10.13Q22.96 10.13 22.26 10.06Q21.55 9.98 20.86 9.84L20.86 9.84L20.86 0.22Q21.42 0.13 22.10 0.06Q22.77-0.02 23.42-0.02L23.42-0.02Q24.54-0.02 25.25 0.22Q25.95 0.45 26.35 0.82Q26.75 1.20 26.90 1.66Q27.04 2.13 27.04 2.59L27.04 2.59Q27.04 3.30 26.70 3.84Q26.35 4.38 25.78 4.70L25.78 4.70Q26.78 5.07 27.14 5.70Q27.50 6.32 27.50 7.01ZM23.89 5.66L22.83 5.66L22.83 8.35Q23.04 8.38 23.29 8.40Q23.54 8.42 23.78 8.42L23.78 8.42Q24.11 8.42 24.43 8.36Q24.75 8.30 25 8.15Q25.25 8 25.41 7.72Q25.57 7.44 25.57 7.01L25.57 7.01Q25.57 6.29 25.11 5.98Q24.66 5.66 23.89 5.66L23.89 5.66ZM22.83 4.03L23.60 4.03Q24.35 4.03 24.74 3.70Q25.12 3.38 25.12 2.80L25.12 2.80Q25.12 2.45 25.01 2.23Q24.90 2.02 24.70 1.90Q24.51 1.78 24.26 1.74Q24 1.70 23.73 1.70L23.73 1.70Q23.50 1.70 23.26 1.71Q23.02 1.73 22.83 1.76L22.83 1.76L22.83 4.03ZM35.55 6.22L35.55 6.22Q35.55 7.12 35.30 7.85Q35.04 8.58 34.58 9.10Q34.11 9.63 33.46 9.92Q32.82 10.21 32.02 10.21L32.02 10.21Q31.22 10.21 30.57 9.92Q29.92 9.63 29.45 9.10Q28.98 8.58 28.72 7.85Q28.46 7.12 28.46 6.22L28.46 6.22Q28.46 5.34 28.73 4.62Q28.99 3.89 29.46 3.37Q29.94 2.85 30.59 2.57Q31.25 2.29 32.02 2.29L32.02 2.29Q32.80 2.29 33.45 2.57Q34.10 2.85 34.57 3.37Q35.04 3.89 35.30 4.62Q35.55 5.34 35.55 6.22ZM30.46 6.24L30.46 6.24Q30.46 7.25 30.82 7.87Q31.18 8.50 31.98 8.50L31.98 8.50Q32.75 8.50 33.14 7.87Q33.54 7.25 33.54 6.24L33.54 6.24Q33.54 5.23 33.18 4.62Q32.82 4 32.02 4L32.02 4Q31.25 4 30.86 4.62Q30.46 5.23 30.46 6.24ZM43.55 6.22L43.55 6.22Q43.55 7.12 43.30 7.85Q43.04 8.58 42.58 9.10Q42.11 9.63 41.46 9.92Q40.82 10.21 40.02 10.21L40.02 10.21Q39.22 10.21 38.57 9.92Q37.92 9.63 37.45 9.10Q36.98 8.58 36.72 7.85Q36.46 7.12 36.46 6.22L36.46 6.22Q36.46 5.34 36.73 4.62Q36.99 3.89 37.46 3.37Q37.94 2.85 38.59 2.57Q39.25 2.29 40.02 2.29L40.02 2.29Q40.80 2.29 41.45 2.57Q42.10 2.85 42.57 3.37Q43.04 3.89 43.30 4.62Q43.55 5.34 43.55 6.22ZM38.46 6.24L38.46 6.24Q38.46 7.25 38.82 7.87Q39.18 8.50 39.98 8.50L39.98 8.50Q40.75 8.50 41.14 7.87Q41.54 7.25 41.54 6.24L41.54 6.24Q41.54 5.23 41.18 4.62Q40.82 4 40.02 4L40.02 4Q39.25 4 38.86 4.62Q38.46 5.23 38.46 6.24ZM46.53 6L46.53 6Q46.53 6.93 46.86 7.42Q47.20 7.90 47.92 7.90L47.92 7.90Q48.24 7.90 48.52 7.82Q48.80 7.74 49.02 7.62L49.02 7.62L49.02 4Q48.80 3.95 48.62 3.94Q48.45 3.92 48.26 3.92L48.26 3.92Q46.53 3.92 46.53 6ZM51.01 2.72L51.01 9.09Q51.01 10.93 50.12 11.81Q49.23 12.69 47.26 12.69L47.26 12.69Q46.56 12.69 45.91 12.54Q45.26 12.40 44.67 12.21L44.67 12.21L45.04 10.54Q45.50 10.72 46.02 10.87Q46.53 11.02 47.30 11.02L47.30 11.02Q47.81 11.02 48.14 10.90Q48.48 10.78 48.67 10.58Q48.86 10.37 48.94 10.09Q49.02 9.81 49.02 9.49L49.02 9.49L49.02 9.18Q48.61 9.34 48.26 9.42Q47.92 9.50 47.52 9.50L47.52 9.50Q46.05 9.50 45.29 8.58Q44.53 7.65 44.53 6L44.53 6Q44.53 4.14 45.55 3.23Q46.58 2.32 48.34 2.32L48.34 2.32Q49.57 2.32 51.01 2.72L51.01 2.72ZM56.54 0.32L56.54 0.32Q56.54 0.90 56.18 1.23Q55.81 1.57 55.30 1.57L55.30 1.57Q54.78 1.57 54.42 1.23Q54.06 0.90 54.06 0.32L54.06 0.32Q54.06-0.27 54.42-0.61Q54.78-0.94 55.30-0.94L55.30-0.94Q55.81-0.94 56.18-0.61Q56.54-0.27 56.54 0.32ZM59.22 8.10L59.47 9.68Q58.86 9.97 58.33 10.07Q57.79 10.18 57.34 10.18L57.34 10.18Q56.58 10.18 56.06 9.95Q55.54 9.73 55.22 9.30Q54.91 8.88 54.78 8.27Q54.66 7.66 54.66 6.88L54.66 6.88L54.66 4.11L52.58 4.11L52.58 2.48L56.62 2.48L56.62 7.14Q56.62 7.81 56.87 8.14Q57.12 8.46 57.70 8.46L57.70 8.46Q57.97 8.46 58.35 8.39Q58.74 8.32 59.22 8.10L59.22 8.10ZM60.50 6.30L60.50 6.30Q60.50 5.31 60.80 4.56Q61.10 3.81 61.60 3.30Q62.10 2.80 62.74 2.54Q63.38 2.29 64.05 2.29L64.05 2.29Q65.71 2.29 66.58 3.27Q67.44 4.26 67.44 6.14L67.44 6.14Q67.44 6.34 67.43 6.54Q67.42 6.75 67.41 6.88L67.41 6.88L62.53 6.88Q62.53 7.62 63.14 8.04Q63.74 8.46 64.70 8.46L64.70 8.46Q65.30 8.46 65.83 8.34Q66.37 8.21 66.74 8.08L66.74 8.08L67.01 9.76Q66.50 9.94 65.92 10.06Q65.34 10.18 64.62 10.18L64.62 10.18Q63.66 10.18 62.90 9.93Q62.14 9.68 61.61 9.19Q61.07 8.70 60.78 7.98Q60.50 7.26 60.50 6.30ZM62.53 5.52L65.54 5.52Q65.54 5.22 65.46 4.94Q65.38 4.66 65.20 4.43Q65.02 4.21 64.75 4.07Q64.48 3.94 64.08 3.94L64.08 3.94Q63.70 3.94 63.42 4.06Q63.14 4.19 62.95 4.42Q62.77 4.64 62.66 4.93Q62.56 5.22 62.53 5.52L62.53 5.52Z"/>
    </g>
</svg>