<?xml version="1.0" encoding="UTF-8"?>
<svg height="34" width="78.3" version="1.1" xmlns="http://www.w3.org/2000/svg">
    <rect
        height="32"
        width="76.3"
        rx="16"
        ry="16"
        x="1"
        y="1"
        fill="#ff9900"
        stroke="#663d00"
        stroke-width="1"
         />
    <g transform="translate(0, 12)">
        <path fill="#663d00" d="M25.57 9.84L25.57 9.84Q26.31 9.84 26.80 9.68Q27.30 9.53 27.58 9.25Q27.87 8.98 27.98 8.63Q28.09 8.28 28.09 7.92L28.09 7.92Q28.09 7.46 27.82 7.10Q27.56 6.74 27.15 6.47Q26.74 6.19 26.24 5.96Q25.74 5.74 25.23 5.54L25.23 5.54Q24.56 5.30 23.84 4.99Q23.12 4.68 22.53 4.20Q21.94 3.72 21.56 3.01Q21.18 2.30 21.18 1.25L21.18 1.25Q21.18-0.84 22.53-2.02Q23.89-3.19 26.26-3.19L26.26-3.19Q27.63-3.19 28.65-2.88Q29.67-2.57 30.37-2.18L30.37-2.18L29.50 0.10Q28.90-0.24 28.17-0.48Q27.44-0.72 26.48-0.72L26.48-0.72Q24.13-0.72 24.13 0.98L24.13 0.98Q24.13 1.42 24.37 1.74Q24.61 2.06 24.98 2.32Q25.35 2.57 25.82 2.76Q26.29 2.95 26.74 3.12L26.74 3.12Q27.44 3.38 28.20 3.71Q28.95 4.03 29.59 4.57Q30.22 5.11 30.63 5.92Q31.04 6.72 31.04 7.94L31.04 7.94Q31.04 10.03 29.68 11.17Q28.33 12.31 25.57 12.31L25.57 12.31Q23.72 12.31 22.62 11.92Q21.51 11.52 20.96 11.18L20.96 11.18L21.82 8.78Q22.47 9.17 23.37 9.50Q24.27 9.84 25.57 9.84ZM39.51 12L36.46 12Q35.89 10.34 35.24 8.26Q34.59 6.17 34.02 4.09Q33.44 2.02 32.98 0.17Q32.53-1.68 32.31-2.86L32.31-2.86L35.43-2.86Q35.58-1.70 35.86-0.18Q36.15 1.34 36.50 2.96Q36.85 4.58 37.24 6.16Q37.64 7.73 38.02 8.98L38.02 8.98Q38.41 7.75 38.79 6.18Q39.18 4.61 39.51 2.99Q39.85 1.37 40.14-0.17Q40.42-1.70 40.62-2.86L40.62-2.86L43.71-2.86Q43.42-1.42 43.00 0.36Q42.58 2.14 42.04 4.09Q41.50 6.05 40.86 8.08Q40.21 10.10 39.51 12L39.51 12ZM51.49-0.62L51.49-0.62Q50.43-0.62 49.71-0.24Q48.99 0.14 48.52 0.83Q48.06 1.51 47.85 2.46Q47.65 3.41 47.65 4.56L47.65 4.56Q47.65 7.22 48.49 8.48Q49.33 9.74 50.96 9.74L50.96 9.74Q51.22 9.74 51.54 9.72Q51.85 9.70 52.11 9.65L52.11 9.65L52.11 4.22L55.06 4.22L55.06 11.64Q54.54 11.83 53.42 12.07Q52.30 12.31 50.72 12.31L50.72 12.31Q49.33 12.31 48.21 11.82Q47.10 11.33 46.30 10.36Q45.51 9.38 45.08 7.93Q44.65 6.48 44.65 4.56L44.65 4.56Q44.65 2.66 45.15 1.21Q45.66-0.24 46.52-1.22Q47.38-2.21 48.56-2.70Q49.74-3.19 51.08-3.19L51.08-3.19Q51.94-3.19 52.63-3.06Q53.31-2.93 53.82-2.76Q54.32-2.59 54.64-2.40Q54.97-2.21 55.14-2.11L55.14-2.11L54.37 0.24Q53.84-0.10 53.07-0.36Q52.30-0.62 51.49-0.62Z"/>
    </g>
</svg>