<?xml version="1.0" encoding="UTF-8"?>
<svg height="34" width="64.3" version="1.1" xmlns="http://www.w3.org/2000/svg">
    <rect
        height="32"
        width="62.3"
        rx="1"
        ry="1"
        x="1"
        y="1"
        fill="#ff9900"
        stroke="#663d00"
        stroke-width="1"
         />
    <g transform="translate(0, 14)">
        <path fill="#663d00" d="M16.50 8.48L16.50 8.48Q17.36 8.48 17.94 8.30Q18.51 8.12 18.85 7.79Q19.18 7.47 19.31 7.07Q19.44 6.66 19.44 6.24L19.44 6.24Q19.44 5.71 19.13 5.29Q18.82 4.87 18.34 4.55Q17.87 4.22 17.28 3.96Q16.69 3.69 16.10 3.47L16.10 3.47Q15.32 3.19 14.48 2.82Q13.64 2.46 12.95 1.90Q12.27 1.34 11.82 0.51Q11.37-0.31 11.37-1.54L11.37-1.54Q11.37-3.98 12.95-5.35Q14.54-6.72 17.31-6.72L17.31-6.72Q18.90-6.72 20.09-6.36Q21.28-6.00 22.10-5.55L22.10-5.55L21.09-2.89Q20.39-3.28 19.53-3.56Q18.68-3.84 17.56-3.84L17.56-3.84Q14.82-3.84 14.82-1.85L14.82-1.85Q14.82-1.35 15.10-0.97Q15.38-0.59 15.81-0.30Q16.24-0.00 16.79 0.22Q17.34 0.44 17.87 0.64L17.87 0.64Q18.68 0.95 19.56 1.33Q20.44 1.70 21.19 2.33Q21.93 2.96 22.40 3.90Q22.88 4.84 22.88 6.27L22.88 6.27Q22.88 8.70 21.30 10.03Q19.72 11.36 16.50 11.36L16.50 11.36Q14.34 11.36 13.05 10.90Q11.76 10.44 11.12 10.05L11.12 10.05L12.13 7.25Q12.88 7.70 13.93 8.09Q14.98 8.48 16.50 8.48ZM32.76 11L29.21 11Q28.54 9.07 27.78 6.63Q27.02 4.20 26.35 1.77Q25.68-0.65 25.15-2.80Q24.62-4.96 24.36-6.33L24.36-6.33L28.00-6.33Q28.17-4.99 28.51-3.21Q28.84-1.43 29.25 0.46Q29.66 2.35 30.12 4.18Q30.58 6.02 31.03 7.47L31.03 7.47Q31.48 6.04 31.92 4.21Q32.37 2.38 32.76 0.49Q33.16-1.40 33.49-3.20Q33.83-4.99 34.05-6.33L34.05-6.33L37.66-6.33Q37.33-4.65 36.84-2.58Q36.35-0.51 35.72 1.77Q35.09 4.06 34.33 6.42Q33.58 8.79 32.76 11L32.76 11ZM46.74-3.73L46.74-3.73Q45.50-3.73 44.66-3.28Q43.82-2.83 43.28-2.03Q42.73-1.24 42.49-0.13Q42.26 0.98 42.26 2.32L42.26 2.32Q42.26 5.43 43.24 6.90Q44.22 8.37 46.12 8.37L46.12 8.37Q46.43 8.37 46.79 8.34Q47.16 8.31 47.46 8.26L47.46 8.26L47.46 1.93L50.91 1.93L50.91 10.58Q50.29 10.80 48.99 11.08Q47.69 11.36 45.84 11.36L45.84 11.36Q44.22 11.36 42.91 10.79Q41.61 10.22 40.69 9.08Q39.76 7.95 39.26 6.25Q38.76 4.56 38.76 2.32L38.76 2.32Q38.76 0.11 39.34-1.59Q39.93-3.28 40.94-4.43Q41.95-5.58 43.32-6.15Q44.69-6.72 46.26-6.72L46.26-6.72Q47.27-6.72 48.07-6.57Q48.86-6.42 49.45-6.22Q50.04-6.02 50.42-5.80Q50.80-5.58 50.99-5.46L50.99-5.46L50.10-2.72Q49.48-3.11 48.58-3.42Q47.69-3.73 46.74-3.73Z"/>
    </g>
</svg>