<?xml version="1.0" encoding="UTF-8"?><svg height="26" width="66.3" version="1.1" xmlns="http://www.w3.org/2000/svg"><!--Created by Josélio de S. C. Júnior - 2021 - https://github.com/joseliojunior --><rect height="24" width="64.3" rx="1" ry="1" x="1" y="1" fill="#ff9900" stroke="#663d00" stroke-width="1" /><g transform="translate(0, 8)"><path fill="#663d00" d="M23.71 8.56L23.71 8.56Q24.21 8.56 24.54 8.46Q24.86 8.35 25.06 8.17Q25.25 7.98 25.32 7.75Q25.39 7.52 25.39 7.28L25.39 7.28Q25.39 6.98 25.22 6.74Q25.04 6.50 24.77 6.31Q24.50 6.13 24.16 5.98Q23.82 5.82 23.49 5.70L23.49 5.70Q23.04 5.54 22.56 5.33Q22.08 5.12 21.69 4.80Q21.30 4.48 21.04 4.01Q20.78 3.54 20.78 2.83L20.78 2.83Q20.78 1.44 21.69 0.66Q22.59-0.13 24.18-0.13L24.18-0.13Q25.09-0.13 25.77 0.08Q26.45 0.29 26.91 0.54L26.91 0.54L26.34 2.06Q25.94 1.84 25.45 1.68Q24.96 1.52 24.32 1.52L24.32 1.52Q22.75 1.52 22.75 2.66L22.75 2.66Q22.75 2.94 22.91 3.16Q23.07 3.38 23.32 3.54Q23.57 3.71 23.88 3.84Q24.19 3.97 24.50 4.08L24.50 4.08Q24.96 4.26 25.46 4.47Q25.97 4.69 26.39 5.05Q26.82 5.41 27.09 5.94Q27.36 6.48 27.36 7.30L27.36 7.30Q27.36 8.69 26.46 9.45Q25.55 10.21 23.71 10.21L23.71 10.21Q22.48 10.21 21.74 9.94Q21.01 9.68 20.64 9.46L20.64 9.46L21.22 7.86Q21.65 8.11 22.25 8.34Q22.85 8.56 23.71 8.56ZM33.01 10L30.98 10Q30.59 8.90 30.16 7.50Q29.73 6.11 29.34 4.73Q28.96 3.34 28.66 2.11Q28.35 0.88 28.21 0.10L28.21 0.10L30.29 0.10Q30.38 0.86 30.58 1.88Q30.77 2.90 31 3.98Q31.23 5.06 31.50 6.10Q31.76 7.15 32.02 7.98L32.02 7.98Q32.27 7.17 32.53 6.12Q32.78 5.07 33.01 3.99Q33.23 2.91 33.42 1.89Q33.62 0.86 33.74 0.10L33.74 0.10L35.81 0.10Q35.62 1.06 35.34 2.24Q35.06 3.42 34.70 4.73Q34.34 6.03 33.90 7.38Q33.47 8.74 33.01 10L33.01 10ZM40.99 1.58L40.99 1.58Q40.29 1.58 39.81 1.84Q39.33 2.10 39.02 2.55Q38.70 3.01 38.57 3.64Q38.43 4.27 38.43 5.04L38.43 5.04Q38.43 6.82 38.99 7.66Q39.55 8.50 40.64 8.50L40.64 8.50Q40.82 8.50 41.02 8.48Q41.23 8.46 41.41 8.43L41.41 8.43L41.41 4.82L43.38 4.82L43.38 9.76Q43.02 9.89 42.28 10.05Q41.54 10.21 40.48 10.21L40.48 10.21Q39.55 10.21 38.81 9.88Q38.06 9.55 37.54 8.90Q37.01 8.26 36.72 7.29Q36.43 6.32 36.43 5.04L36.43 5.04Q36.43 3.78 36.77 2.81Q37.10 1.84 37.68 1.18Q38.26 0.53 39.04 0.20Q39.82-0.13 40.72-0.13L40.72-0.13Q41.30-0.13 41.75-0.04Q42.21 0.05 42.54 0.16Q42.88 0.27 43.10 0.40Q43.31 0.53 43.42 0.59L43.42 0.59L42.91 2.16Q42.56 1.94 42.05 1.76Q41.54 1.58 40.99 1.58Z"/></g></svg>