<?xml version="1.0" encoding="UTF-8"?>
<svg height="26" width="220.2" version="1.1" xmlns="http://www.w3.org/2000/svg"><!--Created by Josélio de S. C. Júnior - 2021 - https://github.com/joseliojunior -->
    <defs>
        <pattern id="pattern"
                x="1.5" y="3" width="3" height="6"
                patternUnits="userSpaceOnUse"
                patternTransform="rotate(45)" >
            <rect height="6" width="1" fill="#999999"/>
        </pattern>
    </defs>
    <rect
        height="24"
        width="218.2"
        rx="1"
        ry="1"
        x="1" y="1"
        fill="url(#pattern)"
        stroke="#000000"
        stroke-width="1" />
    <g transform="translate(0, 8)">
        <path fill="#ffffff" stroke="#000000" d="M22.43 5.04L22.43 5.04Q22.43 5.76 22.49 6.39Q22.54 7.02 22.71 7.49Q22.88 7.95 23.18 8.22Q23.49 8.50 24 8.50L24 8.50Q24.50 8.50 24.81 8.22Q25.12 7.95 25.29 7.48Q25.46 7.01 25.51 6.38Q25.57 5.76 25.57 5.04L25.57 5.04Q25.57 4.32 25.51 3.69Q25.46 3.06 25.29 2.59Q25.12 2.13 24.82 1.86Q24.51 1.58 24 1.58L24 1.58Q23.49 1.58 23.18 1.86Q22.88 2.13 22.71 2.60Q22.54 3.07 22.49 3.70Q22.43 4.32 22.43 5.04ZM20.43 5.04L20.43 5.04Q20.43 2.48 21.38 1.18Q22.32-0.13 24-0.13L24-0.13Q25.74-0.13 26.66 1.18Q27.57 2.48 27.57 5.04L27.57 5.04Q27.57 7.60 26.64 8.90Q25.71 10.21 24.02 10.21L24.02 10.21Q22.27 10.21 21.35 8.90Q20.43 7.60 20.43 5.04ZM33.50 6.30L33.50 6.30Q33.50 5.30 33.10 4.65Q32.70 4 31.89 4L31.89 4Q31.66 4 31.41 4.02Q31.15 4.05 30.98 4.06L30.98 4.06L30.98 8.19Q31.17 8.32 31.49 8.40Q31.81 8.48 32.13 8.48L32.13 8.48Q32.83 8.48 33.17 7.91Q33.50 7.34 33.50 6.30ZM35.50 6.24L35.50 6.24Q35.50 7.10 35.31 7.83Q35.12 8.56 34.75 9.08Q34.38 9.60 33.82 9.89Q33.26 10.18 32.53 10.18L32.53 10.18Q31.78 10.18 30.98 9.81L30.98 9.81L30.98 12.64L29.01 12.64L29.01 2.72Q29.55 2.54 30.34 2.43Q31.14 2.32 31.90 2.32L31.90 2.32Q33.65 2.32 34.58 3.38Q35.50 4.43 35.50 6.24ZM36.50 6.30L36.50 6.30Q36.50 5.31 36.80 4.56Q37.10 3.81 37.60 3.30Q38.10 2.80 38.74 2.54Q39.38 2.29 40.05 2.29L40.05 2.29Q41.71 2.29 42.58 3.27Q43.44 4.26 43.44 6.14L43.44 6.14Q43.44 6.34 43.43 6.54Q43.42 6.75 43.41 6.88L43.41 6.88L38.53 6.88Q38.53 7.62 39.14 8.04Q39.74 8.46 40.70 8.46L40.70 8.46Q41.30 8.46 41.83 8.34Q42.37 8.21 42.74 8.08L42.74 8.08L43.01 9.76Q42.50 9.94 41.92 10.06Q41.34 10.18 40.62 10.18L40.62 10.18Q39.66 10.18 38.90 9.93Q38.14 9.68 37.61 9.19Q37.07 8.70 36.78 7.98Q36.50 7.26 36.50 6.30ZM38.53 5.52L41.54 5.52Q41.54 5.22 41.46 4.94Q41.38 4.66 41.20 4.43Q41.02 4.21 40.75 4.07Q40.48 3.94 40.08 3.94L40.08 3.94Q39.70 3.94 39.42 4.06Q39.14 4.19 38.95 4.42Q38.77 4.64 38.66 4.93Q38.56 5.22 38.53 5.52L38.53 5.52ZM45.01 10L45.01 2.72Q45.54 2.58 46.31 2.45Q47.09 2.32 48 2.32L48 2.32Q48.90 2.32 49.49 2.57Q50.08 2.82 50.42 3.27Q50.77 3.73 50.91 4.36Q51.06 4.99 51.06 5.76L51.06 5.76L51.06 10L49.09 10L49.09 6.02Q49.09 4.96 48.85 4.50Q48.61 4.03 47.87 4.03L47.87 4.03Q47.65 4.03 47.43 4.05Q47.22 4.06 46.98 4.10L46.98 4.10L46.98 10L45.01 10ZM55.71 8.56L55.71 8.56Q56.21 8.56 56.54 8.46Q56.86 8.35 57.06 8.17Q57.25 7.98 57.32 7.75Q57.39 7.52 57.39 7.28L57.39 7.28Q57.39 6.98 57.22 6.74Q57.04 6.50 56.77 6.31Q56.50 6.13 56.16 5.98Q55.82 5.82 55.49 5.70L55.49 5.70Q55.04 5.54 54.56 5.33Q54.08 5.12 53.69 4.80Q53.30 4.48 53.04 4.01Q52.78 3.54 52.78 2.83L52.78 2.83Q52.78 1.44 53.69 0.66Q54.59-0.13 56.18-0.13L56.18-0.13Q57.09-0.13 57.77 0.08Q58.45 0.29 58.91 0.54L58.91 0.54L58.34 2.06Q57.94 1.84 57.45 1.68Q56.96 1.52 56.32 1.52L56.32 1.52Q54.75 1.52 54.75 2.66L54.75 2.66Q54.75 2.94 54.91 3.16Q55.07 3.38 55.32 3.54Q55.57 3.71 55.88 3.84Q56.19 3.97 56.50 4.08L56.50 4.08Q56.96 4.26 57.46 4.47Q57.97 4.69 58.39 5.05Q58.82 5.41 59.09 5.94Q59.36 6.48 59.36 7.30L59.36 7.30Q59.36 8.69 58.46 9.45Q57.55 10.21 55.71 10.21L55.71 10.21Q54.48 10.21 53.74 9.94Q53.01 9.68 52.64 9.46L52.64 9.46L53.22 7.86Q53.65 8.11 54.25 8.34Q54.85 8.56 55.71 8.56ZM62.29 7.20L62.29 4.11L60.58 4.11L60.58 2.48L62.29 2.48L62.29 0.59L64.26 0.27L64.26 2.48L67.41 2.48L67.41 4.11L64.26 4.11L64.26 7.15Q64.26 7.57 64.34 7.82Q64.42 8.08 64.56 8.22Q64.70 8.37 64.91 8.42Q65.12 8.46 65.38 8.46L65.38 8.46Q65.65 8.46 65.88 8.45Q66.11 8.43 66.33 8.39Q66.54 8.35 66.78 8.27Q67.01 8.19 67.28 8.06L67.28 8.06L67.55 9.76Q67.01 9.98 66.38 10.08Q65.74 10.18 65.15 10.18L65.15 10.18Q64.46 10.18 63.94 10.06Q63.41 9.95 63.04 9.63Q62.67 9.31 62.48 8.73Q62.29 8.14 62.29 7.20L62.29 7.20ZM68.50 6.30L68.50 6.30Q68.50 5.31 68.80 4.56Q69.10 3.81 69.60 3.30Q70.10 2.80 70.74 2.54Q71.38 2.29 72.05 2.29L72.05 2.29Q73.71 2.29 74.58 3.27Q75.44 4.26 75.44 6.14L75.44 6.14Q75.44 6.34 75.43 6.54Q75.42 6.75 75.41 6.88L75.41 6.88L70.53 6.88Q70.53 7.62 71.14 8.04Q71.74 8.46 72.70 8.46L72.70 8.46Q73.30 8.46 73.83 8.34Q74.37 8.21 74.74 8.08L74.74 8.08L75.01 9.76Q74.50 9.94 73.92 10.06Q73.34 10.18 72.62 10.18L72.62 10.18Q71.66 10.18 70.90 9.93Q70.14 9.68 69.61 9.19Q69.07 8.70 68.78 7.98Q68.50 7.26 68.50 6.30ZM70.53 5.52L73.54 5.52Q73.54 5.22 73.46 4.94Q73.38 4.66 73.20 4.43Q73.02 4.21 72.75 4.07Q72.48 3.94 72.08 3.94L72.08 3.94Q71.70 3.94 71.42 4.06Q71.14 4.19 70.95 4.42Q70.77 4.64 70.66 4.93Q70.56 5.22 70.53 5.52L70.53 5.52ZM81.50 6.30L81.50 6.30Q81.50 5.30 81.10 4.65Q80.70 4 79.89 4L79.89 4Q79.66 4 79.41 4.02Q79.15 4.05 78.98 4.06L78.98 4.06L78.98 8.19Q79.17 8.32 79.49 8.40Q79.81 8.48 80.13 8.48L80.13 8.48Q80.83 8.48 81.17 7.91Q81.50 7.34 81.50 6.30ZM83.50 6.24L83.50 6.24Q83.50 7.10 83.31 7.83Q83.12 8.56 82.75 9.08Q82.38 9.60 81.82 9.89Q81.26 10.18 80.53 10.18L80.53 10.18Q79.78 10.18 78.98 9.81L78.98 9.81L78.98 12.64L77.01 12.64L77.01 2.72Q77.55 2.54 78.34 2.43Q79.14 2.32 79.90 2.32L79.90 2.32Q81.65 2.32 82.58 3.38Q83.50 4.43 83.50 6.24ZM95.58-0.02L95.58-0.02Q97.47-0.02 98.51 0.76Q99.55 1.54 99.55 3.30L99.55 3.30Q99.55 5.07 98.50 5.86Q97.46 6.66 95.54 6.66L95.54 6.66L94.83 6.66L94.83 10L92.86 10L92.86 0.22Q93.15 0.16 93.51 0.11Q93.87 0.06 94.24 0.04Q94.61 0.02 94.96 0Q95.31-0.02 95.58-0.02ZM95.81 1.70L95.81 1.70Q95.63 1.70 95.32 1.70Q95.01 1.71 94.83 1.74L94.83 1.74L94.83 4.94L95.63 4.94Q96.58 4.94 97.06 4.57Q97.54 4.19 97.54 3.28L97.54 3.28Q97.54 2.42 97.06 2.06Q96.59 1.70 95.81 1.70ZM107.34 2.66L106.99 4.48Q106.80 4.43 106.54 4.38Q106.27 4.34 106 4.30Q105.73 4.26 105.47 4.24Q105.22 4.22 105.04 4.22L105.04 4.22Q104.62 4.22 104.22 4.26Q103.82 4.30 103.41 4.42L103.41 4.42L103.41 10L101.42 10L101.42 2.98Q102.21 2.69 103.03 2.51Q103.86 2.34 104.96 2.34L104.96 2.34Q105.12 2.34 105.42 2.35Q105.71 2.37 106.05 2.41Q106.38 2.45 106.73 2.50Q107.07 2.56 107.34 2.66L107.34 2.66ZM115.55 6.22L115.55 6.22Q115.55 7.12 115.30 7.85Q115.04 8.58 114.58 9.10Q114.11 9.63 113.46 9.92Q112.82 10.21 112.02 10.21L112.02 10.21Q111.22 10.21 110.57 9.92Q109.92 9.63 109.45 9.10Q108.98 8.58 108.72 7.85Q108.46 7.12 108.46 6.22L108.46 6.22Q108.46 5.34 108.73 4.62Q108.99 3.89 109.46 3.37Q109.94 2.85 110.59 2.57Q111.25 2.29 112.02 2.29L112.02 2.29Q112.80 2.29 113.45 2.57Q114.10 2.85 114.57 3.37Q115.04 3.89 115.30 4.62Q115.55 5.34 115.55 6.22ZM110.46 6.24L110.46 6.24Q110.46 7.25 110.82 7.87Q111.18 8.50 111.98 8.50L111.98 8.50Q112.75 8.50 113.14 7.87Q113.54 7.25 113.54 6.24L113.54 6.24Q113.54 5.23 113.18 4.62Q112.82 4 112.02 4L112.02 4Q111.25 4 110.86 4.62Q110.46 5.23 110.46 6.24ZM121.50 6.30L121.50 6.30Q121.50 5.30 121.10 4.65Q120.70 4 119.89 4L119.89 4Q119.66 4 119.41 4.02Q119.15 4.05 118.98 4.06L118.98 4.06L118.98 8.19Q119.17 8.32 119.49 8.40Q119.81 8.48 120.13 8.48L120.13 8.48Q120.83 8.48 121.17 7.91Q121.50 7.34 121.50 6.30ZM123.50 6.24L123.50 6.24Q123.50 7.10 123.31 7.83Q123.12 8.56 122.75 9.08Q122.38 9.60 121.82 9.89Q121.26 10.18 120.53 10.18L120.53 10.18Q119.78 10.18 118.98 9.81L118.98 9.81L118.98 12.64L117.01 12.64L117.01 2.72Q117.55 2.54 118.34 2.43Q119.14 2.32 119.90 2.32L119.90 2.32Q121.65 2.32 122.58 3.38Q123.50 4.43 123.50 6.24ZM124.50 6.30L124.50 6.30Q124.50 5.31 124.80 4.56Q125.10 3.81 125.60 3.30Q126.10 2.80 126.74 2.54Q127.38 2.29 128.05 2.29L128.05 2.29Q129.71 2.29 130.58 3.27Q131.44 4.26 131.44 6.14L131.44 6.14Q131.44 6.34 131.43 6.54Q131.42 6.75 131.41 6.88L131.41 6.88L126.53 6.88Q126.53 7.62 127.14 8.04Q127.74 8.46 128.70 8.46L128.70 8.46Q129.30 8.46 129.83 8.34Q130.37 8.21 130.74 8.08L130.74 8.08L131.01 9.76Q130.50 9.94 129.92 10.06Q129.34 10.18 128.62 10.18L128.62 10.18Q127.66 10.18 126.90 9.93Q126.14 9.68 125.61 9.19Q125.07 8.70 124.78 7.98Q124.50 7.26 124.50 6.30ZM126.53 5.52L129.54 5.52Q129.54 5.22 129.46 4.94Q129.38 4.66 129.20 4.43Q129.02 4.21 128.75 4.07Q128.48 3.94 128.08 3.94L128.08 3.94Q127.70 3.94 127.42 4.06Q127.14 4.19 126.95 4.42Q126.77 4.64 126.66 4.93Q126.56 5.22 126.53 5.52L126.53 5.52ZM139.34 2.66L138.99 4.48Q138.80 4.43 138.54 4.38Q138.27 4.34 138 4.30Q137.73 4.26 137.47 4.24Q137.22 4.22 137.04 4.22L137.04 4.22Q136.62 4.22 136.22 4.26Q135.82 4.30 135.41 4.42L135.41 4.42L135.41 10L133.42 10L133.42 2.98Q134.21 2.69 135.03 2.51Q135.86 2.34 136.96 2.34L136.96 2.34Q137.12 2.34 137.42 2.35Q137.71 2.37 138.05 2.41Q138.38 2.45 138.73 2.50Q139.07 2.56 139.34 2.66L139.34 2.66ZM142.29 7.20L142.29 4.11L140.58 4.11L140.58 2.48L142.29 2.48L142.29 0.59L144.26 0.27L144.26 2.48L147.41 2.48L147.41 4.11L144.26 4.11L144.26 7.15Q144.26 7.57 144.34 7.82Q144.42 8.08 144.56 8.22Q144.70 8.37 144.91 8.42Q145.12 8.46 145.38 8.46L145.38 8.46Q145.65 8.46 145.88 8.45Q146.11 8.43 146.33 8.39Q146.54 8.35 146.78 8.27Q147.01 8.19 147.28 8.06L147.28 8.06L147.55 9.76Q147.01 9.98 146.38 10.08Q145.74 10.18 145.15 10.18L145.15 10.18Q144.46 10.18 143.94 10.06Q143.41 9.95 143.04 9.63Q142.67 9.31 142.48 8.73Q142.29 8.14 142.29 7.20L142.29 7.20ZM153.54 2.48L155.55 2.48Q155.25 3.54 154.97 4.55Q154.69 5.57 154.38 6.54Q154.08 7.50 153.74 8.43Q153.39 9.36 152.99 10.24L152.99 10.24Q152.69 10.88 152.39 11.34Q152.10 11.81 151.74 12.10Q151.38 12.40 150.94 12.54Q150.50 12.69 149.90 12.69L149.90 12.69Q149.41 12.69 149 12.61Q148.59 12.53 148.32 12.40L148.32 12.40L148.69 10.75Q149.01 10.90 149.26 10.95Q149.50 11.01 149.79 11.01L149.79 11.01Q150.37 11.01 150.72 10.62Q151.07 10.24 151.28 9.71L151.28 9.71Q150.58 8.30 149.87 6.49Q149.17 4.67 148.59 2.48L148.59 2.48L150.64 2.48Q150.78 3.07 150.97 3.74Q151.15 4.42 151.36 5.09Q151.57 5.76 151.80 6.41Q152.03 7.06 152.27 7.62L152.27 7.62Q152.43 7.06 152.61 6.41Q152.78 5.76 152.94 5.10Q153.10 4.43 153.26 3.76Q153.41 3.09 153.54 2.48L153.54 2.48ZM171.36 8.37L171.36 10L165.14 10L165.14 0.10L167.12 0.10L167.12 8.37L171.36 8.37ZM176.54 0.32L176.54 0.32Q176.54 0.90 176.18 1.23Q175.81 1.57 175.30 1.57L175.30 1.57Q174.78 1.57 174.42 1.23Q174.06 0.90 174.06 0.32L174.06 0.32Q174.06-0.27 174.42-0.61Q174.78-0.94 175.30-0.94L175.30-0.94Q175.81-0.94 176.18-0.61Q176.54-0.27 176.54 0.32ZM179.22 8.10L179.47 9.68Q178.86 9.97 178.33 10.07Q177.79 10.18 177.34 10.18L177.34 10.18Q176.58 10.18 176.06 9.95Q175.54 9.73 175.22 9.30Q174.91 8.88 174.78 8.27Q174.66 7.66 174.66 6.88L174.66 6.88L174.66 4.11L172.58 4.11L172.58 2.48L176.62 2.48L176.62 7.14Q176.62 7.81 176.87 8.14Q177.12 8.46 177.70 8.46L177.70 8.46Q177.97 8.46 178.35 8.39Q178.74 8.32 179.22 8.10L179.22 8.10ZM183.65 8.51L183.65 8.51Q184.37 8.51 184.75 8.41Q185.14 8.30 185.14 7.98L185.14 7.98Q185.14 7.78 185.02 7.63Q184.90 7.49 184.68 7.38Q184.46 7.28 184.18 7.18Q183.90 7.09 183.60 6.99L183.60 6.99Q183.17 6.86 182.72 6.70Q182.27 6.53 181.90 6.27Q181.54 6.02 181.30 5.62Q181.06 5.23 181.06 4.64L181.06 4.64Q181.06 4.16 181.24 3.74Q181.42 3.31 181.82 2.98Q182.21 2.66 182.82 2.47Q183.42 2.29 184.27 2.29L184.27 2.29Q185.01 2.29 185.64 2.40Q186.27 2.51 186.74 2.72L186.74 2.72L186.43 4.38Q186.16 4.30 185.58 4.12Q185.01 3.94 184.29 3.94L184.29 3.94Q183.54 3.94 183.27 4.12Q183.01 4.30 183.01 4.51L183.01 4.51Q183.01 4.69 183.13 4.82Q183.25 4.96 183.45 5.07Q183.65 5.18 183.91 5.29Q184.18 5.39 184.48 5.49L184.48 5.49Q184.91 5.63 185.38 5.81Q185.84 5.98 186.22 6.25Q186.59 6.51 186.83 6.92Q187.07 7.33 187.07 7.92L187.07 7.92Q187.07 8.38 186.90 8.80Q186.72 9.22 186.31 9.52Q185.90 9.82 185.25 10Q184.59 10.18 183.63 10.18L183.63 10.18Q182.66 10.18 181.97 9.95Q181.28 9.73 180.86 9.55L180.86 9.55L181.17 7.90Q181.73 8.13 182.36 8.32Q182.99 8.51 183.65 8.51ZM190.29 7.20L190.29 4.11L188.58 4.11L188.58 2.48L190.29 2.48L190.29 0.59L192.26 0.27L192.26 2.48L195.41 2.48L195.41 4.11L192.26 4.11L192.26 7.15Q192.26 7.57 192.34 7.82Q192.42 8.08 192.56 8.22Q192.70 8.37 192.91 8.42Q193.12 8.46 193.38 8.46L193.38 8.46Q193.65 8.46 193.88 8.45Q194.11 8.43 194.33 8.39Q194.54 8.35 194.78 8.27Q195.01 8.19 195.28 8.06L195.28 8.06L195.55 9.76Q195.01 9.98 194.38 10.08Q193.74 10.18 193.15 10.18L193.15 10.18Q192.46 10.18 191.94 10.06Q191.41 9.95 191.04 9.63Q190.67 9.31 190.48 8.73Q190.29 8.14 190.29 7.20L190.29 7.20Z"/>
    </g>
</svg>