<?xml version="1.0" encoding="UTF-8"?>
<svg height="34" width="308.2" version="1.1" xmlns="http://www.w3.org/2000/svg"><!--Created by Josélio de S. C. Júnior - 2021 - https://github.com/joseliojunior -->
    <defs>
        <pattern id="pattern"
                x="3" y="3" width="6" height="6"
                patternUnits="userSpaceOnUse"
                patternTransform="rotate(45)" >
            <rect height="6" width="6"
                fill="#ffffff"/>
            <line x1="0" y1="0" x2="0" y2="6"
                stroke="#888888"
                stroke-width="2" />
        </pattern>
    </defs>
    <rect
        height="32"
        width="306.2"
        rx="1"
        ry="1"
        x="1" y="1"
        fill="url(#pattern)"
        stroke="#000000"
        stroke-width="1" />
    <g transform="translate(0, 12)">
        <path fill="#ffffff" stroke="#000000" d="M23.65 4.56L23.65 4.56Q23.65 5.64 23.73 6.59Q23.82 7.54 24.07 8.23Q24.32 8.93 24.78 9.34Q25.23 9.74 26 9.74L26 9.74Q26.74 9.74 27.21 9.34Q27.68 8.93 27.93 8.22Q28.18 7.51 28.27 6.58Q28.35 5.64 28.35 4.56L28.35 4.56Q28.35 3.48 28.27 2.53Q28.18 1.58 27.93 0.89Q27.68 0.19 27.22-0.22Q26.77-0.62 26-0.62L26-0.62Q25.23-0.62 24.78-0.22Q24.32 0.19 24.07 0.90Q23.82 1.61 23.73 2.54Q23.65 3.48 23.65 4.56ZM20.65 4.56L20.65 4.56Q20.65 0.72 22.06-1.24Q23.48-3.19 26-3.19L26-3.19Q28.62-3.19 29.98-1.24Q31.35 0.72 31.35 4.56L31.35 4.56Q31.35 8.40 29.96 10.36Q28.57 12.31 26.02 12.31L26.02 12.31Q23.41 12.31 22.03 10.36Q20.65 8.40 20.65 4.56ZM40.26 6.46L40.26 6.46Q40.26 4.94 39.66 3.97Q39.06 3 37.83 3L37.83 3Q37.50 3 37.11 3.04Q36.73 3.07 36.46 3.10L36.46 3.10L36.46 9.29Q36.75 9.48 37.23 9.60Q37.71 9.72 38.19 9.72L38.19 9.72Q39.25 9.72 39.75 8.87Q40.26 8.02 40.26 6.46ZM43.26 6.36L43.26 6.36Q43.26 7.66 42.97 8.75Q42.68 9.84 42.13 10.62Q41.58 11.40 40.74 11.83Q39.90 12.26 38.79 12.26L38.79 12.26Q37.66 12.26 36.46 11.71L36.46 11.71L36.46 15.96L33.51 15.96L33.51 1.08Q34.33 0.82 35.52 0.65Q36.70 0.48 37.86 0.48L37.86 0.48Q40.47 0.48 41.86 2.06Q43.26 3.65 43.26 6.36ZM44.74 6.46L44.74 6.46Q44.74 4.97 45.20 3.84Q45.66 2.71 46.40 1.96Q47.14 1.20 48.10 0.82Q49.06 0.43 50.07 0.43L50.07 0.43Q52.57 0.43 53.86 1.91Q55.16 3.38 55.16 6.22L55.16 6.22Q55.16 6.50 55.15 6.82Q55.14 7.13 55.11 7.32L55.11 7.32L47.79 7.32Q47.79 8.42 48.70 9.06Q49.62 9.70 51.06 9.70L51.06 9.70Q51.94 9.70 52.75 9.50Q53.55 9.31 54.10 9.12L54.10 9.12L54.51 11.64Q53.74 11.90 52.88 12.08Q52.02 12.26 50.94 12.26L50.94 12.26Q49.50 12.26 48.36 11.89Q47.22 11.52 46.41 10.79Q45.61 10.06 45.18 8.98Q44.74 7.90 44.74 6.46ZM47.79 5.28L52.30 5.28Q52.30 4.82 52.18 4.40Q52.06 3.98 51.80 3.65Q51.54 3.31 51.13 3.11Q50.72 2.90 50.12 2.90L50.12 2.90Q49.54 2.90 49.12 3.10Q48.70 3.29 48.43 3.62Q48.15 3.96 48.00 4.39Q47.84 4.82 47.79 5.28L47.79 5.28ZM57.51 12L57.51 1.08Q58.30 0.86 59.47 0.67Q60.63 0.48 62 0.48L62 0.48Q63.34 0.48 64.23 0.85Q65.12 1.22 65.64 1.91Q66.15 2.59 66.37 3.54Q66.58 4.49 66.58 5.64L66.58 5.64L66.58 12L63.63 12L63.63 6.02Q63.63 4.44 63.27 3.74Q62.91 3.05 61.81 3.05L61.81 3.05Q61.47 3.05 61.15 3.07Q60.82 3.10 60.46 3.14L60.46 3.14L60.46 12L57.51 12ZM73.57 9.84L73.57 9.84Q74.31 9.84 74.80 9.68Q75.30 9.53 75.58 9.25Q75.87 8.98 75.98 8.63Q76.09 8.28 76.09 7.92L76.09 7.92Q76.09 7.46 75.82 7.10Q75.56 6.74 75.15 6.47Q74.74 6.19 74.24 5.96Q73.74 5.74 73.23 5.54L73.23 5.54Q72.56 5.30 71.84 4.99Q71.12 4.68 70.53 4.20Q69.94 3.72 69.56 3.01Q69.18 2.30 69.18 1.25L69.18 1.25Q69.18-0.84 70.53-2.02Q71.89-3.19 74.26-3.19L74.26-3.19Q75.63-3.19 76.65-2.88Q77.67-2.57 78.37-2.18L78.37-2.18L77.50 0.10Q76.90-0.24 76.17-0.48Q75.44-0.72 74.48-0.72L74.48-0.72Q72.13-0.72 72.13 0.98L72.13 0.98Q72.13 1.42 72.37 1.74Q72.61 2.06 72.98 2.32Q73.35 2.57 73.82 2.76Q74.29 2.95 74.74 3.12L74.74 3.12Q75.44 3.38 76.20 3.71Q76.95 4.03 77.59 4.57Q78.22 5.11 78.63 5.92Q79.04 6.72 79.04 7.94L79.04 7.94Q79.04 10.03 77.68 11.17Q76.33 12.31 73.57 12.31L73.57 12.31Q71.72 12.31 70.62 11.92Q69.51 11.52 68.96 11.18L68.96 11.18L69.82 8.78Q70.47 9.17 71.37 9.50Q72.27 9.84 73.57 9.84ZM83.43 7.80L83.43 3.17L80.86 3.17L80.86 0.72L83.43 0.72L83.43-2.11L86.38-2.59L86.38 0.72L91.11 0.72L91.11 3.17L86.38 3.17L86.38 7.73Q86.38 8.35 86.50 8.74Q86.62 9.12 86.84 9.34Q87.06 9.55 87.37 9.62Q87.68 9.70 88.06 9.70L88.06 9.70Q88.47 9.70 88.82 9.67Q89.17 9.65 89.49 9.59Q89.82 9.53 90.16 9.41Q90.51 9.29 90.92 9.10L90.92 9.10L91.33 11.64Q90.51 11.98 89.56 12.12Q88.62 12.26 87.73 12.26L87.73 12.26Q86.70 12.26 85.90 12.10Q85.11 11.93 84.56 11.45Q84.01 10.97 83.72 10.09Q83.43 9.22 83.43 7.80L83.43 7.80ZM92.74 6.46L92.74 6.46Q92.74 4.97 93.20 3.84Q93.66 2.71 94.40 1.96Q95.14 1.20 96.10 0.82Q97.06 0.43 98.07 0.43L98.07 0.43Q100.57 0.43 101.86 1.91Q103.16 3.38 103.16 6.22L103.16 6.22Q103.16 6.50 103.15 6.82Q103.14 7.13 103.11 7.32L103.11 7.32L95.79 7.32Q95.79 8.42 96.70 9.06Q97.62 9.70 99.06 9.70L99.06 9.70Q99.94 9.70 100.75 9.50Q101.55 9.31 102.10 9.12L102.10 9.12L102.51 11.64Q101.74 11.90 100.88 12.08Q100.02 12.26 98.94 12.26L98.94 12.26Q97.50 12.26 96.36 11.89Q95.22 11.52 94.41 10.79Q93.61 10.06 93.18 8.98Q92.74 7.90 92.74 6.46ZM95.79 5.28L100.30 5.28Q100.30 4.82 100.18 4.40Q100.06 3.98 99.80 3.65Q99.54 3.31 99.13 3.11Q98.72 2.90 98.12 2.90L98.12 2.90Q97.54 2.90 97.12 3.10Q96.70 3.29 96.43 3.62Q96.15 3.96 96.00 4.39Q95.84 4.82 95.79 5.28L95.79 5.28ZM112.26 6.46L112.26 6.46Q112.26 4.94 111.66 3.97Q111.06 3 109.83 3L109.83 3Q109.50 3 109.11 3.04Q108.73 3.07 108.46 3.10L108.46 3.10L108.46 9.29Q108.75 9.48 109.23 9.60Q109.71 9.72 110.19 9.72L110.19 9.72Q111.25 9.72 111.75 8.87Q112.26 8.02 112.26 6.46ZM115.26 6.36L115.26 6.36Q115.26 7.66 114.97 8.75Q114.68 9.84 114.13 10.62Q113.58 11.40 112.74 11.83Q111.90 12.26 110.79 12.26L110.79 12.26Q109.66 12.26 108.46 11.71L108.46 11.71L108.46 15.96L105.51 15.96L105.51 1.08Q106.33 0.82 107.52 0.65Q108.70 0.48 109.86 0.48L109.86 0.48Q112.47 0.48 113.86 2.06Q115.26 3.65 115.26 6.36ZM133.38-3.02L133.38-3.02Q136.21-3.02 137.77-1.86Q139.33-0.70 139.33 1.94L139.33 1.94Q139.33 4.61 137.76 5.80Q136.18 6.98 133.30 6.98L133.30 6.98L132.25 6.98L132.25 12L129.30 12L129.30-2.66Q129.73-2.76 130.27-2.83Q130.81-2.90 131.36-2.94Q131.91-2.98 132.44-3Q132.97-3.02 133.38-3.02ZM133.71-0.46L133.71-0.46Q133.45-0.46 132.98-0.44Q132.51-0.43 132.25-0.38L132.25-0.38L132.25 4.42L133.45 4.42Q134.86 4.42 135.58 3.85Q136.30 3.29 136.30 1.92L136.30 1.92Q136.30 0.62 135.60 0.08Q134.89-0.46 133.71-0.46ZM151.02 0.98L150.49 3.72Q150.20 3.65 149.80 3.58Q149.41 3.50 149 3.44Q148.59 3.38 148.21 3.36Q147.82 3.34 147.56 3.34L147.56 3.34Q146.94 3.34 146.34 3.40Q145.74 3.46 145.11 3.62L145.11 3.62L145.11 12L142.14 12L142.14 1.46Q143.31 1.03 144.55 0.77Q145.78 0.50 147.44 0.50L147.44 0.50Q147.68 0.50 148.12 0.53Q148.57 0.55 149.07 0.61Q149.58 0.67 150.09 0.76Q150.61 0.84 151.02 0.98L151.02 0.98ZM163.33 6.34L163.33 6.34Q163.33 7.68 162.94 8.77Q162.56 9.86 161.86 10.66Q161.17 11.45 160.20 11.88Q159.22 12.31 158.02 12.31L158.02 12.31Q156.82 12.31 155.85 11.88Q154.88 11.45 154.17 10.66Q153.46 9.86 153.08 8.77Q152.70 7.68 152.70 6.34L152.70 6.34Q152.70 5.02 153.09 3.92Q153.49 2.83 154.20 2.05Q154.90 1.27 155.89 0.85Q156.87 0.43 158.02 0.43L158.02 0.43Q159.20 0.43 160.17 0.85Q161.14 1.27 161.85 2.05Q162.56 2.83 162.94 3.92Q163.33 5.02 163.33 6.34ZM155.70 6.36L155.70 6.36Q155.70 7.87 156.24 8.81Q156.78 9.74 157.98 9.74L157.98 9.74Q159.13 9.74 159.72 8.81Q160.30 7.87 160.30 6.36L160.30 6.36Q160.30 4.85 159.76 3.92Q159.22 3 158.02 3L158.02 3Q156.87 3 156.28 3.92Q155.70 4.85 155.70 6.36ZM172.26 6.46L172.26 6.46Q172.26 4.94 171.66 3.97Q171.06 3 169.83 3L169.83 3Q169.50 3 169.11 3.04Q168.73 3.07 168.46 3.10L168.46 3.10L168.46 9.29Q168.75 9.48 169.23 9.60Q169.71 9.72 170.19 9.72L170.19 9.72Q171.25 9.72 171.75 8.87Q172.26 8.02 172.26 6.46ZM175.26 6.36L175.26 6.36Q175.26 7.66 174.97 8.75Q174.68 9.84 174.13 10.62Q173.58 11.40 172.74 11.83Q171.90 12.26 170.79 12.26L170.79 12.26Q169.66 12.26 168.46 11.71L168.46 11.71L168.46 15.96L165.51 15.96L165.51 1.08Q166.33 0.82 167.52 0.65Q168.70 0.48 169.86 0.48L169.86 0.48Q172.47 0.48 173.86 2.06Q175.26 3.65 175.26 6.36ZM176.74 6.46L176.74 6.46Q176.74 4.97 177.20 3.84Q177.66 2.71 178.40 1.96Q179.14 1.20 180.10 0.82Q181.06 0.43 182.07 0.43L182.07 0.43Q184.57 0.43 185.86 1.91Q187.16 3.38 187.16 6.22L187.16 6.22Q187.16 6.50 187.15 6.82Q187.14 7.13 187.11 7.32L187.11 7.32L179.79 7.32Q179.79 8.42 180.70 9.06Q181.62 9.70 183.06 9.70L183.06 9.70Q183.94 9.70 184.75 9.50Q185.55 9.31 186.10 9.12L186.10 9.12L186.51 11.64Q185.74 11.90 184.88 12.08Q184.02 12.26 182.94 12.26L182.94 12.26Q181.50 12.26 180.36 11.89Q179.22 11.52 178.41 10.79Q177.61 10.06 177.18 8.98Q176.74 7.90 176.74 6.46ZM179.79 5.28L184.30 5.28Q184.30 4.82 184.18 4.40Q184.06 3.98 183.80 3.65Q183.54 3.31 183.13 3.11Q182.72 2.90 182.12 2.90L182.12 2.90Q181.54 2.90 181.12 3.10Q180.70 3.29 180.43 3.62Q180.15 3.96 180.00 4.39Q179.84 4.82 179.79 5.28L179.79 5.28ZM199.02 0.98L198.49 3.72Q198.20 3.65 197.80 3.58Q197.41 3.50 197 3.44Q196.59 3.38 196.21 3.36Q195.82 3.34 195.56 3.34L195.56 3.34Q194.94 3.34 194.34 3.40Q193.74 3.46 193.11 3.62L193.11 3.62L193.11 12L190.14 12L190.14 1.46Q191.31 1.03 192.55 0.77Q193.78 0.50 195.44 0.50L195.44 0.50Q195.68 0.50 196.12 0.53Q196.57 0.55 197.07 0.61Q197.58 0.67 198.09 0.76Q198.61 0.84 199.02 0.98L199.02 0.98ZM203.43 7.80L203.43 3.17L200.86 3.17L200.86 0.72L203.43 0.72L203.43-2.11L206.38-2.59L206.38 0.72L211.11 0.72L211.11 3.17L206.38 3.17L206.38 7.73Q206.38 8.35 206.50 8.74Q206.62 9.12 206.84 9.34Q207.06 9.55 207.37 9.62Q207.68 9.70 208.06 9.70L208.06 9.70Q208.47 9.70 208.82 9.67Q209.17 9.65 209.49 9.59Q209.82 9.53 210.16 9.41Q210.51 9.29 210.92 9.10L210.92 9.10L211.33 11.64Q210.51 11.98 209.56 12.12Q208.62 12.26 207.73 12.26L207.73 12.26Q206.70 12.26 205.90 12.10Q205.11 11.93 204.56 11.45Q204.01 10.97 203.72 10.09Q203.43 9.22 203.43 7.80L203.43 7.80ZM220.30 0.72L223.33 0.72Q222.87 2.30 222.45 3.83Q222.03 5.35 221.58 6.80Q221.12 8.26 220.60 9.65Q220.09 11.04 219.49 12.36L219.49 12.36Q219.03 13.32 218.59 14.02Q218.14 14.71 217.60 15.16Q217.06 15.60 216.40 15.82Q215.74 16.03 214.86 16.03L214.86 16.03Q214.11 16.03 213.50 15.91Q212.89 15.79 212.48 15.60L212.48 15.60L213.03 13.13Q213.51 13.34 213.88 13.43Q214.26 13.51 214.69 13.51L214.69 13.51Q215.55 13.51 216.08 12.94Q216.61 12.36 216.92 11.57L216.92 11.57Q215.86 9.46 214.81 6.73Q213.75 4.01 212.89 0.72L212.89 0.72L215.96 0.72Q216.18 1.61 216.45 2.62Q216.73 3.62 217.04 4.63Q217.35 5.64 217.70 6.61Q218.05 7.58 218.41 8.42L218.41 8.42Q218.65 7.58 218.91 6.61Q219.18 5.64 219.42 4.64Q219.66 3.65 219.88 2.64Q220.11 1.63 220.30 0.72L220.30 0.72ZM247.04 9.55L247.04 12L237.70 12L237.70-2.86L240.68-2.86L240.68 9.55L247.04 9.55ZM254.82-2.52L254.82-2.52Q254.82-1.66 254.26-1.15Q253.71-0.65 252.94-0.65L252.94-0.65Q252.18-0.65 251.64-1.15Q251.10-1.66 251.10-2.52L251.10-2.52Q251.10-3.41 251.64-3.91Q252.18-4.42 252.94-4.42L252.94-4.42Q253.71-4.42 254.26-3.91Q254.82-3.41 254.82-2.52ZM258.82 9.14L259.21 11.52Q258.30 11.95 257.49 12.11Q256.69 12.26 256.02 12.26L256.02 12.26Q254.86 12.26 254.08 11.93Q253.30 11.59 252.84 10.96Q252.37 10.32 252.18 9.41Q251.98 8.50 251.98 7.32L251.98 7.32L251.98 3.17L248.86 3.17L248.86 0.72L254.94 0.72L254.94 7.70Q254.94 8.71 255.31 9.20Q255.68 9.70 256.54 9.70L256.54 9.70Q256.95 9.70 257.53 9.59Q258.10 9.48 258.82 9.14L258.82 9.14ZM265.47 9.77L265.47 9.77Q266.55 9.77 267.13 9.61Q267.70 9.46 267.70 8.98L267.70 8.98Q267.70 8.66 267.52 8.45Q267.34 8.23 267.02 8.08Q266.70 7.92 266.28 7.78Q265.86 7.63 265.40 7.49L265.40 7.49Q264.75 7.30 264.08 7.04Q263.41 6.79 262.86 6.41Q262.30 6.02 261.94 5.44Q261.58 4.85 261.58 3.96L261.58 3.96Q261.58 3.24 261.86 2.60Q262.14 1.97 262.72 1.48Q263.31 0.98 264.22 0.71Q265.14 0.43 266.41 0.43L266.41 0.43Q267.51 0.43 268.46 0.60Q269.41 0.77 270.10 1.08L270.10 1.08L269.65 3.58Q269.24 3.46 268.38 3.18Q267.51 2.90 266.43 2.90L266.43 2.90Q265.30 2.90 264.91 3.18Q264.51 3.46 264.51 3.77L264.51 3.77Q264.51 4.03 264.69 4.24Q264.87 4.44 265.17 4.61Q265.47 4.78 265.87 4.93Q266.26 5.09 266.72 5.23L266.72 5.23Q267.37 5.45 268.06 5.71Q268.76 5.98 269.32 6.37Q269.89 6.77 270.25 7.38Q270.61 7.99 270.61 8.88L270.61 8.88Q270.61 9.58 270.34 10.20Q270.08 10.82 269.47 11.28Q268.86 11.74 267.87 12Q266.89 12.26 265.45 12.26L265.45 12.26Q263.98 12.26 262.95 11.93Q261.92 11.59 261.30 11.33L261.30 11.33L261.75 8.86Q262.59 9.19 263.54 9.48Q264.49 9.77 265.47 9.77ZM275.43 7.80L275.43 3.17L272.86 3.17L272.86 0.72L275.43 0.72L275.43-2.11L278.38-2.59L278.38 0.72L283.11 0.72L283.11 3.17L278.38 3.17L278.38 7.73Q278.38 8.35 278.50 8.74Q278.62 9.12 278.84 9.34Q279.06 9.55 279.37 9.62Q279.68 9.70 280.06 9.70L280.06 9.70Q280.47 9.70 280.82 9.67Q281.17 9.65 281.49 9.59Q281.82 9.53 282.16 9.41Q282.51 9.29 282.92 9.10L282.92 9.10L283.33 11.64Q282.51 11.98 281.56 12.12Q280.62 12.26 279.73 12.26L279.73 12.26Q278.70 12.26 277.90 12.10Q277.11 11.93 276.56 11.45Q276.01 10.97 275.72 10.09Q275.43 9.22 275.43 7.80L275.43 7.80Z"/>
    </g>
</svg>