<?xml version="1.0" encoding="UTF-8"?>
<svg height="26" width="74.4" version="1.1" xmlns="http://www.w3.org/2000/svg"><!--Created by Josélio de S. C. Júnior - 2021 - https://github.com/joseliojunior -->
    <rect
        height="24"
        width="72.4"
        rx="12"
        ry="12"
        x="1" y="1"
        fill="#60AFFE"
        stroke="#014a93"
        stroke-width="1" />
    <g transform="translate(0, 8)">
        <path fill="#014a93" d="M22.43 5.04L22.43 5.04Q22.43 5.76 22.49 6.39Q22.54 7.02 22.71 7.49Q22.88 7.95 23.18 8.22Q23.49 8.50 24 8.50L24 8.50Q24.50 8.50 24.81 8.22Q25.12 7.95 25.29 7.48Q25.46 7.01 25.51 6.38Q25.57 5.76 25.57 5.04L25.57 5.04Q25.57 4.32 25.51 3.69Q25.46 3.06 25.29 2.59Q25.12 2.13 24.82 1.86Q24.51 1.58 24 1.58L24 1.58Q23.49 1.58 23.18 1.86Q22.88 2.13 22.71 2.60Q22.54 3.07 22.49 3.70Q22.43 4.32 22.43 5.04ZM20.43 5.04L20.43 5.04Q20.43 2.48 21.38 1.18Q22.32-0.13 24-0.13L24-0.13Q25.74-0.13 26.66 1.18Q27.57 2.48 27.57 5.04L27.57 5.04Q27.57 7.60 26.64 8.90Q25.71 10.21 24.02 10.21L24.02 10.21Q22.27 10.21 21.35 8.90Q20.43 7.60 20.43 5.04ZM30.45 6.19L30.45 6.19Q30.45 7.20 30.82 7.84Q31.20 8.48 32.03 8.48L32.03 8.48Q32.27 8.48 32.48 8.46Q32.69 8.45 32.91 8.42L32.91 8.42L32.91 4.32Q32.69 4.19 32.40 4.10Q32.11 4.02 31.79 4.02L31.79 4.02Q31.09 4.02 30.77 4.58Q30.45 5.14 30.45 6.19ZM34.88-1.10L34.88 9.78Q34.34 9.95 33.55 10.06Q32.77 10.18 32.02 10.18L32.02 10.18Q30.26 10.18 29.35 9.14Q28.45 8.10 28.45 6.29L28.45 6.29Q28.45 4.45 29.21 3.38Q29.97 2.32 31.46 2.32L31.46 2.32Q31.86 2.32 32.24 2.41Q32.62 2.50 32.91 2.66L32.91 2.66L32.91-0.77L34.88-1.10ZM40.54 0.32L40.54 0.32Q40.54 0.90 40.18 1.23Q39.81 1.57 39.30 1.57L39.30 1.57Q38.78 1.57 38.42 1.23Q38.06 0.90 38.06 0.32L38.06 0.32Q38.06-0.27 38.42-0.61Q38.78-0.94 39.30-0.94L39.30-0.94Q39.81-0.94 40.18-0.61Q40.54-0.27 40.54 0.32ZM43.22 8.10L43.47 9.68Q42.86 9.97 42.33 10.07Q41.79 10.18 41.34 10.18L41.34 10.18Q40.58 10.18 40.06 9.95Q39.54 9.73 39.22 9.30Q38.91 8.88 38.78 8.27Q38.66 7.66 38.66 6.88L38.66 6.88L38.66 4.11L36.58 4.11L36.58 2.48L40.62 2.48L40.62 7.14Q40.62 7.81 40.87 8.14Q41.12 8.46 41.70 8.46L41.70 8.46Q41.97 8.46 42.35 8.39Q42.74 8.32 43.22 8.10L43.22 8.10ZM45.01 10L45.01 2.72Q45.54 2.58 46.31 2.45Q47.09 2.32 48 2.32L48 2.32Q48.90 2.32 49.49 2.57Q50.08 2.82 50.42 3.27Q50.77 3.73 50.91 4.36Q51.06 4.99 51.06 5.76L51.06 5.76L51.06 10L49.09 10L49.09 6.02Q49.09 4.96 48.85 4.50Q48.61 4.03 47.87 4.03L47.87 4.03Q47.65 4.03 47.43 4.05Q47.22 4.06 46.98 4.10L46.98 4.10L46.98 10L45.01 10Z"/>
    </g>
</svg>