<?xml version="1.0" encoding="UTF-8"?>
<svg height="26" width="58.2" version="1.1" xmlns="http://www.w3.org/2000/svg"><!--Created by Josélio de S. C. Júnior - 2021 - https://github.com/joseliojunior -->
    <rect
        height="24"
        width="56.2"
        rx="12"
        ry="12"
        x="1" y="1"
        fill="#fed659"
        stroke="#896701"
        stroke-width="1" />
    <g transform="translate(0, 8)">
        <path fill="#896701" d="M20.43 5.09L20.43 5.09Q20.43 2.53 21.38 1.22Q22.32-0.08 24-0.08L24-0.08Q25.74-0.08 26.66 1.22Q27.57 2.53 27.57 5.09L27.57 5.09Q27.57 7.33 26.85 8.62Q26.13 9.90 24.77 10.18L24.77 10.18Q24.94 10.58 25.62 10.84Q26.30 11.10 27.49 11.31L27.49 11.31L27.07 12.72Q25.20 12.46 24.25 11.86Q23.30 11.26 23.12 10.14L23.12 10.14Q21.82 9.82 21.13 8.55Q20.43 7.28 20.43 5.09ZM22.43 5.09L22.43 5.09Q22.43 5.81 22.49 6.43Q22.54 7.06 22.71 7.53Q22.88 8 23.18 8.27Q23.49 8.54 24 8.54L24 8.54Q24.50 8.54 24.81 8.27Q25.12 8 25.29 7.53Q25.46 7.06 25.51 6.43Q25.57 5.81 25.57 5.09L25.57 5.09Q25.57 4.37 25.51 3.74Q25.46 3.10 25.29 2.64Q25.12 2.18 24.82 1.90Q24.51 1.63 24 1.63L24 1.63Q23.49 1.63 23.18 1.90Q22.88 2.18 22.71 2.65Q22.54 3.12 22.49 3.74Q22.43 4.37 22.43 5.09ZM28.29 2.53L30.21 2.53L30.67 0.10L32.30 0.10L31.82 2.53L33.10 2.53L33.57 0.10L35.20 0.10L34.74 2.53L35.73 2.53L35.73 4.16L34.42 4.16L34.08 5.92L35.73 5.92L35.73 7.55L33.78 7.55L33.31 10L31.68 10L32.14 7.55L30.86 7.55L30.42 10L28.78 10L29.25 7.55L28.29 7.55L28.29 5.92L29.55 5.92L29.89 4.16L28.29 4.16L28.29 2.53ZM31.52 4.16L31.18 5.92L32.46 5.92L32.78 4.16L31.52 4.16Z"/>
    </g>
</svg>