<?xml version="1.0" encoding="UTF-8"?>
<svg height="34" width="66.2" version="1.1" xmlns="http://www.w3.org/2000/svg">
    <rect
        height="32"
        width="64.2"
        rx="16"
        ry="16"
        x="1"
        y="1"
        fill="#fed659"
        stroke="#896701"
        stroke-width="1"
         />
    <g transform="translate(0, 12)">
        <path fill="#896701" d="M20.65 4.63L20.65 4.63Q20.65 0.79 22.06-1.16Q23.48-3.12 26-3.12L26-3.12Q28.62-3.12 29.98-1.16Q31.35 0.79 31.35 4.63L31.35 4.63Q31.35 7.99 30.27 9.92Q29.19 11.86 27.15 12.26L27.15 12.26Q27.42 12.86 28.44 13.26Q29.46 13.66 31.23 13.97L31.23 13.97L30.61 16.08Q27.80 15.70 26.37 14.80Q24.94 13.90 24.68 12.22L24.68 12.22Q22.74 11.74 21.69 9.83Q20.65 7.92 20.65 4.63ZM23.65 4.63L23.65 4.63Q23.65 5.71 23.73 6.65Q23.82 7.58 24.07 8.29Q24.32 9 24.78 9.41Q25.23 9.82 26 9.82L26 9.82Q26.74 9.82 27.21 9.41Q27.68 9 27.93 8.29Q28.18 7.58 28.27 6.65Q28.35 5.71 28.35 4.63L28.35 4.63Q28.35 3.55 28.27 2.60Q28.18 1.66 27.93 0.96Q27.68 0.26 27.22-0.14Q26.77-0.55 26-0.55L26-0.55Q25.23-0.55 24.78-0.14Q24.32 0.26 24.07 0.97Q23.82 1.68 23.73 2.62Q23.65 3.55 23.65 4.63ZM32.43 0.79L35.31 0.79L36.01-2.86L38.46-2.86L37.74 0.79L39.66 0.79L40.35-2.86L42.80-2.86L42.10 0.79L43.59 0.79L43.59 3.24L41.62 3.24L41.12 5.88L43.59 5.88L43.59 8.33L40.66 8.33L39.97 12L37.52 12L38.22 8.33L36.30 8.33L35.62 12L33.18 12L33.87 8.33L32.43 8.33L32.43 5.88L34.33 5.88L34.83 3.24L32.43 3.24L32.43 0.79ZM37.28 3.24L36.78 5.88L38.70 5.88L39.18 3.24L37.28 3.24Z"/>
    </g>
</svg>