<?xml version="1.0" encoding="UTF-8"?>
<svg height="322" width="247.7" version="1.1" xmlns="http://www.w3.org/2000/svg"><!--Created by Josélio de S. C. Júnior - 2021 - https://github.com/joseliojunior -->
    <rect
        height="32"
        width="245.7"
        rx="16"
        ry="16"
        x="1" y="1"
        fill="#2A6277"
        stroke="#70b4cd"
        stroke-width="1" />
    <g transform="translate(0, 12)">
        <path fill="#70b4cd" stroke="none" d="M30.51-2.86L30.51 7.03Q30.51 8.11 30.24 9.07Q29.96 10.03 29.32 10.75Q28.69 11.47 27.68 11.89Q26.67 12.31 25.23 12.31L25.23 12.31Q23.72 12.31 22.71 11.93Q21.70 11.54 21.01 10.99L21.01 10.99L22.14 8.64Q22.74 9.02 23.47 9.38Q24.20 9.74 24.97 9.74L24.97 9.74Q26.12 9.74 26.83 9.13Q27.54 8.52 27.54 6.86L27.54 6.86L27.54-0.41L22.57-0.41L22.57-2.86L30.51-2.86ZM38.02 9.89L38.02 9.89Q38.50 9.89 38.96 9.88Q39.42 9.86 39.75 9.82L39.75 9.82L39.75 7.22Q39.46 7.18 39.06 7.14Q38.65 7.10 38.31 7.10L38.31 7.10Q37.86 7.10 37.42 7.16Q36.99 7.22 36.67 7.37Q36.34 7.51 36.15 7.78Q35.96 8.04 35.96 8.47L35.96 8.47Q35.96 9.24 36.54 9.56Q37.11 9.89 38.02 9.89ZM37.76 0.43L37.76 0.43Q39.15 0.43 40.08 0.76Q41 1.08 41.55 1.67Q42.10 2.26 42.34 3.11Q42.58 3.96 42.58 5.02L42.58 5.02L42.58 11.74Q41.94 11.88 40.66 12.07Q39.39 12.26 37.81 12.26L37.81 12.26Q36.73 12.26 35.85 12.07Q34.98 11.88 34.35 11.44Q33.73 10.99 33.39 10.28Q33.06 9.58 33.06 8.54L33.06 8.54Q33.06 7.56 33.44 6.89Q33.82 6.22 34.47 5.81Q35.12 5.40 35.96 5.22Q36.80 5.04 37.71 5.04L37.71 5.04Q38.86 5.04 39.75 5.23L39.75 5.23L39.75 4.87Q39.75 4.03 39.22 3.47Q38.70 2.90 37.40 2.90L37.40 2.90Q36.56 2.90 35.78 3.02Q35 3.14 34.52 3.31L34.52 3.31L34.11 0.94Q34.66 0.74 35.67 0.59Q36.68 0.43 37.76 0.43ZM51.13 12L48.66 12Q47.58 9.86 46.46 7.00Q45.34 4.13 44.34 0.72L44.34 0.72L47.43 0.72Q47.65 1.63 47.95 2.66Q48.25 3.70 48.58 4.74Q48.92 5.78 49.27 6.77Q49.62 7.75 49.93 8.57L49.93 8.57Q50.24 7.75 50.62 6.77Q51.01 5.78 51.38 4.74Q51.75 3.70 52.10 2.66Q52.45 1.63 52.66 0.72L52.66 0.72L55.66 0.72Q54.66 4.13 53.43 7.00Q52.21 9.86 51.13 12L51.13 12ZM62.02 9.89L62.02 9.89Q62.50 9.89 62.96 9.88Q63.42 9.86 63.75 9.82L63.75 9.82L63.75 7.22Q63.46 7.18 63.06 7.14Q62.65 7.10 62.31 7.10L62.31 7.10Q61.86 7.10 61.42 7.16Q60.99 7.22 60.67 7.37Q60.34 7.51 60.15 7.78Q59.96 8.04 59.96 8.47L59.96 8.47Q59.96 9.24 60.54 9.56Q61.11 9.89 62.02 9.89ZM61.76 0.43L61.76 0.43Q63.15 0.43 64.08 0.76Q65 1.08 65.55 1.67Q66.10 2.26 66.34 3.11Q66.58 3.96 66.58 5.02L66.58 5.02L66.58 11.74Q65.94 11.88 64.66 12.07Q63.39 12.26 61.81 12.26L61.81 12.26Q60.73 12.26 59.85 12.07Q58.98 11.88 58.35 11.44Q57.73 10.99 57.39 10.28Q57.06 9.58 57.06 8.54L57.06 8.54Q57.06 7.56 57.44 6.89Q57.82 6.22 58.47 5.81Q59.12 5.40 59.96 5.22Q60.80 5.04 61.71 5.04L61.71 5.04Q62.86 5.04 63.75 5.23L63.75 5.23L63.75 4.87Q63.75 4.03 63.22 3.47Q62.70 2.90 61.40 2.90L61.40 2.90Q60.56 2.90 59.78 3.02Q59 3.14 58.52 3.31L58.52 3.31L58.11 0.94Q58.66 0.74 59.67 0.59Q60.68 0.43 61.76 0.43ZM85.57 9.84L85.57 9.84Q86.31 9.84 86.80 9.68Q87.30 9.53 87.58 9.25Q87.87 8.98 87.98 8.63Q88.09 8.28 88.09 7.92L88.09 7.92Q88.09 7.46 87.82 7.10Q87.56 6.74 87.15 6.47Q86.74 6.19 86.24 5.96Q85.74 5.74 85.23 5.54L85.23 5.54Q84.56 5.30 83.84 4.99Q83.12 4.68 82.53 4.20Q81.94 3.72 81.56 3.01Q81.18 2.30 81.18 1.25L81.18 1.25Q81.18-0.84 82.53-2.02Q83.89-3.19 86.26-3.19L86.26-3.19Q87.63-3.19 88.65-2.88Q89.67-2.57 90.37-2.18L90.37-2.18L89.50 0.10Q88.90-0.24 88.17-0.48Q87.44-0.72 86.48-0.72L86.48-0.72Q84.13-0.72 84.13 0.98L84.13 0.98Q84.13 1.42 84.37 1.74Q84.61 2.06 84.98 2.32Q85.35 2.57 85.82 2.76Q86.29 2.95 86.74 3.12L86.74 3.12Q87.44 3.38 88.20 3.71Q88.95 4.03 89.59 4.57Q90.22 5.11 90.63 5.92Q91.04 6.72 91.04 7.94L91.04 7.94Q91.04 10.03 89.68 11.17Q88.33 12.31 85.57 12.31L85.57 12.31Q83.72 12.31 82.62 11.92Q81.51 11.52 80.96 11.18L80.96 11.18L81.82 8.78Q82.47 9.17 83.37 9.50Q84.27 9.84 85.57 9.84ZM92.74 6.46L92.74 6.46Q92.74 4.97 93.20 3.84Q93.66 2.71 94.40 1.96Q95.14 1.20 96.10 0.82Q97.06 0.43 98.07 0.43L98.07 0.43Q100.57 0.43 101.86 1.91Q103.16 3.38 103.16 6.22L103.16 6.22Q103.16 6.50 103.15 6.82Q103.14 7.13 103.11 7.32L103.11 7.32L95.79 7.32Q95.79 8.42 96.70 9.06Q97.62 9.70 99.06 9.70L99.06 9.70Q99.94 9.70 100.75 9.50Q101.55 9.31 102.10 9.12L102.10 9.12L102.51 11.64Q101.74 11.90 100.88 12.08Q100.02 12.26 98.94 12.26L98.94 12.26Q97.50 12.26 96.36 11.89Q95.22 11.52 94.41 10.79Q93.61 10.06 93.18 8.98Q92.74 7.90 92.74 6.46ZM95.79 5.28L100.30 5.28Q100.30 4.82 100.18 4.40Q100.06 3.98 99.80 3.65Q99.54 3.31 99.13 3.11Q98.72 2.90 98.12 2.90L98.12 2.90Q97.54 2.90 97.12 3.10Q96.70 3.29 96.43 3.62Q96.15 3.96 96.00 4.39Q95.84 4.82 95.79 5.28L95.79 5.28ZM115.02 0.98L114.49 3.72Q114.20 3.65 113.80 3.58Q113.41 3.50 113 3.44Q112.59 3.38 112.21 3.36Q111.82 3.34 111.56 3.34L111.56 3.34Q110.94 3.34 110.34 3.40Q109.74 3.46 109.11 3.62L109.11 3.62L109.11 12L106.14 12L106.14 1.46Q107.31 1.03 108.55 0.77Q109.78 0.50 111.44 0.50L111.44 0.50Q111.68 0.50 112.12 0.53Q112.57 0.55 113.07 0.61Q113.58 0.67 114.09 0.76Q114.61 0.84 115.02 0.98L115.02 0.98ZM123.13 12L120.66 12Q119.58 9.86 118.46 7.00Q117.34 4.13 116.34 0.72L116.34 0.72L119.43 0.72Q119.65 1.63 119.95 2.66Q120.25 3.70 120.58 4.74Q120.92 5.78 121.27 6.77Q121.62 7.75 121.93 8.57L121.93 8.57Q122.24 7.75 122.62 6.77Q123.01 5.78 123.38 4.74Q123.75 3.70 124.10 2.66Q124.45 1.63 124.66 0.72L124.66 0.72L127.66 0.72Q126.66 4.13 125.43 7.00Q124.21 9.86 123.13 12L123.13 12ZM128.74 6.46L128.74 6.46Q128.74 4.97 129.20 3.84Q129.66 2.71 130.40 1.96Q131.14 1.20 132.10 0.82Q133.06 0.43 134.07 0.43L134.07 0.43Q136.57 0.43 137.86 1.91Q139.16 3.38 139.16 6.22L139.16 6.22Q139.16 6.50 139.15 6.82Q139.14 7.13 139.11 7.32L139.11 7.32L131.79 7.32Q131.79 8.42 132.70 9.06Q133.62 9.70 135.06 9.70L135.06 9.70Q135.94 9.70 136.75 9.50Q137.55 9.31 138.10 9.12L138.10 9.12L138.51 11.64Q137.74 11.90 136.88 12.08Q136.02 12.26 134.94 12.26L134.94 12.26Q133.50 12.26 132.36 11.89Q131.22 11.52 130.41 10.79Q129.61 10.06 129.18 8.98Q128.74 7.90 128.74 6.46ZM131.79 5.28L136.30 5.28Q136.30 4.82 136.18 4.40Q136.06 3.98 135.80 3.65Q135.54 3.31 135.13 3.11Q134.72 2.90 134.12 2.90L134.12 2.90Q133.54 2.90 133.12 3.10Q132.70 3.29 132.43 3.62Q132.15 3.96 132.00 4.39Q131.84 4.82 131.79 5.28L131.79 5.28ZM151.02 0.98L150.49 3.72Q150.20 3.65 149.80 3.58Q149.41 3.50 149 3.44Q148.59 3.38 148.21 3.36Q147.82 3.34 147.56 3.34L147.56 3.34Q146.94 3.34 146.34 3.40Q145.74 3.46 145.11 3.62L145.11 3.62L145.11 12L142.14 12L142.14 1.46Q143.31 1.03 144.55 0.77Q145.78 0.50 147.44 0.50L147.44 0.50Q147.68 0.50 148.12 0.53Q148.57 0.55 149.07 0.61Q149.58 0.67 150.09 0.76Q150.61 0.84 151.02 0.98L151.02 0.98ZM169.38-3.02L169.38-3.02Q172.21-3.02 173.77-1.86Q175.33-0.70 175.33 1.94L175.33 1.94Q175.33 4.61 173.76 5.80Q172.18 6.98 169.30 6.98L169.30 6.98L168.25 6.98L168.25 12L165.30 12L165.30-2.66Q165.73-2.76 166.27-2.83Q166.81-2.90 167.36-2.94Q167.91-2.98 168.44-3Q168.97-3.02 169.38-3.02ZM169.71-0.46L169.71-0.46Q169.45-0.46 168.98-0.44Q168.51-0.43 168.25-0.38L168.25-0.38L168.25 4.42L169.45 4.42Q170.86 4.42 171.58 3.85Q172.30 3.29 172.30 1.92L172.30 1.92Q172.30 0.62 171.60 0.08Q170.89-0.46 169.71-0.46ZM182.02 9.89L182.02 9.89Q182.50 9.89 182.96 9.88Q183.42 9.86 183.75 9.82L183.75 9.82L183.75 7.22Q183.46 7.18 183.06 7.14Q182.65 7.10 182.31 7.10L182.31 7.10Q181.86 7.10 181.42 7.16Q180.99 7.22 180.67 7.37Q180.34 7.51 180.15 7.78Q179.96 8.04 179.96 8.47L179.96 8.47Q179.96 9.24 180.54 9.56Q181.11 9.89 182.02 9.89ZM181.76 0.43L181.76 0.43Q183.15 0.43 184.08 0.76Q185 1.08 185.55 1.67Q186.10 2.26 186.34 3.11Q186.58 3.96 186.58 5.02L186.58 5.02L186.58 11.74Q185.94 11.88 184.66 12.07Q183.39 12.26 181.81 12.26L181.81 12.26Q180.73 12.26 179.85 12.07Q178.98 11.88 178.35 11.44Q177.73 10.99 177.39 10.28Q177.06 9.58 177.06 8.54L177.06 8.54Q177.06 7.56 177.44 6.89Q177.82 6.22 178.47 5.81Q179.12 5.40 179.96 5.22Q180.80 5.04 181.71 5.04L181.71 5.04Q182.86 5.04 183.75 5.23L183.75 5.23L183.75 4.87Q183.75 4.03 183.22 3.47Q182.70 2.90 181.40 2.90L181.40 2.90Q180.56 2.90 179.78 3.02Q179 3.14 178.52 3.31L178.52 3.31L178.11 0.94Q178.66 0.74 179.67 0.59Q180.68 0.43 181.76 0.43ZM191.79 6L191.79 6Q191.79 7.39 192.30 8.12Q192.80 8.86 193.88 8.86L193.88 8.86Q194.36 8.86 194.78 8.74Q195.20 8.62 195.54 8.42L195.54 8.42L195.54 3Q195.20 2.93 194.94 2.90Q194.67 2.88 194.38 2.88L194.38 2.88Q191.79 2.88 191.79 6ZM198.51 1.08L198.51 10.63Q198.51 13.39 197.18 14.71Q195.85 16.03 192.90 16.03L192.90 16.03Q191.84 16.03 190.87 15.82Q189.90 15.60 189.01 15.31L189.01 15.31L189.56 12.82Q190.26 13.08 191.02 13.31Q191.79 13.54 192.94 13.54L192.94 13.54Q193.71 13.54 194.22 13.36Q194.72 13.18 195.01 12.86Q195.30 12.55 195.42 12.13Q195.54 11.71 195.54 11.23L195.54 11.23L195.54 10.78Q194.91 11.02 194.40 11.14Q193.88 11.26 193.28 11.26L193.28 11.26Q191.07 11.26 189.93 9.86Q188.79 8.47 188.79 6L188.79 6Q188.79 3.22 190.33 1.85Q191.86 0.48 194.50 0.48L194.50 0.48Q196.35 0.48 198.51 1.08L198.51 1.08ZM200.74 6.46L200.74 6.46Q200.74 4.97 201.20 3.84Q201.66 2.71 202.40 1.96Q203.14 1.20 204.10 0.82Q205.06 0.43 206.07 0.43L206.07 0.43Q208.57 0.43 209.86 1.91Q211.16 3.38 211.16 6.22L211.16 6.22Q211.16 6.50 211.15 6.82Q211.14 7.13 211.11 7.32L211.11 7.32L203.79 7.32Q203.79 8.42 204.70 9.06Q205.62 9.70 207.06 9.70L207.06 9.70Q207.94 9.70 208.75 9.50Q209.55 9.31 210.10 9.12L210.10 9.12L210.51 11.64Q209.74 11.90 208.88 12.08Q208.02 12.26 206.94 12.26L206.94 12.26Q205.50 12.26 204.36 11.89Q203.22 11.52 202.41 10.79Q201.61 10.06 201.18 8.98Q200.74 7.90 200.74 6.46ZM203.79 5.28L208.30 5.28Q208.30 4.82 208.18 4.40Q208.06 3.98 207.80 3.65Q207.54 3.31 207.13 3.11Q206.72 2.90 206.12 2.90L206.12 2.90Q205.54 2.90 205.12 3.10Q204.70 3.29 204.43 3.62Q204.15 3.96 204.00 4.39Q203.84 4.82 203.79 5.28L203.79 5.28ZM217.47 9.77L217.47 9.77Q218.55 9.77 219.13 9.61Q219.70 9.46 219.70 8.98L219.70 8.98Q219.70 8.66 219.52 8.45Q219.34 8.23 219.02 8.08Q218.70 7.92 218.28 7.78Q217.86 7.63 217.40 7.49L217.40 7.49Q216.75 7.30 216.08 7.04Q215.41 6.79 214.86 6.41Q214.30 6.02 213.94 5.44Q213.58 4.85 213.58 3.96L213.58 3.96Q213.58 3.24 213.86 2.60Q214.14 1.97 214.72 1.48Q215.31 0.98 216.22 0.71Q217.14 0.43 218.41 0.43L218.41 0.43Q219.51 0.43 220.46 0.60Q221.41 0.77 222.10 1.08L222.10 1.08L221.65 3.58Q221.24 3.46 220.38 3.18Q219.51 2.90 218.43 2.90L218.43 2.90Q217.30 2.90 216.91 3.18Q216.51 3.46 216.51 3.77L216.51 3.77Q216.51 4.03 216.69 4.24Q216.87 4.44 217.17 4.61Q217.47 4.78 217.87 4.93Q218.26 5.09 218.72 5.23L218.72 5.23Q219.37 5.45 220.06 5.71Q220.76 5.98 221.32 6.37Q221.89 6.77 222.25 7.38Q222.61 7.99 222.61 8.88L222.61 8.88Q222.61 9.58 222.34 10.20Q222.08 10.82 221.47 11.28Q220.86 11.74 219.87 12Q218.89 12.26 217.45 12.26L217.45 12.26Q215.98 12.26 214.95 11.93Q213.92 11.59 213.30 11.33L213.30 11.33L213.75 8.86Q214.59 9.19 215.54 9.48Q216.49 9.77 217.47 9.77Z"/>
    </g>
</svg>