<?xml version="1.0" encoding="UTF-8"?>
<svg height="34" width="66.2" version="1.1" xmlns="http://www.w3.org/2000/svg"><!--Created by Josélio de S. C. Júnior - 2021 - https://github.com/joseliojunior -->
    <rect
        height="32"
        width="64.2"
        rx="16"
        ry="16"
        x="1" y="1"
        fill="#a78649"
        stroke="#3c301a"
        stroke-width="1" />
    <g transform="translate(0, 12)">
        <path fill="#3c301a" stroke="none" d="M31.04 12L21.51 12L21.51-2.86L30.51-2.86L30.51-0.41L24.46-0.41L24.46 2.93L29.72 2.93L29.72 5.38L24.46 5.38L24.46 9.55L31.04 9.55L31.04 12ZM32.65 4.63L32.65 4.63Q32.65 0.79 34.06-1.16Q35.48-3.12 38-3.12L38-3.12Q40.62-3.12 41.98-1.16Q43.35 0.79 43.35 4.63L43.35 4.63Q43.35 7.99 42.27 9.92Q41.19 11.86 39.15 12.26L39.15 12.26Q39.42 12.86 40.44 13.26Q41.46 13.66 43.23 13.97L43.23 13.97L42.61 16.08Q39.80 15.70 38.37 14.80Q36.94 13.90 36.68 12.22L36.68 12.22Q34.74 11.74 33.69 9.83Q32.65 7.92 32.65 4.63ZM35.65 4.63L35.65 4.63Q35.65 5.71 35.73 6.65Q35.82 7.58 36.07 8.29Q36.32 9 36.78 9.41Q37.23 9.82 38 9.82L38 9.82Q38.74 9.82 39.21 9.41Q39.68 9 39.93 8.29Q40.18 7.58 40.27 6.65Q40.35 5.71 40.35 4.63L40.35 4.63Q40.35 3.55 40.27 2.60Q40.18 1.66 39.93 0.96Q39.68 0.26 39.22-0.14Q38.77-0.55 38-0.55L38-0.55Q37.23-0.55 36.78-0.14Q36.32 0.26 36.07 0.97Q35.82 1.68 35.73 2.62Q35.65 3.55 35.65 4.63Z"/>
    </g>
</svg>