<?xml version="1.0" encoding="UTF-8"?><svg height="26" width="58.2" version="1.1" xmlns="http://www.w3.org/2000/svg"><!--Created by Josélio de S. C. Júnior - 2021 - https://github.com/joseliojunior --><rect height="24" width="56.2" rx="12" ry="12" x="1" y="1" fill="#a78649" stroke="#3c301a" stroke-width="1" /><g transform="translate(0, 8)"><path fill="#3c301a" d="M27.36 10L21.01 10L21.01 0.10L27.01 0.10L27.01 1.73L22.98 1.73L22.98 3.95L26.48 3.95L26.48 5.58L22.98 5.58L22.98 8.37L27.36 8.37L27.36 10ZM28.43 5.09L28.43 5.09Q28.43 2.53 29.38 1.22Q30.32-0.08 32-0.08L32-0.08Q33.74-0.08 34.66 1.22Q35.57 2.53 35.57 5.09L35.57 5.09Q35.57 7.33 34.85 8.62Q34.13 9.90 32.77 10.18L32.77 10.18Q32.94 10.58 33.62 10.84Q34.30 11.10 35.49 11.31L35.49 11.31L35.07 12.72Q33.20 12.46 32.25 11.86Q31.30 11.26 31.12 10.14L31.12 10.14Q29.82 9.82 29.13 8.55Q28.43 7.28 28.43 5.09ZM30.43 5.09L30.43 5.09Q30.43 5.81 30.49 6.43Q30.54 7.06 30.71 7.53Q30.88 8 31.18 8.27Q31.49 8.54 32 8.54L32 8.54Q32.50 8.54 32.81 8.27Q33.12 8 33.29 7.53Q33.46 7.06 33.51 6.43Q33.57 5.81 33.57 5.09L33.57 5.09Q33.57 4.37 33.51 3.74Q33.46 3.10 33.29 2.64Q33.12 2.18 32.82 1.90Q32.51 1.63 32 1.63L32 1.63Q31.49 1.63 31.18 1.90Q30.88 2.18 30.71 2.65Q30.54 3.12 30.49 3.74Q30.43 4.37 30.43 5.09Z"/></g></svg>