<?xml version="1.0" encoding="UTF-8"?>
<svg height="34" width="247.7" version="1.1" xmlns="http://www.w3.org/2000/svg"><!--Created by Josélio de S. C. Júnior - 2021 - https://github.com/joseliojunior -->
    <rect
        height="32"
        width="245.7"
        rx="16"
        ry="16"
        x="1" y="1"
        fill="#0060ac"
        stroke="#47acff"
        stroke-width="1" />
    <g transform="translate(0, 12)">
        <path fill="#47acff" stroke="none" d="M31.74 12L28.54 12Q28.09 10.78 27.43 9.29Q26.77 7.80 26.05 6.31L26.05 6.31Q25.35 7.73 24.66 9.25Q23.96 10.78 23.46 12L23.46 12L20.26 12Q20.50 11.35 20.97 10.44Q21.44 9.53 22.00 8.47Q22.57 7.42 23.19 6.30Q23.82 5.18 24.39 4.15L24.39 4.15L20.50-2.86L23.70-2.86L26.05 1.90L28.52-2.86L31.50-2.86L27.70 4.08Q28.35 5.11 28.98 6.24Q29.60 7.37 30.14 8.44Q30.68 9.50 31.09 10.43Q31.50 11.35 31.74 12L31.74 12ZM33.42-2.86L35.86-2.86Q36.03-2.35 36.28-1.56Q36.54-0.77 36.82 0.14Q37.11 1.06 37.40 1.99Q37.69 2.93 37.95 3.72L37.95 3.72Q38.24 2.83 38.55 1.88Q38.86 0.94 39.15 0.06Q39.44-0.82 39.68-1.58Q39.92-2.35 40.11-2.86L40.11-2.86L42.56-2.86Q42.73-0.91 42.88 0.94Q43.04 2.78 43.15 4.60Q43.26 6.41 43.33 8.24Q43.40 10.08 43.45 12L43.45 12L40.74 12L40.88 0.46L39.06 6.74L36.90 6.74L35.14 0.46L35.26 12L32.55 12Q32.62 10.18 32.71 8.21Q32.79 6.24 32.89 4.30Q32.98 2.35 33.12 0.53Q33.25-1.30 33.42-2.86L33.42-2.86ZM55.04 9.55L55.04 12L45.70 12L45.70-2.86L48.68-2.86L48.68 9.55L55.04 9.55ZM73.38-3.02L73.38-3.02Q76.21-3.02 77.77-1.86Q79.33-0.70 79.33 1.94L79.33 1.94Q79.33 4.61 77.76 5.80Q76.18 6.98 73.30 6.98L73.30 6.98L72.25 6.98L72.25 12L69.30 12L69.30-2.66Q69.73-2.76 70.27-2.83Q70.81-2.90 71.36-2.94Q71.91-2.98 72.44-3Q72.97-3.02 73.38-3.02ZM73.71-0.46L73.71-0.46Q73.45-0.46 72.98-0.44Q72.51-0.43 72.25-0.38L72.25-0.38L72.25 4.42L73.45 4.42Q74.86 4.42 75.58 3.85Q76.30 3.29 76.30 1.92L76.30 1.92Q76.30 0.62 75.60 0.08Q74.89-0.46 73.71-0.46ZM91.02 0.98L90.49 3.72Q90.20 3.65 89.80 3.58Q89.41 3.50 89 3.44Q88.59 3.38 88.21 3.36Q87.82 3.34 87.56 3.34L87.56 3.34Q86.94 3.34 86.34 3.40Q85.74 3.46 85.11 3.62L85.11 3.62L85.11 12L82.14 12L82.14 1.46Q83.31 1.03 84.55 0.77Q85.78 0.50 87.44 0.50L87.44 0.50Q87.68 0.50 88.12 0.53Q88.57 0.55 89.07 0.61Q89.58 0.67 90.09 0.76Q90.61 0.84 91.02 0.98L91.02 0.98ZM103.33 6.34L103.33 6.34Q103.33 7.68 102.94 8.77Q102.56 9.86 101.86 10.66Q101.17 11.45 100.20 11.88Q99.22 12.31 98.02 12.31L98.02 12.31Q96.82 12.31 95.85 11.88Q94.88 11.45 94.17 10.66Q93.46 9.86 93.08 8.77Q92.70 7.68 92.70 6.34L92.70 6.34Q92.70 5.02 93.09 3.92Q93.49 2.83 94.20 2.05Q94.90 1.27 95.89 0.85Q96.87 0.43 98.02 0.43L98.02 0.43Q99.20 0.43 100.17 0.85Q101.14 1.27 101.85 2.05Q102.56 2.83 102.94 3.92Q103.33 5.02 103.33 6.34ZM95.70 6.36L95.70 6.36Q95.70 7.87 96.24 8.81Q96.78 9.74 97.98 9.74L97.98 9.74Q99.13 9.74 99.72 8.81Q100.30 7.87 100.30 6.36L100.30 6.36Q100.30 4.85 99.76 3.92Q99.22 3 98.02 3L98.02 3Q96.87 3 96.28 3.92Q95.70 4.85 95.70 6.36ZM112.26 6.46L112.26 6.46Q112.26 4.94 111.66 3.97Q111.06 3 109.83 3L109.83 3Q109.50 3 109.11 3.04Q108.73 3.07 108.46 3.10L108.46 3.10L108.46 9.29Q108.75 9.48 109.23 9.60Q109.71 9.72 110.19 9.72L110.19 9.72Q111.25 9.72 111.75 8.87Q112.26 8.02 112.26 6.46ZM115.26 6.36L115.26 6.36Q115.26 7.66 114.97 8.75Q114.68 9.84 114.13 10.62Q113.58 11.40 112.74 11.83Q111.90 12.26 110.79 12.26L110.79 12.26Q109.66 12.26 108.46 11.71L108.46 11.71L108.46 15.96L105.51 15.96L105.51 1.08Q106.33 0.82 107.52 0.65Q108.70 0.48 109.86 0.48L109.86 0.48Q112.47 0.48 113.86 2.06Q115.26 3.65 115.26 6.36ZM116.74 6.46L116.74 6.46Q116.74 4.97 117.20 3.84Q117.66 2.71 118.40 1.96Q119.14 1.20 120.10 0.82Q121.06 0.43 122.07 0.43L122.07 0.43Q124.57 0.43 125.86 1.91Q127.16 3.38 127.16 6.22L127.16 6.22Q127.16 6.50 127.15 6.82Q127.14 7.13 127.11 7.32L127.11 7.32L119.79 7.32Q119.79 8.42 120.70 9.06Q121.62 9.70 123.06 9.70L123.06 9.70Q123.94 9.70 124.75 9.50Q125.55 9.31 126.10 9.12L126.10 9.12L126.51 11.64Q125.74 11.90 124.88 12.08Q124.02 12.26 122.94 12.26L122.94 12.26Q121.50 12.26 120.36 11.89Q119.22 11.52 118.41 10.79Q117.61 10.06 117.18 8.98Q116.74 7.90 116.74 6.46ZM119.79 5.28L124.30 5.28Q124.30 4.82 124.18 4.40Q124.06 3.98 123.80 3.65Q123.54 3.31 123.13 3.11Q122.72 2.90 122.12 2.90L122.12 2.90Q121.54 2.90 121.12 3.10Q120.70 3.29 120.43 3.62Q120.15 3.96 120.00 4.39Q119.84 4.82 119.79 5.28L119.79 5.28ZM139.02 0.98L138.49 3.72Q138.20 3.65 137.80 3.58Q137.41 3.50 137 3.44Q136.59 3.38 136.21 3.36Q135.82 3.34 135.56 3.34L135.56 3.34Q134.94 3.34 134.34 3.40Q133.74 3.46 133.11 3.62L133.11 3.62L133.11 12L130.14 12L130.14 1.46Q131.31 1.03 132.55 0.77Q133.78 0.50 135.44 0.50L135.44 0.50Q135.68 0.50 136.12 0.53Q136.57 0.55 137.07 0.61Q137.58 0.67 138.09 0.76Q138.61 0.84 139.02 0.98L139.02 0.98ZM143.43 7.80L143.43 3.17L140.86 3.17L140.86 0.72L143.43 0.72L143.43-2.11L146.38-2.59L146.38 0.72L151.11 0.72L151.11 3.17L146.38 3.17L146.38 7.73Q146.38 8.35 146.50 8.74Q146.62 9.12 146.84 9.34Q147.06 9.55 147.37 9.62Q147.68 9.70 148.06 9.70L148.06 9.70Q148.47 9.70 148.82 9.67Q149.17 9.65 149.49 9.59Q149.82 9.53 150.16 9.41Q150.51 9.29 150.92 9.10L150.92 9.10L151.33 11.64Q150.51 11.98 149.56 12.12Q148.62 12.26 147.73 12.26L147.73 12.26Q146.70 12.26 145.90 12.10Q145.11 11.93 144.56 11.45Q144.01 10.97 143.72 10.09Q143.43 9.22 143.43 7.80L143.43 7.80ZM160.30 0.72L163.33 0.72Q162.87 2.30 162.45 3.83Q162.03 5.35 161.58 6.80Q161.12 8.26 160.60 9.65Q160.09 11.04 159.49 12.36L159.49 12.36Q159.03 13.32 158.59 14.02Q158.14 14.71 157.60 15.16Q157.06 15.60 156.40 15.82Q155.74 16.03 154.86 16.03L154.86 16.03Q154.11 16.03 153.50 15.91Q152.89 15.79 152.48 15.60L152.48 15.60L153.03 13.13Q153.51 13.34 153.88 13.43Q154.26 13.51 154.69 13.51L154.69 13.51Q155.55 13.51 156.08 12.94Q156.61 12.36 156.92 11.57L156.92 11.57Q155.86 9.46 154.81 6.73Q153.75 4.01 152.89 0.72L152.89 0.72L155.96 0.72Q156.18 1.61 156.45 2.62Q156.73 3.62 157.04 4.63Q157.35 5.64 157.70 6.61Q158.05 7.58 158.41 8.42L158.41 8.42Q158.65 7.58 158.91 6.61Q159.18 5.64 159.42 4.64Q159.66 3.65 159.88 2.64Q160.11 1.63 160.30 0.72L160.30 0.72ZM187.04 9.55L187.04 12L177.70 12L177.70-2.86L180.68-2.86L180.68 9.55L187.04 9.55ZM194.82-2.52L194.82-2.52Q194.82-1.66 194.26-1.15Q193.71-0.65 192.94-0.65L192.94-0.65Q192.18-0.65 191.64-1.15Q191.10-1.66 191.10-2.52L191.10-2.52Q191.10-3.41 191.64-3.91Q192.18-4.42 192.94-4.42L192.94-4.42Q193.71-4.42 194.26-3.91Q194.82-3.41 194.82-2.52ZM198.82 9.14L199.21 11.52Q198.30 11.95 197.49 12.11Q196.69 12.26 196.02 12.26L196.02 12.26Q194.86 12.26 194.08 11.93Q193.30 11.59 192.84 10.96Q192.37 10.32 192.18 9.41Q191.98 8.50 191.98 7.32L191.98 7.32L191.98 3.17L188.86 3.17L188.86 0.72L194.94 0.72L194.94 7.70Q194.94 8.71 195.31 9.20Q195.68 9.70 196.54 9.70L196.54 9.70Q196.95 9.70 197.53 9.59Q198.10 9.48 198.82 9.14L198.82 9.14ZM205.47 9.77L205.47 9.77Q206.55 9.77 207.13 9.61Q207.70 9.46 207.70 8.98L207.70 8.98Q207.70 8.66 207.52 8.45Q207.34 8.23 207.02 8.08Q206.70 7.92 206.28 7.78Q205.86 7.63 205.40 7.49L205.40 7.49Q204.75 7.30 204.08 7.04Q203.41 6.79 202.86 6.41Q202.30 6.02 201.94 5.44Q201.58 4.85 201.58 3.96L201.58 3.96Q201.58 3.24 201.86 2.60Q202.14 1.97 202.72 1.48Q203.31 0.98 204.22 0.71Q205.14 0.43 206.41 0.43L206.41 0.43Q207.51 0.43 208.46 0.60Q209.41 0.77 210.10 1.08L210.10 1.08L209.65 3.58Q209.24 3.46 208.38 3.18Q207.51 2.90 206.43 2.90L206.43 2.90Q205.30 2.90 204.91 3.18Q204.51 3.46 204.51 3.77L204.51 3.77Q204.51 4.03 204.69 4.24Q204.87 4.44 205.17 4.61Q205.47 4.78 205.87 4.93Q206.26 5.09 206.72 5.23L206.72 5.23Q207.37 5.45 208.06 5.71Q208.76 5.98 209.32 6.37Q209.89 6.77 210.25 7.38Q210.61 7.99 210.61 8.88L210.61 8.88Q210.61 9.58 210.34 10.20Q210.08 10.82 209.47 11.28Q208.86 11.74 207.87 12Q206.89 12.26 205.45 12.26L205.45 12.26Q203.98 12.26 202.95 11.93Q201.92 11.59 201.30 11.33L201.30 11.33L201.75 8.86Q202.59 9.19 203.54 9.48Q204.49 9.77 205.47 9.77ZM215.43 7.80L215.43 3.17L212.86 3.17L212.86 0.72L215.43 0.72L215.43-2.11L218.38-2.59L218.38 0.72L223.11 0.72L223.11 3.17L218.38 3.17L218.38 7.73Q218.38 8.35 218.50 8.74Q218.62 9.12 218.84 9.34Q219.06 9.55 219.37 9.62Q219.68 9.70 220.06 9.70L220.06 9.70Q220.47 9.70 220.82 9.67Q221.17 9.65 221.49 9.59Q221.82 9.53 222.16 9.41Q222.51 9.29 222.92 9.10L222.92 9.10L223.33 11.64Q222.51 11.98 221.56 12.12Q220.62 12.26 219.73 12.26L219.73 12.26Q218.70 12.26 217.90 12.10Q217.11 11.93 216.56 11.45Q216.01 10.97 215.72 10.09Q215.43 9.22 215.43 7.80L215.43 7.80Z"/>
    </g>
</svg>