<?xml version="1.0" encoding="UTF-8"?>
<svg height="26" width="179.7" version="1.1" xmlns="http://www.w3.org/2000/svg"><!--Created by Josélio de S. C. Júnior - 2021 - https://github.com/joseliojunior -->
    <rect
        height="24"
        width="177.7"
        rx="12"
        ry="12"
        x="1" y="1"
        fill="#0060ac"
        stroke="#47acff"
        stroke-width="1" />
    <g transform="translate(0, 8)">
        <path fill="#47acff" d="M27.82 10L25.70 10Q25.39 9.18 24.95 8.19Q24.51 7.20 24.03 6.21L24.03 6.21Q23.57 7.15 23.10 8.17Q22.64 9.18 22.30 10L22.30 10L20.18 10Q20.34 9.57 20.65 8.96Q20.96 8.35 21.34 7.65Q21.71 6.94 22.13 6.20Q22.54 5.46 22.93 4.77L22.93 4.77L20.34 0.10L22.46 0.10L24.03 3.26L25.68 0.10L27.66 0.10L25.14 4.72Q25.57 5.41 25.98 6.16Q26.40 6.91 26.76 7.62Q27.12 8.34 27.39 8.95Q27.66 9.57 27.82 10L27.82 10ZM28.94 0.10L30.58 0.10Q30.69 0.43 30.86 0.96Q31.02 1.49 31.22 2.10Q31.41 2.70 31.60 3.33Q31.79 3.95 31.97 4.48L31.97 4.48Q32.16 3.89 32.37 3.26Q32.58 2.62 32.77 2.04Q32.96 1.46 33.12 0.94Q33.28 0.43 33.41 0.10L33.41 0.10L35.04 0.10Q35.15 1.39 35.26 2.62Q35.36 3.86 35.43 5.06Q35.50 6.27 35.55 7.50Q35.60 8.72 35.63 10L35.63 10L33.82 10L33.92 2.30L32.70 6.50L31.26 6.50L30.10 2.30L30.18 10L28.37 10Q28.42 8.78 28.47 7.47Q28.53 6.16 28.59 4.86Q28.66 3.57 28.74 2.35Q28.83 1.14 28.94 0.10L28.94 0.10ZM43.36 8.37L43.36 10L37.14 10L37.14 0.10L39.12 0.10L39.12 8.37L43.36 8.37ZM55.58-0.02L55.58-0.02Q57.47-0.02 58.51 0.76Q59.55 1.54 59.55 3.30L59.55 3.30Q59.55 5.07 58.50 5.86Q57.46 6.66 55.54 6.66L55.54 6.66L54.83 6.66L54.83 10L52.86 10L52.86 0.22Q53.15 0.16 53.51 0.11Q53.87 0.06 54.24 0.04Q54.61 0.02 54.96 0Q55.31-0.02 55.58-0.02ZM55.81 1.70L55.81 1.70Q55.63 1.70 55.32 1.70Q55.01 1.71 54.83 1.74L54.83 1.74L54.83 4.94L55.63 4.94Q56.58 4.94 57.06 4.57Q57.54 4.19 57.54 3.28L57.54 3.28Q57.54 2.42 57.06 2.06Q56.59 1.70 55.81 1.70ZM67.34 2.66L66.99 4.48Q66.80 4.43 66.54 4.38Q66.27 4.34 66 4.30Q65.73 4.26 65.47 4.24Q65.22 4.22 65.04 4.22L65.04 4.22Q64.62 4.22 64.22 4.26Q63.82 4.30 63.41 4.42L63.41 4.42L63.41 10L61.42 10L61.42 2.98Q62.21 2.69 63.03 2.51Q63.86 2.34 64.96 2.34L64.96 2.34Q65.12 2.34 65.42 2.35Q65.71 2.37 66.05 2.41Q66.38 2.45 66.73 2.50Q67.07 2.56 67.34 2.66L67.34 2.66ZM75.55 6.22L75.55 6.22Q75.55 7.12 75.30 7.85Q75.04 8.58 74.58 9.10Q74.11 9.63 73.46 9.92Q72.82 10.21 72.02 10.21L72.02 10.21Q71.22 10.21 70.57 9.92Q69.92 9.63 69.45 9.10Q68.98 8.58 68.72 7.85Q68.46 7.12 68.46 6.22L68.46 6.22Q68.46 5.34 68.73 4.62Q68.99 3.89 69.46 3.37Q69.94 2.85 70.59 2.57Q71.25 2.29 72.02 2.29L72.02 2.29Q72.80 2.29 73.45 2.57Q74.10 2.85 74.57 3.37Q75.04 3.89 75.30 4.62Q75.55 5.34 75.55 6.22ZM70.46 6.24L70.46 6.24Q70.46 7.25 70.82 7.87Q71.18 8.50 71.98 8.50L71.98 8.50Q72.75 8.50 73.14 7.87Q73.54 7.25 73.54 6.24L73.54 6.24Q73.54 5.23 73.18 4.62Q72.82 4 72.02 4L72.02 4Q71.25 4 70.86 4.62Q70.46 5.23 70.46 6.24ZM81.50 6.30L81.50 6.30Q81.50 5.30 81.10 4.65Q80.70 4 79.89 4L79.89 4Q79.66 4 79.41 4.02Q79.15 4.05 78.98 4.06L78.98 4.06L78.98 8.19Q79.17 8.32 79.49 8.40Q79.81 8.48 80.13 8.48L80.13 8.48Q80.83 8.48 81.17 7.91Q81.50 7.34 81.50 6.30ZM83.50 6.24L83.50 6.24Q83.50 7.10 83.31 7.83Q83.12 8.56 82.75 9.08Q82.38 9.60 81.82 9.89Q81.26 10.18 80.53 10.18L80.53 10.18Q79.78 10.18 78.98 9.81L78.98 9.81L78.98 12.64L77.01 12.64L77.01 2.72Q77.55 2.54 78.34 2.43Q79.14 2.32 79.90 2.32L79.90 2.32Q81.65 2.32 82.58 3.38Q83.50 4.43 83.50 6.24ZM84.50 6.30L84.50 6.30Q84.50 5.31 84.80 4.56Q85.10 3.81 85.60 3.30Q86.10 2.80 86.74 2.54Q87.38 2.29 88.05 2.29L88.05 2.29Q89.71 2.29 90.58 3.27Q91.44 4.26 91.44 6.14L91.44 6.14Q91.44 6.34 91.43 6.54Q91.42 6.75 91.41 6.88L91.41 6.88L86.53 6.88Q86.53 7.62 87.14 8.04Q87.74 8.46 88.70 8.46L88.70 8.46Q89.30 8.46 89.83 8.34Q90.37 8.21 90.74 8.08L90.74 8.08L91.01 9.76Q90.50 9.94 89.92 10.06Q89.34 10.18 88.62 10.18L88.62 10.18Q87.66 10.18 86.90 9.93Q86.14 9.68 85.61 9.19Q85.07 8.70 84.78 7.98Q84.50 7.26 84.50 6.30ZM86.53 5.52L89.54 5.52Q89.54 5.22 89.46 4.94Q89.38 4.66 89.20 4.43Q89.02 4.21 88.75 4.07Q88.48 3.94 88.08 3.94L88.08 3.94Q87.70 3.94 87.42 4.06Q87.14 4.19 86.95 4.42Q86.77 4.64 86.66 4.93Q86.56 5.22 86.53 5.52L86.53 5.52ZM99.34 2.66L98.99 4.48Q98.80 4.43 98.54 4.38Q98.27 4.34 98 4.30Q97.73 4.26 97.47 4.24Q97.22 4.22 97.04 4.22L97.04 4.22Q96.62 4.22 96.22 4.26Q95.82 4.30 95.41 4.42L95.41 4.42L95.41 10L93.42 10L93.42 2.98Q94.21 2.69 95.03 2.51Q95.86 2.34 96.96 2.34L96.96 2.34Q97.12 2.34 97.42 2.35Q97.71 2.37 98.05 2.41Q98.38 2.45 98.73 2.50Q99.07 2.56 99.34 2.66L99.34 2.66ZM102.29 7.20L102.29 4.11L100.58 4.11L100.58 2.48L102.29 2.48L102.29 0.59L104.26 0.27L104.26 2.48L107.41 2.48L107.41 4.11L104.26 4.11L104.26 7.15Q104.26 7.57 104.34 7.82Q104.42 8.08 104.56 8.22Q104.70 8.37 104.91 8.42Q105.12 8.46 105.38 8.46L105.38 8.46Q105.65 8.46 105.88 8.45Q106.11 8.43 106.33 8.39Q106.54 8.35 106.78 8.27Q107.01 8.19 107.28 8.06L107.28 8.06L107.55 9.76Q107.01 9.98 106.38 10.08Q105.74 10.18 105.15 10.18L105.15 10.18Q104.46 10.18 103.94 10.06Q103.41 9.95 103.04 9.63Q102.67 9.31 102.48 8.73Q102.29 8.14 102.29 7.20L102.29 7.20ZM113.54 2.48L115.55 2.48Q115.25 3.54 114.97 4.55Q114.69 5.57 114.38 6.54Q114.08 7.50 113.74 8.43Q113.39 9.36 112.99 10.24L112.99 10.24Q112.69 10.88 112.39 11.34Q112.10 11.81 111.74 12.10Q111.38 12.40 110.94 12.54Q110.50 12.69 109.90 12.69L109.90 12.69Q109.41 12.69 109 12.61Q108.59 12.53 108.32 12.40L108.32 12.40L108.69 10.75Q109.01 10.90 109.26 10.95Q109.50 11.01 109.79 11.01L109.79 11.01Q110.37 11.01 110.72 10.62Q111.07 10.24 111.28 9.71L111.28 9.71Q110.58 8.30 109.87 6.49Q109.17 4.67 108.59 2.48L108.59 2.48L110.64 2.48Q110.78 3.07 110.97 3.74Q111.15 4.42 111.36 5.09Q111.57 5.76 111.80 6.41Q112.03 7.06 112.27 7.62L112.27 7.62Q112.43 7.06 112.61 6.41Q112.78 5.76 112.94 5.10Q113.10 4.43 113.26 3.76Q113.41 3.09 113.54 2.48L113.54 2.48ZM131.36 8.37L131.36 10L125.14 10L125.14 0.10L127.12 0.10L127.12 8.37L131.36 8.37ZM136.54 0.32L136.54 0.32Q136.54 0.90 136.18 1.23Q135.81 1.57 135.30 1.57L135.30 1.57Q134.78 1.57 134.42 1.23Q134.06 0.90 134.06 0.32L134.06 0.32Q134.06-0.27 134.42-0.61Q134.78-0.94 135.30-0.94L135.30-0.94Q135.81-0.94 136.18-0.61Q136.54-0.27 136.54 0.32ZM139.22 8.10L139.47 9.68Q138.86 9.97 138.33 10.07Q137.79 10.18 137.34 10.18L137.34 10.18Q136.58 10.18 136.06 9.95Q135.54 9.73 135.22 9.30Q134.91 8.88 134.78 8.27Q134.66 7.66 134.66 6.88L134.66 6.88L134.66 4.11L132.58 4.11L132.58 2.48L136.62 2.48L136.62 7.14Q136.62 7.81 136.87 8.14Q137.12 8.46 137.70 8.46L137.70 8.46Q137.97 8.46 138.35 8.39Q138.74 8.32 139.22 8.10L139.22 8.10ZM143.65 8.51L143.65 8.51Q144.37 8.51 144.75 8.41Q145.14 8.30 145.14 7.98L145.14 7.98Q145.14 7.78 145.02 7.63Q144.90 7.49 144.68 7.38Q144.46 7.28 144.18 7.18Q143.90 7.09 143.60 6.99L143.60 6.99Q143.17 6.86 142.72 6.70Q142.27 6.53 141.90 6.27Q141.54 6.02 141.30 5.62Q141.06 5.23 141.06 4.64L141.06 4.64Q141.06 4.16 141.24 3.74Q141.42 3.31 141.82 2.98Q142.21 2.66 142.82 2.47Q143.42 2.29 144.27 2.29L144.27 2.29Q145.01 2.29 145.64 2.40Q146.27 2.51 146.74 2.72L146.74 2.72L146.43 4.38Q146.16 4.30 145.58 4.12Q145.01 3.94 144.29 3.94L144.29 3.94Q143.54 3.94 143.27 4.12Q143.01 4.30 143.01 4.51L143.01 4.51Q143.01 4.69 143.13 4.82Q143.25 4.96 143.45 5.07Q143.65 5.18 143.91 5.29Q144.18 5.39 144.48 5.49L144.48 5.49Q144.91 5.63 145.38 5.81Q145.84 5.98 146.22 6.25Q146.59 6.51 146.83 6.92Q147.07 7.33 147.07 7.92L147.07 7.92Q147.07 8.38 146.90 8.80Q146.72 9.22 146.31 9.52Q145.90 9.82 145.25 10Q144.59 10.18 143.63 10.18L143.63 10.18Q142.66 10.18 141.97 9.95Q141.28 9.73 140.86 9.55L140.86 9.55L141.17 7.90Q141.73 8.13 142.36 8.32Q142.99 8.51 143.65 8.51ZM150.29 7.20L150.29 4.11L148.58 4.11L148.58 2.48L150.29 2.48L150.29 0.59L152.26 0.27L152.26 2.48L155.41 2.48L155.41 4.11L152.26 4.11L152.26 7.15Q152.26 7.57 152.34 7.82Q152.42 8.08 152.56 8.22Q152.70 8.37 152.91 8.42Q153.12 8.46 153.38 8.46L153.38 8.46Q153.65 8.46 153.88 8.45Q154.11 8.43 154.33 8.39Q154.54 8.35 154.78 8.27Q155.01 8.19 155.28 8.06L155.28 8.06L155.55 9.76Q155.01 9.98 154.38 10.08Q153.74 10.18 153.15 10.18L153.15 10.18Q152.46 10.18 151.94 10.06Q151.41 9.95 151.04 9.63Q150.67 9.31 150.48 8.73Q150.29 8.14 150.29 7.20L150.29 7.20Z"/>
    </g>
</svg>