<?xml version="1.0" encoding="UTF-8"?>
<svg height="34" width="261.7" version="1.1" xmlns="http://www.w3.org/2000/svg">
    <rect
        height="32"
        width="259.7"
        rx="1"
        ry="1"
        x="1"
        y="1"
        fill="#0060ac"
        stroke="#47acff"
        stroke-width="1"
         />
    <g transform="translate(0, 14)">
        <path fill="#47acff" d="M23.69 11L19.97 11Q19.44 9.57 18.67 7.84Q17.90 6.10 17.06 4.36L17.06 4.36Q16.24 6.02 15.43 7.79Q14.62 9.57 14.03 11L14.03 11L10.31 11Q10.59 10.24 11.13 9.18Q11.68 8.12 12.34 6.88Q13.00 5.65 13.72 4.35Q14.45 3.05 15.12 1.84L15.12 1.84L10.59-6.33L14.31-6.33L17.06-0.79L19.94-6.33L23.41-6.33L18.99 1.76Q19.74 2.96 20.47 4.28Q21.20 5.60 21.83 6.84Q22.46 8.09 22.94 9.17Q23.41 10.24 23.69 11L23.69 11ZM25.65-6.33L28.51-6.33Q28.70-5.74 29.00-4.82Q29.29-3.90 29.63-2.83Q29.96-1.77 30.30-0.68Q30.64 0.42 30.94 1.34L30.94 1.34Q31.28 0.30 31.64-0.80Q32.01-1.91 32.34-2.93Q32.68-3.95 32.96-4.85Q33.24-5.74 33.46-6.33L33.46-6.33L36.32-6.33Q36.52-4.06 36.70-1.91Q36.88 0.25 37.01 2.36Q37.13 4.48 37.22 6.62Q37.30 8.76 37.36 11L37.36 11L34.19 11L34.36-2.47L32.23 4.87L29.71 4.87L27.67-2.47L27.81 11L24.64 11Q24.73 8.87 24.83 6.58Q24.92 4.28 25.04 2.01Q25.15-0.26 25.30-2.38Q25.46-4.51 25.65-6.33L25.65-6.33ZM50.88 8.14L50.88 11L39.99 11L39.99-6.33L43.46-6.33L43.46 8.14L50.88 8.14ZM72.27-6.53L72.27-6.53Q75.58-6.53 77.40-5.17Q79.22-3.81 79.22-0.73L79.22-0.73Q79.22 2.38 77.38 3.76Q75.55 5.15 72.19 5.15L72.19 5.15L70.96 5.15L70.96 11L67.51 11L67.51-6.11Q68.02-6.22 68.65-6.30Q69.28-6.39 69.92-6.43Q70.56-6.47 71.18-6.50Q71.80-6.53 72.27-6.53ZM72.66-3.53L72.66-3.53Q72.36-3.53 71.81-3.52Q71.26-3.50 70.96-3.45L70.96-3.45L70.96 2.15L72.36 2.15Q74.01 2.15 74.85 1.49Q75.69 0.84 75.69-0.76L75.69-0.76Q75.69-2.27 74.86-2.90Q74.04-3.53 72.66-3.53ZM92.85-1.85L92.24 1.34Q91.90 1.26 91.44 1.17Q90.98 1.09 90.50 1.02Q90.02 0.95 89.58 0.92Q89.13 0.89 88.82 0.89L88.82 0.89Q88.09 0.89 87.39 0.96Q86.69 1.03 85.96 1.23L85.96 1.23L85.96 11L82.49 11L82.49-1.29Q83.86-1.80 85.31-2.10Q86.75-2.41 88.68-2.41L88.68-2.41Q88.96-2.41 89.48-2.38Q90.00-2.36 90.58-2.29Q91.17-2.22 91.77-2.12Q92.38-2.02 92.85-1.85L92.85-1.85ZM107.22 4.39L107.22 4.39Q107.22 5.96 106.77 7.23Q106.32 8.51 105.51 9.43Q104.70 10.36 103.56 10.86Q102.43 11.36 101.03 11.36L101.03 11.36Q99.63 11.36 98.49 10.86Q97.36 10.36 96.53 9.43Q95.71 8.51 95.26 7.23Q94.81 5.96 94.81 4.39L94.81 4.39Q94.81 2.85 95.27 1.58Q95.74 0.30 96.56-0.61Q97.39-1.52 98.54-2.01Q99.68-2.50 101.03-2.50L101.03-2.50Q102.40-2.50 103.53-2.01Q104.67-1.52 105.49-0.61Q106.32 0.30 106.77 1.58Q107.22 2.85 107.22 4.39ZM98.31 4.42L98.31 4.42Q98.31 6.18 98.94 7.28Q99.57 8.37 100.97 8.37L100.97 8.37Q102.32 8.37 103.00 7.28Q103.69 6.18 103.69 4.42L103.69 4.42Q103.69 2.66 103.06 1.58Q102.43 0.50 101.03 0.50L101.03 0.50Q99.68 0.50 99.00 1.58Q98.31 2.66 98.31 4.42ZM117.63 4.53L117.63 4.53Q117.63 2.77 116.93 1.63Q116.23 0.50 114.80 0.50L114.80 0.50Q114.41 0.50 113.96 0.54Q113.52 0.58 113.21 0.61L113.21 0.61L113.21 7.84Q113.54 8.06 114.10 8.20Q114.66 8.34 115.22 8.34L115.22 8.34Q116.46 8.34 117.04 7.35Q117.63 6.35 117.63 4.53ZM121.13 4.42L121.13 4.42Q121.13 5.93 120.80 7.21Q120.46 8.48 119.82 9.39Q119.17 10.30 118.19 10.80Q117.21 11.31 115.92 11.31L115.92 11.31Q114.61 11.31 113.21 10.66L113.21 10.66L113.21 15.62L109.76 15.62L109.76-1.74Q110.72-2.05 112.10-2.24Q113.49-2.44 114.83-2.44L114.83-2.44Q117.88-2.44 119.51-0.59Q121.13 1.26 121.13 4.42ZM122.87 4.53L122.87 4.53Q122.87 2.80 123.40 1.48Q123.93 0.16 124.80-0.72Q125.67-1.60 126.79-2.05Q127.91-2.50 129.08-2.50L129.08-2.50Q132.00-2.50 133.51-0.77Q135.02 0.95 135.02 4.25L135.02 4.25Q135.02 4.59 135.01 4.95Q134.99 5.32 134.96 5.54L134.96 5.54L126.42 5.54Q126.42 6.83 127.49 7.57Q128.55 8.31 130.23 8.31L130.23 8.31Q131.27 8.31 132.21 8.09Q133.14 7.86 133.79 7.64L133.79 7.64L134.26 10.58Q133.37 10.89 132.36 11.10Q131.35 11.31 130.09 11.31L130.09 11.31Q128.41 11.31 127.08 10.87Q125.75 10.44 124.81 9.59Q123.88 8.73 123.37 7.47Q122.87 6.21 122.87 4.53ZM126.42 3.16L131.69 3.16Q131.69 2.63 131.55 2.14Q131.41 1.65 131.10 1.26Q130.79 0.86 130.32 0.63Q129.84 0.39 129.14 0.39L129.14 0.39Q128.47 0.39 127.98 0.61Q127.49 0.84 127.17 1.23Q126.84 1.62 126.66 2.12Q126.48 2.63 126.42 3.16L126.42 3.16ZM148.85-1.85L148.24 1.34Q147.90 1.26 147.44 1.17Q146.98 1.09 146.50 1.02Q146.02 0.95 145.58 0.92Q145.13 0.89 144.82 0.89L144.82 0.89Q144.09 0.89 143.39 0.96Q142.69 1.03 141.96 1.23L141.96 1.23L141.96 11L138.49 11L138.49-1.29Q139.86-1.80 141.31-2.10Q142.75-2.41 144.68-2.41L144.68-2.41Q144.96-2.41 145.48-2.38Q146.00-2.36 146.58-2.29Q147.17-2.22 147.77-2.12Q148.38-2.02 148.85-1.85L148.85-1.85ZM154.00 6.10L154.00 0.70L151.01 0.70L151.01-2.16L154.00-2.16L154.00-5.46L157.45-6.02L157.45-2.16L162.96-2.16L162.96 0.70L157.45 0.70L157.45 6.02Q157.45 6.74 157.59 7.19Q157.73 7.64 157.98 7.89Q158.23 8.14 158.60 8.23Q158.96 8.31 159.41 8.31L159.41 8.31Q159.88 8.31 160.29 8.28Q160.70 8.26 161.07 8.19Q161.45 8.12 161.86 7.98Q162.26 7.84 162.74 7.61L162.74 7.61L163.22 10.58Q162.26 10.97 161.16 11.14Q160.05 11.31 159.02 11.31L159.02 11.31Q157.81 11.31 156.89 11.11Q155.96 10.92 155.32 10.36Q154.68 9.80 154.34 8.77Q154.00 7.75 154.00 6.10L154.00 6.10ZM173.69-2.16L177.22-2.16Q176.68-0.31 176.19 1.47Q175.70 3.24 175.17 4.94Q174.64 6.63 174.04 8.26Q173.44 9.88 172.74 11.42L172.74 11.42Q172.20 12.54 171.69 13.35Q171.17 14.16 170.54 14.68Q169.91 15.20 169.14 15.45Q168.37 15.70 167.33 15.70L167.33 15.70Q166.46 15.70 165.75 15.56Q165.04 15.42 164.56 15.20L164.56 15.20L165.20 12.32Q165.76 12.57 166.20 12.67Q166.63 12.76 167.14 12.76L167.14 12.76Q168.14 12.76 168.76 12.09Q169.38 11.42 169.74 10.50L169.74 10.50Q168.51 8.03 167.28 4.85Q166.04 1.68 165.04-2.16L165.04-2.16L168.62-2.16Q168.87-1.12 169.19 0.05Q169.52 1.23 169.88 2.40Q170.24 3.58 170.65 4.71Q171.06 5.85 171.48 6.83L171.48 6.83Q171.76 5.85 172.06 4.71Q172.37 3.58 172.65 2.42Q172.93 1.26 173.20 0.08Q173.46-1.10 173.69-2.16L173.69-2.16ZM204.88 8.14L204.88 11L193.99 11L193.99-6.33L197.46-6.33L197.46 8.14L204.88 8.14ZM213.95-5.94L213.95-5.94Q213.95-4.93 213.31-4.34Q212.66-3.76 211.77-3.76L211.77-3.76Q210.87-3.76 210.24-4.34Q209.61-4.93 209.61-5.94L209.61-5.94Q209.61-6.98 210.24-7.56Q210.87-8.15 211.77-8.15L211.77-8.15Q212.66-8.15 213.31-7.56Q213.95-6.98 213.95-5.94ZM218.63 7.67L219.08 10.44Q218.01 10.94 217.07 11.13Q216.14 11.31 215.35 11.31L215.35 11.31Q214.01 11.31 213.10 10.92Q212.19 10.52 211.64 9.78Q211.10 9.04 210.87 7.98Q210.65 6.91 210.65 5.54L210.65 5.54L210.65 0.70L207.01 0.70L207.01-2.16L214.09-2.16L214.09 5.99Q214.09 7.16 214.53 7.74Q214.96 8.31 215.97 8.31L215.97 8.31Q216.44 8.31 217.12 8.19Q217.79 8.06 218.63 7.67L218.63 7.67ZM226.38 8.40L226.38 8.40Q227.64 8.40 228.32 8.21Q228.99 8.03 228.99 7.47L228.99 7.47Q228.99 7.11 228.78 6.86Q228.57 6.60 228.19 6.42Q227.81 6.24 227.32 6.07Q226.83 5.90 226.30 5.74L226.30 5.74Q225.54 5.51 224.76 5.22Q223.98 4.92 223.33 4.48Q222.69 4.03 222.27 3.34Q221.85 2.66 221.85 1.62L221.85 1.62Q221.85 0.78 222.17 0.04Q222.49-0.70 223.18-1.28Q223.86-1.85 224.93-2.17Q225.99-2.50 227.48-2.50L227.48-2.50Q228.76-2.50 229.87-2.30Q230.98-2.10 231.79-1.74L231.79-1.74L231.26 1.17Q230.78 1.03 229.77 0.71Q228.76 0.39 227.50 0.39L227.50 0.39Q226.19 0.39 225.73 0.71Q225.26 1.03 225.26 1.40L225.26 1.40Q225.26 1.70 225.47 1.94Q225.68 2.18 226.03 2.38Q226.38 2.57 226.85 2.75Q227.31 2.94 227.84 3.10L227.84 3.10Q228.60 3.36 229.41 3.66Q230.22 3.97 230.88 4.43Q231.54 4.90 231.96 5.61Q232.38 6.32 232.38 7.36L232.38 7.36Q232.38 8.17 232.07 8.90Q231.76 9.63 231.05 10.16Q230.33 10.69 229.18 11Q228.04 11.31 226.36 11.31L226.36 11.31Q224.65 11.31 223.44 10.92Q222.24 10.52 221.51 10.22L221.51 10.22L222.04 7.33Q223.02 7.72 224.13 8.06Q225.24 8.40 226.38 8.40ZM238.00 6.10L238.00 0.70L235.01 0.70L235.01-2.16L238.00-2.16L238.00-5.46L241.45-6.02L241.45-2.16L246.96-2.16L246.96 0.70L241.45 0.70L241.45 6.02Q241.45 6.74 241.59 7.19Q241.73 7.64 241.98 7.89Q242.23 8.14 242.60 8.23Q242.96 8.31 243.41 8.31L243.41 8.31Q243.88 8.31 244.29 8.28Q244.70 8.26 245.07 8.19Q245.45 8.12 245.86 7.98Q246.26 7.84 246.74 7.61L246.74 7.61L247.22 10.58Q246.26 10.97 245.16 11.14Q244.05 11.31 243.02 11.31L243.02 11.31Q241.81 11.31 240.89 11.11Q239.96 10.92 239.32 10.36Q238.68 9.80 238.34 8.77Q238.00 7.75 238.00 6.10L238.00 6.10Z"/>
    </g>
</svg>