<?xml version="1.0" encoding="UTF-8"?>
<svg height="26" width="123" version="1.1" xmlns="http://www.w3.org/2000/svg"><!--Created by Josélio de S. C. Júnior - 2021 - https://github.com/joseliojunior -->
    <defs>
        <pattern id="pattern"
                x="3" y="3" width="6" height="6"
                patternUnits="userSpaceOnUse"
                patternTransform="rotate(45)" >
            <rect height="6" width="6"
                fill="#ffffff"/>
            <line x1="0" y1="0" x2="0" y2="6"
                stroke="#888888"
                stroke-width="2" />
        </pattern>
    </defs>
    <rect
        height="24"
        width="121"
        rx="12"
        ry="12"
        x="1" y="1"
        fill="url(#pattern)"
        stroke="#000000"
        stroke-width="1" />
    <g transform="translate(0, 8)">
        <path fill="#ffffff" stroke="#000000" d="M23.58-0.02L23.58-0.02Q25.47-0.02 26.51 0.76Q27.55 1.54 27.55 3.30L27.55 3.30Q27.55 5.07 26.50 5.86Q25.46 6.66 23.54 6.66L23.54 6.66L22.83 6.66L22.83 10L20.86 10L20.86 0.22Q21.15 0.16 21.51 0.11Q21.87 0.06 22.24 0.04Q22.61 0.02 22.96 0Q23.31-0.02 23.58-0.02ZM23.81 1.70L23.81 1.70Q23.63 1.70 23.32 1.70Q23.01 1.71 22.83 1.74L22.83 1.74L22.83 4.94L23.63 4.94Q24.58 4.94 25.06 4.57Q25.54 4.19 25.54 3.28L25.54 3.28Q25.54 2.42 25.06 2.06Q24.59 1.70 23.81 1.70ZM35.01 2.48L35.01 9.74Q34.46 9.89 33.69 10.03Q32.91 10.18 32 10.18L32 10.18Q31.07 10.18 30.48 9.92Q29.89 9.66 29.54 9.19Q29.20 8.72 29.07 8.08Q28.94 7.44 28.94 6.67L28.94 6.67L28.94 2.48L30.91 2.48L30.91 6.42Q30.91 7.46 31.16 7.96Q31.41 8.46 32.13 8.46L32.13 8.46Q32.58 8.46 33.02 8.38L33.02 8.38L33.02 2.48L35.01 2.48ZM41.52 6.19L41.52 6.19Q41.52 5.14 41.18 4.58Q40.83 4.02 40.13 4.02L40.13 4.02Q39.81 4.02 39.50 4.10Q39.18 4.19 38.96 4.32L38.96 4.32L38.96 8.40Q39.18 8.45 39.43 8.46Q39.68 8.48 39.86 8.48L39.86 8.48Q40.62 8.48 41.07 7.96Q41.52 7.44 41.52 6.19ZM43.52 6.24L43.52 6.24Q43.52 7.14 43.28 7.86Q43.04 8.59 42.58 9.10Q42.11 9.62 41.44 9.90Q40.77 10.18 39.90 10.18L39.90 10.18Q39.14 10.18 38.34 10.06Q37.54 9.95 36.99 9.78L36.99 9.78L36.99-0.77L38.96-1.10L38.96 2.66Q39.38 2.46 39.76 2.39Q40.14 2.32 40.53 2.32L40.53 2.32Q41.26 2.32 41.82 2.60Q42.38 2.88 42.76 3.40Q43.14 3.92 43.33 4.64Q43.52 5.36 43.52 6.24ZM51.22 8.10L51.47 9.68Q51.42 9.71 51.26 9.79Q51.09 9.87 50.82 9.96Q50.54 10.05 50.15 10.11Q49.76 10.18 49.26 10.18L49.26 10.18Q47.90 10.18 47.28 9.37Q46.66 8.56 46.66 7.01L46.66 7.01L46.66 0.62L44.58 0.62L44.58-1.01L48.62-1.01L48.62 7.15Q48.62 7.92 48.93 8.19Q49.23 8.46 49.70 8.46L49.70 8.46Q50.29 8.46 50.69 8.30Q51.09 8.14 51.22 8.10L51.22 8.10ZM56.54 0.32L56.54 0.32Q56.54 0.90 56.18 1.23Q55.81 1.57 55.30 1.57L55.30 1.57Q54.78 1.57 54.42 1.23Q54.06 0.90 54.06 0.32L54.06 0.32Q54.06-0.27 54.42-0.61Q54.78-0.94 55.30-0.94L55.30-0.94Q55.81-0.94 56.18-0.61Q56.54-0.27 56.54 0.32ZM59.22 8.10L59.47 9.68Q58.86 9.97 58.33 10.07Q57.79 10.18 57.34 10.18L57.34 10.18Q56.58 10.18 56.06 9.95Q55.54 9.73 55.22 9.30Q54.91 8.88 54.78 8.27Q54.66 7.66 54.66 6.88L54.66 6.88L54.66 4.11L52.58 4.11L52.58 2.48L56.62 2.48L56.62 7.14Q56.62 7.81 56.87 8.14Q57.12 8.46 57.70 8.46L57.70 8.46Q57.97 8.46 58.35 8.39Q58.74 8.32 59.22 8.10L59.22 8.10ZM60.70 6.24L60.70 6.24Q60.70 5.42 60.96 4.70Q61.22 3.98 61.74 3.45Q62.27 2.91 63.08 2.60Q63.89 2.29 65.01 2.29L65.01 2.29Q65.68 2.29 66.22 2.38Q66.77 2.48 67.33 2.70L67.33 2.70L66.90 4.29Q66.58 4.18 66.18 4.09Q65.79 4 65.18 4L65.18 4Q64.48 4 64.01 4.17Q63.54 4.34 63.25 4.63Q62.96 4.93 62.83 5.34Q62.70 5.76 62.70 6.24L62.70 6.24Q62.70 7.28 63.29 7.87Q63.87 8.46 65.28 8.46L65.28 8.46Q65.74 8.46 66.25 8.40Q66.75 8.34 67.17 8.19L67.17 8.19L67.46 9.81Q67.04 9.97 66.45 10.07Q65.86 10.18 65.06 10.18L65.06 10.18Q63.90 10.18 63.08 9.87Q62.26 9.57 61.73 9.04Q61.20 8.51 60.95 7.79Q60.70 7.07 60.70 6.24ZM83.82 10L81.60 10Q81.42 9.44 81.10 8.79Q80.77 8.14 80.37 7.53Q79.97 6.91 79.53 6.38Q79.09 5.84 78.69 5.47L78.69 5.47L78.69 10L76.72 10L76.72 0.10L78.69 0.10L78.69 4.21Q79.04 3.76 79.42 3.22Q79.81 2.67 80.15 2.13Q80.50 1.58 80.78 1.06Q81.07 0.53 81.26 0.10L81.26 0.10L83.49 0.10Q83.26 0.53 82.95 1.08Q82.64 1.63 82.24 2.23Q81.84 2.83 81.38 3.46Q80.93 4.08 80.43 4.66L80.43 4.66Q80.93 5.14 81.44 5.76Q81.95 6.38 82.41 7.10Q82.86 7.81 83.23 8.55Q83.60 9.30 83.82 10L83.82 10ZM84.50 6.30L84.50 6.30Q84.50 5.31 84.80 4.56Q85.10 3.81 85.60 3.30Q86.10 2.80 86.74 2.54Q87.38 2.29 88.05 2.29L88.05 2.29Q89.71 2.29 90.58 3.27Q91.44 4.26 91.44 6.14L91.44 6.14Q91.44 6.34 91.43 6.54Q91.42 6.75 91.41 6.88L91.41 6.88L86.53 6.88Q86.53 7.62 87.14 8.04Q87.74 8.46 88.70 8.46L88.70 8.46Q89.30 8.46 89.83 8.34Q90.37 8.21 90.74 8.08L90.74 8.08L91.01 9.76Q90.50 9.94 89.92 10.06Q89.34 10.18 88.62 10.18L88.62 10.18Q87.66 10.18 86.90 9.93Q86.14 9.68 85.61 9.19Q85.07 8.70 84.78 7.98Q84.50 7.26 84.50 6.30ZM86.53 5.52L89.54 5.52Q89.54 5.22 89.46 4.94Q89.38 4.66 89.20 4.43Q89.02 4.21 88.75 4.07Q88.48 3.94 88.08 3.94L88.08 3.94Q87.70 3.94 87.42 4.06Q87.14 4.19 86.95 4.42Q86.77 4.64 86.66 4.93Q86.56 5.22 86.53 5.52L86.53 5.52ZM97.54 2.48L99.55 2.48Q99.25 3.54 98.97 4.55Q98.69 5.57 98.38 6.54Q98.08 7.50 97.74 8.43Q97.39 9.36 96.99 10.24L96.99 10.24Q96.69 10.88 96.39 11.34Q96.10 11.81 95.74 12.10Q95.38 12.40 94.94 12.54Q94.50 12.69 93.90 12.69L93.90 12.69Q93.41 12.69 93 12.61Q92.59 12.53 92.32 12.40L92.32 12.40L92.69 10.75Q93.01 10.90 93.26 10.95Q93.50 11.01 93.79 11.01L93.79 11.01Q94.37 11.01 94.72 10.62Q95.07 10.24 95.28 9.71L95.28 9.71Q94.58 8.30 93.87 6.49Q93.17 4.67 92.59 2.48L92.59 2.48L94.64 2.48Q94.78 3.07 94.97 3.74Q95.15 4.42 95.36 5.09Q95.57 5.76 95.80 6.41Q96.03 7.06 96.27 7.62L96.27 7.62Q96.43 7.06 96.61 6.41Q96.78 5.76 96.94 5.10Q97.10 4.43 97.26 3.76Q97.41 3.09 97.54 2.48L97.54 2.48Z"/>
    </g>
</svg>