<?xml version="1.0" encoding="UTF-8"?><svg height="34" width="163" version="1.1" xmlns="http://www.w3.org/2000/svg"><!--Created by Josélio de S. C. Júnior - 2021 - https://github.com/joseliojunior --><defs><pattern id="pattern" x="3" y="3" width="6" height="6" patternUnits="userSpaceOnUse" patternTransform="rotate(45)"><rect height="6" width="6" fill="#ffffff"/><line x1="0" y1="0" x2="0" y2="6" stroke="#bbbbbb" stroke-width="2" /></pattern></defs><rect height="32" width="161" rx="16" ry="16" x="1" y="1" fill="url(#pattern)" /><g transform="translate(0, 12)"><path fill="#000000" d="M25.38-3.02L25.38-3.02Q28.21-3.02 29.77-1.86Q31.33-0.70 31.33 1.94L31.33 1.94Q31.33 4.61 29.76 5.80Q28.18 6.98 25.30 6.98L25.30 6.98L24.25 6.98L24.25 12L21.30 12L21.30-2.66Q21.73-2.76 22.27-2.83Q22.81-2.90 23.36-2.94Q23.91-2.98 24.44-3Q24.97-3.02 25.38-3.02ZM25.71-0.46L25.71-0.46Q25.45-0.46 24.98-0.44Q24.51-0.43 24.25-0.38L24.25-0.38L24.25 4.42L25.45 4.42Q26.86 4.42 27.58 3.85Q28.30 3.29 28.30 1.92L28.30 1.92Q28.30 0.62 27.60 0.08Q26.89-0.46 25.71-0.46ZM42.51 0.72L42.51 11.62Q41.70 11.83 40.53 12.05Q39.37 12.26 38 12.26L38 12.26Q36.61 12.26 35.72 11.88Q34.83 11.50 34.32 10.79Q33.80 10.08 33.61 9.12Q33.42 8.16 33.42 7.01L33.42 7.01L33.42 0.72L36.37 0.72L36.37 6.62Q36.37 8.18 36.74 8.94Q37.11 9.70 38.19 9.70L38.19 9.70Q38.86 9.70 39.54 9.58L39.54 9.58L39.54 0.72L42.51 0.72ZM52.28 6.29L52.28 6.29Q52.28 4.70 51.76 3.86Q51.25 3.02 50.19 3.02L50.19 3.02Q49.71 3.02 49.24 3.16Q48.78 3.29 48.44 3.48L48.44 3.48L48.44 9.60Q48.78 9.67 49.15 9.70Q49.52 9.72 49.78 9.72L49.78 9.72Q50.94 9.72 51.61 8.94Q52.28 8.16 52.28 6.29ZM55.28 6.36L55.28 6.36Q55.28 7.70 54.92 8.80Q54.56 9.89 53.86 10.66Q53.17 11.42 52.16 11.84Q51.15 12.26 49.86 12.26L49.86 12.26Q48.70 12.26 47.50 12.10Q46.30 11.93 45.49 11.66L45.49 11.66L45.49-4.15L48.44-4.66L48.44 0.98Q49.06 0.70 49.64 0.59Q50.22 0.48 50.79 0.48L50.79 0.48Q51.90 0.48 52.74 0.90Q53.58 1.32 54.14 2.10Q54.70 2.88 54.99 3.96Q55.28 5.04 55.28 6.36ZM66.82 9.14L67.21 11.52Q67.14 11.57 66.88 11.69Q66.63 11.81 66.22 11.94Q65.82 12.07 65.23 12.17Q64.64 12.26 63.90 12.26L63.90 12.26Q61.86 12.26 60.92 11.05Q59.98 9.84 59.98 7.51L59.98 7.51L59.98-2.06L56.86-2.06L56.86-4.51L62.94-4.51L62.94 7.73Q62.94 8.88 63.39 9.29Q63.85 9.70 64.54 9.70L64.54 9.70Q65.43 9.70 66.03 9.46Q66.63 9.22 66.82 9.14L66.82 9.14ZM74.82-2.52L74.82-2.52Q74.82-1.66 74.26-1.15Q73.71-0.65 72.94-0.65L72.94-0.65Q72.18-0.65 71.64-1.15Q71.10-1.66 71.10-2.52L71.10-2.52Q71.10-3.41 71.64-3.91Q72.18-4.42 72.94-4.42L72.94-4.42Q73.71-4.42 74.26-3.91Q74.82-3.41 74.82-2.52ZM78.82 9.14L79.21 11.52Q78.30 11.95 77.49 12.11Q76.69 12.26 76.02 12.26L76.02 12.26Q74.86 12.26 74.08 11.93Q73.30 11.59 72.84 10.96Q72.37 10.32 72.18 9.41Q71.98 8.50 71.98 7.32L71.98 7.32L71.98 3.17L68.86 3.17L68.86 0.72L74.94 0.72L74.94 7.70Q74.94 8.71 75.31 9.20Q75.68 9.70 76.54 9.70L76.54 9.70Q76.95 9.70 77.53 9.59Q78.10 9.48 78.82 9.14L78.82 9.14ZM81.06 6.36L81.06 6.36Q81.06 5.14 81.44 4.06Q81.82 2.98 82.62 2.17Q83.41 1.37 84.62 0.90Q85.83 0.43 87.51 0.43L87.51 0.43Q88.52 0.43 89.34 0.58Q90.15 0.72 90.99 1.06L90.99 1.06L90.34 3.43Q89.86 3.26 89.28 3.13Q88.69 3 87.78 3L87.78 3Q86.72 3 86.01 3.25Q85.30 3.50 84.87 3.95Q84.44 4.39 84.25 5.02Q84.06 5.64 84.06 6.36L84.06 6.36Q84.06 7.92 84.93 8.81Q85.81 9.70 87.92 9.70L87.92 9.70Q88.62 9.70 89.37 9.60Q90.13 9.50 90.75 9.29L90.75 9.29L91.18 11.71Q90.56 11.95 89.67 12.11Q88.78 12.26 87.58 12.26L87.58 12.26Q85.86 12.26 84.62 11.81Q83.38 11.35 82.59 10.56Q81.80 9.77 81.43 8.69Q81.06 7.61 81.06 6.36ZM115.74 12L112.40 12Q112.14 11.16 111.64 10.19Q111.15 9.22 110.55 8.29Q109.95 7.37 109.29 6.56Q108.63 5.76 108.03 5.21L108.03 5.21L108.03 12L105.08 12L105.08-2.86L108.03-2.86L108.03 3.31Q108.56 2.64 109.14 1.82Q109.71 1.01 110.23 0.19Q110.74-0.62 111.18-1.42Q111.61-2.21 111.90-2.86L111.90-2.86L115.23-2.86Q114.90-2.21 114.43-1.38Q113.96-0.55 113.36 0.35Q112.76 1.25 112.08 2.18Q111.39 3.12 110.65 3.98L110.65 3.98Q111.39 4.70 112.16 5.64Q112.93 6.58 113.61 7.64Q114.30 8.71 114.85 9.83Q115.40 10.94 115.74 12L115.74 12ZM116.74 6.46L116.74 6.46Q116.74 4.97 117.20 3.84Q117.66 2.71 118.40 1.96Q119.14 1.20 120.10 0.82Q121.06 0.43 122.07 0.43L122.07 0.43Q124.57 0.43 125.86 1.91Q127.16 3.38 127.16 6.22L127.16 6.22Q127.16 6.50 127.15 6.82Q127.14 7.13 127.11 7.32L127.11 7.32L119.79 7.32Q119.79 8.42 120.70 9.06Q121.62 9.70 123.06 9.70L123.06 9.70Q123.94 9.70 124.75 9.50Q125.55 9.31 126.10 9.12L126.10 9.12L126.51 11.64Q125.74 11.90 124.88 12.08Q124.02 12.26 122.94 12.26L122.94 12.26Q121.50 12.26 120.36 11.89Q119.22 11.52 118.41 10.79Q117.61 10.06 117.18 8.98Q116.74 7.90 116.74 6.46ZM119.79 5.28L124.30 5.28Q124.30 4.82 124.18 4.40Q124.06 3.98 123.80 3.65Q123.54 3.31 123.13 3.11Q122.72 2.90 122.12 2.90L122.12 2.90Q121.54 2.90 121.12 3.10Q120.70 3.29 120.43 3.62Q120.15 3.96 120.00 4.39Q119.84 4.82 119.79 5.28L119.79 5.28ZM136.30 0.72L139.33 0.72Q138.87 2.30 138.45 3.83Q138.03 5.35 137.58 6.80Q137.12 8.26 136.60 9.65Q136.09 11.04 135.49 12.36L135.49 12.36Q135.03 13.32 134.59 14.02Q134.14 14.71 133.60 15.16Q133.06 15.60 132.40 15.82Q131.74 16.03 130.86 16.03L130.86 16.03Q130.11 16.03 129.50 15.91Q128.89 15.79 128.48 15.60L128.48 15.60L129.03 13.13Q129.51 13.34 129.88 13.43Q130.26 13.51 130.69 13.51L130.69 13.51Q131.55 13.51 132.08 12.94Q132.61 12.36 132.92 11.57L132.92 11.57Q131.86 9.46 130.81 6.73Q129.75 4.01 128.89 0.72L128.89 0.72L131.96 0.72Q132.18 1.61 132.45 2.62Q132.73 3.62 133.04 4.63Q133.35 5.64 133.70 6.61Q134.05 7.58 134.41 8.42L134.41 8.42Q134.65 7.58 134.91 6.61Q135.18 5.64 135.42 4.64Q135.66 3.65 135.88 2.64Q136.11 1.63 136.30 0.72L136.30 0.72Z"/></g></svg>