<?xml version="1.0" encoding="UTF-8"?><svg height="26" width="98.7" version="1.1" xmlns="http://www.w3.org/2000/svg"><!--Created by Josélio de S. C. Júnior - 2021 - https://github.com/joseliojunior --><rect height="24" width="96.7" rx="12" ry="12" x="1" y="1" fill="#ff2b2b" stroke="#8f0000" stroke-width="1" /><g transform="translate(0, 8)"><path fill="#8f0000" d="M20.94 0.10L22.58 0.10Q22.69 0.43 22.86 0.96Q23.02 1.49 23.22 2.10Q23.41 2.70 23.60 3.33Q23.79 3.95 23.97 4.48L23.97 4.48Q24.16 3.89 24.37 3.26Q24.58 2.62 24.77 2.04Q24.96 1.46 25.12 0.94Q25.28 0.43 25.41 0.10L25.41 0.10L27.04 0.10Q27.15 1.39 27.26 2.62Q27.36 3.86 27.43 5.06Q27.50 6.27 27.55 7.50Q27.60 8.72 27.63 10L27.63 10L25.82 10L25.92 2.30L24.70 6.50L23.26 6.50L22.10 2.30L22.18 10L20.37 10Q20.42 8.78 20.47 7.47Q20.53 6.16 20.59 4.86Q20.66 3.57 20.74 2.35Q20.83 1.14 20.94 0.10L20.94 0.10ZM28.50 6.30L28.50 6.30Q28.50 5.31 28.80 4.56Q29.10 3.81 29.60 3.30Q30.10 2.80 30.74 2.54Q31.38 2.29 32.05 2.29L32.05 2.29Q33.71 2.29 34.58 3.27Q35.44 4.26 35.44 6.14L35.44 6.14Q35.44 6.34 35.43 6.54Q35.42 6.75 35.41 6.88L35.41 6.88L30.53 6.88Q30.53 7.62 31.14 8.04Q31.74 8.46 32.70 8.46L32.70 8.46Q33.30 8.46 33.83 8.34Q34.37 8.21 34.74 8.08L34.74 8.08L35.01 9.76Q34.50 9.94 33.92 10.06Q33.34 10.18 32.62 10.18L32.62 10.18Q31.66 10.18 30.90 9.93Q30.14 9.68 29.61 9.19Q29.07 8.70 28.78 7.98Q28.50 7.26 28.50 6.30ZM30.53 5.52L33.54 5.52Q33.54 5.22 33.46 4.94Q33.38 4.66 33.20 4.43Q33.02 4.21 32.75 4.07Q32.48 3.94 32.08 3.94L32.08 3.94Q31.70 3.94 31.42 4.06Q31.14 4.19 30.95 4.42Q30.77 4.64 30.66 4.93Q30.56 5.22 30.53 5.52L30.53 5.52ZM43.34 2.66L42.99 4.48Q42.80 4.43 42.54 4.38Q42.27 4.34 42 4.30Q41.73 4.26 41.47 4.24Q41.22 4.22 41.04 4.22L41.04 4.22Q40.62 4.22 40.22 4.26Q39.82 4.30 39.41 4.42L39.41 4.42L39.41 10L37.42 10L37.42 2.98Q38.21 2.69 39.03 2.51Q39.86 2.34 40.96 2.34L40.96 2.34Q41.12 2.34 41.42 2.35Q41.71 2.37 42.05 2.41Q42.38 2.45 42.73 2.50Q43.07 2.56 43.34 2.66L43.34 2.66ZM44.70 6.24L44.70 6.24Q44.70 5.42 44.96 4.70Q45.22 3.98 45.74 3.45Q46.27 2.91 47.08 2.60Q47.89 2.29 49.01 2.29L49.01 2.29Q49.68 2.29 50.22 2.38Q50.77 2.48 51.33 2.70L51.33 2.70L50.90 4.29Q50.58 4.18 50.18 4.09Q49.79 4 49.18 4L49.18 4Q48.48 4 48.01 4.17Q47.54 4.34 47.25 4.63Q46.96 4.93 46.83 5.34Q46.70 5.76 46.70 6.24L46.70 6.24Q46.70 7.28 47.29 7.87Q47.87 8.46 49.28 8.46L49.28 8.46Q49.74 8.46 50.25 8.40Q50.75 8.34 51.17 8.19L51.17 8.19L51.46 9.81Q51.04 9.97 50.45 10.07Q49.86 10.18 49.06 10.18L49.06 10.18Q47.90 10.18 47.08 9.87Q46.26 9.57 45.73 9.04Q45.20 8.51 44.95 7.79Q44.70 7.07 44.70 6.24ZM59.01 2.48L59.01 9.74Q58.46 9.89 57.69 10.03Q56.91 10.18 56 10.18L56 10.18Q55.07 10.18 54.48 9.92Q53.89 9.66 53.54 9.19Q53.20 8.72 53.07 8.08Q52.94 7.44 52.94 6.67L52.94 6.67L52.94 2.48L54.91 2.48L54.91 6.42Q54.91 7.46 55.16 7.96Q55.41 8.46 56.13 8.46L56.13 8.46Q56.58 8.46 57.02 8.38L57.02 8.38L57.02 2.48L59.01 2.48ZM67.34 2.66L66.99 4.48Q66.80 4.43 66.54 4.38Q66.27 4.34 66 4.30Q65.73 4.26 65.47 4.24Q65.22 4.22 65.04 4.22L65.04 4.22Q64.62 4.22 64.22 4.26Q63.82 4.30 63.41 4.42L63.41 4.42L63.41 10L61.42 10L61.42 2.98Q62.21 2.69 63.03 2.51Q63.86 2.34 64.96 2.34L64.96 2.34Q65.12 2.34 65.42 2.35Q65.71 2.37 66.05 2.41Q66.38 2.45 66.73 2.50Q67.07 2.56 67.34 2.66L67.34 2.66ZM73.54 2.48L75.55 2.48Q75.25 3.54 74.97 4.55Q74.69 5.57 74.38 6.54Q74.08 7.50 73.74 8.43Q73.39 9.36 72.99 10.24L72.99 10.24Q72.69 10.88 72.39 11.34Q72.10 11.81 71.74 12.10Q71.38 12.40 70.94 12.54Q70.50 12.69 69.90 12.69L69.90 12.69Q69.41 12.69 69 12.61Q68.59 12.53 68.32 12.40L68.32 12.40L68.69 10.75Q69.01 10.90 69.26 10.95Q69.50 11.01 69.79 11.01L69.79 11.01Q70.37 11.01 70.72 10.62Q71.07 10.24 71.28 9.71L71.28 9.71Q70.58 8.30 69.87 6.49Q69.17 4.67 68.59 2.48L68.59 2.48L70.64 2.48Q70.78 3.07 70.97 3.74Q71.15 4.42 71.36 5.09Q71.57 5.76 71.80 6.41Q72.03 7.06 72.27 7.62L72.27 7.62Q72.43 7.06 72.61 6.41Q72.78 5.76 72.94 5.10Q73.10 4.43 73.26 3.76Q73.41 3.09 73.54 2.48L73.54 2.48Z"/></g></svg>