<?xml version="1.0" encoding="UTF-8"?>
<svg height="34" width="78.4" version="1.1" xmlns="http://www.w3.org/2000/svg">
    <rect
        height="32"
        width="76.4"
        rx="14"
        ry="14"
        x="1"
        y="1"
        fill="#5EC8DB"
        stroke="#1d7281"
        stroke-width="1"
         />
    <g transform="translate(0, 14)">
        <path fill="#1d7281" d="M11.65-6.33L14.51-6.33Q14.70-5.74 15.00-4.82Q15.29-3.90 15.63-2.83Q15.96-1.77 16.30-0.68Q16.64 0.42 16.94 1.34L16.94 1.34Q17.28 0.30 17.64-0.80Q18.01-1.91 18.34-2.93Q18.68-3.95 18.96-4.85Q19.24-5.74 19.46-6.33L19.46-6.33L22.32-6.33Q22.52-4.06 22.70-1.91Q22.88 0.25 23.01 2.36Q23.13 4.48 23.22 6.62Q23.30 8.76 23.36 11L23.36 11L20.19 11L20.36-2.47L18.23 4.87L15.71 4.87L13.67-2.47L13.81 11L10.64 11Q10.73 8.87 10.83 6.58Q10.92 4.28 11.04 2.01Q11.15-0.26 11.30-2.38Q11.46-4.51 11.65-6.33L11.65-6.33ZM36.88 8.14L36.88 11L25.99 11L25.99-6.33L29.46-6.33L29.46 8.14L36.88 8.14ZM50.52 11L39.51 11L39.51 8.14L43.29 8.14L43.29-3.48L39.51-3.48L39.51-6.33L50.52-6.33L50.52-3.48L46.76-3.48L46.76 8.14L50.52 8.14L50.52 11ZM57.99-6.53L57.99-6.53Q59.48-6.53 60.68-6.19Q61.88-5.86 62.75-5.16Q63.62-4.46 64.08-3.38Q64.54-2.30 64.54-0.84L64.54-0.84Q64.54 0.67 63.93 1.90Q63.31 3.13 61.88 3.78L61.88 3.78Q62.36 4.50 62.89 5.39Q63.42 6.27 63.93 7.23Q64.43 8.20 64.89 9.17Q65.36 10.13 65.69 11L65.69 11L62.08 11Q61.44 9.32 60.58 7.77Q59.73 6.21 58.75 4.62L58.75 4.62L56.96 4.62L56.96 11L53.51 11L53.51-6.08Q54.02-6.19 54.62-6.29Q55.22-6.39 55.84-6.43Q56.45-6.47 57.01-6.50Q57.57-6.53 57.99-6.53ZM61.04-0.87L61.04-0.87Q61.04-2.24 60.20-2.89Q59.36-3.53 57.99-3.53L57.99-3.53Q57.80-3.53 57.52-3.52Q57.24-3.50 56.96-3.45L56.96-3.45L56.96 1.76L57.71 1.76Q59.48 1.76 60.26 1.07Q61.04 0.39 61.04-0.87Z"/>
    </g>
</svg>