<?xml version="1.0" encoding="UTF-8"?>
<svg height="26" width="171.6" version="1.1" xmlns="http://www.w3.org/2000/svg"><!--Created by Josélio de S. C. Júnior - 2021 - https://github.com/joseliojunior -->
    <defs>
        <pattern id="pattern"
                x="3" y="3" width="6" height="6"
                patternUnits="userSpaceOnUse"
                patternTransform="rotate(45)" >
            <rect height="6" width="6"
                fill="#ffffff"/>
            <line x1="0" y1="0" x2="0" y2="6"
                stroke="#888888"
                stroke-width="2" />
        </pattern>
    </defs>
    <rect
        height="24"
        width="169.6"
        rx="1"
        ry="1"
        x="1" y="1"
        fill="url(#pattern)"
        stroke="#000000"
        stroke-width="1" />
    <g transform="translate(0, 8)">
        <path fill="#ffffff" stroke="#000000" d="M22.43 5.04L22.43 5.04Q22.43 5.76 22.49 6.39Q22.54 7.02 22.71 7.49Q22.88 7.95 23.18 8.22Q23.49 8.50 24 8.50L24 8.50Q24.50 8.50 24.81 8.22Q25.12 7.95 25.29 7.48Q25.46 7.01 25.51 6.38Q25.57 5.76 25.57 5.04L25.57 5.04Q25.57 4.32 25.51 3.69Q25.46 3.06 25.29 2.59Q25.12 2.13 24.82 1.86Q24.51 1.58 24 1.58L24 1.58Q23.49 1.58 23.18 1.86Q22.88 2.13 22.71 2.60Q22.54 3.07 22.49 3.70Q22.43 4.32 22.43 5.04ZM20.43 5.04L20.43 5.04Q20.43 2.48 21.38 1.18Q22.32-0.13 24-0.13L24-0.13Q25.74-0.13 26.66 1.18Q27.57 2.48 27.57 5.04L27.57 5.04Q27.57 7.60 26.64 8.90Q25.71 10.21 24.02 10.21L24.02 10.21Q22.27 10.21 21.35 8.90Q20.43 7.60 20.43 5.04ZM33.50 6.30L33.50 6.30Q33.50 5.30 33.10 4.65Q32.70 4 31.89 4L31.89 4Q31.66 4 31.41 4.02Q31.15 4.05 30.98 4.06L30.98 4.06L30.98 8.19Q31.17 8.32 31.49 8.40Q31.81 8.48 32.13 8.48L32.13 8.48Q32.83 8.48 33.17 7.91Q33.50 7.34 33.50 6.30ZM35.50 6.24L35.50 6.24Q35.50 7.10 35.31 7.83Q35.12 8.56 34.75 9.08Q34.38 9.60 33.82 9.89Q33.26 10.18 32.53 10.18L32.53 10.18Q31.78 10.18 30.98 9.81L30.98 9.81L30.98 12.64L29.01 12.64L29.01 2.72Q29.55 2.54 30.34 2.43Q31.14 2.32 31.90 2.32L31.90 2.32Q33.65 2.32 34.58 3.38Q35.50 4.43 35.50 6.24ZM36.50 6.30L36.50 6.30Q36.50 5.31 36.80 4.56Q37.10 3.81 37.60 3.30Q38.10 2.80 38.74 2.54Q39.38 2.29 40.05 2.29L40.05 2.29Q41.71 2.29 42.58 3.27Q43.44 4.26 43.44 6.14L43.44 6.14Q43.44 6.34 43.43 6.54Q43.42 6.75 43.41 6.88L43.41 6.88L38.53 6.88Q38.53 7.62 39.14 8.04Q39.74 8.46 40.70 8.46L40.70 8.46Q41.30 8.46 41.83 8.34Q42.37 8.21 42.74 8.08L42.74 8.08L43.01 9.76Q42.50 9.94 41.92 10.06Q41.34 10.18 40.62 10.18L40.62 10.18Q39.66 10.18 38.90 9.93Q38.14 9.68 37.61 9.19Q37.07 8.70 36.78 7.98Q36.50 7.26 36.50 6.30ZM38.53 5.52L41.54 5.52Q41.54 5.22 41.46 4.94Q41.38 4.66 41.20 4.43Q41.02 4.21 40.75 4.07Q40.48 3.94 40.08 3.94L40.08 3.94Q39.70 3.94 39.42 4.06Q39.14 4.19 38.95 4.42Q38.77 4.64 38.66 4.93Q38.56 5.22 38.53 5.52L38.53 5.52ZM45.01 10L45.01 2.72Q45.54 2.58 46.31 2.45Q47.09 2.32 48 2.32L48 2.32Q48.90 2.32 49.49 2.57Q50.08 2.82 50.42 3.27Q50.77 3.73 50.91 4.36Q51.06 4.99 51.06 5.76L51.06 5.76L51.06 10L49.09 10L49.09 6.02Q49.09 4.96 48.85 4.50Q48.61 4.03 47.87 4.03L47.87 4.03Q47.65 4.03 47.43 4.05Q47.22 4.06 46.98 4.10L46.98 4.10L46.98 10L45.01 10ZM55.42-0.02L55.42-0.02Q56.27-0.02 56.96 0.18Q57.65 0.37 58.14 0.77Q58.64 1.17 58.90 1.78Q59.17 2.40 59.17 3.23L59.17 3.23Q59.17 4.10 58.82 4.80Q58.46 5.50 57.65 5.87L57.65 5.87Q57.92 6.29 58.22 6.79Q58.53 7.30 58.82 7.85Q59.10 8.40 59.37 8.95Q59.63 9.50 59.82 10L59.82 10L57.76 10Q57.39 9.04 56.90 8.15Q56.42 7.26 55.86 6.35L55.86 6.35L54.83 6.35L54.83 10L52.86 10L52.86 0.24Q53.15 0.18 53.50 0.12Q53.84 0.06 54.19 0.04Q54.54 0.02 54.86 0Q55.18-0.02 55.42-0.02ZM57.17 3.22L57.17 3.22Q57.17 2.43 56.69 2.06Q56.21 1.70 55.42 1.70L55.42 1.70Q55.31 1.70 55.15 1.70Q54.99 1.71 54.83 1.74L54.83 1.74L54.83 4.72L55.26 4.72Q56.27 4.72 56.72 4.33Q57.17 3.94 57.17 3.22ZM64.74 10.21L64.74 10.21Q62.64 10.21 61.54 8.86Q60.43 7.52 60.43 5.04L60.43 5.04Q60.43 3.81 60.77 2.85Q61.10 1.89 61.70 1.22Q62.30 0.56 63.13 0.22Q63.95-0.13 64.93-0.13L64.93-0.13Q65.46-0.13 65.88-0.04Q66.30 0.05 66.62 0.16Q66.94 0.27 67.16 0.40Q67.38 0.53 67.49 0.59L67.49 0.59L66.98 2.16Q66.61 1.92 66.09 1.75Q65.57 1.58 64.90 1.58L64.90 1.58Q64.43 1.58 63.99 1.75Q63.55 1.92 63.21 2.31Q62.86 2.70 62.65 3.36Q62.43 4.02 62.43 4.99L62.43 4.99Q62.43 6.69 63.02 7.59Q63.60 8.50 64.93 8.50L64.93 8.50Q65.70 8.50 66.20 8.32Q66.70 8.14 67.01 7.97L67.01 7.97L67.50 9.52Q67.09 9.78 66.38 9.99Q65.66 10.21 64.74 10.21ZM83.34 2.66L82.99 4.48Q82.80 4.43 82.54 4.38Q82.27 4.34 82 4.30Q81.73 4.26 81.47 4.24Q81.22 4.22 81.04 4.22L81.04 4.22Q80.62 4.22 80.22 4.26Q79.82 4.30 79.41 4.42L79.41 4.42L79.41 10L77.42 10L77.42 2.98Q78.21 2.69 79.03 2.51Q79.86 2.34 80.96 2.34L80.96 2.34Q81.12 2.34 81.42 2.35Q81.71 2.37 82.05 2.41Q82.38 2.45 82.73 2.50Q83.07 2.56 83.34 2.66L83.34 2.66ZM91.01 2.48L91.01 9.74Q90.46 9.89 89.69 10.03Q88.91 10.18 88 10.18L88 10.18Q87.07 10.18 86.48 9.92Q85.89 9.66 85.54 9.19Q85.20 8.72 85.07 8.08Q84.94 7.44 84.94 6.67L84.94 6.67L84.94 2.48L86.91 2.48L86.91 6.42Q86.91 7.46 87.16 7.96Q87.41 8.46 88.13 8.46L88.13 8.46Q88.58 8.46 89.02 8.38L89.02 8.38L89.02 2.48L91.01 2.48ZM93.01 10L93.01 2.72Q93.54 2.58 94.31 2.45Q95.09 2.32 96 2.32L96 2.32Q96.90 2.32 97.49 2.57Q98.08 2.82 98.42 3.27Q98.77 3.73 98.91 4.36Q99.06 4.99 99.06 5.76L99.06 5.76L99.06 10L97.09 10L97.09 6.02Q97.09 4.96 96.85 4.50Q96.61 4.03 95.87 4.03L95.87 4.03Q95.65 4.03 95.43 4.05Q95.22 4.06 94.98 4.10L94.98 4.10L94.98 10L93.01 10ZM103.65 8.51L103.65 8.51Q104.37 8.51 104.75 8.41Q105.14 8.30 105.14 7.98L105.14 7.98Q105.14 7.78 105.02 7.63Q104.90 7.49 104.68 7.38Q104.46 7.28 104.18 7.18Q103.90 7.09 103.60 6.99L103.60 6.99Q103.17 6.86 102.72 6.70Q102.27 6.53 101.90 6.27Q101.54 6.02 101.30 5.62Q101.06 5.23 101.06 4.64L101.06 4.64Q101.06 4.16 101.24 3.74Q101.42 3.31 101.82 2.98Q102.21 2.66 102.82 2.47Q103.42 2.29 104.27 2.29L104.27 2.29Q105.01 2.29 105.64 2.40Q106.27 2.51 106.74 2.72L106.74 2.72L106.43 4.38Q106.16 4.30 105.58 4.12Q105.01 3.94 104.29 3.94L104.29 3.94Q103.54 3.94 103.27 4.12Q103.01 4.30 103.01 4.51L103.01 4.51Q103.01 4.69 103.13 4.82Q103.25 4.96 103.45 5.07Q103.65 5.18 103.91 5.29Q104.18 5.39 104.48 5.49L104.48 5.49Q104.91 5.63 105.38 5.81Q105.84 5.98 106.22 6.25Q106.59 6.51 106.83 6.92Q107.07 7.33 107.07 7.92L107.07 7.92Q107.07 8.38 106.90 8.80Q106.72 9.22 106.31 9.52Q105.90 9.82 105.25 10Q104.59 10.18 103.63 10.18L103.63 10.18Q102.66 10.18 101.97 9.95Q101.28 9.73 100.86 9.55L100.86 9.55L101.17 7.90Q101.73 8.13 102.36 8.32Q102.99 8.51 103.65 8.51ZM108.70 6.24L108.70 6.24Q108.70 5.42 108.96 4.70Q109.22 3.98 109.74 3.45Q110.27 2.91 111.08 2.60Q111.89 2.29 113.01 2.29L113.01 2.29Q113.68 2.29 114.22 2.38Q114.77 2.48 115.33 2.70L115.33 2.70L114.90 4.29Q114.58 4.18 114.18 4.09Q113.79 4 113.18 4L113.18 4Q112.48 4 112.01 4.17Q111.54 4.34 111.25 4.63Q110.96 4.93 110.83 5.34Q110.70 5.76 110.70 6.24L110.70 6.24Q110.70 7.28 111.29 7.87Q111.87 8.46 113.28 8.46L113.28 8.46Q113.74 8.46 114.25 8.40Q114.75 8.34 115.17 8.19L115.17 8.19L115.46 9.81Q115.04 9.97 114.45 10.07Q113.86 10.18 113.06 10.18L113.06 10.18Q111.90 10.18 111.08 9.87Q110.26 9.57 109.73 9.04Q109.20 8.51 108.95 7.79Q108.70 7.07 108.70 6.24ZM123.34 2.66L122.99 4.48Q122.80 4.43 122.54 4.38Q122.27 4.34 122 4.30Q121.73 4.26 121.47 4.24Q121.22 4.22 121.04 4.22L121.04 4.22Q120.62 4.22 120.22 4.26Q119.82 4.30 119.41 4.42L119.41 4.42L119.41 10L117.42 10L117.42 2.98Q118.21 2.69 119.03 2.51Q119.86 2.34 120.96 2.34L120.96 2.34Q121.12 2.34 121.42 2.35Q121.71 2.37 122.05 2.41Q122.38 2.45 122.73 2.50Q123.07 2.56 123.34 2.66L123.34 2.66ZM128.54 0.32L128.54 0.32Q128.54 0.90 128.18 1.23Q127.81 1.57 127.30 1.57L127.30 1.57Q126.78 1.57 126.42 1.23Q126.06 0.90 126.06 0.32L126.06 0.32Q126.06-0.27 126.42-0.61Q126.78-0.94 127.30-0.94L127.30-0.94Q127.81-0.94 128.18-0.61Q128.54-0.27 128.54 0.32ZM131.22 8.10L131.47 9.68Q130.86 9.97 130.33 10.07Q129.79 10.18 129.34 10.18L129.34 10.18Q128.58 10.18 128.06 9.95Q127.54 9.73 127.22 9.30Q126.91 8.88 126.78 8.27Q126.66 7.66 126.66 6.88L126.66 6.88L126.66 4.11L124.58 4.11L124.58 2.48L128.62 2.48L128.62 7.14Q128.62 7.81 128.87 8.14Q129.12 8.46 129.70 8.46L129.70 8.46Q129.97 8.46 130.35 8.39Q130.74 8.32 131.22 8.10L131.22 8.10ZM137.50 6.30L137.50 6.30Q137.50 5.30 137.10 4.65Q136.70 4 135.89 4L135.89 4Q135.66 4 135.41 4.02Q135.15 4.05 134.98 4.06L134.98 4.06L134.98 8.19Q135.17 8.32 135.49 8.40Q135.81 8.48 136.13 8.48L136.13 8.48Q136.83 8.48 137.17 7.91Q137.50 7.34 137.50 6.30ZM139.50 6.24L139.50 6.24Q139.50 7.10 139.31 7.83Q139.12 8.56 138.75 9.08Q138.38 9.60 137.82 9.89Q137.26 10.18 136.53 10.18L136.53 10.18Q135.78 10.18 134.98 9.81L134.98 9.81L134.98 12.64L133.01 12.64L133.01 2.72Q133.55 2.54 134.34 2.43Q135.14 2.32 135.90 2.32L135.90 2.32Q137.65 2.32 138.58 3.38Q139.50 4.43 139.50 6.24ZM142.29 7.20L142.29 4.11L140.58 4.11L140.58 2.48L142.29 2.48L142.29 0.59L144.26 0.27L144.26 2.48L147.41 2.48L147.41 4.11L144.26 4.11L144.26 7.15Q144.26 7.57 144.34 7.82Q144.42 8.08 144.56 8.22Q144.70 8.37 144.91 8.42Q145.12 8.46 145.38 8.46L145.38 8.46Q145.65 8.46 145.88 8.45Q146.11 8.43 146.33 8.39Q146.54 8.35 146.78 8.27Q147.01 8.19 147.28 8.06L147.28 8.06L147.55 9.76Q147.01 9.98 146.38 10.08Q145.74 10.18 145.15 10.18L145.15 10.18Q144.46 10.18 143.94 10.06Q143.41 9.95 143.04 9.63Q142.67 9.31 142.48 8.73Q142.29 8.14 142.29 7.20L142.29 7.20Z"/>
    </g>
</svg>