<?xml version="1.0" encoding="UTF-8"?>
<svg height="34" width="235.6" version="1.1" xmlns="http://www.w3.org/2000/svg"><!--Created by Josélio de S. C. Júnior - 2021 - https://github.com/joseliojunior -->
    <defs>
        <pattern id="pattern"
                x="1.5" y="3" width="3" height="6"
                patternUnits="userSpaceOnUse"
                patternTransform="rotate(45)" >
            <rect height="6" width="1" fill="#999999"/>
        </pattern>
    </defs>
    <rect
        height="32"
        width="233.6"
        rx="1"
        ry="1"
        x="1" y="1"
        fill="url(#pattern)"
        stroke="#000000"
        stroke-width="1" />
    <g transform="translate(0, 12)">
        <path fill="#ffffff" stroke="#000000" d="M24.94 2.40L27.10 2.40Q27.20 2.86 27.39 3.53Q27.58 4.20 27.81 5.02Q28.04 5.83 28.32 6.77Q28.59 7.70 28.86 8.69L28.86 8.69Q28.86 7.44 28.83 6.01Q28.81 4.58 28.78 3.10Q28.76 1.61 28.74 0.08Q28.71-1.44 28.71-2.86L28.71-2.86L31.45-2.86Q31.38-1.03 31.30 0.90Q31.23 2.83 31.14 4.74Q31.04 6.65 30.91 8.50Q30.78 10.34 30.61 12L30.61 12L28.16 12Q27.63 10.49 27.10 8.75Q26.58 7.01 26.05 5.42L26.05 5.42Q25.52 6.94 24.94 8.71Q24.37 10.49 23.89 12L23.89 12L21.44 12Q21.25 10.34 21.10 8.48Q20.96 6.62 20.85 4.72Q20.74 2.81 20.67 0.88Q20.60-1.06 20.55-2.86L20.55-2.86L23.29-2.86Q23.26-1.44 23.24 0.07Q23.22 1.58 23.19 3.08Q23.17 4.58 23.14 6.01Q23.12 7.44 23.12 8.69L23.12 8.69Q23.34 7.92 23.61 7.01Q23.89 6.10 24.14 5.21Q24.39 4.32 24.61 3.58Q24.82 2.83 24.94 2.40L24.94 2.40ZM38.02 9.89L38.02 9.89Q38.50 9.89 38.96 9.88Q39.42 9.86 39.75 9.82L39.75 9.82L39.75 7.22Q39.46 7.18 39.06 7.14Q38.65 7.10 38.31 7.10L38.31 7.10Q37.86 7.10 37.42 7.16Q36.99 7.22 36.67 7.37Q36.34 7.51 36.15 7.78Q35.96 8.04 35.96 8.47L35.96 8.47Q35.96 9.24 36.54 9.56Q37.11 9.89 38.02 9.89ZM37.76 0.43L37.76 0.43Q39.15 0.43 40.08 0.76Q41 1.08 41.55 1.67Q42.10 2.26 42.34 3.11Q42.58 3.96 42.58 5.02L42.58 5.02L42.58 11.74Q41.94 11.88 40.66 12.07Q39.39 12.26 37.81 12.26L37.81 12.26Q36.73 12.26 35.85 12.07Q34.98 11.88 34.35 11.44Q33.73 10.99 33.39 10.28Q33.06 9.58 33.06 8.54L33.06 8.54Q33.06 7.56 33.44 6.89Q33.82 6.22 34.47 5.81Q35.12 5.40 35.96 5.22Q36.80 5.04 37.71 5.04L37.71 5.04Q38.86 5.04 39.75 5.23L39.75 5.23L39.75 4.87Q39.75 4.03 39.22 3.47Q38.70 2.90 37.40 2.90L37.40 2.90Q36.56 2.90 35.78 3.02Q35 3.14 34.52 3.31L34.52 3.31L34.11 0.94Q34.66 0.74 35.67 0.59Q36.68 0.43 37.76 0.43ZM51.13 12L48.66 12Q47.58 9.86 46.46 7.00Q45.34 4.13 44.34 0.72L44.34 0.72L47.43 0.72Q47.65 1.63 47.95 2.66Q48.25 3.70 48.58 4.74Q48.92 5.78 49.27 6.77Q49.62 7.75 49.93 8.57L49.93 8.57Q50.24 7.75 50.62 6.77Q51.01 5.78 51.38 4.74Q51.75 3.70 52.10 2.66Q52.45 1.63 52.66 0.72L52.66 0.72L55.66 0.72Q54.66 4.13 53.43 7.00Q52.21 9.86 51.13 12L51.13 12ZM56.74 6.46L56.74 6.46Q56.74 4.97 57.20 3.84Q57.66 2.71 58.40 1.96Q59.14 1.20 60.10 0.82Q61.06 0.43 62.07 0.43L62.07 0.43Q64.57 0.43 65.86 1.91Q67.16 3.38 67.16 6.22L67.16 6.22Q67.16 6.50 67.15 6.82Q67.14 7.13 67.11 7.32L67.11 7.32L59.79 7.32Q59.79 8.42 60.70 9.06Q61.62 9.70 63.06 9.70L63.06 9.70Q63.94 9.70 64.75 9.50Q65.55 9.31 66.10 9.12L66.10 9.12L66.51 11.64Q65.74 11.90 64.88 12.08Q64.02 12.26 62.94 12.26L62.94 12.26Q61.50 12.26 60.36 11.89Q59.22 11.52 58.41 10.79Q57.61 10.06 57.18 8.98Q56.74 7.90 56.74 6.46ZM59.79 5.28L64.30 5.28Q64.30 4.82 64.18 4.40Q64.06 3.98 63.80 3.65Q63.54 3.31 63.13 3.11Q62.72 2.90 62.12 2.90L62.12 2.90Q61.54 2.90 61.12 3.10Q60.70 3.29 60.43 3.62Q60.15 3.96 60.00 4.39Q59.84 4.82 59.79 5.28L59.79 5.28ZM74.31 12L71.34 12L71.34 3.17L68.86 3.17L68.86 0.72L71.34 0.72L71.34 0.07Q71.34-1.30 71.73-2.20Q72.13-3.10 72.80-3.64Q73.47-4.18 74.34-4.40Q75.20-4.63 76.11-4.63L76.11-4.63Q77.05-4.63 78.03-4.46Q79.02-4.30 79.81-3.91L79.81-3.91L79.30-1.51Q78.75-1.70 77.92-1.91Q77.10-2.11 76.35-2.11L76.35-2.11Q75.94-2.11 75.57-2.04Q75.20-1.97 74.92-1.73Q74.65-1.49 74.48-1.04Q74.31-0.60 74.31 0.12L74.31 0.12L74.31 0.72L78.94 0.72L78.94 3.17L74.31 3.17L74.31 12ZM91.02 0.98L90.49 3.72Q90.20 3.65 89.80 3.58Q89.41 3.50 89 3.44Q88.59 3.38 88.21 3.36Q87.82 3.34 87.56 3.34L87.56 3.34Q86.94 3.34 86.34 3.40Q85.74 3.46 85.11 3.62L85.11 3.62L85.11 12L82.14 12L82.14 1.46Q83.31 1.03 84.55 0.77Q85.78 0.50 87.44 0.50L87.44 0.50Q87.68 0.50 88.12 0.53Q88.57 0.55 89.07 0.61Q89.58 0.67 90.09 0.76Q90.61 0.84 91.02 0.98L91.02 0.98ZM103.33 6.34L103.33 6.34Q103.33 7.68 102.94 8.77Q102.56 9.86 101.86 10.66Q101.17 11.45 100.20 11.88Q99.22 12.31 98.02 12.31L98.02 12.31Q96.82 12.31 95.85 11.88Q94.88 11.45 94.17 10.66Q93.46 9.86 93.08 8.77Q92.70 7.68 92.70 6.34L92.70 6.34Q92.70 5.02 93.09 3.92Q93.49 2.83 94.20 2.05Q94.90 1.27 95.89 0.85Q96.87 0.43 98.02 0.43L98.02 0.43Q99.20 0.43 100.17 0.85Q101.14 1.27 101.85 2.05Q102.56 2.83 102.94 3.92Q103.33 5.02 103.33 6.34ZM95.70 6.36L95.70 6.36Q95.70 7.87 96.24 8.81Q96.78 9.74 97.98 9.74L97.98 9.74Q99.13 9.74 99.72 8.81Q100.30 7.87 100.30 6.36L100.30 6.36Q100.30 4.85 99.76 3.92Q99.22 3 98.02 3L98.02 3Q96.87 3 96.28 3.92Q95.70 4.85 95.70 6.36ZM105.51 12L105.51 1.08Q106.30 0.86 107.47 0.67Q108.63 0.48 110 0.48L110 0.48Q111.34 0.48 112.23 0.85Q113.12 1.22 113.64 1.91Q114.15 2.59 114.37 3.54Q114.58 4.49 114.58 5.64L114.58 5.64L114.58 12L111.63 12L111.63 6.02Q111.63 4.44 111.27 3.74Q110.91 3.05 109.81 3.05L109.81 3.05Q109.47 3.05 109.15 3.07Q108.82 3.10 108.46 3.14L108.46 3.14L108.46 12L105.51 12ZM119.43 7.80L119.43 3.17L116.86 3.17L116.86 0.72L119.43 0.72L119.43-2.11L122.38-2.59L122.38 0.72L127.11 0.72L127.11 3.17L122.38 3.17L122.38 7.73Q122.38 8.35 122.50 8.74Q122.62 9.12 122.84 9.34Q123.06 9.55 123.37 9.62Q123.68 9.70 124.06 9.70L124.06 9.70Q124.47 9.70 124.82 9.67Q125.17 9.65 125.49 9.59Q125.82 9.53 126.16 9.41Q126.51 9.29 126.92 9.10L126.92 9.10L127.33 11.64Q126.51 11.98 125.56 12.12Q124.62 12.26 123.73 12.26L123.73 12.26Q122.70 12.26 121.90 12.10Q121.11 11.93 120.56 11.45Q120.01 10.97 119.72 10.09Q119.43 9.22 119.43 7.80L119.43 7.80ZM143.65 4.56L143.65 4.56Q143.65 5.64 143.73 6.59Q143.82 7.54 144.07 8.23Q144.32 8.93 144.78 9.34Q145.23 9.74 146 9.74L146 9.74Q146.74 9.74 147.21 9.34Q147.68 8.93 147.93 8.22Q148.18 7.51 148.27 6.58Q148.35 5.64 148.35 4.56L148.35 4.56Q148.35 3.48 148.27 2.53Q148.18 1.58 147.93 0.89Q147.68 0.19 147.22-0.22Q146.77-0.62 146-0.62L146-0.62Q145.23-0.62 144.78-0.22Q144.32 0.19 144.07 0.90Q143.82 1.61 143.73 2.54Q143.65 3.48 143.65 4.56ZM140.65 4.56L140.65 4.56Q140.65 0.72 142.06-1.24Q143.48-3.19 146-3.19L146-3.19Q148.62-3.19 149.98-1.24Q151.35 0.72 151.35 4.56L151.35 4.56Q151.35 8.40 149.96 10.36Q148.57 12.31 146.02 12.31L146.02 12.31Q143.41 12.31 142.03 10.36Q140.65 8.40 140.65 4.56ZM160.28 6.29L160.28 6.29Q160.28 4.70 159.76 3.86Q159.25 3.02 158.19 3.02L158.19 3.02Q157.71 3.02 157.24 3.16Q156.78 3.29 156.44 3.48L156.44 3.48L156.44 9.60Q156.78 9.67 157.15 9.70Q157.52 9.72 157.78 9.72L157.78 9.72Q158.94 9.72 159.61 8.94Q160.28 8.16 160.28 6.29ZM163.28 6.36L163.28 6.36Q163.28 7.70 162.92 8.80Q162.56 9.89 161.86 10.66Q161.17 11.42 160.16 11.84Q159.15 12.26 157.86 12.26L157.86 12.26Q156.70 12.26 155.50 12.10Q154.30 11.93 153.49 11.66L153.49 11.66L153.49-4.15L156.44-4.66L156.44 0.98Q157.06 0.70 157.64 0.59Q158.22 0.48 158.79 0.48L158.79 0.48Q159.90 0.48 160.74 0.90Q161.58 1.32 162.14 2.10Q162.70 2.88 162.99 3.96Q163.28 5.04 163.28 6.36ZM173.60 0.72L173.60 11.26Q173.60 12.62 173.26 13.55Q172.93 14.47 172.34 15.04Q171.75 15.60 170.95 15.84Q170.14 16.08 169.21 16.08L169.21 16.08Q168.06 16.08 167.07 15.79Q166.09 15.50 165.18 15.05L165.18 15.05L166.09 12.55Q166.69 12.89 167.54 13.19Q168.39 13.49 169.09 13.49L169.09 13.49Q169.83 13.49 170.24 13.04Q170.65 12.60 170.65 11.40L170.65 11.40L170.65 3.17L166.09 3.17L166.09 0.72L173.60 0.72ZM173.24-2.52L173.24-2.52Q173.24-1.66 172.69-1.15Q172.14-0.65 171.37-0.65L171.37-0.65Q170.60-0.65 170.06-1.15Q169.52-1.66 169.52-2.52L169.52-2.52Q169.52-3.41 170.06-3.91Q170.60-4.42 171.37-4.42L171.37-4.42Q172.14-4.42 172.69-3.91Q173.24-3.41 173.24-2.52ZM176.74 6.46L176.74 6.46Q176.74 4.97 177.20 3.84Q177.66 2.71 178.40 1.96Q179.14 1.20 180.10 0.82Q181.06 0.43 182.07 0.43L182.07 0.43Q184.57 0.43 185.86 1.91Q187.16 3.38 187.16 6.22L187.16 6.22Q187.16 6.50 187.15 6.82Q187.14 7.13 187.11 7.32L187.11 7.32L179.79 7.32Q179.79 8.42 180.70 9.06Q181.62 9.70 183.06 9.70L183.06 9.70Q183.94 9.70 184.75 9.50Q185.55 9.31 186.10 9.12L186.10 9.12L186.51 11.64Q185.74 11.90 184.88 12.08Q184.02 12.26 182.94 12.26L182.94 12.26Q181.50 12.26 180.36 11.89Q179.22 11.52 178.41 10.79Q177.61 10.06 177.18 8.98Q176.74 7.90 176.74 6.46ZM179.79 5.28L184.30 5.28Q184.30 4.82 184.18 4.40Q184.06 3.98 183.80 3.65Q183.54 3.31 183.13 3.11Q182.72 2.90 182.12 2.90L182.12 2.90Q181.54 2.90 181.12 3.10Q180.70 3.29 180.43 3.62Q180.15 3.96 180.00 4.39Q179.84 4.82 179.79 5.28L179.79 5.28ZM189.06 6.36L189.06 6.36Q189.06 5.14 189.44 4.06Q189.82 2.98 190.62 2.17Q191.41 1.37 192.62 0.90Q193.83 0.43 195.51 0.43L195.51 0.43Q196.52 0.43 197.34 0.58Q198.15 0.72 198.99 1.06L198.99 1.06L198.34 3.43Q197.86 3.26 197.28 3.13Q196.69 3 195.78 3L195.78 3Q194.72 3 194.01 3.25Q193.30 3.50 192.87 3.95Q192.44 4.39 192.25 5.02Q192.06 5.64 192.06 6.36L192.06 6.36Q192.06 7.92 192.93 8.81Q193.81 9.70 195.92 9.70L195.92 9.70Q196.62 9.70 197.37 9.60Q198.13 9.50 198.75 9.29L198.75 9.29L199.18 11.71Q198.56 11.95 197.67 12.11Q196.78 12.26 195.58 12.26L195.58 12.26Q193.86 12.26 192.62 11.81Q191.38 11.35 190.59 10.56Q189.80 9.77 189.43 8.69Q189.06 7.61 189.06 6.36ZM203.43 7.80L203.43 3.17L200.86 3.17L200.86 0.72L203.43 0.72L203.43-2.11L206.38-2.59L206.38 0.72L211.11 0.72L211.11 3.17L206.38 3.17L206.38 7.73Q206.38 8.35 206.50 8.74Q206.62 9.12 206.84 9.34Q207.06 9.55 207.37 9.62Q207.68 9.70 208.06 9.70L208.06 9.70Q208.47 9.70 208.82 9.67Q209.17 9.65 209.49 9.59Q209.82 9.53 210.16 9.41Q210.51 9.29 210.92 9.10L210.92 9.10L211.33 11.64Q210.51 11.98 209.56 12.12Q208.62 12.26 207.73 12.26L207.73 12.26Q206.70 12.26 205.90 12.10Q205.11 11.93 204.56 11.45Q204.01 10.97 203.72 10.09Q203.43 9.22 203.43 7.80L203.43 7.80Z"/>
    </g>
</svg>