<?xml version="1.0" encoding="UTF-8"?>
<svg height="26" width="171.6" version="1.1" xmlns="http://www.w3.org/2000/svg"><!--Created by Josélio de S. C. Júnior - 2021 - https://github.com/joseliojunior -->
    <defs>
        <pattern id="pattern"
                x="3" y="3" width="6" height="6"
                patternUnits="userSpaceOnUse"
                patternTransform="rotate(45)" >
            <rect height="6" width="6"
                fill="#ffffff"/>
            <line x1="0" y1="0" x2="0" y2="6"
                stroke="#888888"
                stroke-width="2" />
        </pattern>
    </defs>
    <rect
        height="24"
        width="169.6"
        rx="1"
        ry="1"
        x="1" y="1"
        fill="url(#pattern)" />
    <g transform="translate(0, 8)">
        <path fill="#000000" d="M23.30 3.60L24.74 3.60Q24.80 3.90 24.93 4.35Q25.06 4.80 25.21 5.34Q25.36 5.89 25.54 6.51Q25.73 7.14 25.90 7.79L25.90 7.79Q25.90 6.96 25.89 6.01Q25.87 5.06 25.86 4.06Q25.84 3.07 25.82 2.06Q25.81 1.04 25.81 0.10L25.81 0.10L27.63 0.10Q27.58 1.31 27.54 2.60Q27.49 3.89 27.42 5.16Q27.36 6.43 27.27 7.66Q27.18 8.90 27.07 10L27.07 10L25.44 10Q25.09 8.99 24.74 7.83Q24.38 6.67 24.03 5.62L24.03 5.62Q23.68 6.62 23.30 7.81Q22.91 8.99 22.59 10L22.59 10L20.96 10Q20.83 8.90 20.74 7.66Q20.64 6.42 20.57 5.14Q20.50 3.87 20.45 2.58Q20.40 1.30 20.37 0.10L20.37 0.10L22.19 0.10Q22.18 1.04 22.16 2.05Q22.14 3.06 22.13 4.06Q22.11 5.06 22.10 6.01Q22.08 6.96 22.08 7.79L22.08 7.79Q22.22 7.28 22.41 6.67Q22.59 6.06 22.76 5.47Q22.93 4.88 23.07 4.38Q23.22 3.89 23.30 3.60L23.30 3.60ZM32.02 8.59L32.02 8.59Q32.34 8.59 32.64 8.58Q32.94 8.58 33.17 8.54L33.17 8.54L33.17 6.82Q32.98 6.78 32.70 6.76Q32.43 6.74 32.21 6.74L32.21 6.74Q31.90 6.74 31.62 6.78Q31.33 6.82 31.11 6.91Q30.90 7.01 30.77 7.18Q30.64 7.36 30.64 7.65L30.64 7.65Q30.64 8.16 31.02 8.38Q31.41 8.59 32.02 8.59ZM31.84 2.29L31.84 2.29Q32.77 2.29 33.38 2.50Q34 2.72 34.37 3.11Q34.74 3.50 34.90 4.07Q35.06 4.64 35.06 5.34L35.06 5.34L35.06 9.82Q34.62 9.92 33.78 10.05Q32.93 10.18 31.87 10.18L31.87 10.18Q31.15 10.18 30.57 10.05Q29.98 9.92 29.57 9.62Q29.15 9.33 28.93 8.86Q28.70 8.38 28.70 7.70L28.70 7.70Q28.70 7.04 28.96 6.59Q29.22 6.14 29.65 5.87Q30.08 5.60 30.64 5.48Q31.20 5.36 31.81 5.36L31.81 5.36Q32.58 5.36 33.17 5.49L33.17 5.49L33.17 5.25Q33.17 4.69 32.82 4.31Q32.46 3.94 31.60 3.94L31.60 3.94Q31.04 3.94 30.52 4.02Q30 4.10 29.68 4.21L29.68 4.21L29.41 2.62Q29.78 2.50 30.45 2.39Q31.12 2.29 31.84 2.29ZM40.75 10L39.10 10Q38.38 8.58 37.64 6.66Q36.90 4.75 36.22 2.48L36.22 2.48L38.29 2.48Q38.43 3.09 38.63 3.78Q38.83 4.46 39.06 5.16Q39.28 5.86 39.51 6.51Q39.74 7.17 39.95 7.71L39.95 7.71Q40.16 7.17 40.42 6.51Q40.67 5.86 40.92 5.16Q41.17 4.46 41.40 3.78Q41.63 3.09 41.78 2.48L41.78 2.48L43.78 2.48Q43.10 4.75 42.29 6.66Q41.47 8.58 40.75 10L40.75 10ZM44.50 6.30L44.50 6.30Q44.50 5.31 44.80 4.56Q45.10 3.81 45.60 3.30Q46.10 2.80 46.74 2.54Q47.38 2.29 48.05 2.29L48.05 2.29Q49.71 2.29 50.58 3.27Q51.44 4.26 51.44 6.14L51.44 6.14Q51.44 6.34 51.43 6.54Q51.42 6.75 51.41 6.88L51.41 6.88L46.53 6.88Q46.53 7.62 47.14 8.04Q47.74 8.46 48.70 8.46L48.70 8.46Q49.30 8.46 49.83 8.34Q50.37 8.21 50.74 8.08L50.74 8.08L51.01 9.76Q50.50 9.94 49.92 10.06Q49.34 10.18 48.62 10.18L48.62 10.18Q47.66 10.18 46.90 9.93Q46.14 9.68 45.61 9.19Q45.07 8.70 44.78 7.98Q44.50 7.26 44.50 6.30ZM46.53 5.52L49.54 5.52Q49.54 5.22 49.46 4.94Q49.38 4.66 49.20 4.43Q49.02 4.21 48.75 4.07Q48.48 3.94 48.08 3.94L48.08 3.94Q47.70 3.94 47.42 4.06Q47.14 4.19 46.95 4.42Q46.77 4.64 46.66 4.93Q46.56 5.22 46.53 5.52L46.53 5.52ZM56.21 10L54.22 10L54.22 4.11L52.58 4.11L52.58 2.48L54.22 2.48L54.22 2.05Q54.22 1.14 54.49 0.54Q54.75-0.06 55.20-0.42Q55.65-0.78 56.22-0.94Q56.80-1.09 57.41-1.09L57.41-1.09Q58.03-1.09 58.69-0.98Q59.34-0.86 59.87-0.61L59.87-0.61L59.54 0.99Q59.17 0.86 58.62 0.73Q58.06 0.59 57.57 0.59L57.57 0.59Q57.30 0.59 57.05 0.64Q56.80 0.69 56.62 0.85Q56.43 1.01 56.32 1.30Q56.21 1.60 56.21 2.08L56.21 2.08L56.21 2.48L59.30 2.48L59.30 4.11L56.21 4.11L56.21 10ZM67.34 2.66L66.99 4.48Q66.80 4.43 66.54 4.38Q66.27 4.34 66 4.30Q65.73 4.26 65.47 4.24Q65.22 4.22 65.04 4.22L65.04 4.22Q64.62 4.22 64.22 4.26Q63.82 4.30 63.41 4.42L63.41 4.42L63.41 10L61.42 10L61.42 2.98Q62.21 2.69 63.03 2.51Q63.86 2.34 64.96 2.34L64.96 2.34Q65.12 2.34 65.42 2.35Q65.71 2.37 66.05 2.41Q66.38 2.45 66.73 2.50Q67.07 2.56 67.34 2.66L67.34 2.66ZM75.55 6.22L75.55 6.22Q75.55 7.12 75.30 7.85Q75.04 8.58 74.58 9.10Q74.11 9.63 73.46 9.92Q72.82 10.21 72.02 10.21L72.02 10.21Q71.22 10.21 70.57 9.92Q69.92 9.63 69.45 9.10Q68.98 8.58 68.72 7.85Q68.46 7.12 68.46 6.22L68.46 6.22Q68.46 5.34 68.73 4.62Q68.99 3.89 69.46 3.37Q69.94 2.85 70.59 2.57Q71.25 2.29 72.02 2.29L72.02 2.29Q72.80 2.29 73.45 2.57Q74.10 2.85 74.57 3.37Q75.04 3.89 75.30 4.62Q75.55 5.34 75.55 6.22ZM70.46 6.24L70.46 6.24Q70.46 7.25 70.82 7.87Q71.18 8.50 71.98 8.50L71.98 8.50Q72.75 8.50 73.14 7.87Q73.54 7.25 73.54 6.24L73.54 6.24Q73.54 5.23 73.18 4.62Q72.82 4 72.02 4L72.02 4Q71.25 4 70.86 4.62Q70.46 5.23 70.46 6.24ZM77.01 10L77.01 2.72Q77.54 2.58 78.31 2.45Q79.09 2.32 80 2.32L80 2.32Q80.90 2.32 81.49 2.57Q82.08 2.82 82.42 3.27Q82.77 3.73 82.91 4.36Q83.06 4.99 83.06 5.76L83.06 5.76L83.06 10L81.09 10L81.09 6.02Q81.09 4.96 80.85 4.50Q80.61 4.03 79.87 4.03L79.87 4.03Q79.65 4.03 79.43 4.05Q79.22 4.06 78.98 4.10L78.98 4.10L78.98 10L77.01 10ZM86.29 7.20L86.29 4.11L84.58 4.11L84.58 2.48L86.29 2.48L86.29 0.59L88.26 0.27L88.26 2.48L91.41 2.48L91.41 4.11L88.26 4.11L88.26 7.15Q88.26 7.57 88.34 7.82Q88.42 8.08 88.56 8.22Q88.70 8.37 88.91 8.42Q89.12 8.46 89.38 8.46L89.38 8.46Q89.65 8.46 89.88 8.45Q90.11 8.43 90.33 8.39Q90.54 8.35 90.78 8.27Q91.01 8.19 91.28 8.06L91.28 8.06L91.55 9.76Q91.01 9.98 90.38 10.08Q89.74 10.18 89.15 10.18L89.15 10.18Q88.46 10.18 87.94 10.06Q87.41 9.95 87.04 9.63Q86.67 9.31 86.48 8.73Q86.29 8.14 86.29 7.20L86.29 7.20ZM102.43 5.04L102.43 5.04Q102.43 5.76 102.49 6.39Q102.54 7.02 102.71 7.49Q102.88 7.95 103.18 8.22Q103.49 8.50 104 8.50L104 8.50Q104.50 8.50 104.81 8.22Q105.12 7.95 105.29 7.48Q105.46 7.01 105.51 6.38Q105.57 5.76 105.57 5.04L105.57 5.04Q105.57 4.32 105.51 3.69Q105.46 3.06 105.29 2.59Q105.12 2.13 104.82 1.86Q104.51 1.58 104 1.58L104 1.58Q103.49 1.58 103.18 1.86Q102.88 2.13 102.71 2.60Q102.54 3.07 102.49 3.70Q102.43 4.32 102.43 5.04ZM100.43 5.04L100.43 5.04Q100.43 2.48 101.38 1.18Q102.32-0.13 104-0.13L104-0.13Q105.74-0.13 106.66 1.18Q107.57 2.48 107.57 5.04L107.57 5.04Q107.57 7.60 106.64 8.90Q105.71 10.21 104.02 10.21L104.02 10.21Q102.27 10.21 101.35 8.90Q100.43 7.60 100.43 5.04ZM113.52 6.19L113.52 6.19Q113.52 5.14 113.18 4.58Q112.83 4.02 112.13 4.02L112.13 4.02Q111.81 4.02 111.50 4.10Q111.18 4.19 110.96 4.32L110.96 4.32L110.96 8.40Q111.18 8.45 111.43 8.46Q111.68 8.48 111.86 8.48L111.86 8.48Q112.62 8.48 113.07 7.96Q113.52 7.44 113.52 6.19ZM115.52 6.24L115.52 6.24Q115.52 7.14 115.28 7.86Q115.04 8.59 114.58 9.10Q114.11 9.62 113.44 9.90Q112.77 10.18 111.90 10.18L111.90 10.18Q111.14 10.18 110.34 10.06Q109.54 9.95 108.99 9.78L108.99 9.78L108.99-0.77L110.96-1.10L110.96 2.66Q111.38 2.46 111.76 2.39Q112.14 2.32 112.53 2.32L112.53 2.32Q113.26 2.32 113.82 2.60Q114.38 2.88 114.76 3.40Q115.14 3.92 115.33 4.64Q115.52 5.36 115.52 6.24ZM122.40 2.48L122.40 9.50Q122.40 10.42 122.18 11.03Q121.95 11.65 121.56 12.02Q121.17 12.40 120.63 12.56Q120.10 12.72 119.47 12.72L119.47 12.72Q118.70 12.72 118.05 12.53Q117.39 12.34 116.78 12.03L116.78 12.03L117.39 10.37Q117.79 10.59 118.36 10.79Q118.93 10.99 119.39 10.99L119.39 10.99Q119.89 10.99 120.16 10.70Q120.43 10.40 120.43 9.60L120.43 9.60L120.43 4.11L117.39 4.11L117.39 2.48L122.40 2.48ZM122.16 0.32L122.16 0.32Q122.16 0.90 121.79 1.23Q121.42 1.57 120.91 1.57L120.91 1.57Q120.40 1.57 120.04 1.23Q119.68 0.90 119.68 0.32L119.68 0.32Q119.68-0.27 120.04-0.61Q120.40-0.94 120.91-0.94L120.91-0.94Q121.42-0.94 121.79-0.61Q122.16-0.27 122.16 0.32ZM124.50 6.30L124.50 6.30Q124.50 5.31 124.80 4.56Q125.10 3.81 125.60 3.30Q126.10 2.80 126.74 2.54Q127.38 2.29 128.05 2.29L128.05 2.29Q129.71 2.29 130.58 3.27Q131.44 4.26 131.44 6.14L131.44 6.14Q131.44 6.34 131.43 6.54Q131.42 6.75 131.41 6.88L131.41 6.88L126.53 6.88Q126.53 7.62 127.14 8.04Q127.74 8.46 128.70 8.46L128.70 8.46Q129.30 8.46 129.83 8.34Q130.37 8.21 130.74 8.08L130.74 8.08L131.01 9.76Q130.50 9.94 129.92 10.06Q129.34 10.18 128.62 10.18L128.62 10.18Q127.66 10.18 126.90 9.93Q126.14 9.68 125.61 9.19Q125.07 8.70 124.78 7.98Q124.50 7.26 124.50 6.30ZM126.53 5.52L129.54 5.52Q129.54 5.22 129.46 4.94Q129.38 4.66 129.20 4.43Q129.02 4.21 128.75 4.07Q128.48 3.94 128.08 3.94L128.08 3.94Q127.70 3.94 127.42 4.06Q127.14 4.19 126.95 4.42Q126.77 4.64 126.66 4.93Q126.56 5.22 126.53 5.52L126.53 5.52ZM132.70 6.24L132.70 6.24Q132.70 5.42 132.96 4.70Q133.22 3.98 133.74 3.45Q134.27 2.91 135.08 2.60Q135.89 2.29 137.01 2.29L137.01 2.29Q137.68 2.29 138.22 2.38Q138.77 2.48 139.33 2.70L139.33 2.70L138.90 4.29Q138.58 4.18 138.18 4.09Q137.79 4 137.18 4L137.18 4Q136.48 4 136.01 4.17Q135.54 4.34 135.25 4.63Q134.96 4.93 134.83 5.34Q134.70 5.76 134.70 6.24L134.70 6.24Q134.70 7.28 135.29 7.87Q135.87 8.46 137.28 8.46L137.28 8.46Q137.74 8.46 138.25 8.40Q138.75 8.34 139.17 8.19L139.17 8.19L139.46 9.81Q139.04 9.97 138.45 10.07Q137.86 10.18 137.06 10.18L137.06 10.18Q135.90 10.18 135.08 9.87Q134.26 9.57 133.73 9.04Q133.20 8.51 132.95 7.79Q132.70 7.07 132.70 6.24ZM142.29 7.20L142.29 4.11L140.58 4.11L140.58 2.48L142.29 2.48L142.29 0.59L144.26 0.27L144.26 2.48L147.41 2.48L147.41 4.11L144.26 4.11L144.26 7.15Q144.26 7.57 144.34 7.82Q144.42 8.08 144.56 8.22Q144.70 8.37 144.91 8.42Q145.12 8.46 145.38 8.46L145.38 8.46Q145.65 8.46 145.88 8.45Q146.11 8.43 146.33 8.39Q146.54 8.35 146.78 8.27Q147.01 8.19 147.28 8.06L147.28 8.06L147.55 9.76Q147.01 9.98 146.38 10.08Q145.74 10.18 145.15 10.18L145.15 10.18Q144.46 10.18 143.94 10.06Q143.41 9.95 143.04 9.63Q142.67 9.31 142.48 8.73Q142.29 8.14 142.29 7.20L142.29 7.20Z"/>
    </g>
</svg>