<?xml version="1.0" encoding="UTF-8"?>
<svg height="26" width="147.3" version="1.1" xmlns="http://www.w3.org/2000/svg"><!--Created by Josélio de S. C. Júnior - 2021 - https://github.com/joseliojunior -->
    <rect
        height="24"
        width="145.3"
        rx="1"
        ry="1"
        x="1" y="1"
        fill="#F6B900"
        stroke="#5c4500"
        stroke-width="1" />
    <g transform="translate(0, 8)">
        <path fill="#5c4500" d="M22.98 10L21.01 10L21.01 0.10L27.07 0.10L27.07 1.73L22.98 1.73L22.98 4.13L26.56 4.13L26.56 5.76L22.98 5.76L22.98 10ZM32.54 0.32L32.54 0.32Q32.54 0.90 32.18 1.23Q31.81 1.57 31.30 1.57L31.30 1.57Q30.78 1.57 30.42 1.23Q30.06 0.90 30.06 0.32L30.06 0.32Q30.06-0.27 30.42-0.61Q30.78-0.94 31.30-0.94L31.30-0.94Q31.81-0.94 32.18-0.61Q32.54-0.27 32.54 0.32ZM35.22 8.10L35.47 9.68Q34.86 9.97 34.33 10.07Q33.79 10.18 33.34 10.18L33.34 10.18Q32.58 10.18 32.06 9.95Q31.54 9.73 31.22 9.30Q30.91 8.88 30.78 8.27Q30.66 7.66 30.66 6.88L30.66 6.88L30.66 4.11L28.58 4.11L28.58 2.48L32.62 2.48L32.62 7.14Q32.62 7.81 32.87 8.14Q33.12 8.46 33.70 8.46L33.70 8.46Q33.97 8.46 34.35 8.39Q34.74 8.32 35.22 8.10L35.22 8.10ZM43.22 8.10L43.47 9.68Q43.42 9.71 43.26 9.79Q43.09 9.87 42.82 9.96Q42.54 10.05 42.15 10.11Q41.76 10.18 41.26 10.18L41.26 10.18Q39.90 10.18 39.28 9.37Q38.66 8.56 38.66 7.01L38.66 7.01L38.66 0.62L36.58 0.62L36.58-1.01L40.62-1.01L40.62 7.15Q40.62 7.92 40.93 8.19Q41.23 8.46 41.70 8.46L41.70 8.46Q42.29 8.46 42.69 8.30Q43.09 8.14 43.22 8.10L43.22 8.10ZM44.50 6.30L44.50 6.30Q44.50 5.31 44.80 4.56Q45.10 3.81 45.60 3.30Q46.10 2.80 46.74 2.54Q47.38 2.29 48.05 2.29L48.05 2.29Q49.71 2.29 50.58 3.27Q51.44 4.26 51.44 6.14L51.44 6.14Q51.44 6.34 51.43 6.54Q51.42 6.75 51.41 6.88L51.41 6.88L46.53 6.88Q46.53 7.62 47.14 8.04Q47.74 8.46 48.70 8.46L48.70 8.46Q49.30 8.46 49.83 8.34Q50.37 8.21 50.74 8.08L50.74 8.08L51.01 9.76Q50.50 9.94 49.92 10.06Q49.34 10.18 48.62 10.18L48.62 10.18Q47.66 10.18 46.90 9.93Q46.14 9.68 45.61 9.19Q45.07 8.70 44.78 7.98Q44.50 7.26 44.50 6.30ZM46.53 5.52L49.54 5.52Q49.54 5.22 49.46 4.94Q49.38 4.66 49.20 4.43Q49.02 4.21 48.75 4.07Q48.48 3.94 48.08 3.94L48.08 3.94Q47.70 3.94 47.42 4.06Q47.14 4.19 46.95 4.42Q46.77 4.64 46.66 4.93Q46.56 5.22 46.53 5.52L46.53 5.52ZM57.52 6.19L57.52 6.19Q57.52 5.14 57.18 4.58Q56.83 4.02 56.13 4.02L56.13 4.02Q55.81 4.02 55.50 4.10Q55.18 4.19 54.96 4.32L54.96 4.32L54.96 8.40Q55.18 8.45 55.43 8.46Q55.68 8.48 55.86 8.48L55.86 8.48Q56.62 8.48 57.07 7.96Q57.52 7.44 57.52 6.19ZM59.52 6.24L59.52 6.24Q59.52 7.14 59.28 7.86Q59.04 8.59 58.58 9.10Q58.11 9.62 57.44 9.90Q56.77 10.18 55.90 10.18L55.90 10.18Q55.14 10.18 54.34 10.06Q53.54 9.95 52.99 9.78L52.99 9.78L52.99-0.77L54.96-1.10L54.96 2.66Q55.38 2.46 55.76 2.39Q56.14 2.32 56.53 2.32L56.53 2.32Q57.26 2.32 57.82 2.60Q58.38 2.88 58.76 3.40Q59.14 3.92 59.33 4.64Q59.52 5.36 59.52 6.24ZM60.50 6.30L60.50 6.30Q60.50 5.31 60.80 4.56Q61.10 3.81 61.60 3.30Q62.10 2.80 62.74 2.54Q63.38 2.29 64.05 2.29L64.05 2.29Q65.71 2.29 66.58 3.27Q67.44 4.26 67.44 6.14L67.44 6.14Q67.44 6.34 67.43 6.54Q67.42 6.75 67.41 6.88L67.41 6.88L62.53 6.88Q62.53 7.62 63.14 8.04Q63.74 8.46 64.70 8.46L64.70 8.46Q65.30 8.46 65.83 8.34Q66.37 8.21 66.74 8.08L66.74 8.08L67.01 9.76Q66.50 9.94 65.92 10.06Q65.34 10.18 64.62 10.18L64.62 10.18Q63.66 10.18 62.90 9.93Q62.14 9.68 61.61 9.19Q61.07 8.70 60.78 7.98Q60.50 7.26 60.50 6.30ZM62.53 5.52L65.54 5.52Q65.54 5.22 65.46 4.94Q65.38 4.66 65.20 4.43Q65.02 4.21 64.75 4.07Q64.48 3.94 64.08 3.94L64.08 3.94Q63.70 3.94 63.42 4.06Q63.14 4.19 62.95 4.42Q62.77 4.64 62.66 4.93Q62.56 5.22 62.53 5.52L62.53 5.52ZM69.01 10L69.01 2.72Q69.54 2.58 70.31 2.45Q71.09 2.32 72 2.32L72 2.32Q72.90 2.32 73.49 2.57Q74.08 2.82 74.42 3.27Q74.77 3.73 74.91 4.36Q75.06 4.99 75.06 5.76L75.06 5.76L75.06 10L73.09 10L73.09 6.02Q73.09 4.96 72.85 4.50Q72.61 4.03 71.87 4.03L71.87 4.03Q71.65 4.03 71.43 4.05Q71.22 4.06 70.98 4.10L70.98 4.10L70.98 10L69.01 10ZM76.70 6.24L76.70 6.24Q76.70 5.42 76.96 4.70Q77.22 3.98 77.74 3.45Q78.27 2.91 79.08 2.60Q79.89 2.29 81.01 2.29L81.01 2.29Q81.68 2.29 82.22 2.38Q82.77 2.48 83.33 2.70L83.33 2.70L82.90 4.29Q82.58 4.18 82.18 4.09Q81.79 4 81.18 4L81.18 4Q80.48 4 80.01 4.17Q79.54 4.34 79.25 4.63Q78.96 4.93 78.83 5.34Q78.70 5.76 78.70 6.24L78.70 6.24Q78.70 7.28 79.29 7.87Q79.87 8.46 81.28 8.46L81.28 8.46Q81.74 8.46 82.25 8.40Q82.75 8.34 83.17 8.19L83.17 8.19L83.46 9.81Q83.04 9.97 82.45 10.07Q81.86 10.18 81.06 10.18L81.06 10.18Q79.90 10.18 79.08 9.87Q78.26 9.57 77.73 9.04Q77.20 8.51 76.95 7.79Q76.70 7.07 76.70 6.24ZM86.98 10L85.01 10L85.01-0.77L86.98-1.10L86.98 2.54Q87.22 2.46 87.55 2.39Q87.89 2.32 88.14 2.32L88.14 2.32Q88.98 2.32 89.54 2.57Q90.10 2.82 90.43 3.27Q90.77 3.73 90.91 4.36Q91.06 4.99 91.06 5.76L91.06 5.76L91.06 10L89.09 10L89.09 6.02Q89.09 4.96 88.85 4.50Q88.61 4.03 87.94 4.03L87.94 4.03Q87.66 4.03 87.40 4.10Q87.14 4.16 86.98 4.21L86.98 4.21L86.98 10ZM103.30 3.60L104.74 3.60Q104.80 3.90 104.93 4.35Q105.06 4.80 105.21 5.34Q105.36 5.89 105.54 6.51Q105.73 7.14 105.90 7.79L105.90 7.79Q105.90 6.96 105.89 6.01Q105.87 5.06 105.86 4.06Q105.84 3.07 105.82 2.06Q105.81 1.04 105.81 0.10L105.81 0.10L107.63 0.10Q107.58 1.31 107.54 2.60Q107.49 3.89 107.42 5.16Q107.36 6.43 107.27 7.66Q107.18 8.90 107.07 10L107.07 10L105.44 10Q105.09 8.99 104.74 7.83Q104.38 6.67 104.03 5.62L104.03 5.62Q103.68 6.62 103.30 7.81Q102.91 8.99 102.59 10L102.59 10L100.96 10Q100.83 8.90 100.74 7.66Q100.64 6.42 100.57 5.14Q100.50 3.87 100.45 2.58Q100.40 1.30 100.37 0.10L100.37 0.10L102.19 0.10Q102.18 1.04 102.16 2.05Q102.14 3.06 102.13 4.06Q102.11 5.06 102.10 6.01Q102.08 6.96 102.08 7.79L102.08 7.79Q102.22 7.28 102.41 6.67Q102.59 6.06 102.76 5.47Q102.93 4.88 103.07 4.38Q103.22 3.89 103.30 3.60L103.30 3.60ZM108.94 0.10L110.58 0.10Q110.69 0.43 110.86 0.96Q111.02 1.49 111.22 2.10Q111.41 2.70 111.60 3.33Q111.79 3.95 111.97 4.48L111.97 4.48Q112.16 3.89 112.37 3.26Q112.58 2.62 112.77 2.04Q112.96 1.46 113.12 0.94Q113.28 0.43 113.41 0.10L113.41 0.10L115.04 0.10Q115.15 1.39 115.26 2.62Q115.36 3.86 115.43 5.06Q115.50 6.27 115.55 7.50Q115.60 8.72 115.63 10L115.63 10L113.82 10L113.92 2.30L112.70 6.50L111.26 6.50L110.10 2.30L110.18 10L108.37 10Q108.42 8.78 108.47 7.47Q108.53 6.16 108.59 4.86Q108.66 3.57 108.74 2.35Q108.83 1.14 108.94 0.10L108.94 0.10ZM123.36 8.37L123.36 10L117.14 10L117.14 0.10L119.12 0.10L119.12 8.37L123.36 8.37Z"/>
    </g>
</svg>