<?xml version="1.0" encoding="UTF-8"?>
<svg height="34" width="199.29999999999998" version="1.1" xmlns="http://www.w3.org/2000/svg"><!--Created by Josélio de S. C. Júnior - 2021 - https://github.com/joseliojunior -->
    <rect
        height="32"
        width="197.29999999999998"
        rx="1"
        ry="1"
        x="1" y="1"
        fill="#F6B900"
        stroke="#5c4500"
        stroke-width="1" />
    <g transform="translate(0, 12)">
        <path fill="#5c4500" stroke="none" d="M24.46 12L21.51 12L21.51-2.86L30.61-2.86L30.61-0.41L24.46-0.41L24.46 3.19L29.84 3.19L29.84 5.64L24.46 5.64L24.46 12ZM38.82-2.52L38.82-2.52Q38.82-1.66 38.26-1.15Q37.71-0.65 36.94-0.65L36.94-0.65Q36.18-0.65 35.64-1.15Q35.10-1.66 35.10-2.52L35.10-2.52Q35.10-3.41 35.64-3.91Q36.18-4.42 36.94-4.42L36.94-4.42Q37.71-4.42 38.26-3.91Q38.82-3.41 38.82-2.52ZM42.82 9.14L43.21 11.52Q42.30 11.95 41.49 12.11Q40.69 12.26 40.02 12.26L40.02 12.26Q38.86 12.26 38.08 11.93Q37.30 11.59 36.84 10.96Q36.37 10.32 36.18 9.41Q35.98 8.50 35.98 7.32L35.98 7.32L35.98 3.17L32.86 3.17L32.86 0.72L38.94 0.72L38.94 7.70Q38.94 8.71 39.31 9.20Q39.68 9.70 40.54 9.70L40.54 9.70Q40.95 9.70 41.53 9.59Q42.10 9.48 42.82 9.14L42.82 9.14ZM54.82 9.14L55.21 11.52Q55.14 11.57 54.88 11.69Q54.63 11.81 54.22 11.94Q53.82 12.07 53.23 12.17Q52.64 12.26 51.90 12.26L51.90 12.26Q49.86 12.26 48.92 11.05Q47.98 9.84 47.98 7.51L47.98 7.51L47.98-2.06L44.86-2.06L44.86-4.51L50.94-4.51L50.94 7.73Q50.94 8.88 51.39 9.29Q51.85 9.70 52.54 9.70L52.54 9.70Q53.43 9.70 54.03 9.46Q54.63 9.22 54.82 9.14L54.82 9.14ZM56.74 6.46L56.74 6.46Q56.74 4.97 57.20 3.84Q57.66 2.71 58.40 1.96Q59.14 1.20 60.10 0.82Q61.06 0.43 62.07 0.43L62.07 0.43Q64.57 0.43 65.86 1.91Q67.16 3.38 67.16 6.22L67.16 6.22Q67.16 6.50 67.15 6.82Q67.14 7.13 67.11 7.32L67.11 7.32L59.79 7.32Q59.79 8.42 60.70 9.06Q61.62 9.70 63.06 9.70L63.06 9.70Q63.94 9.70 64.75 9.50Q65.55 9.31 66.10 9.12L66.10 9.12L66.51 11.64Q65.74 11.90 64.88 12.08Q64.02 12.26 62.94 12.26L62.94 12.26Q61.50 12.26 60.36 11.89Q59.22 11.52 58.41 10.79Q57.61 10.06 57.18 8.98Q56.74 7.90 56.74 6.46ZM59.79 5.28L64.30 5.28Q64.30 4.82 64.18 4.40Q64.06 3.98 63.80 3.65Q63.54 3.31 63.13 3.11Q62.72 2.90 62.12 2.90L62.12 2.90Q61.54 2.90 61.12 3.10Q60.70 3.29 60.43 3.62Q60.15 3.96 60.00 4.39Q59.84 4.82 59.79 5.28L59.79 5.28ZM76.28 6.29L76.28 6.29Q76.28 4.70 75.76 3.86Q75.25 3.02 74.19 3.02L74.19 3.02Q73.71 3.02 73.24 3.16Q72.78 3.29 72.44 3.48L72.44 3.48L72.44 9.60Q72.78 9.67 73.15 9.70Q73.52 9.72 73.78 9.72L73.78 9.72Q74.94 9.72 75.61 8.94Q76.28 8.16 76.28 6.29ZM79.28 6.36L79.28 6.36Q79.28 7.70 78.92 8.80Q78.56 9.89 77.86 10.66Q77.17 11.42 76.16 11.84Q75.15 12.26 73.86 12.26L73.86 12.26Q72.70 12.26 71.50 12.10Q70.30 11.93 69.49 11.66L69.49 11.66L69.49-4.15L72.44-4.66L72.44 0.98Q73.06 0.70 73.64 0.59Q74.22 0.48 74.79 0.48L74.79 0.48Q75.90 0.48 76.74 0.90Q77.58 1.32 78.14 2.10Q78.70 2.88 78.99 3.96Q79.28 5.04 79.28 6.36ZM80.74 6.46L80.74 6.46Q80.74 4.97 81.20 3.84Q81.66 2.71 82.40 1.96Q83.14 1.20 84.10 0.82Q85.06 0.43 86.07 0.43L86.07 0.43Q88.57 0.43 89.86 1.91Q91.16 3.38 91.16 6.22L91.16 6.22Q91.16 6.50 91.15 6.82Q91.14 7.13 91.11 7.32L91.11 7.32L83.79 7.32Q83.79 8.42 84.70 9.06Q85.62 9.70 87.06 9.70L87.06 9.70Q87.94 9.70 88.75 9.50Q89.55 9.31 90.10 9.12L90.10 9.12L90.51 11.64Q89.74 11.90 88.88 12.08Q88.02 12.26 86.94 12.26L86.94 12.26Q85.50 12.26 84.36 11.89Q83.22 11.52 82.41 10.79Q81.61 10.06 81.18 8.98Q80.74 7.90 80.74 6.46ZM83.79 5.28L88.30 5.28Q88.30 4.82 88.18 4.40Q88.06 3.98 87.80 3.65Q87.54 3.31 87.13 3.11Q86.72 2.90 86.12 2.90L86.12 2.90Q85.54 2.90 85.12 3.10Q84.70 3.29 84.43 3.62Q84.15 3.96 84.00 4.39Q83.84 4.82 83.79 5.28L83.79 5.28ZM93.51 12L93.51 1.08Q94.30 0.86 95.47 0.67Q96.63 0.48 98 0.48L98 0.48Q99.34 0.48 100.23 0.85Q101.12 1.22 101.64 1.91Q102.15 2.59 102.37 3.54Q102.58 4.49 102.58 5.64L102.58 5.64L102.58 12L99.63 12L99.63 6.02Q99.63 4.44 99.27 3.74Q98.91 3.05 97.81 3.05L97.81 3.05Q97.47 3.05 97.15 3.07Q96.82 3.10 96.46 3.14L96.46 3.14L96.46 12L93.51 12ZM105.06 6.36L105.06 6.36Q105.06 5.14 105.44 4.06Q105.82 2.98 106.62 2.17Q107.41 1.37 108.62 0.90Q109.83 0.43 111.51 0.43L111.51 0.43Q112.52 0.43 113.34 0.58Q114.15 0.72 114.99 1.06L114.99 1.06L114.34 3.43Q113.86 3.26 113.28 3.13Q112.69 3 111.78 3L111.78 3Q110.72 3 110.01 3.25Q109.30 3.50 108.87 3.95Q108.44 4.39 108.25 5.02Q108.06 5.64 108.06 6.36L108.06 6.36Q108.06 7.92 108.93 8.81Q109.81 9.70 111.92 9.70L111.92 9.70Q112.62 9.70 113.37 9.60Q114.13 9.50 114.75 9.29L114.75 9.29L115.18 11.71Q114.56 11.95 113.67 12.11Q112.78 12.26 111.58 12.26L111.58 12.26Q109.86 12.26 108.62 11.81Q107.38 11.35 106.59 10.56Q105.80 9.77 105.43 8.69Q105.06 7.61 105.06 6.36ZM120.46 12L117.51 12L117.51-4.15L120.46-4.66L120.46 0.82Q120.82 0.70 121.33 0.59Q121.83 0.48 122.22 0.48L122.22 0.48Q123.46 0.48 124.30 0.85Q125.14 1.22 125.65 1.91Q126.15 2.59 126.37 3.54Q126.58 4.49 126.58 5.64L126.58 5.64L126.58 12L123.63 12L123.63 6.02Q123.63 4.44 123.27 3.74Q122.91 3.05 121.90 3.05L121.90 3.05Q121.50 3.05 121.10 3.14Q120.70 3.24 120.46 3.31L120.46 3.31L120.46 12ZM144.94 2.40L147.10 2.40Q147.20 2.86 147.39 3.53Q147.58 4.20 147.81 5.02Q148.04 5.83 148.32 6.77Q148.59 7.70 148.86 8.69L148.86 8.69Q148.86 7.44 148.83 6.01Q148.81 4.58 148.78 3.10Q148.76 1.61 148.74 0.08Q148.71-1.44 148.71-2.86L148.71-2.86L151.45-2.86Q151.38-1.03 151.30 0.90Q151.23 2.83 151.14 4.74Q151.04 6.65 150.91 8.50Q150.78 10.34 150.61 12L150.61 12L148.16 12Q147.63 10.49 147.10 8.75Q146.58 7.01 146.05 5.42L146.05 5.42Q145.52 6.94 144.94 8.71Q144.37 10.49 143.89 12L143.89 12L141.44 12Q141.25 10.34 141.10 8.48Q140.96 6.62 140.85 4.72Q140.74 2.81 140.67 0.88Q140.60-1.06 140.55-2.86L140.55-2.86L143.29-2.86Q143.26-1.44 143.24 0.07Q143.22 1.58 143.19 3.08Q143.17 4.58 143.14 6.01Q143.12 7.44 143.12 8.69L143.12 8.69Q143.34 7.92 143.61 7.01Q143.89 6.10 144.14 5.21Q144.39 4.32 144.61 3.58Q144.82 2.83 144.94 2.40L144.94 2.40ZM153.42-2.86L155.86-2.86Q156.03-2.35 156.28-1.56Q156.54-0.77 156.82 0.14Q157.11 1.06 157.40 1.99Q157.69 2.93 157.95 3.72L157.95 3.72Q158.24 2.83 158.55 1.88Q158.86 0.94 159.15 0.06Q159.44-0.82 159.68-1.58Q159.92-2.35 160.11-2.86L160.11-2.86L162.56-2.86Q162.73-0.91 162.88 0.94Q163.04 2.78 163.15 4.60Q163.26 6.41 163.33 8.24Q163.40 10.08 163.45 12L163.45 12L160.74 12L160.88 0.46L159.06 6.74L156.90 6.74L155.14 0.46L155.26 12L152.55 12Q152.62 10.18 152.71 8.21Q152.79 6.24 152.89 4.30Q152.98 2.35 153.12 0.53Q153.25-1.30 153.42-2.86L153.42-2.86ZM175.04 9.55L175.04 12L165.70 12L165.70-2.86L168.68-2.86L168.68 9.55L175.04 9.55Z"/>
    </g>
</svg>