<?xml version="1.0" encoding="UTF-8"?>
<svg height="26" width="195.9" version="1.1" xmlns="http://www.w3.org/2000/svg"><!--Created by Josélio de S. C. Júnior - 2021 - https://github.com/joseliojunior -->
    <rect
        height="24"
        width="193.9"
        rx="12"
        ry="12"
        x="1" y="1"
        fill="#df66e4"
        stroke="#69136c"
        stroke-width="1" />
    <g transform="translate(0, 8)">
        <path fill="#69136c" d="M20.40 0.10L27.60 0.10L27.60 1.73L24.99 1.73L24.99 10L23.01 10L23.01 1.73L20.40 1.73L20.40 0.10ZM28.50 6.30L28.50 6.30Q28.50 5.31 28.80 4.56Q29.10 3.81 29.60 3.30Q30.10 2.80 30.74 2.54Q31.38 2.29 32.05 2.29L32.05 2.29Q33.71 2.29 34.58 3.27Q35.44 4.26 35.44 6.14L35.44 6.14Q35.44 6.34 35.43 6.54Q35.42 6.75 35.41 6.88L35.41 6.88L30.53 6.88Q30.53 7.62 31.14 8.04Q31.74 8.46 32.70 8.46L32.70 8.46Q33.30 8.46 33.83 8.34Q34.37 8.21 34.74 8.08L34.74 8.08L35.01 9.76Q34.50 9.94 33.92 10.06Q33.34 10.18 32.62 10.18L32.62 10.18Q31.66 10.18 30.90 9.93Q30.14 9.68 29.61 9.19Q29.07 8.70 28.78 7.98Q28.50 7.26 28.50 6.30ZM30.53 5.52L33.54 5.52Q33.54 5.22 33.46 4.94Q33.38 4.66 33.20 4.43Q33.02 4.21 32.75 4.07Q32.48 3.94 32.08 3.94L32.08 3.94Q31.70 3.94 31.42 4.06Q31.14 4.19 30.95 4.42Q30.77 4.64 30.66 4.93Q30.56 5.22 30.53 5.52L30.53 5.52ZM38.40 2.48L40.06 4.83L41.60 2.48L43.60 2.48L41.17 6.10Q41.55 6.56 41.92 7.08Q42.29 7.60 42.62 8.13Q42.96 8.66 43.23 9.14Q43.50 9.62 43.70 10L43.70 10L41.65 10Q41.22 9.18 40.78 8.54Q40.35 7.90 39.97 7.39L39.97 7.39Q39.49 8.03 39.10 8.64Q38.72 9.25 38.32 10L38.32 10L36.32 10Q36.56 9.55 36.87 9.06Q37.18 8.58 37.53 8.07Q37.87 7.57 38.25 7.07Q38.62 6.58 38.98 6.13L38.98 6.13L36.34 2.48L38.40 2.48ZM46.29 7.20L46.29 4.11L44.58 4.11L44.58 2.48L46.29 2.48L46.29 0.59L48.26 0.27L48.26 2.48L51.41 2.48L51.41 4.11L48.26 4.11L48.26 7.15Q48.26 7.57 48.34 7.82Q48.42 8.08 48.56 8.22Q48.70 8.37 48.91 8.42Q49.12 8.46 49.38 8.46L49.38 8.46Q49.65 8.46 49.88 8.45Q50.11 8.43 50.33 8.39Q50.54 8.35 50.78 8.27Q51.01 8.19 51.28 8.06L51.28 8.06L51.55 9.76Q51.01 9.98 50.38 10.08Q49.74 10.18 49.15 10.18L49.15 10.18Q48.46 10.18 47.94 10.06Q47.41 9.95 47.04 9.63Q46.67 9.31 46.48 8.73Q46.29 8.14 46.29 7.20L46.29 7.20ZM52.94 0.10L54.58 0.10Q54.69 0.43 54.86 0.96Q55.02 1.49 55.22 2.10Q55.41 2.70 55.60 3.33Q55.79 3.95 55.97 4.48L55.97 4.48Q56.16 3.89 56.37 3.26Q56.58 2.62 56.77 2.04Q56.96 1.46 57.12 0.94Q57.28 0.43 57.41 0.10L57.41 0.10L59.04 0.10Q59.15 1.39 59.26 2.62Q59.36 3.86 59.43 5.06Q59.50 6.27 59.55 7.50Q59.60 8.72 59.63 10L59.63 10L57.82 10L57.92 2.30L56.70 6.50L55.26 6.50L54.10 2.30L54.18 10L52.37 10Q52.42 8.78 52.47 7.47Q52.53 6.16 52.59 4.86Q52.66 3.57 52.74 2.35Q52.83 1.14 52.94 0.10L52.94 0.10ZM64.02 8.59L64.02 8.59Q64.34 8.59 64.64 8.58Q64.94 8.58 65.17 8.54L65.17 8.54L65.17 6.82Q64.98 6.78 64.70 6.76Q64.43 6.74 64.21 6.74L64.21 6.74Q63.90 6.74 63.62 6.78Q63.33 6.82 63.11 6.91Q62.90 7.01 62.77 7.18Q62.64 7.36 62.64 7.65L62.64 7.65Q62.64 8.16 63.02 8.38Q63.41 8.59 64.02 8.59ZM63.84 2.29L63.84 2.29Q64.77 2.29 65.38 2.50Q66 2.72 66.37 3.11Q66.74 3.50 66.90 4.07Q67.06 4.64 67.06 5.34L67.06 5.34L67.06 9.82Q66.62 9.92 65.78 10.05Q64.93 10.18 63.87 10.18L63.87 10.18Q63.15 10.18 62.57 10.05Q61.98 9.92 61.57 9.62Q61.15 9.33 60.93 8.86Q60.70 8.38 60.70 7.70L60.70 7.70Q60.70 7.04 60.96 6.59Q61.22 6.14 61.65 5.87Q62.08 5.60 62.64 5.48Q63.20 5.36 63.81 5.36L63.81 5.36Q64.58 5.36 65.17 5.49L65.17 5.49L65.17 5.25Q65.17 4.69 64.82 4.31Q64.46 3.94 63.60 3.94L63.60 3.94Q63.04 3.94 62.52 4.02Q62 4.10 61.68 4.21L61.68 4.21L61.41 2.62Q61.78 2.50 62.45 2.39Q63.12 2.29 63.84 2.29ZM70.29 7.20L70.29 4.11L68.58 4.11L68.58 2.48L70.29 2.48L70.29 0.59L72.26 0.27L72.26 2.48L75.41 2.48L75.41 4.11L72.26 4.11L72.26 7.15Q72.26 7.57 72.34 7.82Q72.42 8.08 72.56 8.22Q72.70 8.37 72.91 8.42Q73.12 8.46 73.38 8.46L73.38 8.46Q73.65 8.46 73.88 8.45Q74.11 8.43 74.33 8.39Q74.54 8.35 74.78 8.27Q75.01 8.19 75.28 8.06L75.28 8.06L75.55 9.76Q75.01 9.98 74.38 10.08Q73.74 10.18 73.15 10.18L73.15 10.18Q72.46 10.18 71.94 10.06Q71.41 9.95 71.04 9.63Q70.67 9.31 70.48 8.73Q70.29 8.14 70.29 7.20L70.29 7.20ZM76.50 6.30L76.50 6.30Q76.50 5.31 76.80 4.56Q77.10 3.81 77.60 3.30Q78.10 2.80 78.74 2.54Q79.38 2.29 80.05 2.29L80.05 2.29Q81.71 2.29 82.58 3.27Q83.44 4.26 83.44 6.14L83.44 6.14Q83.44 6.34 83.43 6.54Q83.42 6.75 83.41 6.88L83.41 6.88L78.53 6.88Q78.53 7.62 79.14 8.04Q79.74 8.46 80.70 8.46L80.70 8.46Q81.30 8.46 81.83 8.34Q82.37 8.21 82.74 8.08L82.74 8.08L83.01 9.76Q82.50 9.94 81.92 10.06Q81.34 10.18 80.62 10.18L80.62 10.18Q79.66 10.18 78.90 9.93Q78.14 9.68 77.61 9.19Q77.07 8.70 76.78 7.98Q76.50 7.26 76.50 6.30ZM78.53 5.52L81.54 5.52Q81.54 5.22 81.46 4.94Q81.38 4.66 81.20 4.43Q81.02 4.21 80.75 4.07Q80.48 3.94 80.08 3.94L80.08 3.94Q79.70 3.94 79.42 4.06Q79.14 4.19 78.95 4.42Q78.77 4.64 78.66 4.93Q78.56 5.22 78.53 5.52L78.53 5.52ZM95.58-0.02L95.58-0.02Q97.47-0.02 98.51 0.76Q99.55 1.54 99.55 3.30L99.55 3.30Q99.55 5.07 98.50 5.86Q97.46 6.66 95.54 6.66L95.54 6.66L94.83 6.66L94.83 10L92.86 10L92.86 0.22Q93.15 0.16 93.51 0.11Q93.87 0.06 94.24 0.04Q94.61 0.02 94.96 0Q95.31-0.02 95.58-0.02ZM95.81 1.70L95.81 1.70Q95.63 1.70 95.32 1.70Q95.01 1.71 94.83 1.74L94.83 1.74L94.83 4.94L95.63 4.94Q96.58 4.94 97.06 4.57Q97.54 4.19 97.54 3.28L97.54 3.28Q97.54 2.42 97.06 2.06Q96.59 1.70 95.81 1.70ZM107.34 2.66L106.99 4.48Q106.80 4.43 106.54 4.38Q106.27 4.34 106 4.30Q105.73 4.26 105.47 4.24Q105.22 4.22 105.04 4.22L105.04 4.22Q104.62 4.22 104.22 4.26Q103.82 4.30 103.41 4.42L103.41 4.42L103.41 10L101.42 10L101.42 2.98Q102.21 2.69 103.03 2.51Q103.86 2.34 104.96 2.34L104.96 2.34Q105.12 2.34 105.42 2.35Q105.71 2.37 106.05 2.41Q106.38 2.45 106.73 2.50Q107.07 2.56 107.34 2.66L107.34 2.66ZM115.55 6.22L115.55 6.22Q115.55 7.12 115.30 7.85Q115.04 8.58 114.58 9.10Q114.11 9.63 113.46 9.92Q112.82 10.21 112.02 10.21L112.02 10.21Q111.22 10.21 110.57 9.92Q109.92 9.63 109.45 9.10Q108.98 8.58 108.72 7.85Q108.46 7.12 108.46 6.22L108.46 6.22Q108.46 5.34 108.73 4.62Q108.99 3.89 109.46 3.37Q109.94 2.85 110.59 2.57Q111.25 2.29 112.02 2.29L112.02 2.29Q112.80 2.29 113.45 2.57Q114.10 2.85 114.57 3.37Q115.04 3.89 115.30 4.62Q115.55 5.34 115.55 6.22ZM110.46 6.24L110.46 6.24Q110.46 7.25 110.82 7.87Q111.18 8.50 111.98 8.50L111.98 8.50Q112.75 8.50 113.14 7.87Q113.54 7.25 113.54 6.24L113.54 6.24Q113.54 5.23 113.18 4.62Q112.82 4 112.02 4L112.02 4Q111.25 4 110.86 4.62Q110.46 5.23 110.46 6.24ZM121.50 6.30L121.50 6.30Q121.50 5.30 121.10 4.65Q120.70 4 119.89 4L119.89 4Q119.66 4 119.41 4.02Q119.15 4.05 118.98 4.06L118.98 4.06L118.98 8.19Q119.17 8.32 119.49 8.40Q119.81 8.48 120.13 8.48L120.13 8.48Q120.83 8.48 121.17 7.91Q121.50 7.34 121.50 6.30ZM123.50 6.24L123.50 6.24Q123.50 7.10 123.31 7.83Q123.12 8.56 122.75 9.08Q122.38 9.60 121.82 9.89Q121.26 10.18 120.53 10.18L120.53 10.18Q119.78 10.18 118.98 9.81L118.98 9.81L118.98 12.64L117.01 12.64L117.01 2.72Q117.55 2.54 118.34 2.43Q119.14 2.32 119.90 2.32L119.90 2.32Q121.65 2.32 122.58 3.38Q123.50 4.43 123.50 6.24ZM124.50 6.30L124.50 6.30Q124.50 5.31 124.80 4.56Q125.10 3.81 125.60 3.30Q126.10 2.80 126.74 2.54Q127.38 2.29 128.05 2.29L128.05 2.29Q129.71 2.29 130.58 3.27Q131.44 4.26 131.44 6.14L131.44 6.14Q131.44 6.34 131.43 6.54Q131.42 6.75 131.41 6.88L131.41 6.88L126.53 6.88Q126.53 7.62 127.14 8.04Q127.74 8.46 128.70 8.46L128.70 8.46Q129.30 8.46 129.83 8.34Q130.37 8.21 130.74 8.08L130.74 8.08L131.01 9.76Q130.50 9.94 129.92 10.06Q129.34 10.18 128.62 10.18L128.62 10.18Q127.66 10.18 126.90 9.93Q126.14 9.68 125.61 9.19Q125.07 8.70 124.78 7.98Q124.50 7.26 124.50 6.30ZM126.53 5.52L129.54 5.52Q129.54 5.22 129.46 4.94Q129.38 4.66 129.20 4.43Q129.02 4.21 128.75 4.07Q128.48 3.94 128.08 3.94L128.08 3.94Q127.70 3.94 127.42 4.06Q127.14 4.19 126.95 4.42Q126.77 4.64 126.66 4.93Q126.56 5.22 126.53 5.52L126.53 5.52ZM139.34 2.66L138.99 4.48Q138.80 4.43 138.54 4.38Q138.27 4.34 138 4.30Q137.73 4.26 137.47 4.24Q137.22 4.22 137.04 4.22L137.04 4.22Q136.62 4.22 136.22 4.26Q135.82 4.30 135.41 4.42L135.41 4.42L135.41 10L133.42 10L133.42 2.98Q134.21 2.69 135.03 2.51Q135.86 2.34 136.96 2.34L136.96 2.34Q137.12 2.34 137.42 2.35Q137.71 2.37 138.05 2.41Q138.38 2.45 138.73 2.50Q139.07 2.56 139.34 2.66L139.34 2.66ZM142.29 7.20L142.29 4.11L140.58 4.11L140.58 2.48L142.29 2.48L142.29 0.59L144.26 0.27L144.26 2.48L147.41 2.48L147.41 4.11L144.26 4.11L144.26 7.15Q144.26 7.57 144.34 7.82Q144.42 8.08 144.56 8.22Q144.70 8.37 144.91 8.42Q145.12 8.46 145.38 8.46L145.38 8.46Q145.65 8.46 145.88 8.45Q146.11 8.43 146.33 8.39Q146.54 8.35 146.78 8.27Q147.01 8.19 147.28 8.06L147.28 8.06L147.55 9.76Q147.01 9.98 146.38 10.08Q145.74 10.18 145.15 10.18L145.15 10.18Q144.46 10.18 143.94 10.06Q143.41 9.95 143.04 9.63Q142.67 9.31 142.48 8.73Q142.29 8.14 142.29 7.20L142.29 7.20ZM152.54 0.32L152.54 0.32Q152.54 0.90 152.18 1.23Q151.81 1.57 151.30 1.57L151.30 1.57Q150.78 1.57 150.42 1.23Q150.06 0.90 150.06 0.32L150.06 0.32Q150.06-0.27 150.42-0.61Q150.78-0.94 151.30-0.94L151.30-0.94Q151.81-0.94 152.18-0.61Q152.54-0.27 152.54 0.32ZM155.22 8.10L155.47 9.68Q154.86 9.97 154.33 10.07Q153.79 10.18 153.34 10.18L153.34 10.18Q152.58 10.18 152.06 9.95Q151.54 9.73 151.22 9.30Q150.91 8.88 150.78 8.27Q150.66 7.66 150.66 6.88L150.66 6.88L150.66 4.11L148.58 4.11L148.58 2.48L152.62 2.48L152.62 7.14Q152.62 7.81 152.87 8.14Q153.12 8.46 153.70 8.46L153.70 8.46Q153.97 8.46 154.35 8.39Q154.74 8.32 155.22 8.10L155.22 8.10ZM156.50 6.30L156.50 6.30Q156.50 5.31 156.80 4.56Q157.10 3.81 157.60 3.30Q158.10 2.80 158.74 2.54Q159.38 2.29 160.05 2.29L160.05 2.29Q161.71 2.29 162.58 3.27Q163.44 4.26 163.44 6.14L163.44 6.14Q163.44 6.34 163.43 6.54Q163.42 6.75 163.41 6.88L163.41 6.88L158.53 6.88Q158.53 7.62 159.14 8.04Q159.74 8.46 160.70 8.46L160.70 8.46Q161.30 8.46 161.83 8.34Q162.37 8.21 162.74 8.08L162.74 8.08L163.01 9.76Q162.50 9.94 161.92 10.06Q161.34 10.18 160.62 10.18L160.62 10.18Q159.66 10.18 158.90 9.93Q158.14 9.68 157.61 9.19Q157.07 8.70 156.78 7.98Q156.50 7.26 156.50 6.30ZM158.53 5.52L161.54 5.52Q161.54 5.22 161.46 4.94Q161.38 4.66 161.20 4.43Q161.02 4.21 160.75 4.07Q160.48 3.94 160.08 3.94L160.08 3.94Q159.70 3.94 159.42 4.06Q159.14 4.19 158.95 4.42Q158.77 4.64 158.66 4.93Q158.56 5.22 158.53 5.52L158.53 5.52ZM167.65 8.51L167.65 8.51Q168.37 8.51 168.75 8.41Q169.14 8.30 169.14 7.98L169.14 7.98Q169.14 7.78 169.02 7.63Q168.90 7.49 168.68 7.38Q168.46 7.28 168.18 7.18Q167.90 7.09 167.60 6.99L167.60 6.99Q167.17 6.86 166.72 6.70Q166.27 6.53 165.90 6.27Q165.54 6.02 165.30 5.62Q165.06 5.23 165.06 4.64L165.06 4.64Q165.06 4.16 165.24 3.74Q165.42 3.31 165.82 2.98Q166.21 2.66 166.82 2.47Q167.42 2.29 168.27 2.29L168.27 2.29Q169.01 2.29 169.64 2.40Q170.27 2.51 170.74 2.72L170.74 2.72L170.43 4.38Q170.16 4.30 169.58 4.12Q169.01 3.94 168.29 3.94L168.29 3.94Q167.54 3.94 167.27 4.12Q167.01 4.30 167.01 4.51L167.01 4.51Q167.01 4.69 167.13 4.82Q167.25 4.96 167.45 5.07Q167.65 5.18 167.91 5.29Q168.18 5.39 168.48 5.49L168.48 5.49Q168.91 5.63 169.38 5.81Q169.84 5.98 170.22 6.25Q170.59 6.51 170.83 6.92Q171.07 7.33 171.07 7.92L171.07 7.92Q171.07 8.38 170.90 8.80Q170.72 9.22 170.31 9.52Q169.90 9.82 169.25 10Q168.59 10.18 167.63 10.18L167.63 10.18Q166.66 10.18 165.97 9.95Q165.28 9.73 164.86 9.55L164.86 9.55L165.17 7.90Q165.73 8.13 166.36 8.32Q166.99 8.51 167.65 8.51Z"/>
    </g>
</svg>