<?xml version="1.0" encoding="UTF-8"?>
<svg height="34" width="289.9" version="1.1" xmlns="http://www.w3.org/2000/svg">
    <rect
        height="32"
        width="287.9"
        rx="1"
        ry="1"
        x="1"
        y="1"
        fill="#df66e4"
        stroke="#69136c"
        stroke-width="1"
         />
    <g transform="translate(0, 14)">
        <path fill="#69136c" d="M10.70-6.33L23.30-6.33L23.30-3.48L18.74-3.48L18.74 11L15.26 11L15.26-3.48L10.70-3.48L10.70-6.33ZM24.87 4.53L24.87 4.53Q24.87 2.80 25.40 1.48Q25.93 0.16 26.80-0.72Q27.67-1.60 28.79-2.05Q29.91-2.50 31.08-2.50L31.08-2.50Q34.00-2.50 35.51-0.77Q37.02 0.95 37.02 4.25L37.02 4.25Q37.02 4.59 37.01 4.95Q36.99 5.32 36.96 5.54L36.96 5.54L28.42 5.54Q28.42 6.83 29.49 7.57Q30.55 8.31 32.23 8.31L32.23 8.31Q33.27 8.31 34.21 8.09Q35.14 7.86 35.79 7.64L35.79 7.64L36.26 10.58Q35.37 10.89 34.36 11.10Q33.35 11.31 32.09 11.31L32.09 11.31Q30.41 11.31 29.08 10.87Q27.75 10.44 26.81 9.59Q25.88 8.73 25.37 7.47Q24.87 6.21 24.87 4.53ZM28.42 3.16L33.69 3.16Q33.69 2.63 33.55 2.14Q33.41 1.65 33.10 1.26Q32.79 0.86 32.32 0.63Q31.84 0.39 31.14 0.39L31.14 0.39Q30.47 0.39 29.98 0.61Q29.49 0.84 29.17 1.23Q28.84 1.62 28.66 2.12Q28.48 2.63 28.42 3.16L28.42 3.16ZM42.20-2.16L45.11 1.96L47.80-2.16L51.30-2.16L47.04 4.17Q47.72 4.98 48.36 5.89Q49.00 6.80 49.59 7.72Q50.18 8.65 50.66 9.49Q51.13 10.33 51.47 11L51.47 11L47.88 11Q47.13 9.57 46.37 8.45Q45.62 7.33 44.94 6.44L44.94 6.44Q44.10 7.56 43.43 8.62Q42.76 9.68 42.06 11L42.06 11L38.56 11Q38.98 10.22 39.53 9.36Q40.07 8.51 40.67 7.63Q41.28 6.74 41.93 5.88Q42.59 5.01 43.21 4.22L43.21 4.22L38.59-2.16L42.20-2.16ZM56.00 6.10L56.00 0.70L53.01 0.70L53.01-2.16L56.00-2.16L56.00-5.46L59.45-6.02L59.45-2.16L64.96-2.16L64.96 0.70L59.45 0.70L59.45 6.02Q59.45 6.74 59.59 7.19Q59.73 7.64 59.98 7.89Q60.23 8.14 60.60 8.23Q60.96 8.31 61.41 8.31L61.41 8.31Q61.88 8.31 62.29 8.28Q62.70 8.26 63.07 8.19Q63.45 8.12 63.86 7.98Q64.26 7.84 64.74 7.61L64.74 7.61L65.22 10.58Q64.26 10.97 63.16 11.14Q62.05 11.31 61.02 11.31L61.02 11.31Q59.81 11.31 58.89 11.11Q57.96 10.92 57.32 10.36Q56.68 9.80 56.34 8.77Q56.00 7.75 56.00 6.10L56.00 6.10ZM67.65-6.33L70.51-6.33Q70.70-5.74 71.00-4.82Q71.29-3.90 71.63-2.83Q71.96-1.77 72.30-0.68Q72.64 0.42 72.94 1.34L72.94 1.34Q73.28 0.30 73.64-0.80Q74.01-1.91 74.34-2.93Q74.68-3.95 74.96-4.85Q75.24-5.74 75.46-6.33L75.46-6.33L78.32-6.33Q78.52-4.06 78.70-1.91Q78.88 0.25 79.01 2.36Q79.13 4.48 79.22 6.62Q79.30 8.76 79.36 11L79.36 11L76.19 11L76.36-2.47L74.23 4.87L71.71 4.87L69.67-2.47L69.81 11L66.64 11Q66.73 8.87 66.83 6.58Q66.92 4.28 67.04 2.01Q67.15-0.26 67.30-2.38Q67.46-4.51 67.65-6.33L67.65-6.33ZM87.03 8.54L87.03 8.54Q87.59 8.54 88.12 8.52Q88.65 8.51 89.04 8.45L89.04 8.45L89.04 5.43Q88.71 5.37 88.23 5.33Q87.76 5.29 87.36 5.29L87.36 5.29Q86.83 5.29 86.33 5.36Q85.82 5.43 85.45 5.60Q85.07 5.76 84.84 6.07Q84.62 6.38 84.62 6.88L84.62 6.88Q84.62 7.78 85.29 8.16Q85.96 8.54 87.03 8.54ZM86.72-2.50L86.72-2.50Q88.34-2.50 89.42-2.12Q90.50-1.74 91.14-1.05Q91.79-0.37 92.07 0.63Q92.35 1.62 92.35 2.85L92.35 2.85L92.35 10.69Q91.59 10.86 90.11 11.08Q88.62 11.31 86.78 11.31L86.78 11.31Q85.52 11.31 84.49 11.08Q83.47 10.86 82.74 10.34Q82.02 9.82 81.62 9.00Q81.23 8.17 81.23 6.97L81.23 6.97Q81.23 5.82 81.68 5.04Q82.13 4.25 82.88 3.78Q83.64 3.30 84.62 3.09Q85.60 2.88 86.66 2.88L86.66 2.88Q88.01 2.88 89.04 3.10L89.04 3.10L89.04 2.68Q89.04 1.70 88.43 1.05Q87.81 0.39 86.30 0.39L86.30 0.39Q85.32 0.39 84.41 0.53Q83.50 0.67 82.94 0.86L82.94 0.86L82.46-1.91Q83.11-2.13 84.28-2.31Q85.46-2.50 86.72-2.50ZM98.00 6.10L98.00 0.70L95.01 0.70L95.01-2.16L98.00-2.16L98.00-5.46L101.45-6.02L101.45-2.16L106.96-2.16L106.96 0.70L101.45 0.70L101.45 6.02Q101.45 6.74 101.59 7.19Q101.73 7.64 101.98 7.89Q102.23 8.14 102.60 8.23Q102.96 8.31 103.41 8.31L103.41 8.31Q103.88 8.31 104.29 8.28Q104.70 8.26 105.07 8.19Q105.45 8.12 105.86 7.98Q106.26 7.84 106.74 7.61L106.74 7.61L107.22 10.58Q106.26 10.97 105.16 11.14Q104.05 11.31 103.02 11.31L103.02 11.31Q101.81 11.31 100.89 11.11Q99.96 10.92 99.32 10.36Q98.68 9.80 98.34 8.77Q98.00 7.75 98.00 6.10L98.00 6.10ZM108.87 4.53L108.87 4.53Q108.87 2.80 109.40 1.48Q109.93 0.16 110.80-0.72Q111.67-1.60 112.79-2.05Q113.91-2.50 115.08-2.50L115.08-2.50Q118.00-2.50 119.51-0.77Q121.02 0.95 121.02 4.25L121.02 4.25Q121.02 4.59 121.01 4.95Q120.99 5.32 120.96 5.54L120.96 5.54L112.42 5.54Q112.42 6.83 113.49 7.57Q114.55 8.31 116.23 8.31L116.23 8.31Q117.27 8.31 118.21 8.09Q119.14 7.86 119.79 7.64L119.79 7.64L120.26 10.58Q119.37 10.89 118.36 11.10Q117.35 11.31 116.09 11.31L116.09 11.31Q114.41 11.31 113.08 10.87Q111.75 10.44 110.81 9.59Q109.88 8.73 109.37 7.47Q108.87 6.21 108.87 4.53ZM112.42 3.16L117.69 3.16Q117.69 2.63 117.55 2.14Q117.41 1.65 117.10 1.26Q116.79 0.86 116.32 0.63Q115.84 0.39 115.14 0.39L115.14 0.39Q114.47 0.39 113.98 0.61Q113.49 0.84 113.17 1.23Q112.84 1.62 112.66 2.12Q112.48 2.63 112.42 3.16L112.42 3.16ZM142.27-6.53L142.27-6.53Q145.58-6.53 147.40-5.17Q149.22-3.81 149.22-0.73L149.22-0.73Q149.22 2.38 147.38 3.76Q145.55 5.15 142.19 5.15L142.19 5.15L140.96 5.15L140.96 11L137.51 11L137.51-6.11Q138.02-6.22 138.65-6.30Q139.28-6.39 139.92-6.43Q140.56-6.47 141.18-6.50Q141.80-6.53 142.27-6.53ZM142.66-3.53L142.66-3.53Q142.36-3.53 141.81-3.52Q141.26-3.50 140.96-3.45L140.96-3.45L140.96 2.15L142.36 2.15Q144.01 2.15 144.85 1.49Q145.69 0.84 145.69-0.76L145.69-0.76Q145.69-2.27 144.86-2.90Q144.04-3.53 142.66-3.53ZM162.85-1.85L162.24 1.34Q161.90 1.26 161.44 1.17Q160.98 1.09 160.50 1.02Q160.02 0.95 159.58 0.92Q159.13 0.89 158.82 0.89L158.82 0.89Q158.09 0.89 157.39 0.96Q156.69 1.03 155.96 1.23L155.96 1.23L155.96 11L152.49 11L152.49-1.29Q153.86-1.80 155.31-2.10Q156.75-2.41 158.68-2.41L158.68-2.41Q158.96-2.41 159.48-2.38Q160.00-2.36 160.58-2.29Q161.17-2.22 161.77-2.12Q162.38-2.02 162.85-1.85L162.85-1.85ZM177.22 4.39L177.22 4.39Q177.22 5.96 176.77 7.23Q176.32 8.51 175.51 9.43Q174.70 10.36 173.56 10.86Q172.43 11.36 171.03 11.36L171.03 11.36Q169.63 11.36 168.49 10.86Q167.36 10.36 166.53 9.43Q165.71 8.51 165.26 7.23Q164.81 5.96 164.81 4.39L164.81 4.39Q164.81 2.85 165.27 1.58Q165.74 0.30 166.56-0.61Q167.39-1.52 168.54-2.01Q169.68-2.50 171.03-2.50L171.03-2.50Q172.40-2.50 173.53-2.01Q174.67-1.52 175.49-0.61Q176.32 0.30 176.77 1.58Q177.22 2.85 177.22 4.39ZM168.31 4.42L168.31 4.42Q168.31 6.18 168.94 7.28Q169.57 8.37 170.97 8.37L170.97 8.37Q172.32 8.37 173.00 7.28Q173.69 6.18 173.69 4.42L173.69 4.42Q173.69 2.66 173.06 1.58Q172.43 0.50 171.03 0.50L171.03 0.50Q169.68 0.50 169.00 1.58Q168.31 2.66 168.31 4.42ZM187.63 4.53L187.63 4.53Q187.63 2.77 186.93 1.63Q186.23 0.50 184.80 0.50L184.80 0.50Q184.41 0.50 183.96 0.54Q183.52 0.58 183.21 0.61L183.21 0.61L183.21 7.84Q183.54 8.06 184.10 8.20Q184.66 8.34 185.22 8.34L185.22 8.34Q186.46 8.34 187.04 7.35Q187.63 6.35 187.63 4.53ZM191.13 4.42L191.13 4.42Q191.13 5.93 190.80 7.21Q190.46 8.48 189.82 9.39Q189.17 10.30 188.19 10.80Q187.21 11.31 185.92 11.31L185.92 11.31Q184.61 11.31 183.21 10.66L183.21 10.66L183.21 15.62L179.76 15.62L179.76-1.74Q180.72-2.05 182.10-2.24Q183.49-2.44 184.83-2.44L184.83-2.44Q187.88-2.44 189.51-0.59Q191.13 1.26 191.13 4.42ZM192.87 4.53L192.87 4.53Q192.87 2.80 193.40 1.48Q193.93 0.16 194.80-0.72Q195.67-1.60 196.79-2.05Q197.91-2.50 199.08-2.50L199.08-2.50Q202.00-2.50 203.51-0.77Q205.02 0.95 205.02 4.25L205.02 4.25Q205.02 4.59 205.01 4.95Q204.99 5.32 204.96 5.54L204.96 5.54L196.42 5.54Q196.42 6.83 197.49 7.57Q198.55 8.31 200.23 8.31L200.23 8.31Q201.27 8.31 202.21 8.09Q203.14 7.86 203.79 7.64L203.79 7.64L204.26 10.58Q203.37 10.89 202.36 11.10Q201.35 11.31 200.09 11.31L200.09 11.31Q198.41 11.31 197.08 10.87Q195.75 10.44 194.81 9.59Q193.88 8.73 193.37 7.47Q192.87 6.21 192.87 4.53ZM196.42 3.16L201.69 3.16Q201.69 2.63 201.55 2.14Q201.41 1.65 201.10 1.26Q200.79 0.86 200.32 0.63Q199.84 0.39 199.14 0.39L199.14 0.39Q198.47 0.39 197.98 0.61Q197.49 0.84 197.17 1.23Q196.84 1.62 196.66 2.12Q196.48 2.63 196.42 3.16L196.42 3.16ZM218.85-1.85L218.24 1.34Q217.90 1.26 217.44 1.17Q216.98 1.09 216.50 1.02Q216.02 0.95 215.58 0.92Q215.13 0.89 214.82 0.89L214.82 0.89Q214.09 0.89 213.39 0.96Q212.69 1.03 211.96 1.23L211.96 1.23L211.96 11L208.49 11L208.49-1.29Q209.86-1.80 211.31-2.10Q212.75-2.41 214.68-2.41L214.68-2.41Q214.96-2.41 215.48-2.38Q216.00-2.36 216.58-2.29Q217.17-2.22 217.77-2.12Q218.38-2.02 218.85-1.85L218.85-1.85ZM224.00 6.10L224.00 0.70L221.01 0.70L221.01-2.16L224.00-2.16L224.00-5.46L227.45-6.02L227.45-2.16L232.96-2.16L232.96 0.70L227.45 0.70L227.45 6.02Q227.45 6.74 227.59 7.19Q227.73 7.64 227.98 7.89Q228.23 8.14 228.60 8.23Q228.96 8.31 229.41 8.31L229.41 8.31Q229.88 8.31 230.29 8.28Q230.70 8.26 231.07 8.19Q231.45 8.12 231.86 7.98Q232.26 7.84 232.74 7.61L232.74 7.61L233.22 10.58Q232.26 10.97 231.16 11.14Q230.05 11.31 229.02 11.31L229.02 11.31Q227.81 11.31 226.89 11.11Q225.96 10.92 225.32 10.36Q224.68 9.80 224.34 8.77Q224.00 7.75 224.00 6.10L224.00 6.10ZM241.95-5.94L241.95-5.94Q241.95-4.93 241.31-4.34Q240.66-3.76 239.77-3.76L239.77-3.76Q238.87-3.76 238.24-4.34Q237.61-4.93 237.61-5.94L237.61-5.94Q237.61-6.98 238.24-7.56Q238.87-8.15 239.77-8.15L239.77-8.15Q240.66-8.15 241.31-7.56Q241.95-6.98 241.95-5.94ZM246.63 7.67L247.08 10.44Q246.01 10.94 245.07 11.13Q244.14 11.31 243.35 11.31L243.35 11.31Q242.01 11.31 241.10 10.92Q240.19 10.52 239.64 9.78Q239.10 9.04 238.87 7.98Q238.65 6.91 238.65 5.54L238.65 5.54L238.65 0.70L235.01 0.70L235.01-2.16L242.09-2.16L242.09 5.99Q242.09 7.16 242.53 7.74Q242.96 8.31 243.97 8.31L243.97 8.31Q244.44 8.31 245.12 8.19Q245.79 8.06 246.63 7.67L246.63 7.67ZM248.87 4.53L248.87 4.53Q248.87 2.80 249.40 1.48Q249.93 0.16 250.80-0.72Q251.67-1.60 252.79-2.05Q253.91-2.50 255.08-2.50L255.08-2.50Q258.00-2.50 259.51-0.77Q261.02 0.95 261.02 4.25L261.02 4.25Q261.02 4.59 261.01 4.95Q260.99 5.32 260.96 5.54L260.96 5.54L252.42 5.54Q252.42 6.83 253.49 7.57Q254.55 8.31 256.23 8.31L256.23 8.31Q257.27 8.31 258.21 8.09Q259.14 7.86 259.79 7.64L259.79 7.64L260.26 10.58Q259.37 10.89 258.36 11.10Q257.35 11.31 256.09 11.31L256.09 11.31Q254.41 11.31 253.08 10.87Q251.75 10.44 250.81 9.59Q249.88 8.73 249.37 7.47Q248.87 6.21 248.87 4.53ZM252.42 3.16L257.69 3.16Q257.69 2.63 257.55 2.14Q257.41 1.65 257.10 1.26Q256.79 0.86 256.32 0.63Q255.84 0.39 255.14 0.39L255.14 0.39Q254.47 0.39 253.98 0.61Q253.49 0.84 253.17 1.23Q252.84 1.62 252.66 2.12Q252.48 2.63 252.42 3.16L252.42 3.16ZM268.38 8.40L268.38 8.40Q269.64 8.40 270.32 8.21Q270.99 8.03 270.99 7.47L270.99 7.47Q270.99 7.11 270.78 6.86Q270.57 6.60 270.19 6.42Q269.81 6.24 269.32 6.07Q268.83 5.90 268.30 5.74L268.30 5.74Q267.54 5.51 266.76 5.22Q265.98 4.92 265.33 4.48Q264.69 4.03 264.27 3.34Q263.85 2.66 263.85 1.62L263.85 1.62Q263.85 0.78 264.17 0.04Q264.49-0.70 265.18-1.28Q265.86-1.85 266.93-2.17Q267.99-2.50 269.48-2.50L269.48-2.50Q270.76-2.50 271.87-2.30Q272.98-2.10 273.79-1.74L273.79-1.74L273.26 1.17Q272.78 1.03 271.77 0.71Q270.76 0.39 269.50 0.39L269.50 0.39Q268.19 0.39 267.73 0.71Q267.26 1.03 267.26 1.40L267.26 1.40Q267.26 1.70 267.47 1.94Q267.68 2.18 268.03 2.38Q268.38 2.57 268.85 2.75Q269.31 2.94 269.84 3.10L269.84 3.10Q270.60 3.36 271.41 3.66Q272.22 3.97 272.88 4.43Q273.54 4.90 273.96 5.61Q274.38 6.32 274.38 7.36L274.38 7.36Q274.38 8.17 274.07 8.90Q273.76 9.63 273.05 10.16Q272.33 10.69 271.18 11Q270.04 11.31 268.36 11.31L268.36 11.31Q266.65 11.31 265.44 10.92Q264.24 10.52 263.51 10.22L263.51 10.22L264.04 7.33Q265.02 7.72 266.13 8.06Q267.24 8.40 268.38 8.40Z"/>
    </g>
</svg>