<?xml version="1.0" encoding="UTF-8"?>
<svg height="34" width="205.29999999999998" version="1.1" xmlns="http://www.w3.org/2000/svg">
    <rect
        height="32"
        width="203.29999999999998"
        rx="14"
        ry="14"
        x="1"
        y="1"
        fill="#0D597F"
        stroke="#39afea"
        stroke-width="1"
         />
    <g transform="translate(0, 14)">
        <path fill="#39afea" d="M23.75 11L20.05 11L19.24 7.00L14.62 7.00L13.84 11L10.25 11Q11.48 5.88 12.74 1.66Q14.00-2.55 15.18-6.33L15.18-6.33L18.93-6.33Q20.16-2.52 21.38 1.75Q22.60 6.02 23.75 11L23.75 11ZM16.97-2.97L16.97-2.97Q16.69-1.99 16.45-1.11Q16.22-0.23 16.01 0.63Q15.80 1.48 15.61 2.35Q15.43 3.22 15.26 4.14L15.26 4.14L18.65 4.14Q18.48 3.22 18.32 2.35Q18.15 1.48 17.94 0.63Q17.73-0.23 17.49-1.11Q17.25-1.99 16.97-2.97ZM36.63 7.67L37.08 10.44Q36.99 10.50 36.70 10.64Q36.40 10.78 35.93 10.93Q35.45 11.08 34.77 11.20Q34.08 11.31 33.21 11.31L33.21 11.31Q30.83 11.31 29.74 9.89Q28.65 8.48 28.65 5.76L28.65 5.76L28.65-5.41L25.01-5.41L25.01-8.26L32.09-8.26L32.09 6.02Q32.09 7.36 32.62 7.84Q33.16 8.31 33.97 8.31L33.97 8.31Q35.00 8.31 35.70 8.03Q36.40 7.75 36.63 7.67L36.63 7.67ZM47.63 4.53L47.63 4.53Q47.63 2.77 46.93 1.63Q46.23 0.50 44.80 0.50L44.80 0.50Q44.41 0.50 43.96 0.54Q43.52 0.58 43.21 0.61L43.21 0.61L43.21 7.84Q43.54 8.06 44.10 8.20Q44.66 8.34 45.22 8.34L45.22 8.34Q46.46 8.34 47.04 7.35Q47.63 6.35 47.63 4.53ZM51.13 4.42L51.13 4.42Q51.13 5.93 50.80 7.21Q50.46 8.48 49.82 9.39Q49.17 10.30 48.19 10.80Q47.21 11.31 45.92 11.31L45.92 11.31Q44.61 11.31 43.21 10.66L43.21 10.66L43.21 15.62L39.76 15.62L39.76-1.74Q40.72-2.05 42.10-2.24Q43.49-2.44 44.83-2.44L44.83-2.44Q47.88-2.44 49.51-0.59Q51.13 1.26 51.13 4.42ZM59.95-5.94L59.95-5.94Q59.95-4.93 59.31-4.34Q58.66-3.76 57.77-3.76L57.77-3.76Q56.87-3.76 56.24-4.34Q55.61-4.93 55.61-5.94L55.61-5.94Q55.61-6.98 56.24-7.56Q56.87-8.15 57.77-8.15L57.77-8.15Q58.66-8.15 59.31-7.56Q59.95-6.98 59.95-5.94ZM64.63 7.67L65.08 10.44Q64.01 10.94 63.07 11.13Q62.14 11.31 61.35 11.31L61.35 11.31Q60.01 11.31 59.10 10.92Q58.19 10.52 57.64 9.78Q57.10 9.04 56.87 7.98Q56.65 6.91 56.65 5.54L56.65 5.54L56.65 0.70L53.01 0.70L53.01-2.16L60.09-2.16L60.09 5.99Q60.09 7.16 60.53 7.74Q60.96 8.31 61.97 8.31L61.97 8.31Q62.44 8.31 63.12 8.19Q63.79 8.06 64.63 7.67L64.63 7.67ZM67.76 11L67.76-1.74Q68.69-1.99 70.05-2.22Q71.40-2.44 73-2.44L73-2.44Q74.57-2.44 75.60-2.01Q76.64-1.57 77.24-0.77Q77.84 0.02 78.10 1.13Q78.35 2.24 78.35 3.58L78.35 3.58L78.35 11L74.90 11L74.90 4.03Q74.90 2.18 74.48 1.37Q74.06 0.56 72.78 0.56L72.78 0.56Q72.38 0.56 72.01 0.58Q71.63 0.61 71.21 0.67L71.21 0.67L71.21 11L67.76 11ZM80.87 4.53L80.87 4.53Q80.87 2.80 81.40 1.48Q81.93 0.16 82.80-0.72Q83.67-1.60 84.79-2.05Q85.91-2.50 87.08-2.50L87.08-2.50Q90.00-2.50 91.51-0.77Q93.02 0.95 93.02 4.25L93.02 4.25Q93.02 4.59 93.01 4.95Q92.99 5.32 92.96 5.54L92.96 5.54L84.42 5.54Q84.42 6.83 85.49 7.57Q86.55 8.31 88.23 8.31L88.23 8.31Q89.27 8.31 90.21 8.09Q91.14 7.86 91.79 7.64L91.79 7.64L92.26 10.58Q91.37 10.89 90.36 11.10Q89.35 11.31 88.09 11.31L88.09 11.31Q86.41 11.31 85.08 10.87Q83.75 10.44 82.81 9.59Q81.88 8.73 81.37 7.47Q80.87 6.21 80.87 4.53ZM84.42 3.16L89.69 3.16Q89.69 2.63 89.55 2.14Q89.41 1.65 89.10 1.26Q88.79 0.86 88.32 0.63Q87.84 0.39 87.14 0.39L87.14 0.39Q86.47 0.39 85.98 0.61Q85.49 0.84 85.17 1.23Q84.84 1.62 84.66 2.12Q84.48 2.63 84.42 3.16L84.42 3.16ZM121.75 11L118.05 11L117.24 7.00L112.62 7.00L111.84 11L108.25 11Q109.48 5.88 110.74 1.66Q112.00-2.55 113.18-6.33L113.18-6.33L116.93-6.33Q118.16-2.52 119.38 1.75Q120.60 6.02 121.75 11L121.75 11ZM114.97-2.97L114.97-2.97Q114.69-1.99 114.45-1.11Q114.22-0.23 114.01 0.63Q113.80 1.48 113.61 2.35Q113.43 3.22 113.26 4.14L113.26 4.14L116.65 4.14Q116.48 3.22 116.32 2.35Q116.15 1.48 115.94 0.63Q115.73-0.23 115.49-1.11Q115.25-1.99 114.97-2.97ZM131.66 4.34L131.66 4.34Q131.66 2.49 131.06 1.51Q130.46 0.53 129.22 0.53L129.22 0.53Q128.66 0.53 128.12 0.68Q127.57 0.84 127.18 1.06L127.18 1.06L127.18 8.20Q127.57 8.28 128.01 8.31Q128.44 8.34 128.75 8.34L128.75 8.34Q130.09 8.34 130.88 7.43Q131.66 6.52 131.66 4.34ZM135.16 4.42L135.16 4.42Q135.16 5.99 134.74 7.26Q134.32 8.54 133.51 9.43Q132.70 10.33 131.52 10.82Q130.34 11.31 128.83 11.31L128.83 11.31Q127.49 11.31 126.09 11.11Q124.69 10.92 123.74 10.61L123.74 10.61L123.74-7.84L127.18-8.43L127.18-1.85Q127.91-2.19 128.58-2.31Q129.25-2.44 129.92-2.44L129.92-2.44Q131.21-2.44 132.19-1.95Q133.17-1.46 133.83-0.55Q134.49 0.36 134.82 1.62Q135.16 2.88 135.16 4.42ZM148.26-2.16L148.26 10.55Q147.31 10.80 145.95 11.06Q144.60 11.31 143 11.31L143 11.31Q141.38 11.31 140.34 10.86Q139.30 10.41 138.70 9.59Q138.10 8.76 137.88 7.64Q137.65 6.52 137.65 5.18L137.65 5.18L137.65-2.16L141.10-2.16L141.10 4.73Q141.10 6.55 141.53 7.43Q141.96 8.31 143.22 8.31L143.22 8.31Q144.01 8.31 144.79 8.17L144.79 8.17L144.79-2.16L148.26-2.16ZM157.95-5.94L157.95-5.94Q157.95-4.93 157.31-4.34Q156.66-3.76 155.77-3.76L155.77-3.76Q154.87-3.76 154.24-4.34Q153.61-4.93 153.61-5.94L153.61-5.94Q153.61-6.98 154.24-7.56Q154.87-8.15 155.77-8.15L155.77-8.15Q156.66-8.15 157.31-7.56Q157.95-6.98 157.95-5.94ZM162.63 7.67L163.08 10.44Q162.01 10.94 161.07 11.13Q160.14 11.31 159.35 11.31L159.35 11.31Q158.01 11.31 157.10 10.92Q156.19 10.52 155.64 9.78Q155.10 9.04 154.87 7.98Q154.65 6.91 154.65 5.54L154.65 5.54L154.65 0.70L151.01 0.70L151.01-2.16L158.09-2.16L158.09 5.99Q158.09 7.16 158.53 7.74Q158.96 8.31 159.97 8.31L159.97 8.31Q160.44 8.31 161.12 8.19Q161.79 8.06 162.63 7.67L162.63 7.67ZM176.63 7.67L177.08 10.44Q176.99 10.50 176.70 10.64Q176.40 10.78 175.93 10.93Q175.45 11.08 174.77 11.20Q174.08 11.31 173.21 11.31L173.21 11.31Q170.83 11.31 169.74 9.89Q168.65 8.48 168.65 5.76L168.65 5.76L168.65-5.41L165.01-5.41L165.01-8.26L172.09-8.26L172.09 6.02Q172.09 7.36 172.62 7.84Q173.16 8.31 173.97 8.31L173.97 8.31Q175.00 8.31 175.70 8.03Q176.40 7.75 176.63 7.67L176.63 7.67ZM182.28 4.34L182.28 4.34Q182.28 6.10 182.94 7.22Q183.60 8.34 185.06 8.34L185.06 8.34Q185.48 8.34 185.84 8.31Q186.20 8.28 186.60 8.23L186.60 8.23L186.60 1.06Q186.20 0.84 185.70 0.68Q185.20 0.53 184.64 0.53L184.64 0.53Q183.40 0.53 182.84 1.51Q182.28 2.49 182.28 4.34ZM190.04-8.43L190.04 10.61Q189.09 10.92 187.72 11.11Q186.34 11.31 185.03 11.31L185.03 11.31Q181.95 11.31 180.37 9.49Q178.78 7.67 178.78 4.50L178.78 4.50Q178.78 1.28 180.11-0.58Q181.44-2.44 184.05-2.44L184.05-2.44Q184.75-2.44 185.42-2.29Q186.09-2.13 186.60-1.85L186.60-1.85L186.60-7.84L190.04-8.43Z"/>
    </g>
</svg>