<?xml version="1.0" encoding="UTF-8"?>
<svg height="34" width="163" version="1.1" xmlns="http://www.w3.org/2000/svg">
    <rect
        height="32"
        width="161"
        rx="14"
        ry="14"
        x="1"
        y="1"
        fill="#d12127"
        stroke="#4b0c0e"
        stroke-width="1"
         />
    <g transform="translate(0, 14)">
        <path fill="#4b0c0e" d="M23.75 11L20.05 11L19.24 7.00L14.62 7.00L13.84 11L10.25 11Q11.48 5.88 12.74 1.66Q14.00-2.55 15.18-6.33L15.18-6.33L18.93-6.33Q20.16-2.52 21.38 1.75Q22.60 6.02 23.75 11L23.75 11ZM16.97-2.97L16.97-2.97Q16.69-1.99 16.45-1.11Q16.22-0.23 16.01 0.63Q15.80 1.48 15.61 2.35Q15.43 3.22 15.26 4.14L15.26 4.14L18.65 4.14Q18.48 3.22 18.32 2.35Q18.15 1.48 17.94 0.63Q17.73-0.23 17.49-1.11Q17.25-1.99 16.97-2.97ZM33.63 4.53L33.63 4.53Q33.63 2.77 32.93 1.63Q32.23 0.50 30.80 0.50L30.80 0.50Q30.41 0.50 29.96 0.54Q29.52 0.58 29.21 0.61L29.21 0.61L29.21 7.84Q29.54 8.06 30.10 8.20Q30.66 8.34 31.22 8.34L31.22 8.34Q32.46 8.34 33.04 7.35Q33.63 6.35 33.63 4.53ZM37.13 4.42L37.13 4.42Q37.13 5.93 36.80 7.21Q36.46 8.48 35.82 9.39Q35.17 10.30 34.19 10.80Q33.21 11.31 31.92 11.31L31.92 11.31Q30.61 11.31 29.21 10.66L29.21 10.66L29.21 15.62L25.76 15.62L25.76-1.74Q26.72-2.05 28.10-2.24Q29.49-2.44 30.83-2.44L30.83-2.44Q33.88-2.44 35.51-0.59Q37.13 1.26 37.13 4.42ZM45.03 8.54L45.03 8.54Q45.59 8.54 46.12 8.52Q46.65 8.51 47.04 8.45L47.04 8.45L47.04 5.43Q46.71 5.37 46.23 5.33Q45.76 5.29 45.36 5.29L45.36 5.29Q44.83 5.29 44.33 5.36Q43.82 5.43 43.45 5.60Q43.07 5.76 42.84 6.07Q42.62 6.38 42.62 6.88L42.62 6.88Q42.62 7.78 43.29 8.16Q43.96 8.54 45.03 8.54ZM44.72-2.50L44.72-2.50Q46.34-2.50 47.42-2.12Q48.50-1.74 49.14-1.05Q49.79-0.37 50.07 0.63Q50.35 1.62 50.35 2.85L50.35 2.85L50.35 10.69Q49.59 10.86 48.11 11.08Q46.62 11.31 44.78 11.31L44.78 11.31Q43.52 11.31 42.49 11.08Q41.47 10.86 40.74 10.34Q40.02 9.82 39.62 9.00Q39.23 8.17 39.23 6.97L39.23 6.97Q39.23 5.82 39.68 5.04Q40.13 4.25 40.88 3.78Q41.64 3.30 42.62 3.09Q43.60 2.88 44.66 2.88L44.66 2.88Q46.01 2.88 47.04 3.10L47.04 3.10L47.04 2.68Q47.04 1.70 46.43 1.05Q45.81 0.39 44.30 0.39L44.30 0.39Q43.32 0.39 42.41 0.53Q41.50 0.67 40.94 0.86L40.94 0.86L40.46-1.91Q41.11-2.13 42.28-2.31Q43.46-2.50 44.72-2.50ZM53.23 4.42L53.23 4.42Q53.23 2.99 53.68 1.73Q54.13 0.47 55.05-0.47Q55.98-1.40 57.39-1.95Q58.80-2.50 60.76-2.50L60.76-2.50Q61.94-2.50 62.89-2.33Q63.84-2.16 64.82-1.77L64.82-1.77L64.07 1.00Q63.51 0.81 62.82 0.65Q62.14 0.50 61.07 0.50L61.07 0.50Q59.84 0.50 59.01 0.79Q58.19 1.09 57.68 1.61Q57.18 2.12 56.96 2.85Q56.73 3.58 56.73 4.42L56.73 4.42Q56.73 6.24 57.75 7.28Q58.78 8.31 61.24 8.31L61.24 8.31Q62.05 8.31 62.93 8.20Q63.82 8.09 64.54 7.84L64.54 7.84L65.05 10.66Q64.32 10.94 63.28 11.13Q62.25 11.31 60.85 11.31L60.85 11.31Q58.83 11.31 57.39 10.78Q55.95 10.24 55.02 9.32Q54.10 8.40 53.67 7.14Q53.23 5.88 53.23 4.42ZM71.21 11L67.76 11L67.76-7.84L71.21-8.43L71.21-2.05Q71.63-2.19 72.22-2.31Q72.80-2.44 73.25-2.44L73.25-2.44Q74.71-2.44 75.69-2.01Q76.67-1.57 77.26-0.77Q77.84 0.02 78.10 1.13Q78.35 2.24 78.35 3.58L78.35 3.58L78.35 11L74.90 11L74.90 4.03Q74.90 2.18 74.48 1.37Q74.06 0.56 72.89 0.56L72.89 0.56Q72.41 0.56 71.95 0.67Q71.49 0.78 71.21 0.86L71.21 0.86L71.21 11ZM80.87 4.53L80.87 4.53Q80.87 2.80 81.40 1.48Q81.93 0.16 82.80-0.72Q83.67-1.60 84.79-2.05Q85.91-2.50 87.08-2.50L87.08-2.50Q90.00-2.50 91.51-0.77Q93.02 0.95 93.02 4.25L93.02 4.25Q93.02 4.59 93.01 4.95Q92.99 5.32 92.96 5.54L92.96 5.54L84.42 5.54Q84.42 6.83 85.49 7.57Q86.55 8.31 88.23 8.31L88.23 8.31Q89.27 8.31 90.21 8.09Q91.14 7.86 91.79 7.64L91.79 7.64L92.26 10.58Q91.37 10.89 90.36 11.10Q89.35 11.31 88.09 11.31L88.09 11.31Q86.41 11.31 85.08 10.87Q83.75 10.44 82.81 9.59Q81.88 8.73 81.37 7.47Q80.87 6.21 80.87 4.53ZM84.42 3.16L89.69 3.16Q89.69 2.63 89.55 2.14Q89.41 1.65 89.10 1.26Q88.79 0.86 88.32 0.63Q87.84 0.39 87.14 0.39L87.14 0.39Q86.47 0.39 85.98 0.61Q85.49 0.84 85.17 1.23Q84.84 1.62 84.66 2.12Q84.48 2.63 84.42 3.16L84.42 3.16ZM102.29 11.36L102.29 11.36Q98.62 11.36 96.69 9.01Q94.76 6.66 94.76 2.32L94.76 2.32Q94.76 0.16 95.34-1.52Q95.93-3.20 96.98-4.36Q98.03-5.52 99.47-6.12Q100.92-6.72 102.62-6.72L102.62-6.72Q103.55-6.72 104.29-6.57Q105.03-6.42 105.59-6.22Q106.15-6.02 106.53-5.80Q106.91-5.58 107.10-5.46L107.10-5.46L106.21-2.72Q105.56-3.14 104.65-3.43Q103.74-3.73 102.57-3.73L102.57-3.73Q101.76-3.73 100.99-3.43Q100.22-3.14 99.61-2.45Q99.01-1.77 98.63-0.62Q98.26 0.53 98.26 2.24L98.26 2.24Q98.26 5.20 99.28 6.79Q100.30 8.37 102.62 8.37L102.62 8.37Q103.97 8.37 104.85 8.06Q105.73 7.75 106.26 7.44L106.26 7.44L107.13 10.16Q106.40 10.61 105.16 10.99Q103.91 11.36 102.29 11.36ZM121.22 4.39L121.22 4.39Q121.22 5.96 120.77 7.23Q120.32 8.51 119.51 9.43Q118.70 10.36 117.56 10.86Q116.43 11.36 115.03 11.36L115.03 11.36Q113.63 11.36 112.49 10.86Q111.36 10.36 110.53 9.43Q109.71 8.51 109.26 7.23Q108.81 5.96 108.81 4.39L108.81 4.39Q108.81 2.85 109.27 1.58Q109.74 0.30 110.56-0.61Q111.39-1.52 112.54-2.01Q113.68-2.50 115.03-2.50L115.03-2.50Q116.40-2.50 117.53-2.01Q118.67-1.52 119.49-0.61Q120.32 0.30 120.77 1.58Q121.22 2.85 121.22 4.39ZM112.31 4.42L112.31 4.42Q112.31 6.18 112.94 7.28Q113.57 8.37 114.97 8.37L114.97 8.37Q116.32 8.37 117.00 7.28Q117.69 6.18 117.69 4.42L117.69 4.42Q117.69 2.66 117.06 1.58Q116.43 0.50 115.03 0.50L115.03 0.50Q113.68 0.50 113.00 1.58Q112.31 2.66 112.31 4.42ZM123.76 11L123.76-1.74Q124.69-1.99 126.05-2.22Q127.40-2.44 129-2.44L129-2.44Q130.57-2.44 131.60-2.01Q132.64-1.57 133.24-0.77Q133.84 0.02 134.10 1.13Q134.35 2.24 134.35 3.58L134.35 3.58L134.35 11L130.90 11L130.90 4.03Q130.90 2.18 130.48 1.37Q130.06 0.56 128.78 0.56L128.78 0.56Q128.38 0.56 128.01 0.58Q127.63 0.61 127.21 0.67L127.21 0.67L127.21 11L123.76 11ZM143.36 11L139.89 11L139.89 0.70L137.01 0.70L137.01-2.16L139.89-2.16L139.89-2.92Q139.89-4.51 140.35-5.56Q140.82-6.61 141.60-7.24Q142.38-7.87 143.39-8.14Q144.40-8.40 145.46-8.40L145.46-8.40Q146.56-8.40 147.70-8.21Q148.85-8.01 149.78-7.56L149.78-7.56L149.19-4.76Q148.54-4.99 147.58-5.23Q146.61-5.46 145.74-5.46L145.74-5.46Q145.27-5.46 144.83-5.38Q144.40-5.30 144.08-5.02Q143.76-4.74 143.56-4.22Q143.36-3.70 143.36-2.86L143.36-2.86L143.36-2.16L148.77-2.16L148.77 0.70L143.36 0.70L143.36 11Z"/>
    </g>
</svg>