<?xml version="1.0" encoding="UTF-8"?>
<svg height="26" width="74.4" version="1.1" xmlns="http://www.w3.org/2000/svg"><!--Created by Josélio de S. C. Júnior - 2021 - https://github.com/joseliojunior -->
    <rect
        height="24"
        width="72.4"
        rx="12"
        ry="12"
        x="1" y="1"
        fill="#adb2cb"
        stroke="#444a6a"
        stroke-width="1" />
    <g transform="translate(0, 8)">
        <path fill="#444a6a" d="M25.01 10L22.98 10Q22.59 8.90 22.16 7.50Q21.73 6.11 21.34 4.73Q20.96 3.34 20.66 2.11Q20.35 0.88 20.21 0.10L20.21 0.10L22.29 0.10Q22.38 0.86 22.58 1.88Q22.77 2.90 23 3.98Q23.23 5.06 23.50 6.10Q23.76 7.15 24.02 7.98L24.02 7.98Q24.27 7.17 24.53 6.12Q24.78 5.07 25.01 3.99Q25.23 2.91 25.42 1.89Q25.62 0.86 25.74 0.10L25.74 0.10L27.81 0.10Q27.62 1.06 27.34 2.24Q27.06 3.42 26.70 4.73Q26.34 6.03 25.90 7.38Q25.47 8.74 25.01 10L25.01 10ZM33.31 0.10L35.28 0.10L35.28 10L33.31 10L33.31 5.63L30.69 5.63L30.69 10L28.72 10L28.72 0.10L30.69 0.10L30.69 4L33.31 4L33.31 0.10ZM38.83 1.74L38.83 8.40Q38.91 8.42 39.01 8.42Q39.10 8.42 39.18 8.42L39.18 8.42Q39.86 8.42 40.31 8.16Q40.77 7.90 41.05 7.46Q41.33 7.01 41.45 6.39Q41.57 5.78 41.57 5.04L41.57 5.04Q41.57 4.40 41.47 3.79Q41.38 3.18 41.14 2.72Q40.90 2.26 40.48 1.98Q40.06 1.70 39.41 1.70L39.41 1.70Q39.28 1.70 39.12 1.70Q38.96 1.71 38.83 1.74L38.83 1.74ZM43.57 5.04L43.57 5.04Q43.57 6.42 43.22 7.38Q42.88 8.35 42.27 8.96Q41.66 9.57 40.82 9.85Q39.98 10.13 38.98 10.13L38.98 10.13Q38.45 10.13 37.94 10.07Q37.44 10.02 36.86 9.89L36.86 9.89L36.86 0.22Q37.54 0.08 38.13 0.03Q38.72-0.02 39.23-0.02L39.23-0.02Q40.21-0.02 41.02 0.27Q41.82 0.56 42.38 1.18Q42.94 1.79 43.26 2.74Q43.57 3.70 43.57 5.04ZM51.36 8.37L51.36 10L45.14 10L45.14 0.10L47.12 0.10L47.12 8.37L51.36 8.37Z"/>
    </g>
</svg>