<?xml version="1.0" encoding="UTF-8"?>
<svg height="34" width="90.4" version="1.1" xmlns="http://www.w3.org/2000/svg">
    <rect
        height="32"
        width="88.4"
        rx="1"
        ry="1"
        x="1"
        y="1"
        fill="#adb2cb"
        stroke="#444a6a"
        stroke-width="1"
         />
    <g transform="translate(0, 12)">
        <path fill="#444a6a" d="M27.51 12L24.46 12Q23.89 10.34 23.24 8.26Q22.59 6.17 22.02 4.09Q21.44 2.02 20.98 0.17Q20.53-1.68 20.31-2.86L20.31-2.86L23.43-2.86Q23.58-1.70 23.86-0.18Q24.15 1.34 24.50 2.96Q24.85 4.58 25.24 6.16Q25.64 7.73 26.02 8.98L26.02 8.98Q26.41 7.75 26.79 6.18Q27.18 4.61 27.51 2.99Q27.85 1.37 28.14-0.17Q28.42-1.70 28.62-2.86L28.62-2.86L31.71-2.86Q31.42-1.42 31.00 0.36Q30.58 2.14 30.04 4.09Q29.50 6.05 28.86 8.08Q28.21 10.10 27.51 12L27.51 12ZM39.97-2.86L42.92-2.86L42.92 12L39.97 12L39.97 5.45L36.03 5.45L36.03 12L33.08 12L33.08-2.86L36.03-2.86L36.03 3L39.97 3L39.97-2.86ZM48.25-0.38L48.25 9.60Q48.37 9.62 48.51 9.62Q48.66 9.62 48.78 9.62L48.78 9.62Q49.78 9.62 50.47 9.24Q51.15 8.86 51.57 8.18Q51.99 7.51 52.17 6.59Q52.35 5.66 52.35 4.56L52.35 4.56Q52.35 3.60 52.21 2.69Q52.06 1.78 51.70 1.08Q51.34 0.38 50.72-0.04Q50.10-0.46 49.11-0.46L49.11-0.46Q48.92-0.46 48.68-0.44Q48.44-0.43 48.25-0.38L48.25-0.38ZM55.35 4.56L55.35 4.56Q55.35 6.62 54.84 8.08Q54.32 9.53 53.41 10.44Q52.50 11.35 51.24 11.77Q49.98 12.19 48.46 12.19L48.46 12.19Q47.67 12.19 46.92 12.11Q46.16 12.02 45.30 11.83L45.30 11.83L45.30-2.66Q46.30-2.88 47.19-2.95Q48.08-3.02 48.85-3.02L48.85-3.02Q50.31-3.02 51.52-2.59Q52.74-2.16 53.58-1.24Q54.42-0.31 54.88 1.12Q55.35 2.54 55.35 4.56ZM67.04 9.55L67.04 12L57.70 12L57.70-2.86L60.68-2.86L60.68 9.55L67.04 9.55Z"/>
    </g>
</svg>