<?xml version="1.0" encoding="UTF-8"?>
<svg height="34" width="120.7" version="1.1" xmlns="http://www.w3.org/2000/svg">
    <rect
        height="32"
        width="118.7"
        rx="14"
        ry="14"
        x="1"
        y="1"
        fill="#0064bd"
        stroke="#001324"
        stroke-width="1"
         />
    <g transform="translate(0, 14)">
        <path fill="#001324" d="M22.26-6.33L22.26 5.20Q22.26 6.46 21.94 7.58Q21.62 8.70 20.88 9.54Q20.14 10.38 18.96 10.87Q17.78 11.36 16.10 11.36L16.10 11.36Q14.34 11.36 13.16 10.92Q11.99 10.47 11.18 9.82L11.18 9.82L12.49 7.08Q13.19 7.53 14.05 7.95Q14.90 8.37 15.80 8.37L15.80 8.37Q17.14 8.37 17.97 7.65Q18.79 6.94 18.79 5.01L18.79 5.01L18.79-3.48L13.00-3.48L13.00-6.33L22.26-6.33ZM30.38 8.40L30.38 8.40Q31.64 8.40 32.32 8.21Q32.99 8.03 32.99 7.47L32.99 7.47Q32.99 7.11 32.78 6.86Q32.57 6.60 32.19 6.42Q31.81 6.24 31.32 6.07Q30.83 5.90 30.30 5.74L30.30 5.74Q29.54 5.51 28.76 5.22Q27.98 4.92 27.33 4.48Q26.69 4.03 26.27 3.34Q25.85 2.66 25.85 1.62L25.85 1.62Q25.85 0.78 26.17 0.04Q26.49-0.70 27.18-1.28Q27.86-1.85 28.93-2.17Q29.99-2.50 31.48-2.50L31.48-2.50Q32.76-2.50 33.87-2.30Q34.98-2.10 35.79-1.74L35.79-1.74L35.26 1.17Q34.78 1.03 33.77 0.71Q32.76 0.39 31.50 0.39L31.50 0.39Q30.19 0.39 29.73 0.71Q29.26 1.03 29.26 1.40L29.26 1.40Q29.26 1.70 29.47 1.94Q29.68 2.18 30.03 2.38Q30.38 2.57 30.85 2.75Q31.31 2.94 31.84 3.10L31.84 3.10Q32.60 3.36 33.41 3.66Q34.22 3.97 34.88 4.43Q35.54 4.90 35.96 5.61Q36.38 6.32 36.38 7.36L36.38 7.36Q36.38 8.17 36.07 8.90Q35.76 9.63 35.05 10.16Q34.33 10.69 33.18 11Q32.04 11.31 30.36 11.31L30.36 11.31Q28.65 11.31 27.44 10.92Q26.24 10.52 25.51 10.22L25.51 10.22L26.04 7.33Q27.02 7.72 28.13 8.06Q29.24 8.40 30.38 8.40ZM51.22 4.39L51.22 4.39Q51.22 5.96 50.77 7.23Q50.32 8.51 49.51 9.43Q48.70 10.36 47.56 10.86Q46.43 11.36 45.03 11.36L45.03 11.36Q43.63 11.36 42.49 10.86Q41.36 10.36 40.53 9.43Q39.71 8.51 39.26 7.23Q38.81 5.96 38.81 4.39L38.81 4.39Q38.81 2.85 39.27 1.58Q39.74 0.30 40.56-0.61Q41.39-1.52 42.54-2.01Q43.68-2.50 45.03-2.50L45.03-2.50Q46.40-2.50 47.53-2.01Q48.67-1.52 49.49-0.61Q50.32 0.30 50.77 1.58Q51.22 2.85 51.22 4.39ZM42.31 4.42L42.31 4.42Q42.31 6.18 42.94 7.28Q43.57 8.37 44.97 8.37L44.97 8.37Q46.32 8.37 47.00 7.28Q47.69 6.18 47.69 4.42L47.69 4.42Q47.69 2.66 47.06 1.58Q46.43 0.50 45.03 0.50L45.03 0.50Q43.68 0.50 43.00 1.58Q42.31 2.66 42.31 4.42ZM53.76 11L53.76-1.74Q54.69-1.99 56.05-2.22Q57.40-2.44 59-2.44L59-2.44Q60.57-2.44 61.60-2.01Q62.64-1.57 63.24-0.77Q63.84 0.02 64.10 1.13Q64.35 2.24 64.35 3.58L64.35 3.58L64.35 11L60.90 11L60.90 4.03Q60.90 2.18 60.48 1.37Q60.06 0.56 58.78 0.56L58.78 0.56Q58.38 0.56 58.01 0.58Q57.63 0.61 57.21 0.67L57.21 0.67L57.21 11L53.76 11ZM67.76 11L67.76-1.74Q68.69-1.99 70.05-2.22Q71.40-2.44 73-2.44L73-2.44Q74.57-2.44 75.60-2.01Q76.64-1.57 77.24-0.77Q77.84 0.02 78.10 1.13Q78.35 2.24 78.35 3.58L78.35 3.58L78.35 11L74.90 11L74.90 4.03Q74.90 2.18 74.48 1.37Q74.06 0.56 72.78 0.56L72.78 0.56Q72.38 0.56 72.01 0.58Q71.63 0.61 71.21 0.67L71.21 0.67L71.21 11L67.76 11ZM80.87 4.53L80.87 4.53Q80.87 2.80 81.40 1.48Q81.93 0.16 82.80-0.72Q83.67-1.60 84.79-2.05Q85.91-2.50 87.08-2.50L87.08-2.50Q90.00-2.50 91.51-0.77Q93.02 0.95 93.02 4.25L93.02 4.25Q93.02 4.59 93.01 4.95Q92.99 5.32 92.96 5.54L92.96 5.54L84.42 5.54Q84.42 6.83 85.49 7.57Q86.55 8.31 88.23 8.31L88.23 8.31Q89.27 8.31 90.21 8.09Q91.14 7.86 91.79 7.64L91.79 7.64L92.26 10.58Q91.37 10.89 90.36 11.10Q89.35 11.31 88.09 11.31L88.09 11.31Q86.41 11.31 85.08 10.87Q83.75 10.44 82.81 9.59Q81.88 8.73 81.37 7.47Q80.87 6.21 80.87 4.53ZM84.42 3.16L89.69 3.16Q89.69 2.63 89.55 2.14Q89.41 1.65 89.10 1.26Q88.79 0.86 88.32 0.63Q87.84 0.39 87.14 0.39L87.14 0.39Q86.47 0.39 85.98 0.61Q85.49 0.84 85.17 1.23Q84.84 1.62 84.66 2.12Q84.48 2.63 84.42 3.16L84.42 3.16ZM98.00 6.10L98.00 0.70L95.01 0.70L95.01-2.16L98.00-2.16L98.00-5.46L101.45-6.02L101.45-2.16L106.96-2.16L106.96 0.70L101.45 0.70L101.45 6.02Q101.45 6.74 101.59 7.19Q101.73 7.64 101.98 7.89Q102.23 8.14 102.60 8.23Q102.96 8.31 103.41 8.31L103.41 8.31Q103.88 8.31 104.29 8.28Q104.70 8.26 105.07 8.19Q105.45 8.12 105.86 7.98Q106.26 7.84 106.74 7.61L106.74 7.61L107.22 10.58Q106.26 10.97 105.16 11.14Q104.05 11.31 103.02 11.31L103.02 11.31Q101.81 11.31 100.89 11.11Q99.96 10.92 99.32 10.36Q98.68 9.80 98.34 8.77Q98.00 7.75 98.00 6.10L98.00 6.10Z"/>
    </g>
</svg>