<?xml version="1.0" encoding="UTF-8"?><svg height="34" width="332.4" version="1.1" xmlns="http://www.w3.org/2000/svg"><!--Created by Josélio de S. C. Júnior - 2021 - https://github.com/joseliojunior --><rect height="32" width="330.4" rx="1" ry="1" x="1" y="1" fill="#52d5ff" stroke="#006385" stroke-width="1" /><g transform="translate(0, 12)"><path fill="#006385" d="M24.94 2.40L27.10 2.40Q27.20 2.86 27.39 3.53Q27.58 4.20 27.81 5.02Q28.04 5.83 28.32 6.77Q28.59 7.70 28.86 8.69L28.86 8.69Q28.86 7.44 28.83 6.01Q28.81 4.58 28.78 3.10Q28.76 1.61 28.74 0.08Q28.71-1.44 28.71-2.86L28.71-2.86L31.45-2.86Q31.38-1.03 31.30 0.90Q31.23 2.83 31.14 4.74Q31.04 6.65 30.91 8.50Q30.78 10.34 30.61 12L30.61 12L28.16 12Q27.63 10.49 27.10 8.75Q26.58 7.01 26.05 5.42L26.05 5.42Q25.52 6.94 24.94 8.71Q24.37 10.49 23.89 12L23.89 12L21.44 12Q21.25 10.34 21.10 8.48Q20.96 6.62 20.85 4.72Q20.74 2.81 20.67 0.88Q20.60-1.06 20.55-2.86L20.55-2.86L23.29-2.86Q23.26-1.44 23.24 0.07Q23.22 1.58 23.19 3.08Q23.17 4.58 23.14 6.01Q23.12 7.44 23.12 8.69L23.12 8.69Q23.34 7.92 23.61 7.01Q23.89 6.10 24.14 5.21Q24.39 4.32 24.61 3.58Q24.82 2.83 24.94 2.40L24.94 2.40ZM38.82-2.52L38.82-2.52Q38.82-1.66 38.26-1.15Q37.71-0.65 36.94-0.65L36.94-0.65Q36.18-0.65 35.64-1.15Q35.10-1.66 35.10-2.52L35.10-2.52Q35.10-3.41 35.64-3.91Q36.18-4.42 36.94-4.42L36.94-4.42Q37.71-4.42 38.26-3.91Q38.82-3.41 38.82-2.52ZM42.82 9.14L43.21 11.52Q42.30 11.95 41.49 12.11Q40.69 12.26 40.02 12.26L40.02 12.26Q38.86 12.26 38.08 11.93Q37.30 11.59 36.84 10.96Q36.37 10.32 36.18 9.41Q35.98 8.50 35.98 7.32L35.98 7.32L35.98 3.17L32.86 3.17L32.86 0.72L38.94 0.72L38.94 7.70Q38.94 8.71 39.31 9.20Q39.68 9.70 40.54 9.70L40.54 9.70Q40.95 9.70 41.53 9.59Q42.10 9.48 42.82 9.14L42.82 9.14ZM45.51 12L45.51 1.08Q46.30 0.86 47.47 0.67Q48.63 0.48 50 0.48L50 0.48Q51.34 0.48 52.23 0.85Q53.12 1.22 53.64 1.91Q54.15 2.59 54.37 3.54Q54.58 4.49 54.58 5.64L54.58 5.64L54.58 12L51.63 12L51.63 6.02Q51.63 4.44 51.27 3.74Q50.91 3.05 49.81 3.05L49.81 3.05Q49.47 3.05 49.15 3.07Q48.82 3.10 48.46 3.14L48.46 3.14L48.46 12L45.51 12ZM59.67 6.29L59.67 6.29Q59.67 7.80 60.24 8.76Q60.80 9.72 62.05 9.72L62.05 9.72Q62.41 9.72 62.72 9.70Q63.03 9.67 63.37 9.62L63.37 9.62L63.37 3.48Q63.03 3.29 62.60 3.16Q62.17 3.02 61.69 3.02L61.69 3.02Q60.63 3.02 60.15 3.86Q59.67 4.70 59.67 6.29ZM66.32-4.66L66.32 11.66Q65.50 11.93 64.33 12.10Q63.15 12.26 62.02 12.26L62.02 12.26Q59.38 12.26 58.03 10.70Q56.67 9.14 56.67 6.43L56.67 6.43Q56.67 3.67 57.81 2.08Q58.95 0.48 61.18 0.48L61.18 0.48Q61.78 0.48 62.36 0.61Q62.94 0.74 63.37 0.98L63.37 0.98L63.37-4.15L66.32-4.66ZM79.33 6.34L79.33 6.34Q79.33 7.68 78.94 8.77Q78.56 9.86 77.86 10.66Q77.17 11.45 76.20 11.88Q75.22 12.31 74.02 12.31L74.02 12.31Q72.82 12.31 71.85 11.88Q70.88 11.45 70.17 10.66Q69.46 9.86 69.08 8.77Q68.70 7.68 68.70 6.34L68.70 6.34Q68.70 5.02 69.09 3.92Q69.49 2.83 70.20 2.05Q70.90 1.27 71.89 0.85Q72.87 0.43 74.02 0.43L74.02 0.43Q75.20 0.43 76.17 0.85Q77.14 1.27 77.85 2.05Q78.56 2.83 78.94 3.92Q79.33 5.02 79.33 6.34ZM71.70 6.36L71.70 6.36Q71.70 7.87 72.24 8.81Q72.78 9.74 73.98 9.74L73.98 9.74Q75.13 9.74 75.72 8.81Q76.30 7.87 76.30 6.36L76.30 6.36Q76.30 4.85 75.76 3.92Q75.22 3 74.02 3L74.02 3Q72.87 3 72.28 3.92Q71.70 4.85 71.70 6.36ZM89.96 12L87.73 12Q87.46 11.26 87.24 10.63Q87.01 10.01 86.80 9.42Q86.60 8.83 86.40 8.20Q86.19 7.56 85.98 6.79L85.98 6.79Q85.74 7.56 85.54 8.17Q85.35 8.78 85.15 9.38Q84.94 9.98 84.73 10.61Q84.51 11.23 84.20 12L84.20 12L81.97 12Q81.68 10.94 81.43 9.66Q81.18 8.38 80.96 6.92Q80.74 5.47 80.58 3.91Q80.41 2.35 80.26 0.72L80.26 0.72L82.78 0.72Q82.88 2.81 82.99 4.80Q83.10 6.79 83.38 8.90L83.38 8.90Q83.70 7.99 83.92 7.21Q84.15 6.43 84.33 5.72Q84.51 5.02 84.67 4.36Q84.82 3.70 84.99 3L84.99 3L87.13 3Q87.27 3.70 87.43 4.36Q87.58 5.02 87.76 5.72Q87.94 6.43 88.15 7.21Q88.35 7.99 88.64 8.90L88.64 8.90Q88.78 7.80 88.88 6.79Q88.98 5.78 89.04 4.79Q89.10 3.79 89.13 2.80Q89.17 1.80 89.22 0.72L89.22 0.72L91.74 0.72Q91.47 4.01 91.00 6.91Q90.54 9.82 89.96 12L89.96 12ZM97.47 9.77L97.47 9.77Q98.55 9.77 99.13 9.61Q99.70 9.46 99.70 8.98L99.70 8.98Q99.70 8.66 99.52 8.45Q99.34 8.23 99.02 8.08Q98.70 7.92 98.28 7.78Q97.86 7.63 97.40 7.49L97.40 7.49Q96.75 7.30 96.08 7.04Q95.41 6.79 94.86 6.41Q94.30 6.02 93.94 5.44Q93.58 4.85 93.58 3.96L93.58 3.96Q93.58 3.24 93.86 2.60Q94.14 1.97 94.72 1.48Q95.31 0.98 96.22 0.71Q97.14 0.43 98.41 0.43L98.41 0.43Q99.51 0.43 100.46 0.60Q101.41 0.77 102.10 1.08L102.10 1.08L101.65 3.58Q101.24 3.46 100.38 3.18Q99.51 2.90 98.43 2.90L98.43 2.90Q97.30 2.90 96.91 3.18Q96.51 3.46 96.51 3.77L96.51 3.77Q96.51 4.03 96.69 4.24Q96.87 4.44 97.17 4.61Q97.47 4.78 97.87 4.93Q98.26 5.09 98.72 5.23L98.72 5.23Q99.37 5.45 100.06 5.71Q100.76 5.98 101.32 6.37Q101.89 6.77 102.25 7.38Q102.61 7.99 102.61 8.88L102.61 8.88Q102.61 9.58 102.34 10.20Q102.08 10.82 101.47 11.28Q100.86 11.74 99.87 12Q98.89 12.26 97.45 12.26L97.45 12.26Q95.98 12.26 94.95 11.93Q93.92 11.59 93.30 11.33L93.30 11.33L93.75 8.86Q94.59 9.19 95.54 9.48Q96.49 9.77 97.47 9.77ZM121.14-3.02L121.14-3.02Q122.41-3.02 123.44-2.74Q124.47-2.45 125.22-1.85Q125.96-1.25 126.36-0.32Q126.75 0.60 126.75 1.85L126.75 1.85Q126.75 3.14 126.22 4.20Q125.70 5.26 124.47 5.81L124.47 5.81Q124.88 6.43 125.34 7.19Q125.79 7.94 126.22 8.77Q126.66 9.60 127.05 10.43Q127.45 11.26 127.74 12L127.74 12L124.64 12Q124.09 10.56 123.36 9.23Q122.62 7.90 121.78 6.53L121.78 6.53L120.25 6.53L120.25 12L117.30 12L117.30-2.64Q117.73-2.74 118.24-2.82Q118.76-2.90 119.29-2.94Q119.82-2.98 120.30-3Q120.78-3.02 121.14-3.02ZM123.75 1.82L123.75 1.82Q123.75 0.65 123.03 0.10Q122.31-0.46 121.14-0.46L121.14-0.46Q120.97-0.46 120.73-0.44Q120.49-0.43 120.25-0.38L120.25-0.38L120.25 4.08L120.90 4.08Q122.41 4.08 123.08 3.49Q123.75 2.90 123.75 1.82ZM128.74 6.46L128.74 6.46Q128.74 4.97 129.20 3.84Q129.66 2.71 130.40 1.96Q131.14 1.20 132.10 0.82Q133.06 0.43 134.07 0.43L134.07 0.43Q136.57 0.43 137.86 1.91Q139.16 3.38 139.16 6.22L139.16 6.22Q139.16 6.50 139.15 6.82Q139.14 7.13 139.11 7.32L139.11 7.32L131.79 7.32Q131.79 8.42 132.70 9.06Q133.62 9.70 135.06 9.70L135.06 9.70Q135.94 9.70 136.75 9.50Q137.55 9.31 138.10 9.12L138.10 9.12L138.51 11.64Q137.74 11.90 136.88 12.08Q136.02 12.26 134.94 12.26L134.94 12.26Q133.50 12.26 132.36 11.89Q131.22 11.52 130.41 10.79Q129.61 10.06 129.18 8.98Q128.74 7.90 128.74 6.46ZM131.79 5.28L136.30 5.28Q136.30 4.82 136.18 4.40Q136.06 3.98 135.80 3.65Q135.54 3.31 135.13 3.11Q134.72 2.90 134.12 2.90L134.12 2.90Q133.54 2.90 133.12 3.10Q132.70 3.29 132.43 3.62Q132.15 3.96 132.00 4.39Q131.84 4.82 131.79 5.28L131.79 5.28ZM143.79 6L143.79 6Q143.79 7.39 144.30 8.12Q144.80 8.86 145.88 8.86L145.88 8.86Q146.36 8.86 146.78 8.74Q147.20 8.62 147.54 8.42L147.54 8.42L147.54 3Q147.20 2.93 146.94 2.90Q146.67 2.88 146.38 2.88L146.38 2.88Q143.79 2.88 143.79 6ZM150.51 1.08L150.51 10.63Q150.51 13.39 149.18 14.71Q147.85 16.03 144.90 16.03L144.90 16.03Q143.84 16.03 142.87 15.82Q141.90 15.60 141.01 15.31L141.01 15.31L141.56 12.82Q142.26 13.08 143.02 13.31Q143.79 13.54 144.94 13.54L144.94 13.54Q145.71 13.54 146.22 13.36Q146.72 13.18 147.01 12.86Q147.30 12.55 147.42 12.13Q147.54 11.71 147.54 11.23L147.54 11.23L147.54 10.78Q146.91 11.02 146.40 11.14Q145.88 11.26 145.28 11.26L145.28 11.26Q143.07 11.26 141.93 9.86Q140.79 8.47 140.79 6L140.79 6Q140.79 3.22 142.33 1.85Q143.86 0.48 146.50 0.48L146.50 0.48Q148.35 0.48 150.51 1.08L150.51 1.08ZM158.82-2.52L158.82-2.52Q158.82-1.66 158.26-1.15Q157.71-0.65 156.94-0.65L156.94-0.65Q156.18-0.65 155.64-1.15Q155.10-1.66 155.10-2.52L155.10-2.52Q155.10-3.41 155.64-3.91Q156.18-4.42 156.94-4.42L156.94-4.42Q157.71-4.42 158.26-3.91Q158.82-3.41 158.82-2.52ZM162.82 9.14L163.21 11.52Q162.30 11.95 161.49 12.11Q160.69 12.26 160.02 12.26L160.02 12.26Q158.86 12.26 158.08 11.93Q157.30 11.59 156.84 10.96Q156.37 10.32 156.18 9.41Q155.98 8.50 155.98 7.32L155.98 7.32L155.98 3.17L152.86 3.17L152.86 0.72L158.94 0.72L158.94 7.70Q158.94 8.71 159.31 9.20Q159.68 9.70 160.54 9.70L160.54 9.70Q160.95 9.70 161.53 9.59Q162.10 9.48 162.82 9.14L162.82 9.14ZM169.47 9.77L169.47 9.77Q170.55 9.77 171.13 9.61Q171.70 9.46 171.70 8.98L171.70 8.98Q171.70 8.66 171.52 8.45Q171.34 8.23 171.02 8.08Q170.70 7.92 170.28 7.78Q169.86 7.63 169.40 7.49L169.40 7.49Q168.75 7.30 168.08 7.04Q167.41 6.79 166.86 6.41Q166.30 6.02 165.94 5.44Q165.58 4.85 165.58 3.96L165.58 3.96Q165.58 3.24 165.86 2.60Q166.14 1.97 166.72 1.48Q167.31 0.98 168.22 0.71Q169.14 0.43 170.41 0.43L170.41 0.43Q171.51 0.43 172.46 0.60Q173.41 0.77 174.10 1.08L174.10 1.08L173.65 3.58Q173.24 3.46 172.38 3.18Q171.51 2.90 170.43 2.90L170.43 2.90Q169.30 2.90 168.91 3.18Q168.51 3.46 168.51 3.77L168.51 3.77Q168.51 4.03 168.69 4.24Q168.87 4.44 169.17 4.61Q169.47 4.78 169.87 4.93Q170.26 5.09 170.72 5.23L170.72 5.23Q171.37 5.45 172.06 5.71Q172.76 5.98 173.32 6.37Q173.89 6.77 174.25 7.38Q174.61 7.99 174.61 8.88L174.61 8.88Q174.61 9.58 174.34 10.20Q174.08 10.82 173.47 11.28Q172.86 11.74 171.87 12Q170.89 12.26 169.45 12.26L169.45 12.26Q167.98 12.26 166.95 11.93Q165.92 11.59 165.30 11.33L165.30 11.33L165.75 8.86Q166.59 9.19 167.54 9.48Q168.49 9.77 169.47 9.77ZM179.43 7.80L179.43 3.17L176.86 3.17L176.86 0.72L179.43 0.72L179.43-2.11L182.38-2.59L182.38 0.72L187.11 0.72L187.11 3.17L182.38 3.17L182.38 7.73Q182.38 8.35 182.50 8.74Q182.62 9.12 182.84 9.34Q183.06 9.55 183.37 9.62Q183.68 9.70 184.06 9.70L184.06 9.70Q184.47 9.70 184.82 9.67Q185.17 9.65 185.49 9.59Q185.82 9.53 186.16 9.41Q186.51 9.29 186.92 9.10L186.92 9.10L187.33 11.64Q186.51 11.98 185.56 12.12Q184.62 12.26 183.73 12.26L183.73 12.26Q182.70 12.26 181.90 12.10Q181.11 11.93 180.56 11.45Q180.01 10.97 179.72 10.09Q179.43 9.22 179.43 7.80L179.43 7.80ZM199.02 0.98L198.49 3.72Q198.20 3.65 197.80 3.58Q197.41 3.50 197 3.44Q196.59 3.38 196.21 3.36Q195.82 3.34 195.56 3.34L195.56 3.34Q194.94 3.34 194.34 3.40Q193.74 3.46 193.11 3.62L193.11 3.62L193.11 12L190.14 12L190.14 1.46Q191.31 1.03 192.55 0.77Q193.78 0.50 195.44 0.50L195.44 0.50Q195.68 0.50 196.12 0.53Q196.57 0.55 197.07 0.61Q197.58 0.67 198.09 0.76Q198.61 0.84 199.02 0.98L199.02 0.98ZM208.30 0.72L211.33 0.72Q210.87 2.30 210.45 3.83Q210.03 5.35 209.58 6.80Q209.12 8.26 208.60 9.65Q208.09 11.04 207.49 12.36L207.49 12.36Q207.03 13.32 206.59 14.02Q206.14 14.71 205.60 15.16Q205.06 15.60 204.40 15.82Q203.74 16.03 202.86 16.03L202.86 16.03Q202.11 16.03 201.50 15.91Q200.89 15.79 200.48 15.60L200.48 15.60L201.03 13.13Q201.51 13.34 201.88 13.43Q202.26 13.51 202.69 13.51L202.69 13.51Q203.55 13.51 204.08 12.94Q204.61 12.36 204.92 11.57L204.92 11.57Q203.86 9.46 202.81 6.73Q201.75 4.01 200.89 0.72L200.89 0.72L203.96 0.72Q204.18 1.61 204.45 2.62Q204.73 3.62 205.04 4.63Q205.35 5.64 205.70 6.61Q206.05 7.58 206.41 8.42L206.41 8.42Q206.65 7.58 206.91 6.61Q207.18 5.64 207.42 4.64Q207.66 3.65 207.88 2.64Q208.11 1.63 208.30 0.72L208.30 0.72ZM235.04 12L225.51 12L225.51-2.86L234.51-2.86L234.51-0.41L228.46-0.41L228.46 2.93L233.72 2.93L233.72 5.38L228.46 5.38L228.46 9.55L235.04 9.55L235.04 12ZM237.51 12L237.51 1.08Q238.30 0.86 239.47 0.67Q240.63 0.48 242 0.48L242 0.48Q243.34 0.48 244.23 0.85Q245.12 1.22 245.64 1.91Q246.15 2.59 246.37 3.54Q246.58 4.49 246.58 5.64L246.58 5.64L246.58 12L243.63 12L243.63 6.02Q243.63 4.44 243.27 3.74Q242.91 3.05 241.81 3.05L241.81 3.05Q241.47 3.05 241.15 3.07Q240.82 3.10 240.46 3.14L240.46 3.14L240.46 12L237.51 12ZM251.43 7.80L251.43 3.17L248.86 3.17L248.86 0.72L251.43 0.72L251.43-2.11L254.38-2.59L254.38 0.72L259.11 0.72L259.11 3.17L254.38 3.17L254.38 7.73Q254.38 8.35 254.50 8.74Q254.62 9.12 254.84 9.34Q255.06 9.55 255.37 9.62Q255.68 9.70 256.06 9.70L256.06 9.70Q256.47 9.70 256.82 9.67Q257.17 9.65 257.49 9.59Q257.82 9.53 258.16 9.41Q258.51 9.29 258.92 9.10L258.92 9.10L259.33 11.64Q258.51 11.98 257.56 12.12Q256.62 12.26 255.73 12.26L255.73 12.26Q254.70 12.26 253.90 12.10Q253.11 11.93 252.56 11.45Q252.01 10.97 251.72 10.09Q251.43 9.22 251.43 7.80L251.43 7.80ZM271.02 0.98L270.49 3.72Q270.20 3.65 269.80 3.58Q269.41 3.50 269 3.44Q268.59 3.38 268.21 3.36Q267.82 3.34 267.56 3.34L267.56 3.34Q266.94 3.34 266.34 3.40Q265.74 3.46 265.11 3.62L265.11 3.62L265.11 12L262.14 12L262.14 1.46Q263.31 1.03 264.55 0.77Q265.78 0.50 267.44 0.50L267.44 0.50Q267.68 0.50 268.12 0.53Q268.57 0.55 269.07 0.61Q269.58 0.67 270.09 0.76Q270.61 0.84 271.02 0.98L271.02 0.98ZM278.82-2.52L278.82-2.52Q278.82-1.66 278.26-1.15Q277.71-0.65 276.94-0.65L276.94-0.65Q276.18-0.65 275.64-1.15Q275.10-1.66 275.10-2.52L275.10-2.52Q275.10-3.41 275.64-3.91Q276.18-4.42 276.94-4.42L276.94-4.42Q277.71-4.42 278.26-3.91Q278.82-3.41 278.82-2.52ZM282.82 9.14L283.21 11.52Q282.30 11.95 281.49 12.11Q280.69 12.26 280.02 12.26L280.02 12.26Q278.86 12.26 278.08 11.93Q277.30 11.59 276.84 10.96Q276.37 10.32 276.18 9.41Q275.98 8.50 275.98 7.32L275.98 7.32L275.98 3.17L272.86 3.17L272.86 0.72L278.94 0.72L278.94 7.70Q278.94 8.71 279.31 9.20Q279.68 9.70 280.54 9.70L280.54 9.70Q280.95 9.70 281.53 9.59Q282.10 9.48 282.82 9.14L282.82 9.14ZM284.74 6.46L284.74 6.46Q284.74 4.97 285.20 3.84Q285.66 2.71 286.40 1.96Q287.14 1.20 288.10 0.82Q289.06 0.43 290.07 0.43L290.07 0.43Q292.57 0.43 293.86 1.91Q295.16 3.38 295.16 6.22L295.16 6.22Q295.16 6.50 295.15 6.82Q295.14 7.13 295.11 7.32L295.11 7.32L287.79 7.32Q287.79 8.42 288.70 9.06Q289.62 9.70 291.06 9.70L291.06 9.70Q291.94 9.70 292.75 9.50Q293.55 9.31 294.10 9.12L294.10 9.12L294.51 11.64Q293.74 11.90 292.88 12.08Q292.02 12.26 290.94 12.26L290.94 12.26Q289.50 12.26 288.36 11.89Q287.22 11.52 286.41 10.79Q285.61 10.06 285.18 8.98Q284.74 7.90 284.74 6.46ZM287.79 5.28L292.30 5.28Q292.30 4.82 292.18 4.40Q292.06 3.98 291.80 3.65Q291.54 3.31 291.13 3.11Q290.72 2.90 290.12 2.90L290.12 2.90Q289.54 2.90 289.12 3.10Q288.70 3.29 288.43 3.62Q288.15 3.96 288.00 4.39Q287.84 4.82 287.79 5.28L287.79 5.28ZM301.47 9.77L301.47 9.77Q302.55 9.77 303.13 9.61Q303.70 9.46 303.70 8.98L303.70 8.98Q303.70 8.66 303.52 8.45Q303.34 8.23 303.02 8.08Q302.70 7.92 302.28 7.78Q301.86 7.63 301.40 7.49L301.40 7.49Q300.75 7.30 300.08 7.04Q299.41 6.79 298.86 6.41Q298.30 6.02 297.94 5.44Q297.58 4.85 297.58 3.96L297.58 3.96Q297.58 3.24 297.86 2.60Q298.14 1.97 298.72 1.48Q299.31 0.98 300.22 0.71Q301.14 0.43 302.41 0.43L302.41 0.43Q303.51 0.43 304.46 0.60Q305.41 0.77 306.10 1.08L306.10 1.08L305.65 3.58Q305.24 3.46 304.38 3.18Q303.51 2.90 302.43 2.90L302.43 2.90Q301.30 2.90 300.91 3.18Q300.51 3.46 300.51 3.77L300.51 3.77Q300.51 4.03 300.69 4.24Q300.87 4.44 301.17 4.61Q301.47 4.78 301.87 4.93Q302.26 5.09 302.72 5.23L302.72 5.23Q303.37 5.45 304.06 5.71Q304.76 5.98 305.32 6.37Q305.89 6.77 306.25 7.38Q306.61 7.99 306.61 8.88L306.61 8.88Q306.61 9.58 306.34 10.20Q306.08 10.82 305.47 11.28Q304.86 11.74 303.87 12Q302.89 12.26 301.45 12.26L301.45 12.26Q299.98 12.26 298.95 11.93Q297.92 11.59 297.30 11.33L297.30 11.33L297.75 8.86Q298.59 9.19 299.54 9.48Q300.49 9.77 301.47 9.77Z"/></g></svg>