<?xml version="1.0" encoding="UTF-8"?>
<svg height="26" width="236.39999999999998" version="1.1" xmlns="http://www.w3.org/2000/svg"><!--Created by Josélio de S. C. Júnior - 2021 - https://github.com/joseliojunior -->
    <rect
        height="24"
        width="234.39999999999998"
        rx="1"
        ry="1"
        x="1" y="1"
        fill="#52d5ff"
        stroke="#006385"
        stroke-width="1" />
    <g transform="translate(0, 8)">
        <path fill="#006385" d="M23.30 3.60L24.74 3.60Q24.80 3.90 24.93 4.35Q25.06 4.80 25.21 5.34Q25.36 5.89 25.54 6.51Q25.73 7.14 25.90 7.79L25.90 7.79Q25.90 6.96 25.89 6.01Q25.87 5.06 25.86 4.06Q25.84 3.07 25.82 2.06Q25.81 1.04 25.81 0.10L25.81 0.10L27.63 0.10Q27.58 1.31 27.54 2.60Q27.49 3.89 27.42 5.16Q27.36 6.43 27.27 7.66Q27.18 8.90 27.07 10L27.07 10L25.44 10Q25.09 8.99 24.74 7.83Q24.38 6.67 24.03 5.62L24.03 5.62Q23.68 6.62 23.30 7.81Q22.91 8.99 22.59 10L22.59 10L20.96 10Q20.83 8.90 20.74 7.66Q20.64 6.42 20.57 5.14Q20.50 3.87 20.45 2.58Q20.40 1.30 20.37 0.10L20.37 0.10L22.19 0.10Q22.18 1.04 22.16 2.05Q22.14 3.06 22.13 4.06Q22.11 5.06 22.10 6.01Q22.08 6.96 22.08 7.79L22.08 7.79Q22.22 7.28 22.41 6.67Q22.59 6.06 22.76 5.47Q22.93 4.88 23.07 4.38Q23.22 3.89 23.30 3.60L23.30 3.60ZM32.54 0.32L32.54 0.32Q32.54 0.90 32.18 1.23Q31.81 1.57 31.30 1.57L31.30 1.57Q30.78 1.57 30.42 1.23Q30.06 0.90 30.06 0.32L30.06 0.32Q30.06-0.27 30.42-0.61Q30.78-0.94 31.30-0.94L31.30-0.94Q31.81-0.94 32.18-0.61Q32.54-0.27 32.54 0.32ZM35.22 8.10L35.47 9.68Q34.86 9.97 34.33 10.07Q33.79 10.18 33.34 10.18L33.34 10.18Q32.58 10.18 32.06 9.95Q31.54 9.73 31.22 9.30Q30.91 8.88 30.78 8.27Q30.66 7.66 30.66 6.88L30.66 6.88L30.66 4.11L28.58 4.11L28.58 2.48L32.62 2.48L32.62 7.14Q32.62 7.81 32.87 8.14Q33.12 8.46 33.70 8.46L33.70 8.46Q33.97 8.46 34.35 8.39Q34.74 8.32 35.22 8.10L35.22 8.10ZM37.01 10L37.01 2.72Q37.54 2.58 38.31 2.45Q39.09 2.32 40 2.32L40 2.32Q40.90 2.32 41.49 2.57Q42.08 2.82 42.42 3.27Q42.77 3.73 42.91 4.36Q43.06 4.99 43.06 5.76L43.06 5.76L43.06 10L41.09 10L41.09 6.02Q41.09 4.96 40.85 4.50Q40.61 4.03 39.87 4.03L39.87 4.03Q39.65 4.03 39.43 4.05Q39.22 4.06 38.98 4.10L38.98 4.10L38.98 10L37.01 10ZM46.45 6.19L46.45 6.19Q46.45 7.20 46.82 7.84Q47.20 8.48 48.03 8.48L48.03 8.48Q48.27 8.48 48.48 8.46Q48.69 8.45 48.91 8.42L48.91 8.42L48.91 4.32Q48.69 4.19 48.40 4.10Q48.11 4.02 47.79 4.02L47.79 4.02Q47.09 4.02 46.77 4.58Q46.45 5.14 46.45 6.19ZM50.88-1.10L50.88 9.78Q50.34 9.95 49.55 10.06Q48.77 10.18 48.02 10.18L48.02 10.18Q46.26 10.18 45.35 9.14Q44.45 8.10 44.45 6.29L44.45 6.29Q44.45 4.45 45.21 3.38Q45.97 2.32 47.46 2.32L47.46 2.32Q47.86 2.32 48.24 2.41Q48.62 2.50 48.91 2.66L48.91 2.66L48.91-0.77L50.88-1.10ZM59.55 6.22L59.55 6.22Q59.55 7.12 59.30 7.85Q59.04 8.58 58.58 9.10Q58.11 9.63 57.46 9.92Q56.82 10.21 56.02 10.21L56.02 10.21Q55.22 10.21 54.57 9.92Q53.92 9.63 53.45 9.10Q52.98 8.58 52.72 7.85Q52.46 7.12 52.46 6.22L52.46 6.22Q52.46 5.34 52.73 4.62Q52.99 3.89 53.46 3.37Q53.94 2.85 54.59 2.57Q55.25 2.29 56.02 2.29L56.02 2.29Q56.80 2.29 57.45 2.57Q58.10 2.85 58.57 3.37Q59.04 3.89 59.30 4.62Q59.55 5.34 59.55 6.22ZM54.46 6.24L54.46 6.24Q54.46 7.25 54.82 7.87Q55.18 8.50 55.98 8.50L55.98 8.50Q56.75 8.50 57.14 7.87Q57.54 7.25 57.54 6.24L57.54 6.24Q57.54 5.23 57.18 4.62Q56.82 4 56.02 4L56.02 4Q55.25 4 54.86 4.62Q54.46 5.23 54.46 6.24ZM66.64 10L65.15 10Q64.98 9.50 64.82 9.09Q64.67 8.67 64.54 8.28Q64.40 7.89 64.26 7.46Q64.13 7.04 63.98 6.53L63.98 6.53Q63.82 7.04 63.70 7.45Q63.57 7.86 63.43 8.26Q63.30 8.66 63.15 9.07Q63.01 9.49 62.80 10L62.80 10L61.31 10Q61.12 9.30 60.95 8.44Q60.78 7.58 60.64 6.62Q60.50 5.65 60.38 4.61Q60.27 3.57 60.18 2.48L60.18 2.48L61.86 2.48Q61.92 3.87 61.99 5.20Q62.06 6.53 62.26 7.94L62.26 7.94Q62.46 7.33 62.62 6.81Q62.77 6.29 62.89 5.82Q63.01 5.34 63.11 4.90Q63.22 4.46 63.33 4L63.33 4L64.75 4Q64.85 4.46 64.95 4.90Q65.06 5.34 65.18 5.82Q65.30 6.29 65.43 6.81Q65.57 7.33 65.76 7.94L65.76 7.94Q65.86 7.20 65.92 6.53Q65.98 5.86 66.02 5.19Q66.06 4.53 66.09 3.86Q66.11 3.20 66.14 2.48L66.14 2.48L67.82 2.48Q67.65 4.67 67.34 6.61Q67.02 8.54 66.64 10L66.64 10ZM71.65 8.51L71.65 8.51Q72.37 8.51 72.75 8.41Q73.14 8.30 73.14 7.98L73.14 7.98Q73.14 7.78 73.02 7.63Q72.90 7.49 72.68 7.38Q72.46 7.28 72.18 7.18Q71.90 7.09 71.60 6.99L71.60 6.99Q71.17 6.86 70.72 6.70Q70.27 6.53 69.90 6.27Q69.54 6.02 69.30 5.62Q69.06 5.23 69.06 4.64L69.06 4.64Q69.06 4.16 69.24 3.74Q69.42 3.31 69.82 2.98Q70.21 2.66 70.82 2.47Q71.42 2.29 72.27 2.29L72.27 2.29Q73.01 2.29 73.64 2.40Q74.27 2.51 74.74 2.72L74.74 2.72L74.43 4.38Q74.16 4.30 73.58 4.12Q73.01 3.94 72.29 3.94L72.29 3.94Q71.54 3.94 71.27 4.12Q71.01 4.30 71.01 4.51L71.01 4.51Q71.01 4.69 71.13 4.82Q71.25 4.96 71.45 5.07Q71.65 5.18 71.91 5.29Q72.18 5.39 72.48 5.49L72.48 5.49Q72.91 5.63 73.38 5.81Q73.84 5.98 74.22 6.25Q74.59 6.51 74.83 6.92Q75.07 7.33 75.07 7.92L75.07 7.92Q75.07 8.38 74.90 8.80Q74.72 9.22 74.31 9.52Q73.90 9.82 73.25 10Q72.59 10.18 71.63 10.18L71.63 10.18Q70.66 10.18 69.97 9.95Q69.28 9.73 68.86 9.55L68.86 9.55L69.17 7.90Q69.73 8.13 70.36 8.32Q70.99 8.51 71.65 8.51ZM87.42-0.02L87.42-0.02Q88.27-0.02 88.96 0.18Q89.65 0.37 90.14 0.77Q90.64 1.17 90.90 1.78Q91.17 2.40 91.17 3.23L91.17 3.23Q91.17 4.10 90.82 4.80Q90.46 5.50 89.65 5.87L89.65 5.87Q89.92 6.29 90.22 6.79Q90.53 7.30 90.82 7.85Q91.10 8.40 91.37 8.95Q91.63 9.50 91.82 10L91.82 10L89.76 10Q89.39 9.04 88.90 8.15Q88.42 7.26 87.86 6.35L87.86 6.35L86.83 6.35L86.83 10L84.86 10L84.86 0.24Q85.15 0.18 85.50 0.12Q85.84 0.06 86.19 0.04Q86.54 0.02 86.86 0Q87.18-0.02 87.42-0.02ZM89.17 3.22L89.17 3.22Q89.17 2.43 88.69 2.06Q88.21 1.70 87.42 1.70L87.42 1.70Q87.31 1.70 87.15 1.70Q86.99 1.71 86.83 1.74L86.83 1.74L86.83 4.72L87.26 4.72Q88.27 4.72 88.72 4.33Q89.17 3.94 89.17 3.22ZM92.50 6.30L92.50 6.30Q92.50 5.31 92.80 4.56Q93.10 3.81 93.60 3.30Q94.10 2.80 94.74 2.54Q95.38 2.29 96.05 2.29L96.05 2.29Q97.71 2.29 98.58 3.27Q99.44 4.26 99.44 6.14L99.44 6.14Q99.44 6.34 99.43 6.54Q99.42 6.75 99.41 6.88L99.41 6.88L94.53 6.88Q94.53 7.62 95.14 8.04Q95.74 8.46 96.70 8.46L96.70 8.46Q97.30 8.46 97.83 8.34Q98.37 8.21 98.74 8.08L98.74 8.08L99.01 9.76Q98.50 9.94 97.92 10.06Q97.34 10.18 96.62 10.18L96.62 10.18Q95.66 10.18 94.90 9.93Q94.14 9.68 93.61 9.19Q93.07 8.70 92.78 7.98Q92.50 7.26 92.50 6.30ZM94.53 5.52L97.54 5.52Q97.54 5.22 97.46 4.94Q97.38 4.66 97.20 4.43Q97.02 4.21 96.75 4.07Q96.48 3.94 96.08 3.94L96.08 3.94Q95.70 3.94 95.42 4.06Q95.14 4.19 94.95 4.42Q94.77 4.64 94.66 4.93Q94.56 5.22 94.53 5.52L94.53 5.52ZM102.53 6L102.53 6Q102.53 6.93 102.86 7.42Q103.20 7.90 103.92 7.90L103.92 7.90Q104.24 7.90 104.52 7.82Q104.80 7.74 105.02 7.62L105.02 7.62L105.02 4Q104.80 3.95 104.62 3.94Q104.45 3.92 104.26 3.92L104.26 3.92Q102.53 3.92 102.53 6ZM107.01 2.72L107.01 9.09Q107.01 10.93 106.12 11.81Q105.23 12.69 103.26 12.69L103.26 12.69Q102.56 12.69 101.91 12.54Q101.26 12.40 100.67 12.21L100.67 12.21L101.04 10.54Q101.50 10.72 102.02 10.87Q102.53 11.02 103.30 11.02L103.30 11.02Q103.81 11.02 104.14 10.90Q104.48 10.78 104.67 10.58Q104.86 10.37 104.94 10.09Q105.02 9.81 105.02 9.49L105.02 9.49L105.02 9.18Q104.61 9.34 104.26 9.42Q103.92 9.50 103.52 9.50L103.52 9.50Q102.05 9.50 101.29 8.58Q100.53 7.65 100.53 6L100.53 6Q100.53 4.14 101.55 3.23Q102.58 2.32 104.34 2.32L104.34 2.32Q105.57 2.32 107.01 2.72L107.01 2.72ZM112.54 0.32L112.54 0.32Q112.54 0.90 112.18 1.23Q111.81 1.57 111.30 1.57L111.30 1.57Q110.78 1.57 110.42 1.23Q110.06 0.90 110.06 0.32L110.06 0.32Q110.06-0.27 110.42-0.61Q110.78-0.94 111.30-0.94L111.30-0.94Q111.81-0.94 112.18-0.61Q112.54-0.27 112.54 0.32ZM115.22 8.10L115.47 9.68Q114.86 9.97 114.33 10.07Q113.79 10.18 113.34 10.18L113.34 10.18Q112.58 10.18 112.06 9.95Q111.54 9.73 111.22 9.30Q110.91 8.88 110.78 8.27Q110.66 7.66 110.66 6.88L110.66 6.88L110.66 4.11L108.58 4.11L108.58 2.48L112.62 2.48L112.62 7.14Q112.62 7.81 112.87 8.14Q113.12 8.46 113.70 8.46L113.70 8.46Q113.97 8.46 114.35 8.39Q114.74 8.32 115.22 8.10L115.22 8.10ZM119.65 8.51L119.65 8.51Q120.37 8.51 120.75 8.41Q121.14 8.30 121.14 7.98L121.14 7.98Q121.14 7.78 121.02 7.63Q120.90 7.49 120.68 7.38Q120.46 7.28 120.18 7.18Q119.90 7.09 119.60 6.99L119.60 6.99Q119.17 6.86 118.72 6.70Q118.27 6.53 117.90 6.27Q117.54 6.02 117.30 5.62Q117.06 5.23 117.06 4.64L117.06 4.64Q117.06 4.16 117.24 3.74Q117.42 3.31 117.82 2.98Q118.21 2.66 118.82 2.47Q119.42 2.29 120.27 2.29L120.27 2.29Q121.01 2.29 121.64 2.40Q122.27 2.51 122.74 2.72L122.74 2.72L122.43 4.38Q122.16 4.30 121.58 4.12Q121.01 3.94 120.29 3.94L120.29 3.94Q119.54 3.94 119.27 4.12Q119.01 4.30 119.01 4.51L119.01 4.51Q119.01 4.69 119.13 4.82Q119.25 4.96 119.45 5.07Q119.65 5.18 119.91 5.29Q120.18 5.39 120.48 5.49L120.48 5.49Q120.91 5.63 121.38 5.81Q121.84 5.98 122.22 6.25Q122.59 6.51 122.83 6.92Q123.07 7.33 123.07 7.92L123.07 7.92Q123.07 8.38 122.90 8.80Q122.72 9.22 122.31 9.52Q121.90 9.82 121.25 10Q120.59 10.18 119.63 10.18L119.63 10.18Q118.66 10.18 117.97 9.95Q117.28 9.73 116.86 9.55L116.86 9.55L117.17 7.90Q117.73 8.13 118.36 8.32Q118.99 8.51 119.65 8.51ZM126.29 7.20L126.29 4.11L124.58 4.11L124.58 2.48L126.29 2.48L126.29 0.59L128.26 0.27L128.26 2.48L131.41 2.48L131.41 4.11L128.26 4.11L128.26 7.15Q128.26 7.57 128.34 7.82Q128.42 8.08 128.56 8.22Q128.70 8.37 128.91 8.42Q129.12 8.46 129.38 8.46L129.38 8.46Q129.65 8.46 129.88 8.45Q130.11 8.43 130.33 8.39Q130.54 8.35 130.78 8.27Q131.01 8.19 131.28 8.06L131.28 8.06L131.55 9.76Q131.01 9.98 130.38 10.08Q129.74 10.18 129.15 10.18L129.15 10.18Q128.46 10.18 127.94 10.06Q127.41 9.95 127.04 9.63Q126.67 9.31 126.48 8.73Q126.29 8.14 126.29 7.20L126.29 7.20ZM139.34 2.66L138.99 4.48Q138.80 4.43 138.54 4.38Q138.27 4.34 138 4.30Q137.73 4.26 137.47 4.24Q137.22 4.22 137.04 4.22L137.04 4.22Q136.62 4.22 136.22 4.26Q135.82 4.30 135.41 4.42L135.41 4.42L135.41 10L133.42 10L133.42 2.98Q134.21 2.69 135.03 2.51Q135.86 2.34 136.96 2.34L136.96 2.34Q137.12 2.34 137.42 2.35Q137.71 2.37 138.05 2.41Q138.38 2.45 138.73 2.50Q139.07 2.56 139.34 2.66L139.34 2.66ZM145.54 2.48L147.55 2.48Q147.25 3.54 146.97 4.55Q146.69 5.57 146.38 6.54Q146.08 7.50 145.74 8.43Q145.39 9.36 144.99 10.24L144.99 10.24Q144.69 10.88 144.39 11.34Q144.10 11.81 143.74 12.10Q143.38 12.40 142.94 12.54Q142.50 12.69 141.90 12.69L141.90 12.69Q141.41 12.69 141 12.61Q140.59 12.53 140.32 12.40L140.32 12.40L140.69 10.75Q141.01 10.90 141.26 10.95Q141.50 11.01 141.79 11.01L141.79 11.01Q142.37 11.01 142.72 10.62Q143.07 10.24 143.28 9.71L143.28 9.71Q142.58 8.30 141.87 6.49Q141.17 4.67 140.59 2.48L140.59 2.48L142.64 2.48Q142.78 3.07 142.97 3.74Q143.15 4.42 143.36 5.09Q143.57 5.76 143.80 6.41Q144.03 7.06 144.27 7.62L144.27 7.62Q144.43 7.06 144.61 6.41Q144.78 5.76 144.94 5.10Q145.10 4.43 145.26 3.76Q145.41 3.09 145.54 2.48L145.54 2.48ZM163.36 10L157.01 10L157.01 0.10L163.01 0.10L163.01 1.73L158.98 1.73L158.98 3.95L162.48 3.95L162.48 5.58L158.98 5.58L158.98 8.37L163.36 8.37L163.36 10ZM165.01 10L165.01 2.72Q165.54 2.58 166.31 2.45Q167.09 2.32 168 2.32L168 2.32Q168.90 2.32 169.49 2.57Q170.08 2.82 170.42 3.27Q170.77 3.73 170.91 4.36Q171.06 4.99 171.06 5.76L171.06 5.76L171.06 10L169.09 10L169.09 6.02Q169.09 4.96 168.85 4.50Q168.61 4.03 167.87 4.03L167.87 4.03Q167.65 4.03 167.43 4.05Q167.22 4.06 166.98 4.10L166.98 4.10L166.98 10L165.01 10ZM174.29 7.20L174.29 4.11L172.58 4.11L172.58 2.48L174.29 2.48L174.29 0.59L176.26 0.27L176.26 2.48L179.41 2.48L179.41 4.11L176.26 4.11L176.26 7.15Q176.26 7.57 176.34 7.82Q176.42 8.08 176.56 8.22Q176.70 8.37 176.91 8.42Q177.12 8.46 177.38 8.46L177.38 8.46Q177.65 8.46 177.88 8.45Q178.11 8.43 178.33 8.39Q178.54 8.35 178.78 8.27Q179.01 8.19 179.28 8.06L179.28 8.06L179.55 9.76Q179.01 9.98 178.38 10.08Q177.74 10.18 177.15 10.18L177.15 10.18Q176.46 10.18 175.94 10.06Q175.41 9.95 175.04 9.63Q174.67 9.31 174.48 8.73Q174.29 8.14 174.29 7.20L174.29 7.20ZM187.34 2.66L186.99 4.48Q186.80 4.43 186.54 4.38Q186.27 4.34 186 4.30Q185.73 4.26 185.47 4.24Q185.22 4.22 185.04 4.22L185.04 4.22Q184.62 4.22 184.22 4.26Q183.82 4.30 183.41 4.42L183.41 4.42L183.41 10L181.42 10L181.42 2.98Q182.21 2.69 183.03 2.51Q183.86 2.34 184.96 2.34L184.96 2.34Q185.12 2.34 185.42 2.35Q185.71 2.37 186.05 2.41Q186.38 2.45 186.73 2.50Q187.07 2.56 187.34 2.66L187.34 2.66ZM192.54 0.32L192.54 0.32Q192.54 0.90 192.18 1.23Q191.81 1.57 191.30 1.57L191.30 1.57Q190.78 1.57 190.42 1.23Q190.06 0.90 190.06 0.32L190.06 0.32Q190.06-0.27 190.42-0.61Q190.78-0.94 191.30-0.94L191.30-0.94Q191.81-0.94 192.18-0.61Q192.54-0.27 192.54 0.32ZM195.22 8.10L195.47 9.68Q194.86 9.97 194.33 10.07Q193.79 10.18 193.34 10.18L193.34 10.18Q192.58 10.18 192.06 9.95Q191.54 9.73 191.22 9.30Q190.91 8.88 190.78 8.27Q190.66 7.66 190.66 6.88L190.66 6.88L190.66 4.11L188.58 4.11L188.58 2.48L192.62 2.48L192.62 7.14Q192.62 7.81 192.87 8.14Q193.12 8.46 193.70 8.46L193.70 8.46Q193.97 8.46 194.35 8.39Q194.74 8.32 195.22 8.10L195.22 8.10ZM196.50 6.30L196.50 6.30Q196.50 5.31 196.80 4.56Q197.10 3.81 197.60 3.30Q198.10 2.80 198.74 2.54Q199.38 2.29 200.05 2.29L200.05 2.29Q201.71 2.29 202.58 3.27Q203.44 4.26 203.44 6.14L203.44 6.14Q203.44 6.34 203.43 6.54Q203.42 6.75 203.41 6.88L203.41 6.88L198.53 6.88Q198.53 7.62 199.14 8.04Q199.74 8.46 200.70 8.46L200.70 8.46Q201.30 8.46 201.83 8.34Q202.37 8.21 202.74 8.08L202.74 8.08L203.01 9.76Q202.50 9.94 201.92 10.06Q201.34 10.18 200.62 10.18L200.62 10.18Q199.66 10.18 198.90 9.93Q198.14 9.68 197.61 9.19Q197.07 8.70 196.78 7.98Q196.50 7.26 196.50 6.30ZM198.53 5.52L201.54 5.52Q201.54 5.22 201.46 4.94Q201.38 4.66 201.20 4.43Q201.02 4.21 200.75 4.07Q200.48 3.94 200.08 3.94L200.08 3.94Q199.70 3.94 199.42 4.06Q199.14 4.19 198.95 4.42Q198.77 4.64 198.66 4.93Q198.56 5.22 198.53 5.52L198.53 5.52ZM207.65 8.51L207.65 8.51Q208.37 8.51 208.75 8.41Q209.14 8.30 209.14 7.98L209.14 7.98Q209.14 7.78 209.02 7.63Q208.90 7.49 208.68 7.38Q208.46 7.28 208.18 7.18Q207.90 7.09 207.60 6.99L207.60 6.99Q207.17 6.86 206.72 6.70Q206.27 6.53 205.90 6.27Q205.54 6.02 205.30 5.62Q205.06 5.23 205.06 4.64L205.06 4.64Q205.06 4.16 205.24 3.74Q205.42 3.31 205.82 2.98Q206.21 2.66 206.82 2.47Q207.42 2.29 208.27 2.29L208.27 2.29Q209.01 2.29 209.64 2.40Q210.27 2.51 210.74 2.72L210.74 2.72L210.43 4.38Q210.16 4.30 209.58 4.12Q209.01 3.94 208.29 3.94L208.29 3.94Q207.54 3.94 207.27 4.12Q207.01 4.30 207.01 4.51L207.01 4.51Q207.01 4.69 207.13 4.82Q207.25 4.96 207.45 5.07Q207.65 5.18 207.91 5.29Q208.18 5.39 208.48 5.49L208.48 5.49Q208.91 5.63 209.38 5.81Q209.84 5.98 210.22 6.25Q210.59 6.51 210.83 6.92Q211.07 7.33 211.07 7.92L211.07 7.92Q211.07 8.38 210.90 8.80Q210.72 9.22 210.31 9.52Q209.90 9.82 209.25 10Q208.59 10.18 207.63 10.18L207.63 10.18Q206.66 10.18 205.97 9.95Q205.28 9.73 204.86 9.55L204.86 9.55L205.17 7.90Q205.73 8.13 206.36 8.32Q206.99 8.51 207.65 8.51Z"/>
    </g>
</svg>