<?xml version="1.0" encoding="UTF-8"?><svg height="26" width="155.4" version="1.1" xmlns="http://www.w3.org/2000/svg"><!--Created by Josélio de S. C. Júnior - 2021 - https://github.com/joseliojunior --><rect height="24" width="153.4" rx="12" ry="12" x="1" y="1" fill="#7fa2a7" stroke="#3a5155" stroke-width="1" /><g transform="translate(0, 8)"><path fill="#3a5155" d="M23.58-0.02L23.58-0.02Q25.47-0.02 26.51 0.76Q27.55 1.54 27.55 3.30L27.55 3.30Q27.55 5.07 26.50 5.86Q25.46 6.66 23.54 6.66L23.54 6.66L22.83 6.66L22.83 10L20.86 10L20.86 0.22Q21.15 0.16 21.51 0.11Q21.87 0.06 22.24 0.04Q22.61 0.02 22.96 0Q23.31-0.02 23.58-0.02ZM23.81 1.70L23.81 1.70Q23.63 1.70 23.32 1.70Q23.01 1.71 22.83 1.74L22.83 1.74L22.83 4.94L23.63 4.94Q24.58 4.94 25.06 4.57Q25.54 4.19 25.54 3.28L25.54 3.28Q25.54 2.42 25.06 2.06Q24.59 1.70 23.81 1.70ZM35.34 2.66L34.99 4.48Q34.80 4.43 34.54 4.38Q34.27 4.34 34 4.30Q33.73 4.26 33.47 4.24Q33.22 4.22 33.04 4.22L33.04 4.22Q32.62 4.22 32.22 4.26Q31.82 4.30 31.41 4.42L31.41 4.42L31.41 10L29.42 10L29.42 2.98Q30.21 2.69 31.03 2.51Q31.86 2.34 32.96 2.34L32.96 2.34Q33.12 2.34 33.42 2.35Q33.71 2.37 34.05 2.41Q34.38 2.45 34.73 2.50Q35.07 2.56 35.34 2.66L35.34 2.66ZM43.55 6.22L43.55 6.22Q43.55 7.12 43.30 7.85Q43.04 8.58 42.58 9.10Q42.11 9.63 41.46 9.92Q40.82 10.21 40.02 10.21L40.02 10.21Q39.22 10.21 38.57 9.92Q37.92 9.63 37.45 9.10Q36.98 8.58 36.72 7.85Q36.46 7.12 36.46 6.22L36.46 6.22Q36.46 5.34 36.73 4.62Q36.99 3.89 37.46 3.37Q37.94 2.85 38.59 2.57Q39.25 2.29 40.02 2.29L40.02 2.29Q40.80 2.29 41.45 2.57Q42.10 2.85 42.57 3.37Q43.04 3.89 43.30 4.62Q43.55 5.34 43.55 6.22ZM38.46 6.24L38.46 6.24Q38.46 7.25 38.82 7.87Q39.18 8.50 39.98 8.50L39.98 8.50Q40.75 8.50 41.14 7.87Q41.54 7.25 41.54 6.24L41.54 6.24Q41.54 5.23 41.18 4.62Q40.82 4 40.02 4L40.02 4Q39.25 4 38.86 4.62Q38.46 5.23 38.46 6.24ZM49.50 6.30L49.50 6.30Q49.50 5.30 49.10 4.65Q48.70 4 47.89 4L47.89 4Q47.66 4 47.41 4.02Q47.15 4.05 46.98 4.06L46.98 4.06L46.98 8.19Q47.17 8.32 47.49 8.40Q47.81 8.48 48.13 8.48L48.13 8.48Q48.83 8.48 49.17 7.91Q49.50 7.34 49.50 6.30ZM51.50 6.24L51.50 6.24Q51.50 7.10 51.31 7.83Q51.12 8.56 50.75 9.08Q50.38 9.60 49.82 9.89Q49.26 10.18 48.53 10.18L48.53 10.18Q47.78 10.18 46.98 9.81L46.98 9.81L46.98 12.64L45.01 12.64L45.01 2.72Q45.55 2.54 46.34 2.43Q47.14 2.32 47.90 2.32L47.90 2.32Q49.65 2.32 50.58 3.38Q51.50 4.43 51.50 6.24ZM52.50 6.30L52.50 6.30Q52.50 5.31 52.80 4.56Q53.10 3.81 53.60 3.30Q54.10 2.80 54.74 2.54Q55.38 2.29 56.05 2.29L56.05 2.29Q57.71 2.29 58.58 3.27Q59.44 4.26 59.44 6.14L59.44 6.14Q59.44 6.34 59.43 6.54Q59.42 6.75 59.41 6.88L59.41 6.88L54.53 6.88Q54.53 7.62 55.14 8.04Q55.74 8.46 56.70 8.46L56.70 8.46Q57.30 8.46 57.83 8.34Q58.37 8.21 58.74 8.08L58.74 8.08L59.01 9.76Q58.50 9.94 57.92 10.06Q57.34 10.18 56.62 10.18L56.62 10.18Q55.66 10.18 54.90 9.93Q54.14 9.68 53.61 9.19Q53.07 8.70 52.78 7.98Q52.50 7.26 52.50 6.30ZM54.53 5.52L57.54 5.52Q57.54 5.22 57.46 4.94Q57.38 4.66 57.20 4.43Q57.02 4.21 56.75 4.07Q56.48 3.94 56.08 3.94L56.08 3.94Q55.70 3.94 55.42 4.06Q55.14 4.19 54.95 4.42Q54.77 4.64 54.66 4.93Q54.56 5.22 54.53 5.52L54.53 5.52ZM67.22 8.10L67.47 9.68Q67.42 9.71 67.26 9.79Q67.09 9.87 66.82 9.96Q66.54 10.05 66.15 10.11Q65.76 10.18 65.26 10.18L65.26 10.18Q63.90 10.18 63.28 9.37Q62.66 8.56 62.66 7.01L62.66 7.01L62.66 0.62L60.58 0.62L60.58-1.01L64.62-1.01L64.62 7.15Q64.62 7.92 64.93 8.19Q65.23 8.46 65.70 8.46L65.70 8.46Q66.29 8.46 66.69 8.30Q67.09 8.14 67.22 8.10L67.22 8.10ZM75.22 8.10L75.47 9.68Q75.42 9.71 75.26 9.79Q75.09 9.87 74.82 9.96Q74.54 10.05 74.15 10.11Q73.76 10.18 73.26 10.18L73.26 10.18Q71.90 10.18 71.28 9.37Q70.66 8.56 70.66 7.01L70.66 7.01L70.66 0.62L68.58 0.62L68.58-1.01L72.62-1.01L72.62 7.15Q72.62 7.92 72.93 8.19Q73.23 8.46 73.70 8.46L73.70 8.46Q74.29 8.46 74.69 8.30Q75.09 8.14 75.22 8.10L75.22 8.10ZM76.50 6.30L76.50 6.30Q76.50 5.31 76.80 4.56Q77.10 3.81 77.60 3.30Q78.10 2.80 78.74 2.54Q79.38 2.29 80.05 2.29L80.05 2.29Q81.71 2.29 82.58 3.27Q83.44 4.26 83.44 6.14L83.44 6.14Q83.44 6.34 83.43 6.54Q83.42 6.75 83.41 6.88L83.41 6.88L78.53 6.88Q78.53 7.62 79.14 8.04Q79.74 8.46 80.70 8.46L80.70 8.46Q81.30 8.46 81.83 8.34Q82.37 8.21 82.74 8.08L82.74 8.08L83.01 9.76Q82.50 9.94 81.92 10.06Q81.34 10.18 80.62 10.18L80.62 10.18Q79.66 10.18 78.90 9.93Q78.14 9.68 77.61 9.19Q77.07 8.70 76.78 7.98Q76.50 7.26 76.50 6.30ZM78.53 5.52L81.54 5.52Q81.54 5.22 81.46 4.94Q81.38 4.66 81.20 4.43Q81.02 4.21 80.75 4.07Q80.48 3.94 80.08 3.94L80.08 3.94Q79.70 3.94 79.42 4.06Q79.14 4.19 78.95 4.42Q78.77 4.64 78.66 4.93Q78.56 5.22 78.53 5.52L78.53 5.52ZM91.34 2.66L90.99 4.48Q90.80 4.43 90.54 4.38Q90.27 4.34 90 4.30Q89.73 4.26 89.47 4.24Q89.22 4.22 89.04 4.22L89.04 4.22Q88.62 4.22 88.22 4.26Q87.82 4.30 87.41 4.42L87.41 4.42L87.41 10L85.42 10L85.42 2.98Q86.21 2.69 87.03 2.51Q87.86 2.34 88.96 2.34L88.96 2.34Q89.12 2.34 89.42 2.35Q89.71 2.37 90.05 2.41Q90.38 2.45 90.73 2.50Q91.07 2.56 91.34 2.66L91.34 2.66ZM103.71 8.56L103.71 8.56Q104.21 8.56 104.54 8.46Q104.86 8.35 105.06 8.17Q105.25 7.98 105.32 7.75Q105.39 7.52 105.39 7.28L105.39 7.28Q105.39 6.98 105.22 6.74Q105.04 6.50 104.77 6.31Q104.50 6.13 104.16 5.98Q103.82 5.82 103.49 5.70L103.49 5.70Q103.04 5.54 102.56 5.33Q102.08 5.12 101.69 4.80Q101.30 4.48 101.04 4.01Q100.78 3.54 100.78 2.83L100.78 2.83Q100.78 1.44 101.69 0.66Q102.59-0.13 104.18-0.13L104.18-0.13Q105.09-0.13 105.77 0.08Q106.45 0.29 106.91 0.54L106.91 0.54L106.34 2.06Q105.94 1.84 105.45 1.68Q104.96 1.52 104.32 1.52L104.32 1.52Q102.75 1.52 102.75 2.66L102.75 2.66Q102.75 2.94 102.91 3.16Q103.07 3.38 103.32 3.54Q103.57 3.71 103.88 3.84Q104.19 3.97 104.50 4.08L104.50 4.08Q104.96 4.26 105.46 4.47Q105.97 4.69 106.39 5.05Q106.82 5.41 107.09 5.94Q107.36 6.48 107.36 7.30L107.36 7.30Q107.36 8.69 106.46 9.45Q105.55 10.21 103.71 10.21L103.71 10.21Q102.48 10.21 101.74 9.94Q101.01 9.68 100.64 9.46L100.64 9.46L101.22 7.86Q101.65 8.11 102.25 8.34Q102.85 8.56 103.71 8.56ZM113.50 6.30L113.50 6.30Q113.50 5.30 113.10 4.65Q112.70 4 111.89 4L111.89 4Q111.66 4 111.41 4.02Q111.15 4.05 110.98 4.06L110.98 4.06L110.98 8.19Q111.17 8.32 111.49 8.40Q111.81 8.48 112.13 8.48L112.13 8.48Q112.83 8.48 113.17 7.91Q113.50 7.34 113.50 6.30ZM115.50 6.24L115.50 6.24Q115.50 7.10 115.31 7.83Q115.12 8.56 114.75 9.08Q114.38 9.60 113.82 9.89Q113.26 10.18 112.53 10.18L112.53 10.18Q111.78 10.18 110.98 9.81L110.98 9.81L110.98 12.64L109.01 12.64L109.01 2.72Q109.55 2.54 110.34 2.43Q111.14 2.32 111.90 2.32L111.90 2.32Q113.65 2.32 114.58 3.38Q115.50 4.43 115.50 6.24ZM120.54 0.32L120.54 0.32Q120.54 0.90 120.18 1.23Q119.81 1.57 119.30 1.57L119.30 1.57Q118.78 1.57 118.42 1.23Q118.06 0.90 118.06 0.32L118.06 0.32Q118.06-0.27 118.42-0.61Q118.78-0.94 119.30-0.94L119.30-0.94Q119.81-0.94 120.18-0.61Q120.54-0.27 120.54 0.32ZM123.22 8.10L123.47 9.68Q122.86 9.97 122.33 10.07Q121.79 10.18 121.34 10.18L121.34 10.18Q120.58 10.18 120.06 9.95Q119.54 9.73 119.22 9.30Q118.91 8.88 118.78 8.27Q118.66 7.66 118.66 6.88L118.66 6.88L118.66 4.11L116.58 4.11L116.58 2.48L120.62 2.48L120.62 7.14Q120.62 7.81 120.87 8.14Q121.12 8.46 121.70 8.46L121.70 8.46Q121.97 8.46 122.35 8.39Q122.74 8.32 123.22 8.10L123.22 8.10ZM125.01 10L125.01 2.72Q125.54 2.58 126.31 2.45Q127.09 2.32 128 2.32L128 2.32Q128.90 2.32 129.49 2.57Q130.08 2.82 130.42 3.27Q130.77 3.73 130.91 4.36Q131.06 4.99 131.06 5.76L131.06 5.76L131.06 10L129.09 10L129.09 6.02Q129.09 4.96 128.85 4.50Q128.61 4.03 127.87 4.03L127.87 4.03Q127.65 4.03 127.43 4.05Q127.22 4.06 126.98 4.10L126.98 4.10L126.98 10L125.01 10Z"/></g></svg>