<?xml version="1.0" encoding="UTF-8"?>
<svg height="34" width="211.4" version="1.1" xmlns="http://www.w3.org/2000/svg">
    <rect
        height="32"
        width="209.4"
        rx="16"
        ry="16"
        x="1"
        y="1"
        fill="#7fa2a7"
        stroke="#3a5155"
        stroke-width="1"
         />
    <g transform="translate(0, 12)">
        <path fill="#3a5155" d="M25.38-3.02L25.38-3.02Q28.21-3.02 29.77-1.86Q31.33-0.70 31.33 1.94L31.33 1.94Q31.33 4.61 29.76 5.80Q28.18 6.98 25.30 6.98L25.30 6.98L24.25 6.98L24.25 12L21.30 12L21.30-2.66Q21.73-2.76 22.27-2.83Q22.81-2.90 23.36-2.94Q23.91-2.98 24.44-3Q24.97-3.02 25.38-3.02ZM25.71-0.46L25.71-0.46Q25.45-0.46 24.98-0.44Q24.51-0.43 24.25-0.38L24.25-0.38L24.25 4.42L25.45 4.42Q26.86 4.42 27.58 3.85Q28.30 3.29 28.30 1.92L28.30 1.92Q28.30 0.62 27.60 0.08Q26.89-0.46 25.71-0.46ZM43.02 0.98L42.49 3.72Q42.20 3.65 41.80 3.58Q41.41 3.50 41 3.44Q40.59 3.38 40.21 3.36Q39.82 3.34 39.56 3.34L39.56 3.34Q38.94 3.34 38.34 3.40Q37.74 3.46 37.11 3.62L37.11 3.62L37.11 12L34.14 12L34.14 1.46Q35.31 1.03 36.55 0.77Q37.78 0.50 39.44 0.50L39.44 0.50Q39.68 0.50 40.12 0.53Q40.57 0.55 41.07 0.61Q41.58 0.67 42.09 0.76Q42.61 0.84 43.02 0.98L43.02 0.98ZM55.33 6.34L55.33 6.34Q55.33 7.68 54.94 8.77Q54.56 9.86 53.86 10.66Q53.17 11.45 52.20 11.88Q51.22 12.31 50.02 12.31L50.02 12.31Q48.82 12.31 47.85 11.88Q46.88 11.45 46.17 10.66Q45.46 9.86 45.08 8.77Q44.70 7.68 44.70 6.34L44.70 6.34Q44.70 5.02 45.09 3.92Q45.49 2.83 46.20 2.05Q46.90 1.27 47.89 0.85Q48.87 0.43 50.02 0.43L50.02 0.43Q51.20 0.43 52.17 0.85Q53.14 1.27 53.85 2.05Q54.56 2.83 54.94 3.92Q55.33 5.02 55.33 6.34ZM47.70 6.36L47.70 6.36Q47.70 7.87 48.24 8.81Q48.78 9.74 49.98 9.74L49.98 9.74Q51.13 9.74 51.72 8.81Q52.30 7.87 52.30 6.36L52.30 6.36Q52.30 4.85 51.76 3.92Q51.22 3 50.02 3L50.02 3Q48.87 3 48.28 3.92Q47.70 4.85 47.70 6.36ZM64.26 6.46L64.26 6.46Q64.26 4.94 63.66 3.97Q63.06 3 61.83 3L61.83 3Q61.50 3 61.11 3.04Q60.73 3.07 60.46 3.10L60.46 3.10L60.46 9.29Q60.75 9.48 61.23 9.60Q61.71 9.72 62.19 9.72L62.19 9.72Q63.25 9.72 63.75 8.87Q64.26 8.02 64.26 6.46ZM67.26 6.36L67.26 6.36Q67.26 7.66 66.97 8.75Q66.68 9.84 66.13 10.62Q65.58 11.40 64.74 11.83Q63.90 12.26 62.79 12.26L62.79 12.26Q61.66 12.26 60.46 11.71L60.46 11.71L60.46 15.96L57.51 15.96L57.51 1.08Q58.33 0.82 59.52 0.65Q60.70 0.48 61.86 0.48L61.86 0.48Q64.47 0.48 65.86 2.06Q67.26 3.65 67.26 6.36ZM68.74 6.46L68.74 6.46Q68.74 4.97 69.20 3.84Q69.66 2.71 70.40 1.96Q71.14 1.20 72.10 0.82Q73.06 0.43 74.07 0.43L74.07 0.43Q76.57 0.43 77.86 1.91Q79.16 3.38 79.16 6.22L79.16 6.22Q79.16 6.50 79.15 6.82Q79.14 7.13 79.11 7.32L79.11 7.32L71.79 7.32Q71.79 8.42 72.70 9.06Q73.62 9.70 75.06 9.70L75.06 9.70Q75.94 9.70 76.75 9.50Q77.55 9.31 78.10 9.12L78.10 9.12L78.51 11.64Q77.74 11.90 76.88 12.08Q76.02 12.26 74.94 12.26L74.94 12.26Q73.50 12.26 72.36 11.89Q71.22 11.52 70.41 10.79Q69.61 10.06 69.18 8.98Q68.74 7.90 68.74 6.46ZM71.79 5.28L76.30 5.28Q76.30 4.82 76.18 4.40Q76.06 3.98 75.80 3.65Q75.54 3.31 75.13 3.11Q74.72 2.90 74.12 2.90L74.12 2.90Q73.54 2.90 73.12 3.10Q72.70 3.29 72.43 3.62Q72.15 3.96 72.00 4.39Q71.84 4.82 71.79 5.28L71.79 5.28ZM90.82 9.14L91.21 11.52Q91.14 11.57 90.88 11.69Q90.63 11.81 90.22 11.94Q89.82 12.07 89.23 12.17Q88.64 12.26 87.90 12.26L87.90 12.26Q85.86 12.26 84.92 11.05Q83.98 9.84 83.98 7.51L83.98 7.51L83.98-2.06L80.86-2.06L80.86-4.51L86.94-4.51L86.94 7.73Q86.94 8.88 87.39 9.29Q87.85 9.70 88.54 9.70L88.54 9.70Q89.43 9.70 90.03 9.46Q90.63 9.22 90.82 9.14L90.82 9.14ZM102.82 9.14L103.21 11.52Q103.14 11.57 102.88 11.69Q102.63 11.81 102.22 11.94Q101.82 12.07 101.23 12.17Q100.64 12.26 99.90 12.26L99.90 12.26Q97.86 12.26 96.92 11.05Q95.98 9.84 95.98 7.51L95.98 7.51L95.98-2.06L92.86-2.06L92.86-4.51L98.94-4.51L98.94 7.73Q98.94 8.88 99.39 9.29Q99.85 9.70 100.54 9.70L100.54 9.70Q101.43 9.70 102.03 9.46Q102.63 9.22 102.82 9.14L102.82 9.14ZM104.74 6.46L104.74 6.46Q104.74 4.97 105.20 3.84Q105.66 2.71 106.40 1.96Q107.14 1.20 108.10 0.82Q109.06 0.43 110.07 0.43L110.07 0.43Q112.57 0.43 113.86 1.91Q115.16 3.38 115.16 6.22L115.16 6.22Q115.16 6.50 115.15 6.82Q115.14 7.13 115.11 7.32L115.11 7.32L107.79 7.32Q107.79 8.42 108.70 9.06Q109.62 9.70 111.06 9.70L111.06 9.70Q111.94 9.70 112.75 9.50Q113.55 9.31 114.10 9.12L114.10 9.12L114.51 11.64Q113.74 11.90 112.88 12.08Q112.02 12.26 110.94 12.26L110.94 12.26Q109.50 12.26 108.36 11.89Q107.22 11.52 106.41 10.79Q105.61 10.06 105.18 8.98Q104.74 7.90 104.74 6.46ZM107.79 5.28L112.30 5.28Q112.30 4.82 112.18 4.40Q112.06 3.98 111.80 3.65Q111.54 3.31 111.13 3.11Q110.72 2.90 110.12 2.90L110.12 2.90Q109.54 2.90 109.12 3.10Q108.70 3.29 108.43 3.62Q108.15 3.96 108.00 4.39Q107.84 4.82 107.79 5.28L107.79 5.28ZM127.02 0.98L126.49 3.72Q126.20 3.65 125.80 3.58Q125.41 3.50 125 3.44Q124.59 3.38 124.21 3.36Q123.82 3.34 123.56 3.34L123.56 3.34Q122.94 3.34 122.34 3.40Q121.74 3.46 121.11 3.62L121.11 3.62L121.11 12L118.14 12L118.14 1.46Q119.31 1.03 120.55 0.77Q121.78 0.50 123.44 0.50L123.44 0.50Q123.68 0.50 124.12 0.53Q124.57 0.55 125.07 0.61Q125.58 0.67 126.09 0.76Q126.61 0.84 127.02 0.98L127.02 0.98ZM145.57 9.84L145.57 9.84Q146.31 9.84 146.80 9.68Q147.30 9.53 147.58 9.25Q147.87 8.98 147.98 8.63Q148.09 8.28 148.09 7.92L148.09 7.92Q148.09 7.46 147.82 7.10Q147.56 6.74 147.15 6.47Q146.74 6.19 146.24 5.96Q145.74 5.74 145.23 5.54L145.23 5.54Q144.56 5.30 143.84 4.99Q143.12 4.68 142.53 4.20Q141.94 3.72 141.56 3.01Q141.18 2.30 141.18 1.25L141.18 1.25Q141.18-0.84 142.53-2.02Q143.89-3.19 146.26-3.19L146.26-3.19Q147.63-3.19 148.65-2.88Q149.67-2.57 150.37-2.18L150.37-2.18L149.50 0.10Q148.90-0.24 148.17-0.48Q147.44-0.72 146.48-0.72L146.48-0.72Q144.13-0.72 144.13 0.98L144.13 0.98Q144.13 1.42 144.37 1.74Q144.61 2.06 144.98 2.32Q145.35 2.57 145.82 2.76Q146.29 2.95 146.74 3.12L146.74 3.12Q147.44 3.38 148.20 3.71Q148.95 4.03 149.59 4.57Q150.22 5.11 150.63 5.92Q151.04 6.72 151.04 7.94L151.04 7.94Q151.04 10.03 149.68 11.17Q148.33 12.31 145.57 12.31L145.57 12.31Q143.72 12.31 142.62 11.92Q141.51 11.52 140.96 11.18L140.96 11.18L141.82 8.78Q142.47 9.17 143.37 9.50Q144.27 9.84 145.57 9.84ZM160.26 6.46L160.26 6.46Q160.26 4.94 159.66 3.97Q159.06 3 157.83 3L157.83 3Q157.50 3 157.11 3.04Q156.73 3.07 156.46 3.10L156.46 3.10L156.46 9.29Q156.75 9.48 157.23 9.60Q157.71 9.72 158.19 9.72L158.19 9.72Q159.25 9.72 159.75 8.87Q160.26 8.02 160.26 6.46ZM163.26 6.36L163.26 6.36Q163.26 7.66 162.97 8.75Q162.68 9.84 162.13 10.62Q161.58 11.40 160.74 11.83Q159.90 12.26 158.79 12.26L158.79 12.26Q157.66 12.26 156.46 11.71L156.46 11.71L156.46 15.96L153.51 15.96L153.51 1.08Q154.33 0.82 155.52 0.65Q156.70 0.48 157.86 0.48L157.86 0.48Q160.47 0.48 161.86 2.06Q163.26 3.65 163.26 6.36ZM170.82-2.52L170.82-2.52Q170.82-1.66 170.26-1.15Q169.71-0.65 168.94-0.65L168.94-0.65Q168.18-0.65 167.64-1.15Q167.10-1.66 167.10-2.52L167.10-2.52Q167.10-3.41 167.64-3.91Q168.18-4.42 168.94-4.42L168.94-4.42Q169.71-4.42 170.26-3.91Q170.82-3.41 170.82-2.52ZM174.82 9.14L175.21 11.52Q174.30 11.95 173.49 12.11Q172.69 12.26 172.02 12.26L172.02 12.26Q170.86 12.26 170.08 11.93Q169.30 11.59 168.84 10.96Q168.37 10.32 168.18 9.41Q167.98 8.50 167.98 7.32L167.98 7.32L167.98 3.17L164.86 3.17L164.86 0.72L170.94 0.72L170.94 7.70Q170.94 8.71 171.31 9.20Q171.68 9.70 172.54 9.70L172.54 9.70Q172.95 9.70 173.53 9.59Q174.10 9.48 174.82 9.14L174.82 9.14ZM177.51 12L177.51 1.08Q178.30 0.86 179.47 0.67Q180.63 0.48 182 0.48L182 0.48Q183.34 0.48 184.23 0.85Q185.12 1.22 185.64 1.91Q186.15 2.59 186.37 3.54Q186.58 4.49 186.58 5.64L186.58 5.64L186.58 12L183.63 12L183.63 6.02Q183.63 4.44 183.27 3.74Q182.91 3.05 181.81 3.05L181.81 3.05Q181.47 3.05 181.15 3.07Q180.82 3.10 180.46 3.14L180.46 3.14L180.46 12L177.51 12Z"/>
    </g>
</svg>