<?xml version="1.0" encoding="UTF-8"?>
<svg height="34" width="219.4" version="1.1" xmlns="http://www.w3.org/2000/svg">
    <rect
        height="32"
        width="217.4"
        rx="1"
        ry="1"
        x="1"
        y="1"
        fill="#7fa2a7"
        stroke="#3a5155"
        stroke-width="1"
         />
    <g transform="translate(0, 14)">
        <path fill="#3a5155" d="M16.27-6.53L16.27-6.53Q19.58-6.53 21.40-5.17Q23.22-3.81 23.22-0.73L23.22-0.73Q23.22 2.38 21.38 3.76Q19.55 5.15 16.19 5.15L16.19 5.15L14.96 5.15L14.96 11L11.51 11L11.51-6.11Q12.02-6.22 12.65-6.30Q13.28-6.39 13.92-6.43Q14.56-6.47 15.18-6.50Q15.80-6.53 16.27-6.53ZM16.66-3.53L16.66-3.53Q16.36-3.53 15.81-3.52Q15.26-3.50 14.96-3.45L14.96-3.45L14.96 2.15L16.36 2.15Q18.01 2.15 18.85 1.49Q19.69 0.84 19.69-0.76L19.69-0.76Q19.69-2.27 18.86-2.90Q18.04-3.53 16.66-3.53ZM36.85-1.85L36.24 1.34Q35.90 1.26 35.44 1.17Q34.98 1.09 34.50 1.02Q34.02 0.95 33.58 0.92Q33.13 0.89 32.82 0.89L32.82 0.89Q32.09 0.89 31.39 0.96Q30.69 1.03 29.96 1.23L29.96 1.23L29.96 11L26.49 11L26.49-1.29Q27.86-1.80 29.31-2.10Q30.75-2.41 32.68-2.41L32.68-2.41Q32.96-2.41 33.48-2.38Q34.00-2.36 34.58-2.29Q35.17-2.22 35.77-2.12Q36.38-2.02 36.85-1.85L36.85-1.85ZM51.22 4.39L51.22 4.39Q51.22 5.96 50.77 7.23Q50.32 8.51 49.51 9.43Q48.70 10.36 47.56 10.86Q46.43 11.36 45.03 11.36L45.03 11.36Q43.63 11.36 42.49 10.86Q41.36 10.36 40.53 9.43Q39.71 8.51 39.26 7.23Q38.81 5.96 38.81 4.39L38.81 4.39Q38.81 2.85 39.27 1.58Q39.74 0.30 40.56-0.61Q41.39-1.52 42.54-2.01Q43.68-2.50 45.03-2.50L45.03-2.50Q46.40-2.50 47.53-2.01Q48.67-1.52 49.49-0.61Q50.32 0.30 50.77 1.58Q51.22 2.85 51.22 4.39ZM42.31 4.42L42.31 4.42Q42.31 6.18 42.94 7.28Q43.57 8.37 44.97 8.37L44.97 8.37Q46.32 8.37 47.00 7.28Q47.69 6.18 47.69 4.42L47.69 4.42Q47.69 2.66 47.06 1.58Q46.43 0.50 45.03 0.50L45.03 0.50Q43.68 0.50 43.00 1.58Q42.31 2.66 42.31 4.42ZM61.63 4.53L61.63 4.53Q61.63 2.77 60.93 1.63Q60.23 0.50 58.80 0.50L58.80 0.50Q58.41 0.50 57.96 0.54Q57.52 0.58 57.21 0.61L57.21 0.61L57.21 7.84Q57.54 8.06 58.10 8.20Q58.66 8.34 59.22 8.34L59.22 8.34Q60.46 8.34 61.04 7.35Q61.63 6.35 61.63 4.53ZM65.13 4.42L65.13 4.42Q65.13 5.93 64.80 7.21Q64.46 8.48 63.82 9.39Q63.17 10.30 62.19 10.80Q61.21 11.31 59.92 11.31L59.92 11.31Q58.61 11.31 57.21 10.66L57.21 10.66L57.21 15.62L53.76 15.62L53.76-1.74Q54.72-2.05 56.10-2.24Q57.49-2.44 58.83-2.44L58.83-2.44Q61.88-2.44 63.51-0.59Q65.13 1.26 65.13 4.42ZM66.87 4.53L66.87 4.53Q66.87 2.80 67.40 1.48Q67.93 0.16 68.80-0.72Q69.67-1.60 70.79-2.05Q71.91-2.50 73.08-2.50L73.08-2.50Q76.00-2.50 77.51-0.77Q79.02 0.95 79.02 4.25L79.02 4.25Q79.02 4.59 79.01 4.95Q78.99 5.32 78.96 5.54L78.96 5.54L70.42 5.54Q70.42 6.83 71.49 7.57Q72.55 8.31 74.23 8.31L74.23 8.31Q75.27 8.31 76.21 8.09Q77.14 7.86 77.79 7.64L77.79 7.64L78.26 10.58Q77.37 10.89 76.36 11.10Q75.35 11.31 74.09 11.31L74.09 11.31Q72.41 11.31 71.08 10.87Q69.75 10.44 68.81 9.59Q67.88 8.73 67.37 7.47Q66.87 6.21 66.87 4.53ZM70.42 3.16L75.69 3.16Q75.69 2.63 75.55 2.14Q75.41 1.65 75.10 1.26Q74.79 0.86 74.32 0.63Q73.84 0.39 73.14 0.39L73.14 0.39Q72.47 0.39 71.98 0.61Q71.49 0.84 71.17 1.23Q70.84 1.62 70.66 2.12Q70.48 2.63 70.42 3.16L70.42 3.16ZM92.63 7.67L93.08 10.44Q92.99 10.50 92.70 10.64Q92.40 10.78 91.93 10.93Q91.45 11.08 90.77 11.20Q90.08 11.31 89.21 11.31L89.21 11.31Q86.83 11.31 85.74 9.89Q84.65 8.48 84.65 5.76L84.65 5.76L84.65-5.41L81.01-5.41L81.01-8.26L88.09-8.26L88.09 6.02Q88.09 7.36 88.62 7.84Q89.16 8.31 89.97 8.31L89.97 8.31Q91.00 8.31 91.70 8.03Q92.40 7.75 92.63 7.67L92.63 7.67ZM106.63 7.67L107.08 10.44Q106.99 10.50 106.70 10.64Q106.40 10.78 105.93 10.93Q105.45 11.08 104.77 11.20Q104.08 11.31 103.21 11.31L103.21 11.31Q100.83 11.31 99.74 9.89Q98.65 8.48 98.65 5.76L98.65 5.76L98.65-5.41L95.01-5.41L95.01-8.26L102.09-8.26L102.09 6.02Q102.09 7.36 102.62 7.84Q103.16 8.31 103.97 8.31L103.97 8.31Q105.00 8.31 105.70 8.03Q106.40 7.75 106.63 7.67L106.63 7.67ZM108.87 4.53L108.87 4.53Q108.87 2.80 109.40 1.48Q109.93 0.16 110.80-0.72Q111.67-1.60 112.79-2.05Q113.91-2.50 115.08-2.50L115.08-2.50Q118.00-2.50 119.51-0.77Q121.02 0.95 121.02 4.25L121.02 4.25Q121.02 4.59 121.01 4.95Q120.99 5.32 120.96 5.54L120.96 5.54L112.42 5.54Q112.42 6.83 113.49 7.57Q114.55 8.31 116.23 8.31L116.23 8.31Q117.27 8.31 118.21 8.09Q119.14 7.86 119.79 7.64L119.79 7.64L120.26 10.58Q119.37 10.89 118.36 11.10Q117.35 11.31 116.09 11.31L116.09 11.31Q114.41 11.31 113.08 10.87Q111.75 10.44 110.81 9.59Q109.88 8.73 109.37 7.47Q108.87 6.21 108.87 4.53ZM112.42 3.16L117.69 3.16Q117.69 2.63 117.55 2.14Q117.41 1.65 117.10 1.26Q116.79 0.86 116.32 0.63Q115.84 0.39 115.14 0.39L115.14 0.39Q114.47 0.39 113.98 0.61Q113.49 0.84 113.17 1.23Q112.84 1.62 112.66 2.12Q112.48 2.63 112.42 3.16L112.42 3.16ZM134.85-1.85L134.24 1.34Q133.90 1.26 133.44 1.17Q132.98 1.09 132.50 1.02Q132.02 0.95 131.58 0.92Q131.13 0.89 130.82 0.89L130.82 0.89Q130.09 0.89 129.39 0.96Q128.69 1.03 127.96 1.23L127.96 1.23L127.96 11L124.49 11L124.49-1.29Q125.86-1.80 127.31-2.10Q128.75-2.41 130.68-2.41L130.68-2.41Q130.96-2.41 131.48-2.38Q132.00-2.36 132.58-2.29Q133.17-2.22 133.77-2.12Q134.38-2.02 134.85-1.85L134.85-1.85ZM156.50 8.48L156.50 8.48Q157.36 8.48 157.94 8.30Q158.51 8.12 158.85 7.79Q159.18 7.47 159.31 7.07Q159.44 6.66 159.44 6.24L159.44 6.24Q159.44 5.71 159.13 5.29Q158.82 4.87 158.34 4.55Q157.87 4.22 157.28 3.96Q156.69 3.69 156.10 3.47L156.10 3.47Q155.32 3.19 154.48 2.82Q153.64 2.46 152.95 1.90Q152.27 1.34 151.82 0.51Q151.37-0.31 151.37-1.54L151.37-1.54Q151.37-3.98 152.95-5.35Q154.54-6.72 157.31-6.72L157.31-6.72Q158.90-6.72 160.09-6.36Q161.28-6.00 162.10-5.55L162.10-5.55L161.09-2.89Q160.39-3.28 159.53-3.56Q158.68-3.84 157.56-3.84L157.56-3.84Q154.82-3.84 154.82-1.85L154.82-1.85Q154.82-1.35 155.10-0.97Q155.38-0.59 155.81-0.30Q156.24-0.00 156.79 0.22Q157.34 0.44 157.87 0.64L157.87 0.64Q158.68 0.95 159.56 1.33Q160.44 1.70 161.19 2.33Q161.93 2.96 162.40 3.90Q162.88 4.84 162.88 6.27L162.88 6.27Q162.88 8.70 161.30 10.03Q159.72 11.36 156.50 11.36L156.50 11.36Q154.34 11.36 153.05 10.90Q151.76 10.44 151.12 10.05L151.12 10.05L152.13 7.25Q152.88 7.70 153.93 8.09Q154.98 8.48 156.50 8.48ZM173.63 4.53L173.63 4.53Q173.63 2.77 172.93 1.63Q172.23 0.50 170.80 0.50L170.80 0.50Q170.41 0.50 169.96 0.54Q169.52 0.58 169.21 0.61L169.21 0.61L169.21 7.84Q169.54 8.06 170.10 8.20Q170.66 8.34 171.22 8.34L171.22 8.34Q172.46 8.34 173.04 7.35Q173.63 6.35 173.63 4.53ZM177.13 4.42L177.13 4.42Q177.13 5.93 176.80 7.21Q176.46 8.48 175.82 9.39Q175.17 10.30 174.19 10.80Q173.21 11.31 171.92 11.31L171.92 11.31Q170.61 11.31 169.21 10.66L169.21 10.66L169.21 15.62L165.76 15.62L165.76-1.74Q166.72-2.05 168.10-2.24Q169.49-2.44 170.83-2.44L170.83-2.44Q173.88-2.44 175.51-0.59Q177.13 1.26 177.13 4.42ZM185.95-5.94L185.95-5.94Q185.95-4.93 185.31-4.34Q184.66-3.76 183.77-3.76L183.77-3.76Q182.87-3.76 182.24-4.34Q181.61-4.93 181.61-5.94L181.61-5.94Q181.61-6.98 182.24-7.56Q182.87-8.15 183.77-8.15L183.77-8.15Q184.66-8.15 185.31-7.56Q185.95-6.98 185.95-5.94ZM190.63 7.67L191.08 10.44Q190.01 10.94 189.07 11.13Q188.14 11.31 187.35 11.31L187.35 11.31Q186.01 11.31 185.10 10.92Q184.19 10.52 183.64 9.78Q183.10 9.04 182.87 7.98Q182.65 6.91 182.65 5.54L182.65 5.54L182.65 0.70L179.01 0.70L179.01-2.16L186.09-2.16L186.09 5.99Q186.09 7.16 186.53 7.74Q186.96 8.31 187.97 8.31L187.97 8.31Q188.44 8.31 189.12 8.19Q189.79 8.06 190.63 7.67L190.63 7.67ZM193.76 11L193.76-1.74Q194.69-1.99 196.05-2.22Q197.40-2.44 199-2.44L199-2.44Q200.57-2.44 201.60-2.01Q202.64-1.57 203.24-0.77Q203.84 0.02 204.10 1.13Q204.35 2.24 204.35 3.58L204.35 3.58L204.35 11L200.90 11L200.90 4.03Q200.90 2.18 200.48 1.37Q200.06 0.56 198.78 0.56L198.78 0.56Q198.38 0.56 198.01 0.58Q197.63 0.61 197.21 0.67L197.21 0.67L197.21 11L193.76 11Z"/>
    </g>
</svg>