<?xml version="1.0" encoding="UTF-8"?><svg height="34" width="114.6" version="1.1" xmlns="http://www.w3.org/2000/svg"><!--Created by Josélio de S. C. Júnior - 2021 - https://github.com/joseliojunior --><defs><pattern id="pattern" x="3" y="3" width="6" height="6" patternUnits="userSpaceOnUse" patternTransform="rotate(45)"><rect height="6" width="6" fill="#ffffff"/><line x1="0" y1="0" x2="0" y2="6" stroke="#bbbbbb" stroke-width="2" /></pattern></defs><rect height="32" width="112.6" rx="16" ry="16" x="1" y="1" fill="url(#pattern)" /><g transform="translate(0, 12)"><path fill="#000000" d="M21.42-2.86L23.86-2.86Q24.03-2.35 24.28-1.56Q24.54-0.77 24.82 0.14Q25.11 1.06 25.40 1.99Q25.69 2.93 25.95 3.72L25.95 3.72Q26.24 2.83 26.55 1.88Q26.86 0.94 27.15 0.06Q27.44-0.82 27.68-1.58Q27.92-2.35 28.11-2.86L28.11-2.86L30.56-2.86Q30.73-0.91 30.88 0.94Q31.04 2.78 31.15 4.60Q31.26 6.41 31.33 8.24Q31.40 10.08 31.45 12L31.45 12L28.74 12L28.88 0.46L27.06 6.74L24.90 6.74L23.14 0.46L23.26 12L20.55 12Q20.62 10.18 20.71 8.21Q20.79 6.24 20.89 4.30Q20.98 2.35 21.12 0.53Q21.25-1.30 21.42-2.86L21.42-2.86ZM40.30 0.72L43.33 0.72Q42.87 2.30 42.45 3.83Q42.03 5.35 41.58 6.80Q41.12 8.26 40.60 9.65Q40.09 11.04 39.49 12.36L39.49 12.36Q39.03 13.32 38.59 14.02Q38.14 14.71 37.60 15.16Q37.06 15.60 36.40 15.82Q35.74 16.03 34.86 16.03L34.86 16.03Q34.11 16.03 33.50 15.91Q32.89 15.79 32.48 15.60L32.48 15.60L33.03 13.13Q33.51 13.34 33.88 13.43Q34.26 13.51 34.69 13.51L34.69 13.51Q35.55 13.51 36.08 12.94Q36.61 12.36 36.92 11.57L36.92 11.57Q35.86 9.46 34.81 6.73Q33.75 4.01 32.89 0.72L32.89 0.72L35.96 0.72Q36.18 1.61 36.45 2.62Q36.73 3.62 37.04 4.63Q37.35 5.64 37.70 6.61Q38.05 7.58 38.41 8.42L38.41 8.42Q38.65 7.58 38.91 6.61Q39.18 5.64 39.42 4.64Q39.66 3.65 39.88 2.64Q40.11 1.63 40.30 0.72L40.30 0.72ZM47.79 6L47.79 6Q47.79 7.39 48.30 8.12Q48.80 8.86 49.88 8.86L49.88 8.86Q50.36 8.86 50.78 8.74Q51.20 8.62 51.54 8.42L51.54 8.42L51.54 3Q51.20 2.93 50.94 2.90Q50.67 2.88 50.38 2.88L50.38 2.88Q47.79 2.88 47.79 6ZM54.51 1.08L54.51 10.63Q54.51 13.39 53.18 14.71Q51.85 16.03 48.90 16.03L48.90 16.03Q47.84 16.03 46.87 15.82Q45.90 15.60 45.01 15.31L45.01 15.31L45.56 12.82Q46.26 13.08 47.02 13.31Q47.79 13.54 48.94 13.54L48.94 13.54Q49.71 13.54 50.22 13.36Q50.72 13.18 51.01 12.86Q51.30 12.55 51.42 12.13Q51.54 11.71 51.54 11.23L51.54 11.23L51.54 10.78Q50.91 11.02 50.40 11.14Q49.88 11.26 49.28 11.26L49.28 11.26Q47.07 11.26 45.93 9.86Q44.79 8.47 44.79 6L44.79 6Q44.79 3.22 46.33 1.85Q47.86 0.48 50.50 0.48L50.50 0.48Q52.35 0.48 54.51 1.08L54.51 1.08ZM60.46 12L57.51 12L57.51-4.15L60.46-4.66L60.46 0.82Q60.82 0.70 61.33 0.59Q61.83 0.48 62.22 0.48L62.22 0.48Q63.46 0.48 64.30 0.85Q65.14 1.22 65.65 1.91Q66.15 2.59 66.37 3.54Q66.58 4.49 66.58 5.64L66.58 5.64L66.58 12L63.63 12L63.63 6.02Q63.63 4.44 63.27 3.74Q62.91 3.05 61.90 3.05L61.90 3.05Q61.50 3.05 61.10 3.14Q60.70 3.24 60.46 3.31L60.46 3.31L60.46 12ZM71.43 7.80L71.43 3.17L68.86 3.17L68.86 0.72L71.43 0.72L71.43-2.11L74.38-2.59L74.38 0.72L79.11 0.72L79.11 3.17L74.38 3.17L74.38 7.73Q74.38 8.35 74.50 8.74Q74.62 9.12 74.84 9.34Q75.06 9.55 75.37 9.62Q75.68 9.70 76.06 9.70L76.06 9.70Q76.47 9.70 76.82 9.67Q77.17 9.65 77.49 9.59Q77.82 9.53 78.16 9.41Q78.51 9.29 78.92 9.10L78.92 9.10L79.33 11.64Q78.51 11.98 77.56 12.12Q76.62 12.26 75.73 12.26L75.73 12.26Q74.70 12.26 73.90 12.10Q73.11 11.93 72.56 11.45Q72.01 10.97 71.72 10.09Q71.43 9.22 71.43 7.80L71.43 7.80ZM88.30 0.72L91.33 0.72Q90.87 2.30 90.45 3.83Q90.03 5.35 89.58 6.80Q89.12 8.26 88.60 9.65Q88.09 11.04 87.49 12.36L87.49 12.36Q87.03 13.32 86.59 14.02Q86.14 14.71 85.60 15.16Q85.06 15.60 84.40 15.82Q83.74 16.03 82.86 16.03L82.86 16.03Q82.11 16.03 81.50 15.91Q80.89 15.79 80.48 15.60L80.48 15.60L81.03 13.13Q81.51 13.34 81.88 13.43Q82.26 13.51 82.69 13.51L82.69 13.51Q83.55 13.51 84.08 12.94Q84.61 12.36 84.92 11.57L84.92 11.57Q83.86 9.46 82.81 6.73Q81.75 4.01 80.89 0.72L80.89 0.72L83.96 0.72Q84.18 1.61 84.45 2.62Q84.73 3.62 85.04 4.63Q85.35 5.64 85.70 6.61Q86.05 7.58 86.41 8.42L86.41 8.42Q86.65 7.58 86.91 6.61Q87.18 5.64 87.42 4.64Q87.66 3.65 87.88 2.64Q88.11 1.63 88.30 0.72L88.30 0.72Z"/></g></svg>