<?xml version="1.0" encoding="UTF-8"?><svg height="26" width="98.7" version="1.1" xmlns="http://www.w3.org/2000/svg"><!--Created by Josélio de S. C. Júnior - 2021 - https://github.com/joseliojunior --><rect height="24" width="96.7" rx="12" ry="12" x="1" y="1" fill="#db901e" stroke="#55380c" stroke-width="1" /><g transform="translate(0, 8)"><path fill="#55380c" d="M24.74 10.21L24.74 10.21Q22.64 10.21 21.54 8.86Q20.43 7.52 20.43 5.04L20.43 5.04Q20.43 3.81 20.77 2.85Q21.10 1.89 21.70 1.22Q22.30 0.56 23.13 0.22Q23.95-0.13 24.93-0.13L24.93-0.13Q25.46-0.13 25.88-0.04Q26.30 0.05 26.62 0.16Q26.94 0.27 27.16 0.40Q27.38 0.53 27.49 0.59L27.49 0.59L26.98 2.16Q26.61 1.92 26.09 1.75Q25.57 1.58 24.90 1.58L24.90 1.58Q24.43 1.58 23.99 1.75Q23.55 1.92 23.21 2.31Q22.86 2.70 22.65 3.36Q22.43 4.02 22.43 4.99L22.43 4.99Q22.43 6.69 23.02 7.59Q23.60 8.50 24.93 8.50L24.93 8.50Q25.70 8.50 26.20 8.32Q26.70 8.14 27.01 7.97L27.01 7.97L27.50 9.52Q27.09 9.78 26.38 9.99Q25.66 10.21 24.74 10.21ZM35.22 8.10L35.47 9.68Q35.42 9.71 35.26 9.79Q35.09 9.87 34.82 9.96Q34.54 10.05 34.15 10.11Q33.76 10.18 33.26 10.18L33.26 10.18Q31.90 10.18 31.28 9.37Q30.66 8.56 30.66 7.01L30.66 7.01L30.66 0.62L28.58 0.62L28.58-1.01L32.62-1.01L32.62 7.15Q32.62 7.92 32.93 8.19Q33.23 8.46 33.70 8.46L33.70 8.46Q34.29 8.46 34.69 8.30Q35.09 8.14 35.22 8.10L35.22 8.10ZM40.02 8.59L40.02 8.59Q40.34 8.59 40.64 8.58Q40.94 8.58 41.17 8.54L41.17 8.54L41.17 6.82Q40.98 6.78 40.70 6.76Q40.43 6.74 40.21 6.74L40.21 6.74Q39.90 6.74 39.62 6.78Q39.33 6.82 39.11 6.91Q38.90 7.01 38.77 7.18Q38.64 7.36 38.64 7.65L38.64 7.65Q38.64 8.16 39.02 8.38Q39.41 8.59 40.02 8.59ZM39.84 2.29L39.84 2.29Q40.77 2.29 41.38 2.50Q42 2.72 42.37 3.11Q42.74 3.50 42.90 4.07Q43.06 4.64 43.06 5.34L43.06 5.34L43.06 9.82Q42.62 9.92 41.78 10.05Q40.93 10.18 39.87 10.18L39.87 10.18Q39.15 10.18 38.57 10.05Q37.98 9.92 37.57 9.62Q37.15 9.33 36.93 8.86Q36.70 8.38 36.70 7.70L36.70 7.70Q36.70 7.04 36.96 6.59Q37.22 6.14 37.65 5.87Q38.08 5.60 38.64 5.48Q39.20 5.36 39.81 5.36L39.81 5.36Q40.58 5.36 41.17 5.49L41.17 5.49L41.17 5.25Q41.17 4.69 40.82 4.31Q40.46 3.94 39.60 3.94L39.60 3.94Q39.04 3.94 38.52 4.02Q38 4.10 37.68 4.21L37.68 4.21L37.41 2.62Q37.78 2.50 38.45 2.39Q39.12 2.29 39.84 2.29ZM51.34 2.66L50.99 4.48Q50.80 4.43 50.54 4.38Q50.27 4.34 50 4.30Q49.73 4.26 49.47 4.24Q49.22 4.22 49.04 4.22L49.04 4.22Q48.62 4.22 48.22 4.26Q47.82 4.30 47.41 4.42L47.41 4.42L47.41 10L45.42 10L45.42 2.98Q46.21 2.69 47.03 2.51Q47.86 2.34 48.96 2.34L48.96 2.34Q49.12 2.34 49.42 2.35Q49.71 2.37 50.05 2.41Q50.38 2.45 50.73 2.50Q51.07 2.56 51.34 2.66L51.34 2.66ZM56.54 0.32L56.54 0.32Q56.54 0.90 56.18 1.23Q55.81 1.57 55.30 1.57L55.30 1.57Q54.78 1.57 54.42 1.23Q54.06 0.90 54.06 0.32L54.06 0.32Q54.06-0.27 54.42-0.61Q54.78-0.94 55.30-0.94L55.30-0.94Q55.81-0.94 56.18-0.61Q56.54-0.27 56.54 0.32ZM59.22 8.10L59.47 9.68Q58.86 9.97 58.33 10.07Q57.79 10.18 57.34 10.18L57.34 10.18Q56.58 10.18 56.06 9.95Q55.54 9.73 55.22 9.30Q54.91 8.88 54.78 8.27Q54.66 7.66 54.66 6.88L54.66 6.88L54.66 4.11L52.58 4.11L52.58 2.48L56.62 2.48L56.62 7.14Q56.62 7.81 56.87 8.14Q57.12 8.46 57.70 8.46L57.70 8.46Q57.97 8.46 58.35 8.39Q58.74 8.32 59.22 8.10L59.22 8.10ZM67.55 6.22L67.55 6.22Q67.55 7.12 67.30 7.85Q67.04 8.58 66.58 9.10Q66.11 9.63 65.46 9.92Q64.82 10.21 64.02 10.21L64.02 10.21Q63.22 10.21 62.57 9.92Q61.92 9.63 61.45 9.10Q60.98 8.58 60.72 7.85Q60.46 7.12 60.46 6.22L60.46 6.22Q60.46 5.34 60.73 4.62Q60.99 3.89 61.46 3.37Q61.94 2.85 62.59 2.57Q63.25 2.29 64.02 2.29L64.02 2.29Q64.80 2.29 65.45 2.57Q66.10 2.85 66.57 3.37Q67.04 3.89 67.30 4.62Q67.55 5.34 67.55 6.22ZM62.46 6.24L62.46 6.24Q62.46 7.25 62.82 7.87Q63.18 8.50 63.98 8.50L63.98 8.50Q64.75 8.50 65.14 7.87Q65.54 7.25 65.54 6.24L65.54 6.24Q65.54 5.23 65.18 4.62Q64.82 4 64.02 4L64.02 4Q63.25 4 62.86 4.62Q62.46 5.23 62.46 6.24ZM69.01 10L69.01 2.72Q69.54 2.58 70.31 2.45Q71.09 2.32 72 2.32L72 2.32Q72.90 2.32 73.49 2.57Q74.08 2.82 74.42 3.27Q74.77 3.73 74.91 4.36Q75.06 4.99 75.06 5.76L75.06 5.76L75.06 10L73.09 10L73.09 6.02Q73.09 4.96 72.85 4.50Q72.61 4.03 71.87 4.03L71.87 4.03Q71.65 4.03 71.43 4.05Q71.22 4.06 70.98 4.10L70.98 4.10L70.98 10L69.01 10Z"/></g></svg>