<?xml version="1.0" encoding="UTF-8"?>
<svg height="34" width="199.29999999999998" version="1.1" xmlns="http://www.w3.org/2000/svg"><!--Created by Josélio de S. C. Júnior - 2021 - https://github.com/joseliojunior -->
<rect
    height="32"
    width="197.29999999999998"
    rx="1"
    ry="1"
    x="1" y="1"
    fill="#000000"
    stroke="#ffffff"
    stroke-width="1" />
<g transform="translate(0, 12)">
    <path fill="#ffffff" d="M30.73 12L21.30 12L21.30 9.55L24.54 9.55L24.54-0.41L21.30-0.41L21.30-2.86L30.73-2.86L30.73-0.41L27.51-0.41L27.51 9.55L30.73 9.55L30.73 12ZM33.51 12L33.51 1.08Q34.30 0.86 35.47 0.67Q36.63 0.48 38 0.48L38 0.48Q39.34 0.48 40.23 0.85Q41.12 1.22 41.64 1.91Q42.15 2.59 42.37 3.54Q42.58 4.49 42.58 5.64L42.58 5.64L42.58 12L39.63 12L39.63 6.02Q39.63 4.44 39.27 3.74Q38.91 3.05 37.81 3.05L37.81 3.05Q37.47 3.05 37.15 3.07Q36.82 3.10 36.46 3.14L36.46 3.14L36.46 12L33.51 12ZM47.43 7.80L47.43 3.17L44.86 3.17L44.86 0.72L47.43 0.72L47.43-2.11L50.38-2.59L50.38 0.72L55.11 0.72L55.11 3.17L50.38 3.17L50.38 7.73Q50.38 8.35 50.50 8.74Q50.62 9.12 50.84 9.34Q51.06 9.55 51.37 9.62Q51.68 9.70 52.06 9.70L52.06 9.70Q52.47 9.70 52.82 9.67Q53.17 9.65 53.49 9.59Q53.82 9.53 54.16 9.41Q54.51 9.29 54.92 9.10L54.92 9.10L55.33 11.64Q54.51 11.98 53.56 12.12Q52.62 12.26 51.73 12.26L51.73 12.26Q50.70 12.26 49.90 12.10Q49.11 11.93 48.56 11.45Q48.01 10.97 47.72 10.09Q47.43 9.22 47.43 7.80L47.43 7.80ZM56.74 6.46L56.74 6.46Q56.74 4.97 57.20 3.84Q57.66 2.71 58.40 1.96Q59.14 1.20 60.10 0.82Q61.06 0.43 62.07 0.43L62.07 0.43Q64.57 0.43 65.86 1.91Q67.16 3.38 67.16 6.22L67.16 6.22Q67.16 6.50 67.15 6.82Q67.14 7.13 67.11 7.32L67.11 7.32L59.79 7.32Q59.79 8.42 60.70 9.06Q61.62 9.70 63.06 9.70L63.06 9.70Q63.94 9.70 64.75 9.50Q65.55 9.31 66.10 9.12L66.10 9.12L66.51 11.64Q65.74 11.90 64.88 12.08Q64.02 12.26 62.94 12.26L62.94 12.26Q61.50 12.26 60.36 11.89Q59.22 11.52 58.41 10.79Q57.61 10.06 57.18 8.98Q56.74 7.90 56.74 6.46ZM59.79 5.28L64.30 5.28Q64.30 4.82 64.18 4.40Q64.06 3.98 63.80 3.65Q63.54 3.31 63.13 3.11Q62.72 2.90 62.12 2.90L62.12 2.90Q61.54 2.90 61.12 3.10Q60.70 3.29 60.43 3.62Q60.15 3.96 60.00 4.39Q59.84 4.82 59.79 5.28L59.79 5.28ZM78.82 9.14L79.21 11.52Q79.14 11.57 78.88 11.69Q78.63 11.81 78.22 11.94Q77.82 12.07 77.23 12.17Q76.64 12.26 75.90 12.26L75.90 12.26Q73.86 12.26 72.92 11.05Q71.98 9.84 71.98 7.51L71.98 7.51L71.98-2.06L68.86-2.06L68.86-4.51L74.94-4.51L74.94 7.73Q74.94 8.88 75.39 9.29Q75.85 9.70 76.54 9.70L76.54 9.70Q77.43 9.70 78.03 9.46Q78.63 9.22 78.82 9.14L78.82 9.14ZM90.82 9.14L91.21 11.52Q91.14 11.57 90.88 11.69Q90.63 11.81 90.22 11.94Q89.82 12.07 89.23 12.17Q88.64 12.26 87.90 12.26L87.90 12.26Q85.86 12.26 84.92 11.05Q83.98 9.84 83.98 7.51L83.98 7.51L83.98-2.06L80.86-2.06L80.86-4.51L86.94-4.51L86.94 7.73Q86.94 8.88 87.39 9.29Q87.85 9.70 88.54 9.70L88.54 9.70Q89.43 9.70 90.03 9.46Q90.63 9.22 90.82 9.14L90.82 9.14ZM98.82-2.52L98.82-2.52Q98.82-1.66 98.26-1.15Q97.71-0.65 96.94-0.65L96.94-0.65Q96.18-0.65 95.64-1.15Q95.10-1.66 95.10-2.52L95.10-2.52Q95.10-3.41 95.64-3.91Q96.18-4.42 96.94-4.42L96.94-4.42Q97.71-4.42 98.26-3.91Q98.82-3.41 98.82-2.52ZM102.82 9.14L103.21 11.52Q102.30 11.95 101.49 12.11Q100.69 12.26 100.02 12.26L100.02 12.26Q98.86 12.26 98.08 11.93Q97.30 11.59 96.84 10.96Q96.37 10.32 96.18 9.41Q95.98 8.50 95.98 7.32L95.98 7.32L95.98 3.17L92.86 3.17L92.86 0.72L98.94 0.72L98.94 7.70Q98.94 8.71 99.31 9.20Q99.68 9.70 100.54 9.70L100.54 9.70Q100.95 9.70 101.53 9.59Q102.10 9.48 102.82 9.14L102.82 9.14ZM113.60 0.72L113.60 11.26Q113.60 12.62 113.26 13.55Q112.93 14.47 112.34 15.04Q111.75 15.60 110.95 15.84Q110.14 16.08 109.21 16.08L109.21 16.08Q108.06 16.08 107.07 15.79Q106.09 15.50 105.18 15.05L105.18 15.05L106.09 12.55Q106.69 12.89 107.54 13.19Q108.39 13.49 109.09 13.49L109.09 13.49Q109.83 13.49 110.24 13.04Q110.65 12.60 110.65 11.40L110.65 11.40L110.65 3.17L106.09 3.17L106.09 0.72L113.60 0.72ZM113.24-2.52L113.24-2.52Q113.24-1.66 112.69-1.15Q112.14-0.65 111.37-0.65L111.37-0.65Q110.60-0.65 110.06-1.15Q109.52-1.66 109.52-2.52L109.52-2.52Q109.52-3.41 110.06-3.91Q110.60-4.42 111.37-4.42L111.37-4.42Q112.14-4.42 112.69-3.91Q113.24-3.41 113.24-2.52ZM138.73 12L129.30 12L129.30 9.55L132.54 9.55L132.54-0.41L129.30-0.41L129.30-2.86L138.73-2.86L138.73-0.41L135.51-0.41L135.51 9.55L138.73 9.55L138.73 12ZM144.25-0.38L144.25 9.60Q144.37 9.62 144.51 9.62Q144.66 9.62 144.78 9.62L144.78 9.62Q145.78 9.62 146.47 9.24Q147.15 8.86 147.57 8.18Q147.99 7.51 148.17 6.59Q148.35 5.66 148.35 4.56L148.35 4.56Q148.35 3.60 148.21 2.69Q148.06 1.78 147.70 1.08Q147.34 0.38 146.72-0.04Q146.10-0.46 145.11-0.46L145.11-0.46Q144.92-0.46 144.68-0.44Q144.44-0.43 144.25-0.38L144.25-0.38ZM151.35 4.56L151.35 4.56Q151.35 6.62 150.84 8.08Q150.32 9.53 149.41 10.44Q148.50 11.35 147.24 11.77Q145.98 12.19 144.46 12.19L144.46 12.19Q143.67 12.19 142.92 12.11Q142.16 12.02 141.30 11.83L141.30 11.83L141.30-2.66Q142.30-2.88 143.19-2.95Q144.08-3.02 144.85-3.02L144.85-3.02Q146.31-3.02 147.52-2.59Q148.74-2.16 149.58-1.24Q150.42-0.31 150.88 1.12Q151.35 2.54 151.35 4.56ZM163.04 12L153.51 12L153.51-2.86L162.51-2.86L162.51-0.41L156.46-0.41L156.46 2.93L161.72 2.93L161.72 5.38L156.46 5.38L156.46 9.55L163.04 9.55L163.04 12ZM175.78 12L172.62 12L171.92 8.57L167.96 8.57L167.29 12L164.22 12Q165.27 7.61 166.35 4.00Q167.43 0.38 168.44-2.86L168.44-2.86L171.66-2.86Q172.71 0.41 173.76 4.07Q174.80 7.73 175.78 12L175.78 12ZM169.98 0.02L169.98 0.02Q169.74 0.86 169.53 1.62Q169.33 2.38 169.15 3.11Q168.97 3.84 168.81 4.58Q168.66 5.33 168.51 6.12L168.51 6.12L171.42 6.12Q171.27 5.33 171.13 4.58Q170.98 3.84 170.80 3.11Q170.62 2.38 170.42 1.62Q170.22 0.86 169.98 0.02Z"/>
</g>
</svg>