<?xml version="1.0" encoding="UTF-8"?>
<svg height="34" width="106.6" version="1.1" xmlns="http://www.w3.org/2000/svg">
    <rect
        height="32"
        width="104.6"
        rx="14"
        ry="14"
        x="1"
        y="1"
        fill="#2d004d"
        stroke="#8600e6"
        stroke-width="1"
         />
    <g transform="translate(0, 14)">
        <path fill="#8600e6" d="M11.76 11L11.76-1.74Q12.69-1.99 14.05-2.22Q15.40-2.44 17-2.44L17-2.44Q18.57-2.44 19.60-2.01Q20.64-1.57 21.24-0.77Q21.84 0.02 22.10 1.13Q22.35 2.24 22.35 3.58L22.35 3.58L22.35 11L18.90 11L18.90 4.03Q18.90 2.18 18.48 1.37Q18.06 0.56 16.78 0.56L16.78 0.56Q16.38 0.56 16.01 0.58Q15.63 0.61 15.21 0.67L15.21 0.67L15.21 11L11.76 11ZM31.03 8.54L31.03 8.54Q31.59 8.54 32.12 8.52Q32.65 8.51 33.04 8.45L33.04 8.45L33.04 5.43Q32.71 5.37 32.23 5.33Q31.76 5.29 31.36 5.29L31.36 5.29Q30.83 5.29 30.33 5.36Q29.82 5.43 29.45 5.60Q29.07 5.76 28.84 6.07Q28.62 6.38 28.62 6.88L28.62 6.88Q28.62 7.78 29.29 8.16Q29.96 8.54 31.03 8.54ZM30.72-2.50L30.72-2.50Q32.34-2.50 33.42-2.12Q34.50-1.74 35.14-1.05Q35.79-0.37 36.07 0.63Q36.35 1.62 36.35 2.85L36.35 2.85L36.35 10.69Q35.59 10.86 34.11 11.08Q32.62 11.31 30.78 11.31L30.78 11.31Q29.52 11.31 28.49 11.08Q27.47 10.86 26.74 10.34Q26.02 9.82 25.62 9.00Q25.23 8.17 25.23 6.97L25.23 6.97Q25.23 5.82 25.68 5.04Q26.13 4.25 26.88 3.78Q27.64 3.30 28.62 3.09Q29.60 2.88 30.66 2.88L30.66 2.88Q32.01 2.88 33.04 3.10L33.04 3.10L33.04 2.68Q33.04 1.70 32.43 1.05Q31.81 0.39 30.30 0.39L30.30 0.39Q29.32 0.39 28.41 0.53Q27.50 0.67 26.94 0.86L26.94 0.86L26.46-1.91Q27.11-2.13 28.28-2.31Q29.46-2.50 30.72-2.50ZM39.76 11L39.76-1.74Q40.69-1.99 42.05-2.22Q43.40-2.44 45-2.44L45-2.44Q46.57-2.44 47.60-2.01Q48.64-1.57 49.24-0.77Q49.84 0.02 50.10 1.13Q50.35 2.24 50.35 3.58L50.35 3.58L50.35 11L46.90 11L46.90 4.03Q46.90 2.18 46.48 1.37Q46.06 0.56 44.78 0.56L44.78 0.56Q44.38 0.56 44.01 0.58Q43.63 0.61 43.21 0.67L43.21 0.67L43.21 11L39.76 11ZM65.22 4.39L65.22 4.39Q65.22 5.96 64.77 7.23Q64.32 8.51 63.51 9.43Q62.70 10.36 61.56 10.86Q60.43 11.36 59.03 11.36L59.03 11.36Q57.63 11.36 56.49 10.86Q55.36 10.36 54.53 9.43Q53.71 8.51 53.26 7.23Q52.81 5.96 52.81 4.39L52.81 4.39Q52.81 2.85 53.27 1.58Q53.74 0.30 54.56-0.61Q55.39-1.52 56.54-2.01Q57.68-2.50 59.03-2.50L59.03-2.50Q60.40-2.50 61.53-2.01Q62.67-1.52 63.49-0.61Q64.32 0.30 64.77 1.58Q65.22 2.85 65.22 4.39ZM56.31 4.42L56.31 4.42Q56.31 6.18 56.94 7.28Q57.57 8.37 58.97 8.37L58.97 8.37Q60.32 8.37 61.00 7.28Q61.69 6.18 61.69 4.42L61.69 4.42Q61.69 2.66 61.06 1.58Q60.43 0.50 59.03 0.50L59.03 0.50Q57.68 0.50 57.00 1.58Q56.31 2.66 56.31 4.42ZM78.85-1.85L78.24 1.34Q77.90 1.26 77.44 1.17Q76.98 1.09 76.50 1.02Q76.02 0.95 75.58 0.92Q75.13 0.89 74.82 0.89L74.82 0.89Q74.09 0.89 73.39 0.96Q72.69 1.03 71.96 1.23L71.96 1.23L71.96 11L68.49 11L68.49-1.29Q69.86-1.80 71.31-2.10Q72.75-2.41 74.68-2.41L74.68-2.41Q74.96-2.41 75.48-2.38Q76.00-2.36 76.58-2.29Q77.17-2.22 77.77-2.12Q78.38-2.02 78.85-1.85L78.85-1.85ZM81.23 4.42L81.23 4.42Q81.23 2.99 81.68 1.73Q82.13 0.47 83.05-0.47Q83.98-1.40 85.39-1.95Q86.80-2.50 88.76-2.50L88.76-2.50Q89.94-2.50 90.89-2.33Q91.84-2.16 92.82-1.77L92.82-1.77L92.07 1.00Q91.51 0.81 90.82 0.65Q90.14 0.50 89.07 0.50L89.07 0.50Q87.84 0.50 87.01 0.79Q86.19 1.09 85.68 1.61Q85.18 2.12 84.96 2.85Q84.73 3.58 84.73 4.42L84.73 4.42Q84.73 6.24 85.75 7.28Q86.78 8.31 89.24 8.31L89.24 8.31Q90.05 8.31 90.93 8.20Q91.82 8.09 92.54 7.84L92.54 7.84L93.05 10.66Q92.32 10.94 91.28 11.13Q90.25 11.31 88.85 11.31L88.85 11.31Q86.83 11.31 85.39 10.78Q83.95 10.24 83.02 9.32Q82.10 8.40 81.67 7.14Q81.23 5.88 81.23 4.42Z"/>
    </g>
</svg>