<?xml version="1.0" encoding="UTF-8"?>
<svg height="34" width="261.7" version="1.1" xmlns="http://www.w3.org/2000/svg">
    <rect
        height="32"
        width="259.7"
        rx="14"
        ry="14"
        x="1"
        y="1"
        fill="#2A6277"
        stroke="#70b4cd"
        stroke-width="1"
         />
    <g transform="translate(0, 14)">
        <path fill="#70b4cd" d="M22.26-6.33L22.26 5.20Q22.26 6.46 21.94 7.58Q21.62 8.70 20.88 9.54Q20.14 10.38 18.96 10.87Q17.78 11.36 16.10 11.36L16.10 11.36Q14.34 11.36 13.16 10.92Q11.99 10.47 11.18 9.82L11.18 9.82L12.49 7.08Q13.19 7.53 14.05 7.95Q14.90 8.37 15.80 8.37L15.80 8.37Q17.14 8.37 17.97 7.65Q18.79 6.94 18.79 5.01L18.79 5.01L18.79-3.48L13.00-3.48L13.00-6.33L22.26-6.33ZM31.03 8.54L31.03 8.54Q31.59 8.54 32.12 8.52Q32.65 8.51 33.04 8.45L33.04 8.45L33.04 5.43Q32.71 5.37 32.23 5.33Q31.76 5.29 31.36 5.29L31.36 5.29Q30.83 5.29 30.33 5.36Q29.82 5.43 29.45 5.60Q29.07 5.76 28.84 6.07Q28.62 6.38 28.62 6.88L28.62 6.88Q28.62 7.78 29.29 8.16Q29.96 8.54 31.03 8.54ZM30.72-2.50L30.72-2.50Q32.34-2.50 33.42-2.12Q34.50-1.74 35.14-1.05Q35.79-0.37 36.07 0.63Q36.35 1.62 36.35 2.85L36.35 2.85L36.35 10.69Q35.59 10.86 34.11 11.08Q32.62 11.31 30.78 11.31L30.78 11.31Q29.52 11.31 28.49 11.08Q27.47 10.86 26.74 10.34Q26.02 9.82 25.62 9.00Q25.23 8.17 25.23 6.97L25.23 6.97Q25.23 5.82 25.68 5.04Q26.13 4.25 26.88 3.78Q27.64 3.30 28.62 3.09Q29.60 2.88 30.66 2.88L30.66 2.88Q32.01 2.88 33.04 3.10L33.04 3.10L33.04 2.68Q33.04 1.70 32.43 1.05Q31.81 0.39 30.30 0.39L30.30 0.39Q29.32 0.39 28.41 0.53Q27.50 0.67 26.94 0.86L26.94 0.86L26.46-1.91Q27.11-2.13 28.28-2.31Q29.46-2.50 30.72-2.50ZM46.32 11L43.43 11Q42.17 8.51 40.87 5.16Q39.57 1.82 38.39-2.16L38.39-2.16L42.00-2.16Q42.26-1.10 42.61 0.11Q42.96 1.31 43.35 2.53Q43.74 3.75 44.15 4.90Q44.55 6.04 44.92 7.00L44.92 7.00Q45.28 6.04 45.73 4.90Q46.18 3.75 46.61 2.53Q47.04 1.31 47.45 0.11Q47.86-1.10 48.11-2.16L48.11-2.16L51.61-2.16Q50.43 1.82 49.00 5.16Q47.58 8.51 46.32 11L46.32 11ZM59.03 8.54L59.03 8.54Q59.59 8.54 60.12 8.52Q60.65 8.51 61.04 8.45L61.04 8.45L61.04 5.43Q60.71 5.37 60.23 5.33Q59.76 5.29 59.36 5.29L59.36 5.29Q58.83 5.29 58.33 5.36Q57.82 5.43 57.45 5.60Q57.07 5.76 56.84 6.07Q56.62 6.38 56.62 6.88L56.62 6.88Q56.62 7.78 57.29 8.16Q57.96 8.54 59.03 8.54ZM58.72-2.50L58.72-2.50Q60.34-2.50 61.42-2.12Q62.50-1.74 63.14-1.05Q63.79-0.37 64.07 0.63Q64.35 1.62 64.35 2.85L64.35 2.85L64.35 10.69Q63.59 10.86 62.11 11.08Q60.62 11.31 58.78 11.31L58.78 11.31Q57.52 11.31 56.49 11.08Q55.47 10.86 54.74 10.34Q54.02 9.82 53.62 9.00Q53.23 8.17 53.23 6.97L53.23 6.97Q53.23 5.82 53.68 5.04Q54.13 4.25 54.88 3.78Q55.64 3.30 56.62 3.09Q57.60 2.88 58.66 2.88L58.66 2.88Q60.01 2.88 61.04 3.10L61.04 3.10L61.04 2.68Q61.04 1.70 60.43 1.05Q59.81 0.39 58.30 0.39L58.30 0.39Q57.32 0.39 56.41 0.53Q55.50 0.67 54.94 0.86L54.94 0.86L54.46-1.91Q55.11-2.13 56.28-2.31Q57.46-2.50 58.72-2.50ZM86.50 8.48L86.50 8.48Q87.36 8.48 87.94 8.30Q88.51 8.12 88.85 7.79Q89.18 7.47 89.31 7.07Q89.44 6.66 89.44 6.24L89.44 6.24Q89.44 5.71 89.13 5.29Q88.82 4.87 88.34 4.55Q87.87 4.22 87.28 3.96Q86.69 3.69 86.10 3.47L86.10 3.47Q85.32 3.19 84.48 2.82Q83.64 2.46 82.95 1.90Q82.27 1.34 81.82 0.51Q81.37-0.31 81.37-1.54L81.37-1.54Q81.37-3.98 82.95-5.35Q84.54-6.72 87.31-6.72L87.31-6.72Q88.90-6.72 90.09-6.36Q91.28-6.00 92.10-5.55L92.10-5.55L91.09-2.89Q90.39-3.28 89.53-3.56Q88.68-3.84 87.56-3.84L87.56-3.84Q84.82-3.84 84.82-1.85L84.82-1.85Q84.82-1.35 85.10-0.97Q85.38-0.59 85.81-0.30Q86.24-0.00 86.79 0.22Q87.34 0.44 87.87 0.64L87.87 0.64Q88.68 0.95 89.56 1.33Q90.44 1.70 91.19 2.33Q91.93 2.96 92.40 3.90Q92.88 4.84 92.88 6.27L92.88 6.27Q92.88 8.70 91.30 10.03Q89.72 11.36 86.50 11.36L86.50 11.36Q84.34 11.36 83.05 10.90Q81.76 10.44 81.12 10.05L81.12 10.05L82.13 7.25Q82.88 7.70 83.93 8.09Q84.98 8.48 86.50 8.48ZM94.87 4.53L94.87 4.53Q94.87 2.80 95.40 1.48Q95.93 0.16 96.80-0.72Q97.67-1.60 98.79-2.05Q99.91-2.50 101.08-2.50L101.08-2.50Q104.00-2.50 105.51-0.77Q107.02 0.95 107.02 4.25L107.02 4.25Q107.02 4.59 107.01 4.95Q106.99 5.32 106.96 5.54L106.96 5.54L98.42 5.54Q98.42 6.83 99.49 7.57Q100.55 8.31 102.23 8.31L102.23 8.31Q103.27 8.31 104.21 8.09Q105.14 7.86 105.79 7.64L105.79 7.64L106.26 10.58Q105.37 10.89 104.36 11.10Q103.35 11.31 102.09 11.31L102.09 11.31Q100.41 11.31 99.08 10.87Q97.75 10.44 96.81 9.59Q95.88 8.73 95.37 7.47Q94.87 6.21 94.87 4.53ZM98.42 3.16L103.69 3.16Q103.69 2.63 103.55 2.14Q103.41 1.65 103.10 1.26Q102.79 0.86 102.32 0.63Q101.84 0.39 101.14 0.39L101.14 0.39Q100.47 0.39 99.98 0.61Q99.49 0.84 99.17 1.23Q98.84 1.62 98.66 2.12Q98.48 2.63 98.42 3.16L98.42 3.16ZM120.85-1.85L120.24 1.34Q119.90 1.26 119.44 1.17Q118.98 1.09 118.50 1.02Q118.02 0.95 117.58 0.92Q117.13 0.89 116.82 0.89L116.82 0.89Q116.09 0.89 115.39 0.96Q114.69 1.03 113.96 1.23L113.96 1.23L113.96 11L110.49 11L110.49-1.29Q111.86-1.80 113.31-2.10Q114.75-2.41 116.68-2.41L116.68-2.41Q116.96-2.41 117.48-2.38Q118.00-2.36 118.58-2.29Q119.17-2.22 119.77-2.12Q120.38-2.02 120.85-1.85L120.85-1.85ZM130.32 11L127.43 11Q126.17 8.51 124.87 5.16Q123.57 1.82 122.39-2.16L122.39-2.16L126.00-2.16Q126.26-1.10 126.61 0.11Q126.96 1.31 127.35 2.53Q127.74 3.75 128.15 4.90Q128.55 6.04 128.92 7.00L128.92 7.00Q129.28 6.04 129.73 4.90Q130.18 3.75 130.61 2.53Q131.04 1.31 131.45 0.11Q131.86-1.10 132.11-2.16L132.11-2.16L135.61-2.16Q134.43 1.82 133.00 5.16Q131.58 8.51 130.32 11L130.32 11ZM136.87 4.53L136.87 4.53Q136.87 2.80 137.40 1.48Q137.93 0.16 138.80-0.72Q139.67-1.60 140.79-2.05Q141.91-2.50 143.08-2.50L143.08-2.50Q146.00-2.50 147.51-0.77Q149.02 0.95 149.02 4.25L149.02 4.25Q149.02 4.59 149.01 4.95Q148.99 5.32 148.96 5.54L148.96 5.54L140.42 5.54Q140.42 6.83 141.49 7.57Q142.55 8.31 144.23 8.31L144.23 8.31Q145.27 8.31 146.21 8.09Q147.14 7.86 147.79 7.64L147.79 7.64L148.26 10.58Q147.37 10.89 146.36 11.10Q145.35 11.31 144.09 11.31L144.09 11.31Q142.41 11.31 141.08 10.87Q139.75 10.44 138.81 9.59Q137.88 8.73 137.37 7.47Q136.87 6.21 136.87 4.53ZM140.42 3.16L145.69 3.16Q145.69 2.63 145.55 2.14Q145.41 1.65 145.10 1.26Q144.79 0.86 144.32 0.63Q143.84 0.39 143.14 0.39L143.14 0.39Q142.47 0.39 141.98 0.61Q141.49 0.84 141.17 1.23Q140.84 1.62 140.66 2.12Q140.48 2.63 140.42 3.16L140.42 3.16ZM162.85-1.85L162.24 1.34Q161.90 1.26 161.44 1.17Q160.98 1.09 160.50 1.02Q160.02 0.95 159.58 0.92Q159.13 0.89 158.82 0.89L158.82 0.89Q158.09 0.89 157.39 0.96Q156.69 1.03 155.96 1.23L155.96 1.23L155.96 11L152.49 11L152.49-1.29Q153.86-1.80 155.31-2.10Q156.75-2.41 158.68-2.41L158.68-2.41Q158.96-2.41 159.48-2.38Q160.00-2.36 160.58-2.29Q161.17-2.22 161.77-2.12Q162.38-2.02 162.85-1.85L162.85-1.85ZM184.27-6.53L184.27-6.53Q187.58-6.53 189.40-5.17Q191.22-3.81 191.22-0.73L191.22-0.73Q191.22 2.38 189.38 3.76Q187.55 5.15 184.19 5.15L184.19 5.15L182.96 5.15L182.96 11L179.51 11L179.51-6.11Q180.02-6.22 180.65-6.30Q181.28-6.39 181.92-6.43Q182.56-6.47 183.18-6.50Q183.80-6.53 184.27-6.53ZM184.66-3.53L184.66-3.53Q184.36-3.53 183.81-3.52Q183.26-3.50 182.96-3.45L182.96-3.45L182.96 2.15L184.36 2.15Q186.01 2.15 186.85 1.49Q187.69 0.84 187.69-0.76L187.69-0.76Q187.69-2.27 186.86-2.90Q186.04-3.53 184.66-3.53ZM199.03 8.54L199.03 8.54Q199.59 8.54 200.12 8.52Q200.65 8.51 201.04 8.45L201.04 8.45L201.04 5.43Q200.71 5.37 200.23 5.33Q199.76 5.29 199.36 5.29L199.36 5.29Q198.83 5.29 198.33 5.36Q197.82 5.43 197.45 5.60Q197.07 5.76 196.84 6.07Q196.62 6.38 196.62 6.88L196.62 6.88Q196.62 7.78 197.29 8.16Q197.96 8.54 199.03 8.54ZM198.72-2.50L198.72-2.50Q200.34-2.50 201.42-2.12Q202.50-1.74 203.14-1.05Q203.79-0.37 204.07 0.63Q204.35 1.62 204.35 2.85L204.35 2.85L204.35 10.69Q203.59 10.86 202.11 11.08Q200.62 11.31 198.78 11.31L198.78 11.31Q197.52 11.31 196.49 11.08Q195.47 10.86 194.74 10.34Q194.02 9.82 193.62 9.00Q193.23 8.17 193.23 6.97L193.23 6.97Q193.23 5.82 193.68 5.04Q194.13 4.25 194.88 3.78Q195.64 3.30 196.62 3.09Q197.60 2.88 198.66 2.88L198.66 2.88Q200.01 2.88 201.04 3.10L201.04 3.10L201.04 2.68Q201.04 1.70 200.43 1.05Q199.81 0.39 198.30 0.39L198.30 0.39Q197.32 0.39 196.41 0.53Q195.50 0.67 194.94 0.86L194.94 0.86L194.46-1.91Q195.11-2.13 196.28-2.31Q197.46-2.50 198.72-2.50ZM210.42 4L210.42 4Q210.42 5.62 211.01 6.48Q211.60 7.33 212.86 7.33L212.86 7.33Q213.42 7.33 213.91 7.19Q214.40 7.05 214.79 6.83L214.79 6.83L214.79 0.50Q214.40 0.42 214.09 0.39Q213.78 0.36 213.45 0.36L213.45 0.36Q210.42 0.36 210.42 4ZM218.26-1.74L218.26 9.40Q218.26 12.62 216.71 14.16Q215.16 15.70 211.71 15.70L211.71 15.70Q210.48 15.70 209.35 15.45Q208.21 15.20 207.18 14.86L207.18 14.86L207.82 11.95Q208.63 12.26 209.53 12.53Q210.42 12.79 211.77 12.79L211.77 12.79Q212.66 12.79 213.25 12.58Q213.84 12.37 214.18 12.01Q214.51 11.64 214.65 11.15Q214.79 10.66 214.79 10.10L214.79 10.10L214.79 9.57Q214.06 9.85 213.46 9.99Q212.86 10.13 212.16 10.13L212.16 10.13Q209.58 10.13 208.25 8.51Q206.92 6.88 206.92 4L206.92 4Q206.92 0.75 208.72-0.84Q210.51-2.44 213.59-2.44L213.59-2.44Q215.74-2.44 218.26-1.74L218.26-1.74ZM220.87 4.53L220.87 4.53Q220.87 2.80 221.40 1.48Q221.93 0.16 222.80-0.72Q223.67-1.60 224.79-2.05Q225.91-2.50 227.08-2.50L227.08-2.50Q230.00-2.50 231.51-0.77Q233.02 0.95 233.02 4.25L233.02 4.25Q233.02 4.59 233.01 4.95Q232.99 5.32 232.96 5.54L232.96 5.54L224.42 5.54Q224.42 6.83 225.49 7.57Q226.55 8.31 228.23 8.31L228.23 8.31Q229.27 8.31 230.21 8.09Q231.14 7.86 231.79 7.64L231.79 7.64L232.26 10.58Q231.37 10.89 230.36 11.10Q229.35 11.31 228.09 11.31L228.09 11.31Q226.41 11.31 225.08 10.87Q223.75 10.44 222.81 9.59Q221.88 8.73 221.37 7.47Q220.87 6.21 220.87 4.53ZM224.42 3.16L229.69 3.16Q229.69 2.63 229.55 2.14Q229.41 1.65 229.10 1.26Q228.79 0.86 228.32 0.63Q227.84 0.39 227.14 0.39L227.14 0.39Q226.47 0.39 225.98 0.61Q225.49 0.84 225.17 1.23Q224.84 1.62 224.66 2.12Q224.48 2.63 224.42 3.16L224.42 3.16ZM240.38 8.40L240.38 8.40Q241.64 8.40 242.32 8.21Q242.99 8.03 242.99 7.47L242.99 7.47Q242.99 7.11 242.78 6.86Q242.57 6.60 242.19 6.42Q241.81 6.24 241.32 6.07Q240.83 5.90 240.30 5.74L240.30 5.74Q239.54 5.51 238.76 5.22Q237.98 4.92 237.33 4.48Q236.69 4.03 236.27 3.34Q235.85 2.66 235.85 1.62L235.85 1.62Q235.85 0.78 236.17 0.04Q236.49-0.70 237.18-1.28Q237.86-1.85 238.93-2.17Q239.99-2.50 241.48-2.50L241.48-2.50Q242.76-2.50 243.87-2.30Q244.98-2.10 245.79-1.74L245.79-1.74L245.26 1.17Q244.78 1.03 243.77 0.71Q242.76 0.39 241.50 0.39L241.50 0.39Q240.19 0.39 239.73 0.71Q239.26 1.03 239.26 1.40L239.26 1.40Q239.26 1.70 239.47 1.94Q239.68 2.18 240.03 2.38Q240.38 2.57 240.85 2.75Q241.31 2.94 241.84 3.10L241.84 3.10Q242.60 3.36 243.41 3.66Q244.22 3.97 244.88 4.43Q245.54 4.90 245.96 5.61Q246.38 6.32 246.38 7.36L246.38 7.36Q246.38 8.17 246.07 8.90Q245.76 9.63 245.05 10.16Q244.33 10.69 243.18 11Q242.04 11.31 240.36 11.31L240.36 11.31Q238.65 11.31 237.44 10.92Q236.24 10.52 235.51 10.22L235.51 10.22L236.04 7.33Q237.02 7.72 238.13 8.06Q239.24 8.40 240.38 8.40Z"/>
    </g>
</svg>