<?xml version="1.0" encoding="UTF-8"?>
<svg height="34" width="296.1" version="1.1" xmlns="http://www.w3.org/2000/svg"><!--Created by Josélio de S. C. Júnior - 2021 - https://github.com/joseliojunior -->
    <rect
        height="32"
        width="294.1"
        rx="16"
        ry="16"
        x="1" y="1"
        fill="#005daa"
        stroke="#42aaff"
        stroke-width="1" />
    <g transform="translate(0, 12)">
        <path fill="#42aaff" stroke="none" d="M21.42-2.86L23.86-2.86Q24.03-2.35 24.28-1.56Q24.54-0.77 24.82 0.14Q25.11 1.06 25.40 1.99Q25.69 2.93 25.95 3.72L25.95 3.72Q26.24 2.83 26.55 1.88Q26.86 0.94 27.15 0.06Q27.44-0.82 27.68-1.58Q27.92-2.35 28.11-2.86L28.11-2.86L30.56-2.86Q30.73-0.91 30.88 0.94Q31.04 2.78 31.15 4.60Q31.26 6.41 31.33 8.24Q31.40 10.08 31.45 12L31.45 12L28.74 12L28.88 0.46L27.06 6.74L24.90 6.74L23.14 0.46L23.26 12L20.55 12Q20.62 10.18 20.71 8.21Q20.79 6.24 20.89 4.30Q20.98 2.35 21.12 0.53Q21.25-1.30 21.42-2.86L21.42-2.86ZM43.33 6.34L43.33 6.34Q43.33 7.68 42.94 8.77Q42.56 9.86 41.86 10.66Q41.17 11.45 40.20 11.88Q39.22 12.31 38.02 12.31L38.02 12.31Q36.82 12.31 35.85 11.88Q34.88 11.45 34.17 10.66Q33.46 9.86 33.08 8.77Q32.70 7.68 32.70 6.34L32.70 6.34Q32.70 5.02 33.09 3.92Q33.49 2.83 34.20 2.05Q34.90 1.27 35.89 0.85Q36.87 0.43 38.02 0.43L38.02 0.43Q39.20 0.43 40.17 0.85Q41.14 1.27 41.85 2.05Q42.56 2.83 42.94 3.92Q43.33 5.02 43.33 6.34ZM35.70 6.36L35.70 6.36Q35.70 7.87 36.24 8.81Q36.78 9.74 37.98 9.74L37.98 9.74Q39.13 9.74 39.72 8.81Q40.30 7.87 40.30 6.36L40.30 6.36Q40.30 4.85 39.76 3.92Q39.22 3 38.02 3L38.02 3Q36.87 3 36.28 3.92Q35.70 4.85 35.70 6.36ZM47.43 7.80L47.43 3.17L44.86 3.17L44.86 0.72L47.43 0.72L47.43-2.11L50.38-2.59L50.38 0.72L55.11 0.72L55.11 3.17L50.38 3.17L50.38 7.73Q50.38 8.35 50.50 8.74Q50.62 9.12 50.84 9.34Q51.06 9.55 51.37 9.62Q51.68 9.70 52.06 9.70L52.06 9.70Q52.47 9.70 52.82 9.67Q53.17 9.65 53.49 9.59Q53.82 9.53 54.16 9.41Q54.51 9.29 54.92 9.10L54.92 9.10L55.33 11.64Q54.51 11.98 53.56 12.12Q52.62 12.26 51.73 12.26L51.73 12.26Q50.70 12.26 49.90 12.10Q49.11 11.93 48.56 11.45Q48.01 10.97 47.72 10.09Q47.43 9.22 47.43 7.80L47.43 7.80ZM67.33 6.34L67.33 6.34Q67.33 7.68 66.94 8.77Q66.56 9.86 65.86 10.66Q65.17 11.45 64.20 11.88Q63.22 12.31 62.02 12.31L62.02 12.31Q60.82 12.31 59.85 11.88Q58.88 11.45 58.17 10.66Q57.46 9.86 57.08 8.77Q56.70 7.68 56.70 6.34L56.70 6.34Q56.70 5.02 57.09 3.92Q57.49 2.83 58.20 2.05Q58.90 1.27 59.89 0.85Q60.87 0.43 62.02 0.43L62.02 0.43Q63.20 0.43 64.17 0.85Q65.14 1.27 65.85 2.05Q66.56 2.83 66.94 3.92Q67.33 5.02 67.33 6.34ZM59.70 6.36L59.70 6.36Q59.70 7.87 60.24 8.81Q60.78 9.74 61.98 9.74L61.98 9.74Q63.13 9.74 63.72 8.81Q64.30 7.87 64.30 6.36L64.30 6.36Q64.30 4.85 63.76 3.92Q63.22 3 62.02 3L62.02 3Q60.87 3 60.28 3.92Q59.70 4.85 59.70 6.36ZM79.02 0.98L78.49 3.72Q78.20 3.65 77.80 3.58Q77.41 3.50 77 3.44Q76.59 3.38 76.21 3.36Q75.82 3.34 75.56 3.34L75.56 3.34Q74.94 3.34 74.34 3.40Q73.74 3.46 73.11 3.62L73.11 3.62L73.11 12L70.14 12L70.14 1.46Q71.31 1.03 72.55 0.77Q73.78 0.50 75.44 0.50L75.44 0.50Q75.68 0.50 76.12 0.53Q76.57 0.55 77.07 0.61Q77.58 0.67 78.09 0.76Q78.61 0.84 79.02 0.98L79.02 0.98ZM91.33 6.34L91.33 6.34Q91.33 7.68 90.94 8.77Q90.56 9.86 89.86 10.66Q89.17 11.45 88.20 11.88Q87.22 12.31 86.02 12.31L86.02 12.31Q84.82 12.31 83.85 11.88Q82.88 11.45 82.17 10.66Q81.46 9.86 81.08 8.77Q80.70 7.68 80.70 6.34L80.70 6.34Q80.70 5.02 81.09 3.92Q81.49 2.83 82.20 2.05Q82.90 1.27 83.89 0.85Q84.87 0.43 86.02 0.43L86.02 0.43Q87.20 0.43 88.17 0.85Q89.14 1.27 89.85 2.05Q90.56 2.83 90.94 3.92Q91.33 5.02 91.33 6.34ZM83.70 6.36L83.70 6.36Q83.70 7.87 84.24 8.81Q84.78 9.74 85.98 9.74L85.98 9.74Q87.13 9.74 87.72 8.81Q88.30 7.87 88.30 6.36L88.30 6.36Q88.30 4.85 87.76 3.92Q87.22 3 86.02 3L86.02 3Q84.87 3 84.28 3.92Q83.70 4.85 83.70 6.36ZM102.82 9.14L103.21 11.52Q103.14 11.57 102.88 11.69Q102.63 11.81 102.22 11.94Q101.82 12.07 101.23 12.17Q100.64 12.26 99.90 12.26L99.90 12.26Q97.86 12.26 96.92 11.05Q95.98 9.84 95.98 7.51L95.98 7.51L95.98-2.06L92.86-2.06L92.86-4.51L98.94-4.51L98.94 7.73Q98.94 8.88 99.39 9.29Q99.85 9.70 100.54 9.70L100.54 9.70Q101.43 9.70 102.03 9.46Q102.63 9.22 102.82 9.14L102.82 9.14ZM110.02 9.89L110.02 9.89Q110.50 9.89 110.96 9.88Q111.42 9.86 111.75 9.82L111.75 9.82L111.75 7.22Q111.46 7.18 111.06 7.14Q110.65 7.10 110.31 7.10L110.31 7.10Q109.86 7.10 109.42 7.16Q108.99 7.22 108.67 7.37Q108.34 7.51 108.15 7.78Q107.96 8.04 107.96 8.47L107.96 8.47Q107.96 9.24 108.54 9.56Q109.11 9.89 110.02 9.89ZM109.76 0.43L109.76 0.43Q111.15 0.43 112.08 0.76Q113 1.08 113.55 1.67Q114.10 2.26 114.34 3.11Q114.58 3.96 114.58 5.02L114.58 5.02L114.58 11.74Q113.94 11.88 112.66 12.07Q111.39 12.26 109.81 12.26L109.81 12.26Q108.73 12.26 107.85 12.07Q106.98 11.88 106.35 11.44Q105.73 10.99 105.39 10.28Q105.06 9.58 105.06 8.54L105.06 8.54Q105.06 7.56 105.44 6.89Q105.82 6.22 106.47 5.81Q107.12 5.40 107.96 5.22Q108.80 5.04 109.71 5.04L109.71 5.04Q110.86 5.04 111.75 5.23L111.75 5.23L111.75 4.87Q111.75 4.03 111.22 3.47Q110.70 2.90 109.40 2.90L109.40 2.90Q108.56 2.90 107.78 3.02Q107 3.14 106.52 3.31L106.52 3.31L106.11 0.94Q106.66 0.74 107.67 0.59Q108.68 0.43 109.76 0.43ZM133.78 4.94L133.78 4.94Q133.33 4.94 132.85 5.04Q132.37 5.14 132.06 5.30L132.06 5.30Q132.03 5.52 132.02 5.74Q132.01 5.95 132.01 6.19L132.01 6.19Q132.01 6.89 132.10 7.52Q132.20 8.16 132.44 8.66Q132.68 9.17 133.10 9.47Q133.52 9.77 134.14 9.77L134.14 9.77Q134.65 9.77 135.01 9.53Q135.37 9.29 135.60 8.93Q135.82 8.57 135.93 8.14Q136.04 7.70 136.04 7.30L136.04 7.30Q136.04 6.17 135.54 5.56Q135.03 4.94 133.78 4.94ZM134.17 2.50L134.17 2.50Q135.46 2.50 136.36 2.88Q137.26 3.26 137.84 3.91Q138.42 4.56 138.67 5.42Q138.92 6.29 138.92 7.25L138.92 7.25Q138.92 8.11 138.64 9Q138.37 9.89 137.79 10.63Q137.22 11.38 136.33 11.84Q135.44 12.31 134.22 12.31L134.22 12.31Q131.72 12.31 130.41 10.76Q129.10 9.22 129.10 5.93L129.10 5.93Q129.10 3.77 129.74 2.11Q130.38 0.46 131.55-0.67Q132.73-1.80 134.38-2.38Q136.04-2.95 138.06-2.95L138.06-2.95L138.22-0.43Q137.26-0.41 136.35-0.24Q135.44-0.07 134.67 0.32Q133.90 0.72 133.34 1.34Q132.78 1.97 132.51 2.90L132.51 2.90Q132.97 2.71 133.40 2.60Q133.83 2.50 134.17 2.50ZM150.70 0.67L150.70 0.67Q150.70 1.70 150.20 2.70Q149.70 3.70 148.62 4.37L148.62 4.37Q149.98 5.16 150.55 6.10Q151.11 7.03 151.11 8.16L151.11 8.16Q151.11 8.88 150.84 9.62Q150.56 10.37 149.95 10.96Q149.34 11.54 148.35 11.93Q147.37 12.31 145.93 12.31L145.93 12.31Q144.80 12.31 143.88 12.04Q142.95 11.76 142.29 11.24Q141.63 10.73 141.27 9.97Q140.91 9.22 140.91 8.28L140.91 8.28Q140.91 7.15 141.44 6.16Q141.97 5.16 143.10 4.39L143.10 4.39Q142.04 3.67 141.66 2.86Q141.27 2.04 141.27 1.13L141.27 1.13Q141.27 0.41 141.52-0.37Q141.78-1.15 142.33-1.78Q142.88-2.40 143.79-2.81Q144.70-3.22 146.05-3.22L146.05-3.22Q148.18-3.22 149.44-2.16Q150.70-1.10 150.70 0.67ZM148.33 8.11L148.33 8.11Q148.33 7.63 148.15 7.27Q147.97 6.91 147.57 6.61Q147.18 6.31 146.55 6.01Q145.93 5.71 145.06 5.38L145.06 5.38Q144.39 5.93 144.03 6.61Q143.67 7.30 143.67 7.92L143.67 7.92Q143.67 8.88 144.36 9.37Q145.04 9.86 145.98 9.86L145.98 9.86Q147.06 9.86 147.69 9.35Q148.33 8.83 148.33 8.11ZM146-0.77L146-0.77Q145.23-0.77 144.64-0.34Q144.06 0.10 144.06 0.94L144.06 0.94Q144.06 1.78 144.61 2.30Q145.16 2.83 146.55 3.41L146.55 3.41Q147.30 2.86 147.61 2.20Q147.92 1.54 147.92 0.91L147.92 0.91Q147.92 0.07 147.36-0.35Q146.79-0.77 146-0.77ZM163.74 12L160.40 12Q160.14 11.16 159.64 10.19Q159.15 9.22 158.55 8.29Q157.95 7.37 157.29 6.56Q156.63 5.76 156.03 5.21L156.03 5.21L156.03 12L153.08 12L153.08-2.86L156.03-2.86L156.03 3.31Q156.56 2.64 157.14 1.82Q157.71 1.01 158.23 0.19Q158.74-0.62 159.18-1.42Q159.61-2.21 159.90-2.86L159.90-2.86L163.23-2.86Q162.90-2.21 162.43-1.38Q161.96-0.55 161.36 0.35Q160.76 1.25 160.08 2.18Q159.39 3.12 158.65 3.98L158.65 3.98Q159.39 4.70 160.16 5.64Q160.93 6.58 161.61 7.64Q162.30 8.71 162.85 9.83Q163.40 10.94 163.74 12L163.74 12ZM187.78 12L184.62 12L183.92 8.57L179.96 8.57L179.29 12L176.22 12Q177.27 7.61 178.35 4.00Q179.43 0.38 180.44-2.86L180.44-2.86L183.66-2.86Q184.71 0.41 185.76 4.07Q186.80 7.73 187.78 12L187.78 12ZM181.98 0.02L181.98 0.02Q181.74 0.86 181.53 1.62Q181.33 2.38 181.15 3.11Q180.97 3.84 180.81 4.58Q180.66 5.33 180.51 6.12L180.51 6.12L183.42 6.12Q183.27 5.33 183.13 4.58Q182.98 3.84 182.80 3.11Q182.62 2.38 182.42 1.62Q182.22 0.86 181.98 0.02ZM193.47 9.77L193.47 9.77Q194.55 9.77 195.13 9.61Q195.70 9.46 195.70 8.98L195.70 8.98Q195.70 8.66 195.52 8.45Q195.34 8.23 195.02 8.08Q194.70 7.92 194.28 7.78Q193.86 7.63 193.40 7.49L193.40 7.49Q192.75 7.30 192.08 7.04Q191.41 6.79 190.86 6.41Q190.30 6.02 189.94 5.44Q189.58 4.85 189.58 3.96L189.58 3.96Q189.58 3.24 189.86 2.60Q190.14 1.97 190.72 1.48Q191.31 0.98 192.22 0.71Q193.14 0.43 194.41 0.43L194.41 0.43Q195.51 0.43 196.46 0.60Q197.41 0.77 198.10 1.08L198.10 1.08L197.65 3.58Q197.24 3.46 196.38 3.18Q195.51 2.90 194.43 2.90L194.43 2.90Q193.30 2.90 192.91 3.18Q192.51 3.46 192.51 3.77L192.51 3.77Q192.51 4.03 192.69 4.24Q192.87 4.44 193.17 4.61Q193.47 4.78 193.87 4.93Q194.26 5.09 194.72 5.23L194.72 5.23Q195.37 5.45 196.06 5.71Q196.76 5.98 197.32 6.37Q197.89 6.77 198.25 7.38Q198.61 7.99 198.61 8.88L198.61 8.88Q198.61 9.58 198.34 10.20Q198.08 10.82 197.47 11.28Q196.86 11.74 195.87 12Q194.89 12.26 193.45 12.26L193.45 12.26Q191.98 12.26 190.95 11.93Q189.92 11.59 189.30 11.33L189.30 11.33L189.75 8.86Q190.59 9.19 191.54 9.48Q192.49 9.77 193.47 9.77ZM205.47 9.77L205.47 9.77Q206.55 9.77 207.13 9.61Q207.70 9.46 207.70 8.98L207.70 8.98Q207.70 8.66 207.52 8.45Q207.34 8.23 207.02 8.08Q206.70 7.92 206.28 7.78Q205.86 7.63 205.40 7.49L205.40 7.49Q204.75 7.30 204.08 7.04Q203.41 6.79 202.86 6.41Q202.30 6.02 201.94 5.44Q201.58 4.85 201.58 3.96L201.58 3.96Q201.58 3.24 201.86 2.60Q202.14 1.97 202.72 1.48Q203.31 0.98 204.22 0.71Q205.14 0.43 206.41 0.43L206.41 0.43Q207.51 0.43 208.46 0.60Q209.41 0.77 210.10 1.08L210.10 1.08L209.65 3.58Q209.24 3.46 208.38 3.18Q207.51 2.90 206.43 2.90L206.43 2.90Q205.30 2.90 204.91 3.18Q204.51 3.46 204.51 3.77L204.51 3.77Q204.51 4.03 204.69 4.24Q204.87 4.44 205.17 4.61Q205.47 4.78 205.87 4.93Q206.26 5.09 206.72 5.23L206.72 5.23Q207.37 5.45 208.06 5.71Q208.76 5.98 209.32 6.37Q209.89 6.77 210.25 7.38Q210.61 7.99 210.61 8.88L210.61 8.88Q210.61 9.58 210.34 10.20Q210.08 10.82 209.47 11.28Q208.86 11.74 207.87 12Q206.89 12.26 205.45 12.26L205.45 12.26Q203.98 12.26 202.95 11.93Q201.92 11.59 201.30 11.33L201.30 11.33L201.75 8.86Q202.59 9.19 203.54 9.48Q204.49 9.77 205.47 9.77ZM212.74 6.46L212.74 6.46Q212.74 4.97 213.20 3.84Q213.66 2.71 214.40 1.96Q215.14 1.20 216.10 0.82Q217.06 0.43 218.07 0.43L218.07 0.43Q220.57 0.43 221.86 1.91Q223.16 3.38 223.16 6.22L223.16 6.22Q223.16 6.50 223.15 6.82Q223.14 7.13 223.11 7.32L223.11 7.32L215.79 7.32Q215.79 8.42 216.70 9.06Q217.62 9.70 219.06 9.70L219.06 9.70Q219.94 9.70 220.75 9.50Q221.55 9.31 222.10 9.12L222.10 9.12L222.51 11.64Q221.74 11.90 220.88 12.08Q220.02 12.26 218.94 12.26L218.94 12.26Q217.50 12.26 216.36 11.89Q215.22 11.52 214.41 10.79Q213.61 10.06 213.18 8.98Q212.74 7.90 212.74 6.46ZM215.79 5.28L220.30 5.28Q220.30 4.82 220.18 4.40Q220.06 3.98 219.80 3.65Q219.54 3.31 219.13 3.11Q218.72 2.90 218.12 2.90L218.12 2.90Q217.54 2.90 217.12 3.10Q216.70 3.29 216.43 3.62Q216.15 3.96 216.00 4.39Q215.84 4.82 215.79 5.28L215.79 5.28ZM232.23 0.60L232.23 0.60Q233.17 0.60 233.77 0.89Q234.37 1.18 234.72 1.75Q235.06 2.33 235.18 3.20Q235.30 4.08 235.30 5.26L235.30 5.26L235.30 12L232.90 12L232.90 5.11Q232.90 4.44 232.82 4.03Q232.74 3.62 232.60 3.41Q232.47 3.19 232.29 3.12Q232.11 3.05 231.92 3.05L231.92 3.05Q231.70 3.05 231.46 3.08Q231.22 3.12 231.03 3.22L231.03 3.22Q231.10 3.67 231.15 4.22Q231.20 4.78 231.20 5.45L231.20 5.45L231.20 7.70L228.80 7.70L228.80 5.11Q228.80 3.96 228.57 3.50Q228.34 3.05 227.84 3.05L227.84 3.05Q227.70 3.05 227.49 3.07Q227.29 3.10 227.10 3.14L227.10 3.14L227.10 12L224.70 12L224.70 1.15Q225.63 0.89 226.54 0.74Q227.46 0.60 228.15 0.60L228.15 0.60Q228.78 0.60 229.27 0.76Q229.76 0.91 230.12 1.27L230.12 1.27Q230.53 1.01 231.08 0.80Q231.63 0.60 232.23 0.60ZM244.28 6.29L244.28 6.29Q244.28 4.70 243.76 3.86Q243.25 3.02 242.19 3.02L242.19 3.02Q241.71 3.02 241.24 3.16Q240.78 3.29 240.44 3.48L240.44 3.48L240.44 9.60Q240.78 9.67 241.15 9.70Q241.52 9.72 241.78 9.72L241.78 9.72Q242.94 9.72 243.61 8.94Q244.28 8.16 244.28 6.29ZM247.28 6.36L247.28 6.36Q247.28 7.70 246.92 8.80Q246.56 9.89 245.86 10.66Q245.17 11.42 244.16 11.84Q243.15 12.26 241.86 12.26L241.86 12.26Q240.70 12.26 239.50 12.10Q238.30 11.93 237.49 11.66L237.49 11.66L237.49-4.15L240.44-4.66L240.44 0.98Q241.06 0.70 241.64 0.59Q242.22 0.48 242.79 0.48L242.79 0.48Q243.90 0.48 244.74 0.90Q245.58 1.32 246.14 2.10Q246.70 2.88 246.99 3.96Q247.28 5.04 247.28 6.36ZM258.82 9.14L259.21 11.52Q259.14 11.57 258.88 11.69Q258.63 11.81 258.22 11.94Q257.82 12.07 257.23 12.17Q256.64 12.26 255.90 12.26L255.90 12.26Q253.86 12.26 252.92 11.05Q251.98 9.84 251.98 7.51L251.98 7.51L251.98-2.06L248.86-2.06L248.86-4.51L254.94-4.51L254.94 7.73Q254.94 8.88 255.39 9.29Q255.85 9.70 256.54 9.70L256.54 9.70Q257.43 9.70 258.03 9.46Q258.63 9.22 258.82 9.14L258.82 9.14ZM268.30 0.72L271.33 0.72Q270.87 2.30 270.45 3.83Q270.03 5.35 269.58 6.80Q269.12 8.26 268.60 9.65Q268.09 11.04 267.49 12.36L267.49 12.36Q267.03 13.32 266.59 14.02Q266.14 14.71 265.60 15.16Q265.06 15.60 264.40 15.82Q263.74 16.03 262.86 16.03L262.86 16.03Q262.11 16.03 261.50 15.91Q260.89 15.79 260.48 15.60L260.48 15.60L261.03 13.13Q261.51 13.34 261.88 13.43Q262.26 13.51 262.69 13.51L262.69 13.51Q263.55 13.51 264.08 12.94Q264.61 12.36 264.92 11.57L264.92 11.57Q263.86 9.46 262.81 6.73Q261.75 4.01 260.89 0.72L260.89 0.72L263.96 0.72Q264.18 1.61 264.45 2.62Q264.73 3.62 265.04 4.63Q265.35 5.64 265.70 6.61Q266.05 7.58 266.41 8.42L266.41 8.42Q266.65 7.58 266.91 6.61Q267.18 5.64 267.42 4.64Q267.66 3.65 267.88 2.64Q268.11 1.63 268.30 0.72L268.30 0.72Z"/>
    </g>
</svg>