<?xml version="1.0" encoding="UTF-8"?><svg height="26" width="212.1" version="1.1" xmlns="http://www.w3.org/2000/svg"><!--Created by Josélio de S. C. Júnior - 2021 - https://github.com/joseliojunior --><rect height="24" width="210.1" rx="12" ry="12" x="1" y="1" fill="#005daa" stroke="#42aaff" stroke-width="1" /><g transform="translate(0, 8)"><path fill="#42aaff" d="M20.94 0.10L22.58 0.10Q22.69 0.43 22.86 0.96Q23.02 1.49 23.22 2.10Q23.41 2.70 23.60 3.33Q23.79 3.95 23.97 4.48L23.97 4.48Q24.16 3.89 24.37 3.26Q24.58 2.62 24.77 2.04Q24.96 1.46 25.12 0.94Q25.28 0.43 25.41 0.10L25.41 0.10L27.04 0.10Q27.15 1.39 27.26 2.62Q27.36 3.86 27.43 5.06Q27.50 6.27 27.55 7.50Q27.60 8.72 27.63 10L27.63 10L25.82 10L25.92 2.30L24.70 6.50L23.26 6.50L22.10 2.30L22.18 10L20.37 10Q20.42 8.78 20.47 7.47Q20.53 6.16 20.59 4.86Q20.66 3.57 20.74 2.35Q20.83 1.14 20.94 0.10L20.94 0.10ZM35.55 6.22L35.55 6.22Q35.55 7.12 35.30 7.85Q35.04 8.58 34.58 9.10Q34.11 9.63 33.46 9.92Q32.82 10.21 32.02 10.21L32.02 10.21Q31.22 10.21 30.57 9.92Q29.92 9.63 29.45 9.10Q28.98 8.58 28.72 7.85Q28.46 7.12 28.46 6.22L28.46 6.22Q28.46 5.34 28.73 4.62Q28.99 3.89 29.46 3.37Q29.94 2.85 30.59 2.57Q31.25 2.29 32.02 2.29L32.02 2.29Q32.80 2.29 33.45 2.57Q34.10 2.85 34.57 3.37Q35.04 3.89 35.30 4.62Q35.55 5.34 35.55 6.22ZM30.46 6.24L30.46 6.24Q30.46 7.25 30.82 7.87Q31.18 8.50 31.98 8.50L31.98 8.50Q32.75 8.50 33.14 7.87Q33.54 7.25 33.54 6.24L33.54 6.24Q33.54 5.23 33.18 4.62Q32.82 4 32.02 4L32.02 4Q31.25 4 30.86 4.62Q30.46 5.23 30.46 6.24ZM38.29 7.20L38.29 4.11L36.58 4.11L36.58 2.48L38.29 2.48L38.29 0.59L40.26 0.27L40.26 2.48L43.41 2.48L43.41 4.11L40.26 4.11L40.26 7.15Q40.26 7.57 40.34 7.82Q40.42 8.08 40.56 8.22Q40.70 8.37 40.91 8.42Q41.12 8.46 41.38 8.46L41.38 8.46Q41.65 8.46 41.88 8.45Q42.11 8.43 42.33 8.39Q42.54 8.35 42.78 8.27Q43.01 8.19 43.28 8.06L43.28 8.06L43.55 9.76Q43.01 9.98 42.38 10.08Q41.74 10.18 41.15 10.18L41.15 10.18Q40.46 10.18 39.94 10.06Q39.41 9.95 39.04 9.63Q38.67 9.31 38.48 8.73Q38.29 8.14 38.29 7.20L38.29 7.20ZM51.55 6.22L51.55 6.22Q51.55 7.12 51.30 7.85Q51.04 8.58 50.58 9.10Q50.11 9.63 49.46 9.92Q48.82 10.21 48.02 10.21L48.02 10.21Q47.22 10.21 46.57 9.92Q45.92 9.63 45.45 9.10Q44.98 8.58 44.72 7.85Q44.46 7.12 44.46 6.22L44.46 6.22Q44.46 5.34 44.73 4.62Q44.99 3.89 45.46 3.37Q45.94 2.85 46.59 2.57Q47.25 2.29 48.02 2.29L48.02 2.29Q48.80 2.29 49.45 2.57Q50.10 2.85 50.57 3.37Q51.04 3.89 51.30 4.62Q51.55 5.34 51.55 6.22ZM46.46 6.24L46.46 6.24Q46.46 7.25 46.82 7.87Q47.18 8.50 47.98 8.50L47.98 8.50Q48.75 8.50 49.14 7.87Q49.54 7.25 49.54 6.24L49.54 6.24Q49.54 5.23 49.18 4.62Q48.82 4 48.02 4L48.02 4Q47.25 4 46.86 4.62Q46.46 5.23 46.46 6.24ZM59.34 2.66L58.99 4.48Q58.80 4.43 58.54 4.38Q58.27 4.34 58 4.30Q57.73 4.26 57.47 4.24Q57.22 4.22 57.04 4.22L57.04 4.22Q56.62 4.22 56.22 4.26Q55.82 4.30 55.41 4.42L55.41 4.42L55.41 10L53.42 10L53.42 2.98Q54.21 2.69 55.03 2.51Q55.86 2.34 56.96 2.34L56.96 2.34Q57.12 2.34 57.42 2.35Q57.71 2.37 58.05 2.41Q58.38 2.45 58.73 2.50Q59.07 2.56 59.34 2.66L59.34 2.66ZM67.55 6.22L67.55 6.22Q67.55 7.12 67.30 7.85Q67.04 8.58 66.58 9.10Q66.11 9.63 65.46 9.92Q64.82 10.21 64.02 10.21L64.02 10.21Q63.22 10.21 62.57 9.92Q61.92 9.63 61.45 9.10Q60.98 8.58 60.72 7.85Q60.46 7.12 60.46 6.22L60.46 6.22Q60.46 5.34 60.73 4.62Q60.99 3.89 61.46 3.37Q61.94 2.85 62.59 2.57Q63.25 2.29 64.02 2.29L64.02 2.29Q64.80 2.29 65.45 2.57Q66.10 2.85 66.57 3.37Q67.04 3.89 67.30 4.62Q67.55 5.34 67.55 6.22ZM62.46 6.24L62.46 6.24Q62.46 7.25 62.82 7.87Q63.18 8.50 63.98 8.50L63.98 8.50Q64.75 8.50 65.14 7.87Q65.54 7.25 65.54 6.24L65.54 6.24Q65.54 5.23 65.18 4.62Q64.82 4 64.02 4L64.02 4Q63.25 4 62.86 4.62Q62.46 5.23 62.46 6.24ZM75.22 8.10L75.47 9.68Q75.42 9.71 75.26 9.79Q75.09 9.87 74.82 9.96Q74.54 10.05 74.15 10.11Q73.76 10.18 73.26 10.18L73.26 10.18Q71.90 10.18 71.28 9.37Q70.66 8.56 70.66 7.01L70.66 7.01L70.66 0.62L68.58 0.62L68.58-1.01L72.62-1.01L72.62 7.15Q72.62 7.92 72.93 8.19Q73.23 8.46 73.70 8.46L73.70 8.46Q74.29 8.46 74.69 8.30Q75.09 8.14 75.22 8.10L75.22 8.10ZM80.02 8.59L80.02 8.59Q80.34 8.59 80.64 8.58Q80.94 8.58 81.17 8.54L81.17 8.54L81.17 6.82Q80.98 6.78 80.70 6.76Q80.43 6.74 80.21 6.74L80.21 6.74Q79.90 6.74 79.62 6.78Q79.33 6.82 79.11 6.91Q78.90 7.01 78.77 7.18Q78.64 7.36 78.64 7.65L78.64 7.65Q78.64 8.16 79.02 8.38Q79.41 8.59 80.02 8.59ZM79.84 2.29L79.84 2.29Q80.77 2.29 81.38 2.50Q82 2.72 82.37 3.11Q82.74 3.50 82.90 4.07Q83.06 4.64 83.06 5.34L83.06 5.34L83.06 9.82Q82.62 9.92 81.78 10.05Q80.93 10.18 79.87 10.18L79.87 10.18Q79.15 10.18 78.57 10.05Q77.98 9.92 77.57 9.62Q77.15 9.33 76.93 8.86Q76.70 8.38 76.70 7.70L76.70 7.70Q76.70 7.04 76.96 6.59Q77.22 6.14 77.65 5.87Q78.08 5.60 78.64 5.48Q79.20 5.36 79.81 5.36L79.81 5.36Q80.58 5.36 81.17 5.49L81.17 5.49L81.17 5.25Q81.17 4.69 80.82 4.31Q80.46 3.94 79.60 3.94L79.60 3.94Q79.04 3.94 78.52 4.02Q78 4.10 77.68 4.21L77.68 4.21L77.41 2.62Q77.78 2.50 78.45 2.39Q79.12 2.29 79.84 2.29ZM95.86 5.30L95.86 5.30Q95.55 5.30 95.23 5.36Q94.91 5.42 94.70 5.54L94.70 5.54Q94.69 5.68 94.68 5.82Q94.67 5.97 94.67 6.13L94.67 6.13Q94.67 6.59 94.74 7.02Q94.80 7.44 94.96 7.78Q95.12 8.11 95.40 8.31Q95.68 8.51 96.10 8.51L96.10 8.51Q96.43 8.51 96.67 8.35Q96.91 8.19 97.06 7.95Q97.22 7.71 97.29 7.42Q97.36 7.14 97.36 6.86L97.36 6.86Q97.36 6.11 97.02 5.70Q96.69 5.30 95.86 5.30ZM96.11 3.66L96.11 3.66Q96.98 3.66 97.58 3.92Q98.18 4.18 98.56 4.61Q98.94 5.04 99.11 5.62Q99.28 6.19 99.28 6.83L99.28 6.83Q99.28 7.41 99.10 8Q98.91 8.59 98.53 9.09Q98.14 9.58 97.55 9.90Q96.96 10.21 96.14 10.21L96.14 10.21Q94.48 10.21 93.61 9.18Q92.74 8.14 92.74 5.95L92.74 5.95Q92.74 4.51 93.16 3.41Q93.58 2.30 94.37 1.55Q95.15 0.80 96.26 0.42Q97.36 0.03 98.70 0.03L98.70 0.03L98.82 1.71Q98.18 1.73 97.57 1.84Q96.96 1.95 96.45 2.22Q95.94 2.48 95.56 2.90Q95.18 3.31 95.01 3.94L95.01 3.94Q95.31 3.81 95.60 3.74Q95.89 3.66 96.11 3.66ZM107.14 2.45L107.14 2.45Q107.14 3.14 106.80 3.80Q106.46 4.46 105.74 4.91L105.74 4.91Q106.66 5.44 107.03 6.06Q107.41 6.69 107.41 7.44L107.41 7.44Q107.41 7.92 107.22 8.42Q107.04 8.91 106.63 9.30Q106.22 9.70 105.57 9.95Q104.91 10.21 103.95 10.21L103.95 10.21Q103.20 10.21 102.58 10.02Q101.97 9.84 101.53 9.50Q101.09 9.15 100.85 8.65Q100.61 8.14 100.61 7.52L100.61 7.52Q100.61 6.77 100.96 6.10Q101.31 5.44 102.06 4.93L102.06 4.93Q101.36 4.45 101.10 3.90Q100.85 3.36 100.85 2.75L100.85 2.75Q100.85 2.27 101.02 1.75Q101.18 1.23 101.55 0.82Q101.92 0.40 102.53 0.13Q103.14-0.14 104.03-0.14L104.03-0.14Q105.46-0.14 106.30 0.56Q107.14 1.26 107.14 2.45ZM105.55 7.41L105.55 7.41Q105.55 7.09 105.43 6.85Q105.31 6.61 105.05 6.41Q104.78 6.21 104.37 6.01Q103.95 5.81 103.38 5.58L103.38 5.58Q102.93 5.95 102.69 6.41Q102.45 6.86 102.45 7.28L102.45 7.28Q102.45 7.92 102.90 8.25Q103.36 8.58 103.98 8.58L103.98 8.58Q104.70 8.58 105.13 8.23Q105.55 7.89 105.55 7.41ZM104 1.49L104 1.49Q103.49 1.49 103.10 1.78Q102.70 2.06 102.70 2.62L102.70 2.62Q102.70 3.18 103.07 3.54Q103.44 3.89 104.37 4.27L104.37 4.27Q104.86 3.90 105.07 3.46Q105.28 3.02 105.28 2.61L105.28 2.61Q105.28 2.05 104.90 1.77Q104.53 1.49 104 1.49ZM115.82 10L113.60 10Q113.42 9.44 113.10 8.79Q112.77 8.14 112.37 7.53Q111.97 6.91 111.53 6.38Q111.09 5.84 110.69 5.47L110.69 5.47L110.69 10L108.72 10L108.72 0.10L110.69 0.10L110.69 4.21Q111.04 3.76 111.42 3.22Q111.81 2.67 112.15 2.13Q112.50 1.58 112.78 1.06Q113.07 0.53 113.26 0.10L113.26 0.10L115.49 0.10Q115.26 0.53 114.95 1.08Q114.64 1.63 114.24 2.23Q113.84 2.83 113.38 3.46Q112.93 4.08 112.43 4.66L112.43 4.66Q112.93 5.14 113.44 5.76Q113.95 6.38 114.41 7.10Q114.86 7.81 115.23 8.55Q115.60 9.30 115.82 10L115.82 10ZM131.86 10L129.74 10L129.28 7.71L126.64 7.71L126.19 10L124.14 10Q124.85 7.07 125.57 4.66Q126.29 2.26 126.96 0.10L126.96 0.10L129.10 0.10Q129.81 2.27 130.50 4.71Q131.20 7.15 131.86 10L131.86 10ZM127.98 2.02L127.98 2.02Q127.82 2.58 127.69 3.08Q127.55 3.58 127.43 4.07Q127.31 4.56 127.21 5.06Q127.10 5.55 127.01 6.08L127.01 6.08L128.94 6.08Q128.85 5.55 128.75 5.06Q128.66 4.56 128.54 4.07Q128.42 3.58 128.28 3.08Q128.14 2.58 127.98 2.02ZM135.65 8.51L135.65 8.51Q136.37 8.51 136.75 8.41Q137.14 8.30 137.14 7.98L137.14 7.98Q137.14 7.78 137.02 7.63Q136.90 7.49 136.68 7.38Q136.46 7.28 136.18 7.18Q135.90 7.09 135.60 6.99L135.60 6.99Q135.17 6.86 134.72 6.70Q134.27 6.53 133.90 6.27Q133.54 6.02 133.30 5.62Q133.06 5.23 133.06 4.64L133.06 4.64Q133.06 4.16 133.24 3.74Q133.42 3.31 133.82 2.98Q134.21 2.66 134.82 2.47Q135.42 2.29 136.27 2.29L136.27 2.29Q137.01 2.29 137.64 2.40Q138.27 2.51 138.74 2.72L138.74 2.72L138.43 4.38Q138.16 4.30 137.58 4.12Q137.01 3.94 136.29 3.94L136.29 3.94Q135.54 3.94 135.27 4.12Q135.01 4.30 135.01 4.51L135.01 4.51Q135.01 4.69 135.13 4.82Q135.25 4.96 135.45 5.07Q135.65 5.18 135.91 5.29Q136.18 5.39 136.48 5.49L136.48 5.49Q136.91 5.63 137.38 5.81Q137.84 5.98 138.22 6.25Q138.59 6.51 138.83 6.92Q139.07 7.33 139.07 7.92L139.07 7.92Q139.07 8.38 138.90 8.80Q138.72 9.22 138.31 9.52Q137.90 9.82 137.25 10Q136.59 10.18 135.63 10.18L135.63 10.18Q134.66 10.18 133.97 9.95Q133.28 9.73 132.86 9.55L132.86 9.55L133.17 7.90Q133.73 8.13 134.36 8.32Q134.99 8.51 135.65 8.51ZM143.65 8.51L143.65 8.51Q144.37 8.51 144.75 8.41Q145.14 8.30 145.14 7.98L145.14 7.98Q145.14 7.78 145.02 7.63Q144.90 7.49 144.68 7.38Q144.46 7.28 144.18 7.18Q143.90 7.09 143.60 6.99L143.60 6.99Q143.17 6.86 142.72 6.70Q142.27 6.53 141.90 6.27Q141.54 6.02 141.30 5.62Q141.06 5.23 141.06 4.64L141.06 4.64Q141.06 4.16 141.24 3.74Q141.42 3.31 141.82 2.98Q142.21 2.66 142.82 2.47Q143.42 2.29 144.27 2.29L144.27 2.29Q145.01 2.29 145.64 2.40Q146.27 2.51 146.74 2.72L146.74 2.72L146.43 4.38Q146.16 4.30 145.58 4.12Q145.01 3.94 144.29 3.94L144.29 3.94Q143.54 3.94 143.27 4.12Q143.01 4.30 143.01 4.51L143.01 4.51Q143.01 4.69 143.13 4.82Q143.25 4.96 143.45 5.07Q143.65 5.18 143.91 5.29Q144.18 5.39 144.48 5.49L144.48 5.49Q144.91 5.63 145.38 5.81Q145.84 5.98 146.22 6.25Q146.59 6.51 146.83 6.92Q147.07 7.33 147.07 7.92L147.07 7.92Q147.07 8.38 146.90 8.80Q146.72 9.22 146.31 9.52Q145.90 9.82 145.25 10Q144.59 10.18 143.63 10.18L143.63 10.18Q142.66 10.18 141.97 9.95Q141.28 9.73 140.86 9.55L140.86 9.55L141.17 7.90Q141.73 8.13 142.36 8.32Q142.99 8.51 143.65 8.51ZM148.50 6.30L148.50 6.30Q148.50 5.31 148.80 4.56Q149.10 3.81 149.60 3.30Q150.10 2.80 150.74 2.54Q151.38 2.29 152.05 2.29L152.05 2.29Q153.71 2.29 154.58 3.27Q155.44 4.26 155.44 6.14L155.44 6.14Q155.44 6.34 155.43 6.54Q155.42 6.75 155.41 6.88L155.41 6.88L150.53 6.88Q150.53 7.62 151.14 8.04Q151.74 8.46 152.70 8.46L152.70 8.46Q153.30 8.46 153.83 8.34Q154.37 8.21 154.74 8.08L154.74 8.08L155.01 9.76Q154.50 9.94 153.92 10.06Q153.34 10.18 152.62 10.18L152.62 10.18Q151.66 10.18 150.90 9.93Q150.14 9.68 149.61 9.19Q149.07 8.70 148.78 7.98Q148.50 7.26 148.50 6.30ZM150.53 5.52L153.54 5.52Q153.54 5.22 153.46 4.94Q153.38 4.66 153.20 4.43Q153.02 4.21 152.75 4.07Q152.48 3.94 152.08 3.94L152.08 3.94Q151.70 3.94 151.42 4.06Q151.14 4.19 150.95 4.42Q150.77 4.64 150.66 4.93Q150.56 5.22 150.53 5.52L150.53 5.52ZM161.49 2.40L161.49 2.40Q162.11 2.40 162.51 2.59Q162.91 2.78 163.14 3.17Q163.38 3.55 163.46 4.14Q163.54 4.72 163.54 5.50L163.54 5.50L163.54 10L161.94 10L161.94 5.41Q161.94 4.96 161.88 4.69Q161.82 4.42 161.74 4.27Q161.65 4.13 161.53 4.08Q161.41 4.03 161.28 4.03L161.28 4.03Q161.14 4.03 160.98 4.06Q160.82 4.08 160.69 4.14L160.69 4.14Q160.74 4.45 160.77 4.82Q160.80 5.18 160.80 5.63L160.80 5.63L160.80 7.14L159.20 7.14L159.20 5.41Q159.20 4.64 159.05 4.34Q158.90 4.03 158.56 4.03L158.56 4.03Q158.46 4.03 158.33 4.05Q158.19 4.06 158.06 4.10L158.06 4.10L158.06 10L156.46 10L156.46 2.77Q157.09 2.59 157.70 2.50Q158.30 2.40 158.77 2.40L158.77 2.40Q159.18 2.40 159.51 2.50Q159.84 2.61 160.08 2.85L160.08 2.85Q160.35 2.67 160.72 2.54Q161.09 2.40 161.49 2.40ZM169.52 6.19L169.52 6.19Q169.52 5.14 169.18 4.58Q168.83 4.02 168.13 4.02L168.13 4.02Q167.81 4.02 167.50 4.10Q167.18 4.19 166.96 4.32L166.96 4.32L166.96 8.40Q167.18 8.45 167.43 8.46Q167.68 8.48 167.86 8.48L167.86 8.48Q168.62 8.48 169.07 7.96Q169.52 7.44 169.52 6.19ZM171.52 6.24L171.52 6.24Q171.52 7.14 171.28 7.86Q171.04 8.59 170.58 9.10Q170.11 9.62 169.44 9.90Q168.77 10.18 167.90 10.18L167.90 10.18Q167.14 10.18 166.34 10.06Q165.54 9.95 164.99 9.78L164.99 9.78L164.99-0.77L166.96-1.10L166.96 2.66Q167.38 2.46 167.76 2.39Q168.14 2.32 168.53 2.32L168.53 2.32Q169.26 2.32 169.82 2.60Q170.38 2.88 170.76 3.40Q171.14 3.92 171.33 4.64Q171.52 5.36 171.52 6.24ZM179.22 8.10L179.47 9.68Q179.42 9.71 179.26 9.79Q179.09 9.87 178.82 9.96Q178.54 10.05 178.15 10.11Q177.76 10.18 177.26 10.18L177.26 10.18Q175.90 10.18 175.28 9.37Q174.66 8.56 174.66 7.01L174.66 7.01L174.66 0.62L172.58 0.62L172.58-1.01L176.62-1.01L176.62 7.15Q176.62 7.92 176.93 8.19Q177.23 8.46 177.70 8.46L177.70 8.46Q178.29 8.46 178.69 8.30Q179.09 8.14 179.22 8.10L179.22 8.10ZM185.54 2.48L187.55 2.48Q187.25 3.54 186.97 4.55Q186.69 5.57 186.38 6.54Q186.08 7.50 185.74 8.43Q185.39 9.36 184.99 10.24L184.99 10.24Q184.69 10.88 184.39 11.34Q184.10 11.81 183.74 12.10Q183.38 12.40 182.94 12.54Q182.50 12.69 181.90 12.69L181.90 12.69Q181.41 12.69 181 12.61Q180.59 12.53 180.32 12.40L180.32 12.40L180.69 10.75Q181.01 10.90 181.26 10.95Q181.50 11.01 181.79 11.01L181.79 11.01Q182.37 11.01 182.72 10.62Q183.07 10.24 183.28 9.71L183.28 9.71Q182.58 8.30 181.87 6.49Q181.17 4.67 180.59 2.48L180.59 2.48L182.64 2.48Q182.78 3.07 182.97 3.74Q183.15 4.42 183.36 5.09Q183.57 5.76 183.80 6.41Q184.03 7.06 184.27 7.62L184.27 7.62Q184.43 7.06 184.61 6.41Q184.78 5.76 184.94 5.10Q185.10 4.43 185.26 3.76Q185.41 3.09 185.54 2.48L185.54 2.48Z"/></g></svg>