<?xml version="1.0" encoding="UTF-8"?>
<svg height="34" width="78.4" version="1.1" xmlns="http://www.w3.org/2000/svg">
    <rect
        height="32"
        width="76.4"
        rx="1"
        ry="1"
        x="1"
        y="1"
        fill="#adb2cb"
        stroke="#444a6a"
        stroke-width="1"
         />
    <g transform="translate(0, 14)">
        <path fill="#444a6a" d="M18.76 11L15.21 11Q14.54 9.07 13.78 6.63Q13.02 4.20 12.35 1.77Q11.68-0.65 11.15-2.80Q10.62-4.96 10.36-6.33L10.36-6.33L14.00-6.33Q14.17-4.99 14.51-3.21Q14.84-1.43 15.25 0.46Q15.66 2.35 16.12 4.18Q16.58 6.02 17.03 7.47L17.03 7.47Q17.48 6.04 17.92 4.21Q18.37 2.38 18.76 0.49Q19.16-1.40 19.49-3.20Q19.83-4.99 20.05-6.33L20.05-6.33L23.66-6.33Q23.33-4.65 22.84-2.58Q22.35-0.51 21.72 1.77Q21.09 4.06 20.33 6.42Q19.58 8.79 18.76 11L18.76 11ZM33.30-6.33L36.74-6.33L36.74 11L33.30 11L33.30 3.36L28.70 3.36L28.70 11L25.26 11L25.26-6.33L28.70-6.33L28.70 0.50L33.30 0.50L33.30-6.33ZM42.96-3.45L42.96 8.20Q43.10 8.23 43.26 8.23Q43.43 8.23 43.57 8.23L43.57 8.23Q44.75 8.23 45.55 7.78Q46.34 7.33 46.83 6.55Q47.32 5.76 47.53 4.69Q47.74 3.61 47.74 2.32L47.74 2.32Q47.74 1.20 47.58 0.14Q47.41-0.93 46.99-1.74Q46.57-2.55 45.84-3.04Q45.11-3.53 43.96-3.53L43.96-3.53Q43.74-3.53 43.46-3.52Q43.18-3.50 42.96-3.45L42.96-3.45ZM51.24 2.32L51.24 2.32Q51.24 4.73 50.64 6.42Q50.04 8.12 48.98 9.18Q47.91 10.24 46.44 10.73Q44.97 11.22 43.21 11.22L43.21 11.22Q42.28 11.22 41.40 11.13Q40.52 11.03 39.51 10.80L39.51 10.80L39.51-6.11Q40.69-6.36 41.72-6.44Q42.76-6.53 43.66-6.53L43.66-6.53Q45.36-6.53 46.78-6.02Q48.19-5.52 49.17-4.44Q50.15-3.36 50.70-1.70Q51.24-0.03 51.24 2.32ZM64.88 8.14L64.88 11L53.99 11L53.99-6.33L57.46-6.33L57.46 8.14L64.88 8.14Z"/>
    </g>
</svg>