<?xml version="1.0" encoding="UTF-8"?>
<svg height="34" width="106.6" version="1.1" xmlns="http://www.w3.org/2000/svg">
    <rect
        height="32"
        width="104.6"
        rx="1"
        ry="1"
        x="1"
        y="1"
        fill="#ff7f7f"
        stroke="#b30000"
        stroke-width="1"
         />
    <g transform="translate(0, 14)">
        <path fill="#b30000" d="M15.99-6.53L15.99-6.53Q17.48-6.53 18.68-6.19Q19.88-5.86 20.75-5.16Q21.62-4.46 22.08-3.38Q22.54-2.30 22.54-0.84L22.54-0.84Q22.54 0.67 21.93 1.90Q21.31 3.13 19.88 3.78L19.88 3.78Q20.36 4.50 20.89 5.39Q21.42 6.27 21.93 7.23Q22.43 8.20 22.89 9.17Q23.36 10.13 23.69 11L23.69 11L20.08 11Q19.44 9.32 18.58 7.77Q17.73 6.21 16.75 4.62L16.75 4.62L14.96 4.62L14.96 11L11.51 11L11.51-6.08Q12.02-6.19 12.62-6.29Q13.22-6.39 13.84-6.43Q14.45-6.47 15.01-6.50Q15.57-6.53 15.99-6.53ZM19.04-0.87L19.04-0.87Q19.04-2.24 18.20-2.89Q17.36-3.53 15.99-3.53L15.99-3.53Q15.80-3.53 15.52-3.52Q15.24-3.50 14.96-3.45L14.96-3.45L14.96 1.76L15.71 1.76Q17.48 1.76 18.26 1.07Q19.04 0.39 19.04-0.87ZM24.87 4.53L24.87 4.53Q24.87 2.80 25.40 1.48Q25.93 0.16 26.80-0.72Q27.67-1.60 28.79-2.05Q29.91-2.50 31.08-2.50L31.08-2.50Q34.00-2.50 35.51-0.77Q37.02 0.95 37.02 4.25L37.02 4.25Q37.02 4.59 37.01 4.95Q36.99 5.32 36.96 5.54L36.96 5.54L28.42 5.54Q28.42 6.83 29.49 7.57Q30.55 8.31 32.23 8.31L32.23 8.31Q33.27 8.31 34.21 8.09Q35.14 7.86 35.79 7.64L35.79 7.64L36.26 10.58Q35.37 10.89 34.36 11.10Q33.35 11.31 32.09 11.31L32.09 11.31Q30.41 11.31 29.08 10.87Q27.75 10.44 26.81 9.59Q25.88 8.73 25.37 7.47Q24.87 6.21 24.87 4.53ZM28.42 3.16L33.69 3.16Q33.69 2.63 33.55 2.14Q33.41 1.65 33.10 1.26Q32.79 0.86 32.32 0.63Q31.84 0.39 31.14 0.39L31.14 0.39Q30.47 0.39 29.98 0.61Q29.49 0.84 29.17 1.23Q28.84 1.62 28.66 2.12Q28.48 2.63 28.42 3.16L28.42 3.16ZM39.76 11L39.76-1.74Q40.69-1.99 42.05-2.22Q43.40-2.44 45-2.44L45-2.44Q46.57-2.44 47.60-2.01Q48.64-1.57 49.24-0.77Q49.84 0.02 50.10 1.13Q50.35 2.24 50.35 3.58L50.35 3.58L50.35 11L46.90 11L46.90 4.03Q46.90 2.18 46.48 1.37Q46.06 0.56 44.78 0.56L44.78 0.56Q44.38 0.56 44.01 0.58Q43.63 0.61 43.21 0.67L43.21 0.67L43.21 11L39.76 11ZM57.21-8.01L60.88-8.01L60.88-6.16Q60.88-5.46 60.81-4.64Q60.74-3.81 60.61-2.94Q60.48-2.08 60.34-1.22Q60.20-0.37 60.06 0.36L60.06 0.36L58.05 0.36Q57.91-0.37 57.77-1.22Q57.63-2.08 57.50-2.94Q57.38-3.81 57.29-4.64Q57.21-5.46 57.21-6.16L57.21-6.16L57.21-8.01ZM72.27-6.53L72.27-6.53Q75.58-6.53 77.40-5.17Q79.22-3.81 79.22-0.73L79.22-0.73Q79.22 2.38 77.38 3.76Q75.55 5.15 72.19 5.15L72.19 5.15L70.96 5.15L70.96 11L67.51 11L67.51-6.11Q68.02-6.22 68.65-6.30Q69.28-6.39 69.92-6.43Q70.56-6.47 71.18-6.50Q71.80-6.53 72.27-6.53ZM72.66-3.53L72.66-3.53Q72.36-3.53 71.81-3.52Q71.26-3.50 70.96-3.45L70.96-3.45L70.96 2.15L72.36 2.15Q74.01 2.15 74.85 1.49Q75.69 0.84 75.69-0.76L75.69-0.76Q75.69-2.27 74.86-2.90Q74.04-3.53 72.66-3.53ZM89.69-2.16L93.22-2.16Q92.68-0.31 92.19 1.47Q91.70 3.24 91.17 4.94Q90.64 6.63 90.04 8.26Q89.44 9.88 88.74 11.42L88.74 11.42Q88.20 12.54 87.69 13.35Q87.17 14.16 86.54 14.68Q85.91 15.20 85.14 15.45Q84.37 15.70 83.33 15.70L83.33 15.70Q82.46 15.70 81.75 15.56Q81.04 15.42 80.56 15.20L80.56 15.20L81.20 12.32Q81.76 12.57 82.20 12.67Q82.63 12.76 83.14 12.76L83.14 12.76Q84.14 12.76 84.76 12.09Q85.38 11.42 85.74 10.50L85.74 10.50Q84.51 8.03 83.28 4.85Q82.04 1.68 81.04-2.16L81.04-2.16L84.62-2.16Q84.87-1.12 85.19 0.05Q85.52 1.23 85.88 2.40Q86.24 3.58 86.65 4.71Q87.06 5.85 87.48 6.83L87.48 6.83Q87.76 5.85 88.06 4.71Q88.37 3.58 88.65 2.42Q88.93 1.26 89.20 0.08Q89.46-1.10 89.69-2.16L89.69-2.16Z"/>
    </g>
</svg>