<?xml version="1.0" encoding="UTF-8"?>
<svg height="34" width="106.6" version="1.1" xmlns="http://www.w3.org/2000/svg">
    <rect
        height="32"
        width="104.6"
        rx="1"
        ry="1"
        x="1"
        y="1"
        fill="#0c344b"
        stroke="#228fce"
        stroke-width="1"
         />
    <g transform="translate(0, 14)">
        <path fill="#228fce" d="M16.27-6.53L16.27-6.53Q19.58-6.53 21.40-5.17Q23.22-3.81 23.22-0.73L23.22-0.73Q23.22 2.38 21.38 3.76Q19.55 5.15 16.19 5.15L16.19 5.15L14.96 5.15L14.96 11L11.51 11L11.51-6.11Q12.02-6.22 12.65-6.30Q13.28-6.39 13.92-6.43Q14.56-6.47 15.18-6.50Q15.80-6.53 16.27-6.53ZM16.66-3.53L16.66-3.53Q16.36-3.53 15.81-3.52Q15.26-3.50 14.96-3.45L14.96-3.45L14.96 2.15L16.36 2.15Q18.01 2.15 18.85 1.49Q19.69 0.84 19.69-0.76L19.69-0.76Q19.69-2.27 18.86-2.90Q18.04-3.53 16.66-3.53ZM36.85-1.85L36.24 1.34Q35.90 1.26 35.44 1.17Q34.98 1.09 34.50 1.02Q34.02 0.95 33.58 0.92Q33.13 0.89 32.82 0.89L32.82 0.89Q32.09 0.89 31.39 0.96Q30.69 1.03 29.96 1.23L29.96 1.23L29.96 11L26.49 11L26.49-1.29Q27.86-1.80 29.31-2.10Q30.75-2.41 32.68-2.41L32.68-2.41Q32.96-2.41 33.48-2.38Q34.00-2.36 34.58-2.29Q35.17-2.22 35.77-2.12Q36.38-2.02 36.85-1.85L36.85-1.85ZM45.95-5.94L45.95-5.94Q45.95-4.93 45.31-4.34Q44.66-3.76 43.77-3.76L43.77-3.76Q42.87-3.76 42.24-4.34Q41.61-4.93 41.61-5.94L41.61-5.94Q41.61-6.98 42.24-7.56Q42.87-8.15 43.77-8.15L43.77-8.15Q44.66-8.15 45.31-7.56Q45.95-6.98 45.95-5.94ZM50.63 7.67L51.08 10.44Q50.01 10.94 49.07 11.13Q48.14 11.31 47.35 11.31L47.35 11.31Q46.01 11.31 45.10 10.92Q44.19 10.52 43.64 9.78Q43.10 9.04 42.87 7.98Q42.65 6.91 42.65 5.54L42.65 5.54L42.65 0.70L39.01 0.70L39.01-2.16L46.09-2.16L46.09 5.99Q46.09 7.16 46.53 7.74Q46.96 8.31 47.97 8.31L47.97 8.31Q48.44 8.31 49.12 8.19Q49.79 8.06 50.63 7.67L50.63 7.67ZM58.38 8.40L58.38 8.40Q59.64 8.40 60.32 8.21Q60.99 8.03 60.99 7.47L60.99 7.47Q60.99 7.11 60.78 6.86Q60.57 6.60 60.19 6.42Q59.81 6.24 59.32 6.07Q58.83 5.90 58.30 5.74L58.30 5.74Q57.54 5.51 56.76 5.22Q55.98 4.92 55.33 4.48Q54.69 4.03 54.27 3.34Q53.85 2.66 53.85 1.62L53.85 1.62Q53.85 0.78 54.17 0.04Q54.49-0.70 55.18-1.28Q55.86-1.85 56.93-2.17Q57.99-2.50 59.48-2.50L59.48-2.50Q60.76-2.50 61.87-2.30Q62.98-2.10 63.79-1.74L63.79-1.74L63.26 1.17Q62.78 1.03 61.77 0.71Q60.76 0.39 59.50 0.39L59.50 0.39Q58.19 0.39 57.73 0.71Q57.26 1.03 57.26 1.40L57.26 1.40Q57.26 1.70 57.47 1.94Q57.68 2.18 58.03 2.38Q58.38 2.57 58.85 2.75Q59.31 2.94 59.84 3.10L59.84 3.10Q60.60 3.36 61.41 3.66Q62.22 3.97 62.88 4.43Q63.54 4.90 63.96 5.61Q64.38 6.32 64.38 7.36L64.38 7.36Q64.38 8.17 64.07 8.90Q63.76 9.63 63.05 10.16Q62.33 10.69 61.18 11Q60.04 11.31 58.36 11.31L58.36 11.31Q56.65 11.31 55.44 10.92Q54.24 10.52 53.51 10.22L53.51 10.22L54.04 7.33Q55.02 7.72 56.13 8.06Q57.24 8.40 58.38 8.40ZM75.60-2.30L75.60-2.30Q76.70-2.30 77.40-1.96Q78.10-1.63 78.50-0.96Q78.91-0.28 79.05 0.74Q79.19 1.76 79.19 3.13L79.19 3.13L79.19 11L76.39 11L76.39 2.96Q76.39 2.18 76.29 1.70Q76.19 1.23 76.04 0.98Q75.88 0.72 75.67 0.64Q75.46 0.56 75.24 0.56L75.24 0.56Q74.99 0.56 74.71 0.60Q74.43 0.64 74.20 0.75L74.20 0.75Q74.29 1.28 74.34 1.93Q74.40 2.57 74.40 3.36L74.40 3.36L74.40 5.99L71.60 5.99L71.60 2.96Q71.60 1.62 71.33 1.09Q71.07 0.56 70.48 0.56L70.48 0.56Q70.31 0.56 70.07 0.58Q69.84 0.61 69.61 0.67L69.61 0.67L69.61 11L66.81 11L66.81-1.66Q67.90-1.96 68.97-2.13Q70.03-2.30 70.84-2.30L70.84-2.30Q71.57-2.30 72.15-2.12Q72.72-1.94 73.14-1.52L73.14-1.52Q73.62-1.82 74.26-2.06Q74.90-2.30 75.60-2.30ZM87.03 8.54L87.03 8.54Q87.59 8.54 88.12 8.52Q88.65 8.51 89.04 8.45L89.04 8.45L89.04 5.43Q88.71 5.37 88.23 5.33Q87.76 5.29 87.36 5.29L87.36 5.29Q86.83 5.29 86.33 5.36Q85.82 5.43 85.45 5.60Q85.07 5.76 84.84 6.07Q84.62 6.38 84.62 6.88L84.62 6.88Q84.62 7.78 85.29 8.16Q85.96 8.54 87.03 8.54ZM86.72-2.50L86.72-2.50Q88.34-2.50 89.42-2.12Q90.50-1.74 91.14-1.05Q91.79-0.37 92.07 0.63Q92.35 1.62 92.35 2.85L92.35 2.85L92.35 10.69Q91.59 10.86 90.11 11.08Q88.62 11.31 86.78 11.31L86.78 11.31Q85.52 11.31 84.49 11.08Q83.47 10.86 82.74 10.34Q82.02 9.82 81.62 9.00Q81.23 8.17 81.23 6.97L81.23 6.97Q81.23 5.82 81.68 5.04Q82.13 4.25 82.88 3.78Q83.64 3.30 84.62 3.09Q85.60 2.88 86.66 2.88L86.66 2.88Q88.01 2.88 89.04 3.10L89.04 3.10L89.04 2.68Q89.04 1.70 88.43 1.05Q87.81 0.39 86.30 0.39L86.30 0.39Q85.32 0.39 84.41 0.53Q83.50 0.67 82.94 0.86L82.94 0.86L82.46-1.91Q83.11-2.13 84.28-2.31Q85.46-2.50 86.72-2.50Z"/>
    </g>
</svg>