<?xml version="1.0" encoding="UTF-8"?>
<svg height="322" width="126.7" version="1.1" xmlns="http://www.w3.org/2000/svg"><!--Created by Josélio de S. C. Júnior - 2021 - https://github.com/joseliojunior -->
    <rect
        height="32"
        width="124.7"
        rx="16"
        ry="16"
        x="1" y="1"
        fill="#87AED7"
        stroke="#25496f"
        stroke-width="1" />
    <g transform="translate(0, 12)">
        <path fill="#25496f" stroke="none" d="M30.90 12L28.52 12Q27.51 9.53 26.32 7.07Q25.14 4.61 23.77 2.14L23.77 2.14L23.77 12L21.10 12L21.10-2.86L23.48-2.86Q24.15-1.80 24.82-0.56Q25.50 0.67 26.13 1.90Q26.77 3.12 27.31 4.27Q27.85 5.42 28.23 6.29L28.23 6.29L28.23-2.86L30.90-2.86L30.90 12ZM32.74 6.46L32.74 6.46Q32.74 4.97 33.20 3.84Q33.66 2.71 34.40 1.96Q35.14 1.20 36.10 0.82Q37.06 0.43 38.07 0.43L38.07 0.43Q40.57 0.43 41.86 1.91Q43.16 3.38 43.16 6.22L43.16 6.22Q43.16 6.50 43.15 6.82Q43.14 7.13 43.11 7.32L43.11 7.32L35.79 7.32Q35.79 8.42 36.70 9.06Q37.62 9.70 39.06 9.70L39.06 9.70Q39.94 9.70 40.75 9.50Q41.55 9.31 42.10 9.12L42.10 9.12L42.51 11.64Q41.74 11.90 40.88 12.08Q40.02 12.26 38.94 12.26L38.94 12.26Q37.50 12.26 36.36 11.89Q35.22 11.52 34.41 10.79Q33.61 10.06 33.18 8.98Q32.74 7.90 32.74 6.46ZM35.79 5.28L40.30 5.28Q40.30 4.82 40.18 4.40Q40.06 3.98 39.80 3.65Q39.54 3.31 39.13 3.11Q38.72 2.90 38.12 2.90L38.12 2.90Q37.54 2.90 37.12 3.10Q36.70 3.29 36.43 3.62Q36.15 3.96 36.00 4.39Q35.84 4.82 35.79 5.28L35.79 5.28ZM53.96 12L51.73 12Q51.46 11.26 51.24 10.63Q51.01 10.01 50.80 9.42Q50.60 8.83 50.40 8.20Q50.19 7.56 49.98 6.79L49.98 6.79Q49.74 7.56 49.54 8.17Q49.35 8.78 49.15 9.38Q48.94 9.98 48.73 10.61Q48.51 11.23 48.20 12L48.20 12L45.97 12Q45.68 10.94 45.43 9.66Q45.18 8.38 44.96 6.92Q44.74 5.47 44.58 3.91Q44.41 2.35 44.26 0.72L44.26 0.72L46.78 0.72Q46.88 2.81 46.99 4.80Q47.10 6.79 47.38 8.90L47.38 8.90Q47.70 7.99 47.92 7.21Q48.15 6.43 48.33 5.72Q48.51 5.02 48.67 4.36Q48.82 3.70 48.99 3L48.99 3L51.13 3Q51.27 3.70 51.43 4.36Q51.58 5.02 51.76 5.72Q51.94 6.43 52.15 7.21Q52.35 7.99 52.64 8.90L52.64 8.90Q52.78 7.80 52.88 6.79Q52.98 5.78 53.04 4.79Q53.10 3.79 53.13 2.80Q53.17 1.80 53.22 0.72L53.22 0.72L55.74 0.72Q55.47 4.01 55.00 6.91Q54.54 9.82 53.96 12L53.96 12ZM67.04 9.55L67.04 12L57.70 12L57.70-2.86L60.68-2.86L60.68 9.55L67.04 9.55ZM74.82-2.52L74.82-2.52Q74.82-1.66 74.26-1.15Q73.71-0.65 72.94-0.65L72.94-0.65Q72.18-0.65 71.64-1.15Q71.10-1.66 71.10-2.52L71.10-2.52Q71.10-3.41 71.64-3.91Q72.18-4.42 72.94-4.42L72.94-4.42Q73.71-4.42 74.26-3.91Q74.82-3.41 74.82-2.52ZM78.82 9.14L79.21 11.52Q78.30 11.95 77.49 12.11Q76.69 12.26 76.02 12.26L76.02 12.26Q74.86 12.26 74.08 11.93Q73.30 11.59 72.84 10.96Q72.37 10.32 72.18 9.41Q71.98 8.50 71.98 7.32L71.98 7.32L71.98 3.17L68.86 3.17L68.86 0.72L74.94 0.72L74.94 7.70Q74.94 8.71 75.31 9.20Q75.68 9.70 76.54 9.70L76.54 9.70Q76.95 9.70 77.53 9.59Q78.10 9.48 78.82 9.14L78.82 9.14ZM85.47 9.77L85.47 9.77Q86.55 9.77 87.13 9.61Q87.70 9.46 87.70 8.98L87.70 8.98Q87.70 8.66 87.52 8.45Q87.34 8.23 87.02 8.08Q86.70 7.92 86.28 7.78Q85.86 7.63 85.40 7.49L85.40 7.49Q84.75 7.30 84.08 7.04Q83.41 6.79 82.86 6.41Q82.30 6.02 81.94 5.44Q81.58 4.85 81.58 3.96L81.58 3.96Q81.58 3.24 81.86 2.60Q82.14 1.97 82.72 1.48Q83.31 0.98 84.22 0.71Q85.14 0.43 86.41 0.43L86.41 0.43Q87.51 0.43 88.46 0.60Q89.41 0.77 90.10 1.08L90.10 1.08L89.65 3.58Q89.24 3.46 88.38 3.18Q87.51 2.90 86.43 2.90L86.43 2.90Q85.30 2.90 84.91 3.18Q84.51 3.46 84.51 3.77L84.51 3.77Q84.51 4.03 84.69 4.24Q84.87 4.44 85.17 4.61Q85.47 4.78 85.87 4.93Q86.26 5.09 86.72 5.23L86.72 5.23Q87.37 5.45 88.06 5.71Q88.76 5.98 89.32 6.37Q89.89 6.77 90.25 7.38Q90.61 7.99 90.61 8.88L90.61 8.88Q90.61 9.58 90.34 10.20Q90.08 10.82 89.47 11.28Q88.86 11.74 87.87 12Q86.89 12.26 85.45 12.26L85.45 12.26Q83.98 12.26 82.95 11.93Q81.92 11.59 81.30 11.33L81.30 11.33L81.75 8.86Q82.59 9.19 83.54 9.48Q84.49 9.77 85.47 9.77ZM100.26 6.46L100.26 6.46Q100.26 4.94 99.66 3.97Q99.06 3 97.83 3L97.83 3Q97.50 3 97.11 3.04Q96.73 3.07 96.46 3.10L96.46 3.10L96.46 9.29Q96.75 9.48 97.23 9.60Q97.71 9.72 98.19 9.72L98.19 9.72Q99.25 9.72 99.75 8.87Q100.26 8.02 100.26 6.46ZM103.26 6.36L103.26 6.36Q103.26 7.66 102.97 8.75Q102.68 9.84 102.13 10.62Q101.58 11.40 100.74 11.83Q99.90 12.26 98.79 12.26L98.79 12.26Q97.66 12.26 96.46 11.71L96.46 11.71L96.46 15.96L93.51 15.96L93.51 1.08Q94.33 0.82 95.52 0.65Q96.70 0.48 97.86 0.48L97.86 0.48Q100.47 0.48 101.86 2.06Q103.26 3.65 103.26 6.36Z"/>
    </g>
</svg>