<?xml version="1.0" encoding="UTF-8"?>
<svg height="26" width="98.69999999999999" version="1.1" xmlns="http://www.w3.org/2000/svg"><!--Created by Josélio de S. C. Júnior - 2021 - https://github.com/joseliojunior -->
    <rect
        height="24"
        width="96.69999999999999"
        rx="1"
        ry="1"
        x="1" y="1"
        fill="#87AED7"
        stroke="#25496f"
        stroke-width="1" />
    <g transform="translate(0, 8)">
        <path fill="#25496f" d="M27.26 10L25.68 10Q25.01 8.35 24.22 6.71Q23.42 5.07 22.51 3.42L22.51 3.42L22.51 10L20.74 10L20.74 0.10L22.32 0.10Q22.77 0.80 23.22 1.62Q23.66 2.45 24.09 3.26Q24.51 4.08 24.87 4.85Q25.23 5.62 25.49 6.19L25.49 6.19L25.49 0.10L27.26 0.10L27.26 10ZM28.50 6.30L28.50 6.30Q28.50 5.31 28.80 4.56Q29.10 3.81 29.60 3.30Q30.10 2.80 30.74 2.54Q31.38 2.29 32.05 2.29L32.05 2.29Q33.71 2.29 34.58 3.27Q35.44 4.26 35.44 6.14L35.44 6.14Q35.44 6.34 35.43 6.54Q35.42 6.75 35.41 6.88L35.41 6.88L30.53 6.88Q30.53 7.62 31.14 8.04Q31.74 8.46 32.70 8.46L32.70 8.46Q33.30 8.46 33.83 8.34Q34.37 8.21 34.74 8.08L34.74 8.08L35.01 9.76Q34.50 9.94 33.92 10.06Q33.34 10.18 32.62 10.18L32.62 10.18Q31.66 10.18 30.90 9.93Q30.14 9.68 29.61 9.19Q29.07 8.70 28.78 7.98Q28.50 7.26 28.50 6.30ZM30.53 5.52L33.54 5.52Q33.54 5.22 33.46 4.94Q33.38 4.66 33.20 4.43Q33.02 4.21 32.75 4.07Q32.48 3.94 32.08 3.94L32.08 3.94Q31.70 3.94 31.42 4.06Q31.14 4.19 30.95 4.42Q30.77 4.64 30.66 4.93Q30.56 5.22 30.53 5.52L30.53 5.52ZM42.64 10L41.15 10Q40.98 9.50 40.82 9.09Q40.67 8.67 40.54 8.28Q40.40 7.89 40.26 7.46Q40.13 7.04 39.98 6.53L39.98 6.53Q39.82 7.04 39.70 7.45Q39.57 7.86 39.43 8.26Q39.30 8.66 39.15 9.07Q39.01 9.49 38.80 10L38.80 10L37.31 10Q37.12 9.30 36.95 8.44Q36.78 7.58 36.64 6.62Q36.50 5.65 36.38 4.61Q36.27 3.57 36.18 2.48L36.18 2.48L37.86 2.48Q37.92 3.87 37.99 5.20Q38.06 6.53 38.26 7.94L38.26 7.94Q38.46 7.33 38.62 6.81Q38.77 6.29 38.89 5.82Q39.01 5.34 39.11 4.90Q39.22 4.46 39.33 4L39.33 4L40.75 4Q40.85 4.46 40.95 4.90Q41.06 5.34 41.18 5.82Q41.30 6.29 41.43 6.81Q41.57 7.33 41.76 7.94L41.76 7.94Q41.86 7.20 41.92 6.53Q41.98 5.86 42.02 5.19Q42.06 4.53 42.09 3.86Q42.11 3.20 42.14 2.48L42.14 2.48L43.82 2.48Q43.65 4.67 43.34 6.61Q43.02 8.54 42.64 10L42.64 10ZM51.36 8.37L51.36 10L45.14 10L45.14 0.10L47.12 0.10L47.12 8.37L51.36 8.37ZM56.54 0.32L56.54 0.32Q56.54 0.90 56.18 1.23Q55.81 1.57 55.30 1.57L55.30 1.57Q54.78 1.57 54.42 1.23Q54.06 0.90 54.06 0.32L54.06 0.32Q54.06-0.27 54.42-0.61Q54.78-0.94 55.30-0.94L55.30-0.94Q55.81-0.94 56.18-0.61Q56.54-0.27 56.54 0.32ZM59.22 8.10L59.47 9.68Q58.86 9.97 58.33 10.07Q57.79 10.18 57.34 10.18L57.34 10.18Q56.58 10.18 56.06 9.95Q55.54 9.73 55.22 9.30Q54.91 8.88 54.78 8.27Q54.66 7.66 54.66 6.88L54.66 6.88L54.66 4.11L52.58 4.11L52.58 2.48L56.62 2.48L56.62 7.14Q56.62 7.81 56.87 8.14Q57.12 8.46 57.70 8.46L57.70 8.46Q57.97 8.46 58.35 8.39Q58.74 8.32 59.22 8.10L59.22 8.10ZM63.65 8.51L63.65 8.51Q64.37 8.51 64.75 8.41Q65.14 8.30 65.14 7.98L65.14 7.98Q65.14 7.78 65.02 7.63Q64.90 7.49 64.68 7.38Q64.46 7.28 64.18 7.18Q63.90 7.09 63.60 6.99L63.60 6.99Q63.17 6.86 62.72 6.70Q62.27 6.53 61.90 6.27Q61.54 6.02 61.30 5.62Q61.06 5.23 61.06 4.64L61.06 4.64Q61.06 4.16 61.24 3.74Q61.42 3.31 61.82 2.98Q62.21 2.66 62.82 2.47Q63.42 2.29 64.27 2.29L64.27 2.29Q65.01 2.29 65.64 2.40Q66.27 2.51 66.74 2.72L66.74 2.72L66.43 4.38Q66.16 4.30 65.58 4.12Q65.01 3.94 64.29 3.94L64.29 3.94Q63.54 3.94 63.27 4.12Q63.01 4.30 63.01 4.51L63.01 4.51Q63.01 4.69 63.13 4.82Q63.25 4.96 63.45 5.07Q63.65 5.18 63.91 5.29Q64.18 5.39 64.48 5.49L64.48 5.49Q64.91 5.63 65.38 5.81Q65.84 5.98 66.22 6.25Q66.59 6.51 66.83 6.92Q67.07 7.33 67.07 7.92L67.07 7.92Q67.07 8.38 66.90 8.80Q66.72 9.22 66.31 9.52Q65.90 9.82 65.25 10Q64.59 10.18 63.63 10.18L63.63 10.18Q62.66 10.18 61.97 9.95Q61.28 9.73 60.86 9.55L60.86 9.55L61.17 7.90Q61.73 8.13 62.36 8.32Q62.99 8.51 63.65 8.51ZM73.50 6.30L73.50 6.30Q73.50 5.30 73.10 4.65Q72.70 4 71.89 4L71.89 4Q71.66 4 71.41 4.02Q71.15 4.05 70.98 4.06L70.98 4.06L70.98 8.19Q71.17 8.32 71.49 8.40Q71.81 8.48 72.13 8.48L72.13 8.48Q72.83 8.48 73.17 7.91Q73.50 7.34 73.50 6.30ZM75.50 6.24L75.50 6.24Q75.50 7.10 75.31 7.83Q75.12 8.56 74.75 9.08Q74.38 9.60 73.82 9.89Q73.26 10.18 72.53 10.18L72.53 10.18Q71.78 10.18 70.98 9.81L70.98 9.81L70.98 12.64L69.01 12.64L69.01 2.72Q69.55 2.54 70.34 2.43Q71.14 2.32 71.90 2.32L71.90 2.32Q73.65 2.32 74.58 3.38Q75.50 4.43 75.50 6.24Z"/>
    </g>
</svg>