<?xml version="1.0" encoding="UTF-8"?>
<svg height="322" width="114.6" version="1.1" xmlns="http://www.w3.org/2000/svg"><!--Created by Josélio de S. C. Júnior - 2021 - https://github.com/joseliojunior -->
    <rect
        height="32"
        width="112.6"
        rx="16"
        ry="16"
        x="1" y="1"
        fill="#74283c"
        stroke="#cc6b85"
        stroke-width="1" />
    <g transform="translate(0, 12)">
        <path fill="#cc6b85" stroke="none" d="M25.38-3.02L25.38-3.02Q28.21-3.02 29.77-1.86Q31.33-0.70 31.33 1.94L31.33 1.94Q31.33 4.61 29.76 5.80Q28.18 6.98 25.30 6.98L25.30 6.98L24.25 6.98L24.25 12L21.30 12L21.30-2.66Q21.73-2.76 22.27-2.83Q22.81-2.90 23.36-2.94Q23.91-2.98 24.44-3Q24.97-3.02 25.38-3.02ZM25.71-0.46L25.71-0.46Q25.45-0.46 24.98-0.44Q24.51-0.43 24.25-0.38L24.25-0.38L24.25 4.42L25.45 4.42Q26.86 4.42 27.58 3.85Q28.30 3.29 28.30 1.92L28.30 1.92Q28.30 0.62 27.60 0.08Q26.89-0.46 25.71-0.46ZM43.02 0.98L42.49 3.72Q42.20 3.65 41.80 3.58Q41.41 3.50 41 3.44Q40.59 3.38 40.21 3.36Q39.82 3.34 39.56 3.34L39.56 3.34Q38.94 3.34 38.34 3.40Q37.74 3.46 37.11 3.62L37.11 3.62L37.11 12L34.14 12L34.14 1.46Q35.31 1.03 36.55 0.77Q37.78 0.50 39.44 0.50L39.44 0.50Q39.68 0.50 40.12 0.53Q40.57 0.55 41.07 0.61Q41.58 0.67 42.09 0.76Q42.61 0.84 43.02 0.98L43.02 0.98ZM55.33 6.34L55.33 6.34Q55.33 7.68 54.94 8.77Q54.56 9.86 53.86 10.66Q53.17 11.45 52.20 11.88Q51.22 12.31 50.02 12.31L50.02 12.31Q48.82 12.31 47.85 11.88Q46.88 11.45 46.17 10.66Q45.46 9.86 45.08 8.77Q44.70 7.68 44.70 6.34L44.70 6.34Q44.70 5.02 45.09 3.92Q45.49 2.83 46.20 2.05Q46.90 1.27 47.89 0.85Q48.87 0.43 50.02 0.43L50.02 0.43Q51.20 0.43 52.17 0.85Q53.14 1.27 53.85 2.05Q54.56 2.83 54.94 3.92Q55.33 5.02 55.33 6.34ZM47.70 6.36L47.70 6.36Q47.70 7.87 48.24 8.81Q48.78 9.74 49.98 9.74L49.98 9.74Q51.13 9.74 51.72 8.81Q52.30 7.87 52.30 6.36L52.30 6.36Q52.30 4.85 51.76 3.92Q51.22 3 50.02 3L50.02 3Q48.87 3 48.28 3.92Q47.70 4.85 47.70 6.36ZM66.82 9.14L67.21 11.52Q67.14 11.57 66.88 11.69Q66.63 11.81 66.22 11.94Q65.82 12.07 65.23 12.17Q64.64 12.26 63.90 12.26L63.90 12.26Q61.86 12.26 60.92 11.05Q59.98 9.84 59.98 7.51L59.98 7.51L59.98-2.06L56.86-2.06L56.86-4.51L62.94-4.51L62.94 7.73Q62.94 8.88 63.39 9.29Q63.85 9.70 64.54 9.70L64.54 9.70Q65.43 9.70 66.03 9.46Q66.63 9.22 66.82 9.14L66.82 9.14ZM79.33 6.34L79.33 6.34Q79.33 7.68 78.94 8.77Q78.56 9.86 77.86 10.66Q77.17 11.45 76.20 11.88Q75.22 12.31 74.02 12.31L74.02 12.31Q72.82 12.31 71.85 11.88Q70.88 11.45 70.17 10.66Q69.46 9.86 69.08 8.77Q68.70 7.68 68.70 6.34L68.70 6.34Q68.70 5.02 69.09 3.92Q69.49 2.83 70.20 2.05Q70.90 1.27 71.89 0.85Q72.87 0.43 74.02 0.43L74.02 0.43Q75.20 0.43 76.17 0.85Q77.14 1.27 77.85 2.05Q78.56 2.83 78.94 3.92Q79.33 5.02 79.33 6.34ZM71.70 6.36L71.70 6.36Q71.70 7.87 72.24 8.81Q72.78 9.74 73.98 9.74L73.98 9.74Q75.13 9.74 75.72 8.81Q76.30 7.87 76.30 6.36L76.30 6.36Q76.30 4.85 75.76 3.92Q75.22 3 74.02 3L74.02 3Q72.87 3 72.28 3.92Q71.70 4.85 71.70 6.36ZM83.79 6L83.79 6Q83.79 7.39 84.30 8.12Q84.80 8.86 85.88 8.86L85.88 8.86Q86.36 8.86 86.78 8.74Q87.20 8.62 87.54 8.42L87.54 8.42L87.54 3Q87.20 2.93 86.94 2.90Q86.67 2.88 86.38 2.88L86.38 2.88Q83.79 2.88 83.79 6ZM90.51 1.08L90.51 10.63Q90.51 13.39 89.18 14.71Q87.85 16.03 84.90 16.03L84.90 16.03Q83.84 16.03 82.87 15.82Q81.90 15.60 81.01 15.31L81.01 15.31L81.56 12.82Q82.26 13.08 83.02 13.31Q83.79 13.54 84.94 13.54L84.94 13.54Q85.71 13.54 86.22 13.36Q86.72 13.18 87.01 12.86Q87.30 12.55 87.42 12.13Q87.54 11.71 87.54 11.23L87.54 11.23L87.54 10.78Q86.91 11.02 86.40 11.14Q85.88 11.26 85.28 11.26L85.28 11.26Q83.07 11.26 81.93 9.86Q80.79 8.47 80.79 6L80.79 6Q80.79 3.22 82.33 1.85Q83.86 0.48 86.50 0.48L86.50 0.48Q88.35 0.48 90.51 1.08L90.51 1.08Z"/>
    </g>
</svg>