<?xml version="1.0" encoding="UTF-8"?>
<svg height="322" width="199.29999999999998" version="1.1" xmlns="http://www.w3.org/2000/svg"><!--Created by Josélio de S. C. Júnior - 2021 - https://github.com/joseliojunior -->
    <rect
        height="32"
        width="197.29999999999998"
        rx="16"
        ry="16"
        x="1" y="1"
        fill="#9400ff"
        stroke="#3b0066"
        stroke-width="1" />
    <g transform="translate(0, 12)">
        <path fill="#3b0066" stroke="none" d="M27.49-0.62L27.49-0.62Q26.43-0.62 25.71-0.24Q24.99 0.14 24.52 0.83Q24.06 1.51 23.85 2.46Q23.65 3.41 23.65 4.56L23.65 4.56Q23.65 7.22 24.49 8.48Q25.33 9.74 26.96 9.74L26.96 9.74Q27.22 9.74 27.54 9.72Q27.85 9.70 28.11 9.65L28.11 9.65L28.11 4.22L31.06 4.22L31.06 11.64Q30.54 11.83 29.42 12.07Q28.30 12.31 26.72 12.31L26.72 12.31Q25.33 12.31 24.21 11.82Q23.10 11.33 22.30 10.36Q21.51 9.38 21.08 7.93Q20.65 6.48 20.65 4.56L20.65 4.56Q20.65 2.66 21.15 1.21Q21.66-0.24 22.52-1.22Q23.38-2.21 24.56-2.70Q25.74-3.19 27.08-3.19L27.08-3.19Q27.94-3.19 28.63-3.06Q29.31-2.93 29.82-2.76Q30.32-2.59 30.64-2.40Q30.97-2.21 31.14-2.11L31.14-2.11L30.37 0.24Q29.84-0.10 29.07-0.36Q28.30-0.62 27.49-0.62ZM32.74 6.46L32.74 6.46Q32.74 4.97 33.20 3.84Q33.66 2.71 34.40 1.96Q35.14 1.20 36.10 0.82Q37.06 0.43 38.07 0.43L38.07 0.43Q40.57 0.43 41.86 1.91Q43.16 3.38 43.16 6.22L43.16 6.22Q43.16 6.50 43.15 6.82Q43.14 7.13 43.11 7.32L43.11 7.32L35.79 7.32Q35.79 8.42 36.70 9.06Q37.62 9.70 39.06 9.70L39.06 9.70Q39.94 9.70 40.75 9.50Q41.55 9.31 42.10 9.12L42.10 9.12L42.51 11.64Q41.74 11.90 40.88 12.08Q40.02 12.26 38.94 12.26L38.94 12.26Q37.50 12.26 36.36 11.89Q35.22 11.52 34.41 10.79Q33.61 10.06 33.18 8.98Q32.74 7.90 32.74 6.46ZM35.79 5.28L40.30 5.28Q40.30 4.82 40.18 4.40Q40.06 3.98 39.80 3.65Q39.54 3.31 39.13 3.11Q38.72 2.90 38.12 2.90L38.12 2.90Q37.54 2.90 37.12 3.10Q36.70 3.29 36.43 3.62Q36.15 3.96 36.00 4.39Q35.84 4.82 35.79 5.28L35.79 5.28ZM45.51 12L45.51 1.08Q46.30 0.86 47.47 0.67Q48.63 0.48 50 0.48L50 0.48Q51.34 0.48 52.23 0.85Q53.12 1.22 53.64 1.91Q54.15 2.59 54.37 3.54Q54.58 4.49 54.58 5.64L54.58 5.64L54.58 12L51.63 12L51.63 6.02Q51.63 4.44 51.27 3.74Q50.91 3.05 49.81 3.05L49.81 3.05Q49.47 3.05 49.15 3.07Q48.82 3.10 48.46 3.14L48.46 3.14L48.46 12L45.51 12ZM59.43 7.80L59.43 3.17L56.86 3.17L56.86 0.72L59.43 0.72L59.43-2.11L62.38-2.59L62.38 0.72L67.11 0.72L67.11 3.17L62.38 3.17L62.38 7.73Q62.38 8.35 62.50 8.74Q62.62 9.12 62.84 9.34Q63.06 9.55 63.37 9.62Q63.68 9.70 64.06 9.70L64.06 9.70Q64.47 9.70 64.82 9.67Q65.17 9.65 65.49 9.59Q65.82 9.53 66.16 9.41Q66.51 9.29 66.92 9.10L66.92 9.10L67.33 11.64Q66.51 11.98 65.56 12.12Q64.62 12.26 63.73 12.26L63.73 12.26Q62.70 12.26 61.90 12.10Q61.11 11.93 60.56 11.45Q60.01 10.97 59.72 10.09Q59.43 9.22 59.43 7.80L59.43 7.80ZM79.33 6.34L79.33 6.34Q79.33 7.68 78.94 8.77Q78.56 9.86 77.86 10.66Q77.17 11.45 76.20 11.88Q75.22 12.31 74.02 12.31L74.02 12.31Q72.82 12.31 71.85 11.88Q70.88 11.45 70.17 10.66Q69.46 9.86 69.08 8.77Q68.70 7.68 68.70 6.34L68.70 6.34Q68.70 5.02 69.09 3.92Q69.49 2.83 70.20 2.05Q70.90 1.27 71.89 0.85Q72.87 0.43 74.02 0.43L74.02 0.43Q75.20 0.43 76.17 0.85Q77.14 1.27 77.85 2.05Q78.56 2.83 78.94 3.92Q79.33 5.02 79.33 6.34ZM71.70 6.36L71.70 6.36Q71.70 7.87 72.24 8.81Q72.78 9.74 73.98 9.74L73.98 9.74Q75.13 9.74 75.72 8.81Q76.30 7.87 76.30 6.36L76.30 6.36Q76.30 4.85 75.76 3.92Q75.22 3 74.02 3L74.02 3Q72.87 3 72.28 3.92Q71.70 4.85 71.70 6.36ZM91.33 6.34L91.33 6.34Q91.33 7.68 90.94 8.77Q90.56 9.86 89.86 10.66Q89.17 11.45 88.20 11.88Q87.22 12.31 86.02 12.31L86.02 12.31Q84.82 12.31 83.85 11.88Q82.88 11.45 82.17 10.66Q81.46 9.86 81.08 8.77Q80.70 7.68 80.70 6.34L80.70 6.34Q80.70 5.02 81.09 3.92Q81.49 2.83 82.20 2.05Q82.90 1.27 83.89 0.85Q84.87 0.43 86.02 0.43L86.02 0.43Q87.20 0.43 88.17 0.85Q89.14 1.27 89.85 2.05Q90.56 2.83 90.94 3.92Q91.33 5.02 91.33 6.34ZM83.70 6.36L83.70 6.36Q83.70 7.87 84.24 8.81Q84.78 9.74 85.98 9.74L85.98 9.74Q87.13 9.74 87.72 8.81Q88.30 7.87 88.30 6.36L88.30 6.36Q88.30 4.85 87.76 3.92Q87.22 3 86.02 3L86.02 3Q84.87 3 84.28 3.92Q83.70 4.85 83.70 6.36ZM115.04 12L105.51 12L105.51-2.86L114.51-2.86L114.51-0.41L108.46-0.41L108.46 2.93L113.72 2.93L113.72 5.38L108.46 5.38L108.46 9.55L115.04 9.55L115.04 12ZM124.28 6.29L124.28 6.29Q124.28 4.70 123.76 3.86Q123.25 3.02 122.19 3.02L122.19 3.02Q121.71 3.02 121.24 3.16Q120.78 3.29 120.44 3.48L120.44 3.48L120.44 9.60Q120.78 9.67 121.15 9.70Q121.52 9.72 121.78 9.72L121.78 9.72Q122.94 9.72 123.61 8.94Q124.28 8.16 124.28 6.29ZM127.28 6.36L127.28 6.36Q127.28 7.70 126.92 8.80Q126.56 9.89 125.86 10.66Q125.17 11.42 124.16 11.84Q123.15 12.26 121.86 12.26L121.86 12.26Q120.70 12.26 119.50 12.10Q118.30 11.93 117.49 11.66L117.49 11.66L117.49-4.15L120.44-4.66L120.44 0.98Q121.06 0.70 121.64 0.59Q122.22 0.48 122.79 0.48L122.79 0.48Q123.90 0.48 124.74 0.90Q125.58 1.32 126.14 2.10Q126.70 2.88 126.99 3.96Q127.28 5.04 127.28 6.36ZM138.51 0.72L138.51 11.62Q137.70 11.83 136.53 12.05Q135.37 12.26 134 12.26L134 12.26Q132.61 12.26 131.72 11.88Q130.83 11.50 130.32 10.79Q129.80 10.08 129.61 9.12Q129.42 8.16 129.42 7.01L129.42 7.01L129.42 0.72L132.37 0.72L132.37 6.62Q132.37 8.18 132.74 8.94Q133.11 9.70 134.19 9.70L134.19 9.70Q134.86 9.70 135.54 9.58L135.54 9.58L135.54 0.72L138.51 0.72ZM146.82-2.52L146.82-2.52Q146.82-1.66 146.26-1.15Q145.71-0.65 144.94-0.65L144.94-0.65Q144.18-0.65 143.64-1.15Q143.10-1.66 143.10-2.52L143.10-2.52Q143.10-3.41 143.64-3.91Q144.18-4.42 144.94-4.42L144.94-4.42Q145.71-4.42 146.26-3.91Q146.82-3.41 146.82-2.52ZM150.82 9.14L151.21 11.52Q150.30 11.95 149.49 12.11Q148.69 12.26 148.02 12.26L148.02 12.26Q146.86 12.26 146.08 11.93Q145.30 11.59 144.84 10.96Q144.37 10.32 144.18 9.41Q143.98 8.50 143.98 7.32L143.98 7.32L143.98 3.17L140.86 3.17L140.86 0.72L146.94 0.72L146.94 7.70Q146.94 8.71 147.31 9.20Q147.68 9.70 148.54 9.70L148.54 9.70Q148.95 9.70 149.53 9.59Q150.10 9.48 150.82 9.14L150.82 9.14ZM162.82 9.14L163.21 11.52Q163.14 11.57 162.88 11.69Q162.63 11.81 162.22 11.94Q161.82 12.07 161.23 12.17Q160.64 12.26 159.90 12.26L159.90 12.26Q157.86 12.26 156.92 11.05Q155.98 9.84 155.98 7.51L155.98 7.51L155.98-2.06L152.86-2.06L152.86-4.51L158.94-4.51L158.94 7.73Q158.94 8.88 159.39 9.29Q159.85 9.70 160.54 9.70L160.54 9.70Q161.43 9.70 162.03 9.46Q162.63 9.22 162.82 9.14L162.82 9.14ZM167.67 6.29L167.67 6.29Q167.67 7.80 168.24 8.76Q168.80 9.72 170.05 9.72L170.05 9.72Q170.41 9.72 170.72 9.70Q171.03 9.67 171.37 9.62L171.37 9.62L171.37 3.48Q171.03 3.29 170.60 3.16Q170.17 3.02 169.69 3.02L169.69 3.02Q168.63 3.02 168.15 3.86Q167.67 4.70 167.67 6.29ZM174.32-4.66L174.32 11.66Q173.50 11.93 172.33 12.10Q171.15 12.26 170.02 12.26L170.02 12.26Q167.38 12.26 166.03 10.70Q164.67 9.14 164.67 6.43L164.67 6.43Q164.67 3.67 165.81 2.08Q166.95 0.48 169.18 0.48L169.18 0.48Q169.78 0.48 170.36 0.61Q170.94 0.74 171.37 0.98L171.37 0.98L171.37-4.15L174.32-4.66Z"/>
    </g>
</svg>