<?xml version="1.0" encoding="UTF-8"?>
<svg height="322" width="90.4" version="1.1" xmlns="http://www.w3.org/2000/svg"><!--Created by Josélio de S. C. Júnior - 2021 - https://github.com/joseliojunior -->
    <rect
        height="32"
        width="88.4"
        rx="16"
        ry="16"
        x="1" y="1"
        fill="#c1d026"
        stroke="#484e0e"
        stroke-width="1" />
    <g transform="translate(0, 12)">
        <path fill="#484e0e" stroke="none" d="M20.60-2.86L31.40-2.86L31.40-0.41L27.49-0.41L27.49 12L24.51 12L24.51-0.41L20.60-0.41L20.60-2.86ZM41.96 12L39.73 12Q39.46 11.26 39.24 10.63Q39.01 10.01 38.80 9.42Q38.60 8.83 38.40 8.20Q38.19 7.56 37.98 6.79L37.98 6.79Q37.74 7.56 37.54 8.17Q37.35 8.78 37.15 9.38Q36.94 9.98 36.73 10.61Q36.51 11.23 36.20 12L36.20 12L33.97 12Q33.68 10.94 33.43 9.66Q33.18 8.38 32.96 6.92Q32.74 5.47 32.58 3.91Q32.41 2.35 32.26 0.72L32.26 0.72L34.78 0.72Q34.88 2.81 34.99 4.80Q35.10 6.79 35.38 8.90L35.38 8.90Q35.70 7.99 35.92 7.21Q36.15 6.43 36.33 5.72Q36.51 5.02 36.67 4.36Q36.82 3.70 36.99 3L36.99 3L39.13 3Q39.27 3.70 39.43 4.36Q39.58 5.02 39.76 5.72Q39.94 6.43 40.15 7.21Q40.35 7.99 40.64 8.90L40.64 8.90Q40.78 7.80 40.88 6.79Q40.98 5.78 41.04 4.79Q41.10 3.79 41.13 2.80Q41.17 1.80 41.22 0.72L41.22 0.72L43.74 0.72Q43.47 4.01 43.00 6.91Q42.54 9.82 41.96 12L41.96 12ZM50.82-2.52L50.82-2.52Q50.82-1.66 50.26-1.15Q49.71-0.65 48.94-0.65L48.94-0.65Q48.18-0.65 47.64-1.15Q47.10-1.66 47.10-2.52L47.10-2.52Q47.10-3.41 47.64-3.91Q48.18-4.42 48.94-4.42L48.94-4.42Q49.71-4.42 50.26-3.91Q50.82-3.41 50.82-2.52ZM54.82 9.14L55.21 11.52Q54.30 11.95 53.49 12.11Q52.69 12.26 52.02 12.26L52.02 12.26Q50.86 12.26 50.08 11.93Q49.30 11.59 48.84 10.96Q48.37 10.32 48.18 9.41Q47.98 8.50 47.98 7.32L47.98 7.32L47.98 3.17L44.86 3.17L44.86 0.72L50.94 0.72L50.94 7.70Q50.94 8.71 51.31 9.20Q51.68 9.70 52.54 9.70L52.54 9.70Q52.95 9.70 53.53 9.59Q54.10 9.48 54.82 9.14L54.82 9.14ZM59.79 6L59.79 6Q59.79 7.39 60.30 8.12Q60.80 8.86 61.88 8.86L61.88 8.86Q62.36 8.86 62.78 8.74Q63.20 8.62 63.54 8.42L63.54 8.42L63.54 3Q63.20 2.93 62.94 2.90Q62.67 2.88 62.38 2.88L62.38 2.88Q59.79 2.88 59.79 6ZM66.51 1.08L66.51 10.63Q66.51 13.39 65.18 14.71Q63.85 16.03 60.90 16.03L60.90 16.03Q59.84 16.03 58.87 15.82Q57.90 15.60 57.01 15.31L57.01 15.31L57.56 12.82Q58.26 13.08 59.02 13.31Q59.79 13.54 60.94 13.54L60.94 13.54Q61.71 13.54 62.22 13.36Q62.72 13.18 63.01 12.86Q63.30 12.55 63.42 12.13Q63.54 11.71 63.54 11.23L63.54 11.23L63.54 10.78Q62.91 11.02 62.40 11.14Q61.88 11.26 61.28 11.26L61.28 11.26Q59.07 11.26 57.93 9.86Q56.79 8.47 56.79 6L56.79 6Q56.79 3.22 58.33 1.85Q59.86 0.48 62.50 0.48L62.50 0.48Q64.35 0.48 66.51 1.08L66.51 1.08Z"/>
    </g>
</svg>