<?xml version="1.0" encoding="UTF-8"?><svg height="26" width="74.4" version="1.1" xmlns="http://www.w3.org/2000/svg"><!--Created by Josélio de S. C. Júnior - 2021 - https://github.com/joseliojunior --><rect height="24" width="72.4" rx="1" ry="1" x="1" y="1" fill="#c1d026" stroke="#484e0e" stroke-width="1" /><g transform="translate(0, 8)"><path fill="#484e0e" d="M20.40 0.10L27.60 0.10L27.60 1.73L24.99 1.73L24.99 10L23.01 10L23.01 1.73L20.40 1.73L20.40 0.10ZM34.64 10L33.15 10Q32.98 9.50 32.82 9.09Q32.67 8.67 32.54 8.28Q32.40 7.89 32.26 7.46Q32.13 7.04 31.98 6.53L31.98 6.53Q31.82 7.04 31.70 7.45Q31.57 7.86 31.43 8.26Q31.30 8.66 31.15 9.07Q31.01 9.49 30.80 10L30.80 10L29.31 10Q29.12 9.30 28.95 8.44Q28.78 7.58 28.64 6.62Q28.50 5.65 28.38 4.61Q28.27 3.57 28.18 2.48L28.18 2.48L29.86 2.48Q29.92 3.87 29.99 5.20Q30.06 6.53 30.26 7.94L30.26 7.94Q30.46 7.33 30.62 6.81Q30.77 6.29 30.89 5.82Q31.01 5.34 31.11 4.90Q31.22 4.46 31.33 4L31.33 4L32.75 4Q32.85 4.46 32.95 4.90Q33.06 5.34 33.18 5.82Q33.30 6.29 33.43 6.81Q33.57 7.33 33.76 7.94L33.76 7.94Q33.86 7.20 33.92 6.53Q33.98 5.86 34.02 5.19Q34.06 4.53 34.09 3.86Q34.11 3.20 34.14 2.48L34.14 2.48L35.82 2.48Q35.65 4.67 35.34 6.61Q35.02 8.54 34.64 10L34.64 10ZM40.54 0.32L40.54 0.32Q40.54 0.90 40.18 1.23Q39.81 1.57 39.30 1.57L39.30 1.57Q38.78 1.57 38.42 1.23Q38.06 0.90 38.06 0.32L38.06 0.32Q38.06-0.27 38.42-0.61Q38.78-0.94 39.30-0.94L39.30-0.94Q39.81-0.94 40.18-0.61Q40.54-0.27 40.54 0.32ZM43.22 8.10L43.47 9.68Q42.86 9.97 42.33 10.07Q41.79 10.18 41.34 10.18L41.34 10.18Q40.58 10.18 40.06 9.95Q39.54 9.73 39.22 9.30Q38.91 8.88 38.78 8.27Q38.66 7.66 38.66 6.88L38.66 6.88L38.66 4.11L36.58 4.11L36.58 2.48L40.62 2.48L40.62 7.14Q40.62 7.81 40.87 8.14Q41.12 8.46 41.70 8.46L41.70 8.46Q41.97 8.46 42.35 8.39Q42.74 8.32 43.22 8.10L43.22 8.10ZM46.53 6L46.53 6Q46.53 6.93 46.86 7.42Q47.20 7.90 47.92 7.90L47.92 7.90Q48.24 7.90 48.52 7.82Q48.80 7.74 49.02 7.62L49.02 7.62L49.02 4Q48.80 3.95 48.62 3.94Q48.45 3.92 48.26 3.92L48.26 3.92Q46.53 3.92 46.53 6ZM51.01 2.72L51.01 9.09Q51.01 10.93 50.12 11.81Q49.23 12.69 47.26 12.69L47.26 12.69Q46.56 12.69 45.91 12.54Q45.26 12.40 44.67 12.21L44.67 12.21L45.04 10.54Q45.50 10.72 46.02 10.87Q46.53 11.02 47.30 11.02L47.30 11.02Q47.81 11.02 48.14 10.90Q48.48 10.78 48.67 10.58Q48.86 10.37 48.94 10.09Q49.02 9.81 49.02 9.49L49.02 9.49L49.02 9.18Q48.61 9.34 48.26 9.42Q47.92 9.50 47.52 9.50L47.52 9.50Q46.05 9.50 45.29 8.58Q44.53 7.65 44.53 6L44.53 6Q44.53 4.14 45.55 3.23Q46.58 2.32 48.34 2.32L48.34 2.32Q49.57 2.32 51.01 2.72L51.01 2.72Z"/></g></svg>