<?xml version="1.0" encoding="UTF-8"?>
<svg height="26" width="106.8" version="1.1" xmlns="http://www.w3.org/2000/svg"><!--Created by Josélio de S. C. Júnior - 2021 - https://github.com/joseliojunior -->
    <rect
        height="24"
        width="104.8"
        rx="12"
        ry="12"
        x="1" y="1"
        fill="#555e25"
        stroke="#b1c05d"
        stroke-width="1" />
    <g transform="translate(0, 8)">
        <path fill="#b1c05d" stroke="none" d="M27.86 10L25.74 10L25.28 7.71L22.64 7.71L22.19 10L20.14 10Q20.85 7.07 21.57 4.66Q22.29 2.26 22.96 0.10L22.96 0.10L25.10 0.10Q25.81 2.27 26.50 4.71Q27.20 7.15 27.86 10L27.86 10ZM23.98 2.02L23.98 2.02Q23.82 2.58 23.69 3.08Q23.55 3.58 23.43 4.07Q23.31 4.56 23.21 5.06Q23.10 5.55 23.01 6.08L23.01 6.08L24.94 6.08Q24.85 5.55 24.75 5.06Q24.66 4.56 24.54 4.07Q24.42 3.58 24.28 3.08Q24.14 2.58 23.98 2.02ZM35.50 7.01L35.50 7.01Q35.50 7.90 35.20 8.50Q34.90 9.10 34.38 9.46Q33.86 9.82 33.14 9.98Q32.43 10.13 31.62 10.13L31.62 10.13Q30.96 10.13 30.26 10.06Q29.55 9.98 28.86 9.84L28.86 9.84L28.86 0.22Q29.42 0.13 30.10 0.06Q30.77-0.02 31.42-0.02L31.42-0.02Q32.54-0.02 33.25 0.22Q33.95 0.45 34.35 0.82Q34.75 1.20 34.90 1.66Q35.04 2.13 35.04 2.59L35.04 2.59Q35.04 3.30 34.70 3.84Q34.35 4.38 33.78 4.70L33.78 4.70Q34.78 5.07 35.14 5.70Q35.50 6.32 35.50 7.01ZM31.89 5.66L30.83 5.66L30.83 8.35Q31.04 8.38 31.29 8.40Q31.54 8.42 31.78 8.42L31.78 8.42Q32.11 8.42 32.43 8.36Q32.75 8.30 33 8.15Q33.25 8 33.41 7.72Q33.57 7.44 33.57 7.01L33.57 7.01Q33.57 6.29 33.11 5.98Q32.66 5.66 31.89 5.66L31.89 5.66ZM30.83 4.03L31.60 4.03Q32.35 4.03 32.74 3.70Q33.12 3.38 33.12 2.80L33.12 2.80Q33.12 2.45 33.01 2.23Q32.90 2.02 32.70 1.90Q32.51 1.78 32.26 1.74Q32 1.70 31.73 1.70L31.73 1.70Q31.50 1.70 31.26 1.71Q31.02 1.73 30.83 1.76L30.83 1.76L30.83 4.03ZM43.86 10L41.74 10L41.28 7.71L38.64 7.71L38.19 10L36.14 10Q36.85 7.07 37.57 4.66Q38.29 2.26 38.96 0.10L38.96 0.10L41.10 0.10Q41.81 2.27 42.50 4.71Q43.20 7.15 43.86 10L43.86 10ZM39.98 2.02L39.98 2.02Q39.82 2.58 39.69 3.08Q39.55 3.58 39.43 4.07Q39.31 4.56 39.21 5.06Q39.10 5.55 39.01 6.08L39.01 6.08L40.94 6.08Q40.85 5.55 40.75 5.06Q40.66 4.56 40.54 4.07Q40.42 3.58 40.28 3.08Q40.14 2.58 39.98 2.02ZM47.58-0.02L47.58-0.02Q49.47-0.02 50.51 0.76Q51.55 1.54 51.55 3.30L51.55 3.30Q51.55 5.07 50.50 5.86Q49.46 6.66 47.54 6.66L47.54 6.66L46.83 6.66L46.83 10L44.86 10L44.86 0.22Q45.15 0.16 45.51 0.11Q45.87 0.06 46.24 0.04Q46.61 0.02 46.96 0Q47.31-0.02 47.58-0.02ZM47.81 1.70L47.81 1.70Q47.63 1.70 47.32 1.70Q47.01 1.71 46.83 1.74L46.83 1.74L46.83 4.94L47.63 4.94Q48.58 4.94 49.06 4.57Q49.54 4.19 49.54 3.28L49.54 3.28Q49.54 2.42 49.06 2.06Q48.59 1.70 47.81 1.70ZM64.74 10.21L64.74 10.21Q62.64 10.21 61.54 8.86Q60.43 7.52 60.43 5.04L60.43 5.04Q60.43 3.81 60.77 2.85Q61.10 1.89 61.70 1.22Q62.30 0.56 63.13 0.22Q63.95-0.13 64.93-0.13L64.93-0.13Q65.46-0.13 65.88-0.04Q66.30 0.05 66.62 0.16Q66.94 0.27 67.16 0.40Q67.38 0.53 67.49 0.59L67.49 0.59L66.98 2.16Q66.61 1.92 66.09 1.75Q65.57 1.58 64.90 1.58L64.90 1.58Q64.43 1.58 63.99 1.75Q63.55 1.92 63.21 2.31Q62.86 2.70 62.65 3.36Q62.43 4.02 62.43 4.99L62.43 4.99Q62.43 6.69 63.02 7.59Q63.60 8.50 64.93 8.50L64.93 8.50Q65.70 8.50 66.20 8.32Q66.70 8.14 67.01 7.97L67.01 7.97L67.50 9.52Q67.09 9.78 66.38 9.99Q65.66 10.21 64.74 10.21ZM70.83 1.74L70.83 8.40Q70.91 8.42 71.01 8.42Q71.10 8.42 71.18 8.42L71.18 8.42Q71.86 8.42 72.31 8.16Q72.77 7.90 73.05 7.46Q73.33 7.01 73.45 6.39Q73.57 5.78 73.57 5.04L73.57 5.04Q73.57 4.40 73.47 3.79Q73.38 3.18 73.14 2.72Q72.90 2.26 72.48 1.98Q72.06 1.70 71.41 1.70L71.41 1.70Q71.28 1.70 71.12 1.70Q70.96 1.71 70.83 1.74L70.83 1.74ZM75.57 5.04L75.57 5.04Q75.57 6.42 75.22 7.38Q74.88 8.35 74.27 8.96Q73.66 9.57 72.82 9.85Q71.98 10.13 70.98 10.13L70.98 10.13Q70.45 10.13 69.94 10.07Q69.44 10.02 68.86 9.89L68.86 9.89L68.86 0.22Q69.54 0.08 70.13 0.03Q70.72-0.02 71.23-0.02L71.23-0.02Q72.21-0.02 73.02 0.27Q73.82 0.56 74.38 1.18Q74.94 1.79 75.26 2.74Q75.57 3.70 75.57 5.04ZM79.71 8.56L79.71 8.56Q80.21 8.56 80.54 8.46Q80.86 8.35 81.06 8.17Q81.25 7.98 81.32 7.75Q81.39 7.52 81.39 7.28L81.39 7.28Q81.39 6.98 81.22 6.74Q81.04 6.50 80.77 6.31Q80.50 6.13 80.16 5.98Q79.82 5.82 79.49 5.70L79.49 5.70Q79.04 5.54 78.56 5.33Q78.08 5.12 77.69 4.80Q77.30 4.48 77.04 4.01Q76.78 3.54 76.78 2.83L76.78 2.83Q76.78 1.44 77.69 0.66Q78.59-0.13 80.18-0.13L80.18-0.13Q81.09-0.13 81.77 0.08Q82.45 0.29 82.91 0.54L82.91 0.54L82.34 2.06Q81.94 1.84 81.45 1.68Q80.96 1.52 80.32 1.52L80.32 1.52Q78.75 1.52 78.75 2.66L78.75 2.66Q78.75 2.94 78.91 3.16Q79.07 3.38 79.32 3.54Q79.57 3.71 79.88 3.84Q80.19 3.97 80.50 4.08L80.50 4.08Q80.96 4.26 81.46 4.47Q81.97 4.69 82.39 5.05Q82.82 5.41 83.09 5.94Q83.36 6.48 83.36 7.30L83.36 7.30Q83.36 8.69 82.46 9.45Q81.55 10.21 79.71 10.21L79.71 10.21Q78.48 10.21 77.74 9.94Q77.01 9.68 76.64 9.46L76.64 9.46L77.22 7.86Q77.65 8.11 78.25 8.34Q78.85 8.56 79.71 8.56Z"/>
    </g>
</svg>