<?xml version="1.0" encoding="UTF-8"?>
<svg height="26" width="139.2" version="1.1" xmlns="http://www.w3.org/2000/svg"><!--Created by Josélio de S. C. Júnior - 2021 - https://github.com/joseliojunior -->
    <rect
        height="24"
        width="137.2"
        rx="1"
        ry="1"
        x="1" y="1"
        fill="#b07219"
        stroke="#281a06"
        stroke-width="1" />
    <g transform="translate(0, 8)">
        <path fill="#281a06" d="M27.01 0.10L27.01 6.69Q27.01 7.41 26.82 8.05Q26.64 8.69 26.22 9.17Q25.79 9.65 25.12 9.93Q24.45 10.21 23.49 10.21L23.49 10.21Q22.48 10.21 21.81 9.95Q21.14 9.70 20.67 9.33L20.67 9.33L21.42 7.76Q21.82 8.02 22.31 8.26Q22.80 8.50 23.31 8.50L23.31 8.50Q24.08 8.50 24.55 8.09Q25.02 7.68 25.02 6.58L25.02 6.58L25.02 1.73L21.71 1.73L21.71 0.10L27.01 0.10ZM35.86 10L33.74 10L33.28 7.71L30.64 7.71L30.19 10L28.14 10Q28.85 7.07 29.57 4.66Q30.29 2.26 30.96 0.10L30.96 0.10L33.10 0.10Q33.81 2.27 34.50 4.71Q35.20 7.15 35.86 10L35.86 10ZM31.98 2.02L31.98 2.02Q31.82 2.58 31.69 3.08Q31.55 3.58 31.43 4.07Q31.31 4.56 31.21 5.06Q31.10 5.55 31.01 6.08L31.01 6.08L32.94 6.08Q32.85 5.55 32.75 5.06Q32.66 4.56 32.54 4.07Q32.42 3.58 32.28 3.08Q32.14 2.58 31.98 2.02ZM39.42-0.02L39.42-0.02Q40.27-0.02 40.96 0.18Q41.65 0.37 42.14 0.77Q42.64 1.17 42.90 1.78Q43.17 2.40 43.17 3.23L43.17 3.23Q43.17 4.10 42.82 4.80Q42.46 5.50 41.65 5.87L41.65 5.87Q41.92 6.29 42.22 6.79Q42.53 7.30 42.82 7.85Q43.10 8.40 43.37 8.95Q43.63 9.50 43.82 10L43.82 10L41.76 10Q41.39 9.04 40.90 8.15Q40.42 7.26 39.86 6.35L39.86 6.35L38.83 6.35L38.83 10L36.86 10L36.86 0.24Q37.15 0.18 37.50 0.12Q37.84 0.06 38.19 0.04Q38.54 0.02 38.86 0Q39.18-0.02 39.42-0.02ZM41.17 3.22L41.17 3.22Q41.17 2.43 40.69 2.06Q40.21 1.70 39.42 1.70L39.42 1.70Q39.31 1.70 39.15 1.70Q38.99 1.71 38.83 1.74L38.83 1.74L38.83 4.72L39.26 4.72Q40.27 4.72 40.72 4.33Q41.17 3.94 41.17 3.22ZM52.94 0.10L54.58 0.10Q54.69 0.43 54.86 0.96Q55.02 1.49 55.22 2.10Q55.41 2.70 55.60 3.33Q55.79 3.95 55.97 4.48L55.97 4.48Q56.16 3.89 56.37 3.26Q56.58 2.62 56.77 2.04Q56.96 1.46 57.12 0.94Q57.28 0.43 57.41 0.10L57.41 0.10L59.04 0.10Q59.15 1.39 59.26 2.62Q59.36 3.86 59.43 5.06Q59.50 6.27 59.55 7.50Q59.60 8.72 59.63 10L59.63 10L57.82 10L57.92 2.30L56.70 6.50L55.26 6.50L54.10 2.30L54.18 10L52.37 10Q52.42 8.78 52.47 7.47Q52.53 6.16 52.59 4.86Q52.66 3.57 52.74 2.35Q52.83 1.14 52.94 0.10L52.94 0.10ZM64.02 8.59L64.02 8.59Q64.34 8.59 64.64 8.58Q64.94 8.58 65.17 8.54L65.17 8.54L65.17 6.82Q64.98 6.78 64.70 6.76Q64.43 6.74 64.21 6.74L64.21 6.74Q63.90 6.74 63.62 6.78Q63.33 6.82 63.11 6.91Q62.90 7.01 62.77 7.18Q62.64 7.36 62.64 7.65L62.64 7.65Q62.64 8.16 63.02 8.38Q63.41 8.59 64.02 8.59ZM63.84 2.29L63.84 2.29Q64.77 2.29 65.38 2.50Q66 2.72 66.37 3.11Q66.74 3.50 66.90 4.07Q67.06 4.64 67.06 5.34L67.06 5.34L67.06 9.82Q66.62 9.92 65.78 10.05Q64.93 10.18 63.87 10.18L63.87 10.18Q63.15 10.18 62.57 10.05Q61.98 9.92 61.57 9.62Q61.15 9.33 60.93 8.86Q60.70 8.38 60.70 7.70L60.70 7.70Q60.70 7.04 60.96 6.59Q61.22 6.14 61.65 5.87Q62.08 5.60 62.64 5.48Q63.20 5.36 63.81 5.36L63.81 5.36Q64.58 5.36 65.17 5.49L65.17 5.49L65.17 5.25Q65.17 4.69 64.82 4.31Q64.46 3.94 63.60 3.94L63.60 3.94Q63.04 3.94 62.52 4.02Q62 4.10 61.68 4.21L61.68 4.21L61.41 2.62Q61.78 2.50 62.45 2.39Q63.12 2.29 63.84 2.29ZM69.01 10L69.01 2.72Q69.54 2.58 70.31 2.45Q71.09 2.32 72 2.32L72 2.32Q72.90 2.32 73.49 2.57Q74.08 2.82 74.42 3.27Q74.77 3.73 74.91 4.36Q75.06 4.99 75.06 5.76L75.06 5.76L75.06 10L73.09 10L73.09 6.02Q73.09 4.96 72.85 4.50Q72.61 4.03 71.87 4.03L71.87 4.03Q71.65 4.03 71.43 4.05Q71.22 4.06 70.98 4.10L70.98 4.10L70.98 10L69.01 10ZM80.54 0.32L80.54 0.32Q80.54 0.90 80.18 1.23Q79.81 1.57 79.30 1.57L79.30 1.57Q78.78 1.57 78.42 1.23Q78.06 0.90 78.06 0.32L78.06 0.32Q78.06-0.27 78.42-0.61Q78.78-0.94 79.30-0.94L79.30-0.94Q79.81-0.94 80.18-0.61Q80.54-0.27 80.54 0.32ZM83.22 8.10L83.47 9.68Q82.86 9.97 82.33 10.07Q81.79 10.18 81.34 10.18L81.34 10.18Q80.58 10.18 80.06 9.95Q79.54 9.73 79.22 9.30Q78.91 8.88 78.78 8.27Q78.66 7.66 78.66 6.88L78.66 6.88L78.66 4.11L76.58 4.11L76.58 2.48L80.62 2.48L80.62 7.14Q80.62 7.81 80.87 8.14Q81.12 8.46 81.70 8.46L81.70 8.46Q81.97 8.46 82.35 8.39Q82.74 8.32 83.22 8.10L83.22 8.10ZM88.21 10L86.22 10L86.22 4.11L84.58 4.11L84.58 2.48L86.22 2.48L86.22 2.05Q86.22 1.14 86.49 0.54Q86.75-0.06 87.20-0.42Q87.65-0.78 88.22-0.94Q88.80-1.09 89.41-1.09L89.41-1.09Q90.03-1.09 90.69-0.98Q91.34-0.86 91.87-0.61L91.87-0.61L91.54 0.99Q91.17 0.86 90.62 0.73Q90.06 0.59 89.57 0.59L89.57 0.59Q89.30 0.59 89.05 0.64Q88.80 0.69 88.62 0.85Q88.43 1.01 88.32 1.30Q88.21 1.60 88.21 2.08L88.21 2.08L88.21 2.48L91.30 2.48L91.30 4.11L88.21 4.11L88.21 10ZM92.50 6.30L92.50 6.30Q92.50 5.31 92.80 4.56Q93.10 3.81 93.60 3.30Q94.10 2.80 94.74 2.54Q95.38 2.29 96.05 2.29L96.05 2.29Q97.71 2.29 98.58 3.27Q99.44 4.26 99.44 6.14L99.44 6.14Q99.44 6.34 99.43 6.54Q99.42 6.75 99.41 6.88L99.41 6.88L94.53 6.88Q94.53 7.62 95.14 8.04Q95.74 8.46 96.70 8.46L96.70 8.46Q97.30 8.46 97.83 8.34Q98.37 8.21 98.74 8.08L98.74 8.08L99.01 9.76Q98.50 9.94 97.92 10.06Q97.34 10.18 96.62 10.18L96.62 10.18Q95.66 10.18 94.90 9.93Q94.14 9.68 93.61 9.19Q93.07 8.70 92.78 7.98Q92.50 7.26 92.50 6.30ZM94.53 5.52L97.54 5.52Q97.54 5.22 97.46 4.94Q97.38 4.66 97.20 4.43Q97.02 4.21 96.75 4.07Q96.48 3.94 96.08 3.94L96.08 3.94Q95.70 3.94 95.42 4.06Q95.14 4.19 94.95 4.42Q94.77 4.64 94.66 4.93Q94.56 5.22 94.53 5.52L94.53 5.52ZM103.65 8.51L103.65 8.51Q104.37 8.51 104.75 8.41Q105.14 8.30 105.14 7.98L105.14 7.98Q105.14 7.78 105.02 7.63Q104.90 7.49 104.68 7.38Q104.46 7.28 104.18 7.18Q103.90 7.09 103.60 6.99L103.60 6.99Q103.17 6.86 102.72 6.70Q102.27 6.53 101.90 6.27Q101.54 6.02 101.30 5.62Q101.06 5.23 101.06 4.64L101.06 4.64Q101.06 4.16 101.24 3.74Q101.42 3.31 101.82 2.98Q102.21 2.66 102.82 2.47Q103.42 2.29 104.27 2.29L104.27 2.29Q105.01 2.29 105.64 2.40Q106.27 2.51 106.74 2.72L106.74 2.72L106.43 4.38Q106.16 4.30 105.58 4.12Q105.01 3.94 104.29 3.94L104.29 3.94Q103.54 3.94 103.27 4.12Q103.01 4.30 103.01 4.51L103.01 4.51Q103.01 4.69 103.13 4.82Q103.25 4.96 103.45 5.07Q103.65 5.18 103.91 5.29Q104.18 5.39 104.48 5.49L104.48 5.49Q104.91 5.63 105.38 5.81Q105.84 5.98 106.22 6.25Q106.59 6.51 106.83 6.92Q107.07 7.33 107.07 7.92L107.07 7.92Q107.07 8.38 106.90 8.80Q106.72 9.22 106.31 9.52Q105.90 9.82 105.25 10Q104.59 10.18 103.63 10.18L103.63 10.18Q102.66 10.18 101.97 9.95Q101.28 9.73 100.86 9.55L100.86 9.55L101.17 7.90Q101.73 8.13 102.36 8.32Q102.99 8.51 103.65 8.51ZM110.29 7.20L110.29 4.11L108.58 4.11L108.58 2.48L110.29 2.48L110.29 0.59L112.26 0.27L112.26 2.48L115.41 2.48L115.41 4.11L112.26 4.11L112.26 7.15Q112.26 7.57 112.34 7.82Q112.42 8.08 112.56 8.22Q112.70 8.37 112.91 8.42Q113.12 8.46 113.38 8.46L113.38 8.46Q113.65 8.46 113.88 8.45Q114.11 8.43 114.33 8.39Q114.54 8.35 114.78 8.27Q115.01 8.19 115.28 8.06L115.28 8.06L115.55 9.76Q115.01 9.98 114.38 10.08Q113.74 10.18 113.15 10.18L113.15 10.18Q112.46 10.18 111.94 10.06Q111.41 9.95 111.04 9.63Q110.67 9.31 110.48 8.73Q110.29 8.14 110.29 7.20L110.29 7.20Z"/>
    </g>
</svg>