<?xml version="1.0" encoding="UTF-8"?><svg height="34" width="187.2" version="1.1" xmlns="http://www.w3.org/2000/svg"><!--Created by Josélio de S. C. Júnior - 2021 - https://github.com/joseliojunior --><rect height="32" width="185.2" rx="1" ry="1" x="1" y="1" fill="#b07219" stroke="#281a06" stroke-width="1" /><g transform="translate(0, 12)"><path fill="#281a06" d="M30.51-2.86L30.51 7.03Q30.51 8.11 30.24 9.07Q29.96 10.03 29.32 10.75Q28.69 11.47 27.68 11.89Q26.67 12.31 25.23 12.31L25.23 12.31Q23.72 12.31 22.71 11.93Q21.70 11.54 21.01 10.99L21.01 10.99L22.14 8.64Q22.74 9.02 23.47 9.38Q24.20 9.74 24.97 9.74L24.97 9.74Q26.12 9.74 26.83 9.13Q27.54 8.52 27.54 6.86L27.54 6.86L27.54-0.41L22.57-0.41L22.57-2.86L30.51-2.86ZM43.78 12L40.62 12L39.92 8.57L35.96 8.57L35.29 12L32.22 12Q33.27 7.61 34.35 4.00Q35.43 0.38 36.44-2.86L36.44-2.86L39.66-2.86Q40.71 0.41 41.76 4.07Q42.80 7.73 43.78 12L43.78 12ZM37.98 0.02L37.98 0.02Q37.74 0.86 37.53 1.62Q37.33 2.38 37.15 3.11Q36.97 3.84 36.81 4.58Q36.66 5.33 36.51 6.12L36.51 6.12L39.42 6.12Q39.27 5.33 39.13 4.58Q38.98 3.84 38.80 3.11Q38.62 2.38 38.42 1.62Q38.22 0.86 37.98 0.02ZM49.14-3.02L49.14-3.02Q50.41-3.02 51.44-2.74Q52.47-2.45 53.22-1.85Q53.96-1.25 54.36-0.32Q54.75 0.60 54.75 1.85L54.75 1.85Q54.75 3.14 54.22 4.20Q53.70 5.26 52.47 5.81L52.47 5.81Q52.88 6.43 53.34 7.19Q53.79 7.94 54.22 8.77Q54.66 9.60 55.05 10.43Q55.45 11.26 55.74 12L55.74 12L52.64 12Q52.09 10.56 51.36 9.23Q50.62 7.90 49.78 6.53L49.78 6.53L48.25 6.53L48.25 12L45.30 12L45.30-2.64Q45.73-2.74 46.24-2.82Q46.76-2.90 47.29-2.94Q47.82-2.98 48.30-3Q48.78-3.02 49.14-3.02ZM51.75 1.82L51.75 1.82Q51.75 0.65 51.03 0.10Q50.31-0.46 49.14-0.46L49.14-0.46Q48.97-0.46 48.73-0.44Q48.49-0.43 48.25-0.38L48.25-0.38L48.25 4.08L48.90 4.08Q50.41 4.08 51.08 3.49Q51.75 2.90 51.75 1.82ZM69.42-2.86L71.86-2.86Q72.03-2.35 72.28-1.56Q72.54-0.77 72.82 0.14Q73.11 1.06 73.40 1.99Q73.69 2.93 73.95 3.72L73.95 3.72Q74.24 2.83 74.55 1.88Q74.86 0.94 75.15 0.06Q75.44-0.82 75.68-1.58Q75.92-2.35 76.11-2.86L76.11-2.86L78.56-2.86Q78.73-0.91 78.88 0.94Q79.04 2.78 79.15 4.60Q79.26 6.41 79.33 8.24Q79.40 10.08 79.45 12L79.45 12L76.74 12L76.88 0.46L75.06 6.74L72.90 6.74L71.14 0.46L71.26 12L68.55 12Q68.62 10.18 68.71 8.21Q68.79 6.24 68.89 4.30Q68.98 2.35 69.12 0.53Q69.25-1.30 69.42-2.86L69.42-2.86ZM86.02 9.89L86.02 9.89Q86.50 9.89 86.96 9.88Q87.42 9.86 87.75 9.82L87.75 9.82L87.75 7.22Q87.46 7.18 87.06 7.14Q86.65 7.10 86.31 7.10L86.31 7.10Q85.86 7.10 85.42 7.16Q84.99 7.22 84.67 7.37Q84.34 7.51 84.15 7.78Q83.96 8.04 83.96 8.47L83.96 8.47Q83.96 9.24 84.54 9.56Q85.11 9.89 86.02 9.89ZM85.76 0.43L85.76 0.43Q87.15 0.43 88.08 0.76Q89 1.08 89.55 1.67Q90.10 2.26 90.34 3.11Q90.58 3.96 90.58 5.02L90.58 5.02L90.58 11.74Q89.94 11.88 88.66 12.07Q87.39 12.26 85.81 12.26L85.81 12.26Q84.73 12.26 83.85 12.07Q82.98 11.88 82.35 11.44Q81.73 10.99 81.39 10.28Q81.06 9.58 81.06 8.54L81.06 8.54Q81.06 7.56 81.44 6.89Q81.82 6.22 82.47 5.81Q83.12 5.40 83.96 5.22Q84.80 5.04 85.71 5.04L85.71 5.04Q86.86 5.04 87.75 5.23L87.75 5.23L87.75 4.87Q87.75 4.03 87.22 3.47Q86.70 2.90 85.40 2.90L85.40 2.90Q84.56 2.90 83.78 3.02Q83 3.14 82.52 3.31L82.52 3.31L82.11 0.94Q82.66 0.74 83.67 0.59Q84.68 0.43 85.76 0.43ZM93.51 12L93.51 1.08Q94.30 0.86 95.47 0.67Q96.63 0.48 98 0.48L98 0.48Q99.34 0.48 100.23 0.85Q101.12 1.22 101.64 1.91Q102.15 2.59 102.37 3.54Q102.58 4.49 102.58 5.64L102.58 5.64L102.58 12L99.63 12L99.63 6.02Q99.63 4.44 99.27 3.74Q98.91 3.05 97.81 3.05L97.81 3.05Q97.47 3.05 97.15 3.07Q96.82 3.10 96.46 3.14L96.46 3.14L96.46 12L93.51 12ZM110.82-2.52L110.82-2.52Q110.82-1.66 110.26-1.15Q109.71-0.65 108.94-0.65L108.94-0.65Q108.18-0.65 107.64-1.15Q107.10-1.66 107.10-2.52L107.10-2.52Q107.10-3.41 107.64-3.91Q108.18-4.42 108.94-4.42L108.94-4.42Q109.71-4.42 110.26-3.91Q110.82-3.41 110.82-2.52ZM114.82 9.14L115.21 11.52Q114.30 11.95 113.49 12.11Q112.69 12.26 112.02 12.26L112.02 12.26Q110.86 12.26 110.08 11.93Q109.30 11.59 108.84 10.96Q108.37 10.32 108.18 9.41Q107.98 8.50 107.98 7.32L107.98 7.32L107.98 3.17L104.86 3.17L104.86 0.72L110.94 0.72L110.94 7.70Q110.94 8.71 111.31 9.20Q111.68 9.70 112.54 9.70L112.54 9.70Q112.95 9.70 113.53 9.59Q114.10 9.48 114.82 9.14L114.82 9.14ZM122.31 12L119.34 12L119.34 3.17L116.86 3.17L116.86 0.72L119.34 0.72L119.34 0.07Q119.34-1.30 119.73-2.20Q120.13-3.10 120.80-3.64Q121.47-4.18 122.34-4.40Q123.20-4.63 124.11-4.63L124.11-4.63Q125.05-4.63 126.03-4.46Q127.02-4.30 127.81-3.91L127.81-3.91L127.30-1.51Q126.75-1.70 125.92-1.91Q125.10-2.11 124.35-2.11L124.35-2.11Q123.94-2.11 123.57-2.04Q123.20-1.97 122.92-1.73Q122.65-1.49 122.48-1.04Q122.31-0.60 122.31 0.12L122.31 0.12L122.31 0.72L126.94 0.72L126.94 3.17L122.31 3.17L122.31 12ZM128.74 6.46L128.74 6.46Q128.74 4.97 129.20 3.84Q129.66 2.71 130.40 1.96Q131.14 1.20 132.10 0.82Q133.06 0.43 134.07 0.43L134.07 0.43Q136.57 0.43 137.86 1.91Q139.16 3.38 139.16 6.22L139.16 6.22Q139.16 6.50 139.15 6.82Q139.14 7.13 139.11 7.32L139.11 7.32L131.79 7.32Q131.79 8.42 132.70 9.06Q133.62 9.70 135.06 9.70L135.06 9.70Q135.94 9.70 136.75 9.50Q137.55 9.31 138.10 9.12L138.10 9.12L138.51 11.64Q137.74 11.90 136.88 12.08Q136.02 12.26 134.94 12.26L134.94 12.26Q133.50 12.26 132.36 11.89Q131.22 11.52 130.41 10.79Q129.61 10.06 129.18 8.98Q128.74 7.90 128.74 6.46ZM131.79 5.28L136.30 5.28Q136.30 4.82 136.18 4.40Q136.06 3.98 135.80 3.65Q135.54 3.31 135.13 3.11Q134.72 2.90 134.12 2.90L134.12 2.90Q133.54 2.90 133.12 3.10Q132.70 3.29 132.43 3.62Q132.15 3.96 132.00 4.39Q131.84 4.82 131.79 5.28L131.79 5.28ZM145.47 9.77L145.47 9.77Q146.55 9.77 147.13 9.61Q147.70 9.46 147.70 8.98L147.70 8.98Q147.70 8.66 147.52 8.45Q147.34 8.23 147.02 8.08Q146.70 7.92 146.28 7.78Q145.86 7.63 145.40 7.49L145.40 7.49Q144.75 7.30 144.08 7.04Q143.41 6.79 142.86 6.41Q142.30 6.02 141.94 5.44Q141.58 4.85 141.58 3.96L141.58 3.96Q141.58 3.24 141.86 2.60Q142.14 1.97 142.72 1.48Q143.31 0.98 144.22 0.71Q145.14 0.43 146.41 0.43L146.41 0.43Q147.51 0.43 148.46 0.60Q149.41 0.77 150.10 1.08L150.10 1.08L149.65 3.58Q149.24 3.46 148.38 3.18Q147.51 2.90 146.43 2.90L146.43 2.90Q145.30 2.90 144.91 3.18Q144.51 3.46 144.51 3.77L144.51 3.77Q144.51 4.03 144.69 4.24Q144.87 4.44 145.17 4.61Q145.47 4.78 145.87 4.93Q146.26 5.09 146.72 5.23L146.72 5.23Q147.37 5.45 148.06 5.71Q148.76 5.98 149.32 6.37Q149.89 6.77 150.25 7.38Q150.61 7.99 150.61 8.88L150.61 8.88Q150.61 9.58 150.34 10.20Q150.08 10.82 149.47 11.28Q148.86 11.74 147.87 12Q146.89 12.26 145.45 12.26L145.45 12.26Q143.98 12.26 142.95 11.93Q141.92 11.59 141.30 11.33L141.30 11.33L141.75 8.86Q142.59 9.19 143.54 9.48Q144.49 9.77 145.47 9.77ZM155.43 7.80L155.43 3.17L152.86 3.17L152.86 0.72L155.43 0.72L155.43-2.11L158.38-2.59L158.38 0.72L163.11 0.72L163.11 3.17L158.38 3.17L158.38 7.73Q158.38 8.35 158.50 8.74Q158.62 9.12 158.84 9.34Q159.06 9.55 159.37 9.62Q159.68 9.70 160.06 9.70L160.06 9.70Q160.47 9.70 160.82 9.67Q161.17 9.65 161.49 9.59Q161.82 9.53 162.16 9.41Q162.51 9.29 162.92 9.10L162.92 9.10L163.33 11.64Q162.51 11.98 161.56 12.12Q160.62 12.26 159.73 12.26L159.73 12.26Q158.70 12.26 157.90 12.10Q157.11 11.93 156.56 11.45Q156.01 10.97 155.72 10.09Q155.43 9.22 155.43 7.80L155.43 7.80Z"/></g></svg>