<?xml version="1.0" encoding="UTF-8"?>
<svg height="26" width="114.89999999999999" version="1.1" xmlns="http://www.w3.org/2000/svg"><!--Created by Josélio de S. C. Júnior - 2021 - https://github.com/joseliojunior -->
    <rect
        height="24"
        width="112.89999999999999"
        rx="12"
        ry="12"
        x="1" y="1"
        fill="#00b841"
        stroke="#001f0b"
        stroke-width="1" />
    <g transform="translate(0, 8)">
        <path fill="#001f0b" stroke="none" d="M20.43 5.09L20.43 5.09Q20.43 2.53 21.38 1.22Q22.32-0.08 24-0.08L24-0.08Q25.74-0.08 26.66 1.22Q27.57 2.53 27.57 5.09L27.57 5.09Q27.57 7.33 26.85 8.62Q26.13 9.90 24.77 10.18L24.77 10.18Q24.94 10.58 25.62 10.84Q26.30 11.10 27.49 11.31L27.49 11.31L27.07 12.72Q25.20 12.46 24.25 11.86Q23.30 11.26 23.12 10.14L23.12 10.14Q21.82 9.82 21.13 8.55Q20.43 7.28 20.43 5.09ZM22.43 5.09L22.43 5.09Q22.43 5.81 22.49 6.43Q22.54 7.06 22.71 7.53Q22.88 8 23.18 8.27Q23.49 8.54 24 8.54L24 8.54Q24.50 8.54 24.81 8.27Q25.12 8 25.29 7.53Q25.46 7.06 25.51 6.43Q25.57 5.81 25.57 5.09L25.57 5.09Q25.57 4.37 25.51 3.74Q25.46 3.10 25.29 2.64Q25.12 2.18 24.82 1.90Q24.51 1.63 24 1.63L24 1.63Q23.49 1.63 23.18 1.90Q22.88 2.18 22.71 2.65Q22.54 3.12 22.49 3.74Q22.43 4.37 22.43 5.09ZM30.29 7.20L30.29 4.11L28.58 4.11L28.58 2.48L30.29 2.48L30.29 0.59L32.26 0.27L32.26 2.48L35.41 2.48L35.41 4.11L32.26 4.11L32.26 7.15Q32.26 7.57 32.34 7.82Q32.42 8.08 32.56 8.22Q32.70 8.37 32.91 8.42Q33.12 8.46 33.38 8.46L33.38 8.46Q33.65 8.46 33.88 8.45Q34.11 8.43 34.33 8.39Q34.54 8.35 34.78 8.27Q35.01 8.19 35.28 8.06L35.28 8.06L35.55 9.76Q35.01 9.98 34.38 10.08Q33.74 10.18 33.15 10.18L33.15 10.18Q32.46 10.18 31.94 10.06Q31.41 9.95 31.04 9.63Q30.67 9.31 30.48 8.73Q30.29 8.14 30.29 7.20L30.29 7.20ZM47.71 8.56L47.71 8.56Q48.21 8.56 48.54 8.46Q48.86 8.35 49.06 8.17Q49.25 7.98 49.32 7.75Q49.39 7.52 49.39 7.28L49.39 7.28Q49.39 6.98 49.22 6.74Q49.04 6.50 48.77 6.31Q48.50 6.13 48.16 5.98Q47.82 5.82 47.49 5.70L47.49 5.70Q47.04 5.54 46.56 5.33Q46.08 5.12 45.69 4.80Q45.30 4.48 45.04 4.01Q44.78 3.54 44.78 2.83L44.78 2.83Q44.78 1.44 45.69 0.66Q46.59-0.13 48.18-0.13L48.18-0.13Q49.09-0.13 49.77 0.08Q50.45 0.29 50.91 0.54L50.91 0.54L50.34 2.06Q49.94 1.84 49.45 1.68Q48.96 1.52 48.32 1.52L48.32 1.52Q46.75 1.52 46.75 2.66L46.75 2.66Q46.75 2.94 46.91 3.16Q47.07 3.38 47.32 3.54Q47.57 3.71 47.88 3.84Q48.19 3.97 48.50 4.08L48.50 4.08Q48.96 4.26 49.46 4.47Q49.97 4.69 50.39 5.05Q50.82 5.41 51.09 5.94Q51.36 6.48 51.36 7.30L51.36 7.30Q51.36 8.69 50.46 9.45Q49.55 10.21 47.71 10.21L47.71 10.21Q46.48 10.21 45.74 9.94Q45.01 9.68 44.64 9.46L44.64 9.46L45.22 7.86Q45.65 8.11 46.25 8.34Q46.85 8.56 47.71 8.56ZM52.70 6.24L52.70 6.24Q52.70 5.42 52.96 4.70Q53.22 3.98 53.74 3.45Q54.27 2.91 55.08 2.60Q55.89 2.29 57.01 2.29L57.01 2.29Q57.68 2.29 58.22 2.38Q58.77 2.48 59.33 2.70L59.33 2.70L58.90 4.29Q58.58 4.18 58.18 4.09Q57.79 4 57.18 4L57.18 4Q56.48 4 56.01 4.17Q55.54 4.34 55.25 4.63Q54.96 4.93 54.83 5.34Q54.70 5.76 54.70 6.24L54.70 6.24Q54.70 7.28 55.29 7.87Q55.87 8.46 57.28 8.46L57.28 8.46Q57.74 8.46 58.25 8.40Q58.75 8.34 59.17 8.19L59.17 8.19L59.46 9.81Q59.04 9.97 58.45 10.07Q57.86 10.18 57.06 10.18L57.06 10.18Q55.90 10.18 55.08 9.87Q54.26 9.57 53.73 9.04Q53.20 8.51 52.95 7.79Q52.70 7.07 52.70 6.24ZM67.34 2.66L66.99 4.48Q66.80 4.43 66.54 4.38Q66.27 4.34 66 4.30Q65.73 4.26 65.47 4.24Q65.22 4.22 65.04 4.22L65.04 4.22Q64.62 4.22 64.22 4.26Q63.82 4.30 63.41 4.42L63.41 4.42L63.41 10L61.42 10L61.42 2.98Q62.21 2.69 63.03 2.51Q63.86 2.34 64.96 2.34L64.96 2.34Q65.12 2.34 65.42 2.35Q65.71 2.37 66.05 2.41Q66.38 2.45 66.73 2.50Q67.07 2.56 67.34 2.66L67.34 2.66ZM72.54 0.32L72.54 0.32Q72.54 0.90 72.18 1.23Q71.81 1.57 71.30 1.57L71.30 1.57Q70.78 1.57 70.42 1.23Q70.06 0.90 70.06 0.32L70.06 0.32Q70.06-0.27 70.42-0.61Q70.78-0.94 71.30-0.94L71.30-0.94Q71.81-0.94 72.18-0.61Q72.54-0.27 72.54 0.32ZM75.22 8.10L75.47 9.68Q74.86 9.97 74.33 10.07Q73.79 10.18 73.34 10.18L73.34 10.18Q72.58 10.18 72.06 9.95Q71.54 9.73 71.22 9.30Q70.91 8.88 70.78 8.27Q70.66 7.66 70.66 6.88L70.66 6.88L70.66 4.11L68.58 4.11L68.58 2.48L72.62 2.48L72.62 7.14Q72.62 7.81 72.87 8.14Q73.12 8.46 73.70 8.46L73.70 8.46Q73.97 8.46 74.35 8.39Q74.74 8.32 75.22 8.10L75.22 8.10ZM81.50 6.30L81.50 6.30Q81.50 5.30 81.10 4.65Q80.70 4 79.89 4L79.89 4Q79.66 4 79.41 4.02Q79.15 4.05 78.98 4.06L78.98 4.06L78.98 8.19Q79.17 8.32 79.49 8.40Q79.81 8.48 80.13 8.48L80.13 8.48Q80.83 8.48 81.17 7.91Q81.50 7.34 81.50 6.30ZM83.50 6.24L83.50 6.24Q83.50 7.10 83.31 7.83Q83.12 8.56 82.75 9.08Q82.38 9.60 81.82 9.89Q81.26 10.18 80.53 10.18L80.53 10.18Q79.78 10.18 78.98 9.81L78.98 9.81L78.98 12.64L77.01 12.64L77.01 2.72Q77.55 2.54 78.34 2.43Q79.14 2.32 79.90 2.32L79.90 2.32Q81.65 2.32 82.58 3.38Q83.50 4.43 83.50 6.24ZM86.29 7.20L86.29 4.11L84.58 4.11L84.58 2.48L86.29 2.48L86.29 0.59L88.26 0.27L88.26 2.48L91.41 2.48L91.41 4.11L88.26 4.11L88.26 7.15Q88.26 7.57 88.34 7.82Q88.42 8.08 88.56 8.22Q88.70 8.37 88.91 8.42Q89.12 8.46 89.38 8.46L89.38 8.46Q89.65 8.46 89.88 8.45Q90.11 8.43 90.33 8.39Q90.54 8.35 90.78 8.27Q91.01 8.19 91.28 8.06L91.28 8.06L91.55 9.76Q91.01 9.98 90.38 10.08Q89.74 10.18 89.15 10.18L89.15 10.18Q88.46 10.18 87.94 10.06Q87.41 9.95 87.04 9.63Q86.67 9.31 86.48 8.73Q86.29 8.14 86.29 7.20L86.29 7.20Z"/>
    </g>
</svg>