<?xml version="1.0" encoding="UTF-8"?>
<svg height="34" width="148.89999999999998" version="1.1" xmlns="http://www.w3.org/2000/svg">
    <rect
        height="32"
        width="146.89999999999998"
        rx="14"
        ry="14"
        x="1"
        y="1"
        fill="#00b841"
        stroke="#001f0b"
        stroke-width="1"
         />
    <g transform="translate(0, 14)">
        <path fill="#001f0b" d="M10.76 2.40L10.76 2.40Q10.76-2.08 12.41-4.36Q14.06-6.64 17-6.64L17-6.64Q20.05-6.64 21.65-4.36Q23.24-2.08 23.24 2.40L23.24 2.40Q23.24 6.32 21.98 8.58Q20.72 10.83 18.34 11.31L18.34 11.31Q18.65 12.01 19.84 12.47Q21.03 12.93 23.10 13.30L23.10 13.30L22.38 15.76Q19.10 15.31 17.43 14.26Q15.77 13.21 15.46 11.25L15.46 11.25Q13.19 10.69 11.97 8.47Q10.76 6.24 10.76 2.40ZM14.26 2.40L14.26 2.40Q14.26 3.66 14.35 4.76Q14.45 5.85 14.75 6.67Q15.04 7.50 15.57 7.98Q16.10 8.45 17 8.45L17 8.45Q17.87 8.45 18.41 7.98Q18.96 7.50 19.25 6.67Q19.55 5.85 19.65 4.76Q19.74 3.66 19.74 2.40L19.74 2.40Q19.74 1.14 19.65 0.04Q19.55-1.07 19.25-1.88Q18.96-2.69 18.43-3.17Q17.90-3.64 17-3.64L17-3.64Q16.10-3.64 15.57-3.17Q15.04-2.69 14.75-1.87Q14.45-1.04 14.35 0.05Q14.26 1.14 14.26 2.40ZM28.00 6.10L28.00 0.70L25.01 0.70L25.01-2.16L28.00-2.16L28.00-5.46L31.45-6.02L31.45-2.16L36.96-2.16L36.96 0.70L31.45 0.70L31.45 6.02Q31.45 6.74 31.59 7.19Q31.73 7.64 31.98 7.89Q32.23 8.14 32.60 8.23Q32.96 8.31 33.41 8.31L33.41 8.31Q33.88 8.31 34.29 8.28Q34.70 8.26 35.07 8.19Q35.45 8.12 35.86 7.98Q36.26 7.84 36.74 7.61L36.74 7.61L37.22 10.58Q36.26 10.97 35.16 11.14Q34.05 11.31 33.02 11.31L33.02 11.31Q31.81 11.31 30.89 11.11Q29.96 10.92 29.32 10.36Q28.68 9.80 28.34 8.77Q28.00 7.75 28.00 6.10L28.00 6.10ZM58.50 8.48L58.50 8.48Q59.36 8.48 59.94 8.30Q60.51 8.12 60.85 7.79Q61.18 7.47 61.31 7.07Q61.44 6.66 61.44 6.24L61.44 6.24Q61.44 5.71 61.13 5.29Q60.82 4.87 60.34 4.55Q59.87 4.22 59.28 3.96Q58.69 3.69 58.10 3.47L58.10 3.47Q57.32 3.19 56.48 2.82Q55.64 2.46 54.95 1.90Q54.27 1.34 53.82 0.51Q53.37-0.31 53.37-1.54L53.37-1.54Q53.37-3.98 54.95-5.35Q56.54-6.72 59.31-6.72L59.31-6.72Q60.90-6.72 62.09-6.36Q63.28-6.00 64.10-5.55L64.10-5.55L63.09-2.89Q62.39-3.28 61.53-3.56Q60.68-3.84 59.56-3.84L59.56-3.84Q56.82-3.84 56.82-1.85L56.82-1.85Q56.82-1.35 57.10-0.97Q57.38-0.59 57.81-0.30Q58.24-0.00 58.79 0.22Q59.34 0.44 59.87 0.64L59.87 0.64Q60.68 0.95 61.56 1.33Q62.44 1.70 63.19 2.33Q63.93 2.96 64.40 3.90Q64.88 4.84 64.88 6.27L64.88 6.27Q64.88 8.70 63.30 10.03Q61.72 11.36 58.50 11.36L58.50 11.36Q56.34 11.36 55.05 10.90Q53.76 10.44 53.12 10.05L53.12 10.05L54.13 7.25Q54.88 7.70 55.93 8.09Q56.98 8.48 58.50 8.48ZM67.23 4.42L67.23 4.42Q67.23 2.99 67.68 1.73Q68.13 0.47 69.05-0.47Q69.98-1.40 71.39-1.95Q72.80-2.50 74.76-2.50L74.76-2.50Q75.94-2.50 76.89-2.33Q77.84-2.16 78.82-1.77L78.82-1.77L78.07 1.00Q77.51 0.81 76.82 0.65Q76.14 0.50 75.07 0.50L75.07 0.50Q73.84 0.50 73.01 0.79Q72.19 1.09 71.68 1.61Q71.18 2.12 70.96 2.85Q70.73 3.58 70.73 4.42L70.73 4.42Q70.73 6.24 71.75 7.28Q72.78 8.31 75.24 8.31L75.24 8.31Q76.05 8.31 76.93 8.20Q77.82 8.09 78.54 7.84L78.54 7.84L79.05 10.66Q78.32 10.94 77.28 11.13Q76.25 11.31 74.85 11.31L74.85 11.31Q72.83 11.31 71.39 10.78Q69.95 10.24 69.02 9.32Q68.10 8.40 67.67 7.14Q67.23 5.88 67.23 4.42ZM92.85-1.85L92.24 1.34Q91.90 1.26 91.44 1.17Q90.98 1.09 90.50 1.02Q90.02 0.95 89.58 0.92Q89.13 0.89 88.82 0.89L88.82 0.89Q88.09 0.89 87.39 0.96Q86.69 1.03 85.96 1.23L85.96 1.23L85.96 11L82.49 11L82.49-1.29Q83.86-1.80 85.31-2.10Q86.75-2.41 88.68-2.41L88.68-2.41Q88.96-2.41 89.48-2.38Q90.00-2.36 90.58-2.29Q91.17-2.22 91.77-2.12Q92.38-2.02 92.85-1.85L92.85-1.85ZM101.95-5.94L101.95-5.94Q101.95-4.93 101.31-4.34Q100.66-3.76 99.77-3.76L99.77-3.76Q98.87-3.76 98.24-4.34Q97.61-4.93 97.61-5.94L97.61-5.94Q97.61-6.98 98.24-7.56Q98.87-8.15 99.77-8.15L99.77-8.15Q100.66-8.15 101.31-7.56Q101.95-6.98 101.95-5.94ZM106.63 7.67L107.08 10.44Q106.01 10.94 105.07 11.13Q104.14 11.31 103.35 11.31L103.35 11.31Q102.01 11.31 101.10 10.92Q100.19 10.52 99.64 9.78Q99.10 9.04 98.87 7.98Q98.65 6.91 98.65 5.54L98.65 5.54L98.65 0.70L95.01 0.70L95.01-2.16L102.09-2.16L102.09 5.99Q102.09 7.16 102.53 7.74Q102.96 8.31 103.97 8.31L103.97 8.31Q104.44 8.31 105.12 8.19Q105.79 8.06 106.63 7.67L106.63 7.67ZM117.63 4.53L117.63 4.53Q117.63 2.77 116.93 1.63Q116.23 0.50 114.80 0.50L114.80 0.50Q114.41 0.50 113.96 0.54Q113.52 0.58 113.21 0.61L113.21 0.61L113.21 7.84Q113.54 8.06 114.10 8.20Q114.66 8.34 115.22 8.34L115.22 8.34Q116.46 8.34 117.04 7.35Q117.63 6.35 117.63 4.53ZM121.13 4.42L121.13 4.42Q121.13 5.93 120.80 7.21Q120.46 8.48 119.82 9.39Q119.17 10.30 118.19 10.80Q117.21 11.31 115.92 11.31L115.92 11.31Q114.61 11.31 113.21 10.66L113.21 10.66L113.21 15.62L109.76 15.62L109.76-1.74Q110.72-2.05 112.10-2.24Q113.49-2.44 114.83-2.44L114.83-2.44Q117.88-2.44 119.51-0.59Q121.13 1.26 121.13 4.42ZM126.00 6.10L126.00 0.70L123.01 0.70L123.01-2.16L126.00-2.16L126.00-5.46L129.45-6.02L129.45-2.16L134.96-2.16L134.96 0.70L129.45 0.70L129.45 6.02Q129.45 6.74 129.59 7.19Q129.73 7.64 129.98 7.89Q130.23 8.14 130.60 8.23Q130.96 8.31 131.41 8.31L131.41 8.31Q131.88 8.31 132.29 8.28Q132.70 8.26 133.07 8.19Q133.45 8.12 133.86 7.98Q134.26 7.84 134.74 7.61L134.74 7.61L135.22 10.58Q134.26 10.97 133.16 11.14Q132.05 11.31 131.02 11.31L131.02 11.31Q129.81 11.31 128.89 11.11Q127.96 10.92 127.32 10.36Q126.68 9.80 126.34 8.77Q126.00 7.75 126.00 6.10L126.00 6.10Z"/>
    </g>
</svg>