<?xml version="1.0" encoding="UTF-8"?>
<svg height="34" width="64.3" version="1.1" xmlns="http://www.w3.org/2000/svg">
    <rect
        height="32"
        width="62.3"
        rx="14"
        ry="14"
        x="1"
        y="1"
        fill="#DBCA00"
        stroke="#423d00"
        stroke-width="1"
         />
    <g transform="translate(0, 14)">
        <path fill="#423d00" d="M22.88 8.14L22.88 11L11.99 11L11.99-6.33L15.46-6.33L15.46 8.14L22.88 8.14ZM24.87 4.53L24.87 4.53Q24.87 2.80 25.40 1.48Q25.93 0.16 26.80-0.72Q27.67-1.60 28.79-2.05Q29.91-2.50 31.08-2.50L31.08-2.50Q34.00-2.50 35.51-0.77Q37.02 0.95 37.02 4.25L37.02 4.25Q37.02 4.59 37.01 4.95Q36.99 5.32 36.96 5.54L36.96 5.54L28.42 5.54Q28.42 6.83 29.49 7.57Q30.55 8.31 32.23 8.31L32.23 8.31Q33.27 8.31 34.21 8.09Q35.14 7.86 35.79 7.64L35.79 7.64L36.26 10.58Q35.37 10.89 34.36 11.10Q33.35 11.31 32.09 11.31L32.09 11.31Q30.41 11.31 29.08 10.87Q27.75 10.44 26.81 9.59Q25.88 8.73 25.37 7.47Q24.87 6.21 24.87 4.53ZM28.42 3.16L33.69 3.16Q33.69 2.63 33.55 2.14Q33.41 1.65 33.10 1.26Q32.79 0.86 32.32 0.63Q31.84 0.39 31.14 0.39L31.14 0.39Q30.47 0.39 29.98 0.61Q29.49 0.84 29.17 1.23Q28.84 1.62 28.66 2.12Q28.48 2.63 28.42 3.16L28.42 3.16ZM42.20-2.16L45.11 1.96L47.80-2.16L51.30-2.16L47.04 4.17Q47.72 4.98 48.36 5.89Q49.00 6.80 49.59 7.72Q50.18 8.65 50.66 9.49Q51.13 10.33 51.47 11L51.47 11L47.88 11Q47.13 9.57 46.37 8.45Q45.62 7.33 44.94 6.44L44.94 6.44Q44.10 7.56 43.43 8.62Q42.76 9.68 42.06 11L42.06 11L38.56 11Q38.98 10.22 39.53 9.36Q40.07 8.51 40.67 7.63Q41.28 6.74 41.93 5.88Q42.59 5.01 43.21 4.22L43.21 4.22L38.59-2.16L42.20-2.16Z"/>
    </g>
</svg>