<?xml version="1.0" encoding="UTF-8"?>
<svg height="34" width="120.7" version="1.1" xmlns="http://www.w3.org/2000/svg">
    <rect
        height="32"
        width="118.7"
        rx="14"
        ry="14"
        x="1"
        y="1"
        fill="#a957b0"
        stroke="#49244c"
        stroke-width="1"
         />
    <g transform="translate(0, 14)">
        <path fill="#49244c" d="M23.75 11L20.05 11L19.24 7.00L14.62 7.00L13.84 11L10.25 11Q11.48 5.88 12.74 1.66Q14.00-2.55 15.18-6.33L15.18-6.33L18.93-6.33Q20.16-2.52 21.38 1.75Q22.60 6.02 23.75 11L23.75 11ZM16.97-2.97L16.97-2.97Q16.69-1.99 16.45-1.11Q16.22-0.23 16.01 0.63Q15.80 1.48 15.61 2.35Q15.43 3.22 15.26 4.14L15.26 4.14L18.65 4.14Q18.48 3.22 18.32 2.35Q18.15 1.48 17.94 0.63Q17.73-0.23 17.49-1.11Q17.25-1.99 16.97-2.97ZM30.38 8.40L30.38 8.40Q31.64 8.40 32.32 8.21Q32.99 8.03 32.99 7.47L32.99 7.47Q32.99 7.11 32.78 6.86Q32.57 6.60 32.19 6.42Q31.81 6.24 31.32 6.07Q30.83 5.90 30.30 5.74L30.30 5.74Q29.54 5.51 28.76 5.22Q27.98 4.92 27.33 4.48Q26.69 4.03 26.27 3.34Q25.85 2.66 25.85 1.62L25.85 1.62Q25.85 0.78 26.17 0.04Q26.49-0.70 27.18-1.28Q27.86-1.85 28.93-2.17Q29.99-2.50 31.48-2.50L31.48-2.50Q32.76-2.50 33.87-2.30Q34.98-2.10 35.79-1.74L35.79-1.74L35.26 1.17Q34.78 1.03 33.77 0.71Q32.76 0.39 31.50 0.39L31.50 0.39Q30.19 0.39 29.73 0.71Q29.26 1.03 29.26 1.40L29.26 1.40Q29.26 1.70 29.47 1.94Q29.68 2.18 30.03 2.38Q30.38 2.57 30.85 2.75Q31.31 2.94 31.84 3.10L31.84 3.10Q32.60 3.36 33.41 3.66Q34.22 3.97 34.88 4.43Q35.54 4.90 35.96 5.61Q36.38 6.32 36.38 7.36L36.38 7.36Q36.38 8.17 36.07 8.90Q35.76 9.63 35.05 10.16Q34.33 10.69 33.18 11Q32.04 11.31 30.36 11.31L30.36 11.31Q28.65 11.31 27.44 10.92Q26.24 10.52 25.51 10.22L25.51 10.22L26.04 7.33Q27.02 7.72 28.13 8.06Q29.24 8.40 30.38 8.40ZM47.63 4.53L47.63 4.53Q47.63 2.77 46.93 1.63Q46.23 0.50 44.80 0.50L44.80 0.50Q44.41 0.50 43.96 0.54Q43.52 0.58 43.21 0.61L43.21 0.61L43.21 7.84Q43.54 8.06 44.10 8.20Q44.66 8.34 45.22 8.34L45.22 8.34Q46.46 8.34 47.04 7.35Q47.63 6.35 47.63 4.53ZM51.13 4.42L51.13 4.42Q51.13 5.93 50.80 7.21Q50.46 8.48 49.82 9.39Q49.17 10.30 48.19 10.80Q47.21 11.31 45.92 11.31L45.92 11.31Q44.61 11.31 43.21 10.66L43.21 10.66L43.21 15.62L39.76 15.62L39.76-1.74Q40.72-2.05 42.10-2.24Q43.49-2.44 44.83-2.44L44.83-2.44Q47.88-2.44 49.51-0.59Q51.13 1.26 51.13 4.42ZM52.87 4.53L52.87 4.53Q52.87 2.80 53.40 1.48Q53.93 0.16 54.80-0.72Q55.67-1.60 56.79-2.05Q57.91-2.50 59.08-2.50L59.08-2.50Q62.00-2.50 63.51-0.77Q65.02 0.95 65.02 4.25L65.02 4.25Q65.02 4.59 65.01 4.95Q64.99 5.32 64.96 5.54L64.96 5.54L56.42 5.54Q56.42 6.83 57.49 7.57Q58.55 8.31 60.23 8.31L60.23 8.31Q61.27 8.31 62.21 8.09Q63.14 7.86 63.79 7.64L63.79 7.64L64.26 10.58Q63.37 10.89 62.36 11.10Q61.35 11.31 60.09 11.31L60.09 11.31Q58.41 11.31 57.08 10.87Q55.75 10.44 54.81 9.59Q53.88 8.73 53.37 7.47Q52.87 6.21 52.87 4.53ZM56.42 3.16L61.69 3.16Q61.69 2.63 61.55 2.14Q61.41 1.65 61.10 1.26Q60.79 0.86 60.32 0.63Q59.84 0.39 59.14 0.39L59.14 0.39Q58.47 0.39 57.98 0.61Q57.49 0.84 57.17 1.23Q56.84 1.62 56.66 2.12Q56.48 2.63 56.42 3.16L56.42 3.16ZM67.23 4.42L67.23 4.42Q67.23 2.99 67.68 1.73Q68.13 0.47 69.05-0.47Q69.98-1.40 71.39-1.95Q72.80-2.50 74.76-2.50L74.76-2.50Q75.94-2.50 76.89-2.33Q77.84-2.16 78.82-1.77L78.82-1.77L78.07 1.00Q77.51 0.81 76.82 0.65Q76.14 0.50 75.07 0.50L75.07 0.50Q73.84 0.50 73.01 0.79Q72.19 1.09 71.68 1.61Q71.18 2.12 70.96 2.85Q70.73 3.58 70.73 4.42L70.73 4.42Q70.73 6.24 71.75 7.28Q72.78 8.31 75.24 8.31L75.24 8.31Q76.05 8.31 76.93 8.20Q77.82 8.09 78.54 7.84L78.54 7.84L79.05 10.66Q78.32 10.94 77.28 11.13Q76.25 11.31 74.85 11.31L74.85 11.31Q72.83 11.31 71.39 10.78Q69.95 10.24 69.02 9.32Q68.10 8.40 67.67 7.14Q67.23 5.88 67.23 4.42ZM84.00 6.10L84.00 0.70L81.01 0.70L81.01-2.16L84.00-2.16L84.00-5.46L87.45-6.02L87.45-2.16L92.96-2.16L92.96 0.70L87.45 0.70L87.45 6.02Q87.45 6.74 87.59 7.19Q87.73 7.64 87.98 7.89Q88.23 8.14 88.60 8.23Q88.96 8.31 89.41 8.31L89.41 8.31Q89.88 8.31 90.29 8.28Q90.70 8.26 91.07 8.19Q91.45 8.12 91.86 7.98Q92.26 7.84 92.74 7.61L92.74 7.61L93.22 10.58Q92.26 10.97 91.16 11.14Q90.05 11.31 89.02 11.31L89.02 11.31Q87.81 11.31 86.89 11.11Q85.96 10.92 85.32 10.36Q84.68 9.80 84.34 8.77Q84.00 7.75 84.00 6.10L84.00 6.10ZM106.26-6.33L106.26 5.20Q106.26 6.46 105.94 7.58Q105.62 8.70 104.88 9.54Q104.14 10.38 102.96 10.87Q101.78 11.36 100.10 11.36L100.10 11.36Q98.34 11.36 97.16 10.92Q95.99 10.47 95.18 9.82L95.18 9.82L96.49 7.08Q97.19 7.53 98.05 7.95Q98.90 8.37 99.80 8.37L99.80 8.37Q101.14 8.37 101.97 7.65Q102.79 6.94 102.79 5.01L102.79 5.01L102.79-3.48L97.00-3.48L97.00-6.33L106.26-6.33Z"/>
    </g>
</svg>