<?xml version="1.0" encoding="UTF-8"?>
<svg height="26" width="66.3" version="1.1" xmlns="http://www.w3.org/2000/svg"><!--Created by Josélio de S. C. Júnior - 2021 - https://github.com/joseliojunior -->
    <defs>
        <pattern id="pattern"
                x="3" y="3" width="6" height="6"
                patternUnits="userSpaceOnUse"
                patternTransform="rotate(45)" >
            <rect height="6" width="6"
                fill="#ffffff"/>
            <line x1="0" y1="0" x2="0" y2="6"
                stroke="#bbbbbb"
                stroke-width="2" />
        </pattern>
    </defs>
    <rect
        height="24"
        width="64.3"
        rx="12"
        ry="12"
        x="1" y="1"
        fill="url(#pattern)" />
    <g transform="translate(0, 8)">
        <path fill="#000000" d="M23.71 8.56L23.71 8.56Q24.21 8.56 24.54 8.46Q24.86 8.35 25.06 8.17Q25.25 7.98 25.32 7.75Q25.39 7.52 25.39 7.28L25.39 7.28Q25.39 6.98 25.22 6.74Q25.04 6.50 24.77 6.31Q24.50 6.13 24.16 5.98Q23.82 5.82 23.49 5.70L23.49 5.70Q23.04 5.54 22.56 5.33Q22.08 5.12 21.69 4.80Q21.30 4.48 21.04 4.01Q20.78 3.54 20.78 2.83L20.78 2.83Q20.78 1.44 21.69 0.66Q22.59-0.13 24.18-0.13L24.18-0.13Q25.09-0.13 25.77 0.08Q26.45 0.29 26.91 0.54L26.91 0.54L26.34 2.06Q25.94 1.84 25.45 1.68Q24.96 1.52 24.32 1.52L24.32 1.52Q22.75 1.52 22.75 2.66L22.75 2.66Q22.75 2.94 22.91 3.16Q23.07 3.38 23.32 3.54Q23.57 3.71 23.88 3.84Q24.19 3.97 24.50 4.08L24.50 4.08Q24.96 4.26 25.46 4.47Q25.97 4.69 26.39 5.05Q26.82 5.41 27.09 5.94Q27.36 6.48 27.36 7.30L27.36 7.30Q27.36 8.69 26.46 9.45Q25.55 10.21 23.71 10.21L23.71 10.21Q22.48 10.21 21.74 9.94Q21.01 9.68 20.64 9.46L20.64 9.46L21.22 7.86Q21.65 8.11 22.25 8.34Q22.85 8.56 23.71 8.56ZM28.94 0.10L30.58 0.10Q30.69 0.43 30.86 0.96Q31.02 1.49 31.22 2.10Q31.41 2.70 31.60 3.33Q31.79 3.95 31.97 4.48L31.97 4.48Q32.16 3.89 32.37 3.26Q32.58 2.62 32.77 2.04Q32.96 1.46 33.12 0.94Q33.28 0.43 33.41 0.10L33.41 0.10L35.04 0.10Q35.15 1.39 35.26 2.62Q35.36 3.86 35.43 5.06Q35.50 6.27 35.55 7.50Q35.60 8.72 35.63 10L35.63 10L33.82 10L33.92 2.30L32.70 6.50L31.26 6.50L30.10 2.30L30.18 10L28.37 10Q28.42 8.78 28.47 7.47Q28.53 6.16 28.59 4.86Q28.66 3.57 28.74 2.35Q28.83 1.14 28.94 0.10L28.94 0.10ZM36.40 0.10L43.60 0.10L43.60 1.73L40.99 1.73L40.99 10L39.01 10L39.01 1.73L36.40 1.73L36.40 0.10Z"/>
    </g>
</svg>