<?xml version="1.0" encoding="UTF-8"?>
<svg height="34" width="177.1" version="1.1" xmlns="http://www.w3.org/2000/svg">
    <rect
        height="32"
        width="175.1"
        rx="14"
        ry="14"
        x="1"
        y="1"
        fill="#000000"
        stroke="#4d4d4d"
        stroke-width="1"
         />
    <g transform="translate(0, 14)">
        <path fill="#4d4d4d" d="M22.52 11L11.51 11L11.51 8.14L15.29 8.14L15.29-3.48L11.51-3.48L11.51-6.33L22.52-6.33L22.52-3.48L18.76-3.48L18.76 8.14L22.52 8.14L22.52 11ZM28.42 4L28.42 4Q28.42 5.62 29.01 6.48Q29.60 7.33 30.86 7.33L30.86 7.33Q31.42 7.33 31.91 7.19Q32.40 7.05 32.79 6.83L32.79 6.83L32.79 0.50Q32.40 0.42 32.09 0.39Q31.78 0.36 31.45 0.36L31.45 0.36Q28.42 0.36 28.42 4ZM36.26-1.74L36.26 9.40Q36.26 12.62 34.71 14.16Q33.16 15.70 29.71 15.70L29.71 15.70Q28.48 15.70 27.35 15.45Q26.21 15.20 25.18 14.86L25.18 14.86L25.82 11.95Q26.63 12.26 27.53 12.53Q28.42 12.79 29.77 12.79L29.77 12.79Q30.66 12.79 31.25 12.58Q31.84 12.37 32.18 12.01Q32.51 11.64 32.65 11.15Q32.79 10.66 32.79 10.10L32.79 10.10L32.79 9.57Q32.06 9.85 31.46 9.99Q30.86 10.13 30.16 10.13L30.16 10.13Q27.58 10.13 26.25 8.51Q24.92 6.88 24.92 4L24.92 4Q24.92 0.75 26.72-0.84Q28.51-2.44 31.59-2.44L31.59-2.44Q33.74-2.44 36.26-1.74L36.26-1.74ZM39.76 11L39.76-1.74Q40.69-1.99 42.05-2.22Q43.40-2.44 45-2.44L45-2.44Q46.57-2.44 47.60-2.01Q48.64-1.57 49.24-0.77Q49.84 0.02 50.10 1.13Q50.35 2.24 50.35 3.58L50.35 3.58L50.35 11L46.90 11L46.90 4.03Q46.90 2.18 46.48 1.37Q46.06 0.56 44.78 0.56L44.78 0.56Q44.38 0.56 44.01 0.58Q43.63 0.61 43.21 0.67L43.21 0.67L43.21 11L39.76 11ZM65.22 4.39L65.22 4.39Q65.22 5.96 64.77 7.23Q64.32 8.51 63.51 9.43Q62.70 10.36 61.56 10.86Q60.43 11.36 59.03 11.36L59.03 11.36Q57.63 11.36 56.49 10.86Q55.36 10.36 54.53 9.43Q53.71 8.51 53.26 7.23Q52.81 5.96 52.81 4.39L52.81 4.39Q52.81 2.85 53.27 1.58Q53.74 0.30 54.56-0.61Q55.39-1.52 56.54-2.01Q57.68-2.50 59.03-2.50L59.03-2.50Q60.40-2.50 61.53-2.01Q62.67-1.52 63.49-0.61Q64.32 0.30 64.77 1.58Q65.22 2.85 65.22 4.39ZM56.31 4.42L56.31 4.42Q56.31 6.18 56.94 7.28Q57.57 8.37 58.97 8.37L58.97 8.37Q60.32 8.37 61.00 7.28Q61.69 6.18 61.69 4.42L61.69 4.42Q61.69 2.66 61.06 1.58Q60.43 0.50 59.03 0.50L59.03 0.50Q57.68 0.50 57.00 1.58Q56.31 2.66 56.31 4.42ZM78.85-1.85L78.24 1.34Q77.90 1.26 77.44 1.17Q76.98 1.09 76.50 1.02Q76.02 0.95 75.58 0.92Q75.13 0.89 74.82 0.89L74.82 0.89Q74.09 0.89 73.39 0.96Q72.69 1.03 71.96 1.23L71.96 1.23L71.96 11L68.49 11L68.49-1.29Q69.86-1.80 71.31-2.10Q72.75-2.41 74.68-2.41L74.68-2.41Q74.96-2.41 75.48-2.38Q76.00-2.36 76.58-2.29Q77.17-2.22 77.77-2.12Q78.38-2.02 78.85-1.85L78.85-1.85ZM80.87 4.53L80.87 4.53Q80.87 2.80 81.40 1.48Q81.93 0.16 82.80-0.72Q83.67-1.60 84.79-2.05Q85.91-2.50 87.08-2.50L87.08-2.50Q90.00-2.50 91.51-0.77Q93.02 0.95 93.02 4.25L93.02 4.25Q93.02 4.59 93.01 4.95Q92.99 5.32 92.96 5.54L92.96 5.54L84.42 5.54Q84.42 6.83 85.49 7.57Q86.55 8.31 88.23 8.31L88.23 8.31Q89.27 8.31 90.21 8.09Q91.14 7.86 91.79 7.64L91.79 7.64L92.26 10.58Q91.37 10.89 90.36 11.10Q89.35 11.31 88.09 11.31L88.09 11.31Q86.41 11.31 85.08 10.87Q83.75 10.44 82.81 9.59Q81.88 8.73 81.37 7.47Q80.87 6.21 80.87 4.53ZM84.42 3.16L89.69 3.16Q89.69 2.63 89.55 2.14Q89.41 1.65 89.10 1.26Q88.79 0.86 88.32 0.63Q87.84 0.39 87.14 0.39L87.14 0.39Q86.47 0.39 85.98 0.61Q85.49 0.84 85.17 1.23Q84.84 1.62 84.66 2.12Q84.48 2.63 84.42 3.16L84.42 3.16ZM120.88 8.14L120.88 11L109.99 11L109.99-6.33L113.46-6.33L113.46 8.14L120.88 8.14ZM129.95-5.94L129.95-5.94Q129.95-4.93 129.31-4.34Q128.66-3.76 127.77-3.76L127.77-3.76Q126.87-3.76 126.24-4.34Q125.61-4.93 125.61-5.94L125.61-5.94Q125.61-6.98 126.24-7.56Q126.87-8.15 127.77-8.15L127.77-8.15Q128.66-8.15 129.31-7.56Q129.95-6.98 129.95-5.94ZM134.63 7.67L135.08 10.44Q134.01 10.94 133.07 11.13Q132.14 11.31 131.35 11.31L131.35 11.31Q130.01 11.31 129.10 10.92Q128.19 10.52 127.64 9.78Q127.10 9.04 126.87 7.98Q126.65 6.91 126.65 5.54L126.65 5.54L126.65 0.70L123.01 0.70L123.01-2.16L130.09-2.16L130.09 5.99Q130.09 7.16 130.53 7.74Q130.96 8.31 131.97 8.31L131.97 8.31Q132.44 8.31 133.12 8.19Q133.79 8.06 134.63 7.67L134.63 7.67ZM142.38 8.40L142.38 8.40Q143.64 8.40 144.32 8.21Q144.99 8.03 144.99 7.47L144.99 7.47Q144.99 7.11 144.78 6.86Q144.57 6.60 144.19 6.42Q143.81 6.24 143.32 6.07Q142.83 5.90 142.30 5.74L142.30 5.74Q141.54 5.51 140.76 5.22Q139.98 4.92 139.33 4.48Q138.69 4.03 138.27 3.34Q137.85 2.66 137.85 1.62L137.85 1.62Q137.85 0.78 138.17 0.04Q138.49-0.70 139.18-1.28Q139.86-1.85 140.93-2.17Q141.99-2.50 143.48-2.50L143.48-2.50Q144.76-2.50 145.87-2.30Q146.98-2.10 147.79-1.74L147.79-1.74L147.26 1.17Q146.78 1.03 145.77 0.71Q144.76 0.39 143.50 0.39L143.50 0.39Q142.19 0.39 141.73 0.71Q141.26 1.03 141.26 1.40L141.26 1.40Q141.26 1.70 141.47 1.94Q141.68 2.18 142.03 2.38Q142.38 2.57 142.85 2.75Q143.31 2.94 143.84 3.10L143.84 3.10Q144.60 3.36 145.41 3.66Q146.22 3.97 146.88 4.43Q147.54 4.90 147.96 5.61Q148.38 6.32 148.38 7.36L148.38 7.36Q148.38 8.17 148.07 8.90Q147.76 9.63 147.05 10.16Q146.33 10.69 145.18 11Q144.04 11.31 142.36 11.31L142.36 11.31Q140.65 11.31 139.44 10.92Q138.24 10.52 137.51 10.22L137.51 10.22L138.04 7.33Q139.02 7.72 140.13 8.06Q141.24 8.40 142.38 8.40ZM154.00 6.10L154.00 0.70L151.01 0.70L151.01-2.16L154.00-2.16L154.00-5.46L157.45-6.02L157.45-2.16L162.96-2.16L162.96 0.70L157.45 0.70L157.45 6.02Q157.45 6.74 157.59 7.19Q157.73 7.64 157.98 7.89Q158.23 8.14 158.60 8.23Q158.96 8.31 159.41 8.31L159.41 8.31Q159.88 8.31 160.29 8.28Q160.70 8.26 161.07 8.19Q161.45 8.12 161.86 7.98Q162.26 7.84 162.74 7.61L162.74 7.61L163.22 10.58Q162.26 10.97 161.16 11.14Q160.05 11.31 159.02 11.31L159.02 11.31Q157.81 11.31 156.89 11.11Q155.96 10.92 155.32 10.36Q154.68 9.80 154.34 8.77Q154.00 7.75 154.00 6.10L154.00 6.10Z"/>
    </g>
</svg>