<?xml version="1.0" encoding="UTF-8"?>
<svg height="34" width="78.4" version="1.1" xmlns="http://www.w3.org/2000/svg">
    <rect
        height="32"
        width="76.4"
        rx="14"
        ry="14"
        x="1"
        y="1"
        fill="#cb171e"
        stroke="#400709"
        stroke-width="1"
         />
    <g transform="translate(0, 14)">
        <path fill="#400709" d="M17.11 1.59L17.11 1.59Q17.42 0.95 17.83-0.03Q18.23-1.01 18.64-2.10Q19.04-3.20 19.42-4.32Q19.80-5.44 20.11-6.33L20.11-6.33L23.66-6.33Q23.13-4.90 22.60-3.56Q22.07-2.22 21.48-0.90Q20.89 0.42 20.22 1.72Q19.55 3.02 18.76 4.39L18.76 4.39L18.76 11L15.29 11L15.29 4.42Q13.75 1.70 12.59-0.89Q11.43-3.48 10.36-6.33L10.36-6.33L14.06-6.33Q14.70-4.32 15.49-2.23Q16.27-0.14 17.11 1.59ZM37.75 11L34.05 11L33.24 7.00L28.62 7.00L27.84 11L24.25 11Q25.48 5.88 26.74 1.66Q28.00-2.55 29.18-6.33L29.18-6.33L32.93-6.33Q34.16-2.52 35.38 1.75Q36.60 6.02 37.75 11L37.75 11ZM30.97-2.97L30.97-2.97Q30.69-1.99 30.45-1.11Q30.22-0.23 30.01 0.63Q29.80 1.48 29.61 2.35Q29.43 3.22 29.26 4.14L29.26 4.14L32.65 4.14Q32.48 3.22 32.32 2.35Q32.15 1.48 31.94 0.63Q31.73-0.23 31.49-1.11Q31.25-1.99 30.97-2.97ZM39.65-6.33L42.51-6.33Q42.70-5.74 43.00-4.82Q43.29-3.90 43.63-2.83Q43.96-1.77 44.30-0.68Q44.64 0.42 44.94 1.34L44.94 1.34Q45.28 0.30 45.64-0.80Q46.01-1.91 46.34-2.93Q46.68-3.95 46.96-4.85Q47.24-5.74 47.46-6.33L47.46-6.33L50.32-6.33Q50.52-4.06 50.70-1.91Q50.88 0.25 51.01 2.36Q51.13 4.48 51.22 6.62Q51.30 8.76 51.36 11L51.36 11L48.19 11L48.36-2.47L46.23 4.87L43.71 4.87L41.67-2.47L41.81 11L38.64 11Q38.73 8.87 38.83 6.58Q38.92 4.28 39.04 2.01Q39.15-0.26 39.30-2.38Q39.46-4.51 39.65-6.33L39.65-6.33ZM64.88 8.14L64.88 11L53.99 11L53.99-6.33L57.46-6.33L57.46 8.14L64.88 8.14Z"/>
    </g>
</svg>