<?xml version="1.0" encoding="UTF-8"?>
<svg height="26" width="74.4" version="1.1" xmlns="http://www.w3.org/2000/svg"><!--Created by Josélio de S. C. Júnior - 2021 - https://github.com/joseliojunior -->
    <rect
        height="24"
        width="72.4"
        rx="12"
        ry="12"
        x="1" y="1"
        fill="#5EC8DB"
        stroke="#1d7281"
        stroke-width="1" />
    <g transform="translate(0, 8)">
        <path fill="#1d7281" d="M20.94 0.10L22.58 0.10Q22.69 0.43 22.86 0.96Q23.02 1.49 23.22 2.10Q23.41 2.70 23.60 3.33Q23.79 3.95 23.97 4.48L23.97 4.48Q24.16 3.89 24.37 3.26Q24.58 2.62 24.77 2.04Q24.96 1.46 25.12 0.94Q25.28 0.43 25.41 0.10L25.41 0.10L27.04 0.10Q27.15 1.39 27.26 2.62Q27.36 3.86 27.43 5.06Q27.50 6.27 27.55 7.50Q27.60 8.72 27.63 10L27.63 10L25.82 10L25.92 2.30L24.70 6.50L23.26 6.50L22.10 2.30L22.18 10L20.37 10Q20.42 8.78 20.47 7.47Q20.53 6.16 20.59 4.86Q20.66 3.57 20.74 2.35Q20.83 1.14 20.94 0.10L20.94 0.10ZM35.36 8.37L35.36 10L29.14 10L29.14 0.10L31.12 0.10L31.12 8.37L35.36 8.37ZM43.15 10L36.86 10L36.86 8.37L39.02 8.37L39.02 1.73L36.86 1.73L36.86 0.10L43.15 0.10L43.15 1.73L41.01 1.73L41.01 8.37L43.15 8.37L43.15 10ZM47.42-0.02L47.42-0.02Q48.27-0.02 48.96 0.18Q49.65 0.37 50.14 0.77Q50.64 1.17 50.90 1.78Q51.17 2.40 51.17 3.23L51.17 3.23Q51.17 4.10 50.82 4.80Q50.46 5.50 49.65 5.87L49.65 5.87Q49.92 6.29 50.22 6.79Q50.53 7.30 50.82 7.85Q51.10 8.40 51.37 8.95Q51.63 9.50 51.82 10L51.82 10L49.76 10Q49.39 9.04 48.90 8.15Q48.42 7.26 47.86 6.35L47.86 6.35L46.83 6.35L46.83 10L44.86 10L44.86 0.24Q45.15 0.18 45.50 0.12Q45.84 0.06 46.19 0.04Q46.54 0.02 46.86 0Q47.18-0.02 47.42-0.02ZM49.17 3.22L49.17 3.22Q49.17 2.43 48.69 2.06Q48.21 1.70 47.42 1.70L47.42 1.70Q47.31 1.70 47.15 1.70Q46.99 1.71 46.83 1.74L46.83 1.74L46.83 4.72L47.26 4.72Q48.27 4.72 48.72 4.33Q49.17 3.94 49.17 3.22Z"/>
    </g>
</svg>