<?xml version="1.0" encoding="UTF-8"?>
<svg height="322" width="90.4" version="1.1" xmlns="http://www.w3.org/2000/svg"><!--Created by Josélio de S. C. Júnior - 2021 - https://github.com/joseliojunior -->
    <rect
        height="32"
        width="88.4"
        rx="1"
        ry="1"
        x="1" y="1"
        fill="#5EC8DB"
        stroke="#1d7281"
        stroke-width="1" />
    <g transform="translate(0, 12)">
        <path fill="#1d7281" stroke="none" d="M21.42-2.86L23.86-2.86Q24.03-2.35 24.28-1.56Q24.54-0.77 24.82 0.14Q25.11 1.06 25.40 1.99Q25.69 2.93 25.95 3.72L25.95 3.72Q26.24 2.83 26.55 1.88Q26.86 0.94 27.15 0.06Q27.44-0.82 27.68-1.58Q27.92-2.35 28.11-2.86L28.11-2.86L30.56-2.86Q30.73-0.91 30.88 0.94Q31.04 2.78 31.15 4.60Q31.26 6.41 31.33 8.24Q31.40 10.08 31.45 12L31.45 12L28.74 12L28.88 0.46L27.06 6.74L24.90 6.74L23.14 0.46L23.26 12L20.55 12Q20.62 10.18 20.71 8.21Q20.79 6.24 20.89 4.30Q20.98 2.35 21.12 0.53Q21.25-1.30 21.42-2.86L21.42-2.86ZM43.04 9.55L43.04 12L33.70 12L33.70-2.86L36.68-2.86L36.68 9.55L43.04 9.55ZM54.73 12L45.30 12L45.30 9.55L48.54 9.55L48.54-0.41L45.30-0.41L45.30-2.86L54.73-2.86L54.73-0.41L51.51-0.41L51.51 9.55L54.73 9.55L54.73 12ZM61.14-3.02L61.14-3.02Q62.41-3.02 63.44-2.74Q64.47-2.45 65.22-1.85Q65.96-1.25 66.36-0.32Q66.75 0.60 66.75 1.85L66.75 1.85Q66.75 3.14 66.22 4.20Q65.70 5.26 64.47 5.81L64.47 5.81Q64.88 6.43 65.34 7.19Q65.79 7.94 66.22 8.77Q66.66 9.60 67.05 10.43Q67.45 11.26 67.74 12L67.74 12L64.64 12Q64.09 10.56 63.36 9.23Q62.62 7.90 61.78 6.53L61.78 6.53L60.25 6.53L60.25 12L57.30 12L57.30-2.64Q57.73-2.74 58.24-2.82Q58.76-2.90 59.29-2.94Q59.82-2.98 60.30-3Q60.78-3.02 61.14-3.02ZM63.75 1.82L63.75 1.82Q63.75 0.65 63.03 0.10Q62.31-0.46 61.14-0.46L61.14-0.46Q60.97-0.46 60.73-0.44Q60.49-0.43 60.25-0.38L60.25-0.38L60.25 4.08L60.90 4.08Q62.41 4.08 63.08 3.49Q63.75 2.90 63.75 1.82Z"/>
    </g>
</svg>