<?xml version="1.0" encoding="UTF-8"?><svg height="34" width="308.2" version="1.1" xmlns="http://www.w3.org/2000/svg"><!--Created by Josélio de S. C. Júnior - 2021 - https://github.com/joseliojunior --><defs><pattern id="pattern" x="3" y="3" width="6" height="6" patternUnits="userSpaceOnUse" patternTransform="rotate(45)"><rect height="6" width="6" fill="#ffffff"/><line x1="0" y1="0" x2="0" y2="6" stroke="#bbbbbb" stroke-width="2" /></pattern></defs><rect height="32" width="306.2" rx="16" ry="16" x="1" y="1" fill="url(#pattern)" /><g transform="translate(0, 12)"><path fill="#000000" d="M31.74 12L28.54 12Q28.09 10.78 27.43 9.29Q26.77 7.80 26.05 6.31L26.05 6.31Q25.35 7.73 24.66 9.25Q23.96 10.78 23.46 12L23.46 12L20.26 12Q20.50 11.35 20.97 10.44Q21.44 9.53 22.00 8.47Q22.57 7.42 23.19 6.30Q23.82 5.18 24.39 4.15L24.39 4.15L20.50-2.86L23.70-2.86L26.05 1.90L28.52-2.86L31.50-2.86L27.70 4.08Q28.35 5.11 28.98 6.24Q29.60 7.37 30.14 8.44Q30.68 9.50 31.09 10.43Q31.50 11.35 31.74 12L31.74 12ZM48.46 12L45.51 12L45.51-2.86L54.61-2.86L54.61-0.41L48.46-0.41L48.46 3.19L53.84 3.19L53.84 5.64L48.46 5.64L48.46 12ZM67.33 6.34L67.33 6.34Q67.33 7.68 66.94 8.77Q66.56 9.86 65.86 10.66Q65.17 11.45 64.20 11.88Q63.22 12.31 62.02 12.31L62.02 12.31Q60.82 12.31 59.85 11.88Q58.88 11.45 58.17 10.66Q57.46 9.86 57.08 8.77Q56.70 7.68 56.70 6.34L56.70 6.34Q56.70 5.02 57.09 3.92Q57.49 2.83 58.20 2.05Q58.90 1.27 59.89 0.85Q60.87 0.43 62.02 0.43L62.02 0.43Q63.20 0.43 64.17 0.85Q65.14 1.27 65.85 2.05Q66.56 2.83 66.94 3.92Q67.33 5.02 67.33 6.34ZM59.70 6.36L59.70 6.36Q59.70 7.87 60.24 8.81Q60.78 9.74 61.98 9.74L61.98 9.74Q63.13 9.74 63.72 8.81Q64.30 7.87 64.30 6.36L64.30 6.36Q64.30 4.85 63.76 3.92Q63.22 3 62.02 3L62.02 3Q60.87 3 60.28 3.92Q59.70 4.85 59.70 6.36ZM69.51 12L69.51 1.08Q70.30 0.86 71.47 0.67Q72.63 0.48 74 0.48L74 0.48Q75.34 0.48 76.23 0.85Q77.12 1.22 77.64 1.91Q78.15 2.59 78.37 3.54Q78.58 4.49 78.58 5.64L78.58 5.64L78.58 12L75.63 12L75.63 6.02Q75.63 4.44 75.27 3.74Q74.91 3.05 73.81 3.05L73.81 3.05Q73.47 3.05 73.15 3.07Q72.82 3.10 72.46 3.14L72.46 3.14L72.46 12L69.51 12ZM83.43 7.80L83.43 3.17L80.86 3.17L80.86 0.72L83.43 0.72L83.43-2.11L86.38-2.59L86.38 0.72L91.11 0.72L91.11 3.17L86.38 3.17L86.38 7.73Q86.38 8.35 86.50 8.74Q86.62 9.12 86.84 9.34Q87.06 9.55 87.37 9.62Q87.68 9.70 88.06 9.70L88.06 9.70Q88.47 9.70 88.82 9.67Q89.17 9.65 89.49 9.59Q89.82 9.53 90.16 9.41Q90.51 9.29 90.92 9.10L90.92 9.10L91.33 11.64Q90.51 11.98 89.56 12.12Q88.62 12.26 87.73 12.26L87.73 12.26Q86.70 12.26 85.90 12.10Q85.11 11.93 84.56 11.45Q84.01 10.97 83.72 10.09Q83.43 9.22 83.43 7.80L83.43 7.80ZM108.25-0.38L108.25 9.60Q108.37 9.62 108.51 9.62Q108.66 9.62 108.78 9.62L108.78 9.62Q109.78 9.62 110.47 9.24Q111.15 8.86 111.57 8.18Q111.99 7.51 112.17 6.59Q112.35 5.66 112.35 4.56L112.35 4.56Q112.35 3.60 112.21 2.69Q112.06 1.78 111.70 1.08Q111.34 0.38 110.72-0.04Q110.10-0.46 109.11-0.46L109.11-0.46Q108.92-0.46 108.68-0.44Q108.44-0.43 108.25-0.38L108.25-0.38ZM115.35 4.56L115.35 4.56Q115.35 6.62 114.84 8.08Q114.32 9.53 113.41 10.44Q112.50 11.35 111.24 11.77Q109.98 12.19 108.46 12.19L108.46 12.19Q107.67 12.19 106.92 12.11Q106.16 12.02 105.30 11.83L105.30 11.83L105.30-2.66Q106.30-2.88 107.19-2.95Q108.08-3.02 108.85-3.02L108.85-3.02Q110.31-3.02 111.52-2.59Q112.74-2.16 113.58-1.24Q114.42-0.31 114.88 1.12Q115.35 2.54 115.35 4.56ZM122.82-2.52L122.82-2.52Q122.82-1.66 122.26-1.15Q121.71-0.65 120.94-0.65L120.94-0.65Q120.18-0.65 119.64-1.15Q119.10-1.66 119.10-2.52L119.10-2.52Q119.10-3.41 119.64-3.91Q120.18-4.42 120.94-4.42L120.94-4.42Q121.71-4.42 122.26-3.91Q122.82-3.41 122.82-2.52ZM126.82 9.14L127.21 11.52Q126.30 11.95 125.49 12.11Q124.69 12.26 124.02 12.26L124.02 12.26Q122.86 12.26 122.08 11.93Q121.30 11.59 120.84 10.96Q120.37 10.32 120.18 9.41Q119.98 8.50 119.98 7.32L119.98 7.32L119.98 3.17L116.86 3.17L116.86 0.72L122.94 0.72L122.94 7.70Q122.94 8.71 123.31 9.20Q123.68 9.70 124.54 9.70L124.54 9.70Q124.95 9.70 125.53 9.59Q126.10 9.48 126.82 9.14L126.82 9.14ZM139.02 0.98L138.49 3.72Q138.20 3.65 137.80 3.58Q137.41 3.50 137 3.44Q136.59 3.38 136.21 3.36Q135.82 3.34 135.56 3.34L135.56 3.34Q134.94 3.34 134.34 3.40Q133.74 3.46 133.11 3.62L133.11 3.62L133.11 12L130.14 12L130.14 1.46Q131.31 1.03 132.55 0.77Q133.78 0.50 135.44 0.50L135.44 0.50Q135.68 0.50 136.12 0.53Q136.57 0.55 137.07 0.61Q137.58 0.67 138.09 0.76Q138.61 0.84 139.02 0.98L139.02 0.98ZM140.74 6.46L140.74 6.46Q140.74 4.97 141.20 3.84Q141.66 2.71 142.40 1.96Q143.14 1.20 144.10 0.82Q145.06 0.43 146.07 0.43L146.07 0.43Q148.57 0.43 149.86 1.91Q151.16 3.38 151.16 6.22L151.16 6.22Q151.16 6.50 151.15 6.82Q151.14 7.13 151.11 7.32L151.11 7.32L143.79 7.32Q143.79 8.42 144.70 9.06Q145.62 9.70 147.06 9.70L147.06 9.70Q147.94 9.70 148.75 9.50Q149.55 9.31 150.10 9.12L150.10 9.12L150.51 11.64Q149.74 11.90 148.88 12.08Q148.02 12.26 146.94 12.26L146.94 12.26Q145.50 12.26 144.36 11.89Q143.22 11.52 142.41 10.79Q141.61 10.06 141.18 8.98Q140.74 7.90 140.74 6.46ZM143.79 5.28L148.30 5.28Q148.30 4.82 148.18 4.40Q148.06 3.98 147.80 3.65Q147.54 3.31 147.13 3.11Q146.72 2.90 146.12 2.90L146.12 2.90Q145.54 2.90 145.12 3.10Q144.70 3.29 144.43 3.62Q144.15 3.96 144.00 4.39Q143.84 4.82 143.79 5.28L143.79 5.28ZM153.06 6.36L153.06 6.36Q153.06 5.14 153.44 4.06Q153.82 2.98 154.62 2.17Q155.41 1.37 156.62 0.90Q157.83 0.43 159.51 0.43L159.51 0.43Q160.52 0.43 161.34 0.58Q162.15 0.72 162.99 1.06L162.99 1.06L162.34 3.43Q161.86 3.26 161.28 3.13Q160.69 3 159.78 3L159.78 3Q158.72 3 158.01 3.25Q157.30 3.50 156.87 3.95Q156.44 4.39 156.25 5.02Q156.06 5.64 156.06 6.36L156.06 6.36Q156.06 7.92 156.93 8.81Q157.81 9.70 159.92 9.70L159.92 9.70Q160.62 9.70 161.37 9.60Q162.13 9.50 162.75 9.29L162.75 9.29L163.18 11.71Q162.56 11.95 161.67 12.11Q160.78 12.26 159.58 12.26L159.58 12.26Q157.86 12.26 156.62 11.81Q155.38 11.35 154.59 10.56Q153.80 9.77 153.43 8.69Q153.06 7.61 153.06 6.36ZM167.43 7.80L167.43 3.17L164.86 3.17L164.86 0.72L167.43 0.72L167.43-2.11L170.38-2.59L170.38 0.72L175.11 0.72L175.11 3.17L170.38 3.17L170.38 7.73Q170.38 8.35 170.50 8.74Q170.62 9.12 170.84 9.34Q171.06 9.55 171.37 9.62Q171.68 9.70 172.06 9.70L172.06 9.70Q172.47 9.70 172.82 9.67Q173.17 9.65 173.49 9.59Q173.82 9.53 174.16 9.41Q174.51 9.29 174.92 9.10L174.92 9.10L175.33 11.64Q174.51 11.98 173.56 12.12Q172.62 12.26 171.73 12.26L171.73 12.26Q170.70 12.26 169.90 12.10Q169.11 11.93 168.56 11.45Q168.01 10.97 167.72 10.09Q167.43 9.22 167.43 7.80L167.43 7.80ZM187.33 6.34L187.33 6.34Q187.33 7.68 186.94 8.77Q186.56 9.86 185.86 10.66Q185.17 11.45 184.20 11.88Q183.22 12.31 182.02 12.31L182.02 12.31Q180.82 12.31 179.85 11.88Q178.88 11.45 178.17 10.66Q177.46 9.86 177.08 8.77Q176.70 7.68 176.70 6.34L176.70 6.34Q176.70 5.02 177.09 3.92Q177.49 2.83 178.20 2.05Q178.90 1.27 179.89 0.85Q180.87 0.43 182.02 0.43L182.02 0.43Q183.20 0.43 184.17 0.85Q185.14 1.27 185.85 2.05Q186.56 2.83 186.94 3.92Q187.33 5.02 187.33 6.34ZM179.70 6.36L179.70 6.36Q179.70 7.87 180.24 8.81Q180.78 9.74 181.98 9.74L181.98 9.74Q183.13 9.74 183.72 8.81Q184.30 7.87 184.30 6.36L184.30 6.36Q184.30 4.85 183.76 3.92Q183.22 3 182.02 3L182.02 3Q180.87 3 180.28 3.92Q179.70 4.85 179.70 6.36ZM199.02 0.98L198.49 3.72Q198.20 3.65 197.80 3.58Q197.41 3.50 197 3.44Q196.59 3.38 196.21 3.36Q195.82 3.34 195.56 3.34L195.56 3.34Q194.94 3.34 194.34 3.40Q193.74 3.46 193.11 3.62L193.11 3.62L193.11 12L190.14 12L190.14 1.46Q191.31 1.03 192.55 0.77Q193.78 0.50 195.44 0.50L195.44 0.50Q195.68 0.50 196.12 0.53Q196.57 0.55 197.07 0.61Q197.58 0.67 198.09 0.76Q198.61 0.84 199.02 0.98L199.02 0.98ZM208.30 0.72L211.33 0.72Q210.87 2.30 210.45 3.83Q210.03 5.35 209.58 6.80Q209.12 8.26 208.60 9.65Q208.09 11.04 207.49 12.36L207.49 12.36Q207.03 13.32 206.59 14.02Q206.14 14.71 205.60 15.16Q205.06 15.60 204.40 15.82Q203.74 16.03 202.86 16.03L202.86 16.03Q202.11 16.03 201.50 15.91Q200.89 15.79 200.48 15.60L200.48 15.60L201.03 13.13Q201.51 13.34 201.88 13.43Q202.26 13.51 202.69 13.51L202.69 13.51Q203.55 13.51 204.08 12.94Q204.61 12.36 204.92 11.57L204.92 11.57Q203.86 9.46 202.81 6.73Q201.75 4.01 200.89 0.72L200.89 0.72L203.96 0.72Q204.18 1.61 204.45 2.62Q204.73 3.62 205.04 4.63Q205.35 5.64 205.70 6.61Q206.05 7.58 206.41 8.42L206.41 8.42Q206.65 7.58 206.91 6.61Q207.18 5.64 207.42 4.64Q207.66 3.65 207.88 2.64Q208.11 1.63 208.30 0.72L208.30 0.72ZM234.73 12L225.30 12L225.30 9.55L228.54 9.55L228.54-0.41L225.30-0.41L225.30-2.86L234.73-2.86L234.73-0.41L231.51-0.41L231.51 9.55L234.73 9.55L234.73 12ZM237.51 12L237.51 1.08Q238.30 0.86 239.47 0.67Q240.63 0.48 242 0.48L242 0.48Q243.34 0.48 244.23 0.85Q245.12 1.22 245.64 1.91Q246.15 2.59 246.37 3.54Q246.58 4.49 246.58 5.64L246.58 5.64L246.58 12L243.63 12L243.63 6.02Q243.63 4.44 243.27 3.74Q242.91 3.05 241.81 3.05L241.81 3.05Q241.47 3.05 241.15 3.07Q240.82 3.10 240.46 3.14L240.46 3.14L240.46 12L237.51 12ZM251.67 6.29L251.67 6.29Q251.67 7.80 252.24 8.76Q252.80 9.72 254.05 9.72L254.05 9.72Q254.41 9.72 254.72 9.70Q255.03 9.67 255.37 9.62L255.37 9.62L255.37 3.48Q255.03 3.29 254.60 3.16Q254.17 3.02 253.69 3.02L253.69 3.02Q252.63 3.02 252.15 3.86Q251.67 4.70 251.67 6.29ZM258.32-4.66L258.32 11.66Q257.50 11.93 256.33 12.10Q255.15 12.26 254.02 12.26L254.02 12.26Q251.38 12.26 250.03 10.70Q248.67 9.14 248.67 6.43L248.67 6.43Q248.67 3.67 249.81 2.08Q250.95 0.48 253.18 0.48L253.18 0.48Q253.78 0.48 254.36 0.61Q254.94 0.74 255.37 0.98L255.37 0.98L255.37-4.15L258.32-4.66ZM260.74 6.46L260.74 6.46Q260.74 4.97 261.20 3.84Q261.66 2.71 262.40 1.96Q263.14 1.20 264.10 0.82Q265.06 0.43 266.07 0.43L266.07 0.43Q268.57 0.43 269.86 1.91Q271.16 3.38 271.16 6.22L271.16 6.22Q271.16 6.50 271.15 6.82Q271.14 7.13 271.11 7.32L271.11 7.32L263.79 7.32Q263.79 8.42 264.70 9.06Q265.62 9.70 267.06 9.70L267.06 9.70Q267.94 9.70 268.75 9.50Q269.55 9.31 270.10 9.12L270.10 9.12L270.51 11.64Q269.74 11.90 268.88 12.08Q268.02 12.26 266.94 12.26L266.94 12.26Q265.50 12.26 264.36 11.89Q263.22 11.52 262.41 10.79Q261.61 10.06 261.18 8.98Q260.74 7.90 260.74 6.46ZM263.79 5.28L268.30 5.28Q268.30 4.82 268.18 4.40Q268.06 3.98 267.80 3.65Q267.54 3.31 267.13 3.11Q266.72 2.90 266.12 2.90L266.12 2.90Q265.54 2.90 265.12 3.10Q264.70 3.29 264.43 3.62Q264.15 3.96 264.00 4.39Q263.84 4.82 263.79 5.28L263.79 5.28ZM275.60 0.72L278.10 4.25L280.40 0.72L283.40 0.72L279.75 6.14Q280.33 6.84 280.88 7.62Q281.43 8.40 281.94 9.19Q282.44 9.98 282.85 10.70Q283.26 11.42 283.54 12L283.54 12L280.47 12Q279.82 10.78 279.18 9.82Q278.53 8.86 277.95 8.09L277.95 8.09Q277.23 9.05 276.66 9.96Q276.08 10.87 275.48 12L275.48 12L272.48 12Q272.84 11.33 273.31 10.60Q273.78 9.86 274.29 9.11Q274.81 8.35 275.37 7.61Q275.94 6.86 276.46 6.19L276.46 6.19L272.50 0.72L275.60 0.72Z"/></g></svg>