<?xml version="1.0" encoding="UTF-8"?><svg height="26" width="220.2" version="1.1" xmlns="http://www.w3.org/2000/svg"><!--Created by Josélio de S. C. Júnior - 2021 - https://github.com/joseliojunior --><defs><pattern id="pattern" x="3" y="3" width="6" height="6" patternUnits="userSpaceOnUse" patternTransform="rotate(45)"><rect height="6" width="6" fill="#ffffff"/><line x1="0" y1="0" x2="0" y2="6" stroke="#bbbbbb" stroke-width="2" /></pattern></defs><rect height="24" width="218.2" rx="12" ry="12" x="1" y="1" fill="url(#pattern)" /><g transform="translate(0, 8)"><path fill="#000000" d="M27.82 10L25.70 10Q25.39 9.18 24.95 8.19Q24.51 7.20 24.03 6.21L24.03 6.21Q23.57 7.15 23.10 8.17Q22.64 9.18 22.30 10L22.30 10L20.18 10Q20.34 9.57 20.65 8.96Q20.96 8.35 21.34 7.65Q21.71 6.94 22.13 6.20Q22.54 5.46 22.93 4.77L22.93 4.77L20.34 0.10L22.46 0.10L24.03 3.26L25.68 0.10L27.66 0.10L25.14 4.72Q25.57 5.41 25.98 6.16Q26.40 6.91 26.76 7.62Q27.12 8.34 27.39 8.95Q27.66 9.57 27.82 10L27.82 10ZM38.98 10L37.01 10L37.01 0.10L43.07 0.10L43.07 1.73L38.98 1.73L38.98 4.13L42.56 4.13L42.56 5.76L38.98 5.76L38.98 10ZM51.55 6.22L51.55 6.22Q51.55 7.12 51.30 7.85Q51.04 8.58 50.58 9.10Q50.11 9.63 49.46 9.92Q48.82 10.21 48.02 10.21L48.02 10.21Q47.22 10.21 46.57 9.92Q45.92 9.63 45.45 9.10Q44.98 8.58 44.72 7.85Q44.46 7.12 44.46 6.22L44.46 6.22Q44.46 5.34 44.73 4.62Q44.99 3.89 45.46 3.37Q45.94 2.85 46.59 2.57Q47.25 2.29 48.02 2.29L48.02 2.29Q48.80 2.29 49.45 2.57Q50.10 2.85 50.57 3.37Q51.04 3.89 51.30 4.62Q51.55 5.34 51.55 6.22ZM46.46 6.24L46.46 6.24Q46.46 7.25 46.82 7.87Q47.18 8.50 47.98 8.50L47.98 8.50Q48.75 8.50 49.14 7.87Q49.54 7.25 49.54 6.24L49.54 6.24Q49.54 5.23 49.18 4.62Q48.82 4 48.02 4L48.02 4Q47.25 4 46.86 4.62Q46.46 5.23 46.46 6.24ZM53.01 10L53.01 2.72Q53.54 2.58 54.31 2.45Q55.09 2.32 56 2.32L56 2.32Q56.90 2.32 57.49 2.57Q58.08 2.82 58.42 3.27Q58.77 3.73 58.91 4.36Q59.06 4.99 59.06 5.76L59.06 5.76L59.06 10L57.09 10L57.09 6.02Q57.09 4.96 56.85 4.50Q56.61 4.03 55.87 4.03L55.87 4.03Q55.65 4.03 55.43 4.05Q55.22 4.06 54.98 4.10L54.98 4.10L54.98 10L53.01 10ZM62.29 7.20L62.29 4.11L60.58 4.11L60.58 2.48L62.29 2.48L62.29 0.59L64.26 0.27L64.26 2.48L67.41 2.48L67.41 4.11L64.26 4.11L64.26 7.15Q64.26 7.57 64.34 7.82Q64.42 8.08 64.56 8.22Q64.70 8.37 64.91 8.42Q65.12 8.46 65.38 8.46L65.38 8.46Q65.65 8.46 65.88 8.45Q66.11 8.43 66.33 8.39Q66.54 8.35 66.78 8.27Q67.01 8.19 67.28 8.06L67.28 8.06L67.55 9.76Q67.01 9.98 66.38 10.08Q65.74 10.18 65.15 10.18L65.15 10.18Q64.46 10.18 63.94 10.06Q63.41 9.95 63.04 9.63Q62.67 9.31 62.48 8.73Q62.29 8.14 62.29 7.20L62.29 7.20ZM78.83 1.74L78.83 8.40Q78.91 8.42 79.01 8.42Q79.10 8.42 79.18 8.42L79.18 8.42Q79.86 8.42 80.31 8.16Q80.77 7.90 81.05 7.46Q81.33 7.01 81.45 6.39Q81.57 5.78 81.57 5.04L81.57 5.04Q81.57 4.40 81.47 3.79Q81.38 3.18 81.14 2.72Q80.90 2.26 80.48 1.98Q80.06 1.70 79.41 1.70L79.41 1.70Q79.28 1.70 79.12 1.70Q78.96 1.71 78.83 1.74L78.83 1.74ZM83.57 5.04L83.57 5.04Q83.57 6.42 83.22 7.38Q82.88 8.35 82.27 8.96Q81.66 9.57 80.82 9.85Q79.98 10.13 78.98 10.13L78.98 10.13Q78.45 10.13 77.94 10.07Q77.44 10.02 76.86 9.89L76.86 9.89L76.86 0.22Q77.54 0.08 78.13 0.03Q78.72-0.02 79.23-0.02L79.23-0.02Q80.21-0.02 81.02 0.27Q81.82 0.56 82.38 1.18Q82.94 1.79 83.26 2.74Q83.57 3.70 83.57 5.04ZM88.54 0.32L88.54 0.32Q88.54 0.90 88.18 1.23Q87.81 1.57 87.30 1.57L87.30 1.57Q86.78 1.57 86.42 1.23Q86.06 0.90 86.06 0.32L86.06 0.32Q86.06-0.27 86.42-0.61Q86.78-0.94 87.30-0.94L87.30-0.94Q87.81-0.94 88.18-0.61Q88.54-0.27 88.54 0.32ZM91.22 8.10L91.47 9.68Q90.86 9.97 90.33 10.07Q89.79 10.18 89.34 10.18L89.34 10.18Q88.58 10.18 88.06 9.95Q87.54 9.73 87.22 9.30Q86.91 8.88 86.78 8.27Q86.66 7.66 86.66 6.88L86.66 6.88L86.66 4.11L84.58 4.11L84.58 2.48L88.62 2.48L88.62 7.14Q88.62 7.81 88.87 8.14Q89.12 8.46 89.70 8.46L89.70 8.46Q89.97 8.46 90.35 8.39Q90.74 8.32 91.22 8.10L91.22 8.10ZM99.34 2.66L98.99 4.48Q98.80 4.43 98.54 4.38Q98.27 4.34 98 4.30Q97.73 4.26 97.47 4.24Q97.22 4.22 97.04 4.22L97.04 4.22Q96.62 4.22 96.22 4.26Q95.82 4.30 95.41 4.42L95.41 4.42L95.41 10L93.42 10L93.42 2.98Q94.21 2.69 95.03 2.51Q95.86 2.34 96.96 2.34L96.96 2.34Q97.12 2.34 97.42 2.35Q97.71 2.37 98.05 2.41Q98.38 2.45 98.73 2.50Q99.07 2.56 99.34 2.66L99.34 2.66ZM100.50 6.30L100.50 6.30Q100.50 5.31 100.80 4.56Q101.10 3.81 101.60 3.30Q102.10 2.80 102.74 2.54Q103.38 2.29 104.05 2.29L104.05 2.29Q105.71 2.29 106.58 3.27Q107.44 4.26 107.44 6.14L107.44 6.14Q107.44 6.34 107.43 6.54Q107.42 6.75 107.41 6.88L107.41 6.88L102.53 6.88Q102.53 7.62 103.14 8.04Q103.74 8.46 104.70 8.46L104.70 8.46Q105.30 8.46 105.83 8.34Q106.37 8.21 106.74 8.08L106.74 8.08L107.01 9.76Q106.50 9.94 105.92 10.06Q105.34 10.18 104.62 10.18L104.62 10.18Q103.66 10.18 102.90 9.93Q102.14 9.68 101.61 9.19Q101.07 8.70 100.78 7.98Q100.50 7.26 100.50 6.30ZM102.53 5.52L105.54 5.52Q105.54 5.22 105.46 4.94Q105.38 4.66 105.20 4.43Q105.02 4.21 104.75 4.07Q104.48 3.94 104.08 3.94L104.08 3.94Q103.70 3.94 103.42 4.06Q103.14 4.19 102.95 4.42Q102.77 4.64 102.66 4.93Q102.56 5.22 102.53 5.52L102.53 5.52ZM108.70 6.24L108.70 6.24Q108.70 5.42 108.96 4.70Q109.22 3.98 109.74 3.45Q110.27 2.91 111.08 2.60Q111.89 2.29 113.01 2.29L113.01 2.29Q113.68 2.29 114.22 2.38Q114.77 2.48 115.33 2.70L115.33 2.70L114.90 4.29Q114.58 4.18 114.18 4.09Q113.79 4 113.18 4L113.18 4Q112.48 4 112.01 4.17Q111.54 4.34 111.25 4.63Q110.96 4.93 110.83 5.34Q110.70 5.76 110.70 6.24L110.70 6.24Q110.70 7.28 111.29 7.87Q111.87 8.46 113.28 8.46L113.28 8.46Q113.74 8.46 114.25 8.40Q114.75 8.34 115.17 8.19L115.17 8.19L115.46 9.81Q115.04 9.97 114.45 10.07Q113.86 10.18 113.06 10.18L113.06 10.18Q111.90 10.18 111.08 9.87Q110.26 9.57 109.73 9.04Q109.20 8.51 108.95 7.79Q108.70 7.07 108.70 6.24ZM118.29 7.20L118.29 4.11L116.58 4.11L116.58 2.48L118.29 2.48L118.29 0.59L120.26 0.27L120.26 2.48L123.41 2.48L123.41 4.11L120.26 4.11L120.26 7.15Q120.26 7.57 120.34 7.82Q120.42 8.08 120.56 8.22Q120.70 8.37 120.91 8.42Q121.12 8.46 121.38 8.46L121.38 8.46Q121.65 8.46 121.88 8.45Q122.11 8.43 122.33 8.39Q122.54 8.35 122.78 8.27Q123.01 8.19 123.28 8.06L123.28 8.06L123.55 9.76Q123.01 9.98 122.38 10.08Q121.74 10.18 121.15 10.18L121.15 10.18Q120.46 10.18 119.94 10.06Q119.41 9.95 119.04 9.63Q118.67 9.31 118.48 8.73Q118.29 8.14 118.29 7.20L118.29 7.20ZM131.55 6.22L131.55 6.22Q131.55 7.12 131.30 7.85Q131.04 8.58 130.58 9.10Q130.11 9.63 129.46 9.92Q128.82 10.21 128.02 10.21L128.02 10.21Q127.22 10.21 126.57 9.92Q125.92 9.63 125.45 9.10Q124.98 8.58 124.72 7.85Q124.46 7.12 124.46 6.22L124.46 6.22Q124.46 5.34 124.73 4.62Q124.99 3.89 125.46 3.37Q125.94 2.85 126.59 2.57Q127.25 2.29 128.02 2.29L128.02 2.29Q128.80 2.29 129.45 2.57Q130.10 2.85 130.57 3.37Q131.04 3.89 131.30 4.62Q131.55 5.34 131.55 6.22ZM126.46 6.24L126.46 6.24Q126.46 7.25 126.82 7.87Q127.18 8.50 127.98 8.50L127.98 8.50Q128.75 8.50 129.14 7.87Q129.54 7.25 129.54 6.24L129.54 6.24Q129.54 5.23 129.18 4.62Q128.82 4 128.02 4L128.02 4Q127.25 4 126.86 4.62Q126.46 5.23 126.46 6.24ZM139.34 2.66L138.99 4.48Q138.80 4.43 138.54 4.38Q138.27 4.34 138 4.30Q137.73 4.26 137.47 4.24Q137.22 4.22 137.04 4.22L137.04 4.22Q136.62 4.22 136.22 4.26Q135.82 4.30 135.41 4.42L135.41 4.42L135.41 10L133.42 10L133.42 2.98Q134.21 2.69 135.03 2.51Q135.86 2.34 136.96 2.34L136.96 2.34Q137.12 2.34 137.42 2.35Q137.71 2.37 138.05 2.41Q138.38 2.45 138.73 2.50Q139.07 2.56 139.34 2.66L139.34 2.66ZM145.54 2.48L147.55 2.48Q147.25 3.54 146.97 4.55Q146.69 5.57 146.38 6.54Q146.08 7.50 145.74 8.43Q145.39 9.36 144.99 10.24L144.99 10.24Q144.69 10.88 144.39 11.34Q144.10 11.81 143.74 12.10Q143.38 12.40 142.94 12.54Q142.50 12.69 141.90 12.69L141.90 12.69Q141.41 12.69 141 12.61Q140.59 12.53 140.32 12.40L140.32 12.40L140.69 10.75Q141.01 10.90 141.26 10.95Q141.50 11.01 141.79 11.01L141.79 11.01Q142.37 11.01 142.72 10.62Q143.07 10.24 143.28 9.71L143.28 9.71Q142.58 8.30 141.87 6.49Q141.17 4.67 140.59 2.48L140.59 2.48L142.64 2.48Q142.78 3.07 142.97 3.74Q143.15 4.42 143.36 5.09Q143.57 5.76 143.80 6.41Q144.03 7.06 144.27 7.62L144.27 7.62Q144.43 7.06 144.61 6.41Q144.78 5.76 144.94 5.10Q145.10 4.43 145.26 3.76Q145.41 3.09 145.54 2.48L145.54 2.48ZM163.15 10L156.86 10L156.86 8.37L159.02 8.37L159.02 1.73L156.86 1.73L156.86 0.10L163.15 0.10L163.15 1.73L161.01 1.73L161.01 8.37L163.15 8.37L163.15 10ZM165.01 10L165.01 2.72Q165.54 2.58 166.31 2.45Q167.09 2.32 168 2.32L168 2.32Q168.90 2.32 169.49 2.57Q170.08 2.82 170.42 3.27Q170.77 3.73 170.91 4.36Q171.06 4.99 171.06 5.76L171.06 5.76L171.06 10L169.09 10L169.09 6.02Q169.09 4.96 168.85 4.50Q168.61 4.03 167.87 4.03L167.87 4.03Q167.65 4.03 167.43 4.05Q167.22 4.06 166.98 4.10L166.98 4.10L166.98 10L165.01 10ZM174.45 6.19L174.45 6.19Q174.45 7.20 174.82 7.84Q175.20 8.48 176.03 8.48L176.03 8.48Q176.27 8.48 176.48 8.46Q176.69 8.45 176.91 8.42L176.91 8.42L176.91 4.32Q176.69 4.19 176.40 4.10Q176.11 4.02 175.79 4.02L175.79 4.02Q175.09 4.02 174.77 4.58Q174.45 5.14 174.45 6.19ZM178.88-1.10L178.88 9.78Q178.34 9.95 177.55 10.06Q176.77 10.18 176.02 10.18L176.02 10.18Q174.26 10.18 173.35 9.14Q172.45 8.10 172.45 6.29L172.45 6.29Q172.45 4.45 173.21 3.38Q173.97 2.32 175.46 2.32L175.46 2.32Q175.86 2.32 176.24 2.41Q176.62 2.50 176.91 2.66L176.91 2.66L176.91-0.77L178.88-1.10ZM180.50 6.30L180.50 6.30Q180.50 5.31 180.80 4.56Q181.10 3.81 181.60 3.30Q182.10 2.80 182.74 2.54Q183.38 2.29 184.05 2.29L184.05 2.29Q185.71 2.29 186.58 3.27Q187.44 4.26 187.44 6.14L187.44 6.14Q187.44 6.34 187.43 6.54Q187.42 6.75 187.41 6.88L187.41 6.88L182.53 6.88Q182.53 7.62 183.14 8.04Q183.74 8.46 184.70 8.46L184.70 8.46Q185.30 8.46 185.83 8.34Q186.37 8.21 186.74 8.08L186.74 8.08L187.01 9.76Q186.50 9.94 185.92 10.06Q185.34 10.18 184.62 10.18L184.62 10.18Q183.66 10.18 182.90 9.93Q182.14 9.68 181.61 9.19Q181.07 8.70 180.78 7.98Q180.50 7.26 180.50 6.30ZM182.53 5.52L185.54 5.52Q185.54 5.22 185.46 4.94Q185.38 4.66 185.20 4.43Q185.02 4.21 184.75 4.07Q184.48 3.94 184.08 3.94L184.08 3.94Q183.70 3.94 183.42 4.06Q183.14 4.19 182.95 4.42Q182.77 4.64 182.66 4.93Q182.56 5.22 182.53 5.52L182.53 5.52ZM190.40 2.48L192.06 4.83L193.60 2.48L195.60 2.48L193.17 6.10Q193.55 6.56 193.92 7.08Q194.29 7.60 194.62 8.13Q194.96 8.66 195.23 9.14Q195.50 9.62 195.70 10L195.70 10L193.65 10Q193.22 9.18 192.78 8.54Q192.35 7.90 191.97 7.39L191.97 7.39Q191.49 8.03 191.10 8.64Q190.72 9.25 190.32 10L190.32 10L188.32 10Q188.56 9.55 188.87 9.06Q189.18 8.58 189.53 8.07Q189.87 7.57 190.25 7.07Q190.62 6.58 190.98 6.13L190.98 6.13L188.34 2.48L190.40 2.48Z"/></g></svg>