<?xml version="1.0" encoding="UTF-8"?>
<svg height="34" width="106.6" version="1.1" xmlns="http://www.w3.org/2000/svg">
    <rect
        height="32"
        width="104.6"
        rx="1"
        ry="1"
        x="1"
        y="1"
        fill="#dce200"
        stroke="#454700"
        stroke-width="1"
         />
    <g transform="translate(0, 14)">
        <path fill="#454700" d="M19.30-6.33L22.74-6.33L22.74 11L19.30 11L19.30 3.36L14.70 3.36L14.70 11L11.26 11L11.26-6.33L14.70-6.33L14.70 0.50L19.30 0.50L19.30-6.33ZM31.95-5.94L31.95-5.94Q31.95-4.93 31.31-4.34Q30.66-3.76 29.77-3.76L29.77-3.76Q28.87-3.76 28.24-4.34Q27.61-4.93 27.61-5.94L27.61-5.94Q27.61-6.98 28.24-7.56Q28.87-8.15 29.77-8.15L29.77-8.15Q30.66-8.15 31.31-7.56Q31.95-6.98 31.95-5.94ZM36.63 7.67L37.08 10.44Q36.01 10.94 35.07 11.13Q34.14 11.31 33.35 11.31L33.35 11.31Q32.01 11.31 31.10 10.92Q30.19 10.52 29.64 9.78Q29.10 9.04 28.87 7.98Q28.65 6.91 28.65 5.54L28.65 5.54L28.65 0.70L25.01 0.70L25.01-2.16L32.09-2.16L32.09 5.99Q32.09 7.16 32.53 7.74Q32.96 8.31 33.97 8.31L33.97 8.31Q34.44 8.31 35.12 8.19Q35.79 8.06 36.63 7.67L36.63 7.67ZM46.32 11L43.43 11Q42.17 8.51 40.87 5.16Q39.57 1.82 38.39-2.16L38.39-2.16L42.00-2.16Q42.26-1.10 42.61 0.11Q42.96 1.31 43.35 2.53Q43.74 3.75 44.15 4.90Q44.55 6.04 44.92 7.00L44.92 7.00Q45.28 6.04 45.73 4.90Q46.18 3.75 46.61 2.53Q47.04 1.31 47.45 0.11Q47.86-1.10 48.11-2.16L48.11-2.16L51.61-2.16Q50.43 1.82 49.00 5.16Q47.58 8.51 46.32 11L46.32 11ZM52.87 4.53L52.87 4.53Q52.87 2.80 53.40 1.48Q53.93 0.16 54.80-0.72Q55.67-1.60 56.79-2.05Q57.91-2.50 59.08-2.50L59.08-2.50Q62.00-2.50 63.51-0.77Q65.02 0.95 65.02 4.25L65.02 4.25Q65.02 4.59 65.01 4.95Q64.99 5.32 64.96 5.54L64.96 5.54L56.42 5.54Q56.42 6.83 57.49 7.57Q58.55 8.31 60.23 8.31L60.23 8.31Q61.27 8.31 62.21 8.09Q63.14 7.86 63.79 7.64L63.79 7.64L64.26 10.58Q63.37 10.89 62.36 11.10Q61.35 11.31 60.09 11.31L60.09 11.31Q58.41 11.31 57.08 10.87Q55.75 10.44 54.81 9.59Q53.88 8.73 53.37 7.47Q52.87 6.21 52.87 4.53ZM56.42 3.16L61.69 3.16Q61.69 2.63 61.55 2.14Q61.41 1.65 61.10 1.26Q60.79 0.86 60.32 0.63Q59.84 0.39 59.14 0.39L59.14 0.39Q58.47 0.39 57.98 0.61Q57.49 0.84 57.17 1.23Q56.84 1.62 56.66 2.12Q56.48 2.63 56.42 3.16L56.42 3.16ZM66.76 2.40L66.76 2.40Q66.76-2.08 68.41-4.36Q70.06-6.64 73-6.64L73-6.64Q76.05-6.64 77.65-4.36Q79.24-2.08 79.24 2.40L79.24 2.40Q79.24 6.32 77.98 8.58Q76.72 10.83 74.34 11.31L74.34 11.31Q74.65 12.01 75.84 12.47Q77.03 12.93 79.10 13.30L79.10 13.30L78.38 15.76Q75.10 15.31 73.43 14.26Q71.77 13.21 71.46 11.25L71.46 11.25Q69.19 10.69 67.97 8.47Q66.76 6.24 66.76 2.40ZM70.26 2.40L70.26 2.40Q70.26 3.66 70.35 4.76Q70.45 5.85 70.75 6.67Q71.04 7.50 71.57 7.98Q72.10 8.45 73 8.45L73 8.45Q73.87 8.45 74.41 7.98Q74.96 7.50 75.25 6.67Q75.55 5.85 75.65 4.76Q75.74 3.66 75.74 2.40L75.74 2.40Q75.74 1.14 75.65 0.04Q75.55-1.07 75.25-1.88Q74.96-2.69 74.43-3.17Q73.90-3.64 73-3.64L73-3.64Q72.10-3.64 71.57-3.17Q71.04-2.69 70.75-1.87Q70.45-1.04 70.35 0.05Q70.26 1.14 70.26 2.40ZM92.88 8.14L92.88 11L81.99 11L81.99-6.33L85.46-6.33L85.46 8.14L92.88 8.14Z"/>
    </g>
</svg>