<?xml version="1.0" encoding="UTF-8"?>
<svg height="26" width="106.8" version="1.1" xmlns="http://www.w3.org/2000/svg"><!--Created by Josélio de S. C. Júnior - 2021 - https://github.com/joseliojunior -->
    <defs>
        <pattern id="pattern"
                x="3" y="3" width="6" height="6"
                patternUnits="userSpaceOnUse"
                patternTransform="rotate(45)" >
            <rect height="6" width="6"
                fill="#ffffff"/>
            <line x1="0" y1="0" x2="0" y2="6"
                stroke="#bbbbbb"
                stroke-width="2" />
        </pattern>
    </defs>
    <rect
        height="24"
        width="104.8"
        rx="1"
        ry="1"
        x="1" y="1"
        fill="url(#pattern)" />
    <g transform="translate(0, 8)">
        <path fill="#000000" d="M27.82 10L25.70 10Q25.39 9.18 24.95 8.19Q24.51 7.20 24.03 6.21L24.03 6.21Q23.57 7.15 23.10 8.17Q22.64 9.18 22.30 10L22.30 10L20.18 10Q20.34 9.57 20.65 8.96Q20.96 8.35 21.34 7.65Q21.71 6.94 22.13 6.20Q22.54 5.46 22.93 4.77L22.93 4.77L20.34 0.10L22.46 0.10L24.03 3.26L25.68 0.10L27.66 0.10L25.14 4.72Q25.57 5.41 25.98 6.16Q26.40 6.91 26.76 7.62Q27.12 8.34 27.39 8.95Q27.66 9.57 27.82 10L27.82 10ZM39.58-0.02L39.58-0.02Q41.47-0.02 42.51 0.76Q43.55 1.54 43.55 3.30L43.55 3.30Q43.55 5.07 42.50 5.86Q41.46 6.66 39.54 6.66L39.54 6.66L38.83 6.66L38.83 10L36.86 10L36.86 0.22Q37.15 0.16 37.51 0.11Q37.87 0.06 38.24 0.04Q38.61 0.02 38.96 0Q39.31-0.02 39.58-0.02ZM39.81 1.70L39.81 1.70Q39.63 1.70 39.32 1.70Q39.01 1.71 38.83 1.74L38.83 1.74L38.83 4.94L39.63 4.94Q40.58 4.94 41.06 4.57Q41.54 4.19 41.54 3.28L41.54 3.28Q41.54 2.42 41.06 2.06Q40.59 1.70 39.81 1.70ZM48.54 0.32L48.54 0.32Q48.54 0.90 48.18 1.23Q47.81 1.57 47.30 1.57L47.30 1.57Q46.78 1.57 46.42 1.23Q46.06 0.90 46.06 0.32L46.06 0.32Q46.06-0.27 46.42-0.61Q46.78-0.94 47.30-0.94L47.30-0.94Q47.81-0.94 48.18-0.61Q48.54-0.27 48.54 0.32ZM51.22 8.10L51.47 9.68Q50.86 9.97 50.33 10.07Q49.79 10.18 49.34 10.18L49.34 10.18Q48.58 10.18 48.06 9.95Q47.54 9.73 47.22 9.30Q46.91 8.88 46.78 8.27Q46.66 7.66 46.66 6.88L46.66 6.88L46.66 4.11L44.58 4.11L44.58 2.48L48.62 2.48L48.62 7.14Q48.62 7.81 48.87 8.14Q49.12 8.46 49.70 8.46L49.70 8.46Q49.97 8.46 50.35 8.39Q50.74 8.32 51.22 8.10L51.22 8.10ZM54.40 2.48L56.06 4.83L57.60 2.48L59.60 2.48L57.17 6.10Q57.55 6.56 57.92 7.08Q58.29 7.60 58.62 8.13Q58.96 8.66 59.23 9.14Q59.50 9.62 59.70 10L59.70 10L57.65 10Q57.22 9.18 56.78 8.54Q56.35 7.90 55.97 7.39L55.97 7.39Q55.49 8.03 55.10 8.64Q54.72 9.25 54.32 10L54.32 10L52.32 10Q52.56 9.55 52.87 9.06Q53.18 8.58 53.53 8.07Q53.87 7.57 54.25 7.07Q54.62 6.58 54.98 6.13L54.98 6.13L52.34 2.48L54.40 2.48ZM60.94 0.10L62.58 0.10Q62.69 0.43 62.86 0.96Q63.02 1.49 63.22 2.10Q63.41 2.70 63.60 3.33Q63.79 3.95 63.97 4.48L63.97 4.48Q64.16 3.89 64.37 3.26Q64.58 2.62 64.77 2.04Q64.96 1.46 65.12 0.94Q65.28 0.43 65.41 0.10L65.41 0.10L67.04 0.10Q67.15 1.39 67.26 2.62Q67.36 3.86 67.43 5.06Q67.50 6.27 67.55 7.50Q67.60 8.72 67.63 10L67.63 10L65.82 10L65.92 2.30L64.70 6.50L63.26 6.50L62.10 2.30L62.18 10L60.37 10Q60.42 8.78 60.47 7.47Q60.53 6.16 60.59 4.86Q60.66 3.57 60.74 2.35Q60.83 1.14 60.94 0.10L60.94 0.10ZM72.02 8.59L72.02 8.59Q72.34 8.59 72.64 8.58Q72.94 8.58 73.17 8.54L73.17 8.54L73.17 6.82Q72.98 6.78 72.70 6.76Q72.43 6.74 72.21 6.74L72.21 6.74Q71.90 6.74 71.62 6.78Q71.33 6.82 71.11 6.91Q70.90 7.01 70.77 7.18Q70.64 7.36 70.64 7.65L70.64 7.65Q70.64 8.16 71.02 8.38Q71.41 8.59 72.02 8.59ZM71.84 2.29L71.84 2.29Q72.77 2.29 73.38 2.50Q74 2.72 74.37 3.11Q74.74 3.50 74.90 4.07Q75.06 4.64 75.06 5.34L75.06 5.34L75.06 9.82Q74.62 9.92 73.78 10.05Q72.93 10.18 71.87 10.18L71.87 10.18Q71.15 10.18 70.57 10.05Q69.98 9.92 69.57 9.62Q69.15 9.33 68.93 8.86Q68.70 8.38 68.70 7.70L68.70 7.70Q68.70 7.04 68.96 6.59Q69.22 6.14 69.65 5.87Q70.08 5.60 70.64 5.48Q71.20 5.36 71.81 5.36L71.81 5.36Q72.58 5.36 73.17 5.49L73.17 5.49L73.17 5.25Q73.17 4.69 72.82 4.31Q72.46 3.94 71.60 3.94L71.60 3.94Q71.04 3.94 70.52 4.02Q70 4.10 69.68 4.21L69.68 4.21L69.41 2.62Q69.78 2.50 70.45 2.39Q71.12 2.29 71.84 2.29ZM81.50 6.30L81.50 6.30Q81.50 5.30 81.10 4.65Q80.70 4 79.89 4L79.89 4Q79.66 4 79.41 4.02Q79.15 4.05 78.98 4.06L78.98 4.06L78.98 8.19Q79.17 8.32 79.49 8.40Q79.81 8.48 80.13 8.48L80.13 8.48Q80.83 8.48 81.17 7.91Q81.50 7.34 81.50 6.30ZM83.50 6.24L83.50 6.24Q83.50 7.10 83.31 7.83Q83.12 8.56 82.75 9.08Q82.38 9.60 81.82 9.89Q81.26 10.18 80.53 10.18L80.53 10.18Q79.78 10.18 78.98 9.81L78.98 9.81L78.98 12.64L77.01 12.64L77.01 2.72Q77.55 2.54 78.34 2.43Q79.14 2.32 79.90 2.32L79.90 2.32Q81.65 2.32 82.58 3.38Q83.50 4.43 83.50 6.24Z"/>
    </g>
</svg>