<?xml version="1.0" encoding="UTF-8"?><svg height="26" width="82.5" version="1.1" xmlns="http://www.w3.org/2000/svg"><!--Created by Josélio de S. C. Júnior - 2021 - https://github.com/joseliojunior --><rect height="24" width="80.5" rx="1" ry="1" x="1" y="1" fill="#e38c00" stroke="#000000" stroke-width="1" /><g transform="translate(0, 8)"><path fill="#000000" d="M23.71 8.56L23.71 8.56Q24.21 8.56 24.54 8.46Q24.86 8.35 25.06 8.17Q25.25 7.98 25.32 7.75Q25.39 7.52 25.39 7.28L25.39 7.28Q25.39 6.98 25.22 6.74Q25.04 6.50 24.77 6.31Q24.50 6.13 24.16 5.98Q23.82 5.82 23.49 5.70L23.49 5.70Q23.04 5.54 22.56 5.33Q22.08 5.12 21.69 4.80Q21.30 4.48 21.04 4.01Q20.78 3.54 20.78 2.83L20.78 2.83Q20.78 1.44 21.69 0.66Q22.59-0.13 24.18-0.13L24.18-0.13Q25.09-0.13 25.77 0.08Q26.45 0.29 26.91 0.54L26.91 0.54L26.34 2.06Q25.94 1.84 25.45 1.68Q24.96 1.52 24.32 1.52L24.32 1.52Q22.75 1.52 22.75 2.66L22.75 2.66Q22.75 2.94 22.91 3.16Q23.07 3.38 23.32 3.54Q23.57 3.71 23.88 3.84Q24.19 3.97 24.50 4.08L24.50 4.08Q24.96 4.26 25.46 4.47Q25.97 4.69 26.39 5.05Q26.82 5.41 27.09 5.94Q27.36 6.48 27.36 7.30L27.36 7.30Q27.36 8.69 26.46 9.45Q25.55 10.21 23.71 10.21L23.71 10.21Q22.48 10.21 21.74 9.94Q21.01 9.68 20.64 9.46L20.64 9.46L21.22 7.86Q21.65 8.11 22.25 8.34Q22.85 8.56 23.71 8.56ZM28.43 5.09L28.43 5.09Q28.43 2.53 29.38 1.22Q30.32-0.08 32-0.08L32-0.08Q33.74-0.08 34.66 1.22Q35.57 2.53 35.57 5.09L35.57 5.09Q35.57 7.33 34.85 8.62Q34.13 9.90 32.77 10.18L32.77 10.18Q32.94 10.58 33.62 10.84Q34.30 11.10 35.49 11.31L35.49 11.31L35.07 12.72Q33.20 12.46 32.25 11.86Q31.30 11.26 31.12 10.14L31.12 10.14Q29.82 9.82 29.13 8.55Q28.43 7.28 28.43 5.09ZM30.43 5.09L30.43 5.09Q30.43 5.81 30.49 6.43Q30.54 7.06 30.71 7.53Q30.88 8 31.18 8.27Q31.49 8.54 32 8.54L32 8.54Q32.50 8.54 32.81 8.27Q33.12 8 33.29 7.53Q33.46 7.06 33.51 6.43Q33.57 5.81 33.57 5.09L33.57 5.09Q33.57 4.37 33.51 3.74Q33.46 3.10 33.29 2.64Q33.12 2.18 32.82 1.90Q32.51 1.63 32 1.63L32 1.63Q31.49 1.63 31.18 1.90Q30.88 2.18 30.71 2.65Q30.54 3.12 30.49 3.74Q30.43 4.37 30.43 5.09ZM43.36 8.37L43.36 10L37.14 10L37.14 0.10L39.12 0.10L39.12 8.37L43.36 8.37ZM47.58-0.02L47.58-0.02Q49.47-0.02 50.51 0.76Q51.55 1.54 51.55 3.30L51.55 3.30Q51.55 5.07 50.50 5.86Q49.46 6.66 47.54 6.66L47.54 6.66L46.83 6.66L46.83 10L44.86 10L44.86 0.22Q45.15 0.16 45.51 0.11Q45.87 0.06 46.24 0.04Q46.61 0.02 46.96 0Q47.31-0.02 47.58-0.02ZM47.81 1.70L47.81 1.70Q47.63 1.70 47.32 1.70Q47.01 1.71 46.83 1.74L46.83 1.74L46.83 4.94L47.63 4.94Q48.58 4.94 49.06 4.57Q49.54 4.19 49.54 3.28L49.54 3.28Q49.54 2.42 49.06 2.06Q48.59 1.70 47.81 1.70ZM59.36 8.37L59.36 10L53.14 10L53.14 0.10L55.12 0.10L55.12 8.37L59.36 8.37Z"/></g></svg>