<?xml version="1.0" encoding="UTF-8"?>
<svg height="322" width="102.5" version="1.1" xmlns="http://www.w3.org/2000/svg"><!--Created by Josélio de S. C. Júnior - 2021 - https://github.com/joseliojunior -->
    <rect
        height="32"
        width="100.5"
        rx="1"
        ry="1"
        x="1" y="1"
        fill="#e38c00"
        stroke="#000000"
        stroke-width="1" />
    <g transform="translate(0, 12)">
        <path fill="#000000" stroke="none" d="M25.57 9.84L25.57 9.84Q26.31 9.84 26.80 9.68Q27.30 9.53 27.58 9.25Q27.87 8.98 27.98 8.63Q28.09 8.28 28.09 7.92L28.09 7.92Q28.09 7.46 27.82 7.10Q27.56 6.74 27.15 6.47Q26.74 6.19 26.24 5.96Q25.74 5.74 25.23 5.54L25.23 5.54Q24.56 5.30 23.84 4.99Q23.12 4.68 22.53 4.20Q21.94 3.72 21.56 3.01Q21.18 2.30 21.18 1.25L21.18 1.25Q21.18-0.84 22.53-2.02Q23.89-3.19 26.26-3.19L26.26-3.19Q27.63-3.19 28.65-2.88Q29.67-2.57 30.37-2.18L30.37-2.18L29.50 0.10Q28.90-0.24 28.17-0.48Q27.44-0.72 26.48-0.72L26.48-0.72Q24.13-0.72 24.13 0.98L24.13 0.98Q24.13 1.42 24.37 1.74Q24.61 2.06 24.98 2.32Q25.35 2.57 25.82 2.76Q26.29 2.95 26.74 3.12L26.74 3.12Q27.44 3.38 28.20 3.71Q28.95 4.03 29.59 4.57Q30.22 5.11 30.63 5.92Q31.04 6.72 31.04 7.94L31.04 7.94Q31.04 10.03 29.68 11.17Q28.33 12.31 25.57 12.31L25.57 12.31Q23.72 12.31 22.62 11.92Q21.51 11.52 20.96 11.18L20.96 11.18L21.82 8.78Q22.47 9.17 23.37 9.50Q24.27 9.84 25.57 9.84ZM32.65 4.63L32.65 4.63Q32.65 0.79 34.06-1.16Q35.48-3.12 38-3.12L38-3.12Q40.62-3.12 41.98-1.16Q43.35 0.79 43.35 4.63L43.35 4.63Q43.35 7.99 42.27 9.92Q41.19 11.86 39.15 12.26L39.15 12.26Q39.42 12.86 40.44 13.26Q41.46 13.66 43.23 13.97L43.23 13.97L42.61 16.08Q39.80 15.70 38.37 14.80Q36.94 13.90 36.68 12.22L36.68 12.22Q34.74 11.74 33.69 9.83Q32.65 7.92 32.65 4.63ZM35.65 4.63L35.65 4.63Q35.65 5.71 35.73 6.65Q35.82 7.58 36.07 8.29Q36.32 9 36.78 9.41Q37.23 9.82 38 9.82L38 9.82Q38.74 9.82 39.21 9.41Q39.68 9 39.93 8.29Q40.18 7.58 40.27 6.65Q40.35 5.71 40.35 4.63L40.35 4.63Q40.35 3.55 40.27 2.60Q40.18 1.66 39.93 0.96Q39.68 0.26 39.22-0.14Q38.77-0.55 38-0.55L38-0.55Q37.23-0.55 36.78-0.14Q36.32 0.26 36.07 0.97Q35.82 1.68 35.73 2.62Q35.65 3.55 35.65 4.63ZM55.04 9.55L55.04 12L45.70 12L45.70-2.86L48.68-2.86L48.68 9.55L55.04 9.55ZM61.38-3.02L61.38-3.02Q64.21-3.02 65.77-1.86Q67.33-0.70 67.33 1.94L67.33 1.94Q67.33 4.61 65.76 5.80Q64.18 6.98 61.30 6.98L61.30 6.98L60.25 6.98L60.25 12L57.30 12L57.30-2.66Q57.73-2.76 58.27-2.83Q58.81-2.90 59.36-2.94Q59.91-2.98 60.44-3Q60.97-3.02 61.38-3.02ZM61.71-0.46L61.71-0.46Q61.45-0.46 60.98-0.44Q60.51-0.43 60.25-0.38L60.25-0.38L60.25 4.42L61.45 4.42Q62.86 4.42 63.58 3.85Q64.30 3.29 64.30 1.92L64.30 1.92Q64.30 0.62 63.60 0.08Q62.89-0.46 61.71-0.46ZM79.04 9.55L79.04 12L69.70 12L69.70-2.86L72.68-2.86L72.68 9.55L79.04 9.55Z"/>
    </g>
</svg>