<?xml version="1.0" encoding="UTF-8"?>
<svg height="34" width="54.1" version="1.1" xmlns="http://www.w3.org/2000/svg"><!--Created by Josélio de S. C. Júnior - 2021 - https://github.com/joseliojunior -->
    <rect
        height="32"
        width="52.1"
        rx="16"
        ry="16"
        x="1" y="1"
        fill="#9EEDFF"
        stroke="#00abd1"
        stroke-width="1" />
    <g transform="translate(0, 12)">
        <path fill="#00abd1" d="M30.51-2.86L30.51 7.03Q30.51 8.11 30.24 9.07Q29.96 10.03 29.32 10.75Q28.69 11.47 27.68 11.89Q26.67 12.31 25.23 12.31L25.23 12.31Q23.72 12.31 22.71 11.93Q21.70 11.54 21.01 10.99L21.01 10.99L22.14 8.64Q22.74 9.02 23.47 9.38Q24.20 9.74 24.97 9.74L24.97 9.74Q26.12 9.74 26.83 9.13Q27.54 8.52 27.54 6.86L27.54 6.86L27.54-0.41L22.57-0.41L22.57-2.86L30.51-2.86Z"/>
    </g>
</svg>