<?xml version="1.0" encoding="UTF-8"?>
<svg height="34" width="36.1" version="1.1" xmlns="http://www.w3.org/2000/svg">
    <rect
        height="32"
        width="34.1"
        rx="1"
        ry="1"
        x="1"
        y="1"
        fill="#9EEDFF"
        stroke="#00abd1"
        stroke-width="1"
         />
    <g transform="translate(0, 14)">
        <path fill="#00abd1" d="M22.26-6.33L22.26 5.20Q22.26 6.46 21.94 7.58Q21.62 8.70 20.88 9.54Q20.14 10.38 18.96 10.87Q17.78 11.36 16.10 11.36L16.10 11.36Q14.34 11.36 13.16 10.92Q11.99 10.47 11.18 9.82L11.18 9.82L12.49 7.08Q13.19 7.53 14.05 7.95Q14.90 8.37 15.80 8.37L15.80 8.37Q17.14 8.37 17.97 7.65Q18.79 6.94 18.79 5.01L18.79 5.01L18.79-3.48L13.00-3.48L13.00-6.33L22.26-6.33Z"/>
    </g>
</svg>