<?xml version="1.0" encoding="UTF-8"?>
<svg height="34" width="90.4" version="1.1" xmlns="http://www.w3.org/2000/svg"><!--Created by Josélio de S. C. Júnior - 2021 - https://github.com/joseliojunior -->
    <rect
        height="32"
        width="88.4"
        rx="16"
        ry="16"
        x="1" y="1"
        fill="#1797c0"
        stroke="#062b37"
        stroke-width="1" />
    <g transform="translate(0, 12)">
        <path fill="#062b37" stroke="none" d="M31.78 12L28.62 12L27.92 8.57L23.96 8.57L23.29 12L20.22 12Q21.27 7.61 22.35 4.00Q23.43 0.38 24.44-2.86L24.44-2.86L27.66-2.86Q28.71 0.41 29.76 4.07Q30.80 7.73 31.78 12L31.78 12ZM25.98 0.02L25.98 0.02Q25.74 0.86 25.53 1.62Q25.33 2.38 25.15 3.11Q24.97 3.84 24.81 4.58Q24.66 5.33 24.51 6.12L24.51 6.12L27.42 6.12Q27.27 5.33 27.13 4.58Q26.98 3.84 26.80 3.11Q26.62 2.38 26.42 1.62Q26.22 0.86 25.98 0.02ZM40.26 6.46L40.26 6.46Q40.26 4.94 39.66 3.97Q39.06 3 37.83 3L37.83 3Q37.50 3 37.11 3.04Q36.73 3.07 36.46 3.10L36.46 3.10L36.46 9.29Q36.75 9.48 37.23 9.60Q37.71 9.72 38.19 9.72L38.19 9.72Q39.25 9.72 39.75 8.87Q40.26 8.02 40.26 6.46ZM43.26 6.36L43.26 6.36Q43.26 7.66 42.97 8.75Q42.68 9.84 42.13 10.62Q41.58 11.40 40.74 11.83Q39.90 12.26 38.79 12.26L38.79 12.26Q37.66 12.26 36.46 11.71L36.46 11.71L36.46 15.96L33.51 15.96L33.51 1.08Q34.33 0.82 35.52 0.65Q36.70 0.48 37.86 0.48L37.86 0.48Q40.47 0.48 41.86 2.06Q43.26 3.65 43.26 6.36ZM44.74 6.46L44.74 6.46Q44.74 4.97 45.20 3.84Q45.66 2.71 46.40 1.96Q47.14 1.20 48.10 0.82Q49.06 0.43 50.07 0.43L50.07 0.43Q52.57 0.43 53.86 1.91Q55.16 3.38 55.16 6.22L55.16 6.22Q55.16 6.50 55.15 6.82Q55.14 7.13 55.11 7.32L55.11 7.32L47.79 7.32Q47.79 8.42 48.70 9.06Q49.62 9.70 51.06 9.70L51.06 9.70Q51.94 9.70 52.75 9.50Q53.55 9.31 54.10 9.12L54.10 9.12L54.51 11.64Q53.74 11.90 52.88 12.08Q52.02 12.26 50.94 12.26L50.94 12.26Q49.50 12.26 48.36 11.89Q47.22 11.52 46.41 10.79Q45.61 10.06 45.18 8.98Q44.74 7.90 44.74 6.46ZM47.79 5.28L52.30 5.28Q52.30 4.82 52.18 4.40Q52.06 3.98 51.80 3.65Q51.54 3.31 51.13 3.11Q50.72 2.90 50.12 2.90L50.12 2.90Q49.54 2.90 49.12 3.10Q48.70 3.29 48.43 3.62Q48.15 3.96 48.00 4.39Q47.84 4.82 47.79 5.28L47.79 5.28ZM59.60 0.72L62.10 4.25L64.40 0.72L67.40 0.72L63.75 6.14Q64.33 6.84 64.88 7.62Q65.43 8.40 65.94 9.19Q66.44 9.98 66.85 10.70Q67.26 11.42 67.54 12L67.54 12L64.47 12Q63.82 10.78 63.18 9.82Q62.53 8.86 61.95 8.09L61.95 8.09Q61.23 9.05 60.66 9.96Q60.08 10.87 59.48 12L59.48 12L56.48 12Q56.84 11.33 57.31 10.60Q57.78 9.86 58.29 9.11Q58.81 8.35 59.37 7.61Q59.94 6.86 60.46 6.19L60.46 6.19L56.50 0.72L59.60 0.72Z"/>
    </g>
</svg>