<?xml version="1.0" encoding="UTF-8"?>
<svg height="34" width="50.2" version="1.1" xmlns="http://www.w3.org/2000/svg">
    <rect
        height="32"
        width="48.2"
        rx="14"
        ry="14"
        x="1"
        y="1"
        fill="#fed659"
        stroke="#896701"
        stroke-width="1"
         />
    <g transform="translate(0, 14)">
        <path fill="#896701" d="M10.76 2.40L10.76 2.40Q10.76-2.08 12.41-4.36Q14.06-6.64 17-6.64L17-6.64Q20.05-6.64 21.65-4.36Q23.24-2.08 23.24 2.40L23.24 2.40Q23.24 6.32 21.98 8.58Q20.72 10.83 18.34 11.31L18.34 11.31Q18.65 12.01 19.84 12.47Q21.03 12.93 23.10 13.30L23.10 13.30L22.38 15.76Q19.10 15.31 17.43 14.26Q15.77 13.21 15.46 11.25L15.46 11.25Q13.19 10.69 11.97 8.47Q10.76 6.24 10.76 2.40ZM14.26 2.40L14.26 2.40Q14.26 3.66 14.35 4.76Q14.45 5.85 14.75 6.67Q15.04 7.50 15.57 7.98Q16.10 8.45 17 8.45L17 8.45Q17.87 8.45 18.41 7.98Q18.96 7.50 19.25 6.67Q19.55 5.85 19.65 4.76Q19.74 3.66 19.74 2.40L19.74 2.40Q19.74 1.14 19.65 0.04Q19.55-1.07 19.25-1.88Q18.96-2.69 18.43-3.17Q17.90-3.64 17-3.64L17-3.64Q16.10-3.64 15.57-3.17Q15.04-2.69 14.75-1.87Q14.45-1.04 14.35 0.05Q14.26 1.14 14.26 2.40ZM24.50-2.08L27.86-2.08L28.68-6.33L31.53-6.33L30.69-2.08L32.93-2.08L33.74-6.33L36.60-6.33L35.79-2.08L37.52-2.08L37.52 0.78L35.23 0.78L34.64 3.86L37.52 3.86L37.52 6.72L34.11 6.72L33.30 11L30.44 11L31.25 6.72L29.01 6.72L28.23 11L25.37 11L26.18 6.72L24.50 6.72L24.50 3.86L26.72 3.86L27.30 0.78L24.50 0.78L24.50-2.08ZM30.16 0.78L29.57 3.86L31.81 3.86L32.37 0.78L30.16 0.78Z"/>
    </g>
</svg>