<?xml version="1.0" encoding="UTF-8"?>
<svg height="34" width="134.8" version="1.1" xmlns="http://www.w3.org/2000/svg">
    <rect
        height="32"
        width="132.8"
        rx="1"
        ry="1"
        x="1"
        y="1"
        fill="#701516"
        stroke="#db4345"
        stroke-width="1"
         />
    <g transform="translate(0, 14)">
        <path fill="#db4345" d="M19.30-6.33L22.74-6.33L22.74 11L19.30 11L19.30 3.36L14.70 3.36L14.70 11L11.26 11L11.26-6.33L14.70-6.33L14.70 0.50L19.30 0.50L19.30-6.33ZM24.70-6.33L37.30-6.33L37.30-3.48L32.74-3.48L32.74 11L29.26 11L29.26-3.48L24.70-3.48L24.70-6.33ZM39.65-6.33L42.51-6.33Q42.70-5.74 43.00-4.82Q43.29-3.90 43.63-2.83Q43.96-1.77 44.30-0.68Q44.64 0.42 44.94 1.34L44.94 1.34Q45.28 0.30 45.64-0.80Q46.01-1.91 46.34-2.93Q46.68-3.95 46.96-4.85Q47.24-5.74 47.46-6.33L47.46-6.33L50.32-6.33Q50.52-4.06 50.70-1.91Q50.88 0.25 51.01 2.36Q51.13 4.48 51.22 6.62Q51.30 8.76 51.36 11L51.36 11L48.19 11L48.36-2.47L46.23 4.87L43.71 4.87L41.67-2.47L41.81 11L38.64 11Q38.73 8.87 38.83 6.58Q38.92 4.28 39.04 2.01Q39.15-0.26 39.30-2.38Q39.46-4.51 39.65-6.33L39.65-6.33ZM64.88 8.14L64.88 11L53.99 11L53.99-6.33L57.46-6.33L57.46 8.14L64.88 8.14ZM67.12 5.06L67.12 2.24L71.52 2.24L71.52-2.64L74.48-2.64L74.48 2.24L78.88 2.24L78.88 5.06L74.48 5.06L74.48 9.94L71.52 9.94L71.52 5.06L67.12 5.06ZM92.88 11L81.76 11L81.76-6.33L92.26-6.33L92.26-3.48L85.21-3.48L85.21 0.42L91.34 0.42L91.34 3.27L85.21 3.27L85.21 8.14L92.88 8.14L92.88 11ZM99.99-6.53L99.99-6.53Q101.48-6.53 102.68-6.19Q103.88-5.86 104.75-5.16Q105.62-4.46 106.08-3.38Q106.54-2.30 106.54-0.84L106.54-0.84Q106.54 0.67 105.93 1.90Q105.31 3.13 103.88 3.78L103.88 3.78Q104.36 4.50 104.89 5.39Q105.42 6.27 105.93 7.23Q106.43 8.20 106.89 9.17Q107.36 10.13 107.69 11L107.69 11L104.08 11Q103.44 9.32 102.58 7.77Q101.73 6.21 100.75 4.62L100.75 4.62L98.96 4.62L98.96 11L95.51 11L95.51-6.08Q96.02-6.19 96.62-6.29Q97.22-6.39 97.84-6.43Q98.45-6.47 99.01-6.50Q99.57-6.53 99.99-6.53ZM103.04-0.87L103.04-0.87Q103.04-2.24 102.20-2.89Q101.36-3.53 99.99-3.53L99.99-3.53Q99.80-3.53 99.52-3.52Q99.24-3.50 98.96-3.45L98.96-3.45L98.96 1.76L99.71 1.76Q101.48 1.76 102.26 1.07Q103.04 0.39 103.04-0.87ZM121.13 5.76L121.13 5.76Q121.13 7.33 120.60 8.38Q120.07 9.43 119.16 10.06Q118.25 10.69 117.00 10.96Q115.76 11.22 114.33 11.22L114.33 11.22Q113.18 11.22 111.95 11.10Q110.72 10.97 109.51 10.72L109.51 10.72L109.51-6.11Q110.49-6.28 111.67-6.40Q112.84-6.53 113.99-6.53L113.99-6.53Q115.95-6.53 117.18-6.12Q118.42-5.72 119.12-5.06Q119.82-4.40 120.07-3.59Q120.32-2.78 120.32-1.96L120.32-1.96Q120.32-0.73 119.72 0.22Q119.12 1.17 118.11 1.73L118.11 1.73Q119.87 2.38 120.50 3.47Q121.13 4.56 121.13 5.76ZM114.80 3.41L112.96 3.41L112.96 8.12Q113.32 8.17 113.75 8.20Q114.19 8.23 114.61 8.23L114.61 8.23Q115.20 8.23 115.76 8.13Q116.32 8.03 116.75 7.77Q117.18 7.50 117.46 7.01Q117.74 6.52 117.74 5.76L117.74 5.76Q117.74 4.50 116.95 3.96Q116.15 3.41 114.80 3.41L114.80 3.41ZM112.96 0.56L114.30 0.56Q115.62 0.56 116.29-0.02Q116.96-0.59 116.96-1.60L116.96-1.60Q116.96-2.22 116.76-2.59Q116.57-2.97 116.23-3.18Q115.90-3.39 115.45-3.46Q115-3.53 114.52-3.53L114.52-3.53Q114.13-3.53 113.71-3.50Q113.29-3.48 112.96-3.42L112.96-3.42L112.96 0.56Z"/>
    </g>
</svg>