<?xml version="1.0" encoding="UTF-8"?>
<svg height="26" width="212.1" version="1.1" xmlns="http://www.w3.org/2000/svg"><!--Created by Josélio de S. C. Júnior - 2021 - https://github.com/joseliojunior -->
    <defs>
        <pattern id="pattern"
                x="3" y="3" width="6" height="6"
                patternUnits="userSpaceOnUse"
                patternTransform="rotate(45)" >
            <rect height="6" width="6"
                fill="#ffffff"/>
            <line x1="0" y1="0" x2="0" y2="6"
                stroke="#888888"
                stroke-width="2" />
        </pattern>
    </defs>
    <rect
        height="24"
        width="210.1"
        rx="12"
        ry="12"
        x="1" y="1"
        fill="url(#pattern)"
        stroke="#000000"
        stroke-width="1" />
    <g transform="translate(0, 8)">
        <path fill="#ffffff" stroke="#000000" d="M22.43 5.04L22.43 5.04Q22.43 5.76 22.49 6.39Q22.54 7.02 22.71 7.49Q22.88 7.95 23.18 8.22Q23.49 8.50 24 8.50L24 8.50Q24.50 8.50 24.81 8.22Q25.12 7.95 25.29 7.48Q25.46 7.01 25.51 6.38Q25.57 5.76 25.57 5.04L25.57 5.04Q25.57 4.32 25.51 3.69Q25.46 3.06 25.29 2.59Q25.12 2.13 24.82 1.86Q24.51 1.58 24 1.58L24 1.58Q23.49 1.58 23.18 1.86Q22.88 2.13 22.71 2.60Q22.54 3.07 22.49 3.70Q22.43 4.32 22.43 5.04ZM20.43 5.04L20.43 5.04Q20.43 2.48 21.38 1.18Q22.32-0.13 24-0.13L24-0.13Q25.74-0.13 26.66 1.18Q27.57 2.48 27.57 5.04L27.57 5.04Q27.57 7.60 26.64 8.90Q25.71 10.21 24.02 10.21L24.02 10.21Q22.27 10.21 21.35 8.90Q20.43 7.60 20.43 5.04ZM33.50 6.30L33.50 6.30Q33.50 5.30 33.10 4.65Q32.70 4 31.89 4L31.89 4Q31.66 4 31.41 4.02Q31.15 4.05 30.98 4.06L30.98 4.06L30.98 8.19Q31.17 8.32 31.49 8.40Q31.81 8.48 32.13 8.48L32.13 8.48Q32.83 8.48 33.17 7.91Q33.50 7.34 33.50 6.30ZM35.50 6.24L35.50 6.24Q35.50 7.10 35.31 7.83Q35.12 8.56 34.75 9.08Q34.38 9.60 33.82 9.89Q33.26 10.18 32.53 10.18L32.53 10.18Q31.78 10.18 30.98 9.81L30.98 9.81L30.98 12.64L29.01 12.64L29.01 2.72Q29.55 2.54 30.34 2.43Q31.14 2.32 31.90 2.32L31.90 2.32Q33.65 2.32 34.58 3.38Q35.50 4.43 35.50 6.24ZM36.50 6.30L36.50 6.30Q36.50 5.31 36.80 4.56Q37.10 3.81 37.60 3.30Q38.10 2.80 38.74 2.54Q39.38 2.29 40.05 2.29L40.05 2.29Q41.71 2.29 42.58 3.27Q43.44 4.26 43.44 6.14L43.44 6.14Q43.44 6.34 43.43 6.54Q43.42 6.75 43.41 6.88L43.41 6.88L38.53 6.88Q38.53 7.62 39.14 8.04Q39.74 8.46 40.70 8.46L40.70 8.46Q41.30 8.46 41.83 8.34Q42.37 8.21 42.74 8.08L42.74 8.08L43.01 9.76Q42.50 9.94 41.92 10.06Q41.34 10.18 40.62 10.18L40.62 10.18Q39.66 10.18 38.90 9.93Q38.14 9.68 37.61 9.19Q37.07 8.70 36.78 7.98Q36.50 7.26 36.50 6.30ZM38.53 5.52L41.54 5.52Q41.54 5.22 41.46 4.94Q41.38 4.66 41.20 4.43Q41.02 4.21 40.75 4.07Q40.48 3.94 40.08 3.94L40.08 3.94Q39.70 3.94 39.42 4.06Q39.14 4.19 38.95 4.42Q38.77 4.64 38.66 4.93Q38.56 5.22 38.53 5.52L38.53 5.52ZM45.01 10L45.01 2.72Q45.54 2.58 46.31 2.45Q47.09 2.32 48 2.32L48 2.32Q48.90 2.32 49.49 2.57Q50.08 2.82 50.42 3.27Q50.77 3.73 50.91 4.36Q51.06 4.99 51.06 5.76L51.06 5.76L51.06 10L49.09 10L49.09 6.02Q49.09 4.96 48.85 4.50Q48.61 4.03 47.87 4.03L47.87 4.03Q47.65 4.03 47.43 4.05Q47.22 4.06 46.98 4.10L46.98 4.10L46.98 10L45.01 10ZM52.40 0.10L59.60 0.10L59.60 1.73L56.99 1.73L56.99 10L55.01 10L55.01 1.73L52.40 1.73L52.40 0.10ZM65.54 2.48L67.55 2.48Q67.25 3.54 66.97 4.55Q66.69 5.57 66.38 6.54Q66.08 7.50 65.74 8.43Q65.39 9.36 64.99 10.24L64.99 10.24Q64.69 10.88 64.39 11.34Q64.10 11.81 63.74 12.10Q63.38 12.40 62.94 12.54Q62.50 12.69 61.90 12.69L61.90 12.69Q61.41 12.69 61 12.61Q60.59 12.53 60.32 12.40L60.32 12.40L60.69 10.75Q61.01 10.90 61.26 10.95Q61.50 11.01 61.79 11.01L61.79 11.01Q62.37 11.01 62.72 10.62Q63.07 10.24 63.28 9.71L63.28 9.71Q62.58 8.30 61.87 6.49Q61.17 4.67 60.59 2.48L60.59 2.48L62.64 2.48Q62.78 3.07 62.97 3.74Q63.15 4.42 63.36 5.09Q63.57 5.76 63.80 6.41Q64.03 7.06 64.27 7.62L64.27 7.62Q64.43 7.06 64.61 6.41Q64.78 5.76 64.94 5.10Q65.10 4.43 65.26 3.76Q65.41 3.09 65.54 2.48L65.54 2.48ZM73.50 6.30L73.50 6.30Q73.50 5.30 73.10 4.65Q72.70 4 71.89 4L71.89 4Q71.66 4 71.41 4.02Q71.15 4.05 70.98 4.06L70.98 4.06L70.98 8.19Q71.17 8.32 71.49 8.40Q71.81 8.48 72.13 8.48L72.13 8.48Q72.83 8.48 73.17 7.91Q73.50 7.34 73.50 6.30ZM75.50 6.24L75.50 6.24Q75.50 7.10 75.31 7.83Q75.12 8.56 74.75 9.08Q74.38 9.60 73.82 9.89Q73.26 10.18 72.53 10.18L72.53 10.18Q71.78 10.18 70.98 9.81L70.98 9.81L70.98 12.64L69.01 12.64L69.01 2.72Q69.55 2.54 70.34 2.43Q71.14 2.32 71.90 2.32L71.90 2.32Q73.65 2.32 74.58 3.38Q75.50 4.43 75.50 6.24ZM76.50 6.30L76.50 6.30Q76.50 5.31 76.80 4.56Q77.10 3.81 77.60 3.30Q78.10 2.80 78.74 2.54Q79.38 2.29 80.05 2.29L80.05 2.29Q81.71 2.29 82.58 3.27Q83.44 4.26 83.44 6.14L83.44 6.14Q83.44 6.34 83.43 6.54Q83.42 6.75 83.41 6.88L83.41 6.88L78.53 6.88Q78.53 7.62 79.14 8.04Q79.74 8.46 80.70 8.46L80.70 8.46Q81.30 8.46 81.83 8.34Q82.37 8.21 82.74 8.08L82.74 8.08L83.01 9.76Q82.50 9.94 81.92 10.06Q81.34 10.18 80.62 10.18L80.62 10.18Q79.66 10.18 78.90 9.93Q78.14 9.68 77.61 9.19Q77.07 8.70 76.78 7.98Q76.50 7.26 76.50 6.30ZM78.53 5.52L81.54 5.52Q81.54 5.22 81.46 4.94Q81.38 4.66 81.20 4.43Q81.02 4.21 80.75 4.07Q80.48 3.94 80.08 3.94L80.08 3.94Q79.70 3.94 79.42 4.06Q79.14 4.19 78.95 4.42Q78.77 4.64 78.66 4.93Q78.56 5.22 78.53 5.52L78.53 5.52ZM94.98 10L93.01 10L93.01 0.10L99.07 0.10L99.07 1.73L94.98 1.73L94.98 4.13L98.56 4.13L98.56 5.76L94.98 5.76L94.98 10ZM100.50 6.30L100.50 6.30Q100.50 5.31 100.80 4.56Q101.10 3.81 101.60 3.30Q102.10 2.80 102.74 2.54Q103.38 2.29 104.05 2.29L104.05 2.29Q105.71 2.29 106.58 3.27Q107.44 4.26 107.44 6.14L107.44 6.14Q107.44 6.34 107.43 6.54Q107.42 6.75 107.41 6.88L107.41 6.88L102.53 6.88Q102.53 7.62 103.14 8.04Q103.74 8.46 104.70 8.46L104.70 8.46Q105.30 8.46 105.83 8.34Q106.37 8.21 106.74 8.08L106.74 8.08L107.01 9.76Q106.50 9.94 105.92 10.06Q105.34 10.18 104.62 10.18L104.62 10.18Q103.66 10.18 102.90 9.93Q102.14 9.68 101.61 9.19Q101.07 8.70 100.78 7.98Q100.50 7.26 100.50 6.30ZM102.53 5.52L105.54 5.52Q105.54 5.22 105.46 4.94Q105.38 4.66 105.20 4.43Q105.02 4.21 104.75 4.07Q104.48 3.94 104.08 3.94L104.08 3.94Q103.70 3.94 103.42 4.06Q103.14 4.19 102.95 4.42Q102.77 4.64 102.66 4.93Q102.56 5.22 102.53 5.52L102.53 5.52ZM112.02 8.59L112.02 8.59Q112.34 8.59 112.64 8.58Q112.94 8.58 113.17 8.54L113.17 8.54L113.17 6.82Q112.98 6.78 112.70 6.76Q112.43 6.74 112.21 6.74L112.21 6.74Q111.90 6.74 111.62 6.78Q111.33 6.82 111.11 6.91Q110.90 7.01 110.77 7.18Q110.64 7.36 110.64 7.65L110.64 7.65Q110.64 8.16 111.02 8.38Q111.41 8.59 112.02 8.59ZM111.84 2.29L111.84 2.29Q112.77 2.29 113.38 2.50Q114 2.72 114.37 3.11Q114.74 3.50 114.90 4.07Q115.06 4.64 115.06 5.34L115.06 5.34L115.06 9.82Q114.62 9.92 113.78 10.05Q112.93 10.18 111.87 10.18L111.87 10.18Q111.15 10.18 110.57 10.05Q109.98 9.92 109.57 9.62Q109.15 9.33 108.93 8.86Q108.70 8.38 108.70 7.70L108.70 7.70Q108.70 7.04 108.96 6.59Q109.22 6.14 109.65 5.87Q110.08 5.60 110.64 5.48Q111.20 5.36 111.81 5.36L111.81 5.36Q112.58 5.36 113.17 5.49L113.17 5.49L113.17 5.25Q113.17 4.69 112.82 4.31Q112.46 3.94 111.60 3.94L111.60 3.94Q111.04 3.94 110.52 4.02Q110 4.10 109.68 4.21L109.68 4.21L109.41 2.62Q109.78 2.50 110.45 2.39Q111.12 2.29 111.84 2.29ZM118.29 7.20L118.29 4.11L116.58 4.11L116.58 2.48L118.29 2.48L118.29 0.59L120.26 0.27L120.26 2.48L123.41 2.48L123.41 4.11L120.26 4.11L120.26 7.15Q120.26 7.57 120.34 7.82Q120.42 8.08 120.56 8.22Q120.70 8.37 120.91 8.42Q121.12 8.46 121.38 8.46L121.38 8.46Q121.65 8.46 121.88 8.45Q122.11 8.43 122.33 8.39Q122.54 8.35 122.78 8.27Q123.01 8.19 123.28 8.06L123.28 8.06L123.55 9.76Q123.01 9.98 122.38 10.08Q121.74 10.18 121.15 10.18L121.15 10.18Q120.46 10.18 119.94 10.06Q119.41 9.95 119.04 9.63Q118.67 9.31 118.48 8.73Q118.29 8.14 118.29 7.20L118.29 7.20ZM131.01 2.48L131.01 9.74Q130.46 9.89 129.69 10.03Q128.91 10.18 128 10.18L128 10.18Q127.07 10.18 126.48 9.92Q125.89 9.66 125.54 9.19Q125.20 8.72 125.07 8.08Q124.94 7.44 124.94 6.67L124.94 6.67L124.94 2.48L126.91 2.48L126.91 6.42Q126.91 7.46 127.16 7.96Q127.41 8.46 128.13 8.46L128.13 8.46Q128.58 8.46 129.02 8.38L129.02 8.38L129.02 2.48L131.01 2.48ZM139.34 2.66L138.99 4.48Q138.80 4.43 138.54 4.38Q138.27 4.34 138 4.30Q137.73 4.26 137.47 4.24Q137.22 4.22 137.04 4.22L137.04 4.22Q136.62 4.22 136.22 4.26Q135.82 4.30 135.41 4.42L135.41 4.42L135.41 10L133.42 10L133.42 2.98Q134.21 2.69 135.03 2.51Q135.86 2.34 136.96 2.34L136.96 2.34Q137.12 2.34 137.42 2.35Q137.71 2.37 138.05 2.41Q138.38 2.45 138.73 2.50Q139.07 2.56 139.34 2.66L139.34 2.66ZM140.50 6.30L140.50 6.30Q140.50 5.31 140.80 4.56Q141.10 3.81 141.60 3.30Q142.10 2.80 142.74 2.54Q143.38 2.29 144.05 2.29L144.05 2.29Q145.71 2.29 146.58 3.27Q147.44 4.26 147.44 6.14L147.44 6.14Q147.44 6.34 147.43 6.54Q147.42 6.75 147.41 6.88L147.41 6.88L142.53 6.88Q142.53 7.62 143.14 8.04Q143.74 8.46 144.70 8.46L144.70 8.46Q145.30 8.46 145.83 8.34Q146.37 8.21 146.74 8.08L146.74 8.08L147.01 9.76Q146.50 9.94 145.92 10.06Q145.34 10.18 144.62 10.18L144.62 10.18Q143.66 10.18 142.90 9.93Q142.14 9.68 141.61 9.19Q141.07 8.70 140.78 7.98Q140.50 7.26 140.50 6.30ZM142.53 5.52L145.54 5.52Q145.54 5.22 145.46 4.94Q145.38 4.66 145.20 4.43Q145.02 4.21 144.75 4.07Q144.48 3.94 144.08 3.94L144.08 3.94Q143.70 3.94 143.42 4.06Q143.14 4.19 142.95 4.42Q142.77 4.64 142.66 4.93Q142.56 5.22 142.53 5.52L142.53 5.52ZM158.98 10L157.01 10L157.01 0.10L163.07 0.10L163.07 1.73L158.98 1.73L158.98 4.13L162.56 4.13L162.56 5.76L158.98 5.76L158.98 10ZM168.54 0.32L168.54 0.32Q168.54 0.90 168.18 1.23Q167.81 1.57 167.30 1.57L167.30 1.57Q166.78 1.57 166.42 1.23Q166.06 0.90 166.06 0.32L166.06 0.32Q166.06-0.27 166.42-0.61Q166.78-0.94 167.30-0.94L167.30-0.94Q167.81-0.94 168.18-0.61Q168.54-0.27 168.54 0.32ZM171.22 8.10L171.47 9.68Q170.86 9.97 170.33 10.07Q169.79 10.18 169.34 10.18L169.34 10.18Q168.58 10.18 168.06 9.95Q167.54 9.73 167.22 9.30Q166.91 8.88 166.78 8.27Q166.66 7.66 166.66 6.88L166.66 6.88L166.66 4.11L164.58 4.11L164.58 2.48L168.62 2.48L168.62 7.14Q168.62 7.81 168.87 8.14Q169.12 8.46 169.70 8.46L169.70 8.46Q169.97 8.46 170.35 8.39Q170.74 8.32 171.22 8.10L171.22 8.10ZM179.22 8.10L179.47 9.68Q179.42 9.71 179.26 9.79Q179.09 9.87 178.82 9.96Q178.54 10.05 178.15 10.11Q177.76 10.18 177.26 10.18L177.26 10.18Q175.90 10.18 175.28 9.37Q174.66 8.56 174.66 7.01L174.66 7.01L174.66 0.62L172.58 0.62L172.58-1.01L176.62-1.01L176.62 7.15Q176.62 7.92 176.93 8.19Q177.23 8.46 177.70 8.46L177.70 8.46Q178.29 8.46 178.69 8.30Q179.09 8.14 179.22 8.10L179.22 8.10ZM180.50 6.30L180.50 6.30Q180.50 5.31 180.80 4.56Q181.10 3.81 181.60 3.30Q182.10 2.80 182.74 2.54Q183.38 2.29 184.05 2.29L184.05 2.29Q185.71 2.29 186.58 3.27Q187.44 4.26 187.44 6.14L187.44 6.14Q187.44 6.34 187.43 6.54Q187.42 6.75 187.41 6.88L187.41 6.88L182.53 6.88Q182.53 7.62 183.14 8.04Q183.74 8.46 184.70 8.46L184.70 8.46Q185.30 8.46 185.83 8.34Q186.37 8.21 186.74 8.08L186.74 8.08L187.01 9.76Q186.50 9.94 185.92 10.06Q185.34 10.18 184.62 10.18L184.62 10.18Q183.66 10.18 182.90 9.93Q182.14 9.68 181.61 9.19Q181.07 8.70 180.78 7.98Q180.50 7.26 180.50 6.30ZM182.53 5.52L185.54 5.52Q185.54 5.22 185.46 4.94Q185.38 4.66 185.20 4.43Q185.02 4.21 184.75 4.07Q184.48 3.94 184.08 3.94L184.08 3.94Q183.70 3.94 183.42 4.06Q183.14 4.19 182.95 4.42Q182.77 4.64 182.66 4.93Q182.56 5.22 182.53 5.52L182.53 5.52Z"/>
    </g>
</svg>