<?xml version="1.0" encoding="UTF-8"?><svg height="34" width="296.1" version="1.1" xmlns="http://www.w3.org/2000/svg"><!--Created by Josélio de S. C. Júnior - 2021 - https://github.com/joseliojunior --><defs><pattern id="pattern" x="3" y="3" width="6" height="6" patternUnits="userSpaceOnUse" patternTransform="rotate(45)"><rect height="6" width="6" fill="#ffffff"/><line x1="0" y1="0" x2="0" y2="6" stroke="#bbbbbb" stroke-width="2" /></pattern></defs><rect height="32" width="294.1" rx="16" ry="16" x="1" y="1" fill="url(#pattern)" /><g transform="translate(0, 12)"><path fill="#000000" d="M23.65 4.56L23.65 4.56Q23.65 5.64 23.73 6.59Q23.82 7.54 24.07 8.23Q24.32 8.93 24.78 9.34Q25.23 9.74 26 9.74L26 9.74Q26.74 9.74 27.21 9.34Q27.68 8.93 27.93 8.22Q28.18 7.51 28.27 6.58Q28.35 5.64 28.35 4.56L28.35 4.56Q28.35 3.48 28.27 2.53Q28.18 1.58 27.93 0.89Q27.68 0.19 27.22-0.22Q26.77-0.62 26-0.62L26-0.62Q25.23-0.62 24.78-0.22Q24.32 0.19 24.07 0.90Q23.82 1.61 23.73 2.54Q23.65 3.48 23.65 4.56ZM20.65 4.56L20.65 4.56Q20.65 0.72 22.06-1.24Q23.48-3.19 26-3.19L26-3.19Q28.62-3.19 29.98-1.24Q31.35 0.72 31.35 4.56L31.35 4.56Q31.35 8.40 29.96 10.36Q28.57 12.31 26.02 12.31L26.02 12.31Q23.41 12.31 22.03 10.36Q20.65 8.40 20.65 4.56ZM40.26 6.46L40.26 6.46Q40.26 4.94 39.66 3.97Q39.06 3 37.83 3L37.83 3Q37.50 3 37.11 3.04Q36.73 3.07 36.46 3.10L36.46 3.10L36.46 9.29Q36.75 9.48 37.23 9.60Q37.71 9.72 38.19 9.72L38.19 9.72Q39.25 9.72 39.75 8.87Q40.26 8.02 40.26 6.46ZM43.26 6.36L43.26 6.36Q43.26 7.66 42.97 8.75Q42.68 9.84 42.13 10.62Q41.58 11.40 40.74 11.83Q39.90 12.26 38.79 12.26L38.79 12.26Q37.66 12.26 36.46 11.71L36.46 11.71L36.46 15.96L33.51 15.96L33.51 1.08Q34.33 0.82 35.52 0.65Q36.70 0.48 37.86 0.48L37.86 0.48Q40.47 0.48 41.86 2.06Q43.26 3.65 43.26 6.36ZM44.74 6.46L44.74 6.46Q44.74 4.97 45.20 3.84Q45.66 2.71 46.40 1.96Q47.14 1.20 48.10 0.82Q49.06 0.43 50.07 0.43L50.07 0.43Q52.57 0.43 53.86 1.91Q55.16 3.38 55.16 6.22L55.16 6.22Q55.16 6.50 55.15 6.82Q55.14 7.13 55.11 7.32L55.11 7.32L47.79 7.32Q47.79 8.42 48.70 9.06Q49.62 9.70 51.06 9.70L51.06 9.70Q51.94 9.70 52.75 9.50Q53.55 9.31 54.10 9.12L54.10 9.12L54.51 11.64Q53.74 11.90 52.88 12.08Q52.02 12.26 50.94 12.26L50.94 12.26Q49.50 12.26 48.36 11.89Q47.22 11.52 46.41 10.79Q45.61 10.06 45.18 8.98Q44.74 7.90 44.74 6.46ZM47.79 5.28L52.30 5.28Q52.30 4.82 52.18 4.40Q52.06 3.98 51.80 3.65Q51.54 3.31 51.13 3.11Q50.72 2.90 50.12 2.90L50.12 2.90Q49.54 2.90 49.12 3.10Q48.70 3.29 48.43 3.62Q48.15 3.96 48.00 4.39Q47.84 4.82 47.79 5.28L47.79 5.28ZM57.51 12L57.51 1.08Q58.30 0.86 59.47 0.67Q60.63 0.48 62 0.48L62 0.48Q63.34 0.48 64.23 0.85Q65.12 1.22 65.64 1.91Q66.15 2.59 66.37 3.54Q66.58 4.49 66.58 5.64L66.58 5.64L66.58 12L63.63 12L63.63 6.02Q63.63 4.44 63.27 3.74Q62.91 3.05 61.81 3.05L61.81 3.05Q61.47 3.05 61.15 3.07Q60.82 3.10 60.46 3.14L60.46 3.14L60.46 12L57.51 12ZM68.60-2.86L79.40-2.86L79.40-0.41L75.49-0.41L75.49 12L72.51 12L72.51-0.41L68.60-0.41L68.60-2.86ZM88.30 0.72L91.33 0.72Q90.87 2.30 90.45 3.83Q90.03 5.35 89.58 6.80Q89.12 8.26 88.60 9.65Q88.09 11.04 87.49 12.36L87.49 12.36Q87.03 13.32 86.59 14.02Q86.14 14.71 85.60 15.16Q85.06 15.60 84.40 15.82Q83.74 16.03 82.86 16.03L82.86 16.03Q82.11 16.03 81.50 15.91Q80.89 15.79 80.48 15.60L80.48 15.60L81.03 13.13Q81.51 13.34 81.88 13.43Q82.26 13.51 82.69 13.51L82.69 13.51Q83.55 13.51 84.08 12.94Q84.61 12.36 84.92 11.57L84.92 11.57Q83.86 9.46 82.81 6.73Q81.75 4.01 80.89 0.72L80.89 0.72L83.96 0.72Q84.18 1.61 84.45 2.62Q84.73 3.62 85.04 4.63Q85.35 5.64 85.70 6.61Q86.05 7.58 86.41 8.42L86.41 8.42Q86.65 7.58 86.91 6.61Q87.18 5.64 87.42 4.64Q87.66 3.65 87.88 2.64Q88.11 1.63 88.30 0.72L88.30 0.72ZM100.26 6.46L100.26 6.46Q100.26 4.94 99.66 3.97Q99.06 3 97.83 3L97.83 3Q97.50 3 97.11 3.04Q96.73 3.07 96.46 3.10L96.46 3.10L96.46 9.29Q96.75 9.48 97.23 9.60Q97.71 9.72 98.19 9.72L98.19 9.72Q99.25 9.72 99.75 8.87Q100.26 8.02 100.26 6.46ZM103.26 6.36L103.26 6.36Q103.26 7.66 102.97 8.75Q102.68 9.84 102.13 10.62Q101.58 11.40 100.74 11.83Q99.90 12.26 98.79 12.26L98.79 12.26Q97.66 12.26 96.46 11.71L96.46 11.71L96.46 15.96L93.51 15.96L93.51 1.08Q94.33 0.82 95.52 0.65Q96.70 0.48 97.86 0.48L97.86 0.48Q100.47 0.48 101.86 2.06Q103.26 3.65 103.26 6.36ZM104.74 6.46L104.74 6.46Q104.74 4.97 105.20 3.84Q105.66 2.71 106.40 1.96Q107.14 1.20 108.10 0.82Q109.06 0.43 110.07 0.43L110.07 0.43Q112.57 0.43 113.86 1.91Q115.16 3.38 115.16 6.22L115.16 6.22Q115.16 6.50 115.15 6.82Q115.14 7.13 115.11 7.32L115.11 7.32L107.79 7.32Q107.79 8.42 108.70 9.06Q109.62 9.70 111.06 9.70L111.06 9.70Q111.94 9.70 112.75 9.50Q113.55 9.31 114.10 9.12L114.10 9.12L114.51 11.64Q113.74 11.90 112.88 12.08Q112.02 12.26 110.94 12.26L110.94 12.26Q109.50 12.26 108.36 11.89Q107.22 11.52 106.41 10.79Q105.61 10.06 105.18 8.98Q104.74 7.90 104.74 6.46ZM107.79 5.28L112.30 5.28Q112.30 4.82 112.18 4.40Q112.06 3.98 111.80 3.65Q111.54 3.31 111.13 3.11Q110.72 2.90 110.12 2.90L110.12 2.90Q109.54 2.90 109.12 3.10Q108.70 3.29 108.43 3.62Q108.15 3.96 108.00 4.39Q107.84 4.82 107.79 5.28L107.79 5.28ZM132.46 12L129.51 12L129.51-2.86L138.61-2.86L138.61-0.41L132.46-0.41L132.46 3.19L137.84 3.19L137.84 5.64L132.46 5.64L132.46 12ZM140.74 6.46L140.74 6.46Q140.74 4.97 141.20 3.84Q141.66 2.71 142.40 1.96Q143.14 1.20 144.10 0.82Q145.06 0.43 146.07 0.43L146.07 0.43Q148.57 0.43 149.86 1.91Q151.16 3.38 151.16 6.22L151.16 6.22Q151.16 6.50 151.15 6.82Q151.14 7.13 151.11 7.32L151.11 7.32L143.79 7.32Q143.79 8.42 144.70 9.06Q145.62 9.70 147.06 9.70L147.06 9.70Q147.94 9.70 148.75 9.50Q149.55 9.31 150.10 9.12L150.10 9.12L150.51 11.64Q149.74 11.90 148.88 12.08Q148.02 12.26 146.94 12.26L146.94 12.26Q145.50 12.26 144.36 11.89Q143.22 11.52 142.41 10.79Q141.61 10.06 141.18 8.98Q140.74 7.90 140.74 6.46ZM143.79 5.28L148.30 5.28Q148.30 4.82 148.18 4.40Q148.06 3.98 147.80 3.65Q147.54 3.31 147.13 3.11Q146.72 2.90 146.12 2.90L146.12 2.90Q145.54 2.90 145.12 3.10Q144.70 3.29 144.43 3.62Q144.15 3.96 144.00 4.39Q143.84 4.82 143.79 5.28L143.79 5.28ZM158.02 9.89L158.02 9.89Q158.50 9.89 158.96 9.88Q159.42 9.86 159.75 9.82L159.75 9.82L159.75 7.22Q159.46 7.18 159.06 7.14Q158.65 7.10 158.31 7.10L158.31 7.10Q157.86 7.10 157.42 7.16Q156.99 7.22 156.67 7.37Q156.34 7.51 156.15 7.78Q155.96 8.04 155.96 8.47L155.96 8.47Q155.96 9.24 156.54 9.56Q157.11 9.89 158.02 9.89ZM157.76 0.43L157.76 0.43Q159.15 0.43 160.08 0.76Q161 1.08 161.55 1.67Q162.10 2.26 162.34 3.11Q162.58 3.96 162.58 5.02L162.58 5.02L162.58 11.74Q161.94 11.88 160.66 12.07Q159.39 12.26 157.81 12.26L157.81 12.26Q156.73 12.26 155.85 12.07Q154.98 11.88 154.35 11.44Q153.73 10.99 153.39 10.28Q153.06 9.58 153.06 8.54L153.06 8.54Q153.06 7.56 153.44 6.89Q153.82 6.22 154.47 5.81Q155.12 5.40 155.96 5.22Q156.80 5.04 157.71 5.04L157.71 5.04Q158.86 5.04 159.75 5.23L159.75 5.23L159.75 4.87Q159.75 4.03 159.22 3.47Q158.70 2.90 157.40 2.90L157.40 2.90Q156.56 2.90 155.78 3.02Q155 3.14 154.52 3.31L154.52 3.31L154.11 0.94Q154.66 0.74 155.67 0.59Q156.68 0.43 157.76 0.43ZM167.43 7.80L167.43 3.17L164.86 3.17L164.86 0.72L167.43 0.72L167.43-2.11L170.38-2.59L170.38 0.72L175.11 0.72L175.11 3.17L170.38 3.17L170.38 7.73Q170.38 8.35 170.50 8.74Q170.62 9.12 170.84 9.34Q171.06 9.55 171.37 9.62Q171.68 9.70 172.06 9.70L172.06 9.70Q172.47 9.70 172.82 9.67Q173.17 9.65 173.49 9.59Q173.82 9.53 174.16 9.41Q174.51 9.29 174.92 9.10L174.92 9.10L175.33 11.64Q174.51 11.98 173.56 12.12Q172.62 12.26 171.73 12.26L171.73 12.26Q170.70 12.26 169.90 12.10Q169.11 11.93 168.56 11.45Q168.01 10.97 167.72 10.09Q167.43 9.22 167.43 7.80L167.43 7.80ZM186.51 0.72L186.51 11.62Q185.70 11.83 184.53 12.05Q183.37 12.26 182 12.26L182 12.26Q180.61 12.26 179.72 11.88Q178.83 11.50 178.32 10.79Q177.80 10.08 177.61 9.12Q177.42 8.16 177.42 7.01L177.42 7.01L177.42 0.72L180.37 0.72L180.37 6.62Q180.37 8.18 180.74 8.94Q181.11 9.70 182.19 9.70L182.19 9.70Q182.86 9.70 183.54 9.58L183.54 9.58L183.54 0.72L186.51 0.72ZM199.02 0.98L198.49 3.72Q198.20 3.65 197.80 3.58Q197.41 3.50 197 3.44Q196.59 3.38 196.21 3.36Q195.82 3.34 195.56 3.34L195.56 3.34Q194.94 3.34 194.34 3.40Q193.74 3.46 193.11 3.62L193.11 3.62L193.11 12L190.14 12L190.14 1.46Q191.31 1.03 192.55 0.77Q193.78 0.50 195.44 0.50L195.44 0.50Q195.68 0.50 196.12 0.53Q196.57 0.55 197.07 0.61Q197.58 0.67 198.09 0.76Q198.61 0.84 199.02 0.98L199.02 0.98ZM200.74 6.46L200.74 6.46Q200.74 4.97 201.20 3.84Q201.66 2.71 202.40 1.96Q203.14 1.20 204.10 0.82Q205.06 0.43 206.07 0.43L206.07 0.43Q208.57 0.43 209.86 1.91Q211.16 3.38 211.16 6.22L211.16 6.22Q211.16 6.50 211.15 6.82Q211.14 7.13 211.11 7.32L211.11 7.32L203.79 7.32Q203.79 8.42 204.70 9.06Q205.62 9.70 207.06 9.70L207.06 9.70Q207.94 9.70 208.75 9.50Q209.55 9.31 210.10 9.12L210.10 9.12L210.51 11.64Q209.74 11.90 208.88 12.08Q208.02 12.26 206.94 12.26L206.94 12.26Q205.50 12.26 204.36 11.89Q203.22 11.52 202.41 10.79Q201.61 10.06 201.18 8.98Q200.74 7.90 200.74 6.46ZM203.79 5.28L208.30 5.28Q208.30 4.82 208.18 4.40Q208.06 3.98 207.80 3.65Q207.54 3.31 207.13 3.11Q206.72 2.90 206.12 2.90L206.12 2.90Q205.54 2.90 205.12 3.10Q204.70 3.29 204.43 3.62Q204.15 3.96 204.00 4.39Q203.84 4.82 203.79 5.28L203.79 5.28ZM228.46 12L225.51 12L225.51-2.86L234.61-2.86L234.61-0.41L228.46-0.41L228.46 3.19L233.84 3.19L233.84 5.64L228.46 5.64L228.46 12ZM242.82-2.52L242.82-2.52Q242.82-1.66 242.26-1.15Q241.71-0.65 240.94-0.65L240.94-0.65Q240.18-0.65 239.64-1.15Q239.10-1.66 239.10-2.52L239.10-2.52Q239.10-3.41 239.64-3.91Q240.18-4.42 240.94-4.42L240.94-4.42Q241.71-4.42 242.26-3.91Q242.82-3.41 242.82-2.52ZM246.82 9.14L247.21 11.52Q246.30 11.95 245.49 12.11Q244.69 12.26 244.02 12.26L244.02 12.26Q242.86 12.26 242.08 11.93Q241.30 11.59 240.84 10.96Q240.37 10.32 240.18 9.41Q239.98 8.50 239.98 7.32L239.98 7.32L239.98 3.17L236.86 3.17L236.86 0.72L242.94 0.72L242.94 7.70Q242.94 8.71 243.31 9.20Q243.68 9.70 244.54 9.70L244.54 9.70Q244.95 9.70 245.53 9.59Q246.10 9.48 246.82 9.14L246.82 9.14ZM258.82 9.14L259.21 11.52Q259.14 11.57 258.88 11.69Q258.63 11.81 258.22 11.94Q257.82 12.07 257.23 12.17Q256.64 12.26 255.90 12.26L255.90 12.26Q253.86 12.26 252.92 11.05Q251.98 9.84 251.98 7.51L251.98 7.51L251.98-2.06L248.86-2.06L248.86-4.51L254.94-4.51L254.94 7.73Q254.94 8.88 255.39 9.29Q255.85 9.70 256.54 9.70L256.54 9.70Q257.43 9.70 258.03 9.46Q258.63 9.22 258.82 9.14L258.82 9.14ZM260.74 6.46L260.74 6.46Q260.74 4.97 261.20 3.84Q261.66 2.71 262.40 1.96Q263.14 1.20 264.10 0.82Q265.06 0.43 266.07 0.43L266.07 0.43Q268.57 0.43 269.86 1.91Q271.16 3.38 271.16 6.22L271.16 6.22Q271.16 6.50 271.15 6.82Q271.14 7.13 271.11 7.32L271.11 7.32L263.79 7.32Q263.79 8.42 264.70 9.06Q265.62 9.70 267.06 9.70L267.06 9.70Q267.94 9.70 268.75 9.50Q269.55 9.31 270.10 9.12L270.10 9.12L270.51 11.64Q269.74 11.90 268.88 12.08Q268.02 12.26 266.94 12.26L266.94 12.26Q265.50 12.26 264.36 11.89Q263.22 11.52 262.41 10.79Q261.61 10.06 261.18 8.98Q260.74 7.90 260.74 6.46ZM263.79 5.28L268.30 5.28Q268.30 4.82 268.18 4.40Q268.06 3.98 267.80 3.65Q267.54 3.31 267.13 3.11Q266.72 2.90 266.12 2.90L266.12 2.90Q265.54 2.90 265.12 3.10Q264.70 3.29 264.43 3.62Q264.15 3.96 264.00 4.39Q263.84 4.82 263.79 5.28L263.79 5.28Z"/></g></svg>