<?xml version="1.0" encoding="UTF-8"?>
<svg height="26" width="98.69999999999999" version="1.1" xmlns="http://www.w3.org/2000/svg"><!--Created by Josélio de S. C. Júnior - 2021 - https://github.com/joseliojunior -->
    <rect
        height="24"
        width="96.69999999999999"
        rx="12"
        ry="12"
        x="1" y="1"
        fill="#001d9d"
        stroke="#385dff"
        stroke-width="1" />
    <g transform="translate(0, 8)">
        <path fill="#385dff" stroke="none" d="M27.36 10L21.01 10L21.01 0.10L27.01 0.10L27.01 1.73L22.98 1.73L22.98 3.95L26.48 3.95L26.48 5.58L22.98 5.58L22.98 8.37L27.36 8.37L27.36 10ZM32.74 10.21L32.74 10.21Q30.64 10.21 29.54 8.86Q28.43 7.52 28.43 5.04L28.43 5.04Q28.43 3.81 28.77 2.85Q29.10 1.89 29.70 1.22Q30.30 0.56 31.13 0.22Q31.95-0.13 32.93-0.13L32.93-0.13Q33.46-0.13 33.88-0.04Q34.30 0.05 34.62 0.16Q34.94 0.27 35.16 0.40Q35.38 0.53 35.49 0.59L35.49 0.59L34.98 2.16Q34.61 1.92 34.09 1.75Q33.57 1.58 32.90 1.58L32.90 1.58Q32.43 1.58 31.99 1.75Q31.55 1.92 31.21 2.31Q30.86 2.70 30.65 3.36Q30.43 4.02 30.43 4.99L30.43 4.99Q30.43 6.69 31.02 7.59Q31.60 8.50 32.93 8.50L32.93 8.50Q33.70 8.50 34.20 8.32Q34.70 8.14 35.01 7.97L35.01 7.97L35.50 9.52Q35.09 9.78 34.38 9.99Q33.66 10.21 32.74 10.21ZM43.36 8.37L43.36 10L37.14 10L37.14 0.10L39.12 0.10L39.12 8.37L43.36 8.37ZM48.54 0.32L48.54 0.32Q48.54 0.90 48.18 1.23Q47.81 1.57 47.30 1.57L47.30 1.57Q46.78 1.57 46.42 1.23Q46.06 0.90 46.06 0.32L46.06 0.32Q46.06-0.27 46.42-0.61Q46.78-0.94 47.30-0.94L47.30-0.94Q47.81-0.94 48.18-0.61Q48.54-0.27 48.54 0.32ZM51.22 8.10L51.47 9.68Q50.86 9.97 50.33 10.07Q49.79 10.18 49.34 10.18L49.34 10.18Q48.58 10.18 48.06 9.95Q47.54 9.73 47.22 9.30Q46.91 8.88 46.78 8.27Q46.66 7.66 46.66 6.88L46.66 6.88L46.66 4.11L44.58 4.11L44.58 2.48L48.62 2.48L48.62 7.14Q48.62 7.81 48.87 8.14Q49.12 8.46 49.70 8.46L49.70 8.46Q49.97 8.46 50.35 8.39Q50.74 8.32 51.22 8.10L51.22 8.10ZM55.58-0.02L55.58-0.02Q57.47-0.02 58.51 0.76Q59.55 1.54 59.55 3.30L59.55 3.30Q59.55 5.07 58.50 5.86Q57.46 6.66 55.54 6.66L55.54 6.66L54.83 6.66L54.83 10L52.86 10L52.86 0.22Q53.15 0.16 53.51 0.11Q53.87 0.06 54.24 0.04Q54.61 0.02 54.96 0Q55.31-0.02 55.58-0.02ZM55.81 1.70L55.81 1.70Q55.63 1.70 55.32 1.70Q55.01 1.71 54.83 1.74L54.83 1.74L54.83 4.94L55.63 4.94Q56.58 4.94 57.06 4.57Q57.54 4.19 57.54 3.28L57.54 3.28Q57.54 2.42 57.06 2.06Q56.59 1.70 55.81 1.70ZM63.71 8.56L63.71 8.56Q64.21 8.56 64.54 8.46Q64.86 8.35 65.06 8.17Q65.25 7.98 65.32 7.75Q65.39 7.52 65.39 7.28L65.39 7.28Q65.39 6.98 65.22 6.74Q65.04 6.50 64.77 6.31Q64.50 6.13 64.16 5.98Q63.82 5.82 63.49 5.70L63.49 5.70Q63.04 5.54 62.56 5.33Q62.08 5.12 61.69 4.80Q61.30 4.48 61.04 4.01Q60.78 3.54 60.78 2.83L60.78 2.83Q60.78 1.44 61.69 0.66Q62.59-0.13 64.18-0.13L64.18-0.13Q65.09-0.13 65.77 0.08Q66.45 0.29 66.91 0.54L66.91 0.54L66.34 2.06Q65.94 1.84 65.45 1.68Q64.96 1.52 64.32 1.52L64.32 1.52Q62.75 1.52 62.75 2.66L62.75 2.66Q62.75 2.94 62.91 3.16Q63.07 3.38 63.32 3.54Q63.57 3.71 63.88 3.84Q64.19 3.97 64.50 4.08L64.50 4.08Q64.96 4.26 65.46 4.47Q65.97 4.69 66.39 5.05Q66.82 5.41 67.09 5.94Q67.36 6.48 67.36 7.30L67.36 7.30Q67.36 8.69 66.46 9.45Q65.55 10.21 63.71 10.21L63.71 10.21Q62.48 10.21 61.74 9.94Q61.01 9.68 60.64 9.46L60.64 9.46L61.22 7.86Q61.65 8.11 62.25 8.34Q62.85 8.56 63.71 8.56ZM68.50 6.30L68.50 6.30Q68.50 5.31 68.80 4.56Q69.10 3.81 69.60 3.30Q70.10 2.80 70.74 2.54Q71.38 2.29 72.05 2.29L72.05 2.29Q73.71 2.29 74.58 3.27Q75.44 4.26 75.44 6.14L75.44 6.14Q75.44 6.34 75.43 6.54Q75.42 6.75 75.41 6.88L75.41 6.88L70.53 6.88Q70.53 7.62 71.14 8.04Q71.74 8.46 72.70 8.46L72.70 8.46Q73.30 8.46 73.83 8.34Q74.37 8.21 74.74 8.08L74.74 8.08L75.01 9.76Q74.50 9.94 73.92 10.06Q73.34 10.18 72.62 10.18L72.62 10.18Q71.66 10.18 70.90 9.93Q70.14 9.68 69.61 9.19Q69.07 8.70 68.78 7.98Q68.50 7.26 68.50 6.30ZM70.53 5.52L73.54 5.52Q73.54 5.22 73.46 4.94Q73.38 4.66 73.20 4.43Q73.02 4.21 72.75 4.07Q72.48 3.94 72.08 3.94L72.08 3.94Q71.70 3.94 71.42 4.06Q71.14 4.19 70.95 4.42Q70.77 4.64 70.66 4.93Q70.56 5.22 70.53 5.52L70.53 5.52Z"/>
    </g>
</svg>