<?xml version="1.0" encoding="UTF-8"?>
<svg height="34" width="120.7" version="1.1" xmlns="http://www.w3.org/2000/svg">
    <rect
        height="32"
        width="118.7"
        rx="1"
        ry="1"
        x="1"
        y="1"
        fill="#001d9d"
        stroke="#385dff"
        stroke-width="1"
         />
    <g transform="translate(0, 14)">
        <path fill="#385dff" d="M22.88 11L11.76 11L11.76-6.33L22.26-6.33L22.26-3.48L15.21-3.48L15.21 0.42L21.34 0.42L21.34 3.27L15.21 3.27L15.21 8.14L22.88 8.14L22.88 11ZM32.29 11.36L32.29 11.36Q28.62 11.36 26.69 9.01Q24.76 6.66 24.76 2.32L24.76 2.32Q24.76 0.16 25.34-1.52Q25.93-3.20 26.98-4.36Q28.03-5.52 29.47-6.12Q30.92-6.72 32.62-6.72L32.62-6.72Q33.55-6.72 34.29-6.57Q35.03-6.42 35.59-6.22Q36.15-6.02 36.53-5.80Q36.91-5.58 37.10-5.46L37.10-5.46L36.21-2.72Q35.56-3.14 34.65-3.43Q33.74-3.73 32.57-3.73L32.57-3.73Q31.76-3.73 30.99-3.43Q30.22-3.14 29.61-2.45Q29.01-1.77 28.63-0.62Q28.26 0.53 28.26 2.24L28.26 2.24Q28.26 5.20 29.28 6.79Q30.30 8.37 32.62 8.37L32.62 8.37Q33.97 8.37 34.85 8.06Q35.73 7.75 36.26 7.44L36.26 7.44L37.13 10.16Q36.40 10.61 35.16 10.99Q33.91 11.36 32.29 11.36ZM50.88 8.14L50.88 11L39.99 11L39.99-6.33L43.46-6.33L43.46 8.14L50.88 8.14ZM59.95-5.94L59.95-5.94Q59.95-4.93 59.31-4.34Q58.66-3.76 57.77-3.76L57.77-3.76Q56.87-3.76 56.24-4.34Q55.61-4.93 55.61-5.94L55.61-5.94Q55.61-6.98 56.24-7.56Q56.87-8.15 57.77-8.15L57.77-8.15Q58.66-8.15 59.31-7.56Q59.95-6.98 59.95-5.94ZM64.63 7.67L65.08 10.44Q64.01 10.94 63.07 11.13Q62.14 11.31 61.35 11.31L61.35 11.31Q60.01 11.31 59.10 10.92Q58.19 10.52 57.64 9.78Q57.10 9.04 56.87 7.98Q56.65 6.91 56.65 5.54L56.65 5.54L56.65 0.70L53.01 0.70L53.01-2.16L60.09-2.16L60.09 5.99Q60.09 7.16 60.53 7.74Q60.96 8.31 61.97 8.31L61.97 8.31Q62.44 8.31 63.12 8.19Q63.79 8.06 64.63 7.67L64.63 7.67ZM72.27-6.53L72.27-6.53Q75.58-6.53 77.40-5.17Q79.22-3.81 79.22-0.73L79.22-0.73Q79.22 2.38 77.38 3.76Q75.55 5.15 72.19 5.15L72.19 5.15L70.96 5.15L70.96 11L67.51 11L67.51-6.11Q68.02-6.22 68.65-6.30Q69.28-6.39 69.92-6.43Q70.56-6.47 71.18-6.50Q71.80-6.53 72.27-6.53ZM72.66-3.53L72.66-3.53Q72.36-3.53 71.81-3.52Q71.26-3.50 70.96-3.45L70.96-3.45L70.96 2.15L72.36 2.15Q74.01 2.15 74.85 1.49Q75.69 0.84 75.69-0.76L75.69-0.76Q75.69-2.27 74.86-2.90Q74.04-3.53 72.66-3.53ZM86.50 8.48L86.50 8.48Q87.36 8.48 87.94 8.30Q88.51 8.12 88.85 7.79Q89.18 7.47 89.31 7.07Q89.44 6.66 89.44 6.24L89.44 6.24Q89.44 5.71 89.13 5.29Q88.82 4.87 88.34 4.55Q87.87 4.22 87.28 3.96Q86.69 3.69 86.10 3.47L86.10 3.47Q85.32 3.19 84.48 2.82Q83.64 2.46 82.95 1.90Q82.27 1.34 81.82 0.51Q81.37-0.31 81.37-1.54L81.37-1.54Q81.37-3.98 82.95-5.35Q84.54-6.72 87.31-6.72L87.31-6.72Q88.90-6.72 90.09-6.36Q91.28-6.00 92.10-5.55L92.10-5.55L91.09-2.89Q90.39-3.28 89.53-3.56Q88.68-3.84 87.56-3.84L87.56-3.84Q84.82-3.84 84.82-1.85L84.82-1.85Q84.82-1.35 85.10-0.97Q85.38-0.59 85.81-0.30Q86.24-0.00 86.79 0.22Q87.34 0.44 87.87 0.64L87.87 0.64Q88.68 0.95 89.56 1.33Q90.44 1.70 91.19 2.33Q91.93 2.96 92.40 3.90Q92.88 4.84 92.88 6.27L92.88 6.27Q92.88 8.70 91.30 10.03Q89.72 11.36 86.50 11.36L86.50 11.36Q84.34 11.36 83.05 10.90Q81.76 10.44 81.12 10.05L81.12 10.05L82.13 7.25Q82.88 7.70 83.93 8.09Q84.98 8.48 86.50 8.48ZM94.87 4.53L94.87 4.53Q94.87 2.80 95.40 1.48Q95.93 0.16 96.80-0.72Q97.67-1.60 98.79-2.05Q99.91-2.50 101.08-2.50L101.08-2.50Q104.00-2.50 105.51-0.77Q107.02 0.95 107.02 4.25L107.02 4.25Q107.02 4.59 107.01 4.95Q106.99 5.32 106.96 5.54L106.96 5.54L98.42 5.54Q98.42 6.83 99.49 7.57Q100.55 8.31 102.23 8.31L102.23 8.31Q103.27 8.31 104.21 8.09Q105.14 7.86 105.79 7.64L105.79 7.64L106.26 10.58Q105.37 10.89 104.36 11.10Q103.35 11.31 102.09 11.31L102.09 11.31Q100.41 11.31 99.08 10.87Q97.75 10.44 96.81 9.59Q95.88 8.73 95.37 7.47Q94.87 6.21 94.87 4.53ZM98.42 3.16L103.69 3.16Q103.69 2.63 103.55 2.14Q103.41 1.65 103.10 1.26Q102.79 0.86 102.32 0.63Q101.84 0.39 101.14 0.39L101.14 0.39Q100.47 0.39 99.98 0.61Q99.49 0.84 99.17 1.23Q98.84 1.62 98.66 2.12Q98.48 2.63 98.42 3.16L98.42 3.16Z"/>
    </g>
</svg>