<?xml version="1.0" encoding="UTF-8"?>
<svg height="34" width="163" version="1.1" xmlns="http://www.w3.org/2000/svg">
    <rect
        height="32"
        width="161"
        rx="1"
        ry="1"
        x="1"
        y="1"
        fill="#0673ba"
        stroke="#011828"
        stroke-width="1"
         />
    <g transform="translate(0, 14)">
        <path fill="#011828" d="M15.99-6.53L15.99-6.53Q17.48-6.53 18.68-6.19Q19.88-5.86 20.75-5.16Q21.62-4.46 22.08-3.38Q22.54-2.30 22.54-0.84L22.54-0.84Q22.54 0.67 21.93 1.90Q21.31 3.13 19.88 3.78L19.88 3.78Q20.36 4.50 20.89 5.39Q21.42 6.27 21.93 7.23Q22.43 8.20 22.89 9.17Q23.36 10.13 23.69 11L23.69 11L20.08 11Q19.44 9.32 18.58 7.77Q17.73 6.21 16.75 4.62L16.75 4.62L14.96 4.62L14.96 11L11.51 11L11.51-6.08Q12.02-6.19 12.62-6.29Q13.22-6.39 13.84-6.43Q14.45-6.47 15.01-6.50Q15.57-6.53 15.99-6.53ZM19.04-0.87L19.04-0.87Q19.04-2.24 18.20-2.89Q17.36-3.53 15.99-3.53L15.99-3.53Q15.80-3.53 15.52-3.52Q15.24-3.50 14.96-3.45L14.96-3.45L14.96 1.76L15.71 1.76Q17.48 1.76 18.26 1.07Q19.04 0.39 19.04-0.87ZM24.87 4.53L24.87 4.53Q24.87 2.80 25.40 1.48Q25.93 0.16 26.80-0.72Q27.67-1.60 28.79-2.05Q29.91-2.50 31.08-2.50L31.08-2.50Q34.00-2.50 35.51-0.77Q37.02 0.95 37.02 4.25L37.02 4.25Q37.02 4.59 37.01 4.95Q36.99 5.32 36.96 5.54L36.96 5.54L28.42 5.54Q28.42 6.83 29.49 7.57Q30.55 8.31 32.23 8.31L32.23 8.31Q33.27 8.31 34.21 8.09Q35.14 7.86 35.79 7.64L35.79 7.64L36.26 10.58Q35.37 10.89 34.36 11.10Q33.35 11.31 32.09 11.31L32.09 11.31Q30.41 11.31 29.08 10.87Q27.75 10.44 26.81 9.59Q25.88 8.73 25.37 7.47Q24.87 6.21 24.87 4.53ZM28.42 3.16L33.69 3.16Q33.69 2.63 33.55 2.14Q33.41 1.65 33.10 1.26Q32.79 0.86 32.32 0.63Q31.84 0.39 31.14 0.39L31.14 0.39Q30.47 0.39 29.98 0.61Q29.49 0.84 29.17 1.23Q28.84 1.62 28.66 2.12Q28.48 2.63 28.42 3.16L28.42 3.16ZM39.23 4.42L39.23 4.42Q39.23 2.99 39.68 1.73Q40.13 0.47 41.05-0.47Q41.98-1.40 43.39-1.95Q44.80-2.50 46.76-2.50L46.76-2.50Q47.94-2.50 48.89-2.33Q49.84-2.16 50.82-1.77L50.82-1.77L50.07 1.00Q49.51 0.81 48.82 0.65Q48.14 0.50 47.07 0.50L47.07 0.50Q45.84 0.50 45.01 0.79Q44.19 1.09 43.68 1.61Q43.18 2.12 42.96 2.85Q42.73 3.58 42.73 4.42L42.73 4.42Q42.73 6.24 43.75 7.28Q44.78 8.31 47.24 8.31L47.24 8.31Q48.05 8.31 48.93 8.20Q49.82 8.09 50.54 7.84L50.54 7.84L51.05 10.66Q50.32 10.94 49.28 11.13Q48.25 11.31 46.85 11.31L46.85 11.31Q44.83 11.31 43.39 10.78Q41.95 10.24 41.02 9.32Q40.10 8.40 39.67 7.14Q39.23 5.88 39.23 4.42ZM65.22 4.39L65.22 4.39Q65.22 5.96 64.77 7.23Q64.32 8.51 63.51 9.43Q62.70 10.36 61.56 10.86Q60.43 11.36 59.03 11.36L59.03 11.36Q57.63 11.36 56.49 10.86Q55.36 10.36 54.53 9.43Q53.71 8.51 53.26 7.23Q52.81 5.96 52.81 4.39L52.81 4.39Q52.81 2.85 53.27 1.58Q53.74 0.30 54.56-0.61Q55.39-1.52 56.54-2.01Q57.68-2.50 59.03-2.50L59.03-2.50Q60.40-2.50 61.53-2.01Q62.67-1.52 63.49-0.61Q64.32 0.30 64.77 1.58Q65.22 2.85 65.22 4.39ZM56.31 4.42L56.31 4.42Q56.31 6.18 56.94 7.28Q57.57 8.37 58.97 8.37L58.97 8.37Q60.32 8.37 61.00 7.28Q61.69 6.18 61.69 4.42L61.69 4.42Q61.69 2.66 61.06 1.58Q60.43 0.50 59.03 0.50L59.03 0.50Q57.68 0.50 57.00 1.58Q56.31 2.66 56.31 4.42ZM78.85-1.85L78.24 1.34Q77.90 1.26 77.44 1.17Q76.98 1.09 76.50 1.02Q76.02 0.95 75.58 0.92Q75.13 0.89 74.82 0.89L74.82 0.89Q74.09 0.89 73.39 0.96Q72.69 1.03 71.96 1.23L71.96 1.23L71.96 11L68.49 11L68.49-1.29Q69.86-1.80 71.31-2.10Q72.75-2.41 74.68-2.41L74.68-2.41Q74.96-2.41 75.48-2.38Q76.00-2.36 76.58-2.29Q77.17-2.22 77.77-2.12Q78.38-2.02 78.85-1.85L78.85-1.85ZM84.28 4.34L84.28 4.34Q84.28 6.10 84.94 7.22Q85.60 8.34 87.06 8.34L87.06 8.34Q87.48 8.34 87.84 8.31Q88.20 8.28 88.60 8.23L88.60 8.23L88.60 1.06Q88.20 0.84 87.70 0.68Q87.20 0.53 86.64 0.53L86.64 0.53Q85.40 0.53 84.84 1.51Q84.28 2.49 84.28 4.34ZM92.04-8.43L92.04 10.61Q91.09 10.92 89.72 11.11Q88.34 11.31 87.03 11.31L87.03 11.31Q83.95 11.31 82.37 9.49Q80.78 7.67 80.78 4.50L80.78 4.50Q80.78 1.28 82.11-0.58Q83.44-2.44 86.05-2.44L86.05-2.44Q86.75-2.44 87.42-2.29Q88.09-2.13 88.60-1.85L88.60-1.85L88.60-7.84L92.04-8.43ZM120.26-6.33L120.26 5.20Q120.26 6.46 119.94 7.58Q119.62 8.70 118.88 9.54Q118.14 10.38 116.96 10.87Q115.78 11.36 114.10 11.36L114.10 11.36Q112.34 11.36 111.16 10.92Q109.99 10.47 109.18 9.82L109.18 9.82L110.49 7.08Q111.19 7.53 112.05 7.95Q112.90 8.37 113.80 8.37L113.80 8.37Q115.14 8.37 115.97 7.65Q116.79 6.94 116.79 5.01L116.79 5.01L116.79-3.48L111.00-3.48L111.00-6.33L120.26-6.33ZM129.03 8.54L129.03 8.54Q129.59 8.54 130.12 8.52Q130.65 8.51 131.04 8.45L131.04 8.45L131.04 5.43Q130.71 5.37 130.23 5.33Q129.76 5.29 129.36 5.29L129.36 5.29Q128.83 5.29 128.33 5.36Q127.82 5.43 127.45 5.60Q127.07 5.76 126.84 6.07Q126.62 6.38 126.62 6.88L126.62 6.88Q126.62 7.78 127.29 8.16Q127.96 8.54 129.03 8.54ZM128.72-2.50L128.72-2.50Q130.34-2.50 131.42-2.12Q132.50-1.74 133.14-1.05Q133.79-0.37 134.07 0.63Q134.35 1.62 134.35 2.85L134.35 2.85L134.35 10.69Q133.59 10.86 132.11 11.08Q130.62 11.31 128.78 11.31L128.78 11.31Q127.52 11.31 126.49 11.08Q125.47 10.86 124.74 10.34Q124.02 9.82 123.62 9.00Q123.23 8.17 123.23 6.97L123.23 6.97Q123.23 5.82 123.68 5.04Q124.13 4.25 124.88 3.78Q125.64 3.30 126.62 3.09Q127.60 2.88 128.66 2.88L128.66 2.88Q130.01 2.88 131.04 3.10L131.04 3.10L131.04 2.68Q131.04 1.70 130.43 1.05Q129.81 0.39 128.30 0.39L128.30 0.39Q127.32 0.39 126.41 0.53Q125.50 0.67 124.94 0.86L124.94 0.86L124.46-1.91Q125.11-2.13 126.28-2.31Q127.46-2.50 128.72-2.50ZM148.85-1.85L148.24 1.34Q147.90 1.26 147.44 1.17Q146.98 1.09 146.50 1.02Q146.02 0.95 145.58 0.92Q145.13 0.89 144.82 0.89L144.82 0.89Q144.09 0.89 143.39 0.96Q142.69 1.03 141.96 1.23L141.96 1.23L141.96 11L138.49 11L138.49-1.29Q139.86-1.80 141.31-2.10Q142.75-2.41 144.68-2.41L144.68-2.41Q144.96-2.41 145.48-2.38Q146.00-2.36 146.58-2.29Q147.17-2.22 147.77-2.12Q148.38-2.02 148.85-1.85L148.85-1.85Z"/>
    </g>
</svg>