<?xml version="1.0" encoding="UTF-8"?>
<svg height="34" width="177.1" version="1.1" xmlns="http://www.w3.org/2000/svg">
    <rect
        height="32"
        width="175.1"
        rx="1"
        ry="1"
        x="1"
        y="1"
        fill="#dc566d"
        stroke="#7f1a2b"
        stroke-width="1"
         />
    <g transform="translate(0, 14)">
        <path fill="#7f1a2b" d="M16.50 8.48L16.50 8.48Q17.36 8.48 17.94 8.30Q18.51 8.12 18.85 7.79Q19.18 7.47 19.31 7.07Q19.44 6.66 19.44 6.24L19.44 6.24Q19.44 5.71 19.13 5.29Q18.82 4.87 18.34 4.55Q17.87 4.22 17.28 3.96Q16.69 3.69 16.10 3.47L16.10 3.47Q15.32 3.19 14.48 2.82Q13.64 2.46 12.95 1.90Q12.27 1.34 11.82 0.51Q11.37-0.31 11.37-1.54L11.37-1.54Q11.37-3.98 12.95-5.35Q14.54-6.72 17.31-6.72L17.31-6.72Q18.90-6.72 20.09-6.36Q21.28-6.00 22.10-5.55L22.10-5.55L21.09-2.89Q20.39-3.28 19.53-3.56Q18.68-3.84 17.56-3.84L17.56-3.84Q14.82-3.84 14.82-1.85L14.82-1.85Q14.82-1.35 15.10-0.97Q15.38-0.59 15.81-0.30Q16.24-0.00 16.79 0.22Q17.34 0.44 17.87 0.64L17.87 0.64Q18.68 0.95 19.56 1.33Q20.44 1.70 21.19 2.33Q21.93 2.96 22.40 3.90Q22.88 4.84 22.88 6.27L22.88 6.27Q22.88 8.70 21.30 10.03Q19.72 11.36 16.50 11.36L16.50 11.36Q14.34 11.36 13.05 10.90Q11.76 10.44 11.12 10.05L11.12 10.05L12.13 7.25Q12.88 7.70 13.93 8.09Q14.98 8.48 16.50 8.48ZM28.00 6.10L28.00 0.70L25.01 0.70L25.01-2.16L28.00-2.16L28.00-5.46L31.45-6.02L31.45-2.16L36.96-2.16L36.96 0.70L31.45 0.70L31.45 6.02Q31.45 6.74 31.59 7.19Q31.73 7.64 31.98 7.89Q32.23 8.14 32.60 8.23Q32.96 8.31 33.41 8.31L33.41 8.31Q33.88 8.31 34.29 8.28Q34.70 8.26 35.07 8.19Q35.45 8.12 35.86 7.98Q36.26 7.84 36.74 7.61L36.74 7.61L37.22 10.58Q36.26 10.97 35.16 11.14Q34.05 11.31 33.02 11.31L33.02 11.31Q31.81 11.31 30.89 11.11Q29.96 10.92 29.32 10.36Q28.68 9.80 28.34 8.77Q28.00 7.75 28.00 6.10L28.00 6.10ZM45.03 8.54L45.03 8.54Q45.59 8.54 46.12 8.52Q46.65 8.51 47.04 8.45L47.04 8.45L47.04 5.43Q46.71 5.37 46.23 5.33Q45.76 5.29 45.36 5.29L45.36 5.29Q44.83 5.29 44.33 5.36Q43.82 5.43 43.45 5.60Q43.07 5.76 42.84 6.07Q42.62 6.38 42.62 6.88L42.62 6.88Q42.62 7.78 43.29 8.16Q43.96 8.54 45.03 8.54ZM44.72-2.50L44.72-2.50Q46.34-2.50 47.42-2.12Q48.50-1.74 49.14-1.05Q49.79-0.37 50.07 0.63Q50.35 1.62 50.35 2.85L50.35 2.85L50.35 10.69Q49.59 10.86 48.11 11.08Q46.62 11.31 44.78 11.31L44.78 11.31Q43.52 11.31 42.49 11.08Q41.47 10.86 40.74 10.34Q40.02 9.82 39.62 9.00Q39.23 8.17 39.23 6.97L39.23 6.97Q39.23 5.82 39.68 5.04Q40.13 4.25 40.88 3.78Q41.64 3.30 42.62 3.09Q43.60 2.88 44.66 2.88L44.66 2.88Q46.01 2.88 47.04 3.10L47.04 3.10L47.04 2.68Q47.04 1.70 46.43 1.05Q45.81 0.39 44.30 0.39L44.30 0.39Q43.32 0.39 42.41 0.53Q41.50 0.67 40.94 0.86L40.94 0.86L40.46-1.91Q41.11-2.13 42.28-2.31Q43.46-2.50 44.72-2.50ZM53.76 11L53.76-1.74Q54.69-1.99 56.05-2.22Q57.40-2.44 59-2.44L59-2.44Q60.57-2.44 61.60-2.01Q62.64-1.57 63.24-0.77Q63.84 0.02 64.10 1.13Q64.35 2.24 64.35 3.58L64.35 3.58L64.35 11L60.90 11L60.90 4.03Q60.90 2.18 60.48 1.37Q60.06 0.56 58.78 0.56L58.78 0.56Q58.38 0.56 58.01 0.58Q57.63 0.61 57.21 0.67L57.21 0.67L57.21 11L53.76 11ZM70.28 4.34L70.28 4.34Q70.28 6.10 70.94 7.22Q71.60 8.34 73.06 8.34L73.06 8.34Q73.48 8.34 73.84 8.31Q74.20 8.28 74.60 8.23L74.60 8.23L74.60 1.06Q74.20 0.84 73.70 0.68Q73.20 0.53 72.64 0.53L72.64 0.53Q71.40 0.53 70.84 1.51Q70.28 2.49 70.28 4.34ZM78.04-8.43L78.04 10.61Q77.09 10.92 75.72 11.11Q74.34 11.31 73.03 11.31L73.03 11.31Q69.95 11.31 68.37 9.49Q66.78 7.67 66.78 4.50L66.78 4.50Q66.78 1.28 68.11-0.58Q69.44-2.44 72.05-2.44L72.05-2.44Q72.75-2.44 73.42-2.29Q74.09-2.13 74.60-1.85L74.60-1.85L74.60-7.84L78.04-8.43ZM87.03 8.54L87.03 8.54Q87.59 8.54 88.12 8.52Q88.65 8.51 89.04 8.45L89.04 8.45L89.04 5.43Q88.71 5.37 88.23 5.33Q87.76 5.29 87.36 5.29L87.36 5.29Q86.83 5.29 86.33 5.36Q85.82 5.43 85.45 5.60Q85.07 5.76 84.84 6.07Q84.62 6.38 84.62 6.88L84.62 6.88Q84.62 7.78 85.29 8.16Q85.96 8.54 87.03 8.54ZM86.72-2.50L86.72-2.50Q88.34-2.50 89.42-2.12Q90.50-1.74 91.14-1.05Q91.79-0.37 92.07 0.63Q92.35 1.62 92.35 2.85L92.35 2.85L92.35 10.69Q91.59 10.86 90.11 11.08Q88.62 11.31 86.78 11.31L86.78 11.31Q85.52 11.31 84.49 11.08Q83.47 10.86 82.74 10.34Q82.02 9.82 81.62 9.00Q81.23 8.17 81.23 6.97L81.23 6.97Q81.23 5.82 81.68 5.04Q82.13 4.25 82.88 3.78Q83.64 3.30 84.62 3.09Q85.60 2.88 86.66 2.88L86.66 2.88Q88.01 2.88 89.04 3.10L89.04 3.10L89.04 2.68Q89.04 1.70 88.43 1.05Q87.81 0.39 86.30 0.39L86.30 0.39Q85.32 0.39 84.41 0.53Q83.50 0.67 82.94 0.86L82.94 0.86L82.46-1.91Q83.11-2.13 84.28-2.31Q85.46-2.50 86.72-2.50ZM106.85-1.85L106.24 1.34Q105.90 1.26 105.44 1.17Q104.98 1.09 104.50 1.02Q104.02 0.95 103.58 0.92Q103.13 0.89 102.82 0.89L102.82 0.89Q102.09 0.89 101.39 0.96Q100.69 1.03 99.96 1.23L99.96 1.23L99.96 11L96.49 11L96.49-1.29Q97.86-1.80 99.31-2.10Q100.75-2.41 102.68-2.41L102.68-2.41Q102.96-2.41 103.48-2.38Q104.00-2.36 104.58-2.29Q105.17-2.22 105.77-2.12Q106.38-2.02 106.85-1.85L106.85-1.85ZM112.28 4.34L112.28 4.34Q112.28 6.10 112.94 7.22Q113.60 8.34 115.06 8.34L115.06 8.34Q115.48 8.34 115.84 8.31Q116.20 8.28 116.60 8.23L116.60 8.23L116.60 1.06Q116.20 0.84 115.70 0.68Q115.20 0.53 114.64 0.53L114.64 0.53Q113.40 0.53 112.84 1.51Q112.28 2.49 112.28 4.34ZM120.04-8.43L120.04 10.61Q119.09 10.92 117.72 11.11Q116.34 11.31 115.03 11.31L115.03 11.31Q111.95 11.31 110.37 9.49Q108.78 7.67 108.78 4.50L108.78 4.50Q108.78 1.28 110.11-0.58Q111.44-2.44 114.05-2.44L114.05-2.44Q114.75-2.44 115.42-2.29Q116.09-2.13 116.60-1.85L116.60-1.85L116.60-7.84L120.04-8.43ZM137.65-6.33L140.51-6.33Q140.70-5.74 141.00-4.82Q141.29-3.90 141.63-2.83Q141.96-1.77 142.30-0.68Q142.64 0.42 142.94 1.34L142.94 1.34Q143.28 0.30 143.64-0.80Q144.01-1.91 144.34-2.93Q144.68-3.95 144.96-4.85Q145.24-5.74 145.46-6.33L145.46-6.33L148.32-6.33Q148.52-4.06 148.70-1.91Q148.88 0.25 149.01 2.36Q149.13 4.48 149.22 6.62Q149.30 8.76 149.36 11L149.36 11L146.19 11L146.36-2.47L144.23 4.87L141.71 4.87L139.67-2.47L139.81 11L136.64 11Q136.73 8.87 136.83 6.58Q136.92 4.28 137.04 2.01Q137.15-0.26 137.30-2.38Q137.46-4.51 137.65-6.33L137.65-6.33ZM162.88 8.14L162.88 11L151.99 11L151.99-6.33L155.46-6.33L155.46 8.14L162.88 8.14Z"/>
    </g>
</svg>