<?xml version="1.0" encoding="UTF-8"?>
<svg height="34" width="416.8" version="1.1" xmlns="http://www.w3.org/2000/svg">
    <rect
        height="32"
        width="414.8"
        rx="14"
        ry="14"
        x="1"
        y="1"
        fill="#f7e43f"
        stroke="#988906"
        stroke-width="1"
         />
    <g transform="translate(0, 14)">
        <path fill="#988906" d="M15.77-0.20L18.29-0.20Q18.40 0.33 18.62 1.12Q18.85 1.90 19.11 2.85Q19.38 3.80 19.70 4.90Q20.02 5.99 20.33 7.14L20.33 7.14Q20.33 5.68 20.30 4.01Q20.28 2.35 20.25 0.61Q20.22-1.12 20.19-2.90Q20.16-4.68 20.16-6.33L20.16-6.33L23.36-6.33Q23.27-4.20 23.19-1.95Q23.10 0.30 22.99 2.53Q22.88 4.76 22.73 6.91Q22.57 9.07 22.38 11L22.38 11L19.52 11Q18.90 9.24 18.29 7.21Q17.67 5.18 17.06 3.33L17.06 3.33Q16.44 5.09 15.77 7.16Q15.10 9.24 14.54 11L14.54 11L11.68 11Q11.46 9.07 11.29 6.90Q11.12 4.73 10.99 2.50Q10.87 0.28 10.78-1.98Q10.70-4.23 10.64-6.33L10.64-6.33L13.84-6.33Q13.81-4.68 13.78-2.92Q13.75-1.15 13.72 0.60Q13.70 2.35 13.67 4.01Q13.64 5.68 13.64 7.14L13.64 7.14Q13.89 6.24 14.21 5.18Q14.54 4.11 14.83 3.08Q15.12 2.04 15.38 1.17Q15.63 0.30 15.77-0.20L15.77-0.20ZM37.22 4.39L37.22 4.39Q37.22 5.96 36.77 7.23Q36.32 8.51 35.51 9.43Q34.70 10.36 33.56 10.86Q32.43 11.36 31.03 11.36L31.03 11.36Q29.63 11.36 28.49 10.86Q27.36 10.36 26.53 9.43Q25.71 8.51 25.26 7.23Q24.81 5.96 24.81 4.39L24.81 4.39Q24.81 2.85 25.27 1.58Q25.74 0.30 26.56-0.61Q27.39-1.52 28.54-2.01Q29.68-2.50 31.03-2.50L31.03-2.50Q32.40-2.50 33.53-2.01Q34.67-1.52 35.49-0.61Q36.32 0.30 36.77 1.58Q37.22 2.85 37.22 4.39ZM28.31 4.42L28.31 4.42Q28.31 6.18 28.94 7.28Q29.57 8.37 30.97 8.37L30.97 8.37Q32.32 8.37 33.00 7.28Q33.69 6.18 33.69 4.42L33.69 4.42Q33.69 2.66 33.06 1.58Q32.43 0.50 31.03 0.50L31.03 0.50Q29.68 0.50 29.00 1.58Q28.31 2.66 28.31 4.42ZM50.85-1.85L50.24 1.34Q49.90 1.26 49.44 1.17Q48.98 1.09 48.50 1.02Q48.02 0.95 47.58 0.92Q47.13 0.89 46.82 0.89L46.82 0.89Q46.09 0.89 45.39 0.96Q44.69 1.03 43.96 1.23L43.96 1.23L43.96 11L40.49 11L40.49-1.29Q41.86-1.80 43.31-2.10Q44.75-2.41 46.68-2.41L46.68-2.41Q46.96-2.41 47.48-2.38Q48.00-2.36 48.58-2.29Q49.17-2.22 49.77-2.12Q50.38-2.02 50.85-1.85L50.85-1.85ZM64.63 7.67L65.08 10.44Q64.99 10.50 64.70 10.64Q64.40 10.78 63.93 10.93Q63.45 11.08 62.77 11.20Q62.08 11.31 61.21 11.31L61.21 11.31Q58.83 11.31 57.74 9.89Q56.65 8.48 56.65 5.76L56.65 5.76L56.65-5.41L53.01-5.41L53.01-8.26L60.09-8.26L60.09 6.02Q60.09 7.36 60.62 7.84Q61.16 8.31 61.97 8.31L61.97 8.31Q63.00 8.31 63.70 8.03Q64.40 7.75 64.63 7.67L64.63 7.67ZM70.28 4.34L70.28 4.34Q70.28 6.10 70.94 7.22Q71.60 8.34 73.06 8.34L73.06 8.34Q73.48 8.34 73.84 8.31Q74.20 8.28 74.60 8.23L74.60 8.23L74.60 1.06Q74.20 0.84 73.70 0.68Q73.20 0.53 72.64 0.53L72.64 0.53Q71.40 0.53 70.84 1.51Q70.28 2.49 70.28 4.34ZM78.04-8.43L78.04 10.61Q77.09 10.92 75.72 11.11Q74.34 11.31 73.03 11.31L73.03 11.31Q69.95 11.31 68.37 9.49Q66.78 7.67 66.78 4.50L66.78 4.50Q66.78 1.28 68.11-0.58Q69.44-2.44 72.05-2.44L72.05-2.44Q72.75-2.44 73.42-2.29Q74.09-2.13 74.60-1.85L74.60-1.85L74.60-7.84L78.04-8.43ZM107.22 4.39L107.22 4.39Q107.22 5.96 106.77 7.23Q106.32 8.51 105.51 9.43Q104.70 10.36 103.56 10.86Q102.43 11.36 101.03 11.36L101.03 11.36Q99.63 11.36 98.49 10.86Q97.36 10.36 96.53 9.43Q95.71 8.51 95.26 7.23Q94.81 5.96 94.81 4.39L94.81 4.39Q94.81 2.85 95.27 1.58Q95.74 0.30 96.56-0.61Q97.39-1.52 98.54-2.01Q99.68-2.50 101.03-2.50L101.03-2.50Q102.40-2.50 103.53-2.01Q104.67-1.52 105.49-0.61Q106.32 0.30 106.77 1.58Q107.22 2.85 107.22 4.39ZM98.31 4.42L98.31 4.42Q98.31 6.18 98.94 7.28Q99.57 8.37 100.97 8.37L100.97 8.37Q102.32 8.37 103.00 7.28Q103.69 6.18 103.69 4.42L103.69 4.42Q103.69 2.66 103.06 1.58Q102.43 0.50 101.03 0.50L101.03 0.50Q99.68 0.50 99.00 1.58Q98.31 2.66 98.31 4.42ZM115.36 11L111.89 11L111.89 0.70L109.01 0.70L109.01-2.16L111.89-2.16L111.89-2.92Q111.89-4.51 112.35-5.56Q112.82-6.61 113.60-7.24Q114.38-7.87 115.39-8.14Q116.40-8.40 117.46-8.40L117.46-8.40Q118.56-8.40 119.70-8.21Q120.85-8.01 121.78-7.56L121.78-7.56L121.19-4.76Q120.54-4.99 119.58-5.23Q118.61-5.46 117.74-5.46L117.74-5.46Q117.27-5.46 116.83-5.38Q116.40-5.30 116.08-5.02Q115.76-4.74 115.56-4.22Q115.36-3.70 115.36-2.86L115.36-2.86L115.36-2.16L120.77-2.16L120.77 0.70L115.36 0.70L115.36 11ZM141.77-0.20L144.29-0.20Q144.40 0.33 144.62 1.12Q144.85 1.90 145.11 2.85Q145.38 3.80 145.70 4.90Q146.02 5.99 146.33 7.14L146.33 7.14Q146.33 5.68 146.30 4.01Q146.28 2.35 146.25 0.61Q146.22-1.12 146.19-2.90Q146.16-4.68 146.16-6.33L146.16-6.33L149.36-6.33Q149.27-4.20 149.19-1.95Q149.10 0.30 148.99 2.53Q148.88 4.76 148.73 6.91Q148.57 9.07 148.38 11L148.38 11L145.52 11Q144.90 9.24 144.29 7.21Q143.67 5.18 143.06 3.33L143.06 3.33Q142.44 5.09 141.77 7.16Q141.10 9.24 140.54 11L140.54 11L137.68 11Q137.46 9.07 137.29 6.90Q137.12 4.73 136.99 2.50Q136.87 0.28 136.78-1.98Q136.70-4.23 136.64-6.33L136.64-6.33L139.84-6.33Q139.81-4.68 139.78-2.92Q139.75-1.15 139.72 0.60Q139.70 2.35 139.67 4.01Q139.64 5.68 139.64 7.14L139.64 7.14Q139.89 6.24 140.21 5.18Q140.54 4.11 140.83 3.08Q141.12 2.04 141.38 1.17Q141.63 0.30 141.77-0.20L141.77-0.20ZM157.03 8.54L157.03 8.54Q157.59 8.54 158.12 8.52Q158.65 8.51 159.04 8.45L159.04 8.45L159.04 5.43Q158.71 5.37 158.23 5.33Q157.76 5.29 157.36 5.29L157.36 5.29Q156.83 5.29 156.33 5.36Q155.82 5.43 155.45 5.60Q155.07 5.76 154.84 6.07Q154.62 6.38 154.62 6.88L154.62 6.88Q154.62 7.78 155.29 8.16Q155.96 8.54 157.03 8.54ZM156.72-2.50L156.72-2.50Q158.34-2.50 159.42-2.12Q160.50-1.74 161.14-1.05Q161.79-0.37 162.07 0.63Q162.35 1.62 162.35 2.85L162.35 2.85L162.35 10.69Q161.59 10.86 160.11 11.08Q158.62 11.31 156.78 11.31L156.78 11.31Q155.52 11.31 154.49 11.08Q153.47 10.86 152.74 10.34Q152.02 9.82 151.62 9.00Q151.23 8.17 151.23 6.97L151.23 6.97Q151.23 5.82 151.68 5.04Q152.13 4.25 152.88 3.78Q153.64 3.30 154.62 3.09Q155.60 2.88 156.66 2.88L156.66 2.88Q158.01 2.88 159.04 3.10L159.04 3.10L159.04 2.68Q159.04 1.70 158.43 1.05Q157.81 0.39 156.30 0.39L156.30 0.39Q155.32 0.39 154.41 0.53Q153.50 0.67 152.94 0.86L152.94 0.86L152.46-1.91Q153.11-2.13 154.28-2.31Q155.46-2.50 156.72-2.50ZM176.85-1.85L176.24 1.34Q175.90 1.26 175.44 1.17Q174.98 1.09 174.50 1.02Q174.02 0.95 173.58 0.92Q173.13 0.89 172.82 0.89L172.82 0.89Q172.09 0.89 171.39 0.96Q170.69 1.03 169.96 1.23L169.96 1.23L169.96 11L166.49 11L166.49-1.29Q167.86-1.80 169.31-2.10Q170.75-2.41 172.68-2.41L172.68-2.41Q172.96-2.41 173.48-2.38Q174.00-2.36 174.58-2.29Q175.17-2.22 175.77-2.12Q176.38-2.02 176.85-1.85L176.85-1.85ZM179.23 4.42L179.23 4.42Q179.23 2.99 179.68 1.73Q180.13 0.47 181.05-0.47Q181.98-1.40 183.39-1.95Q184.80-2.50 186.76-2.50L186.76-2.50Q187.94-2.50 188.89-2.33Q189.84-2.16 190.82-1.77L190.82-1.77L190.07 1.00Q189.51 0.81 188.82 0.65Q188.14 0.50 187.07 0.50L187.07 0.50Q185.84 0.50 185.01 0.79Q184.19 1.09 183.68 1.61Q183.18 2.12 182.96 2.85Q182.73 3.58 182.73 4.42L182.73 4.42Q182.73 6.24 183.75 7.28Q184.78 8.31 187.24 8.31L187.24 8.31Q188.05 8.31 188.93 8.20Q189.82 8.09 190.54 7.84L190.54 7.84L191.05 10.66Q190.32 10.94 189.28 11.13Q188.25 11.31 186.85 11.31L186.85 11.31Q184.83 11.31 183.39 10.78Q181.95 10.24 181.02 9.32Q180.10 8.40 179.67 7.14Q179.23 5.88 179.23 4.42ZM204.85-1.85L204.24 1.34Q203.90 1.26 203.44 1.17Q202.98 1.09 202.50 1.02Q202.02 0.95 201.58 0.92Q201.13 0.89 200.82 0.89L200.82 0.89Q200.09 0.89 199.39 0.96Q198.69 1.03 197.96 1.23L197.96 1.23L197.96 11L194.49 11L194.49-1.29Q195.86-1.80 197.31-2.10Q198.75-2.41 200.68-2.41L200.68-2.41Q200.96-2.41 201.48-2.38Q202.00-2.36 202.58-2.29Q203.17-2.22 203.77-2.12Q204.38-2.02 204.85-1.85L204.85-1.85ZM213.03 8.54L213.03 8.54Q213.59 8.54 214.12 8.52Q214.65 8.51 215.04 8.45L215.04 8.45L215.04 5.43Q214.71 5.37 214.23 5.33Q213.76 5.29 213.36 5.29L213.36 5.29Q212.83 5.29 212.33 5.36Q211.82 5.43 211.45 5.60Q211.07 5.76 210.84 6.07Q210.62 6.38 210.62 6.88L210.62 6.88Q210.62 7.78 211.29 8.16Q211.96 8.54 213.03 8.54ZM212.72-2.50L212.72-2.50Q214.34-2.50 215.42-2.12Q216.50-1.74 217.14-1.05Q217.79-0.37 218.07 0.63Q218.35 1.62 218.35 2.85L218.35 2.85L218.35 10.69Q217.59 10.86 216.11 11.08Q214.62 11.31 212.78 11.31L212.78 11.31Q211.52 11.31 210.49 11.08Q209.47 10.86 208.74 10.34Q208.02 9.82 207.62 9.00Q207.23 8.17 207.23 6.97L207.23 6.97Q207.23 5.82 207.68 5.04Q208.13 4.25 208.88 3.78Q209.64 3.30 210.62 3.09Q211.60 2.88 212.66 2.88L212.66 2.88Q214.01 2.88 215.04 3.10L215.04 3.10L215.04 2.68Q215.04 1.70 214.43 1.05Q213.81 0.39 212.30 0.39L212.30 0.39Q211.32 0.39 210.41 0.53Q209.50 0.67 208.94 0.86L208.94 0.86L208.46-1.91Q209.11-2.13 210.28-2.31Q211.46-2.50 212.72-2.50ZM227.36 11L223.89 11L223.89 0.70L221.01 0.70L221.01-2.16L223.89-2.16L223.89-2.92Q223.89-4.51 224.35-5.56Q224.82-6.61 225.60-7.24Q226.38-7.87 227.39-8.14Q228.40-8.40 229.46-8.40L229.46-8.40Q230.56-8.40 231.70-8.21Q232.85-8.01 233.78-7.56L233.78-7.56L233.19-4.76Q232.54-4.99 231.58-5.23Q230.61-5.46 229.74-5.46L229.74-5.46Q229.27-5.46 228.83-5.38Q228.40-5.30 228.08-5.02Q227.76-4.74 227.56-4.22Q227.36-3.70 227.36-2.86L227.36-2.86L227.36-2.16L232.77-2.16L232.77 0.70L227.36 0.70L227.36 11ZM238.00 6.10L238.00 0.70L235.01 0.70L235.01-2.16L238.00-2.16L238.00-5.46L241.45-6.02L241.45-2.16L246.96-2.16L246.96 0.70L241.45 0.70L241.45 6.02Q241.45 6.74 241.59 7.19Q241.73 7.64 241.98 7.89Q242.23 8.14 242.60 8.23Q242.96 8.31 243.41 8.31L243.41 8.31Q243.88 8.31 244.29 8.28Q244.70 8.26 245.07 8.19Q245.45 8.12 245.86 7.98Q246.26 7.84 246.74 7.61L246.74 7.61L247.22 10.58Q246.26 10.97 245.16 11.14Q244.05 11.31 243.02 11.31L243.02 11.31Q241.81 11.31 240.89 11.11Q239.96 10.92 239.32 10.36Q238.68 9.80 238.34 8.77Q238.00 7.75 238.00 6.10L238.00 6.10ZM275.75 11L272.05 11L271.24 7.00L266.62 7.00L265.84 11L262.25 11Q263.48 5.88 264.74 1.66Q266.00-2.55 267.18-6.33L267.18-6.33L270.93-6.33Q272.16-2.52 273.38 1.75Q274.60 6.02 275.75 11L275.75 11ZM268.97-2.97L268.97-2.97Q268.69-1.99 268.45-1.11Q268.22-0.23 268.01 0.63Q267.80 1.48 267.61 2.35Q267.43 3.22 267.26 4.14L267.26 4.14L270.65 4.14Q270.48 3.22 270.32 2.35Q270.15 1.48 269.94 0.63Q269.73-0.23 269.49-1.11Q269.25-1.99 268.97-2.97ZM280.28 4.34L280.28 4.34Q280.28 6.10 280.94 7.22Q281.60 8.34 283.06 8.34L283.06 8.34Q283.48 8.34 283.84 8.31Q284.20 8.28 284.60 8.23L284.60 8.23L284.60 1.06Q284.20 0.84 283.70 0.68Q283.20 0.53 282.64 0.53L282.64 0.53Q281.40 0.53 280.84 1.51Q280.28 2.49 280.28 4.34ZM288.04-8.43L288.04 10.61Q287.09 10.92 285.72 11.11Q284.34 11.31 283.03 11.31L283.03 11.31Q279.95 11.31 278.37 9.49Q276.78 7.67 276.78 4.50L276.78 4.50Q276.78 1.28 278.11-0.58Q279.44-2.44 282.05-2.44L282.05-2.44Q282.75-2.44 283.42-2.29Q284.09-2.13 284.60-1.85L284.60-1.85L284.60-7.84L288.04-8.43ZM294.28 4.34L294.28 4.34Q294.28 6.10 294.94 7.22Q295.60 8.34 297.06 8.34L297.06 8.34Q297.48 8.34 297.84 8.31Q298.20 8.28 298.60 8.23L298.60 8.23L298.60 1.06Q298.20 0.84 297.70 0.68Q297.20 0.53 296.64 0.53L296.64 0.53Q295.40 0.53 294.84 1.51Q294.28 2.49 294.28 4.34ZM302.04-8.43L302.04 10.61Q301.09 10.92 299.72 11.11Q298.34 11.31 297.03 11.31L297.03 11.31Q293.95 11.31 292.37 9.49Q290.78 7.67 290.78 4.50L290.78 4.50Q290.78 1.28 292.11-0.58Q293.44-2.44 296.05-2.44L296.05-2.44Q296.75-2.44 297.42-2.29Q298.09-2.13 298.60-1.85L298.60-1.85L298.60-7.84L302.04-8.43ZM317.22 4.39L317.22 4.39Q317.22 5.96 316.77 7.23Q316.32 8.51 315.51 9.43Q314.70 10.36 313.56 10.86Q312.43 11.36 311.03 11.36L311.03 11.36Q309.63 11.36 308.49 10.86Q307.36 10.36 306.53 9.43Q305.71 8.51 305.26 7.23Q304.81 5.96 304.81 4.39L304.81 4.39Q304.81 2.85 305.27 1.58Q305.74 0.30 306.56-0.61Q307.39-1.52 308.54-2.01Q309.68-2.50 311.03-2.50L311.03-2.50Q312.40-2.50 313.53-2.01Q314.67-1.52 315.49-0.61Q316.32 0.30 316.77 1.58Q317.22 2.85 317.22 4.39ZM308.31 4.42L308.31 4.42Q308.31 6.18 308.94 7.28Q309.57 8.37 310.97 8.37L310.97 8.37Q312.32 8.37 313.00 7.28Q313.69 6.18 313.69 4.42L313.69 4.42Q313.69 2.66 313.06 1.58Q312.43 0.50 311.03 0.50L311.03 0.50Q309.68 0.50 309.00 1.58Q308.31 2.66 308.31 4.42ZM319.76 11L319.76-1.74Q320.69-1.99 322.05-2.22Q323.40-2.44 325-2.44L325-2.44Q326.57-2.44 327.60-2.01Q328.64-1.57 329.24-0.77Q329.84 0.02 330.10 1.13Q330.35 2.24 330.35 3.58L330.35 3.58L330.35 11L326.90 11L326.90 4.03Q326.90 2.18 326.48 1.37Q326.06 0.56 324.78 0.56L324.78 0.56Q324.38 0.56 324.01 0.58Q323.63 0.61 323.21 0.67L323.21 0.67L323.21 11L319.76 11ZM350.96-3.45L350.96 8.20Q351.10 8.23 351.26 8.23Q351.43 8.23 351.57 8.23L351.57 8.23Q352.75 8.23 353.55 7.78Q354.34 7.33 354.83 6.55Q355.32 5.76 355.53 4.69Q355.74 3.61 355.74 2.32L355.74 2.32Q355.74 1.20 355.58 0.14Q355.41-0.93 354.99-1.74Q354.57-2.55 353.84-3.04Q353.11-3.53 351.96-3.53L351.96-3.53Q351.74-3.53 351.46-3.52Q351.18-3.50 350.96-3.45L350.96-3.45ZM359.24 2.32L359.24 2.32Q359.24 4.73 358.64 6.42Q358.04 8.12 356.98 9.18Q355.91 10.24 354.44 10.73Q352.97 11.22 351.21 11.22L351.21 11.22Q350.28 11.22 349.40 11.13Q348.52 11.03 347.51 10.80L347.51 10.80L347.51-6.11Q348.69-6.36 349.72-6.44Q350.76-6.53 351.66-6.53L351.66-6.53Q353.36-6.53 354.78-6.02Q356.19-5.52 357.17-4.44Q358.15-3.36 358.70-1.70Q359.24-0.03 359.24 2.32ZM367.03 8.54L367.03 8.54Q367.59 8.54 368.12 8.52Q368.65 8.51 369.04 8.45L369.04 8.45L369.04 5.43Q368.71 5.37 368.23 5.33Q367.76 5.29 367.36 5.29L367.36 5.29Q366.83 5.29 366.33 5.36Q365.82 5.43 365.45 5.60Q365.07 5.76 364.84 6.07Q364.62 6.38 364.62 6.88L364.62 6.88Q364.62 7.78 365.29 8.16Q365.96 8.54 367.03 8.54ZM366.72-2.50L366.72-2.50Q368.34-2.50 369.42-2.12Q370.50-1.74 371.14-1.05Q371.79-0.37 372.07 0.63Q372.35 1.62 372.35 2.85L372.35 2.85L372.35 10.69Q371.59 10.86 370.11 11.08Q368.62 11.31 366.78 11.31L366.78 11.31Q365.52 11.31 364.49 11.08Q363.47 10.86 362.74 10.34Q362.02 9.82 361.62 9.00Q361.23 8.17 361.23 6.97L361.23 6.97Q361.23 5.82 361.68 5.04Q362.13 4.25 362.88 3.78Q363.64 3.30 364.62 3.09Q365.60 2.88 366.66 2.88L366.66 2.88Q368.01 2.88 369.04 3.10L369.04 3.10L369.04 2.68Q369.04 1.70 368.43 1.05Q367.81 0.39 366.30 0.39L366.30 0.39Q365.32 0.39 364.41 0.53Q363.50 0.67 362.94 0.86L362.94 0.86L362.46-1.91Q363.11-2.13 364.28-2.31Q365.46-2.50 366.72-2.50ZM378.00 6.10L378.00 0.70L375.01 0.70L375.01-2.16L378.00-2.16L378.00-5.46L381.45-6.02L381.45-2.16L386.96-2.16L386.96 0.70L381.45 0.70L381.45 6.02Q381.45 6.74 381.59 7.19Q381.73 7.64 381.98 7.89Q382.23 8.14 382.60 8.23Q382.96 8.31 383.41 8.31L383.41 8.31Q383.88 8.31 384.29 8.28Q384.70 8.26 385.07 8.19Q385.45 8.12 385.86 7.98Q386.26 7.84 386.74 7.61L386.74 7.61L387.22 10.58Q386.26 10.97 385.16 11.14Q384.05 11.31 383.02 11.31L383.02 11.31Q381.81 11.31 380.89 11.11Q379.96 10.92 379.32 10.36Q378.68 9.80 378.34 8.77Q378.00 7.75 378.00 6.10L378.00 6.10ZM395.03 8.54L395.03 8.54Q395.59 8.54 396.12 8.52Q396.65 8.51 397.04 8.45L397.04 8.45L397.04 5.43Q396.71 5.37 396.23 5.33Q395.76 5.29 395.36 5.29L395.36 5.29Q394.83 5.29 394.33 5.36Q393.82 5.43 393.45 5.60Q393.07 5.76 392.84 6.07Q392.62 6.38 392.62 6.88L392.62 6.88Q392.62 7.78 393.29 8.16Q393.96 8.54 395.03 8.54ZM394.72-2.50L394.72-2.50Q396.34-2.50 397.42-2.12Q398.50-1.74 399.14-1.05Q399.79-0.37 400.07 0.63Q400.35 1.62 400.35 2.85L400.35 2.85L400.35 10.69Q399.59 10.86 398.11 11.08Q396.62 11.31 394.78 11.31L394.78 11.31Q393.52 11.31 392.49 11.08Q391.47 10.86 390.74 10.34Q390.02 9.82 389.62 9.00Q389.23 8.17 389.23 6.97L389.23 6.97Q389.23 5.82 389.68 5.04Q390.13 4.25 390.88 3.78Q391.64 3.30 392.62 3.09Q393.60 2.88 394.66 2.88L394.66 2.88Q396.01 2.88 397.04 3.10L397.04 3.10L397.04 2.68Q397.04 1.70 396.43 1.05Q395.81 0.39 394.30 0.39L394.30 0.39Q393.32 0.39 392.41 0.53Q391.50 0.67 390.94 0.86L390.94 0.86L390.46-1.91Q391.11-2.13 392.28-2.31Q393.46-2.50 394.72-2.50Z"/>
    </g>
</svg>