<?xml version="1.0" encoding="UTF-8"?>
<svg height="34" width="106.6" version="1.1" xmlns="http://www.w3.org/2000/svg">
    <rect
        height="32"
        width="104.6"
        rx="1"
        ry="1"
        x="1"
        y="1"
        fill="#4298b8"
        stroke="#1a3b47"
        stroke-width="1"
         />
    <g transform="translate(0, 14)">
        <path fill="#1a3b47" d="M18.74-3.73L18.74-3.73Q17.50-3.73 16.66-3.28Q15.82-2.83 15.28-2.03Q14.73-1.24 14.49-0.13Q14.26 0.98 14.26 2.32L14.26 2.32Q14.26 5.43 15.24 6.90Q16.22 8.37 18.12 8.37L18.12 8.37Q18.43 8.37 18.79 8.34Q19.16 8.31 19.46 8.26L19.46 8.26L19.46 1.93L22.91 1.93L22.91 10.58Q22.29 10.80 20.99 11.08Q19.69 11.36 17.84 11.36L17.84 11.36Q16.22 11.36 14.91 10.79Q13.61 10.22 12.69 9.08Q11.76 7.95 11.26 6.25Q10.76 4.56 10.76 2.32L10.76 2.32Q10.76 0.11 11.34-1.59Q11.93-3.28 12.94-4.43Q13.95-5.58 15.32-6.15Q16.69-6.72 18.26-6.72L18.26-6.72Q19.27-6.72 20.07-6.57Q20.86-6.42 21.45-6.22Q22.04-6.02 22.42-5.80Q22.80-5.58 22.99-5.46L22.99-5.46L22.10-2.72Q21.48-3.11 20.58-3.42Q19.69-3.73 18.74-3.73ZM36.85-1.85L36.24 1.34Q35.90 1.26 35.44 1.17Q34.98 1.09 34.50 1.02Q34.02 0.95 33.58 0.92Q33.13 0.89 32.82 0.89L32.82 0.89Q32.09 0.89 31.39 0.96Q30.69 1.03 29.96 1.23L29.96 1.23L29.96 11L26.49 11L26.49-1.29Q27.86-1.80 29.31-2.10Q30.75-2.41 32.68-2.41L32.68-2.41Q32.96-2.41 33.48-2.38Q34.00-2.36 34.58-2.29Q35.17-2.22 35.77-2.12Q36.38-2.02 36.85-1.85L36.85-1.85ZM51.22 4.39L51.22 4.39Q51.22 5.96 50.77 7.23Q50.32 8.51 49.51 9.43Q48.70 10.36 47.56 10.86Q46.43 11.36 45.03 11.36L45.03 11.36Q43.63 11.36 42.49 10.86Q41.36 10.36 40.53 9.43Q39.71 8.51 39.26 7.23Q38.81 5.96 38.81 4.39L38.81 4.39Q38.81 2.85 39.27 1.58Q39.74 0.30 40.56-0.61Q41.39-1.52 42.54-2.01Q43.68-2.50 45.03-2.50L45.03-2.50Q46.40-2.50 47.53-2.01Q48.67-1.52 49.49-0.61Q50.32 0.30 50.77 1.58Q51.22 2.85 51.22 4.39ZM42.31 4.42L42.31 4.42Q42.31 6.18 42.94 7.28Q43.57 8.37 44.97 8.37L44.97 8.37Q46.32 8.37 47.00 7.28Q47.69 6.18 47.69 4.42L47.69 4.42Q47.69 2.66 47.06 1.58Q46.43 0.50 45.03 0.50L45.03 0.50Q43.68 0.50 43.00 1.58Q42.31 2.66 42.31 4.42ZM65.22 4.39L65.22 4.39Q65.22 5.96 64.77 7.23Q64.32 8.51 63.51 9.43Q62.70 10.36 61.56 10.86Q60.43 11.36 59.03 11.36L59.03 11.36Q57.63 11.36 56.49 10.86Q55.36 10.36 54.53 9.43Q53.71 8.51 53.26 7.23Q52.81 5.96 52.81 4.39L52.81 4.39Q52.81 2.85 53.27 1.58Q53.74 0.30 54.56-0.61Q55.39-1.52 56.54-2.01Q57.68-2.50 59.03-2.50L59.03-2.50Q60.40-2.50 61.53-2.01Q62.67-1.52 63.49-0.61Q64.32 0.30 64.77 1.58Q65.22 2.85 65.22 4.39ZM56.31 4.42L56.31 4.42Q56.31 6.18 56.94 7.28Q57.57 8.37 58.97 8.37L58.97 8.37Q60.32 8.37 61.00 7.28Q61.69 6.18 61.69 4.42L61.69 4.42Q61.69 2.66 61.06 1.58Q60.43 0.50 59.03 0.50L59.03 0.50Q57.68 0.50 57.00 1.58Q56.31 2.66 56.31 4.42ZM74.32 11L71.43 11Q70.17 8.51 68.87 5.16Q67.57 1.82 66.39-2.16L66.39-2.16L70.00-2.16Q70.26-1.10 70.61 0.11Q70.96 1.31 71.35 2.53Q71.74 3.75 72.15 4.90Q72.55 6.04 72.92 7.00L72.92 7.00Q73.28 6.04 73.73 4.90Q74.18 3.75 74.61 2.53Q75.04 1.31 75.45 0.11Q75.86-1.10 76.11-2.16L76.11-2.16L79.61-2.16Q78.43 1.82 77.00 5.16Q75.58 8.51 74.32 11L74.32 11ZM89.69-2.16L93.22-2.16Q92.68-0.31 92.19 1.47Q91.70 3.24 91.17 4.94Q90.64 6.63 90.04 8.26Q89.44 9.88 88.74 11.42L88.74 11.42Q88.20 12.54 87.69 13.35Q87.17 14.16 86.54 14.68Q85.91 15.20 85.14 15.45Q84.37 15.70 83.33 15.70L83.33 15.70Q82.46 15.70 81.75 15.56Q81.04 15.42 80.56 15.20L80.56 15.20L81.20 12.32Q81.76 12.57 82.20 12.67Q82.63 12.76 83.14 12.76L83.14 12.76Q84.14 12.76 84.76 12.09Q85.38 11.42 85.74 10.50L85.74 10.50Q84.51 8.03 83.28 4.85Q82.04 1.68 81.04-2.16L81.04-2.16L84.62-2.16Q84.87-1.12 85.19 0.05Q85.52 1.23 85.88 2.40Q86.24 3.58 86.65 4.71Q87.06 5.85 87.48 6.83L87.48 6.83Q87.76 5.85 88.06 4.71Q88.37 3.58 88.65 2.42Q88.93 1.26 89.20 0.08Q89.46-1.10 89.69-2.16L89.69-2.16Z"/>
    </g>
</svg>