<?xml version="1.0" encoding="UTF-8"?>
<svg height="26" width="301.2" version="1.1" xmlns="http://www.w3.org/2000/svg"><!--Created by Josélio de S. C. Júnior - 2021 - https://github.com/joseliojunior -->
    <defs>
        <pattern id="pattern"
                x="3" y="3" width="6" height="6"
                patternUnits="userSpaceOnUse"
                patternTransform="rotate(45)" >
            <rect height="6" width="6"
                fill="#ffffff"/>
            <line x1="0" y1="0" x2="0" y2="6"
                stroke="#bbbbbb"
                stroke-width="2" />
        </pattern>
    </defs>
    <rect
        height="24"
        width="299.2"
        rx="1"
        ry="1"
        x="1" y="1"
        fill="url(#pattern)" />
    <g transform="translate(0, 8)">
        <path fill="#000000" d="M20.94 0.10L22.58 0.10Q22.69 0.43 22.86 0.96Q23.02 1.49 23.22 2.10Q23.41 2.70 23.60 3.33Q23.79 3.95 23.97 4.48L23.97 4.48Q24.16 3.89 24.37 3.26Q24.58 2.62 24.77 2.04Q24.96 1.46 25.12 0.94Q25.28 0.43 25.41 0.10L25.41 0.10L27.04 0.10Q27.15 1.39 27.26 2.62Q27.36 3.86 27.43 5.06Q27.50 6.27 27.55 7.50Q27.60 8.72 27.63 10L27.63 10L25.82 10L25.92 2.30L24.70 6.50L23.26 6.50L22.10 2.30L22.18 10L20.37 10Q20.42 8.78 20.47 7.47Q20.53 6.16 20.59 4.86Q20.66 3.57 20.74 2.35Q20.83 1.14 20.94 0.10L20.94 0.10ZM32.54 0.32L32.54 0.32Q32.54 0.90 32.18 1.23Q31.81 1.57 31.30 1.57L31.30 1.57Q30.78 1.57 30.42 1.23Q30.06 0.90 30.06 0.32L30.06 0.32Q30.06-0.27 30.42-0.61Q30.78-0.94 31.30-0.94L31.30-0.94Q31.81-0.94 32.18-0.61Q32.54-0.27 32.54 0.32ZM35.22 8.10L35.47 9.68Q34.86 9.97 34.33 10.07Q33.79 10.18 33.34 10.18L33.34 10.18Q32.58 10.18 32.06 9.95Q31.54 9.73 31.22 9.30Q30.91 8.88 30.78 8.27Q30.66 7.66 30.66 6.88L30.66 6.88L30.66 4.11L28.58 4.11L28.58 2.48L32.62 2.48L32.62 7.14Q32.62 7.81 32.87 8.14Q33.12 8.46 33.70 8.46L33.70 8.46Q33.97 8.46 34.35 8.39Q34.74 8.32 35.22 8.10L35.22 8.10ZM36.70 6.24L36.70 6.24Q36.70 5.42 36.96 4.70Q37.22 3.98 37.74 3.45Q38.27 2.91 39.08 2.60Q39.89 2.29 41.01 2.29L41.01 2.29Q41.68 2.29 42.22 2.38Q42.77 2.48 43.33 2.70L43.33 2.70L42.90 4.29Q42.58 4.18 42.18 4.09Q41.79 4 41.18 4L41.18 4Q40.48 4 40.01 4.17Q39.54 4.34 39.25 4.63Q38.96 4.93 38.83 5.34Q38.70 5.76 38.70 6.24L38.70 6.24Q38.70 7.28 39.29 7.87Q39.87 8.46 41.28 8.46L41.28 8.46Q41.74 8.46 42.25 8.40Q42.75 8.34 43.17 8.19L43.17 8.19L43.46 9.81Q43.04 9.97 42.45 10.07Q41.86 10.18 41.06 10.18L41.06 10.18Q39.90 10.18 39.08 9.87Q38.26 9.57 37.73 9.04Q37.20 8.51 36.95 7.79Q36.70 7.07 36.70 6.24ZM51.34 2.66L50.99 4.48Q50.80 4.43 50.54 4.38Q50.27 4.34 50 4.30Q49.73 4.26 49.47 4.24Q49.22 4.22 49.04 4.22L49.04 4.22Q48.62 4.22 48.22 4.26Q47.82 4.30 47.41 4.42L47.41 4.42L47.41 10L45.42 10L45.42 2.98Q46.21 2.69 47.03 2.51Q47.86 2.34 48.96 2.34L48.96 2.34Q49.12 2.34 49.42 2.35Q49.71 2.37 50.05 2.41Q50.38 2.45 50.73 2.50Q51.07 2.56 51.34 2.66L51.34 2.66ZM59.55 6.22L59.55 6.22Q59.55 7.12 59.30 7.85Q59.04 8.58 58.58 9.10Q58.11 9.63 57.46 9.92Q56.82 10.21 56.02 10.21L56.02 10.21Q55.22 10.21 54.57 9.92Q53.92 9.63 53.45 9.10Q52.98 8.58 52.72 7.85Q52.46 7.12 52.46 6.22L52.46 6.22Q52.46 5.34 52.73 4.62Q52.99 3.89 53.46 3.37Q53.94 2.85 54.59 2.57Q55.25 2.29 56.02 2.29L56.02 2.29Q56.80 2.29 57.45 2.57Q58.10 2.85 58.57 3.37Q59.04 3.89 59.30 4.62Q59.55 5.34 59.55 6.22ZM54.46 6.24L54.46 6.24Q54.46 7.25 54.82 7.87Q55.18 8.50 55.98 8.50L55.98 8.50Q56.75 8.50 57.14 7.87Q57.54 7.25 57.54 6.24L57.54 6.24Q57.54 5.23 57.18 4.62Q56.82 4 56.02 4L56.02 4Q55.25 4 54.86 4.62Q54.46 5.23 54.46 6.24ZM63.65 8.51L63.65 8.51Q64.37 8.51 64.75 8.41Q65.14 8.30 65.14 7.98L65.14 7.98Q65.14 7.78 65.02 7.63Q64.90 7.49 64.68 7.38Q64.46 7.28 64.18 7.18Q63.90 7.09 63.60 6.99L63.60 6.99Q63.17 6.86 62.72 6.70Q62.27 6.53 61.90 6.27Q61.54 6.02 61.30 5.62Q61.06 5.23 61.06 4.64L61.06 4.64Q61.06 4.16 61.24 3.74Q61.42 3.31 61.82 2.98Q62.21 2.66 62.82 2.47Q63.42 2.29 64.27 2.29L64.27 2.29Q65.01 2.29 65.64 2.40Q66.27 2.51 66.74 2.72L66.74 2.72L66.43 4.38Q66.16 4.30 65.58 4.12Q65.01 3.94 64.29 3.94L64.29 3.94Q63.54 3.94 63.27 4.12Q63.01 4.30 63.01 4.51L63.01 4.51Q63.01 4.69 63.13 4.82Q63.25 4.96 63.45 5.07Q63.65 5.18 63.91 5.29Q64.18 5.39 64.48 5.49L64.48 5.49Q64.91 5.63 65.38 5.81Q65.84 5.98 66.22 6.25Q66.59 6.51 66.83 6.92Q67.07 7.33 67.07 7.92L67.07 7.92Q67.07 8.38 66.90 8.80Q66.72 9.22 66.31 9.52Q65.90 9.82 65.25 10Q64.59 10.18 63.63 10.18L63.63 10.18Q62.66 10.18 61.97 9.95Q61.28 9.73 60.86 9.55L60.86 9.55L61.17 7.90Q61.73 8.13 62.36 8.32Q62.99 8.51 63.65 8.51ZM75.55 6.22L75.55 6.22Q75.55 7.12 75.30 7.85Q75.04 8.58 74.58 9.10Q74.11 9.63 73.46 9.92Q72.82 10.21 72.02 10.21L72.02 10.21Q71.22 10.21 70.57 9.92Q69.92 9.63 69.45 9.10Q68.98 8.58 68.72 7.85Q68.46 7.12 68.46 6.22L68.46 6.22Q68.46 5.34 68.73 4.62Q68.99 3.89 69.46 3.37Q69.94 2.85 70.59 2.57Q71.25 2.29 72.02 2.29L72.02 2.29Q72.80 2.29 73.45 2.57Q74.10 2.85 74.57 3.37Q75.04 3.89 75.30 4.62Q75.55 5.34 75.55 6.22ZM70.46 6.24L70.46 6.24Q70.46 7.25 70.82 7.87Q71.18 8.50 71.98 8.50L71.98 8.50Q72.75 8.50 73.14 7.87Q73.54 7.25 73.54 6.24L73.54 6.24Q73.54 5.23 73.18 4.62Q72.82 4 72.02 4L72.02 4Q71.25 4 70.86 4.62Q70.46 5.23 70.46 6.24ZM80.21 10L78.22 10L78.22 4.11L76.58 4.11L76.58 2.48L78.22 2.48L78.22 2.05Q78.22 1.14 78.49 0.54Q78.75-0.06 79.20-0.42Q79.65-0.78 80.22-0.94Q80.80-1.09 81.41-1.09L81.41-1.09Q82.03-1.09 82.69-0.98Q83.34-0.86 83.87-0.61L83.87-0.61L83.54 0.99Q83.17 0.86 82.62 0.73Q82.06 0.59 81.57 0.59L81.57 0.59Q81.30 0.59 81.05 0.64Q80.80 0.69 80.62 0.85Q80.43 1.01 80.32 1.30Q80.21 1.60 80.21 2.08L80.21 2.08L80.21 2.48L83.30 2.48L83.30 4.11L80.21 4.11L80.21 10ZM86.29 7.20L86.29 4.11L84.58 4.11L84.58 2.48L86.29 2.48L86.29 0.59L88.26 0.27L88.26 2.48L91.41 2.48L91.41 4.11L88.26 4.11L88.26 7.15Q88.26 7.57 88.34 7.82Q88.42 8.08 88.56 8.22Q88.70 8.37 88.91 8.42Q89.12 8.46 89.38 8.46L89.38 8.46Q89.65 8.46 89.88 8.45Q90.11 8.43 90.33 8.39Q90.54 8.35 90.78 8.27Q91.01 8.19 91.28 8.06L91.28 8.06L91.55 9.76Q91.01 9.98 90.38 10.08Q89.74 10.18 89.15 10.18L89.15 10.18Q88.46 10.18 87.94 10.06Q87.41 9.95 87.04 9.63Q86.67 9.31 86.48 8.73Q86.29 8.14 86.29 7.20L86.29 7.20ZM105.01 10L102.98 10Q102.59 8.90 102.16 7.50Q101.73 6.11 101.34 4.73Q100.96 3.34 100.66 2.11Q100.35 0.88 100.21 0.10L100.21 0.10L102.29 0.10Q102.38 0.86 102.58 1.88Q102.77 2.90 103 3.98Q103.23 5.06 103.50 6.10Q103.76 7.15 104.02 7.98L104.02 7.98Q104.27 7.17 104.53 6.12Q104.78 5.07 105.01 3.99Q105.23 2.91 105.42 1.89Q105.62 0.86 105.74 0.10L105.74 0.10L107.81 0.10Q107.62 1.06 107.34 2.24Q107.06 3.42 106.70 4.73Q106.34 6.03 105.90 7.38Q105.47 8.74 105.01 10L105.01 10ZM112.54 0.32L112.54 0.32Q112.54 0.90 112.18 1.23Q111.81 1.57 111.30 1.57L111.30 1.57Q110.78 1.57 110.42 1.23Q110.06 0.90 110.06 0.32L110.06 0.32Q110.06-0.27 110.42-0.61Q110.78-0.94 111.30-0.94L111.30-0.94Q111.81-0.94 112.18-0.61Q112.54-0.27 112.54 0.32ZM115.22 8.10L115.47 9.68Q114.86 9.97 114.33 10.07Q113.79 10.18 113.34 10.18L113.34 10.18Q112.58 10.18 112.06 9.95Q111.54 9.73 111.22 9.30Q110.91 8.88 110.78 8.27Q110.66 7.66 110.66 6.88L110.66 6.88L110.66 4.11L108.58 4.11L108.58 2.48L112.62 2.48L112.62 7.14Q112.62 7.81 112.87 8.14Q113.12 8.46 113.70 8.46L113.70 8.46Q113.97 8.46 114.35 8.39Q114.74 8.32 115.22 8.10L115.22 8.10ZM119.65 8.51L119.65 8.51Q120.37 8.51 120.75 8.41Q121.14 8.30 121.14 7.98L121.14 7.98Q121.14 7.78 121.02 7.63Q120.90 7.49 120.68 7.38Q120.46 7.28 120.18 7.18Q119.90 7.09 119.60 6.99L119.60 6.99Q119.17 6.86 118.72 6.70Q118.27 6.53 117.90 6.27Q117.54 6.02 117.30 5.62Q117.06 5.23 117.06 4.64L117.06 4.64Q117.06 4.16 117.24 3.74Q117.42 3.31 117.82 2.98Q118.21 2.66 118.82 2.47Q119.42 2.29 120.27 2.29L120.27 2.29Q121.01 2.29 121.64 2.40Q122.27 2.51 122.74 2.72L122.74 2.72L122.43 4.38Q122.16 4.30 121.58 4.12Q121.01 3.94 120.29 3.94L120.29 3.94Q119.54 3.94 119.27 4.12Q119.01 4.30 119.01 4.51L119.01 4.51Q119.01 4.69 119.13 4.82Q119.25 4.96 119.45 5.07Q119.65 5.18 119.91 5.29Q120.18 5.39 120.48 5.49L120.48 5.49Q120.91 5.63 121.38 5.81Q121.84 5.98 122.22 6.25Q122.59 6.51 122.83 6.92Q123.07 7.33 123.07 7.92L123.07 7.92Q123.07 8.38 122.90 8.80Q122.72 9.22 122.31 9.52Q121.90 9.82 121.25 10Q120.59 10.18 119.63 10.18L119.63 10.18Q118.66 10.18 117.97 9.95Q117.28 9.73 116.86 9.55L116.86 9.55L117.17 7.90Q117.73 8.13 118.36 8.32Q118.99 8.51 119.65 8.51ZM131.01 2.48L131.01 9.74Q130.46 9.89 129.69 10.03Q128.91 10.18 128 10.18L128 10.18Q127.07 10.18 126.48 9.92Q125.89 9.66 125.54 9.19Q125.20 8.72 125.07 8.08Q124.94 7.44 124.94 6.67L124.94 6.67L124.94 2.48L126.91 2.48L126.91 6.42Q126.91 7.46 127.16 7.96Q127.41 8.46 128.13 8.46L128.13 8.46Q128.58 8.46 129.02 8.38L129.02 8.38L129.02 2.48L131.01 2.48ZM136.02 8.59L136.02 8.59Q136.34 8.59 136.64 8.58Q136.94 8.58 137.17 8.54L137.17 8.54L137.17 6.82Q136.98 6.78 136.70 6.76Q136.43 6.74 136.21 6.74L136.21 6.74Q135.90 6.74 135.62 6.78Q135.33 6.82 135.11 6.91Q134.90 7.01 134.77 7.18Q134.64 7.36 134.64 7.65L134.64 7.65Q134.64 8.16 135.02 8.38Q135.41 8.59 136.02 8.59ZM135.84 2.29L135.84 2.29Q136.77 2.29 137.38 2.50Q138 2.72 138.37 3.11Q138.74 3.50 138.90 4.07Q139.06 4.64 139.06 5.34L139.06 5.34L139.06 9.82Q138.62 9.92 137.78 10.05Q136.93 10.18 135.87 10.18L135.87 10.18Q135.15 10.18 134.57 10.05Q133.98 9.92 133.57 9.62Q133.15 9.33 132.93 8.86Q132.70 8.38 132.70 7.70L132.70 7.70Q132.70 7.04 132.96 6.59Q133.22 6.14 133.65 5.87Q134.08 5.60 134.64 5.48Q135.20 5.36 135.81 5.36L135.81 5.36Q136.58 5.36 137.17 5.49L137.17 5.49L137.17 5.25Q137.17 4.69 136.82 4.31Q136.46 3.94 135.60 3.94L135.60 3.94Q135.04 3.94 134.52 4.02Q134 4.10 133.68 4.21L133.68 4.21L133.41 2.62Q133.78 2.50 134.45 2.39Q135.12 2.29 135.84 2.29ZM147.22 8.10L147.47 9.68Q147.42 9.71 147.26 9.79Q147.09 9.87 146.82 9.96Q146.54 10.05 146.15 10.11Q145.76 10.18 145.26 10.18L145.26 10.18Q143.90 10.18 143.28 9.37Q142.66 8.56 142.66 7.01L142.66 7.01L142.66 0.62L140.58 0.62L140.58-1.01L144.62-1.01L144.62 7.15Q144.62 7.92 144.93 8.19Q145.23 8.46 145.70 8.46L145.70 8.46Q146.29 8.46 146.69 8.30Q147.09 8.14 147.22 8.10L147.22 8.10ZM159.71 8.56L159.71 8.56Q160.21 8.56 160.54 8.46Q160.86 8.35 161.06 8.17Q161.25 7.98 161.32 7.75Q161.39 7.52 161.39 7.28L161.39 7.28Q161.39 6.98 161.22 6.74Q161.04 6.50 160.77 6.31Q160.50 6.13 160.16 5.98Q159.82 5.82 159.49 5.70L159.49 5.70Q159.04 5.54 158.56 5.33Q158.08 5.12 157.69 4.80Q157.30 4.48 157.04 4.01Q156.78 3.54 156.78 2.83L156.78 2.83Q156.78 1.44 157.69 0.66Q158.59-0.13 160.18-0.13L160.18-0.13Q161.09-0.13 161.77 0.08Q162.45 0.29 162.91 0.54L162.91 0.54L162.34 2.06Q161.94 1.84 161.45 1.68Q160.96 1.52 160.32 1.52L160.32 1.52Q158.75 1.52 158.75 2.66L158.75 2.66Q158.75 2.94 158.91 3.16Q159.07 3.38 159.32 3.54Q159.57 3.71 159.88 3.84Q160.19 3.97 160.50 4.08L160.50 4.08Q160.96 4.26 161.46 4.47Q161.97 4.69 162.39 5.05Q162.82 5.41 163.09 5.94Q163.36 6.48 163.36 7.30L163.36 7.30Q163.36 8.69 162.46 9.45Q161.55 10.21 159.71 10.21L159.71 10.21Q158.48 10.21 157.74 9.94Q157.01 9.68 156.64 9.46L156.64 9.46L157.22 7.86Q157.65 8.11 158.25 8.34Q158.85 8.56 159.71 8.56ZM166.29 7.20L166.29 4.11L164.58 4.11L164.58 2.48L166.29 2.48L166.29 0.59L168.26 0.27L168.26 2.48L171.41 2.48L171.41 4.11L168.26 4.11L168.26 7.15Q168.26 7.57 168.34 7.82Q168.42 8.08 168.56 8.22Q168.70 8.37 168.91 8.42Q169.12 8.46 169.38 8.46L169.38 8.46Q169.65 8.46 169.88 8.45Q170.11 8.43 170.33 8.39Q170.54 8.35 170.78 8.27Q171.01 8.19 171.28 8.06L171.28 8.06L171.55 9.76Q171.01 9.98 170.38 10.08Q169.74 10.18 169.15 10.18L169.15 10.18Q168.46 10.18 167.94 10.06Q167.41 9.95 167.04 9.63Q166.67 9.31 166.48 8.73Q166.29 8.14 166.29 7.20L166.29 7.20ZM179.01 2.48L179.01 9.74Q178.46 9.89 177.69 10.03Q176.91 10.18 176 10.18L176 10.18Q175.07 10.18 174.48 9.92Q173.89 9.66 173.54 9.19Q173.20 8.72 173.07 8.08Q172.94 7.44 172.94 6.67L172.94 6.67L172.94 2.48L174.91 2.48L174.91 6.42Q174.91 7.46 175.16 7.96Q175.41 8.46 176.13 8.46L176.13 8.46Q176.58 8.46 177.02 8.38L177.02 8.38L177.02 2.48L179.01 2.48ZM182.45 6.19L182.45 6.19Q182.45 7.20 182.82 7.84Q183.20 8.48 184.03 8.48L184.03 8.48Q184.27 8.48 184.48 8.46Q184.69 8.45 184.91 8.42L184.91 8.42L184.91 4.32Q184.69 4.19 184.40 4.10Q184.11 4.02 183.79 4.02L183.79 4.02Q183.09 4.02 182.77 4.58Q182.45 5.14 182.45 6.19ZM186.88-1.10L186.88 9.78Q186.34 9.95 185.55 10.06Q184.77 10.18 184.02 10.18L184.02 10.18Q182.26 10.18 181.35 9.14Q180.45 8.10 180.45 6.29L180.45 6.29Q180.45 4.45 181.21 3.38Q181.97 2.32 183.46 2.32L183.46 2.32Q183.86 2.32 184.24 2.41Q184.62 2.50 184.91 2.66L184.91 2.66L184.91-0.77L186.88-1.10ZM192.54 0.32L192.54 0.32Q192.54 0.90 192.18 1.23Q191.81 1.57 191.30 1.57L191.30 1.57Q190.78 1.57 190.42 1.23Q190.06 0.90 190.06 0.32L190.06 0.32Q190.06-0.27 190.42-0.61Q190.78-0.94 191.30-0.94L191.30-0.94Q191.81-0.94 192.18-0.61Q192.54-0.27 192.54 0.32ZM195.22 8.10L195.47 9.68Q194.86 9.97 194.33 10.07Q193.79 10.18 193.34 10.18L193.34 10.18Q192.58 10.18 192.06 9.95Q191.54 9.73 191.22 9.30Q190.91 8.88 190.78 8.27Q190.66 7.66 190.66 6.88L190.66 6.88L190.66 4.11L188.58 4.11L188.58 2.48L192.62 2.48L192.62 7.14Q192.62 7.81 192.87 8.14Q193.12 8.46 193.70 8.46L193.70 8.46Q193.97 8.46 194.35 8.39Q194.74 8.32 195.22 8.10L195.22 8.10ZM203.55 6.22L203.55 6.22Q203.55 7.12 203.30 7.85Q203.04 8.58 202.58 9.10Q202.11 9.63 201.46 9.92Q200.82 10.21 200.02 10.21L200.02 10.21Q199.22 10.21 198.57 9.92Q197.92 9.63 197.45 9.10Q196.98 8.58 196.72 7.85Q196.46 7.12 196.46 6.22L196.46 6.22Q196.46 5.34 196.73 4.62Q196.99 3.89 197.46 3.37Q197.94 2.85 198.59 2.57Q199.25 2.29 200.02 2.29L200.02 2.29Q200.80 2.29 201.45 2.57Q202.10 2.85 202.57 3.37Q203.04 3.89 203.30 4.62Q203.55 5.34 203.55 6.22ZM198.46 6.24L198.46 6.24Q198.46 7.25 198.82 7.87Q199.18 8.50 199.98 8.50L199.98 8.50Q200.75 8.50 201.14 7.87Q201.54 7.25 201.54 6.24L201.54 6.24Q201.54 5.23 201.18 4.62Q200.82 4 200.02 4L200.02 4Q199.25 4 198.86 4.62Q198.46 5.23 198.46 6.24ZM215.71 8.56L215.71 8.56Q216.21 8.56 216.54 8.46Q216.86 8.35 217.06 8.17Q217.25 7.98 217.32 7.75Q217.39 7.52 217.39 7.28L217.39 7.28Q217.39 6.98 217.22 6.74Q217.04 6.50 216.77 6.31Q216.50 6.13 216.16 5.98Q215.82 5.82 215.49 5.70L215.49 5.70Q215.04 5.54 214.56 5.33Q214.08 5.12 213.69 4.80Q213.30 4.48 213.04 4.01Q212.78 3.54 212.78 2.83L212.78 2.83Q212.78 1.44 213.69 0.66Q214.59-0.13 216.18-0.13L216.18-0.13Q217.09-0.13 217.77 0.08Q218.45 0.29 218.91 0.54L218.91 0.54L218.34 2.06Q217.94 1.84 217.45 1.68Q216.96 1.52 216.32 1.52L216.32 1.52Q214.75 1.52 214.75 2.66L214.75 2.66Q214.75 2.94 214.91 3.16Q215.07 3.38 215.32 3.54Q215.57 3.71 215.88 3.84Q216.19 3.97 216.50 4.08L216.50 4.08Q216.96 4.26 217.46 4.47Q217.97 4.69 218.39 5.05Q218.82 5.41 219.09 5.94Q219.36 6.48 219.36 7.30L219.36 7.30Q219.36 8.69 218.46 9.45Q217.55 10.21 215.71 10.21L215.71 10.21Q214.48 10.21 213.74 9.94Q213.01 9.68 212.64 9.46L212.64 9.46L213.22 7.86Q213.65 8.11 214.25 8.34Q214.85 8.56 215.71 8.56ZM227.55 6.22L227.55 6.22Q227.55 7.12 227.30 7.85Q227.04 8.58 226.58 9.10Q226.11 9.63 225.46 9.92Q224.82 10.21 224.02 10.21L224.02 10.21Q223.22 10.21 222.57 9.92Q221.92 9.63 221.45 9.10Q220.98 8.58 220.72 7.85Q220.46 7.12 220.46 6.22L220.46 6.22Q220.46 5.34 220.73 4.62Q220.99 3.89 221.46 3.37Q221.94 2.85 222.59 2.57Q223.25 2.29 224.02 2.29L224.02 2.29Q224.80 2.29 225.45 2.57Q226.10 2.85 226.57 3.37Q227.04 3.89 227.30 4.62Q227.55 5.34 227.55 6.22ZM222.46 6.24L222.46 6.24Q222.46 7.25 222.82 7.87Q223.18 8.50 223.98 8.50L223.98 8.50Q224.75 8.50 225.14 7.87Q225.54 7.25 225.54 6.24L225.54 6.24Q225.54 5.23 225.18 4.62Q224.82 4 224.02 4L224.02 4Q223.25 4 222.86 4.62Q222.46 5.23 222.46 6.24ZM235.22 8.10L235.47 9.68Q235.42 9.71 235.26 9.79Q235.09 9.87 234.82 9.96Q234.54 10.05 234.15 10.11Q233.76 10.18 233.26 10.18L233.26 10.18Q231.90 10.18 231.28 9.37Q230.66 8.56 230.66 7.01L230.66 7.01L230.66 0.62L228.58 0.62L228.58-1.01L232.62-1.01L232.62 7.15Q232.62 7.92 232.93 8.19Q233.23 8.46 233.70 8.46L233.70 8.46Q234.29 8.46 234.69 8.30Q235.09 8.14 235.22 8.10L235.22 8.10ZM243.01 2.48L243.01 9.74Q242.46 9.89 241.69 10.03Q240.91 10.18 240 10.18L240 10.18Q239.07 10.18 238.48 9.92Q237.89 9.66 237.54 9.19Q237.20 8.72 237.07 8.08Q236.94 7.44 236.94 6.67L236.94 6.67L236.94 2.48L238.91 2.48L238.91 6.42Q238.91 7.46 239.16 7.96Q239.41 8.46 240.13 8.46L240.13 8.46Q240.58 8.46 241.02 8.38L241.02 8.38L241.02 2.48L243.01 2.48ZM246.29 7.20L246.29 4.11L244.58 4.11L244.58 2.48L246.29 2.48L246.29 0.59L248.26 0.27L248.26 2.48L251.41 2.48L251.41 4.11L248.26 4.11L248.26 7.15Q248.26 7.57 248.34 7.82Q248.42 8.08 248.56 8.22Q248.70 8.37 248.91 8.42Q249.12 8.46 249.38 8.46L249.38 8.46Q249.65 8.46 249.88 8.45Q250.11 8.43 250.33 8.39Q250.54 8.35 250.78 8.27Q251.01 8.19 251.28 8.06L251.28 8.06L251.55 9.76Q251.01 9.98 250.38 10.08Q249.74 10.18 249.15 10.18L249.15 10.18Q248.46 10.18 247.94 10.06Q247.41 9.95 247.04 9.63Q246.67 9.31 246.48 8.73Q246.29 8.14 246.29 7.20L246.29 7.20ZM256.54 0.32L256.54 0.32Q256.54 0.90 256.18 1.23Q255.81 1.57 255.30 1.57L255.30 1.57Q254.78 1.57 254.42 1.23Q254.06 0.90 254.06 0.32L254.06 0.32Q254.06-0.27 254.42-0.61Q254.78-0.94 255.30-0.94L255.30-0.94Q255.81-0.94 256.18-0.61Q256.54-0.27 256.54 0.32ZM259.22 8.10L259.47 9.68Q258.86 9.97 258.33 10.07Q257.79 10.18 257.34 10.18L257.34 10.18Q256.58 10.18 256.06 9.95Q255.54 9.73 255.22 9.30Q254.91 8.88 254.78 8.27Q254.66 7.66 254.66 6.88L254.66 6.88L254.66 4.11L252.58 4.11L252.58 2.48L256.62 2.48L256.62 7.14Q256.62 7.81 256.87 8.14Q257.12 8.46 257.70 8.46L257.70 8.46Q257.97 8.46 258.35 8.39Q258.74 8.32 259.22 8.10L259.22 8.10ZM267.55 6.22L267.55 6.22Q267.55 7.12 267.30 7.85Q267.04 8.58 266.58 9.10Q266.11 9.63 265.46 9.92Q264.82 10.21 264.02 10.21L264.02 10.21Q263.22 10.21 262.57 9.92Q261.92 9.63 261.45 9.10Q260.98 8.58 260.72 7.85Q260.46 7.12 260.46 6.22L260.46 6.22Q260.46 5.34 260.73 4.62Q260.99 3.89 261.46 3.37Q261.94 2.85 262.59 2.57Q263.25 2.29 264.02 2.29L264.02 2.29Q264.80 2.29 265.45 2.57Q266.10 2.85 266.57 3.37Q267.04 3.89 267.30 4.62Q267.55 5.34 267.55 6.22ZM262.46 6.24L262.46 6.24Q262.46 7.25 262.82 7.87Q263.18 8.50 263.98 8.50L263.98 8.50Q264.75 8.50 265.14 7.87Q265.54 7.25 265.54 6.24L265.54 6.24Q265.54 5.23 265.18 4.62Q264.82 4 264.02 4L264.02 4Q263.25 4 262.86 4.62Q262.46 5.23 262.46 6.24ZM269.01 10L269.01 2.72Q269.54 2.58 270.31 2.45Q271.09 2.32 272 2.32L272 2.32Q272.90 2.32 273.49 2.57Q274.08 2.82 274.42 3.27Q274.77 3.73 274.91 4.36Q275.06 4.99 275.06 5.76L275.06 5.76L275.06 10L273.09 10L273.09 6.02Q273.09 4.96 272.85 4.50Q272.61 4.03 271.87 4.03L271.87 4.03Q271.65 4.03 271.43 4.05Q271.22 4.06 270.98 4.10L270.98 4.10L270.98 10L269.01 10Z"/>
    </g>
</svg>