<?xml version="1.0" encoding="UTF-8"?>
<svg height="34" width="429.2" version="1.1" xmlns="http://www.w3.org/2000/svg"><!--Created by Josélio de S. C. Júnior - 2021 - https://github.com/joseliojunior -->
    <defs>
        <pattern id="pattern"
                x="3" y="3" width="6" height="6"
                patternUnits="userSpaceOnUse"
                patternTransform="rotate(45)" >
            <rect height="6" width="6"
                fill="#ffffff"/>
            <line x1="0" y1="0" x2="0" y2="6"
                stroke="#888888"
                stroke-width="2" />
        </pattern>
    </defs>
    <rect
        height="32"
        width="427.2"
        rx="1"
        ry="1"
        x="1" y="1"
        fill="url(#pattern)"
        stroke="#000000"
        stroke-width="1" />
    <g transform="translate(0, 12)">
        <path fill="#ffffff" stroke="#000000" d="M21.42-2.86L23.86-2.86Q24.03-2.35 24.28-1.56Q24.54-0.77 24.82 0.14Q25.11 1.06 25.40 1.99Q25.69 2.93 25.95 3.72L25.95 3.72Q26.24 2.83 26.55 1.88Q26.86 0.94 27.15 0.06Q27.44-0.82 27.68-1.58Q27.92-2.35 28.11-2.86L28.11-2.86L30.56-2.86Q30.73-0.91 30.88 0.94Q31.04 2.78 31.15 4.60Q31.26 6.41 31.33 8.24Q31.40 10.08 31.45 12L31.45 12L28.74 12L28.88 0.46L27.06 6.74L24.90 6.74L23.14 0.46L23.26 12L20.55 12Q20.62 10.18 20.71 8.21Q20.79 6.24 20.89 4.30Q20.98 2.35 21.12 0.53Q21.25-1.30 21.42-2.86L21.42-2.86ZM38.82-2.52L38.82-2.52Q38.82-1.66 38.26-1.15Q37.71-0.65 36.94-0.65L36.94-0.65Q36.18-0.65 35.64-1.15Q35.10-1.66 35.10-2.52L35.10-2.52Q35.10-3.41 35.64-3.91Q36.18-4.42 36.94-4.42L36.94-4.42Q37.71-4.42 38.26-3.91Q38.82-3.41 38.82-2.52ZM42.82 9.14L43.21 11.52Q42.30 11.95 41.49 12.11Q40.69 12.26 40.02 12.26L40.02 12.26Q38.86 12.26 38.08 11.93Q37.30 11.59 36.84 10.96Q36.37 10.32 36.18 9.41Q35.98 8.50 35.98 7.32L35.98 7.32L35.98 3.17L32.86 3.17L32.86 0.72L38.94 0.72L38.94 7.70Q38.94 8.71 39.31 9.20Q39.68 9.70 40.54 9.70L40.54 9.70Q40.95 9.70 41.53 9.59Q42.10 9.48 42.82 9.14L42.82 9.14ZM45.06 6.36L45.06 6.36Q45.06 5.14 45.44 4.06Q45.82 2.98 46.62 2.17Q47.41 1.37 48.62 0.90Q49.83 0.43 51.51 0.43L51.51 0.43Q52.52 0.43 53.34 0.58Q54.15 0.72 54.99 1.06L54.99 1.06L54.34 3.43Q53.86 3.26 53.28 3.13Q52.69 3 51.78 3L51.78 3Q50.72 3 50.01 3.25Q49.30 3.50 48.87 3.95Q48.44 4.39 48.25 5.02Q48.06 5.64 48.06 6.36L48.06 6.36Q48.06 7.92 48.93 8.81Q49.81 9.70 51.92 9.70L51.92 9.70Q52.62 9.70 53.37 9.60Q54.13 9.50 54.75 9.29L54.75 9.29L55.18 11.71Q54.56 11.95 53.67 12.11Q52.78 12.26 51.58 12.26L51.58 12.26Q49.86 12.26 48.62 11.81Q47.38 11.35 46.59 10.56Q45.80 9.77 45.43 8.69Q45.06 7.61 45.06 6.36ZM67.02 0.98L66.49 3.72Q66.20 3.65 65.80 3.58Q65.41 3.50 65 3.44Q64.59 3.38 64.21 3.36Q63.82 3.34 63.56 3.34L63.56 3.34Q62.94 3.34 62.34 3.40Q61.74 3.46 61.11 3.62L61.11 3.62L61.11 12L58.14 12L58.14 1.46Q59.31 1.03 60.55 0.77Q61.78 0.50 63.44 0.50L63.44 0.50Q63.68 0.50 64.12 0.53Q64.57 0.55 65.07 0.61Q65.58 0.67 66.09 0.76Q66.61 0.84 67.02 0.98L67.02 0.98ZM79.33 6.34L79.33 6.34Q79.33 7.68 78.94 8.77Q78.56 9.86 77.86 10.66Q77.17 11.45 76.20 11.88Q75.22 12.31 74.02 12.31L74.02 12.31Q72.82 12.31 71.85 11.88Q70.88 11.45 70.17 10.66Q69.46 9.86 69.08 8.77Q68.70 7.68 68.70 6.34L68.70 6.34Q68.70 5.02 69.09 3.92Q69.49 2.83 70.20 2.05Q70.90 1.27 71.89 0.85Q72.87 0.43 74.02 0.43L74.02 0.43Q75.20 0.43 76.17 0.85Q77.14 1.27 77.85 2.05Q78.56 2.83 78.94 3.92Q79.33 5.02 79.33 6.34ZM71.70 6.36L71.70 6.36Q71.70 7.87 72.24 8.81Q72.78 9.74 73.98 9.74L73.98 9.74Q75.13 9.74 75.72 8.81Q76.30 7.87 76.30 6.36L76.30 6.36Q76.30 4.85 75.76 3.92Q75.22 3 74.02 3L74.02 3Q72.87 3 72.28 3.92Q71.70 4.85 71.70 6.36ZM85.47 9.77L85.47 9.77Q86.55 9.77 87.13 9.61Q87.70 9.46 87.70 8.98L87.70 8.98Q87.70 8.66 87.52 8.45Q87.34 8.23 87.02 8.08Q86.70 7.92 86.28 7.78Q85.86 7.63 85.40 7.49L85.40 7.49Q84.75 7.30 84.08 7.04Q83.41 6.79 82.86 6.41Q82.30 6.02 81.94 5.44Q81.58 4.85 81.58 3.96L81.58 3.96Q81.58 3.24 81.86 2.60Q82.14 1.97 82.72 1.48Q83.31 0.98 84.22 0.71Q85.14 0.43 86.41 0.43L86.41 0.43Q87.51 0.43 88.46 0.60Q89.41 0.77 90.10 1.08L90.10 1.08L89.65 3.58Q89.24 3.46 88.38 3.18Q87.51 2.90 86.43 2.90L86.43 2.90Q85.30 2.90 84.91 3.18Q84.51 3.46 84.51 3.77L84.51 3.77Q84.51 4.03 84.69 4.24Q84.87 4.44 85.17 4.61Q85.47 4.78 85.87 4.93Q86.26 5.09 86.72 5.23L86.72 5.23Q87.37 5.45 88.06 5.71Q88.76 5.98 89.32 6.37Q89.89 6.77 90.25 7.38Q90.61 7.99 90.61 8.88L90.61 8.88Q90.61 9.58 90.34 10.20Q90.08 10.82 89.47 11.28Q88.86 11.74 87.87 12Q86.89 12.26 85.45 12.26L85.45 12.26Q83.98 12.26 82.95 11.93Q81.92 11.59 81.30 11.33L81.30 11.33L81.75 8.86Q82.59 9.19 83.54 9.48Q84.49 9.77 85.47 9.77ZM103.33 6.34L103.33 6.34Q103.33 7.68 102.94 8.77Q102.56 9.86 101.86 10.66Q101.17 11.45 100.20 11.88Q99.22 12.31 98.02 12.31L98.02 12.31Q96.82 12.31 95.85 11.88Q94.88 11.45 94.17 10.66Q93.46 9.86 93.08 8.77Q92.70 7.68 92.70 6.34L92.70 6.34Q92.70 5.02 93.09 3.92Q93.49 2.83 94.20 2.05Q94.90 1.27 95.89 0.85Q96.87 0.43 98.02 0.43L98.02 0.43Q99.20 0.43 100.17 0.85Q101.14 1.27 101.85 2.05Q102.56 2.83 102.94 3.92Q103.33 5.02 103.33 6.34ZM95.70 6.36L95.70 6.36Q95.70 7.87 96.24 8.81Q96.78 9.74 97.98 9.74L97.98 9.74Q99.13 9.74 99.72 8.81Q100.30 7.87 100.30 6.36L100.30 6.36Q100.30 4.85 99.76 3.92Q99.22 3 98.02 3L98.02 3Q96.87 3 96.28 3.92Q95.70 4.85 95.70 6.36ZM110.31 12L107.34 12L107.34 3.17L104.86 3.17L104.86 0.72L107.34 0.72L107.34 0.07Q107.34-1.30 107.73-2.20Q108.13-3.10 108.80-3.64Q109.47-4.18 110.34-4.40Q111.20-4.63 112.11-4.63L112.11-4.63Q113.05-4.63 114.03-4.46Q115.02-4.30 115.81-3.91L115.81-3.91L115.30-1.51Q114.75-1.70 113.92-1.91Q113.10-2.11 112.35-2.11L112.35-2.11Q111.94-2.11 111.57-2.04Q111.20-1.97 110.92-1.73Q110.65-1.49 110.48-1.04Q110.31-0.60 110.31 0.12L110.31 0.12L110.31 0.72L114.94 0.72L114.94 3.17L110.31 3.17L110.31 12ZM119.43 7.80L119.43 3.17L116.86 3.17L116.86 0.72L119.43 0.72L119.43-2.11L122.38-2.59L122.38 0.72L127.11 0.72L127.11 3.17L122.38 3.17L122.38 7.73Q122.38 8.35 122.50 8.74Q122.62 9.12 122.84 9.34Q123.06 9.55 123.37 9.62Q123.68 9.70 124.06 9.70L124.06 9.70Q124.47 9.70 124.82 9.67Q125.17 9.65 125.49 9.59Q125.82 9.53 126.16 9.41Q126.51 9.29 126.92 9.10L126.92 9.10L127.33 11.64Q126.51 11.98 125.56 12.12Q124.62 12.26 123.73 12.26L123.73 12.26Q122.70 12.26 121.90 12.10Q121.11 11.93 120.56 11.45Q120.01 10.97 119.72 10.09Q119.43 9.22 119.43 7.80L119.43 7.80ZM147.51 12L144.46 12Q143.89 10.34 143.24 8.26Q142.59 6.17 142.02 4.09Q141.44 2.02 140.98 0.17Q140.53-1.68 140.31-2.86L140.31-2.86L143.43-2.86Q143.58-1.70 143.86-0.18Q144.15 1.34 144.50 2.96Q144.85 4.58 145.24 6.16Q145.64 7.73 146.02 8.98L146.02 8.98Q146.41 7.75 146.79 6.18Q147.18 4.61 147.51 2.99Q147.85 1.37 148.14-0.17Q148.42-1.70 148.62-2.86L148.62-2.86L151.71-2.86Q151.42-1.42 151.00 0.36Q150.58 2.14 150.04 4.09Q149.50 6.05 148.86 8.08Q148.21 10.10 147.51 12L147.51 12ZM158.82-2.52L158.82-2.52Q158.82-1.66 158.26-1.15Q157.71-0.65 156.94-0.65L156.94-0.65Q156.18-0.65 155.64-1.15Q155.10-1.66 155.10-2.52L155.10-2.52Q155.10-3.41 155.64-3.91Q156.18-4.42 156.94-4.42L156.94-4.42Q157.71-4.42 158.26-3.91Q158.82-3.41 158.82-2.52ZM162.82 9.14L163.21 11.52Q162.30 11.95 161.49 12.11Q160.69 12.26 160.02 12.26L160.02 12.26Q158.86 12.26 158.08 11.93Q157.30 11.59 156.84 10.96Q156.37 10.32 156.18 9.41Q155.98 8.50 155.98 7.32L155.98 7.32L155.98 3.17L152.86 3.17L152.86 0.72L158.94 0.72L158.94 7.70Q158.94 8.71 159.31 9.20Q159.68 9.70 160.54 9.70L160.54 9.70Q160.95 9.70 161.53 9.59Q162.10 9.48 162.82 9.14L162.82 9.14ZM169.47 9.77L169.47 9.77Q170.55 9.77 171.13 9.61Q171.70 9.46 171.70 8.98L171.70 8.98Q171.70 8.66 171.52 8.45Q171.34 8.23 171.02 8.08Q170.70 7.92 170.28 7.78Q169.86 7.63 169.40 7.49L169.40 7.49Q168.75 7.30 168.08 7.04Q167.41 6.79 166.86 6.41Q166.30 6.02 165.94 5.44Q165.58 4.85 165.58 3.96L165.58 3.96Q165.58 3.24 165.86 2.60Q166.14 1.97 166.72 1.48Q167.31 0.98 168.22 0.71Q169.14 0.43 170.41 0.43L170.41 0.43Q171.51 0.43 172.46 0.60Q173.41 0.77 174.10 1.08L174.10 1.08L173.65 3.58Q173.24 3.46 172.38 3.18Q171.51 2.90 170.43 2.90L170.43 2.90Q169.30 2.90 168.91 3.18Q168.51 3.46 168.51 3.77L168.51 3.77Q168.51 4.03 168.69 4.24Q168.87 4.44 169.17 4.61Q169.47 4.78 169.87 4.93Q170.26 5.09 170.72 5.23L170.72 5.23Q171.37 5.45 172.06 5.71Q172.76 5.98 173.32 6.37Q173.89 6.77 174.25 7.38Q174.61 7.99 174.61 8.88L174.61 8.88Q174.61 9.58 174.34 10.20Q174.08 10.82 173.47 11.28Q172.86 11.74 171.87 12Q170.89 12.26 169.45 12.26L169.45 12.26Q167.98 12.26 166.95 11.93Q165.92 11.59 165.30 11.33L165.30 11.33L165.75 8.86Q166.59 9.19 167.54 9.48Q168.49 9.77 169.47 9.77ZM186.51 0.72L186.51 11.62Q185.70 11.83 184.53 12.05Q183.37 12.26 182 12.26L182 12.26Q180.61 12.26 179.72 11.88Q178.83 11.50 178.32 10.79Q177.80 10.08 177.61 9.12Q177.42 8.16 177.42 7.01L177.42 7.01L177.42 0.72L180.37 0.72L180.37 6.62Q180.37 8.18 180.74 8.94Q181.11 9.70 182.19 9.70L182.19 9.70Q182.86 9.70 183.54 9.58L183.54 9.58L183.54 0.72L186.51 0.72ZM194.02 9.89L194.02 9.89Q194.50 9.89 194.96 9.88Q195.42 9.86 195.75 9.82L195.75 9.82L195.75 7.22Q195.46 7.18 195.06 7.14Q194.65 7.10 194.31 7.10L194.31 7.10Q193.86 7.10 193.42 7.16Q192.99 7.22 192.67 7.37Q192.34 7.51 192.15 7.78Q191.96 8.04 191.96 8.47L191.96 8.47Q191.96 9.24 192.54 9.56Q193.11 9.89 194.02 9.89ZM193.76 0.43L193.76 0.43Q195.15 0.43 196.08 0.76Q197 1.08 197.55 1.67Q198.10 2.26 198.34 3.11Q198.58 3.96 198.58 5.02L198.58 5.02L198.58 11.74Q197.94 11.88 196.66 12.07Q195.39 12.26 193.81 12.26L193.81 12.26Q192.73 12.26 191.85 12.07Q190.98 11.88 190.35 11.44Q189.73 10.99 189.39 10.28Q189.06 9.58 189.06 8.54L189.06 8.54Q189.06 7.56 189.44 6.89Q189.82 6.22 190.47 5.81Q191.12 5.40 191.96 5.22Q192.80 5.04 193.71 5.04L193.71 5.04Q194.86 5.04 195.75 5.23L195.75 5.23L195.75 4.87Q195.75 4.03 195.22 3.47Q194.70 2.90 193.40 2.90L193.40 2.90Q192.56 2.90 191.78 3.02Q191 3.14 190.52 3.31L190.52 3.31L190.11 0.94Q190.66 0.74 191.67 0.59Q192.68 0.43 193.76 0.43ZM210.82 9.14L211.21 11.52Q211.14 11.57 210.88 11.69Q210.63 11.81 210.22 11.94Q209.82 12.07 209.23 12.17Q208.64 12.26 207.90 12.26L207.90 12.26Q205.86 12.26 204.92 11.05Q203.98 9.84 203.98 7.51L203.98 7.51L203.98-2.06L200.86-2.06L200.86-4.51L206.94-4.51L206.94 7.73Q206.94 8.88 207.39 9.29Q207.85 9.70 208.54 9.70L208.54 9.70Q209.43 9.70 210.03 9.46Q210.63 9.22 210.82 9.14L210.82 9.14ZM229.57 9.84L229.57 9.84Q230.31 9.84 230.80 9.68Q231.30 9.53 231.58 9.25Q231.87 8.98 231.98 8.63Q232.09 8.28 232.09 7.92L232.09 7.92Q232.09 7.46 231.82 7.10Q231.56 6.74 231.15 6.47Q230.74 6.19 230.24 5.96Q229.74 5.74 229.23 5.54L229.23 5.54Q228.56 5.30 227.84 4.99Q227.12 4.68 226.53 4.20Q225.94 3.72 225.56 3.01Q225.18 2.30 225.18 1.25L225.18 1.25Q225.18-0.84 226.53-2.02Q227.89-3.19 230.26-3.19L230.26-3.19Q231.63-3.19 232.65-2.88Q233.67-2.57 234.37-2.18L234.37-2.18L233.50 0.10Q232.90-0.24 232.17-0.48Q231.44-0.72 230.48-0.72L230.48-0.72Q228.13-0.72 228.13 0.98L228.13 0.98Q228.13 1.42 228.37 1.74Q228.61 2.06 228.98 2.32Q229.35 2.57 229.82 2.76Q230.29 2.95 230.74 3.12L230.74 3.12Q231.44 3.38 232.20 3.71Q232.95 4.03 233.59 4.57Q234.22 5.11 234.63 5.92Q235.04 6.72 235.04 7.94L235.04 7.94Q235.04 10.03 233.68 11.17Q232.33 12.31 229.57 12.31L229.57 12.31Q227.72 12.31 226.62 11.92Q225.51 11.52 224.96 11.18L224.96 11.18L225.82 8.78Q226.47 9.17 227.37 9.50Q228.27 9.84 229.57 9.84ZM239.43 7.80L239.43 3.17L236.86 3.17L236.86 0.72L239.43 0.72L239.43-2.11L242.38-2.59L242.38 0.72L247.11 0.72L247.11 3.17L242.38 3.17L242.38 7.73Q242.38 8.35 242.50 8.74Q242.62 9.12 242.84 9.34Q243.06 9.55 243.37 9.62Q243.68 9.70 244.06 9.70L244.06 9.70Q244.47 9.70 244.82 9.67Q245.17 9.65 245.49 9.59Q245.82 9.53 246.16 9.41Q246.51 9.29 246.92 9.10L246.92 9.10L247.33 11.64Q246.51 11.98 245.56 12.12Q244.62 12.26 243.73 12.26L243.73 12.26Q242.70 12.26 241.90 12.10Q241.11 11.93 240.56 11.45Q240.01 10.97 239.72 10.09Q239.43 9.22 239.43 7.80L239.43 7.80ZM258.51 0.72L258.51 11.62Q257.70 11.83 256.53 12.05Q255.37 12.26 254 12.26L254 12.26Q252.61 12.26 251.72 11.88Q250.83 11.50 250.32 10.79Q249.80 10.08 249.61 9.12Q249.42 8.16 249.42 7.01L249.42 7.01L249.42 0.72L252.37 0.72L252.37 6.62Q252.37 8.18 252.74 8.94Q253.11 9.70 254.19 9.70L254.19 9.70Q254.86 9.70 255.54 9.58L255.54 9.58L255.54 0.72L258.51 0.72ZM263.67 6.29L263.67 6.29Q263.67 7.80 264.24 8.76Q264.80 9.72 266.05 9.72L266.05 9.72Q266.41 9.72 266.72 9.70Q267.03 9.67 267.37 9.62L267.37 9.62L267.37 3.48Q267.03 3.29 266.60 3.16Q266.17 3.02 265.69 3.02L265.69 3.02Q264.63 3.02 264.15 3.86Q263.67 4.70 263.67 6.29ZM270.32-4.66L270.32 11.66Q269.50 11.93 268.33 12.10Q267.15 12.26 266.02 12.26L266.02 12.26Q263.38 12.26 262.03 10.70Q260.67 9.14 260.67 6.43L260.67 6.43Q260.67 3.67 261.81 2.08Q262.95 0.48 265.18 0.48L265.18 0.48Q265.78 0.48 266.36 0.61Q266.94 0.74 267.37 0.98L267.37 0.98L267.37-4.15L270.32-4.66ZM278.82-2.52L278.82-2.52Q278.82-1.66 278.26-1.15Q277.71-0.65 276.94-0.65L276.94-0.65Q276.18-0.65 275.64-1.15Q275.10-1.66 275.10-2.52L275.10-2.52Q275.10-3.41 275.64-3.91Q276.18-4.42 276.94-4.42L276.94-4.42Q277.71-4.42 278.26-3.91Q278.82-3.41 278.82-2.52ZM282.82 9.14L283.21 11.52Q282.30 11.95 281.49 12.11Q280.69 12.26 280.02 12.26L280.02 12.26Q278.86 12.26 278.08 11.93Q277.30 11.59 276.84 10.96Q276.37 10.32 276.18 9.41Q275.98 8.50 275.98 7.32L275.98 7.32L275.98 3.17L272.86 3.17L272.86 0.72L278.94 0.72L278.94 7.70Q278.94 8.71 279.31 9.20Q279.68 9.70 280.54 9.70L280.54 9.70Q280.95 9.70 281.53 9.59Q282.10 9.48 282.82 9.14L282.82 9.14ZM295.33 6.34L295.33 6.34Q295.33 7.68 294.94 8.77Q294.56 9.86 293.86 10.66Q293.17 11.45 292.20 11.88Q291.22 12.31 290.02 12.31L290.02 12.31Q288.82 12.31 287.85 11.88Q286.88 11.45 286.17 10.66Q285.46 9.86 285.08 8.77Q284.70 7.68 284.70 6.34L284.70 6.34Q284.70 5.02 285.09 3.92Q285.49 2.83 286.20 2.05Q286.90 1.27 287.89 0.85Q288.87 0.43 290.02 0.43L290.02 0.43Q291.20 0.43 292.17 0.85Q293.14 1.27 293.85 2.05Q294.56 2.83 294.94 3.92Q295.33 5.02 295.33 6.34ZM287.70 6.36L287.70 6.36Q287.70 7.87 288.24 8.81Q288.78 9.74 289.98 9.74L289.98 9.74Q291.13 9.74 291.72 8.81Q292.30 7.87 292.30 6.36L292.30 6.36Q292.30 4.85 291.76 3.92Q291.22 3 290.02 3L290.02 3Q288.87 3 288.28 3.92Q287.70 4.85 287.70 6.36ZM313.57 9.84L313.57 9.84Q314.31 9.84 314.80 9.68Q315.30 9.53 315.58 9.25Q315.87 8.98 315.98 8.63Q316.09 8.28 316.09 7.92L316.09 7.92Q316.09 7.46 315.82 7.10Q315.56 6.74 315.15 6.47Q314.74 6.19 314.24 5.96Q313.74 5.74 313.23 5.54L313.23 5.54Q312.56 5.30 311.84 4.99Q311.12 4.68 310.53 4.20Q309.94 3.72 309.56 3.01Q309.18 2.30 309.18 1.25L309.18 1.25Q309.18-0.84 310.53-2.02Q311.89-3.19 314.26-3.19L314.26-3.19Q315.63-3.19 316.65-2.88Q317.67-2.57 318.37-2.18L318.37-2.18L317.50 0.10Q316.90-0.24 316.17-0.48Q315.44-0.72 314.48-0.72L314.48-0.72Q312.13-0.72 312.13 0.98L312.13 0.98Q312.13 1.42 312.37 1.74Q312.61 2.06 312.98 2.32Q313.35 2.57 313.82 2.76Q314.29 2.95 314.74 3.12L314.74 3.12Q315.44 3.38 316.20 3.71Q316.95 4.03 317.59 4.57Q318.22 5.11 318.63 5.92Q319.04 6.72 319.04 7.94L319.04 7.94Q319.04 10.03 317.68 11.17Q316.33 12.31 313.57 12.31L313.57 12.31Q311.72 12.31 310.62 11.92Q309.51 11.52 308.96 11.18L308.96 11.18L309.82 8.78Q310.47 9.17 311.37 9.50Q312.27 9.84 313.57 9.84ZM331.33 6.34L331.33 6.34Q331.33 7.68 330.94 8.77Q330.56 9.86 329.86 10.66Q329.17 11.45 328.20 11.88Q327.22 12.31 326.02 12.31L326.02 12.31Q324.82 12.31 323.85 11.88Q322.88 11.45 322.17 10.66Q321.46 9.86 321.08 8.77Q320.70 7.68 320.70 6.34L320.70 6.34Q320.70 5.02 321.09 3.92Q321.49 2.83 322.20 2.05Q322.90 1.27 323.89 0.85Q324.87 0.43 326.02 0.43L326.02 0.43Q327.20 0.43 328.17 0.85Q329.14 1.27 329.85 2.05Q330.56 2.83 330.94 3.92Q331.33 5.02 331.33 6.34ZM323.70 6.36L323.70 6.36Q323.70 7.87 324.24 8.81Q324.78 9.74 325.98 9.74L325.98 9.74Q327.13 9.74 327.72 8.81Q328.30 7.87 328.30 6.36L328.30 6.36Q328.30 4.85 327.76 3.92Q327.22 3 326.02 3L326.02 3Q324.87 3 324.28 3.92Q323.70 4.85 323.70 6.36ZM342.82 9.14L343.21 11.52Q343.14 11.57 342.88 11.69Q342.63 11.81 342.22 11.94Q341.82 12.07 341.23 12.17Q340.64 12.26 339.90 12.26L339.90 12.26Q337.86 12.26 336.92 11.05Q335.98 9.84 335.98 7.51L335.98 7.51L335.98-2.06L332.86-2.06L332.86-4.51L338.94-4.51L338.94 7.73Q338.94 8.88 339.39 9.29Q339.85 9.70 340.54 9.70L340.54 9.70Q341.43 9.70 342.03 9.46Q342.63 9.22 342.82 9.14L342.82 9.14ZM354.51 0.72L354.51 11.62Q353.70 11.83 352.53 12.05Q351.37 12.26 350 12.26L350 12.26Q348.61 12.26 347.72 11.88Q346.83 11.50 346.32 10.79Q345.80 10.08 345.61 9.12Q345.42 8.16 345.42 7.01L345.42 7.01L345.42 0.72L348.37 0.72L348.37 6.62Q348.37 8.18 348.74 8.94Q349.11 9.70 350.19 9.70L350.19 9.70Q350.86 9.70 351.54 9.58L351.54 9.58L351.54 0.72L354.51 0.72ZM359.43 7.80L359.43 3.17L356.86 3.17L356.86 0.72L359.43 0.72L359.43-2.11L362.38-2.59L362.38 0.72L367.11 0.72L367.11 3.17L362.38 3.17L362.38 7.73Q362.38 8.35 362.50 8.74Q362.62 9.12 362.84 9.34Q363.06 9.55 363.37 9.62Q363.68 9.70 364.06 9.70L364.06 9.70Q364.47 9.70 364.82 9.67Q365.17 9.65 365.49 9.59Q365.82 9.53 366.16 9.41Q366.51 9.29 366.92 9.10L366.92 9.10L367.33 11.64Q366.51 11.98 365.56 12.12Q364.62 12.26 363.73 12.26L363.73 12.26Q362.70 12.26 361.90 12.10Q361.11 11.93 360.56 11.45Q360.01 10.97 359.72 10.09Q359.43 9.22 359.43 7.80L359.43 7.80ZM374.82-2.52L374.82-2.52Q374.82-1.66 374.26-1.15Q373.71-0.65 372.94-0.65L372.94-0.65Q372.18-0.65 371.64-1.15Q371.10-1.66 371.10-2.52L371.10-2.52Q371.10-3.41 371.64-3.91Q372.18-4.42 372.94-4.42L372.94-4.42Q373.71-4.42 374.26-3.91Q374.82-3.41 374.82-2.52ZM378.82 9.14L379.21 11.52Q378.30 11.95 377.49 12.11Q376.69 12.26 376.02 12.26L376.02 12.26Q374.86 12.26 374.08 11.93Q373.30 11.59 372.84 10.96Q372.37 10.32 372.18 9.41Q371.98 8.50 371.98 7.32L371.98 7.32L371.98 3.17L368.86 3.17L368.86 0.72L374.94 0.72L374.94 7.70Q374.94 8.71 375.31 9.20Q375.68 9.70 376.54 9.70L376.54 9.70Q376.95 9.70 377.53 9.59Q378.10 9.48 378.82 9.14L378.82 9.14ZM391.33 6.34L391.33 6.34Q391.33 7.68 390.94 8.77Q390.56 9.86 389.86 10.66Q389.17 11.45 388.20 11.88Q387.22 12.31 386.02 12.31L386.02 12.31Q384.82 12.31 383.85 11.88Q382.88 11.45 382.17 10.66Q381.46 9.86 381.08 8.77Q380.70 7.68 380.70 6.34L380.70 6.34Q380.70 5.02 381.09 3.92Q381.49 2.83 382.20 2.05Q382.90 1.27 383.89 0.85Q384.87 0.43 386.02 0.43L386.02 0.43Q387.20 0.43 388.17 0.85Q389.14 1.27 389.85 2.05Q390.56 2.83 390.94 3.92Q391.33 5.02 391.33 6.34ZM383.70 6.36L383.70 6.36Q383.70 7.87 384.24 8.81Q384.78 9.74 385.98 9.74L385.98 9.74Q387.13 9.74 387.72 8.81Q388.30 7.87 388.30 6.36L388.30 6.36Q388.30 4.85 387.76 3.92Q387.22 3 386.02 3L386.02 3Q384.87 3 384.28 3.92Q383.70 4.85 383.70 6.36ZM393.51 12L393.51 1.08Q394.30 0.86 395.47 0.67Q396.63 0.48 398 0.48L398 0.48Q399.34 0.48 400.23 0.85Q401.12 1.22 401.64 1.91Q402.15 2.59 402.37 3.54Q402.58 4.49 402.58 5.64L402.58 5.64L402.58 12L399.63 12L399.63 6.02Q399.63 4.44 399.27 3.74Q398.91 3.05 397.81 3.05L397.81 3.05Q397.47 3.05 397.15 3.07Q396.82 3.10 396.46 3.14L396.46 3.14L396.46 12L393.51 12Z"/>
    </g>
</svg>