<?xml version="1.0" encoding="UTF-8"?><svg height="34" width="271.9" version="1.1" xmlns="http://www.w3.org/2000/svg"><!--Created by Josélio de S. C. Júnior - 2021 - https://github.com/joseliojunior --><defs><pattern id="pattern" x="3" y="3" width="6" height="6" patternUnits="userSpaceOnUse" patternTransform="rotate(45)"><rect height="6" width="6" fill="#ffffff"/><line x1="0" y1="0" x2="0" y2="6" stroke="#bbbbbb" stroke-width="2" /></pattern></defs><rect height="32" width="269.9" rx="1" ry="1" x="1" y="1" fill="url(#pattern)" /><g transform="translate(0, 12)"><path fill="#000000" d="M31.04 9.55L31.04 12L21.70 12L21.70-2.86L24.68-2.86L24.68 9.55L31.04 9.55ZM38.82-2.52L38.82-2.52Q38.82-1.66 38.26-1.15Q37.71-0.65 36.94-0.65L36.94-0.65Q36.18-0.65 35.64-1.15Q35.10-1.66 35.10-2.52L35.10-2.52Q35.10-3.41 35.64-3.91Q36.18-4.42 36.94-4.42L36.94-4.42Q37.71-4.42 38.26-3.91Q38.82-3.41 38.82-2.52ZM42.82 9.14L43.21 11.52Q42.30 11.95 41.49 12.11Q40.69 12.26 40.02 12.26L40.02 12.26Q38.86 12.26 38.08 11.93Q37.30 11.59 36.84 10.96Q36.37 10.32 36.18 9.41Q35.98 8.50 35.98 7.32L35.98 7.32L35.98 3.17L32.86 3.17L32.86 0.72L38.94 0.72L38.94 7.70Q38.94 8.71 39.31 9.20Q39.68 9.70 40.54 9.70L40.54 9.70Q40.95 9.70 41.53 9.59Q42.10 9.48 42.82 9.14L42.82 9.14ZM45.51 12L45.51 1.08Q46.30 0.86 47.47 0.67Q48.63 0.48 50 0.48L50 0.48Q51.34 0.48 52.23 0.85Q53.12 1.22 53.64 1.91Q54.15 2.59 54.37 3.54Q54.58 4.49 54.58 5.64L54.58 5.64L54.58 12L51.63 12L51.63 6.02Q51.63 4.44 51.27 3.74Q50.91 3.05 49.81 3.05L49.81 3.05Q49.47 3.05 49.15 3.07Q48.82 3.10 48.46 3.14L48.46 3.14L48.46 12L45.51 12ZM66.51 0.72L66.51 11.62Q65.70 11.83 64.53 12.05Q63.37 12.26 62 12.26L62 12.26Q60.61 12.26 59.72 11.88Q58.83 11.50 58.32 10.79Q57.80 10.08 57.61 9.12Q57.42 8.16 57.42 7.01L57.42 7.01L57.42 0.72L60.37 0.72L60.37 6.62Q60.37 8.18 60.74 8.94Q61.11 9.70 62.19 9.70L62.19 9.70Q62.86 9.70 63.54 9.58L63.54 9.58L63.54 0.72L66.51 0.72ZM71.60 0.72L74.10 4.25L76.40 0.72L79.40 0.72L75.75 6.14Q76.33 6.84 76.88 7.62Q77.43 8.40 77.94 9.19Q78.44 9.98 78.85 10.70Q79.26 11.42 79.54 12L79.54 12L76.47 12Q75.82 10.78 75.18 9.82Q74.53 8.86 73.95 8.09L73.95 8.09Q73.23 9.05 72.66 9.96Q72.08 10.87 71.48 12L71.48 12L68.48 12Q68.84 11.33 69.31 10.60Q69.78 9.86 70.29 9.11Q70.81 8.35 71.37 7.61Q71.94 6.86 72.46 6.19L72.46 6.19L68.50 0.72L71.60 0.72ZM103.74 12L100.40 12Q100.14 11.16 99.64 10.19Q99.15 9.22 98.55 8.29Q97.95 7.37 97.29 6.56Q96.63 5.76 96.03 5.21L96.03 5.21L96.03 12L93.08 12L93.08-2.86L96.03-2.86L96.03 3.31Q96.56 2.64 97.14 1.82Q97.71 1.01 98.23 0.19Q98.74-0.62 99.18-1.42Q99.61-2.21 99.90-2.86L99.90-2.86L103.23-2.86Q102.90-2.21 102.43-1.38Q101.96-0.55 101.36 0.35Q100.76 1.25 100.08 2.18Q99.39 3.12 98.65 3.98L98.65 3.98Q99.39 4.70 100.16 5.64Q100.93 6.58 101.61 7.64Q102.30 8.71 102.85 9.83Q103.40 10.94 103.74 12L103.74 12ZM104.74 6.46L104.74 6.46Q104.74 4.97 105.20 3.84Q105.66 2.71 106.40 1.96Q107.14 1.20 108.10 0.82Q109.06 0.43 110.07 0.43L110.07 0.43Q112.57 0.43 113.86 1.91Q115.16 3.38 115.16 6.22L115.16 6.22Q115.16 6.50 115.15 6.82Q115.14 7.13 115.11 7.32L115.11 7.32L107.79 7.32Q107.79 8.42 108.70 9.06Q109.62 9.70 111.06 9.70L111.06 9.70Q111.94 9.70 112.75 9.50Q113.55 9.31 114.10 9.12L114.10 9.12L114.51 11.64Q113.74 11.90 112.88 12.08Q112.02 12.26 110.94 12.26L110.94 12.26Q109.50 12.26 108.36 11.89Q107.22 11.52 106.41 10.79Q105.61 10.06 105.18 8.98Q104.74 7.90 104.74 6.46ZM107.79 5.28L112.30 5.28Q112.30 4.82 112.18 4.40Q112.06 3.98 111.80 3.65Q111.54 3.31 111.13 3.11Q110.72 2.90 110.12 2.90L110.12 2.90Q109.54 2.90 109.12 3.10Q108.70 3.29 108.43 3.62Q108.15 3.96 108.00 4.39Q107.84 4.82 107.79 5.28L107.79 5.28ZM127.02 0.98L126.49 3.72Q126.20 3.65 125.80 3.58Q125.41 3.50 125 3.44Q124.59 3.38 124.21 3.36Q123.82 3.34 123.56 3.34L123.56 3.34Q122.94 3.34 122.34 3.40Q121.74 3.46 121.11 3.62L121.11 3.62L121.11 12L118.14 12L118.14 1.46Q119.31 1.03 120.55 0.77Q121.78 0.50 123.44 0.50L123.44 0.50Q123.68 0.50 124.12 0.53Q124.57 0.55 125.07 0.61Q125.58 0.67 126.09 0.76Q126.61 0.84 127.02 0.98L127.02 0.98ZM129.51 12L129.51 1.08Q130.30 0.86 131.47 0.67Q132.63 0.48 134 0.48L134 0.48Q135.34 0.48 136.23 0.85Q137.12 1.22 137.64 1.91Q138.15 2.59 138.37 3.54Q138.58 4.49 138.58 5.64L138.58 5.64L138.58 12L135.63 12L135.63 6.02Q135.63 4.44 135.27 3.74Q134.91 3.05 133.81 3.05L133.81 3.05Q133.47 3.05 133.15 3.07Q132.82 3.10 132.46 3.14L132.46 3.14L132.46 12L129.51 12ZM140.74 6.46L140.74 6.46Q140.74 4.97 141.20 3.84Q141.66 2.71 142.40 1.96Q143.14 1.20 144.10 0.82Q145.06 0.43 146.07 0.43L146.07 0.43Q148.57 0.43 149.86 1.91Q151.16 3.38 151.16 6.22L151.16 6.22Q151.16 6.50 151.15 6.82Q151.14 7.13 151.11 7.32L151.11 7.32L143.79 7.32Q143.79 8.42 144.70 9.06Q145.62 9.70 147.06 9.70L147.06 9.70Q147.94 9.70 148.75 9.50Q149.55 9.31 150.10 9.12L150.10 9.12L150.51 11.64Q149.74 11.90 148.88 12.08Q148.02 12.26 146.94 12.26L146.94 12.26Q145.50 12.26 144.36 11.89Q143.22 11.52 142.41 10.79Q141.61 10.06 141.18 8.98Q140.74 7.90 140.74 6.46ZM143.79 5.28L148.30 5.28Q148.30 4.82 148.18 4.40Q148.06 3.98 147.80 3.65Q147.54 3.31 147.13 3.11Q146.72 2.90 146.12 2.90L146.12 2.90Q145.54 2.90 145.12 3.10Q144.70 3.29 144.43 3.62Q144.15 3.96 144.00 4.39Q143.84 4.82 143.79 5.28L143.79 5.28ZM162.82 9.14L163.21 11.52Q163.14 11.57 162.88 11.69Q162.63 11.81 162.22 11.94Q161.82 12.07 161.23 12.17Q160.64 12.26 159.90 12.26L159.90 12.26Q157.86 12.26 156.92 11.05Q155.98 9.84 155.98 7.51L155.98 7.51L155.98-2.06L152.86-2.06L152.86-4.51L158.94-4.51L158.94 7.73Q158.94 8.88 159.39 9.29Q159.85 9.70 160.54 9.70L160.54 9.70Q161.43 9.70 162.03 9.46Q162.63 9.22 162.82 9.14L162.82 9.14ZM177.42-2.86L179.86-2.86Q180.03-2.35 180.28-1.56Q180.54-0.77 180.82 0.14Q181.11 1.06 181.40 1.99Q181.69 2.93 181.95 3.72L181.95 3.72Q182.24 2.83 182.55 1.88Q182.86 0.94 183.15 0.06Q183.44-0.82 183.68-1.58Q183.92-2.35 184.11-2.86L184.11-2.86L186.56-2.86Q186.73-0.91 186.88 0.94Q187.04 2.78 187.15 4.60Q187.26 6.41 187.33 8.24Q187.40 10.08 187.45 12L187.45 12L184.74 12L184.88 0.46L183.06 6.74L180.90 6.74L179.14 0.46L179.26 12L176.55 12Q176.62 10.18 176.71 8.21Q176.79 6.24 176.89 4.30Q176.98 2.35 177.12 0.53Q177.25-1.30 177.42-2.86L177.42-2.86ZM199.33 6.34L199.33 6.34Q199.33 7.68 198.94 8.77Q198.56 9.86 197.86 10.66Q197.17 11.45 196.20 11.88Q195.22 12.31 194.02 12.31L194.02 12.31Q192.82 12.31 191.85 11.88Q190.88 11.45 190.17 10.66Q189.46 9.86 189.08 8.77Q188.70 7.68 188.70 6.34L188.70 6.34Q188.70 5.02 189.09 3.92Q189.49 2.83 190.20 2.05Q190.90 1.27 191.89 0.85Q192.87 0.43 194.02 0.43L194.02 0.43Q195.20 0.43 196.17 0.85Q197.14 1.27 197.85 2.05Q198.56 2.83 198.94 3.92Q199.33 5.02 199.33 6.34ZM191.70 6.36L191.70 6.36Q191.70 7.87 192.24 8.81Q192.78 9.74 193.98 9.74L193.98 9.74Q195.13 9.74 195.72 8.81Q196.30 7.87 196.30 6.36L196.30 6.36Q196.30 4.85 195.76 3.92Q195.22 3 194.02 3L194.02 3Q192.87 3 192.28 3.92Q191.70 4.85 191.70 6.36ZM203.67 6.29L203.67 6.29Q203.67 7.80 204.24 8.76Q204.80 9.72 206.05 9.72L206.05 9.72Q206.41 9.72 206.72 9.70Q207.03 9.67 207.37 9.62L207.37 9.62L207.37 3.48Q207.03 3.29 206.60 3.16Q206.17 3.02 205.69 3.02L205.69 3.02Q204.63 3.02 204.15 3.86Q203.67 4.70 203.67 6.29ZM210.32-4.66L210.32 11.66Q209.50 11.93 208.33 12.10Q207.15 12.26 206.02 12.26L206.02 12.26Q203.38 12.26 202.03 10.70Q200.67 9.14 200.67 6.43L200.67 6.43Q200.67 3.67 201.81 2.08Q202.95 0.48 205.18 0.48L205.18 0.48Q205.78 0.48 206.36 0.61Q206.94 0.74 207.37 0.98L207.37 0.98L207.37-4.15L210.32-4.66ZM222.51 0.72L222.51 11.62Q221.70 11.83 220.53 12.05Q219.37 12.26 218 12.26L218 12.26Q216.61 12.26 215.72 11.88Q214.83 11.50 214.32 10.79Q213.80 10.08 213.61 9.12Q213.42 8.16 213.42 7.01L213.42 7.01L213.42 0.72L216.37 0.72L216.37 6.62Q216.37 8.18 216.74 8.94Q217.11 9.70 218.19 9.70L218.19 9.70Q218.86 9.70 219.54 9.58L219.54 9.58L219.54 0.72L222.51 0.72ZM234.82 9.14L235.21 11.52Q235.14 11.57 234.88 11.69Q234.63 11.81 234.22 11.94Q233.82 12.07 233.23 12.17Q232.64 12.26 231.90 12.26L231.90 12.26Q229.86 12.26 228.92 11.05Q227.98 9.84 227.98 7.51L227.98 7.51L227.98-2.06L224.86-2.06L224.86-4.51L230.94-4.51L230.94 7.73Q230.94 8.88 231.39 9.29Q231.85 9.70 232.54 9.70L232.54 9.70Q233.43 9.70 234.03 9.46Q234.63 9.22 234.82 9.14L234.82 9.14ZM236.74 6.46L236.74 6.46Q236.74 4.97 237.20 3.84Q237.66 2.71 238.40 1.96Q239.14 1.20 240.10 0.82Q241.06 0.43 242.07 0.43L242.07 0.43Q244.57 0.43 245.86 1.91Q247.16 3.38 247.16 6.22L247.16 6.22Q247.16 6.50 247.15 6.82Q247.14 7.13 247.11 7.32L247.11 7.32L239.79 7.32Q239.79 8.42 240.70 9.06Q241.62 9.70 243.06 9.70L243.06 9.70Q243.94 9.70 244.75 9.50Q245.55 9.31 246.10 9.12L246.10 9.12L246.51 11.64Q245.74 11.90 244.88 12.08Q244.02 12.26 242.94 12.26L242.94 12.26Q241.50 12.26 240.36 11.89Q239.22 11.52 238.41 10.79Q237.61 10.06 237.18 8.98Q236.74 7.90 236.74 6.46ZM239.79 5.28L244.30 5.28Q244.30 4.82 244.18 4.40Q244.06 3.98 243.80 3.65Q243.54 3.31 243.13 3.11Q242.72 2.90 242.12 2.90L242.12 2.90Q241.54 2.90 241.12 3.10Q240.70 3.29 240.43 3.62Q240.15 3.96 240.00 4.39Q239.84 4.82 239.79 5.28L239.79 5.28Z"/></g></svg>