<?xml version="1.0" encoding="UTF-8"?>
<svg height="26" width="195.9" version="1.1" xmlns="http://www.w3.org/2000/svg"><!--Created by Josélio de S. C. Júnior - 2021 - https://github.com/joseliojunior -->
    <defs>
        <pattern id="pattern"
                x="3" y="3" width="6" height="6"
                patternUnits="userSpaceOnUse"
                patternTransform="rotate(45)" >
            <rect height="6" width="6"
                fill="#ffffff"/>
            <line x1="0" y1="0" x2="0" y2="6"
                stroke="#888888"
                stroke-width="2" />
        </pattern>
    </defs>
    <rect
        height="24"
        width="193.9"
        rx="1"
        ry="1"
        x="1" y="1"
        fill="url(#pattern)"
        stroke="#000000"
        stroke-width="1" />
    <g transform="translate(0, 8)">
        <path fill="#ffffff" stroke="#000000" d="M27.36 8.37L27.36 10L21.14 10L21.14 0.10L23.12 0.10L23.12 8.37L27.36 8.37ZM32.54 0.32L32.54 0.32Q32.54 0.90 32.18 1.23Q31.81 1.57 31.30 1.57L31.30 1.57Q30.78 1.57 30.42 1.23Q30.06 0.90 30.06 0.32L30.06 0.32Q30.06-0.27 30.42-0.61Q30.78-0.94 31.30-0.94L31.30-0.94Q31.81-0.94 32.18-0.61Q32.54-0.27 32.54 0.32ZM35.22 8.10L35.47 9.68Q34.86 9.97 34.33 10.07Q33.79 10.18 33.34 10.18L33.34 10.18Q32.58 10.18 32.06 9.95Q31.54 9.73 31.22 9.30Q30.91 8.88 30.78 8.27Q30.66 7.66 30.66 6.88L30.66 6.88L30.66 4.11L28.58 4.11L28.58 2.48L32.62 2.48L32.62 7.14Q32.62 7.81 32.87 8.14Q33.12 8.46 33.70 8.46L33.70 8.46Q33.97 8.46 34.35 8.39Q34.74 8.32 35.22 8.10L35.22 8.10ZM37.01 10L37.01 2.72Q37.54 2.58 38.31 2.45Q39.09 2.32 40 2.32L40 2.32Q40.90 2.32 41.49 2.57Q42.08 2.82 42.42 3.27Q42.77 3.73 42.91 4.36Q43.06 4.99 43.06 5.76L43.06 5.76L43.06 10L41.09 10L41.09 6.02Q41.09 4.96 40.85 4.50Q40.61 4.03 39.87 4.03L39.87 4.03Q39.65 4.03 39.43 4.05Q39.22 4.06 38.98 4.10L38.98 4.10L38.98 10L37.01 10ZM51.01 2.48L51.01 9.74Q50.46 9.89 49.69 10.03Q48.91 10.18 48 10.18L48 10.18Q47.07 10.18 46.48 9.92Q45.89 9.66 45.54 9.19Q45.20 8.72 45.07 8.08Q44.94 7.44 44.94 6.67L44.94 6.67L44.94 2.48L46.91 2.48L46.91 6.42Q46.91 7.46 47.16 7.96Q47.41 8.46 48.13 8.46L48.13 8.46Q48.58 8.46 49.02 8.38L49.02 8.38L49.02 2.48L51.01 2.48ZM54.40 2.48L56.06 4.83L57.60 2.48L59.60 2.48L57.17 6.10Q57.55 6.56 57.92 7.08Q58.29 7.60 58.62 8.13Q58.96 8.66 59.23 9.14Q59.50 9.62 59.70 10L59.70 10L57.65 10Q57.22 9.18 56.78 8.54Q56.35 7.90 55.97 7.39L55.97 7.39Q55.49 8.03 55.10 8.64Q54.72 9.25 54.32 10L54.32 10L52.32 10Q52.56 9.55 52.87 9.06Q53.18 8.58 53.53 8.07Q53.87 7.57 54.25 7.07Q54.62 6.58 54.98 6.13L54.98 6.13L52.34 2.48L54.40 2.48ZM75.82 10L73.60 10Q73.42 9.44 73.10 8.79Q72.77 8.14 72.37 7.53Q71.97 6.91 71.53 6.38Q71.09 5.84 70.69 5.47L70.69 5.47L70.69 10L68.72 10L68.72 0.10L70.69 0.10L70.69 4.21Q71.04 3.76 71.42 3.22Q71.81 2.67 72.15 2.13Q72.50 1.58 72.78 1.06Q73.07 0.53 73.26 0.10L73.26 0.10L75.49 0.10Q75.26 0.53 74.95 1.08Q74.64 1.63 74.24 2.23Q73.84 2.83 73.38 3.46Q72.93 4.08 72.43 4.66L72.43 4.66Q72.93 5.14 73.44 5.76Q73.95 6.38 74.41 7.10Q74.86 7.81 75.23 8.55Q75.60 9.30 75.82 10L75.82 10ZM76.50 6.30L76.50 6.30Q76.50 5.31 76.80 4.56Q77.10 3.81 77.60 3.30Q78.10 2.80 78.74 2.54Q79.38 2.29 80.05 2.29L80.05 2.29Q81.71 2.29 82.58 3.27Q83.44 4.26 83.44 6.14L83.44 6.14Q83.44 6.34 83.43 6.54Q83.42 6.75 83.41 6.88L83.41 6.88L78.53 6.88Q78.53 7.62 79.14 8.04Q79.74 8.46 80.70 8.46L80.70 8.46Q81.30 8.46 81.83 8.34Q82.37 8.21 82.74 8.08L82.74 8.08L83.01 9.76Q82.50 9.94 81.92 10.06Q81.34 10.18 80.62 10.18L80.62 10.18Q79.66 10.18 78.90 9.93Q78.14 9.68 77.61 9.19Q77.07 8.70 76.78 7.98Q76.50 7.26 76.50 6.30ZM78.53 5.52L81.54 5.52Q81.54 5.22 81.46 4.94Q81.38 4.66 81.20 4.43Q81.02 4.21 80.75 4.07Q80.48 3.94 80.08 3.94L80.08 3.94Q79.70 3.94 79.42 4.06Q79.14 4.19 78.95 4.42Q78.77 4.64 78.66 4.93Q78.56 5.22 78.53 5.52L78.53 5.52ZM91.34 2.66L90.99 4.48Q90.80 4.43 90.54 4.38Q90.27 4.34 90 4.30Q89.73 4.26 89.47 4.24Q89.22 4.22 89.04 4.22L89.04 4.22Q88.62 4.22 88.22 4.26Q87.82 4.30 87.41 4.42L87.41 4.42L87.41 10L85.42 10L85.42 2.98Q86.21 2.69 87.03 2.51Q87.86 2.34 88.96 2.34L88.96 2.34Q89.12 2.34 89.42 2.35Q89.71 2.37 90.05 2.41Q90.38 2.45 90.73 2.50Q91.07 2.56 91.34 2.66L91.34 2.66ZM93.01 10L93.01 2.72Q93.54 2.58 94.31 2.45Q95.09 2.32 96 2.32L96 2.32Q96.90 2.32 97.49 2.57Q98.08 2.82 98.42 3.27Q98.77 3.73 98.91 4.36Q99.06 4.99 99.06 5.76L99.06 5.76L99.06 10L97.09 10L97.09 6.02Q97.09 4.96 96.85 4.50Q96.61 4.03 95.87 4.03L95.87 4.03Q95.65 4.03 95.43 4.05Q95.22 4.06 94.98 4.10L94.98 4.10L94.98 10L93.01 10ZM100.50 6.30L100.50 6.30Q100.50 5.31 100.80 4.56Q101.10 3.81 101.60 3.30Q102.10 2.80 102.74 2.54Q103.38 2.29 104.05 2.29L104.05 2.29Q105.71 2.29 106.58 3.27Q107.44 4.26 107.44 6.14L107.44 6.14Q107.44 6.34 107.43 6.54Q107.42 6.75 107.41 6.88L107.41 6.88L102.53 6.88Q102.53 7.62 103.14 8.04Q103.74 8.46 104.70 8.46L104.70 8.46Q105.30 8.46 105.83 8.34Q106.37 8.21 106.74 8.08L106.74 8.08L107.01 9.76Q106.50 9.94 105.92 10.06Q105.34 10.18 104.62 10.18L104.62 10.18Q103.66 10.18 102.90 9.93Q102.14 9.68 101.61 9.19Q101.07 8.70 100.78 7.98Q100.50 7.26 100.50 6.30ZM102.53 5.52L105.54 5.52Q105.54 5.22 105.46 4.94Q105.38 4.66 105.20 4.43Q105.02 4.21 104.75 4.07Q104.48 3.94 104.08 3.94L104.08 3.94Q103.70 3.94 103.42 4.06Q103.14 4.19 102.95 4.42Q102.77 4.64 102.66 4.93Q102.56 5.22 102.53 5.52L102.53 5.52ZM115.22 8.10L115.47 9.68Q115.42 9.71 115.26 9.79Q115.09 9.87 114.82 9.96Q114.54 10.05 114.15 10.11Q113.76 10.18 113.26 10.18L113.26 10.18Q111.90 10.18 111.28 9.37Q110.66 8.56 110.66 7.01L110.66 7.01L110.66 0.62L108.58 0.62L108.58-1.01L112.62-1.01L112.62 7.15Q112.62 7.92 112.93 8.19Q113.23 8.46 113.70 8.46L113.70 8.46Q114.29 8.46 114.69 8.30Q115.09 8.14 115.22 8.10L115.22 8.10ZM124.94 0.10L126.58 0.10Q126.69 0.43 126.86 0.96Q127.02 1.49 127.22 2.10Q127.41 2.70 127.60 3.33Q127.79 3.95 127.97 4.48L127.97 4.48Q128.16 3.89 128.37 3.26Q128.58 2.62 128.77 2.04Q128.96 1.46 129.12 0.94Q129.28 0.43 129.41 0.10L129.41 0.10L131.04 0.10Q131.15 1.39 131.26 2.62Q131.36 3.86 131.43 5.06Q131.50 6.27 131.55 7.50Q131.60 8.72 131.63 10L131.63 10L129.82 10L129.92 2.30L128.70 6.50L127.26 6.50L126.10 2.30L126.18 10L124.37 10Q124.42 8.78 124.47 7.47Q124.53 6.16 124.59 4.86Q124.66 3.57 124.74 2.35Q124.83 1.14 124.94 0.10L124.94 0.10ZM139.55 6.22L139.55 6.22Q139.55 7.12 139.30 7.85Q139.04 8.58 138.58 9.10Q138.11 9.63 137.46 9.92Q136.82 10.21 136.02 10.21L136.02 10.21Q135.22 10.21 134.57 9.92Q133.92 9.63 133.45 9.10Q132.98 8.58 132.72 7.85Q132.46 7.12 132.46 6.22L132.46 6.22Q132.46 5.34 132.73 4.62Q132.99 3.89 133.46 3.37Q133.94 2.85 134.59 2.57Q135.25 2.29 136.02 2.29L136.02 2.29Q136.80 2.29 137.45 2.57Q138.10 2.85 138.57 3.37Q139.04 3.89 139.30 4.62Q139.55 5.34 139.55 6.22ZM134.46 6.24L134.46 6.24Q134.46 7.25 134.82 7.87Q135.18 8.50 135.98 8.50L135.98 8.50Q136.75 8.50 137.14 7.87Q137.54 7.25 137.54 6.24L137.54 6.24Q137.54 5.23 137.18 4.62Q136.82 4 136.02 4L136.02 4Q135.25 4 134.86 4.62Q134.46 5.23 134.46 6.24ZM142.45 6.19L142.45 6.19Q142.45 7.20 142.82 7.84Q143.20 8.48 144.03 8.48L144.03 8.48Q144.27 8.48 144.48 8.46Q144.69 8.45 144.91 8.42L144.91 8.42L144.91 4.32Q144.69 4.19 144.40 4.10Q144.11 4.02 143.79 4.02L143.79 4.02Q143.09 4.02 142.77 4.58Q142.45 5.14 142.45 6.19ZM146.88-1.10L146.88 9.78Q146.34 9.95 145.55 10.06Q144.77 10.18 144.02 10.18L144.02 10.18Q142.26 10.18 141.35 9.14Q140.45 8.10 140.45 6.29L140.45 6.29Q140.45 4.45 141.21 3.38Q141.97 2.32 143.46 2.32L143.46 2.32Q143.86 2.32 144.24 2.41Q144.62 2.50 144.91 2.66L144.91 2.66L144.91-0.77L146.88-1.10ZM155.01 2.48L155.01 9.74Q154.46 9.89 153.69 10.03Q152.91 10.18 152 10.18L152 10.18Q151.07 10.18 150.48 9.92Q149.89 9.66 149.54 9.19Q149.20 8.72 149.07 8.08Q148.94 7.44 148.94 6.67L148.94 6.67L148.94 2.48L150.91 2.48L150.91 6.42Q150.91 7.46 151.16 7.96Q151.41 8.46 152.13 8.46L152.13 8.46Q152.58 8.46 153.02 8.38L153.02 8.38L153.02 2.48L155.01 2.48ZM163.22 8.10L163.47 9.68Q163.42 9.71 163.26 9.79Q163.09 9.87 162.82 9.96Q162.54 10.05 162.15 10.11Q161.76 10.18 161.26 10.18L161.26 10.18Q159.90 10.18 159.28 9.37Q158.66 8.56 158.66 7.01L158.66 7.01L158.66 0.62L156.58 0.62L156.58-1.01L160.62-1.01L160.62 7.15Q160.62 7.92 160.93 8.19Q161.23 8.46 161.70 8.46L161.70 8.46Q162.29 8.46 162.69 8.30Q163.09 8.14 163.22 8.10L163.22 8.10ZM164.50 6.30L164.50 6.30Q164.50 5.31 164.80 4.56Q165.10 3.81 165.60 3.30Q166.10 2.80 166.74 2.54Q167.38 2.29 168.05 2.29L168.05 2.29Q169.71 2.29 170.58 3.27Q171.44 4.26 171.44 6.14L171.44 6.14Q171.44 6.34 171.43 6.54Q171.42 6.75 171.41 6.88L171.41 6.88L166.53 6.88Q166.53 7.62 167.14 8.04Q167.74 8.46 168.70 8.46L168.70 8.46Q169.30 8.46 169.83 8.34Q170.37 8.21 170.74 8.08L170.74 8.08L171.01 9.76Q170.50 9.94 169.92 10.06Q169.34 10.18 168.62 10.18L168.62 10.18Q167.66 10.18 166.90 9.93Q166.14 9.68 165.61 9.19Q165.07 8.70 164.78 7.98Q164.50 7.26 164.50 6.30ZM166.53 5.52L169.54 5.52Q169.54 5.22 169.46 4.94Q169.38 4.66 169.20 4.43Q169.02 4.21 168.75 4.07Q168.48 3.94 168.08 3.94L168.08 3.94Q167.70 3.94 167.42 4.06Q167.14 4.19 166.95 4.42Q166.77 4.64 166.66 4.93Q166.56 5.22 166.53 5.52L166.53 5.52Z"/>
    </g>
</svg>