<?xml version="1.0" encoding="UTF-8"?>
<svg height="34" width="199.29999999999998" version="1.1" xmlns="http://www.w3.org/2000/svg"><!--Created by Josélio de S. C. Júnior - 2021 - https://github.com/joseliojunior -->
    <rect
        height="32"
        width="197.29999999999998"
        rx="16"
        ry="16"
        x="1" y="1"
        fill="#773b37"
        stroke="#c58681"
        stroke-width="1" />
    <g transform="translate(0, 12)">
        <path fill="#c58681" stroke="none" d="M31.74 12L28.40 12Q28.14 11.16 27.64 10.19Q27.15 9.22 26.55 8.29Q25.95 7.37 25.29 6.56Q24.63 5.76 24.03 5.21L24.03 5.21L24.03 12L21.08 12L21.08-2.86L24.03-2.86L24.03 3.31Q24.56 2.64 25.14 1.82Q25.71 1.01 26.23 0.19Q26.74-0.62 27.18-1.42Q27.61-2.21 27.90-2.86L27.90-2.86L31.23-2.86Q30.90-2.21 30.43-1.38Q29.96-0.55 29.36 0.35Q28.76 1.25 28.08 2.18Q27.39 3.12 26.65 3.98L26.65 3.98Q27.39 4.70 28.16 5.64Q28.93 6.58 29.61 7.64Q30.30 8.71 30.85 9.83Q31.40 10.94 31.74 12L31.74 12ZM38.02 9.89L38.02 9.89Q38.50 9.89 38.96 9.88Q39.42 9.86 39.75 9.82L39.75 9.82L39.75 7.22Q39.46 7.18 39.06 7.14Q38.65 7.10 38.31 7.10L38.31 7.10Q37.86 7.10 37.42 7.16Q36.99 7.22 36.67 7.37Q36.34 7.51 36.15 7.78Q35.96 8.04 35.96 8.47L35.96 8.47Q35.96 9.24 36.54 9.56Q37.11 9.89 38.02 9.89ZM37.76 0.43L37.76 0.43Q39.15 0.43 40.08 0.76Q41 1.08 41.55 1.67Q42.10 2.26 42.34 3.11Q42.58 3.96 42.58 5.02L42.58 5.02L42.58 11.74Q41.94 11.88 40.66 12.07Q39.39 12.26 37.81 12.26L37.81 12.26Q36.73 12.26 35.85 12.07Q34.98 11.88 34.35 11.44Q33.73 10.99 33.39 10.28Q33.06 9.58 33.06 8.54L33.06 8.54Q33.06 7.56 33.44 6.89Q33.82 6.22 34.47 5.81Q35.12 5.40 35.96 5.22Q36.80 5.04 37.71 5.04L37.71 5.04Q38.86 5.04 39.75 5.23L39.75 5.23L39.75 4.87Q39.75 4.03 39.22 3.47Q38.70 2.90 37.40 2.90L37.40 2.90Q36.56 2.90 35.78 3.02Q35 3.14 34.52 3.31L34.52 3.31L34.11 0.94Q34.66 0.74 35.67 0.59Q36.68 0.43 37.76 0.43ZM50.82-2.52L50.82-2.52Q50.82-1.66 50.26-1.15Q49.71-0.65 48.94-0.65L48.94-0.65Q48.18-0.65 47.64-1.15Q47.10-1.66 47.10-2.52L47.10-2.52Q47.10-3.41 47.64-3.91Q48.18-4.42 48.94-4.42L48.94-4.42Q49.71-4.42 50.26-3.91Q50.82-3.41 50.82-2.52ZM54.82 9.14L55.21 11.52Q54.30 11.95 53.49 12.11Q52.69 12.26 52.02 12.26L52.02 12.26Q50.86 12.26 50.08 11.93Q49.30 11.59 48.84 10.96Q48.37 10.32 48.18 9.41Q47.98 8.50 47.98 7.32L47.98 7.32L47.98 3.17L44.86 3.17L44.86 0.72L50.94 0.72L50.94 7.70Q50.94 8.71 51.31 9.20Q51.68 9.70 52.54 9.70L52.54 9.70Q52.95 9.70 53.53 9.59Q54.10 9.48 54.82 9.14L54.82 9.14ZM59.43 7.80L59.43 3.17L56.86 3.17L56.86 0.72L59.43 0.72L59.43-2.11L62.38-2.59L62.38 0.72L67.11 0.72L67.11 3.17L62.38 3.17L62.38 7.73Q62.38 8.35 62.50 8.74Q62.62 9.12 62.84 9.34Q63.06 9.55 63.37 9.62Q63.68 9.70 64.06 9.70L64.06 9.70Q64.47 9.70 64.82 9.67Q65.17 9.65 65.49 9.59Q65.82 9.53 66.16 9.41Q66.51 9.29 66.92 9.10L66.92 9.10L67.33 11.64Q66.51 11.98 65.56 12.12Q64.62 12.26 63.73 12.26L63.73 12.26Q62.70 12.26 61.90 12.10Q61.11 11.93 60.56 11.45Q60.01 10.97 59.72 10.09Q59.43 9.22 59.43 7.80L59.43 7.80ZM74.02 9.89L74.02 9.89Q74.50 9.89 74.96 9.88Q75.42 9.86 75.75 9.82L75.75 9.82L75.75 7.22Q75.46 7.18 75.06 7.14Q74.65 7.10 74.31 7.10L74.31 7.10Q73.86 7.10 73.42 7.16Q72.99 7.22 72.67 7.37Q72.34 7.51 72.15 7.78Q71.96 8.04 71.96 8.47L71.96 8.47Q71.96 9.24 72.54 9.56Q73.11 9.89 74.02 9.89ZM73.76 0.43L73.76 0.43Q75.15 0.43 76.08 0.76Q77 1.08 77.55 1.67Q78.10 2.26 78.34 3.11Q78.58 3.96 78.58 5.02L78.58 5.02L78.58 11.74Q77.94 11.88 76.66 12.07Q75.39 12.26 73.81 12.26L73.81 12.26Q72.73 12.26 71.85 12.07Q70.98 11.88 70.35 11.44Q69.73 10.99 69.39 10.28Q69.06 9.58 69.06 8.54L69.06 8.54Q69.06 7.56 69.44 6.89Q69.82 6.22 70.47 5.81Q71.12 5.40 71.96 5.22Q72.80 5.04 73.71 5.04L73.71 5.04Q74.86 5.04 75.75 5.23L75.75 5.23L75.75 4.87Q75.75 4.03 75.22 3.47Q74.70 2.90 73.40 2.90L73.40 2.90Q72.56 2.90 71.78 3.02Q71 3.14 70.52 3.31L70.52 3.31L70.11 0.94Q70.66 0.74 71.67 0.59Q72.68 0.43 73.76 0.43ZM86.82-2.52L86.82-2.52Q86.82-1.66 86.26-1.15Q85.71-0.65 84.94-0.65L84.94-0.65Q84.18-0.65 83.64-1.15Q83.10-1.66 83.10-2.52L83.10-2.52Q83.10-3.41 83.64-3.91Q84.18-4.42 84.94-4.42L84.94-4.42Q85.71-4.42 86.26-3.91Q86.82-3.41 86.82-2.52ZM90.82 9.14L91.21 11.52Q90.30 11.95 89.49 12.11Q88.69 12.26 88.02 12.26L88.02 12.26Q86.86 12.26 86.08 11.93Q85.30 11.59 84.84 10.96Q84.37 10.32 84.18 9.41Q83.98 8.50 83.98 7.32L83.98 7.32L83.98 3.17L80.86 3.17L80.86 0.72L86.94 0.72L86.94 7.70Q86.94 8.71 87.31 9.20Q87.68 9.70 88.54 9.70L88.54 9.70Q88.95 9.70 89.53 9.59Q90.10 9.48 90.82 9.14L90.82 9.14ZM109.57 9.84L109.57 9.84Q110.31 9.84 110.80 9.68Q111.30 9.53 111.58 9.25Q111.87 8.98 111.98 8.63Q112.09 8.28 112.09 7.92L112.09 7.92Q112.09 7.46 111.82 7.10Q111.56 6.74 111.15 6.47Q110.74 6.19 110.24 5.96Q109.74 5.74 109.23 5.54L109.23 5.54Q108.56 5.30 107.84 4.99Q107.12 4.68 106.53 4.20Q105.94 3.72 105.56 3.01Q105.18 2.30 105.18 1.25L105.18 1.25Q105.18-0.84 106.53-2.02Q107.89-3.19 110.26-3.19L110.26-3.19Q111.63-3.19 112.65-2.88Q113.67-2.57 114.37-2.18L114.37-2.18L113.50 0.10Q112.90-0.24 112.17-0.48Q111.44-0.72 110.48-0.72L110.48-0.72Q108.13-0.72 108.13 0.98L108.13 0.98Q108.13 1.42 108.37 1.74Q108.61 2.06 108.98 2.32Q109.35 2.57 109.82 2.76Q110.29 2.95 110.74 3.12L110.74 3.12Q111.44 3.38 112.20 3.71Q112.95 4.03 113.59 4.57Q114.22 5.11 114.63 5.92Q115.04 6.72 115.04 7.94L115.04 7.94Q115.04 10.03 113.68 11.17Q112.33 12.31 109.57 12.31L109.57 12.31Q107.72 12.31 106.62 11.92Q105.51 11.52 104.96 11.18L104.96 11.18L105.82 8.78Q106.47 9.17 107.37 9.50Q108.27 9.84 109.57 9.84ZM119.43 7.80L119.43 3.17L116.86 3.17L116.86 0.72L119.43 0.72L119.43-2.11L122.38-2.59L122.38 0.72L127.11 0.72L127.11 3.17L122.38 3.17L122.38 7.73Q122.38 8.35 122.50 8.74Q122.62 9.12 122.84 9.34Q123.06 9.55 123.37 9.62Q123.68 9.70 124.06 9.70L124.06 9.70Q124.47 9.70 124.82 9.67Q125.17 9.65 125.49 9.59Q125.82 9.53 126.16 9.41Q126.51 9.29 126.92 9.10L126.92 9.10L127.33 11.64Q126.51 11.98 125.56 12.12Q124.62 12.26 123.73 12.26L123.73 12.26Q122.70 12.26 121.90 12.10Q121.11 11.93 120.56 11.45Q120.01 10.97 119.72 10.09Q119.43 9.22 119.43 7.80L119.43 7.80ZM139.02 0.98L138.49 3.72Q138.20 3.65 137.80 3.58Q137.41 3.50 137 3.44Q136.59 3.38 136.21 3.36Q135.82 3.34 135.56 3.34L135.56 3.34Q134.94 3.34 134.34 3.40Q133.74 3.46 133.11 3.62L133.11 3.62L133.11 12L130.14 12L130.14 1.46Q131.31 1.03 132.55 0.77Q133.78 0.50 135.44 0.50L135.44 0.50Q135.68 0.50 136.12 0.53Q136.57 0.55 137.07 0.61Q137.58 0.67 138.09 0.76Q138.61 0.84 139.02 0.98L139.02 0.98ZM150.51 0.72L150.51 11.62Q149.70 11.83 148.53 12.05Q147.37 12.26 146 12.26L146 12.26Q144.61 12.26 143.72 11.88Q142.83 11.50 142.32 10.79Q141.80 10.08 141.61 9.12Q141.42 8.16 141.42 7.01L141.42 7.01L141.42 0.72L144.37 0.72L144.37 6.62Q144.37 8.18 144.74 8.94Q145.11 9.70 146.19 9.70L146.19 9.70Q146.86 9.70 147.54 9.58L147.54 9.58L147.54 0.72L150.51 0.72ZM153.06 6.36L153.06 6.36Q153.06 5.14 153.44 4.06Q153.82 2.98 154.62 2.17Q155.41 1.37 156.62 0.90Q157.83 0.43 159.51 0.43L159.51 0.43Q160.52 0.43 161.34 0.58Q162.15 0.72 162.99 1.06L162.99 1.06L162.34 3.43Q161.86 3.26 161.28 3.13Q160.69 3 159.78 3L159.78 3Q158.72 3 158.01 3.25Q157.30 3.50 156.87 3.95Q156.44 4.39 156.25 5.02Q156.06 5.64 156.06 6.36L156.06 6.36Q156.06 7.92 156.93 8.81Q157.81 9.70 159.92 9.70L159.92 9.70Q160.62 9.70 161.37 9.60Q162.13 9.50 162.75 9.29L162.75 9.29L163.18 11.71Q162.56 11.95 161.67 12.11Q160.78 12.26 159.58 12.26L159.58 12.26Q157.86 12.26 156.62 11.81Q155.38 11.35 154.59 10.56Q153.80 9.77 153.43 8.69Q153.06 7.61 153.06 6.36ZM167.43 7.80L167.43 3.17L164.86 3.17L164.86 0.72L167.43 0.72L167.43-2.11L170.38-2.59L170.38 0.72L175.11 0.72L175.11 3.17L170.38 3.17L170.38 7.73Q170.38 8.35 170.50 8.74Q170.62 9.12 170.84 9.34Q171.06 9.55 171.37 9.62Q171.68 9.70 172.06 9.70L172.06 9.70Q172.47 9.70 172.82 9.67Q173.17 9.65 173.49 9.59Q173.82 9.53 174.16 9.41Q174.51 9.29 174.92 9.10L174.92 9.10L175.33 11.64Q174.51 11.98 173.56 12.12Q172.62 12.26 171.73 12.26L171.73 12.26Q170.70 12.26 169.90 12.10Q169.11 11.93 168.56 11.45Q168.01 10.97 167.72 10.09Q167.43 9.22 167.43 7.80L167.43 7.80Z"/>
    </g>
</svg>