<?xml version="1.0" encoding="UTF-8"?>
<svg height="34" width="177.1" version="1.1" xmlns="http://www.w3.org/2000/svg">
    <rect
        height="32"
        width="175.1"
        rx="14"
        ry="14"
        x="1"
        y="1"
        fill="#101F1F"
        stroke="#448383"
        stroke-width="1"
         />
    <g transform="translate(0, 14)">
        <path fill="#448383" d="M23.75 11L20.05 11L19.24 7.00L14.62 7.00L13.84 11L10.25 11Q11.48 5.88 12.74 1.66Q14.00-2.55 15.18-6.33L15.18-6.33L18.93-6.33Q20.16-2.52 21.38 1.75Q22.60 6.02 23.75 11L23.75 11ZM16.97-2.97L16.97-2.97Q16.69-1.99 16.45-1.11Q16.22-0.23 16.01 0.63Q15.80 1.48 15.61 2.35Q15.43 3.22 15.26 4.14L15.26 4.14L18.65 4.14Q18.48 3.22 18.32 2.35Q18.15 1.48 17.94 0.63Q17.73-0.23 17.49-1.11Q17.25-1.99 16.97-2.97ZM33.63 4.53L33.63 4.53Q33.63 2.77 32.93 1.63Q32.23 0.50 30.80 0.50L30.80 0.50Q30.41 0.50 29.96 0.54Q29.52 0.58 29.21 0.61L29.21 0.61L29.21 7.84Q29.54 8.06 30.10 8.20Q30.66 8.34 31.22 8.34L31.22 8.34Q32.46 8.34 33.04 7.35Q33.63 6.35 33.63 4.53ZM37.13 4.42L37.13 4.42Q37.13 5.93 36.80 7.21Q36.46 8.48 35.82 9.39Q35.17 10.30 34.19 10.80Q33.21 11.31 31.92 11.31L31.92 11.31Q30.61 11.31 29.21 10.66L29.21 10.66L29.21 15.62L25.76 15.62L25.76-1.74Q26.72-2.05 28.10-2.24Q29.49-2.44 30.83-2.44L30.83-2.44Q33.88-2.44 35.51-0.59Q37.13 1.26 37.13 4.42ZM47.63 4.53L47.63 4.53Q47.63 2.77 46.93 1.63Q46.23 0.50 44.80 0.50L44.80 0.50Q44.41 0.50 43.96 0.54Q43.52 0.58 43.21 0.61L43.21 0.61L43.21 7.84Q43.54 8.06 44.10 8.20Q44.66 8.34 45.22 8.34L45.22 8.34Q46.46 8.34 47.04 7.35Q47.63 6.35 47.63 4.53ZM51.13 4.42L51.13 4.42Q51.13 5.93 50.80 7.21Q50.46 8.48 49.82 9.39Q49.17 10.30 48.19 10.80Q47.21 11.31 45.92 11.31L45.92 11.31Q44.61 11.31 43.21 10.66L43.21 10.66L43.21 15.62L39.76 15.62L39.76-1.74Q40.72-2.05 42.10-2.24Q43.49-2.44 44.83-2.44L44.83-2.44Q47.88-2.44 49.51-0.59Q51.13 1.26 51.13 4.42ZM64.63 7.67L65.08 10.44Q64.99 10.50 64.70 10.64Q64.40 10.78 63.93 10.93Q63.45 11.08 62.77 11.20Q62.08 11.31 61.21 11.31L61.21 11.31Q58.83 11.31 57.74 9.89Q56.65 8.48 56.65 5.76L56.65 5.76L56.65-5.41L53.01-5.41L53.01-8.26L60.09-8.26L60.09 6.02Q60.09 7.36 60.62 7.84Q61.16 8.31 61.97 8.31L61.97 8.31Q63.00 8.31 63.70 8.03Q64.40 7.75 64.63 7.67L64.63 7.67ZM66.87 4.53L66.87 4.53Q66.87 2.80 67.40 1.48Q67.93 0.16 68.80-0.72Q69.67-1.60 70.79-2.05Q71.91-2.50 73.08-2.50L73.08-2.50Q76.00-2.50 77.51-0.77Q79.02 0.95 79.02 4.25L79.02 4.25Q79.02 4.59 79.01 4.95Q78.99 5.32 78.96 5.54L78.96 5.54L70.42 5.54Q70.42 6.83 71.49 7.57Q72.55 8.31 74.23 8.31L74.23 8.31Q75.27 8.31 76.21 8.09Q77.14 7.86 77.79 7.64L77.79 7.64L78.26 10.58Q77.37 10.89 76.36 11.10Q75.35 11.31 74.09 11.31L74.09 11.31Q72.41 11.31 71.08 10.87Q69.75 10.44 68.81 9.59Q67.88 8.73 67.37 7.47Q66.87 6.21 66.87 4.53ZM70.42 3.16L75.69 3.16Q75.69 2.63 75.55 2.14Q75.41 1.65 75.10 1.26Q74.79 0.86 74.32 0.63Q73.84 0.39 73.14 0.39L73.14 0.39Q72.47 0.39 71.98 0.61Q71.49 0.84 71.17 1.23Q70.84 1.62 70.66 2.12Q70.48 2.63 70.42 3.16L70.42 3.16ZM86.50 8.48L86.50 8.48Q87.36 8.48 87.94 8.30Q88.51 8.12 88.85 7.79Q89.18 7.47 89.31 7.07Q89.44 6.66 89.44 6.24L89.44 6.24Q89.44 5.71 89.13 5.29Q88.82 4.87 88.34 4.55Q87.87 4.22 87.28 3.96Q86.69 3.69 86.10 3.47L86.10 3.47Q85.32 3.19 84.48 2.82Q83.64 2.46 82.95 1.90Q82.27 1.34 81.82 0.51Q81.37-0.31 81.37-1.54L81.37-1.54Q81.37-3.98 82.95-5.35Q84.54-6.72 87.31-6.72L87.31-6.72Q88.90-6.72 90.09-6.36Q91.28-6.00 92.10-5.55L92.10-5.55L91.09-2.89Q90.39-3.28 89.53-3.56Q88.68-3.84 87.56-3.84L87.56-3.84Q84.82-3.84 84.82-1.85L84.82-1.85Q84.82-1.35 85.10-0.97Q85.38-0.59 85.81-0.30Q86.24-0.00 86.79 0.22Q87.34 0.44 87.87 0.64L87.87 0.64Q88.68 0.95 89.56 1.33Q90.44 1.70 91.19 2.33Q91.93 2.96 92.40 3.90Q92.88 4.84 92.88 6.27L92.88 6.27Q92.88 8.70 91.30 10.03Q89.72 11.36 86.50 11.36L86.50 11.36Q84.34 11.36 83.05 10.90Q81.76 10.44 81.12 10.05L81.12 10.05L82.13 7.25Q82.88 7.70 83.93 8.09Q84.98 8.48 86.50 8.48ZM95.23 4.42L95.23 4.42Q95.23 2.99 95.68 1.73Q96.13 0.47 97.05-0.47Q97.98-1.40 99.39-1.95Q100.80-2.50 102.76-2.50L102.76-2.50Q103.94-2.50 104.89-2.33Q105.84-2.16 106.82-1.77L106.82-1.77L106.07 1.00Q105.51 0.81 104.82 0.65Q104.14 0.50 103.07 0.50L103.07 0.50Q101.84 0.50 101.01 0.79Q100.19 1.09 99.68 1.61Q99.18 2.12 98.96 2.85Q98.73 3.58 98.73 4.42L98.73 4.42Q98.73 6.24 99.75 7.28Q100.78 8.31 103.24 8.31L103.24 8.31Q104.05 8.31 104.93 8.20Q105.82 8.09 106.54 7.84L106.54 7.84L107.05 10.66Q106.32 10.94 105.28 11.13Q104.25 11.31 102.85 11.31L102.85 11.31Q100.83 11.31 99.39 10.78Q97.95 10.24 97.02 9.32Q96.10 8.40 95.67 7.14Q95.23 5.88 95.23 4.42ZM120.85-1.85L120.24 1.34Q119.90 1.26 119.44 1.17Q118.98 1.09 118.50 1.02Q118.02 0.95 117.58 0.92Q117.13 0.89 116.82 0.89L116.82 0.89Q116.09 0.89 115.39 0.96Q114.69 1.03 113.96 1.23L113.96 1.23L113.96 11L110.49 11L110.49-1.29Q111.86-1.80 113.31-2.10Q114.75-2.41 116.68-2.41L116.68-2.41Q116.96-2.41 117.48-2.38Q118.00-2.36 118.58-2.29Q119.17-2.22 119.77-2.12Q120.38-2.02 120.85-1.85L120.85-1.85ZM129.95-5.94L129.95-5.94Q129.95-4.93 129.31-4.34Q128.66-3.76 127.77-3.76L127.77-3.76Q126.87-3.76 126.24-4.34Q125.61-4.93 125.61-5.94L125.61-5.94Q125.61-6.98 126.24-7.56Q126.87-8.15 127.77-8.15L127.77-8.15Q128.66-8.15 129.31-7.56Q129.95-6.98 129.95-5.94ZM134.63 7.67L135.08 10.44Q134.01 10.94 133.07 11.13Q132.14 11.31 131.35 11.31L131.35 11.31Q130.01 11.31 129.10 10.92Q128.19 10.52 127.64 9.78Q127.10 9.04 126.87 7.98Q126.65 6.91 126.65 5.54L126.65 5.54L126.65 0.70L123.01 0.70L123.01-2.16L130.09-2.16L130.09 5.99Q130.09 7.16 130.53 7.74Q130.96 8.31 131.97 8.31L131.97 8.31Q132.44 8.31 133.12 8.19Q133.79 8.06 134.63 7.67L134.63 7.67ZM145.63 4.53L145.63 4.53Q145.63 2.77 144.93 1.63Q144.23 0.50 142.80 0.50L142.80 0.50Q142.41 0.50 141.96 0.54Q141.52 0.58 141.21 0.61L141.21 0.61L141.21 7.84Q141.54 8.06 142.10 8.20Q142.66 8.34 143.22 8.34L143.22 8.34Q144.46 8.34 145.04 7.35Q145.63 6.35 145.63 4.53ZM149.13 4.42L149.13 4.42Q149.13 5.93 148.80 7.21Q148.46 8.48 147.82 9.39Q147.17 10.30 146.19 10.80Q145.21 11.31 143.92 11.31L143.92 11.31Q142.61 11.31 141.21 10.66L141.21 10.66L141.21 15.62L137.76 15.62L137.76-1.74Q138.72-2.05 140.10-2.24Q141.49-2.44 142.83-2.44L142.83-2.44Q145.88-2.44 147.51-0.59Q149.13 1.26 149.13 4.42ZM154.00 6.10L154.00 0.70L151.01 0.70L151.01-2.16L154.00-2.16L154.00-5.46L157.45-6.02L157.45-2.16L162.96-2.16L162.96 0.70L157.45 0.70L157.45 6.02Q157.45 6.74 157.59 7.19Q157.73 7.64 157.98 7.89Q158.23 8.14 158.60 8.23Q158.96 8.31 159.41 8.31L159.41 8.31Q159.88 8.31 160.29 8.28Q160.70 8.26 161.07 8.19Q161.45 8.12 161.86 7.98Q162.26 7.84 162.74 7.61L162.74 7.61L163.22 10.58Q162.26 10.97 161.16 11.14Q160.05 11.31 159.02 11.31L159.02 11.31Q157.81 11.31 156.89 11.11Q155.96 10.92 155.32 10.36Q154.68 9.80 154.34 8.77Q154.00 7.75 154.00 6.10L154.00 6.10Z"/>
    </g>
</svg>