<?xml version="1.0" encoding="UTF-8"?>
<svg height="322" width="175.1" version="1.1" xmlns="http://www.w3.org/2000/svg"><!--Created by Josélio de S. C. Júnior - 2021 - https://github.com/joseliojunior -->
    <rect
        height="32"
        width="173.1"
        rx="16"
        ry="16"
        x="1" y="1"
        fill="#101F1F"
        stroke="#448383"
        stroke-width="1" />
    <g transform="translate(0, 12)">
        <path fill="#448383" stroke="none" d="M31.78 12L28.62 12L27.92 8.57L23.96 8.57L23.29 12L20.22 12Q21.27 7.61 22.35 4.00Q23.43 0.38 24.44-2.86L24.44-2.86L27.66-2.86Q28.71 0.41 29.76 4.07Q30.80 7.73 31.78 12L31.78 12ZM25.98 0.02L25.98 0.02Q25.74 0.86 25.53 1.62Q25.33 2.38 25.15 3.11Q24.97 3.84 24.81 4.58Q24.66 5.33 24.51 6.12L24.51 6.12L27.42 6.12Q27.27 5.33 27.13 4.58Q26.98 3.84 26.80 3.11Q26.62 2.38 26.42 1.62Q26.22 0.86 25.98 0.02ZM40.26 6.46L40.26 6.46Q40.26 4.94 39.66 3.97Q39.06 3 37.83 3L37.83 3Q37.50 3 37.11 3.04Q36.73 3.07 36.46 3.10L36.46 3.10L36.46 9.29Q36.75 9.48 37.23 9.60Q37.71 9.72 38.19 9.72L38.19 9.72Q39.25 9.72 39.75 8.87Q40.26 8.02 40.26 6.46ZM43.26 6.36L43.26 6.36Q43.26 7.66 42.97 8.75Q42.68 9.84 42.13 10.62Q41.58 11.40 40.74 11.83Q39.90 12.26 38.79 12.26L38.79 12.26Q37.66 12.26 36.46 11.71L36.46 11.71L36.46 15.96L33.51 15.96L33.51 1.08Q34.33 0.82 35.52 0.65Q36.70 0.48 37.86 0.48L37.86 0.48Q40.47 0.48 41.86 2.06Q43.26 3.65 43.26 6.36ZM52.26 6.46L52.26 6.46Q52.26 4.94 51.66 3.97Q51.06 3 49.83 3L49.83 3Q49.50 3 49.11 3.04Q48.73 3.07 48.46 3.10L48.46 3.10L48.46 9.29Q48.75 9.48 49.23 9.60Q49.71 9.72 50.19 9.72L50.19 9.72Q51.25 9.72 51.75 8.87Q52.26 8.02 52.26 6.46ZM55.26 6.36L55.26 6.36Q55.26 7.66 54.97 8.75Q54.68 9.84 54.13 10.62Q53.58 11.40 52.74 11.83Q51.90 12.26 50.79 12.26L50.79 12.26Q49.66 12.26 48.46 11.71L48.46 11.71L48.46 15.96L45.51 15.96L45.51 1.08Q46.33 0.82 47.52 0.65Q48.70 0.48 49.86 0.48L49.86 0.48Q52.47 0.48 53.86 2.06Q55.26 3.65 55.26 6.36ZM66.82 9.14L67.21 11.52Q67.14 11.57 66.88 11.69Q66.63 11.81 66.22 11.94Q65.82 12.07 65.23 12.17Q64.64 12.26 63.90 12.26L63.90 12.26Q61.86 12.26 60.92 11.05Q59.98 9.84 59.98 7.51L59.98 7.51L59.98-2.06L56.86-2.06L56.86-4.51L62.94-4.51L62.94 7.73Q62.94 8.88 63.39 9.29Q63.85 9.70 64.54 9.70L64.54 9.70Q65.43 9.70 66.03 9.46Q66.63 9.22 66.82 9.14L66.82 9.14ZM68.74 6.46L68.74 6.46Q68.74 4.97 69.20 3.84Q69.66 2.71 70.40 1.96Q71.14 1.20 72.10 0.82Q73.06 0.43 74.07 0.43L74.07 0.43Q76.57 0.43 77.86 1.91Q79.16 3.38 79.16 6.22L79.16 6.22Q79.16 6.50 79.15 6.82Q79.14 7.13 79.11 7.32L79.11 7.32L71.79 7.32Q71.79 8.42 72.70 9.06Q73.62 9.70 75.06 9.70L75.06 9.70Q75.94 9.70 76.75 9.50Q77.55 9.31 78.10 9.12L78.10 9.12L78.51 11.64Q77.74 11.90 76.88 12.08Q76.02 12.26 74.94 12.26L74.94 12.26Q73.50 12.26 72.36 11.89Q71.22 11.52 70.41 10.79Q69.61 10.06 69.18 8.98Q68.74 7.90 68.74 6.46ZM71.79 5.28L76.30 5.28Q76.30 4.82 76.18 4.40Q76.06 3.98 75.80 3.65Q75.54 3.31 75.13 3.11Q74.72 2.90 74.12 2.90L74.12 2.90Q73.54 2.90 73.12 3.10Q72.70 3.29 72.43 3.62Q72.15 3.96 72.00 4.39Q71.84 4.82 71.79 5.28L71.79 5.28ZM85.57 9.84L85.57 9.84Q86.31 9.84 86.80 9.68Q87.30 9.53 87.58 9.25Q87.87 8.98 87.98 8.63Q88.09 8.28 88.09 7.92L88.09 7.92Q88.09 7.46 87.82 7.10Q87.56 6.74 87.15 6.47Q86.74 6.19 86.24 5.96Q85.74 5.74 85.23 5.54L85.23 5.54Q84.56 5.30 83.84 4.99Q83.12 4.68 82.53 4.20Q81.94 3.72 81.56 3.01Q81.18 2.30 81.18 1.25L81.18 1.25Q81.18-0.84 82.53-2.02Q83.89-3.19 86.26-3.19L86.26-3.19Q87.63-3.19 88.65-2.88Q89.67-2.57 90.37-2.18L90.37-2.18L89.50 0.10Q88.90-0.24 88.17-0.48Q87.44-0.72 86.48-0.72L86.48-0.72Q84.13-0.72 84.13 0.98L84.13 0.98Q84.13 1.42 84.37 1.74Q84.61 2.06 84.98 2.32Q85.35 2.57 85.82 2.76Q86.29 2.95 86.74 3.12L86.74 3.12Q87.44 3.38 88.20 3.71Q88.95 4.03 89.59 4.57Q90.22 5.11 90.63 5.92Q91.04 6.72 91.04 7.94L91.04 7.94Q91.04 10.03 89.68 11.17Q88.33 12.31 85.57 12.31L85.57 12.31Q83.72 12.31 82.62 11.92Q81.51 11.52 80.96 11.18L80.96 11.18L81.82 8.78Q82.47 9.17 83.37 9.50Q84.27 9.84 85.57 9.84ZM93.06 6.36L93.06 6.36Q93.06 5.14 93.44 4.06Q93.82 2.98 94.62 2.17Q95.41 1.37 96.62 0.90Q97.83 0.43 99.51 0.43L99.51 0.43Q100.52 0.43 101.34 0.58Q102.15 0.72 102.99 1.06L102.99 1.06L102.34 3.43Q101.86 3.26 101.28 3.13Q100.69 3 99.78 3L99.78 3Q98.72 3 98.01 3.25Q97.30 3.50 96.87 3.95Q96.44 4.39 96.25 5.02Q96.06 5.64 96.06 6.36L96.06 6.36Q96.06 7.92 96.93 8.81Q97.81 9.70 99.92 9.70L99.92 9.70Q100.62 9.70 101.37 9.60Q102.13 9.50 102.75 9.29L102.75 9.29L103.18 11.71Q102.56 11.95 101.67 12.11Q100.78 12.26 99.58 12.26L99.58 12.26Q97.86 12.26 96.62 11.81Q95.38 11.35 94.59 10.56Q93.80 9.77 93.43 8.69Q93.06 7.61 93.06 6.36ZM115.02 0.98L114.49 3.72Q114.20 3.65 113.80 3.58Q113.41 3.50 113 3.44Q112.59 3.38 112.21 3.36Q111.82 3.34 111.56 3.34L111.56 3.34Q110.94 3.34 110.34 3.40Q109.74 3.46 109.11 3.62L109.11 3.62L109.11 12L106.14 12L106.14 1.46Q107.31 1.03 108.55 0.77Q109.78 0.50 111.44 0.50L111.44 0.50Q111.68 0.50 112.12 0.53Q112.57 0.55 113.07 0.61Q113.58 0.67 114.09 0.76Q114.61 0.84 115.02 0.98L115.02 0.98ZM122.82-2.52L122.82-2.52Q122.82-1.66 122.26-1.15Q121.71-0.65 120.94-0.65L120.94-0.65Q120.18-0.65 119.64-1.15Q119.10-1.66 119.10-2.52L119.10-2.52Q119.10-3.41 119.64-3.91Q120.18-4.42 120.94-4.42L120.94-4.42Q121.71-4.42 122.26-3.91Q122.82-3.41 122.82-2.52ZM126.82 9.14L127.21 11.52Q126.30 11.95 125.49 12.11Q124.69 12.26 124.02 12.26L124.02 12.26Q122.86 12.26 122.08 11.93Q121.30 11.59 120.84 10.96Q120.37 10.32 120.18 9.41Q119.98 8.50 119.98 7.32L119.98 7.32L119.98 3.17L116.86 3.17L116.86 0.72L122.94 0.72L122.94 7.70Q122.94 8.71 123.31 9.20Q123.68 9.70 124.54 9.70L124.54 9.70Q124.95 9.70 125.53 9.59Q126.10 9.48 126.82 9.14L126.82 9.14ZM136.26 6.46L136.26 6.46Q136.26 4.94 135.66 3.97Q135.06 3 133.83 3L133.83 3Q133.50 3 133.11 3.04Q132.73 3.07 132.46 3.10L132.46 3.10L132.46 9.29Q132.75 9.48 133.23 9.60Q133.71 9.72 134.19 9.72L134.19 9.72Q135.25 9.72 135.75 8.87Q136.26 8.02 136.26 6.46ZM139.26 6.36L139.26 6.36Q139.26 7.66 138.97 8.75Q138.68 9.84 138.13 10.62Q137.58 11.40 136.74 11.83Q135.90 12.26 134.79 12.26L134.79 12.26Q133.66 12.26 132.46 11.71L132.46 11.71L132.46 15.96L129.51 15.96L129.51 1.08Q130.33 0.82 131.52 0.65Q132.70 0.48 133.86 0.48L133.86 0.48Q136.47 0.48 137.86 2.06Q139.26 3.65 139.26 6.36ZM143.43 7.80L143.43 3.17L140.86 3.17L140.86 0.72L143.43 0.72L143.43-2.11L146.38-2.59L146.38 0.72L151.11 0.72L151.11 3.17L146.38 3.17L146.38 7.73Q146.38 8.35 146.50 8.74Q146.62 9.12 146.84 9.34Q147.06 9.55 147.37 9.62Q147.68 9.70 148.06 9.70L148.06 9.70Q148.47 9.70 148.82 9.67Q149.17 9.65 149.49 9.59Q149.82 9.53 150.16 9.41Q150.51 9.29 150.92 9.10L150.92 9.10L151.33 11.64Q150.51 11.98 149.56 12.12Q148.62 12.26 147.73 12.26L147.73 12.26Q146.70 12.26 145.90 12.10Q145.11 11.93 144.56 11.45Q144.01 10.97 143.72 10.09Q143.43 9.22 143.43 7.80L143.43 7.80Z"/>
    </g>
</svg>