<?xml version="1.0" encoding="UTF-8"?><svg height="26" width="131.1" version="1.1" xmlns="http://www.w3.org/2000/svg"><!--Created by Josélio de S. C. Júnior - 2021 - https://github.com/joseliojunior --><rect height="24" width="129.1" rx="12" ry="12" x="1" y="1" fill="#101F1F" stroke="#448383" stroke-width="1" /><g transform="translate(0, 8)"><path fill="#448383" d="M27.86 10L25.74 10L25.28 7.71L22.64 7.71L22.19 10L20.14 10Q20.85 7.07 21.57 4.66Q22.29 2.26 22.96 0.10L22.96 0.10L25.10 0.10Q25.81 2.27 26.50 4.71Q27.20 7.15 27.86 10L27.86 10ZM23.98 2.02L23.98 2.02Q23.82 2.58 23.69 3.08Q23.55 3.58 23.43 4.07Q23.31 4.56 23.21 5.06Q23.10 5.55 23.01 6.08L23.01 6.08L24.94 6.08Q24.85 5.55 24.75 5.06Q24.66 4.56 24.54 4.07Q24.42 3.58 24.28 3.08Q24.14 2.58 23.98 2.02ZM33.50 6.30L33.50 6.30Q33.50 5.30 33.10 4.65Q32.70 4 31.89 4L31.89 4Q31.66 4 31.41 4.02Q31.15 4.05 30.98 4.06L30.98 4.06L30.98 8.19Q31.17 8.32 31.49 8.40Q31.81 8.48 32.13 8.48L32.13 8.48Q32.83 8.48 33.17 7.91Q33.50 7.34 33.50 6.30ZM35.50 6.24L35.50 6.24Q35.50 7.10 35.31 7.83Q35.12 8.56 34.75 9.08Q34.38 9.60 33.82 9.89Q33.26 10.18 32.53 10.18L32.53 10.18Q31.78 10.18 30.98 9.81L30.98 9.81L30.98 12.64L29.01 12.64L29.01 2.72Q29.55 2.54 30.34 2.43Q31.14 2.32 31.90 2.32L31.90 2.32Q33.65 2.32 34.58 3.38Q35.50 4.43 35.50 6.24ZM41.50 6.30L41.50 6.30Q41.50 5.30 41.10 4.65Q40.70 4 39.89 4L39.89 4Q39.66 4 39.41 4.02Q39.15 4.05 38.98 4.06L38.98 4.06L38.98 8.19Q39.17 8.32 39.49 8.40Q39.81 8.48 40.13 8.48L40.13 8.48Q40.83 8.48 41.17 7.91Q41.50 7.34 41.50 6.30ZM43.50 6.24L43.50 6.24Q43.50 7.10 43.31 7.83Q43.12 8.56 42.75 9.08Q42.38 9.60 41.82 9.89Q41.26 10.18 40.53 10.18L40.53 10.18Q39.78 10.18 38.98 9.81L38.98 9.81L38.98 12.64L37.01 12.64L37.01 2.72Q37.55 2.54 38.34 2.43Q39.14 2.32 39.90 2.32L39.90 2.32Q41.65 2.32 42.58 3.38Q43.50 4.43 43.50 6.24ZM51.22 8.10L51.47 9.68Q51.42 9.71 51.26 9.79Q51.09 9.87 50.82 9.96Q50.54 10.05 50.15 10.11Q49.76 10.18 49.26 10.18L49.26 10.18Q47.90 10.18 47.28 9.37Q46.66 8.56 46.66 7.01L46.66 7.01L46.66 0.62L44.58 0.62L44.58-1.01L48.62-1.01L48.62 7.15Q48.62 7.92 48.93 8.19Q49.23 8.46 49.70 8.46L49.70 8.46Q50.29 8.46 50.69 8.30Q51.09 8.14 51.22 8.10L51.22 8.10ZM52.50 6.30L52.50 6.30Q52.50 5.31 52.80 4.56Q53.10 3.81 53.60 3.30Q54.10 2.80 54.74 2.54Q55.38 2.29 56.05 2.29L56.05 2.29Q57.71 2.29 58.58 3.27Q59.44 4.26 59.44 6.14L59.44 6.14Q59.44 6.34 59.43 6.54Q59.42 6.75 59.41 6.88L59.41 6.88L54.53 6.88Q54.53 7.62 55.14 8.04Q55.74 8.46 56.70 8.46L56.70 8.46Q57.30 8.46 57.83 8.34Q58.37 8.21 58.74 8.08L58.74 8.08L59.01 9.76Q58.50 9.94 57.92 10.06Q57.34 10.18 56.62 10.18L56.62 10.18Q55.66 10.18 54.90 9.93Q54.14 9.68 53.61 9.19Q53.07 8.70 52.78 7.98Q52.50 7.26 52.50 6.30ZM54.53 5.52L57.54 5.52Q57.54 5.22 57.46 4.94Q57.38 4.66 57.20 4.43Q57.02 4.21 56.75 4.07Q56.48 3.94 56.08 3.94L56.08 3.94Q55.70 3.94 55.42 4.06Q55.14 4.19 54.95 4.42Q54.77 4.64 54.66 4.93Q54.56 5.22 54.53 5.52L54.53 5.52ZM63.71 8.56L63.71 8.56Q64.21 8.56 64.54 8.46Q64.86 8.35 65.06 8.17Q65.25 7.98 65.32 7.75Q65.39 7.52 65.39 7.28L65.39 7.28Q65.39 6.98 65.22 6.74Q65.04 6.50 64.77 6.31Q64.50 6.13 64.16 5.98Q63.82 5.82 63.49 5.70L63.49 5.70Q63.04 5.54 62.56 5.33Q62.08 5.12 61.69 4.80Q61.30 4.48 61.04 4.01Q60.78 3.54 60.78 2.83L60.78 2.83Q60.78 1.44 61.69 0.66Q62.59-0.13 64.18-0.13L64.18-0.13Q65.09-0.13 65.77 0.08Q66.45 0.29 66.91 0.54L66.91 0.54L66.34 2.06Q65.94 1.84 65.45 1.68Q64.96 1.52 64.32 1.52L64.32 1.52Q62.75 1.52 62.75 2.66L62.75 2.66Q62.75 2.94 62.91 3.16Q63.07 3.38 63.32 3.54Q63.57 3.71 63.88 3.84Q64.19 3.97 64.50 4.08L64.50 4.08Q64.96 4.26 65.46 4.47Q65.97 4.69 66.39 5.05Q66.82 5.41 67.09 5.94Q67.36 6.48 67.36 7.30L67.36 7.30Q67.36 8.69 66.46 9.45Q65.55 10.21 63.71 10.21L63.71 10.21Q62.48 10.21 61.74 9.94Q61.01 9.68 60.64 9.46L60.64 9.46L61.22 7.86Q61.65 8.11 62.25 8.34Q62.85 8.56 63.71 8.56ZM68.70 6.24L68.70 6.24Q68.70 5.42 68.96 4.70Q69.22 3.98 69.74 3.45Q70.27 2.91 71.08 2.60Q71.89 2.29 73.01 2.29L73.01 2.29Q73.68 2.29 74.22 2.38Q74.77 2.48 75.33 2.70L75.33 2.70L74.90 4.29Q74.58 4.18 74.18 4.09Q73.79 4 73.18 4L73.18 4Q72.48 4 72.01 4.17Q71.54 4.34 71.25 4.63Q70.96 4.93 70.83 5.34Q70.70 5.76 70.70 6.24L70.70 6.24Q70.70 7.28 71.29 7.87Q71.87 8.46 73.28 8.46L73.28 8.46Q73.74 8.46 74.25 8.40Q74.75 8.34 75.17 8.19L75.17 8.19L75.46 9.81Q75.04 9.97 74.45 10.07Q73.86 10.18 73.06 10.18L73.06 10.18Q71.90 10.18 71.08 9.87Q70.26 9.57 69.73 9.04Q69.20 8.51 68.95 7.79Q68.70 7.07 68.70 6.24ZM83.34 2.66L82.99 4.48Q82.80 4.43 82.54 4.38Q82.27 4.34 82 4.30Q81.73 4.26 81.47 4.24Q81.22 4.22 81.04 4.22L81.04 4.22Q80.62 4.22 80.22 4.26Q79.82 4.30 79.41 4.42L79.41 4.42L79.41 10L77.42 10L77.42 2.98Q78.21 2.69 79.03 2.51Q79.86 2.34 80.96 2.34L80.96 2.34Q81.12 2.34 81.42 2.35Q81.71 2.37 82.05 2.41Q82.38 2.45 82.73 2.50Q83.07 2.56 83.34 2.66L83.34 2.66ZM88.54 0.32L88.54 0.32Q88.54 0.90 88.18 1.23Q87.81 1.57 87.30 1.57L87.30 1.57Q86.78 1.57 86.42 1.23Q86.06 0.90 86.06 0.32L86.06 0.32Q86.06-0.27 86.42-0.61Q86.78-0.94 87.30-0.94L87.30-0.94Q87.81-0.94 88.18-0.61Q88.54-0.27 88.54 0.32ZM91.22 8.10L91.47 9.68Q90.86 9.97 90.33 10.07Q89.79 10.18 89.34 10.18L89.34 10.18Q88.58 10.18 88.06 9.95Q87.54 9.73 87.22 9.30Q86.91 8.88 86.78 8.27Q86.66 7.66 86.66 6.88L86.66 6.88L86.66 4.11L84.58 4.11L84.58 2.48L88.62 2.48L88.62 7.14Q88.62 7.81 88.87 8.14Q89.12 8.46 89.70 8.46L89.70 8.46Q89.97 8.46 90.35 8.39Q90.74 8.32 91.22 8.10L91.22 8.10ZM97.50 6.30L97.50 6.30Q97.50 5.30 97.10 4.65Q96.70 4 95.89 4L95.89 4Q95.66 4 95.41 4.02Q95.15 4.05 94.98 4.06L94.98 4.06L94.98 8.19Q95.17 8.32 95.49 8.40Q95.81 8.48 96.13 8.48L96.13 8.48Q96.83 8.48 97.17 7.91Q97.50 7.34 97.50 6.30ZM99.50 6.24L99.50 6.24Q99.50 7.10 99.31 7.83Q99.12 8.56 98.75 9.08Q98.38 9.60 97.82 9.89Q97.26 10.18 96.53 10.18L96.53 10.18Q95.78 10.18 94.98 9.81L94.98 9.81L94.98 12.64L93.01 12.64L93.01 2.72Q93.55 2.54 94.34 2.43Q95.14 2.32 95.90 2.32L95.90 2.32Q97.65 2.32 98.58 3.38Q99.50 4.43 99.50 6.24ZM102.29 7.20L102.29 4.11L100.58 4.11L100.58 2.48L102.29 2.48L102.29 0.59L104.26 0.27L104.26 2.48L107.41 2.48L107.41 4.11L104.26 4.11L104.26 7.15Q104.26 7.57 104.34 7.82Q104.42 8.08 104.56 8.22Q104.70 8.37 104.91 8.42Q105.12 8.46 105.38 8.46L105.38 8.46Q105.65 8.46 105.88 8.45Q106.11 8.43 106.33 8.39Q106.54 8.35 106.78 8.27Q107.01 8.19 107.28 8.06L107.28 8.06L107.55 9.76Q107.01 9.98 106.38 10.08Q105.74 10.18 105.15 10.18L105.15 10.18Q104.46 10.18 103.94 10.06Q103.41 9.95 103.04 9.63Q102.67 9.31 102.48 8.73Q102.29 8.14 102.29 7.20L102.29 7.20Z"/></g></svg>