<?xml version="1.0" encoding="UTF-8"?>
<svg height="34" width="120.7" version="1.1" xmlns="http://www.w3.org/2000/svg">
    <rect
        height="32"
        width="118.7"
        rx="1"
        ry="1"
        x="1"
        y="1"
        fill="#6600cc"
        stroke="#1a0033"
        stroke-width="1"
         />
    <g transform="translate(0, 14)">
        <path fill="#1a0033" d="M16.27-6.53L16.27-6.53Q19.58-6.53 21.40-5.17Q23.22-3.81 23.22-0.73L23.22-0.73Q23.22 2.38 21.38 3.76Q19.55 5.15 16.19 5.15L16.19 5.15L14.96 5.15L14.96 11L11.51 11L11.51-6.11Q12.02-6.22 12.65-6.30Q13.28-6.39 13.92-6.43Q14.56-6.47 15.18-6.50Q15.80-6.53 16.27-6.53ZM16.66-3.53L16.66-3.53Q16.36-3.53 15.81-3.52Q15.26-3.50 14.96-3.45L14.96-3.45L14.96 2.15L16.36 2.15Q18.01 2.15 18.85 1.49Q19.69 0.84 19.69-0.76L19.69-0.76Q19.69-2.27 18.86-2.90Q18.04-3.53 16.66-3.53ZM31.03 8.54L31.03 8.54Q31.59 8.54 32.12 8.52Q32.65 8.51 33.04 8.45L33.04 8.45L33.04 5.43Q32.71 5.37 32.23 5.33Q31.76 5.29 31.36 5.29L31.36 5.29Q30.83 5.29 30.33 5.36Q29.82 5.43 29.45 5.60Q29.07 5.76 28.84 6.07Q28.62 6.38 28.62 6.88L28.62 6.88Q28.62 7.78 29.29 8.16Q29.96 8.54 31.03 8.54ZM30.72-2.50L30.72-2.50Q32.34-2.50 33.42-2.12Q34.50-1.74 35.14-1.05Q35.79-0.37 36.07 0.63Q36.35 1.62 36.35 2.85L36.35 2.85L36.35 10.69Q35.59 10.86 34.11 11.08Q32.62 11.31 30.78 11.31L30.78 11.31Q29.52 11.31 28.49 11.08Q27.47 10.86 26.74 10.34Q26.02 9.82 25.62 9.00Q25.23 8.17 25.23 6.97L25.23 6.97Q25.23 5.82 25.68 5.04Q26.13 4.25 26.88 3.78Q27.64 3.30 28.62 3.09Q29.60 2.88 30.66 2.88L30.66 2.88Q32.01 2.88 33.04 3.10L33.04 3.10L33.04 2.68Q33.04 1.70 32.43 1.05Q31.81 0.39 30.30 0.39L30.30 0.39Q29.32 0.39 28.41 0.53Q27.50 0.67 26.94 0.86L26.94 0.86L26.46-1.91Q27.11-2.13 28.28-2.31Q29.46-2.50 30.72-2.50ZM47.63 4.53L47.63 4.53Q47.63 2.77 46.93 1.63Q46.23 0.50 44.80 0.50L44.80 0.50Q44.41 0.50 43.96 0.54Q43.52 0.58 43.21 0.61L43.21 0.61L43.21 7.84Q43.54 8.06 44.10 8.20Q44.66 8.34 45.22 8.34L45.22 8.34Q46.46 8.34 47.04 7.35Q47.63 6.35 47.63 4.53ZM51.13 4.42L51.13 4.42Q51.13 5.93 50.80 7.21Q50.46 8.48 49.82 9.39Q49.17 10.30 48.19 10.80Q47.21 11.31 45.92 11.31L45.92 11.31Q44.61 11.31 43.21 10.66L43.21 10.66L43.21 15.62L39.76 15.62L39.76-1.74Q40.72-2.05 42.10-2.24Q43.49-2.44 44.83-2.44L44.83-2.44Q47.88-2.44 49.51-0.59Q51.13 1.26 51.13 4.42ZM61.69-2.16L65.22-2.16Q64.68-0.31 64.19 1.47Q63.70 3.24 63.17 4.94Q62.64 6.63 62.04 8.26Q61.44 9.88 60.74 11.42L60.74 11.42Q60.20 12.54 59.69 13.35Q59.17 14.16 58.54 14.68Q57.91 15.20 57.14 15.45Q56.37 15.70 55.33 15.70L55.33 15.70Q54.46 15.70 53.75 15.56Q53.04 15.42 52.56 15.20L52.56 15.20L53.20 12.32Q53.76 12.57 54.20 12.67Q54.63 12.76 55.14 12.76L55.14 12.76Q56.14 12.76 56.76 12.09Q57.38 11.42 57.74 10.50L57.74 10.50Q56.51 8.03 55.28 4.85Q54.04 1.68 53.04-2.16L53.04-2.16L56.62-2.16Q56.87-1.12 57.19 0.05Q57.52 1.23 57.88 2.40Q58.24 3.58 58.65 4.71Q59.06 5.85 59.48 6.83L59.48 6.83Q59.76 5.85 60.06 4.71Q60.37 3.58 60.65 2.42Q60.93 1.26 61.20 0.08Q61.46-1.10 61.69-2.16L61.69-2.16ZM78.85-1.85L78.24 1.34Q77.90 1.26 77.44 1.17Q76.98 1.09 76.50 1.02Q76.02 0.95 75.58 0.92Q75.13 0.89 74.82 0.89L74.82 0.89Q74.09 0.89 73.39 0.96Q72.69 1.03 71.96 1.23L71.96 1.23L71.96 11L68.49 11L68.49-1.29Q69.86-1.80 71.31-2.10Q72.75-2.41 74.68-2.41L74.68-2.41Q74.96-2.41 75.48-2.38Q76.00-2.36 76.58-2.29Q77.17-2.22 77.77-2.12Q78.38-2.02 78.85-1.85L78.85-1.85ZM92.26-2.16L92.26 10.55Q91.31 10.80 89.95 11.06Q88.60 11.31 87 11.31L87 11.31Q85.38 11.31 84.34 10.86Q83.30 10.41 82.70 9.59Q82.10 8.76 81.88 7.64Q81.65 6.52 81.65 5.18L81.65 5.18L81.65-2.16L85.10-2.16L85.10 4.73Q85.10 6.55 85.53 7.43Q85.96 8.31 87.22 8.31L87.22 8.31Q88.01 8.31 88.79 8.17L88.79 8.17L88.79-2.16L92.26-2.16ZM100.38 8.40L100.38 8.40Q101.64 8.40 102.32 8.21Q102.99 8.03 102.99 7.47L102.99 7.47Q102.99 7.11 102.78 6.86Q102.57 6.60 102.19 6.42Q101.81 6.24 101.32 6.07Q100.83 5.90 100.30 5.74L100.30 5.74Q99.54 5.51 98.76 5.22Q97.98 4.92 97.33 4.48Q96.69 4.03 96.27 3.34Q95.85 2.66 95.85 1.62L95.85 1.62Q95.85 0.78 96.17 0.04Q96.49-0.70 97.18-1.28Q97.86-1.85 98.93-2.17Q99.99-2.50 101.48-2.50L101.48-2.50Q102.76-2.50 103.87-2.30Q104.98-2.10 105.79-1.74L105.79-1.74L105.26 1.17Q104.78 1.03 103.77 0.71Q102.76 0.39 101.50 0.39L101.50 0.39Q100.19 0.39 99.73 0.71Q99.26 1.03 99.26 1.40L99.26 1.40Q99.26 1.70 99.47 1.94Q99.68 2.18 100.03 2.38Q100.38 2.57 100.85 2.75Q101.31 2.94 101.84 3.10L101.84 3.10Q102.60 3.36 103.41 3.66Q104.22 3.97 104.88 4.43Q105.54 4.90 105.96 5.61Q106.38 6.32 106.38 7.36L106.38 7.36Q106.38 8.17 106.07 8.90Q105.76 9.63 105.05 10.16Q104.33 10.69 103.18 11Q102.04 11.31 100.36 11.31L100.36 11.31Q98.65 11.31 97.44 10.92Q96.24 10.52 95.51 10.22L95.51 10.22L96.04 7.33Q97.02 7.72 98.13 8.06Q99.24 8.40 100.38 8.40Z"/>
    </g>
</svg>