<?xml version="1.0" encoding="UTF-8"?>
<svg height="34" width="114.6" version="1.1" xmlns="http://www.w3.org/2000/svg"><!--Created by Josélio de S. C. Júnior - 2021 - https://github.com/joseliojunior -->
    <defs>
        <pattern id="pattern"
                x="3" y="3" width="6" height="6"
                patternUnits="userSpaceOnUse"
                patternTransform="rotate(45)" >
            <rect height="6" width="6"
                fill="#ffffff"/>
            <line x1="0" y1="0" x2="0" y2="6"
                stroke="#888888"
                stroke-width="2" />
        </pattern>
    </defs>
    <rect
        height="32"
        width="112.6"
        rx="16"
        ry="16"
        x="1" y="1"
        fill="url(#pattern)"
        stroke="#000000"
        stroke-width="1" />
    <g transform="translate(0, 12)">
        <path fill="#ffffff" stroke="#000000" d="M24.94 2.40L27.10 2.40Q27.20 2.86 27.39 3.53Q27.58 4.20 27.81 5.02Q28.04 5.83 28.32 6.77Q28.59 7.70 28.86 8.69L28.86 8.69Q28.86 7.44 28.83 6.01Q28.81 4.58 28.78 3.10Q28.76 1.61 28.74 0.08Q28.71-1.44 28.71-2.86L28.71-2.86L31.45-2.86Q31.38-1.03 31.30 0.90Q31.23 2.83 31.14 4.74Q31.04 6.65 30.91 8.50Q30.78 10.34 30.61 12L30.61 12L28.16 12Q27.63 10.49 27.10 8.75Q26.58 7.01 26.05 5.42L26.05 5.42Q25.52 6.94 24.94 8.71Q24.37 10.49 23.89 12L23.89 12L21.44 12Q21.25 10.34 21.10 8.48Q20.96 6.62 20.85 4.72Q20.74 2.81 20.67 0.88Q20.60-1.06 20.55-2.86L20.55-2.86L23.29-2.86Q23.26-1.44 23.24 0.07Q23.22 1.58 23.19 3.08Q23.17 4.58 23.14 6.01Q23.12 7.44 23.12 8.69L23.12 8.69Q23.34 7.92 23.61 7.01Q23.89 6.10 24.14 5.21Q24.39 4.32 24.61 3.58Q24.82 2.83 24.94 2.40L24.94 2.40ZM32.74 6.46L32.74 6.46Q32.74 4.97 33.20 3.84Q33.66 2.71 34.40 1.96Q35.14 1.20 36.10 0.82Q37.06 0.43 38.07 0.43L38.07 0.43Q40.57 0.43 41.86 1.91Q43.16 3.38 43.16 6.22L43.16 6.22Q43.16 6.50 43.15 6.82Q43.14 7.13 43.11 7.32L43.11 7.32L35.79 7.32Q35.79 8.42 36.70 9.06Q37.62 9.70 39.06 9.70L39.06 9.70Q39.94 9.70 40.75 9.50Q41.55 9.31 42.10 9.12L42.10 9.12L42.51 11.64Q41.74 11.90 40.88 12.08Q40.02 12.26 38.94 12.26L38.94 12.26Q37.50 12.26 36.36 11.89Q35.22 11.52 34.41 10.79Q33.61 10.06 33.18 8.98Q32.74 7.90 32.74 6.46ZM35.79 5.28L40.30 5.28Q40.30 4.82 40.18 4.40Q40.06 3.98 39.80 3.65Q39.54 3.31 39.13 3.11Q38.72 2.90 38.12 2.90L38.12 2.90Q37.54 2.90 37.12 3.10Q36.70 3.29 36.43 3.62Q36.15 3.96 36.00 4.39Q35.84 4.82 35.79 5.28L35.79 5.28ZM52.28 6.29L52.28 6.29Q52.28 4.70 51.76 3.86Q51.25 3.02 50.19 3.02L50.19 3.02Q49.71 3.02 49.24 3.16Q48.78 3.29 48.44 3.48L48.44 3.48L48.44 9.60Q48.78 9.67 49.15 9.70Q49.52 9.72 49.78 9.72L49.78 9.72Q50.94 9.72 51.61 8.94Q52.28 8.16 52.28 6.29ZM55.28 6.36L55.28 6.36Q55.28 7.70 54.92 8.80Q54.56 9.89 53.86 10.66Q53.17 11.42 52.16 11.84Q51.15 12.26 49.86 12.26L49.86 12.26Q48.70 12.26 47.50 12.10Q46.30 11.93 45.49 11.66L45.49 11.66L45.49-4.15L48.44-4.66L48.44 0.98Q49.06 0.70 49.64 0.59Q50.22 0.48 50.79 0.48L50.79 0.48Q51.90 0.48 52.74 0.90Q53.58 1.32 54.14 2.10Q54.70 2.88 54.99 3.96Q55.28 5.04 55.28 6.36ZM63.51 12L60.46 12Q59.89 10.34 59.24 8.26Q58.59 6.17 58.02 4.09Q57.44 2.02 56.98 0.17Q56.53-1.68 56.31-2.86L56.31-2.86L59.43-2.86Q59.58-1.70 59.86-0.18Q60.15 1.34 60.50 2.96Q60.85 4.58 61.24 6.16Q61.64 7.73 62.02 8.98L62.02 8.98Q62.41 7.75 62.79 6.18Q63.18 4.61 63.51 2.99Q63.85 1.37 64.14-0.17Q64.42-1.70 64.62-2.86L64.62-2.86L67.71-2.86Q67.42-1.42 67.00 0.36Q66.58 2.14 66.04 4.09Q65.50 6.05 64.86 8.08Q64.21 10.10 63.51 12L63.51 12ZM68.60-2.86L79.40-2.86L79.40-0.41L75.49-0.41L75.49 12L72.51 12L72.51-0.41L68.60-0.41L68.60-2.86ZM80.60-2.86L91.40-2.86L91.40-0.41L87.49-0.41L87.49 12L84.51 12L84.51-0.41L80.60-0.41L80.60-2.86Z"/>
    </g>
</svg>