<?xml version="1.0" encoding="UTF-8"?><svg height="26" width="90.6" version="1.1" xmlns="http://www.w3.org/2000/svg"><!--Created by Josélio de S. C. Júnior - 2021 - https://github.com/joseliojunior --><defs><pattern id="pattern" x="3" y="3" width="6" height="6" patternUnits="userSpaceOnUse" patternTransform="rotate(45)"><rect height="6" width="6" fill="#ffffff"/><line x1="0" y1="0" x2="0" y2="6" stroke="#bbbbbb" stroke-width="2" /></pattern></defs><rect height="24" width="88.6" rx="1" ry="1" x="1" y="1" fill="url(#pattern)" /><g transform="translate(0, 8)"><path fill="#000000" d="M23.30 3.60L24.74 3.60Q24.80 3.90 24.93 4.35Q25.06 4.80 25.21 5.34Q25.36 5.89 25.54 6.51Q25.73 7.14 25.90 7.79L25.90 7.79Q25.90 6.96 25.89 6.01Q25.87 5.06 25.86 4.06Q25.84 3.07 25.82 2.06Q25.81 1.04 25.81 0.10L25.81 0.10L27.63 0.10Q27.58 1.31 27.54 2.60Q27.49 3.89 27.42 5.16Q27.36 6.43 27.27 7.66Q27.18 8.90 27.07 10L27.07 10L25.44 10Q25.09 8.99 24.74 7.83Q24.38 6.67 24.03 5.62L24.03 5.62Q23.68 6.62 23.30 7.81Q22.91 8.99 22.59 10L22.59 10L20.96 10Q20.83 8.90 20.74 7.66Q20.64 6.42 20.57 5.14Q20.50 3.87 20.45 2.58Q20.40 1.30 20.37 0.10L20.37 0.10L22.19 0.10Q22.18 1.04 22.16 2.05Q22.14 3.06 22.13 4.06Q22.11 5.06 22.10 6.01Q22.08 6.96 22.08 7.79L22.08 7.79Q22.22 7.28 22.41 6.67Q22.59 6.06 22.76 5.47Q22.93 4.88 23.07 4.38Q23.22 3.89 23.30 3.60L23.30 3.60ZM28.50 6.30L28.50 6.30Q28.50 5.31 28.80 4.56Q29.10 3.81 29.60 3.30Q30.10 2.80 30.74 2.54Q31.38 2.29 32.05 2.29L32.05 2.29Q33.71 2.29 34.58 3.27Q35.44 4.26 35.44 6.14L35.44 6.14Q35.44 6.34 35.43 6.54Q35.42 6.75 35.41 6.88L35.41 6.88L30.53 6.88Q30.53 7.62 31.14 8.04Q31.74 8.46 32.70 8.46L32.70 8.46Q33.30 8.46 33.83 8.34Q34.37 8.21 34.74 8.08L34.74 8.08L35.01 9.76Q34.50 9.94 33.92 10.06Q33.34 10.18 32.62 10.18L32.62 10.18Q31.66 10.18 30.90 9.93Q30.14 9.68 29.61 9.19Q29.07 8.70 28.78 7.98Q28.50 7.26 28.50 6.30ZM30.53 5.52L33.54 5.52Q33.54 5.22 33.46 4.94Q33.38 4.66 33.20 4.43Q33.02 4.21 32.75 4.07Q32.48 3.94 32.08 3.94L32.08 3.94Q31.70 3.94 31.42 4.06Q31.14 4.19 30.95 4.42Q30.77 4.64 30.66 4.93Q30.56 5.22 30.53 5.52L30.53 5.52ZM41.52 6.19L41.52 6.19Q41.52 5.14 41.18 4.58Q40.83 4.02 40.13 4.02L40.13 4.02Q39.81 4.02 39.50 4.10Q39.18 4.19 38.96 4.32L38.96 4.32L38.96 8.40Q39.18 8.45 39.43 8.46Q39.68 8.48 39.86 8.48L39.86 8.48Q40.62 8.48 41.07 7.96Q41.52 7.44 41.52 6.19ZM43.52 6.24L43.52 6.24Q43.52 7.14 43.28 7.86Q43.04 8.59 42.58 9.10Q42.11 9.62 41.44 9.90Q40.77 10.18 39.90 10.18L39.90 10.18Q39.14 10.18 38.34 10.06Q37.54 9.95 36.99 9.78L36.99 9.78L36.99-0.77L38.96-1.10L38.96 2.66Q39.38 2.46 39.76 2.39Q40.14 2.32 40.53 2.32L40.53 2.32Q41.26 2.32 41.82 2.60Q42.38 2.88 42.76 3.40Q43.14 3.92 43.33 4.64Q43.52 5.36 43.52 6.24ZM49.01 10L46.98 10Q46.59 8.90 46.16 7.50Q45.73 6.11 45.34 4.73Q44.96 3.34 44.66 2.11Q44.35 0.88 44.21 0.10L44.21 0.10L46.29 0.10Q46.38 0.86 46.58 1.88Q46.77 2.90 47 3.98Q47.23 5.06 47.50 6.10Q47.76 7.15 48.02 7.98L48.02 7.98Q48.27 7.17 48.53 6.12Q48.78 5.07 49.01 3.99Q49.23 2.91 49.42 1.89Q49.62 0.86 49.74 0.10L49.74 0.10L51.81 0.10Q51.62 1.06 51.34 2.24Q51.06 3.42 50.70 4.73Q50.34 6.03 49.90 7.38Q49.47 8.74 49.01 10L49.01 10ZM52.40 0.10L59.60 0.10L59.60 1.73L56.99 1.73L56.99 10L55.01 10L55.01 1.73L52.40 1.73L52.40 0.10ZM60.40 0.10L67.60 0.10L67.60 1.73L64.99 1.73L64.99 10L63.01 10L63.01 1.73L60.40 1.73L60.40 0.10Z"/></g></svg>