<?xml version="1.0" encoding="UTF-8"?>
<svg height="26" width="66.3" version="1.1" xmlns="http://www.w3.org/2000/svg"><!--Created by Josélio de S. C. Júnior - 2021 - https://github.com/joseliojunior -->
    <rect
        height="24"
        width="64.3"
        rx="1"
        ry="1"
        x="1" y="1"
        fill="#867db1"
        stroke="#3e375c"
        stroke-width="1" />
    <g transform="translate(0, 8)">
        <path fill="#3e375c" stroke="none" d="M25.01 10L22.98 10Q22.59 8.90 22.16 7.50Q21.73 6.11 21.34 4.73Q20.96 3.34 20.66 2.11Q20.35 0.88 20.21 0.10L20.21 0.10L22.29 0.10Q22.38 0.86 22.58 1.88Q22.77 2.90 23 3.98Q23.23 5.06 23.50 6.10Q23.76 7.15 24.02 7.98L24.02 7.98Q24.27 7.17 24.53 6.12Q24.78 5.07 25.01 3.99Q25.23 2.91 25.42 1.89Q25.62 0.86 25.74 0.10L25.74 0.10L27.81 0.10Q27.62 1.06 27.34 2.24Q27.06 3.42 26.70 4.73Q26.34 6.03 25.90 7.38Q25.47 8.74 25.01 10L25.01 10ZM35.50 7.01L35.50 7.01Q35.50 7.90 35.20 8.50Q34.90 9.10 34.38 9.46Q33.86 9.82 33.14 9.98Q32.43 10.13 31.62 10.13L31.62 10.13Q30.96 10.13 30.26 10.06Q29.55 9.98 28.86 9.84L28.86 9.84L28.86 0.22Q29.42 0.13 30.10 0.06Q30.77-0.02 31.42-0.02L31.42-0.02Q32.54-0.02 33.25 0.22Q33.95 0.45 34.35 0.82Q34.75 1.20 34.90 1.66Q35.04 2.13 35.04 2.59L35.04 2.59Q35.04 3.30 34.70 3.84Q34.35 4.38 33.78 4.70L33.78 4.70Q34.78 5.07 35.14 5.70Q35.50 6.32 35.50 7.01ZM31.89 5.66L30.83 5.66L30.83 8.35Q31.04 8.38 31.29 8.40Q31.54 8.42 31.78 8.42L31.78 8.42Q32.11 8.42 32.43 8.36Q32.75 8.30 33 8.15Q33.25 8 33.41 7.72Q33.57 7.44 33.57 7.01L33.57 7.01Q33.57 6.29 33.11 5.98Q32.66 5.66 31.89 5.66L31.89 5.66ZM30.83 4.03L31.60 4.03Q32.35 4.03 32.74 3.70Q33.12 3.38 33.12 2.80L33.12 2.80Q33.12 2.45 33.01 2.23Q32.90 2.02 32.70 1.90Q32.51 1.78 32.26 1.74Q32 1.70 31.73 1.70L31.73 1.70Q31.50 1.70 31.26 1.71Q31.02 1.73 30.83 1.76L30.83 1.76L30.83 4.03ZM43.86 10L41.74 10L41.28 7.71L38.64 7.71L38.19 10L36.14 10Q36.85 7.07 37.57 4.66Q38.29 2.26 38.96 0.10L38.96 0.10L41.10 0.10Q41.81 2.27 42.50 4.71Q43.20 7.15 43.86 10L43.86 10ZM39.98 2.02L39.98 2.02Q39.82 2.58 39.69 3.08Q39.55 3.58 39.43 4.07Q39.31 4.56 39.21 5.06Q39.10 5.55 39.01 6.08L39.01 6.08L40.94 6.08Q40.85 5.55 40.75 5.06Q40.66 4.56 40.54 4.07Q40.42 3.58 40.28 3.08Q40.14 2.58 39.98 2.02Z"/>
    </g>
</svg>