<?xml version="1.0" encoding="UTF-8"?>
<svg height="34" width="102.5" version="1.1" xmlns="http://www.w3.org/2000/svg"><!--Created by Josélio de S. C. Júnior - 2021 - https://github.com/joseliojunior -->
    <defs>
        <pattern id="pattern"
                x="3" y="3" width="6" height="6"
                patternUnits="userSpaceOnUse"
                patternTransform="rotate(45)" >
            <rect height="6" width="6"
                fill="#ffffff"/>
            <line x1="0" y1="0" x2="0" y2="6"
                stroke="#bbbbbb"
                stroke-width="2" />
        </pattern>
    </defs>
    <rect
        height="32"
        width="100.5"
        rx="16"
        ry="16"
        x="1" y="1"
        fill="url(#pattern)" />
    <g transform="translate(0, 12)">
        <path fill="#000000" d="M21.42-2.86L23.86-2.86Q24.03-2.35 24.28-1.56Q24.54-0.77 24.82 0.14Q25.11 1.06 25.40 1.99Q25.69 2.93 25.95 3.72L25.95 3.72Q26.24 2.83 26.55 1.88Q26.86 0.94 27.15 0.06Q27.44-0.82 27.68-1.58Q27.92-2.35 28.11-2.86L28.11-2.86L30.56-2.86Q30.73-0.91 30.88 0.94Q31.04 2.78 31.15 4.60Q31.26 6.41 31.33 8.24Q31.40 10.08 31.45 12L31.45 12L28.74 12L28.88 0.46L27.06 6.74L24.90 6.74L23.14 0.46L23.26 12L20.55 12Q20.62 10.18 20.71 8.21Q20.79 6.24 20.89 4.30Q20.98 2.35 21.12 0.53Q21.25-1.30 21.42-2.86L21.42-2.86ZM38.82-2.52L38.82-2.52Q38.82-1.66 38.26-1.15Q37.71-0.65 36.94-0.65L36.94-0.65Q36.18-0.65 35.64-1.15Q35.10-1.66 35.10-2.52L35.10-2.52Q35.10-3.41 35.64-3.91Q36.18-4.42 36.94-4.42L36.94-4.42Q37.71-4.42 38.26-3.91Q38.82-3.41 38.82-2.52ZM42.82 9.14L43.21 11.52Q42.30 11.95 41.49 12.11Q40.69 12.26 40.02 12.26L40.02 12.26Q38.86 12.26 38.08 11.93Q37.30 11.59 36.84 10.96Q36.37 10.32 36.18 9.41Q35.98 8.50 35.98 7.32L35.98 7.32L35.98 3.17L32.86 3.17L32.86 0.72L38.94 0.72L38.94 7.70Q38.94 8.71 39.31 9.20Q39.68 9.70 40.54 9.70L40.54 9.70Q40.95 9.70 41.53 9.59Q42.10 9.48 42.82 9.14L42.82 9.14ZM45.51 12L45.51 1.08Q46.30 0.86 47.47 0.67Q48.63 0.48 50 0.48L50 0.48Q51.34 0.48 52.23 0.85Q53.12 1.22 53.64 1.91Q54.15 2.59 54.37 3.54Q54.58 4.49 54.58 5.64L54.58 5.64L54.58 12L51.63 12L51.63 6.02Q51.63 4.44 51.27 3.74Q50.91 3.05 49.81 3.05L49.81 3.05Q49.47 3.05 49.15 3.07Q48.82 3.10 48.46 3.14L48.46 3.14L48.46 12L45.51 12ZM62.82-2.52L62.82-2.52Q62.82-1.66 62.26-1.15Q61.71-0.65 60.94-0.65L60.94-0.65Q60.18-0.65 59.64-1.15Q59.10-1.66 59.10-2.52L59.10-2.52Q59.10-3.41 59.64-3.91Q60.18-4.42 60.94-4.42L60.94-4.42Q61.71-4.42 62.26-3.91Q62.82-3.41 62.82-2.52ZM66.82 9.14L67.21 11.52Q66.30 11.95 65.49 12.11Q64.69 12.26 64.02 12.26L64.02 12.26Q62.86 12.26 62.08 11.93Q61.30 11.59 60.84 10.96Q60.37 10.32 60.18 9.41Q59.98 8.50 59.98 7.32L59.98 7.32L59.98 3.17L56.86 3.17L56.86 0.72L62.94 0.72L62.94 7.70Q62.94 8.71 63.31 9.20Q63.68 9.70 64.54 9.70L64.54 9.70Q64.95 9.70 65.53 9.59Q66.10 9.48 66.82 9.14L66.82 9.14ZM72.25-0.38L72.25 9.60Q72.37 9.62 72.51 9.62Q72.66 9.62 72.78 9.62L72.78 9.62Q73.78 9.62 74.47 9.24Q75.15 8.86 75.57 8.18Q75.99 7.51 76.17 6.59Q76.35 5.66 76.35 4.56L76.35 4.56Q76.35 3.60 76.21 2.69Q76.06 1.78 75.70 1.08Q75.34 0.38 74.72-0.04Q74.10-0.46 73.11-0.46L73.11-0.46Q72.92-0.46 72.68-0.44Q72.44-0.43 72.25-0.38L72.25-0.38ZM79.35 4.56L79.35 4.56Q79.35 6.62 78.84 8.08Q78.32 9.53 77.41 10.44Q76.50 11.35 75.24 11.77Q73.98 12.19 72.46 12.19L72.46 12.19Q71.67 12.19 70.92 12.11Q70.16 12.02 69.30 11.83L69.30 11.83L69.30-2.66Q70.30-2.88 71.19-2.95Q72.08-3.02 72.85-3.02L72.85-3.02Q74.31-3.02 75.52-2.59Q76.74-2.16 77.58-1.24Q78.42-0.31 78.88 1.12Q79.35 2.54 79.35 4.56Z"/>
    </g>
</svg>