<?xml version="1.0" encoding="UTF-8"?>
<svg height="322" width="296.1" version="1.1" xmlns="http://www.w3.org/2000/svg"><!--Created by Josélio de S. C. Júnior - 2021 - https://github.com/joseliojunior -->
    <rect
        height="32"
        width="294.1"
        rx="16"
        ry="16"
        x="1" y="1"
        fill="#5b70bd"
        stroke="#24305b"
        stroke-width="1" />
    <g transform="translate(0, 12)">
        <path fill="#24305b" stroke="none" d="M24.94 2.40L27.10 2.40Q27.20 2.86 27.39 3.53Q27.58 4.20 27.81 5.02Q28.04 5.83 28.32 6.77Q28.59 7.70 28.86 8.69L28.86 8.69Q28.86 7.44 28.83 6.01Q28.81 4.58 28.78 3.10Q28.76 1.61 28.74 0.08Q28.71-1.44 28.71-2.86L28.71-2.86L31.45-2.86Q31.38-1.03 31.30 0.90Q31.23 2.83 31.14 4.74Q31.04 6.65 30.91 8.50Q30.78 10.34 30.61 12L30.61 12L28.16 12Q27.63 10.49 27.10 8.75Q26.58 7.01 26.05 5.42L26.05 5.42Q25.52 6.94 24.94 8.71Q24.37 10.49 23.89 12L23.89 12L21.44 12Q21.25 10.34 21.10 8.48Q20.96 6.62 20.85 4.72Q20.74 2.81 20.67 0.88Q20.60-1.06 20.55-2.86L20.55-2.86L23.29-2.86Q23.26-1.44 23.24 0.07Q23.22 1.58 23.19 3.08Q23.17 4.58 23.14 6.01Q23.12 7.44 23.12 8.69L23.12 8.69Q23.34 7.92 23.61 7.01Q23.89 6.10 24.14 5.21Q24.39 4.32 24.61 3.58Q24.82 2.83 24.94 2.40L24.94 2.40ZM32.74 6.46L32.74 6.46Q32.74 4.97 33.20 3.84Q33.66 2.71 34.40 1.96Q35.14 1.20 36.10 0.82Q37.06 0.43 38.07 0.43L38.07 0.43Q40.57 0.43 41.86 1.91Q43.16 3.38 43.16 6.22L43.16 6.22Q43.16 6.50 43.15 6.82Q43.14 7.13 43.11 7.32L43.11 7.32L35.79 7.32Q35.79 8.42 36.70 9.06Q37.62 9.70 39.06 9.70L39.06 9.70Q39.94 9.70 40.75 9.50Q41.55 9.31 42.10 9.12L42.10 9.12L42.51 11.64Q41.74 11.90 40.88 12.08Q40.02 12.26 38.94 12.26L38.94 12.26Q37.50 12.26 36.36 11.89Q35.22 11.52 34.41 10.79Q33.61 10.06 33.18 8.98Q32.74 7.90 32.74 6.46ZM35.79 5.28L40.30 5.28Q40.30 4.82 40.18 4.40Q40.06 3.98 39.80 3.65Q39.54 3.31 39.13 3.11Q38.72 2.90 38.12 2.90L38.12 2.90Q37.54 2.90 37.12 3.10Q36.70 3.29 36.43 3.62Q36.15 3.96 36.00 4.39Q35.84 4.82 35.79 5.28L35.79 5.28ZM52.28 6.29L52.28 6.29Q52.28 4.70 51.76 3.86Q51.25 3.02 50.19 3.02L50.19 3.02Q49.71 3.02 49.24 3.16Q48.78 3.29 48.44 3.48L48.44 3.48L48.44 9.60Q48.78 9.67 49.15 9.70Q49.52 9.72 49.78 9.72L49.78 9.72Q50.94 9.72 51.61 8.94Q52.28 8.16 52.28 6.29ZM55.28 6.36L55.28 6.36Q55.28 7.70 54.92 8.80Q54.56 9.89 53.86 10.66Q53.17 11.42 52.16 11.84Q51.15 12.26 49.86 12.26L49.86 12.26Q48.70 12.26 47.50 12.10Q46.30 11.93 45.49 11.66L45.49 11.66L45.49-4.15L48.44-4.66L48.44 0.98Q49.06 0.70 49.64 0.59Q50.22 0.48 50.79 0.48L50.79 0.48Q51.90 0.48 52.74 0.90Q53.58 1.32 54.14 2.10Q54.70 2.88 54.99 3.96Q55.28 5.04 55.28 6.36ZM71.65 4.56L71.65 4.56Q71.65 5.64 71.73 6.59Q71.82 7.54 72.07 8.23Q72.32 8.93 72.78 9.34Q73.23 9.74 74 9.74L74 9.74Q74.74 9.74 75.21 9.34Q75.68 8.93 75.93 8.22Q76.18 7.51 76.27 6.58Q76.35 5.64 76.35 4.56L76.35 4.56Q76.35 3.48 76.27 2.53Q76.18 1.58 75.93 0.89Q75.68 0.19 75.22-0.22Q74.77-0.62 74-0.62L74-0.62Q73.23-0.62 72.78-0.22Q72.32 0.19 72.07 0.90Q71.82 1.61 71.73 2.54Q71.65 3.48 71.65 4.56ZM68.65 4.56L68.65 4.56Q68.65 0.72 70.06-1.24Q71.48-3.19 74-3.19L74-3.19Q76.62-3.19 77.98-1.24Q79.35 0.72 79.35 4.56L79.35 4.56Q79.35 8.40 77.96 10.36Q76.57 12.31 74.02 12.31L74.02 12.31Q71.41 12.31 70.03 10.36Q68.65 8.40 68.65 4.56ZM81.51 12L81.51 1.08Q82.30 0.86 83.47 0.67Q84.63 0.48 86 0.48L86 0.48Q87.34 0.48 88.23 0.85Q89.12 1.22 89.64 1.91Q90.15 2.59 90.37 3.54Q90.58 4.49 90.58 5.64L90.58 5.64L90.58 12L87.63 12L87.63 6.02Q87.63 4.44 87.27 3.74Q86.91 3.05 85.81 3.05L85.81 3.05Q85.47 3.05 85.15 3.07Q84.82 3.10 84.46 3.14L84.46 3.14L84.46 12L81.51 12ZM95.43 7.80L95.43 3.17L92.86 3.17L92.86 0.72L95.43 0.72L95.43-2.11L98.38-2.59L98.38 0.72L103.11 0.72L103.11 3.17L98.38 3.17L98.38 7.73Q98.38 8.35 98.50 8.74Q98.62 9.12 98.84 9.34Q99.06 9.55 99.37 9.62Q99.68 9.70 100.06 9.70L100.06 9.70Q100.47 9.70 100.82 9.67Q101.17 9.65 101.49 9.59Q101.82 9.53 102.16 9.41Q102.51 9.29 102.92 9.10L102.92 9.10L103.33 11.64Q102.51 11.98 101.56 12.12Q100.62 12.26 99.73 12.26L99.73 12.26Q98.70 12.26 97.90 12.10Q97.11 11.93 96.56 11.45Q96.01 10.97 95.72 10.09Q95.43 9.22 95.43 7.80L95.43 7.80ZM115.33 6.34L115.33 6.34Q115.33 7.68 114.94 8.77Q114.56 9.86 113.86 10.66Q113.17 11.45 112.20 11.88Q111.22 12.31 110.02 12.31L110.02 12.31Q108.82 12.31 107.85 11.88Q106.88 11.45 106.17 10.66Q105.46 9.86 105.08 8.77Q104.70 7.68 104.70 6.34L104.70 6.34Q104.70 5.02 105.09 3.92Q105.49 2.83 106.20 2.05Q106.90 1.27 107.89 0.85Q108.87 0.43 110.02 0.43L110.02 0.43Q111.20 0.43 112.17 0.85Q113.14 1.27 113.85 2.05Q114.56 2.83 114.94 3.92Q115.33 5.02 115.33 6.34ZM107.70 6.36L107.70 6.36Q107.70 7.87 108.24 8.81Q108.78 9.74 109.98 9.74L109.98 9.74Q111.13 9.74 111.72 8.81Q112.30 7.87 112.30 6.36L112.30 6.36Q112.30 4.85 111.76 3.92Q111.22 3 110.02 3L110.02 3Q108.87 3 108.28 3.92Q107.70 4.85 107.70 6.36ZM126.82 9.14L127.21 11.52Q127.14 11.57 126.88 11.69Q126.63 11.81 126.22 11.94Q125.82 12.07 125.23 12.17Q124.64 12.26 123.90 12.26L123.90 12.26Q121.86 12.26 120.92 11.05Q119.98 9.84 119.98 7.51L119.98 7.51L119.98-2.06L116.86-2.06L116.86-4.51L122.94-4.51L122.94 7.73Q122.94 8.88 123.39 9.29Q123.85 9.70 124.54 9.70L124.54 9.70Q125.43 9.70 126.03 9.46Q126.63 9.22 126.82 9.14L126.82 9.14ZM139.33 6.34L139.33 6.34Q139.33 7.68 138.94 8.77Q138.56 9.86 137.86 10.66Q137.17 11.45 136.20 11.88Q135.22 12.31 134.02 12.31L134.02 12.31Q132.82 12.31 131.85 11.88Q130.88 11.45 130.17 10.66Q129.46 9.86 129.08 8.77Q128.70 7.68 128.70 6.34L128.70 6.34Q128.70 5.02 129.09 3.92Q129.49 2.83 130.20 2.05Q130.90 1.27 131.89 0.85Q132.87 0.43 134.02 0.43L134.02 0.43Q135.20 0.43 136.17 0.85Q137.14 1.27 137.85 2.05Q138.56 2.83 138.94 3.92Q139.33 5.02 139.33 6.34ZM131.70 6.36L131.70 6.36Q131.70 7.87 132.24 8.81Q132.78 9.74 133.98 9.74L133.98 9.74Q135.13 9.74 135.72 8.81Q136.30 7.87 136.30 6.36L136.30 6.36Q136.30 4.85 135.76 3.92Q135.22 3 134.02 3L134.02 3Q132.87 3 132.28 3.92Q131.70 4.85 131.70 6.36ZM143.79 6L143.79 6Q143.79 7.39 144.30 8.12Q144.80 8.86 145.88 8.86L145.88 8.86Q146.36 8.86 146.78 8.74Q147.20 8.62 147.54 8.42L147.54 8.42L147.54 3Q147.20 2.93 146.94 2.90Q146.67 2.88 146.38 2.88L146.38 2.88Q143.79 2.88 143.79 6ZM150.51 1.08L150.51 10.63Q150.51 13.39 149.18 14.71Q147.85 16.03 144.90 16.03L144.90 16.03Q143.84 16.03 142.87 15.82Q141.90 15.60 141.01 15.31L141.01 15.31L141.56 12.82Q142.26 13.08 143.02 13.31Q143.79 13.54 144.94 13.54L144.94 13.54Q145.71 13.54 146.22 13.36Q146.72 13.18 147.01 12.86Q147.30 12.55 147.42 12.13Q147.54 11.71 147.54 11.23L147.54 11.23L147.54 10.78Q146.91 11.02 146.40 11.14Q145.88 11.26 145.28 11.26L145.28 11.26Q143.07 11.26 141.93 9.86Q140.79 8.47 140.79 6L140.79 6Q140.79 3.22 142.33 1.85Q143.86 0.48 146.50 0.48L146.50 0.48Q148.35 0.48 150.51 1.08L150.51 1.08ZM160.30 0.72L163.33 0.72Q162.87 2.30 162.45 3.83Q162.03 5.35 161.58 6.80Q161.12 8.26 160.60 9.65Q160.09 11.04 159.49 12.36L159.49 12.36Q159.03 13.32 158.59 14.02Q158.14 14.71 157.60 15.16Q157.06 15.60 156.40 15.82Q155.74 16.03 154.86 16.03L154.86 16.03Q154.11 16.03 153.50 15.91Q152.89 15.79 152.48 15.60L152.48 15.60L153.03 13.13Q153.51 13.34 153.88 13.43Q154.26 13.51 154.69 13.51L154.69 13.51Q155.55 13.51 156.08 12.94Q156.61 12.36 156.92 11.57L156.92 11.57Q155.86 9.46 154.81 6.73Q153.75 4.01 152.89 0.72L152.89 0.72L155.96 0.72Q156.18 1.61 156.45 2.62Q156.73 3.62 157.04 4.63Q157.35 5.64 157.70 6.61Q158.05 7.58 158.41 8.42L158.41 8.42Q158.65 7.58 158.91 6.61Q159.18 5.64 159.42 4.64Q159.66 3.65 159.88 2.64Q160.11 1.63 160.30 0.72L160.30 0.72ZM187.04 9.55L187.04 12L177.70 12L177.70-2.86L180.68-2.86L180.68 9.55L187.04 9.55ZM194.02 9.89L194.02 9.89Q194.50 9.89 194.96 9.88Q195.42 9.86 195.75 9.82L195.75 9.82L195.75 7.22Q195.46 7.18 195.06 7.14Q194.65 7.10 194.31 7.10L194.31 7.10Q193.86 7.10 193.42 7.16Q192.99 7.22 192.67 7.37Q192.34 7.51 192.15 7.78Q191.96 8.04 191.96 8.47L191.96 8.47Q191.96 9.24 192.54 9.56Q193.11 9.89 194.02 9.89ZM193.76 0.43L193.76 0.43Q195.15 0.43 196.08 0.76Q197 1.08 197.55 1.67Q198.10 2.26 198.34 3.11Q198.58 3.96 198.58 5.02L198.58 5.02L198.58 11.74Q197.94 11.88 196.66 12.07Q195.39 12.26 193.81 12.26L193.81 12.26Q192.73 12.26 191.85 12.07Q190.98 11.88 190.35 11.44Q189.73 10.99 189.39 10.28Q189.06 9.58 189.06 8.54L189.06 8.54Q189.06 7.56 189.44 6.89Q189.82 6.22 190.47 5.81Q191.12 5.40 191.96 5.22Q192.80 5.04 193.71 5.04L193.71 5.04Q194.86 5.04 195.75 5.23L195.75 5.23L195.75 4.87Q195.75 4.03 195.22 3.47Q194.70 2.90 193.40 2.90L193.40 2.90Q192.56 2.90 191.78 3.02Q191 3.14 190.52 3.31L190.52 3.31L190.11 0.94Q190.66 0.74 191.67 0.59Q192.68 0.43 193.76 0.43ZM201.51 12L201.51 1.08Q202.30 0.86 203.47 0.67Q204.63 0.48 206 0.48L206 0.48Q207.34 0.48 208.23 0.85Q209.12 1.22 209.64 1.91Q210.15 2.59 210.37 3.54Q210.58 4.49 210.58 5.64L210.58 5.64L210.58 12L207.63 12L207.63 6.02Q207.63 4.44 207.27 3.74Q206.91 3.05 205.81 3.05L205.81 3.05Q205.47 3.05 205.15 3.07Q204.82 3.10 204.46 3.14L204.46 3.14L204.46 12L201.51 12ZM215.79 6L215.79 6Q215.79 7.39 216.30 8.12Q216.80 8.86 217.88 8.86L217.88 8.86Q218.36 8.86 218.78 8.74Q219.20 8.62 219.54 8.42L219.54 8.42L219.54 3Q219.20 2.93 218.94 2.90Q218.67 2.88 218.38 2.88L218.38 2.88Q215.79 2.88 215.79 6ZM222.51 1.08L222.51 10.63Q222.51 13.39 221.18 14.71Q219.85 16.03 216.90 16.03L216.90 16.03Q215.84 16.03 214.87 15.82Q213.90 15.60 213.01 15.31L213.01 15.31L213.56 12.82Q214.26 13.08 215.02 13.31Q215.79 13.54 216.94 13.54L216.94 13.54Q217.71 13.54 218.22 13.36Q218.72 13.18 219.01 12.86Q219.30 12.55 219.42 12.13Q219.54 11.71 219.54 11.23L219.54 11.23L219.54 10.78Q218.91 11.02 218.40 11.14Q217.88 11.26 217.28 11.26L217.28 11.26Q215.07 11.26 213.93 9.86Q212.79 8.47 212.79 6L212.79 6Q212.79 3.22 214.33 1.85Q215.86 0.48 218.50 0.48L218.50 0.48Q220.35 0.48 222.51 1.08L222.51 1.08ZM234.51 0.72L234.51 11.62Q233.70 11.83 232.53 12.05Q231.37 12.26 230 12.26L230 12.26Q228.61 12.26 227.72 11.88Q226.83 11.50 226.32 10.79Q225.80 10.08 225.61 9.12Q225.42 8.16 225.42 7.01L225.42 7.01L225.42 0.72L228.37 0.72L228.37 6.62Q228.37 8.18 228.74 8.94Q229.11 9.70 230.19 9.70L230.19 9.70Q230.86 9.70 231.54 9.58L231.54 9.58L231.54 0.72L234.51 0.72ZM242.02 9.89L242.02 9.89Q242.50 9.89 242.96 9.88Q243.42 9.86 243.75 9.82L243.75 9.82L243.75 7.22Q243.46 7.18 243.06 7.14Q242.65 7.10 242.31 7.10L242.31 7.10Q241.86 7.10 241.42 7.16Q240.99 7.22 240.67 7.37Q240.34 7.51 240.15 7.78Q239.96 8.04 239.96 8.47L239.96 8.47Q239.96 9.24 240.54 9.56Q241.11 9.89 242.02 9.89ZM241.76 0.43L241.76 0.43Q243.15 0.43 244.08 0.76Q245 1.08 245.55 1.67Q246.10 2.26 246.34 3.11Q246.58 3.96 246.58 5.02L246.58 5.02L246.58 11.74Q245.94 11.88 244.66 12.07Q243.39 12.26 241.81 12.26L241.81 12.26Q240.73 12.26 239.85 12.07Q238.98 11.88 238.35 11.44Q237.73 10.99 237.39 10.28Q237.06 9.58 237.06 8.54L237.06 8.54Q237.06 7.56 237.44 6.89Q237.82 6.22 238.47 5.81Q239.12 5.40 239.96 5.22Q240.80 5.04 241.71 5.04L241.71 5.04Q242.86 5.04 243.75 5.23L243.75 5.23L243.75 4.87Q243.75 4.03 243.22 3.47Q242.70 2.90 241.40 2.90L241.40 2.90Q240.56 2.90 239.78 3.02Q239 3.14 238.52 3.31L238.52 3.31L238.11 0.94Q238.66 0.74 239.67 0.59Q240.68 0.43 241.76 0.43ZM251.79 6L251.79 6Q251.79 7.39 252.30 8.12Q252.80 8.86 253.88 8.86L253.88 8.86Q254.36 8.86 254.78 8.74Q255.20 8.62 255.54 8.42L255.54 8.42L255.54 3Q255.20 2.93 254.94 2.90Q254.67 2.88 254.38 2.88L254.38 2.88Q251.79 2.88 251.79 6ZM258.51 1.08L258.51 10.63Q258.51 13.39 257.18 14.71Q255.85 16.03 252.90 16.03L252.90 16.03Q251.84 16.03 250.87 15.82Q249.90 15.60 249.01 15.31L249.01 15.31L249.56 12.82Q250.26 13.08 251.02 13.31Q251.79 13.54 252.94 13.54L252.94 13.54Q253.71 13.54 254.22 13.36Q254.72 13.18 255.01 12.86Q255.30 12.55 255.42 12.13Q255.54 11.71 255.54 11.23L255.54 11.23L255.54 10.78Q254.91 11.02 254.40 11.14Q253.88 11.26 253.28 11.26L253.28 11.26Q251.07 11.26 249.93 9.86Q248.79 8.47 248.79 6L248.79 6Q248.79 3.22 250.33 1.85Q251.86 0.48 254.50 0.48L254.50 0.48Q256.35 0.48 258.51 1.08L258.51 1.08ZM260.74 6.46L260.74 6.46Q260.74 4.97 261.20 3.84Q261.66 2.71 262.40 1.96Q263.14 1.20 264.10 0.82Q265.06 0.43 266.07 0.43L266.07 0.43Q268.57 0.43 269.86 1.91Q271.16 3.38 271.16 6.22L271.16 6.22Q271.16 6.50 271.15 6.82Q271.14 7.13 271.11 7.32L271.11 7.32L263.79 7.32Q263.79 8.42 264.70 9.06Q265.62 9.70 267.06 9.70L267.06 9.70Q267.94 9.70 268.75 9.50Q269.55 9.31 270.10 9.12L270.10 9.12L270.51 11.64Q269.74 11.90 268.88 12.08Q268.02 12.26 266.94 12.26L266.94 12.26Q265.50 12.26 264.36 11.89Q263.22 11.52 262.41 10.79Q261.61 10.06 261.18 8.98Q260.74 7.90 260.74 6.46ZM263.79 5.28L268.30 5.28Q268.30 4.82 268.18 4.40Q268.06 3.98 267.80 3.65Q267.54 3.31 267.13 3.11Q266.72 2.90 266.12 2.90L266.12 2.90Q265.54 2.90 265.12 3.10Q264.70 3.29 264.43 3.62Q264.15 3.96 264.00 4.39Q263.84 4.82 263.79 5.28L263.79 5.28Z"/>
    </g>
</svg>