<?xml version="1.0" encoding="UTF-8"?><svg height="26" width="212.1" version="1.1" xmlns="http://www.w3.org/2000/svg"><!--Created by Josélio de S. C. Júnior - 2021 - https://github.com/joseliojunior --><rect height="24" width="210.1" rx="1" ry="1" x="1" y="1" fill="#5b70bd" stroke="#24305b" stroke-width="1" /><g transform="translate(0, 8)"><path fill="#24305b" d="M23.30 3.60L24.74 3.60Q24.80 3.90 24.93 4.35Q25.06 4.80 25.21 5.34Q25.36 5.89 25.54 6.51Q25.73 7.14 25.90 7.79L25.90 7.79Q25.90 6.96 25.89 6.01Q25.87 5.06 25.86 4.06Q25.84 3.07 25.82 2.06Q25.81 1.04 25.81 0.10L25.81 0.10L27.63 0.10Q27.58 1.31 27.54 2.60Q27.49 3.89 27.42 5.16Q27.36 6.43 27.27 7.66Q27.18 8.90 27.07 10L27.07 10L25.44 10Q25.09 8.99 24.74 7.83Q24.38 6.67 24.03 5.62L24.03 5.62Q23.68 6.62 23.30 7.81Q22.91 8.99 22.59 10L22.59 10L20.96 10Q20.83 8.90 20.74 7.66Q20.64 6.42 20.57 5.14Q20.50 3.87 20.45 2.58Q20.40 1.30 20.37 0.10L20.37 0.10L22.19 0.10Q22.18 1.04 22.16 2.05Q22.14 3.06 22.13 4.06Q22.11 5.06 22.10 6.01Q22.08 6.96 22.08 7.79L22.08 7.79Q22.22 7.28 22.41 6.67Q22.59 6.06 22.76 5.47Q22.93 4.88 23.07 4.38Q23.22 3.89 23.30 3.60L23.30 3.60ZM28.50 6.30L28.50 6.30Q28.50 5.31 28.80 4.56Q29.10 3.81 29.60 3.30Q30.10 2.80 30.74 2.54Q31.38 2.29 32.05 2.29L32.05 2.29Q33.71 2.29 34.58 3.27Q35.44 4.26 35.44 6.14L35.44 6.14Q35.44 6.34 35.43 6.54Q35.42 6.75 35.41 6.88L35.41 6.88L30.53 6.88Q30.53 7.62 31.14 8.04Q31.74 8.46 32.70 8.46L32.70 8.46Q33.30 8.46 33.83 8.34Q34.37 8.21 34.74 8.08L34.74 8.08L35.01 9.76Q34.50 9.94 33.92 10.06Q33.34 10.18 32.62 10.18L32.62 10.18Q31.66 10.18 30.90 9.93Q30.14 9.68 29.61 9.19Q29.07 8.70 28.78 7.98Q28.50 7.26 28.50 6.30ZM30.53 5.52L33.54 5.52Q33.54 5.22 33.46 4.94Q33.38 4.66 33.20 4.43Q33.02 4.21 32.75 4.07Q32.48 3.94 32.08 3.94L32.08 3.94Q31.70 3.94 31.42 4.06Q31.14 4.19 30.95 4.42Q30.77 4.64 30.66 4.93Q30.56 5.22 30.53 5.52L30.53 5.52ZM41.52 6.19L41.52 6.19Q41.52 5.14 41.18 4.58Q40.83 4.02 40.13 4.02L40.13 4.02Q39.81 4.02 39.50 4.10Q39.18 4.19 38.96 4.32L38.96 4.32L38.96 8.40Q39.18 8.45 39.43 8.46Q39.68 8.48 39.86 8.48L39.86 8.48Q40.62 8.48 41.07 7.96Q41.52 7.44 41.52 6.19ZM43.52 6.24L43.52 6.24Q43.52 7.14 43.28 7.86Q43.04 8.59 42.58 9.10Q42.11 9.62 41.44 9.90Q40.77 10.18 39.90 10.18L39.90 10.18Q39.14 10.18 38.34 10.06Q37.54 9.95 36.99 9.78L36.99 9.78L36.99-0.77L38.96-1.10L38.96 2.66Q39.38 2.46 39.76 2.39Q40.14 2.32 40.53 2.32L40.53 2.32Q41.26 2.32 41.82 2.60Q42.38 2.88 42.76 3.40Q43.14 3.92 43.33 4.64Q43.52 5.36 43.52 6.24ZM54.43 5.04L54.43 5.04Q54.43 5.76 54.49 6.39Q54.54 7.02 54.71 7.49Q54.88 7.95 55.18 8.22Q55.49 8.50 56 8.50L56 8.50Q56.50 8.50 56.81 8.22Q57.12 7.95 57.29 7.48Q57.46 7.01 57.51 6.38Q57.57 5.76 57.57 5.04L57.57 5.04Q57.57 4.32 57.51 3.69Q57.46 3.06 57.29 2.59Q57.12 2.13 56.82 1.86Q56.51 1.58 56 1.58L56 1.58Q55.49 1.58 55.18 1.86Q54.88 2.13 54.71 2.60Q54.54 3.07 54.49 3.70Q54.43 4.32 54.43 5.04ZM52.43 5.04L52.43 5.04Q52.43 2.48 53.38 1.18Q54.32-0.13 56-0.13L56-0.13Q57.74-0.13 58.66 1.18Q59.57 2.48 59.57 5.04L59.57 5.04Q59.57 7.60 58.64 8.90Q57.71 10.21 56.02 10.21L56.02 10.21Q54.27 10.21 53.35 8.90Q52.43 7.60 52.43 5.04ZM61.01 10L61.01 2.72Q61.54 2.58 62.31 2.45Q63.09 2.32 64 2.32L64 2.32Q64.90 2.32 65.49 2.57Q66.08 2.82 66.42 3.27Q66.77 3.73 66.91 4.36Q67.06 4.99 67.06 5.76L67.06 5.76L67.06 10L65.09 10L65.09 6.02Q65.09 4.96 64.85 4.50Q64.61 4.03 63.87 4.03L63.87 4.03Q63.65 4.03 63.43 4.05Q63.22 4.06 62.98 4.10L62.98 4.10L62.98 10L61.01 10ZM70.29 7.20L70.29 4.11L68.58 4.11L68.58 2.48L70.29 2.48L70.29 0.59L72.26 0.27L72.26 2.48L75.41 2.48L75.41 4.11L72.26 4.11L72.26 7.15Q72.26 7.57 72.34 7.82Q72.42 8.08 72.56 8.22Q72.70 8.37 72.91 8.42Q73.12 8.46 73.38 8.46L73.38 8.46Q73.65 8.46 73.88 8.45Q74.11 8.43 74.33 8.39Q74.54 8.35 74.78 8.27Q75.01 8.19 75.28 8.06L75.28 8.06L75.55 9.76Q75.01 9.98 74.38 10.08Q73.74 10.18 73.15 10.18L73.15 10.18Q72.46 10.18 71.94 10.06Q71.41 9.95 71.04 9.63Q70.67 9.31 70.48 8.73Q70.29 8.14 70.29 7.20L70.29 7.20ZM83.55 6.22L83.55 6.22Q83.55 7.12 83.30 7.85Q83.04 8.58 82.58 9.10Q82.11 9.63 81.46 9.92Q80.82 10.21 80.02 10.21L80.02 10.21Q79.22 10.21 78.57 9.92Q77.92 9.63 77.45 9.10Q76.98 8.58 76.72 7.85Q76.46 7.12 76.46 6.22L76.46 6.22Q76.46 5.34 76.73 4.62Q76.99 3.89 77.46 3.37Q77.94 2.85 78.59 2.57Q79.25 2.29 80.02 2.29L80.02 2.29Q80.80 2.29 81.45 2.57Q82.10 2.85 82.57 3.37Q83.04 3.89 83.30 4.62Q83.55 5.34 83.55 6.22ZM78.46 6.24L78.46 6.24Q78.46 7.25 78.82 7.87Q79.18 8.50 79.98 8.50L79.98 8.50Q80.75 8.50 81.14 7.87Q81.54 7.25 81.54 6.24L81.54 6.24Q81.54 5.23 81.18 4.62Q80.82 4 80.02 4L80.02 4Q79.25 4 78.86 4.62Q78.46 5.23 78.46 6.24ZM91.22 8.10L91.47 9.68Q91.42 9.71 91.26 9.79Q91.09 9.87 90.82 9.96Q90.54 10.05 90.15 10.11Q89.76 10.18 89.26 10.18L89.26 10.18Q87.90 10.18 87.28 9.37Q86.66 8.56 86.66 7.01L86.66 7.01L86.66 0.62L84.58 0.62L84.58-1.01L88.62-1.01L88.62 7.15Q88.62 7.92 88.93 8.19Q89.23 8.46 89.70 8.46L89.70 8.46Q90.29 8.46 90.69 8.30Q91.09 8.14 91.22 8.10L91.22 8.10ZM99.55 6.22L99.55 6.22Q99.55 7.12 99.30 7.85Q99.04 8.58 98.58 9.10Q98.11 9.63 97.46 9.92Q96.82 10.21 96.02 10.21L96.02 10.21Q95.22 10.21 94.57 9.92Q93.92 9.63 93.45 9.10Q92.98 8.58 92.72 7.85Q92.46 7.12 92.46 6.22L92.46 6.22Q92.46 5.34 92.73 4.62Q92.99 3.89 93.46 3.37Q93.94 2.85 94.59 2.57Q95.25 2.29 96.02 2.29L96.02 2.29Q96.80 2.29 97.45 2.57Q98.10 2.85 98.57 3.37Q99.04 3.89 99.30 4.62Q99.55 5.34 99.55 6.22ZM94.46 6.24L94.46 6.24Q94.46 7.25 94.82 7.87Q95.18 8.50 95.98 8.50L95.98 8.50Q96.75 8.50 97.14 7.87Q97.54 7.25 97.54 6.24L97.54 6.24Q97.54 5.23 97.18 4.62Q96.82 4 96.02 4L96.02 4Q95.25 4 94.86 4.62Q94.46 5.23 94.46 6.24ZM102.53 6L102.53 6Q102.53 6.93 102.86 7.42Q103.20 7.90 103.92 7.90L103.92 7.90Q104.24 7.90 104.52 7.82Q104.80 7.74 105.02 7.62L105.02 7.62L105.02 4Q104.80 3.95 104.62 3.94Q104.45 3.92 104.26 3.92L104.26 3.92Q102.53 3.92 102.53 6ZM107.01 2.72L107.01 9.09Q107.01 10.93 106.12 11.81Q105.23 12.69 103.26 12.69L103.26 12.69Q102.56 12.69 101.91 12.54Q101.26 12.40 100.67 12.21L100.67 12.21L101.04 10.54Q101.50 10.72 102.02 10.87Q102.53 11.02 103.30 11.02L103.30 11.02Q103.81 11.02 104.14 10.90Q104.48 10.78 104.67 10.58Q104.86 10.37 104.94 10.09Q105.02 9.81 105.02 9.49L105.02 9.49L105.02 9.18Q104.61 9.34 104.26 9.42Q103.92 9.50 103.52 9.50L103.52 9.50Q102.05 9.50 101.29 8.58Q100.53 7.65 100.53 6L100.53 6Q100.53 4.14 101.55 3.23Q102.58 2.32 104.34 2.32L104.34 2.32Q105.57 2.32 107.01 2.72L107.01 2.72ZM113.54 2.48L115.55 2.48Q115.25 3.54 114.97 4.55Q114.69 5.57 114.38 6.54Q114.08 7.50 113.74 8.43Q113.39 9.36 112.99 10.24L112.99 10.24Q112.69 10.88 112.39 11.34Q112.10 11.81 111.74 12.10Q111.38 12.40 110.94 12.54Q110.50 12.69 109.90 12.69L109.90 12.69Q109.41 12.69 109 12.61Q108.59 12.53 108.32 12.40L108.32 12.40L108.69 10.75Q109.01 10.90 109.26 10.95Q109.50 11.01 109.79 11.01L109.79 11.01Q110.37 11.01 110.72 10.62Q111.07 10.24 111.28 9.71L111.28 9.71Q110.58 8.30 109.87 6.49Q109.17 4.67 108.59 2.48L108.59 2.48L110.64 2.48Q110.78 3.07 110.97 3.74Q111.15 4.42 111.36 5.09Q111.57 5.76 111.80 6.41Q112.03 7.06 112.27 7.62L112.27 7.62Q112.43 7.06 112.61 6.41Q112.78 5.76 112.94 5.10Q113.10 4.43 113.26 3.76Q113.41 3.09 113.54 2.48L113.54 2.48ZM131.36 8.37L131.36 10L125.14 10L125.14 0.10L127.12 0.10L127.12 8.37L131.36 8.37ZM136.02 8.59L136.02 8.59Q136.34 8.59 136.64 8.58Q136.94 8.58 137.17 8.54L137.17 8.54L137.17 6.82Q136.98 6.78 136.70 6.76Q136.43 6.74 136.21 6.74L136.21 6.74Q135.90 6.74 135.62 6.78Q135.33 6.82 135.11 6.91Q134.90 7.01 134.77 7.18Q134.64 7.36 134.64 7.65L134.64 7.65Q134.64 8.16 135.02 8.38Q135.41 8.59 136.02 8.59ZM135.84 2.29L135.84 2.29Q136.77 2.29 137.38 2.50Q138 2.72 138.37 3.11Q138.74 3.50 138.90 4.07Q139.06 4.64 139.06 5.34L139.06 5.34L139.06 9.82Q138.62 9.92 137.78 10.05Q136.93 10.18 135.87 10.18L135.87 10.18Q135.15 10.18 134.57 10.05Q133.98 9.92 133.57 9.62Q133.15 9.33 132.93 8.86Q132.70 8.38 132.70 7.70L132.70 7.70Q132.70 7.04 132.96 6.59Q133.22 6.14 133.65 5.87Q134.08 5.60 134.64 5.48Q135.20 5.36 135.81 5.36L135.81 5.36Q136.58 5.36 137.17 5.49L137.17 5.49L137.17 5.25Q137.17 4.69 136.82 4.31Q136.46 3.94 135.60 3.94L135.60 3.94Q135.04 3.94 134.52 4.02Q134 4.10 133.68 4.21L133.68 4.21L133.41 2.62Q133.78 2.50 134.45 2.39Q135.12 2.29 135.84 2.29ZM141.01 10L141.01 2.72Q141.54 2.58 142.31 2.45Q143.09 2.32 144 2.32L144 2.32Q144.90 2.32 145.49 2.57Q146.08 2.82 146.42 3.27Q146.77 3.73 146.91 4.36Q147.06 4.99 147.06 5.76L147.06 5.76L147.06 10L145.09 10L145.09 6.02Q145.09 4.96 144.85 4.50Q144.61 4.03 143.87 4.03L143.87 4.03Q143.65 4.03 143.43 4.05Q143.22 4.06 142.98 4.10L142.98 4.10L142.98 10L141.01 10ZM150.53 6L150.53 6Q150.53 6.93 150.86 7.42Q151.20 7.90 151.92 7.90L151.92 7.90Q152.24 7.90 152.52 7.82Q152.80 7.74 153.02 7.62L153.02 7.62L153.02 4Q152.80 3.95 152.62 3.94Q152.45 3.92 152.26 3.92L152.26 3.92Q150.53 3.92 150.53 6ZM155.01 2.72L155.01 9.09Q155.01 10.93 154.12 11.81Q153.23 12.69 151.26 12.69L151.26 12.69Q150.56 12.69 149.91 12.54Q149.26 12.40 148.67 12.21L148.67 12.21L149.04 10.54Q149.50 10.72 150.02 10.87Q150.53 11.02 151.30 11.02L151.30 11.02Q151.81 11.02 152.14 10.90Q152.48 10.78 152.67 10.58Q152.86 10.37 152.94 10.09Q153.02 9.81 153.02 9.49L153.02 9.49L153.02 9.18Q152.61 9.34 152.26 9.42Q151.92 9.50 151.52 9.50L151.52 9.50Q150.05 9.50 149.29 8.58Q148.53 7.65 148.53 6L148.53 6Q148.53 4.14 149.55 3.23Q150.58 2.32 152.34 2.32L152.34 2.32Q153.57 2.32 155.01 2.72L155.01 2.72ZM163.01 2.48L163.01 9.74Q162.46 9.89 161.69 10.03Q160.91 10.18 160 10.18L160 10.18Q159.07 10.18 158.48 9.92Q157.89 9.66 157.54 9.19Q157.20 8.72 157.07 8.08Q156.94 7.44 156.94 6.67L156.94 6.67L156.94 2.48L158.91 2.48L158.91 6.42Q158.91 7.46 159.16 7.96Q159.41 8.46 160.13 8.46L160.13 8.46Q160.58 8.46 161.02 8.38L161.02 8.38L161.02 2.48L163.01 2.48ZM168.02 8.59L168.02 8.59Q168.34 8.59 168.64 8.58Q168.94 8.58 169.17 8.54L169.17 8.54L169.17 6.82Q168.98 6.78 168.70 6.76Q168.43 6.74 168.21 6.74L168.21 6.74Q167.90 6.74 167.62 6.78Q167.33 6.82 167.11 6.91Q166.90 7.01 166.77 7.18Q166.64 7.36 166.64 7.65L166.64 7.65Q166.64 8.16 167.02 8.38Q167.41 8.59 168.02 8.59ZM167.84 2.29L167.84 2.29Q168.77 2.29 169.38 2.50Q170 2.72 170.37 3.11Q170.74 3.50 170.90 4.07Q171.06 4.64 171.06 5.34L171.06 5.34L171.06 9.82Q170.62 9.92 169.78 10.05Q168.93 10.18 167.87 10.18L167.87 10.18Q167.15 10.18 166.57 10.05Q165.98 9.92 165.57 9.62Q165.15 9.33 164.93 8.86Q164.70 8.38 164.70 7.70L164.70 7.70Q164.70 7.04 164.96 6.59Q165.22 6.14 165.65 5.87Q166.08 5.60 166.64 5.48Q167.20 5.36 167.81 5.36L167.81 5.36Q168.58 5.36 169.17 5.49L169.17 5.49L169.17 5.25Q169.17 4.69 168.82 4.31Q168.46 3.94 167.60 3.94L167.60 3.94Q167.04 3.94 166.52 4.02Q166 4.10 165.68 4.21L165.68 4.21L165.41 2.62Q165.78 2.50 166.45 2.39Q167.12 2.29 167.84 2.29ZM174.53 6L174.53 6Q174.53 6.93 174.86 7.42Q175.20 7.90 175.92 7.90L175.92 7.90Q176.24 7.90 176.52 7.82Q176.80 7.74 177.02 7.62L177.02 7.62L177.02 4Q176.80 3.95 176.62 3.94Q176.45 3.92 176.26 3.92L176.26 3.92Q174.53 3.92 174.53 6ZM179.01 2.72L179.01 9.09Q179.01 10.93 178.12 11.81Q177.23 12.69 175.26 12.69L175.26 12.69Q174.56 12.69 173.91 12.54Q173.26 12.40 172.67 12.21L172.67 12.21L173.04 10.54Q173.50 10.72 174.02 10.87Q174.53 11.02 175.30 11.02L175.30 11.02Q175.81 11.02 176.14 10.90Q176.48 10.78 176.67 10.58Q176.86 10.37 176.94 10.09Q177.02 9.81 177.02 9.49L177.02 9.49L177.02 9.18Q176.61 9.34 176.26 9.42Q175.92 9.50 175.52 9.50L175.52 9.50Q174.05 9.50 173.29 8.58Q172.53 7.65 172.53 6L172.53 6Q172.53 4.14 173.55 3.23Q174.58 2.32 176.34 2.32L176.34 2.32Q177.57 2.32 179.01 2.72L179.01 2.72ZM180.50 6.30L180.50 6.30Q180.50 5.31 180.80 4.56Q181.10 3.81 181.60 3.30Q182.10 2.80 182.74 2.54Q183.38 2.29 184.05 2.29L184.05 2.29Q185.71 2.29 186.58 3.27Q187.44 4.26 187.44 6.14L187.44 6.14Q187.44 6.34 187.43 6.54Q187.42 6.75 187.41 6.88L187.41 6.88L182.53 6.88Q182.53 7.62 183.14 8.04Q183.74 8.46 184.70 8.46L184.70 8.46Q185.30 8.46 185.83 8.34Q186.37 8.21 186.74 8.08L186.74 8.08L187.01 9.76Q186.50 9.94 185.92 10.06Q185.34 10.18 184.62 10.18L184.62 10.18Q183.66 10.18 182.90 9.93Q182.14 9.68 181.61 9.19Q181.07 8.70 180.78 7.98Q180.50 7.26 180.50 6.30ZM182.53 5.52L185.54 5.52Q185.54 5.22 185.46 4.94Q185.38 4.66 185.20 4.43Q185.02 4.21 184.75 4.07Q184.48 3.94 184.08 3.94L184.08 3.94Q183.70 3.94 183.42 4.06Q183.14 4.19 182.95 4.42Q182.77 4.64 182.66 4.93Q182.56 5.22 182.53 5.52L182.53 5.52Z"/></g></svg>