<?xml version="1.0" encoding="UTF-8"?>
<svg height="34" width="106.6" version="1.1" xmlns="http://www.w3.org/2000/svg">
    <rect
        height="32"
        width="104.6"
        rx="14"
        ry="14"
        x="1"
        y="1"
        fill="#003058"
        stroke="#0084f0"
        stroke-width="1"
         />
    <g transform="translate(0, 14)">
        <path fill="#0084f0" d="M18.74-3.73L18.74-3.73Q17.50-3.73 16.66-3.28Q15.82-2.83 15.28-2.03Q14.73-1.24 14.49-0.13Q14.26 0.98 14.26 2.32L14.26 2.32Q14.26 5.43 15.24 6.90Q16.22 8.37 18.12 8.37L18.12 8.37Q18.43 8.37 18.79 8.34Q19.16 8.31 19.46 8.26L19.46 8.26L19.46 1.93L22.91 1.93L22.91 10.58Q22.29 10.80 20.99 11.08Q19.69 11.36 17.84 11.36L17.84 11.36Q16.22 11.36 14.91 10.79Q13.61 10.22 12.69 9.08Q11.76 7.95 11.26 6.25Q10.76 4.56 10.76 2.32L10.76 2.32Q10.76 0.11 11.34-1.59Q11.93-3.28 12.94-4.43Q13.95-5.58 15.32-6.15Q16.69-6.72 18.26-6.72L18.26-6.72Q19.27-6.72 20.07-6.57Q20.86-6.42 21.45-6.22Q22.04-6.02 22.42-5.80Q22.80-5.58 22.99-5.46L22.99-5.46L22.10-2.72Q21.48-3.11 20.58-3.42Q19.69-3.73 18.74-3.73ZM36.88 11L25.76 11L25.76-6.33L36.26-6.33L36.26-3.48L29.21-3.48L29.21 0.42L35.34 0.42L35.34 3.27L29.21 3.27L29.21 8.14L36.88 8.14L36.88 11ZM42.96-3.45L42.96 8.20Q43.10 8.23 43.26 8.23Q43.43 8.23 43.57 8.23L43.57 8.23Q44.75 8.23 45.55 7.78Q46.34 7.33 46.83 6.55Q47.32 5.76 47.53 4.69Q47.74 3.61 47.74 2.32L47.74 2.32Q47.74 1.20 47.58 0.14Q47.41-0.93 46.99-1.74Q46.57-2.55 45.84-3.04Q45.11-3.53 43.96-3.53L43.96-3.53Q43.74-3.53 43.46-3.52Q43.18-3.50 42.96-3.45L42.96-3.45ZM51.24 2.32L51.24 2.32Q51.24 4.73 50.64 6.42Q50.04 8.12 48.98 9.18Q47.91 10.24 46.44 10.73Q44.97 11.22 43.21 11.22L43.21 11.22Q42.28 11.22 41.40 11.13Q40.52 11.03 39.51 10.80L39.51 10.80L39.51-6.11Q40.69-6.36 41.72-6.44Q42.76-6.53 43.66-6.53L43.66-6.53Q45.36-6.53 46.78-6.02Q48.19-5.52 49.17-4.44Q50.15-3.36 50.70-1.70Q51.24-0.03 51.24 2.32ZM60.29 11.36L60.29 11.36Q56.62 11.36 54.69 9.01Q52.76 6.66 52.76 2.32L52.76 2.32Q52.76 0.16 53.34-1.52Q53.93-3.20 54.98-4.36Q56.03-5.52 57.47-6.12Q58.92-6.72 60.62-6.72L60.62-6.72Q61.55-6.72 62.29-6.57Q63.03-6.42 63.59-6.22Q64.15-6.02 64.53-5.80Q64.91-5.58 65.10-5.46L65.10-5.46L64.21-2.72Q63.56-3.14 62.65-3.43Q61.74-3.73 60.57-3.73L60.57-3.73Q59.76-3.73 58.99-3.43Q58.22-3.14 57.61-2.45Q57.01-1.77 56.63-0.62Q56.26 0.53 56.26 2.24L56.26 2.24Q56.26 5.20 57.28 6.79Q58.30 8.37 60.62 8.37L60.62 8.37Q61.97 8.37 62.85 8.06Q63.73 7.75 64.26 7.44L64.26 7.44L65.13 10.16Q64.40 10.61 63.16 10.99Q61.91 11.36 60.29 11.36ZM70.26 2.32L70.26 2.32Q70.26 3.58 70.35 4.69Q70.45 5.79 70.75 6.60Q71.04 7.42 71.57 7.89Q72.10 8.37 73 8.37L73 8.37Q73.87 8.37 74.41 7.89Q74.96 7.42 75.25 6.59Q75.55 5.76 75.65 4.67Q75.74 3.58 75.74 2.32L75.74 2.32Q75.74 1.06 75.65-0.05Q75.55-1.15 75.25-1.96Q74.96-2.78 74.43-3.25Q73.90-3.73 73-3.73L73-3.73Q72.10-3.73 71.57-3.25Q71.04-2.78 70.75-1.95Q70.45-1.12 70.35-0.03Q70.26 1.06 70.26 2.32ZM66.76 2.32L66.76 2.32Q66.76-2.16 68.41-4.44Q70.06-6.72 73-6.72L73-6.72Q76.05-6.72 77.65-4.44Q79.24-2.16 79.24 2.32L79.24 2.32Q79.24 6.80 77.62 9.08Q76.00 11.36 73.03 11.36L73.03 11.36Q69.98 11.36 68.37 9.08Q66.76 6.80 66.76 2.32ZM81.65-6.33L84.51-6.33Q84.70-5.74 85.00-4.82Q85.29-3.90 85.63-2.83Q85.96-1.77 86.30-0.68Q86.64 0.42 86.94 1.34L86.94 1.34Q87.28 0.30 87.64-0.80Q88.01-1.91 88.34-2.93Q88.68-3.95 88.96-4.85Q89.24-5.74 89.46-6.33L89.46-6.33L92.32-6.33Q92.52-4.06 92.70-1.91Q92.88 0.25 93.01 2.36Q93.13 4.48 93.22 6.62Q93.30 8.76 93.36 11L93.36 11L90.19 11L90.36-2.47L88.23 4.87L85.71 4.87L83.67-2.47L83.81 11L80.64 11Q80.73 8.87 80.83 6.58Q80.92 4.28 81.04 2.01Q81.15-0.26 81.30-2.38Q81.46-4.51 81.65-6.33L81.65-6.33Z"/>
    </g>
</svg>