<?xml version="1.0" encoding="UTF-8"?><svg height="26" width="90.6" version="1.1" xmlns="http://www.w3.org/2000/svg"><!--Created by Josélio de S. C. Júnior - 2021 - https://github.com/joseliojunior --><rect height="24" width="88.6" rx="12" ry="12" x="1" y="1" fill="#003058" stroke="#0084f0" stroke-width="1" /><g transform="translate(0, 8)"><path fill="#0084f0" d="M24.99 1.58L24.99 1.58Q24.29 1.58 23.81 1.84Q23.33 2.10 23.02 2.55Q22.70 3.01 22.57 3.64Q22.43 4.27 22.43 5.04L22.43 5.04Q22.43 6.82 22.99 7.66Q23.55 8.50 24.64 8.50L24.64 8.50Q24.82 8.50 25.02 8.48Q25.23 8.46 25.41 8.43L25.41 8.43L25.41 4.82L27.38 4.82L27.38 9.76Q27.02 9.89 26.28 10.05Q25.54 10.21 24.48 10.21L24.48 10.21Q23.55 10.21 22.81 9.88Q22.06 9.55 21.54 8.90Q21.01 8.26 20.72 7.29Q20.43 6.32 20.43 5.04L20.43 5.04Q20.43 3.78 20.77 2.81Q21.10 1.84 21.68 1.18Q22.26 0.53 23.04 0.20Q23.82-0.13 24.72-0.13L24.72-0.13Q25.30-0.13 25.75-0.04Q26.21 0.05 26.54 0.16Q26.88 0.27 27.10 0.40Q27.31 0.53 27.42 0.59L27.42 0.59L26.91 2.16Q26.56 1.94 26.05 1.76Q25.54 1.58 24.99 1.58ZM35.36 10L29.01 10L29.01 0.10L35.01 0.10L35.01 1.73L30.98 1.73L30.98 3.95L34.48 3.95L34.48 5.58L30.98 5.58L30.98 8.37L35.36 8.37L35.36 10ZM38.83 1.74L38.83 8.40Q38.91 8.42 39.01 8.42Q39.10 8.42 39.18 8.42L39.18 8.42Q39.86 8.42 40.31 8.16Q40.77 7.90 41.05 7.46Q41.33 7.01 41.45 6.39Q41.57 5.78 41.57 5.04L41.57 5.04Q41.57 4.40 41.47 3.79Q41.38 3.18 41.14 2.72Q40.90 2.26 40.48 1.98Q40.06 1.70 39.41 1.70L39.41 1.70Q39.28 1.70 39.12 1.70Q38.96 1.71 38.83 1.74L38.83 1.74ZM43.57 5.04L43.57 5.04Q43.57 6.42 43.22 7.38Q42.88 8.35 42.27 8.96Q41.66 9.57 40.82 9.85Q39.98 10.13 38.98 10.13L38.98 10.13Q38.45 10.13 37.94 10.07Q37.44 10.02 36.86 9.89L36.86 9.89L36.86 0.22Q37.54 0.08 38.13 0.03Q38.72-0.02 39.23-0.02L39.23-0.02Q40.21-0.02 41.02 0.27Q41.82 0.56 42.38 1.18Q42.94 1.79 43.26 2.74Q43.57 3.70 43.57 5.04ZM48.74 10.21L48.74 10.21Q46.64 10.21 45.54 8.86Q44.43 7.52 44.43 5.04L44.43 5.04Q44.43 3.81 44.77 2.85Q45.10 1.89 45.70 1.22Q46.30 0.56 47.13 0.22Q47.95-0.13 48.93-0.13L48.93-0.13Q49.46-0.13 49.88-0.04Q50.30 0.05 50.62 0.16Q50.94 0.27 51.16 0.40Q51.38 0.53 51.49 0.59L51.49 0.59L50.98 2.16Q50.61 1.92 50.09 1.75Q49.57 1.58 48.90 1.58L48.90 1.58Q48.43 1.58 47.99 1.75Q47.55 1.92 47.21 2.31Q46.86 2.70 46.65 3.36Q46.43 4.02 46.43 4.99L46.43 4.99Q46.43 6.69 47.02 7.59Q47.60 8.50 48.93 8.50L48.93 8.50Q49.70 8.50 50.20 8.32Q50.70 8.14 51.01 7.97L51.01 7.97L51.50 9.52Q51.09 9.78 50.38 9.99Q49.66 10.21 48.74 10.21ZM54.43 5.04L54.43 5.04Q54.43 5.76 54.49 6.39Q54.54 7.02 54.71 7.49Q54.88 7.95 55.18 8.22Q55.49 8.50 56 8.50L56 8.50Q56.50 8.50 56.81 8.22Q57.12 7.95 57.29 7.48Q57.46 7.01 57.51 6.38Q57.57 5.76 57.57 5.04L57.57 5.04Q57.57 4.32 57.51 3.69Q57.46 3.06 57.29 2.59Q57.12 2.13 56.82 1.86Q56.51 1.58 56 1.58L56 1.58Q55.49 1.58 55.18 1.86Q54.88 2.13 54.71 2.60Q54.54 3.07 54.49 3.70Q54.43 4.32 54.43 5.04ZM52.43 5.04L52.43 5.04Q52.43 2.48 53.38 1.18Q54.32-0.13 56-0.13L56-0.13Q57.74-0.13 58.66 1.18Q59.57 2.48 59.57 5.04L59.57 5.04Q59.57 7.60 58.64 8.90Q57.71 10.21 56.02 10.21L56.02 10.21Q54.27 10.21 53.35 8.90Q52.43 7.60 52.43 5.04ZM60.94 0.10L62.58 0.10Q62.69 0.43 62.86 0.96Q63.02 1.49 63.22 2.10Q63.41 2.70 63.60 3.33Q63.79 3.95 63.97 4.48L63.97 4.48Q64.16 3.89 64.37 3.26Q64.58 2.62 64.77 2.04Q64.96 1.46 65.12 0.94Q65.28 0.43 65.41 0.10L65.41 0.10L67.04 0.10Q67.15 1.39 67.26 2.62Q67.36 3.86 67.43 5.06Q67.50 6.27 67.55 7.50Q67.60 8.72 67.63 10L67.63 10L65.82 10L65.92 2.30L64.70 6.50L63.26 6.50L62.10 2.30L62.18 10L60.37 10Q60.42 8.78 60.47 7.47Q60.53 6.16 60.59 4.86Q60.66 3.57 60.74 2.35Q60.83 1.14 60.94 0.10L60.94 0.10Z"/></g></svg>