<?xml version="1.0" encoding="UTF-8"?>
<svg height="34" width="114.6" version="1.1" xmlns="http://www.w3.org/2000/svg"><!--Created by Josélio de S. C. Júnior - 2021 - https://github.com/joseliojunior -->
    <rect
        height="32"
        width="112.6"
        rx="1"
        ry="1"
        x="1" y="1"
        fill="#003058"
        stroke="#0084f0"
        stroke-width="1" />
    <g transform="translate(0, 12)">
        <path fill="#0084f0" d="M27.49-0.62L27.49-0.62Q26.43-0.62 25.71-0.24Q24.99 0.14 24.52 0.83Q24.06 1.51 23.85 2.46Q23.65 3.41 23.65 4.56L23.65 4.56Q23.65 7.22 24.49 8.48Q25.33 9.74 26.96 9.74L26.96 9.74Q27.22 9.74 27.54 9.72Q27.85 9.70 28.11 9.65L28.11 9.65L28.11 4.22L31.06 4.22L31.06 11.64Q30.54 11.83 29.42 12.07Q28.30 12.31 26.72 12.31L26.72 12.31Q25.33 12.31 24.21 11.82Q23.10 11.33 22.30 10.36Q21.51 9.38 21.08 7.93Q20.65 6.48 20.65 4.56L20.65 4.56Q20.65 2.66 21.15 1.21Q21.66-0.24 22.52-1.22Q23.38-2.21 24.56-2.70Q25.74-3.19 27.08-3.19L27.08-3.19Q27.94-3.19 28.63-3.06Q29.31-2.93 29.82-2.76Q30.32-2.59 30.64-2.40Q30.97-2.21 31.14-2.11L31.14-2.11L30.37 0.24Q29.84-0.10 29.07-0.36Q28.30-0.62 27.49-0.62ZM43.04 12L33.51 12L33.51-2.86L42.51-2.86L42.51-0.41L36.46-0.41L36.46 2.93L41.72 2.93L41.72 5.38L36.46 5.38L36.46 9.55L43.04 9.55L43.04 12ZM48.25-0.38L48.25 9.60Q48.37 9.62 48.51 9.62Q48.66 9.62 48.78 9.62L48.78 9.62Q49.78 9.62 50.47 9.24Q51.15 8.86 51.57 8.18Q51.99 7.51 52.17 6.59Q52.35 5.66 52.35 4.56L52.35 4.56Q52.35 3.60 52.21 2.69Q52.06 1.78 51.70 1.08Q51.34 0.38 50.72-0.04Q50.10-0.46 49.11-0.46L49.11-0.46Q48.92-0.46 48.68-0.44Q48.44-0.43 48.25-0.38L48.25-0.38ZM55.35 4.56L55.35 4.56Q55.35 6.62 54.84 8.08Q54.32 9.53 53.41 10.44Q52.50 11.35 51.24 11.77Q49.98 12.19 48.46 12.19L48.46 12.19Q47.67 12.19 46.92 12.11Q46.16 12.02 45.30 11.83L45.30 11.83L45.30-2.66Q46.30-2.88 47.19-2.95Q48.08-3.02 48.85-3.02L48.85-3.02Q50.31-3.02 51.52-2.59Q52.74-2.16 53.58-1.24Q54.42-0.31 54.88 1.12Q55.35 2.54 55.35 4.56ZM63.10 12.31L63.10 12.31Q59.96 12.31 58.30 10.30Q56.65 8.28 56.65 4.56L56.65 4.56Q56.65 2.71 57.15 1.27Q57.66-0.17 58.56-1.16Q59.46-2.16 60.69-2.68Q61.93-3.19 63.39-3.19L63.39-3.19Q64.18-3.19 64.82-3.06Q65.46-2.93 65.94-2.76Q66.42-2.59 66.74-2.40Q67.06-2.21 67.23-2.11L67.23-2.11L66.46 0.24Q65.91-0.12 65.13-0.37Q64.35-0.62 63.34-0.62L63.34-0.62Q62.65-0.62 61.99-0.37Q61.33-0.12 60.81 0.47Q60.30 1.06 59.97 2.04Q59.65 3.02 59.65 4.49L59.65 4.49Q59.65 7.03 60.52 8.39Q61.40 9.74 63.39 9.74L63.39 9.74Q64.54 9.74 65.30 9.48Q66.06 9.22 66.51 8.95L66.51 8.95L67.26 11.28Q66.63 11.66 65.56 11.99Q64.50 12.31 63.10 12.31ZM71.65 4.56L71.65 4.56Q71.65 5.64 71.73 6.59Q71.82 7.54 72.07 8.23Q72.32 8.93 72.78 9.34Q73.23 9.74 74 9.74L74 9.74Q74.74 9.74 75.21 9.34Q75.68 8.93 75.93 8.22Q76.18 7.51 76.27 6.58Q76.35 5.64 76.35 4.56L76.35 4.56Q76.35 3.48 76.27 2.53Q76.18 1.58 75.93 0.89Q75.68 0.19 75.22-0.22Q74.77-0.62 74-0.62L74-0.62Q73.23-0.62 72.78-0.22Q72.32 0.19 72.07 0.90Q71.82 1.61 71.73 2.54Q71.65 3.48 71.65 4.56ZM68.65 4.56L68.65 4.56Q68.65 0.72 70.06-1.24Q71.48-3.19 74-3.19L74-3.19Q76.62-3.19 77.98-1.24Q79.35 0.72 79.35 4.56L79.35 4.56Q79.35 8.40 77.96 10.36Q76.57 12.31 74.02 12.31L74.02 12.31Q71.41 12.31 70.03 10.36Q68.65 8.40 68.65 4.56ZM81.42-2.86L83.86-2.86Q84.03-2.35 84.28-1.56Q84.54-0.77 84.82 0.14Q85.11 1.06 85.40 1.99Q85.69 2.93 85.95 3.72L85.95 3.72Q86.24 2.83 86.55 1.88Q86.86 0.94 87.15 0.06Q87.44-0.82 87.68-1.58Q87.92-2.35 88.11-2.86L88.11-2.86L90.56-2.86Q90.73-0.91 90.88 0.94Q91.04 2.78 91.15 4.60Q91.26 6.41 91.33 8.24Q91.40 10.08 91.45 12L91.45 12L88.74 12L88.88 0.46L87.06 6.74L84.90 6.74L83.14 0.46L83.26 12L80.55 12Q80.62 10.18 80.71 8.21Q80.79 6.24 80.89 4.30Q80.98 2.35 81.12 0.53Q81.25-1.30 81.42-2.86L81.42-2.86Z"/>
    </g>
</svg>