<?xml version="1.0" encoding="UTF-8"?>
<svg height="26" width="98.69999999999999" version="1.1" xmlns="http://www.w3.org/2000/svg"><!--Created by Josélio de S. C. Júnior - 2021 - https://github.com/joseliojunior -->
    <rect
        height="24"
        width="96.69999999999999"
        rx="1"
        ry="1"
        x="1" y="1"
        fill="#a957b0"
        stroke="#49244c"
        stroke-width="1" />
    <g transform="translate(0, 8)">
        <path fill="#49244c" stroke="none" d="M27.86 10L25.74 10L25.28 7.71L22.64 7.71L22.19 10L20.14 10Q20.85 7.07 21.57 4.66Q22.29 2.26 22.96 0.10L22.96 0.10L25.10 0.10Q25.81 2.27 26.50 4.71Q27.20 7.15 27.86 10L27.86 10ZM23.98 2.02L23.98 2.02Q23.82 2.58 23.69 3.08Q23.55 3.58 23.43 4.07Q23.31 4.56 23.21 5.06Q23.10 5.55 23.01 6.08L23.01 6.08L24.94 6.08Q24.85 5.55 24.75 5.06Q24.66 4.56 24.54 4.07Q24.42 3.58 24.28 3.08Q24.14 2.58 23.98 2.02ZM31.65 8.51L31.65 8.51Q32.37 8.51 32.75 8.41Q33.14 8.30 33.14 7.98L33.14 7.98Q33.14 7.78 33.02 7.63Q32.90 7.49 32.68 7.38Q32.46 7.28 32.18 7.18Q31.90 7.09 31.60 6.99L31.60 6.99Q31.17 6.86 30.72 6.70Q30.27 6.53 29.90 6.27Q29.54 6.02 29.30 5.62Q29.06 5.23 29.06 4.64L29.06 4.64Q29.06 4.16 29.24 3.74Q29.42 3.31 29.82 2.98Q30.21 2.66 30.82 2.47Q31.42 2.29 32.27 2.29L32.27 2.29Q33.01 2.29 33.64 2.40Q34.27 2.51 34.74 2.72L34.74 2.72L34.43 4.38Q34.16 4.30 33.58 4.12Q33.01 3.94 32.29 3.94L32.29 3.94Q31.54 3.94 31.27 4.12Q31.01 4.30 31.01 4.51L31.01 4.51Q31.01 4.69 31.13 4.82Q31.25 4.96 31.45 5.07Q31.65 5.18 31.91 5.29Q32.18 5.39 32.48 5.49L32.48 5.49Q32.91 5.63 33.38 5.81Q33.84 5.98 34.22 6.25Q34.59 6.51 34.83 6.92Q35.07 7.33 35.07 7.92L35.07 7.92Q35.07 8.38 34.90 8.80Q34.72 9.22 34.31 9.52Q33.90 9.82 33.25 10Q32.59 10.18 31.63 10.18L31.63 10.18Q30.66 10.18 29.97 9.95Q29.28 9.73 28.86 9.55L28.86 9.55L29.17 7.90Q29.73 8.13 30.36 8.32Q30.99 8.51 31.65 8.51ZM41.50 6.30L41.50 6.30Q41.50 5.30 41.10 4.65Q40.70 4 39.89 4L39.89 4Q39.66 4 39.41 4.02Q39.15 4.05 38.98 4.06L38.98 4.06L38.98 8.19Q39.17 8.32 39.49 8.40Q39.81 8.48 40.13 8.48L40.13 8.48Q40.83 8.48 41.17 7.91Q41.50 7.34 41.50 6.30ZM43.50 6.24L43.50 6.24Q43.50 7.10 43.31 7.83Q43.12 8.56 42.75 9.08Q42.38 9.60 41.82 9.89Q41.26 10.18 40.53 10.18L40.53 10.18Q39.78 10.18 38.98 9.81L38.98 9.81L38.98 12.64L37.01 12.64L37.01 2.72Q37.55 2.54 38.34 2.43Q39.14 2.32 39.90 2.32L39.90 2.32Q41.65 2.32 42.58 3.38Q43.50 4.43 43.50 6.24ZM44.50 6.30L44.50 6.30Q44.50 5.31 44.80 4.56Q45.10 3.81 45.60 3.30Q46.10 2.80 46.74 2.54Q47.38 2.29 48.05 2.29L48.05 2.29Q49.71 2.29 50.58 3.27Q51.44 4.26 51.44 6.14L51.44 6.14Q51.44 6.34 51.43 6.54Q51.42 6.75 51.41 6.88L51.41 6.88L46.53 6.88Q46.53 7.62 47.14 8.04Q47.74 8.46 48.70 8.46L48.70 8.46Q49.30 8.46 49.83 8.34Q50.37 8.21 50.74 8.08L50.74 8.08L51.01 9.76Q50.50 9.94 49.92 10.06Q49.34 10.18 48.62 10.18L48.62 10.18Q47.66 10.18 46.90 9.93Q46.14 9.68 45.61 9.19Q45.07 8.70 44.78 7.98Q44.50 7.26 44.50 6.30ZM46.53 5.52L49.54 5.52Q49.54 5.22 49.46 4.94Q49.38 4.66 49.20 4.43Q49.02 4.21 48.75 4.07Q48.48 3.94 48.08 3.94L48.08 3.94Q47.70 3.94 47.42 4.06Q47.14 4.19 46.95 4.42Q46.77 4.64 46.66 4.93Q46.56 5.22 46.53 5.52L46.53 5.52ZM52.70 6.24L52.70 6.24Q52.70 5.42 52.96 4.70Q53.22 3.98 53.74 3.45Q54.27 2.91 55.08 2.60Q55.89 2.29 57.01 2.29L57.01 2.29Q57.68 2.29 58.22 2.38Q58.77 2.48 59.33 2.70L59.33 2.70L58.90 4.29Q58.58 4.18 58.18 4.09Q57.79 4 57.18 4L57.18 4Q56.48 4 56.01 4.17Q55.54 4.34 55.25 4.63Q54.96 4.93 54.83 5.34Q54.70 5.76 54.70 6.24L54.70 6.24Q54.70 7.28 55.29 7.87Q55.87 8.46 57.28 8.46L57.28 8.46Q57.74 8.46 58.25 8.40Q58.75 8.34 59.17 8.19L59.17 8.19L59.46 9.81Q59.04 9.97 58.45 10.07Q57.86 10.18 57.06 10.18L57.06 10.18Q55.90 10.18 55.08 9.87Q54.26 9.57 53.73 9.04Q53.20 8.51 52.95 7.79Q52.70 7.07 52.70 6.24ZM62.29 7.20L62.29 4.11L60.58 4.11L60.58 2.48L62.29 2.48L62.29 0.59L64.26 0.27L64.26 2.48L67.41 2.48L67.41 4.11L64.26 4.11L64.26 7.15Q64.26 7.57 64.34 7.82Q64.42 8.08 64.56 8.22Q64.70 8.37 64.91 8.42Q65.12 8.46 65.38 8.46L65.38 8.46Q65.65 8.46 65.88 8.45Q66.11 8.43 66.33 8.39Q66.54 8.35 66.78 8.27Q67.01 8.19 67.28 8.06L67.28 8.06L67.55 9.76Q67.01 9.98 66.38 10.08Q65.74 10.18 65.15 10.18L65.15 10.18Q64.46 10.18 63.94 10.06Q63.41 9.95 63.04 9.63Q62.67 9.31 62.48 8.73Q62.29 8.14 62.29 7.20L62.29 7.20ZM75.01 0.10L75.01 6.69Q75.01 7.41 74.82 8.05Q74.64 8.69 74.22 9.17Q73.79 9.65 73.12 9.93Q72.45 10.21 71.49 10.21L71.49 10.21Q70.48 10.21 69.81 9.95Q69.14 9.70 68.67 9.33L68.67 9.33L69.42 7.76Q69.82 8.02 70.31 8.26Q70.80 8.50 71.31 8.50L71.31 8.50Q72.08 8.50 72.55 8.09Q73.02 7.68 73.02 6.58L73.02 6.58L73.02 1.73L69.71 1.73L69.71 0.10L75.01 0.10Z"/>
    </g>
</svg>