<?xml version="1.0" encoding="UTF-8"?>
<svg height="322" width="126.7" version="1.1" xmlns="http://www.w3.org/2000/svg"><!--Created by Josélio de S. C. Júnior - 2021 - https://github.com/joseliojunior -->
    <rect
        height="32"
        width="124.7"
        rx="1"
        ry="1"
        x="1" y="1"
        fill="#a957b0"
        stroke="#49244c"
        stroke-width="1" />
    <g transform="translate(0, 12)">
        <path fill="#49244c" stroke="none" d="M31.78 12L28.62 12L27.92 8.57L23.96 8.57L23.29 12L20.22 12Q21.27 7.61 22.35 4.00Q23.43 0.38 24.44-2.86L24.44-2.86L27.66-2.86Q28.71 0.41 29.76 4.07Q30.80 7.73 31.78 12L31.78 12ZM25.98 0.02L25.98 0.02Q25.74 0.86 25.53 1.62Q25.33 2.38 25.15 3.11Q24.97 3.84 24.81 4.58Q24.66 5.33 24.51 6.12L24.51 6.12L27.42 6.12Q27.27 5.33 27.13 4.58Q26.98 3.84 26.80 3.11Q26.62 2.38 26.42 1.62Q26.22 0.86 25.98 0.02ZM37.47 9.77L37.47 9.77Q38.55 9.77 39.13 9.61Q39.70 9.46 39.70 8.98L39.70 8.98Q39.70 8.66 39.52 8.45Q39.34 8.23 39.02 8.08Q38.70 7.92 38.28 7.78Q37.86 7.63 37.40 7.49L37.40 7.49Q36.75 7.30 36.08 7.04Q35.41 6.79 34.86 6.41Q34.30 6.02 33.94 5.44Q33.58 4.85 33.58 3.96L33.58 3.96Q33.58 3.24 33.86 2.60Q34.14 1.97 34.72 1.48Q35.31 0.98 36.22 0.71Q37.14 0.43 38.41 0.43L38.41 0.43Q39.51 0.43 40.46 0.60Q41.41 0.77 42.10 1.08L42.10 1.08L41.65 3.58Q41.24 3.46 40.38 3.18Q39.51 2.90 38.43 2.90L38.43 2.90Q37.30 2.90 36.91 3.18Q36.51 3.46 36.51 3.77L36.51 3.77Q36.51 4.03 36.69 4.24Q36.87 4.44 37.17 4.61Q37.47 4.78 37.87 4.93Q38.26 5.09 38.72 5.23L38.72 5.23Q39.37 5.45 40.06 5.71Q40.76 5.98 41.32 6.37Q41.89 6.77 42.25 7.38Q42.61 7.99 42.61 8.88L42.61 8.88Q42.61 9.58 42.34 10.20Q42.08 10.82 41.47 11.28Q40.86 11.74 39.87 12Q38.89 12.26 37.45 12.26L37.45 12.26Q35.98 12.26 34.95 11.93Q33.92 11.59 33.30 11.33L33.30 11.33L33.75 8.86Q34.59 9.19 35.54 9.48Q36.49 9.77 37.47 9.77ZM52.26 6.46L52.26 6.46Q52.26 4.94 51.66 3.97Q51.06 3 49.83 3L49.83 3Q49.50 3 49.11 3.04Q48.73 3.07 48.46 3.10L48.46 3.10L48.46 9.29Q48.75 9.48 49.23 9.60Q49.71 9.72 50.19 9.72L50.19 9.72Q51.25 9.72 51.75 8.87Q52.26 8.02 52.26 6.46ZM55.26 6.36L55.26 6.36Q55.26 7.66 54.97 8.75Q54.68 9.84 54.13 10.62Q53.58 11.40 52.74 11.83Q51.90 12.26 50.79 12.26L50.79 12.26Q49.66 12.26 48.46 11.71L48.46 11.71L48.46 15.96L45.51 15.96L45.51 1.08Q46.33 0.82 47.52 0.65Q48.70 0.48 49.86 0.48L49.86 0.48Q52.47 0.48 53.86 2.06Q55.26 3.65 55.26 6.36ZM56.74 6.46L56.74 6.46Q56.74 4.97 57.20 3.84Q57.66 2.71 58.40 1.96Q59.14 1.20 60.10 0.82Q61.06 0.43 62.07 0.43L62.07 0.43Q64.57 0.43 65.86 1.91Q67.16 3.38 67.16 6.22L67.16 6.22Q67.16 6.50 67.15 6.82Q67.14 7.13 67.11 7.32L67.11 7.32L59.79 7.32Q59.79 8.42 60.70 9.06Q61.62 9.70 63.06 9.70L63.06 9.70Q63.94 9.70 64.75 9.50Q65.55 9.31 66.10 9.12L66.10 9.12L66.51 11.64Q65.74 11.90 64.88 12.08Q64.02 12.26 62.94 12.26L62.94 12.26Q61.50 12.26 60.36 11.89Q59.22 11.52 58.41 10.79Q57.61 10.06 57.18 8.98Q56.74 7.90 56.74 6.46ZM59.79 5.28L64.30 5.28Q64.30 4.82 64.18 4.40Q64.06 3.98 63.80 3.65Q63.54 3.31 63.13 3.11Q62.72 2.90 62.12 2.90L62.12 2.90Q61.54 2.90 61.12 3.10Q60.70 3.29 60.43 3.62Q60.15 3.96 60.00 4.39Q59.84 4.82 59.79 5.28L59.79 5.28ZM69.06 6.36L69.06 6.36Q69.06 5.14 69.44 4.06Q69.82 2.98 70.62 2.17Q71.41 1.37 72.62 0.90Q73.83 0.43 75.51 0.43L75.51 0.43Q76.52 0.43 77.34 0.58Q78.15 0.72 78.99 1.06L78.99 1.06L78.34 3.43Q77.86 3.26 77.28 3.13Q76.69 3 75.78 3L75.78 3Q74.72 3 74.01 3.25Q73.30 3.50 72.87 3.95Q72.44 4.39 72.25 5.02Q72.06 5.64 72.06 6.36L72.06 6.36Q72.06 7.92 72.93 8.81Q73.81 9.70 75.92 9.70L75.92 9.70Q76.62 9.70 77.37 9.60Q78.13 9.50 78.75 9.29L78.75 9.29L79.18 11.71Q78.56 11.95 77.67 12.11Q76.78 12.26 75.58 12.26L75.58 12.26Q73.86 12.26 72.62 11.81Q71.38 11.35 70.59 10.56Q69.80 9.77 69.43 8.69Q69.06 7.61 69.06 6.36ZM83.43 7.80L83.43 3.17L80.86 3.17L80.86 0.72L83.43 0.72L83.43-2.11L86.38-2.59L86.38 0.72L91.11 0.72L91.11 3.17L86.38 3.17L86.38 7.73Q86.38 8.35 86.50 8.74Q86.62 9.12 86.84 9.34Q87.06 9.55 87.37 9.62Q87.68 9.70 88.06 9.70L88.06 9.70Q88.47 9.70 88.82 9.67Q89.17 9.65 89.49 9.59Q89.82 9.53 90.16 9.41Q90.51 9.29 90.92 9.10L90.92 9.10L91.33 11.64Q90.51 11.98 89.56 12.12Q88.62 12.26 87.73 12.26L87.73 12.26Q86.70 12.26 85.90 12.10Q85.11 11.93 84.56 11.45Q84.01 10.97 83.72 10.09Q83.43 9.22 83.43 7.80L83.43 7.80ZM102.51-2.86L102.51 7.03Q102.51 8.11 102.24 9.07Q101.96 10.03 101.32 10.75Q100.69 11.47 99.68 11.89Q98.67 12.31 97.23 12.31L97.23 12.31Q95.72 12.31 94.71 11.93Q93.70 11.54 93.01 10.99L93.01 10.99L94.14 8.64Q94.74 9.02 95.47 9.38Q96.20 9.74 96.97 9.74L96.97 9.74Q98.12 9.74 98.83 9.13Q99.54 8.52 99.54 6.86L99.54 6.86L99.54-0.41L94.57-0.41L94.57-2.86L102.51-2.86Z"/>
    </g>
</svg>