<?xml version="1.0" encoding="UTF-8"?>
<svg height="322" width="78.3" version="1.1" xmlns="http://www.w3.org/2000/svg"><!--Created by Josélio de S. C. Júnior - 2021 - https://github.com/joseliojunior -->
    <defs>
        <pattern id="pattern"
                x="1.5" y="3" width="3" height="6"
                patternUnits="userSpaceOnUse"
                patternTransform="rotate(45)" >
            <rect height="6" width="1" fill="#999999"/>
        </pattern>
    </defs>
    <rect
        height="32"
        width="76.3"
        rx="16"
        ry="16"
        x="1" y="1"
        fill="url(#pattern)"
        stroke="#000000"
        stroke-width="1" />
    <g transform="translate(0, 12)">
        <path fill="#ffffff" stroke="#000000" d="M20.74 6.46L20.74 6.46Q20.74 4.97 21.20 3.84Q21.66 2.71 22.40 1.96Q23.14 1.20 24.10 0.82Q25.06 0.43 26.07 0.43L26.07 0.43Q28.57 0.43 29.86 1.91Q31.16 3.38 31.16 6.22L31.16 6.22Q31.16 6.50 31.15 6.82Q31.14 7.13 31.11 7.32L31.11 7.32L23.79 7.32Q23.79 8.42 24.70 9.06Q25.62 9.70 27.06 9.70L27.06 9.70Q27.94 9.70 28.75 9.50Q29.55 9.31 30.10 9.12L30.10 9.12L30.51 11.64Q29.74 11.90 28.88 12.08Q28.02 12.26 26.94 12.26L26.94 12.26Q25.50 12.26 24.36 11.89Q23.22 11.52 22.41 10.79Q21.61 10.06 21.18 8.98Q20.74 7.90 20.74 6.46ZM23.79 5.28L28.30 5.28Q28.30 4.82 28.18 4.40Q28.06 3.98 27.80 3.65Q27.54 3.31 27.13 3.11Q26.72 2.90 26.12 2.90L26.12 2.90Q25.54 2.90 25.12 3.10Q24.70 3.29 24.43 3.62Q24.15 3.96 24.00 4.39Q23.84 4.82 23.79 5.28L23.79 5.28ZM35.67 6.29L35.67 6.29Q35.67 7.80 36.24 8.76Q36.80 9.72 38.05 9.72L38.05 9.72Q38.41 9.72 38.72 9.70Q39.03 9.67 39.37 9.62L39.37 9.62L39.37 3.48Q39.03 3.29 38.60 3.16Q38.17 3.02 37.69 3.02L37.69 3.02Q36.63 3.02 36.15 3.86Q35.67 4.70 35.67 6.29ZM42.32-4.66L42.32 11.66Q41.50 11.93 40.33 12.10Q39.15 12.26 38.02 12.26L38.02 12.26Q35.38 12.26 34.03 10.70Q32.67 9.14 32.67 6.43L32.67 6.43Q32.67 3.67 33.81 2.08Q34.95 0.48 37.18 0.48L37.18 0.48Q37.78 0.48 38.36 0.61Q38.94 0.74 39.37 0.98L39.37 0.98L39.37-4.15L42.32-4.66ZM45.51 12L45.51 1.08Q46.30 0.86 47.47 0.67Q48.63 0.48 50 0.48L50 0.48Q51.34 0.48 52.23 0.85Q53.12 1.22 53.64 1.91Q54.15 2.59 54.37 3.54Q54.58 4.49 54.58 5.64L54.58 5.64L54.58 12L51.63 12L51.63 6.02Q51.63 4.44 51.27 3.74Q50.91 3.05 49.81 3.05L49.81 3.05Q49.47 3.05 49.15 3.07Q48.82 3.10 48.46 3.14L48.46 3.14L48.46 12L45.51 12Z"/>
    </g>
</svg>