<?xml version="1.0" encoding="UTF-8"?>
<svg height="26" width="66.3" version="1.1" xmlns="http://www.w3.org/2000/svg"><!--Created by Josélio de S. C. Júnior - 2021 - https://github.com/joseliojunior -->
    <defs>
        <pattern id="pattern"
                x="3" y="3" width="6" height="6"
                patternUnits="userSpaceOnUse"
                patternTransform="rotate(45)" >
            <rect height="6" width="6"
                fill="#ffffff"/>
            <line x1="0" y1="0" x2="0" y2="6"
                stroke="#888888"
                stroke-width="2" />
        </pattern>
    </defs>
    <rect
        height="24"
        width="64.3"
        rx="1"
        ry="1"
        x="1" y="1"
        fill="url(#pattern)"
        stroke="#000000"
        stroke-width="1" />
    <g transform="translate(0, 8)">
        <path fill="#ffffff" stroke="#000000" d="M20.50 6.30L20.50 6.30Q20.50 5.31 20.80 4.56Q21.10 3.81 21.60 3.30Q22.10 2.80 22.74 2.54Q23.38 2.29 24.05 2.29L24.05 2.29Q25.71 2.29 26.58 3.27Q27.44 4.26 27.44 6.14L27.44 6.14Q27.44 6.34 27.43 6.54Q27.42 6.75 27.41 6.88L27.41 6.88L22.53 6.88Q22.53 7.62 23.14 8.04Q23.74 8.46 24.70 8.46L24.70 8.46Q25.30 8.46 25.83 8.34Q26.37 8.21 26.74 8.08L26.74 8.08L27.01 9.76Q26.50 9.94 25.92 10.06Q25.34 10.18 24.62 10.18L24.62 10.18Q23.66 10.18 22.90 9.93Q22.14 9.68 21.61 9.19Q21.07 8.70 20.78 7.98Q20.50 7.26 20.50 6.30ZM22.53 5.52L25.54 5.52Q25.54 5.22 25.46 4.94Q25.38 4.66 25.20 4.43Q25.02 4.21 24.75 4.07Q24.48 3.94 24.08 3.94L24.08 3.94Q23.70 3.94 23.42 4.06Q23.14 4.19 22.95 4.42Q22.77 4.64 22.66 4.93Q22.56 5.22 22.53 5.52L22.53 5.52ZM30.45 6.19L30.45 6.19Q30.45 7.20 30.82 7.84Q31.20 8.48 32.03 8.48L32.03 8.48Q32.27 8.48 32.48 8.46Q32.69 8.45 32.91 8.42L32.91 8.42L32.91 4.32Q32.69 4.19 32.40 4.10Q32.11 4.02 31.79 4.02L31.79 4.02Q31.09 4.02 30.77 4.58Q30.45 5.14 30.45 6.19ZM34.88-1.10L34.88 9.78Q34.34 9.95 33.55 10.06Q32.77 10.18 32.02 10.18L32.02 10.18Q30.26 10.18 29.35 9.14Q28.45 8.10 28.45 6.29L28.45 6.29Q28.45 4.45 29.21 3.38Q29.97 2.32 31.46 2.32L31.46 2.32Q31.86 2.32 32.24 2.41Q32.62 2.50 32.91 2.66L32.91 2.66L32.91-0.77L34.88-1.10ZM37.01 10L37.01 2.72Q37.54 2.58 38.31 2.45Q39.09 2.32 40 2.32L40 2.32Q40.90 2.32 41.49 2.57Q42.08 2.82 42.42 3.27Q42.77 3.73 42.91 4.36Q43.06 4.99 43.06 5.76L43.06 5.76L43.06 10L41.09 10L41.09 6.02Q41.09 4.96 40.85 4.50Q40.61 4.03 39.87 4.03L39.87 4.03Q39.65 4.03 39.43 4.05Q39.22 4.06 38.98 4.10L38.98 4.10L38.98 10L37.01 10Z"/>
    </g>
</svg>