<?xml version="1.0" encoding="UTF-8"?>
<svg height="26" width="82.5" version="1.1" xmlns="http://www.w3.org/2000/svg"><!--Created by Josélio de S. C. Júnior - 2021 - https://github.com/joseliojunior -->
    <defs>
        <pattern id="pattern"
                x="3" y="3" width="6" height="6"
                patternUnits="userSpaceOnUse"
                patternTransform="rotate(45)" >
            <rect height="6" width="6"
                fill="#ffffff"/>
            <line x1="0" y1="0" x2="0" y2="6"
                stroke="#888888"
                stroke-width="2" />
        </pattern>
    </defs>
    <rect
        height="24"
        width="80.5"
        rx="12"
        ry="12"
        x="1" y="1"
        fill="url(#pattern)"
        stroke="#000000"
        stroke-width="1" />
    <g transform="translate(0, 8)">
        <path fill="#ffffff" stroke="#000000" d="M27.26 10L25.68 10Q25.01 8.35 24.22 6.71Q23.42 5.07 22.51 3.42L22.51 3.42L22.51 10L20.74 10L20.74 0.10L22.32 0.10Q22.77 0.80 23.22 1.62Q23.66 2.45 24.09 3.26Q24.51 4.08 24.87 4.85Q25.23 5.62 25.49 6.19L25.49 6.19L25.49 0.10L27.26 0.10L27.26 10ZM32.54 0.32L32.54 0.32Q32.54 0.90 32.18 1.23Q31.81 1.57 31.30 1.57L31.30 1.57Q30.78 1.57 30.42 1.23Q30.06 0.90 30.06 0.32L30.06 0.32Q30.06-0.27 30.42-0.61Q30.78-0.94 31.30-0.94L31.30-0.94Q31.81-0.94 32.18-0.61Q32.54-0.27 32.54 0.32ZM35.22 8.10L35.47 9.68Q34.86 9.97 34.33 10.07Q33.79 10.18 33.34 10.18L33.34 10.18Q32.58 10.18 32.06 9.95Q31.54 9.73 31.22 9.30Q30.91 8.88 30.78 8.27Q30.66 7.66 30.66 6.88L30.66 6.88L30.66 4.11L28.58 4.11L28.58 2.48L32.62 2.48L32.62 7.14Q32.62 7.81 32.87 8.14Q33.12 8.46 33.70 8.46L33.70 8.46Q33.97 8.46 34.35 8.39Q34.74 8.32 35.22 8.10L35.22 8.10ZM37.01 10L37.01 2.72Q37.54 2.58 38.31 2.45Q39.09 2.32 40 2.32L40 2.32Q40.90 2.32 41.49 2.57Q42.08 2.82 42.42 3.27Q42.77 3.73 42.91 4.36Q43.06 4.99 43.06 5.76L43.06 5.76L43.06 10L41.09 10L41.09 6.02Q41.09 4.96 40.85 4.50Q40.61 4.03 39.87 4.03L39.87 4.03Q39.65 4.03 39.43 4.05Q39.22 4.06 38.98 4.10L38.98 4.10L38.98 10L37.01 10ZM50.40 2.48L50.40 9.50Q50.40 10.42 50.18 11.03Q49.95 11.65 49.56 12.02Q49.17 12.40 48.63 12.56Q48.10 12.72 47.47 12.72L47.47 12.72Q46.70 12.72 46.05 12.53Q45.39 12.34 44.78 12.03L44.78 12.03L45.39 10.37Q45.79 10.59 46.36 10.79Q46.93 10.99 47.39 10.99L47.39 10.99Q47.89 10.99 48.16 10.70Q48.43 10.40 48.43 9.60L48.43 9.60L48.43 4.11L45.39 4.11L45.39 2.48L50.40 2.48ZM50.16 0.32L50.16 0.32Q50.16 0.90 49.79 1.23Q49.42 1.57 48.91 1.57L48.91 1.57Q48.40 1.57 48.04 1.23Q47.68 0.90 47.68 0.32L47.68 0.32Q47.68-0.27 48.04-0.61Q48.40-0.94 48.91-0.94L48.91-0.94Q49.42-0.94 49.79-0.61Q50.16-0.27 50.16 0.32ZM56.02 8.59L56.02 8.59Q56.34 8.59 56.64 8.58Q56.94 8.58 57.17 8.54L57.17 8.54L57.17 6.82Q56.98 6.78 56.70 6.76Q56.43 6.74 56.21 6.74L56.21 6.74Q55.90 6.74 55.62 6.78Q55.33 6.82 55.11 6.91Q54.90 7.01 54.77 7.18Q54.64 7.36 54.64 7.65L54.64 7.65Q54.64 8.16 55.02 8.38Q55.41 8.59 56.02 8.59ZM55.84 2.29L55.84 2.29Q56.77 2.29 57.38 2.50Q58 2.72 58.37 3.11Q58.74 3.50 58.90 4.07Q59.06 4.64 59.06 5.34L59.06 5.34L59.06 9.82Q58.62 9.92 57.78 10.05Q56.93 10.18 55.87 10.18L55.87 10.18Q55.15 10.18 54.57 10.05Q53.98 9.92 53.57 9.62Q53.15 9.33 52.93 8.86Q52.70 8.38 52.70 7.70L52.70 7.70Q52.70 7.04 52.96 6.59Q53.22 6.14 53.65 5.87Q54.08 5.60 54.64 5.48Q55.20 5.36 55.81 5.36L55.81 5.36Q56.58 5.36 57.17 5.49L57.17 5.49L57.17 5.25Q57.17 4.69 56.82 4.31Q56.46 3.94 55.60 3.94L55.60 3.94Q55.04 3.94 54.52 4.02Q54 4.10 53.68 4.21L53.68 4.21L53.41 2.62Q53.78 2.50 54.45 2.39Q55.12 2.29 55.84 2.29Z"/>
    </g>
</svg>