<?xml version="1.0" encoding="UTF-8"?><svg height="26" width="106.8" version="1.1" xmlns="http://www.w3.org/2000/svg"><!--Created by Josélio de S. C. Júnior - 2021 - https://github.com/joseliojunior --><rect height="24" width="104.8" rx="12" ry="12" x="1" y="1" fill="#701516" stroke="#db4345" stroke-width="1" /><g transform="translate(0, 8)"><path fill="#db4345" d="M25.31 0.10L27.28 0.10L27.28 10L25.31 10L25.31 5.63L22.69 5.63L22.69 10L20.72 10L20.72 0.10L22.69 0.10L22.69 4L25.31 4L25.31 0.10ZM28.40 0.10L35.60 0.10L35.60 1.73L32.99 1.73L32.99 10L31.01 10L31.01 1.73L28.40 1.73L28.40 0.10ZM36.94 0.10L38.58 0.10Q38.69 0.43 38.86 0.96Q39.02 1.49 39.22 2.10Q39.41 2.70 39.60 3.33Q39.79 3.95 39.97 4.48L39.97 4.48Q40.16 3.89 40.37 3.26Q40.58 2.62 40.77 2.04Q40.96 1.46 41.12 0.94Q41.28 0.43 41.41 0.10L41.41 0.10L43.04 0.10Q43.15 1.39 43.26 2.62Q43.36 3.86 43.43 5.06Q43.50 6.27 43.55 7.50Q43.60 8.72 43.63 10L43.63 10L41.82 10L41.92 2.30L40.70 6.50L39.26 6.50L38.10 2.30L38.18 10L36.37 10Q36.42 8.78 36.47 7.47Q36.53 6.16 36.59 4.86Q36.66 3.57 36.74 2.35Q36.83 1.14 36.94 0.10L36.94 0.10ZM51.36 8.37L51.36 10L45.14 10L45.14 0.10L47.12 0.10L47.12 8.37L51.36 8.37ZM52.64 6.61L52.64 4.99L55.15 4.99L55.15 2.21L56.85 2.21L56.85 4.99L59.36 4.99L59.36 6.61L56.85 6.61L56.85 9.39L55.15 9.39L55.15 6.61L52.64 6.61ZM67.36 10L61.01 10L61.01 0.10L67.01 0.10L67.01 1.73L62.98 1.73L62.98 3.95L66.48 3.95L66.48 5.58L62.98 5.58L62.98 8.37L67.36 8.37L67.36 10ZM71.42-0.02L71.42-0.02Q72.27-0.02 72.96 0.18Q73.65 0.37 74.14 0.77Q74.64 1.17 74.90 1.78Q75.17 2.40 75.17 3.23L75.17 3.23Q75.17 4.10 74.82 4.80Q74.46 5.50 73.65 5.87L73.65 5.87Q73.92 6.29 74.22 6.79Q74.53 7.30 74.82 7.85Q75.10 8.40 75.37 8.95Q75.63 9.50 75.82 10L75.82 10L73.76 10Q73.39 9.04 72.90 8.15Q72.42 7.26 71.86 6.35L71.86 6.35L70.83 6.35L70.83 10L68.86 10L68.86 0.24Q69.15 0.18 69.50 0.12Q69.84 0.06 70.19 0.04Q70.54 0.02 70.86 0Q71.18-0.02 71.42-0.02ZM73.17 3.22L73.17 3.22Q73.17 2.43 72.69 2.06Q72.21 1.70 71.42 1.70L71.42 1.70Q71.31 1.70 71.15 1.70Q70.99 1.71 70.83 1.74L70.83 1.74L70.83 4.72L71.26 4.72Q72.27 4.72 72.72 4.33Q73.17 3.94 73.17 3.22ZM83.50 7.01L83.50 7.01Q83.50 7.90 83.20 8.50Q82.90 9.10 82.38 9.46Q81.86 9.82 81.14 9.98Q80.43 10.13 79.62 10.13L79.62 10.13Q78.96 10.13 78.26 10.06Q77.55 9.98 76.86 9.84L76.86 9.84L76.86 0.22Q77.42 0.13 78.10 0.06Q78.77-0.02 79.42-0.02L79.42-0.02Q80.54-0.02 81.25 0.22Q81.95 0.45 82.35 0.82Q82.75 1.20 82.90 1.66Q83.04 2.13 83.04 2.59L83.04 2.59Q83.04 3.30 82.70 3.84Q82.35 4.38 81.78 4.70L81.78 4.70Q82.78 5.07 83.14 5.70Q83.50 6.32 83.50 7.01ZM79.89 5.66L78.83 5.66L78.83 8.35Q79.04 8.38 79.29 8.40Q79.54 8.42 79.78 8.42L79.78 8.42Q80.11 8.42 80.43 8.36Q80.75 8.30 81 8.15Q81.25 8 81.41 7.72Q81.57 7.44 81.57 7.01L81.57 7.01Q81.57 6.29 81.11 5.98Q80.66 5.66 79.89 5.66L79.89 5.66ZM78.83 4.03L79.60 4.03Q80.35 4.03 80.74 3.70Q81.12 3.38 81.12 2.80L81.12 2.80Q81.12 2.45 81.01 2.23Q80.90 2.02 80.70 1.90Q80.51 1.78 80.26 1.74Q80 1.70 79.73 1.70L79.73 1.70Q79.50 1.70 79.26 1.71Q79.02 1.73 78.83 1.76L78.83 1.76L78.83 4.03Z"/></g></svg>