<?xml version="1.0" encoding="UTF-8"?>
<svg height="34" width="138.8" version="1.1" xmlns="http://www.w3.org/2000/svg"><!--Created by Josélio de S. C. Júnior - 2021 - https://github.com/joseliojunior -->
    <rect
        height="32"
        width="136.8"
        rx="1"
        ry="1"
        x="1" y="1"
        fill="#701516"
        stroke="#db4345"
        stroke-width="1" />
    <g transform="translate(0, 12)">
        <path fill="#db4345" d="M27.97-2.86L30.92-2.86L30.92 12L27.97 12L27.97 5.45L24.03 5.45L24.03 12L21.08 12L21.08-2.86L24.03-2.86L24.03 3L27.97 3L27.97-2.86ZM32.60-2.86L43.40-2.86L43.40-0.41L39.49-0.41L39.49 12L36.51 12L36.51-0.41L32.60-0.41L32.60-2.86ZM45.42-2.86L47.86-2.86Q48.03-2.35 48.28-1.56Q48.54-0.77 48.82 0.14Q49.11 1.06 49.40 1.99Q49.69 2.93 49.95 3.72L49.95 3.72Q50.24 2.83 50.55 1.88Q50.86 0.94 51.15 0.06Q51.44-0.82 51.68-1.58Q51.92-2.35 52.11-2.86L52.11-2.86L54.56-2.86Q54.73-0.91 54.88 0.94Q55.04 2.78 55.15 4.60Q55.26 6.41 55.33 8.24Q55.40 10.08 55.45 12L55.45 12L52.74 12L52.88 0.46L51.06 6.74L48.90 6.74L47.14 0.46L47.26 12L44.55 12Q44.62 10.18 44.71 8.21Q44.79 6.24 44.89 4.30Q44.98 2.35 45.12 0.53Q45.25-1.30 45.42-2.86L45.42-2.86ZM67.04 9.55L67.04 12L57.70 12L57.70-2.86L60.68-2.86L60.68 9.55L67.04 9.55ZM68.96 6.91L68.96 4.49L72.73 4.49L72.73 0.31L75.27 0.31L75.27 4.49L79.04 4.49L79.04 6.91L75.27 6.91L75.27 11.09L72.73 11.09L72.73 6.91L68.96 6.91ZM91.04 12L81.51 12L81.51-2.86L90.51-2.86L90.51-0.41L84.46-0.41L84.46 2.93L89.72 2.93L89.72 5.38L84.46 5.38L84.46 9.55L91.04 9.55L91.04 12ZM97.14-3.02L97.14-3.02Q98.41-3.02 99.44-2.74Q100.47-2.45 101.22-1.85Q101.96-1.25 102.36-0.32Q102.75 0.60 102.75 1.85L102.75 1.85Q102.75 3.14 102.22 4.20Q101.70 5.26 100.47 5.81L100.47 5.81Q100.88 6.43 101.34 7.19Q101.79 7.94 102.22 8.77Q102.66 9.60 103.05 10.43Q103.45 11.26 103.74 12L103.74 12L100.64 12Q100.09 10.56 99.36 9.23Q98.62 7.90 97.78 6.53L97.78 6.53L96.25 6.53L96.25 12L93.30 12L93.30-2.64Q93.73-2.74 94.24-2.82Q94.76-2.90 95.29-2.94Q95.82-2.98 96.30-3Q96.78-3.02 97.14-3.02ZM99.75 1.82L99.75 1.82Q99.75 0.65 99.03 0.10Q98.31-0.46 97.14-0.46L97.14-0.46Q96.97-0.46 96.73-0.44Q96.49-0.43 96.25-0.38L96.25-0.38L96.25 4.08L96.90 4.08Q98.41 4.08 99.08 3.49Q99.75 2.90 99.75 1.82ZM115.26 7.51L115.26 7.51Q115.26 8.86 114.80 9.76Q114.34 10.66 113.56 11.20Q112.78 11.74 111.72 11.96Q110.65 12.19 109.42 12.19L109.42 12.19Q108.44 12.19 107.38 12.08Q106.33 11.98 105.30 11.76L105.30 11.76L105.30-2.66Q106.14-2.81 107.14-2.92Q108.15-3.02 109.14-3.02L109.14-3.02Q110.82-3.02 111.87-2.68Q112.93-2.33 113.53-1.76Q114.13-1.20 114.34-0.50Q114.56 0.19 114.56 0.89L114.56 0.89Q114.56 1.94 114.04 2.76Q113.53 3.58 112.66 4.06L112.66 4.06Q114.18 4.61 114.72 5.54Q115.26 6.48 115.26 7.51ZM109.83 5.50L108.25 5.50L108.25 9.53Q108.56 9.58 108.93 9.60Q109.30 9.62 109.66 9.62L109.66 9.62Q110.17 9.62 110.65 9.54Q111.13 9.46 111.50 9.23Q111.87 9 112.11 8.58Q112.35 8.16 112.35 7.51L112.35 7.51Q112.35 6.43 111.67 5.96Q110.98 5.50 109.83 5.50L109.83 5.50ZM108.25 3.05L109.40 3.05Q110.53 3.05 111.10 2.56Q111.68 2.06 111.68 1.20L111.68 1.20Q111.68 0.67 111.51 0.35Q111.34 0.02 111.06-0.16Q110.77-0.34 110.38-0.40Q110-0.46 109.59-0.46L109.59-0.46Q109.26-0.46 108.90-0.43Q108.54-0.41 108.25-0.36L108.25-0.36L108.25 3.05Z"/>
    </g>
</svg>