<?xml version="1.0" encoding="UTF-8"?><svg height="26" width="114.9" version="1.1" xmlns="http://www.w3.org/2000/svg"><!--Created by Josélio de S. C. Júnior - 2021 - https://github.com/joseliojunior --><rect height="24" width="112.9" rx="1" ry="1" x="1" y="1" fill="#198ce7" stroke="#0a375c" stroke-width="1" /><g transform="translate(0, 8)"><path fill="#0a375c" d="M23.42-0.02L23.42-0.02Q24.27-0.02 24.96 0.18Q25.65 0.37 26.14 0.77Q26.64 1.17 26.90 1.78Q27.17 2.40 27.17 3.23L27.17 3.23Q27.17 4.10 26.82 4.80Q26.46 5.50 25.65 5.87L25.65 5.87Q25.92 6.29 26.22 6.79Q26.53 7.30 26.82 7.85Q27.10 8.40 27.37 8.95Q27.63 9.50 27.82 10L27.82 10L25.76 10Q25.39 9.04 24.90 8.15Q24.42 7.26 23.86 6.35L23.86 6.35L22.83 6.35L22.83 10L20.86 10L20.86 0.24Q21.15 0.18 21.50 0.12Q21.84 0.06 22.19 0.04Q22.54 0.02 22.86 0Q23.18-0.02 23.42-0.02ZM25.17 3.22L25.17 3.22Q25.17 2.43 24.69 2.06Q24.21 1.70 23.42 1.70L23.42 1.70Q23.31 1.70 23.15 1.70Q22.99 1.71 22.83 1.74L22.83 1.74L22.83 4.72L23.26 4.72Q24.27 4.72 24.72 4.33Q25.17 3.94 25.17 3.22ZM28.94 0.10L30.58 0.10Q30.69 0.43 30.86 0.96Q31.02 1.49 31.22 2.10Q31.41 2.70 31.60 3.33Q31.79 3.95 31.97 4.48L31.97 4.48Q32.16 3.89 32.37 3.26Q32.58 2.62 32.77 2.04Q32.96 1.46 33.12 0.94Q33.28 0.43 33.41 0.10L33.41 0.10L35.04 0.10Q35.15 1.39 35.26 2.62Q35.36 3.86 35.43 5.06Q35.50 6.27 35.55 7.50Q35.60 8.72 35.63 10L35.63 10L33.82 10L33.92 2.30L32.70 6.50L31.26 6.50L30.10 2.30L30.18 10L28.37 10Q28.42 8.78 28.47 7.47Q28.53 6.16 28.59 4.86Q28.66 3.57 28.74 2.35Q28.83 1.14 28.94 0.10L28.94 0.10ZM40.02 8.59L40.02 8.59Q40.34 8.59 40.64 8.58Q40.94 8.58 41.17 8.54L41.17 8.54L41.17 6.82Q40.98 6.78 40.70 6.76Q40.43 6.74 40.21 6.74L40.21 6.74Q39.90 6.74 39.62 6.78Q39.33 6.82 39.11 6.91Q38.90 7.01 38.77 7.18Q38.64 7.36 38.64 7.65L38.64 7.65Q38.64 8.16 39.02 8.38Q39.41 8.59 40.02 8.59ZM39.84 2.29L39.84 2.29Q40.77 2.29 41.38 2.50Q42 2.72 42.37 3.11Q42.74 3.50 42.90 4.07Q43.06 4.64 43.06 5.34L43.06 5.34L43.06 9.82Q42.62 9.92 41.78 10.05Q40.93 10.18 39.87 10.18L39.87 10.18Q39.15 10.18 38.57 10.05Q37.98 9.92 37.57 9.62Q37.15 9.33 36.93 8.86Q36.70 8.38 36.70 7.70L36.70 7.70Q36.70 7.04 36.96 6.59Q37.22 6.14 37.65 5.87Q38.08 5.60 38.64 5.48Q39.20 5.36 39.81 5.36L39.81 5.36Q40.58 5.36 41.17 5.49L41.17 5.49L41.17 5.25Q41.17 4.69 40.82 4.31Q40.46 3.94 39.60 3.94L39.60 3.94Q39.04 3.94 38.52 4.02Q38 4.10 37.68 4.21L37.68 4.21L37.41 2.62Q37.78 2.50 38.45 2.39Q39.12 2.29 39.84 2.29ZM51.34 2.66L50.99 4.48Q50.80 4.43 50.54 4.38Q50.27 4.34 50 4.30Q49.73 4.26 49.47 4.24Q49.22 4.22 49.04 4.22L49.04 4.22Q48.62 4.22 48.22 4.26Q47.82 4.30 47.41 4.42L47.41 4.42L47.41 10L45.42 10L45.42 2.98Q46.21 2.69 47.03 2.51Q47.86 2.34 48.96 2.34L48.96 2.34Q49.12 2.34 49.42 2.35Q49.71 2.37 50.05 2.41Q50.38 2.45 50.73 2.50Q51.07 2.56 51.34 2.66L51.34 2.66ZM54.99-1.10L54.99 5.46Q55.28 5.12 55.58 4.74Q55.87 4.37 56.15 3.97Q56.43 3.57 56.69 3.19Q56.94 2.82 57.14 2.48L57.14 2.48L59.50 2.48Q59.22 2.85 58.85 3.28Q58.48 3.71 58.09 4.16Q57.70 4.61 57.30 5.02Q56.91 5.44 56.59 5.79L56.59 5.79Q56.99 6.18 57.46 6.71Q57.92 7.25 58.37 7.82Q58.82 8.40 59.19 8.98Q59.57 9.55 59.79 10L59.79 10L57.54 10Q57.34 9.60 57.03 9.10Q56.72 8.59 56.37 8.10Q56.02 7.62 55.66 7.18Q55.30 6.74 54.99 6.45L54.99 6.45L54.99 10L53.01 10L53.01-0.77L54.99-1.10ZM62.45 6.19L62.45 6.19Q62.45 7.20 62.82 7.84Q63.20 8.48 64.03 8.48L64.03 8.48Q64.27 8.48 64.48 8.46Q64.69 8.45 64.91 8.42L64.91 8.42L64.91 4.32Q64.69 4.19 64.40 4.10Q64.11 4.02 63.79 4.02L63.79 4.02Q63.09 4.02 62.77 4.58Q62.45 5.14 62.45 6.19ZM66.88-1.10L66.88 9.78Q66.34 9.95 65.55 10.06Q64.77 10.18 64.02 10.18L64.02 10.18Q62.26 10.18 61.35 9.14Q60.45 8.10 60.45 6.29L60.45 6.29Q60.45 4.45 61.21 3.38Q61.97 2.32 63.46 2.32L63.46 2.32Q63.86 2.32 64.24 2.41Q64.62 2.50 64.91 2.66L64.91 2.66L64.91-0.77L66.88-1.10ZM75.55 6.22L75.55 6.22Q75.55 7.12 75.30 7.85Q75.04 8.58 74.58 9.10Q74.11 9.63 73.46 9.92Q72.82 10.21 72.02 10.21L72.02 10.21Q71.22 10.21 70.57 9.92Q69.92 9.63 69.45 9.10Q68.98 8.58 68.72 7.85Q68.46 7.12 68.46 6.22L68.46 6.22Q68.46 5.34 68.73 4.62Q68.99 3.89 69.46 3.37Q69.94 2.85 70.59 2.57Q71.25 2.29 72.02 2.29L72.02 2.29Q72.80 2.29 73.45 2.57Q74.10 2.85 74.57 3.37Q75.04 3.89 75.30 4.62Q75.55 5.34 75.55 6.22ZM70.46 6.24L70.46 6.24Q70.46 7.25 70.82 7.87Q71.18 8.50 71.98 8.50L71.98 8.50Q72.75 8.50 73.14 7.87Q73.54 7.25 73.54 6.24L73.54 6.24Q73.54 5.23 73.18 4.62Q72.82 4 72.02 4L72.02 4Q71.25 4 70.86 4.62Q70.46 5.23 70.46 6.24ZM82.64 10L81.15 10Q80.98 9.50 80.82 9.09Q80.67 8.67 80.54 8.28Q80.40 7.89 80.26 7.46Q80.13 7.04 79.98 6.53L79.98 6.53Q79.82 7.04 79.70 7.45Q79.57 7.86 79.43 8.26Q79.30 8.66 79.15 9.07Q79.01 9.49 78.80 10L78.80 10L77.31 10Q77.12 9.30 76.95 8.44Q76.78 7.58 76.64 6.62Q76.50 5.65 76.38 4.61Q76.27 3.57 76.18 2.48L76.18 2.48L77.86 2.48Q77.92 3.87 77.99 5.20Q78.06 6.53 78.26 7.94L78.26 7.94Q78.46 7.33 78.62 6.81Q78.77 6.29 78.89 5.82Q79.01 5.34 79.11 4.90Q79.22 4.46 79.33 4L79.33 4L80.75 4Q80.85 4.46 80.95 4.90Q81.06 5.34 81.18 5.82Q81.30 6.29 81.43 6.81Q81.57 7.33 81.76 7.94L81.76 7.94Q81.86 7.20 81.92 6.53Q81.98 5.86 82.02 5.19Q82.06 4.53 82.09 3.86Q82.11 3.20 82.14 2.48L82.14 2.48L83.82 2.48Q83.65 4.67 83.34 6.61Q83.02 8.54 82.64 10L82.64 10ZM85.01 10L85.01 2.72Q85.54 2.58 86.31 2.45Q87.09 2.32 88 2.32L88 2.32Q88.90 2.32 89.49 2.57Q90.08 2.82 90.42 3.27Q90.77 3.73 90.91 4.36Q91.06 4.99 91.06 5.76L91.06 5.76L91.06 10L89.09 10L89.09 6.02Q89.09 4.96 88.85 4.50Q88.61 4.03 87.87 4.03L87.87 4.03Q87.65 4.03 87.43 4.05Q87.22 4.06 86.98 4.10L86.98 4.10L86.98 10L85.01 10Z"/></g></svg>