<?xml version="1.0" encoding="UTF-8"?>
<svg height="34" width="275.79999999999995" version="1.1" xmlns="http://www.w3.org/2000/svg">
    <rect
        height="32"
        width="273.79999999999995"
        rx="1"
        ry="1"
        x="1"
        y="1"
        fill="#4e3617"
        stroke="#c4893b"
        stroke-width="1"
         />
    <g transform="translate(0, 14)">
        <path fill="#c4893b" d="M16.94 11.36L16.94 11.36Q15.26 11.36 14.13 10.90Q13.00 10.44 12.32 9.57Q11.65 8.70 11.37 7.47Q11.09 6.24 11.09 4.73L11.09 4.73L11.09-6.33L14.56-6.33L14.56 4.50Q14.56 5.60 14.68 6.34Q14.79 7.08 15.05 7.53Q15.32 7.98 15.80 8.17Q16.27 8.37 17 8.37L17 8.37Q17.73 8.37 18.20 8.17Q18.68 7.98 18.96 7.51Q19.24 7.05 19.35 6.31Q19.46 5.57 19.46 4.48L19.46 4.48L19.46-6.33L22.91-6.33L22.91 4.73Q22.91 6.24 22.63 7.47Q22.35 8.70 21.65 9.57Q20.95 10.44 19.80 10.90Q18.65 11.36 16.94 11.36ZM25.76 11L25.76-1.74Q26.69-1.99 28.05-2.22Q29.40-2.44 31-2.44L31-2.44Q32.57-2.44 33.60-2.01Q34.64-1.57 35.24-0.77Q35.84 0.02 36.10 1.13Q36.35 2.24 36.35 3.58L36.35 3.58L36.35 11L32.90 11L32.90 4.03Q32.90 2.18 32.48 1.37Q32.06 0.56 30.78 0.56L30.78 0.56Q30.38 0.56 30.01 0.58Q29.63 0.61 29.21 0.67L29.21 0.67L29.21 11L25.76 11ZM45.95-5.94L45.95-5.94Q45.95-4.93 45.31-4.34Q44.66-3.76 43.77-3.76L43.77-3.76Q42.87-3.76 42.24-4.34Q41.61-4.93 41.61-5.94L41.61-5.94Q41.61-6.98 42.24-7.56Q42.87-8.15 43.77-8.15L43.77-8.15Q44.66-8.15 45.31-7.56Q45.95-6.98 45.95-5.94ZM50.63 7.67L51.08 10.44Q50.01 10.94 49.07 11.13Q48.14 11.31 47.35 11.31L47.35 11.31Q46.01 11.31 45.10 10.92Q44.19 10.52 43.64 9.78Q43.10 9.04 42.87 7.98Q42.65 6.91 42.65 5.54L42.65 5.54L42.65 0.70L39.01 0.70L39.01-2.16L46.09-2.16L46.09 5.99Q46.09 7.16 46.53 7.74Q46.96 8.31 47.97 8.31L47.97 8.31Q48.44 8.31 49.12 8.19Q49.79 8.06 50.63 7.67L50.63 7.67ZM59.36 11L55.89 11L55.89 0.70L53.01 0.70L53.01-2.16L55.89-2.16L55.89-2.92Q55.89-4.51 56.35-5.56Q56.82-6.61 57.60-7.24Q58.38-7.87 59.39-8.14Q60.40-8.40 61.46-8.40L61.46-8.40Q62.56-8.40 63.70-8.21Q64.85-8.01 65.78-7.56L65.78-7.56L65.19-4.76Q64.54-4.99 63.58-5.23Q62.61-5.46 61.74-5.46L61.74-5.46Q61.27-5.46 60.83-5.38Q60.40-5.30 60.08-5.02Q59.76-4.74 59.56-4.22Q59.36-3.70 59.36-2.86L59.36-2.86L59.36-2.16L64.77-2.16L64.77 0.70L59.36 0.70L59.36 11ZM73.95-5.94L73.95-5.94Q73.95-4.93 73.31-4.34Q72.66-3.76 71.77-3.76L71.77-3.76Q70.87-3.76 70.24-4.34Q69.61-4.93 69.61-5.94L69.61-5.94Q69.61-6.98 70.24-7.56Q70.87-8.15 71.77-8.15L71.77-8.15Q72.66-8.15 73.31-7.56Q73.95-6.98 73.95-5.94ZM78.63 7.67L79.08 10.44Q78.01 10.94 77.07 11.13Q76.14 11.31 75.35 11.31L75.35 11.31Q74.01 11.31 73.10 10.92Q72.19 10.52 71.64 9.78Q71.10 9.04 70.87 7.98Q70.65 6.91 70.65 5.54L70.65 5.54L70.65 0.70L67.01 0.70L67.01-2.16L74.09-2.16L74.09 5.99Q74.09 7.16 74.53 7.74Q74.96 8.31 75.97 8.31L75.97 8.31Q76.44 8.31 77.12 8.19Q77.79 8.06 78.63 7.67L78.63 7.67ZM80.87 4.53L80.87 4.53Q80.87 2.80 81.40 1.48Q81.93 0.16 82.80-0.72Q83.67-1.60 84.79-2.05Q85.91-2.50 87.08-2.50L87.08-2.50Q90.00-2.50 91.51-0.77Q93.02 0.95 93.02 4.25L93.02 4.25Q93.02 4.59 93.01 4.95Q92.99 5.32 92.96 5.54L92.96 5.54L84.42 5.54Q84.42 6.83 85.49 7.57Q86.55 8.31 88.23 8.31L88.23 8.31Q89.27 8.31 90.21 8.09Q91.14 7.86 91.79 7.64L91.79 7.64L92.26 10.58Q91.37 10.89 90.36 11.10Q89.35 11.31 88.09 11.31L88.09 11.31Q86.41 11.31 85.08 10.87Q83.75 10.44 82.81 9.59Q81.88 8.73 81.37 7.47Q80.87 6.21 80.87 4.53ZM84.42 3.16L89.69 3.16Q89.69 2.63 89.55 2.14Q89.41 1.65 89.10 1.26Q88.79 0.86 88.32 0.63Q87.84 0.39 87.14 0.39L87.14 0.39Q86.47 0.39 85.98 0.61Q85.49 0.84 85.17 1.23Q84.84 1.62 84.66 2.12Q84.48 2.63 84.42 3.16L84.42 3.16ZM98.28 4.34L98.28 4.34Q98.28 6.10 98.94 7.22Q99.60 8.34 101.06 8.34L101.06 8.34Q101.48 8.34 101.84 8.31Q102.20 8.28 102.60 8.23L102.60 8.23L102.60 1.06Q102.20 0.84 101.70 0.68Q101.20 0.53 100.64 0.53L100.64 0.53Q99.40 0.53 98.84 1.51Q98.28 2.49 98.28 4.34ZM106.04-8.43L106.04 10.61Q105.09 10.92 103.72 11.11Q102.34 11.31 101.03 11.31L101.03 11.31Q97.95 11.31 96.37 9.49Q94.78 7.67 94.78 4.50L94.78 4.50Q94.78 1.28 96.11-0.58Q97.44-2.44 100.05-2.44L100.05-2.44Q100.75-2.44 101.42-2.29Q102.09-2.13 102.60-1.85L102.60-1.85L102.60-7.84L106.04-8.43ZM128.27-6.53L128.27-6.53Q131.58-6.53 133.40-5.17Q135.22-3.81 135.22-0.73L135.22-0.73Q135.22 2.38 133.38 3.76Q131.55 5.15 128.19 5.15L128.19 5.15L126.96 5.15L126.96 11L123.51 11L123.51-6.11Q124.02-6.22 124.65-6.30Q125.28-6.39 125.92-6.43Q126.56-6.47 127.18-6.50Q127.80-6.53 128.27-6.53ZM128.66-3.53L128.66-3.53Q128.36-3.53 127.81-3.52Q127.26-3.50 126.96-3.45L126.96-3.45L126.96 2.15L128.36 2.15Q130.01 2.15 130.85 1.49Q131.69 0.84 131.69-0.76L131.69-0.76Q131.69-2.27 130.86-2.90Q130.04-3.53 128.66-3.53ZM143.03 8.54L143.03 8.54Q143.59 8.54 144.12 8.52Q144.65 8.51 145.04 8.45L145.04 8.45L145.04 5.43Q144.71 5.37 144.23 5.33Q143.76 5.29 143.36 5.29L143.36 5.29Q142.83 5.29 142.33 5.36Q141.82 5.43 141.45 5.60Q141.07 5.76 140.84 6.07Q140.62 6.38 140.62 6.88L140.62 6.88Q140.62 7.78 141.29 8.16Q141.96 8.54 143.03 8.54ZM142.72-2.50L142.72-2.50Q144.34-2.50 145.42-2.12Q146.50-1.74 147.14-1.05Q147.79-0.37 148.07 0.63Q148.35 1.62 148.35 2.85L148.35 2.85L148.35 10.69Q147.59 10.86 146.11 11.08Q144.62 11.31 142.78 11.31L142.78 11.31Q141.52 11.31 140.49 11.08Q139.47 10.86 138.74 10.34Q138.02 9.82 137.62 9.00Q137.23 8.17 137.23 6.97L137.23 6.97Q137.23 5.82 137.68 5.04Q138.13 4.25 138.88 3.78Q139.64 3.30 140.62 3.09Q141.60 2.88 142.66 2.88L142.66 2.88Q144.01 2.88 145.04 3.10L145.04 3.10L145.04 2.68Q145.04 1.70 144.43 1.05Q143.81 0.39 142.30 0.39L142.30 0.39Q141.32 0.39 140.41 0.53Q139.50 0.67 138.94 0.86L138.94 0.86L138.46-1.91Q139.11-2.13 140.28-2.31Q141.46-2.50 142.72-2.50ZM162.85-1.85L162.24 1.34Q161.90 1.26 161.44 1.17Q160.98 1.09 160.50 1.02Q160.02 0.95 159.58 0.92Q159.13 0.89 158.82 0.89L158.82 0.89Q158.09 0.89 157.39 0.96Q156.69 1.03 155.96 1.23L155.96 1.23L155.96 11L152.49 11L152.49-1.29Q153.86-1.80 155.31-2.10Q156.75-2.41 158.68-2.41L158.68-2.41Q158.96-2.41 159.48-2.38Q160.00-2.36 160.58-2.29Q161.17-2.22 161.77-2.12Q162.38-2.02 162.85-1.85L162.85-1.85ZM171.03 8.54L171.03 8.54Q171.59 8.54 172.12 8.52Q172.65 8.51 173.04 8.45L173.04 8.45L173.04 5.43Q172.71 5.37 172.23 5.33Q171.76 5.29 171.36 5.29L171.36 5.29Q170.83 5.29 170.33 5.36Q169.82 5.43 169.45 5.60Q169.07 5.76 168.84 6.07Q168.62 6.38 168.62 6.88L168.62 6.88Q168.62 7.78 169.29 8.16Q169.96 8.54 171.03 8.54ZM170.72-2.50L170.72-2.50Q172.34-2.50 173.42-2.12Q174.50-1.74 175.14-1.05Q175.79-0.37 176.07 0.63Q176.35 1.62 176.35 2.85L176.35 2.85L176.35 10.69Q175.59 10.86 174.11 11.08Q172.62 11.31 170.78 11.31L170.78 11.31Q169.52 11.31 168.49 11.08Q167.47 10.86 166.74 10.34Q166.02 9.82 165.62 9.00Q165.23 8.17 165.23 6.97L165.23 6.97Q165.23 5.82 165.68 5.04Q166.13 4.25 166.88 3.78Q167.64 3.30 168.62 3.09Q169.60 2.88 170.66 2.88L170.66 2.88Q172.01 2.88 173.04 3.10L173.04 3.10L173.04 2.68Q173.04 1.70 172.43 1.05Q171.81 0.39 170.30 0.39L170.30 0.39Q169.32 0.39 168.41 0.53Q167.50 0.67 166.94 0.86L166.94 0.86L166.46-1.91Q167.11-2.13 168.28-2.31Q169.46-2.50 170.72-2.50ZM190.63 7.67L191.08 10.44Q190.99 10.50 190.70 10.64Q190.40 10.78 189.93 10.93Q189.45 11.08 188.77 11.20Q188.08 11.31 187.21 11.31L187.21 11.31Q184.83 11.31 183.74 9.89Q182.65 8.48 182.65 5.76L182.65 5.76L182.65-5.41L179.01-5.41L179.01-8.26L186.09-8.26L186.09 6.02Q186.09 7.36 186.62 7.84Q187.16 8.31 187.97 8.31L187.97 8.31Q189.00 8.31 189.70 8.03Q190.40 7.75 190.63 7.67L190.63 7.67ZM204.63 7.67L205.08 10.44Q204.99 10.50 204.70 10.64Q204.40 10.78 203.93 10.93Q203.45 11.08 202.77 11.20Q202.08 11.31 201.21 11.31L201.21 11.31Q198.83 11.31 197.74 9.89Q196.65 8.48 196.65 5.76L196.65 5.76L196.65-5.41L193.01-5.41L193.01-8.26L200.09-8.26L200.09 6.02Q200.09 7.36 200.62 7.84Q201.16 8.31 201.97 8.31L201.97 8.31Q203.00 8.31 203.70 8.03Q204.40 7.75 204.63 7.67L204.63 7.67ZM206.87 4.53L206.87 4.53Q206.87 2.80 207.40 1.48Q207.93 0.16 208.80-0.72Q209.67-1.60 210.79-2.05Q211.91-2.50 213.08-2.50L213.08-2.50Q216.00-2.50 217.51-0.77Q219.02 0.95 219.02 4.25L219.02 4.25Q219.02 4.59 219.01 4.95Q218.99 5.32 218.96 5.54L218.96 5.54L210.42 5.54Q210.42 6.83 211.49 7.57Q212.55 8.31 214.23 8.31L214.23 8.31Q215.27 8.31 216.21 8.09Q217.14 7.86 217.79 7.64L217.79 7.64L218.26 10.58Q217.37 10.89 216.36 11.10Q215.35 11.31 214.09 11.31L214.09 11.31Q212.41 11.31 211.08 10.87Q209.75 10.44 208.81 9.59Q207.88 8.73 207.37 7.47Q206.87 6.21 206.87 4.53ZM210.42 3.16L215.69 3.16Q215.69 2.63 215.55 2.14Q215.41 1.65 215.10 1.26Q214.79 0.86 214.32 0.63Q213.84 0.39 213.14 0.39L213.14 0.39Q212.47 0.39 211.98 0.61Q211.49 0.84 211.17 1.23Q210.84 1.62 210.66 2.12Q210.48 2.63 210.42 3.16L210.42 3.16ZM232.63 7.67L233.08 10.44Q232.99 10.50 232.70 10.64Q232.40 10.78 231.93 10.93Q231.45 11.08 230.77 11.20Q230.08 11.31 229.21 11.31L229.21 11.31Q226.83 11.31 225.74 9.89Q224.65 8.48 224.65 5.76L224.65 5.76L224.65-5.41L221.01-5.41L221.01-8.26L228.09-8.26L228.09 6.02Q228.09 7.36 228.62 7.84Q229.16 8.31 229.97 8.31L229.97 8.31Q231.00 8.31 231.70 8.03Q232.40 7.75 232.63 7.67L232.63 7.67ZM256.29 11.36L256.29 11.36Q252.62 11.36 250.69 9.01Q248.76 6.66 248.76 2.32L248.76 2.32Q248.76 0.16 249.34-1.52Q249.93-3.20 250.98-4.36Q252.03-5.52 253.47-6.12Q254.92-6.72 256.62-6.72L256.62-6.72Q257.55-6.72 258.29-6.57Q259.03-6.42 259.59-6.22Q260.15-6.02 260.53-5.80Q260.91-5.58 261.10-5.46L261.10-5.46L260.21-2.72Q259.56-3.14 258.65-3.43Q257.74-3.73 256.57-3.73L256.57-3.73Q255.76-3.73 254.99-3.43Q254.22-3.14 253.61-2.45Q253.01-1.77 252.63-0.62Q252.26 0.53 252.26 2.24L252.26 2.24Q252.26 5.20 253.28 6.79Q254.30 8.37 256.62 8.37L256.62 8.37Q257.97 8.37 258.85 8.06Q259.73 7.75 260.26 7.44L260.26 7.44L261.13 10.16Q260.40 10.61 259.16 10.99Q257.91 11.36 256.29 11.36Z"/>
    </g>
</svg>