<?xml version="1.0" encoding="UTF-8"?>
<svg height="26" width="74.4" version="1.1" xmlns="http://www.w3.org/2000/svg"><!--Created by Josélio de S. C. Júnior - 2021 - https://github.com/joseliojunior -->
    <rect
        height="24"
        width="72.4"
        rx="12"
        ry="12"
        x="1" y="1"
        fill="#b7e1f4"
        stroke="#1e8ec2"
        stroke-width="1" />
    <g transform="translate(0, 8)">
        <path fill="#1e8ec2" stroke="none" d="M20.94 0.10L22.58 0.10Q22.69 0.43 22.86 0.96Q23.02 1.49 23.22 2.10Q23.41 2.70 23.60 3.33Q23.79 3.95 23.97 4.48L23.97 4.48Q24.16 3.89 24.37 3.26Q24.58 2.62 24.77 2.04Q24.96 1.46 25.12 0.94Q25.28 0.43 25.41 0.10L25.41 0.10L27.04 0.10Q27.15 1.39 27.26 2.62Q27.36 3.86 27.43 5.06Q27.50 6.27 27.55 7.50Q27.60 8.72 27.63 10L27.63 10L25.82 10L25.92 2.30L24.70 6.50L23.26 6.50L22.10 2.30L22.18 10L20.37 10Q20.42 8.78 20.47 7.47Q20.53 6.16 20.59 4.86Q20.66 3.57 20.74 2.35Q20.83 1.14 20.94 0.10L20.94 0.10ZM28.40 0.10L35.60 0.10L35.60 1.73L32.99 1.73L32.99 10L31.01 10L31.01 1.73L28.40 1.73L28.40 0.10ZM36.94 0.10L38.58 0.10Q38.69 0.43 38.86 0.96Q39.02 1.49 39.22 2.10Q39.41 2.70 39.60 3.33Q39.79 3.95 39.97 4.48L39.97 4.48Q40.16 3.89 40.37 3.26Q40.58 2.62 40.77 2.04Q40.96 1.46 41.12 0.94Q41.28 0.43 41.41 0.10L41.41 0.10L43.04 0.10Q43.15 1.39 43.26 2.62Q43.36 3.86 43.43 5.06Q43.50 6.27 43.55 7.50Q43.60 8.72 43.63 10L43.63 10L41.82 10L41.92 2.30L40.70 6.50L39.26 6.50L38.10 2.30L38.18 10L36.37 10Q36.42 8.78 36.47 7.47Q36.53 6.16 36.59 4.86Q36.66 3.57 36.74 2.35Q36.83 1.14 36.94 0.10L36.94 0.10ZM51.36 8.37L51.36 10L45.14 10L45.14 0.10L47.12 0.10L47.12 8.37L51.36 8.37Z"/>
    </g>
</svg>