<?xml version="1.0" encoding="UTF-8"?>
<svg height="26" width="66.3" version="1.1" xmlns="http://www.w3.org/2000/svg"><!--Created by Josélio de S. C. Júnior - 2021 - https://github.com/joseliojunior -->
<rect
    height="24"
    width="64.3"
    rx="12"
    ry="12"
    x="1" y="1"
    fill="#cb3837"
    stroke="#ffffff"
    stroke-width="1" />
<g transform="translate(0, 8)">
    <path fill="#ffffff" d="M21.01 10L21.01 2.72Q21.54 2.58 22.31 2.45Q23.09 2.32 24 2.32L24 2.32Q24.90 2.32 25.49 2.57Q26.08 2.82 26.42 3.27Q26.77 3.73 26.91 4.36Q27.06 4.99 27.06 5.76L27.06 5.76L27.06 10L25.09 10L25.09 6.02Q25.09 4.96 24.85 4.50Q24.61 4.03 23.87 4.03L23.87 4.03Q23.65 4.03 23.43 4.05Q23.22 4.06 22.98 4.10L22.98 4.10L22.98 10L21.01 10ZM33.50 6.30L33.50 6.30Q33.50 5.30 33.10 4.65Q32.70 4 31.89 4L31.89 4Q31.66 4 31.41 4.02Q31.15 4.05 30.98 4.06L30.98 4.06L30.98 8.19Q31.17 8.32 31.49 8.40Q31.81 8.48 32.13 8.48L32.13 8.48Q32.83 8.48 33.17 7.91Q33.50 7.34 33.50 6.30ZM35.50 6.24L35.50 6.24Q35.50 7.10 35.31 7.83Q35.12 8.56 34.75 9.08Q34.38 9.60 33.82 9.89Q33.26 10.18 32.53 10.18L32.53 10.18Q31.78 10.18 30.98 9.81L30.98 9.81L30.98 12.64L29.01 12.64L29.01 2.72Q29.55 2.54 30.34 2.43Q31.14 2.32 31.90 2.32L31.90 2.32Q33.65 2.32 34.58 3.38Q35.50 4.43 35.50 6.24ZM41.49 2.40L41.49 2.40Q42.11 2.40 42.51 2.59Q42.91 2.78 43.14 3.17Q43.38 3.55 43.46 4.14Q43.54 4.72 43.54 5.50L43.54 5.50L43.54 10L41.94 10L41.94 5.41Q41.94 4.96 41.88 4.69Q41.82 4.42 41.74 4.27Q41.65 4.13 41.53 4.08Q41.41 4.03 41.28 4.03L41.28 4.03Q41.14 4.03 40.98 4.06Q40.82 4.08 40.69 4.14L40.69 4.14Q40.74 4.45 40.77 4.82Q40.80 5.18 40.80 5.63L40.80 5.63L40.80 7.14L39.20 7.14L39.20 5.41Q39.20 4.64 39.05 4.34Q38.90 4.03 38.56 4.03L38.56 4.03Q38.46 4.03 38.33 4.05Q38.19 4.06 38.06 4.10L38.06 4.10L38.06 10L36.46 10L36.46 2.77Q37.09 2.59 37.70 2.50Q38.30 2.40 38.77 2.40L38.77 2.40Q39.18 2.40 39.51 2.50Q39.84 2.61 40.08 2.85L40.08 2.85Q40.35 2.67 40.72 2.54Q41.09 2.40 41.49 2.40Z"/>
</g>
</svg>