<?xml version="1.0" encoding="UTF-8"?>
<svg height="34" width="78.3" version="1.1" xmlns="http://www.w3.org/2000/svg"><!--Created by Josélio de S. C. Júnior - 2021 - https://github.com/joseliojunior -->
<rect
    height="32"
    width="76.3"
    rx="16"
    ry="16"
    x="1" y="1"
    fill="#cb3837"
    stroke="#ffffff"
    stroke-width="1" />
<g transform="translate(0, 12)">
    <path fill="#ffffff" d="M21.51 12L21.51 1.08Q22.30 0.86 23.47 0.67Q24.63 0.48 26 0.48L26 0.48Q27.34 0.48 28.23 0.85Q29.12 1.22 29.64 1.91Q30.15 2.59 30.37 3.54Q30.58 4.49 30.58 5.64L30.58 5.64L30.58 12L27.63 12L27.63 6.02Q27.63 4.44 27.27 3.74Q26.91 3.05 25.81 3.05L25.81 3.05Q25.47 3.05 25.15 3.07Q24.82 3.10 24.46 3.14L24.46 3.14L24.46 12L21.51 12ZM40.26 6.46L40.26 6.46Q40.26 4.94 39.66 3.97Q39.06 3 37.83 3L37.83 3Q37.50 3 37.11 3.04Q36.73 3.07 36.46 3.10L36.46 3.10L36.46 9.29Q36.75 9.48 37.23 9.60Q37.71 9.72 38.19 9.72L38.19 9.72Q39.25 9.72 39.75 8.87Q40.26 8.02 40.26 6.46ZM43.26 6.36L43.26 6.36Q43.26 7.66 42.97 8.75Q42.68 9.84 42.13 10.62Q41.58 11.40 40.74 11.83Q39.90 12.26 38.79 12.26L38.79 12.26Q37.66 12.26 36.46 11.71L36.46 11.71L36.46 15.96L33.51 15.96L33.51 1.08Q34.33 0.82 35.52 0.65Q36.70 0.48 37.86 0.48L37.86 0.48Q40.47 0.48 41.86 2.06Q43.26 3.65 43.26 6.36ZM52.23 0.60L52.23 0.60Q53.17 0.60 53.77 0.89Q54.37 1.18 54.72 1.75Q55.06 2.33 55.18 3.20Q55.30 4.08 55.30 5.26L55.30 5.26L55.30 12L52.90 12L52.90 5.11Q52.90 4.44 52.82 4.03Q52.74 3.62 52.60 3.41Q52.47 3.19 52.29 3.12Q52.11 3.05 51.92 3.05L51.92 3.05Q51.70 3.05 51.46 3.08Q51.22 3.12 51.03 3.22L51.03 3.22Q51.10 3.67 51.15 4.22Q51.20 4.78 51.20 5.45L51.20 5.45L51.20 7.70L48.80 7.70L48.80 5.11Q48.80 3.96 48.57 3.50Q48.34 3.05 47.84 3.05L47.84 3.05Q47.70 3.05 47.49 3.07Q47.29 3.10 47.10 3.14L47.10 3.14L47.10 12L44.70 12L44.70 1.15Q45.63 0.89 46.54 0.74Q47.46 0.60 48.15 0.60L48.15 0.60Q48.78 0.60 49.27 0.76Q49.76 0.91 50.12 1.27L50.12 1.27Q50.53 1.01 51.08 0.80Q51.63 0.60 52.23 0.60Z"/>
</g>
</svg>