<?xml version="1.0" encoding="UTF-8"?>
<svg height="34" width="120.7" version="1.1" xmlns="http://www.w3.org/2000/svg">
    <rect
        height="32"
        width="118.7"
        rx="14"
        ry="14"
        x="1"
        y="1"
        fill="#5f021f"
        stroke="#f50551"
        stroke-width="1"
         />
    <g transform="translate(0, 14)">
        <path fill="#f50551" d="M15.21 11L11.76 11L11.76-6.33L22.38-6.33L22.38-3.48L15.21-3.48L15.21 0.72L21.48 0.72L21.48 3.58L15.21 3.58L15.21 11ZM36.26-2.16L36.26 10.55Q35.31 10.80 33.95 11.06Q32.60 11.31 31 11.31L31 11.31Q29.38 11.31 28.34 10.86Q27.30 10.41 26.70 9.59Q26.10 8.76 25.88 7.64Q25.65 6.52 25.65 5.18L25.65 5.18L25.65-2.16L29.10-2.16L29.10 4.73Q29.10 6.55 29.53 7.43Q29.96 8.31 31.22 8.31L31.22 8.31Q32.01 8.31 32.79 8.17L32.79 8.17L32.79-2.16L36.26-2.16ZM42.00 6.10L42.00 0.70L39.01 0.70L39.01-2.16L42.00-2.16L42.00-5.46L45.45-6.02L45.45-2.16L50.96-2.16L50.96 0.70L45.45 0.70L45.45 6.02Q45.45 6.74 45.59 7.19Q45.73 7.64 45.98 7.89Q46.23 8.14 46.60 8.23Q46.96 8.31 47.41 8.31L47.41 8.31Q47.88 8.31 48.29 8.28Q48.70 8.26 49.07 8.19Q49.45 8.12 49.86 7.98Q50.26 7.84 50.74 7.61L50.74 7.61L51.22 10.58Q50.26 10.97 49.16 11.14Q48.05 11.31 47.02 11.31L47.02 11.31Q45.81 11.31 44.89 11.11Q43.96 10.92 43.32 10.36Q42.68 9.80 42.34 8.77Q42.00 7.75 42.00 6.10L42.00 6.10ZM57.21 11L53.76 11L53.76-7.84L57.21-8.43L57.21-2.05Q57.63-2.19 58.22-2.31Q58.80-2.44 59.25-2.44L59.25-2.44Q60.71-2.44 61.69-2.01Q62.67-1.57 63.26-0.77Q63.84 0.02 64.10 1.13Q64.35 2.24 64.35 3.58L64.35 3.58L64.35 11L60.90 11L60.90 4.03Q60.90 2.18 60.48 1.37Q60.06 0.56 58.89 0.56L58.89 0.56Q58.41 0.56 57.95 0.67Q57.49 0.78 57.21 0.86L57.21 0.86L57.21 11ZM73.03 8.54L73.03 8.54Q73.59 8.54 74.12 8.52Q74.65 8.51 75.04 8.45L75.04 8.45L75.04 5.43Q74.71 5.37 74.23 5.33Q73.76 5.29 73.36 5.29L73.36 5.29Q72.83 5.29 72.33 5.36Q71.82 5.43 71.45 5.60Q71.07 5.76 70.84 6.07Q70.62 6.38 70.62 6.88L70.62 6.88Q70.62 7.78 71.29 8.16Q71.96 8.54 73.03 8.54ZM72.72-2.50L72.72-2.50Q74.34-2.50 75.42-2.12Q76.50-1.74 77.14-1.05Q77.79-0.37 78.07 0.63Q78.35 1.62 78.35 2.85L78.35 2.85L78.35 10.69Q77.59 10.86 76.11 11.08Q74.62 11.31 72.78 11.31L72.78 11.31Q71.52 11.31 70.49 11.08Q69.47 10.86 68.74 10.34Q68.02 9.82 67.62 9.00Q67.23 8.17 67.23 6.97L67.23 6.97Q67.23 5.82 67.68 5.04Q68.13 4.25 68.88 3.78Q69.64 3.30 70.62 3.09Q71.60 2.88 72.66 2.88L72.66 2.88Q74.01 2.88 75.04 3.10L75.04 3.10L75.04 2.68Q75.04 1.70 74.43 1.05Q73.81 0.39 72.30 0.39L72.30 0.39Q71.32 0.39 70.41 0.53Q69.50 0.67 68.94 0.86L68.94 0.86L68.46-1.91Q69.11-2.13 70.28-2.31Q71.46-2.50 72.72-2.50ZM92.85-1.85L92.24 1.34Q91.90 1.26 91.44 1.17Q90.98 1.09 90.50 1.02Q90.02 0.95 89.58 0.92Q89.13 0.89 88.82 0.89L88.82 0.89Q88.09 0.89 87.39 0.96Q86.69 1.03 85.96 1.23L85.96 1.23L85.96 11L82.49 11L82.49-1.29Q83.86-1.80 85.31-2.10Q86.75-2.41 88.68-2.41L88.68-2.41Q88.96-2.41 89.48-2.38Q90.00-2.36 90.58-2.29Q91.17-2.22 91.77-2.12Q92.38-2.02 92.85-1.85L92.85-1.85ZM99.24-8.43L99.24 3.05Q99.74 2.46 100.26 1.80Q100.78 1.14 101.27 0.44Q101.76-0.26 102.20-0.91Q102.65-1.57 102.99-2.16L102.99-2.16L107.13-2.16Q106.63-1.52 105.98-0.76Q105.34-0.00 104.65 0.78Q103.97 1.56 103.28 2.29Q102.60 3.02 102.04 3.64L102.04 3.64Q102.74 4.31 103.55 5.25Q104.36 6.18 105.14 7.19Q105.93 8.20 106.59 9.21Q107.24 10.22 107.64 11L107.64 11L103.69 11Q103.35 10.30 102.81 9.42Q102.26 8.54 101.64 7.68Q101.03 6.83 100.40 6.06Q99.77 5.29 99.24 4.78L99.24 4.78L99.24 11L95.76 11L95.76-7.84L99.24-8.43Z"/>
    </g>
</svg>