<?xml version="1.0" encoding="UTF-8"?>
<svg height="26" width="123" version="1.1" xmlns="http://www.w3.org/2000/svg"><!--Created by Josélio de S. C. Júnior - 2021 - https://github.com/joseliojunior -->
    <rect
        height="24"
        width="121"
        rx="1"
        ry="1"
        x="1" y="1"
        fill="#c065db"
        stroke="#702088"
        stroke-width="1" />
    <g transform="translate(0, 8)">
        <path fill="#702088" stroke="none" d="M27.36 10L21.01 10L21.01 0.10L27.01 0.10L27.01 1.73L22.98 1.73L22.98 3.95L26.48 3.95L26.48 5.58L22.98 5.58L22.98 8.37L27.36 8.37L27.36 10ZM33.49 2.40L33.49 2.40Q34.11 2.40 34.51 2.59Q34.91 2.78 35.14 3.17Q35.38 3.55 35.46 4.14Q35.54 4.72 35.54 5.50L35.54 5.50L35.54 10L33.94 10L33.94 5.41Q33.94 4.96 33.88 4.69Q33.82 4.42 33.74 4.27Q33.65 4.13 33.53 4.08Q33.41 4.03 33.28 4.03L33.28 4.03Q33.14 4.03 32.98 4.06Q32.82 4.08 32.69 4.14L32.69 4.14Q32.74 4.45 32.77 4.82Q32.80 5.18 32.80 5.63L32.80 5.63L32.80 7.14L31.20 7.14L31.20 5.41Q31.20 4.64 31.05 4.34Q30.90 4.03 30.56 4.03L30.56 4.03Q30.46 4.03 30.33 4.05Q30.19 4.06 30.06 4.10L30.06 4.10L30.06 10L28.46 10L28.46 2.77Q29.09 2.59 29.70 2.50Q30.30 2.40 30.77 2.40L30.77 2.40Q31.18 2.40 31.51 2.50Q31.84 2.61 32.08 2.85L32.08 2.85Q32.35 2.67 32.72 2.54Q33.09 2.40 33.49 2.40ZM40.02 8.59L40.02 8.59Q40.34 8.59 40.64 8.58Q40.94 8.58 41.17 8.54L41.17 8.54L41.17 6.82Q40.98 6.78 40.70 6.76Q40.43 6.74 40.21 6.74L40.21 6.74Q39.90 6.74 39.62 6.78Q39.33 6.82 39.11 6.91Q38.90 7.01 38.77 7.18Q38.64 7.36 38.64 7.65L38.64 7.65Q38.64 8.16 39.02 8.38Q39.41 8.59 40.02 8.59ZM39.84 2.29L39.84 2.29Q40.77 2.29 41.38 2.50Q42 2.72 42.37 3.11Q42.74 3.50 42.90 4.07Q43.06 4.64 43.06 5.34L43.06 5.34L43.06 9.82Q42.62 9.92 41.78 10.05Q40.93 10.18 39.87 10.18L39.87 10.18Q39.15 10.18 38.57 10.05Q37.98 9.92 37.57 9.62Q37.15 9.33 36.93 8.86Q36.70 8.38 36.70 7.70L36.70 7.70Q36.70 7.04 36.96 6.59Q37.22 6.14 37.65 5.87Q38.08 5.60 38.64 5.48Q39.20 5.36 39.81 5.36L39.81 5.36Q40.58 5.36 41.17 5.49L41.17 5.49L41.17 5.25Q41.17 4.69 40.82 4.31Q40.46 3.94 39.60 3.94L39.60 3.94Q39.04 3.94 38.52 4.02Q38 4.10 37.68 4.21L37.68 4.21L37.41 2.62Q37.78 2.50 38.45 2.39Q39.12 2.29 39.84 2.29ZM44.70 6.24L44.70 6.24Q44.70 5.42 44.96 4.70Q45.22 3.98 45.74 3.45Q46.27 2.91 47.08 2.60Q47.89 2.29 49.01 2.29L49.01 2.29Q49.68 2.29 50.22 2.38Q50.77 2.48 51.33 2.70L51.33 2.70L50.90 4.29Q50.58 4.18 50.18 4.09Q49.79 4 49.18 4L49.18 4Q48.48 4 48.01 4.17Q47.54 4.34 47.25 4.63Q46.96 4.93 46.83 5.34Q46.70 5.76 46.70 6.24L46.70 6.24Q46.70 7.28 47.29 7.87Q47.87 8.46 49.28 8.46L49.28 8.46Q49.74 8.46 50.25 8.40Q50.75 8.34 51.17 8.19L51.17 8.19L51.46 9.81Q51.04 9.97 50.45 10.07Q49.86 10.18 49.06 10.18L49.06 10.18Q47.90 10.18 47.08 9.87Q46.26 9.57 45.73 9.04Q45.20 8.51 44.95 7.79Q44.70 7.07 44.70 6.24ZM55.65 8.51L55.65 8.51Q56.37 8.51 56.75 8.41Q57.14 8.30 57.14 7.98L57.14 7.98Q57.14 7.78 57.02 7.63Q56.90 7.49 56.68 7.38Q56.46 7.28 56.18 7.18Q55.90 7.09 55.60 6.99L55.60 6.99Q55.17 6.86 54.72 6.70Q54.27 6.53 53.90 6.27Q53.54 6.02 53.30 5.62Q53.06 5.23 53.06 4.64L53.06 4.64Q53.06 4.16 53.24 3.74Q53.42 3.31 53.82 2.98Q54.21 2.66 54.82 2.47Q55.42 2.29 56.27 2.29L56.27 2.29Q57.01 2.29 57.64 2.40Q58.27 2.51 58.74 2.72L58.74 2.72L58.43 4.38Q58.16 4.30 57.58 4.12Q57.01 3.94 56.29 3.94L56.29 3.94Q55.54 3.94 55.27 4.12Q55.01 4.30 55.01 4.51L55.01 4.51Q55.01 4.69 55.13 4.82Q55.25 4.96 55.45 5.07Q55.65 5.18 55.91 5.29Q56.18 5.39 56.48 5.49L56.48 5.49Q56.91 5.63 57.38 5.81Q57.84 5.98 58.22 6.25Q58.59 6.51 58.83 6.92Q59.07 7.33 59.07 7.92L59.07 7.92Q59.07 8.38 58.90 8.80Q58.72 9.22 58.31 9.52Q57.90 9.82 57.25 10Q56.59 10.18 55.63 10.18L55.63 10.18Q54.66 10.18 53.97 9.95Q53.28 9.73 52.86 9.55L52.86 9.55L53.17 7.90Q53.73 8.13 54.36 8.32Q54.99 8.51 55.65 8.51ZM75.36 8.37L75.36 10L69.14 10L69.14 0.10L71.12 0.10L71.12 8.37L75.36 8.37ZM80.54 0.32L80.54 0.32Q80.54 0.90 80.18 1.23Q79.81 1.57 79.30 1.57L79.30 1.57Q78.78 1.57 78.42 1.23Q78.06 0.90 78.06 0.32L78.06 0.32Q78.06-0.27 78.42-0.61Q78.78-0.94 79.30-0.94L79.30-0.94Q79.81-0.94 80.18-0.61Q80.54-0.27 80.54 0.32ZM83.22 8.10L83.47 9.68Q82.86 9.97 82.33 10.07Q81.79 10.18 81.34 10.18L81.34 10.18Q80.58 10.18 80.06 9.95Q79.54 9.73 79.22 9.30Q78.91 8.88 78.78 8.27Q78.66 7.66 78.66 6.88L78.66 6.88L78.66 4.11L76.58 4.11L76.58 2.48L80.62 2.48L80.62 7.14Q80.62 7.81 80.87 8.14Q81.12 8.46 81.70 8.46L81.70 8.46Q81.97 8.46 82.35 8.39Q82.74 8.32 83.22 8.10L83.22 8.10ZM87.65 8.51L87.65 8.51Q88.37 8.51 88.75 8.41Q89.14 8.30 89.14 7.98L89.14 7.98Q89.14 7.78 89.02 7.63Q88.90 7.49 88.68 7.38Q88.46 7.28 88.18 7.18Q87.90 7.09 87.60 6.99L87.60 6.99Q87.17 6.86 86.72 6.70Q86.27 6.53 85.90 6.27Q85.54 6.02 85.30 5.62Q85.06 5.23 85.06 4.64L85.06 4.64Q85.06 4.16 85.24 3.74Q85.42 3.31 85.82 2.98Q86.21 2.66 86.82 2.47Q87.42 2.29 88.27 2.29L88.27 2.29Q89.01 2.29 89.64 2.40Q90.27 2.51 90.74 2.72L90.74 2.72L90.43 4.38Q90.16 4.30 89.58 4.12Q89.01 3.94 88.29 3.94L88.29 3.94Q87.54 3.94 87.27 4.12Q87.01 4.30 87.01 4.51L87.01 4.51Q87.01 4.69 87.13 4.82Q87.25 4.96 87.45 5.07Q87.65 5.18 87.91 5.29Q88.18 5.39 88.48 5.49L88.48 5.49Q88.91 5.63 89.38 5.81Q89.84 5.98 90.22 6.25Q90.59 6.51 90.83 6.92Q91.07 7.33 91.07 7.92L91.07 7.92Q91.07 8.38 90.90 8.80Q90.72 9.22 90.31 9.52Q89.90 9.82 89.25 10Q88.59 10.18 87.63 10.18L87.63 10.18Q86.66 10.18 85.97 9.95Q85.28 9.73 84.86 9.55L84.86 9.55L85.17 7.90Q85.73 8.13 86.36 8.32Q86.99 8.51 87.65 8.51ZM97.50 6.30L97.50 6.30Q97.50 5.30 97.10 4.65Q96.70 4 95.89 4L95.89 4Q95.66 4 95.41 4.02Q95.15 4.05 94.98 4.06L94.98 4.06L94.98 8.19Q95.17 8.32 95.49 8.40Q95.81 8.48 96.13 8.48L96.13 8.48Q96.83 8.48 97.17 7.91Q97.50 7.34 97.50 6.30ZM99.50 6.24L99.50 6.24Q99.50 7.10 99.31 7.83Q99.12 8.56 98.75 9.08Q98.38 9.60 97.82 9.89Q97.26 10.18 96.53 10.18L96.53 10.18Q95.78 10.18 94.98 9.81L94.98 9.81L94.98 12.64L93.01 12.64L93.01 2.72Q93.55 2.54 94.34 2.43Q95.14 2.32 95.90 2.32L95.90 2.32Q97.65 2.32 98.58 3.38Q99.50 4.43 99.50 6.24Z"/>
    </g>
</svg>