<?xml version="1.0" encoding="UTF-8"?>
<svg height="34" width="102.5" version="1.1" xmlns="http://www.w3.org/2000/svg"><!--Created by Josélio de S. C. Júnior - 2021 - https://github.com/joseliojunior -->
    <rect
        height="32"
        width="100.5"
        rx="16"
        ry="16"
        x="1" y="1"
        fill="#1a5f91"
        stroke="#63aee3"
        stroke-width="1" />
    <g transform="translate(0, 12)">
        <path fill="#63aee3" d="M25.57 9.84L25.57 9.84Q26.31 9.84 26.80 9.68Q27.30 9.53 27.58 9.25Q27.87 8.98 27.98 8.63Q28.09 8.28 28.09 7.92L28.09 7.92Q28.09 7.46 27.82 7.10Q27.56 6.74 27.15 6.47Q26.74 6.19 26.24 5.96Q25.74 5.74 25.23 5.54L25.23 5.54Q24.56 5.30 23.84 4.99Q23.12 4.68 22.53 4.20Q21.94 3.72 21.56 3.01Q21.18 2.30 21.18 1.25L21.18 1.25Q21.18-0.84 22.53-2.02Q23.89-3.19 26.26-3.19L26.26-3.19Q27.63-3.19 28.65-2.88Q29.67-2.57 30.37-2.18L30.37-2.18L29.50 0.10Q28.90-0.24 28.17-0.48Q27.44-0.72 26.48-0.72L26.48-0.72Q24.13-0.72 24.13 0.98L24.13 0.98Q24.13 1.42 24.37 1.74Q24.61 2.06 24.98 2.32Q25.35 2.57 25.82 2.76Q26.29 2.95 26.74 3.12L26.74 3.12Q27.44 3.38 28.20 3.71Q28.95 4.03 29.59 4.57Q30.22 5.11 30.63 5.92Q31.04 6.72 31.04 7.94L31.04 7.94Q31.04 10.03 29.68 11.17Q28.33 12.31 25.57 12.31L25.57 12.31Q23.72 12.31 22.62 11.92Q21.51 11.52 20.96 11.18L20.96 11.18L21.82 8.78Q22.47 9.17 23.37 9.50Q24.27 9.84 25.57 9.84ZM35.43 7.80L35.43 3.17L32.86 3.17L32.86 0.72L35.43 0.72L35.43-2.11L38.38-2.59L38.38 0.72L43.11 0.72L43.11 3.17L38.38 3.17L38.38 7.73Q38.38 8.35 38.50 8.74Q38.62 9.12 38.84 9.34Q39.06 9.55 39.37 9.62Q39.68 9.70 40.06 9.70L40.06 9.70Q40.47 9.70 40.82 9.67Q41.17 9.65 41.49 9.59Q41.82 9.53 42.16 9.41Q42.51 9.29 42.92 9.10L42.92 9.10L43.33 11.64Q42.51 11.98 41.56 12.12Q40.62 12.26 39.73 12.26L39.73 12.26Q38.70 12.26 37.90 12.10Q37.11 11.93 36.56 11.45Q36.01 10.97 35.72 10.09Q35.43 9.22 35.43 7.80L35.43 7.80ZM50.02 9.89L50.02 9.89Q50.50 9.89 50.96 9.88Q51.42 9.86 51.75 9.82L51.75 9.82L51.75 7.22Q51.46 7.18 51.06 7.14Q50.65 7.10 50.31 7.10L50.31 7.10Q49.86 7.10 49.42 7.16Q48.99 7.22 48.67 7.37Q48.34 7.51 48.15 7.78Q47.96 8.04 47.96 8.47L47.96 8.47Q47.96 9.24 48.54 9.56Q49.11 9.89 50.02 9.89ZM49.76 0.43L49.76 0.43Q51.15 0.43 52.08 0.76Q53 1.08 53.55 1.67Q54.10 2.26 54.34 3.11Q54.58 3.96 54.58 5.02L54.58 5.02L54.58 11.74Q53.94 11.88 52.66 12.07Q51.39 12.26 49.81 12.26L49.81 12.26Q48.73 12.26 47.85 12.07Q46.98 11.88 46.35 11.44Q45.73 10.99 45.39 10.28Q45.06 9.58 45.06 8.54L45.06 8.54Q45.06 7.56 45.44 6.89Q45.82 6.22 46.47 5.81Q47.12 5.40 47.96 5.22Q48.80 5.04 49.71 5.04L49.71 5.04Q50.86 5.04 51.75 5.23L51.75 5.23L51.75 4.87Q51.75 4.03 51.22 3.47Q50.70 2.90 49.40 2.90L49.40 2.90Q48.56 2.90 47.78 3.02Q47 3.14 46.52 3.31L46.52 3.31L46.11 0.94Q46.66 0.74 47.67 0.59Q48.68 0.43 49.76 0.43ZM59.43 7.80L59.43 3.17L56.86 3.17L56.86 0.72L59.43 0.72L59.43-2.11L62.38-2.59L62.38 0.72L67.11 0.72L67.11 3.17L62.38 3.17L62.38 7.73Q62.38 8.35 62.50 8.74Q62.62 9.12 62.84 9.34Q63.06 9.55 63.37 9.62Q63.68 9.70 64.06 9.70L64.06 9.70Q64.47 9.70 64.82 9.67Q65.17 9.65 65.49 9.59Q65.82 9.53 66.16 9.41Q66.51 9.29 66.92 9.10L66.92 9.10L67.33 11.64Q66.51 11.98 65.56 12.12Q64.62 12.26 63.73 12.26L63.73 12.26Q62.70 12.26 61.90 12.10Q61.11 11.93 60.56 11.45Q60.01 10.97 59.72 10.09Q59.43 9.22 59.43 7.80L59.43 7.80ZM74.02 9.89L74.02 9.89Q74.50 9.89 74.96 9.88Q75.42 9.86 75.75 9.82L75.75 9.82L75.75 7.22Q75.46 7.18 75.06 7.14Q74.65 7.10 74.31 7.10L74.31 7.10Q73.86 7.10 73.42 7.16Q72.99 7.22 72.67 7.37Q72.34 7.51 72.15 7.78Q71.96 8.04 71.96 8.47L71.96 8.47Q71.96 9.24 72.54 9.56Q73.11 9.89 74.02 9.89ZM73.76 0.43L73.76 0.43Q75.15 0.43 76.08 0.76Q77 1.08 77.55 1.67Q78.10 2.26 78.34 3.11Q78.58 3.96 78.58 5.02L78.58 5.02L78.58 11.74Q77.94 11.88 76.66 12.07Q75.39 12.26 73.81 12.26L73.81 12.26Q72.73 12.26 71.85 12.07Q70.98 11.88 70.35 11.44Q69.73 10.99 69.39 10.28Q69.06 9.58 69.06 8.54L69.06 8.54Q69.06 7.56 69.44 6.89Q69.82 6.22 70.47 5.81Q71.12 5.40 71.96 5.22Q72.80 5.04 73.71 5.04L73.71 5.04Q74.86 5.04 75.75 5.23L75.75 5.23L75.75 4.87Q75.75 4.03 75.22 3.47Q74.70 2.90 73.40 2.90L73.40 2.90Q72.56 2.90 71.78 3.02Q71 3.14 70.52 3.31L70.52 3.31L70.11 0.94Q70.66 0.74 71.67 0.59Q72.68 0.43 73.76 0.43Z"/>
    </g>
</svg>