<?xml version="1.0" encoding="UTF-8"?>
<svg height="26" width="82.5" version="1.1" xmlns="http://www.w3.org/2000/svg"><!--Created by Josélio de S. C. Júnior - 2021 - https://github.com/joseliojunior -->
    <rect
        height="24"
        width="80.5"
        rx="1"
        ry="1"
        x="1" y="1"
        fill="#1a5f91"
        stroke="#63aee3"
        stroke-width="1" />
    <g transform="translate(0, 8)">
        <path fill="#63aee3" stroke="none" d="M23.71 8.56L23.71 8.56Q24.21 8.56 24.54 8.46Q24.86 8.35 25.06 8.17Q25.25 7.98 25.32 7.75Q25.39 7.52 25.39 7.28L25.39 7.28Q25.39 6.98 25.22 6.74Q25.04 6.50 24.77 6.31Q24.50 6.13 24.16 5.98Q23.82 5.82 23.49 5.70L23.49 5.70Q23.04 5.54 22.56 5.33Q22.08 5.12 21.69 4.80Q21.30 4.48 21.04 4.01Q20.78 3.54 20.78 2.83L20.78 2.83Q20.78 1.44 21.69 0.66Q22.59-0.13 24.18-0.13L24.18-0.13Q25.09-0.13 25.77 0.08Q26.45 0.29 26.91 0.54L26.91 0.54L26.34 2.06Q25.94 1.84 25.45 1.68Q24.96 1.52 24.32 1.52L24.32 1.52Q22.75 1.52 22.75 2.66L22.75 2.66Q22.75 2.94 22.91 3.16Q23.07 3.38 23.32 3.54Q23.57 3.71 23.88 3.84Q24.19 3.97 24.50 4.08L24.50 4.08Q24.96 4.26 25.46 4.47Q25.97 4.69 26.39 5.05Q26.82 5.41 27.09 5.94Q27.36 6.48 27.36 7.30L27.36 7.30Q27.36 8.69 26.46 9.45Q25.55 10.21 23.71 10.21L23.71 10.21Q22.48 10.21 21.74 9.94Q21.01 9.68 20.64 9.46L20.64 9.46L21.22 7.86Q21.65 8.11 22.25 8.34Q22.85 8.56 23.71 8.56ZM30.29 7.20L30.29 4.11L28.58 4.11L28.58 2.48L30.29 2.48L30.29 0.59L32.26 0.27L32.26 2.48L35.41 2.48L35.41 4.11L32.26 4.11L32.26 7.15Q32.26 7.57 32.34 7.82Q32.42 8.08 32.56 8.22Q32.70 8.37 32.91 8.42Q33.12 8.46 33.38 8.46L33.38 8.46Q33.65 8.46 33.88 8.45Q34.11 8.43 34.33 8.39Q34.54 8.35 34.78 8.27Q35.01 8.19 35.28 8.06L35.28 8.06L35.55 9.76Q35.01 9.98 34.38 10.08Q33.74 10.18 33.15 10.18L33.15 10.18Q32.46 10.18 31.94 10.06Q31.41 9.95 31.04 9.63Q30.67 9.31 30.48 8.73Q30.29 8.14 30.29 7.20L30.29 7.20ZM40.02 8.59L40.02 8.59Q40.34 8.59 40.64 8.58Q40.94 8.58 41.17 8.54L41.17 8.54L41.17 6.82Q40.98 6.78 40.70 6.76Q40.43 6.74 40.21 6.74L40.21 6.74Q39.90 6.74 39.62 6.78Q39.33 6.82 39.11 6.91Q38.90 7.01 38.77 7.18Q38.64 7.36 38.64 7.65L38.64 7.65Q38.64 8.16 39.02 8.38Q39.41 8.59 40.02 8.59ZM39.84 2.29L39.84 2.29Q40.77 2.29 41.38 2.50Q42 2.72 42.37 3.11Q42.74 3.50 42.90 4.07Q43.06 4.64 43.06 5.34L43.06 5.34L43.06 9.82Q42.62 9.92 41.78 10.05Q40.93 10.18 39.87 10.18L39.87 10.18Q39.15 10.18 38.57 10.05Q37.98 9.92 37.57 9.62Q37.15 9.33 36.93 8.86Q36.70 8.38 36.70 7.70L36.70 7.70Q36.70 7.04 36.96 6.59Q37.22 6.14 37.65 5.87Q38.08 5.60 38.64 5.48Q39.20 5.36 39.81 5.36L39.81 5.36Q40.58 5.36 41.17 5.49L41.17 5.49L41.17 5.25Q41.17 4.69 40.82 4.31Q40.46 3.94 39.60 3.94L39.60 3.94Q39.04 3.94 38.52 4.02Q38 4.10 37.68 4.21L37.68 4.21L37.41 2.62Q37.78 2.50 38.45 2.39Q39.12 2.29 39.84 2.29ZM46.29 7.20L46.29 4.11L44.58 4.11L44.58 2.48L46.29 2.48L46.29 0.59L48.26 0.27L48.26 2.48L51.41 2.48L51.41 4.11L48.26 4.11L48.26 7.15Q48.26 7.57 48.34 7.82Q48.42 8.08 48.56 8.22Q48.70 8.37 48.91 8.42Q49.12 8.46 49.38 8.46L49.38 8.46Q49.65 8.46 49.88 8.45Q50.11 8.43 50.33 8.39Q50.54 8.35 50.78 8.27Q51.01 8.19 51.28 8.06L51.28 8.06L51.55 9.76Q51.01 9.98 50.38 10.08Q49.74 10.18 49.15 10.18L49.15 10.18Q48.46 10.18 47.94 10.06Q47.41 9.95 47.04 9.63Q46.67 9.31 46.48 8.73Q46.29 8.14 46.29 7.20L46.29 7.20ZM56.02 8.59L56.02 8.59Q56.34 8.59 56.64 8.58Q56.94 8.58 57.17 8.54L57.17 8.54L57.17 6.82Q56.98 6.78 56.70 6.76Q56.43 6.74 56.21 6.74L56.21 6.74Q55.90 6.74 55.62 6.78Q55.33 6.82 55.11 6.91Q54.90 7.01 54.77 7.18Q54.64 7.36 54.64 7.65L54.64 7.65Q54.64 8.16 55.02 8.38Q55.41 8.59 56.02 8.59ZM55.84 2.29L55.84 2.29Q56.77 2.29 57.38 2.50Q58 2.72 58.37 3.11Q58.74 3.50 58.90 4.07Q59.06 4.64 59.06 5.34L59.06 5.34L59.06 9.82Q58.62 9.92 57.78 10.05Q56.93 10.18 55.87 10.18L55.87 10.18Q55.15 10.18 54.57 10.05Q53.98 9.92 53.57 9.62Q53.15 9.33 52.93 8.86Q52.70 8.38 52.70 7.70L52.70 7.70Q52.70 7.04 52.96 6.59Q53.22 6.14 53.65 5.87Q54.08 5.60 54.64 5.48Q55.20 5.36 55.81 5.36L55.81 5.36Q56.58 5.36 57.17 5.49L57.17 5.49L57.17 5.25Q57.17 4.69 56.82 4.31Q56.46 3.94 55.60 3.94L55.60 3.94Q55.04 3.94 54.52 4.02Q54 4.10 53.68 4.21L53.68 4.21L53.41 2.62Q53.78 2.50 54.45 2.39Q55.12 2.29 55.84 2.29Z"/>
    </g>
</svg>