<?xml version="1.0" encoding="UTF-8"?>
<svg height="322" width="78.3" version="1.1" xmlns="http://www.w3.org/2000/svg"><!--Created by Josélio de S. C. Júnior - 2021 - https://github.com/joseliojunior -->
    <rect
        height="32"
        width="76.3"
        rx="16"
        ry="16"
        x="1" y="1"
        fill="#4B6BEF"
        stroke="#0d2896"
        stroke-width="1" />
    <g transform="translate(0, 12)">
        <path fill="#0d2896" stroke="none" d="M31.74 12L28.54 12Q28.09 10.78 27.43 9.29Q26.77 7.80 26.05 6.31L26.05 6.31Q25.35 7.73 24.66 9.25Q23.96 10.78 23.46 12L23.46 12L20.26 12Q20.50 11.35 20.97 10.44Q21.44 9.53 22.00 8.47Q22.57 7.42 23.19 6.30Q23.82 5.18 24.39 4.15L24.39 4.15L20.50-2.86L23.70-2.86L26.05 1.90L28.52-2.86L31.50-2.86L27.70 4.08Q28.35 5.11 28.98 6.24Q29.60 7.37 30.14 8.44Q30.68 9.50 31.09 10.43Q31.50 11.35 31.74 12L31.74 12ZM33.99 9.55L37.11 9.55L37.11 1.25Q36.44 1.73 35.58 2.10Q34.71 2.47 34.11 2.69L34.11 2.69L33.15 0.24Q33.73 0.02 34.40-0.31Q35.07-0.65 35.74-1.06Q36.42-1.46 37.02-1.92Q37.62-2.38 38.05-2.86L38.05-2.86L40.06-2.86L40.06 9.55L43.02 9.55L43.02 12L33.99 12L33.99 9.55ZM55.16 4.54L55.16 4.54Q55.16 8.47 53.84 10.39Q52.52 12.31 50 12.31L50 12.31Q47.48 12.31 46.16 10.39Q44.84 8.47 44.84 4.54L44.84 4.54Q44.84 0.65 46.18-1.27Q47.53-3.19 50-3.19L50-3.19Q52.52-3.19 53.84-1.28Q55.16 0.62 55.16 4.54ZM52.50 4.54L52.50 4.54Q52.50 1.99 51.86 0.66Q51.22-0.67 50-0.67L50-0.67Q48.80-0.67 48.15 0.66Q47.50 1.99 47.50 4.54L47.50 4.54Q47.50 7.10 48.15 8.44Q48.80 9.77 50 9.77L50 9.77Q51.22 9.77 51.86 8.44Q52.50 7.10 52.50 4.54ZM51.34 4.30L51.34 4.30Q51.34 4.94 50.97 5.41Q50.60 5.88 50.02 5.88L50.02 5.88Q49.40 5.88 49.04 5.41Q48.68 4.94 48.68 4.30L48.68 4.30Q48.68 3.65 49.04 3.17Q49.40 2.69 50.02 2.69L50.02 2.69Q50.60 2.69 50.97 3.17Q51.34 3.65 51.34 4.30Z"/>
    </g>
</svg>