<?xml version="1.0" encoding="UTF-8"?>
<svg height="26" width="131.1" version="1.1" xmlns="http://www.w3.org/2000/svg"><!--Created by Josélio de S. C. Júnior - 2021 - https://github.com/joseliojunior -->
    <rect
        height="24"
        width="129.1"
        rx="12"
        ry="12"
        x="1" y="1"
        fill="#dd1100"
        stroke="#420600"
        stroke-width="1" />
    <g transform="translate(0, 8)">
        <path fill="#420600" d="M20.94 0.10L22.58 0.10Q22.69 0.43 22.86 0.96Q23.02 1.49 23.22 2.10Q23.41 2.70 23.60 3.33Q23.79 3.95 23.97 4.48L23.97 4.48Q24.16 3.89 24.37 3.26Q24.58 2.62 24.77 2.04Q24.96 1.46 25.12 0.94Q25.28 0.43 25.41 0.10L25.41 0.10L27.04 0.10Q27.15 1.39 27.26 2.62Q27.36 3.86 27.43 5.06Q27.50 6.27 27.55 7.50Q27.60 8.72 27.63 10L27.63 10L25.82 10L25.92 2.30L24.70 6.50L23.26 6.50L22.10 2.30L22.18 10L20.37 10Q20.42 8.78 20.47 7.47Q20.53 6.16 20.59 4.86Q20.66 3.57 20.74 2.35Q20.83 1.14 20.94 0.10L20.94 0.10ZM32.02 8.59L32.02 8.59Q32.34 8.59 32.64 8.58Q32.94 8.58 33.17 8.54L33.17 8.54L33.17 6.82Q32.98 6.78 32.70 6.76Q32.43 6.74 32.21 6.74L32.21 6.74Q31.90 6.74 31.62 6.78Q31.33 6.82 31.11 6.91Q30.90 7.01 30.77 7.18Q30.64 7.36 30.64 7.65L30.64 7.65Q30.64 8.16 31.02 8.38Q31.41 8.59 32.02 8.59ZM31.84 2.29L31.84 2.29Q32.77 2.29 33.38 2.50Q34 2.72 34.37 3.11Q34.74 3.50 34.90 4.07Q35.06 4.64 35.06 5.34L35.06 5.34L35.06 9.82Q34.62 9.92 33.78 10.05Q32.93 10.18 31.87 10.18L31.87 10.18Q31.15 10.18 30.57 10.05Q29.98 9.92 29.57 9.62Q29.15 9.33 28.93 8.86Q28.70 8.38 28.70 7.70L28.70 7.70Q28.70 7.04 28.96 6.59Q29.22 6.14 29.65 5.87Q30.08 5.60 30.64 5.48Q31.20 5.36 31.81 5.36L31.81 5.36Q32.58 5.36 33.17 5.49L33.17 5.49L33.17 5.25Q33.17 4.69 32.82 4.31Q32.46 3.94 31.60 3.94L31.60 3.94Q31.04 3.94 30.52 4.02Q30 4.10 29.68 4.21L29.68 4.21L29.41 2.62Q29.78 2.50 30.45 2.39Q31.12 2.29 31.84 2.29ZM38.29 7.20L38.29 4.11L36.58 4.11L36.58 2.48L38.29 2.48L38.29 0.59L40.26 0.27L40.26 2.48L43.41 2.48L43.41 4.11L40.26 4.11L40.26 7.15Q40.26 7.57 40.34 7.82Q40.42 8.08 40.56 8.22Q40.70 8.37 40.91 8.42Q41.12 8.46 41.38 8.46L41.38 8.46Q41.65 8.46 41.88 8.45Q42.11 8.43 42.33 8.39Q42.54 8.35 42.78 8.27Q43.01 8.19 43.28 8.06L43.28 8.06L43.55 9.76Q43.01 9.98 42.38 10.08Q41.74 10.18 41.15 10.18L41.15 10.18Q40.46 10.18 39.94 10.06Q39.41 9.95 39.04 9.63Q38.67 9.31 38.48 8.73Q38.29 8.14 38.29 7.20L38.29 7.20ZM46.98 10L45.01 10L45.01-0.77L46.98-1.10L46.98 2.54Q47.22 2.46 47.55 2.39Q47.89 2.32 48.14 2.32L48.14 2.32Q48.98 2.32 49.54 2.57Q50.10 2.82 50.43 3.27Q50.77 3.73 50.91 4.36Q51.06 4.99 51.06 5.76L51.06 5.76L51.06 10L49.09 10L49.09 6.02Q49.09 4.96 48.85 4.50Q48.61 4.03 47.94 4.03L47.94 4.03Q47.66 4.03 47.40 4.10Q47.14 4.16 46.98 4.21L46.98 4.21L46.98 10ZM52.50 6.30L52.50 6.30Q52.50 5.31 52.80 4.56Q53.10 3.81 53.60 3.30Q54.10 2.80 54.74 2.54Q55.38 2.29 56.05 2.29L56.05 2.29Q57.71 2.29 58.58 3.27Q59.44 4.26 59.44 6.14L59.44 6.14Q59.44 6.34 59.43 6.54Q59.42 6.75 59.41 6.88L59.41 6.88L54.53 6.88Q54.53 7.62 55.14 8.04Q55.74 8.46 56.70 8.46L56.70 8.46Q57.30 8.46 57.83 8.34Q58.37 8.21 58.74 8.08L58.74 8.08L59.01 9.76Q58.50 9.94 57.92 10.06Q57.34 10.18 56.62 10.18L56.62 10.18Q55.66 10.18 54.90 9.93Q54.14 9.68 53.61 9.19Q53.07 8.70 52.78 7.98Q52.50 7.26 52.50 6.30ZM54.53 5.52L57.54 5.52Q57.54 5.22 57.46 4.94Q57.38 4.66 57.20 4.43Q57.02 4.21 56.75 4.07Q56.48 3.94 56.08 3.94L56.08 3.94Q55.70 3.94 55.42 4.06Q55.14 4.19 54.95 4.42Q54.77 4.64 54.66 4.93Q54.56 5.22 54.53 5.52L54.53 5.52ZM65.49 2.40L65.49 2.40Q66.11 2.40 66.51 2.59Q66.91 2.78 67.14 3.17Q67.38 3.55 67.46 4.14Q67.54 4.72 67.54 5.50L67.54 5.50L67.54 10L65.94 10L65.94 5.41Q65.94 4.96 65.88 4.69Q65.82 4.42 65.74 4.27Q65.65 4.13 65.53 4.08Q65.41 4.03 65.28 4.03L65.28 4.03Q65.14 4.03 64.98 4.06Q64.82 4.08 64.69 4.14L64.69 4.14Q64.74 4.45 64.77 4.82Q64.80 5.18 64.80 5.63L64.80 5.63L64.80 7.14L63.20 7.14L63.20 5.41Q63.20 4.64 63.05 4.34Q62.90 4.03 62.56 4.03L62.56 4.03Q62.46 4.03 62.33 4.05Q62.19 4.06 62.06 4.10L62.06 4.10L62.06 10L60.46 10L60.46 2.77Q61.09 2.59 61.70 2.50Q62.30 2.40 62.77 2.40L62.77 2.40Q63.18 2.40 63.51 2.50Q63.84 2.61 64.08 2.85L64.08 2.85Q64.35 2.67 64.72 2.54Q65.09 2.40 65.49 2.40ZM72.02 8.59L72.02 8.59Q72.34 8.59 72.64 8.58Q72.94 8.58 73.17 8.54L73.17 8.54L73.17 6.82Q72.98 6.78 72.70 6.76Q72.43 6.74 72.21 6.74L72.21 6.74Q71.90 6.74 71.62 6.78Q71.33 6.82 71.11 6.91Q70.90 7.01 70.77 7.18Q70.64 7.36 70.64 7.65L70.64 7.65Q70.64 8.16 71.02 8.38Q71.41 8.59 72.02 8.59ZM71.84 2.29L71.84 2.29Q72.77 2.29 73.38 2.50Q74 2.72 74.37 3.11Q74.74 3.50 74.90 4.07Q75.06 4.64 75.06 5.34L75.06 5.34L75.06 9.82Q74.62 9.92 73.78 10.05Q72.93 10.18 71.87 10.18L71.87 10.18Q71.15 10.18 70.57 10.05Q69.98 9.92 69.57 9.62Q69.15 9.33 68.93 8.86Q68.70 8.38 68.70 7.70L68.70 7.70Q68.70 7.04 68.96 6.59Q69.22 6.14 69.65 5.87Q70.08 5.60 70.64 5.48Q71.20 5.36 71.81 5.36L71.81 5.36Q72.58 5.36 73.17 5.49L73.17 5.49L73.17 5.25Q73.17 4.69 72.82 4.31Q72.46 3.94 71.60 3.94L71.60 3.94Q71.04 3.94 70.52 4.02Q70 4.10 69.68 4.21L69.68 4.21L69.41 2.62Q69.78 2.50 70.45 2.39Q71.12 2.29 71.84 2.29ZM78.29 7.20L78.29 4.11L76.58 4.11L76.58 2.48L78.29 2.48L78.29 0.59L80.26 0.27L80.26 2.48L83.41 2.48L83.41 4.11L80.26 4.11L80.26 7.15Q80.26 7.57 80.34 7.82Q80.42 8.08 80.56 8.22Q80.70 8.37 80.91 8.42Q81.12 8.46 81.38 8.46L81.38 8.46Q81.65 8.46 81.88 8.45Q82.11 8.43 82.33 8.39Q82.54 8.35 82.78 8.27Q83.01 8.19 83.28 8.06L83.28 8.06L83.55 9.76Q83.01 9.98 82.38 10.08Q81.74 10.18 81.15 10.18L81.15 10.18Q80.46 10.18 79.94 10.06Q79.41 9.95 79.04 9.63Q78.67 9.31 78.48 8.73Q78.29 8.14 78.29 7.20L78.29 7.20ZM88.54 0.32L88.54 0.32Q88.54 0.90 88.18 1.23Q87.81 1.57 87.30 1.57L87.30 1.57Q86.78 1.57 86.42 1.23Q86.06 0.90 86.06 0.32L86.06 0.32Q86.06-0.27 86.42-0.61Q86.78-0.94 87.30-0.94L87.30-0.94Q87.81-0.94 88.18-0.61Q88.54-0.27 88.54 0.32ZM91.22 8.10L91.47 9.68Q90.86 9.97 90.33 10.07Q89.79 10.18 89.34 10.18L89.34 10.18Q88.58 10.18 88.06 9.95Q87.54 9.73 87.22 9.30Q86.91 8.88 86.78 8.27Q86.66 7.66 86.66 6.88L86.66 6.88L86.66 4.11L84.58 4.11L84.58 2.48L88.62 2.48L88.62 7.14Q88.62 7.81 88.87 8.14Q89.12 8.46 89.70 8.46L89.70 8.46Q89.97 8.46 90.35 8.39Q90.74 8.32 91.22 8.10L91.22 8.10ZM92.70 6.24L92.70 6.24Q92.70 5.42 92.96 4.70Q93.22 3.98 93.74 3.45Q94.27 2.91 95.08 2.60Q95.89 2.29 97.01 2.29L97.01 2.29Q97.68 2.29 98.22 2.38Q98.77 2.48 99.33 2.70L99.33 2.70L98.90 4.29Q98.58 4.18 98.18 4.09Q97.79 4 97.18 4L97.18 4Q96.48 4 96.01 4.17Q95.54 4.34 95.25 4.63Q94.96 4.93 94.83 5.34Q94.70 5.76 94.70 6.24L94.70 6.24Q94.70 7.28 95.29 7.87Q95.87 8.46 97.28 8.46L97.28 8.46Q97.74 8.46 98.25 8.40Q98.75 8.34 99.17 8.19L99.17 8.19L99.46 9.81Q99.04 9.97 98.45 10.07Q97.86 10.18 97.06 10.18L97.06 10.18Q95.90 10.18 95.08 9.87Q94.26 9.57 93.73 9.04Q93.20 8.51 92.95 7.79Q92.70 7.07 92.70 6.24ZM104.02 8.59L104.02 8.59Q104.34 8.59 104.64 8.58Q104.94 8.58 105.17 8.54L105.17 8.54L105.17 6.82Q104.98 6.78 104.70 6.76Q104.43 6.74 104.21 6.74L104.21 6.74Q103.90 6.74 103.62 6.78Q103.33 6.82 103.11 6.91Q102.90 7.01 102.77 7.18Q102.64 7.36 102.64 7.65L102.64 7.65Q102.64 8.16 103.02 8.38Q103.41 8.59 104.02 8.59ZM103.84 2.29L103.84 2.29Q104.77 2.29 105.38 2.50Q106 2.72 106.37 3.11Q106.74 3.50 106.90 4.07Q107.06 4.64 107.06 5.34L107.06 5.34L107.06 9.82Q106.62 9.92 105.78 10.05Q104.93 10.18 103.87 10.18L103.87 10.18Q103.15 10.18 102.57 10.05Q101.98 9.92 101.57 9.62Q101.15 9.33 100.93 8.86Q100.70 8.38 100.70 7.70L100.70 7.70Q100.70 7.04 100.96 6.59Q101.22 6.14 101.65 5.87Q102.08 5.60 102.64 5.48Q103.20 5.36 103.81 5.36L103.81 5.36Q104.58 5.36 105.17 5.49L105.17 5.49L105.17 5.25Q105.17 4.69 104.82 4.31Q104.46 3.94 103.60 3.94L103.60 3.94Q103.04 3.94 102.52 4.02Q102 4.10 101.68 4.21L101.68 4.21L101.41 2.62Q101.78 2.50 102.45 2.39Q103.12 2.29 103.84 2.29Z"/>
    </g>
</svg>