<?xml version="1.0" encoding="UTF-8"?>
<svg height="322" width="175.1" version="1.1" xmlns="http://www.w3.org/2000/svg"><!--Created by Josélio de S. C. Júnior - 2021 - https://github.com/joseliojunior -->
    <defs>
        <pattern id="pattern"
                x="1.5" y="3" width="3" height="6"
                patternUnits="userSpaceOnUse"
                patternTransform="rotate(45)" >
            <rect height="6" width="1" fill="#999999"/>
        </pattern>
    </defs>
    <rect
        height="32"
        width="173.1"
        rx="1"
        ry="1"
        x="1" y="1"
        fill="url(#pattern)"
        stroke="#000000"
        stroke-width="1" />
    <g transform="translate(0, 12)">
        <path fill="#ffffff" stroke="#000000" d="M24.94 2.40L27.10 2.40Q27.20 2.86 27.39 3.53Q27.58 4.20 27.81 5.02Q28.04 5.83 28.32 6.77Q28.59 7.70 28.86 8.69L28.86 8.69Q28.86 7.44 28.83 6.01Q28.81 4.58 28.78 3.10Q28.76 1.61 28.74 0.08Q28.71-1.44 28.71-2.86L28.71-2.86L31.45-2.86Q31.38-1.03 31.30 0.90Q31.23 2.83 31.14 4.74Q31.04 6.65 30.91 8.50Q30.78 10.34 30.61 12L30.61 12L28.16 12Q27.63 10.49 27.10 8.75Q26.58 7.01 26.05 5.42L26.05 5.42Q25.52 6.94 24.94 8.71Q24.37 10.49 23.89 12L23.89 12L21.44 12Q21.25 10.34 21.10 8.48Q20.96 6.62 20.85 4.72Q20.74 2.81 20.67 0.88Q20.60-1.06 20.55-2.86L20.55-2.86L23.29-2.86Q23.26-1.44 23.24 0.07Q23.22 1.58 23.19 3.08Q23.17 4.58 23.14 6.01Q23.12 7.44 23.12 8.69L23.12 8.69Q23.34 7.92 23.61 7.01Q23.89 6.10 24.14 5.21Q24.39 4.32 24.61 3.58Q24.82 2.83 24.94 2.40L24.94 2.40ZM35.79 6L35.79 6Q35.79 7.39 36.30 8.12Q36.80 8.86 37.88 8.86L37.88 8.86Q38.36 8.86 38.78 8.74Q39.20 8.62 39.54 8.42L39.54 8.42L39.54 3Q39.20 2.93 38.94 2.90Q38.67 2.88 38.38 2.88L38.38 2.88Q35.79 2.88 35.79 6ZM42.51 1.08L42.51 10.63Q42.51 13.39 41.18 14.71Q39.85 16.03 36.90 16.03L36.90 16.03Q35.84 16.03 34.87 15.82Q33.90 15.60 33.01 15.31L33.01 15.31L33.56 12.82Q34.26 13.08 35.02 13.31Q35.79 13.54 36.94 13.54L36.94 13.54Q37.71 13.54 38.22 13.36Q38.72 13.18 39.01 12.86Q39.30 12.55 39.42 12.13Q39.54 11.71 39.54 11.23L39.54 11.23L39.54 10.78Q38.91 11.02 38.40 11.14Q37.88 11.26 37.28 11.26L37.28 11.26Q35.07 11.26 33.93 9.86Q32.79 8.47 32.79 6L32.79 6Q32.79 3.22 34.33 1.85Q35.86 0.48 38.50 0.48L38.50 0.48Q40.35 0.48 42.51 1.08L42.51 1.08ZM44.74 6.46L44.74 6.46Q44.74 4.97 45.20 3.84Q45.66 2.71 46.40 1.96Q47.14 1.20 48.10 0.82Q49.06 0.43 50.07 0.43L50.07 0.43Q52.57 0.43 53.86 1.91Q55.16 3.38 55.16 6.22L55.16 6.22Q55.16 6.50 55.15 6.82Q55.14 7.13 55.11 7.32L55.11 7.32L47.79 7.32Q47.79 8.42 48.70 9.06Q49.62 9.70 51.06 9.70L51.06 9.70Q51.94 9.70 52.75 9.50Q53.55 9.31 54.10 9.12L54.10 9.12L54.51 11.64Q53.74 11.90 52.88 12.08Q52.02 12.26 50.94 12.26L50.94 12.26Q49.50 12.26 48.36 11.89Q47.22 11.52 46.41 10.79Q45.61 10.06 45.18 8.98Q44.74 7.90 44.74 6.46ZM47.79 5.28L52.30 5.28Q52.30 4.82 52.18 4.40Q52.06 3.98 51.80 3.65Q51.54 3.31 51.13 3.11Q50.72 2.90 50.12 2.90L50.12 2.90Q49.54 2.90 49.12 3.10Q48.70 3.29 48.43 3.62Q48.15 3.96 48.00 4.39Q47.84 4.82 47.79 5.28L47.79 5.28ZM59.43 7.80L59.43 3.17L56.86 3.17L56.86 0.72L59.43 0.72L59.43-2.11L62.38-2.59L62.38 0.72L67.11 0.72L67.11 3.17L62.38 3.17L62.38 7.73Q62.38 8.35 62.50 8.74Q62.62 9.12 62.84 9.34Q63.06 9.55 63.37 9.62Q63.68 9.70 64.06 9.70L64.06 9.70Q64.47 9.70 64.82 9.67Q65.17 9.65 65.49 9.59Q65.82 9.53 66.16 9.41Q66.51 9.29 66.92 9.10L66.92 9.10L67.33 11.64Q66.51 11.98 65.56 12.12Q64.62 12.26 63.73 12.26L63.73 12.26Q62.70 12.26 61.90 12.10Q61.11 11.93 60.56 11.45Q60.01 10.97 59.72 10.09Q59.43 9.22 59.43 7.80L59.43 7.80ZM87.10 12.31L87.10 12.31Q83.96 12.31 82.30 10.30Q80.65 8.28 80.65 4.56L80.65 4.56Q80.65 2.71 81.15 1.27Q81.66-0.17 82.56-1.16Q83.46-2.16 84.69-2.68Q85.93-3.19 87.39-3.19L87.39-3.19Q88.18-3.19 88.82-3.06Q89.46-2.93 89.94-2.76Q90.42-2.59 90.74-2.40Q91.06-2.21 91.23-2.11L91.23-2.11L90.46 0.24Q89.91-0.12 89.13-0.37Q88.35-0.62 87.34-0.62L87.34-0.62Q86.65-0.62 85.99-0.37Q85.33-0.12 84.81 0.47Q84.30 1.06 83.97 2.04Q83.65 3.02 83.65 4.49L83.65 4.49Q83.65 7.03 84.52 8.39Q85.40 9.74 87.39 9.74L87.39 9.74Q88.54 9.74 89.30 9.48Q90.06 9.22 90.51 8.95L90.51 8.95L91.26 11.28Q90.63 11.66 89.56 11.99Q88.50 12.31 87.10 12.31ZM103.33 6.34L103.33 6.34Q103.33 7.68 102.94 8.77Q102.56 9.86 101.86 10.66Q101.17 11.45 100.20 11.88Q99.22 12.31 98.02 12.31L98.02 12.31Q96.82 12.31 95.85 11.88Q94.88 11.45 94.17 10.66Q93.46 9.86 93.08 8.77Q92.70 7.68 92.70 6.34L92.70 6.34Q92.70 5.02 93.09 3.92Q93.49 2.83 94.20 2.05Q94.90 1.27 95.89 0.85Q96.87 0.43 98.02 0.43L98.02 0.43Q99.20 0.43 100.17 0.85Q101.14 1.27 101.85 2.05Q102.56 2.83 102.94 3.92Q103.33 5.02 103.33 6.34ZM95.70 6.36L95.70 6.36Q95.70 7.87 96.24 8.81Q96.78 9.74 97.98 9.74L97.98 9.74Q99.13 9.74 99.72 8.81Q100.30 7.87 100.30 6.36L100.30 6.36Q100.30 4.85 99.76 3.92Q99.22 3 98.02 3L98.02 3Q96.87 3 96.28 3.92Q95.70 4.85 95.70 6.36ZM105.51 12L105.51 1.08Q106.30 0.86 107.47 0.67Q108.63 0.48 110 0.48L110 0.48Q111.34 0.48 112.23 0.85Q113.12 1.22 113.64 1.91Q114.15 2.59 114.37 3.54Q114.58 4.49 114.58 5.64L114.58 5.64L114.58 12L111.63 12L111.63 6.02Q111.63 4.44 111.27 3.74Q110.91 3.05 109.81 3.05L109.81 3.05Q109.47 3.05 109.15 3.07Q108.82 3.10 108.46 3.14L108.46 3.14L108.46 12L105.51 12ZM122.31 12L119.34 12L119.34 3.17L116.86 3.17L116.86 0.72L119.34 0.72L119.34 0.07Q119.34-1.30 119.73-2.20Q120.13-3.10 120.80-3.64Q121.47-4.18 122.34-4.40Q123.20-4.63 124.11-4.63L124.11-4.63Q125.05-4.63 126.03-4.46Q127.02-4.30 127.81-3.91L127.81-3.91L127.30-1.51Q126.75-1.70 125.92-1.91Q125.10-2.11 124.35-2.11L124.35-2.11Q123.94-2.11 123.57-2.04Q123.20-1.97 122.92-1.73Q122.65-1.49 122.48-1.04Q122.31-0.60 122.31 0.12L122.31 0.12L122.31 0.72L126.94 0.72L126.94 3.17L122.31 3.17L122.31 12ZM134.82-2.52L134.82-2.52Q134.82-1.66 134.26-1.15Q133.71-0.65 132.94-0.65L132.94-0.65Q132.18-0.65 131.64-1.15Q131.10-1.66 131.10-2.52L131.10-2.52Q131.10-3.41 131.64-3.91Q132.18-4.42 132.94-4.42L132.94-4.42Q133.71-4.42 134.26-3.91Q134.82-3.41 134.82-2.52ZM138.82 9.14L139.21 11.52Q138.30 11.95 137.49 12.11Q136.69 12.26 136.02 12.26L136.02 12.26Q134.86 12.26 134.08 11.93Q133.30 11.59 132.84 10.96Q132.37 10.32 132.18 9.41Q131.98 8.50 131.98 7.32L131.98 7.32L131.98 3.17L128.86 3.17L128.86 0.72L134.94 0.72L134.94 7.70Q134.94 8.71 135.31 9.20Q135.68 9.70 136.54 9.70L136.54 9.70Q136.95 9.70 137.53 9.59Q138.10 9.48 138.82 9.14L138.82 9.14ZM143.79 6L143.79 6Q143.79 7.39 144.30 8.12Q144.80 8.86 145.88 8.86L145.88 8.86Q146.36 8.86 146.78 8.74Q147.20 8.62 147.54 8.42L147.54 8.42L147.54 3Q147.20 2.93 146.94 2.90Q146.67 2.88 146.38 2.88L146.38 2.88Q143.79 2.88 143.79 6ZM150.51 1.08L150.51 10.63Q150.51 13.39 149.18 14.71Q147.85 16.03 144.90 16.03L144.90 16.03Q143.84 16.03 142.87 15.82Q141.90 15.60 141.01 15.31L141.01 15.31L141.56 12.82Q142.26 13.08 143.02 13.31Q143.79 13.54 144.94 13.54L144.94 13.54Q145.71 13.54 146.22 13.36Q146.72 13.18 147.01 12.86Q147.30 12.55 147.42 12.13Q147.54 11.71 147.54 11.23L147.54 11.23L147.54 10.78Q146.91 11.02 146.40 11.14Q145.88 11.26 145.28 11.26L145.28 11.26Q143.07 11.26 141.93 9.86Q140.79 8.47 140.79 6L140.79 6Q140.79 3.22 142.33 1.85Q143.86 0.48 146.50 0.48L146.50 0.48Q148.35 0.48 150.51 1.08L150.51 1.08Z"/>
    </g>
</svg>