<?xml version="1.0" encoding="UTF-8"?>
<svg height="34" width="235.6" version="1.1" xmlns="http://www.w3.org/2000/svg">
    <rect
        height="32"
        width="233.6"
        rx="1"
        ry="1"
        x="1"
        y="1"
        fill="#B0CE4E"
        stroke="#56681d"
        stroke-width="1"
         />
    <g transform="translate(0, 12)">
        <path fill="#56681d" d="M27.10 12.31L27.10 12.31Q23.96 12.31 22.30 10.30Q20.65 8.28 20.65 4.56L20.65 4.56Q20.65 2.71 21.15 1.27Q21.66-0.17 22.56-1.16Q23.46-2.16 24.69-2.68Q25.93-3.19 27.39-3.19L27.39-3.19Q28.18-3.19 28.82-3.06Q29.46-2.93 29.94-2.76Q30.42-2.59 30.74-2.40Q31.06-2.21 31.23-2.11L31.23-2.11L30.46 0.24Q29.91-0.12 29.13-0.37Q28.35-0.62 27.34-0.62L27.34-0.62Q26.65-0.62 25.99-0.37Q25.33-0.12 24.81 0.47Q24.30 1.06 23.97 2.04Q23.65 3.02 23.65 4.49L23.65 4.49Q23.65 7.03 24.52 8.39Q25.40 9.74 27.39 9.74L27.39 9.74Q28.54 9.74 29.30 9.48Q30.06 9.22 30.51 8.95L30.51 8.95L31.26 11.28Q30.63 11.66 29.56 11.99Q28.50 12.31 27.10 12.31ZM43.33 6.34L43.33 6.34Q43.33 7.68 42.94 8.77Q42.56 9.86 41.86 10.66Q41.17 11.45 40.20 11.88Q39.22 12.31 38.02 12.31L38.02 12.31Q36.82 12.31 35.85 11.88Q34.88 11.45 34.17 10.66Q33.46 9.86 33.08 8.77Q32.70 7.68 32.70 6.34L32.70 6.34Q32.70 5.02 33.09 3.92Q33.49 2.83 34.20 2.05Q34.90 1.27 35.89 0.85Q36.87 0.43 38.02 0.43L38.02 0.43Q39.20 0.43 40.17 0.85Q41.14 1.27 41.85 2.05Q42.56 2.83 42.94 3.92Q43.33 5.02 43.33 6.34ZM35.70 6.36L35.70 6.36Q35.70 7.87 36.24 8.81Q36.78 9.74 37.98 9.74L37.98 9.74Q39.13 9.74 39.72 8.81Q40.30 7.87 40.30 6.36L40.30 6.36Q40.30 4.85 39.76 3.92Q39.22 3 38.02 3L38.02 3Q36.87 3 36.28 3.92Q35.70 4.85 35.70 6.36ZM52.23 0.60L52.23 0.60Q53.17 0.60 53.77 0.89Q54.37 1.18 54.72 1.75Q55.06 2.33 55.18 3.20Q55.30 4.08 55.30 5.26L55.30 5.26L55.30 12L52.90 12L52.90 5.11Q52.90 4.44 52.82 4.03Q52.74 3.62 52.60 3.41Q52.47 3.19 52.29 3.12Q52.11 3.05 51.92 3.05L51.92 3.05Q51.70 3.05 51.46 3.08Q51.22 3.12 51.03 3.22L51.03 3.22Q51.10 3.67 51.15 4.22Q51.20 4.78 51.20 5.45L51.20 5.45L51.20 7.70L48.80 7.70L48.80 5.11Q48.80 3.96 48.57 3.50Q48.34 3.05 47.84 3.05L47.84 3.05Q47.70 3.05 47.49 3.07Q47.29 3.10 47.10 3.14L47.10 3.14L47.10 12L44.70 12L44.70 1.15Q45.63 0.89 46.54 0.74Q47.46 0.60 48.15 0.60L48.15 0.60Q48.78 0.60 49.27 0.76Q49.76 0.91 50.12 1.27L50.12 1.27Q50.53 1.01 51.08 0.80Q51.63 0.60 52.23 0.60ZM64.26 6.46L64.26 6.46Q64.26 4.94 63.66 3.97Q63.06 3 61.83 3L61.83 3Q61.50 3 61.11 3.04Q60.73 3.07 60.46 3.10L60.46 3.10L60.46 9.29Q60.75 9.48 61.23 9.60Q61.71 9.72 62.19 9.72L62.19 9.72Q63.25 9.72 63.75 8.87Q64.26 8.02 64.26 6.46ZM67.26 6.36L67.26 6.36Q67.26 7.66 66.97 8.75Q66.68 9.84 66.13 10.62Q65.58 11.40 64.74 11.83Q63.90 12.26 62.79 12.26L62.79 12.26Q61.66 12.26 60.46 11.71L60.46 11.71L60.46 15.96L57.51 15.96L57.51 1.08Q58.33 0.82 59.52 0.65Q60.70 0.48 61.86 0.48L61.86 0.48Q64.47 0.48 65.86 2.06Q67.26 3.65 67.26 6.36ZM79.33 6.34L79.33 6.34Q79.33 7.68 78.94 8.77Q78.56 9.86 77.86 10.66Q77.17 11.45 76.20 11.88Q75.22 12.31 74.02 12.31L74.02 12.31Q72.82 12.31 71.85 11.88Q70.88 11.45 70.17 10.66Q69.46 9.86 69.08 8.77Q68.70 7.68 68.70 6.34L68.70 6.34Q68.70 5.02 69.09 3.92Q69.49 2.83 70.20 2.05Q70.90 1.27 71.89 0.85Q72.87 0.43 74.02 0.43L74.02 0.43Q75.20 0.43 76.17 0.85Q77.14 1.27 77.85 2.05Q78.56 2.83 78.94 3.92Q79.33 5.02 79.33 6.34ZM71.70 6.36L71.70 6.36Q71.70 7.87 72.24 8.81Q72.78 9.74 73.98 9.74L73.98 9.74Q75.13 9.74 75.72 8.81Q76.30 7.87 76.30 6.36L76.30 6.36Q76.30 4.85 75.76 3.92Q75.22 3 74.02 3L74.02 3Q72.87 3 72.28 3.92Q71.70 4.85 71.70 6.36ZM81.51 12L81.51 1.08Q82.30 0.86 83.47 0.67Q84.63 0.48 86 0.48L86 0.48Q87.34 0.48 88.23 0.85Q89.12 1.22 89.64 1.91Q90.15 2.59 90.37 3.54Q90.58 4.49 90.58 5.64L90.58 5.64L90.58 12L87.63 12L87.63 6.02Q87.63 4.44 87.27 3.74Q86.91 3.05 85.81 3.05L85.81 3.05Q85.47 3.05 85.15 3.07Q84.82 3.10 84.46 3.14L84.46 3.14L84.46 12L81.51 12ZM92.74 6.46L92.74 6.46Q92.74 4.97 93.20 3.84Q93.66 2.71 94.40 1.96Q95.14 1.20 96.10 0.82Q97.06 0.43 98.07 0.43L98.07 0.43Q100.57 0.43 101.86 1.91Q103.16 3.38 103.16 6.22L103.16 6.22Q103.16 6.50 103.15 6.82Q103.14 7.13 103.11 7.32L103.11 7.32L95.79 7.32Q95.79 8.42 96.70 9.06Q97.62 9.70 99.06 9.70L99.06 9.70Q99.94 9.70 100.75 9.50Q101.55 9.31 102.10 9.12L102.10 9.12L102.51 11.64Q101.74 11.90 100.88 12.08Q100.02 12.26 98.94 12.26L98.94 12.26Q97.50 12.26 96.36 11.89Q95.22 11.52 94.41 10.79Q93.61 10.06 93.18 8.98Q92.74 7.90 92.74 6.46ZM95.79 5.28L100.30 5.28Q100.30 4.82 100.18 4.40Q100.06 3.98 99.80 3.65Q99.54 3.31 99.13 3.11Q98.72 2.90 98.12 2.90L98.12 2.90Q97.54 2.90 97.12 3.10Q96.70 3.29 96.43 3.62Q96.15 3.96 96.00 4.39Q95.84 4.82 95.79 5.28L95.79 5.28ZM105.51 12L105.51 1.08Q106.30 0.86 107.47 0.67Q108.63 0.48 110 0.48L110 0.48Q111.34 0.48 112.23 0.85Q113.12 1.22 113.64 1.91Q114.15 2.59 114.37 3.54Q114.58 4.49 114.58 5.64L114.58 5.64L114.58 12L111.63 12L111.63 6.02Q111.63 4.44 111.27 3.74Q110.91 3.05 109.81 3.05L109.81 3.05Q109.47 3.05 109.15 3.07Q108.82 3.10 108.46 3.14L108.46 3.14L108.46 12L105.51 12ZM119.43 7.80L119.43 3.17L116.86 3.17L116.86 0.72L119.43 0.72L119.43-2.11L122.38-2.59L122.38 0.72L127.11 0.72L127.11 3.17L122.38 3.17L122.38 7.73Q122.38 8.35 122.50 8.74Q122.62 9.12 122.84 9.34Q123.06 9.55 123.37 9.62Q123.68 9.70 124.06 9.70L124.06 9.70Q124.47 9.70 124.82 9.67Q125.17 9.65 125.49 9.59Q125.82 9.53 126.16 9.41Q126.51 9.29 126.92 9.10L126.92 9.10L127.33 11.64Q126.51 11.98 125.56 12.12Q124.62 12.26 123.73 12.26L123.73 12.26Q122.70 12.26 121.90 12.10Q121.11 11.93 120.56 11.45Q120.01 10.97 119.72 10.09Q119.43 9.22 119.43 7.80L119.43 7.80ZM145.38-3.02L145.38-3.02Q148.21-3.02 149.77-1.86Q151.33-0.70 151.33 1.94L151.33 1.94Q151.33 4.61 149.76 5.80Q148.18 6.98 145.30 6.98L145.30 6.98L144.25 6.98L144.25 12L141.30 12L141.30-2.66Q141.73-2.76 142.27-2.83Q142.81-2.90 143.36-2.94Q143.91-2.98 144.44-3Q144.97-3.02 145.38-3.02ZM145.71-0.46L145.71-0.46Q145.45-0.46 144.98-0.44Q144.51-0.43 144.25-0.38L144.25-0.38L144.25 4.42L145.45 4.42Q146.86 4.42 147.58 3.85Q148.30 3.29 148.30 1.92L148.30 1.92Q148.30 0.62 147.60 0.08Q146.89-0.46 145.71-0.46ZM158.02 9.89L158.02 9.89Q158.50 9.89 158.96 9.88Q159.42 9.86 159.75 9.82L159.75 9.82L159.75 7.22Q159.46 7.18 159.06 7.14Q158.65 7.10 158.31 7.10L158.31 7.10Q157.86 7.10 157.42 7.16Q156.99 7.22 156.67 7.37Q156.34 7.51 156.15 7.78Q155.96 8.04 155.96 8.47L155.96 8.47Q155.96 9.24 156.54 9.56Q157.11 9.89 158.02 9.89ZM157.76 0.43L157.76 0.43Q159.15 0.43 160.08 0.76Q161 1.08 161.55 1.67Q162.10 2.26 162.34 3.11Q162.58 3.96 162.58 5.02L162.58 5.02L162.58 11.74Q161.94 11.88 160.66 12.07Q159.39 12.26 157.81 12.26L157.81 12.26Q156.73 12.26 155.85 12.07Q154.98 11.88 154.35 11.44Q153.73 10.99 153.39 10.28Q153.06 9.58 153.06 8.54L153.06 8.54Q153.06 7.56 153.44 6.89Q153.82 6.22 154.47 5.81Q155.12 5.40 155.96 5.22Q156.80 5.04 157.71 5.04L157.71 5.04Q158.86 5.04 159.75 5.23L159.75 5.23L159.75 4.87Q159.75 4.03 159.22 3.47Q158.70 2.90 157.40 2.90L157.40 2.90Q156.56 2.90 155.78 3.02Q155 3.14 154.52 3.31L154.52 3.31L154.11 0.94Q154.66 0.74 155.67 0.59Q156.68 0.43 157.76 0.43ZM169.47 9.77L169.47 9.77Q170.55 9.77 171.13 9.61Q171.70 9.46 171.70 8.98L171.70 8.98Q171.70 8.66 171.52 8.45Q171.34 8.23 171.02 8.08Q170.70 7.92 170.28 7.78Q169.86 7.63 169.40 7.49L169.40 7.49Q168.75 7.30 168.08 7.04Q167.41 6.79 166.86 6.41Q166.30 6.02 165.94 5.44Q165.58 4.85 165.58 3.96L165.58 3.96Q165.58 3.24 165.86 2.60Q166.14 1.97 166.72 1.48Q167.31 0.98 168.22 0.71Q169.14 0.43 170.41 0.43L170.41 0.43Q171.51 0.43 172.46 0.60Q173.41 0.77 174.10 1.08L174.10 1.08L173.65 3.58Q173.24 3.46 172.38 3.18Q171.51 2.90 170.43 2.90L170.43 2.90Q169.30 2.90 168.91 3.18Q168.51 3.46 168.51 3.77L168.51 3.77Q168.51 4.03 168.69 4.24Q168.87 4.44 169.17 4.61Q169.47 4.78 169.87 4.93Q170.26 5.09 170.72 5.23L170.72 5.23Q171.37 5.45 172.06 5.71Q172.76 5.98 173.32 6.37Q173.89 6.77 174.25 7.38Q174.61 7.99 174.61 8.88L174.61 8.88Q174.61 9.58 174.34 10.20Q174.08 10.82 173.47 11.28Q172.86 11.74 171.87 12Q170.89 12.26 169.45 12.26L169.45 12.26Q167.98 12.26 166.95 11.93Q165.92 11.59 165.30 11.33L165.30 11.33L165.75 8.86Q166.59 9.19 167.54 9.48Q168.49 9.77 169.47 9.77ZM177.06 6.36L177.06 6.36Q177.06 5.14 177.44 4.06Q177.82 2.98 178.62 2.17Q179.41 1.37 180.62 0.90Q181.83 0.43 183.51 0.43L183.51 0.43Q184.52 0.43 185.34 0.58Q186.15 0.72 186.99 1.06L186.99 1.06L186.34 3.43Q185.86 3.26 185.28 3.13Q184.69 3 183.78 3L183.78 3Q182.72 3 182.01 3.25Q181.30 3.50 180.87 3.95Q180.44 4.39 180.25 5.02Q180.06 5.64 180.06 6.36L180.06 6.36Q180.06 7.92 180.93 8.81Q181.81 9.70 183.92 9.70L183.92 9.70Q184.62 9.70 185.37 9.60Q186.13 9.50 186.75 9.29L186.75 9.29L187.18 11.71Q186.56 11.95 185.67 12.11Q184.78 12.26 183.58 12.26L183.58 12.26Q181.86 12.26 180.62 11.81Q179.38 11.35 178.59 10.56Q177.80 9.77 177.43 8.69Q177.06 7.61 177.06 6.36ZM194.02 9.89L194.02 9.89Q194.50 9.89 194.96 9.88Q195.42 9.86 195.75 9.82L195.75 9.82L195.75 7.22Q195.46 7.18 195.06 7.14Q194.65 7.10 194.31 7.10L194.31 7.10Q193.86 7.10 193.42 7.16Q192.99 7.22 192.67 7.37Q192.34 7.51 192.15 7.78Q191.96 8.04 191.96 8.47L191.96 8.47Q191.96 9.24 192.54 9.56Q193.11 9.89 194.02 9.89ZM193.76 0.43L193.76 0.43Q195.15 0.43 196.08 0.76Q197 1.08 197.55 1.67Q198.10 2.26 198.34 3.11Q198.58 3.96 198.58 5.02L198.58 5.02L198.58 11.74Q197.94 11.88 196.66 12.07Q195.39 12.26 193.81 12.26L193.81 12.26Q192.73 12.26 191.85 12.07Q190.98 11.88 190.35 11.44Q189.73 10.99 189.39 10.28Q189.06 9.58 189.06 8.54L189.06 8.54Q189.06 7.56 189.44 6.89Q189.82 6.22 190.47 5.81Q191.12 5.40 191.96 5.22Q192.80 5.04 193.71 5.04L193.71 5.04Q194.86 5.04 195.75 5.23L195.75 5.23L195.75 4.87Q195.75 4.03 195.22 3.47Q194.70 2.90 193.40 2.90L193.40 2.90Q192.56 2.90 191.78 3.02Q191 3.14 190.52 3.31L190.52 3.31L190.11 0.94Q190.66 0.74 191.67 0.59Q192.68 0.43 193.76 0.43ZM210.82 9.14L211.21 11.52Q211.14 11.57 210.88 11.69Q210.63 11.81 210.22 11.94Q209.82 12.07 209.23 12.17Q208.64 12.26 207.90 12.26L207.90 12.26Q205.86 12.26 204.92 11.05Q203.98 9.84 203.98 7.51L203.98 7.51L203.98-2.06L200.86-2.06L200.86-4.51L206.94-4.51L206.94 7.73Q206.94 8.88 207.39 9.29Q207.85 9.70 208.54 9.70L208.54 9.70Q209.43 9.70 210.03 9.46Q210.63 9.22 210.82 9.14L210.82 9.14Z"/>
    </g>
</svg>