<?xml version="1.0" encoding="UTF-8"?><svg height="26" width="171.6" version="1.1" xmlns="http://www.w3.org/2000/svg"><!--Created by Josélio de S. C. Júnior - 2021 - https://github.com/joseliojunior --><rect height="24" width="169.6" rx="1" ry="1" x="1" y="1" fill="#B0CE4E" stroke="#56681d" stroke-width="1" /><g transform="translate(0, 8)"><path fill="#56681d" d="M24.74 10.21L24.74 10.21Q22.64 10.21 21.54 8.86Q20.43 7.52 20.43 5.04L20.43 5.04Q20.43 3.81 20.77 2.85Q21.10 1.89 21.70 1.22Q22.30 0.56 23.13 0.22Q23.95-0.13 24.93-0.13L24.93-0.13Q25.46-0.13 25.88-0.04Q26.30 0.05 26.62 0.16Q26.94 0.27 27.16 0.40Q27.38 0.53 27.49 0.59L27.49 0.59L26.98 2.16Q26.61 1.92 26.09 1.75Q25.57 1.58 24.90 1.58L24.90 1.58Q24.43 1.58 23.99 1.75Q23.55 1.92 23.21 2.31Q22.86 2.70 22.65 3.36Q22.43 4.02 22.43 4.99L22.43 4.99Q22.43 6.69 23.02 7.59Q23.60 8.50 24.93 8.50L24.93 8.50Q25.70 8.50 26.20 8.32Q26.70 8.14 27.01 7.97L27.01 7.97L27.50 9.52Q27.09 9.78 26.38 9.99Q25.66 10.21 24.74 10.21ZM35.55 6.22L35.55 6.22Q35.55 7.12 35.30 7.85Q35.04 8.58 34.58 9.10Q34.11 9.63 33.46 9.92Q32.82 10.21 32.02 10.21L32.02 10.21Q31.22 10.21 30.57 9.92Q29.92 9.63 29.45 9.10Q28.98 8.58 28.72 7.85Q28.46 7.12 28.46 6.22L28.46 6.22Q28.46 5.34 28.73 4.62Q28.99 3.89 29.46 3.37Q29.94 2.85 30.59 2.57Q31.25 2.29 32.02 2.29L32.02 2.29Q32.80 2.29 33.45 2.57Q34.10 2.85 34.57 3.37Q35.04 3.89 35.30 4.62Q35.55 5.34 35.55 6.22ZM30.46 6.24L30.46 6.24Q30.46 7.25 30.82 7.87Q31.18 8.50 31.98 8.50L31.98 8.50Q32.75 8.50 33.14 7.87Q33.54 7.25 33.54 6.24L33.54 6.24Q33.54 5.23 33.18 4.62Q32.82 4 32.02 4L32.02 4Q31.25 4 30.86 4.62Q30.46 5.23 30.46 6.24ZM41.49 2.40L41.49 2.40Q42.11 2.40 42.51 2.59Q42.91 2.78 43.14 3.17Q43.38 3.55 43.46 4.14Q43.54 4.72 43.54 5.50L43.54 5.50L43.54 10L41.94 10L41.94 5.41Q41.94 4.96 41.88 4.69Q41.82 4.42 41.74 4.27Q41.65 4.13 41.53 4.08Q41.41 4.03 41.28 4.03L41.28 4.03Q41.14 4.03 40.98 4.06Q40.82 4.08 40.69 4.14L40.69 4.14Q40.74 4.45 40.77 4.82Q40.80 5.18 40.80 5.63L40.80 5.63L40.80 7.14L39.20 7.14L39.20 5.41Q39.20 4.64 39.05 4.34Q38.90 4.03 38.56 4.03L38.56 4.03Q38.46 4.03 38.33 4.05Q38.19 4.06 38.06 4.10L38.06 4.10L38.06 10L36.46 10L36.46 2.77Q37.09 2.59 37.70 2.50Q38.30 2.40 38.77 2.40L38.77 2.40Q39.18 2.40 39.51 2.50Q39.84 2.61 40.08 2.85L40.08 2.85Q40.35 2.67 40.72 2.54Q41.09 2.40 41.49 2.40ZM49.50 6.30L49.50 6.30Q49.50 5.30 49.10 4.65Q48.70 4 47.89 4L47.89 4Q47.66 4 47.41 4.02Q47.15 4.05 46.98 4.06L46.98 4.06L46.98 8.19Q47.17 8.32 47.49 8.40Q47.81 8.48 48.13 8.48L48.13 8.48Q48.83 8.48 49.17 7.91Q49.50 7.34 49.50 6.30ZM51.50 6.24L51.50 6.24Q51.50 7.10 51.31 7.83Q51.12 8.56 50.75 9.08Q50.38 9.60 49.82 9.89Q49.26 10.18 48.53 10.18L48.53 10.18Q47.78 10.18 46.98 9.81L46.98 9.81L46.98 12.64L45.01 12.64L45.01 2.72Q45.55 2.54 46.34 2.43Q47.14 2.32 47.90 2.32L47.90 2.32Q49.65 2.32 50.58 3.38Q51.50 4.43 51.50 6.24ZM59.55 6.22L59.55 6.22Q59.55 7.12 59.30 7.85Q59.04 8.58 58.58 9.10Q58.11 9.63 57.46 9.92Q56.82 10.21 56.02 10.21L56.02 10.21Q55.22 10.21 54.57 9.92Q53.92 9.63 53.45 9.10Q52.98 8.58 52.72 7.85Q52.46 7.12 52.46 6.22L52.46 6.22Q52.46 5.34 52.73 4.62Q52.99 3.89 53.46 3.37Q53.94 2.85 54.59 2.57Q55.25 2.29 56.02 2.29L56.02 2.29Q56.80 2.29 57.45 2.57Q58.10 2.85 58.57 3.37Q59.04 3.89 59.30 4.62Q59.55 5.34 59.55 6.22ZM54.46 6.24L54.46 6.24Q54.46 7.25 54.82 7.87Q55.18 8.50 55.98 8.50L55.98 8.50Q56.75 8.50 57.14 7.87Q57.54 7.25 57.54 6.24L57.54 6.24Q57.54 5.23 57.18 4.62Q56.82 4 56.02 4L56.02 4Q55.25 4 54.86 4.62Q54.46 5.23 54.46 6.24ZM61.01 10L61.01 2.72Q61.54 2.58 62.31 2.45Q63.09 2.32 64 2.32L64 2.32Q64.90 2.32 65.49 2.57Q66.08 2.82 66.42 3.27Q66.77 3.73 66.91 4.36Q67.06 4.99 67.06 5.76L67.06 5.76L67.06 10L65.09 10L65.09 6.02Q65.09 4.96 64.85 4.50Q64.61 4.03 63.87 4.03L63.87 4.03Q63.65 4.03 63.43 4.05Q63.22 4.06 62.98 4.10L62.98 4.10L62.98 10L61.01 10ZM68.50 6.30L68.50 6.30Q68.50 5.31 68.80 4.56Q69.10 3.81 69.60 3.30Q70.10 2.80 70.74 2.54Q71.38 2.29 72.05 2.29L72.05 2.29Q73.71 2.29 74.58 3.27Q75.44 4.26 75.44 6.14L75.44 6.14Q75.44 6.34 75.43 6.54Q75.42 6.75 75.41 6.88L75.41 6.88L70.53 6.88Q70.53 7.62 71.14 8.04Q71.74 8.46 72.70 8.46L72.70 8.46Q73.30 8.46 73.83 8.34Q74.37 8.21 74.74 8.08L74.74 8.08L75.01 9.76Q74.50 9.94 73.92 10.06Q73.34 10.18 72.62 10.18L72.62 10.18Q71.66 10.18 70.90 9.93Q70.14 9.68 69.61 9.19Q69.07 8.70 68.78 7.98Q68.50 7.26 68.50 6.30ZM70.53 5.52L73.54 5.52Q73.54 5.22 73.46 4.94Q73.38 4.66 73.20 4.43Q73.02 4.21 72.75 4.07Q72.48 3.94 72.08 3.94L72.08 3.94Q71.70 3.94 71.42 4.06Q71.14 4.19 70.95 4.42Q70.77 4.64 70.66 4.93Q70.56 5.22 70.53 5.52L70.53 5.52ZM77.01 10L77.01 2.72Q77.54 2.58 78.31 2.45Q79.09 2.32 80 2.32L80 2.32Q80.90 2.32 81.49 2.57Q82.08 2.82 82.42 3.27Q82.77 3.73 82.91 4.36Q83.06 4.99 83.06 5.76L83.06 5.76L83.06 10L81.09 10L81.09 6.02Q81.09 4.96 80.85 4.50Q80.61 4.03 79.87 4.03L79.87 4.03Q79.65 4.03 79.43 4.05Q79.22 4.06 78.98 4.10L78.98 4.10L78.98 10L77.01 10ZM86.29 7.20L86.29 4.11L84.58 4.11L84.58 2.48L86.29 2.48L86.29 0.59L88.26 0.27L88.26 2.48L91.41 2.48L91.41 4.11L88.26 4.11L88.26 7.15Q88.26 7.57 88.34 7.82Q88.42 8.08 88.56 8.22Q88.70 8.37 88.91 8.42Q89.12 8.46 89.38 8.46L89.38 8.46Q89.65 8.46 89.88 8.45Q90.11 8.43 90.33 8.39Q90.54 8.35 90.78 8.27Q91.01 8.19 91.28 8.06L91.28 8.06L91.55 9.76Q91.01 9.98 90.38 10.08Q89.74 10.18 89.15 10.18L89.15 10.18Q88.46 10.18 87.94 10.06Q87.41 9.95 87.04 9.63Q86.67 9.31 86.48 8.73Q86.29 8.14 86.29 7.20L86.29 7.20ZM103.58-0.02L103.58-0.02Q105.47-0.02 106.51 0.76Q107.55 1.54 107.55 3.30L107.55 3.30Q107.55 5.07 106.50 5.86Q105.46 6.66 103.54 6.66L103.54 6.66L102.83 6.66L102.83 10L100.86 10L100.86 0.22Q101.15 0.16 101.51 0.11Q101.87 0.06 102.24 0.04Q102.61 0.02 102.96 0Q103.31-0.02 103.58-0.02ZM103.81 1.70L103.81 1.70Q103.63 1.70 103.32 1.70Q103.01 1.71 102.83 1.74L102.83 1.74L102.83 4.94L103.63 4.94Q104.58 4.94 105.06 4.57Q105.54 4.19 105.54 3.28L105.54 3.28Q105.54 2.42 105.06 2.06Q104.59 1.70 103.81 1.70ZM112.02 8.59L112.02 8.59Q112.34 8.59 112.64 8.58Q112.94 8.58 113.17 8.54L113.17 8.54L113.17 6.82Q112.98 6.78 112.70 6.76Q112.43 6.74 112.21 6.74L112.21 6.74Q111.90 6.74 111.62 6.78Q111.33 6.82 111.11 6.91Q110.90 7.01 110.77 7.18Q110.64 7.36 110.64 7.65L110.64 7.65Q110.64 8.16 111.02 8.38Q111.41 8.59 112.02 8.59ZM111.84 2.29L111.84 2.29Q112.77 2.29 113.38 2.50Q114 2.72 114.37 3.11Q114.74 3.50 114.90 4.07Q115.06 4.64 115.06 5.34L115.06 5.34L115.06 9.82Q114.62 9.92 113.78 10.05Q112.93 10.18 111.87 10.18L111.87 10.18Q111.15 10.18 110.57 10.05Q109.98 9.92 109.57 9.62Q109.15 9.33 108.93 8.86Q108.70 8.38 108.70 7.70L108.70 7.70Q108.70 7.04 108.96 6.59Q109.22 6.14 109.65 5.87Q110.08 5.60 110.64 5.48Q111.20 5.36 111.81 5.36L111.81 5.36Q112.58 5.36 113.17 5.49L113.17 5.49L113.17 5.25Q113.17 4.69 112.82 4.31Q112.46 3.94 111.60 3.94L111.60 3.94Q111.04 3.94 110.52 4.02Q110 4.10 109.68 4.21L109.68 4.21L109.41 2.62Q109.78 2.50 110.45 2.39Q111.12 2.29 111.84 2.29ZM119.65 8.51L119.65 8.51Q120.37 8.51 120.75 8.41Q121.14 8.30 121.14 7.98L121.14 7.98Q121.14 7.78 121.02 7.63Q120.90 7.49 120.68 7.38Q120.46 7.28 120.18 7.18Q119.90 7.09 119.60 6.99L119.60 6.99Q119.17 6.86 118.72 6.70Q118.27 6.53 117.90 6.27Q117.54 6.02 117.30 5.62Q117.06 5.23 117.06 4.64L117.06 4.64Q117.06 4.16 117.24 3.74Q117.42 3.31 117.82 2.98Q118.21 2.66 118.82 2.47Q119.42 2.29 120.27 2.29L120.27 2.29Q121.01 2.29 121.64 2.40Q122.27 2.51 122.74 2.72L122.74 2.72L122.43 4.38Q122.16 4.30 121.58 4.12Q121.01 3.94 120.29 3.94L120.29 3.94Q119.54 3.94 119.27 4.12Q119.01 4.30 119.01 4.51L119.01 4.51Q119.01 4.69 119.13 4.82Q119.25 4.96 119.45 5.07Q119.65 5.18 119.91 5.29Q120.18 5.39 120.48 5.49L120.48 5.49Q120.91 5.63 121.38 5.81Q121.84 5.98 122.22 6.25Q122.59 6.51 122.83 6.92Q123.07 7.33 123.07 7.92L123.07 7.92Q123.07 8.38 122.90 8.80Q122.72 9.22 122.31 9.52Q121.90 9.82 121.25 10Q120.59 10.18 119.63 10.18L119.63 10.18Q118.66 10.18 117.97 9.95Q117.28 9.73 116.86 9.55L116.86 9.55L117.17 7.90Q117.73 8.13 118.36 8.32Q118.99 8.51 119.65 8.51ZM124.70 6.24L124.70 6.24Q124.70 5.42 124.96 4.70Q125.22 3.98 125.74 3.45Q126.27 2.91 127.08 2.60Q127.89 2.29 129.01 2.29L129.01 2.29Q129.68 2.29 130.22 2.38Q130.77 2.48 131.33 2.70L131.33 2.70L130.90 4.29Q130.58 4.18 130.18 4.09Q129.79 4 129.18 4L129.18 4Q128.48 4 128.01 4.17Q127.54 4.34 127.25 4.63Q126.96 4.93 126.83 5.34Q126.70 5.76 126.70 6.24L126.70 6.24Q126.70 7.28 127.29 7.87Q127.87 8.46 129.28 8.46L129.28 8.46Q129.74 8.46 130.25 8.40Q130.75 8.34 131.17 8.19L131.17 8.19L131.46 9.81Q131.04 9.97 130.45 10.07Q129.86 10.18 129.06 10.18L129.06 10.18Q127.90 10.18 127.08 9.87Q126.26 9.57 125.73 9.04Q125.20 8.51 124.95 7.79Q124.70 7.07 124.70 6.24ZM136.02 8.59L136.02 8.59Q136.34 8.59 136.64 8.58Q136.94 8.58 137.17 8.54L137.17 8.54L137.17 6.82Q136.98 6.78 136.70 6.76Q136.43 6.74 136.21 6.74L136.21 6.74Q135.90 6.74 135.62 6.78Q135.33 6.82 135.11 6.91Q134.90 7.01 134.77 7.18Q134.64 7.36 134.64 7.65L134.64 7.65Q134.64 8.16 135.02 8.38Q135.41 8.59 136.02 8.59ZM135.84 2.29L135.84 2.29Q136.77 2.29 137.38 2.50Q138 2.72 138.37 3.11Q138.74 3.50 138.90 4.07Q139.06 4.64 139.06 5.34L139.06 5.34L139.06 9.82Q138.62 9.92 137.78 10.05Q136.93 10.18 135.87 10.18L135.87 10.18Q135.15 10.18 134.57 10.05Q133.98 9.92 133.57 9.62Q133.15 9.33 132.93 8.86Q132.70 8.38 132.70 7.70L132.70 7.70Q132.70 7.04 132.96 6.59Q133.22 6.14 133.65 5.87Q134.08 5.60 134.64 5.48Q135.20 5.36 135.81 5.36L135.81 5.36Q136.58 5.36 137.17 5.49L137.17 5.49L137.17 5.25Q137.17 4.69 136.82 4.31Q136.46 3.94 135.60 3.94L135.60 3.94Q135.04 3.94 134.52 4.02Q134 4.10 133.68 4.21L133.68 4.21L133.41 2.62Q133.78 2.50 134.45 2.39Q135.12 2.29 135.84 2.29ZM147.22 8.10L147.47 9.68Q147.42 9.71 147.26 9.79Q147.09 9.87 146.82 9.96Q146.54 10.05 146.15 10.11Q145.76 10.18 145.26 10.18L145.26 10.18Q143.90 10.18 143.28 9.37Q142.66 8.56 142.66 7.01L142.66 7.01L142.66 0.62L140.58 0.62L140.58-1.01L144.62-1.01L144.62 7.15Q144.62 7.92 144.93 8.19Q145.23 8.46 145.70 8.46L145.70 8.46Q146.29 8.46 146.69 8.30Q147.09 8.14 147.22 8.10L147.22 8.10Z"/></g></svg>