<?xml version="1.0" encoding="UTF-8"?>
<svg height="34" width="78.4" version="1.1" xmlns="http://www.w3.org/2000/svg">
    <rect
        height="32"
        width="76.4"
        rx="1"
        ry="1"
        x="1"
        y="1"
        fill="#3A4E3A"
        stroke="#81a281"
        stroke-width="1"
         />
    <g transform="translate(0, 14)">
        <path fill="#81a281" d="M18.29 11.36L18.29 11.36Q14.62 11.36 12.69 9.01Q10.76 6.66 10.76 2.32L10.76 2.32Q10.76 0.16 11.34-1.52Q11.93-3.20 12.98-4.36Q14.03-5.52 15.47-6.12Q16.92-6.72 18.62-6.72L18.62-6.72Q19.55-6.72 20.29-6.57Q21.03-6.42 21.59-6.22Q22.15-6.02 22.53-5.80Q22.91-5.58 23.10-5.46L23.10-5.46L22.21-2.72Q21.56-3.14 20.65-3.43Q19.74-3.73 18.57-3.73L18.57-3.73Q17.76-3.73 16.99-3.43Q16.22-3.14 15.61-2.45Q15.01-1.77 14.63-0.62Q14.26 0.53 14.26 2.24L14.26 2.24Q14.26 5.20 15.28 6.79Q16.30 8.37 18.62 8.37L18.62 8.37Q19.97 8.37 20.85 8.06Q21.73 7.75 22.26 7.44L22.26 7.44L23.13 10.16Q22.40 10.61 21.16 10.99Q19.91 11.36 18.29 11.36ZM36.26-2.16L36.26 10.55Q35.31 10.80 33.95 11.06Q32.60 11.31 31 11.31L31 11.31Q29.38 11.31 28.34 10.86Q27.30 10.41 26.70 9.59Q26.10 8.76 25.88 7.64Q25.65 6.52 25.65 5.18L25.65 5.18L25.65-2.16L29.10-2.16L29.10 4.73Q29.10 6.55 29.53 7.43Q29.96 8.31 31.22 8.31L31.22 8.31Q32.01 8.31 32.79 8.17L32.79 8.17L32.79-2.16L36.26-2.16ZM42.28 4.34L42.28 4.34Q42.28 6.10 42.94 7.22Q43.60 8.34 45.06 8.34L45.06 8.34Q45.48 8.34 45.84 8.31Q46.20 8.28 46.60 8.23L46.60 8.23L46.60 1.06Q46.20 0.84 45.70 0.68Q45.20 0.53 44.64 0.53L44.64 0.53Q43.40 0.53 42.84 1.51Q42.28 2.49 42.28 4.34ZM50.04-8.43L50.04 10.61Q49.09 10.92 47.72 11.11Q46.34 11.31 45.03 11.31L45.03 11.31Q41.95 11.31 40.37 9.49Q38.78 7.67 38.78 4.50L38.78 4.50Q38.78 1.28 40.11-0.58Q41.44-2.44 44.05-2.44L44.05-2.44Q44.75-2.44 45.42-2.29Q46.09-2.13 46.60-1.85L46.60-1.85L46.60-7.84L50.04-8.43ZM59.03 8.54L59.03 8.54Q59.59 8.54 60.12 8.52Q60.65 8.51 61.04 8.45L61.04 8.45L61.04 5.43Q60.71 5.37 60.23 5.33Q59.76 5.29 59.36 5.29L59.36 5.29Q58.83 5.29 58.33 5.36Q57.82 5.43 57.45 5.60Q57.07 5.76 56.84 6.07Q56.62 6.38 56.62 6.88L56.62 6.88Q56.62 7.78 57.29 8.16Q57.96 8.54 59.03 8.54ZM58.72-2.50L58.72-2.50Q60.34-2.50 61.42-2.12Q62.50-1.74 63.14-1.05Q63.79-0.37 64.07 0.63Q64.35 1.62 64.35 2.85L64.35 2.85L64.35 10.69Q63.59 10.86 62.11 11.08Q60.62 11.31 58.78 11.31L58.78 11.31Q57.52 11.31 56.49 11.08Q55.47 10.86 54.74 10.34Q54.02 9.82 53.62 9.00Q53.23 8.17 53.23 6.97L53.23 6.97Q53.23 5.82 53.68 5.04Q54.13 4.25 54.88 3.78Q55.64 3.30 56.62 3.09Q57.60 2.88 58.66 2.88L58.66 2.88Q60.01 2.88 61.04 3.10L61.04 3.10L61.04 2.68Q61.04 1.70 60.43 1.05Q59.81 0.39 58.30 0.39L58.30 0.39Q57.32 0.39 56.41 0.53Q55.50 0.67 54.94 0.86L54.94 0.86L54.46-1.91Q55.11-2.13 56.28-2.31Q57.46-2.50 58.72-2.50Z"/>
    </g>
</svg>