<?xml version="1.0" encoding="UTF-8"?>
<svg height="322" width="90.4" version="1.1" xmlns="http://www.w3.org/2000/svg"><!--Created by Josélio de S. C. Júnior - 2021 - https://github.com/joseliojunior -->
    <rect
        height="32"
        width="88.4"
        rx="1"
        ry="1"
        x="1" y="1"
        fill="#244776"
        stroke="#6392cf"
        stroke-width="1" />
    <g transform="translate(0, 12)">
        <path fill="#6392cf" stroke="none" d="M27.10 12.31L27.10 12.31Q23.96 12.31 22.30 10.30Q20.65 8.28 20.65 4.56L20.65 4.56Q20.65 2.71 21.15 1.27Q21.66-0.17 22.56-1.16Q23.46-2.16 24.69-2.68Q25.93-3.19 27.39-3.19L27.39-3.19Q28.18-3.19 28.82-3.06Q29.46-2.93 29.94-2.76Q30.42-2.59 30.74-2.40Q31.06-2.21 31.23-2.11L31.23-2.11L30.46 0.24Q29.91-0.12 29.13-0.37Q28.35-0.62 27.34-0.62L27.34-0.62Q26.65-0.62 25.99-0.37Q25.33-0.12 24.81 0.47Q24.30 1.06 23.97 2.04Q23.65 3.02 23.65 4.49L23.65 4.49Q23.65 7.03 24.52 8.39Q25.40 9.74 27.39 9.74L27.39 9.74Q28.54 9.74 29.30 9.48Q30.06 9.22 30.51 8.95L30.51 8.95L31.26 11.28Q30.63 11.66 29.56 11.99Q28.50 12.31 27.10 12.31ZM37.57 9.84L37.57 9.84Q38.31 9.84 38.80 9.68Q39.30 9.53 39.58 9.25Q39.87 8.98 39.98 8.63Q40.09 8.28 40.09 7.92L40.09 7.92Q40.09 7.46 39.82 7.10Q39.56 6.74 39.15 6.47Q38.74 6.19 38.24 5.96Q37.74 5.74 37.23 5.54L37.23 5.54Q36.56 5.30 35.84 4.99Q35.12 4.68 34.53 4.20Q33.94 3.72 33.56 3.01Q33.18 2.30 33.18 1.25L33.18 1.25Q33.18-0.84 34.53-2.02Q35.89-3.19 38.26-3.19L38.26-3.19Q39.63-3.19 40.65-2.88Q41.67-2.57 42.37-2.18L42.37-2.18L41.50 0.10Q40.90-0.24 40.17-0.48Q39.44-0.72 38.48-0.72L38.48-0.72Q36.13-0.72 36.13 0.98L36.13 0.98Q36.13 1.42 36.37 1.74Q36.61 2.06 36.98 2.32Q37.35 2.57 37.82 2.76Q38.29 2.95 38.74 3.12L38.74 3.12Q39.44 3.38 40.20 3.71Q40.95 4.03 41.59 4.57Q42.22 5.11 42.63 5.92Q43.04 6.72 43.04 7.94L43.04 7.94Q43.04 10.03 41.68 11.17Q40.33 12.31 37.57 12.31L37.57 12.31Q35.72 12.31 34.62 11.92Q33.51 11.52 32.96 11.18L32.96 11.18L33.82 8.78Q34.47 9.17 35.37 9.50Q36.27 9.84 37.57 9.84ZM47.65 4.56L47.65 4.56Q47.65 5.64 47.73 6.59Q47.82 7.54 48.07 8.23Q48.32 8.93 48.78 9.34Q49.23 9.74 50 9.74L50 9.74Q50.74 9.74 51.21 9.34Q51.68 8.93 51.93 8.22Q52.18 7.51 52.27 6.58Q52.35 5.64 52.35 4.56L52.35 4.56Q52.35 3.48 52.27 2.53Q52.18 1.58 51.93 0.89Q51.68 0.19 51.22-0.22Q50.77-0.62 50-0.62L50-0.62Q49.23-0.62 48.78-0.22Q48.32 0.19 48.07 0.90Q47.82 1.61 47.73 2.54Q47.65 3.48 47.65 4.56ZM44.65 4.56L44.65 4.56Q44.65 0.72 46.06-1.24Q47.48-3.19 50-3.19L50-3.19Q52.62-3.19 53.98-1.24Q55.35 0.72 55.35 4.56L55.35 4.56Q55.35 8.40 53.96 10.36Q52.57 12.31 50.02 12.31L50.02 12.31Q47.41 12.31 46.03 10.36Q44.65 8.40 44.65 4.56ZM66.90 12L64.52 12Q63.51 9.53 62.32 7.07Q61.14 4.61 59.77 2.14L59.77 2.14L59.77 12L57.10 12L57.10-2.86L59.48-2.86Q60.15-1.80 60.82-0.56Q61.50 0.67 62.13 1.90Q62.77 3.12 63.31 4.27Q63.85 5.42 64.23 6.29L64.23 6.29L64.23-2.86L66.90-2.86L66.90 12Z"/>
    </g>
</svg>