<?xml version="1.0" encoding="UTF-8"?>
<svg height="322" width="150.89999999999998" version="1.1" xmlns="http://www.w3.org/2000/svg"><!--Created by Josélio de S. C. Júnior - 2021 - https://github.com/joseliojunior -->
    <rect
        height="32"
        width="148.89999999999998"
        rx="1"
        ry="1"
        x="1" y="1"
        fill="#003a52"
        stroke="#00a4eb"
        stroke-width="1" />
    <g transform="translate(0, 12)">
        <path fill="#00a4eb" stroke="none" d="M24.25-0.38L24.25 9.60Q24.37 9.62 24.51 9.62Q24.66 9.62 24.78 9.62L24.78 9.62Q25.78 9.62 26.47 9.24Q27.15 8.86 27.57 8.18Q27.99 7.51 28.17 6.59Q28.35 5.66 28.35 4.56L28.35 4.56Q28.35 3.60 28.21 2.69Q28.06 1.78 27.70 1.08Q27.34 0.38 26.72-0.04Q26.10-0.46 25.11-0.46L25.11-0.46Q24.92-0.46 24.68-0.44Q24.44-0.43 24.25-0.38L24.25-0.38ZM31.35 4.56L31.35 4.56Q31.35 6.62 30.84 8.08Q30.32 9.53 29.41 10.44Q28.50 11.35 27.24 11.77Q25.98 12.19 24.46 12.19L24.46 12.19Q23.67 12.19 22.92 12.11Q22.16 12.02 21.30 11.83L21.30 11.83L21.30-2.66Q22.30-2.88 23.19-2.95Q24.08-3.02 24.85-3.02L24.85-3.02Q26.31-3.02 27.52-2.59Q28.74-2.16 29.58-1.24Q30.42-0.31 30.88 1.12Q31.35 2.54 31.35 4.56ZM38.02 9.89L38.02 9.89Q38.50 9.89 38.96 9.88Q39.42 9.86 39.75 9.82L39.75 9.82L39.75 7.22Q39.46 7.18 39.06 7.14Q38.65 7.10 38.31 7.10L38.31 7.10Q37.86 7.10 37.42 7.16Q36.99 7.22 36.67 7.37Q36.34 7.51 36.15 7.78Q35.96 8.04 35.96 8.47L35.96 8.47Q35.96 9.24 36.54 9.56Q37.11 9.89 38.02 9.89ZM37.76 0.43L37.76 0.43Q39.15 0.43 40.08 0.76Q41 1.08 41.55 1.67Q42.10 2.26 42.34 3.11Q42.58 3.96 42.58 5.02L42.58 5.02L42.58 11.74Q41.94 11.88 40.66 12.07Q39.39 12.26 37.81 12.26L37.81 12.26Q36.73 12.26 35.85 12.07Q34.98 11.88 34.35 11.44Q33.73 10.99 33.39 10.28Q33.06 9.58 33.06 8.54L33.06 8.54Q33.06 7.56 33.44 6.89Q33.82 6.22 34.47 5.81Q35.12 5.40 35.96 5.22Q36.80 5.04 37.71 5.04L37.71 5.04Q38.86 5.04 39.75 5.23L39.75 5.23L39.75 4.87Q39.75 4.03 39.22 3.47Q38.70 2.90 37.40 2.90L37.40 2.90Q36.56 2.90 35.78 3.02Q35 3.14 34.52 3.31L34.52 3.31L34.11 0.94Q34.66 0.74 35.67 0.59Q36.68 0.43 37.76 0.43ZM47.43 7.80L47.43 3.17L44.86 3.17L44.86 0.72L47.43 0.72L47.43-2.11L50.38-2.59L50.38 0.72L55.11 0.72L55.11 3.17L50.38 3.17L50.38 7.73Q50.38 8.35 50.50 8.74Q50.62 9.12 50.84 9.34Q51.06 9.55 51.37 9.62Q51.68 9.70 52.06 9.70L52.06 9.70Q52.47 9.70 52.82 9.67Q53.17 9.65 53.49 9.59Q53.82 9.53 54.16 9.41Q54.51 9.29 54.92 9.10L54.92 9.10L55.33 11.64Q54.51 11.98 53.56 12.12Q52.62 12.26 51.73 12.26L51.73 12.26Q50.70 12.26 49.90 12.10Q49.11 11.93 48.56 11.45Q48.01 10.97 47.72 10.09Q47.43 9.22 47.43 7.80L47.43 7.80ZM62.02 9.89L62.02 9.89Q62.50 9.89 62.96 9.88Q63.42 9.86 63.75 9.82L63.75 9.82L63.75 7.22Q63.46 7.18 63.06 7.14Q62.65 7.10 62.31 7.10L62.31 7.10Q61.86 7.10 61.42 7.16Q60.99 7.22 60.67 7.37Q60.34 7.51 60.15 7.78Q59.96 8.04 59.96 8.47L59.96 8.47Q59.96 9.24 60.54 9.56Q61.11 9.89 62.02 9.89ZM61.76 0.43L61.76 0.43Q63.15 0.43 64.08 0.76Q65 1.08 65.55 1.67Q66.10 2.26 66.34 3.11Q66.58 3.96 66.58 5.02L66.58 5.02L66.58 11.74Q65.94 11.88 64.66 12.07Q63.39 12.26 61.81 12.26L61.81 12.26Q60.73 12.26 59.85 12.07Q58.98 11.88 58.35 11.44Q57.73 10.99 57.39 10.28Q57.06 9.58 57.06 8.54L57.06 8.54Q57.06 7.56 57.44 6.89Q57.82 6.22 58.47 5.81Q59.12 5.40 59.96 5.22Q60.80 5.04 61.71 5.04L61.71 5.04Q62.86 5.04 63.75 5.23L63.75 5.23L63.75 4.87Q63.75 4.03 63.22 3.47Q62.70 2.90 61.40 2.90L61.40 2.90Q60.56 2.90 59.78 3.02Q59 3.14 58.52 3.31L58.52 3.31L58.11 0.94Q58.66 0.74 59.67 0.59Q60.68 0.43 61.76 0.43ZM72.94 2.40L75.10 2.40Q75.20 2.86 75.39 3.53Q75.58 4.20 75.81 5.02Q76.04 5.83 76.32 6.77Q76.59 7.70 76.86 8.69L76.86 8.69Q76.86 7.44 76.83 6.01Q76.81 4.58 76.78 3.10Q76.76 1.61 76.74 0.08Q76.71-1.44 76.71-2.86L76.71-2.86L79.45-2.86Q79.38-1.03 79.30 0.90Q79.23 2.83 79.14 4.74Q79.04 6.65 78.91 8.50Q78.78 10.34 78.61 12L78.61 12L76.16 12Q75.63 10.49 75.10 8.75Q74.58 7.01 74.05 5.42L74.05 5.42Q73.52 6.94 72.94 8.71Q72.37 10.49 71.89 12L71.89 12L69.44 12Q69.25 10.34 69.10 8.48Q68.96 6.62 68.85 4.72Q68.74 2.81 68.67 0.88Q68.60-1.06 68.55-2.86L68.55-2.86L71.29-2.86Q71.26-1.44 71.24 0.07Q71.22 1.58 71.19 3.08Q71.17 4.58 71.14 6.01Q71.12 7.44 71.12 8.69L71.12 8.69Q71.34 7.92 71.61 7.01Q71.89 6.10 72.14 5.21Q72.39 4.32 72.61 3.58Q72.82 2.83 72.94 2.40L72.94 2.40ZM80.74 6.46L80.74 6.46Q80.74 4.97 81.20 3.84Q81.66 2.71 82.40 1.96Q83.14 1.20 84.10 0.82Q85.06 0.43 86.07 0.43L86.07 0.43Q88.57 0.43 89.86 1.91Q91.16 3.38 91.16 6.22L91.16 6.22Q91.16 6.50 91.15 6.82Q91.14 7.13 91.11 7.32L91.11 7.32L83.79 7.32Q83.79 8.42 84.70 9.06Q85.62 9.70 87.06 9.70L87.06 9.70Q87.94 9.70 88.75 9.50Q89.55 9.31 90.10 9.12L90.10 9.12L90.51 11.64Q89.74 11.90 88.88 12.08Q88.02 12.26 86.94 12.26L86.94 12.26Q85.50 12.26 84.36 11.89Q83.22 11.52 82.41 10.79Q81.61 10.06 81.18 8.98Q80.74 7.90 80.74 6.46ZM83.79 5.28L88.30 5.28Q88.30 4.82 88.18 4.40Q88.06 3.98 87.80 3.65Q87.54 3.31 87.13 3.11Q86.72 2.90 86.12 2.90L86.12 2.90Q85.54 2.90 85.12 3.10Q84.70 3.29 84.43 3.62Q84.15 3.96 84.00 4.39Q83.84 4.82 83.79 5.28L83.79 5.28ZM98.02 9.89L98.02 9.89Q98.50 9.89 98.96 9.88Q99.42 9.86 99.75 9.82L99.75 9.82L99.75 7.22Q99.46 7.18 99.06 7.14Q98.65 7.10 98.31 7.10L98.31 7.10Q97.86 7.10 97.42 7.16Q96.99 7.22 96.67 7.37Q96.34 7.51 96.15 7.78Q95.96 8.04 95.96 8.47L95.96 8.47Q95.96 9.24 96.54 9.56Q97.11 9.89 98.02 9.89ZM97.76 0.43L97.76 0.43Q99.15 0.43 100.08 0.76Q101 1.08 101.55 1.67Q102.10 2.26 102.34 3.11Q102.58 3.96 102.58 5.02L102.58 5.02L102.58 11.74Q101.94 11.88 100.66 12.07Q99.39 12.26 97.81 12.26L97.81 12.26Q96.73 12.26 95.85 12.07Q94.98 11.88 94.35 11.44Q93.73 10.99 93.39 10.28Q93.06 9.58 93.06 8.54L93.06 8.54Q93.06 7.56 93.44 6.89Q93.82 6.22 94.47 5.81Q95.12 5.40 95.96 5.22Q96.80 5.04 97.71 5.04L97.71 5.04Q98.86 5.04 99.75 5.23L99.75 5.23L99.75 4.87Q99.75 4.03 99.22 3.47Q98.70 2.90 97.40 2.90L97.40 2.90Q96.56 2.90 95.78 3.02Q95 3.14 94.52 3.31L94.52 3.31L94.11 0.94Q94.66 0.74 95.67 0.59Q96.68 0.43 97.76 0.43ZM111.13 12L108.66 12Q107.58 9.86 106.46 7.00Q105.34 4.13 104.34 0.72L104.34 0.72L107.43 0.72Q107.65 1.63 107.95 2.66Q108.25 3.70 108.58 4.74Q108.92 5.78 109.27 6.77Q109.62 7.75 109.93 8.57L109.93 8.57Q110.24 7.75 110.62 6.77Q111.01 5.78 111.38 4.74Q111.75 3.70 112.10 2.66Q112.45 1.63 112.66 0.72L112.66 0.72L115.66 0.72Q114.66 4.13 113.43 7.00Q112.21 9.86 111.13 12L111.13 12ZM116.74 6.46L116.74 6.46Q116.74 4.97 117.20 3.84Q117.66 2.71 118.40 1.96Q119.14 1.20 120.10 0.82Q121.06 0.43 122.07 0.43L122.07 0.43Q124.57 0.43 125.86 1.91Q127.16 3.38 127.16 6.22L127.16 6.22Q127.16 6.50 127.15 6.82Q127.14 7.13 127.11 7.32L127.11 7.32L119.79 7.32Q119.79 8.42 120.70 9.06Q121.62 9.70 123.06 9.70L123.06 9.70Q123.94 9.70 124.75 9.50Q125.55 9.31 126.10 9.12L126.10 9.12L126.51 11.64Q125.74 11.90 124.88 12.08Q124.02 12.26 122.94 12.26L122.94 12.26Q121.50 12.26 120.36 11.89Q119.22 11.52 118.41 10.79Q117.61 10.06 117.18 8.98Q116.74 7.90 116.74 6.46ZM119.79 5.28L124.30 5.28Q124.30 4.82 124.18 4.40Q124.06 3.98 123.80 3.65Q123.54 3.31 123.13 3.11Q122.72 2.90 122.12 2.90L122.12 2.90Q121.54 2.90 121.12 3.10Q120.70 3.29 120.43 3.62Q120.15 3.96 120.00 4.39Q119.84 4.82 119.79 5.28L119.79 5.28Z"/>
    </g>
</svg>