<?xml version="1.0" encoding="UTF-8"?>
<svg height="26" width="204" version="1.1" xmlns="http://www.w3.org/2000/svg"><!--Created by Josélio de S. C. Júnior - 2021 - https://github.com/joseliojunior -->
    <defs>
        <pattern id="pattern"
                x="1.5" y="3" width="3" height="6"
                patternUnits="userSpaceOnUse"
                patternTransform="rotate(45)" >
            <rect height="6" width="1" fill="#999999"/>
        </pattern>
    </defs>
    <rect
        height="24"
        width="202"
        rx="12"
        ry="12"
        x="1" y="1"
        fill="url(#pattern)"
        stroke="#000000"
        stroke-width="1" />
    <g transform="translate(0, 8)">
        <path fill="#ffffff" stroke="#000000" d="M27.36 10L21.01 10L21.01 0.10L27.01 0.10L27.01 1.73L22.98 1.73L22.98 3.95L26.48 3.95L26.48 5.58L22.98 5.58L22.98 8.37L27.36 8.37L27.36 10ZM30.45 6.19L30.45 6.19Q30.45 7.20 30.82 7.84Q31.20 8.48 32.03 8.48L32.03 8.48Q32.27 8.48 32.48 8.46Q32.69 8.45 32.91 8.42L32.91 8.42L32.91 4.32Q32.69 4.19 32.40 4.10Q32.11 4.02 31.79 4.02L31.79 4.02Q31.09 4.02 30.77 4.58Q30.45 5.14 30.45 6.19ZM34.88-1.10L34.88 9.78Q34.34 9.95 33.55 10.06Q32.77 10.18 32.02 10.18L32.02 10.18Q30.26 10.18 29.35 9.14Q28.45 8.10 28.45 6.29L28.45 6.29Q28.45 4.45 29.21 3.38Q29.97 2.32 31.46 2.32L31.46 2.32Q31.86 2.32 32.24 2.41Q32.62 2.50 32.91 2.66L32.91 2.66L32.91-0.77L34.88-1.10ZM42.40 2.48L42.40 9.50Q42.40 10.42 42.18 11.03Q41.95 11.65 41.56 12.02Q41.17 12.40 40.63 12.56Q40.10 12.72 39.47 12.72L39.47 12.72Q38.70 12.72 38.05 12.53Q37.39 12.34 36.78 12.03L36.78 12.03L37.39 10.37Q37.79 10.59 38.36 10.79Q38.93 10.99 39.39 10.99L39.39 10.99Q39.89 10.99 40.16 10.70Q40.43 10.40 40.43 9.60L40.43 9.60L40.43 4.11L37.39 4.11L37.39 2.48L42.40 2.48ZM42.16 0.32L42.16 0.32Q42.16 0.90 41.79 1.23Q41.42 1.57 40.91 1.57L40.91 1.57Q40.40 1.57 40.04 1.23Q39.68 0.90 39.68 0.32L39.68 0.32Q39.68-0.27 40.04-0.61Q40.40-0.94 40.91-0.94L40.91-0.94Q41.42-0.94 41.79-0.61Q42.16-0.27 42.16 0.32ZM44.50 6.30L44.50 6.30Q44.50 5.31 44.80 4.56Q45.10 3.81 45.60 3.30Q46.10 2.80 46.74 2.54Q47.38 2.29 48.05 2.29L48.05 2.29Q49.71 2.29 50.58 3.27Q51.44 4.26 51.44 6.14L51.44 6.14Q51.44 6.34 51.43 6.54Q51.42 6.75 51.41 6.88L51.41 6.88L46.53 6.88Q46.53 7.62 47.14 8.04Q47.74 8.46 48.70 8.46L48.70 8.46Q49.30 8.46 49.83 8.34Q50.37 8.21 50.74 8.08L50.74 8.08L51.01 9.76Q50.50 9.94 49.92 10.06Q49.34 10.18 48.62 10.18L48.62 10.18Q47.66 10.18 46.90 9.93Q46.14 9.68 45.61 9.19Q45.07 8.70 44.78 7.98Q44.50 7.26 44.50 6.30ZM46.53 5.52L49.54 5.52Q49.54 5.22 49.46 4.94Q49.38 4.66 49.20 4.43Q49.02 4.21 48.75 4.07Q48.48 3.94 48.08 3.94L48.08 3.94Q47.70 3.94 47.42 4.06Q47.14 4.19 46.95 4.42Q46.77 4.64 46.66 4.93Q46.56 5.22 46.53 5.52L46.53 5.52ZM62.83 1.74L62.83 8.40Q62.91 8.42 63.01 8.42Q63.10 8.42 63.18 8.42L63.18 8.42Q63.86 8.42 64.31 8.16Q64.77 7.90 65.05 7.46Q65.33 7.01 65.45 6.39Q65.57 5.78 65.57 5.04L65.57 5.04Q65.57 4.40 65.47 3.79Q65.38 3.18 65.14 2.72Q64.90 2.26 64.48 1.98Q64.06 1.70 63.41 1.70L63.41 1.70Q63.28 1.70 63.12 1.70Q62.96 1.71 62.83 1.74L62.83 1.74ZM67.57 5.04L67.57 5.04Q67.57 6.42 67.22 7.38Q66.88 8.35 66.27 8.96Q65.66 9.57 64.82 9.85Q63.98 10.13 62.98 10.13L62.98 10.13Q62.45 10.13 61.94 10.07Q61.44 10.02 60.86 9.89L60.86 9.89L60.86 0.22Q61.54 0.08 62.13 0.03Q62.72-0.02 63.23-0.02L63.23-0.02Q64.21-0.02 65.02 0.27Q65.82 0.56 66.38 1.18Q66.94 1.79 67.26 2.74Q67.57 3.70 67.57 5.04ZM72.02 8.59L72.02 8.59Q72.34 8.59 72.64 8.58Q72.94 8.58 73.17 8.54L73.17 8.54L73.17 6.82Q72.98 6.78 72.70 6.76Q72.43 6.74 72.21 6.74L72.21 6.74Q71.90 6.74 71.62 6.78Q71.33 6.82 71.11 6.91Q70.90 7.01 70.77 7.18Q70.64 7.36 70.64 7.65L70.64 7.65Q70.64 8.16 71.02 8.38Q71.41 8.59 72.02 8.59ZM71.84 2.29L71.84 2.29Q72.77 2.29 73.38 2.50Q74 2.72 74.37 3.11Q74.74 3.50 74.90 4.07Q75.06 4.64 75.06 5.34L75.06 5.34L75.06 9.82Q74.62 9.92 73.78 10.05Q72.93 10.18 71.87 10.18L71.87 10.18Q71.15 10.18 70.57 10.05Q69.98 9.92 69.57 9.62Q69.15 9.33 68.93 8.86Q68.70 8.38 68.70 7.70L68.70 7.70Q68.70 7.04 68.96 6.59Q69.22 6.14 69.65 5.87Q70.08 5.60 70.64 5.48Q71.20 5.36 71.81 5.36L71.81 5.36Q72.58 5.36 73.17 5.49L73.17 5.49L73.17 5.25Q73.17 4.69 72.82 4.31Q72.46 3.94 71.60 3.94L71.60 3.94Q71.04 3.94 70.52 4.02Q70 4.10 69.68 4.21L69.68 4.21L69.41 2.62Q69.78 2.50 70.45 2.39Q71.12 2.29 71.84 2.29ZM78.29 7.20L78.29 4.11L76.58 4.11L76.58 2.48L78.29 2.48L78.29 0.59L80.26 0.27L80.26 2.48L83.41 2.48L83.41 4.11L80.26 4.11L80.26 7.15Q80.26 7.57 80.34 7.82Q80.42 8.08 80.56 8.22Q80.70 8.37 80.91 8.42Q81.12 8.46 81.38 8.46L81.38 8.46Q81.65 8.46 81.88 8.45Q82.11 8.43 82.33 8.39Q82.54 8.35 82.78 8.27Q83.01 8.19 83.28 8.06L83.28 8.06L83.55 9.76Q83.01 9.98 82.38 10.08Q81.74 10.18 81.15 10.18L81.15 10.18Q80.46 10.18 79.94 10.06Q79.41 9.95 79.04 9.63Q78.67 9.31 78.48 8.73Q78.29 8.14 78.29 7.20L78.29 7.20ZM88.02 8.59L88.02 8.59Q88.34 8.59 88.64 8.58Q88.94 8.58 89.17 8.54L89.17 8.54L89.17 6.82Q88.98 6.78 88.70 6.76Q88.43 6.74 88.21 6.74L88.21 6.74Q87.90 6.74 87.62 6.78Q87.33 6.82 87.11 6.91Q86.90 7.01 86.77 7.18Q86.64 7.36 86.64 7.65L86.64 7.65Q86.64 8.16 87.02 8.38Q87.41 8.59 88.02 8.59ZM87.84 2.29L87.84 2.29Q88.77 2.29 89.38 2.50Q90 2.72 90.37 3.11Q90.74 3.50 90.90 4.07Q91.06 4.64 91.06 5.34L91.06 5.34L91.06 9.82Q90.62 9.92 89.78 10.05Q88.93 10.18 87.87 10.18L87.87 10.18Q87.15 10.18 86.57 10.05Q85.98 9.92 85.57 9.62Q85.15 9.33 84.93 8.86Q84.70 8.38 84.70 7.70L84.70 7.70Q84.70 7.04 84.96 6.59Q85.22 6.14 85.65 5.87Q86.08 5.60 86.64 5.48Q87.20 5.36 87.81 5.36L87.81 5.36Q88.58 5.36 89.17 5.49L89.17 5.49L89.17 5.25Q89.17 4.69 88.82 4.31Q88.46 3.94 87.60 3.94L87.60 3.94Q87.04 3.94 86.52 4.02Q86 4.10 85.68 4.21L85.68 4.21L85.41 2.62Q85.78 2.50 86.45 2.39Q87.12 2.29 87.84 2.29ZM104.74 10.21L104.74 10.21Q102.64 10.21 101.54 8.86Q100.43 7.52 100.43 5.04L100.43 5.04Q100.43 3.81 100.77 2.85Q101.10 1.89 101.70 1.22Q102.30 0.56 103.13 0.22Q103.95-0.13 104.93-0.13L104.93-0.13Q105.46-0.13 105.88-0.04Q106.30 0.05 106.62 0.16Q106.94 0.27 107.16 0.40Q107.38 0.53 107.49 0.59L107.49 0.59L106.98 2.16Q106.61 1.92 106.09 1.75Q105.57 1.58 104.90 1.58L104.90 1.58Q104.43 1.58 103.99 1.75Q103.55 1.92 103.21 2.31Q102.86 2.70 102.65 3.36Q102.43 4.02 102.43 4.99L102.43 4.99Q102.43 6.69 103.02 7.59Q103.60 8.50 104.93 8.50L104.93 8.50Q105.70 8.50 106.20 8.32Q106.70 8.14 107.01 7.97L107.01 7.97L107.50 9.52Q107.09 9.78 106.38 9.99Q105.66 10.21 104.74 10.21ZM115.55 6.22L115.55 6.22Q115.55 7.12 115.30 7.85Q115.04 8.58 114.58 9.10Q114.11 9.63 113.46 9.92Q112.82 10.21 112.02 10.21L112.02 10.21Q111.22 10.21 110.57 9.92Q109.92 9.63 109.45 9.10Q108.98 8.58 108.72 7.85Q108.46 7.12 108.46 6.22L108.46 6.22Q108.46 5.34 108.73 4.62Q108.99 3.89 109.46 3.37Q109.94 2.85 110.59 2.57Q111.25 2.29 112.02 2.29L112.02 2.29Q112.80 2.29 113.45 2.57Q114.10 2.85 114.57 3.37Q115.04 3.89 115.30 4.62Q115.55 5.34 115.55 6.22ZM110.46 6.24L110.46 6.24Q110.46 7.25 110.82 7.87Q111.18 8.50 111.98 8.50L111.98 8.50Q112.75 8.50 113.14 7.87Q113.54 7.25 113.54 6.24L113.54 6.24Q113.54 5.23 113.18 4.62Q112.82 4 112.02 4L112.02 4Q111.25 4 110.86 4.62Q110.46 5.23 110.46 6.24ZM123.22 8.10L123.47 9.68Q123.42 9.71 123.26 9.79Q123.09 9.87 122.82 9.96Q122.54 10.05 122.15 10.11Q121.76 10.18 121.26 10.18L121.26 10.18Q119.90 10.18 119.28 9.37Q118.66 8.56 118.66 7.01L118.66 7.01L118.66 0.62L116.58 0.62L116.58-1.01L120.62-1.01L120.62 7.15Q120.62 7.92 120.93 8.19Q121.23 8.46 121.70 8.46L121.70 8.46Q122.29 8.46 122.69 8.30Q123.09 8.14 123.22 8.10L123.22 8.10ZM131.22 8.10L131.47 9.68Q131.42 9.71 131.26 9.79Q131.09 9.87 130.82 9.96Q130.54 10.05 130.15 10.11Q129.76 10.18 129.26 10.18L129.26 10.18Q127.90 10.18 127.28 9.37Q126.66 8.56 126.66 7.01L126.66 7.01L126.66 0.62L124.58 0.62L124.58-1.01L128.62-1.01L128.62 7.15Q128.62 7.92 128.93 8.19Q129.23 8.46 129.70 8.46L129.70 8.46Q130.29 8.46 130.69 8.30Q131.09 8.14 131.22 8.10L131.22 8.10ZM132.50 6.30L132.50 6.30Q132.50 5.31 132.80 4.56Q133.10 3.81 133.60 3.30Q134.10 2.80 134.74 2.54Q135.38 2.29 136.05 2.29L136.05 2.29Q137.71 2.29 138.58 3.27Q139.44 4.26 139.44 6.14L139.44 6.14Q139.44 6.34 139.43 6.54Q139.42 6.75 139.41 6.88L139.41 6.88L134.53 6.88Q134.53 7.62 135.14 8.04Q135.74 8.46 136.70 8.46L136.70 8.46Q137.30 8.46 137.83 8.34Q138.37 8.21 138.74 8.08L138.74 8.08L139.01 9.76Q138.50 9.94 137.92 10.06Q137.34 10.18 136.62 10.18L136.62 10.18Q135.66 10.18 134.90 9.93Q134.14 9.68 133.61 9.19Q133.07 8.70 132.78 7.98Q132.50 7.26 132.50 6.30ZM134.53 5.52L137.54 5.52Q137.54 5.22 137.46 4.94Q137.38 4.66 137.20 4.43Q137.02 4.21 136.75 4.07Q136.48 3.94 136.08 3.94L136.08 3.94Q135.70 3.94 135.42 4.06Q135.14 4.19 134.95 4.42Q134.77 4.64 134.66 4.93Q134.56 5.22 134.53 5.52L134.53 5.52ZM140.70 6.24L140.70 6.24Q140.70 5.42 140.96 4.70Q141.22 3.98 141.74 3.45Q142.27 2.91 143.08 2.60Q143.89 2.29 145.01 2.29L145.01 2.29Q145.68 2.29 146.22 2.38Q146.77 2.48 147.33 2.70L147.33 2.70L146.90 4.29Q146.58 4.18 146.18 4.09Q145.79 4 145.18 4L145.18 4Q144.48 4 144.01 4.17Q143.54 4.34 143.25 4.63Q142.96 4.93 142.83 5.34Q142.70 5.76 142.70 6.24L142.70 6.24Q142.70 7.28 143.29 7.87Q143.87 8.46 145.28 8.46L145.28 8.46Q145.74 8.46 146.25 8.40Q146.75 8.34 147.17 8.19L147.17 8.19L147.46 9.81Q147.04 9.97 146.45 10.07Q145.86 10.18 145.06 10.18L145.06 10.18Q143.90 10.18 143.08 9.87Q142.26 9.57 141.73 9.04Q141.20 8.51 140.95 7.79Q140.70 7.07 140.70 6.24ZM150.29 7.20L150.29 4.11L148.58 4.11L148.58 2.48L150.29 2.48L150.29 0.59L152.26 0.27L152.26 2.48L155.41 2.48L155.41 4.11L152.26 4.11L152.26 7.15Q152.26 7.57 152.34 7.82Q152.42 8.08 152.56 8.22Q152.70 8.37 152.91 8.42Q153.12 8.46 153.38 8.46L153.38 8.46Q153.65 8.46 153.88 8.45Q154.11 8.43 154.33 8.39Q154.54 8.35 154.78 8.27Q155.01 8.19 155.28 8.06L155.28 8.06L155.55 9.76Q155.01 9.98 154.38 10.08Q153.74 10.18 153.15 10.18L153.15 10.18Q152.46 10.18 151.94 10.06Q151.41 9.95 151.04 9.63Q150.67 9.31 150.48 8.73Q150.29 8.14 150.29 7.20L150.29 7.20ZM160.54 0.32L160.54 0.32Q160.54 0.90 160.18 1.23Q159.81 1.57 159.30 1.57L159.30 1.57Q158.78 1.57 158.42 1.23Q158.06 0.90 158.06 0.32L158.06 0.32Q158.06-0.27 158.42-0.61Q158.78-0.94 159.30-0.94L159.30-0.94Q159.81-0.94 160.18-0.61Q160.54-0.27 160.54 0.32ZM163.22 8.10L163.47 9.68Q162.86 9.97 162.33 10.07Q161.79 10.18 161.34 10.18L161.34 10.18Q160.58 10.18 160.06 9.95Q159.54 9.73 159.22 9.30Q158.91 8.88 158.78 8.27Q158.66 7.66 158.66 6.88L158.66 6.88L158.66 4.11L156.58 4.11L156.58 2.48L160.62 2.48L160.62 7.14Q160.62 7.81 160.87 8.14Q161.12 8.46 161.70 8.46L161.70 8.46Q161.97 8.46 162.35 8.39Q162.74 8.32 163.22 8.10L163.22 8.10ZM171.55 6.22L171.55 6.22Q171.55 7.12 171.30 7.85Q171.04 8.58 170.58 9.10Q170.11 9.63 169.46 9.92Q168.82 10.21 168.02 10.21L168.02 10.21Q167.22 10.21 166.57 9.92Q165.92 9.63 165.45 9.10Q164.98 8.58 164.72 7.85Q164.46 7.12 164.46 6.22L164.46 6.22Q164.46 5.34 164.73 4.62Q164.99 3.89 165.46 3.37Q165.94 2.85 166.59 2.57Q167.25 2.29 168.02 2.29L168.02 2.29Q168.80 2.29 169.45 2.57Q170.10 2.85 170.57 3.37Q171.04 3.89 171.30 4.62Q171.55 5.34 171.55 6.22ZM166.46 6.24L166.46 6.24Q166.46 7.25 166.82 7.87Q167.18 8.50 167.98 8.50L167.98 8.50Q168.75 8.50 169.14 7.87Q169.54 7.25 169.54 6.24L169.54 6.24Q169.54 5.23 169.18 4.62Q168.82 4 168.02 4L168.02 4Q167.25 4 166.86 4.62Q166.46 5.23 166.46 6.24ZM173.01 10L173.01 2.72Q173.54 2.58 174.31 2.45Q175.09 2.32 176 2.32L176 2.32Q176.90 2.32 177.49 2.57Q178.08 2.82 178.42 3.27Q178.77 3.73 178.91 4.36Q179.06 4.99 179.06 5.76L179.06 5.76L179.06 10L177.09 10L177.09 6.02Q177.09 4.96 176.85 4.50Q176.61 4.03 175.87 4.03L175.87 4.03Q175.65 4.03 175.43 4.05Q175.22 4.06 174.98 4.10L174.98 4.10L174.98 10L173.01 10Z"/>
    </g>
</svg>