<?xml version="1.0" encoding="UTF-8"?>
<svg height="322" width="284" version="1.1" xmlns="http://www.w3.org/2000/svg"><!--Created by Josélio de S. C. Júnior - 2021 - https://github.com/joseliojunior -->
    <defs>
        <pattern id="pattern"
                x="1.5" y="3" width="3" height="6"
                patternUnits="userSpaceOnUse"
                patternTransform="rotate(45)" >
            <rect height="6" width="1" fill="#999999"/>
        </pattern>
    </defs>
    <rect
        height="32"
        width="282"
        rx="1"
        ry="1"
        x="1" y="1"
        fill="url(#pattern)"
        stroke="#000000"
        stroke-width="1" />
    <g transform="translate(0, 12)">
        <path fill="#ffffff" stroke="#000000" d="M31.04 12L21.51 12L21.51-2.86L30.51-2.86L30.51-0.41L24.46-0.41L24.46 2.93L29.72 2.93L29.72 5.38L24.46 5.38L24.46 9.55L31.04 9.55L31.04 12ZM35.67 6.29L35.67 6.29Q35.67 7.80 36.24 8.76Q36.80 9.72 38.05 9.72L38.05 9.72Q38.41 9.72 38.72 9.70Q39.03 9.67 39.37 9.62L39.37 9.62L39.37 3.48Q39.03 3.29 38.60 3.16Q38.17 3.02 37.69 3.02L37.69 3.02Q36.63 3.02 36.15 3.86Q35.67 4.70 35.67 6.29ZM42.32-4.66L42.32 11.66Q41.50 11.93 40.33 12.10Q39.15 12.26 38.02 12.26L38.02 12.26Q35.38 12.26 34.03 10.70Q32.67 9.14 32.67 6.43L32.67 6.43Q32.67 3.67 33.81 2.08Q34.95 0.48 37.18 0.48L37.18 0.48Q37.78 0.48 38.36 0.61Q38.94 0.74 39.37 0.98L39.37 0.98L39.37-4.15L42.32-4.66ZM53.60 0.72L53.60 11.26Q53.60 12.62 53.26 13.55Q52.93 14.47 52.34 15.04Q51.75 15.60 50.95 15.84Q50.14 16.08 49.21 16.08L49.21 16.08Q48.06 16.08 47.07 15.79Q46.09 15.50 45.18 15.05L45.18 15.05L46.09 12.55Q46.69 12.89 47.54 13.19Q48.39 13.49 49.09 13.49L49.09 13.49Q49.83 13.49 50.24 13.04Q50.65 12.60 50.65 11.40L50.65 11.40L50.65 3.17L46.09 3.17L46.09 0.72L53.60 0.72ZM53.24-2.52L53.24-2.52Q53.24-1.66 52.69-1.15Q52.14-0.65 51.37-0.65L51.37-0.65Q50.60-0.65 50.06-1.15Q49.52-1.66 49.52-2.52L49.52-2.52Q49.52-3.41 50.06-3.91Q50.60-4.42 51.37-4.42L51.37-4.42Q52.14-4.42 52.69-3.91Q53.24-3.41 53.24-2.52ZM56.74 6.46L56.74 6.46Q56.74 4.97 57.20 3.84Q57.66 2.71 58.40 1.96Q59.14 1.20 60.10 0.82Q61.06 0.43 62.07 0.43L62.07 0.43Q64.57 0.43 65.86 1.91Q67.16 3.38 67.16 6.22L67.16 6.22Q67.16 6.50 67.15 6.82Q67.14 7.13 67.11 7.32L67.11 7.32L59.79 7.32Q59.79 8.42 60.70 9.06Q61.62 9.70 63.06 9.70L63.06 9.70Q63.94 9.70 64.75 9.50Q65.55 9.31 66.10 9.12L66.10 9.12L66.51 11.64Q65.74 11.90 64.88 12.08Q64.02 12.26 62.94 12.26L62.94 12.26Q61.50 12.26 60.36 11.89Q59.22 11.52 58.41 10.79Q57.61 10.06 57.18 8.98Q56.74 7.90 56.74 6.46ZM59.79 5.28L64.30 5.28Q64.30 4.82 64.18 4.40Q64.06 3.98 63.80 3.65Q63.54 3.31 63.13 3.11Q62.72 2.90 62.12 2.90L62.12 2.90Q61.54 2.90 61.12 3.10Q60.70 3.29 60.43 3.62Q60.15 3.96 60.00 4.39Q59.84 4.82 59.79 5.28L59.79 5.28ZM84.25-0.38L84.25 9.60Q84.37 9.62 84.51 9.62Q84.66 9.62 84.78 9.62L84.78 9.62Q85.78 9.62 86.47 9.24Q87.15 8.86 87.57 8.18Q87.99 7.51 88.17 6.59Q88.35 5.66 88.35 4.56L88.35 4.56Q88.35 3.60 88.21 2.69Q88.06 1.78 87.70 1.08Q87.34 0.38 86.72-0.04Q86.10-0.46 85.11-0.46L85.11-0.46Q84.92-0.46 84.68-0.44Q84.44-0.43 84.25-0.38L84.25-0.38ZM91.35 4.56L91.35 4.56Q91.35 6.62 90.84 8.08Q90.32 9.53 89.41 10.44Q88.50 11.35 87.24 11.77Q85.98 12.19 84.46 12.19L84.46 12.19Q83.67 12.19 82.92 12.11Q82.16 12.02 81.30 11.83L81.30 11.83L81.30-2.66Q82.30-2.88 83.19-2.95Q84.08-3.02 84.85-3.02L84.85-3.02Q86.31-3.02 87.52-2.59Q88.74-2.16 89.58-1.24Q90.42-0.31 90.88 1.12Q91.35 2.54 91.35 4.56ZM98.02 9.89L98.02 9.89Q98.50 9.89 98.96 9.88Q99.42 9.86 99.75 9.82L99.75 9.82L99.75 7.22Q99.46 7.18 99.06 7.14Q98.65 7.10 98.31 7.10L98.31 7.10Q97.86 7.10 97.42 7.16Q96.99 7.22 96.67 7.37Q96.34 7.51 96.15 7.78Q95.96 8.04 95.96 8.47L95.96 8.47Q95.96 9.24 96.54 9.56Q97.11 9.89 98.02 9.89ZM97.76 0.43L97.76 0.43Q99.15 0.43 100.08 0.76Q101 1.08 101.55 1.67Q102.10 2.26 102.34 3.11Q102.58 3.96 102.58 5.02L102.58 5.02L102.58 11.74Q101.94 11.88 100.66 12.07Q99.39 12.26 97.81 12.26L97.81 12.26Q96.73 12.26 95.85 12.07Q94.98 11.88 94.35 11.44Q93.73 10.99 93.39 10.28Q93.06 9.58 93.06 8.54L93.06 8.54Q93.06 7.56 93.44 6.89Q93.82 6.22 94.47 5.81Q95.12 5.40 95.96 5.22Q96.80 5.04 97.71 5.04L97.71 5.04Q98.86 5.04 99.75 5.23L99.75 5.23L99.75 4.87Q99.75 4.03 99.22 3.47Q98.70 2.90 97.40 2.90L97.40 2.90Q96.56 2.90 95.78 3.02Q95 3.14 94.52 3.31L94.52 3.31L94.11 0.94Q94.66 0.74 95.67 0.59Q96.68 0.43 97.76 0.43ZM107.43 7.80L107.43 3.17L104.86 3.17L104.86 0.72L107.43 0.72L107.43-2.11L110.38-2.59L110.38 0.72L115.11 0.72L115.11 3.17L110.38 3.17L110.38 7.73Q110.38 8.35 110.50 8.74Q110.62 9.12 110.84 9.34Q111.06 9.55 111.37 9.62Q111.68 9.70 112.06 9.70L112.06 9.70Q112.47 9.70 112.82 9.67Q113.17 9.65 113.49 9.59Q113.82 9.53 114.16 9.41Q114.51 9.29 114.92 9.10L114.92 9.10L115.33 11.64Q114.51 11.98 113.56 12.12Q112.62 12.26 111.73 12.26L111.73 12.26Q110.70 12.26 109.90 12.10Q109.11 11.93 108.56 11.45Q108.01 10.97 107.72 10.09Q107.43 9.22 107.43 7.80L107.43 7.80ZM122.02 9.89L122.02 9.89Q122.50 9.89 122.96 9.88Q123.42 9.86 123.75 9.82L123.75 9.82L123.75 7.22Q123.46 7.18 123.06 7.14Q122.65 7.10 122.31 7.10L122.31 7.10Q121.86 7.10 121.42 7.16Q120.99 7.22 120.67 7.37Q120.34 7.51 120.15 7.78Q119.96 8.04 119.96 8.47L119.96 8.47Q119.96 9.24 120.54 9.56Q121.11 9.89 122.02 9.89ZM121.76 0.43L121.76 0.43Q123.15 0.43 124.08 0.76Q125 1.08 125.55 1.67Q126.10 2.26 126.34 3.11Q126.58 3.96 126.58 5.02L126.58 5.02L126.58 11.74Q125.94 11.88 124.66 12.07Q123.39 12.26 121.81 12.26L121.81 12.26Q120.73 12.26 119.85 12.07Q118.98 11.88 118.35 11.44Q117.73 10.99 117.39 10.28Q117.06 9.58 117.06 8.54L117.06 8.54Q117.06 7.56 117.44 6.89Q117.82 6.22 118.47 5.81Q119.12 5.40 119.96 5.22Q120.80 5.04 121.71 5.04L121.71 5.04Q122.86 5.04 123.75 5.23L123.75 5.23L123.75 4.87Q123.75 4.03 123.22 3.47Q122.70 2.90 121.40 2.90L121.40 2.90Q120.56 2.90 119.78 3.02Q119 3.14 118.52 3.31L118.52 3.31L118.11 0.94Q118.66 0.74 119.67 0.59Q120.68 0.43 121.76 0.43ZM147.10 12.31L147.10 12.31Q143.96 12.31 142.30 10.30Q140.65 8.28 140.65 4.56L140.65 4.56Q140.65 2.71 141.15 1.27Q141.66-0.17 142.56-1.16Q143.46-2.16 144.69-2.68Q145.93-3.19 147.39-3.19L147.39-3.19Q148.18-3.19 148.82-3.06Q149.46-2.93 149.94-2.76Q150.42-2.59 150.74-2.40Q151.06-2.21 151.23-2.11L151.23-2.11L150.46 0.24Q149.91-0.12 149.13-0.37Q148.35-0.62 147.34-0.62L147.34-0.62Q146.65-0.62 145.99-0.37Q145.33-0.12 144.81 0.47Q144.30 1.06 143.97 2.04Q143.65 3.02 143.65 4.49L143.65 4.49Q143.65 7.03 144.52 8.39Q145.40 9.74 147.39 9.74L147.39 9.74Q148.54 9.74 149.30 9.48Q150.06 9.22 150.51 8.95L150.51 8.95L151.26 11.28Q150.63 11.66 149.56 11.99Q148.50 12.31 147.10 12.31ZM163.33 6.34L163.33 6.34Q163.33 7.68 162.94 8.77Q162.56 9.86 161.86 10.66Q161.17 11.45 160.20 11.88Q159.22 12.31 158.02 12.31L158.02 12.31Q156.82 12.31 155.85 11.88Q154.88 11.45 154.17 10.66Q153.46 9.86 153.08 8.77Q152.70 7.68 152.70 6.34L152.70 6.34Q152.70 5.02 153.09 3.92Q153.49 2.83 154.20 2.05Q154.90 1.27 155.89 0.85Q156.87 0.43 158.02 0.43L158.02 0.43Q159.20 0.43 160.17 0.85Q161.14 1.27 161.85 2.05Q162.56 2.83 162.94 3.92Q163.33 5.02 163.33 6.34ZM155.70 6.36L155.70 6.36Q155.70 7.87 156.24 8.81Q156.78 9.74 157.98 9.74L157.98 9.74Q159.13 9.74 159.72 8.81Q160.30 7.87 160.30 6.36L160.30 6.36Q160.30 4.85 159.76 3.92Q159.22 3 158.02 3L158.02 3Q156.87 3 156.28 3.92Q155.70 4.85 155.70 6.36ZM174.82 9.14L175.21 11.52Q175.14 11.57 174.88 11.69Q174.63 11.81 174.22 11.94Q173.82 12.07 173.23 12.17Q172.64 12.26 171.90 12.26L171.90 12.26Q169.86 12.26 168.92 11.05Q167.98 9.84 167.98 7.51L167.98 7.51L167.98-2.06L164.86-2.06L164.86-4.51L170.94-4.51L170.94 7.73Q170.94 8.88 171.39 9.29Q171.85 9.70 172.54 9.70L172.54 9.70Q173.43 9.70 174.03 9.46Q174.63 9.22 174.82 9.14L174.82 9.14ZM186.82 9.14L187.21 11.52Q187.14 11.57 186.88 11.69Q186.63 11.81 186.22 11.94Q185.82 12.07 185.23 12.17Q184.64 12.26 183.90 12.26L183.90 12.26Q181.86 12.26 180.92 11.05Q179.98 9.84 179.98 7.51L179.98 7.51L179.98-2.06L176.86-2.06L176.86-4.51L182.94-4.51L182.94 7.73Q182.94 8.88 183.39 9.29Q183.85 9.70 184.54 9.70L184.54 9.70Q185.43 9.70 186.03 9.46Q186.63 9.22 186.82 9.14L186.82 9.14ZM188.74 6.46L188.74 6.46Q188.74 4.97 189.20 3.84Q189.66 2.71 190.40 1.96Q191.14 1.20 192.10 0.82Q193.06 0.43 194.07 0.43L194.07 0.43Q196.57 0.43 197.86 1.91Q199.16 3.38 199.16 6.22L199.16 6.22Q199.16 6.50 199.15 6.82Q199.14 7.13 199.11 7.32L199.11 7.32L191.79 7.32Q191.79 8.42 192.70 9.06Q193.62 9.70 195.06 9.70L195.06 9.70Q195.94 9.70 196.75 9.50Q197.55 9.31 198.10 9.12L198.10 9.12L198.51 11.64Q197.74 11.90 196.88 12.08Q196.02 12.26 194.94 12.26L194.94 12.26Q193.50 12.26 192.36 11.89Q191.22 11.52 190.41 10.79Q189.61 10.06 189.18 8.98Q188.74 7.90 188.74 6.46ZM191.79 5.28L196.30 5.28Q196.30 4.82 196.18 4.40Q196.06 3.98 195.80 3.65Q195.54 3.31 195.13 3.11Q194.72 2.90 194.12 2.90L194.12 2.90Q193.54 2.90 193.12 3.10Q192.70 3.29 192.43 3.62Q192.15 3.96 192.00 4.39Q191.84 4.82 191.79 5.28L191.79 5.28ZM201.06 6.36L201.06 6.36Q201.06 5.14 201.44 4.06Q201.82 2.98 202.62 2.17Q203.41 1.37 204.62 0.90Q205.83 0.43 207.51 0.43L207.51 0.43Q208.52 0.43 209.34 0.58Q210.15 0.72 210.99 1.06L210.99 1.06L210.34 3.43Q209.86 3.26 209.28 3.13Q208.69 3 207.78 3L207.78 3Q206.72 3 206.01 3.25Q205.30 3.50 204.87 3.95Q204.44 4.39 204.25 5.02Q204.06 5.64 204.06 6.36L204.06 6.36Q204.06 7.92 204.93 8.81Q205.81 9.70 207.92 9.70L207.92 9.70Q208.62 9.70 209.37 9.60Q210.13 9.50 210.75 9.29L210.75 9.29L211.18 11.71Q210.56 11.95 209.67 12.11Q208.78 12.26 207.58 12.26L207.58 12.26Q205.86 12.26 204.62 11.81Q203.38 11.35 202.59 10.56Q201.80 9.77 201.43 8.69Q201.06 7.61 201.06 6.36ZM215.43 7.80L215.43 3.17L212.86 3.17L212.86 0.72L215.43 0.72L215.43-2.11L218.38-2.59L218.38 0.72L223.11 0.72L223.11 3.17L218.38 3.17L218.38 7.73Q218.38 8.35 218.50 8.74Q218.62 9.12 218.84 9.34Q219.06 9.55 219.37 9.62Q219.68 9.70 220.06 9.70L220.06 9.70Q220.47 9.70 220.82 9.67Q221.17 9.65 221.49 9.59Q221.82 9.53 222.16 9.41Q222.51 9.29 222.92 9.10L222.92 9.10L223.33 11.64Q222.51 11.98 221.56 12.12Q220.62 12.26 219.73 12.26L219.73 12.26Q218.70 12.26 217.90 12.10Q217.11 11.93 216.56 11.45Q216.01 10.97 215.72 10.09Q215.43 9.22 215.43 7.80L215.43 7.80ZM230.82-2.52L230.82-2.52Q230.82-1.66 230.26-1.15Q229.71-0.65 228.94-0.65L228.94-0.65Q228.18-0.65 227.64-1.15Q227.10-1.66 227.10-2.52L227.10-2.52Q227.10-3.41 227.64-3.91Q228.18-4.42 228.94-4.42L228.94-4.42Q229.71-4.42 230.26-3.91Q230.82-3.41 230.82-2.52ZM234.82 9.14L235.21 11.52Q234.30 11.95 233.49 12.11Q232.69 12.26 232.02 12.26L232.02 12.26Q230.86 12.26 230.08 11.93Q229.30 11.59 228.84 10.96Q228.37 10.32 228.18 9.41Q227.98 8.50 227.98 7.32L227.98 7.32L227.98 3.17L224.86 3.17L224.86 0.72L230.94 0.72L230.94 7.70Q230.94 8.71 231.31 9.20Q231.68 9.70 232.54 9.70L232.54 9.70Q232.95 9.70 233.53 9.59Q234.10 9.48 234.82 9.14L234.82 9.14ZM247.33 6.34L247.33 6.34Q247.33 7.68 246.94 8.77Q246.56 9.86 245.86 10.66Q245.17 11.45 244.20 11.88Q243.22 12.31 242.02 12.31L242.02 12.31Q240.82 12.31 239.85 11.88Q238.88 11.45 238.17 10.66Q237.46 9.86 237.08 8.77Q236.70 7.68 236.70 6.34L236.70 6.34Q236.70 5.02 237.09 3.92Q237.49 2.83 238.20 2.05Q238.90 1.27 239.89 0.85Q240.87 0.43 242.02 0.43L242.02 0.43Q243.20 0.43 244.17 0.85Q245.14 1.27 245.85 2.05Q246.56 2.83 246.94 3.92Q247.33 5.02 247.33 6.34ZM239.70 6.36L239.70 6.36Q239.70 7.87 240.24 8.81Q240.78 9.74 241.98 9.74L241.98 9.74Q243.13 9.74 243.72 8.81Q244.30 7.87 244.30 6.36L244.30 6.36Q244.30 4.85 243.76 3.92Q243.22 3 242.02 3L242.02 3Q240.87 3 240.28 3.92Q239.70 4.85 239.70 6.36ZM249.51 12L249.51 1.08Q250.30 0.86 251.47 0.67Q252.63 0.48 254 0.48L254 0.48Q255.34 0.48 256.23 0.85Q257.12 1.22 257.64 1.91Q258.15 2.59 258.37 3.54Q258.58 4.49 258.58 5.64L258.58 5.64L258.58 12L255.63 12L255.63 6.02Q255.63 4.44 255.27 3.74Q254.91 3.05 253.81 3.05L253.81 3.05Q253.47 3.05 253.15 3.07Q252.82 3.10 252.46 3.14L252.46 3.14L252.46 12L249.51 12Z"/>
    </g>
</svg>