<?xml version="1.0" encoding="UTF-8"?>
<svg height="26" width="82.5" version="1.1" xmlns="http://www.w3.org/2000/svg"><!--Created by Josélio de S. C. Júnior - 2021 - https://github.com/joseliojunior -->
    <rect
        height="24"
        width="80.5"
        rx="1"
        ry="1"
        x="1" y="1"
        fill="#3F85AF"
        stroke="#173040"
        stroke-width="1" />
    <g transform="translate(0, 8)">
        <path fill="#173040" stroke="none" d="M24.74 10.21L24.74 10.21Q22.64 10.21 21.54 8.86Q20.43 7.52 20.43 5.04L20.43 5.04Q20.43 3.81 20.77 2.85Q21.10 1.89 21.70 1.22Q22.30 0.56 23.13 0.22Q23.95-0.13 24.93-0.13L24.93-0.13Q25.46-0.13 25.88-0.04Q26.30 0.05 26.62 0.16Q26.94 0.27 27.16 0.40Q27.38 0.53 27.49 0.59L27.49 0.59L26.98 2.16Q26.61 1.92 26.09 1.75Q25.57 1.58 24.90 1.58L24.90 1.58Q24.43 1.58 23.99 1.75Q23.55 1.92 23.21 2.31Q22.86 2.70 22.65 3.36Q22.43 4.02 22.43 4.99L22.43 4.99Q22.43 6.69 23.02 7.59Q23.60 8.50 24.93 8.50L24.93 8.50Q25.70 8.50 26.20 8.32Q26.70 8.14 27.01 7.97L27.01 7.97L27.50 9.52Q27.09 9.78 26.38 9.99Q25.66 10.21 24.74 10.21ZM35.22 8.10L35.47 9.68Q35.42 9.71 35.26 9.79Q35.09 9.87 34.82 9.96Q34.54 10.05 34.15 10.11Q33.76 10.18 33.26 10.18L33.26 10.18Q31.90 10.18 31.28 9.37Q30.66 8.56 30.66 7.01L30.66 7.01L30.66 0.62L28.58 0.62L28.58-1.01L32.62-1.01L32.62 7.15Q32.62 7.92 32.93 8.19Q33.23 8.46 33.70 8.46L33.70 8.46Q34.29 8.46 34.69 8.30Q35.09 8.14 35.22 8.10L35.22 8.10ZM36.50 6.30L36.50 6.30Q36.50 5.31 36.80 4.56Q37.10 3.81 37.60 3.30Q38.10 2.80 38.74 2.54Q39.38 2.29 40.05 2.29L40.05 2.29Q41.71 2.29 42.58 3.27Q43.44 4.26 43.44 6.14L43.44 6.14Q43.44 6.34 43.43 6.54Q43.42 6.75 43.41 6.88L43.41 6.88L38.53 6.88Q38.53 7.62 39.14 8.04Q39.74 8.46 40.70 8.46L40.70 8.46Q41.30 8.46 41.83 8.34Q42.37 8.21 42.74 8.08L42.74 8.08L43.01 9.76Q42.50 9.94 41.92 10.06Q41.34 10.18 40.62 10.18L40.62 10.18Q39.66 10.18 38.90 9.93Q38.14 9.68 37.61 9.19Q37.07 8.70 36.78 7.98Q36.50 7.26 36.50 6.30ZM38.53 5.52L41.54 5.52Q41.54 5.22 41.46 4.94Q41.38 4.66 41.20 4.43Q41.02 4.21 40.75 4.07Q40.48 3.94 40.08 3.94L40.08 3.94Q39.70 3.94 39.42 4.06Q39.14 4.19 38.95 4.42Q38.77 4.64 38.66 4.93Q38.56 5.22 38.53 5.52L38.53 5.52ZM48.02 8.59L48.02 8.59Q48.34 8.59 48.64 8.58Q48.94 8.58 49.17 8.54L49.17 8.54L49.17 6.82Q48.98 6.78 48.70 6.76Q48.43 6.74 48.21 6.74L48.21 6.74Q47.90 6.74 47.62 6.78Q47.33 6.82 47.11 6.91Q46.90 7.01 46.77 7.18Q46.64 7.36 46.64 7.65L46.64 7.65Q46.64 8.16 47.02 8.38Q47.41 8.59 48.02 8.59ZM47.84 2.29L47.84 2.29Q48.77 2.29 49.38 2.50Q50 2.72 50.37 3.11Q50.74 3.50 50.90 4.07Q51.06 4.64 51.06 5.34L51.06 5.34L51.06 9.82Q50.62 9.92 49.78 10.05Q48.93 10.18 47.87 10.18L47.87 10.18Q47.15 10.18 46.57 10.05Q45.98 9.92 45.57 9.62Q45.15 9.33 44.93 8.86Q44.70 8.38 44.70 7.70L44.70 7.70Q44.70 7.04 44.96 6.59Q45.22 6.14 45.65 5.87Q46.08 5.60 46.64 5.48Q47.20 5.36 47.81 5.36L47.81 5.36Q48.58 5.36 49.17 5.49L49.17 5.49L49.17 5.25Q49.17 4.69 48.82 4.31Q48.46 3.94 47.60 3.94L47.60 3.94Q47.04 3.94 46.52 4.02Q46 4.10 45.68 4.21L45.68 4.21L45.41 2.62Q45.78 2.50 46.45 2.39Q47.12 2.29 47.84 2.29ZM53.01 10L53.01 2.72Q53.54 2.58 54.31 2.45Q55.09 2.32 56 2.32L56 2.32Q56.90 2.32 57.49 2.57Q58.08 2.82 58.42 3.27Q58.77 3.73 58.91 4.36Q59.06 4.99 59.06 5.76L59.06 5.76L59.06 10L57.09 10L57.09 6.02Q57.09 4.96 56.85 4.50Q56.61 4.03 55.87 4.03L55.87 4.03Q55.65 4.03 55.43 4.05Q55.22 4.06 54.98 4.10L54.98 4.10L54.98 10L53.01 10Z"/>
    </g>
</svg>