<?xml version="1.0" encoding="UTF-8"?>
<svg height="34" width="126.7" version="1.1" xmlns="http://www.w3.org/2000/svg">
    <rect
        height="32"
        width="124.7"
        rx="1"
        ry="1"
        x="1"
        y="1"
        fill="#cabbff"
        stroke="#3400f0"
        stroke-width="1"
         />
    <g transform="translate(0, 12)">
        <path fill="#3400f0" d="M23.65 4.56L23.65 4.56Q23.65 5.64 23.73 6.59Q23.82 7.54 24.07 8.23Q24.32 8.93 24.78 9.34Q25.23 9.74 26 9.74L26 9.74Q26.74 9.74 27.21 9.34Q27.68 8.93 27.93 8.22Q28.18 7.51 28.27 6.58Q28.35 5.64 28.35 4.56L28.35 4.56Q28.35 3.48 28.27 2.53Q28.18 1.58 27.93 0.89Q27.68 0.19 27.22-0.22Q26.77-0.62 26-0.62L26-0.62Q25.23-0.62 24.78-0.22Q24.32 0.19 24.07 0.90Q23.82 1.61 23.73 2.54Q23.65 3.48 23.65 4.56ZM20.65 4.56L20.65 4.56Q20.65 0.72 22.06-1.24Q23.48-3.19 26-3.19L26-3.19Q28.62-3.19 29.98-1.24Q31.35 0.72 31.35 4.56L31.35 4.56Q31.35 8.40 29.96 10.36Q28.57 12.31 26.02 12.31L26.02 12.31Q23.41 12.31 22.03 10.36Q20.65 8.40 20.65 4.56ZM40.23 0.60L40.23 0.60Q41.17 0.60 41.77 0.89Q42.37 1.18 42.72 1.75Q43.06 2.33 43.18 3.20Q43.30 4.08 43.30 5.26L43.30 5.26L43.30 12L40.90 12L40.90 5.11Q40.90 4.44 40.82 4.03Q40.74 3.62 40.60 3.41Q40.47 3.19 40.29 3.12Q40.11 3.05 39.92 3.05L39.92 3.05Q39.70 3.05 39.46 3.08Q39.22 3.12 39.03 3.22L39.03 3.22Q39.10 3.67 39.15 4.22Q39.20 4.78 39.20 5.45L39.20 5.45L39.20 7.70L36.80 7.70L36.80 5.11Q36.80 3.96 36.57 3.50Q36.34 3.05 35.84 3.05L35.84 3.05Q35.70 3.05 35.49 3.07Q35.29 3.10 35.10 3.14L35.10 3.14L35.10 12L32.70 12L32.70 1.15Q33.63 0.89 34.54 0.74Q35.46 0.60 36.15 0.60L36.15 0.60Q36.78 0.60 37.27 0.76Q37.76 0.91 38.12 1.27L38.12 1.27Q38.53 1.01 39.08 0.80Q39.63 0.60 40.23 0.60ZM47.79 6L47.79 6Q47.79 7.39 48.30 8.12Q48.80 8.86 49.88 8.86L49.88 8.86Q50.36 8.86 50.78 8.74Q51.20 8.62 51.54 8.42L51.54 8.42L51.54 3Q51.20 2.93 50.94 2.90Q50.67 2.88 50.38 2.88L50.38 2.88Q47.79 2.88 47.79 6ZM54.51 1.08L54.51 10.63Q54.51 13.39 53.18 14.71Q51.85 16.03 48.90 16.03L48.90 16.03Q47.84 16.03 46.87 15.82Q45.90 15.60 45.01 15.31L45.01 15.31L45.56 12.82Q46.26 13.08 47.02 13.31Q47.79 13.54 48.94 13.54L48.94 13.54Q49.71 13.54 50.22 13.36Q50.72 13.18 51.01 12.86Q51.30 12.55 51.42 12.13Q51.54 11.71 51.54 11.23L51.54 11.23L51.54 10.78Q50.91 11.02 50.40 11.14Q49.88 11.26 49.28 11.26L49.28 11.26Q47.07 11.26 45.93 9.86Q44.79 8.47 44.79 6L44.79 6Q44.79 3.22 46.33 1.85Q47.86 0.48 50.50 0.48L50.50 0.48Q52.35 0.48 54.51 1.08L54.51 1.08ZM67.02 0.98L66.49 3.72Q66.20 3.65 65.80 3.58Q65.41 3.50 65 3.44Q64.59 3.38 64.21 3.36Q63.82 3.34 63.56 3.34L63.56 3.34Q62.94 3.34 62.34 3.40Q61.74 3.46 61.11 3.62L61.11 3.62L61.11 12L58.14 12L58.14 1.46Q59.31 1.03 60.55 0.77Q61.78 0.50 63.44 0.50L63.44 0.50Q63.68 0.50 64.12 0.53Q64.57 0.55 65.07 0.61Q65.58 0.67 66.09 0.76Q66.61 0.84 67.02 0.98L67.02 0.98ZM79.33 6.34L79.33 6.34Q79.33 7.68 78.94 8.77Q78.56 9.86 77.86 10.66Q77.17 11.45 76.20 11.88Q75.22 12.31 74.02 12.31L74.02 12.31Q72.82 12.31 71.85 11.88Q70.88 11.45 70.17 10.66Q69.46 9.86 69.08 8.77Q68.70 7.68 68.70 6.34L68.70 6.34Q68.70 5.02 69.09 3.92Q69.49 2.83 70.20 2.05Q70.90 1.27 71.89 0.85Q72.87 0.43 74.02 0.43L74.02 0.43Q75.20 0.43 76.17 0.85Q77.14 1.27 77.85 2.05Q78.56 2.83 78.94 3.92Q79.33 5.02 79.33 6.34ZM71.70 6.36L71.70 6.36Q71.70 7.87 72.24 8.81Q72.78 9.74 73.98 9.74L73.98 9.74Q75.13 9.74 75.72 8.81Q76.30 7.87 76.30 6.36L76.30 6.36Q76.30 4.85 75.76 3.92Q75.22 3 74.02 3L74.02 3Q72.87 3 72.28 3.92Q71.70 4.85 71.70 6.36ZM86.31 12L83.34 12L83.34 3.17L80.86 3.17L80.86 0.72L83.34 0.72L83.34 0.07Q83.34-1.30 83.73-2.20Q84.13-3.10 84.80-3.64Q85.47-4.18 86.34-4.40Q87.20-4.63 88.11-4.63L88.11-4.63Q89.05-4.63 90.03-4.46Q91.02-4.30 91.81-3.91L91.81-3.91L91.30-1.51Q90.75-1.70 89.92-1.91Q89.10-2.11 88.35-2.11L88.35-2.11Q87.94-2.11 87.57-2.04Q87.20-1.97 86.92-1.73Q86.65-1.49 86.48-1.04Q86.31-0.60 86.31 0.12L86.31 0.12L86.31 0.72L90.94 0.72L90.94 3.17L86.31 3.17L86.31 12ZM102.82 9.14L103.21 11.52Q103.14 11.57 102.88 11.69Q102.63 11.81 102.22 11.94Q101.82 12.07 101.23 12.17Q100.64 12.26 99.90 12.26L99.90 12.26Q97.86 12.26 96.92 11.05Q95.98 9.84 95.98 7.51L95.98 7.51L95.98-2.06L92.86-2.06L92.86-4.51L98.94-4.51L98.94 7.73Q98.94 8.88 99.39 9.29Q99.85 9.70 100.54 9.70L100.54 9.70Q101.43 9.70 102.03 9.46Q102.63 9.22 102.82 9.14L102.82 9.14Z"/>
    </g>
</svg>