<?xml version="1.0" encoding="UTF-8"?>
<svg height="26" width="123" version="1.1" xmlns="http://www.w3.org/2000/svg"><!--Created by Josélio de S. C. Júnior - 2021 - https://github.com/joseliojunior -->
    <rect
        height="24"
        width="121"
        rx="1"
        ry="1"
        x="1" y="1"
        fill="#cca760"
        stroke="#705524"
        stroke-width="1" />
    <g transform="translate(0, 8)">
        <path fill="#705524" stroke="none" d="M22.83 1.74L22.83 8.40Q22.91 8.42 23.01 8.42Q23.10 8.42 23.18 8.42L23.18 8.42Q23.86 8.42 24.31 8.16Q24.77 7.90 25.05 7.46Q25.33 7.01 25.45 6.39Q25.57 5.78 25.57 5.04L25.57 5.04Q25.57 4.40 25.47 3.79Q25.38 3.18 25.14 2.72Q24.90 2.26 24.48 1.98Q24.06 1.70 23.41 1.70L23.41 1.70Q23.28 1.70 23.12 1.70Q22.96 1.71 22.83 1.74L22.83 1.74ZM27.57 5.04L27.57 5.04Q27.57 6.42 27.22 7.38Q26.88 8.35 26.27 8.96Q25.66 9.57 24.82 9.85Q23.98 10.13 22.98 10.13L22.98 10.13Q22.45 10.13 21.94 10.07Q21.44 10.02 20.86 9.89L20.86 9.89L20.86 0.22Q21.54 0.08 22.13 0.03Q22.72-0.02 23.23-0.02L23.23-0.02Q24.21-0.02 25.02 0.27Q25.82 0.56 26.38 1.18Q26.94 1.79 27.26 2.74Q27.57 3.70 27.57 5.04ZM35.55 6.22L35.55 6.22Q35.55 7.12 35.30 7.85Q35.04 8.58 34.58 9.10Q34.11 9.63 33.46 9.92Q32.82 10.21 32.02 10.21L32.02 10.21Q31.22 10.21 30.57 9.92Q29.92 9.63 29.45 9.10Q28.98 8.58 28.72 7.85Q28.46 7.12 28.46 6.22L28.46 6.22Q28.46 5.34 28.73 4.62Q28.99 3.89 29.46 3.37Q29.94 2.85 30.59 2.57Q31.25 2.29 32.02 2.29L32.02 2.29Q32.80 2.29 33.45 2.57Q34.10 2.85 34.57 3.37Q35.04 3.89 35.30 4.62Q35.55 5.34 35.55 6.22ZM30.46 6.24L30.46 6.24Q30.46 7.25 30.82 7.87Q31.18 8.50 31.98 8.50L31.98 8.50Q32.75 8.50 33.14 7.87Q33.54 7.25 33.54 6.24L33.54 6.24Q33.54 5.23 33.18 4.62Q32.82 4 32.02 4L32.02 4Q31.25 4 30.86 4.62Q30.46 5.23 30.46 6.24ZM38.53 6L38.53 6Q38.53 6.93 38.86 7.42Q39.20 7.90 39.92 7.90L39.92 7.90Q40.24 7.90 40.52 7.82Q40.80 7.74 41.02 7.62L41.02 7.62L41.02 4Q40.80 3.95 40.62 3.94Q40.45 3.92 40.26 3.92L40.26 3.92Q38.53 3.92 38.53 6ZM43.01 2.72L43.01 9.09Q43.01 10.93 42.12 11.81Q41.23 12.69 39.26 12.69L39.26 12.69Q38.56 12.69 37.91 12.54Q37.26 12.40 36.67 12.21L36.67 12.21L37.04 10.54Q37.50 10.72 38.02 10.87Q38.53 11.02 39.30 11.02L39.30 11.02Q39.81 11.02 40.14 10.90Q40.48 10.78 40.67 10.58Q40.86 10.37 40.94 10.09Q41.02 9.81 41.02 9.49L41.02 9.49L41.02 9.18Q40.61 9.34 40.26 9.42Q39.92 9.50 39.52 9.50L39.52 9.50Q38.05 9.50 37.29 8.58Q36.53 7.65 36.53 6L36.53 6Q36.53 4.14 37.55 3.23Q38.58 2.32 40.34 2.32L40.34 2.32Q41.57 2.32 43.01 2.72L43.01 2.72ZM44.50 6.30L44.50 6.30Q44.50 5.31 44.80 4.56Q45.10 3.81 45.60 3.30Q46.10 2.80 46.74 2.54Q47.38 2.29 48.05 2.29L48.05 2.29Q49.71 2.29 50.58 3.27Q51.44 4.26 51.44 6.14L51.44 6.14Q51.44 6.34 51.43 6.54Q51.42 6.75 51.41 6.88L51.41 6.88L46.53 6.88Q46.53 7.62 47.14 8.04Q47.74 8.46 48.70 8.46L48.70 8.46Q49.30 8.46 49.83 8.34Q50.37 8.21 50.74 8.08L50.74 8.08L51.01 9.76Q50.50 9.94 49.92 10.06Q49.34 10.18 48.62 10.18L48.62 10.18Q47.66 10.18 46.90 9.93Q46.14 9.68 45.61 9.19Q45.07 8.70 44.78 7.98Q44.50 7.26 44.50 6.30ZM46.53 5.52L49.54 5.52Q49.54 5.22 49.46 4.94Q49.38 4.66 49.20 4.43Q49.02 4.21 48.75 4.07Q48.48 3.94 48.08 3.94L48.08 3.94Q47.70 3.94 47.42 4.06Q47.14 4.19 46.95 4.42Q46.77 4.64 46.66 4.93Q46.56 5.22 46.53 5.52L46.53 5.52ZM55.65 8.51L55.65 8.51Q56.37 8.51 56.75 8.41Q57.14 8.30 57.14 7.98L57.14 7.98Q57.14 7.78 57.02 7.63Q56.90 7.49 56.68 7.38Q56.46 7.28 56.18 7.18Q55.90 7.09 55.60 6.99L55.60 6.99Q55.17 6.86 54.72 6.70Q54.27 6.53 53.90 6.27Q53.54 6.02 53.30 5.62Q53.06 5.23 53.06 4.64L53.06 4.64Q53.06 4.16 53.24 3.74Q53.42 3.31 53.82 2.98Q54.21 2.66 54.82 2.47Q55.42 2.29 56.27 2.29L56.27 2.29Q57.01 2.29 57.64 2.40Q58.27 2.51 58.74 2.72L58.74 2.72L58.43 4.38Q58.16 4.30 57.58 4.12Q57.01 3.94 56.29 3.94L56.29 3.94Q55.54 3.94 55.27 4.12Q55.01 4.30 55.01 4.51L55.01 4.51Q55.01 4.69 55.13 4.82Q55.25 4.96 55.45 5.07Q55.65 5.18 55.91 5.29Q56.18 5.39 56.48 5.49L56.48 5.49Q56.91 5.63 57.38 5.81Q57.84 5.98 58.22 6.25Q58.59 6.51 58.83 6.92Q59.07 7.33 59.07 7.92L59.07 7.92Q59.07 8.38 58.90 8.80Q58.72 9.22 58.31 9.52Q57.90 9.82 57.25 10Q56.59 10.18 55.63 10.18L55.63 10.18Q54.66 10.18 53.97 9.95Q53.28 9.73 52.86 9.55L52.86 9.55L53.17 7.90Q53.73 8.13 54.36 8.32Q54.99 8.51 55.65 8.51ZM60.70 6.24L60.70 6.24Q60.70 5.42 60.96 4.70Q61.22 3.98 61.74 3.45Q62.27 2.91 63.08 2.60Q63.89 2.29 65.01 2.29L65.01 2.29Q65.68 2.29 66.22 2.38Q66.77 2.48 67.33 2.70L67.33 2.70L66.90 4.29Q66.58 4.18 66.18 4.09Q65.79 4 65.18 4L65.18 4Q64.48 4 64.01 4.17Q63.54 4.34 63.25 4.63Q62.96 4.93 62.83 5.34Q62.70 5.76 62.70 6.24L62.70 6.24Q62.70 7.28 63.29 7.87Q63.87 8.46 65.28 8.46L65.28 8.46Q65.74 8.46 66.25 8.40Q66.75 8.34 67.17 8.19L67.17 8.19L67.46 9.81Q67.04 9.97 66.45 10.07Q65.86 10.18 65.06 10.18L65.06 10.18Q63.90 10.18 63.08 9.87Q62.26 9.57 61.73 9.04Q61.20 8.51 60.95 7.79Q60.70 7.07 60.70 6.24ZM75.34 2.66L74.99 4.48Q74.80 4.43 74.54 4.38Q74.27 4.34 74 4.30Q73.73 4.26 73.47 4.24Q73.22 4.22 73.04 4.22L73.04 4.22Q72.62 4.22 72.22 4.26Q71.82 4.30 71.41 4.42L71.41 4.42L71.41 10L69.42 10L69.42 2.98Q70.21 2.69 71.03 2.51Q71.86 2.34 72.96 2.34L72.96 2.34Q73.12 2.34 73.42 2.35Q73.71 2.37 74.05 2.41Q74.38 2.45 74.73 2.50Q75.07 2.56 75.34 2.66L75.34 2.66ZM80.54 0.32L80.54 0.32Q80.54 0.90 80.18 1.23Q79.81 1.57 79.30 1.57L79.30 1.57Q78.78 1.57 78.42 1.23Q78.06 0.90 78.06 0.32L78.06 0.32Q78.06-0.27 78.42-0.61Q78.78-0.94 79.30-0.94L79.30-0.94Q79.81-0.94 80.18-0.61Q80.54-0.27 80.54 0.32ZM83.22 8.10L83.47 9.68Q82.86 9.97 82.33 10.07Q81.79 10.18 81.34 10.18L81.34 10.18Q80.58 10.18 80.06 9.95Q79.54 9.73 79.22 9.30Q78.91 8.88 78.78 8.27Q78.66 7.66 78.66 6.88L78.66 6.88L78.66 4.11L76.58 4.11L76.58 2.48L80.62 2.48L80.62 7.14Q80.62 7.81 80.87 8.14Q81.12 8.46 81.70 8.46L81.70 8.46Q81.97 8.46 82.35 8.39Q82.74 8.32 83.22 8.10L83.22 8.10ZM89.50 6.30L89.50 6.30Q89.50 5.30 89.10 4.65Q88.70 4 87.89 4L87.89 4Q87.66 4 87.41 4.02Q87.15 4.05 86.98 4.06L86.98 4.06L86.98 8.19Q87.17 8.32 87.49 8.40Q87.81 8.48 88.13 8.48L88.13 8.48Q88.83 8.48 89.17 7.91Q89.50 7.34 89.50 6.30ZM91.50 6.24L91.50 6.24Q91.50 7.10 91.31 7.83Q91.12 8.56 90.75 9.08Q90.38 9.60 89.82 9.89Q89.26 10.18 88.53 10.18L88.53 10.18Q87.78 10.18 86.98 9.81L86.98 9.81L86.98 12.64L85.01 12.64L85.01 2.72Q85.55 2.54 86.34 2.43Q87.14 2.32 87.90 2.32L87.90 2.32Q89.65 2.32 90.58 3.38Q91.50 4.43 91.50 6.24ZM94.29 7.20L94.29 4.11L92.58 4.11L92.58 2.48L94.29 2.48L94.29 0.59L96.26 0.27L96.26 2.48L99.41 2.48L99.41 4.11L96.26 4.11L96.26 7.15Q96.26 7.57 96.34 7.82Q96.42 8.08 96.56 8.22Q96.70 8.37 96.91 8.42Q97.12 8.46 97.38 8.46L97.38 8.46Q97.65 8.46 97.88 8.45Q98.11 8.43 98.33 8.39Q98.54 8.35 98.78 8.27Q99.01 8.19 99.28 8.06L99.28 8.06L99.55 9.76Q99.01 9.98 98.38 10.08Q97.74 10.18 97.15 10.18L97.15 10.18Q96.46 10.18 95.94 10.06Q95.41 9.95 95.04 9.63Q94.67 9.31 94.48 8.73Q94.29 8.14 94.29 7.20L94.29 7.20Z"/>
    </g>
</svg>