<?xml version="1.0" encoding="UTF-8"?>
<svg height="34" width="106.6" version="1.1" xmlns="http://www.w3.org/2000/svg">
    <rect
        height="32"
        width="104.6"
        rx="14"
        ry="14"
        x="1"
        y="1"
        fill="#665a4e"
        stroke="#0e0d0b"
        stroke-width="1"
         />
    <g transform="translate(0, 14)">
        <path fill="#0e0d0b" d="M15.99-6.53L15.99-6.53Q17.48-6.53 18.68-6.19Q19.88-5.86 20.75-5.16Q21.62-4.46 22.08-3.38Q22.54-2.30 22.54-0.84L22.54-0.84Q22.54 0.67 21.93 1.90Q21.31 3.13 19.88 3.78L19.88 3.78Q20.36 4.50 20.89 5.39Q21.42 6.27 21.93 7.23Q22.43 8.20 22.89 9.17Q23.36 10.13 23.69 11L23.69 11L20.08 11Q19.44 9.32 18.58 7.77Q17.73 6.21 16.75 4.62L16.75 4.62L14.96 4.62L14.96 11L11.51 11L11.51-6.08Q12.02-6.19 12.62-6.29Q13.22-6.39 13.84-6.43Q14.45-6.47 15.01-6.50Q15.57-6.53 15.99-6.53ZM19.04-0.87L19.04-0.87Q19.04-2.24 18.20-2.89Q17.36-3.53 15.99-3.53L15.99-3.53Q15.80-3.53 15.52-3.52Q15.24-3.50 14.96-3.45L14.96-3.45L14.96 1.76L15.71 1.76Q17.48 1.76 18.26 1.07Q19.04 0.39 19.04-0.87ZM30.94 11.36L30.94 11.36Q29.26 11.36 28.13 10.90Q27.00 10.44 26.32 9.57Q25.65 8.70 25.37 7.47Q25.09 6.24 25.09 4.73L25.09 4.73L25.09-6.33L28.56-6.33L28.56 4.50Q28.56 5.60 28.68 6.34Q28.79 7.08 29.05 7.53Q29.32 7.98 29.80 8.17Q30.27 8.37 31 8.37L31 8.37Q31.73 8.37 32.20 8.17Q32.68 7.98 32.96 7.51Q33.24 7.05 33.35 6.31Q33.46 5.57 33.46 4.48L33.46 4.48L33.46-6.33L36.91-6.33L36.91 4.73Q36.91 6.24 36.63 7.47Q36.35 8.70 35.65 9.57Q34.95 10.44 33.80 10.90Q32.65 11.36 30.94 11.36ZM50.71 11L47.94 11Q46.76 8.12 45.38 5.25Q43.99 2.38 42.40-0.51L42.40-0.51L42.40 11L39.29 11L39.29-6.33L42.06-6.33Q42.84-5.10 43.63-3.66Q44.41-2.22 45.15-0.79Q45.90 0.64 46.53 1.98Q47.16 3.33 47.60 4.34L47.60 4.34L47.60-6.33L50.71-6.33L50.71 11ZM56.26 2.32L56.26 2.32Q56.26 3.58 56.35 4.69Q56.45 5.79 56.75 6.60Q57.04 7.42 57.57 7.89Q58.10 8.37 59 8.37L59 8.37Q59.87 8.37 60.41 7.89Q60.96 7.42 61.25 6.59Q61.55 5.76 61.65 4.67Q61.74 3.58 61.74 2.32L61.74 2.32Q61.74 1.06 61.65-0.05Q61.55-1.15 61.25-1.96Q60.96-2.78 60.43-3.25Q59.90-3.73 59-3.73L59-3.73Q58.10-3.73 57.57-3.25Q57.04-2.78 56.75-1.95Q56.45-1.12 56.35-0.03Q56.26 1.06 56.26 2.32ZM52.76 2.32L52.76 2.32Q52.76-2.16 54.41-4.44Q56.06-6.72 59-6.72L59-6.72Q62.05-6.72 63.65-4.44Q65.24-2.16 65.24 2.32L65.24 2.32Q65.24 6.80 63.62 9.08Q62.00 11.36 59.03 11.36L59.03 11.36Q55.98 11.36 54.37 9.08Q52.76 6.80 52.76 2.32ZM71.21 11L67.76 11L67.76-6.33L78.38-6.33L78.38-3.48L71.21-3.48L71.21 0.72L77.48 0.72L77.48 3.58L71.21 3.58L71.21 11ZM85.21 11L81.76 11L81.76-6.33L92.38-6.33L92.38-3.48L85.21-3.48L85.21 0.72L91.48 0.72L91.48 3.58L85.21 3.58L85.21 11Z"/>
    </g>
</svg>