<?xml version="1.0" encoding="UTF-8"?>
<svg height="34" width="163" version="1.1" xmlns="http://www.w3.org/2000/svg">
    <rect
        height="32"
        width="161"
        rx="1"
        ry="1"
        x="1"
        y="1"
        fill="#0096D8"
        stroke="#002b3d"
        stroke-width="1"
         />
    <g transform="translate(0, 14)">
        <path fill="#002b3d" d="M16.27-6.53L16.27-6.53Q19.58-6.53 21.40-5.17Q23.22-3.81 23.22-0.73L23.22-0.73Q23.22 2.38 21.38 3.76Q19.55 5.15 16.19 5.15L16.19 5.15L14.96 5.15L14.96 11L11.51 11L11.51-6.11Q12.02-6.22 12.65-6.30Q13.28-6.39 13.92-6.43Q14.56-6.47 15.18-6.50Q15.80-6.53 16.27-6.53ZM16.66-3.53L16.66-3.53Q16.36-3.53 15.81-3.52Q15.26-3.50 14.96-3.45L14.96-3.45L14.96 2.15L16.36 2.15Q18.01 2.15 18.85 1.49Q19.69 0.84 19.69-0.76L19.69-0.76Q19.69-2.27 18.86-2.90Q18.04-3.53 16.66-3.53ZM36.85-1.85L36.24 1.34Q35.90 1.26 35.44 1.17Q34.98 1.09 34.50 1.02Q34.02 0.95 33.58 0.92Q33.13 0.89 32.82 0.89L32.82 0.89Q32.09 0.89 31.39 0.96Q30.69 1.03 29.96 1.23L29.96 1.23L29.96 11L26.49 11L26.49-1.29Q27.86-1.80 29.31-2.10Q30.75-2.41 32.68-2.41L32.68-2.41Q32.96-2.41 33.48-2.38Q34.00-2.36 34.58-2.29Q35.17-2.22 35.77-2.12Q36.38-2.02 36.85-1.85L36.85-1.85ZM51.22 4.39L51.22 4.39Q51.22 5.96 50.77 7.23Q50.32 8.51 49.51 9.43Q48.70 10.36 47.56 10.86Q46.43 11.36 45.03 11.36L45.03 11.36Q43.63 11.36 42.49 10.86Q41.36 10.36 40.53 9.43Q39.71 8.51 39.26 7.23Q38.81 5.96 38.81 4.39L38.81 4.39Q38.81 2.85 39.27 1.58Q39.74 0.30 40.56-0.61Q41.39-1.52 42.54-2.01Q43.68-2.50 45.03-2.50L45.03-2.50Q46.40-2.50 47.53-2.01Q48.67-1.52 49.49-0.61Q50.32 0.30 50.77 1.58Q51.22 2.85 51.22 4.39ZM42.31 4.42L42.31 4.42Q42.31 6.18 42.94 7.28Q43.57 8.37 44.97 8.37L44.97 8.37Q46.32 8.37 47.00 7.28Q47.69 6.18 47.69 4.42L47.69 4.42Q47.69 2.66 47.06 1.58Q46.43 0.50 45.03 0.50L45.03 0.50Q43.68 0.50 43.00 1.58Q42.31 2.66 42.31 4.42ZM53.23 4.42L53.23 4.42Q53.23 2.99 53.68 1.73Q54.13 0.47 55.05-0.47Q55.98-1.40 57.39-1.95Q58.80-2.50 60.76-2.50L60.76-2.50Q61.94-2.50 62.89-2.33Q63.84-2.16 64.82-1.77L64.82-1.77L64.07 1.00Q63.51 0.81 62.82 0.65Q62.14 0.50 61.07 0.50L61.07 0.50Q59.84 0.50 59.01 0.79Q58.19 1.09 57.68 1.61Q57.18 2.12 56.96 2.85Q56.73 3.58 56.73 4.42L56.73 4.42Q56.73 6.24 57.75 7.28Q58.78 8.31 61.24 8.31L61.24 8.31Q62.05 8.31 62.93 8.20Q63.82 8.09 64.54 7.84L64.54 7.84L65.05 10.66Q64.32 10.94 63.28 11.13Q62.25 11.31 60.85 11.31L60.85 11.31Q58.83 11.31 57.39 10.78Q55.95 10.24 55.02 9.32Q54.10 8.40 53.67 7.14Q53.23 5.88 53.23 4.42ZM66.87 4.53L66.87 4.53Q66.87 2.80 67.40 1.48Q67.93 0.16 68.80-0.72Q69.67-1.60 70.79-2.05Q71.91-2.50 73.08-2.50L73.08-2.50Q76.00-2.50 77.51-0.77Q79.02 0.95 79.02 4.25L79.02 4.25Q79.02 4.59 79.01 4.95Q78.99 5.32 78.96 5.54L78.96 5.54L70.42 5.54Q70.42 6.83 71.49 7.57Q72.55 8.31 74.23 8.31L74.23 8.31Q75.27 8.31 76.21 8.09Q77.14 7.86 77.79 7.64L77.79 7.64L78.26 10.58Q77.37 10.89 76.36 11.10Q75.35 11.31 74.09 11.31L74.09 11.31Q72.41 11.31 71.08 10.87Q69.75 10.44 68.81 9.59Q67.88 8.73 67.37 7.47Q66.87 6.21 66.87 4.53ZM70.42 3.16L75.69 3.16Q75.69 2.63 75.55 2.14Q75.41 1.65 75.10 1.26Q74.79 0.86 74.32 0.63Q73.84 0.39 73.14 0.39L73.14 0.39Q72.47 0.39 71.98 0.61Q71.49 0.84 71.17 1.23Q70.84 1.62 70.66 2.12Q70.48 2.63 70.42 3.16L70.42 3.16ZM86.38 8.40L86.38 8.40Q87.64 8.40 88.32 8.21Q88.99 8.03 88.99 7.47L88.99 7.47Q88.99 7.11 88.78 6.86Q88.57 6.60 88.19 6.42Q87.81 6.24 87.32 6.07Q86.83 5.90 86.30 5.74L86.30 5.74Q85.54 5.51 84.76 5.22Q83.98 4.92 83.33 4.48Q82.69 4.03 82.27 3.34Q81.85 2.66 81.85 1.62L81.85 1.62Q81.85 0.78 82.17 0.04Q82.49-0.70 83.18-1.28Q83.86-1.85 84.93-2.17Q85.99-2.50 87.48-2.50L87.48-2.50Q88.76-2.50 89.87-2.30Q90.98-2.10 91.79-1.74L91.79-1.74L91.26 1.17Q90.78 1.03 89.77 0.71Q88.76 0.39 87.50 0.39L87.50 0.39Q86.19 0.39 85.73 0.71Q85.26 1.03 85.26 1.40L85.26 1.40Q85.26 1.70 85.47 1.94Q85.68 2.18 86.03 2.38Q86.38 2.57 86.85 2.75Q87.31 2.94 87.84 3.10L87.84 3.10Q88.60 3.36 89.41 3.66Q90.22 3.97 90.88 4.43Q91.54 4.90 91.96 5.61Q92.38 6.32 92.38 7.36L92.38 7.36Q92.38 8.17 92.07 8.90Q91.76 9.63 91.05 10.16Q90.33 10.69 89.18 11Q88.04 11.31 86.36 11.31L86.36 11.31Q84.65 11.31 83.44 10.92Q82.24 10.52 81.51 10.22L81.51 10.22L82.04 7.33Q83.02 7.72 84.13 8.06Q85.24 8.40 86.38 8.40ZM100.38 8.40L100.38 8.40Q101.64 8.40 102.32 8.21Q102.99 8.03 102.99 7.47L102.99 7.47Q102.99 7.11 102.78 6.86Q102.57 6.60 102.19 6.42Q101.81 6.24 101.32 6.07Q100.83 5.90 100.30 5.74L100.30 5.74Q99.54 5.51 98.76 5.22Q97.98 4.92 97.33 4.48Q96.69 4.03 96.27 3.34Q95.85 2.66 95.85 1.62L95.85 1.62Q95.85 0.78 96.17 0.04Q96.49-0.70 97.18-1.28Q97.86-1.85 98.93-2.17Q99.99-2.50 101.48-2.50L101.48-2.50Q102.76-2.50 103.87-2.30Q104.98-2.10 105.79-1.74L105.79-1.74L105.26 1.17Q104.78 1.03 103.77 0.71Q102.76 0.39 101.50 0.39L101.50 0.39Q100.19 0.39 99.73 0.71Q99.26 1.03 99.26 1.40L99.26 1.40Q99.26 1.70 99.47 1.94Q99.68 2.18 100.03 2.38Q100.38 2.57 100.85 2.75Q101.31 2.94 101.84 3.10L101.84 3.10Q102.60 3.36 103.41 3.66Q104.22 3.97 104.88 4.43Q105.54 4.90 105.96 5.61Q106.38 6.32 106.38 7.36L106.38 7.36Q106.38 8.17 106.07 8.90Q105.76 9.63 105.05 10.16Q104.33 10.69 103.18 11Q102.04 11.31 100.36 11.31L100.36 11.31Q98.65 11.31 97.44 10.92Q96.24 10.52 95.51 10.22L95.51 10.22L96.04 7.33Q97.02 7.72 98.13 8.06Q99.24 8.40 100.38 8.40ZM115.95-5.94L115.95-5.94Q115.95-4.93 115.31-4.34Q114.66-3.76 113.77-3.76L113.77-3.76Q112.87-3.76 112.24-4.34Q111.61-4.93 111.61-5.94L111.61-5.94Q111.61-6.98 112.24-7.56Q112.87-8.15 113.77-8.15L113.77-8.15Q114.66-8.15 115.31-7.56Q115.95-6.98 115.95-5.94ZM120.63 7.67L121.08 10.44Q120.01 10.94 119.07 11.13Q118.14 11.31 117.35 11.31L117.35 11.31Q116.01 11.31 115.10 10.92Q114.19 10.52 113.64 9.78Q113.10 9.04 112.87 7.98Q112.65 6.91 112.65 5.54L112.65 5.54L112.65 0.70L109.01 0.70L109.01-2.16L116.09-2.16L116.09 5.99Q116.09 7.16 116.53 7.74Q116.96 8.31 117.97 8.31L117.97 8.31Q118.44 8.31 119.12 8.19Q119.79 8.06 120.63 7.67L120.63 7.67ZM123.76 11L123.76-1.74Q124.69-1.99 126.05-2.22Q127.40-2.44 129-2.44L129-2.44Q130.57-2.44 131.60-2.01Q132.64-1.57 133.24-0.77Q133.84 0.02 134.10 1.13Q134.35 2.24 134.35 3.58L134.35 3.58L134.35 11L130.90 11L130.90 4.03Q130.90 2.18 130.48 1.37Q130.06 0.56 128.78 0.56L128.78 0.56Q128.38 0.56 128.01 0.58Q127.63 0.61 127.21 0.67L127.21 0.67L127.21 11L123.76 11ZM140.42 4L140.42 4Q140.42 5.62 141.01 6.48Q141.60 7.33 142.86 7.33L142.86 7.33Q143.42 7.33 143.91 7.19Q144.40 7.05 144.79 6.83L144.79 6.83L144.79 0.50Q144.40 0.42 144.09 0.39Q143.78 0.36 143.45 0.36L143.45 0.36Q140.42 0.36 140.42 4ZM148.26-1.74L148.26 9.40Q148.26 12.62 146.71 14.16Q145.16 15.70 141.71 15.70L141.71 15.70Q140.48 15.70 139.35 15.45Q138.21 15.20 137.18 14.86L137.18 14.86L137.82 11.95Q138.63 12.26 139.53 12.53Q140.42 12.79 141.77 12.79L141.77 12.79Q142.66 12.79 143.25 12.58Q143.84 12.37 144.18 12.01Q144.51 11.64 144.65 11.15Q144.79 10.66 144.79 10.10L144.79 10.10L144.79 9.57Q144.06 9.85 143.46 9.99Q142.86 10.13 142.16 10.13L142.16 10.13Q139.58 10.13 138.25 8.51Q136.92 6.88 136.92 4L136.92 4Q136.92 0.75 138.72-0.84Q140.51-2.44 143.59-2.44L143.59-2.44Q145.74-2.44 148.26-1.74L148.26-1.74Z"/>
    </g>
</svg>