<?xml version="1.0" encoding="UTF-8"?>
<svg height="322" width="163" version="1.1" xmlns="http://www.w3.org/2000/svg"><!--Created by Josélio de S. C. Júnior - 2021 - https://github.com/joseliojunior -->
    <rect
        height="32"
        width="161"
        rx="1"
        ry="1"
        x="1" y="1"
        fill="#0096D8"
        stroke="#002b3d"
        stroke-width="1" />
    <g transform="translate(0, 12)">
        <path fill="#002b3d" stroke="none" d="M25.38-3.02L25.38-3.02Q28.21-3.02 29.77-1.86Q31.33-0.70 31.33 1.94L31.33 1.94Q31.33 4.61 29.76 5.80Q28.18 6.98 25.30 6.98L25.30 6.98L24.25 6.98L24.25 12L21.30 12L21.30-2.66Q21.73-2.76 22.27-2.83Q22.81-2.90 23.36-2.94Q23.91-2.98 24.44-3Q24.97-3.02 25.38-3.02ZM25.71-0.46L25.71-0.46Q25.45-0.46 24.98-0.44Q24.51-0.43 24.25-0.38L24.25-0.38L24.25 4.42L25.45 4.42Q26.86 4.42 27.58 3.85Q28.30 3.29 28.30 1.92L28.30 1.92Q28.30 0.62 27.60 0.08Q26.89-0.46 25.71-0.46ZM43.02 0.98L42.49 3.72Q42.20 3.65 41.80 3.58Q41.41 3.50 41 3.44Q40.59 3.38 40.21 3.36Q39.82 3.34 39.56 3.34L39.56 3.34Q38.94 3.34 38.34 3.40Q37.74 3.46 37.11 3.62L37.11 3.62L37.11 12L34.14 12L34.14 1.46Q35.31 1.03 36.55 0.77Q37.78 0.50 39.44 0.50L39.44 0.50Q39.68 0.50 40.12 0.53Q40.57 0.55 41.07 0.61Q41.58 0.67 42.09 0.76Q42.61 0.84 43.02 0.98L43.02 0.98ZM55.33 6.34L55.33 6.34Q55.33 7.68 54.94 8.77Q54.56 9.86 53.86 10.66Q53.17 11.45 52.20 11.88Q51.22 12.31 50.02 12.31L50.02 12.31Q48.82 12.31 47.85 11.88Q46.88 11.45 46.17 10.66Q45.46 9.86 45.08 8.77Q44.70 7.68 44.70 6.34L44.70 6.34Q44.70 5.02 45.09 3.92Q45.49 2.83 46.20 2.05Q46.90 1.27 47.89 0.85Q48.87 0.43 50.02 0.43L50.02 0.43Q51.20 0.43 52.17 0.85Q53.14 1.27 53.85 2.05Q54.56 2.83 54.94 3.92Q55.33 5.02 55.33 6.34ZM47.70 6.36L47.70 6.36Q47.70 7.87 48.24 8.81Q48.78 9.74 49.98 9.74L49.98 9.74Q51.13 9.74 51.72 8.81Q52.30 7.87 52.30 6.36L52.30 6.36Q52.30 4.85 51.76 3.92Q51.22 3 50.02 3L50.02 3Q48.87 3 48.28 3.92Q47.70 4.85 47.70 6.36ZM57.06 6.36L57.06 6.36Q57.06 5.14 57.44 4.06Q57.82 2.98 58.62 2.17Q59.41 1.37 60.62 0.90Q61.83 0.43 63.51 0.43L63.51 0.43Q64.52 0.43 65.34 0.58Q66.15 0.72 66.99 1.06L66.99 1.06L66.34 3.43Q65.86 3.26 65.28 3.13Q64.69 3 63.78 3L63.78 3Q62.72 3 62.01 3.25Q61.30 3.50 60.87 3.95Q60.44 4.39 60.25 5.02Q60.06 5.64 60.06 6.36L60.06 6.36Q60.06 7.92 60.93 8.81Q61.81 9.70 63.92 9.70L63.92 9.70Q64.62 9.70 65.37 9.60Q66.13 9.50 66.75 9.29L66.75 9.29L67.18 11.71Q66.56 11.95 65.67 12.11Q64.78 12.26 63.58 12.26L63.58 12.26Q61.86 12.26 60.62 11.81Q59.38 11.35 58.59 10.56Q57.80 9.77 57.43 8.69Q57.06 7.61 57.06 6.36ZM68.74 6.46L68.74 6.46Q68.74 4.97 69.20 3.84Q69.66 2.71 70.40 1.96Q71.14 1.20 72.10 0.82Q73.06 0.43 74.07 0.43L74.07 0.43Q76.57 0.43 77.86 1.91Q79.16 3.38 79.16 6.22L79.16 6.22Q79.16 6.50 79.15 6.82Q79.14 7.13 79.11 7.32L79.11 7.32L71.79 7.32Q71.79 8.42 72.70 9.06Q73.62 9.70 75.06 9.70L75.06 9.70Q75.94 9.70 76.75 9.50Q77.55 9.31 78.10 9.12L78.10 9.12L78.51 11.64Q77.74 11.90 76.88 12.08Q76.02 12.26 74.94 12.26L74.94 12.26Q73.50 12.26 72.36 11.89Q71.22 11.52 70.41 10.79Q69.61 10.06 69.18 8.98Q68.74 7.90 68.74 6.46ZM71.79 5.28L76.30 5.28Q76.30 4.82 76.18 4.40Q76.06 3.98 75.80 3.65Q75.54 3.31 75.13 3.11Q74.72 2.90 74.12 2.90L74.12 2.90Q73.54 2.90 73.12 3.10Q72.70 3.29 72.43 3.62Q72.15 3.96 72.00 4.39Q71.84 4.82 71.79 5.28L71.79 5.28ZM85.47 9.77L85.47 9.77Q86.55 9.77 87.13 9.61Q87.70 9.46 87.70 8.98L87.70 8.98Q87.70 8.66 87.52 8.45Q87.34 8.23 87.02 8.08Q86.70 7.92 86.28 7.78Q85.86 7.63 85.40 7.49L85.40 7.49Q84.75 7.30 84.08 7.04Q83.41 6.79 82.86 6.41Q82.30 6.02 81.94 5.44Q81.58 4.85 81.58 3.96L81.58 3.96Q81.58 3.24 81.86 2.60Q82.14 1.97 82.72 1.48Q83.31 0.98 84.22 0.71Q85.14 0.43 86.41 0.43L86.41 0.43Q87.51 0.43 88.46 0.60Q89.41 0.77 90.10 1.08L90.10 1.08L89.65 3.58Q89.24 3.46 88.38 3.18Q87.51 2.90 86.43 2.90L86.43 2.90Q85.30 2.90 84.91 3.18Q84.51 3.46 84.51 3.77L84.51 3.77Q84.51 4.03 84.69 4.24Q84.87 4.44 85.17 4.61Q85.47 4.78 85.87 4.93Q86.26 5.09 86.72 5.23L86.72 5.23Q87.37 5.45 88.06 5.71Q88.76 5.98 89.32 6.37Q89.89 6.77 90.25 7.38Q90.61 7.99 90.61 8.88L90.61 8.88Q90.61 9.58 90.34 10.20Q90.08 10.82 89.47 11.28Q88.86 11.74 87.87 12Q86.89 12.26 85.45 12.26L85.45 12.26Q83.98 12.26 82.95 11.93Q81.92 11.59 81.30 11.33L81.30 11.33L81.75 8.86Q82.59 9.19 83.54 9.48Q84.49 9.77 85.47 9.77ZM97.47 9.77L97.47 9.77Q98.55 9.77 99.13 9.61Q99.70 9.46 99.70 8.98L99.70 8.98Q99.70 8.66 99.52 8.45Q99.34 8.23 99.02 8.08Q98.70 7.92 98.28 7.78Q97.86 7.63 97.40 7.49L97.40 7.49Q96.75 7.30 96.08 7.04Q95.41 6.79 94.86 6.41Q94.30 6.02 93.94 5.44Q93.58 4.85 93.58 3.96L93.58 3.96Q93.58 3.24 93.86 2.60Q94.14 1.97 94.72 1.48Q95.31 0.98 96.22 0.71Q97.14 0.43 98.41 0.43L98.41 0.43Q99.51 0.43 100.46 0.60Q101.41 0.77 102.10 1.08L102.10 1.08L101.65 3.58Q101.24 3.46 100.38 3.18Q99.51 2.90 98.43 2.90L98.43 2.90Q97.30 2.90 96.91 3.18Q96.51 3.46 96.51 3.77L96.51 3.77Q96.51 4.03 96.69 4.24Q96.87 4.44 97.17 4.61Q97.47 4.78 97.87 4.93Q98.26 5.09 98.72 5.23L98.72 5.23Q99.37 5.45 100.06 5.71Q100.76 5.98 101.32 6.37Q101.89 6.77 102.25 7.38Q102.61 7.99 102.61 8.88L102.61 8.88Q102.61 9.58 102.34 10.20Q102.08 10.82 101.47 11.28Q100.86 11.74 99.87 12Q98.89 12.26 97.45 12.26L97.45 12.26Q95.98 12.26 94.95 11.93Q93.92 11.59 93.30 11.33L93.30 11.33L93.75 8.86Q94.59 9.19 95.54 9.48Q96.49 9.77 97.47 9.77ZM110.82-2.52L110.82-2.52Q110.82-1.66 110.26-1.15Q109.71-0.65 108.94-0.65L108.94-0.65Q108.18-0.65 107.64-1.15Q107.10-1.66 107.10-2.52L107.10-2.52Q107.10-3.41 107.64-3.91Q108.18-4.42 108.94-4.42L108.94-4.42Q109.71-4.42 110.26-3.91Q110.82-3.41 110.82-2.52ZM114.82 9.14L115.21 11.52Q114.30 11.95 113.49 12.11Q112.69 12.26 112.02 12.26L112.02 12.26Q110.86 12.26 110.08 11.93Q109.30 11.59 108.84 10.96Q108.37 10.32 108.18 9.41Q107.98 8.50 107.98 7.32L107.98 7.32L107.98 3.17L104.86 3.17L104.86 0.72L110.94 0.72L110.94 7.70Q110.94 8.71 111.31 9.20Q111.68 9.70 112.54 9.70L112.54 9.70Q112.95 9.70 113.53 9.59Q114.10 9.48 114.82 9.14L114.82 9.14ZM117.51 12L117.51 1.08Q118.30 0.86 119.47 0.67Q120.63 0.48 122 0.48L122 0.48Q123.34 0.48 124.23 0.85Q125.12 1.22 125.64 1.91Q126.15 2.59 126.37 3.54Q126.58 4.49 126.58 5.64L126.58 5.64L126.58 12L123.63 12L123.63 6.02Q123.63 4.44 123.27 3.74Q122.91 3.05 121.81 3.05L121.81 3.05Q121.47 3.05 121.15 3.07Q120.82 3.10 120.46 3.14L120.46 3.14L120.46 12L117.51 12ZM131.79 6L131.79 6Q131.79 7.39 132.30 8.12Q132.80 8.86 133.88 8.86L133.88 8.86Q134.36 8.86 134.78 8.74Q135.20 8.62 135.54 8.42L135.54 8.42L135.54 3Q135.20 2.93 134.94 2.90Q134.67 2.88 134.38 2.88L134.38 2.88Q131.79 2.88 131.79 6ZM138.51 1.08L138.51 10.63Q138.51 13.39 137.18 14.71Q135.85 16.03 132.90 16.03L132.90 16.03Q131.84 16.03 130.87 15.82Q129.90 15.60 129.01 15.31L129.01 15.31L129.56 12.82Q130.26 13.08 131.02 13.31Q131.79 13.54 132.94 13.54L132.94 13.54Q133.71 13.54 134.22 13.36Q134.72 13.18 135.01 12.86Q135.30 12.55 135.42 12.13Q135.54 11.71 135.54 11.23L135.54 11.23L135.54 10.78Q134.91 11.02 134.40 11.14Q133.88 11.26 133.28 11.26L133.28 11.26Q131.07 11.26 129.93 9.86Q128.79 8.47 128.79 6L128.79 6Q128.79 3.22 130.33 1.85Q131.86 0.48 134.50 0.48L134.50 0.48Q136.35 0.48 138.51 1.08L138.51 1.08Z"/>
    </g>
</svg>