<?xml version="1.0" encoding="UTF-8"?>
<svg height="26" width="123" version="1.1" xmlns="http://www.w3.org/2000/svg"><!--Created by Josélio de S. C. Júnior - 2021 - https://github.com/joseliojunior -->
    <rect
        height="24"
        width="121"
        rx="1"
        ry="1"
        x="1" y="1"
        fill="#0096D8"
        stroke="#002b3d"
        stroke-width="1" />
    <g transform="translate(0, 8)">
        <path fill="#002b3d" stroke="none" d="M23.58-0.02L23.58-0.02Q25.47-0.02 26.51 0.76Q27.55 1.54 27.55 3.30L27.55 3.30Q27.55 5.07 26.50 5.86Q25.46 6.66 23.54 6.66L23.54 6.66L22.83 6.66L22.83 10L20.86 10L20.86 0.22Q21.15 0.16 21.51 0.11Q21.87 0.06 22.24 0.04Q22.61 0.02 22.96 0Q23.31-0.02 23.58-0.02ZM23.81 1.70L23.81 1.70Q23.63 1.70 23.32 1.70Q23.01 1.71 22.83 1.74L22.83 1.74L22.83 4.94L23.63 4.94Q24.58 4.94 25.06 4.57Q25.54 4.19 25.54 3.28L25.54 3.28Q25.54 2.42 25.06 2.06Q24.59 1.70 23.81 1.70ZM35.34 2.66L34.99 4.48Q34.80 4.43 34.54 4.38Q34.27 4.34 34 4.30Q33.73 4.26 33.47 4.24Q33.22 4.22 33.04 4.22L33.04 4.22Q32.62 4.22 32.22 4.26Q31.82 4.30 31.41 4.42L31.41 4.42L31.41 10L29.42 10L29.42 2.98Q30.21 2.69 31.03 2.51Q31.86 2.34 32.96 2.34L32.96 2.34Q33.12 2.34 33.42 2.35Q33.71 2.37 34.05 2.41Q34.38 2.45 34.73 2.50Q35.07 2.56 35.34 2.66L35.34 2.66ZM43.55 6.22L43.55 6.22Q43.55 7.12 43.30 7.85Q43.04 8.58 42.58 9.10Q42.11 9.63 41.46 9.92Q40.82 10.21 40.02 10.21L40.02 10.21Q39.22 10.21 38.57 9.92Q37.92 9.63 37.45 9.10Q36.98 8.58 36.72 7.85Q36.46 7.12 36.46 6.22L36.46 6.22Q36.46 5.34 36.73 4.62Q36.99 3.89 37.46 3.37Q37.94 2.85 38.59 2.57Q39.25 2.29 40.02 2.29L40.02 2.29Q40.80 2.29 41.45 2.57Q42.10 2.85 42.57 3.37Q43.04 3.89 43.30 4.62Q43.55 5.34 43.55 6.22ZM38.46 6.24L38.46 6.24Q38.46 7.25 38.82 7.87Q39.18 8.50 39.98 8.50L39.98 8.50Q40.75 8.50 41.14 7.87Q41.54 7.25 41.54 6.24L41.54 6.24Q41.54 5.23 41.18 4.62Q40.82 4 40.02 4L40.02 4Q39.25 4 38.86 4.62Q38.46 5.23 38.46 6.24ZM44.70 6.24L44.70 6.24Q44.70 5.42 44.96 4.70Q45.22 3.98 45.74 3.45Q46.27 2.91 47.08 2.60Q47.89 2.29 49.01 2.29L49.01 2.29Q49.68 2.29 50.22 2.38Q50.77 2.48 51.33 2.70L51.33 2.70L50.90 4.29Q50.58 4.18 50.18 4.09Q49.79 4 49.18 4L49.18 4Q48.48 4 48.01 4.17Q47.54 4.34 47.25 4.63Q46.96 4.93 46.83 5.34Q46.70 5.76 46.70 6.24L46.70 6.24Q46.70 7.28 47.29 7.87Q47.87 8.46 49.28 8.46L49.28 8.46Q49.74 8.46 50.25 8.40Q50.75 8.34 51.17 8.19L51.17 8.19L51.46 9.81Q51.04 9.97 50.45 10.07Q49.86 10.18 49.06 10.18L49.06 10.18Q47.90 10.18 47.08 9.87Q46.26 9.57 45.73 9.04Q45.20 8.51 44.95 7.79Q44.70 7.07 44.70 6.24ZM52.50 6.30L52.50 6.30Q52.50 5.31 52.80 4.56Q53.10 3.81 53.60 3.30Q54.10 2.80 54.74 2.54Q55.38 2.29 56.05 2.29L56.05 2.29Q57.71 2.29 58.58 3.27Q59.44 4.26 59.44 6.14L59.44 6.14Q59.44 6.34 59.43 6.54Q59.42 6.75 59.41 6.88L59.41 6.88L54.53 6.88Q54.53 7.62 55.14 8.04Q55.74 8.46 56.70 8.46L56.70 8.46Q57.30 8.46 57.83 8.34Q58.37 8.21 58.74 8.08L58.74 8.08L59.01 9.76Q58.50 9.94 57.92 10.06Q57.34 10.18 56.62 10.18L56.62 10.18Q55.66 10.18 54.90 9.93Q54.14 9.68 53.61 9.19Q53.07 8.70 52.78 7.98Q52.50 7.26 52.50 6.30ZM54.53 5.52L57.54 5.52Q57.54 5.22 57.46 4.94Q57.38 4.66 57.20 4.43Q57.02 4.21 56.75 4.07Q56.48 3.94 56.08 3.94L56.08 3.94Q55.70 3.94 55.42 4.06Q55.14 4.19 54.95 4.42Q54.77 4.64 54.66 4.93Q54.56 5.22 54.53 5.52L54.53 5.52ZM63.65 8.51L63.65 8.51Q64.37 8.51 64.75 8.41Q65.14 8.30 65.14 7.98L65.14 7.98Q65.14 7.78 65.02 7.63Q64.90 7.49 64.68 7.38Q64.46 7.28 64.18 7.18Q63.90 7.09 63.60 6.99L63.60 6.99Q63.17 6.86 62.72 6.70Q62.27 6.53 61.90 6.27Q61.54 6.02 61.30 5.62Q61.06 5.23 61.06 4.64L61.06 4.64Q61.06 4.16 61.24 3.74Q61.42 3.31 61.82 2.98Q62.21 2.66 62.82 2.47Q63.42 2.29 64.27 2.29L64.27 2.29Q65.01 2.29 65.64 2.40Q66.27 2.51 66.74 2.72L66.74 2.72L66.43 4.38Q66.16 4.30 65.58 4.12Q65.01 3.94 64.29 3.94L64.29 3.94Q63.54 3.94 63.27 4.12Q63.01 4.30 63.01 4.51L63.01 4.51Q63.01 4.69 63.13 4.82Q63.25 4.96 63.45 5.07Q63.65 5.18 63.91 5.29Q64.18 5.39 64.48 5.49L64.48 5.49Q64.91 5.63 65.38 5.81Q65.84 5.98 66.22 6.25Q66.59 6.51 66.83 6.92Q67.07 7.33 67.07 7.92L67.07 7.92Q67.07 8.38 66.90 8.80Q66.72 9.22 66.31 9.52Q65.90 9.82 65.25 10Q64.59 10.18 63.63 10.18L63.63 10.18Q62.66 10.18 61.97 9.95Q61.28 9.73 60.86 9.55L60.86 9.55L61.17 7.90Q61.73 8.13 62.36 8.32Q62.99 8.51 63.65 8.51ZM71.65 8.51L71.65 8.51Q72.37 8.51 72.75 8.41Q73.14 8.30 73.14 7.98L73.14 7.98Q73.14 7.78 73.02 7.63Q72.90 7.49 72.68 7.38Q72.46 7.28 72.18 7.18Q71.90 7.09 71.60 6.99L71.60 6.99Q71.17 6.86 70.72 6.70Q70.27 6.53 69.90 6.27Q69.54 6.02 69.30 5.62Q69.06 5.23 69.06 4.64L69.06 4.64Q69.06 4.16 69.24 3.74Q69.42 3.31 69.82 2.98Q70.21 2.66 70.82 2.47Q71.42 2.29 72.27 2.29L72.27 2.29Q73.01 2.29 73.64 2.40Q74.27 2.51 74.74 2.72L74.74 2.72L74.43 4.38Q74.16 4.30 73.58 4.12Q73.01 3.94 72.29 3.94L72.29 3.94Q71.54 3.94 71.27 4.12Q71.01 4.30 71.01 4.51L71.01 4.51Q71.01 4.69 71.13 4.82Q71.25 4.96 71.45 5.07Q71.65 5.18 71.91 5.29Q72.18 5.39 72.48 5.49L72.48 5.49Q72.91 5.63 73.38 5.81Q73.84 5.98 74.22 6.25Q74.59 6.51 74.83 6.92Q75.07 7.33 75.07 7.92L75.07 7.92Q75.07 8.38 74.90 8.80Q74.72 9.22 74.31 9.52Q73.90 9.82 73.25 10Q72.59 10.18 71.63 10.18L71.63 10.18Q70.66 10.18 69.97 9.95Q69.28 9.73 68.86 9.55L68.86 9.55L69.17 7.90Q69.73 8.13 70.36 8.32Q70.99 8.51 71.65 8.51ZM80.54 0.32L80.54 0.32Q80.54 0.90 80.18 1.23Q79.81 1.57 79.30 1.57L79.30 1.57Q78.78 1.57 78.42 1.23Q78.06 0.90 78.06 0.32L78.06 0.32Q78.06-0.27 78.42-0.61Q78.78-0.94 79.30-0.94L79.30-0.94Q79.81-0.94 80.18-0.61Q80.54-0.27 80.54 0.32ZM83.22 8.10L83.47 9.68Q82.86 9.97 82.33 10.07Q81.79 10.18 81.34 10.18L81.34 10.18Q80.58 10.18 80.06 9.95Q79.54 9.73 79.22 9.30Q78.91 8.88 78.78 8.27Q78.66 7.66 78.66 6.88L78.66 6.88L78.66 4.11L76.58 4.11L76.58 2.48L80.62 2.48L80.62 7.14Q80.62 7.81 80.87 8.14Q81.12 8.46 81.70 8.46L81.70 8.46Q81.97 8.46 82.35 8.39Q82.74 8.32 83.22 8.10L83.22 8.10ZM85.01 10L85.01 2.72Q85.54 2.58 86.31 2.45Q87.09 2.32 88 2.32L88 2.32Q88.90 2.32 89.49 2.57Q90.08 2.82 90.42 3.27Q90.77 3.73 90.91 4.36Q91.06 4.99 91.06 5.76L91.06 5.76L91.06 10L89.09 10L89.09 6.02Q89.09 4.96 88.85 4.50Q88.61 4.03 87.87 4.03L87.87 4.03Q87.65 4.03 87.43 4.05Q87.22 4.06 86.98 4.10L86.98 4.10L86.98 10L85.01 10ZM94.53 6L94.53 6Q94.53 6.93 94.86 7.42Q95.20 7.90 95.92 7.90L95.92 7.90Q96.24 7.90 96.52 7.82Q96.80 7.74 97.02 7.62L97.02 7.62L97.02 4Q96.80 3.95 96.62 3.94Q96.45 3.92 96.26 3.92L96.26 3.92Q94.53 3.92 94.53 6ZM99.01 2.72L99.01 9.09Q99.01 10.93 98.12 11.81Q97.23 12.69 95.26 12.69L95.26 12.69Q94.56 12.69 93.91 12.54Q93.26 12.40 92.67 12.21L92.67 12.21L93.04 10.54Q93.50 10.72 94.02 10.87Q94.53 11.02 95.30 11.02L95.30 11.02Q95.81 11.02 96.14 10.90Q96.48 10.78 96.67 10.58Q96.86 10.37 96.94 10.09Q97.02 9.81 97.02 9.49L97.02 9.49L97.02 9.18Q96.61 9.34 96.26 9.42Q95.92 9.50 95.52 9.50L95.52 9.50Q94.05 9.50 93.29 8.58Q92.53 7.65 92.53 6L92.53 6Q92.53 4.14 93.55 3.23Q94.58 2.32 96.34 2.32L96.34 2.32Q97.57 2.32 99.01 2.72L99.01 2.72Z"/>
    </g>
</svg>