<?xml version="1.0" encoding="UTF-8"?>
<svg height="34" width="66.2" version="1.1" xmlns="http://www.w3.org/2000/svg">
    <rect
        height="32"
        width="64.2"
        rx="16"
        ry="16"
        x="1"
        y="1"
        fill="#178600"
        stroke="#44ff1f"
        stroke-width="1"
         />
    <g transform="translate(0, 12)">
        <path fill="#44ff1f" d="M27.10 12.31L27.10 12.31Q23.96 12.31 22.30 10.30Q20.65 8.28 20.65 4.56L20.65 4.56Q20.65 2.71 21.15 1.27Q21.66-0.17 22.56-1.16Q23.46-2.16 24.69-2.68Q25.93-3.19 27.39-3.19L27.39-3.19Q28.18-3.19 28.82-3.06Q29.46-2.93 29.94-2.76Q30.42-2.59 30.74-2.40Q31.06-2.21 31.23-2.11L31.23-2.11L30.46 0.24Q29.91-0.12 29.13-0.37Q28.35-0.62 27.34-0.62L27.34-0.62Q26.65-0.62 25.99-0.37Q25.33-0.12 24.81 0.47Q24.30 1.06 23.97 2.04Q23.65 3.02 23.65 4.49L23.65 4.49Q23.65 7.03 24.52 8.39Q25.40 9.74 27.39 9.74L27.39 9.74Q28.54 9.74 29.30 9.48Q30.06 9.22 30.51 8.95L30.51 8.95L31.26 11.28Q30.63 11.66 29.56 11.99Q28.50 12.31 27.10 12.31ZM32.43 0.79L35.31 0.79L36.01-2.86L38.46-2.86L37.74 0.79L39.66 0.79L40.35-2.86L42.80-2.86L42.10 0.79L43.59 0.79L43.59 3.24L41.62 3.24L41.12 5.88L43.59 5.88L43.59 8.33L40.66 8.33L39.97 12L37.52 12L38.22 8.33L36.30 8.33L35.62 12L33.18 12L33.87 8.33L32.43 8.33L32.43 5.88L34.33 5.88L34.83 3.24L32.43 3.24L32.43 0.79ZM37.28 3.24L36.78 5.88L38.70 5.88L39.18 3.24L37.28 3.24Z"/>
    </g>
</svg>