<?xml version="1.0" encoding="UTF-8"?>
<svg height="34" width="50.2" version="1.1" xmlns="http://www.w3.org/2000/svg">
    <rect
        height="32"
        width="48.2"
        rx="1"
        ry="1"
        x="1"
        y="1"
        fill="#178600"
        stroke="#44ff1f"
        stroke-width="1"
         />
    <g transform="translate(0, 14)">
        <path fill="#44ff1f" d="M18.29 11.36L18.29 11.36Q14.62 11.36 12.69 9.01Q10.76 6.66 10.76 2.32L10.76 2.32Q10.76 0.16 11.34-1.52Q11.93-3.20 12.98-4.36Q14.03-5.52 15.47-6.12Q16.92-6.72 18.62-6.72L18.62-6.72Q19.55-6.72 20.29-6.57Q21.03-6.42 21.59-6.22Q22.15-6.02 22.53-5.80Q22.91-5.58 23.10-5.46L23.10-5.46L22.21-2.72Q21.56-3.14 20.65-3.43Q19.74-3.73 18.57-3.73L18.57-3.73Q17.76-3.73 16.99-3.43Q16.22-3.14 15.61-2.45Q15.01-1.77 14.63-0.62Q14.26 0.53 14.26 2.24L14.26 2.24Q14.26 5.20 15.28 6.79Q16.30 8.37 18.62 8.37L18.62 8.37Q19.97 8.37 20.85 8.06Q21.73 7.75 22.26 7.44L22.26 7.44L23.13 10.16Q22.40 10.61 21.16 10.99Q19.91 11.36 18.29 11.36ZM24.50-2.08L27.86-2.08L28.68-6.33L31.53-6.33L30.69-2.08L32.93-2.08L33.74-6.33L36.60-6.33L35.79-2.08L37.52-2.08L37.52 0.78L35.23 0.78L34.64 3.86L37.52 3.86L37.52 6.72L34.11 6.72L33.30 11L30.44 11L31.25 6.72L29.01 6.72L28.23 11L25.37 11L26.18 6.72L24.50 6.72L24.50 3.86L26.72 3.86L27.30 0.78L24.50 0.78L24.50-2.08ZM30.16 0.78L29.57 3.86L31.81 3.86L32.37 0.78L30.16 0.78Z"/>
    </g>
</svg>