<?xml version="1.0" encoding="UTF-8"?>
<svg height="34" width="64.3" version="1.1" xmlns="http://www.w3.org/2000/svg">
    <rect
        height="32"
        width="62.3"
        rx="14"
        ry="14"
        x="1"
        y="1"
        fill="#3d9970"
        stroke="#112c20"
        stroke-width="1"
         />
    <g transform="translate(0, 14)">
        <path fill="#112c20" d="M22.88 8.14L22.88 11L11.99 11L11.99-6.33L15.46-6.33L15.46 8.14L22.88 8.14ZM30.50 8.48L30.50 8.48Q31.36 8.48 31.94 8.30Q32.51 8.12 32.85 7.79Q33.18 7.47 33.31 7.07Q33.44 6.66 33.44 6.24L33.44 6.24Q33.44 5.71 33.13 5.29Q32.82 4.87 32.34 4.55Q31.87 4.22 31.28 3.96Q30.69 3.69 30.10 3.47L30.10 3.47Q29.32 3.19 28.48 2.82Q27.64 2.46 26.95 1.90Q26.27 1.34 25.82 0.51Q25.37-0.31 25.37-1.54L25.37-1.54Q25.37-3.98 26.95-5.35Q28.54-6.72 31.31-6.72L31.31-6.72Q32.90-6.72 34.09-6.36Q35.28-6.00 36.10-5.55L36.10-5.55L35.09-2.89Q34.39-3.28 33.53-3.56Q32.68-3.84 31.56-3.84L31.56-3.84Q28.82-3.84 28.82-1.85L28.82-1.85Q28.82-1.35 29.10-0.97Q29.38-0.59 29.81-0.30Q30.24-0.00 30.79 0.22Q31.34 0.44 31.87 0.64L31.87 0.64Q32.68 0.95 33.56 1.33Q34.44 1.70 35.19 2.33Q35.93 2.96 36.40 3.90Q36.88 4.84 36.88 6.27L36.88 6.27Q36.88 8.70 35.30 10.03Q33.72 11.36 30.50 11.36L30.50 11.36Q28.34 11.36 27.05 10.90Q25.76 10.44 25.12 10.05L25.12 10.05L26.13 7.25Q26.88 7.70 27.93 8.09Q28.98 8.48 30.50 8.48ZM50.88 8.14L50.88 11L39.99 11L39.99-6.33L43.46-6.33L43.46 8.14L50.88 8.14Z"/>
    </g>
</svg>