<?xml version="1.0" encoding="UTF-8"?>
<svg height="34" width="90.4" version="1.1" xmlns="http://www.w3.org/2000/svg"><!--Created by Josélio de S. C. Júnior - 2021 - https://github.com/joseliojunior -->
    <rect
        height="32"
        width="88.4"
        rx="1"
        ry="1"
        x="1" y="1"
        fill="#E6EFBB"
        stroke="#9fb62b"
        stroke-width="1" />
    <g transform="translate(0, 12)">
        <path fill="#9fb62b" d="M31.78 12L28.62 12L27.92 8.57L23.96 8.57L23.29 12L20.22 12Q21.27 7.61 22.35 4.00Q23.43 0.38 24.44-2.86L24.44-2.86L27.66-2.86Q28.71 0.41 29.76 4.07Q30.80 7.73 31.78 12L31.78 12ZM25.98 0.02L25.98 0.02Q25.74 0.86 25.53 1.62Q25.33 2.38 25.15 3.11Q24.97 3.84 24.81 4.58Q24.66 5.33 24.51 6.12L24.51 6.12L27.42 6.12Q27.27 5.33 27.13 4.58Q26.98 3.84 26.80 3.11Q26.62 2.38 26.42 1.62Q26.22 0.86 25.98 0.02ZM33.42-2.86L35.86-2.86Q36.03-2.35 36.28-1.56Q36.54-0.77 36.82 0.14Q37.11 1.06 37.40 1.99Q37.69 2.93 37.95 3.72L37.95 3.72Q38.24 2.83 38.55 1.88Q38.86 0.94 39.15 0.06Q39.44-0.82 39.68-1.58Q39.92-2.35 40.11-2.86L40.11-2.86L42.56-2.86Q42.73-0.91 42.88 0.94Q43.04 2.78 43.15 4.60Q43.26 6.41 43.33 8.24Q43.40 10.08 43.45 12L43.45 12L40.74 12L40.88 0.46L39.06 6.74L36.90 6.74L35.14 0.46L35.26 12L32.55 12Q32.62 10.18 32.71 8.21Q32.79 6.24 32.89 4.30Q32.98 2.35 33.12 0.53Q33.25-1.30 33.42-2.86L33.42-2.86ZM49.38-3.02L49.38-3.02Q52.21-3.02 53.77-1.86Q55.33-0.70 55.33 1.94L55.33 1.94Q55.33 4.61 53.76 5.80Q52.18 6.98 49.30 6.98L49.30 6.98L48.25 6.98L48.25 12L45.30 12L45.30-2.66Q45.73-2.76 46.27-2.83Q46.81-2.90 47.36-2.94Q47.91-2.98 48.44-3Q48.97-3.02 49.38-3.02ZM49.71-0.46L49.71-0.46Q49.45-0.46 48.98-0.44Q48.51-0.43 48.25-0.38L48.25-0.38L48.25 4.42L49.45 4.42Q50.86 4.42 51.58 3.85Q52.30 3.29 52.30 1.92L52.30 1.92Q52.30 0.62 51.60 0.08Q50.89-0.46 49.71-0.46ZM67.04 9.55L67.04 12L57.70 12L57.70-2.86L60.68-2.86L60.68 9.55L67.04 9.55Z"/>
    </g>
</svg>