<?xml version="1.0" encoding="UTF-8"?>
<svg height="34" width="78.4" version="1.1" xmlns="http://www.w3.org/2000/svg">
    <rect
        height="32"
        width="76.4"
        rx="1"
        ry="1"
        x="1"
        y="1"
        fill="#E6EFBB"
        stroke="#9fb62b"
        stroke-width="1"
         />
    <g transform="translate(0, 14)">
        <path fill="#9fb62b" d="M23.75 11L20.05 11L19.24 7.00L14.62 7.00L13.84 11L10.25 11Q11.48 5.88 12.74 1.66Q14.00-2.55 15.18-6.33L15.18-6.33L18.93-6.33Q20.16-2.52 21.38 1.75Q22.60 6.02 23.75 11L23.75 11ZM16.97-2.97L16.97-2.97Q16.69-1.99 16.45-1.11Q16.22-0.23 16.01 0.63Q15.80 1.48 15.61 2.35Q15.43 3.22 15.26 4.14L15.26 4.14L18.65 4.14Q18.48 3.22 18.32 2.35Q18.15 1.48 17.94 0.63Q17.73-0.23 17.49-1.11Q17.25-1.99 16.97-2.97ZM25.65-6.33L28.51-6.33Q28.70-5.74 29.00-4.82Q29.29-3.90 29.63-2.83Q29.96-1.77 30.30-0.68Q30.64 0.42 30.94 1.34L30.94 1.34Q31.28 0.30 31.64-0.80Q32.01-1.91 32.34-2.93Q32.68-3.95 32.96-4.85Q33.24-5.74 33.46-6.33L33.46-6.33L36.32-6.33Q36.52-4.06 36.70-1.91Q36.88 0.25 37.01 2.36Q37.13 4.48 37.22 6.62Q37.30 8.76 37.36 11L37.36 11L34.19 11L34.36-2.47L32.23 4.87L29.71 4.87L27.67-2.47L27.81 11L24.64 11Q24.73 8.87 24.83 6.58Q24.92 4.28 25.04 2.01Q25.15-0.26 25.30-2.38Q25.46-4.51 25.65-6.33L25.65-6.33ZM44.27-6.53L44.27-6.53Q47.58-6.53 49.40-5.17Q51.22-3.81 51.22-0.73L51.22-0.73Q51.22 2.38 49.38 3.76Q47.55 5.15 44.19 5.15L44.19 5.15L42.96 5.15L42.96 11L39.51 11L39.51-6.11Q40.02-6.22 40.65-6.30Q41.28-6.39 41.92-6.43Q42.56-6.47 43.18-6.50Q43.80-6.53 44.27-6.53ZM44.66-3.53L44.66-3.53Q44.36-3.53 43.81-3.52Q43.26-3.50 42.96-3.45L42.96-3.45L42.96 2.15L44.36 2.15Q46.01 2.15 46.85 1.49Q47.69 0.84 47.69-0.76L47.69-0.76Q47.69-2.27 46.86-2.90Q46.04-3.53 44.66-3.53ZM64.88 8.14L64.88 11L53.99 11L53.99-6.33L57.46-6.33L57.46 8.14L64.88 8.14Z"/>
    </g>
</svg>