<?xml version="1.0" encoding="UTF-8"?>
<svg height="34" width="114.6" version="1.1" xmlns="http://www.w3.org/2000/svg">
    <rect
        height="32"
        width="112.6"
        rx="16"
        ry="16"
        x="1"
        y="1"
        fill="#0c344b"
        stroke="#228fce"
        stroke-width="1"
         />
    <g transform="translate(0, 12)">
        <path fill="#228fce" d="M25.38-3.02L25.38-3.02Q28.21-3.02 29.77-1.86Q31.33-0.70 31.33 1.94L31.33 1.94Q31.33 4.61 29.76 5.80Q28.18 6.98 25.30 6.98L25.30 6.98L24.25 6.98L24.25 12L21.30 12L21.30-2.66Q21.73-2.76 22.27-2.83Q22.81-2.90 23.36-2.94Q23.91-2.98 24.44-3Q24.97-3.02 25.38-3.02ZM25.71-0.46L25.71-0.46Q25.45-0.46 24.98-0.44Q24.51-0.43 24.25-0.38L24.25-0.38L24.25 4.42L25.45 4.42Q26.86 4.42 27.58 3.85Q28.30 3.29 28.30 1.92L28.30 1.92Q28.30 0.62 27.60 0.08Q26.89-0.46 25.71-0.46ZM43.02 0.98L42.49 3.72Q42.20 3.65 41.80 3.58Q41.41 3.50 41 3.44Q40.59 3.38 40.21 3.36Q39.82 3.34 39.56 3.34L39.56 3.34Q38.94 3.34 38.34 3.40Q37.74 3.46 37.11 3.62L37.11 3.62L37.11 12L34.14 12L34.14 1.46Q35.31 1.03 36.55 0.77Q37.78 0.50 39.44 0.50L39.44 0.50Q39.68 0.50 40.12 0.53Q40.57 0.55 41.07 0.61Q41.58 0.67 42.09 0.76Q42.61 0.84 43.02 0.98L43.02 0.98ZM50.82-2.52L50.82-2.52Q50.82-1.66 50.26-1.15Q49.71-0.65 48.94-0.65L48.94-0.65Q48.18-0.65 47.64-1.15Q47.10-1.66 47.10-2.52L47.10-2.52Q47.10-3.41 47.64-3.91Q48.18-4.42 48.94-4.42L48.94-4.42Q49.71-4.42 50.26-3.91Q50.82-3.41 50.82-2.52ZM54.82 9.14L55.21 11.52Q54.30 11.95 53.49 12.11Q52.69 12.26 52.02 12.26L52.02 12.26Q50.86 12.26 50.08 11.93Q49.30 11.59 48.84 10.96Q48.37 10.32 48.18 9.41Q47.98 8.50 47.98 7.32L47.98 7.32L47.98 3.17L44.86 3.17L44.86 0.72L50.94 0.72L50.94 7.70Q50.94 8.71 51.31 9.20Q51.68 9.70 52.54 9.70L52.54 9.70Q52.95 9.70 53.53 9.59Q54.10 9.48 54.82 9.14L54.82 9.14ZM61.47 9.77L61.47 9.77Q62.55 9.77 63.13 9.61Q63.70 9.46 63.70 8.98L63.70 8.98Q63.70 8.66 63.52 8.45Q63.34 8.23 63.02 8.08Q62.70 7.92 62.28 7.78Q61.86 7.63 61.40 7.49L61.40 7.49Q60.75 7.30 60.08 7.04Q59.41 6.79 58.86 6.41Q58.30 6.02 57.94 5.44Q57.58 4.85 57.58 3.96L57.58 3.96Q57.58 3.24 57.86 2.60Q58.14 1.97 58.72 1.48Q59.31 0.98 60.22 0.71Q61.14 0.43 62.41 0.43L62.41 0.43Q63.51 0.43 64.46 0.60Q65.41 0.77 66.10 1.08L66.10 1.08L65.65 3.58Q65.24 3.46 64.38 3.18Q63.51 2.90 62.43 2.90L62.43 2.90Q61.30 2.90 60.91 3.18Q60.51 3.46 60.51 3.77L60.51 3.77Q60.51 4.03 60.69 4.24Q60.87 4.44 61.17 4.61Q61.47 4.78 61.87 4.93Q62.26 5.09 62.72 5.23L62.72 5.23Q63.37 5.45 64.06 5.71Q64.76 5.98 65.32 6.37Q65.89 6.77 66.25 7.38Q66.61 7.99 66.61 8.88L66.61 8.88Q66.61 9.58 66.34 10.20Q66.08 10.82 65.47 11.28Q64.86 11.74 63.87 12Q62.89 12.26 61.45 12.26L61.45 12.26Q59.98 12.26 58.95 11.93Q57.92 11.59 57.30 11.33L57.30 11.33L57.75 8.86Q58.59 9.19 59.54 9.48Q60.49 9.77 61.47 9.77ZM76.23 0.60L76.23 0.60Q77.17 0.60 77.77 0.89Q78.37 1.18 78.72 1.75Q79.06 2.33 79.18 3.20Q79.30 4.08 79.30 5.26L79.30 5.26L79.30 12L76.90 12L76.90 5.11Q76.90 4.44 76.82 4.03Q76.74 3.62 76.60 3.41Q76.47 3.19 76.29 3.12Q76.11 3.05 75.92 3.05L75.92 3.05Q75.70 3.05 75.46 3.08Q75.22 3.12 75.03 3.22L75.03 3.22Q75.10 3.67 75.15 4.22Q75.20 4.78 75.20 5.45L75.20 5.45L75.20 7.70L72.80 7.70L72.80 5.11Q72.80 3.96 72.57 3.50Q72.34 3.05 71.84 3.05L71.84 3.05Q71.70 3.05 71.49 3.07Q71.29 3.10 71.10 3.14L71.10 3.14L71.10 12L68.70 12L68.70 1.15Q69.63 0.89 70.54 0.74Q71.46 0.60 72.15 0.60L72.15 0.60Q72.78 0.60 73.27 0.76Q73.76 0.91 74.12 1.27L74.12 1.27Q74.53 1.01 75.08 0.80Q75.63 0.60 76.23 0.60ZM86.02 9.89L86.02 9.89Q86.50 9.89 86.96 9.88Q87.42 9.86 87.75 9.82L87.75 9.82L87.75 7.22Q87.46 7.18 87.06 7.14Q86.65 7.10 86.31 7.10L86.31 7.10Q85.86 7.10 85.42 7.16Q84.99 7.22 84.67 7.37Q84.34 7.51 84.15 7.78Q83.96 8.04 83.96 8.47L83.96 8.47Q83.96 9.24 84.54 9.56Q85.11 9.89 86.02 9.89ZM85.76 0.43L85.76 0.43Q87.15 0.43 88.08 0.76Q89 1.08 89.55 1.67Q90.10 2.26 90.34 3.11Q90.58 3.96 90.58 5.02L90.58 5.02L90.58 11.74Q89.94 11.88 88.66 12.07Q87.39 12.26 85.81 12.26L85.81 12.26Q84.73 12.26 83.85 12.07Q82.98 11.88 82.35 11.44Q81.73 10.99 81.39 10.28Q81.06 9.58 81.06 8.54L81.06 8.54Q81.06 7.56 81.44 6.89Q81.82 6.22 82.47 5.81Q83.12 5.40 83.96 5.22Q84.80 5.04 85.71 5.04L85.71 5.04Q86.86 5.04 87.75 5.23L87.75 5.23L87.75 4.87Q87.75 4.03 87.22 3.47Q86.70 2.90 85.40 2.90L85.40 2.90Q84.56 2.90 83.78 3.02Q83 3.14 82.52 3.31L82.52 3.31L82.11 0.94Q82.66 0.74 83.67 0.59Q84.68 0.43 85.76 0.43Z"/>
    </g>
</svg>