<?xml version="1.0" encoding="UTF-8"?>
<svg height="26" width="74.4" version="1.1" xmlns="http://www.w3.org/2000/svg"><!--Created by Josélio de S. C. Júnior - 2021 - https://github.com/joseliojunior -->
    <rect
        height="24"
        width="72.4"
        rx="1"
        ry="1"
        x="1" y="1"
        fill="#2980B9"
        stroke="#0d283b"
        stroke-width="1" />
    <g transform="translate(0, 8)">
        <path fill="#0d283b" stroke="none" d="M27.36 8.37L27.36 10L21.14 10L21.14 0.10L23.12 0.10L23.12 8.37L27.36 8.37ZM32.02 8.59L32.02 8.59Q32.34 8.59 32.64 8.58Q32.94 8.58 33.17 8.54L33.17 8.54L33.17 6.82Q32.98 6.78 32.70 6.76Q32.43 6.74 32.21 6.74L32.21 6.74Q31.90 6.74 31.62 6.78Q31.33 6.82 31.11 6.91Q30.90 7.01 30.77 7.18Q30.64 7.36 30.64 7.65L30.64 7.65Q30.64 8.16 31.02 8.38Q31.41 8.59 32.02 8.59ZM31.84 2.29L31.84 2.29Q32.77 2.29 33.38 2.50Q34 2.72 34.37 3.11Q34.74 3.50 34.90 4.07Q35.06 4.64 35.06 5.34L35.06 5.34L35.06 9.82Q34.62 9.92 33.78 10.05Q32.93 10.18 31.87 10.18L31.87 10.18Q31.15 10.18 30.57 10.05Q29.98 9.92 29.57 9.62Q29.15 9.33 28.93 8.86Q28.70 8.38 28.70 7.70L28.70 7.70Q28.70 7.04 28.96 6.59Q29.22 6.14 29.65 5.87Q30.08 5.60 30.64 5.48Q31.20 5.36 31.81 5.36L31.81 5.36Q32.58 5.36 33.17 5.49L33.17 5.49L33.17 5.25Q33.17 4.69 32.82 4.31Q32.46 3.94 31.60 3.94L31.60 3.94Q31.04 3.94 30.52 4.02Q30 4.10 29.68 4.21L29.68 4.21L29.41 2.62Q29.78 2.50 30.45 2.39Q31.12 2.29 31.84 2.29ZM43.34 2.66L42.99 4.48Q42.80 4.43 42.54 4.38Q42.27 4.34 42 4.30Q41.73 4.26 41.47 4.24Q41.22 4.22 41.04 4.22L41.04 4.22Q40.62 4.22 40.22 4.26Q39.82 4.30 39.41 4.42L39.41 4.42L39.41 10L37.42 10L37.42 2.98Q38.21 2.69 39.03 2.51Q39.86 2.34 40.96 2.34L40.96 2.34Q41.12 2.34 41.42 2.35Q41.71 2.37 42.05 2.41Q42.38 2.45 42.73 2.50Q43.07 2.56 43.34 2.66L43.34 2.66ZM46.99-1.10L46.99 5.46Q47.28 5.12 47.58 4.74Q47.87 4.37 48.15 3.97Q48.43 3.57 48.69 3.19Q48.94 2.82 49.14 2.48L49.14 2.48L51.50 2.48Q51.22 2.85 50.85 3.28Q50.48 3.71 50.09 4.16Q49.70 4.61 49.30 5.02Q48.91 5.44 48.59 5.79L48.59 5.79Q48.99 6.18 49.46 6.71Q49.92 7.25 50.37 7.82Q50.82 8.40 51.19 8.98Q51.57 9.55 51.79 10L51.79 10L49.54 10Q49.34 9.60 49.03 9.10Q48.72 8.59 48.37 8.10Q48.02 7.62 47.66 7.18Q47.30 6.74 46.99 6.45L46.99 6.45L46.99 10L45.01 10L45.01-0.77L46.99-1.10Z"/>
    </g>
</svg>