<?xml version="1.0" encoding="UTF-8"?>
<svg height="34" width="92.5" version="1.1" xmlns="http://www.w3.org/2000/svg">
    <rect
        height="32"
        width="90.5"
        rx="14"
        ry="14"
        x="1"
        y="1"
        fill="#FFEC25"
        stroke="#8a7e00"
        stroke-width="1"
         />
    <g transform="translate(0, 14)">
        <path fill="#8a7e00" d="M14.96-3.45L14.96 8.20Q15.10 8.23 15.26 8.23Q15.43 8.23 15.57 8.23L15.57 8.23Q16.75 8.23 17.55 7.78Q18.34 7.33 18.83 6.55Q19.32 5.76 19.53 4.69Q19.74 3.61 19.74 2.32L19.74 2.32Q19.74 1.20 19.58 0.14Q19.41-0.93 18.99-1.74Q18.57-2.55 17.84-3.04Q17.11-3.53 15.96-3.53L15.96-3.53Q15.74-3.53 15.46-3.52Q15.18-3.50 14.96-3.45L14.96-3.45ZM23.24 2.32L23.24 2.32Q23.24 4.73 22.64 6.42Q22.04 8.12 20.98 9.18Q19.91 10.24 18.44 10.73Q16.97 11.22 15.21 11.22L15.21 11.22Q14.28 11.22 13.40 11.13Q12.52 11.03 11.51 10.80L11.51 10.80L11.51-6.11Q12.69-6.36 13.72-6.44Q14.76-6.53 15.66-6.53L15.66-6.53Q17.36-6.53 18.78-6.02Q20.19-5.52 21.17-4.44Q22.15-3.36 22.70-1.70Q23.24-0.03 23.24 2.32ZM31.03 8.54L31.03 8.54Q31.59 8.54 32.12 8.52Q32.65 8.51 33.04 8.45L33.04 8.45L33.04 5.43Q32.71 5.37 32.23 5.33Q31.76 5.29 31.36 5.29L31.36 5.29Q30.83 5.29 30.33 5.36Q29.82 5.43 29.45 5.60Q29.07 5.76 28.84 6.07Q28.62 6.38 28.62 6.88L28.62 6.88Q28.62 7.78 29.29 8.16Q29.96 8.54 31.03 8.54ZM30.72-2.50L30.72-2.50Q32.34-2.50 33.42-2.12Q34.50-1.74 35.14-1.05Q35.79-0.37 36.07 0.63Q36.35 1.62 36.35 2.85L36.35 2.85L36.35 10.69Q35.59 10.86 34.11 11.08Q32.62 11.31 30.78 11.31L30.78 11.31Q29.52 11.31 28.49 11.08Q27.47 10.86 26.74 10.34Q26.02 9.82 25.62 9.00Q25.23 8.17 25.23 6.97L25.23 6.97Q25.23 5.82 25.68 5.04Q26.13 4.25 26.88 3.78Q27.64 3.30 28.62 3.09Q29.60 2.88 30.66 2.88L30.66 2.88Q32.01 2.88 33.04 3.10L33.04 3.10L33.04 2.68Q33.04 1.70 32.43 1.05Q31.81 0.39 30.30 0.39L30.30 0.39Q29.32 0.39 28.41 0.53Q27.50 0.67 26.94 0.86L26.94 0.86L26.46-1.91Q27.11-2.13 28.28-2.31Q29.46-2.50 30.72-2.50ZM45.36 11L41.89 11L41.89 0.70L39.01 0.70L39.01-2.16L41.89-2.16L41.89-2.92Q41.89-4.51 42.35-5.56Q42.82-6.61 43.60-7.24Q44.38-7.87 45.39-8.14Q46.40-8.40 47.46-8.40L47.46-8.40Q48.56-8.40 49.70-8.21Q50.85-8.01 51.78-7.56L51.78-7.56L51.19-4.76Q50.54-4.99 49.58-5.23Q48.61-5.46 47.74-5.46L47.74-5.46Q47.27-5.46 46.83-5.38Q46.40-5.30 46.08-5.02Q45.76-4.74 45.56-4.22Q45.36-3.70 45.36-2.86L45.36-2.86L45.36-2.16L50.77-2.16L50.77 0.70L45.36 0.70L45.36 11ZM53.76 11L53.76-1.74Q54.69-1.99 56.05-2.22Q57.40-2.44 59-2.44L59-2.44Q60.57-2.44 61.60-2.01Q62.64-1.57 63.24-0.77Q63.84 0.02 64.10 1.13Q64.35 2.24 64.35 3.58L64.35 3.58L64.35 11L60.90 11L60.90 4.03Q60.90 2.18 60.48 1.37Q60.06 0.56 58.78 0.56L58.78 0.56Q58.38 0.56 58.01 0.58Q57.63 0.61 57.21 0.67L57.21 0.67L57.21 11L53.76 11ZM75.69-2.16L79.22-2.16Q78.68-0.31 78.19 1.47Q77.70 3.24 77.17 4.94Q76.64 6.63 76.04 8.26Q75.44 9.88 74.74 11.42L74.74 11.42Q74.20 12.54 73.69 13.35Q73.17 14.16 72.54 14.68Q71.91 15.20 71.14 15.45Q70.37 15.70 69.33 15.70L69.33 15.70Q68.46 15.70 67.75 15.56Q67.04 15.42 66.56 15.20L66.56 15.20L67.20 12.32Q67.76 12.57 68.20 12.67Q68.63 12.76 69.14 12.76L69.14 12.76Q70.14 12.76 70.76 12.09Q71.38 11.42 71.74 10.50L71.74 10.50Q70.51 8.03 69.28 4.85Q68.04 1.68 67.04-2.16L67.04-2.16L70.62-2.16Q70.87-1.12 71.19 0.05Q71.52 1.23 71.88 2.40Q72.24 3.58 72.65 4.71Q73.06 5.85 73.48 6.83L73.48 6.83Q73.76 5.85 74.06 4.71Q74.37 3.58 74.65 2.42Q74.93 1.26 75.20 0.08Q75.46-1.10 75.69-2.16L75.69-2.16Z"/>
    </g>
</svg>