<?xml version="1.0" encoding="UTF-8"?>
<svg height="34" width="150.89999999999998" version="1.1" xmlns="http://www.w3.org/2000/svg"><!--Created by Josélio de S. C. Júnior - 2021 - https://github.com/joseliojunior -->
    <defs>
        <pattern id="pattern"
                x="3" y="3" width="6" height="6"
                patternUnits="userSpaceOnUse"
                patternTransform="rotate(45)" >
            <rect height="6" width="6"
                fill="#ffffff"/>
            <line x1="0" y1="0" x2="0" y2="6"
                stroke="#888888"
                stroke-width="2" />
        </pattern>
    </defs>
    <rect
        height="32"
        width="148.89999999999998"
        rx="16"
        ry="16"
        x="1" y="1"
        fill="url(#pattern)"
        stroke="#000000"
        stroke-width="1" />
    <g transform="translate(0, 12)">
        <path fill="#ffffff" stroke="#000000" d="M21.42-2.86L23.86-2.86Q24.03-2.35 24.28-1.56Q24.54-0.77 24.82 0.14Q25.11 1.06 25.40 1.99Q25.69 2.93 25.95 3.72L25.95 3.72Q26.24 2.83 26.55 1.88Q26.86 0.94 27.15 0.06Q27.44-0.82 27.68-1.58Q27.92-2.35 28.11-2.86L28.11-2.86L30.56-2.86Q30.73-0.91 30.88 0.94Q31.04 2.78 31.15 4.60Q31.26 6.41 31.33 8.24Q31.40 10.08 31.45 12L31.45 12L28.74 12L28.88 0.46L27.06 6.74L24.90 6.74L23.14 0.46L23.26 12L20.55 12Q20.62 10.18 20.71 8.21Q20.79 6.24 20.89 4.30Q20.98 2.35 21.12 0.53Q21.25-1.30 21.42-2.86L21.42-2.86ZM38.02 9.89L38.02 9.89Q38.50 9.89 38.96 9.88Q39.42 9.86 39.75 9.82L39.75 9.82L39.75 7.22Q39.46 7.18 39.06 7.14Q38.65 7.10 38.31 7.10L38.31 7.10Q37.86 7.10 37.42 7.16Q36.99 7.22 36.67 7.37Q36.34 7.51 36.15 7.78Q35.96 8.04 35.96 8.47L35.96 8.47Q35.96 9.24 36.54 9.56Q37.11 9.89 38.02 9.89ZM37.76 0.43L37.76 0.43Q39.15 0.43 40.08 0.76Q41 1.08 41.55 1.67Q42.10 2.26 42.34 3.11Q42.58 3.96 42.58 5.02L42.58 5.02L42.58 11.74Q41.94 11.88 40.66 12.07Q39.39 12.26 37.81 12.26L37.81 12.26Q36.73 12.26 35.85 12.07Q34.98 11.88 34.35 11.44Q33.73 10.99 33.39 10.28Q33.06 9.58 33.06 8.54L33.06 8.54Q33.06 7.56 33.44 6.89Q33.82 6.22 34.47 5.81Q35.12 5.40 35.96 5.22Q36.80 5.04 37.71 5.04L37.71 5.04Q38.86 5.04 39.75 5.23L39.75 5.23L39.75 4.87Q39.75 4.03 39.22 3.47Q38.70 2.90 37.40 2.90L37.40 2.90Q36.56 2.90 35.78 3.02Q35 3.14 34.52 3.31L34.52 3.31L34.11 0.94Q34.66 0.74 35.67 0.59Q36.68 0.43 37.76 0.43ZM51.13 12L48.66 12Q47.58 9.86 46.46 7.00Q45.34 4.13 44.34 0.72L44.34 0.72L47.43 0.72Q47.65 1.63 47.95 2.66Q48.25 3.70 48.58 4.74Q48.92 5.78 49.27 6.77Q49.62 7.75 49.93 8.57L49.93 8.57Q50.24 7.75 50.62 6.77Q51.01 5.78 51.38 4.74Q51.75 3.70 52.10 2.66Q52.45 1.63 52.66 0.72L52.66 0.72L55.66 0.72Q54.66 4.13 53.43 7.00Q52.21 9.86 51.13 12L51.13 12ZM56.74 6.46L56.74 6.46Q56.74 4.97 57.20 3.84Q57.66 2.71 58.40 1.96Q59.14 1.20 60.10 0.82Q61.06 0.43 62.07 0.43L62.07 0.43Q64.57 0.43 65.86 1.91Q67.16 3.38 67.16 6.22L67.16 6.22Q67.16 6.50 67.15 6.82Q67.14 7.13 67.11 7.32L67.11 7.32L59.79 7.32Q59.79 8.42 60.70 9.06Q61.62 9.70 63.06 9.70L63.06 9.70Q63.94 9.70 64.75 9.50Q65.55 9.31 66.10 9.12L66.10 9.12L66.51 11.64Q65.74 11.90 64.88 12.08Q64.02 12.26 62.94 12.26L62.94 12.26Q61.50 12.26 60.36 11.89Q59.22 11.52 58.41 10.79Q57.61 10.06 57.18 8.98Q56.74 7.90 56.74 6.46ZM59.79 5.28L64.30 5.28Q64.30 4.82 64.18 4.40Q64.06 3.98 63.80 3.65Q63.54 3.31 63.13 3.11Q62.72 2.90 62.12 2.90L62.12 2.90Q61.54 2.90 61.12 3.10Q60.70 3.29 60.43 3.62Q60.15 3.96 60.00 4.39Q59.84 4.82 59.79 5.28L59.79 5.28ZM69.51 12L69.51 1.08Q70.30 0.86 71.47 0.67Q72.63 0.48 74 0.48L74 0.48Q75.34 0.48 76.23 0.85Q77.12 1.22 77.64 1.91Q78.15 2.59 78.37 3.54Q78.58 4.49 78.58 5.64L78.58 5.64L78.58 12L75.63 12L75.63 6.02Q75.63 4.44 75.27 3.74Q74.91 3.05 73.81 3.05L73.81 3.05Q73.47 3.05 73.15 3.07Q72.82 3.10 72.46 3.14L72.46 3.14L72.46 12L69.51 12ZM97.38-3.02L97.38-3.02Q100.21-3.02 101.77-1.86Q103.33-0.70 103.33 1.94L103.33 1.94Q103.33 4.61 101.76 5.80Q100.18 6.98 97.30 6.98L97.30 6.98L96.25 6.98L96.25 12L93.30 12L93.30-2.66Q93.73-2.76 94.27-2.83Q94.81-2.90 95.36-2.94Q95.91-2.98 96.44-3Q96.97-3.02 97.38-3.02ZM97.71-0.46L97.71-0.46Q97.45-0.46 96.98-0.44Q96.51-0.43 96.25-0.38L96.25-0.38L96.25 4.42L97.45 4.42Q98.86 4.42 99.58 3.85Q100.30 3.29 100.30 1.92L100.30 1.92Q100.30 0.62 99.60 0.08Q98.89-0.46 97.71-0.46ZM107.65 4.56L107.65 4.56Q107.65 5.64 107.73 6.59Q107.82 7.54 108.07 8.23Q108.32 8.93 108.78 9.34Q109.23 9.74 110 9.74L110 9.74Q110.74 9.74 111.21 9.34Q111.68 8.93 111.93 8.22Q112.18 7.51 112.27 6.58Q112.35 5.64 112.35 4.56L112.35 4.56Q112.35 3.48 112.27 2.53Q112.18 1.58 111.93 0.89Q111.68 0.19 111.22-0.22Q110.77-0.62 110-0.62L110-0.62Q109.23-0.62 108.78-0.22Q108.32 0.19 108.07 0.90Q107.82 1.61 107.73 2.54Q107.65 3.48 107.65 4.56ZM104.65 4.56L104.65 4.56Q104.65 0.72 106.06-1.24Q107.48-3.19 110-3.19L110-3.19Q112.62-3.19 113.98-1.24Q115.35 0.72 115.35 4.56L115.35 4.56Q115.35 8.40 113.96 10.36Q112.57 12.31 110.02 12.31L110.02 12.31Q107.41 12.31 106.03 10.36Q104.65 8.40 104.65 4.56ZM117.42-2.86L119.86-2.86Q120.03-2.35 120.28-1.56Q120.54-0.77 120.82 0.14Q121.11 1.06 121.40 1.99Q121.69 2.93 121.95 3.72L121.95 3.72Q122.24 2.83 122.55 1.88Q122.86 0.94 123.15 0.06Q123.44-0.82 123.68-1.58Q123.92-2.35 124.11-2.86L124.11-2.86L126.56-2.86Q126.73-0.91 126.88 0.94Q127.04 2.78 127.15 4.60Q127.26 6.41 127.33 8.24Q127.40 10.08 127.45 12L127.45 12L124.74 12L124.88 0.46L123.06 6.74L120.90 6.74L119.14 0.46L119.26 12L116.55 12Q116.62 10.18 116.71 8.21Q116.79 6.24 116.89 4.30Q116.98 2.35 117.12 0.53Q117.25-1.30 117.42-2.86L117.42-2.86Z"/>
    </g>
</svg>