<?xml version="1.0" encoding="UTF-8"?>
<svg height="26" width="114.89999999999999" version="1.1" xmlns="http://www.w3.org/2000/svg"><!--Created by Josélio de S. C. Júnior - 2021 - https://github.com/joseliojunior -->
    <defs>
        <pattern id="pattern"
                x="3" y="3" width="6" height="6"
                patternUnits="userSpaceOnUse"
                patternTransform="rotate(45)" >
            <rect height="6" width="6"
                fill="#ffffff"/>
            <line x1="0" y1="0" x2="0" y2="6"
                stroke="#888888"
                stroke-width="2" />
        </pattern>
    </defs>
    <rect
        height="24"
        width="112.89999999999999"
        rx="1"
        ry="1"
        x="1" y="1"
        fill="url(#pattern)"
        stroke="#000000"
        stroke-width="1" />
    <g transform="translate(0, 8)">
        <path fill="#ffffff" stroke="#000000" d="M20.94 0.10L22.58 0.10Q22.69 0.43 22.86 0.96Q23.02 1.49 23.22 2.10Q23.41 2.70 23.60 3.33Q23.79 3.95 23.97 4.48L23.97 4.48Q24.16 3.89 24.37 3.26Q24.58 2.62 24.77 2.04Q24.96 1.46 25.12 0.94Q25.28 0.43 25.41 0.10L25.41 0.10L27.04 0.10Q27.15 1.39 27.26 2.62Q27.36 3.86 27.43 5.06Q27.50 6.27 27.55 7.50Q27.60 8.72 27.63 10L27.63 10L25.82 10L25.92 2.30L24.70 6.50L23.26 6.50L22.10 2.30L22.18 10L20.37 10Q20.42 8.78 20.47 7.47Q20.53 6.16 20.59 4.86Q20.66 3.57 20.74 2.35Q20.83 1.14 20.94 0.10L20.94 0.10ZM32.02 8.59L32.02 8.59Q32.34 8.59 32.64 8.58Q32.94 8.58 33.17 8.54L33.17 8.54L33.17 6.82Q32.98 6.78 32.70 6.76Q32.43 6.74 32.21 6.74L32.21 6.74Q31.90 6.74 31.62 6.78Q31.33 6.82 31.11 6.91Q30.90 7.01 30.77 7.18Q30.64 7.36 30.64 7.65L30.64 7.65Q30.64 8.16 31.02 8.38Q31.41 8.59 32.02 8.59ZM31.84 2.29L31.84 2.29Q32.77 2.29 33.38 2.50Q34 2.72 34.37 3.11Q34.74 3.50 34.90 4.07Q35.06 4.64 35.06 5.34L35.06 5.34L35.06 9.82Q34.62 9.92 33.78 10.05Q32.93 10.18 31.87 10.18L31.87 10.18Q31.15 10.18 30.57 10.05Q29.98 9.92 29.57 9.62Q29.15 9.33 28.93 8.86Q28.70 8.38 28.70 7.70L28.70 7.70Q28.70 7.04 28.96 6.59Q29.22 6.14 29.65 5.87Q30.08 5.60 30.64 5.48Q31.20 5.36 31.81 5.36L31.81 5.36Q32.58 5.36 33.17 5.49L33.17 5.49L33.17 5.25Q33.17 4.69 32.82 4.31Q32.46 3.94 31.60 3.94L31.60 3.94Q31.04 3.94 30.52 4.02Q30 4.10 29.68 4.21L29.68 4.21L29.41 2.62Q29.78 2.50 30.45 2.39Q31.12 2.29 31.84 2.29ZM40.75 10L39.10 10Q38.38 8.58 37.64 6.66Q36.90 4.75 36.22 2.48L36.22 2.48L38.29 2.48Q38.43 3.09 38.63 3.78Q38.83 4.46 39.06 5.16Q39.28 5.86 39.51 6.51Q39.74 7.17 39.95 7.71L39.95 7.71Q40.16 7.17 40.42 6.51Q40.67 5.86 40.92 5.16Q41.17 4.46 41.40 3.78Q41.63 3.09 41.78 2.48L41.78 2.48L43.78 2.48Q43.10 4.75 42.29 6.66Q41.47 8.58 40.75 10L40.75 10ZM44.50 6.30L44.50 6.30Q44.50 5.31 44.80 4.56Q45.10 3.81 45.60 3.30Q46.10 2.80 46.74 2.54Q47.38 2.29 48.05 2.29L48.05 2.29Q49.71 2.29 50.58 3.27Q51.44 4.26 51.44 6.14L51.44 6.14Q51.44 6.34 51.43 6.54Q51.42 6.75 51.41 6.88L51.41 6.88L46.53 6.88Q46.53 7.62 47.14 8.04Q47.74 8.46 48.70 8.46L48.70 8.46Q49.30 8.46 49.83 8.34Q50.37 8.21 50.74 8.08L50.74 8.08L51.01 9.76Q50.50 9.94 49.92 10.06Q49.34 10.18 48.62 10.18L48.62 10.18Q47.66 10.18 46.90 9.93Q46.14 9.68 45.61 9.19Q45.07 8.70 44.78 7.98Q44.50 7.26 44.50 6.30ZM46.53 5.52L49.54 5.52Q49.54 5.22 49.46 4.94Q49.38 4.66 49.20 4.43Q49.02 4.21 48.75 4.07Q48.48 3.94 48.08 3.94L48.08 3.94Q47.70 3.94 47.42 4.06Q47.14 4.19 46.95 4.42Q46.77 4.64 46.66 4.93Q46.56 5.22 46.53 5.52L46.53 5.52ZM53.01 10L53.01 2.72Q53.54 2.58 54.31 2.45Q55.09 2.32 56 2.32L56 2.32Q56.90 2.32 57.49 2.57Q58.08 2.82 58.42 3.27Q58.77 3.73 58.91 4.36Q59.06 4.99 59.06 5.76L59.06 5.76L59.06 10L57.09 10L57.09 6.02Q57.09 4.96 56.85 4.50Q56.61 4.03 55.87 4.03L55.87 4.03Q55.65 4.03 55.43 4.05Q55.22 4.06 54.98 4.10L54.98 4.10L54.98 10L53.01 10ZM71.58-0.02L71.58-0.02Q73.47-0.02 74.51 0.76Q75.55 1.54 75.55 3.30L75.55 3.30Q75.55 5.07 74.50 5.86Q73.46 6.66 71.54 6.66L71.54 6.66L70.83 6.66L70.83 10L68.86 10L68.86 0.22Q69.15 0.16 69.51 0.11Q69.87 0.06 70.24 0.04Q70.61 0.02 70.96 0Q71.31-0.02 71.58-0.02ZM71.81 1.70L71.81 1.70Q71.63 1.70 71.32 1.70Q71.01 1.71 70.83 1.74L70.83 1.74L70.83 4.94L71.63 4.94Q72.58 4.94 73.06 4.57Q73.54 4.19 73.54 3.28L73.54 3.28Q73.54 2.42 73.06 2.06Q72.59 1.70 71.81 1.70ZM78.43 5.04L78.43 5.04Q78.43 5.76 78.49 6.39Q78.54 7.02 78.71 7.49Q78.88 7.95 79.18 8.22Q79.49 8.50 80 8.50L80 8.50Q80.50 8.50 80.81 8.22Q81.12 7.95 81.29 7.48Q81.46 7.01 81.51 6.38Q81.57 5.76 81.57 5.04L81.57 5.04Q81.57 4.32 81.51 3.69Q81.46 3.06 81.29 2.59Q81.12 2.13 80.82 1.86Q80.51 1.58 80 1.58L80 1.58Q79.49 1.58 79.18 1.86Q78.88 2.13 78.71 2.60Q78.54 3.07 78.49 3.70Q78.43 4.32 78.43 5.04ZM76.43 5.04L76.43 5.04Q76.43 2.48 77.38 1.18Q78.32-0.13 80-0.13L80-0.13Q81.74-0.13 82.66 1.18Q83.57 2.48 83.57 5.04L83.57 5.04Q83.57 7.60 82.64 8.90Q81.71 10.21 80.02 10.21L80.02 10.21Q78.27 10.21 77.35 8.90Q76.43 7.60 76.43 5.04ZM84.94 0.10L86.58 0.10Q86.69 0.43 86.86 0.96Q87.02 1.49 87.22 2.10Q87.41 2.70 87.60 3.33Q87.79 3.95 87.97 4.48L87.97 4.48Q88.16 3.89 88.37 3.26Q88.58 2.62 88.77 2.04Q88.96 1.46 89.12 0.94Q89.28 0.43 89.41 0.10L89.41 0.10L91.04 0.10Q91.15 1.39 91.26 2.62Q91.36 3.86 91.43 5.06Q91.50 6.27 91.55 7.50Q91.60 8.72 91.63 10L91.63 10L89.82 10L89.92 2.30L88.70 6.50L87.26 6.50L86.10 2.30L86.18 10L84.37 10Q84.42 8.78 84.47 7.47Q84.53 6.16 84.59 4.86Q84.66 3.57 84.74 2.35Q84.83 1.14 84.94 0.10L84.94 0.10Z"/>
    </g>
</svg>