<?xml version="1.0" encoding="UTF-8"?>
<svg height="34" width="90.4" version="1.1" xmlns="http://www.w3.org/2000/svg">
    <rect
        height="32"
        width="88.4"
        rx="16"
        ry="16"
        x="1"
        y="1"
        fill="#7582D1"
        stroke="#2b3782"
        stroke-width="1"
         />
    <g transform="translate(0, 12)">
        <path fill="#2b3782" d="M29.96 12L27.73 12Q27.46 11.26 27.24 10.63Q27.01 10.01 26.80 9.42Q26.60 8.83 26.40 8.20Q26.19 7.56 25.98 6.79L25.98 6.79Q25.74 7.56 25.54 8.17Q25.35 8.78 25.15 9.38Q24.94 9.98 24.73 10.61Q24.51 11.23 24.20 12L24.20 12L21.97 12Q21.68 10.94 21.43 9.66Q21.18 8.38 20.96 6.92Q20.74 5.47 20.58 3.91Q20.41 2.35 20.26 0.72L20.26 0.72L22.78 0.72Q22.88 2.81 22.99 4.80Q23.10 6.79 23.38 8.90L23.38 8.90Q23.70 7.99 23.92 7.21Q24.15 6.43 24.33 5.72Q24.51 5.02 24.67 4.36Q24.82 3.70 24.99 3L24.99 3L27.13 3Q27.27 3.70 27.43 4.36Q27.58 5.02 27.76 5.72Q27.94 6.43 28.15 7.21Q28.35 7.99 28.64 8.90L28.64 8.90Q28.78 7.80 28.88 6.79Q28.98 5.78 29.04 4.79Q29.10 3.79 29.13 2.80Q29.17 1.80 29.22 0.72L29.22 0.72L31.74 0.72Q31.47 4.01 31.00 6.91Q30.54 9.82 29.96 12L29.96 12ZM38.82-2.52L38.82-2.52Q38.82-1.66 38.26-1.15Q37.71-0.65 36.94-0.65L36.94-0.65Q36.18-0.65 35.64-1.15Q35.10-1.66 35.10-2.52L35.10-2.52Q35.10-3.41 35.64-3.91Q36.18-4.42 36.94-4.42L36.94-4.42Q37.71-4.42 38.26-3.91Q38.82-3.41 38.82-2.52ZM42.82 9.14L43.21 11.52Q42.30 11.95 41.49 12.11Q40.69 12.26 40.02 12.26L40.02 12.26Q38.86 12.26 38.08 11.93Q37.30 11.59 36.84 10.96Q36.37 10.32 36.18 9.41Q35.98 8.50 35.98 7.32L35.98 7.32L35.98 3.17L32.86 3.17L32.86 0.72L38.94 0.72L38.94 7.70Q38.94 8.71 39.31 9.20Q39.68 9.70 40.54 9.70L40.54 9.70Q40.95 9.70 41.53 9.59Q42.10 9.48 42.82 9.14L42.82 9.14ZM49.47 9.77L49.47 9.77Q50.55 9.77 51.13 9.61Q51.70 9.46 51.70 8.98L51.70 8.98Q51.70 8.66 51.52 8.45Q51.34 8.23 51.02 8.08Q50.70 7.92 50.28 7.78Q49.86 7.63 49.40 7.49L49.40 7.49Q48.75 7.30 48.08 7.04Q47.41 6.79 46.86 6.41Q46.30 6.02 45.94 5.44Q45.58 4.85 45.58 3.96L45.58 3.96Q45.58 3.24 45.86 2.60Q46.14 1.97 46.72 1.48Q47.31 0.98 48.22 0.71Q49.14 0.43 50.41 0.43L50.41 0.43Q51.51 0.43 52.46 0.60Q53.41 0.77 54.10 1.08L54.10 1.08L53.65 3.58Q53.24 3.46 52.38 3.18Q51.51 2.90 50.43 2.90L50.43 2.90Q49.30 2.90 48.91 3.18Q48.51 3.46 48.51 3.77L48.51 3.77Q48.51 4.03 48.69 4.24Q48.87 4.44 49.17 4.61Q49.47 4.78 49.87 4.93Q50.26 5.09 50.72 5.23L50.72 5.23Q51.37 5.45 52.06 5.71Q52.76 5.98 53.32 6.37Q53.89 6.77 54.25 7.38Q54.61 7.99 54.61 8.88L54.61 8.88Q54.61 9.58 54.34 10.20Q54.08 10.82 53.47 11.28Q52.86 11.74 51.87 12Q50.89 12.26 49.45 12.26L49.45 12.26Q47.98 12.26 46.95 11.93Q45.92 11.59 45.30 11.33L45.30 11.33L45.75 8.86Q46.59 9.19 47.54 9.48Q48.49 9.77 49.47 9.77ZM64.26 6.46L64.26 6.46Q64.26 4.94 63.66 3.97Q63.06 3 61.83 3L61.83 3Q61.50 3 61.11 3.04Q60.73 3.07 60.46 3.10L60.46 3.10L60.46 9.29Q60.75 9.48 61.23 9.60Q61.71 9.72 62.19 9.72L62.19 9.72Q63.25 9.72 63.75 8.87Q64.26 8.02 64.26 6.46ZM67.26 6.36L67.26 6.36Q67.26 7.66 66.97 8.75Q66.68 9.84 66.13 10.62Q65.58 11.40 64.74 11.83Q63.90 12.26 62.79 12.26L62.79 12.26Q61.66 12.26 60.46 11.71L60.46 11.71L60.46 15.96L57.51 15.96L57.51 1.08Q58.33 0.82 59.52 0.65Q60.70 0.48 61.86 0.48L61.86 0.48Q64.47 0.48 65.86 2.06Q67.26 3.65 67.26 6.36Z"/>
    </g>
</svg>