<?xml version="1.0" encoding="UTF-8"?>
<svg height="34" width="78.4" version="1.1" xmlns="http://www.w3.org/2000/svg">
    <rect
        height="32"
        width="76.4"
        rx="1"
        ry="1"
        x="1"
        y="1"
        fill="#7582D1"
        stroke="#2b3782"
        stroke-width="1"
         />
    <g transform="translate(0, 14)">
        <path fill="#2b3782" d="M21.62 11L19.02 11Q18.71 10.13 18.44 9.40Q18.18 8.68 17.94 7.99Q17.70 7.30 17.46 6.56Q17.22 5.82 16.97 4.92L16.97 4.92Q16.69 5.82 16.47 6.53Q16.24 7.25 16.01 7.95Q15.77 8.65 15.52 9.38Q15.26 10.10 14.90 11L14.90 11L12.30 11Q11.96 9.77 11.67 8.27Q11.37 6.77 11.12 5.08Q10.87 3.38 10.67 1.56Q10.48-0.26 10.31-2.16L10.31-2.16L13.25-2.16Q13.36 0.28 13.49 2.60Q13.61 4.92 13.95 7.39L13.95 7.39Q14.31 6.32 14.58 5.41Q14.84 4.50 15.05 3.68Q15.26 2.85 15.45 2.08Q15.63 1.31 15.82 0.50L15.82 0.50L18.32 0.50Q18.48 1.31 18.67 2.08Q18.85 2.85 19.06 3.68Q19.27 4.50 19.51 5.41Q19.74 6.32 20.08 7.39L20.08 7.39Q20.25 6.10 20.36 4.92Q20.47 3.75 20.54 2.59Q20.61 1.42 20.65 0.26Q20.70-0.90 20.75-2.16L20.75-2.16L23.69-2.16Q23.38 1.68 22.84 5.06Q22.29 8.45 21.62 11L21.62 11ZM31.95-5.94L31.95-5.94Q31.95-4.93 31.31-4.34Q30.66-3.76 29.77-3.76L29.77-3.76Q28.87-3.76 28.24-4.34Q27.61-4.93 27.61-5.94L27.61-5.94Q27.61-6.98 28.24-7.56Q28.87-8.15 29.77-8.15L29.77-8.15Q30.66-8.15 31.31-7.56Q31.95-6.98 31.95-5.94ZM36.63 7.67L37.08 10.44Q36.01 10.94 35.07 11.13Q34.14 11.31 33.35 11.31L33.35 11.31Q32.01 11.31 31.10 10.92Q30.19 10.52 29.64 9.78Q29.10 9.04 28.87 7.98Q28.65 6.91 28.65 5.54L28.65 5.54L28.65 0.70L25.01 0.70L25.01-2.16L32.09-2.16L32.09 5.99Q32.09 7.16 32.53 7.74Q32.96 8.31 33.97 8.31L33.97 8.31Q34.44 8.31 35.12 8.19Q35.79 8.06 36.63 7.67L36.63 7.67ZM44.38 8.40L44.38 8.40Q45.64 8.40 46.32 8.21Q46.99 8.03 46.99 7.47L46.99 7.47Q46.99 7.11 46.78 6.86Q46.57 6.60 46.19 6.42Q45.81 6.24 45.32 6.07Q44.83 5.90 44.30 5.74L44.30 5.74Q43.54 5.51 42.76 5.22Q41.98 4.92 41.33 4.48Q40.69 4.03 40.27 3.34Q39.85 2.66 39.85 1.62L39.85 1.62Q39.85 0.78 40.17 0.04Q40.49-0.70 41.18-1.28Q41.86-1.85 42.93-2.17Q43.99-2.50 45.48-2.50L45.48-2.50Q46.76-2.50 47.87-2.30Q48.98-2.10 49.79-1.74L49.79-1.74L49.26 1.17Q48.78 1.03 47.77 0.71Q46.76 0.39 45.50 0.39L45.50 0.39Q44.19 0.39 43.73 0.71Q43.26 1.03 43.26 1.40L43.26 1.40Q43.26 1.70 43.47 1.94Q43.68 2.18 44.03 2.38Q44.38 2.57 44.85 2.75Q45.31 2.94 45.84 3.10L45.84 3.10Q46.60 3.36 47.41 3.66Q48.22 3.97 48.88 4.43Q49.54 4.90 49.96 5.61Q50.38 6.32 50.38 7.36L50.38 7.36Q50.38 8.17 50.07 8.90Q49.76 9.63 49.05 10.16Q48.33 10.69 47.18 11Q46.04 11.31 44.36 11.31L44.36 11.31Q42.65 11.31 41.44 10.92Q40.24 10.52 39.51 10.22L39.51 10.22L40.04 7.33Q41.02 7.72 42.13 8.06Q43.24 8.40 44.38 8.40ZM61.63 4.53L61.63 4.53Q61.63 2.77 60.93 1.63Q60.23 0.50 58.80 0.50L58.80 0.50Q58.41 0.50 57.96 0.54Q57.52 0.58 57.21 0.61L57.21 0.61L57.21 7.84Q57.54 8.06 58.10 8.20Q58.66 8.34 59.22 8.34L59.22 8.34Q60.46 8.34 61.04 7.35Q61.63 6.35 61.63 4.53ZM65.13 4.42L65.13 4.42Q65.13 5.93 64.80 7.21Q64.46 8.48 63.82 9.39Q63.17 10.30 62.19 10.80Q61.21 11.31 59.92 11.31L59.92 11.31Q58.61 11.31 57.21 10.66L57.21 10.66L57.21 15.62L53.76 15.62L53.76-1.74Q54.72-2.05 56.10-2.24Q57.49-2.44 58.83-2.44L58.83-2.44Q61.88-2.44 63.51-0.59Q65.13 1.26 65.13 4.42Z"/>
    </g>
</svg>