<?xml version="1.0" encoding="UTF-8"?>
<svg height="34" width="106.6" version="1.1" xmlns="http://www.w3.org/2000/svg">
    <rect
        height="32"
        width="104.6"
        rx="14"
        ry="14"
        x="1"
        y="1"
        fill="#9CC134"
        stroke="#3a4913"
        stroke-width="1"
         />
    <g transform="translate(0, 14)">
        <path fill="#3a4913" d="M23.75 11L20.05 11L19.24 7.00L14.62 7.00L13.84 11L10.25 11Q11.48 5.88 12.74 1.66Q14.00-2.55 15.18-6.33L15.18-6.33L18.93-6.33Q20.16-2.52 21.38 1.75Q22.60 6.02 23.75 11L23.75 11ZM16.97-2.97L16.97-2.97Q16.69-1.99 16.45-1.11Q16.22-0.23 16.01 0.63Q15.80 1.48 15.61 2.35Q15.43 3.22 15.26 4.14L15.26 4.14L18.65 4.14Q18.48 3.22 18.32 2.35Q18.15 1.48 17.94 0.63Q17.73-0.23 17.49-1.11Q17.25-1.99 16.97-2.97ZM36.26-2.16L36.26 10.55Q35.31 10.80 33.95 11.06Q32.60 11.31 31 11.31L31 11.31Q29.38 11.31 28.34 10.86Q27.30 10.41 26.70 9.59Q26.10 8.76 25.88 7.64Q25.65 6.52 25.65 5.18L25.65 5.18L25.65-2.16L29.10-2.16L29.10 4.73Q29.10 6.55 29.53 7.43Q29.96 8.31 31.22 8.31L31.22 8.31Q32.01 8.31 32.79 8.17L32.79 8.17L32.79-2.16L36.26-2.16ZM42.42 4L42.42 4Q42.42 5.62 43.01 6.48Q43.60 7.33 44.86 7.33L44.86 7.33Q45.42 7.33 45.91 7.19Q46.40 7.05 46.79 6.83L46.79 6.83L46.79 0.50Q46.40 0.42 46.09 0.39Q45.78 0.36 45.45 0.36L45.45 0.36Q42.42 0.36 42.42 4ZM50.26-1.74L50.26 9.40Q50.26 12.62 48.71 14.16Q47.16 15.70 43.71 15.70L43.71 15.70Q42.48 15.70 41.35 15.45Q40.21 15.20 39.18 14.86L39.18 14.86L39.82 11.95Q40.63 12.26 41.53 12.53Q42.42 12.79 43.77 12.79L43.77 12.79Q44.66 12.79 45.25 12.58Q45.84 12.37 46.18 12.01Q46.51 11.64 46.65 11.15Q46.79 10.66 46.79 10.10L46.79 10.10L46.79 9.57Q46.06 9.85 45.46 9.99Q44.86 10.13 44.16 10.13L44.16 10.13Q41.58 10.13 40.25 8.51Q38.92 6.88 38.92 4L38.92 4Q38.92 0.75 40.72-0.84Q42.51-2.44 45.59-2.44L45.59-2.44Q47.74-2.44 50.26-1.74L50.26-1.74ZM52.87 4.53L52.87 4.53Q52.87 2.80 53.40 1.48Q53.93 0.16 54.80-0.72Q55.67-1.60 56.79-2.05Q57.91-2.50 59.08-2.50L59.08-2.50Q62.00-2.50 63.51-0.77Q65.02 0.95 65.02 4.25L65.02 4.25Q65.02 4.59 65.01 4.95Q64.99 5.32 64.96 5.54L64.96 5.54L56.42 5.54Q56.42 6.83 57.49 7.57Q58.55 8.31 60.23 8.31L60.23 8.31Q61.27 8.31 62.21 8.09Q63.14 7.86 63.79 7.64L63.79 7.64L64.26 10.58Q63.37 10.89 62.36 11.10Q61.35 11.31 60.09 11.31L60.09 11.31Q58.41 11.31 57.08 10.87Q55.75 10.44 54.81 9.59Q53.88 8.73 53.37 7.47Q52.87 6.21 52.87 4.53ZM56.42 3.16L61.69 3.16Q61.69 2.63 61.55 2.14Q61.41 1.65 61.10 1.26Q60.79 0.86 60.32 0.63Q59.84 0.39 59.14 0.39L59.14 0.39Q58.47 0.39 57.98 0.61Q57.49 0.84 57.17 1.23Q56.84 1.62 56.66 2.12Q56.48 2.63 56.42 3.16L56.42 3.16ZM73.03 8.54L73.03 8.54Q73.59 8.54 74.12 8.52Q74.65 8.51 75.04 8.45L75.04 8.45L75.04 5.43Q74.71 5.37 74.23 5.33Q73.76 5.29 73.36 5.29L73.36 5.29Q72.83 5.29 72.33 5.36Q71.82 5.43 71.45 5.60Q71.07 5.76 70.84 6.07Q70.62 6.38 70.62 6.88L70.62 6.88Q70.62 7.78 71.29 8.16Q71.96 8.54 73.03 8.54ZM72.72-2.50L72.72-2.50Q74.34-2.50 75.42-2.12Q76.50-1.74 77.14-1.05Q77.79-0.37 78.07 0.63Q78.35 1.62 78.35 2.85L78.35 2.85L78.35 10.69Q77.59 10.86 76.11 11.08Q74.62 11.31 72.78 11.31L72.78 11.31Q71.52 11.31 70.49 11.08Q69.47 10.86 68.74 10.34Q68.02 9.82 67.62 9.00Q67.23 8.17 67.23 6.97L67.23 6.97Q67.23 5.82 67.68 5.04Q68.13 4.25 68.88 3.78Q69.64 3.30 70.62 3.09Q71.60 2.88 72.66 2.88L72.66 2.88Q74.01 2.88 75.04 3.10L75.04 3.10L75.04 2.68Q75.04 1.70 74.43 1.05Q73.81 0.39 72.30 0.39L72.30 0.39Q71.32 0.39 70.41 0.53Q69.50 0.67 68.94 0.86L68.94 0.86L68.46-1.91Q69.11-2.13 70.28-2.31Q71.46-2.50 72.72-2.50ZM86.38 8.40L86.38 8.40Q87.64 8.40 88.32 8.21Q88.99 8.03 88.99 7.47L88.99 7.47Q88.99 7.11 88.78 6.86Q88.57 6.60 88.19 6.42Q87.81 6.24 87.32 6.07Q86.83 5.90 86.30 5.74L86.30 5.74Q85.54 5.51 84.76 5.22Q83.98 4.92 83.33 4.48Q82.69 4.03 82.27 3.34Q81.85 2.66 81.85 1.62L81.85 1.62Q81.85 0.78 82.17 0.04Q82.49-0.70 83.18-1.28Q83.86-1.85 84.93-2.17Q85.99-2.50 87.48-2.50L87.48-2.50Q88.76-2.50 89.87-2.30Q90.98-2.10 91.79-1.74L91.79-1.74L91.26 1.17Q90.78 1.03 89.77 0.71Q88.76 0.39 87.50 0.39L87.50 0.39Q86.19 0.39 85.73 0.71Q85.26 1.03 85.26 1.40L85.26 1.40Q85.26 1.70 85.47 1.94Q85.68 2.18 86.03 2.38Q86.38 2.57 86.85 2.75Q87.31 2.94 87.84 3.10L87.84 3.10Q88.60 3.36 89.41 3.66Q90.22 3.97 90.88 4.43Q91.54 4.90 91.96 5.61Q92.38 6.32 92.38 7.36L92.38 7.36Q92.38 8.17 92.07 8.90Q91.76 9.63 91.05 10.16Q90.33 10.69 89.18 11Q88.04 11.31 86.36 11.31L86.36 11.31Q84.65 11.31 83.44 10.92Q82.24 10.52 81.51 10.22L81.51 10.22L82.04 7.33Q83.02 7.72 84.13 8.06Q85.24 8.40 86.38 8.40Z"/>
    </g>
</svg>