<?xml version="1.0" encoding="UTF-8"?>
<svg height="34" width="114.6" version="1.1" xmlns="http://www.w3.org/2000/svg"><!--Created by Josélio de S. C. Júnior - 2021 - https://github.com/joseliojunior -->
    <rect
        height="32"
        width="112.6"
        rx="16"
        ry="16"
        x="1" y="1"
        fill="#9CC134"
        stroke="#3a4913"
        stroke-width="1" />
    <g transform="translate(0, 12)">
        <path fill="#3a4913" d="M31.78 12L28.62 12L27.92 8.57L23.96 8.57L23.29 12L20.22 12Q21.27 7.61 22.35 4.00Q23.43 0.38 24.44-2.86L24.44-2.86L27.66-2.86Q28.71 0.41 29.76 4.07Q30.80 7.73 31.78 12L31.78 12ZM25.98 0.02L25.98 0.02Q25.74 0.86 25.53 1.62Q25.33 2.38 25.15 3.11Q24.97 3.84 24.81 4.58Q24.66 5.33 24.51 6.12L24.51 6.12L27.42 6.12Q27.27 5.33 27.13 4.58Q26.98 3.84 26.80 3.11Q26.62 2.38 26.42 1.62Q26.22 0.86 25.98 0.02ZM42.51 0.72L42.51 11.62Q41.70 11.83 40.53 12.05Q39.37 12.26 38 12.26L38 12.26Q36.61 12.26 35.72 11.88Q34.83 11.50 34.32 10.79Q33.80 10.08 33.61 9.12Q33.42 8.16 33.42 7.01L33.42 7.01L33.42 0.72L36.37 0.72L36.37 6.62Q36.37 8.18 36.74 8.94Q37.11 9.70 38.19 9.70L38.19 9.70Q38.86 9.70 39.54 9.58L39.54 9.58L39.54 0.72L42.51 0.72ZM47.79 6L47.79 6Q47.79 7.39 48.30 8.12Q48.80 8.86 49.88 8.86L49.88 8.86Q50.36 8.86 50.78 8.74Q51.20 8.62 51.54 8.42L51.54 8.42L51.54 3Q51.20 2.93 50.94 2.90Q50.67 2.88 50.38 2.88L50.38 2.88Q47.79 2.88 47.79 6ZM54.51 1.08L54.51 10.63Q54.51 13.39 53.18 14.71Q51.85 16.03 48.90 16.03L48.90 16.03Q47.84 16.03 46.87 15.82Q45.90 15.60 45.01 15.31L45.01 15.31L45.56 12.82Q46.26 13.08 47.02 13.31Q47.79 13.54 48.94 13.54L48.94 13.54Q49.71 13.54 50.22 13.36Q50.72 13.18 51.01 12.86Q51.30 12.55 51.42 12.13Q51.54 11.71 51.54 11.23L51.54 11.23L51.54 10.78Q50.91 11.02 50.40 11.14Q49.88 11.26 49.28 11.26L49.28 11.26Q47.07 11.26 45.93 9.86Q44.79 8.47 44.79 6L44.79 6Q44.79 3.22 46.33 1.85Q47.86 0.48 50.50 0.48L50.50 0.48Q52.35 0.48 54.51 1.08L54.51 1.08ZM56.74 6.46L56.74 6.46Q56.74 4.97 57.20 3.84Q57.66 2.71 58.40 1.96Q59.14 1.20 60.10 0.82Q61.06 0.43 62.07 0.43L62.07 0.43Q64.57 0.43 65.86 1.91Q67.16 3.38 67.16 6.22L67.16 6.22Q67.16 6.50 67.15 6.82Q67.14 7.13 67.11 7.32L67.11 7.32L59.79 7.32Q59.79 8.42 60.70 9.06Q61.62 9.70 63.06 9.70L63.06 9.70Q63.94 9.70 64.75 9.50Q65.55 9.31 66.10 9.12L66.10 9.12L66.51 11.64Q65.74 11.90 64.88 12.08Q64.02 12.26 62.94 12.26L62.94 12.26Q61.50 12.26 60.36 11.89Q59.22 11.52 58.41 10.79Q57.61 10.06 57.18 8.98Q56.74 7.90 56.74 6.46ZM59.79 5.28L64.30 5.28Q64.30 4.82 64.18 4.40Q64.06 3.98 63.80 3.65Q63.54 3.31 63.13 3.11Q62.72 2.90 62.12 2.90L62.12 2.90Q61.54 2.90 61.12 3.10Q60.70 3.29 60.43 3.62Q60.15 3.96 60.00 4.39Q59.84 4.82 59.79 5.28L59.79 5.28ZM74.02 9.89L74.02 9.89Q74.50 9.89 74.96 9.88Q75.42 9.86 75.75 9.82L75.75 9.82L75.75 7.22Q75.46 7.18 75.06 7.14Q74.65 7.10 74.31 7.10L74.31 7.10Q73.86 7.10 73.42 7.16Q72.99 7.22 72.67 7.37Q72.34 7.51 72.15 7.78Q71.96 8.04 71.96 8.47L71.96 8.47Q71.96 9.24 72.54 9.56Q73.11 9.89 74.02 9.89ZM73.76 0.43L73.76 0.43Q75.15 0.43 76.08 0.76Q77 1.08 77.55 1.67Q78.10 2.26 78.34 3.11Q78.58 3.96 78.58 5.02L78.58 5.02L78.58 11.74Q77.94 11.88 76.66 12.07Q75.39 12.26 73.81 12.26L73.81 12.26Q72.73 12.26 71.85 12.07Q70.98 11.88 70.35 11.44Q69.73 10.99 69.39 10.28Q69.06 9.58 69.06 8.54L69.06 8.54Q69.06 7.56 69.44 6.89Q69.82 6.22 70.47 5.81Q71.12 5.40 71.96 5.22Q72.80 5.04 73.71 5.04L73.71 5.04Q74.86 5.04 75.75 5.23L75.75 5.23L75.75 4.87Q75.75 4.03 75.22 3.47Q74.70 2.90 73.40 2.90L73.40 2.90Q72.56 2.90 71.78 3.02Q71 3.14 70.52 3.31L70.52 3.31L70.11 0.94Q70.66 0.74 71.67 0.59Q72.68 0.43 73.76 0.43ZM85.47 9.77L85.47 9.77Q86.55 9.77 87.13 9.61Q87.70 9.46 87.70 8.98L87.70 8.98Q87.70 8.66 87.52 8.45Q87.34 8.23 87.02 8.08Q86.70 7.92 86.28 7.78Q85.86 7.63 85.40 7.49L85.40 7.49Q84.75 7.30 84.08 7.04Q83.41 6.79 82.86 6.41Q82.30 6.02 81.94 5.44Q81.58 4.85 81.58 3.96L81.58 3.96Q81.58 3.24 81.86 2.60Q82.14 1.97 82.72 1.48Q83.31 0.98 84.22 0.71Q85.14 0.43 86.41 0.43L86.41 0.43Q87.51 0.43 88.46 0.60Q89.41 0.77 90.10 1.08L90.10 1.08L89.65 3.58Q89.24 3.46 88.38 3.18Q87.51 2.90 86.43 2.90L86.43 2.90Q85.30 2.90 84.91 3.18Q84.51 3.46 84.51 3.77L84.51 3.77Q84.51 4.03 84.69 4.24Q84.87 4.44 85.17 4.61Q85.47 4.78 85.87 4.93Q86.26 5.09 86.72 5.23L86.72 5.23Q87.37 5.45 88.06 5.71Q88.76 5.98 89.32 6.37Q89.89 6.77 90.25 7.38Q90.61 7.99 90.61 8.88L90.61 8.88Q90.61 9.58 90.34 10.20Q90.08 10.82 89.47 11.28Q88.86 11.74 87.87 12Q86.89 12.26 85.45 12.26L85.45 12.26Q83.98 12.26 82.95 11.93Q81.92 11.59 81.30 11.33L81.30 11.33L81.75 8.86Q82.59 9.19 83.54 9.48Q84.49 9.77 85.47 9.77Z"/>
    </g>
</svg>