<?xml version="1.0" encoding="UTF-8"?>
<svg height="34" width="120.7" version="1.1" xmlns="http://www.w3.org/2000/svg">
    <rect
        height="32"
        width="118.7"
        rx="14"
        ry="14"
        x="1"
        y="1"
        fill="#5B2063"
        stroke="#bb56c8"
        stroke-width="1"
         />
    <g transform="translate(0, 14)">
        <path fill="#bb56c8" d="M18.74-3.73L18.74-3.73Q17.50-3.73 16.66-3.28Q15.82-2.83 15.28-2.03Q14.73-1.24 14.49-0.13Q14.26 0.98 14.26 2.32L14.26 2.32Q14.26 5.43 15.24 6.90Q16.22 8.37 18.12 8.37L18.12 8.37Q18.43 8.37 18.79 8.34Q19.16 8.31 19.46 8.26L19.46 8.26L19.46 1.93L22.91 1.93L22.91 10.58Q22.29 10.80 20.99 11.08Q19.69 11.36 17.84 11.36L17.84 11.36Q16.22 11.36 14.91 10.79Q13.61 10.22 12.69 9.08Q11.76 7.95 11.26 6.25Q10.76 4.56 10.76 2.32L10.76 2.32Q10.76 0.11 11.34-1.59Q11.93-3.28 12.94-4.43Q13.95-5.58 15.32-6.15Q16.69-6.72 18.26-6.72L18.26-6.72Q19.27-6.72 20.07-6.57Q20.86-6.42 21.45-6.22Q22.04-6.02 22.42-5.80Q22.80-5.58 22.99-5.46L22.99-5.46L22.10-2.72Q21.48-3.11 20.58-3.42Q19.69-3.73 18.74-3.73ZM29.21 11L25.76 11L25.76-7.84L29.21-8.43L29.21-2.05Q29.63-2.19 30.22-2.31Q30.80-2.44 31.25-2.44L31.25-2.44Q32.71-2.44 33.69-2.01Q34.67-1.57 35.26-0.77Q35.84 0.02 36.10 1.13Q36.35 2.24 36.35 3.58L36.35 3.58L36.35 11L32.90 11L32.90 4.03Q32.90 2.18 32.48 1.37Q32.06 0.56 30.89 0.56L30.89 0.56Q30.41 0.56 29.95 0.67Q29.49 0.78 29.21 0.86L29.21 0.86L29.21 11ZM38.87 4.53L38.87 4.53Q38.87 2.80 39.40 1.48Q39.93 0.16 40.80-0.72Q41.67-1.60 42.79-2.05Q43.91-2.50 45.08-2.50L45.08-2.50Q48.00-2.50 49.51-0.77Q51.02 0.95 51.02 4.25L51.02 4.25Q51.02 4.59 51.01 4.95Q50.99 5.32 50.96 5.54L50.96 5.54L42.42 5.54Q42.42 6.83 43.49 7.57Q44.55 8.31 46.23 8.31L46.23 8.31Q47.27 8.31 48.21 8.09Q49.14 7.86 49.79 7.64L49.79 7.64L50.26 10.58Q49.37 10.89 48.36 11.10Q47.35 11.31 46.09 11.31L46.09 11.31Q44.41 11.31 43.08 10.87Q41.75 10.44 40.81 9.59Q39.88 8.73 39.37 7.47Q38.87 6.21 38.87 4.53ZM42.42 3.16L47.69 3.16Q47.69 2.63 47.55 2.14Q47.41 1.65 47.10 1.26Q46.79 0.86 46.32 0.63Q45.84 0.39 45.14 0.39L45.14 0.39Q44.47 0.39 43.98 0.61Q43.49 0.84 43.17 1.23Q42.84 1.62 42.66 2.12Q42.48 2.63 42.42 3.16L42.42 3.16ZM64.85-1.85L64.24 1.34Q63.90 1.26 63.44 1.17Q62.98 1.09 62.50 1.02Q62.02 0.95 61.58 0.92Q61.13 0.89 60.82 0.89L60.82 0.89Q60.09 0.89 59.39 0.96Q58.69 1.03 57.96 1.23L57.96 1.23L57.96 11L54.49 11L54.49-1.29Q55.86-1.80 57.31-2.10Q58.75-2.41 60.68-2.41L60.68-2.41Q60.96-2.41 61.48-2.38Q62.00-2.36 62.58-2.29Q63.17-2.22 63.77-2.12Q64.38-2.02 64.85-1.85L64.85-1.85ZM71.24-8.43L71.24 3.05Q71.74 2.46 72.26 1.80Q72.78 1.14 73.27 0.44Q73.76-0.26 74.20-0.91Q74.65-1.57 74.99-2.16L74.99-2.16L79.13-2.16Q78.63-1.52 77.98-0.76Q77.34-0.00 76.65 0.78Q75.97 1.56 75.28 2.29Q74.60 3.02 74.04 3.64L74.04 3.64Q74.74 4.31 75.55 5.25Q76.36 6.18 77.14 7.19Q77.93 8.20 78.59 9.21Q79.24 10.22 79.64 11L79.64 11L75.69 11Q75.35 10.30 74.81 9.42Q74.26 8.54 73.64 7.68Q73.03 6.83 72.40 6.06Q71.77 5.29 71.24 4.78L71.24 4.78L71.24 11L67.76 11L67.76-7.84L71.24-8.43ZM87.95-5.94L87.95-5.94Q87.95-4.93 87.31-4.34Q86.66-3.76 85.77-3.76L85.77-3.76Q84.87-3.76 84.24-4.34Q83.61-4.93 83.61-5.94L83.61-5.94Q83.61-6.98 84.24-7.56Q84.87-8.15 85.77-8.15L85.77-8.15Q86.66-8.15 87.31-7.56Q87.95-6.98 87.95-5.94ZM92.63 7.67L93.08 10.44Q92.01 10.94 91.07 11.13Q90.14 11.31 89.35 11.31L89.35 11.31Q88.01 11.31 87.10 10.92Q86.19 10.52 85.64 9.78Q85.10 9.04 84.87 7.98Q84.65 6.91 84.65 5.54L84.65 5.54L84.65 0.70L81.01 0.70L81.01-2.16L88.09-2.16L88.09 5.99Q88.09 7.16 88.53 7.74Q88.96 8.31 89.97 8.31L89.97 8.31Q90.44 8.31 91.12 8.19Q91.79 8.06 92.63 7.67L92.63 7.67ZM95.76 11L95.76-1.74Q96.69-1.99 98.05-2.22Q99.40-2.44 101-2.44L101-2.44Q102.57-2.44 103.60-2.01Q104.64-1.57 105.24-0.77Q105.84 0.02 106.10 1.13Q106.35 2.24 106.35 3.58L106.35 3.58L106.35 11L102.90 11L102.90 4.03Q102.90 2.18 102.48 1.37Q102.06 0.56 100.78 0.56L100.78 0.56Q100.38 0.56 100.01 0.58Q99.63 0.61 99.21 0.67L99.21 0.67L99.21 11L95.76 11Z"/>
    </g>
</svg>