<?xml version="1.0" encoding="UTF-8"?>
<svg height="26" width="82.5" version="1.1" xmlns="http://www.w3.org/2000/svg"><!--Created by Josélio de S. C. Júnior - 2021 - https://github.com/joseliojunior -->
    <defs>
        <pattern id="pattern"
                x="3" y="3" width="6" height="6"
                patternUnits="userSpaceOnUse"
                patternTransform="rotate(45)" >
            <rect height="6" width="6"
                fill="#ffffff"/>
            <line x1="0" y1="0" x2="0" y2="6"
                stroke="#888888"
                stroke-width="2" />
        </pattern>
    </defs>
    <rect
        height="24"
        width="80.5"
        rx="12"
        ry="12"
        x="1" y="1"
        fill="url(#pattern)" />
    <g transform="translate(0, 8)">
        <path fill="#000000" d="M27.82 10L25.70 10Q25.39 9.18 24.95 8.19Q24.51 7.20 24.03 6.21L24.03 6.21Q23.57 7.15 23.10 8.17Q22.64 9.18 22.30 10L22.30 10L20.18 10Q20.34 9.57 20.65 8.96Q20.96 8.35 21.34 7.65Q21.71 6.94 22.13 6.20Q22.54 5.46 22.93 4.77L22.93 4.77L20.34 0.10L22.46 0.10L24.03 3.26L25.68 0.10L27.66 0.10L25.14 4.72Q25.57 5.41 25.98 6.16Q26.40 6.91 26.76 7.62Q27.12 8.34 27.39 8.95Q27.66 9.57 27.82 10L27.82 10ZM31.58-0.02L31.58-0.02Q33.47-0.02 34.51 0.76Q35.55 1.54 35.55 3.30L35.55 3.30Q35.55 5.07 34.50 5.86Q33.46 6.66 31.54 6.66L31.54 6.66L30.83 6.66L30.83 10L28.86 10L28.86 0.22Q29.15 0.16 29.51 0.11Q29.87 0.06 30.24 0.04Q30.61 0.02 30.96 0Q31.31-0.02 31.58-0.02ZM31.81 1.70L31.81 1.70Q31.63 1.70 31.32 1.70Q31.01 1.71 30.83 1.74L30.83 1.74L30.83 4.94L31.63 4.94Q32.58 4.94 33.06 4.57Q33.54 4.19 33.54 3.28L33.54 3.28Q33.54 2.42 33.06 2.06Q32.59 1.70 31.81 1.70ZM43.34 2.66L42.99 4.48Q42.80 4.43 42.54 4.38Q42.27 4.34 42 4.30Q41.73 4.26 41.47 4.24Q41.22 4.22 41.04 4.22L41.04 4.22Q40.62 4.22 40.22 4.26Q39.82 4.30 39.41 4.42L39.41 4.42L39.41 10L37.42 10L37.42 2.98Q38.21 2.69 39.03 2.51Q39.86 2.34 40.96 2.34L40.96 2.34Q41.12 2.34 41.42 2.35Q41.71 2.37 42.05 2.41Q42.38 2.45 42.73 2.50Q43.07 2.56 43.34 2.66L43.34 2.66ZM51.55 6.22L51.55 6.22Q51.55 7.12 51.30 7.85Q51.04 8.58 50.58 9.10Q50.11 9.63 49.46 9.92Q48.82 10.21 48.02 10.21L48.02 10.21Q47.22 10.21 46.57 9.92Q45.92 9.63 45.45 9.10Q44.98 8.58 44.72 7.85Q44.46 7.12 44.46 6.22L44.46 6.22Q44.46 5.34 44.73 4.62Q44.99 3.89 45.46 3.37Q45.94 2.85 46.59 2.57Q47.25 2.29 48.02 2.29L48.02 2.29Q48.80 2.29 49.45 2.57Q50.10 2.85 50.57 3.37Q51.04 3.89 51.30 4.62Q51.55 5.34 51.55 6.22ZM46.46 6.24L46.46 6.24Q46.46 7.25 46.82 7.87Q47.18 8.50 47.98 8.50L47.98 8.50Q48.75 8.50 49.14 7.87Q49.54 7.25 49.54 6.24L49.54 6.24Q49.54 5.23 49.18 4.62Q48.82 4 48.02 4L48.02 4Q47.25 4 46.86 4.62Q46.46 5.23 46.46 6.24ZM52.70 6.24L52.70 6.24Q52.70 5.42 52.96 4.70Q53.22 3.98 53.74 3.45Q54.27 2.91 55.08 2.60Q55.89 2.29 57.01 2.29L57.01 2.29Q57.68 2.29 58.22 2.38Q58.77 2.48 59.33 2.70L59.33 2.70L58.90 4.29Q58.58 4.18 58.18 4.09Q57.79 4 57.18 4L57.18 4Q56.48 4 56.01 4.17Q55.54 4.34 55.25 4.63Q54.96 4.93 54.83 5.34Q54.70 5.76 54.70 6.24L54.70 6.24Q54.70 7.28 55.29 7.87Q55.87 8.46 57.28 8.46L57.28 8.46Q57.74 8.46 58.25 8.40Q58.75 8.34 59.17 8.19L59.17 8.19L59.46 9.81Q59.04 9.97 58.45 10.07Q57.86 10.18 57.06 10.18L57.06 10.18Q55.90 10.18 55.08 9.87Q54.26 9.57 53.73 9.04Q53.20 8.51 52.95 7.79Q52.70 7.07 52.70 6.24Z"/>
    </g>
</svg>