<?xml version="1.0" encoding="UTF-8"?>
<svg height="322" width="138.8" version="1.1" xmlns="http://www.w3.org/2000/svg"><!--Created by Josélio de S. C. Júnior - 2021 - https://github.com/joseliojunior -->
    <rect
        height="32"
        width="136.8"
        rx="16"
        ry="16"
        x="1" y="1"
        fill="#12223c"
        stroke="#3564b1"
        stroke-width="1" />
    <g transform="translate(0, 12)">
        <path fill="#3564b1" stroke="none" d="M31.26 7.51L31.26 7.51Q31.26 8.86 30.80 9.76Q30.34 10.66 29.56 11.20Q28.78 11.74 27.72 11.96Q26.65 12.19 25.42 12.19L25.42 12.19Q24.44 12.19 23.38 12.08Q22.33 11.98 21.30 11.76L21.30 11.76L21.30-2.66Q22.14-2.81 23.14-2.92Q24.15-3.02 25.14-3.02L25.14-3.02Q26.82-3.02 27.87-2.68Q28.93-2.33 29.53-1.76Q30.13-1.20 30.34-0.50Q30.56 0.19 30.56 0.89L30.56 0.89Q30.56 1.94 30.04 2.76Q29.53 3.58 28.66 4.06L28.66 4.06Q30.18 4.61 30.72 5.54Q31.26 6.48 31.26 7.51ZM25.83 5.50L24.25 5.50L24.25 9.53Q24.56 9.58 24.93 9.60Q25.30 9.62 25.66 9.62L25.66 9.62Q26.17 9.62 26.65 9.54Q27.13 9.46 27.50 9.23Q27.87 9 28.11 8.58Q28.35 8.16 28.35 7.51L28.35 7.51Q28.35 6.43 27.67 5.96Q26.98 5.50 25.83 5.50L25.83 5.50ZM24.25 3.05L25.40 3.05Q26.53 3.05 27.10 2.56Q27.68 2.06 27.68 1.20L27.68 1.20Q27.68 0.67 27.51 0.35Q27.34 0.02 27.06-0.16Q26.77-0.34 26.38-0.40Q26-0.46 25.59-0.46L25.59-0.46Q25.26-0.46 24.90-0.43Q24.54-0.41 24.25-0.36L24.25-0.36L24.25 3.05ZM42.82 9.14L43.21 11.52Q43.14 11.57 42.88 11.69Q42.63 11.81 42.22 11.94Q41.82 12.07 41.23 12.17Q40.64 12.26 39.90 12.26L39.90 12.26Q37.86 12.26 36.92 11.05Q35.98 9.84 35.98 7.51L35.98 7.51L35.98-2.06L32.86-2.06L32.86-4.51L38.94-4.51L38.94 7.73Q38.94 8.88 39.39 9.29Q39.85 9.70 40.54 9.70L40.54 9.70Q41.43 9.70 42.03 9.46Q42.63 9.22 42.82 9.14L42.82 9.14ZM54.51 0.72L54.51 11.62Q53.70 11.83 52.53 12.05Q51.37 12.26 50 12.26L50 12.26Q48.61 12.26 47.72 11.88Q46.83 11.50 46.32 10.79Q45.80 10.08 45.61 9.12Q45.42 8.16 45.42 7.01L45.42 7.01L45.42 0.72L48.37 0.72L48.37 6.62Q48.37 8.18 48.74 8.94Q49.11 9.70 50.19 9.70L50.19 9.70Q50.86 9.70 51.54 9.58L51.54 9.58L51.54 0.72L54.51 0.72ZM56.74 6.46L56.74 6.46Q56.74 4.97 57.20 3.84Q57.66 2.71 58.40 1.96Q59.14 1.20 60.10 0.82Q61.06 0.43 62.07 0.43L62.07 0.43Q64.57 0.43 65.86 1.91Q67.16 3.38 67.16 6.22L67.16 6.22Q67.16 6.50 67.15 6.82Q67.14 7.13 67.11 7.32L67.11 7.32L59.79 7.32Q59.79 8.42 60.70 9.06Q61.62 9.70 63.06 9.70L63.06 9.70Q63.94 9.70 64.75 9.50Q65.55 9.31 66.10 9.12L66.10 9.12L66.51 11.64Q65.74 11.90 64.88 12.08Q64.02 12.26 62.94 12.26L62.94 12.26Q61.50 12.26 60.36 11.89Q59.22 11.52 58.41 10.79Q57.61 10.06 57.18 8.98Q56.74 7.90 56.74 6.46ZM59.79 5.28L64.30 5.28Q64.30 4.82 64.18 4.40Q64.06 3.98 63.80 3.65Q63.54 3.31 63.13 3.11Q62.72 2.90 62.12 2.90L62.12 2.90Q61.54 2.90 61.12 3.10Q60.70 3.29 60.43 3.62Q60.15 3.96 60.00 4.39Q59.84 4.82 59.79 5.28L59.79 5.28ZM73.47 9.77L73.47 9.77Q74.55 9.77 75.13 9.61Q75.70 9.46 75.70 8.98L75.70 8.98Q75.70 8.66 75.52 8.45Q75.34 8.23 75.02 8.08Q74.70 7.92 74.28 7.78Q73.86 7.63 73.40 7.49L73.40 7.49Q72.75 7.30 72.08 7.04Q71.41 6.79 70.86 6.41Q70.30 6.02 69.94 5.44Q69.58 4.85 69.58 3.96L69.58 3.96Q69.58 3.24 69.86 2.60Q70.14 1.97 70.72 1.48Q71.31 0.98 72.22 0.71Q73.14 0.43 74.41 0.43L74.41 0.43Q75.51 0.43 76.46 0.60Q77.41 0.77 78.10 1.08L78.10 1.08L77.65 3.58Q77.24 3.46 76.38 3.18Q75.51 2.90 74.43 2.90L74.43 2.90Q73.30 2.90 72.91 3.18Q72.51 3.46 72.51 3.77L72.51 3.77Q72.51 4.03 72.69 4.24Q72.87 4.44 73.17 4.61Q73.47 4.78 73.87 4.93Q74.26 5.09 74.72 5.23L74.72 5.23Q75.37 5.45 76.06 5.71Q76.76 5.98 77.32 6.37Q77.89 6.77 78.25 7.38Q78.61 7.99 78.61 8.88L78.61 8.88Q78.61 9.58 78.34 10.20Q78.08 10.82 77.47 11.28Q76.86 11.74 75.87 12Q74.89 12.26 73.45 12.26L73.45 12.26Q71.98 12.26 70.95 11.93Q69.92 11.59 69.30 11.33L69.30 11.33L69.75 8.86Q70.59 9.19 71.54 9.48Q72.49 9.77 73.47 9.77ZM88.26 6.46L88.26 6.46Q88.26 4.94 87.66 3.97Q87.06 3 85.83 3L85.83 3Q85.50 3 85.11 3.04Q84.73 3.07 84.46 3.10L84.46 3.10L84.46 9.29Q84.75 9.48 85.23 9.60Q85.71 9.72 86.19 9.72L86.19 9.72Q87.25 9.72 87.75 8.87Q88.26 8.02 88.26 6.46ZM91.26 6.36L91.26 6.36Q91.26 7.66 90.97 8.75Q90.68 9.84 90.13 10.62Q89.58 11.40 88.74 11.83Q87.90 12.26 86.79 12.26L86.79 12.26Q85.66 12.26 84.46 11.71L84.46 11.71L84.46 15.96L81.51 15.96L81.51 1.08Q82.33 0.82 83.52 0.65Q84.70 0.48 85.86 0.48L85.86 0.48Q88.47 0.48 89.86 2.06Q91.26 3.65 91.26 6.36ZM92.74 6.46L92.74 6.46Q92.74 4.97 93.20 3.84Q93.66 2.71 94.40 1.96Q95.14 1.20 96.10 0.82Q97.06 0.43 98.07 0.43L98.07 0.43Q100.57 0.43 101.86 1.91Q103.16 3.38 103.16 6.22L103.16 6.22Q103.16 6.50 103.15 6.82Q103.14 7.13 103.11 7.32L103.11 7.32L95.79 7.32Q95.79 8.42 96.70 9.06Q97.62 9.70 99.06 9.70L99.06 9.70Q99.94 9.70 100.75 9.50Q101.55 9.31 102.10 9.12L102.10 9.12L102.51 11.64Q101.74 11.90 100.88 12.08Q100.02 12.26 98.94 12.26L98.94 12.26Q97.50 12.26 96.36 11.89Q95.22 11.52 94.41 10.79Q93.61 10.06 93.18 8.98Q92.74 7.90 92.74 6.46ZM95.79 5.28L100.30 5.28Q100.30 4.82 100.18 4.40Q100.06 3.98 99.80 3.65Q99.54 3.31 99.13 3.11Q98.72 2.90 98.12 2.90L98.12 2.90Q97.54 2.90 97.12 3.10Q96.70 3.29 96.43 3.62Q96.15 3.96 96.00 4.39Q95.84 4.82 95.79 5.28L95.79 5.28ZM105.06 6.36L105.06 6.36Q105.06 5.14 105.44 4.06Q105.82 2.98 106.62 2.17Q107.41 1.37 108.62 0.90Q109.83 0.43 111.51 0.43L111.51 0.43Q112.52 0.43 113.34 0.58Q114.15 0.72 114.99 1.06L114.99 1.06L114.34 3.43Q113.86 3.26 113.28 3.13Q112.69 3 111.78 3L111.78 3Q110.72 3 110.01 3.25Q109.30 3.50 108.87 3.95Q108.44 4.39 108.25 5.02Q108.06 5.64 108.06 6.36L108.06 6.36Q108.06 7.92 108.93 8.81Q109.81 9.70 111.92 9.70L111.92 9.70Q112.62 9.70 113.37 9.60Q114.13 9.50 114.75 9.29L114.75 9.29L115.18 11.71Q114.56 11.95 113.67 12.11Q112.78 12.26 111.58 12.26L111.58 12.26Q109.86 12.26 108.62 11.81Q107.38 11.35 106.59 10.56Q105.80 9.77 105.43 8.69Q105.06 7.61 105.06 6.36Z"/>
    </g>
</svg>