<?xml version="1.0" encoding="UTF-8"?>
<svg height="34" width="134.8" version="1.1" xmlns="http://www.w3.org/2000/svg">
    <rect
        height="32"
        width="132.8"
        rx="14"
        ry="14"
        x="1"
        y="1"
        fill="#12223c"
        stroke="#3564b1"
        stroke-width="1"
         />
    <g transform="translate(0, 14)">
        <path fill="#3564b1" d="M23.13 5.76L23.13 5.76Q23.13 7.33 22.60 8.38Q22.07 9.43 21.16 10.06Q20.25 10.69 19.00 10.96Q17.76 11.22 16.33 11.22L16.33 11.22Q15.18 11.22 13.95 11.10Q12.72 10.97 11.51 10.72L11.51 10.72L11.51-6.11Q12.49-6.28 13.67-6.40Q14.84-6.53 15.99-6.53L15.99-6.53Q17.95-6.53 19.18-6.12Q20.42-5.72 21.12-5.06Q21.82-4.40 22.07-3.59Q22.32-2.78 22.32-1.96L22.32-1.96Q22.32-0.73 21.72 0.22Q21.12 1.17 20.11 1.73L20.11 1.73Q21.87 2.38 22.50 3.47Q23.13 4.56 23.13 5.76ZM16.80 3.41L14.96 3.41L14.96 8.12Q15.32 8.17 15.75 8.20Q16.19 8.23 16.61 8.23L16.61 8.23Q17.20 8.23 17.76 8.13Q18.32 8.03 18.75 7.77Q19.18 7.50 19.46 7.01Q19.74 6.52 19.74 5.76L19.74 5.76Q19.74 4.50 18.95 3.96Q18.15 3.41 16.80 3.41L16.80 3.41ZM14.96 0.56L16.30 0.56Q17.62 0.56 18.29-0.02Q18.96-0.59 18.96-1.60L18.96-1.60Q18.96-2.22 18.76-2.59Q18.57-2.97 18.23-3.18Q17.90-3.39 17.45-3.46Q17-3.53 16.52-3.53L16.52-3.53Q16.13-3.53 15.71-3.50Q15.29-3.48 14.96-3.42L14.96-3.42L14.96 0.56ZM36.63 7.67L37.08 10.44Q36.99 10.50 36.70 10.64Q36.40 10.78 35.93 10.93Q35.45 11.08 34.77 11.20Q34.08 11.31 33.21 11.31L33.21 11.31Q30.83 11.31 29.74 9.89Q28.65 8.48 28.65 5.76L28.65 5.76L28.65-5.41L25.01-5.41L25.01-8.26L32.09-8.26L32.09 6.02Q32.09 7.36 32.62 7.84Q33.16 8.31 33.97 8.31L33.97 8.31Q35.00 8.31 35.70 8.03Q36.40 7.75 36.63 7.67L36.63 7.67ZM50.26-2.16L50.26 10.55Q49.31 10.80 47.95 11.06Q46.60 11.31 45 11.31L45 11.31Q43.38 11.31 42.34 10.86Q41.30 10.41 40.70 9.59Q40.10 8.76 39.88 7.64Q39.65 6.52 39.65 5.18L39.65 5.18L39.65-2.16L43.10-2.16L43.10 4.73Q43.10 6.55 43.53 7.43Q43.96 8.31 45.22 8.31L45.22 8.31Q46.01 8.31 46.79 8.17L46.79 8.17L46.79-2.16L50.26-2.16ZM52.87 4.53L52.87 4.53Q52.87 2.80 53.40 1.48Q53.93 0.16 54.80-0.72Q55.67-1.60 56.79-2.05Q57.91-2.50 59.08-2.50L59.08-2.50Q62.00-2.50 63.51-0.77Q65.02 0.95 65.02 4.25L65.02 4.25Q65.02 4.59 65.01 4.95Q64.99 5.32 64.96 5.54L64.96 5.54L56.42 5.54Q56.42 6.83 57.49 7.57Q58.55 8.31 60.23 8.31L60.23 8.31Q61.27 8.31 62.21 8.09Q63.14 7.86 63.79 7.64L63.79 7.64L64.26 10.58Q63.37 10.89 62.36 11.10Q61.35 11.31 60.09 11.31L60.09 11.31Q58.41 11.31 57.08 10.87Q55.75 10.44 54.81 9.59Q53.88 8.73 53.37 7.47Q52.87 6.21 52.87 4.53ZM56.42 3.16L61.69 3.16Q61.69 2.63 61.55 2.14Q61.41 1.65 61.10 1.26Q60.79 0.86 60.32 0.63Q59.84 0.39 59.14 0.39L59.14 0.39Q58.47 0.39 57.98 0.61Q57.49 0.84 57.17 1.23Q56.84 1.62 56.66 2.12Q56.48 2.63 56.42 3.16L56.42 3.16ZM72.38 8.40L72.38 8.40Q73.64 8.40 74.32 8.21Q74.99 8.03 74.99 7.47L74.99 7.47Q74.99 7.11 74.78 6.86Q74.57 6.60 74.19 6.42Q73.81 6.24 73.32 6.07Q72.83 5.90 72.30 5.74L72.30 5.74Q71.54 5.51 70.76 5.22Q69.98 4.92 69.33 4.48Q68.69 4.03 68.27 3.34Q67.85 2.66 67.85 1.62L67.85 1.62Q67.85 0.78 68.17 0.04Q68.49-0.70 69.18-1.28Q69.86-1.85 70.93-2.17Q71.99-2.50 73.48-2.50L73.48-2.50Q74.76-2.50 75.87-2.30Q76.98-2.10 77.79-1.74L77.79-1.74L77.26 1.17Q76.78 1.03 75.77 0.71Q74.76 0.39 73.50 0.39L73.50 0.39Q72.19 0.39 71.73 0.71Q71.26 1.03 71.26 1.40L71.26 1.40Q71.26 1.70 71.47 1.94Q71.68 2.18 72.03 2.38Q72.38 2.57 72.85 2.75Q73.31 2.94 73.84 3.10L73.84 3.10Q74.60 3.36 75.41 3.66Q76.22 3.97 76.88 4.43Q77.54 4.90 77.96 5.61Q78.38 6.32 78.38 7.36L78.38 7.36Q78.38 8.17 78.07 8.90Q77.76 9.63 77.05 10.16Q76.33 10.69 75.18 11Q74.04 11.31 72.36 11.31L72.36 11.31Q70.65 11.31 69.44 10.92Q68.24 10.52 67.51 10.22L67.51 10.22L68.04 7.33Q69.02 7.72 70.13 8.06Q71.24 8.40 72.38 8.40ZM89.63 4.53L89.63 4.53Q89.63 2.77 88.93 1.63Q88.23 0.50 86.80 0.50L86.80 0.50Q86.41 0.50 85.96 0.54Q85.52 0.58 85.21 0.61L85.21 0.61L85.21 7.84Q85.54 8.06 86.10 8.20Q86.66 8.34 87.22 8.34L87.22 8.34Q88.46 8.34 89.04 7.35Q89.63 6.35 89.63 4.53ZM93.13 4.42L93.13 4.42Q93.13 5.93 92.80 7.21Q92.46 8.48 91.82 9.39Q91.17 10.30 90.19 10.80Q89.21 11.31 87.92 11.31L87.92 11.31Q86.61 11.31 85.21 10.66L85.21 10.66L85.21 15.62L81.76 15.62L81.76-1.74Q82.72-2.05 84.10-2.24Q85.49-2.44 86.83-2.44L86.83-2.44Q89.88-2.44 91.51-0.59Q93.13 1.26 93.13 4.42ZM94.87 4.53L94.87 4.53Q94.87 2.80 95.40 1.48Q95.93 0.16 96.80-0.72Q97.67-1.60 98.79-2.05Q99.91-2.50 101.08-2.50L101.08-2.50Q104.00-2.50 105.51-0.77Q107.02 0.95 107.02 4.25L107.02 4.25Q107.02 4.59 107.01 4.95Q106.99 5.32 106.96 5.54L106.96 5.54L98.42 5.54Q98.42 6.83 99.49 7.57Q100.55 8.31 102.23 8.31L102.23 8.31Q103.27 8.31 104.21 8.09Q105.14 7.86 105.79 7.64L105.79 7.64L106.26 10.58Q105.37 10.89 104.36 11.10Q103.35 11.31 102.09 11.31L102.09 11.31Q100.41 11.31 99.08 10.87Q97.75 10.44 96.81 9.59Q95.88 8.73 95.37 7.47Q94.87 6.21 94.87 4.53ZM98.42 3.16L103.69 3.16Q103.69 2.63 103.55 2.14Q103.41 1.65 103.10 1.26Q102.79 0.86 102.32 0.63Q101.84 0.39 101.14 0.39L101.14 0.39Q100.47 0.39 99.98 0.61Q99.49 0.84 99.17 1.23Q98.84 1.62 98.66 2.12Q98.48 2.63 98.42 3.16L98.42 3.16ZM109.23 4.42L109.23 4.42Q109.23 2.99 109.68 1.73Q110.13 0.47 111.05-0.47Q111.98-1.40 113.39-1.95Q114.80-2.50 116.76-2.50L116.76-2.50Q117.94-2.50 118.89-2.33Q119.84-2.16 120.82-1.77L120.82-1.77L120.07 1.00Q119.51 0.81 118.82 0.65Q118.14 0.50 117.07 0.50L117.07 0.50Q115.84 0.50 115.01 0.79Q114.19 1.09 113.68 1.61Q113.18 2.12 112.96 2.85Q112.73 3.58 112.73 4.42L112.73 4.42Q112.73 6.24 113.75 7.28Q114.78 8.31 117.24 8.31L117.24 8.31Q118.05 8.31 118.93 8.20Q119.82 8.09 120.54 7.84L120.54 7.84L121.05 10.66Q120.32 10.94 119.28 11.13Q118.25 11.31 116.85 11.31L116.85 11.31Q114.83 11.31 113.39 10.78Q111.95 10.24 111.02 9.32Q110.10 8.40 109.67 7.14Q109.23 5.88 109.23 4.42Z"/>
    </g>
</svg>