<?xml version="1.0" encoding="UTF-8"?>
<svg height="34" width="187.2" version="1.1" xmlns="http://www.w3.org/2000/svg">
    <rect
        height="32"
        width="185.2"
        rx="1"
        ry="1"
        x="1"
        y="1"
        fill="#1a1a1a"
        stroke="#666666"
        stroke-width="1"
         />
    <g transform="translate(0, 12)">
        <path fill="#666666" d="M27.10 12.31L27.10 12.31Q23.96 12.31 22.30 10.30Q20.65 8.28 20.65 4.56L20.65 4.56Q20.65 2.71 21.15 1.27Q21.66-0.17 22.56-1.16Q23.46-2.16 24.69-2.68Q25.93-3.19 27.39-3.19L27.39-3.19Q28.18-3.19 28.82-3.06Q29.46-2.93 29.94-2.76Q30.42-2.59 30.74-2.40Q31.06-2.21 31.23-2.11L31.23-2.11L30.46 0.24Q29.91-0.12 29.13-0.37Q28.35-0.62 27.34-0.62L27.34-0.62Q26.65-0.62 25.99-0.37Q25.33-0.12 24.81 0.47Q24.30 1.06 23.97 2.04Q23.65 3.02 23.65 4.49L23.65 4.49Q23.65 7.03 24.52 8.39Q25.40 9.74 27.39 9.74L27.39 9.74Q28.54 9.74 29.30 9.48Q30.06 9.22 30.51 8.95L30.51 8.95L31.26 11.28Q30.63 11.66 29.56 11.99Q28.50 12.31 27.10 12.31ZM37.47 9.77L37.47 9.77Q38.55 9.77 39.13 9.61Q39.70 9.46 39.70 8.98L39.70 8.98Q39.70 8.66 39.52 8.45Q39.34 8.23 39.02 8.08Q38.70 7.92 38.28 7.78Q37.86 7.63 37.40 7.49L37.40 7.49Q36.75 7.30 36.08 7.04Q35.41 6.79 34.86 6.41Q34.30 6.02 33.94 5.44Q33.58 4.85 33.58 3.96L33.58 3.96Q33.58 3.24 33.86 2.60Q34.14 1.97 34.72 1.48Q35.31 0.98 36.22 0.71Q37.14 0.43 38.41 0.43L38.41 0.43Q39.51 0.43 40.46 0.60Q41.41 0.77 42.10 1.08L42.10 1.08L41.65 3.58Q41.24 3.46 40.38 3.18Q39.51 2.90 38.43 2.90L38.43 2.90Q37.30 2.90 36.91 3.18Q36.51 3.46 36.51 3.77L36.51 3.77Q36.51 4.03 36.69 4.24Q36.87 4.44 37.17 4.61Q37.47 4.78 37.87 4.93Q38.26 5.09 38.72 5.23L38.72 5.23Q39.37 5.45 40.06 5.71Q40.76 5.98 41.32 6.37Q41.89 6.77 42.25 7.38Q42.61 7.99 42.61 8.88L42.61 8.88Q42.61 9.58 42.34 10.20Q42.08 10.82 41.47 11.28Q40.86 11.74 39.87 12Q38.89 12.26 37.45 12.26L37.45 12.26Q35.98 12.26 34.95 11.93Q33.92 11.59 33.30 11.33L33.30 11.33L33.75 8.86Q34.59 9.19 35.54 9.48Q36.49 9.77 37.47 9.77ZM55.33 6.34L55.33 6.34Q55.33 7.68 54.94 8.77Q54.56 9.86 53.86 10.66Q53.17 11.45 52.20 11.88Q51.22 12.31 50.02 12.31L50.02 12.31Q48.82 12.31 47.85 11.88Q46.88 11.45 46.17 10.66Q45.46 9.86 45.08 8.77Q44.70 7.68 44.70 6.34L44.70 6.34Q44.70 5.02 45.09 3.92Q45.49 2.83 46.20 2.05Q46.90 1.27 47.89 0.85Q48.87 0.43 50.02 0.43L50.02 0.43Q51.20 0.43 52.17 0.85Q53.14 1.27 53.85 2.05Q54.56 2.83 54.94 3.92Q55.33 5.02 55.33 6.34ZM47.70 6.36L47.70 6.36Q47.70 7.87 48.24 8.81Q48.78 9.74 49.98 9.74L49.98 9.74Q51.13 9.74 51.72 8.81Q52.30 7.87 52.30 6.36L52.30 6.36Q52.30 4.85 51.76 3.92Q51.22 3 50.02 3L50.02 3Q48.87 3 48.28 3.92Q47.70 4.85 47.70 6.36ZM66.51 0.72L66.51 11.62Q65.70 11.83 64.53 12.05Q63.37 12.26 62 12.26L62 12.26Q60.61 12.26 59.72 11.88Q58.83 11.50 58.32 10.79Q57.80 10.08 57.61 9.12Q57.42 8.16 57.42 7.01L57.42 7.01L57.42 0.72L60.37 0.72L60.37 6.62Q60.37 8.18 60.74 8.94Q61.11 9.70 62.19 9.70L62.19 9.70Q62.86 9.70 63.54 9.58L63.54 9.58L63.54 0.72L66.51 0.72ZM69.51 12L69.51 1.08Q70.30 0.86 71.47 0.67Q72.63 0.48 74 0.48L74 0.48Q75.34 0.48 76.23 0.85Q77.12 1.22 77.64 1.91Q78.15 2.59 78.37 3.54Q78.58 4.49 78.58 5.64L78.58 5.64L78.58 12L75.63 12L75.63 6.02Q75.63 4.44 75.27 3.74Q74.91 3.05 73.81 3.05L73.81 3.05Q73.47 3.05 73.15 3.07Q72.82 3.10 72.46 3.14L72.46 3.14L72.46 12L69.51 12ZM83.67 6.29L83.67 6.29Q83.67 7.80 84.24 8.76Q84.80 9.72 86.05 9.72L86.05 9.72Q86.41 9.72 86.72 9.70Q87.03 9.67 87.37 9.62L87.37 9.62L87.37 3.48Q87.03 3.29 86.60 3.16Q86.17 3.02 85.69 3.02L85.69 3.02Q84.63 3.02 84.15 3.86Q83.67 4.70 83.67 6.29ZM90.32-4.66L90.32 11.66Q89.50 11.93 88.33 12.10Q87.15 12.26 86.02 12.26L86.02 12.26Q83.38 12.26 82.03 10.70Q80.67 9.14 80.67 6.43L80.67 6.43Q80.67 3.67 81.81 2.08Q82.95 0.48 85.18 0.48L85.18 0.48Q85.78 0.48 86.36 0.61Q86.94 0.74 87.37 0.98L87.37 0.98L87.37-4.15L90.32-4.66ZM109.57 9.84L109.57 9.84Q110.31 9.84 110.80 9.68Q111.30 9.53 111.58 9.25Q111.87 8.98 111.98 8.63Q112.09 8.28 112.09 7.92L112.09 7.92Q112.09 7.46 111.82 7.10Q111.56 6.74 111.15 6.47Q110.74 6.19 110.24 5.96Q109.74 5.74 109.23 5.54L109.23 5.54Q108.56 5.30 107.84 4.99Q107.12 4.68 106.53 4.20Q105.94 3.72 105.56 3.01Q105.18 2.30 105.18 1.25L105.18 1.25Q105.18-0.84 106.53-2.02Q107.89-3.19 110.26-3.19L110.26-3.19Q111.63-3.19 112.65-2.88Q113.67-2.57 114.37-2.18L114.37-2.18L113.50 0.10Q112.90-0.24 112.17-0.48Q111.44-0.72 110.48-0.72L110.48-0.72Q108.13-0.72 108.13 0.98L108.13 0.98Q108.13 1.42 108.37 1.74Q108.61 2.06 108.98 2.32Q109.35 2.57 109.82 2.76Q110.29 2.95 110.74 3.12L110.74 3.12Q111.44 3.38 112.20 3.71Q112.95 4.03 113.59 4.57Q114.22 5.11 114.63 5.92Q115.04 6.72 115.04 7.94L115.04 7.94Q115.04 10.03 113.68 11.17Q112.33 12.31 109.57 12.31L109.57 12.31Q107.72 12.31 106.62 11.92Q105.51 11.52 104.96 11.18L104.96 11.18L105.82 8.78Q106.47 9.17 107.37 9.50Q108.27 9.84 109.57 9.84ZM117.06 6.36L117.06 6.36Q117.06 5.14 117.44 4.06Q117.82 2.98 118.62 2.17Q119.41 1.37 120.62 0.90Q121.83 0.43 123.51 0.43L123.51 0.43Q124.52 0.43 125.34 0.58Q126.15 0.72 126.99 1.06L126.99 1.06L126.34 3.43Q125.86 3.26 125.28 3.13Q124.69 3 123.78 3L123.78 3Q122.72 3 122.01 3.25Q121.30 3.50 120.87 3.95Q120.44 4.39 120.25 5.02Q120.06 5.64 120.06 6.36L120.06 6.36Q120.06 7.92 120.93 8.81Q121.81 9.70 123.92 9.70L123.92 9.70Q124.62 9.70 125.37 9.60Q126.13 9.50 126.75 9.29L126.75 9.29L127.18 11.71Q126.56 11.95 125.67 12.11Q124.78 12.26 123.58 12.26L123.58 12.26Q121.86 12.26 120.62 11.81Q119.38 11.35 118.59 10.56Q117.80 9.77 117.43 8.69Q117.06 7.61 117.06 6.36ZM139.33 6.34L139.33 6.34Q139.33 7.68 138.94 8.77Q138.56 9.86 137.86 10.66Q137.17 11.45 136.20 11.88Q135.22 12.31 134.02 12.31L134.02 12.31Q132.82 12.31 131.85 11.88Q130.88 11.45 130.17 10.66Q129.46 9.86 129.08 8.77Q128.70 7.68 128.70 6.34L128.70 6.34Q128.70 5.02 129.09 3.92Q129.49 2.83 130.20 2.05Q130.90 1.27 131.89 0.85Q132.87 0.43 134.02 0.43L134.02 0.43Q135.20 0.43 136.17 0.85Q137.14 1.27 137.85 2.05Q138.56 2.83 138.94 3.92Q139.33 5.02 139.33 6.34ZM131.70 6.36L131.70 6.36Q131.70 7.87 132.24 8.81Q132.78 9.74 133.98 9.74L133.98 9.74Q135.13 9.74 135.72 8.81Q136.30 7.87 136.30 6.36L136.30 6.36Q136.30 4.85 135.76 3.92Q135.22 3 134.02 3L134.02 3Q132.87 3 132.28 3.92Q131.70 4.85 131.70 6.36ZM151.02 0.98L150.49 3.72Q150.20 3.65 149.80 3.58Q149.41 3.50 149 3.44Q148.59 3.38 148.21 3.36Q147.82 3.34 147.56 3.34L147.56 3.34Q146.94 3.34 146.34 3.40Q145.74 3.46 145.11 3.62L145.11 3.62L145.11 12L142.14 12L142.14 1.46Q143.31 1.03 144.55 0.77Q145.78 0.50 147.44 0.50L147.44 0.50Q147.68 0.50 148.12 0.53Q148.57 0.55 149.07 0.61Q149.58 0.67 150.09 0.76Q150.61 0.84 151.02 0.98L151.02 0.98ZM152.74 6.46L152.74 6.46Q152.74 4.97 153.20 3.84Q153.66 2.71 154.40 1.96Q155.14 1.20 156.10 0.82Q157.06 0.43 158.07 0.43L158.07 0.43Q160.57 0.43 161.86 1.91Q163.16 3.38 163.16 6.22L163.16 6.22Q163.16 6.50 163.15 6.82Q163.14 7.13 163.11 7.32L163.11 7.32L155.79 7.32Q155.79 8.42 156.70 9.06Q157.62 9.70 159.06 9.70L159.06 9.70Q159.94 9.70 160.75 9.50Q161.55 9.31 162.10 9.12L162.10 9.12L162.51 11.64Q161.74 11.90 160.88 12.08Q160.02 12.26 158.94 12.26L158.94 12.26Q157.50 12.26 156.36 11.89Q155.22 11.52 154.41 10.79Q153.61 10.06 153.18 8.98Q152.74 7.90 152.74 6.46ZM155.79 5.28L160.30 5.28Q160.30 4.82 160.18 4.40Q160.06 3.98 159.80 3.65Q159.54 3.31 159.13 3.11Q158.72 2.90 158.12 2.90L158.12 2.90Q157.54 2.90 157.12 3.10Q156.70 3.29 156.43 3.62Q156.15 3.96 156.00 4.39Q155.84 4.82 155.79 5.28L155.79 5.28Z"/>
    </g>
</svg>