<?xml version="1.0" encoding="UTF-8"?>
<svg height="26" width="139.2" version="1.1" xmlns="http://www.w3.org/2000/svg"><!--Created by Josélio de S. C. Júnior - 2021 - https://github.com/joseliojunior -->
    <rect
        height="24"
        width="137.2"
        rx="1"
        ry="1"
        x="1" y="1"
        fill="#1a1a1a"
        stroke="#666666"
        stroke-width="1" />
    <g transform="translate(0, 8)">
        <path fill="#666666" stroke="none" d="M24.74 10.21L24.74 10.21Q22.64 10.21 21.54 8.86Q20.43 7.52 20.43 5.04L20.43 5.04Q20.43 3.81 20.77 2.85Q21.10 1.89 21.70 1.22Q22.30 0.56 23.13 0.22Q23.95-0.13 24.93-0.13L24.93-0.13Q25.46-0.13 25.88-0.04Q26.30 0.05 26.62 0.16Q26.94 0.27 27.16 0.40Q27.38 0.53 27.49 0.59L27.49 0.59L26.98 2.16Q26.61 1.92 26.09 1.75Q25.57 1.58 24.90 1.58L24.90 1.58Q24.43 1.58 23.99 1.75Q23.55 1.92 23.21 2.31Q22.86 2.70 22.65 3.36Q22.43 4.02 22.43 4.99L22.43 4.99Q22.43 6.69 23.02 7.59Q23.60 8.50 24.93 8.50L24.93 8.50Q25.70 8.50 26.20 8.32Q26.70 8.14 27.01 7.97L27.01 7.97L27.50 9.52Q27.09 9.78 26.38 9.99Q25.66 10.21 24.74 10.21ZM31.65 8.51L31.65 8.51Q32.37 8.51 32.75 8.41Q33.14 8.30 33.14 7.98L33.14 7.98Q33.14 7.78 33.02 7.63Q32.90 7.49 32.68 7.38Q32.46 7.28 32.18 7.18Q31.90 7.09 31.60 6.99L31.60 6.99Q31.17 6.86 30.72 6.70Q30.27 6.53 29.90 6.27Q29.54 6.02 29.30 5.62Q29.06 5.23 29.06 4.64L29.06 4.64Q29.06 4.16 29.24 3.74Q29.42 3.31 29.82 2.98Q30.21 2.66 30.82 2.47Q31.42 2.29 32.27 2.29L32.27 2.29Q33.01 2.29 33.64 2.40Q34.27 2.51 34.74 2.72L34.74 2.72L34.43 4.38Q34.16 4.30 33.58 4.12Q33.01 3.94 32.29 3.94L32.29 3.94Q31.54 3.94 31.27 4.12Q31.01 4.30 31.01 4.51L31.01 4.51Q31.01 4.69 31.13 4.82Q31.25 4.96 31.45 5.07Q31.65 5.18 31.91 5.29Q32.18 5.39 32.48 5.49L32.48 5.49Q32.91 5.63 33.38 5.81Q33.84 5.98 34.22 6.25Q34.59 6.51 34.83 6.92Q35.07 7.33 35.07 7.92L35.07 7.92Q35.07 8.38 34.90 8.80Q34.72 9.22 34.31 9.52Q33.90 9.82 33.25 10Q32.59 10.18 31.63 10.18L31.63 10.18Q30.66 10.18 29.97 9.95Q29.28 9.73 28.86 9.55L28.86 9.55L29.17 7.90Q29.73 8.13 30.36 8.32Q30.99 8.51 31.65 8.51ZM43.55 6.22L43.55 6.22Q43.55 7.12 43.30 7.85Q43.04 8.58 42.58 9.10Q42.11 9.63 41.46 9.92Q40.82 10.21 40.02 10.21L40.02 10.21Q39.22 10.21 38.57 9.92Q37.92 9.63 37.45 9.10Q36.98 8.58 36.72 7.85Q36.46 7.12 36.46 6.22L36.46 6.22Q36.46 5.34 36.73 4.62Q36.99 3.89 37.46 3.37Q37.94 2.85 38.59 2.57Q39.25 2.29 40.02 2.29L40.02 2.29Q40.80 2.29 41.45 2.57Q42.10 2.85 42.57 3.37Q43.04 3.89 43.30 4.62Q43.55 5.34 43.55 6.22ZM38.46 6.24L38.46 6.24Q38.46 7.25 38.82 7.87Q39.18 8.50 39.98 8.50L39.98 8.50Q40.75 8.50 41.14 7.87Q41.54 7.25 41.54 6.24L41.54 6.24Q41.54 5.23 41.18 4.62Q40.82 4 40.02 4L40.02 4Q39.25 4 38.86 4.62Q38.46 5.23 38.46 6.24ZM51.01 2.48L51.01 9.74Q50.46 9.89 49.69 10.03Q48.91 10.18 48 10.18L48 10.18Q47.07 10.18 46.48 9.92Q45.89 9.66 45.54 9.19Q45.20 8.72 45.07 8.08Q44.94 7.44 44.94 6.67L44.94 6.67L44.94 2.48L46.91 2.48L46.91 6.42Q46.91 7.46 47.16 7.96Q47.41 8.46 48.13 8.46L48.13 8.46Q48.58 8.46 49.02 8.38L49.02 8.38L49.02 2.48L51.01 2.48ZM53.01 10L53.01 2.72Q53.54 2.58 54.31 2.45Q55.09 2.32 56 2.32L56 2.32Q56.90 2.32 57.49 2.57Q58.08 2.82 58.42 3.27Q58.77 3.73 58.91 4.36Q59.06 4.99 59.06 5.76L59.06 5.76L59.06 10L57.09 10L57.09 6.02Q57.09 4.96 56.85 4.50Q56.61 4.03 55.87 4.03L55.87 4.03Q55.65 4.03 55.43 4.05Q55.22 4.06 54.98 4.10L54.98 4.10L54.98 10L53.01 10ZM62.45 6.19L62.45 6.19Q62.45 7.20 62.82 7.84Q63.20 8.48 64.03 8.48L64.03 8.48Q64.27 8.48 64.48 8.46Q64.69 8.45 64.91 8.42L64.91 8.42L64.91 4.32Q64.69 4.19 64.40 4.10Q64.11 4.02 63.79 4.02L63.79 4.02Q63.09 4.02 62.77 4.58Q62.45 5.14 62.45 6.19ZM66.88-1.10L66.88 9.78Q66.34 9.95 65.55 10.06Q64.77 10.18 64.02 10.18L64.02 10.18Q62.26 10.18 61.35 9.14Q60.45 8.10 60.45 6.29L60.45 6.29Q60.45 4.45 61.21 3.38Q61.97 2.32 63.46 2.32L63.46 2.32Q63.86 2.32 64.24 2.41Q64.62 2.50 64.91 2.66L64.91 2.66L64.91-0.77L66.88-1.10ZM79.71 8.56L79.71 8.56Q80.21 8.56 80.54 8.46Q80.86 8.35 81.06 8.17Q81.25 7.98 81.32 7.75Q81.39 7.52 81.39 7.28L81.39 7.28Q81.39 6.98 81.22 6.74Q81.04 6.50 80.77 6.31Q80.50 6.13 80.16 5.98Q79.82 5.82 79.49 5.70L79.49 5.70Q79.04 5.54 78.56 5.33Q78.08 5.12 77.69 4.80Q77.30 4.48 77.04 4.01Q76.78 3.54 76.78 2.83L76.78 2.83Q76.78 1.44 77.69 0.66Q78.59-0.13 80.18-0.13L80.18-0.13Q81.09-0.13 81.77 0.08Q82.45 0.29 82.91 0.54L82.91 0.54L82.34 2.06Q81.94 1.84 81.45 1.68Q80.96 1.52 80.32 1.52L80.32 1.52Q78.75 1.52 78.75 2.66L78.75 2.66Q78.75 2.94 78.91 3.16Q79.07 3.38 79.32 3.54Q79.57 3.71 79.88 3.84Q80.19 3.97 80.50 4.08L80.50 4.08Q80.96 4.26 81.46 4.47Q81.97 4.69 82.39 5.05Q82.82 5.41 83.09 5.94Q83.36 6.48 83.36 7.30L83.36 7.30Q83.36 8.69 82.46 9.45Q81.55 10.21 79.71 10.21L79.71 10.21Q78.48 10.21 77.74 9.94Q77.01 9.68 76.64 9.46L76.64 9.46L77.22 7.86Q77.65 8.11 78.25 8.34Q78.85 8.56 79.71 8.56ZM84.70 6.24L84.70 6.24Q84.70 5.42 84.96 4.70Q85.22 3.98 85.74 3.45Q86.27 2.91 87.08 2.60Q87.89 2.29 89.01 2.29L89.01 2.29Q89.68 2.29 90.22 2.38Q90.77 2.48 91.33 2.70L91.33 2.70L90.90 4.29Q90.58 4.18 90.18 4.09Q89.79 4 89.18 4L89.18 4Q88.48 4 88.01 4.17Q87.54 4.34 87.25 4.63Q86.96 4.93 86.83 5.34Q86.70 5.76 86.70 6.24L86.70 6.24Q86.70 7.28 87.29 7.87Q87.87 8.46 89.28 8.46L89.28 8.46Q89.74 8.46 90.25 8.40Q90.75 8.34 91.17 8.19L91.17 8.19L91.46 9.81Q91.04 9.97 90.45 10.07Q89.86 10.18 89.06 10.18L89.06 10.18Q87.90 10.18 87.08 9.87Q86.26 9.57 85.73 9.04Q85.20 8.51 84.95 7.79Q84.70 7.07 84.70 6.24ZM99.55 6.22L99.55 6.22Q99.55 7.12 99.30 7.85Q99.04 8.58 98.58 9.10Q98.11 9.63 97.46 9.92Q96.82 10.21 96.02 10.21L96.02 10.21Q95.22 10.21 94.57 9.92Q93.92 9.63 93.45 9.10Q92.98 8.58 92.72 7.85Q92.46 7.12 92.46 6.22L92.46 6.22Q92.46 5.34 92.73 4.62Q92.99 3.89 93.46 3.37Q93.94 2.85 94.59 2.57Q95.25 2.29 96.02 2.29L96.02 2.29Q96.80 2.29 97.45 2.57Q98.10 2.85 98.57 3.37Q99.04 3.89 99.30 4.62Q99.55 5.34 99.55 6.22ZM94.46 6.24L94.46 6.24Q94.46 7.25 94.82 7.87Q95.18 8.50 95.98 8.50L95.98 8.50Q96.75 8.50 97.14 7.87Q97.54 7.25 97.54 6.24L97.54 6.24Q97.54 5.23 97.18 4.62Q96.82 4 96.02 4L96.02 4Q95.25 4 94.86 4.62Q94.46 5.23 94.46 6.24ZM107.34 2.66L106.99 4.48Q106.80 4.43 106.54 4.38Q106.27 4.34 106 4.30Q105.73 4.26 105.47 4.24Q105.22 4.22 105.04 4.22L105.04 4.22Q104.62 4.22 104.22 4.26Q103.82 4.30 103.41 4.42L103.41 4.42L103.41 10L101.42 10L101.42 2.98Q102.21 2.69 103.03 2.51Q103.86 2.34 104.96 2.34L104.96 2.34Q105.12 2.34 105.42 2.35Q105.71 2.37 106.05 2.41Q106.38 2.45 106.73 2.50Q107.07 2.56 107.34 2.66L107.34 2.66ZM108.50 6.30L108.50 6.30Q108.50 5.31 108.80 4.56Q109.10 3.81 109.60 3.30Q110.10 2.80 110.74 2.54Q111.38 2.29 112.05 2.29L112.05 2.29Q113.71 2.29 114.58 3.27Q115.44 4.26 115.44 6.14L115.44 6.14Q115.44 6.34 115.43 6.54Q115.42 6.75 115.41 6.88L115.41 6.88L110.53 6.88Q110.53 7.62 111.14 8.04Q111.74 8.46 112.70 8.46L112.70 8.46Q113.30 8.46 113.83 8.34Q114.37 8.21 114.74 8.08L114.74 8.08L115.01 9.76Q114.50 9.94 113.92 10.06Q113.34 10.18 112.62 10.18L112.62 10.18Q111.66 10.18 110.90 9.93Q110.14 9.68 109.61 9.19Q109.07 8.70 108.78 7.98Q108.50 7.26 108.50 6.30ZM110.53 5.52L113.54 5.52Q113.54 5.22 113.46 4.94Q113.38 4.66 113.20 4.43Q113.02 4.21 112.75 4.07Q112.48 3.94 112.08 3.94L112.08 3.94Q111.70 3.94 111.42 4.06Q111.14 4.19 110.95 4.42Q110.77 4.64 110.66 4.93Q110.56 5.22 110.53 5.52L110.53 5.52Z"/>
    </g>
</svg>