<?xml version="1.0" encoding="UTF-8"?>
<svg height="34" width="92.5" version="1.1" xmlns="http://www.w3.org/2000/svg">
    <rect
        height="32"
        width="90.5"
        rx="14"
        ry="14"
        x="1"
        y="1"
        fill="#267CB9"
        stroke="#0c283b"
        stroke-width="1"
         />
    <g transform="translate(0, 14)">
        <path fill="#0c283b" d="M22.26-6.33L22.26 5.20Q22.26 6.46 21.94 7.58Q21.62 8.70 20.88 9.54Q20.14 10.38 18.96 10.87Q17.78 11.36 16.10 11.36L16.10 11.36Q14.34 11.36 13.16 10.92Q11.99 10.47 11.18 9.82L11.18 9.82L12.49 7.08Q13.19 7.53 14.05 7.95Q14.90 8.37 15.80 8.37L15.80 8.37Q17.14 8.37 17.97 7.65Q18.79 6.94 18.79 5.01L18.79 5.01L18.79-3.48L13.00-3.48L13.00-6.33L22.26-6.33ZM30.50 8.48L30.50 8.48Q31.36 8.48 31.94 8.30Q32.51 8.12 32.85 7.79Q33.18 7.47 33.31 7.07Q33.44 6.66 33.44 6.24L33.44 6.24Q33.44 5.71 33.13 5.29Q32.82 4.87 32.34 4.55Q31.87 4.22 31.28 3.96Q30.69 3.69 30.10 3.47L30.10 3.47Q29.32 3.19 28.48 2.82Q27.64 2.46 26.95 1.90Q26.27 1.34 25.82 0.51Q25.37-0.31 25.37-1.54L25.37-1.54Q25.37-3.98 26.95-5.35Q28.54-6.72 31.31-6.72L31.31-6.72Q32.90-6.72 34.09-6.36Q35.28-6.00 36.10-5.55L36.10-5.55L35.09-2.89Q34.39-3.28 33.53-3.56Q32.68-3.84 31.56-3.84L31.56-3.84Q28.82-3.84 28.82-1.85L28.82-1.85Q28.82-1.35 29.10-0.97Q29.38-0.59 29.81-0.30Q30.24-0.00 30.79 0.22Q31.34 0.44 31.87 0.64L31.87 0.64Q32.68 0.95 33.56 1.33Q34.44 1.70 35.19 2.33Q35.93 2.96 36.40 3.90Q36.88 4.84 36.88 6.27L36.88 6.27Q36.88 8.70 35.30 10.03Q33.72 11.36 30.50 11.36L30.50 11.36Q28.34 11.36 27.05 10.90Q25.76 10.44 25.12 10.05L25.12 10.05L26.13 7.25Q26.88 7.70 27.93 8.09Q28.98 8.48 30.50 8.48ZM42.26 2.32L42.26 2.32Q42.26 3.58 42.35 4.69Q42.45 5.79 42.75 6.60Q43.04 7.42 43.57 7.89Q44.10 8.37 45 8.37L45 8.37Q45.87 8.37 46.41 7.89Q46.96 7.42 47.25 6.59Q47.55 5.76 47.65 4.67Q47.74 3.58 47.74 2.32L47.74 2.32Q47.74 1.06 47.65-0.05Q47.55-1.15 47.25-1.96Q46.96-2.78 46.43-3.25Q45.90-3.73 45-3.73L45-3.73Q44.10-3.73 43.57-3.25Q43.04-2.78 42.75-1.95Q42.45-1.12 42.35-0.03Q42.26 1.06 42.26 2.32ZM38.76 2.32L38.76 2.32Q38.76-2.16 40.41-4.44Q42.06-6.72 45-6.72L45-6.72Q48.05-6.72 49.65-4.44Q51.24-2.16 51.24 2.32L51.24 2.32Q51.24 6.80 49.62 9.08Q48.00 11.36 45.03 11.36L45.03 11.36Q41.98 11.36 40.37 9.08Q38.76 6.80 38.76 2.32ZM64.71 11L61.94 11Q60.76 8.12 59.38 5.25Q57.99 2.38 56.40-0.51L56.40-0.51L56.40 11L53.29 11L53.29-6.33L56.06-6.33Q56.84-5.10 57.63-3.66Q58.41-2.22 59.15-0.79Q59.90 0.64 60.53 1.98Q61.16 3.33 61.60 4.34L61.60 4.34L61.60-6.33L64.71-6.33L64.71 11ZM74.99 5.90L74.99 5.90Q74.99 5.18 74.75 4.57Q74.51 3.97 73.80 3.54Q73.08 3.10 71.77 2.87Q70.45 2.63 68.32 2.63L68.32 2.63Q68.60 0.28 68.77-1.98Q68.94-4.23 69.02-6.33L69.02-6.33L77.87-6.33L77.87-3.48L71.91-3.48Q71.85-2.58 71.77-1.60Q71.68-0.62 71.63-0.00L71.63-0.00Q75.10 0.22 76.81 1.68Q78.52 3.13 78.52 5.76L78.52 5.76Q78.52 6.97 78.10 7.99Q77.68 9.01 76.81 9.77Q75.94 10.52 74.65 10.94Q73.36 11.36 71.66 11.36L71.66 11.36Q70.98 11.36 70.28 11.28Q69.58 11.20 68.94 11.07Q68.30 10.94 67.78 10.78Q67.26 10.61 66.98 10.47L66.98 10.47L67.68 7.61Q68.30 7.92 69.25 8.17Q70.20 8.42 71.63 8.42L71.63 8.42Q72.64 8.42 73.29 8.20Q73.95 7.98 74.33 7.63Q74.71 7.28 74.85 6.83Q74.99 6.38 74.99 5.90Z"/>
    </g>
</svg>