<?xml version="1.0" encoding="UTF-8"?>
<svg height="34" width="102.5" version="1.1" xmlns="http://www.w3.org/2000/svg"><!--Created by Josélio de S. C. Júnior - 2021 - https://github.com/joseliojunior -->
    <rect
        height="32"
        width="100.5"
        rx="1"
        ry="1"
        x="1" y="1"
        fill="#267CB9"
        stroke="#0c283b"
        stroke-width="1" />
    <g transform="translate(0, 12)">
        <path fill="#0c283b" d="M30.51-2.86L30.51 7.03Q30.51 8.11 30.24 9.07Q29.96 10.03 29.32 10.75Q28.69 11.47 27.68 11.89Q26.67 12.31 25.23 12.31L25.23 12.31Q23.72 12.31 22.71 11.93Q21.70 11.54 21.01 10.99L21.01 10.99L22.14 8.64Q22.74 9.02 23.47 9.38Q24.20 9.74 24.97 9.74L24.97 9.74Q26.12 9.74 26.83 9.13Q27.54 8.52 27.54 6.86L27.54 6.86L27.54-0.41L22.57-0.41L22.57-2.86L30.51-2.86ZM37.57 9.84L37.57 9.84Q38.31 9.84 38.80 9.68Q39.30 9.53 39.58 9.25Q39.87 8.98 39.98 8.63Q40.09 8.28 40.09 7.92L40.09 7.92Q40.09 7.46 39.82 7.10Q39.56 6.74 39.15 6.47Q38.74 6.19 38.24 5.96Q37.74 5.74 37.23 5.54L37.23 5.54Q36.56 5.30 35.84 4.99Q35.12 4.68 34.53 4.20Q33.94 3.72 33.56 3.01Q33.18 2.30 33.18 1.25L33.18 1.25Q33.18-0.84 34.53-2.02Q35.89-3.19 38.26-3.19L38.26-3.19Q39.63-3.19 40.65-2.88Q41.67-2.57 42.37-2.18L42.37-2.18L41.50 0.10Q40.90-0.24 40.17-0.48Q39.44-0.72 38.48-0.72L38.48-0.72Q36.13-0.72 36.13 0.98L36.13 0.98Q36.13 1.42 36.37 1.74Q36.61 2.06 36.98 2.32Q37.35 2.57 37.82 2.76Q38.29 2.95 38.74 3.12L38.74 3.12Q39.44 3.38 40.20 3.71Q40.95 4.03 41.59 4.57Q42.22 5.11 42.63 5.92Q43.04 6.72 43.04 7.94L43.04 7.94Q43.04 10.03 41.68 11.17Q40.33 12.31 37.57 12.31L37.57 12.31Q35.72 12.31 34.62 11.92Q33.51 11.52 32.96 11.18L32.96 11.18L33.82 8.78Q34.47 9.17 35.37 9.50Q36.27 9.84 37.57 9.84ZM47.65 4.56L47.65 4.56Q47.65 5.64 47.73 6.59Q47.82 7.54 48.07 8.23Q48.32 8.93 48.78 9.34Q49.23 9.74 50 9.74L50 9.74Q50.74 9.74 51.21 9.34Q51.68 8.93 51.93 8.22Q52.18 7.51 52.27 6.58Q52.35 5.64 52.35 4.56L52.35 4.56Q52.35 3.48 52.27 2.53Q52.18 1.58 51.93 0.89Q51.68 0.19 51.22-0.22Q50.77-0.62 50-0.62L50-0.62Q49.23-0.62 48.78-0.22Q48.32 0.19 48.07 0.90Q47.82 1.61 47.73 2.54Q47.65 3.48 47.65 4.56ZM44.65 4.56L44.65 4.56Q44.65 0.72 46.06-1.24Q47.48-3.19 50-3.19L50-3.19Q52.62-3.19 53.98-1.24Q55.35 0.72 55.35 4.56L55.35 4.56Q55.35 8.40 53.96 10.36Q52.57 12.31 50.02 12.31L50.02 12.31Q47.41 12.31 46.03 10.36Q44.65 8.40 44.65 4.56ZM66.90 12L64.52 12Q63.51 9.53 62.32 7.07Q61.14 4.61 59.77 2.14L59.77 2.14L59.77 12L57.10 12L57.10-2.86L59.48-2.86Q60.15-1.80 60.82-0.56Q61.50 0.67 62.13 1.90Q62.77 3.12 63.31 4.27Q63.85 5.42 64.23 6.29L64.23 6.29L64.23-2.86L66.90-2.86L66.90 12ZM75.70 7.63L75.70 7.63Q75.70 7.01 75.50 6.49Q75.30 5.98 74.68 5.60Q74.07 5.23 72.94 5.03Q71.82 4.82 69.99 4.82L69.99 4.82Q70.23 2.81 70.38 0.88Q70.52-1.06 70.59-2.86L70.59-2.86L78.18-2.86L78.18-0.41L73.06-0.41Q73.02 0.36 72.94 1.20Q72.87 2.04 72.82 2.57L72.82 2.57Q75.80 2.76 77.26 4.01Q78.73 5.26 78.73 7.51L78.73 7.51Q78.73 8.54 78.37 9.42Q78.01 10.30 77.26 10.94Q76.52 11.59 75.42 11.95Q74.31 12.31 72.85 12.31L72.85 12.31Q72.27 12.31 71.67 12.24Q71.07 12.17 70.52 12.06Q69.97 11.95 69.52 11.81Q69.08 11.66 68.84 11.54L68.84 11.54L69.44 9.10Q69.97 9.36 70.78 9.58Q71.60 9.79 72.82 9.79L72.82 9.79Q73.69 9.79 74.25 9.60Q74.82 9.41 75.14 9.11Q75.46 8.81 75.58 8.42Q75.70 8.04 75.70 7.63Z"/>
    </g>
</svg>