<?xml version="1.0" encoding="UTF-8"?>
<svg height="34" width="138.8" version="1.1" xmlns="http://www.w3.org/2000/svg"><!--Created by Josélio de S. C. Júnior - 2021 - https://github.com/joseliojunior -->
    <defs>
        <pattern id="pattern"
                x="1.5" y="3" width="3" height="6"
                patternUnits="userSpaceOnUse"
                patternTransform="rotate(45)" >
            <rect height="6" width="1" fill="#999999"/>
        </pattern>
    </defs>
    <rect
        height="32"
        width="136.8"
        rx="1"
        ry="1"
        x="1" y="1"
        fill="url(#pattern)"
        stroke="#000000"
        stroke-width="1" />
    <g transform="translate(0, 12)">
        <path fill="#ffffff" stroke="#000000" d="M30.73 12L21.30 12L21.30 9.55L24.54 9.55L24.54-0.41L21.30-0.41L21.30-2.86L30.73-2.86L30.73-0.41L27.51-0.41L27.51 9.55L30.73 9.55L30.73 12ZM33.51 12L33.51 1.08Q34.30 0.86 35.47 0.67Q36.63 0.48 38 0.48L38 0.48Q39.34 0.48 40.23 0.85Q41.12 1.22 41.64 1.91Q42.15 2.59 42.37 3.54Q42.58 4.49 42.58 5.64L42.58 5.64L42.58 12L39.63 12L39.63 6.02Q39.63 4.44 39.27 3.74Q38.91 3.05 37.81 3.05L37.81 3.05Q37.47 3.05 37.15 3.07Q36.82 3.10 36.46 3.14L36.46 3.14L36.46 12L33.51 12ZM50.31 12L47.34 12L47.34 3.17L44.86 3.17L44.86 0.72L47.34 0.72L47.34 0.07Q47.34-1.30 47.73-2.20Q48.13-3.10 48.80-3.64Q49.47-4.18 50.34-4.40Q51.20-4.63 52.11-4.63L52.11-4.63Q53.05-4.63 54.03-4.46Q55.02-4.30 55.81-3.91L55.81-3.91L55.30-1.51Q54.75-1.70 53.92-1.91Q53.10-2.11 52.35-2.11L52.35-2.11Q51.94-2.11 51.57-2.04Q51.20-1.97 50.92-1.73Q50.65-1.49 50.48-1.04Q50.31-0.60 50.31 0.12L50.31 0.12L50.31 0.72L54.94 0.72L54.94 3.17L50.31 3.17L50.31 12ZM67.33 6.34L67.33 6.34Q67.33 7.68 66.94 8.77Q66.56 9.86 65.86 10.66Q65.17 11.45 64.20 11.88Q63.22 12.31 62.02 12.31L62.02 12.31Q60.82 12.31 59.85 11.88Q58.88 11.45 58.17 10.66Q57.46 9.86 57.08 8.77Q56.70 7.68 56.70 6.34L56.70 6.34Q56.70 5.02 57.09 3.92Q57.49 2.83 58.20 2.05Q58.90 1.27 59.89 0.85Q60.87 0.43 62.02 0.43L62.02 0.43Q63.20 0.43 64.17 0.85Q65.14 1.27 65.85 2.05Q66.56 2.83 66.94 3.92Q67.33 5.02 67.33 6.34ZM59.70 6.36L59.70 6.36Q59.70 7.87 60.24 8.81Q60.78 9.74 61.98 9.74L61.98 9.74Q63.13 9.74 63.72 8.81Q64.30 7.87 64.30 6.36L64.30 6.36Q64.30 4.85 63.76 3.92Q63.22 3 62.02 3L62.02 3Q60.87 3 60.28 3.92Q59.70 4.85 59.70 6.36ZM79.02 0.98L78.49 3.72Q78.20 3.65 77.80 3.58Q77.41 3.50 77 3.44Q76.59 3.38 76.21 3.36Q75.82 3.34 75.56 3.34L75.56 3.34Q74.94 3.34 74.34 3.40Q73.74 3.46 73.11 3.62L73.11 3.62L73.11 12L70.14 12L70.14 1.46Q71.31 1.03 72.55 0.77Q73.78 0.50 75.44 0.50L75.44 0.50Q75.68 0.50 76.12 0.53Q76.57 0.55 77.07 0.61Q77.58 0.67 78.09 0.76Q78.61 0.84 79.02 0.98L79.02 0.98ZM88.23 0.60L88.23 0.60Q89.17 0.60 89.77 0.89Q90.37 1.18 90.72 1.75Q91.06 2.33 91.18 3.20Q91.30 4.08 91.30 5.26L91.30 5.26L91.30 12L88.90 12L88.90 5.11Q88.90 4.44 88.82 4.03Q88.74 3.62 88.60 3.41Q88.47 3.19 88.29 3.12Q88.11 3.05 87.92 3.05L87.92 3.05Q87.70 3.05 87.46 3.08Q87.22 3.12 87.03 3.22L87.03 3.22Q87.10 3.67 87.15 4.22Q87.20 4.78 87.20 5.45L87.20 5.45L87.20 7.70L84.80 7.70L84.80 5.11Q84.80 3.96 84.57 3.50Q84.34 3.05 83.84 3.05L83.84 3.05Q83.70 3.05 83.49 3.07Q83.29 3.10 83.10 3.14L83.10 3.14L83.10 12L80.70 12L80.70 1.15Q81.63 0.89 82.54 0.74Q83.46 0.60 84.15 0.60L84.15 0.60Q84.78 0.60 85.27 0.76Q85.76 0.91 86.12 1.27L86.12 1.27Q86.53 1.01 87.08 0.80Q87.63 0.60 88.23 0.60ZM110.17 12L107.17 12Q107.24 10.46 107.67 8.75Q108.10 7.03 108.72 5.35Q109.33 3.67 110.05 2.17Q110.77 0.67 111.42-0.41L111.42-0.41L105.18-0.41L105.18-2.86L114.87-2.86L114.87-0.62Q114.22 0.12 113.46 1.46Q112.69 2.81 112.00 4.51Q111.32 6.22 110.80 8.15Q110.29 10.08 110.17 12L110.17 12Z"/>
    </g>
</svg>