<?xml version="1.0" encoding="UTF-8"?>
<svg height="26" width="147.3" version="1.1" xmlns="http://www.w3.org/2000/svg"><!--Created by Josélio de S. C. Júnior - 2021 - https://github.com/joseliojunior -->
<rect
    height="24"
    width="145.3"
    rx="12"
    ry="12"
    x="1" y="1"
    fill="#3b2e58"
    stroke="#d59dff"
    stroke-width="1" />
<g transform="translate(0, 8)">
    <path fill="#d59dff" d="M25.01 10L22.98 10Q22.59 8.90 22.16 7.50Q21.73 6.11 21.34 4.73Q20.96 3.34 20.66 2.11Q20.35 0.88 20.21 0.10L20.21 0.10L22.29 0.10Q22.38 0.86 22.58 1.88Q22.77 2.90 23 3.98Q23.23 5.06 23.50 6.10Q23.76 7.15 24.02 7.98L24.02 7.98Q24.27 7.17 24.53 6.12Q24.78 5.07 25.01 3.99Q25.23 2.91 25.42 1.89Q25.62 0.86 25.74 0.10L25.74 0.10L27.81 0.10Q27.62 1.06 27.34 2.24Q27.06 3.42 26.70 4.73Q26.34 6.03 25.90 7.38Q25.47 8.74 25.01 10L25.01 10ZM32.54 0.32L32.54 0.32Q32.54 0.90 32.18 1.23Q31.81 1.57 31.30 1.57L31.30 1.57Q30.78 1.57 30.42 1.23Q30.06 0.90 30.06 0.32L30.06 0.32Q30.06-0.27 30.42-0.61Q30.78-0.94 31.30-0.94L31.30-0.94Q31.81-0.94 32.18-0.61Q32.54-0.27 32.54 0.32ZM35.22 8.10L35.47 9.68Q34.86 9.97 34.33 10.07Q33.79 10.18 33.34 10.18L33.34 10.18Q32.58 10.18 32.06 9.95Q31.54 9.73 31.22 9.30Q30.91 8.88 30.78 8.27Q30.66 7.66 30.66 6.88L30.66 6.88L30.66 4.11L28.58 4.11L28.58 2.48L32.62 2.48L32.62 7.14Q32.62 7.81 32.87 8.14Q33.12 8.46 33.70 8.46L33.70 8.46Q33.97 8.46 34.35 8.39Q34.74 8.32 35.22 8.10L35.22 8.10ZM39.65 8.51L39.65 8.51Q40.37 8.51 40.75 8.41Q41.14 8.30 41.14 7.98L41.14 7.98Q41.14 7.78 41.02 7.63Q40.90 7.49 40.68 7.38Q40.46 7.28 40.18 7.18Q39.90 7.09 39.60 6.99L39.60 6.99Q39.17 6.86 38.72 6.70Q38.27 6.53 37.90 6.27Q37.54 6.02 37.30 5.62Q37.06 5.23 37.06 4.64L37.06 4.64Q37.06 4.16 37.24 3.74Q37.42 3.31 37.82 2.98Q38.21 2.66 38.82 2.47Q39.42 2.29 40.27 2.29L40.27 2.29Q41.01 2.29 41.64 2.40Q42.27 2.51 42.74 2.72L42.74 2.72L42.43 4.38Q42.16 4.30 41.58 4.12Q41.01 3.94 40.29 3.94L40.29 3.94Q39.54 3.94 39.27 4.12Q39.01 4.30 39.01 4.51L39.01 4.51Q39.01 4.69 39.13 4.82Q39.25 4.96 39.45 5.07Q39.65 5.18 39.91 5.29Q40.18 5.39 40.48 5.49L40.48 5.49Q40.91 5.63 41.38 5.81Q41.84 5.98 42.22 6.25Q42.59 6.51 42.83 6.92Q43.07 7.33 43.07 7.92L43.07 7.92Q43.07 8.38 42.90 8.80Q42.72 9.22 42.31 9.52Q41.90 9.82 41.25 10Q40.59 10.18 39.63 10.18L39.63 10.18Q38.66 10.18 37.97 9.95Q37.28 9.73 36.86 9.55L36.86 9.55L37.17 7.90Q37.73 8.13 38.36 8.32Q38.99 8.51 39.65 8.51ZM51.01 2.48L51.01 9.74Q50.46 9.89 49.69 10.03Q48.91 10.18 48 10.18L48 10.18Q47.07 10.18 46.48 9.92Q45.89 9.66 45.54 9.19Q45.20 8.72 45.07 8.08Q44.94 7.44 44.94 6.67L44.94 6.67L44.94 2.48L46.91 2.48L46.91 6.42Q46.91 7.46 47.16 7.96Q47.41 8.46 48.13 8.46L48.13 8.46Q48.58 8.46 49.02 8.38L49.02 8.38L49.02 2.48L51.01 2.48ZM56.02 8.59L56.02 8.59Q56.34 8.59 56.64 8.58Q56.94 8.58 57.17 8.54L57.17 8.54L57.17 6.82Q56.98 6.78 56.70 6.76Q56.43 6.74 56.21 6.74L56.21 6.74Q55.90 6.74 55.62 6.78Q55.33 6.82 55.11 6.91Q54.90 7.01 54.77 7.18Q54.64 7.36 54.64 7.65L54.64 7.65Q54.64 8.16 55.02 8.38Q55.41 8.59 56.02 8.59ZM55.84 2.29L55.84 2.29Q56.77 2.29 57.38 2.50Q58 2.72 58.37 3.11Q58.74 3.50 58.90 4.07Q59.06 4.64 59.06 5.34L59.06 5.34L59.06 9.82Q58.62 9.92 57.78 10.05Q56.93 10.18 55.87 10.18L55.87 10.18Q55.15 10.18 54.57 10.05Q53.98 9.92 53.57 9.62Q53.15 9.33 52.93 8.86Q52.70 8.38 52.70 7.70L52.70 7.70Q52.70 7.04 52.96 6.59Q53.22 6.14 53.65 5.87Q54.08 5.60 54.64 5.48Q55.20 5.36 55.81 5.36L55.81 5.36Q56.58 5.36 57.17 5.49L57.17 5.49L57.17 5.25Q57.17 4.69 56.82 4.31Q56.46 3.94 55.60 3.94L55.60 3.94Q55.04 3.94 54.52 4.02Q54 4.10 53.68 4.21L53.68 4.21L53.41 2.62Q53.78 2.50 54.45 2.39Q55.12 2.29 55.84 2.29ZM67.22 8.10L67.47 9.68Q67.42 9.71 67.26 9.79Q67.09 9.87 66.82 9.96Q66.54 10.05 66.15 10.11Q65.76 10.18 65.26 10.18L65.26 10.18Q63.90 10.18 63.28 9.37Q62.66 8.56 62.66 7.01L62.66 7.01L62.66 0.62L60.58 0.62L60.58-1.01L64.62-1.01L64.62 7.15Q64.62 7.92 64.93 8.19Q65.23 8.46 65.70 8.46L65.70 8.46Q66.29 8.46 66.69 8.30Q67.09 8.14 67.22 8.10L67.22 8.10ZM79.71 8.56L79.71 8.56Q80.21 8.56 80.54 8.46Q80.86 8.35 81.06 8.17Q81.25 7.98 81.32 7.75Q81.39 7.52 81.39 7.28L81.39 7.28Q81.39 6.98 81.22 6.74Q81.04 6.50 80.77 6.31Q80.50 6.13 80.16 5.98Q79.82 5.82 79.49 5.70L79.49 5.70Q79.04 5.54 78.56 5.33Q78.08 5.12 77.69 4.80Q77.30 4.48 77.04 4.01Q76.78 3.54 76.78 2.83L76.78 2.83Q76.78 1.44 77.69 0.66Q78.59-0.13 80.18-0.13L80.18-0.13Q81.09-0.13 81.77 0.08Q82.45 0.29 82.91 0.54L82.91 0.54L82.34 2.06Q81.94 1.84 81.45 1.68Q80.96 1.52 80.32 1.52L80.32 1.52Q78.75 1.52 78.75 2.66L78.75 2.66Q78.75 2.94 78.91 3.16Q79.07 3.38 79.32 3.54Q79.57 3.71 79.88 3.84Q80.19 3.97 80.50 4.08L80.50 4.08Q80.96 4.26 81.46 4.47Q81.97 4.69 82.39 5.05Q82.82 5.41 83.09 5.94Q83.36 6.48 83.36 7.30L83.36 7.30Q83.36 8.69 82.46 9.45Q81.55 10.21 79.71 10.21L79.71 10.21Q78.48 10.21 77.74 9.94Q77.01 9.68 76.64 9.46L76.64 9.46L77.22 7.86Q77.65 8.11 78.25 8.34Q78.85 8.56 79.71 8.56ZM86.29 7.20L86.29 4.11L84.58 4.11L84.58 2.48L86.29 2.48L86.29 0.59L88.26 0.27L88.26 2.48L91.41 2.48L91.41 4.11L88.26 4.11L88.26 7.15Q88.26 7.57 88.34 7.82Q88.42 8.08 88.56 8.22Q88.70 8.37 88.91 8.42Q89.12 8.46 89.38 8.46L89.38 8.46Q89.65 8.46 89.88 8.45Q90.11 8.43 90.33 8.39Q90.54 8.35 90.78 8.27Q91.01 8.19 91.28 8.06L91.28 8.06L91.55 9.76Q91.01 9.98 90.38 10.08Q89.74 10.18 89.15 10.18L89.15 10.18Q88.46 10.18 87.94 10.06Q87.41 9.95 87.04 9.63Q86.67 9.31 86.48 8.73Q86.29 8.14 86.29 7.20L86.29 7.20ZM99.01 2.48L99.01 9.74Q98.46 9.89 97.69 10.03Q96.91 10.18 96 10.18L96 10.18Q95.07 10.18 94.48 9.92Q93.89 9.66 93.54 9.19Q93.20 8.72 93.07 8.08Q92.94 7.44 92.94 6.67L92.94 6.67L92.94 2.48L94.91 2.48L94.91 6.42Q94.91 7.46 95.16 7.96Q95.41 8.46 96.13 8.46L96.13 8.46Q96.58 8.46 97.02 8.38L97.02 8.38L97.02 2.48L99.01 2.48ZM102.45 6.19L102.45 6.19Q102.45 7.20 102.82 7.84Q103.20 8.48 104.03 8.48L104.03 8.48Q104.27 8.48 104.48 8.46Q104.69 8.45 104.91 8.42L104.91 8.42L104.91 4.32Q104.69 4.19 104.40 4.10Q104.11 4.02 103.79 4.02L103.79 4.02Q103.09 4.02 102.77 4.58Q102.45 5.14 102.45 6.19ZM106.88-1.10L106.88 9.78Q106.34 9.95 105.55 10.06Q104.77 10.18 104.02 10.18L104.02 10.18Q102.26 10.18 101.35 9.14Q100.45 8.10 100.45 6.29L100.45 6.29Q100.45 4.45 101.21 3.38Q101.97 2.32 103.46 2.32L103.46 2.32Q103.86 2.32 104.24 2.41Q104.62 2.50 104.91 2.66L104.91 2.66L104.91-0.77L106.88-1.10ZM112.54 0.32L112.54 0.32Q112.54 0.90 112.18 1.23Q111.81 1.57 111.30 1.57L111.30 1.57Q110.78 1.57 110.42 1.23Q110.06 0.90 110.06 0.32L110.06 0.32Q110.06-0.27 110.42-0.61Q110.78-0.94 111.30-0.94L111.30-0.94Q111.81-0.94 112.18-0.61Q112.54-0.27 112.54 0.32ZM115.22 8.10L115.47 9.68Q114.86 9.97 114.33 10.07Q113.79 10.18 113.34 10.18L113.34 10.18Q112.58 10.18 112.06 9.95Q111.54 9.73 111.22 9.30Q110.91 8.88 110.78 8.27Q110.66 7.66 110.66 6.88L110.66 6.88L110.66 4.11L108.58 4.11L108.58 2.48L112.62 2.48L112.62 7.14Q112.62 7.81 112.87 8.14Q113.12 8.46 113.70 8.46L113.70 8.46Q113.97 8.46 114.35 8.39Q114.74 8.32 115.22 8.10L115.22 8.10ZM123.55 6.22L123.55 6.22Q123.55 7.12 123.30 7.85Q123.04 8.58 122.58 9.10Q122.11 9.63 121.46 9.92Q120.82 10.21 120.02 10.21L120.02 10.21Q119.22 10.21 118.57 9.92Q117.92 9.63 117.45 9.10Q116.98 8.58 116.72 7.85Q116.46 7.12 116.46 6.22L116.46 6.22Q116.46 5.34 116.73 4.62Q116.99 3.89 117.46 3.37Q117.94 2.85 118.59 2.57Q119.25 2.29 120.02 2.29L120.02 2.29Q120.80 2.29 121.45 2.57Q122.10 2.85 122.57 3.37Q123.04 3.89 123.30 4.62Q123.55 5.34 123.55 6.22ZM118.46 6.24L118.46 6.24Q118.46 7.25 118.82 7.87Q119.18 8.50 119.98 8.50L119.98 8.50Q120.75 8.50 121.14 7.87Q121.54 7.25 121.54 6.24L121.54 6.24Q121.54 5.23 121.18 4.62Q120.82 4 120.02 4L120.02 4Q119.25 4 118.86 4.62Q118.46 5.23 118.46 6.24Z"/>
</g>
</svg>