<?xml version="1.0" encoding="UTF-8"?>
<svg height="26" width="285" version="1.1" xmlns="http://www.w3.org/2000/svg"><!--Created by Josélio de S. C. Júnior - 2021 - https://github.com/joseliojunior -->
    <rect
        height="24"
        width="283"
        rx="12"
        ry="12"
        x="1" y="1"
        fill="#FFA000"
        stroke="#664100"
        stroke-width="1" />
    <g transform="translate(0, 8)">
        <path fill="#664100" d="M24.74 10.21L24.74 10.21Q22.64 10.21 21.54 8.86Q20.43 7.52 20.43 5.04L20.43 5.04Q20.43 3.81 20.77 2.85Q21.10 1.89 21.70 1.22Q22.30 0.56 23.13 0.22Q23.95-0.13 24.93-0.13L24.93-0.13Q25.46-0.13 25.88-0.04Q26.30 0.05 26.62 0.16Q26.94 0.27 27.16 0.40Q27.38 0.53 27.49 0.59L27.49 0.59L26.98 2.16Q26.61 1.92 26.09 1.75Q25.57 1.58 24.90 1.58L24.90 1.58Q24.43 1.58 23.99 1.75Q23.55 1.92 23.21 2.31Q22.86 2.70 22.65 3.36Q22.43 4.02 22.43 4.99L22.43 4.99Q22.43 6.69 23.02 7.59Q23.60 8.50 24.93 8.50L24.93 8.50Q25.70 8.50 26.20 8.32Q26.70 8.14 27.01 7.97L27.01 7.97L27.50 9.52Q27.09 9.78 26.38 9.99Q25.66 10.21 24.74 10.21ZM35.22 8.10L35.47 9.68Q35.42 9.71 35.26 9.79Q35.09 9.87 34.82 9.96Q34.54 10.05 34.15 10.11Q33.76 10.18 33.26 10.18L33.26 10.18Q31.90 10.18 31.28 9.37Q30.66 8.56 30.66 7.01L30.66 7.01L30.66 0.62L28.58 0.62L28.58-1.01L32.62-1.01L32.62 7.15Q32.62 7.92 32.93 8.19Q33.23 8.46 33.70 8.46L33.70 8.46Q34.29 8.46 34.69 8.30Q35.09 8.14 35.22 8.10L35.22 8.10ZM43.55 6.22L43.55 6.22Q43.55 7.12 43.30 7.85Q43.04 8.58 42.58 9.10Q42.11 9.63 41.46 9.92Q40.82 10.21 40.02 10.21L40.02 10.21Q39.22 10.21 38.57 9.92Q37.92 9.63 37.45 9.10Q36.98 8.58 36.72 7.85Q36.46 7.12 36.46 6.22L36.46 6.22Q36.46 5.34 36.73 4.62Q36.99 3.89 37.46 3.37Q37.94 2.85 38.59 2.57Q39.25 2.29 40.02 2.29L40.02 2.29Q40.80 2.29 41.45 2.57Q42.10 2.85 42.57 3.37Q43.04 3.89 43.30 4.62Q43.55 5.34 43.55 6.22ZM38.46 6.24L38.46 6.24Q38.46 7.25 38.82 7.87Q39.18 8.50 39.98 8.50L39.98 8.50Q40.75 8.50 41.14 7.87Q41.54 7.25 41.54 6.24L41.54 6.24Q41.54 5.23 41.18 4.62Q40.82 4 40.02 4L40.02 4Q39.25 4 38.86 4.62Q38.46 5.23 38.46 6.24ZM51.01 2.48L51.01 9.74Q50.46 9.89 49.69 10.03Q48.91 10.18 48 10.18L48 10.18Q47.07 10.18 46.48 9.92Q45.89 9.66 45.54 9.19Q45.20 8.72 45.07 8.08Q44.94 7.44 44.94 6.67L44.94 6.67L44.94 2.48L46.91 2.48L46.91 6.42Q46.91 7.46 47.16 7.96Q47.41 8.46 48.13 8.46L48.13 8.46Q48.58 8.46 49.02 8.38L49.02 8.38L49.02 2.48L51.01 2.48ZM54.45 6.19L54.45 6.19Q54.45 7.20 54.82 7.84Q55.20 8.48 56.03 8.48L56.03 8.48Q56.27 8.48 56.48 8.46Q56.69 8.45 56.91 8.42L56.91 8.42L56.91 4.32Q56.69 4.19 56.40 4.10Q56.11 4.02 55.79 4.02L55.79 4.02Q55.09 4.02 54.77 4.58Q54.45 5.14 54.45 6.19ZM58.88-1.10L58.88 9.78Q58.34 9.95 57.55 10.06Q56.77 10.18 56.02 10.18L56.02 10.18Q54.26 10.18 53.35 9.14Q52.45 8.10 52.45 6.29L52.45 6.29Q52.45 4.45 53.21 3.38Q53.97 2.32 55.46 2.32L55.46 2.32Q55.86 2.32 56.24 2.41Q56.62 2.50 56.91 2.66L56.91 2.66L56.91-0.77L58.88-1.10ZM70.98 10L69.01 10L69.01 0.10L75.07 0.10L75.07 1.73L70.98 1.73L70.98 4.13L74.56 4.13L74.56 5.76L70.98 5.76L70.98 10ZM80.54 0.32L80.54 0.32Q80.54 0.90 80.18 1.23Q79.81 1.57 79.30 1.57L79.30 1.57Q78.78 1.57 78.42 1.23Q78.06 0.90 78.06 0.32L78.06 0.32Q78.06-0.27 78.42-0.61Q78.78-0.94 79.30-0.94L79.30-0.94Q79.81-0.94 80.18-0.61Q80.54-0.27 80.54 0.32ZM83.22 8.10L83.47 9.68Q82.86 9.97 82.33 10.07Q81.79 10.18 81.34 10.18L81.34 10.18Q80.58 10.18 80.06 9.95Q79.54 9.73 79.22 9.30Q78.91 8.88 78.78 8.27Q78.66 7.66 78.66 6.88L78.66 6.88L78.66 4.11L76.58 4.11L76.58 2.48L80.62 2.48L80.62 7.14Q80.62 7.81 80.87 8.14Q81.12 8.46 81.70 8.46L81.70 8.46Q81.97 8.46 82.35 8.39Q82.74 8.32 83.22 8.10L83.22 8.10ZM91.34 2.66L90.99 4.48Q90.80 4.43 90.54 4.38Q90.27 4.34 90 4.30Q89.73 4.26 89.47 4.24Q89.22 4.22 89.04 4.22L89.04 4.22Q88.62 4.22 88.22 4.26Q87.82 4.30 87.41 4.42L87.41 4.42L87.41 10L85.42 10L85.42 2.98Q86.21 2.69 87.03 2.51Q87.86 2.34 88.96 2.34L88.96 2.34Q89.12 2.34 89.42 2.35Q89.71 2.37 90.05 2.41Q90.38 2.45 90.73 2.50Q91.07 2.56 91.34 2.66L91.34 2.66ZM92.50 6.30L92.50 6.30Q92.50 5.31 92.80 4.56Q93.10 3.81 93.60 3.30Q94.10 2.80 94.74 2.54Q95.38 2.29 96.05 2.29L96.05 2.29Q97.71 2.29 98.58 3.27Q99.44 4.26 99.44 6.14L99.44 6.14Q99.44 6.34 99.43 6.54Q99.42 6.75 99.41 6.88L99.41 6.88L94.53 6.88Q94.53 7.62 95.14 8.04Q95.74 8.46 96.70 8.46L96.70 8.46Q97.30 8.46 97.83 8.34Q98.37 8.21 98.74 8.08L98.74 8.08L99.01 9.76Q98.50 9.94 97.92 10.06Q97.34 10.18 96.62 10.18L96.62 10.18Q95.66 10.18 94.90 9.93Q94.14 9.68 93.61 9.19Q93.07 8.70 92.78 7.98Q92.50 7.26 92.50 6.30ZM94.53 5.52L97.54 5.52Q97.54 5.22 97.46 4.94Q97.38 4.66 97.20 4.43Q97.02 4.21 96.75 4.07Q96.48 3.94 96.08 3.94L96.08 3.94Q95.70 3.94 95.42 4.06Q95.14 4.19 94.95 4.42Q94.77 4.64 94.66 4.93Q94.56 5.22 94.53 5.52L94.53 5.52ZM103.65 8.51L103.65 8.51Q104.37 8.51 104.75 8.41Q105.14 8.30 105.14 7.98L105.14 7.98Q105.14 7.78 105.02 7.63Q104.90 7.49 104.68 7.38Q104.46 7.28 104.18 7.18Q103.90 7.09 103.60 6.99L103.60 6.99Q103.17 6.86 102.72 6.70Q102.27 6.53 101.90 6.27Q101.54 6.02 101.30 5.62Q101.06 5.23 101.06 4.64L101.06 4.64Q101.06 4.16 101.24 3.74Q101.42 3.31 101.82 2.98Q102.21 2.66 102.82 2.47Q103.42 2.29 104.27 2.29L104.27 2.29Q105.01 2.29 105.64 2.40Q106.27 2.51 106.74 2.72L106.74 2.72L106.43 4.38Q106.16 4.30 105.58 4.12Q105.01 3.94 104.29 3.94L104.29 3.94Q103.54 3.94 103.27 4.12Q103.01 4.30 103.01 4.51L103.01 4.51Q103.01 4.69 103.13 4.82Q103.25 4.96 103.45 5.07Q103.65 5.18 103.91 5.29Q104.18 5.39 104.48 5.49L104.48 5.49Q104.91 5.63 105.38 5.81Q105.84 5.98 106.22 6.25Q106.59 6.51 106.83 6.92Q107.07 7.33 107.07 7.92L107.07 7.92Q107.07 8.38 106.90 8.80Q106.72 9.22 106.31 9.52Q105.90 9.82 105.25 10Q104.59 10.18 103.63 10.18L103.63 10.18Q102.66 10.18 101.97 9.95Q101.28 9.73 100.86 9.55L100.86 9.55L101.17 7.90Q101.73 8.13 102.36 8.32Q102.99 8.51 103.65 8.51ZM110.29 7.20L110.29 4.11L108.58 4.11L108.58 2.48L110.29 2.48L110.29 0.59L112.26 0.27L112.26 2.48L115.41 2.48L115.41 4.11L112.26 4.11L112.26 7.15Q112.26 7.57 112.34 7.82Q112.42 8.08 112.56 8.22Q112.70 8.37 112.91 8.42Q113.12 8.46 113.38 8.46L113.38 8.46Q113.65 8.46 113.88 8.45Q114.11 8.43 114.33 8.39Q114.54 8.35 114.78 8.27Q115.01 8.19 115.28 8.06L115.28 8.06L115.55 9.76Q115.01 9.98 114.38 10.08Q113.74 10.18 113.15 10.18L113.15 10.18Q112.46 10.18 111.94 10.06Q111.41 9.95 111.04 9.63Q110.67 9.31 110.48 8.73Q110.29 8.14 110.29 7.20L110.29 7.20ZM123.55 6.22L123.55 6.22Q123.55 7.12 123.30 7.85Q123.04 8.58 122.58 9.10Q122.11 9.63 121.46 9.92Q120.82 10.21 120.02 10.21L120.02 10.21Q119.22 10.21 118.57 9.92Q117.92 9.63 117.45 9.10Q116.98 8.58 116.72 7.85Q116.46 7.12 116.46 6.22L116.46 6.22Q116.46 5.34 116.73 4.62Q116.99 3.89 117.46 3.37Q117.94 2.85 118.59 2.57Q119.25 2.29 120.02 2.29L120.02 2.29Q120.80 2.29 121.45 2.57Q122.10 2.85 122.57 3.37Q123.04 3.89 123.30 4.62Q123.55 5.34 123.55 6.22ZM118.46 6.24L118.46 6.24Q118.46 7.25 118.82 7.87Q119.18 8.50 119.98 8.50L119.98 8.50Q120.75 8.50 121.14 7.87Q121.54 7.25 121.54 6.24L121.54 6.24Q121.54 5.23 121.18 4.62Q120.82 4 120.02 4L120.02 4Q119.25 4 118.86 4.62Q118.46 5.23 118.46 6.24ZM131.34 2.66L130.99 4.48Q130.80 4.43 130.54 4.38Q130.27 4.34 130 4.30Q129.73 4.26 129.47 4.24Q129.22 4.22 129.04 4.22L129.04 4.22Q128.62 4.22 128.22 4.26Q127.82 4.30 127.41 4.42L127.41 4.42L127.41 10L125.42 10L125.42 2.98Q126.21 2.69 127.03 2.51Q127.86 2.34 128.96 2.34L128.96 2.34Q129.12 2.34 129.42 2.35Q129.71 2.37 130.05 2.41Q130.38 2.45 130.73 2.50Q131.07 2.56 131.34 2.66L131.34 2.66ZM132.50 6.30L132.50 6.30Q132.50 5.31 132.80 4.56Q133.10 3.81 133.60 3.30Q134.10 2.80 134.74 2.54Q135.38 2.29 136.05 2.29L136.05 2.29Q137.71 2.29 138.58 3.27Q139.44 4.26 139.44 6.14L139.44 6.14Q139.44 6.34 139.43 6.54Q139.42 6.75 139.41 6.88L139.41 6.88L134.53 6.88Q134.53 7.62 135.14 8.04Q135.74 8.46 136.70 8.46L136.70 8.46Q137.30 8.46 137.83 8.34Q138.37 8.21 138.74 8.08L138.74 8.08L139.01 9.76Q138.50 9.94 137.92 10.06Q137.34 10.18 136.62 10.18L136.62 10.18Q135.66 10.18 134.90 9.93Q134.14 9.68 133.61 9.19Q133.07 8.70 132.78 7.98Q132.50 7.26 132.50 6.30ZM134.53 5.52L137.54 5.52Q137.54 5.22 137.46 4.94Q137.38 4.66 137.20 4.43Q137.02 4.21 136.75 4.07Q136.48 3.94 136.08 3.94L136.08 3.94Q135.70 3.94 135.42 4.06Q135.14 4.19 134.95 4.42Q134.77 4.64 134.66 4.93Q134.56 5.22 134.53 5.52L134.53 5.52ZM151.71 8.56L151.71 8.56Q152.21 8.56 152.54 8.46Q152.86 8.35 153.06 8.17Q153.25 7.98 153.32 7.75Q153.39 7.52 153.39 7.28L153.39 7.28Q153.39 6.98 153.22 6.74Q153.04 6.50 152.77 6.31Q152.50 6.13 152.16 5.98Q151.82 5.82 151.49 5.70L151.49 5.70Q151.04 5.54 150.56 5.33Q150.08 5.12 149.69 4.80Q149.30 4.48 149.04 4.01Q148.78 3.54 148.78 2.83L148.78 2.83Q148.78 1.44 149.69 0.66Q150.59-0.13 152.18-0.13L152.18-0.13Q153.09-0.13 153.77 0.08Q154.45 0.29 154.91 0.54L154.91 0.54L154.34 2.06Q153.94 1.84 153.45 1.68Q152.96 1.52 152.32 1.52L152.32 1.52Q150.75 1.52 150.75 2.66L150.75 2.66Q150.75 2.94 150.91 3.16Q151.07 3.38 151.32 3.54Q151.57 3.71 151.88 3.84Q152.19 3.97 152.50 4.08L152.50 4.08Q152.96 4.26 153.46 4.47Q153.97 4.69 154.39 5.05Q154.82 5.41 155.09 5.94Q155.36 6.48 155.36 7.30L155.36 7.30Q155.36 8.69 154.46 9.45Q153.55 10.21 151.71 10.21L151.71 10.21Q150.48 10.21 149.74 9.94Q149.01 9.68 148.64 9.46L148.64 9.46L149.22 7.86Q149.65 8.11 150.25 8.34Q150.85 8.56 151.71 8.56ZM156.50 6.30L156.50 6.30Q156.50 5.31 156.80 4.56Q157.10 3.81 157.60 3.30Q158.10 2.80 158.74 2.54Q159.38 2.29 160.05 2.29L160.05 2.29Q161.71 2.29 162.58 3.27Q163.44 4.26 163.44 6.14L163.44 6.14Q163.44 6.34 163.43 6.54Q163.42 6.75 163.41 6.88L163.41 6.88L158.53 6.88Q158.53 7.62 159.14 8.04Q159.74 8.46 160.70 8.46L160.70 8.46Q161.30 8.46 161.83 8.34Q162.37 8.21 162.74 8.08L162.74 8.08L163.01 9.76Q162.50 9.94 161.92 10.06Q161.34 10.18 160.62 10.18L160.62 10.18Q159.66 10.18 158.90 9.93Q158.14 9.68 157.61 9.19Q157.07 8.70 156.78 7.98Q156.50 7.26 156.50 6.30ZM158.53 5.52L161.54 5.52Q161.54 5.22 161.46 4.94Q161.38 4.66 161.20 4.43Q161.02 4.21 160.75 4.07Q160.48 3.94 160.08 3.94L160.08 3.94Q159.70 3.94 159.42 4.06Q159.14 4.19 158.95 4.42Q158.77 4.64 158.66 4.93Q158.56 5.22 158.53 5.52L158.53 5.52ZM164.70 6.24L164.70 6.24Q164.70 5.42 164.96 4.70Q165.22 3.98 165.74 3.45Q166.27 2.91 167.08 2.60Q167.89 2.29 169.01 2.29L169.01 2.29Q169.68 2.29 170.22 2.38Q170.77 2.48 171.33 2.70L171.33 2.70L170.90 4.29Q170.58 4.18 170.18 4.09Q169.79 4 169.18 4L169.18 4Q168.48 4 168.01 4.17Q167.54 4.34 167.25 4.63Q166.96 4.93 166.83 5.34Q166.70 5.76 166.70 6.24L166.70 6.24Q166.70 7.28 167.29 7.87Q167.87 8.46 169.28 8.46L169.28 8.46Q169.74 8.46 170.25 8.40Q170.75 8.34 171.17 8.19L171.17 8.19L171.46 9.81Q171.04 9.97 170.45 10.07Q169.86 10.18 169.06 10.18L169.06 10.18Q167.90 10.18 167.08 9.87Q166.26 9.57 165.73 9.04Q165.20 8.51 164.95 7.79Q164.70 7.07 164.70 6.24ZM179.01 2.48L179.01 9.74Q178.46 9.89 177.69 10.03Q176.91 10.18 176 10.18L176 10.18Q175.07 10.18 174.48 9.92Q173.89 9.66 173.54 9.19Q173.20 8.72 173.07 8.08Q172.94 7.44 172.94 6.67L172.94 6.67L172.94 2.48L174.91 2.48L174.91 6.42Q174.91 7.46 175.16 7.96Q175.41 8.46 176.13 8.46L176.13 8.46Q176.58 8.46 177.02 8.38L177.02 8.38L177.02 2.48L179.01 2.48ZM187.34 2.66L186.99 4.48Q186.80 4.43 186.54 4.38Q186.27 4.34 186 4.30Q185.73 4.26 185.47 4.24Q185.22 4.22 185.04 4.22L185.04 4.22Q184.62 4.22 184.22 4.26Q183.82 4.30 183.41 4.42L183.41 4.42L183.41 10L181.42 10L181.42 2.98Q182.21 2.69 183.03 2.51Q183.86 2.34 184.96 2.34L184.96 2.34Q185.12 2.34 185.42 2.35Q185.71 2.37 186.05 2.41Q186.38 2.45 186.73 2.50Q187.07 2.56 187.34 2.66L187.34 2.66ZM192.54 0.32L192.54 0.32Q192.54 0.90 192.18 1.23Q191.81 1.57 191.30 1.57L191.30 1.57Q190.78 1.57 190.42 1.23Q190.06 0.90 190.06 0.32L190.06 0.32Q190.06-0.27 190.42-0.61Q190.78-0.94 191.30-0.94L191.30-0.94Q191.81-0.94 192.18-0.61Q192.54-0.27 192.54 0.32ZM195.22 8.10L195.47 9.68Q194.86 9.97 194.33 10.07Q193.79 10.18 193.34 10.18L193.34 10.18Q192.58 10.18 192.06 9.95Q191.54 9.73 191.22 9.30Q190.91 8.88 190.78 8.27Q190.66 7.66 190.66 6.88L190.66 6.88L190.66 4.11L188.58 4.11L188.58 2.48L192.62 2.48L192.62 7.14Q192.62 7.81 192.87 8.14Q193.12 8.46 193.70 8.46L193.70 8.46Q193.97 8.46 194.35 8.39Q194.74 8.32 195.22 8.10L195.22 8.10ZM198.29 7.20L198.29 4.11L196.58 4.11L196.58 2.48L198.29 2.48L198.29 0.59L200.26 0.27L200.26 2.48L203.41 2.48L203.41 4.11L200.26 4.11L200.26 7.15Q200.26 7.57 200.34 7.82Q200.42 8.08 200.56 8.22Q200.70 8.37 200.91 8.42Q201.12 8.46 201.38 8.46L201.38 8.46Q201.65 8.46 201.88 8.45Q202.11 8.43 202.33 8.39Q202.54 8.35 202.78 8.27Q203.01 8.19 203.28 8.06L203.28 8.06L203.55 9.76Q203.01 9.98 202.38 10.08Q201.74 10.18 201.15 10.18L201.15 10.18Q200.46 10.18 199.94 10.06Q199.41 9.95 199.04 9.63Q198.67 9.31 198.48 8.73Q198.29 8.14 198.29 7.20L198.29 7.20ZM209.54 2.48L211.55 2.48Q211.25 3.54 210.97 4.55Q210.69 5.57 210.38 6.54Q210.08 7.50 209.74 8.43Q209.39 9.36 208.99 10.24L208.99 10.24Q208.69 10.88 208.39 11.34Q208.10 11.81 207.74 12.10Q207.38 12.40 206.94 12.54Q206.50 12.69 205.90 12.69L205.90 12.69Q205.41 12.69 205 12.61Q204.59 12.53 204.32 12.40L204.32 12.40L204.69 10.75Q205.01 10.90 205.26 10.95Q205.50 11.01 205.79 11.01L205.79 11.01Q206.37 11.01 206.72 10.62Q207.07 10.24 207.28 9.71L207.28 9.71Q206.58 8.30 205.87 6.49Q205.17 4.67 204.59 2.48L204.59 2.48L206.64 2.48Q206.78 3.07 206.97 3.74Q207.15 4.42 207.36 5.09Q207.57 5.76 207.80 6.41Q208.03 7.06 208.27 7.62L208.27 7.62Q208.43 7.06 208.61 6.41Q208.78 5.76 208.94 5.10Q209.10 4.43 209.26 3.76Q209.41 3.09 209.54 2.48L209.54 2.48ZM223.42-0.02L223.42-0.02Q224.27-0.02 224.96 0.18Q225.65 0.37 226.14 0.77Q226.64 1.17 226.90 1.78Q227.17 2.40 227.17 3.23L227.17 3.23Q227.17 4.10 226.82 4.80Q226.46 5.50 225.65 5.87L225.65 5.87Q225.92 6.29 226.22 6.79Q226.53 7.30 226.82 7.85Q227.10 8.40 227.37 8.95Q227.63 9.50 227.82 10L227.82 10L225.76 10Q225.39 9.04 224.90 8.15Q224.42 7.26 223.86 6.35L223.86 6.35L222.83 6.35L222.83 10L220.86 10L220.86 0.24Q221.15 0.18 221.50 0.12Q221.84 0.06 222.19 0.04Q222.54 0.02 222.86 0Q223.18-0.02 223.42-0.02ZM225.17 3.22L225.17 3.22Q225.17 2.43 224.69 2.06Q224.21 1.70 223.42 1.70L223.42 1.70Q223.31 1.70 223.15 1.70Q222.99 1.71 222.83 1.74L222.83 1.74L222.83 4.72L223.26 4.72Q224.27 4.72 224.72 4.33Q225.17 3.94 225.17 3.22ZM235.01 2.48L235.01 9.74Q234.46 9.89 233.69 10.03Q232.91 10.18 232 10.18L232 10.18Q231.07 10.18 230.48 9.92Q229.89 9.66 229.54 9.19Q229.20 8.72 229.07 8.08Q228.94 7.44 228.94 6.67L228.94 6.67L228.94 2.48L230.91 2.48L230.91 6.42Q230.91 7.46 231.16 7.96Q231.41 8.46 232.13 8.46L232.13 8.46Q232.58 8.46 233.02 8.38L233.02 8.38L233.02 2.48L235.01 2.48ZM243.22 8.10L243.47 9.68Q243.42 9.71 243.26 9.79Q243.09 9.87 242.82 9.96Q242.54 10.05 242.15 10.11Q241.76 10.18 241.26 10.18L241.26 10.18Q239.90 10.18 239.28 9.37Q238.66 8.56 238.66 7.01L238.66 7.01L238.66 0.62L236.58 0.62L236.58-1.01L240.62-1.01L240.62 7.15Q240.62 7.92 240.93 8.19Q241.23 8.46 241.70 8.46L241.70 8.46Q242.29 8.46 242.69 8.30Q243.09 8.14 243.22 8.10L243.22 8.10ZM244.50 6.30L244.50 6.30Q244.50 5.31 244.80 4.56Q245.10 3.81 245.60 3.30Q246.10 2.80 246.74 2.54Q247.38 2.29 248.05 2.29L248.05 2.29Q249.71 2.29 250.58 3.27Q251.44 4.26 251.44 6.14L251.44 6.14Q251.44 6.34 251.43 6.54Q251.42 6.75 251.41 6.88L251.41 6.88L246.53 6.88Q246.53 7.62 247.14 8.04Q247.74 8.46 248.70 8.46L248.70 8.46Q249.30 8.46 249.83 8.34Q250.37 8.21 250.74 8.08L250.74 8.08L251.01 9.76Q250.50 9.94 249.92 10.06Q249.34 10.18 248.62 10.18L248.62 10.18Q247.66 10.18 246.90 9.93Q246.14 9.68 245.61 9.19Q245.07 8.70 244.78 7.98Q244.50 7.26 244.50 6.30ZM246.53 5.52L249.54 5.52Q249.54 5.22 249.46 4.94Q249.38 4.66 249.20 4.43Q249.02 4.21 248.75 4.07Q248.48 3.94 248.08 3.94L248.08 3.94Q247.70 3.94 247.42 4.06Q247.14 4.19 246.95 4.42Q246.77 4.64 246.66 4.93Q246.56 5.22 246.53 5.52L246.53 5.52ZM255.65 8.51L255.65 8.51Q256.37 8.51 256.75 8.41Q257.14 8.30 257.14 7.98L257.14 7.98Q257.14 7.78 257.02 7.63Q256.90 7.49 256.68 7.38Q256.46 7.28 256.18 7.18Q255.90 7.09 255.60 6.99L255.60 6.99Q255.17 6.86 254.72 6.70Q254.27 6.53 253.90 6.27Q253.54 6.02 253.30 5.62Q253.06 5.23 253.06 4.64L253.06 4.64Q253.06 4.16 253.24 3.74Q253.42 3.31 253.82 2.98Q254.21 2.66 254.82 2.47Q255.42 2.29 256.27 2.29L256.27 2.29Q257.01 2.29 257.64 2.40Q258.27 2.51 258.74 2.72L258.74 2.72L258.43 4.38Q258.16 4.30 257.58 4.12Q257.01 3.94 256.29 3.94L256.29 3.94Q255.54 3.94 255.27 4.12Q255.01 4.30 255.01 4.51L255.01 4.51Q255.01 4.69 255.13 4.82Q255.25 4.96 255.45 5.07Q255.65 5.18 255.91 5.29Q256.18 5.39 256.48 5.49L256.48 5.49Q256.91 5.63 257.38 5.81Q257.84 5.98 258.22 6.25Q258.59 6.51 258.83 6.92Q259.07 7.33 259.07 7.92L259.07 7.92Q259.07 8.38 258.90 8.80Q258.72 9.22 258.31 9.52Q257.90 9.82 257.25 10Q256.59 10.18 255.63 10.18L255.63 10.18Q254.66 10.18 253.97 9.95Q253.28 9.73 252.86 9.55L252.86 9.55L253.17 7.90Q253.73 8.13 254.36 8.32Q254.99 8.51 255.65 8.51Z"/>
    </g>
</svg>