<?xml version="1.0" encoding="UTF-8"?>
<svg height="34" width="445" version="1.1" xmlns="http://www.w3.org/2000/svg">
    <rect
        height="32"
        width="443"
        rx="1"
        ry="1"
        x="1"
        y="1"
        fill="#FFA000"
        stroke="#664100"
        stroke-width="1"
         />
    <g transform="translate(0, 14)">
        <path fill="#664100" d="M18.29 11.36L18.29 11.36Q14.62 11.36 12.69 9.01Q10.76 6.66 10.76 2.32L10.76 2.32Q10.76 0.16 11.34-1.52Q11.93-3.20 12.98-4.36Q14.03-5.52 15.47-6.12Q16.92-6.72 18.62-6.72L18.62-6.72Q19.55-6.72 20.29-6.57Q21.03-6.42 21.59-6.22Q22.15-6.02 22.53-5.80Q22.91-5.58 23.10-5.46L23.10-5.46L22.21-2.72Q21.56-3.14 20.65-3.43Q19.74-3.73 18.57-3.73L18.57-3.73Q17.76-3.73 16.99-3.43Q16.22-3.14 15.61-2.45Q15.01-1.77 14.63-0.62Q14.26 0.53 14.26 2.24L14.26 2.24Q14.26 5.20 15.28 6.79Q16.30 8.37 18.62 8.37L18.62 8.37Q19.97 8.37 20.85 8.06Q21.73 7.75 22.26 7.44L22.26 7.44L23.13 10.16Q22.40 10.61 21.16 10.99Q19.91 11.36 18.29 11.36ZM36.63 7.67L37.08 10.44Q36.99 10.50 36.70 10.64Q36.40 10.78 35.93 10.93Q35.45 11.08 34.77 11.20Q34.08 11.31 33.21 11.31L33.21 11.31Q30.83 11.31 29.74 9.89Q28.65 8.48 28.65 5.76L28.65 5.76L28.65-5.41L25.01-5.41L25.01-8.26L32.09-8.26L32.09 6.02Q32.09 7.36 32.62 7.84Q33.16 8.31 33.97 8.31L33.97 8.31Q35.00 8.31 35.70 8.03Q36.40 7.75 36.63 7.67L36.63 7.67ZM51.22 4.39L51.22 4.39Q51.22 5.96 50.77 7.23Q50.32 8.51 49.51 9.43Q48.70 10.36 47.56 10.86Q46.43 11.36 45.03 11.36L45.03 11.36Q43.63 11.36 42.49 10.86Q41.36 10.36 40.53 9.43Q39.71 8.51 39.26 7.23Q38.81 5.96 38.81 4.39L38.81 4.39Q38.81 2.85 39.27 1.58Q39.74 0.30 40.56-0.61Q41.39-1.52 42.54-2.01Q43.68-2.50 45.03-2.50L45.03-2.50Q46.40-2.50 47.53-2.01Q48.67-1.52 49.49-0.61Q50.32 0.30 50.77 1.58Q51.22 2.85 51.22 4.39ZM42.31 4.42L42.31 4.42Q42.31 6.18 42.94 7.28Q43.57 8.37 44.97 8.37L44.97 8.37Q46.32 8.37 47.00 7.28Q47.69 6.18 47.69 4.42L47.69 4.42Q47.69 2.66 47.06 1.58Q46.43 0.50 45.03 0.50L45.03 0.50Q43.68 0.50 43.00 1.58Q42.31 2.66 42.31 4.42ZM64.26-2.16L64.26 10.55Q63.31 10.80 61.95 11.06Q60.60 11.31 59 11.31L59 11.31Q57.38 11.31 56.34 10.86Q55.30 10.41 54.70 9.59Q54.10 8.76 53.88 7.64Q53.65 6.52 53.65 5.18L53.65 5.18L53.65-2.16L57.10-2.16L57.10 4.73Q57.10 6.55 57.53 7.43Q57.96 8.31 59.22 8.31L59.22 8.31Q60.01 8.31 60.79 8.17L60.79 8.17L60.79-2.16L64.26-2.16ZM70.28 4.34L70.28 4.34Q70.28 6.10 70.94 7.22Q71.60 8.34 73.06 8.34L73.06 8.34Q73.48 8.34 73.84 8.31Q74.20 8.28 74.60 8.23L74.60 8.23L74.60 1.06Q74.20 0.84 73.70 0.68Q73.20 0.53 72.64 0.53L72.64 0.53Q71.40 0.53 70.84 1.51Q70.28 2.49 70.28 4.34ZM78.04-8.43L78.04 10.61Q77.09 10.92 75.72 11.11Q74.34 11.31 73.03 11.31L73.03 11.31Q69.95 11.31 68.37 9.49Q66.78 7.67 66.78 4.50L66.78 4.50Q66.78 1.28 68.11-0.58Q69.44-2.44 72.05-2.44L72.05-2.44Q72.75-2.44 73.42-2.29Q74.09-2.13 74.60-1.85L74.60-1.85L74.60-7.84L78.04-8.43ZM99.21 11L95.76 11L95.76-6.33L106.38-6.33L106.38-3.48L99.21-3.48L99.21 0.72L105.48 0.72L105.48 3.58L99.21 3.58L99.21 11ZM115.95-5.94L115.95-5.94Q115.95-4.93 115.31-4.34Q114.66-3.76 113.77-3.76L113.77-3.76Q112.87-3.76 112.24-4.34Q111.61-4.93 111.61-5.94L111.61-5.94Q111.61-6.98 112.24-7.56Q112.87-8.15 113.77-8.15L113.77-8.15Q114.66-8.15 115.31-7.56Q115.95-6.98 115.95-5.94ZM120.63 7.67L121.08 10.44Q120.01 10.94 119.07 11.13Q118.14 11.31 117.35 11.31L117.35 11.31Q116.01 11.31 115.10 10.92Q114.19 10.52 113.64 9.78Q113.10 9.04 112.87 7.98Q112.65 6.91 112.65 5.54L112.65 5.54L112.65 0.70L109.01 0.70L109.01-2.16L116.09-2.16L116.09 5.99Q116.09 7.16 116.53 7.74Q116.96 8.31 117.97 8.31L117.97 8.31Q118.44 8.31 119.12 8.19Q119.79 8.06 120.63 7.67L120.63 7.67ZM134.85-1.85L134.24 1.34Q133.90 1.26 133.44 1.17Q132.98 1.09 132.50 1.02Q132.02 0.95 131.58 0.92Q131.13 0.89 130.82 0.89L130.82 0.89Q130.09 0.89 129.39 0.96Q128.69 1.03 127.96 1.23L127.96 1.23L127.96 11L124.49 11L124.49-1.29Q125.86-1.80 127.31-2.10Q128.75-2.41 130.68-2.41L130.68-2.41Q130.96-2.41 131.48-2.38Q132.00-2.36 132.58-2.29Q133.17-2.22 133.77-2.12Q134.38-2.02 134.85-1.85L134.85-1.85ZM136.87 4.53L136.87 4.53Q136.87 2.80 137.40 1.48Q137.93 0.16 138.80-0.72Q139.67-1.60 140.79-2.05Q141.91-2.50 143.08-2.50L143.08-2.50Q146.00-2.50 147.51-0.77Q149.02 0.95 149.02 4.25L149.02 4.25Q149.02 4.59 149.01 4.95Q148.99 5.32 148.96 5.54L148.96 5.54L140.42 5.54Q140.42 6.83 141.49 7.57Q142.55 8.31 144.23 8.31L144.23 8.31Q145.27 8.31 146.21 8.09Q147.14 7.86 147.79 7.64L147.79 7.64L148.26 10.58Q147.37 10.89 146.36 11.10Q145.35 11.31 144.09 11.31L144.09 11.31Q142.41 11.31 141.08 10.87Q139.75 10.44 138.81 9.59Q137.88 8.73 137.37 7.47Q136.87 6.21 136.87 4.53ZM140.42 3.16L145.69 3.16Q145.69 2.63 145.55 2.14Q145.41 1.65 145.10 1.26Q144.79 0.86 144.32 0.63Q143.84 0.39 143.14 0.39L143.14 0.39Q142.47 0.39 141.98 0.61Q141.49 0.84 141.17 1.23Q140.84 1.62 140.66 2.12Q140.48 2.63 140.42 3.16L140.42 3.16ZM156.38 8.40L156.38 8.40Q157.64 8.40 158.32 8.21Q158.99 8.03 158.99 7.47L158.99 7.47Q158.99 7.11 158.78 6.86Q158.57 6.60 158.19 6.42Q157.81 6.24 157.32 6.07Q156.83 5.90 156.30 5.74L156.30 5.74Q155.54 5.51 154.76 5.22Q153.98 4.92 153.33 4.48Q152.69 4.03 152.27 3.34Q151.85 2.66 151.85 1.62L151.85 1.62Q151.85 0.78 152.17 0.04Q152.49-0.70 153.18-1.28Q153.86-1.85 154.93-2.17Q155.99-2.50 157.48-2.50L157.48-2.50Q158.76-2.50 159.87-2.30Q160.98-2.10 161.79-1.74L161.79-1.74L161.26 1.17Q160.78 1.03 159.77 0.71Q158.76 0.39 157.50 0.39L157.50 0.39Q156.19 0.39 155.73 0.71Q155.26 1.03 155.26 1.40L155.26 1.40Q155.26 1.70 155.47 1.94Q155.68 2.18 156.03 2.38Q156.38 2.57 156.85 2.75Q157.31 2.94 157.84 3.10L157.84 3.10Q158.60 3.36 159.41 3.66Q160.22 3.97 160.88 4.43Q161.54 4.90 161.96 5.61Q162.38 6.32 162.38 7.36L162.38 7.36Q162.38 8.17 162.07 8.90Q161.76 9.63 161.05 10.16Q160.33 10.69 159.18 11Q158.04 11.31 156.36 11.31L156.36 11.31Q154.65 11.31 153.44 10.92Q152.24 10.52 151.51 10.22L151.51 10.22L152.04 7.33Q153.02 7.72 154.13 8.06Q155.24 8.40 156.38 8.40ZM168.00 6.10L168.00 0.70L165.01 0.70L165.01-2.16L168.00-2.16L168.00-5.46L171.45-6.02L171.45-2.16L176.96-2.16L176.96 0.70L171.45 0.70L171.45 6.02Q171.45 6.74 171.59 7.19Q171.73 7.64 171.98 7.89Q172.23 8.14 172.60 8.23Q172.96 8.31 173.41 8.31L173.41 8.31Q173.88 8.31 174.29 8.28Q174.70 8.26 175.07 8.19Q175.45 8.12 175.86 7.98Q176.26 7.84 176.74 7.61L176.74 7.61L177.22 10.58Q176.26 10.97 175.16 11.14Q174.05 11.31 173.02 11.31L173.02 11.31Q171.81 11.31 170.89 11.11Q169.96 10.92 169.32 10.36Q168.68 9.80 168.34 8.77Q168.00 7.75 168.00 6.10L168.00 6.10ZM191.22 4.39L191.22 4.39Q191.22 5.96 190.77 7.23Q190.32 8.51 189.51 9.43Q188.70 10.36 187.56 10.86Q186.43 11.36 185.03 11.36L185.03 11.36Q183.63 11.36 182.49 10.86Q181.36 10.36 180.53 9.43Q179.71 8.51 179.26 7.23Q178.81 5.96 178.81 4.39L178.81 4.39Q178.81 2.85 179.27 1.58Q179.74 0.30 180.56-0.61Q181.39-1.52 182.54-2.01Q183.68-2.50 185.03-2.50L185.03-2.50Q186.40-2.50 187.53-2.01Q188.67-1.52 189.49-0.61Q190.32 0.30 190.77 1.58Q191.22 2.85 191.22 4.39ZM182.31 4.42L182.31 4.42Q182.31 6.18 182.94 7.28Q183.57 8.37 184.97 8.37L184.97 8.37Q186.32 8.37 187.00 7.28Q187.69 6.18 187.69 4.42L187.69 4.42Q187.69 2.66 187.06 1.58Q186.43 0.50 185.03 0.50L185.03 0.50Q183.68 0.50 183.00 1.58Q182.31 2.66 182.31 4.42ZM204.85-1.85L204.24 1.34Q203.90 1.26 203.44 1.17Q202.98 1.09 202.50 1.02Q202.02 0.95 201.58 0.92Q201.13 0.89 200.82 0.89L200.82 0.89Q200.09 0.89 199.39 0.96Q198.69 1.03 197.96 1.23L197.96 1.23L197.96 11L194.49 11L194.49-1.29Q195.86-1.80 197.31-2.10Q198.75-2.41 200.68-2.41L200.68-2.41Q200.96-2.41 201.48-2.38Q202.00-2.36 202.58-2.29Q203.17-2.22 203.77-2.12Q204.38-2.02 204.85-1.85L204.85-1.85ZM206.87 4.53L206.87 4.53Q206.87 2.80 207.40 1.48Q207.93 0.16 208.80-0.72Q209.67-1.60 210.79-2.05Q211.91-2.50 213.08-2.50L213.08-2.50Q216.00-2.50 217.51-0.77Q219.02 0.95 219.02 4.25L219.02 4.25Q219.02 4.59 219.01 4.95Q218.99 5.32 218.96 5.54L218.96 5.54L210.42 5.54Q210.42 6.83 211.49 7.57Q212.55 8.31 214.23 8.31L214.23 8.31Q215.27 8.31 216.21 8.09Q217.14 7.86 217.79 7.64L217.79 7.64L218.26 10.58Q217.37 10.89 216.36 11.10Q215.35 11.31 214.09 11.31L214.09 11.31Q212.41 11.31 211.08 10.87Q209.75 10.44 208.81 9.59Q207.88 8.73 207.37 7.47Q206.87 6.21 206.87 4.53ZM210.42 3.16L215.69 3.16Q215.69 2.63 215.55 2.14Q215.41 1.65 215.10 1.26Q214.79 0.86 214.32 0.63Q213.84 0.39 213.14 0.39L213.14 0.39Q212.47 0.39 211.98 0.61Q211.49 0.84 211.17 1.23Q210.84 1.62 210.66 2.12Q210.48 2.63 210.42 3.16L210.42 3.16ZM240.50 8.48L240.50 8.48Q241.36 8.48 241.94 8.30Q242.51 8.12 242.85 7.79Q243.18 7.47 243.31 7.07Q243.44 6.66 243.44 6.24L243.44 6.24Q243.44 5.71 243.13 5.29Q242.82 4.87 242.34 4.55Q241.87 4.22 241.28 3.96Q240.69 3.69 240.10 3.47L240.10 3.47Q239.32 3.19 238.48 2.82Q237.64 2.46 236.95 1.90Q236.27 1.34 235.82 0.51Q235.37-0.31 235.37-1.54L235.37-1.54Q235.37-3.98 236.95-5.35Q238.54-6.72 241.31-6.72L241.31-6.72Q242.90-6.72 244.09-6.36Q245.28-6.00 246.10-5.55L246.10-5.55L245.09-2.89Q244.39-3.28 243.53-3.56Q242.68-3.84 241.56-3.84L241.56-3.84Q238.82-3.84 238.82-1.85L238.82-1.85Q238.82-1.35 239.10-0.97Q239.38-0.59 239.81-0.30Q240.24-0.00 240.79 0.22Q241.34 0.44 241.87 0.64L241.87 0.64Q242.68 0.95 243.56 1.33Q244.44 1.70 245.19 2.33Q245.93 2.96 246.40 3.90Q246.88 4.84 246.88 6.27L246.88 6.27Q246.88 8.70 245.30 10.03Q243.72 11.36 240.50 11.36L240.50 11.36Q238.34 11.36 237.05 10.90Q235.76 10.44 235.12 10.05L235.12 10.05L236.13 7.25Q236.88 7.70 237.93 8.09Q238.98 8.48 240.50 8.48ZM248.87 4.53L248.87 4.53Q248.87 2.80 249.40 1.48Q249.93 0.16 250.80-0.72Q251.67-1.60 252.79-2.05Q253.91-2.50 255.08-2.50L255.08-2.50Q258.00-2.50 259.51-0.77Q261.02 0.95 261.02 4.25L261.02 4.25Q261.02 4.59 261.01 4.95Q260.99 5.32 260.96 5.54L260.96 5.54L252.42 5.54Q252.42 6.83 253.49 7.57Q254.55 8.31 256.23 8.31L256.23 8.31Q257.27 8.31 258.21 8.09Q259.14 7.86 259.79 7.64L259.79 7.64L260.26 10.58Q259.37 10.89 258.36 11.10Q257.35 11.31 256.09 11.31L256.09 11.31Q254.41 11.31 253.08 10.87Q251.75 10.44 250.81 9.59Q249.88 8.73 249.37 7.47Q248.87 6.21 248.87 4.53ZM252.42 3.16L257.69 3.16Q257.69 2.63 257.55 2.14Q257.41 1.65 257.10 1.26Q256.79 0.86 256.32 0.63Q255.84 0.39 255.14 0.39L255.14 0.39Q254.47 0.39 253.98 0.61Q253.49 0.84 253.17 1.23Q252.84 1.62 252.66 2.12Q252.48 2.63 252.42 3.16L252.42 3.16ZM263.23 4.42L263.23 4.42Q263.23 2.99 263.68 1.73Q264.13 0.47 265.05-0.47Q265.98-1.40 267.39-1.95Q268.80-2.50 270.76-2.50L270.76-2.50Q271.94-2.50 272.89-2.33Q273.84-2.16 274.82-1.77L274.82-1.77L274.07 1.00Q273.51 0.81 272.82 0.65Q272.14 0.50 271.07 0.50L271.07 0.50Q269.84 0.50 269.01 0.79Q268.19 1.09 267.68 1.61Q267.18 2.12 266.96 2.85Q266.73 3.58 266.73 4.42L266.73 4.42Q266.73 6.24 267.75 7.28Q268.78 8.31 271.24 8.31L271.24 8.31Q272.05 8.31 272.93 8.20Q273.82 8.09 274.54 7.84L274.54 7.84L275.05 10.66Q274.32 10.94 273.28 11.13Q272.25 11.31 270.85 11.31L270.85 11.31Q268.83 11.31 267.39 10.78Q265.95 10.24 265.02 9.32Q264.10 8.40 263.67 7.14Q263.23 5.88 263.23 4.42ZM288.26-2.16L288.26 10.55Q287.31 10.80 285.95 11.06Q284.60 11.31 283 11.31L283 11.31Q281.38 11.31 280.34 10.86Q279.30 10.41 278.70 9.59Q278.10 8.76 277.88 7.64Q277.65 6.52 277.65 5.18L277.65 5.18L277.65-2.16L281.10-2.16L281.10 4.73Q281.10 6.55 281.53 7.43Q281.96 8.31 283.22 8.31L283.22 8.31Q284.01 8.31 284.79 8.17L284.79 8.17L284.79-2.16L288.26-2.16ZM302.85-1.85L302.24 1.34Q301.90 1.26 301.44 1.17Q300.98 1.09 300.50 1.02Q300.02 0.95 299.58 0.92Q299.13 0.89 298.82 0.89L298.82 0.89Q298.09 0.89 297.39 0.96Q296.69 1.03 295.96 1.23L295.96 1.23L295.96 11L292.49 11L292.49-1.29Q293.86-1.80 295.31-2.10Q296.75-2.41 298.68-2.41L298.68-2.41Q298.96-2.41 299.48-2.38Q300.00-2.36 300.58-2.29Q301.17-2.22 301.77-2.12Q302.38-2.02 302.85-1.85L302.85-1.85ZM311.95-5.94L311.95-5.94Q311.95-4.93 311.31-4.34Q310.66-3.76 309.77-3.76L309.77-3.76Q308.87-3.76 308.24-4.34Q307.61-4.93 307.61-5.94L307.61-5.94Q307.61-6.98 308.24-7.56Q308.87-8.15 309.77-8.15L309.77-8.15Q310.66-8.15 311.31-7.56Q311.95-6.98 311.95-5.94ZM316.63 7.67L317.08 10.44Q316.01 10.94 315.07 11.13Q314.14 11.31 313.35 11.31L313.35 11.31Q312.01 11.31 311.10 10.92Q310.19 10.52 309.64 9.78Q309.10 9.04 308.87 7.98Q308.65 6.91 308.65 5.54L308.65 5.54L308.65 0.70L305.01 0.70L305.01-2.16L312.09-2.16L312.09 5.99Q312.09 7.16 312.53 7.74Q312.96 8.31 313.97 8.31L313.97 8.31Q314.44 8.31 315.12 8.19Q315.79 8.06 316.63 7.67L316.63 7.67ZM322.00 6.10L322.00 0.70L319.01 0.70L319.01-2.16L322.00-2.16L322.00-5.46L325.45-6.02L325.45-2.16L330.96-2.16L330.96 0.70L325.45 0.70L325.45 6.02Q325.45 6.74 325.59 7.19Q325.73 7.64 325.98 7.89Q326.23 8.14 326.60 8.23Q326.96 8.31 327.41 8.31L327.41 8.31Q327.88 8.31 328.29 8.28Q328.70 8.26 329.07 8.19Q329.45 8.12 329.86 7.98Q330.26 7.84 330.74 7.61L330.74 7.61L331.22 10.58Q330.26 10.97 329.16 11.14Q328.05 11.31 327.02 11.31L327.02 11.31Q325.81 11.31 324.89 11.11Q323.96 10.92 323.32 10.36Q322.68 9.80 322.34 8.77Q322.00 7.75 322.00 6.10L322.00 6.10ZM341.69-2.16L345.22-2.16Q344.68-0.31 344.19 1.47Q343.70 3.24 343.17 4.94Q342.64 6.63 342.04 8.26Q341.44 9.88 340.74 11.42L340.74 11.42Q340.20 12.54 339.69 13.35Q339.17 14.16 338.54 14.68Q337.91 15.20 337.14 15.45Q336.37 15.70 335.33 15.70L335.33 15.70Q334.46 15.70 333.75 15.56Q333.04 15.42 332.56 15.20L332.56 15.20L333.20 12.32Q333.76 12.57 334.20 12.67Q334.63 12.76 335.14 12.76L335.14 12.76Q336.14 12.76 336.76 12.09Q337.38 11.42 337.74 10.50L337.74 10.50Q336.51 8.03 335.28 4.85Q334.04 1.68 333.04-2.16L333.04-2.16L336.62-2.16Q336.87-1.12 337.19 0.05Q337.52 1.23 337.88 2.40Q338.24 3.58 338.65 4.71Q339.06 5.85 339.48 6.83L339.48 6.83Q339.76 5.85 340.06 4.71Q340.37 3.58 340.65 2.42Q340.93 1.26 341.20 0.08Q341.46-1.10 341.69-2.16L341.69-2.16ZM365.99-6.53L365.99-6.53Q367.48-6.53 368.68-6.19Q369.88-5.86 370.75-5.16Q371.62-4.46 372.08-3.38Q372.54-2.30 372.54-0.84L372.54-0.84Q372.54 0.67 371.93 1.90Q371.31 3.13 369.88 3.78L369.88 3.78Q370.36 4.50 370.89 5.39Q371.42 6.27 371.93 7.23Q372.43 8.20 372.89 9.17Q373.36 10.13 373.69 11L373.69 11L370.08 11Q369.44 9.32 368.58 7.77Q367.73 6.21 366.75 4.62L366.75 4.62L364.96 4.62L364.96 11L361.51 11L361.51-6.08Q362.02-6.19 362.62-6.29Q363.22-6.39 363.84-6.43Q364.45-6.47 365.01-6.50Q365.57-6.53 365.99-6.53ZM369.04-0.87L369.04-0.87Q369.04-2.24 368.20-2.89Q367.36-3.53 365.99-3.53L365.99-3.53Q365.80-3.53 365.52-3.52Q365.24-3.50 364.96-3.45L364.96-3.45L364.96 1.76L365.71 1.76Q367.48 1.76 368.26 1.07Q369.04 0.39 369.04-0.87ZM386.26-2.16L386.26 10.55Q385.31 10.80 383.95 11.06Q382.60 11.31 381 11.31L381 11.31Q379.38 11.31 378.34 10.86Q377.30 10.41 376.70 9.59Q376.10 8.76 375.88 7.64Q375.65 6.52 375.65 5.18L375.65 5.18L375.65-2.16L379.10-2.16L379.10 4.73Q379.10 6.55 379.53 7.43Q379.96 8.31 381.22 8.31L381.22 8.31Q382.01 8.31 382.79 8.17L382.79 8.17L382.79-2.16L386.26-2.16ZM400.63 7.67L401.08 10.44Q400.99 10.50 400.70 10.64Q400.40 10.78 399.93 10.93Q399.45 11.08 398.77 11.20Q398.08 11.31 397.21 11.31L397.21 11.31Q394.83 11.31 393.74 9.89Q392.65 8.48 392.65 5.76L392.65 5.76L392.65-5.41L389.01-5.41L389.01-8.26L396.09-8.26L396.09 6.02Q396.09 7.36 396.62 7.84Q397.16 8.31 397.97 8.31L397.97 8.31Q399.00 8.31 399.70 8.03Q400.40 7.75 400.63 7.67L400.63 7.67ZM402.87 4.53L402.87 4.53Q402.87 2.80 403.40 1.48Q403.93 0.16 404.80-0.72Q405.67-1.60 406.79-2.05Q407.91-2.50 409.08-2.50L409.08-2.50Q412.00-2.50 413.51-0.77Q415.02 0.95 415.02 4.25L415.02 4.25Q415.02 4.59 415.01 4.95Q414.99 5.32 414.96 5.54L414.96 5.54L406.42 5.54Q406.42 6.83 407.49 7.57Q408.55 8.31 410.23 8.31L410.23 8.31Q411.27 8.31 412.21 8.09Q413.14 7.86 413.79 7.64L413.79 7.64L414.26 10.58Q413.37 10.89 412.36 11.10Q411.35 11.31 410.09 11.31L410.09 11.31Q408.41 11.31 407.08 10.87Q405.75 10.44 404.81 9.59Q403.88 8.73 403.37 7.47Q402.87 6.21 402.87 4.53ZM406.42 3.16L411.69 3.16Q411.69 2.63 411.55 2.14Q411.41 1.65 411.10 1.26Q410.79 0.86 410.32 0.63Q409.84 0.39 409.14 0.39L409.14 0.39Q408.47 0.39 407.98 0.61Q407.49 0.84 407.17 1.23Q406.84 1.62 406.66 2.12Q406.48 2.63 406.42 3.16L406.42 3.16ZM422.38 8.40L422.38 8.40Q423.64 8.40 424.32 8.21Q424.99 8.03 424.99 7.47L424.99 7.47Q424.99 7.11 424.78 6.86Q424.57 6.60 424.19 6.42Q423.81 6.24 423.32 6.07Q422.83 5.90 422.30 5.74L422.30 5.74Q421.54 5.51 420.76 5.22Q419.98 4.92 419.33 4.48Q418.69 4.03 418.27 3.34Q417.85 2.66 417.85 1.62L417.85 1.62Q417.85 0.78 418.17 0.04Q418.49-0.70 419.18-1.28Q419.86-1.85 420.93-2.17Q421.99-2.50 423.48-2.50L423.48-2.50Q424.76-2.50 425.87-2.30Q426.98-2.10 427.79-1.74L427.79-1.74L427.26 1.17Q426.78 1.03 425.77 0.71Q424.76 0.39 423.50 0.39L423.50 0.39Q422.19 0.39 421.73 0.71Q421.26 1.03 421.26 1.40L421.26 1.40Q421.26 1.70 421.47 1.94Q421.68 2.18 422.03 2.38Q422.38 2.57 422.85 2.75Q423.31 2.94 423.84 3.10L423.84 3.10Q424.60 3.36 425.41 3.66Q426.22 3.97 426.88 4.43Q427.54 4.90 427.96 5.61Q428.38 6.32 428.38 7.36L428.38 7.36Q428.38 8.17 428.07 8.90Q427.76 9.63 427.05 10.16Q426.33 10.69 425.18 11Q424.04 11.31 422.36 11.31L422.36 11.31Q420.65 11.31 419.44 10.92Q418.24 10.52 417.51 10.22L417.51 10.22L418.04 7.33Q419.02 7.72 420.13 8.06Q421.24 8.40 422.38 8.40Z"/>
    </g>
</svg>