<?xml version="1.0" encoding="UTF-8"?>
<svg height="322" width="78.3" version="1.1" xmlns="http://www.w3.org/2000/svg"><!--Created by Josélio de S. C. Júnior - 2021 - https://github.com/joseliojunior -->
    <rect
        height="32"
        width="76.3"
        rx="1"
        ry="1"
        x="1" y="1"
        fill="#4C3023"
        stroke="#b27457"
        stroke-width="1" />
    <g transform="translate(0, 12)">
        <path fill="#b27457" stroke="none" d="M31.04 9.55L31.04 12L21.70 12L21.70-2.86L24.68-2.86L24.68 9.55L31.04 9.55ZM36.46 12L33.51 12L33.51-2.86L42.61-2.86L42.61-0.41L36.46-0.41L36.46 3.19L41.84 3.19L41.84 5.64L36.46 5.64L36.46 12ZM55.04 12L45.51 12L45.51-2.86L54.51-2.86L54.51-0.41L48.46-0.41L48.46 2.93L53.72 2.93L53.72 5.38L48.46 5.38L48.46 9.55L55.04 9.55L55.04 12Z"/>
    </g>
</svg>