<?xml version="1.0" encoding="UTF-8"?>
<svg height="26" width="66.3" version="1.1" xmlns="http://www.w3.org/2000/svg"><!--Created by Josélio de S. C. Júnior - 2021 - https://github.com/joseliojunior -->
    <rect
        height="24"
        width="64.3"
        rx="1"
        ry="1"
        x="1" y="1"
        fill="#4C3023"
        stroke="#b27457"
        stroke-width="1" />
    <g transform="translate(0, 8)">
        <path fill="#b27457" stroke="none" d="M27.36 8.37L27.36 10L21.14 10L21.14 0.10L23.12 0.10L23.12 8.37L27.36 8.37ZM30.98 10L29.01 10L29.01 0.10L35.07 0.10L35.07 1.73L30.98 1.73L30.98 4.13L34.56 4.13L34.56 5.76L30.98 5.76L30.98 10ZM43.36 10L37.01 10L37.01 0.10L43.01 0.10L43.01 1.73L38.98 1.73L38.98 3.95L42.48 3.95L42.48 5.58L38.98 5.58L38.98 8.37L43.36 8.37L43.36 10Z"/>
    </g>
</svg>