<?xml version="1.0" encoding="UTF-8"?>
<svg height="34" width="90.4" version="1.1" xmlns="http://www.w3.org/2000/svg">
    <rect
        height="32"
        width="88.4"
        rx="16"
        ry="16"
        x="1"
        y="1"
        fill="#005C9C"
        stroke="#38acff"
        stroke-width="1"
         />
    <g transform="translate(0, 12)">
        <path fill="#38acff" d="M27.97-2.86L30.92-2.86L30.92 12L27.97 12L27.97 5.45L24.03 5.45L24.03 12L21.08 12L21.08-2.86L24.03-2.86L24.03 3L27.97 3L27.97-2.86ZM32.60-2.86L43.40-2.86L43.40-0.41L39.49-0.41L39.49 12L36.51 12L36.51-0.41L32.60-0.41L32.60-2.86ZM44.60-2.86L55.40-2.86L55.40-0.41L51.49-0.41L51.49 12L48.51 12L48.51-0.41L44.60-0.41L44.60-2.86ZM61.38-3.02L61.38-3.02Q64.21-3.02 65.77-1.86Q67.33-0.70 67.33 1.94L67.33 1.94Q67.33 4.61 65.76 5.80Q64.18 6.98 61.30 6.98L61.30 6.98L60.25 6.98L60.25 12L57.30 12L57.30-2.66Q57.73-2.76 58.27-2.83Q58.81-2.90 59.36-2.94Q59.91-2.98 60.44-3Q60.97-3.02 61.38-3.02ZM61.71-0.46L61.71-0.46Q61.45-0.46 60.98-0.44Q60.51-0.43 60.25-0.38L60.25-0.38L60.25 4.42L61.45 4.42Q62.86 4.42 63.58 3.85Q64.30 3.29 64.30 1.92L64.30 1.92Q64.30 0.62 63.60 0.08Q62.89-0.46 61.71-0.46Z"/>
    </g>
</svg>