<?xml version="1.0" encoding="UTF-8"?>
<svg height="34" width="78.4" version="1.1" xmlns="http://www.w3.org/2000/svg">
    <rect
        height="32"
        width="76.4"
        rx="14"
        ry="14"
        x="1"
        y="1"
        fill="#005C9C"
        stroke="#38acff"
        stroke-width="1"
         />
    <g transform="translate(0, 14)">
        <path fill="#38acff" d="M19.30-6.33L22.74-6.33L22.74 11L19.30 11L19.30 3.36L14.70 3.36L14.70 11L11.26 11L11.26-6.33L14.70-6.33L14.70 0.50L19.30 0.50L19.30-6.33ZM24.70-6.33L37.30-6.33L37.30-3.48L32.74-3.48L32.74 11L29.26 11L29.26-3.48L24.70-3.48L24.70-6.33ZM38.70-6.33L51.30-6.33L51.30-3.48L46.74-3.48L46.74 11L43.26 11L43.26-3.48L38.70-3.48L38.70-6.33ZM58.27-6.53L58.27-6.53Q61.58-6.53 63.40-5.17Q65.22-3.81 65.22-0.73L65.22-0.73Q65.22 2.38 63.38 3.76Q61.55 5.15 58.19 5.15L58.19 5.15L56.96 5.15L56.96 11L53.51 11L53.51-6.11Q54.02-6.22 54.65-6.30Q55.28-6.39 55.92-6.43Q56.56-6.47 57.18-6.50Q57.80-6.53 58.27-6.53ZM58.66-3.53L58.66-3.53Q58.36-3.53 57.81-3.52Q57.26-3.50 56.96-3.45L56.96-3.45L56.96 2.15L58.36 2.15Q60.01 2.15 60.85 1.49Q61.69 0.84 61.69-0.76L61.69-0.76Q61.69-2.27 60.86-2.90Q60.04-3.53 58.66-3.53Z"/>
    </g>
</svg>