<?xml version="1.0" encoding="UTF-8"?>
<svg height="34" width="92.5" version="1.1" xmlns="http://www.w3.org/2000/svg">
    <rect
        height="32"
        width="90.5"
        rx="14"
        ry="14"
        x="1"
        y="1"
        fill="#9DC3FF"
        stroke="#0050d1"
        stroke-width="1"
         />
    <g transform="translate(0, 14)">
        <path fill="#0050d1" d="M23.75 11L20.05 11L19.24 7.00L14.62 7.00L13.84 11L10.25 11Q11.48 5.88 12.74 1.66Q14.00-2.55 15.18-6.33L15.18-6.33L18.93-6.33Q20.16-2.52 21.38 1.75Q22.60 6.02 23.75 11L23.75 11ZM16.97-2.97L16.97-2.97Q16.69-1.99 16.45-1.11Q16.22-0.23 16.01 0.63Q15.80 1.48 15.61 2.35Q15.43 3.22 15.26 4.14L15.26 4.14L18.65 4.14Q18.48 3.22 18.32 2.35Q18.15 1.48 17.94 0.63Q17.73-0.23 17.49-1.11Q17.25-1.99 16.97-2.97ZM36.71 11L33.94 11Q32.76 8.12 31.38 5.25Q29.99 2.38 28.40-0.51L28.40-0.51L28.40 11L25.29 11L25.29-6.33L28.06-6.33Q28.84-5.10 29.63-3.66Q30.41-2.22 31.15-0.79Q31.90 0.64 32.53 1.98Q33.16 3.33 33.60 4.34L33.60 4.34L33.60-6.33L36.71-6.33L36.71 11ZM38.70-6.33L51.30-6.33L51.30-3.48L46.74-3.48L46.74 11L43.26 11L43.26-3.48L38.70-3.48L38.70-6.33ZM64.88 8.14L64.88 11L53.99 11L53.99-6.33L57.46-6.33L57.46 8.14L64.88 8.14ZM71.99-6.53L71.99-6.53Q73.48-6.53 74.68-6.19Q75.88-5.86 76.75-5.16Q77.62-4.46 78.08-3.38Q78.54-2.30 78.54-0.84L78.54-0.84Q78.54 0.67 77.93 1.90Q77.31 3.13 75.88 3.78L75.88 3.78Q76.36 4.50 76.89 5.39Q77.42 6.27 77.93 7.23Q78.43 8.20 78.89 9.17Q79.36 10.13 79.69 11L79.69 11L76.08 11Q75.44 9.32 74.58 7.77Q73.73 6.21 72.75 4.62L72.75 4.62L70.96 4.62L70.96 11L67.51 11L67.51-6.08Q68.02-6.19 68.62-6.29Q69.22-6.39 69.84-6.43Q70.45-6.47 71.01-6.50Q71.57-6.53 71.99-6.53ZM75.04-0.87L75.04-0.87Q75.04-2.24 74.20-2.89Q73.36-3.53 71.99-3.53L71.99-3.53Q71.80-3.53 71.52-3.52Q71.24-3.50 70.96-3.45L70.96-3.45L70.96 1.76L71.71 1.76Q73.48 1.76 74.26 1.07Q75.04 0.39 75.04-0.87Z"/>
    </g>
</svg>