<?xml version="1.0" encoding="UTF-8"?>
<svg height="34" width="102.5" version="1.1" xmlns="http://www.w3.org/2000/svg">
    <rect
        height="32"
        width="100.5"
        rx="16"
        ry="16"
        x="1"
        y="1"
        fill="#9DC3FF"
        stroke="#0050d1"
        stroke-width="1"
         />
    <g transform="translate(0, 12)">
        <path fill="#0050d1" d="M31.78 12L28.62 12L27.92 8.57L23.96 8.57L23.29 12L20.22 12Q21.27 7.61 22.35 4.00Q23.43 0.38 24.44-2.86L24.44-2.86L27.66-2.86Q28.71 0.41 29.76 4.07Q30.80 7.73 31.78 12L31.78 12ZM25.98 0.02L25.98 0.02Q25.74 0.86 25.53 1.62Q25.33 2.38 25.15 3.11Q24.97 3.84 24.81 4.58Q24.66 5.33 24.51 6.12L24.51 6.12L27.42 6.12Q27.27 5.33 27.13 4.58Q26.98 3.84 26.80 3.11Q26.62 2.38 26.42 1.62Q26.22 0.86 25.98 0.02ZM42.90 12L40.52 12Q39.51 9.53 38.32 7.07Q37.14 4.61 35.77 2.14L35.77 2.14L35.77 12L33.10 12L33.10-2.86L35.48-2.86Q36.15-1.80 36.82-0.56Q37.50 0.67 38.13 1.90Q38.77 3.12 39.31 4.27Q39.85 5.42 40.23 6.29L40.23 6.29L40.23-2.86L42.90-2.86L42.90 12ZM44.60-2.86L55.40-2.86L55.40-0.41L51.49-0.41L51.49 12L48.51 12L48.51-0.41L44.60-0.41L44.60-2.86ZM67.04 9.55L67.04 12L57.70 12L57.70-2.86L60.68-2.86L60.68 9.55L67.04 9.55ZM73.14-3.02L73.14-3.02Q74.41-3.02 75.44-2.74Q76.47-2.45 77.22-1.85Q77.96-1.25 78.36-0.32Q78.75 0.60 78.75 1.85L78.75 1.85Q78.75 3.14 78.22 4.20Q77.70 5.26 76.47 5.81L76.47 5.81Q76.88 6.43 77.34 7.19Q77.79 7.94 78.22 8.77Q78.66 9.60 79.05 10.43Q79.45 11.26 79.74 12L79.74 12L76.64 12Q76.09 10.56 75.36 9.23Q74.62 7.90 73.78 6.53L73.78 6.53L72.25 6.53L72.25 12L69.30 12L69.30-2.64Q69.73-2.74 70.24-2.82Q70.76-2.90 71.29-2.94Q71.82-2.98 72.30-3Q72.78-3.02 73.14-3.02ZM75.75 1.82L75.75 1.82Q75.75 0.65 75.03 0.10Q74.31-0.46 73.14-0.46L73.14-0.46Q72.97-0.46 72.73-0.44Q72.49-0.43 72.25-0.38L72.25-0.38L72.25 4.08L72.90 4.08Q74.41 4.08 75.08 3.49Q75.75 2.90 75.75 1.82Z"/>
    </g>
</svg>