<?xml version="1.0" encoding="UTF-8"?><svg height="26" width="74.4" version="1.1" xmlns="http://www.w3.org/2000/svg"><!--Created by Josélio de S. C. Júnior - 2021 - https://github.com/joseliojunior --><defs><pattern id="pattern" x="3" y="3" width="6" height="6" patternUnits="userSpaceOnUse" patternTransform="rotate(45)"><rect height="6" width="6" fill="#ffffff"/><line x1="0" y1="0" x2="0" y2="6" stroke="#bbbbbb" stroke-width="2" /></pattern></defs><rect height="24" width="72.4" rx="1" ry="1" x="1" y="1" fill="url(#pattern)" /><g transform="translate(0, 8)"><path fill="#000000" d="M24.74 10.21L24.74 10.21Q22.64 10.21 21.54 8.86Q20.43 7.52 20.43 5.04L20.43 5.04Q20.43 3.81 20.77 2.85Q21.10 1.89 21.70 1.22Q22.30 0.56 23.13 0.22Q23.95-0.13 24.93-0.13L24.93-0.13Q25.46-0.13 25.88-0.04Q26.30 0.05 26.62 0.16Q26.94 0.27 27.16 0.40Q27.38 0.53 27.49 0.59L27.49 0.59L26.98 2.16Q26.61 1.92 26.09 1.75Q25.57 1.58 24.90 1.58L24.90 1.58Q24.43 1.58 23.99 1.75Q23.55 1.92 23.21 2.31Q22.86 2.70 22.65 3.36Q22.43 4.02 22.43 4.99L22.43 4.99Q22.43 6.69 23.02 7.59Q23.60 8.50 24.93 8.50L24.93 8.50Q25.70 8.50 26.20 8.32Q26.70 8.14 27.01 7.97L27.01 7.97L27.50 9.52Q27.09 9.78 26.38 9.99Q25.66 10.21 24.74 10.21ZM35.55 6.22L35.55 6.22Q35.55 7.12 35.30 7.85Q35.04 8.58 34.58 9.10Q34.11 9.63 33.46 9.92Q32.82 10.21 32.02 10.21L32.02 10.21Q31.22 10.21 30.57 9.92Q29.92 9.63 29.45 9.10Q28.98 8.58 28.72 7.85Q28.46 7.12 28.46 6.22L28.46 6.22Q28.46 5.34 28.73 4.62Q28.99 3.89 29.46 3.37Q29.94 2.85 30.59 2.57Q31.25 2.29 32.02 2.29L32.02 2.29Q32.80 2.29 33.45 2.57Q34.10 2.85 34.57 3.37Q35.04 3.89 35.30 4.62Q35.55 5.34 35.55 6.22ZM30.46 6.24L30.46 6.24Q30.46 7.25 30.82 7.87Q31.18 8.50 31.98 8.50L31.98 8.50Q32.75 8.50 33.14 7.87Q33.54 7.25 33.54 6.24L33.54 6.24Q33.54 5.23 33.18 4.62Q32.82 4 32.02 4L32.02 4Q31.25 4 30.86 4.62Q30.46 5.23 30.46 6.24ZM43.55 6.22L43.55 6.22Q43.55 7.12 43.30 7.85Q43.04 8.58 42.58 9.10Q42.11 9.63 41.46 9.92Q40.82 10.21 40.02 10.21L40.02 10.21Q39.22 10.21 38.57 9.92Q37.92 9.63 37.45 9.10Q36.98 8.58 36.72 7.85Q36.46 7.12 36.46 6.22L36.46 6.22Q36.46 5.34 36.73 4.62Q36.99 3.89 37.46 3.37Q37.94 2.85 38.59 2.57Q39.25 2.29 40.02 2.29L40.02 2.29Q40.80 2.29 41.45 2.57Q42.10 2.85 42.57 3.37Q43.04 3.89 43.30 4.62Q43.55 5.34 43.55 6.22ZM38.46 6.24L38.46 6.24Q38.46 7.25 38.82 7.87Q39.18 8.50 39.98 8.50L39.98 8.50Q40.75 8.50 41.14 7.87Q41.54 7.25 41.54 6.24L41.54 6.24Q41.54 5.23 41.18 4.62Q40.82 4 40.02 4L40.02 4Q39.25 4 38.86 4.62Q38.46 5.23 38.46 6.24ZM51.22 8.10L51.47 9.68Q51.42 9.71 51.26 9.79Q51.09 9.87 50.82 9.96Q50.54 10.05 50.15 10.11Q49.76 10.18 49.26 10.18L49.26 10.18Q47.90 10.18 47.28 9.37Q46.66 8.56 46.66 7.01L46.66 7.01L46.66 0.62L44.58 0.62L44.58-1.01L48.62-1.01L48.62 7.15Q48.62 7.92 48.93 8.19Q49.23 8.46 49.70 8.46L49.70 8.46Q50.29 8.46 50.69 8.30Q51.09 8.14 51.22 8.10L51.22 8.10Z"/></g></svg>