<?xml version="1.0" encoding="UTF-8"?>
<svg height="26" width="123" version="1.1" xmlns="http://www.w3.org/2000/svg"><!--Created by Josélio de S. C. Júnior - 2021 - https://github.com/joseliojunior -->
    <rect
        height="24"
        width="121"
        rx="1"
        ry="1"
        x="1" y="1"
        fill="#da291c"
        stroke="#510f0b"
        stroke-width="1" />
    <g transform="translate(0, 8)">
        <path fill="#510f0b" d="M23.58-0.02L23.58-0.02Q25.47-0.02 26.51 0.76Q27.55 1.54 27.55 3.30L27.55 3.30Q27.55 5.07 26.50 5.86Q25.46 6.66 23.54 6.66L23.54 6.66L22.83 6.66L22.83 10L20.86 10L20.86 0.22Q21.15 0.16 21.51 0.11Q21.87 0.06 22.24 0.04Q22.61 0.02 22.96 0Q23.31-0.02 23.58-0.02ZM23.81 1.70L23.81 1.70Q23.63 1.70 23.32 1.70Q23.01 1.71 22.83 1.74L22.83 1.74L22.83 4.94L23.63 4.94Q24.58 4.94 25.06 4.57Q25.54 4.19 25.54 3.28L25.54 3.28Q25.54 2.42 25.06 2.06Q24.59 1.70 23.81 1.70ZM35.55 6.22L35.55 6.22Q35.55 7.12 35.30 7.85Q35.04 8.58 34.58 9.10Q34.11 9.63 33.46 9.92Q32.82 10.21 32.02 10.21L32.02 10.21Q31.22 10.21 30.57 9.92Q29.92 9.63 29.45 9.10Q28.98 8.58 28.72 7.85Q28.46 7.12 28.46 6.22L28.46 6.22Q28.46 5.34 28.73 4.62Q28.99 3.89 29.46 3.37Q29.94 2.85 30.59 2.57Q31.25 2.29 32.02 2.29L32.02 2.29Q32.80 2.29 33.45 2.57Q34.10 2.85 34.57 3.37Q35.04 3.89 35.30 4.62Q35.55 5.34 35.55 6.22ZM30.46 6.24L30.46 6.24Q30.46 7.25 30.82 7.87Q31.18 8.50 31.98 8.50L31.98 8.50Q32.75 8.50 33.14 7.87Q33.54 7.25 33.54 6.24L33.54 6.24Q33.54 5.23 33.18 4.62Q32.82 4 32.02 4L32.02 4Q31.25 4 30.86 4.62Q30.46 5.23 30.46 6.24ZM39.65 8.51L39.65 8.51Q40.37 8.51 40.75 8.41Q41.14 8.30 41.14 7.98L41.14 7.98Q41.14 7.78 41.02 7.63Q40.90 7.49 40.68 7.38Q40.46 7.28 40.18 7.18Q39.90 7.09 39.60 6.99L39.60 6.99Q39.17 6.86 38.72 6.70Q38.27 6.53 37.90 6.27Q37.54 6.02 37.30 5.62Q37.06 5.23 37.06 4.64L37.06 4.64Q37.06 4.16 37.24 3.74Q37.42 3.31 37.82 2.98Q38.21 2.66 38.82 2.47Q39.42 2.29 40.27 2.29L40.27 2.29Q41.01 2.29 41.64 2.40Q42.27 2.51 42.74 2.72L42.74 2.72L42.43 4.38Q42.16 4.30 41.58 4.12Q41.01 3.94 40.29 3.94L40.29 3.94Q39.54 3.94 39.27 4.12Q39.01 4.30 39.01 4.51L39.01 4.51Q39.01 4.69 39.13 4.82Q39.25 4.96 39.45 5.07Q39.65 5.18 39.91 5.29Q40.18 5.39 40.48 5.49L40.48 5.49Q40.91 5.63 41.38 5.81Q41.84 5.98 42.22 6.25Q42.59 6.51 42.83 6.92Q43.07 7.33 43.07 7.92L43.07 7.92Q43.07 8.38 42.90 8.80Q42.72 9.22 42.31 9.52Q41.90 9.82 41.25 10Q40.59 10.18 39.63 10.18L39.63 10.18Q38.66 10.18 37.97 9.95Q37.28 9.73 36.86 9.55L36.86 9.55L37.17 7.90Q37.73 8.13 38.36 8.32Q38.99 8.51 39.65 8.51ZM46.29 7.20L46.29 4.11L44.58 4.11L44.58 2.48L46.29 2.48L46.29 0.59L48.26 0.27L48.26 2.48L51.41 2.48L51.41 4.11L48.26 4.11L48.26 7.15Q48.26 7.57 48.34 7.82Q48.42 8.08 48.56 8.22Q48.70 8.37 48.91 8.42Q49.12 8.46 49.38 8.46L49.38 8.46Q49.65 8.46 49.88 8.45Q50.11 8.43 50.33 8.39Q50.54 8.35 50.78 8.27Q51.01 8.19 51.28 8.06L51.28 8.06L51.55 9.76Q51.01 9.98 50.38 10.08Q49.74 10.18 49.15 10.18L49.15 10.18Q48.46 10.18 47.94 10.06Q47.41 9.95 47.04 9.63Q46.67 9.31 46.48 8.73Q46.29 8.14 46.29 7.20L46.29 7.20ZM55.71 8.56L55.71 8.56Q56.21 8.56 56.54 8.46Q56.86 8.35 57.06 8.17Q57.25 7.98 57.32 7.75Q57.39 7.52 57.39 7.28L57.39 7.28Q57.39 6.98 57.22 6.74Q57.04 6.50 56.77 6.31Q56.50 6.13 56.16 5.98Q55.82 5.82 55.49 5.70L55.49 5.70Q55.04 5.54 54.56 5.33Q54.08 5.12 53.69 4.80Q53.30 4.48 53.04 4.01Q52.78 3.54 52.78 2.83L52.78 2.83Q52.78 1.44 53.69 0.66Q54.59-0.13 56.18-0.13L56.18-0.13Q57.09-0.13 57.77 0.08Q58.45 0.29 58.91 0.54L58.91 0.54L58.34 2.06Q57.94 1.84 57.45 1.68Q56.96 1.52 56.32 1.52L56.32 1.52Q54.75 1.52 54.75 2.66L54.75 2.66Q54.75 2.94 54.91 3.16Q55.07 3.38 55.32 3.54Q55.57 3.71 55.88 3.84Q56.19 3.97 56.50 4.08L56.50 4.08Q56.96 4.26 57.46 4.47Q57.97 4.69 58.39 5.05Q58.82 5.41 59.09 5.94Q59.36 6.48 59.36 7.30L59.36 7.30Q59.36 8.69 58.46 9.45Q57.55 10.21 55.71 10.21L55.71 10.21Q54.48 10.21 53.74 9.94Q53.01 9.68 52.64 9.46L52.64 9.46L53.22 7.86Q53.65 8.11 54.25 8.34Q54.85 8.56 55.71 8.56ZM60.70 6.24L60.70 6.24Q60.70 5.42 60.96 4.70Q61.22 3.98 61.74 3.45Q62.27 2.91 63.08 2.60Q63.89 2.29 65.01 2.29L65.01 2.29Q65.68 2.29 66.22 2.38Q66.77 2.48 67.33 2.70L67.33 2.70L66.90 4.29Q66.58 4.18 66.18 4.09Q65.79 4 65.18 4L65.18 4Q64.48 4 64.01 4.17Q63.54 4.34 63.25 4.63Q62.96 4.93 62.83 5.34Q62.70 5.76 62.70 6.24L62.70 6.24Q62.70 7.28 63.29 7.87Q63.87 8.46 65.28 8.46L65.28 8.46Q65.74 8.46 66.25 8.40Q66.75 8.34 67.17 8.19L67.17 8.19L67.46 9.81Q67.04 9.97 66.45 10.07Q65.86 10.18 65.06 10.18L65.06 10.18Q63.90 10.18 63.08 9.87Q62.26 9.57 61.73 9.04Q61.20 8.51 60.95 7.79Q60.70 7.07 60.70 6.24ZM75.34 2.66L74.99 4.48Q74.80 4.43 74.54 4.38Q74.27 4.34 74 4.30Q73.73 4.26 73.47 4.24Q73.22 4.22 73.04 4.22L73.04 4.22Q72.62 4.22 72.22 4.26Q71.82 4.30 71.41 4.42L71.41 4.42L71.41 10L69.42 10L69.42 2.98Q70.21 2.69 71.03 2.51Q71.86 2.34 72.96 2.34L72.96 2.34Q73.12 2.34 73.42 2.35Q73.71 2.37 74.05 2.41Q74.38 2.45 74.73 2.50Q75.07 2.56 75.34 2.66L75.34 2.66ZM80.54 0.32L80.54 0.32Q80.54 0.90 80.18 1.23Q79.81 1.57 79.30 1.57L79.30 1.57Q78.78 1.57 78.42 1.23Q78.06 0.90 78.06 0.32L78.06 0.32Q78.06-0.27 78.42-0.61Q78.78-0.94 79.30-0.94L79.30-0.94Q79.81-0.94 80.18-0.61Q80.54-0.27 80.54 0.32ZM83.22 8.10L83.47 9.68Q82.86 9.97 82.33 10.07Q81.79 10.18 81.34 10.18L81.34 10.18Q80.58 10.18 80.06 9.95Q79.54 9.73 79.22 9.30Q78.91 8.88 78.78 8.27Q78.66 7.66 78.66 6.88L78.66 6.88L78.66 4.11L76.58 4.11L76.58 2.48L80.62 2.48L80.62 7.14Q80.62 7.81 80.87 8.14Q81.12 8.46 81.70 8.46L81.70 8.46Q81.97 8.46 82.35 8.39Q82.74 8.32 83.22 8.10L83.22 8.10ZM89.50 6.30L89.50 6.30Q89.50 5.30 89.10 4.65Q88.70 4 87.89 4L87.89 4Q87.66 4 87.41 4.02Q87.15 4.05 86.98 4.06L86.98 4.06L86.98 8.19Q87.17 8.32 87.49 8.40Q87.81 8.48 88.13 8.48L88.13 8.48Q88.83 8.48 89.17 7.91Q89.50 7.34 89.50 6.30ZM91.50 6.24L91.50 6.24Q91.50 7.10 91.31 7.83Q91.12 8.56 90.75 9.08Q90.38 9.60 89.82 9.89Q89.26 10.18 88.53 10.18L88.53 10.18Q87.78 10.18 86.98 9.81L86.98 9.81L86.98 12.64L85.01 12.64L85.01 2.72Q85.55 2.54 86.34 2.43Q87.14 2.32 87.90 2.32L87.90 2.32Q89.65 2.32 90.58 3.38Q91.50 4.43 91.50 6.24ZM94.29 7.20L94.29 4.11L92.58 4.11L92.58 2.48L94.29 2.48L94.29 0.59L96.26 0.27L96.26 2.48L99.41 2.48L99.41 4.11L96.26 4.11L96.26 7.15Q96.26 7.57 96.34 7.82Q96.42 8.08 96.56 8.22Q96.70 8.37 96.91 8.42Q97.12 8.46 97.38 8.46L97.38 8.46Q97.65 8.46 97.88 8.45Q98.11 8.43 98.33 8.39Q98.54 8.35 98.78 8.27Q99.01 8.19 99.28 8.06L99.28 8.06L99.55 9.76Q99.01 9.98 98.38 10.08Q97.74 10.18 97.15 10.18L97.15 10.18Q96.46 10.18 95.94 10.06Q95.41 9.95 95.04 9.63Q94.67 9.31 94.48 8.73Q94.29 8.14 94.29 7.20L94.29 7.20Z"/>
    </g>
</svg>