<?xml version="1.0" encoding="UTF-8"?>
<svg height="26" width="66.3" version="1.1" xmlns="http://www.w3.org/2000/svg"><!--Created by Josélio de S. C. Júnior - 2021 - https://github.com/joseliojunior -->
    <rect
        height="24"
        width="64.3"
        rx="1"
        ry="1"
        x="1" y="1"
        fill="#e4cc98"
        stroke="#8d6c25"
        stroke-width="1" />
    <g transform="translate(0, 8)">
        <path fill="#8d6c25" d="M20.40 0.10L27.60 0.10L27.60 1.73L24.99 1.73L24.99 10L23.01 10L23.01 1.73L20.40 1.73L20.40 0.10ZM28.70 6.24L28.70 6.24Q28.70 5.42 28.96 4.70Q29.22 3.98 29.74 3.45Q30.27 2.91 31.08 2.60Q31.89 2.29 33.01 2.29L33.01 2.29Q33.68 2.29 34.22 2.38Q34.77 2.48 35.33 2.70L35.33 2.70L34.90 4.29Q34.58 4.18 34.18 4.09Q33.79 4 33.18 4L33.18 4Q32.48 4 32.01 4.17Q31.54 4.34 31.25 4.63Q30.96 4.93 30.83 5.34Q30.70 5.76 30.70 6.24L30.70 6.24Q30.70 7.28 31.29 7.87Q31.87 8.46 33.28 8.46L33.28 8.46Q33.74 8.46 34.25 8.40Q34.75 8.34 35.17 8.19L35.17 8.19L35.46 9.81Q35.04 9.97 34.45 10.07Q33.86 10.18 33.06 10.18L33.06 10.18Q31.90 10.18 31.08 9.87Q30.26 9.57 29.73 9.04Q29.20 8.51 28.95 7.79Q28.70 7.07 28.70 6.24ZM43.22 8.10L43.47 9.68Q43.42 9.71 43.26 9.79Q43.09 9.87 42.82 9.96Q42.54 10.05 42.15 10.11Q41.76 10.18 41.26 10.18L41.26 10.18Q39.90 10.18 39.28 9.37Q38.66 8.56 38.66 7.01L38.66 7.01L38.66 0.62L36.58 0.62L36.58-1.01L40.62-1.01L40.62 7.15Q40.62 7.92 40.93 8.19Q41.23 8.46 41.70 8.46L41.70 8.46Q42.29 8.46 42.69 8.30Q43.09 8.14 43.22 8.10L43.22 8.10Z"/>
    </g>
</svg>