<?xml version="1.0" encoding="UTF-8"?>
<svg height="26" width="285" version="1.1" xmlns="http://www.w3.org/2000/svg"><!--Created by Josélio de S. C. Júnior - 2021 - https://github.com/joseliojunior -->
    <defs>
        <pattern id="pattern"
                x="3" y="3" width="6" height="6"
                patternUnits="userSpaceOnUse"
                patternTransform="rotate(45)" >
            <rect height="6" width="6"
                fill="#ffffff"/>
            <line x1="0" y1="0" x2="0" y2="6"
                stroke="#888888"
                stroke-width="2" />
        </pattern>
    </defs>
    <rect
        height="24"
        width="283"
        rx="12"
        ry="12"
        x="1" y="1"
        fill="url(#pattern)"
        stroke="#000000"
        stroke-width="1" />
    <g transform="translate(0, 8)">
        <path fill="#ffffff" stroke="#000000" d="M23.58-0.02L23.58-0.02Q25.47-0.02 26.51 0.76Q27.55 1.54 27.55 3.30L27.55 3.30Q27.55 5.07 26.50 5.86Q25.46 6.66 23.54 6.66L23.54 6.66L22.83 6.66L22.83 10L20.86 10L20.86 0.22Q21.15 0.16 21.51 0.11Q21.87 0.06 22.24 0.04Q22.61 0.02 22.96 0Q23.31-0.02 23.58-0.02ZM23.81 1.70L23.81 1.70Q23.63 1.70 23.32 1.70Q23.01 1.71 22.83 1.74L22.83 1.74L22.83 4.94L23.63 4.94Q24.58 4.94 25.06 4.57Q25.54 4.19 25.54 3.28L25.54 3.28Q25.54 2.42 25.06 2.06Q24.59 1.70 23.81 1.70ZM32.02 8.59L32.02 8.59Q32.34 8.59 32.64 8.58Q32.94 8.58 33.17 8.54L33.17 8.54L33.17 6.82Q32.98 6.78 32.70 6.76Q32.43 6.74 32.21 6.74L32.21 6.74Q31.90 6.74 31.62 6.78Q31.33 6.82 31.11 6.91Q30.90 7.01 30.77 7.18Q30.64 7.36 30.64 7.65L30.64 7.65Q30.64 8.16 31.02 8.38Q31.41 8.59 32.02 8.59ZM31.84 2.29L31.84 2.29Q32.77 2.29 33.38 2.50Q34 2.72 34.37 3.11Q34.74 3.50 34.90 4.07Q35.06 4.64 35.06 5.34L35.06 5.34L35.06 9.82Q34.62 9.92 33.78 10.05Q32.93 10.18 31.87 10.18L31.87 10.18Q31.15 10.18 30.57 10.05Q29.98 9.92 29.57 9.62Q29.15 9.33 28.93 8.86Q28.70 8.38 28.70 7.70L28.70 7.70Q28.70 7.04 28.96 6.59Q29.22 6.14 29.65 5.87Q30.08 5.60 30.64 5.48Q31.20 5.36 31.81 5.36L31.81 5.36Q32.58 5.36 33.17 5.49L33.17 5.49L33.17 5.25Q33.17 4.69 32.82 4.31Q32.46 3.94 31.60 3.94L31.60 3.94Q31.04 3.94 30.52 4.02Q30 4.10 29.68 4.21L29.68 4.21L29.41 2.62Q29.78 2.50 30.45 2.39Q31.12 2.29 31.84 2.29ZM43.34 2.66L42.99 4.48Q42.80 4.43 42.54 4.38Q42.27 4.34 42 4.30Q41.73 4.26 41.47 4.24Q41.22 4.22 41.04 4.22L41.04 4.22Q40.62 4.22 40.22 4.26Q39.82 4.30 39.41 4.42L39.41 4.42L39.41 10L37.42 10L37.42 2.98Q38.21 2.69 39.03 2.51Q39.86 2.34 40.96 2.34L40.96 2.34Q41.12 2.34 41.42 2.35Q41.71 2.37 42.05 2.41Q42.38 2.45 42.73 2.50Q43.07 2.56 43.34 2.66L43.34 2.66ZM51.34 2.66L50.99 4.48Q50.80 4.43 50.54 4.38Q50.27 4.34 50 4.30Q49.73 4.26 49.47 4.24Q49.22 4.22 49.04 4.22L49.04 4.22Q48.62 4.22 48.22 4.26Q47.82 4.30 47.41 4.42L47.41 4.42L47.41 10L45.42 10L45.42 2.98Q46.21 2.69 47.03 2.51Q47.86 2.34 48.96 2.34L48.96 2.34Q49.12 2.34 49.42 2.35Q49.71 2.37 50.05 2.41Q50.38 2.45 50.73 2.50Q51.07 2.56 51.34 2.66L51.34 2.66ZM59.55 6.22L59.55 6.22Q59.55 7.12 59.30 7.85Q59.04 8.58 58.58 9.10Q58.11 9.63 57.46 9.92Q56.82 10.21 56.02 10.21L56.02 10.21Q55.22 10.21 54.57 9.92Q53.92 9.63 53.45 9.10Q52.98 8.58 52.72 7.85Q52.46 7.12 52.46 6.22L52.46 6.22Q52.46 5.34 52.73 4.62Q52.99 3.89 53.46 3.37Q53.94 2.85 54.59 2.57Q55.25 2.29 56.02 2.29L56.02 2.29Q56.80 2.29 57.45 2.57Q58.10 2.85 58.57 3.37Q59.04 3.89 59.30 4.62Q59.55 5.34 59.55 6.22ZM54.46 6.24L54.46 6.24Q54.46 7.25 54.82 7.87Q55.18 8.50 55.98 8.50L55.98 8.50Q56.75 8.50 57.14 7.87Q57.54 7.25 57.54 6.24L57.54 6.24Q57.54 5.23 57.18 4.62Q56.82 4 56.02 4L56.02 4Q55.25 4 54.86 4.62Q54.46 5.23 54.46 6.24ZM62.29 7.20L62.29 4.11L60.58 4.11L60.58 2.48L62.29 2.48L62.29 0.59L64.26 0.27L64.26 2.48L67.41 2.48L67.41 4.11L64.26 4.11L64.26 7.15Q64.26 7.57 64.34 7.82Q64.42 8.08 64.56 8.22Q64.70 8.37 64.91 8.42Q65.12 8.46 65.38 8.46L65.38 8.46Q65.65 8.46 65.88 8.45Q66.11 8.43 66.33 8.39Q66.54 8.35 66.78 8.27Q67.01 8.19 67.28 8.06L67.28 8.06L67.55 9.76Q67.01 9.98 66.38 10.08Q65.74 10.18 65.15 10.18L65.15 10.18Q64.46 10.18 63.94 10.06Q63.41 9.95 63.04 9.63Q62.67 9.31 62.48 8.73Q62.29 8.14 62.29 7.20L62.29 7.20ZM83.15 10L76.86 10L76.86 8.37L79.02 8.37L79.02 1.73L76.86 1.73L76.86 0.10L83.15 0.10L83.15 1.73L81.01 1.73L81.01 8.37L83.15 8.37L83.15 10ZM85.01 10L85.01 2.72Q85.54 2.58 86.31 2.45Q87.09 2.32 88 2.32L88 2.32Q88.90 2.32 89.49 2.57Q90.08 2.82 90.42 3.27Q90.77 3.73 90.91 4.36Q91.06 4.99 91.06 5.76L91.06 5.76L91.06 10L89.09 10L89.09 6.02Q89.09 4.96 88.85 4.50Q88.61 4.03 87.87 4.03L87.87 4.03Q87.65 4.03 87.43 4.05Q87.22 4.06 86.98 4.10L86.98 4.10L86.98 10L85.01 10ZM94.29 7.20L94.29 4.11L92.58 4.11L92.58 2.48L94.29 2.48L94.29 0.59L96.26 0.27L96.26 2.48L99.41 2.48L99.41 4.11L96.26 4.11L96.26 7.15Q96.26 7.57 96.34 7.82Q96.42 8.08 96.56 8.22Q96.70 8.37 96.91 8.42Q97.12 8.46 97.38 8.46L97.38 8.46Q97.65 8.46 97.88 8.45Q98.11 8.43 98.33 8.39Q98.54 8.35 98.78 8.27Q99.01 8.19 99.28 8.06L99.28 8.06L99.55 9.76Q99.01 9.98 98.38 10.08Q97.74 10.18 97.15 10.18L97.15 10.18Q96.46 10.18 95.94 10.06Q95.41 9.95 95.04 9.63Q94.67 9.31 94.48 8.73Q94.29 8.14 94.29 7.20L94.29 7.20ZM100.50 6.30L100.50 6.30Q100.50 5.31 100.80 4.56Q101.10 3.81 101.60 3.30Q102.10 2.80 102.74 2.54Q103.38 2.29 104.05 2.29L104.05 2.29Q105.71 2.29 106.58 3.27Q107.44 4.26 107.44 6.14L107.44 6.14Q107.44 6.34 107.43 6.54Q107.42 6.75 107.41 6.88L107.41 6.88L102.53 6.88Q102.53 7.62 103.14 8.04Q103.74 8.46 104.70 8.46L104.70 8.46Q105.30 8.46 105.83 8.34Q106.37 8.21 106.74 8.08L106.74 8.08L107.01 9.76Q106.50 9.94 105.92 10.06Q105.34 10.18 104.62 10.18L104.62 10.18Q103.66 10.18 102.90 9.93Q102.14 9.68 101.61 9.19Q101.07 8.70 100.78 7.98Q100.50 7.26 100.50 6.30ZM102.53 5.52L105.54 5.52Q105.54 5.22 105.46 4.94Q105.38 4.66 105.20 4.43Q105.02 4.21 104.75 4.07Q104.48 3.94 104.08 3.94L104.08 3.94Q103.70 3.94 103.42 4.06Q103.14 4.19 102.95 4.42Q102.77 4.64 102.66 4.93Q102.56 5.22 102.53 5.52L102.53 5.52ZM115.34 2.66L114.99 4.48Q114.80 4.43 114.54 4.38Q114.27 4.34 114 4.30Q113.73 4.26 113.47 4.24Q113.22 4.22 113.04 4.22L113.04 4.22Q112.62 4.22 112.22 4.26Q111.82 4.30 111.41 4.42L111.41 4.42L111.41 10L109.42 10L109.42 2.98Q110.21 2.69 111.03 2.51Q111.86 2.34 112.96 2.34L112.96 2.34Q113.12 2.34 113.42 2.35Q113.71 2.37 114.05 2.41Q114.38 2.45 114.73 2.50Q115.07 2.56 115.34 2.66L115.34 2.66ZM117.01 10L117.01 2.72Q117.54 2.58 118.31 2.45Q119.09 2.32 120 2.32L120 2.32Q120.90 2.32 121.49 2.57Q122.08 2.82 122.42 3.27Q122.77 3.73 122.91 4.36Q123.06 4.99 123.06 5.76L123.06 5.76L123.06 10L121.09 10L121.09 6.02Q121.09 4.96 120.85 4.50Q120.61 4.03 119.87 4.03L119.87 4.03Q119.65 4.03 119.43 4.05Q119.22 4.06 118.98 4.10L118.98 4.10L118.98 10L117.01 10ZM128.02 8.59L128.02 8.59Q128.34 8.59 128.64 8.58Q128.94 8.58 129.17 8.54L129.17 8.54L129.17 6.82Q128.98 6.78 128.70 6.76Q128.43 6.74 128.21 6.74L128.21 6.74Q127.90 6.74 127.62 6.78Q127.33 6.82 127.11 6.91Q126.90 7.01 126.77 7.18Q126.64 7.36 126.64 7.65L126.64 7.65Q126.64 8.16 127.02 8.38Q127.41 8.59 128.02 8.59ZM127.84 2.29L127.84 2.29Q128.77 2.29 129.38 2.50Q130 2.72 130.37 3.11Q130.74 3.50 130.90 4.07Q131.06 4.64 131.06 5.34L131.06 5.34L131.06 9.82Q130.62 9.92 129.78 10.05Q128.93 10.18 127.87 10.18L127.87 10.18Q127.15 10.18 126.57 10.05Q125.98 9.92 125.57 9.62Q125.15 9.33 124.93 8.86Q124.70 8.38 124.70 7.70L124.70 7.70Q124.70 7.04 124.96 6.59Q125.22 6.14 125.65 5.87Q126.08 5.60 126.64 5.48Q127.20 5.36 127.81 5.36L127.81 5.36Q128.58 5.36 129.17 5.49L129.17 5.49L129.17 5.25Q129.17 4.69 128.82 4.31Q128.46 3.94 127.60 3.94L127.60 3.94Q127.04 3.94 126.52 4.02Q126 4.10 125.68 4.21L125.68 4.21L125.41 2.62Q125.78 2.50 126.45 2.39Q127.12 2.29 127.84 2.29ZM139.22 8.10L139.47 9.68Q139.42 9.71 139.26 9.79Q139.09 9.87 138.82 9.96Q138.54 10.05 138.15 10.11Q137.76 10.18 137.26 10.18L137.26 10.18Q135.90 10.18 135.28 9.37Q134.66 8.56 134.66 7.01L134.66 7.01L134.66 0.62L132.58 0.62L132.58-1.01L136.62-1.01L136.62 7.15Q136.62 7.92 136.93 8.19Q137.23 8.46 137.70 8.46L137.70 8.46Q138.29 8.46 138.69 8.30Q139.09 8.14 139.22 8.10L139.22 8.10ZM151.42-0.02L151.42-0.02Q152.27-0.02 152.96 0.18Q153.65 0.37 154.14 0.77Q154.64 1.17 154.90 1.78Q155.17 2.40 155.17 3.23L155.17 3.23Q155.17 4.10 154.82 4.80Q154.46 5.50 153.65 5.87L153.65 5.87Q153.92 6.29 154.22 6.79Q154.53 7.30 154.82 7.85Q155.10 8.40 155.37 8.95Q155.63 9.50 155.82 10L155.82 10L153.76 10Q153.39 9.04 152.90 8.15Q152.42 7.26 151.86 6.35L151.86 6.35L150.83 6.35L150.83 10L148.86 10L148.86 0.24Q149.15 0.18 149.50 0.12Q149.84 0.06 150.19 0.04Q150.54 0.02 150.86 0Q151.18-0.02 151.42-0.02ZM153.17 3.22L153.17 3.22Q153.17 2.43 152.69 2.06Q152.21 1.70 151.42 1.70L151.42 1.70Q151.31 1.70 151.15 1.70Q150.99 1.71 150.83 1.74L150.83 1.74L150.83 4.72L151.26 4.72Q152.27 4.72 152.72 4.33Q153.17 3.94 153.17 3.22ZM156.50 6.30L156.50 6.30Q156.50 5.31 156.80 4.56Q157.10 3.81 157.60 3.30Q158.10 2.80 158.74 2.54Q159.38 2.29 160.05 2.29L160.05 2.29Q161.71 2.29 162.58 3.27Q163.44 4.26 163.44 6.14L163.44 6.14Q163.44 6.34 163.43 6.54Q163.42 6.75 163.41 6.88L163.41 6.88L158.53 6.88Q158.53 7.62 159.14 8.04Q159.74 8.46 160.70 8.46L160.70 8.46Q161.30 8.46 161.83 8.34Q162.37 8.21 162.74 8.08L162.74 8.08L163.01 9.76Q162.50 9.94 161.92 10.06Q161.34 10.18 160.62 10.18L160.62 10.18Q159.66 10.18 158.90 9.93Q158.14 9.68 157.61 9.19Q157.07 8.70 156.78 7.98Q156.50 7.26 156.50 6.30ZM158.53 5.52L161.54 5.52Q161.54 5.22 161.46 4.94Q161.38 4.66 161.20 4.43Q161.02 4.21 160.75 4.07Q160.48 3.94 160.08 3.94L160.08 3.94Q159.70 3.94 159.42 4.06Q159.14 4.19 158.95 4.42Q158.77 4.64 158.66 4.93Q158.56 5.22 158.53 5.52L158.53 5.52ZM169.50 6.30L169.50 6.30Q169.50 5.30 169.10 4.65Q168.70 4 167.89 4L167.89 4Q167.66 4 167.41 4.02Q167.15 4.05 166.98 4.06L166.98 4.06L166.98 8.19Q167.17 8.32 167.49 8.40Q167.81 8.48 168.13 8.48L168.13 8.48Q168.83 8.48 169.17 7.91Q169.50 7.34 169.50 6.30ZM171.50 6.24L171.50 6.24Q171.50 7.10 171.31 7.83Q171.12 8.56 170.75 9.08Q170.38 9.60 169.82 9.89Q169.26 10.18 168.53 10.18L168.53 10.18Q167.78 10.18 166.98 9.81L166.98 9.81L166.98 12.64L165.01 12.64L165.01 2.72Q165.55 2.54 166.34 2.43Q167.14 2.32 167.90 2.32L167.90 2.32Q169.65 2.32 170.58 3.38Q171.50 4.43 171.50 6.24ZM179.34 2.66L178.99 4.48Q178.80 4.43 178.54 4.38Q178.27 4.34 178 4.30Q177.73 4.26 177.47 4.24Q177.22 4.22 177.04 4.22L177.04 4.22Q176.62 4.22 176.22 4.26Q175.82 4.30 175.41 4.42L175.41 4.42L175.41 10L173.42 10L173.42 2.98Q174.21 2.69 175.03 2.51Q175.86 2.34 176.96 2.34L176.96 2.34Q177.12 2.34 177.42 2.35Q177.71 2.37 178.05 2.41Q178.38 2.45 178.73 2.50Q179.07 2.56 179.34 2.66L179.34 2.66ZM180.50 6.30L180.50 6.30Q180.50 5.31 180.80 4.56Q181.10 3.81 181.60 3.30Q182.10 2.80 182.74 2.54Q183.38 2.29 184.05 2.29L184.05 2.29Q185.71 2.29 186.58 3.27Q187.44 4.26 187.44 6.14L187.44 6.14Q187.44 6.34 187.43 6.54Q187.42 6.75 187.41 6.88L187.41 6.88L182.53 6.88Q182.53 7.62 183.14 8.04Q183.74 8.46 184.70 8.46L184.70 8.46Q185.30 8.46 185.83 8.34Q186.37 8.21 186.74 8.08L186.74 8.08L187.01 9.76Q186.50 9.94 185.92 10.06Q185.34 10.18 184.62 10.18L184.62 10.18Q183.66 10.18 182.90 9.93Q182.14 9.68 181.61 9.19Q181.07 8.70 180.78 7.98Q180.50 7.26 180.50 6.30ZM182.53 5.52L185.54 5.52Q185.54 5.22 185.46 4.94Q185.38 4.66 185.20 4.43Q185.02 4.21 184.75 4.07Q184.48 3.94 184.08 3.94L184.08 3.94Q183.70 3.94 183.42 4.06Q183.14 4.19 182.95 4.42Q182.77 4.64 182.66 4.93Q182.56 5.22 182.53 5.52L182.53 5.52ZM191.65 8.51L191.65 8.51Q192.37 8.51 192.75 8.41Q193.14 8.30 193.14 7.98L193.14 7.98Q193.14 7.78 193.02 7.63Q192.90 7.49 192.68 7.38Q192.46 7.28 192.18 7.18Q191.90 7.09 191.60 6.99L191.60 6.99Q191.17 6.86 190.72 6.70Q190.27 6.53 189.90 6.27Q189.54 6.02 189.30 5.62Q189.06 5.23 189.06 4.64L189.06 4.64Q189.06 4.16 189.24 3.74Q189.42 3.31 189.82 2.98Q190.21 2.66 190.82 2.47Q191.42 2.29 192.27 2.29L192.27 2.29Q193.01 2.29 193.64 2.40Q194.27 2.51 194.74 2.72L194.74 2.72L194.43 4.38Q194.16 4.30 193.58 4.12Q193.01 3.94 192.29 3.94L192.29 3.94Q191.54 3.94 191.27 4.12Q191.01 4.30 191.01 4.51L191.01 4.51Q191.01 4.69 191.13 4.82Q191.25 4.96 191.45 5.07Q191.65 5.18 191.91 5.29Q192.18 5.39 192.48 5.49L192.48 5.49Q192.91 5.63 193.38 5.81Q193.84 5.98 194.22 6.25Q194.59 6.51 194.83 6.92Q195.07 7.33 195.07 7.92L195.07 7.92Q195.07 8.38 194.90 8.80Q194.72 9.22 194.31 9.52Q193.90 9.82 193.25 10Q192.59 10.18 191.63 10.18L191.63 10.18Q190.66 10.18 189.97 9.95Q189.28 9.73 188.86 9.55L188.86 9.55L189.17 7.90Q189.73 8.13 190.36 8.32Q190.99 8.51 191.65 8.51ZM196.50 6.30L196.50 6.30Q196.50 5.31 196.80 4.56Q197.10 3.81 197.60 3.30Q198.10 2.80 198.74 2.54Q199.38 2.29 200.05 2.29L200.05 2.29Q201.71 2.29 202.58 3.27Q203.44 4.26 203.44 6.14L203.44 6.14Q203.44 6.34 203.43 6.54Q203.42 6.75 203.41 6.88L203.41 6.88L198.53 6.88Q198.53 7.62 199.14 8.04Q199.74 8.46 200.70 8.46L200.70 8.46Q201.30 8.46 201.83 8.34Q202.37 8.21 202.74 8.08L202.74 8.08L203.01 9.76Q202.50 9.94 201.92 10.06Q201.34 10.18 200.62 10.18L200.62 10.18Q199.66 10.18 198.90 9.93Q198.14 9.68 197.61 9.19Q197.07 8.70 196.78 7.98Q196.50 7.26 196.50 6.30ZM198.53 5.52L201.54 5.52Q201.54 5.22 201.46 4.94Q201.38 4.66 201.20 4.43Q201.02 4.21 200.75 4.07Q200.48 3.94 200.08 3.94L200.08 3.94Q199.70 3.94 199.42 4.06Q199.14 4.19 198.95 4.42Q198.77 4.64 198.66 4.93Q198.56 5.22 198.53 5.52L198.53 5.52ZM205.01 10L205.01 2.72Q205.54 2.58 206.31 2.45Q207.09 2.32 208 2.32L208 2.32Q208.90 2.32 209.49 2.57Q210.08 2.82 210.42 3.27Q210.77 3.73 210.91 4.36Q211.06 4.99 211.06 5.76L211.06 5.76L211.06 10L209.09 10L209.09 6.02Q209.09 4.96 208.85 4.50Q208.61 4.03 207.87 4.03L207.87 4.03Q207.65 4.03 207.43 4.05Q207.22 4.06 206.98 4.10L206.98 4.10L206.98 10L205.01 10ZM214.29 7.20L214.29 4.11L212.58 4.11L212.58 2.48L214.29 2.48L214.29 0.59L216.26 0.27L216.26 2.48L219.41 2.48L219.41 4.11L216.26 4.11L216.26 7.15Q216.26 7.57 216.34 7.82Q216.42 8.08 216.56 8.22Q216.70 8.37 216.91 8.42Q217.12 8.46 217.38 8.46L217.38 8.46Q217.65 8.46 217.88 8.45Q218.11 8.43 218.33 8.39Q218.54 8.35 218.78 8.27Q219.01 8.19 219.28 8.06L219.28 8.06L219.55 9.76Q219.01 9.98 218.38 10.08Q217.74 10.18 217.15 10.18L217.15 10.18Q216.46 10.18 215.94 10.06Q215.41 9.95 215.04 9.63Q214.67 9.31 214.48 8.73Q214.29 8.14 214.29 7.20L214.29 7.20ZM224.02 8.59L224.02 8.59Q224.34 8.59 224.64 8.58Q224.94 8.58 225.17 8.54L225.17 8.54L225.17 6.82Q224.98 6.78 224.70 6.76Q224.43 6.74 224.21 6.74L224.21 6.74Q223.90 6.74 223.62 6.78Q223.33 6.82 223.11 6.91Q222.90 7.01 222.77 7.18Q222.64 7.36 222.64 7.65L222.64 7.65Q222.64 8.16 223.02 8.38Q223.41 8.59 224.02 8.59ZM223.84 2.29L223.84 2.29Q224.77 2.29 225.38 2.50Q226 2.72 226.37 3.11Q226.74 3.50 226.90 4.07Q227.06 4.64 227.06 5.34L227.06 5.34L227.06 9.82Q226.62 9.92 225.78 10.05Q224.93 10.18 223.87 10.18L223.87 10.18Q223.15 10.18 222.57 10.05Q221.98 9.92 221.57 9.62Q221.15 9.33 220.93 8.86Q220.70 8.38 220.70 7.70L220.70 7.70Q220.70 7.04 220.96 6.59Q221.22 6.14 221.65 5.87Q222.08 5.60 222.64 5.48Q223.20 5.36 223.81 5.36L223.81 5.36Q224.58 5.36 225.17 5.49L225.17 5.49L225.17 5.25Q225.17 4.69 224.82 4.31Q224.46 3.94 223.60 3.94L223.60 3.94Q223.04 3.94 222.52 4.02Q222 4.10 221.68 4.21L221.68 4.21L221.41 2.62Q221.78 2.50 222.45 2.39Q223.12 2.29 223.84 2.29ZM230.29 7.20L230.29 4.11L228.58 4.11L228.58 2.48L230.29 2.48L230.29 0.59L232.26 0.27L232.26 2.48L235.41 2.48L235.41 4.11L232.26 4.11L232.26 7.15Q232.26 7.57 232.34 7.82Q232.42 8.08 232.56 8.22Q232.70 8.37 232.91 8.42Q233.12 8.46 233.38 8.46L233.38 8.46Q233.65 8.46 233.88 8.45Q234.11 8.43 234.33 8.39Q234.54 8.35 234.78 8.27Q235.01 8.19 235.28 8.06L235.28 8.06L235.55 9.76Q235.01 9.98 234.38 10.08Q233.74 10.18 233.15 10.18L233.15 10.18Q232.46 10.18 231.94 10.06Q231.41 9.95 231.04 9.63Q230.67 9.31 230.48 8.73Q230.29 8.14 230.29 7.20L230.29 7.20ZM240.54 0.32L240.54 0.32Q240.54 0.90 240.18 1.23Q239.81 1.57 239.30 1.57L239.30 1.57Q238.78 1.57 238.42 1.23Q238.06 0.90 238.06 0.32L238.06 0.32Q238.06-0.27 238.42-0.61Q238.78-0.94 239.30-0.94L239.30-0.94Q239.81-0.94 240.18-0.61Q240.54-0.27 240.54 0.32ZM243.22 8.10L243.47 9.68Q242.86 9.97 242.33 10.07Q241.79 10.18 241.34 10.18L241.34 10.18Q240.58 10.18 240.06 9.95Q239.54 9.73 239.22 9.30Q238.91 8.88 238.78 8.27Q238.66 7.66 238.66 6.88L238.66 6.88L238.66 4.11L236.58 4.11L236.58 2.48L240.62 2.48L240.62 7.14Q240.62 7.81 240.87 8.14Q241.12 8.46 241.70 8.46L241.70 8.46Q241.97 8.46 242.35 8.39Q242.74 8.32 243.22 8.10L243.22 8.10ZM251.55 6.22L251.55 6.22Q251.55 7.12 251.30 7.85Q251.04 8.58 250.58 9.10Q250.11 9.63 249.46 9.92Q248.82 10.21 248.02 10.21L248.02 10.21Q247.22 10.21 246.57 9.92Q245.92 9.63 245.45 9.10Q244.98 8.58 244.72 7.85Q244.46 7.12 244.46 6.22L244.46 6.22Q244.46 5.34 244.73 4.62Q244.99 3.89 245.46 3.37Q245.94 2.85 246.59 2.57Q247.25 2.29 248.02 2.29L248.02 2.29Q248.80 2.29 249.45 2.57Q250.10 2.85 250.57 3.37Q251.04 3.89 251.30 4.62Q251.55 5.34 251.55 6.22ZM246.46 6.24L246.46 6.24Q246.46 7.25 246.82 7.87Q247.18 8.50 247.98 8.50L247.98 8.50Q248.75 8.50 249.14 7.87Q249.54 7.25 249.54 6.24L249.54 6.24Q249.54 5.23 249.18 4.62Q248.82 4 248.02 4L248.02 4Q247.25 4 246.86 4.62Q246.46 5.23 246.46 6.24ZM253.01 10L253.01 2.72Q253.54 2.58 254.31 2.45Q255.09 2.32 256 2.32L256 2.32Q256.90 2.32 257.49 2.57Q258.08 2.82 258.42 3.27Q258.77 3.73 258.91 4.36Q259.06 4.99 259.06 5.76L259.06 5.76L259.06 10L257.09 10L257.09 6.02Q257.09 4.96 256.85 4.50Q256.61 4.03 255.87 4.03L255.87 4.03Q255.65 4.03 255.43 4.05Q255.22 4.06 254.98 4.10L254.98 4.10L254.98 10L253.01 10Z"/>
    </g>
</svg>