<?xml version="1.0" encoding="UTF-8"?>
<svg height="34" width="405" version="1.1" xmlns="http://www.w3.org/2000/svg"><!--Created by Josélio de S. C. Júnior - 2021 - https://github.com/joseliojunior -->
    <defs>
        <pattern id="pattern"
                x="3" y="3" width="6" height="6"
                patternUnits="userSpaceOnUse"
                patternTransform="rotate(45)" >
            <rect height="6" width="6"
                fill="#ffffff"/>
            <line x1="0" y1="0" x2="0" y2="6"
                stroke="#888888"
                stroke-width="2" />
        </pattern>
    </defs>
    <rect
        height="32"
        width="403"
        rx="1"
        ry="1"
        x="1" y="1"
        fill="url(#pattern)" />
    <g transform="translate(0, 12)">
        <path fill="#000000" d="M25.38-3.02L25.38-3.02Q28.21-3.02 29.77-1.86Q31.33-0.70 31.33 1.94L31.33 1.94Q31.33 4.61 29.76 5.80Q28.18 6.98 25.30 6.98L25.30 6.98L24.25 6.98L24.25 12L21.30 12L21.30-2.66Q21.73-2.76 22.27-2.83Q22.81-2.90 23.36-2.94Q23.91-2.98 24.44-3Q24.97-3.02 25.38-3.02ZM25.71-0.46L25.71-0.46Q25.45-0.46 24.98-0.44Q24.51-0.43 24.25-0.38L24.25-0.38L24.25 4.42L25.45 4.42Q26.86 4.42 27.58 3.85Q28.30 3.29 28.30 1.92L28.30 1.92Q28.30 0.62 27.60 0.08Q26.89-0.46 25.71-0.46ZM38.02 9.89L38.02 9.89Q38.50 9.89 38.96 9.88Q39.42 9.86 39.75 9.82L39.75 9.82L39.75 7.22Q39.46 7.18 39.06 7.14Q38.65 7.10 38.31 7.10L38.31 7.10Q37.86 7.10 37.42 7.16Q36.99 7.22 36.67 7.37Q36.34 7.51 36.15 7.78Q35.96 8.04 35.96 8.47L35.96 8.47Q35.96 9.24 36.54 9.56Q37.11 9.89 38.02 9.89ZM37.76 0.43L37.76 0.43Q39.15 0.43 40.08 0.76Q41 1.08 41.55 1.67Q42.10 2.26 42.34 3.11Q42.58 3.96 42.58 5.02L42.58 5.02L42.58 11.74Q41.94 11.88 40.66 12.07Q39.39 12.26 37.81 12.26L37.81 12.26Q36.73 12.26 35.85 12.07Q34.98 11.88 34.35 11.44Q33.73 10.99 33.39 10.28Q33.06 9.58 33.06 8.54L33.06 8.54Q33.06 7.56 33.44 6.89Q33.82 6.22 34.47 5.81Q35.12 5.40 35.96 5.22Q36.80 5.04 37.71 5.04L37.71 5.04Q38.86 5.04 39.75 5.23L39.75 5.23L39.75 4.87Q39.75 4.03 39.22 3.47Q38.70 2.90 37.40 2.90L37.40 2.90Q36.56 2.90 35.78 3.02Q35 3.14 34.52 3.31L34.52 3.31L34.11 0.94Q34.66 0.74 35.67 0.59Q36.68 0.43 37.76 0.43ZM55.02 0.98L54.49 3.72Q54.20 3.65 53.80 3.58Q53.41 3.50 53 3.44Q52.59 3.38 52.21 3.36Q51.82 3.34 51.56 3.34L51.56 3.34Q50.94 3.34 50.34 3.40Q49.74 3.46 49.11 3.62L49.11 3.62L49.11 12L46.14 12L46.14 1.46Q47.31 1.03 48.55 0.77Q49.78 0.50 51.44 0.50L51.44 0.50Q51.68 0.50 52.12 0.53Q52.57 0.55 53.07 0.61Q53.58 0.67 54.09 0.76Q54.61 0.84 55.02 0.98L55.02 0.98ZM67.02 0.98L66.49 3.72Q66.20 3.65 65.80 3.58Q65.41 3.50 65 3.44Q64.59 3.38 64.21 3.36Q63.82 3.34 63.56 3.34L63.56 3.34Q62.94 3.34 62.34 3.40Q61.74 3.46 61.11 3.62L61.11 3.62L61.11 12L58.14 12L58.14 1.46Q59.31 1.03 60.55 0.77Q61.78 0.50 63.44 0.50L63.44 0.50Q63.68 0.50 64.12 0.53Q64.57 0.55 65.07 0.61Q65.58 0.67 66.09 0.76Q66.61 0.84 67.02 0.98L67.02 0.98ZM79.33 6.34L79.33 6.34Q79.33 7.68 78.94 8.77Q78.56 9.86 77.86 10.66Q77.17 11.45 76.20 11.88Q75.22 12.31 74.02 12.31L74.02 12.31Q72.82 12.31 71.85 11.88Q70.88 11.45 70.17 10.66Q69.46 9.86 69.08 8.77Q68.70 7.68 68.70 6.34L68.70 6.34Q68.70 5.02 69.09 3.92Q69.49 2.83 70.20 2.05Q70.90 1.27 71.89 0.85Q72.87 0.43 74.02 0.43L74.02 0.43Q75.20 0.43 76.17 0.85Q77.14 1.27 77.85 2.05Q78.56 2.83 78.94 3.92Q79.33 5.02 79.33 6.34ZM71.70 6.36L71.70 6.36Q71.70 7.87 72.24 8.81Q72.78 9.74 73.98 9.74L73.98 9.74Q75.13 9.74 75.72 8.81Q76.30 7.87 76.30 6.36L76.30 6.36Q76.30 4.85 75.76 3.92Q75.22 3 74.02 3L74.02 3Q72.87 3 72.28 3.92Q71.70 4.85 71.70 6.36ZM83.43 7.80L83.43 3.17L80.86 3.17L80.86 0.72L83.43 0.72L83.43-2.11L86.38-2.59L86.38 0.72L91.11 0.72L91.11 3.17L86.38 3.17L86.38 7.73Q86.38 8.35 86.50 8.74Q86.62 9.12 86.84 9.34Q87.06 9.55 87.37 9.62Q87.68 9.70 88.06 9.70L88.06 9.70Q88.47 9.70 88.82 9.67Q89.17 9.65 89.49 9.59Q89.82 9.53 90.16 9.41Q90.51 9.29 90.92 9.10L90.92 9.10L91.33 11.64Q90.51 11.98 89.56 12.12Q88.62 12.26 87.73 12.26L87.73 12.26Q86.70 12.26 85.90 12.10Q85.11 11.93 84.56 11.45Q84.01 10.97 83.72 10.09Q83.43 9.22 83.43 7.80L83.43 7.80ZM114.73 12L105.30 12L105.30 9.55L108.54 9.55L108.54-0.41L105.30-0.41L105.30-2.86L114.73-2.86L114.73-0.41L111.51-0.41L111.51 9.55L114.73 9.55L114.73 12ZM117.51 12L117.51 1.08Q118.30 0.86 119.47 0.67Q120.63 0.48 122 0.48L122 0.48Q123.34 0.48 124.23 0.85Q125.12 1.22 125.64 1.91Q126.15 2.59 126.37 3.54Q126.58 4.49 126.58 5.64L126.58 5.64L126.58 12L123.63 12L123.63 6.02Q123.63 4.44 123.27 3.74Q122.91 3.05 121.81 3.05L121.81 3.05Q121.47 3.05 121.15 3.07Q120.82 3.10 120.46 3.14L120.46 3.14L120.46 12L117.51 12ZM131.43 7.80L131.43 3.17L128.86 3.17L128.86 0.72L131.43 0.72L131.43-2.11L134.38-2.59L134.38 0.72L139.11 0.72L139.11 3.17L134.38 3.17L134.38 7.73Q134.38 8.35 134.50 8.74Q134.62 9.12 134.84 9.34Q135.06 9.55 135.37 9.62Q135.68 9.70 136.06 9.70L136.06 9.70Q136.47 9.70 136.82 9.67Q137.17 9.65 137.49 9.59Q137.82 9.53 138.16 9.41Q138.51 9.29 138.92 9.10L138.92 9.10L139.33 11.64Q138.51 11.98 137.56 12.12Q136.62 12.26 135.73 12.26L135.73 12.26Q134.70 12.26 133.90 12.10Q133.11 11.93 132.56 11.45Q132.01 10.97 131.72 10.09Q131.43 9.22 131.43 7.80L131.43 7.80ZM140.74 6.46L140.74 6.46Q140.74 4.97 141.20 3.84Q141.66 2.71 142.40 1.96Q143.14 1.20 144.10 0.82Q145.06 0.43 146.07 0.43L146.07 0.43Q148.57 0.43 149.86 1.91Q151.16 3.38 151.16 6.22L151.16 6.22Q151.16 6.50 151.15 6.82Q151.14 7.13 151.11 7.32L151.11 7.32L143.79 7.32Q143.79 8.42 144.70 9.06Q145.62 9.70 147.06 9.70L147.06 9.70Q147.94 9.70 148.75 9.50Q149.55 9.31 150.10 9.12L150.10 9.12L150.51 11.64Q149.74 11.90 148.88 12.08Q148.02 12.26 146.94 12.26L146.94 12.26Q145.50 12.26 144.36 11.89Q143.22 11.52 142.41 10.79Q141.61 10.06 141.18 8.98Q140.74 7.90 140.74 6.46ZM143.79 5.28L148.30 5.28Q148.30 4.82 148.18 4.40Q148.06 3.98 147.80 3.65Q147.54 3.31 147.13 3.11Q146.72 2.90 146.12 2.90L146.12 2.90Q145.54 2.90 145.12 3.10Q144.70 3.29 144.43 3.62Q144.15 3.96 144.00 4.39Q143.84 4.82 143.79 5.28L143.79 5.28ZM163.02 0.98L162.49 3.72Q162.20 3.65 161.80 3.58Q161.41 3.50 161 3.44Q160.59 3.38 160.21 3.36Q159.82 3.34 159.56 3.34L159.56 3.34Q158.94 3.34 158.34 3.40Q157.74 3.46 157.11 3.62L157.11 3.62L157.11 12L154.14 12L154.14 1.46Q155.31 1.03 156.55 0.77Q157.78 0.50 159.44 0.50L159.44 0.50Q159.68 0.50 160.12 0.53Q160.57 0.55 161.07 0.61Q161.58 0.67 162.09 0.76Q162.61 0.84 163.02 0.98L163.02 0.98ZM165.51 12L165.51 1.08Q166.30 0.86 167.47 0.67Q168.63 0.48 170 0.48L170 0.48Q171.34 0.48 172.23 0.85Q173.12 1.22 173.64 1.91Q174.15 2.59 174.37 3.54Q174.58 4.49 174.58 5.64L174.58 5.64L174.58 12L171.63 12L171.63 6.02Q171.63 4.44 171.27 3.74Q170.91 3.05 169.81 3.05L169.81 3.05Q169.47 3.05 169.15 3.07Q168.82 3.10 168.46 3.14L168.46 3.14L168.46 12L165.51 12ZM182.02 9.89L182.02 9.89Q182.50 9.89 182.96 9.88Q183.42 9.86 183.75 9.82L183.75 9.82L183.75 7.22Q183.46 7.18 183.06 7.14Q182.65 7.10 182.31 7.10L182.31 7.10Q181.86 7.10 181.42 7.16Q180.99 7.22 180.67 7.37Q180.34 7.51 180.15 7.78Q179.96 8.04 179.96 8.47L179.96 8.47Q179.96 9.24 180.54 9.56Q181.11 9.89 182.02 9.89ZM181.76 0.43L181.76 0.43Q183.15 0.43 184.08 0.76Q185 1.08 185.55 1.67Q186.10 2.26 186.34 3.11Q186.58 3.96 186.58 5.02L186.58 5.02L186.58 11.74Q185.94 11.88 184.66 12.07Q183.39 12.26 181.81 12.26L181.81 12.26Q180.73 12.26 179.85 12.07Q178.98 11.88 178.35 11.44Q177.73 10.99 177.39 10.28Q177.06 9.58 177.06 8.54L177.06 8.54Q177.06 7.56 177.44 6.89Q177.82 6.22 178.47 5.81Q179.12 5.40 179.96 5.22Q180.80 5.04 181.71 5.04L181.71 5.04Q182.86 5.04 183.75 5.23L183.75 5.23L183.75 4.87Q183.75 4.03 183.22 3.47Q182.70 2.90 181.40 2.90L181.40 2.90Q180.56 2.90 179.78 3.02Q179 3.14 178.52 3.31L178.52 3.31L178.11 0.94Q178.66 0.74 179.67 0.59Q180.68 0.43 181.76 0.43ZM198.82 9.14L199.21 11.52Q199.14 11.57 198.88 11.69Q198.63 11.81 198.22 11.94Q197.82 12.07 197.23 12.17Q196.64 12.26 195.90 12.26L195.90 12.26Q193.86 12.26 192.92 11.05Q191.98 9.84 191.98 7.51L191.98 7.51L191.98-2.06L188.86-2.06L188.86-4.51L194.94-4.51L194.94 7.73Q194.94 8.88 195.39 9.29Q195.85 9.70 196.54 9.70L196.54 9.70Q197.43 9.70 198.03 9.46Q198.63 9.22 198.82 9.14L198.82 9.14ZM217.14-3.02L217.14-3.02Q218.41-3.02 219.44-2.74Q220.47-2.45 221.22-1.85Q221.96-1.25 222.36-0.32Q222.75 0.60 222.75 1.85L222.75 1.85Q222.75 3.14 222.22 4.20Q221.70 5.26 220.47 5.81L220.47 5.81Q220.88 6.43 221.34 7.19Q221.79 7.94 222.22 8.77Q222.66 9.60 223.05 10.43Q223.45 11.26 223.74 12L223.74 12L220.64 12Q220.09 10.56 219.36 9.23Q218.62 7.90 217.78 6.53L217.78 6.53L216.25 6.53L216.25 12L213.30 12L213.30-2.64Q213.73-2.74 214.24-2.82Q214.76-2.90 215.29-2.94Q215.82-2.98 216.30-3Q216.78-3.02 217.14-3.02ZM219.75 1.82L219.75 1.82Q219.75 0.65 219.03 0.10Q218.31-0.46 217.14-0.46L217.14-0.46Q216.97-0.46 216.73-0.44Q216.49-0.43 216.25-0.38L216.25-0.38L216.25 4.08L216.90 4.08Q218.41 4.08 219.08 3.49Q219.75 2.90 219.75 1.82ZM224.74 6.46L224.74 6.46Q224.74 4.97 225.20 3.84Q225.66 2.71 226.40 1.96Q227.14 1.20 228.10 0.82Q229.06 0.43 230.07 0.43L230.07 0.43Q232.57 0.43 233.86 1.91Q235.16 3.38 235.16 6.22L235.16 6.22Q235.16 6.50 235.15 6.82Q235.14 7.13 235.11 7.32L235.11 7.32L227.79 7.32Q227.79 8.42 228.70 9.06Q229.62 9.70 231.06 9.70L231.06 9.70Q231.94 9.70 232.75 9.50Q233.55 9.31 234.10 9.12L234.10 9.12L234.51 11.64Q233.74 11.90 232.88 12.08Q232.02 12.26 230.94 12.26L230.94 12.26Q229.50 12.26 228.36 11.89Q227.22 11.52 226.41 10.79Q225.61 10.06 225.18 8.98Q224.74 7.90 224.74 6.46ZM227.79 5.28L232.30 5.28Q232.30 4.82 232.18 4.40Q232.06 3.98 231.80 3.65Q231.54 3.31 231.13 3.11Q230.72 2.90 230.12 2.90L230.12 2.90Q229.54 2.90 229.12 3.10Q228.70 3.29 228.43 3.62Q228.15 3.96 228.00 4.39Q227.84 4.82 227.79 5.28L227.79 5.28ZM244.26 6.46L244.26 6.46Q244.26 4.94 243.66 3.97Q243.06 3 241.83 3L241.83 3Q241.50 3 241.11 3.04Q240.73 3.07 240.46 3.10L240.46 3.10L240.46 9.29Q240.75 9.48 241.23 9.60Q241.71 9.72 242.19 9.72L242.19 9.72Q243.25 9.72 243.75 8.87Q244.26 8.02 244.26 6.46ZM247.26 6.36L247.26 6.36Q247.26 7.66 246.97 8.75Q246.68 9.84 246.13 10.62Q245.58 11.40 244.74 11.83Q243.90 12.26 242.79 12.26L242.79 12.26Q241.66 12.26 240.46 11.71L240.46 11.71L240.46 15.96L237.51 15.96L237.51 1.08Q238.33 0.82 239.52 0.65Q240.70 0.48 241.86 0.48L241.86 0.48Q244.47 0.48 245.86 2.06Q247.26 3.65 247.26 6.36ZM259.02 0.98L258.49 3.72Q258.20 3.65 257.80 3.58Q257.41 3.50 257 3.44Q256.59 3.38 256.21 3.36Q255.82 3.34 255.56 3.34L255.56 3.34Q254.94 3.34 254.34 3.40Q253.74 3.46 253.11 3.62L253.11 3.62L253.11 12L250.14 12L250.14 1.46Q251.31 1.03 252.55 0.77Q253.78 0.50 255.44 0.50L255.44 0.50Q255.68 0.50 256.12 0.53Q256.57 0.55 257.07 0.61Q257.58 0.67 258.09 0.76Q258.61 0.84 259.02 0.98L259.02 0.98ZM260.74 6.46L260.74 6.46Q260.74 4.97 261.20 3.84Q261.66 2.71 262.40 1.96Q263.14 1.20 264.10 0.82Q265.06 0.43 266.07 0.43L266.07 0.43Q268.57 0.43 269.86 1.91Q271.16 3.38 271.16 6.22L271.16 6.22Q271.16 6.50 271.15 6.82Q271.14 7.13 271.11 7.32L271.11 7.32L263.79 7.32Q263.79 8.42 264.70 9.06Q265.62 9.70 267.06 9.70L267.06 9.70Q267.94 9.70 268.75 9.50Q269.55 9.31 270.10 9.12L270.10 9.12L270.51 11.64Q269.74 11.90 268.88 12.08Q268.02 12.26 266.94 12.26L266.94 12.26Q265.50 12.26 264.36 11.89Q263.22 11.52 262.41 10.79Q261.61 10.06 261.18 8.98Q260.74 7.90 260.74 6.46ZM263.79 5.28L268.30 5.28Q268.30 4.82 268.18 4.40Q268.06 3.98 267.80 3.65Q267.54 3.31 267.13 3.11Q266.72 2.90 266.12 2.90L266.12 2.90Q265.54 2.90 265.12 3.10Q264.70 3.29 264.43 3.62Q264.15 3.96 264.00 4.39Q263.84 4.82 263.79 5.28L263.79 5.28ZM277.47 9.77L277.47 9.77Q278.55 9.77 279.13 9.61Q279.70 9.46 279.70 8.98L279.70 8.98Q279.70 8.66 279.52 8.45Q279.34 8.23 279.02 8.08Q278.70 7.92 278.28 7.78Q277.86 7.63 277.40 7.49L277.40 7.49Q276.75 7.30 276.08 7.04Q275.41 6.79 274.86 6.41Q274.30 6.02 273.94 5.44Q273.58 4.85 273.58 3.96L273.58 3.96Q273.58 3.24 273.86 2.60Q274.14 1.97 274.72 1.48Q275.31 0.98 276.22 0.71Q277.14 0.43 278.41 0.43L278.41 0.43Q279.51 0.43 280.46 0.60Q281.41 0.77 282.10 1.08L282.10 1.08L281.65 3.58Q281.24 3.46 280.38 3.18Q279.51 2.90 278.43 2.90L278.43 2.90Q277.30 2.90 276.91 3.18Q276.51 3.46 276.51 3.77L276.51 3.77Q276.51 4.03 276.69 4.24Q276.87 4.44 277.17 4.61Q277.47 4.78 277.87 4.93Q278.26 5.09 278.72 5.23L278.72 5.23Q279.37 5.45 280.06 5.71Q280.76 5.98 281.32 6.37Q281.89 6.77 282.25 7.38Q282.61 7.99 282.61 8.88L282.61 8.88Q282.61 9.58 282.34 10.20Q282.08 10.82 281.47 11.28Q280.86 11.74 279.87 12Q278.89 12.26 277.45 12.26L277.45 12.26Q275.98 12.26 274.95 11.93Q273.92 11.59 273.30 11.33L273.30 11.33L273.75 8.86Q274.59 9.19 275.54 9.48Q276.49 9.77 277.47 9.77ZM284.74 6.46L284.74 6.46Q284.74 4.97 285.20 3.84Q285.66 2.71 286.40 1.96Q287.14 1.20 288.10 0.82Q289.06 0.43 290.07 0.43L290.07 0.43Q292.57 0.43 293.86 1.91Q295.16 3.38 295.16 6.22L295.16 6.22Q295.16 6.50 295.15 6.82Q295.14 7.13 295.11 7.32L295.11 7.32L287.79 7.32Q287.79 8.42 288.70 9.06Q289.62 9.70 291.06 9.70L291.06 9.70Q291.94 9.70 292.75 9.50Q293.55 9.31 294.10 9.12L294.10 9.12L294.51 11.64Q293.74 11.90 292.88 12.08Q292.02 12.26 290.94 12.26L290.94 12.26Q289.50 12.26 288.36 11.89Q287.22 11.52 286.41 10.79Q285.61 10.06 285.18 8.98Q284.74 7.90 284.74 6.46ZM287.79 5.28L292.30 5.28Q292.30 4.82 292.18 4.40Q292.06 3.98 291.80 3.65Q291.54 3.31 291.13 3.11Q290.72 2.90 290.12 2.90L290.12 2.90Q289.54 2.90 289.12 3.10Q288.70 3.29 288.43 3.62Q288.15 3.96 288.00 4.39Q287.84 4.82 287.79 5.28L287.79 5.28ZM297.51 12L297.51 1.08Q298.30 0.86 299.47 0.67Q300.63 0.48 302 0.48L302 0.48Q303.34 0.48 304.23 0.85Q305.12 1.22 305.64 1.91Q306.15 2.59 306.37 3.54Q306.58 4.49 306.58 5.64L306.58 5.64L306.58 12L303.63 12L303.63 6.02Q303.63 4.44 303.27 3.74Q302.91 3.05 301.81 3.05L301.81 3.05Q301.47 3.05 301.15 3.07Q300.82 3.10 300.46 3.14L300.46 3.14L300.46 12L297.51 12ZM311.43 7.80L311.43 3.17L308.86 3.17L308.86 0.72L311.43 0.72L311.43-2.11L314.38-2.59L314.38 0.72L319.11 0.72L319.11 3.17L314.38 3.17L314.38 7.73Q314.38 8.35 314.50 8.74Q314.62 9.12 314.84 9.34Q315.06 9.55 315.37 9.62Q315.68 9.70 316.06 9.70L316.06 9.70Q316.47 9.70 316.82 9.67Q317.17 9.65 317.49 9.59Q317.82 9.53 318.16 9.41Q318.51 9.29 318.92 9.10L318.92 9.10L319.33 11.64Q318.51 11.98 317.56 12.12Q316.62 12.26 315.73 12.26L315.73 12.26Q314.70 12.26 313.90 12.10Q313.11 11.93 312.56 11.45Q312.01 10.97 311.72 10.09Q311.43 9.22 311.43 7.80L311.43 7.80ZM326.02 9.89L326.02 9.89Q326.50 9.89 326.96 9.88Q327.42 9.86 327.75 9.82L327.75 9.82L327.75 7.22Q327.46 7.18 327.06 7.14Q326.65 7.10 326.31 7.10L326.31 7.10Q325.86 7.10 325.42 7.16Q324.99 7.22 324.67 7.37Q324.34 7.51 324.15 7.78Q323.96 8.04 323.96 8.47L323.96 8.47Q323.96 9.24 324.54 9.56Q325.11 9.89 326.02 9.89ZM325.76 0.43L325.76 0.43Q327.15 0.43 328.08 0.76Q329 1.08 329.55 1.67Q330.10 2.26 330.34 3.11Q330.58 3.96 330.58 5.02L330.58 5.02L330.58 11.74Q329.94 11.88 328.66 12.07Q327.39 12.26 325.81 12.26L325.81 12.26Q324.73 12.26 323.85 12.07Q322.98 11.88 322.35 11.44Q321.73 10.99 321.39 10.28Q321.06 9.58 321.06 8.54L321.06 8.54Q321.06 7.56 321.44 6.89Q321.82 6.22 322.47 5.81Q323.12 5.40 323.96 5.22Q324.80 5.04 325.71 5.04L325.71 5.04Q326.86 5.04 327.75 5.23L327.75 5.23L327.75 4.87Q327.75 4.03 327.22 3.47Q326.70 2.90 325.40 2.90L325.40 2.90Q324.56 2.90 323.78 3.02Q323 3.14 322.52 3.31L322.52 3.31L322.11 0.94Q322.66 0.74 323.67 0.59Q324.68 0.43 325.76 0.43ZM335.43 7.80L335.43 3.17L332.86 3.17L332.86 0.72L335.43 0.72L335.43-2.11L338.38-2.59L338.38 0.72L343.11 0.72L343.11 3.17L338.38 3.17L338.38 7.73Q338.38 8.35 338.50 8.74Q338.62 9.12 338.84 9.34Q339.06 9.55 339.37 9.62Q339.68 9.70 340.06 9.70L340.06 9.70Q340.47 9.70 340.82 9.67Q341.17 9.65 341.49 9.59Q341.82 9.53 342.16 9.41Q342.51 9.29 342.92 9.10L342.92 9.10L343.33 11.64Q342.51 11.98 341.56 12.12Q340.62 12.26 339.73 12.26L339.73 12.26Q338.70 12.26 337.90 12.10Q337.11 11.93 336.56 11.45Q336.01 10.97 335.72 10.09Q335.43 9.22 335.43 7.80L335.43 7.80ZM350.82-2.52L350.82-2.52Q350.82-1.66 350.26-1.15Q349.71-0.65 348.94-0.65L348.94-0.65Q348.18-0.65 347.64-1.15Q347.10-1.66 347.10-2.52L347.10-2.52Q347.10-3.41 347.64-3.91Q348.18-4.42 348.94-4.42L348.94-4.42Q349.71-4.42 350.26-3.91Q350.82-3.41 350.82-2.52ZM354.82 9.14L355.21 11.52Q354.30 11.95 353.49 12.11Q352.69 12.26 352.02 12.26L352.02 12.26Q350.86 12.26 350.08 11.93Q349.30 11.59 348.84 10.96Q348.37 10.32 348.18 9.41Q347.98 8.50 347.98 7.32L347.98 7.32L347.98 3.17L344.86 3.17L344.86 0.72L350.94 0.72L350.94 7.70Q350.94 8.71 351.31 9.20Q351.68 9.70 352.54 9.70L352.54 9.70Q352.95 9.70 353.53 9.59Q354.10 9.48 354.82 9.14L354.82 9.14ZM367.33 6.34L367.33 6.34Q367.33 7.68 366.94 8.77Q366.56 9.86 365.86 10.66Q365.17 11.45 364.20 11.88Q363.22 12.31 362.02 12.31L362.02 12.31Q360.82 12.31 359.85 11.88Q358.88 11.45 358.17 10.66Q357.46 9.86 357.08 8.77Q356.70 7.68 356.70 6.34L356.70 6.34Q356.70 5.02 357.09 3.92Q357.49 2.83 358.20 2.05Q358.90 1.27 359.89 0.85Q360.87 0.43 362.02 0.43L362.02 0.43Q363.20 0.43 364.17 0.85Q365.14 1.27 365.85 2.05Q366.56 2.83 366.94 3.92Q367.33 5.02 367.33 6.34ZM359.70 6.36L359.70 6.36Q359.70 7.87 360.24 8.81Q360.78 9.74 361.98 9.74L361.98 9.74Q363.13 9.74 363.72 8.81Q364.30 7.87 364.30 6.36L364.30 6.36Q364.30 4.85 363.76 3.92Q363.22 3 362.02 3L362.02 3Q360.87 3 360.28 3.92Q359.70 4.85 359.70 6.36ZM369.51 12L369.51 1.08Q370.30 0.86 371.47 0.67Q372.63 0.48 374 0.48L374 0.48Q375.34 0.48 376.23 0.85Q377.12 1.22 377.64 1.91Q378.15 2.59 378.37 3.54Q378.58 4.49 378.58 5.64L378.58 5.64L378.58 12L375.63 12L375.63 6.02Q375.63 4.44 375.27 3.74Q374.91 3.05 373.81 3.05L373.81 3.05Q373.47 3.05 373.15 3.07Q372.82 3.10 372.46 3.14L372.46 3.14L372.46 12L369.51 12Z"/>
    </g>
</svg>