<?xml version="1.0" encoding="UTF-8"?>
<svg height="34" width="205.29999999999998" version="1.1" xmlns="http://www.w3.org/2000/svg">
    <rect
        height="32"
        width="203.29999999999998"
        rx="1"
        ry="1"
        x="1"
        y="1"
        fill="#2ACCA8"
        stroke="#104c3f"
        stroke-width="1"
         />
    <g transform="translate(0, 14)">
        <path fill="#104c3f" d="M23.75 11L20.05 11L19.24 7.00L14.62 7.00L13.84 11L10.25 11Q11.48 5.88 12.74 1.66Q14.00-2.55 15.18-6.33L15.18-6.33L18.93-6.33Q20.16-2.52 21.38 1.75Q22.60 6.02 23.75 11L23.75 11ZM16.97-2.97L16.97-2.97Q16.69-1.99 16.45-1.11Q16.22-0.23 16.01 0.63Q15.80 1.48 15.61 2.35Q15.43 3.22 15.26 4.14L15.26 4.14L18.65 4.14Q18.48 3.22 18.32 2.35Q18.15 1.48 17.94 0.63Q17.73-0.23 17.49-1.11Q17.25-1.99 16.97-2.97ZM30.27-6.53L30.27-6.53Q33.58-6.53 35.40-5.17Q37.22-3.81 37.22-0.73L37.22-0.73Q37.22 2.38 35.38 3.76Q33.55 5.15 30.19 5.15L30.19 5.15L28.96 5.15L28.96 11L25.51 11L25.51-6.11Q26.02-6.22 26.65-6.30Q27.28-6.39 27.92-6.43Q28.56-6.47 29.18-6.50Q29.80-6.53 30.27-6.53ZM30.66-3.53L30.66-3.53Q30.36-3.53 29.81-3.52Q29.26-3.50 28.96-3.45L28.96-3.45L28.96 2.15L30.36 2.15Q32.01 2.15 32.85 1.49Q33.69 0.84 33.69-0.76L33.69-0.76Q33.69-2.27 32.86-2.90Q32.04-3.53 30.66-3.53ZM50.52 11L39.51 11L39.51 8.14L43.29 8.14L43.29-3.48L39.51-3.48L39.51-6.33L50.52-6.33L50.52-3.48L46.76-3.48L46.76 8.14L50.52 8.14L50.52 11ZM79.13 5.76L79.13 5.76Q79.13 7.33 78.60 8.38Q78.07 9.43 77.16 10.06Q76.25 10.69 75.00 10.96Q73.76 11.22 72.33 11.22L72.33 11.22Q71.18 11.22 69.95 11.10Q68.72 10.97 67.51 10.72L67.51 10.72L67.51-6.11Q68.49-6.28 69.67-6.40Q70.84-6.53 71.99-6.53L71.99-6.53Q73.95-6.53 75.18-6.12Q76.42-5.72 77.12-5.06Q77.82-4.40 78.07-3.59Q78.32-2.78 78.32-1.96L78.32-1.96Q78.32-0.73 77.72 0.22Q77.12 1.17 76.11 1.73L76.11 1.73Q77.87 2.38 78.50 3.47Q79.13 4.56 79.13 5.76ZM72.80 3.41L70.96 3.41L70.96 8.12Q71.32 8.17 71.75 8.20Q72.19 8.23 72.61 8.23L72.61 8.23Q73.20 8.23 73.76 8.13Q74.32 8.03 74.75 7.77Q75.18 7.50 75.46 7.01Q75.74 6.52 75.74 5.76L75.74 5.76Q75.74 4.50 74.95 3.96Q74.15 3.41 72.80 3.41L72.80 3.41ZM70.96 0.56L72.30 0.56Q73.62 0.56 74.29-0.02Q74.96-0.59 74.96-1.60L74.96-1.60Q74.96-2.22 74.76-2.59Q74.57-2.97 74.23-3.18Q73.90-3.39 73.45-3.46Q73-3.53 72.52-3.53L72.52-3.53Q72.13-3.53 71.71-3.50Q71.29-3.48 70.96-3.42L70.96-3.42L70.96 0.56ZM92.63 7.67L93.08 10.44Q92.99 10.50 92.70 10.64Q92.40 10.78 91.93 10.93Q91.45 11.08 90.77 11.20Q90.08 11.31 89.21 11.31L89.21 11.31Q86.83 11.31 85.74 9.89Q84.65 8.48 84.65 5.76L84.65 5.76L84.65-5.41L81.01-5.41L81.01-8.26L88.09-8.26L88.09 6.02Q88.09 7.36 88.62 7.84Q89.16 8.31 89.97 8.31L89.97 8.31Q91.00 8.31 91.70 8.03Q92.40 7.75 92.63 7.67L92.63 7.67ZM106.26-2.16L106.26 10.55Q105.31 10.80 103.95 11.06Q102.60 11.31 101 11.31L101 11.31Q99.38 11.31 98.34 10.86Q97.30 10.41 96.70 9.59Q96.10 8.76 95.88 7.64Q95.65 6.52 95.65 5.18L95.65 5.18L95.65-2.16L99.10-2.16L99.10 4.73Q99.10 6.55 99.53 7.43Q99.96 8.31 101.22 8.31L101.22 8.31Q102.01 8.31 102.79 8.17L102.79 8.17L102.79-2.16L106.26-2.16ZM108.87 4.53L108.87 4.53Q108.87 2.80 109.40 1.48Q109.93 0.16 110.80-0.72Q111.67-1.60 112.79-2.05Q113.91-2.50 115.08-2.50L115.08-2.50Q118.00-2.50 119.51-0.77Q121.02 0.95 121.02 4.25L121.02 4.25Q121.02 4.59 121.01 4.95Q120.99 5.32 120.96 5.54L120.96 5.54L112.42 5.54Q112.42 6.83 113.49 7.57Q114.55 8.31 116.23 8.31L116.23 8.31Q117.27 8.31 118.21 8.09Q119.14 7.86 119.79 7.64L119.79 7.64L120.26 10.58Q119.37 10.89 118.36 11.10Q117.35 11.31 116.09 11.31L116.09 11.31Q114.41 11.31 113.08 10.87Q111.75 10.44 110.81 9.59Q109.88 8.73 109.37 7.47Q108.87 6.21 108.87 4.53ZM112.42 3.16L117.69 3.16Q117.69 2.63 117.55 2.14Q117.41 1.65 117.10 1.26Q116.79 0.86 116.32 0.63Q115.84 0.39 115.14 0.39L115.14 0.39Q114.47 0.39 113.98 0.61Q113.49 0.84 113.17 1.23Q112.84 1.62 112.66 2.12Q112.48 2.63 112.42 3.16L112.42 3.16ZM131.63 4.53L131.63 4.53Q131.63 2.77 130.93 1.63Q130.23 0.50 128.80 0.50L128.80 0.50Q128.41 0.50 127.96 0.54Q127.52 0.58 127.21 0.61L127.21 0.61L127.21 7.84Q127.54 8.06 128.10 8.20Q128.66 8.34 129.22 8.34L129.22 8.34Q130.46 8.34 131.04 7.35Q131.63 6.35 131.63 4.53ZM135.13 4.42L135.13 4.42Q135.13 5.93 134.80 7.21Q134.46 8.48 133.82 9.39Q133.17 10.30 132.19 10.80Q131.21 11.31 129.92 11.31L129.92 11.31Q128.61 11.31 127.21 10.66L127.21 10.66L127.21 15.62L123.76 15.62L123.76-1.74Q124.72-2.05 126.10-2.24Q127.49-2.44 128.83-2.44L128.83-2.44Q131.88-2.44 133.51-0.59Q135.13 1.26 135.13 4.42ZM148.85-1.85L148.24 1.34Q147.90 1.26 147.44 1.17Q146.98 1.09 146.50 1.02Q146.02 0.95 145.58 0.92Q145.13 0.89 144.82 0.89L144.82 0.89Q144.09 0.89 143.39 0.96Q142.69 1.03 141.96 1.23L141.96 1.23L141.96 11L138.49 11L138.49-1.29Q139.86-1.80 141.31-2.10Q142.75-2.41 144.68-2.41L144.68-2.41Q144.96-2.41 145.48-2.38Q146.00-2.36 146.58-2.29Q147.17-2.22 147.77-2.12Q148.38-2.02 148.85-1.85L148.85-1.85ZM157.95-5.94L157.95-5.94Q157.95-4.93 157.31-4.34Q156.66-3.76 155.77-3.76L155.77-3.76Q154.87-3.76 154.24-4.34Q153.61-4.93 153.61-5.94L153.61-5.94Q153.61-6.98 154.24-7.56Q154.87-8.15 155.77-8.15L155.77-8.15Q156.66-8.15 157.31-7.56Q157.95-6.98 157.95-5.94ZM162.63 7.67L163.08 10.44Q162.01 10.94 161.07 11.13Q160.14 11.31 159.35 11.31L159.35 11.31Q158.01 11.31 157.10 10.92Q156.19 10.52 155.64 9.78Q155.10 9.04 154.87 7.98Q154.65 6.91 154.65 5.54L154.65 5.54L154.65 0.70L151.01 0.70L151.01-2.16L158.09-2.16L158.09 5.99Q158.09 7.16 158.53 7.74Q158.96 8.31 159.97 8.31L159.97 8.31Q160.44 8.31 161.12 8.19Q161.79 8.06 162.63 7.67L162.63 7.67ZM165.76 11L165.76-1.74Q166.69-1.99 168.05-2.22Q169.40-2.44 171-2.44L171-2.44Q172.57-2.44 173.60-2.01Q174.64-1.57 175.24-0.77Q175.84 0.02 176.10 1.13Q176.35 2.24 176.35 3.58L176.35 3.58L176.35 11L172.90 11L172.90 4.03Q172.90 2.18 172.48 1.37Q172.06 0.56 170.78 0.56L170.78 0.56Q170.38 0.56 170.01 0.58Q169.63 0.61 169.21 0.67L169.21 0.67L169.21 11L165.76 11ZM182.00 6.10L182.00 0.70L179.01 0.70L179.01-2.16L182.00-2.16L182.00-5.46L185.45-6.02L185.45-2.16L190.96-2.16L190.96 0.70L185.45 0.70L185.45 6.02Q185.45 6.74 185.59 7.19Q185.73 7.64 185.98 7.89Q186.23 8.14 186.60 8.23Q186.96 8.31 187.41 8.31L187.41 8.31Q187.88 8.31 188.29 8.28Q188.70 8.26 189.07 8.19Q189.45 8.12 189.86 7.98Q190.26 7.84 190.74 7.61L190.74 7.61L191.22 10.58Q190.26 10.97 189.16 11.14Q188.05 11.31 187.02 11.31L187.02 11.31Q185.81 11.31 184.89 11.11Q183.96 10.92 183.32 10.36Q182.68 9.80 182.34 8.77Q182.00 7.75 182.00 6.10L182.00 6.10Z"/>
    </g>
</svg>