<?xml version="1.0" encoding="UTF-8"?>
<svg height="34" width="78.4" version="1.1" xmlns="http://www.w3.org/2000/svg">
    <rect
        height="32"
        width="76.4"
        rx="14"
        ry="14"
        x="1"
        y="1"
        fill="#1F1F1F"
        stroke="#6b6b6b"
        stroke-width="1"
         />
    <g transform="translate(0, 14)">
        <path fill="#6b6b6b" d="M18.76 11L15.21 11Q14.54 9.07 13.78 6.63Q13.02 4.20 12.35 1.77Q11.68-0.65 11.15-2.80Q10.62-4.96 10.36-6.33L10.36-6.33L14.00-6.33Q14.17-4.99 14.51-3.21Q14.84-1.43 15.25 0.46Q15.66 2.35 16.12 4.18Q16.58 6.02 17.03 7.47L17.03 7.47Q17.48 6.04 17.92 4.21Q18.37 2.38 18.76 0.49Q19.16-1.40 19.49-3.20Q19.83-4.99 20.05-6.33L20.05-6.33L23.66-6.33Q23.33-4.65 22.84-2.58Q22.35-0.51 21.72 1.77Q21.09 4.06 20.33 6.42Q19.58 8.79 18.76 11L18.76 11ZM37.22 4.39L37.22 4.39Q37.22 5.96 36.77 7.23Q36.32 8.51 35.51 9.43Q34.70 10.36 33.56 10.86Q32.43 11.36 31.03 11.36L31.03 11.36Q29.63 11.36 28.49 10.86Q27.36 10.36 26.53 9.43Q25.71 8.51 25.26 7.23Q24.81 5.96 24.81 4.39L24.81 4.39Q24.81 2.85 25.27 1.58Q25.74 0.30 26.56-0.61Q27.39-1.52 28.54-2.01Q29.68-2.50 31.03-2.50L31.03-2.50Q32.40-2.50 33.53-2.01Q34.67-1.52 35.49-0.61Q36.32 0.30 36.77 1.58Q37.22 2.85 37.22 4.39ZM28.31 4.42L28.31 4.42Q28.31 6.18 28.94 7.28Q29.57 8.37 30.97 8.37L30.97 8.37Q32.32 8.37 33.00 7.28Q33.69 6.18 33.69 4.42L33.69 4.42Q33.69 2.66 33.06 1.58Q32.43 0.50 31.03 0.50L31.03 0.50Q29.68 0.50 29.00 1.58Q28.31 2.66 28.31 4.42ZM50.63 7.67L51.08 10.44Q50.99 10.50 50.70 10.64Q50.40 10.78 49.93 10.93Q49.45 11.08 48.77 11.20Q48.08 11.31 47.21 11.31L47.21 11.31Q44.83 11.31 43.74 9.89Q42.65 8.48 42.65 5.76L42.65 5.76L42.65-5.41L39.01-5.41L39.01-8.26L46.09-8.26L46.09 6.02Q46.09 7.36 46.62 7.84Q47.16 8.31 47.97 8.31L47.97 8.31Q49.00 8.31 49.70 8.03Q50.40 7.75 50.63 7.67L50.63 7.67ZM56.00 6.10L56.00 0.70L53.01 0.70L53.01-2.16L56.00-2.16L56.00-5.46L59.45-6.02L59.45-2.16L64.96-2.16L64.96 0.70L59.45 0.70L59.45 6.02Q59.45 6.74 59.59 7.19Q59.73 7.64 59.98 7.89Q60.23 8.14 60.60 8.23Q60.96 8.31 61.41 8.31L61.41 8.31Q61.88 8.31 62.29 8.28Q62.70 8.26 63.07 8.19Q63.45 8.12 63.86 7.98Q64.26 7.84 64.74 7.61L64.74 7.61L65.22 10.58Q64.26 10.97 63.16 11.14Q62.05 11.31 61.02 11.31L61.02 11.31Q59.81 11.31 58.89 11.11Q57.96 10.92 57.32 10.36Q56.68 9.80 56.34 8.77Q56.00 7.75 56.00 6.10L56.00 6.10Z"/>
    </g>
</svg>