<?xml version="1.0" encoding="UTF-8"?>
<svg height="34" width="92.5" version="1.1" xmlns="http://www.w3.org/2000/svg">
    <rect
        height="32"
        width="90.5"
        rx="14"
        ry="14"
        x="1"
        y="1"
        fill="#403a40"
        stroke="#908490"
        stroke-width="1"
         />
    <g transform="translate(0, 14)">
        <path fill="#908490" d="M14.20-2.16L17.11 1.96L19.80-2.16L23.30-2.16L19.04 4.17Q19.72 4.98 20.36 5.89Q21.00 6.80 21.59 7.72Q22.18 8.65 22.66 9.49Q23.13 10.33 23.47 11L23.47 11L19.88 11Q19.13 9.57 18.37 8.45Q17.62 7.33 16.94 6.44L16.94 6.44Q16.10 7.56 15.43 8.62Q14.76 9.68 14.06 11L14.06 11L10.56 11Q10.98 10.22 11.53 9.36Q12.07 8.51 12.67 7.63Q13.28 6.74 13.93 5.88Q14.59 5.01 15.21 4.22L15.21 4.22L10.59-2.16L14.20-2.16ZM37.13 5.76L37.13 5.76Q37.13 7.33 36.60 8.38Q36.07 9.43 35.16 10.06Q34.25 10.69 33.00 10.96Q31.76 11.22 30.33 11.22L30.33 11.22Q29.18 11.22 27.95 11.10Q26.72 10.97 25.51 10.72L25.51 10.72L25.51-6.11Q26.49-6.28 27.67-6.40Q28.84-6.53 29.99-6.53L29.99-6.53Q31.95-6.53 33.18-6.12Q34.42-5.72 35.12-5.06Q35.82-4.40 36.07-3.59Q36.32-2.78 36.32-1.96L36.32-1.96Q36.32-0.73 35.72 0.22Q35.12 1.17 34.11 1.73L34.11 1.73Q35.87 2.38 36.50 3.47Q37.13 4.56 37.13 5.76ZM30.80 3.41L28.96 3.41L28.96 8.12Q29.32 8.17 29.75 8.20Q30.19 8.23 30.61 8.23L30.61 8.23Q31.20 8.23 31.76 8.13Q32.32 8.03 32.75 7.77Q33.18 7.50 33.46 7.01Q33.74 6.52 33.74 5.76L33.74 5.76Q33.74 4.50 32.95 3.96Q32.15 3.41 30.80 3.41L30.80 3.41ZM28.96 0.56L30.30 0.56Q31.62 0.56 32.29-0.02Q32.96-0.59 32.96-1.60L32.96-1.60Q32.96-2.22 32.76-2.59Q32.57-2.97 32.23-3.18Q31.90-3.39 31.45-3.46Q31-3.53 30.52-3.53L30.52-3.53Q30.13-3.53 29.71-3.50Q29.29-3.48 28.96-3.42L28.96-3.42L28.96 0.56ZM45.03 8.54L45.03 8.54Q45.59 8.54 46.12 8.52Q46.65 8.51 47.04 8.45L47.04 8.45L47.04 5.43Q46.71 5.37 46.23 5.33Q45.76 5.29 45.36 5.29L45.36 5.29Q44.83 5.29 44.33 5.36Q43.82 5.43 43.45 5.60Q43.07 5.76 42.84 6.07Q42.62 6.38 42.62 6.88L42.62 6.88Q42.62 7.78 43.29 8.16Q43.96 8.54 45.03 8.54ZM44.72-2.50L44.72-2.50Q46.34-2.50 47.42-2.12Q48.50-1.74 49.14-1.05Q49.79-0.37 50.07 0.63Q50.35 1.62 50.35 2.85L50.35 2.85L50.35 10.69Q49.59 10.86 48.11 11.08Q46.62 11.31 44.78 11.31L44.78 11.31Q43.52 11.31 42.49 11.08Q41.47 10.86 40.74 10.34Q40.02 9.82 39.62 9.00Q39.23 8.17 39.23 6.97L39.23 6.97Q39.23 5.82 39.68 5.04Q40.13 4.25 40.88 3.78Q41.64 3.30 42.62 3.09Q43.60 2.88 44.66 2.88L44.66 2.88Q46.01 2.88 47.04 3.10L47.04 3.10L47.04 2.68Q47.04 1.70 46.43 1.05Q45.81 0.39 44.30 0.39L44.30 0.39Q43.32 0.39 42.41 0.53Q41.50 0.67 40.94 0.86L40.94 0.86L40.46-1.91Q41.11-2.13 42.28-2.31Q43.46-2.50 44.72-2.50ZM58.38 8.40L58.38 8.40Q59.64 8.40 60.32 8.21Q60.99 8.03 60.99 7.47L60.99 7.47Q60.99 7.11 60.78 6.86Q60.57 6.60 60.19 6.42Q59.81 6.24 59.32 6.07Q58.83 5.90 58.30 5.74L58.30 5.74Q57.54 5.51 56.76 5.22Q55.98 4.92 55.33 4.48Q54.69 4.03 54.27 3.34Q53.85 2.66 53.85 1.62L53.85 1.62Q53.85 0.78 54.17 0.04Q54.49-0.70 55.18-1.28Q55.86-1.85 56.93-2.17Q57.99-2.50 59.48-2.50L59.48-2.50Q60.76-2.50 61.87-2.30Q62.98-2.10 63.79-1.74L63.79-1.74L63.26 1.17Q62.78 1.03 61.77 0.71Q60.76 0.39 59.50 0.39L59.50 0.39Q58.19 0.39 57.73 0.71Q57.26 1.03 57.26 1.40L57.26 1.40Q57.26 1.70 57.47 1.94Q57.68 2.18 58.03 2.38Q58.38 2.57 58.85 2.75Q59.31 2.94 59.84 3.10L59.84 3.10Q60.60 3.36 61.41 3.66Q62.22 3.97 62.88 4.43Q63.54 4.90 63.96 5.61Q64.38 6.32 64.38 7.36L64.38 7.36Q64.38 8.17 64.07 8.90Q63.76 9.63 63.05 10.16Q62.33 10.69 61.18 11Q60.04 11.31 58.36 11.31L58.36 11.31Q56.65 11.31 55.44 10.92Q54.24 10.52 53.51 10.22L53.51 10.22L54.04 7.33Q55.02 7.72 56.13 8.06Q57.24 8.40 58.38 8.40ZM66.87 4.53L66.87 4.53Q66.87 2.80 67.40 1.48Q67.93 0.16 68.80-0.72Q69.67-1.60 70.79-2.05Q71.91-2.50 73.08-2.50L73.08-2.50Q76.00-2.50 77.51-0.77Q79.02 0.95 79.02 4.25L79.02 4.25Q79.02 4.59 79.01 4.95Q78.99 5.32 78.96 5.54L78.96 5.54L70.42 5.54Q70.42 6.83 71.49 7.57Q72.55 8.31 74.23 8.31L74.23 8.31Q75.27 8.31 76.21 8.09Q77.14 7.86 77.79 7.64L77.79 7.64L78.26 10.58Q77.37 10.89 76.36 11.10Q75.35 11.31 74.09 11.31L74.09 11.31Q72.41 11.31 71.08 10.87Q69.75 10.44 68.81 9.59Q67.88 8.73 67.37 7.47Q66.87 6.21 66.87 4.53ZM70.42 3.16L75.69 3.16Q75.69 2.63 75.55 2.14Q75.41 1.65 75.10 1.26Q74.79 0.86 74.32 0.63Q73.84 0.39 73.14 0.39L73.14 0.39Q72.47 0.39 71.98 0.61Q71.49 0.84 71.17 1.23Q70.84 1.62 70.66 2.12Q70.48 2.63 70.42 3.16L70.42 3.16Z"/>
    </g>
</svg>