<?xml version="1.0" encoding="UTF-8"?>
<svg height="26" width="82.5" version="1.1" xmlns="http://www.w3.org/2000/svg"><!--Created by Josélio de S. C. Júnior - 2021 - https://github.com/joseliojunior -->
    <rect
        height="24"
        width="80.5"
        rx="12"
        ry="12"
        x="1" y="1"
        fill="#403a40"
        stroke="#908490"
        stroke-width="1" />
    <g transform="translate(0, 8)">
        <path fill="#908490" d="M22.40 2.48L24.06 4.83L25.60 2.48L27.60 2.48L25.17 6.10Q25.55 6.56 25.92 7.08Q26.29 7.60 26.62 8.13Q26.96 8.66 27.23 9.14Q27.50 9.62 27.70 10L27.70 10L25.65 10Q25.22 9.18 24.78 8.54Q24.35 7.90 23.97 7.39L23.97 7.39Q23.49 8.03 23.10 8.64Q22.72 9.25 22.32 10L22.32 10L20.32 10Q20.56 9.55 20.87 9.06Q21.18 8.58 21.53 8.07Q21.87 7.57 22.25 7.07Q22.62 6.58 22.98 6.13L22.98 6.13L20.34 2.48L22.40 2.48ZM35.50 7.01L35.50 7.01Q35.50 7.90 35.20 8.50Q34.90 9.10 34.38 9.46Q33.86 9.82 33.14 9.98Q32.43 10.13 31.62 10.13L31.62 10.13Q30.96 10.13 30.26 10.06Q29.55 9.98 28.86 9.84L28.86 9.84L28.86 0.22Q29.42 0.13 30.10 0.06Q30.77-0.02 31.42-0.02L31.42-0.02Q32.54-0.02 33.25 0.22Q33.95 0.45 34.35 0.82Q34.75 1.20 34.90 1.66Q35.04 2.13 35.04 2.59L35.04 2.59Q35.04 3.30 34.70 3.84Q34.35 4.38 33.78 4.70L33.78 4.70Q34.78 5.07 35.14 5.70Q35.50 6.32 35.50 7.01ZM31.89 5.66L30.83 5.66L30.83 8.35Q31.04 8.38 31.29 8.40Q31.54 8.42 31.78 8.42L31.78 8.42Q32.11 8.42 32.43 8.36Q32.75 8.30 33 8.15Q33.25 8 33.41 7.72Q33.57 7.44 33.57 7.01L33.57 7.01Q33.57 6.29 33.11 5.98Q32.66 5.66 31.89 5.66L31.89 5.66ZM30.83 4.03L31.60 4.03Q32.35 4.03 32.74 3.70Q33.12 3.38 33.12 2.80L33.12 2.80Q33.12 2.45 33.01 2.23Q32.90 2.02 32.70 1.90Q32.51 1.78 32.26 1.74Q32 1.70 31.73 1.70L31.73 1.70Q31.50 1.70 31.26 1.71Q31.02 1.73 30.83 1.76L30.83 1.76L30.83 4.03ZM40.02 8.59L40.02 8.59Q40.34 8.59 40.64 8.58Q40.94 8.58 41.17 8.54L41.17 8.54L41.17 6.82Q40.98 6.78 40.70 6.76Q40.43 6.74 40.21 6.74L40.21 6.74Q39.90 6.74 39.62 6.78Q39.33 6.82 39.11 6.91Q38.90 7.01 38.77 7.18Q38.64 7.36 38.64 7.65L38.64 7.65Q38.64 8.16 39.02 8.38Q39.41 8.59 40.02 8.59ZM39.84 2.29L39.84 2.29Q40.77 2.29 41.38 2.50Q42 2.72 42.37 3.11Q42.74 3.50 42.90 4.07Q43.06 4.64 43.06 5.34L43.06 5.34L43.06 9.82Q42.62 9.92 41.78 10.05Q40.93 10.18 39.87 10.18L39.87 10.18Q39.15 10.18 38.57 10.05Q37.98 9.92 37.57 9.62Q37.15 9.33 36.93 8.86Q36.70 8.38 36.70 7.70L36.70 7.70Q36.70 7.04 36.96 6.59Q37.22 6.14 37.65 5.87Q38.08 5.60 38.64 5.48Q39.20 5.36 39.81 5.36L39.81 5.36Q40.58 5.36 41.17 5.49L41.17 5.49L41.17 5.25Q41.17 4.69 40.82 4.31Q40.46 3.94 39.60 3.94L39.60 3.94Q39.04 3.94 38.52 4.02Q38 4.10 37.68 4.21L37.68 4.21L37.41 2.62Q37.78 2.50 38.45 2.39Q39.12 2.29 39.84 2.29ZM47.65 8.51L47.65 8.51Q48.37 8.51 48.75 8.41Q49.14 8.30 49.14 7.98L49.14 7.98Q49.14 7.78 49.02 7.63Q48.90 7.49 48.68 7.38Q48.46 7.28 48.18 7.18Q47.90 7.09 47.60 6.99L47.60 6.99Q47.17 6.86 46.72 6.70Q46.27 6.53 45.90 6.27Q45.54 6.02 45.30 5.62Q45.06 5.23 45.06 4.64L45.06 4.64Q45.06 4.16 45.24 3.74Q45.42 3.31 45.82 2.98Q46.21 2.66 46.82 2.47Q47.42 2.29 48.27 2.29L48.27 2.29Q49.01 2.29 49.64 2.40Q50.27 2.51 50.74 2.72L50.74 2.72L50.43 4.38Q50.16 4.30 49.58 4.12Q49.01 3.94 48.29 3.94L48.29 3.94Q47.54 3.94 47.27 4.12Q47.01 4.30 47.01 4.51L47.01 4.51Q47.01 4.69 47.13 4.82Q47.25 4.96 47.45 5.07Q47.65 5.18 47.91 5.29Q48.18 5.39 48.48 5.49L48.48 5.49Q48.91 5.63 49.38 5.81Q49.84 5.98 50.22 6.25Q50.59 6.51 50.83 6.92Q51.07 7.33 51.07 7.92L51.07 7.92Q51.07 8.38 50.90 8.80Q50.72 9.22 50.31 9.52Q49.90 9.82 49.25 10Q48.59 10.18 47.63 10.18L47.63 10.18Q46.66 10.18 45.97 9.95Q45.28 9.73 44.86 9.55L44.86 9.55L45.17 7.90Q45.73 8.13 46.36 8.32Q46.99 8.51 47.65 8.51ZM52.50 6.30L52.50 6.30Q52.50 5.31 52.80 4.56Q53.10 3.81 53.60 3.30Q54.10 2.80 54.74 2.54Q55.38 2.29 56.05 2.29L56.05 2.29Q57.71 2.29 58.58 3.27Q59.44 4.26 59.44 6.14L59.44 6.14Q59.44 6.34 59.43 6.54Q59.42 6.75 59.41 6.88L59.41 6.88L54.53 6.88Q54.53 7.62 55.14 8.04Q55.74 8.46 56.70 8.46L56.70 8.46Q57.30 8.46 57.83 8.34Q58.37 8.21 58.74 8.08L58.74 8.08L59.01 9.76Q58.50 9.94 57.92 10.06Q57.34 10.18 56.62 10.18L56.62 10.18Q55.66 10.18 54.90 9.93Q54.14 9.68 53.61 9.19Q53.07 8.70 52.78 7.98Q52.50 7.26 52.50 6.30ZM54.53 5.52L57.54 5.52Q57.54 5.22 57.46 4.94Q57.38 4.66 57.20 4.43Q57.02 4.21 56.75 4.07Q56.48 3.94 56.08 3.94L56.08 3.94Q55.70 3.94 55.42 4.06Q55.14 4.19 54.95 4.42Q54.77 4.64 54.66 4.93Q54.56 5.22 54.53 5.52L54.53 5.52Z"/>
    </g>
</svg>