<?xml version="1.0" encoding="UTF-8"?>
<svg height="322" width="102.5" version="1.1" xmlns="http://www.w3.org/2000/svg"><!--Created by Josélio de S. C. Júnior - 2021 - https://github.com/joseliojunior -->
    <rect
        height="32"
        width="100.5"
        rx="1"
        ry="1"
        x="1" y="1"
        fill="#403a40"
        stroke="#908490"
        stroke-width="1" />
    <g transform="translate(0, 12)">
        <path fill="#908490" stroke="none" d="M23.60 0.72L26.10 4.25L28.40 0.72L31.40 0.72L27.75 6.14Q28.33 6.84 28.88 7.62Q29.43 8.40 29.94 9.19Q30.44 9.98 30.85 10.70Q31.26 11.42 31.54 12L31.54 12L28.47 12Q27.82 10.78 27.18 9.82Q26.53 8.86 25.95 8.09L25.95 8.09Q25.23 9.05 24.66 9.96Q24.08 10.87 23.48 12L23.48 12L20.48 12Q20.84 11.33 21.31 10.60Q21.78 9.86 22.29 9.11Q22.81 8.35 23.37 7.61Q23.94 6.86 24.46 6.19L24.46 6.19L20.50 0.72L23.60 0.72ZM43.26 7.51L43.26 7.51Q43.26 8.86 42.80 9.76Q42.34 10.66 41.56 11.20Q40.78 11.74 39.72 11.96Q38.65 12.19 37.42 12.19L37.42 12.19Q36.44 12.19 35.38 12.08Q34.33 11.98 33.30 11.76L33.30 11.76L33.30-2.66Q34.14-2.81 35.14-2.92Q36.15-3.02 37.14-3.02L37.14-3.02Q38.82-3.02 39.87-2.68Q40.93-2.33 41.53-1.76Q42.13-1.20 42.34-0.50Q42.56 0.19 42.56 0.89L42.56 0.89Q42.56 1.94 42.04 2.76Q41.53 3.58 40.66 4.06L40.66 4.06Q42.18 4.61 42.72 5.54Q43.26 6.48 43.26 7.51ZM37.83 5.50L36.25 5.50L36.25 9.53Q36.56 9.58 36.93 9.60Q37.30 9.62 37.66 9.62L37.66 9.62Q38.17 9.62 38.65 9.54Q39.13 9.46 39.50 9.23Q39.87 9 40.11 8.58Q40.35 8.16 40.35 7.51L40.35 7.51Q40.35 6.43 39.67 5.96Q38.98 5.50 37.83 5.50L37.83 5.50ZM36.25 3.05L37.40 3.05Q38.53 3.05 39.10 2.56Q39.68 2.06 39.68 1.20L39.68 1.20Q39.68 0.67 39.51 0.35Q39.34 0.02 39.06-0.16Q38.77-0.34 38.38-0.40Q38-0.46 37.59-0.46L37.59-0.46Q37.26-0.46 36.90-0.43Q36.54-0.41 36.25-0.36L36.25-0.36L36.25 3.05ZM50.02 9.89L50.02 9.89Q50.50 9.89 50.96 9.88Q51.42 9.86 51.75 9.82L51.75 9.82L51.75 7.22Q51.46 7.18 51.06 7.14Q50.65 7.10 50.31 7.10L50.31 7.10Q49.86 7.10 49.42 7.16Q48.99 7.22 48.67 7.37Q48.34 7.51 48.15 7.78Q47.96 8.04 47.96 8.47L47.96 8.47Q47.96 9.24 48.54 9.56Q49.11 9.89 50.02 9.89ZM49.76 0.43L49.76 0.43Q51.15 0.43 52.08 0.76Q53 1.08 53.55 1.67Q54.10 2.26 54.34 3.11Q54.58 3.96 54.58 5.02L54.58 5.02L54.58 11.74Q53.94 11.88 52.66 12.07Q51.39 12.26 49.81 12.26L49.81 12.26Q48.73 12.26 47.85 12.07Q46.98 11.88 46.35 11.44Q45.73 10.99 45.39 10.28Q45.06 9.58 45.06 8.54L45.06 8.54Q45.06 7.56 45.44 6.89Q45.82 6.22 46.47 5.81Q47.12 5.40 47.96 5.22Q48.80 5.04 49.71 5.04L49.71 5.04Q50.86 5.04 51.75 5.23L51.75 5.23L51.75 4.87Q51.75 4.03 51.22 3.47Q50.70 2.90 49.40 2.90L49.40 2.90Q48.56 2.90 47.78 3.02Q47 3.14 46.52 3.31L46.52 3.31L46.11 0.94Q46.66 0.74 47.67 0.59Q48.68 0.43 49.76 0.43ZM61.47 9.77L61.47 9.77Q62.55 9.77 63.13 9.61Q63.70 9.46 63.70 8.98L63.70 8.98Q63.70 8.66 63.52 8.45Q63.34 8.23 63.02 8.08Q62.70 7.92 62.28 7.78Q61.86 7.63 61.40 7.49L61.40 7.49Q60.75 7.30 60.08 7.04Q59.41 6.79 58.86 6.41Q58.30 6.02 57.94 5.44Q57.58 4.85 57.58 3.96L57.58 3.96Q57.58 3.24 57.86 2.60Q58.14 1.97 58.72 1.48Q59.31 0.98 60.22 0.71Q61.14 0.43 62.41 0.43L62.41 0.43Q63.51 0.43 64.46 0.60Q65.41 0.77 66.10 1.08L66.10 1.08L65.65 3.58Q65.24 3.46 64.38 3.18Q63.51 2.90 62.43 2.90L62.43 2.90Q61.30 2.90 60.91 3.18Q60.51 3.46 60.51 3.77L60.51 3.77Q60.51 4.03 60.69 4.24Q60.87 4.44 61.17 4.61Q61.47 4.78 61.87 4.93Q62.26 5.09 62.72 5.23L62.72 5.23Q63.37 5.45 64.06 5.71Q64.76 5.98 65.32 6.37Q65.89 6.77 66.25 7.38Q66.61 7.99 66.61 8.88L66.61 8.88Q66.61 9.58 66.34 10.20Q66.08 10.82 65.47 11.28Q64.86 11.74 63.87 12Q62.89 12.26 61.45 12.26L61.45 12.26Q59.98 12.26 58.95 11.93Q57.92 11.59 57.30 11.33L57.30 11.33L57.75 8.86Q58.59 9.19 59.54 9.48Q60.49 9.77 61.47 9.77ZM68.74 6.46L68.74 6.46Q68.74 4.97 69.20 3.84Q69.66 2.71 70.40 1.96Q71.14 1.20 72.10 0.82Q73.06 0.43 74.07 0.43L74.07 0.43Q76.57 0.43 77.86 1.91Q79.16 3.38 79.16 6.22L79.16 6.22Q79.16 6.50 79.15 6.82Q79.14 7.13 79.11 7.32L79.11 7.32L71.79 7.32Q71.79 8.42 72.70 9.06Q73.62 9.70 75.06 9.70L75.06 9.70Q75.94 9.70 76.75 9.50Q77.55 9.31 78.10 9.12L78.10 9.12L78.51 11.64Q77.74 11.90 76.88 12.08Q76.02 12.26 74.94 12.26L74.94 12.26Q73.50 12.26 72.36 11.89Q71.22 11.52 70.41 10.79Q69.61 10.06 69.18 8.98Q68.74 7.90 68.74 6.46ZM71.79 5.28L76.30 5.28Q76.30 4.82 76.18 4.40Q76.06 3.98 75.80 3.65Q75.54 3.31 75.13 3.11Q74.72 2.90 74.12 2.90L74.12 2.90Q73.54 2.90 73.12 3.10Q72.70 3.29 72.43 3.62Q72.15 3.96 72.00 4.39Q71.84 4.82 71.79 5.28L71.79 5.28Z"/>
    </g>
</svg>