<?xml version="1.0" encoding="UTF-8"?>
<svg height="34" width="78.3" version="1.1" xmlns="http://www.w3.org/2000/svg">
    <rect
        height="32"
        width="76.3"
        rx="1"
        ry="1"
        x="1"
        y="1"
        fill="#148AA8"
        stroke="#041a20"
        stroke-width="1"
         />
    <g transform="translate(0, 12)">
        <path fill="#041a20" d="M27.51 12L24.46 12Q23.89 10.34 23.24 8.26Q22.59 6.17 22.02 4.09Q21.44 2.02 20.98 0.17Q20.53-1.68 20.31-2.86L20.31-2.86L23.43-2.86Q23.58-1.70 23.86-0.18Q24.15 1.34 24.50 2.96Q24.85 4.58 25.24 6.16Q25.64 7.73 26.02 8.98L26.02 8.98Q26.41 7.75 26.79 6.18Q27.18 4.61 27.51 2.99Q27.85 1.37 28.14-0.17Q28.42-1.70 28.62-2.86L28.62-2.86L31.71-2.86Q31.42-1.42 31.00 0.36Q30.58 2.14 30.04 4.09Q29.50 6.05 28.86 8.08Q28.21 10.10 27.51 12L27.51 12ZM39.10 12.31L39.10 12.31Q35.96 12.31 34.30 10.30Q32.65 8.28 32.65 4.56L32.65 4.56Q32.65 2.71 33.15 1.27Q33.66-0.17 34.56-1.16Q35.46-2.16 36.69-2.68Q37.93-3.19 39.39-3.19L39.39-3.19Q40.18-3.19 40.82-3.06Q41.46-2.93 41.94-2.76Q42.42-2.59 42.74-2.40Q43.06-2.21 43.23-2.11L43.23-2.11L42.46 0.24Q41.91-0.12 41.13-0.37Q40.35-0.62 39.34-0.62L39.34-0.62Q38.65-0.62 37.99-0.37Q37.33-0.12 36.81 0.47Q36.30 1.06 35.97 2.04Q35.65 3.02 35.65 4.49L35.65 4.49Q35.65 7.03 36.52 8.39Q37.40 9.74 39.39 9.74L39.39 9.74Q40.54 9.74 41.30 9.48Q42.06 9.22 42.51 8.95L42.51 8.95L43.26 11.28Q42.63 11.66 41.56 11.99Q40.50 12.31 39.10 12.31ZM55.04 9.55L55.04 12L45.70 12L45.70-2.86L48.68-2.86L48.68 9.55L55.04 9.55Z"/>
    </g>
</svg>