<?xml version="1.0" encoding="UTF-8"?>
<svg height="34" width="50.2" version="1.1" xmlns="http://www.w3.org/2000/svg">
    <rect
        height="32"
        width="48.2"
        rx="1"
        ry="1"
        x="1"
        y="1"
        fill="#fab738"
        stroke="#956204"
        stroke-width="1"
         />
    <g transform="translate(0, 14)">
        <path fill="#956204" d="M14.26 2.32L14.26 2.32Q14.26 3.58 14.35 4.69Q14.45 5.79 14.75 6.60Q15.04 7.42 15.57 7.89Q16.10 8.37 17 8.37L17 8.37Q17.87 8.37 18.41 7.89Q18.96 7.42 19.25 6.59Q19.55 5.76 19.65 4.67Q19.74 3.58 19.74 2.32L19.74 2.32Q19.74 1.06 19.65-0.05Q19.55-1.15 19.25-1.96Q18.96-2.78 18.43-3.25Q17.90-3.73 17-3.73L17-3.73Q16.10-3.73 15.57-3.25Q15.04-2.78 14.75-1.95Q14.45-1.12 14.35-0.03Q14.26 1.06 14.26 2.32ZM10.76 2.32L10.76 2.32Q10.76-2.16 12.41-4.44Q14.06-6.72 17-6.72L17-6.72Q20.05-6.72 21.65-4.44Q23.24-2.16 23.24 2.32L23.24 2.32Q23.24 6.80 21.62 9.08Q20.00 11.36 17.03 11.36L17.03 11.36Q13.98 11.36 12.37 9.08Q10.76 6.80 10.76 2.32ZM35.93-2.16L35.93 0.36Q35.54 0.81 34.81 1.69Q34.08 2.57 33.23 3.66Q32.37 4.76 31.52 5.95Q30.66 7.14 29.99 8.14L29.99 8.14L36.21 8.14L36.21 11L25.88 11L25.88 8.90Q26.52 7.84 27.28 6.72Q28.03 5.60 28.79 4.52Q29.54 3.44 30.27 2.46Q31 1.48 31.59 0.70L31.59 0.70L26.16 0.70L26.16-2.16L35.93-2.16Z"/>
    </g>
</svg>