<?xml version="1.0" encoding="UTF-8"?>
<svg height="26" width="90.6" version="1.1" xmlns="http://www.w3.org/2000/svg"><!--Created by Josélio de S. C. Júnior - 2021 - https://github.com/joseliojunior -->
    <rect
        height="24"
        width="88.6"
        rx="12"
        ry="12"
        x="1" y="1"
        fill="#4298b8"
        stroke="#1a3b47"
        stroke-width="1" />
    <g transform="translate(0, 8)">
        <path fill="#1a3b47" stroke="none" d="M24.99 1.58L24.99 1.58Q24.29 1.58 23.81 1.84Q23.33 2.10 23.02 2.55Q22.70 3.01 22.57 3.64Q22.43 4.27 22.43 5.04L22.43 5.04Q22.43 6.82 22.99 7.66Q23.55 8.50 24.64 8.50L24.64 8.50Q24.82 8.50 25.02 8.48Q25.23 8.46 25.41 8.43L25.41 8.43L25.41 4.82L27.38 4.82L27.38 9.76Q27.02 9.89 26.28 10.05Q25.54 10.21 24.48 10.21L24.48 10.21Q23.55 10.21 22.81 9.88Q22.06 9.55 21.54 8.90Q21.01 8.26 20.72 7.29Q20.43 6.32 20.43 5.04L20.43 5.04Q20.43 3.78 20.77 2.81Q21.10 1.84 21.68 1.18Q22.26 0.53 23.04 0.20Q23.82-0.13 24.72-0.13L24.72-0.13Q25.30-0.13 25.75-0.04Q26.21 0.05 26.54 0.16Q26.88 0.27 27.10 0.40Q27.31 0.53 27.42 0.59L27.42 0.59L26.91 2.16Q26.56 1.94 26.05 1.76Q25.54 1.58 24.99 1.58ZM35.34 2.66L34.99 4.48Q34.80 4.43 34.54 4.38Q34.27 4.34 34 4.30Q33.73 4.26 33.47 4.24Q33.22 4.22 33.04 4.22L33.04 4.22Q32.62 4.22 32.22 4.26Q31.82 4.30 31.41 4.42L31.41 4.42L31.41 10L29.42 10L29.42 2.98Q30.21 2.69 31.03 2.51Q31.86 2.34 32.96 2.34L32.96 2.34Q33.12 2.34 33.42 2.35Q33.71 2.37 34.05 2.41Q34.38 2.45 34.73 2.50Q35.07 2.56 35.34 2.66L35.34 2.66ZM43.55 6.22L43.55 6.22Q43.55 7.12 43.30 7.85Q43.04 8.58 42.58 9.10Q42.11 9.63 41.46 9.92Q40.82 10.21 40.02 10.21L40.02 10.21Q39.22 10.21 38.57 9.92Q37.92 9.63 37.45 9.10Q36.98 8.58 36.72 7.85Q36.46 7.12 36.46 6.22L36.46 6.22Q36.46 5.34 36.73 4.62Q36.99 3.89 37.46 3.37Q37.94 2.85 38.59 2.57Q39.25 2.29 40.02 2.29L40.02 2.29Q40.80 2.29 41.45 2.57Q42.10 2.85 42.57 3.37Q43.04 3.89 43.30 4.62Q43.55 5.34 43.55 6.22ZM38.46 6.24L38.46 6.24Q38.46 7.25 38.82 7.87Q39.18 8.50 39.98 8.50L39.98 8.50Q40.75 8.50 41.14 7.87Q41.54 7.25 41.54 6.24L41.54 6.24Q41.54 5.23 41.18 4.62Q40.82 4 40.02 4L40.02 4Q39.25 4 38.86 4.62Q38.46 5.23 38.46 6.24ZM51.55 6.22L51.55 6.22Q51.55 7.12 51.30 7.85Q51.04 8.58 50.58 9.10Q50.11 9.63 49.46 9.92Q48.82 10.21 48.02 10.21L48.02 10.21Q47.22 10.21 46.57 9.92Q45.92 9.63 45.45 9.10Q44.98 8.58 44.72 7.85Q44.46 7.12 44.46 6.22L44.46 6.22Q44.46 5.34 44.73 4.62Q44.99 3.89 45.46 3.37Q45.94 2.85 46.59 2.57Q47.25 2.29 48.02 2.29L48.02 2.29Q48.80 2.29 49.45 2.57Q50.10 2.85 50.57 3.37Q51.04 3.89 51.30 4.62Q51.55 5.34 51.55 6.22ZM46.46 6.24L46.46 6.24Q46.46 7.25 46.82 7.87Q47.18 8.50 47.98 8.50L47.98 8.50Q48.75 8.50 49.14 7.87Q49.54 7.25 49.54 6.24L49.54 6.24Q49.54 5.23 49.18 4.62Q48.82 4 48.02 4L48.02 4Q47.25 4 46.86 4.62Q46.46 5.23 46.46 6.24ZM56.75 10L55.10 10Q54.38 8.58 53.64 6.66Q52.90 4.75 52.22 2.48L52.22 2.48L54.29 2.48Q54.43 3.09 54.63 3.78Q54.83 4.46 55.06 5.16Q55.28 5.86 55.51 6.51Q55.74 7.17 55.95 7.71L55.95 7.71Q56.16 7.17 56.42 6.51Q56.67 5.86 56.92 5.16Q57.17 4.46 57.40 3.78Q57.63 3.09 57.78 2.48L57.78 2.48L59.78 2.48Q59.10 4.75 58.29 6.66Q57.47 8.58 56.75 10L56.75 10ZM65.54 2.48L67.55 2.48Q67.25 3.54 66.97 4.55Q66.69 5.57 66.38 6.54Q66.08 7.50 65.74 8.43Q65.39 9.36 64.99 10.24L64.99 10.24Q64.69 10.88 64.39 11.34Q64.10 11.81 63.74 12.10Q63.38 12.40 62.94 12.54Q62.50 12.69 61.90 12.69L61.90 12.69Q61.41 12.69 61 12.61Q60.59 12.53 60.32 12.40L60.32 12.40L60.69 10.75Q61.01 10.90 61.26 10.95Q61.50 11.01 61.79 11.01L61.79 11.01Q62.37 11.01 62.72 10.62Q63.07 10.24 63.28 9.71L63.28 9.71Q62.58 8.30 61.87 6.49Q61.17 4.67 60.59 2.48L60.59 2.48L62.64 2.48Q62.78 3.07 62.97 3.74Q63.15 4.42 63.36 5.09Q63.57 5.76 63.80 6.41Q64.03 7.06 64.27 7.62L64.27 7.62Q64.43 7.06 64.61 6.41Q64.78 5.76 64.94 5.10Q65.10 4.43 65.26 3.76Q65.41 3.09 65.54 2.48L65.54 2.48Z"/>
    </g>
</svg>