<?xml version="1.0" encoding="UTF-8"?>
<svg height="322" width="114.6" version="1.1" xmlns="http://www.w3.org/2000/svg"><!--Created by Josélio de S. C. Júnior - 2021 - https://github.com/joseliojunior -->
    <rect
        height="32"
        width="112.6"
        rx="1"
        ry="1"
        x="1" y="1"
        fill="#4298b8"
        stroke="#1a3b47"
        stroke-width="1" />
    <g transform="translate(0, 12)">
        <path fill="#1a3b47" stroke="none" d="M27.49-0.62L27.49-0.62Q26.43-0.62 25.71-0.24Q24.99 0.14 24.52 0.83Q24.06 1.51 23.85 2.46Q23.65 3.41 23.65 4.56L23.65 4.56Q23.65 7.22 24.49 8.48Q25.33 9.74 26.96 9.74L26.96 9.74Q27.22 9.74 27.54 9.72Q27.85 9.70 28.11 9.65L28.11 9.65L28.11 4.22L31.06 4.22L31.06 11.64Q30.54 11.83 29.42 12.07Q28.30 12.31 26.72 12.31L26.72 12.31Q25.33 12.31 24.21 11.82Q23.10 11.33 22.30 10.36Q21.51 9.38 21.08 7.93Q20.65 6.48 20.65 4.56L20.65 4.56Q20.65 2.66 21.15 1.21Q21.66-0.24 22.52-1.22Q23.38-2.21 24.56-2.70Q25.74-3.19 27.08-3.19L27.08-3.19Q27.94-3.19 28.63-3.06Q29.31-2.93 29.82-2.76Q30.32-2.59 30.64-2.40Q30.97-2.21 31.14-2.11L31.14-2.11L30.37 0.24Q29.84-0.10 29.07-0.36Q28.30-0.62 27.49-0.62ZM43.02 0.98L42.49 3.72Q42.20 3.65 41.80 3.58Q41.41 3.50 41 3.44Q40.59 3.38 40.21 3.36Q39.82 3.34 39.56 3.34L39.56 3.34Q38.94 3.34 38.34 3.40Q37.74 3.46 37.11 3.62L37.11 3.62L37.11 12L34.14 12L34.14 1.46Q35.31 1.03 36.55 0.77Q37.78 0.50 39.44 0.50L39.44 0.50Q39.68 0.50 40.12 0.53Q40.57 0.55 41.07 0.61Q41.58 0.67 42.09 0.76Q42.61 0.84 43.02 0.98L43.02 0.98ZM55.33 6.34L55.33 6.34Q55.33 7.68 54.94 8.77Q54.56 9.86 53.86 10.66Q53.17 11.45 52.20 11.88Q51.22 12.31 50.02 12.31L50.02 12.31Q48.82 12.31 47.85 11.88Q46.88 11.45 46.17 10.66Q45.46 9.86 45.08 8.77Q44.70 7.68 44.70 6.34L44.70 6.34Q44.70 5.02 45.09 3.92Q45.49 2.83 46.20 2.05Q46.90 1.27 47.89 0.85Q48.87 0.43 50.02 0.43L50.02 0.43Q51.20 0.43 52.17 0.85Q53.14 1.27 53.85 2.05Q54.56 2.83 54.94 3.92Q55.33 5.02 55.33 6.34ZM47.70 6.36L47.70 6.36Q47.70 7.87 48.24 8.81Q48.78 9.74 49.98 9.74L49.98 9.74Q51.13 9.74 51.72 8.81Q52.30 7.87 52.30 6.36L52.30 6.36Q52.30 4.85 51.76 3.92Q51.22 3 50.02 3L50.02 3Q48.87 3 48.28 3.92Q47.70 4.85 47.70 6.36ZM67.33 6.34L67.33 6.34Q67.33 7.68 66.94 8.77Q66.56 9.86 65.86 10.66Q65.17 11.45 64.20 11.88Q63.22 12.31 62.02 12.31L62.02 12.31Q60.82 12.31 59.85 11.88Q58.88 11.45 58.17 10.66Q57.46 9.86 57.08 8.77Q56.70 7.68 56.70 6.34L56.70 6.34Q56.70 5.02 57.09 3.92Q57.49 2.83 58.20 2.05Q58.90 1.27 59.89 0.85Q60.87 0.43 62.02 0.43L62.02 0.43Q63.20 0.43 64.17 0.85Q65.14 1.27 65.85 2.05Q66.56 2.83 66.94 3.92Q67.33 5.02 67.33 6.34ZM59.70 6.36L59.70 6.36Q59.70 7.87 60.24 8.81Q60.78 9.74 61.98 9.74L61.98 9.74Q63.13 9.74 63.72 8.81Q64.30 7.87 64.30 6.36L64.30 6.36Q64.30 4.85 63.76 3.92Q63.22 3 62.02 3L62.02 3Q60.87 3 60.28 3.92Q59.70 4.85 59.70 6.36ZM75.13 12L72.66 12Q71.58 9.86 70.46 7.00Q69.34 4.13 68.34 0.72L68.34 0.72L71.43 0.72Q71.65 1.63 71.95 2.66Q72.25 3.70 72.58 4.74Q72.92 5.78 73.27 6.77Q73.62 7.75 73.93 8.57L73.93 8.57Q74.24 7.75 74.62 6.77Q75.01 5.78 75.38 4.74Q75.75 3.70 76.10 2.66Q76.45 1.63 76.66 0.72L76.66 0.72L79.66 0.72Q78.66 4.13 77.43 7.00Q76.21 9.86 75.13 12L75.13 12ZM88.30 0.72L91.33 0.72Q90.87 2.30 90.45 3.83Q90.03 5.35 89.58 6.80Q89.12 8.26 88.60 9.65Q88.09 11.04 87.49 12.36L87.49 12.36Q87.03 13.32 86.59 14.02Q86.14 14.71 85.60 15.16Q85.06 15.60 84.40 15.82Q83.74 16.03 82.86 16.03L82.86 16.03Q82.11 16.03 81.50 15.91Q80.89 15.79 80.48 15.60L80.48 15.60L81.03 13.13Q81.51 13.34 81.88 13.43Q82.26 13.51 82.69 13.51L82.69 13.51Q83.55 13.51 84.08 12.94Q84.61 12.36 84.92 11.57L84.92 11.57Q83.86 9.46 82.81 6.73Q81.75 4.01 80.89 0.72L80.89 0.72L83.96 0.72Q84.18 1.61 84.45 2.62Q84.73 3.62 85.04 4.63Q85.35 5.64 85.70 6.61Q86.05 7.58 86.41 8.42L86.41 8.42Q86.65 7.58 86.91 6.61Q87.18 5.64 87.42 4.64Q87.66 3.65 87.88 2.64Q88.11 1.63 88.30 0.72L88.30 0.72Z"/>
    </g>
</svg>