<?xml version="1.0" encoding="UTF-8"?>
<svg height="34" width="126.7" version="1.1" xmlns="http://www.w3.org/2000/svg"><!--Created by Josélio de S. C. Júnior - 2021 - https://github.com/joseliojunior -->
    <defs>
        <pattern id="pattern"
                x="3" y="3" width="6" height="6"
                patternUnits="userSpaceOnUse"
                patternTransform="rotate(45)" >
            <rect height="6" width="6"
                fill="#ffffff"/>
            <line x1="0" y1="0" x2="0" y2="6"
                stroke="#888888"
                stroke-width="2" />
        </pattern>
    </defs>
    <rect
        height="32"
        width="124.7"
        rx="1"
        ry="1"
        x="1" y="1"
        fill="url(#pattern)" />
    <g transform="translate(0, 12)">
        <path fill="#000000" d="M27.10 12.31L27.10 12.31Q23.96 12.31 22.30 10.30Q20.65 8.28 20.65 4.56L20.65 4.56Q20.65 2.71 21.15 1.27Q21.66-0.17 22.56-1.16Q23.46-2.16 24.69-2.68Q25.93-3.19 27.39-3.19L27.39-3.19Q28.18-3.19 28.82-3.06Q29.46-2.93 29.94-2.76Q30.42-2.59 30.74-2.40Q31.06-2.21 31.23-2.11L31.23-2.11L30.46 0.24Q29.91-0.12 29.13-0.37Q28.35-0.62 27.34-0.62L27.34-0.62Q26.65-0.62 25.99-0.37Q25.33-0.12 24.81 0.47Q24.30 1.06 23.97 2.04Q23.65 3.02 23.65 4.49L23.65 4.49Q23.65 7.03 24.52 8.39Q25.40 9.74 27.39 9.74L27.39 9.74Q28.54 9.74 29.30 9.48Q30.06 9.22 30.51 8.95L30.51 8.95L31.26 11.28Q30.63 11.66 29.56 11.99Q28.50 12.31 27.10 12.31ZM36.46 12L33.51 12L33.51-4.15L36.46-4.66L36.46 0.82Q36.82 0.70 37.33 0.59Q37.83 0.48 38.22 0.48L38.22 0.48Q39.46 0.48 40.30 0.85Q41.14 1.22 41.65 1.91Q42.15 2.59 42.37 3.54Q42.58 4.49 42.58 5.64L42.58 5.64L42.58 12L39.63 12L39.63 6.02Q39.63 4.44 39.27 3.74Q38.91 3.05 37.90 3.05L37.90 3.05Q37.50 3.05 37.10 3.14Q36.70 3.24 36.46 3.31L36.46 3.31L36.46 12ZM50.02 9.89L50.02 9.89Q50.50 9.89 50.96 9.88Q51.42 9.86 51.75 9.82L51.75 9.82L51.75 7.22Q51.46 7.18 51.06 7.14Q50.65 7.10 50.31 7.10L50.31 7.10Q49.86 7.10 49.42 7.16Q48.99 7.22 48.67 7.37Q48.34 7.51 48.15 7.78Q47.96 8.04 47.96 8.47L47.96 8.47Q47.96 9.24 48.54 9.56Q49.11 9.89 50.02 9.89ZM49.76 0.43L49.76 0.43Q51.15 0.43 52.08 0.76Q53 1.08 53.55 1.67Q54.10 2.26 54.34 3.11Q54.58 3.96 54.58 5.02L54.58 5.02L54.58 11.74Q53.94 11.88 52.66 12.07Q51.39 12.26 49.81 12.26L49.81 12.26Q48.73 12.26 47.85 12.07Q46.98 11.88 46.35 11.44Q45.73 10.99 45.39 10.28Q45.06 9.58 45.06 8.54L45.06 8.54Q45.06 7.56 45.44 6.89Q45.82 6.22 46.47 5.81Q47.12 5.40 47.96 5.22Q48.80 5.04 49.71 5.04L49.71 5.04Q50.86 5.04 51.75 5.23L51.75 5.23L51.75 4.87Q51.75 4.03 51.22 3.47Q50.70 2.90 49.40 2.90L49.40 2.90Q48.56 2.90 47.78 3.02Q47 3.14 46.52 3.31L46.52 3.31L46.11 0.94Q46.66 0.74 47.67 0.59Q48.68 0.43 49.76 0.43ZM67.02 0.98L66.49 3.72Q66.20 3.65 65.80 3.58Q65.41 3.50 65 3.44Q64.59 3.38 64.21 3.36Q63.82 3.34 63.56 3.34L63.56 3.34Q62.94 3.34 62.34 3.40Q61.74 3.46 61.11 3.62L61.11 3.62L61.11 12L58.14 12L58.14 1.46Q59.31 1.03 60.55 0.77Q61.78 0.50 63.44 0.50L63.44 0.50Q63.68 0.50 64.12 0.53Q64.57 0.55 65.07 0.61Q65.58 0.67 66.09 0.76Q66.61 0.84 67.02 0.98L67.02 0.98ZM74.82-2.52L74.82-2.52Q74.82-1.66 74.26-1.15Q73.71-0.65 72.94-0.65L72.94-0.65Q72.18-0.65 71.64-1.15Q71.10-1.66 71.10-2.52L71.10-2.52Q71.10-3.41 71.64-3.91Q72.18-4.42 72.94-4.42L72.94-4.42Q73.71-4.42 74.26-3.91Q74.82-3.41 74.82-2.52ZM78.82 9.14L79.21 11.52Q78.30 11.95 77.49 12.11Q76.69 12.26 76.02 12.26L76.02 12.26Q74.86 12.26 74.08 11.93Q73.30 11.59 72.84 10.96Q72.37 10.32 72.18 9.41Q71.98 8.50 71.98 7.32L71.98 7.32L71.98 3.17L68.86 3.17L68.86 0.72L74.94 0.72L74.94 7.70Q74.94 8.71 75.31 9.20Q75.68 9.70 76.54 9.70L76.54 9.70Q76.95 9.70 77.53 9.59Q78.10 9.48 78.82 9.14L78.82 9.14ZM83.43 7.80L83.43 3.17L80.86 3.17L80.86 0.72L83.43 0.72L83.43-2.11L86.38-2.59L86.38 0.72L91.11 0.72L91.11 3.17L86.38 3.17L86.38 7.73Q86.38 8.35 86.50 8.74Q86.62 9.12 86.84 9.34Q87.06 9.55 87.37 9.62Q87.68 9.70 88.06 9.70L88.06 9.70Q88.47 9.70 88.82 9.67Q89.17 9.65 89.49 9.59Q89.82 9.53 90.16 9.41Q90.51 9.29 90.92 9.10L90.92 9.10L91.33 11.64Q90.51 11.98 89.56 12.12Q88.62 12.26 87.73 12.26L87.73 12.26Q86.70 12.26 85.90 12.10Q85.11 11.93 84.56 11.45Q84.01 10.97 83.72 10.09Q83.43 9.22 83.43 7.80L83.43 7.80ZM100.30 0.72L103.33 0.72Q102.87 2.30 102.45 3.83Q102.03 5.35 101.58 6.80Q101.12 8.26 100.60 9.65Q100.09 11.04 99.49 12.36L99.49 12.36Q99.03 13.32 98.59 14.02Q98.14 14.71 97.60 15.16Q97.06 15.60 96.40 15.82Q95.74 16.03 94.86 16.03L94.86 16.03Q94.11 16.03 93.50 15.91Q92.89 15.79 92.48 15.60L92.48 15.60L93.03 13.13Q93.51 13.34 93.88 13.43Q94.26 13.51 94.69 13.51L94.69 13.51Q95.55 13.51 96.08 12.94Q96.61 12.36 96.92 11.57L96.92 11.57Q95.86 9.46 94.81 6.73Q93.75 4.01 92.89 0.72L92.89 0.72L95.96 0.72Q96.18 1.61 96.45 2.62Q96.73 3.62 97.04 4.63Q97.35 5.64 97.70 6.61Q98.05 7.58 98.41 8.42L98.41 8.42Q98.65 7.58 98.91 6.61Q99.18 5.64 99.42 4.64Q99.66 3.65 99.88 2.64Q100.11 1.63 100.30 0.72L100.30 0.72Z"/>
    </g>
</svg>