<?xml version="1.0" encoding="UTF-8"?>
<svg height="34" width="138.8" version="1.1" xmlns="http://www.w3.org/2000/svg">
    <rect
        height="32"
        width="136.8"
        rx="16"
        ry="16"
        x="1"
        y="1"
        fill="#223388"
        stroke="#687bd9"
        stroke-width="1"
         />
    <g transform="translate(0, 12)">
        <path fill="#687bd9" d="M21.42-2.86L23.86-2.86Q24.03-2.35 24.28-1.56Q24.54-0.77 24.82 0.14Q25.11 1.06 25.40 1.99Q25.69 2.93 25.95 3.72L25.95 3.72Q26.24 2.83 26.55 1.88Q26.86 0.94 27.15 0.06Q27.44-0.82 27.68-1.58Q27.92-2.35 28.11-2.86L28.11-2.86L30.56-2.86Q30.73-0.91 30.88 0.94Q31.04 2.78 31.15 4.60Q31.26 6.41 31.33 8.24Q31.40 10.08 31.45 12L31.45 12L28.74 12L28.88 0.46L27.06 6.74L24.90 6.74L23.14 0.46L23.26 12L20.55 12Q20.62 10.18 20.71 8.21Q20.79 6.24 20.89 4.30Q20.98 2.35 21.12 0.53Q21.25-1.30 21.42-2.86L21.42-2.86ZM43.33 6.34L43.33 6.34Q43.33 7.68 42.94 8.77Q42.56 9.86 41.86 10.66Q41.17 11.45 40.20 11.88Q39.22 12.31 38.02 12.31L38.02 12.31Q36.82 12.31 35.85 11.88Q34.88 11.45 34.17 10.66Q33.46 9.86 33.08 8.77Q32.70 7.68 32.70 6.34L32.70 6.34Q32.70 5.02 33.09 3.92Q33.49 2.83 34.20 2.05Q34.90 1.27 35.89 0.85Q36.87 0.43 38.02 0.43L38.02 0.43Q39.20 0.43 40.17 0.85Q41.14 1.27 41.85 2.05Q42.56 2.83 42.94 3.92Q43.33 5.02 43.33 6.34ZM35.70 6.36L35.70 6.36Q35.70 7.87 36.24 8.81Q36.78 9.74 37.98 9.74L37.98 9.74Q39.13 9.74 39.72 8.81Q40.30 7.87 40.30 6.36L40.30 6.36Q40.30 4.85 39.76 3.92Q39.22 3 38.02 3L38.02 3Q36.87 3 36.28 3.92Q35.70 4.85 35.70 6.36ZM47.67 6.29L47.67 6.29Q47.67 7.80 48.24 8.76Q48.80 9.72 50.05 9.72L50.05 9.72Q50.41 9.72 50.72 9.70Q51.03 9.67 51.37 9.62L51.37 9.62L51.37 3.48Q51.03 3.29 50.60 3.16Q50.17 3.02 49.69 3.02L49.69 3.02Q48.63 3.02 48.15 3.86Q47.67 4.70 47.67 6.29ZM54.32-4.66L54.32 11.66Q53.50 11.93 52.33 12.10Q51.15 12.26 50.02 12.26L50.02 12.26Q47.38 12.26 46.03 10.70Q44.67 9.14 44.67 6.43L44.67 6.43Q44.67 3.67 45.81 2.08Q46.95 0.48 49.18 0.48L49.18 0.48Q49.78 0.48 50.36 0.61Q50.94 0.74 51.37 0.98L51.37 0.98L51.37-4.15L54.32-4.66ZM66.51 0.72L66.51 11.62Q65.70 11.83 64.53 12.05Q63.37 12.26 62 12.26L62 12.26Q60.61 12.26 59.72 11.88Q58.83 11.50 58.32 10.79Q57.80 10.08 57.61 9.12Q57.42 8.16 57.42 7.01L57.42 7.01L57.42 0.72L60.37 0.72L60.37 6.62Q60.37 8.18 60.74 8.94Q61.11 9.70 62.19 9.70L62.19 9.70Q62.86 9.70 63.54 9.58L63.54 9.58L63.54 0.72L66.51 0.72ZM78.82 9.14L79.21 11.52Q79.14 11.57 78.88 11.69Q78.63 11.81 78.22 11.94Q77.82 12.07 77.23 12.17Q76.64 12.26 75.90 12.26L75.90 12.26Q73.86 12.26 72.92 11.05Q71.98 9.84 71.98 7.51L71.98 7.51L71.98-2.06L68.86-2.06L68.86-4.51L74.94-4.51L74.94 7.73Q74.94 8.88 75.39 9.29Q75.85 9.70 76.54 9.70L76.54 9.70Q77.43 9.70 78.03 9.46Q78.63 9.22 78.82 9.14L78.82 9.14ZM86.02 9.89L86.02 9.89Q86.50 9.89 86.96 9.88Q87.42 9.86 87.75 9.82L87.75 9.82L87.75 7.22Q87.46 7.18 87.06 7.14Q86.65 7.10 86.31 7.10L86.31 7.10Q85.86 7.10 85.42 7.16Q84.99 7.22 84.67 7.37Q84.34 7.51 84.15 7.78Q83.96 8.04 83.96 8.47L83.96 8.47Q83.96 9.24 84.54 9.56Q85.11 9.89 86.02 9.89ZM85.76 0.43L85.76 0.43Q87.15 0.43 88.08 0.76Q89 1.08 89.55 1.67Q90.10 2.26 90.34 3.11Q90.58 3.96 90.58 5.02L90.58 5.02L90.58 11.74Q89.94 11.88 88.66 12.07Q87.39 12.26 85.81 12.26L85.81 12.26Q84.73 12.26 83.85 12.07Q82.98 11.88 82.35 11.44Q81.73 10.99 81.39 10.28Q81.06 9.58 81.06 8.54L81.06 8.54Q81.06 7.56 81.44 6.89Q81.82 6.22 82.47 5.81Q83.12 5.40 83.96 5.22Q84.80 5.04 85.71 5.04L85.71 5.04Q86.86 5.04 87.75 5.23L87.75 5.23L87.75 4.87Q87.75 4.03 87.22 3.47Q86.70 2.90 85.40 2.90L85.40 2.90Q84.56 2.90 83.78 3.02Q83 3.14 82.52 3.31L82.52 3.31L82.11 0.94Q82.66 0.74 83.67 0.59Q84.68 0.43 85.76 0.43ZM94.71 7.30L94.71 4.39L101.29 4.39L101.29 7.30L94.71 7.30ZM109.11 12.31L109.11 12.31Q108.56 12.31 107.95 12.23Q107.34 12.14 106.77 12.02Q106.21 11.90 105.73 11.76Q105.25 11.62 104.98 11.50L104.98 11.50L105.56 9.02Q106.11 9.26 106.99 9.53Q107.86 9.79 109.09 9.79L109.09 9.79Q110.60 9.79 111.21 9.14Q111.82 8.50 111.82 7.54L111.82 7.54Q111.82 6.36 110.89 5.89Q109.95 5.42 108.51 5.42L108.51 5.42L107.60 5.42L107.60 2.98L108.70 2.98Q109.16 2.98 109.62 2.88Q110.07 2.78 110.43 2.57Q110.79 2.35 111.02 1.99Q111.25 1.63 111.25 1.08L111.25 1.08Q111.25 0.26 110.76-0.20Q110.26-0.67 109.40-0.67L109.40-0.67Q108.56-0.67 107.73-0.40Q106.90-0.12 106.30 0.29L106.30 0.29L105.25-1.87Q105.90-2.30 106.96-2.75Q108.03-3.19 109.38-3.19L109.38-3.19Q110.62-3.19 111.55-2.88Q112.47-2.57 113.07-2.00Q113.67-1.44 113.96-0.67Q114.25 0.10 114.25 0.98L114.25 0.98Q114.25 1.87 113.74 2.69Q113.24 3.50 112.40 3.94L112.40 3.94Q113.55 4.42 114.19 5.35Q114.82 6.29 114.82 7.58L114.82 7.58Q114.82 8.62 114.49 9.48Q114.15 10.34 113.46 10.98Q112.76 11.62 111.68 11.96Q110.60 12.31 109.11 12.31Z"/>
    </g>
</svg>