<?xml version="1.0" encoding="UTF-8"?>
<svg height="34" width="78.4" version="1.1" xmlns="http://www.w3.org/2000/svg">
    <rect
        height="32"
        width="76.4"
        rx="14"
        ry="14"
        x="1"
        y="1"
        fill="#A71E49"
        stroke="#270711"
        stroke-width="1"
         />
    <g transform="translate(0, 14)">
        <path fill="#270711" d="M15.99-6.53L15.99-6.53Q17.48-6.53 18.68-6.19Q19.88-5.86 20.75-5.16Q21.62-4.46 22.08-3.38Q22.54-2.30 22.54-0.84L22.54-0.84Q22.54 0.67 21.93 1.90Q21.31 3.13 19.88 3.78L19.88 3.78Q20.36 4.50 20.89 5.39Q21.42 6.27 21.93 7.23Q22.43 8.20 22.89 9.17Q23.36 10.13 23.69 11L23.69 11L20.08 11Q19.44 9.32 18.58 7.77Q17.73 6.21 16.75 4.62L16.75 4.62L14.96 4.62L14.96 11L11.51 11L11.51-6.08Q12.02-6.19 12.62-6.29Q13.22-6.39 13.84-6.43Q14.45-6.47 15.01-6.50Q15.57-6.53 15.99-6.53ZM19.04-0.87L19.04-0.87Q19.04-2.24 18.20-2.89Q17.36-3.53 15.99-3.53L15.99-3.53Q15.80-3.53 15.52-3.52Q15.24-3.50 14.96-3.45L14.96-3.45L14.96 1.76L15.71 1.76Q17.48 1.76 18.26 1.07Q19.04 0.39 19.04-0.87ZM31.95-5.94L31.95-5.94Q31.95-4.93 31.31-4.34Q30.66-3.76 29.77-3.76L29.77-3.76Q28.87-3.76 28.24-4.34Q27.61-4.93 27.61-5.94L27.61-5.94Q27.61-6.98 28.24-7.56Q28.87-8.15 29.77-8.15L29.77-8.15Q30.66-8.15 31.31-7.56Q31.95-6.98 31.95-5.94ZM36.63 7.67L37.08 10.44Q36.01 10.94 35.07 11.13Q34.14 11.31 33.35 11.31L33.35 11.31Q32.01 11.31 31.10 10.92Q30.19 10.52 29.64 9.78Q29.10 9.04 28.87 7.98Q28.65 6.91 28.65 5.54L28.65 5.54L28.65 0.70L25.01 0.70L25.01-2.16L32.09-2.16L32.09 5.99Q32.09 7.16 32.53 7.74Q32.96 8.31 33.97 8.31L33.97 8.31Q34.44 8.31 35.12 8.19Q35.79 8.06 36.63 7.67L36.63 7.67ZM51.22 4.39L51.22 4.39Q51.22 5.96 50.77 7.23Q50.32 8.51 49.51 9.43Q48.70 10.36 47.56 10.86Q46.43 11.36 45.03 11.36L45.03 11.36Q43.63 11.36 42.49 10.86Q41.36 10.36 40.53 9.43Q39.71 8.51 39.26 7.23Q38.81 5.96 38.81 4.39L38.81 4.39Q38.81 2.85 39.27 1.58Q39.74 0.30 40.56-0.61Q41.39-1.52 42.54-2.01Q43.68-2.50 45.03-2.50L45.03-2.50Q46.40-2.50 47.53-2.01Q48.67-1.52 49.49-0.61Q50.32 0.30 50.77 1.58Q51.22 2.85 51.22 4.39ZM42.31 4.42L42.31 4.42Q42.31 6.18 42.94 7.28Q43.57 8.37 44.97 8.37L44.97 8.37Q46.32 8.37 47.00 7.28Q47.69 6.18 47.69 4.42L47.69 4.42Q47.69 2.66 47.06 1.58Q46.43 0.50 45.03 0.50L45.03 0.50Q43.68 0.50 43.00 1.58Q42.31 2.66 42.31 4.42ZM56.00 6.10L56.00 0.70L53.01 0.70L53.01-2.16L56.00-2.16L56.00-5.46L59.45-6.02L59.45-2.16L64.96-2.16L64.96 0.70L59.45 0.70L59.45 6.02Q59.45 6.74 59.59 7.19Q59.73 7.64 59.98 7.89Q60.23 8.14 60.60 8.23Q60.96 8.31 61.41 8.31L61.41 8.31Q61.88 8.31 62.29 8.28Q62.70 8.26 63.07 8.19Q63.45 8.12 63.86 7.98Q64.26 7.84 64.74 7.61L64.74 7.61L65.22 10.58Q64.26 10.97 63.16 11.14Q62.05 11.31 61.02 11.31L61.02 11.31Q59.81 11.31 58.89 11.11Q57.96 10.92 57.32 10.36Q56.68 9.80 56.34 8.77Q56.00 7.75 56.00 6.10L56.00 6.10Z"/>
    </g>
</svg>