<?xml version="1.0" encoding="UTF-8"?>
<svg height="322" width="102.5" version="1.1" xmlns="http://www.w3.org/2000/svg"><!--Created by Josélio de S. C. Júnior - 2021 - https://github.com/joseliojunior -->
    <rect
        height="32"
        width="100.5"
        rx="16"
        ry="16"
        x="1" y="1"
        fill="#c7a938"
        stroke="#504316"
        stroke-width="1" />
    <g transform="translate(0, 12)">
        <path fill="#504316" stroke="none" d="M21.42-2.86L23.86-2.86Q24.03-2.35 24.28-1.56Q24.54-0.77 24.82 0.14Q25.11 1.06 25.40 1.99Q25.69 2.93 25.95 3.72L25.95 3.72Q26.24 2.83 26.55 1.88Q26.86 0.94 27.15 0.06Q27.44-0.82 27.68-1.58Q27.92-2.35 28.11-2.86L28.11-2.86L30.56-2.86Q30.73-0.91 30.88 0.94Q31.04 2.78 31.15 4.60Q31.26 6.41 31.33 8.24Q31.40 10.08 31.45 12L31.45 12L28.74 12L28.88 0.46L27.06 6.74L24.90 6.74L23.14 0.46L23.26 12L20.55 12Q20.62 10.18 20.71 8.21Q20.79 6.24 20.89 4.30Q20.98 2.35 21.12 0.53Q21.25-1.30 21.42-2.86L21.42-2.86ZM38.82-2.52L38.82-2.52Q38.82-1.66 38.26-1.15Q37.71-0.65 36.94-0.65L36.94-0.65Q36.18-0.65 35.64-1.15Q35.10-1.66 35.10-2.52L35.10-2.52Q35.10-3.41 35.64-3.91Q36.18-4.42 36.94-4.42L36.94-4.42Q37.71-4.42 38.26-3.91Q38.82-3.41 38.82-2.52ZM42.82 9.14L43.21 11.52Q42.30 11.95 41.49 12.11Q40.69 12.26 40.02 12.26L40.02 12.26Q38.86 12.26 38.08 11.93Q37.30 11.59 36.84 10.96Q36.37 10.32 36.18 9.41Q35.98 8.50 35.98 7.32L35.98 7.32L35.98 3.17L32.86 3.17L32.86 0.72L38.94 0.72L38.94 7.70Q38.94 8.71 39.31 9.20Q39.68 9.70 40.54 9.70L40.54 9.70Q40.95 9.70 41.53 9.59Q42.10 9.48 42.82 9.14L42.82 9.14ZM55.02 0.98L54.49 3.72Q54.20 3.65 53.80 3.58Q53.41 3.50 53 3.44Q52.59 3.38 52.21 3.36Q51.82 3.34 51.56 3.34L51.56 3.34Q50.94 3.34 50.34 3.40Q49.74 3.46 49.11 3.62L49.11 3.62L49.11 12L46.14 12L46.14 1.46Q47.31 1.03 48.55 0.77Q49.78 0.50 51.44 0.50L51.44 0.50Q51.68 0.50 52.12 0.53Q52.57 0.55 53.07 0.61Q53.58 0.67 54.09 0.76Q54.61 0.84 55.02 0.98L55.02 0.98ZM62.02 9.89L62.02 9.89Q62.50 9.89 62.96 9.88Q63.42 9.86 63.75 9.82L63.75 9.82L63.75 7.22Q63.46 7.18 63.06 7.14Q62.65 7.10 62.31 7.10L62.31 7.10Q61.86 7.10 61.42 7.16Q60.99 7.22 60.67 7.37Q60.34 7.51 60.15 7.78Q59.96 8.04 59.96 8.47L59.96 8.47Q59.96 9.24 60.54 9.56Q61.11 9.89 62.02 9.89ZM61.76 0.43L61.76 0.43Q63.15 0.43 64.08 0.76Q65 1.08 65.55 1.67Q66.10 2.26 66.34 3.11Q66.58 3.96 66.58 5.02L66.58 5.02L66.58 11.74Q65.94 11.88 64.66 12.07Q63.39 12.26 61.81 12.26L61.81 12.26Q60.73 12.26 59.85 12.07Q58.98 11.88 58.35 11.44Q57.73 10.99 57.39 10.28Q57.06 9.58 57.06 8.54L57.06 8.54Q57.06 7.56 57.44 6.89Q57.82 6.22 58.47 5.81Q59.12 5.40 59.96 5.22Q60.80 5.04 61.71 5.04L61.71 5.04Q62.86 5.04 63.75 5.23L63.75 5.23L63.75 4.87Q63.75 4.03 63.22 3.47Q62.70 2.90 61.40 2.90L61.40 2.90Q60.56 2.90 59.78 3.02Q59 3.14 58.52 3.31L58.52 3.31L58.11 0.94Q58.66 0.74 59.67 0.59Q60.68 0.43 61.76 0.43ZM72.46 12L69.51 12L69.51-4.15L72.46-4.66L72.46 0.82Q72.82 0.70 73.33 0.59Q73.83 0.48 74.22 0.48L74.22 0.48Q75.46 0.48 76.30 0.85Q77.14 1.22 77.65 1.91Q78.15 2.59 78.37 3.54Q78.58 4.49 78.58 5.64L78.58 5.64L78.58 12L75.63 12L75.63 6.02Q75.63 4.44 75.27 3.74Q74.91 3.05 73.90 3.05L73.90 3.05Q73.50 3.05 73.10 3.14Q72.70 3.24 72.46 3.31L72.46 3.31L72.46 12Z"/>
    </g>
</svg>