<?xml version="1.0" encoding="UTF-8"?>
<svg height="26" width="82.5" version="1.1" xmlns="http://www.w3.org/2000/svg"><!--Created by Josélio de S. C. Júnior - 2021 - https://github.com/joseliojunior -->
    <rect
        height="24"
        width="80.5"
        rx="1"
        ry="1"
        x="1" y="1"
        fill="#c7a938"
        stroke="#504316"
        stroke-width="1" />
    <g transform="translate(0, 8)">
        <path fill="#504316" d="M20.94 0.10L22.58 0.10Q22.69 0.43 22.86 0.96Q23.02 1.49 23.22 2.10Q23.41 2.70 23.60 3.33Q23.79 3.95 23.97 4.48L23.97 4.48Q24.16 3.89 24.37 3.26Q24.58 2.62 24.77 2.04Q24.96 1.46 25.12 0.94Q25.28 0.43 25.41 0.10L25.41 0.10L27.04 0.10Q27.15 1.39 27.26 2.62Q27.36 3.86 27.43 5.06Q27.50 6.27 27.55 7.50Q27.60 8.72 27.63 10L27.63 10L25.82 10L25.92 2.30L24.70 6.50L23.26 6.50L22.10 2.30L22.18 10L20.37 10Q20.42 8.78 20.47 7.47Q20.53 6.16 20.59 4.86Q20.66 3.57 20.74 2.35Q20.83 1.14 20.94 0.10L20.94 0.10ZM32.54 0.32L32.54 0.32Q32.54 0.90 32.18 1.23Q31.81 1.57 31.30 1.57L31.30 1.57Q30.78 1.57 30.42 1.23Q30.06 0.90 30.06 0.32L30.06 0.32Q30.06-0.27 30.42-0.61Q30.78-0.94 31.30-0.94L31.30-0.94Q31.81-0.94 32.18-0.61Q32.54-0.27 32.54 0.32ZM35.22 8.10L35.47 9.68Q34.86 9.97 34.33 10.07Q33.79 10.18 33.34 10.18L33.34 10.18Q32.58 10.18 32.06 9.95Q31.54 9.73 31.22 9.30Q30.91 8.88 30.78 8.27Q30.66 7.66 30.66 6.88L30.66 6.88L30.66 4.11L28.58 4.11L28.58 2.48L32.62 2.48L32.62 7.14Q32.62 7.81 32.87 8.14Q33.12 8.46 33.70 8.46L33.70 8.46Q33.97 8.46 34.35 8.39Q34.74 8.32 35.22 8.10L35.22 8.10ZM43.34 2.66L42.99 4.48Q42.80 4.43 42.54 4.38Q42.27 4.34 42 4.30Q41.73 4.26 41.47 4.24Q41.22 4.22 41.04 4.22L41.04 4.22Q40.62 4.22 40.22 4.26Q39.82 4.30 39.41 4.42L39.41 4.42L39.41 10L37.42 10L37.42 2.98Q38.21 2.69 39.03 2.51Q39.86 2.34 40.96 2.34L40.96 2.34Q41.12 2.34 41.42 2.35Q41.71 2.37 42.05 2.41Q42.38 2.45 42.73 2.50Q43.07 2.56 43.34 2.66L43.34 2.66ZM48.02 8.59L48.02 8.59Q48.34 8.59 48.64 8.58Q48.94 8.58 49.17 8.54L49.17 8.54L49.17 6.82Q48.98 6.78 48.70 6.76Q48.43 6.74 48.21 6.74L48.21 6.74Q47.90 6.74 47.62 6.78Q47.33 6.82 47.11 6.91Q46.90 7.01 46.77 7.18Q46.64 7.36 46.64 7.65L46.64 7.65Q46.64 8.16 47.02 8.38Q47.41 8.59 48.02 8.59ZM47.84 2.29L47.84 2.29Q48.77 2.29 49.38 2.50Q50 2.72 50.37 3.11Q50.74 3.50 50.90 4.07Q51.06 4.64 51.06 5.34L51.06 5.34L51.06 9.82Q50.62 9.92 49.78 10.05Q48.93 10.18 47.87 10.18L47.87 10.18Q47.15 10.18 46.57 10.05Q45.98 9.92 45.57 9.62Q45.15 9.33 44.93 8.86Q44.70 8.38 44.70 7.70L44.70 7.70Q44.70 7.04 44.96 6.59Q45.22 6.14 45.65 5.87Q46.08 5.60 46.64 5.48Q47.20 5.36 47.81 5.36L47.81 5.36Q48.58 5.36 49.17 5.49L49.17 5.49L49.17 5.25Q49.17 4.69 48.82 4.31Q48.46 3.94 47.60 3.94L47.60 3.94Q47.04 3.94 46.52 4.02Q46 4.10 45.68 4.21L45.68 4.21L45.41 2.62Q45.78 2.50 46.45 2.39Q47.12 2.29 47.84 2.29ZM54.98 10L53.01 10L53.01-0.77L54.98-1.10L54.98 2.54Q55.22 2.46 55.55 2.39Q55.89 2.32 56.14 2.32L56.14 2.32Q56.98 2.32 57.54 2.57Q58.10 2.82 58.43 3.27Q58.77 3.73 58.91 4.36Q59.06 4.99 59.06 5.76L59.06 5.76L59.06 10L57.09 10L57.09 6.02Q57.09 4.96 56.85 4.50Q56.61 4.03 55.94 4.03L55.94 4.03Q55.66 4.03 55.40 4.10Q55.14 4.16 54.98 4.21L54.98 4.21L54.98 10Z"/>
    </g>
</svg>