<?xml version="1.0" encoding="UTF-8"?>
<svg height="34" width="163" version="1.1" xmlns="http://www.w3.org/2000/svg">
    <rect
        height="32"
        width="161"
        rx="14"
        ry="14"
        x="1"
        y="1"
        fill="#512be4"
        stroke="#200d68"
        stroke-width="1"
         />
    <g transform="translate(0, 14)">
        <path fill="#200d68" d="M19.30-6.33L22.74-6.33L22.74 11L19.30 11L19.30 3.36L14.70 3.36L14.70 11L11.26 11L11.26-6.33L14.70-6.33L14.70 0.50L19.30 0.50L19.30-6.33ZM24.70-6.33L37.30-6.33L37.30-3.48L32.74-3.48L32.74 11L29.26 11L29.26-3.48L24.70-3.48L24.70-6.33ZM39.65-6.33L42.51-6.33Q42.70-5.74 43.00-4.82Q43.29-3.90 43.63-2.83Q43.96-1.77 44.30-0.68Q44.64 0.42 44.94 1.34L44.94 1.34Q45.28 0.30 45.64-0.80Q46.01-1.91 46.34-2.93Q46.68-3.95 46.96-4.85Q47.24-5.74 47.46-6.33L47.46-6.33L50.32-6.33Q50.52-4.06 50.70-1.91Q50.88 0.25 51.01 2.36Q51.13 4.48 51.22 6.62Q51.30 8.76 51.36 11L51.36 11L48.19 11L48.36-2.47L46.23 4.87L43.71 4.87L41.67-2.47L41.81 11L38.64 11Q38.73 8.87 38.83 6.58Q38.92 4.28 39.04 2.01Q39.15-0.26 39.30-2.38Q39.46-4.51 39.65-6.33L39.65-6.33ZM64.88 8.14L64.88 11L53.99 11L53.99-6.33L57.46-6.33L57.46 8.14L64.88 8.14ZM67.12 5.06L67.12 2.24L71.52 2.24L71.52-2.64L74.48-2.64L74.48 2.24L78.88 2.24L78.88 5.06L74.48 5.06L74.48 9.94L71.52 9.94L71.52 5.06L67.12 5.06ZM85.99-6.53L85.99-6.53Q87.48-6.53 88.68-6.19Q89.88-5.86 90.75-5.16Q91.62-4.46 92.08-3.38Q92.54-2.30 92.54-0.84L92.54-0.84Q92.54 0.67 91.93 1.90Q91.31 3.13 89.88 3.78L89.88 3.78Q90.36 4.50 90.89 5.39Q91.42 6.27 91.93 7.23Q92.43 8.20 92.89 9.17Q93.36 10.13 93.69 11L93.69 11L90.08 11Q89.44 9.32 88.58 7.77Q87.73 6.21 86.75 4.62L86.75 4.62L84.96 4.62L84.96 11L81.51 11L81.51-6.08Q82.02-6.19 82.62-6.29Q83.22-6.39 83.84-6.43Q84.45-6.47 85.01-6.50Q85.57-6.53 85.99-6.53ZM89.04-0.87L89.04-0.87Q89.04-2.24 88.20-2.89Q87.36-3.53 85.99-3.53L85.99-3.53Q85.80-3.53 85.52-3.52Q85.24-3.50 84.96-3.45L84.96-3.45L84.96 1.76L85.71 1.76Q87.48 1.76 88.26 1.07Q89.04 0.39 89.04-0.87ZM101.03 8.54L101.03 8.54Q101.59 8.54 102.12 8.52Q102.65 8.51 103.04 8.45L103.04 8.45L103.04 5.43Q102.71 5.37 102.23 5.33Q101.76 5.29 101.36 5.29L101.36 5.29Q100.83 5.29 100.33 5.36Q99.82 5.43 99.45 5.60Q99.07 5.76 98.84 6.07Q98.62 6.38 98.62 6.88L98.62 6.88Q98.62 7.78 99.29 8.16Q99.96 8.54 101.03 8.54ZM100.72-2.50L100.72-2.50Q102.34-2.50 103.42-2.12Q104.50-1.74 105.14-1.05Q105.79-0.37 106.07 0.63Q106.35 1.62 106.35 2.85L106.35 2.85L106.35 10.69Q105.59 10.86 104.11 11.08Q102.62 11.31 100.78 11.31L100.78 11.31Q99.52 11.31 98.49 11.08Q97.47 10.86 96.74 10.34Q96.02 9.82 95.62 9.00Q95.23 8.17 95.23 6.97L95.23 6.97Q95.23 5.82 95.68 5.04Q96.13 4.25 96.88 3.78Q97.64 3.30 98.62 3.09Q99.60 2.88 100.66 2.88L100.66 2.88Q102.01 2.88 103.04 3.10L103.04 3.10L103.04 2.68Q103.04 1.70 102.43 1.05Q101.81 0.39 100.30 0.39L100.30 0.39Q99.32 0.39 98.41 0.53Q97.50 0.67 96.94 0.86L96.94 0.86L96.46-1.91Q97.11-2.13 98.28-2.31Q99.46-2.50 100.72-2.50ZM119.93-2.16L119.93 0.36Q119.54 0.81 118.81 1.69Q118.08 2.57 117.23 3.66Q116.37 4.76 115.52 5.95Q114.66 7.14 113.99 8.14L113.99 8.14L120.21 8.14L120.21 11L109.88 11L109.88 8.90Q110.52 7.84 111.28 6.72Q112.03 5.60 112.79 4.52Q113.54 3.44 114.27 2.46Q115 1.48 115.59 0.70L115.59 0.70L110.16 0.70L110.16-2.16L119.93-2.16ZM135.22 4.39L135.22 4.39Q135.22 5.96 134.77 7.23Q134.32 8.51 133.51 9.43Q132.70 10.36 131.56 10.86Q130.43 11.36 129.03 11.36L129.03 11.36Q127.63 11.36 126.49 10.86Q125.36 10.36 124.53 9.43Q123.71 8.51 123.26 7.23Q122.81 5.96 122.81 4.39L122.81 4.39Q122.81 2.85 123.27 1.58Q123.74 0.30 124.56-0.61Q125.39-1.52 126.54-2.01Q127.68-2.50 129.03-2.50L129.03-2.50Q130.40-2.50 131.53-2.01Q132.67-1.52 133.49-0.61Q134.32 0.30 134.77 1.58Q135.22 2.85 135.22 4.39ZM126.31 4.42L126.31 4.42Q126.31 6.18 126.94 7.28Q127.57 8.37 128.97 8.37L128.97 8.37Q130.32 8.37 131.00 7.28Q131.69 6.18 131.69 4.42L131.69 4.42Q131.69 2.66 131.06 1.58Q130.43 0.50 129.03 0.50L129.03 0.50Q127.68 0.50 127.00 1.58Q126.31 2.66 126.31 4.42ZM148.85-1.85L148.24 1.34Q147.90 1.26 147.44 1.17Q146.98 1.09 146.50 1.02Q146.02 0.95 145.58 0.92Q145.13 0.89 144.82 0.89L144.82 0.89Q144.09 0.89 143.39 0.96Q142.69 1.03 141.96 1.23L141.96 1.23L141.96 11L138.49 11L138.49-1.29Q139.86-1.80 141.31-2.10Q142.75-2.41 144.68-2.41L144.68-2.41Q144.96-2.41 145.48-2.38Q146.00-2.36 146.58-2.29Q147.17-2.22 147.77-2.12Q148.38-2.02 148.85-1.85L148.85-1.85Z"/>
    </g>
</svg>