<?xml version="1.0" encoding="UTF-8"?>
<svg height="26" width="123" version="1.1" xmlns="http://www.w3.org/2000/svg"><!--Created by Josélio de S. C. Júnior - 2021 - https://github.com/joseliojunior -->
    <rect
        height="24"
        width="121"
        rx="12"
        ry="12"
        x="1" y="1"
        fill="#512be4"
        stroke="#200d68"
        stroke-width="1" />
    <g transform="translate(0, 8)">
        <path fill="#200d68" d="M25.31 0.10L27.28 0.10L27.28 10L25.31 10L25.31 5.63L22.69 5.63L22.69 10L20.72 10L20.72 0.10L22.69 0.10L22.69 4L25.31 4L25.31 0.10ZM28.40 0.10L35.60 0.10L35.60 1.73L32.99 1.73L32.99 10L31.01 10L31.01 1.73L28.40 1.73L28.40 0.10ZM36.94 0.10L38.58 0.10Q38.69 0.43 38.86 0.96Q39.02 1.49 39.22 2.10Q39.41 2.70 39.60 3.33Q39.79 3.95 39.97 4.48L39.97 4.48Q40.16 3.89 40.37 3.26Q40.58 2.62 40.77 2.04Q40.96 1.46 41.12 0.94Q41.28 0.43 41.41 0.10L41.41 0.10L43.04 0.10Q43.15 1.39 43.26 2.62Q43.36 3.86 43.43 5.06Q43.50 6.27 43.55 7.50Q43.60 8.72 43.63 10L43.63 10L41.82 10L41.92 2.30L40.70 6.50L39.26 6.50L38.10 2.30L38.18 10L36.37 10Q36.42 8.78 36.47 7.47Q36.53 6.16 36.59 4.86Q36.66 3.57 36.74 2.35Q36.83 1.14 36.94 0.10L36.94 0.10ZM51.36 8.37L51.36 10L45.14 10L45.14 0.10L47.12 0.10L47.12 8.37L51.36 8.37ZM52.64 6.61L52.64 4.99L55.15 4.99L55.15 2.21L56.85 2.21L56.85 4.99L59.36 4.99L59.36 6.61L56.85 6.61L56.85 9.39L55.15 9.39L55.15 6.61L52.64 6.61ZM63.42-0.02L63.42-0.02Q64.27-0.02 64.96 0.18Q65.65 0.37 66.14 0.77Q66.64 1.17 66.90 1.78Q67.17 2.40 67.17 3.23L67.17 3.23Q67.17 4.10 66.82 4.80Q66.46 5.50 65.65 5.87L65.65 5.87Q65.92 6.29 66.22 6.79Q66.53 7.30 66.82 7.85Q67.10 8.40 67.37 8.95Q67.63 9.50 67.82 10L67.82 10L65.76 10Q65.39 9.04 64.90 8.15Q64.42 7.26 63.86 6.35L63.86 6.35L62.83 6.35L62.83 10L60.86 10L60.86 0.24Q61.15 0.18 61.50 0.12Q61.84 0.06 62.19 0.04Q62.54 0.02 62.86 0Q63.18-0.02 63.42-0.02ZM65.17 3.22L65.17 3.22Q65.17 2.43 64.69 2.06Q64.21 1.70 63.42 1.70L63.42 1.70Q63.31 1.70 63.15 1.70Q62.99 1.71 62.83 1.74L62.83 1.74L62.83 4.72L63.26 4.72Q64.27 4.72 64.72 4.33Q65.17 3.94 65.17 3.22ZM72.02 8.59L72.02 8.59Q72.34 8.59 72.64 8.58Q72.94 8.58 73.17 8.54L73.17 8.54L73.17 6.82Q72.98 6.78 72.70 6.76Q72.43 6.74 72.21 6.74L72.21 6.74Q71.90 6.74 71.62 6.78Q71.33 6.82 71.11 6.91Q70.90 7.01 70.77 7.18Q70.64 7.36 70.64 7.65L70.64 7.65Q70.64 8.16 71.02 8.38Q71.41 8.59 72.02 8.59ZM71.84 2.29L71.84 2.29Q72.77 2.29 73.38 2.50Q74 2.72 74.37 3.11Q74.74 3.50 74.90 4.07Q75.06 4.64 75.06 5.34L75.06 5.34L75.06 9.82Q74.62 9.92 73.78 10.05Q72.93 10.18 71.87 10.18L71.87 10.18Q71.15 10.18 70.57 10.05Q69.98 9.92 69.57 9.62Q69.15 9.33 68.93 8.86Q68.70 8.38 68.70 7.70L68.70 7.70Q68.70 7.04 68.96 6.59Q69.22 6.14 69.65 5.87Q70.08 5.60 70.64 5.48Q71.20 5.36 71.81 5.36L71.81 5.36Q72.58 5.36 73.17 5.49L73.17 5.49L73.17 5.25Q73.17 4.69 72.82 4.31Q72.46 3.94 71.60 3.94L71.60 3.94Q71.04 3.94 70.52 4.02Q70 4.10 69.68 4.21L69.68 4.21L69.41 2.62Q69.78 2.50 70.45 2.39Q71.12 2.29 71.84 2.29ZM82.82 2.48L82.82 3.92Q82.59 4.18 82.18 4.68Q81.76 5.18 81.27 5.81Q80.78 6.43 80.30 7.11Q79.81 7.79 79.42 8.37L79.42 8.37L82.98 8.37L82.98 10L77.07 10L77.07 8.80Q77.44 8.19 77.87 7.55Q78.30 6.91 78.74 6.30Q79.17 5.68 79.58 5.12Q80 4.56 80.34 4.11L80.34 4.11L77.23 4.11L77.23 2.48L82.82 2.48ZM91.55 6.22L91.55 6.22Q91.55 7.12 91.30 7.85Q91.04 8.58 90.58 9.10Q90.11 9.63 89.46 9.92Q88.82 10.21 88.02 10.21L88.02 10.21Q87.22 10.21 86.57 9.92Q85.92 9.63 85.45 9.10Q84.98 8.58 84.72 7.85Q84.46 7.12 84.46 6.22L84.46 6.22Q84.46 5.34 84.73 4.62Q84.99 3.89 85.46 3.37Q85.94 2.85 86.59 2.57Q87.25 2.29 88.02 2.29L88.02 2.29Q88.80 2.29 89.45 2.57Q90.10 2.85 90.57 3.37Q91.04 3.89 91.30 4.62Q91.55 5.34 91.55 6.22ZM86.46 6.24L86.46 6.24Q86.46 7.25 86.82 7.87Q87.18 8.50 87.98 8.50L87.98 8.50Q88.75 8.50 89.14 7.87Q89.54 7.25 89.54 6.24L89.54 6.24Q89.54 5.23 89.18 4.62Q88.82 4 88.02 4L88.02 4Q87.25 4 86.86 4.62Q86.46 5.23 86.46 6.24ZM99.34 2.66L98.99 4.48Q98.80 4.43 98.54 4.38Q98.27 4.34 98 4.30Q97.73 4.26 97.47 4.24Q97.22 4.22 97.04 4.22L97.04 4.22Q96.62 4.22 96.22 4.26Q95.82 4.30 95.41 4.42L95.41 4.42L95.41 10L93.42 10L93.42 2.98Q94.21 2.69 95.03 2.51Q95.86 2.34 96.96 2.34L96.96 2.34Q97.12 2.34 97.42 2.35Q97.71 2.37 98.05 2.41Q98.38 2.45 98.73 2.50Q99.07 2.56 99.34 2.66L99.34 2.66Z"/>
    </g>
</svg>