<?xml version="1.0" encoding="UTF-8"?>
<svg height="34" width="163" version="1.1" xmlns="http://www.w3.org/2000/svg"><!--Created by Josélio de S. C. Júnior - 2021 - https://github.com/joseliojunior -->
    <rect
        height="32"
        width="161"
        rx="1"
        ry="1"
        x="1" y="1"
        fill="#512be4"
        stroke="#200d68"
        stroke-width="1" />
    <g transform="translate(0, 12)">
        <path fill="#200d68" d="M27.97-2.86L30.92-2.86L30.92 12L27.97 12L27.97 5.45L24.03 5.45L24.03 12L21.08 12L21.08-2.86L24.03-2.86L24.03 3L27.97 3L27.97-2.86ZM32.60-2.86L43.40-2.86L43.40-0.41L39.49-0.41L39.49 12L36.51 12L36.51-0.41L32.60-0.41L32.60-2.86ZM45.42-2.86L47.86-2.86Q48.03-2.35 48.28-1.56Q48.54-0.77 48.82 0.14Q49.11 1.06 49.40 1.99Q49.69 2.93 49.95 3.72L49.95 3.72Q50.24 2.83 50.55 1.88Q50.86 0.94 51.15 0.06Q51.44-0.82 51.68-1.58Q51.92-2.35 52.11-2.86L52.11-2.86L54.56-2.86Q54.73-0.91 54.88 0.94Q55.04 2.78 55.15 4.60Q55.26 6.41 55.33 8.24Q55.40 10.08 55.45 12L55.45 12L52.74 12L52.88 0.46L51.06 6.74L48.90 6.74L47.14 0.46L47.26 12L44.55 12Q44.62 10.18 44.71 8.21Q44.79 6.24 44.89 4.30Q44.98 2.35 45.12 0.53Q45.25-1.30 45.42-2.86L45.42-2.86ZM67.04 9.55L67.04 12L57.70 12L57.70-2.86L60.68-2.86L60.68 9.55L67.04 9.55ZM68.96 6.91L68.96 4.49L72.73 4.49L72.73 0.31L75.27 0.31L75.27 4.49L79.04 4.49L79.04 6.91L75.27 6.91L75.27 11.09L72.73 11.09L72.73 6.91L68.96 6.91ZM85.14-3.02L85.14-3.02Q86.41-3.02 87.44-2.74Q88.47-2.45 89.22-1.85Q89.96-1.25 90.36-0.32Q90.75 0.60 90.75 1.85L90.75 1.85Q90.75 3.14 90.22 4.20Q89.70 5.26 88.47 5.81L88.47 5.81Q88.88 6.43 89.34 7.19Q89.79 7.94 90.22 8.77Q90.66 9.60 91.05 10.43Q91.45 11.26 91.74 12L91.74 12L88.64 12Q88.09 10.56 87.36 9.23Q86.62 7.90 85.78 6.53L85.78 6.53L84.25 6.53L84.25 12L81.30 12L81.30-2.64Q81.73-2.74 82.24-2.82Q82.76-2.90 83.29-2.94Q83.82-2.98 84.30-3Q84.78-3.02 85.14-3.02ZM87.75 1.82L87.75 1.82Q87.75 0.65 87.03 0.10Q86.31-0.46 85.14-0.46L85.14-0.46Q84.97-0.46 84.73-0.44Q84.49-0.43 84.25-0.38L84.25-0.38L84.25 4.08L84.90 4.08Q86.41 4.08 87.08 3.49Q87.75 2.90 87.75 1.82ZM98.02 9.89L98.02 9.89Q98.50 9.89 98.96 9.88Q99.42 9.86 99.75 9.82L99.75 9.82L99.75 7.22Q99.46 7.18 99.06 7.14Q98.65 7.10 98.31 7.10L98.31 7.10Q97.86 7.10 97.42 7.16Q96.99 7.22 96.67 7.37Q96.34 7.51 96.15 7.78Q95.96 8.04 95.96 8.47L95.96 8.47Q95.96 9.24 96.54 9.56Q97.11 9.89 98.02 9.89ZM97.76 0.43L97.76 0.43Q99.15 0.43 100.08 0.76Q101 1.08 101.55 1.67Q102.10 2.26 102.34 3.11Q102.58 3.96 102.58 5.02L102.58 5.02L102.58 11.74Q101.94 11.88 100.66 12.07Q99.39 12.26 97.81 12.26L97.81 12.26Q96.73 12.26 95.85 12.07Q94.98 11.88 94.35 11.44Q93.73 10.99 93.39 10.28Q93.06 9.58 93.06 8.54L93.06 8.54Q93.06 7.56 93.44 6.89Q93.82 6.22 94.47 5.81Q95.12 5.40 95.96 5.22Q96.80 5.04 97.71 5.04L97.71 5.04Q98.86 5.04 99.75 5.23L99.75 5.23L99.75 4.87Q99.75 4.03 99.22 3.47Q98.70 2.90 97.40 2.90L97.40 2.90Q96.56 2.90 95.78 3.02Q95 3.14 94.52 3.31L94.52 3.31L94.11 0.94Q94.66 0.74 95.67 0.59Q96.68 0.43 97.76 0.43ZM114.22 0.72L114.22 2.88Q113.89 3.26 113.26 4.02Q112.64 4.78 111.91 5.71Q111.18 6.65 110.44 7.67Q109.71 8.69 109.14 9.55L109.14 9.55L114.46 9.55L114.46 12L105.61 12L105.61 10.20Q106.16 9.29 106.81 8.33Q107.46 7.37 108.10 6.44Q108.75 5.52 109.38 4.68Q110 3.84 110.50 3.17L110.50 3.17L105.85 3.17L105.85 0.72L114.22 0.72ZM127.33 6.34L127.33 6.34Q127.33 7.68 126.94 8.77Q126.56 9.86 125.86 10.66Q125.17 11.45 124.20 11.88Q123.22 12.31 122.02 12.31L122.02 12.31Q120.82 12.31 119.85 11.88Q118.88 11.45 118.17 10.66Q117.46 9.86 117.08 8.77Q116.70 7.68 116.70 6.34L116.70 6.34Q116.70 5.02 117.09 3.92Q117.49 2.83 118.20 2.05Q118.90 1.27 119.89 0.85Q120.87 0.43 122.02 0.43L122.02 0.43Q123.20 0.43 124.17 0.85Q125.14 1.27 125.85 2.05Q126.56 2.83 126.94 3.92Q127.33 5.02 127.33 6.34ZM119.70 6.36L119.70 6.36Q119.70 7.87 120.24 8.81Q120.78 9.74 121.98 9.74L121.98 9.74Q123.13 9.74 123.72 8.81Q124.30 7.87 124.30 6.36L124.30 6.36Q124.30 4.85 123.76 3.92Q123.22 3 122.02 3L122.02 3Q120.87 3 120.28 3.92Q119.70 4.85 119.70 6.36ZM139.02 0.98L138.49 3.72Q138.20 3.65 137.80 3.58Q137.41 3.50 137 3.44Q136.59 3.38 136.21 3.36Q135.82 3.34 135.56 3.34L135.56 3.34Q134.94 3.34 134.34 3.40Q133.74 3.46 133.11 3.62L133.11 3.62L133.11 12L130.14 12L130.14 1.46Q131.31 1.03 132.55 0.77Q133.78 0.50 135.44 0.50L135.44 0.50Q135.68 0.50 136.12 0.53Q136.57 0.55 137.07 0.61Q137.58 0.67 138.09 0.76Q138.61 0.84 139.02 0.98L139.02 0.98Z"/>
    </g>
</svg>