<?xml version="1.0" encoding="UTF-8"?>
<svg height="34" width="138.8" version="1.1" xmlns="http://www.w3.org/2000/svg">
    <rect
        height="32"
        width="136.8"
        rx="16"
        ry="16"
        x="1"
        y="1"
        fill="#0040FF"
        stroke="#001a66"
        stroke-width="1"
         />
    <g transform="translate(0, 12)">
        <path fill="#001a66" d="M31.78 12L28.62 12L27.92 8.57L23.96 8.57L23.29 12L20.22 12Q21.27 7.61 22.35 4.00Q23.43 0.38 24.44-2.86L24.44-2.86L27.66-2.86Q28.71 0.41 29.76 4.07Q30.80 7.73 31.78 12L31.78 12ZM25.98 0.02L25.98 0.02Q25.74 0.86 25.53 1.62Q25.33 2.38 25.15 3.11Q24.97 3.84 24.81 4.58Q24.66 5.33 24.51 6.12L24.51 6.12L27.42 6.12Q27.27 5.33 27.13 4.58Q26.98 3.84 26.80 3.11Q26.62 2.38 26.42 1.62Q26.22 0.86 25.98 0.02ZM39.13 12L36.66 12Q35.58 9.86 34.46 7.00Q33.34 4.13 32.34 0.72L32.34 0.72L35.43 0.72Q35.65 1.63 35.95 2.66Q36.25 3.70 36.58 4.74Q36.92 5.78 37.27 6.77Q37.62 7.75 37.93 8.57L37.93 8.57Q38.24 7.75 38.62 6.77Q39.01 5.78 39.38 4.74Q39.75 3.70 40.10 2.66Q40.45 1.63 40.66 0.72L40.66 0.72L43.66 0.72Q42.66 4.13 41.43 7.00Q40.21 9.86 39.13 12L39.13 12ZM55.02 0.98L54.49 3.72Q54.20 3.65 53.80 3.58Q53.41 3.50 53 3.44Q52.59 3.38 52.21 3.36Q51.82 3.34 51.56 3.34L51.56 3.34Q50.94 3.34 50.34 3.40Q49.74 3.46 49.11 3.62L49.11 3.62L49.11 12L46.14 12L46.14 1.46Q47.31 1.03 48.55 0.77Q49.78 0.50 51.44 0.50L51.44 0.50Q51.68 0.50 52.12 0.53Q52.57 0.55 53.07 0.61Q53.58 0.67 54.09 0.76Q54.61 0.84 55.02 0.98L55.02 0.98ZM67.33 6.34L67.33 6.34Q67.33 7.68 66.94 8.77Q66.56 9.86 65.86 10.66Q65.17 11.45 64.20 11.88Q63.22 12.31 62.02 12.31L62.02 12.31Q60.82 12.31 59.85 11.88Q58.88 11.45 58.17 10.66Q57.46 9.86 57.08 8.77Q56.70 7.68 56.70 6.34L56.70 6.34Q56.70 5.02 57.09 3.92Q57.49 2.83 58.20 2.05Q58.90 1.27 59.89 0.85Q60.87 0.43 62.02 0.43L62.02 0.43Q63.20 0.43 64.17 0.85Q65.14 1.27 65.85 2.05Q66.56 2.83 66.94 3.92Q67.33 5.02 67.33 6.34ZM59.70 6.36L59.70 6.36Q59.70 7.87 60.24 8.81Q60.78 9.74 61.98 9.74L61.98 9.74Q63.13 9.74 63.72 8.81Q64.30 7.87 64.30 6.36L64.30 6.36Q64.30 4.85 63.76 3.92Q63.22 3 62.02 3L62.02 3Q60.87 3 60.28 3.92Q59.70 4.85 59.70 6.36ZM90.73 12L81.30 12L81.30 9.55L84.54 9.55L84.54-0.41L81.30-0.41L81.30-2.86L90.73-2.86L90.73-0.41L87.51-0.41L87.51 9.55L90.73 9.55L90.73 12ZM96.25-0.38L96.25 9.60Q96.37 9.62 96.51 9.62Q96.66 9.62 96.78 9.62L96.78 9.62Q97.78 9.62 98.47 9.24Q99.15 8.86 99.57 8.18Q99.99 7.51 100.17 6.59Q100.35 5.66 100.35 4.56L100.35 4.56Q100.35 3.60 100.21 2.69Q100.06 1.78 99.70 1.08Q99.34 0.38 98.72-0.04Q98.10-0.46 97.11-0.46L97.11-0.46Q96.92-0.46 96.68-0.44Q96.44-0.43 96.25-0.38L96.25-0.38ZM103.35 4.56L103.35 4.56Q103.35 6.62 102.84 8.08Q102.32 9.53 101.41 10.44Q100.50 11.35 99.24 11.77Q97.98 12.19 96.46 12.19L96.46 12.19Q95.67 12.19 94.92 12.11Q94.16 12.02 93.30 11.83L93.30 11.83L93.30-2.66Q94.30-2.88 95.19-2.95Q96.08-3.02 96.85-3.02L96.85-3.02Q98.31-3.02 99.52-2.59Q100.74-2.16 101.58-1.24Q102.42-0.31 102.88 1.12Q103.35 2.54 103.35 4.56ZM115.04 9.55L115.04 12L105.70 12L105.70-2.86L108.68-2.86L108.68 9.55L115.04 9.55Z"/>
    </g>
</svg>