<?xml version="1.0" encoding="UTF-8"?><svg height="26" width="106.8" version="1.1" xmlns="http://www.w3.org/2000/svg"><!--Created by Josélio de S. C. Júnior - 2021 - https://github.com/joseliojunior --><rect height="24" width="104.8" rx="1" ry="1" x="1" y="1" fill="#0040FF" stroke="#001a66" stroke-width="1" /><g transform="translate(0, 8)"><path fill="#001a66" d="M27.86 10L25.74 10L25.28 7.71L22.64 7.71L22.19 10L20.14 10Q20.85 7.07 21.57 4.66Q22.29 2.26 22.96 0.10L22.96 0.10L25.10 0.10Q25.81 2.27 26.50 4.71Q27.20 7.15 27.86 10L27.86 10ZM23.98 2.02L23.98 2.02Q23.82 2.58 23.69 3.08Q23.55 3.58 23.43 4.07Q23.31 4.56 23.21 5.06Q23.10 5.55 23.01 6.08L23.01 6.08L24.94 6.08Q24.85 5.55 24.75 5.06Q24.66 4.56 24.54 4.07Q24.42 3.58 24.28 3.08Q24.14 2.58 23.98 2.02ZM32.75 10L31.10 10Q30.38 8.58 29.64 6.66Q28.90 4.75 28.22 2.48L28.22 2.48L30.29 2.48Q30.43 3.09 30.63 3.78Q30.83 4.46 31.06 5.16Q31.28 5.86 31.51 6.51Q31.74 7.17 31.95 7.71L31.95 7.71Q32.16 7.17 32.42 6.51Q32.67 5.86 32.92 5.16Q33.17 4.46 33.40 3.78Q33.63 3.09 33.78 2.48L33.78 2.48L35.78 2.48Q35.10 4.75 34.29 6.66Q33.47 8.58 32.75 10L32.75 10ZM43.34 2.66L42.99 4.48Q42.80 4.43 42.54 4.38Q42.27 4.34 42 4.30Q41.73 4.26 41.47 4.24Q41.22 4.22 41.04 4.22L41.04 4.22Q40.62 4.22 40.22 4.26Q39.82 4.30 39.41 4.42L39.41 4.42L39.41 10L37.42 10L37.42 2.98Q38.21 2.69 39.03 2.51Q39.86 2.34 40.96 2.34L40.96 2.34Q41.12 2.34 41.42 2.35Q41.71 2.37 42.05 2.41Q42.38 2.45 42.73 2.50Q43.07 2.56 43.34 2.66L43.34 2.66ZM51.55 6.22L51.55 6.22Q51.55 7.12 51.30 7.85Q51.04 8.58 50.58 9.10Q50.11 9.63 49.46 9.92Q48.82 10.21 48.02 10.21L48.02 10.21Q47.22 10.21 46.57 9.92Q45.92 9.63 45.45 9.10Q44.98 8.58 44.72 7.85Q44.46 7.12 44.46 6.22L44.46 6.22Q44.46 5.34 44.73 4.62Q44.99 3.89 45.46 3.37Q45.94 2.85 46.59 2.57Q47.25 2.29 48.02 2.29L48.02 2.29Q48.80 2.29 49.45 2.57Q50.10 2.85 50.57 3.37Q51.04 3.89 51.30 4.62Q51.55 5.34 51.55 6.22ZM46.46 6.24L46.46 6.24Q46.46 7.25 46.82 7.87Q47.18 8.50 47.98 8.50L47.98 8.50Q48.75 8.50 49.14 7.87Q49.54 7.25 49.54 6.24L49.54 6.24Q49.54 5.23 49.18 4.62Q48.82 4 48.02 4L48.02 4Q47.25 4 46.86 4.62Q46.46 5.23 46.46 6.24ZM67.15 10L60.86 10L60.86 8.37L63.02 8.37L63.02 1.73L60.86 1.73L60.86 0.10L67.15 0.10L67.15 1.73L65.01 1.73L65.01 8.37L67.15 8.37L67.15 10ZM70.83 1.74L70.83 8.40Q70.91 8.42 71.01 8.42Q71.10 8.42 71.18 8.42L71.18 8.42Q71.86 8.42 72.31 8.16Q72.77 7.90 73.05 7.46Q73.33 7.01 73.45 6.39Q73.57 5.78 73.57 5.04L73.57 5.04Q73.57 4.40 73.47 3.79Q73.38 3.18 73.14 2.72Q72.90 2.26 72.48 1.98Q72.06 1.70 71.41 1.70L71.41 1.70Q71.28 1.70 71.12 1.70Q70.96 1.71 70.83 1.74L70.83 1.74ZM75.57 5.04L75.57 5.04Q75.57 6.42 75.22 7.38Q74.88 8.35 74.27 8.96Q73.66 9.57 72.82 9.85Q71.98 10.13 70.98 10.13L70.98 10.13Q70.45 10.13 69.94 10.07Q69.44 10.02 68.86 9.89L68.86 9.89L68.86 0.22Q69.54 0.08 70.13 0.03Q70.72-0.02 71.23-0.02L71.23-0.02Q72.21-0.02 73.02 0.27Q73.82 0.56 74.38 1.18Q74.94 1.79 75.26 2.74Q75.57 3.70 75.57 5.04ZM83.36 8.37L83.36 10L77.14 10L77.14 0.10L79.12 0.10L79.12 8.37L83.36 8.37Z"/></g></svg>