<?xml version="1.0" encoding="UTF-8"?>
<svg height="26" width="123" version="1.1" xmlns="http://www.w3.org/2000/svg"><!--Created by Josélio de S. C. Júnior - 2021 - https://github.com/joseliojunior -->
    <rect
        height="24"
        width="121"
        rx="12"
        ry="12"
        x="1" y="1"
        fill="#E22837"
        stroke="#630d15"
        stroke-width="1" />
    <g transform="translate(0, 8)">
        <path fill="#630d15" stroke="none" d="M25.49 2.40L25.49 2.40Q26.11 2.40 26.51 2.59Q26.91 2.78 27.14 3.17Q27.38 3.55 27.46 4.14Q27.54 4.72 27.54 5.50L27.54 5.50L27.54 10L25.94 10L25.94 5.41Q25.94 4.96 25.88 4.69Q25.82 4.42 25.74 4.27Q25.65 4.13 25.53 4.08Q25.41 4.03 25.28 4.03L25.28 4.03Q25.14 4.03 24.98 4.06Q24.82 4.08 24.69 4.14L24.69 4.14Q24.74 4.45 24.77 4.82Q24.80 5.18 24.80 5.63L24.80 5.63L24.80 7.14L23.20 7.14L23.20 5.41Q23.20 4.64 23.05 4.34Q22.90 4.03 22.56 4.03L22.56 4.03Q22.46 4.03 22.33 4.05Q22.19 4.06 22.06 4.10L22.06 4.10L22.06 10L20.46 10L20.46 2.77Q21.09 2.59 21.70 2.50Q22.30 2.40 22.77 2.40L22.77 2.40Q23.18 2.40 23.51 2.50Q23.84 2.61 24.08 2.85L24.08 2.85Q24.35 2.67 24.72 2.54Q25.09 2.40 25.49 2.40ZM28.70 6.24L28.70 6.24Q28.70 5.42 28.96 4.70Q29.22 3.98 29.74 3.45Q30.27 2.91 31.08 2.60Q31.89 2.29 33.01 2.29L33.01 2.29Q33.68 2.29 34.22 2.38Q34.77 2.48 35.33 2.70L35.33 2.70L34.90 4.29Q34.58 4.18 34.18 4.09Q33.79 4 33.18 4L33.18 4Q32.48 4 32.01 4.17Q31.54 4.34 31.25 4.63Q30.96 4.93 30.83 5.34Q30.70 5.76 30.70 6.24L30.70 6.24Q30.70 7.28 31.29 7.87Q31.87 8.46 33.28 8.46L33.28 8.46Q33.74 8.46 34.25 8.40Q34.75 8.34 35.17 8.19L35.17 8.19L35.46 9.81Q35.04 9.97 34.45 10.07Q33.86 10.18 33.06 10.18L33.06 10.18Q31.90 10.18 31.08 9.87Q30.26 9.57 29.73 9.04Q29.20 8.51 28.95 7.79Q28.70 7.07 28.70 6.24ZM40.21 10L38.22 10L38.22 4.11L36.58 4.11L36.58 2.48L38.22 2.48L38.22 2.05Q38.22 1.14 38.49 0.54Q38.75-0.06 39.20-0.42Q39.65-0.78 40.22-0.94Q40.80-1.09 41.41-1.09L41.41-1.09Q42.03-1.09 42.69-0.98Q43.34-0.86 43.87-0.61L43.87-0.61L43.54 0.99Q43.17 0.86 42.62 0.73Q42.06 0.59 41.57 0.59L41.57 0.59Q41.30 0.59 41.05 0.64Q40.80 0.69 40.62 0.85Q40.43 1.01 40.32 1.30Q40.21 1.60 40.21 2.08L40.21 2.08L40.21 2.48L43.30 2.48L43.30 4.11L40.21 4.11L40.21 10ZM51.01 2.48L51.01 9.74Q50.46 9.89 49.69 10.03Q48.91 10.18 48 10.18L48 10.18Q47.07 10.18 46.48 9.92Q45.89 9.66 45.54 9.19Q45.20 8.72 45.07 8.08Q44.94 7.44 44.94 6.67L44.94 6.67L44.94 2.48L46.91 2.48L46.91 6.42Q46.91 7.46 47.16 7.96Q47.41 8.46 48.13 8.46L48.13 8.46Q48.58 8.46 49.02 8.38L49.02 8.38L49.02 2.48L51.01 2.48ZM53.01 10L53.01 2.72Q53.54 2.58 54.31 2.45Q55.09 2.32 56 2.32L56 2.32Q56.90 2.32 57.49 2.57Q58.08 2.82 58.42 3.27Q58.77 3.73 58.91 4.36Q59.06 4.99 59.06 5.76L59.06 5.76L59.06 10L57.09 10L57.09 6.02Q57.09 4.96 56.85 4.50Q56.61 4.03 55.87 4.03L55.87 4.03Q55.65 4.03 55.43 4.05Q55.22 4.06 54.98 4.10L54.98 4.10L54.98 10L53.01 10ZM60.70 6.24L60.70 6.24Q60.70 5.42 60.96 4.70Q61.22 3.98 61.74 3.45Q62.27 2.91 63.08 2.60Q63.89 2.29 65.01 2.29L65.01 2.29Q65.68 2.29 66.22 2.38Q66.77 2.48 67.33 2.70L67.33 2.70L66.90 4.29Q66.58 4.18 66.18 4.09Q65.79 4 65.18 4L65.18 4Q64.48 4 64.01 4.17Q63.54 4.34 63.25 4.63Q62.96 4.93 62.83 5.34Q62.70 5.76 62.70 6.24L62.70 6.24Q62.70 7.28 63.29 7.87Q63.87 8.46 65.28 8.46L65.28 8.46Q65.74 8.46 66.25 8.40Q66.75 8.34 67.17 8.19L67.17 8.19L67.46 9.81Q67.04 9.97 66.45 10.07Q65.86 10.18 65.06 10.18L65.06 10.18Q63.90 10.18 63.08 9.87Q62.26 9.57 61.73 9.04Q61.20 8.51 60.95 7.79Q60.70 7.07 60.70 6.24ZM70.29 7.20L70.29 4.11L68.58 4.11L68.58 2.48L70.29 2.48L70.29 0.59L72.26 0.27L72.26 2.48L75.41 2.48L75.41 4.11L72.26 4.11L72.26 7.15Q72.26 7.57 72.34 7.82Q72.42 8.08 72.56 8.22Q72.70 8.37 72.91 8.42Q73.12 8.46 73.38 8.46L73.38 8.46Q73.65 8.46 73.88 8.45Q74.11 8.43 74.33 8.39Q74.54 8.35 74.78 8.27Q75.01 8.19 75.28 8.06L75.28 8.06L75.55 9.76Q75.01 9.98 74.38 10.08Q73.74 10.18 73.15 10.18L73.15 10.18Q72.46 10.18 71.94 10.06Q71.41 9.95 71.04 9.63Q70.67 9.31 70.48 8.73Q70.29 8.14 70.29 7.20L70.29 7.20ZM80.54 0.32L80.54 0.32Q80.54 0.90 80.18 1.23Q79.81 1.57 79.30 1.57L79.30 1.57Q78.78 1.57 78.42 1.23Q78.06 0.90 78.06 0.32L78.06 0.32Q78.06-0.27 78.42-0.61Q78.78-0.94 79.30-0.94L79.30-0.94Q79.81-0.94 80.18-0.61Q80.54-0.27 80.54 0.32ZM83.22 8.10L83.47 9.68Q82.86 9.97 82.33 10.07Q81.79 10.18 81.34 10.18L81.34 10.18Q80.58 10.18 80.06 9.95Q79.54 9.73 79.22 9.30Q78.91 8.88 78.78 8.27Q78.66 7.66 78.66 6.88L78.66 6.88L78.66 4.11L76.58 4.11L76.58 2.48L80.62 2.48L80.62 7.14Q80.62 7.81 80.87 8.14Q81.12 8.46 81.70 8.46L81.70 8.46Q81.97 8.46 82.35 8.39Q82.74 8.32 83.22 8.10L83.22 8.10ZM91.55 6.22L91.55 6.22Q91.55 7.12 91.30 7.85Q91.04 8.58 90.58 9.10Q90.11 9.63 89.46 9.92Q88.82 10.21 88.02 10.21L88.02 10.21Q87.22 10.21 86.57 9.92Q85.92 9.63 85.45 9.10Q84.98 8.58 84.72 7.85Q84.46 7.12 84.46 6.22L84.46 6.22Q84.46 5.34 84.73 4.62Q84.99 3.89 85.46 3.37Q85.94 2.85 86.59 2.57Q87.25 2.29 88.02 2.29L88.02 2.29Q88.80 2.29 89.45 2.57Q90.10 2.85 90.57 3.37Q91.04 3.89 91.30 4.62Q91.55 5.34 91.55 6.22ZM86.46 6.24L86.46 6.24Q86.46 7.25 86.82 7.87Q87.18 8.50 87.98 8.50L87.98 8.50Q88.75 8.50 89.14 7.87Q89.54 7.25 89.54 6.24L89.54 6.24Q89.54 5.23 89.18 4.62Q88.82 4 88.02 4L88.02 4Q87.25 4 86.86 4.62Q86.46 5.23 86.46 6.24ZM93.01 10L93.01 2.72Q93.54 2.58 94.31 2.45Q95.09 2.32 96 2.32L96 2.32Q96.90 2.32 97.49 2.57Q98.08 2.82 98.42 3.27Q98.77 3.73 98.91 4.36Q99.06 4.99 99.06 5.76L99.06 5.76L99.06 10L97.09 10L97.09 6.02Q97.09 4.96 96.85 4.50Q96.61 4.03 95.87 4.03L95.87 4.03Q95.65 4.03 95.43 4.05Q95.22 4.06 94.98 4.10L94.98 4.10L94.98 10L93.01 10Z"/>
    </g>
</svg>