<?xml version="1.0" encoding="UTF-8"?><svg height="34" width="163" version="1.1" xmlns="http://www.w3.org/2000/svg"><!--Created by Josélio de S. C. Júnior - 2021 - https://github.com/joseliojunior --><rect height="32" width="161" rx="16" ry="16" x="1" y="1" fill="#E22837" stroke="#630d15" stroke-width="1" /><g transform="translate(0, 12)"><path fill="#630d15" d="M28.23 0.60L28.23 0.60Q29.17 0.60 29.77 0.89Q30.37 1.18 30.72 1.75Q31.06 2.33 31.18 3.20Q31.30 4.08 31.30 5.26L31.30 5.26L31.30 12L28.90 12L28.90 5.11Q28.90 4.44 28.82 4.03Q28.74 3.62 28.60 3.41Q28.47 3.19 28.29 3.12Q28.11 3.05 27.92 3.05L27.92 3.05Q27.70 3.05 27.46 3.08Q27.22 3.12 27.03 3.22L27.03 3.22Q27.10 3.67 27.15 4.22Q27.20 4.78 27.20 5.45L27.20 5.45L27.20 7.70L24.80 7.70L24.80 5.11Q24.80 3.96 24.57 3.50Q24.34 3.05 23.84 3.05L23.84 3.05Q23.70 3.05 23.49 3.07Q23.29 3.10 23.10 3.14L23.10 3.14L23.10 12L20.70 12L20.70 1.15Q21.63 0.89 22.54 0.74Q23.46 0.60 24.15 0.60L24.15 0.60Q24.78 0.60 25.27 0.76Q25.76 0.91 26.12 1.27L26.12 1.27Q26.53 1.01 27.08 0.80Q27.63 0.60 28.23 0.60ZM33.06 6.36L33.06 6.36Q33.06 5.14 33.44 4.06Q33.82 2.98 34.62 2.17Q35.41 1.37 36.62 0.90Q37.83 0.43 39.51 0.43L39.51 0.43Q40.52 0.43 41.34 0.58Q42.15 0.72 42.99 1.06L42.99 1.06L42.34 3.43Q41.86 3.26 41.28 3.13Q40.69 3 39.78 3L39.78 3Q38.72 3 38.01 3.25Q37.30 3.50 36.87 3.95Q36.44 4.39 36.25 5.02Q36.06 5.64 36.06 6.36L36.06 6.36Q36.06 7.92 36.93 8.81Q37.81 9.70 39.92 9.70L39.92 9.70Q40.62 9.70 41.37 9.60Q42.13 9.50 42.75 9.29L42.75 9.29L43.18 11.71Q42.56 11.95 41.67 12.11Q40.78 12.26 39.58 12.26L39.58 12.26Q37.86 12.26 36.62 11.81Q35.38 11.35 34.59 10.56Q33.80 9.77 33.43 8.69Q33.06 7.61 33.06 6.36ZM50.31 12L47.34 12L47.34 3.17L44.86 3.17L44.86 0.72L47.34 0.72L47.34 0.07Q47.34-1.30 47.73-2.20Q48.13-3.10 48.80-3.64Q49.47-4.18 50.34-4.40Q51.20-4.63 52.11-4.63L52.11-4.63Q53.05-4.63 54.03-4.46Q55.02-4.30 55.81-3.91L55.81-3.91L55.30-1.51Q54.75-1.70 53.92-1.91Q53.10-2.11 52.35-2.11L52.35-2.11Q51.94-2.11 51.57-2.04Q51.20-1.97 50.92-1.73Q50.65-1.49 50.48-1.04Q50.31-0.60 50.31 0.12L50.31 0.12L50.31 0.72L54.94 0.72L54.94 3.17L50.31 3.17L50.31 12ZM66.51 0.72L66.51 11.62Q65.70 11.83 64.53 12.05Q63.37 12.26 62 12.26L62 12.26Q60.61 12.26 59.72 11.88Q58.83 11.50 58.32 10.79Q57.80 10.08 57.61 9.12Q57.42 8.16 57.42 7.01L57.42 7.01L57.42 0.72L60.37 0.72L60.37 6.62Q60.37 8.18 60.74 8.94Q61.11 9.70 62.19 9.70L62.19 9.70Q62.86 9.70 63.54 9.58L63.54 9.58L63.54 0.72L66.51 0.72ZM69.51 12L69.51 1.08Q70.30 0.86 71.47 0.67Q72.63 0.48 74 0.48L74 0.48Q75.34 0.48 76.23 0.85Q77.12 1.22 77.64 1.91Q78.15 2.59 78.37 3.54Q78.58 4.49 78.58 5.64L78.58 5.64L78.58 12L75.63 12L75.63 6.02Q75.63 4.44 75.27 3.74Q74.91 3.05 73.81 3.05L73.81 3.05Q73.47 3.05 73.15 3.07Q72.82 3.10 72.46 3.14L72.46 3.14L72.46 12L69.51 12ZM81.06 6.36L81.06 6.36Q81.06 5.14 81.44 4.06Q81.82 2.98 82.62 2.17Q83.41 1.37 84.62 0.90Q85.83 0.43 87.51 0.43L87.51 0.43Q88.52 0.43 89.34 0.58Q90.15 0.72 90.99 1.06L90.99 1.06L90.34 3.43Q89.86 3.26 89.28 3.13Q88.69 3 87.78 3L87.78 3Q86.72 3 86.01 3.25Q85.30 3.50 84.87 3.95Q84.44 4.39 84.25 5.02Q84.06 5.64 84.06 6.36L84.06 6.36Q84.06 7.92 84.93 8.81Q85.81 9.70 87.92 9.70L87.92 9.70Q88.62 9.70 89.37 9.60Q90.13 9.50 90.75 9.29L90.75 9.29L91.18 11.71Q90.56 11.95 89.67 12.11Q88.78 12.26 87.58 12.26L87.58 12.26Q85.86 12.26 84.62 11.81Q83.38 11.35 82.59 10.56Q81.80 9.77 81.43 8.69Q81.06 7.61 81.06 6.36ZM95.43 7.80L95.43 3.17L92.86 3.17L92.86 0.72L95.43 0.72L95.43-2.11L98.38-2.59L98.38 0.72L103.11 0.72L103.11 3.17L98.38 3.17L98.38 7.73Q98.38 8.35 98.50 8.74Q98.62 9.12 98.84 9.34Q99.06 9.55 99.37 9.62Q99.68 9.70 100.06 9.70L100.06 9.70Q100.47 9.70 100.82 9.67Q101.17 9.65 101.49 9.59Q101.82 9.53 102.16 9.41Q102.51 9.29 102.92 9.10L102.92 9.10L103.33 11.64Q102.51 11.98 101.56 12.12Q100.62 12.26 99.73 12.26L99.73 12.26Q98.70 12.26 97.90 12.10Q97.11 11.93 96.56 11.45Q96.01 10.97 95.72 10.09Q95.43 9.22 95.43 7.80L95.43 7.80ZM110.82-2.52L110.82-2.52Q110.82-1.66 110.26-1.15Q109.71-0.65 108.94-0.65L108.94-0.65Q108.18-0.65 107.64-1.15Q107.10-1.66 107.10-2.52L107.10-2.52Q107.10-3.41 107.64-3.91Q108.18-4.42 108.94-4.42L108.94-4.42Q109.71-4.42 110.26-3.91Q110.82-3.41 110.82-2.52ZM114.82 9.14L115.21 11.52Q114.30 11.95 113.49 12.11Q112.69 12.26 112.02 12.26L112.02 12.26Q110.86 12.26 110.08 11.93Q109.30 11.59 108.84 10.96Q108.37 10.32 108.18 9.41Q107.98 8.50 107.98 7.32L107.98 7.32L107.98 3.17L104.86 3.17L104.86 0.72L110.94 0.72L110.94 7.70Q110.94 8.71 111.31 9.20Q111.68 9.70 112.54 9.70L112.54 9.70Q112.95 9.70 113.53 9.59Q114.10 9.48 114.82 9.14L114.82 9.14ZM127.33 6.34L127.33 6.34Q127.33 7.68 126.94 8.77Q126.56 9.86 125.86 10.66Q125.17 11.45 124.20 11.88Q123.22 12.31 122.02 12.31L122.02 12.31Q120.82 12.31 119.85 11.88Q118.88 11.45 118.17 10.66Q117.46 9.86 117.08 8.77Q116.70 7.68 116.70 6.34L116.70 6.34Q116.70 5.02 117.09 3.92Q117.49 2.83 118.20 2.05Q118.90 1.27 119.89 0.85Q120.87 0.43 122.02 0.43L122.02 0.43Q123.20 0.43 124.17 0.85Q125.14 1.27 125.85 2.05Q126.56 2.83 126.94 3.92Q127.33 5.02 127.33 6.34ZM119.70 6.36L119.70 6.36Q119.70 7.87 120.24 8.81Q120.78 9.74 121.98 9.74L121.98 9.74Q123.13 9.74 123.72 8.81Q124.30 7.87 124.30 6.36L124.30 6.36Q124.30 4.85 123.76 3.92Q123.22 3 122.02 3L122.02 3Q120.87 3 120.28 3.92Q119.70 4.85 119.70 6.36ZM129.51 12L129.51 1.08Q130.30 0.86 131.47 0.67Q132.63 0.48 134 0.48L134 0.48Q135.34 0.48 136.23 0.85Q137.12 1.22 137.64 1.91Q138.15 2.59 138.37 3.54Q138.58 4.49 138.58 5.64L138.58 5.64L138.58 12L135.63 12L135.63 6.02Q135.63 4.44 135.27 3.74Q134.91 3.05 133.81 3.05L133.81 3.05Q133.47 3.05 133.15 3.07Q132.82 3.10 132.46 3.14L132.46 3.14L132.46 12L129.51 12Z"/></g></svg>