<?xml version="1.0" encoding="UTF-8"?><svg height="26" width="90.6" version="1.1" xmlns="http://www.w3.org/2000/svg"><!--Created by Josélio de S. C. Júnior - 2021 - https://github.com/joseliojunior --><rect height="24" width="88.6" rx="1" ry="1" x="1" y="1" fill="#40d47e" stroke="#176437" stroke-width="1" /><g transform="translate(0, 8)"><path fill="#176437" d="M27.01 0.10L27.01 6.69Q27.01 7.41 26.82 8.05Q26.64 8.69 26.22 9.17Q25.79 9.65 25.12 9.93Q24.45 10.21 23.49 10.21L23.49 10.21Q22.48 10.21 21.81 9.95Q21.14 9.70 20.67 9.33L20.67 9.33L21.42 7.76Q21.82 8.02 22.31 8.26Q22.80 8.50 23.31 8.50L23.31 8.50Q24.08 8.50 24.55 8.09Q25.02 7.68 25.02 6.58L25.02 6.58L25.02 1.73L21.71 1.73L21.71 0.10L27.01 0.10ZM31.71 8.56L31.71 8.56Q32.21 8.56 32.54 8.46Q32.86 8.35 33.06 8.17Q33.25 7.98 33.32 7.75Q33.39 7.52 33.39 7.28L33.39 7.28Q33.39 6.98 33.22 6.74Q33.04 6.50 32.77 6.31Q32.50 6.13 32.16 5.98Q31.82 5.82 31.49 5.70L31.49 5.70Q31.04 5.54 30.56 5.33Q30.08 5.12 29.69 4.80Q29.30 4.48 29.04 4.01Q28.78 3.54 28.78 2.83L28.78 2.83Q28.78 1.44 29.69 0.66Q30.59-0.13 32.18-0.13L32.18-0.13Q33.09-0.13 33.77 0.08Q34.45 0.29 34.91 0.54L34.91 0.54L34.34 2.06Q33.94 1.84 33.45 1.68Q32.96 1.52 32.32 1.52L32.32 1.52Q30.75 1.52 30.75 2.66L30.75 2.66Q30.75 2.94 30.91 3.16Q31.07 3.38 31.32 3.54Q31.57 3.71 31.88 3.84Q32.19 3.97 32.50 4.08L32.50 4.08Q32.96 4.26 33.46 4.47Q33.97 4.69 34.39 5.05Q34.82 5.41 35.09 5.94Q35.36 6.48 35.36 7.30L35.36 7.30Q35.36 8.69 34.46 9.45Q33.55 10.21 31.71 10.21L31.71 10.21Q30.48 10.21 29.74 9.94Q29.01 9.68 28.64 9.46L28.64 9.46L29.22 7.86Q29.65 8.11 30.25 8.34Q30.85 8.56 31.71 8.56ZM38.43 5.04L38.43 5.04Q38.43 5.76 38.49 6.39Q38.54 7.02 38.71 7.49Q38.88 7.95 39.18 8.22Q39.49 8.50 40 8.50L40 8.50Q40.50 8.50 40.81 8.22Q41.12 7.95 41.29 7.48Q41.46 7.01 41.51 6.38Q41.57 5.76 41.57 5.04L41.57 5.04Q41.57 4.32 41.51 3.69Q41.46 3.06 41.29 2.59Q41.12 2.13 40.82 1.86Q40.51 1.58 40 1.58L40 1.58Q39.49 1.58 39.18 1.86Q38.88 2.13 38.71 2.60Q38.54 3.07 38.49 3.70Q38.43 4.32 38.43 5.04ZM36.43 5.04L36.43 5.04Q36.43 2.48 37.38 1.18Q38.32-0.13 40-0.13L40-0.13Q41.74-0.13 42.66 1.18Q43.57 2.48 43.57 5.04L43.57 5.04Q43.57 7.60 42.64 8.90Q41.71 10.21 40.02 10.21L40.02 10.21Q38.27 10.21 37.35 8.90Q36.43 7.60 36.43 5.04ZM51.26 10L49.68 10Q49.01 8.35 48.22 6.71Q47.42 5.07 46.51 3.42L46.51 3.42L46.51 10L44.74 10L44.74 0.10L46.32 0.10Q46.77 0.80 47.22 1.62Q47.66 2.45 48.09 3.26Q48.51 4.08 48.87 4.85Q49.23 5.62 49.49 6.19L49.49 6.19L49.49 0.10L51.26 0.10L51.26 10ZM56.54 0.32L56.54 0.32Q56.54 0.90 56.18 1.23Q55.81 1.57 55.30 1.57L55.30 1.57Q54.78 1.57 54.42 1.23Q54.06 0.90 54.06 0.32L54.06 0.32Q54.06-0.27 54.42-0.61Q54.78-0.94 55.30-0.94L55.30-0.94Q55.81-0.94 56.18-0.61Q56.54-0.27 56.54 0.32ZM59.22 8.10L59.47 9.68Q58.86 9.97 58.33 10.07Q57.79 10.18 57.34 10.18L57.34 10.18Q56.58 10.18 56.06 9.95Q55.54 9.73 55.22 9.30Q54.91 8.88 54.78 8.27Q54.66 7.66 54.66 6.88L54.66 6.88L54.66 4.11L52.58 4.11L52.58 2.48L56.62 2.48L56.62 7.14Q56.62 7.81 56.87 8.14Q57.12 8.46 57.70 8.46L57.70 8.46Q57.97 8.46 58.35 8.39Q58.74 8.32 59.22 8.10L59.22 8.10ZM62.50 6.30L62.50 6.30Q62.50 7.34 62.84 7.91Q63.18 8.48 63.89 8.48L63.89 8.48Q64.22 8.48 64.52 8.40Q64.82 8.32 65.04 8.19L65.04 8.19L65.04 4.06Q64.90 4.05 64.65 4.02Q64.40 4 64.13 4L64.13 4Q63.31 4 62.90 4.65Q62.50 5.30 62.50 6.30ZM60.50 6.24L60.50 6.24Q60.50 5.38 60.74 4.65Q60.98 3.92 61.43 3.41Q61.89 2.90 62.57 2.61Q63.25 2.32 64.11 2.32L64.11 2.32Q64.48 2.32 64.89 2.35Q65.30 2.38 65.68 2.44Q66.06 2.50 66.41 2.57Q66.75 2.64 67.01 2.72L67.01 2.72L67.01 12.64L65.04 12.64L65.04 9.79Q64.67 9.97 64.26 10.07Q63.86 10.18 63.49 10.18L63.49 10.18Q62.75 10.18 62.19 9.90Q61.63 9.62 61.26 9.10Q60.88 8.59 60.69 7.86Q60.50 7.14 60.50 6.24Z"/></g></svg>