<?xml version="1.0" encoding="UTF-8"?>
<svg height="34" width="90.4" version="1.1" xmlns="http://www.w3.org/2000/svg"><!--Created by Josélio de S. C. Júnior - 2021 - https://github.com/joseliojunior -->
    <defs>
        <pattern id="pattern"
                x="1.5" y="3" width="3" height="6"
                patternUnits="userSpaceOnUse"
                patternTransform="rotate(45)" >
            <rect height="6" width="1" fill="#999999"/>
        </pattern>
    </defs>
    <rect
        height="32"
        width="88.4"
        rx="16"
        ry="16"
        x="1" y="1"
        fill="url(#pattern)"
        stroke="#000000"
        stroke-width="1" />
    <g transform="translate(0, 12)">
        <path fill="#ffffff" stroke="#000000" d="M26.10 3.94L26.10 3.94Q26.36 3.38 26.71 2.54Q27.06 1.70 27.40 0.77Q27.75-0.17 28.08-1.13Q28.40-2.09 28.66-2.86L28.66-2.86L31.71-2.86Q31.26-1.63 30.80-0.48Q30.34 0.67 29.84 1.80Q29.34 2.93 28.76 4.04Q28.18 5.16 27.51 6.34L27.51 6.34L27.51 12L24.54 12L24.54 6.36Q23.22 4.03 22.22 1.81Q21.22-0.41 20.31-2.86L20.31-2.86L23.48-2.86Q24.03-1.13 24.70 0.66Q25.38 2.45 26.10 3.94ZM43.78 12L40.62 12L39.92 8.57L35.96 8.57L35.29 12L32.22 12Q33.27 7.61 34.35 4.00Q35.43 0.38 36.44-2.86L36.44-2.86L39.66-2.86Q40.71 0.41 41.76 4.07Q42.80 7.73 43.78 12L43.78 12ZM37.98 0.02L37.98 0.02Q37.74 0.86 37.53 1.62Q37.33 2.38 37.15 3.11Q36.97 3.84 36.81 4.58Q36.66 5.33 36.51 6.12L36.51 6.12L39.42 6.12Q39.27 5.33 39.13 4.58Q38.98 3.84 38.80 3.11Q38.62 2.38 38.42 1.62Q38.22 0.86 37.98 0.02ZM54.90 12L52.52 12Q51.51 9.53 50.32 7.07Q49.14 4.61 47.77 2.14L47.77 2.14L47.77 12L45.10 12L45.10-2.86L47.48-2.86Q48.15-1.80 48.82-0.56Q49.50 0.67 50.13 1.90Q50.77 3.12 51.31 4.27Q51.85 5.42 52.23 6.29L52.23 6.29L52.23-2.86L54.90-2.86L54.90 12ZM63.49-0.62L63.49-0.62Q62.43-0.62 61.71-0.24Q60.99 0.14 60.52 0.83Q60.06 1.51 59.85 2.46Q59.65 3.41 59.65 4.56L59.65 4.56Q59.65 7.22 60.49 8.48Q61.33 9.74 62.96 9.74L62.96 9.74Q63.22 9.74 63.54 9.72Q63.85 9.70 64.11 9.65L64.11 9.65L64.11 4.22L67.06 4.22L67.06 11.64Q66.54 11.83 65.42 12.07Q64.30 12.31 62.72 12.31L62.72 12.31Q61.33 12.31 60.21 11.82Q59.10 11.33 58.30 10.36Q57.51 9.38 57.08 7.93Q56.65 6.48 56.65 4.56L56.65 4.56Q56.65 2.66 57.15 1.21Q57.66-0.24 58.52-1.22Q59.38-2.21 60.56-2.70Q61.74-3.19 63.08-3.19L63.08-3.19Q63.94-3.19 64.63-3.06Q65.31-2.93 65.82-2.76Q66.32-2.59 66.64-2.40Q66.97-2.21 67.14-2.11L67.14-2.11L66.37 0.24Q65.84-0.10 65.07-0.36Q64.30-0.62 63.49-0.62Z"/>
    </g>
</svg>