<?xml version="1.0" encoding="UTF-8"?>
<svg height="26" width="74.4" version="1.1" xmlns="http://www.w3.org/2000/svg"><!--Created by Josélio de S. C. Júnior - 2021 - https://github.com/joseliojunior -->
    <defs>
        <pattern id="pattern"
                x="3" y="3" width="6" height="6"
                patternUnits="userSpaceOnUse"
                patternTransform="rotate(45)" >
            <rect height="6" width="6"
                fill="#ffffff"/>
            <line x1="0" y1="0" x2="0" y2="6"
                stroke="#888888"
                stroke-width="2" />
        </pattern>
    </defs>
    <rect
        height="24"
        width="72.4"
        rx="1"
        ry="1"
        x="1" y="1"
        fill="url(#pattern)" />
    <g transform="translate(0, 8)">
        <path fill="#000000" d="M24.06 4.62L24.06 4.62Q24.24 4.26 24.47 3.70Q24.70 3.14 24.94 2.51Q25.17 1.89 25.38 1.25Q25.60 0.61 25.78 0.10L25.78 0.10L27.81 0.10Q27.50 0.91 27.20 1.68Q26.90 2.45 26.56 3.20Q26.22 3.95 25.84 4.70Q25.46 5.44 25.01 6.22L25.01 6.22L25.01 10L23.02 10L23.02 6.24Q22.14 4.69 21.48 3.21Q20.82 1.73 20.21 0.10L20.21 0.10L22.32 0.10Q22.69 1.25 23.14 2.44Q23.58 3.63 24.06 4.62ZM35.86 10L33.74 10L33.28 7.71L30.64 7.71L30.19 10L28.14 10Q28.85 7.07 29.57 4.66Q30.29 2.26 30.96 0.10L30.96 0.10L33.10 0.10Q33.81 2.27 34.50 4.71Q35.20 7.15 35.86 10L35.86 10ZM31.98 2.02L31.98 2.02Q31.82 2.58 31.69 3.08Q31.55 3.58 31.43 4.07Q31.31 4.56 31.21 5.06Q31.10 5.55 31.01 6.08L31.01 6.08L32.94 6.08Q32.85 5.55 32.75 5.06Q32.66 4.56 32.54 4.07Q32.42 3.58 32.28 3.08Q32.14 2.58 31.98 2.02ZM43.26 10L41.68 10Q41.01 8.35 40.22 6.71Q39.42 5.07 38.51 3.42L38.51 3.42L38.51 10L36.74 10L36.74 0.10L38.32 0.10Q38.77 0.80 39.22 1.62Q39.66 2.45 40.09 3.26Q40.51 4.08 40.87 4.85Q41.23 5.62 41.49 6.19L41.49 6.19L41.49 0.10L43.26 0.10L43.26 10ZM48.99 1.58L48.99 1.58Q48.29 1.58 47.81 1.84Q47.33 2.10 47.02 2.55Q46.70 3.01 46.57 3.64Q46.43 4.27 46.43 5.04L46.43 5.04Q46.43 6.82 46.99 7.66Q47.55 8.50 48.64 8.50L48.64 8.50Q48.82 8.50 49.02 8.48Q49.23 8.46 49.41 8.43L49.41 8.43L49.41 4.82L51.38 4.82L51.38 9.76Q51.02 9.89 50.28 10.05Q49.54 10.21 48.48 10.21L48.48 10.21Q47.55 10.21 46.81 9.88Q46.06 9.55 45.54 8.90Q45.01 8.26 44.72 7.29Q44.43 6.32 44.43 5.04L44.43 5.04Q44.43 3.78 44.77 2.81Q45.10 1.84 45.68 1.18Q46.26 0.53 47.04 0.20Q47.82-0.13 48.72-0.13L48.72-0.13Q49.30-0.13 49.75-0.04Q50.21 0.05 50.54 0.16Q50.88 0.27 51.10 0.40Q51.31 0.53 51.42 0.59L51.42 0.59L50.91 2.16Q50.56 1.94 50.05 1.76Q49.54 1.58 48.99 1.58Z"/>
    </g>
</svg>