<?xml version="1.0" encoding="UTF-8"?>
<svg height="34" width="78.4" version="1.1" xmlns="http://www.w3.org/2000/svg">
    <rect
        height="32"
        width="76.4"
        rx="14"
        ry="14"
        x="1"
        y="1"
        fill="#e38c00"
        stroke="#000000"
        stroke-width="1"
         />
    <g transform="translate(0, 14)">
        <path fill="#000000" d="M10.70-6.33L23.30-6.33L23.30-3.48L18.74-3.48L18.74 11L15.26 11L15.26-3.48L10.70-3.48L10.70-6.33ZM30.50 8.48L30.50 8.48Q31.36 8.48 31.94 8.30Q32.51 8.12 32.85 7.79Q33.18 7.47 33.31 7.07Q33.44 6.66 33.44 6.24L33.44 6.24Q33.44 5.71 33.13 5.29Q32.82 4.87 32.34 4.55Q31.87 4.22 31.28 3.96Q30.69 3.69 30.10 3.47L30.10 3.47Q29.32 3.19 28.48 2.82Q27.64 2.46 26.95 1.90Q26.27 1.34 25.82 0.51Q25.37-0.31 25.37-1.54L25.37-1.54Q25.37-3.98 26.95-5.35Q28.54-6.72 31.31-6.72L31.31-6.72Q32.90-6.72 34.09-6.36Q35.28-6.00 36.10-5.55L36.10-5.55L35.09-2.89Q34.39-3.28 33.53-3.56Q32.68-3.84 31.56-3.84L31.56-3.84Q28.82-3.84 28.82-1.85L28.82-1.85Q28.82-1.35 29.10-0.97Q29.38-0.59 29.81-0.30Q30.24-0.00 30.79 0.22Q31.34 0.44 31.87 0.64L31.87 0.64Q32.68 0.95 33.56 1.33Q34.44 1.70 35.19 2.33Q35.93 2.96 36.40 3.90Q36.88 4.84 36.88 6.27L36.88 6.27Q36.88 8.70 35.30 10.03Q33.72 11.36 30.50 11.36L30.50 11.36Q28.34 11.36 27.05 10.90Q25.76 10.44 25.12 10.05L25.12 10.05L26.13 7.25Q26.88 7.70 27.93 8.09Q28.98 8.48 30.50 8.48ZM38.76 2.40L38.76 2.40Q38.76-2.08 40.41-4.36Q42.06-6.64 45-6.64L45-6.64Q48.05-6.64 49.65-4.36Q51.24-2.08 51.24 2.40L51.24 2.40Q51.24 6.32 49.98 8.58Q48.72 10.83 46.34 11.31L46.34 11.31Q46.65 12.01 47.84 12.47Q49.03 12.93 51.10 13.30L51.10 13.30L50.38 15.76Q47.10 15.31 45.43 14.26Q43.77 13.21 43.46 11.25L43.46 11.25Q41.19 10.69 39.97 8.47Q38.76 6.24 38.76 2.40ZM42.26 2.40L42.26 2.40Q42.26 3.66 42.35 4.76Q42.45 5.85 42.75 6.67Q43.04 7.50 43.57 7.98Q44.10 8.45 45 8.45L45 8.45Q45.87 8.45 46.41 7.98Q46.96 7.50 47.25 6.67Q47.55 5.85 47.65 4.76Q47.74 3.66 47.74 2.40L47.74 2.40Q47.74 1.14 47.65 0.04Q47.55-1.07 47.25-1.88Q46.96-2.69 46.43-3.17Q45.90-3.64 45-3.64L45-3.64Q44.10-3.64 43.57-3.17Q43.04-2.69 42.75-1.87Q42.45-1.04 42.35 0.05Q42.26 1.14 42.26 2.40ZM64.88 8.14L64.88 11L53.99 11L53.99-6.33L57.46-6.33L57.46 8.14L64.88 8.14Z"/>
    </g>
</svg>