<?xml version="1.0" encoding="UTF-8"?><svg height="26" width="74.4" version="1.1" xmlns="http://www.w3.org/2000/svg"><!--Created by Josélio de S. C. Júnior - 2021 - https://github.com/joseliojunior --><rect height="24" width="72.4" rx="1" ry="1" x="1" y="1" fill="#e38c00" stroke="#000000" stroke-width="1" /><g transform="translate(0, 8)"><path fill="#000000" d="M20.40 0.10L27.60 0.10L27.60 1.73L24.99 1.73L24.99 10L23.01 10L23.01 1.73L20.40 1.73L20.40 0.10ZM31.71 8.56L31.71 8.56Q32.21 8.56 32.54 8.46Q32.86 8.35 33.06 8.17Q33.25 7.98 33.32 7.75Q33.39 7.52 33.39 7.28L33.39 7.28Q33.39 6.98 33.22 6.74Q33.04 6.50 32.77 6.31Q32.50 6.13 32.16 5.98Q31.82 5.82 31.49 5.70L31.49 5.70Q31.04 5.54 30.56 5.33Q30.08 5.12 29.69 4.80Q29.30 4.48 29.04 4.01Q28.78 3.54 28.78 2.83L28.78 2.83Q28.78 1.44 29.69 0.66Q30.59-0.13 32.18-0.13L32.18-0.13Q33.09-0.13 33.77 0.08Q34.45 0.29 34.91 0.54L34.91 0.54L34.34 2.06Q33.94 1.84 33.45 1.68Q32.96 1.52 32.32 1.52L32.32 1.52Q30.75 1.52 30.75 2.66L30.75 2.66Q30.75 2.94 30.91 3.16Q31.07 3.38 31.32 3.54Q31.57 3.71 31.88 3.84Q32.19 3.97 32.50 4.08L32.50 4.08Q32.96 4.26 33.46 4.47Q33.97 4.69 34.39 5.05Q34.82 5.41 35.09 5.94Q35.36 6.48 35.36 7.30L35.36 7.30Q35.36 8.69 34.46 9.45Q33.55 10.21 31.71 10.21L31.71 10.21Q30.48 10.21 29.74 9.94Q29.01 9.68 28.64 9.46L28.64 9.46L29.22 7.86Q29.65 8.11 30.25 8.34Q30.85 8.56 31.71 8.56ZM36.43 5.09L36.43 5.09Q36.43 2.53 37.38 1.22Q38.32-0.08 40-0.08L40-0.08Q41.74-0.08 42.66 1.22Q43.57 2.53 43.57 5.09L43.57 5.09Q43.57 7.33 42.85 8.62Q42.13 9.90 40.77 10.18L40.77 10.18Q40.94 10.58 41.62 10.84Q42.30 11.10 43.49 11.31L43.49 11.31L43.07 12.72Q41.20 12.46 40.25 11.86Q39.30 11.26 39.12 10.14L39.12 10.14Q37.82 9.82 37.13 8.55Q36.43 7.28 36.43 5.09ZM38.43 5.09L38.43 5.09Q38.43 5.81 38.49 6.43Q38.54 7.06 38.71 7.53Q38.88 8 39.18 8.27Q39.49 8.54 40 8.54L40 8.54Q40.50 8.54 40.81 8.27Q41.12 8 41.29 7.53Q41.46 7.06 41.51 6.43Q41.57 5.81 41.57 5.09L41.57 5.09Q41.57 4.37 41.51 3.74Q41.46 3.10 41.29 2.64Q41.12 2.18 40.82 1.90Q40.51 1.63 40 1.63L40 1.63Q39.49 1.63 39.18 1.90Q38.88 2.18 38.71 2.65Q38.54 3.12 38.49 3.74Q38.43 4.37 38.43 5.09ZM51.36 8.37L51.36 10L45.14 10L45.14 0.10L47.12 0.10L47.12 8.37L51.36 8.37Z"/></g></svg>