<?xml version="1.0" encoding="UTF-8"?>
<svg height="26" width="114.89999999999999" version="1.1" xmlns="http://www.w3.org/2000/svg"><!--Created by Josélio de S. C. Júnior - 2021 - https://github.com/joseliojunior -->
    <rect
        height="24"
        width="112.89999999999999"
        rx="12"
        ry="12"
        x="1" y="1"
        fill="#069406"
        stroke="#3bf73b"
        stroke-width="1" />
    <g transform="translate(0, 8)">
        <path fill="#3bf73b" stroke="none" d="M27.36 10L21.01 10L21.01 0.10L27.01 0.10L27.01 1.73L22.98 1.73L22.98 3.95L26.48 3.95L26.48 5.58L22.98 5.58L22.98 8.37L27.36 8.37L27.36 10ZM32.02 8.59L32.02 8.59Q32.34 8.59 32.64 8.58Q32.94 8.58 33.17 8.54L33.17 8.54L33.17 6.82Q32.98 6.78 32.70 6.76Q32.43 6.74 32.21 6.74L32.21 6.74Q31.90 6.74 31.62 6.78Q31.33 6.82 31.11 6.91Q30.90 7.01 30.77 7.18Q30.64 7.36 30.64 7.65L30.64 7.65Q30.64 8.16 31.02 8.38Q31.41 8.59 32.02 8.59ZM31.84 2.29L31.84 2.29Q32.77 2.29 33.38 2.50Q34 2.72 34.37 3.11Q34.74 3.50 34.90 4.07Q35.06 4.64 35.06 5.34L35.06 5.34L35.06 9.82Q34.62 9.92 33.78 10.05Q32.93 10.18 31.87 10.18L31.87 10.18Q31.15 10.18 30.57 10.05Q29.98 9.92 29.57 9.62Q29.15 9.33 28.93 8.86Q28.70 8.38 28.70 7.70L28.70 7.70Q28.70 7.04 28.96 6.59Q29.22 6.14 29.65 5.87Q30.08 5.60 30.64 5.48Q31.20 5.36 31.81 5.36L31.81 5.36Q32.58 5.36 33.17 5.49L33.17 5.49L33.17 5.25Q33.17 4.69 32.82 4.31Q32.46 3.94 31.60 3.94L31.60 3.94Q31.04 3.94 30.52 4.02Q30 4.10 29.68 4.21L29.68 4.21L29.41 2.62Q29.78 2.50 30.45 2.39Q31.12 2.29 31.84 2.29ZM39.65 8.51L39.65 8.51Q40.37 8.51 40.75 8.41Q41.14 8.30 41.14 7.98L41.14 7.98Q41.14 7.78 41.02 7.63Q40.90 7.49 40.68 7.38Q40.46 7.28 40.18 7.18Q39.90 7.09 39.60 6.99L39.60 6.99Q39.17 6.86 38.72 6.70Q38.27 6.53 37.90 6.27Q37.54 6.02 37.30 5.62Q37.06 5.23 37.06 4.64L37.06 4.64Q37.06 4.16 37.24 3.74Q37.42 3.31 37.82 2.98Q38.21 2.66 38.82 2.47Q39.42 2.29 40.27 2.29L40.27 2.29Q41.01 2.29 41.64 2.40Q42.27 2.51 42.74 2.72L42.74 2.72L42.43 4.38Q42.16 4.30 41.58 4.12Q41.01 3.94 40.29 3.94L40.29 3.94Q39.54 3.94 39.27 4.12Q39.01 4.30 39.01 4.51L39.01 4.51Q39.01 4.69 39.13 4.82Q39.25 4.96 39.45 5.07Q39.65 5.18 39.91 5.29Q40.18 5.39 40.48 5.49L40.48 5.49Q40.91 5.63 41.38 5.81Q41.84 5.98 42.22 6.25Q42.59 6.51 42.83 6.92Q43.07 7.33 43.07 7.92L43.07 7.92Q43.07 8.38 42.90 8.80Q42.72 9.22 42.31 9.52Q41.90 9.82 41.25 10Q40.59 10.18 39.63 10.18L39.63 10.18Q38.66 10.18 37.97 9.95Q37.28 9.73 36.86 9.55L36.86 9.55L37.17 7.90Q37.73 8.13 38.36 8.32Q38.99 8.51 39.65 8.51ZM49.54 2.48L51.55 2.48Q51.25 3.54 50.97 4.55Q50.69 5.57 50.38 6.54Q50.08 7.50 49.74 8.43Q49.39 9.36 48.99 10.24L48.99 10.24Q48.69 10.88 48.39 11.34Q48.10 11.81 47.74 12.10Q47.38 12.40 46.94 12.54Q46.50 12.69 45.90 12.69L45.90 12.69Q45.41 12.69 45 12.61Q44.59 12.53 44.32 12.40L44.32 12.40L44.69 10.75Q45.01 10.90 45.26 10.95Q45.50 11.01 45.79 11.01L45.79 11.01Q46.37 11.01 46.72 10.62Q47.07 10.24 47.28 9.71L47.28 9.71Q46.58 8.30 45.87 6.49Q45.17 4.67 44.59 2.48L44.59 2.48L46.64 2.48Q46.78 3.07 46.97 3.74Q47.15 4.42 47.36 5.09Q47.57 5.76 47.80 6.41Q48.03 7.06 48.27 7.62L48.27 7.62Q48.43 7.06 48.61 6.41Q48.78 5.76 48.94 5.10Q49.10 4.43 49.26 3.76Q49.41 3.09 49.54 2.48L49.54 2.48ZM57.52 6.19L57.52 6.19Q57.52 5.14 57.18 4.58Q56.83 4.02 56.13 4.02L56.13 4.02Q55.81 4.02 55.50 4.10Q55.18 4.19 54.96 4.32L54.96 4.32L54.96 8.40Q55.18 8.45 55.43 8.46Q55.68 8.48 55.86 8.48L55.86 8.48Q56.62 8.48 57.07 7.96Q57.52 7.44 57.52 6.19ZM59.52 6.24L59.52 6.24Q59.52 7.14 59.28 7.86Q59.04 8.59 58.58 9.10Q58.11 9.62 57.44 9.90Q56.77 10.18 55.90 10.18L55.90 10.18Q55.14 10.18 54.34 10.06Q53.54 9.95 52.99 9.78L52.99 9.78L52.99-0.77L54.96-1.10L54.96 2.66Q55.38 2.46 55.76 2.39Q56.14 2.32 56.53 2.32L56.53 2.32Q57.26 2.32 57.82 2.60Q58.38 2.88 58.76 3.40Q59.14 3.92 59.33 4.64Q59.52 5.36 59.52 6.24ZM67.01 2.48L67.01 9.74Q66.46 9.89 65.69 10.03Q64.91 10.18 64 10.18L64 10.18Q63.07 10.18 62.48 9.92Q61.89 9.66 61.54 9.19Q61.20 8.72 61.07 8.08Q60.94 7.44 60.94 6.67L60.94 6.67L60.94 2.48L62.91 2.48L62.91 6.42Q62.91 7.46 63.16 7.96Q63.41 8.46 64.13 8.46L64.13 8.46Q64.58 8.46 65.02 8.38L65.02 8.38L65.02 2.48L67.01 2.48ZM72.54 0.32L72.54 0.32Q72.54 0.90 72.18 1.23Q71.81 1.57 71.30 1.57L71.30 1.57Q70.78 1.57 70.42 1.23Q70.06 0.90 70.06 0.32L70.06 0.32Q70.06-0.27 70.42-0.61Q70.78-0.94 71.30-0.94L71.30-0.94Q71.81-0.94 72.18-0.61Q72.54-0.27 72.54 0.32ZM75.22 8.10L75.47 9.68Q74.86 9.97 74.33 10.07Q73.79 10.18 73.34 10.18L73.34 10.18Q72.58 10.18 72.06 9.95Q71.54 9.73 71.22 9.30Q70.91 8.88 70.78 8.27Q70.66 7.66 70.66 6.88L70.66 6.88L70.66 4.11L68.58 4.11L68.58 2.48L72.62 2.48L72.62 7.14Q72.62 7.81 72.87 8.14Q73.12 8.46 73.70 8.46L73.70 8.46Q73.97 8.46 74.35 8.39Q74.74 8.32 75.22 8.10L75.22 8.10ZM83.22 8.10L83.47 9.68Q83.42 9.71 83.26 9.79Q83.09 9.87 82.82 9.96Q82.54 10.05 82.15 10.11Q81.76 10.18 81.26 10.18L81.26 10.18Q79.90 10.18 79.28 9.37Q78.66 8.56 78.66 7.01L78.66 7.01L78.66 0.62L76.58 0.62L76.58-1.01L80.62-1.01L80.62 7.15Q80.62 7.92 80.93 8.19Q81.23 8.46 81.70 8.46L81.70 8.46Q82.29 8.46 82.69 8.30Q83.09 8.14 83.22 8.10L83.22 8.10ZM86.45 6.19L86.45 6.19Q86.45 7.20 86.82 7.84Q87.20 8.48 88.03 8.48L88.03 8.48Q88.27 8.48 88.48 8.46Q88.69 8.45 88.91 8.42L88.91 8.42L88.91 4.32Q88.69 4.19 88.40 4.10Q88.11 4.02 87.79 4.02L87.79 4.02Q87.09 4.02 86.77 4.58Q86.45 5.14 86.45 6.19ZM90.88-1.10L90.88 9.78Q90.34 9.95 89.55 10.06Q88.77 10.18 88.02 10.18L88.02 10.18Q86.26 10.18 85.35 9.14Q84.45 8.10 84.45 6.29L84.45 6.29Q84.45 4.45 85.21 3.38Q85.97 2.32 87.46 2.32L87.46 2.32Q87.86 2.32 88.24 2.41Q88.62 2.50 88.91 2.66L88.91 2.66L88.91-0.77L90.88-1.10Z"/>
    </g>
</svg>