<?xml version="1.0" encoding="UTF-8"?>
<svg height="322" width="150.89999999999998" version="1.1" xmlns="http://www.w3.org/2000/svg"><!--Created by Josélio de S. C. Júnior - 2021 - https://github.com/joseliojunior -->
    <rect
        height="32"
        width="148.89999999999998"
        rx="16"
        ry="16"
        x="1" y="1"
        fill="#069406"
        stroke="#3bf73b"
        stroke-width="1" />
    <g transform="translate(0, 12)">
        <path fill="#3bf73b" stroke="none" d="M31.04 12L21.51 12L21.51-2.86L30.51-2.86L30.51-0.41L24.46-0.41L24.46 2.93L29.72 2.93L29.72 5.38L24.46 5.38L24.46 9.55L31.04 9.55L31.04 12ZM38.02 9.89L38.02 9.89Q38.50 9.89 38.96 9.88Q39.42 9.86 39.75 9.82L39.75 9.82L39.75 7.22Q39.46 7.18 39.06 7.14Q38.65 7.10 38.31 7.10L38.31 7.10Q37.86 7.10 37.42 7.16Q36.99 7.22 36.67 7.37Q36.34 7.51 36.15 7.78Q35.96 8.04 35.96 8.47L35.96 8.47Q35.96 9.24 36.54 9.56Q37.11 9.89 38.02 9.89ZM37.76 0.43L37.76 0.43Q39.15 0.43 40.08 0.76Q41 1.08 41.55 1.67Q42.10 2.26 42.34 3.11Q42.58 3.96 42.58 5.02L42.58 5.02L42.58 11.74Q41.94 11.88 40.66 12.07Q39.39 12.26 37.81 12.26L37.81 12.26Q36.73 12.26 35.85 12.07Q34.98 11.88 34.35 11.44Q33.73 10.99 33.39 10.28Q33.06 9.58 33.06 8.54L33.06 8.54Q33.06 7.56 33.44 6.89Q33.82 6.22 34.47 5.81Q35.12 5.40 35.96 5.22Q36.80 5.04 37.71 5.04L37.71 5.04Q38.86 5.04 39.75 5.23L39.75 5.23L39.75 4.87Q39.75 4.03 39.22 3.47Q38.70 2.90 37.40 2.90L37.40 2.90Q36.56 2.90 35.78 3.02Q35 3.14 34.52 3.31L34.52 3.31L34.11 0.94Q34.66 0.74 35.67 0.59Q36.68 0.43 37.76 0.43ZM49.47 9.77L49.47 9.77Q50.55 9.77 51.13 9.61Q51.70 9.46 51.70 8.98L51.70 8.98Q51.70 8.66 51.52 8.45Q51.34 8.23 51.02 8.08Q50.70 7.92 50.28 7.78Q49.86 7.63 49.40 7.49L49.40 7.49Q48.75 7.30 48.08 7.04Q47.41 6.79 46.86 6.41Q46.30 6.02 45.94 5.44Q45.58 4.85 45.58 3.96L45.58 3.96Q45.58 3.24 45.86 2.60Q46.14 1.97 46.72 1.48Q47.31 0.98 48.22 0.71Q49.14 0.43 50.41 0.43L50.41 0.43Q51.51 0.43 52.46 0.60Q53.41 0.77 54.10 1.08L54.10 1.08L53.65 3.58Q53.24 3.46 52.38 3.18Q51.51 2.90 50.43 2.90L50.43 2.90Q49.30 2.90 48.91 3.18Q48.51 3.46 48.51 3.77L48.51 3.77Q48.51 4.03 48.69 4.24Q48.87 4.44 49.17 4.61Q49.47 4.78 49.87 4.93Q50.26 5.09 50.72 5.23L50.72 5.23Q51.37 5.45 52.06 5.71Q52.76 5.98 53.32 6.37Q53.89 6.77 54.25 7.38Q54.61 7.99 54.61 8.88L54.61 8.88Q54.61 9.58 54.34 10.20Q54.08 10.82 53.47 11.28Q52.86 11.74 51.87 12Q50.89 12.26 49.45 12.26L49.45 12.26Q47.98 12.26 46.95 11.93Q45.92 11.59 45.30 11.33L45.30 11.33L45.75 8.86Q46.59 9.19 47.54 9.48Q48.49 9.77 49.47 9.77ZM64.30 0.72L67.33 0.72Q66.87 2.30 66.45 3.83Q66.03 5.35 65.58 6.80Q65.12 8.26 64.60 9.65Q64.09 11.04 63.49 12.36L63.49 12.36Q63.03 13.32 62.59 14.02Q62.14 14.71 61.60 15.16Q61.06 15.60 60.40 15.82Q59.74 16.03 58.86 16.03L58.86 16.03Q58.11 16.03 57.50 15.91Q56.89 15.79 56.48 15.60L56.48 15.60L57.03 13.13Q57.51 13.34 57.88 13.43Q58.26 13.51 58.69 13.51L58.69 13.51Q59.55 13.51 60.08 12.94Q60.61 12.36 60.92 11.57L60.92 11.57Q59.86 9.46 58.81 6.73Q57.75 4.01 56.89 0.72L56.89 0.72L59.96 0.72Q60.18 1.61 60.45 2.62Q60.73 3.62 61.04 4.63Q61.35 5.64 61.70 6.61Q62.05 7.58 62.41 8.42L62.41 8.42Q62.65 7.58 62.91 6.61Q63.18 5.64 63.42 4.64Q63.66 3.65 63.88 2.64Q64.11 1.63 64.30 0.72L64.30 0.72ZM76.28 6.29L76.28 6.29Q76.28 4.70 75.76 3.86Q75.25 3.02 74.19 3.02L74.19 3.02Q73.71 3.02 73.24 3.16Q72.78 3.29 72.44 3.48L72.44 3.48L72.44 9.60Q72.78 9.67 73.15 9.70Q73.52 9.72 73.78 9.72L73.78 9.72Q74.94 9.72 75.61 8.94Q76.28 8.16 76.28 6.29ZM79.28 6.36L79.28 6.36Q79.28 7.70 78.92 8.80Q78.56 9.89 77.86 10.66Q77.17 11.42 76.16 11.84Q75.15 12.26 73.86 12.26L73.86 12.26Q72.70 12.26 71.50 12.10Q70.30 11.93 69.49 11.66L69.49 11.66L69.49-4.15L72.44-4.66L72.44 0.98Q73.06 0.70 73.64 0.59Q74.22 0.48 74.79 0.48L74.79 0.48Q75.90 0.48 76.74 0.90Q77.58 1.32 78.14 2.10Q78.70 2.88 78.99 3.96Q79.28 5.04 79.28 6.36ZM90.51 0.72L90.51 11.62Q89.70 11.83 88.53 12.05Q87.37 12.26 86 12.26L86 12.26Q84.61 12.26 83.72 11.88Q82.83 11.50 82.32 10.79Q81.80 10.08 81.61 9.12Q81.42 8.16 81.42 7.01L81.42 7.01L81.42 0.72L84.37 0.72L84.37 6.62Q84.37 8.18 84.74 8.94Q85.11 9.70 86.19 9.70L86.19 9.70Q86.86 9.70 87.54 9.58L87.54 9.58L87.54 0.72L90.51 0.72ZM98.82-2.52L98.82-2.52Q98.82-1.66 98.26-1.15Q97.71-0.65 96.94-0.65L96.94-0.65Q96.18-0.65 95.64-1.15Q95.10-1.66 95.10-2.52L95.10-2.52Q95.10-3.41 95.64-3.91Q96.18-4.42 96.94-4.42L96.94-4.42Q97.71-4.42 98.26-3.91Q98.82-3.41 98.82-2.52ZM102.82 9.14L103.21 11.52Q102.30 11.95 101.49 12.11Q100.69 12.26 100.02 12.26L100.02 12.26Q98.86 12.26 98.08 11.93Q97.30 11.59 96.84 10.96Q96.37 10.32 96.18 9.41Q95.98 8.50 95.98 7.32L95.98 7.32L95.98 3.17L92.86 3.17L92.86 0.72L98.94 0.72L98.94 7.70Q98.94 8.71 99.31 9.20Q99.68 9.70 100.54 9.70L100.54 9.70Q100.95 9.70 101.53 9.59Q102.10 9.48 102.82 9.14L102.82 9.14ZM114.82 9.14L115.21 11.52Q115.14 11.57 114.88 11.69Q114.63 11.81 114.22 11.94Q113.82 12.07 113.23 12.17Q112.64 12.26 111.90 12.26L111.90 12.26Q109.86 12.26 108.92 11.05Q107.98 9.84 107.98 7.51L107.98 7.51L107.98-2.06L104.86-2.06L104.86-4.51L110.94-4.51L110.94 7.73Q110.94 8.88 111.39 9.29Q111.85 9.70 112.54 9.70L112.54 9.70Q113.43 9.70 114.03 9.46Q114.63 9.22 114.82 9.14L114.82 9.14ZM119.67 6.29L119.67 6.29Q119.67 7.80 120.24 8.76Q120.80 9.72 122.05 9.72L122.05 9.72Q122.41 9.72 122.72 9.70Q123.03 9.67 123.37 9.62L123.37 9.62L123.37 3.48Q123.03 3.29 122.60 3.16Q122.17 3.02 121.69 3.02L121.69 3.02Q120.63 3.02 120.15 3.86Q119.67 4.70 119.67 6.29ZM126.32-4.66L126.32 11.66Q125.50 11.93 124.33 12.10Q123.15 12.26 122.02 12.26L122.02 12.26Q119.38 12.26 118.03 10.70Q116.67 9.14 116.67 6.43L116.67 6.43Q116.67 3.67 117.81 2.08Q118.95 0.48 121.18 0.48L121.18 0.48Q121.78 0.48 122.36 0.61Q122.94 0.74 123.37 0.98L123.37 0.98L123.37-4.15L126.32-4.66Z"/>
    </g>
</svg>