<?xml version="1.0" encoding="UTF-8"?>
<svg height="34" width="134.8" version="1.1" xmlns="http://www.w3.org/2000/svg">
    <rect
        height="32"
        width="132.8"
        rx="1"
        ry="1"
        x="1"
        y="1"
        fill="#AA6746"
        stroke="#3e2519"
        stroke-width="1"
         />
    <g transform="translate(0, 14)">
        <path fill="#3e2519" d="M16.50 8.48L16.50 8.48Q17.36 8.48 17.94 8.30Q18.51 8.12 18.85 7.79Q19.18 7.47 19.31 7.07Q19.44 6.66 19.44 6.24L19.44 6.24Q19.44 5.71 19.13 5.29Q18.82 4.87 18.34 4.55Q17.87 4.22 17.28 3.96Q16.69 3.69 16.10 3.47L16.10 3.47Q15.32 3.19 14.48 2.82Q13.64 2.46 12.95 1.90Q12.27 1.34 11.82 0.51Q11.37-0.31 11.37-1.54L11.37-1.54Q11.37-3.98 12.95-5.35Q14.54-6.72 17.31-6.72L17.31-6.72Q18.90-6.72 20.09-6.36Q21.28-6.00 22.10-5.55L22.10-5.55L21.09-2.89Q20.39-3.28 19.53-3.56Q18.68-3.84 17.56-3.84L17.56-3.84Q14.82-3.84 14.82-1.85L14.82-1.85Q14.82-1.35 15.10-0.97Q15.38-0.59 15.81-0.30Q16.24-0.00 16.79 0.22Q17.34 0.44 17.87 0.64L17.87 0.64Q18.68 0.95 19.56 1.33Q20.44 1.70 21.19 2.33Q21.93 2.96 22.40 3.90Q22.88 4.84 22.88 6.27L22.88 6.27Q22.88 8.70 21.30 10.03Q19.72 11.36 16.50 11.36L16.50 11.36Q14.34 11.36 13.05 10.90Q11.76 10.44 11.12 10.05L11.12 10.05L12.13 7.25Q12.88 7.70 13.93 8.09Q14.98 8.48 16.50 8.48ZM37.22 4.39L37.22 4.39Q37.22 5.96 36.77 7.23Q36.32 8.51 35.51 9.43Q34.70 10.36 33.56 10.86Q32.43 11.36 31.03 11.36L31.03 11.36Q29.63 11.36 28.49 10.86Q27.36 10.36 26.53 9.43Q25.71 8.51 25.26 7.23Q24.81 5.96 24.81 4.39L24.81 4.39Q24.81 2.85 25.27 1.58Q25.74 0.30 26.56-0.61Q27.39-1.52 28.54-2.01Q29.68-2.50 31.03-2.50L31.03-2.50Q32.40-2.50 33.53-2.01Q34.67-1.52 35.49-0.61Q36.32 0.30 36.77 1.58Q37.22 2.85 37.22 4.39ZM28.31 4.42L28.31 4.42Q28.31 6.18 28.94 7.28Q29.57 8.37 30.97 8.37L30.97 8.37Q32.32 8.37 33.00 7.28Q33.69 6.18 33.69 4.42L33.69 4.42Q33.69 2.66 33.06 1.58Q32.43 0.50 31.03 0.50L31.03 0.50Q29.68 0.50 29.00 1.58Q28.31 2.66 28.31 4.42ZM50.63 7.67L51.08 10.44Q50.99 10.50 50.70 10.64Q50.40 10.78 49.93 10.93Q49.45 11.08 48.77 11.20Q48.08 11.31 47.21 11.31L47.21 11.31Q44.83 11.31 43.74 9.89Q42.65 8.48 42.65 5.76L42.65 5.76L42.65-5.41L39.01-5.41L39.01-8.26L46.09-8.26L46.09 6.02Q46.09 7.36 46.62 7.84Q47.16 8.31 47.97 8.31L47.97 8.31Q49.00 8.31 49.70 8.03Q50.40 7.75 50.63 7.67L50.63 7.67ZM59.95-5.94L59.95-5.94Q59.95-4.93 59.31-4.34Q58.66-3.76 57.77-3.76L57.77-3.76Q56.87-3.76 56.24-4.34Q55.61-4.93 55.61-5.94L55.61-5.94Q55.61-6.98 56.24-7.56Q56.87-8.15 57.77-8.15L57.77-8.15Q58.66-8.15 59.31-7.56Q59.95-6.98 59.95-5.94ZM64.63 7.67L65.08 10.44Q64.01 10.94 63.07 11.13Q62.14 11.31 61.35 11.31L61.35 11.31Q60.01 11.31 59.10 10.92Q58.19 10.52 57.64 9.78Q57.10 9.04 56.87 7.98Q56.65 6.91 56.65 5.54L56.65 5.54L56.65 0.70L53.01 0.70L53.01-2.16L60.09-2.16L60.09 5.99Q60.09 7.16 60.53 7.74Q60.96 8.31 61.97 8.31L61.97 8.31Q62.44 8.31 63.12 8.19Q63.79 8.06 64.63 7.67L64.63 7.67ZM70.28 4.34L70.28 4.34Q70.28 6.10 70.94 7.22Q71.60 8.34 73.06 8.34L73.06 8.34Q73.48 8.34 73.84 8.31Q74.20 8.28 74.60 8.23L74.60 8.23L74.60 1.06Q74.20 0.84 73.70 0.68Q73.20 0.53 72.64 0.53L72.64 0.53Q71.40 0.53 70.84 1.51Q70.28 2.49 70.28 4.34ZM78.04-8.43L78.04 10.61Q77.09 10.92 75.72 11.11Q74.34 11.31 73.03 11.31L73.03 11.31Q69.95 11.31 68.37 9.49Q66.78 7.67 66.78 4.50L66.78 4.50Q66.78 1.28 68.11-0.58Q69.44-2.44 72.05-2.44L72.05-2.44Q72.75-2.44 73.42-2.29Q74.09-2.13 74.60-1.85L74.60-1.85L74.60-7.84L78.04-8.43ZM87.95-5.94L87.95-5.94Q87.95-4.93 87.31-4.34Q86.66-3.76 85.77-3.76L85.77-3.76Q84.87-3.76 84.24-4.34Q83.61-4.93 83.61-5.94L83.61-5.94Q83.61-6.98 84.24-7.56Q84.87-8.15 85.77-8.15L85.77-8.15Q86.66-8.15 87.31-7.56Q87.95-6.98 87.95-5.94ZM92.63 7.67L93.08 10.44Q92.01 10.94 91.07 11.13Q90.14 11.31 89.35 11.31L89.35 11.31Q88.01 11.31 87.10 10.92Q86.19 10.52 85.64 9.78Q85.10 9.04 84.87 7.98Q84.65 6.91 84.65 5.54L84.65 5.54L84.65 0.70L81.01 0.70L81.01-2.16L88.09-2.16L88.09 5.99Q88.09 7.16 88.53 7.74Q88.96 8.31 89.97 8.31L89.97 8.31Q90.44 8.31 91.12 8.19Q91.79 8.06 92.63 7.67L92.63 7.67ZM98.00 6.10L98.00 0.70L95.01 0.70L95.01-2.16L98.00-2.16L98.00-5.46L101.45-6.02L101.45-2.16L106.96-2.16L106.96 0.70L101.45 0.70L101.45 6.02Q101.45 6.74 101.59 7.19Q101.73 7.64 101.98 7.89Q102.23 8.14 102.60 8.23Q102.96 8.31 103.41 8.31L103.41 8.31Q103.88 8.31 104.29 8.28Q104.70 8.26 105.07 8.19Q105.45 8.12 105.86 7.98Q106.26 7.84 106.74 7.61L106.74 7.61L107.22 10.58Q106.26 10.97 105.16 11.14Q104.05 11.31 103.02 11.31L103.02 11.31Q101.81 11.31 100.89 11.11Q99.96 10.92 99.32 10.36Q98.68 9.80 98.34 8.77Q98.00 7.75 98.00 6.10L98.00 6.10ZM117.69-2.16L121.22-2.16Q120.68-0.31 120.19 1.47Q119.70 3.24 119.17 4.94Q118.64 6.63 118.04 8.26Q117.44 9.88 116.74 11.42L116.74 11.42Q116.20 12.54 115.69 13.35Q115.17 14.16 114.54 14.68Q113.91 15.20 113.14 15.45Q112.37 15.70 111.33 15.70L111.33 15.70Q110.46 15.70 109.75 15.56Q109.04 15.42 108.56 15.20L108.56 15.20L109.20 12.32Q109.76 12.57 110.20 12.67Q110.63 12.76 111.14 12.76L111.14 12.76Q112.14 12.76 112.76 12.09Q113.38 11.42 113.74 10.50L113.74 10.50Q112.51 8.03 111.28 4.85Q110.04 1.68 109.04-2.16L109.04-2.16L112.62-2.16Q112.87-1.12 113.19 0.05Q113.52 1.23 113.88 2.40Q114.24 3.58 114.65 4.71Q115.06 5.85 115.48 6.83L115.48 6.83Q115.76 5.85 116.06 4.71Q116.37 3.58 116.65 2.42Q116.93 1.26 117.20 0.08Q117.46-1.10 117.69-2.16L117.69-2.16Z"/>
    </g>
</svg>