<?xml version="1.0" encoding="UTF-8"?>
<svg height="26" width="114.89999999999999" version="1.1" xmlns="http://www.w3.org/2000/svg"><!--Created by Josélio de S. C. Júnior - 2021 - https://github.com/joseliojunior -->
    <defs>
        <pattern id="pattern"
                x="3" y="3" width="6" height="6"
                patternUnits="userSpaceOnUse"
                patternTransform="rotate(45)" >
            <rect height="6" width="6"
                fill="#ffffff"/>
            <line x1="0" y1="0" x2="0" y2="6"
                stroke="#bbbbbb"
                stroke-width="2" />
        </pattern>
    </defs>
    <rect
        height="24"
        width="112.89999999999999"
        rx="12"
        ry="12"
        x="1" y="1"
        fill="url(#pattern)" />
    <g transform="translate(0, 8)">
        <path fill="#000000" d="M24.74 10.21L24.74 10.21Q22.64 10.21 21.54 8.86Q20.43 7.52 20.43 5.04L20.43 5.04Q20.43 3.81 20.77 2.85Q21.10 1.89 21.70 1.22Q22.30 0.56 23.13 0.22Q23.95-0.13 24.93-0.13L24.93-0.13Q25.46-0.13 25.88-0.04Q26.30 0.05 26.62 0.16Q26.94 0.27 27.16 0.40Q27.38 0.53 27.49 0.59L27.49 0.59L26.98 2.16Q26.61 1.92 26.09 1.75Q25.57 1.58 24.90 1.58L24.90 1.58Q24.43 1.58 23.99 1.75Q23.55 1.92 23.21 2.31Q22.86 2.70 22.65 3.36Q22.43 4.02 22.43 4.99L22.43 4.99Q22.43 6.69 23.02 7.59Q23.60 8.50 24.93 8.50L24.93 8.50Q25.70 8.50 26.20 8.32Q26.70 8.14 27.01 7.97L27.01 7.97L27.50 9.52Q27.09 9.78 26.38 9.99Q25.66 10.21 24.74 10.21ZM35.01 2.48L35.01 9.74Q34.46 9.89 33.69 10.03Q32.91 10.18 32 10.18L32 10.18Q31.07 10.18 30.48 9.92Q29.89 9.66 29.54 9.19Q29.20 8.72 29.07 8.08Q28.94 7.44 28.94 6.67L28.94 6.67L28.94 2.48L30.91 2.48L30.91 6.42Q30.91 7.46 31.16 7.96Q31.41 8.46 32.13 8.46L32.13 8.46Q32.58 8.46 33.02 8.38L33.02 8.38L33.02 2.48L35.01 2.48ZM36.50 6.30L36.50 6.30Q36.50 5.31 36.80 4.56Q37.10 3.81 37.60 3.30Q38.10 2.80 38.74 2.54Q39.38 2.29 40.05 2.29L40.05 2.29Q41.71 2.29 42.58 3.27Q43.44 4.26 43.44 6.14L43.44 6.14Q43.44 6.34 43.43 6.54Q43.42 6.75 43.41 6.88L43.41 6.88L38.53 6.88Q38.53 7.62 39.14 8.04Q39.74 8.46 40.70 8.46L40.70 8.46Q41.30 8.46 41.83 8.34Q42.37 8.21 42.74 8.08L42.74 8.08L43.01 9.76Q42.50 9.94 41.92 10.06Q41.34 10.18 40.62 10.18L40.62 10.18Q39.66 10.18 38.90 9.93Q38.14 9.68 37.61 9.19Q37.07 8.70 36.78 7.98Q36.50 7.26 36.50 6.30ZM38.53 5.52L41.54 5.52Q41.54 5.22 41.46 4.94Q41.38 4.66 41.20 4.43Q41.02 4.21 40.75 4.07Q40.48 3.94 40.08 3.94L40.08 3.94Q39.70 3.94 39.42 4.06Q39.14 4.19 38.95 4.42Q38.77 4.64 38.66 4.93Q38.56 5.22 38.53 5.52L38.53 5.52ZM55.71 8.56L55.71 8.56Q56.21 8.56 56.54 8.46Q56.86 8.35 57.06 8.17Q57.25 7.98 57.32 7.75Q57.39 7.52 57.39 7.28L57.39 7.28Q57.39 6.98 57.22 6.74Q57.04 6.50 56.77 6.31Q56.50 6.13 56.16 5.98Q55.82 5.82 55.49 5.70L55.49 5.70Q55.04 5.54 54.56 5.33Q54.08 5.12 53.69 4.80Q53.30 4.48 53.04 4.01Q52.78 3.54 52.78 2.83L52.78 2.83Q52.78 1.44 53.69 0.66Q54.59-0.13 56.18-0.13L56.18-0.13Q57.09-0.13 57.77 0.08Q58.45 0.29 58.91 0.54L58.91 0.54L58.34 2.06Q57.94 1.84 57.45 1.68Q56.96 1.52 56.32 1.52L56.32 1.52Q54.75 1.52 54.75 2.66L54.75 2.66Q54.75 2.94 54.91 3.16Q55.07 3.38 55.32 3.54Q55.57 3.71 55.88 3.84Q56.19 3.97 56.50 4.08L56.50 4.08Q56.96 4.26 57.46 4.47Q57.97 4.69 58.39 5.05Q58.82 5.41 59.09 5.94Q59.36 6.48 59.36 7.30L59.36 7.30Q59.36 8.69 58.46 9.45Q57.55 10.21 55.71 10.21L55.71 10.21Q54.48 10.21 53.74 9.94Q53.01 9.68 52.64 9.46L52.64 9.46L53.22 7.86Q53.65 8.11 54.25 8.34Q54.85 8.56 55.71 8.56ZM62.98 10L61.01 10L61.01-0.77L62.98-1.10L62.98 2.54Q63.22 2.46 63.55 2.39Q63.89 2.32 64.14 2.32L64.14 2.32Q64.98 2.32 65.54 2.57Q66.10 2.82 66.43 3.27Q66.77 3.73 66.91 4.36Q67.06 4.99 67.06 5.76L67.06 5.76L67.06 10L65.09 10L65.09 6.02Q65.09 4.96 64.85 4.50Q64.61 4.03 63.94 4.03L63.94 4.03Q63.66 4.03 63.40 4.10Q63.14 4.16 62.98 4.21L62.98 4.21L62.98 10ZM68.50 6.30L68.50 6.30Q68.50 5.31 68.80 4.56Q69.10 3.81 69.60 3.30Q70.10 2.80 70.74 2.54Q71.38 2.29 72.05 2.29L72.05 2.29Q73.71 2.29 74.58 3.27Q75.44 4.26 75.44 6.14L75.44 6.14Q75.44 6.34 75.43 6.54Q75.42 6.75 75.41 6.88L75.41 6.88L70.53 6.88Q70.53 7.62 71.14 8.04Q71.74 8.46 72.70 8.46L72.70 8.46Q73.30 8.46 73.83 8.34Q74.37 8.21 74.74 8.08L74.74 8.08L75.01 9.76Q74.50 9.94 73.92 10.06Q73.34 10.18 72.62 10.18L72.62 10.18Q71.66 10.18 70.90 9.93Q70.14 9.68 69.61 9.19Q69.07 8.70 68.78 7.98Q68.50 7.26 68.50 6.30ZM70.53 5.52L73.54 5.52Q73.54 5.22 73.46 4.94Q73.38 4.66 73.20 4.43Q73.02 4.21 72.75 4.07Q72.48 3.94 72.08 3.94L72.08 3.94Q71.70 3.94 71.42 4.06Q71.14 4.19 70.95 4.42Q70.77 4.64 70.66 4.93Q70.56 5.22 70.53 5.52L70.53 5.52ZM76.50 6.30L76.50 6.30Q76.50 5.31 76.80 4.56Q77.10 3.81 77.60 3.30Q78.10 2.80 78.74 2.54Q79.38 2.29 80.05 2.29L80.05 2.29Q81.71 2.29 82.58 3.27Q83.44 4.26 83.44 6.14L83.44 6.14Q83.44 6.34 83.43 6.54Q83.42 6.75 83.41 6.88L83.41 6.88L78.53 6.88Q78.53 7.62 79.14 8.04Q79.74 8.46 80.70 8.46L80.70 8.46Q81.30 8.46 81.83 8.34Q82.37 8.21 82.74 8.08L82.74 8.08L83.01 9.76Q82.50 9.94 81.92 10.06Q81.34 10.18 80.62 10.18L80.62 10.18Q79.66 10.18 78.90 9.93Q78.14 9.68 77.61 9.19Q77.07 8.70 76.78 7.98Q76.50 7.26 76.50 6.30ZM78.53 5.52L81.54 5.52Q81.54 5.22 81.46 4.94Q81.38 4.66 81.20 4.43Q81.02 4.21 80.75 4.07Q80.48 3.94 80.08 3.94L80.08 3.94Q79.70 3.94 79.42 4.06Q79.14 4.19 78.95 4.42Q78.77 4.64 78.66 4.93Q78.56 5.22 78.53 5.52L78.53 5.52ZM86.29 7.20L86.29 4.11L84.58 4.11L84.58 2.48L86.29 2.48L86.29 0.59L88.26 0.27L88.26 2.48L91.41 2.48L91.41 4.11L88.26 4.11L88.26 7.15Q88.26 7.57 88.34 7.82Q88.42 8.08 88.56 8.22Q88.70 8.37 88.91 8.42Q89.12 8.46 89.38 8.46L89.38 8.46Q89.65 8.46 89.88 8.45Q90.11 8.43 90.33 8.39Q90.54 8.35 90.78 8.27Q91.01 8.19 91.28 8.06L91.28 8.06L91.55 9.76Q91.01 9.98 90.38 10.08Q89.74 10.18 89.15 10.18L89.15 10.18Q88.46 10.18 87.94 10.06Q87.41 9.95 87.04 9.63Q86.67 9.31 86.48 8.73Q86.29 8.14 86.29 7.20L86.29 7.20Z"/>
    </g>
</svg>