<?xml version="1.0" encoding="UTF-8"?><svg height="34" width="150.9" version="1.1" xmlns="http://www.w3.org/2000/svg"><!--Created by Josélio de S. C. Júnior - 2021 - https://github.com/joseliojunior --><defs><pattern id="pattern" x="3" y="3" width="6" height="6" patternUnits="userSpaceOnUse" patternTransform="rotate(45)"><rect height="6" width="6" fill="#ffffff"/><line x1="0" y1="0" x2="0" y2="6" stroke="#bbbbbb" stroke-width="2" /></pattern></defs><rect height="32" width="148.9" rx="1" ry="1" x="1" y="1" fill="url(#pattern)" /><g transform="translate(0, 12)"><path fill="#000000" d="M27.10 12.31L27.10 12.31Q23.96 12.31 22.30 10.30Q20.65 8.28 20.65 4.56L20.65 4.56Q20.65 2.71 21.15 1.27Q21.66-0.17 22.56-1.16Q23.46-2.16 24.69-2.68Q25.93-3.19 27.39-3.19L27.39-3.19Q28.18-3.19 28.82-3.06Q29.46-2.93 29.94-2.76Q30.42-2.59 30.74-2.40Q31.06-2.21 31.23-2.11L31.23-2.11L30.46 0.24Q29.91-0.12 29.13-0.37Q28.35-0.62 27.34-0.62L27.34-0.62Q26.65-0.62 25.99-0.37Q25.33-0.12 24.81 0.47Q24.30 1.06 23.97 2.04Q23.65 3.02 23.65 4.49L23.65 4.49Q23.65 7.03 24.52 8.39Q25.40 9.74 27.39 9.74L27.39 9.74Q28.54 9.74 29.30 9.48Q30.06 9.22 30.51 8.95L30.51 8.95L31.26 11.28Q30.63 11.66 29.56 11.99Q28.50 12.31 27.10 12.31ZM42.51 0.72L42.51 11.62Q41.70 11.83 40.53 12.05Q39.37 12.26 38 12.26L38 12.26Q36.61 12.26 35.72 11.88Q34.83 11.50 34.32 10.79Q33.80 10.08 33.61 9.12Q33.42 8.16 33.42 7.01L33.42 7.01L33.42 0.72L36.37 0.72L36.37 6.62Q36.37 8.18 36.74 8.94Q37.11 9.70 38.19 9.70L38.19 9.70Q38.86 9.70 39.54 9.58L39.54 9.58L39.54 0.72L42.51 0.72ZM44.74 6.46L44.74 6.46Q44.74 4.97 45.20 3.84Q45.66 2.71 46.40 1.96Q47.14 1.20 48.10 0.82Q49.06 0.43 50.07 0.43L50.07 0.43Q52.57 0.43 53.86 1.91Q55.16 3.38 55.16 6.22L55.16 6.22Q55.16 6.50 55.15 6.82Q55.14 7.13 55.11 7.32L55.11 7.32L47.79 7.32Q47.79 8.42 48.70 9.06Q49.62 9.70 51.06 9.70L51.06 9.70Q51.94 9.70 52.75 9.50Q53.55 9.31 54.10 9.12L54.10 9.12L54.51 11.64Q53.74 11.90 52.88 12.08Q52.02 12.26 50.94 12.26L50.94 12.26Q49.50 12.26 48.36 11.89Q47.22 11.52 46.41 10.79Q45.61 10.06 45.18 8.98Q44.74 7.90 44.74 6.46ZM47.79 5.28L52.30 5.28Q52.30 4.82 52.18 4.40Q52.06 3.98 51.80 3.65Q51.54 3.31 51.13 3.11Q50.72 2.90 50.12 2.90L50.12 2.90Q49.54 2.90 49.12 3.10Q48.70 3.29 48.43 3.62Q48.15 3.96 48.00 4.39Q47.84 4.82 47.79 5.28L47.79 5.28ZM73.57 9.84L73.57 9.84Q74.31 9.84 74.80 9.68Q75.30 9.53 75.58 9.25Q75.87 8.98 75.98 8.63Q76.09 8.28 76.09 7.92L76.09 7.92Q76.09 7.46 75.82 7.10Q75.56 6.74 75.15 6.47Q74.74 6.19 74.24 5.96Q73.74 5.74 73.23 5.54L73.23 5.54Q72.56 5.30 71.84 4.99Q71.12 4.68 70.53 4.20Q69.94 3.72 69.56 3.01Q69.18 2.30 69.18 1.25L69.18 1.25Q69.18-0.84 70.53-2.02Q71.89-3.19 74.26-3.19L74.26-3.19Q75.63-3.19 76.65-2.88Q77.67-2.57 78.37-2.18L78.37-2.18L77.50 0.10Q76.90-0.24 76.17-0.48Q75.44-0.72 74.48-0.72L74.48-0.72Q72.13-0.72 72.13 0.98L72.13 0.98Q72.13 1.42 72.37 1.74Q72.61 2.06 72.98 2.32Q73.35 2.57 73.82 2.76Q74.29 2.95 74.74 3.12L74.74 3.12Q75.44 3.38 76.20 3.71Q76.95 4.03 77.59 4.57Q78.22 5.11 78.63 5.92Q79.04 6.72 79.04 7.94L79.04 7.94Q79.04 10.03 77.68 11.17Q76.33 12.31 73.57 12.31L73.57 12.31Q71.72 12.31 70.62 11.92Q69.51 11.52 68.96 11.18L68.96 11.18L69.82 8.78Q70.47 9.17 71.37 9.50Q72.27 9.84 73.57 9.84ZM84.46 12L81.51 12L81.51-4.15L84.46-4.66L84.46 0.82Q84.82 0.70 85.33 0.59Q85.83 0.48 86.22 0.48L86.22 0.48Q87.46 0.48 88.30 0.85Q89.14 1.22 89.65 1.91Q90.15 2.59 90.37 3.54Q90.58 4.49 90.58 5.64L90.58 5.64L90.58 12L87.63 12L87.63 6.02Q87.63 4.44 87.27 3.74Q86.91 3.05 85.90 3.05L85.90 3.05Q85.50 3.05 85.10 3.14Q84.70 3.24 84.46 3.31L84.46 3.31L84.46 12ZM92.74 6.46L92.74 6.46Q92.74 4.97 93.20 3.84Q93.66 2.71 94.40 1.96Q95.14 1.20 96.10 0.82Q97.06 0.43 98.07 0.43L98.07 0.43Q100.57 0.43 101.86 1.91Q103.16 3.38 103.16 6.22L103.16 6.22Q103.16 6.50 103.15 6.82Q103.14 7.13 103.11 7.32L103.11 7.32L95.79 7.32Q95.79 8.42 96.70 9.06Q97.62 9.70 99.06 9.70L99.06 9.70Q99.94 9.70 100.75 9.50Q101.55 9.31 102.10 9.12L102.10 9.12L102.51 11.64Q101.74 11.90 100.88 12.08Q100.02 12.26 98.94 12.26L98.94 12.26Q97.50 12.26 96.36 11.89Q95.22 11.52 94.41 10.79Q93.61 10.06 93.18 8.98Q92.74 7.90 92.74 6.46ZM95.79 5.28L100.30 5.28Q100.30 4.82 100.18 4.40Q100.06 3.98 99.80 3.65Q99.54 3.31 99.13 3.11Q98.72 2.90 98.12 2.90L98.12 2.90Q97.54 2.90 97.12 3.10Q96.70 3.29 96.43 3.62Q96.15 3.96 96.00 4.39Q95.84 4.82 95.79 5.28L95.79 5.28ZM104.74 6.46L104.74 6.46Q104.74 4.97 105.20 3.84Q105.66 2.71 106.40 1.96Q107.14 1.20 108.10 0.82Q109.06 0.43 110.07 0.43L110.07 0.43Q112.57 0.43 113.86 1.91Q115.16 3.38 115.16 6.22L115.16 6.22Q115.16 6.50 115.15 6.82Q115.14 7.13 115.11 7.32L115.11 7.32L107.79 7.32Q107.79 8.42 108.70 9.06Q109.62 9.70 111.06 9.70L111.06 9.70Q111.94 9.70 112.75 9.50Q113.55 9.31 114.10 9.12L114.10 9.12L114.51 11.64Q113.74 11.90 112.88 12.08Q112.02 12.26 110.94 12.26L110.94 12.26Q109.50 12.26 108.36 11.89Q107.22 11.52 106.41 10.79Q105.61 10.06 105.18 8.98Q104.74 7.90 104.74 6.46ZM107.79 5.28L112.30 5.28Q112.30 4.82 112.18 4.40Q112.06 3.98 111.80 3.65Q111.54 3.31 111.13 3.11Q110.72 2.90 110.12 2.90L110.12 2.90Q109.54 2.90 109.12 3.10Q108.70 3.29 108.43 3.62Q108.15 3.96 108.00 4.39Q107.84 4.82 107.79 5.28L107.79 5.28ZM119.43 7.80L119.43 3.17L116.86 3.17L116.86 0.72L119.43 0.72L119.43-2.11L122.38-2.59L122.38 0.72L127.11 0.72L127.11 3.17L122.38 3.17L122.38 7.73Q122.38 8.35 122.50 8.74Q122.62 9.12 122.84 9.34Q123.06 9.55 123.37 9.62Q123.68 9.70 124.06 9.70L124.06 9.70Q124.47 9.70 124.82 9.67Q125.17 9.65 125.49 9.59Q125.82 9.53 126.16 9.41Q126.51 9.29 126.92 9.10L126.92 9.10L127.33 11.64Q126.51 11.98 125.56 12.12Q124.62 12.26 123.73 12.26L123.73 12.26Q122.70 12.26 121.90 12.10Q121.11 11.93 120.56 11.45Q120.01 10.97 119.72 10.09Q119.43 9.22 119.43 7.80L119.43 7.80Z"/></g></svg>