<?xml version="1.0" encoding="UTF-8"?>
<svg height="34" width="163" version="1.1" xmlns="http://www.w3.org/2000/svg">
    <rect
        height="32"
        width="161"
        rx="14"
        ry="14"
        x="1"
        y="1"
        fill="#c065db"
        stroke="#702088"
        stroke-width="1"
         />
    <g transform="translate(0, 14)">
        <path fill="#702088" d="M22.88 11L11.76 11L11.76-6.33L22.26-6.33L22.26-3.48L15.21-3.48L15.21 0.42L21.34 0.42L21.34 3.27L15.21 3.27L15.21 8.14L22.88 8.14L22.88 11ZM33.60-2.30L33.60-2.30Q34.70-2.30 35.40-1.96Q36.10-1.63 36.50-0.96Q36.91-0.28 37.05 0.74Q37.19 1.76 37.19 3.13L37.19 3.13L37.19 11L34.39 11L34.39 2.96Q34.39 2.18 34.29 1.70Q34.19 1.23 34.04 0.98Q33.88 0.72 33.67 0.64Q33.46 0.56 33.24 0.56L33.24 0.56Q32.99 0.56 32.71 0.60Q32.43 0.64 32.20 0.75L32.20 0.75Q32.29 1.28 32.34 1.93Q32.40 2.57 32.40 3.36L32.40 3.36L32.40 5.99L29.60 5.99L29.60 2.96Q29.60 1.62 29.33 1.09Q29.07 0.56 28.48 0.56L28.48 0.56Q28.31 0.56 28.07 0.58Q27.84 0.61 27.61 0.67L27.61 0.67L27.61 11L24.81 11L24.81-1.66Q25.90-1.96 26.97-2.13Q28.03-2.30 28.84-2.30L28.84-2.30Q29.57-2.30 30.15-2.12Q30.72-1.94 31.14-1.52L31.14-1.52Q31.62-1.82 32.26-2.06Q32.90-2.30 33.60-2.30ZM45.03 8.54L45.03 8.54Q45.59 8.54 46.12 8.52Q46.65 8.51 47.04 8.45L47.04 8.45L47.04 5.43Q46.71 5.37 46.23 5.33Q45.76 5.29 45.36 5.29L45.36 5.29Q44.83 5.29 44.33 5.36Q43.82 5.43 43.45 5.60Q43.07 5.76 42.84 6.07Q42.62 6.38 42.62 6.88L42.62 6.88Q42.62 7.78 43.29 8.16Q43.96 8.54 45.03 8.54ZM44.72-2.50L44.72-2.50Q46.34-2.50 47.42-2.12Q48.50-1.74 49.14-1.05Q49.79-0.37 50.07 0.63Q50.35 1.62 50.35 2.85L50.35 2.85L50.35 10.69Q49.59 10.86 48.11 11.08Q46.62 11.31 44.78 11.31L44.78 11.31Q43.52 11.31 42.49 11.08Q41.47 10.86 40.74 10.34Q40.02 9.82 39.62 9.00Q39.23 8.17 39.23 6.97L39.23 6.97Q39.23 5.82 39.68 5.04Q40.13 4.25 40.88 3.78Q41.64 3.30 42.62 3.09Q43.60 2.88 44.66 2.88L44.66 2.88Q46.01 2.88 47.04 3.10L47.04 3.10L47.04 2.68Q47.04 1.70 46.43 1.05Q45.81 0.39 44.30 0.39L44.30 0.39Q43.32 0.39 42.41 0.53Q41.50 0.67 40.94 0.86L40.94 0.86L40.46-1.91Q41.11-2.13 42.28-2.31Q43.46-2.50 44.72-2.50ZM53.23 4.42L53.23 4.42Q53.23 2.99 53.68 1.73Q54.13 0.47 55.05-0.47Q55.98-1.40 57.39-1.95Q58.80-2.50 60.76-2.50L60.76-2.50Q61.94-2.50 62.89-2.33Q63.84-2.16 64.82-1.77L64.82-1.77L64.07 1.00Q63.51 0.81 62.82 0.65Q62.14 0.50 61.07 0.50L61.07 0.50Q59.84 0.50 59.01 0.79Q58.19 1.09 57.68 1.61Q57.18 2.12 56.96 2.85Q56.73 3.58 56.73 4.42L56.73 4.42Q56.73 6.24 57.75 7.28Q58.78 8.31 61.24 8.31L61.24 8.31Q62.05 8.31 62.93 8.20Q63.82 8.09 64.54 7.84L64.54 7.84L65.05 10.66Q64.32 10.94 63.28 11.13Q62.25 11.31 60.85 11.31L60.85 11.31Q58.83 11.31 57.39 10.78Q55.95 10.24 55.02 9.32Q54.10 8.40 53.67 7.14Q53.23 5.88 53.23 4.42ZM72.38 8.40L72.38 8.40Q73.64 8.40 74.32 8.21Q74.99 8.03 74.99 7.47L74.99 7.47Q74.99 7.11 74.78 6.86Q74.57 6.60 74.19 6.42Q73.81 6.24 73.32 6.07Q72.83 5.90 72.30 5.74L72.30 5.74Q71.54 5.51 70.76 5.22Q69.98 4.92 69.33 4.48Q68.69 4.03 68.27 3.34Q67.85 2.66 67.85 1.62L67.85 1.62Q67.85 0.78 68.17 0.04Q68.49-0.70 69.18-1.28Q69.86-1.85 70.93-2.17Q71.99-2.50 73.48-2.50L73.48-2.50Q74.76-2.50 75.87-2.30Q76.98-2.10 77.79-1.74L77.79-1.74L77.26 1.17Q76.78 1.03 75.77 0.71Q74.76 0.39 73.50 0.39L73.50 0.39Q72.19 0.39 71.73 0.71Q71.26 1.03 71.26 1.40L71.26 1.40Q71.26 1.70 71.47 1.94Q71.68 2.18 72.03 2.38Q72.38 2.57 72.85 2.75Q73.31 2.94 73.84 3.10L73.84 3.10Q74.60 3.36 75.41 3.66Q76.22 3.97 76.88 4.43Q77.54 4.90 77.96 5.61Q78.38 6.32 78.38 7.36L78.38 7.36Q78.38 8.17 78.07 8.90Q77.76 9.63 77.05 10.16Q76.33 10.69 75.18 11Q74.04 11.31 72.36 11.31L72.36 11.31Q70.65 11.31 69.44 10.92Q68.24 10.52 67.51 10.22L67.51 10.22L68.04 7.33Q69.02 7.72 70.13 8.06Q71.24 8.40 72.38 8.40ZM106.88 8.14L106.88 11L95.99 11L95.99-6.33L99.46-6.33L99.46 8.14L106.88 8.14ZM115.95-5.94L115.95-5.94Q115.95-4.93 115.31-4.34Q114.66-3.76 113.77-3.76L113.77-3.76Q112.87-3.76 112.24-4.34Q111.61-4.93 111.61-5.94L111.61-5.94Q111.61-6.98 112.24-7.56Q112.87-8.15 113.77-8.15L113.77-8.15Q114.66-8.15 115.31-7.56Q115.95-6.98 115.95-5.94ZM120.63 7.67L121.08 10.44Q120.01 10.94 119.07 11.13Q118.14 11.31 117.35 11.31L117.35 11.31Q116.01 11.31 115.10 10.92Q114.19 10.52 113.64 9.78Q113.10 9.04 112.87 7.98Q112.65 6.91 112.65 5.54L112.65 5.54L112.65 0.70L109.01 0.70L109.01-2.16L116.09-2.16L116.09 5.99Q116.09 7.16 116.53 7.74Q116.96 8.31 117.97 8.31L117.97 8.31Q118.44 8.31 119.12 8.19Q119.79 8.06 120.63 7.67L120.63 7.67ZM128.38 8.40L128.38 8.40Q129.64 8.40 130.32 8.21Q130.99 8.03 130.99 7.47L130.99 7.47Q130.99 7.11 130.78 6.86Q130.57 6.60 130.19 6.42Q129.81 6.24 129.32 6.07Q128.83 5.90 128.30 5.74L128.30 5.74Q127.54 5.51 126.76 5.22Q125.98 4.92 125.33 4.48Q124.69 4.03 124.27 3.34Q123.85 2.66 123.85 1.62L123.85 1.62Q123.85 0.78 124.17 0.04Q124.49-0.70 125.18-1.28Q125.86-1.85 126.93-2.17Q127.99-2.50 129.48-2.50L129.48-2.50Q130.76-2.50 131.87-2.30Q132.98-2.10 133.79-1.74L133.79-1.74L133.26 1.17Q132.78 1.03 131.77 0.71Q130.76 0.39 129.50 0.39L129.50 0.39Q128.19 0.39 127.73 0.71Q127.26 1.03 127.26 1.40L127.26 1.40Q127.26 1.70 127.47 1.94Q127.68 2.18 128.03 2.38Q128.38 2.57 128.85 2.75Q129.31 2.94 129.84 3.10L129.84 3.10Q130.60 3.36 131.41 3.66Q132.22 3.97 132.88 4.43Q133.54 4.90 133.96 5.61Q134.38 6.32 134.38 7.36L134.38 7.36Q134.38 8.17 134.07 8.90Q133.76 9.63 133.05 10.16Q132.33 10.69 131.18 11Q130.04 11.31 128.36 11.31L128.36 11.31Q126.65 11.31 125.44 10.92Q124.24 10.52 123.51 10.22L123.51 10.22L124.04 7.33Q125.02 7.72 126.13 8.06Q127.24 8.40 128.38 8.40ZM145.63 4.53L145.63 4.53Q145.63 2.77 144.93 1.63Q144.23 0.50 142.80 0.50L142.80 0.50Q142.41 0.50 141.96 0.54Q141.52 0.58 141.21 0.61L141.21 0.61L141.21 7.84Q141.54 8.06 142.10 8.20Q142.66 8.34 143.22 8.34L143.22 8.34Q144.46 8.34 145.04 7.35Q145.63 6.35 145.63 4.53ZM149.13 4.42L149.13 4.42Q149.13 5.93 148.80 7.21Q148.46 8.48 147.82 9.39Q147.17 10.30 146.19 10.80Q145.21 11.31 143.92 11.31L143.92 11.31Q142.61 11.31 141.21 10.66L141.21 10.66L141.21 15.62L137.76 15.62L137.76-1.74Q138.72-2.05 140.10-2.24Q141.49-2.44 142.83-2.44L142.83-2.44Q145.88-2.44 147.51-0.59Q149.13 1.26 149.13 4.42Z"/>
    </g>
</svg>