<?xml version="1.0" encoding="UTF-8"?>
<svg height="26" width="82.5" version="1.1" xmlns="http://www.w3.org/2000/svg"><!--Created by Josélio de S. C. Júnior - 2021 - https://github.com/joseliojunior -->
    <rect
        height="24"
        width="80.5"
        rx="1"
        ry="1"
        x="1" y="1"
        fill="#3be133"
        stroke="#146a10"
        stroke-width="1" />
    <g transform="translate(0, 8)">
        <path fill="#146a10" d="M22.43 5.04L22.43 5.04Q22.43 5.76 22.49 6.39Q22.54 7.02 22.71 7.49Q22.88 7.95 23.18 8.22Q23.49 8.50 24 8.50L24 8.50Q24.50 8.50 24.81 8.22Q25.12 7.95 25.29 7.48Q25.46 7.01 25.51 6.38Q25.57 5.76 25.57 5.04L25.57 5.04Q25.57 4.32 25.51 3.69Q25.46 3.06 25.29 2.59Q25.12 2.13 24.82 1.86Q24.51 1.58 24 1.58L24 1.58Q23.49 1.58 23.18 1.86Q22.88 2.13 22.71 2.60Q22.54 3.07 22.49 3.70Q22.43 4.32 22.43 5.04ZM20.43 5.04L20.43 5.04Q20.43 2.48 21.38 1.18Q22.32-0.13 24-0.13L24-0.13Q25.74-0.13 26.66 1.18Q27.57 2.48 27.57 5.04L27.57 5.04Q27.57 7.60 26.64 8.90Q25.71 10.21 24.02 10.21L24.02 10.21Q22.27 10.21 21.35 8.90Q20.43 7.60 20.43 5.04ZM32.74 10.21L32.74 10.21Q30.64 10.21 29.54 8.86Q28.43 7.52 28.43 5.04L28.43 5.04Q28.43 3.81 28.77 2.85Q29.10 1.89 29.70 1.22Q30.30 0.56 31.13 0.22Q31.95-0.13 32.93-0.13L32.93-0.13Q33.46-0.13 33.88-0.04Q34.30 0.05 34.62 0.16Q34.94 0.27 35.16 0.40Q35.38 0.53 35.49 0.59L35.49 0.59L34.98 2.16Q34.61 1.92 34.09 1.75Q33.57 1.58 32.90 1.58L32.90 1.58Q32.43 1.58 31.99 1.75Q31.55 1.92 31.21 2.31Q30.86 2.70 30.65 3.36Q30.43 4.02 30.43 4.99L30.43 4.99Q30.43 6.69 31.02 7.59Q31.60 8.50 32.93 8.50L32.93 8.50Q33.70 8.50 34.20 8.32Q34.70 8.14 35.01 7.97L35.01 7.97L35.50 9.52Q35.09 9.78 34.38 9.99Q33.66 10.21 32.74 10.21ZM40.02 8.59L40.02 8.59Q40.34 8.59 40.64 8.58Q40.94 8.58 41.17 8.54L41.17 8.54L41.17 6.82Q40.98 6.78 40.70 6.76Q40.43 6.74 40.21 6.74L40.21 6.74Q39.90 6.74 39.62 6.78Q39.33 6.82 39.11 6.91Q38.90 7.01 38.77 7.18Q38.64 7.36 38.64 7.65L38.64 7.65Q38.64 8.16 39.02 8.38Q39.41 8.59 40.02 8.59ZM39.84 2.29L39.84 2.29Q40.77 2.29 41.38 2.50Q42 2.72 42.37 3.11Q42.74 3.50 42.90 4.07Q43.06 4.64 43.06 5.34L43.06 5.34L43.06 9.82Q42.62 9.92 41.78 10.05Q40.93 10.18 39.87 10.18L39.87 10.18Q39.15 10.18 38.57 10.05Q37.98 9.92 37.57 9.62Q37.15 9.33 36.93 8.86Q36.70 8.38 36.70 7.70L36.70 7.70Q36.70 7.04 36.96 6.59Q37.22 6.14 37.65 5.87Q38.08 5.60 38.64 5.48Q39.20 5.36 39.81 5.36L39.81 5.36Q40.58 5.36 41.17 5.49L41.17 5.49L41.17 5.25Q41.17 4.69 40.82 4.31Q40.46 3.94 39.60 3.94L39.60 3.94Q39.04 3.94 38.52 4.02Q38 4.10 37.68 4.21L37.68 4.21L37.41 2.62Q37.78 2.50 38.45 2.39Q39.12 2.29 39.84 2.29ZM49.49 2.40L49.49 2.40Q50.11 2.40 50.51 2.59Q50.91 2.78 51.14 3.17Q51.38 3.55 51.46 4.14Q51.54 4.72 51.54 5.50L51.54 5.50L51.54 10L49.94 10L49.94 5.41Q49.94 4.96 49.88 4.69Q49.82 4.42 49.74 4.27Q49.65 4.13 49.53 4.08Q49.41 4.03 49.28 4.03L49.28 4.03Q49.14 4.03 48.98 4.06Q48.82 4.08 48.69 4.14L48.69 4.14Q48.74 4.45 48.77 4.82Q48.80 5.18 48.80 5.63L48.80 5.63L48.80 7.14L47.20 7.14L47.20 5.41Q47.20 4.64 47.05 4.34Q46.90 4.03 46.56 4.03L46.56 4.03Q46.46 4.03 46.33 4.05Q46.19 4.06 46.06 4.10L46.06 4.10L46.06 10L44.46 10L44.46 2.77Q45.09 2.59 45.70 2.50Q46.30 2.40 46.77 2.40L46.77 2.40Q47.18 2.40 47.51 2.50Q47.84 2.61 48.08 2.85L48.08 2.85Q48.35 2.67 48.72 2.54Q49.09 2.40 49.49 2.40ZM59.22 8.10L59.47 9.68Q59.42 9.71 59.26 9.79Q59.09 9.87 58.82 9.96Q58.54 10.05 58.15 10.11Q57.76 10.18 57.26 10.18L57.26 10.18Q55.90 10.18 55.28 9.37Q54.66 8.56 54.66 7.01L54.66 7.01L54.66 0.62L52.58 0.62L52.58-1.01L56.62-1.01L56.62 7.15Q56.62 7.92 56.93 8.19Q57.23 8.46 57.70 8.46L57.70 8.46Q58.29 8.46 58.69 8.30Q59.09 8.14 59.22 8.10L59.22 8.10Z"/>
    </g>
</svg>