<?xml version="1.0" encoding="UTF-8"?>
<svg height="26" width="106.8" version="1.1" xmlns="http://www.w3.org/2000/svg"><!--Created by Josélio de S. C. Júnior - 2021 - https://github.com/joseliojunior -->
    <rect
        height="24"
        width="104.8"
        rx="12"
        ry="12"
        x="1" y="1"
        fill="#2e1052"
        stroke="#7529d1"
        stroke-width="1" />
    <g transform="translate(0, 8)">
        <path fill="#7529d1" d="M25.31 0.10L27.28 0.10L27.28 10L25.31 10L25.31 5.63L22.69 5.63L22.69 10L20.72 10L20.72 0.10L22.69 0.10L22.69 4L25.31 4L25.31 0.10ZM28.40 0.10L35.60 0.10L35.60 1.73L32.99 1.73L32.99 10L31.01 10L31.01 1.73L28.40 1.73L28.40 0.10ZM36.94 0.10L38.58 0.10Q38.69 0.43 38.86 0.96Q39.02 1.49 39.22 2.10Q39.41 2.70 39.60 3.33Q39.79 3.95 39.97 4.48L39.97 4.48Q40.16 3.89 40.37 3.26Q40.58 2.62 40.77 2.04Q40.96 1.46 41.12 0.94Q41.28 0.43 41.41 0.10L41.41 0.10L43.04 0.10Q43.15 1.39 43.26 2.62Q43.36 3.86 43.43 5.06Q43.50 6.27 43.55 7.50Q43.60 8.72 43.63 10L43.63 10L41.82 10L41.92 2.30L40.70 6.50L39.26 6.50L38.10 2.30L38.18 10L36.37 10Q36.42 8.78 36.47 7.47Q36.53 6.16 36.59 4.86Q36.66 3.57 36.74 2.35Q36.83 1.14 36.94 0.10L36.94 0.10ZM51.36 8.37L51.36 10L45.14 10L45.14 0.10L47.12 0.10L47.12 8.37L51.36 8.37ZM52.64 6.61L52.64 4.99L55.15 4.99L55.15 2.21L56.85 2.21L56.85 4.99L59.36 4.99L59.36 6.61L56.85 6.61L56.85 9.39L55.15 9.39L55.15 6.61L52.64 6.61ZM67.36 10L61.01 10L61.01 0.10L67.01 0.10L67.01 1.73L62.98 1.73L62.98 3.95L66.48 3.95L66.48 5.58L62.98 5.58L62.98 8.37L67.36 8.37L67.36 10ZM72.74 10.21L72.74 10.21Q70.64 10.21 69.54 8.86Q68.43 7.52 68.43 5.04L68.43 5.04Q68.43 3.81 68.77 2.85Q69.10 1.89 69.70 1.22Q70.30 0.56 71.13 0.22Q71.95-0.13 72.93-0.13L72.93-0.13Q73.46-0.13 73.88-0.04Q74.30 0.05 74.62 0.16Q74.94 0.27 75.16 0.40Q75.38 0.53 75.49 0.59L75.49 0.59L74.98 2.16Q74.61 1.92 74.09 1.75Q73.57 1.58 72.90 1.58L72.90 1.58Q72.43 1.58 71.99 1.75Q71.55 1.92 71.21 2.31Q70.86 2.70 70.65 3.36Q70.43 4.02 70.43 4.99L70.43 4.99Q70.43 6.69 71.02 7.59Q71.60 8.50 72.93 8.50L72.93 8.50Q73.70 8.50 74.20 8.32Q74.70 8.14 75.01 7.97L75.01 7.97L75.50 9.52Q75.09 9.78 74.38 9.99Q73.66 10.21 72.74 10.21ZM79.42-0.02L79.42-0.02Q80.27-0.02 80.96 0.18Q81.65 0.37 82.14 0.77Q82.64 1.17 82.90 1.78Q83.17 2.40 83.17 3.23L83.17 3.23Q83.17 4.10 82.82 4.80Q82.46 5.50 81.65 5.87L81.65 5.87Q81.92 6.29 82.22 6.79Q82.53 7.30 82.82 7.85Q83.10 8.40 83.37 8.95Q83.63 9.50 83.82 10L83.82 10L81.76 10Q81.39 9.04 80.90 8.15Q80.42 7.26 79.86 6.35L79.86 6.35L78.83 6.35L78.83 10L76.86 10L76.86 0.24Q77.15 0.18 77.50 0.12Q77.84 0.06 78.19 0.04Q78.54 0.02 78.86 0Q79.18-0.02 79.42-0.02ZM81.17 3.22L81.17 3.22Q81.17 2.43 80.69 2.06Q80.21 1.70 79.42 1.70L79.42 1.70Q79.31 1.70 79.15 1.70Q78.99 1.71 78.83 1.74L78.83 1.74L78.83 4.72L79.26 4.72Q80.27 4.72 80.72 4.33Q81.17 3.94 81.17 3.22Z"/>
    </g>
</svg>