<?xml version="1.0" encoding="UTF-8"?><svg height="34" width="138.8" version="1.1" xmlns="http://www.w3.org/2000/svg"><!--Created by Josélio de S. C. Júnior - 2021 - https://github.com/joseliojunior --><rect height="32" width="136.8" rx="16" ry="16" x="1" y="1" fill="#2e1052" stroke="#7529d1" stroke-width="1" /><g transform="translate(0, 12)"><path fill="#7529d1" d="M27.97-2.86L30.92-2.86L30.92 12L27.97 12L27.97 5.45L24.03 5.45L24.03 12L21.08 12L21.08-2.86L24.03-2.86L24.03 3L27.97 3L27.97-2.86ZM32.60-2.86L43.40-2.86L43.40-0.41L39.49-0.41L39.49 12L36.51 12L36.51-0.41L32.60-0.41L32.60-2.86ZM45.42-2.86L47.86-2.86Q48.03-2.35 48.28-1.56Q48.54-0.77 48.82 0.14Q49.11 1.06 49.40 1.99Q49.69 2.93 49.95 3.72L49.95 3.72Q50.24 2.83 50.55 1.88Q50.86 0.94 51.15 0.06Q51.44-0.82 51.68-1.58Q51.92-2.35 52.11-2.86L52.11-2.86L54.56-2.86Q54.73-0.91 54.88 0.94Q55.04 2.78 55.15 4.60Q55.26 6.41 55.33 8.24Q55.40 10.08 55.45 12L55.45 12L52.74 12L52.88 0.46L51.06 6.74L48.90 6.74L47.14 0.46L47.26 12L44.55 12Q44.62 10.18 44.71 8.21Q44.79 6.24 44.89 4.30Q44.98 2.35 45.12 0.53Q45.25-1.30 45.42-2.86L45.42-2.86ZM67.04 9.55L67.04 12L57.70 12L57.70-2.86L60.68-2.86L60.68 9.55L67.04 9.55ZM68.96 6.91L68.96 4.49L72.73 4.49L72.73 0.31L75.27 0.31L75.27 4.49L79.04 4.49L79.04 6.91L75.27 6.91L75.27 11.09L72.73 11.09L72.73 6.91L68.96 6.91ZM91.04 12L81.51 12L81.51-2.86L90.51-2.86L90.51-0.41L84.46-0.41L84.46 2.93L89.72 2.93L89.72 5.38L84.46 5.38L84.46 9.55L91.04 9.55L91.04 12ZM99.10 12.31L99.10 12.31Q95.96 12.31 94.30 10.30Q92.65 8.28 92.65 4.56L92.65 4.56Q92.65 2.71 93.15 1.27Q93.66-0.17 94.56-1.16Q95.46-2.16 96.69-2.68Q97.93-3.19 99.39-3.19L99.39-3.19Q100.18-3.19 100.82-3.06Q101.46-2.93 101.94-2.76Q102.42-2.59 102.74-2.40Q103.06-2.21 103.23-2.11L103.23-2.11L102.46 0.24Q101.91-0.12 101.13-0.37Q100.35-0.62 99.34-0.62L99.34-0.62Q98.65-0.62 97.99-0.37Q97.33-0.12 96.81 0.47Q96.30 1.06 95.97 2.04Q95.65 3.02 95.65 4.49L95.65 4.49Q95.65 7.03 96.52 8.39Q97.40 9.74 99.39 9.74L99.39 9.74Q100.54 9.74 101.30 9.48Q102.06 9.22 102.51 8.95L102.51 8.95L103.26 11.28Q102.63 11.66 101.56 11.99Q100.50 12.31 99.10 12.31ZM109.14-3.02L109.14-3.02Q110.41-3.02 111.44-2.74Q112.47-2.45 113.22-1.85Q113.96-1.25 114.36-0.32Q114.75 0.60 114.75 1.85L114.75 1.85Q114.75 3.14 114.22 4.20Q113.70 5.26 112.47 5.81L112.47 5.81Q112.88 6.43 113.34 7.19Q113.79 7.94 114.22 8.77Q114.66 9.60 115.05 10.43Q115.45 11.26 115.74 12L115.74 12L112.64 12Q112.09 10.56 111.36 9.23Q110.62 7.90 109.78 6.53L109.78 6.53L108.25 6.53L108.25 12L105.30 12L105.30-2.64Q105.73-2.74 106.24-2.82Q106.76-2.90 107.29-2.94Q107.82-2.98 108.30-3Q108.78-3.02 109.14-3.02ZM111.75 1.82L111.75 1.82Q111.75 0.65 111.03 0.10Q110.31-0.46 109.14-0.46L109.14-0.46Q108.97-0.46 108.73-0.44Q108.49-0.43 108.25-0.38L108.25-0.38L108.25 4.08L108.90 4.08Q110.41 4.08 111.08 3.49Q111.75 2.90 111.75 1.82Z"/></g></svg>