<?xml version="1.0" encoding="UTF-8"?>
<svg height="34" width="134.8" version="1.1" xmlns="http://www.w3.org/2000/svg">
    <rect
        height="32"
        width="132.8"
        rx="1"
        ry="1"
        x="1"
        y="1"
        fill="#2e1052"
        stroke="#7529d1"
        stroke-width="1"
         />
    <g transform="translate(0, 14)">
        <path fill="#7529d1" d="M19.30-6.33L22.74-6.33L22.74 11L19.30 11L19.30 3.36L14.70 3.36L14.70 11L11.26 11L11.26-6.33L14.70-6.33L14.70 0.50L19.30 0.50L19.30-6.33ZM24.70-6.33L37.30-6.33L37.30-3.48L32.74-3.48L32.74 11L29.26 11L29.26-3.48L24.70-3.48L24.70-6.33ZM39.65-6.33L42.51-6.33Q42.70-5.74 43.00-4.82Q43.29-3.90 43.63-2.83Q43.96-1.77 44.30-0.68Q44.64 0.42 44.94 1.34L44.94 1.34Q45.28 0.30 45.64-0.80Q46.01-1.91 46.34-2.93Q46.68-3.95 46.96-4.85Q47.24-5.74 47.46-6.33L47.46-6.33L50.32-6.33Q50.52-4.06 50.70-1.91Q50.88 0.25 51.01 2.36Q51.13 4.48 51.22 6.62Q51.30 8.76 51.36 11L51.36 11L48.19 11L48.36-2.47L46.23 4.87L43.71 4.87L41.67-2.47L41.81 11L38.64 11Q38.73 8.87 38.83 6.58Q38.92 4.28 39.04 2.01Q39.15-0.26 39.30-2.38Q39.46-4.51 39.65-6.33L39.65-6.33ZM64.88 8.14L64.88 11L53.99 11L53.99-6.33L57.46-6.33L57.46 8.14L64.88 8.14ZM67.12 5.06L67.12 2.24L71.52 2.24L71.52-2.64L74.48-2.64L74.48 2.24L78.88 2.24L78.88 5.06L74.48 5.06L74.48 9.94L71.52 9.94L71.52 5.06L67.12 5.06ZM92.88 11L81.76 11L81.76-6.33L92.26-6.33L92.26-3.48L85.21-3.48L85.21 0.42L91.34 0.42L91.34 3.27L85.21 3.27L85.21 8.14L92.88 8.14L92.88 11ZM102.29 11.36L102.29 11.36Q98.62 11.36 96.69 9.01Q94.76 6.66 94.76 2.32L94.76 2.32Q94.76 0.16 95.34-1.52Q95.93-3.20 96.98-4.36Q98.03-5.52 99.47-6.12Q100.92-6.72 102.62-6.72L102.62-6.72Q103.55-6.72 104.29-6.57Q105.03-6.42 105.59-6.22Q106.15-6.02 106.53-5.80Q106.91-5.58 107.10-5.46L107.10-5.46L106.21-2.72Q105.56-3.14 104.65-3.43Q103.74-3.73 102.57-3.73L102.57-3.73Q101.76-3.73 100.99-3.43Q100.22-3.14 99.61-2.45Q99.01-1.77 98.63-0.62Q98.26 0.53 98.26 2.24L98.26 2.24Q98.26 5.20 99.28 6.79Q100.30 8.37 102.62 8.37L102.62 8.37Q103.97 8.37 104.85 8.06Q105.73 7.75 106.26 7.44L106.26 7.44L107.13 10.16Q106.40 10.61 105.16 10.99Q103.91 11.36 102.29 11.36ZM113.99-6.53L113.99-6.53Q115.48-6.53 116.68-6.19Q117.88-5.86 118.75-5.16Q119.62-4.46 120.08-3.38Q120.54-2.30 120.54-0.84L120.54-0.84Q120.54 0.67 119.93 1.90Q119.31 3.13 117.88 3.78L117.88 3.78Q118.36 4.50 118.89 5.39Q119.42 6.27 119.93 7.23Q120.43 8.20 120.89 9.17Q121.36 10.13 121.69 11L121.69 11L118.08 11Q117.44 9.32 116.58 7.77Q115.73 6.21 114.75 4.62L114.75 4.62L112.96 4.62L112.96 11L109.51 11L109.51-6.08Q110.02-6.19 110.62-6.29Q111.22-6.39 111.84-6.43Q112.45-6.47 113.01-6.50Q113.57-6.53 113.99-6.53ZM117.04-0.87L117.04-0.87Q117.04-2.24 116.20-2.89Q115.36-3.53 113.99-3.53L113.99-3.53Q113.80-3.53 113.52-3.52Q113.24-3.50 112.96-3.45L112.96-3.45L112.96 1.76L113.71 1.76Q115.48 1.76 116.26 1.07Q117.04 0.39 117.04-0.87Z"/>
    </g>
</svg>