<?xml version="1.0" encoding="UTF-8"?>
<svg height="34" width="90.4" version="1.1" xmlns="http://www.w3.org/2000/svg"><!--Created by Josélio de S. C. Júnior - 2021 - https://github.com/joseliojunior -->
    <defs>
        <pattern id="pattern"
                x="3" y="3" width="6" height="6"
                patternUnits="userSpaceOnUse"
                patternTransform="rotate(45)" >
            <rect height="6" width="6"
                fill="#ffffff"/>
            <line x1="0" y1="0" x2="0" y2="6"
                stroke="#bbbbbb"
                stroke-width="2" />
        </pattern>
    </defs>
    <rect
        height="32"
        width="88.4"
        rx="16"
        ry="16"
        x="1" y="1"
        fill="url(#pattern)" />
    <g transform="translate(0, 12)">
        <path fill="#000000" d="M31.78 12L28.62 12L27.92 8.57L23.96 8.57L23.29 12L20.22 12Q21.27 7.61 22.35 4.00Q23.43 0.38 24.44-2.86L24.44-2.86L27.66-2.86Q28.71 0.41 29.76 4.07Q30.80 7.73 31.78 12L31.78 12ZM25.98 0.02L25.98 0.02Q25.74 0.86 25.53 1.62Q25.33 2.38 25.15 3.11Q24.97 3.84 24.81 4.58Q24.66 5.33 24.51 6.12L24.51 6.12L27.42 6.12Q27.27 5.33 27.13 4.58Q26.98 3.84 26.80 3.11Q26.62 2.38 26.42 1.62Q26.22 0.86 25.98 0.02ZM43.26 7.51L43.26 7.51Q43.26 8.86 42.80 9.76Q42.34 10.66 41.56 11.20Q40.78 11.74 39.72 11.96Q38.65 12.19 37.42 12.19L37.42 12.19Q36.44 12.19 35.38 12.08Q34.33 11.98 33.30 11.76L33.30 11.76L33.30-2.66Q34.14-2.81 35.14-2.92Q36.15-3.02 37.14-3.02L37.14-3.02Q38.82-3.02 39.87-2.68Q40.93-2.33 41.53-1.76Q42.13-1.20 42.34-0.50Q42.56 0.19 42.56 0.89L42.56 0.89Q42.56 1.94 42.04 2.76Q41.53 3.58 40.66 4.06L40.66 4.06Q42.18 4.61 42.72 5.54Q43.26 6.48 43.26 7.51ZM37.83 5.50L36.25 5.50L36.25 9.53Q36.56 9.58 36.93 9.60Q37.30 9.62 37.66 9.62L37.66 9.62Q38.17 9.62 38.65 9.54Q39.13 9.46 39.50 9.23Q39.87 9 40.11 8.58Q40.35 8.16 40.35 7.51L40.35 7.51Q40.35 6.43 39.67 5.96Q38.98 5.50 37.83 5.50L37.83 5.50ZM36.25 3.05L37.40 3.05Q38.53 3.05 39.10 2.56Q39.68 2.06 39.68 1.20L39.68 1.20Q39.68 0.67 39.51 0.35Q39.34 0.02 39.06-0.16Q38.77-0.34 38.38-0.40Q38-0.46 37.59-0.46L37.59-0.46Q37.26-0.46 36.90-0.43Q36.54-0.41 36.25-0.36L36.25-0.36L36.25 3.05ZM54.90 12L52.52 12Q51.51 9.53 50.32 7.07Q49.14 4.61 47.77 2.14L47.77 2.14L47.77 12L45.10 12L45.10-2.86L47.48-2.86Q48.15-1.80 48.82-0.56Q49.50 0.67 50.13 1.90Q50.77 3.12 51.31 4.27Q51.85 5.42 52.23 6.29L52.23 6.29L52.23-2.86L54.90-2.86L54.90 12ZM60.46 12L57.51 12L57.51-2.86L66.61-2.86L66.61-0.41L60.46-0.41L60.46 3.19L65.84 3.19L65.84 5.64L60.46 5.64L60.46 12Z"/>
    </g>
</svg>