<?xml version="1.0" encoding="UTF-8"?>
<svg height="34" width="90.4" version="1.1" xmlns="http://www.w3.org/2000/svg">
    <rect
        height="32"
        width="88.4"
        rx="16"
        ry="16"
        x="1"
        y="1"
        fill="#c94949"
        stroke="#5e1c1c"
        stroke-width="1"
         />
    <g transform="translate(0, 12)">
        <path fill="#5e1c1c" d="M25.57 9.84L25.57 9.84Q26.31 9.84 26.80 9.68Q27.30 9.53 27.58 9.25Q27.87 8.98 27.98 8.63Q28.09 8.28 28.09 7.92L28.09 7.92Q28.09 7.46 27.82 7.10Q27.56 6.74 27.15 6.47Q26.74 6.19 26.24 5.96Q25.74 5.74 25.23 5.54L25.23 5.54Q24.56 5.30 23.84 4.99Q23.12 4.68 22.53 4.20Q21.94 3.72 21.56 3.01Q21.18 2.30 21.18 1.25L21.18 1.25Q21.18-0.84 22.53-2.02Q23.89-3.19 26.26-3.19L26.26-3.19Q27.63-3.19 28.65-2.88Q29.67-2.57 30.37-2.18L30.37-2.18L29.50 0.10Q28.90-0.24 28.17-0.48Q27.44-0.72 26.48-0.72L26.48-0.72Q24.13-0.72 24.13 0.98L24.13 0.98Q24.13 1.42 24.37 1.74Q24.61 2.06 24.98 2.32Q25.35 2.57 25.82 2.76Q26.29 2.95 26.74 3.12L26.74 3.12Q27.44 3.38 28.20 3.71Q28.95 4.03 29.59 4.57Q30.22 5.11 30.63 5.92Q31.04 6.72 31.04 7.94L31.04 7.94Q31.04 10.03 29.68 11.17Q28.33 12.31 25.57 12.31L25.57 12.31Q23.72 12.31 22.62 11.92Q21.51 11.52 20.96 11.18L20.96 11.18L21.82 8.78Q22.47 9.17 23.37 9.50Q24.27 9.84 25.57 9.84ZM40.23 0.60L40.23 0.60Q41.17 0.60 41.77 0.89Q42.37 1.18 42.72 1.75Q43.06 2.33 43.18 3.20Q43.30 4.08 43.30 5.26L43.30 5.26L43.30 12L40.90 12L40.90 5.11Q40.90 4.44 40.82 4.03Q40.74 3.62 40.60 3.41Q40.47 3.19 40.29 3.12Q40.11 3.05 39.92 3.05L39.92 3.05Q39.70 3.05 39.46 3.08Q39.22 3.12 39.03 3.22L39.03 3.22Q39.10 3.67 39.15 4.22Q39.20 4.78 39.20 5.45L39.20 5.45L39.20 7.70L36.80 7.70L36.80 5.11Q36.80 3.96 36.57 3.50Q36.34 3.05 35.84 3.05L35.84 3.05Q35.70 3.05 35.49 3.07Q35.29 3.10 35.10 3.14L35.10 3.14L35.10 12L32.70 12L32.70 1.15Q33.63 0.89 34.54 0.74Q35.46 0.60 36.15 0.60L36.15 0.60Q36.78 0.60 37.27 0.76Q37.76 0.91 38.12 1.27L38.12 1.27Q38.53 1.01 39.08 0.80Q39.63 0.60 40.23 0.60ZM49.38-3.02L49.38-3.02Q52.21-3.02 53.77-1.86Q55.33-0.70 55.33 1.94L55.33 1.94Q55.33 4.61 53.76 5.80Q52.18 6.98 49.30 6.98L49.30 6.98L48.25 6.98L48.25 12L45.30 12L45.30-2.66Q45.73-2.76 46.27-2.83Q46.81-2.90 47.36-2.94Q47.91-2.98 48.44-3Q48.97-3.02 49.38-3.02ZM49.71-0.46L49.71-0.46Q49.45-0.46 48.98-0.44Q48.51-0.43 48.25-0.38L48.25-0.38L48.25 4.42L49.45 4.42Q50.86 4.42 51.58 3.85Q52.30 3.29 52.30 1.92L52.30 1.92Q52.30 0.62 51.60 0.08Q50.89-0.46 49.71-0.46ZM67.04 9.55L67.04 12L57.70 12L57.70-2.86L60.68-2.86L60.68 9.55L67.04 9.55Z"/>
    </g>
</svg>