<?xml version="1.0" encoding="UTF-8"?>
<svg height="34" width="78.4" version="1.1" xmlns="http://www.w3.org/2000/svg">
    <rect
        height="32"
        width="76.4"
        rx="14"
        ry="14"
        x="1"
        y="1"
        fill="#c94949"
        stroke="#5e1c1c"
        stroke-width="1"
         />
    <g transform="translate(0, 14)">
        <path fill="#5e1c1c" d="M16.50 8.48L16.50 8.48Q17.36 8.48 17.94 8.30Q18.51 8.12 18.85 7.79Q19.18 7.47 19.31 7.07Q19.44 6.66 19.44 6.24L19.44 6.24Q19.44 5.71 19.13 5.29Q18.82 4.87 18.34 4.55Q17.87 4.22 17.28 3.96Q16.69 3.69 16.10 3.47L16.10 3.47Q15.32 3.19 14.48 2.82Q13.64 2.46 12.95 1.90Q12.27 1.34 11.82 0.51Q11.37-0.31 11.37-1.54L11.37-1.54Q11.37-3.98 12.95-5.35Q14.54-6.72 17.31-6.72L17.31-6.72Q18.90-6.72 20.09-6.36Q21.28-6.00 22.10-5.55L22.10-5.55L21.09-2.89Q20.39-3.28 19.53-3.56Q18.68-3.84 17.56-3.84L17.56-3.84Q14.82-3.84 14.82-1.85L14.82-1.85Q14.82-1.35 15.10-0.97Q15.38-0.59 15.81-0.30Q16.24-0.00 16.79 0.22Q17.34 0.44 17.87 0.64L17.87 0.64Q18.68 0.95 19.56 1.33Q20.44 1.70 21.19 2.33Q21.93 2.96 22.40 3.90Q22.88 4.84 22.88 6.27L22.88 6.27Q22.88 8.70 21.30 10.03Q19.72 11.36 16.50 11.36L16.50 11.36Q14.34 11.36 13.05 10.90Q11.76 10.44 11.12 10.05L11.12 10.05L12.13 7.25Q12.88 7.70 13.93 8.09Q14.98 8.48 16.50 8.48ZM33.60-2.30L33.60-2.30Q34.70-2.30 35.40-1.96Q36.10-1.63 36.50-0.96Q36.91-0.28 37.05 0.74Q37.19 1.76 37.19 3.13L37.19 3.13L37.19 11L34.39 11L34.39 2.96Q34.39 2.18 34.29 1.70Q34.19 1.23 34.04 0.98Q33.88 0.72 33.67 0.64Q33.46 0.56 33.24 0.56L33.24 0.56Q32.99 0.56 32.71 0.60Q32.43 0.64 32.20 0.75L32.20 0.75Q32.29 1.28 32.34 1.93Q32.40 2.57 32.40 3.36L32.40 3.36L32.40 5.99L29.60 5.99L29.60 2.96Q29.60 1.62 29.33 1.09Q29.07 0.56 28.48 0.56L28.48 0.56Q28.31 0.56 28.07 0.58Q27.84 0.61 27.61 0.67L27.61 0.67L27.61 11L24.81 11L24.81-1.66Q25.90-1.96 26.97-2.13Q28.03-2.30 28.84-2.30L28.84-2.30Q29.57-2.30 30.15-2.12Q30.72-1.94 31.14-1.52L31.14-1.52Q31.62-1.82 32.26-2.06Q32.90-2.30 33.60-2.30ZM44.27-6.53L44.27-6.53Q47.58-6.53 49.40-5.17Q51.22-3.81 51.22-0.73L51.22-0.73Q51.22 2.38 49.38 3.76Q47.55 5.15 44.19 5.15L44.19 5.15L42.96 5.15L42.96 11L39.51 11L39.51-6.11Q40.02-6.22 40.65-6.30Q41.28-6.39 41.92-6.43Q42.56-6.47 43.18-6.50Q43.80-6.53 44.27-6.53ZM44.66-3.53L44.66-3.53Q44.36-3.53 43.81-3.52Q43.26-3.50 42.96-3.45L42.96-3.45L42.96 2.15L44.36 2.15Q46.01 2.15 46.85 1.49Q47.69 0.84 47.69-0.76L47.69-0.76Q47.69-2.27 46.86-2.90Q46.04-3.53 44.66-3.53ZM64.88 8.14L64.88 11L53.99 11L53.99-6.33L57.46-6.33L57.46 8.14L64.88 8.14Z"/>
    </g>
</svg>