<?xml version="1.0" encoding="UTF-8"?>
<svg height="26" width="139.2" version="1.1" xmlns="http://www.w3.org/2000/svg"><!--Created by Josélio de S. C. Júnior - 2021 - https://github.com/joseliojunior -->
    <rect
        height="24"
        width="137.2"
        rx="12"
        ry="12"
        x="1" y="1"
        fill="#483465"
        stroke="#9278ba"
        stroke-width="1" />
    <g transform="translate(0, 8)">
        <path fill="#9278ba" d="M24.74 10.21L24.74 10.21Q22.64 10.21 21.54 8.86Q20.43 7.52 20.43 5.04L20.43 5.04Q20.43 3.81 20.77 2.85Q21.10 1.89 21.70 1.22Q22.30 0.56 23.13 0.22Q23.95-0.13 24.93-0.13L24.93-0.13Q25.46-0.13 25.88-0.04Q26.30 0.05 26.62 0.16Q26.94 0.27 27.16 0.40Q27.38 0.53 27.49 0.59L27.49 0.59L26.98 2.16Q26.61 1.92 26.09 1.75Q25.57 1.58 24.90 1.58L24.90 1.58Q24.43 1.58 23.99 1.75Q23.55 1.92 23.21 2.31Q22.86 2.70 22.65 3.36Q22.43 4.02 22.43 4.99L22.43 4.99Q22.43 6.69 23.02 7.59Q23.60 8.50 24.93 8.50L24.93 8.50Q25.70 8.50 26.20 8.32Q26.70 8.14 27.01 7.97L27.01 7.97L27.50 9.52Q27.09 9.78 26.38 9.99Q25.66 10.21 24.74 10.21ZM32.02 8.59L32.02 8.59Q32.34 8.59 32.64 8.58Q32.94 8.58 33.17 8.54L33.17 8.54L33.17 6.82Q32.98 6.78 32.70 6.76Q32.43 6.74 32.21 6.74L32.21 6.74Q31.90 6.74 31.62 6.78Q31.33 6.82 31.11 6.91Q30.90 7.01 30.77 7.18Q30.64 7.36 30.64 7.65L30.64 7.65Q30.64 8.16 31.02 8.38Q31.41 8.59 32.02 8.59ZM31.84 2.29L31.84 2.29Q32.77 2.29 33.38 2.50Q34 2.72 34.37 3.11Q34.74 3.50 34.90 4.07Q35.06 4.64 35.06 5.34L35.06 5.34L35.06 9.82Q34.62 9.92 33.78 10.05Q32.93 10.18 31.87 10.18L31.87 10.18Q31.15 10.18 30.57 10.05Q29.98 9.92 29.57 9.62Q29.15 9.33 28.93 8.86Q28.70 8.38 28.70 7.70L28.70 7.70Q28.70 7.04 28.96 6.59Q29.22 6.14 29.65 5.87Q30.08 5.60 30.64 5.48Q31.20 5.36 31.81 5.36L31.81 5.36Q32.58 5.36 33.17 5.49L33.17 5.49L33.17 5.25Q33.17 4.69 32.82 4.31Q32.46 3.94 31.60 3.94L31.60 3.94Q31.04 3.94 30.52 4.02Q30 4.10 29.68 4.21L29.68 4.21L29.41 2.62Q29.78 2.50 30.45 2.39Q31.12 2.29 31.84 2.29ZM41.52 6.19L41.52 6.19Q41.52 5.14 41.18 4.58Q40.83 4.02 40.13 4.02L40.13 4.02Q39.81 4.02 39.50 4.10Q39.18 4.19 38.96 4.32L38.96 4.32L38.96 8.40Q39.18 8.45 39.43 8.46Q39.68 8.48 39.86 8.48L39.86 8.48Q40.62 8.48 41.07 7.96Q41.52 7.44 41.52 6.19ZM43.52 6.24L43.52 6.24Q43.52 7.14 43.28 7.86Q43.04 8.59 42.58 9.10Q42.11 9.62 41.44 9.90Q40.77 10.18 39.90 10.18L39.90 10.18Q39.14 10.18 38.34 10.06Q37.54 9.95 36.99 9.78L36.99 9.78L36.99-0.77L38.96-1.10L38.96 2.66Q39.38 2.46 39.76 2.39Q40.14 2.32 40.53 2.32L40.53 2.32Q41.26 2.32 41.82 2.60Q42.38 2.88 42.76 3.40Q43.14 3.92 43.33 4.64Q43.52 5.36 43.52 6.24ZM48.02 8.59L48.02 8.59Q48.34 8.59 48.64 8.58Q48.94 8.58 49.17 8.54L49.17 8.54L49.17 6.82Q48.98 6.78 48.70 6.76Q48.43 6.74 48.21 6.74L48.21 6.74Q47.90 6.74 47.62 6.78Q47.33 6.82 47.11 6.91Q46.90 7.01 46.77 7.18Q46.64 7.36 46.64 7.65L46.64 7.65Q46.64 8.16 47.02 8.38Q47.41 8.59 48.02 8.59ZM47.84 2.29L47.84 2.29Q48.77 2.29 49.38 2.50Q50 2.72 50.37 3.11Q50.74 3.50 50.90 4.07Q51.06 4.64 51.06 5.34L51.06 5.34L51.06 9.82Q50.62 9.92 49.78 10.05Q48.93 10.18 47.87 10.18L47.87 10.18Q47.15 10.18 46.57 10.05Q45.98 9.92 45.57 9.62Q45.15 9.33 44.93 8.86Q44.70 8.38 44.70 7.70L44.70 7.70Q44.70 7.04 44.96 6.59Q45.22 6.14 45.65 5.87Q46.08 5.60 46.64 5.48Q47.20 5.36 47.81 5.36L47.81 5.36Q48.58 5.36 49.17 5.49L49.17 5.49L49.17 5.25Q49.17 4.69 48.82 4.31Q48.46 3.94 47.60 3.94L47.60 3.94Q47.04 3.94 46.52 4.02Q46 4.10 45.68 4.21L45.68 4.21L45.41 2.62Q45.78 2.50 46.45 2.39Q47.12 2.29 47.84 2.29ZM59.22 8.10L59.47 9.68Q59.42 9.71 59.26 9.79Q59.09 9.87 58.82 9.96Q58.54 10.05 58.15 10.11Q57.76 10.18 57.26 10.18L57.26 10.18Q55.90 10.18 55.28 9.37Q54.66 8.56 54.66 7.01L54.66 7.01L54.66 0.62L52.58 0.62L52.58-1.01L56.62-1.01L56.62 7.15Q56.62 7.92 56.93 8.19Q57.23 8.46 57.70 8.46L57.70 8.46Q58.29 8.46 58.69 8.30Q59.09 8.14 59.22 8.10L59.22 8.10ZM72.74 10.21L72.74 10.21Q70.64 10.21 69.54 8.86Q68.43 7.52 68.43 5.04L68.43 5.04Q68.43 3.81 68.77 2.85Q69.10 1.89 69.70 1.22Q70.30 0.56 71.13 0.22Q71.95-0.13 72.93-0.13L72.93-0.13Q73.46-0.13 73.88-0.04Q74.30 0.05 74.62 0.16Q74.94 0.27 75.16 0.40Q75.38 0.53 75.49 0.59L75.49 0.59L74.98 2.16Q74.61 1.92 74.09 1.75Q73.57 1.58 72.90 1.58L72.90 1.58Q72.43 1.58 71.99 1.75Q71.55 1.92 71.21 2.31Q70.86 2.70 70.65 3.36Q70.43 4.02 70.43 4.99L70.43 4.99Q70.43 6.69 71.02 7.59Q71.60 8.50 72.93 8.50L72.93 8.50Q73.70 8.50 74.20 8.32Q74.70 8.14 75.01 7.97L75.01 7.97L75.50 9.52Q75.09 9.78 74.38 9.99Q73.66 10.21 72.74 10.21ZM83.55 6.22L83.55 6.22Q83.55 7.12 83.30 7.85Q83.04 8.58 82.58 9.10Q82.11 9.63 81.46 9.92Q80.82 10.21 80.02 10.21L80.02 10.21Q79.22 10.21 78.57 9.92Q77.92 9.63 77.45 9.10Q76.98 8.58 76.72 7.85Q76.46 7.12 76.46 6.22L76.46 6.22Q76.46 5.34 76.73 4.62Q76.99 3.89 77.46 3.37Q77.94 2.85 78.59 2.57Q79.25 2.29 80.02 2.29L80.02 2.29Q80.80 2.29 81.45 2.57Q82.10 2.85 82.57 3.37Q83.04 3.89 83.30 4.62Q83.55 5.34 83.55 6.22ZM78.46 6.24L78.46 6.24Q78.46 7.25 78.82 7.87Q79.18 8.50 79.98 8.50L79.98 8.50Q80.75 8.50 81.14 7.87Q81.54 7.25 81.54 6.24L81.54 6.24Q81.54 5.23 81.18 4.62Q80.82 4 80.02 4L80.02 4Q79.25 4 78.86 4.62Q78.46 5.23 78.46 6.24ZM85.01 10L85.01 2.72Q85.54 2.58 86.31 2.45Q87.09 2.32 88 2.32L88 2.32Q88.90 2.32 89.49 2.57Q90.08 2.82 90.42 3.27Q90.77 3.73 90.91 4.36Q91.06 4.99 91.06 5.76L91.06 5.76L91.06 10L89.09 10L89.09 6.02Q89.09 4.96 88.85 4.50Q88.61 4.03 87.87 4.03L87.87 4.03Q87.65 4.03 87.43 4.05Q87.22 4.06 86.98 4.10L86.98 4.10L86.98 10L85.01 10ZM96.21 10L94.22 10L94.22 4.11L92.58 4.11L92.58 2.48L94.22 2.48L94.22 2.05Q94.22 1.14 94.49 0.54Q94.75-0.06 95.20-0.42Q95.65-0.78 96.22-0.94Q96.80-1.09 97.41-1.09L97.41-1.09Q98.03-1.09 98.69-0.98Q99.34-0.86 99.87-0.61L99.87-0.61L99.54 0.99Q99.17 0.86 98.62 0.73Q98.06 0.59 97.57 0.59L97.57 0.59Q97.30 0.59 97.05 0.64Q96.80 0.69 96.62 0.85Q96.43 1.01 96.32 1.30Q96.21 1.60 96.21 2.08L96.21 2.08L96.21 2.48L99.30 2.48L99.30 4.11L96.21 4.11L96.21 10ZM104.54 0.32L104.54 0.32Q104.54 0.90 104.18 1.23Q103.81 1.57 103.30 1.57L103.30 1.57Q102.78 1.57 102.42 1.23Q102.06 0.90 102.06 0.32L102.06 0.32Q102.06-0.27 102.42-0.61Q102.78-0.94 103.30-0.94L103.30-0.94Q103.81-0.94 104.18-0.61Q104.54-0.27 104.54 0.32ZM107.22 8.10L107.47 9.68Q106.86 9.97 106.33 10.07Q105.79 10.18 105.34 10.18L105.34 10.18Q104.58 10.18 104.06 9.95Q103.54 9.73 103.22 9.30Q102.91 8.88 102.78 8.27Q102.66 7.66 102.66 6.88L102.66 6.88L102.66 4.11L100.58 4.11L100.58 2.48L104.62 2.48L104.62 7.14Q104.62 7.81 104.87 8.14Q105.12 8.46 105.70 8.46L105.70 8.46Q105.97 8.46 106.35 8.39Q106.74 8.32 107.22 8.10L107.22 8.10ZM110.53 6L110.53 6Q110.53 6.93 110.86 7.42Q111.20 7.90 111.92 7.90L111.92 7.90Q112.24 7.90 112.52 7.82Q112.80 7.74 113.02 7.62L113.02 7.62L113.02 4Q112.80 3.95 112.62 3.94Q112.45 3.92 112.26 3.92L112.26 3.92Q110.53 3.92 110.53 6ZM115.01 2.72L115.01 9.09Q115.01 10.93 114.12 11.81Q113.23 12.69 111.26 12.69L111.26 12.69Q110.56 12.69 109.91 12.54Q109.26 12.40 108.67 12.21L108.67 12.21L109.04 10.54Q109.50 10.72 110.02 10.87Q110.53 11.02 111.30 11.02L111.30 11.02Q111.81 11.02 112.14 10.90Q112.48 10.78 112.67 10.58Q112.86 10.37 112.94 10.09Q113.02 9.81 113.02 9.49L113.02 9.49L113.02 9.18Q112.61 9.34 112.26 9.42Q111.92 9.50 111.52 9.50L111.52 9.50Q110.05 9.50 109.29 8.58Q108.53 7.65 108.53 6L108.53 6Q108.53 4.14 109.55 3.23Q110.58 2.32 112.34 2.32L112.34 2.32Q113.57 2.32 115.01 2.72L115.01 2.72Z"/>
    </g>
</svg>