<?xml version="1.0" encoding="UTF-8"?>
<svg height="322" width="187.2" version="1.1" xmlns="http://www.w3.org/2000/svg"><!--Created by Josélio de S. C. Júnior - 2021 - https://github.com/joseliojunior -->
    <rect
        height="32"
        width="185.2"
        rx="1"
        ry="1"
        x="1" y="1"
        fill="#483465"
        stroke="#9278ba"
        stroke-width="1" />
    <g transform="translate(0, 12)">
        <path fill="#9278ba" stroke="none" d="M27.10 12.31L27.10 12.31Q23.96 12.31 22.30 10.30Q20.65 8.28 20.65 4.56L20.65 4.56Q20.65 2.71 21.15 1.27Q21.66-0.17 22.56-1.16Q23.46-2.16 24.69-2.68Q25.93-3.19 27.39-3.19L27.39-3.19Q28.18-3.19 28.82-3.06Q29.46-2.93 29.94-2.76Q30.42-2.59 30.74-2.40Q31.06-2.21 31.23-2.11L31.23-2.11L30.46 0.24Q29.91-0.12 29.13-0.37Q28.35-0.62 27.34-0.62L27.34-0.62Q26.65-0.62 25.99-0.37Q25.33-0.12 24.81 0.47Q24.30 1.06 23.97 2.04Q23.65 3.02 23.65 4.49L23.65 4.49Q23.65 7.03 24.52 8.39Q25.40 9.74 27.39 9.74L27.39 9.74Q28.54 9.74 29.30 9.48Q30.06 9.22 30.51 8.95L30.51 8.95L31.26 11.28Q30.63 11.66 29.56 11.99Q28.50 12.31 27.10 12.31ZM38.02 9.89L38.02 9.89Q38.50 9.89 38.96 9.88Q39.42 9.86 39.75 9.82L39.75 9.82L39.75 7.22Q39.46 7.18 39.06 7.14Q38.65 7.10 38.31 7.10L38.31 7.10Q37.86 7.10 37.42 7.16Q36.99 7.22 36.67 7.37Q36.34 7.51 36.15 7.78Q35.96 8.04 35.96 8.47L35.96 8.47Q35.96 9.24 36.54 9.56Q37.11 9.89 38.02 9.89ZM37.76 0.43L37.76 0.43Q39.15 0.43 40.08 0.76Q41 1.08 41.55 1.67Q42.10 2.26 42.34 3.11Q42.58 3.96 42.58 5.02L42.58 5.02L42.58 11.74Q41.94 11.88 40.66 12.07Q39.39 12.26 37.81 12.26L37.81 12.26Q36.73 12.26 35.85 12.07Q34.98 11.88 34.35 11.44Q33.73 10.99 33.39 10.28Q33.06 9.58 33.06 8.54L33.06 8.54Q33.06 7.56 33.44 6.89Q33.82 6.22 34.47 5.81Q35.12 5.40 35.96 5.22Q36.80 5.04 37.71 5.04L37.71 5.04Q38.86 5.04 39.75 5.23L39.75 5.23L39.75 4.87Q39.75 4.03 39.22 3.47Q38.70 2.90 37.40 2.90L37.40 2.90Q36.56 2.90 35.78 3.02Q35 3.14 34.52 3.31L34.52 3.31L34.11 0.94Q34.66 0.74 35.67 0.59Q36.68 0.43 37.76 0.43ZM52.28 6.29L52.28 6.29Q52.28 4.70 51.76 3.86Q51.25 3.02 50.19 3.02L50.19 3.02Q49.71 3.02 49.24 3.16Q48.78 3.29 48.44 3.48L48.44 3.48L48.44 9.60Q48.78 9.67 49.15 9.70Q49.52 9.72 49.78 9.72L49.78 9.72Q50.94 9.72 51.61 8.94Q52.28 8.16 52.28 6.29ZM55.28 6.36L55.28 6.36Q55.28 7.70 54.92 8.80Q54.56 9.89 53.86 10.66Q53.17 11.42 52.16 11.84Q51.15 12.26 49.86 12.26L49.86 12.26Q48.70 12.26 47.50 12.10Q46.30 11.93 45.49 11.66L45.49 11.66L45.49-4.15L48.44-4.66L48.44 0.98Q49.06 0.70 49.64 0.59Q50.22 0.48 50.79 0.48L50.79 0.48Q51.90 0.48 52.74 0.90Q53.58 1.32 54.14 2.10Q54.70 2.88 54.99 3.96Q55.28 5.04 55.28 6.36ZM62.02 9.89L62.02 9.89Q62.50 9.89 62.96 9.88Q63.42 9.86 63.75 9.82L63.75 9.82L63.75 7.22Q63.46 7.18 63.06 7.14Q62.65 7.10 62.31 7.10L62.31 7.10Q61.86 7.10 61.42 7.16Q60.99 7.22 60.67 7.37Q60.34 7.51 60.15 7.78Q59.96 8.04 59.96 8.47L59.96 8.47Q59.96 9.24 60.54 9.56Q61.11 9.89 62.02 9.89ZM61.76 0.43L61.76 0.43Q63.15 0.43 64.08 0.76Q65 1.08 65.55 1.67Q66.10 2.26 66.34 3.11Q66.58 3.96 66.58 5.02L66.58 5.02L66.58 11.74Q65.94 11.88 64.66 12.07Q63.39 12.26 61.81 12.26L61.81 12.26Q60.73 12.26 59.85 12.07Q58.98 11.88 58.35 11.44Q57.73 10.99 57.39 10.28Q57.06 9.58 57.06 8.54L57.06 8.54Q57.06 7.56 57.44 6.89Q57.82 6.22 58.47 5.81Q59.12 5.40 59.96 5.22Q60.80 5.04 61.71 5.04L61.71 5.04Q62.86 5.04 63.75 5.23L63.75 5.23L63.75 4.87Q63.75 4.03 63.22 3.47Q62.70 2.90 61.40 2.90L61.40 2.90Q60.56 2.90 59.78 3.02Q59 3.14 58.52 3.31L58.52 3.31L58.11 0.94Q58.66 0.74 59.67 0.59Q60.68 0.43 61.76 0.43ZM78.82 9.14L79.21 11.52Q79.14 11.57 78.88 11.69Q78.63 11.81 78.22 11.94Q77.82 12.07 77.23 12.17Q76.64 12.26 75.90 12.26L75.90 12.26Q73.86 12.26 72.92 11.05Q71.98 9.84 71.98 7.51L71.98 7.51L71.98-2.06L68.86-2.06L68.86-4.51L74.94-4.51L74.94 7.73Q74.94 8.88 75.39 9.29Q75.85 9.70 76.54 9.70L76.54 9.70Q77.43 9.70 78.03 9.46Q78.63 9.22 78.82 9.14L78.82 9.14ZM99.10 12.31L99.10 12.31Q95.96 12.31 94.30 10.30Q92.65 8.28 92.65 4.56L92.65 4.56Q92.65 2.71 93.15 1.27Q93.66-0.17 94.56-1.16Q95.46-2.16 96.69-2.68Q97.93-3.19 99.39-3.19L99.39-3.19Q100.18-3.19 100.82-3.06Q101.46-2.93 101.94-2.76Q102.42-2.59 102.74-2.40Q103.06-2.21 103.23-2.11L103.23-2.11L102.46 0.24Q101.91-0.12 101.13-0.37Q100.35-0.62 99.34-0.62L99.34-0.62Q98.65-0.62 97.99-0.37Q97.33-0.12 96.81 0.47Q96.30 1.06 95.97 2.04Q95.65 3.02 95.65 4.49L95.65 4.49Q95.65 7.03 96.52 8.39Q97.40 9.74 99.39 9.74L99.39 9.74Q100.54 9.74 101.30 9.48Q102.06 9.22 102.51 8.95L102.51 8.95L103.26 11.28Q102.63 11.66 101.56 11.99Q100.50 12.31 99.10 12.31ZM115.33 6.34L115.33 6.34Q115.33 7.68 114.94 8.77Q114.56 9.86 113.86 10.66Q113.17 11.45 112.20 11.88Q111.22 12.31 110.02 12.31L110.02 12.31Q108.82 12.31 107.85 11.88Q106.88 11.45 106.17 10.66Q105.46 9.86 105.08 8.77Q104.70 7.68 104.70 6.34L104.70 6.34Q104.70 5.02 105.09 3.92Q105.49 2.83 106.20 2.05Q106.90 1.27 107.89 0.85Q108.87 0.43 110.02 0.43L110.02 0.43Q111.20 0.43 112.17 0.85Q113.14 1.27 113.85 2.05Q114.56 2.83 114.94 3.92Q115.33 5.02 115.33 6.34ZM107.70 6.36L107.70 6.36Q107.70 7.87 108.24 8.81Q108.78 9.74 109.98 9.74L109.98 9.74Q111.13 9.74 111.72 8.81Q112.30 7.87 112.30 6.36L112.30 6.36Q112.30 4.85 111.76 3.92Q111.22 3 110.02 3L110.02 3Q108.87 3 108.28 3.92Q107.70 4.85 107.70 6.36ZM117.51 12L117.51 1.08Q118.30 0.86 119.47 0.67Q120.63 0.48 122 0.48L122 0.48Q123.34 0.48 124.23 0.85Q125.12 1.22 125.64 1.91Q126.15 2.59 126.37 3.54Q126.58 4.49 126.58 5.64L126.58 5.64L126.58 12L123.63 12L123.63 6.02Q123.63 4.44 123.27 3.74Q122.91 3.05 121.81 3.05L121.81 3.05Q121.47 3.05 121.15 3.07Q120.82 3.10 120.46 3.14L120.46 3.14L120.46 12L117.51 12ZM134.31 12L131.34 12L131.34 3.17L128.86 3.17L128.86 0.72L131.34 0.72L131.34 0.07Q131.34-1.30 131.73-2.20Q132.13-3.10 132.80-3.64Q133.47-4.18 134.34-4.40Q135.20-4.63 136.11-4.63L136.11-4.63Q137.05-4.63 138.03-4.46Q139.02-4.30 139.81-3.91L139.81-3.91L139.30-1.51Q138.75-1.70 137.92-1.91Q137.10-2.11 136.35-2.11L136.35-2.11Q135.94-2.11 135.57-2.04Q135.20-1.97 134.92-1.73Q134.65-1.49 134.48-1.04Q134.31-0.60 134.31 0.12L134.31 0.12L134.31 0.72L138.94 0.72L138.94 3.17L134.31 3.17L134.31 12ZM146.82-2.52L146.82-2.52Q146.82-1.66 146.26-1.15Q145.71-0.65 144.94-0.65L144.94-0.65Q144.18-0.65 143.64-1.15Q143.10-1.66 143.10-2.52L143.10-2.52Q143.10-3.41 143.64-3.91Q144.18-4.42 144.94-4.42L144.94-4.42Q145.71-4.42 146.26-3.91Q146.82-3.41 146.82-2.52ZM150.82 9.14L151.21 11.52Q150.30 11.95 149.49 12.11Q148.69 12.26 148.02 12.26L148.02 12.26Q146.86 12.26 146.08 11.93Q145.30 11.59 144.84 10.96Q144.37 10.32 144.18 9.41Q143.98 8.50 143.98 7.32L143.98 7.32L143.98 3.17L140.86 3.17L140.86 0.72L146.94 0.72L146.94 7.70Q146.94 8.71 147.31 9.20Q147.68 9.70 148.54 9.70L148.54 9.70Q148.95 9.70 149.53 9.59Q150.10 9.48 150.82 9.14L150.82 9.14ZM155.79 6L155.79 6Q155.79 7.39 156.30 8.12Q156.80 8.86 157.88 8.86L157.88 8.86Q158.36 8.86 158.78 8.74Q159.20 8.62 159.54 8.42L159.54 8.42L159.54 3Q159.20 2.93 158.94 2.90Q158.67 2.88 158.38 2.88L158.38 2.88Q155.79 2.88 155.79 6ZM162.51 1.08L162.51 10.63Q162.51 13.39 161.18 14.71Q159.85 16.03 156.90 16.03L156.90 16.03Q155.84 16.03 154.87 15.82Q153.90 15.60 153.01 15.31L153.01 15.31L153.56 12.82Q154.26 13.08 155.02 13.31Q155.79 13.54 156.94 13.54L156.94 13.54Q157.71 13.54 158.22 13.36Q158.72 13.18 159.01 12.86Q159.30 12.55 159.42 12.13Q159.54 11.71 159.54 11.23L159.54 11.23L159.54 10.78Q158.91 11.02 158.40 11.14Q157.88 11.26 157.28 11.26L157.28 11.26Q155.07 11.26 153.93 9.86Q152.79 8.47 152.79 6L152.79 6Q152.79 3.22 154.33 1.85Q155.86 0.48 158.50 0.48L158.50 0.48Q160.35 0.48 162.51 1.08L162.51 1.08Z"/>
    </g>
</svg>