<?xml version="1.0" encoding="UTF-8"?>
<svg height="34" width="191.2" version="1.1" xmlns="http://www.w3.org/2000/svg">
    <rect
        height="32"
        width="189.2"
        rx="1"
        ry="1"
        x="1"
        y="1"
        fill="#483465"
        stroke="#9278ba"
        stroke-width="1"
         />
    <g transform="translate(0, 14)">
        <path fill="#9278ba" d="M18.29 11.36L18.29 11.36Q14.62 11.36 12.69 9.01Q10.76 6.66 10.76 2.32L10.76 2.32Q10.76 0.16 11.34-1.52Q11.93-3.20 12.98-4.36Q14.03-5.52 15.47-6.12Q16.92-6.72 18.62-6.72L18.62-6.72Q19.55-6.72 20.29-6.57Q21.03-6.42 21.59-6.22Q22.15-6.02 22.53-5.80Q22.91-5.58 23.10-5.46L23.10-5.46L22.21-2.72Q21.56-3.14 20.65-3.43Q19.74-3.73 18.57-3.73L18.57-3.73Q17.76-3.73 16.99-3.43Q16.22-3.14 15.61-2.45Q15.01-1.77 14.63-0.62Q14.26 0.53 14.26 2.24L14.26 2.24Q14.26 5.20 15.28 6.79Q16.30 8.37 18.62 8.37L18.62 8.37Q19.97 8.37 20.85 8.06Q21.73 7.75 22.26 7.44L22.26 7.44L23.13 10.16Q22.40 10.61 21.16 10.99Q19.91 11.36 18.29 11.36ZM31.03 8.54L31.03 8.54Q31.59 8.54 32.12 8.52Q32.65 8.51 33.04 8.45L33.04 8.45L33.04 5.43Q32.71 5.37 32.23 5.33Q31.76 5.29 31.36 5.29L31.36 5.29Q30.83 5.29 30.33 5.36Q29.82 5.43 29.45 5.60Q29.07 5.76 28.84 6.07Q28.62 6.38 28.62 6.88L28.62 6.88Q28.62 7.78 29.29 8.16Q29.96 8.54 31.03 8.54ZM30.72-2.50L30.72-2.50Q32.34-2.50 33.42-2.12Q34.50-1.74 35.14-1.05Q35.79-0.37 36.07 0.63Q36.35 1.62 36.35 2.85L36.35 2.85L36.35 10.69Q35.59 10.86 34.11 11.08Q32.62 11.31 30.78 11.31L30.78 11.31Q29.52 11.31 28.49 11.08Q27.47 10.86 26.74 10.34Q26.02 9.82 25.62 9.00Q25.23 8.17 25.23 6.97L25.23 6.97Q25.23 5.82 25.68 5.04Q26.13 4.25 26.88 3.78Q27.64 3.30 28.62 3.09Q29.60 2.88 30.66 2.88L30.66 2.88Q32.01 2.88 33.04 3.10L33.04 3.10L33.04 2.68Q33.04 1.70 32.43 1.05Q31.81 0.39 30.30 0.39L30.30 0.39Q29.32 0.39 28.41 0.53Q27.50 0.67 26.94 0.86L26.94 0.86L26.46-1.91Q27.11-2.13 28.28-2.31Q29.46-2.50 30.72-2.50ZM47.66 4.34L47.66 4.34Q47.66 2.49 47.06 1.51Q46.46 0.53 45.22 0.53L45.22 0.53Q44.66 0.53 44.12 0.68Q43.57 0.84 43.18 1.06L43.18 1.06L43.18 8.20Q43.57 8.28 44.01 8.31Q44.44 8.34 44.75 8.34L44.75 8.34Q46.09 8.34 46.88 7.43Q47.66 6.52 47.66 4.34ZM51.16 4.42L51.16 4.42Q51.16 5.99 50.74 7.26Q50.32 8.54 49.51 9.43Q48.70 10.33 47.52 10.82Q46.34 11.31 44.83 11.31L44.83 11.31Q43.49 11.31 42.09 11.11Q40.69 10.92 39.74 10.61L39.74 10.61L39.74-7.84L43.18-8.43L43.18-1.85Q43.91-2.19 44.58-2.31Q45.25-2.44 45.92-2.44L45.92-2.44Q47.21-2.44 48.19-1.95Q49.17-1.46 49.83-0.55Q50.49 0.36 50.82 1.62Q51.16 2.88 51.16 4.42ZM59.03 8.54L59.03 8.54Q59.59 8.54 60.12 8.52Q60.65 8.51 61.04 8.45L61.04 8.45L61.04 5.43Q60.71 5.37 60.23 5.33Q59.76 5.29 59.36 5.29L59.36 5.29Q58.83 5.29 58.33 5.36Q57.82 5.43 57.45 5.60Q57.07 5.76 56.84 6.07Q56.62 6.38 56.62 6.88L56.62 6.88Q56.62 7.78 57.29 8.16Q57.96 8.54 59.03 8.54ZM58.72-2.50L58.72-2.50Q60.34-2.50 61.42-2.12Q62.50-1.74 63.14-1.05Q63.79-0.37 64.07 0.63Q64.35 1.62 64.35 2.85L64.35 2.85L64.35 10.69Q63.59 10.86 62.11 11.08Q60.62 11.31 58.78 11.31L58.78 11.31Q57.52 11.31 56.49 11.08Q55.47 10.86 54.74 10.34Q54.02 9.82 53.62 9.00Q53.23 8.17 53.23 6.97L53.23 6.97Q53.23 5.82 53.68 5.04Q54.13 4.25 54.88 3.78Q55.64 3.30 56.62 3.09Q57.60 2.88 58.66 2.88L58.66 2.88Q60.01 2.88 61.04 3.10L61.04 3.10L61.04 2.68Q61.04 1.70 60.43 1.05Q59.81 0.39 58.30 0.39L58.30 0.39Q57.32 0.39 56.41 0.53Q55.50 0.67 54.94 0.86L54.94 0.86L54.46-1.91Q55.11-2.13 56.28-2.31Q57.46-2.50 58.72-2.50ZM78.63 7.67L79.08 10.44Q78.99 10.50 78.70 10.64Q78.40 10.78 77.93 10.93Q77.45 11.08 76.77 11.20Q76.08 11.31 75.21 11.31L75.21 11.31Q72.83 11.31 71.74 9.89Q70.65 8.48 70.65 5.76L70.65 5.76L70.65-5.41L67.01-5.41L67.01-8.26L74.09-8.26L74.09 6.02Q74.09 7.36 74.62 7.84Q75.16 8.31 75.97 8.31L75.97 8.31Q77.00 8.31 77.70 8.03Q78.40 7.75 78.63 7.67L78.63 7.67ZM102.29 11.36L102.29 11.36Q98.62 11.36 96.69 9.01Q94.76 6.66 94.76 2.32L94.76 2.32Q94.76 0.16 95.34-1.52Q95.93-3.20 96.98-4.36Q98.03-5.52 99.47-6.12Q100.92-6.72 102.62-6.72L102.62-6.72Q103.55-6.72 104.29-6.57Q105.03-6.42 105.59-6.22Q106.15-6.02 106.53-5.80Q106.91-5.58 107.10-5.46L107.10-5.46L106.21-2.72Q105.56-3.14 104.65-3.43Q103.74-3.73 102.57-3.73L102.57-3.73Q101.76-3.73 100.99-3.43Q100.22-3.14 99.61-2.45Q99.01-1.77 98.63-0.62Q98.26 0.53 98.26 2.24L98.26 2.24Q98.26 5.20 99.28 6.79Q100.30 8.37 102.62 8.37L102.62 8.37Q103.97 8.37 104.85 8.06Q105.73 7.75 106.26 7.44L106.26 7.44L107.13 10.16Q106.40 10.61 105.16 10.99Q103.91 11.36 102.29 11.36ZM121.22 4.39L121.22 4.39Q121.22 5.96 120.77 7.23Q120.32 8.51 119.51 9.43Q118.70 10.36 117.56 10.86Q116.43 11.36 115.03 11.36L115.03 11.36Q113.63 11.36 112.49 10.86Q111.36 10.36 110.53 9.43Q109.71 8.51 109.26 7.23Q108.81 5.96 108.81 4.39L108.81 4.39Q108.81 2.85 109.27 1.58Q109.74 0.30 110.56-0.61Q111.39-1.52 112.54-2.01Q113.68-2.50 115.03-2.50L115.03-2.50Q116.40-2.50 117.53-2.01Q118.67-1.52 119.49-0.61Q120.32 0.30 120.77 1.58Q121.22 2.85 121.22 4.39ZM112.31 4.42L112.31 4.42Q112.31 6.18 112.94 7.28Q113.57 8.37 114.97 8.37L114.97 8.37Q116.32 8.37 117.00 7.28Q117.69 6.18 117.69 4.42L117.69 4.42Q117.69 2.66 117.06 1.58Q116.43 0.50 115.03 0.50L115.03 0.50Q113.68 0.50 113.00 1.58Q112.31 2.66 112.31 4.42ZM123.76 11L123.76-1.74Q124.69-1.99 126.05-2.22Q127.40-2.44 129-2.44L129-2.44Q130.57-2.44 131.60-2.01Q132.64-1.57 133.24-0.77Q133.84 0.02 134.10 1.13Q134.35 2.24 134.35 3.58L134.35 3.58L134.35 11L130.90 11L130.90 4.03Q130.90 2.18 130.48 1.37Q130.06 0.56 128.78 0.56L128.78 0.56Q128.38 0.56 128.01 0.58Q127.63 0.61 127.21 0.67L127.21 0.67L127.21 11L123.76 11ZM143.36 11L139.89 11L139.89 0.70L137.01 0.70L137.01-2.16L139.89-2.16L139.89-2.92Q139.89-4.51 140.35-5.56Q140.82-6.61 141.60-7.24Q142.38-7.87 143.39-8.14Q144.40-8.40 145.46-8.40L145.46-8.40Q146.56-8.40 147.70-8.21Q148.85-8.01 149.78-7.56L149.78-7.56L149.19-4.76Q148.54-4.99 147.58-5.23Q146.61-5.46 145.74-5.46L145.74-5.46Q145.27-5.46 144.83-5.38Q144.40-5.30 144.08-5.02Q143.76-4.74 143.56-4.22Q143.36-3.70 143.36-2.86L143.36-2.86L143.36-2.16L148.77-2.16L148.77 0.70L143.36 0.70L143.36 11ZM157.95-5.94L157.95-5.94Q157.95-4.93 157.31-4.34Q156.66-3.76 155.77-3.76L155.77-3.76Q154.87-3.76 154.24-4.34Q153.61-4.93 153.61-5.94L153.61-5.94Q153.61-6.98 154.24-7.56Q154.87-8.15 155.77-8.15L155.77-8.15Q156.66-8.15 157.31-7.56Q157.95-6.98 157.95-5.94ZM162.63 7.67L163.08 10.44Q162.01 10.94 161.07 11.13Q160.14 11.31 159.35 11.31L159.35 11.31Q158.01 11.31 157.10 10.92Q156.19 10.52 155.64 9.78Q155.10 9.04 154.87 7.98Q154.65 6.91 154.65 5.54L154.65 5.54L154.65 0.70L151.01 0.70L151.01-2.16L158.09-2.16L158.09 5.99Q158.09 7.16 158.53 7.74Q158.96 8.31 159.97 8.31L159.97 8.31Q160.44 8.31 161.12 8.19Q161.79 8.06 162.63 7.67L162.63 7.67ZM168.42 4L168.42 4Q168.42 5.62 169.01 6.48Q169.60 7.33 170.86 7.33L170.86 7.33Q171.42 7.33 171.91 7.19Q172.40 7.05 172.79 6.83L172.79 6.83L172.79 0.50Q172.40 0.42 172.09 0.39Q171.78 0.36 171.45 0.36L171.45 0.36Q168.42 0.36 168.42 4ZM176.26-1.74L176.26 9.40Q176.26 12.62 174.71 14.16Q173.16 15.70 169.71 15.70L169.71 15.70Q168.48 15.70 167.35 15.45Q166.21 15.20 165.18 14.86L165.18 14.86L165.82 11.95Q166.63 12.26 167.53 12.53Q168.42 12.79 169.77 12.79L169.77 12.79Q170.66 12.79 171.25 12.58Q171.84 12.37 172.18 12.01Q172.51 11.64 172.65 11.15Q172.79 10.66 172.79 10.10L172.79 10.10L172.79 9.57Q172.06 9.85 171.46 9.99Q170.86 10.13 170.16 10.13L170.16 10.13Q167.58 10.13 166.25 8.51Q164.92 6.88 164.92 4L164.92 4Q164.92 0.75 166.72-0.84Q168.51-2.44 171.59-2.44L171.59-2.44Q173.74-2.44 176.26-1.74L176.26-1.74Z"/>
    </g>
</svg>