<?xml version="1.0" encoding="UTF-8"?>
<svg height="322" width="102.5" version="1.1" xmlns="http://www.w3.org/2000/svg"><!--Created by Josélio de S. C. Júnior - 2021 - https://github.com/joseliojunior -->
    <rect
        height="32"
        width="100.5"
        rx="16"
        ry="16"
        x="1" y="1"
        fill="#ccccff"
        stroke="#000099"
        stroke-width="1" />
    <g transform="translate(0, 12)">
        <path fill="#000099" stroke="none" d="M27.10 12.31L27.10 12.31Q23.96 12.31 22.30 10.30Q20.65 8.28 20.65 4.56L20.65 4.56Q20.65 2.71 21.15 1.27Q21.66-0.17 22.56-1.16Q23.46-2.16 24.69-2.68Q25.93-3.19 27.39-3.19L27.39-3.19Q28.18-3.19 28.82-3.06Q29.46-2.93 29.94-2.76Q30.42-2.59 30.74-2.40Q31.06-2.21 31.23-2.11L31.23-2.11L30.46 0.24Q29.91-0.12 29.13-0.37Q28.35-0.62 27.34-0.62L27.34-0.62Q26.65-0.62 25.99-0.37Q25.33-0.12 24.81 0.47Q24.30 1.06 23.97 2.04Q23.65 3.02 23.65 4.49L23.65 4.49Q23.65 7.03 24.52 8.39Q25.40 9.74 27.39 9.74L27.39 9.74Q28.54 9.74 29.30 9.48Q30.06 9.22 30.51 8.95L30.51 8.95L31.26 11.28Q30.63 11.66 29.56 11.99Q28.50 12.31 27.10 12.31ZM38.82-2.52L38.82-2.52Q38.82-1.66 38.26-1.15Q37.71-0.65 36.94-0.65L36.94-0.65Q36.18-0.65 35.64-1.15Q35.10-1.66 35.10-2.52L35.10-2.52Q35.10-3.41 35.64-3.91Q36.18-4.42 36.94-4.42L36.94-4.42Q37.71-4.42 38.26-3.91Q38.82-3.41 38.82-2.52ZM42.82 9.14L43.21 11.52Q42.30 11.95 41.49 12.11Q40.69 12.26 40.02 12.26L40.02 12.26Q38.86 12.26 38.08 11.93Q37.30 11.59 36.84 10.96Q36.37 10.32 36.18 9.41Q35.98 8.50 35.98 7.32L35.98 7.32L35.98 3.17L32.86 3.17L32.86 0.72L38.94 0.72L38.94 7.70Q38.94 8.71 39.31 9.20Q39.68 9.70 40.54 9.70L40.54 9.70Q40.95 9.70 41.53 9.59Q42.10 9.48 42.82 9.14L42.82 9.14ZM55.02 0.98L54.49 3.72Q54.20 3.65 53.80 3.58Q53.41 3.50 53 3.44Q52.59 3.38 52.21 3.36Q51.82 3.34 51.56 3.34L51.56 3.34Q50.94 3.34 50.34 3.40Q49.74 3.46 49.11 3.62L49.11 3.62L49.11 12L46.14 12L46.14 1.46Q47.31 1.03 48.55 0.77Q49.78 0.50 51.44 0.50L51.44 0.50Q51.68 0.50 52.12 0.53Q52.57 0.55 53.07 0.61Q53.58 0.67 54.09 0.76Q54.61 0.84 55.02 0.98L55.02 0.98ZM67.02 0.98L66.49 3.72Q66.20 3.65 65.80 3.58Q65.41 3.50 65 3.44Q64.59 3.38 64.21 3.36Q63.82 3.34 63.56 3.34L63.56 3.34Q62.94 3.34 62.34 3.40Q61.74 3.46 61.11 3.62L61.11 3.62L61.11 12L58.14 12L58.14 1.46Q59.31 1.03 60.55 0.77Q61.78 0.50 63.44 0.50L63.44 0.50Q63.68 0.50 64.12 0.53Q64.57 0.55 65.07 0.61Q65.58 0.67 66.09 0.76Q66.61 0.84 67.02 0.98L67.02 0.98ZM78.51 0.72L78.51 11.62Q77.70 11.83 76.53 12.05Q75.37 12.26 74 12.26L74 12.26Q72.61 12.26 71.72 11.88Q70.83 11.50 70.32 10.79Q69.80 10.08 69.61 9.12Q69.42 8.16 69.42 7.01L69.42 7.01L69.42 0.72L72.37 0.72L72.37 6.62Q72.37 8.18 72.74 8.94Q73.11 9.70 74.19 9.70L74.19 9.70Q74.86 9.70 75.54 9.58L75.54 9.58L75.54 0.72L78.51 0.72Z"/>
    </g>
</svg>