<?xml version="1.0" encoding="UTF-8"?>
<svg height="26" width="317.4" version="1.1" xmlns="http://www.w3.org/2000/svg"><!--Created by Josélio de S. C. Júnior - 2021 - https://github.com/joseliojunior -->
    <defs>
        <pattern id="pattern"
                x="1.5" y="3" width="3" height="6"
                patternUnits="userSpaceOnUse"
                patternTransform="rotate(45)" >
            <rect height="6" width="1" fill="#999999"/>
        </pattern>
    </defs>
    <rect
        height="24"
        width="315.4"
        rx="12"
        ry="12"
        x="1" y="1"
        fill="url(#pattern)"
        stroke="#000000"
        stroke-width="1" />
    <g transform="translate(0, 8)">
        <path fill="#ffffff" stroke="#000000" d="M20.94 0.10L22.58 0.10Q22.69 0.43 22.86 0.96Q23.02 1.49 23.22 2.10Q23.41 2.70 23.60 3.33Q23.79 3.95 23.97 4.48L23.97 4.48Q24.16 3.89 24.37 3.26Q24.58 2.62 24.77 2.04Q24.96 1.46 25.12 0.94Q25.28 0.43 25.41 0.10L25.41 0.10L27.04 0.10Q27.15 1.39 27.26 2.62Q27.36 3.86 27.43 5.06Q27.50 6.27 27.55 7.50Q27.60 8.72 27.63 10L27.63 10L25.82 10L25.92 2.30L24.70 6.50L23.26 6.50L22.10 2.30L22.18 10L20.37 10Q20.42 8.78 20.47 7.47Q20.53 6.16 20.59 4.86Q20.66 3.57 20.74 2.35Q20.83 1.14 20.94 0.10L20.94 0.10ZM32.54 0.32L32.54 0.32Q32.54 0.90 32.18 1.23Q31.81 1.57 31.30 1.57L31.30 1.57Q30.78 1.57 30.42 1.23Q30.06 0.90 30.06 0.32L30.06 0.32Q30.06-0.27 30.42-0.61Q30.78-0.94 31.30-0.94L31.30-0.94Q31.81-0.94 32.18-0.61Q32.54-0.27 32.54 0.32ZM35.22 8.10L35.47 9.68Q34.86 9.97 34.33 10.07Q33.79 10.18 33.34 10.18L33.34 10.18Q32.58 10.18 32.06 9.95Q31.54 9.73 31.22 9.30Q30.91 8.88 30.78 8.27Q30.66 7.66 30.66 6.88L30.66 6.88L30.66 4.11L28.58 4.11L28.58 2.48L32.62 2.48L32.62 7.14Q32.62 7.81 32.87 8.14Q33.12 8.46 33.70 8.46L33.70 8.46Q33.97 8.46 34.35 8.39Q34.74 8.32 35.22 8.10L35.22 8.10ZM36.70 6.24L36.70 6.24Q36.70 5.42 36.96 4.70Q37.22 3.98 37.74 3.45Q38.27 2.91 39.08 2.60Q39.89 2.29 41.01 2.29L41.01 2.29Q41.68 2.29 42.22 2.38Q42.77 2.48 43.33 2.70L43.33 2.70L42.90 4.29Q42.58 4.18 42.18 4.09Q41.79 4 41.18 4L41.18 4Q40.48 4 40.01 4.17Q39.54 4.34 39.25 4.63Q38.96 4.93 38.83 5.34Q38.70 5.76 38.70 6.24L38.70 6.24Q38.70 7.28 39.29 7.87Q39.87 8.46 41.28 8.46L41.28 8.46Q41.74 8.46 42.25 8.40Q42.75 8.34 43.17 8.19L43.17 8.19L43.46 9.81Q43.04 9.97 42.45 10.07Q41.86 10.18 41.06 10.18L41.06 10.18Q39.90 10.18 39.08 9.87Q38.26 9.57 37.73 9.04Q37.20 8.51 36.95 7.79Q36.70 7.07 36.70 6.24ZM51.34 2.66L50.99 4.48Q50.80 4.43 50.54 4.38Q50.27 4.34 50 4.30Q49.73 4.26 49.47 4.24Q49.22 4.22 49.04 4.22L49.04 4.22Q48.62 4.22 48.22 4.26Q47.82 4.30 47.41 4.42L47.41 4.42L47.41 10L45.42 10L45.42 2.98Q46.21 2.69 47.03 2.51Q47.86 2.34 48.96 2.34L48.96 2.34Q49.12 2.34 49.42 2.35Q49.71 2.37 50.05 2.41Q50.38 2.45 50.73 2.50Q51.07 2.56 51.34 2.66L51.34 2.66ZM59.55 6.22L59.55 6.22Q59.55 7.12 59.30 7.85Q59.04 8.58 58.58 9.10Q58.11 9.63 57.46 9.92Q56.82 10.21 56.02 10.21L56.02 10.21Q55.22 10.21 54.57 9.92Q53.92 9.63 53.45 9.10Q52.98 8.58 52.72 7.85Q52.46 7.12 52.46 6.22L52.46 6.22Q52.46 5.34 52.73 4.62Q52.99 3.89 53.46 3.37Q53.94 2.85 54.59 2.57Q55.25 2.29 56.02 2.29L56.02 2.29Q56.80 2.29 57.45 2.57Q58.10 2.85 58.57 3.37Q59.04 3.89 59.30 4.62Q59.55 5.34 59.55 6.22ZM54.46 6.24L54.46 6.24Q54.46 7.25 54.82 7.87Q55.18 8.50 55.98 8.50L55.98 8.50Q56.75 8.50 57.14 7.87Q57.54 7.25 57.54 6.24L57.54 6.24Q57.54 5.23 57.18 4.62Q56.82 4 56.02 4L56.02 4Q55.25 4 54.86 4.62Q54.46 5.23 54.46 6.24ZM63.65 8.51L63.65 8.51Q64.37 8.51 64.75 8.41Q65.14 8.30 65.14 7.98L65.14 7.98Q65.14 7.78 65.02 7.63Q64.90 7.49 64.68 7.38Q64.46 7.28 64.18 7.18Q63.90 7.09 63.60 6.99L63.60 6.99Q63.17 6.86 62.72 6.70Q62.27 6.53 61.90 6.27Q61.54 6.02 61.30 5.62Q61.06 5.23 61.06 4.64L61.06 4.64Q61.06 4.16 61.24 3.74Q61.42 3.31 61.82 2.98Q62.21 2.66 62.82 2.47Q63.42 2.29 64.27 2.29L64.27 2.29Q65.01 2.29 65.64 2.40Q66.27 2.51 66.74 2.72L66.74 2.72L66.43 4.38Q66.16 4.30 65.58 4.12Q65.01 3.94 64.29 3.94L64.29 3.94Q63.54 3.94 63.27 4.12Q63.01 4.30 63.01 4.51L63.01 4.51Q63.01 4.69 63.13 4.82Q63.25 4.96 63.45 5.07Q63.65 5.18 63.91 5.29Q64.18 5.39 64.48 5.49L64.48 5.49Q64.91 5.63 65.38 5.81Q65.84 5.98 66.22 6.25Q66.59 6.51 66.83 6.92Q67.07 7.33 67.07 7.92L67.07 7.92Q67.07 8.38 66.90 8.80Q66.72 9.22 66.31 9.52Q65.90 9.82 65.25 10Q64.59 10.18 63.63 10.18L63.63 10.18Q62.66 10.18 61.97 9.95Q61.28 9.73 60.86 9.55L60.86 9.55L61.17 7.90Q61.73 8.13 62.36 8.32Q62.99 8.51 63.65 8.51ZM75.55 6.22L75.55 6.22Q75.55 7.12 75.30 7.85Q75.04 8.58 74.58 9.10Q74.11 9.63 73.46 9.92Q72.82 10.21 72.02 10.21L72.02 10.21Q71.22 10.21 70.57 9.92Q69.92 9.63 69.45 9.10Q68.98 8.58 68.72 7.85Q68.46 7.12 68.46 6.22L68.46 6.22Q68.46 5.34 68.73 4.62Q68.99 3.89 69.46 3.37Q69.94 2.85 70.59 2.57Q71.25 2.29 72.02 2.29L72.02 2.29Q72.80 2.29 73.45 2.57Q74.10 2.85 74.57 3.37Q75.04 3.89 75.30 4.62Q75.55 5.34 75.55 6.22ZM70.46 6.24L70.46 6.24Q70.46 7.25 70.82 7.87Q71.18 8.50 71.98 8.50L71.98 8.50Q72.75 8.50 73.14 7.87Q73.54 7.25 73.54 6.24L73.54 6.24Q73.54 5.23 73.18 4.62Q72.82 4 72.02 4L72.02 4Q71.25 4 70.86 4.62Q70.46 5.23 70.46 6.24ZM80.21 10L78.22 10L78.22 4.11L76.58 4.11L76.58 2.48L78.22 2.48L78.22 2.05Q78.22 1.14 78.49 0.54Q78.75-0.06 79.20-0.42Q79.65-0.78 80.22-0.94Q80.80-1.09 81.41-1.09L81.41-1.09Q82.03-1.09 82.69-0.98Q83.34-0.86 83.87-0.61L83.87-0.61L83.54 0.99Q83.17 0.86 82.62 0.73Q82.06 0.59 81.57 0.59L81.57 0.59Q81.30 0.59 81.05 0.64Q80.80 0.69 80.62 0.85Q80.43 1.01 80.32 1.30Q80.21 1.60 80.21 2.08L80.21 2.08L80.21 2.48L83.30 2.48L83.30 4.11L80.21 4.11L80.21 10ZM86.29 7.20L86.29 4.11L84.58 4.11L84.58 2.48L86.29 2.48L86.29 0.59L88.26 0.27L88.26 2.48L91.41 2.48L91.41 4.11L88.26 4.11L88.26 7.15Q88.26 7.57 88.34 7.82Q88.42 8.08 88.56 8.22Q88.70 8.37 88.91 8.42Q89.12 8.46 89.38 8.46L89.38 8.46Q89.65 8.46 89.88 8.45Q90.11 8.43 90.33 8.39Q90.54 8.35 90.78 8.27Q91.01 8.19 91.28 8.06L91.28 8.06L91.55 9.76Q91.01 9.98 90.38 10.08Q89.74 10.18 89.15 10.18L89.15 10.18Q88.46 10.18 87.94 10.06Q87.41 9.95 87.04 9.63Q86.67 9.31 86.48 8.73Q86.29 8.14 86.29 7.20L86.29 7.20ZM102.83 1.74L102.83 8.40Q102.91 8.42 103.01 8.42Q103.10 8.42 103.18 8.42L103.18 8.42Q103.86 8.42 104.31 8.16Q104.77 7.90 105.05 7.46Q105.33 7.01 105.45 6.39Q105.57 5.78 105.57 5.04L105.57 5.04Q105.57 4.40 105.47 3.79Q105.38 3.18 105.14 2.72Q104.90 2.26 104.48 1.98Q104.06 1.70 103.41 1.70L103.41 1.70Q103.28 1.70 103.12 1.70Q102.96 1.71 102.83 1.74L102.83 1.74ZM107.57 5.04L107.57 5.04Q107.57 6.42 107.22 7.38Q106.88 8.35 106.27 8.96Q105.66 9.57 104.82 9.85Q103.98 10.13 102.98 10.13L102.98 10.13Q102.45 10.13 101.94 10.07Q101.44 10.02 100.86 9.89L100.86 9.89L100.86 0.22Q101.54 0.08 102.13 0.03Q102.72-0.02 103.23-0.02L103.23-0.02Q104.21-0.02 105.02 0.27Q105.82 0.56 106.38 1.18Q106.94 1.79 107.26 2.74Q107.57 3.70 107.57 5.04ZM108.50 6.30L108.50 6.30Q108.50 5.31 108.80 4.56Q109.10 3.81 109.60 3.30Q110.10 2.80 110.74 2.54Q111.38 2.29 112.05 2.29L112.05 2.29Q113.71 2.29 114.58 3.27Q115.44 4.26 115.44 6.14L115.44 6.14Q115.44 6.34 115.43 6.54Q115.42 6.75 115.41 6.88L115.41 6.88L110.53 6.88Q110.53 7.62 111.14 8.04Q111.74 8.46 112.70 8.46L112.70 8.46Q113.30 8.46 113.83 8.34Q114.37 8.21 114.74 8.08L114.74 8.08L115.01 9.76Q114.50 9.94 113.92 10.06Q113.34 10.18 112.62 10.18L112.62 10.18Q111.66 10.18 110.90 9.93Q110.14 9.68 109.61 9.19Q109.07 8.70 108.78 7.98Q108.50 7.26 108.50 6.30ZM110.53 5.52L113.54 5.52Q113.54 5.22 113.46 4.94Q113.38 4.66 113.20 4.43Q113.02 4.21 112.75 4.07Q112.48 3.94 112.08 3.94L112.08 3.94Q111.70 3.94 111.42 4.06Q111.14 4.19 110.95 4.42Q110.77 4.64 110.66 4.93Q110.56 5.22 110.53 5.52L110.53 5.52ZM120.75 10L119.10 10Q118.38 8.58 117.64 6.66Q116.90 4.75 116.22 2.48L116.22 2.48L118.29 2.48Q118.43 3.09 118.63 3.78Q118.83 4.46 119.06 5.16Q119.28 5.86 119.51 6.51Q119.74 7.17 119.95 7.71L119.95 7.71Q120.16 7.17 120.42 6.51Q120.67 5.86 120.92 5.16Q121.17 4.46 121.40 3.78Q121.63 3.09 121.78 2.48L121.78 2.48L123.78 2.48Q123.10 4.75 122.29 6.66Q121.47 8.58 120.75 10L120.75 10ZM124.50 6.30L124.50 6.30Q124.50 5.31 124.80 4.56Q125.10 3.81 125.60 3.30Q126.10 2.80 126.74 2.54Q127.38 2.29 128.05 2.29L128.05 2.29Q129.71 2.29 130.58 3.27Q131.44 4.26 131.44 6.14L131.44 6.14Q131.44 6.34 131.43 6.54Q131.42 6.75 131.41 6.88L131.41 6.88L126.53 6.88Q126.53 7.62 127.14 8.04Q127.74 8.46 128.70 8.46L128.70 8.46Q129.30 8.46 129.83 8.34Q130.37 8.21 130.74 8.08L130.74 8.08L131.01 9.76Q130.50 9.94 129.92 10.06Q129.34 10.18 128.62 10.18L128.62 10.18Q127.66 10.18 126.90 9.93Q126.14 9.68 125.61 9.19Q125.07 8.70 124.78 7.98Q124.50 7.26 124.50 6.30ZM126.53 5.52L129.54 5.52Q129.54 5.22 129.46 4.94Q129.38 4.66 129.20 4.43Q129.02 4.21 128.75 4.07Q128.48 3.94 128.08 3.94L128.08 3.94Q127.70 3.94 127.42 4.06Q127.14 4.19 126.95 4.42Q126.77 4.64 126.66 4.93Q126.56 5.22 126.53 5.52L126.53 5.52ZM139.22 8.10L139.47 9.68Q139.42 9.71 139.26 9.79Q139.09 9.87 138.82 9.96Q138.54 10.05 138.15 10.11Q137.76 10.18 137.26 10.18L137.26 10.18Q135.90 10.18 135.28 9.37Q134.66 8.56 134.66 7.01L134.66 7.01L134.66 0.62L132.58 0.62L132.58-1.01L136.62-1.01L136.62 7.15Q136.62 7.92 136.93 8.19Q137.23 8.46 137.70 8.46L137.70 8.46Q138.29 8.46 138.69 8.30Q139.09 8.14 139.22 8.10L139.22 8.10ZM147.55 6.22L147.55 6.22Q147.55 7.12 147.30 7.85Q147.04 8.58 146.58 9.10Q146.11 9.63 145.46 9.92Q144.82 10.21 144.02 10.21L144.02 10.21Q143.22 10.21 142.57 9.92Q141.92 9.63 141.45 9.10Q140.98 8.58 140.72 7.85Q140.46 7.12 140.46 6.22L140.46 6.22Q140.46 5.34 140.73 4.62Q140.99 3.89 141.46 3.37Q141.94 2.85 142.59 2.57Q143.25 2.29 144.02 2.29L144.02 2.29Q144.80 2.29 145.45 2.57Q146.10 2.85 146.57 3.37Q147.04 3.89 147.30 4.62Q147.55 5.34 147.55 6.22ZM142.46 6.24L142.46 6.24Q142.46 7.25 142.82 7.87Q143.18 8.50 143.98 8.50L143.98 8.50Q144.75 8.50 145.14 7.87Q145.54 7.25 145.54 6.24L145.54 6.24Q145.54 5.23 145.18 4.62Q144.82 4 144.02 4L144.02 4Q143.25 4 142.86 4.62Q142.46 5.23 142.46 6.24ZM153.50 6.30L153.50 6.30Q153.50 5.30 153.10 4.65Q152.70 4 151.89 4L151.89 4Q151.66 4 151.41 4.02Q151.15 4.05 150.98 4.06L150.98 4.06L150.98 8.19Q151.17 8.32 151.49 8.40Q151.81 8.48 152.13 8.48L152.13 8.48Q152.83 8.48 153.17 7.91Q153.50 7.34 153.50 6.30ZM155.50 6.24L155.50 6.24Q155.50 7.10 155.31 7.83Q155.12 8.56 154.75 9.08Q154.38 9.60 153.82 9.89Q153.26 10.18 152.53 10.18L152.53 10.18Q151.78 10.18 150.98 9.81L150.98 9.81L150.98 12.64L149.01 12.64L149.01 2.72Q149.55 2.54 150.34 2.43Q151.14 2.32 151.90 2.32L151.90 2.32Q153.65 2.32 154.58 3.38Q155.50 4.43 155.50 6.24ZM156.50 6.30L156.50 6.30Q156.50 5.31 156.80 4.56Q157.10 3.81 157.60 3.30Q158.10 2.80 158.74 2.54Q159.38 2.29 160.05 2.29L160.05 2.29Q161.71 2.29 162.58 3.27Q163.44 4.26 163.44 6.14L163.44 6.14Q163.44 6.34 163.43 6.54Q163.42 6.75 163.41 6.88L163.41 6.88L158.53 6.88Q158.53 7.62 159.14 8.04Q159.74 8.46 160.70 8.46L160.70 8.46Q161.30 8.46 161.83 8.34Q162.37 8.21 162.74 8.08L162.74 8.08L163.01 9.76Q162.50 9.94 161.92 10.06Q161.34 10.18 160.62 10.18L160.62 10.18Q159.66 10.18 158.90 9.93Q158.14 9.68 157.61 9.19Q157.07 8.70 156.78 7.98Q156.50 7.26 156.50 6.30ZM158.53 5.52L161.54 5.52Q161.54 5.22 161.46 4.94Q161.38 4.66 161.20 4.43Q161.02 4.21 160.75 4.07Q160.48 3.94 160.08 3.94L160.08 3.94Q159.70 3.94 159.42 4.06Q159.14 4.19 158.95 4.42Q158.77 4.64 158.66 4.93Q158.56 5.22 158.53 5.52L158.53 5.52ZM171.34 2.66L170.99 4.48Q170.80 4.43 170.54 4.38Q170.27 4.34 170 4.30Q169.73 4.26 169.47 4.24Q169.22 4.22 169.04 4.22L169.04 4.22Q168.62 4.22 168.22 4.26Q167.82 4.30 167.41 4.42L167.41 4.42L167.41 10L165.42 10L165.42 2.98Q166.21 2.69 167.03 2.51Q167.86 2.34 168.96 2.34L168.96 2.34Q169.12 2.34 169.42 2.35Q169.71 2.37 170.05 2.41Q170.38 2.45 170.73 2.50Q171.07 2.56 171.34 2.66L171.34 2.66ZM183.71 8.56L183.71 8.56Q184.21 8.56 184.54 8.46Q184.86 8.35 185.06 8.17Q185.25 7.98 185.32 7.75Q185.39 7.52 185.39 7.28L185.39 7.28Q185.39 6.98 185.22 6.74Q185.04 6.50 184.77 6.31Q184.50 6.13 184.16 5.98Q183.82 5.82 183.49 5.70L183.49 5.70Q183.04 5.54 182.56 5.33Q182.08 5.12 181.69 4.80Q181.30 4.48 181.04 4.01Q180.78 3.54 180.78 2.83L180.78 2.83Q180.78 1.44 181.69 0.66Q182.59-0.13 184.18-0.13L184.18-0.13Q185.09-0.13 185.77 0.08Q186.45 0.29 186.91 0.54L186.91 0.54L186.34 2.06Q185.94 1.84 185.45 1.68Q184.96 1.52 184.32 1.52L184.32 1.52Q182.75 1.52 182.75 2.66L182.75 2.66Q182.75 2.94 182.91 3.16Q183.07 3.38 183.32 3.54Q183.57 3.71 183.88 3.84Q184.19 3.97 184.50 4.08L184.50 4.08Q184.96 4.26 185.46 4.47Q185.97 4.69 186.39 5.05Q186.82 5.41 187.09 5.94Q187.36 6.48 187.36 7.30L187.36 7.30Q187.36 8.69 186.46 9.45Q185.55 10.21 183.71 10.21L183.71 10.21Q182.48 10.21 181.74 9.94Q181.01 9.68 180.64 9.46L180.64 9.46L181.22 7.86Q181.65 8.11 182.25 8.34Q182.85 8.56 183.71 8.56ZM190.29 7.20L190.29 4.11L188.58 4.11L188.58 2.48L190.29 2.48L190.29 0.59L192.26 0.27L192.26 2.48L195.41 2.48L195.41 4.11L192.26 4.11L192.26 7.15Q192.26 7.57 192.34 7.82Q192.42 8.08 192.56 8.22Q192.70 8.37 192.91 8.42Q193.12 8.46 193.38 8.46L193.38 8.46Q193.65 8.46 193.88 8.45Q194.11 8.43 194.33 8.39Q194.54 8.35 194.78 8.27Q195.01 8.19 195.28 8.06L195.28 8.06L195.55 9.76Q195.01 9.98 194.38 10.08Q193.74 10.18 193.15 10.18L193.15 10.18Q192.46 10.18 191.94 10.06Q191.41 9.95 191.04 9.63Q190.67 9.31 190.48 8.73Q190.29 8.14 190.29 7.20L190.29 7.20ZM203.01 2.48L203.01 9.74Q202.46 9.89 201.69 10.03Q200.91 10.18 200 10.18L200 10.18Q199.07 10.18 198.48 9.92Q197.89 9.66 197.54 9.19Q197.20 8.72 197.07 8.08Q196.94 7.44 196.94 6.67L196.94 6.67L196.94 2.48L198.91 2.48L198.91 6.42Q198.91 7.46 199.16 7.96Q199.41 8.46 200.13 8.46L200.13 8.46Q200.58 8.46 201.02 8.38L201.02 8.38L201.02 2.48L203.01 2.48ZM206.45 6.19L206.45 6.19Q206.45 7.20 206.82 7.84Q207.20 8.48 208.03 8.48L208.03 8.48Q208.27 8.48 208.48 8.46Q208.69 8.45 208.91 8.42L208.91 8.42L208.91 4.32Q208.69 4.19 208.40 4.10Q208.11 4.02 207.79 4.02L207.79 4.02Q207.09 4.02 206.77 4.58Q206.45 5.14 206.45 6.19ZM210.88-1.10L210.88 9.78Q210.34 9.95 209.55 10.06Q208.77 10.18 208.02 10.18L208.02 10.18Q206.26 10.18 205.35 9.14Q204.45 8.10 204.45 6.29L204.45 6.29Q204.45 4.45 205.21 3.38Q205.97 2.32 207.46 2.32L207.46 2.32Q207.86 2.32 208.24 2.41Q208.62 2.50 208.91 2.66L208.91 2.66L208.91-0.77L210.88-1.10ZM216.54 0.32L216.54 0.32Q216.54 0.90 216.18 1.23Q215.81 1.57 215.30 1.57L215.30 1.57Q214.78 1.57 214.42 1.23Q214.06 0.90 214.06 0.32L214.06 0.32Q214.06-0.27 214.42-0.61Q214.78-0.94 215.30-0.94L215.30-0.94Q215.81-0.94 216.18-0.61Q216.54-0.27 216.54 0.32ZM219.22 8.10L219.47 9.68Q218.86 9.97 218.33 10.07Q217.79 10.18 217.34 10.18L217.34 10.18Q216.58 10.18 216.06 9.95Q215.54 9.73 215.22 9.30Q214.91 8.88 214.78 8.27Q214.66 7.66 214.66 6.88L214.66 6.88L214.66 4.11L212.58 4.11L212.58 2.48L216.62 2.48L216.62 7.14Q216.62 7.81 216.87 8.14Q217.12 8.46 217.70 8.46L217.70 8.46Q217.97 8.46 218.35 8.39Q218.74 8.32 219.22 8.10L219.22 8.10ZM227.55 6.22L227.55 6.22Q227.55 7.12 227.30 7.85Q227.04 8.58 226.58 9.10Q226.11 9.63 225.46 9.92Q224.82 10.21 224.02 10.21L224.02 10.21Q223.22 10.21 222.57 9.92Q221.92 9.63 221.45 9.10Q220.98 8.58 220.72 7.85Q220.46 7.12 220.46 6.22L220.46 6.22Q220.46 5.34 220.73 4.62Q220.99 3.89 221.46 3.37Q221.94 2.85 222.59 2.57Q223.25 2.29 224.02 2.29L224.02 2.29Q224.80 2.29 225.45 2.57Q226.10 2.85 226.57 3.37Q227.04 3.89 227.30 4.62Q227.55 5.34 227.55 6.22ZM222.46 6.24L222.46 6.24Q222.46 7.25 222.82 7.87Q223.18 8.50 223.98 8.50L223.98 8.50Q224.75 8.50 225.14 7.87Q225.54 7.25 225.54 6.24L225.54 6.24Q225.54 5.23 225.18 4.62Q224.82 4 224.02 4L224.02 4Q223.25 4 222.86 4.62Q222.46 5.23 222.46 6.24ZM239.58-0.02L239.58-0.02Q241.47-0.02 242.51 0.76Q243.55 1.54 243.55 3.30L243.55 3.30Q243.55 5.07 242.50 5.86Q241.46 6.66 239.54 6.66L239.54 6.66L238.83 6.66L238.83 10L236.86 10L236.86 0.22Q237.15 0.16 237.51 0.11Q237.87 0.06 238.24 0.04Q238.61 0.02 238.96 0Q239.31-0.02 239.58-0.02ZM239.81 1.70L239.81 1.70Q239.63 1.70 239.32 1.70Q239.01 1.71 238.83 1.74L238.83 1.74L238.83 4.94L239.63 4.94Q240.58 4.94 241.06 4.57Q241.54 4.19 241.54 3.28L241.54 3.28Q241.54 2.42 241.06 2.06Q240.59 1.70 239.81 1.70ZM251.34 2.66L250.99 4.48Q250.80 4.43 250.54 4.38Q250.27 4.34 250 4.30Q249.73 4.26 249.47 4.24Q249.22 4.22 249.04 4.22L249.04 4.22Q248.62 4.22 248.22 4.26Q247.82 4.30 247.41 4.42L247.41 4.42L247.41 10L245.42 10L245.42 2.98Q246.21 2.69 247.03 2.51Q247.86 2.34 248.96 2.34L248.96 2.34Q249.12 2.34 249.42 2.35Q249.71 2.37 250.05 2.41Q250.38 2.45 250.73 2.50Q251.07 2.56 251.34 2.66L251.34 2.66ZM259.55 6.22L259.55 6.22Q259.55 7.12 259.30 7.85Q259.04 8.58 258.58 9.10Q258.11 9.63 257.46 9.92Q256.82 10.21 256.02 10.21L256.02 10.21Q255.22 10.21 254.57 9.92Q253.92 9.63 253.45 9.10Q252.98 8.58 252.72 7.85Q252.46 7.12 252.46 6.22L252.46 6.22Q252.46 5.34 252.73 4.62Q252.99 3.89 253.46 3.37Q253.94 2.85 254.59 2.57Q255.25 2.29 256.02 2.29L256.02 2.29Q256.80 2.29 257.45 2.57Q258.10 2.85 258.57 3.37Q259.04 3.89 259.30 4.62Q259.55 5.34 259.55 6.22ZM254.46 6.24L254.46 6.24Q254.46 7.25 254.82 7.87Q255.18 8.50 255.98 8.50L255.98 8.50Q256.75 8.50 257.14 7.87Q257.54 7.25 257.54 6.24L257.54 6.24Q257.54 5.23 257.18 4.62Q256.82 4 256.02 4L256.02 4Q255.25 4 254.86 4.62Q254.46 5.23 254.46 6.24ZM266.40 2.48L266.40 9.50Q266.40 10.42 266.18 11.03Q265.95 11.65 265.56 12.02Q265.17 12.40 264.63 12.56Q264.10 12.72 263.47 12.72L263.47 12.72Q262.70 12.72 262.05 12.53Q261.39 12.34 260.78 12.03L260.78 12.03L261.39 10.37Q261.79 10.59 262.36 10.79Q262.93 10.99 263.39 10.99L263.39 10.99Q263.89 10.99 264.16 10.70Q264.43 10.40 264.43 9.60L264.43 9.60L264.43 4.11L261.39 4.11L261.39 2.48L266.40 2.48ZM266.16 0.32L266.16 0.32Q266.16 0.90 265.79 1.23Q265.42 1.57 264.91 1.57L264.91 1.57Q264.40 1.57 264.04 1.23Q263.68 0.90 263.68 0.32L263.68 0.32Q263.68-0.27 264.04-0.61Q264.40-0.94 264.91-0.94L264.91-0.94Q265.42-0.94 265.79-0.61Q266.16-0.27 266.16 0.32ZM268.50 6.30L268.50 6.30Q268.50 5.31 268.80 4.56Q269.10 3.81 269.60 3.30Q270.10 2.80 270.74 2.54Q271.38 2.29 272.05 2.29L272.05 2.29Q273.71 2.29 274.58 3.27Q275.44 4.26 275.44 6.14L275.44 6.14Q275.44 6.34 275.43 6.54Q275.42 6.75 275.41 6.88L275.41 6.88L270.53 6.88Q270.53 7.62 271.14 8.04Q271.74 8.46 272.70 8.46L272.70 8.46Q273.30 8.46 273.83 8.34Q274.37 8.21 274.74 8.08L274.74 8.08L275.01 9.76Q274.50 9.94 273.92 10.06Q273.34 10.18 272.62 10.18L272.62 10.18Q271.66 10.18 270.90 9.93Q270.14 9.68 269.61 9.19Q269.07 8.70 268.78 7.98Q268.50 7.26 268.50 6.30ZM270.53 5.52L273.54 5.52Q273.54 5.22 273.46 4.94Q273.38 4.66 273.20 4.43Q273.02 4.21 272.75 4.07Q272.48 3.94 272.08 3.94L272.08 3.94Q271.70 3.94 271.42 4.06Q271.14 4.19 270.95 4.42Q270.77 4.64 270.66 4.93Q270.56 5.22 270.53 5.52L270.53 5.52ZM276.70 6.24L276.70 6.24Q276.70 5.42 276.96 4.70Q277.22 3.98 277.74 3.45Q278.27 2.91 279.08 2.60Q279.89 2.29 281.01 2.29L281.01 2.29Q281.68 2.29 282.22 2.38Q282.77 2.48 283.33 2.70L283.33 2.70L282.90 4.29Q282.58 4.18 282.18 4.09Q281.79 4 281.18 4L281.18 4Q280.48 4 280.01 4.17Q279.54 4.34 279.25 4.63Q278.96 4.93 278.83 5.34Q278.70 5.76 278.70 6.24L278.70 6.24Q278.70 7.28 279.29 7.87Q279.87 8.46 281.28 8.46L281.28 8.46Q281.74 8.46 282.25 8.40Q282.75 8.34 283.17 8.19L283.17 8.19L283.46 9.81Q283.04 9.97 282.45 10.07Q281.86 10.18 281.06 10.18L281.06 10.18Q279.90 10.18 279.08 9.87Q278.26 9.57 277.73 9.04Q277.20 8.51 276.95 7.79Q276.70 7.07 276.70 6.24ZM286.29 7.20L286.29 4.11L284.58 4.11L284.58 2.48L286.29 2.48L286.29 0.59L288.26 0.27L288.26 2.48L291.41 2.48L291.41 4.11L288.26 4.11L288.26 7.15Q288.26 7.57 288.34 7.82Q288.42 8.08 288.56 8.22Q288.70 8.37 288.91 8.42Q289.12 8.46 289.38 8.46L289.38 8.46Q289.65 8.46 289.88 8.45Q290.11 8.43 290.33 8.39Q290.54 8.35 290.78 8.27Q291.01 8.19 291.28 8.06L291.28 8.06L291.55 9.76Q291.01 9.98 290.38 10.08Q289.74 10.18 289.15 10.18L289.15 10.18Q288.46 10.18 287.94 10.06Q287.41 9.95 287.04 9.63Q286.67 9.31 286.48 8.73Q286.29 8.14 286.29 7.20L286.29 7.20Z"/>
    </g>
</svg>