<?xml version="1.0" encoding="UTF-8"?>
<svg height="34" width="78.4" version="1.1" xmlns="http://www.w3.org/2000/svg">
    <rect
        height="32"
        width="76.4"
        rx="14"
        ry="14"
        x="1"
        y="1"
        fill="#9c4221"
        stroke="#1d0c06"
        stroke-width="1"
         />
    <g transform="translate(0, 14)">
        <path fill="#1d0c06" d="M10.70-6.33L23.30-6.33L23.30-3.48L18.74-3.48L18.74 11L15.26 11L15.26-3.48L10.70-3.48L10.70-6.33ZM28.26 2.32L28.26 2.32Q28.26 3.58 28.35 4.69Q28.45 5.79 28.75 6.60Q29.04 7.42 29.57 7.89Q30.10 8.37 31 8.37L31 8.37Q31.87 8.37 32.41 7.89Q32.96 7.42 33.25 6.59Q33.55 5.76 33.65 4.67Q33.74 3.58 33.74 2.32L33.74 2.32Q33.74 1.06 33.65-0.05Q33.55-1.15 33.25-1.96Q32.96-2.78 32.43-3.25Q31.90-3.73 31-3.73L31-3.73Q30.10-3.73 29.57-3.25Q29.04-2.78 28.75-1.95Q28.45-1.12 28.35-0.03Q28.26 1.06 28.26 2.32ZM24.76 2.32L24.76 2.32Q24.76-2.16 26.41-4.44Q28.06-6.72 31-6.72L31-6.72Q34.05-6.72 35.65-4.44Q37.24-2.16 37.24 2.32L37.24 2.32Q37.24 6.80 35.62 9.08Q34.00 11.36 31.03 11.36L31.03 11.36Q27.98 11.36 26.37 9.08Q24.76 6.80 24.76 2.32ZM39.65-6.33L42.51-6.33Q42.70-5.74 43.00-4.82Q43.29-3.90 43.63-2.83Q43.96-1.77 44.30-0.68Q44.64 0.42 44.94 1.34L44.94 1.34Q45.28 0.30 45.64-0.80Q46.01-1.91 46.34-2.93Q46.68-3.95 46.96-4.85Q47.24-5.74 47.46-6.33L47.46-6.33L50.32-6.33Q50.52-4.06 50.70-1.91Q50.88 0.25 51.01 2.36Q51.13 4.48 51.22 6.62Q51.30 8.76 51.36 11L51.36 11L48.19 11L48.36-2.47L46.23 4.87L43.71 4.87L41.67-2.47L41.81 11L38.64 11Q38.73 8.87 38.83 6.58Q38.92 4.28 39.04 2.01Q39.15-0.26 39.30-2.38Q39.46-4.51 39.65-6.33L39.65-6.33ZM64.88 8.14L64.88 11L53.99 11L53.99-6.33L57.46-6.33L57.46 8.14L64.88 8.14Z"/>
    </g>
</svg>