<?xml version="1.0" encoding="UTF-8"?><svg height="26" width="123" version="1.1" xmlns="http://www.w3.org/2000/svg"><!--Created by Josélio de S. C. Júnior - 2021 - https://github.com/joseliojunior --><rect height="24" width="121" rx="12" ry="12" x="1" y="1" fill="#ed2cd6" stroke="#750a69" stroke-width="1" /><g transform="translate(0, 8)"><path fill="#750a69" d="M24.74 10.21L24.74 10.21Q22.64 10.21 21.54 8.86Q20.43 7.52 20.43 5.04L20.43 5.04Q20.43 3.81 20.77 2.85Q21.10 1.89 21.70 1.22Q22.30 0.56 23.13 0.22Q23.95-0.13 24.93-0.13L24.93-0.13Q25.46-0.13 25.88-0.04Q26.30 0.05 26.62 0.16Q26.94 0.27 27.16 0.40Q27.38 0.53 27.49 0.59L27.49 0.59L26.98 2.16Q26.61 1.92 26.09 1.75Q25.57 1.58 24.90 1.58L24.90 1.58Q24.43 1.58 23.99 1.75Q23.55 1.92 23.21 2.31Q22.86 2.70 22.65 3.36Q22.43 4.02 22.43 4.99L22.43 4.99Q22.43 6.69 23.02 7.59Q23.60 8.50 24.93 8.50L24.93 8.50Q25.70 8.50 26.20 8.32Q26.70 8.14 27.01 7.97L27.01 7.97L27.50 9.52Q27.09 9.78 26.38 9.99Q25.66 10.21 24.74 10.21ZM35.55 6.22L35.55 6.22Q35.55 7.12 35.30 7.85Q35.04 8.58 34.58 9.10Q34.11 9.63 33.46 9.92Q32.82 10.21 32.02 10.21L32.02 10.21Q31.22 10.21 30.57 9.92Q29.92 9.63 29.45 9.10Q28.98 8.58 28.72 7.85Q28.46 7.12 28.46 6.22L28.46 6.22Q28.46 5.34 28.73 4.62Q28.99 3.89 29.46 3.37Q29.94 2.85 30.59 2.57Q31.25 2.29 32.02 2.29L32.02 2.29Q32.80 2.29 33.45 2.57Q34.10 2.85 34.57 3.37Q35.04 3.89 35.30 4.62Q35.55 5.34 35.55 6.22ZM30.46 6.24L30.46 6.24Q30.46 7.25 30.82 7.87Q31.18 8.50 31.98 8.50L31.98 8.50Q32.75 8.50 33.14 7.87Q33.54 7.25 33.54 6.24L33.54 6.24Q33.54 5.23 33.18 4.62Q32.82 4 32.02 4L32.02 4Q31.25 4 30.86 4.62Q30.46 5.23 30.46 6.24ZM43.22 8.10L43.47 9.68Q43.42 9.71 43.26 9.79Q43.09 9.87 42.82 9.96Q42.54 10.05 42.15 10.11Q41.76 10.18 41.26 10.18L41.26 10.18Q39.90 10.18 39.28 9.37Q38.66 8.56 38.66 7.01L38.66 7.01L38.66 0.62L36.58 0.62L36.58-1.01L40.62-1.01L40.62 7.15Q40.62 7.92 40.93 8.19Q41.23 8.46 41.70 8.46L41.70 8.46Q42.29 8.46 42.69 8.30Q43.09 8.14 43.22 8.10L43.22 8.10ZM46.45 6.19L46.45 6.19Q46.45 7.20 46.82 7.84Q47.20 8.48 48.03 8.48L48.03 8.48Q48.27 8.48 48.48 8.46Q48.69 8.45 48.91 8.42L48.91 8.42L48.91 4.32Q48.69 4.19 48.40 4.10Q48.11 4.02 47.79 4.02L47.79 4.02Q47.09 4.02 46.77 4.58Q46.45 5.14 46.45 6.19ZM50.88-1.10L50.88 9.78Q50.34 9.95 49.55 10.06Q48.77 10.18 48.02 10.18L48.02 10.18Q46.26 10.18 45.35 9.14Q44.45 8.10 44.45 6.29L44.45 6.29Q44.45 4.45 45.21 3.38Q45.97 2.32 47.46 2.32L47.46 2.32Q47.86 2.32 48.24 2.41Q48.62 2.50 48.91 2.66L48.91 2.66L48.91-0.77L50.88-1.10ZM54.98 10L53.01 10L53.01 0.10L59.07 0.10L59.07 1.73L54.98 1.73L54.98 4.13L58.56 4.13L58.56 5.76L54.98 5.76L54.98 10ZM67.01 2.48L67.01 9.74Q66.46 9.89 65.69 10.03Q64.91 10.18 64 10.18L64 10.18Q63.07 10.18 62.48 9.92Q61.89 9.66 61.54 9.19Q61.20 8.72 61.07 8.08Q60.94 7.44 60.94 6.67L60.94 6.67L60.94 2.48L62.91 2.48L62.91 6.42Q62.91 7.46 63.16 7.96Q63.41 8.46 64.13 8.46L64.13 8.46Q64.58 8.46 65.02 8.38L65.02 8.38L65.02 2.48L67.01 2.48ZM71.65 8.51L71.65 8.51Q72.37 8.51 72.75 8.41Q73.14 8.30 73.14 7.98L73.14 7.98Q73.14 7.78 73.02 7.63Q72.90 7.49 72.68 7.38Q72.46 7.28 72.18 7.18Q71.90 7.09 71.60 6.99L71.60 6.99Q71.17 6.86 70.72 6.70Q70.27 6.53 69.90 6.27Q69.54 6.02 69.30 5.62Q69.06 5.23 69.06 4.64L69.06 4.64Q69.06 4.16 69.24 3.74Q69.42 3.31 69.82 2.98Q70.21 2.66 70.82 2.47Q71.42 2.29 72.27 2.29L72.27 2.29Q73.01 2.29 73.64 2.40Q74.27 2.51 74.74 2.72L74.74 2.72L74.43 4.38Q74.16 4.30 73.58 4.12Q73.01 3.94 72.29 3.94L72.29 3.94Q71.54 3.94 71.27 4.12Q71.01 4.30 71.01 4.51L71.01 4.51Q71.01 4.69 71.13 4.82Q71.25 4.96 71.45 5.07Q71.65 5.18 71.91 5.29Q72.18 5.39 72.48 5.49L72.48 5.49Q72.91 5.63 73.38 5.81Q73.84 5.98 74.22 6.25Q74.59 6.51 74.83 6.92Q75.07 7.33 75.07 7.92L75.07 7.92Q75.07 8.38 74.90 8.80Q74.72 9.22 74.31 9.52Q73.90 9.82 73.25 10Q72.59 10.18 71.63 10.18L71.63 10.18Q70.66 10.18 69.97 9.95Q69.28 9.73 68.86 9.55L68.86 9.55L69.17 7.90Q69.73 8.13 70.36 8.32Q70.99 8.51 71.65 8.51ZM80.54 0.32L80.54 0.32Q80.54 0.90 80.18 1.23Q79.81 1.57 79.30 1.57L79.30 1.57Q78.78 1.57 78.42 1.23Q78.06 0.90 78.06 0.32L78.06 0.32Q78.06-0.27 78.42-0.61Q78.78-0.94 79.30-0.94L79.30-0.94Q79.81-0.94 80.18-0.61Q80.54-0.27 80.54 0.32ZM83.22 8.10L83.47 9.68Q82.86 9.97 82.33 10.07Q81.79 10.18 81.34 10.18L81.34 10.18Q80.58 10.18 80.06 9.95Q79.54 9.73 79.22 9.30Q78.91 8.88 78.78 8.27Q78.66 7.66 78.66 6.88L78.66 6.88L78.66 4.11L76.58 4.11L76.58 2.48L80.62 2.48L80.62 7.14Q80.62 7.81 80.87 8.14Q81.12 8.46 81.70 8.46L81.70 8.46Q81.97 8.46 82.35 8.39Q82.74 8.32 83.22 8.10L83.22 8.10ZM91.55 6.22L91.55 6.22Q91.55 7.12 91.30 7.85Q91.04 8.58 90.58 9.10Q90.11 9.63 89.46 9.92Q88.82 10.21 88.02 10.21L88.02 10.21Q87.22 10.21 86.57 9.92Q85.92 9.63 85.45 9.10Q84.98 8.58 84.72 7.85Q84.46 7.12 84.46 6.22L84.46 6.22Q84.46 5.34 84.73 4.62Q84.99 3.89 85.46 3.37Q85.94 2.85 86.59 2.57Q87.25 2.29 88.02 2.29L88.02 2.29Q88.80 2.29 89.45 2.57Q90.10 2.85 90.57 3.37Q91.04 3.89 91.30 4.62Q91.55 5.34 91.55 6.22ZM86.46 6.24L86.46 6.24Q86.46 7.25 86.82 7.87Q87.18 8.50 87.98 8.50L87.98 8.50Q88.75 8.50 89.14 7.87Q89.54 7.25 89.54 6.24L89.54 6.24Q89.54 5.23 89.18 4.62Q88.82 4 88.02 4L88.02 4Q87.25 4 86.86 4.62Q86.46 5.23 86.46 6.24ZM93.01 10L93.01 2.72Q93.54 2.58 94.31 2.45Q95.09 2.32 96 2.32L96 2.32Q96.90 2.32 97.49 2.57Q98.08 2.82 98.42 3.27Q98.77 3.73 98.91 4.36Q99.06 4.99 99.06 5.76L99.06 5.76L99.06 10L97.09 10L97.09 6.02Q97.09 4.96 96.85 4.50Q96.61 4.03 95.87 4.03L95.87 4.03Q95.65 4.03 95.43 4.05Q95.22 4.06 94.98 4.10L94.98 4.10L94.98 10L93.01 10Z"/></g></svg>