<?xml version="1.0" encoding="UTF-8"?>
<svg height="34" width="126.7" version="1.1" xmlns="http://www.w3.org/2000/svg">
    <rect
        height="32"
        width="124.7"
        rx="1"
        ry="1"
        x="1"
        y="1"
        fill="#5B2063"
        stroke="#bb56c8"
        stroke-width="1"
         />
    <g transform="translate(0, 12)">
        <path fill="#bb56c8" d="M27.49-0.62L27.49-0.62Q26.43-0.62 25.71-0.24Q24.99 0.14 24.52 0.83Q24.06 1.51 23.85 2.46Q23.65 3.41 23.65 4.56L23.65 4.56Q23.65 7.22 24.49 8.48Q25.33 9.74 26.96 9.74L26.96 9.74Q27.22 9.74 27.54 9.72Q27.85 9.70 28.11 9.65L28.11 9.65L28.11 4.22L31.06 4.22L31.06 11.64Q30.54 11.83 29.42 12.07Q28.30 12.31 26.72 12.31L26.72 12.31Q25.33 12.31 24.21 11.82Q23.10 11.33 22.30 10.36Q21.51 9.38 21.08 7.93Q20.65 6.48 20.65 4.56L20.65 4.56Q20.65 2.66 21.15 1.21Q21.66-0.24 22.52-1.22Q23.38-2.21 24.56-2.70Q25.74-3.19 27.08-3.19L27.08-3.19Q27.94-3.19 28.63-3.06Q29.31-2.93 29.82-2.76Q30.32-2.59 30.64-2.40Q30.97-2.21 31.14-2.11L31.14-2.11L30.37 0.24Q29.84-0.10 29.07-0.36Q28.30-0.62 27.49-0.62ZM36.46 12L33.51 12L33.51-4.15L36.46-4.66L36.46 0.82Q36.82 0.70 37.33 0.59Q37.83 0.48 38.22 0.48L38.22 0.48Q39.46 0.48 40.30 0.85Q41.14 1.22 41.65 1.91Q42.15 2.59 42.37 3.54Q42.58 4.49 42.58 5.64L42.58 5.64L42.58 12L39.63 12L39.63 6.02Q39.63 4.44 39.27 3.74Q38.91 3.05 37.90 3.05L37.90 3.05Q37.50 3.05 37.10 3.14Q36.70 3.24 36.46 3.31L36.46 3.31L36.46 12ZM44.74 6.46L44.74 6.46Q44.74 4.97 45.20 3.84Q45.66 2.71 46.40 1.96Q47.14 1.20 48.10 0.82Q49.06 0.43 50.07 0.43L50.07 0.43Q52.57 0.43 53.86 1.91Q55.16 3.38 55.16 6.22L55.16 6.22Q55.16 6.50 55.15 6.82Q55.14 7.13 55.11 7.32L55.11 7.32L47.79 7.32Q47.79 8.42 48.70 9.06Q49.62 9.70 51.06 9.70L51.06 9.70Q51.94 9.70 52.75 9.50Q53.55 9.31 54.10 9.12L54.10 9.12L54.51 11.64Q53.74 11.90 52.88 12.08Q52.02 12.26 50.94 12.26L50.94 12.26Q49.50 12.26 48.36 11.89Q47.22 11.52 46.41 10.79Q45.61 10.06 45.18 8.98Q44.74 7.90 44.74 6.46ZM47.79 5.28L52.30 5.28Q52.30 4.82 52.18 4.40Q52.06 3.98 51.80 3.65Q51.54 3.31 51.13 3.11Q50.72 2.90 50.12 2.90L50.12 2.90Q49.54 2.90 49.12 3.10Q48.70 3.29 48.43 3.62Q48.15 3.96 48.00 4.39Q47.84 4.82 47.79 5.28L47.79 5.28ZM67.02 0.98L66.49 3.72Q66.20 3.65 65.80 3.58Q65.41 3.50 65 3.44Q64.59 3.38 64.21 3.36Q63.82 3.34 63.56 3.34L63.56 3.34Q62.94 3.34 62.34 3.40Q61.74 3.46 61.11 3.62L61.11 3.62L61.11 12L58.14 12L58.14 1.46Q59.31 1.03 60.55 0.77Q61.78 0.50 63.44 0.50L63.44 0.50Q63.68 0.50 64.12 0.53Q64.57 0.55 65.07 0.61Q65.58 0.67 66.09 0.76Q66.61 0.84 67.02 0.98L67.02 0.98ZM72.49-4.66L72.49 5.18Q72.92 4.68 73.36 4.12Q73.81 3.55 74.23 2.95Q74.65 2.35 75.03 1.79Q75.42 1.22 75.70 0.72L75.70 0.72L79.26 0.72Q78.82 1.27 78.27 1.92Q77.72 2.57 77.13 3.24Q76.54 3.91 75.96 4.54Q75.37 5.16 74.89 5.69L74.89 5.69Q75.49 6.26 76.18 7.07Q76.88 7.87 77.55 8.74Q78.22 9.60 78.79 10.46Q79.35 11.33 79.69 12L79.69 12L76.30 12Q76.02 11.40 75.55 10.64Q75.08 9.89 74.55 9.16Q74.02 8.42 73.48 7.76Q72.94 7.10 72.49 6.67L72.49 6.67L72.49 12L69.51 12L69.51-4.15L72.49-4.66ZM86.82-2.52L86.82-2.52Q86.82-1.66 86.26-1.15Q85.71-0.65 84.94-0.65L84.94-0.65Q84.18-0.65 83.64-1.15Q83.10-1.66 83.10-2.52L83.10-2.52Q83.10-3.41 83.64-3.91Q84.18-4.42 84.94-4.42L84.94-4.42Q85.71-4.42 86.26-3.91Q86.82-3.41 86.82-2.52ZM90.82 9.14L91.21 11.52Q90.30 11.95 89.49 12.11Q88.69 12.26 88.02 12.26L88.02 12.26Q86.86 12.26 86.08 11.93Q85.30 11.59 84.84 10.96Q84.37 10.32 84.18 9.41Q83.98 8.50 83.98 7.32L83.98 7.32L83.98 3.17L80.86 3.17L80.86 0.72L86.94 0.72L86.94 7.70Q86.94 8.71 87.31 9.20Q87.68 9.70 88.54 9.70L88.54 9.70Q88.95 9.70 89.53 9.59Q90.10 9.48 90.82 9.14L90.82 9.14ZM93.51 12L93.51 1.08Q94.30 0.86 95.47 0.67Q96.63 0.48 98 0.48L98 0.48Q99.34 0.48 100.23 0.85Q101.12 1.22 101.64 1.91Q102.15 2.59 102.37 3.54Q102.58 4.49 102.58 5.64L102.58 5.64L102.58 12L99.63 12L99.63 6.02Q99.63 4.44 99.27 3.74Q98.91 3.05 97.81 3.05L97.81 3.05Q97.47 3.05 97.15 3.07Q96.82 3.10 96.46 3.14L96.46 3.14L96.46 12L93.51 12Z"/>
    </g>
</svg>