<?xml version="1.0" encoding="UTF-8"?>
<svg height="34" width="64.3" version="1.1" xmlns="http://www.w3.org/2000/svg">
    <rect
        height="32"
        width="62.3"
        rx="1"
        ry="1"
        x="1"
        y="1"
        fill="#77aa99"
        stroke="#35554a"
        stroke-width="1"
         />
    <g transform="translate(0, 14)">
        <path fill="#35554a" d="M14.26 2.32L14.26 2.32Q14.26 3.58 14.35 4.69Q14.45 5.79 14.75 6.60Q15.04 7.42 15.57 7.89Q16.10 8.37 17 8.37L17 8.37Q17.87 8.37 18.41 7.89Q18.96 7.42 19.25 6.59Q19.55 5.76 19.65 4.67Q19.74 3.58 19.74 2.32L19.74 2.32Q19.74 1.06 19.65-0.05Q19.55-1.15 19.25-1.96Q18.96-2.78 18.43-3.25Q17.90-3.73 17-3.73L17-3.73Q16.10-3.73 15.57-3.25Q15.04-2.78 14.75-1.95Q14.45-1.12 14.35-0.03Q14.26 1.06 14.26 2.32ZM10.76 2.32L10.76 2.32Q10.76-2.16 12.41-4.44Q14.06-6.72 17-6.72L17-6.72Q20.05-6.72 21.65-4.44Q23.24-2.16 23.24 2.32L23.24 2.32Q23.24 6.80 21.62 9.08Q20.00 11.36 17.03 11.36L17.03 11.36Q13.98 11.36 12.37 9.08Q10.76 6.80 10.76 2.32ZM36.85-1.85L36.24 1.34Q35.90 1.26 35.44 1.17Q34.98 1.09 34.50 1.02Q34.02 0.95 33.58 0.92Q33.13 0.89 32.82 0.89L32.82 0.89Q32.09 0.89 31.39 0.96Q30.69 1.03 29.96 1.23L29.96 1.23L29.96 11L26.49 11L26.49-1.29Q27.86-1.80 29.31-2.10Q30.75-2.41 32.68-2.41L32.68-2.41Q32.96-2.41 33.48-2.38Q34.00-2.36 34.58-2.29Q35.17-2.22 35.77-2.12Q36.38-2.02 36.85-1.85L36.85-1.85ZM42.42 4L42.42 4Q42.42 5.62 43.01 6.48Q43.60 7.33 44.86 7.33L44.86 7.33Q45.42 7.33 45.91 7.19Q46.40 7.05 46.79 6.83L46.79 6.83L46.79 0.50Q46.40 0.42 46.09 0.39Q45.78 0.36 45.45 0.36L45.45 0.36Q42.42 0.36 42.42 4ZM50.26-1.74L50.26 9.40Q50.26 12.62 48.71 14.16Q47.16 15.70 43.71 15.70L43.71 15.70Q42.48 15.70 41.35 15.45Q40.21 15.20 39.18 14.86L39.18 14.86L39.82 11.95Q40.63 12.26 41.53 12.53Q42.42 12.79 43.77 12.79L43.77 12.79Q44.66 12.79 45.25 12.58Q45.84 12.37 46.18 12.01Q46.51 11.64 46.65 11.15Q46.79 10.66 46.79 10.10L46.79 10.10L46.79 9.57Q46.06 9.85 45.46 9.99Q44.86 10.13 44.16 10.13L44.16 10.13Q41.58 10.13 40.25 8.51Q38.92 6.88 38.92 4L38.92 4Q38.92 0.75 40.72-0.84Q42.51-2.44 45.59-2.44L45.59-2.44Q47.74-2.44 50.26-1.74L50.26-1.74Z"/>
    </g>
</svg>