<?xml version="1.0" encoding="UTF-8"?>
<svg height="34" width="247.6" version="1.1" xmlns="http://www.w3.org/2000/svg">
    <rect
        height="32"
        width="245.6"
        rx="1"
        ry="1"
        x="1"
        y="1"
        fill="#3572A5"
        stroke="#102332"
        stroke-width="1"
         />
    <g transform="translate(0, 14)">
        <path fill="#102332" d="M16.27-6.53L16.27-6.53Q19.58-6.53 21.40-5.17Q23.22-3.81 23.22-0.73L23.22-0.73Q23.22 2.38 21.38 3.76Q19.55 5.15 16.19 5.15L16.19 5.15L14.96 5.15L14.96 11L11.51 11L11.51-6.11Q12.02-6.22 12.65-6.30Q13.28-6.39 13.92-6.43Q14.56-6.47 15.18-6.50Q15.80-6.53 16.27-6.53ZM16.66-3.53L16.66-3.53Q16.36-3.53 15.81-3.52Q15.26-3.50 14.96-3.45L14.96-3.45L14.96 2.15L16.36 2.15Q18.01 2.15 18.85 1.49Q19.69 0.84 19.69-0.76L19.69-0.76Q19.69-2.27 18.86-2.90Q18.04-3.53 16.66-3.53ZM33.69-2.16L37.22-2.16Q36.68-0.31 36.19 1.47Q35.70 3.24 35.17 4.94Q34.64 6.63 34.04 8.26Q33.44 9.88 32.74 11.42L32.74 11.42Q32.20 12.54 31.69 13.35Q31.17 14.16 30.54 14.68Q29.91 15.20 29.14 15.45Q28.37 15.70 27.33 15.70L27.33 15.70Q26.46 15.70 25.75 15.56Q25.04 15.42 24.56 15.20L24.56 15.20L25.20 12.32Q25.76 12.57 26.20 12.67Q26.63 12.76 27.14 12.76L27.14 12.76Q28.14 12.76 28.76 12.09Q29.38 11.42 29.74 10.50L29.74 10.50Q28.51 8.03 27.28 4.85Q26.04 1.68 25.04-2.16L25.04-2.16L28.62-2.16Q28.87-1.12 29.19 0.05Q29.52 1.23 29.88 2.40Q30.24 3.58 30.65 4.71Q31.06 5.85 31.48 6.83L31.48 6.83Q31.76 5.85 32.06 4.71Q32.37 3.58 32.65 2.42Q32.93 1.26 33.20 0.08Q33.46-1.10 33.69-2.16L33.69-2.16ZM42.00 6.10L42.00 0.70L39.01 0.70L39.01-2.16L42.00-2.16L42.00-5.46L45.45-6.02L45.45-2.16L50.96-2.16L50.96 0.70L45.45 0.70L45.45 6.02Q45.45 6.74 45.59 7.19Q45.73 7.64 45.98 7.89Q46.23 8.14 46.60 8.23Q46.96 8.31 47.41 8.31L47.41 8.31Q47.88 8.31 48.29 8.28Q48.70 8.26 49.07 8.19Q49.45 8.12 49.86 7.98Q50.26 7.84 50.74 7.61L50.74 7.61L51.22 10.58Q50.26 10.97 49.16 11.14Q48.05 11.31 47.02 11.31L47.02 11.31Q45.81 11.31 44.89 11.11Q43.96 10.92 43.32 10.36Q42.68 9.80 42.34 8.77Q42.00 7.75 42.00 6.10L42.00 6.10ZM57.21 11L53.76 11L53.76-7.84L57.21-8.43L57.21-2.05Q57.63-2.19 58.22-2.31Q58.80-2.44 59.25-2.44L59.25-2.44Q60.71-2.44 61.69-2.01Q62.67-1.57 63.26-0.77Q63.84 0.02 64.10 1.13Q64.35 2.24 64.35 3.58L64.35 3.58L64.35 11L60.90 11L60.90 4.03Q60.90 2.18 60.48 1.37Q60.06 0.56 58.89 0.56L58.89 0.56Q58.41 0.56 57.95 0.67Q57.49 0.78 57.21 0.86L57.21 0.86L57.21 11ZM79.22 4.39L79.22 4.39Q79.22 5.96 78.77 7.23Q78.32 8.51 77.51 9.43Q76.70 10.36 75.56 10.86Q74.43 11.36 73.03 11.36L73.03 11.36Q71.63 11.36 70.49 10.86Q69.36 10.36 68.53 9.43Q67.71 8.51 67.26 7.23Q66.81 5.96 66.81 4.39L66.81 4.39Q66.81 2.85 67.27 1.58Q67.74 0.30 68.56-0.61Q69.39-1.52 70.54-2.01Q71.68-2.50 73.03-2.50L73.03-2.50Q74.40-2.50 75.53-2.01Q76.67-1.52 77.49-0.61Q78.32 0.30 78.77 1.58Q79.22 2.85 79.22 4.39ZM70.31 4.42L70.31 4.42Q70.31 6.18 70.94 7.28Q71.57 8.37 72.97 8.37L72.97 8.37Q74.32 8.37 75.00 7.28Q75.69 6.18 75.69 4.42L75.69 4.42Q75.69 2.66 75.06 1.58Q74.43 0.50 73.03 0.50L73.03 0.50Q71.68 0.50 71.00 1.58Q70.31 2.66 70.31 4.42ZM81.76 11L81.76-1.74Q82.69-1.99 84.05-2.22Q85.40-2.44 87-2.44L87-2.44Q88.57-2.44 89.60-2.01Q90.64-1.57 91.24-0.77Q91.84 0.02 92.10 1.13Q92.35 2.24 92.35 3.58L92.35 3.58L92.35 11L88.90 11L88.90 4.03Q88.90 2.18 88.48 1.37Q88.06 0.56 86.78 0.56L86.78 0.56Q86.38 0.56 86.01 0.58Q85.63 0.61 85.21 0.67L85.21 0.67L85.21 11L81.76 11ZM112.00 6.10L112.00 0.70L109.01 0.70L109.01-2.16L112.00-2.16L112.00-5.46L115.45-6.02L115.45-2.16L120.96-2.16L120.96 0.70L115.45 0.70L115.45 6.02Q115.45 6.74 115.59 7.19Q115.73 7.64 115.98 7.89Q116.23 8.14 116.60 8.23Q116.96 8.31 117.41 8.31L117.41 8.31Q117.88 8.31 118.29 8.28Q118.70 8.26 119.07 8.19Q119.45 8.12 119.86 7.98Q120.26 7.84 120.74 7.61L120.74 7.61L121.22 10.58Q120.26 10.97 119.16 11.14Q118.05 11.31 117.02 11.31L117.02 11.31Q115.81 11.31 114.89 11.11Q113.96 10.92 113.32 10.36Q112.68 9.80 112.34 8.77Q112.00 7.75 112.00 6.10L112.00 6.10ZM134.85-1.85L134.24 1.34Q133.90 1.26 133.44 1.17Q132.98 1.09 132.50 1.02Q132.02 0.95 131.58 0.92Q131.13 0.89 130.82 0.89L130.82 0.89Q130.09 0.89 129.39 0.96Q128.69 1.03 127.96 1.23L127.96 1.23L127.96 11L124.49 11L124.49-1.29Q125.86-1.80 127.31-2.10Q128.75-2.41 130.68-2.41L130.68-2.41Q130.96-2.41 131.48-2.38Q132.00-2.36 132.58-2.29Q133.17-2.22 133.77-2.12Q134.38-2.02 134.85-1.85L134.85-1.85ZM143.03 8.54L143.03 8.54Q143.59 8.54 144.12 8.52Q144.65 8.51 145.04 8.45L145.04 8.45L145.04 5.43Q144.71 5.37 144.23 5.33Q143.76 5.29 143.36 5.29L143.36 5.29Q142.83 5.29 142.33 5.36Q141.82 5.43 141.45 5.60Q141.07 5.76 140.84 6.07Q140.62 6.38 140.62 6.88L140.62 6.88Q140.62 7.78 141.29 8.16Q141.96 8.54 143.03 8.54ZM142.72-2.50L142.72-2.50Q144.34-2.50 145.42-2.12Q146.50-1.74 147.14-1.05Q147.79-0.37 148.07 0.63Q148.35 1.62 148.35 2.85L148.35 2.85L148.35 10.69Q147.59 10.86 146.11 11.08Q144.62 11.31 142.78 11.31L142.78 11.31Q141.52 11.31 140.49 11.08Q139.47 10.86 138.74 10.34Q138.02 9.82 137.62 9.00Q137.23 8.17 137.23 6.97L137.23 6.97Q137.23 5.82 137.68 5.04Q138.13 4.25 138.88 3.78Q139.64 3.30 140.62 3.09Q141.60 2.88 142.66 2.88L142.66 2.88Q144.01 2.88 145.04 3.10L145.04 3.10L145.04 2.68Q145.04 1.70 144.43 1.05Q143.81 0.39 142.30 0.39L142.30 0.39Q141.32 0.39 140.41 0.53Q139.50 0.67 138.94 0.86L138.94 0.86L138.46-1.91Q139.11-2.13 140.28-2.31Q141.46-2.50 142.72-2.50ZM151.23 4.42L151.23 4.42Q151.23 2.99 151.68 1.73Q152.13 0.47 153.05-0.47Q153.98-1.40 155.39-1.95Q156.80-2.50 158.76-2.50L158.76-2.50Q159.94-2.50 160.89-2.33Q161.84-2.16 162.82-1.77L162.82-1.77L162.07 1.00Q161.51 0.81 160.82 0.65Q160.14 0.50 159.07 0.50L159.07 0.50Q157.84 0.50 157.01 0.79Q156.19 1.09 155.68 1.61Q155.18 2.12 154.96 2.85Q154.73 3.58 154.73 4.42L154.73 4.42Q154.73 6.24 155.75 7.28Q156.78 8.31 159.24 8.31L159.24 8.31Q160.05 8.31 160.93 8.20Q161.82 8.09 162.54 7.84L162.54 7.84L163.05 10.66Q162.32 10.94 161.28 11.13Q160.25 11.31 158.85 11.31L158.85 11.31Q156.83 11.31 155.39 10.78Q153.95 10.24 153.02 9.32Q152.10 8.40 151.67 7.14Q151.23 5.88 151.23 4.42ZM164.87 4.53L164.87 4.53Q164.87 2.80 165.40 1.48Q165.93 0.16 166.80-0.72Q167.67-1.60 168.79-2.05Q169.91-2.50 171.08-2.50L171.08-2.50Q174.00-2.50 175.51-0.77Q177.02 0.95 177.02 4.25L177.02 4.25Q177.02 4.59 177.01 4.95Q176.99 5.32 176.96 5.54L176.96 5.54L168.42 5.54Q168.42 6.83 169.49 7.57Q170.55 8.31 172.23 8.31L172.23 8.31Q173.27 8.31 174.21 8.09Q175.14 7.86 175.79 7.64L175.79 7.64L176.26 10.58Q175.37 10.89 174.36 11.10Q173.35 11.31 172.09 11.31L172.09 11.31Q170.41 11.31 169.08 10.87Q167.75 10.44 166.81 9.59Q165.88 8.73 165.37 7.47Q164.87 6.21 164.87 4.53ZM168.42 3.16L173.69 3.16Q173.69 2.63 173.55 2.14Q173.41 1.65 173.10 1.26Q172.79 0.86 172.32 0.63Q171.84 0.39 171.14 0.39L171.14 0.39Q170.47 0.39 169.98 0.61Q169.49 0.84 169.17 1.23Q168.84 1.62 168.66 2.12Q168.48 2.63 168.42 3.16L168.42 3.16ZM187.66 4.34L187.66 4.34Q187.66 2.49 187.06 1.51Q186.46 0.53 185.22 0.53L185.22 0.53Q184.66 0.53 184.12 0.68Q183.57 0.84 183.18 1.06L183.18 1.06L183.18 8.20Q183.57 8.28 184.01 8.31Q184.44 8.34 184.75 8.34L184.75 8.34Q186.09 8.34 186.88 7.43Q187.66 6.52 187.66 4.34ZM191.16 4.42L191.16 4.42Q191.16 5.99 190.74 7.26Q190.32 8.54 189.51 9.43Q188.70 10.33 187.52 10.82Q186.34 11.31 184.83 11.31L184.83 11.31Q183.49 11.31 182.09 11.11Q180.69 10.92 179.74 10.61L179.74 10.61L179.74-7.84L183.18-8.43L183.18-1.85Q183.91-2.19 184.58-2.31Q185.25-2.44 185.92-2.44L185.92-2.44Q187.21-2.44 188.19-1.95Q189.17-1.46 189.83-0.55Q190.49 0.36 190.82 1.62Q191.16 2.88 191.16 4.42ZM199.03 8.54L199.03 8.54Q199.59 8.54 200.12 8.52Q200.65 8.51 201.04 8.45L201.04 8.45L201.04 5.43Q200.71 5.37 200.23 5.33Q199.76 5.29 199.36 5.29L199.36 5.29Q198.83 5.29 198.33 5.36Q197.82 5.43 197.45 5.60Q197.07 5.76 196.84 6.07Q196.62 6.38 196.62 6.88L196.62 6.88Q196.62 7.78 197.29 8.16Q197.96 8.54 199.03 8.54ZM198.72-2.50L198.72-2.50Q200.34-2.50 201.42-2.12Q202.50-1.74 203.14-1.05Q203.79-0.37 204.07 0.63Q204.35 1.62 204.35 2.85L204.35 2.85L204.35 10.69Q203.59 10.86 202.11 11.08Q200.62 11.31 198.78 11.31L198.78 11.31Q197.52 11.31 196.49 11.08Q195.47 10.86 194.74 10.34Q194.02 9.82 193.62 9.00Q193.23 8.17 193.23 6.97L193.23 6.97Q193.23 5.82 193.68 5.04Q194.13 4.25 194.88 3.78Q195.64 3.30 196.62 3.09Q197.60 2.88 198.66 2.88L198.66 2.88Q200.01 2.88 201.04 3.10L201.04 3.10L201.04 2.68Q201.04 1.70 200.43 1.05Q199.81 0.39 198.30 0.39L198.30 0.39Q197.32 0.39 196.41 0.53Q195.50 0.67 194.94 0.86L194.94 0.86L194.46-1.91Q195.11-2.13 196.28-2.31Q197.46-2.50 198.72-2.50ZM207.23 4.42L207.23 4.42Q207.23 2.99 207.68 1.73Q208.13 0.47 209.05-0.47Q209.98-1.40 211.39-1.95Q212.80-2.50 214.76-2.50L214.76-2.50Q215.94-2.50 216.89-2.33Q217.84-2.16 218.82-1.77L218.82-1.77L218.07 1.00Q217.51 0.81 216.82 0.65Q216.14 0.50 215.07 0.50L215.07 0.50Q213.84 0.50 213.01 0.79Q212.19 1.09 211.68 1.61Q211.18 2.12 210.96 2.85Q210.73 3.58 210.73 4.42L210.73 4.42Q210.73 6.24 211.75 7.28Q212.78 8.31 215.24 8.31L215.24 8.31Q216.05 8.31 216.93 8.20Q217.82 8.09 218.54 7.84L218.54 7.84L219.05 10.66Q218.32 10.94 217.28 11.13Q216.25 11.31 214.85 11.31L214.85 11.31Q212.83 11.31 211.39 10.78Q209.95 10.24 209.02 9.32Q208.10 8.40 207.67 7.14Q207.23 5.88 207.23 4.42ZM225.24-8.43L225.24 3.05Q225.74 2.46 226.26 1.80Q226.78 1.14 227.27 0.44Q227.76-0.26 228.20-0.91Q228.65-1.57 228.99-2.16L228.99-2.16L233.13-2.16Q232.63-1.52 231.98-0.76Q231.34-0.00 230.65 0.78Q229.97 1.56 229.28 2.29Q228.60 3.02 228.04 3.64L228.04 3.64Q228.74 4.31 229.55 5.25Q230.36 6.18 231.14 7.19Q231.93 8.20 232.59 9.21Q233.24 10.22 233.64 11L233.64 11L229.69 11Q229.35 10.30 228.81 9.42Q228.26 8.54 227.64 7.68Q227.03 6.83 226.40 6.06Q225.77 5.29 225.24 4.78L225.24 4.78L225.24 11L221.76 11L221.76-7.84L225.24-8.43Z"/>
    </g>
</svg>