<?xml version="1.0" encoding="UTF-8"?><svg height="26" width="123" version="1.1" xmlns="http://www.w3.org/2000/svg"><!--Created by Josélio de S. C. Júnior - 2021 - https://github.com/joseliojunior --><rect height="24" width="121" rx="1" ry="1" x="1" y="1" fill="#cb3837" stroke="#551616" stroke-width="1" /><g transform="translate(0, 8)"><path fill="#551616" d="M27.26 10L25.68 10Q25.01 8.35 24.22 6.71Q23.42 5.07 22.51 3.42L22.51 3.42L22.51 10L20.74 10L20.74 0.10L22.32 0.10Q22.77 0.80 23.22 1.62Q23.66 2.45 24.09 3.26Q24.51 4.08 24.87 4.85Q25.23 5.62 25.49 6.19L25.49 6.19L25.49 0.10L27.26 0.10L27.26 10ZM31.58-0.02L31.58-0.02Q33.47-0.02 34.51 0.76Q35.55 1.54 35.55 3.30L35.55 3.30Q35.55 5.07 34.50 5.86Q33.46 6.66 31.54 6.66L31.54 6.66L30.83 6.66L30.83 10L28.86 10L28.86 0.22Q29.15 0.16 29.51 0.11Q29.87 0.06 30.24 0.04Q30.61 0.02 30.96 0Q31.31-0.02 31.58-0.02ZM31.81 1.70L31.81 1.70Q31.63 1.70 31.32 1.70Q31.01 1.71 30.83 1.74L30.83 1.74L30.83 4.94L31.63 4.94Q32.58 4.94 33.06 4.57Q33.54 4.19 33.54 3.28L33.54 3.28Q33.54 2.42 33.06 2.06Q32.59 1.70 31.81 1.70ZM36.94 0.10L38.58 0.10Q38.69 0.43 38.86 0.96Q39.02 1.49 39.22 2.10Q39.41 2.70 39.60 3.33Q39.79 3.95 39.97 4.48L39.97 4.48Q40.16 3.89 40.37 3.26Q40.58 2.62 40.77 2.04Q40.96 1.46 41.12 0.94Q41.28 0.43 41.41 0.10L41.41 0.10L43.04 0.10Q43.15 1.39 43.26 2.62Q43.36 3.86 43.43 5.06Q43.50 6.27 43.55 7.50Q43.60 8.72 43.63 10L43.63 10L41.82 10L41.92 2.30L40.70 6.50L39.26 6.50L38.10 2.30L38.18 10L36.37 10Q36.42 8.78 36.47 7.47Q36.53 6.16 36.59 4.86Q36.66 3.57 36.74 2.35Q36.83 1.14 36.94 0.10L36.94 0.10ZM56.74 10.21L56.74 10.21Q54.64 10.21 53.54 8.86Q52.43 7.52 52.43 5.04L52.43 5.04Q52.43 3.81 52.77 2.85Q53.10 1.89 53.70 1.22Q54.30 0.56 55.13 0.22Q55.95-0.13 56.93-0.13L56.93-0.13Q57.46-0.13 57.88-0.04Q58.30 0.05 58.62 0.16Q58.94 0.27 59.16 0.40Q59.38 0.53 59.49 0.59L59.49 0.59L58.98 2.16Q58.61 1.92 58.09 1.75Q57.57 1.58 56.90 1.58L56.90 1.58Q56.43 1.58 55.99 1.75Q55.55 1.92 55.21 2.31Q54.86 2.70 54.65 3.36Q54.43 4.02 54.43 4.99L54.43 4.99Q54.43 6.69 55.02 7.59Q55.60 8.50 56.93 8.50L56.93 8.50Q57.70 8.50 58.20 8.32Q58.70 8.14 59.01 7.97L59.01 7.97L59.50 9.52Q59.09 9.78 58.38 9.99Q57.66 10.21 56.74 10.21ZM67.55 6.22L67.55 6.22Q67.55 7.12 67.30 7.85Q67.04 8.58 66.58 9.10Q66.11 9.63 65.46 9.92Q64.82 10.21 64.02 10.21L64.02 10.21Q63.22 10.21 62.57 9.92Q61.92 9.63 61.45 9.10Q60.98 8.58 60.72 7.85Q60.46 7.12 60.46 6.22L60.46 6.22Q60.46 5.34 60.73 4.62Q60.99 3.89 61.46 3.37Q61.94 2.85 62.59 2.57Q63.25 2.29 64.02 2.29L64.02 2.29Q64.80 2.29 65.45 2.57Q66.10 2.85 66.57 3.37Q67.04 3.89 67.30 4.62Q67.55 5.34 67.55 6.22ZM62.46 6.24L62.46 6.24Q62.46 7.25 62.82 7.87Q63.18 8.50 63.98 8.50L63.98 8.50Q64.75 8.50 65.14 7.87Q65.54 7.25 65.54 6.24L65.54 6.24Q65.54 5.23 65.18 4.62Q64.82 4 64.02 4L64.02 4Q63.25 4 62.86 4.62Q62.46 5.23 62.46 6.24ZM69.01 10L69.01 2.72Q69.54 2.58 70.31 2.45Q71.09 2.32 72 2.32L72 2.32Q72.90 2.32 73.49 2.57Q74.08 2.82 74.42 3.27Q74.77 3.73 74.91 4.36Q75.06 4.99 75.06 5.76L75.06 5.76L75.06 10L73.09 10L73.09 6.02Q73.09 4.96 72.85 4.50Q72.61 4.03 71.87 4.03L71.87 4.03Q71.65 4.03 71.43 4.05Q71.22 4.06 70.98 4.10L70.98 4.10L70.98 10L69.01 10ZM80.21 10L78.22 10L78.22 4.11L76.58 4.11L76.58 2.48L78.22 2.48L78.22 2.05Q78.22 1.14 78.49 0.54Q78.75-0.06 79.20-0.42Q79.65-0.78 80.22-0.94Q80.80-1.09 81.41-1.09L81.41-1.09Q82.03-1.09 82.69-0.98Q83.34-0.86 83.87-0.61L83.87-0.61L83.54 0.99Q83.17 0.86 82.62 0.73Q82.06 0.59 81.57 0.59L81.57 0.59Q81.30 0.59 81.05 0.64Q80.80 0.69 80.62 0.85Q80.43 1.01 80.32 1.30Q80.21 1.60 80.21 2.08L80.21 2.08L80.21 2.48L83.30 2.48L83.30 4.11L80.21 4.11L80.21 10ZM88.54 0.32L88.54 0.32Q88.54 0.90 88.18 1.23Q87.81 1.57 87.30 1.57L87.30 1.57Q86.78 1.57 86.42 1.23Q86.06 0.90 86.06 0.32L86.06 0.32Q86.06-0.27 86.42-0.61Q86.78-0.94 87.30-0.94L87.30-0.94Q87.81-0.94 88.18-0.61Q88.54-0.27 88.54 0.32ZM91.22 8.10L91.47 9.68Q90.86 9.97 90.33 10.07Q89.79 10.18 89.34 10.18L89.34 10.18Q88.58 10.18 88.06 9.95Q87.54 9.73 87.22 9.30Q86.91 8.88 86.78 8.27Q86.66 7.66 86.66 6.88L86.66 6.88L86.66 4.11L84.58 4.11L84.58 2.48L88.62 2.48L88.62 7.14Q88.62 7.81 88.87 8.14Q89.12 8.46 89.70 8.46L89.70 8.46Q89.97 8.46 90.35 8.39Q90.74 8.32 91.22 8.10L91.22 8.10ZM94.53 6L94.53 6Q94.53 6.93 94.86 7.42Q95.20 7.90 95.92 7.90L95.92 7.90Q96.24 7.90 96.52 7.82Q96.80 7.74 97.02 7.62L97.02 7.62L97.02 4Q96.80 3.95 96.62 3.94Q96.45 3.92 96.26 3.92L96.26 3.92Q94.53 3.92 94.53 6ZM99.01 2.72L99.01 9.09Q99.01 10.93 98.12 11.81Q97.23 12.69 95.26 12.69L95.26 12.69Q94.56 12.69 93.91 12.54Q93.26 12.40 92.67 12.21L92.67 12.21L93.04 10.54Q93.50 10.72 94.02 10.87Q94.53 11.02 95.30 11.02L95.30 11.02Q95.81 11.02 96.14 10.90Q96.48 10.78 96.67 10.58Q96.86 10.37 96.94 10.09Q97.02 9.81 97.02 9.49L97.02 9.49L97.02 9.18Q96.61 9.34 96.26 9.42Q95.92 9.50 95.52 9.50L95.52 9.50Q94.05 9.50 93.29 8.58Q92.53 7.65 92.53 6L92.53 6Q92.53 4.14 93.55 3.23Q94.58 2.32 96.34 2.32L96.34 2.32Q97.57 2.32 99.01 2.72L99.01 2.72Z"/></g></svg>