<?xml version="1.0" encoding="UTF-8"?>
<svg height="34" width="64.3" version="1.1" xmlns="http://www.w3.org/2000/svg">
    <rect
        height="32"
        width="62.3"
        rx="14"
        ry="14"
        x="1"
        y="1"
        fill="#5A8164"
        stroke="#1b271e"
        stroke-width="1"
         />
    <g transform="translate(0, 14)">
        <path fill="#1b271e" d="M23.75 11L20.05 11L19.24 7.00L14.62 7.00L13.84 11L10.25 11Q11.48 5.88 12.74 1.66Q14.00-2.55 15.18-6.33L15.18-6.33L18.93-6.33Q20.16-2.52 21.38 1.75Q22.60 6.02 23.75 11L23.75 11ZM16.97-2.97L16.97-2.97Q16.69-1.99 16.45-1.11Q16.22-0.23 16.01 0.63Q15.80 1.48 15.61 2.35Q15.43 3.22 15.26 4.14L15.26 4.14L18.65 4.14Q18.48 3.22 18.32 2.35Q18.15 1.48 17.94 0.63Q17.73-0.23 17.49-1.11Q17.25-1.99 16.97-2.97ZM30.27-6.53L30.27-6.53Q33.58-6.53 35.40-5.17Q37.22-3.81 37.22-0.73L37.22-0.73Q37.22 2.38 35.38 3.76Q33.55 5.15 30.19 5.15L30.19 5.15L28.96 5.15L28.96 11L25.51 11L25.51-6.11Q26.02-6.22 26.65-6.30Q27.28-6.39 27.92-6.43Q28.56-6.47 29.18-6.50Q29.80-6.53 30.27-6.53ZM30.66-3.53L30.66-3.53Q30.36-3.53 29.81-3.52Q29.26-3.50 28.96-3.45L28.96-3.45L28.96 2.15L30.36 2.15Q32.01 2.15 32.85 1.49Q33.69 0.84 33.69-0.76L33.69-0.76Q33.69-2.27 32.86-2.90Q32.04-3.53 30.66-3.53ZM50.88 8.14L50.88 11L39.99 11L39.99-6.33L43.46-6.33L43.46 8.14L50.88 8.14Z"/>
    </g>
</svg>