<?xml version="1.0" encoding="UTF-8"?>
<svg height="34" width="50.2" version="1.1" xmlns="http://www.w3.org/2000/svg">
    <rect
        height="32"
        width="48.2"
        rx="1"
        ry="1"
        x="1"
        y="1"
        fill="#c9df40"
        stroke="#657113"
        stroke-width="1"
         />
    <g transform="translate(0, 14)">
        <path fill="#657113" d="M22.71 11L19.94 11Q18.76 8.12 17.38 5.25Q15.99 2.38 14.40-0.51L14.40-0.51L14.40 11L11.29 11L11.29-6.33L14.06-6.33Q14.84-5.10 15.63-3.66Q16.41-2.22 17.15-0.79Q17.90 0.64 18.53 1.98Q19.16 3.33 19.60 4.34L19.60 4.34L19.60-6.33L22.71-6.33L22.71 11ZM36.26-2.16L36.26 10.55Q35.31 10.80 33.95 11.06Q32.60 11.31 31 11.31L31 11.31Q29.38 11.31 28.34 10.86Q27.30 10.41 26.70 9.59Q26.10 8.76 25.88 7.64Q25.65 6.52 25.65 5.18L25.65 5.18L25.65-2.16L29.10-2.16L29.10 4.73Q29.10 6.55 29.53 7.43Q29.96 8.31 31.22 8.31L31.22 8.31Q32.01 8.31 32.79 8.17L32.79 8.17L32.79-2.16L36.26-2.16Z"/>
    </g>
</svg>