<?xml version="1.0" encoding="UTF-8"?>
<svg height="34" width="134.8" version="1.1" xmlns="http://www.w3.org/2000/svg">
    <rect
        height="32"
        width="132.8"
        rx="14"
        ry="14"
        x="1"
        y="1"
        fill="#3ac486"
        stroke="#174f36"
        stroke-width="1"
         />
    <g transform="translate(0, 14)">
        <path fill="#174f36" d="M22.71 11L19.94 11Q18.76 8.12 17.38 5.25Q15.99 2.38 14.40-0.51L14.40-0.51L14.40 11L11.29 11L11.29-6.33L14.06-6.33Q14.84-5.10 15.63-3.66Q16.41-2.22 17.15-0.79Q17.90 0.64 18.53 1.98Q19.16 3.33 19.60 4.34L19.60 4.34L19.60-6.33L22.71-6.33L22.71 11ZM24.87 4.53L24.87 4.53Q24.87 2.80 25.40 1.48Q25.93 0.16 26.80-0.72Q27.67-1.60 28.79-2.05Q29.91-2.50 31.08-2.50L31.08-2.50Q34.00-2.50 35.51-0.77Q37.02 0.95 37.02 4.25L37.02 4.25Q37.02 4.59 37.01 4.95Q36.99 5.32 36.96 5.54L36.96 5.54L28.42 5.54Q28.42 6.83 29.49 7.57Q30.55 8.31 32.23 8.31L32.23 8.31Q33.27 8.31 34.21 8.09Q35.14 7.86 35.79 7.64L35.79 7.64L36.26 10.58Q35.37 10.89 34.36 11.10Q33.35 11.31 32.09 11.31L32.09 11.31Q30.41 11.31 29.08 10.87Q27.75 10.44 26.81 9.59Q25.88 8.73 25.37 7.47Q24.87 6.21 24.87 4.53ZM28.42 3.16L33.69 3.16Q33.69 2.63 33.55 2.14Q33.41 1.65 33.10 1.26Q32.79 0.86 32.32 0.63Q31.84 0.39 31.14 0.39L31.14 0.39Q30.47 0.39 29.98 0.61Q29.49 0.84 29.17 1.23Q28.84 1.62 28.66 2.12Q28.48 2.63 28.42 3.16L28.42 3.16ZM42.20-2.16L45.11 1.96L47.80-2.16L51.30-2.16L47.04 4.17Q47.72 4.98 48.36 5.89Q49.00 6.80 49.59 7.72Q50.18 8.65 50.66 9.49Q51.13 10.33 51.47 11L51.47 11L47.88 11Q47.13 9.57 46.37 8.45Q45.62 7.33 44.94 6.44L44.94 6.44Q44.10 7.56 43.43 8.62Q42.76 9.68 42.06 11L42.06 11L38.56 11Q38.98 10.22 39.53 9.36Q40.07 8.51 40.67 7.63Q41.28 6.74 41.93 5.88Q42.59 5.01 43.21 4.22L43.21 4.22L38.59-2.16L42.20-2.16ZM56.00 6.10L56.00 0.70L53.01 0.70L53.01-2.16L56.00-2.16L56.00-5.46L59.45-6.02L59.45-2.16L64.96-2.16L64.96 0.70L59.45 0.70L59.45 6.02Q59.45 6.74 59.59 7.19Q59.73 7.64 59.98 7.89Q60.23 8.14 60.60 8.23Q60.96 8.31 61.41 8.31L61.41 8.31Q61.88 8.31 62.29 8.28Q62.70 8.26 63.07 8.19Q63.45 8.12 63.86 7.98Q64.26 7.84 64.74 7.61L64.74 7.61L65.22 10.58Q64.26 10.97 63.16 11.14Q62.05 11.31 61.02 11.31L61.02 11.31Q59.81 11.31 58.89 11.11Q57.96 10.92 57.32 10.36Q56.68 9.80 56.34 8.77Q56.00 7.75 56.00 6.10L56.00 6.10ZM73.36 11L69.89 11L69.89 0.70L67.01 0.70L67.01-2.16L69.89-2.16L69.89-2.92Q69.89-4.51 70.35-5.56Q70.82-6.61 71.60-7.24Q72.38-7.87 73.39-8.14Q74.40-8.40 75.46-8.40L75.46-8.40Q76.56-8.40 77.70-8.21Q78.85-8.01 79.78-7.56L79.78-7.56L79.19-4.76Q78.54-4.99 77.58-5.23Q76.61-5.46 75.74-5.46L75.74-5.46Q75.27-5.46 74.83-5.38Q74.40-5.30 74.08-5.02Q73.76-4.74 73.56-4.22Q73.36-3.70 73.36-2.86L73.36-2.86L73.36-2.16L78.77-2.16L78.77 0.70L73.36 0.70L73.36 11ZM92.63 7.67L93.08 10.44Q92.99 10.50 92.70 10.64Q92.40 10.78 91.93 10.93Q91.45 11.08 90.77 11.20Q90.08 11.31 89.21 11.31L89.21 11.31Q86.83 11.31 85.74 9.89Q84.65 8.48 84.65 5.76L84.65 5.76L84.65-5.41L81.01-5.41L81.01-8.26L88.09-8.26L88.09 6.02Q88.09 7.36 88.62 7.84Q89.16 8.31 89.97 8.31L89.97 8.31Q91.00 8.31 91.70 8.03Q92.40 7.75 92.63 7.67L92.63 7.67ZM107.22 4.39L107.22 4.39Q107.22 5.96 106.77 7.23Q106.32 8.51 105.51 9.43Q104.70 10.36 103.56 10.86Q102.43 11.36 101.03 11.36L101.03 11.36Q99.63 11.36 98.49 10.86Q97.36 10.36 96.53 9.43Q95.71 8.51 95.26 7.23Q94.81 5.96 94.81 4.39L94.81 4.39Q94.81 2.85 95.27 1.58Q95.74 0.30 96.56-0.61Q97.39-1.52 98.54-2.01Q99.68-2.50 101.03-2.50L101.03-2.50Q102.40-2.50 103.53-2.01Q104.67-1.52 105.49-0.61Q106.32 0.30 106.77 1.58Q107.22 2.85 107.22 4.39ZM98.31 4.42L98.31 4.42Q98.31 6.18 98.94 7.28Q99.57 8.37 100.97 8.37L100.97 8.37Q102.32 8.37 103.00 7.28Q103.69 6.18 103.69 4.42L103.69 4.42Q103.69 2.66 103.06 1.58Q102.43 0.50 101.03 0.50L101.03 0.50Q99.68 0.50 99.00 1.58Q98.31 2.66 98.31 4.42ZM119.62 11L117.02 11Q116.71 10.13 116.44 9.40Q116.18 8.68 115.94 7.99Q115.70 7.30 115.46 6.56Q115.22 5.82 114.97 4.92L114.97 4.92Q114.69 5.82 114.47 6.53Q114.24 7.25 114.01 7.95Q113.77 8.65 113.52 9.38Q113.26 10.10 112.90 11L112.90 11L110.30 11Q109.96 9.77 109.67 8.27Q109.37 6.77 109.12 5.08Q108.87 3.38 108.67 1.56Q108.48-0.26 108.31-2.16L108.31-2.16L111.25-2.16Q111.36 0.28 111.49 2.60Q111.61 4.92 111.95 7.39L111.95 7.39Q112.31 6.32 112.58 5.41Q112.84 4.50 113.05 3.68Q113.26 2.85 113.45 2.08Q113.63 1.31 113.82 0.50L113.82 0.50L116.32 0.50Q116.48 1.31 116.67 2.08Q116.85 2.85 117.06 3.68Q117.27 4.50 117.51 5.41Q117.74 6.32 118.08 7.39L118.08 7.39Q118.25 6.10 118.36 4.92Q118.47 3.75 118.54 2.59Q118.61 1.42 118.65 0.26Q118.70-0.90 118.75-2.16L118.75-2.16L121.69-2.16Q121.38 1.68 120.84 5.06Q120.29 8.45 119.62 11L119.62 11Z"/>
    </g>
</svg>