<?xml version="1.0" encoding="UTF-8"?><svg height="26" width="98.7" version="1.1" xmlns="http://www.w3.org/2000/svg"><!--Created by Josélio de S. C. Júnior - 2021 - https://github.com/joseliojunior --><rect height="24" width="96.7" rx="1" ry="1" x="1" y="1" fill="#3d3c6e" stroke="#8685bc" stroke-width="1" /><g transform="translate(0, 8)"><path fill="#8685bc" d="M27.26 10L25.68 10Q25.01 8.35 24.22 6.71Q23.42 5.07 22.51 3.42L22.51 3.42L22.51 10L20.74 10L20.74 0.10L22.32 0.10Q22.77 0.80 23.22 1.62Q23.66 2.45 24.09 3.26Q24.51 4.08 24.87 4.85Q25.23 5.62 25.49 6.19L25.49 6.19L25.49 0.10L27.26 0.10L27.26 10ZM28.50 6.30L28.50 6.30Q28.50 5.31 28.80 4.56Q29.10 3.81 29.60 3.30Q30.10 2.80 30.74 2.54Q31.38 2.29 32.05 2.29L32.05 2.29Q33.71 2.29 34.58 3.27Q35.44 4.26 35.44 6.14L35.44 6.14Q35.44 6.34 35.43 6.54Q35.42 6.75 35.41 6.88L35.41 6.88L30.53 6.88Q30.53 7.62 31.14 8.04Q31.74 8.46 32.70 8.46L32.70 8.46Q33.30 8.46 33.83 8.34Q34.37 8.21 34.74 8.08L34.74 8.08L35.01 9.76Q34.50 9.94 33.92 10.06Q33.34 10.18 32.62 10.18L32.62 10.18Q31.66 10.18 30.90 9.93Q30.14 9.68 29.61 9.19Q29.07 8.70 28.78 7.98Q28.50 7.26 28.50 6.30ZM30.53 5.52L33.54 5.52Q33.54 5.22 33.46 4.94Q33.38 4.66 33.20 4.43Q33.02 4.21 32.75 4.07Q32.48 3.94 32.08 3.94L32.08 3.94Q31.70 3.94 31.42 4.06Q31.14 4.19 30.95 4.42Q30.77 4.64 30.66 4.93Q30.56 5.22 30.53 5.52L30.53 5.52ZM41.49 2.40L41.49 2.40Q42.11 2.40 42.51 2.59Q42.91 2.78 43.14 3.17Q43.38 3.55 43.46 4.14Q43.54 4.72 43.54 5.50L43.54 5.50L43.54 10L41.94 10L41.94 5.41Q41.94 4.96 41.88 4.69Q41.82 4.42 41.74 4.27Q41.65 4.13 41.53 4.08Q41.41 4.03 41.28 4.03L41.28 4.03Q41.14 4.03 40.98 4.06Q40.82 4.08 40.69 4.14L40.69 4.14Q40.74 4.45 40.77 4.82Q40.80 5.18 40.80 5.63L40.80 5.63L40.80 7.14L39.20 7.14L39.20 5.41Q39.20 4.64 39.05 4.34Q38.90 4.03 38.56 4.03L38.56 4.03Q38.46 4.03 38.33 4.05Q38.19 4.06 38.06 4.10L38.06 4.10L38.06 10L36.46 10L36.46 2.77Q37.09 2.59 37.70 2.50Q38.30 2.40 38.77 2.40L38.77 2.40Q39.18 2.40 39.51 2.50Q39.84 2.61 40.08 2.85L40.08 2.85Q40.35 2.67 40.72 2.54Q41.09 2.40 41.49 2.40ZM44.50 6.30L44.50 6.30Q44.50 5.31 44.80 4.56Q45.10 3.81 45.60 3.30Q46.10 2.80 46.74 2.54Q47.38 2.29 48.05 2.29L48.05 2.29Q49.71 2.29 50.58 3.27Q51.44 4.26 51.44 6.14L51.44 6.14Q51.44 6.34 51.43 6.54Q51.42 6.75 51.41 6.88L51.41 6.88L46.53 6.88Q46.53 7.62 47.14 8.04Q47.74 8.46 48.70 8.46L48.70 8.46Q49.30 8.46 49.83 8.34Q50.37 8.21 50.74 8.08L50.74 8.08L51.01 9.76Q50.50 9.94 49.92 10.06Q49.34 10.18 48.62 10.18L48.62 10.18Q47.66 10.18 46.90 9.93Q46.14 9.68 45.61 9.19Q45.07 8.70 44.78 7.98Q44.50 7.26 44.50 6.30ZM46.53 5.52L49.54 5.52Q49.54 5.22 49.46 4.94Q49.38 4.66 49.20 4.43Q49.02 4.21 48.75 4.07Q48.48 3.94 48.08 3.94L48.08 3.94Q47.70 3.94 47.42 4.06Q47.14 4.19 46.95 4.42Q46.77 4.64 46.66 4.93Q46.56 5.22 46.53 5.52L46.53 5.52ZM59.34 2.66L58.99 4.48Q58.80 4.43 58.54 4.38Q58.27 4.34 58 4.30Q57.73 4.26 57.47 4.24Q57.22 4.22 57.04 4.22L57.04 4.22Q56.62 4.22 56.22 4.26Q55.82 4.30 55.41 4.42L55.41 4.42L55.41 10L53.42 10L53.42 2.98Q54.21 2.69 55.03 2.51Q55.86 2.34 56.96 2.34L56.96 2.34Q57.12 2.34 57.42 2.35Q57.71 2.37 58.05 2.41Q58.38 2.45 58.73 2.50Q59.07 2.56 59.34 2.66L59.34 2.66ZM67.22 8.10L67.47 9.68Q67.42 9.71 67.26 9.79Q67.09 9.87 66.82 9.96Q66.54 10.05 66.15 10.11Q65.76 10.18 65.26 10.18L65.26 10.18Q63.90 10.18 63.28 9.37Q62.66 8.56 62.66 7.01L62.66 7.01L62.66 0.62L60.58 0.62L60.58-1.01L64.62-1.01L64.62 7.15Q64.62 7.92 64.93 8.19Q65.23 8.46 65.70 8.46L65.70 8.46Q66.29 8.46 66.69 8.30Q67.09 8.14 67.22 8.10L67.22 8.10ZM68.50 6.30L68.50 6.30Q68.50 5.31 68.80 4.56Q69.10 3.81 69.60 3.30Q70.10 2.80 70.74 2.54Q71.38 2.29 72.05 2.29L72.05 2.29Q73.71 2.29 74.58 3.27Q75.44 4.26 75.44 6.14L75.44 6.14Q75.44 6.34 75.43 6.54Q75.42 6.75 75.41 6.88L75.41 6.88L70.53 6.88Q70.53 7.62 71.14 8.04Q71.74 8.46 72.70 8.46L72.70 8.46Q73.30 8.46 73.83 8.34Q74.37 8.21 74.74 8.08L74.74 8.08L75.01 9.76Q74.50 9.94 73.92 10.06Q73.34 10.18 72.62 10.18L72.62 10.18Q71.66 10.18 70.90 9.93Q70.14 9.68 69.61 9.19Q69.07 8.70 68.78 7.98Q68.50 7.26 68.50 6.30ZM70.53 5.52L73.54 5.52Q73.54 5.22 73.46 4.94Q73.38 4.66 73.20 4.43Q73.02 4.21 72.75 4.07Q72.48 3.94 72.08 3.94L72.08 3.94Q71.70 3.94 71.42 4.06Q71.14 4.19 70.95 4.42Q70.77 4.64 70.66 4.93Q70.56 5.22 70.53 5.52L70.53 5.52Z"/></g></svg>