<?xml version="1.0" encoding="UTF-8"?>
<svg height="34" width="90.4" version="1.1" xmlns="http://www.w3.org/2000/svg">
    <rect
        height="32"
        width="88.4"
        rx="16"
        ry="16"
        x="1"
        y="1"
        fill="#34EB6B"
        stroke="#0c792d"
        stroke-width="1"
         />
    <g transform="translate(0, 12)">
        <path fill="#0c792d" d="M31.78 12L28.62 12L27.92 8.57L23.96 8.57L23.29 12L20.22 12Q21.27 7.61 22.35 4.00Q23.43 0.38 24.44-2.86L24.44-2.86L27.66-2.86Q28.71 0.41 29.76 4.07Q30.80 7.73 31.78 12L31.78 12ZM25.98 0.02L25.98 0.02Q25.74 0.86 25.53 1.62Q25.33 2.38 25.15 3.11Q24.97 3.84 24.81 4.58Q24.66 5.33 24.51 6.12L24.51 6.12L27.42 6.12Q27.27 5.33 27.13 4.58Q26.98 3.84 26.80 3.11Q26.62 2.38 26.42 1.62Q26.22 0.86 25.98 0.02ZM42.73 12L33.30 12L33.30 9.55L36.54 9.55L36.54-0.41L33.30-0.41L33.30-2.86L42.73-2.86L42.73-0.41L39.51-0.41L39.51 9.55L42.73 9.55L42.73 12ZM48.25-0.38L48.25 9.60Q48.37 9.62 48.51 9.62Q48.66 9.62 48.78 9.62L48.78 9.62Q49.78 9.62 50.47 9.24Q51.15 8.86 51.57 8.18Q51.99 7.51 52.17 6.59Q52.35 5.66 52.35 4.56L52.35 4.56Q52.35 3.60 52.21 2.69Q52.06 1.78 51.70 1.08Q51.34 0.38 50.72-0.04Q50.10-0.46 49.11-0.46L49.11-0.46Q48.92-0.46 48.68-0.44Q48.44-0.43 48.25-0.38L48.25-0.38ZM55.35 4.56L55.35 4.56Q55.35 6.62 54.84 8.08Q54.32 9.53 53.41 10.44Q52.50 11.35 51.24 11.77Q49.98 12.19 48.46 12.19L48.46 12.19Q47.67 12.19 46.92 12.11Q46.16 12.02 45.30 11.83L45.30 11.83L45.30-2.66Q46.30-2.88 47.19-2.95Q48.08-3.02 48.85-3.02L48.85-3.02Q50.31-3.02 51.52-2.59Q52.74-2.16 53.58-1.24Q54.42-0.31 54.88 1.12Q55.35 2.54 55.35 4.56ZM67.04 9.55L67.04 12L57.70 12L57.70-2.86L60.68-2.86L60.68 9.55L67.04 9.55Z"/>
    </g>
</svg>