<?xml version="1.0" encoding="UTF-8"?>
<svg height="26" width="74.4" version="1.1" xmlns="http://www.w3.org/2000/svg"><!--Created by Josélio de S. C. Júnior - 2021 - https://github.com/joseliojunior -->
    <rect
        height="24"
        width="72.4"
        rx="1"
        ry="1"
        x="1" y="1"
        fill="#34EB6B"
        stroke="#0c792d"
        stroke-width="1" />
    <g transform="translate(0, 8)">
        <path fill="#0c792d" stroke="none" d="M27.86 10L25.74 10L25.28 7.71L22.64 7.71L22.19 10L20.14 10Q20.85 7.07 21.57 4.66Q22.29 2.26 22.96 0.10L22.96 0.10L25.10 0.10Q25.81 2.27 26.50 4.71Q27.20 7.15 27.86 10L27.86 10ZM23.98 2.02L23.98 2.02Q23.82 2.58 23.69 3.08Q23.55 3.58 23.43 4.07Q23.31 4.56 23.21 5.06Q23.10 5.55 23.01 6.08L23.01 6.08L24.94 6.08Q24.85 5.55 24.75 5.06Q24.66 4.56 24.54 4.07Q24.42 3.58 24.28 3.08Q24.14 2.58 23.98 2.02ZM35.15 10L28.86 10L28.86 8.37L31.02 8.37L31.02 1.73L28.86 1.73L28.86 0.10L35.15 0.10L35.15 1.73L33.01 1.73L33.01 8.37L35.15 8.37L35.15 10ZM38.83 1.74L38.83 8.40Q38.91 8.42 39.01 8.42Q39.10 8.42 39.18 8.42L39.18 8.42Q39.86 8.42 40.31 8.16Q40.77 7.90 41.05 7.46Q41.33 7.01 41.45 6.39Q41.57 5.78 41.57 5.04L41.57 5.04Q41.57 4.40 41.47 3.79Q41.38 3.18 41.14 2.72Q40.90 2.26 40.48 1.98Q40.06 1.70 39.41 1.70L39.41 1.70Q39.28 1.70 39.12 1.70Q38.96 1.71 38.83 1.74L38.83 1.74ZM43.57 5.04L43.57 5.04Q43.57 6.42 43.22 7.38Q42.88 8.35 42.27 8.96Q41.66 9.57 40.82 9.85Q39.98 10.13 38.98 10.13L38.98 10.13Q38.45 10.13 37.94 10.07Q37.44 10.02 36.86 9.89L36.86 9.89L36.86 0.22Q37.54 0.08 38.13 0.03Q38.72-0.02 39.23-0.02L39.23-0.02Q40.21-0.02 41.02 0.27Q41.82 0.56 42.38 1.18Q42.94 1.79 43.26 2.74Q43.57 3.70 43.57 5.04ZM51.36 8.37L51.36 10L45.14 10L45.14 0.10L47.12 0.10L47.12 8.37L51.36 8.37Z"/>
    </g>
</svg>