<?xml version="1.0" encoding="UTF-8"?>
<svg height="34" width="284" version="1.1" xmlns="http://www.w3.org/2000/svg"><!--Created by Josélio de S. C. Júnior - 2021 - https://github.com/joseliojunior -->
    <defs>
        <pattern id="pattern"
                x="1.5" y="3" width="3" height="6"
                patternUnits="userSpaceOnUse"
                patternTransform="rotate(45)" >
            <rect height="6" width="1" fill="#999999"/>
        </pattern>
    </defs>
    <rect
        height="32"
        width="282"
        rx="1"
        ry="1"
        x="1" y="1"
        fill="url(#pattern)"
        stroke="#000000"
        stroke-width="1" />
    <g transform="translate(0, 12)">
        <path fill="#ffffff" stroke="#000000" d="M25.57 9.84L25.57 9.84Q26.31 9.84 26.80 9.68Q27.30 9.53 27.58 9.25Q27.87 8.98 27.98 8.63Q28.09 8.28 28.09 7.92L28.09 7.92Q28.09 7.46 27.82 7.10Q27.56 6.74 27.15 6.47Q26.74 6.19 26.24 5.96Q25.74 5.74 25.23 5.54L25.23 5.54Q24.56 5.30 23.84 4.99Q23.12 4.68 22.53 4.20Q21.94 3.72 21.56 3.01Q21.18 2.30 21.18 1.25L21.18 1.25Q21.18-0.84 22.53-2.02Q23.89-3.19 26.26-3.19L26.26-3.19Q27.63-3.19 28.65-2.88Q29.67-2.57 30.37-2.18L30.37-2.18L29.50 0.10Q28.90-0.24 28.17-0.48Q27.44-0.72 26.48-0.72L26.48-0.72Q24.13-0.72 24.13 0.98L24.13 0.98Q24.13 1.42 24.37 1.74Q24.61 2.06 24.98 2.32Q25.35 2.57 25.82 2.76Q26.29 2.95 26.74 3.12L26.74 3.12Q27.44 3.38 28.20 3.71Q28.95 4.03 29.59 4.57Q30.22 5.11 30.63 5.92Q31.04 6.72 31.04 7.94L31.04 7.94Q31.04 10.03 29.68 11.17Q28.33 12.31 25.57 12.31L25.57 12.31Q23.72 12.31 22.62 11.92Q21.51 11.52 20.96 11.18L20.96 11.18L21.82 8.78Q22.47 9.17 23.37 9.50Q24.27 9.84 25.57 9.84ZM40.26 6.46L40.26 6.46Q40.26 4.94 39.66 3.97Q39.06 3 37.83 3L37.83 3Q37.50 3 37.11 3.04Q36.73 3.07 36.46 3.10L36.46 3.10L36.46 9.29Q36.75 9.48 37.23 9.60Q37.71 9.72 38.19 9.72L38.19 9.72Q39.25 9.72 39.75 8.87Q40.26 8.02 40.26 6.46ZM43.26 6.36L43.26 6.36Q43.26 7.66 42.97 8.75Q42.68 9.84 42.13 10.62Q41.58 11.40 40.74 11.83Q39.90 12.26 38.79 12.26L38.79 12.26Q37.66 12.26 36.46 11.71L36.46 11.71L36.46 15.96L33.51 15.96L33.51 1.08Q34.33 0.82 35.52 0.65Q36.70 0.48 37.86 0.48L37.86 0.48Q40.47 0.48 41.86 2.06Q43.26 3.65 43.26 6.36ZM54.82 9.14L55.21 11.52Q55.14 11.57 54.88 11.69Q54.63 11.81 54.22 11.94Q53.82 12.07 53.23 12.17Q52.64 12.26 51.90 12.26L51.90 12.26Q49.86 12.26 48.92 11.05Q47.98 9.84 47.98 7.51L47.98 7.51L47.98-2.06L44.86-2.06L44.86-4.51L50.94-4.51L50.94 7.73Q50.94 8.88 51.39 9.29Q51.85 9.70 52.54 9.70L52.54 9.70Q53.43 9.70 54.03 9.46Q54.63 9.22 54.82 9.14L54.82 9.14ZM62.82-2.52L62.82-2.52Q62.82-1.66 62.26-1.15Q61.71-0.65 60.94-0.65L60.94-0.65Q60.18-0.65 59.64-1.15Q59.10-1.66 59.10-2.52L59.10-2.52Q59.10-3.41 59.64-3.91Q60.18-4.42 60.94-4.42L60.94-4.42Q61.71-4.42 62.26-3.91Q62.82-3.41 62.82-2.52ZM66.82 9.14L67.21 11.52Q66.30 11.95 65.49 12.11Q64.69 12.26 64.02 12.26L64.02 12.26Q62.86 12.26 62.08 11.93Q61.30 11.59 60.84 10.96Q60.37 10.32 60.18 9.41Q59.98 8.50 59.98 7.32L59.98 7.32L59.98 3.17L56.86 3.17L56.86 0.72L62.94 0.72L62.94 7.70Q62.94 8.71 63.31 9.20Q63.68 9.70 64.54 9.70L64.54 9.70Q64.95 9.70 65.53 9.59Q66.10 9.48 66.82 9.14L66.82 9.14ZM69.51 12L69.51 1.08Q70.30 0.86 71.47 0.67Q72.63 0.48 74 0.48L74 0.48Q75.34 0.48 76.23 0.85Q77.12 1.22 77.64 1.91Q78.15 2.59 78.37 3.54Q78.58 4.49 78.58 5.64L78.58 5.64L78.58 12L75.63 12L75.63 6.02Q75.63 4.44 75.27 3.74Q74.91 3.05 73.81 3.05L73.81 3.05Q73.47 3.05 73.15 3.07Q72.82 3.10 72.46 3.14L72.46 3.14L72.46 12L69.51 12ZM80.74 6.46L80.74 6.46Q80.74 4.97 81.20 3.84Q81.66 2.71 82.40 1.96Q83.14 1.20 84.10 0.82Q85.06 0.43 86.07 0.43L86.07 0.43Q88.57 0.43 89.86 1.91Q91.16 3.38 91.16 6.22L91.16 6.22Q91.16 6.50 91.15 6.82Q91.14 7.13 91.11 7.32L91.11 7.32L83.79 7.32Q83.79 8.42 84.70 9.06Q85.62 9.70 87.06 9.70L87.06 9.70Q87.94 9.70 88.75 9.50Q89.55 9.31 90.10 9.12L90.10 9.12L90.51 11.64Q89.74 11.90 88.88 12.08Q88.02 12.26 86.94 12.26L86.94 12.26Q85.50 12.26 84.36 11.89Q83.22 11.52 82.41 10.79Q81.61 10.06 81.18 8.98Q80.74 7.90 80.74 6.46ZM83.79 5.28L88.30 5.28Q88.30 4.82 88.18 4.40Q88.06 3.98 87.80 3.65Q87.54 3.31 87.13 3.11Q86.72 2.90 86.12 2.90L86.12 2.90Q85.54 2.90 85.12 3.10Q84.70 3.29 84.43 3.62Q84.15 3.96 84.00 4.39Q83.84 4.82 83.79 5.28L83.79 5.28ZM108.46 12L105.51 12L105.51-2.86L114.61-2.86L114.61-0.41L108.46-0.41L108.46 3.19L113.84 3.19L113.84 5.64L108.46 5.64L108.46 12ZM127.33 6.34L127.33 6.34Q127.33 7.68 126.94 8.77Q126.56 9.86 125.86 10.66Q125.17 11.45 124.20 11.88Q123.22 12.31 122.02 12.31L122.02 12.31Q120.82 12.31 119.85 11.88Q118.88 11.45 118.17 10.66Q117.46 9.86 117.08 8.77Q116.70 7.68 116.70 6.34L116.70 6.34Q116.70 5.02 117.09 3.92Q117.49 2.83 118.20 2.05Q118.90 1.27 119.89 0.85Q120.87 0.43 122.02 0.43L122.02 0.43Q123.20 0.43 124.17 0.85Q125.14 1.27 125.85 2.05Q126.56 2.83 126.94 3.92Q127.33 5.02 127.33 6.34ZM119.70 6.36L119.70 6.36Q119.70 7.87 120.24 8.81Q120.78 9.74 121.98 9.74L121.98 9.74Q123.13 9.74 123.72 8.81Q124.30 7.87 124.30 6.36L124.30 6.36Q124.30 4.85 123.76 3.92Q123.22 3 122.02 3L122.02 3Q120.87 3 120.28 3.92Q119.70 4.85 119.70 6.36ZM129.51 12L129.51 1.08Q130.30 0.86 131.47 0.67Q132.63 0.48 134 0.48L134 0.48Q135.34 0.48 136.23 0.85Q137.12 1.22 137.64 1.91Q138.15 2.59 138.37 3.54Q138.58 4.49 138.58 5.64L138.58 5.64L138.58 12L135.63 12L135.63 6.02Q135.63 4.44 135.27 3.74Q134.91 3.05 133.81 3.05L133.81 3.05Q133.47 3.05 133.15 3.07Q132.82 3.10 132.46 3.14L132.46 3.14L132.46 12L129.51 12ZM143.43 7.80L143.43 3.17L140.86 3.17L140.86 0.72L143.43 0.72L143.43-2.11L146.38-2.59L146.38 0.72L151.11 0.72L151.11 3.17L146.38 3.17L146.38 7.73Q146.38 8.35 146.50 8.74Q146.62 9.12 146.84 9.34Q147.06 9.55 147.37 9.62Q147.68 9.70 148.06 9.70L148.06 9.70Q148.47 9.70 148.82 9.67Q149.17 9.65 149.49 9.59Q149.82 9.53 150.16 9.41Q150.51 9.29 150.92 9.10L150.92 9.10L151.33 11.64Q150.51 11.98 149.56 12.12Q148.62 12.26 147.73 12.26L147.73 12.26Q146.70 12.26 145.90 12.10Q145.11 11.93 144.56 11.45Q144.01 10.97 143.72 10.09Q143.43 9.22 143.43 7.80L143.43 7.80ZM168.25-0.38L168.25 9.60Q168.37 9.62 168.51 9.62Q168.66 9.62 168.78 9.62L168.78 9.62Q169.78 9.62 170.47 9.24Q171.15 8.86 171.57 8.18Q171.99 7.51 172.17 6.59Q172.35 5.66 172.35 4.56L172.35 4.56Q172.35 3.60 172.21 2.69Q172.06 1.78 171.70 1.08Q171.34 0.38 170.72-0.04Q170.10-0.46 169.11-0.46L169.11-0.46Q168.92-0.46 168.68-0.44Q168.44-0.43 168.25-0.38L168.25-0.38ZM175.35 4.56L175.35 4.56Q175.35 6.62 174.84 8.08Q174.32 9.53 173.41 10.44Q172.50 11.35 171.24 11.77Q169.98 12.19 168.46 12.19L168.46 12.19Q167.67 12.19 166.92 12.11Q166.16 12.02 165.30 11.83L165.30 11.83L165.30-2.66Q166.30-2.88 167.19-2.95Q168.08-3.02 168.85-3.02L168.85-3.02Q170.31-3.02 171.52-2.59Q172.74-2.16 173.58-1.24Q174.42-0.31 174.88 1.12Q175.35 2.54 175.35 4.56ZM182.02 9.89L182.02 9.89Q182.50 9.89 182.96 9.88Q183.42 9.86 183.75 9.82L183.75 9.82L183.75 7.22Q183.46 7.18 183.06 7.14Q182.65 7.10 182.31 7.10L182.31 7.10Q181.86 7.10 181.42 7.16Q180.99 7.22 180.67 7.37Q180.34 7.51 180.15 7.78Q179.96 8.04 179.96 8.47L179.96 8.47Q179.96 9.24 180.54 9.56Q181.11 9.89 182.02 9.89ZM181.76 0.43L181.76 0.43Q183.15 0.43 184.08 0.76Q185 1.08 185.55 1.67Q186.10 2.26 186.34 3.11Q186.58 3.96 186.58 5.02L186.58 5.02L186.58 11.74Q185.94 11.88 184.66 12.07Q183.39 12.26 181.81 12.26L181.81 12.26Q180.73 12.26 179.85 12.07Q178.98 11.88 178.35 11.44Q177.73 10.99 177.39 10.28Q177.06 9.58 177.06 8.54L177.06 8.54Q177.06 7.56 177.44 6.89Q177.82 6.22 178.47 5.81Q179.12 5.40 179.96 5.22Q180.80 5.04 181.71 5.04L181.71 5.04Q182.86 5.04 183.75 5.23L183.75 5.23L183.75 4.87Q183.75 4.03 183.22 3.47Q182.70 2.90 181.40 2.90L181.40 2.90Q180.56 2.90 179.78 3.02Q179 3.14 178.52 3.31L178.52 3.31L178.11 0.94Q178.66 0.74 179.67 0.59Q180.68 0.43 181.76 0.43ZM191.43 7.80L191.43 3.17L188.86 3.17L188.86 0.72L191.43 0.72L191.43-2.11L194.38-2.59L194.38 0.72L199.11 0.72L199.11 3.17L194.38 3.17L194.38 7.73Q194.38 8.35 194.50 8.74Q194.62 9.12 194.84 9.34Q195.06 9.55 195.37 9.62Q195.68 9.70 196.06 9.70L196.06 9.70Q196.47 9.70 196.82 9.67Q197.17 9.65 197.49 9.59Q197.82 9.53 198.16 9.41Q198.51 9.29 198.92 9.10L198.92 9.10L199.33 11.64Q198.51 11.98 197.56 12.12Q196.62 12.26 195.73 12.26L195.73 12.26Q194.70 12.26 193.90 12.10Q193.11 11.93 192.56 11.45Q192.01 10.97 191.72 10.09Q191.43 9.22 191.43 7.80L191.43 7.80ZM206.02 9.89L206.02 9.89Q206.50 9.89 206.96 9.88Q207.42 9.86 207.75 9.82L207.75 9.82L207.75 7.22Q207.46 7.18 207.06 7.14Q206.65 7.10 206.31 7.10L206.31 7.10Q205.86 7.10 205.42 7.16Q204.99 7.22 204.67 7.37Q204.34 7.51 204.15 7.78Q203.96 8.04 203.96 8.47L203.96 8.47Q203.96 9.24 204.54 9.56Q205.11 9.89 206.02 9.89ZM205.76 0.43L205.76 0.43Q207.15 0.43 208.08 0.76Q209 1.08 209.55 1.67Q210.10 2.26 210.34 3.11Q210.58 3.96 210.58 5.02L210.58 5.02L210.58 11.74Q209.94 11.88 208.66 12.07Q207.39 12.26 205.81 12.26L205.81 12.26Q204.73 12.26 203.85 12.07Q202.98 11.88 202.35 11.44Q201.73 10.99 201.39 10.28Q201.06 9.58 201.06 8.54L201.06 8.54Q201.06 7.56 201.44 6.89Q201.82 6.22 202.47 5.81Q203.12 5.40 203.96 5.22Q204.80 5.04 205.71 5.04L205.71 5.04Q206.86 5.04 207.75 5.23L207.75 5.23L207.75 4.87Q207.75 4.03 207.22 3.47Q206.70 2.90 205.40 2.90L205.40 2.90Q204.56 2.90 203.78 3.02Q203 3.14 202.52 3.31L202.52 3.31L202.11 0.94Q202.66 0.74 203.67 0.59Q204.68 0.43 205.76 0.43ZM220.28 6.29L220.28 6.29Q220.28 4.70 219.76 3.86Q219.25 3.02 218.19 3.02L218.19 3.02Q217.71 3.02 217.24 3.16Q216.78 3.29 216.44 3.48L216.44 3.48L216.44 9.60Q216.78 9.67 217.15 9.70Q217.52 9.72 217.78 9.72L217.78 9.72Q218.94 9.72 219.61 8.94Q220.28 8.16 220.28 6.29ZM223.28 6.36L223.28 6.36Q223.28 7.70 222.92 8.80Q222.56 9.89 221.86 10.66Q221.17 11.42 220.16 11.84Q219.15 12.26 217.86 12.26L217.86 12.26Q216.70 12.26 215.50 12.10Q214.30 11.93 213.49 11.66L213.49 11.66L213.49-4.15L216.44-4.66L216.44 0.98Q217.06 0.70 217.64 0.59Q218.22 0.48 218.79 0.48L218.79 0.48Q219.90 0.48 220.74 0.90Q221.58 1.32 222.14 2.10Q222.70 2.88 222.99 3.96Q223.28 5.04 223.28 6.36ZM230.02 9.89L230.02 9.89Q230.50 9.89 230.96 9.88Q231.42 9.86 231.75 9.82L231.75 9.82L231.75 7.22Q231.46 7.18 231.06 7.14Q230.65 7.10 230.31 7.10L230.31 7.10Q229.86 7.10 229.42 7.16Q228.99 7.22 228.67 7.37Q228.34 7.51 228.15 7.78Q227.96 8.04 227.96 8.47L227.96 8.47Q227.96 9.24 228.54 9.56Q229.11 9.89 230.02 9.89ZM229.76 0.43L229.76 0.43Q231.15 0.43 232.08 0.76Q233 1.08 233.55 1.67Q234.10 2.26 234.34 3.11Q234.58 3.96 234.58 5.02L234.58 5.02L234.58 11.74Q233.94 11.88 232.66 12.07Q231.39 12.26 229.81 12.26L229.81 12.26Q228.73 12.26 227.85 12.07Q226.98 11.88 226.35 11.44Q225.73 10.99 225.39 10.28Q225.06 9.58 225.06 8.54L225.06 8.54Q225.06 7.56 225.44 6.89Q225.82 6.22 226.47 5.81Q227.12 5.40 227.96 5.22Q228.80 5.04 229.71 5.04L229.71 5.04Q230.86 5.04 231.75 5.23L231.75 5.23L231.75 4.87Q231.75 4.03 231.22 3.47Q230.70 2.90 229.40 2.90L229.40 2.90Q228.56 2.90 227.78 3.02Q227 3.14 226.52 3.31L226.52 3.31L226.11 0.94Q226.66 0.74 227.67 0.59Q228.68 0.43 229.76 0.43ZM241.47 9.77L241.47 9.77Q242.55 9.77 243.13 9.61Q243.70 9.46 243.70 8.98L243.70 8.98Q243.70 8.66 243.52 8.45Q243.34 8.23 243.02 8.08Q242.70 7.92 242.28 7.78Q241.86 7.63 241.40 7.49L241.40 7.49Q240.75 7.30 240.08 7.04Q239.41 6.79 238.86 6.41Q238.30 6.02 237.94 5.44Q237.58 4.85 237.58 3.96L237.58 3.96Q237.58 3.24 237.86 2.60Q238.14 1.97 238.72 1.48Q239.31 0.98 240.22 0.71Q241.14 0.43 242.41 0.43L242.41 0.43Q243.51 0.43 244.46 0.60Q245.41 0.77 246.10 1.08L246.10 1.08L245.65 3.58Q245.24 3.46 244.38 3.18Q243.51 2.90 242.43 2.90L242.43 2.90Q241.30 2.90 240.91 3.18Q240.51 3.46 240.51 3.77L240.51 3.77Q240.51 4.03 240.69 4.24Q240.87 4.44 241.17 4.61Q241.47 4.78 241.87 4.93Q242.26 5.09 242.72 5.23L242.72 5.23Q243.37 5.45 244.06 5.71Q244.76 5.98 245.32 6.37Q245.89 6.77 246.25 7.38Q246.61 7.99 246.61 8.88L246.61 8.88Q246.61 9.58 246.34 10.20Q246.08 10.82 245.47 11.28Q244.86 11.74 243.87 12Q242.89 12.26 241.45 12.26L241.45 12.26Q239.98 12.26 238.95 11.93Q237.92 11.59 237.30 11.33L237.30 11.33L237.75 8.86Q238.59 9.19 239.54 9.48Q240.49 9.77 241.47 9.77ZM248.74 6.46L248.74 6.46Q248.74 4.97 249.20 3.84Q249.66 2.71 250.40 1.96Q251.14 1.20 252.10 0.82Q253.06 0.43 254.07 0.43L254.07 0.43Q256.57 0.43 257.86 1.91Q259.16 3.38 259.16 6.22L259.16 6.22Q259.16 6.50 259.15 6.82Q259.14 7.13 259.11 7.32L259.11 7.32L251.79 7.32Q251.79 8.42 252.70 9.06Q253.62 9.70 255.06 9.70L255.06 9.70Q255.94 9.70 256.75 9.50Q257.55 9.31 258.10 9.12L258.10 9.12L258.51 11.64Q257.74 11.90 256.88 12.08Q256.02 12.26 254.94 12.26L254.94 12.26Q253.50 12.26 252.36 11.89Q251.22 11.52 250.41 10.79Q249.61 10.06 249.18 8.98Q248.74 7.90 248.74 6.46ZM251.79 5.28L256.30 5.28Q256.30 4.82 256.18 4.40Q256.06 3.98 255.80 3.65Q255.54 3.31 255.13 3.11Q254.72 2.90 254.12 2.90L254.12 2.90Q253.54 2.90 253.12 3.10Q252.70 3.29 252.43 3.62Q252.15 3.96 252.00 4.39Q251.84 4.82 251.79 5.28L251.79 5.28Z"/>
    </g>
</svg>