<?xml version="1.0" encoding="UTF-8"?>
<svg height="26" width="204" version="1.1" xmlns="http://www.w3.org/2000/svg"><!--Created by Josélio de S. C. Júnior - 2021 - https://github.com/joseliojunior -->
    <defs>
        <pattern id="pattern"
                x="1.5" y="3" width="3" height="6"
                patternUnits="userSpaceOnUse"
                patternTransform="rotate(45)" >
            <rect height="6" width="1" fill="#999999"/>
        </pattern>
    </defs>
    <rect
        height="24"
        width="202"
        rx="1"
        ry="1"
        x="1" y="1"
        fill="url(#pattern)"
        stroke="#000000"
        stroke-width="1" />
    <g transform="translate(0, 8)">
        <path fill="#ffffff" stroke="#000000" d="M23.71 8.56L23.71 8.56Q24.21 8.56 24.54 8.46Q24.86 8.35 25.06 8.17Q25.25 7.98 25.32 7.75Q25.39 7.52 25.39 7.28L25.39 7.28Q25.39 6.98 25.22 6.74Q25.04 6.50 24.77 6.31Q24.50 6.13 24.16 5.98Q23.82 5.82 23.49 5.70L23.49 5.70Q23.04 5.54 22.56 5.33Q22.08 5.12 21.69 4.80Q21.30 4.48 21.04 4.01Q20.78 3.54 20.78 2.83L20.78 2.83Q20.78 1.44 21.69 0.66Q22.59-0.13 24.18-0.13L24.18-0.13Q25.09-0.13 25.77 0.08Q26.45 0.29 26.91 0.54L26.91 0.54L26.34 2.06Q25.94 1.84 25.45 1.68Q24.96 1.52 24.32 1.52L24.32 1.52Q22.75 1.52 22.75 2.66L22.75 2.66Q22.75 2.94 22.91 3.16Q23.07 3.38 23.32 3.54Q23.57 3.71 23.88 3.84Q24.19 3.97 24.50 4.08L24.50 4.08Q24.96 4.26 25.46 4.47Q25.97 4.69 26.39 5.05Q26.82 5.41 27.09 5.94Q27.36 6.48 27.36 7.30L27.36 7.30Q27.36 8.69 26.46 9.45Q25.55 10.21 23.71 10.21L23.71 10.21Q22.48 10.21 21.74 9.94Q21.01 9.68 20.64 9.46L20.64 9.46L21.22 7.86Q21.65 8.11 22.25 8.34Q22.85 8.56 23.71 8.56ZM33.50 6.30L33.50 6.30Q33.50 5.30 33.10 4.65Q32.70 4 31.89 4L31.89 4Q31.66 4 31.41 4.02Q31.15 4.05 30.98 4.06L30.98 4.06L30.98 8.19Q31.17 8.32 31.49 8.40Q31.81 8.48 32.13 8.48L32.13 8.48Q32.83 8.48 33.17 7.91Q33.50 7.34 33.50 6.30ZM35.50 6.24L35.50 6.24Q35.50 7.10 35.31 7.83Q35.12 8.56 34.75 9.08Q34.38 9.60 33.82 9.89Q33.26 10.18 32.53 10.18L32.53 10.18Q31.78 10.18 30.98 9.81L30.98 9.81L30.98 12.64L29.01 12.64L29.01 2.72Q29.55 2.54 30.34 2.43Q31.14 2.32 31.90 2.32L31.90 2.32Q33.65 2.32 34.58 3.38Q35.50 4.43 35.50 6.24ZM43.22 8.10L43.47 9.68Q43.42 9.71 43.26 9.79Q43.09 9.87 42.82 9.96Q42.54 10.05 42.15 10.11Q41.76 10.18 41.26 10.18L41.26 10.18Q39.90 10.18 39.28 9.37Q38.66 8.56 38.66 7.01L38.66 7.01L38.66 0.62L36.58 0.62L36.58-1.01L40.62-1.01L40.62 7.15Q40.62 7.92 40.93 8.19Q41.23 8.46 41.70 8.46L41.70 8.46Q42.29 8.46 42.69 8.30Q43.09 8.14 43.22 8.10L43.22 8.10ZM48.54 0.32L48.54 0.32Q48.54 0.90 48.18 1.23Q47.81 1.57 47.30 1.57L47.30 1.57Q46.78 1.57 46.42 1.23Q46.06 0.90 46.06 0.32L46.06 0.32Q46.06-0.27 46.42-0.61Q46.78-0.94 47.30-0.94L47.30-0.94Q47.81-0.94 48.18-0.61Q48.54-0.27 48.54 0.32ZM51.22 8.10L51.47 9.68Q50.86 9.97 50.33 10.07Q49.79 10.18 49.34 10.18L49.34 10.18Q48.58 10.18 48.06 9.95Q47.54 9.73 47.22 9.30Q46.91 8.88 46.78 8.27Q46.66 7.66 46.66 6.88L46.66 6.88L46.66 4.11L44.58 4.11L44.58 2.48L48.62 2.48L48.62 7.14Q48.62 7.81 48.87 8.14Q49.12 8.46 49.70 8.46L49.70 8.46Q49.97 8.46 50.35 8.39Q50.74 8.32 51.22 8.10L51.22 8.10ZM53.01 10L53.01 2.72Q53.54 2.58 54.31 2.45Q55.09 2.32 56 2.32L56 2.32Q56.90 2.32 57.49 2.57Q58.08 2.82 58.42 3.27Q58.77 3.73 58.91 4.36Q59.06 4.99 59.06 5.76L59.06 5.76L59.06 10L57.09 10L57.09 6.02Q57.09 4.96 56.85 4.50Q56.61 4.03 55.87 4.03L55.87 4.03Q55.65 4.03 55.43 4.05Q55.22 4.06 54.98 4.10L54.98 4.10L54.98 10L53.01 10ZM60.50 6.30L60.50 6.30Q60.50 5.31 60.80 4.56Q61.10 3.81 61.60 3.30Q62.10 2.80 62.74 2.54Q63.38 2.29 64.05 2.29L64.05 2.29Q65.71 2.29 66.58 3.27Q67.44 4.26 67.44 6.14L67.44 6.14Q67.44 6.34 67.43 6.54Q67.42 6.75 67.41 6.88L67.41 6.88L62.53 6.88Q62.53 7.62 63.14 8.04Q63.74 8.46 64.70 8.46L64.70 8.46Q65.30 8.46 65.83 8.34Q66.37 8.21 66.74 8.08L66.74 8.08L67.01 9.76Q66.50 9.94 65.92 10.06Q65.34 10.18 64.62 10.18L64.62 10.18Q63.66 10.18 62.90 9.93Q62.14 9.68 61.61 9.19Q61.07 8.70 60.78 7.98Q60.50 7.26 60.50 6.30ZM62.53 5.52L65.54 5.52Q65.54 5.22 65.46 4.94Q65.38 4.66 65.20 4.43Q65.02 4.21 64.75 4.07Q64.48 3.94 64.08 3.94L64.08 3.94Q63.70 3.94 63.42 4.06Q63.14 4.19 62.95 4.42Q62.77 4.64 62.66 4.93Q62.56 5.22 62.53 5.52L62.53 5.52ZM78.98 10L77.01 10L77.01 0.10L83.07 0.10L83.07 1.73L78.98 1.73L78.98 4.13L82.56 4.13L82.56 5.76L78.98 5.76L78.98 10ZM91.55 6.22L91.55 6.22Q91.55 7.12 91.30 7.85Q91.04 8.58 90.58 9.10Q90.11 9.63 89.46 9.92Q88.82 10.21 88.02 10.21L88.02 10.21Q87.22 10.21 86.57 9.92Q85.92 9.63 85.45 9.10Q84.98 8.58 84.72 7.85Q84.46 7.12 84.46 6.22L84.46 6.22Q84.46 5.34 84.73 4.62Q84.99 3.89 85.46 3.37Q85.94 2.85 86.59 2.57Q87.25 2.29 88.02 2.29L88.02 2.29Q88.80 2.29 89.45 2.57Q90.10 2.85 90.57 3.37Q91.04 3.89 91.30 4.62Q91.55 5.34 91.55 6.22ZM86.46 6.24L86.46 6.24Q86.46 7.25 86.82 7.87Q87.18 8.50 87.98 8.50L87.98 8.50Q88.75 8.50 89.14 7.87Q89.54 7.25 89.54 6.24L89.54 6.24Q89.54 5.23 89.18 4.62Q88.82 4 88.02 4L88.02 4Q87.25 4 86.86 4.62Q86.46 5.23 86.46 6.24ZM93.01 10L93.01 2.72Q93.54 2.58 94.31 2.45Q95.09 2.32 96 2.32L96 2.32Q96.90 2.32 97.49 2.57Q98.08 2.82 98.42 3.27Q98.77 3.73 98.91 4.36Q99.06 4.99 99.06 5.76L99.06 5.76L99.06 10L97.09 10L97.09 6.02Q97.09 4.96 96.85 4.50Q96.61 4.03 95.87 4.03L95.87 4.03Q95.65 4.03 95.43 4.05Q95.22 4.06 94.98 4.10L94.98 4.10L94.98 10L93.01 10ZM102.29 7.20L102.29 4.11L100.58 4.11L100.58 2.48L102.29 2.48L102.29 0.59L104.26 0.27L104.26 2.48L107.41 2.48L107.41 4.11L104.26 4.11L104.26 7.15Q104.26 7.57 104.34 7.82Q104.42 8.08 104.56 8.22Q104.70 8.37 104.91 8.42Q105.12 8.46 105.38 8.46L105.38 8.46Q105.65 8.46 105.88 8.45Q106.11 8.43 106.33 8.39Q106.54 8.35 106.78 8.27Q107.01 8.19 107.28 8.06L107.28 8.06L107.55 9.76Q107.01 9.98 106.38 10.08Q105.74 10.18 105.15 10.18L105.15 10.18Q104.46 10.18 103.94 10.06Q103.41 9.95 103.04 9.63Q102.67 9.31 102.48 8.73Q102.29 8.14 102.29 7.20L102.29 7.20ZM118.83 1.74L118.83 8.40Q118.91 8.42 119.01 8.42Q119.10 8.42 119.18 8.42L119.18 8.42Q119.86 8.42 120.31 8.16Q120.77 7.90 121.05 7.46Q121.33 7.01 121.45 6.39Q121.57 5.78 121.57 5.04L121.57 5.04Q121.57 4.40 121.47 3.79Q121.38 3.18 121.14 2.72Q120.90 2.26 120.48 1.98Q120.06 1.70 119.41 1.70L119.41 1.70Q119.28 1.70 119.12 1.70Q118.96 1.71 118.83 1.74L118.83 1.74ZM123.57 5.04L123.57 5.04Q123.57 6.42 123.22 7.38Q122.88 8.35 122.27 8.96Q121.66 9.57 120.82 9.85Q119.98 10.13 118.98 10.13L118.98 10.13Q118.45 10.13 117.94 10.07Q117.44 10.02 116.86 9.89L116.86 9.89L116.86 0.22Q117.54 0.08 118.13 0.03Q118.72-0.02 119.23-0.02L119.23-0.02Q120.21-0.02 121.02 0.27Q121.82 0.56 122.38 1.18Q122.94 1.79 123.26 2.74Q123.57 3.70 123.57 5.04ZM128.02 8.59L128.02 8.59Q128.34 8.59 128.64 8.58Q128.94 8.58 129.17 8.54L129.17 8.54L129.17 6.82Q128.98 6.78 128.70 6.76Q128.43 6.74 128.21 6.74L128.21 6.74Q127.90 6.74 127.62 6.78Q127.33 6.82 127.11 6.91Q126.90 7.01 126.77 7.18Q126.64 7.36 126.64 7.65L126.64 7.65Q126.64 8.16 127.02 8.38Q127.41 8.59 128.02 8.59ZM127.84 2.29L127.84 2.29Q128.77 2.29 129.38 2.50Q130 2.72 130.37 3.11Q130.74 3.50 130.90 4.07Q131.06 4.64 131.06 5.34L131.06 5.34L131.06 9.82Q130.62 9.92 129.78 10.05Q128.93 10.18 127.87 10.18L127.87 10.18Q127.15 10.18 126.57 10.05Q125.98 9.92 125.57 9.62Q125.15 9.33 124.93 8.86Q124.70 8.38 124.70 7.70L124.70 7.70Q124.70 7.04 124.96 6.59Q125.22 6.14 125.65 5.87Q126.08 5.60 126.64 5.48Q127.20 5.36 127.81 5.36L127.81 5.36Q128.58 5.36 129.17 5.49L129.17 5.49L129.17 5.25Q129.17 4.69 128.82 4.31Q128.46 3.94 127.60 3.94L127.60 3.94Q127.04 3.94 126.52 4.02Q126 4.10 125.68 4.21L125.68 4.21L125.41 2.62Q125.78 2.50 126.45 2.39Q127.12 2.29 127.84 2.29ZM134.29 7.20L134.29 4.11L132.58 4.11L132.58 2.48L134.29 2.48L134.29 0.59L136.26 0.27L136.26 2.48L139.41 2.48L139.41 4.11L136.26 4.11L136.26 7.15Q136.26 7.57 136.34 7.82Q136.42 8.08 136.56 8.22Q136.70 8.37 136.91 8.42Q137.12 8.46 137.38 8.46L137.38 8.46Q137.65 8.46 137.88 8.45Q138.11 8.43 138.33 8.39Q138.54 8.35 138.78 8.27Q139.01 8.19 139.28 8.06L139.28 8.06L139.55 9.76Q139.01 9.98 138.38 10.08Q137.74 10.18 137.15 10.18L137.15 10.18Q136.46 10.18 135.94 10.06Q135.41 9.95 135.04 9.63Q134.67 9.31 134.48 8.73Q134.29 8.14 134.29 7.20L134.29 7.20ZM144.02 8.59L144.02 8.59Q144.34 8.59 144.64 8.58Q144.94 8.58 145.17 8.54L145.17 8.54L145.17 6.82Q144.98 6.78 144.70 6.76Q144.43 6.74 144.21 6.74L144.21 6.74Q143.90 6.74 143.62 6.78Q143.33 6.82 143.11 6.91Q142.90 7.01 142.77 7.18Q142.64 7.36 142.64 7.65L142.64 7.65Q142.64 8.16 143.02 8.38Q143.41 8.59 144.02 8.59ZM143.84 2.29L143.84 2.29Q144.77 2.29 145.38 2.50Q146 2.72 146.37 3.11Q146.74 3.50 146.90 4.07Q147.06 4.64 147.06 5.34L147.06 5.34L147.06 9.82Q146.62 9.92 145.78 10.05Q144.93 10.18 143.87 10.18L143.87 10.18Q143.15 10.18 142.57 10.05Q141.98 9.92 141.57 9.62Q141.15 9.33 140.93 8.86Q140.70 8.38 140.70 7.70L140.70 7.70Q140.70 7.04 140.96 6.59Q141.22 6.14 141.65 5.87Q142.08 5.60 142.64 5.48Q143.20 5.36 143.81 5.36L143.81 5.36Q144.58 5.36 145.17 5.49L145.17 5.49L145.17 5.25Q145.17 4.69 144.82 4.31Q144.46 3.94 143.60 3.94L143.60 3.94Q143.04 3.94 142.52 4.02Q142 4.10 141.68 4.21L141.68 4.21L141.41 2.62Q141.78 2.50 142.45 2.39Q143.12 2.29 143.84 2.29ZM153.52 6.19L153.52 6.19Q153.52 5.14 153.18 4.58Q152.83 4.02 152.13 4.02L152.13 4.02Q151.81 4.02 151.50 4.10Q151.18 4.19 150.96 4.32L150.96 4.32L150.96 8.40Q151.18 8.45 151.43 8.46Q151.68 8.48 151.86 8.48L151.86 8.48Q152.62 8.48 153.07 7.96Q153.52 7.44 153.52 6.19ZM155.52 6.24L155.52 6.24Q155.52 7.14 155.28 7.86Q155.04 8.59 154.58 9.10Q154.11 9.62 153.44 9.90Q152.77 10.18 151.90 10.18L151.90 10.18Q151.14 10.18 150.34 10.06Q149.54 9.95 148.99 9.78L148.99 9.78L148.99-0.77L150.96-1.10L150.96 2.66Q151.38 2.46 151.76 2.39Q152.14 2.32 152.53 2.32L152.53 2.32Q153.26 2.32 153.82 2.60Q154.38 2.88 154.76 3.40Q155.14 3.92 155.33 4.64Q155.52 5.36 155.52 6.24ZM160.02 8.59L160.02 8.59Q160.34 8.59 160.64 8.58Q160.94 8.58 161.17 8.54L161.17 8.54L161.17 6.82Q160.98 6.78 160.70 6.76Q160.43 6.74 160.21 6.74L160.21 6.74Q159.90 6.74 159.62 6.78Q159.33 6.82 159.11 6.91Q158.90 7.01 158.77 7.18Q158.64 7.36 158.64 7.65L158.64 7.65Q158.64 8.16 159.02 8.38Q159.41 8.59 160.02 8.59ZM159.84 2.29L159.84 2.29Q160.77 2.29 161.38 2.50Q162 2.72 162.37 3.11Q162.74 3.50 162.90 4.07Q163.06 4.64 163.06 5.34L163.06 5.34L163.06 9.82Q162.62 9.92 161.78 10.05Q160.93 10.18 159.87 10.18L159.87 10.18Q159.15 10.18 158.57 10.05Q157.98 9.92 157.57 9.62Q157.15 9.33 156.93 8.86Q156.70 8.38 156.70 7.70L156.70 7.70Q156.70 7.04 156.96 6.59Q157.22 6.14 157.65 5.87Q158.08 5.60 158.64 5.48Q159.20 5.36 159.81 5.36L159.81 5.36Q160.58 5.36 161.17 5.49L161.17 5.49L161.17 5.25Q161.17 4.69 160.82 4.31Q160.46 3.94 159.60 3.94L159.60 3.94Q159.04 3.94 158.52 4.02Q158 4.10 157.68 4.21L157.68 4.21L157.41 2.62Q157.78 2.50 158.45 2.39Q159.12 2.29 159.84 2.29ZM167.65 8.51L167.65 8.51Q168.37 8.51 168.75 8.41Q169.14 8.30 169.14 7.98L169.14 7.98Q169.14 7.78 169.02 7.63Q168.90 7.49 168.68 7.38Q168.46 7.28 168.18 7.18Q167.90 7.09 167.60 6.99L167.60 6.99Q167.17 6.86 166.72 6.70Q166.27 6.53 165.90 6.27Q165.54 6.02 165.30 5.62Q165.06 5.23 165.06 4.64L165.06 4.64Q165.06 4.16 165.24 3.74Q165.42 3.31 165.82 2.98Q166.21 2.66 166.82 2.47Q167.42 2.29 168.27 2.29L168.27 2.29Q169.01 2.29 169.64 2.40Q170.27 2.51 170.74 2.72L170.74 2.72L170.43 4.38Q170.16 4.30 169.58 4.12Q169.01 3.94 168.29 3.94L168.29 3.94Q167.54 3.94 167.27 4.12Q167.01 4.30 167.01 4.51L167.01 4.51Q167.01 4.69 167.13 4.82Q167.25 4.96 167.45 5.07Q167.65 5.18 167.91 5.29Q168.18 5.39 168.48 5.49L168.48 5.49Q168.91 5.63 169.38 5.81Q169.84 5.98 170.22 6.25Q170.59 6.51 170.83 6.92Q171.07 7.33 171.07 7.92L171.07 7.92Q171.07 8.38 170.90 8.80Q170.72 9.22 170.31 9.52Q169.90 9.82 169.25 10Q168.59 10.18 167.63 10.18L167.63 10.18Q166.66 10.18 165.97 9.95Q165.28 9.73 164.86 9.55L164.86 9.55L165.17 7.90Q165.73 8.13 166.36 8.32Q166.99 8.51 167.65 8.51ZM172.50 6.30L172.50 6.30Q172.50 5.31 172.80 4.56Q173.10 3.81 173.60 3.30Q174.10 2.80 174.74 2.54Q175.38 2.29 176.05 2.29L176.05 2.29Q177.71 2.29 178.58 3.27Q179.44 4.26 179.44 6.14L179.44 6.14Q179.44 6.34 179.43 6.54Q179.42 6.75 179.41 6.88L179.41 6.88L174.53 6.88Q174.53 7.62 175.14 8.04Q175.74 8.46 176.70 8.46L176.70 8.46Q177.30 8.46 177.83 8.34Q178.37 8.21 178.74 8.08L178.74 8.08L179.01 9.76Q178.50 9.94 177.92 10.06Q177.34 10.18 176.62 10.18L176.62 10.18Q175.66 10.18 174.90 9.93Q174.14 9.68 173.61 9.19Q173.07 8.70 172.78 7.98Q172.50 7.26 172.50 6.30ZM174.53 5.52L177.54 5.52Q177.54 5.22 177.46 4.94Q177.38 4.66 177.20 4.43Q177.02 4.21 176.75 4.07Q176.48 3.94 176.08 3.94L176.08 3.94Q175.70 3.94 175.42 4.06Q175.14 4.19 174.95 4.42Q174.77 4.64 174.66 4.93Q174.56 5.22 174.53 5.52L174.53 5.52Z"/>
    </g>
</svg>