<?xml version="1.0" encoding="UTF-8"?>
<svg height="34" width="233.5" version="1.1" xmlns="http://www.w3.org/2000/svg">
    <rect
        height="32"
        width="231.5"
        rx="14"
        ry="14"
        x="1"
        y="1"
        fill="#1a1a1a"
        stroke="#666666"
        stroke-width="1"
         />
    <g transform="translate(0, 14)">
        <path fill="#666666" d="M18.29 11.36L18.29 11.36Q14.62 11.36 12.69 9.01Q10.76 6.66 10.76 2.32L10.76 2.32Q10.76 0.16 11.34-1.52Q11.93-3.20 12.98-4.36Q14.03-5.52 15.47-6.12Q16.92-6.72 18.62-6.72L18.62-6.72Q19.55-6.72 20.29-6.57Q21.03-6.42 21.59-6.22Q22.15-6.02 22.53-5.80Q22.91-5.58 23.10-5.46L23.10-5.46L22.21-2.72Q21.56-3.14 20.65-3.43Q19.74-3.73 18.57-3.73L18.57-3.73Q17.76-3.73 16.99-3.43Q16.22-3.14 15.61-2.45Q15.01-1.77 14.63-0.62Q14.26 0.53 14.26 2.24L14.26 2.24Q14.26 5.20 15.28 6.79Q16.30 8.37 18.62 8.37L18.62 8.37Q19.97 8.37 20.85 8.06Q21.73 7.75 22.26 7.44L22.26 7.44L23.13 10.16Q22.40 10.61 21.16 10.99Q19.91 11.36 18.29 11.36ZM30.38 8.40L30.38 8.40Q31.64 8.40 32.32 8.21Q32.99 8.03 32.99 7.47L32.99 7.47Q32.99 7.11 32.78 6.86Q32.57 6.60 32.19 6.42Q31.81 6.24 31.32 6.07Q30.83 5.90 30.30 5.74L30.30 5.74Q29.54 5.51 28.76 5.22Q27.98 4.92 27.33 4.48Q26.69 4.03 26.27 3.34Q25.85 2.66 25.85 1.62L25.85 1.62Q25.85 0.78 26.17 0.04Q26.49-0.70 27.18-1.28Q27.86-1.85 28.93-2.17Q29.99-2.50 31.48-2.50L31.48-2.50Q32.76-2.50 33.87-2.30Q34.98-2.10 35.79-1.74L35.79-1.74L35.26 1.17Q34.78 1.03 33.77 0.71Q32.76 0.39 31.50 0.39L31.50 0.39Q30.19 0.39 29.73 0.71Q29.26 1.03 29.26 1.40L29.26 1.40Q29.26 1.70 29.47 1.94Q29.68 2.18 30.03 2.38Q30.38 2.57 30.85 2.75Q31.31 2.94 31.84 3.10L31.84 3.10Q32.60 3.36 33.41 3.66Q34.22 3.97 34.88 4.43Q35.54 4.90 35.96 5.61Q36.38 6.32 36.38 7.36L36.38 7.36Q36.38 8.17 36.07 8.90Q35.76 9.63 35.05 10.16Q34.33 10.69 33.18 11Q32.04 11.31 30.36 11.31L30.36 11.31Q28.65 11.31 27.44 10.92Q26.24 10.52 25.51 10.22L25.51 10.22L26.04 7.33Q27.02 7.72 28.13 8.06Q29.24 8.40 30.38 8.40ZM51.22 4.39L51.22 4.39Q51.22 5.96 50.77 7.23Q50.32 8.51 49.51 9.43Q48.70 10.36 47.56 10.86Q46.43 11.36 45.03 11.36L45.03 11.36Q43.63 11.36 42.49 10.86Q41.36 10.36 40.53 9.43Q39.71 8.51 39.26 7.23Q38.81 5.96 38.81 4.39L38.81 4.39Q38.81 2.85 39.27 1.58Q39.74 0.30 40.56-0.61Q41.39-1.52 42.54-2.01Q43.68-2.50 45.03-2.50L45.03-2.50Q46.40-2.50 47.53-2.01Q48.67-1.52 49.49-0.61Q50.32 0.30 50.77 1.58Q51.22 2.85 51.22 4.39ZM42.31 4.42L42.31 4.42Q42.31 6.18 42.94 7.28Q43.57 8.37 44.97 8.37L44.97 8.37Q46.32 8.37 47.00 7.28Q47.69 6.18 47.69 4.42L47.69 4.42Q47.69 2.66 47.06 1.58Q46.43 0.50 45.03 0.50L45.03 0.50Q43.68 0.50 43.00 1.58Q42.31 2.66 42.31 4.42ZM64.26-2.16L64.26 10.55Q63.31 10.80 61.95 11.06Q60.60 11.31 59 11.31L59 11.31Q57.38 11.31 56.34 10.86Q55.30 10.41 54.70 9.59Q54.10 8.76 53.88 7.64Q53.65 6.52 53.65 5.18L53.65 5.18L53.65-2.16L57.10-2.16L57.10 4.73Q57.10 6.55 57.53 7.43Q57.96 8.31 59.22 8.31L59.22 8.31Q60.01 8.31 60.79 8.17L60.79 8.17L60.79-2.16L64.26-2.16ZM67.76 11L67.76-1.74Q68.69-1.99 70.05-2.22Q71.40-2.44 73-2.44L73-2.44Q74.57-2.44 75.60-2.01Q76.64-1.57 77.24-0.77Q77.84 0.02 78.10 1.13Q78.35 2.24 78.35 3.58L78.35 3.58L78.35 11L74.90 11L74.90 4.03Q74.90 2.18 74.48 1.37Q74.06 0.56 72.78 0.56L72.78 0.56Q72.38 0.56 72.01 0.58Q71.63 0.61 71.21 0.67L71.21 0.67L71.21 11L67.76 11ZM84.28 4.34L84.28 4.34Q84.28 6.10 84.94 7.22Q85.60 8.34 87.06 8.34L87.06 8.34Q87.48 8.34 87.84 8.31Q88.20 8.28 88.60 8.23L88.60 8.23L88.60 1.06Q88.20 0.84 87.70 0.68Q87.20 0.53 86.64 0.53L86.64 0.53Q85.40 0.53 84.84 1.51Q84.28 2.49 84.28 4.34ZM92.04-8.43L92.04 10.61Q91.09 10.92 89.72 11.11Q88.34 11.31 87.03 11.31L87.03 11.31Q83.95 11.31 82.37 9.49Q80.78 7.67 80.78 4.50L80.78 4.50Q80.78 1.28 82.11-0.58Q83.44-2.44 86.05-2.44L86.05-2.44Q86.75-2.44 87.42-2.29Q88.09-2.13 88.60-1.85L88.60-1.85L88.60-7.84L92.04-8.43ZM112.96-3.45L112.96 8.20Q113.10 8.23 113.26 8.23Q113.43 8.23 113.57 8.23L113.57 8.23Q114.75 8.23 115.55 7.78Q116.34 7.33 116.83 6.55Q117.32 5.76 117.53 4.69Q117.74 3.61 117.74 2.32L117.74 2.32Q117.74 1.20 117.58 0.14Q117.41-0.93 116.99-1.74Q116.57-2.55 115.84-3.04Q115.11-3.53 113.96-3.53L113.96-3.53Q113.74-3.53 113.46-3.52Q113.18-3.50 112.96-3.45L112.96-3.45ZM121.24 2.32L121.24 2.32Q121.24 4.73 120.64 6.42Q120.04 8.12 118.98 9.18Q117.91 10.24 116.44 10.73Q114.97 11.22 113.21 11.22L113.21 11.22Q112.28 11.22 111.40 11.13Q110.52 11.03 109.51 10.80L109.51 10.80L109.51-6.11Q110.69-6.36 111.72-6.44Q112.76-6.53 113.66-6.53L113.66-6.53Q115.36-6.53 116.78-6.02Q118.19-5.52 119.17-4.44Q120.15-3.36 120.70-1.70Q121.24-0.03 121.24 2.32ZM135.22 4.39L135.22 4.39Q135.22 5.96 134.77 7.23Q134.32 8.51 133.51 9.43Q132.70 10.36 131.56 10.86Q130.43 11.36 129.03 11.36L129.03 11.36Q127.63 11.36 126.49 10.86Q125.36 10.36 124.53 9.43Q123.71 8.51 123.26 7.23Q122.81 5.96 122.81 4.39L122.81 4.39Q122.81 2.85 123.27 1.58Q123.74 0.30 124.56-0.61Q125.39-1.52 126.54-2.01Q127.68-2.50 129.03-2.50L129.03-2.50Q130.40-2.50 131.53-2.01Q132.67-1.52 133.49-0.61Q134.32 0.30 134.77 1.58Q135.22 2.85 135.22 4.39ZM126.31 4.42L126.31 4.42Q126.31 6.18 126.94 7.28Q127.57 8.37 128.97 8.37L128.97 8.37Q130.32 8.37 131.00 7.28Q131.69 6.18 131.69 4.42L131.69 4.42Q131.69 2.66 131.06 1.58Q130.43 0.50 129.03 0.50L129.03 0.50Q127.68 0.50 127.00 1.58Q126.31 2.66 126.31 4.42ZM137.23 4.42L137.23 4.42Q137.23 2.99 137.68 1.73Q138.13 0.47 139.05-0.47Q139.98-1.40 141.39-1.95Q142.80-2.50 144.76-2.50L144.76-2.50Q145.94-2.50 146.89-2.33Q147.84-2.16 148.82-1.77L148.82-1.77L148.07 1.00Q147.51 0.81 146.82 0.65Q146.14 0.50 145.07 0.50L145.07 0.50Q143.84 0.50 143.01 0.79Q142.19 1.09 141.68 1.61Q141.18 2.12 140.96 2.85Q140.73 3.58 140.73 4.42L140.73 4.42Q140.73 6.24 141.75 7.28Q142.78 8.31 145.24 8.31L145.24 8.31Q146.05 8.31 146.93 8.20Q147.82 8.09 148.54 7.84L148.54 7.84L149.05 10.66Q148.32 10.94 147.28 11.13Q146.25 11.31 144.85 11.31L144.85 11.31Q142.83 11.31 141.39 10.78Q139.95 10.24 139.02 9.32Q138.10 8.40 137.67 7.14Q137.23 5.88 137.23 4.42ZM162.26-2.16L162.26 10.55Q161.31 10.80 159.95 11.06Q158.60 11.31 157 11.31L157 11.31Q155.38 11.31 154.34 10.86Q153.30 10.41 152.70 9.59Q152.10 8.76 151.88 7.64Q151.65 6.52 151.65 5.18L151.65 5.18L151.65-2.16L155.10-2.16L155.10 4.73Q155.10 6.55 155.53 7.43Q155.96 8.31 157.22 8.31L157.22 8.31Q158.01 8.31 158.79 8.17L158.79 8.17L158.79-2.16L162.26-2.16ZM173.60-2.30L173.60-2.30Q174.70-2.30 175.40-1.96Q176.10-1.63 176.50-0.96Q176.91-0.28 177.05 0.74Q177.19 1.76 177.19 3.13L177.19 3.13L177.19 11L174.39 11L174.39 2.96Q174.39 2.18 174.29 1.70Q174.19 1.23 174.04 0.98Q173.88 0.72 173.67 0.64Q173.46 0.56 173.24 0.56L173.24 0.56Q172.99 0.56 172.71 0.60Q172.43 0.64 172.20 0.75L172.20 0.75Q172.29 1.28 172.34 1.93Q172.40 2.57 172.40 3.36L172.40 3.36L172.40 5.99L169.60 5.99L169.60 2.96Q169.60 1.62 169.33 1.09Q169.07 0.56 168.48 0.56L168.48 0.56Q168.31 0.56 168.07 0.58Q167.84 0.61 167.61 0.67L167.61 0.67L167.61 11L164.81 11L164.81-1.66Q165.90-1.96 166.97-2.13Q168.03-2.30 168.84-2.30L168.84-2.30Q169.57-2.30 170.15-2.12Q170.72-1.94 171.14-1.52L171.14-1.52Q171.62-1.82 172.26-2.06Q172.90-2.30 173.60-2.30ZM178.87 4.53L178.87 4.53Q178.87 2.80 179.40 1.48Q179.93 0.16 180.80-0.72Q181.67-1.60 182.79-2.05Q183.91-2.50 185.08-2.50L185.08-2.50Q188.00-2.50 189.51-0.77Q191.02 0.95 191.02 4.25L191.02 4.25Q191.02 4.59 191.01 4.95Q190.99 5.32 190.96 5.54L190.96 5.54L182.42 5.54Q182.42 6.83 183.49 7.57Q184.55 8.31 186.23 8.31L186.23 8.31Q187.27 8.31 188.21 8.09Q189.14 7.86 189.79 7.64L189.79 7.64L190.26 10.58Q189.37 10.89 188.36 11.10Q187.35 11.31 186.09 11.31L186.09 11.31Q184.41 11.31 183.08 10.87Q181.75 10.44 180.81 9.59Q179.88 8.73 179.37 7.47Q178.87 6.21 178.87 4.53ZM182.42 3.16L187.69 3.16Q187.69 2.63 187.55 2.14Q187.41 1.65 187.10 1.26Q186.79 0.86 186.32 0.63Q185.84 0.39 185.14 0.39L185.14 0.39Q184.47 0.39 183.98 0.61Q183.49 0.84 183.17 1.23Q182.84 1.62 182.66 2.12Q182.48 2.63 182.42 3.16L182.42 3.16ZM193.76 11L193.76-1.74Q194.69-1.99 196.05-2.22Q197.40-2.44 199-2.44L199-2.44Q200.57-2.44 201.60-2.01Q202.64-1.57 203.24-0.77Q203.84 0.02 204.10 1.13Q204.35 2.24 204.35 3.58L204.35 3.58L204.35 11L200.90 11L200.90 4.03Q200.90 2.18 200.48 1.37Q200.06 0.56 198.78 0.56L198.78 0.56Q198.38 0.56 198.01 0.58Q197.63 0.61 197.21 0.67L197.21 0.67L197.21 11L193.76 11ZM210.00 6.10L210.00 0.70L207.01 0.70L207.01-2.16L210.00-2.16L210.00-5.46L213.45-6.02L213.45-2.16L218.96-2.16L218.96 0.70L213.45 0.70L213.45 6.02Q213.45 6.74 213.59 7.19Q213.73 7.64 213.98 7.89Q214.23 8.14 214.60 8.23Q214.96 8.31 215.41 8.31L215.41 8.31Q215.88 8.31 216.29 8.28Q216.70 8.26 217.07 8.19Q217.45 8.12 217.86 7.98Q218.26 7.84 218.74 7.61L218.74 7.61L219.22 10.58Q218.26 10.97 217.16 11.14Q216.05 11.31 215.02 11.31L215.02 11.31Q213.81 11.31 212.89 11.11Q211.96 10.92 211.32 10.36Q210.68 9.80 210.34 8.77Q210.00 7.75 210.00 6.10L210.00 6.10Z"/>
    </g>
</svg>