<?xml version="1.0" encoding="UTF-8"?>
<svg height="26" width="90.6" version="1.1" xmlns="http://www.w3.org/2000/svg"><!--Created by Josélio de S. C. Júnior - 2021 - https://github.com/joseliojunior -->
    <defs>
        <pattern id="pattern"
                x="1.5" y="3" width="3" height="6"
                patternUnits="userSpaceOnUse"
                patternTransform="rotate(45)" >
            <rect height="6" width="1" fill="#999999"/>
        </pattern>
    </defs>
    <rect
        height="24"
        width="88.6"
        rx="12"
        ry="12"
        x="1" y="1"
        fill="url(#pattern)"
        stroke="#000000"
        stroke-width="1" />
    <g transform="translate(0, 8)">
        <path fill="#ffffff" stroke="#000000" d="M27.82 10L25.70 10Q25.39 9.18 24.95 8.19Q24.51 7.20 24.03 6.21L24.03 6.21Q23.57 7.15 23.10 8.17Q22.64 9.18 22.30 10L22.30 10L20.18 10Q20.34 9.57 20.65 8.96Q20.96 8.35 21.34 7.65Q21.71 6.94 22.13 6.20Q22.54 5.46 22.93 4.77L22.93 4.77L20.34 0.10L22.46 0.10L24.03 3.26L25.68 0.10L27.66 0.10L25.14 4.72Q25.57 5.41 25.98 6.16Q26.40 6.91 26.76 7.62Q27.12 8.34 27.39 8.95Q27.66 9.57 27.82 10L27.82 10ZM31.58-0.02L31.58-0.02Q33.47-0.02 34.51 0.76Q35.55 1.54 35.55 3.30L35.55 3.30Q35.55 5.07 34.50 5.86Q33.46 6.66 31.54 6.66L31.54 6.66L30.83 6.66L30.83 10L28.86 10L28.86 0.22Q29.15 0.16 29.51 0.11Q29.87 0.06 30.24 0.04Q30.61 0.02 30.96 0Q31.31-0.02 31.58-0.02ZM31.81 1.70L31.81 1.70Q31.63 1.70 31.32 1.70Q31.01 1.71 30.83 1.74L30.83 1.74L30.83 4.94L31.63 4.94Q32.58 4.94 33.06 4.57Q33.54 4.19 33.54 3.28L33.54 3.28Q33.54 2.42 33.06 2.06Q32.59 1.70 31.81 1.70ZM40.02 8.59L40.02 8.59Q40.34 8.59 40.64 8.58Q40.94 8.58 41.17 8.54L41.17 8.54L41.17 6.82Q40.98 6.78 40.70 6.76Q40.43 6.74 40.21 6.74L40.21 6.74Q39.90 6.74 39.62 6.78Q39.33 6.82 39.11 6.91Q38.90 7.01 38.77 7.18Q38.64 7.36 38.64 7.65L38.64 7.65Q38.64 8.16 39.02 8.38Q39.41 8.59 40.02 8.59ZM39.84 2.29L39.84 2.29Q40.77 2.29 41.38 2.50Q42 2.72 42.37 3.11Q42.74 3.50 42.90 4.07Q43.06 4.64 43.06 5.34L43.06 5.34L43.06 9.82Q42.62 9.92 41.78 10.05Q40.93 10.18 39.87 10.18L39.87 10.18Q39.15 10.18 38.57 10.05Q37.98 9.92 37.57 9.62Q37.15 9.33 36.93 8.86Q36.70 8.38 36.70 7.70L36.70 7.70Q36.70 7.04 36.96 6.59Q37.22 6.14 37.65 5.87Q38.08 5.60 38.64 5.48Q39.20 5.36 39.81 5.36L39.81 5.36Q40.58 5.36 41.17 5.49L41.17 5.49L41.17 5.25Q41.17 4.69 40.82 4.31Q40.46 3.94 39.60 3.94L39.60 3.94Q39.04 3.94 38.52 4.02Q38 4.10 37.68 4.21L37.68 4.21L37.41 2.62Q37.78 2.50 38.45 2.39Q39.12 2.29 39.84 2.29ZM46.53 6L46.53 6Q46.53 6.93 46.86 7.42Q47.20 7.90 47.92 7.90L47.92 7.90Q48.24 7.90 48.52 7.82Q48.80 7.74 49.02 7.62L49.02 7.62L49.02 4Q48.80 3.95 48.62 3.94Q48.45 3.92 48.26 3.92L48.26 3.92Q46.53 3.92 46.53 6ZM51.01 2.72L51.01 9.09Q51.01 10.93 50.12 11.81Q49.23 12.69 47.26 12.69L47.26 12.69Q46.56 12.69 45.91 12.54Q45.26 12.40 44.67 12.21L44.67 12.21L45.04 10.54Q45.50 10.72 46.02 10.87Q46.53 11.02 47.30 11.02L47.30 11.02Q47.81 11.02 48.14 10.90Q48.48 10.78 48.67 10.58Q48.86 10.37 48.94 10.09Q49.02 9.81 49.02 9.49L49.02 9.49L49.02 9.18Q48.61 9.34 48.26 9.42Q47.92 9.50 47.52 9.50L47.52 9.50Q46.05 9.50 45.29 8.58Q44.53 7.65 44.53 6L44.53 6Q44.53 4.14 45.55 3.23Q46.58 2.32 48.34 2.32L48.34 2.32Q49.57 2.32 51.01 2.72L51.01 2.72ZM52.50 6.30L52.50 6.30Q52.50 5.31 52.80 4.56Q53.10 3.81 53.60 3.30Q54.10 2.80 54.74 2.54Q55.38 2.29 56.05 2.29L56.05 2.29Q57.71 2.29 58.58 3.27Q59.44 4.26 59.44 6.14L59.44 6.14Q59.44 6.34 59.43 6.54Q59.42 6.75 59.41 6.88L59.41 6.88L54.53 6.88Q54.53 7.62 55.14 8.04Q55.74 8.46 56.70 8.46L56.70 8.46Q57.30 8.46 57.83 8.34Q58.37 8.21 58.74 8.08L58.74 8.08L59.01 9.76Q58.50 9.94 57.92 10.06Q57.34 10.18 56.62 10.18L56.62 10.18Q55.66 10.18 54.90 9.93Q54.14 9.68 53.61 9.19Q53.07 8.70 52.78 7.98Q52.50 7.26 52.50 6.30ZM54.53 5.52L57.54 5.52Q57.54 5.22 57.46 4.94Q57.38 4.66 57.20 4.43Q57.02 4.21 56.75 4.07Q56.48 3.94 56.08 3.94L56.08 3.94Q55.70 3.94 55.42 4.06Q55.14 4.19 54.95 4.42Q54.77 4.64 54.66 4.93Q54.56 5.22 54.53 5.52L54.53 5.52ZM63.65 8.51L63.65 8.51Q64.37 8.51 64.75 8.41Q65.14 8.30 65.14 7.98L65.14 7.98Q65.14 7.78 65.02 7.63Q64.90 7.49 64.68 7.38Q64.46 7.28 64.18 7.18Q63.90 7.09 63.60 6.99L63.60 6.99Q63.17 6.86 62.72 6.70Q62.27 6.53 61.90 6.27Q61.54 6.02 61.30 5.62Q61.06 5.23 61.06 4.64L61.06 4.64Q61.06 4.16 61.24 3.74Q61.42 3.31 61.82 2.98Q62.21 2.66 62.82 2.47Q63.42 2.29 64.27 2.29L64.27 2.29Q65.01 2.29 65.64 2.40Q66.27 2.51 66.74 2.72L66.74 2.72L66.43 4.38Q66.16 4.30 65.58 4.12Q65.01 3.94 64.29 3.94L64.29 3.94Q63.54 3.94 63.27 4.12Q63.01 4.30 63.01 4.51L63.01 4.51Q63.01 4.69 63.13 4.82Q63.25 4.96 63.45 5.07Q63.65 5.18 63.91 5.29Q64.18 5.39 64.48 5.49L64.48 5.49Q64.91 5.63 65.38 5.81Q65.84 5.98 66.22 6.25Q66.59 6.51 66.83 6.92Q67.07 7.33 67.07 7.92L67.07 7.92Q67.07 8.38 66.90 8.80Q66.72 9.22 66.31 9.52Q65.90 9.82 65.25 10Q64.59 10.18 63.63 10.18L63.63 10.18Q62.66 10.18 61.97 9.95Q61.28 9.73 60.86 9.55L60.86 9.55L61.17 7.90Q61.73 8.13 62.36 8.32Q62.99 8.51 63.65 8.51Z"/>
    </g>
</svg>