<?xml version="1.0" encoding="UTF-8"?>
<svg height="34" width="126.7" version="1.1" xmlns="http://www.w3.org/2000/svg"><!--Created by Josélio de S. C. Júnior - 2021 - https://github.com/joseliojunior -->
    <rect
        height="32"
        width="124.7"
        rx="16"
        ry="16"
        x="1" y="1"
        fill="#336790"
        stroke="#0b161e"
        stroke-width="1" />
    <g transform="translate(0, 12)">
        <path fill="#0b161e" stroke="none" d="M25.38-3.02L25.38-3.02Q28.21-3.02 29.77-1.86Q31.33-0.70 31.33 1.94L31.33 1.94Q31.33 4.61 29.76 5.80Q28.18 6.98 25.30 6.98L25.30 6.98L24.25 6.98L24.25 12L21.30 12L21.30-2.66Q21.73-2.76 22.27-2.83Q22.81-2.90 23.36-2.94Q23.91-2.98 24.44-3Q24.97-3.02 25.38-3.02ZM25.71-0.46L25.71-0.46Q25.45-0.46 24.98-0.44Q24.51-0.43 24.25-0.38L24.25-0.38L24.25 4.42L25.45 4.42Q26.86 4.42 27.58 3.85Q28.30 3.29 28.30 1.92L28.30 1.92Q28.30 0.62 27.60 0.08Q26.89-0.46 25.71-0.46ZM43.04 9.55L43.04 12L33.70 12L33.70-2.86L36.68-2.86L36.68 9.55L43.04 9.55ZM52.26 6.46L52.26 6.46Q52.26 4.94 51.66 3.97Q51.06 3 49.83 3L49.83 3Q49.50 3 49.11 3.04Q48.73 3.07 48.46 3.10L48.46 3.10L48.46 9.29Q48.75 9.48 49.23 9.60Q49.71 9.72 50.19 9.72L50.19 9.72Q51.25 9.72 51.75 8.87Q52.26 8.02 52.26 6.46ZM55.26 6.36L55.26 6.36Q55.26 7.66 54.97 8.75Q54.68 9.84 54.13 10.62Q53.58 11.40 52.74 11.83Q51.90 12.26 50.79 12.26L50.79 12.26Q49.66 12.26 48.46 11.71L48.46 11.71L48.46 15.96L45.51 15.96L45.51 1.08Q46.33 0.82 47.52 0.65Q48.70 0.48 49.86 0.48L49.86 0.48Q52.47 0.48 53.86 2.06Q55.26 3.65 55.26 6.36ZM59.79 6L59.79 6Q59.79 7.39 60.30 8.12Q60.80 8.86 61.88 8.86L61.88 8.86Q62.36 8.86 62.78 8.74Q63.20 8.62 63.54 8.42L63.54 8.42L63.54 3Q63.20 2.93 62.94 2.90Q62.67 2.88 62.38 2.88L62.38 2.88Q59.79 2.88 59.79 6ZM66.51 1.08L66.51 10.63Q66.51 13.39 65.18 14.71Q63.85 16.03 60.90 16.03L60.90 16.03Q59.84 16.03 58.87 15.82Q57.90 15.60 57.01 15.31L57.01 15.31L57.56 12.82Q58.26 13.08 59.02 13.31Q59.79 13.54 60.94 13.54L60.94 13.54Q61.71 13.54 62.22 13.36Q62.72 13.18 63.01 12.86Q63.30 12.55 63.42 12.13Q63.54 11.71 63.54 11.23L63.54 11.23L63.54 10.78Q62.91 11.02 62.40 11.14Q61.88 11.26 61.28 11.26L61.28 11.26Q59.07 11.26 57.93 9.86Q56.79 8.47 56.79 6L56.79 6Q56.79 3.22 58.33 1.85Q59.86 0.48 62.50 0.48L62.50 0.48Q64.35 0.48 66.51 1.08L66.51 1.08ZM73.57 9.84L73.57 9.84Q74.31 9.84 74.80 9.68Q75.30 9.53 75.58 9.25Q75.87 8.98 75.98 8.63Q76.09 8.28 76.09 7.92L76.09 7.92Q76.09 7.46 75.82 7.10Q75.56 6.74 75.15 6.47Q74.74 6.19 74.24 5.96Q73.74 5.74 73.23 5.54L73.23 5.54Q72.56 5.30 71.84 4.99Q71.12 4.68 70.53 4.20Q69.94 3.72 69.56 3.01Q69.18 2.30 69.18 1.25L69.18 1.25Q69.18-0.84 70.53-2.02Q71.89-3.19 74.26-3.19L74.26-3.19Q75.63-3.19 76.65-2.88Q77.67-2.57 78.37-2.18L78.37-2.18L77.50 0.10Q76.90-0.24 76.17-0.48Q75.44-0.72 74.48-0.72L74.48-0.72Q72.13-0.72 72.13 0.98L72.13 0.98Q72.13 1.42 72.37 1.74Q72.61 2.06 72.98 2.32Q73.35 2.57 73.82 2.76Q74.29 2.95 74.74 3.12L74.74 3.12Q75.44 3.38 76.20 3.71Q76.95 4.03 77.59 4.57Q78.22 5.11 78.63 5.92Q79.04 6.72 79.04 7.94L79.04 7.94Q79.04 10.03 77.68 11.17Q76.33 12.31 73.57 12.31L73.57 12.31Q71.72 12.31 70.62 11.92Q69.51 11.52 68.96 11.18L68.96 11.18L69.82 8.78Q70.47 9.17 71.37 9.50Q72.27 9.84 73.57 9.84ZM80.65 4.63L80.65 4.63Q80.65 0.79 82.06-1.16Q83.48-3.12 86-3.12L86-3.12Q88.62-3.12 89.98-1.16Q91.35 0.79 91.35 4.63L91.35 4.63Q91.35 7.99 90.27 9.92Q89.19 11.86 87.15 12.26L87.15 12.26Q87.42 12.86 88.44 13.26Q89.46 13.66 91.23 13.97L91.23 13.97L90.61 16.08Q87.80 15.70 86.37 14.80Q84.94 13.90 84.68 12.22L84.68 12.22Q82.74 11.74 81.69 9.83Q80.65 7.92 80.65 4.63ZM83.65 4.63L83.65 4.63Q83.65 5.71 83.73 6.65Q83.82 7.58 84.07 8.29Q84.32 9 84.78 9.41Q85.23 9.82 86 9.82L86 9.82Q86.74 9.82 87.21 9.41Q87.68 9 87.93 8.29Q88.18 7.58 88.27 6.65Q88.35 5.71 88.35 4.63L88.35 4.63Q88.35 3.55 88.27 2.60Q88.18 1.66 87.93 0.96Q87.68 0.26 87.22-0.14Q86.77-0.55 86-0.55L86-0.55Q85.23-0.55 84.78-0.14Q84.32 0.26 84.07 0.97Q83.82 1.68 83.73 2.62Q83.65 3.55 83.65 4.63ZM103.04 9.55L103.04 12L93.70 12L93.70-2.86L96.68-2.86L96.68 9.55L103.04 9.55Z"/>
    </g>
</svg>