<?xml version="1.0" encoding="UTF-8"?>
<svg height="34" width="92.5" version="1.1" xmlns="http://www.w3.org/2000/svg">
    <rect
        height="32"
        width="90.5"
        rx="14"
        ry="14"
        x="1"
        y="1"
        fill="#009639"
        stroke="#2eff7e"
        stroke-width="1"
         />
    <g transform="translate(0, 14)">
        <path fill="#2eff7e" d="M22.71 11L19.94 11Q18.76 8.12 17.38 5.25Q15.99 2.38 14.40-0.51L14.40-0.51L14.40 11L11.29 11L11.29-6.33L14.06-6.33Q14.84-5.10 15.63-3.66Q16.41-2.22 17.15-0.79Q17.90 0.64 18.53 1.98Q19.16 3.33 19.60 4.34L19.60 4.34L19.60-6.33L22.71-6.33L22.71 11ZM28.42 4L28.42 4Q28.42 5.62 29.01 6.48Q29.60 7.33 30.86 7.33L30.86 7.33Q31.42 7.33 31.91 7.19Q32.40 7.05 32.79 6.83L32.79 6.83L32.79 0.50Q32.40 0.42 32.09 0.39Q31.78 0.36 31.45 0.36L31.45 0.36Q28.42 0.36 28.42 4ZM36.26-1.74L36.26 9.40Q36.26 12.62 34.71 14.16Q33.16 15.70 29.71 15.70L29.71 15.70Q28.48 15.70 27.35 15.45Q26.21 15.20 25.18 14.86L25.18 14.86L25.82 11.95Q26.63 12.26 27.53 12.53Q28.42 12.79 29.77 12.79L29.77 12.79Q30.66 12.79 31.25 12.58Q31.84 12.37 32.18 12.01Q32.51 11.64 32.65 11.15Q32.79 10.66 32.79 10.10L32.79 10.10L32.79 9.57Q32.06 9.85 31.46 9.99Q30.86 10.13 30.16 10.13L30.16 10.13Q27.58 10.13 26.25 8.51Q24.92 6.88 24.92 4L24.92 4Q24.92 0.75 26.72-0.84Q28.51-2.44 31.59-2.44L31.59-2.44Q33.74-2.44 36.26-1.74L36.26-1.74ZM45.95-5.94L45.95-5.94Q45.95-4.93 45.31-4.34Q44.66-3.76 43.77-3.76L43.77-3.76Q42.87-3.76 42.24-4.34Q41.61-4.93 41.61-5.94L41.61-5.94Q41.61-6.98 42.24-7.56Q42.87-8.15 43.77-8.15L43.77-8.15Q44.66-8.15 45.31-7.56Q45.95-6.98 45.95-5.94ZM50.63 7.67L51.08 10.44Q50.01 10.94 49.07 11.13Q48.14 11.31 47.35 11.31L47.35 11.31Q46.01 11.31 45.10 10.92Q44.19 10.52 43.64 9.78Q43.10 9.04 42.87 7.98Q42.65 6.91 42.65 5.54L42.65 5.54L42.65 0.70L39.01 0.70L39.01-2.16L46.09-2.16L46.09 5.99Q46.09 7.16 46.53 7.74Q46.96 8.31 47.97 8.31L47.97 8.31Q48.44 8.31 49.12 8.19Q49.79 8.06 50.63 7.67L50.63 7.67ZM53.76 11L53.76-1.74Q54.69-1.99 56.05-2.22Q57.40-2.44 59-2.44L59-2.44Q60.57-2.44 61.60-2.01Q62.64-1.57 63.24-0.77Q63.84 0.02 64.10 1.13Q64.35 2.24 64.35 3.58L64.35 3.58L64.35 11L60.90 11L60.90 4.03Q60.90 2.18 60.48 1.37Q60.06 0.56 58.78 0.56L58.78 0.56Q58.38 0.56 58.01 0.58Q57.63 0.61 57.21 0.67L57.21 0.67L57.21 11L53.76 11ZM70.20-2.16L73.11 1.96L75.80-2.16L79.30-2.16L75.04 4.17Q75.72 4.98 76.36 5.89Q77.00 6.80 77.59 7.72Q78.18 8.65 78.66 9.49Q79.13 10.33 79.47 11L79.47 11L75.88 11Q75.13 9.57 74.37 8.45Q73.62 7.33 72.94 6.44L72.94 6.44Q72.10 7.56 71.43 8.62Q70.76 9.68 70.06 11L70.06 11L66.56 11Q66.98 10.22 67.53 9.36Q68.07 8.51 68.67 7.63Q69.28 6.74 69.93 5.88Q70.59 5.01 71.21 4.22L71.21 4.22L66.59-2.16L70.20-2.16Z"/>
    </g>
</svg>