<?xml version="1.0" encoding="UTF-8"?>
<svg height="34" width="102.5" version="1.1" xmlns="http://www.w3.org/2000/svg"><!--Created by Josélio de S. C. Júnior - 2021 - https://github.com/joseliojunior -->
    <rect
        height="32"
        width="100.5"
        rx="1"
        ry="1"
        x="1" y="1"
        fill="#009639"
        stroke="#2eff7e"
        stroke-width="1" />
    <g transform="translate(0, 12)">
        <path fill="#2eff7e" d="M30.90 12L28.52 12Q27.51 9.53 26.32 7.07Q25.14 4.61 23.77 2.14L23.77 2.14L23.77 12L21.10 12L21.10-2.86L23.48-2.86Q24.15-1.80 24.82-0.56Q25.50 0.67 26.13 1.90Q26.77 3.12 27.31 4.27Q27.85 5.42 28.23 6.29L28.23 6.29L28.23-2.86L30.90-2.86L30.90 12ZM35.79 6L35.79 6Q35.79 7.39 36.30 8.12Q36.80 8.86 37.88 8.86L37.88 8.86Q38.36 8.86 38.78 8.74Q39.20 8.62 39.54 8.42L39.54 8.42L39.54 3Q39.20 2.93 38.94 2.90Q38.67 2.88 38.38 2.88L38.38 2.88Q35.79 2.88 35.79 6ZM42.51 1.08L42.51 10.63Q42.51 13.39 41.18 14.71Q39.85 16.03 36.90 16.03L36.90 16.03Q35.84 16.03 34.87 15.82Q33.90 15.60 33.01 15.31L33.01 15.31L33.56 12.82Q34.26 13.08 35.02 13.31Q35.79 13.54 36.94 13.54L36.94 13.54Q37.71 13.54 38.22 13.36Q38.72 13.18 39.01 12.86Q39.30 12.55 39.42 12.13Q39.54 11.71 39.54 11.23L39.54 11.23L39.54 10.78Q38.91 11.02 38.40 11.14Q37.88 11.26 37.28 11.26L37.28 11.26Q35.07 11.26 33.93 9.86Q32.79 8.47 32.79 6L32.79 6Q32.79 3.22 34.33 1.85Q35.86 0.48 38.50 0.48L38.50 0.48Q40.35 0.48 42.51 1.08L42.51 1.08ZM50.82-2.52L50.82-2.52Q50.82-1.66 50.26-1.15Q49.71-0.65 48.94-0.65L48.94-0.65Q48.18-0.65 47.64-1.15Q47.10-1.66 47.10-2.52L47.10-2.52Q47.10-3.41 47.64-3.91Q48.18-4.42 48.94-4.42L48.94-4.42Q49.71-4.42 50.26-3.91Q50.82-3.41 50.82-2.52ZM54.82 9.14L55.21 11.52Q54.30 11.95 53.49 12.11Q52.69 12.26 52.02 12.26L52.02 12.26Q50.86 12.26 50.08 11.93Q49.30 11.59 48.84 10.96Q48.37 10.32 48.18 9.41Q47.98 8.50 47.98 7.32L47.98 7.32L47.98 3.17L44.86 3.17L44.86 0.72L50.94 0.72L50.94 7.70Q50.94 8.71 51.31 9.20Q51.68 9.70 52.54 9.70L52.54 9.70Q52.95 9.70 53.53 9.59Q54.10 9.48 54.82 9.14L54.82 9.14ZM57.51 12L57.51 1.08Q58.30 0.86 59.47 0.67Q60.63 0.48 62 0.48L62 0.48Q63.34 0.48 64.23 0.85Q65.12 1.22 65.64 1.91Q66.15 2.59 66.37 3.54Q66.58 4.49 66.58 5.64L66.58 5.64L66.58 12L63.63 12L63.63 6.02Q63.63 4.44 63.27 3.74Q62.91 3.05 61.81 3.05L61.81 3.05Q61.47 3.05 61.15 3.07Q60.82 3.10 60.46 3.14L60.46 3.14L60.46 12L57.51 12ZM71.60 0.72L74.10 4.25L76.40 0.72L79.40 0.72L75.75 6.14Q76.33 6.84 76.88 7.62Q77.43 8.40 77.94 9.19Q78.44 9.98 78.85 10.70Q79.26 11.42 79.54 12L79.54 12L76.47 12Q75.82 10.78 75.18 9.82Q74.53 8.86 73.95 8.09L73.95 8.09Q73.23 9.05 72.66 9.96Q72.08 10.87 71.48 12L71.48 12L68.48 12Q68.84 11.33 69.31 10.60Q69.78 9.86 70.29 9.11Q70.81 8.35 71.37 7.61Q71.94 6.86 72.46 6.19L72.46 6.19L68.50 0.72L71.60 0.72Z"/>
    </g>
</svg>