<?xml version="1.0" encoding="UTF-8"?><svg height="26" width="82.5" version="1.1" xmlns="http://www.w3.org/2000/svg"><!--Created by Josélio de S. C. Júnior - 2021 - https://github.com/joseliojunior --><rect height="24" width="80.5" rx="1" ry="1" x="1" y="1" fill="#009639" stroke="#2eff7e" stroke-width="1" /><g transform="translate(0, 8)"><path fill="#2eff7e" d="M27.26 10L25.68 10Q25.01 8.35 24.22 6.71Q23.42 5.07 22.51 3.42L22.51 3.42L22.51 10L20.74 10L20.74 0.10L22.32 0.10Q22.77 0.80 23.22 1.62Q23.66 2.45 24.09 3.26Q24.51 4.08 24.87 4.85Q25.23 5.62 25.49 6.19L25.49 6.19L25.49 0.10L27.26 0.10L27.26 10ZM30.53 6L30.53 6Q30.53 6.93 30.86 7.42Q31.20 7.90 31.92 7.90L31.92 7.90Q32.24 7.90 32.52 7.82Q32.80 7.74 33.02 7.62L33.02 7.62L33.02 4Q32.80 3.95 32.62 3.94Q32.45 3.92 32.26 3.92L32.26 3.92Q30.53 3.92 30.53 6ZM35.01 2.72L35.01 9.09Q35.01 10.93 34.12 11.81Q33.23 12.69 31.26 12.69L31.26 12.69Q30.56 12.69 29.91 12.54Q29.26 12.40 28.67 12.21L28.67 12.21L29.04 10.54Q29.50 10.72 30.02 10.87Q30.53 11.02 31.30 11.02L31.30 11.02Q31.81 11.02 32.14 10.90Q32.48 10.78 32.67 10.58Q32.86 10.37 32.94 10.09Q33.02 9.81 33.02 9.49L33.02 9.49L33.02 9.18Q32.61 9.34 32.26 9.42Q31.92 9.50 31.52 9.50L31.52 9.50Q30.05 9.50 29.29 8.58Q28.53 7.65 28.53 6L28.53 6Q28.53 4.14 29.55 3.23Q30.58 2.32 32.34 2.32L32.34 2.32Q33.57 2.32 35.01 2.72L35.01 2.72ZM40.54 0.32L40.54 0.32Q40.54 0.90 40.18 1.23Q39.81 1.57 39.30 1.57L39.30 1.57Q38.78 1.57 38.42 1.23Q38.06 0.90 38.06 0.32L38.06 0.32Q38.06-0.27 38.42-0.61Q38.78-0.94 39.30-0.94L39.30-0.94Q39.81-0.94 40.18-0.61Q40.54-0.27 40.54 0.32ZM43.22 8.10L43.47 9.68Q42.86 9.97 42.33 10.07Q41.79 10.18 41.34 10.18L41.34 10.18Q40.58 10.18 40.06 9.95Q39.54 9.73 39.22 9.30Q38.91 8.88 38.78 8.27Q38.66 7.66 38.66 6.88L38.66 6.88L38.66 4.11L36.58 4.11L36.58 2.48L40.62 2.48L40.62 7.14Q40.62 7.81 40.87 8.14Q41.12 8.46 41.70 8.46L41.70 8.46Q41.97 8.46 42.35 8.39Q42.74 8.32 43.22 8.10L43.22 8.10ZM45.01 10L45.01 2.72Q45.54 2.58 46.31 2.45Q47.09 2.32 48 2.32L48 2.32Q48.90 2.32 49.49 2.57Q50.08 2.82 50.42 3.27Q50.77 3.73 50.91 4.36Q51.06 4.99 51.06 5.76L51.06 5.76L51.06 10L49.09 10L49.09 6.02Q49.09 4.96 48.85 4.50Q48.61 4.03 47.87 4.03L47.87 4.03Q47.65 4.03 47.43 4.05Q47.22 4.06 46.98 4.10L46.98 4.10L46.98 10L45.01 10ZM54.40 2.48L56.06 4.83L57.60 2.48L59.60 2.48L57.17 6.10Q57.55 6.56 57.92 7.08Q58.29 7.60 58.62 8.13Q58.96 8.66 59.23 9.14Q59.50 9.62 59.70 10L59.70 10L57.65 10Q57.22 9.18 56.78 8.54Q56.35 7.90 55.97 7.39L55.97 7.39Q55.49 8.03 55.10 8.64Q54.72 9.25 54.32 10L54.32 10L52.32 10Q52.56 9.55 52.87 9.06Q53.18 8.58 53.53 8.07Q53.87 7.57 54.25 7.07Q54.62 6.58 54.98 6.13L54.98 6.13L52.34 2.48L54.40 2.48Z"/></g></svg>