<?xml version="1.0" encoding="UTF-8"?>
<svg height="34" width="106.6" version="1.1" xmlns="http://www.w3.org/2000/svg">
    <rect
        height="32"
        width="104.6"
        rx="1"
        ry="1"
        x="1"
        y="1"
        fill="#3572A5"
        stroke="#102332"
        stroke-width="1"
         />
    <g transform="translate(0, 14)">
        <path fill="#102332" d="M16.27-6.53L16.27-6.53Q19.58-6.53 21.40-5.17Q23.22-3.81 23.22-0.73L23.22-0.73Q23.22 2.38 21.38 3.76Q19.55 5.15 16.19 5.15L16.19 5.15L14.96 5.15L14.96 11L11.51 11L11.51-6.11Q12.02-6.22 12.65-6.30Q13.28-6.39 13.92-6.43Q14.56-6.47 15.18-6.50Q15.80-6.53 16.27-6.53ZM16.66-3.53L16.66-3.53Q16.36-3.53 15.81-3.52Q15.26-3.50 14.96-3.45L14.96-3.45L14.96 2.15L16.36 2.15Q18.01 2.15 18.85 1.49Q19.69 0.84 19.69-0.76L19.69-0.76Q19.69-2.27 18.86-2.90Q18.04-3.53 16.66-3.53ZM33.69-2.16L37.22-2.16Q36.68-0.31 36.19 1.47Q35.70 3.24 35.17 4.94Q34.64 6.63 34.04 8.26Q33.44 9.88 32.74 11.42L32.74 11.42Q32.20 12.54 31.69 13.35Q31.17 14.16 30.54 14.68Q29.91 15.20 29.14 15.45Q28.37 15.70 27.33 15.70L27.33 15.70Q26.46 15.70 25.75 15.56Q25.04 15.42 24.56 15.20L24.56 15.20L25.20 12.32Q25.76 12.57 26.20 12.67Q26.63 12.76 27.14 12.76L27.14 12.76Q28.14 12.76 28.76 12.09Q29.38 11.42 29.74 10.50L29.74 10.50Q28.51 8.03 27.28 4.85Q26.04 1.68 25.04-2.16L25.04-2.16L28.62-2.16Q28.87-1.12 29.19 0.05Q29.52 1.23 29.88 2.40Q30.24 3.58 30.65 4.71Q31.06 5.85 31.48 6.83L31.48 6.83Q31.76 5.85 32.06 4.71Q32.37 3.58 32.65 2.42Q32.93 1.26 33.20 0.08Q33.46-1.10 33.69-2.16L33.69-2.16ZM42.00 6.10L42.00 0.70L39.01 0.70L39.01-2.16L42.00-2.16L42.00-5.46L45.45-6.02L45.45-2.16L50.96-2.16L50.96 0.70L45.45 0.70L45.45 6.02Q45.45 6.74 45.59 7.19Q45.73 7.64 45.98 7.89Q46.23 8.14 46.60 8.23Q46.96 8.31 47.41 8.31L47.41 8.31Q47.88 8.31 48.29 8.28Q48.70 8.26 49.07 8.19Q49.45 8.12 49.86 7.98Q50.26 7.84 50.74 7.61L50.74 7.61L51.22 10.58Q50.26 10.97 49.16 11.14Q48.05 11.31 47.02 11.31L47.02 11.31Q45.81 11.31 44.89 11.11Q43.96 10.92 43.32 10.36Q42.68 9.80 42.34 8.77Q42.00 7.75 42.00 6.10L42.00 6.10ZM57.21 11L53.76 11L53.76-7.84L57.21-8.43L57.21-2.05Q57.63-2.19 58.22-2.31Q58.80-2.44 59.25-2.44L59.25-2.44Q60.71-2.44 61.69-2.01Q62.67-1.57 63.26-0.77Q63.84 0.02 64.10 1.13Q64.35 2.24 64.35 3.58L64.35 3.58L64.35 11L60.90 11L60.90 4.03Q60.90 2.18 60.48 1.37Q60.06 0.56 58.89 0.56L58.89 0.56Q58.41 0.56 57.95 0.67Q57.49 0.78 57.21 0.86L57.21 0.86L57.21 11ZM79.22 4.39L79.22 4.39Q79.22 5.96 78.77 7.23Q78.32 8.51 77.51 9.43Q76.70 10.36 75.56 10.86Q74.43 11.36 73.03 11.36L73.03 11.36Q71.63 11.36 70.49 10.86Q69.36 10.36 68.53 9.43Q67.71 8.51 67.26 7.23Q66.81 5.96 66.81 4.39L66.81 4.39Q66.81 2.85 67.27 1.58Q67.74 0.30 68.56-0.61Q69.39-1.52 70.54-2.01Q71.68-2.50 73.03-2.50L73.03-2.50Q74.40-2.50 75.53-2.01Q76.67-1.52 77.49-0.61Q78.32 0.30 78.77 1.58Q79.22 2.85 79.22 4.39ZM70.31 4.42L70.31 4.42Q70.31 6.18 70.94 7.28Q71.57 8.37 72.97 8.37L72.97 8.37Q74.32 8.37 75.00 7.28Q75.69 6.18 75.69 4.42L75.69 4.42Q75.69 2.66 75.06 1.58Q74.43 0.50 73.03 0.50L73.03 0.50Q71.68 0.50 71.00 1.58Q70.31 2.66 70.31 4.42ZM81.76 11L81.76-1.74Q82.69-1.99 84.05-2.22Q85.40-2.44 87-2.44L87-2.44Q88.57-2.44 89.60-2.01Q90.64-1.57 91.24-0.77Q91.84 0.02 92.10 1.13Q92.35 2.24 92.35 3.58L92.35 3.58L92.35 11L88.90 11L88.90 4.03Q88.90 2.18 88.48 1.37Q88.06 0.56 86.78 0.56L86.78 0.56Q86.38 0.56 86.01 0.58Q85.63 0.61 85.21 0.67L85.21 0.67L85.21 11L81.76 11Z"/>
    </g>
</svg>