<?xml version="1.0" encoding="UTF-8"?>
<svg height="322" width="223.5" version="1.1" xmlns="http://www.w3.org/2000/svg"><!--Created by Josélio de S. C. Júnior - 2021 - https://github.com/joseliojunior -->
    <rect
        height="32"
        width="221.5"
        rx="16"
        ry="16"
        x="1" y="1"
        fill="#aace60"
        stroke="#577123"
        stroke-width="1" />
    <g transform="translate(0, 12)">
        <path fill="#577123" stroke="none" d="M24.25-0.38L24.25 9.60Q24.37 9.62 24.51 9.62Q24.66 9.62 24.78 9.62L24.78 9.62Q25.78 9.62 26.47 9.24Q27.15 8.86 27.57 8.18Q27.99 7.51 28.17 6.59Q28.35 5.66 28.35 4.56L28.35 4.56Q28.35 3.60 28.21 2.69Q28.06 1.78 27.70 1.08Q27.34 0.38 26.72-0.04Q26.10-0.46 25.11-0.46L25.11-0.46Q24.92-0.46 24.68-0.44Q24.44-0.43 24.25-0.38L24.25-0.38ZM31.35 4.56L31.35 4.56Q31.35 6.62 30.84 8.08Q30.32 9.53 29.41 10.44Q28.50 11.35 27.24 11.77Q25.98 12.19 24.46 12.19L24.46 12.19Q23.67 12.19 22.92 12.11Q22.16 12.02 21.30 11.83L21.30 11.83L21.30-2.66Q22.30-2.88 23.19-2.95Q24.08-3.02 24.85-3.02L24.85-3.02Q26.31-3.02 27.52-2.59Q28.74-2.16 29.58-1.24Q30.42-0.31 30.88 1.12Q31.35 2.54 31.35 4.56ZM38.82-2.52L38.82-2.52Q38.82-1.66 38.26-1.15Q37.71-0.65 36.94-0.65L36.94-0.65Q36.18-0.65 35.64-1.15Q35.10-1.66 35.10-2.52L35.10-2.52Q35.10-3.41 35.64-3.91Q36.18-4.42 36.94-4.42L36.94-4.42Q37.71-4.42 38.26-3.91Q38.82-3.41 38.82-2.52ZM42.82 9.14L43.21 11.52Q42.30 11.95 41.49 12.11Q40.69 12.26 40.02 12.26L40.02 12.26Q38.86 12.26 38.08 11.93Q37.30 11.59 36.84 10.96Q36.37 10.32 36.18 9.41Q35.98 8.50 35.98 7.32L35.98 7.32L35.98 3.17L32.86 3.17L32.86 0.72L38.94 0.72L38.94 7.70Q38.94 8.71 39.31 9.20Q39.68 9.70 40.54 9.70L40.54 9.70Q40.95 9.70 41.53 9.59Q42.10 9.48 42.82 9.14L42.82 9.14ZM55.02 0.98L54.49 3.72Q54.20 3.65 53.80 3.58Q53.41 3.50 53 3.44Q52.59 3.38 52.21 3.36Q51.82 3.34 51.56 3.34L51.56 3.34Q50.94 3.34 50.34 3.40Q49.74 3.46 49.11 3.62L49.11 3.62L49.11 12L46.14 12L46.14 1.46Q47.31 1.03 48.55 0.77Q49.78 0.50 51.44 0.50L51.44 0.50Q51.68 0.50 52.12 0.53Q52.57 0.55 53.07 0.61Q53.58 0.67 54.09 0.76Q54.61 0.84 55.02 0.98L55.02 0.98ZM56.74 6.46L56.74 6.46Q56.74 4.97 57.20 3.84Q57.66 2.71 58.40 1.96Q59.14 1.20 60.10 0.82Q61.06 0.43 62.07 0.43L62.07 0.43Q64.57 0.43 65.86 1.91Q67.16 3.38 67.16 6.22L67.16 6.22Q67.16 6.50 67.15 6.82Q67.14 7.13 67.11 7.32L67.11 7.32L59.79 7.32Q59.79 8.42 60.70 9.06Q61.62 9.70 63.06 9.70L63.06 9.70Q63.94 9.70 64.75 9.50Q65.55 9.31 66.10 9.12L66.10 9.12L66.51 11.64Q65.74 11.90 64.88 12.08Q64.02 12.26 62.94 12.26L62.94 12.26Q61.50 12.26 60.36 11.89Q59.22 11.52 58.41 10.79Q57.61 10.06 57.18 8.98Q56.74 7.90 56.74 6.46ZM59.79 5.28L64.30 5.28Q64.30 4.82 64.18 4.40Q64.06 3.98 63.80 3.65Q63.54 3.31 63.13 3.11Q62.72 2.90 62.12 2.90L62.12 2.90Q61.54 2.90 61.12 3.10Q60.70 3.29 60.43 3.62Q60.15 3.96 60.00 4.39Q59.84 4.82 59.79 5.28L59.79 5.28ZM69.06 6.36L69.06 6.36Q69.06 5.14 69.44 4.06Q69.82 2.98 70.62 2.17Q71.41 1.37 72.62 0.90Q73.83 0.43 75.51 0.43L75.51 0.43Q76.52 0.43 77.34 0.58Q78.15 0.72 78.99 1.06L78.99 1.06L78.34 3.43Q77.86 3.26 77.28 3.13Q76.69 3 75.78 3L75.78 3Q74.72 3 74.01 3.25Q73.30 3.50 72.87 3.95Q72.44 4.39 72.25 5.02Q72.06 5.64 72.06 6.36L72.06 6.36Q72.06 7.92 72.93 8.81Q73.81 9.70 75.92 9.70L75.92 9.70Q76.62 9.70 77.37 9.60Q78.13 9.50 78.75 9.29L78.75 9.29L79.18 11.71Q78.56 11.95 77.67 12.11Q76.78 12.26 75.58 12.26L75.58 12.26Q73.86 12.26 72.62 11.81Q71.38 11.35 70.59 10.56Q69.80 9.77 69.43 8.69Q69.06 7.61 69.06 6.36ZM83.43 7.80L83.43 3.17L80.86 3.17L80.86 0.72L83.43 0.72L83.43-2.11L86.38-2.59L86.38 0.72L91.11 0.72L91.11 3.17L86.38 3.17L86.38 7.73Q86.38 8.35 86.50 8.74Q86.62 9.12 86.84 9.34Q87.06 9.55 87.37 9.62Q87.68 9.70 88.06 9.70L88.06 9.70Q88.47 9.70 88.82 9.67Q89.17 9.65 89.49 9.59Q89.82 9.53 90.16 9.41Q90.51 9.29 90.92 9.10L90.92 9.10L91.33 11.64Q90.51 11.98 89.56 12.12Q88.62 12.26 87.73 12.26L87.73 12.26Q86.70 12.26 85.90 12.10Q85.11 11.93 84.56 11.45Q84.01 10.97 83.72 10.09Q83.43 9.22 83.43 7.80L83.43 7.80ZM103.74 12L100.54 12Q100.09 10.78 99.43 9.29Q98.77 7.80 98.05 6.31L98.05 6.31Q97.35 7.73 96.66 9.25Q95.96 10.78 95.46 12L95.46 12L92.26 12Q92.50 11.35 92.97 10.44Q93.44 9.53 94.00 8.47Q94.57 7.42 95.19 6.30Q95.82 5.18 96.39 4.15L96.39 4.15L92.50-2.86L95.70-2.86L98.05 1.90L100.52-2.86L103.50-2.86L99.70 4.08Q100.35 5.11 100.98 6.24Q101.60 7.37 102.14 8.44Q102.68 9.50 103.09 10.43Q103.50 11.35 103.74 12L103.74 12ZM121.11 12.31L121.11 12.31Q120.56 12.31 119.95 12.23Q119.34 12.14 118.77 12.02Q118.21 11.90 117.73 11.76Q117.25 11.62 116.98 11.50L116.98 11.50L117.56 9.02Q118.11 9.26 118.99 9.53Q119.86 9.79 121.09 9.79L121.09 9.79Q122.60 9.79 123.21 9.14Q123.82 8.50 123.82 7.54L123.82 7.54Q123.82 6.36 122.89 5.89Q121.95 5.42 120.51 5.42L120.51 5.42L119.60 5.42L119.60 2.98L120.70 2.98Q121.16 2.98 121.62 2.88Q122.07 2.78 122.43 2.57Q122.79 2.35 123.02 1.99Q123.25 1.63 123.25 1.08L123.25 1.08Q123.25 0.26 122.76-0.20Q122.26-0.67 121.40-0.67L121.40-0.67Q120.56-0.67 119.73-0.40Q118.90-0.12 118.30 0.29L118.30 0.29L117.25-1.87Q117.90-2.30 118.96-2.75Q120.03-3.19 121.38-3.19L121.38-3.19Q122.62-3.19 123.55-2.88Q124.47-2.57 125.07-2.00Q125.67-1.44 125.96-0.67Q126.25 0.10 126.25 0.98L126.25 0.98Q126.25 1.87 125.74 2.69Q125.24 3.50 124.40 3.94L124.40 3.94Q125.55 4.42 126.19 5.35Q126.82 6.29 126.82 7.58L126.82 7.58Q126.82 8.62 126.49 9.48Q126.15 10.34 125.46 10.98Q124.76 11.62 123.68 11.96Q122.60 12.31 121.11 12.31ZM132.25-0.38L132.25 9.60Q132.37 9.62 132.51 9.62Q132.66 9.62 132.78 9.62L132.78 9.62Q133.78 9.62 134.47 9.24Q135.15 8.86 135.57 8.18Q135.99 7.51 136.17 6.59Q136.35 5.66 136.35 4.56L136.35 4.56Q136.35 3.60 136.21 2.69Q136.06 1.78 135.70 1.08Q135.34 0.38 134.72-0.04Q134.10-0.46 133.11-0.46L133.11-0.46Q132.92-0.46 132.68-0.44Q132.44-0.43 132.25-0.38L132.25-0.38ZM139.35 4.56L139.35 4.56Q139.35 6.62 138.84 8.08Q138.32 9.53 137.41 10.44Q136.50 11.35 135.24 11.77Q133.98 12.19 132.46 12.19L132.46 12.19Q131.67 12.19 130.92 12.11Q130.16 12.02 129.30 11.83L129.30 11.83L129.30-2.66Q130.30-2.88 131.19-2.95Q132.08-3.02 132.85-3.02L132.85-3.02Q134.31-3.02 135.52-2.59Q136.74-2.16 137.58-1.24Q138.42-0.31 138.88 1.12Q139.35 2.54 139.35 4.56ZM156.46 12L153.51 12L153.51-2.86L162.61-2.86L162.61-0.41L156.46-0.41L156.46 3.19L161.84 3.19L161.84 5.64L156.46 5.64L156.46 12ZM170.82-2.52L170.82-2.52Q170.82-1.66 170.26-1.15Q169.71-0.65 168.94-0.65L168.94-0.65Q168.18-0.65 167.64-1.15Q167.10-1.66 167.10-2.52L167.10-2.52Q167.10-3.41 167.64-3.91Q168.18-4.42 168.94-4.42L168.94-4.42Q169.71-4.42 170.26-3.91Q170.82-3.41 170.82-2.52ZM174.82 9.14L175.21 11.52Q174.30 11.95 173.49 12.11Q172.69 12.26 172.02 12.26L172.02 12.26Q170.86 12.26 170.08 11.93Q169.30 11.59 168.84 10.96Q168.37 10.32 168.18 9.41Q167.98 8.50 167.98 7.32L167.98 7.32L167.98 3.17L164.86 3.17L164.86 0.72L170.94 0.72L170.94 7.70Q170.94 8.71 171.31 9.20Q171.68 9.70 172.54 9.70L172.54 9.70Q172.95 9.70 173.53 9.59Q174.10 9.48 174.82 9.14L174.82 9.14ZM186.82 9.14L187.21 11.52Q187.14 11.57 186.88 11.69Q186.63 11.81 186.22 11.94Q185.82 12.07 185.23 12.17Q184.64 12.26 183.90 12.26L183.90 12.26Q181.86 12.26 180.92 11.05Q179.98 9.84 179.98 7.51L179.98 7.51L179.98-2.06L176.86-2.06L176.86-4.51L182.94-4.51L182.94 7.73Q182.94 8.88 183.39 9.29Q183.85 9.70 184.54 9.70L184.54 9.70Q185.43 9.70 186.03 9.46Q186.63 9.22 186.82 9.14L186.82 9.14ZM188.74 6.46L188.74 6.46Q188.74 4.97 189.20 3.84Q189.66 2.71 190.40 1.96Q191.14 1.20 192.10 0.82Q193.06 0.43 194.07 0.43L194.07 0.43Q196.57 0.43 197.86 1.91Q199.16 3.38 199.16 6.22L199.16 6.22Q199.16 6.50 199.15 6.82Q199.14 7.13 199.11 7.32L199.11 7.32L191.79 7.32Q191.79 8.42 192.70 9.06Q193.62 9.70 195.06 9.70L195.06 9.70Q195.94 9.70 196.75 9.50Q197.55 9.31 198.10 9.12L198.10 9.12L198.51 11.64Q197.74 11.90 196.88 12.08Q196.02 12.26 194.94 12.26L194.94 12.26Q193.50 12.26 192.36 11.89Q191.22 11.52 190.41 10.79Q189.61 10.06 189.18 8.98Q188.74 7.90 188.74 6.46ZM191.79 5.28L196.30 5.28Q196.30 4.82 196.18 4.40Q196.06 3.98 195.80 3.65Q195.54 3.31 195.13 3.11Q194.72 2.90 194.12 2.90L194.12 2.90Q193.54 2.90 193.12 3.10Q192.70 3.29 192.43 3.62Q192.15 3.96 192.00 4.39Q191.84 4.82 191.79 5.28L191.79 5.28Z"/>
    </g>
</svg>