<?xml version="1.0" encoding="UTF-8"?>
<svg height="34" width="233.5" version="1.1" xmlns="http://www.w3.org/2000/svg">
    <rect
        height="32"
        width="231.5"
        rx="14"
        ry="14"
        x="1"
        y="1"
        fill="#aace60"
        stroke="#577123"
        stroke-width="1"
         />
    <g transform="translate(0, 14)">
        <path fill="#577123" d="M14.96-3.45L14.96 8.20Q15.10 8.23 15.26 8.23Q15.43 8.23 15.57 8.23L15.57 8.23Q16.75 8.23 17.55 7.78Q18.34 7.33 18.83 6.55Q19.32 5.76 19.53 4.69Q19.74 3.61 19.74 2.32L19.74 2.32Q19.74 1.20 19.58 0.14Q19.41-0.93 18.99-1.74Q18.57-2.55 17.84-3.04Q17.11-3.53 15.96-3.53L15.96-3.53Q15.74-3.53 15.46-3.52Q15.18-3.50 14.96-3.45L14.96-3.45ZM23.24 2.32L23.24 2.32Q23.24 4.73 22.64 6.42Q22.04 8.12 20.98 9.18Q19.91 10.24 18.44 10.73Q16.97 11.22 15.21 11.22L15.21 11.22Q14.28 11.22 13.40 11.13Q12.52 11.03 11.51 10.80L11.51 10.80L11.51-6.11Q12.69-6.36 13.72-6.44Q14.76-6.53 15.66-6.53L15.66-6.53Q17.36-6.53 18.78-6.02Q20.19-5.52 21.17-4.44Q22.15-3.36 22.70-1.70Q23.24-0.03 23.24 2.32ZM31.95-5.94L31.95-5.94Q31.95-4.93 31.31-4.34Q30.66-3.76 29.77-3.76L29.77-3.76Q28.87-3.76 28.24-4.34Q27.61-4.93 27.61-5.94L27.61-5.94Q27.61-6.98 28.24-7.56Q28.87-8.15 29.77-8.15L29.77-8.15Q30.66-8.15 31.31-7.56Q31.95-6.98 31.95-5.94ZM36.63 7.67L37.08 10.44Q36.01 10.94 35.07 11.13Q34.14 11.31 33.35 11.31L33.35 11.31Q32.01 11.31 31.10 10.92Q30.19 10.52 29.64 9.78Q29.10 9.04 28.87 7.98Q28.65 6.91 28.65 5.54L28.65 5.54L28.65 0.70L25.01 0.70L25.01-2.16L32.09-2.16L32.09 5.99Q32.09 7.16 32.53 7.74Q32.96 8.31 33.97 8.31L33.97 8.31Q34.44 8.31 35.12 8.19Q35.79 8.06 36.63 7.67L36.63 7.67ZM50.85-1.85L50.24 1.34Q49.90 1.26 49.44 1.17Q48.98 1.09 48.50 1.02Q48.02 0.95 47.58 0.92Q47.13 0.89 46.82 0.89L46.82 0.89Q46.09 0.89 45.39 0.96Q44.69 1.03 43.96 1.23L43.96 1.23L43.96 11L40.49 11L40.49-1.29Q41.86-1.80 43.31-2.10Q44.75-2.41 46.68-2.41L46.68-2.41Q46.96-2.41 47.48-2.38Q48.00-2.36 48.58-2.29Q49.17-2.22 49.77-2.12Q50.38-2.02 50.85-1.85L50.85-1.85ZM52.87 4.53L52.87 4.53Q52.87 2.80 53.40 1.48Q53.93 0.16 54.80-0.72Q55.67-1.60 56.79-2.05Q57.91-2.50 59.08-2.50L59.08-2.50Q62.00-2.50 63.51-0.77Q65.02 0.95 65.02 4.25L65.02 4.25Q65.02 4.59 65.01 4.95Q64.99 5.32 64.96 5.54L64.96 5.54L56.42 5.54Q56.42 6.83 57.49 7.57Q58.55 8.31 60.23 8.31L60.23 8.31Q61.27 8.31 62.21 8.09Q63.14 7.86 63.79 7.64L63.79 7.64L64.26 10.58Q63.37 10.89 62.36 11.10Q61.35 11.31 60.09 11.31L60.09 11.31Q58.41 11.31 57.08 10.87Q55.75 10.44 54.81 9.59Q53.88 8.73 53.37 7.47Q52.87 6.21 52.87 4.53ZM56.42 3.16L61.69 3.16Q61.69 2.63 61.55 2.14Q61.41 1.65 61.10 1.26Q60.79 0.86 60.32 0.63Q59.84 0.39 59.14 0.39L59.14 0.39Q58.47 0.39 57.98 0.61Q57.49 0.84 57.17 1.23Q56.84 1.62 56.66 2.12Q56.48 2.63 56.42 3.16L56.42 3.16ZM67.23 4.42L67.23 4.42Q67.23 2.99 67.68 1.73Q68.13 0.47 69.05-0.47Q69.98-1.40 71.39-1.95Q72.80-2.50 74.76-2.50L74.76-2.50Q75.94-2.50 76.89-2.33Q77.84-2.16 78.82-1.77L78.82-1.77L78.07 1.00Q77.51 0.81 76.82 0.65Q76.14 0.50 75.07 0.50L75.07 0.50Q73.84 0.50 73.01 0.79Q72.19 1.09 71.68 1.61Q71.18 2.12 70.96 2.85Q70.73 3.58 70.73 4.42L70.73 4.42Q70.73 6.24 71.75 7.28Q72.78 8.31 75.24 8.31L75.24 8.31Q76.05 8.31 76.93 8.20Q77.82 8.09 78.54 7.84L78.54 7.84L79.05 10.66Q78.32 10.94 77.28 11.13Q76.25 11.31 74.85 11.31L74.85 11.31Q72.83 11.31 71.39 10.78Q69.95 10.24 69.02 9.32Q68.10 8.40 67.67 7.14Q67.23 5.88 67.23 4.42ZM84.00 6.10L84.00 0.70L81.01 0.70L81.01-2.16L84.00-2.16L84.00-5.46L87.45-6.02L87.45-2.16L92.96-2.16L92.96 0.70L87.45 0.70L87.45 6.02Q87.45 6.74 87.59 7.19Q87.73 7.64 87.98 7.89Q88.23 8.14 88.60 8.23Q88.96 8.31 89.41 8.31L89.41 8.31Q89.88 8.31 90.29 8.28Q90.70 8.26 91.07 8.19Q91.45 8.12 91.86 7.98Q92.26 7.84 92.74 7.61L92.74 7.61L93.22 10.58Q92.26 10.97 91.16 11.14Q90.05 11.31 89.02 11.31L89.02 11.31Q87.81 11.31 86.89 11.11Q85.96 10.92 85.32 10.36Q84.68 9.80 84.34 8.77Q84.00 7.75 84.00 6.10L84.00 6.10ZM107.69 11L103.97 11Q103.44 9.57 102.67 7.84Q101.90 6.10 101.06 4.36L101.06 4.36Q100.24 6.02 99.43 7.79Q98.62 9.57 98.03 11L98.03 11L94.31 11Q94.59 10.24 95.13 9.18Q95.68 8.12 96.34 6.88Q97.00 5.65 97.72 4.35Q98.45 3.05 99.12 1.84L99.12 1.84L94.59-6.33L98.31-6.33L101.06-0.79L103.94-6.33L107.41-6.33L102.99 1.76Q103.74 2.96 104.47 4.28Q105.20 5.60 105.83 6.84Q106.46 8.09 106.94 9.17Q107.41 10.24 107.69 11L107.69 11ZM127.96 11.36L127.96 11.36Q127.32 11.36 126.61 11.27Q125.89 11.17 125.23 11.03Q124.58 10.89 124.02 10.72Q123.46 10.55 123.15 10.41L123.15 10.41L123.82 7.53Q124.46 7.81 125.49 8.12Q126.51 8.42 127.94 8.42L127.94 8.42Q129.70 8.42 130.41 7.67Q131.13 6.91 131.13 5.79L131.13 5.79Q131.13 4.42 130.04 3.87Q128.94 3.33 127.26 3.33L127.26 3.33L126.20 3.33L126.20 0.47L127.49 0.47Q128.02 0.47 128.55 0.36Q129.08 0.25 129.50-0.00Q129.92-0.26 130.19-0.68Q130.46-1.10 130.46-1.74L130.46-1.74Q130.46-2.69 129.88-3.24Q129.31-3.78 128.30-3.78L128.30-3.78Q127.32-3.78 126.35-3.46Q125.39-3.14 124.69-2.66L124.69-2.66L123.46-5.18Q124.21-5.69 125.46-6.21Q126.70-6.72 128.27-6.72L128.27-6.72Q129.73-6.72 130.81-6.36Q131.88-6.00 132.58-5.34Q133.28-4.68 133.62-3.78Q133.96-2.89 133.96-1.85L133.96-1.85Q133.96-0.82 133.37 0.14Q132.78 1.09 131.80 1.59L131.80 1.59Q133.14 2.15 133.89 3.24Q134.63 4.34 134.63 5.85L134.63 5.85Q134.63 7.05 134.24 8.06Q133.84 9.07 133.03 9.81Q132.22 10.55 130.96 10.96Q129.70 11.36 127.96 11.36ZM140.96-3.45L140.96 8.20Q141.10 8.23 141.26 8.23Q141.43 8.23 141.57 8.23L141.57 8.23Q142.75 8.23 143.55 7.78Q144.34 7.33 144.83 6.55Q145.32 5.76 145.53 4.69Q145.74 3.61 145.74 2.32L145.74 2.32Q145.74 1.20 145.58 0.14Q145.41-0.93 144.99-1.74Q144.57-2.55 143.84-3.04Q143.11-3.53 141.96-3.53L141.96-3.53Q141.74-3.53 141.46-3.52Q141.18-3.50 140.96-3.45L140.96-3.45ZM149.24 2.32L149.24 2.32Q149.24 4.73 148.64 6.42Q148.04 8.12 146.98 9.18Q145.91 10.24 144.44 10.73Q142.97 11.22 141.21 11.22L141.21 11.22Q140.28 11.22 139.40 11.13Q138.52 11.03 137.51 10.80L137.51 10.80L137.51-6.11Q138.69-6.36 139.72-6.44Q140.76-6.53 141.66-6.53L141.66-6.53Q143.36-6.53 144.78-6.02Q146.19-5.52 147.17-4.44Q148.15-3.36 148.70-1.70Q149.24-0.03 149.24 2.32ZM169.21 11L165.76 11L165.76-6.33L176.38-6.33L176.38-3.48L169.21-3.48L169.21 0.72L175.48 0.72L175.48 3.58L169.21 3.58L169.21 11ZM185.95-5.94L185.95-5.94Q185.95-4.93 185.31-4.34Q184.66-3.76 183.77-3.76L183.77-3.76Q182.87-3.76 182.24-4.34Q181.61-4.93 181.61-5.94L181.61-5.94Q181.61-6.98 182.24-7.56Q182.87-8.15 183.77-8.15L183.77-8.15Q184.66-8.15 185.31-7.56Q185.95-6.98 185.95-5.94ZM190.63 7.67L191.08 10.44Q190.01 10.94 189.07 11.13Q188.14 11.31 187.35 11.31L187.35 11.31Q186.01 11.31 185.10 10.92Q184.19 10.52 183.64 9.78Q183.10 9.04 182.87 7.98Q182.65 6.91 182.65 5.54L182.65 5.54L182.65 0.70L179.01 0.70L179.01-2.16L186.09-2.16L186.09 5.99Q186.09 7.16 186.53 7.74Q186.96 8.31 187.97 8.31L187.97 8.31Q188.44 8.31 189.12 8.19Q189.79 8.06 190.63 7.67L190.63 7.67ZM204.63 7.67L205.08 10.44Q204.99 10.50 204.70 10.64Q204.40 10.78 203.93 10.93Q203.45 11.08 202.77 11.20Q202.08 11.31 201.21 11.31L201.21 11.31Q198.83 11.31 197.74 9.89Q196.65 8.48 196.65 5.76L196.65 5.76L196.65-5.41L193.01-5.41L193.01-8.26L200.09-8.26L200.09 6.02Q200.09 7.36 200.62 7.84Q201.16 8.31 201.97 8.31L201.97 8.31Q203.00 8.31 203.70 8.03Q204.40 7.75 204.63 7.67L204.63 7.67ZM206.87 4.53L206.87 4.53Q206.87 2.80 207.40 1.48Q207.93 0.16 208.80-0.72Q209.67-1.60 210.79-2.05Q211.91-2.50 213.08-2.50L213.08-2.50Q216.00-2.50 217.51-0.77Q219.02 0.95 219.02 4.25L219.02 4.25Q219.02 4.59 219.01 4.95Q218.99 5.32 218.96 5.54L218.96 5.54L210.42 5.54Q210.42 6.83 211.49 7.57Q212.55 8.31 214.23 8.31L214.23 8.31Q215.27 8.31 216.21 8.09Q217.14 7.86 217.79 7.64L217.79 7.64L218.26 10.58Q217.37 10.89 216.36 11.10Q215.35 11.31 214.09 11.31L214.09 11.31Q212.41 11.31 211.08 10.87Q209.75 10.44 208.81 9.59Q207.88 8.73 207.37 7.47Q206.87 6.21 206.87 4.53ZM210.42 3.16L215.69 3.16Q215.69 2.63 215.55 2.14Q215.41 1.65 215.10 1.26Q214.79 0.86 214.32 0.63Q213.84 0.39 213.14 0.39L213.14 0.39Q212.47 0.39 211.98 0.61Q211.49 0.84 211.17 1.23Q210.84 1.62 210.66 2.12Q210.48 2.63 210.42 3.16L210.42 3.16Z"/>
    </g>
</svg>