<?xml version="1.0" encoding="UTF-8"?><svg height="26" width="163.5" version="1.1" xmlns="http://www.w3.org/2000/svg"><!--Created by Josélio de S. C. Júnior - 2021 - https://github.com/joseliojunior --><rect height="24" width="161.5" rx="12" ry="12" x="1" y="1" fill="#aace60" stroke="#577123" stroke-width="1" /><g transform="translate(0, 8)"><path fill="#577123" d="M22.83 1.74L22.83 8.40Q22.91 8.42 23.01 8.42Q23.10 8.42 23.18 8.42L23.18 8.42Q23.86 8.42 24.31 8.16Q24.77 7.90 25.05 7.46Q25.33 7.01 25.45 6.39Q25.57 5.78 25.57 5.04L25.57 5.04Q25.57 4.40 25.47 3.79Q25.38 3.18 25.14 2.72Q24.90 2.26 24.48 1.98Q24.06 1.70 23.41 1.70L23.41 1.70Q23.28 1.70 23.12 1.70Q22.96 1.71 22.83 1.74L22.83 1.74ZM27.57 5.04L27.57 5.04Q27.57 6.42 27.22 7.38Q26.88 8.35 26.27 8.96Q25.66 9.57 24.82 9.85Q23.98 10.13 22.98 10.13L22.98 10.13Q22.45 10.13 21.94 10.07Q21.44 10.02 20.86 9.89L20.86 9.89L20.86 0.22Q21.54 0.08 22.13 0.03Q22.72-0.02 23.23-0.02L23.23-0.02Q24.21-0.02 25.02 0.27Q25.82 0.56 26.38 1.18Q26.94 1.79 27.26 2.74Q27.57 3.70 27.57 5.04ZM32.54 0.32L32.54 0.32Q32.54 0.90 32.18 1.23Q31.81 1.57 31.30 1.57L31.30 1.57Q30.78 1.57 30.42 1.23Q30.06 0.90 30.06 0.32L30.06 0.32Q30.06-0.27 30.42-0.61Q30.78-0.94 31.30-0.94L31.30-0.94Q31.81-0.94 32.18-0.61Q32.54-0.27 32.54 0.32ZM35.22 8.10L35.47 9.68Q34.86 9.97 34.33 10.07Q33.79 10.18 33.34 10.18L33.34 10.18Q32.58 10.18 32.06 9.95Q31.54 9.73 31.22 9.30Q30.91 8.88 30.78 8.27Q30.66 7.66 30.66 6.88L30.66 6.88L30.66 4.11L28.58 4.11L28.58 2.48L32.62 2.48L32.62 7.14Q32.62 7.81 32.87 8.14Q33.12 8.46 33.70 8.46L33.70 8.46Q33.97 8.46 34.35 8.39Q34.74 8.32 35.22 8.10L35.22 8.10ZM43.34 2.66L42.99 4.48Q42.80 4.43 42.54 4.38Q42.27 4.34 42 4.30Q41.73 4.26 41.47 4.24Q41.22 4.22 41.04 4.22L41.04 4.22Q40.62 4.22 40.22 4.26Q39.82 4.30 39.41 4.42L39.41 4.42L39.41 10L37.42 10L37.42 2.98Q38.21 2.69 39.03 2.51Q39.86 2.34 40.96 2.34L40.96 2.34Q41.12 2.34 41.42 2.35Q41.71 2.37 42.05 2.41Q42.38 2.45 42.73 2.50Q43.07 2.56 43.34 2.66L43.34 2.66ZM44.50 6.30L44.50 6.30Q44.50 5.31 44.80 4.56Q45.10 3.81 45.60 3.30Q46.10 2.80 46.74 2.54Q47.38 2.29 48.05 2.29L48.05 2.29Q49.71 2.29 50.58 3.27Q51.44 4.26 51.44 6.14L51.44 6.14Q51.44 6.34 51.43 6.54Q51.42 6.75 51.41 6.88L51.41 6.88L46.53 6.88Q46.53 7.62 47.14 8.04Q47.74 8.46 48.70 8.46L48.70 8.46Q49.30 8.46 49.83 8.34Q50.37 8.21 50.74 8.08L50.74 8.08L51.01 9.76Q50.50 9.94 49.92 10.06Q49.34 10.18 48.62 10.18L48.62 10.18Q47.66 10.18 46.90 9.93Q46.14 9.68 45.61 9.19Q45.07 8.70 44.78 7.98Q44.50 7.26 44.50 6.30ZM46.53 5.52L49.54 5.52Q49.54 5.22 49.46 4.94Q49.38 4.66 49.20 4.43Q49.02 4.21 48.75 4.07Q48.48 3.94 48.08 3.94L48.08 3.94Q47.70 3.94 47.42 4.06Q47.14 4.19 46.95 4.42Q46.77 4.64 46.66 4.93Q46.56 5.22 46.53 5.52L46.53 5.52ZM52.70 6.24L52.70 6.24Q52.70 5.42 52.96 4.70Q53.22 3.98 53.74 3.45Q54.27 2.91 55.08 2.60Q55.89 2.29 57.01 2.29L57.01 2.29Q57.68 2.29 58.22 2.38Q58.77 2.48 59.33 2.70L59.33 2.70L58.90 4.29Q58.58 4.18 58.18 4.09Q57.79 4 57.18 4L57.18 4Q56.48 4 56.01 4.17Q55.54 4.34 55.25 4.63Q54.96 4.93 54.83 5.34Q54.70 5.76 54.70 6.24L54.70 6.24Q54.70 7.28 55.29 7.87Q55.87 8.46 57.28 8.46L57.28 8.46Q57.74 8.46 58.25 8.40Q58.75 8.34 59.17 8.19L59.17 8.19L59.46 9.81Q59.04 9.97 58.45 10.07Q57.86 10.18 57.06 10.18L57.06 10.18Q55.90 10.18 55.08 9.87Q54.26 9.57 53.73 9.04Q53.20 8.51 52.95 7.79Q52.70 7.07 52.70 6.24ZM62.29 7.20L62.29 4.11L60.58 4.11L60.58 2.48L62.29 2.48L62.29 0.59L64.26 0.27L64.26 2.48L67.41 2.48L67.41 4.11L64.26 4.11L64.26 7.15Q64.26 7.57 64.34 7.82Q64.42 8.08 64.56 8.22Q64.70 8.37 64.91 8.42Q65.12 8.46 65.38 8.46L65.38 8.46Q65.65 8.46 65.88 8.45Q66.11 8.43 66.33 8.39Q66.54 8.35 66.78 8.27Q67.01 8.19 67.28 8.06L67.28 8.06L67.55 9.76Q67.01 9.98 66.38 10.08Q65.74 10.18 65.15 10.18L65.15 10.18Q64.46 10.18 63.94 10.06Q63.41 9.95 63.04 9.63Q62.67 9.31 62.48 8.73Q62.29 8.14 62.29 7.20L62.29 7.20ZM75.82 10L73.70 10Q73.39 9.18 72.95 8.19Q72.51 7.20 72.03 6.21L72.03 6.21Q71.57 7.15 71.10 8.17Q70.64 9.18 70.30 10L70.30 10L68.18 10Q68.34 9.57 68.65 8.96Q68.96 8.35 69.34 7.65Q69.71 6.94 70.13 6.20Q70.54 5.46 70.93 4.77L70.93 4.77L68.34 0.10L70.46 0.10L72.03 3.26L73.68 0.10L75.66 0.10L73.14 4.72Q73.57 5.41 73.98 6.16Q74.40 6.91 74.76 7.62Q75.12 8.34 75.39 8.95Q75.66 9.57 75.82 10L75.82 10ZM87.41 10.21L87.41 10.21Q87.04 10.21 86.63 10.15Q86.22 10.10 85.85 10.02Q85.47 9.94 85.15 9.84Q84.83 9.74 84.66 9.66L84.66 9.66L85.04 8.02Q85.41 8.18 85.99 8.35Q86.58 8.53 87.39 8.53L87.39 8.53Q88.40 8.53 88.81 8.10Q89.22 7.66 89.22 7.02L89.22 7.02Q89.22 6.24 88.59 5.93Q87.97 5.62 87.01 5.62L87.01 5.62L86.40 5.62L86.40 3.98L87.14 3.98Q87.44 3.98 87.74 3.92Q88.05 3.86 88.29 3.71Q88.53 3.57 88.68 3.33Q88.83 3.09 88.83 2.72L88.83 2.72Q88.83 2.18 88.50 1.86Q88.18 1.55 87.60 1.55L87.60 1.55Q87.04 1.55 86.49 1.74Q85.94 1.92 85.54 2.19L85.54 2.19L84.83 0.75Q85.26 0.46 85.98 0.17Q86.69-0.13 87.58-0.13L87.58-0.13Q88.42-0.13 89.03 0.08Q89.65 0.29 90.05 0.66Q90.45 1.04 90.64 1.55Q90.83 2.06 90.83 2.66L90.83 2.66Q90.83 3.25 90.50 3.79Q90.16 4.34 89.60 4.62L89.60 4.62Q90.37 4.94 90.79 5.57Q91.22 6.19 91.22 7.06L91.22 7.06Q91.22 7.74 90.99 8.32Q90.77 8.90 90.30 9.32Q89.84 9.74 89.12 9.98Q88.40 10.21 87.41 10.21ZM94.83 1.74L94.83 8.40Q94.91 8.42 95.01 8.42Q95.10 8.42 95.18 8.42L95.18 8.42Q95.86 8.42 96.31 8.16Q96.77 7.90 97.05 7.46Q97.33 7.01 97.45 6.39Q97.57 5.78 97.57 5.04L97.57 5.04Q97.57 4.40 97.47 3.79Q97.38 3.18 97.14 2.72Q96.90 2.26 96.48 1.98Q96.06 1.70 95.41 1.70L95.41 1.70Q95.28 1.70 95.12 1.70Q94.96 1.71 94.83 1.74L94.83 1.74ZM99.57 5.04L99.57 5.04Q99.57 6.42 99.22 7.38Q98.88 8.35 98.27 8.96Q97.66 9.57 96.82 9.85Q95.98 10.13 94.98 10.13L94.98 10.13Q94.45 10.13 93.94 10.07Q93.44 10.02 92.86 9.89L92.86 9.89L92.86 0.22Q93.54 0.08 94.13 0.03Q94.72-0.02 95.23-0.02L95.23-0.02Q96.21-0.02 97.02 0.27Q97.82 0.56 98.38 1.18Q98.94 1.79 99.26 2.74Q99.57 3.70 99.57 5.04ZM110.98 10L109.01 10L109.01 0.10L115.07 0.10L115.07 1.73L110.98 1.73L110.98 4.13L114.56 4.13L114.56 5.76L110.98 5.76L110.98 10ZM120.54 0.32L120.54 0.32Q120.54 0.90 120.18 1.23Q119.81 1.57 119.30 1.57L119.30 1.57Q118.78 1.57 118.42 1.23Q118.06 0.90 118.06 0.32L118.06 0.32Q118.06-0.27 118.42-0.61Q118.78-0.94 119.30-0.94L119.30-0.94Q119.81-0.94 120.18-0.61Q120.54-0.27 120.54 0.32ZM123.22 8.10L123.47 9.68Q122.86 9.97 122.33 10.07Q121.79 10.18 121.34 10.18L121.34 10.18Q120.58 10.18 120.06 9.95Q119.54 9.73 119.22 9.30Q118.91 8.88 118.78 8.27Q118.66 7.66 118.66 6.88L118.66 6.88L118.66 4.11L116.58 4.11L116.58 2.48L120.62 2.48L120.62 7.14Q120.62 7.81 120.87 8.14Q121.12 8.46 121.70 8.46L121.70 8.46Q121.97 8.46 122.35 8.39Q122.74 8.32 123.22 8.10L123.22 8.10ZM131.22 8.10L131.47 9.68Q131.42 9.71 131.26 9.79Q131.09 9.87 130.82 9.96Q130.54 10.05 130.15 10.11Q129.76 10.18 129.26 10.18L129.26 10.18Q127.90 10.18 127.28 9.37Q126.66 8.56 126.66 7.01L126.66 7.01L126.66 0.62L124.58 0.62L124.58-1.01L128.62-1.01L128.62 7.15Q128.62 7.92 128.93 8.19Q129.23 8.46 129.70 8.46L129.70 8.46Q130.29 8.46 130.69 8.30Q131.09 8.14 131.22 8.10L131.22 8.10ZM132.50 6.30L132.50 6.30Q132.50 5.31 132.80 4.56Q133.10 3.81 133.60 3.30Q134.10 2.80 134.74 2.54Q135.38 2.29 136.05 2.29L136.05 2.29Q137.71 2.29 138.58 3.27Q139.44 4.26 139.44 6.14L139.44 6.14Q139.44 6.34 139.43 6.54Q139.42 6.75 139.41 6.88L139.41 6.88L134.53 6.88Q134.53 7.62 135.14 8.04Q135.74 8.46 136.70 8.46L136.70 8.46Q137.30 8.46 137.83 8.34Q138.37 8.21 138.74 8.08L138.74 8.08L139.01 9.76Q138.50 9.94 137.92 10.06Q137.34 10.18 136.62 10.18L136.62 10.18Q135.66 10.18 134.90 9.93Q134.14 9.68 133.61 9.19Q133.07 8.70 132.78 7.98Q132.50 7.26 132.50 6.30ZM134.53 5.52L137.54 5.52Q137.54 5.22 137.46 4.94Q137.38 4.66 137.20 4.43Q137.02 4.21 136.75 4.07Q136.48 3.94 136.08 3.94L136.08 3.94Q135.70 3.94 135.42 4.06Q135.14 4.19 134.95 4.42Q134.77 4.64 134.66 4.93Q134.56 5.22 134.53 5.52L134.53 5.52Z"/></g></svg>