<?xml version="1.0" encoding="UTF-8"?><svg height="26" width="66.3" version="1.1" xmlns="http://www.w3.org/2000/svg"><!--Created by Josélio de S. C. Júnior - 2021 - https://github.com/joseliojunior --><rect height="24" width="64.3" rx="12" ry="12" x="1" y="1" fill="#0000cc" stroke="#000033" stroke-width="1" /><g transform="translate(0, 8)"><path fill="#000033" d="M24.99 1.58L24.99 1.58Q24.29 1.58 23.81 1.84Q23.33 2.10 23.02 2.55Q22.70 3.01 22.57 3.64Q22.43 4.27 22.43 5.04L22.43 5.04Q22.43 6.82 22.99 7.66Q23.55 8.50 24.64 8.50L24.64 8.50Q24.82 8.50 25.02 8.48Q25.23 8.46 25.41 8.43L25.41 8.43L25.41 4.82L27.38 4.82L27.38 9.76Q27.02 9.89 26.28 10.05Q25.54 10.21 24.48 10.21L24.48 10.21Q23.55 10.21 22.81 9.88Q22.06 9.55 21.54 8.90Q21.01 8.26 20.72 7.29Q20.43 6.32 20.43 5.04L20.43 5.04Q20.43 3.78 20.77 2.81Q21.10 1.84 21.68 1.18Q22.26 0.53 23.04 0.20Q23.82-0.13 24.72-0.13L24.72-0.13Q25.30-0.13 25.75-0.04Q26.21 0.05 26.54 0.16Q26.88 0.27 27.10 0.40Q27.31 0.53 27.42 0.59L27.42 0.59L26.91 2.16Q26.56 1.94 26.05 1.76Q25.54 1.58 24.99 1.58ZM35.86 10L33.74 10L33.28 7.71L30.64 7.71L30.19 10L28.14 10Q28.85 7.07 29.57 4.66Q30.29 2.26 30.96 0.10L30.96 0.10L33.10 0.10Q33.81 2.27 34.50 4.71Q35.20 7.15 35.86 10L35.86 10ZM31.98 2.02L31.98 2.02Q31.82 2.58 31.69 3.08Q31.55 3.58 31.43 4.07Q31.31 4.56 31.21 5.06Q31.10 5.55 31.01 6.08L31.01 6.08L32.94 6.08Q32.85 5.55 32.75 5.06Q32.66 4.56 32.54 4.07Q32.42 3.58 32.28 3.08Q32.14 2.58 31.98 2.02ZM39.58-0.02L39.58-0.02Q41.47-0.02 42.51 0.76Q43.55 1.54 43.55 3.30L43.55 3.30Q43.55 5.07 42.50 5.86Q41.46 6.66 39.54 6.66L39.54 6.66L38.83 6.66L38.83 10L36.86 10L36.86 0.22Q37.15 0.16 37.51 0.11Q37.87 0.06 38.24 0.04Q38.61 0.02 38.96 0Q39.31-0.02 39.58-0.02ZM39.81 1.70L39.81 1.70Q39.63 1.70 39.32 1.70Q39.01 1.71 38.83 1.74L38.83 1.74L38.83 4.94L39.63 4.94Q40.58 4.94 41.06 4.57Q41.54 4.19 41.54 3.28L41.54 3.28Q41.54 2.42 41.06 2.06Q40.59 1.70 39.81 1.70Z"/></g></svg>