<?xml version="1.0" encoding="UTF-8"?>
<svg height="34" width="191.2" version="1.1" xmlns="http://www.w3.org/2000/svg">
    <rect
        height="32"
        width="189.2"
        rx="14"
        ry="14"
        x="1"
        y="1"
        fill="#fff1f2"
        stroke="#bd000d"
        stroke-width="1"
         />
    <g transform="translate(0, 14)">
        <path fill="#bd000d" d="M22.88 11L11.76 11L11.76-6.33L22.26-6.33L22.26-3.48L15.21-3.48L15.21 0.42L21.34 0.42L21.34 3.27L15.21 3.27L15.21 8.14L22.88 8.14L22.88 11ZM28.28 4.34L28.28 4.34Q28.28 6.10 28.94 7.22Q29.60 8.34 31.06 8.34L31.06 8.34Q31.48 8.34 31.84 8.31Q32.20 8.28 32.60 8.23L32.60 8.23L32.60 1.06Q32.20 0.84 31.70 0.68Q31.20 0.53 30.64 0.53L30.64 0.53Q29.40 0.53 28.84 1.51Q28.28 2.49 28.28 4.34ZM36.04-8.43L36.04 10.61Q35.09 10.92 33.72 11.11Q32.34 11.31 31.03 11.31L31.03 11.31Q27.95 11.31 26.37 9.49Q24.78 7.67 24.78 4.50L24.78 4.50Q24.78 1.28 26.11-0.58Q27.44-2.44 30.05-2.44L30.05-2.44Q30.75-2.44 31.42-2.29Q32.09-2.13 32.60-1.85L32.60-1.85L32.60-7.84L36.04-8.43ZM45.95-5.94L45.95-5.94Q45.95-4.93 45.31-4.34Q44.66-3.76 43.77-3.76L43.77-3.76Q42.87-3.76 42.24-4.34Q41.61-4.93 41.61-5.94L41.61-5.94Q41.61-6.98 42.24-7.56Q42.87-8.15 43.77-8.15L43.77-8.15Q44.66-8.15 45.31-7.56Q45.95-6.98 45.95-5.94ZM50.63 7.67L51.08 10.44Q50.01 10.94 49.07 11.13Q48.14 11.31 47.35 11.31L47.35 11.31Q46.01 11.31 45.10 10.92Q44.19 10.52 43.64 9.78Q43.10 9.04 42.87 7.98Q42.65 6.91 42.65 5.54L42.65 5.54L42.65 0.70L39.01 0.70L39.01-2.16L46.09-2.16L46.09 5.99Q46.09 7.16 46.53 7.74Q46.96 8.31 47.97 8.31L47.97 8.31Q48.44 8.31 49.12 8.19Q49.79 8.06 50.63 7.67L50.63 7.67ZM56.00 6.10L56.00 0.70L53.01 0.70L53.01-2.16L56.00-2.16L56.00-5.46L59.45-6.02L59.45-2.16L64.96-2.16L64.96 0.70L59.45 0.70L59.45 6.02Q59.45 6.74 59.59 7.19Q59.73 7.64 59.98 7.89Q60.23 8.14 60.60 8.23Q60.96 8.31 61.41 8.31L61.41 8.31Q61.88 8.31 62.29 8.28Q62.70 8.26 63.07 8.19Q63.45 8.12 63.86 7.98Q64.26 7.84 64.74 7.61L64.74 7.61L65.22 10.58Q64.26 10.97 63.16 11.14Q62.05 11.31 61.02 11.31L61.02 11.31Q59.81 11.31 58.89 11.11Q57.96 10.92 57.32 10.36Q56.68 9.80 56.34 8.77Q56.00 7.75 56.00 6.10L56.00 6.10ZM79.22 4.39L79.22 4.39Q79.22 5.96 78.77 7.23Q78.32 8.51 77.51 9.43Q76.70 10.36 75.56 10.86Q74.43 11.36 73.03 11.36L73.03 11.36Q71.63 11.36 70.49 10.86Q69.36 10.36 68.53 9.43Q67.71 8.51 67.26 7.23Q66.81 5.96 66.81 4.39L66.81 4.39Q66.81 2.85 67.27 1.58Q67.74 0.30 68.56-0.61Q69.39-1.52 70.54-2.01Q71.68-2.50 73.03-2.50L73.03-2.50Q74.40-2.50 75.53-2.01Q76.67-1.52 77.49-0.61Q78.32 0.30 78.77 1.58Q79.22 2.85 79.22 4.39ZM70.31 4.42L70.31 4.42Q70.31 6.18 70.94 7.28Q71.57 8.37 72.97 8.37L72.97 8.37Q74.32 8.37 75.00 7.28Q75.69 6.18 75.69 4.42L75.69 4.42Q75.69 2.66 75.06 1.58Q74.43 0.50 73.03 0.50L73.03 0.50Q71.68 0.50 71.00 1.58Q70.31 2.66 70.31 4.42ZM92.85-1.85L92.24 1.34Q91.90 1.26 91.44 1.17Q90.98 1.09 90.50 1.02Q90.02 0.95 89.58 0.92Q89.13 0.89 88.82 0.89L88.82 0.89Q88.09 0.89 87.39 0.96Q86.69 1.03 85.96 1.23L85.96 1.23L85.96 11L82.49 11L82.49-1.29Q83.86-1.80 85.31-2.10Q86.75-2.41 88.68-2.41L88.68-2.41Q88.96-2.41 89.48-2.38Q90.00-2.36 90.58-2.29Q91.17-2.22 91.77-2.12Q92.38-2.02 92.85-1.85L92.85-1.85ZM102.29 11.36L102.29 11.36Q98.62 11.36 96.69 9.01Q94.76 6.66 94.76 2.32L94.76 2.32Q94.76 0.16 95.34-1.52Q95.93-3.20 96.98-4.36Q98.03-5.52 99.47-6.12Q100.92-6.72 102.62-6.72L102.62-6.72Q103.55-6.72 104.29-6.57Q105.03-6.42 105.59-6.22Q106.15-6.02 106.53-5.80Q106.91-5.58 107.10-5.46L107.10-5.46L106.21-2.72Q105.56-3.14 104.65-3.43Q103.74-3.73 102.57-3.73L102.57-3.73Q101.76-3.73 100.99-3.43Q100.22-3.14 99.61-2.45Q99.01-1.77 98.63-0.62Q98.26 0.53 98.26 2.24L98.26 2.24Q98.26 5.20 99.28 6.79Q100.30 8.37 102.62 8.37L102.62 8.37Q103.97 8.37 104.85 8.06Q105.73 7.75 106.26 7.44L106.26 7.44L107.13 10.16Q106.40 10.61 105.16 10.99Q103.91 11.36 102.29 11.36ZM121.22 4.39L121.22 4.39Q121.22 5.96 120.77 7.23Q120.32 8.51 119.51 9.43Q118.70 10.36 117.56 10.86Q116.43 11.36 115.03 11.36L115.03 11.36Q113.63 11.36 112.49 10.86Q111.36 10.36 110.53 9.43Q109.71 8.51 109.26 7.23Q108.81 5.96 108.81 4.39L108.81 4.39Q108.81 2.85 109.27 1.58Q109.74 0.30 110.56-0.61Q111.39-1.52 112.54-2.01Q113.68-2.50 115.03-2.50L115.03-2.50Q116.40-2.50 117.53-2.01Q118.67-1.52 119.49-0.61Q120.32 0.30 120.77 1.58Q121.22 2.85 121.22 4.39ZM112.31 4.42L112.31 4.42Q112.31 6.18 112.94 7.28Q113.57 8.37 114.97 8.37L114.97 8.37Q116.32 8.37 117.00 7.28Q117.69 6.18 117.69 4.42L117.69 4.42Q117.69 2.66 117.06 1.58Q116.43 0.50 115.03 0.50L115.03 0.50Q113.68 0.50 113.00 1.58Q112.31 2.66 112.31 4.42ZM123.76 11L123.76-1.74Q124.69-1.99 126.05-2.22Q127.40-2.44 129-2.44L129-2.44Q130.57-2.44 131.60-2.01Q132.64-1.57 133.24-0.77Q133.84 0.02 134.10 1.13Q134.35 2.24 134.35 3.58L134.35 3.58L134.35 11L130.90 11L130.90 4.03Q130.90 2.18 130.48 1.37Q130.06 0.56 128.78 0.56L128.78 0.56Q128.38 0.56 128.01 0.58Q127.63 0.61 127.21 0.67L127.21 0.67L127.21 11L123.76 11ZM143.36 11L139.89 11L139.89 0.70L137.01 0.70L137.01-2.16L139.89-2.16L139.89-2.92Q139.89-4.51 140.35-5.56Q140.82-6.61 141.60-7.24Q142.38-7.87 143.39-8.14Q144.40-8.40 145.46-8.40L145.46-8.40Q146.56-8.40 147.70-8.21Q148.85-8.01 149.78-7.56L149.78-7.56L149.19-4.76Q148.54-4.99 147.58-5.23Q146.61-5.46 145.74-5.46L145.74-5.46Q145.27-5.46 144.83-5.38Q144.40-5.30 144.08-5.02Q143.76-4.74 143.56-4.22Q143.36-3.70 143.36-2.86L143.36-2.86L143.36-2.16L148.77-2.16L148.77 0.70L143.36 0.70L143.36 11ZM157.95-5.94L157.95-5.94Q157.95-4.93 157.31-4.34Q156.66-3.76 155.77-3.76L155.77-3.76Q154.87-3.76 154.24-4.34Q153.61-4.93 153.61-5.94L153.61-5.94Q153.61-6.98 154.24-7.56Q154.87-8.15 155.77-8.15L155.77-8.15Q156.66-8.15 157.31-7.56Q157.95-6.98 157.95-5.94ZM162.63 7.67L163.08 10.44Q162.01 10.94 161.07 11.13Q160.14 11.31 159.35 11.31L159.35 11.31Q158.01 11.31 157.10 10.92Q156.19 10.52 155.64 9.78Q155.10 9.04 154.87 7.98Q154.65 6.91 154.65 5.54L154.65 5.54L154.65 0.70L151.01 0.70L151.01-2.16L158.09-2.16L158.09 5.99Q158.09 7.16 158.53 7.74Q158.96 8.31 159.97 8.31L159.97 8.31Q160.44 8.31 161.12 8.19Q161.79 8.06 162.63 7.67L162.63 7.67ZM168.42 4L168.42 4Q168.42 5.62 169.01 6.48Q169.60 7.33 170.86 7.33L170.86 7.33Q171.42 7.33 171.91 7.19Q172.40 7.05 172.79 6.83L172.79 6.83L172.79 0.50Q172.40 0.42 172.09 0.39Q171.78 0.36 171.45 0.36L171.45 0.36Q168.42 0.36 168.42 4ZM176.26-1.74L176.26 9.40Q176.26 12.62 174.71 14.16Q173.16 15.70 169.71 15.70L169.71 15.70Q168.48 15.70 167.35 15.45Q166.21 15.20 165.18 14.86L165.18 14.86L165.82 11.95Q166.63 12.26 167.53 12.53Q168.42 12.79 169.77 12.79L169.77 12.79Q170.66 12.79 171.25 12.58Q171.84 12.37 172.18 12.01Q172.51 11.64 172.65 11.15Q172.79 10.66 172.79 10.10L172.79 10.10L172.79 9.57Q172.06 9.85 171.46 9.99Q170.86 10.13 170.16 10.13L170.16 10.13Q167.58 10.13 166.25 8.51Q164.92 6.88 164.92 4L164.92 4Q164.92 0.75 166.72-0.84Q168.51-2.44 171.59-2.44L171.59-2.44Q173.74-2.44 176.26-1.74L176.26-1.74Z"/>
    </g>
</svg>