<?xml version="1.0" encoding="UTF-8"?>
<svg height="26" width="179.7" version="1.1" xmlns="http://www.w3.org/2000/svg"><!--Created by Josélio de S. C. Júnior - 2021 - https://github.com/joseliojunior -->
    <rect
        height="24"
        width="177.7"
        rx="12"
        ry="12"
        x="1" y="1"
        fill="#0d948f"
        stroke="#4defea"
        stroke-width="1" />
    <g transform="translate(0, 8)">
        <path fill="#4defea" stroke="none" d="M24.74 10.21L24.74 10.21Q22.64 10.21 21.54 8.86Q20.43 7.52 20.43 5.04L20.43 5.04Q20.43 3.81 20.77 2.85Q21.10 1.89 21.70 1.22Q22.30 0.56 23.13 0.22Q23.95-0.13 24.93-0.13L24.93-0.13Q25.46-0.13 25.88-0.04Q26.30 0.05 26.62 0.16Q26.94 0.27 27.16 0.40Q27.38 0.53 27.49 0.59L27.49 0.59L26.98 2.16Q26.61 1.92 26.09 1.75Q25.57 1.58 24.90 1.58L24.90 1.58Q24.43 1.58 23.99 1.75Q23.55 1.92 23.21 2.31Q22.86 2.70 22.65 3.36Q22.43 4.02 22.43 4.99L22.43 4.99Q22.43 6.69 23.02 7.59Q23.60 8.50 24.93 8.50L24.93 8.50Q25.70 8.50 26.20 8.32Q26.70 8.14 27.01 7.97L27.01 7.97L27.50 9.52Q27.09 9.78 26.38 9.99Q25.66 10.21 24.74 10.21ZM35.22 8.10L35.47 9.68Q35.42 9.71 35.26 9.79Q35.09 9.87 34.82 9.96Q34.54 10.05 34.15 10.11Q33.76 10.18 33.26 10.18L33.26 10.18Q31.90 10.18 31.28 9.37Q30.66 8.56 30.66 7.01L30.66 7.01L30.66 0.62L28.58 0.62L28.58-1.01L32.62-1.01L32.62 7.15Q32.62 7.92 32.93 8.19Q33.23 8.46 33.70 8.46L33.70 8.46Q34.29 8.46 34.69 8.30Q35.09 8.14 35.22 8.10L35.22 8.10ZM43.55 6.22L43.55 6.22Q43.55 7.12 43.30 7.85Q43.04 8.58 42.58 9.10Q42.11 9.63 41.46 9.92Q40.82 10.21 40.02 10.21L40.02 10.21Q39.22 10.21 38.57 9.92Q37.92 9.63 37.45 9.10Q36.98 8.58 36.72 7.85Q36.46 7.12 36.46 6.22L36.46 6.22Q36.46 5.34 36.73 4.62Q36.99 3.89 37.46 3.37Q37.94 2.85 38.59 2.57Q39.25 2.29 40.02 2.29L40.02 2.29Q40.80 2.29 41.45 2.57Q42.10 2.85 42.57 3.37Q43.04 3.89 43.30 4.62Q43.55 5.34 43.55 6.22ZM38.46 6.24L38.46 6.24Q38.46 7.25 38.82 7.87Q39.18 8.50 39.98 8.50L39.98 8.50Q40.75 8.50 41.14 7.87Q41.54 7.25 41.54 6.24L41.54 6.24Q41.54 5.23 41.18 4.62Q40.82 4 40.02 4L40.02 4Q39.25 4 38.86 4.62Q38.46 5.23 38.46 6.24ZM47.65 8.51L47.65 8.51Q48.37 8.51 48.75 8.41Q49.14 8.30 49.14 7.98L49.14 7.98Q49.14 7.78 49.02 7.63Q48.90 7.49 48.68 7.38Q48.46 7.28 48.18 7.18Q47.90 7.09 47.60 6.99L47.60 6.99Q47.17 6.86 46.72 6.70Q46.27 6.53 45.90 6.27Q45.54 6.02 45.30 5.62Q45.06 5.23 45.06 4.64L45.06 4.64Q45.06 4.16 45.24 3.74Q45.42 3.31 45.82 2.98Q46.21 2.66 46.82 2.47Q47.42 2.29 48.27 2.29L48.27 2.29Q49.01 2.29 49.64 2.40Q50.27 2.51 50.74 2.72L50.74 2.72L50.43 4.38Q50.16 4.30 49.58 4.12Q49.01 3.94 48.29 3.94L48.29 3.94Q47.54 3.94 47.27 4.12Q47.01 4.30 47.01 4.51L47.01 4.51Q47.01 4.69 47.13 4.82Q47.25 4.96 47.45 5.07Q47.65 5.18 47.91 5.29Q48.18 5.39 48.48 5.49L48.48 5.49Q48.91 5.63 49.38 5.81Q49.84 5.98 50.22 6.25Q50.59 6.51 50.83 6.92Q51.07 7.33 51.07 7.92L51.07 7.92Q51.07 8.38 50.90 8.80Q50.72 9.22 50.31 9.52Q49.90 9.82 49.25 10Q48.59 10.18 47.63 10.18L47.63 10.18Q46.66 10.18 45.97 9.95Q45.28 9.73 44.86 9.55L44.86 9.55L45.17 7.90Q45.73 8.13 46.36 8.32Q46.99 8.51 47.65 8.51ZM59.01 2.48L59.01 9.74Q58.46 9.89 57.69 10.03Q56.91 10.18 56 10.18L56 10.18Q55.07 10.18 54.48 9.92Q53.89 9.66 53.54 9.19Q53.20 8.72 53.07 8.08Q52.94 7.44 52.94 6.67L52.94 6.67L52.94 2.48L54.91 2.48L54.91 6.42Q54.91 7.46 55.16 7.96Q55.41 8.46 56.13 8.46L56.13 8.46Q56.58 8.46 57.02 8.38L57.02 8.38L57.02 2.48L59.01 2.48ZM67.34 2.66L66.99 4.48Q66.80 4.43 66.54 4.38Q66.27 4.34 66 4.30Q65.73 4.26 65.47 4.24Q65.22 4.22 65.04 4.22L65.04 4.22Q64.62 4.22 64.22 4.26Q63.82 4.30 63.41 4.42L63.41 4.42L63.41 10L61.42 10L61.42 2.98Q62.21 2.69 63.03 2.51Q63.86 2.34 64.96 2.34L64.96 2.34Q65.12 2.34 65.42 2.35Q65.71 2.37 66.05 2.41Q66.38 2.45 66.73 2.50Q67.07 2.56 67.34 2.66L67.34 2.66ZM68.50 6.30L68.50 6.30Q68.50 5.31 68.80 4.56Q69.10 3.81 69.60 3.30Q70.10 2.80 70.74 2.54Q71.38 2.29 72.05 2.29L72.05 2.29Q73.71 2.29 74.58 3.27Q75.44 4.26 75.44 6.14L75.44 6.14Q75.44 6.34 75.43 6.54Q75.42 6.75 75.41 6.88L75.41 6.88L70.53 6.88Q70.53 7.62 71.14 8.04Q71.74 8.46 72.70 8.46L72.70 8.46Q73.30 8.46 73.83 8.34Q74.37 8.21 74.74 8.08L74.74 8.08L75.01 9.76Q74.50 9.94 73.92 10.06Q73.34 10.18 72.62 10.18L72.62 10.18Q71.66 10.18 70.90 9.93Q70.14 9.68 69.61 9.19Q69.07 8.70 68.78 7.98Q68.50 7.26 68.50 6.30ZM70.53 5.52L73.54 5.52Q73.54 5.22 73.46 4.94Q73.38 4.66 73.20 4.43Q73.02 4.21 72.75 4.07Q72.48 3.94 72.08 3.94L72.08 3.94Q71.70 3.94 71.42 4.06Q71.14 4.19 70.95 4.42Q70.77 4.64 70.66 4.93Q70.56 5.22 70.53 5.52L70.53 5.52ZM84.40 0.10L91.60 0.10L91.60 1.73L88.99 1.73L88.99 10L87.01 10L87.01 1.73L84.40 1.73L84.40 0.10ZM92.50 6.30L92.50 6.30Q92.50 5.31 92.80 4.56Q93.10 3.81 93.60 3.30Q94.10 2.80 94.74 2.54Q95.38 2.29 96.05 2.29L96.05 2.29Q97.71 2.29 98.58 3.27Q99.44 4.26 99.44 6.14L99.44 6.14Q99.44 6.34 99.43 6.54Q99.42 6.75 99.41 6.88L99.41 6.88L94.53 6.88Q94.53 7.62 95.14 8.04Q95.74 8.46 96.70 8.46L96.70 8.46Q97.30 8.46 97.83 8.34Q98.37 8.21 98.74 8.08L98.74 8.08L99.01 9.76Q98.50 9.94 97.92 10.06Q97.34 10.18 96.62 10.18L96.62 10.18Q95.66 10.18 94.90 9.93Q94.14 9.68 93.61 9.19Q93.07 8.70 92.78 7.98Q92.50 7.26 92.50 6.30ZM94.53 5.52L97.54 5.52Q97.54 5.22 97.46 4.94Q97.38 4.66 97.20 4.43Q97.02 4.21 96.75 4.07Q96.48 3.94 96.08 3.94L96.08 3.94Q95.70 3.94 95.42 4.06Q95.14 4.19 94.95 4.42Q94.77 4.64 94.66 4.93Q94.56 5.22 94.53 5.52L94.53 5.52ZM105.49 2.40L105.49 2.40Q106.11 2.40 106.51 2.59Q106.91 2.78 107.14 3.17Q107.38 3.55 107.46 4.14Q107.54 4.72 107.54 5.50L107.54 5.50L107.54 10L105.94 10L105.94 5.41Q105.94 4.96 105.88 4.69Q105.82 4.42 105.74 4.27Q105.65 4.13 105.53 4.08Q105.41 4.03 105.28 4.03L105.28 4.03Q105.14 4.03 104.98 4.06Q104.82 4.08 104.69 4.14L104.69 4.14Q104.74 4.45 104.77 4.82Q104.80 5.18 104.80 5.63L104.80 5.63L104.80 7.14L103.20 7.14L103.20 5.41Q103.20 4.64 103.05 4.34Q102.90 4.03 102.56 4.03L102.56 4.03Q102.46 4.03 102.33 4.05Q102.19 4.06 102.06 4.10L102.06 4.10L102.06 10L100.46 10L100.46 2.77Q101.09 2.59 101.70 2.50Q102.30 2.40 102.77 2.40L102.77 2.40Q103.18 2.40 103.51 2.50Q103.84 2.61 104.08 2.85L104.08 2.85Q104.35 2.67 104.72 2.54Q105.09 2.40 105.49 2.40ZM113.50 6.30L113.50 6.30Q113.50 5.30 113.10 4.65Q112.70 4 111.89 4L111.89 4Q111.66 4 111.41 4.02Q111.15 4.05 110.98 4.06L110.98 4.06L110.98 8.19Q111.17 8.32 111.49 8.40Q111.81 8.48 112.13 8.48L112.13 8.48Q112.83 8.48 113.17 7.91Q113.50 7.34 113.50 6.30ZM115.50 6.24L115.50 6.24Q115.50 7.10 115.31 7.83Q115.12 8.56 114.75 9.08Q114.38 9.60 113.82 9.89Q113.26 10.18 112.53 10.18L112.53 10.18Q111.78 10.18 110.98 9.81L110.98 9.81L110.98 12.64L109.01 12.64L109.01 2.72Q109.55 2.54 110.34 2.43Q111.14 2.32 111.90 2.32L111.90 2.32Q113.65 2.32 114.58 3.38Q115.50 4.43 115.50 6.24ZM123.22 8.10L123.47 9.68Q123.42 9.71 123.26 9.79Q123.09 9.87 122.82 9.96Q122.54 10.05 122.15 10.11Q121.76 10.18 121.26 10.18L121.26 10.18Q119.90 10.18 119.28 9.37Q118.66 8.56 118.66 7.01L118.66 7.01L118.66 0.62L116.58 0.62L116.58-1.01L120.62-1.01L120.62 7.15Q120.62 7.92 120.93 8.19Q121.23 8.46 121.70 8.46L121.70 8.46Q122.29 8.46 122.69 8.30Q123.09 8.14 123.22 8.10L123.22 8.10ZM128.02 8.59L128.02 8.59Q128.34 8.59 128.64 8.58Q128.94 8.58 129.17 8.54L129.17 8.54L129.17 6.82Q128.98 6.78 128.70 6.76Q128.43 6.74 128.21 6.74L128.21 6.74Q127.90 6.74 127.62 6.78Q127.33 6.82 127.11 6.91Q126.90 7.01 126.77 7.18Q126.64 7.36 126.64 7.65L126.64 7.65Q126.64 8.16 127.02 8.38Q127.41 8.59 128.02 8.59ZM127.84 2.29L127.84 2.29Q128.77 2.29 129.38 2.50Q130 2.72 130.37 3.11Q130.74 3.50 130.90 4.07Q131.06 4.64 131.06 5.34L131.06 5.34L131.06 9.82Q130.62 9.92 129.78 10.05Q128.93 10.18 127.87 10.18L127.87 10.18Q127.15 10.18 126.57 10.05Q125.98 9.92 125.57 9.62Q125.15 9.33 124.93 8.86Q124.70 8.38 124.70 7.70L124.70 7.70Q124.70 7.04 124.96 6.59Q125.22 6.14 125.65 5.87Q126.08 5.60 126.64 5.48Q127.20 5.36 127.81 5.36L127.81 5.36Q128.58 5.36 129.17 5.49L129.17 5.49L129.17 5.25Q129.17 4.69 128.82 4.31Q128.46 3.94 127.60 3.94L127.60 3.94Q127.04 3.94 126.52 4.02Q126 4.10 125.68 4.21L125.68 4.21L125.41 2.62Q125.78 2.50 126.45 2.39Q127.12 2.29 127.84 2.29ZM134.29 7.20L134.29 4.11L132.58 4.11L132.58 2.48L134.29 2.48L134.29 0.59L136.26 0.27L136.26 2.48L139.41 2.48L139.41 4.11L136.26 4.11L136.26 7.15Q136.26 7.57 136.34 7.82Q136.42 8.08 136.56 8.22Q136.70 8.37 136.91 8.42Q137.12 8.46 137.38 8.46L137.38 8.46Q137.65 8.46 137.88 8.45Q138.11 8.43 138.33 8.39Q138.54 8.35 138.78 8.27Q139.01 8.19 139.28 8.06L139.28 8.06L139.55 9.76Q139.01 9.98 138.38 10.08Q137.74 10.18 137.15 10.18L137.15 10.18Q136.46 10.18 135.94 10.06Q135.41 9.95 135.04 9.63Q134.67 9.31 134.48 8.73Q134.29 8.14 134.29 7.20L134.29 7.20ZM140.50 6.30L140.50 6.30Q140.50 5.31 140.80 4.56Q141.10 3.81 141.60 3.30Q142.10 2.80 142.74 2.54Q143.38 2.29 144.05 2.29L144.05 2.29Q145.71 2.29 146.58 3.27Q147.44 4.26 147.44 6.14L147.44 6.14Q147.44 6.34 147.43 6.54Q147.42 6.75 147.41 6.88L147.41 6.88L142.53 6.88Q142.53 7.62 143.14 8.04Q143.74 8.46 144.70 8.46L144.70 8.46Q145.30 8.46 145.83 8.34Q146.37 8.21 146.74 8.08L146.74 8.08L147.01 9.76Q146.50 9.94 145.92 10.06Q145.34 10.18 144.62 10.18L144.62 10.18Q143.66 10.18 142.90 9.93Q142.14 9.68 141.61 9.19Q141.07 8.70 140.78 7.98Q140.50 7.26 140.50 6.30ZM142.53 5.52L145.54 5.52Q145.54 5.22 145.46 4.94Q145.38 4.66 145.20 4.43Q145.02 4.21 144.75 4.07Q144.48 3.94 144.08 3.94L144.08 3.94Q143.70 3.94 143.42 4.06Q143.14 4.19 142.95 4.42Q142.77 4.64 142.66 4.93Q142.56 5.22 142.53 5.52L142.53 5.52ZM151.65 8.51L151.65 8.51Q152.37 8.51 152.75 8.41Q153.14 8.30 153.14 7.98L153.14 7.98Q153.14 7.78 153.02 7.63Q152.90 7.49 152.68 7.38Q152.46 7.28 152.18 7.18Q151.90 7.09 151.60 6.99L151.60 6.99Q151.17 6.86 150.72 6.70Q150.27 6.53 149.90 6.27Q149.54 6.02 149.30 5.62Q149.06 5.23 149.06 4.64L149.06 4.64Q149.06 4.16 149.24 3.74Q149.42 3.31 149.82 2.98Q150.21 2.66 150.82 2.47Q151.42 2.29 152.27 2.29L152.27 2.29Q153.01 2.29 153.64 2.40Q154.27 2.51 154.74 2.72L154.74 2.72L154.43 4.38Q154.16 4.30 153.58 4.12Q153.01 3.94 152.29 3.94L152.29 3.94Q151.54 3.94 151.27 4.12Q151.01 4.30 151.01 4.51L151.01 4.51Q151.01 4.69 151.13 4.82Q151.25 4.96 151.45 5.07Q151.65 5.18 151.91 5.29Q152.18 5.39 152.48 5.49L152.48 5.49Q152.91 5.63 153.38 5.81Q153.84 5.98 154.22 6.25Q154.59 6.51 154.83 6.92Q155.07 7.33 155.07 7.92L155.07 7.92Q155.07 8.38 154.90 8.80Q154.72 9.22 154.31 9.52Q153.90 9.82 153.25 10Q152.59 10.18 151.63 10.18L151.63 10.18Q150.66 10.18 149.97 9.95Q149.28 9.73 148.86 9.55L148.86 9.55L149.17 7.90Q149.73 8.13 150.36 8.32Q150.99 8.51 151.65 8.51Z"/>
    </g>
</svg>