<?xml version="1.0" encoding="UTF-8"?>
<svg height="34" width="247.7" version="1.1" xmlns="http://www.w3.org/2000/svg"><!--Created by Josélio de S. C. Júnior - 2021 - https://github.com/joseliojunior -->
    <rect
        height="32"
        width="245.7"
        rx="1"
        ry="1"
        x="1" y="1"
        fill="#0d948f"
        stroke="#4defea"
        stroke-width="1" />
    <g transform="translate(0, 12)">
        <path fill="#4defea" stroke="none" d="M27.10 12.31L27.10 12.31Q23.96 12.31 22.30 10.30Q20.65 8.28 20.65 4.56L20.65 4.56Q20.65 2.71 21.15 1.27Q21.66-0.17 22.56-1.16Q23.46-2.16 24.69-2.68Q25.93-3.19 27.39-3.19L27.39-3.19Q28.18-3.19 28.82-3.06Q29.46-2.93 29.94-2.76Q30.42-2.59 30.74-2.40Q31.06-2.21 31.23-2.11L31.23-2.11L30.46 0.24Q29.91-0.12 29.13-0.37Q28.35-0.62 27.34-0.62L27.34-0.62Q26.65-0.62 25.99-0.37Q25.33-0.12 24.81 0.47Q24.30 1.06 23.97 2.04Q23.65 3.02 23.65 4.49L23.65 4.49Q23.65 7.03 24.52 8.39Q25.40 9.74 27.39 9.74L27.39 9.74Q28.54 9.74 29.30 9.48Q30.06 9.22 30.51 8.95L30.51 8.95L31.26 11.28Q30.63 11.66 29.56 11.99Q28.50 12.31 27.10 12.31ZM42.82 9.14L43.21 11.52Q43.14 11.57 42.88 11.69Q42.63 11.81 42.22 11.94Q41.82 12.07 41.23 12.17Q40.64 12.26 39.90 12.26L39.90 12.26Q37.86 12.26 36.92 11.05Q35.98 9.84 35.98 7.51L35.98 7.51L35.98-2.06L32.86-2.06L32.86-4.51L38.94-4.51L38.94 7.73Q38.94 8.88 39.39 9.29Q39.85 9.70 40.54 9.70L40.54 9.70Q41.43 9.70 42.03 9.46Q42.63 9.22 42.82 9.14L42.82 9.14ZM55.33 6.34L55.33 6.34Q55.33 7.68 54.94 8.77Q54.56 9.86 53.86 10.66Q53.17 11.45 52.20 11.88Q51.22 12.31 50.02 12.31L50.02 12.31Q48.82 12.31 47.85 11.88Q46.88 11.45 46.17 10.66Q45.46 9.86 45.08 8.77Q44.70 7.68 44.70 6.34L44.70 6.34Q44.70 5.02 45.09 3.92Q45.49 2.83 46.20 2.05Q46.90 1.27 47.89 0.85Q48.87 0.43 50.02 0.43L50.02 0.43Q51.20 0.43 52.17 0.85Q53.14 1.27 53.85 2.05Q54.56 2.83 54.94 3.92Q55.33 5.02 55.33 6.34ZM47.70 6.36L47.70 6.36Q47.70 7.87 48.24 8.81Q48.78 9.74 49.98 9.74L49.98 9.74Q51.13 9.74 51.72 8.81Q52.30 7.87 52.30 6.36L52.30 6.36Q52.30 4.85 51.76 3.92Q51.22 3 50.02 3L50.02 3Q48.87 3 48.28 3.92Q47.70 4.85 47.70 6.36ZM61.47 9.77L61.47 9.77Q62.55 9.77 63.13 9.61Q63.70 9.46 63.70 8.98L63.70 8.98Q63.70 8.66 63.52 8.45Q63.34 8.23 63.02 8.08Q62.70 7.92 62.28 7.78Q61.86 7.63 61.40 7.49L61.40 7.49Q60.75 7.30 60.08 7.04Q59.41 6.79 58.86 6.41Q58.30 6.02 57.94 5.44Q57.58 4.85 57.58 3.96L57.58 3.96Q57.58 3.24 57.86 2.60Q58.14 1.97 58.72 1.48Q59.31 0.98 60.22 0.71Q61.14 0.43 62.41 0.43L62.41 0.43Q63.51 0.43 64.46 0.60Q65.41 0.77 66.10 1.08L66.10 1.08L65.65 3.58Q65.24 3.46 64.38 3.18Q63.51 2.90 62.43 2.90L62.43 2.90Q61.30 2.90 60.91 3.18Q60.51 3.46 60.51 3.77L60.51 3.77Q60.51 4.03 60.69 4.24Q60.87 4.44 61.17 4.61Q61.47 4.78 61.87 4.93Q62.26 5.09 62.72 5.23L62.72 5.23Q63.37 5.45 64.06 5.71Q64.76 5.98 65.32 6.37Q65.89 6.77 66.25 7.38Q66.61 7.99 66.61 8.88L66.61 8.88Q66.61 9.58 66.34 10.20Q66.08 10.82 65.47 11.28Q64.86 11.74 63.87 12Q62.89 12.26 61.45 12.26L61.45 12.26Q59.98 12.26 58.95 11.93Q57.92 11.59 57.30 11.33L57.30 11.33L57.75 8.86Q58.59 9.19 59.54 9.48Q60.49 9.77 61.47 9.77ZM78.51 0.72L78.51 11.62Q77.70 11.83 76.53 12.05Q75.37 12.26 74 12.26L74 12.26Q72.61 12.26 71.72 11.88Q70.83 11.50 70.32 10.79Q69.80 10.08 69.61 9.12Q69.42 8.16 69.42 7.01L69.42 7.01L69.42 0.72L72.37 0.72L72.37 6.62Q72.37 8.18 72.74 8.94Q73.11 9.70 74.19 9.70L74.19 9.70Q74.86 9.70 75.54 9.58L75.54 9.58L75.54 0.72L78.51 0.72ZM91.02 0.98L90.49 3.72Q90.20 3.65 89.80 3.58Q89.41 3.50 89 3.44Q88.59 3.38 88.21 3.36Q87.82 3.34 87.56 3.34L87.56 3.34Q86.94 3.34 86.34 3.40Q85.74 3.46 85.11 3.62L85.11 3.62L85.11 12L82.14 12L82.14 1.46Q83.31 1.03 84.55 0.77Q85.78 0.50 87.44 0.50L87.44 0.50Q87.68 0.50 88.12 0.53Q88.57 0.55 89.07 0.61Q89.58 0.67 90.09 0.76Q90.61 0.84 91.02 0.98L91.02 0.98ZM92.74 6.46L92.74 6.46Q92.74 4.97 93.20 3.84Q93.66 2.71 94.40 1.96Q95.14 1.20 96.10 0.82Q97.06 0.43 98.07 0.43L98.07 0.43Q100.57 0.43 101.86 1.91Q103.16 3.38 103.16 6.22L103.16 6.22Q103.16 6.50 103.15 6.82Q103.14 7.13 103.11 7.32L103.11 7.32L95.79 7.32Q95.79 8.42 96.70 9.06Q97.62 9.70 99.06 9.70L99.06 9.70Q99.94 9.70 100.75 9.50Q101.55 9.31 102.10 9.12L102.10 9.12L102.51 11.64Q101.74 11.90 100.88 12.08Q100.02 12.26 98.94 12.26L98.94 12.26Q97.50 12.26 96.36 11.89Q95.22 11.52 94.41 10.79Q93.61 10.06 93.18 8.98Q92.74 7.90 92.74 6.46ZM95.79 5.28L100.30 5.28Q100.30 4.82 100.18 4.40Q100.06 3.98 99.80 3.65Q99.54 3.31 99.13 3.11Q98.72 2.90 98.12 2.90L98.12 2.90Q97.54 2.90 97.12 3.10Q96.70 3.29 96.43 3.62Q96.15 3.96 96.00 4.39Q95.84 4.82 95.79 5.28L95.79 5.28ZM116.60-2.86L127.40-2.86L127.40-0.41L123.49-0.41L123.49 12L120.51 12L120.51-0.41L116.60-0.41L116.60-2.86ZM128.74 6.46L128.74 6.46Q128.74 4.97 129.20 3.84Q129.66 2.71 130.40 1.96Q131.14 1.20 132.10 0.82Q133.06 0.43 134.07 0.43L134.07 0.43Q136.57 0.43 137.86 1.91Q139.16 3.38 139.16 6.22L139.16 6.22Q139.16 6.50 139.15 6.82Q139.14 7.13 139.11 7.32L139.11 7.32L131.79 7.32Q131.79 8.42 132.70 9.06Q133.62 9.70 135.06 9.70L135.06 9.70Q135.94 9.70 136.75 9.50Q137.55 9.31 138.10 9.12L138.10 9.12L138.51 11.64Q137.74 11.90 136.88 12.08Q136.02 12.26 134.94 12.26L134.94 12.26Q133.50 12.26 132.36 11.89Q131.22 11.52 130.41 10.79Q129.61 10.06 129.18 8.98Q128.74 7.90 128.74 6.46ZM131.79 5.28L136.30 5.28Q136.30 4.82 136.18 4.40Q136.06 3.98 135.80 3.65Q135.54 3.31 135.13 3.11Q134.72 2.90 134.12 2.90L134.12 2.90Q133.54 2.90 133.12 3.10Q132.70 3.29 132.43 3.62Q132.15 3.96 132.00 4.39Q131.84 4.82 131.79 5.28L131.79 5.28ZM148.23 0.60L148.23 0.60Q149.17 0.60 149.77 0.89Q150.37 1.18 150.72 1.75Q151.06 2.33 151.18 3.20Q151.30 4.08 151.30 5.26L151.30 5.26L151.30 12L148.90 12L148.90 5.11Q148.90 4.44 148.82 4.03Q148.74 3.62 148.60 3.41Q148.47 3.19 148.29 3.12Q148.11 3.05 147.92 3.05L147.92 3.05Q147.70 3.05 147.46 3.08Q147.22 3.12 147.03 3.22L147.03 3.22Q147.10 3.67 147.15 4.22Q147.20 4.78 147.20 5.45L147.20 5.45L147.20 7.70L144.80 7.70L144.80 5.11Q144.80 3.96 144.57 3.50Q144.34 3.05 143.84 3.05L143.84 3.05Q143.70 3.05 143.49 3.07Q143.29 3.10 143.10 3.14L143.10 3.14L143.10 12L140.70 12L140.70 1.15Q141.63 0.89 142.54 0.74Q143.46 0.60 144.15 0.60L144.15 0.60Q144.78 0.60 145.27 0.76Q145.76 0.91 146.12 1.27L146.12 1.27Q146.53 1.01 147.08 0.80Q147.63 0.60 148.23 0.60ZM160.26 6.46L160.26 6.46Q160.26 4.94 159.66 3.97Q159.06 3 157.83 3L157.83 3Q157.50 3 157.11 3.04Q156.73 3.07 156.46 3.10L156.46 3.10L156.46 9.29Q156.75 9.48 157.23 9.60Q157.71 9.72 158.19 9.72L158.19 9.72Q159.25 9.72 159.75 8.87Q160.26 8.02 160.26 6.46ZM163.26 6.36L163.26 6.36Q163.26 7.66 162.97 8.75Q162.68 9.84 162.13 10.62Q161.58 11.40 160.74 11.83Q159.90 12.26 158.79 12.26L158.79 12.26Q157.66 12.26 156.46 11.71L156.46 11.71L156.46 15.96L153.51 15.96L153.51 1.08Q154.33 0.82 155.52 0.65Q156.70 0.48 157.86 0.48L157.86 0.48Q160.47 0.48 161.86 2.06Q163.26 3.65 163.26 6.36ZM174.82 9.14L175.21 11.52Q175.14 11.57 174.88 11.69Q174.63 11.81 174.22 11.94Q173.82 12.07 173.23 12.17Q172.64 12.26 171.90 12.26L171.90 12.26Q169.86 12.26 168.92 11.05Q167.98 9.84 167.98 7.51L167.98 7.51L167.98-2.06L164.86-2.06L164.86-4.51L170.94-4.51L170.94 7.73Q170.94 8.88 171.39 9.29Q171.85 9.70 172.54 9.70L172.54 9.70Q173.43 9.70 174.03 9.46Q174.63 9.22 174.82 9.14L174.82 9.14ZM182.02 9.89L182.02 9.89Q182.50 9.89 182.96 9.88Q183.42 9.86 183.75 9.82L183.75 9.82L183.75 7.22Q183.46 7.18 183.06 7.14Q182.65 7.10 182.31 7.10L182.31 7.10Q181.86 7.10 181.42 7.16Q180.99 7.22 180.67 7.37Q180.34 7.51 180.15 7.78Q179.96 8.04 179.96 8.47L179.96 8.47Q179.96 9.24 180.54 9.56Q181.11 9.89 182.02 9.89ZM181.76 0.43L181.76 0.43Q183.15 0.43 184.08 0.76Q185 1.08 185.55 1.67Q186.10 2.26 186.34 3.11Q186.58 3.96 186.58 5.02L186.58 5.02L186.58 11.74Q185.94 11.88 184.66 12.07Q183.39 12.26 181.81 12.26L181.81 12.26Q180.73 12.26 179.85 12.07Q178.98 11.88 178.35 11.44Q177.73 10.99 177.39 10.28Q177.06 9.58 177.06 8.54L177.06 8.54Q177.06 7.56 177.44 6.89Q177.82 6.22 178.47 5.81Q179.12 5.40 179.96 5.22Q180.80 5.04 181.71 5.04L181.71 5.04Q182.86 5.04 183.75 5.23L183.75 5.23L183.75 4.87Q183.75 4.03 183.22 3.47Q182.70 2.90 181.40 2.90L181.40 2.90Q180.56 2.90 179.78 3.02Q179 3.14 178.52 3.31L178.52 3.31L178.11 0.94Q178.66 0.74 179.67 0.59Q180.68 0.43 181.76 0.43ZM191.43 7.80L191.43 3.17L188.86 3.17L188.86 0.72L191.43 0.72L191.43-2.11L194.38-2.59L194.38 0.72L199.11 0.72L199.11 3.17L194.38 3.17L194.38 7.73Q194.38 8.35 194.50 8.74Q194.62 9.12 194.84 9.34Q195.06 9.55 195.37 9.62Q195.68 9.70 196.06 9.70L196.06 9.70Q196.47 9.70 196.82 9.67Q197.17 9.65 197.49 9.59Q197.82 9.53 198.16 9.41Q198.51 9.29 198.92 9.10L198.92 9.10L199.33 11.64Q198.51 11.98 197.56 12.12Q196.62 12.26 195.73 12.26L195.73 12.26Q194.70 12.26 193.90 12.10Q193.11 11.93 192.56 11.45Q192.01 10.97 191.72 10.09Q191.43 9.22 191.43 7.80L191.43 7.80ZM200.74 6.46L200.74 6.46Q200.74 4.97 201.20 3.84Q201.66 2.71 202.40 1.96Q203.14 1.20 204.10 0.82Q205.06 0.43 206.07 0.43L206.07 0.43Q208.57 0.43 209.86 1.91Q211.16 3.38 211.16 6.22L211.16 6.22Q211.16 6.50 211.15 6.82Q211.14 7.13 211.11 7.32L211.11 7.32L203.79 7.32Q203.79 8.42 204.70 9.06Q205.62 9.70 207.06 9.70L207.06 9.70Q207.94 9.70 208.75 9.50Q209.55 9.31 210.10 9.12L210.10 9.12L210.51 11.64Q209.74 11.90 208.88 12.08Q208.02 12.26 206.94 12.26L206.94 12.26Q205.50 12.26 204.36 11.89Q203.22 11.52 202.41 10.79Q201.61 10.06 201.18 8.98Q200.74 7.90 200.74 6.46ZM203.79 5.28L208.30 5.28Q208.30 4.82 208.18 4.40Q208.06 3.98 207.80 3.65Q207.54 3.31 207.13 3.11Q206.72 2.90 206.12 2.90L206.12 2.90Q205.54 2.90 205.12 3.10Q204.70 3.29 204.43 3.62Q204.15 3.96 204.00 4.39Q203.84 4.82 203.79 5.28L203.79 5.28ZM217.47 9.77L217.47 9.77Q218.55 9.77 219.13 9.61Q219.70 9.46 219.70 8.98L219.70 8.98Q219.70 8.66 219.52 8.45Q219.34 8.23 219.02 8.08Q218.70 7.92 218.28 7.78Q217.86 7.63 217.40 7.49L217.40 7.49Q216.75 7.30 216.08 7.04Q215.41 6.79 214.86 6.41Q214.30 6.02 213.94 5.44Q213.58 4.85 213.58 3.96L213.58 3.96Q213.58 3.24 213.86 2.60Q214.14 1.97 214.72 1.48Q215.31 0.98 216.22 0.71Q217.14 0.43 218.41 0.43L218.41 0.43Q219.51 0.43 220.46 0.60Q221.41 0.77 222.10 1.08L222.10 1.08L221.65 3.58Q221.24 3.46 220.38 3.18Q219.51 2.90 218.43 2.90L218.43 2.90Q217.30 2.90 216.91 3.18Q216.51 3.46 216.51 3.77L216.51 3.77Q216.51 4.03 216.69 4.24Q216.87 4.44 217.17 4.61Q217.47 4.78 217.87 4.93Q218.26 5.09 218.72 5.23L218.72 5.23Q219.37 5.45 220.06 5.71Q220.76 5.98 221.32 6.37Q221.89 6.77 222.25 7.38Q222.61 7.99 222.61 8.88L222.61 8.88Q222.61 9.58 222.34 10.20Q222.08 10.82 221.47 11.28Q220.86 11.74 219.87 12Q218.89 12.26 217.45 12.26L217.45 12.26Q215.98 12.26 214.95 11.93Q213.92 11.59 213.30 11.33L213.30 11.33L213.75 8.86Q214.59 9.19 215.54 9.48Q216.49 9.77 217.47 9.77Z"/>
    </g>
</svg>