<?xml version="1.0" encoding="UTF-8"?>
<svg height="34" width="102.5" version="1.1" xmlns="http://www.w3.org/2000/svg"><!--Created by Josélio de S. C. Júnior - 2021 - https://github.com/joseliojunior -->
    <rect
        height="32"
        width="100.5"
        rx="1"
        ry="1"
        x="1" y="1"
        fill="#ccccee"
        stroke="#3c3cb4"
        stroke-width="1" />
    <g transform="translate(0, 12)">
        <path fill="#3c3cb4" d="M25.95 12.31L25.95 12.31Q24.51 12.31 23.54 11.92Q22.57 11.52 21.99 10.78Q21.42 10.03 21.18 8.98Q20.94 7.92 20.94 6.62L20.94 6.62L20.94-2.86L23.91-2.86L23.91 6.43Q23.91 7.37 24.01 8.00Q24.10 8.64 24.33 9.02Q24.56 9.41 24.97 9.58Q25.38 9.74 26 9.74L26 9.74Q26.62 9.74 27.03 9.58Q27.44 9.41 27.68 9.01Q27.92 8.62 28.02 7.98Q28.11 7.34 28.11 6.41L28.11 6.41L28.11-2.86L31.06-2.86L31.06 6.62Q31.06 7.92 30.82 8.98Q30.58 10.03 29.98 10.78Q29.38 11.52 28.40 11.92Q27.42 12.31 25.95 12.31ZM43.02 0.98L42.49 3.72Q42.20 3.65 41.80 3.58Q41.41 3.50 41 3.44Q40.59 3.38 40.21 3.36Q39.82 3.34 39.56 3.34L39.56 3.34Q38.94 3.34 38.34 3.40Q37.74 3.46 37.11 3.62L37.11 3.62L37.11 12L34.14 12L34.14 1.46Q35.31 1.03 36.55 0.77Q37.78 0.50 39.44 0.50L39.44 0.50Q39.68 0.50 40.12 0.53Q40.57 0.55 41.07 0.61Q41.58 0.67 42.09 0.76Q42.61 0.84 43.02 0.98L43.02 0.98ZM48.94 2.40L51.10 2.40Q51.20 2.86 51.39 3.53Q51.58 4.20 51.81 5.02Q52.04 5.83 52.32 6.77Q52.59 7.70 52.86 8.69L52.86 8.69Q52.86 7.44 52.83 6.01Q52.81 4.58 52.78 3.10Q52.76 1.61 52.74 0.08Q52.71-1.44 52.71-2.86L52.71-2.86L55.45-2.86Q55.38-1.03 55.30 0.90Q55.23 2.83 55.14 4.74Q55.04 6.65 54.91 8.50Q54.78 10.34 54.61 12L54.61 12L52.16 12Q51.63 10.49 51.10 8.75Q50.58 7.01 50.05 5.42L50.05 5.42Q49.52 6.94 48.94 8.71Q48.37 10.49 47.89 12L47.89 12L45.44 12Q45.25 10.34 45.10 8.48Q44.96 6.62 44.85 4.72Q44.74 2.81 44.67 0.88Q44.60-1.06 44.55-2.86L44.55-2.86L47.29-2.86Q47.26-1.44 47.24 0.07Q47.22 1.58 47.19 3.08Q47.17 4.58 47.14 6.01Q47.12 7.44 47.12 8.69L47.12 8.69Q47.34 7.92 47.61 7.01Q47.89 6.10 48.14 5.21Q48.39 4.32 48.61 3.58Q48.82 2.83 48.94 2.40L48.94 2.40ZM56.74 6.46L56.74 6.46Q56.74 4.97 57.20 3.84Q57.66 2.71 58.40 1.96Q59.14 1.20 60.10 0.82Q61.06 0.43 62.07 0.43L62.07 0.43Q64.57 0.43 65.86 1.91Q67.16 3.38 67.16 6.22L67.16 6.22Q67.16 6.50 67.15 6.82Q67.14 7.13 67.11 7.32L67.11 7.32L59.79 7.32Q59.79 8.42 60.70 9.06Q61.62 9.70 63.06 9.70L63.06 9.70Q63.94 9.70 64.75 9.50Q65.55 9.31 66.10 9.12L66.10 9.12L66.51 11.64Q65.74 11.90 64.88 12.08Q64.02 12.26 62.94 12.26L62.94 12.26Q61.50 12.26 60.36 11.89Q59.22 11.52 58.41 10.79Q57.61 10.06 57.18 8.98Q56.74 7.90 56.74 6.46ZM59.79 5.28L64.30 5.28Q64.30 4.82 64.18 4.40Q64.06 3.98 63.80 3.65Q63.54 3.31 63.13 3.11Q62.72 2.90 62.12 2.90L62.12 2.90Q61.54 2.90 61.12 3.10Q60.70 3.29 60.43 3.62Q60.15 3.96 60.00 4.39Q59.84 4.82 59.79 5.28L59.79 5.28ZM76.28 6.29L76.28 6.29Q76.28 4.70 75.76 3.86Q75.25 3.02 74.19 3.02L74.19 3.02Q73.71 3.02 73.24 3.16Q72.78 3.29 72.44 3.48L72.44 3.48L72.44 9.60Q72.78 9.67 73.15 9.70Q73.52 9.72 73.78 9.72L73.78 9.72Q74.94 9.72 75.61 8.94Q76.28 8.16 76.28 6.29ZM79.28 6.36L79.28 6.36Q79.28 7.70 78.92 8.80Q78.56 9.89 77.86 10.66Q77.17 11.42 76.16 11.84Q75.15 12.26 73.86 12.26L73.86 12.26Q72.70 12.26 71.50 12.10Q70.30 11.93 69.49 11.66L69.49 11.66L69.49-4.15L72.44-4.66L72.44 0.98Q73.06 0.70 73.64 0.59Q74.22 0.48 74.79 0.48L74.79 0.48Q75.90 0.48 76.74 0.90Q77.58 1.32 78.14 2.10Q78.70 2.88 78.99 3.96Q79.28 5.04 79.28 6.36Z"/>
    </g>
</svg>