<?xml version="1.0" encoding="UTF-8"?>
<svg height="26" width="82.5" version="1.1" xmlns="http://www.w3.org/2000/svg"><!--Created by Josélio de S. C. Júnior - 2021 - https://github.com/joseliojunior -->
    <rect
        height="24"
        width="80.5"
        rx="1"
        ry="1"
        x="1" y="1"
        fill="#ccccee"
        stroke="#3c3cb4"
        stroke-width="1" />
    <g transform="translate(0, 8)">
        <path fill="#3c3cb4" d="M23.97 10.21L23.97 10.21Q23.01 10.21 22.36 9.94Q21.71 9.68 21.33 9.18Q20.94 8.69 20.78 7.98Q20.62 7.28 20.62 6.42L20.62 6.42L20.62 0.10L22.61 0.10L22.61 6.29Q22.61 6.91 22.67 7.34Q22.74 7.76 22.89 8.02Q23.04 8.27 23.31 8.38Q23.58 8.50 24 8.50L24 8.50Q24.42 8.50 24.69 8.38Q24.96 8.27 25.12 8.01Q25.28 7.74 25.34 7.32Q25.41 6.90 25.41 6.27L25.41 6.27L25.41 0.10L27.38 0.10L27.38 6.42Q27.38 7.28 27.22 7.98Q27.06 8.69 26.66 9.18Q26.26 9.68 25.60 9.94Q24.94 10.21 23.97 10.21ZM35.34 2.66L34.99 4.48Q34.80 4.43 34.54 4.38Q34.27 4.34 34 4.30Q33.73 4.26 33.47 4.24Q33.22 4.22 33.04 4.22L33.04 4.22Q32.62 4.22 32.22 4.26Q31.82 4.30 31.41 4.42L31.41 4.42L31.41 10L29.42 10L29.42 2.98Q30.21 2.69 31.03 2.51Q31.86 2.34 32.96 2.34L32.96 2.34Q33.12 2.34 33.42 2.35Q33.71 2.37 34.05 2.41Q34.38 2.45 34.73 2.50Q35.07 2.56 35.34 2.66L35.34 2.66ZM39.30 3.60L40.74 3.60Q40.80 3.90 40.93 4.35Q41.06 4.80 41.21 5.34Q41.36 5.89 41.54 6.51Q41.73 7.14 41.90 7.79L41.90 7.79Q41.90 6.96 41.89 6.01Q41.87 5.06 41.86 4.06Q41.84 3.07 41.82 2.06Q41.81 1.04 41.81 0.10L41.81 0.10L43.63 0.10Q43.58 1.31 43.54 2.60Q43.49 3.89 43.42 5.16Q43.36 6.43 43.27 7.66Q43.18 8.90 43.07 10L43.07 10L41.44 10Q41.09 8.99 40.74 7.83Q40.38 6.67 40.03 5.62L40.03 5.62Q39.68 6.62 39.30 7.81Q38.91 8.99 38.59 10L38.59 10L36.96 10Q36.83 8.90 36.74 7.66Q36.64 6.42 36.57 5.14Q36.50 3.87 36.45 2.58Q36.40 1.30 36.37 0.10L36.37 0.10L38.19 0.10Q38.18 1.04 38.16 2.05Q38.14 3.06 38.13 4.06Q38.11 5.06 38.10 6.01Q38.08 6.96 38.08 7.79L38.08 7.79Q38.22 7.28 38.41 6.67Q38.59 6.06 38.76 5.47Q38.93 4.88 39.07 4.38Q39.22 3.89 39.30 3.60L39.30 3.60ZM44.50 6.30L44.50 6.30Q44.50 5.31 44.80 4.56Q45.10 3.81 45.60 3.30Q46.10 2.80 46.74 2.54Q47.38 2.29 48.05 2.29L48.05 2.29Q49.71 2.29 50.58 3.27Q51.44 4.26 51.44 6.14L51.44 6.14Q51.44 6.34 51.43 6.54Q51.42 6.75 51.41 6.88L51.41 6.88L46.53 6.88Q46.53 7.62 47.14 8.04Q47.74 8.46 48.70 8.46L48.70 8.46Q49.30 8.46 49.83 8.34Q50.37 8.21 50.74 8.08L50.74 8.08L51.01 9.76Q50.50 9.94 49.92 10.06Q49.34 10.18 48.62 10.18L48.62 10.18Q47.66 10.18 46.90 9.93Q46.14 9.68 45.61 9.19Q45.07 8.70 44.78 7.98Q44.50 7.26 44.50 6.30ZM46.53 5.52L49.54 5.52Q49.54 5.22 49.46 4.94Q49.38 4.66 49.20 4.43Q49.02 4.21 48.75 4.07Q48.48 3.94 48.08 3.94L48.08 3.94Q47.70 3.94 47.42 4.06Q47.14 4.19 46.95 4.42Q46.77 4.64 46.66 4.93Q46.56 5.22 46.53 5.52L46.53 5.52ZM57.52 6.19L57.52 6.19Q57.52 5.14 57.18 4.58Q56.83 4.02 56.13 4.02L56.13 4.02Q55.81 4.02 55.50 4.10Q55.18 4.19 54.96 4.32L54.96 4.32L54.96 8.40Q55.18 8.45 55.43 8.46Q55.68 8.48 55.86 8.48L55.86 8.48Q56.62 8.48 57.07 7.96Q57.52 7.44 57.52 6.19ZM59.52 6.24L59.52 6.24Q59.52 7.14 59.28 7.86Q59.04 8.59 58.58 9.10Q58.11 9.62 57.44 9.90Q56.77 10.18 55.90 10.18L55.90 10.18Q55.14 10.18 54.34 10.06Q53.54 9.95 52.99 9.78L52.99 9.78L52.99-0.77L54.96-1.10L54.96 2.66Q55.38 2.46 55.76 2.39Q56.14 2.32 56.53 2.32L56.53 2.32Q57.26 2.32 57.82 2.60Q58.38 2.88 58.76 3.40Q59.14 3.92 59.33 4.64Q59.52 5.36 59.52 6.24Z"/>
    </g>
</svg>