<?xml version="1.0" encoding="UTF-8"?>
<svg height="26" width="90.6" version="1.1" xmlns="http://www.w3.org/2000/svg"><!--Created by Josélio de S. C. Júnior - 2021 - https://github.com/joseliojunior -->
    <rect
        height="24"
        width="88.6"
        rx="12"
        ry="12"
        x="1" y="1"
        fill="#a23738"
        stroke="#311111"
        stroke-width="1" />
    <g transform="translate(0, 8)">
        <path fill="#311111" stroke="none" d="M23.30 3.60L24.74 3.60Q24.80 3.90 24.93 4.35Q25.06 4.80 25.21 5.34Q25.36 5.89 25.54 6.51Q25.73 7.14 25.90 7.79L25.90 7.79Q25.90 6.96 25.89 6.01Q25.87 5.06 25.86 4.06Q25.84 3.07 25.82 2.06Q25.81 1.04 25.81 0.10L25.81 0.10L27.63 0.10Q27.58 1.31 27.54 2.60Q27.49 3.89 27.42 5.16Q27.36 6.43 27.27 7.66Q27.18 8.90 27.07 10L27.07 10L25.44 10Q25.09 8.99 24.74 7.83Q24.38 6.67 24.03 5.62L24.03 5.62Q23.68 6.62 23.30 7.81Q22.91 8.99 22.59 10L22.59 10L20.96 10Q20.83 8.90 20.74 7.66Q20.64 6.42 20.57 5.14Q20.50 3.87 20.45 2.58Q20.40 1.30 20.37 0.10L20.37 0.10L22.19 0.10Q22.18 1.04 22.16 2.05Q22.14 3.06 22.13 4.06Q22.11 5.06 22.10 6.01Q22.08 6.96 22.08 7.79L22.08 7.79Q22.22 7.28 22.41 6.67Q22.59 6.06 22.76 5.47Q22.93 4.88 23.07 4.38Q23.22 3.89 23.30 3.60L23.30 3.60ZM35.55 6.22L35.55 6.22Q35.55 7.12 35.30 7.85Q35.04 8.58 34.58 9.10Q34.11 9.63 33.46 9.92Q32.82 10.21 32.02 10.21L32.02 10.21Q31.22 10.21 30.57 9.92Q29.92 9.63 29.45 9.10Q28.98 8.58 28.72 7.85Q28.46 7.12 28.46 6.22L28.46 6.22Q28.46 5.34 28.73 4.62Q28.99 3.89 29.46 3.37Q29.94 2.85 30.59 2.57Q31.25 2.29 32.02 2.29L32.02 2.29Q32.80 2.29 33.45 2.57Q34.10 2.85 34.57 3.37Q35.04 3.89 35.30 4.62Q35.55 5.34 35.55 6.22ZM30.46 6.24L30.46 6.24Q30.46 7.25 30.82 7.87Q31.18 8.50 31.98 8.50L31.98 8.50Q32.75 8.50 33.14 7.87Q33.54 7.25 33.54 6.24L33.54 6.24Q33.54 5.23 33.18 4.62Q32.82 4 32.02 4L32.02 4Q31.25 4 30.86 4.62Q30.46 5.23 30.46 6.24ZM43.22 8.10L43.47 9.68Q43.42 9.71 43.26 9.79Q43.09 9.87 42.82 9.96Q42.54 10.05 42.15 10.11Q41.76 10.18 41.26 10.18L41.26 10.18Q39.90 10.18 39.28 9.37Q38.66 8.56 38.66 7.01L38.66 7.01L38.66 0.62L36.58 0.62L36.58-1.01L40.62-1.01L40.62 7.15Q40.62 7.92 40.93 8.19Q41.23 8.46 41.70 8.46L41.70 8.46Q42.29 8.46 42.69 8.30Q43.09 8.14 43.22 8.10L43.22 8.10ZM51.22 8.10L51.47 9.68Q51.42 9.71 51.26 9.79Q51.09 9.87 50.82 9.96Q50.54 10.05 50.15 10.11Q49.76 10.18 49.26 10.18L49.26 10.18Q47.90 10.18 47.28 9.37Q46.66 8.56 46.66 7.01L46.66 7.01L46.66 0.62L44.58 0.62L44.58-1.01L48.62-1.01L48.62 7.15Q48.62 7.92 48.93 8.19Q49.23 8.46 49.70 8.46L49.70 8.46Q50.29 8.46 50.69 8.30Q51.09 8.14 51.22 8.10L51.22 8.10ZM59.55 6.22L59.55 6.22Q59.55 7.12 59.30 7.85Q59.04 8.58 58.58 9.10Q58.11 9.63 57.46 9.92Q56.82 10.21 56.02 10.21L56.02 10.21Q55.22 10.21 54.57 9.92Q53.92 9.63 53.45 9.10Q52.98 8.58 52.72 7.85Q52.46 7.12 52.46 6.22L52.46 6.22Q52.46 5.34 52.73 4.62Q52.99 3.89 53.46 3.37Q53.94 2.85 54.59 2.57Q55.25 2.29 56.02 2.29L56.02 2.29Q56.80 2.29 57.45 2.57Q58.10 2.85 58.57 3.37Q59.04 3.89 59.30 4.62Q59.55 5.34 59.55 6.22ZM54.46 6.24L54.46 6.24Q54.46 7.25 54.82 7.87Q55.18 8.50 55.98 8.50L55.98 8.50Q56.75 8.50 57.14 7.87Q57.54 7.25 57.54 6.24L57.54 6.24Q57.54 5.23 57.18 4.62Q56.82 4 56.02 4L56.02 4Q55.25 4 54.86 4.62Q54.46 5.23 54.46 6.24ZM62.99-1.10L62.99 5.46Q63.28 5.12 63.58 4.74Q63.87 4.37 64.15 3.97Q64.43 3.57 64.69 3.19Q64.94 2.82 65.14 2.48L65.14 2.48L67.50 2.48Q67.22 2.85 66.85 3.28Q66.48 3.71 66.09 4.16Q65.70 4.61 65.30 5.02Q64.91 5.44 64.59 5.79L64.59 5.79Q64.99 6.18 65.46 6.71Q65.92 7.25 66.37 7.82Q66.82 8.40 67.19 8.98Q67.57 9.55 67.79 10L67.79 10L65.54 10Q65.34 9.60 65.03 9.10Q64.72 8.59 64.37 8.10Q64.02 7.62 63.66 7.18Q63.30 6.74 62.99 6.45L62.99 6.45L62.99 10L61.01 10L61.01-0.77L62.99-1.10Z"/>
    </g>
</svg>