<?xml version="1.0" encoding="UTF-8"?><svg height="34" width="114.6" version="1.1" xmlns="http://www.w3.org/2000/svg"><!--Created by Josélio de S. C. Júnior - 2021 - https://github.com/joseliojunior --><rect height="32" width="112.6" rx="16" ry="16" x="1" y="1" fill="#a23738" stroke="#311111" stroke-width="1" /><g transform="translate(0, 12)"><path fill="#311111" d="M24.94 2.40L27.10 2.40Q27.20 2.86 27.39 3.53Q27.58 4.20 27.81 5.02Q28.04 5.83 28.32 6.77Q28.59 7.70 28.86 8.69L28.86 8.69Q28.86 7.44 28.83 6.01Q28.81 4.58 28.78 3.10Q28.76 1.61 28.74 0.08Q28.71-1.44 28.71-2.86L28.71-2.86L31.45-2.86Q31.38-1.03 31.30 0.90Q31.23 2.83 31.14 4.74Q31.04 6.65 30.91 8.50Q30.78 10.34 30.61 12L30.61 12L28.16 12Q27.63 10.49 27.10 8.75Q26.58 7.01 26.05 5.42L26.05 5.42Q25.52 6.94 24.94 8.71Q24.37 10.49 23.89 12L23.89 12L21.44 12Q21.25 10.34 21.10 8.48Q20.96 6.62 20.85 4.72Q20.74 2.81 20.67 0.88Q20.60-1.06 20.55-2.86L20.55-2.86L23.29-2.86Q23.26-1.44 23.24 0.07Q23.22 1.58 23.19 3.08Q23.17 4.58 23.14 6.01Q23.12 7.44 23.12 8.69L23.12 8.69Q23.34 7.92 23.61 7.01Q23.89 6.10 24.14 5.21Q24.39 4.32 24.61 3.58Q24.82 2.83 24.94 2.40L24.94 2.40ZM43.33 6.34L43.33 6.34Q43.33 7.68 42.94 8.77Q42.56 9.86 41.86 10.66Q41.17 11.45 40.20 11.88Q39.22 12.31 38.02 12.31L38.02 12.31Q36.82 12.31 35.85 11.88Q34.88 11.45 34.17 10.66Q33.46 9.86 33.08 8.77Q32.70 7.68 32.70 6.34L32.70 6.34Q32.70 5.02 33.09 3.92Q33.49 2.83 34.20 2.05Q34.90 1.27 35.89 0.85Q36.87 0.43 38.02 0.43L38.02 0.43Q39.20 0.43 40.17 0.85Q41.14 1.27 41.85 2.05Q42.56 2.83 42.94 3.92Q43.33 5.02 43.33 6.34ZM35.70 6.36L35.70 6.36Q35.70 7.87 36.24 8.81Q36.78 9.74 37.98 9.74L37.98 9.74Q39.13 9.74 39.72 8.81Q40.30 7.87 40.30 6.36L40.30 6.36Q40.30 4.85 39.76 3.92Q39.22 3 38.02 3L38.02 3Q36.87 3 36.28 3.92Q35.70 4.85 35.70 6.36ZM54.82 9.14L55.21 11.52Q55.14 11.57 54.88 11.69Q54.63 11.81 54.22 11.94Q53.82 12.07 53.23 12.17Q52.64 12.26 51.90 12.26L51.90 12.26Q49.86 12.26 48.92 11.05Q47.98 9.84 47.98 7.51L47.98 7.51L47.98-2.06L44.86-2.06L44.86-4.51L50.94-4.51L50.94 7.73Q50.94 8.88 51.39 9.29Q51.85 9.70 52.54 9.70L52.54 9.70Q53.43 9.70 54.03 9.46Q54.63 9.22 54.82 9.14L54.82 9.14ZM66.82 9.14L67.21 11.52Q67.14 11.57 66.88 11.69Q66.63 11.81 66.22 11.94Q65.82 12.07 65.23 12.17Q64.64 12.26 63.90 12.26L63.90 12.26Q61.86 12.26 60.92 11.05Q59.98 9.84 59.98 7.51L59.98 7.51L59.98-2.06L56.86-2.06L56.86-4.51L62.94-4.51L62.94 7.73Q62.94 8.88 63.39 9.29Q63.85 9.70 64.54 9.70L64.54 9.70Q65.43 9.70 66.03 9.46Q66.63 9.22 66.82 9.14L66.82 9.14ZM79.33 6.34L79.33 6.34Q79.33 7.68 78.94 8.77Q78.56 9.86 77.86 10.66Q77.17 11.45 76.20 11.88Q75.22 12.31 74.02 12.31L74.02 12.31Q72.82 12.31 71.85 11.88Q70.88 11.45 70.17 10.66Q69.46 9.86 69.08 8.77Q68.70 7.68 68.70 6.34L68.70 6.34Q68.70 5.02 69.09 3.92Q69.49 2.83 70.20 2.05Q70.90 1.27 71.89 0.85Q72.87 0.43 74.02 0.43L74.02 0.43Q75.20 0.43 76.17 0.85Q77.14 1.27 77.85 2.05Q78.56 2.83 78.94 3.92Q79.33 5.02 79.33 6.34ZM71.70 6.36L71.70 6.36Q71.70 7.87 72.24 8.81Q72.78 9.74 73.98 9.74L73.98 9.74Q75.13 9.74 75.72 8.81Q76.30 7.87 76.30 6.36L76.30 6.36Q76.30 4.85 75.76 3.92Q75.22 3 74.02 3L74.02 3Q72.87 3 72.28 3.92Q71.70 4.85 71.70 6.36ZM84.49-4.66L84.49 5.18Q84.92 4.68 85.36 4.12Q85.81 3.55 86.23 2.95Q86.65 2.35 87.03 1.79Q87.42 1.22 87.70 0.72L87.70 0.72L91.26 0.72Q90.82 1.27 90.27 1.92Q89.72 2.57 89.13 3.24Q88.54 3.91 87.96 4.54Q87.37 5.16 86.89 5.69L86.89 5.69Q87.49 6.26 88.18 7.07Q88.88 7.87 89.55 8.74Q90.22 9.60 90.79 10.46Q91.35 11.33 91.69 12L91.69 12L88.30 12Q88.02 11.40 87.55 10.64Q87.08 9.89 86.55 9.16Q86.02 8.42 85.48 7.76Q84.94 7.10 84.49 6.67L84.49 6.67L84.49 12L81.51 12L81.51-4.15L84.49-4.66Z"/></g></svg>