<?xml version="1.0" encoding="UTF-8"?>
<svg height="34" width="289.9" version="1.1" xmlns="http://www.w3.org/2000/svg">
    <rect
        height="32"
        width="287.9"
        rx="1"
        ry="1"
        x="1"
        y="1"
        fill="#2f4aab"
        stroke="#0e1634"
        stroke-width="1"
         />
    <g transform="translate(0, 14)">
        <path fill="#0e1634" d="M23.69 11L19.80 11Q19.49 10.02 18.92 8.89Q18.34 7.75 17.64 6.67Q16.94 5.60 16.17 4.66Q15.40 3.72 14.70 3.08L14.70 3.08L14.70 11L11.26 11L11.26-6.33L14.70-6.33L14.70 0.86Q15.32 0.08 15.99-0.87Q16.66-1.82 17.27-2.78Q17.87-3.73 18.37-4.65Q18.88-5.58 19.21-6.33L19.21-6.33L23.10-6.33Q22.71-5.58 22.17-4.61Q21.62-3.64 20.92-2.59Q20.22-1.54 19.42-0.45Q18.62 0.64 17.76 1.65L17.76 1.65Q18.62 2.49 19.52 3.58Q20.42 4.67 21.21 5.92Q22.01 7.16 22.66 8.47Q23.30 9.77 23.69 11L23.69 11ZM31.95-5.94L31.95-5.94Q31.95-4.93 31.31-4.34Q30.66-3.76 29.77-3.76L29.77-3.76Q28.87-3.76 28.24-4.34Q27.61-4.93 27.61-5.94L27.61-5.94Q27.61-6.98 28.24-7.56Q28.87-8.15 29.77-8.15L29.77-8.15Q30.66-8.15 31.31-7.56Q31.95-6.98 31.95-5.94ZM36.63 7.67L37.08 10.44Q36.01 10.94 35.07 11.13Q34.14 11.31 33.35 11.31L33.35 11.31Q32.01 11.31 31.10 10.92Q30.19 10.52 29.64 9.78Q29.10 9.04 28.87 7.98Q28.65 6.91 28.65 5.54L28.65 5.54L28.65 0.70L25.01 0.70L25.01-2.16L32.09-2.16L32.09 5.99Q32.09 7.16 32.53 7.74Q32.96 8.31 33.97 8.31L33.97 8.31Q34.44 8.31 35.12 8.19Q35.79 8.06 36.63 7.67L36.63 7.67ZM46.29 11.36L46.29 11.36Q42.62 11.36 40.69 9.01Q38.76 6.66 38.76 2.32L38.76 2.32Q38.76 0.16 39.34-1.52Q39.93-3.20 40.98-4.36Q42.03-5.52 43.47-6.12Q44.92-6.72 46.62-6.72L46.62-6.72Q47.55-6.72 48.29-6.57Q49.03-6.42 49.59-6.22Q50.15-6.02 50.53-5.80Q50.91-5.58 51.10-5.46L51.10-5.46L50.21-2.72Q49.56-3.14 48.65-3.43Q47.74-3.73 46.57-3.73L46.57-3.73Q45.76-3.73 44.99-3.43Q44.22-3.14 43.61-2.45Q43.01-1.77 42.63-0.62Q42.26 0.53 42.26 2.24L42.26 2.24Q42.26 5.20 43.28 6.79Q44.30 8.37 46.62 8.37L46.62 8.37Q47.97 8.37 48.85 8.06Q49.73 7.75 50.26 7.44L50.26 7.44L51.13 10.16Q50.40 10.61 49.16 10.99Q47.91 11.36 46.29 11.36ZM59.03 8.54L59.03 8.54Q59.59 8.54 60.12 8.52Q60.65 8.51 61.04 8.45L61.04 8.45L61.04 5.43Q60.71 5.37 60.23 5.33Q59.76 5.29 59.36 5.29L59.36 5.29Q58.83 5.29 58.33 5.36Q57.82 5.43 57.45 5.60Q57.07 5.76 56.84 6.07Q56.62 6.38 56.62 6.88L56.62 6.88Q56.62 7.78 57.29 8.16Q57.96 8.54 59.03 8.54ZM58.72-2.50L58.72-2.50Q60.34-2.50 61.42-2.12Q62.50-1.74 63.14-1.05Q63.79-0.37 64.07 0.63Q64.35 1.62 64.35 2.85L64.35 2.85L64.35 10.69Q63.59 10.86 62.11 11.08Q60.62 11.31 58.78 11.31L58.78 11.31Q57.52 11.31 56.49 11.08Q55.47 10.86 54.74 10.34Q54.02 9.82 53.62 9.00Q53.23 8.17 53.23 6.97L53.23 6.97Q53.23 5.82 53.68 5.04Q54.13 4.25 54.88 3.78Q55.64 3.30 56.62 3.09Q57.60 2.88 58.66 2.88L58.66 2.88Q60.01 2.88 61.04 3.10L61.04 3.10L61.04 2.68Q61.04 1.70 60.43 1.05Q59.81 0.39 58.30 0.39L58.30 0.39Q57.32 0.39 56.41 0.53Q55.50 0.67 54.94 0.86L54.94 0.86L54.46-1.91Q55.11-2.13 56.28-2.31Q57.46-2.50 58.72-2.50ZM70.28 4.34L70.28 4.34Q70.28 6.10 70.94 7.22Q71.60 8.34 73.06 8.34L73.06 8.34Q73.48 8.34 73.84 8.31Q74.20 8.28 74.60 8.23L74.60 8.23L74.60 1.06Q74.20 0.84 73.70 0.68Q73.20 0.53 72.64 0.53L72.64 0.53Q71.40 0.53 70.84 1.51Q70.28 2.49 70.28 4.34ZM78.04-8.43L78.04 10.61Q77.09 10.92 75.72 11.11Q74.34 11.31 73.03 11.31L73.03 11.31Q69.95 11.31 68.37 9.49Q66.78 7.67 66.78 4.50L66.78 4.50Q66.78 1.28 68.11-0.58Q69.44-2.44 72.05-2.44L72.05-2.44Q72.75-2.44 73.42-2.29Q74.09-2.13 74.60-1.85L74.60-1.85L74.60-7.84L78.04-8.43ZM106.88 8.14L106.88 11L95.99 11L95.99-6.33L99.46-6.33L99.46 8.14L106.88 8.14ZM108.87 4.53L108.87 4.53Q108.87 2.80 109.40 1.48Q109.93 0.16 110.80-0.72Q111.67-1.60 112.79-2.05Q113.91-2.50 115.08-2.50L115.08-2.50Q118.00-2.50 119.51-0.77Q121.02 0.95 121.02 4.25L121.02 4.25Q121.02 4.59 121.01 4.95Q120.99 5.32 120.96 5.54L120.96 5.54L112.42 5.54Q112.42 6.83 113.49 7.57Q114.55 8.31 116.23 8.31L116.23 8.31Q117.27 8.31 118.21 8.09Q119.14 7.86 119.79 7.64L119.79 7.64L120.26 10.58Q119.37 10.89 118.36 11.10Q117.35 11.31 116.09 11.31L116.09 11.31Q114.41 11.31 113.08 10.87Q111.75 10.44 110.81 9.59Q109.88 8.73 109.37 7.47Q108.87 6.21 108.87 4.53ZM112.42 3.16L117.69 3.16Q117.69 2.63 117.55 2.14Q117.41 1.65 117.10 1.26Q116.79 0.86 116.32 0.63Q115.84 0.39 115.14 0.39L115.14 0.39Q114.47 0.39 113.98 0.61Q113.49 0.84 113.17 1.23Q112.84 1.62 112.66 2.12Q112.48 2.63 112.42 3.16L112.42 3.16ZM126.42 4L126.42 4Q126.42 5.62 127.01 6.48Q127.60 7.33 128.86 7.33L128.86 7.33Q129.42 7.33 129.91 7.19Q130.40 7.05 130.79 6.83L130.79 6.83L130.79 0.50Q130.40 0.42 130.09 0.39Q129.78 0.36 129.45 0.36L129.45 0.36Q126.42 0.36 126.42 4ZM134.26-1.74L134.26 9.40Q134.26 12.62 132.71 14.16Q131.16 15.70 127.71 15.70L127.71 15.70Q126.48 15.70 125.35 15.45Q124.21 15.20 123.18 14.86L123.18 14.86L123.82 11.95Q124.63 12.26 125.53 12.53Q126.42 12.79 127.77 12.79L127.77 12.79Q128.66 12.79 129.25 12.58Q129.84 12.37 130.18 12.01Q130.51 11.64 130.65 11.15Q130.79 10.66 130.79 10.10L130.79 10.10L130.79 9.57Q130.06 9.85 129.46 9.99Q128.86 10.13 128.16 10.13L128.16 10.13Q125.58 10.13 124.25 8.51Q122.92 6.88 122.92 4L122.92 4Q122.92 0.75 124.72-0.84Q126.51-2.44 129.59-2.44L129.59-2.44Q131.74-2.44 134.26-1.74L134.26-1.74ZM143.03 8.54L143.03 8.54Q143.59 8.54 144.12 8.52Q144.65 8.51 145.04 8.45L145.04 8.45L145.04 5.43Q144.71 5.37 144.23 5.33Q143.76 5.29 143.36 5.29L143.36 5.29Q142.83 5.29 142.33 5.36Q141.82 5.43 141.45 5.60Q141.07 5.76 140.84 6.07Q140.62 6.38 140.62 6.88L140.62 6.88Q140.62 7.78 141.29 8.16Q141.96 8.54 143.03 8.54ZM142.72-2.50L142.72-2.50Q144.34-2.50 145.42-2.12Q146.50-1.74 147.14-1.05Q147.79-0.37 148.07 0.63Q148.35 1.62 148.35 2.85L148.35 2.85L148.35 10.69Q147.59 10.86 146.11 11.08Q144.62 11.31 142.78 11.31L142.78 11.31Q141.52 11.31 140.49 11.08Q139.47 10.86 138.74 10.34Q138.02 9.82 137.62 9.00Q137.23 8.17 137.23 6.97L137.23 6.97Q137.23 5.82 137.68 5.04Q138.13 4.25 138.88 3.78Q139.64 3.30 140.62 3.09Q141.60 2.88 142.66 2.88L142.66 2.88Q144.01 2.88 145.04 3.10L145.04 3.10L145.04 2.68Q145.04 1.70 144.43 1.05Q143.81 0.39 142.30 0.39L142.30 0.39Q141.32 0.39 140.41 0.53Q139.50 0.67 138.94 0.86L138.94 0.86L138.46-1.91Q139.11-2.13 140.28-2.31Q141.46-2.50 142.72-2.50ZM151.23 4.42L151.23 4.42Q151.23 2.99 151.68 1.73Q152.13 0.47 153.05-0.47Q153.98-1.40 155.39-1.95Q156.80-2.50 158.76-2.50L158.76-2.50Q159.94-2.50 160.89-2.33Q161.84-2.16 162.82-1.77L162.82-1.77L162.07 1.00Q161.51 0.81 160.82 0.65Q160.14 0.50 159.07 0.50L159.07 0.50Q157.84 0.50 157.01 0.79Q156.19 1.09 155.68 1.61Q155.18 2.12 154.96 2.85Q154.73 3.58 154.73 4.42L154.73 4.42Q154.73 6.24 155.75 7.28Q156.78 8.31 159.24 8.31L159.24 8.31Q160.05 8.31 160.93 8.20Q161.82 8.09 162.54 7.84L162.54 7.84L163.05 10.66Q162.32 10.94 161.28 11.13Q160.25 11.31 158.85 11.31L158.85 11.31Q156.83 11.31 155.39 10.78Q153.95 10.24 153.02 9.32Q152.10 8.40 151.67 7.14Q151.23 5.88 151.23 4.42ZM173.69-2.16L177.22-2.16Q176.68-0.31 176.19 1.47Q175.70 3.24 175.17 4.94Q174.64 6.63 174.04 8.26Q173.44 9.88 172.74 11.42L172.74 11.42Q172.20 12.54 171.69 13.35Q171.17 14.16 170.54 14.68Q169.91 15.20 169.14 15.45Q168.37 15.70 167.33 15.70L167.33 15.70Q166.46 15.70 165.75 15.56Q165.04 15.42 164.56 15.20L164.56 15.20L165.20 12.32Q165.76 12.57 166.20 12.67Q166.63 12.76 167.14 12.76L167.14 12.76Q168.14 12.76 168.76 12.09Q169.38 11.42 169.74 10.50L169.74 10.50Q168.51 8.03 167.28 4.85Q166.04 1.68 165.04-2.16L165.04-2.16L168.62-2.16Q168.87-1.12 169.19 0.05Q169.52 1.23 169.88 2.40Q170.24 3.58 170.65 4.71Q171.06 5.85 171.48 6.83L171.48 6.83Q171.76 5.85 172.06 4.71Q172.37 3.58 172.65 2.42Q172.93 1.26 173.20 0.08Q173.46-1.10 173.69-2.16L173.69-2.16ZM204.88 8.14L204.88 11L193.99 11L193.99-6.33L197.46-6.33L197.46 8.14L204.88 8.14ZM213.03 8.54L213.03 8.54Q213.59 8.54 214.12 8.52Q214.65 8.51 215.04 8.45L215.04 8.45L215.04 5.43Q214.71 5.37 214.23 5.33Q213.76 5.29 213.36 5.29L213.36 5.29Q212.83 5.29 212.33 5.36Q211.82 5.43 211.45 5.60Q211.07 5.76 210.84 6.07Q210.62 6.38 210.62 6.88L210.62 6.88Q210.62 7.78 211.29 8.16Q211.96 8.54 213.03 8.54ZM212.72-2.50L212.72-2.50Q214.34-2.50 215.42-2.12Q216.50-1.74 217.14-1.05Q217.79-0.37 218.07 0.63Q218.35 1.62 218.35 2.85L218.35 2.85L218.35 10.69Q217.59 10.86 216.11 11.08Q214.62 11.31 212.78 11.31L212.78 11.31Q211.52 11.31 210.49 11.08Q209.47 10.86 208.74 10.34Q208.02 9.82 207.62 9.00Q207.23 8.17 207.23 6.97L207.23 6.97Q207.23 5.82 207.68 5.04Q208.13 4.25 208.88 3.78Q209.64 3.30 210.62 3.09Q211.60 2.88 212.66 2.88L212.66 2.88Q214.01 2.88 215.04 3.10L215.04 3.10L215.04 2.68Q215.04 1.70 214.43 1.05Q213.81 0.39 212.30 0.39L212.30 0.39Q211.32 0.39 210.41 0.53Q209.50 0.67 208.94 0.86L208.94 0.86L208.46-1.91Q209.11-2.13 210.28-2.31Q211.46-2.50 212.72-2.50ZM229.69-2.16L233.22-2.16Q232.68-0.31 232.19 1.47Q231.70 3.24 231.17 4.94Q230.64 6.63 230.04 8.26Q229.44 9.88 228.74 11.42L228.74 11.42Q228.20 12.54 227.69 13.35Q227.17 14.16 226.54 14.68Q225.91 15.20 225.14 15.45Q224.37 15.70 223.33 15.70L223.33 15.70Q222.46 15.70 221.75 15.56Q221.04 15.42 220.56 15.20L220.56 15.20L221.20 12.32Q221.76 12.57 222.20 12.67Q222.63 12.76 223.14 12.76L223.14 12.76Q224.14 12.76 224.76 12.09Q225.38 11.42 225.74 10.50L225.74 10.50Q224.51 8.03 223.28 4.85Q222.04 1.68 221.04-2.16L221.04-2.16L224.62-2.16Q224.87-1.12 225.19 0.05Q225.52 1.23 225.88 2.40Q226.24 3.58 226.65 4.71Q227.06 5.85 227.48 6.83L227.48 6.83Q227.76 5.85 228.06 4.71Q228.37 3.58 228.65 2.42Q228.93 1.26 229.20 0.08Q229.46-1.10 229.69-2.16L229.69-2.16ZM247.22 4.39L247.22 4.39Q247.22 5.96 246.77 7.23Q246.32 8.51 245.51 9.43Q244.70 10.36 243.56 10.86Q242.43 11.36 241.03 11.36L241.03 11.36Q239.63 11.36 238.49 10.86Q237.36 10.36 236.53 9.43Q235.71 8.51 235.26 7.23Q234.81 5.96 234.81 4.39L234.81 4.39Q234.81 2.85 235.27 1.58Q235.74 0.30 236.56-0.61Q237.39-1.52 238.54-2.01Q239.68-2.50 241.03-2.50L241.03-2.50Q242.40-2.50 243.53-2.01Q244.67-1.52 245.49-0.61Q246.32 0.30 246.77 1.58Q247.22 2.85 247.22 4.39ZM238.31 4.42L238.31 4.42Q238.31 6.18 238.94 7.28Q239.57 8.37 240.97 8.37L240.97 8.37Q242.32 8.37 243.00 7.28Q243.69 6.18 243.69 4.42L243.69 4.42Q243.69 2.66 243.06 1.58Q242.43 0.50 241.03 0.50L241.03 0.50Q239.68 0.50 239.00 1.58Q238.31 2.66 238.31 4.42ZM260.26-2.16L260.26 10.55Q259.31 10.80 257.95 11.06Q256.60 11.31 255 11.31L255 11.31Q253.38 11.31 252.34 10.86Q251.30 10.41 250.70 9.59Q250.10 8.76 249.88 7.64Q249.65 6.52 249.65 5.18L249.65 5.18L249.65-2.16L253.10-2.16L253.10 4.73Q253.10 6.55 253.53 7.43Q253.96 8.31 255.22 8.31L255.22 8.31Q256.01 8.31 256.79 8.17L256.79 8.17L256.79-2.16L260.26-2.16ZM266.00 6.10L266.00 0.70L263.01 0.70L263.01-2.16L266.00-2.16L266.00-5.46L269.45-6.02L269.45-2.16L274.96-2.16L274.96 0.70L269.45 0.70L269.45 6.02Q269.45 6.74 269.59 7.19Q269.73 7.64 269.98 7.89Q270.23 8.14 270.60 8.23Q270.96 8.31 271.41 8.31L271.41 8.31Q271.88 8.31 272.29 8.28Q272.70 8.26 273.07 8.19Q273.45 8.12 273.86 7.98Q274.26 7.84 274.74 7.61L274.74 7.61L275.22 10.58Q274.26 10.97 273.16 11.14Q272.05 11.31 271.02 11.31L271.02 11.31Q269.81 11.31 268.89 11.11Q267.96 10.92 267.32 10.36Q266.68 9.80 266.34 8.77Q266.00 7.75 266.00 6.10L266.00 6.10Z"/>
    </g>
</svg>