<?xml version="1.0" encoding="UTF-8"?><svg height="26" width="74.4" version="1.1" xmlns="http://www.w3.org/2000/svg"><!--Created by Josélio de S. C. Júnior - 2021 - https://github.com/joseliojunior --><rect height="24" width="72.4" rx="1" ry="1" x="1" y="1" fill="#9c4221" stroke="#1d0c06" stroke-width="1" /><g transform="translate(0, 8)"><path fill="#1d0c06" d="M20.40 0.10L27.60 0.10L27.60 1.73L24.99 1.73L24.99 10L23.01 10L23.01 1.73L20.40 1.73L20.40 0.10ZM30.43 5.04L30.43 5.04Q30.43 5.76 30.49 6.39Q30.54 7.02 30.71 7.49Q30.88 7.95 31.18 8.22Q31.49 8.50 32 8.50L32 8.50Q32.50 8.50 32.81 8.22Q33.12 7.95 33.29 7.48Q33.46 7.01 33.51 6.38Q33.57 5.76 33.57 5.04L33.57 5.04Q33.57 4.32 33.51 3.69Q33.46 3.06 33.29 2.59Q33.12 2.13 32.82 1.86Q32.51 1.58 32 1.58L32 1.58Q31.49 1.58 31.18 1.86Q30.88 2.13 30.71 2.60Q30.54 3.07 30.49 3.70Q30.43 4.32 30.43 5.04ZM28.43 5.04L28.43 5.04Q28.43 2.48 29.38 1.18Q30.32-0.13 32-0.13L32-0.13Q33.74-0.13 34.66 1.18Q35.57 2.48 35.57 5.04L35.57 5.04Q35.57 7.60 34.64 8.90Q33.71 10.21 32.02 10.21L32.02 10.21Q30.27 10.21 29.35 8.90Q28.43 7.60 28.43 5.04ZM36.94 0.10L38.58 0.10Q38.69 0.43 38.86 0.96Q39.02 1.49 39.22 2.10Q39.41 2.70 39.60 3.33Q39.79 3.95 39.97 4.48L39.97 4.48Q40.16 3.89 40.37 3.26Q40.58 2.62 40.77 2.04Q40.96 1.46 41.12 0.94Q41.28 0.43 41.41 0.10L41.41 0.10L43.04 0.10Q43.15 1.39 43.26 2.62Q43.36 3.86 43.43 5.06Q43.50 6.27 43.55 7.50Q43.60 8.72 43.63 10L43.63 10L41.82 10L41.92 2.30L40.70 6.50L39.26 6.50L38.10 2.30L38.18 10L36.37 10Q36.42 8.78 36.47 7.47Q36.53 6.16 36.59 4.86Q36.66 3.57 36.74 2.35Q36.83 1.14 36.94 0.10L36.94 0.10ZM51.36 8.37L51.36 10L45.14 10L45.14 0.10L47.12 0.10L47.12 8.37L51.36 8.37Z"/></g></svg>