<?xml version="1.0" encoding="UTF-8"?>
<svg height="34" width="134.8" version="1.1" xmlns="http://www.w3.org/2000/svg">
    <rect
        height="32"
        width="132.8"
        rx="14"
        ry="14"
        x="1"
        y="1"
        fill="#ed5051"
        stroke="#941010"
        stroke-width="1"
         />
    <g transform="translate(0, 14)">
        <path fill="#941010" d="M15.99-6.53L15.99-6.53Q17.48-6.53 18.68-6.19Q19.88-5.86 20.75-5.16Q21.62-4.46 22.08-3.38Q22.54-2.30 22.54-0.84L22.54-0.84Q22.54 0.67 21.93 1.90Q21.31 3.13 19.88 3.78L19.88 3.78Q20.36 4.50 20.89 5.39Q21.42 6.27 21.93 7.23Q22.43 8.20 22.89 9.17Q23.36 10.13 23.69 11L23.69 11L20.08 11Q19.44 9.32 18.58 7.77Q17.73 6.21 16.75 4.62L16.75 4.62L14.96 4.62L14.96 11L11.51 11L11.51-6.08Q12.02-6.19 12.62-6.29Q13.22-6.39 13.84-6.43Q14.45-6.47 15.01-6.50Q15.57-6.53 15.99-6.53ZM19.04-0.87L19.04-0.87Q19.04-2.24 18.20-2.89Q17.36-3.53 15.99-3.53L15.99-3.53Q15.80-3.53 15.52-3.52Q15.24-3.50 14.96-3.45L14.96-3.45L14.96 1.76L15.71 1.76Q17.48 1.76 18.26 1.07Q19.04 0.39 19.04-0.87ZM24.87 4.53L24.87 4.53Q24.87 2.80 25.40 1.48Q25.93 0.16 26.80-0.72Q27.67-1.60 28.79-2.05Q29.91-2.50 31.08-2.50L31.08-2.50Q34.00-2.50 35.51-0.77Q37.02 0.95 37.02 4.25L37.02 4.25Q37.02 4.59 37.01 4.95Q36.99 5.32 36.96 5.54L36.96 5.54L28.42 5.54Q28.42 6.83 29.49 7.57Q30.55 8.31 32.23 8.31L32.23 8.31Q33.27 8.31 34.21 8.09Q35.14 7.86 35.79 7.64L35.79 7.64L36.26 10.58Q35.37 10.89 34.36 11.10Q33.35 11.31 32.09 11.31L32.09 11.31Q30.41 11.31 29.08 10.87Q27.75 10.44 26.81 9.59Q25.88 8.73 25.37 7.47Q24.87 6.21 24.87 4.53ZM28.42 3.16L33.69 3.16Q33.69 2.63 33.55 2.14Q33.41 1.65 33.10 1.26Q32.79 0.86 32.32 0.63Q31.84 0.39 31.14 0.39L31.14 0.39Q30.47 0.39 29.98 0.61Q29.49 0.84 29.17 1.23Q28.84 1.62 28.66 2.12Q28.48 2.63 28.42 3.16L28.42 3.16ZM44.50 8.48L44.50 8.48Q45.36 8.48 45.94 8.30Q46.51 8.12 46.85 7.79Q47.18 7.47 47.31 7.07Q47.44 6.66 47.44 6.24L47.44 6.24Q47.44 5.71 47.13 5.29Q46.82 4.87 46.34 4.55Q45.87 4.22 45.28 3.96Q44.69 3.69 44.10 3.47L44.10 3.47Q43.32 3.19 42.48 2.82Q41.64 2.46 40.95 1.90Q40.27 1.34 39.82 0.51Q39.37-0.31 39.37-1.54L39.37-1.54Q39.37-3.98 40.95-5.35Q42.54-6.72 45.31-6.72L45.31-6.72Q46.90-6.72 48.09-6.36Q49.28-6.00 50.10-5.55L50.10-5.55L49.09-2.89Q48.39-3.28 47.53-3.56Q46.68-3.84 45.56-3.84L45.56-3.84Q42.82-3.84 42.82-1.85L42.82-1.85Q42.82-1.35 43.10-0.97Q43.38-0.59 43.81-0.30Q44.24-0.00 44.79 0.22Q45.34 0.44 45.87 0.64L45.87 0.64Q46.68 0.95 47.56 1.33Q48.44 1.70 49.19 2.33Q49.93 2.96 50.40 3.90Q50.88 4.84 50.88 6.27L50.88 6.27Q50.88 8.70 49.30 10.03Q47.72 11.36 44.50 11.36L44.50 11.36Q42.34 11.36 41.05 10.90Q39.76 10.44 39.12 10.05L39.12 10.05L40.13 7.25Q40.88 7.70 41.93 8.09Q42.98 8.48 44.50 8.48ZM53.23 4.42L53.23 4.42Q53.23 2.99 53.68 1.73Q54.13 0.47 55.05-0.47Q55.98-1.40 57.39-1.95Q58.80-2.50 60.76-2.50L60.76-2.50Q61.94-2.50 62.89-2.33Q63.84-2.16 64.82-1.77L64.82-1.77L64.07 1.00Q63.51 0.81 62.82 0.65Q62.14 0.50 61.07 0.50L61.07 0.50Q59.84 0.50 59.01 0.79Q58.19 1.09 57.68 1.61Q57.18 2.12 56.96 2.85Q56.73 3.58 56.73 4.42L56.73 4.42Q56.73 6.24 57.75 7.28Q58.78 8.31 61.24 8.31L61.24 8.31Q62.05 8.31 62.93 8.20Q63.82 8.09 64.54 7.84L64.54 7.84L65.05 10.66Q64.32 10.94 63.28 11.13Q62.25 11.31 60.85 11.31L60.85 11.31Q58.83 11.31 57.39 10.78Q55.95 10.24 55.02 9.32Q54.10 8.40 53.67 7.14Q53.23 5.88 53.23 4.42ZM78.85-1.85L78.24 1.34Q77.90 1.26 77.44 1.17Q76.98 1.09 76.50 1.02Q76.02 0.95 75.58 0.92Q75.13 0.89 74.82 0.89L74.82 0.89Q74.09 0.89 73.39 0.96Q72.69 1.03 71.96 1.23L71.96 1.23L71.96 11L68.49 11L68.49-1.29Q69.86-1.80 71.31-2.10Q72.75-2.41 74.68-2.41L74.68-2.41Q74.96-2.41 75.48-2.38Q76.00-2.36 76.58-2.29Q77.17-2.22 77.77-2.12Q78.38-2.02 78.85-1.85L78.85-1.85ZM87.95-5.94L87.95-5.94Q87.95-4.93 87.31-4.34Q86.66-3.76 85.77-3.76L85.77-3.76Q84.87-3.76 84.24-4.34Q83.61-4.93 83.61-5.94L83.61-5.94Q83.61-6.98 84.24-7.56Q84.87-8.15 85.77-8.15L85.77-8.15Q86.66-8.15 87.31-7.56Q87.95-6.98 87.95-5.94ZM92.63 7.67L93.08 10.44Q92.01 10.94 91.07 11.13Q90.14 11.31 89.35 11.31L89.35 11.31Q88.01 11.31 87.10 10.92Q86.19 10.52 85.64 9.78Q85.10 9.04 84.87 7.98Q84.65 6.91 84.65 5.54L84.65 5.54L84.65 0.70L81.01 0.70L81.01-2.16L88.09-2.16L88.09 5.99Q88.09 7.16 88.53 7.74Q88.96 8.31 89.97 8.31L89.97 8.31Q90.44 8.31 91.12 8.19Q91.79 8.06 92.63 7.67L92.63 7.67ZM103.63 4.53L103.63 4.53Q103.63 2.77 102.93 1.63Q102.23 0.50 100.80 0.50L100.80 0.50Q100.41 0.50 99.96 0.54Q99.52 0.58 99.21 0.61L99.21 0.61L99.21 7.84Q99.54 8.06 100.10 8.20Q100.66 8.34 101.22 8.34L101.22 8.34Q102.46 8.34 103.04 7.35Q103.63 6.35 103.63 4.53ZM107.13 4.42L107.13 4.42Q107.13 5.93 106.80 7.21Q106.46 8.48 105.82 9.39Q105.17 10.30 104.19 10.80Q103.21 11.31 101.92 11.31L101.92 11.31Q100.61 11.31 99.21 10.66L99.21 10.66L99.21 15.62L95.76 15.62L95.76-1.74Q96.72-2.05 98.10-2.24Q99.49-2.44 100.83-2.44L100.83-2.44Q103.88-2.44 105.51-0.59Q107.13 1.26 107.13 4.42ZM112.00 6.10L112.00 0.70L109.01 0.70L109.01-2.16L112.00-2.16L112.00-5.46L115.45-6.02L115.45-2.16L120.96-2.16L120.96 0.70L115.45 0.70L115.45 6.02Q115.45 6.74 115.59 7.19Q115.73 7.64 115.98 7.89Q116.23 8.14 116.60 8.23Q116.96 8.31 117.41 8.31L117.41 8.31Q117.88 8.31 118.29 8.28Q118.70 8.26 119.07 8.19Q119.45 8.12 119.86 7.98Q120.26 7.84 120.74 7.61L120.74 7.61L121.22 10.58Q120.26 10.97 119.16 11.14Q118.05 11.31 117.02 11.31L117.02 11.31Q115.81 11.31 114.89 11.11Q113.96 10.92 113.32 10.36Q112.68 9.80 112.34 8.77Q112.00 7.75 112.00 6.10L112.00 6.10Z"/>
    </g>
</svg>