<?xml version="1.0" encoding="UTF-8"?>
<svg height="26" width="236.39999999999998" version="1.1" xmlns="http://www.w3.org/2000/svg"><!--Created by Josélio de S. C. Júnior - 2021 - https://github.com/joseliojunior -->
    <defs>
        <pattern id="pattern"
                x="3" y="3" width="6" height="6"
                patternUnits="userSpaceOnUse"
                patternTransform="rotate(45)" >
            <rect height="6" width="6"
                fill="#ffffff"/>
            <line x1="0" y1="0" x2="0" y2="6"
                stroke="#888888"
                stroke-width="2" />
        </pattern>
    </defs>
    <rect
        height="24"
        width="234.39999999999998"
        rx="12"
        ry="12"
        x="1" y="1"
        fill="url(#pattern)"
        stroke="#000000"
        stroke-width="1" />
    <g transform="translate(0, 8)">
        <path fill="#ffffff" stroke="#000000" d="M22.83 1.74L22.83 8.40Q22.91 8.42 23.01 8.42Q23.10 8.42 23.18 8.42L23.18 8.42Q23.86 8.42 24.31 8.16Q24.77 7.90 25.05 7.46Q25.33 7.01 25.45 6.39Q25.57 5.78 25.57 5.04L25.57 5.04Q25.57 4.40 25.47 3.79Q25.38 3.18 25.14 2.72Q24.90 2.26 24.48 1.98Q24.06 1.70 23.41 1.70L23.41 1.70Q23.28 1.70 23.12 1.70Q22.96 1.71 22.83 1.74L22.83 1.74ZM27.57 5.04L27.57 5.04Q27.57 6.42 27.22 7.38Q26.88 8.35 26.27 8.96Q25.66 9.57 24.82 9.85Q23.98 10.13 22.98 10.13L22.98 10.13Q22.45 10.13 21.94 10.07Q21.44 10.02 20.86 9.89L20.86 9.89L20.86 0.22Q21.54 0.08 22.13 0.03Q22.72-0.02 23.23-0.02L23.23-0.02Q24.21-0.02 25.02 0.27Q25.82 0.56 26.38 1.18Q26.94 1.79 27.26 2.74Q27.57 3.70 27.57 5.04ZM35.15 10L28.86 10L28.86 8.37L31.02 8.37L31.02 1.73L28.86 1.73L28.86 0.10L35.15 0.10L35.15 1.73L33.01 1.73L33.01 8.37L35.15 8.37L35.15 10ZM40.99 1.58L40.99 1.58Q40.29 1.58 39.81 1.84Q39.33 2.10 39.02 2.55Q38.70 3.01 38.57 3.64Q38.43 4.27 38.43 5.04L38.43 5.04Q38.43 6.82 38.99 7.66Q39.55 8.50 40.64 8.50L40.64 8.50Q40.82 8.50 41.02 8.48Q41.23 8.46 41.41 8.43L41.41 8.43L41.41 4.82L43.38 4.82L43.38 9.76Q43.02 9.89 42.28 10.05Q41.54 10.21 40.48 10.21L40.48 10.21Q39.55 10.21 38.81 9.88Q38.06 9.55 37.54 8.90Q37.01 8.26 36.72 7.29Q36.43 6.32 36.43 5.04L36.43 5.04Q36.43 3.78 36.77 2.81Q37.10 1.84 37.68 1.18Q38.26 0.53 39.04 0.20Q39.82-0.13 40.72-0.13L40.72-0.13Q41.30-0.13 41.75-0.04Q42.21 0.05 42.54 0.16Q42.88 0.27 43.10 0.40Q43.31 0.53 43.42 0.59L43.42 0.59L42.91 2.16Q42.56 1.94 42.05 1.76Q41.54 1.58 40.99 1.58ZM51.15 10L44.86 10L44.86 8.37L47.02 8.37L47.02 1.73L44.86 1.73L44.86 0.10L51.15 0.10L51.15 1.73L49.01 1.73L49.01 8.37L51.15 8.37L51.15 10ZM52.40 0.10L59.60 0.10L59.60 1.73L56.99 1.73L56.99 10L55.01 10L55.01 1.73L52.40 1.73L52.40 0.10ZM67.86 10L65.74 10L65.28 7.71L62.64 7.71L62.19 10L60.14 10Q60.85 7.07 61.57 4.66Q62.29 2.26 62.96 0.10L62.96 0.10L65.10 0.10Q65.81 2.27 66.50 4.71Q67.20 7.15 67.86 10L67.86 10ZM63.98 2.02L63.98 2.02Q63.82 2.58 63.69 3.08Q63.55 3.58 63.43 4.07Q63.31 4.56 63.21 5.06Q63.10 5.55 63.01 6.08L63.01 6.08L64.94 6.08Q64.85 5.55 64.75 5.06Q64.66 4.56 64.54 4.07Q64.42 3.58 64.28 3.08Q64.14 2.58 63.98 2.02ZM75.36 8.37L75.36 10L69.14 10L69.14 0.10L71.12 0.10L71.12 8.37L75.36 8.37ZM88.74 10.21L88.74 10.21Q86.64 10.21 85.54 8.86Q84.43 7.52 84.43 5.04L84.43 5.04Q84.43 3.81 84.77 2.85Q85.10 1.89 85.70 1.22Q86.30 0.56 87.13 0.22Q87.95-0.13 88.93-0.13L88.93-0.13Q89.46-0.13 89.88-0.04Q90.30 0.05 90.62 0.16Q90.94 0.27 91.16 0.40Q91.38 0.53 91.49 0.59L91.49 0.59L90.98 2.16Q90.61 1.92 90.09 1.75Q89.57 1.58 88.90 1.58L88.90 1.58Q88.43 1.58 87.99 1.75Q87.55 1.92 87.21 2.31Q86.86 2.70 86.65 3.36Q86.43 4.02 86.43 4.99L86.43 4.99Q86.43 6.69 87.02 7.59Q87.60 8.50 88.93 8.50L88.93 8.50Q89.70 8.50 90.20 8.32Q90.70 8.14 91.01 7.97L91.01 7.97L91.50 9.52Q91.09 9.78 90.38 9.99Q89.66 10.21 88.74 10.21ZM99.55 6.22L99.55 6.22Q99.55 7.12 99.30 7.85Q99.04 8.58 98.58 9.10Q98.11 9.63 97.46 9.92Q96.82 10.21 96.02 10.21L96.02 10.21Q95.22 10.21 94.57 9.92Q93.92 9.63 93.45 9.10Q92.98 8.58 92.72 7.85Q92.46 7.12 92.46 6.22L92.46 6.22Q92.46 5.34 92.73 4.62Q92.99 3.89 93.46 3.37Q93.94 2.85 94.59 2.57Q95.25 2.29 96.02 2.29L96.02 2.29Q96.80 2.29 97.45 2.57Q98.10 2.85 98.57 3.37Q99.04 3.89 99.30 4.62Q99.55 5.34 99.55 6.22ZM94.46 6.24L94.46 6.24Q94.46 7.25 94.82 7.87Q95.18 8.50 95.98 8.50L95.98 8.50Q96.75 8.50 97.14 7.87Q97.54 7.25 97.54 6.24L97.54 6.24Q97.54 5.23 97.18 4.62Q96.82 4 96.02 4L96.02 4Q95.25 4 94.86 4.62Q94.46 5.23 94.46 6.24ZM105.49 2.40L105.49 2.40Q106.11 2.40 106.51 2.59Q106.91 2.78 107.14 3.17Q107.38 3.55 107.46 4.14Q107.54 4.72 107.54 5.50L107.54 5.50L107.54 10L105.94 10L105.94 5.41Q105.94 4.96 105.88 4.69Q105.82 4.42 105.74 4.27Q105.65 4.13 105.53 4.08Q105.41 4.03 105.28 4.03L105.28 4.03Q105.14 4.03 104.98 4.06Q104.82 4.08 104.69 4.14L104.69 4.14Q104.74 4.45 104.77 4.82Q104.80 5.18 104.80 5.63L104.80 5.63L104.80 7.14L103.20 7.14L103.20 5.41Q103.20 4.64 103.05 4.34Q102.90 4.03 102.56 4.03L102.56 4.03Q102.46 4.03 102.33 4.05Q102.19 4.06 102.06 4.10L102.06 4.10L102.06 10L100.46 10L100.46 2.77Q101.09 2.59 101.70 2.50Q102.30 2.40 102.77 2.40L102.77 2.40Q103.18 2.40 103.51 2.50Q103.84 2.61 104.08 2.85L104.08 2.85Q104.35 2.67 104.72 2.54Q105.09 2.40 105.49 2.40ZM113.49 2.40L113.49 2.40Q114.11 2.40 114.51 2.59Q114.91 2.78 115.14 3.17Q115.38 3.55 115.46 4.14Q115.54 4.72 115.54 5.50L115.54 5.50L115.54 10L113.94 10L113.94 5.41Q113.94 4.96 113.88 4.69Q113.82 4.42 113.74 4.27Q113.65 4.13 113.53 4.08Q113.41 4.03 113.28 4.03L113.28 4.03Q113.14 4.03 112.98 4.06Q112.82 4.08 112.69 4.14L112.69 4.14Q112.74 4.45 112.77 4.82Q112.80 5.18 112.80 5.63L112.80 5.63L112.80 7.14L111.20 7.14L111.20 5.41Q111.20 4.64 111.05 4.34Q110.90 4.03 110.56 4.03L110.56 4.03Q110.46 4.03 110.33 4.05Q110.19 4.06 110.06 4.10L110.06 4.10L110.06 10L108.46 10L108.46 2.77Q109.09 2.59 109.70 2.50Q110.30 2.40 110.77 2.40L110.77 2.40Q111.18 2.40 111.51 2.50Q111.84 2.61 112.08 2.85L112.08 2.85Q112.35 2.67 112.72 2.54Q113.09 2.40 113.49 2.40ZM120.02 8.59L120.02 8.59Q120.34 8.59 120.64 8.58Q120.94 8.58 121.17 8.54L121.17 8.54L121.17 6.82Q120.98 6.78 120.70 6.76Q120.43 6.74 120.21 6.74L120.21 6.74Q119.90 6.74 119.62 6.78Q119.33 6.82 119.11 6.91Q118.90 7.01 118.77 7.18Q118.64 7.36 118.64 7.65L118.64 7.65Q118.64 8.16 119.02 8.38Q119.41 8.59 120.02 8.59ZM119.84 2.29L119.84 2.29Q120.77 2.29 121.38 2.50Q122 2.72 122.37 3.11Q122.74 3.50 122.90 4.07Q123.06 4.64 123.06 5.34L123.06 5.34L123.06 9.82Q122.62 9.92 121.78 10.05Q120.93 10.18 119.87 10.18L119.87 10.18Q119.15 10.18 118.57 10.05Q117.98 9.92 117.57 9.62Q117.15 9.33 116.93 8.86Q116.70 8.38 116.70 7.70L116.70 7.70Q116.70 7.04 116.96 6.59Q117.22 6.14 117.65 5.87Q118.08 5.60 118.64 5.48Q119.20 5.36 119.81 5.36L119.81 5.36Q120.58 5.36 121.17 5.49L121.17 5.49L121.17 5.25Q121.17 4.69 120.82 4.31Q120.46 3.94 119.60 3.94L119.60 3.94Q119.04 3.94 118.52 4.02Q118 4.10 117.68 4.21L117.68 4.21L117.41 2.62Q117.78 2.50 118.45 2.39Q119.12 2.29 119.84 2.29ZM125.01 10L125.01 2.72Q125.54 2.58 126.31 2.45Q127.09 2.32 128 2.32L128 2.32Q128.90 2.32 129.49 2.57Q130.08 2.82 130.42 3.27Q130.77 3.73 130.91 4.36Q131.06 4.99 131.06 5.76L131.06 5.76L131.06 10L129.09 10L129.09 6.02Q129.09 4.96 128.85 4.50Q128.61 4.03 127.87 4.03L127.87 4.03Q127.65 4.03 127.43 4.05Q127.22 4.06 126.98 4.10L126.98 4.10L126.98 10L125.01 10ZM134.45 6.19L134.45 6.19Q134.45 7.20 134.82 7.84Q135.20 8.48 136.03 8.48L136.03 8.48Q136.27 8.48 136.48 8.46Q136.69 8.45 136.91 8.42L136.91 8.42L136.91 4.32Q136.69 4.19 136.40 4.10Q136.11 4.02 135.79 4.02L135.79 4.02Q135.09 4.02 134.77 4.58Q134.45 5.14 134.45 6.19ZM138.88-1.10L138.88 9.78Q138.34 9.95 137.55 10.06Q136.77 10.18 136.02 10.18L136.02 10.18Q134.26 10.18 133.35 9.14Q132.45 8.10 132.45 6.29L132.45 6.29Q132.45 4.45 133.21 3.38Q133.97 2.32 135.46 2.32L135.46 2.32Q135.86 2.32 136.24 2.41Q136.62 2.50 136.91 2.66L136.91 2.66L136.91-0.77L138.88-1.10ZM155.36 8.37L155.36 10L149.14 10L149.14 0.10L151.12 0.10L151.12 8.37L155.36 8.37ZM160.02 8.59L160.02 8.59Q160.34 8.59 160.64 8.58Q160.94 8.58 161.17 8.54L161.17 8.54L161.17 6.82Q160.98 6.78 160.70 6.76Q160.43 6.74 160.21 6.74L160.21 6.74Q159.90 6.74 159.62 6.78Q159.33 6.82 159.11 6.91Q158.90 7.01 158.77 7.18Q158.64 7.36 158.64 7.65L158.64 7.65Q158.64 8.16 159.02 8.38Q159.41 8.59 160.02 8.59ZM159.84 2.29L159.84 2.29Q160.77 2.29 161.38 2.50Q162 2.72 162.37 3.11Q162.74 3.50 162.90 4.07Q163.06 4.64 163.06 5.34L163.06 5.34L163.06 9.82Q162.62 9.92 161.78 10.05Q160.93 10.18 159.87 10.18L159.87 10.18Q159.15 10.18 158.57 10.05Q157.98 9.92 157.57 9.62Q157.15 9.33 156.93 8.86Q156.70 8.38 156.70 7.70L156.70 7.70Q156.70 7.04 156.96 6.59Q157.22 6.14 157.65 5.87Q158.08 5.60 158.64 5.48Q159.20 5.36 159.81 5.36L159.81 5.36Q160.58 5.36 161.17 5.49L161.17 5.49L161.17 5.25Q161.17 4.69 160.82 4.31Q160.46 3.94 159.60 3.94L159.60 3.94Q159.04 3.94 158.52 4.02Q158 4.10 157.68 4.21L157.68 4.21L157.41 2.62Q157.78 2.50 158.45 2.39Q159.12 2.29 159.84 2.29ZM165.01 10L165.01 2.72Q165.54 2.58 166.31 2.45Q167.09 2.32 168 2.32L168 2.32Q168.90 2.32 169.49 2.57Q170.08 2.82 170.42 3.27Q170.77 3.73 170.91 4.36Q171.06 4.99 171.06 5.76L171.06 5.76L171.06 10L169.09 10L169.09 6.02Q169.09 4.96 168.85 4.50Q168.61 4.03 167.87 4.03L167.87 4.03Q167.65 4.03 167.43 4.05Q167.22 4.06 166.98 4.10L166.98 4.10L166.98 10L165.01 10ZM174.53 6L174.53 6Q174.53 6.93 174.86 7.42Q175.20 7.90 175.92 7.90L175.92 7.90Q176.24 7.90 176.52 7.82Q176.80 7.74 177.02 7.62L177.02 7.62L177.02 4Q176.80 3.95 176.62 3.94Q176.45 3.92 176.26 3.92L176.26 3.92Q174.53 3.92 174.53 6ZM179.01 2.72L179.01 9.09Q179.01 10.93 178.12 11.81Q177.23 12.69 175.26 12.69L175.26 12.69Q174.56 12.69 173.91 12.54Q173.26 12.40 172.67 12.21L172.67 12.21L173.04 10.54Q173.50 10.72 174.02 10.87Q174.53 11.02 175.30 11.02L175.30 11.02Q175.81 11.02 176.14 10.90Q176.48 10.78 176.67 10.58Q176.86 10.37 176.94 10.09Q177.02 9.81 177.02 9.49L177.02 9.49L177.02 9.18Q176.61 9.34 176.26 9.42Q175.92 9.50 175.52 9.50L175.52 9.50Q174.05 9.50 173.29 8.58Q172.53 7.65 172.53 6L172.53 6Q172.53 4.14 173.55 3.23Q174.58 2.32 176.34 2.32L176.34 2.32Q177.57 2.32 179.01 2.72L179.01 2.72ZM187.01 2.48L187.01 9.74Q186.46 9.89 185.69 10.03Q184.91 10.18 184 10.18L184 10.18Q183.07 10.18 182.48 9.92Q181.89 9.66 181.54 9.19Q181.20 8.72 181.07 8.08Q180.94 7.44 180.94 6.67L180.94 6.67L180.94 2.48L182.91 2.48L182.91 6.42Q182.91 7.46 183.16 7.96Q183.41 8.46 184.13 8.46L184.13 8.46Q184.58 8.46 185.02 8.38L185.02 8.38L185.02 2.48L187.01 2.48ZM192.02 8.59L192.02 8.59Q192.34 8.59 192.64 8.58Q192.94 8.58 193.17 8.54L193.17 8.54L193.17 6.82Q192.98 6.78 192.70 6.76Q192.43 6.74 192.21 6.74L192.21 6.74Q191.90 6.74 191.62 6.78Q191.33 6.82 191.11 6.91Q190.90 7.01 190.77 7.18Q190.64 7.36 190.64 7.65L190.64 7.65Q190.64 8.16 191.02 8.38Q191.41 8.59 192.02 8.59ZM191.84 2.29L191.84 2.29Q192.77 2.29 193.38 2.50Q194 2.72 194.37 3.11Q194.74 3.50 194.90 4.07Q195.06 4.64 195.06 5.34L195.06 5.34L195.06 9.82Q194.62 9.92 193.78 10.05Q192.93 10.18 191.87 10.18L191.87 10.18Q191.15 10.18 190.57 10.05Q189.98 9.92 189.57 9.62Q189.15 9.33 188.93 8.86Q188.70 8.38 188.70 7.70L188.70 7.70Q188.70 7.04 188.96 6.59Q189.22 6.14 189.65 5.87Q190.08 5.60 190.64 5.48Q191.20 5.36 191.81 5.36L191.81 5.36Q192.58 5.36 193.17 5.49L193.17 5.49L193.17 5.25Q193.17 4.69 192.82 4.31Q192.46 3.94 191.60 3.94L191.60 3.94Q191.04 3.94 190.52 4.02Q190 4.10 189.68 4.21L189.68 4.21L189.41 2.62Q189.78 2.50 190.45 2.39Q191.12 2.29 191.84 2.29ZM198.53 6L198.53 6Q198.53 6.93 198.86 7.42Q199.20 7.90 199.92 7.90L199.92 7.90Q200.24 7.90 200.52 7.82Q200.80 7.74 201.02 7.62L201.02 7.62L201.02 4Q200.80 3.95 200.62 3.94Q200.45 3.92 200.26 3.92L200.26 3.92Q198.53 3.92 198.53 6ZM203.01 2.72L203.01 9.09Q203.01 10.93 202.12 11.81Q201.23 12.69 199.26 12.69L199.26 12.69Q198.56 12.69 197.91 12.54Q197.26 12.40 196.67 12.21L196.67 12.21L197.04 10.54Q197.50 10.72 198.02 10.87Q198.53 11.02 199.30 11.02L199.30 11.02Q199.81 11.02 200.14 10.90Q200.48 10.78 200.67 10.58Q200.86 10.37 200.94 10.09Q201.02 9.81 201.02 9.49L201.02 9.49L201.02 9.18Q200.61 9.34 200.26 9.42Q199.92 9.50 199.52 9.50L199.52 9.50Q198.05 9.50 197.29 8.58Q196.53 7.65 196.53 6L196.53 6Q196.53 4.14 197.55 3.23Q198.58 2.32 200.34 2.32L200.34 2.32Q201.57 2.32 203.01 2.72L203.01 2.72ZM204.50 6.30L204.50 6.30Q204.50 5.31 204.80 4.56Q205.10 3.81 205.60 3.30Q206.10 2.80 206.74 2.54Q207.38 2.29 208.05 2.29L208.05 2.29Q209.71 2.29 210.58 3.27Q211.44 4.26 211.44 6.14L211.44 6.14Q211.44 6.34 211.43 6.54Q211.42 6.75 211.41 6.88L211.41 6.88L206.53 6.88Q206.53 7.62 207.14 8.04Q207.74 8.46 208.70 8.46L208.70 8.46Q209.30 8.46 209.83 8.34Q210.37 8.21 210.74 8.08L210.74 8.08L211.01 9.76Q210.50 9.94 209.92 10.06Q209.34 10.18 208.62 10.18L208.62 10.18Q207.66 10.18 206.90 9.93Q206.14 9.68 205.61 9.19Q205.07 8.70 204.78 7.98Q204.50 7.26 204.50 6.30ZM206.53 5.52L209.54 5.52Q209.54 5.22 209.46 4.94Q209.38 4.66 209.20 4.43Q209.02 4.21 208.75 4.07Q208.48 3.94 208.08 3.94L208.08 3.94Q207.70 3.94 207.42 4.06Q207.14 4.19 206.95 4.42Q206.77 4.64 206.66 4.93Q206.56 5.22 206.53 5.52L206.53 5.52Z"/>
    </g>
</svg>