<?xml version="1.0" encoding="UTF-8"?>
<svg height="322" width="332.4" version="1.1" xmlns="http://www.w3.org/2000/svg"><!--Created by Josélio de S. C. Júnior - 2021 - https://github.com/joseliojunior -->
    <defs>
        <pattern id="pattern"
                x="1.5" y="3" width="3" height="6"
                patternUnits="userSpaceOnUse"
                patternTransform="rotate(45)" >
            <rect height="6" width="1" fill="#999999"/>
        </pattern>
    </defs>
    <rect
        height="32"
        width="330.4"
        rx="1"
        ry="1"
        x="1" y="1"
        fill="url(#pattern)"
        stroke="#000000"
        stroke-width="1" />
    <g transform="translate(0, 12)">
        <path fill="#ffffff" stroke="#000000" d="M24.25-0.38L24.25 9.60Q24.37 9.62 24.51 9.62Q24.66 9.62 24.78 9.62L24.78 9.62Q25.78 9.62 26.47 9.24Q27.15 8.86 27.57 8.18Q27.99 7.51 28.17 6.59Q28.35 5.66 28.35 4.56L28.35 4.56Q28.35 3.60 28.21 2.69Q28.06 1.78 27.70 1.08Q27.34 0.38 26.72-0.04Q26.10-0.46 25.11-0.46L25.11-0.46Q24.92-0.46 24.68-0.44Q24.44-0.43 24.25-0.38L24.25-0.38ZM31.35 4.56L31.35 4.56Q31.35 6.62 30.84 8.08Q30.32 9.53 29.41 10.44Q28.50 11.35 27.24 11.77Q25.98 12.19 24.46 12.19L24.46 12.19Q23.67 12.19 22.92 12.11Q22.16 12.02 21.30 11.83L21.30 11.83L21.30-2.66Q22.30-2.88 23.19-2.95Q24.08-3.02 24.85-3.02L24.85-3.02Q26.31-3.02 27.52-2.59Q28.74-2.16 29.58-1.24Q30.42-0.31 30.88 1.12Q31.35 2.54 31.35 4.56ZM42.73 12L33.30 12L33.30 9.55L36.54 9.55L36.54-0.41L33.30-0.41L33.30-2.86L42.73-2.86L42.73-0.41L39.51-0.41L39.51 9.55L42.73 9.55L42.73 12ZM51.49-0.62L51.49-0.62Q50.43-0.62 49.71-0.24Q48.99 0.14 48.52 0.83Q48.06 1.51 47.85 2.46Q47.65 3.41 47.65 4.56L47.65 4.56Q47.65 7.22 48.49 8.48Q49.33 9.74 50.96 9.74L50.96 9.74Q51.22 9.74 51.54 9.72Q51.85 9.70 52.11 9.65L52.11 9.65L52.11 4.22L55.06 4.22L55.06 11.64Q54.54 11.83 53.42 12.07Q52.30 12.31 50.72 12.31L50.72 12.31Q49.33 12.31 48.21 11.82Q47.10 11.33 46.30 10.36Q45.51 9.38 45.08 7.93Q44.65 6.48 44.65 4.56L44.65 4.56Q44.65 2.66 45.15 1.21Q45.66-0.24 46.52-1.22Q47.38-2.21 48.56-2.70Q49.74-3.19 51.08-3.19L51.08-3.19Q51.94-3.19 52.63-3.06Q53.31-2.93 53.82-2.76Q54.32-2.59 54.64-2.40Q54.97-2.21 55.14-2.11L55.14-2.11L54.37 0.24Q53.84-0.10 53.07-0.36Q52.30-0.62 51.49-0.62ZM66.73 12L57.30 12L57.30 9.55L60.54 9.55L60.54-0.41L57.30-0.41L57.30-2.86L66.73-2.86L66.73-0.41L63.51-0.41L63.51 9.55L66.73 9.55L66.73 12ZM68.60-2.86L79.40-2.86L79.40-0.41L75.49-0.41L75.49 12L72.51 12L72.51-0.41L68.60-0.41L68.60-2.86ZM91.78 12L88.62 12L87.92 8.57L83.96 8.57L83.29 12L80.22 12Q81.27 7.61 82.35 4.00Q83.43 0.38 84.44-2.86L84.44-2.86L87.66-2.86Q88.71 0.41 89.76 4.07Q90.80 7.73 91.78 12L91.78 12ZM85.98 0.02L85.98 0.02Q85.74 0.86 85.53 1.62Q85.33 2.38 85.15 3.11Q84.97 3.84 84.81 4.58Q84.66 5.33 84.51 6.12L84.51 6.12L87.42 6.12Q87.27 5.33 87.13 4.58Q86.98 3.84 86.80 3.11Q86.62 2.38 86.42 1.62Q86.22 0.86 85.98 0.02ZM103.04 9.55L103.04 12L93.70 12L93.70-2.86L96.68-2.86L96.68 9.55L103.04 9.55ZM123.10 12.31L123.10 12.31Q119.96 12.31 118.30 10.30Q116.65 8.28 116.65 4.56L116.65 4.56Q116.65 2.71 117.15 1.27Q117.66-0.17 118.56-1.16Q119.46-2.16 120.69-2.68Q121.93-3.19 123.39-3.19L123.39-3.19Q124.18-3.19 124.82-3.06Q125.46-2.93 125.94-2.76Q126.42-2.59 126.74-2.40Q127.06-2.21 127.23-2.11L127.23-2.11L126.46 0.24Q125.91-0.12 125.13-0.37Q124.35-0.62 123.34-0.62L123.34-0.62Q122.65-0.62 121.99-0.37Q121.33-0.12 120.81 0.47Q120.30 1.06 119.97 2.04Q119.65 3.02 119.65 4.49L119.65 4.49Q119.65 7.03 120.52 8.39Q121.40 9.74 123.39 9.74L123.39 9.74Q124.54 9.74 125.30 9.48Q126.06 9.22 126.51 8.95L126.51 8.95L127.26 11.28Q126.63 11.66 125.56 11.99Q124.50 12.31 123.10 12.31ZM139.33 6.34L139.33 6.34Q139.33 7.68 138.94 8.77Q138.56 9.86 137.86 10.66Q137.17 11.45 136.20 11.88Q135.22 12.31 134.02 12.31L134.02 12.31Q132.82 12.31 131.85 11.88Q130.88 11.45 130.17 10.66Q129.46 9.86 129.08 8.77Q128.70 7.68 128.70 6.34L128.70 6.34Q128.70 5.02 129.09 3.92Q129.49 2.83 130.20 2.05Q130.90 1.27 131.89 0.85Q132.87 0.43 134.02 0.43L134.02 0.43Q135.20 0.43 136.17 0.85Q137.14 1.27 137.85 2.05Q138.56 2.83 138.94 3.92Q139.33 5.02 139.33 6.34ZM131.70 6.36L131.70 6.36Q131.70 7.87 132.24 8.81Q132.78 9.74 133.98 9.74L133.98 9.74Q135.13 9.74 135.72 8.81Q136.30 7.87 136.30 6.36L136.30 6.36Q136.30 4.85 135.76 3.92Q135.22 3 134.02 3L134.02 3Q132.87 3 132.28 3.92Q131.70 4.85 131.70 6.36ZM148.23 0.60L148.23 0.60Q149.17 0.60 149.77 0.89Q150.37 1.18 150.72 1.75Q151.06 2.33 151.18 3.20Q151.30 4.08 151.30 5.26L151.30 5.26L151.30 12L148.90 12L148.90 5.11Q148.90 4.44 148.82 4.03Q148.74 3.62 148.60 3.41Q148.47 3.19 148.29 3.12Q148.11 3.05 147.92 3.05L147.92 3.05Q147.70 3.05 147.46 3.08Q147.22 3.12 147.03 3.22L147.03 3.22Q147.10 3.67 147.15 4.22Q147.20 4.78 147.20 5.45L147.20 5.45L147.20 7.70L144.80 7.70L144.80 5.11Q144.80 3.96 144.57 3.50Q144.34 3.05 143.84 3.05L143.84 3.05Q143.70 3.05 143.49 3.07Q143.29 3.10 143.10 3.14L143.10 3.14L143.10 12L140.70 12L140.70 1.15Q141.63 0.89 142.54 0.74Q143.46 0.60 144.15 0.60L144.15 0.60Q144.78 0.60 145.27 0.76Q145.76 0.91 146.12 1.27L146.12 1.27Q146.53 1.01 147.08 0.80Q147.63 0.60 148.23 0.60ZM160.23 0.60L160.23 0.60Q161.17 0.60 161.77 0.89Q162.37 1.18 162.72 1.75Q163.06 2.33 163.18 3.20Q163.30 4.08 163.30 5.26L163.30 5.26L163.30 12L160.90 12L160.90 5.11Q160.90 4.44 160.82 4.03Q160.74 3.62 160.60 3.41Q160.47 3.19 160.29 3.12Q160.11 3.05 159.92 3.05L159.92 3.05Q159.70 3.05 159.46 3.08Q159.22 3.12 159.03 3.22L159.03 3.22Q159.10 3.67 159.15 4.22Q159.20 4.78 159.20 5.45L159.20 5.45L159.20 7.70L156.80 7.70L156.80 5.11Q156.80 3.96 156.57 3.50Q156.34 3.05 155.84 3.05L155.84 3.05Q155.70 3.05 155.49 3.07Q155.29 3.10 155.10 3.14L155.10 3.14L155.10 12L152.70 12L152.70 1.15Q153.63 0.89 154.54 0.74Q155.46 0.60 156.15 0.60L156.15 0.60Q156.78 0.60 157.27 0.76Q157.76 0.91 158.12 1.27L158.12 1.27Q158.53 1.01 159.08 0.80Q159.63 0.60 160.23 0.60ZM170.02 9.89L170.02 9.89Q170.50 9.89 170.96 9.88Q171.42 9.86 171.75 9.82L171.75 9.82L171.75 7.22Q171.46 7.18 171.06 7.14Q170.65 7.10 170.31 7.10L170.31 7.10Q169.86 7.10 169.42 7.16Q168.99 7.22 168.67 7.37Q168.34 7.51 168.15 7.78Q167.96 8.04 167.96 8.47L167.96 8.47Q167.96 9.24 168.54 9.56Q169.11 9.89 170.02 9.89ZM169.76 0.43L169.76 0.43Q171.15 0.43 172.08 0.76Q173 1.08 173.55 1.67Q174.10 2.26 174.34 3.11Q174.58 3.96 174.58 5.02L174.58 5.02L174.58 11.74Q173.94 11.88 172.66 12.07Q171.39 12.26 169.81 12.26L169.81 12.26Q168.73 12.26 167.85 12.07Q166.98 11.88 166.35 11.44Q165.73 10.99 165.39 10.28Q165.06 9.58 165.06 8.54L165.06 8.54Q165.06 7.56 165.44 6.89Q165.82 6.22 166.47 5.81Q167.12 5.40 167.96 5.22Q168.80 5.04 169.71 5.04L169.71 5.04Q170.86 5.04 171.75 5.23L171.75 5.23L171.75 4.87Q171.75 4.03 171.22 3.47Q170.70 2.90 169.40 2.90L169.40 2.90Q168.56 2.90 167.78 3.02Q167 3.14 166.52 3.31L166.52 3.31L166.11 0.94Q166.66 0.74 167.67 0.59Q168.68 0.43 169.76 0.43ZM177.51 12L177.51 1.08Q178.30 0.86 179.47 0.67Q180.63 0.48 182 0.48L182 0.48Q183.34 0.48 184.23 0.85Q185.12 1.22 185.64 1.91Q186.15 2.59 186.37 3.54Q186.58 4.49 186.58 5.64L186.58 5.64L186.58 12L183.63 12L183.63 6.02Q183.63 4.44 183.27 3.74Q182.91 3.05 181.81 3.05L181.81 3.05Q181.47 3.05 181.15 3.07Q180.82 3.10 180.46 3.14L180.46 3.14L180.46 12L177.51 12ZM191.67 6.29L191.67 6.29Q191.67 7.80 192.24 8.76Q192.80 9.72 194.05 9.72L194.05 9.72Q194.41 9.72 194.72 9.70Q195.03 9.67 195.37 9.62L195.37 9.62L195.37 3.48Q195.03 3.29 194.60 3.16Q194.17 3.02 193.69 3.02L193.69 3.02Q192.63 3.02 192.15 3.86Q191.67 4.70 191.67 6.29ZM198.32-4.66L198.32 11.66Q197.50 11.93 196.33 12.10Q195.15 12.26 194.02 12.26L194.02 12.26Q191.38 12.26 190.03 10.70Q188.67 9.14 188.67 6.43L188.67 6.43Q188.67 3.67 189.81 2.08Q190.95 0.48 193.18 0.48L193.18 0.48Q193.78 0.48 194.36 0.61Q194.94 0.74 195.37 0.98L195.37 0.98L195.37-4.15L198.32-4.66ZM223.04 9.55L223.04 12L213.70 12L213.70-2.86L216.68-2.86L216.68 9.55L223.04 9.55ZM230.02 9.89L230.02 9.89Q230.50 9.89 230.96 9.88Q231.42 9.86 231.75 9.82L231.75 9.82L231.75 7.22Q231.46 7.18 231.06 7.14Q230.65 7.10 230.31 7.10L230.31 7.10Q229.86 7.10 229.42 7.16Q228.99 7.22 228.67 7.37Q228.34 7.51 228.15 7.78Q227.96 8.04 227.96 8.47L227.96 8.47Q227.96 9.24 228.54 9.56Q229.11 9.89 230.02 9.89ZM229.76 0.43L229.76 0.43Q231.15 0.43 232.08 0.76Q233 1.08 233.55 1.67Q234.10 2.26 234.34 3.11Q234.58 3.96 234.58 5.02L234.58 5.02L234.58 11.74Q233.94 11.88 232.66 12.07Q231.39 12.26 229.81 12.26L229.81 12.26Q228.73 12.26 227.85 12.07Q226.98 11.88 226.35 11.44Q225.73 10.99 225.39 10.28Q225.06 9.58 225.06 8.54L225.06 8.54Q225.06 7.56 225.44 6.89Q225.82 6.22 226.47 5.81Q227.12 5.40 227.96 5.22Q228.80 5.04 229.71 5.04L229.71 5.04Q230.86 5.04 231.75 5.23L231.75 5.23L231.75 4.87Q231.75 4.03 231.22 3.47Q230.70 2.90 229.40 2.90L229.40 2.90Q228.56 2.90 227.78 3.02Q227 3.14 226.52 3.31L226.52 3.31L226.11 0.94Q226.66 0.74 227.67 0.59Q228.68 0.43 229.76 0.43ZM237.51 12L237.51 1.08Q238.30 0.86 239.47 0.67Q240.63 0.48 242 0.48L242 0.48Q243.34 0.48 244.23 0.85Q245.12 1.22 245.64 1.91Q246.15 2.59 246.37 3.54Q246.58 4.49 246.58 5.64L246.58 5.64L246.58 12L243.63 12L243.63 6.02Q243.63 4.44 243.27 3.74Q242.91 3.05 241.81 3.05L241.81 3.05Q241.47 3.05 241.15 3.07Q240.82 3.10 240.46 3.14L240.46 3.14L240.46 12L237.51 12ZM251.79 6L251.79 6Q251.79 7.39 252.30 8.12Q252.80 8.86 253.88 8.86L253.88 8.86Q254.36 8.86 254.78 8.74Q255.20 8.62 255.54 8.42L255.54 8.42L255.54 3Q255.20 2.93 254.94 2.90Q254.67 2.88 254.38 2.88L254.38 2.88Q251.79 2.88 251.79 6ZM258.51 1.08L258.51 10.63Q258.51 13.39 257.18 14.71Q255.85 16.03 252.90 16.03L252.90 16.03Q251.84 16.03 250.87 15.82Q249.90 15.60 249.01 15.31L249.01 15.31L249.56 12.82Q250.26 13.08 251.02 13.31Q251.79 13.54 252.94 13.54L252.94 13.54Q253.71 13.54 254.22 13.36Q254.72 13.18 255.01 12.86Q255.30 12.55 255.42 12.13Q255.54 11.71 255.54 11.23L255.54 11.23L255.54 10.78Q254.91 11.02 254.40 11.14Q253.88 11.26 253.28 11.26L253.28 11.26Q251.07 11.26 249.93 9.86Q248.79 8.47 248.79 6L248.79 6Q248.79 3.22 250.33 1.85Q251.86 0.48 254.50 0.48L254.50 0.48Q256.35 0.48 258.51 1.08L258.51 1.08ZM270.51 0.72L270.51 11.62Q269.70 11.83 268.53 12.05Q267.37 12.26 266 12.26L266 12.26Q264.61 12.26 263.72 11.88Q262.83 11.50 262.32 10.79Q261.80 10.08 261.61 9.12Q261.42 8.16 261.42 7.01L261.42 7.01L261.42 0.72L264.37 0.72L264.37 6.62Q264.37 8.18 264.74 8.94Q265.11 9.70 266.19 9.70L266.19 9.70Q266.86 9.70 267.54 9.58L267.54 9.58L267.54 0.72L270.51 0.72ZM278.02 9.89L278.02 9.89Q278.50 9.89 278.96 9.88Q279.42 9.86 279.75 9.82L279.75 9.82L279.75 7.22Q279.46 7.18 279.06 7.14Q278.65 7.10 278.31 7.10L278.31 7.10Q277.86 7.10 277.42 7.16Q276.99 7.22 276.67 7.37Q276.34 7.51 276.15 7.78Q275.96 8.04 275.96 8.47L275.96 8.47Q275.96 9.24 276.54 9.56Q277.11 9.89 278.02 9.89ZM277.76 0.43L277.76 0.43Q279.15 0.43 280.08 0.76Q281 1.08 281.55 1.67Q282.10 2.26 282.34 3.11Q282.58 3.96 282.58 5.02L282.58 5.02L282.58 11.74Q281.94 11.88 280.66 12.07Q279.39 12.26 277.81 12.26L277.81 12.26Q276.73 12.26 275.85 12.07Q274.98 11.88 274.35 11.44Q273.73 10.99 273.39 10.28Q273.06 9.58 273.06 8.54L273.06 8.54Q273.06 7.56 273.44 6.89Q273.82 6.22 274.47 5.81Q275.12 5.40 275.96 5.22Q276.80 5.04 277.71 5.04L277.71 5.04Q278.86 5.04 279.75 5.23L279.75 5.23L279.75 4.87Q279.75 4.03 279.22 3.47Q278.70 2.90 277.40 2.90L277.40 2.90Q276.56 2.90 275.78 3.02Q275 3.14 274.52 3.31L274.52 3.31L274.11 0.94Q274.66 0.74 275.67 0.59Q276.68 0.43 277.76 0.43ZM287.79 6L287.79 6Q287.79 7.39 288.30 8.12Q288.80 8.86 289.88 8.86L289.88 8.86Q290.36 8.86 290.78 8.74Q291.20 8.62 291.54 8.42L291.54 8.42L291.54 3Q291.20 2.93 290.94 2.90Q290.67 2.88 290.38 2.88L290.38 2.88Q287.79 2.88 287.79 6ZM294.51 1.08L294.51 10.63Q294.51 13.39 293.18 14.71Q291.85 16.03 288.90 16.03L288.90 16.03Q287.84 16.03 286.87 15.82Q285.90 15.60 285.01 15.31L285.01 15.31L285.56 12.82Q286.26 13.08 287.02 13.31Q287.79 13.54 288.94 13.54L288.94 13.54Q289.71 13.54 290.22 13.36Q290.72 13.18 291.01 12.86Q291.30 12.55 291.42 12.13Q291.54 11.71 291.54 11.23L291.54 11.23L291.54 10.78Q290.91 11.02 290.40 11.14Q289.88 11.26 289.28 11.26L289.28 11.26Q287.07 11.26 285.93 9.86Q284.79 8.47 284.79 6L284.79 6Q284.79 3.22 286.33 1.85Q287.86 0.48 290.50 0.48L290.50 0.48Q292.35 0.48 294.51 1.08L294.51 1.08ZM296.74 6.46L296.74 6.46Q296.74 4.97 297.20 3.84Q297.66 2.71 298.40 1.96Q299.14 1.20 300.10 0.82Q301.06 0.43 302.07 0.43L302.07 0.43Q304.57 0.43 305.86 1.91Q307.16 3.38 307.16 6.22L307.16 6.22Q307.16 6.50 307.15 6.82Q307.14 7.13 307.11 7.32L307.11 7.32L299.79 7.32Q299.79 8.42 300.70 9.06Q301.62 9.70 303.06 9.70L303.06 9.70Q303.94 9.70 304.75 9.50Q305.55 9.31 306.10 9.12L306.10 9.12L306.51 11.64Q305.74 11.90 304.88 12.08Q304.02 12.26 302.94 12.26L302.94 12.26Q301.50 12.26 300.36 11.89Q299.22 11.52 298.41 10.79Q297.61 10.06 297.18 8.98Q296.74 7.90 296.74 6.46ZM299.79 5.28L304.30 5.28Q304.30 4.82 304.18 4.40Q304.06 3.98 303.80 3.65Q303.54 3.31 303.13 3.11Q302.72 2.90 302.12 2.90L302.12 2.90Q301.54 2.90 301.12 3.10Q300.70 3.29 300.43 3.62Q300.15 3.96 300.00 4.39Q299.84 4.82 299.79 5.28L299.79 5.28Z"/>
    </g>
</svg>