<?xml version="1.0" encoding="UTF-8"?><svg height="26" width="82.5" version="1.1" xmlns="http://www.w3.org/2000/svg"><!--Created by Josélio de S. C. Júnior - 2021 - https://github.com/joseliojunior --><rect height="24" width="80.5" rx="12" ry="12" x="1" y="1" fill="#00cafe" stroke="#005266" stroke-width="1" /><g transform="translate(0, 8)"><path fill="#005266" d="M22.98 10L21.01 10L21.01 0.10L27.07 0.10L27.07 1.73L22.98 1.73L22.98 4.13L26.56 4.13L26.56 5.76L22.98 5.76L22.98 10ZM35.34 2.66L34.99 4.48Q34.80 4.43 34.54 4.38Q34.27 4.34 34 4.30Q33.73 4.26 33.47 4.24Q33.22 4.22 33.04 4.22L33.04 4.22Q32.62 4.22 32.22 4.26Q31.82 4.30 31.41 4.42L31.41 4.42L31.41 10L29.42 10L29.42 2.98Q30.21 2.69 31.03 2.51Q31.86 2.34 32.96 2.34L32.96 2.34Q33.12 2.34 33.42 2.35Q33.71 2.37 34.05 2.41Q34.38 2.45 34.73 2.50Q35.07 2.56 35.34 2.66L35.34 2.66ZM36.50 6.30L36.50 6.30Q36.50 5.31 36.80 4.56Q37.10 3.81 37.60 3.30Q38.10 2.80 38.74 2.54Q39.38 2.29 40.05 2.29L40.05 2.29Q41.71 2.29 42.58 3.27Q43.44 4.26 43.44 6.14L43.44 6.14Q43.44 6.34 43.43 6.54Q43.42 6.75 43.41 6.88L43.41 6.88L38.53 6.88Q38.53 7.62 39.14 8.04Q39.74 8.46 40.70 8.46L40.70 8.46Q41.30 8.46 41.83 8.34Q42.37 8.21 42.74 8.08L42.74 8.08L43.01 9.76Q42.50 9.94 41.92 10.06Q41.34 10.18 40.62 10.18L40.62 10.18Q39.66 10.18 38.90 9.93Q38.14 9.68 37.61 9.19Q37.07 8.70 36.78 7.98Q36.50 7.26 36.50 6.30ZM38.53 5.52L41.54 5.52Q41.54 5.22 41.46 4.94Q41.38 4.66 41.20 4.43Q41.02 4.21 40.75 4.07Q40.48 3.94 40.08 3.94L40.08 3.94Q39.70 3.94 39.42 4.06Q39.14 4.19 38.95 4.42Q38.77 4.64 38.66 4.93Q38.56 5.22 38.53 5.52L38.53 5.52ZM46.53 6L46.53 6Q46.53 6.93 46.86 7.42Q47.20 7.90 47.92 7.90L47.92 7.90Q48.24 7.90 48.52 7.82Q48.80 7.74 49.02 7.62L49.02 7.62L49.02 4Q48.80 3.95 48.62 3.94Q48.45 3.92 48.26 3.92L48.26 3.92Q46.53 3.92 46.53 6ZM51.01 2.72L51.01 9.09Q51.01 10.93 50.12 11.81Q49.23 12.69 47.26 12.69L47.26 12.69Q46.56 12.69 45.91 12.54Q45.26 12.40 44.67 12.21L44.67 12.21L45.04 10.54Q45.50 10.72 46.02 10.87Q46.53 11.02 47.30 11.02L47.30 11.02Q47.81 11.02 48.14 10.90Q48.48 10.78 48.67 10.58Q48.86 10.37 48.94 10.09Q49.02 9.81 49.02 9.49L49.02 9.49L49.02 9.18Q48.61 9.34 48.26 9.42Q47.92 9.50 47.52 9.50L47.52 9.50Q46.05 9.50 45.29 8.58Q44.53 7.65 44.53 6L44.53 6Q44.53 4.14 45.55 3.23Q46.58 2.32 48.34 2.32L48.34 2.32Q49.57 2.32 51.01 2.72L51.01 2.72ZM52.50 6.30L52.50 6.30Q52.50 5.31 52.80 4.56Q53.10 3.81 53.60 3.30Q54.10 2.80 54.74 2.54Q55.38 2.29 56.05 2.29L56.05 2.29Q57.71 2.29 58.58 3.27Q59.44 4.26 59.44 6.14L59.44 6.14Q59.44 6.34 59.43 6.54Q59.42 6.75 59.41 6.88L59.41 6.88L54.53 6.88Q54.53 7.62 55.14 8.04Q55.74 8.46 56.70 8.46L56.70 8.46Q57.30 8.46 57.83 8.34Q58.37 8.21 58.74 8.08L58.74 8.08L59.01 9.76Q58.50 9.94 57.92 10.06Q57.34 10.18 56.62 10.18L56.62 10.18Q55.66 10.18 54.90 9.93Q54.14 9.68 53.61 9.19Q53.07 8.70 52.78 7.98Q52.50 7.26 52.50 6.30ZM54.53 5.52L57.54 5.52Q57.54 5.22 57.46 4.94Q57.38 4.66 57.20 4.43Q57.02 4.21 56.75 4.07Q56.48 3.94 56.08 3.94L56.08 3.94Q55.70 3.94 55.42 4.06Q55.14 4.19 54.95 4.42Q54.77 4.64 54.66 4.93Q54.56 5.22 54.53 5.52L54.53 5.52Z"/></g></svg>