<?xml version="1.0" encoding="UTF-8"?>
<svg height="322" width="102.5" version="1.1" xmlns="http://www.w3.org/2000/svg"><!--Created by Josélio de S. C. Júnior - 2021 - https://github.com/joseliojunior -->
    <rect
        height="32"
        width="100.5"
        rx="1"
        ry="1"
        x="1" y="1"
        fill="#00cafe"
        stroke="#005266"
        stroke-width="1" />
    <g transform="translate(0, 12)">
        <path fill="#005266" stroke="none" d="M24.46 12L21.51 12L21.51-2.86L30.61-2.86L30.61-0.41L24.46-0.41L24.46 3.19L29.84 3.19L29.84 5.64L24.46 5.64L24.46 12ZM43.02 0.98L42.49 3.72Q42.20 3.65 41.80 3.58Q41.41 3.50 41 3.44Q40.59 3.38 40.21 3.36Q39.82 3.34 39.56 3.34L39.56 3.34Q38.94 3.34 38.34 3.40Q37.74 3.46 37.11 3.62L37.11 3.62L37.11 12L34.14 12L34.14 1.46Q35.31 1.03 36.55 0.77Q37.78 0.50 39.44 0.50L39.44 0.50Q39.68 0.50 40.12 0.53Q40.57 0.55 41.07 0.61Q41.58 0.67 42.09 0.76Q42.61 0.84 43.02 0.98L43.02 0.98ZM44.74 6.46L44.74 6.46Q44.74 4.97 45.20 3.84Q45.66 2.71 46.40 1.96Q47.14 1.20 48.10 0.82Q49.06 0.43 50.07 0.43L50.07 0.43Q52.57 0.43 53.86 1.91Q55.16 3.38 55.16 6.22L55.16 6.22Q55.16 6.50 55.15 6.82Q55.14 7.13 55.11 7.32L55.11 7.32L47.79 7.32Q47.79 8.42 48.70 9.06Q49.62 9.70 51.06 9.70L51.06 9.70Q51.94 9.70 52.75 9.50Q53.55 9.31 54.10 9.12L54.10 9.12L54.51 11.64Q53.74 11.90 52.88 12.08Q52.02 12.26 50.94 12.26L50.94 12.26Q49.50 12.26 48.36 11.89Q47.22 11.52 46.41 10.79Q45.61 10.06 45.18 8.98Q44.74 7.90 44.74 6.46ZM47.79 5.28L52.30 5.28Q52.30 4.82 52.18 4.40Q52.06 3.98 51.80 3.65Q51.54 3.31 51.13 3.11Q50.72 2.90 50.12 2.90L50.12 2.90Q49.54 2.90 49.12 3.10Q48.70 3.29 48.43 3.62Q48.15 3.96 48.00 4.39Q47.84 4.82 47.79 5.28L47.79 5.28ZM59.79 6L59.79 6Q59.79 7.39 60.30 8.12Q60.80 8.86 61.88 8.86L61.88 8.86Q62.36 8.86 62.78 8.74Q63.20 8.62 63.54 8.42L63.54 8.42L63.54 3Q63.20 2.93 62.94 2.90Q62.67 2.88 62.38 2.88L62.38 2.88Q59.79 2.88 59.79 6ZM66.51 1.08L66.51 10.63Q66.51 13.39 65.18 14.71Q63.85 16.03 60.90 16.03L60.90 16.03Q59.84 16.03 58.87 15.82Q57.90 15.60 57.01 15.31L57.01 15.31L57.56 12.82Q58.26 13.08 59.02 13.31Q59.79 13.54 60.94 13.54L60.94 13.54Q61.71 13.54 62.22 13.36Q62.72 13.18 63.01 12.86Q63.30 12.55 63.42 12.13Q63.54 11.71 63.54 11.23L63.54 11.23L63.54 10.78Q62.91 11.02 62.40 11.14Q61.88 11.26 61.28 11.26L61.28 11.26Q59.07 11.26 57.93 9.86Q56.79 8.47 56.79 6L56.79 6Q56.79 3.22 58.33 1.85Q59.86 0.48 62.50 0.48L62.50 0.48Q64.35 0.48 66.51 1.08L66.51 1.08ZM68.74 6.46L68.74 6.46Q68.74 4.97 69.20 3.84Q69.66 2.71 70.40 1.96Q71.14 1.20 72.10 0.82Q73.06 0.43 74.07 0.43L74.07 0.43Q76.57 0.43 77.86 1.91Q79.16 3.38 79.16 6.22L79.16 6.22Q79.16 6.50 79.15 6.82Q79.14 7.13 79.11 7.32L79.11 7.32L71.79 7.32Q71.79 8.42 72.70 9.06Q73.62 9.70 75.06 9.70L75.06 9.70Q75.94 9.70 76.75 9.50Q77.55 9.31 78.10 9.12L78.10 9.12L78.51 11.64Q77.74 11.90 76.88 12.08Q76.02 12.26 74.94 12.26L74.94 12.26Q73.50 12.26 72.36 11.89Q71.22 11.52 70.41 10.79Q69.61 10.06 69.18 8.98Q68.74 7.90 68.74 6.46ZM71.79 5.28L76.30 5.28Q76.30 4.82 76.18 4.40Q76.06 3.98 75.80 3.65Q75.54 3.31 75.13 3.11Q74.72 2.90 74.12 2.90L74.12 2.90Q73.54 2.90 73.12 3.10Q72.70 3.29 72.43 3.62Q72.15 3.96 72.00 4.39Q71.84 4.82 71.79 5.28L71.79 5.28Z"/>
    </g>
</svg>