<?xml version="1.0" encoding="UTF-8"?>
<svg height="34" width="92.5" version="1.1" xmlns="http://www.w3.org/2000/svg">
    <rect
        height="32"
        width="90.5"
        rx="1"
        ry="1"
        x="1"
        y="1"
        fill="#00cafe"
        stroke="#005266"
        stroke-width="1"
         />
    <g transform="translate(0, 14)">
        <path fill="#005266" d="M15.21 11L11.76 11L11.76-6.33L22.38-6.33L22.38-3.48L15.21-3.48L15.21 0.72L21.48 0.72L21.48 3.58L15.21 3.58L15.21 11ZM36.85-1.85L36.24 1.34Q35.90 1.26 35.44 1.17Q34.98 1.09 34.50 1.02Q34.02 0.95 33.58 0.92Q33.13 0.89 32.82 0.89L32.82 0.89Q32.09 0.89 31.39 0.96Q30.69 1.03 29.96 1.23L29.96 1.23L29.96 11L26.49 11L26.49-1.29Q27.86-1.80 29.31-2.10Q30.75-2.41 32.68-2.41L32.68-2.41Q32.96-2.41 33.48-2.38Q34.00-2.36 34.58-2.29Q35.17-2.22 35.77-2.12Q36.38-2.02 36.85-1.85L36.85-1.85ZM38.87 4.53L38.87 4.53Q38.87 2.80 39.40 1.48Q39.93 0.16 40.80-0.72Q41.67-1.60 42.79-2.05Q43.91-2.50 45.08-2.50L45.08-2.50Q48.00-2.50 49.51-0.77Q51.02 0.95 51.02 4.25L51.02 4.25Q51.02 4.59 51.01 4.95Q50.99 5.32 50.96 5.54L50.96 5.54L42.42 5.54Q42.42 6.83 43.49 7.57Q44.55 8.31 46.23 8.31L46.23 8.31Q47.27 8.31 48.21 8.09Q49.14 7.86 49.79 7.64L49.79 7.64L50.26 10.58Q49.37 10.89 48.36 11.10Q47.35 11.31 46.09 11.31L46.09 11.31Q44.41 11.31 43.08 10.87Q41.75 10.44 40.81 9.59Q39.88 8.73 39.37 7.47Q38.87 6.21 38.87 4.53ZM42.42 3.16L47.69 3.16Q47.69 2.63 47.55 2.14Q47.41 1.65 47.10 1.26Q46.79 0.86 46.32 0.63Q45.84 0.39 45.14 0.39L45.14 0.39Q44.47 0.39 43.98 0.61Q43.49 0.84 43.17 1.23Q42.84 1.62 42.66 2.12Q42.48 2.63 42.42 3.16L42.42 3.16ZM56.42 4L56.42 4Q56.42 5.62 57.01 6.48Q57.60 7.33 58.86 7.33L58.86 7.33Q59.42 7.33 59.91 7.19Q60.40 7.05 60.79 6.83L60.79 6.83L60.79 0.50Q60.40 0.42 60.09 0.39Q59.78 0.36 59.45 0.36L59.45 0.36Q56.42 0.36 56.42 4ZM64.26-1.74L64.26 9.40Q64.26 12.62 62.71 14.16Q61.16 15.70 57.71 15.70L57.71 15.70Q56.48 15.70 55.35 15.45Q54.21 15.20 53.18 14.86L53.18 14.86L53.82 11.95Q54.63 12.26 55.53 12.53Q56.42 12.79 57.77 12.79L57.77 12.79Q58.66 12.79 59.25 12.58Q59.84 12.37 60.18 12.01Q60.51 11.64 60.65 11.15Q60.79 10.66 60.79 10.10L60.79 10.10L60.79 9.57Q60.06 9.85 59.46 9.99Q58.86 10.13 58.16 10.13L58.16 10.13Q55.58 10.13 54.25 8.51Q52.92 6.88 52.92 4L52.92 4Q52.92 0.75 54.72-0.84Q56.51-2.44 59.59-2.44L59.59-2.44Q61.74-2.44 64.26-1.74L64.26-1.74ZM66.87 4.53L66.87 4.53Q66.87 2.80 67.40 1.48Q67.93 0.16 68.80-0.72Q69.67-1.60 70.79-2.05Q71.91-2.50 73.08-2.50L73.08-2.50Q76.00-2.50 77.51-0.77Q79.02 0.95 79.02 4.25L79.02 4.25Q79.02 4.59 79.01 4.95Q78.99 5.32 78.96 5.54L78.96 5.54L70.42 5.54Q70.42 6.83 71.49 7.57Q72.55 8.31 74.23 8.31L74.23 8.31Q75.27 8.31 76.21 8.09Q77.14 7.86 77.79 7.64L77.79 7.64L78.26 10.58Q77.37 10.89 76.36 11.10Q75.35 11.31 74.09 11.31L74.09 11.31Q72.41 11.31 71.08 10.87Q69.75 10.44 68.81 9.59Q67.88 8.73 67.37 7.47Q66.87 6.21 66.87 4.53ZM70.42 3.16L75.69 3.16Q75.69 2.63 75.55 2.14Q75.41 1.65 75.10 1.26Q74.79 0.86 74.32 0.63Q73.84 0.39 73.14 0.39L73.14 0.39Q72.47 0.39 71.98 0.61Q71.49 0.84 71.17 1.23Q70.84 1.62 70.66 2.12Q70.48 2.63 70.42 3.16L70.42 3.16Z"/>
    </g>
</svg>