<?xml version="1.0" encoding="UTF-8"?>
<svg height="34" width="78.4" version="1.1" xmlns="http://www.w3.org/2000/svg">
    <rect
        height="32"
        width="76.4"
        rx="14"
        ry="14"
        x="1"
        y="1"
        fill="#2980B9"
        stroke="#0d283b"
        stroke-width="1"
         />
    <g transform="translate(0, 14)">
        <path fill="#0d283b" d="M22.88 8.14L22.88 11L11.99 11L11.99-6.33L15.46-6.33L15.46 8.14L22.88 8.14ZM31.03 8.54L31.03 8.54Q31.59 8.54 32.12 8.52Q32.65 8.51 33.04 8.45L33.04 8.45L33.04 5.43Q32.71 5.37 32.23 5.33Q31.76 5.29 31.36 5.29L31.36 5.29Q30.83 5.29 30.33 5.36Q29.82 5.43 29.45 5.60Q29.07 5.76 28.84 6.07Q28.62 6.38 28.62 6.88L28.62 6.88Q28.62 7.78 29.29 8.16Q29.96 8.54 31.03 8.54ZM30.72-2.50L30.72-2.50Q32.34-2.50 33.42-2.12Q34.50-1.74 35.14-1.05Q35.79-0.37 36.07 0.63Q36.35 1.62 36.35 2.85L36.35 2.85L36.35 10.69Q35.59 10.86 34.11 11.08Q32.62 11.31 30.78 11.31L30.78 11.31Q29.52 11.31 28.49 11.08Q27.47 10.86 26.74 10.34Q26.02 9.82 25.62 9.00Q25.23 8.17 25.23 6.97L25.23 6.97Q25.23 5.82 25.68 5.04Q26.13 4.25 26.88 3.78Q27.64 3.30 28.62 3.09Q29.60 2.88 30.66 2.88L30.66 2.88Q32.01 2.88 33.04 3.10L33.04 3.10L33.04 2.68Q33.04 1.70 32.43 1.05Q31.81 0.39 30.30 0.39L30.30 0.39Q29.32 0.39 28.41 0.53Q27.50 0.67 26.94 0.86L26.94 0.86L26.46-1.91Q27.11-2.13 28.28-2.31Q29.46-2.50 30.72-2.50ZM50.85-1.85L50.24 1.34Q49.90 1.26 49.44 1.17Q48.98 1.09 48.50 1.02Q48.02 0.95 47.58 0.92Q47.13 0.89 46.82 0.89L46.82 0.89Q46.09 0.89 45.39 0.96Q44.69 1.03 43.96 1.23L43.96 1.23L43.96 11L40.49 11L40.49-1.29Q41.86-1.80 43.31-2.10Q44.75-2.41 46.68-2.41L46.68-2.41Q46.96-2.41 47.48-2.38Q48.00-2.36 48.58-2.29Q49.17-2.22 49.77-2.12Q50.38-2.02 50.85-1.85L50.85-1.85ZM57.24-8.43L57.24 3.05Q57.74 2.46 58.26 1.80Q58.78 1.14 59.27 0.44Q59.76-0.26 60.20-0.91Q60.65-1.57 60.99-2.16L60.99-2.16L65.13-2.16Q64.63-1.52 63.98-0.76Q63.34-0.00 62.65 0.78Q61.97 1.56 61.28 2.29Q60.60 3.02 60.04 3.64L60.04 3.64Q60.74 4.31 61.55 5.25Q62.36 6.18 63.14 7.19Q63.93 8.20 64.59 9.21Q65.24 10.22 65.64 11L65.64 11L61.69 11Q61.35 10.30 60.81 9.42Q60.26 8.54 59.64 7.68Q59.03 6.83 58.40 6.06Q57.77 5.29 57.24 4.78L57.24 4.78L57.24 11L53.76 11L53.76-7.84L57.24-8.43Z"/>
    </g>
</svg>