<?xml version="1.0" encoding="UTF-8"?>
<svg height="34" width="233.5" version="1.1" xmlns="http://www.w3.org/2000/svg">
    <rect
        height="32"
        width="231.5"
        rx="1"
        ry="1"
        x="1"
        y="1"
        fill="#A89663"
        stroke="#483f28"
        stroke-width="1"
         />
    <g transform="translate(0, 14)">
        <path fill="#483f28" d="M23.75 11L20.05 11L19.24 7.00L14.62 7.00L13.84 11L10.25 11Q11.48 5.88 12.74 1.66Q14.00-2.55 15.18-6.33L15.18-6.33L18.93-6.33Q20.16-2.52 21.38 1.75Q22.60 6.02 23.75 11L23.75 11ZM16.97-2.97L16.97-2.97Q16.69-1.99 16.45-1.11Q16.22-0.23 16.01 0.63Q15.80 1.48 15.61 2.35Q15.43 3.22 15.26 4.14L15.26 4.14L18.65 4.14Q18.48 3.22 18.32 2.35Q18.15 1.48 17.94 0.63Q17.73-0.23 17.49-1.11Q17.25-1.99 16.97-2.97ZM36.63 7.67L37.08 10.44Q36.99 10.50 36.70 10.64Q36.40 10.78 35.93 10.93Q35.45 11.08 34.77 11.20Q34.08 11.31 33.21 11.31L33.21 11.31Q30.83 11.31 29.74 9.89Q28.65 8.48 28.65 5.76L28.65 5.76L28.65-5.41L25.01-5.41L25.01-8.26L32.09-8.26L32.09 6.02Q32.09 7.36 32.62 7.84Q33.16 8.31 33.97 8.31L33.97 8.31Q35.00 8.31 35.70 8.03Q36.40 7.75 36.63 7.67L36.63 7.67ZM42.00 6.10L42.00 0.70L39.01 0.70L39.01-2.16L42.00-2.16L42.00-5.46L45.45-6.02L45.45-2.16L50.96-2.16L50.96 0.70L45.45 0.70L45.45 6.02Q45.45 6.74 45.59 7.19Q45.73 7.64 45.98 7.89Q46.23 8.14 46.60 8.23Q46.96 8.31 47.41 8.31L47.41 8.31Q47.88 8.31 48.29 8.28Q48.70 8.26 49.07 8.19Q49.45 8.12 49.86 7.98Q50.26 7.84 50.74 7.61L50.74 7.61L51.22 10.58Q50.26 10.97 49.16 11.14Q48.05 11.31 47.02 11.31L47.02 11.31Q45.81 11.31 44.89 11.11Q43.96 10.92 43.32 10.36Q42.68 9.80 42.34 8.77Q42.00 7.75 42.00 6.10L42.00 6.10ZM59.95-5.94L59.95-5.94Q59.95-4.93 59.31-4.34Q58.66-3.76 57.77-3.76L57.77-3.76Q56.87-3.76 56.24-4.34Q55.61-4.93 55.61-5.94L55.61-5.94Q55.61-6.98 56.24-7.56Q56.87-8.15 57.77-8.15L57.77-8.15Q58.66-8.15 59.31-7.56Q59.95-6.98 59.95-5.94ZM64.63 7.67L65.08 10.44Q64.01 10.94 63.07 11.13Q62.14 11.31 61.35 11.31L61.35 11.31Q60.01 11.31 59.10 10.92Q58.19 10.52 57.64 9.78Q57.10 9.04 56.87 7.98Q56.65 6.91 56.65 5.54L56.65 5.54L56.65 0.70L53.01 0.70L53.01-2.16L60.09-2.16L60.09 5.99Q60.09 7.16 60.53 7.74Q60.96 8.31 61.97 8.31L61.97 8.31Q62.44 8.31 63.12 8.19Q63.79 8.06 64.63 7.67L64.63 7.67ZM78.26-2.16L78.26 10.55Q77.31 10.80 75.95 11.06Q74.60 11.31 73 11.31L73 11.31Q71.38 11.31 70.34 10.86Q69.30 10.41 68.70 9.59Q68.10 8.76 67.88 7.64Q67.65 6.52 67.65 5.18L67.65 5.18L67.65-2.16L71.10-2.16L71.10 4.73Q71.10 6.55 71.53 7.43Q71.96 8.31 73.22 8.31L73.22 8.31Q74.01 8.31 74.79 8.17L74.79 8.17L74.79-2.16L78.26-2.16ZM89.60-2.30L89.60-2.30Q90.70-2.30 91.40-1.96Q92.10-1.63 92.50-0.96Q92.91-0.28 93.05 0.74Q93.19 1.76 93.19 3.13L93.19 3.13L93.19 11L90.39 11L90.39 2.96Q90.39 2.18 90.29 1.70Q90.19 1.23 90.04 0.98Q89.88 0.72 89.67 0.64Q89.46 0.56 89.24 0.56L89.24 0.56Q88.99 0.56 88.71 0.60Q88.43 0.64 88.20 0.75L88.20 0.75Q88.29 1.28 88.34 1.93Q88.40 2.57 88.40 3.36L88.40 3.36L88.40 5.99L85.60 5.99L85.60 2.96Q85.60 1.62 85.33 1.09Q85.07 0.56 84.48 0.56L84.48 0.56Q84.31 0.56 84.07 0.58Q83.84 0.61 83.61 0.67L83.61 0.67L83.61 11L80.81 11L80.81-1.66Q81.90-1.96 82.97-2.13Q84.03-2.30 84.84-2.30L84.84-2.30Q85.57-2.30 86.15-2.12Q86.72-1.94 87.14-1.52L87.14-1.52Q87.62-1.82 88.26-2.06Q88.90-2.30 89.60-2.30ZM112.96-3.45L112.96 8.20Q113.10 8.23 113.26 8.23Q113.43 8.23 113.57 8.23L113.57 8.23Q114.75 8.23 115.55 7.78Q116.34 7.33 116.83 6.55Q117.32 5.76 117.53 4.69Q117.74 3.61 117.74 2.32L117.74 2.32Q117.74 1.20 117.58 0.14Q117.41-0.93 116.99-1.74Q116.57-2.55 115.84-3.04Q115.11-3.53 113.96-3.53L113.96-3.53Q113.74-3.53 113.46-3.52Q113.18-3.50 112.96-3.45L112.96-3.45ZM121.24 2.32L121.24 2.32Q121.24 4.73 120.64 6.42Q120.04 8.12 118.98 9.18Q117.91 10.24 116.44 10.73Q114.97 11.22 113.21 11.22L113.21 11.22Q112.28 11.22 111.40 11.13Q110.52 11.03 109.51 10.80L109.51 10.80L109.51-6.11Q110.69-6.36 111.72-6.44Q112.76-6.53 113.66-6.53L113.66-6.53Q115.36-6.53 116.78-6.02Q118.19-5.52 119.17-4.44Q120.15-3.36 120.70-1.70Q121.24-0.03 121.24 2.32ZM122.87 4.53L122.87 4.53Q122.87 2.80 123.40 1.48Q123.93 0.16 124.80-0.72Q125.67-1.60 126.79-2.05Q127.91-2.50 129.08-2.50L129.08-2.50Q132.00-2.50 133.51-0.77Q135.02 0.95 135.02 4.25L135.02 4.25Q135.02 4.59 135.01 4.95Q134.99 5.32 134.96 5.54L134.96 5.54L126.42 5.54Q126.42 6.83 127.49 7.57Q128.55 8.31 130.23 8.31L130.23 8.31Q131.27 8.31 132.21 8.09Q133.14 7.86 133.79 7.64L133.79 7.64L134.26 10.58Q133.37 10.89 132.36 11.10Q131.35 11.31 130.09 11.31L130.09 11.31Q128.41 11.31 127.08 10.87Q125.75 10.44 124.81 9.59Q123.88 8.73 123.37 7.47Q122.87 6.21 122.87 4.53ZM126.42 3.16L131.69 3.16Q131.69 2.63 131.55 2.14Q131.41 1.65 131.10 1.26Q130.79 0.86 130.32 0.63Q129.84 0.39 129.14 0.39L129.14 0.39Q128.47 0.39 127.98 0.61Q127.49 0.84 127.17 1.23Q126.84 1.62 126.66 2.12Q126.48 2.63 126.42 3.16L126.42 3.16ZM142.38 8.40L142.38 8.40Q143.64 8.40 144.32 8.21Q144.99 8.03 144.99 7.47L144.99 7.47Q144.99 7.11 144.78 6.86Q144.57 6.60 144.19 6.42Q143.81 6.24 143.32 6.07Q142.83 5.90 142.30 5.74L142.30 5.74Q141.54 5.51 140.76 5.22Q139.98 4.92 139.33 4.48Q138.69 4.03 138.27 3.34Q137.85 2.66 137.85 1.62L137.85 1.62Q137.85 0.78 138.17 0.04Q138.49-0.70 139.18-1.28Q139.86-1.85 140.93-2.17Q141.99-2.50 143.48-2.50L143.48-2.50Q144.76-2.50 145.87-2.30Q146.98-2.10 147.79-1.74L147.79-1.74L147.26 1.17Q146.78 1.03 145.77 0.71Q144.76 0.39 143.50 0.39L143.50 0.39Q142.19 0.39 141.73 0.71Q141.26 1.03 141.26 1.40L141.26 1.40Q141.26 1.70 141.47 1.94Q141.68 2.18 142.03 2.38Q142.38 2.57 142.85 2.75Q143.31 2.94 143.84 3.10L143.84 3.10Q144.60 3.36 145.41 3.66Q146.22 3.97 146.88 4.43Q147.54 4.90 147.96 5.61Q148.38 6.32 148.38 7.36L148.38 7.36Q148.38 8.17 148.07 8.90Q147.76 9.63 147.05 10.16Q146.33 10.69 145.18 11Q144.04 11.31 142.36 11.31L142.36 11.31Q140.65 11.31 139.44 10.92Q138.24 10.52 137.51 10.22L137.51 10.22L138.04 7.33Q139.02 7.72 140.13 8.06Q141.24 8.40 142.38 8.40ZM157.95-5.94L157.95-5.94Q157.95-4.93 157.31-4.34Q156.66-3.76 155.77-3.76L155.77-3.76Q154.87-3.76 154.24-4.34Q153.61-4.93 153.61-5.94L153.61-5.94Q153.61-6.98 154.24-7.56Q154.87-8.15 155.77-8.15L155.77-8.15Q156.66-8.15 157.31-7.56Q157.95-6.98 157.95-5.94ZM162.63 7.67L163.08 10.44Q162.01 10.94 161.07 11.13Q160.14 11.31 159.35 11.31L159.35 11.31Q158.01 11.31 157.10 10.92Q156.19 10.52 155.64 9.78Q155.10 9.04 154.87 7.98Q154.65 6.91 154.65 5.54L154.65 5.54L154.65 0.70L151.01 0.70L151.01-2.16L158.09-2.16L158.09 5.99Q158.09 7.16 158.53 7.74Q158.96 8.31 159.97 8.31L159.97 8.31Q160.44 8.31 161.12 8.19Q161.79 8.06 162.63 7.67L162.63 7.67ZM168.42 4L168.42 4Q168.42 5.62 169.01 6.48Q169.60 7.33 170.86 7.33L170.86 7.33Q171.42 7.33 171.91 7.19Q172.40 7.05 172.79 6.83L172.79 6.83L172.79 0.50Q172.40 0.42 172.09 0.39Q171.78 0.36 171.45 0.36L171.45 0.36Q168.42 0.36 168.42 4ZM176.26-1.74L176.26 9.40Q176.26 12.62 174.71 14.16Q173.16 15.70 169.71 15.70L169.71 15.70Q168.48 15.70 167.35 15.45Q166.21 15.20 165.18 14.86L165.18 14.86L165.82 11.95Q166.63 12.26 167.53 12.53Q168.42 12.79 169.77 12.79L169.77 12.79Q170.66 12.79 171.25 12.58Q171.84 12.37 172.18 12.01Q172.51 11.64 172.65 11.15Q172.79 10.66 172.79 10.10L172.79 10.10L172.79 9.57Q172.06 9.85 171.46 9.99Q170.86 10.13 170.16 10.13L170.16 10.13Q167.58 10.13 166.25 8.51Q164.92 6.88 164.92 4L164.92 4Q164.92 0.75 166.72-0.84Q168.51-2.44 171.59-2.44L171.59-2.44Q173.74-2.44 176.26-1.74L176.26-1.74ZM179.76 11L179.76-1.74Q180.69-1.99 182.05-2.22Q183.40-2.44 185-2.44L185-2.44Q186.57-2.44 187.60-2.01Q188.64-1.57 189.24-0.77Q189.84 0.02 190.10 1.13Q190.35 2.24 190.35 3.58L190.35 3.58L190.35 11L186.90 11L186.90 4.03Q186.90 2.18 186.48 1.37Q186.06 0.56 184.78 0.56L184.78 0.56Q184.38 0.56 184.01 0.58Q183.63 0.61 183.21 0.67L183.21 0.67L183.21 11L179.76 11ZM192.87 4.53L192.87 4.53Q192.87 2.80 193.40 1.48Q193.93 0.16 194.80-0.72Q195.67-1.60 196.79-2.05Q197.91-2.50 199.08-2.50L199.08-2.50Q202.00-2.50 203.51-0.77Q205.02 0.95 205.02 4.25L205.02 4.25Q205.02 4.59 205.01 4.95Q204.99 5.32 204.96 5.54L204.96 5.54L196.42 5.54Q196.42 6.83 197.49 7.57Q198.55 8.31 200.23 8.31L200.23 8.31Q201.27 8.31 202.21 8.09Q203.14 7.86 203.79 7.64L203.79 7.64L204.26 10.58Q203.37 10.89 202.36 11.10Q201.35 11.31 200.09 11.31L200.09 11.31Q198.41 11.31 197.08 10.87Q195.75 10.44 194.81 9.59Q193.88 8.73 193.37 7.47Q192.87 6.21 192.87 4.53ZM196.42 3.16L201.69 3.16Q201.69 2.63 201.55 2.14Q201.41 1.65 201.10 1.26Q200.79 0.86 200.32 0.63Q199.84 0.39 199.14 0.39L199.14 0.39Q198.47 0.39 197.98 0.61Q197.49 0.84 197.17 1.23Q196.84 1.62 196.66 2.12Q196.48 2.63 196.42 3.16L196.42 3.16ZM218.85-1.85L218.24 1.34Q217.90 1.26 217.44 1.17Q216.98 1.09 216.50 1.02Q216.02 0.95 215.58 0.92Q215.13 0.89 214.82 0.89L214.82 0.89Q214.09 0.89 213.39 0.96Q212.69 1.03 211.96 1.23L211.96 1.23L211.96 11L208.49 11L208.49-1.29Q209.86-1.80 211.31-2.10Q212.75-2.41 214.68-2.41L214.68-2.41Q214.96-2.41 215.48-2.38Q216.00-2.36 216.58-2.29Q217.17-2.22 217.77-2.12Q218.38-2.02 218.85-1.85L218.85-1.85Z"/>
    </g>
</svg>