<?xml version="1.0" encoding="UTF-8"?>
<svg height="34" width="223.5" version="1.1" xmlns="http://www.w3.org/2000/svg"><!--Created by Josélio de S. C. Júnior - 2021 - https://github.com/joseliojunior -->
    <rect
        height="32"
        width="221.5"
        rx="1"
        ry="1"
        x="1" y="1"
        fill="#A89663"
        stroke="#483f28"
        stroke-width="1" />
    <g transform="translate(0, 12)">
        <path fill="#483f28" d="M31.78 12L28.62 12L27.92 8.57L23.96 8.57L23.29 12L20.22 12Q21.27 7.61 22.35 4.00Q23.43 0.38 24.44-2.86L24.44-2.86L27.66-2.86Q28.71 0.41 29.76 4.07Q30.80 7.73 31.78 12L31.78 12ZM25.98 0.02L25.98 0.02Q25.74 0.86 25.53 1.62Q25.33 2.38 25.15 3.11Q24.97 3.84 24.81 4.58Q24.66 5.33 24.51 6.12L24.51 6.12L27.42 6.12Q27.27 5.33 27.13 4.58Q26.98 3.84 26.80 3.11Q26.62 2.38 26.42 1.62Q26.22 0.86 25.98 0.02ZM42.82 9.14L43.21 11.52Q43.14 11.57 42.88 11.69Q42.63 11.81 42.22 11.94Q41.82 12.07 41.23 12.17Q40.64 12.26 39.90 12.26L39.90 12.26Q37.86 12.26 36.92 11.05Q35.98 9.84 35.98 7.51L35.98 7.51L35.98-2.06L32.86-2.06L32.86-4.51L38.94-4.51L38.94 7.73Q38.94 8.88 39.39 9.29Q39.85 9.70 40.54 9.70L40.54 9.70Q41.43 9.70 42.03 9.46Q42.63 9.22 42.82 9.14L42.82 9.14ZM47.43 7.80L47.43 3.17L44.86 3.17L44.86 0.72L47.43 0.72L47.43-2.11L50.38-2.59L50.38 0.72L55.11 0.72L55.11 3.17L50.38 3.17L50.38 7.73Q50.38 8.35 50.50 8.74Q50.62 9.12 50.84 9.34Q51.06 9.55 51.37 9.62Q51.68 9.70 52.06 9.70L52.06 9.70Q52.47 9.70 52.82 9.67Q53.17 9.65 53.49 9.59Q53.82 9.53 54.16 9.41Q54.51 9.29 54.92 9.10L54.92 9.10L55.33 11.64Q54.51 11.98 53.56 12.12Q52.62 12.26 51.73 12.26L51.73 12.26Q50.70 12.26 49.90 12.10Q49.11 11.93 48.56 11.45Q48.01 10.97 47.72 10.09Q47.43 9.22 47.43 7.80L47.43 7.80ZM62.82-2.52L62.82-2.52Q62.82-1.66 62.26-1.15Q61.71-0.65 60.94-0.65L60.94-0.65Q60.18-0.65 59.64-1.15Q59.10-1.66 59.10-2.52L59.10-2.52Q59.10-3.41 59.64-3.91Q60.18-4.42 60.94-4.42L60.94-4.42Q61.71-4.42 62.26-3.91Q62.82-3.41 62.82-2.52ZM66.82 9.14L67.21 11.52Q66.30 11.95 65.49 12.11Q64.69 12.26 64.02 12.26L64.02 12.26Q62.86 12.26 62.08 11.93Q61.30 11.59 60.84 10.96Q60.37 10.32 60.18 9.41Q59.98 8.50 59.98 7.32L59.98 7.32L59.98 3.17L56.86 3.17L56.86 0.72L62.94 0.72L62.94 7.70Q62.94 8.71 63.31 9.20Q63.68 9.70 64.54 9.70L64.54 9.70Q64.95 9.70 65.53 9.59Q66.10 9.48 66.82 9.14L66.82 9.14ZM78.51 0.72L78.51 11.62Q77.70 11.83 76.53 12.05Q75.37 12.26 74 12.26L74 12.26Q72.61 12.26 71.72 11.88Q70.83 11.50 70.32 10.79Q69.80 10.08 69.61 9.12Q69.42 8.16 69.42 7.01L69.42 7.01L69.42 0.72L72.37 0.72L72.37 6.62Q72.37 8.18 72.74 8.94Q73.11 9.70 74.19 9.70L74.19 9.70Q74.86 9.70 75.54 9.58L75.54 9.58L75.54 0.72L78.51 0.72ZM88.23 0.60L88.23 0.60Q89.17 0.60 89.77 0.89Q90.37 1.18 90.72 1.75Q91.06 2.33 91.18 3.20Q91.30 4.08 91.30 5.26L91.30 5.26L91.30 12L88.90 12L88.90 5.11Q88.90 4.44 88.82 4.03Q88.74 3.62 88.60 3.41Q88.47 3.19 88.29 3.12Q88.11 3.05 87.92 3.05L87.92 3.05Q87.70 3.05 87.46 3.08Q87.22 3.12 87.03 3.22L87.03 3.22Q87.10 3.67 87.15 4.22Q87.20 4.78 87.20 5.45L87.20 5.45L87.20 7.70L84.80 7.70L84.80 5.11Q84.80 3.96 84.57 3.50Q84.34 3.05 83.84 3.05L83.84 3.05Q83.70 3.05 83.49 3.07Q83.29 3.10 83.10 3.14L83.10 3.14L83.10 12L80.70 12L80.70 1.15Q81.63 0.89 82.54 0.74Q83.46 0.60 84.15 0.60L84.15 0.60Q84.78 0.60 85.27 0.76Q85.76 0.91 86.12 1.27L86.12 1.27Q86.53 1.01 87.08 0.80Q87.63 0.60 88.23 0.60ZM108.25-0.38L108.25 9.60Q108.37 9.62 108.51 9.62Q108.66 9.62 108.78 9.62L108.78 9.62Q109.78 9.62 110.47 9.24Q111.15 8.86 111.57 8.18Q111.99 7.51 112.17 6.59Q112.35 5.66 112.35 4.56L112.35 4.56Q112.35 3.60 112.21 2.69Q112.06 1.78 111.70 1.08Q111.34 0.38 110.72-0.04Q110.10-0.46 109.11-0.46L109.11-0.46Q108.92-0.46 108.68-0.44Q108.44-0.43 108.25-0.38L108.25-0.38ZM115.35 4.56L115.35 4.56Q115.35 6.62 114.84 8.08Q114.32 9.53 113.41 10.44Q112.50 11.35 111.24 11.77Q109.98 12.19 108.46 12.19L108.46 12.19Q107.67 12.19 106.92 12.11Q106.16 12.02 105.30 11.83L105.30 11.83L105.30-2.66Q106.30-2.88 107.19-2.95Q108.08-3.02 108.85-3.02L108.85-3.02Q110.31-3.02 111.52-2.59Q112.74-2.16 113.58-1.24Q114.42-0.31 114.88 1.12Q115.35 2.54 115.35 4.56ZM116.74 6.46L116.74 6.46Q116.74 4.97 117.20 3.84Q117.66 2.71 118.40 1.96Q119.14 1.20 120.10 0.82Q121.06 0.43 122.07 0.43L122.07 0.43Q124.57 0.43 125.86 1.91Q127.16 3.38 127.16 6.22L127.16 6.22Q127.16 6.50 127.15 6.82Q127.14 7.13 127.11 7.32L127.11 7.32L119.79 7.32Q119.79 8.42 120.70 9.06Q121.62 9.70 123.06 9.70L123.06 9.70Q123.94 9.70 124.75 9.50Q125.55 9.31 126.10 9.12L126.10 9.12L126.51 11.64Q125.74 11.90 124.88 12.08Q124.02 12.26 122.94 12.26L122.94 12.26Q121.50 12.26 120.36 11.89Q119.22 11.52 118.41 10.79Q117.61 10.06 117.18 8.98Q116.74 7.90 116.74 6.46ZM119.79 5.28L124.30 5.28Q124.30 4.82 124.18 4.40Q124.06 3.98 123.80 3.65Q123.54 3.31 123.13 3.11Q122.72 2.90 122.12 2.90L122.12 2.90Q121.54 2.90 121.12 3.10Q120.70 3.29 120.43 3.62Q120.15 3.96 120.00 4.39Q119.84 4.82 119.79 5.28L119.79 5.28ZM133.47 9.77L133.47 9.77Q134.55 9.77 135.13 9.61Q135.70 9.46 135.70 8.98L135.70 8.98Q135.70 8.66 135.52 8.45Q135.34 8.23 135.02 8.08Q134.70 7.92 134.28 7.78Q133.86 7.63 133.40 7.49L133.40 7.49Q132.75 7.30 132.08 7.04Q131.41 6.79 130.86 6.41Q130.30 6.02 129.94 5.44Q129.58 4.85 129.58 3.96L129.58 3.96Q129.58 3.24 129.86 2.60Q130.14 1.97 130.72 1.48Q131.31 0.98 132.22 0.71Q133.14 0.43 134.41 0.43L134.41 0.43Q135.51 0.43 136.46 0.60Q137.41 0.77 138.10 1.08L138.10 1.08L137.65 3.58Q137.24 3.46 136.38 3.18Q135.51 2.90 134.43 2.90L134.43 2.90Q133.30 2.90 132.91 3.18Q132.51 3.46 132.51 3.77L132.51 3.77Q132.51 4.03 132.69 4.24Q132.87 4.44 133.17 4.61Q133.47 4.78 133.87 4.93Q134.26 5.09 134.72 5.23L134.72 5.23Q135.37 5.45 136.06 5.71Q136.76 5.98 137.32 6.37Q137.89 6.77 138.25 7.38Q138.61 7.99 138.61 8.88L138.61 8.88Q138.61 9.58 138.34 10.20Q138.08 10.82 137.47 11.28Q136.86 11.74 135.87 12Q134.89 12.26 133.45 12.26L133.45 12.26Q131.98 12.26 130.95 11.93Q129.92 11.59 129.30 11.33L129.30 11.33L129.75 8.86Q130.59 9.19 131.54 9.48Q132.49 9.77 133.47 9.77ZM146.82-2.52L146.82-2.52Q146.82-1.66 146.26-1.15Q145.71-0.65 144.94-0.65L144.94-0.65Q144.18-0.65 143.64-1.15Q143.10-1.66 143.10-2.52L143.10-2.52Q143.10-3.41 143.64-3.91Q144.18-4.42 144.94-4.42L144.94-4.42Q145.71-4.42 146.26-3.91Q146.82-3.41 146.82-2.52ZM150.82 9.14L151.21 11.52Q150.30 11.95 149.49 12.11Q148.69 12.26 148.02 12.26L148.02 12.26Q146.86 12.26 146.08 11.93Q145.30 11.59 144.84 10.96Q144.37 10.32 144.18 9.41Q143.98 8.50 143.98 7.32L143.98 7.32L143.98 3.17L140.86 3.17L140.86 0.72L146.94 0.72L146.94 7.70Q146.94 8.71 147.31 9.20Q147.68 9.70 148.54 9.70L148.54 9.70Q148.95 9.70 149.53 9.59Q150.10 9.48 150.82 9.14L150.82 9.14ZM155.79 6L155.79 6Q155.79 7.39 156.30 8.12Q156.80 8.86 157.88 8.86L157.88 8.86Q158.36 8.86 158.78 8.74Q159.20 8.62 159.54 8.42L159.54 8.42L159.54 3Q159.20 2.93 158.94 2.90Q158.67 2.88 158.38 2.88L158.38 2.88Q155.79 2.88 155.79 6ZM162.51 1.08L162.51 10.63Q162.51 13.39 161.18 14.71Q159.85 16.03 156.90 16.03L156.90 16.03Q155.84 16.03 154.87 15.82Q153.90 15.60 153.01 15.31L153.01 15.31L153.56 12.82Q154.26 13.08 155.02 13.31Q155.79 13.54 156.94 13.54L156.94 13.54Q157.71 13.54 158.22 13.36Q158.72 13.18 159.01 12.86Q159.30 12.55 159.42 12.13Q159.54 11.71 159.54 11.23L159.54 11.23L159.54 10.78Q158.91 11.02 158.40 11.14Q157.88 11.26 157.28 11.26L157.28 11.26Q155.07 11.26 153.93 9.86Q152.79 8.47 152.79 6L152.79 6Q152.79 3.22 154.33 1.85Q155.86 0.48 158.50 0.48L158.50 0.48Q160.35 0.48 162.51 1.08L162.51 1.08ZM165.51 12L165.51 1.08Q166.30 0.86 167.47 0.67Q168.63 0.48 170 0.48L170 0.48Q171.34 0.48 172.23 0.85Q173.12 1.22 173.64 1.91Q174.15 2.59 174.37 3.54Q174.58 4.49 174.58 5.64L174.58 5.64L174.58 12L171.63 12L171.63 6.02Q171.63 4.44 171.27 3.74Q170.91 3.05 169.81 3.05L169.81 3.05Q169.47 3.05 169.15 3.07Q168.82 3.10 168.46 3.14L168.46 3.14L168.46 12L165.51 12ZM176.74 6.46L176.74 6.46Q176.74 4.97 177.20 3.84Q177.66 2.71 178.40 1.96Q179.14 1.20 180.10 0.82Q181.06 0.43 182.07 0.43L182.07 0.43Q184.57 0.43 185.86 1.91Q187.16 3.38 187.16 6.22L187.16 6.22Q187.16 6.50 187.15 6.82Q187.14 7.13 187.11 7.32L187.11 7.32L179.79 7.32Q179.79 8.42 180.70 9.06Q181.62 9.70 183.06 9.70L183.06 9.70Q183.94 9.70 184.75 9.50Q185.55 9.31 186.10 9.12L186.10 9.12L186.51 11.64Q185.74 11.90 184.88 12.08Q184.02 12.26 182.94 12.26L182.94 12.26Q181.50 12.26 180.36 11.89Q179.22 11.52 178.41 10.79Q177.61 10.06 177.18 8.98Q176.74 7.90 176.74 6.46ZM179.79 5.28L184.30 5.28Q184.30 4.82 184.18 4.40Q184.06 3.98 183.80 3.65Q183.54 3.31 183.13 3.11Q182.72 2.90 182.12 2.90L182.12 2.90Q181.54 2.90 181.12 3.10Q180.70 3.29 180.43 3.62Q180.15 3.96 180.00 4.39Q179.84 4.82 179.79 5.28L179.79 5.28ZM199.02 0.98L198.49 3.72Q198.20 3.65 197.80 3.58Q197.41 3.50 197 3.44Q196.59 3.38 196.21 3.36Q195.82 3.34 195.56 3.34L195.56 3.34Q194.94 3.34 194.34 3.40Q193.74 3.46 193.11 3.62L193.11 3.62L193.11 12L190.14 12L190.14 1.46Q191.31 1.03 192.55 0.77Q193.78 0.50 195.44 0.50L195.44 0.50Q195.68 0.50 196.12 0.53Q196.57 0.55 197.07 0.61Q197.58 0.67 198.09 0.76Q198.61 0.84 199.02 0.98L199.02 0.98Z"/>
    </g>
</svg>