<?xml version="1.0" encoding="UTF-8"?>
<svg height="26" width="98.69999999999999" version="1.1" xmlns="http://www.w3.org/2000/svg"><!--Created by Josélio de S. C. Júnior - 2021 - https://github.com/joseliojunior -->
    <defs>
        <pattern id="pattern"
                x="3" y="3" width="6" height="6"
                patternUnits="userSpaceOnUse"
                patternTransform="rotate(45)" >
            <rect height="6" width="6"
                fill="#ffffff"/>
            <line x1="0" y1="0" x2="0" y2="6"
                stroke="#888888"
                stroke-width="2" />
        </pattern>
    </defs>
    <rect
        height="24"
        width="96.69999999999999"
        rx="12"
        ry="12"
        x="1" y="1"
        fill="url(#pattern)"
        stroke="#000000"
        stroke-width="1" />
    <g transform="translate(0, 8)">
        <path fill="#ffffff" stroke="#000000" d="M24.74 10.21L24.74 10.21Q22.64 10.21 21.54 8.86Q20.43 7.52 20.43 5.04L20.43 5.04Q20.43 3.81 20.77 2.85Q21.10 1.89 21.70 1.22Q22.30 0.56 23.13 0.22Q23.95-0.13 24.93-0.13L24.93-0.13Q25.46-0.13 25.88-0.04Q26.30 0.05 26.62 0.16Q26.94 0.27 27.16 0.40Q27.38 0.53 27.49 0.59L27.49 0.59L26.98 2.16Q26.61 1.92 26.09 1.75Q25.57 1.58 24.90 1.58L24.90 1.58Q24.43 1.58 23.99 1.75Q23.55 1.92 23.21 2.31Q22.86 2.70 22.65 3.36Q22.43 4.02 22.43 4.99L22.43 4.99Q22.43 6.69 23.02 7.59Q23.60 8.50 24.93 8.50L24.93 8.50Q25.70 8.50 26.20 8.32Q26.70 8.14 27.01 7.97L27.01 7.97L27.50 9.52Q27.09 9.78 26.38 9.99Q25.66 10.21 24.74 10.21ZM35.55 6.22L35.55 6.22Q35.55 7.12 35.30 7.85Q35.04 8.58 34.58 9.10Q34.11 9.63 33.46 9.92Q32.82 10.21 32.02 10.21L32.02 10.21Q31.22 10.21 30.57 9.92Q29.92 9.63 29.45 9.10Q28.98 8.58 28.72 7.85Q28.46 7.12 28.46 6.22L28.46 6.22Q28.46 5.34 28.73 4.62Q28.99 3.89 29.46 3.37Q29.94 2.85 30.59 2.57Q31.25 2.29 32.02 2.29L32.02 2.29Q32.80 2.29 33.45 2.57Q34.10 2.85 34.57 3.37Q35.04 3.89 35.30 4.62Q35.55 5.34 35.55 6.22ZM30.46 6.24L30.46 6.24Q30.46 7.25 30.82 7.87Q31.18 8.50 31.98 8.50L31.98 8.50Q32.75 8.50 33.14 7.87Q33.54 7.25 33.54 6.24L33.54 6.24Q33.54 5.23 33.18 4.62Q32.82 4 32.02 4L32.02 4Q31.25 4 30.86 4.62Q30.46 5.23 30.46 6.24ZM43.26 10L41.68 10Q41.01 8.35 40.22 6.71Q39.42 5.07 38.51 3.42L38.51 3.42L38.51 10L36.74 10L36.74 0.10L38.32 0.10Q38.77 0.80 39.22 1.62Q39.66 2.45 40.09 3.26Q40.51 4.08 40.87 4.85Q41.23 5.62 41.49 6.19L41.49 6.19L41.49 0.10L43.26 0.10L43.26 10ZM51.36 8.37L51.36 10L45.14 10L45.14 0.10L47.12 0.10L47.12 8.37L51.36 8.37ZM59.36 8.37L59.36 10L53.14 10L53.14 0.10L55.12 0.10L55.12 8.37L59.36 8.37ZM61.81 6.86L61.81 4.93L66.19 4.93L66.19 6.86L61.81 6.86ZM71.97 10.21L71.97 10.21Q71.01 10.21 70.36 9.94Q69.71 9.68 69.33 9.18Q68.94 8.69 68.78 7.98Q68.62 7.28 68.62 6.42L68.62 6.42L68.62 0.10L70.61 0.10L70.61 6.29Q70.61 6.91 70.67 7.34Q70.74 7.76 70.89 8.02Q71.04 8.27 71.31 8.38Q71.58 8.50 72 8.50L72 8.50Q72.42 8.50 72.69 8.38Q72.96 8.27 73.12 8.01Q73.28 7.74 73.34 7.32Q73.41 6.90 73.41 6.27L73.41 6.27L73.41 0.10L75.38 0.10L75.38 6.42Q75.38 7.28 75.22 7.98Q75.06 8.69 74.66 9.18Q74.26 9.68 73.60 9.94Q72.94 10.21 71.97 10.21Z"/>
    </g>
</svg>