<?xml version="1.0" encoding="UTF-8"?>
<svg height="34" width="126.7" version="1.1" xmlns="http://www.w3.org/2000/svg"><!--Created by Josélio de S. C. Júnior - 2021 - https://github.com/joseliojunior -->
    <defs>
        <pattern id="pattern"
                x="3" y="3" width="6" height="6"
                patternUnits="userSpaceOnUse"
                patternTransform="rotate(45)" >
            <rect height="6" width="6"
                fill="#ffffff"/>
            <line x1="0" y1="0" x2="0" y2="6"
                stroke="#888888"
                stroke-width="2" />
        </pattern>
    </defs>
    <rect
        height="32"
        width="124.7"
        rx="16"
        ry="16"
        x="1" y="1"
        fill="url(#pattern)" />
    <g transform="translate(0, 12)">
        <path fill="#000000" d="M27.10 12.31L27.10 12.31Q23.96 12.31 22.30 10.30Q20.65 8.28 20.65 4.56L20.65 4.56Q20.65 2.71 21.15 1.27Q21.66-0.17 22.56-1.16Q23.46-2.16 24.69-2.68Q25.93-3.19 27.39-3.19L27.39-3.19Q28.18-3.19 28.82-3.06Q29.46-2.93 29.94-2.76Q30.42-2.59 30.74-2.40Q31.06-2.21 31.23-2.11L31.23-2.11L30.46 0.24Q29.91-0.12 29.13-0.37Q28.35-0.62 27.34-0.62L27.34-0.62Q26.65-0.62 25.99-0.37Q25.33-0.12 24.81 0.47Q24.30 1.06 23.97 2.04Q23.65 3.02 23.65 4.49L23.65 4.49Q23.65 7.03 24.52 8.39Q25.40 9.74 27.39 9.74L27.39 9.74Q28.54 9.74 29.30 9.48Q30.06 9.22 30.51 8.95L30.51 8.95L31.26 11.28Q30.63 11.66 29.56 11.99Q28.50 12.31 27.10 12.31ZM43.33 6.34L43.33 6.34Q43.33 7.68 42.94 8.77Q42.56 9.86 41.86 10.66Q41.17 11.45 40.20 11.88Q39.22 12.31 38.02 12.31L38.02 12.31Q36.82 12.31 35.85 11.88Q34.88 11.45 34.17 10.66Q33.46 9.86 33.08 8.77Q32.70 7.68 32.70 6.34L32.70 6.34Q32.70 5.02 33.09 3.92Q33.49 2.83 34.20 2.05Q34.90 1.27 35.89 0.85Q36.87 0.43 38.02 0.43L38.02 0.43Q39.20 0.43 40.17 0.85Q41.14 1.27 41.85 2.05Q42.56 2.83 42.94 3.92Q43.33 5.02 43.33 6.34ZM35.70 6.36L35.70 6.36Q35.70 7.87 36.24 8.81Q36.78 9.74 37.98 9.74L37.98 9.74Q39.13 9.74 39.72 8.81Q40.30 7.87 40.30 6.36L40.30 6.36Q40.30 4.85 39.76 3.92Q39.22 3 38.02 3L38.02 3Q36.87 3 36.28 3.92Q35.70 4.85 35.70 6.36ZM54.90 12L52.52 12Q51.51 9.53 50.32 7.07Q49.14 4.61 47.77 2.14L47.77 2.14L47.77 12L45.10 12L45.10-2.86L47.48-2.86Q48.15-1.80 48.82-0.56Q49.50 0.67 50.13 1.90Q50.77 3.12 51.31 4.27Q51.85 5.42 52.23 6.29L52.23 6.29L52.23-2.86L54.90-2.86L54.90 12ZM67.04 9.55L67.04 12L57.70 12L57.70-2.86L60.68-2.86L60.68 9.55L67.04 9.55ZM79.04 9.55L79.04 12L69.70 12L69.70-2.86L72.68-2.86L72.68 9.55L79.04 9.55ZM82.71 7.30L82.71 4.39L89.29 4.39L89.29 7.30L82.71 7.30ZM97.95 12.31L97.95 12.31Q96.51 12.31 95.54 11.92Q94.57 11.52 93.99 10.78Q93.42 10.03 93.18 8.98Q92.94 7.92 92.94 6.62L92.94 6.62L92.94-2.86L95.91-2.86L95.91 6.43Q95.91 7.37 96.01 8.00Q96.10 8.64 96.33 9.02Q96.56 9.41 96.97 9.58Q97.38 9.74 98 9.74L98 9.74Q98.62 9.74 99.03 9.58Q99.44 9.41 99.68 9.01Q99.92 8.62 100.02 7.98Q100.11 7.34 100.11 6.41L100.11 6.41L100.11-2.86L103.06-2.86L103.06 6.62Q103.06 7.92 102.82 8.98Q102.58 10.03 101.98 10.78Q101.38 11.52 100.40 11.92Q99.42 12.31 97.95 12.31Z"/>
    </g>
</svg>