<?xml version="1.0" encoding="UTF-8"?>
<svg height="34" width="78.3" version="1.1" xmlns="http://www.w3.org/2000/svg">
    <rect
        height="32"
        width="76.3"
        rx="1"
        ry="1"
        x="1"
        y="1"
        fill="#9933cc"
        stroke="#3d1452"
        stroke-width="1"
         />
    <g transform="translate(0, 12)">
        <path fill="#3d1452" d="M25.95 12.31L25.95 12.31Q24.51 12.31 23.54 11.92Q22.57 11.52 21.99 10.78Q21.42 10.03 21.18 8.98Q20.94 7.92 20.94 6.62L20.94 6.62L20.94-2.86L23.91-2.86L23.91 6.43Q23.91 7.37 24.01 8.00Q24.10 8.64 24.33 9.02Q24.56 9.41 24.97 9.58Q25.38 9.74 26 9.74L26 9.74Q26.62 9.74 27.03 9.58Q27.44 9.41 27.68 9.01Q27.92 8.62 28.02 7.98Q28.11 7.34 28.11 6.41L28.11 6.41L28.11-2.86L31.06-2.86L31.06 6.62Q31.06 7.92 30.82 8.98Q30.58 10.03 29.98 10.78Q29.38 11.52 28.40 11.92Q27.42 12.31 25.95 12.31ZM33.51 12L33.51 1.08Q34.30 0.86 35.47 0.67Q36.63 0.48 38 0.48L38 0.48Q39.34 0.48 40.23 0.85Q41.12 1.22 41.64 1.91Q42.15 2.59 42.37 3.54Q42.58 4.49 42.58 5.64L42.58 5.64L42.58 12L39.63 12L39.63 6.02Q39.63 4.44 39.27 3.74Q38.91 3.05 37.81 3.05L37.81 3.05Q37.47 3.05 37.15 3.07Q36.82 3.10 36.46 3.14L36.46 3.14L36.46 12L33.51 12ZM55.33 6.34L55.33 6.34Q55.33 7.68 54.94 8.77Q54.56 9.86 53.86 10.66Q53.17 11.45 52.20 11.88Q51.22 12.31 50.02 12.31L50.02 12.31Q48.82 12.31 47.85 11.88Q46.88 11.45 46.17 10.66Q45.46 9.86 45.08 8.77Q44.70 7.68 44.70 6.34L44.70 6.34Q44.70 5.02 45.09 3.92Q45.49 2.83 46.20 2.05Q46.90 1.27 47.89 0.85Q48.87 0.43 50.02 0.43L50.02 0.43Q51.20 0.43 52.17 0.85Q53.14 1.27 53.85 2.05Q54.56 2.83 54.94 3.92Q55.33 5.02 55.33 6.34ZM47.70 6.36L47.70 6.36Q47.70 7.87 48.24 8.81Q48.78 9.74 49.98 9.74L49.98 9.74Q51.13 9.74 51.72 8.81Q52.30 7.87 52.30 6.36L52.30 6.36Q52.30 4.85 51.76 3.92Q51.22 3 50.02 3L50.02 3Q48.87 3 48.28 3.92Q47.70 4.85 47.70 6.36Z"/>
    </g>
</svg>