<?xml version="1.0" encoding="UTF-8"?>
<svg height="26" width="66.3" version="1.1" xmlns="http://www.w3.org/2000/svg"><!--Created by Josélio de S. C. Júnior - 2021 - https://github.com/joseliojunior -->
    <rect
        height="24"
        width="64.3"
        rx="1"
        ry="1"
        x="1" y="1"
        fill="#9933cc"
        stroke="#3d1452"
        stroke-width="1" />
    <g transform="translate(0, 8)">
        <path fill="#3d1452" stroke="none" d="M23.97 10.21L23.97 10.21Q23.01 10.21 22.36 9.94Q21.71 9.68 21.33 9.18Q20.94 8.69 20.78 7.98Q20.62 7.28 20.62 6.42L20.62 6.42L20.62 0.10L22.61 0.10L22.61 6.29Q22.61 6.91 22.67 7.34Q22.74 7.76 22.89 8.02Q23.04 8.27 23.31 8.38Q23.58 8.50 24 8.50L24 8.50Q24.42 8.50 24.69 8.38Q24.96 8.27 25.12 8.01Q25.28 7.74 25.34 7.32Q25.41 6.90 25.41 6.27L25.41 6.27L25.41 0.10L27.38 0.10L27.38 6.42Q27.38 7.28 27.22 7.98Q27.06 8.69 26.66 9.18Q26.26 9.68 25.60 9.94Q24.94 10.21 23.97 10.21ZM29.01 10L29.01 2.72Q29.54 2.58 30.31 2.45Q31.09 2.32 32 2.32L32 2.32Q32.90 2.32 33.49 2.57Q34.08 2.82 34.42 3.27Q34.77 3.73 34.91 4.36Q35.06 4.99 35.06 5.76L35.06 5.76L35.06 10L33.09 10L33.09 6.02Q33.09 4.96 32.85 4.50Q32.61 4.03 31.87 4.03L31.87 4.03Q31.65 4.03 31.43 4.05Q31.22 4.06 30.98 4.10L30.98 4.10L30.98 10L29.01 10ZM43.55 6.22L43.55 6.22Q43.55 7.12 43.30 7.85Q43.04 8.58 42.58 9.10Q42.11 9.63 41.46 9.92Q40.82 10.21 40.02 10.21L40.02 10.21Q39.22 10.21 38.57 9.92Q37.92 9.63 37.45 9.10Q36.98 8.58 36.72 7.85Q36.46 7.12 36.46 6.22L36.46 6.22Q36.46 5.34 36.73 4.62Q36.99 3.89 37.46 3.37Q37.94 2.85 38.59 2.57Q39.25 2.29 40.02 2.29L40.02 2.29Q40.80 2.29 41.45 2.57Q42.10 2.85 42.57 3.37Q43.04 3.89 43.30 4.62Q43.55 5.34 43.55 6.22ZM38.46 6.24L38.46 6.24Q38.46 7.25 38.82 7.87Q39.18 8.50 39.98 8.50L39.98 8.50Q40.75 8.50 41.14 7.87Q41.54 7.25 41.54 6.24L41.54 6.24Q41.54 5.23 41.18 4.62Q40.82 4 40.02 4L40.02 4Q39.25 4 38.86 4.62Q38.46 5.23 38.46 6.24Z"/>
    </g>
</svg>