<?xml version="1.0" encoding="UTF-8"?>
<svg height="26" width="139.2" version="1.1" xmlns="http://www.w3.org/2000/svg"><!--Created by Josélio de S. C. Júnior - 2021 - https://github.com/joseliojunior -->
    <rect
        height="24"
        width="137.2"
        rx="12"
        ry="12"
        x="1" y="1"
        fill="#99AAFF"
        stroke="#0022cc"
        stroke-width="1" />
    <g transform="translate(0, 8)">
        <path fill="#0022cc" d="M27.15 10L20.86 10L20.86 8.37L23.02 8.37L23.02 1.73L20.86 1.73L20.86 0.10L27.15 0.10L27.15 1.73L25.01 1.73L25.01 8.37L27.15 8.37L27.15 10ZM33.49 2.40L33.49 2.40Q34.11 2.40 34.51 2.59Q34.91 2.78 35.14 3.17Q35.38 3.55 35.46 4.14Q35.54 4.72 35.54 5.50L35.54 5.50L35.54 10L33.94 10L33.94 5.41Q33.94 4.96 33.88 4.69Q33.82 4.42 33.74 4.27Q33.65 4.13 33.53 4.08Q33.41 4.03 33.28 4.03L33.28 4.03Q33.14 4.03 32.98 4.06Q32.82 4.08 32.69 4.14L32.69 4.14Q32.74 4.45 32.77 4.82Q32.80 5.18 32.80 5.63L32.80 5.63L32.80 7.14L31.20 7.14L31.20 5.41Q31.20 4.64 31.05 4.34Q30.90 4.03 30.56 4.03L30.56 4.03Q30.46 4.03 30.33 4.05Q30.19 4.06 30.06 4.10L30.06 4.10L30.06 10L28.46 10L28.46 2.77Q29.09 2.59 29.70 2.50Q30.30 2.40 30.77 2.40L30.77 2.40Q31.18 2.40 31.51 2.50Q31.84 2.61 32.08 2.85L32.08 2.85Q32.35 2.67 32.72 2.54Q33.09 2.40 33.49 2.40ZM40.02 8.59L40.02 8.59Q40.34 8.59 40.64 8.58Q40.94 8.58 41.17 8.54L41.17 8.54L41.17 6.82Q40.98 6.78 40.70 6.76Q40.43 6.74 40.21 6.74L40.21 6.74Q39.90 6.74 39.62 6.78Q39.33 6.82 39.11 6.91Q38.90 7.01 38.77 7.18Q38.64 7.36 38.64 7.65L38.64 7.65Q38.64 8.16 39.02 8.38Q39.41 8.59 40.02 8.59ZM39.84 2.29L39.84 2.29Q40.77 2.29 41.38 2.50Q42 2.72 42.37 3.11Q42.74 3.50 42.90 4.07Q43.06 4.64 43.06 5.34L43.06 5.34L43.06 9.82Q42.62 9.92 41.78 10.05Q40.93 10.18 39.87 10.18L39.87 10.18Q39.15 10.18 38.57 10.05Q37.98 9.92 37.57 9.62Q37.15 9.33 36.93 8.86Q36.70 8.38 36.70 7.70L36.70 7.70Q36.70 7.04 36.96 6.59Q37.22 6.14 37.65 5.87Q38.08 5.60 38.64 5.48Q39.20 5.36 39.81 5.36L39.81 5.36Q40.58 5.36 41.17 5.49L41.17 5.49L41.17 5.25Q41.17 4.69 40.82 4.31Q40.46 3.94 39.60 3.94L39.60 3.94Q39.04 3.94 38.52 4.02Q38 4.10 37.68 4.21L37.68 4.21L37.41 2.62Q37.78 2.50 38.45 2.39Q39.12 2.29 39.84 2.29ZM46.53 6L46.53 6Q46.53 6.93 46.86 7.42Q47.20 7.90 47.92 7.90L47.92 7.90Q48.24 7.90 48.52 7.82Q48.80 7.74 49.02 7.62L49.02 7.62L49.02 4Q48.80 3.95 48.62 3.94Q48.45 3.92 48.26 3.92L48.26 3.92Q46.53 3.92 46.53 6ZM51.01 2.72L51.01 9.09Q51.01 10.93 50.12 11.81Q49.23 12.69 47.26 12.69L47.26 12.69Q46.56 12.69 45.91 12.54Q45.26 12.40 44.67 12.21L44.67 12.21L45.04 10.54Q45.50 10.72 46.02 10.87Q46.53 11.02 47.30 11.02L47.30 11.02Q47.81 11.02 48.14 10.90Q48.48 10.78 48.67 10.58Q48.86 10.37 48.94 10.09Q49.02 9.81 49.02 9.49L49.02 9.49L49.02 9.18Q48.61 9.34 48.26 9.42Q47.92 9.50 47.52 9.50L47.52 9.50Q46.05 9.50 45.29 8.58Q44.53 7.65 44.53 6L44.53 6Q44.53 4.14 45.55 3.23Q46.58 2.32 48.34 2.32L48.34 2.32Q49.57 2.32 51.01 2.72L51.01 2.72ZM52.50 6.30L52.50 6.30Q52.50 5.31 52.80 4.56Q53.10 3.81 53.60 3.30Q54.10 2.80 54.74 2.54Q55.38 2.29 56.05 2.29L56.05 2.29Q57.71 2.29 58.58 3.27Q59.44 4.26 59.44 6.14L59.44 6.14Q59.44 6.34 59.43 6.54Q59.42 6.75 59.41 6.88L59.41 6.88L54.53 6.88Q54.53 7.62 55.14 8.04Q55.74 8.46 56.70 8.46L56.70 8.46Q57.30 8.46 57.83 8.34Q58.37 8.21 58.74 8.08L58.74 8.08L59.01 9.76Q58.50 9.94 57.92 10.06Q57.34 10.18 56.62 10.18L56.62 10.18Q55.66 10.18 54.90 9.93Q54.14 9.68 53.61 9.19Q53.07 8.70 52.78 7.98Q52.50 7.26 52.50 6.30ZM54.53 5.52L57.54 5.52Q57.54 5.22 57.46 4.94Q57.38 4.66 57.20 4.43Q57.02 4.21 56.75 4.07Q56.48 3.94 56.08 3.94L56.08 3.94Q55.70 3.94 55.42 4.06Q55.14 4.19 54.95 4.42Q54.77 4.64 54.66 4.93Q54.56 5.22 54.53 5.52L54.53 5.52ZM67.01 0.10L67.01 6.69Q67.01 7.41 66.82 8.05Q66.64 8.69 66.22 9.17Q65.79 9.65 65.12 9.93Q64.45 10.21 63.49 10.21L63.49 10.21Q62.48 10.21 61.81 9.95Q61.14 9.70 60.67 9.33L60.67 9.33L61.42 7.76Q61.82 8.02 62.31 8.26Q62.80 8.50 63.31 8.50L63.31 8.50Q64.08 8.50 64.55 8.09Q65.02 7.68 65.02 6.58L65.02 6.58L65.02 1.73L61.71 1.73L61.71 0.10L67.01 0.10ZM76.94 0.10L78.58 0.10Q78.69 0.43 78.86 0.96Q79.02 1.49 79.22 2.10Q79.41 2.70 79.60 3.33Q79.79 3.95 79.97 4.48L79.97 4.48Q80.16 3.89 80.37 3.26Q80.58 2.62 80.77 2.04Q80.96 1.46 81.12 0.94Q81.28 0.43 81.41 0.10L81.41 0.10L83.04 0.10Q83.15 1.39 83.26 2.62Q83.36 3.86 83.43 5.06Q83.50 6.27 83.55 7.50Q83.60 8.72 83.63 10L83.63 10L81.82 10L81.92 2.30L80.70 6.50L79.26 6.50L78.10 2.30L78.18 10L76.37 10Q76.42 8.78 76.47 7.47Q76.53 6.16 76.59 4.86Q76.66 3.57 76.74 2.35Q76.83 1.14 76.94 0.10L76.94 0.10ZM88.02 8.59L88.02 8.59Q88.34 8.59 88.64 8.58Q88.94 8.58 89.17 8.54L89.17 8.54L89.17 6.82Q88.98 6.78 88.70 6.76Q88.43 6.74 88.21 6.74L88.21 6.74Q87.90 6.74 87.62 6.78Q87.33 6.82 87.11 6.91Q86.90 7.01 86.77 7.18Q86.64 7.36 86.64 7.65L86.64 7.65Q86.64 8.16 87.02 8.38Q87.41 8.59 88.02 8.59ZM87.84 2.29L87.84 2.29Q88.77 2.29 89.38 2.50Q90 2.72 90.37 3.11Q90.74 3.50 90.90 4.07Q91.06 4.64 91.06 5.34L91.06 5.34L91.06 9.82Q90.62 9.92 89.78 10.05Q88.93 10.18 87.87 10.18L87.87 10.18Q87.15 10.18 86.57 10.05Q85.98 9.92 85.57 9.62Q85.15 9.33 84.93 8.86Q84.70 8.38 84.70 7.70L84.70 7.70Q84.70 7.04 84.96 6.59Q85.22 6.14 85.65 5.87Q86.08 5.60 86.64 5.48Q87.20 5.36 87.81 5.36L87.81 5.36Q88.58 5.36 89.17 5.49L89.17 5.49L89.17 5.25Q89.17 4.69 88.82 4.31Q88.46 3.94 87.60 3.94L87.60 3.94Q87.04 3.94 86.52 4.02Q86 4.10 85.68 4.21L85.68 4.21L85.41 2.62Q85.78 2.50 86.45 2.39Q87.12 2.29 87.84 2.29ZM92.70 6.24L92.70 6.24Q92.70 5.42 92.96 4.70Q93.22 3.98 93.74 3.45Q94.27 2.91 95.08 2.60Q95.89 2.29 97.01 2.29L97.01 2.29Q97.68 2.29 98.22 2.38Q98.77 2.48 99.33 2.70L99.33 2.70L98.90 4.29Q98.58 4.18 98.18 4.09Q97.79 4 97.18 4L97.18 4Q96.48 4 96.01 4.17Q95.54 4.34 95.25 4.63Q94.96 4.93 94.83 5.34Q94.70 5.76 94.70 6.24L94.70 6.24Q94.70 7.28 95.29 7.87Q95.87 8.46 97.28 8.46L97.28 8.46Q97.74 8.46 98.25 8.40Q98.75 8.34 99.17 8.19L99.17 8.19L99.46 9.81Q99.04 9.97 98.45 10.07Q97.86 10.18 97.06 10.18L97.06 10.18Q95.90 10.18 95.08 9.87Q94.26 9.57 93.73 9.04Q93.20 8.51 92.95 7.79Q92.70 7.07 92.70 6.24ZM107.34 2.66L106.99 4.48Q106.80 4.43 106.54 4.38Q106.27 4.34 106 4.30Q105.73 4.26 105.47 4.24Q105.22 4.22 105.04 4.22L105.04 4.22Q104.62 4.22 104.22 4.26Q103.82 4.30 103.41 4.42L103.41 4.42L103.41 10L101.42 10L101.42 2.98Q102.21 2.69 103.03 2.51Q103.86 2.34 104.96 2.34L104.96 2.34Q105.12 2.34 105.42 2.35Q105.71 2.37 106.05 2.41Q106.38 2.45 106.73 2.50Q107.07 2.56 107.34 2.66L107.34 2.66ZM115.55 6.22L115.55 6.22Q115.55 7.12 115.30 7.85Q115.04 8.58 114.58 9.10Q114.11 9.63 113.46 9.92Q112.82 10.21 112.02 10.21L112.02 10.21Q111.22 10.21 110.57 9.92Q109.92 9.63 109.45 9.10Q108.98 8.58 108.72 7.85Q108.46 7.12 108.46 6.22L108.46 6.22Q108.46 5.34 108.73 4.62Q108.99 3.89 109.46 3.37Q109.94 2.85 110.59 2.57Q111.25 2.29 112.02 2.29L112.02 2.29Q112.80 2.29 113.45 2.57Q114.10 2.85 114.57 3.37Q115.04 3.89 115.30 4.62Q115.55 5.34 115.55 6.22ZM110.46 6.24L110.46 6.24Q110.46 7.25 110.82 7.87Q111.18 8.50 111.98 8.50L111.98 8.50Q112.75 8.50 113.14 7.87Q113.54 7.25 113.54 6.24L113.54 6.24Q113.54 5.23 113.18 4.62Q112.82 4 112.02 4L112.02 4Q111.25 4 110.86 4.62Q110.46 5.23 110.46 6.24Z"/>
    </g>
</svg>