<?xml version="1.0" encoding="UTF-8"?>
<svg height="34" width="187.2" version="1.1" xmlns="http://www.w3.org/2000/svg">
    <rect
        height="32"
        width="185.2"
        rx="1"
        ry="1"
        x="1"
        y="1"
        fill="#99AAFF"
        stroke="#0022cc"
        stroke-width="1"
         />
    <g transform="translate(0, 12)">
        <path fill="#0022cc" d="M30.73 12L21.30 12L21.30 9.55L24.54 9.55L24.54-0.41L21.30-0.41L21.30-2.86L30.73-2.86L30.73-0.41L27.51-0.41L27.51 9.55L30.73 9.55L30.73 12ZM40.23 0.60L40.23 0.60Q41.17 0.60 41.77 0.89Q42.37 1.18 42.72 1.75Q43.06 2.33 43.18 3.20Q43.30 4.08 43.30 5.26L43.30 5.26L43.30 12L40.90 12L40.90 5.11Q40.90 4.44 40.82 4.03Q40.74 3.62 40.60 3.41Q40.47 3.19 40.29 3.12Q40.11 3.05 39.92 3.05L39.92 3.05Q39.70 3.05 39.46 3.08Q39.22 3.12 39.03 3.22L39.03 3.22Q39.10 3.67 39.15 4.22Q39.20 4.78 39.20 5.45L39.20 5.45L39.20 7.70L36.80 7.70L36.80 5.11Q36.80 3.96 36.57 3.50Q36.34 3.05 35.84 3.05L35.84 3.05Q35.70 3.05 35.49 3.07Q35.29 3.10 35.10 3.14L35.10 3.14L35.10 12L32.70 12L32.70 1.15Q33.63 0.89 34.54 0.74Q35.46 0.60 36.15 0.60L36.15 0.60Q36.78 0.60 37.27 0.76Q37.76 0.91 38.12 1.27L38.12 1.27Q38.53 1.01 39.08 0.80Q39.63 0.60 40.23 0.60ZM50.02 9.89L50.02 9.89Q50.50 9.89 50.96 9.88Q51.42 9.86 51.75 9.82L51.75 9.82L51.75 7.22Q51.46 7.18 51.06 7.14Q50.65 7.10 50.31 7.10L50.31 7.10Q49.86 7.10 49.42 7.16Q48.99 7.22 48.67 7.37Q48.34 7.51 48.15 7.78Q47.96 8.04 47.96 8.47L47.96 8.47Q47.96 9.24 48.54 9.56Q49.11 9.89 50.02 9.89ZM49.76 0.43L49.76 0.43Q51.15 0.43 52.08 0.76Q53 1.08 53.55 1.67Q54.10 2.26 54.34 3.11Q54.58 3.96 54.58 5.02L54.58 5.02L54.58 11.74Q53.94 11.88 52.66 12.07Q51.39 12.26 49.81 12.26L49.81 12.26Q48.73 12.26 47.85 12.07Q46.98 11.88 46.35 11.44Q45.73 10.99 45.39 10.28Q45.06 9.58 45.06 8.54L45.06 8.54Q45.06 7.56 45.44 6.89Q45.82 6.22 46.47 5.81Q47.12 5.40 47.96 5.22Q48.80 5.04 49.71 5.04L49.71 5.04Q50.86 5.04 51.75 5.23L51.75 5.23L51.75 4.87Q51.75 4.03 51.22 3.47Q50.70 2.90 49.40 2.90L49.40 2.90Q48.56 2.90 47.78 3.02Q47 3.14 46.52 3.31L46.52 3.31L46.11 0.94Q46.66 0.74 47.67 0.59Q48.68 0.43 49.76 0.43ZM59.79 6L59.79 6Q59.79 7.39 60.30 8.12Q60.80 8.86 61.88 8.86L61.88 8.86Q62.36 8.86 62.78 8.74Q63.20 8.62 63.54 8.42L63.54 8.42L63.54 3Q63.20 2.93 62.94 2.90Q62.67 2.88 62.38 2.88L62.38 2.88Q59.79 2.88 59.79 6ZM66.51 1.08L66.51 10.63Q66.51 13.39 65.18 14.71Q63.85 16.03 60.90 16.03L60.90 16.03Q59.84 16.03 58.87 15.82Q57.90 15.60 57.01 15.31L57.01 15.31L57.56 12.82Q58.26 13.08 59.02 13.31Q59.79 13.54 60.94 13.54L60.94 13.54Q61.71 13.54 62.22 13.36Q62.72 13.18 63.01 12.86Q63.30 12.55 63.42 12.13Q63.54 11.71 63.54 11.23L63.54 11.23L63.54 10.78Q62.91 11.02 62.40 11.14Q61.88 11.26 61.28 11.26L61.28 11.26Q59.07 11.26 57.93 9.86Q56.79 8.47 56.79 6L56.79 6Q56.79 3.22 58.33 1.85Q59.86 0.48 62.50 0.48L62.50 0.48Q64.35 0.48 66.51 1.08L66.51 1.08ZM68.74 6.46L68.74 6.46Q68.74 4.97 69.20 3.84Q69.66 2.71 70.40 1.96Q71.14 1.20 72.10 0.82Q73.06 0.43 74.07 0.43L74.07 0.43Q76.57 0.43 77.86 1.91Q79.16 3.38 79.16 6.22L79.16 6.22Q79.16 6.50 79.15 6.82Q79.14 7.13 79.11 7.32L79.11 7.32L71.79 7.32Q71.79 8.42 72.70 9.06Q73.62 9.70 75.06 9.70L75.06 9.70Q75.94 9.70 76.75 9.50Q77.55 9.31 78.10 9.12L78.10 9.12L78.51 11.64Q77.74 11.90 76.88 12.08Q76.02 12.26 74.94 12.26L74.94 12.26Q73.50 12.26 72.36 11.89Q71.22 11.52 70.41 10.79Q69.61 10.06 69.18 8.98Q68.74 7.90 68.74 6.46ZM71.79 5.28L76.30 5.28Q76.30 4.82 76.18 4.40Q76.06 3.98 75.80 3.65Q75.54 3.31 75.13 3.11Q74.72 2.90 74.12 2.90L74.12 2.90Q73.54 2.90 73.12 3.10Q72.70 3.29 72.43 3.62Q72.15 3.96 72.00 4.39Q71.84 4.82 71.79 5.28L71.79 5.28ZM90.51-2.86L90.51 7.03Q90.51 8.11 90.24 9.07Q89.96 10.03 89.32 10.75Q88.69 11.47 87.68 11.89Q86.67 12.31 85.23 12.31L85.23 12.31Q83.72 12.31 82.71 11.93Q81.70 11.54 81.01 10.99L81.01 10.99L82.14 8.64Q82.74 9.02 83.47 9.38Q84.20 9.74 84.97 9.74L84.97 9.74Q86.12 9.74 86.83 9.13Q87.54 8.52 87.54 6.86L87.54 6.86L87.54-0.41L82.57-0.41L82.57-2.86L90.51-2.86ZM105.42-2.86L107.86-2.86Q108.03-2.35 108.28-1.56Q108.54-0.77 108.82 0.14Q109.11 1.06 109.40 1.99Q109.69 2.93 109.95 3.72L109.95 3.72Q110.24 2.83 110.55 1.88Q110.86 0.94 111.15 0.06Q111.44-0.82 111.68-1.58Q111.92-2.35 112.11-2.86L112.11-2.86L114.56-2.86Q114.73-0.91 114.88 0.94Q115.04 2.78 115.15 4.60Q115.26 6.41 115.33 8.24Q115.40 10.08 115.45 12L115.45 12L112.74 12L112.88 0.46L111.06 6.74L108.90 6.74L107.14 0.46L107.26 12L104.55 12Q104.62 10.18 104.71 8.21Q104.79 6.24 104.89 4.30Q104.98 2.35 105.12 0.53Q105.25-1.30 105.42-2.86L105.42-2.86ZM122.02 9.89L122.02 9.89Q122.50 9.89 122.96 9.88Q123.42 9.86 123.75 9.82L123.75 9.82L123.75 7.22Q123.46 7.18 123.06 7.14Q122.65 7.10 122.31 7.10L122.31 7.10Q121.86 7.10 121.42 7.16Q120.99 7.22 120.67 7.37Q120.34 7.51 120.15 7.78Q119.96 8.04 119.96 8.47L119.96 8.47Q119.96 9.24 120.54 9.56Q121.11 9.89 122.02 9.89ZM121.76 0.43L121.76 0.43Q123.15 0.43 124.08 0.76Q125 1.08 125.55 1.67Q126.10 2.26 126.34 3.11Q126.58 3.96 126.58 5.02L126.58 5.02L126.58 11.74Q125.94 11.88 124.66 12.07Q123.39 12.26 121.81 12.26L121.81 12.26Q120.73 12.26 119.85 12.07Q118.98 11.88 118.35 11.44Q117.73 10.99 117.39 10.28Q117.06 9.58 117.06 8.54L117.06 8.54Q117.06 7.56 117.44 6.89Q117.82 6.22 118.47 5.81Q119.12 5.40 119.96 5.22Q120.80 5.04 121.71 5.04L121.71 5.04Q122.86 5.04 123.75 5.23L123.75 5.23L123.75 4.87Q123.75 4.03 123.22 3.47Q122.70 2.90 121.40 2.90L121.40 2.90Q120.56 2.90 119.78 3.02Q119 3.14 118.52 3.31L118.52 3.31L118.11 0.94Q118.66 0.74 119.67 0.59Q120.68 0.43 121.76 0.43ZM129.06 6.36L129.06 6.36Q129.06 5.14 129.44 4.06Q129.82 2.98 130.62 2.17Q131.41 1.37 132.62 0.90Q133.83 0.43 135.51 0.43L135.51 0.43Q136.52 0.43 137.34 0.58Q138.15 0.72 138.99 1.06L138.99 1.06L138.34 3.43Q137.86 3.26 137.28 3.13Q136.69 3 135.78 3L135.78 3Q134.72 3 134.01 3.25Q133.30 3.50 132.87 3.95Q132.44 4.39 132.25 5.02Q132.06 5.64 132.06 6.36L132.06 6.36Q132.06 7.92 132.93 8.81Q133.81 9.70 135.92 9.70L135.92 9.70Q136.62 9.70 137.37 9.60Q138.13 9.50 138.75 9.29L138.75 9.29L139.18 11.71Q138.56 11.95 137.67 12.11Q136.78 12.26 135.58 12.26L135.58 12.26Q133.86 12.26 132.62 11.81Q131.38 11.35 130.59 10.56Q129.80 9.77 129.43 8.69Q129.06 7.61 129.06 6.36ZM151.02 0.98L150.49 3.72Q150.20 3.65 149.80 3.58Q149.41 3.50 149 3.44Q148.59 3.38 148.21 3.36Q147.82 3.34 147.56 3.34L147.56 3.34Q146.94 3.34 146.34 3.40Q145.74 3.46 145.11 3.62L145.11 3.62L145.11 12L142.14 12L142.14 1.46Q143.31 1.03 144.55 0.77Q145.78 0.50 147.44 0.50L147.44 0.50Q147.68 0.50 148.12 0.53Q148.57 0.55 149.07 0.61Q149.58 0.67 150.09 0.76Q150.61 0.84 151.02 0.98L151.02 0.98ZM163.33 6.34L163.33 6.34Q163.33 7.68 162.94 8.77Q162.56 9.86 161.86 10.66Q161.17 11.45 160.20 11.88Q159.22 12.31 158.02 12.31L158.02 12.31Q156.82 12.31 155.85 11.88Q154.88 11.45 154.17 10.66Q153.46 9.86 153.08 8.77Q152.70 7.68 152.70 6.34L152.70 6.34Q152.70 5.02 153.09 3.92Q153.49 2.83 154.20 2.05Q154.90 1.27 155.89 0.85Q156.87 0.43 158.02 0.43L158.02 0.43Q159.20 0.43 160.17 0.85Q161.14 1.27 161.85 2.05Q162.56 2.83 162.94 3.92Q163.33 5.02 163.33 6.34ZM155.70 6.36L155.70 6.36Q155.70 7.87 156.24 8.81Q156.78 9.74 157.98 9.74L157.98 9.74Q159.13 9.74 159.72 8.81Q160.30 7.87 160.30 6.36L160.30 6.36Q160.30 4.85 159.76 3.92Q159.22 3 158.02 3L158.02 3Q156.87 3 156.28 3.92Q155.70 4.85 155.70 6.36Z"/>
    </g>
</svg>