<?xml version="1.0" encoding="UTF-8"?>
<svg height="34" width="126.7" version="1.1" xmlns="http://www.w3.org/2000/svg"><!--Created by Josélio de S. C. Júnior - 2021 - https://github.com/joseliojunior -->
    <defs>
        <pattern id="pattern"
                x="3" y="3" width="6" height="6"
                patternUnits="userSpaceOnUse"
                patternTransform="rotate(45)" >
            <rect height="6" width="6"
                fill="#ffffff"/>
            <line x1="0" y1="0" x2="0" y2="6"
                stroke="#888888"
                stroke-width="2" />
        </pattern>
    </defs>
    <rect
        height="32"
        width="124.7"
        rx="16"
        ry="16"
        x="1" y="1"
        fill="url(#pattern)"
        stroke="#000000"
        stroke-width="1" />
    <g transform="translate(0, 12)">
        <path fill="#ffffff" stroke="#000000" d="M31.26 7.51L31.26 7.51Q31.26 8.86 30.80 9.76Q30.34 10.66 29.56 11.20Q28.78 11.74 27.72 11.96Q26.65 12.19 25.42 12.19L25.42 12.19Q24.44 12.19 23.38 12.08Q22.33 11.98 21.30 11.76L21.30 11.76L21.30-2.66Q22.14-2.81 23.14-2.92Q24.15-3.02 25.14-3.02L25.14-3.02Q26.82-3.02 27.87-2.68Q28.93-2.33 29.53-1.76Q30.13-1.20 30.34-0.50Q30.56 0.19 30.56 0.89L30.56 0.89Q30.56 1.94 30.04 2.76Q29.53 3.58 28.66 4.06L28.66 4.06Q30.18 4.61 30.72 5.54Q31.26 6.48 31.26 7.51ZM25.83 5.50L24.25 5.50L24.25 9.53Q24.56 9.58 24.93 9.60Q25.30 9.62 25.66 9.62L25.66 9.62Q26.17 9.62 26.65 9.54Q27.13 9.46 27.50 9.23Q27.87 9 28.11 8.58Q28.35 8.16 28.35 7.51L28.35 7.51Q28.35 6.43 27.67 5.96Q26.98 5.50 25.83 5.50L25.83 5.50ZM24.25 3.05L25.40 3.05Q26.53 3.05 27.10 2.56Q27.68 2.06 27.68 1.20L27.68 1.20Q27.68 0.67 27.51 0.35Q27.34 0.02 27.06-0.16Q26.77-0.34 26.38-0.40Q26-0.46 25.59-0.46L25.59-0.46Q25.26-0.46 24.90-0.43Q24.54-0.41 24.25-0.36L24.25-0.36L24.25 3.05ZM32.74 6.46L32.74 6.46Q32.74 4.97 33.20 3.84Q33.66 2.71 34.40 1.96Q35.14 1.20 36.10 0.82Q37.06 0.43 38.07 0.43L38.07 0.43Q40.57 0.43 41.86 1.91Q43.16 3.38 43.16 6.22L43.16 6.22Q43.16 6.50 43.15 6.82Q43.14 7.13 43.11 7.32L43.11 7.32L35.79 7.32Q35.79 8.42 36.70 9.06Q37.62 9.70 39.06 9.70L39.06 9.70Q39.94 9.70 40.75 9.50Q41.55 9.31 42.10 9.12L42.10 9.12L42.51 11.64Q41.74 11.90 40.88 12.08Q40.02 12.26 38.94 12.26L38.94 12.26Q37.50 12.26 36.36 11.89Q35.22 11.52 34.41 10.79Q33.61 10.06 33.18 8.98Q32.74 7.90 32.74 6.46ZM35.79 5.28L40.30 5.28Q40.30 4.82 40.18 4.40Q40.06 3.98 39.80 3.65Q39.54 3.31 39.13 3.11Q38.72 2.90 38.12 2.90L38.12 2.90Q37.54 2.90 37.12 3.10Q36.70 3.29 36.43 3.62Q36.15 3.96 36.00 4.39Q35.84 4.82 35.79 5.28L35.79 5.28ZM50.31 12L47.34 12L47.34 3.17L44.86 3.17L44.86 0.72L47.34 0.72L47.34 0.07Q47.34-1.30 47.73-2.20Q48.13-3.10 48.80-3.64Q49.47-4.18 50.34-4.40Q51.20-4.63 52.11-4.63L52.11-4.63Q53.05-4.63 54.03-4.46Q55.02-4.30 55.81-3.91L55.81-3.91L55.30-1.51Q54.75-1.70 53.92-1.91Q53.10-2.11 52.35-2.11L52.35-2.11Q51.94-2.11 51.57-2.04Q51.20-1.97 50.92-1.73Q50.65-1.49 50.48-1.04Q50.31-0.60 50.31 0.12L50.31 0.12L50.31 0.72L54.94 0.72L54.94 3.17L50.31 3.17L50.31 12ZM66.51 0.72L66.51 11.62Q65.70 11.83 64.53 12.05Q63.37 12.26 62 12.26L62 12.26Q60.61 12.26 59.72 11.88Q58.83 11.50 58.32 10.79Q57.80 10.08 57.61 9.12Q57.42 8.16 57.42 7.01L57.42 7.01L57.42 0.72L60.37 0.72L60.37 6.62Q60.37 8.18 60.74 8.94Q61.11 9.70 62.19 9.70L62.19 9.70Q62.86 9.70 63.54 9.58L63.54 9.58L63.54 0.72L66.51 0.72ZM69.51 12L69.51 1.08Q70.30 0.86 71.47 0.67Q72.63 0.48 74 0.48L74 0.48Q75.34 0.48 76.23 0.85Q77.12 1.22 77.64 1.91Q78.15 2.59 78.37 3.54Q78.58 4.49 78.58 5.64L78.58 5.64L78.58 12L75.63 12L75.63 6.02Q75.63 4.44 75.27 3.74Q74.91 3.05 73.81 3.05L73.81 3.05Q73.47 3.05 73.15 3.07Q72.82 3.10 72.46 3.14L72.46 3.14L72.46 12L69.51 12ZM83.79 6L83.79 6Q83.79 7.39 84.30 8.12Q84.80 8.86 85.88 8.86L85.88 8.86Q86.36 8.86 86.78 8.74Q87.20 8.62 87.54 8.42L87.54 8.42L87.54 3Q87.20 2.93 86.94 2.90Q86.67 2.88 86.38 2.88L86.38 2.88Q83.79 2.88 83.79 6ZM90.51 1.08L90.51 10.63Q90.51 13.39 89.18 14.71Q87.85 16.03 84.90 16.03L84.90 16.03Q83.84 16.03 82.87 15.82Q81.90 15.60 81.01 15.31L81.01 15.31L81.56 12.82Q82.26 13.08 83.02 13.31Q83.79 13.54 84.94 13.54L84.94 13.54Q85.71 13.54 86.22 13.36Q86.72 13.18 87.01 12.86Q87.30 12.55 87.42 12.13Q87.54 11.71 87.54 11.23L87.54 11.23L87.54 10.78Q86.91 11.02 86.40 11.14Q85.88 11.26 85.28 11.26L85.28 11.26Q83.07 11.26 81.93 9.86Q80.79 8.47 80.79 6L80.79 6Q80.79 3.22 82.33 1.85Q83.86 0.48 86.50 0.48L86.50 0.48Q88.35 0.48 90.51 1.08L90.51 1.08ZM92.74 6.46L92.74 6.46Q92.74 4.97 93.20 3.84Q93.66 2.71 94.40 1.96Q95.14 1.20 96.10 0.82Q97.06 0.43 98.07 0.43L98.07 0.43Q100.57 0.43 101.86 1.91Q103.16 3.38 103.16 6.22L103.16 6.22Q103.16 6.50 103.15 6.82Q103.14 7.13 103.11 7.32L103.11 7.32L95.79 7.32Q95.79 8.42 96.70 9.06Q97.62 9.70 99.06 9.70L99.06 9.70Q99.94 9.70 100.75 9.50Q101.55 9.31 102.10 9.12L102.10 9.12L102.51 11.64Q101.74 11.90 100.88 12.08Q100.02 12.26 98.94 12.26L98.94 12.26Q97.50 12.26 96.36 11.89Q95.22 11.52 94.41 10.79Q93.61 10.06 93.18 8.98Q92.74 7.90 92.74 6.46ZM95.79 5.28L100.30 5.28Q100.30 4.82 100.18 4.40Q100.06 3.98 99.80 3.65Q99.54 3.31 99.13 3.11Q98.72 2.90 98.12 2.90L98.12 2.90Q97.54 2.90 97.12 3.10Q96.70 3.29 96.43 3.62Q96.15 3.96 96.00 4.39Q95.84 4.82 95.79 5.28L95.79 5.28Z"/>
    </g>
</svg>