<?xml version="1.0" encoding="UTF-8"?>
<svg height="26" width="98.69999999999999" version="1.1" xmlns="http://www.w3.org/2000/svg"><!--Created by Josélio de S. C. Júnior - 2021 - https://github.com/joseliojunior -->
    <defs>
        <pattern id="pattern"
                x="1.5" y="3" width="3" height="6"
                patternUnits="userSpaceOnUse"
                patternTransform="rotate(45)" >
            <rect height="6" width="1" fill="#999999"/>
        </pattern>
    </defs>
    <rect
        height="24"
        width="96.69999999999999"
        rx="12"
        ry="12"
        x="1" y="1"
        fill="url(#pattern)"
        stroke="#000000"
        stroke-width="1" />
    <g transform="translate(0, 8)">
        <path fill="#ffffff" stroke="#000000" d="M27.50 7.01L27.50 7.01Q27.50 7.90 27.20 8.50Q26.90 9.10 26.38 9.46Q25.86 9.82 25.14 9.98Q24.43 10.13 23.62 10.13L23.62 10.13Q22.96 10.13 22.26 10.06Q21.55 9.98 20.86 9.84L20.86 9.84L20.86 0.22Q21.42 0.13 22.10 0.06Q22.77-0.02 23.42-0.02L23.42-0.02Q24.54-0.02 25.25 0.22Q25.95 0.45 26.35 0.82Q26.75 1.20 26.90 1.66Q27.04 2.13 27.04 2.59L27.04 2.59Q27.04 3.30 26.70 3.84Q26.35 4.38 25.78 4.70L25.78 4.70Q26.78 5.07 27.14 5.70Q27.50 6.32 27.50 7.01ZM23.89 5.66L22.83 5.66L22.83 8.35Q23.04 8.38 23.29 8.40Q23.54 8.42 23.78 8.42L23.78 8.42Q24.11 8.42 24.43 8.36Q24.75 8.30 25 8.15Q25.25 8 25.41 7.72Q25.57 7.44 25.57 7.01L25.57 7.01Q25.57 6.29 25.11 5.98Q24.66 5.66 23.89 5.66L23.89 5.66ZM22.83 4.03L23.60 4.03Q24.35 4.03 24.74 3.70Q25.12 3.38 25.12 2.80L25.12 2.80Q25.12 2.45 25.01 2.23Q24.90 2.02 24.70 1.90Q24.51 1.78 24.26 1.74Q24 1.70 23.73 1.70L23.73 1.70Q23.50 1.70 23.26 1.71Q23.02 1.73 22.83 1.76L22.83 1.76L22.83 4.03ZM28.50 6.30L28.50 6.30Q28.50 5.31 28.80 4.56Q29.10 3.81 29.60 3.30Q30.10 2.80 30.74 2.54Q31.38 2.29 32.05 2.29L32.05 2.29Q33.71 2.29 34.58 3.27Q35.44 4.26 35.44 6.14L35.44 6.14Q35.44 6.34 35.43 6.54Q35.42 6.75 35.41 6.88L35.41 6.88L30.53 6.88Q30.53 7.62 31.14 8.04Q31.74 8.46 32.70 8.46L32.70 8.46Q33.30 8.46 33.83 8.34Q34.37 8.21 34.74 8.08L34.74 8.08L35.01 9.76Q34.50 9.94 33.92 10.06Q33.34 10.18 32.62 10.18L32.62 10.18Q31.66 10.18 30.90 9.93Q30.14 9.68 29.61 9.19Q29.07 8.70 28.78 7.98Q28.50 7.26 28.50 6.30ZM30.53 5.52L33.54 5.52Q33.54 5.22 33.46 4.94Q33.38 4.66 33.20 4.43Q33.02 4.21 32.75 4.07Q32.48 3.94 32.08 3.94L32.08 3.94Q31.70 3.94 31.42 4.06Q31.14 4.19 30.95 4.42Q30.77 4.64 30.66 4.93Q30.56 5.22 30.53 5.52L30.53 5.52ZM40.21 10L38.22 10L38.22 4.11L36.58 4.11L36.58 2.48L38.22 2.48L38.22 2.05Q38.22 1.14 38.49 0.54Q38.75-0.06 39.20-0.42Q39.65-0.78 40.22-0.94Q40.80-1.09 41.41-1.09L41.41-1.09Q42.03-1.09 42.69-0.98Q43.34-0.86 43.87-0.61L43.87-0.61L43.54 0.99Q43.17 0.86 42.62 0.73Q42.06 0.59 41.57 0.59L41.57 0.59Q41.30 0.59 41.05 0.64Q40.80 0.69 40.62 0.85Q40.43 1.01 40.32 1.30Q40.21 1.60 40.21 2.08L40.21 2.08L40.21 2.48L43.30 2.48L43.30 4.11L40.21 4.11L40.21 10ZM51.01 2.48L51.01 9.74Q50.46 9.89 49.69 10.03Q48.91 10.18 48 10.18L48 10.18Q47.07 10.18 46.48 9.92Q45.89 9.66 45.54 9.19Q45.20 8.72 45.07 8.08Q44.94 7.44 44.94 6.67L44.94 6.67L44.94 2.48L46.91 2.48L46.91 6.42Q46.91 7.46 47.16 7.96Q47.41 8.46 48.13 8.46L48.13 8.46Q48.58 8.46 49.02 8.38L49.02 8.38L49.02 2.48L51.01 2.48ZM53.01 10L53.01 2.72Q53.54 2.58 54.31 2.45Q55.09 2.32 56 2.32L56 2.32Q56.90 2.32 57.49 2.57Q58.08 2.82 58.42 3.27Q58.77 3.73 58.91 4.36Q59.06 4.99 59.06 5.76L59.06 5.76L59.06 10L57.09 10L57.09 6.02Q57.09 4.96 56.85 4.50Q56.61 4.03 55.87 4.03L55.87 4.03Q55.65 4.03 55.43 4.05Q55.22 4.06 54.98 4.10L54.98 4.10L54.98 10L53.01 10ZM62.53 6L62.53 6Q62.53 6.93 62.86 7.42Q63.20 7.90 63.92 7.90L63.92 7.90Q64.24 7.90 64.52 7.82Q64.80 7.74 65.02 7.62L65.02 7.62L65.02 4Q64.80 3.95 64.62 3.94Q64.45 3.92 64.26 3.92L64.26 3.92Q62.53 3.92 62.53 6ZM67.01 2.72L67.01 9.09Q67.01 10.93 66.12 11.81Q65.23 12.69 63.26 12.69L63.26 12.69Q62.56 12.69 61.91 12.54Q61.26 12.40 60.67 12.21L60.67 12.21L61.04 10.54Q61.50 10.72 62.02 10.87Q62.53 11.02 63.30 11.02L63.30 11.02Q63.81 11.02 64.14 10.90Q64.48 10.78 64.67 10.58Q64.86 10.37 64.94 10.09Q65.02 9.81 65.02 9.49L65.02 9.49L65.02 9.18Q64.61 9.34 64.26 9.42Q63.92 9.50 63.52 9.50L63.52 9.50Q62.05 9.50 61.29 8.58Q60.53 7.65 60.53 6L60.53 6Q60.53 4.14 61.55 3.23Q62.58 2.32 64.34 2.32L64.34 2.32Q65.57 2.32 67.01 2.72L67.01 2.72ZM68.50 6.30L68.50 6.30Q68.50 5.31 68.80 4.56Q69.10 3.81 69.60 3.30Q70.10 2.80 70.74 2.54Q71.38 2.29 72.05 2.29L72.05 2.29Q73.71 2.29 74.58 3.27Q75.44 4.26 75.44 6.14L75.44 6.14Q75.44 6.34 75.43 6.54Q75.42 6.75 75.41 6.88L75.41 6.88L70.53 6.88Q70.53 7.62 71.14 8.04Q71.74 8.46 72.70 8.46L72.70 8.46Q73.30 8.46 73.83 8.34Q74.37 8.21 74.74 8.08L74.74 8.08L75.01 9.76Q74.50 9.94 73.92 10.06Q73.34 10.18 72.62 10.18L72.62 10.18Q71.66 10.18 70.90 9.93Q70.14 9.68 69.61 9.19Q69.07 8.70 68.78 7.98Q68.50 7.26 68.50 6.30ZM70.53 5.52L73.54 5.52Q73.54 5.22 73.46 4.94Q73.38 4.66 73.20 4.43Q73.02 4.21 72.75 4.07Q72.48 3.94 72.08 3.94L72.08 3.94Q71.70 3.94 71.42 4.06Q71.14 4.19 70.95 4.42Q70.77 4.64 70.66 4.93Q70.56 5.22 70.53 5.52L70.53 5.52Z"/>
    </g>
</svg>