<?xml version="1.0" encoding="UTF-8"?>
<svg height="34" width="92.5" version="1.1" xmlns="http://www.w3.org/2000/svg">
    <rect
        height="32"
        width="90.5"
        rx="1"
        ry="1"
        x="1"
        y="1"
        fill="#ccccee"
        stroke="#3c3cb4"
        stroke-width="1"
         />
    <g transform="translate(0, 14)">
        <path fill="#3c3cb4" d="M16.94 11.36L16.94 11.36Q15.26 11.36 14.13 10.90Q13.00 10.44 12.32 9.57Q11.65 8.70 11.37 7.47Q11.09 6.24 11.09 4.73L11.09 4.73L11.09-6.33L14.56-6.33L14.56 4.50Q14.56 5.60 14.68 6.34Q14.79 7.08 15.05 7.53Q15.32 7.98 15.80 8.17Q16.27 8.37 17 8.37L17 8.37Q17.73 8.37 18.20 8.17Q18.68 7.98 18.96 7.51Q19.24 7.05 19.35 6.31Q19.46 5.57 19.46 4.48L19.46 4.48L19.46-6.33L22.91-6.33L22.91 4.73Q22.91 6.24 22.63 7.47Q22.35 8.70 21.65 9.57Q20.95 10.44 19.80 10.90Q18.65 11.36 16.94 11.36ZM36.85-1.85L36.24 1.34Q35.90 1.26 35.44 1.17Q34.98 1.09 34.50 1.02Q34.02 0.95 33.58 0.92Q33.13 0.89 32.82 0.89L32.82 0.89Q32.09 0.89 31.39 0.96Q30.69 1.03 29.96 1.23L29.96 1.23L29.96 11L26.49 11L26.49-1.29Q27.86-1.80 29.31-2.10Q30.75-2.41 32.68-2.41L32.68-2.41Q32.96-2.41 33.48-2.38Q34.00-2.36 34.58-2.29Q35.17-2.22 35.77-2.12Q36.38-2.02 36.85-1.85L36.85-1.85ZM43.77-0.20L46.29-0.20Q46.40 0.33 46.62 1.12Q46.85 1.90 47.11 2.85Q47.38 3.80 47.70 4.90Q48.02 5.99 48.33 7.14L48.33 7.14Q48.33 5.68 48.30 4.01Q48.28 2.35 48.25 0.61Q48.22-1.12 48.19-2.90Q48.16-4.68 48.16-6.33L48.16-6.33L51.36-6.33Q51.27-4.20 51.19-1.95Q51.10 0.30 50.99 2.53Q50.88 4.76 50.73 6.91Q50.57 9.07 50.38 11L50.38 11L47.52 11Q46.90 9.24 46.29 7.21Q45.67 5.18 45.06 3.33L45.06 3.33Q44.44 5.09 43.77 7.16Q43.10 9.24 42.54 11L42.54 11L39.68 11Q39.46 9.07 39.29 6.90Q39.12 4.73 38.99 2.50Q38.87 0.28 38.78-1.98Q38.70-4.23 38.64-6.33L38.64-6.33L41.84-6.33Q41.81-4.68 41.78-2.92Q41.75-1.15 41.72 0.60Q41.70 2.35 41.67 4.01Q41.64 5.68 41.64 7.14L41.64 7.14Q41.89 6.24 42.21 5.18Q42.54 4.11 42.83 3.08Q43.12 2.04 43.38 1.17Q43.63 0.30 43.77-0.20L43.77-0.20ZM52.87 4.53L52.87 4.53Q52.87 2.80 53.40 1.48Q53.93 0.16 54.80-0.72Q55.67-1.60 56.79-2.05Q57.91-2.50 59.08-2.50L59.08-2.50Q62.00-2.50 63.51-0.77Q65.02 0.95 65.02 4.25L65.02 4.25Q65.02 4.59 65.01 4.95Q64.99 5.32 64.96 5.54L64.96 5.54L56.42 5.54Q56.42 6.83 57.49 7.57Q58.55 8.31 60.23 8.31L60.23 8.31Q61.27 8.31 62.21 8.09Q63.14 7.86 63.79 7.64L63.79 7.64L64.26 10.58Q63.37 10.89 62.36 11.10Q61.35 11.31 60.09 11.31L60.09 11.31Q58.41 11.31 57.08 10.87Q55.75 10.44 54.81 9.59Q53.88 8.73 53.37 7.47Q52.87 6.21 52.87 4.53ZM56.42 3.16L61.69 3.16Q61.69 2.63 61.55 2.14Q61.41 1.65 61.10 1.26Q60.79 0.86 60.32 0.63Q59.84 0.39 59.14 0.39L59.14 0.39Q58.47 0.39 57.98 0.61Q57.49 0.84 57.17 1.23Q56.84 1.62 56.66 2.12Q56.48 2.63 56.42 3.16L56.42 3.16ZM75.66 4.34L75.66 4.34Q75.66 2.49 75.06 1.51Q74.46 0.53 73.22 0.53L73.22 0.53Q72.66 0.53 72.12 0.68Q71.57 0.84 71.18 1.06L71.18 1.06L71.18 8.20Q71.57 8.28 72.01 8.31Q72.44 8.34 72.75 8.34L72.75 8.34Q74.09 8.34 74.88 7.43Q75.66 6.52 75.66 4.34ZM79.16 4.42L79.16 4.42Q79.16 5.99 78.74 7.26Q78.32 8.54 77.51 9.43Q76.70 10.33 75.52 10.82Q74.34 11.31 72.83 11.31L72.83 11.31Q71.49 11.31 70.09 11.11Q68.69 10.92 67.74 10.61L67.74 10.61L67.74-7.84L71.18-8.43L71.18-1.85Q71.91-2.19 72.58-2.31Q73.25-2.44 73.92-2.44L73.92-2.44Q75.21-2.44 76.19-1.95Q77.17-1.46 77.83-0.55Q78.49 0.36 78.82 1.62Q79.16 2.88 79.16 4.42Z"/>
    </g>
</svg>