<?xml version="1.0" encoding="UTF-8"?>
<svg height="34" width="219.4" version="1.1" xmlns="http://www.w3.org/2000/svg">
    <rect
        height="32"
        width="217.4"
        rx="14"
        ry="14"
        x="1"
        y="1"
        fill="#913960"
        stroke="#250e18"
        stroke-width="1"
         />
    <g transform="translate(0, 14)">
        <path fill="#250e18" d="M22.88 11L11.76 11L11.76-6.33L22.26-6.33L22.26-3.48L15.21-3.48L15.21 0.42L21.34 0.42L21.34 3.27L15.21 3.27L15.21 8.14L22.88 8.14L22.88 11ZM25.23 4.42L25.23 4.42Q25.23 2.99 25.68 1.73Q26.13 0.47 27.05-0.47Q27.98-1.40 29.39-1.95Q30.80-2.50 32.76-2.50L32.76-2.50Q33.94-2.50 34.89-2.33Q35.84-2.16 36.82-1.77L36.82-1.77L36.07 1.00Q35.51 0.81 34.82 0.65Q34.14 0.50 33.07 0.50L33.07 0.50Q31.84 0.50 31.01 0.79Q30.19 1.09 29.68 1.61Q29.18 2.12 28.96 2.85Q28.73 3.58 28.73 4.42L28.73 4.42Q28.73 6.24 29.75 7.28Q30.78 8.31 33.24 8.31L33.24 8.31Q34.05 8.31 34.93 8.20Q35.82 8.09 36.54 7.84L36.54 7.84L37.05 10.66Q36.32 10.94 35.28 11.13Q34.25 11.31 32.85 11.31L32.85 11.31Q30.83 11.31 29.39 10.78Q27.95 10.24 27.02 9.32Q26.10 8.40 25.67 7.14Q25.23 5.88 25.23 4.42ZM38.87 4.53L38.87 4.53Q38.87 2.80 39.40 1.48Q39.93 0.16 40.80-0.72Q41.67-1.60 42.79-2.05Q43.91-2.50 45.08-2.50L45.08-2.50Q48.00-2.50 49.51-0.77Q51.02 0.95 51.02 4.25L51.02 4.25Q51.02 4.59 51.01 4.95Q50.99 5.32 50.96 5.54L50.96 5.54L42.42 5.54Q42.42 6.83 43.49 7.57Q44.55 8.31 46.23 8.31L46.23 8.31Q47.27 8.31 48.21 8.09Q49.14 7.86 49.79 7.64L49.79 7.64L50.26 10.58Q49.37 10.89 48.36 11.10Q47.35 11.31 46.09 11.31L46.09 11.31Q44.41 11.31 43.08 10.87Q41.75 10.44 40.81 9.59Q39.88 8.73 39.37 7.47Q38.87 6.21 38.87 4.53ZM42.42 3.16L47.69 3.16Q47.69 2.63 47.55 2.14Q47.41 1.65 47.10 1.26Q46.79 0.86 46.32 0.63Q45.84 0.39 45.14 0.39L45.14 0.39Q44.47 0.39 43.98 0.61Q43.49 0.84 43.17 1.23Q42.84 1.62 42.66 2.12Q42.48 2.63 42.42 3.16L42.42 3.16ZM64.85-1.85L64.24 1.34Q63.90 1.26 63.44 1.17Q62.98 1.09 62.50 1.02Q62.02 0.95 61.58 0.92Q61.13 0.89 60.82 0.89L60.82 0.89Q60.09 0.89 59.39 0.96Q58.69 1.03 57.96 1.23L57.96 1.23L57.96 11L54.49 11L54.49-1.29Q55.86-1.80 57.31-2.10Q58.75-2.41 60.68-2.41L60.68-2.41Q60.96-2.41 61.48-2.38Q62.00-2.36 62.58-2.29Q63.17-2.22 63.77-2.12Q64.38-2.02 64.85-1.85L64.85-1.85ZM66.87 4.53L66.87 4.53Q66.87 2.80 67.40 1.48Q67.93 0.16 68.80-0.72Q69.67-1.60 70.79-2.05Q71.91-2.50 73.08-2.50L73.08-2.50Q76.00-2.50 77.51-0.77Q79.02 0.95 79.02 4.25L79.02 4.25Q79.02 4.59 79.01 4.95Q78.99 5.32 78.96 5.54L78.96 5.54L70.42 5.54Q70.42 6.83 71.49 7.57Q72.55 8.31 74.23 8.31L74.23 8.31Q75.27 8.31 76.21 8.09Q77.14 7.86 77.79 7.64L77.79 7.64L78.26 10.58Q77.37 10.89 76.36 11.10Q75.35 11.31 74.09 11.31L74.09 11.31Q72.41 11.31 71.08 10.87Q69.75 10.44 68.81 9.59Q67.88 8.73 67.37 7.47Q66.87 6.21 66.87 4.53ZM70.42 3.16L75.69 3.16Q75.69 2.63 75.55 2.14Q75.41 1.65 75.10 1.26Q74.79 0.86 74.32 0.63Q73.84 0.39 73.14 0.39L73.14 0.39Q72.47 0.39 71.98 0.61Q71.49 0.84 71.17 1.23Q70.84 1.62 70.66 2.12Q70.48 2.63 70.42 3.16L70.42 3.16ZM100.27-6.53L100.27-6.53Q103.58-6.53 105.40-5.17Q107.22-3.81 107.22-0.73L107.22-0.73Q107.22 2.38 105.38 3.76Q103.55 5.15 100.19 5.15L100.19 5.15L98.96 5.15L98.96 11L95.51 11L95.51-6.11Q96.02-6.22 96.65-6.30Q97.28-6.39 97.92-6.43Q98.56-6.47 99.18-6.50Q99.80-6.53 100.27-6.53ZM100.66-3.53L100.66-3.53Q100.36-3.53 99.81-3.52Q99.26-3.50 98.96-3.45L98.96-3.45L98.96 2.15L100.36 2.15Q102.01 2.15 102.85 1.49Q103.69 0.84 103.69-0.76L103.69-0.76Q103.69-2.27 102.86-2.90Q102.04-3.53 100.66-3.53ZM120.85-1.85L120.24 1.34Q119.90 1.26 119.44 1.17Q118.98 1.09 118.50 1.02Q118.02 0.95 117.58 0.92Q117.13 0.89 116.82 0.89L116.82 0.89Q116.09 0.89 115.39 0.96Q114.69 1.03 113.96 1.23L113.96 1.23L113.96 11L110.49 11L110.49-1.29Q111.86-1.80 113.31-2.10Q114.75-2.41 116.68-2.41L116.68-2.41Q116.96-2.41 117.48-2.38Q118.00-2.36 118.58-2.29Q119.17-2.22 119.77-2.12Q120.38-2.02 120.85-1.85L120.85-1.85ZM135.22 4.39L135.22 4.39Q135.22 5.96 134.77 7.23Q134.32 8.51 133.51 9.43Q132.70 10.36 131.56 10.86Q130.43 11.36 129.03 11.36L129.03 11.36Q127.63 11.36 126.49 10.86Q125.36 10.36 124.53 9.43Q123.71 8.51 123.26 7.23Q122.81 5.96 122.81 4.39L122.81 4.39Q122.81 2.85 123.27 1.58Q123.74 0.30 124.56-0.61Q125.39-1.52 126.54-2.01Q127.68-2.50 129.03-2.50L129.03-2.50Q130.40-2.50 131.53-2.01Q132.67-1.52 133.49-0.61Q134.32 0.30 134.77 1.58Q135.22 2.85 135.22 4.39ZM126.31 4.42L126.31 4.42Q126.31 6.18 126.94 7.28Q127.57 8.37 128.97 8.37L128.97 8.37Q130.32 8.37 131.00 7.28Q131.69 6.18 131.69 4.42L131.69 4.42Q131.69 2.66 131.06 1.58Q130.43 0.50 129.03 0.50L129.03 0.50Q127.68 0.50 127.00 1.58Q126.31 2.66 126.31 4.42ZM147.20-2.16L147.20 10.13Q147.20 11.73 146.81 12.81Q146.42 13.88 145.73 14.54Q145.04 15.20 144.11 15.48Q143.17 15.76 142.08 15.76L142.08 15.76Q140.73 15.76 139.58 15.42Q138.44 15.09 137.37 14.56L137.37 14.56L138.44 11.64Q139.14 12.04 140.13 12.39Q141.12 12.74 141.94 12.74L141.94 12.74Q142.80 12.74 143.28 12.22Q143.76 11.70 143.76 10.30L143.76 10.30L143.76 0.70L138.44 0.70L138.44-2.16L147.20-2.16ZM146.78-5.94L146.78-5.94Q146.78-4.93 146.14-4.34Q145.49-3.76 144.60-3.76L144.60-3.76Q143.70-3.76 143.07-4.34Q142.44-4.93 142.44-5.94L142.44-5.94Q142.44-6.98 143.07-7.56Q143.70-8.15 144.60-8.15L144.60-8.15Q145.49-8.15 146.14-7.56Q146.78-6.98 146.78-5.94ZM150.87 4.53L150.87 4.53Q150.87 2.80 151.40 1.48Q151.93 0.16 152.80-0.72Q153.67-1.60 154.79-2.05Q155.91-2.50 157.08-2.50L157.08-2.50Q160.00-2.50 161.51-0.77Q163.02 0.95 163.02 4.25L163.02 4.25Q163.02 4.59 163.01 4.95Q162.99 5.32 162.96 5.54L162.96 5.54L154.42 5.54Q154.42 6.83 155.49 7.57Q156.55 8.31 158.23 8.31L158.23 8.31Q159.27 8.31 160.21 8.09Q161.14 7.86 161.79 7.64L161.79 7.64L162.26 10.58Q161.37 10.89 160.36 11.10Q159.35 11.31 158.09 11.31L158.09 11.31Q156.41 11.31 155.08 10.87Q153.75 10.44 152.81 9.59Q151.88 8.73 151.37 7.47Q150.87 6.21 150.87 4.53ZM154.42 3.16L159.69 3.16Q159.69 2.63 159.55 2.14Q159.41 1.65 159.10 1.26Q158.79 0.86 158.32 0.63Q157.84 0.39 157.14 0.39L157.14 0.39Q156.47 0.39 155.98 0.61Q155.49 0.84 155.17 1.23Q154.84 1.62 154.66 2.12Q154.48 2.63 154.42 3.16L154.42 3.16ZM165.23 4.42L165.23 4.42Q165.23 2.99 165.68 1.73Q166.13 0.47 167.05-0.47Q167.98-1.40 169.39-1.95Q170.80-2.50 172.76-2.50L172.76-2.50Q173.94-2.50 174.89-2.33Q175.84-2.16 176.82-1.77L176.82-1.77L176.07 1.00Q175.51 0.81 174.82 0.65Q174.14 0.50 173.07 0.50L173.07 0.50Q171.84 0.50 171.01 0.79Q170.19 1.09 169.68 1.61Q169.18 2.12 168.96 2.85Q168.73 3.58 168.73 4.42L168.73 4.42Q168.73 6.24 169.75 7.28Q170.78 8.31 173.24 8.31L173.24 8.31Q174.05 8.31 174.93 8.20Q175.82 8.09 176.54 7.84L176.54 7.84L177.05 10.66Q176.32 10.94 175.28 11.13Q174.25 11.31 172.85 11.31L172.85 11.31Q170.83 11.31 169.39 10.78Q167.95 10.24 167.02 9.32Q166.10 8.40 165.67 7.14Q165.23 5.88 165.23 4.42ZM182.00 6.10L182.00 0.70L179.01 0.70L179.01-2.16L182.00-2.16L182.00-5.46L185.45-6.02L185.45-2.16L190.96-2.16L190.96 0.70L185.45 0.70L185.45 6.02Q185.45 6.74 185.59 7.19Q185.73 7.64 185.98 7.89Q186.23 8.14 186.60 8.23Q186.96 8.31 187.41 8.31L187.41 8.31Q187.88 8.31 188.29 8.28Q188.70 8.26 189.07 8.19Q189.45 8.12 189.86 7.98Q190.26 7.84 190.74 7.61L190.74 7.61L191.22 10.58Q190.26 10.97 189.16 11.14Q188.05 11.31 187.02 11.31L187.02 11.31Q185.81 11.31 184.89 11.11Q183.96 10.92 183.32 10.36Q182.68 9.80 182.34 8.77Q182.00 7.75 182.00 6.10L182.00 6.10ZM198.38 8.40L198.38 8.40Q199.64 8.40 200.32 8.21Q200.99 8.03 200.99 7.47L200.99 7.47Q200.99 7.11 200.78 6.86Q200.57 6.60 200.19 6.42Q199.81 6.24 199.32 6.07Q198.83 5.90 198.30 5.74L198.30 5.74Q197.54 5.51 196.76 5.22Q195.98 4.92 195.33 4.48Q194.69 4.03 194.27 3.34Q193.85 2.66 193.85 1.62L193.85 1.62Q193.85 0.78 194.17 0.04Q194.49-0.70 195.18-1.28Q195.86-1.85 196.93-2.17Q197.99-2.50 199.48-2.50L199.48-2.50Q200.76-2.50 201.87-2.30Q202.98-2.10 203.79-1.74L203.79-1.74L203.26 1.17Q202.78 1.03 201.77 0.71Q200.76 0.39 199.50 0.39L199.50 0.39Q198.19 0.39 197.73 0.71Q197.26 1.03 197.26 1.40L197.26 1.40Q197.26 1.70 197.47 1.94Q197.68 2.18 198.03 2.38Q198.38 2.57 198.85 2.75Q199.31 2.94 199.84 3.10L199.84 3.10Q200.60 3.36 201.41 3.66Q202.22 3.97 202.88 4.43Q203.54 4.90 203.96 5.61Q204.38 6.32 204.38 7.36L204.38 7.36Q204.38 8.17 204.07 8.90Q203.76 9.63 203.05 10.16Q202.33 10.69 201.18 11Q200.04 11.31 198.36 11.31L198.36 11.31Q196.65 11.31 195.44 10.92Q194.24 10.52 193.51 10.22L193.51 10.22L194.04 7.33Q195.02 7.72 196.13 8.06Q197.24 8.40 198.38 8.40Z"/>
    </g>
</svg>