<?xml version="1.0" encoding="UTF-8"?>
<svg height="34" width="134.8" version="1.1" xmlns="http://www.w3.org/2000/svg">
    <rect
        height="32"
        width="132.8"
        rx="1"
        ry="1"
        x="1"
        y="1"
        fill="#427819"
        stroke="#8adb4d"
        stroke-width="1"
         />
    <g transform="translate(0, 14)">
        <path fill="#8adb4d" d="M11.65-6.33L14.51-6.33Q14.70-5.74 15.00-4.82Q15.29-3.90 15.63-2.83Q15.96-1.77 16.30-0.68Q16.64 0.42 16.94 1.34L16.94 1.34Q17.28 0.30 17.64-0.80Q18.01-1.91 18.34-2.93Q18.68-3.95 18.96-4.85Q19.24-5.74 19.46-6.33L19.46-6.33L22.32-6.33Q22.52-4.06 22.70-1.91Q22.88 0.25 23.01 2.36Q23.13 4.48 23.22 6.62Q23.30 8.76 23.36 11L23.36 11L20.19 11L20.36-2.47L18.23 4.87L15.71 4.87L13.67-2.47L13.81 11L10.64 11Q10.73 8.87 10.83 6.58Q10.92 4.28 11.04 2.01Q11.15-0.26 11.30-2.38Q11.46-4.51 11.65-6.33L11.65-6.33ZM31.03 8.54L31.03 8.54Q31.59 8.54 32.12 8.52Q32.65 8.51 33.04 8.45L33.04 8.45L33.04 5.43Q32.71 5.37 32.23 5.33Q31.76 5.29 31.36 5.29L31.36 5.29Q30.83 5.29 30.33 5.36Q29.82 5.43 29.45 5.60Q29.07 5.76 28.84 6.07Q28.62 6.38 28.62 6.88L28.62 6.88Q28.62 7.78 29.29 8.16Q29.96 8.54 31.03 8.54ZM30.72-2.50L30.72-2.50Q32.34-2.50 33.42-2.12Q34.50-1.74 35.14-1.05Q35.79-0.37 36.07 0.63Q36.35 1.62 36.35 2.85L36.35 2.85L36.35 10.69Q35.59 10.86 34.11 11.08Q32.62 11.31 30.78 11.31L30.78 11.31Q29.52 11.31 28.49 11.08Q27.47 10.86 26.74 10.34Q26.02 9.82 25.62 9.00Q25.23 8.17 25.23 6.97L25.23 6.97Q25.23 5.82 25.68 5.04Q26.13 4.25 26.88 3.78Q27.64 3.30 28.62 3.09Q29.60 2.88 30.66 2.88L30.66 2.88Q32.01 2.88 33.04 3.10L33.04 3.10L33.04 2.68Q33.04 1.70 32.43 1.05Q31.81 0.39 30.30 0.39L30.30 0.39Q29.32 0.39 28.41 0.53Q27.50 0.67 26.94 0.86L26.94 0.86L26.46-1.91Q27.11-2.13 28.28-2.31Q29.46-2.50 30.72-2.50ZM43.24-8.43L43.24 3.05Q43.74 2.46 44.26 1.80Q44.78 1.14 45.27 0.44Q45.76-0.26 46.20-0.91Q46.65-1.57 46.99-2.16L46.99-2.16L51.13-2.16Q50.63-1.52 49.98-0.76Q49.34-0.00 48.65 0.78Q47.97 1.56 47.28 2.29Q46.60 3.02 46.04 3.64L46.04 3.64Q46.74 4.31 47.55 5.25Q48.36 6.18 49.14 7.19Q49.93 8.20 50.59 9.21Q51.24 10.22 51.64 11L51.64 11L47.69 11Q47.35 10.30 46.81 9.42Q46.26 8.54 45.64 7.68Q45.03 6.83 44.40 6.06Q43.77 5.29 43.24 4.78L43.24 4.78L43.24 11L39.76 11L39.76-7.84L43.24-8.43ZM52.87 4.53L52.87 4.53Q52.87 2.80 53.40 1.48Q53.93 0.16 54.80-0.72Q55.67-1.60 56.79-2.05Q57.91-2.50 59.08-2.50L59.08-2.50Q62.00-2.50 63.51-0.77Q65.02 0.95 65.02 4.25L65.02 4.25Q65.02 4.59 65.01 4.95Q64.99 5.32 64.96 5.54L64.96 5.54L56.42 5.54Q56.42 6.83 57.49 7.57Q58.55 8.31 60.23 8.31L60.23 8.31Q61.27 8.31 62.21 8.09Q63.14 7.86 63.79 7.64L63.79 7.64L64.26 10.58Q63.37 10.89 62.36 11.10Q61.35 11.31 60.09 11.31L60.09 11.31Q58.41 11.31 57.08 10.87Q55.75 10.44 54.81 9.59Q53.88 8.73 53.37 7.47Q52.87 6.21 52.87 4.53ZM56.42 3.16L61.69 3.16Q61.69 2.63 61.55 2.14Q61.41 1.65 61.10 1.26Q60.79 0.86 60.32 0.63Q59.84 0.39 59.14 0.39L59.14 0.39Q58.47 0.39 57.98 0.61Q57.49 0.84 57.17 1.23Q56.84 1.62 56.66 2.12Q56.48 2.63 56.42 3.16L56.42 3.16ZM73.36 11L69.89 11L69.89 0.70L67.01 0.70L67.01-2.16L69.89-2.16L69.89-2.92Q69.89-4.51 70.35-5.56Q70.82-6.61 71.60-7.24Q72.38-7.87 73.39-8.14Q74.40-8.40 75.46-8.40L75.46-8.40Q76.56-8.40 77.70-8.21Q78.85-8.01 79.78-7.56L79.78-7.56L79.19-4.76Q78.54-4.99 77.58-5.23Q76.61-5.46 75.74-5.46L75.74-5.46Q75.27-5.46 74.83-5.38Q74.40-5.30 74.08-5.02Q73.76-4.74 73.56-4.22Q73.36-3.70 73.36-2.86L73.36-2.86L73.36-2.16L78.77-2.16L78.77 0.70L73.36 0.70L73.36 11ZM87.95-5.94L87.95-5.94Q87.95-4.93 87.31-4.34Q86.66-3.76 85.77-3.76L85.77-3.76Q84.87-3.76 84.24-4.34Q83.61-4.93 83.61-5.94L83.61-5.94Q83.61-6.98 84.24-7.56Q84.87-8.15 85.77-8.15L85.77-8.15Q86.66-8.15 87.31-7.56Q87.95-6.98 87.95-5.94ZM92.63 7.67L93.08 10.44Q92.01 10.94 91.07 11.13Q90.14 11.31 89.35 11.31L89.35 11.31Q88.01 11.31 87.10 10.92Q86.19 10.52 85.64 9.78Q85.10 9.04 84.87 7.98Q84.65 6.91 84.65 5.54L84.65 5.54L84.65 0.70L81.01 0.70L81.01-2.16L88.09-2.16L88.09 5.99Q88.09 7.16 88.53 7.74Q88.96 8.31 89.97 8.31L89.97 8.31Q90.44 8.31 91.12 8.19Q91.79 8.06 92.63 7.67L92.63 7.67ZM106.63 7.67L107.08 10.44Q106.99 10.50 106.70 10.64Q106.40 10.78 105.93 10.93Q105.45 11.08 104.77 11.20Q104.08 11.31 103.21 11.31L103.21 11.31Q100.83 11.31 99.74 9.89Q98.65 8.48 98.65 5.76L98.65 5.76L98.65-5.41L95.01-5.41L95.01-8.26L102.09-8.26L102.09 6.02Q102.09 7.36 102.62 7.84Q103.16 8.31 103.97 8.31L103.97 8.31Q105.00 8.31 105.70 8.03Q106.40 7.75 106.63 7.67L106.63 7.67ZM108.87 4.53L108.87 4.53Q108.87 2.80 109.40 1.48Q109.93 0.16 110.80-0.72Q111.67-1.60 112.79-2.05Q113.91-2.50 115.08-2.50L115.08-2.50Q118.00-2.50 119.51-0.77Q121.02 0.95 121.02 4.25L121.02 4.25Q121.02 4.59 121.01 4.95Q120.99 5.32 120.96 5.54L120.96 5.54L112.42 5.54Q112.42 6.83 113.49 7.57Q114.55 8.31 116.23 8.31L116.23 8.31Q117.27 8.31 118.21 8.09Q119.14 7.86 119.79 7.64L119.79 7.64L120.26 10.58Q119.37 10.89 118.36 11.10Q117.35 11.31 116.09 11.31L116.09 11.31Q114.41 11.31 113.08 10.87Q111.75 10.44 110.81 9.59Q109.88 8.73 109.37 7.47Q108.87 6.21 108.87 4.53ZM112.42 3.16L117.69 3.16Q117.69 2.63 117.55 2.14Q117.41 1.65 117.10 1.26Q116.79 0.86 116.32 0.63Q115.84 0.39 115.14 0.39L115.14 0.39Q114.47 0.39 113.98 0.61Q113.49 0.84 113.17 1.23Q112.84 1.62 112.66 2.12Q112.48 2.63 112.42 3.16L112.42 3.16Z"/>
    </g>
</svg>