<?xml version="1.0" encoding="UTF-8"?>
<svg height="34" width="78.4" version="1.1" xmlns="http://www.w3.org/2000/svg">
    <rect
        height="32"
        width="76.4"
        rx="14"
        ry="14"
        x="1"
        y="1"
        fill="#f49a22"
        stroke="#7a4706"
        stroke-width="1"
         />
    <g transform="translate(0, 14)">
        <path fill="#7a4706" d="M18.74-3.73L18.74-3.73Q17.50-3.73 16.66-3.28Q15.82-2.83 15.28-2.03Q14.73-1.24 14.49-0.13Q14.26 0.98 14.26 2.32L14.26 2.32Q14.26 5.43 15.24 6.90Q16.22 8.37 18.12 8.37L18.12 8.37Q18.43 8.37 18.79 8.34Q19.16 8.31 19.46 8.26L19.46 8.26L19.46 1.93L22.91 1.93L22.91 10.58Q22.29 10.80 20.99 11.08Q19.69 11.36 17.84 11.36L17.84 11.36Q16.22 11.36 14.91 10.79Q13.61 10.22 12.69 9.08Q11.76 7.95 11.26 6.25Q10.76 4.56 10.76 2.32L10.76 2.32Q10.76 0.11 11.34-1.59Q11.93-3.28 12.94-4.43Q13.95-5.58 15.32-6.15Q16.69-6.72 18.26-6.72L18.26-6.72Q19.27-6.72 20.07-6.57Q20.86-6.42 21.45-6.22Q22.04-6.02 22.42-5.80Q22.80-5.58 22.99-5.46L22.99-5.46L22.10-2.72Q21.48-3.11 20.58-3.42Q19.69-3.73 18.74-3.73ZM37.75 11L34.05 11L33.24 7.00L28.62 7.00L27.84 11L24.25 11Q25.48 5.88 26.74 1.66Q28.00-2.55 29.18-6.33L29.18-6.33L32.93-6.33Q34.16-2.52 35.38 1.75Q36.60 6.02 37.75 11L37.75 11ZM30.97-2.97L30.97-2.97Q30.69-1.99 30.45-1.11Q30.22-0.23 30.01 0.63Q29.80 1.48 29.61 2.35Q29.43 3.22 29.26 4.14L29.26 4.14L32.65 4.14Q32.48 3.22 32.32 2.35Q32.15 1.48 31.94 0.63Q31.73-0.23 31.49-1.11Q31.25-1.99 30.97-2.97ZM39.65-6.33L42.51-6.33Q42.70-5.74 43.00-4.82Q43.29-3.90 43.63-2.83Q43.96-1.77 44.30-0.68Q44.64 0.42 44.94 1.34L44.94 1.34Q45.28 0.30 45.64-0.80Q46.01-1.91 46.34-2.93Q46.68-3.95 46.96-4.85Q47.24-5.74 47.46-6.33L47.46-6.33L50.32-6.33Q50.52-4.06 50.70-1.91Q50.88 0.25 51.01 2.36Q51.13 4.48 51.22 6.62Q51.30 8.76 51.36 11L51.36 11L48.19 11L48.36-2.47L46.23 4.87L43.71 4.87L41.67-2.47L41.81 11L38.64 11Q38.73 8.87 38.83 6.58Q38.92 4.28 39.04 2.01Q39.15-0.26 39.30-2.38Q39.46-4.51 39.65-6.33L39.65-6.33ZM58.50 8.48L58.50 8.48Q59.36 8.48 59.94 8.30Q60.51 8.12 60.85 7.79Q61.18 7.47 61.31 7.07Q61.44 6.66 61.44 6.24L61.44 6.24Q61.44 5.71 61.13 5.29Q60.82 4.87 60.34 4.55Q59.87 4.22 59.28 3.96Q58.69 3.69 58.10 3.47L58.10 3.47Q57.32 3.19 56.48 2.82Q55.64 2.46 54.95 1.90Q54.27 1.34 53.82 0.51Q53.37-0.31 53.37-1.54L53.37-1.54Q53.37-3.98 54.95-5.35Q56.54-6.72 59.31-6.72L59.31-6.72Q60.90-6.72 62.09-6.36Q63.28-6.00 64.10-5.55L64.10-5.55L63.09-2.89Q62.39-3.28 61.53-3.56Q60.68-3.84 59.56-3.84L59.56-3.84Q56.82-3.84 56.82-1.85L56.82-1.85Q56.82-1.35 57.10-0.97Q57.38-0.59 57.81-0.30Q58.24-0.00 58.79 0.22Q59.34 0.44 59.87 0.64L59.87 0.64Q60.68 0.95 61.56 1.33Q62.44 1.70 63.19 2.33Q63.93 2.96 64.40 3.90Q64.88 4.84 64.88 6.27L64.88 6.27Q64.88 8.70 63.30 10.03Q61.72 11.36 58.50 11.36L58.50 11.36Q56.34 11.36 55.05 10.90Q53.76 10.44 53.12 10.05L53.12 10.05L54.13 7.25Q54.88 7.70 55.93 8.09Q56.98 8.48 58.50 8.48Z"/>
    </g>
</svg>