<?xml version="1.0" encoding="UTF-8"?><svg height="26" width="74.4" version="1.1" xmlns="http://www.w3.org/2000/svg"><!--Created by Josélio de S. C. Júnior - 2021 - https://github.com/joseliojunior --><rect height="24" width="72.4" rx="1" ry="1" x="1" y="1" fill="#f49a22" stroke="#7a4706" stroke-width="1" /><g transform="translate(0, 8)"><path fill="#7a4706" d="M24.99 1.58L24.99 1.58Q24.29 1.58 23.81 1.84Q23.33 2.10 23.02 2.55Q22.70 3.01 22.57 3.64Q22.43 4.27 22.43 5.04L22.43 5.04Q22.43 6.82 22.99 7.66Q23.55 8.50 24.64 8.50L24.64 8.50Q24.82 8.50 25.02 8.48Q25.23 8.46 25.41 8.43L25.41 8.43L25.41 4.82L27.38 4.82L27.38 9.76Q27.02 9.89 26.28 10.05Q25.54 10.21 24.48 10.21L24.48 10.21Q23.55 10.21 22.81 9.88Q22.06 9.55 21.54 8.90Q21.01 8.26 20.72 7.29Q20.43 6.32 20.43 5.04L20.43 5.04Q20.43 3.78 20.77 2.81Q21.10 1.84 21.68 1.18Q22.26 0.53 23.04 0.20Q23.82-0.13 24.72-0.13L24.72-0.13Q25.30-0.13 25.75-0.04Q26.21 0.05 26.54 0.16Q26.88 0.27 27.10 0.40Q27.31 0.53 27.42 0.59L27.42 0.59L26.91 2.16Q26.56 1.94 26.05 1.76Q25.54 1.58 24.99 1.58ZM35.86 10L33.74 10L33.28 7.71L30.64 7.71L30.19 10L28.14 10Q28.85 7.07 29.57 4.66Q30.29 2.26 30.96 0.10L30.96 0.10L33.10 0.10Q33.81 2.27 34.50 4.71Q35.20 7.15 35.86 10L35.86 10ZM31.98 2.02L31.98 2.02Q31.82 2.58 31.69 3.08Q31.55 3.58 31.43 4.07Q31.31 4.56 31.21 5.06Q31.10 5.55 31.01 6.08L31.01 6.08L32.94 6.08Q32.85 5.55 32.75 5.06Q32.66 4.56 32.54 4.07Q32.42 3.58 32.28 3.08Q32.14 2.58 31.98 2.02ZM36.94 0.10L38.58 0.10Q38.69 0.43 38.86 0.96Q39.02 1.49 39.22 2.10Q39.41 2.70 39.60 3.33Q39.79 3.95 39.97 4.48L39.97 4.48Q40.16 3.89 40.37 3.26Q40.58 2.62 40.77 2.04Q40.96 1.46 41.12 0.94Q41.28 0.43 41.41 0.10L41.41 0.10L43.04 0.10Q43.15 1.39 43.26 2.62Q43.36 3.86 43.43 5.06Q43.50 6.27 43.55 7.50Q43.60 8.72 43.63 10L43.63 10L41.82 10L41.92 2.30L40.70 6.50L39.26 6.50L38.10 2.30L38.18 10L36.37 10Q36.42 8.78 36.47 7.47Q36.53 6.16 36.59 4.86Q36.66 3.57 36.74 2.35Q36.83 1.14 36.94 0.10L36.94 0.10ZM47.71 8.56L47.71 8.56Q48.21 8.56 48.54 8.46Q48.86 8.35 49.06 8.17Q49.25 7.98 49.32 7.75Q49.39 7.52 49.39 7.28L49.39 7.28Q49.39 6.98 49.22 6.74Q49.04 6.50 48.77 6.31Q48.50 6.13 48.16 5.98Q47.82 5.82 47.49 5.70L47.49 5.70Q47.04 5.54 46.56 5.33Q46.08 5.12 45.69 4.80Q45.30 4.48 45.04 4.01Q44.78 3.54 44.78 2.83L44.78 2.83Q44.78 1.44 45.69 0.66Q46.59-0.13 48.18-0.13L48.18-0.13Q49.09-0.13 49.77 0.08Q50.45 0.29 50.91 0.54L50.91 0.54L50.34 2.06Q49.94 1.84 49.45 1.68Q48.96 1.52 48.32 1.52L48.32 1.52Q46.75 1.52 46.75 2.66L46.75 2.66Q46.75 2.94 46.91 3.16Q47.07 3.38 47.32 3.54Q47.57 3.71 47.88 3.84Q48.19 3.97 48.50 4.08L48.50 4.08Q48.96 4.26 49.46 4.47Q49.97 4.69 50.39 5.05Q50.82 5.41 51.09 5.94Q51.36 6.48 51.36 7.30L51.36 7.30Q51.36 8.69 50.46 9.45Q49.55 10.21 47.71 10.21L47.71 10.21Q46.48 10.21 45.74 9.94Q45.01 9.68 44.64 9.46L44.64 9.46L45.22 7.86Q45.65 8.11 46.25 8.34Q46.85 8.56 47.71 8.56Z"/></g></svg>