<?xml version="1.0" encoding="UTF-8"?>
<svg height="322" width="90.4" version="1.1" xmlns="http://www.w3.org/2000/svg"><!--Created by Josélio de S. C. Júnior - 2021 - https://github.com/joseliojunior -->
    <rect
        height="32"
        width="88.4"
        rx="1"
        ry="1"
        x="1" y="1"
        fill="#f49a22"
        stroke="#7a4706"
        stroke-width="1" />
    <g transform="translate(0, 12)">
        <path fill="#7a4706" stroke="none" d="M27.49-0.62L27.49-0.62Q26.43-0.62 25.71-0.24Q24.99 0.14 24.52 0.83Q24.06 1.51 23.85 2.46Q23.65 3.41 23.65 4.56L23.65 4.56Q23.65 7.22 24.49 8.48Q25.33 9.74 26.96 9.74L26.96 9.74Q27.22 9.74 27.54 9.72Q27.85 9.70 28.11 9.65L28.11 9.65L28.11 4.22L31.06 4.22L31.06 11.64Q30.54 11.83 29.42 12.07Q28.30 12.31 26.72 12.31L26.72 12.31Q25.33 12.31 24.21 11.82Q23.10 11.33 22.30 10.36Q21.51 9.38 21.08 7.93Q20.65 6.48 20.65 4.56L20.65 4.56Q20.65 2.66 21.15 1.21Q21.66-0.24 22.52-1.22Q23.38-2.21 24.56-2.70Q25.74-3.19 27.08-3.19L27.08-3.19Q27.94-3.19 28.63-3.06Q29.31-2.93 29.82-2.76Q30.32-2.59 30.64-2.40Q30.97-2.21 31.14-2.11L31.14-2.11L30.37 0.24Q29.84-0.10 29.07-0.36Q28.30-0.62 27.49-0.62ZM43.78 12L40.62 12L39.92 8.57L35.96 8.57L35.29 12L32.22 12Q33.27 7.61 34.35 4.00Q35.43 0.38 36.44-2.86L36.44-2.86L39.66-2.86Q40.71 0.41 41.76 4.07Q42.80 7.73 43.78 12L43.78 12ZM37.98 0.02L37.98 0.02Q37.74 0.86 37.53 1.62Q37.33 2.38 37.15 3.11Q36.97 3.84 36.81 4.58Q36.66 5.33 36.51 6.12L36.51 6.12L39.42 6.12Q39.27 5.33 39.13 4.58Q38.98 3.84 38.80 3.11Q38.62 2.38 38.42 1.62Q38.22 0.86 37.98 0.02ZM45.42-2.86L47.86-2.86Q48.03-2.35 48.28-1.56Q48.54-0.77 48.82 0.14Q49.11 1.06 49.40 1.99Q49.69 2.93 49.95 3.72L49.95 3.72Q50.24 2.83 50.55 1.88Q50.86 0.94 51.15 0.06Q51.44-0.82 51.68-1.58Q51.92-2.35 52.11-2.86L52.11-2.86L54.56-2.86Q54.73-0.91 54.88 0.94Q55.04 2.78 55.15 4.60Q55.26 6.41 55.33 8.24Q55.40 10.08 55.45 12L55.45 12L52.74 12L52.88 0.46L51.06 6.74L48.90 6.74L47.14 0.46L47.26 12L44.55 12Q44.62 10.18 44.71 8.21Q44.79 6.24 44.89 4.30Q44.98 2.35 45.12 0.53Q45.25-1.30 45.42-2.86L45.42-2.86ZM61.57 9.84L61.57 9.84Q62.31 9.84 62.80 9.68Q63.30 9.53 63.58 9.25Q63.87 8.98 63.98 8.63Q64.09 8.28 64.09 7.92L64.09 7.92Q64.09 7.46 63.82 7.10Q63.56 6.74 63.15 6.47Q62.74 6.19 62.24 5.96Q61.74 5.74 61.23 5.54L61.23 5.54Q60.56 5.30 59.84 4.99Q59.12 4.68 58.53 4.20Q57.94 3.72 57.56 3.01Q57.18 2.30 57.18 1.25L57.18 1.25Q57.18-0.84 58.53-2.02Q59.89-3.19 62.26-3.19L62.26-3.19Q63.63-3.19 64.65-2.88Q65.67-2.57 66.37-2.18L66.37-2.18L65.50 0.10Q64.90-0.24 64.17-0.48Q63.44-0.72 62.48-0.72L62.48-0.72Q60.13-0.72 60.13 0.98L60.13 0.98Q60.13 1.42 60.37 1.74Q60.61 2.06 60.98 2.32Q61.35 2.57 61.82 2.76Q62.29 2.95 62.74 3.12L62.74 3.12Q63.44 3.38 64.20 3.71Q64.95 4.03 65.59 4.57Q66.22 5.11 66.63 5.92Q67.04 6.72 67.04 7.94L67.04 7.94Q67.04 10.03 65.68 11.17Q64.33 12.31 61.57 12.31L61.57 12.31Q59.72 12.31 58.62 11.92Q57.51 11.52 56.96 11.18L56.96 11.18L57.82 8.78Q58.47 9.17 59.37 9.50Q60.27 9.84 61.57 9.84Z"/>
    </g>
</svg>