<?xml version="1.0" encoding="UTF-8"?>
<svg height="34" width="66.2" version="1.1" xmlns="http://www.w3.org/2000/svg"><!--Created by Josélio de S. C. Júnior - 2021 - https://github.com/joseliojunior -->
    <rect
        height="32"
        width="64.2"
        rx="16"
        ry="16"
        x="1" y="1"
        fill="#004289"
        stroke="#248eff"
        stroke-width="1" />
    <g transform="translate(0, 12)">
        <path fill="#248eff" stroke="none" d="M26.84 6.07L26.84 0.84Q26.41 1.39 25.95 2.02Q25.50 2.64 25.05 3.32Q24.61 4.01 24.20 4.70Q23.79 5.40 23.48 6.07L23.48 6.07L26.84 6.07ZM27.15-2.86L29.79-2.86L29.79 6.07L31.40 6.07L31.40 8.50L29.79 8.50L29.79 12L26.84 12L26.84 8.50L20.65 8.50L20.65 6.34Q21.10 5.40 21.82 4.21Q22.54 3.02 23.41 1.78Q24.27 0.53 25.23-0.68Q26.19-1.90 27.15-2.86L27.15-2.86ZM36.25-0.38L36.25 9.60Q36.37 9.62 36.51 9.62Q36.66 9.62 36.78 9.62L36.78 9.62Q37.78 9.62 38.47 9.24Q39.15 8.86 39.57 8.18Q39.99 7.51 40.17 6.59Q40.35 5.66 40.35 4.56L40.35 4.56Q40.35 3.60 40.21 2.69Q40.06 1.78 39.70 1.08Q39.34 0.38 38.72-0.04Q38.10-0.46 37.11-0.46L37.11-0.46Q36.92-0.46 36.68-0.44Q36.44-0.43 36.25-0.38L36.25-0.38ZM43.35 4.56L43.35 4.56Q43.35 6.62 42.84 8.08Q42.32 9.53 41.41 10.44Q40.50 11.35 39.24 11.77Q37.98 12.19 36.46 12.19L36.46 12.19Q35.67 12.19 34.92 12.11Q34.16 12.02 33.30 11.83L33.30 11.83L33.30-2.66Q34.30-2.88 35.19-2.95Q36.08-3.02 36.85-3.02L36.85-3.02Q38.31-3.02 39.52-2.59Q40.74-2.16 41.58-1.24Q42.42-0.31 42.88 1.12Q43.35 2.54 43.35 4.56Z"/>
    </g>
</svg>