<?xml version="1.0" encoding="UTF-8"?>
<svg height="26" width="58.2" version="1.1" xmlns="http://www.w3.org/2000/svg"><!--Created by Josélio de S. C. Júnior - 2021 - https://github.com/joseliojunior -->
    <rect
        height="24"
        width="56.2"
        rx="12"
        ry="12"
        x="1" y="1"
        fill="#004289"
        stroke="#248eff"
        stroke-width="1" />
    <g transform="translate(0, 8)">
        <path fill="#248eff" d="M24.56 6.05L24.56 2.56Q24.27 2.93 23.97 3.34Q23.66 3.76 23.37 4.22Q23.07 4.67 22.80 5.14Q22.53 5.60 22.32 6.05L22.32 6.05L24.56 6.05ZM24.77 0.10L26.53 0.10L26.53 6.05L27.60 6.05L27.60 7.66L26.53 7.66L26.53 10L24.56 10L24.56 7.66L20.43 7.66L20.43 6.22Q20.74 5.60 21.22 4.81Q21.70 4.02 22.27 3.18Q22.85 2.35 23.49 1.54Q24.13 0.74 24.77 0.10L24.77 0.10ZM30.83 1.74L30.83 8.40Q30.91 8.42 31.01 8.42Q31.10 8.42 31.18 8.42L31.18 8.42Q31.86 8.42 32.31 8.16Q32.77 7.90 33.05 7.46Q33.33 7.01 33.45 6.39Q33.57 5.78 33.57 5.04L33.57 5.04Q33.57 4.40 33.47 3.79Q33.38 3.18 33.14 2.72Q32.90 2.26 32.48 1.98Q32.06 1.70 31.41 1.70L31.41 1.70Q31.28 1.70 31.12 1.70Q30.96 1.71 30.83 1.74L30.83 1.74ZM35.57 5.04L35.57 5.04Q35.57 6.42 35.22 7.38Q34.88 8.35 34.27 8.96Q33.66 9.57 32.82 9.85Q31.98 10.13 30.98 10.13L30.98 10.13Q30.45 10.13 29.94 10.07Q29.44 10.02 28.86 9.89L28.86 9.89L28.86 0.22Q29.54 0.08 30.13 0.03Q30.72-0.02 31.23-0.02L31.23-0.02Q32.21-0.02 33.02 0.27Q33.82 0.56 34.38 1.18Q34.94 1.79 35.26 2.74Q35.57 3.70 35.57 5.04Z"/>
    </g>
</svg>