<?xml version="1.0" encoding="UTF-8"?>
<svg height="26" width="106.8" version="1.1" xmlns="http://www.w3.org/2000/svg"><!--Created by Josélio de S. C. Júnior - 2021 - https://github.com/joseliojunior -->
    <rect
        height="24"
        width="104.8"
        rx="12"
        ry="12"
        x="1" y="1"
        fill="#800000"
        stroke="#ff1a1a"
        stroke-width="1" />
    <g transform="translate(0, 8)">
        <path fill="#ff1a1a" d="M23.71 8.56L23.71 8.56Q24.21 8.56 24.54 8.46Q24.86 8.35 25.06 8.17Q25.25 7.98 25.32 7.75Q25.39 7.52 25.39 7.28L25.39 7.28Q25.39 6.98 25.22 6.74Q25.04 6.50 24.77 6.31Q24.50 6.13 24.16 5.98Q23.82 5.82 23.49 5.70L23.49 5.70Q23.04 5.54 22.56 5.33Q22.08 5.12 21.69 4.80Q21.30 4.48 21.04 4.01Q20.78 3.54 20.78 2.83L20.78 2.83Q20.78 1.44 21.69 0.66Q22.59-0.13 24.18-0.13L24.18-0.13Q25.09-0.13 25.77 0.08Q26.45 0.29 26.91 0.54L26.91 0.54L26.34 2.06Q25.94 1.84 25.45 1.68Q24.96 1.52 24.32 1.52L24.32 1.52Q22.75 1.52 22.75 2.66L22.75 2.66Q22.75 2.94 22.91 3.16Q23.07 3.38 23.32 3.54Q23.57 3.71 23.88 3.84Q24.19 3.97 24.50 4.08L24.50 4.08Q24.96 4.26 25.46 4.47Q25.97 4.69 26.39 5.05Q26.82 5.41 27.09 5.94Q27.36 6.48 27.36 7.30L27.36 7.30Q27.36 8.69 26.46 9.45Q25.55 10.21 23.71 10.21L23.71 10.21Q22.48 10.21 21.74 9.94Q21.01 9.68 20.64 9.46L20.64 9.46L21.22 7.86Q21.65 8.11 22.25 8.34Q22.85 8.56 23.71 8.56ZM30.50 6.30L30.50 6.30Q30.50 7.34 30.84 7.91Q31.18 8.48 31.89 8.48L31.89 8.48Q32.22 8.48 32.52 8.40Q32.82 8.32 33.04 8.19L33.04 8.19L33.04 4.06Q32.90 4.05 32.65 4.02Q32.40 4 32.13 4L32.13 4Q31.31 4 30.90 4.65Q30.50 5.30 30.50 6.30ZM28.50 6.24L28.50 6.24Q28.50 5.38 28.74 4.65Q28.98 3.92 29.43 3.41Q29.89 2.90 30.57 2.61Q31.25 2.32 32.11 2.32L32.11 2.32Q32.48 2.32 32.89 2.35Q33.30 2.38 33.68 2.44Q34.06 2.50 34.41 2.57Q34.75 2.64 35.01 2.72L35.01 2.72L35.01 12.64L33.04 12.64L33.04 9.79Q32.67 9.97 32.26 10.07Q31.86 10.18 31.49 10.18L31.49 10.18Q30.75 10.18 30.19 9.90Q29.63 9.62 29.26 9.10Q28.88 8.59 28.69 7.86Q28.50 7.14 28.50 6.24ZM43.01 2.48L43.01 9.74Q42.46 9.89 41.69 10.03Q40.91 10.18 40 10.18L40 10.18Q39.07 10.18 38.48 9.92Q37.89 9.66 37.54 9.19Q37.20 8.72 37.07 8.08Q36.94 7.44 36.94 6.67L36.94 6.67L36.94 2.48L38.91 2.48L38.91 6.42Q38.91 7.46 39.16 7.96Q39.41 8.46 40.13 8.46L40.13 8.46Q40.58 8.46 41.02 8.38L41.02 8.38L41.02 2.48L43.01 2.48ZM48.54 0.32L48.54 0.32Q48.54 0.90 48.18 1.23Q47.81 1.57 47.30 1.57L47.30 1.57Q46.78 1.57 46.42 1.23Q46.06 0.90 46.06 0.32L46.06 0.32Q46.06-0.27 46.42-0.61Q46.78-0.94 47.30-0.94L47.30-0.94Q47.81-0.94 48.18-0.61Q48.54-0.27 48.54 0.32ZM51.22 8.10L51.47 9.68Q50.86 9.97 50.33 10.07Q49.79 10.18 49.34 10.18L49.34 10.18Q48.58 10.18 48.06 9.95Q47.54 9.73 47.22 9.30Q46.91 8.88 46.78 8.27Q46.66 7.66 46.66 6.88L46.66 6.88L46.66 4.11L44.58 4.11L44.58 2.48L48.62 2.48L48.62 7.14Q48.62 7.81 48.87 8.14Q49.12 8.46 49.70 8.46L49.70 8.46Q49.97 8.46 50.35 8.39Q50.74 8.32 51.22 8.10L51.22 8.10ZM59.34 2.66L58.99 4.48Q58.80 4.43 58.54 4.38Q58.27 4.34 58 4.30Q57.73 4.26 57.47 4.24Q57.22 4.22 57.04 4.22L57.04 4.22Q56.62 4.22 56.22 4.26Q55.82 4.30 55.41 4.42L55.41 4.42L55.41 10L53.42 10L53.42 2.98Q54.21 2.69 55.03 2.51Q55.86 2.34 56.96 2.34L56.96 2.34Q57.12 2.34 57.42 2.35Q57.71 2.37 58.05 2.41Q58.38 2.45 58.73 2.50Q59.07 2.56 59.34 2.66L59.34 2.66ZM67.34 2.66L66.99 4.48Q66.80 4.43 66.54 4.38Q66.27 4.34 66 4.30Q65.73 4.26 65.47 4.24Q65.22 4.22 65.04 4.22L65.04 4.22Q64.62 4.22 64.22 4.26Q63.82 4.30 63.41 4.42L63.41 4.42L63.41 10L61.42 10L61.42 2.98Q62.21 2.69 63.03 2.51Q63.86 2.34 64.96 2.34L64.96 2.34Q65.12 2.34 65.42 2.35Q65.71 2.37 66.05 2.41Q66.38 2.45 66.73 2.50Q67.07 2.56 67.34 2.66L67.34 2.66ZM68.50 6.30L68.50 6.30Q68.50 5.31 68.80 4.56Q69.10 3.81 69.60 3.30Q70.10 2.80 70.74 2.54Q71.38 2.29 72.05 2.29L72.05 2.29Q73.71 2.29 74.58 3.27Q75.44 4.26 75.44 6.14L75.44 6.14Q75.44 6.34 75.43 6.54Q75.42 6.75 75.41 6.88L75.41 6.88L70.53 6.88Q70.53 7.62 71.14 8.04Q71.74 8.46 72.70 8.46L72.70 8.46Q73.30 8.46 73.83 8.34Q74.37 8.21 74.74 8.08L74.74 8.08L75.01 9.76Q74.50 9.94 73.92 10.06Q73.34 10.18 72.62 10.18L72.62 10.18Q71.66 10.18 70.90 9.93Q70.14 9.68 69.61 9.19Q69.07 8.70 68.78 7.98Q68.50 7.26 68.50 6.30ZM70.53 5.52L73.54 5.52Q73.54 5.22 73.46 4.94Q73.38 4.66 73.20 4.43Q73.02 4.21 72.75 4.07Q72.48 3.94 72.08 3.94L72.08 3.94Q71.70 3.94 71.42 4.06Q71.14 4.19 70.95 4.42Q70.77 4.64 70.66 4.93Q70.56 5.22 70.53 5.52L70.53 5.52ZM83.22 8.10L83.47 9.68Q83.42 9.71 83.26 9.79Q83.09 9.87 82.82 9.96Q82.54 10.05 82.15 10.11Q81.76 10.18 81.26 10.18L81.26 10.18Q79.90 10.18 79.28 9.37Q78.66 8.56 78.66 7.01L78.66 7.01L78.66 0.62L76.58 0.62L76.58-1.01L80.62-1.01L80.62 7.15Q80.62 7.92 80.93 8.19Q81.23 8.46 81.70 8.46L81.70 8.46Q82.29 8.46 82.69 8.30Q83.09 8.14 83.22 8.10L83.22 8.10Z"/>
    </g>
</svg>