<?xml version="1.0" encoding="UTF-8"?>
<svg height="34" width="134.8" version="1.1" xmlns="http://www.w3.org/2000/svg">
    <rect
        height="32"
        width="132.8"
        rx="1"
        ry="1"
        x="1"
        y="1"
        fill="#800000"
        stroke="#ff1a1a"
        stroke-width="1"
         />
    <g transform="translate(0, 14)">
        <path fill="#ff1a1a" d="M16.50 8.48L16.50 8.48Q17.36 8.48 17.94 8.30Q18.51 8.12 18.85 7.79Q19.18 7.47 19.31 7.07Q19.44 6.66 19.44 6.24L19.44 6.24Q19.44 5.71 19.13 5.29Q18.82 4.87 18.34 4.55Q17.87 4.22 17.28 3.96Q16.69 3.69 16.10 3.47L16.10 3.47Q15.32 3.19 14.48 2.82Q13.64 2.46 12.95 1.90Q12.27 1.34 11.82 0.51Q11.37-0.31 11.37-1.54L11.37-1.54Q11.37-3.98 12.95-5.35Q14.54-6.72 17.31-6.72L17.31-6.72Q18.90-6.72 20.09-6.36Q21.28-6.00 22.10-5.55L22.10-5.55L21.09-2.89Q20.39-3.28 19.53-3.56Q18.68-3.84 17.56-3.84L17.56-3.84Q14.82-3.84 14.82-1.85L14.82-1.85Q14.82-1.35 15.10-0.97Q15.38-0.59 15.81-0.30Q16.24-0.00 16.79 0.22Q17.34 0.44 17.87 0.64L17.87 0.64Q18.68 0.95 19.56 1.33Q20.44 1.70 21.19 2.33Q21.93 2.96 22.40 3.90Q22.88 4.84 22.88 6.27L22.88 6.27Q22.88 8.70 21.30 10.03Q19.72 11.36 16.50 11.36L16.50 11.36Q14.34 11.36 13.05 10.90Q11.76 10.44 11.12 10.05L11.12 10.05L12.13 7.25Q12.88 7.70 13.93 8.09Q14.98 8.48 16.50 8.48ZM28.37 4.53L28.37 4.53Q28.37 6.35 28.97 7.35Q29.57 8.34 30.80 8.34L30.80 8.34Q31.39 8.34 31.91 8.20Q32.43 8.06 32.82 7.84L32.82 7.84L32.82 0.61Q32.57 0.58 32.13 0.54Q31.70 0.50 31.22 0.50L31.22 0.50Q29.80 0.50 29.08 1.63Q28.37 2.77 28.37 4.53ZM24.87 4.42L24.87 4.42Q24.87 2.91 25.29 1.63Q25.71 0.36 26.51-0.54Q27.30-1.43 28.49-1.94Q29.68-2.44 31.20-2.44L31.20-2.44Q31.84-2.44 32.55-2.38Q33.27-2.33 33.94-2.23Q34.61-2.13 35.21-2.01Q35.82-1.88 36.26-1.74L36.26-1.74L36.26 15.62L32.82 15.62L32.82 10.64Q32.18 10.94 31.46 11.13Q30.75 11.31 30.10 11.31L30.10 11.31Q28.82 11.31 27.84 10.82Q26.86 10.33 26.20 9.43Q25.54 8.54 25.20 7.26Q24.87 5.99 24.87 4.42ZM50.26-2.16L50.26 10.55Q49.31 10.80 47.95 11.06Q46.60 11.31 45 11.31L45 11.31Q43.38 11.31 42.34 10.86Q41.30 10.41 40.70 9.59Q40.10 8.76 39.88 7.64Q39.65 6.52 39.65 5.18L39.65 5.18L39.65-2.16L43.10-2.16L43.10 4.73Q43.10 6.55 43.53 7.43Q43.96 8.31 45.22 8.31L45.22 8.31Q46.01 8.31 46.79 8.17L46.79 8.17L46.79-2.16L50.26-2.16ZM59.95-5.94L59.95-5.94Q59.95-4.93 59.31-4.34Q58.66-3.76 57.77-3.76L57.77-3.76Q56.87-3.76 56.24-4.34Q55.61-4.93 55.61-5.94L55.61-5.94Q55.61-6.98 56.24-7.56Q56.87-8.15 57.77-8.15L57.77-8.15Q58.66-8.15 59.31-7.56Q59.95-6.98 59.95-5.94ZM64.63 7.67L65.08 10.44Q64.01 10.94 63.07 11.13Q62.14 11.31 61.35 11.31L61.35 11.31Q60.01 11.31 59.10 10.92Q58.19 10.52 57.64 9.78Q57.10 9.04 56.87 7.98Q56.65 6.91 56.65 5.54L56.65 5.54L56.65 0.70L53.01 0.70L53.01-2.16L60.09-2.16L60.09 5.99Q60.09 7.16 60.53 7.74Q60.96 8.31 61.97 8.31L61.97 8.31Q62.44 8.31 63.12 8.19Q63.79 8.06 64.63 7.67L64.63 7.67ZM78.85-1.85L78.24 1.34Q77.90 1.26 77.44 1.17Q76.98 1.09 76.50 1.02Q76.02 0.95 75.58 0.92Q75.13 0.89 74.82 0.89L74.82 0.89Q74.09 0.89 73.39 0.96Q72.69 1.03 71.96 1.23L71.96 1.23L71.96 11L68.49 11L68.49-1.29Q69.86-1.80 71.31-2.10Q72.75-2.41 74.68-2.41L74.68-2.41Q74.96-2.41 75.48-2.38Q76.00-2.36 76.58-2.29Q77.17-2.22 77.77-2.12Q78.38-2.02 78.85-1.85L78.85-1.85ZM92.85-1.85L92.24 1.34Q91.90 1.26 91.44 1.17Q90.98 1.09 90.50 1.02Q90.02 0.95 89.58 0.92Q89.13 0.89 88.82 0.89L88.82 0.89Q88.09 0.89 87.39 0.96Q86.69 1.03 85.96 1.23L85.96 1.23L85.96 11L82.49 11L82.49-1.29Q83.86-1.80 85.31-2.10Q86.75-2.41 88.68-2.41L88.68-2.41Q88.96-2.41 89.48-2.38Q90.00-2.36 90.58-2.29Q91.17-2.22 91.77-2.12Q92.38-2.02 92.85-1.85L92.85-1.85ZM94.87 4.53L94.87 4.53Q94.87 2.80 95.40 1.48Q95.93 0.16 96.80-0.72Q97.67-1.60 98.79-2.05Q99.91-2.50 101.08-2.50L101.08-2.50Q104.00-2.50 105.51-0.77Q107.02 0.95 107.02 4.25L107.02 4.25Q107.02 4.59 107.01 4.95Q106.99 5.32 106.96 5.54L106.96 5.54L98.42 5.54Q98.42 6.83 99.49 7.57Q100.55 8.31 102.23 8.31L102.23 8.31Q103.27 8.31 104.21 8.09Q105.14 7.86 105.79 7.64L105.79 7.64L106.26 10.58Q105.37 10.89 104.36 11.10Q103.35 11.31 102.09 11.31L102.09 11.31Q100.41 11.31 99.08 10.87Q97.75 10.44 96.81 9.59Q95.88 8.73 95.37 7.47Q94.87 6.21 94.87 4.53ZM98.42 3.16L103.69 3.16Q103.69 2.63 103.55 2.14Q103.41 1.65 103.10 1.26Q102.79 0.86 102.32 0.63Q101.84 0.39 101.14 0.39L101.14 0.39Q100.47 0.39 99.98 0.61Q99.49 0.84 99.17 1.23Q98.84 1.62 98.66 2.12Q98.48 2.63 98.42 3.16L98.42 3.16ZM120.63 7.67L121.08 10.44Q120.99 10.50 120.70 10.64Q120.40 10.78 119.93 10.93Q119.45 11.08 118.77 11.20Q118.08 11.31 117.21 11.31L117.21 11.31Q114.83 11.31 113.74 9.89Q112.65 8.48 112.65 5.76L112.65 5.76L112.65-5.41L109.01-5.41L109.01-8.26L116.09-8.26L116.09 6.02Q116.09 7.36 116.62 7.84Q117.16 8.31 117.97 8.31L117.97 8.31Q119.00 8.31 119.70 8.03Q120.40 7.75 120.63 7.67L120.63 7.67Z"/>
    </g>
</svg>