<?xml version="1.0" encoding="UTF-8"?>
<svg height="34" width="138.8" version="1.1" xmlns="http://www.w3.org/2000/svg">
    <rect
        height="32"
        width="136.8"
        rx="1"
        ry="1"
        x="1"
        y="1"
        fill="#800000"
        stroke="#ff1a1a"
        stroke-width="1"
         />
    <g transform="translate(0, 12)">
        <path fill="#ff1a1a" d="M25.57 9.84L25.57 9.84Q26.31 9.84 26.80 9.68Q27.30 9.53 27.58 9.25Q27.87 8.98 27.98 8.63Q28.09 8.28 28.09 7.92L28.09 7.92Q28.09 7.46 27.82 7.10Q27.56 6.74 27.15 6.47Q26.74 6.19 26.24 5.96Q25.74 5.74 25.23 5.54L25.23 5.54Q24.56 5.30 23.84 4.99Q23.12 4.68 22.53 4.20Q21.94 3.72 21.56 3.01Q21.18 2.30 21.18 1.25L21.18 1.25Q21.18-0.84 22.53-2.02Q23.89-3.19 26.26-3.19L26.26-3.19Q27.63-3.19 28.65-2.88Q29.67-2.57 30.37-2.18L30.37-2.18L29.50 0.10Q28.90-0.24 28.17-0.48Q27.44-0.72 26.48-0.72L26.48-0.72Q24.13-0.72 24.13 0.98L24.13 0.98Q24.13 1.42 24.37 1.74Q24.61 2.06 24.98 2.32Q25.35 2.57 25.82 2.76Q26.29 2.95 26.74 3.12L26.74 3.12Q27.44 3.38 28.20 3.71Q28.95 4.03 29.59 4.57Q30.22 5.11 30.63 5.92Q31.04 6.72 31.04 7.94L31.04 7.94Q31.04 10.03 29.68 11.17Q28.33 12.31 25.57 12.31L25.57 12.31Q23.72 12.31 22.62 11.92Q21.51 11.52 20.96 11.18L20.96 11.18L21.82 8.78Q22.47 9.17 23.37 9.50Q24.27 9.84 25.57 9.84ZM35.74 6.46L35.74 6.46Q35.74 8.02 36.26 8.87Q36.78 9.72 37.83 9.72L37.83 9.72Q38.34 9.72 38.78 9.60Q39.22 9.48 39.56 9.29L39.56 9.29L39.56 3.10Q39.34 3.07 38.97 3.04Q38.60 3 38.19 3L38.19 3Q36.97 3 36.36 3.97Q35.74 4.94 35.74 6.46ZM32.74 6.36L32.74 6.36Q32.74 5.06 33.10 3.97Q33.46 2.88 34.15 2.11Q34.83 1.34 35.85 0.91Q36.87 0.48 38.17 0.48L38.17 0.48Q38.72 0.48 39.33 0.53Q39.94 0.58 40.52 0.66Q41.10 0.74 41.61 0.85Q42.13 0.96 42.51 1.08L42.51 1.08L42.51 15.96L39.56 15.96L39.56 11.69Q39.01 11.95 38.40 12.11Q37.78 12.26 37.23 12.26L37.23 12.26Q36.13 12.26 35.29 11.84Q34.45 11.42 33.88 10.66Q33.32 9.89 33.03 8.80Q32.74 7.70 32.74 6.36ZM54.51 0.72L54.51 11.62Q53.70 11.83 52.53 12.05Q51.37 12.26 50 12.26L50 12.26Q48.61 12.26 47.72 11.88Q46.83 11.50 46.32 10.79Q45.80 10.08 45.61 9.12Q45.42 8.16 45.42 7.01L45.42 7.01L45.42 0.72L48.37 0.72L48.37 6.62Q48.37 8.18 48.74 8.94Q49.11 9.70 50.19 9.70L50.19 9.70Q50.86 9.70 51.54 9.58L51.54 9.58L51.54 0.72L54.51 0.72ZM62.82-2.52L62.82-2.52Q62.82-1.66 62.26-1.15Q61.71-0.65 60.94-0.65L60.94-0.65Q60.18-0.65 59.64-1.15Q59.10-1.66 59.10-2.52L59.10-2.52Q59.10-3.41 59.64-3.91Q60.18-4.42 60.94-4.42L60.94-4.42Q61.71-4.42 62.26-3.91Q62.82-3.41 62.82-2.52ZM66.82 9.14L67.21 11.52Q66.30 11.95 65.49 12.11Q64.69 12.26 64.02 12.26L64.02 12.26Q62.86 12.26 62.08 11.93Q61.30 11.59 60.84 10.96Q60.37 10.32 60.18 9.41Q59.98 8.50 59.98 7.32L59.98 7.32L59.98 3.17L56.86 3.17L56.86 0.72L62.94 0.72L62.94 7.70Q62.94 8.71 63.31 9.20Q63.68 9.70 64.54 9.70L64.54 9.70Q64.95 9.70 65.53 9.59Q66.10 9.48 66.82 9.14L66.82 9.14ZM79.02 0.98L78.49 3.72Q78.20 3.65 77.80 3.58Q77.41 3.50 77 3.44Q76.59 3.38 76.21 3.36Q75.82 3.34 75.56 3.34L75.56 3.34Q74.94 3.34 74.34 3.40Q73.74 3.46 73.11 3.62L73.11 3.62L73.11 12L70.14 12L70.14 1.46Q71.31 1.03 72.55 0.77Q73.78 0.50 75.44 0.50L75.44 0.50Q75.68 0.50 76.12 0.53Q76.57 0.55 77.07 0.61Q77.58 0.67 78.09 0.76Q78.61 0.84 79.02 0.98L79.02 0.98ZM91.02 0.98L90.49 3.72Q90.20 3.65 89.80 3.58Q89.41 3.50 89 3.44Q88.59 3.38 88.21 3.36Q87.82 3.34 87.56 3.34L87.56 3.34Q86.94 3.34 86.34 3.40Q85.74 3.46 85.11 3.62L85.11 3.62L85.11 12L82.14 12L82.14 1.46Q83.31 1.03 84.55 0.77Q85.78 0.50 87.44 0.50L87.44 0.50Q87.68 0.50 88.12 0.53Q88.57 0.55 89.07 0.61Q89.58 0.67 90.09 0.76Q90.61 0.84 91.02 0.98L91.02 0.98ZM92.74 6.46L92.74 6.46Q92.74 4.97 93.20 3.84Q93.66 2.71 94.40 1.96Q95.14 1.20 96.10 0.82Q97.06 0.43 98.07 0.43L98.07 0.43Q100.57 0.43 101.86 1.91Q103.16 3.38 103.16 6.22L103.16 6.22Q103.16 6.50 103.15 6.82Q103.14 7.13 103.11 7.32L103.11 7.32L95.79 7.32Q95.79 8.42 96.70 9.06Q97.62 9.70 99.06 9.70L99.06 9.70Q99.94 9.70 100.75 9.50Q101.55 9.31 102.10 9.12L102.10 9.12L102.51 11.64Q101.74 11.90 100.88 12.08Q100.02 12.26 98.94 12.26L98.94 12.26Q97.50 12.26 96.36 11.89Q95.22 11.52 94.41 10.79Q93.61 10.06 93.18 8.98Q92.74 7.90 92.74 6.46ZM95.79 5.28L100.30 5.28Q100.30 4.82 100.18 4.40Q100.06 3.98 99.80 3.65Q99.54 3.31 99.13 3.11Q98.72 2.90 98.12 2.90L98.12 2.90Q97.54 2.90 97.12 3.10Q96.70 3.29 96.43 3.62Q96.15 3.96 96.00 4.39Q95.84 4.82 95.79 5.28L95.79 5.28ZM114.82 9.14L115.21 11.52Q115.14 11.57 114.88 11.69Q114.63 11.81 114.22 11.94Q113.82 12.07 113.23 12.17Q112.64 12.26 111.90 12.26L111.90 12.26Q109.86 12.26 108.92 11.05Q107.98 9.84 107.98 7.51L107.98 7.51L107.98-2.06L104.86-2.06L104.86-4.51L110.94-4.51L110.94 7.73Q110.94 8.88 111.39 9.29Q111.85 9.70 112.54 9.70L112.54 9.70Q113.43 9.70 114.03 9.46Q114.63 9.22 114.82 9.14L114.82 9.14Z"/>
    </g>
</svg>