<?xml version="1.0" encoding="UTF-8"?>
<svg height="26" width="179.7" version="1.1" xmlns="http://www.w3.org/2000/svg"><!--Created by Josélio de S. C. Júnior - 2021 - https://github.com/joseliojunior -->
<rect
    height="24"
    width="177.7"
    rx="12"
    ry="12"
    x="1" y="1"
    fill="#3b3b3b"
    stroke="#db7093"
    stroke-width="1" />
<g transform="translate(0, 8)">
    <path fill="#db7093" d="M23.65 8.51L23.65 8.51Q24.37 8.51 24.75 8.41Q25.14 8.30 25.14 7.98L25.14 7.98Q25.14 7.78 25.02 7.63Q24.90 7.49 24.68 7.38Q24.46 7.28 24.18 7.18Q23.90 7.09 23.60 6.99L23.60 6.99Q23.17 6.86 22.72 6.70Q22.27 6.53 21.90 6.27Q21.54 6.02 21.30 5.62Q21.06 5.23 21.06 4.64L21.06 4.64Q21.06 4.16 21.24 3.74Q21.42 3.31 21.82 2.98Q22.21 2.66 22.82 2.47Q23.42 2.29 24.27 2.29L24.27 2.29Q25.01 2.29 25.64 2.40Q26.27 2.51 26.74 2.72L26.74 2.72L26.43 4.38Q26.16 4.30 25.58 4.12Q25.01 3.94 24.29 3.94L24.29 3.94Q23.54 3.94 23.27 4.12Q23.01 4.30 23.01 4.51L23.01 4.51Q23.01 4.69 23.13 4.82Q23.25 4.96 23.45 5.07Q23.65 5.18 23.91 5.29Q24.18 5.39 24.48 5.49L24.48 5.49Q24.91 5.63 25.38 5.81Q25.84 5.98 26.22 6.25Q26.59 6.51 26.83 6.92Q27.07 7.33 27.07 7.92L27.07 7.92Q27.07 8.38 26.90 8.80Q26.72 9.22 26.31 9.52Q25.90 9.82 25.25 10Q24.59 10.18 23.63 10.18L23.63 10.18Q22.66 10.18 21.97 9.95Q21.28 9.73 20.86 9.55L20.86 9.55L21.17 7.90Q21.73 8.13 22.36 8.32Q22.99 8.51 23.65 8.51ZM30.29 7.20L30.29 4.11L28.58 4.11L28.58 2.48L30.29 2.48L30.29 0.59L32.26 0.27L32.26 2.48L35.41 2.48L35.41 4.11L32.26 4.11L32.26 7.15Q32.26 7.57 32.34 7.82Q32.42 8.08 32.56 8.22Q32.70 8.37 32.91 8.42Q33.12 8.46 33.38 8.46L33.38 8.46Q33.65 8.46 33.88 8.45Q34.11 8.43 34.33 8.39Q34.54 8.35 34.78 8.27Q35.01 8.19 35.28 8.06L35.28 8.06L35.55 9.76Q35.01 9.98 34.38 10.08Q33.74 10.18 33.15 10.18L33.15 10.18Q32.46 10.18 31.94 10.06Q31.41 9.95 31.04 9.63Q30.67 9.31 30.48 8.73Q30.29 8.14 30.29 7.20L30.29 7.20ZM41.54 2.48L43.55 2.48Q43.25 3.54 42.97 4.55Q42.69 5.57 42.38 6.54Q42.08 7.50 41.74 8.43Q41.39 9.36 40.99 10.24L40.99 10.24Q40.69 10.88 40.39 11.34Q40.10 11.81 39.74 12.10Q39.38 12.40 38.94 12.54Q38.50 12.69 37.90 12.69L37.90 12.69Q37.41 12.69 37 12.61Q36.59 12.53 36.32 12.40L36.32 12.40L36.69 10.75Q37.01 10.90 37.26 10.95Q37.50 11.01 37.79 11.01L37.79 11.01Q38.37 11.01 38.72 10.62Q39.07 10.24 39.28 9.71L39.28 9.71Q38.58 8.30 37.87 6.49Q37.17 4.67 36.59 2.48L36.59 2.48L38.64 2.48Q38.78 3.07 38.97 3.74Q39.15 4.42 39.36 5.09Q39.57 5.76 39.80 6.41Q40.03 7.06 40.27 7.62L40.27 7.62Q40.43 7.06 40.61 6.41Q40.78 5.76 40.94 5.10Q41.10 4.43 41.26 3.76Q41.41 3.09 41.54 2.48L41.54 2.48ZM51.22 8.10L51.47 9.68Q51.42 9.71 51.26 9.79Q51.09 9.87 50.82 9.96Q50.54 10.05 50.15 10.11Q49.76 10.18 49.26 10.18L49.26 10.18Q47.90 10.18 47.28 9.37Q46.66 8.56 46.66 7.01L46.66 7.01L46.66 0.62L44.58 0.62L44.58-1.01L48.62-1.01L48.62 7.15Q48.62 7.92 48.93 8.19Q49.23 8.46 49.70 8.46L49.70 8.46Q50.29 8.46 50.69 8.30Q51.09 8.14 51.22 8.10L51.22 8.10ZM52.50 6.30L52.50 6.30Q52.50 5.31 52.80 4.56Q53.10 3.81 53.60 3.30Q54.10 2.80 54.74 2.54Q55.38 2.29 56.05 2.29L56.05 2.29Q57.71 2.29 58.58 3.27Q59.44 4.26 59.44 6.14L59.44 6.14Q59.44 6.34 59.43 6.54Q59.42 6.75 59.41 6.88L59.41 6.88L54.53 6.88Q54.53 7.62 55.14 8.04Q55.74 8.46 56.70 8.46L56.70 8.46Q57.30 8.46 57.83 8.34Q58.37 8.21 58.74 8.08L58.74 8.08L59.01 9.76Q58.50 9.94 57.92 10.06Q57.34 10.18 56.62 10.18L56.62 10.18Q55.66 10.18 54.90 9.93Q54.14 9.68 53.61 9.19Q53.07 8.70 52.78 7.98Q52.50 7.26 52.50 6.30ZM54.53 5.52L57.54 5.52Q57.54 5.22 57.46 4.94Q57.38 4.66 57.20 4.43Q57.02 4.21 56.75 4.07Q56.48 3.94 56.08 3.94L56.08 3.94Q55.70 3.94 55.42 4.06Q55.14 4.19 54.95 4.42Q54.77 4.64 54.66 4.93Q54.56 5.22 54.53 5.52L54.53 5.52ZM62.45 6.19L62.45 6.19Q62.45 7.20 62.82 7.84Q63.20 8.48 64.03 8.48L64.03 8.48Q64.27 8.48 64.48 8.46Q64.69 8.45 64.91 8.42L64.91 8.42L64.91 4.32Q64.69 4.19 64.40 4.10Q64.11 4.02 63.79 4.02L63.79 4.02Q63.09 4.02 62.77 4.58Q62.45 5.14 62.45 6.19ZM66.88-1.10L66.88 9.78Q66.34 9.95 65.55 10.06Q64.77 10.18 64.02 10.18L64.02 10.18Q62.26 10.18 61.35 9.14Q60.45 8.10 60.45 6.29L60.45 6.29Q60.45 4.45 61.21 3.38Q61.97 2.32 63.46 2.32L63.46 2.32Q63.86 2.32 64.24 2.41Q64.62 2.50 64.91 2.66L64.91 2.66L64.91-0.77L66.88-1.10ZM76.70 6.24L76.70 6.24Q76.70 5.42 76.96 4.70Q77.22 3.98 77.74 3.45Q78.27 2.91 79.08 2.60Q79.89 2.29 81.01 2.29L81.01 2.29Q81.68 2.29 82.22 2.38Q82.77 2.48 83.33 2.70L83.33 2.70L82.90 4.29Q82.58 4.18 82.18 4.09Q81.79 4 81.18 4L81.18 4Q80.48 4 80.01 4.17Q79.54 4.34 79.25 4.63Q78.96 4.93 78.83 5.34Q78.70 5.76 78.70 6.24L78.70 6.24Q78.70 7.28 79.29 7.87Q79.87 8.46 81.28 8.46L81.28 8.46Q81.74 8.46 82.25 8.40Q82.75 8.34 83.17 8.19L83.17 8.19L83.46 9.81Q83.04 9.97 82.45 10.07Q81.86 10.18 81.06 10.18L81.06 10.18Q79.90 10.18 79.08 9.87Q78.26 9.57 77.73 9.04Q77.20 8.51 76.95 7.79Q76.70 7.07 76.70 6.24ZM91.55 6.22L91.55 6.22Q91.55 7.12 91.30 7.85Q91.04 8.58 90.58 9.10Q90.11 9.63 89.46 9.92Q88.82 10.21 88.02 10.21L88.02 10.21Q87.22 10.21 86.57 9.92Q85.92 9.63 85.45 9.10Q84.98 8.58 84.72 7.85Q84.46 7.12 84.46 6.22L84.46 6.22Q84.46 5.34 84.73 4.62Q84.99 3.89 85.46 3.37Q85.94 2.85 86.59 2.57Q87.25 2.29 88.02 2.29L88.02 2.29Q88.80 2.29 89.45 2.57Q90.10 2.85 90.57 3.37Q91.04 3.89 91.30 4.62Q91.55 5.34 91.55 6.22ZM86.46 6.24L86.46 6.24Q86.46 7.25 86.82 7.87Q87.18 8.50 87.98 8.50L87.98 8.50Q88.75 8.50 89.14 7.87Q89.54 7.25 89.54 6.24L89.54 6.24Q89.54 5.23 89.18 4.62Q88.82 4 88.02 4L88.02 4Q87.25 4 86.86 4.62Q86.46 5.23 86.46 6.24ZM97.49 2.40L97.49 2.40Q98.11 2.40 98.51 2.59Q98.91 2.78 99.14 3.17Q99.38 3.55 99.46 4.14Q99.54 4.72 99.54 5.50L99.54 5.50L99.54 10L97.94 10L97.94 5.41Q97.94 4.96 97.88 4.69Q97.82 4.42 97.74 4.27Q97.65 4.13 97.53 4.08Q97.41 4.03 97.28 4.03L97.28 4.03Q97.14 4.03 96.98 4.06Q96.82 4.08 96.69 4.14L96.69 4.14Q96.74 4.45 96.77 4.82Q96.80 5.18 96.80 5.63L96.80 5.63L96.80 7.14L95.20 7.14L95.20 5.41Q95.20 4.64 95.05 4.34Q94.90 4.03 94.56 4.03L94.56 4.03Q94.46 4.03 94.33 4.05Q94.19 4.06 94.06 4.10L94.06 4.10L94.06 10L92.46 10L92.46 2.77Q93.09 2.59 93.70 2.50Q94.30 2.40 94.77 2.40L94.77 2.40Q95.18 2.40 95.51 2.50Q95.84 2.61 96.08 2.85L96.08 2.85Q96.35 2.67 96.72 2.54Q97.09 2.40 97.49 2.40ZM105.50 6.30L105.50 6.30Q105.50 5.30 105.10 4.65Q104.70 4 103.89 4L103.89 4Q103.66 4 103.41 4.02Q103.15 4.05 102.98 4.06L102.98 4.06L102.98 8.19Q103.17 8.32 103.49 8.40Q103.81 8.48 104.13 8.48L104.13 8.48Q104.83 8.48 105.17 7.91Q105.50 7.34 105.50 6.30ZM107.50 6.24L107.50 6.24Q107.50 7.10 107.31 7.83Q107.12 8.56 106.75 9.08Q106.38 9.60 105.82 9.89Q105.26 10.18 104.53 10.18L104.53 10.18Q103.78 10.18 102.98 9.81L102.98 9.81L102.98 12.64L101.01 12.64L101.01 2.72Q101.55 2.54 102.34 2.43Q103.14 2.32 103.90 2.32L103.90 2.32Q105.65 2.32 106.58 3.38Q107.50 4.43 107.50 6.24ZM115.55 6.22L115.55 6.22Q115.55 7.12 115.30 7.85Q115.04 8.58 114.58 9.10Q114.11 9.63 113.46 9.92Q112.82 10.21 112.02 10.21L112.02 10.21Q111.22 10.21 110.57 9.92Q109.92 9.63 109.45 9.10Q108.98 8.58 108.72 7.85Q108.46 7.12 108.46 6.22L108.46 6.22Q108.46 5.34 108.73 4.62Q108.99 3.89 109.46 3.37Q109.94 2.85 110.59 2.57Q111.25 2.29 112.02 2.29L112.02 2.29Q112.80 2.29 113.45 2.57Q114.10 2.85 114.57 3.37Q115.04 3.89 115.30 4.62Q115.55 5.34 115.55 6.22ZM110.46 6.24L110.46 6.24Q110.46 7.25 110.82 7.87Q111.18 8.50 111.98 8.50L111.98 8.50Q112.75 8.50 113.14 7.87Q113.54 7.25 113.54 6.24L113.54 6.24Q113.54 5.23 113.18 4.62Q112.82 4 112.02 4L112.02 4Q111.25 4 110.86 4.62Q110.46 5.23 110.46 6.24ZM117.01 10L117.01 2.72Q117.54 2.58 118.31 2.45Q119.09 2.32 120 2.32L120 2.32Q120.90 2.32 121.49 2.57Q122.08 2.82 122.42 3.27Q122.77 3.73 122.91 4.36Q123.06 4.99 123.06 5.76L123.06 5.76L123.06 10L121.09 10L121.09 6.02Q121.09 4.96 120.85 4.50Q120.61 4.03 119.87 4.03L119.87 4.03Q119.65 4.03 119.43 4.05Q119.22 4.06 118.98 4.10L118.98 4.10L118.98 10L117.01 10ZM124.50 6.30L124.50 6.30Q124.50 5.31 124.80 4.56Q125.10 3.81 125.60 3.30Q126.10 2.80 126.74 2.54Q127.38 2.29 128.05 2.29L128.05 2.29Q129.71 2.29 130.58 3.27Q131.44 4.26 131.44 6.14L131.44 6.14Q131.44 6.34 131.43 6.54Q131.42 6.75 131.41 6.88L131.41 6.88L126.53 6.88Q126.53 7.62 127.14 8.04Q127.74 8.46 128.70 8.46L128.70 8.46Q129.30 8.46 129.83 8.34Q130.37 8.21 130.74 8.08L130.74 8.08L131.01 9.76Q130.50 9.94 129.92 10.06Q129.34 10.18 128.62 10.18L128.62 10.18Q127.66 10.18 126.90 9.93Q126.14 9.68 125.61 9.19Q125.07 8.70 124.78 7.98Q124.50 7.26 124.50 6.30ZM126.53 5.52L129.54 5.52Q129.54 5.22 129.46 4.94Q129.38 4.66 129.20 4.43Q129.02 4.21 128.75 4.07Q128.48 3.94 128.08 3.94L128.08 3.94Q127.70 3.94 127.42 4.06Q127.14 4.19 126.95 4.42Q126.77 4.64 126.66 4.93Q126.56 5.22 126.53 5.52L126.53 5.52ZM133.01 10L133.01 2.72Q133.54 2.58 134.31 2.45Q135.09 2.32 136 2.32L136 2.32Q136.90 2.32 137.49 2.57Q138.08 2.82 138.42 3.27Q138.77 3.73 138.91 4.36Q139.06 4.99 139.06 5.76L139.06 5.76L139.06 10L137.09 10L137.09 6.02Q137.09 4.96 136.85 4.50Q136.61 4.03 135.87 4.03L135.87 4.03Q135.65 4.03 135.43 4.05Q135.22 4.06 134.98 4.10L134.98 4.10L134.98 10L133.01 10ZM142.29 7.20L142.29 4.11L140.58 4.11L140.58 2.48L142.29 2.48L142.29 0.59L144.26 0.27L144.26 2.48L147.41 2.48L147.41 4.11L144.26 4.11L144.26 7.15Q144.26 7.57 144.34 7.82Q144.42 8.08 144.56 8.22Q144.70 8.37 144.91 8.42Q145.12 8.46 145.38 8.46L145.38 8.46Q145.65 8.46 145.88 8.45Q146.11 8.43 146.33 8.39Q146.54 8.35 146.78 8.27Q147.01 8.19 147.28 8.06L147.28 8.06L147.55 9.76Q147.01 9.98 146.38 10.08Q145.74 10.18 145.15 10.18L145.15 10.18Q144.46 10.18 143.94 10.06Q143.41 9.95 143.04 9.63Q142.67 9.31 142.48 8.73Q142.29 8.14 142.29 7.20L142.29 7.20ZM151.65 8.51L151.65 8.51Q152.37 8.51 152.75 8.41Q153.14 8.30 153.14 7.98L153.14 7.98Q153.14 7.78 153.02 7.63Q152.90 7.49 152.68 7.38Q152.46 7.28 152.18 7.18Q151.90 7.09 151.60 6.99L151.60 6.99Q151.17 6.86 150.72 6.70Q150.27 6.53 149.90 6.27Q149.54 6.02 149.30 5.62Q149.06 5.23 149.06 4.64L149.06 4.64Q149.06 4.16 149.24 3.74Q149.42 3.31 149.82 2.98Q150.21 2.66 150.82 2.47Q151.42 2.29 152.27 2.29L152.27 2.29Q153.01 2.29 153.64 2.40Q154.27 2.51 154.74 2.72L154.74 2.72L154.43 4.38Q154.16 4.30 153.58 4.12Q153.01 3.94 152.29 3.94L152.29 3.94Q151.54 3.94 151.27 4.12Q151.01 4.30 151.01 4.51L151.01 4.51Q151.01 4.69 151.13 4.82Q151.25 4.96 151.45 5.07Q151.65 5.18 151.91 5.29Q152.18 5.39 152.48 5.49L152.48 5.49Q152.91 5.63 153.38 5.81Q153.84 5.98 154.22 6.25Q154.59 6.51 154.83 6.92Q155.07 7.33 155.07 7.92L155.07 7.92Q155.07 8.38 154.90 8.80Q154.72 9.22 154.31 9.52Q153.90 9.82 153.25 10Q152.59 10.18 151.63 10.18L151.63 10.18Q150.66 10.18 149.97 9.95Q149.28 9.73 148.86 9.55L148.86 9.55L149.17 7.90Q149.73 8.13 150.36 8.32Q150.99 8.51 151.65 8.51Z"/>
</g>
</svg>