<?xml version="1.0" encoding="UTF-8"?>
<svg height="34" width="247.7" version="1.1" xmlns="http://www.w3.org/2000/svg"><!--Created by Josélio de S. C. Júnior - 2021 - https://github.com/joseliojunior -->
<rect
    height="32"
    width="245.7"
    rx="1"
    ry="1"
    x="1" y="1"
    fill="#3b3b3b"
    stroke="#db7093"
    stroke-width="1" />
<g transform="translate(0, 12)">
    <path fill="#db7093" d="M25.47 9.77L25.47 9.77Q26.55 9.77 27.13 9.61Q27.70 9.46 27.70 8.98L27.70 8.98Q27.70 8.66 27.52 8.45Q27.34 8.23 27.02 8.08Q26.70 7.92 26.28 7.78Q25.86 7.63 25.40 7.49L25.40 7.49Q24.75 7.30 24.08 7.04Q23.41 6.79 22.86 6.41Q22.30 6.02 21.94 5.44Q21.58 4.85 21.58 3.96L21.58 3.96Q21.58 3.24 21.86 2.60Q22.14 1.97 22.72 1.48Q23.31 0.98 24.22 0.71Q25.14 0.43 26.41 0.43L26.41 0.43Q27.51 0.43 28.46 0.60Q29.41 0.77 30.10 1.08L30.10 1.08L29.65 3.58Q29.24 3.46 28.38 3.18Q27.51 2.90 26.43 2.90L26.43 2.90Q25.30 2.90 24.91 3.18Q24.51 3.46 24.51 3.77L24.51 3.77Q24.51 4.03 24.69 4.24Q24.87 4.44 25.17 4.61Q25.47 4.78 25.87 4.93Q26.26 5.09 26.72 5.23L26.72 5.23Q27.37 5.45 28.06 5.71Q28.76 5.98 29.32 6.37Q29.89 6.77 30.25 7.38Q30.61 7.99 30.61 8.88L30.61 8.88Q30.61 9.58 30.34 10.20Q30.08 10.82 29.47 11.28Q28.86 11.74 27.87 12Q26.89 12.26 25.45 12.26L25.45 12.26Q23.98 12.26 22.95 11.93Q21.92 11.59 21.30 11.33L21.30 11.33L21.75 8.86Q22.59 9.19 23.54 9.48Q24.49 9.77 25.47 9.77ZM35.43 7.80L35.43 3.17L32.86 3.17L32.86 0.72L35.43 0.72L35.43-2.11L38.38-2.59L38.38 0.72L43.11 0.72L43.11 3.17L38.38 3.17L38.38 7.73Q38.38 8.35 38.50 8.74Q38.62 9.12 38.84 9.34Q39.06 9.55 39.37 9.62Q39.68 9.70 40.06 9.70L40.06 9.70Q40.47 9.70 40.82 9.67Q41.17 9.65 41.49 9.59Q41.82 9.53 42.16 9.41Q42.51 9.29 42.92 9.10L42.92 9.10L43.33 11.64Q42.51 11.98 41.56 12.12Q40.62 12.26 39.73 12.26L39.73 12.26Q38.70 12.26 37.90 12.10Q37.11 11.93 36.56 11.45Q36.01 10.97 35.72 10.09Q35.43 9.22 35.43 7.80L35.43 7.80ZM52.30 0.72L55.33 0.72Q54.87 2.30 54.45 3.83Q54.03 5.35 53.58 6.80Q53.12 8.26 52.60 9.65Q52.09 11.04 51.49 12.36L51.49 12.36Q51.03 13.32 50.59 14.02Q50.14 14.71 49.60 15.16Q49.06 15.60 48.40 15.82Q47.74 16.03 46.86 16.03L46.86 16.03Q46.11 16.03 45.50 15.91Q44.89 15.79 44.48 15.60L44.48 15.60L45.03 13.13Q45.51 13.34 45.88 13.43Q46.26 13.51 46.69 13.51L46.69 13.51Q47.55 13.51 48.08 12.94Q48.61 12.36 48.92 11.57L48.92 11.57Q47.86 9.46 46.81 6.73Q45.75 4.01 44.89 0.72L44.89 0.72L47.96 0.72Q48.18 1.61 48.45 2.62Q48.73 3.62 49.04 4.63Q49.35 5.64 49.70 6.61Q50.05 7.58 50.41 8.42L50.41 8.42Q50.65 7.58 50.91 6.61Q51.18 5.64 51.42 4.64Q51.66 3.65 51.88 2.64Q52.11 1.63 52.30 0.72L52.30 0.72ZM66.82 9.14L67.21 11.52Q67.14 11.57 66.88 11.69Q66.63 11.81 66.22 11.94Q65.82 12.07 65.23 12.17Q64.64 12.26 63.90 12.26L63.90 12.26Q61.86 12.26 60.92 11.05Q59.98 9.84 59.98 7.51L59.98 7.51L59.98-2.06L56.86-2.06L56.86-4.51L62.94-4.51L62.94 7.73Q62.94 8.88 63.39 9.29Q63.85 9.70 64.54 9.70L64.54 9.70Q65.43 9.70 66.03 9.46Q66.63 9.22 66.82 9.14L66.82 9.14ZM68.74 6.46L68.74 6.46Q68.74 4.97 69.20 3.84Q69.66 2.71 70.40 1.96Q71.14 1.20 72.10 0.82Q73.06 0.43 74.07 0.43L74.07 0.43Q76.57 0.43 77.86 1.91Q79.16 3.38 79.16 6.22L79.16 6.22Q79.16 6.50 79.15 6.82Q79.14 7.13 79.11 7.32L79.11 7.32L71.79 7.32Q71.79 8.42 72.70 9.06Q73.62 9.70 75.06 9.70L75.06 9.70Q75.94 9.70 76.75 9.50Q77.55 9.31 78.10 9.12L78.10 9.12L78.51 11.64Q77.74 11.90 76.88 12.08Q76.02 12.26 74.94 12.26L74.94 12.26Q73.50 12.26 72.36 11.89Q71.22 11.52 70.41 10.79Q69.61 10.06 69.18 8.98Q68.74 7.90 68.74 6.46ZM71.79 5.28L76.30 5.28Q76.30 4.82 76.18 4.40Q76.06 3.98 75.80 3.65Q75.54 3.31 75.13 3.11Q74.72 2.90 74.12 2.90L74.12 2.90Q73.54 2.90 73.12 3.10Q72.70 3.29 72.43 3.62Q72.15 3.96 72.00 4.39Q71.84 4.82 71.79 5.28L71.79 5.28ZM83.67 6.29L83.67 6.29Q83.67 7.80 84.24 8.76Q84.80 9.72 86.05 9.72L86.05 9.72Q86.41 9.72 86.72 9.70Q87.03 9.67 87.37 9.62L87.37 9.62L87.37 3.48Q87.03 3.29 86.60 3.16Q86.17 3.02 85.69 3.02L85.69 3.02Q84.63 3.02 84.15 3.86Q83.67 4.70 83.67 6.29ZM90.32-4.66L90.32 11.66Q89.50 11.93 88.33 12.10Q87.15 12.26 86.02 12.26L86.02 12.26Q83.38 12.26 82.03 10.70Q80.67 9.14 80.67 6.43L80.67 6.43Q80.67 3.67 81.81 2.08Q82.95 0.48 85.18 0.48L85.18 0.48Q85.78 0.48 86.36 0.61Q86.94 0.74 87.37 0.98L87.37 0.98L87.37-4.15L90.32-4.66ZM105.06 6.36L105.06 6.36Q105.06 5.14 105.44 4.06Q105.82 2.98 106.62 2.17Q107.41 1.37 108.62 0.90Q109.83 0.43 111.51 0.43L111.51 0.43Q112.52 0.43 113.34 0.58Q114.15 0.72 114.99 1.06L114.99 1.06L114.34 3.43Q113.86 3.26 113.28 3.13Q112.69 3 111.78 3L111.78 3Q110.72 3 110.01 3.25Q109.30 3.50 108.87 3.95Q108.44 4.39 108.25 5.02Q108.06 5.64 108.06 6.36L108.06 6.36Q108.06 7.92 108.93 8.81Q109.81 9.70 111.92 9.70L111.92 9.70Q112.62 9.70 113.37 9.60Q114.13 9.50 114.75 9.29L114.75 9.29L115.18 11.71Q114.56 11.95 113.67 12.11Q112.78 12.26 111.58 12.26L111.58 12.26Q109.86 12.26 108.62 11.81Q107.38 11.35 106.59 10.56Q105.80 9.77 105.43 8.69Q105.06 7.61 105.06 6.36ZM127.33 6.34L127.33 6.34Q127.33 7.68 126.94 8.77Q126.56 9.86 125.86 10.66Q125.17 11.45 124.20 11.88Q123.22 12.31 122.02 12.31L122.02 12.31Q120.82 12.31 119.85 11.88Q118.88 11.45 118.17 10.66Q117.46 9.86 117.08 8.77Q116.70 7.68 116.70 6.34L116.70 6.34Q116.70 5.02 117.09 3.92Q117.49 2.83 118.20 2.05Q118.90 1.27 119.89 0.85Q120.87 0.43 122.02 0.43L122.02 0.43Q123.20 0.43 124.17 0.85Q125.14 1.27 125.85 2.05Q126.56 2.83 126.94 3.92Q127.33 5.02 127.33 6.34ZM119.70 6.36L119.70 6.36Q119.70 7.87 120.24 8.81Q120.78 9.74 121.98 9.74L121.98 9.74Q123.13 9.74 123.72 8.81Q124.30 7.87 124.30 6.36L124.30 6.36Q124.30 4.85 123.76 3.92Q123.22 3 122.02 3L122.02 3Q120.87 3 120.28 3.92Q119.70 4.85 119.70 6.36ZM136.23 0.60L136.23 0.60Q137.17 0.60 137.77 0.89Q138.37 1.18 138.72 1.75Q139.06 2.33 139.18 3.20Q139.30 4.08 139.30 5.26L139.30 5.26L139.30 12L136.90 12L136.90 5.11Q136.90 4.44 136.82 4.03Q136.74 3.62 136.60 3.41Q136.47 3.19 136.29 3.12Q136.11 3.05 135.92 3.05L135.92 3.05Q135.70 3.05 135.46 3.08Q135.22 3.12 135.03 3.22L135.03 3.22Q135.10 3.67 135.15 4.22Q135.20 4.78 135.20 5.45L135.20 5.45L135.20 7.70L132.80 7.70L132.80 5.11Q132.80 3.96 132.57 3.50Q132.34 3.05 131.84 3.05L131.84 3.05Q131.70 3.05 131.49 3.07Q131.29 3.10 131.10 3.14L131.10 3.14L131.10 12L128.70 12L128.70 1.15Q129.63 0.89 130.54 0.74Q131.46 0.60 132.15 0.60L132.15 0.60Q132.78 0.60 133.27 0.76Q133.76 0.91 134.12 1.27L134.12 1.27Q134.53 1.01 135.08 0.80Q135.63 0.60 136.23 0.60ZM148.26 6.46L148.26 6.46Q148.26 4.94 147.66 3.97Q147.06 3 145.83 3L145.83 3Q145.50 3 145.11 3.04Q144.73 3.07 144.46 3.10L144.46 3.10L144.46 9.29Q144.75 9.48 145.23 9.60Q145.71 9.72 146.19 9.72L146.19 9.72Q147.25 9.72 147.75 8.87Q148.26 8.02 148.26 6.46ZM151.26 6.36L151.26 6.36Q151.26 7.66 150.97 8.75Q150.68 9.84 150.13 10.62Q149.58 11.40 148.74 11.83Q147.90 12.26 146.79 12.26L146.79 12.26Q145.66 12.26 144.46 11.71L144.46 11.71L144.46 15.96L141.51 15.96L141.51 1.08Q142.33 0.82 143.52 0.65Q144.70 0.48 145.86 0.48L145.86 0.48Q148.47 0.48 149.86 2.06Q151.26 3.65 151.26 6.36ZM163.33 6.34L163.33 6.34Q163.33 7.68 162.94 8.77Q162.56 9.86 161.86 10.66Q161.17 11.45 160.20 11.88Q159.22 12.31 158.02 12.31L158.02 12.31Q156.82 12.31 155.85 11.88Q154.88 11.45 154.17 10.66Q153.46 9.86 153.08 8.77Q152.70 7.68 152.70 6.34L152.70 6.34Q152.70 5.02 153.09 3.92Q153.49 2.83 154.20 2.05Q154.90 1.27 155.89 0.85Q156.87 0.43 158.02 0.43L158.02 0.43Q159.20 0.43 160.17 0.85Q161.14 1.27 161.85 2.05Q162.56 2.83 162.94 3.92Q163.33 5.02 163.33 6.34ZM155.70 6.36L155.70 6.36Q155.70 7.87 156.24 8.81Q156.78 9.74 157.98 9.74L157.98 9.74Q159.13 9.74 159.72 8.81Q160.30 7.87 160.30 6.36L160.30 6.36Q160.30 4.85 159.76 3.92Q159.22 3 158.02 3L158.02 3Q156.87 3 156.28 3.92Q155.70 4.85 155.70 6.36ZM165.51 12L165.51 1.08Q166.30 0.86 167.47 0.67Q168.63 0.48 170 0.48L170 0.48Q171.34 0.48 172.23 0.85Q173.12 1.22 173.64 1.91Q174.15 2.59 174.37 3.54Q174.58 4.49 174.58 5.64L174.58 5.64L174.58 12L171.63 12L171.63 6.02Q171.63 4.44 171.27 3.74Q170.91 3.05 169.81 3.05L169.81 3.05Q169.47 3.05 169.15 3.07Q168.82 3.10 168.46 3.14L168.46 3.14L168.46 12L165.51 12ZM176.74 6.46L176.74 6.46Q176.74 4.97 177.20 3.84Q177.66 2.71 178.40 1.96Q179.14 1.20 180.10 0.82Q181.06 0.43 182.07 0.43L182.07 0.43Q184.57 0.43 185.86 1.91Q187.16 3.38 187.16 6.22L187.16 6.22Q187.16 6.50 187.15 6.82Q187.14 7.13 187.11 7.32L187.11 7.32L179.79 7.32Q179.79 8.42 180.70 9.06Q181.62 9.70 183.06 9.70L183.06 9.70Q183.94 9.70 184.75 9.50Q185.55 9.31 186.10 9.12L186.10 9.12L186.51 11.64Q185.74 11.90 184.88 12.08Q184.02 12.26 182.94 12.26L182.94 12.26Q181.50 12.26 180.36 11.89Q179.22 11.52 178.41 10.79Q177.61 10.06 177.18 8.98Q176.74 7.90 176.74 6.46ZM179.79 5.28L184.30 5.28Q184.30 4.82 184.18 4.40Q184.06 3.98 183.80 3.65Q183.54 3.31 183.13 3.11Q182.72 2.90 182.12 2.90L182.12 2.90Q181.54 2.90 181.12 3.10Q180.70 3.29 180.43 3.62Q180.15 3.96 180.00 4.39Q179.84 4.82 179.79 5.28L179.79 5.28ZM189.51 12L189.51 1.08Q190.30 0.86 191.47 0.67Q192.63 0.48 194 0.48L194 0.48Q195.34 0.48 196.23 0.85Q197.12 1.22 197.64 1.91Q198.15 2.59 198.37 3.54Q198.58 4.49 198.58 5.64L198.58 5.64L198.58 12L195.63 12L195.63 6.02Q195.63 4.44 195.27 3.74Q194.91 3.05 193.81 3.05L193.81 3.05Q193.47 3.05 193.15 3.07Q192.82 3.10 192.46 3.14L192.46 3.14L192.46 12L189.51 12ZM203.43 7.80L203.43 3.17L200.86 3.17L200.86 0.72L203.43 0.72L203.43-2.11L206.38-2.59L206.38 0.72L211.11 0.72L211.11 3.17L206.38 3.17L206.38 7.73Q206.38 8.35 206.50 8.74Q206.62 9.12 206.84 9.34Q207.06 9.55 207.37 9.62Q207.68 9.70 208.06 9.70L208.06 9.70Q208.47 9.70 208.82 9.67Q209.17 9.65 209.49 9.59Q209.82 9.53 210.16 9.41Q210.51 9.29 210.92 9.10L210.92 9.10L211.33 11.64Q210.51 11.98 209.56 12.12Q208.62 12.26 207.73 12.26L207.73 12.26Q206.70 12.26 205.90 12.10Q205.11 11.93 204.56 11.45Q204.01 10.97 203.72 10.09Q203.43 9.22 203.43 7.80L203.43 7.80ZM217.47 9.77L217.47 9.77Q218.55 9.77 219.13 9.61Q219.70 9.46 219.70 8.98L219.70 8.98Q219.70 8.66 219.52 8.45Q219.34 8.23 219.02 8.08Q218.70 7.92 218.28 7.78Q217.86 7.63 217.40 7.49L217.40 7.49Q216.75 7.30 216.08 7.04Q215.41 6.79 214.86 6.41Q214.30 6.02 213.94 5.44Q213.58 4.85 213.58 3.96L213.58 3.96Q213.58 3.24 213.86 2.60Q214.14 1.97 214.72 1.48Q215.31 0.98 216.22 0.71Q217.14 0.43 218.41 0.43L218.41 0.43Q219.51 0.43 220.46 0.60Q221.41 0.77 222.10 1.08L222.10 1.08L221.65 3.58Q221.24 3.46 220.38 3.18Q219.51 2.90 218.43 2.90L218.43 2.90Q217.30 2.90 216.91 3.18Q216.51 3.46 216.51 3.77L216.51 3.77Q216.51 4.03 216.69 4.24Q216.87 4.44 217.17 4.61Q217.47 4.78 217.87 4.93Q218.26 5.09 218.72 5.23L218.72 5.23Q219.37 5.45 220.06 5.71Q220.76 5.98 221.32 6.37Q221.89 6.77 222.25 7.38Q222.61 7.99 222.61 8.88L222.61 8.88Q222.61 9.58 222.34 10.20Q222.08 10.82 221.47 11.28Q220.86 11.74 219.87 12Q218.89 12.26 217.45 12.26L217.45 12.26Q215.98 12.26 214.95 11.93Q213.92 11.59 213.30 11.33L213.30 11.33L213.75 8.86Q214.59 9.19 215.54 9.48Q216.49 9.77 217.47 9.77Z"/>
</g>
</svg>