<?xml version="1.0" encoding="UTF-8"?>
<svg height="34" width="205.29999999999998" version="1.1" xmlns="http://www.w3.org/2000/svg">
    <rect
        height="32"
        width="203.29999999999998"
        rx="1"
        ry="1"
        x="1"
        y="1"
        fill="#DAE1C2"
        stroke="#7f9047"
        stroke-width="1"
         />
    <g transform="translate(0, 14)">
        <path fill="#7f9047" d="M16.50 8.48L16.50 8.48Q17.36 8.48 17.94 8.30Q18.51 8.12 18.85 7.79Q19.18 7.47 19.31 7.07Q19.44 6.66 19.44 6.24L19.44 6.24Q19.44 5.71 19.13 5.29Q18.82 4.87 18.34 4.55Q17.87 4.22 17.28 3.96Q16.69 3.69 16.10 3.47L16.10 3.47Q15.32 3.19 14.48 2.82Q13.64 2.46 12.95 1.90Q12.27 1.34 11.82 0.51Q11.37-0.31 11.37-1.54L11.37-1.54Q11.37-3.98 12.95-5.35Q14.54-6.72 17.31-6.72L17.31-6.72Q18.90-6.72 20.09-6.36Q21.28-6.00 22.10-5.55L22.10-5.55L21.09-2.89Q20.39-3.28 19.53-3.56Q18.68-3.84 17.56-3.84L17.56-3.84Q14.82-3.84 14.82-1.85L14.82-1.85Q14.82-1.35 15.10-0.97Q15.38-0.59 15.81-0.30Q16.24-0.00 16.79 0.22Q17.34 0.44 17.87 0.64L17.87 0.64Q18.68 0.95 19.56 1.33Q20.44 1.70 21.19 2.33Q21.93 2.96 22.40 3.90Q22.88 4.84 22.88 6.27L22.88 6.27Q22.88 8.70 21.30 10.03Q19.72 11.36 16.50 11.36L16.50 11.36Q14.34 11.36 13.05 10.90Q11.76 10.44 11.12 10.05L11.12 10.05L12.13 7.25Q12.88 7.70 13.93 8.09Q14.98 8.48 16.50 8.48ZM33.69-2.16L37.22-2.16Q36.68-0.31 36.19 1.47Q35.70 3.24 35.17 4.94Q34.64 6.63 34.04 8.26Q33.44 9.88 32.74 11.42L32.74 11.42Q32.20 12.54 31.69 13.35Q31.17 14.16 30.54 14.68Q29.91 15.20 29.14 15.45Q28.37 15.70 27.33 15.70L27.33 15.70Q26.46 15.70 25.75 15.56Q25.04 15.42 24.56 15.20L24.56 15.20L25.20 12.32Q25.76 12.57 26.20 12.67Q26.63 12.76 27.14 12.76L27.14 12.76Q28.14 12.76 28.76 12.09Q29.38 11.42 29.74 10.50L29.74 10.50Q28.51 8.03 27.28 4.85Q26.04 1.68 25.04-2.16L25.04-2.16L28.62-2.16Q28.87-1.12 29.19 0.05Q29.52 1.23 29.88 2.40Q30.24 3.58 30.65 4.71Q31.06 5.85 31.48 6.83L31.48 6.83Q31.76 5.85 32.06 4.71Q32.37 3.58 32.65 2.42Q32.93 1.26 33.20 0.08Q33.46-1.10 33.69-2.16L33.69-2.16ZM44.38 8.40L44.38 8.40Q45.64 8.40 46.32 8.21Q46.99 8.03 46.99 7.47L46.99 7.47Q46.99 7.11 46.78 6.86Q46.57 6.60 46.19 6.42Q45.81 6.24 45.32 6.07Q44.83 5.90 44.30 5.74L44.30 5.74Q43.54 5.51 42.76 5.22Q41.98 4.92 41.33 4.48Q40.69 4.03 40.27 3.34Q39.85 2.66 39.85 1.62L39.85 1.62Q39.85 0.78 40.17 0.04Q40.49-0.70 41.18-1.28Q41.86-1.85 42.93-2.17Q43.99-2.50 45.48-2.50L45.48-2.50Q46.76-2.50 47.87-2.30Q48.98-2.10 49.79-1.74L49.79-1.74L49.26 1.17Q48.78 1.03 47.77 0.71Q46.76 0.39 45.50 0.39L45.50 0.39Q44.19 0.39 43.73 0.71Q43.26 1.03 43.26 1.40L43.26 1.40Q43.26 1.70 43.47 1.94Q43.68 2.18 44.03 2.38Q44.38 2.57 44.85 2.75Q45.31 2.94 45.84 3.10L45.84 3.10Q46.60 3.36 47.41 3.66Q48.22 3.97 48.88 4.43Q49.54 4.90 49.96 5.61Q50.38 6.32 50.38 7.36L50.38 7.36Q50.38 8.17 50.07 8.90Q49.76 9.63 49.05 10.16Q48.33 10.69 47.18 11Q46.04 11.31 44.36 11.31L44.36 11.31Q42.65 11.31 41.44 10.92Q40.24 10.52 39.51 10.22L39.51 10.22L40.04 7.33Q41.02 7.72 42.13 8.06Q43.24 8.40 44.38 8.40ZM56.00 6.10L56.00 0.70L53.01 0.70L53.01-2.16L56.00-2.16L56.00-5.46L59.45-6.02L59.45-2.16L64.96-2.16L64.96 0.70L59.45 0.70L59.45 6.02Q59.45 6.74 59.59 7.19Q59.73 7.64 59.98 7.89Q60.23 8.14 60.60 8.23Q60.96 8.31 61.41 8.31L61.41 8.31Q61.88 8.31 62.29 8.28Q62.70 8.26 63.07 8.19Q63.45 8.12 63.86 7.98Q64.26 7.84 64.74 7.61L64.74 7.61L65.22 10.58Q64.26 10.97 63.16 11.14Q62.05 11.31 61.02 11.31L61.02 11.31Q59.81 11.31 58.89 11.11Q57.96 10.92 57.32 10.36Q56.68 9.80 56.34 8.77Q56.00 7.75 56.00 6.10L56.00 6.10ZM66.87 4.53L66.87 4.53Q66.87 2.80 67.40 1.48Q67.93 0.16 68.80-0.72Q69.67-1.60 70.79-2.05Q71.91-2.50 73.08-2.50L73.08-2.50Q76.00-2.50 77.51-0.77Q79.02 0.95 79.02 4.25L79.02 4.25Q79.02 4.59 79.01 4.95Q78.99 5.32 78.96 5.54L78.96 5.54L70.42 5.54Q70.42 6.83 71.49 7.57Q72.55 8.31 74.23 8.31L74.23 8.31Q75.27 8.31 76.21 8.09Q77.14 7.86 77.79 7.64L77.79 7.64L78.26 10.58Q77.37 10.89 76.36 11.10Q75.35 11.31 74.09 11.31L74.09 11.31Q72.41 11.31 71.08 10.87Q69.75 10.44 68.81 9.59Q67.88 8.73 67.37 7.47Q66.87 6.21 66.87 4.53ZM70.42 3.16L75.69 3.16Q75.69 2.63 75.55 2.14Q75.41 1.65 75.10 1.26Q74.79 0.86 74.32 0.63Q73.84 0.39 73.14 0.39L73.14 0.39Q72.47 0.39 71.98 0.61Q71.49 0.84 71.17 1.23Q70.84 1.62 70.66 2.12Q70.48 2.63 70.42 3.16L70.42 3.16ZM89.60-2.30L89.60-2.30Q90.70-2.30 91.40-1.96Q92.10-1.63 92.50-0.96Q92.91-0.28 93.05 0.74Q93.19 1.76 93.19 3.13L93.19 3.13L93.19 11L90.39 11L90.39 2.96Q90.39 2.18 90.29 1.70Q90.19 1.23 90.04 0.98Q89.88 0.72 89.67 0.64Q89.46 0.56 89.24 0.56L89.24 0.56Q88.99 0.56 88.71 0.60Q88.43 0.64 88.20 0.75L88.20 0.75Q88.29 1.28 88.34 1.93Q88.40 2.57 88.40 3.36L88.40 3.36L88.40 5.99L85.60 5.99L85.60 2.96Q85.60 1.62 85.33 1.09Q85.07 0.56 84.48 0.56L84.48 0.56Q84.31 0.56 84.07 0.58Q83.84 0.61 83.61 0.67L83.61 0.67L83.61 11L80.81 11L80.81-1.66Q81.90-1.96 82.97-2.13Q84.03-2.30 84.84-2.30L84.84-2.30Q85.57-2.30 86.15-2.12Q86.72-1.94 87.14-1.52L87.14-1.52Q87.62-1.82 88.26-2.06Q88.90-2.30 89.60-2.30ZM102.76 11L99.21 11Q98.54 9.07 97.78 6.63Q97.02 4.20 96.35 1.77Q95.68-0.65 95.15-2.80Q94.62-4.96 94.36-6.33L94.36-6.33L98.00-6.33Q98.17-4.99 98.51-3.21Q98.84-1.43 99.25 0.46Q99.66 2.35 100.12 4.18Q100.58 6.02 101.03 7.47L101.03 7.47Q101.48 6.04 101.92 4.21Q102.37 2.38 102.76 0.49Q103.16-1.40 103.49-3.20Q103.83-4.99 104.05-6.33L104.05-6.33L107.66-6.33Q107.33-4.65 106.84-2.58Q106.35-0.51 105.72 1.77Q105.09 4.06 104.33 6.42Q103.58 8.79 102.76 11L102.76 11ZM108.87 4.53L108.87 4.53Q108.87 2.80 109.40 1.48Q109.93 0.16 110.80-0.72Q111.67-1.60 112.79-2.05Q113.91-2.50 115.08-2.50L115.08-2.50Q118.00-2.50 119.51-0.77Q121.02 0.95 121.02 4.25L121.02 4.25Q121.02 4.59 121.01 4.95Q120.99 5.32 120.96 5.54L120.96 5.54L112.42 5.54Q112.42 6.83 113.49 7.57Q114.55 8.31 116.23 8.31L116.23 8.31Q117.27 8.31 118.21 8.09Q119.14 7.86 119.79 7.64L119.79 7.64L120.26 10.58Q119.37 10.89 118.36 11.10Q117.35 11.31 116.09 11.31L116.09 11.31Q114.41 11.31 113.08 10.87Q111.75 10.44 110.81 9.59Q109.88 8.73 109.37 7.47Q108.87 6.21 108.87 4.53ZM112.42 3.16L117.69 3.16Q117.69 2.63 117.55 2.14Q117.41 1.65 117.10 1.26Q116.79 0.86 116.32 0.63Q115.84 0.39 115.14 0.39L115.14 0.39Q114.47 0.39 113.98 0.61Q113.49 0.84 113.17 1.23Q112.84 1.62 112.66 2.12Q112.48 2.63 112.42 3.16L112.42 3.16ZM134.85-1.85L134.24 1.34Q133.90 1.26 133.44 1.17Q132.98 1.09 132.50 1.02Q132.02 0.95 131.58 0.92Q131.13 0.89 130.82 0.89L130.82 0.89Q130.09 0.89 129.39 0.96Q128.69 1.03 127.96 1.23L127.96 1.23L127.96 11L124.49 11L124.49-1.29Q125.86-1.80 127.31-2.10Q128.75-2.41 130.68-2.41L130.68-2.41Q130.96-2.41 131.48-2.38Q132.00-2.36 132.58-2.29Q133.17-2.22 133.77-2.12Q134.38-2.02 134.85-1.85L134.85-1.85ZM143.95-5.94L143.95-5.94Q143.95-4.93 143.31-4.34Q142.66-3.76 141.77-3.76L141.77-3.76Q140.87-3.76 140.24-4.34Q139.61-4.93 139.61-5.94L139.61-5.94Q139.61-6.98 140.24-7.56Q140.87-8.15 141.77-8.15L141.77-8.15Q142.66-8.15 143.31-7.56Q143.95-6.98 143.95-5.94ZM148.63 7.67L149.08 10.44Q148.01 10.94 147.07 11.13Q146.14 11.31 145.35 11.31L145.35 11.31Q144.01 11.31 143.10 10.92Q142.19 10.52 141.64 9.78Q141.10 9.04 140.87 7.98Q140.65 6.91 140.65 5.54L140.65 5.54L140.65 0.70L137.01 0.70L137.01-2.16L144.09-2.16L144.09 5.99Q144.09 7.16 144.53 7.74Q144.96 8.31 145.97 8.31L145.97 8.31Q146.44 8.31 147.12 8.19Q147.79 8.06 148.63 7.67L148.63 7.67ZM162.63 7.67L163.08 10.44Q162.99 10.50 162.70 10.64Q162.40 10.78 161.93 10.93Q161.45 11.08 160.77 11.20Q160.08 11.31 159.21 11.31L159.21 11.31Q156.83 11.31 155.74 9.89Q154.65 8.48 154.65 5.76L154.65 5.76L154.65-5.41L151.01-5.41L151.01-8.26L158.09-8.26L158.09 6.02Q158.09 7.36 158.62 7.84Q159.16 8.31 159.97 8.31L159.97 8.31Q161.00 8.31 161.70 8.03Q162.40 7.75 162.63 7.67L162.63 7.67ZM177.22 4.39L177.22 4.39Q177.22 5.96 176.77 7.23Q176.32 8.51 175.51 9.43Q174.70 10.36 173.56 10.86Q172.43 11.36 171.03 11.36L171.03 11.36Q169.63 11.36 168.49 10.86Q167.36 10.36 166.53 9.43Q165.71 8.51 165.26 7.23Q164.81 5.96 164.81 4.39L164.81 4.39Q164.81 2.85 165.27 1.58Q165.74 0.30 166.56-0.61Q167.39-1.52 168.54-2.01Q169.68-2.50 171.03-2.50L171.03-2.50Q172.40-2.50 173.53-2.01Q174.67-1.52 175.49-0.61Q176.32 0.30 176.77 1.58Q177.22 2.85 177.22 4.39ZM168.31 4.42L168.31 4.42Q168.31 6.18 168.94 7.28Q169.57 8.37 170.97 8.37L170.97 8.37Q172.32 8.37 173.00 7.28Q173.69 6.18 173.69 4.42L173.69 4.42Q173.69 2.66 173.06 1.58Q172.43 0.50 171.03 0.50L171.03 0.50Q169.68 0.50 169.00 1.58Q168.31 2.66 168.31 4.42ZM182.42 4L182.42 4Q182.42 5.62 183.01 6.48Q183.60 7.33 184.86 7.33L184.86 7.33Q185.42 7.33 185.91 7.19Q186.40 7.05 186.79 6.83L186.79 6.83L186.79 0.50Q186.40 0.42 186.09 0.39Q185.78 0.36 185.45 0.36L185.45 0.36Q182.42 0.36 182.42 4ZM190.26-1.74L190.26 9.40Q190.26 12.62 188.71 14.16Q187.16 15.70 183.71 15.70L183.71 15.70Q182.48 15.70 181.35 15.45Q180.21 15.20 179.18 14.86L179.18 14.86L179.82 11.95Q180.63 12.26 181.53 12.53Q182.42 12.79 183.77 12.79L183.77 12.79Q184.66 12.79 185.25 12.58Q185.84 12.37 186.18 12.01Q186.51 11.64 186.65 11.15Q186.79 10.66 186.79 10.10L186.79 10.10L186.79 9.57Q186.06 9.85 185.46 9.99Q184.86 10.13 184.16 10.13L184.16 10.13Q181.58 10.13 180.25 8.51Q178.92 6.88 178.92 4L178.92 4Q178.92 0.75 180.72-0.84Q182.51-2.44 185.59-2.44L185.59-2.44Q187.74-2.44 190.26-1.74L190.26-1.74Z"/>
    </g>
</svg>