<?xml version="1.0" encoding="UTF-8"?>
<svg height="26" width="66.3" version="1.1" xmlns="http://www.w3.org/2000/svg"><!--Created by Josélio de S. C. Júnior - 2021 - https://github.com/joseliojunior -->
    <rect
        height="24"
        width="64.3"
        rx="12"
        ry="12"
        x="1" y="1"
        fill="#d4bec1"
        stroke="#775055"
        stroke-width="1" />
    <g transform="translate(0, 8)">
        <path fill="#775055" d="M27.50 7.01L27.50 7.01Q27.50 7.90 27.20 8.50Q26.90 9.10 26.38 9.46Q25.86 9.82 25.14 9.98Q24.43 10.13 23.62 10.13L23.62 10.13Q22.96 10.13 22.26 10.06Q21.55 9.98 20.86 9.84L20.86 9.84L20.86 0.22Q21.42 0.13 22.10 0.06Q22.77-0.02 23.42-0.02L23.42-0.02Q24.54-0.02 25.25 0.22Q25.95 0.45 26.35 0.82Q26.75 1.20 26.90 1.66Q27.04 2.13 27.04 2.59L27.04 2.59Q27.04 3.30 26.70 3.84Q26.35 4.38 25.78 4.70L25.78 4.70Q26.78 5.07 27.14 5.70Q27.50 6.32 27.50 7.01ZM23.89 5.66L22.83 5.66L22.83 8.35Q23.04 8.38 23.29 8.40Q23.54 8.42 23.78 8.42L23.78 8.42Q24.11 8.42 24.43 8.36Q24.75 8.30 25 8.15Q25.25 8 25.41 7.72Q25.57 7.44 25.57 7.01L25.57 7.01Q25.57 6.29 25.11 5.98Q24.66 5.66 23.89 5.66L23.89 5.66ZM22.83 4.03L23.60 4.03Q24.35 4.03 24.74 3.70Q25.12 3.38 25.12 2.80L25.12 2.80Q25.12 2.45 25.01 2.23Q24.90 2.02 24.70 1.90Q24.51 1.78 24.26 1.74Q24 1.70 23.73 1.70L23.73 1.70Q23.50 1.70 23.26 1.71Q23.02 1.73 22.83 1.76L22.83 1.76L22.83 4.03ZM35.55 6.22L35.55 6.22Q35.55 7.12 35.30 7.85Q35.04 8.58 34.58 9.10Q34.11 9.63 33.46 9.92Q32.82 10.21 32.02 10.21L32.02 10.21Q31.22 10.21 30.57 9.92Q29.92 9.63 29.45 9.10Q28.98 8.58 28.72 7.85Q28.46 7.12 28.46 6.22L28.46 6.22Q28.46 5.34 28.73 4.62Q28.99 3.89 29.46 3.37Q29.94 2.85 30.59 2.57Q31.25 2.29 32.02 2.29L32.02 2.29Q32.80 2.29 33.45 2.57Q34.10 2.85 34.57 3.37Q35.04 3.89 35.30 4.62Q35.55 5.34 35.55 6.22ZM30.46 6.24L30.46 6.24Q30.46 7.25 30.82 7.87Q31.18 8.50 31.98 8.50L31.98 8.50Q32.75 8.50 33.14 7.87Q33.54 7.25 33.54 6.24L33.54 6.24Q33.54 5.23 33.18 4.62Q32.82 4 32.02 4L32.02 4Q31.25 4 30.86 4.62Q30.46 5.23 30.46 6.24ZM43.55 6.22L43.55 6.22Q43.55 7.12 43.30 7.85Q43.04 8.58 42.58 9.10Q42.11 9.63 41.46 9.92Q40.82 10.21 40.02 10.21L40.02 10.21Q39.22 10.21 38.57 9.92Q37.92 9.63 37.45 9.10Q36.98 8.58 36.72 7.85Q36.46 7.12 36.46 6.22L36.46 6.22Q36.46 5.34 36.73 4.62Q36.99 3.89 37.46 3.37Q37.94 2.85 38.59 2.57Q39.25 2.29 40.02 2.29L40.02 2.29Q40.80 2.29 41.45 2.57Q42.10 2.85 42.57 3.37Q43.04 3.89 43.30 4.62Q43.55 5.34 43.55 6.22ZM38.46 6.24L38.46 6.24Q38.46 7.25 38.82 7.87Q39.18 8.50 39.98 8.50L39.98 8.50Q40.75 8.50 41.14 7.87Q41.54 7.25 41.54 6.24L41.54 6.24Q41.54 5.23 41.18 4.62Q40.82 4 40.02 4L40.02 4Q39.25 4 38.86 4.62Q38.46 5.23 38.46 6.24Z"/>
    </g>
</svg>