<?xml version="1.0" encoding="UTF-8"?>
<svg height="34" width="211.4" version="1.1" xmlns="http://www.w3.org/2000/svg"><!--Created by Josélio de S. C. Júnior - 2021 - https://github.com/joseliojunior -->
    <defs>
        <pattern id="pattern"
                x="1.5" y="3" width="3" height="6"
                patternUnits="userSpaceOnUse"
                patternTransform="rotate(45)" >
            <rect height="6" width="1" fill="#999999"/>
        </pattern>
    </defs>
    <rect
        height="32"
        width="209.4"
        rx="1"
        ry="1"
        x="1" y="1"
        fill="url(#pattern)"
        stroke="#000000"
        stroke-width="1" />
    <g transform="translate(0, 12)">
        <path fill="#ffffff" stroke="#000000" d="M25.57 9.84L25.57 9.84Q26.31 9.84 26.80 9.68Q27.30 9.53 27.58 9.25Q27.87 8.98 27.98 8.63Q28.09 8.28 28.09 7.92L28.09 7.92Q28.09 7.46 27.82 7.10Q27.56 6.74 27.15 6.47Q26.74 6.19 26.24 5.96Q25.74 5.74 25.23 5.54L25.23 5.54Q24.56 5.30 23.84 4.99Q23.12 4.68 22.53 4.20Q21.94 3.72 21.56 3.01Q21.18 2.30 21.18 1.25L21.18 1.25Q21.18-0.84 22.53-2.02Q23.89-3.19 26.26-3.19L26.26-3.19Q27.63-3.19 28.65-2.88Q29.67-2.57 30.37-2.18L30.37-2.18L29.50 0.10Q28.90-0.24 28.17-0.48Q27.44-0.72 26.48-0.72L26.48-0.72Q24.13-0.72 24.13 0.98L24.13 0.98Q24.13 1.42 24.37 1.74Q24.61 2.06 24.98 2.32Q25.35 2.57 25.82 2.76Q26.29 2.95 26.74 3.12L26.74 3.12Q27.44 3.38 28.20 3.71Q28.95 4.03 29.59 4.57Q30.22 5.11 30.63 5.92Q31.04 6.72 31.04 7.94L31.04 7.94Q31.04 10.03 29.68 11.17Q28.33 12.31 25.57 12.31L25.57 12.31Q23.72 12.31 22.62 11.92Q21.51 11.52 20.96 11.18L20.96 11.18L21.82 8.78Q22.47 9.17 23.37 9.50Q24.27 9.84 25.57 9.84ZM43.04 12L33.51 12L33.51-2.86L42.51-2.86L42.51-0.41L36.46-0.41L36.46 2.93L41.72 2.93L41.72 5.38L36.46 5.38L36.46 9.55L43.04 9.55L43.04 12ZM55.04 9.55L55.04 12L45.70 12L45.70-2.86L48.68-2.86L48.68 9.55L55.04 9.55ZM62.82-2.52L62.82-2.52Q62.82-1.66 62.26-1.15Q61.71-0.65 60.94-0.65L60.94-0.65Q60.18-0.65 59.64-1.15Q59.10-1.66 59.10-2.52L59.10-2.52Q59.10-3.41 59.64-3.91Q60.18-4.42 60.94-4.42L60.94-4.42Q61.71-4.42 62.26-3.91Q62.82-3.41 62.82-2.52ZM66.82 9.14L67.21 11.52Q66.30 11.95 65.49 12.11Q64.69 12.26 64.02 12.26L64.02 12.26Q62.86 12.26 62.08 11.93Q61.30 11.59 60.84 10.96Q60.37 10.32 60.18 9.41Q59.98 8.50 59.98 7.32L59.98 7.32L59.98 3.17L56.86 3.17L56.86 0.72L62.94 0.72L62.94 7.70Q62.94 8.71 63.31 9.20Q63.68 9.70 64.54 9.70L64.54 9.70Q64.95 9.70 65.53 9.59Q66.10 9.48 66.82 9.14L66.82 9.14ZM69.51 12L69.51 1.08Q70.30 0.86 71.47 0.67Q72.63 0.48 74 0.48L74 0.48Q75.34 0.48 76.23 0.85Q77.12 1.22 77.64 1.91Q78.15 2.59 78.37 3.54Q78.58 4.49 78.58 5.64L78.58 5.64L78.58 12L75.63 12L75.63 6.02Q75.63 4.44 75.27 3.74Q74.91 3.05 73.81 3.05L73.81 3.05Q73.47 3.05 73.15 3.07Q72.82 3.10 72.46 3.14L72.46 3.14L72.46 12L69.51 12ZM90.51 0.72L90.51 11.62Q89.70 11.83 88.53 12.05Q87.37 12.26 86 12.26L86 12.26Q84.61 12.26 83.72 11.88Q82.83 11.50 82.32 10.79Q81.80 10.08 81.61 9.12Q81.42 8.16 81.42 7.01L81.42 7.01L81.42 0.72L84.37 0.72L84.37 6.62Q84.37 8.18 84.74 8.94Q85.11 9.70 86.19 9.70L86.19 9.70Q86.86 9.70 87.54 9.58L87.54 9.58L87.54 0.72L90.51 0.72ZM95.60 0.72L98.10 4.25L100.40 0.72L103.40 0.72L99.75 6.14Q100.33 6.84 100.88 7.62Q101.43 8.40 101.94 9.19Q102.44 9.98 102.85 10.70Q103.26 11.42 103.54 12L103.54 12L100.47 12Q99.82 10.78 99.18 9.82Q98.53 8.86 97.95 8.09L97.95 8.09Q97.23 9.05 96.66 9.96Q96.08 10.87 95.48 12L95.48 12L92.48 12Q92.84 11.33 93.31 10.60Q93.78 9.86 94.29 9.11Q94.81 8.35 95.37 7.61Q95.94 6.86 96.46 6.19L96.46 6.19L92.50 0.72L95.60 0.72ZM121.38-3.02L121.38-3.02Q124.21-3.02 125.77-1.86Q127.33-0.70 127.33 1.94L127.33 1.94Q127.33 4.61 125.76 5.80Q124.18 6.98 121.30 6.98L121.30 6.98L120.25 6.98L120.25 12L117.30 12L117.30-2.66Q117.73-2.76 118.27-2.83Q118.81-2.90 119.36-2.94Q119.91-2.98 120.44-3Q120.97-3.02 121.38-3.02ZM121.71-0.46L121.71-0.46Q121.45-0.46 120.98-0.44Q120.51-0.43 120.25-0.38L120.25-0.38L120.25 4.42L121.45 4.42Q122.86 4.42 123.58 3.85Q124.30 3.29 124.30 1.92L124.30 1.92Q124.30 0.62 123.60 0.08Q122.89-0.46 121.71-0.46ZM139.33 6.34L139.33 6.34Q139.33 7.68 138.94 8.77Q138.56 9.86 137.86 10.66Q137.17 11.45 136.20 11.88Q135.22 12.31 134.02 12.31L134.02 12.31Q132.82 12.31 131.85 11.88Q130.88 11.45 130.17 10.66Q129.46 9.86 129.08 8.77Q128.70 7.68 128.70 6.34L128.70 6.34Q128.70 5.02 129.09 3.92Q129.49 2.83 130.20 2.05Q130.90 1.27 131.89 0.85Q132.87 0.43 134.02 0.43L134.02 0.43Q135.20 0.43 136.17 0.85Q137.14 1.27 137.85 2.05Q138.56 2.83 138.94 3.92Q139.33 5.02 139.33 6.34ZM131.70 6.36L131.70 6.36Q131.70 7.87 132.24 8.81Q132.78 9.74 133.98 9.74L133.98 9.74Q135.13 9.74 135.72 8.81Q136.30 7.87 136.30 6.36L136.30 6.36Q136.30 4.85 135.76 3.92Q135.22 3 134.02 3L134.02 3Q132.87 3 132.28 3.92Q131.70 4.85 131.70 6.36ZM150.82 9.14L151.21 11.52Q151.14 11.57 150.88 11.69Q150.63 11.81 150.22 11.94Q149.82 12.07 149.23 12.17Q148.64 12.26 147.90 12.26L147.90 12.26Q145.86 12.26 144.92 11.05Q143.98 9.84 143.98 7.51L143.98 7.51L143.98-2.06L140.86-2.06L140.86-4.51L146.94-4.51L146.94 7.73Q146.94 8.88 147.39 9.29Q147.85 9.70 148.54 9.70L148.54 9.70Q149.43 9.70 150.03 9.46Q150.63 9.22 150.82 9.14L150.82 9.14ZM158.82-2.52L158.82-2.52Q158.82-1.66 158.26-1.15Q157.71-0.65 156.94-0.65L156.94-0.65Q156.18-0.65 155.64-1.15Q155.10-1.66 155.10-2.52L155.10-2.52Q155.10-3.41 155.64-3.91Q156.18-4.42 156.94-4.42L156.94-4.42Q157.71-4.42 158.26-3.91Q158.82-3.41 158.82-2.52ZM162.82 9.14L163.21 11.52Q162.30 11.95 161.49 12.11Q160.69 12.26 160.02 12.26L160.02 12.26Q158.86 12.26 158.08 11.93Q157.30 11.59 156.84 10.96Q156.37 10.32 156.18 9.41Q155.98 8.50 155.98 7.32L155.98 7.32L155.98 3.17L152.86 3.17L152.86 0.72L158.94 0.72L158.94 7.70Q158.94 8.71 159.31 9.20Q159.68 9.70 160.54 9.70L160.54 9.70Q160.95 9.70 161.53 9.59Q162.10 9.48 162.82 9.14L162.82 9.14ZM165.06 6.36L165.06 6.36Q165.06 5.14 165.44 4.06Q165.82 2.98 166.62 2.17Q167.41 1.37 168.62 0.90Q169.83 0.43 171.51 0.43L171.51 0.43Q172.52 0.43 173.34 0.58Q174.15 0.72 174.99 1.06L174.99 1.06L174.34 3.43Q173.86 3.26 173.28 3.13Q172.69 3 171.78 3L171.78 3Q170.72 3 170.01 3.25Q169.30 3.50 168.87 3.95Q168.44 4.39 168.25 5.02Q168.06 5.64 168.06 6.36L168.06 6.36Q168.06 7.92 168.93 8.81Q169.81 9.70 171.92 9.70L171.92 9.70Q172.62 9.70 173.37 9.60Q174.13 9.50 174.75 9.29L174.75 9.29L175.18 11.71Q174.56 11.95 173.67 12.11Q172.78 12.26 171.58 12.26L171.58 12.26Q169.86 12.26 168.62 11.81Q167.38 11.35 166.59 10.56Q165.80 9.77 165.43 8.69Q165.06 7.61 165.06 6.36ZM184.30 0.72L187.33 0.72Q186.87 2.30 186.45 3.83Q186.03 5.35 185.58 6.80Q185.12 8.26 184.60 9.65Q184.09 11.04 183.49 12.36L183.49 12.36Q183.03 13.32 182.59 14.02Q182.14 14.71 181.60 15.16Q181.06 15.60 180.40 15.82Q179.74 16.03 178.86 16.03L178.86 16.03Q178.11 16.03 177.50 15.91Q176.89 15.79 176.48 15.60L176.48 15.60L177.03 13.13Q177.51 13.34 177.88 13.43Q178.26 13.51 178.69 13.51L178.69 13.51Q179.55 13.51 180.08 12.94Q180.61 12.36 180.92 11.57L180.92 11.57Q179.86 9.46 178.81 6.73Q177.75 4.01 176.89 0.72L176.89 0.72L179.96 0.72Q180.18 1.61 180.45 2.62Q180.73 3.62 181.04 4.63Q181.35 5.64 181.70 6.61Q182.05 7.58 182.41 8.42L182.41 8.42Q182.65 7.58 182.91 6.61Q183.18 5.64 183.42 4.64Q183.66 3.65 183.88 2.64Q184.11 1.63 184.30 0.72L184.30 0.72Z"/>
    </g>
</svg>