<?xml version="1.0" encoding="UTF-8"?>
<svg height="26" width="155.39999999999998" version="1.1" xmlns="http://www.w3.org/2000/svg"><!--Created by Josélio de S. C. Júnior - 2021 - https://github.com/joseliojunior -->
    <defs>
        <pattern id="pattern"
                x="1.5" y="3" width="3" height="6"
                patternUnits="userSpaceOnUse"
                patternTransform="rotate(45)" >
            <rect height="6" width="1" fill="#999999"/>
        </pattern>
    </defs>
    <rect
        height="24"
        width="153.39999999999998"
        rx="1"
        ry="1"
        x="1" y="1"
        fill="url(#pattern)"
        stroke="#000000"
        stroke-width="1" />
    <g transform="translate(0, 8)">
        <path fill="#ffffff" stroke="#000000" d="M23.71 8.56L23.71 8.56Q24.21 8.56 24.54 8.46Q24.86 8.35 25.06 8.17Q25.25 7.98 25.32 7.75Q25.39 7.52 25.39 7.28L25.39 7.28Q25.39 6.98 25.22 6.74Q25.04 6.50 24.77 6.31Q24.50 6.13 24.16 5.98Q23.82 5.82 23.49 5.70L23.49 5.70Q23.04 5.54 22.56 5.33Q22.08 5.12 21.69 4.80Q21.30 4.48 21.04 4.01Q20.78 3.54 20.78 2.83L20.78 2.83Q20.78 1.44 21.69 0.66Q22.59-0.13 24.18-0.13L24.18-0.13Q25.09-0.13 25.77 0.08Q26.45 0.29 26.91 0.54L26.91 0.54L26.34 2.06Q25.94 1.84 25.45 1.68Q24.96 1.52 24.32 1.52L24.32 1.52Q22.75 1.52 22.75 2.66L22.75 2.66Q22.75 2.94 22.91 3.16Q23.07 3.38 23.32 3.54Q23.57 3.71 23.88 3.84Q24.19 3.97 24.50 4.08L24.50 4.08Q24.96 4.26 25.46 4.47Q25.97 4.69 26.39 5.05Q26.82 5.41 27.09 5.94Q27.36 6.48 27.36 7.30L27.36 7.30Q27.36 8.69 26.46 9.45Q25.55 10.21 23.71 10.21L23.71 10.21Q22.48 10.21 21.74 9.94Q21.01 9.68 20.64 9.46L20.64 9.46L21.22 7.86Q21.65 8.11 22.25 8.34Q22.85 8.56 23.71 8.56ZM35.36 10L29.01 10L29.01 0.10L35.01 0.10L35.01 1.73L30.98 1.73L30.98 3.95L34.48 3.95L34.48 5.58L30.98 5.58L30.98 8.37L35.36 8.37L35.36 10ZM43.36 8.37L43.36 10L37.14 10L37.14 0.10L39.12 0.10L39.12 8.37L43.36 8.37ZM48.54 0.32L48.54 0.32Q48.54 0.90 48.18 1.23Q47.81 1.57 47.30 1.57L47.30 1.57Q46.78 1.57 46.42 1.23Q46.06 0.90 46.06 0.32L46.06 0.32Q46.06-0.27 46.42-0.61Q46.78-0.94 47.30-0.94L47.30-0.94Q47.81-0.94 48.18-0.61Q48.54-0.27 48.54 0.32ZM51.22 8.10L51.47 9.68Q50.86 9.97 50.33 10.07Q49.79 10.18 49.34 10.18L49.34 10.18Q48.58 10.18 48.06 9.95Q47.54 9.73 47.22 9.30Q46.91 8.88 46.78 8.27Q46.66 7.66 46.66 6.88L46.66 6.88L46.66 4.11L44.58 4.11L44.58 2.48L48.62 2.48L48.62 7.14Q48.62 7.81 48.87 8.14Q49.12 8.46 49.70 8.46L49.70 8.46Q49.97 8.46 50.35 8.39Q50.74 8.32 51.22 8.10L51.22 8.10ZM53.01 10L53.01 2.72Q53.54 2.58 54.31 2.45Q55.09 2.32 56 2.32L56 2.32Q56.90 2.32 57.49 2.57Q58.08 2.82 58.42 3.27Q58.77 3.73 58.91 4.36Q59.06 4.99 59.06 5.76L59.06 5.76L59.06 10L57.09 10L57.09 6.02Q57.09 4.96 56.85 4.50Q56.61 4.03 55.87 4.03L55.87 4.03Q55.65 4.03 55.43 4.05Q55.22 4.06 54.98 4.10L54.98 4.10L54.98 10L53.01 10ZM67.01 2.48L67.01 9.74Q66.46 9.89 65.69 10.03Q64.91 10.18 64 10.18L64 10.18Q63.07 10.18 62.48 9.92Q61.89 9.66 61.54 9.19Q61.20 8.72 61.07 8.08Q60.94 7.44 60.94 6.67L60.94 6.67L60.94 2.48L62.91 2.48L62.91 6.42Q62.91 7.46 63.16 7.96Q63.41 8.46 64.13 8.46L64.13 8.46Q64.58 8.46 65.02 8.38L65.02 8.38L65.02 2.48L67.01 2.48ZM70.40 2.48L72.06 4.83L73.60 2.48L75.60 2.48L73.17 6.10Q73.55 6.56 73.92 7.08Q74.29 7.60 74.62 8.13Q74.96 8.66 75.23 9.14Q75.50 9.62 75.70 10L75.70 10L73.65 10Q73.22 9.18 72.78 8.54Q72.35 7.90 71.97 7.39L71.97 7.39Q71.49 8.03 71.10 8.64Q70.72 9.25 70.32 10L70.32 10L68.32 10Q68.56 9.55 68.87 9.06Q69.18 8.58 69.53 8.07Q69.87 7.57 70.25 7.07Q70.62 6.58 70.98 6.13L70.98 6.13L68.34 2.48L70.40 2.48ZM87.58-0.02L87.58-0.02Q89.47-0.02 90.51 0.76Q91.55 1.54 91.55 3.30L91.55 3.30Q91.55 5.07 90.50 5.86Q89.46 6.66 87.54 6.66L87.54 6.66L86.83 6.66L86.83 10L84.86 10L84.86 0.22Q85.15 0.16 85.51 0.11Q85.87 0.06 86.24 0.04Q86.61 0.02 86.96 0Q87.31-0.02 87.58-0.02ZM87.81 1.70L87.81 1.70Q87.63 1.70 87.32 1.70Q87.01 1.71 86.83 1.74L86.83 1.74L86.83 4.94L87.63 4.94Q88.58 4.94 89.06 4.57Q89.54 4.19 89.54 3.28L89.54 3.28Q89.54 2.42 89.06 2.06Q88.59 1.70 87.81 1.70ZM99.55 6.22L99.55 6.22Q99.55 7.12 99.30 7.85Q99.04 8.58 98.58 9.10Q98.11 9.63 97.46 9.92Q96.82 10.21 96.02 10.21L96.02 10.21Q95.22 10.21 94.57 9.92Q93.92 9.63 93.45 9.10Q92.98 8.58 92.72 7.85Q92.46 7.12 92.46 6.22L92.46 6.22Q92.46 5.34 92.73 4.62Q92.99 3.89 93.46 3.37Q93.94 2.85 94.59 2.57Q95.25 2.29 96.02 2.29L96.02 2.29Q96.80 2.29 97.45 2.57Q98.10 2.85 98.57 3.37Q99.04 3.89 99.30 4.62Q99.55 5.34 99.55 6.22ZM94.46 6.24L94.46 6.24Q94.46 7.25 94.82 7.87Q95.18 8.50 95.98 8.50L95.98 8.50Q96.75 8.50 97.14 7.87Q97.54 7.25 97.54 6.24L97.54 6.24Q97.54 5.23 97.18 4.62Q96.82 4 96.02 4L96.02 4Q95.25 4 94.86 4.62Q94.46 5.23 94.46 6.24ZM107.22 8.10L107.47 9.68Q107.42 9.71 107.26 9.79Q107.09 9.87 106.82 9.96Q106.54 10.05 106.15 10.11Q105.76 10.18 105.26 10.18L105.26 10.18Q103.90 10.18 103.28 9.37Q102.66 8.56 102.66 7.01L102.66 7.01L102.66 0.62L100.58 0.62L100.58-1.01L104.62-1.01L104.62 7.15Q104.62 7.92 104.93 8.19Q105.23 8.46 105.70 8.46L105.70 8.46Q106.29 8.46 106.69 8.30Q107.09 8.14 107.22 8.10L107.22 8.10ZM112.54 0.32L112.54 0.32Q112.54 0.90 112.18 1.23Q111.81 1.57 111.30 1.57L111.30 1.57Q110.78 1.57 110.42 1.23Q110.06 0.90 110.06 0.32L110.06 0.32Q110.06-0.27 110.42-0.61Q110.78-0.94 111.30-0.94L111.30-0.94Q111.81-0.94 112.18-0.61Q112.54-0.27 112.54 0.32ZM115.22 8.10L115.47 9.68Q114.86 9.97 114.33 10.07Q113.79 10.18 113.34 10.18L113.34 10.18Q112.58 10.18 112.06 9.95Q111.54 9.73 111.22 9.30Q110.91 8.88 110.78 8.27Q110.66 7.66 110.66 6.88L110.66 6.88L110.66 4.11L108.58 4.11L108.58 2.48L112.62 2.48L112.62 7.14Q112.62 7.81 112.87 8.14Q113.12 8.46 113.70 8.46L113.70 8.46Q113.97 8.46 114.35 8.39Q114.74 8.32 115.22 8.10L115.22 8.10ZM116.70 6.24L116.70 6.24Q116.70 5.42 116.96 4.70Q117.22 3.98 117.74 3.45Q118.27 2.91 119.08 2.60Q119.89 2.29 121.01 2.29L121.01 2.29Q121.68 2.29 122.22 2.38Q122.77 2.48 123.33 2.70L123.33 2.70L122.90 4.29Q122.58 4.18 122.18 4.09Q121.79 4 121.18 4L121.18 4Q120.48 4 120.01 4.17Q119.54 4.34 119.25 4.63Q118.96 4.93 118.83 5.34Q118.70 5.76 118.70 6.24L118.70 6.24Q118.70 7.28 119.29 7.87Q119.87 8.46 121.28 8.46L121.28 8.46Q121.74 8.46 122.25 8.40Q122.75 8.34 123.17 8.19L123.17 8.19L123.46 9.81Q123.04 9.97 122.45 10.07Q121.86 10.18 121.06 10.18L121.06 10.18Q119.90 10.18 119.08 9.87Q118.26 9.57 117.73 9.04Q117.20 8.51 116.95 7.79Q116.70 7.07 116.70 6.24ZM129.54 2.48L131.55 2.48Q131.25 3.54 130.97 4.55Q130.69 5.57 130.38 6.54Q130.08 7.50 129.74 8.43Q129.39 9.36 128.99 10.24L128.99 10.24Q128.69 10.88 128.39 11.34Q128.10 11.81 127.74 12.10Q127.38 12.40 126.94 12.54Q126.50 12.69 125.90 12.69L125.90 12.69Q125.41 12.69 125 12.61Q124.59 12.53 124.32 12.40L124.32 12.40L124.69 10.75Q125.01 10.90 125.26 10.95Q125.50 11.01 125.79 11.01L125.79 11.01Q126.37 11.01 126.72 10.62Q127.07 10.24 127.28 9.71L127.28 9.71Q126.58 8.30 125.87 6.49Q125.17 4.67 124.59 2.48L124.59 2.48L126.64 2.48Q126.78 3.07 126.97 3.74Q127.15 4.42 127.36 5.09Q127.57 5.76 127.80 6.41Q128.03 7.06 128.27 7.62L128.27 7.62Q128.43 7.06 128.61 6.41Q128.78 5.76 128.94 5.10Q129.10 4.43 129.26 3.76Q129.41 3.09 129.54 2.48L129.54 2.48Z"/>
    </g>
</svg>