<?xml version="1.0" encoding="UTF-8"?>
<svg height="34" width="134.8" version="1.1" xmlns="http://www.w3.org/2000/svg">
    <rect
        height="32"
        width="132.8"
        rx="1"
        ry="1"
        x="1"
        y="1"
        fill="#fc5757"
        stroke="#820303"
        stroke-width="1"
         />
    <g transform="translate(0, 14)">
        <path fill="#820303" d="M15.77-0.20L18.29-0.20Q18.40 0.33 18.62 1.12Q18.85 1.90 19.11 2.85Q19.38 3.80 19.70 4.90Q20.02 5.99 20.33 7.14L20.33 7.14Q20.33 5.68 20.30 4.01Q20.28 2.35 20.25 0.61Q20.22-1.12 20.19-2.90Q20.16-4.68 20.16-6.33L20.16-6.33L23.36-6.33Q23.27-4.20 23.19-1.95Q23.10 0.30 22.99 2.53Q22.88 4.76 22.73 6.91Q22.57 9.07 22.38 11L22.38 11L19.52 11Q18.90 9.24 18.29 7.21Q17.67 5.18 17.06 3.33L17.06 3.33Q16.44 5.09 15.77 7.16Q15.10 9.24 14.54 11L14.54 11L11.68 11Q11.46 9.07 11.29 6.90Q11.12 4.73 10.99 2.50Q10.87 0.28 10.78-1.98Q10.70-4.23 10.64-6.33L10.64-6.33L13.84-6.33Q13.81-4.68 13.78-2.92Q13.75-1.15 13.72 0.60Q13.70 2.35 13.67 4.01Q13.64 5.68 13.64 7.14L13.64 7.14Q13.89 6.24 14.21 5.18Q14.54 4.11 14.83 3.08Q15.12 2.04 15.38 1.17Q15.63 0.30 15.77-0.20L15.77-0.20ZM31.95-5.94L31.95-5.94Q31.95-4.93 31.31-4.34Q30.66-3.76 29.77-3.76L29.77-3.76Q28.87-3.76 28.24-4.34Q27.61-4.93 27.61-5.94L27.61-5.94Q27.61-6.98 28.24-7.56Q28.87-8.15 29.77-8.15L29.77-8.15Q30.66-8.15 31.31-7.56Q31.95-6.98 31.95-5.94ZM36.63 7.67L37.08 10.44Q36.01 10.94 35.07 11.13Q34.14 11.31 33.35 11.31L33.35 11.31Q32.01 11.31 31.10 10.92Q30.19 10.52 29.64 9.78Q29.10 9.04 28.87 7.98Q28.65 6.91 28.65 5.54L28.65 5.54L28.65 0.70L25.01 0.70L25.01-2.16L32.09-2.16L32.09 5.99Q32.09 7.16 32.53 7.74Q32.96 8.31 33.97 8.31L33.97 8.31Q34.44 8.31 35.12 8.19Q35.79 8.06 36.63 7.67L36.63 7.67ZM43.24-8.43L43.24 3.05Q43.74 2.46 44.26 1.80Q44.78 1.14 45.27 0.44Q45.76-0.26 46.20-0.91Q46.65-1.57 46.99-2.16L46.99-2.16L51.13-2.16Q50.63-1.52 49.98-0.76Q49.34-0.00 48.65 0.78Q47.97 1.56 47.28 2.29Q46.60 3.02 46.04 3.64L46.04 3.64Q46.74 4.31 47.55 5.25Q48.36 6.18 49.14 7.19Q49.93 8.20 50.59 9.21Q51.24 10.22 51.64 11L51.64 11L47.69 11Q47.35 10.30 46.81 9.42Q46.26 8.54 45.64 7.68Q45.03 6.83 44.40 6.06Q43.77 5.29 43.24 4.78L43.24 4.78L43.24 11L39.76 11L39.76-7.84L43.24-8.43ZM59.95-5.94L59.95-5.94Q59.95-4.93 59.31-4.34Q58.66-3.76 57.77-3.76L57.77-3.76Q56.87-3.76 56.24-4.34Q55.61-4.93 55.61-5.94L55.61-5.94Q55.61-6.98 56.24-7.56Q56.87-8.15 57.77-8.15L57.77-8.15Q58.66-8.15 59.31-7.56Q59.95-6.98 59.95-5.94ZM64.63 7.67L65.08 10.44Q64.01 10.94 63.07 11.13Q62.14 11.31 61.35 11.31L61.35 11.31Q60.01 11.31 59.10 10.92Q58.19 10.52 57.64 9.78Q57.10 9.04 56.87 7.98Q56.65 6.91 56.65 5.54L56.65 5.54L56.65 0.70L53.01 0.70L53.01-2.16L60.09-2.16L60.09 5.99Q60.09 7.16 60.53 7.74Q60.96 8.31 61.97 8.31L61.97 8.31Q62.44 8.31 63.12 8.19Q63.79 8.06 64.63 7.67L64.63 7.67ZM70.00 6.10L70.00 0.70L67.01 0.70L67.01-2.16L70.00-2.16L70.00-5.46L73.45-6.02L73.45-2.16L78.96-2.16L78.96 0.70L73.45 0.70L73.45 6.02Q73.45 6.74 73.59 7.19Q73.73 7.64 73.98 7.89Q74.23 8.14 74.60 8.23Q74.96 8.31 75.41 8.31L75.41 8.31Q75.88 8.31 76.29 8.28Q76.70 8.26 77.07 8.19Q77.45 8.12 77.86 7.98Q78.26 7.84 78.74 7.61L78.74 7.61L79.22 10.58Q78.26 10.97 77.16 11.14Q76.05 11.31 75.02 11.31L75.02 11.31Q73.81 11.31 72.89 11.11Q71.96 10.92 71.32 10.36Q70.68 9.80 70.34 8.77Q70.00 7.75 70.00 6.10L70.00 6.10ZM80.87 4.53L80.87 4.53Q80.87 2.80 81.40 1.48Q81.93 0.16 82.80-0.72Q83.67-1.60 84.79-2.05Q85.91-2.50 87.08-2.50L87.08-2.50Q90.00-2.50 91.51-0.77Q93.02 0.95 93.02 4.25L93.02 4.25Q93.02 4.59 93.01 4.95Q92.99 5.32 92.96 5.54L92.96 5.54L84.42 5.54Q84.42 6.83 85.49 7.57Q86.55 8.31 88.23 8.31L88.23 8.31Q89.27 8.31 90.21 8.09Q91.14 7.86 91.79 7.64L91.79 7.64L92.26 10.58Q91.37 10.89 90.36 11.10Q89.35 11.31 88.09 11.31L88.09 11.31Q86.41 11.31 85.08 10.87Q83.75 10.44 82.81 9.59Q81.88 8.73 81.37 7.47Q80.87 6.21 80.87 4.53ZM84.42 3.16L89.69 3.16Q89.69 2.63 89.55 2.14Q89.41 1.65 89.10 1.26Q88.79 0.86 88.32 0.63Q87.84 0.39 87.14 0.39L87.14 0.39Q86.47 0.39 85.98 0.61Q85.49 0.84 85.17 1.23Q84.84 1.62 84.66 2.12Q84.48 2.63 84.42 3.16L84.42 3.16ZM98.20-2.16L101.11 1.96L103.80-2.16L107.30-2.16L103.04 4.17Q103.72 4.98 104.36 5.89Q105.00 6.80 105.59 7.72Q106.18 8.65 106.66 9.49Q107.13 10.33 107.47 11L107.47 11L103.88 11Q103.13 9.57 102.37 8.45Q101.62 7.33 100.94 6.44L100.94 6.44Q100.10 7.56 99.43 8.62Q98.76 9.68 98.06 11L98.06 11L94.56 11Q94.98 10.22 95.53 9.36Q96.07 8.51 96.67 7.63Q97.28 6.74 97.93 5.88Q98.59 5.01 99.21 4.22L99.21 4.22L94.59-2.16L98.20-2.16ZM112.00 6.10L112.00 0.70L109.01 0.70L109.01-2.16L112.00-2.16L112.00-5.46L115.45-6.02L115.45-2.16L120.96-2.16L120.96 0.70L115.45 0.70L115.45 6.02Q115.45 6.74 115.59 7.19Q115.73 7.64 115.98 7.89Q116.23 8.14 116.60 8.23Q116.96 8.31 117.41 8.31L117.41 8.31Q117.88 8.31 118.29 8.28Q118.70 8.26 119.07 8.19Q119.45 8.12 119.86 7.98Q120.26 7.84 120.74 7.61L120.74 7.61L121.22 10.58Q120.26 10.97 119.16 11.14Q118.05 11.31 117.02 11.31L117.02 11.31Q115.81 11.31 114.89 11.11Q113.96 10.92 113.32 10.36Q112.68 9.80 112.34 8.77Q112.00 7.75 112.00 6.10L112.00 6.10Z"/>
    </g>
</svg>