<?xml version="1.0" encoding="UTF-8"?>
<svg height="34" width="275.79999999999995" version="1.1" xmlns="http://www.w3.org/2000/svg">
    <rect
        height="32"
        width="273.79999999999995"
        rx="1"
        ry="1"
        x="1"
        y="1"
        fill="#292929"
        stroke="#757575"
        stroke-width="1"
         />
    <g transform="translate(0, 14)">
        <path fill="#757575" d="M22.26-6.33L22.26 5.20Q22.26 6.46 21.94 7.58Q21.62 8.70 20.88 9.54Q20.14 10.38 18.96 10.87Q17.78 11.36 16.10 11.36L16.10 11.36Q14.34 11.36 13.16 10.92Q11.99 10.47 11.18 9.82L11.18 9.82L12.49 7.08Q13.19 7.53 14.05 7.95Q14.90 8.37 15.80 8.37L15.80 8.37Q17.14 8.37 17.97 7.65Q18.79 6.94 18.79 5.01L18.79 5.01L18.79-3.48L13.00-3.48L13.00-6.33L22.26-6.33ZM30.50 8.48L30.50 8.48Q31.36 8.48 31.94 8.30Q32.51 8.12 32.85 7.79Q33.18 7.47 33.31 7.07Q33.44 6.66 33.44 6.24L33.44 6.24Q33.44 5.71 33.13 5.29Q32.82 4.87 32.34 4.55Q31.87 4.22 31.28 3.96Q30.69 3.69 30.10 3.47L30.10 3.47Q29.32 3.19 28.48 2.82Q27.64 2.46 26.95 1.90Q26.27 1.34 25.82 0.51Q25.37-0.31 25.37-1.54L25.37-1.54Q25.37-3.98 26.95-5.35Q28.54-6.72 31.31-6.72L31.31-6.72Q32.90-6.72 34.09-6.36Q35.28-6.00 36.10-5.55L36.10-5.55L35.09-2.89Q34.39-3.28 33.53-3.56Q32.68-3.84 31.56-3.84L31.56-3.84Q28.82-3.84 28.82-1.85L28.82-1.85Q28.82-1.35 29.10-0.97Q29.38-0.59 29.81-0.30Q30.24-0.00 30.79 0.22Q31.34 0.44 31.87 0.64L31.87 0.64Q32.68 0.95 33.56 1.33Q34.44 1.70 35.19 2.33Q35.93 2.96 36.40 3.90Q36.88 4.84 36.88 6.27L36.88 6.27Q36.88 8.70 35.30 10.03Q33.72 11.36 30.50 11.36L30.50 11.36Q28.34 11.36 27.05 10.90Q25.76 10.44 25.12 10.05L25.12 10.05L26.13 7.25Q26.88 7.70 27.93 8.09Q28.98 8.48 30.50 8.48ZM42.26 2.32L42.26 2.32Q42.26 3.58 42.35 4.69Q42.45 5.79 42.75 6.60Q43.04 7.42 43.57 7.89Q44.10 8.37 45 8.37L45 8.37Q45.87 8.37 46.41 7.89Q46.96 7.42 47.25 6.59Q47.55 5.76 47.65 4.67Q47.74 3.58 47.74 2.32L47.74 2.32Q47.74 1.06 47.65-0.05Q47.55-1.15 47.25-1.96Q46.96-2.78 46.43-3.25Q45.90-3.73 45-3.73L45-3.73Q44.10-3.73 43.57-3.25Q43.04-2.78 42.75-1.95Q42.45-1.12 42.35-0.03Q42.26 1.06 42.26 2.32ZM38.76 2.32L38.76 2.32Q38.76-2.16 40.41-4.44Q42.06-6.72 45-6.72L45-6.72Q48.05-6.72 49.65-4.44Q51.24-2.16 51.24 2.32L51.24 2.32Q51.24 6.80 49.62 9.08Q48.00 11.36 45.03 11.36L45.03 11.36Q41.98 11.36 40.37 9.08Q38.76 6.80 38.76 2.32ZM64.71 11L61.94 11Q60.76 8.12 59.38 5.25Q57.99 2.38 56.40-0.51L56.40-0.51L56.40 11L53.29 11L53.29-6.33L56.06-6.33Q56.84-5.10 57.63-3.66Q58.41-2.22 59.15-0.79Q59.90 0.64 60.53 1.98Q61.16 3.33 61.60 4.34L61.60 4.34L61.60-6.33L64.71-6.33L64.71 11ZM91.62 11L89.02 11Q88.71 10.13 88.44 9.40Q88.18 8.68 87.94 7.99Q87.70 7.30 87.46 6.56Q87.22 5.82 86.97 4.92L86.97 4.92Q86.69 5.82 86.47 6.53Q86.24 7.25 86.01 7.95Q85.77 8.65 85.52 9.38Q85.26 10.10 84.90 11L84.90 11L82.30 11Q81.96 9.77 81.67 8.27Q81.37 6.77 81.12 5.08Q80.87 3.38 80.67 1.56Q80.48-0.26 80.31-2.16L80.31-2.16L83.25-2.16Q83.36 0.28 83.49 2.60Q83.61 4.92 83.95 7.39L83.95 7.39Q84.31 6.32 84.58 5.41Q84.84 4.50 85.05 3.68Q85.26 2.85 85.45 2.08Q85.63 1.31 85.82 0.50L85.82 0.50L88.32 0.50Q88.48 1.31 88.67 2.08Q88.85 2.85 89.06 3.68Q89.27 4.50 89.51 5.41Q89.74 6.32 90.08 7.39L90.08 7.39Q90.25 6.10 90.36 4.92Q90.47 3.75 90.54 2.59Q90.61 1.42 90.65 0.26Q90.70-0.90 90.75-2.16L90.75-2.16L93.69-2.16Q93.38 1.68 92.84 5.06Q92.29 8.45 91.62 11L91.62 11ZM101.95-5.94L101.95-5.94Q101.95-4.93 101.31-4.34Q100.66-3.76 99.77-3.76L99.77-3.76Q98.87-3.76 98.24-4.34Q97.61-4.93 97.61-5.94L97.61-5.94Q97.61-6.98 98.24-7.56Q98.87-8.15 99.77-8.15L99.77-8.15Q100.66-8.15 101.31-7.56Q101.95-6.98 101.95-5.94ZM106.63 7.67L107.08 10.44Q106.01 10.94 105.07 11.13Q104.14 11.31 103.35 11.31L103.35 11.31Q102.01 11.31 101.10 10.92Q100.19 10.52 99.64 9.78Q99.10 9.04 98.87 7.98Q98.65 6.91 98.65 5.54L98.65 5.54L98.65 0.70L95.01 0.70L95.01-2.16L102.09-2.16L102.09 5.99Q102.09 7.16 102.53 7.74Q102.96 8.31 103.97 8.31L103.97 8.31Q104.44 8.31 105.12 8.19Q105.79 8.06 106.63 7.67L106.63 7.67ZM112.00 6.10L112.00 0.70L109.01 0.70L109.01-2.16L112.00-2.16L112.00-5.46L115.45-6.02L115.45-2.16L120.96-2.16L120.96 0.70L115.45 0.70L115.45 6.02Q115.45 6.74 115.59 7.19Q115.73 7.64 115.98 7.89Q116.23 8.14 116.60 8.23Q116.96 8.31 117.41 8.31L117.41 8.31Q117.88 8.31 118.29 8.28Q118.70 8.26 119.07 8.19Q119.45 8.12 119.86 7.98Q120.26 7.84 120.74 7.61L120.74 7.61L121.22 10.58Q120.26 10.97 119.16 11.14Q118.05 11.31 117.02 11.31L117.02 11.31Q115.81 11.31 114.89 11.11Q113.96 10.92 113.32 10.36Q112.68 9.80 112.34 8.77Q112.00 7.75 112.00 6.10L112.00 6.10ZM127.21 11L123.76 11L123.76-7.84L127.21-8.43L127.21-2.05Q127.63-2.19 128.22-2.31Q128.80-2.44 129.25-2.44L129.25-2.44Q130.71-2.44 131.69-2.01Q132.67-1.57 133.26-0.77Q133.84 0.02 134.10 1.13Q134.35 2.24 134.35 3.58L134.35 3.58L134.35 11L130.90 11L130.90 4.03Q130.90 2.18 130.48 1.37Q130.06 0.56 128.89 0.56L128.89 0.56Q128.41 0.56 127.95 0.67Q127.49 0.78 127.21 0.86L127.21 0.86L127.21 11ZM158.29 11.36L158.29 11.36Q154.62 11.36 152.69 9.01Q150.76 6.66 150.76 2.32L150.76 2.32Q150.76 0.16 151.34-1.52Q151.93-3.20 152.98-4.36Q154.03-5.52 155.47-6.12Q156.92-6.72 158.62-6.72L158.62-6.72Q159.55-6.72 160.29-6.57Q161.03-6.42 161.59-6.22Q162.15-6.02 162.53-5.80Q162.91-5.58 163.10-5.46L163.10-5.46L162.21-2.72Q161.56-3.14 160.65-3.43Q159.74-3.73 158.57-3.73L158.57-3.73Q157.76-3.73 156.99-3.43Q156.22-3.14 155.61-2.45Q155.01-1.77 154.63-0.62Q154.26 0.53 154.26 2.24L154.26 2.24Q154.26 5.20 155.28 6.79Q156.30 8.37 158.62 8.37L158.62 8.37Q159.97 8.37 160.85 8.06Q161.73 7.75 162.26 7.44L162.26 7.44L163.13 10.16Q162.40 10.61 161.16 10.99Q159.91 11.36 158.29 11.36ZM177.22 4.39L177.22 4.39Q177.22 5.96 176.77 7.23Q176.32 8.51 175.51 9.43Q174.70 10.36 173.56 10.86Q172.43 11.36 171.03 11.36L171.03 11.36Q169.63 11.36 168.49 10.86Q167.36 10.36 166.53 9.43Q165.71 8.51 165.26 7.23Q164.81 5.96 164.81 4.39L164.81 4.39Q164.81 2.85 165.27 1.58Q165.74 0.30 166.56-0.61Q167.39-1.52 168.54-2.01Q169.68-2.50 171.03-2.50L171.03-2.50Q172.40-2.50 173.53-2.01Q174.67-1.52 175.49-0.61Q176.32 0.30 176.77 1.58Q177.22 2.85 177.22 4.39ZM168.31 4.42L168.31 4.42Q168.31 6.18 168.94 7.28Q169.57 8.37 170.97 8.37L170.97 8.37Q172.32 8.37 173.00 7.28Q173.69 6.18 173.69 4.42L173.69 4.42Q173.69 2.66 173.06 1.58Q172.43 0.50 171.03 0.50L171.03 0.50Q169.68 0.50 169.00 1.58Q168.31 2.66 168.31 4.42ZM187.60-2.30L187.60-2.30Q188.70-2.30 189.40-1.96Q190.10-1.63 190.50-0.96Q190.91-0.28 191.05 0.74Q191.19 1.76 191.19 3.13L191.19 3.13L191.19 11L188.39 11L188.39 2.96Q188.39 2.18 188.29 1.70Q188.19 1.23 188.04 0.98Q187.88 0.72 187.67 0.64Q187.46 0.56 187.24 0.56L187.24 0.56Q186.99 0.56 186.71 0.60Q186.43 0.64 186.20 0.75L186.20 0.75Q186.29 1.28 186.34 1.93Q186.40 2.57 186.40 3.36L186.40 3.36L186.40 5.99L183.60 5.99L183.60 2.96Q183.60 1.62 183.33 1.09Q183.07 0.56 182.48 0.56L182.48 0.56Q182.31 0.56 182.07 0.58Q181.84 0.61 181.61 0.67L181.61 0.67L181.61 11L178.81 11L178.81-1.66Q179.90-1.96 180.97-2.13Q182.03-2.30 182.84-2.30L182.84-2.30Q183.57-2.30 184.15-2.12Q184.72-1.94 185.14-1.52L185.14-1.52Q185.62-1.82 186.26-2.06Q186.90-2.30 187.60-2.30ZM201.60-2.30L201.60-2.30Q202.70-2.30 203.40-1.96Q204.10-1.63 204.50-0.96Q204.91-0.28 205.05 0.74Q205.19 1.76 205.19 3.13L205.19 3.13L205.19 11L202.39 11L202.39 2.96Q202.39 2.18 202.29 1.70Q202.19 1.23 202.04 0.98Q201.88 0.72 201.67 0.64Q201.46 0.56 201.24 0.56L201.24 0.56Q200.99 0.56 200.71 0.60Q200.43 0.64 200.20 0.75L200.20 0.75Q200.29 1.28 200.34 1.93Q200.40 2.57 200.40 3.36L200.40 3.36L200.40 5.99L197.60 5.99L197.60 2.96Q197.60 1.62 197.33 1.09Q197.07 0.56 196.48 0.56L196.48 0.56Q196.31 0.56 196.07 0.58Q195.84 0.61 195.61 0.67L195.61 0.67L195.61 11L192.81 11L192.81-1.66Q193.90-1.96 194.97-2.13Q196.03-2.30 196.84-2.30L196.84-2.30Q197.57-2.30 198.15-2.12Q198.72-1.94 199.14-1.52L199.14-1.52Q199.62-1.82 200.26-2.06Q200.90-2.30 201.60-2.30ZM206.87 4.53L206.87 4.53Q206.87 2.80 207.40 1.48Q207.93 0.16 208.80-0.72Q209.67-1.60 210.79-2.05Q211.91-2.50 213.08-2.50L213.08-2.50Q216.00-2.50 217.51-0.77Q219.02 0.95 219.02 4.25L219.02 4.25Q219.02 4.59 219.01 4.95Q218.99 5.32 218.96 5.54L218.96 5.54L210.42 5.54Q210.42 6.83 211.49 7.57Q212.55 8.31 214.23 8.31L214.23 8.31Q215.27 8.31 216.21 8.09Q217.14 7.86 217.79 7.64L217.79 7.64L218.26 10.58Q217.37 10.89 216.36 11.10Q215.35 11.31 214.09 11.31L214.09 11.31Q212.41 11.31 211.08 10.87Q209.75 10.44 208.81 9.59Q207.88 8.73 207.37 7.47Q206.87 6.21 206.87 4.53ZM210.42 3.16L215.69 3.16Q215.69 2.63 215.55 2.14Q215.41 1.65 215.10 1.26Q214.79 0.86 214.32 0.63Q213.84 0.39 213.14 0.39L213.14 0.39Q212.47 0.39 211.98 0.61Q211.49 0.84 211.17 1.23Q210.84 1.62 210.66 2.12Q210.48 2.63 210.42 3.16L210.42 3.16ZM221.76 11L221.76-1.74Q222.69-1.99 224.05-2.22Q225.40-2.44 227-2.44L227-2.44Q228.57-2.44 229.60-2.01Q230.64-1.57 231.24-0.77Q231.84 0.02 232.10 1.13Q232.35 2.24 232.35 3.58L232.35 3.58L232.35 11L228.90 11L228.90 4.03Q228.90 2.18 228.48 1.37Q228.06 0.56 226.78 0.56L226.78 0.56Q226.38 0.56 226.01 0.58Q225.63 0.61 225.21 0.67L225.21 0.67L225.21 11L221.76 11ZM238.00 6.10L238.00 0.70L235.01 0.70L235.01-2.16L238.00-2.16L238.00-5.46L241.45-6.02L241.45-2.16L246.96-2.16L246.96 0.70L241.45 0.70L241.45 6.02Q241.45 6.74 241.59 7.19Q241.73 7.64 241.98 7.89Q242.23 8.14 242.60 8.23Q242.96 8.31 243.41 8.31L243.41 8.31Q243.88 8.31 244.29 8.28Q244.70 8.26 245.07 8.19Q245.45 8.12 245.86 7.98Q246.26 7.84 246.74 7.61L246.74 7.61L247.22 10.58Q246.26 10.97 245.16 11.14Q244.05 11.31 243.02 11.31L243.02 11.31Q241.81 11.31 240.89 11.11Q239.96 10.92 239.32 10.36Q238.68 9.80 238.34 8.77Q238.00 7.75 238.00 6.10L238.00 6.10ZM254.38 8.40L254.38 8.40Q255.64 8.40 256.32 8.21Q256.99 8.03 256.99 7.47L256.99 7.47Q256.99 7.11 256.78 6.86Q256.57 6.60 256.19 6.42Q255.81 6.24 255.32 6.07Q254.83 5.90 254.30 5.74L254.30 5.74Q253.54 5.51 252.76 5.22Q251.98 4.92 251.33 4.48Q250.69 4.03 250.27 3.34Q249.85 2.66 249.85 1.62L249.85 1.62Q249.85 0.78 250.17 0.04Q250.49-0.70 251.18-1.28Q251.86-1.85 252.93-2.17Q253.99-2.50 255.48-2.50L255.48-2.50Q256.76-2.50 257.87-2.30Q258.98-2.10 259.79-1.74L259.79-1.74L259.26 1.17Q258.78 1.03 257.77 0.71Q256.76 0.39 255.50 0.39L255.50 0.39Q254.19 0.39 253.73 0.71Q253.26 1.03 253.26 1.40L253.26 1.40Q253.26 1.70 253.47 1.94Q253.68 2.18 254.03 2.38Q254.38 2.57 254.85 2.75Q255.31 2.94 255.84 3.10L255.84 3.10Q256.60 3.36 257.41 3.66Q258.22 3.97 258.88 4.43Q259.54 4.90 259.96 5.61Q260.38 6.32 260.38 7.36L260.38 7.36Q260.38 8.17 260.07 8.90Q259.76 9.63 259.05 10.16Q258.33 10.69 257.18 11Q256.04 11.31 254.36 11.31L254.36 11.31Q252.65 11.31 251.44 10.92Q250.24 10.52 249.51 10.22L249.51 10.22L250.04 7.33Q251.02 7.72 252.13 8.06Q253.24 8.40 254.38 8.40Z"/>
    </g>
</svg>