<?xml version="1.0" encoding="UTF-8"?><svg height="34" width="199.3" version="1.1" xmlns="http://www.w3.org/2000/svg"><!--Created by Josélio de S. C. Júnior - 2021 - https://github.com/joseliojunior --><rect height="32" width="197.3" rx="16" ry="16" x="1" y="1" fill="#9400ff" stroke="#3b0066" stroke-width="1" /><g transform="translate(0, 12)"><path fill="#3b0066" d="M27.49-0.62L27.49-0.62Q26.43-0.62 25.71-0.24Q24.99 0.14 24.52 0.83Q24.06 1.51 23.85 2.46Q23.65 3.41 23.65 4.56L23.65 4.56Q23.65 7.22 24.49 8.48Q25.33 9.74 26.96 9.74L26.96 9.74Q27.22 9.74 27.54 9.72Q27.85 9.70 28.11 9.65L28.11 9.65L28.11 4.22L31.06 4.22L31.06 11.64Q30.54 11.83 29.42 12.07Q28.30 12.31 26.72 12.31L26.72 12.31Q25.33 12.31 24.21 11.82Q23.10 11.33 22.30 10.36Q21.51 9.38 21.08 7.93Q20.65 6.48 20.65 4.56L20.65 4.56Q20.65 2.66 21.15 1.21Q21.66-0.24 22.52-1.22Q23.38-2.21 24.56-2.70Q25.74-3.19 27.08-3.19L27.08-3.19Q27.94-3.19 28.63-3.06Q29.31-2.93 29.82-2.76Q30.32-2.59 30.64-2.40Q30.97-2.21 31.14-2.11L31.14-2.11L30.37 0.24Q29.84-0.10 29.07-0.36Q28.30-0.62 27.49-0.62ZM32.74 6.46L32.74 6.46Q32.74 4.97 33.20 3.84Q33.66 2.71 34.40 1.96Q35.14 1.20 36.10 0.82Q37.06 0.43 38.07 0.43L38.07 0.43Q40.57 0.43 41.86 1.91Q43.16 3.38 43.16 6.22L43.16 6.22Q43.16 6.50 43.15 6.82Q43.14 7.13 43.11 7.32L43.11 7.32L35.79 7.32Q35.79 8.42 36.70 9.06Q37.62 9.70 39.06 9.70L39.06 9.70Q39.94 9.70 40.75 9.50Q41.55 9.31 42.10 9.12L42.10 9.12L42.51 11.64Q41.74 11.90 40.88 12.08Q40.02 12.26 38.94 12.26L38.94 12.26Q37.50 12.26 36.36 11.89Q35.22 11.52 34.41 10.79Q33.61 10.06 33.18 8.98Q32.74 7.90 32.74 6.46ZM35.79 5.28L40.30 5.28Q40.30 4.82 40.18 4.40Q40.06 3.98 39.80 3.65Q39.54 3.31 39.13 3.11Q38.72 2.90 38.12 2.90L38.12 2.90Q37.54 2.90 37.12 3.10Q36.70 3.29 36.43 3.62Q36.15 3.96 36.00 4.39Q35.84 4.82 35.79 5.28L35.79 5.28ZM45.51 12L45.51 1.08Q46.30 0.86 47.47 0.67Q48.63 0.48 50 0.48L50 0.48Q51.34 0.48 52.23 0.85Q53.12 1.22 53.64 1.91Q54.15 2.59 54.37 3.54Q54.58 4.49 54.58 5.64L54.58 5.64L54.58 12L51.63 12L51.63 6.02Q51.63 4.44 51.27 3.74Q50.91 3.05 49.81 3.05L49.81 3.05Q49.47 3.05 49.15 3.07Q48.82 3.10 48.46 3.14L48.46 3.14L48.46 12L45.51 12ZM59.43 7.80L59.43 3.17L56.86 3.17L56.86 0.72L59.43 0.72L59.43-2.11L62.38-2.59L62.38 0.72L67.11 0.72L67.11 3.17L62.38 3.17L62.38 7.73Q62.38 8.35 62.50 8.74Q62.62 9.12 62.84 9.34Q63.06 9.55 63.37 9.62Q63.68 9.70 64.06 9.70L64.06 9.70Q64.47 9.70 64.82 9.67Q65.17 9.65 65.49 9.59Q65.82 9.53 66.16 9.41Q66.51 9.29 66.92 9.10L66.92 9.10L67.33 11.64Q66.51 11.98 65.56 12.12Q64.62 12.26 63.73 12.26L63.73 12.26Q62.70 12.26 61.90 12.10Q61.11 11.93 60.56 11.45Q60.01 10.97 59.72 10.09Q59.43 9.22 59.43 7.80L59.43 7.80ZM79.33 6.34L79.33 6.34Q79.33 7.68 78.94 8.77Q78.56 9.86 77.86 10.66Q77.17 11.45 76.20 11.88Q75.22 12.31 74.02 12.31L74.02 12.31Q72.82 12.31 71.85 11.88Q70.88 11.45 70.17 10.66Q69.46 9.86 69.08 8.77Q68.70 7.68 68.70 6.34L68.70 6.34Q68.70 5.02 69.09 3.92Q69.49 2.83 70.20 2.05Q70.90 1.27 71.89 0.85Q72.87 0.43 74.02 0.43L74.02 0.43Q75.20 0.43 76.17 0.85Q77.14 1.27 77.85 2.05Q78.56 2.83 78.94 3.92Q79.33 5.02 79.33 6.34ZM71.70 6.36L71.70 6.36Q71.70 7.87 72.24 8.81Q72.78 9.74 73.98 9.74L73.98 9.74Q75.13 9.74 75.72 8.81Q76.30 7.87 76.30 6.36L76.30 6.36Q76.30 4.85 75.76 3.92Q75.22 3 74.02 3L74.02 3Q72.87 3 72.28 3.92Q71.70 4.85 71.70 6.36ZM91.33 6.34L91.33 6.34Q91.33 7.68 90.94 8.77Q90.56 9.86 89.86 10.66Q89.17 11.45 88.20 11.88Q87.22 12.31 86.02 12.31L86.02 12.31Q84.82 12.31 83.85 11.88Q82.88 11.45 82.17 10.66Q81.46 9.86 81.08 8.77Q80.70 7.68 80.70 6.34L80.70 6.34Q80.70 5.02 81.09 3.92Q81.49 2.83 82.20 2.05Q82.90 1.27 83.89 0.85Q84.87 0.43 86.02 0.43L86.02 0.43Q87.20 0.43 88.17 0.85Q89.14 1.27 89.85 2.05Q90.56 2.83 90.94 3.92Q91.33 5.02 91.33 6.34ZM83.70 6.36L83.70 6.36Q83.70 7.87 84.24 8.81Q84.78 9.74 85.98 9.74L85.98 9.74Q87.13 9.74 87.72 8.81Q88.30 7.87 88.30 6.36L88.30 6.36Q88.30 4.85 87.76 3.92Q87.22 3 86.02 3L86.02 3Q84.87 3 84.28 3.92Q83.70 4.85 83.70 6.36ZM115.04 12L105.51 12L105.51-2.86L114.51-2.86L114.51-0.41L108.46-0.41L108.46 2.93L113.72 2.93L113.72 5.38L108.46 5.38L108.46 9.55L115.04 9.55L115.04 12ZM117.06 6.36L117.06 6.36Q117.06 5.14 117.44 4.06Q117.82 2.98 118.62 2.17Q119.41 1.37 120.62 0.90Q121.83 0.43 123.51 0.43L123.51 0.43Q124.52 0.43 125.34 0.58Q126.15 0.72 126.99 1.06L126.99 1.06L126.34 3.43Q125.86 3.26 125.28 3.13Q124.69 3 123.78 3L123.78 3Q122.72 3 122.01 3.25Q121.30 3.50 120.87 3.95Q120.44 4.39 120.25 5.02Q120.06 5.64 120.06 6.36L120.06 6.36Q120.06 7.92 120.93 8.81Q121.81 9.70 123.92 9.70L123.92 9.70Q124.62 9.70 125.37 9.60Q126.13 9.50 126.75 9.29L126.75 9.29L127.18 11.71Q126.56 11.95 125.67 12.11Q124.78 12.26 123.58 12.26L123.58 12.26Q121.86 12.26 120.62 11.81Q119.38 11.35 118.59 10.56Q117.80 9.77 117.43 8.69Q117.06 7.61 117.06 6.36ZM138.82 9.14L139.21 11.52Q139.14 11.57 138.88 11.69Q138.63 11.81 138.22 11.94Q137.82 12.07 137.23 12.17Q136.64 12.26 135.90 12.26L135.90 12.26Q133.86 12.26 132.92 11.05Q131.98 9.84 131.98 7.51L131.98 7.51L131.98-2.06L128.86-2.06L128.86-4.51L134.94-4.51L134.94 7.73Q134.94 8.88 135.39 9.29Q135.85 9.70 136.54 9.70L136.54 9.70Q137.43 9.70 138.03 9.46Q138.63 9.22 138.82 9.14L138.82 9.14ZM146.02 9.89L146.02 9.89Q146.50 9.89 146.96 9.88Q147.42 9.86 147.75 9.82L147.75 9.82L147.75 7.22Q147.46 7.18 147.06 7.14Q146.65 7.10 146.31 7.10L146.31 7.10Q145.86 7.10 145.42 7.16Q144.99 7.22 144.67 7.37Q144.34 7.51 144.15 7.78Q143.96 8.04 143.96 8.47L143.96 8.47Q143.96 9.24 144.54 9.56Q145.11 9.89 146.02 9.89ZM145.76 0.43L145.76 0.43Q147.15 0.43 148.08 0.76Q149 1.08 149.55 1.67Q150.10 2.26 150.34 3.11Q150.58 3.96 150.58 5.02L150.58 5.02L150.58 11.74Q149.94 11.88 148.66 12.07Q147.39 12.26 145.81 12.26L145.81 12.26Q144.73 12.26 143.85 12.07Q142.98 11.88 142.35 11.44Q141.73 10.99 141.39 10.28Q141.06 9.58 141.06 8.54L141.06 8.54Q141.06 7.56 141.44 6.89Q141.82 6.22 142.47 5.81Q143.12 5.40 143.96 5.22Q144.80 5.04 145.71 5.04L145.71 5.04Q146.86 5.04 147.75 5.23L147.75 5.23L147.75 4.87Q147.75 4.03 147.22 3.47Q146.70 2.90 145.40 2.90L145.40 2.90Q144.56 2.90 143.78 3.02Q143 3.14 142.52 3.31L142.52 3.31L142.11 0.94Q142.66 0.74 143.67 0.59Q144.68 0.43 145.76 0.43ZM157.47 9.77L157.47 9.77Q158.55 9.77 159.13 9.61Q159.70 9.46 159.70 8.98L159.70 8.98Q159.70 8.66 159.52 8.45Q159.34 8.23 159.02 8.08Q158.70 7.92 158.28 7.78Q157.86 7.63 157.40 7.49L157.40 7.49Q156.75 7.30 156.08 7.04Q155.41 6.79 154.86 6.41Q154.30 6.02 153.94 5.44Q153.58 4.85 153.58 3.96L153.58 3.96Q153.58 3.24 153.86 2.60Q154.14 1.97 154.72 1.48Q155.31 0.98 156.22 0.71Q157.14 0.43 158.41 0.43L158.41 0.43Q159.51 0.43 160.46 0.60Q161.41 0.77 162.10 1.08L162.10 1.08L161.65 3.58Q161.24 3.46 160.38 3.18Q159.51 2.90 158.43 2.90L158.43 2.90Q157.30 2.90 156.91 3.18Q156.51 3.46 156.51 3.77L156.51 3.77Q156.51 4.03 156.69 4.24Q156.87 4.44 157.17 4.61Q157.47 4.78 157.87 4.93Q158.26 5.09 158.72 5.23L158.72 5.23Q159.37 5.45 160.06 5.71Q160.76 5.98 161.32 6.37Q161.89 6.77 162.25 7.38Q162.61 7.99 162.61 8.88L162.61 8.88Q162.61 9.58 162.34 10.20Q162.08 10.82 161.47 11.28Q160.86 11.74 159.87 12Q158.89 12.26 157.45 12.26L157.45 12.26Q155.98 12.26 154.95 11.93Q153.92 11.59 153.30 11.33L153.30 11.33L153.75 8.86Q154.59 9.19 155.54 9.48Q156.49 9.77 157.47 9.77ZM169.47 9.77L169.47 9.77Q170.55 9.77 171.13 9.61Q171.70 9.46 171.70 8.98L171.70 8.98Q171.70 8.66 171.52 8.45Q171.34 8.23 171.02 8.08Q170.70 7.92 170.28 7.78Q169.86 7.63 169.40 7.49L169.40 7.49Q168.75 7.30 168.08 7.04Q167.41 6.79 166.86 6.41Q166.30 6.02 165.94 5.44Q165.58 4.85 165.58 3.96L165.58 3.96Q165.58 3.24 165.86 2.60Q166.14 1.97 166.72 1.48Q167.31 0.98 168.22 0.71Q169.14 0.43 170.41 0.43L170.41 0.43Q171.51 0.43 172.46 0.60Q173.41 0.77 174.10 1.08L174.10 1.08L173.65 3.58Q173.24 3.46 172.38 3.18Q171.51 2.90 170.43 2.90L170.43 2.90Q169.30 2.90 168.91 3.18Q168.51 3.46 168.51 3.77L168.51 3.77Q168.51 4.03 168.69 4.24Q168.87 4.44 169.17 4.61Q169.47 4.78 169.87 4.93Q170.26 5.09 170.72 5.23L170.72 5.23Q171.37 5.45 172.06 5.71Q172.76 5.98 173.32 6.37Q173.89 6.77 174.25 7.38Q174.61 7.99 174.61 8.88L174.61 8.88Q174.61 9.58 174.34 10.20Q174.08 10.82 173.47 11.28Q172.86 11.74 171.87 12Q170.89 12.26 169.45 12.26L169.45 12.26Q167.98 12.26 166.95 11.93Q165.92 11.59 165.30 11.33L165.30 11.33L165.75 8.86Q166.59 9.19 167.54 9.48Q168.49 9.77 169.47 9.77Z"/></g></svg>