<?xml version="1.0" encoding="UTF-8"?><svg height="26" width="147.3" version="1.1" xmlns="http://www.w3.org/2000/svg"><!--Created by Josélio de S. C. Júnior - 2021 - https://github.com/joseliojunior --><rect height="24" width="145.3" rx="1" ry="1" x="1" y="1" fill="#9400ff" stroke="#3b0066" stroke-width="1" /><g transform="translate(0, 8)"><path fill="#3b0066" d="M24.99 1.58L24.99 1.58Q24.29 1.58 23.81 1.84Q23.33 2.10 23.02 2.55Q22.70 3.01 22.57 3.64Q22.43 4.27 22.43 5.04L22.43 5.04Q22.43 6.82 22.99 7.66Q23.55 8.50 24.64 8.50L24.64 8.50Q24.82 8.50 25.02 8.48Q25.23 8.46 25.41 8.43L25.41 8.43L25.41 4.82L27.38 4.82L27.38 9.76Q27.02 9.89 26.28 10.05Q25.54 10.21 24.48 10.21L24.48 10.21Q23.55 10.21 22.81 9.88Q22.06 9.55 21.54 8.90Q21.01 8.26 20.72 7.29Q20.43 6.32 20.43 5.04L20.43 5.04Q20.43 3.78 20.77 2.81Q21.10 1.84 21.68 1.18Q22.26 0.53 23.04 0.20Q23.82-0.13 24.72-0.13L24.72-0.13Q25.30-0.13 25.75-0.04Q26.21 0.05 26.54 0.16Q26.88 0.27 27.10 0.40Q27.31 0.53 27.42 0.59L27.42 0.59L26.91 2.16Q26.56 1.94 26.05 1.76Q25.54 1.58 24.99 1.58ZM28.50 6.30L28.50 6.30Q28.50 5.31 28.80 4.56Q29.10 3.81 29.60 3.30Q30.10 2.80 30.74 2.54Q31.38 2.29 32.05 2.29L32.05 2.29Q33.71 2.29 34.58 3.27Q35.44 4.26 35.44 6.14L35.44 6.14Q35.44 6.34 35.43 6.54Q35.42 6.75 35.41 6.88L35.41 6.88L30.53 6.88Q30.53 7.62 31.14 8.04Q31.74 8.46 32.70 8.46L32.70 8.46Q33.30 8.46 33.83 8.34Q34.37 8.21 34.74 8.08L34.74 8.08L35.01 9.76Q34.50 9.94 33.92 10.06Q33.34 10.18 32.62 10.18L32.62 10.18Q31.66 10.18 30.90 9.93Q30.14 9.68 29.61 9.19Q29.07 8.70 28.78 7.98Q28.50 7.26 28.50 6.30ZM30.53 5.52L33.54 5.52Q33.54 5.22 33.46 4.94Q33.38 4.66 33.20 4.43Q33.02 4.21 32.75 4.07Q32.48 3.94 32.08 3.94L32.08 3.94Q31.70 3.94 31.42 4.06Q31.14 4.19 30.95 4.42Q30.77 4.64 30.66 4.93Q30.56 5.22 30.53 5.52L30.53 5.52ZM37.01 10L37.01 2.72Q37.54 2.58 38.31 2.45Q39.09 2.32 40 2.32L40 2.32Q40.90 2.32 41.49 2.57Q42.08 2.82 42.42 3.27Q42.77 3.73 42.91 4.36Q43.06 4.99 43.06 5.76L43.06 5.76L43.06 10L41.09 10L41.09 6.02Q41.09 4.96 40.85 4.50Q40.61 4.03 39.87 4.03L39.87 4.03Q39.65 4.03 39.43 4.05Q39.22 4.06 38.98 4.10L38.98 4.10L38.98 10L37.01 10ZM46.29 7.20L46.29 4.11L44.58 4.11L44.58 2.48L46.29 2.48L46.29 0.59L48.26 0.27L48.26 2.48L51.41 2.48L51.41 4.11L48.26 4.11L48.26 7.15Q48.26 7.57 48.34 7.82Q48.42 8.08 48.56 8.22Q48.70 8.37 48.91 8.42Q49.12 8.46 49.38 8.46L49.38 8.46Q49.65 8.46 49.88 8.45Q50.11 8.43 50.33 8.39Q50.54 8.35 50.78 8.27Q51.01 8.19 51.28 8.06L51.28 8.06L51.55 9.76Q51.01 9.98 50.38 10.08Q49.74 10.18 49.15 10.18L49.15 10.18Q48.46 10.18 47.94 10.06Q47.41 9.95 47.04 9.63Q46.67 9.31 46.48 8.73Q46.29 8.14 46.29 7.20L46.29 7.20ZM59.55 6.22L59.55 6.22Q59.55 7.12 59.30 7.85Q59.04 8.58 58.58 9.10Q58.11 9.63 57.46 9.92Q56.82 10.21 56.02 10.21L56.02 10.21Q55.22 10.21 54.57 9.92Q53.92 9.63 53.45 9.10Q52.98 8.58 52.72 7.85Q52.46 7.12 52.46 6.22L52.46 6.22Q52.46 5.34 52.73 4.62Q52.99 3.89 53.46 3.37Q53.94 2.85 54.59 2.57Q55.25 2.29 56.02 2.29L56.02 2.29Q56.80 2.29 57.45 2.57Q58.10 2.85 58.57 3.37Q59.04 3.89 59.30 4.62Q59.55 5.34 59.55 6.22ZM54.46 6.24L54.46 6.24Q54.46 7.25 54.82 7.87Q55.18 8.50 55.98 8.50L55.98 8.50Q56.75 8.50 57.14 7.87Q57.54 7.25 57.54 6.24L57.54 6.24Q57.54 5.23 57.18 4.62Q56.82 4 56.02 4L56.02 4Q55.25 4 54.86 4.62Q54.46 5.23 54.46 6.24ZM67.55 6.22L67.55 6.22Q67.55 7.12 67.30 7.85Q67.04 8.58 66.58 9.10Q66.11 9.63 65.46 9.92Q64.82 10.21 64.02 10.21L64.02 10.21Q63.22 10.21 62.57 9.92Q61.92 9.63 61.45 9.10Q60.98 8.58 60.72 7.85Q60.46 7.12 60.46 6.22L60.46 6.22Q60.46 5.34 60.73 4.62Q60.99 3.89 61.46 3.37Q61.94 2.85 62.59 2.57Q63.25 2.29 64.02 2.29L64.02 2.29Q64.80 2.29 65.45 2.57Q66.10 2.85 66.57 3.37Q67.04 3.89 67.30 4.62Q67.55 5.34 67.55 6.22ZM62.46 6.24L62.46 6.24Q62.46 7.25 62.82 7.87Q63.18 8.50 63.98 8.50L63.98 8.50Q64.75 8.50 65.14 7.87Q65.54 7.25 65.54 6.24L65.54 6.24Q65.54 5.23 65.18 4.62Q64.82 4 64.02 4L64.02 4Q63.25 4 62.86 4.62Q62.46 5.23 62.46 6.24ZM83.36 10L77.01 10L77.01 0.10L83.01 0.10L83.01 1.73L78.98 1.73L78.98 3.95L82.48 3.95L82.48 5.58L78.98 5.58L78.98 8.37L83.36 8.37L83.36 10ZM84.70 6.24L84.70 6.24Q84.70 5.42 84.96 4.70Q85.22 3.98 85.74 3.45Q86.27 2.91 87.08 2.60Q87.89 2.29 89.01 2.29L89.01 2.29Q89.68 2.29 90.22 2.38Q90.77 2.48 91.33 2.70L91.33 2.70L90.90 4.29Q90.58 4.18 90.18 4.09Q89.79 4 89.18 4L89.18 4Q88.48 4 88.01 4.17Q87.54 4.34 87.25 4.63Q86.96 4.93 86.83 5.34Q86.70 5.76 86.70 6.24L86.70 6.24Q86.70 7.28 87.29 7.87Q87.87 8.46 89.28 8.46L89.28 8.46Q89.74 8.46 90.25 8.40Q90.75 8.34 91.17 8.19L91.17 8.19L91.46 9.81Q91.04 9.97 90.45 10.07Q89.86 10.18 89.06 10.18L89.06 10.18Q87.90 10.18 87.08 9.87Q86.26 9.57 85.73 9.04Q85.20 8.51 84.95 7.79Q84.70 7.07 84.70 6.24ZM99.22 8.10L99.47 9.68Q99.42 9.71 99.26 9.79Q99.09 9.87 98.82 9.96Q98.54 10.05 98.15 10.11Q97.76 10.18 97.26 10.18L97.26 10.18Q95.90 10.18 95.28 9.37Q94.66 8.56 94.66 7.01L94.66 7.01L94.66 0.62L92.58 0.62L92.58-1.01L96.62-1.01L96.62 7.15Q96.62 7.92 96.93 8.19Q97.23 8.46 97.70 8.46L97.70 8.46Q98.29 8.46 98.69 8.30Q99.09 8.14 99.22 8.10L99.22 8.10ZM104.02 8.59L104.02 8.59Q104.34 8.59 104.64 8.58Q104.94 8.58 105.17 8.54L105.17 8.54L105.17 6.82Q104.98 6.78 104.70 6.76Q104.43 6.74 104.21 6.74L104.21 6.74Q103.90 6.74 103.62 6.78Q103.33 6.82 103.11 6.91Q102.90 7.01 102.77 7.18Q102.64 7.36 102.64 7.65L102.64 7.65Q102.64 8.16 103.02 8.38Q103.41 8.59 104.02 8.59ZM103.84 2.29L103.84 2.29Q104.77 2.29 105.38 2.50Q106 2.72 106.37 3.11Q106.74 3.50 106.90 4.07Q107.06 4.64 107.06 5.34L107.06 5.34L107.06 9.82Q106.62 9.92 105.78 10.05Q104.93 10.18 103.87 10.18L103.87 10.18Q103.15 10.18 102.57 10.05Q101.98 9.92 101.57 9.62Q101.15 9.33 100.93 8.86Q100.70 8.38 100.70 7.70L100.70 7.70Q100.70 7.04 100.96 6.59Q101.22 6.14 101.65 5.87Q102.08 5.60 102.64 5.48Q103.20 5.36 103.81 5.36L103.81 5.36Q104.58 5.36 105.17 5.49L105.17 5.49L105.17 5.25Q105.17 4.69 104.82 4.31Q104.46 3.94 103.60 3.94L103.60 3.94Q103.04 3.94 102.52 4.02Q102 4.10 101.68 4.21L101.68 4.21L101.41 2.62Q101.78 2.50 102.45 2.39Q103.12 2.29 103.84 2.29ZM111.65 8.51L111.65 8.51Q112.37 8.51 112.75 8.41Q113.14 8.30 113.14 7.98L113.14 7.98Q113.14 7.78 113.02 7.63Q112.90 7.49 112.68 7.38Q112.46 7.28 112.18 7.18Q111.90 7.09 111.60 6.99L111.60 6.99Q111.17 6.86 110.72 6.70Q110.27 6.53 109.90 6.27Q109.54 6.02 109.30 5.62Q109.06 5.23 109.06 4.64L109.06 4.64Q109.06 4.16 109.24 3.74Q109.42 3.31 109.82 2.98Q110.21 2.66 110.82 2.47Q111.42 2.29 112.27 2.29L112.27 2.29Q113.01 2.29 113.64 2.40Q114.27 2.51 114.74 2.72L114.74 2.72L114.43 4.38Q114.16 4.30 113.58 4.12Q113.01 3.94 112.29 3.94L112.29 3.94Q111.54 3.94 111.27 4.12Q111.01 4.30 111.01 4.51L111.01 4.51Q111.01 4.69 111.13 4.82Q111.25 4.96 111.45 5.07Q111.65 5.18 111.91 5.29Q112.18 5.39 112.48 5.49L112.48 5.49Q112.91 5.63 113.38 5.81Q113.84 5.98 114.22 6.25Q114.59 6.51 114.83 6.92Q115.07 7.33 115.07 7.92L115.07 7.92Q115.07 8.38 114.90 8.80Q114.72 9.22 114.31 9.52Q113.90 9.82 113.25 10Q112.59 10.18 111.63 10.18L111.63 10.18Q110.66 10.18 109.97 9.95Q109.28 9.73 108.86 9.55L108.86 9.55L109.17 7.90Q109.73 8.13 110.36 8.32Q110.99 8.51 111.65 8.51ZM119.65 8.51L119.65 8.51Q120.37 8.51 120.75 8.41Q121.14 8.30 121.14 7.98L121.14 7.98Q121.14 7.78 121.02 7.63Q120.90 7.49 120.68 7.38Q120.46 7.28 120.18 7.18Q119.90 7.09 119.60 6.99L119.60 6.99Q119.17 6.86 118.72 6.70Q118.27 6.53 117.90 6.27Q117.54 6.02 117.30 5.62Q117.06 5.23 117.06 4.64L117.06 4.64Q117.06 4.16 117.24 3.74Q117.42 3.31 117.82 2.98Q118.21 2.66 118.82 2.47Q119.42 2.29 120.27 2.29L120.27 2.29Q121.01 2.29 121.64 2.40Q122.27 2.51 122.74 2.72L122.74 2.72L122.43 4.38Q122.16 4.30 121.58 4.12Q121.01 3.94 120.29 3.94L120.29 3.94Q119.54 3.94 119.27 4.12Q119.01 4.30 119.01 4.51L119.01 4.51Q119.01 4.69 119.13 4.82Q119.25 4.96 119.45 5.07Q119.65 5.18 119.91 5.29Q120.18 5.39 120.48 5.49L120.48 5.49Q120.91 5.63 121.38 5.81Q121.84 5.98 122.22 6.25Q122.59 6.51 122.83 6.92Q123.07 7.33 123.07 7.92L123.07 7.92Q123.07 8.38 122.90 8.80Q122.72 9.22 122.31 9.52Q121.90 9.82 121.25 10Q120.59 10.18 119.63 10.18L119.63 10.18Q118.66 10.18 117.97 9.95Q117.28 9.73 116.86 9.55L116.86 9.55L117.17 7.90Q117.73 8.13 118.36 8.32Q118.99 8.51 119.65 8.51Z"/></g></svg>