<?xml version="1.0" encoding="UTF-8"?>
<svg height="34" width="163" version="1.1" xmlns="http://www.w3.org/2000/svg">
    <rect
        height="32"
        width="161"
        rx="14"
        ry="14"
        x="1"
        y="1"
        fill="#012456"
        stroke="#0264ed"
        stroke-width="1"
         />
    <g transform="translate(0, 14)">
        <path fill="#0264ed" d="M16.27-6.53L16.27-6.53Q19.58-6.53 21.40-5.17Q23.22-3.81 23.22-0.73L23.22-0.73Q23.22 2.38 21.38 3.76Q19.55 5.15 16.19 5.15L16.19 5.15L14.96 5.15L14.96 11L11.51 11L11.51-6.11Q12.02-6.22 12.65-6.30Q13.28-6.39 13.92-6.43Q14.56-6.47 15.18-6.50Q15.80-6.53 16.27-6.53ZM16.66-3.53L16.66-3.53Q16.36-3.53 15.81-3.52Q15.26-3.50 14.96-3.45L14.96-3.45L14.96 2.15L16.36 2.15Q18.01 2.15 18.85 1.49Q19.69 0.84 19.69-0.76L19.69-0.76Q19.69-2.27 18.86-2.90Q18.04-3.53 16.66-3.53ZM37.22 4.39L37.22 4.39Q37.22 5.96 36.77 7.23Q36.32 8.51 35.51 9.43Q34.70 10.36 33.56 10.86Q32.43 11.36 31.03 11.36L31.03 11.36Q29.63 11.36 28.49 10.86Q27.36 10.36 26.53 9.43Q25.71 8.51 25.26 7.23Q24.81 5.96 24.81 4.39L24.81 4.39Q24.81 2.85 25.27 1.58Q25.74 0.30 26.56-0.61Q27.39-1.52 28.54-2.01Q29.68-2.50 31.03-2.50L31.03-2.50Q32.40-2.50 33.53-2.01Q34.67-1.52 35.49-0.61Q36.32 0.30 36.77 1.58Q37.22 2.85 37.22 4.39ZM28.31 4.42L28.31 4.42Q28.31 6.18 28.94 7.28Q29.57 8.37 30.97 8.37L30.97 8.37Q32.32 8.37 33.00 7.28Q33.69 6.18 33.69 4.42L33.69 4.42Q33.69 2.66 33.06 1.58Q32.43 0.50 31.03 0.50L31.03 0.50Q29.68 0.50 29.00 1.58Q28.31 2.66 28.31 4.42ZM49.62 11L47.02 11Q46.71 10.13 46.44 9.40Q46.18 8.68 45.94 7.99Q45.70 7.30 45.46 6.56Q45.22 5.82 44.97 4.92L44.97 4.92Q44.69 5.82 44.47 6.53Q44.24 7.25 44.01 7.95Q43.77 8.65 43.52 9.38Q43.26 10.10 42.90 11L42.90 11L40.30 11Q39.96 9.77 39.67 8.27Q39.37 6.77 39.12 5.08Q38.87 3.38 38.67 1.56Q38.48-0.26 38.31-2.16L38.31-2.16L41.25-2.16Q41.36 0.28 41.49 2.60Q41.61 4.92 41.95 7.39L41.95 7.39Q42.31 6.32 42.58 5.41Q42.84 4.50 43.05 3.68Q43.26 2.85 43.45 2.08Q43.63 1.31 43.82 0.50L43.82 0.50L46.32 0.50Q46.48 1.31 46.67 2.08Q46.85 2.85 47.06 3.68Q47.27 4.50 47.51 5.41Q47.74 6.32 48.08 7.39L48.08 7.39Q48.25 6.10 48.36 4.92Q48.47 3.75 48.54 2.59Q48.61 1.42 48.65 0.26Q48.70-0.90 48.75-2.16L48.75-2.16L51.69-2.16Q51.38 1.68 50.84 5.06Q50.29 8.45 49.62 11L49.62 11ZM52.87 4.53L52.87 4.53Q52.87 2.80 53.40 1.48Q53.93 0.16 54.80-0.72Q55.67-1.60 56.79-2.05Q57.91-2.50 59.08-2.50L59.08-2.50Q62.00-2.50 63.51-0.77Q65.02 0.95 65.02 4.25L65.02 4.25Q65.02 4.59 65.01 4.95Q64.99 5.32 64.96 5.54L64.96 5.54L56.42 5.54Q56.42 6.83 57.49 7.57Q58.55 8.31 60.23 8.31L60.23 8.31Q61.27 8.31 62.21 8.09Q63.14 7.86 63.79 7.64L63.79 7.64L64.26 10.58Q63.37 10.89 62.36 11.10Q61.35 11.31 60.09 11.31L60.09 11.31Q58.41 11.31 57.08 10.87Q55.75 10.44 54.81 9.59Q53.88 8.73 53.37 7.47Q52.87 6.21 52.87 4.53ZM56.42 3.16L61.69 3.16Q61.69 2.63 61.55 2.14Q61.41 1.65 61.10 1.26Q60.79 0.86 60.32 0.63Q59.84 0.39 59.14 0.39L59.14 0.39Q58.47 0.39 57.98 0.61Q57.49 0.84 57.17 1.23Q56.84 1.62 56.66 2.12Q56.48 2.63 56.42 3.16L56.42 3.16ZM78.85-1.85L78.24 1.34Q77.90 1.26 77.44 1.17Q76.98 1.09 76.50 1.02Q76.02 0.95 75.58 0.92Q75.13 0.89 74.82 0.89L74.82 0.89Q74.09 0.89 73.39 0.96Q72.69 1.03 71.96 1.23L71.96 1.23L71.96 11L68.49 11L68.49-1.29Q69.86-1.80 71.31-2.10Q72.75-2.41 74.68-2.41L74.68-2.41Q74.96-2.41 75.48-2.38Q76.00-2.36 76.58-2.29Q77.17-2.22 77.77-2.12Q78.38-2.02 78.85-1.85L78.85-1.85ZM86.50 8.48L86.50 8.48Q87.36 8.48 87.94 8.30Q88.51 8.12 88.85 7.79Q89.18 7.47 89.31 7.07Q89.44 6.66 89.44 6.24L89.44 6.24Q89.44 5.71 89.13 5.29Q88.82 4.87 88.34 4.55Q87.87 4.22 87.28 3.96Q86.69 3.69 86.10 3.47L86.10 3.47Q85.32 3.19 84.48 2.82Q83.64 2.46 82.95 1.90Q82.27 1.34 81.82 0.51Q81.37-0.31 81.37-1.54L81.37-1.54Q81.37-3.98 82.95-5.35Q84.54-6.72 87.31-6.72L87.31-6.72Q88.90-6.72 90.09-6.36Q91.28-6.00 92.10-5.55L92.10-5.55L91.09-2.89Q90.39-3.28 89.53-3.56Q88.68-3.84 87.56-3.84L87.56-3.84Q84.82-3.84 84.82-1.85L84.82-1.85Q84.82-1.35 85.10-0.97Q85.38-0.59 85.81-0.30Q86.24-0.00 86.79 0.22Q87.34 0.44 87.87 0.64L87.87 0.64Q88.68 0.95 89.56 1.33Q90.44 1.70 91.19 2.33Q91.93 2.96 92.40 3.90Q92.88 4.84 92.88 6.27L92.88 6.27Q92.88 8.70 91.30 10.03Q89.72 11.36 86.50 11.36L86.50 11.36Q84.34 11.36 83.05 10.90Q81.76 10.44 81.12 10.05L81.12 10.05L82.13 7.25Q82.88 7.70 83.93 8.09Q84.98 8.48 86.50 8.48ZM99.21 11L95.76 11L95.76-7.84L99.21-8.43L99.21-2.05Q99.63-2.19 100.22-2.31Q100.80-2.44 101.25-2.44L101.25-2.44Q102.71-2.44 103.69-2.01Q104.67-1.57 105.26-0.77Q105.84 0.02 106.10 1.13Q106.35 2.24 106.35 3.58L106.35 3.58L106.35 11L102.90 11L102.90 4.03Q102.90 2.18 102.48 1.37Q102.06 0.56 100.89 0.56L100.89 0.56Q100.41 0.56 99.95 0.67Q99.49 0.78 99.21 0.86L99.21 0.86L99.21 11ZM108.87 4.53L108.87 4.53Q108.87 2.80 109.40 1.48Q109.93 0.16 110.80-0.72Q111.67-1.60 112.79-2.05Q113.91-2.50 115.08-2.50L115.08-2.50Q118.00-2.50 119.51-0.77Q121.02 0.95 121.02 4.25L121.02 4.25Q121.02 4.59 121.01 4.95Q120.99 5.32 120.96 5.54L120.96 5.54L112.42 5.54Q112.42 6.83 113.49 7.57Q114.55 8.31 116.23 8.31L116.23 8.31Q117.27 8.31 118.21 8.09Q119.14 7.86 119.79 7.64L119.79 7.64L120.26 10.58Q119.37 10.89 118.36 11.10Q117.35 11.31 116.09 11.31L116.09 11.31Q114.41 11.31 113.08 10.87Q111.75 10.44 110.81 9.59Q109.88 8.73 109.37 7.47Q108.87 6.21 108.87 4.53ZM112.42 3.16L117.69 3.16Q117.69 2.63 117.55 2.14Q117.41 1.65 117.10 1.26Q116.79 0.86 116.32 0.63Q115.84 0.39 115.14 0.39L115.14 0.39Q114.47 0.39 113.98 0.61Q113.49 0.84 113.17 1.23Q112.84 1.62 112.66 2.12Q112.48 2.63 112.42 3.16L112.42 3.16ZM134.63 7.67L135.08 10.44Q134.99 10.50 134.70 10.64Q134.40 10.78 133.93 10.93Q133.45 11.08 132.77 11.20Q132.08 11.31 131.21 11.31L131.21 11.31Q128.83 11.31 127.74 9.89Q126.65 8.48 126.65 5.76L126.65 5.76L126.65-5.41L123.01-5.41L123.01-8.26L130.09-8.26L130.09 6.02Q130.09 7.36 130.62 7.84Q131.16 8.31 131.97 8.31L131.97 8.31Q133.00 8.31 133.70 8.03Q134.40 7.75 134.63 7.67L134.63 7.67ZM148.63 7.67L149.08 10.44Q148.99 10.50 148.70 10.64Q148.40 10.78 147.93 10.93Q147.45 11.08 146.77 11.20Q146.08 11.31 145.21 11.31L145.21 11.31Q142.83 11.31 141.74 9.89Q140.65 8.48 140.65 5.76L140.65 5.76L140.65-5.41L137.01-5.41L137.01-8.26L144.09-8.26L144.09 6.02Q144.09 7.36 144.62 7.84Q145.16 8.31 145.97 8.31L145.97 8.31Q147.00 8.31 147.70 8.03Q148.40 7.75 148.63 7.67L148.63 7.67Z"/>
    </g>
</svg>