<?xml version="1.0" encoding="UTF-8"?>
<svg height="26" width="131.1" version="1.1" xmlns="http://www.w3.org/2000/svg"><!--Created by Josélio de S. C. Júnior - 2021 - https://github.com/joseliojunior -->
    <rect
        height="24"
        width="129.1"
        rx="12"
        ry="12"
        x="1" y="1"
        fill="#04133b"
        stroke="#0e40c8"
        stroke-width="1" />
    <g transform="translate(0, 8)">
        <path fill="#0e40c8" stroke="none" d="M23.30 3.60L24.74 3.60Q24.80 3.90 24.93 4.35Q25.06 4.80 25.21 5.34Q25.36 5.89 25.54 6.51Q25.73 7.14 25.90 7.79L25.90 7.79Q25.90 6.96 25.89 6.01Q25.87 5.06 25.86 4.06Q25.84 3.07 25.82 2.06Q25.81 1.04 25.81 0.10L25.81 0.10L27.63 0.10Q27.58 1.31 27.54 2.60Q27.49 3.89 27.42 5.16Q27.36 6.43 27.27 7.66Q27.18 8.90 27.07 10L27.07 10L25.44 10Q25.09 8.99 24.74 7.83Q24.38 6.67 24.03 5.62L24.03 5.62Q23.68 6.62 23.30 7.81Q22.91 8.99 22.59 10L22.59 10L20.96 10Q20.83 8.90 20.74 7.66Q20.64 6.42 20.57 5.14Q20.50 3.87 20.45 2.58Q20.40 1.30 20.37 0.10L20.37 0.10L22.19 0.10Q22.18 1.04 22.16 2.05Q22.14 3.06 22.13 4.06Q22.11 5.06 22.10 6.01Q22.08 6.96 22.08 7.79L22.08 7.79Q22.22 7.28 22.41 6.67Q22.59 6.06 22.76 5.47Q22.93 4.88 23.07 4.38Q23.22 3.89 23.30 3.60L23.30 3.60ZM28.50 6.30L28.50 6.30Q28.50 5.31 28.80 4.56Q29.10 3.81 29.60 3.30Q30.10 2.80 30.74 2.54Q31.38 2.29 32.05 2.29L32.05 2.29Q33.71 2.29 34.58 3.27Q35.44 4.26 35.44 6.14L35.44 6.14Q35.44 6.34 35.43 6.54Q35.42 6.75 35.41 6.88L35.41 6.88L30.53 6.88Q30.53 7.62 31.14 8.04Q31.74 8.46 32.70 8.46L32.70 8.46Q33.30 8.46 33.83 8.34Q34.37 8.21 34.74 8.08L34.74 8.08L35.01 9.76Q34.50 9.94 33.92 10.06Q33.34 10.18 32.62 10.18L32.62 10.18Q31.66 10.18 30.90 9.93Q30.14 9.68 29.61 9.19Q29.07 8.70 28.78 7.98Q28.50 7.26 28.50 6.30ZM30.53 5.52L33.54 5.52Q33.54 5.22 33.46 4.94Q33.38 4.66 33.20 4.43Q33.02 4.21 32.75 4.07Q32.48 3.94 32.08 3.94L32.08 3.94Q31.70 3.94 31.42 4.06Q31.14 4.19 30.95 4.42Q30.77 4.64 30.66 4.93Q30.56 5.22 30.53 5.52L30.53 5.52ZM41.52 6.19L41.52 6.19Q41.52 5.14 41.18 4.58Q40.83 4.02 40.13 4.02L40.13 4.02Q39.81 4.02 39.50 4.10Q39.18 4.19 38.96 4.32L38.96 4.32L38.96 8.40Q39.18 8.45 39.43 8.46Q39.68 8.48 39.86 8.48L39.86 8.48Q40.62 8.48 41.07 7.96Q41.52 7.44 41.52 6.19ZM43.52 6.24L43.52 6.24Q43.52 7.14 43.28 7.86Q43.04 8.59 42.58 9.10Q42.11 9.62 41.44 9.90Q40.77 10.18 39.90 10.18L39.90 10.18Q39.14 10.18 38.34 10.06Q37.54 9.95 36.99 9.78L36.99 9.78L36.99-0.77L38.96-1.10L38.96 2.66Q39.38 2.46 39.76 2.39Q40.14 2.32 40.53 2.32L40.53 2.32Q41.26 2.32 41.82 2.60Q42.38 2.88 42.76 3.40Q43.14 3.92 43.33 4.64Q43.52 5.36 43.52 6.24ZM51.86 10L49.74 10L49.28 7.71L46.64 7.71L46.19 10L44.14 10Q44.85 7.07 45.57 4.66Q46.29 2.26 46.96 0.10L46.96 0.10L49.10 0.10Q49.81 2.27 50.50 4.71Q51.20 7.15 51.86 10L51.86 10ZM47.98 2.02L47.98 2.02Q47.82 2.58 47.69 3.08Q47.55 3.58 47.43 4.07Q47.31 4.56 47.21 5.06Q47.10 5.55 47.01 6.08L47.01 6.08L48.94 6.08Q48.85 5.55 48.75 5.06Q48.66 4.56 48.54 4.07Q48.42 3.58 48.28 3.08Q48.14 2.58 47.98 2.02ZM55.65 8.51L55.65 8.51Q56.37 8.51 56.75 8.41Q57.14 8.30 57.14 7.98L57.14 7.98Q57.14 7.78 57.02 7.63Q56.90 7.49 56.68 7.38Q56.46 7.28 56.18 7.18Q55.90 7.09 55.60 6.99L55.60 6.99Q55.17 6.86 54.72 6.70Q54.27 6.53 53.90 6.27Q53.54 6.02 53.30 5.62Q53.06 5.23 53.06 4.64L53.06 4.64Q53.06 4.16 53.24 3.74Q53.42 3.31 53.82 2.98Q54.21 2.66 54.82 2.47Q55.42 2.29 56.27 2.29L56.27 2.29Q57.01 2.29 57.64 2.40Q58.27 2.51 58.74 2.72L58.74 2.72L58.43 4.38Q58.16 4.30 57.58 4.12Q57.01 3.94 56.29 3.94L56.29 3.94Q55.54 3.94 55.27 4.12Q55.01 4.30 55.01 4.51L55.01 4.51Q55.01 4.69 55.13 4.82Q55.25 4.96 55.45 5.07Q55.65 5.18 55.91 5.29Q56.18 5.39 56.48 5.49L56.48 5.49Q56.91 5.63 57.38 5.81Q57.84 5.98 58.22 6.25Q58.59 6.51 58.83 6.92Q59.07 7.33 59.07 7.92L59.07 7.92Q59.07 8.38 58.90 8.80Q58.72 9.22 58.31 9.52Q57.90 9.82 57.25 10Q56.59 10.18 55.63 10.18L55.63 10.18Q54.66 10.18 53.97 9.95Q53.28 9.73 52.86 9.55L52.86 9.55L53.17 7.90Q53.73 8.13 54.36 8.32Q54.99 8.51 55.65 8.51ZM63.65 8.51L63.65 8.51Q64.37 8.51 64.75 8.41Q65.14 8.30 65.14 7.98L65.14 7.98Q65.14 7.78 65.02 7.63Q64.90 7.49 64.68 7.38Q64.46 7.28 64.18 7.18Q63.90 7.09 63.60 6.99L63.60 6.99Q63.17 6.86 62.72 6.70Q62.27 6.53 61.90 6.27Q61.54 6.02 61.30 5.62Q61.06 5.23 61.06 4.64L61.06 4.64Q61.06 4.16 61.24 3.74Q61.42 3.31 61.82 2.98Q62.21 2.66 62.82 2.47Q63.42 2.29 64.27 2.29L64.27 2.29Q65.01 2.29 65.64 2.40Q66.27 2.51 66.74 2.72L66.74 2.72L66.43 4.38Q66.16 4.30 65.58 4.12Q65.01 3.94 64.29 3.94L64.29 3.94Q63.54 3.94 63.27 4.12Q63.01 4.30 63.01 4.51L63.01 4.51Q63.01 4.69 63.13 4.82Q63.25 4.96 63.45 5.07Q63.65 5.18 63.91 5.29Q64.18 5.39 64.48 5.49L64.48 5.49Q64.91 5.63 65.38 5.81Q65.84 5.98 66.22 6.25Q66.59 6.51 66.83 6.92Q67.07 7.33 67.07 7.92L67.07 7.92Q67.07 8.38 66.90 8.80Q66.72 9.22 66.31 9.52Q65.90 9.82 65.25 10Q64.59 10.18 63.63 10.18L63.63 10.18Q62.66 10.18 61.97 9.95Q61.28 9.73 60.86 9.55L60.86 9.55L61.17 7.90Q61.73 8.13 62.36 8.32Q62.99 8.51 63.65 8.51ZM68.50 6.30L68.50 6.30Q68.50 5.31 68.80 4.56Q69.10 3.81 69.60 3.30Q70.10 2.80 70.74 2.54Q71.38 2.29 72.05 2.29L72.05 2.29Q73.71 2.29 74.58 3.27Q75.44 4.26 75.44 6.14L75.44 6.14Q75.44 6.34 75.43 6.54Q75.42 6.75 75.41 6.88L75.41 6.88L70.53 6.88Q70.53 7.62 71.14 8.04Q71.74 8.46 72.70 8.46L72.70 8.46Q73.30 8.46 73.83 8.34Q74.37 8.21 74.74 8.08L74.74 8.08L75.01 9.76Q74.50 9.94 73.92 10.06Q73.34 10.18 72.62 10.18L72.62 10.18Q71.66 10.18 70.90 9.93Q70.14 9.68 69.61 9.19Q69.07 8.70 68.78 7.98Q68.50 7.26 68.50 6.30ZM70.53 5.52L73.54 5.52Q73.54 5.22 73.46 4.94Q73.38 4.66 73.20 4.43Q73.02 4.21 72.75 4.07Q72.48 3.94 72.08 3.94L72.08 3.94Q71.70 3.94 71.42 4.06Q71.14 4.19 70.95 4.42Q70.77 4.64 70.66 4.93Q70.56 5.22 70.53 5.52L70.53 5.52ZM81.49 2.40L81.49 2.40Q82.11 2.40 82.51 2.59Q82.91 2.78 83.14 3.17Q83.38 3.55 83.46 4.14Q83.54 4.72 83.54 5.50L83.54 5.50L83.54 10L81.94 10L81.94 5.41Q81.94 4.96 81.88 4.69Q81.82 4.42 81.74 4.27Q81.65 4.13 81.53 4.08Q81.41 4.03 81.28 4.03L81.28 4.03Q81.14 4.03 80.98 4.06Q80.82 4.08 80.69 4.14L80.69 4.14Q80.74 4.45 80.77 4.82Q80.80 5.18 80.80 5.63L80.80 5.63L80.80 7.14L79.20 7.14L79.20 5.41Q79.20 4.64 79.05 4.34Q78.90 4.03 78.56 4.03L78.56 4.03Q78.46 4.03 78.33 4.05Q78.19 4.06 78.06 4.10L78.06 4.10L78.06 10L76.46 10L76.46 2.77Q77.09 2.59 77.70 2.50Q78.30 2.40 78.77 2.40L78.77 2.40Q79.18 2.40 79.51 2.50Q79.84 2.61 80.08 2.85L80.08 2.85Q80.35 2.67 80.72 2.54Q81.09 2.40 81.49 2.40ZM89.52 6.19L89.52 6.19Q89.52 5.14 89.18 4.58Q88.83 4.02 88.13 4.02L88.13 4.02Q87.81 4.02 87.50 4.10Q87.18 4.19 86.96 4.32L86.96 4.32L86.96 8.40Q87.18 8.45 87.43 8.46Q87.68 8.48 87.86 8.48L87.86 8.48Q88.62 8.48 89.07 7.96Q89.52 7.44 89.52 6.19ZM91.52 6.24L91.52 6.24Q91.52 7.14 91.28 7.86Q91.04 8.59 90.58 9.10Q90.11 9.62 89.44 9.90Q88.77 10.18 87.90 10.18L87.90 10.18Q87.14 10.18 86.34 10.06Q85.54 9.95 84.99 9.78L84.99 9.78L84.99-0.77L86.96-1.10L86.96 2.66Q87.38 2.46 87.76 2.39Q88.14 2.32 88.53 2.32L88.53 2.32Q89.26 2.32 89.82 2.60Q90.38 2.88 90.76 3.40Q91.14 3.92 91.33 4.64Q91.52 5.36 91.52 6.24ZM99.22 8.10L99.47 9.68Q99.42 9.71 99.26 9.79Q99.09 9.87 98.82 9.96Q98.54 10.05 98.15 10.11Q97.76 10.18 97.26 10.18L97.26 10.18Q95.90 10.18 95.28 9.37Q94.66 8.56 94.66 7.01L94.66 7.01L94.66 0.62L92.58 0.62L92.58-1.01L96.62-1.01L96.62 7.15Q96.62 7.92 96.93 8.19Q97.23 8.46 97.70 8.46L97.70 8.46Q98.29 8.46 98.69 8.30Q99.09 8.14 99.22 8.10L99.22 8.10ZM105.54 2.48L107.55 2.48Q107.25 3.54 106.97 4.55Q106.69 5.57 106.38 6.54Q106.08 7.50 105.74 8.43Q105.39 9.36 104.99 10.24L104.99 10.24Q104.69 10.88 104.39 11.34Q104.10 11.81 103.74 12.10Q103.38 12.40 102.94 12.54Q102.50 12.69 101.90 12.69L101.90 12.69Q101.41 12.69 101 12.61Q100.59 12.53 100.32 12.40L100.32 12.40L100.69 10.75Q101.01 10.90 101.26 10.95Q101.50 11.01 101.79 11.01L101.79 11.01Q102.37 11.01 102.72 10.62Q103.07 10.24 103.28 9.71L103.28 9.71Q102.58 8.30 101.87 6.49Q101.17 4.67 100.59 2.48L100.59 2.48L102.64 2.48Q102.78 3.07 102.97 3.74Q103.15 4.42 103.36 5.09Q103.57 5.76 103.80 6.41Q104.03 7.06 104.27 7.62L104.27 7.62Q104.43 7.06 104.61 6.41Q104.78 5.76 104.94 5.10Q105.10 4.43 105.26 3.76Q105.41 3.09 105.54 2.48L105.54 2.48Z"/>
    </g>
</svg>