<?xml version="1.0" encoding="UTF-8"?>
<svg height="34" width="177.1" version="1.1" xmlns="http://www.w3.org/2000/svg">
    <rect
        height="32"
        width="175.1"
        rx="14"
        ry="14"
        x="1"
        y="1"
        fill="#04133b"
        stroke="#0e40c8"
        stroke-width="1"
         />
    <g transform="translate(0, 14)">
        <path fill="#0e40c8" d="M15.77-0.20L18.29-0.20Q18.40 0.33 18.62 1.12Q18.85 1.90 19.11 2.85Q19.38 3.80 19.70 4.90Q20.02 5.99 20.33 7.14L20.33 7.14Q20.33 5.68 20.30 4.01Q20.28 2.35 20.25 0.61Q20.22-1.12 20.19-2.90Q20.16-4.68 20.16-6.33L20.16-6.33L23.36-6.33Q23.27-4.20 23.19-1.95Q23.10 0.30 22.99 2.53Q22.88 4.76 22.73 6.91Q22.57 9.07 22.38 11L22.38 11L19.52 11Q18.90 9.24 18.29 7.21Q17.67 5.18 17.06 3.33L17.06 3.33Q16.44 5.09 15.77 7.16Q15.10 9.24 14.54 11L14.54 11L11.68 11Q11.46 9.07 11.29 6.90Q11.12 4.73 10.99 2.50Q10.87 0.28 10.78-1.98Q10.70-4.23 10.64-6.33L10.64-6.33L13.84-6.33Q13.81-4.68 13.78-2.92Q13.75-1.15 13.72 0.60Q13.70 2.35 13.67 4.01Q13.64 5.68 13.64 7.14L13.64 7.14Q13.89 6.24 14.21 5.18Q14.54 4.11 14.83 3.08Q15.12 2.04 15.38 1.17Q15.63 0.30 15.77-0.20L15.77-0.20ZM24.87 4.53L24.87 4.53Q24.87 2.80 25.40 1.48Q25.93 0.16 26.80-0.72Q27.67-1.60 28.79-2.05Q29.91-2.50 31.08-2.50L31.08-2.50Q34.00-2.50 35.51-0.77Q37.02 0.95 37.02 4.25L37.02 4.25Q37.02 4.59 37.01 4.95Q36.99 5.32 36.96 5.54L36.96 5.54L28.42 5.54Q28.42 6.83 29.49 7.57Q30.55 8.31 32.23 8.31L32.23 8.31Q33.27 8.31 34.21 8.09Q35.14 7.86 35.79 7.64L35.79 7.64L36.26 10.58Q35.37 10.89 34.36 11.10Q33.35 11.31 32.09 11.31L32.09 11.31Q30.41 11.31 29.08 10.87Q27.75 10.44 26.81 9.59Q25.88 8.73 25.37 7.47Q24.87 6.21 24.87 4.53ZM28.42 3.16L33.69 3.16Q33.69 2.63 33.55 2.14Q33.41 1.65 33.10 1.26Q32.79 0.86 32.32 0.63Q31.84 0.39 31.14 0.39L31.14 0.39Q30.47 0.39 29.98 0.61Q29.49 0.84 29.17 1.23Q28.84 1.62 28.66 2.12Q28.48 2.63 28.42 3.16L28.42 3.16ZM47.66 4.34L47.66 4.34Q47.66 2.49 47.06 1.51Q46.46 0.53 45.22 0.53L45.22 0.53Q44.66 0.53 44.12 0.68Q43.57 0.84 43.18 1.06L43.18 1.06L43.18 8.20Q43.57 8.28 44.01 8.31Q44.44 8.34 44.75 8.34L44.75 8.34Q46.09 8.34 46.88 7.43Q47.66 6.52 47.66 4.34ZM51.16 4.42L51.16 4.42Q51.16 5.99 50.74 7.26Q50.32 8.54 49.51 9.43Q48.70 10.33 47.52 10.82Q46.34 11.31 44.83 11.31L44.83 11.31Q43.49 11.31 42.09 11.11Q40.69 10.92 39.74 10.61L39.74 10.61L39.74-7.84L43.18-8.43L43.18-1.85Q43.91-2.19 44.58-2.31Q45.25-2.44 45.92-2.44L45.92-2.44Q47.21-2.44 48.19-1.95Q49.17-1.46 49.83-0.55Q50.49 0.36 50.82 1.62Q51.16 2.88 51.16 4.42ZM65.75 11L62.05 11L61.24 7.00L56.62 7.00L55.84 11L52.25 11Q53.48 5.88 54.74 1.66Q56.00-2.55 57.18-6.33L57.18-6.33L60.93-6.33Q62.16-2.52 63.38 1.75Q64.60 6.02 65.75 11L65.75 11ZM58.97-2.97L58.97-2.97Q58.69-1.99 58.45-1.11Q58.22-0.23 58.01 0.63Q57.80 1.48 57.61 2.35Q57.43 3.22 57.26 4.14L57.26 4.14L60.65 4.14Q60.48 3.22 60.32 2.35Q60.15 1.48 59.94 0.63Q59.73-0.23 59.49-1.11Q59.25-1.99 58.97-2.97ZM72.38 8.40L72.38 8.40Q73.64 8.40 74.32 8.21Q74.99 8.03 74.99 7.47L74.99 7.47Q74.99 7.11 74.78 6.86Q74.57 6.60 74.19 6.42Q73.81 6.24 73.32 6.07Q72.83 5.90 72.30 5.74L72.30 5.74Q71.54 5.51 70.76 5.22Q69.98 4.92 69.33 4.48Q68.69 4.03 68.27 3.34Q67.85 2.66 67.85 1.62L67.85 1.62Q67.85 0.78 68.17 0.04Q68.49-0.70 69.18-1.28Q69.86-1.85 70.93-2.17Q71.99-2.50 73.48-2.50L73.48-2.50Q74.76-2.50 75.87-2.30Q76.98-2.10 77.79-1.74L77.79-1.74L77.26 1.17Q76.78 1.03 75.77 0.71Q74.76 0.39 73.50 0.39L73.50 0.39Q72.19 0.39 71.73 0.71Q71.26 1.03 71.26 1.40L71.26 1.40Q71.26 1.70 71.47 1.94Q71.68 2.18 72.03 2.38Q72.38 2.57 72.85 2.75Q73.31 2.94 73.84 3.10L73.84 3.10Q74.60 3.36 75.41 3.66Q76.22 3.97 76.88 4.43Q77.54 4.90 77.96 5.61Q78.38 6.32 78.38 7.36L78.38 7.36Q78.38 8.17 78.07 8.90Q77.76 9.63 77.05 10.16Q76.33 10.69 75.18 11Q74.04 11.31 72.36 11.31L72.36 11.31Q70.65 11.31 69.44 10.92Q68.24 10.52 67.51 10.22L67.51 10.22L68.04 7.33Q69.02 7.72 70.13 8.06Q71.24 8.40 72.38 8.40ZM86.38 8.40L86.38 8.40Q87.64 8.40 88.32 8.21Q88.99 8.03 88.99 7.47L88.99 7.47Q88.99 7.11 88.78 6.86Q88.57 6.60 88.19 6.42Q87.81 6.24 87.32 6.07Q86.83 5.90 86.30 5.74L86.30 5.74Q85.54 5.51 84.76 5.22Q83.98 4.92 83.33 4.48Q82.69 4.03 82.27 3.34Q81.85 2.66 81.85 1.62L81.85 1.62Q81.85 0.78 82.17 0.04Q82.49-0.70 83.18-1.28Q83.86-1.85 84.93-2.17Q85.99-2.50 87.48-2.50L87.48-2.50Q88.76-2.50 89.87-2.30Q90.98-2.10 91.79-1.74L91.79-1.74L91.26 1.17Q90.78 1.03 89.77 0.71Q88.76 0.39 87.50 0.39L87.50 0.39Q86.19 0.39 85.73 0.71Q85.26 1.03 85.26 1.40L85.26 1.40Q85.26 1.70 85.47 1.94Q85.68 2.18 86.03 2.38Q86.38 2.57 86.85 2.75Q87.31 2.94 87.84 3.10L87.84 3.10Q88.60 3.36 89.41 3.66Q90.22 3.97 90.88 4.43Q91.54 4.90 91.96 5.61Q92.38 6.32 92.38 7.36L92.38 7.36Q92.38 8.17 92.07 8.90Q91.76 9.63 91.05 10.16Q90.33 10.69 89.18 11Q88.04 11.31 86.36 11.31L86.36 11.31Q84.65 11.31 83.44 10.92Q82.24 10.52 81.51 10.22L81.51 10.22L82.04 7.33Q83.02 7.72 84.13 8.06Q85.24 8.40 86.38 8.40ZM94.87 4.53L94.87 4.53Q94.87 2.80 95.40 1.48Q95.93 0.16 96.80-0.72Q97.67-1.60 98.79-2.05Q99.91-2.50 101.08-2.50L101.08-2.50Q104.00-2.50 105.51-0.77Q107.02 0.95 107.02 4.25L107.02 4.25Q107.02 4.59 107.01 4.95Q106.99 5.32 106.96 5.54L106.96 5.54L98.42 5.54Q98.42 6.83 99.49 7.57Q100.55 8.31 102.23 8.31L102.23 8.31Q103.27 8.31 104.21 8.09Q105.14 7.86 105.79 7.64L105.79 7.64L106.26 10.58Q105.37 10.89 104.36 11.10Q103.35 11.31 102.09 11.31L102.09 11.31Q100.41 11.31 99.08 10.87Q97.75 10.44 96.81 9.59Q95.88 8.73 95.37 7.47Q94.87 6.21 94.87 4.53ZM98.42 3.16L103.69 3.16Q103.69 2.63 103.55 2.14Q103.41 1.65 103.10 1.26Q102.79 0.86 102.32 0.63Q101.84 0.39 101.14 0.39L101.14 0.39Q100.47 0.39 99.98 0.61Q99.49 0.84 99.17 1.23Q98.84 1.62 98.66 2.12Q98.48 2.63 98.42 3.16L98.42 3.16ZM117.60-2.30L117.60-2.30Q118.70-2.30 119.40-1.96Q120.10-1.63 120.50-0.96Q120.91-0.28 121.05 0.74Q121.19 1.76 121.19 3.13L121.19 3.13L121.19 11L118.39 11L118.39 2.96Q118.39 2.18 118.29 1.70Q118.19 1.23 118.04 0.98Q117.88 0.72 117.67 0.64Q117.46 0.56 117.24 0.56L117.24 0.56Q116.99 0.56 116.71 0.60Q116.43 0.64 116.20 0.75L116.20 0.75Q116.29 1.28 116.34 1.93Q116.40 2.57 116.40 3.36L116.40 3.36L116.40 5.99L113.60 5.99L113.60 2.96Q113.60 1.62 113.33 1.09Q113.07 0.56 112.48 0.56L112.48 0.56Q112.31 0.56 112.07 0.58Q111.84 0.61 111.61 0.67L111.61 0.67L111.61 11L108.81 11L108.81-1.66Q109.90-1.96 110.97-2.13Q112.03-2.30 112.84-2.30L112.84-2.30Q113.57-2.30 114.15-2.12Q114.72-1.94 115.14-1.52L115.14-1.52Q115.62-1.82 116.26-2.06Q116.90-2.30 117.60-2.30ZM131.66 4.34L131.66 4.34Q131.66 2.49 131.06 1.51Q130.46 0.53 129.22 0.53L129.22 0.53Q128.66 0.53 128.12 0.68Q127.57 0.84 127.18 1.06L127.18 1.06L127.18 8.20Q127.57 8.28 128.01 8.31Q128.44 8.34 128.75 8.34L128.75 8.34Q130.09 8.34 130.88 7.43Q131.66 6.52 131.66 4.34ZM135.16 4.42L135.16 4.42Q135.16 5.99 134.74 7.26Q134.32 8.54 133.51 9.43Q132.70 10.33 131.52 10.82Q130.34 11.31 128.83 11.31L128.83 11.31Q127.49 11.31 126.09 11.11Q124.69 10.92 123.74 10.61L123.74 10.61L123.74-7.84L127.18-8.43L127.18-1.85Q127.91-2.19 128.58-2.31Q129.25-2.44 129.92-2.44L129.92-2.44Q131.21-2.44 132.19-1.95Q133.17-1.46 133.83-0.55Q134.49 0.36 134.82 1.62Q135.16 2.88 135.16 4.42ZM148.63 7.67L149.08 10.44Q148.99 10.50 148.70 10.64Q148.40 10.78 147.93 10.93Q147.45 11.08 146.77 11.20Q146.08 11.31 145.21 11.31L145.21 11.31Q142.83 11.31 141.74 9.89Q140.65 8.48 140.65 5.76L140.65 5.76L140.65-5.41L137.01-5.41L137.01-8.26L144.09-8.26L144.09 6.02Q144.09 7.36 144.62 7.84Q145.16 8.31 145.97 8.31L145.97 8.31Q147.00 8.31 147.70 8.03Q148.40 7.75 148.63 7.67L148.63 7.67ZM159.69-2.16L163.22-2.16Q162.68-0.31 162.19 1.47Q161.70 3.24 161.17 4.94Q160.64 6.63 160.04 8.26Q159.44 9.88 158.74 11.42L158.74 11.42Q158.20 12.54 157.69 13.35Q157.17 14.16 156.54 14.68Q155.91 15.20 155.14 15.45Q154.37 15.70 153.33 15.70L153.33 15.70Q152.46 15.70 151.75 15.56Q151.04 15.42 150.56 15.20L150.56 15.20L151.20 12.32Q151.76 12.57 152.20 12.67Q152.63 12.76 153.14 12.76L153.14 12.76Q154.14 12.76 154.76 12.09Q155.38 11.42 155.74 10.50L155.74 10.50Q154.51 8.03 153.28 4.85Q152.04 1.68 151.04-2.16L151.04-2.16L154.62-2.16Q154.87-1.12 155.19 0.05Q155.52 1.23 155.88 2.40Q156.24 3.58 156.65 4.71Q157.06 5.85 157.48 6.83L157.48 6.83Q157.76 5.85 158.06 4.71Q158.37 3.58 158.65 2.42Q158.93 1.26 159.20 0.08Q159.46-1.10 159.69-2.16L159.69-2.16Z"/>
    </g>
</svg>