<?xml version="1.0" encoding="UTF-8"?>
<svg height="34" width="175.1" version="1.1" xmlns="http://www.w3.org/2000/svg">
    <rect
        height="32"
        width="173.1"
        rx="1"
        ry="1"
        x="1"
        y="1"
        fill="#04133b"
        stroke="#0e40c8"
        stroke-width="1"
         />
    <g transform="translate(0, 12)">
        <path fill="#0e40c8" d="M24.94 2.40L27.10 2.40Q27.20 2.86 27.39 3.53Q27.58 4.20 27.81 5.02Q28.04 5.83 28.32 6.77Q28.59 7.70 28.86 8.69L28.86 8.69Q28.86 7.44 28.83 6.01Q28.81 4.58 28.78 3.10Q28.76 1.61 28.74 0.08Q28.71-1.44 28.71-2.86L28.71-2.86L31.45-2.86Q31.38-1.03 31.30 0.90Q31.23 2.83 31.14 4.74Q31.04 6.65 30.91 8.50Q30.78 10.34 30.61 12L30.61 12L28.16 12Q27.63 10.49 27.10 8.75Q26.58 7.01 26.05 5.42L26.05 5.42Q25.52 6.94 24.94 8.71Q24.37 10.49 23.89 12L23.89 12L21.44 12Q21.25 10.34 21.10 8.48Q20.96 6.62 20.85 4.72Q20.74 2.81 20.67 0.88Q20.60-1.06 20.55-2.86L20.55-2.86L23.29-2.86Q23.26-1.44 23.24 0.07Q23.22 1.58 23.19 3.08Q23.17 4.58 23.14 6.01Q23.12 7.44 23.12 8.69L23.12 8.69Q23.34 7.92 23.61 7.01Q23.89 6.10 24.14 5.21Q24.39 4.32 24.61 3.58Q24.82 2.83 24.94 2.40L24.94 2.40ZM32.74 6.46L32.74 6.46Q32.74 4.97 33.20 3.84Q33.66 2.71 34.40 1.96Q35.14 1.20 36.10 0.82Q37.06 0.43 38.07 0.43L38.07 0.43Q40.57 0.43 41.86 1.91Q43.16 3.38 43.16 6.22L43.16 6.22Q43.16 6.50 43.15 6.82Q43.14 7.13 43.11 7.32L43.11 7.32L35.79 7.32Q35.79 8.42 36.70 9.06Q37.62 9.70 39.06 9.70L39.06 9.70Q39.94 9.70 40.75 9.50Q41.55 9.31 42.10 9.12L42.10 9.12L42.51 11.64Q41.74 11.90 40.88 12.08Q40.02 12.26 38.94 12.26L38.94 12.26Q37.50 12.26 36.36 11.89Q35.22 11.52 34.41 10.79Q33.61 10.06 33.18 8.98Q32.74 7.90 32.74 6.46ZM35.79 5.28L40.30 5.28Q40.30 4.82 40.18 4.40Q40.06 3.98 39.80 3.65Q39.54 3.31 39.13 3.11Q38.72 2.90 38.12 2.90L38.12 2.90Q37.54 2.90 37.12 3.10Q36.70 3.29 36.43 3.62Q36.15 3.96 36.00 4.39Q35.84 4.82 35.79 5.28L35.79 5.28ZM52.28 6.29L52.28 6.29Q52.28 4.70 51.76 3.86Q51.25 3.02 50.19 3.02L50.19 3.02Q49.71 3.02 49.24 3.16Q48.78 3.29 48.44 3.48L48.44 3.48L48.44 9.60Q48.78 9.67 49.15 9.70Q49.52 9.72 49.78 9.72L49.78 9.72Q50.94 9.72 51.61 8.94Q52.28 8.16 52.28 6.29ZM55.28 6.36L55.28 6.36Q55.28 7.70 54.92 8.80Q54.56 9.89 53.86 10.66Q53.17 11.42 52.16 11.84Q51.15 12.26 49.86 12.26L49.86 12.26Q48.70 12.26 47.50 12.10Q46.30 11.93 45.49 11.66L45.49 11.66L45.49-4.15L48.44-4.66L48.44 0.98Q49.06 0.70 49.64 0.59Q50.22 0.48 50.79 0.48L50.79 0.48Q51.90 0.48 52.74 0.90Q53.58 1.32 54.14 2.10Q54.70 2.88 54.99 3.96Q55.28 5.04 55.28 6.36ZM67.78 12L64.62 12L63.92 8.57L59.96 8.57L59.29 12L56.22 12Q57.27 7.61 58.35 4.00Q59.43 0.38 60.44-2.86L60.44-2.86L63.66-2.86Q64.71 0.41 65.76 4.07Q66.80 7.73 67.78 12L67.78 12ZM61.98 0.02L61.98 0.02Q61.74 0.86 61.53 1.62Q61.33 2.38 61.15 3.11Q60.97 3.84 60.81 4.58Q60.66 5.33 60.51 6.12L60.51 6.12L63.42 6.12Q63.27 5.33 63.13 4.58Q62.98 3.84 62.80 3.11Q62.62 2.38 62.42 1.62Q62.22 0.86 61.98 0.02ZM73.47 9.77L73.47 9.77Q74.55 9.77 75.13 9.61Q75.70 9.46 75.70 8.98L75.70 8.98Q75.70 8.66 75.52 8.45Q75.34 8.23 75.02 8.08Q74.70 7.92 74.28 7.78Q73.86 7.63 73.40 7.49L73.40 7.49Q72.75 7.30 72.08 7.04Q71.41 6.79 70.86 6.41Q70.30 6.02 69.94 5.44Q69.58 4.85 69.58 3.96L69.58 3.96Q69.58 3.24 69.86 2.60Q70.14 1.97 70.72 1.48Q71.31 0.98 72.22 0.71Q73.14 0.43 74.41 0.43L74.41 0.43Q75.51 0.43 76.46 0.60Q77.41 0.77 78.10 1.08L78.10 1.08L77.65 3.58Q77.24 3.46 76.38 3.18Q75.51 2.90 74.43 2.90L74.43 2.90Q73.30 2.90 72.91 3.18Q72.51 3.46 72.51 3.77L72.51 3.77Q72.51 4.03 72.69 4.24Q72.87 4.44 73.17 4.61Q73.47 4.78 73.87 4.93Q74.26 5.09 74.72 5.23L74.72 5.23Q75.37 5.45 76.06 5.71Q76.76 5.98 77.32 6.37Q77.89 6.77 78.25 7.38Q78.61 7.99 78.61 8.88L78.61 8.88Q78.61 9.58 78.34 10.20Q78.08 10.82 77.47 11.28Q76.86 11.74 75.87 12Q74.89 12.26 73.45 12.26L73.45 12.26Q71.98 12.26 70.95 11.93Q69.92 11.59 69.30 11.33L69.30 11.33L69.75 8.86Q70.59 9.19 71.54 9.48Q72.49 9.77 73.47 9.77ZM85.47 9.77L85.47 9.77Q86.55 9.77 87.13 9.61Q87.70 9.46 87.70 8.98L87.70 8.98Q87.70 8.66 87.52 8.45Q87.34 8.23 87.02 8.08Q86.70 7.92 86.28 7.78Q85.86 7.63 85.40 7.49L85.40 7.49Q84.75 7.30 84.08 7.04Q83.41 6.79 82.86 6.41Q82.30 6.02 81.94 5.44Q81.58 4.85 81.58 3.96L81.58 3.96Q81.58 3.24 81.86 2.60Q82.14 1.97 82.72 1.48Q83.31 0.98 84.22 0.71Q85.14 0.43 86.41 0.43L86.41 0.43Q87.51 0.43 88.46 0.60Q89.41 0.77 90.10 1.08L90.10 1.08L89.65 3.58Q89.24 3.46 88.38 3.18Q87.51 2.90 86.43 2.90L86.43 2.90Q85.30 2.90 84.91 3.18Q84.51 3.46 84.51 3.77L84.51 3.77Q84.51 4.03 84.69 4.24Q84.87 4.44 85.17 4.61Q85.47 4.78 85.87 4.93Q86.26 5.09 86.72 5.23L86.72 5.23Q87.37 5.45 88.06 5.71Q88.76 5.98 89.32 6.37Q89.89 6.77 90.25 7.38Q90.61 7.99 90.61 8.88L90.61 8.88Q90.61 9.58 90.34 10.20Q90.08 10.82 89.47 11.28Q88.86 11.74 87.87 12Q86.89 12.26 85.45 12.26L85.45 12.26Q83.98 12.26 82.95 11.93Q81.92 11.59 81.30 11.33L81.30 11.33L81.75 8.86Q82.59 9.19 83.54 9.48Q84.49 9.77 85.47 9.77ZM92.74 6.46L92.74 6.46Q92.74 4.97 93.20 3.84Q93.66 2.71 94.40 1.96Q95.14 1.20 96.10 0.82Q97.06 0.43 98.07 0.43L98.07 0.43Q100.57 0.43 101.86 1.91Q103.16 3.38 103.16 6.22L103.16 6.22Q103.16 6.50 103.15 6.82Q103.14 7.13 103.11 7.32L103.11 7.32L95.79 7.32Q95.79 8.42 96.70 9.06Q97.62 9.70 99.06 9.70L99.06 9.70Q99.94 9.70 100.75 9.50Q101.55 9.31 102.10 9.12L102.10 9.12L102.51 11.64Q101.74 11.90 100.88 12.08Q100.02 12.26 98.94 12.26L98.94 12.26Q97.50 12.26 96.36 11.89Q95.22 11.52 94.41 10.79Q93.61 10.06 93.18 8.98Q92.74 7.90 92.74 6.46ZM95.79 5.28L100.30 5.28Q100.30 4.82 100.18 4.40Q100.06 3.98 99.80 3.65Q99.54 3.31 99.13 3.11Q98.72 2.90 98.12 2.90L98.12 2.90Q97.54 2.90 97.12 3.10Q96.70 3.29 96.43 3.62Q96.15 3.96 96.00 4.39Q95.84 4.82 95.79 5.28L95.79 5.28ZM112.23 0.60L112.23 0.60Q113.17 0.60 113.77 0.89Q114.37 1.18 114.72 1.75Q115.06 2.33 115.18 3.20Q115.30 4.08 115.30 5.26L115.30 5.26L115.30 12L112.90 12L112.90 5.11Q112.90 4.44 112.82 4.03Q112.74 3.62 112.60 3.41Q112.47 3.19 112.29 3.12Q112.11 3.05 111.92 3.05L111.92 3.05Q111.70 3.05 111.46 3.08Q111.22 3.12 111.03 3.22L111.03 3.22Q111.10 3.67 111.15 4.22Q111.20 4.78 111.20 5.45L111.20 5.45L111.20 7.70L108.80 7.70L108.80 5.11Q108.80 3.96 108.57 3.50Q108.34 3.05 107.84 3.05L107.84 3.05Q107.70 3.05 107.49 3.07Q107.29 3.10 107.10 3.14L107.10 3.14L107.10 12L104.70 12L104.70 1.15Q105.63 0.89 106.54 0.74Q107.46 0.60 108.15 0.60L108.15 0.60Q108.78 0.60 109.27 0.76Q109.76 0.91 110.12 1.27L110.12 1.27Q110.53 1.01 111.08 0.80Q111.63 0.60 112.23 0.60ZM124.28 6.29L124.28 6.29Q124.28 4.70 123.76 3.86Q123.25 3.02 122.19 3.02L122.19 3.02Q121.71 3.02 121.24 3.16Q120.78 3.29 120.44 3.48L120.44 3.48L120.44 9.60Q120.78 9.67 121.15 9.70Q121.52 9.72 121.78 9.72L121.78 9.72Q122.94 9.72 123.61 8.94Q124.28 8.16 124.28 6.29ZM127.28 6.36L127.28 6.36Q127.28 7.70 126.92 8.80Q126.56 9.89 125.86 10.66Q125.17 11.42 124.16 11.84Q123.15 12.26 121.86 12.26L121.86 12.26Q120.70 12.26 119.50 12.10Q118.30 11.93 117.49 11.66L117.49 11.66L117.49-4.15L120.44-4.66L120.44 0.98Q121.06 0.70 121.64 0.59Q122.22 0.48 122.79 0.48L122.79 0.48Q123.90 0.48 124.74 0.90Q125.58 1.32 126.14 2.10Q126.70 2.88 126.99 3.96Q127.28 5.04 127.28 6.36ZM138.82 9.14L139.21 11.52Q139.14 11.57 138.88 11.69Q138.63 11.81 138.22 11.94Q137.82 12.07 137.23 12.17Q136.64 12.26 135.90 12.26L135.90 12.26Q133.86 12.26 132.92 11.05Q131.98 9.84 131.98 7.51L131.98 7.51L131.98-2.06L128.86-2.06L128.86-4.51L134.94-4.51L134.94 7.73Q134.94 8.88 135.39 9.29Q135.85 9.70 136.54 9.70L136.54 9.70Q137.43 9.70 138.03 9.46Q138.63 9.22 138.82 9.14L138.82 9.14ZM148.30 0.72L151.33 0.72Q150.87 2.30 150.45 3.83Q150.03 5.35 149.58 6.80Q149.12 8.26 148.60 9.65Q148.09 11.04 147.49 12.36L147.49 12.36Q147.03 13.32 146.59 14.02Q146.14 14.71 145.60 15.16Q145.06 15.60 144.40 15.82Q143.74 16.03 142.86 16.03L142.86 16.03Q142.11 16.03 141.50 15.91Q140.89 15.79 140.48 15.60L140.48 15.60L141.03 13.13Q141.51 13.34 141.88 13.43Q142.26 13.51 142.69 13.51L142.69 13.51Q143.55 13.51 144.08 12.94Q144.61 12.36 144.92 11.57L144.92 11.57Q143.86 9.46 142.81 6.73Q141.75 4.01 140.89 0.72L140.89 0.72L143.96 0.72Q144.18 1.61 144.45 2.62Q144.73 3.62 145.04 4.63Q145.35 5.64 145.70 6.61Q146.05 7.58 146.41 8.42L146.41 8.42Q146.65 7.58 146.91 6.61Q147.18 5.64 147.42 4.64Q147.66 3.65 147.88 2.64Q148.11 1.63 148.30 0.72L148.30 0.72Z"/>
    </g>
</svg>