<?xml version="1.0" encoding="UTF-8"?>
<svg height="34" width="187.2" version="1.1" xmlns="http://www.w3.org/2000/svg">
    <rect
        height="32"
        width="185.2"
        rx="16"
        ry="16"
        x="1"
        y="1"
        fill="#d20b00"
        stroke="#380300"
        stroke-width="1"
         />
    <g transform="translate(0, 12)">
        <path fill="#380300" d="M27.49-0.62L27.49-0.62Q26.43-0.62 25.71-0.24Q24.99 0.14 24.52 0.83Q24.06 1.51 23.85 2.46Q23.65 3.41 23.65 4.56L23.65 4.56Q23.65 7.22 24.49 8.48Q25.33 9.74 26.96 9.74L26.96 9.74Q27.22 9.74 27.54 9.72Q27.85 9.70 28.11 9.65L28.11 9.65L28.11 4.22L31.06 4.22L31.06 11.64Q30.54 11.83 29.42 12.07Q28.30 12.31 26.72 12.31L26.72 12.31Q25.33 12.31 24.21 11.82Q23.10 11.33 22.30 10.36Q21.51 9.38 21.08 7.93Q20.65 6.48 20.65 4.56L20.65 4.56Q20.65 2.66 21.15 1.21Q21.66-0.24 22.52-1.22Q23.38-2.21 24.56-2.70Q25.74-3.19 27.08-3.19L27.08-3.19Q27.94-3.19 28.63-3.06Q29.31-2.93 29.82-2.76Q30.32-2.59 30.64-2.40Q30.97-2.21 31.14-2.11L31.14-2.11L30.37 0.24Q29.84-0.10 29.07-0.36Q28.30-0.62 27.49-0.62ZM32.74 6.46L32.74 6.46Q32.74 4.97 33.20 3.84Q33.66 2.71 34.40 1.96Q35.14 1.20 36.10 0.82Q37.06 0.43 38.07 0.43L38.07 0.43Q40.57 0.43 41.86 1.91Q43.16 3.38 43.16 6.22L43.16 6.22Q43.16 6.50 43.15 6.82Q43.14 7.13 43.11 7.32L43.11 7.32L35.79 7.32Q35.79 8.42 36.70 9.06Q37.62 9.70 39.06 9.70L39.06 9.70Q39.94 9.70 40.75 9.50Q41.55 9.31 42.10 9.12L42.10 9.12L42.51 11.64Q41.74 11.90 40.88 12.08Q40.02 12.26 38.94 12.26L38.94 12.26Q37.50 12.26 36.36 11.89Q35.22 11.52 34.41 10.79Q33.61 10.06 33.18 8.98Q32.74 7.90 32.74 6.46ZM35.79 5.28L40.30 5.28Q40.30 4.82 40.18 4.40Q40.06 3.98 39.80 3.65Q39.54 3.31 39.13 3.11Q38.72 2.90 38.12 2.90L38.12 2.90Q37.54 2.90 37.12 3.10Q36.70 3.29 36.43 3.62Q36.15 3.96 36.00 4.39Q35.84 4.82 35.79 5.28L35.79 5.28ZM55.02 0.98L54.49 3.72Q54.20 3.65 53.80 3.58Q53.41 3.50 53 3.44Q52.59 3.38 52.21 3.36Q51.82 3.34 51.56 3.34L51.56 3.34Q50.94 3.34 50.34 3.40Q49.74 3.46 49.11 3.62L49.11 3.62L49.11 12L46.14 12L46.14 1.46Q47.31 1.03 48.55 0.77Q49.78 0.50 51.44 0.50L51.44 0.50Q51.68 0.50 52.12 0.53Q52.57 0.55 53.07 0.61Q53.58 0.67 54.09 0.76Q54.61 0.84 55.02 0.98L55.02 0.98ZM64.28 6.29L64.28 6.29Q64.28 4.70 63.76 3.86Q63.25 3.02 62.19 3.02L62.19 3.02Q61.71 3.02 61.24 3.16Q60.78 3.29 60.44 3.48L60.44 3.48L60.44 9.60Q60.78 9.67 61.15 9.70Q61.52 9.72 61.78 9.72L61.78 9.72Q62.94 9.72 63.61 8.94Q64.28 8.16 64.28 6.29ZM67.28 6.36L67.28 6.36Q67.28 7.70 66.92 8.80Q66.56 9.89 65.86 10.66Q65.17 11.42 64.16 11.84Q63.15 12.26 61.86 12.26L61.86 12.26Q60.70 12.26 59.50 12.10Q58.30 11.93 57.49 11.66L57.49 11.66L57.49-4.15L60.44-4.66L60.44 0.98Q61.06 0.70 61.64 0.59Q62.22 0.48 62.79 0.48L62.79 0.48Q63.90 0.48 64.74 0.90Q65.58 1.32 66.14 2.10Q66.70 2.88 66.99 3.96Q67.28 5.04 67.28 6.36ZM68.74 6.46L68.74 6.46Q68.74 4.97 69.20 3.84Q69.66 2.71 70.40 1.96Q71.14 1.20 72.10 0.82Q73.06 0.43 74.07 0.43L74.07 0.43Q76.57 0.43 77.86 1.91Q79.16 3.38 79.16 6.22L79.16 6.22Q79.16 6.50 79.15 6.82Q79.14 7.13 79.11 7.32L79.11 7.32L71.79 7.32Q71.79 8.42 72.70 9.06Q73.62 9.70 75.06 9.70L75.06 9.70Q75.94 9.70 76.75 9.50Q77.55 9.31 78.10 9.12L78.10 9.12L78.51 11.64Q77.74 11.90 76.88 12.08Q76.02 12.26 74.94 12.26L74.94 12.26Q73.50 12.26 72.36 11.89Q71.22 11.52 70.41 10.79Q69.61 10.06 69.18 8.98Q68.74 7.90 68.74 6.46ZM71.79 5.28L76.30 5.28Q76.30 4.82 76.18 4.40Q76.06 3.98 75.80 3.65Q75.54 3.31 75.13 3.11Q74.72 2.90 74.12 2.90L74.12 2.90Q73.54 2.90 73.12 3.10Q72.70 3.29 72.43 3.62Q72.15 3.96 72.00 4.39Q71.84 4.82 71.79 5.28L71.79 5.28ZM91.02 0.98L90.49 3.72Q90.20 3.65 89.80 3.58Q89.41 3.50 89 3.44Q88.59 3.38 88.21 3.36Q87.82 3.34 87.56 3.34L87.56 3.34Q86.94 3.34 86.34 3.40Q85.74 3.46 85.11 3.62L85.11 3.62L85.11 12L82.14 12L82.14 1.46Q83.31 1.03 84.55 0.77Q85.78 0.50 87.44 0.50L87.44 0.50Q87.68 0.50 88.12 0.53Q88.57 0.55 89.07 0.61Q89.58 0.67 90.09 0.76Q90.61 0.84 91.02 0.98L91.02 0.98ZM114.73 12L105.30 12L105.30 9.55L108.54 9.55L108.54-0.41L105.30-0.41L105.30-2.86L114.73-2.86L114.73-0.41L111.51-0.41L111.51 9.55L114.73 9.55L114.73 12ZM124.23 0.60L124.23 0.60Q125.17 0.60 125.77 0.89Q126.37 1.18 126.72 1.75Q127.06 2.33 127.18 3.20Q127.30 4.08 127.30 5.26L127.30 5.26L127.30 12L124.90 12L124.90 5.11Q124.90 4.44 124.82 4.03Q124.74 3.62 124.60 3.41Q124.47 3.19 124.29 3.12Q124.11 3.05 123.92 3.05L123.92 3.05Q123.70 3.05 123.46 3.08Q123.22 3.12 123.03 3.22L123.03 3.22Q123.10 3.67 123.15 4.22Q123.20 4.78 123.20 5.45L123.20 5.45L123.20 7.70L120.80 7.70L120.80 5.11Q120.80 3.96 120.57 3.50Q120.34 3.05 119.84 3.05L119.84 3.05Q119.70 3.05 119.49 3.07Q119.29 3.10 119.10 3.14L119.10 3.14L119.10 12L116.70 12L116.70 1.15Q117.63 0.89 118.54 0.74Q119.46 0.60 120.15 0.60L120.15 0.60Q120.78 0.60 121.27 0.76Q121.76 0.91 122.12 1.27L122.12 1.27Q122.53 1.01 123.08 0.80Q123.63 0.60 124.23 0.60ZM134.02 9.89L134.02 9.89Q134.50 9.89 134.96 9.88Q135.42 9.86 135.75 9.82L135.75 9.82L135.75 7.22Q135.46 7.18 135.06 7.14Q134.65 7.10 134.31 7.10L134.31 7.10Q133.86 7.10 133.42 7.16Q132.99 7.22 132.67 7.37Q132.34 7.51 132.15 7.78Q131.96 8.04 131.96 8.47L131.96 8.47Q131.96 9.24 132.54 9.56Q133.11 9.89 134.02 9.89ZM133.76 0.43L133.76 0.43Q135.15 0.43 136.08 0.76Q137 1.08 137.55 1.67Q138.10 2.26 138.34 3.11Q138.58 3.96 138.58 5.02L138.58 5.02L138.58 11.74Q137.94 11.88 136.66 12.07Q135.39 12.26 133.81 12.26L133.81 12.26Q132.73 12.26 131.85 12.07Q130.98 11.88 130.35 11.44Q129.73 10.99 129.39 10.28Q129.06 9.58 129.06 8.54L129.06 8.54Q129.06 7.56 129.44 6.89Q129.82 6.22 130.47 5.81Q131.12 5.40 131.96 5.22Q132.80 5.04 133.71 5.04L133.71 5.04Q134.86 5.04 135.75 5.23L135.75 5.23L135.75 4.87Q135.75 4.03 135.22 3.47Q134.70 2.90 133.40 2.90L133.40 2.90Q132.56 2.90 131.78 3.02Q131 3.14 130.52 3.31L130.52 3.31L130.11 0.94Q130.66 0.74 131.67 0.59Q132.68 0.43 133.76 0.43ZM143.79 6L143.79 6Q143.79 7.39 144.30 8.12Q144.80 8.86 145.88 8.86L145.88 8.86Q146.36 8.86 146.78 8.74Q147.20 8.62 147.54 8.42L147.54 8.42L147.54 3Q147.20 2.93 146.94 2.90Q146.67 2.88 146.38 2.88L146.38 2.88Q143.79 2.88 143.79 6ZM150.51 1.08L150.51 10.63Q150.51 13.39 149.18 14.71Q147.85 16.03 144.90 16.03L144.90 16.03Q143.84 16.03 142.87 15.82Q141.90 15.60 141.01 15.31L141.01 15.31L141.56 12.82Q142.26 13.08 143.02 13.31Q143.79 13.54 144.94 13.54L144.94 13.54Q145.71 13.54 146.22 13.36Q146.72 13.18 147.01 12.86Q147.30 12.55 147.42 12.13Q147.54 11.71 147.54 11.23L147.54 11.23L147.54 10.78Q146.91 11.02 146.40 11.14Q145.88 11.26 145.28 11.26L145.28 11.26Q143.07 11.26 141.93 9.86Q140.79 8.47 140.79 6L140.79 6Q140.79 3.22 142.33 1.85Q143.86 0.48 146.50 0.48L146.50 0.48Q148.35 0.48 150.51 1.08L150.51 1.08ZM152.74 6.46L152.74 6.46Q152.74 4.97 153.20 3.84Q153.66 2.71 154.40 1.96Q155.14 1.20 156.10 0.82Q157.06 0.43 158.07 0.43L158.07 0.43Q160.57 0.43 161.86 1.91Q163.16 3.38 163.16 6.22L163.16 6.22Q163.16 6.50 163.15 6.82Q163.14 7.13 163.11 7.32L163.11 7.32L155.79 7.32Q155.79 8.42 156.70 9.06Q157.62 9.70 159.06 9.70L159.06 9.70Q159.94 9.70 160.75 9.50Q161.55 9.31 162.10 9.12L162.10 9.12L162.51 11.64Q161.74 11.90 160.88 12.08Q160.02 12.26 158.94 12.26L158.94 12.26Q157.50 12.26 156.36 11.89Q155.22 11.52 154.41 10.79Q153.61 10.06 153.18 8.98Q152.74 7.90 152.74 6.46ZM155.79 5.28L160.30 5.28Q160.30 4.82 160.18 4.40Q160.06 3.98 159.80 3.65Q159.54 3.31 159.13 3.11Q158.72 2.90 158.12 2.90L158.12 2.90Q157.54 2.90 157.12 3.10Q156.70 3.29 156.43 3.62Q156.15 3.96 156.00 4.39Q155.84 4.82 155.79 5.28L155.79 5.28Z"/>
    </g>
</svg>