<?xml version="1.0" encoding="UTF-8"?>
<svg height="26" width="139.2" version="1.1" xmlns="http://www.w3.org/2000/svg"><!--Created by Josélio de S. C. Júnior - 2021 - https://github.com/joseliojunior -->
    <rect
        height="24"
        width="137.2"
        rx="12"
        ry="12"
        x="1" y="1"
        fill="#d20b00"
        stroke="#380300"
        stroke-width="1" />
    <g transform="translate(0, 8)">
        <path fill="#380300" stroke="none" d="M24.99 1.58L24.99 1.58Q24.29 1.58 23.81 1.84Q23.33 2.10 23.02 2.55Q22.70 3.01 22.57 3.64Q22.43 4.27 22.43 5.04L22.43 5.04Q22.43 6.82 22.99 7.66Q23.55 8.50 24.64 8.50L24.64 8.50Q24.82 8.50 25.02 8.48Q25.23 8.46 25.41 8.43L25.41 8.43L25.41 4.82L27.38 4.82L27.38 9.76Q27.02 9.89 26.28 10.05Q25.54 10.21 24.48 10.21L24.48 10.21Q23.55 10.21 22.81 9.88Q22.06 9.55 21.54 8.90Q21.01 8.26 20.72 7.29Q20.43 6.32 20.43 5.04L20.43 5.04Q20.43 3.78 20.77 2.81Q21.10 1.84 21.68 1.18Q22.26 0.53 23.04 0.20Q23.82-0.13 24.72-0.13L24.72-0.13Q25.30-0.13 25.75-0.04Q26.21 0.05 26.54 0.16Q26.88 0.27 27.10 0.40Q27.31 0.53 27.42 0.59L27.42 0.59L26.91 2.16Q26.56 1.94 26.05 1.76Q25.54 1.58 24.99 1.58ZM28.50 6.30L28.50 6.30Q28.50 5.31 28.80 4.56Q29.10 3.81 29.60 3.30Q30.10 2.80 30.74 2.54Q31.38 2.29 32.05 2.29L32.05 2.29Q33.71 2.29 34.58 3.27Q35.44 4.26 35.44 6.14L35.44 6.14Q35.44 6.34 35.43 6.54Q35.42 6.75 35.41 6.88L35.41 6.88L30.53 6.88Q30.53 7.62 31.14 8.04Q31.74 8.46 32.70 8.46L32.70 8.46Q33.30 8.46 33.83 8.34Q34.37 8.21 34.74 8.08L34.74 8.08L35.01 9.76Q34.50 9.94 33.92 10.06Q33.34 10.18 32.62 10.18L32.62 10.18Q31.66 10.18 30.90 9.93Q30.14 9.68 29.61 9.19Q29.07 8.70 28.78 7.98Q28.50 7.26 28.50 6.30ZM30.53 5.52L33.54 5.52Q33.54 5.22 33.46 4.94Q33.38 4.66 33.20 4.43Q33.02 4.21 32.75 4.07Q32.48 3.94 32.08 3.94L32.08 3.94Q31.70 3.94 31.42 4.06Q31.14 4.19 30.95 4.42Q30.77 4.64 30.66 4.93Q30.56 5.22 30.53 5.52L30.53 5.52ZM43.34 2.66L42.99 4.48Q42.80 4.43 42.54 4.38Q42.27 4.34 42 4.30Q41.73 4.26 41.47 4.24Q41.22 4.22 41.04 4.22L41.04 4.22Q40.62 4.22 40.22 4.26Q39.82 4.30 39.41 4.42L39.41 4.42L39.41 10L37.42 10L37.42 2.98Q38.21 2.69 39.03 2.51Q39.86 2.34 40.96 2.34L40.96 2.34Q41.12 2.34 41.42 2.35Q41.71 2.37 42.05 2.41Q42.38 2.45 42.73 2.50Q43.07 2.56 43.34 2.66L43.34 2.66ZM49.52 6.19L49.52 6.19Q49.52 5.14 49.18 4.58Q48.83 4.02 48.13 4.02L48.13 4.02Q47.81 4.02 47.50 4.10Q47.18 4.19 46.96 4.32L46.96 4.32L46.96 8.40Q47.18 8.45 47.43 8.46Q47.68 8.48 47.86 8.48L47.86 8.48Q48.62 8.48 49.07 7.96Q49.52 7.44 49.52 6.19ZM51.52 6.24L51.52 6.24Q51.52 7.14 51.28 7.86Q51.04 8.59 50.58 9.10Q50.11 9.62 49.44 9.90Q48.77 10.18 47.90 10.18L47.90 10.18Q47.14 10.18 46.34 10.06Q45.54 9.95 44.99 9.78L44.99 9.78L44.99-0.77L46.96-1.10L46.96 2.66Q47.38 2.46 47.76 2.39Q48.14 2.32 48.53 2.32L48.53 2.32Q49.26 2.32 49.82 2.60Q50.38 2.88 50.76 3.40Q51.14 3.92 51.33 4.64Q51.52 5.36 51.52 6.24ZM52.50 6.30L52.50 6.30Q52.50 5.31 52.80 4.56Q53.10 3.81 53.60 3.30Q54.10 2.80 54.74 2.54Q55.38 2.29 56.05 2.29L56.05 2.29Q57.71 2.29 58.58 3.27Q59.44 4.26 59.44 6.14L59.44 6.14Q59.44 6.34 59.43 6.54Q59.42 6.75 59.41 6.88L59.41 6.88L54.53 6.88Q54.53 7.62 55.14 8.04Q55.74 8.46 56.70 8.46L56.70 8.46Q57.30 8.46 57.83 8.34Q58.37 8.21 58.74 8.08L58.74 8.08L59.01 9.76Q58.50 9.94 57.92 10.06Q57.34 10.18 56.62 10.18L56.62 10.18Q55.66 10.18 54.90 9.93Q54.14 9.68 53.61 9.19Q53.07 8.70 52.78 7.98Q52.50 7.26 52.50 6.30ZM54.53 5.52L57.54 5.52Q57.54 5.22 57.46 4.94Q57.38 4.66 57.20 4.43Q57.02 4.21 56.75 4.07Q56.48 3.94 56.08 3.94L56.08 3.94Q55.70 3.94 55.42 4.06Q55.14 4.19 54.95 4.42Q54.77 4.64 54.66 4.93Q54.56 5.22 54.53 5.52L54.53 5.52ZM67.34 2.66L66.99 4.48Q66.80 4.43 66.54 4.38Q66.27 4.34 66 4.30Q65.73 4.26 65.47 4.24Q65.22 4.22 65.04 4.22L65.04 4.22Q64.62 4.22 64.22 4.26Q63.82 4.30 63.41 4.42L63.41 4.42L63.41 10L61.42 10L61.42 2.98Q62.21 2.69 63.03 2.51Q63.86 2.34 64.96 2.34L64.96 2.34Q65.12 2.34 65.42 2.35Q65.71 2.37 66.05 2.41Q66.38 2.45 66.73 2.50Q67.07 2.56 67.34 2.66L67.34 2.66ZM83.15 10L76.86 10L76.86 8.37L79.02 8.37L79.02 1.73L76.86 1.73L76.86 0.10L83.15 0.10L83.15 1.73L81.01 1.73L81.01 8.37L83.15 8.37L83.15 10ZM89.49 2.40L89.49 2.40Q90.11 2.40 90.51 2.59Q90.91 2.78 91.14 3.17Q91.38 3.55 91.46 4.14Q91.54 4.72 91.54 5.50L91.54 5.50L91.54 10L89.94 10L89.94 5.41Q89.94 4.96 89.88 4.69Q89.82 4.42 89.74 4.27Q89.65 4.13 89.53 4.08Q89.41 4.03 89.28 4.03L89.28 4.03Q89.14 4.03 88.98 4.06Q88.82 4.08 88.69 4.14L88.69 4.14Q88.74 4.45 88.77 4.82Q88.80 5.18 88.80 5.63L88.80 5.63L88.80 7.14L87.20 7.14L87.20 5.41Q87.20 4.64 87.05 4.34Q86.90 4.03 86.56 4.03L86.56 4.03Q86.46 4.03 86.33 4.05Q86.19 4.06 86.06 4.10L86.06 4.10L86.06 10L84.46 10L84.46 2.77Q85.09 2.59 85.70 2.50Q86.30 2.40 86.77 2.40L86.77 2.40Q87.18 2.40 87.51 2.50Q87.84 2.61 88.08 2.85L88.08 2.85Q88.35 2.67 88.72 2.54Q89.09 2.40 89.49 2.40ZM96.02 8.59L96.02 8.59Q96.34 8.59 96.64 8.58Q96.94 8.58 97.17 8.54L97.17 8.54L97.17 6.82Q96.98 6.78 96.70 6.76Q96.43 6.74 96.21 6.74L96.21 6.74Q95.90 6.74 95.62 6.78Q95.33 6.82 95.11 6.91Q94.90 7.01 94.77 7.18Q94.64 7.36 94.64 7.65L94.64 7.65Q94.64 8.16 95.02 8.38Q95.41 8.59 96.02 8.59ZM95.84 2.29L95.84 2.29Q96.77 2.29 97.38 2.50Q98 2.72 98.37 3.11Q98.74 3.50 98.90 4.07Q99.06 4.64 99.06 5.34L99.06 5.34L99.06 9.82Q98.62 9.92 97.78 10.05Q96.93 10.18 95.87 10.18L95.87 10.18Q95.15 10.18 94.57 10.05Q93.98 9.92 93.57 9.62Q93.15 9.33 92.93 8.86Q92.70 8.38 92.70 7.70L92.70 7.70Q92.70 7.04 92.96 6.59Q93.22 6.14 93.65 5.87Q94.08 5.60 94.64 5.48Q95.20 5.36 95.81 5.36L95.81 5.36Q96.58 5.36 97.17 5.49L97.17 5.49L97.17 5.25Q97.17 4.69 96.82 4.31Q96.46 3.94 95.60 3.94L95.60 3.94Q95.04 3.94 94.52 4.02Q94 4.10 93.68 4.21L93.68 4.21L93.41 2.62Q93.78 2.50 94.45 2.39Q95.12 2.29 95.84 2.29ZM102.53 6L102.53 6Q102.53 6.93 102.86 7.42Q103.20 7.90 103.92 7.90L103.92 7.90Q104.24 7.90 104.52 7.82Q104.80 7.74 105.02 7.62L105.02 7.62L105.02 4Q104.80 3.95 104.62 3.94Q104.45 3.92 104.26 3.92L104.26 3.92Q102.53 3.92 102.53 6ZM107.01 2.72L107.01 9.09Q107.01 10.93 106.12 11.81Q105.23 12.69 103.26 12.69L103.26 12.69Q102.56 12.69 101.91 12.54Q101.26 12.40 100.67 12.21L100.67 12.21L101.04 10.54Q101.50 10.72 102.02 10.87Q102.53 11.02 103.30 11.02L103.30 11.02Q103.81 11.02 104.14 10.90Q104.48 10.78 104.67 10.58Q104.86 10.37 104.94 10.09Q105.02 9.81 105.02 9.49L105.02 9.49L105.02 9.18Q104.61 9.34 104.26 9.42Q103.92 9.50 103.52 9.50L103.52 9.50Q102.05 9.50 101.29 8.58Q100.53 7.65 100.53 6L100.53 6Q100.53 4.14 101.55 3.23Q102.58 2.32 104.34 2.32L104.34 2.32Q105.57 2.32 107.01 2.72L107.01 2.72ZM108.50 6.30L108.50 6.30Q108.50 5.31 108.80 4.56Q109.10 3.81 109.60 3.30Q110.10 2.80 110.74 2.54Q111.38 2.29 112.05 2.29L112.05 2.29Q113.71 2.29 114.58 3.27Q115.44 4.26 115.44 6.14L115.44 6.14Q115.44 6.34 115.43 6.54Q115.42 6.75 115.41 6.88L115.41 6.88L110.53 6.88Q110.53 7.62 111.14 8.04Q111.74 8.46 112.70 8.46L112.70 8.46Q113.30 8.46 113.83 8.34Q114.37 8.21 114.74 8.08L114.74 8.08L115.01 9.76Q114.50 9.94 113.92 10.06Q113.34 10.18 112.62 10.18L112.62 10.18Q111.66 10.18 110.90 9.93Q110.14 9.68 109.61 9.19Q109.07 8.70 108.78 7.98Q108.50 7.26 108.50 6.30ZM110.53 5.52L113.54 5.52Q113.54 5.22 113.46 4.94Q113.38 4.66 113.20 4.43Q113.02 4.21 112.75 4.07Q112.48 3.94 112.08 3.94L112.08 3.94Q111.70 3.94 111.42 4.06Q111.14 4.19 110.95 4.42Q110.77 4.64 110.66 4.93Q110.56 5.22 110.53 5.52L110.53 5.52Z"/>
    </g>
</svg>