<?xml version="1.0" encoding="UTF-8"?>
<svg height="34" width="191.2" version="1.1" xmlns="http://www.w3.org/2000/svg">
    <rect
        height="32"
        width="189.2"
        rx="1"
        ry="1"
        x="1"
        y="1"
        fill="#d20b00"
        stroke="#380300"
        stroke-width="1"
         />
    <g transform="translate(0, 14)">
        <path fill="#380300" d="M18.74-3.73L18.74-3.73Q17.50-3.73 16.66-3.28Q15.82-2.83 15.28-2.03Q14.73-1.24 14.49-0.13Q14.26 0.98 14.26 2.32L14.26 2.32Q14.26 5.43 15.24 6.90Q16.22 8.37 18.12 8.37L18.12 8.37Q18.43 8.37 18.79 8.34Q19.16 8.31 19.46 8.26L19.46 8.26L19.46 1.93L22.91 1.93L22.91 10.58Q22.29 10.80 20.99 11.08Q19.69 11.36 17.84 11.36L17.84 11.36Q16.22 11.36 14.91 10.79Q13.61 10.22 12.69 9.08Q11.76 7.95 11.26 6.25Q10.76 4.56 10.76 2.32L10.76 2.32Q10.76 0.11 11.34-1.59Q11.93-3.28 12.94-4.43Q13.95-5.58 15.32-6.15Q16.69-6.72 18.26-6.72L18.26-6.72Q19.27-6.72 20.07-6.57Q20.86-6.42 21.45-6.22Q22.04-6.02 22.42-5.80Q22.80-5.58 22.99-5.46L22.99-5.46L22.10-2.72Q21.48-3.11 20.58-3.42Q19.69-3.73 18.74-3.73ZM24.87 4.53L24.87 4.53Q24.87 2.80 25.40 1.48Q25.93 0.16 26.80-0.72Q27.67-1.60 28.79-2.05Q29.91-2.50 31.08-2.50L31.08-2.50Q34.00-2.50 35.51-0.77Q37.02 0.95 37.02 4.25L37.02 4.25Q37.02 4.59 37.01 4.95Q36.99 5.32 36.96 5.54L36.96 5.54L28.42 5.54Q28.42 6.83 29.49 7.57Q30.55 8.31 32.23 8.31L32.23 8.31Q33.27 8.31 34.21 8.09Q35.14 7.86 35.79 7.64L35.79 7.64L36.26 10.58Q35.37 10.89 34.36 11.10Q33.35 11.31 32.09 11.31L32.09 11.31Q30.41 11.31 29.08 10.87Q27.75 10.44 26.81 9.59Q25.88 8.73 25.37 7.47Q24.87 6.21 24.87 4.53ZM28.42 3.16L33.69 3.16Q33.69 2.63 33.55 2.14Q33.41 1.65 33.10 1.26Q32.79 0.86 32.32 0.63Q31.84 0.39 31.14 0.39L31.14 0.39Q30.47 0.39 29.98 0.61Q29.49 0.84 29.17 1.23Q28.84 1.62 28.66 2.12Q28.48 2.63 28.42 3.16L28.42 3.16ZM50.85-1.85L50.24 1.34Q49.90 1.26 49.44 1.17Q48.98 1.09 48.50 1.02Q48.02 0.95 47.58 0.92Q47.13 0.89 46.82 0.89L46.82 0.89Q46.09 0.89 45.39 0.96Q44.69 1.03 43.96 1.23L43.96 1.23L43.96 11L40.49 11L40.49-1.29Q41.86-1.80 43.31-2.10Q44.75-2.41 46.68-2.41L46.68-2.41Q46.96-2.41 47.48-2.38Q48.00-2.36 48.58-2.29Q49.17-2.22 49.77-2.12Q50.38-2.02 50.85-1.85L50.85-1.85ZM61.66 4.34L61.66 4.34Q61.66 2.49 61.06 1.51Q60.46 0.53 59.22 0.53L59.22 0.53Q58.66 0.53 58.12 0.68Q57.57 0.84 57.18 1.06L57.18 1.06L57.18 8.20Q57.57 8.28 58.01 8.31Q58.44 8.34 58.75 8.34L58.75 8.34Q60.09 8.34 60.88 7.43Q61.66 6.52 61.66 4.34ZM65.16 4.42L65.16 4.42Q65.16 5.99 64.74 7.26Q64.32 8.54 63.51 9.43Q62.70 10.33 61.52 10.82Q60.34 11.31 58.83 11.31L58.83 11.31Q57.49 11.31 56.09 11.11Q54.69 10.92 53.74 10.61L53.74 10.61L53.74-7.84L57.18-8.43L57.18-1.85Q57.91-2.19 58.58-2.31Q59.25-2.44 59.92-2.44L59.92-2.44Q61.21-2.44 62.19-1.95Q63.17-1.46 63.83-0.55Q64.49 0.36 64.82 1.62Q65.16 2.88 65.16 4.42ZM66.87 4.53L66.87 4.53Q66.87 2.80 67.40 1.48Q67.93 0.16 68.80-0.72Q69.67-1.60 70.79-2.05Q71.91-2.50 73.08-2.50L73.08-2.50Q76.00-2.50 77.51-0.77Q79.02 0.95 79.02 4.25L79.02 4.25Q79.02 4.59 79.01 4.95Q78.99 5.32 78.96 5.54L78.96 5.54L70.42 5.54Q70.42 6.83 71.49 7.57Q72.55 8.31 74.23 8.31L74.23 8.31Q75.27 8.31 76.21 8.09Q77.14 7.86 77.79 7.64L77.79 7.64L78.26 10.58Q77.37 10.89 76.36 11.10Q75.35 11.31 74.09 11.31L74.09 11.31Q72.41 11.31 71.08 10.87Q69.75 10.44 68.81 9.59Q67.88 8.73 67.37 7.47Q66.87 6.21 66.87 4.53ZM70.42 3.16L75.69 3.16Q75.69 2.63 75.55 2.14Q75.41 1.65 75.10 1.26Q74.79 0.86 74.32 0.63Q73.84 0.39 73.14 0.39L73.14 0.39Q72.47 0.39 71.98 0.61Q71.49 0.84 71.17 1.23Q70.84 1.62 70.66 2.12Q70.48 2.63 70.42 3.16L70.42 3.16ZM92.85-1.85L92.24 1.34Q91.90 1.26 91.44 1.17Q90.98 1.09 90.50 1.02Q90.02 0.95 89.58 0.92Q89.13 0.89 88.82 0.89L88.82 0.89Q88.09 0.89 87.39 0.96Q86.69 1.03 85.96 1.23L85.96 1.23L85.96 11L82.49 11L82.49-1.29Q83.86-1.80 85.31-2.10Q86.75-2.41 88.68-2.41L88.68-2.41Q88.96-2.41 89.48-2.38Q90.00-2.36 90.58-2.29Q91.17-2.22 91.77-2.12Q92.38-2.02 92.85-1.85L92.85-1.85ZM120.52 11L109.51 11L109.51 8.14L113.29 8.14L113.29-3.48L109.51-3.48L109.51-6.33L120.52-6.33L120.52-3.48L116.76-3.48L116.76 8.14L120.52 8.14L120.52 11ZM131.60-2.30L131.60-2.30Q132.70-2.30 133.40-1.96Q134.10-1.63 134.50-0.96Q134.91-0.28 135.05 0.74Q135.19 1.76 135.19 3.13L135.19 3.13L135.19 11L132.39 11L132.39 2.96Q132.39 2.18 132.29 1.70Q132.19 1.23 132.04 0.98Q131.88 0.72 131.67 0.64Q131.46 0.56 131.24 0.56L131.24 0.56Q130.99 0.56 130.71 0.60Q130.43 0.64 130.20 0.75L130.20 0.75Q130.29 1.28 130.34 1.93Q130.40 2.57 130.40 3.36L130.40 3.36L130.40 5.99L127.60 5.99L127.60 2.96Q127.60 1.62 127.33 1.09Q127.07 0.56 126.48 0.56L126.48 0.56Q126.31 0.56 126.07 0.58Q125.84 0.61 125.61 0.67L125.61 0.67L125.61 11L122.81 11L122.81-1.66Q123.90-1.96 124.97-2.13Q126.03-2.30 126.84-2.30L126.84-2.30Q127.57-2.30 128.15-2.12Q128.72-1.94 129.14-1.52L129.14-1.52Q129.62-1.82 130.26-2.06Q130.90-2.30 131.60-2.30ZM143.03 8.54L143.03 8.54Q143.59 8.54 144.12 8.52Q144.65 8.51 145.04 8.45L145.04 8.45L145.04 5.43Q144.71 5.37 144.23 5.33Q143.76 5.29 143.36 5.29L143.36 5.29Q142.83 5.29 142.33 5.36Q141.82 5.43 141.45 5.60Q141.07 5.76 140.84 6.07Q140.62 6.38 140.62 6.88L140.62 6.88Q140.62 7.78 141.29 8.16Q141.96 8.54 143.03 8.54ZM142.72-2.50L142.72-2.50Q144.34-2.50 145.42-2.12Q146.50-1.74 147.14-1.05Q147.79-0.37 148.07 0.63Q148.35 1.62 148.35 2.85L148.35 2.85L148.35 10.69Q147.59 10.86 146.11 11.08Q144.62 11.31 142.78 11.31L142.78 11.31Q141.52 11.31 140.49 11.08Q139.47 10.86 138.74 10.34Q138.02 9.82 137.62 9.00Q137.23 8.17 137.23 6.97L137.23 6.97Q137.23 5.82 137.68 5.04Q138.13 4.25 138.88 3.78Q139.64 3.30 140.62 3.09Q141.60 2.88 142.66 2.88L142.66 2.88Q144.01 2.88 145.04 3.10L145.04 3.10L145.04 2.68Q145.04 1.70 144.43 1.05Q143.81 0.39 142.30 0.39L142.30 0.39Q141.32 0.39 140.41 0.53Q139.50 0.67 138.94 0.86L138.94 0.86L138.46-1.91Q139.11-2.13 140.28-2.31Q141.46-2.50 142.72-2.50ZM154.42 4L154.42 4Q154.42 5.62 155.01 6.48Q155.60 7.33 156.86 7.33L156.86 7.33Q157.42 7.33 157.91 7.19Q158.40 7.05 158.79 6.83L158.79 6.83L158.79 0.50Q158.40 0.42 158.09 0.39Q157.78 0.36 157.45 0.36L157.45 0.36Q154.42 0.36 154.42 4ZM162.26-1.74L162.26 9.40Q162.26 12.62 160.71 14.16Q159.16 15.70 155.71 15.70L155.71 15.70Q154.48 15.70 153.35 15.45Q152.21 15.20 151.18 14.86L151.18 14.86L151.82 11.95Q152.63 12.26 153.53 12.53Q154.42 12.79 155.77 12.79L155.77 12.79Q156.66 12.79 157.25 12.58Q157.84 12.37 158.18 12.01Q158.51 11.64 158.65 11.15Q158.79 10.66 158.79 10.10L158.79 10.10L158.79 9.57Q158.06 9.85 157.46 9.99Q156.86 10.13 156.16 10.13L156.16 10.13Q153.58 10.13 152.25 8.51Q150.92 6.88 150.92 4L150.92 4Q150.92 0.75 152.72-0.84Q154.51-2.44 157.59-2.44L157.59-2.44Q159.74-2.44 162.26-1.74L162.26-1.74ZM164.87 4.53L164.87 4.53Q164.87 2.80 165.40 1.48Q165.93 0.16 166.80-0.72Q167.67-1.60 168.79-2.05Q169.91-2.50 171.08-2.50L171.08-2.50Q174.00-2.50 175.51-0.77Q177.02 0.95 177.02 4.25L177.02 4.25Q177.02 4.59 177.01 4.95Q176.99 5.32 176.96 5.54L176.96 5.54L168.42 5.54Q168.42 6.83 169.49 7.57Q170.55 8.31 172.23 8.31L172.23 8.31Q173.27 8.31 174.21 8.09Q175.14 7.86 175.79 7.64L175.79 7.64L176.26 10.58Q175.37 10.89 174.36 11.10Q173.35 11.31 172.09 11.31L172.09 11.31Q170.41 11.31 169.08 10.87Q167.75 10.44 166.81 9.59Q165.88 8.73 165.37 7.47Q164.87 6.21 164.87 4.53ZM168.42 3.16L173.69 3.16Q173.69 2.63 173.55 2.14Q173.41 1.65 173.10 1.26Q172.79 0.86 172.32 0.63Q171.84 0.39 171.14 0.39L171.14 0.39Q170.47 0.39 169.98 0.61Q169.49 0.84 169.17 1.23Q168.84 1.62 168.66 2.12Q168.48 2.63 168.42 3.16L168.42 3.16Z"/>
    </g>
</svg>