<?xml version="1.0" encoding="UTF-8"?>
<svg height="34" width="150.89999999999998" version="1.1" xmlns="http://www.w3.org/2000/svg"><!--Created by Josélio de S. C. Júnior - 2021 - https://github.com/joseliojunior -->
    <rect
        height="32"
        width="148.89999999999998"
        rx="1"
        ry="1"
        x="1" y="1"
        fill="#FF5000"
        stroke="#662000"
        stroke-width="1" />
    <g transform="translate(0, 12)">
        <path fill="#662000" stroke="none" d="M31.26 7.51L31.26 7.51Q31.26 8.86 30.80 9.76Q30.34 10.66 29.56 11.20Q28.78 11.74 27.72 11.96Q26.65 12.19 25.42 12.19L25.42 12.19Q24.44 12.19 23.38 12.08Q22.33 11.98 21.30 11.76L21.30 11.76L21.30-2.66Q22.14-2.81 23.14-2.92Q24.15-3.02 25.14-3.02L25.14-3.02Q26.82-3.02 27.87-2.68Q28.93-2.33 29.53-1.76Q30.13-1.20 30.34-0.50Q30.56 0.19 30.56 0.89L30.56 0.89Q30.56 1.94 30.04 2.76Q29.53 3.58 28.66 4.06L28.66 4.06Q30.18 4.61 30.72 5.54Q31.26 6.48 31.26 7.51ZM25.83 5.50L24.25 5.50L24.25 9.53Q24.56 9.58 24.93 9.60Q25.30 9.62 25.66 9.62L25.66 9.62Q26.17 9.62 26.65 9.54Q27.13 9.46 27.50 9.23Q27.87 9 28.11 8.58Q28.35 8.16 28.35 7.51L28.35 7.51Q28.35 6.43 27.67 5.96Q26.98 5.50 25.83 5.50L25.83 5.50ZM24.25 3.05L25.40 3.05Q26.53 3.05 27.10 2.56Q27.68 2.06 27.68 1.20L27.68 1.20Q27.68 0.67 27.51 0.35Q27.34 0.02 27.06-0.16Q26.77-0.34 26.38-0.40Q26-0.46 25.59-0.46L25.59-0.46Q25.26-0.46 24.90-0.43Q24.54-0.41 24.25-0.36L24.25-0.36L24.25 3.05ZM38.02 9.89L38.02 9.89Q38.50 9.89 38.96 9.88Q39.42 9.86 39.75 9.82L39.75 9.82L39.75 7.22Q39.46 7.18 39.06 7.14Q38.65 7.10 38.31 7.10L38.31 7.10Q37.86 7.10 37.42 7.16Q36.99 7.22 36.67 7.37Q36.34 7.51 36.15 7.78Q35.96 8.04 35.96 8.47L35.96 8.47Q35.96 9.24 36.54 9.56Q37.11 9.89 38.02 9.89ZM37.76 0.43L37.76 0.43Q39.15 0.43 40.08 0.76Q41 1.08 41.55 1.67Q42.10 2.26 42.34 3.11Q42.58 3.96 42.58 5.02L42.58 5.02L42.58 11.74Q41.94 11.88 40.66 12.07Q39.39 12.26 37.81 12.26L37.81 12.26Q36.73 12.26 35.85 12.07Q34.98 11.88 34.35 11.44Q33.73 10.99 33.39 10.28Q33.06 9.58 33.06 8.54L33.06 8.54Q33.06 7.56 33.44 6.89Q33.82 6.22 34.47 5.81Q35.12 5.40 35.96 5.22Q36.80 5.04 37.71 5.04L37.71 5.04Q38.86 5.04 39.75 5.23L39.75 5.23L39.75 4.87Q39.75 4.03 39.22 3.47Q38.70 2.90 37.40 2.90L37.40 2.90Q36.56 2.90 35.78 3.02Q35 3.14 34.52 3.31L34.52 3.31L34.11 0.94Q34.66 0.74 35.67 0.59Q36.68 0.43 37.76 0.43ZM54.82 9.14L55.21 11.52Q55.14 11.57 54.88 11.69Q54.63 11.81 54.22 11.94Q53.82 12.07 53.23 12.17Q52.64 12.26 51.90 12.26L51.90 12.26Q49.86 12.26 48.92 11.05Q47.98 9.84 47.98 7.51L47.98 7.51L47.98-2.06L44.86-2.06L44.86-4.51L50.94-4.51L50.94 7.73Q50.94 8.88 51.39 9.29Q51.85 9.70 52.54 9.70L52.54 9.70Q53.43 9.70 54.03 9.46Q54.63 9.22 54.82 9.14L54.82 9.14ZM66.82 9.14L67.21 11.52Q67.14 11.57 66.88 11.69Q66.63 11.81 66.22 11.94Q65.82 12.07 65.23 12.17Q64.64 12.26 63.90 12.26L63.90 12.26Q61.86 12.26 60.92 11.05Q59.98 9.84 59.98 7.51L59.98 7.51L59.98-2.06L56.86-2.06L56.86-4.51L62.94-4.51L62.94 7.73Q62.94 8.88 63.39 9.29Q63.85 9.70 64.54 9.70L64.54 9.70Q65.43 9.70 66.03 9.46Q66.63 9.22 66.82 9.14L66.82 9.14ZM68.74 6.46L68.74 6.46Q68.74 4.97 69.20 3.84Q69.66 2.71 70.40 1.96Q71.14 1.20 72.10 0.82Q73.06 0.43 74.07 0.43L74.07 0.43Q76.57 0.43 77.86 1.91Q79.16 3.38 79.16 6.22L79.16 6.22Q79.16 6.50 79.15 6.82Q79.14 7.13 79.11 7.32L79.11 7.32L71.79 7.32Q71.79 8.42 72.70 9.06Q73.62 9.70 75.06 9.70L75.06 9.70Q75.94 9.70 76.75 9.50Q77.55 9.31 78.10 9.12L78.10 9.12L78.51 11.64Q77.74 11.90 76.88 12.08Q76.02 12.26 74.94 12.26L74.94 12.26Q73.50 12.26 72.36 11.89Q71.22 11.52 70.41 10.79Q69.61 10.06 69.18 8.98Q68.74 7.90 68.74 6.46ZM71.79 5.28L76.30 5.28Q76.30 4.82 76.18 4.40Q76.06 3.98 75.80 3.65Q75.54 3.31 75.13 3.11Q74.72 2.90 74.12 2.90L74.12 2.90Q73.54 2.90 73.12 3.10Q72.70 3.29 72.43 3.62Q72.15 3.96 72.00 4.39Q71.84 4.82 71.79 5.28L71.79 5.28ZM91.02 0.98L90.49 3.72Q90.20 3.65 89.80 3.58Q89.41 3.50 89 3.44Q88.59 3.38 88.21 3.36Q87.82 3.34 87.56 3.34L87.56 3.34Q86.94 3.34 86.34 3.40Q85.74 3.46 85.11 3.62L85.11 3.62L85.11 12L82.14 12L82.14 1.46Q83.31 1.03 84.55 0.77Q85.78 0.50 87.44 0.50L87.44 0.50Q87.68 0.50 88.12 0.53Q88.57 0.55 89.07 0.61Q89.58 0.67 90.09 0.76Q90.61 0.84 91.02 0.98L91.02 0.98ZM98.82-2.52L98.82-2.52Q98.82-1.66 98.26-1.15Q97.71-0.65 96.94-0.65L96.94-0.65Q96.18-0.65 95.64-1.15Q95.10-1.66 95.10-2.52L95.10-2.52Q95.10-3.41 95.64-3.91Q96.18-4.42 96.94-4.42L96.94-4.42Q97.71-4.42 98.26-3.91Q98.82-3.41 98.82-2.52ZM102.82 9.14L103.21 11.52Q102.30 11.95 101.49 12.11Q100.69 12.26 100.02 12.26L100.02 12.26Q98.86 12.26 98.08 11.93Q97.30 11.59 96.84 10.96Q96.37 10.32 96.18 9.41Q95.98 8.50 95.98 7.32L95.98 7.32L95.98 3.17L92.86 3.17L92.86 0.72L98.94 0.72L98.94 7.70Q98.94 8.71 99.31 9.20Q99.68 9.70 100.54 9.70L100.54 9.70Q100.95 9.70 101.53 9.59Q102.10 9.48 102.82 9.14L102.82 9.14ZM105.51 12L105.51 1.08Q106.30 0.86 107.47 0.67Q108.63 0.48 110 0.48L110 0.48Q111.34 0.48 112.23 0.85Q113.12 1.22 113.64 1.91Q114.15 2.59 114.37 3.54Q114.58 4.49 114.58 5.64L114.58 5.64L114.58 12L111.63 12L111.63 6.02Q111.63 4.44 111.27 3.74Q110.91 3.05 109.81 3.05L109.81 3.05Q109.47 3.05 109.15 3.07Q108.82 3.10 108.46 3.14L108.46 3.14L108.46 12L105.51 12ZM122.02 9.89L122.02 9.89Q122.50 9.89 122.96 9.88Q123.42 9.86 123.75 9.82L123.75 9.82L123.75 7.22Q123.46 7.18 123.06 7.14Q122.65 7.10 122.31 7.10L122.31 7.10Q121.86 7.10 121.42 7.16Q120.99 7.22 120.67 7.37Q120.34 7.51 120.15 7.78Q119.96 8.04 119.96 8.47L119.96 8.47Q119.96 9.24 120.54 9.56Q121.11 9.89 122.02 9.89ZM121.76 0.43L121.76 0.43Q123.15 0.43 124.08 0.76Q125 1.08 125.55 1.67Q126.10 2.26 126.34 3.11Q126.58 3.96 126.58 5.02L126.58 5.02L126.58 11.74Q125.94 11.88 124.66 12.07Q123.39 12.26 121.81 12.26L121.81 12.26Q120.73 12.26 119.85 12.07Q118.98 11.88 118.35 11.44Q117.73 10.99 117.39 10.28Q117.06 9.58 117.06 8.54L117.06 8.54Q117.06 7.56 117.44 6.89Q117.82 6.22 118.47 5.81Q119.12 5.40 119.96 5.22Q120.80 5.04 121.71 5.04L121.71 5.04Q122.86 5.04 123.75 5.23L123.75 5.23L123.75 4.87Q123.75 4.03 123.22 3.47Q122.70 2.90 121.40 2.90L121.40 2.90Q120.56 2.90 119.78 3.02Q119 3.14 118.52 3.31L118.52 3.31L118.11 0.94Q118.66 0.74 119.67 0.59Q120.68 0.43 121.76 0.43Z"/>
    </g>
</svg>