<?xml version="1.0" encoding="UTF-8"?>
<svg height="34" width="102.5" version="1.1" xmlns="http://www.w3.org/2000/svg"><!--Created by Josélio de S. C. Júnior - 2021 - https://github.com/joseliojunior -->
    <rect
        height="32"
        width="100.5"
        rx="1"
        ry="1"
        x="1" y="1"
        fill="#b30000"
        stroke="#190000"
        stroke-width="1" />
    <g transform="translate(0, 12)">
        <path fill="#190000" stroke="none" d="M30.73 12L21.30 12L21.30 9.55L24.54 9.55L24.54-0.41L21.30-0.41L21.30-2.86L30.73-2.86L30.73-0.41L27.51-0.41L27.51 9.55L30.73 9.55L30.73 12ZM35.67 6.29L35.67 6.29Q35.67 7.80 36.24 8.76Q36.80 9.72 38.05 9.72L38.05 9.72Q38.41 9.72 38.72 9.70Q39.03 9.67 39.37 9.62L39.37 9.62L39.37 3.48Q39.03 3.29 38.60 3.16Q38.17 3.02 37.69 3.02L37.69 3.02Q36.63 3.02 36.15 3.86Q35.67 4.70 35.67 6.29ZM42.32-4.66L42.32 11.66Q41.50 11.93 40.33 12.10Q39.15 12.26 38.02 12.26L38.02 12.26Q35.38 12.26 34.03 10.70Q32.67 9.14 32.67 6.43L32.67 6.43Q32.67 3.67 33.81 2.08Q34.95 0.48 37.18 0.48L37.18 0.48Q37.78 0.48 38.36 0.61Q38.94 0.74 39.37 0.98L39.37 0.98L39.37-4.15L42.32-4.66ZM55.02 0.98L54.49 3.72Q54.20 3.65 53.80 3.58Q53.41 3.50 53 3.44Q52.59 3.38 52.21 3.36Q51.82 3.34 51.56 3.34L51.56 3.34Q50.94 3.34 50.34 3.40Q49.74 3.46 49.11 3.62L49.11 3.62L49.11 12L46.14 12L46.14 1.46Q47.31 1.03 48.55 0.77Q49.78 0.50 51.44 0.50L51.44 0.50Q51.68 0.50 52.12 0.53Q52.57 0.55 53.07 0.61Q53.58 0.67 54.09 0.76Q54.61 0.84 55.02 0.98L55.02 0.98ZM62.82-2.52L62.82-2.52Q62.82-1.66 62.26-1.15Q61.71-0.65 60.94-0.65L60.94-0.65Q60.18-0.65 59.64-1.15Q59.10-1.66 59.10-2.52L59.10-2.52Q59.10-3.41 59.64-3.91Q60.18-4.42 60.94-4.42L60.94-4.42Q61.71-4.42 62.26-3.91Q62.82-3.41 62.82-2.52ZM66.82 9.14L67.21 11.52Q66.30 11.95 65.49 12.11Q64.69 12.26 64.02 12.26L64.02 12.26Q62.86 12.26 62.08 11.93Q61.30 11.59 60.84 10.96Q60.37 10.32 60.18 9.41Q59.98 8.50 59.98 7.32L59.98 7.32L59.98 3.17L56.86 3.17L56.86 0.72L62.94 0.72L62.94 7.70Q62.94 8.71 63.31 9.20Q63.68 9.70 64.54 9.70L64.54 9.70Q64.95 9.70 65.53 9.59Q66.10 9.48 66.82 9.14L66.82 9.14ZM73.47 9.77L73.47 9.77Q74.55 9.77 75.13 9.61Q75.70 9.46 75.70 8.98L75.70 8.98Q75.70 8.66 75.52 8.45Q75.34 8.23 75.02 8.08Q74.70 7.92 74.28 7.78Q73.86 7.63 73.40 7.49L73.40 7.49Q72.75 7.30 72.08 7.04Q71.41 6.79 70.86 6.41Q70.30 6.02 69.94 5.44Q69.58 4.85 69.58 3.96L69.58 3.96Q69.58 3.24 69.86 2.60Q70.14 1.97 70.72 1.48Q71.31 0.98 72.22 0.71Q73.14 0.43 74.41 0.43L74.41 0.43Q75.51 0.43 76.46 0.60Q77.41 0.77 78.10 1.08L78.10 1.08L77.65 3.58Q77.24 3.46 76.38 3.18Q75.51 2.90 74.43 2.90L74.43 2.90Q73.30 2.90 72.91 3.18Q72.51 3.46 72.51 3.77L72.51 3.77Q72.51 4.03 72.69 4.24Q72.87 4.44 73.17 4.61Q73.47 4.78 73.87 4.93Q74.26 5.09 74.72 5.23L74.72 5.23Q75.37 5.45 76.06 5.71Q76.76 5.98 77.32 6.37Q77.89 6.77 78.25 7.38Q78.61 7.99 78.61 8.88L78.61 8.88Q78.61 9.58 78.34 10.20Q78.08 10.82 77.47 11.28Q76.86 11.74 75.87 12Q74.89 12.26 73.45 12.26L73.45 12.26Q71.98 12.26 70.95 11.93Q69.92 11.59 69.30 11.33L69.30 11.33L69.75 8.86Q70.59 9.19 71.54 9.48Q72.49 9.77 73.47 9.77Z"/>
    </g>
</svg>