<?xml version="1.0" encoding="UTF-8"?>
<svg height="34" width="64.3" version="1.1" xmlns="http://www.w3.org/2000/svg">
    <rect
        height="32"
        width="62.3"
        rx="1"
        ry="1"
        x="1"
        y="1"
        fill="#64b970"
        stroke="#295b30"
        stroke-width="1"
         />
    <g transform="translate(0, 14)">
        <path fill="#295b30" d="M16.38 8.40L16.38 8.40Q17.64 8.40 18.32 8.21Q18.99 8.03 18.99 7.47L18.99 7.47Q18.99 7.11 18.78 6.86Q18.57 6.60 18.19 6.42Q17.81 6.24 17.32 6.07Q16.83 5.90 16.30 5.74L16.30 5.74Q15.54 5.51 14.76 5.22Q13.98 4.92 13.33 4.48Q12.69 4.03 12.27 3.34Q11.85 2.66 11.85 1.62L11.85 1.62Q11.85 0.78 12.17 0.04Q12.49-0.70 13.18-1.28Q13.86-1.85 14.93-2.17Q15.99-2.50 17.48-2.50L17.48-2.50Q18.76-2.50 19.87-2.30Q20.98-2.10 21.79-1.74L21.79-1.74L21.26 1.17Q20.78 1.03 19.77 0.71Q18.76 0.39 17.50 0.39L17.50 0.39Q16.19 0.39 15.73 0.71Q15.26 1.03 15.26 1.40L15.26 1.40Q15.26 1.70 15.47 1.94Q15.68 2.18 16.03 2.38Q16.38 2.57 16.85 2.75Q17.31 2.94 17.84 3.10L17.84 3.10Q18.60 3.36 19.41 3.66Q20.22 3.97 20.88 4.43Q21.54 4.90 21.96 5.61Q22.38 6.32 22.38 7.36L22.38 7.36Q22.38 8.17 22.07 8.90Q21.76 9.63 21.05 10.16Q20.33 10.69 19.18 11Q18.04 11.31 16.36 11.31L16.36 11.31Q14.65 11.31 13.44 10.92Q12.24 10.52 11.51 10.22L11.51 10.22L12.04 7.33Q13.02 7.72 14.13 8.06Q15.24 8.40 16.38 8.40ZM24.87 4.53L24.87 4.53Q24.87 2.80 25.40 1.48Q25.93 0.16 26.80-0.72Q27.67-1.60 28.79-2.05Q29.91-2.50 31.08-2.50L31.08-2.50Q34.00-2.50 35.51-0.77Q37.02 0.95 37.02 4.25L37.02 4.25Q37.02 4.59 37.01 4.95Q36.99 5.32 36.96 5.54L36.96 5.54L28.42 5.54Q28.42 6.83 29.49 7.57Q30.55 8.31 32.23 8.31L32.23 8.31Q33.27 8.31 34.21 8.09Q35.14 7.86 35.79 7.64L35.79 7.64L36.26 10.58Q35.37 10.89 34.36 11.10Q33.35 11.31 32.09 11.31L32.09 11.31Q30.41 11.31 29.08 10.87Q27.75 10.44 26.81 9.59Q25.88 8.73 25.37 7.47Q24.87 6.21 24.87 4.53ZM28.42 3.16L33.69 3.16Q33.69 2.63 33.55 2.14Q33.41 1.65 33.10 1.26Q32.79 0.86 32.32 0.63Q31.84 0.39 31.14 0.39L31.14 0.39Q30.47 0.39 29.98 0.61Q29.49 0.84 29.17 1.23Q28.84 1.62 28.66 2.12Q28.48 2.63 28.42 3.16L28.42 3.16ZM42.28 4.34L42.28 4.34Q42.28 6.10 42.94 7.22Q43.60 8.34 45.06 8.34L45.06 8.34Q45.48 8.34 45.84 8.31Q46.20 8.28 46.60 8.23L46.60 8.23L46.60 1.06Q46.20 0.84 45.70 0.68Q45.20 0.53 44.64 0.53L44.64 0.53Q43.40 0.53 42.84 1.51Q42.28 2.49 42.28 4.34ZM50.04-8.43L50.04 10.61Q49.09 10.92 47.72 11.11Q46.34 11.31 45.03 11.31L45.03 11.31Q41.95 11.31 40.37 9.49Q38.78 7.67 38.78 4.50L38.78 4.50Q38.78 1.28 40.11-0.58Q41.44-2.44 44.05-2.44L44.05-2.44Q44.75-2.44 45.42-2.29Q46.09-2.13 46.60-1.85L46.60-1.85L46.60-7.84L50.04-8.43Z"/>
    </g>
</svg>