<?xml version="1.0" encoding="UTF-8"?>
<svg height="34" width="199.29999999999998" version="1.1" xmlns="http://www.w3.org/2000/svg"><!--Created by Josélio de S. C. Júnior - 2021 - https://github.com/joseliojunior -->
    <rect
        height="32"
        width="197.29999999999998"
        rx="16"
        ry="16"
        x="1" y="1"
        fill="#6866fb"
        stroke="#060490"
        stroke-width="1" />
    <g transform="translate(0, 12)">
        <path fill="#060490" d="M23.65 4.56L23.65 4.56Q23.65 5.64 23.73 6.59Q23.82 7.54 24.07 8.23Q24.32 8.93 24.78 9.34Q25.23 9.74 26 9.74L26 9.74Q26.74 9.74 27.21 9.34Q27.68 8.93 27.93 8.22Q28.18 7.51 28.27 6.58Q28.35 5.64 28.35 4.56L28.35 4.56Q28.35 3.48 28.27 2.53Q28.18 1.58 27.93 0.89Q27.68 0.19 27.22-0.22Q26.77-0.62 26-0.62L26-0.62Q25.23-0.62 24.78-0.22Q24.32 0.19 24.07 0.90Q23.82 1.61 23.73 2.54Q23.65 3.48 23.65 4.56ZM20.65 4.56L20.65 4.56Q20.65 0.72 22.06-1.24Q23.48-3.19 26-3.19L26-3.19Q28.62-3.19 29.98-1.24Q31.35 0.72 31.35 4.56L31.35 4.56Q31.35 8.40 29.96 10.36Q28.57 12.31 26.02 12.31L26.02 12.31Q23.41 12.31 22.03 10.36Q20.65 8.40 20.65 4.56ZM40.28 6.29L40.28 6.29Q40.28 4.70 39.76 3.86Q39.25 3.02 38.19 3.02L38.19 3.02Q37.71 3.02 37.24 3.16Q36.78 3.29 36.44 3.48L36.44 3.48L36.44 9.60Q36.78 9.67 37.15 9.70Q37.52 9.72 37.78 9.72L37.78 9.72Q38.94 9.72 39.61 8.94Q40.28 8.16 40.28 6.29ZM43.28 6.36L43.28 6.36Q43.28 7.70 42.92 8.80Q42.56 9.89 41.86 10.66Q41.17 11.42 40.16 11.84Q39.15 12.26 37.86 12.26L37.86 12.26Q36.70 12.26 35.50 12.10Q34.30 11.93 33.49 11.66L33.49 11.66L33.49-4.15L36.44-4.66L36.44 0.98Q37.06 0.70 37.64 0.59Q38.22 0.48 38.79 0.48L38.79 0.48Q39.90 0.48 40.74 0.90Q41.58 1.32 42.14 2.10Q42.70 2.88 42.99 3.96Q43.28 5.04 43.28 6.36ZM53.60 0.72L53.60 11.26Q53.60 12.62 53.26 13.55Q52.93 14.47 52.34 15.04Q51.75 15.60 50.95 15.84Q50.14 16.08 49.21 16.08L49.21 16.08Q48.06 16.08 47.07 15.79Q46.09 15.50 45.18 15.05L45.18 15.05L46.09 12.55Q46.69 12.89 47.54 13.19Q48.39 13.49 49.09 13.49L49.09 13.49Q49.83 13.49 50.24 13.04Q50.65 12.60 50.65 11.40L50.65 11.40L50.65 3.17L46.09 3.17L46.09 0.72L53.60 0.72ZM53.24-2.52L53.24-2.52Q53.24-1.66 52.69-1.15Q52.14-0.65 51.37-0.65L51.37-0.65Q50.60-0.65 50.06-1.15Q49.52-1.66 49.52-2.52L49.52-2.52Q49.52-3.41 50.06-3.91Q50.60-4.42 51.37-4.42L51.37-4.42Q52.14-4.42 52.69-3.91Q53.24-3.41 53.24-2.52ZM56.74 6.46L56.74 6.46Q56.74 4.97 57.20 3.84Q57.66 2.71 58.40 1.96Q59.14 1.20 60.10 0.82Q61.06 0.43 62.07 0.43L62.07 0.43Q64.57 0.43 65.86 1.91Q67.16 3.38 67.16 6.22L67.16 6.22Q67.16 6.50 67.15 6.82Q67.14 7.13 67.11 7.32L67.11 7.32L59.79 7.32Q59.79 8.42 60.70 9.06Q61.62 9.70 63.06 9.70L63.06 9.70Q63.94 9.70 64.75 9.50Q65.55 9.31 66.10 9.12L66.10 9.12L66.51 11.64Q65.74 11.90 64.88 12.08Q64.02 12.26 62.94 12.26L62.94 12.26Q61.50 12.26 60.36 11.89Q59.22 11.52 58.41 10.79Q57.61 10.06 57.18 8.98Q56.74 7.90 56.74 6.46ZM59.79 5.28L64.30 5.28Q64.30 4.82 64.18 4.40Q64.06 3.98 63.80 3.65Q63.54 3.31 63.13 3.11Q62.72 2.90 62.12 2.90L62.12 2.90Q61.54 2.90 61.12 3.10Q60.70 3.29 60.43 3.62Q60.15 3.96 60.00 4.39Q59.84 4.82 59.79 5.28L59.79 5.28ZM69.06 6.36L69.06 6.36Q69.06 5.14 69.44 4.06Q69.82 2.98 70.62 2.17Q71.41 1.37 72.62 0.90Q73.83 0.43 75.51 0.43L75.51 0.43Q76.52 0.43 77.34 0.58Q78.15 0.72 78.99 1.06L78.99 1.06L78.34 3.43Q77.86 3.26 77.28 3.13Q76.69 3 75.78 3L75.78 3Q74.72 3 74.01 3.25Q73.30 3.50 72.87 3.95Q72.44 4.39 72.25 5.02Q72.06 5.64 72.06 6.36L72.06 6.36Q72.06 7.92 72.93 8.81Q73.81 9.70 75.92 9.70L75.92 9.70Q76.62 9.70 77.37 9.60Q78.13 9.50 78.75 9.29L78.75 9.29L79.18 11.71Q78.56 11.95 77.67 12.11Q76.78 12.26 75.58 12.26L75.58 12.26Q73.86 12.26 72.62 11.81Q71.38 11.35 70.59 10.56Q69.80 9.77 69.43 8.69Q69.06 7.61 69.06 6.36ZM83.43 7.80L83.43 3.17L80.86 3.17L80.86 0.72L83.43 0.72L83.43-2.11L86.38-2.59L86.38 0.72L91.11 0.72L91.11 3.17L86.38 3.17L86.38 7.73Q86.38 8.35 86.50 8.74Q86.62 9.12 86.84 9.34Q87.06 9.55 87.37 9.62Q87.68 9.70 88.06 9.70L88.06 9.70Q88.47 9.70 88.82 9.67Q89.17 9.65 89.49 9.59Q89.82 9.53 90.16 9.41Q90.51 9.29 90.92 9.10L90.92 9.10L91.33 11.64Q90.51 11.98 89.56 12.12Q88.62 12.26 87.73 12.26L87.73 12.26Q86.70 12.26 85.90 12.10Q85.11 11.93 84.56 11.45Q84.01 10.97 83.72 10.09Q83.43 9.22 83.43 7.80L83.43 7.80ZM98.82-2.52L98.82-2.52Q98.82-1.66 98.26-1.15Q97.71-0.65 96.94-0.65L96.94-0.65Q96.18-0.65 95.64-1.15Q95.10-1.66 95.10-2.52L95.10-2.52Q95.10-3.41 95.64-3.91Q96.18-4.42 96.94-4.42L96.94-4.42Q97.71-4.42 98.26-3.91Q98.82-3.41 98.82-2.52ZM102.82 9.14L103.21 11.52Q102.30 11.95 101.49 12.11Q100.69 12.26 100.02 12.26L100.02 12.26Q98.86 12.26 98.08 11.93Q97.30 11.59 96.84 10.96Q96.37 10.32 96.18 9.41Q95.98 8.50 95.98 7.32L95.98 7.32L95.98 3.17L92.86 3.17L92.86 0.72L98.94 0.72L98.94 7.70Q98.94 8.71 99.31 9.20Q99.68 9.70 100.54 9.70L100.54 9.70Q100.95 9.70 101.53 9.59Q102.10 9.48 102.82 9.14L102.82 9.14ZM111.13 12L108.66 12Q107.58 9.86 106.46 7.00Q105.34 4.13 104.34 0.72L104.34 0.72L107.43 0.72Q107.65 1.63 107.95 2.66Q108.25 3.70 108.58 4.74Q108.92 5.78 109.27 6.77Q109.62 7.75 109.93 8.57L109.93 8.57Q110.24 7.75 110.62 6.77Q111.01 5.78 111.38 4.74Q111.75 3.70 112.10 2.66Q112.45 1.63 112.66 0.72L112.66 0.72L115.66 0.72Q114.66 4.13 113.43 7.00Q112.21 9.86 111.13 12L111.13 12ZM116.74 6.46L116.74 6.46Q116.74 4.97 117.20 3.84Q117.66 2.71 118.40 1.96Q119.14 1.20 120.10 0.82Q121.06 0.43 122.07 0.43L122.07 0.43Q124.57 0.43 125.86 1.91Q127.16 3.38 127.16 6.22L127.16 6.22Q127.16 6.50 127.15 6.82Q127.14 7.13 127.11 7.32L127.11 7.32L119.79 7.32Q119.79 8.42 120.70 9.06Q121.62 9.70 123.06 9.70L123.06 9.70Q123.94 9.70 124.75 9.50Q125.55 9.31 126.10 9.12L126.10 9.12L126.51 11.64Q125.74 11.90 124.88 12.08Q124.02 12.26 122.94 12.26L122.94 12.26Q121.50 12.26 120.36 11.89Q119.22 11.52 118.41 10.79Q117.61 10.06 117.18 8.98Q116.74 7.90 116.74 6.46ZM119.79 5.28L124.30 5.28Q124.30 4.82 124.18 4.40Q124.06 3.98 123.80 3.65Q123.54 3.31 123.13 3.11Q122.72 2.90 122.12 2.90L122.12 2.90Q121.54 2.90 121.12 3.10Q120.70 3.29 120.43 3.62Q120.15 3.96 120.00 4.39Q119.84 4.82 119.79 5.28L119.79 5.28ZM130.71 7.30L130.71 4.39L137.29 4.39L137.29 7.30L130.71 7.30ZM147.10 12.31L147.10 12.31Q143.96 12.31 142.30 10.30Q140.65 8.28 140.65 4.56L140.65 4.56Q140.65 2.71 141.15 1.27Q141.66-0.17 142.56-1.16Q143.46-2.16 144.69-2.68Q145.93-3.19 147.39-3.19L147.39-3.19Q148.18-3.19 148.82-3.06Q149.46-2.93 149.94-2.76Q150.42-2.59 150.74-2.40Q151.06-2.21 151.23-2.11L151.23-2.11L150.46 0.24Q149.91-0.12 149.13-0.37Q148.35-0.62 147.34-0.62L147.34-0.62Q146.65-0.62 145.99-0.37Q145.33-0.12 144.81 0.47Q144.30 1.06 143.97 2.04Q143.65 3.02 143.65 4.49L143.65 4.49Q143.65 7.03 144.52 8.39Q145.40 9.74 147.39 9.74L147.39 9.74Q148.54 9.74 149.30 9.48Q150.06 9.22 150.51 8.95L150.51 8.95L151.26 11.28Q150.63 11.66 149.56 11.99Q148.50 12.31 147.10 12.31ZM152.96 6.91L152.96 4.49L156.73 4.49L156.73 0.31L159.27 0.31L159.27 4.49L163.04 4.49L163.04 6.91L159.27 6.91L159.27 11.09L156.73 11.09L156.73 6.91L152.96 6.91ZM164.96 6.91L164.96 4.49L168.73 4.49L168.73 0.31L171.27 0.31L171.27 4.49L175.04 4.49L175.04 6.91L171.27 6.91L171.27 11.09L168.73 11.09L168.73 6.91L164.96 6.91Z"/>
    </g>
</svg>