<?xml version="1.0" encoding="UTF-8"?>
<svg height="34" width="78.3" version="1.1" xmlns="http://www.w3.org/2000/svg">
    <rect
        height="32"
        width="76.3"
        rx="16"
        ry="16"
        x="1"
        y="1"
        fill="#009917"
        stroke="#33ff52"
        stroke-width="1"
         />
    <g transform="translate(0, 12)">
        <path fill="#33ff52" d="M30.90 12L28.52 12Q27.51 9.53 26.32 7.07Q25.14 4.61 23.77 2.14L23.77 2.14L23.77 12L21.10 12L21.10-2.86L23.48-2.86Q24.15-1.80 24.82-0.56Q25.50 0.67 26.13 1.90Q26.77 3.12 27.31 4.27Q27.85 5.42 28.23 6.29L28.23 6.29L28.23-2.86L30.90-2.86L30.90 12ZM38.82-2.52L38.82-2.52Q38.82-1.66 38.26-1.15Q37.71-0.65 36.94-0.65L36.94-0.65Q36.18-0.65 35.64-1.15Q35.10-1.66 35.10-2.52L35.10-2.52Q35.10-3.41 35.64-3.91Q36.18-4.42 36.94-4.42L36.94-4.42Q37.71-4.42 38.26-3.91Q38.82-3.41 38.82-2.52ZM42.82 9.14L43.21 11.52Q42.30 11.95 41.49 12.11Q40.69 12.26 40.02 12.26L40.02 12.26Q38.86 12.26 38.08 11.93Q37.30 11.59 36.84 10.96Q36.37 10.32 36.18 9.41Q35.98 8.50 35.98 7.32L35.98 7.32L35.98 3.17L32.86 3.17L32.86 0.72L38.94 0.72L38.94 7.70Q38.94 8.71 39.31 9.20Q39.68 9.70 40.54 9.70L40.54 9.70Q40.95 9.70 41.53 9.59Q42.10 9.48 42.82 9.14L42.82 9.14ZM47.43 7.80L47.43 3.17L44.86 3.17L44.86 0.72L47.43 0.72L47.43-2.11L50.38-2.59L50.38 0.72L55.11 0.72L55.11 3.17L50.38 3.17L50.38 7.73Q50.38 8.35 50.50 8.74Q50.62 9.12 50.84 9.34Q51.06 9.55 51.37 9.62Q51.68 9.70 52.06 9.70L52.06 9.70Q52.47 9.70 52.82 9.67Q53.17 9.65 53.49 9.59Q53.82 9.53 54.16 9.41Q54.51 9.29 54.92 9.10L54.92 9.10L55.33 11.64Q54.51 11.98 53.56 12.12Q52.62 12.26 51.73 12.26L51.73 12.26Q50.70 12.26 49.90 12.10Q49.11 11.93 48.56 11.45Q48.01 10.97 47.72 10.09Q47.43 9.22 47.43 7.80L47.43 7.80Z"/>
    </g>
</svg>