<?xml version="1.0" encoding="UTF-8"?>
<svg height="34" width="187.2" version="1.1" xmlns="http://www.w3.org/2000/svg"><!--Created by Josélio de S. C. Júnior - 2021 - https://github.com/joseliojunior -->
    <defs>
        <pattern id="pattern"
                x="3" y="3" width="6" height="6"
                patternUnits="userSpaceOnUse"
                patternTransform="rotate(45)" >
            <rect height="6" width="6"
                fill="#ffffff"/>
            <line x1="0" y1="0" x2="0" y2="6"
                stroke="#888888"
                stroke-width="2" />
        </pattern>
    </defs>
    <rect
        height="32"
        width="185.2"
        rx="16"
        ry="16"
        x="1" y="1"
        fill="url(#pattern)"
        stroke="#000000"
        stroke-width="1" />
    <g transform="translate(0, 12)">
        <path fill="#ffffff" stroke="#000000" d="M27.10 12.31L27.10 12.31Q23.96 12.31 22.30 10.30Q20.65 8.28 20.65 4.56L20.65 4.56Q20.65 2.71 21.15 1.27Q21.66-0.17 22.56-1.16Q23.46-2.16 24.69-2.68Q25.93-3.19 27.39-3.19L27.39-3.19Q28.18-3.19 28.82-3.06Q29.46-2.93 29.94-2.76Q30.42-2.59 30.74-2.40Q31.06-2.21 31.23-2.11L31.23-2.11L30.46 0.24Q29.91-0.12 29.13-0.37Q28.35-0.62 27.34-0.62L27.34-0.62Q26.65-0.62 25.99-0.37Q25.33-0.12 24.81 0.47Q24.30 1.06 23.97 2.04Q23.65 3.02 23.65 4.49L23.65 4.49Q23.65 7.03 24.52 8.39Q25.40 9.74 27.39 9.74L27.39 9.74Q28.54 9.74 29.30 9.48Q30.06 9.22 30.51 8.95L30.51 8.95L31.26 11.28Q30.63 11.66 29.56 11.99Q28.50 12.31 27.10 12.31ZM42.42 1.06L42.42 1.06Q42.42 1.82 42.13 2.53Q41.84 3.24 41.36 3.91Q40.88 4.58 40.28 5.21Q39.68 5.83 39.06 6.41L39.06 6.41Q38.74 6.70 38.34 7.09Q37.93 7.49 37.57 7.91Q37.21 8.33 36.96 8.76Q36.70 9.19 36.70 9.55L36.70 9.55L43.09 9.55L43.09 12L33.39 12Q33.32 11.76 33.33 11.40Q33.34 11.04 33.34 10.90L33.34 10.90Q33.34 9.70 33.79 8.69Q34.23 7.68 34.92 6.83Q35.60 5.98 36.38 5.24Q37.16 4.51 37.84 3.84Q38.53 3.17 38.97 2.54Q39.42 1.92 39.42 1.27L39.42 1.27Q39.42 0.36 38.86-0.13Q38.31-0.62 37.47-0.62L37.47-0.62Q36.78-0.62 36.01-0.29Q35.24 0.05 34.50 0.84L34.50 0.84L33.03-1.22Q33.99-2.23 35.25-2.71Q36.51-3.19 37.76-3.19L37.76-3.19Q38.67-3.19 39.51-2.93Q40.35-2.66 41-2.14Q41.65-1.61 42.03-0.80Q42.42 0 42.42 1.06ZM48.46 12L45.51 12L45.51-4.15L48.46-4.66L48.46 0.82Q48.82 0.70 49.33 0.59Q49.83 0.48 50.22 0.48L50.22 0.48Q51.46 0.48 52.30 0.85Q53.14 1.22 53.65 1.91Q54.15 2.59 54.37 3.54Q54.58 4.49 54.58 5.64L54.58 5.64L54.58 12L51.63 12L51.63 6.02Q51.63 4.44 51.27 3.74Q50.91 3.05 49.90 3.05L49.90 3.05Q49.50 3.05 49.10 3.14Q48.70 3.24 48.46 3.31L48.46 3.31L48.46 12ZM61.47 9.77L61.47 9.77Q62.55 9.77 63.13 9.61Q63.70 9.46 63.70 8.98L63.70 8.98Q63.70 8.66 63.52 8.45Q63.34 8.23 63.02 8.08Q62.70 7.92 62.28 7.78Q61.86 7.63 61.40 7.49L61.40 7.49Q60.75 7.30 60.08 7.04Q59.41 6.79 58.86 6.41Q58.30 6.02 57.94 5.44Q57.58 4.85 57.58 3.96L57.58 3.96Q57.58 3.24 57.86 2.60Q58.14 1.97 58.72 1.48Q59.31 0.98 60.22 0.71Q61.14 0.43 62.41 0.43L62.41 0.43Q63.51 0.43 64.46 0.60Q65.41 0.77 66.10 1.08L66.10 1.08L65.65 3.58Q65.24 3.46 64.38 3.18Q63.51 2.90 62.43 2.90L62.43 2.90Q61.30 2.90 60.91 3.18Q60.51 3.46 60.51 3.77L60.51 3.77Q60.51 4.03 60.69 4.24Q60.87 4.44 61.17 4.61Q61.47 4.78 61.87 4.93Q62.26 5.09 62.72 5.23L62.72 5.23Q63.37 5.45 64.06 5.71Q64.76 5.98 65.32 6.37Q65.89 6.77 66.25 7.38Q66.61 7.99 66.61 8.88L66.61 8.88Q66.61 9.58 66.34 10.20Q66.08 10.82 65.47 11.28Q64.86 11.74 63.87 12Q62.89 12.26 61.45 12.26L61.45 12.26Q59.98 12.26 58.95 11.93Q57.92 11.59 57.30 11.33L57.30 11.33L57.75 8.86Q58.59 9.19 59.54 9.48Q60.49 9.77 61.47 9.77ZM87.97-2.86L90.92-2.86L90.92 12L87.97 12L87.97 5.45L84.03 5.45L84.03 12L81.08 12L81.08-2.86L84.03-2.86L84.03 3L87.97 3L87.97-2.86ZM98.02 9.89L98.02 9.89Q98.50 9.89 98.96 9.88Q99.42 9.86 99.75 9.82L99.75 9.82L99.75 7.22Q99.46 7.18 99.06 7.14Q98.65 7.10 98.31 7.10L98.31 7.10Q97.86 7.10 97.42 7.16Q96.99 7.22 96.67 7.37Q96.34 7.51 96.15 7.78Q95.96 8.04 95.96 8.47L95.96 8.47Q95.96 9.24 96.54 9.56Q97.11 9.89 98.02 9.89ZM97.76 0.43L97.76 0.43Q99.15 0.43 100.08 0.76Q101 1.08 101.55 1.67Q102.10 2.26 102.34 3.11Q102.58 3.96 102.58 5.02L102.58 5.02L102.58 11.74Q101.94 11.88 100.66 12.07Q99.39 12.26 97.81 12.26L97.81 12.26Q96.73 12.26 95.85 12.07Q94.98 11.88 94.35 11.44Q93.73 10.99 93.39 10.28Q93.06 9.58 93.06 8.54L93.06 8.54Q93.06 7.56 93.44 6.89Q93.82 6.22 94.47 5.81Q95.12 5.40 95.96 5.22Q96.80 5.04 97.71 5.04L97.71 5.04Q98.86 5.04 99.75 5.23L99.75 5.23L99.75 4.87Q99.75 4.03 99.22 3.47Q98.70 2.90 97.40 2.90L97.40 2.90Q96.56 2.90 95.78 3.02Q95 3.14 94.52 3.31L94.52 3.31L94.11 0.94Q94.66 0.74 95.67 0.59Q96.68 0.43 97.76 0.43ZM109.47 9.77L109.47 9.77Q110.55 9.77 111.13 9.61Q111.70 9.46 111.70 8.98L111.70 8.98Q111.70 8.66 111.52 8.45Q111.34 8.23 111.02 8.08Q110.70 7.92 110.28 7.78Q109.86 7.63 109.40 7.49L109.40 7.49Q108.75 7.30 108.08 7.04Q107.41 6.79 106.86 6.41Q106.30 6.02 105.94 5.44Q105.58 4.85 105.58 3.96L105.58 3.96Q105.58 3.24 105.86 2.60Q106.14 1.97 106.72 1.48Q107.31 0.98 108.22 0.71Q109.14 0.43 110.41 0.43L110.41 0.43Q111.51 0.43 112.46 0.60Q113.41 0.77 114.10 1.08L114.10 1.08L113.65 3.58Q113.24 3.46 112.38 3.18Q111.51 2.90 110.43 2.90L110.43 2.90Q109.30 2.90 108.91 3.18Q108.51 3.46 108.51 3.77L108.51 3.77Q108.51 4.03 108.69 4.24Q108.87 4.44 109.17 4.61Q109.47 4.78 109.87 4.93Q110.26 5.09 110.72 5.23L110.72 5.23Q111.37 5.45 112.06 5.71Q112.76 5.98 113.32 6.37Q113.89 6.77 114.25 7.38Q114.61 7.99 114.61 8.88L114.61 8.88Q114.61 9.58 114.34 10.20Q114.08 10.82 113.47 11.28Q112.86 11.74 111.87 12Q110.89 12.26 109.45 12.26L109.45 12.26Q107.98 12.26 106.95 11.93Q105.92 11.59 105.30 11.33L105.30 11.33L105.75 8.86Q106.59 9.19 107.54 9.48Q108.49 9.77 109.47 9.77ZM120.49-4.66L120.49 5.18Q120.92 4.68 121.36 4.12Q121.81 3.55 122.23 2.95Q122.65 2.35 123.03 1.79Q123.42 1.22 123.70 0.72L123.70 0.72L127.26 0.72Q126.82 1.27 126.27 1.92Q125.72 2.57 125.13 3.24Q124.54 3.91 123.96 4.54Q123.37 5.16 122.89 5.69L122.89 5.69Q123.49 6.26 124.18 7.07Q124.88 7.87 125.55 8.74Q126.22 9.60 126.79 10.46Q127.35 11.33 127.69 12L127.69 12L124.30 12Q124.02 11.40 123.55 10.64Q123.08 9.89 122.55 9.16Q122.02 8.42 121.48 7.76Q120.94 7.10 120.49 6.67L120.49 6.67L120.49 12L117.51 12L117.51-4.15L120.49-4.66ZM128.74 6.46L128.74 6.46Q128.74 4.97 129.20 3.84Q129.66 2.71 130.40 1.96Q131.14 1.20 132.10 0.82Q133.06 0.43 134.07 0.43L134.07 0.43Q136.57 0.43 137.86 1.91Q139.16 3.38 139.16 6.22L139.16 6.22Q139.16 6.50 139.15 6.82Q139.14 7.13 139.11 7.32L139.11 7.32L131.79 7.32Q131.79 8.42 132.70 9.06Q133.62 9.70 135.06 9.70L135.06 9.70Q135.94 9.70 136.75 9.50Q137.55 9.31 138.10 9.12L138.10 9.12L138.51 11.64Q137.74 11.90 136.88 12.08Q136.02 12.26 134.94 12.26L134.94 12.26Q133.50 12.26 132.36 11.89Q131.22 11.52 130.41 10.79Q129.61 10.06 129.18 8.98Q128.74 7.90 128.74 6.46ZM131.79 5.28L136.30 5.28Q136.30 4.82 136.18 4.40Q136.06 3.98 135.80 3.65Q135.54 3.31 135.13 3.11Q134.72 2.90 134.12 2.90L134.12 2.90Q133.54 2.90 133.12 3.10Q132.70 3.29 132.43 3.62Q132.15 3.96 132.00 4.39Q131.84 4.82 131.79 5.28L131.79 5.28ZM150.82 9.14L151.21 11.52Q151.14 11.57 150.88 11.69Q150.63 11.81 150.22 11.94Q149.82 12.07 149.23 12.17Q148.64 12.26 147.90 12.26L147.90 12.26Q145.86 12.26 144.92 11.05Q143.98 9.84 143.98 7.51L143.98 7.51L143.98-2.06L140.86-2.06L140.86-4.51L146.94-4.51L146.94 7.73Q146.94 8.88 147.39 9.29Q147.85 9.70 148.54 9.70L148.54 9.70Q149.43 9.70 150.03 9.46Q150.63 9.22 150.82 9.14L150.82 9.14ZM162.82 9.14L163.21 11.52Q163.14 11.57 162.88 11.69Q162.63 11.81 162.22 11.94Q161.82 12.07 161.23 12.17Q160.64 12.26 159.90 12.26L159.90 12.26Q157.86 12.26 156.92 11.05Q155.98 9.84 155.98 7.51L155.98 7.51L155.98-2.06L152.86-2.06L152.86-4.51L158.94-4.51L158.94 7.73Q158.94 8.88 159.39 9.29Q159.85 9.70 160.54 9.70L160.54 9.70Q161.43 9.70 162.03 9.46Q162.63 9.22 162.82 9.14L162.82 9.14Z"/>
    </g>
</svg>