<?xml version="1.0" encoding="UTF-8"?>
<svg height="34" width="92.5" version="1.1" xmlns="http://www.w3.org/2000/svg">
    <rect
        height="32"
        width="90.5"
        rx="14"
        ry="14"
        x="1"
        y="1"
        fill="#24255d"
        stroke="#5a5bbf"
        stroke-width="1"
         />
    <g transform="translate(0, 14)">
        <path fill="#5a5bbf" d="M23.69 11L19.97 11Q19.44 9.57 18.67 7.84Q17.90 6.10 17.06 4.36L17.06 4.36Q16.24 6.02 15.43 7.79Q14.62 9.57 14.03 11L14.03 11L10.31 11Q10.59 10.24 11.13 9.18Q11.68 8.12 12.34 6.88Q13.00 5.65 13.72 4.35Q14.45 3.05 15.12 1.84L15.12 1.84L10.59-6.33L14.31-6.33L17.06-0.79L19.94-6.33L23.41-6.33L18.99 1.76Q19.74 2.96 20.47 4.28Q21.20 5.60 21.83 6.84Q22.46 8.09 22.94 9.17Q23.41 10.24 23.69 11L23.69 11ZM28.00 6.10L28.00 0.70L25.01 0.70L25.01-2.16L28.00-2.16L28.00-5.46L31.45-6.02L31.45-2.16L36.96-2.16L36.96 0.70L31.45 0.70L31.45 6.02Q31.45 6.74 31.59 7.19Q31.73 7.64 31.98 7.89Q32.23 8.14 32.60 8.23Q32.96 8.31 33.41 8.31L33.41 8.31Q33.88 8.31 34.29 8.28Q34.70 8.26 35.07 8.19Q35.45 8.12 35.86 7.98Q36.26 7.84 36.74 7.61L36.74 7.61L37.22 10.58Q36.26 10.97 35.16 11.14Q34.05 11.31 33.02 11.31L33.02 11.31Q31.81 11.31 30.89 11.11Q29.96 10.92 29.32 10.36Q28.68 9.80 28.34 8.77Q28.00 7.75 28.00 6.10L28.00 6.10ZM38.87 4.53L38.87 4.53Q38.87 2.80 39.40 1.48Q39.93 0.16 40.80-0.72Q41.67-1.60 42.79-2.05Q43.91-2.50 45.08-2.50L45.08-2.50Q48.00-2.50 49.51-0.77Q51.02 0.95 51.02 4.25L51.02 4.25Q51.02 4.59 51.01 4.95Q50.99 5.32 50.96 5.54L50.96 5.54L42.42 5.54Q42.42 6.83 43.49 7.57Q44.55 8.31 46.23 8.31L46.23 8.31Q47.27 8.31 48.21 8.09Q49.14 7.86 49.79 7.64L49.79 7.64L50.26 10.58Q49.37 10.89 48.36 11.10Q47.35 11.31 46.09 11.31L46.09 11.31Q44.41 11.31 43.08 10.87Q41.75 10.44 40.81 9.59Q39.88 8.73 39.37 7.47Q38.87 6.21 38.87 4.53ZM42.42 3.16L47.69 3.16Q47.69 2.63 47.55 2.14Q47.41 1.65 47.10 1.26Q46.79 0.86 46.32 0.63Q45.84 0.39 45.14 0.39L45.14 0.39Q44.47 0.39 43.98 0.61Q43.49 0.84 43.17 1.23Q42.84 1.62 42.66 2.12Q42.48 2.63 42.42 3.16L42.42 3.16ZM53.76 11L53.76-1.74Q54.69-1.99 56.05-2.22Q57.40-2.44 59-2.44L59-2.44Q60.57-2.44 61.60-2.01Q62.64-1.57 63.24-0.77Q63.84 0.02 64.10 1.13Q64.35 2.24 64.35 3.58L64.35 3.58L64.35 11L60.90 11L60.90 4.03Q60.90 2.18 60.48 1.37Q60.06 0.56 58.78 0.56L58.78 0.56Q58.38 0.56 58.01 0.58Q57.63 0.61 57.21 0.67L57.21 0.67L57.21 11L53.76 11ZM70.28 4.34L70.28 4.34Q70.28 6.10 70.94 7.22Q71.60 8.34 73.06 8.34L73.06 8.34Q73.48 8.34 73.84 8.31Q74.20 8.28 74.60 8.23L74.60 8.23L74.60 1.06Q74.20 0.84 73.70 0.68Q73.20 0.53 72.64 0.53L72.64 0.53Q71.40 0.53 70.84 1.51Q70.28 2.49 70.28 4.34ZM78.04-8.43L78.04 10.61Q77.09 10.92 75.72 11.11Q74.34 11.31 73.03 11.31L73.03 11.31Q69.95 11.31 68.37 9.49Q66.78 7.67 66.78 4.50L66.78 4.50Q66.78 1.28 68.11-0.58Q69.44-2.44 72.05-2.44L72.05-2.44Q72.75-2.44 73.42-2.29Q74.09-2.13 74.60-1.85L74.60-1.85L74.60-7.84L78.04-8.43Z"/>
    </g>
</svg>