<?xml version="1.0" encoding="UTF-8"?>
<svg height="34" width="90.4" version="1.1" xmlns="http://www.w3.org/2000/svg"><!--Created by Josélio de S. C. Júnior - 2021 - https://github.com/joseliojunior -->
    <rect
        height="32"
        width="88.4"
        rx="1"
        ry="1"
        x="1" y="1"
        fill="#701516"
        stroke="#db4345"
        stroke-width="1" />
    <g transform="translate(0, 12)">
        <path fill="#db4345" d="M25.14-3.02L25.14-3.02Q26.41-3.02 27.44-2.74Q28.47-2.45 29.22-1.85Q29.96-1.25 30.36-0.32Q30.75 0.60 30.75 1.85L30.75 1.85Q30.75 3.14 30.22 4.20Q29.70 5.26 28.47 5.81L28.47 5.81Q28.88 6.43 29.34 7.19Q29.79 7.94 30.22 8.77Q30.66 9.60 31.05 10.43Q31.45 11.26 31.74 12L31.74 12L28.64 12Q28.09 10.56 27.36 9.23Q26.62 7.90 25.78 6.53L25.78 6.53L24.25 6.53L24.25 12L21.30 12L21.30-2.64Q21.73-2.74 22.24-2.82Q22.76-2.90 23.29-2.94Q23.82-2.98 24.30-3Q24.78-3.02 25.14-3.02ZM27.75 1.82L27.75 1.82Q27.75 0.65 27.03 0.10Q26.31-0.46 25.14-0.46L25.14-0.46Q24.97-0.46 24.73-0.44Q24.49-0.43 24.25-0.38L24.25-0.38L24.25 4.08L24.90 4.08Q26.41 4.08 27.08 3.49Q27.75 2.90 27.75 1.82ZM42.51 0.72L42.51 11.62Q41.70 11.83 40.53 12.05Q39.37 12.26 38 12.26L38 12.26Q36.61 12.26 35.72 11.88Q34.83 11.50 34.32 10.79Q33.80 10.08 33.61 9.12Q33.42 8.16 33.42 7.01L33.42 7.01L33.42 0.72L36.37 0.72L36.37 6.62Q36.37 8.18 36.74 8.94Q37.11 9.70 38.19 9.70L38.19 9.70Q38.86 9.70 39.54 9.58L39.54 9.58L39.54 0.72L42.51 0.72ZM52.28 6.29L52.28 6.29Q52.28 4.70 51.76 3.86Q51.25 3.02 50.19 3.02L50.19 3.02Q49.71 3.02 49.24 3.16Q48.78 3.29 48.44 3.48L48.44 3.48L48.44 9.60Q48.78 9.67 49.15 9.70Q49.52 9.72 49.78 9.72L49.78 9.72Q50.94 9.72 51.61 8.94Q52.28 8.16 52.28 6.29ZM55.28 6.36L55.28 6.36Q55.28 7.70 54.92 8.80Q54.56 9.89 53.86 10.66Q53.17 11.42 52.16 11.84Q51.15 12.26 49.86 12.26L49.86 12.26Q48.70 12.26 47.50 12.10Q46.30 11.93 45.49 11.66L45.49 11.66L45.49-4.15L48.44-4.66L48.44 0.98Q49.06 0.70 49.64 0.59Q50.22 0.48 50.79 0.48L50.79 0.48Q51.90 0.48 52.74 0.90Q53.58 1.32 54.14 2.10Q54.70 2.88 54.99 3.96Q55.28 5.04 55.28 6.36ZM64.30 0.72L67.33 0.72Q66.87 2.30 66.45 3.83Q66.03 5.35 65.58 6.80Q65.12 8.26 64.60 9.65Q64.09 11.04 63.49 12.36L63.49 12.36Q63.03 13.32 62.59 14.02Q62.14 14.71 61.60 15.16Q61.06 15.60 60.40 15.82Q59.74 16.03 58.86 16.03L58.86 16.03Q58.11 16.03 57.50 15.91Q56.89 15.79 56.48 15.60L56.48 15.60L57.03 13.13Q57.51 13.34 57.88 13.43Q58.26 13.51 58.69 13.51L58.69 13.51Q59.55 13.51 60.08 12.94Q60.61 12.36 60.92 11.57L60.92 11.57Q59.86 9.46 58.81 6.73Q57.75 4.01 56.89 0.72L56.89 0.72L59.96 0.72Q60.18 1.61 60.45 2.62Q60.73 3.62 61.04 4.63Q61.35 5.64 61.70 6.61Q62.05 7.58 62.41 8.42L62.41 8.42Q62.65 7.58 62.91 6.61Q63.18 5.64 63.42 4.64Q63.66 3.65 63.88 2.64Q64.11 1.63 64.30 0.72L64.30 0.72Z"/>
    </g>
</svg>