<?xml version="1.0" encoding="UTF-8"?>
<svg height="34" width="134.8" version="1.1" xmlns="http://www.w3.org/2000/svg">
    <rect
        height="32"
        width="132.8"
        rx="1"
        ry="1"
        x="1"
        y="1"
        fill="#0040FF"
        stroke="#001a66"
        stroke-width="1"
         />
    <g transform="translate(0, 14)">
        <path fill="#001a66" d="M23.75 11L20.05 11L19.24 7.00L14.62 7.00L13.84 11L10.25 11Q11.48 5.88 12.74 1.66Q14.00-2.55 15.18-6.33L15.18-6.33L18.93-6.33Q20.16-2.52 21.38 1.75Q22.60 6.02 23.75 11L23.75 11ZM16.97-2.97L16.97-2.97Q16.69-1.99 16.45-1.11Q16.22-0.23 16.01 0.63Q15.80 1.48 15.61 2.35Q15.43 3.22 15.26 4.14L15.26 4.14L18.65 4.14Q18.48 3.22 18.32 2.35Q18.15 1.48 17.94 0.63Q17.73-0.23 17.49-1.11Q17.25-1.99 16.97-2.97ZM32.32 11L29.43 11Q28.17 8.51 26.87 5.16Q25.57 1.82 24.39-2.16L24.39-2.16L28.00-2.16Q28.26-1.10 28.61 0.11Q28.96 1.31 29.35 2.53Q29.74 3.75 30.15 4.90Q30.55 6.04 30.92 7.00L30.92 7.00Q31.28 6.04 31.73 4.90Q32.18 3.75 32.61 2.53Q33.04 1.31 33.45 0.11Q33.86-1.10 34.11-2.16L34.11-2.16L37.61-2.16Q36.43 1.82 35.00 5.16Q33.58 8.51 32.32 11L32.32 11ZM50.85-1.85L50.24 1.34Q49.90 1.26 49.44 1.17Q48.98 1.09 48.50 1.02Q48.02 0.95 47.58 0.92Q47.13 0.89 46.82 0.89L46.82 0.89Q46.09 0.89 45.39 0.96Q44.69 1.03 43.96 1.23L43.96 1.23L43.96 11L40.49 11L40.49-1.29Q41.86-1.80 43.31-2.10Q44.75-2.41 46.68-2.41L46.68-2.41Q46.96-2.41 47.48-2.38Q48.00-2.36 48.58-2.29Q49.17-2.22 49.77-2.12Q50.38-2.02 50.85-1.85L50.85-1.85ZM65.22 4.39L65.22 4.39Q65.22 5.96 64.77 7.23Q64.32 8.51 63.51 9.43Q62.70 10.36 61.56 10.86Q60.43 11.36 59.03 11.36L59.03 11.36Q57.63 11.36 56.49 10.86Q55.36 10.36 54.53 9.43Q53.71 8.51 53.26 7.23Q52.81 5.96 52.81 4.39L52.81 4.39Q52.81 2.85 53.27 1.58Q53.74 0.30 54.56-0.61Q55.39-1.52 56.54-2.01Q57.68-2.50 59.03-2.50L59.03-2.50Q60.40-2.50 61.53-2.01Q62.67-1.52 63.49-0.61Q64.32 0.30 64.77 1.58Q65.22 2.85 65.22 4.39ZM56.31 4.42L56.31 4.42Q56.31 6.18 56.94 7.28Q57.57 8.37 58.97 8.37L58.97 8.37Q60.32 8.37 61.00 7.28Q61.69 6.18 61.69 4.42L61.69 4.42Q61.69 2.66 61.06 1.58Q60.43 0.50 59.03 0.50L59.03 0.50Q57.68 0.50 57.00 1.58Q56.31 2.66 56.31 4.42ZM92.52 11L81.51 11L81.51 8.14L85.29 8.14L85.29-3.48L81.51-3.48L81.51-6.33L92.52-6.33L92.52-3.48L88.76-3.48L88.76 8.14L92.52 8.14L92.52 11ZM98.96-3.45L98.96 8.20Q99.10 8.23 99.26 8.23Q99.43 8.23 99.57 8.23L99.57 8.23Q100.75 8.23 101.55 7.78Q102.34 7.33 102.83 6.55Q103.32 5.76 103.53 4.69Q103.74 3.61 103.74 2.32L103.74 2.32Q103.74 1.20 103.58 0.14Q103.41-0.93 102.99-1.74Q102.57-2.55 101.84-3.04Q101.11-3.53 99.96-3.53L99.96-3.53Q99.74-3.53 99.46-3.52Q99.18-3.50 98.96-3.45L98.96-3.45ZM107.24 2.32L107.24 2.32Q107.24 4.73 106.64 6.42Q106.04 8.12 104.98 9.18Q103.91 10.24 102.44 10.73Q100.97 11.22 99.21 11.22L99.21 11.22Q98.28 11.22 97.40 11.13Q96.52 11.03 95.51 10.80L95.51 10.80L95.51-6.11Q96.69-6.36 97.72-6.44Q98.76-6.53 99.66-6.53L99.66-6.53Q101.36-6.53 102.78-6.02Q104.19-5.52 105.17-4.44Q106.15-3.36 106.70-1.70Q107.24-0.03 107.24 2.32ZM120.88 8.14L120.88 11L109.99 11L109.99-6.33L113.46-6.33L113.46 8.14L120.88 8.14Z"/>
    </g>
</svg>