<?xml version="1.0" encoding="UTF-8"?>
<svg height="34" width="106.6" version="1.1" xmlns="http://www.w3.org/2000/svg">
    <rect
        height="32"
        width="104.6"
        rx="14"
        ry="14"
        x="1"
        y="1"
        fill="#234d6b"
        stroke="#5d9dcb"
        stroke-width="1"
         />
    <g transform="translate(0, 14)">
        <path fill="#5d9dcb" d="M16.27-6.53L16.27-6.53Q19.58-6.53 21.40-5.17Q23.22-3.81 23.22-0.73L23.22-0.73Q23.22 2.38 21.38 3.76Q19.55 5.15 16.19 5.15L16.19 5.15L14.96 5.15L14.96 11L11.51 11L11.51-6.11Q12.02-6.22 12.65-6.30Q13.28-6.39 13.92-6.43Q14.56-6.47 15.18-6.50Q15.80-6.53 16.27-6.53ZM16.66-3.53L16.66-3.53Q16.36-3.53 15.81-3.52Q15.26-3.50 14.96-3.45L14.96-3.45L14.96 2.15L16.36 2.15Q18.01 2.15 18.85 1.49Q19.69 0.84 19.69-0.76L19.69-0.76Q19.69-2.27 18.86-2.90Q18.04-3.53 16.66-3.53ZM36.88 11L25.76 11L25.76-6.33L36.26-6.33L36.26-3.48L29.21-3.48L29.21 0.42L35.34 0.42L35.34 3.27L29.21 3.27L29.21 8.14L36.88 8.14L36.88 11ZM46.74-3.73L46.74-3.73Q45.50-3.73 44.66-3.28Q43.82-2.83 43.28-2.03Q42.73-1.24 42.49-0.13Q42.26 0.98 42.26 2.32L42.26 2.32Q42.26 5.43 43.24 6.90Q44.22 8.37 46.12 8.37L46.12 8.37Q46.43 8.37 46.79 8.34Q47.16 8.31 47.46 8.26L47.46 8.26L47.46 1.93L50.91 1.93L50.91 10.58Q50.29 10.80 48.99 11.08Q47.69 11.36 45.84 11.36L45.84 11.36Q44.22 11.36 42.91 10.79Q41.61 10.22 40.69 9.08Q39.76 7.95 39.26 6.25Q38.76 4.56 38.76 2.32L38.76 2.32Q38.76 0.11 39.34-1.59Q39.93-3.28 40.94-4.43Q41.95-5.58 43.32-6.15Q44.69-6.72 46.26-6.72L46.26-6.72Q47.27-6.72 48.07-6.57Q48.86-6.42 49.45-6.22Q50.04-6.02 50.42-5.80Q50.80-5.58 50.99-5.46L50.99-5.46L50.10-2.72Q49.48-3.11 48.58-3.42Q47.69-3.73 46.74-3.73ZM61.52 8.79L61.52 8.79Q61.52 10.02 60.76 10.66Q60.01 11.31 59.03 11.31L59.03 11.31Q58.52 11.31 58.08 11.14Q57.63 10.97 57.28 10.65Q56.93 10.33 56.72 9.87Q56.51 9.40 56.51 8.79L56.51 8.79Q56.51 8.20 56.72 7.74Q56.93 7.28 57.28 6.97Q57.63 6.66 58.08 6.49Q58.52 6.32 59.03 6.32L59.03 6.32Q60.01 6.32 60.76 6.97Q61.52 7.61 61.52 8.79ZM77.20-2.16L77.20 10.13Q77.20 11.73 76.81 12.81Q76.42 13.88 75.73 14.54Q75.04 15.20 74.11 15.48Q73.17 15.76 72.08 15.76L72.08 15.76Q70.73 15.76 69.58 15.42Q68.44 15.09 67.37 14.56L67.37 14.56L68.44 11.64Q69.14 12.04 70.13 12.39Q71.12 12.74 71.94 12.74L71.94 12.74Q72.80 12.74 73.28 12.22Q73.76 11.70 73.76 10.30L73.76 10.30L73.76 0.70L68.44 0.70L68.44-2.16L77.20-2.16ZM76.78-5.94L76.78-5.94Q76.78-4.93 76.14-4.34Q75.49-3.76 74.60-3.76L74.60-3.76Q73.70-3.76 73.07-4.34Q72.44-4.93 72.44-5.94L72.44-5.94Q72.44-6.98 73.07-7.56Q73.70-8.15 74.60-8.15L74.60-8.15Q75.49-8.15 76.14-7.56Q76.78-6.98 76.78-5.94ZM86.38 8.40L86.38 8.40Q87.64 8.40 88.32 8.21Q88.99 8.03 88.99 7.47L88.99 7.47Q88.99 7.11 88.78 6.86Q88.57 6.60 88.19 6.42Q87.81 6.24 87.32 6.07Q86.83 5.90 86.30 5.74L86.30 5.74Q85.54 5.51 84.76 5.22Q83.98 4.92 83.33 4.48Q82.69 4.03 82.27 3.34Q81.85 2.66 81.85 1.62L81.85 1.62Q81.85 0.78 82.17 0.04Q82.49-0.70 83.18-1.28Q83.86-1.85 84.93-2.17Q85.99-2.50 87.48-2.50L87.48-2.50Q88.76-2.50 89.87-2.30Q90.98-2.10 91.79-1.74L91.79-1.74L91.26 1.17Q90.78 1.03 89.77 0.71Q88.76 0.39 87.50 0.39L87.50 0.39Q86.19 0.39 85.73 0.71Q85.26 1.03 85.26 1.40L85.26 1.40Q85.26 1.70 85.47 1.94Q85.68 2.18 86.03 2.38Q86.38 2.57 86.85 2.75Q87.31 2.94 87.84 3.10L87.84 3.10Q88.60 3.36 89.41 3.66Q90.22 3.97 90.88 4.43Q91.54 4.90 91.96 5.61Q92.38 6.32 92.38 7.36L92.38 7.36Q92.38 8.17 92.07 8.90Q91.76 9.63 91.05 10.16Q90.33 10.69 89.18 11Q88.04 11.31 86.36 11.31L86.36 11.31Q84.65 11.31 83.44 10.92Q82.24 10.52 81.51 10.22L81.51 10.22L82.04 7.33Q83.02 7.72 84.13 8.06Q85.24 8.40 86.38 8.40Z"/>
    </g>
</svg>