<?xml version="1.0" encoding="UTF-8"?>
<svg height="34" width="163" version="1.1" xmlns="http://www.w3.org/2000/svg"><!--Created by Josélio de S. C. Júnior - 2021 - https://github.com/joseliojunior -->
    <defs>
        <pattern id="pattern"
                x="3" y="3" width="6" height="6"
                patternUnits="userSpaceOnUse"
                patternTransform="rotate(45)" >
            <rect height="6" width="6"
                fill="#ffffff"/>
            <line x1="0" y1="0" x2="0" y2="6"
                stroke="#bbbbbb"
                stroke-width="2" />
        </pattern>
    </defs>
    <rect
        height="32"
        width="161"
        rx="16"
        ry="16"
        x="1" y="1"
        fill="url(#pattern)" />
    <g transform="translate(0, 12)">
        <path fill="#000000" d="M25.57 9.84L25.57 9.84Q26.31 9.84 26.80 9.68Q27.30 9.53 27.58 9.25Q27.87 8.98 27.98 8.63Q28.09 8.28 28.09 7.92L28.09 7.92Q28.09 7.46 27.82 7.10Q27.56 6.74 27.15 6.47Q26.74 6.19 26.24 5.96Q25.74 5.74 25.23 5.54L25.23 5.54Q24.56 5.30 23.84 4.99Q23.12 4.68 22.53 4.20Q21.94 3.72 21.56 3.01Q21.18 2.30 21.18 1.25L21.18 1.25Q21.18-0.84 22.53-2.02Q23.89-3.19 26.26-3.19L26.26-3.19Q27.63-3.19 28.65-2.88Q29.67-2.57 30.37-2.18L30.37-2.18L29.50 0.10Q28.90-0.24 28.17-0.48Q27.44-0.72 26.48-0.72L26.48-0.72Q24.13-0.72 24.13 0.98L24.13 0.98Q24.13 1.42 24.37 1.74Q24.61 2.06 24.98 2.32Q25.35 2.57 25.82 2.76Q26.29 2.95 26.74 3.12L26.74 3.12Q27.44 3.38 28.20 3.71Q28.95 4.03 29.59 4.57Q30.22 5.11 30.63 5.92Q31.04 6.72 31.04 7.94L31.04 7.94Q31.04 10.03 29.68 11.17Q28.33 12.31 25.57 12.31L25.57 12.31Q23.72 12.31 22.62 11.92Q21.51 11.52 20.96 11.18L20.96 11.18L21.82 8.78Q22.47 9.17 23.37 9.50Q24.27 9.84 25.57 9.84ZM37.57 9.84L37.57 9.84Q38.31 9.84 38.80 9.68Q39.30 9.53 39.58 9.25Q39.87 8.98 39.98 8.63Q40.09 8.28 40.09 7.92L40.09 7.92Q40.09 7.46 39.82 7.10Q39.56 6.74 39.15 6.47Q38.74 6.19 38.24 5.96Q37.74 5.74 37.23 5.54L37.23 5.54Q36.56 5.30 35.84 4.99Q35.12 4.68 34.53 4.20Q33.94 3.72 33.56 3.01Q33.18 2.30 33.18 1.25L33.18 1.25Q33.18-0.84 34.53-2.02Q35.89-3.19 38.26-3.19L38.26-3.19Q39.63-3.19 40.65-2.88Q41.67-2.57 42.37-2.18L42.37-2.18L41.50 0.10Q40.90-0.24 40.17-0.48Q39.44-0.72 38.48-0.72L38.48-0.72Q36.13-0.72 36.13 0.98L36.13 0.98Q36.13 1.42 36.37 1.74Q36.61 2.06 36.98 2.32Q37.35 2.57 37.82 2.76Q38.29 2.95 38.74 3.12L38.74 3.12Q39.44 3.38 40.20 3.71Q40.95 4.03 41.59 4.57Q42.22 5.11 42.63 5.92Q43.04 6.72 43.04 7.94L43.04 7.94Q43.04 10.03 41.68 11.17Q40.33 12.31 37.57 12.31L37.57 12.31Q35.72 12.31 34.62 11.92Q33.51 11.52 32.96 11.18L32.96 11.18L33.82 8.78Q34.47 9.17 35.37 9.50Q36.27 9.84 37.57 9.84ZM51.97-2.86L54.92-2.86L54.92 12L51.97 12L51.97 5.45L48.03 5.45L48.03 12L45.08 12L45.08-2.86L48.03-2.86L48.03 3L51.97 3L51.97-2.86ZM75.10 12.31L75.10 12.31Q71.96 12.31 70.30 10.30Q68.65 8.28 68.65 4.56L68.65 4.56Q68.65 2.71 69.15 1.27Q69.66-0.17 70.56-1.16Q71.46-2.16 72.69-2.68Q73.93-3.19 75.39-3.19L75.39-3.19Q76.18-3.19 76.82-3.06Q77.46-2.93 77.94-2.76Q78.42-2.59 78.74-2.40Q79.06-2.21 79.23-2.11L79.23-2.11L78.46 0.24Q77.91-0.12 77.13-0.37Q76.35-0.62 75.34-0.62L75.34-0.62Q74.65-0.62 73.99-0.37Q73.33-0.12 72.81 0.47Q72.30 1.06 71.97 2.04Q71.65 3.02 71.65 4.49L71.65 4.49Q71.65 7.03 72.52 8.39Q73.40 9.74 75.39 9.74L75.39 9.74Q76.54 9.74 77.30 9.48Q78.06 9.22 78.51 8.95L78.51 8.95L79.26 11.28Q78.63 11.66 77.56 11.99Q76.50 12.31 75.10 12.31ZM91.33 6.34L91.33 6.34Q91.33 7.68 90.94 8.77Q90.56 9.86 89.86 10.66Q89.17 11.45 88.20 11.88Q87.22 12.31 86.02 12.31L86.02 12.31Q84.82 12.31 83.85 11.88Q82.88 11.45 82.17 10.66Q81.46 9.86 81.08 8.77Q80.70 7.68 80.70 6.34L80.70 6.34Q80.70 5.02 81.09 3.92Q81.49 2.83 82.20 2.05Q82.90 1.27 83.89 0.85Q84.87 0.43 86.02 0.43L86.02 0.43Q87.20 0.43 88.17 0.85Q89.14 1.27 89.85 2.05Q90.56 2.83 90.94 3.92Q91.33 5.02 91.33 6.34ZM83.70 6.36L83.70 6.36Q83.70 7.87 84.24 8.81Q84.78 9.74 85.98 9.74L85.98 9.74Q87.13 9.74 87.72 8.81Q88.30 7.87 88.30 6.36L88.30 6.36Q88.30 4.85 87.76 3.92Q87.22 3 86.02 3L86.02 3Q84.87 3 84.28 3.92Q83.70 4.85 83.70 6.36ZM93.51 12L93.51 1.08Q94.30 0.86 95.47 0.67Q96.63 0.48 98 0.48L98 0.48Q99.34 0.48 100.23 0.85Q101.12 1.22 101.64 1.91Q102.15 2.59 102.37 3.54Q102.58 4.49 102.58 5.64L102.58 5.64L102.58 12L99.63 12L99.63 6.02Q99.63 4.44 99.27 3.74Q98.91 3.05 97.81 3.05L97.81 3.05Q97.47 3.05 97.15 3.07Q96.82 3.10 96.46 3.14L96.46 3.14L96.46 12L93.51 12ZM110.31 12L107.34 12L107.34 3.17L104.86 3.17L104.86 0.72L107.34 0.72L107.34 0.07Q107.34-1.30 107.73-2.20Q108.13-3.10 108.80-3.64Q109.47-4.18 110.34-4.40Q111.20-4.63 112.11-4.63L112.11-4.63Q113.05-4.63 114.03-4.46Q115.02-4.30 115.81-3.91L115.81-3.91L115.30-1.51Q114.75-1.70 113.92-1.91Q113.10-2.11 112.35-2.11L112.35-2.11Q111.94-2.11 111.57-2.04Q111.20-1.97 110.92-1.73Q110.65-1.49 110.48-1.04Q110.31-0.60 110.31 0.12L110.31 0.12L110.31 0.72L114.94 0.72L114.94 3.17L110.31 3.17L110.31 12ZM122.82-2.52L122.82-2.52Q122.82-1.66 122.26-1.15Q121.71-0.65 120.94-0.65L120.94-0.65Q120.18-0.65 119.64-1.15Q119.10-1.66 119.10-2.52L119.10-2.52Q119.10-3.41 119.64-3.91Q120.18-4.42 120.94-4.42L120.94-4.42Q121.71-4.42 122.26-3.91Q122.82-3.41 122.82-2.52ZM126.82 9.14L127.21 11.52Q126.30 11.95 125.49 12.11Q124.69 12.26 124.02 12.26L124.02 12.26Q122.86 12.26 122.08 11.93Q121.30 11.59 120.84 10.96Q120.37 10.32 120.18 9.41Q119.98 8.50 119.98 7.32L119.98 7.32L119.98 3.17L116.86 3.17L116.86 0.72L122.94 0.72L122.94 7.70Q122.94 8.71 123.31 9.20Q123.68 9.70 124.54 9.70L124.54 9.70Q124.95 9.70 125.53 9.59Q126.10 9.48 126.82 9.14L126.82 9.14ZM131.79 6L131.79 6Q131.79 7.39 132.30 8.12Q132.80 8.86 133.88 8.86L133.88 8.86Q134.36 8.86 134.78 8.74Q135.20 8.62 135.54 8.42L135.54 8.42L135.54 3Q135.20 2.93 134.94 2.90Q134.67 2.88 134.38 2.88L134.38 2.88Q131.79 2.88 131.79 6ZM138.51 1.08L138.51 10.63Q138.51 13.39 137.18 14.71Q135.85 16.03 132.90 16.03L132.90 16.03Q131.84 16.03 130.87 15.82Q129.90 15.60 129.01 15.31L129.01 15.31L129.56 12.82Q130.26 13.08 131.02 13.31Q131.79 13.54 132.94 13.54L132.94 13.54Q133.71 13.54 134.22 13.36Q134.72 13.18 135.01 12.86Q135.30 12.55 135.42 12.13Q135.54 11.71 135.54 11.23L135.54 11.23L135.54 10.78Q134.91 11.02 134.40 11.14Q133.88 11.26 133.28 11.26L133.28 11.26Q131.07 11.26 129.93 9.86Q128.79 8.47 128.79 6L128.79 6Q128.79 3.22 130.33 1.85Q131.86 0.48 134.50 0.48L134.50 0.48Q136.35 0.48 138.51 1.08L138.51 1.08Z"/>
    </g>
</svg>