<?xml version="1.0" encoding="UTF-8"?>
<svg height="34" width="50.2" version="1.1" xmlns="http://www.w3.org/2000/svg">
    <rect
        height="32"
        width="48.2"
        rx="1"
        ry="1"
        x="1"
        y="1"
        fill="#b845fc"
        stroke="#6a03a6"
        stroke-width="1"
         />
    <g transform="translate(0, 14)">
        <path fill="#6a03a6" d="M15.21 11L11.76 11L11.76-6.33L22.38-6.33L22.38-3.48L15.21-3.48L15.21 0.72L21.48 0.72L21.48 3.58L15.21 3.58L15.21 11ZM24.50-2.08L27.86-2.08L28.68-6.33L31.53-6.33L30.69-2.08L32.93-2.08L33.74-6.33L36.60-6.33L35.79-2.08L37.52-2.08L37.52 0.78L35.23 0.78L34.64 3.86L37.52 3.86L37.52 6.72L34.11 6.72L33.30 11L30.44 11L31.25 6.72L29.01 6.72L28.23 11L25.37 11L26.18 6.72L24.50 6.72L24.50 3.86L26.72 3.86L27.30 0.78L24.50 0.78L24.50-2.08ZM30.16 0.78L29.57 3.86L31.81 3.86L32.37 0.78L30.16 0.78Z"/>
    </g>
</svg>