<?xml version="1.0" encoding="UTF-8"?>
<svg height="34" width="50.2" version="1.1" xmlns="http://www.w3.org/2000/svg">
    <rect
        height="32"
        width="48.2"
        rx="1"
        ry="1"
        x="1"
        y="1"
        fill="#7055b5"
        stroke="#2f224e"
        stroke-width="1"
         />
    <g transform="translate(0, 14)">
        <path fill="#2f224e" d="M16.27-6.53L16.27-6.53Q19.58-6.53 21.40-5.17Q23.22-3.81 23.22-0.73L23.22-0.73Q23.22 2.38 21.38 3.76Q19.55 5.15 16.19 5.15L16.19 5.15L14.96 5.15L14.96 11L11.51 11L11.51-6.11Q12.02-6.22 12.65-6.30Q13.28-6.39 13.92-6.43Q14.56-6.47 15.18-6.50Q15.80-6.53 16.27-6.53ZM16.66-3.53L16.66-3.53Q16.36-3.53 15.81-3.52Q15.26-3.50 14.96-3.45L14.96-3.45L14.96 2.15L16.36 2.15Q18.01 2.15 18.85 1.49Q19.69 0.84 19.69-0.76L19.69-0.76Q19.69-2.27 18.86-2.90Q18.04-3.53 16.66-3.53ZM31.98 4.08L31.98-2.02Q31.48-1.38 30.94-0.65Q30.41 0.08 29.89 0.88Q29.38 1.68 28.90 2.49Q28.42 3.30 28.06 4.08L28.06 4.08L31.98 4.08ZM32.34-6.33L35.42-6.33L35.42 4.08L37.30 4.08L37.30 6.91L35.42 6.91L35.42 11L31.98 11L31.98 6.91L24.76 6.91L24.76 4.39Q25.29 3.30 26.13 1.91Q26.97 0.53 27.98-0.93Q28.98-2.38 30.10-3.80Q31.22-5.21 32.34-6.33L32.34-6.33Z"/>
    </g>
</svg>