<?xml version="1.0" encoding="UTF-8"?>
<svg height="34" width="259.79999999999995" version="1.1" xmlns="http://www.w3.org/2000/svg"><!--Created by Josélio de S. C. Júnior - 2021 - https://github.com/joseliojunior -->
    <defs>
        <pattern id="pattern"
                x="3" y="3" width="6" height="6"
                patternUnits="userSpaceOnUse"
                patternTransform="rotate(45)" >
            <rect height="6" width="6"
                fill="#ffffff"/>
            <line x1="0" y1="0" x2="0" y2="6"
                stroke="#bbbbbb"
                stroke-width="2" />
        </pattern>
    </defs>
    <rect
        height="32"
        width="257.79999999999995"
        rx="1"
        ry="1"
        x="1" y="1"
        fill="url(#pattern)" />
    <g transform="translate(0, 12)">
        <path fill="#000000" d="M24.94 2.40L27.10 2.40Q27.20 2.86 27.39 3.53Q27.58 4.20 27.81 5.02Q28.04 5.83 28.32 6.77Q28.59 7.70 28.86 8.69L28.86 8.69Q28.86 7.44 28.83 6.01Q28.81 4.58 28.78 3.10Q28.76 1.61 28.74 0.08Q28.71-1.44 28.71-2.86L28.71-2.86L31.45-2.86Q31.38-1.03 31.30 0.90Q31.23 2.83 31.14 4.74Q31.04 6.65 30.91 8.50Q30.78 10.34 30.61 12L30.61 12L28.16 12Q27.63 10.49 27.10 8.75Q26.58 7.01 26.05 5.42L26.05 5.42Q25.52 6.94 24.94 8.71Q24.37 10.49 23.89 12L23.89 12L21.44 12Q21.25 10.34 21.10 8.48Q20.96 6.62 20.85 4.72Q20.74 2.81 20.67 0.88Q20.60-1.06 20.55-2.86L20.55-2.86L23.29-2.86Q23.26-1.44 23.24 0.07Q23.22 1.58 23.19 3.08Q23.17 4.58 23.14 6.01Q23.12 7.44 23.12 8.69L23.12 8.69Q23.34 7.92 23.61 7.01Q23.89 6.10 24.14 5.21Q24.39 4.32 24.61 3.58Q24.82 2.83 24.94 2.40L24.94 2.40ZM38.02 9.89L38.02 9.89Q38.50 9.89 38.96 9.88Q39.42 9.86 39.75 9.82L39.75 9.82L39.75 7.22Q39.46 7.18 39.06 7.14Q38.65 7.10 38.31 7.10L38.31 7.10Q37.86 7.10 37.42 7.16Q36.99 7.22 36.67 7.37Q36.34 7.51 36.15 7.78Q35.96 8.04 35.96 8.47L35.96 8.47Q35.96 9.24 36.54 9.56Q37.11 9.89 38.02 9.89ZM37.76 0.43L37.76 0.43Q39.15 0.43 40.08 0.76Q41 1.08 41.55 1.67Q42.10 2.26 42.34 3.11Q42.58 3.96 42.58 5.02L42.58 5.02L42.58 11.74Q41.94 11.88 40.66 12.07Q39.39 12.26 37.81 12.26L37.81 12.26Q36.73 12.26 35.85 12.07Q34.98 11.88 34.35 11.44Q33.73 10.99 33.39 10.28Q33.06 9.58 33.06 8.54L33.06 8.54Q33.06 7.56 33.44 6.89Q33.82 6.22 34.47 5.81Q35.12 5.40 35.96 5.22Q36.80 5.04 37.71 5.04L37.71 5.04Q38.86 5.04 39.75 5.23L39.75 5.23L39.75 4.87Q39.75 4.03 39.22 3.47Q38.70 2.90 37.40 2.90L37.40 2.90Q36.56 2.90 35.78 3.02Q35 3.14 34.52 3.31L34.52 3.31L34.11 0.94Q34.66 0.74 35.67 0.59Q36.68 0.43 37.76 0.43ZM51.13 12L48.66 12Q47.58 9.86 46.46 7.00Q45.34 4.13 44.34 0.72L44.34 0.72L47.43 0.72Q47.65 1.63 47.95 2.66Q48.25 3.70 48.58 4.74Q48.92 5.78 49.27 6.77Q49.62 7.75 49.93 8.57L49.93 8.57Q50.24 7.75 50.62 6.77Q51.01 5.78 51.38 4.74Q51.75 3.70 52.10 2.66Q52.45 1.63 52.66 0.72L52.66 0.72L55.66 0.72Q54.66 4.13 53.43 7.00Q52.21 9.86 51.13 12L51.13 12ZM56.74 6.46L56.74 6.46Q56.74 4.97 57.20 3.84Q57.66 2.71 58.40 1.96Q59.14 1.20 60.10 0.82Q61.06 0.43 62.07 0.43L62.07 0.43Q64.57 0.43 65.86 1.91Q67.16 3.38 67.16 6.22L67.16 6.22Q67.16 6.50 67.15 6.82Q67.14 7.13 67.11 7.32L67.11 7.32L59.79 7.32Q59.79 8.42 60.70 9.06Q61.62 9.70 63.06 9.70L63.06 9.70Q63.94 9.70 64.75 9.50Q65.55 9.31 66.10 9.12L66.10 9.12L66.51 11.64Q65.74 11.90 64.88 12.08Q64.02 12.26 62.94 12.26L62.94 12.26Q61.50 12.26 60.36 11.89Q59.22 11.52 58.41 10.79Q57.61 10.06 57.18 8.98Q56.74 7.90 56.74 6.46ZM59.79 5.28L64.30 5.28Q64.30 4.82 64.18 4.40Q64.06 3.98 63.80 3.65Q63.54 3.31 63.13 3.11Q62.72 2.90 62.12 2.90L62.12 2.90Q61.54 2.90 61.12 3.10Q60.70 3.29 60.43 3.62Q60.15 3.96 60.00 4.39Q59.84 4.82 59.79 5.28L59.79 5.28ZM74.31 12L71.34 12L71.34 3.17L68.86 3.17L68.86 0.72L71.34 0.72L71.34 0.07Q71.34-1.30 71.73-2.20Q72.13-3.10 72.80-3.64Q73.47-4.18 74.34-4.40Q75.20-4.63 76.11-4.63L76.11-4.63Q77.05-4.63 78.03-4.46Q79.02-4.30 79.81-3.91L79.81-3.91L79.30-1.51Q78.75-1.70 77.92-1.91Q77.10-2.11 76.35-2.11L76.35-2.11Q75.94-2.11 75.57-2.04Q75.20-1.97 74.92-1.73Q74.65-1.49 74.48-1.04Q74.31-0.60 74.31 0.12L74.31 0.12L74.31 0.72L78.94 0.72L78.94 3.17L74.31 3.17L74.31 12ZM91.02 0.98L90.49 3.72Q90.20 3.65 89.80 3.58Q89.41 3.50 89 3.44Q88.59 3.38 88.21 3.36Q87.82 3.34 87.56 3.34L87.56 3.34Q86.94 3.34 86.34 3.40Q85.74 3.46 85.11 3.62L85.11 3.62L85.11 12L82.14 12L82.14 1.46Q83.31 1.03 84.55 0.77Q85.78 0.50 87.44 0.50L87.44 0.50Q87.68 0.50 88.12 0.53Q88.57 0.55 89.07 0.61Q89.58 0.67 90.09 0.76Q90.61 0.84 91.02 0.98L91.02 0.98ZM103.33 6.34L103.33 6.34Q103.33 7.68 102.94 8.77Q102.56 9.86 101.86 10.66Q101.17 11.45 100.20 11.88Q99.22 12.31 98.02 12.31L98.02 12.31Q96.82 12.31 95.85 11.88Q94.88 11.45 94.17 10.66Q93.46 9.86 93.08 8.77Q92.70 7.68 92.70 6.34L92.70 6.34Q92.70 5.02 93.09 3.92Q93.49 2.83 94.20 2.05Q94.90 1.27 95.89 0.85Q96.87 0.43 98.02 0.43L98.02 0.43Q99.20 0.43 100.17 0.85Q101.14 1.27 101.85 2.05Q102.56 2.83 102.94 3.92Q103.33 5.02 103.33 6.34ZM95.70 6.36L95.70 6.36Q95.70 7.87 96.24 8.81Q96.78 9.74 97.98 9.74L97.98 9.74Q99.13 9.74 99.72 8.81Q100.30 7.87 100.30 6.36L100.30 6.36Q100.30 4.85 99.76 3.92Q99.22 3 98.02 3L98.02 3Q96.87 3 96.28 3.92Q95.70 4.85 95.70 6.36ZM105.51 12L105.51 1.08Q106.30 0.86 107.47 0.67Q108.63 0.48 110 0.48L110 0.48Q111.34 0.48 112.23 0.85Q113.12 1.22 113.64 1.91Q114.15 2.59 114.37 3.54Q114.58 4.49 114.58 5.64L114.58 5.64L114.58 12L111.63 12L111.63 6.02Q111.63 4.44 111.27 3.74Q110.91 3.05 109.81 3.05L109.81 3.05Q109.47 3.05 109.15 3.07Q108.82 3.10 108.46 3.14L108.46 3.14L108.46 12L105.51 12ZM119.43 7.80L119.43 3.17L116.86 3.17L116.86 0.72L119.43 0.72L119.43-2.11L122.38-2.59L122.38 0.72L127.11 0.72L127.11 3.17L122.38 3.17L122.38 7.73Q122.38 8.35 122.50 8.74Q122.62 9.12 122.84 9.34Q123.06 9.55 123.37 9.62Q123.68 9.70 124.06 9.70L124.06 9.70Q124.47 9.70 124.82 9.67Q125.17 9.65 125.49 9.59Q125.82 9.53 126.16 9.41Q126.51 9.29 126.92 9.10L126.92 9.10L127.33 11.64Q126.51 11.98 125.56 12.12Q124.62 12.26 123.73 12.26L123.73 12.26Q122.70 12.26 121.90 12.10Q121.11 11.93 120.56 11.45Q120.01 10.97 119.72 10.09Q119.43 9.22 119.43 7.80L119.43 7.80ZM141.42-2.86L143.86-2.86Q144.03-2.35 144.28-1.56Q144.54-0.77 144.82 0.14Q145.11 1.06 145.40 1.99Q145.69 2.93 145.95 3.72L145.95 3.72Q146.24 2.83 146.55 1.88Q146.86 0.94 147.15 0.06Q147.44-0.82 147.68-1.58Q147.92-2.35 148.11-2.86L148.11-2.86L150.56-2.86Q150.73-0.91 150.88 0.94Q151.04 2.78 151.15 4.60Q151.26 6.41 151.33 8.24Q151.40 10.08 151.45 12L151.45 12L148.74 12L148.88 0.46L147.06 6.74L144.90 6.74L143.14 0.46L143.26 12L140.55 12Q140.62 10.18 140.71 8.21Q140.79 6.24 140.89 4.30Q140.98 2.35 141.12 0.53Q141.25-1.30 141.42-2.86L141.42-2.86ZM158.02 9.89L158.02 9.89Q158.50 9.89 158.96 9.88Q159.42 9.86 159.75 9.82L159.75 9.82L159.75 7.22Q159.46 7.18 159.06 7.14Q158.65 7.10 158.31 7.10L158.31 7.10Q157.86 7.10 157.42 7.16Q156.99 7.22 156.67 7.37Q156.34 7.51 156.15 7.78Q155.96 8.04 155.96 8.47L155.96 8.47Q155.96 9.24 156.54 9.56Q157.11 9.89 158.02 9.89ZM157.76 0.43L157.76 0.43Q159.15 0.43 160.08 0.76Q161 1.08 161.55 1.67Q162.10 2.26 162.34 3.11Q162.58 3.96 162.58 5.02L162.58 5.02L162.58 11.74Q161.94 11.88 160.66 12.07Q159.39 12.26 157.81 12.26L157.81 12.26Q156.73 12.26 155.85 12.07Q154.98 11.88 154.35 11.44Q153.73 10.99 153.39 10.28Q153.06 9.58 153.06 8.54L153.06 8.54Q153.06 7.56 153.44 6.89Q153.82 6.22 154.47 5.81Q155.12 5.40 155.96 5.22Q156.80 5.04 157.71 5.04L157.71 5.04Q158.86 5.04 159.75 5.23L159.75 5.23L159.75 4.87Q159.75 4.03 159.22 3.47Q158.70 2.90 157.40 2.90L157.40 2.90Q156.56 2.90 155.78 3.02Q155 3.14 154.52 3.31L154.52 3.31L154.11 0.94Q154.66 0.74 155.67 0.59Q156.68 0.43 157.76 0.43ZM167.43 7.80L167.43 3.17L164.86 3.17L164.86 0.72L167.43 0.72L167.43-2.11L170.38-2.59L170.38 0.72L175.11 0.72L175.11 3.17L170.38 3.17L170.38 7.73Q170.38 8.35 170.50 8.74Q170.62 9.12 170.84 9.34Q171.06 9.55 171.37 9.62Q171.68 9.70 172.06 9.70L172.06 9.70Q172.47 9.70 172.82 9.67Q173.17 9.65 173.49 9.59Q173.82 9.53 174.16 9.41Q174.51 9.29 174.92 9.10L174.92 9.10L175.33 11.64Q174.51 11.98 173.56 12.12Q172.62 12.26 171.73 12.26L171.73 12.26Q170.70 12.26 169.90 12.10Q169.11 11.93 168.56 11.45Q168.01 10.97 167.72 10.09Q167.43 9.22 167.43 7.80L167.43 7.80ZM176.74 6.46L176.74 6.46Q176.74 4.97 177.20 3.84Q177.66 2.71 178.40 1.96Q179.14 1.20 180.10 0.82Q181.06 0.43 182.07 0.43L182.07 0.43Q184.57 0.43 185.86 1.91Q187.16 3.38 187.16 6.22L187.16 6.22Q187.16 6.50 187.15 6.82Q187.14 7.13 187.11 7.32L187.11 7.32L179.79 7.32Q179.79 8.42 180.70 9.06Q181.62 9.70 183.06 9.70L183.06 9.70Q183.94 9.70 184.75 9.50Q185.55 9.31 186.10 9.12L186.10 9.12L186.51 11.64Q185.74 11.90 184.88 12.08Q184.02 12.26 182.94 12.26L182.94 12.26Q181.50 12.26 180.36 11.89Q179.22 11.52 178.41 10.79Q177.61 10.06 177.18 8.98Q176.74 7.90 176.74 6.46ZM179.79 5.28L184.30 5.28Q184.30 4.82 184.18 4.40Q184.06 3.98 183.80 3.65Q183.54 3.31 183.13 3.11Q182.72 2.90 182.12 2.90L182.12 2.90Q181.54 2.90 181.12 3.10Q180.70 3.29 180.43 3.62Q180.15 3.96 180.00 4.39Q179.84 4.82 179.79 5.28L179.79 5.28ZM199.02 0.98L198.49 3.72Q198.20 3.65 197.80 3.58Q197.41 3.50 197 3.44Q196.59 3.38 196.21 3.36Q195.82 3.34 195.56 3.34L195.56 3.34Q194.94 3.34 194.34 3.40Q193.74 3.46 193.11 3.62L193.11 3.62L193.11 12L190.14 12L190.14 1.46Q191.31 1.03 192.55 0.77Q193.78 0.50 195.44 0.50L195.44 0.50Q195.68 0.50 196.12 0.53Q196.57 0.55 197.07 0.61Q197.58 0.67 198.09 0.76Q198.61 0.84 199.02 0.98L199.02 0.98ZM206.82-2.52L206.82-2.52Q206.82-1.66 206.26-1.15Q205.71-0.65 204.94-0.65L204.94-0.65Q204.18-0.65 203.64-1.15Q203.10-1.66 203.10-2.52L203.10-2.52Q203.10-3.41 203.64-3.91Q204.18-4.42 204.94-4.42L204.94-4.42Q205.71-4.42 206.26-3.91Q206.82-3.41 206.82-2.52ZM210.82 9.14L211.21 11.52Q210.30 11.95 209.49 12.11Q208.69 12.26 208.02 12.26L208.02 12.26Q206.86 12.26 206.08 11.93Q205.30 11.59 204.84 10.96Q204.37 10.32 204.18 9.41Q203.98 8.50 203.98 7.32L203.98 7.32L203.98 3.17L200.86 3.17L200.86 0.72L206.94 0.72L206.94 7.70Q206.94 8.71 207.31 9.20Q207.68 9.70 208.54 9.70L208.54 9.70Q208.95 9.70 209.53 9.59Q210.10 9.48 210.82 9.14L210.82 9.14ZM218.02 9.89L218.02 9.89Q218.50 9.89 218.96 9.88Q219.42 9.86 219.75 9.82L219.75 9.82L219.75 7.22Q219.46 7.18 219.06 7.14Q218.65 7.10 218.31 7.10L218.31 7.10Q217.86 7.10 217.42 7.16Q216.99 7.22 216.67 7.37Q216.34 7.51 216.15 7.78Q215.96 8.04 215.96 8.47L215.96 8.47Q215.96 9.24 216.54 9.56Q217.11 9.89 218.02 9.89ZM217.76 0.43L217.76 0.43Q219.15 0.43 220.08 0.76Q221 1.08 221.55 1.67Q222.10 2.26 222.34 3.11Q222.58 3.96 222.58 5.02L222.58 5.02L222.58 11.74Q221.94 11.88 220.66 12.07Q219.39 12.26 217.81 12.26L217.81 12.26Q216.73 12.26 215.85 12.07Q214.98 11.88 214.35 11.44Q213.73 10.99 213.39 10.28Q213.06 9.58 213.06 8.54L213.06 8.54Q213.06 7.56 213.44 6.89Q213.82 6.22 214.47 5.81Q215.12 5.40 215.96 5.22Q216.80 5.04 217.71 5.04L217.71 5.04Q218.86 5.04 219.75 5.23L219.75 5.23L219.75 4.87Q219.75 4.03 219.22 3.47Q218.70 2.90 217.40 2.90L217.40 2.90Q216.56 2.90 215.78 3.02Q215 3.14 214.52 3.31L214.52 3.31L214.11 0.94Q214.66 0.74 215.67 0.59Q216.68 0.43 217.76 0.43ZM234.82 9.14L235.21 11.52Q235.14 11.57 234.88 11.69Q234.63 11.81 234.22 11.94Q233.82 12.07 233.23 12.17Q232.64 12.26 231.90 12.26L231.90 12.26Q229.86 12.26 228.92 11.05Q227.98 9.84 227.98 7.51L227.98 7.51L227.98-2.06L224.86-2.06L224.86-4.51L230.94-4.51L230.94 7.73Q230.94 8.88 231.39 9.29Q231.85 9.70 232.54 9.70L232.54 9.70Q233.43 9.70 234.03 9.46Q234.63 9.22 234.82 9.14L234.82 9.14Z"/>
    </g>
</svg>