<?xml version="1.0" encoding="UTF-8"?><svg height="26" width="187.8" version="1.1" xmlns="http://www.w3.org/2000/svg"><!--Created by Josélio de S. C. Júnior - 2021 - https://github.com/joseliojunior --><defs><pattern id="pattern" x="3" y="3" width="6" height="6" patternUnits="userSpaceOnUse" patternTransform="rotate(45)"><rect height="6" width="6" fill="#ffffff"/><line x1="0" y1="0" x2="0" y2="6" stroke="#bbbbbb" stroke-width="2" /></pattern></defs><rect height="24" width="185.8" rx="1" ry="1" x="1" y="1" fill="url(#pattern)" /><g transform="translate(0, 8)"><path fill="#000000" d="M23.30 3.60L24.74 3.60Q24.80 3.90 24.93 4.35Q25.06 4.80 25.21 5.34Q25.36 5.89 25.54 6.51Q25.73 7.14 25.90 7.79L25.90 7.79Q25.90 6.96 25.89 6.01Q25.87 5.06 25.86 4.06Q25.84 3.07 25.82 2.06Q25.81 1.04 25.81 0.10L25.81 0.10L27.63 0.10Q27.58 1.31 27.54 2.60Q27.49 3.89 27.42 5.16Q27.36 6.43 27.27 7.66Q27.18 8.90 27.07 10L27.07 10L25.44 10Q25.09 8.99 24.74 7.83Q24.38 6.67 24.03 5.62L24.03 5.62Q23.68 6.62 23.30 7.81Q22.91 8.99 22.59 10L22.59 10L20.96 10Q20.83 8.90 20.74 7.66Q20.64 6.42 20.57 5.14Q20.50 3.87 20.45 2.58Q20.40 1.30 20.37 0.10L20.37 0.10L22.19 0.10Q22.18 1.04 22.16 2.05Q22.14 3.06 22.13 4.06Q22.11 5.06 22.10 6.01Q22.08 6.96 22.08 7.79L22.08 7.79Q22.22 7.28 22.41 6.67Q22.59 6.06 22.76 5.47Q22.93 4.88 23.07 4.38Q23.22 3.89 23.30 3.60L23.30 3.60ZM32.02 8.59L32.02 8.59Q32.34 8.59 32.64 8.58Q32.94 8.58 33.17 8.54L33.17 8.54L33.17 6.82Q32.98 6.78 32.70 6.76Q32.43 6.74 32.21 6.74L32.21 6.74Q31.90 6.74 31.62 6.78Q31.33 6.82 31.11 6.91Q30.90 7.01 30.77 7.18Q30.64 7.36 30.64 7.65L30.64 7.65Q30.64 8.16 31.02 8.38Q31.41 8.59 32.02 8.59ZM31.84 2.29L31.84 2.29Q32.77 2.29 33.38 2.50Q34 2.72 34.37 3.11Q34.74 3.50 34.90 4.07Q35.06 4.64 35.06 5.34L35.06 5.34L35.06 9.82Q34.62 9.92 33.78 10.05Q32.93 10.18 31.87 10.18L31.87 10.18Q31.15 10.18 30.57 10.05Q29.98 9.92 29.57 9.62Q29.15 9.33 28.93 8.86Q28.70 8.38 28.70 7.70L28.70 7.70Q28.70 7.04 28.96 6.59Q29.22 6.14 29.65 5.87Q30.08 5.60 30.64 5.48Q31.20 5.36 31.81 5.36L31.81 5.36Q32.58 5.36 33.17 5.49L33.17 5.49L33.17 5.25Q33.17 4.69 32.82 4.31Q32.46 3.94 31.60 3.94L31.60 3.94Q31.04 3.94 30.52 4.02Q30 4.10 29.68 4.21L29.68 4.21L29.41 2.62Q29.78 2.50 30.45 2.39Q31.12 2.29 31.84 2.29ZM40.75 10L39.10 10Q38.38 8.58 37.64 6.66Q36.90 4.75 36.22 2.48L36.22 2.48L38.29 2.48Q38.43 3.09 38.63 3.78Q38.83 4.46 39.06 5.16Q39.28 5.86 39.51 6.51Q39.74 7.17 39.95 7.71L39.95 7.71Q40.16 7.17 40.42 6.51Q40.67 5.86 40.92 5.16Q41.17 4.46 41.40 3.78Q41.63 3.09 41.78 2.48L41.78 2.48L43.78 2.48Q43.10 4.75 42.29 6.66Q41.47 8.58 40.75 10L40.75 10ZM44.50 6.30L44.50 6.30Q44.50 5.31 44.80 4.56Q45.10 3.81 45.60 3.30Q46.10 2.80 46.74 2.54Q47.38 2.29 48.05 2.29L48.05 2.29Q49.71 2.29 50.58 3.27Q51.44 4.26 51.44 6.14L51.44 6.14Q51.44 6.34 51.43 6.54Q51.42 6.75 51.41 6.88L51.41 6.88L46.53 6.88Q46.53 7.62 47.14 8.04Q47.74 8.46 48.70 8.46L48.70 8.46Q49.30 8.46 49.83 8.34Q50.37 8.21 50.74 8.08L50.74 8.08L51.01 9.76Q50.50 9.94 49.92 10.06Q49.34 10.18 48.62 10.18L48.62 10.18Q47.66 10.18 46.90 9.93Q46.14 9.68 45.61 9.19Q45.07 8.70 44.78 7.98Q44.50 7.26 44.50 6.30ZM46.53 5.52L49.54 5.52Q49.54 5.22 49.46 4.94Q49.38 4.66 49.20 4.43Q49.02 4.21 48.75 4.07Q48.48 3.94 48.08 3.94L48.08 3.94Q47.70 3.94 47.42 4.06Q47.14 4.19 46.95 4.42Q46.77 4.64 46.66 4.93Q46.56 5.22 46.53 5.52L46.53 5.52ZM56.21 10L54.22 10L54.22 4.11L52.58 4.11L52.58 2.48L54.22 2.48L54.22 2.05Q54.22 1.14 54.49 0.54Q54.75-0.06 55.20-0.42Q55.65-0.78 56.22-0.94Q56.80-1.09 57.41-1.09L57.41-1.09Q58.03-1.09 58.69-0.98Q59.34-0.86 59.87-0.61L59.87-0.61L59.54 0.99Q59.17 0.86 58.62 0.73Q58.06 0.59 57.57 0.59L57.57 0.59Q57.30 0.59 57.05 0.64Q56.80 0.69 56.62 0.85Q56.43 1.01 56.32 1.30Q56.21 1.60 56.21 2.08L56.21 2.08L56.21 2.48L59.30 2.48L59.30 4.11L56.21 4.11L56.21 10ZM67.34 2.66L66.99 4.48Q66.80 4.43 66.54 4.38Q66.27 4.34 66 4.30Q65.73 4.26 65.47 4.24Q65.22 4.22 65.04 4.22L65.04 4.22Q64.62 4.22 64.22 4.26Q63.82 4.30 63.41 4.42L63.41 4.42L63.41 10L61.42 10L61.42 2.98Q62.21 2.69 63.03 2.51Q63.86 2.34 64.96 2.34L64.96 2.34Q65.12 2.34 65.42 2.35Q65.71 2.37 66.05 2.41Q66.38 2.45 66.73 2.50Q67.07 2.56 67.34 2.66L67.34 2.66ZM75.55 6.22L75.55 6.22Q75.55 7.12 75.30 7.85Q75.04 8.58 74.58 9.10Q74.11 9.63 73.46 9.92Q72.82 10.21 72.02 10.21L72.02 10.21Q71.22 10.21 70.57 9.92Q69.92 9.63 69.45 9.10Q68.98 8.58 68.72 7.85Q68.46 7.12 68.46 6.22L68.46 6.22Q68.46 5.34 68.73 4.62Q68.99 3.89 69.46 3.37Q69.94 2.85 70.59 2.57Q71.25 2.29 72.02 2.29L72.02 2.29Q72.80 2.29 73.45 2.57Q74.10 2.85 74.57 3.37Q75.04 3.89 75.30 4.62Q75.55 5.34 75.55 6.22ZM70.46 6.24L70.46 6.24Q70.46 7.25 70.82 7.87Q71.18 8.50 71.98 8.50L71.98 8.50Q72.75 8.50 73.14 7.87Q73.54 7.25 73.54 6.24L73.54 6.24Q73.54 5.23 73.18 4.62Q72.82 4 72.02 4L72.02 4Q71.25 4 70.86 4.62Q70.46 5.23 70.46 6.24ZM77.01 10L77.01 2.72Q77.54 2.58 78.31 2.45Q79.09 2.32 80 2.32L80 2.32Q80.90 2.32 81.49 2.57Q82.08 2.82 82.42 3.27Q82.77 3.73 82.91 4.36Q83.06 4.99 83.06 5.76L83.06 5.76L83.06 10L81.09 10L81.09 6.02Q81.09 4.96 80.85 4.50Q80.61 4.03 79.87 4.03L79.87 4.03Q79.65 4.03 79.43 4.05Q79.22 4.06 78.98 4.10L78.98 4.10L78.98 10L77.01 10ZM86.29 7.20L86.29 4.11L84.58 4.11L84.58 2.48L86.29 2.48L86.29 0.59L88.26 0.27L88.26 2.48L91.41 2.48L91.41 4.11L88.26 4.11L88.26 7.15Q88.26 7.57 88.34 7.82Q88.42 8.08 88.56 8.22Q88.70 8.37 88.91 8.42Q89.12 8.46 89.38 8.46L89.38 8.46Q89.65 8.46 89.88 8.45Q90.11 8.43 90.33 8.39Q90.54 8.35 90.78 8.27Q91.01 8.19 91.28 8.06L91.28 8.06L91.55 9.76Q91.01 9.98 90.38 10.08Q89.74 10.18 89.15 10.18L89.15 10.18Q88.46 10.18 87.94 10.06Q87.41 9.95 87.04 9.63Q86.67 9.31 86.48 8.73Q86.29 8.14 86.29 7.20L86.29 7.20ZM100.94 0.10L102.58 0.10Q102.69 0.43 102.86 0.96Q103.02 1.49 103.22 2.10Q103.41 2.70 103.60 3.33Q103.79 3.95 103.97 4.48L103.97 4.48Q104.16 3.89 104.37 3.26Q104.58 2.62 104.77 2.04Q104.96 1.46 105.12 0.94Q105.28 0.43 105.41 0.10L105.41 0.10L107.04 0.10Q107.15 1.39 107.26 2.62Q107.36 3.86 107.43 5.06Q107.50 6.27 107.55 7.50Q107.60 8.72 107.63 10L107.63 10L105.82 10L105.92 2.30L104.70 6.50L103.26 6.50L102.10 2.30L102.18 10L100.37 10Q100.42 8.78 100.47 7.47Q100.53 6.16 100.59 4.86Q100.66 3.57 100.74 2.35Q100.83 1.14 100.94 0.10L100.94 0.10ZM112.02 8.59L112.02 8.59Q112.34 8.59 112.64 8.58Q112.94 8.58 113.17 8.54L113.17 8.54L113.17 6.82Q112.98 6.78 112.70 6.76Q112.43 6.74 112.21 6.74L112.21 6.74Q111.90 6.74 111.62 6.78Q111.33 6.82 111.11 6.91Q110.90 7.01 110.77 7.18Q110.64 7.36 110.64 7.65L110.64 7.65Q110.64 8.16 111.02 8.38Q111.41 8.59 112.02 8.59ZM111.84 2.29L111.84 2.29Q112.77 2.29 113.38 2.50Q114 2.72 114.37 3.11Q114.74 3.50 114.90 4.07Q115.06 4.64 115.06 5.34L115.06 5.34L115.06 9.82Q114.62 9.92 113.78 10.05Q112.93 10.18 111.87 10.18L111.87 10.18Q111.15 10.18 110.57 10.05Q109.98 9.92 109.57 9.62Q109.15 9.33 108.93 8.86Q108.70 8.38 108.70 7.70L108.70 7.70Q108.70 7.04 108.96 6.59Q109.22 6.14 109.65 5.87Q110.08 5.60 110.64 5.48Q111.20 5.36 111.81 5.36L111.81 5.36Q112.58 5.36 113.17 5.49L113.17 5.49L113.17 5.25Q113.17 4.69 112.82 4.31Q112.46 3.94 111.60 3.94L111.60 3.94Q111.04 3.94 110.52 4.02Q110 4.10 109.68 4.21L109.68 4.21L109.41 2.62Q109.78 2.50 110.45 2.39Q111.12 2.29 111.84 2.29ZM118.29 7.20L118.29 4.11L116.58 4.11L116.58 2.48L118.29 2.48L118.29 0.59L120.26 0.27L120.26 2.48L123.41 2.48L123.41 4.11L120.26 4.11L120.26 7.15Q120.26 7.57 120.34 7.82Q120.42 8.08 120.56 8.22Q120.70 8.37 120.91 8.42Q121.12 8.46 121.38 8.46L121.38 8.46Q121.65 8.46 121.88 8.45Q122.11 8.43 122.33 8.39Q122.54 8.35 122.78 8.27Q123.01 8.19 123.28 8.06L123.28 8.06L123.55 9.76Q123.01 9.98 122.38 10.08Q121.74 10.18 121.15 10.18L121.15 10.18Q120.46 10.18 119.94 10.06Q119.41 9.95 119.04 9.63Q118.67 9.31 118.48 8.73Q118.29 8.14 118.29 7.20L118.29 7.20ZM124.50 6.30L124.50 6.30Q124.50 5.31 124.80 4.56Q125.10 3.81 125.60 3.30Q126.10 2.80 126.74 2.54Q127.38 2.29 128.05 2.29L128.05 2.29Q129.71 2.29 130.58 3.27Q131.44 4.26 131.44 6.14L131.44 6.14Q131.44 6.34 131.43 6.54Q131.42 6.75 131.41 6.88L131.41 6.88L126.53 6.88Q126.53 7.62 127.14 8.04Q127.74 8.46 128.70 8.46L128.70 8.46Q129.30 8.46 129.83 8.34Q130.37 8.21 130.74 8.08L130.74 8.08L131.01 9.76Q130.50 9.94 129.92 10.06Q129.34 10.18 128.62 10.18L128.62 10.18Q127.66 10.18 126.90 9.93Q126.14 9.68 125.61 9.19Q125.07 8.70 124.78 7.98Q124.50 7.26 124.50 6.30ZM126.53 5.52L129.54 5.52Q129.54 5.22 129.46 4.94Q129.38 4.66 129.20 4.43Q129.02 4.21 128.75 4.07Q128.48 3.94 128.08 3.94L128.08 3.94Q127.70 3.94 127.42 4.06Q127.14 4.19 126.95 4.42Q126.77 4.64 126.66 4.93Q126.56 5.22 126.53 5.52L126.53 5.52ZM139.34 2.66L138.99 4.48Q138.80 4.43 138.54 4.38Q138.27 4.34 138 4.30Q137.73 4.26 137.47 4.24Q137.22 4.22 137.04 4.22L137.04 4.22Q136.62 4.22 136.22 4.26Q135.82 4.30 135.41 4.42L135.41 4.42L135.41 10L133.42 10L133.42 2.98Q134.21 2.69 135.03 2.51Q135.86 2.34 136.96 2.34L136.96 2.34Q137.12 2.34 137.42 2.35Q137.71 2.37 138.05 2.41Q138.38 2.45 138.73 2.50Q139.07 2.56 139.34 2.66L139.34 2.66ZM144.54 0.32L144.54 0.32Q144.54 0.90 144.18 1.23Q143.81 1.57 143.30 1.57L143.30 1.57Q142.78 1.57 142.42 1.23Q142.06 0.90 142.06 0.32L142.06 0.32Q142.06-0.27 142.42-0.61Q142.78-0.94 143.30-0.94L143.30-0.94Q143.81-0.94 144.18-0.61Q144.54-0.27 144.54 0.32ZM147.22 8.10L147.47 9.68Q146.86 9.97 146.33 10.07Q145.79 10.18 145.34 10.18L145.34 10.18Q144.58 10.18 144.06 9.95Q143.54 9.73 143.22 9.30Q142.91 8.88 142.78 8.27Q142.66 7.66 142.66 6.88L142.66 6.88L142.66 4.11L140.58 4.11L140.58 2.48L144.62 2.48L144.62 7.14Q144.62 7.81 144.87 8.14Q145.12 8.46 145.70 8.46L145.70 8.46Q145.97 8.46 146.35 8.39Q146.74 8.32 147.22 8.10L147.22 8.10ZM152.02 8.59L152.02 8.59Q152.34 8.59 152.64 8.58Q152.94 8.58 153.17 8.54L153.17 8.54L153.17 6.82Q152.98 6.78 152.70 6.76Q152.43 6.74 152.21 6.74L152.21 6.74Q151.90 6.74 151.62 6.78Q151.33 6.82 151.11 6.91Q150.90 7.01 150.77 7.18Q150.64 7.36 150.64 7.65L150.64 7.65Q150.64 8.16 151.02 8.38Q151.41 8.59 152.02 8.59ZM151.84 2.29L151.84 2.29Q152.77 2.29 153.38 2.50Q154 2.72 154.37 3.11Q154.74 3.50 154.90 4.07Q155.06 4.64 155.06 5.34L155.06 5.34L155.06 9.82Q154.62 9.92 153.78 10.05Q152.93 10.18 151.87 10.18L151.87 10.18Q151.15 10.18 150.57 10.05Q149.98 9.92 149.57 9.62Q149.15 9.33 148.93 8.86Q148.70 8.38 148.70 7.70L148.70 7.70Q148.70 7.04 148.96 6.59Q149.22 6.14 149.65 5.87Q150.08 5.60 150.64 5.48Q151.20 5.36 151.81 5.36L151.81 5.36Q152.58 5.36 153.17 5.49L153.17 5.49L153.17 5.25Q153.17 4.69 152.82 4.31Q152.46 3.94 151.60 3.94L151.60 3.94Q151.04 3.94 150.52 4.02Q150 4.10 149.68 4.21L149.68 4.21L149.41 2.62Q149.78 2.50 150.45 2.39Q151.12 2.29 151.84 2.29ZM163.22 8.10L163.47 9.68Q163.42 9.71 163.26 9.79Q163.09 9.87 162.82 9.96Q162.54 10.05 162.15 10.11Q161.76 10.18 161.26 10.18L161.26 10.18Q159.90 10.18 159.28 9.37Q158.66 8.56 158.66 7.01L158.66 7.01L158.66 0.62L156.58 0.62L156.58-1.01L160.62-1.01L160.62 7.15Q160.62 7.92 160.93 8.19Q161.23 8.46 161.70 8.46L161.70 8.46Q162.29 8.46 162.69 8.30Q163.09 8.14 163.22 8.10L163.22 8.10Z"/></g></svg>