<?xml version="1.0" encoding="UTF-8"?><svg height="26" width="82.5" version="1.1" xmlns="http://www.w3.org/2000/svg"><!--Created by Josélio de S. C. Júnior - 2021 - https://github.com/joseliojunior --><rect height="24" width="80.5" rx="1" ry="1" x="1" y="1" fill="#DA3434" stroke="#631212" stroke-width="1" /><g transform="translate(0, 8)"><path fill="#631212" d="M24.74 10.21L24.74 10.21Q22.64 10.21 21.54 8.86Q20.43 7.52 20.43 5.04L20.43 5.04Q20.43 3.81 20.77 2.85Q21.10 1.89 21.70 1.22Q22.30 0.56 23.13 0.22Q23.95-0.13 24.93-0.13L24.93-0.13Q25.46-0.13 25.88-0.04Q26.30 0.05 26.62 0.16Q26.94 0.27 27.16 0.40Q27.38 0.53 27.49 0.59L27.49 0.59L26.98 2.16Q26.61 1.92 26.09 1.75Q25.57 1.58 24.90 1.58L24.90 1.58Q24.43 1.58 23.99 1.75Q23.55 1.92 23.21 2.31Q22.86 2.70 22.65 3.36Q22.43 4.02 22.43 4.99L22.43 4.99Q22.43 6.69 23.02 7.59Q23.60 8.50 24.93 8.50L24.93 8.50Q25.70 8.50 26.20 8.32Q26.70 8.14 27.01 7.97L27.01 7.97L27.50 9.52Q27.09 9.78 26.38 9.99Q25.66 10.21 24.74 10.21ZM28.94 0.10L30.58 0.10Q30.69 0.43 30.86 0.96Q31.02 1.49 31.22 2.10Q31.41 2.70 31.60 3.33Q31.79 3.95 31.97 4.48L31.97 4.48Q32.16 3.89 32.37 3.26Q32.58 2.62 32.77 2.04Q32.96 1.46 33.12 0.94Q33.28 0.43 33.41 0.10L33.41 0.10L35.04 0.10Q35.15 1.39 35.26 2.62Q35.36 3.86 35.43 5.06Q35.50 6.27 35.55 7.50Q35.60 8.72 35.63 10L35.63 10L33.82 10L33.92 2.30L32.70 6.50L31.26 6.50L30.10 2.30L30.18 10L28.37 10Q28.42 8.78 28.47 7.47Q28.53 6.16 28.59 4.86Q28.66 3.57 28.74 2.35Q28.83 1.14 28.94 0.10L28.94 0.10ZM40.02 8.59L40.02 8.59Q40.34 8.59 40.64 8.58Q40.94 8.58 41.17 8.54L41.17 8.54L41.17 6.82Q40.98 6.78 40.70 6.76Q40.43 6.74 40.21 6.74L40.21 6.74Q39.90 6.74 39.62 6.78Q39.33 6.82 39.11 6.91Q38.90 7.01 38.77 7.18Q38.64 7.36 38.64 7.65L38.64 7.65Q38.64 8.16 39.02 8.38Q39.41 8.59 40.02 8.59ZM39.84 2.29L39.84 2.29Q40.77 2.29 41.38 2.50Q42 2.72 42.37 3.11Q42.74 3.50 42.90 4.07Q43.06 4.64 43.06 5.34L43.06 5.34L43.06 9.82Q42.62 9.92 41.78 10.05Q40.93 10.18 39.87 10.18L39.87 10.18Q39.15 10.18 38.57 10.05Q37.98 9.92 37.57 9.62Q37.15 9.33 36.93 8.86Q36.70 8.38 36.70 7.70L36.70 7.70Q36.70 7.04 36.96 6.59Q37.22 6.14 37.65 5.87Q38.08 5.60 38.64 5.48Q39.20 5.36 39.81 5.36L39.81 5.36Q40.58 5.36 41.17 5.49L41.17 5.49L41.17 5.25Q41.17 4.69 40.82 4.31Q40.46 3.94 39.60 3.94L39.60 3.94Q39.04 3.94 38.52 4.02Q38 4.10 37.68 4.21L37.68 4.21L37.41 2.62Q37.78 2.50 38.45 2.39Q39.12 2.29 39.84 2.29ZM46.99-1.10L46.99 5.46Q47.28 5.12 47.58 4.74Q47.87 4.37 48.15 3.97Q48.43 3.57 48.69 3.19Q48.94 2.82 49.14 2.48L49.14 2.48L51.50 2.48Q51.22 2.85 50.85 3.28Q50.48 3.71 50.09 4.16Q49.70 4.61 49.30 5.02Q48.91 5.44 48.59 5.79L48.59 5.79Q48.99 6.18 49.46 6.71Q49.92 7.25 50.37 7.82Q50.82 8.40 51.19 8.98Q51.57 9.55 51.79 10L51.79 10L49.54 10Q49.34 9.60 49.03 9.10Q48.72 8.59 48.37 8.10Q48.02 7.62 47.66 7.18Q47.30 6.74 46.99 6.45L46.99 6.45L46.99 10L45.01 10L45.01-0.77L46.99-1.10ZM52.50 6.30L52.50 6.30Q52.50 5.31 52.80 4.56Q53.10 3.81 53.60 3.30Q54.10 2.80 54.74 2.54Q55.38 2.29 56.05 2.29L56.05 2.29Q57.71 2.29 58.58 3.27Q59.44 4.26 59.44 6.14L59.44 6.14Q59.44 6.34 59.43 6.54Q59.42 6.75 59.41 6.88L59.41 6.88L54.53 6.88Q54.53 7.62 55.14 8.04Q55.74 8.46 56.70 8.46L56.70 8.46Q57.30 8.46 57.83 8.34Q58.37 8.21 58.74 8.08L58.74 8.08L59.01 9.76Q58.50 9.94 57.92 10.06Q57.34 10.18 56.62 10.18L56.62 10.18Q55.66 10.18 54.90 9.93Q54.14 9.68 53.61 9.19Q53.07 8.70 52.78 7.98Q52.50 7.26 52.50 6.30ZM54.53 5.52L57.54 5.52Q57.54 5.22 57.46 4.94Q57.38 4.66 57.20 4.43Q57.02 4.21 56.75 4.07Q56.48 3.94 56.08 3.94L56.08 3.94Q55.70 3.94 55.42 4.06Q55.14 4.19 54.95 4.42Q54.77 4.64 54.66 4.93Q54.56 5.22 54.53 5.52L54.53 5.52Z"/></g></svg>