<?xml version="1.0" encoding="UTF-8"?>
<svg height="34" width="92.5" version="1.1" xmlns="http://www.w3.org/2000/svg">
    <rect
        height="32"
        width="90.5"
        rx="1"
        ry="1"
        x="1"
        y="1"
        fill="#DA3434"
        stroke="#631212"
        stroke-width="1"
         />
    <g transform="translate(0, 14)">
        <path fill="#631212" d="M18.29 11.36L18.29 11.36Q14.62 11.36 12.69 9.01Q10.76 6.66 10.76 2.32L10.76 2.32Q10.76 0.16 11.34-1.52Q11.93-3.20 12.98-4.36Q14.03-5.52 15.47-6.12Q16.92-6.72 18.62-6.72L18.62-6.72Q19.55-6.72 20.29-6.57Q21.03-6.42 21.59-6.22Q22.15-6.02 22.53-5.80Q22.91-5.58 23.10-5.46L23.10-5.46L22.21-2.72Q21.56-3.14 20.65-3.43Q19.74-3.73 18.57-3.73L18.57-3.73Q17.76-3.73 16.99-3.43Q16.22-3.14 15.61-2.45Q15.01-1.77 14.63-0.62Q14.26 0.53 14.26 2.24L14.26 2.24Q14.26 5.20 15.28 6.79Q16.30 8.37 18.62 8.37L18.62 8.37Q19.97 8.37 20.85 8.06Q21.73 7.75 22.26 7.44L22.26 7.44L23.13 10.16Q22.40 10.61 21.16 10.99Q19.91 11.36 18.29 11.36ZM25.65-6.33L28.51-6.33Q28.70-5.74 29.00-4.82Q29.29-3.90 29.63-2.83Q29.96-1.77 30.30-0.68Q30.64 0.42 30.94 1.34L30.94 1.34Q31.28 0.30 31.64-0.80Q32.01-1.91 32.34-2.93Q32.68-3.95 32.96-4.85Q33.24-5.74 33.46-6.33L33.46-6.33L36.32-6.33Q36.52-4.06 36.70-1.91Q36.88 0.25 37.01 2.36Q37.13 4.48 37.22 6.62Q37.30 8.76 37.36 11L37.36 11L34.19 11L34.36-2.47L32.23 4.87L29.71 4.87L27.67-2.47L27.81 11L24.64 11Q24.73 8.87 24.83 6.58Q24.92 4.28 25.04 2.01Q25.15-0.26 25.30-2.38Q25.46-4.51 25.65-6.33L25.65-6.33ZM45.03 8.54L45.03 8.54Q45.59 8.54 46.12 8.52Q46.65 8.51 47.04 8.45L47.04 8.45L47.04 5.43Q46.71 5.37 46.23 5.33Q45.76 5.29 45.36 5.29L45.36 5.29Q44.83 5.29 44.33 5.36Q43.82 5.43 43.45 5.60Q43.07 5.76 42.84 6.07Q42.62 6.38 42.62 6.88L42.62 6.88Q42.62 7.78 43.29 8.16Q43.96 8.54 45.03 8.54ZM44.72-2.50L44.72-2.50Q46.34-2.50 47.42-2.12Q48.50-1.74 49.14-1.05Q49.79-0.37 50.07 0.63Q50.35 1.62 50.35 2.85L50.35 2.85L50.35 10.69Q49.59 10.86 48.11 11.08Q46.62 11.31 44.78 11.31L44.78 11.31Q43.52 11.31 42.49 11.08Q41.47 10.86 40.74 10.34Q40.02 9.82 39.62 9.00Q39.23 8.17 39.23 6.97L39.23 6.97Q39.23 5.82 39.68 5.04Q40.13 4.25 40.88 3.78Q41.64 3.30 42.62 3.09Q43.60 2.88 44.66 2.88L44.66 2.88Q46.01 2.88 47.04 3.10L47.04 3.10L47.04 2.68Q47.04 1.70 46.43 1.05Q45.81 0.39 44.30 0.39L44.30 0.39Q43.32 0.39 42.41 0.53Q41.50 0.67 40.94 0.86L40.94 0.86L40.46-1.91Q41.11-2.13 42.28-2.31Q43.46-2.50 44.72-2.50ZM57.24-8.43L57.24 3.05Q57.74 2.46 58.26 1.80Q58.78 1.14 59.27 0.44Q59.76-0.26 60.20-0.91Q60.65-1.57 60.99-2.16L60.99-2.16L65.13-2.16Q64.63-1.52 63.98-0.76Q63.34-0.00 62.65 0.78Q61.97 1.56 61.28 2.29Q60.60 3.02 60.04 3.64L60.04 3.64Q60.74 4.31 61.55 5.25Q62.36 6.18 63.14 7.19Q63.93 8.20 64.59 9.21Q65.24 10.22 65.64 11L65.64 11L61.69 11Q61.35 10.30 60.81 9.42Q60.26 8.54 59.64 7.68Q59.03 6.83 58.40 6.06Q57.77 5.29 57.24 4.78L57.24 4.78L57.24 11L53.76 11L53.76-7.84L57.24-8.43ZM66.87 4.53L66.87 4.53Q66.87 2.80 67.40 1.48Q67.93 0.16 68.80-0.72Q69.67-1.60 70.79-2.05Q71.91-2.50 73.08-2.50L73.08-2.50Q76.00-2.50 77.51-0.77Q79.02 0.95 79.02 4.25L79.02 4.25Q79.02 4.59 79.01 4.95Q78.99 5.32 78.96 5.54L78.96 5.54L70.42 5.54Q70.42 6.83 71.49 7.57Q72.55 8.31 74.23 8.31L74.23 8.31Q75.27 8.31 76.21 8.09Q77.14 7.86 77.79 7.64L77.79 7.64L78.26 10.58Q77.37 10.89 76.36 11.10Q75.35 11.31 74.09 11.31L74.09 11.31Q72.41 11.31 71.08 10.87Q69.75 10.44 68.81 9.59Q67.88 8.73 67.37 7.47Q66.87 6.21 66.87 4.53ZM70.42 3.16L75.69 3.16Q75.69 2.63 75.55 2.14Q75.41 1.65 75.10 1.26Q74.79 0.86 74.32 0.63Q73.84 0.39 73.14 0.39L73.14 0.39Q72.47 0.39 71.98 0.61Q71.49 0.84 71.17 1.23Q70.84 1.62 70.66 2.12Q70.48 2.63 70.42 3.16L70.42 3.16Z"/>
    </g>
</svg>