<?xml version="1.0" encoding="UTF-8"?>
<svg height="26" width="106.8" version="1.1" xmlns="http://www.w3.org/2000/svg"><!--Created by Josélio de S. C. Júnior - 2021 - https://github.com/joseliojunior -->
    <rect
        height="24"
        width="104.8"
        rx="12"
        ry="12"
        x="1" y="1"
        fill="#3ac486"
        stroke="#174f36"
        stroke-width="1" />
    <g transform="translate(0, 8)">
        <path fill="#174f36" d="M27.26 10L25.68 10Q25.01 8.35 24.22 6.71Q23.42 5.07 22.51 3.42L22.51 3.42L22.51 10L20.74 10L20.74 0.10L22.32 0.10Q22.77 0.80 23.22 1.62Q23.66 2.45 24.09 3.26Q24.51 4.08 24.87 4.85Q25.23 5.62 25.49 6.19L25.49 6.19L25.49 0.10L27.26 0.10L27.26 10ZM28.50 6.30L28.50 6.30Q28.50 5.31 28.80 4.56Q29.10 3.81 29.60 3.30Q30.10 2.80 30.74 2.54Q31.38 2.29 32.05 2.29L32.05 2.29Q33.71 2.29 34.58 3.27Q35.44 4.26 35.44 6.14L35.44 6.14Q35.44 6.34 35.43 6.54Q35.42 6.75 35.41 6.88L35.41 6.88L30.53 6.88Q30.53 7.62 31.14 8.04Q31.74 8.46 32.70 8.46L32.70 8.46Q33.30 8.46 33.83 8.34Q34.37 8.21 34.74 8.08L34.74 8.08L35.01 9.76Q34.50 9.94 33.92 10.06Q33.34 10.18 32.62 10.18L32.62 10.18Q31.66 10.18 30.90 9.93Q30.14 9.68 29.61 9.19Q29.07 8.70 28.78 7.98Q28.50 7.26 28.50 6.30ZM30.53 5.52L33.54 5.52Q33.54 5.22 33.46 4.94Q33.38 4.66 33.20 4.43Q33.02 4.21 32.75 4.07Q32.48 3.94 32.08 3.94L32.08 3.94Q31.70 3.94 31.42 4.06Q31.14 4.19 30.95 4.42Q30.77 4.64 30.66 4.93Q30.56 5.22 30.53 5.52L30.53 5.52ZM38.40 2.48L40.06 4.83L41.60 2.48L43.60 2.48L41.17 6.10Q41.55 6.56 41.92 7.08Q42.29 7.60 42.62 8.13Q42.96 8.66 43.23 9.14Q43.50 9.62 43.70 10L43.70 10L41.65 10Q41.22 9.18 40.78 8.54Q40.35 7.90 39.97 7.39L39.97 7.39Q39.49 8.03 39.10 8.64Q38.72 9.25 38.32 10L38.32 10L36.32 10Q36.56 9.55 36.87 9.06Q37.18 8.58 37.53 8.07Q37.87 7.57 38.25 7.07Q38.62 6.58 38.98 6.13L38.98 6.13L36.34 2.48L38.40 2.48ZM46.29 7.20L46.29 4.11L44.58 4.11L44.58 2.48L46.29 2.48L46.29 0.59L48.26 0.27L48.26 2.48L51.41 2.48L51.41 4.11L48.26 4.11L48.26 7.15Q48.26 7.57 48.34 7.82Q48.42 8.08 48.56 8.22Q48.70 8.37 48.91 8.42Q49.12 8.46 49.38 8.46L49.38 8.46Q49.65 8.46 49.88 8.45Q50.11 8.43 50.33 8.39Q50.54 8.35 50.78 8.27Q51.01 8.19 51.28 8.06L51.28 8.06L51.55 9.76Q51.01 9.98 50.38 10.08Q49.74 10.18 49.15 10.18L49.15 10.18Q48.46 10.18 47.94 10.06Q47.41 9.95 47.04 9.63Q46.67 9.31 46.48 8.73Q46.29 8.14 46.29 7.20L46.29 7.20ZM56.21 10L54.22 10L54.22 4.11L52.58 4.11L52.58 2.48L54.22 2.48L54.22 2.05Q54.22 1.14 54.49 0.54Q54.75-0.06 55.20-0.42Q55.65-0.78 56.22-0.94Q56.80-1.09 57.41-1.09L57.41-1.09Q58.03-1.09 58.69-0.98Q59.34-0.86 59.87-0.61L59.87-0.61L59.54 0.99Q59.17 0.86 58.62 0.73Q58.06 0.59 57.57 0.59L57.57 0.59Q57.30 0.59 57.05 0.64Q56.80 0.69 56.62 0.85Q56.43 1.01 56.32 1.30Q56.21 1.60 56.21 2.08L56.21 2.08L56.21 2.48L59.30 2.48L59.30 4.11L56.21 4.11L56.21 10ZM67.22 8.10L67.47 9.68Q67.42 9.71 67.26 9.79Q67.09 9.87 66.82 9.96Q66.54 10.05 66.15 10.11Q65.76 10.18 65.26 10.18L65.26 10.18Q63.90 10.18 63.28 9.37Q62.66 8.56 62.66 7.01L62.66 7.01L62.66 0.62L60.58 0.62L60.58-1.01L64.62-1.01L64.62 7.15Q64.62 7.92 64.93 8.19Q65.23 8.46 65.70 8.46L65.70 8.46Q66.29 8.46 66.69 8.30Q67.09 8.14 67.22 8.10L67.22 8.10ZM75.55 6.22L75.55 6.22Q75.55 7.12 75.30 7.85Q75.04 8.58 74.58 9.10Q74.11 9.63 73.46 9.92Q72.82 10.21 72.02 10.21L72.02 10.21Q71.22 10.21 70.57 9.92Q69.92 9.63 69.45 9.10Q68.98 8.58 68.72 7.85Q68.46 7.12 68.46 6.22L68.46 6.22Q68.46 5.34 68.73 4.62Q68.99 3.89 69.46 3.37Q69.94 2.85 70.59 2.57Q71.25 2.29 72.02 2.29L72.02 2.29Q72.80 2.29 73.45 2.57Q74.10 2.85 74.57 3.37Q75.04 3.89 75.30 4.62Q75.55 5.34 75.55 6.22ZM70.46 6.24L70.46 6.24Q70.46 7.25 70.82 7.87Q71.18 8.50 71.98 8.50L71.98 8.50Q72.75 8.50 73.14 7.87Q73.54 7.25 73.54 6.24L73.54 6.24Q73.54 5.23 73.18 4.62Q72.82 4 72.02 4L72.02 4Q71.25 4 70.86 4.62Q70.46 5.23 70.46 6.24ZM82.64 10L81.15 10Q80.98 9.50 80.82 9.09Q80.67 8.67 80.54 8.28Q80.40 7.89 80.26 7.46Q80.13 7.04 79.98 6.53L79.98 6.53Q79.82 7.04 79.70 7.45Q79.57 7.86 79.43 8.26Q79.30 8.66 79.15 9.07Q79.01 9.49 78.80 10L78.80 10L77.31 10Q77.12 9.30 76.95 8.44Q76.78 7.58 76.64 6.62Q76.50 5.65 76.38 4.61Q76.27 3.57 76.18 2.48L76.18 2.48L77.86 2.48Q77.92 3.87 77.99 5.20Q78.06 6.53 78.26 7.94L78.26 7.94Q78.46 7.33 78.62 6.81Q78.77 6.29 78.89 5.82Q79.01 5.34 79.11 4.90Q79.22 4.46 79.33 4L79.33 4L80.75 4Q80.85 4.46 80.95 4.90Q81.06 5.34 81.18 5.82Q81.30 6.29 81.43 6.81Q81.57 7.33 81.76 7.94L81.76 7.94Q81.86 7.20 81.92 6.53Q81.98 5.86 82.02 5.19Q82.06 4.53 82.09 3.86Q82.11 3.20 82.14 2.48L82.14 2.48L83.82 2.48Q83.65 4.67 83.34 6.61Q83.02 8.54 82.64 10L82.64 10Z"/>
    </g>
</svg>