<?xml version="1.0" encoding="UTF-8"?>
<svg height="34" width="138.8" version="1.1" xmlns="http://www.w3.org/2000/svg">
    <rect
        height="32"
        width="136.8"
        rx="16"
        ry="16"
        x="1"
        y="1"
        fill="#3ac486"
        stroke="#174f36"
        stroke-width="1"
         />
    <g transform="translate(0, 12)">
        <path fill="#174f36" d="M30.90 12L28.52 12Q27.51 9.53 26.32 7.07Q25.14 4.61 23.77 2.14L23.77 2.14L23.77 12L21.10 12L21.10-2.86L23.48-2.86Q24.15-1.80 24.82-0.56Q25.50 0.67 26.13 1.90Q26.77 3.12 27.31 4.27Q27.85 5.42 28.23 6.29L28.23 6.29L28.23-2.86L30.90-2.86L30.90 12ZM32.74 6.46L32.74 6.46Q32.74 4.97 33.20 3.84Q33.66 2.71 34.40 1.96Q35.14 1.20 36.10 0.82Q37.06 0.43 38.07 0.43L38.07 0.43Q40.57 0.43 41.86 1.91Q43.16 3.38 43.16 6.22L43.16 6.22Q43.16 6.50 43.15 6.82Q43.14 7.13 43.11 7.32L43.11 7.32L35.79 7.32Q35.79 8.42 36.70 9.06Q37.62 9.70 39.06 9.70L39.06 9.70Q39.94 9.70 40.75 9.50Q41.55 9.31 42.10 9.12L42.10 9.12L42.51 11.64Q41.74 11.90 40.88 12.08Q40.02 12.26 38.94 12.26L38.94 12.26Q37.50 12.26 36.36 11.89Q35.22 11.52 34.41 10.79Q33.61 10.06 33.18 8.98Q32.74 7.90 32.74 6.46ZM35.79 5.28L40.30 5.28Q40.30 4.82 40.18 4.40Q40.06 3.98 39.80 3.65Q39.54 3.31 39.13 3.11Q38.72 2.90 38.12 2.90L38.12 2.90Q37.54 2.90 37.12 3.10Q36.70 3.29 36.43 3.62Q36.15 3.96 36.00 4.39Q35.84 4.82 35.79 5.28L35.79 5.28ZM47.60 0.72L50.10 4.25L52.40 0.72L55.40 0.72L51.75 6.14Q52.33 6.84 52.88 7.62Q53.43 8.40 53.94 9.19Q54.44 9.98 54.85 10.70Q55.26 11.42 55.54 12L55.54 12L52.47 12Q51.82 10.78 51.18 9.82Q50.53 8.86 49.95 8.09L49.95 8.09Q49.23 9.05 48.66 9.96Q48.08 10.87 47.48 12L47.48 12L44.48 12Q44.84 11.33 45.31 10.60Q45.78 9.86 46.29 9.11Q46.81 8.35 47.37 7.61Q47.94 6.86 48.46 6.19L48.46 6.19L44.50 0.72L47.60 0.72ZM59.43 7.80L59.43 3.17L56.86 3.17L56.86 0.72L59.43 0.72L59.43-2.11L62.38-2.59L62.38 0.72L67.11 0.72L67.11 3.17L62.38 3.17L62.38 7.73Q62.38 8.35 62.50 8.74Q62.62 9.12 62.84 9.34Q63.06 9.55 63.37 9.62Q63.68 9.70 64.06 9.70L64.06 9.70Q64.47 9.70 64.82 9.67Q65.17 9.65 65.49 9.59Q65.82 9.53 66.16 9.41Q66.51 9.29 66.92 9.10L66.92 9.10L67.33 11.64Q66.51 11.98 65.56 12.12Q64.62 12.26 63.73 12.26L63.73 12.26Q62.70 12.26 61.90 12.10Q61.11 11.93 60.56 11.45Q60.01 10.97 59.72 10.09Q59.43 9.22 59.43 7.80L59.43 7.80ZM74.31 12L71.34 12L71.34 3.17L68.86 3.17L68.86 0.72L71.34 0.72L71.34 0.07Q71.34-1.30 71.73-2.20Q72.13-3.10 72.80-3.64Q73.47-4.18 74.34-4.40Q75.20-4.63 76.11-4.63L76.11-4.63Q77.05-4.63 78.03-4.46Q79.02-4.30 79.81-3.91L79.81-3.91L79.30-1.51Q78.75-1.70 77.92-1.91Q77.10-2.11 76.35-2.11L76.35-2.11Q75.94-2.11 75.57-2.04Q75.20-1.97 74.92-1.73Q74.65-1.49 74.48-1.04Q74.31-0.60 74.31 0.12L74.31 0.12L74.31 0.72L78.94 0.72L78.94 3.17L74.31 3.17L74.31 12ZM90.82 9.14L91.21 11.52Q91.14 11.57 90.88 11.69Q90.63 11.81 90.22 11.94Q89.82 12.07 89.23 12.17Q88.64 12.26 87.90 12.26L87.90 12.26Q85.86 12.26 84.92 11.05Q83.98 9.84 83.98 7.51L83.98 7.51L83.98-2.06L80.86-2.06L80.86-4.51L86.94-4.51L86.94 7.73Q86.94 8.88 87.39 9.29Q87.85 9.70 88.54 9.70L88.54 9.70Q89.43 9.70 90.03 9.46Q90.63 9.22 90.82 9.14L90.82 9.14ZM103.33 6.34L103.33 6.34Q103.33 7.68 102.94 8.77Q102.56 9.86 101.86 10.66Q101.17 11.45 100.20 11.88Q99.22 12.31 98.02 12.31L98.02 12.31Q96.82 12.31 95.85 11.88Q94.88 11.45 94.17 10.66Q93.46 9.86 93.08 8.77Q92.70 7.68 92.70 6.34L92.70 6.34Q92.70 5.02 93.09 3.92Q93.49 2.83 94.20 2.05Q94.90 1.27 95.89 0.85Q96.87 0.43 98.02 0.43L98.02 0.43Q99.20 0.43 100.17 0.85Q101.14 1.27 101.85 2.05Q102.56 2.83 102.94 3.92Q103.33 5.02 103.33 6.34ZM95.70 6.36L95.70 6.36Q95.70 7.87 96.24 8.81Q96.78 9.74 97.98 9.74L97.98 9.74Q99.13 9.74 99.72 8.81Q100.30 7.87 100.30 6.36L100.30 6.36Q100.30 4.85 99.76 3.92Q99.22 3 98.02 3L98.02 3Q96.87 3 96.28 3.92Q95.70 4.85 95.70 6.36ZM113.96 12L111.73 12Q111.46 11.26 111.24 10.63Q111.01 10.01 110.80 9.42Q110.60 8.83 110.40 8.20Q110.19 7.56 109.98 6.79L109.98 6.79Q109.74 7.56 109.54 8.17Q109.35 8.78 109.15 9.38Q108.94 9.98 108.73 10.61Q108.51 11.23 108.20 12L108.20 12L105.97 12Q105.68 10.94 105.43 9.66Q105.18 8.38 104.96 6.92Q104.74 5.47 104.58 3.91Q104.41 2.35 104.26 0.72L104.26 0.72L106.78 0.72Q106.88 2.81 106.99 4.80Q107.10 6.79 107.38 8.90L107.38 8.90Q107.70 7.99 107.92 7.21Q108.15 6.43 108.33 5.72Q108.51 5.02 108.67 4.36Q108.82 3.70 108.99 3L108.99 3L111.13 3Q111.27 3.70 111.43 4.36Q111.58 5.02 111.76 5.72Q111.94 6.43 112.15 7.21Q112.35 7.99 112.64 8.90L112.64 8.90Q112.78 7.80 112.88 6.79Q112.98 5.78 113.04 4.79Q113.10 3.79 113.13 2.80Q113.17 1.80 113.22 0.72L113.22 0.72L115.74 0.72Q115.47 4.01 115.00 6.91Q114.54 9.82 113.96 12L113.96 12Z"/>
    </g>
</svg>