<?xml version="1.0" encoding="UTF-8"?>
<svg height="34" width="90.4" version="1.1" xmlns="http://www.w3.org/2000/svg"><!--Created by Josélio de S. C. Júnior - 2021 - https://github.com/joseliojunior -->
    <rect
        height="32"
        width="88.4"
        rx="16"
        ry="16"
        x="1" y="1"
        fill="#ece2a9"
        stroke="#a39024"
        stroke-width="1" />
    <g transform="translate(0, 12)">
        <path fill="#a39024" d="M27.97-2.86L30.92-2.86L30.92 12L27.97 12L27.97 5.45L24.03 5.45L24.03 12L21.08 12L21.08-2.86L24.03-2.86L24.03 3L27.97 3L27.97-2.86ZM38.02 9.89L38.02 9.89Q38.50 9.89 38.96 9.88Q39.42 9.86 39.75 9.82L39.75 9.82L39.75 7.22Q39.46 7.18 39.06 7.14Q38.65 7.10 38.31 7.10L38.31 7.10Q37.86 7.10 37.42 7.16Q36.99 7.22 36.67 7.37Q36.34 7.51 36.15 7.78Q35.96 8.04 35.96 8.47L35.96 8.47Q35.96 9.24 36.54 9.56Q37.11 9.89 38.02 9.89ZM37.76 0.43L37.76 0.43Q39.15 0.43 40.08 0.76Q41 1.08 41.55 1.67Q42.10 2.26 42.34 3.11Q42.58 3.96 42.58 5.02L42.58 5.02L42.58 11.74Q41.94 11.88 40.66 12.07Q39.39 12.26 37.81 12.26L37.81 12.26Q36.73 12.26 35.85 12.07Q34.98 11.88 34.35 11.44Q33.73 10.99 33.39 10.28Q33.06 9.58 33.06 8.54L33.06 8.54Q33.06 7.56 33.44 6.89Q33.82 6.22 34.47 5.81Q35.12 5.40 35.96 5.22Q36.80 5.04 37.71 5.04L37.71 5.04Q38.86 5.04 39.75 5.23L39.75 5.23L39.75 4.87Q39.75 4.03 39.22 3.47Q38.70 2.90 37.40 2.90L37.40 2.90Q36.56 2.90 35.78 3.02Q35 3.14 34.52 3.31L34.52 3.31L34.11 0.94Q34.66 0.74 35.67 0.59Q36.68 0.43 37.76 0.43ZM52.23 0.60L52.23 0.60Q53.17 0.60 53.77 0.89Q54.37 1.18 54.72 1.75Q55.06 2.33 55.18 3.20Q55.30 4.08 55.30 5.26L55.30 5.26L55.30 12L52.90 12L52.90 5.11Q52.90 4.44 52.82 4.03Q52.74 3.62 52.60 3.41Q52.47 3.19 52.29 3.12Q52.11 3.05 51.92 3.05L51.92 3.05Q51.70 3.05 51.46 3.08Q51.22 3.12 51.03 3.22L51.03 3.22Q51.10 3.67 51.15 4.22Q51.20 4.78 51.20 5.45L51.20 5.45L51.20 7.70L48.80 7.70L48.80 5.11Q48.80 3.96 48.57 3.50Q48.34 3.05 47.84 3.05L47.84 3.05Q47.70 3.05 47.49 3.07Q47.29 3.10 47.10 3.14L47.10 3.14L47.10 12L44.70 12L44.70 1.15Q45.63 0.89 46.54 0.74Q47.46 0.60 48.15 0.60L48.15 0.60Q48.78 0.60 49.27 0.76Q49.76 0.91 50.12 1.27L50.12 1.27Q50.53 1.01 51.08 0.80Q51.63 0.60 52.23 0.60ZM66.82 9.14L67.21 11.52Q67.14 11.57 66.88 11.69Q66.63 11.81 66.22 11.94Q65.82 12.07 65.23 12.17Q64.64 12.26 63.90 12.26L63.90 12.26Q61.86 12.26 60.92 11.05Q59.98 9.84 59.98 7.51L59.98 7.51L59.98-2.06L56.86-2.06L56.86-4.51L62.94-4.51L62.94 7.73Q62.94 8.88 63.39 9.29Q63.85 9.70 64.54 9.70L64.54 9.70Q65.43 9.70 66.03 9.46Q66.63 9.22 66.82 9.14L66.82 9.14Z"/>
    </g>
</svg>