<?xml version="1.0" encoding="UTF-8"?><svg height="26" width="74.4" version="1.1" xmlns="http://www.w3.org/2000/svg"><!--Created by Josélio de S. C. Júnior - 2021 - https://github.com/joseliojunior --><rect height="24" width="72.4" rx="12" ry="12" x="1" y="1" fill="#ece2a9" stroke="#a39024" stroke-width="1" /><g transform="translate(0, 8)"><path fill="#a39024" d="M25.31 0.10L27.28 0.10L27.28 10L25.31 10L25.31 5.63L22.69 5.63L22.69 10L20.72 10L20.72 0.10L22.69 0.10L22.69 4L25.31 4L25.31 0.10ZM32.02 8.59L32.02 8.59Q32.34 8.59 32.64 8.58Q32.94 8.58 33.17 8.54L33.17 8.54L33.17 6.82Q32.98 6.78 32.70 6.76Q32.43 6.74 32.21 6.74L32.21 6.74Q31.90 6.74 31.62 6.78Q31.33 6.82 31.11 6.91Q30.90 7.01 30.77 7.18Q30.64 7.36 30.64 7.65L30.64 7.65Q30.64 8.16 31.02 8.38Q31.41 8.59 32.02 8.59ZM31.84 2.29L31.84 2.29Q32.77 2.29 33.38 2.50Q34 2.72 34.37 3.11Q34.74 3.50 34.90 4.07Q35.06 4.64 35.06 5.34L35.06 5.34L35.06 9.82Q34.62 9.92 33.78 10.05Q32.93 10.18 31.87 10.18L31.87 10.18Q31.15 10.18 30.57 10.05Q29.98 9.92 29.57 9.62Q29.15 9.33 28.93 8.86Q28.70 8.38 28.70 7.70L28.70 7.70Q28.70 7.04 28.96 6.59Q29.22 6.14 29.65 5.87Q30.08 5.60 30.64 5.48Q31.20 5.36 31.81 5.36L31.81 5.36Q32.58 5.36 33.17 5.49L33.17 5.49L33.17 5.25Q33.17 4.69 32.82 4.31Q32.46 3.94 31.60 3.94L31.60 3.94Q31.04 3.94 30.52 4.02Q30 4.10 29.68 4.21L29.68 4.21L29.41 2.62Q29.78 2.50 30.45 2.39Q31.12 2.29 31.84 2.29ZM41.49 2.40L41.49 2.40Q42.11 2.40 42.51 2.59Q42.91 2.78 43.14 3.17Q43.38 3.55 43.46 4.14Q43.54 4.72 43.54 5.50L43.54 5.50L43.54 10L41.94 10L41.94 5.41Q41.94 4.96 41.88 4.69Q41.82 4.42 41.74 4.27Q41.65 4.13 41.53 4.08Q41.41 4.03 41.28 4.03L41.28 4.03Q41.14 4.03 40.98 4.06Q40.82 4.08 40.69 4.14L40.69 4.14Q40.74 4.45 40.77 4.82Q40.80 5.18 40.80 5.63L40.80 5.63L40.80 7.14L39.20 7.14L39.20 5.41Q39.20 4.64 39.05 4.34Q38.90 4.03 38.56 4.03L38.56 4.03Q38.46 4.03 38.33 4.05Q38.19 4.06 38.06 4.10L38.06 4.10L38.06 10L36.46 10L36.46 2.77Q37.09 2.59 37.70 2.50Q38.30 2.40 38.77 2.40L38.77 2.40Q39.18 2.40 39.51 2.50Q39.84 2.61 40.08 2.85L40.08 2.85Q40.35 2.67 40.72 2.54Q41.09 2.40 41.49 2.40ZM51.22 8.10L51.47 9.68Q51.42 9.71 51.26 9.79Q51.09 9.87 50.82 9.96Q50.54 10.05 50.15 10.11Q49.76 10.18 49.26 10.18L49.26 10.18Q47.90 10.18 47.28 9.37Q46.66 8.56 46.66 7.01L46.66 7.01L46.66 0.62L44.58 0.62L44.58-1.01L48.62-1.01L48.62 7.15Q48.62 7.92 48.93 8.19Q49.23 8.46 49.70 8.46L49.70 8.46Q50.29 8.46 50.69 8.30Q51.09 8.14 51.22 8.10L51.22 8.10Z"/></g></svg>