<?xml version="1.0" encoding="UTF-8"?><svg height="26" width="74.4" version="1.1" xmlns="http://www.w3.org/2000/svg"><!--Created by Josélio de S. C. Júnior - 2021 - https://github.com/joseliojunior --><defs><pattern id="pattern" x="3" y="3" width="6" height="6" patternUnits="userSpaceOnUse" patternTransform="rotate(45)"><rect height="6" width="6" fill="#ffffff"/><line x1="0" y1="0" x2="0" y2="6" stroke="#bbbbbb" stroke-width="2" /></pattern></defs><rect height="24" width="72.4" rx="12" ry="12" x="1" y="1" fill="url(#pattern)" /><g transform="translate(0, 8)"><path fill="#000000" d="M22.83 1.74L22.83 8.40Q22.91 8.42 23.01 8.42Q23.10 8.42 23.18 8.42L23.18 8.42Q23.86 8.42 24.31 8.16Q24.77 7.90 25.05 7.46Q25.33 7.01 25.45 6.39Q25.57 5.78 25.57 5.04L25.57 5.04Q25.57 4.40 25.47 3.79Q25.38 3.18 25.14 2.72Q24.90 2.26 24.48 1.98Q24.06 1.70 23.41 1.70L23.41 1.70Q23.28 1.70 23.12 1.70Q22.96 1.71 22.83 1.74L22.83 1.74ZM27.57 5.04L27.57 5.04Q27.57 6.42 27.22 7.38Q26.88 8.35 26.27 8.96Q25.66 9.57 24.82 9.85Q23.98 10.13 22.98 10.13L22.98 10.13Q22.45 10.13 21.94 10.07Q21.44 10.02 20.86 9.89L20.86 9.89L20.86 0.22Q21.54 0.08 22.13 0.03Q22.72-0.02 23.23-0.02L23.23-0.02Q24.21-0.02 25.02 0.27Q25.82 0.56 26.38 1.18Q26.94 1.79 27.26 2.74Q27.57 3.70 27.57 5.04ZM32.54 0.32L32.54 0.32Q32.54 0.90 32.18 1.23Q31.81 1.57 31.30 1.57L31.30 1.57Q30.78 1.57 30.42 1.23Q30.06 0.90 30.06 0.32L30.06 0.32Q30.06-0.27 30.42-0.61Q30.78-0.94 31.30-0.94L31.30-0.94Q31.81-0.94 32.18-0.61Q32.54-0.27 32.54 0.32ZM35.22 8.10L35.47 9.68Q34.86 9.97 34.33 10.07Q33.79 10.18 33.34 10.18L33.34 10.18Q32.58 10.18 32.06 9.95Q31.54 9.73 31.22 9.30Q30.91 8.88 30.78 8.27Q30.66 7.66 30.66 6.88L30.66 6.88L30.66 4.11L28.58 4.11L28.58 2.48L32.62 2.48L32.62 7.14Q32.62 7.81 32.87 8.14Q33.12 8.46 33.70 8.46L33.70 8.46Q33.97 8.46 34.35 8.39Q34.74 8.32 35.22 8.10L35.22 8.10ZM40.21 10L38.22 10L38.22 4.11L36.58 4.11L36.58 2.48L38.22 2.48L38.22 2.05Q38.22 1.14 38.49 0.54Q38.75-0.06 39.20-0.42Q39.65-0.78 40.22-0.94Q40.80-1.09 41.41-1.09L41.41-1.09Q42.03-1.09 42.69-0.98Q43.34-0.86 43.87-0.61L43.87-0.61L43.54 0.99Q43.17 0.86 42.62 0.73Q42.06 0.59 41.57 0.59L41.57 0.59Q41.30 0.59 41.05 0.64Q40.80 0.69 40.62 0.85Q40.43 1.01 40.32 1.30Q40.21 1.60 40.21 2.08L40.21 2.08L40.21 2.48L43.30 2.48L43.30 4.11L40.21 4.11L40.21 10ZM48.21 10L46.22 10L46.22 4.11L44.58 4.11L44.58 2.48L46.22 2.48L46.22 2.05Q46.22 1.14 46.49 0.54Q46.75-0.06 47.20-0.42Q47.65-0.78 48.22-0.94Q48.80-1.09 49.41-1.09L49.41-1.09Q50.03-1.09 50.69-0.98Q51.34-0.86 51.87-0.61L51.87-0.61L51.54 0.99Q51.17 0.86 50.62 0.73Q50.06 0.59 49.57 0.59L49.57 0.59Q49.30 0.59 49.05 0.64Q48.80 0.69 48.62 0.85Q48.43 1.01 48.32 1.30Q48.21 1.60 48.21 2.08L48.21 2.08L48.21 2.48L51.30 2.48L51.30 4.11L48.21 4.11L48.21 10Z"/></g></svg>