<?xml version="1.0" encoding="UTF-8"?>
<svg height="322" width="320.3" version="1.1" xmlns="http://www.w3.org/2000/svg"><!--Created by Josélio de S. C. Júnior - 2021 - https://github.com/joseliojunior -->
    <defs>
        <pattern id="pattern"
                x="1.5" y="3" width="3" height="6"
                patternUnits="userSpaceOnUse"
                patternTransform="rotate(45)" >
            <rect height="6" width="1" fill="#999999"/>
        </pattern>
    </defs>
    <rect
        height="32"
        width="318.3"
        rx="16"
        ry="16"
        x="1" y="1"
        fill="url(#pattern)"
        stroke="#000000"
        stroke-width="1" />
    <g transform="translate(0, 12)">
        <path fill="#ffffff" stroke="#000000" d="M27.49-0.62L27.49-0.62Q26.43-0.62 25.71-0.24Q24.99 0.14 24.52 0.83Q24.06 1.51 23.85 2.46Q23.65 3.41 23.65 4.56L23.65 4.56Q23.65 7.22 24.49 8.48Q25.33 9.74 26.96 9.74L26.96 9.74Q27.22 9.74 27.54 9.72Q27.85 9.70 28.11 9.65L28.11 9.65L28.11 4.22L31.06 4.22L31.06 11.64Q30.54 11.83 29.42 12.07Q28.30 12.31 26.72 12.31L26.72 12.31Q25.33 12.31 24.21 11.82Q23.10 11.33 22.30 10.36Q21.51 9.38 21.08 7.93Q20.65 6.48 20.65 4.56L20.65 4.56Q20.65 2.66 21.15 1.21Q21.66-0.24 22.52-1.22Q23.38-2.21 24.56-2.70Q25.74-3.19 27.08-3.19L27.08-3.19Q27.94-3.19 28.63-3.06Q29.31-2.93 29.82-2.76Q30.32-2.59 30.64-2.40Q30.97-2.21 31.14-2.11L31.14-2.11L30.37 0.24Q29.84-0.10 29.07-0.36Q28.30-0.62 27.49-0.62ZM43.02 0.98L42.49 3.72Q42.20 3.65 41.80 3.58Q41.41 3.50 41 3.44Q40.59 3.38 40.21 3.36Q39.82 3.34 39.56 3.34L39.56 3.34Q38.94 3.34 38.34 3.40Q37.74 3.46 37.11 3.62L37.11 3.62L37.11 12L34.14 12L34.14 1.46Q35.31 1.03 36.55 0.77Q37.78 0.50 39.44 0.50L39.44 0.50Q39.68 0.50 40.12 0.53Q40.57 0.55 41.07 0.61Q41.58 0.67 42.09 0.76Q42.61 0.84 43.02 0.98L43.02 0.98ZM50.02 9.89L50.02 9.89Q50.50 9.89 50.96 9.88Q51.42 9.86 51.75 9.82L51.75 9.82L51.75 7.22Q51.46 7.18 51.06 7.14Q50.65 7.10 50.31 7.10L50.31 7.10Q49.86 7.10 49.42 7.16Q48.99 7.22 48.67 7.37Q48.34 7.51 48.15 7.78Q47.96 8.04 47.96 8.47L47.96 8.47Q47.96 9.24 48.54 9.56Q49.11 9.89 50.02 9.89ZM49.76 0.43L49.76 0.43Q51.15 0.43 52.08 0.76Q53 1.08 53.55 1.67Q54.10 2.26 54.34 3.11Q54.58 3.96 54.58 5.02L54.58 5.02L54.58 11.74Q53.94 11.88 52.66 12.07Q51.39 12.26 49.81 12.26L49.81 12.26Q48.73 12.26 47.85 12.07Q46.98 11.88 46.35 11.44Q45.73 10.99 45.39 10.28Q45.06 9.58 45.06 8.54L45.06 8.54Q45.06 7.56 45.44 6.89Q45.82 6.22 46.47 5.81Q47.12 5.40 47.96 5.22Q48.80 5.04 49.71 5.04L49.71 5.04Q50.86 5.04 51.75 5.23L51.75 5.23L51.75 4.87Q51.75 4.03 51.22 3.47Q50.70 2.90 49.40 2.90L49.40 2.90Q48.56 2.90 47.78 3.02Q47 3.14 46.52 3.31L46.52 3.31L46.11 0.94Q46.66 0.74 47.67 0.59Q48.68 0.43 49.76 0.43ZM64.26 6.46L64.26 6.46Q64.26 4.94 63.66 3.97Q63.06 3 61.83 3L61.83 3Q61.50 3 61.11 3.04Q60.73 3.07 60.46 3.10L60.46 3.10L60.46 9.29Q60.75 9.48 61.23 9.60Q61.71 9.72 62.19 9.72L62.19 9.72Q63.25 9.72 63.75 8.87Q64.26 8.02 64.26 6.46ZM67.26 6.36L67.26 6.36Q67.26 7.66 66.97 8.75Q66.68 9.84 66.13 10.62Q65.58 11.40 64.74 11.83Q63.90 12.26 62.79 12.26L62.79 12.26Q61.66 12.26 60.46 11.71L60.46 11.71L60.46 15.96L57.51 15.96L57.51 1.08Q58.33 0.82 59.52 0.65Q60.70 0.48 61.86 0.48L61.86 0.48Q64.47 0.48 65.86 2.06Q67.26 3.65 67.26 6.36ZM72.46 12L69.51 12L69.51-4.15L72.46-4.66L72.46 0.82Q72.82 0.70 73.33 0.59Q73.83 0.48 74.22 0.48L74.22 0.48Q75.46 0.48 76.30 0.85Q77.14 1.22 77.65 1.91Q78.15 2.59 78.37 3.54Q78.58 4.49 78.58 5.64L78.58 5.64L78.58 12L75.63 12L75.63 6.02Q75.63 4.44 75.27 3.74Q74.91 3.05 73.90 3.05L73.90 3.05Q73.50 3.05 73.10 3.14Q72.70 3.24 72.46 3.31L72.46 3.31L72.46 12ZM93.42-2.86L95.86-2.86Q96.03-2.35 96.28-1.56Q96.54-0.77 96.82 0.14Q97.11 1.06 97.40 1.99Q97.69 2.93 97.95 3.72L97.95 3.72Q98.24 2.83 98.55 1.88Q98.86 0.94 99.15 0.06Q99.44-0.82 99.68-1.58Q99.92-2.35 100.11-2.86L100.11-2.86L102.56-2.86Q102.73-0.91 102.88 0.94Q103.04 2.78 103.15 4.60Q103.26 6.41 103.33 8.24Q103.40 10.08 103.45 12L103.45 12L100.74 12L100.88 0.46L99.06 6.74L96.90 6.74L95.14 0.46L95.26 12L92.55 12Q92.62 10.18 92.71 8.21Q92.79 6.24 92.89 4.30Q92.98 2.35 93.12 0.53Q93.25-1.30 93.42-2.86L93.42-2.86ZM115.33 6.34L115.33 6.34Q115.33 7.68 114.94 8.77Q114.56 9.86 113.86 10.66Q113.17 11.45 112.20 11.88Q111.22 12.31 110.02 12.31L110.02 12.31Q108.82 12.31 107.85 11.88Q106.88 11.45 106.17 10.66Q105.46 9.86 105.08 8.77Q104.70 7.68 104.70 6.34L104.70 6.34Q104.70 5.02 105.09 3.92Q105.49 2.83 106.20 2.05Q106.90 1.27 107.89 0.85Q108.87 0.43 110.02 0.43L110.02 0.43Q111.20 0.43 112.17 0.85Q113.14 1.27 113.85 2.05Q114.56 2.83 114.94 3.92Q115.33 5.02 115.33 6.34ZM107.70 6.36L107.70 6.36Q107.70 7.87 108.24 8.81Q108.78 9.74 109.98 9.74L109.98 9.74Q111.13 9.74 111.72 8.81Q112.30 7.87 112.30 6.36L112.30 6.36Q112.30 4.85 111.76 3.92Q111.22 3 110.02 3L110.02 3Q108.87 3 108.28 3.92Q107.70 4.85 107.70 6.36ZM119.67 6.29L119.67 6.29Q119.67 7.80 120.24 8.76Q120.80 9.72 122.05 9.72L122.05 9.72Q122.41 9.72 122.72 9.70Q123.03 9.67 123.37 9.62L123.37 9.62L123.37 3.48Q123.03 3.29 122.60 3.16Q122.17 3.02 121.69 3.02L121.69 3.02Q120.63 3.02 120.15 3.86Q119.67 4.70 119.67 6.29ZM126.32-4.66L126.32 11.66Q125.50 11.93 124.33 12.10Q123.15 12.26 122.02 12.26L122.02 12.26Q119.38 12.26 118.03 10.70Q116.67 9.14 116.67 6.43L116.67 6.43Q116.67 3.67 117.81 2.08Q118.95 0.48 121.18 0.48L121.18 0.48Q121.78 0.48 122.36 0.61Q122.94 0.74 123.37 0.98L123.37 0.98L123.37-4.15L126.32-4.66ZM128.74 6.46L128.74 6.46Q128.74 4.97 129.20 3.84Q129.66 2.71 130.40 1.96Q131.14 1.20 132.10 0.82Q133.06 0.43 134.07 0.43L134.07 0.43Q136.57 0.43 137.86 1.91Q139.16 3.38 139.16 6.22L139.16 6.22Q139.16 6.50 139.15 6.82Q139.14 7.13 139.11 7.32L139.11 7.32L131.79 7.32Q131.79 8.42 132.70 9.06Q133.62 9.70 135.06 9.70L135.06 9.70Q135.94 9.70 136.75 9.50Q137.55 9.31 138.10 9.12L138.10 9.12L138.51 11.64Q137.74 11.90 136.88 12.08Q136.02 12.26 134.94 12.26L134.94 12.26Q133.50 12.26 132.36 11.89Q131.22 11.52 130.41 10.79Q129.61 10.06 129.18 8.98Q128.74 7.90 128.74 6.46ZM131.79 5.28L136.30 5.28Q136.30 4.82 136.18 4.40Q136.06 3.98 135.80 3.65Q135.54 3.31 135.13 3.11Q134.72 2.90 134.12 2.90L134.12 2.90Q133.54 2.90 133.12 3.10Q132.70 3.29 132.43 3.62Q132.15 3.96 132.00 4.39Q131.84 4.82 131.79 5.28L131.79 5.28ZM150.82 9.14L151.21 11.52Q151.14 11.57 150.88 11.69Q150.63 11.81 150.22 11.94Q149.82 12.07 149.23 12.17Q148.64 12.26 147.90 12.26L147.90 12.26Q145.86 12.26 144.92 11.05Q143.98 9.84 143.98 7.51L143.98 7.51L143.98-2.06L140.86-2.06L140.86-4.51L146.94-4.51L146.94 7.73Q146.94 8.88 147.39 9.29Q147.85 9.70 148.54 9.70L148.54 9.70Q149.43 9.70 150.03 9.46Q150.63 9.22 150.82 9.14L150.82 9.14ZM158.82-2.52L158.82-2.52Q158.82-1.66 158.26-1.15Q157.71-0.65 156.94-0.65L156.94-0.65Q156.18-0.65 155.64-1.15Q155.10-1.66 155.10-2.52L155.10-2.52Q155.10-3.41 155.64-3.91Q156.18-4.42 156.94-4.42L156.94-4.42Q157.71-4.42 158.26-3.91Q158.82-3.41 158.82-2.52ZM162.82 9.14L163.21 11.52Q162.30 11.95 161.49 12.11Q160.69 12.26 160.02 12.26L160.02 12.26Q158.86 12.26 158.08 11.93Q157.30 11.59 156.84 10.96Q156.37 10.32 156.18 9.41Q155.98 8.50 155.98 7.32L155.98 7.32L155.98 3.17L152.86 3.17L152.86 0.72L158.94 0.72L158.94 7.70Q158.94 8.71 159.31 9.20Q159.68 9.70 160.54 9.70L160.54 9.70Q160.95 9.70 161.53 9.59Q162.10 9.48 162.82 9.14L162.82 9.14ZM165.51 12L165.51 1.08Q166.30 0.86 167.47 0.67Q168.63 0.48 170 0.48L170 0.48Q171.34 0.48 172.23 0.85Q173.12 1.22 173.64 1.91Q174.15 2.59 174.37 3.54Q174.58 4.49 174.58 5.64L174.58 5.64L174.58 12L171.63 12L171.63 6.02Q171.63 4.44 171.27 3.74Q170.91 3.05 169.81 3.05L169.81 3.05Q169.47 3.05 169.15 3.07Q168.82 3.10 168.46 3.14L168.46 3.14L168.46 12L165.51 12ZM179.79 6L179.79 6Q179.79 7.39 180.30 8.12Q180.80 8.86 181.88 8.86L181.88 8.86Q182.36 8.86 182.78 8.74Q183.20 8.62 183.54 8.42L183.54 8.42L183.54 3Q183.20 2.93 182.94 2.90Q182.67 2.88 182.38 2.88L182.38 2.88Q179.79 2.88 179.79 6ZM186.51 1.08L186.51 10.63Q186.51 13.39 185.18 14.71Q183.85 16.03 180.90 16.03L180.90 16.03Q179.84 16.03 178.87 15.82Q177.90 15.60 177.01 15.31L177.01 15.31L177.56 12.82Q178.26 13.08 179.02 13.31Q179.79 13.54 180.94 13.54L180.94 13.54Q181.71 13.54 182.22 13.36Q182.72 13.18 183.01 12.86Q183.30 12.55 183.42 12.13Q183.54 11.71 183.54 11.23L183.54 11.23L183.54 10.78Q182.91 11.02 182.40 11.14Q181.88 11.26 181.28 11.26L181.28 11.26Q179.07 11.26 177.93 9.86Q176.79 8.47 176.79 6L176.79 6Q176.79 3.22 178.33 1.85Q179.86 0.48 182.50 0.48L182.50 0.48Q184.35 0.48 186.51 1.08L186.51 1.08ZM211.04 9.55L211.04 12L201.70 12L201.70-2.86L204.68-2.86L204.68 9.55L211.04 9.55ZM218.02 9.89L218.02 9.89Q218.50 9.89 218.96 9.88Q219.42 9.86 219.75 9.82L219.75 9.82L219.75 7.22Q219.46 7.18 219.06 7.14Q218.65 7.10 218.31 7.10L218.31 7.10Q217.86 7.10 217.42 7.16Q216.99 7.22 216.67 7.37Q216.34 7.51 216.15 7.78Q215.96 8.04 215.96 8.47L215.96 8.47Q215.96 9.24 216.54 9.56Q217.11 9.89 218.02 9.89ZM217.76 0.43L217.76 0.43Q219.15 0.43 220.08 0.76Q221 1.08 221.55 1.67Q222.10 2.26 222.34 3.11Q222.58 3.96 222.58 5.02L222.58 5.02L222.58 11.74Q221.94 11.88 220.66 12.07Q219.39 12.26 217.81 12.26L217.81 12.26Q216.73 12.26 215.85 12.07Q214.98 11.88 214.35 11.44Q213.73 10.99 213.39 10.28Q213.06 9.58 213.06 8.54L213.06 8.54Q213.06 7.56 213.44 6.89Q213.82 6.22 214.47 5.81Q215.12 5.40 215.96 5.22Q216.80 5.04 217.71 5.04L217.71 5.04Q218.86 5.04 219.75 5.23L219.75 5.23L219.75 4.87Q219.75 4.03 219.22 3.47Q218.70 2.90 217.40 2.90L217.40 2.90Q216.56 2.90 215.78 3.02Q215 3.14 214.52 3.31L214.52 3.31L214.11 0.94Q214.66 0.74 215.67 0.59Q216.68 0.43 217.76 0.43ZM225.51 12L225.51 1.08Q226.30 0.86 227.47 0.67Q228.63 0.48 230 0.48L230 0.48Q231.34 0.48 232.23 0.85Q233.12 1.22 233.64 1.91Q234.15 2.59 234.37 3.54Q234.58 4.49 234.58 5.64L234.58 5.64L234.58 12L231.63 12L231.63 6.02Q231.63 4.44 231.27 3.74Q230.91 3.05 229.81 3.05L229.81 3.05Q229.47 3.05 229.15 3.07Q228.82 3.10 228.46 3.14L228.46 3.14L228.46 12L225.51 12ZM239.79 6L239.79 6Q239.79 7.39 240.30 8.12Q240.80 8.86 241.88 8.86L241.88 8.86Q242.36 8.86 242.78 8.74Q243.20 8.62 243.54 8.42L243.54 8.42L243.54 3Q243.20 2.93 242.94 2.90Q242.67 2.88 242.38 2.88L242.38 2.88Q239.79 2.88 239.79 6ZM246.51 1.08L246.51 10.63Q246.51 13.39 245.18 14.71Q243.85 16.03 240.90 16.03L240.90 16.03Q239.84 16.03 238.87 15.82Q237.90 15.60 237.01 15.31L237.01 15.31L237.56 12.82Q238.26 13.08 239.02 13.31Q239.79 13.54 240.94 13.54L240.94 13.54Q241.71 13.54 242.22 13.36Q242.72 13.18 243.01 12.86Q243.30 12.55 243.42 12.13Q243.54 11.71 243.54 11.23L243.54 11.23L243.54 10.78Q242.91 11.02 242.40 11.14Q241.88 11.26 241.28 11.26L241.28 11.26Q239.07 11.26 237.93 9.86Q236.79 8.47 236.79 6L236.79 6Q236.79 3.22 238.33 1.85Q239.86 0.48 242.50 0.48L242.50 0.48Q244.35 0.48 246.51 1.08L246.51 1.08ZM258.51 0.72L258.51 11.62Q257.70 11.83 256.53 12.05Q255.37 12.26 254 12.26L254 12.26Q252.61 12.26 251.72 11.88Q250.83 11.50 250.32 10.79Q249.80 10.08 249.61 9.12Q249.42 8.16 249.42 7.01L249.42 7.01L249.42 0.72L252.37 0.72L252.37 6.62Q252.37 8.18 252.74 8.94Q253.11 9.70 254.19 9.70L254.19 9.70Q254.86 9.70 255.54 9.58L255.54 9.58L255.54 0.72L258.51 0.72ZM266.02 9.89L266.02 9.89Q266.50 9.89 266.96 9.88Q267.42 9.86 267.75 9.82L267.75 9.82L267.75 7.22Q267.46 7.18 267.06 7.14Q266.65 7.10 266.31 7.10L266.31 7.10Q265.86 7.10 265.42 7.16Q264.99 7.22 264.67 7.37Q264.34 7.51 264.15 7.78Q263.96 8.04 263.96 8.47L263.96 8.47Q263.96 9.24 264.54 9.56Q265.11 9.89 266.02 9.89ZM265.76 0.43L265.76 0.43Q267.15 0.43 268.08 0.76Q269 1.08 269.55 1.67Q270.10 2.26 270.34 3.11Q270.58 3.96 270.58 5.02L270.58 5.02L270.58 11.74Q269.94 11.88 268.66 12.07Q267.39 12.26 265.81 12.26L265.81 12.26Q264.73 12.26 263.85 12.07Q262.98 11.88 262.35 11.44Q261.73 10.99 261.39 10.28Q261.06 9.58 261.06 8.54L261.06 8.54Q261.06 7.56 261.44 6.89Q261.82 6.22 262.47 5.81Q263.12 5.40 263.96 5.22Q264.80 5.04 265.71 5.04L265.71 5.04Q266.86 5.04 267.75 5.23L267.75 5.23L267.75 4.87Q267.75 4.03 267.22 3.47Q266.70 2.90 265.40 2.90L265.40 2.90Q264.56 2.90 263.78 3.02Q263 3.14 262.52 3.31L262.52 3.31L262.11 0.94Q262.66 0.74 263.67 0.59Q264.68 0.43 265.76 0.43ZM275.79 6L275.79 6Q275.79 7.39 276.30 8.12Q276.80 8.86 277.88 8.86L277.88 8.86Q278.36 8.86 278.78 8.74Q279.20 8.62 279.54 8.42L279.54 8.42L279.54 3Q279.20 2.93 278.94 2.90Q278.67 2.88 278.38 2.88L278.38 2.88Q275.79 2.88 275.79 6ZM282.51 1.08L282.51 10.63Q282.51 13.39 281.18 14.71Q279.85 16.03 276.90 16.03L276.90 16.03Q275.84 16.03 274.87 15.82Q273.90 15.60 273.01 15.31L273.01 15.31L273.56 12.82Q274.26 13.08 275.02 13.31Q275.79 13.54 276.94 13.54L276.94 13.54Q277.71 13.54 278.22 13.36Q278.72 13.18 279.01 12.86Q279.30 12.55 279.42 12.13Q279.54 11.71 279.54 11.23L279.54 11.23L279.54 10.78Q278.91 11.02 278.40 11.14Q277.88 11.26 277.28 11.26L277.28 11.26Q275.07 11.26 273.93 9.86Q272.79 8.47 272.79 6L272.79 6Q272.79 3.22 274.33 1.85Q275.86 0.48 278.50 0.48L278.50 0.48Q280.35 0.48 282.51 1.08L282.51 1.08ZM284.74 6.46L284.74 6.46Q284.74 4.97 285.20 3.84Q285.66 2.71 286.40 1.96Q287.14 1.20 288.10 0.82Q289.06 0.43 290.07 0.43L290.07 0.43Q292.57 0.43 293.86 1.91Q295.16 3.38 295.16 6.22L295.16 6.22Q295.16 6.50 295.15 6.82Q295.14 7.13 295.11 7.32L295.11 7.32L287.79 7.32Q287.79 8.42 288.70 9.06Q289.62 9.70 291.06 9.70L291.06 9.70Q291.94 9.70 292.75 9.50Q293.55 9.31 294.10 9.12L294.10 9.12L294.51 11.64Q293.74 11.90 292.88 12.08Q292.02 12.26 290.94 12.26L290.94 12.26Q289.50 12.26 288.36 11.89Q287.22 11.52 286.41 10.79Q285.61 10.06 285.18 8.98Q284.74 7.90 284.74 6.46ZM287.79 5.28L292.30 5.28Q292.30 4.82 292.18 4.40Q292.06 3.98 291.80 3.65Q291.54 3.31 291.13 3.11Q290.72 2.90 290.12 2.90L290.12 2.90Q289.54 2.90 289.12 3.10Q288.70 3.29 288.43 3.62Q288.15 3.96 288.00 4.39Q287.84 4.82 287.79 5.28L287.79 5.28Z"/>
    </g>
</svg>