<?xml version="1.0" encoding="UTF-8"?>
<svg height="26" width="228.29999999999998" version="1.1" xmlns="http://www.w3.org/2000/svg"><!--Created by Josélio de S. C. Júnior - 2021 - https://github.com/joseliojunior -->
    <defs>
        <pattern id="pattern"
                x="1.5" y="3" width="3" height="6"
                patternUnits="userSpaceOnUse"
                patternTransform="rotate(45)" >
            <rect height="6" width="1" fill="#999999"/>
        </pattern>
    </defs>
    <rect
        height="24"
        width="226.29999999999998"
        rx="12"
        ry="12"
        x="1" y="1"
        fill="url(#pattern)"
        stroke="#000000"
        stroke-width="1" />
    <g transform="translate(0, 8)">
        <path fill="#ffffff" stroke="#000000" d="M24.99 1.58L24.99 1.58Q24.29 1.58 23.81 1.84Q23.33 2.10 23.02 2.55Q22.70 3.01 22.57 3.64Q22.43 4.27 22.43 5.04L22.43 5.04Q22.43 6.82 22.99 7.66Q23.55 8.50 24.64 8.50L24.64 8.50Q24.82 8.50 25.02 8.48Q25.23 8.46 25.41 8.43L25.41 8.43L25.41 4.82L27.38 4.82L27.38 9.76Q27.02 9.89 26.28 10.05Q25.54 10.21 24.48 10.21L24.48 10.21Q23.55 10.21 22.81 9.88Q22.06 9.55 21.54 8.90Q21.01 8.26 20.72 7.29Q20.43 6.32 20.43 5.04L20.43 5.04Q20.43 3.78 20.77 2.81Q21.10 1.84 21.68 1.18Q22.26 0.53 23.04 0.20Q23.82-0.13 24.72-0.13L24.72-0.13Q25.30-0.13 25.75-0.04Q26.21 0.05 26.54 0.16Q26.88 0.27 27.10 0.40Q27.31 0.53 27.42 0.59L27.42 0.59L26.91 2.16Q26.56 1.94 26.05 1.76Q25.54 1.58 24.99 1.58ZM35.34 2.66L34.99 4.48Q34.80 4.43 34.54 4.38Q34.27 4.34 34 4.30Q33.73 4.26 33.47 4.24Q33.22 4.22 33.04 4.22L33.04 4.22Q32.62 4.22 32.22 4.26Q31.82 4.30 31.41 4.42L31.41 4.42L31.41 10L29.42 10L29.42 2.98Q30.21 2.69 31.03 2.51Q31.86 2.34 32.96 2.34L32.96 2.34Q33.12 2.34 33.42 2.35Q33.71 2.37 34.05 2.41Q34.38 2.45 34.73 2.50Q35.07 2.56 35.34 2.66L35.34 2.66ZM40.02 8.59L40.02 8.59Q40.34 8.59 40.64 8.58Q40.94 8.58 41.17 8.54L41.17 8.54L41.17 6.82Q40.98 6.78 40.70 6.76Q40.43 6.74 40.21 6.74L40.21 6.74Q39.90 6.74 39.62 6.78Q39.33 6.82 39.11 6.91Q38.90 7.01 38.77 7.18Q38.64 7.36 38.64 7.65L38.64 7.65Q38.64 8.16 39.02 8.38Q39.41 8.59 40.02 8.59ZM39.84 2.29L39.84 2.29Q40.77 2.29 41.38 2.50Q42 2.72 42.37 3.11Q42.74 3.50 42.90 4.07Q43.06 4.64 43.06 5.34L43.06 5.34L43.06 9.82Q42.62 9.92 41.78 10.05Q40.93 10.18 39.87 10.18L39.87 10.18Q39.15 10.18 38.57 10.05Q37.98 9.92 37.57 9.62Q37.15 9.33 36.93 8.86Q36.70 8.38 36.70 7.70L36.70 7.70Q36.70 7.04 36.96 6.59Q37.22 6.14 37.65 5.87Q38.08 5.60 38.64 5.48Q39.20 5.36 39.81 5.36L39.81 5.36Q40.58 5.36 41.17 5.49L41.17 5.49L41.17 5.25Q41.17 4.69 40.82 4.31Q40.46 3.94 39.60 3.94L39.60 3.94Q39.04 3.94 38.52 4.02Q38 4.10 37.68 4.21L37.68 4.21L37.41 2.62Q37.78 2.50 38.45 2.39Q39.12 2.29 39.84 2.29ZM49.50 6.30L49.50 6.30Q49.50 5.30 49.10 4.65Q48.70 4 47.89 4L47.89 4Q47.66 4 47.41 4.02Q47.15 4.05 46.98 4.06L46.98 4.06L46.98 8.19Q47.17 8.32 47.49 8.40Q47.81 8.48 48.13 8.48L48.13 8.48Q48.83 8.48 49.17 7.91Q49.50 7.34 49.50 6.30ZM51.50 6.24L51.50 6.24Q51.50 7.10 51.31 7.83Q51.12 8.56 50.75 9.08Q50.38 9.60 49.82 9.89Q49.26 10.18 48.53 10.18L48.53 10.18Q47.78 10.18 46.98 9.81L46.98 9.81L46.98 12.64L45.01 12.64L45.01 2.72Q45.55 2.54 46.34 2.43Q47.14 2.32 47.90 2.32L47.90 2.32Q49.65 2.32 50.58 3.38Q51.50 4.43 51.50 6.24ZM54.98 10L53.01 10L53.01-0.77L54.98-1.10L54.98 2.54Q55.22 2.46 55.55 2.39Q55.89 2.32 56.14 2.32L56.14 2.32Q56.98 2.32 57.54 2.57Q58.10 2.82 58.43 3.27Q58.77 3.73 58.91 4.36Q59.06 4.99 59.06 5.76L59.06 5.76L59.06 10L57.09 10L57.09 6.02Q57.09 4.96 56.85 4.50Q56.61 4.03 55.94 4.03L55.94 4.03Q55.66 4.03 55.40 4.10Q55.14 4.16 54.98 4.21L54.98 4.21L54.98 10ZM68.94 0.10L70.58 0.10Q70.69 0.43 70.86 0.96Q71.02 1.49 71.22 2.10Q71.41 2.70 71.60 3.33Q71.79 3.95 71.97 4.48L71.97 4.48Q72.16 3.89 72.37 3.26Q72.58 2.62 72.77 2.04Q72.96 1.46 73.12 0.94Q73.28 0.43 73.41 0.10L73.41 0.10L75.04 0.10Q75.15 1.39 75.26 2.62Q75.36 3.86 75.43 5.06Q75.50 6.27 75.55 7.50Q75.60 8.72 75.63 10L75.63 10L73.82 10L73.92 2.30L72.70 6.50L71.26 6.50L70.10 2.30L70.18 10L68.37 10Q68.42 8.78 68.47 7.47Q68.53 6.16 68.59 4.86Q68.66 3.57 68.74 2.35Q68.83 1.14 68.94 0.10L68.94 0.10ZM83.55 6.22L83.55 6.22Q83.55 7.12 83.30 7.85Q83.04 8.58 82.58 9.10Q82.11 9.63 81.46 9.92Q80.82 10.21 80.02 10.21L80.02 10.21Q79.22 10.21 78.57 9.92Q77.92 9.63 77.45 9.10Q76.98 8.58 76.72 7.85Q76.46 7.12 76.46 6.22L76.46 6.22Q76.46 5.34 76.73 4.62Q76.99 3.89 77.46 3.37Q77.94 2.85 78.59 2.57Q79.25 2.29 80.02 2.29L80.02 2.29Q80.80 2.29 81.45 2.57Q82.10 2.85 82.57 3.37Q83.04 3.89 83.30 4.62Q83.55 5.34 83.55 6.22ZM78.46 6.24L78.46 6.24Q78.46 7.25 78.82 7.87Q79.18 8.50 79.98 8.50L79.98 8.50Q80.75 8.50 81.14 7.87Q81.54 7.25 81.54 6.24L81.54 6.24Q81.54 5.23 81.18 4.62Q80.82 4 80.02 4L80.02 4Q79.25 4 78.86 4.62Q78.46 5.23 78.46 6.24ZM86.45 6.19L86.45 6.19Q86.45 7.20 86.82 7.84Q87.20 8.48 88.03 8.48L88.03 8.48Q88.27 8.48 88.48 8.46Q88.69 8.45 88.91 8.42L88.91 8.42L88.91 4.32Q88.69 4.19 88.40 4.10Q88.11 4.02 87.79 4.02L87.79 4.02Q87.09 4.02 86.77 4.58Q86.45 5.14 86.45 6.19ZM90.88-1.10L90.88 9.78Q90.34 9.95 89.55 10.06Q88.77 10.18 88.02 10.18L88.02 10.18Q86.26 10.18 85.35 9.14Q84.45 8.10 84.45 6.29L84.45 6.29Q84.45 4.45 85.21 3.38Q85.97 2.32 87.46 2.32L87.46 2.32Q87.86 2.32 88.24 2.41Q88.62 2.50 88.91 2.66L88.91 2.66L88.91-0.77L90.88-1.10ZM92.50 6.30L92.50 6.30Q92.50 5.31 92.80 4.56Q93.10 3.81 93.60 3.30Q94.10 2.80 94.74 2.54Q95.38 2.29 96.05 2.29L96.05 2.29Q97.71 2.29 98.58 3.27Q99.44 4.26 99.44 6.14L99.44 6.14Q99.44 6.34 99.43 6.54Q99.42 6.75 99.41 6.88L99.41 6.88L94.53 6.88Q94.53 7.62 95.14 8.04Q95.74 8.46 96.70 8.46L96.70 8.46Q97.30 8.46 97.83 8.34Q98.37 8.21 98.74 8.08L98.74 8.08L99.01 9.76Q98.50 9.94 97.92 10.06Q97.34 10.18 96.62 10.18L96.62 10.18Q95.66 10.18 94.90 9.93Q94.14 9.68 93.61 9.19Q93.07 8.70 92.78 7.98Q92.50 7.26 92.50 6.30ZM94.53 5.52L97.54 5.52Q97.54 5.22 97.46 4.94Q97.38 4.66 97.20 4.43Q97.02 4.21 96.75 4.07Q96.48 3.94 96.08 3.94L96.08 3.94Q95.70 3.94 95.42 4.06Q95.14 4.19 94.95 4.42Q94.77 4.64 94.66 4.93Q94.56 5.22 94.53 5.52L94.53 5.52ZM107.22 8.10L107.47 9.68Q107.42 9.71 107.26 9.79Q107.09 9.87 106.82 9.96Q106.54 10.05 106.15 10.11Q105.76 10.18 105.26 10.18L105.26 10.18Q103.90 10.18 103.28 9.37Q102.66 8.56 102.66 7.01L102.66 7.01L102.66 0.62L100.58 0.62L100.58-1.01L104.62-1.01L104.62 7.15Q104.62 7.92 104.93 8.19Q105.23 8.46 105.70 8.46L105.70 8.46Q106.29 8.46 106.69 8.30Q107.09 8.14 107.22 8.10L107.22 8.10ZM112.54 0.32L112.54 0.32Q112.54 0.90 112.18 1.23Q111.81 1.57 111.30 1.57L111.30 1.57Q110.78 1.57 110.42 1.23Q110.06 0.90 110.06 0.32L110.06 0.32Q110.06-0.27 110.42-0.61Q110.78-0.94 111.30-0.94L111.30-0.94Q111.81-0.94 112.18-0.61Q112.54-0.27 112.54 0.32ZM115.22 8.10L115.47 9.68Q114.86 9.97 114.33 10.07Q113.79 10.18 113.34 10.18L113.34 10.18Q112.58 10.18 112.06 9.95Q111.54 9.73 111.22 9.30Q110.91 8.88 110.78 8.27Q110.66 7.66 110.66 6.88L110.66 6.88L110.66 4.11L108.58 4.11L108.58 2.48L112.62 2.48L112.62 7.14Q112.62 7.81 112.87 8.14Q113.12 8.46 113.70 8.46L113.70 8.46Q113.97 8.46 114.35 8.39Q114.74 8.32 115.22 8.10L115.22 8.10ZM117.01 10L117.01 2.72Q117.54 2.58 118.31 2.45Q119.09 2.32 120 2.32L120 2.32Q120.90 2.32 121.49 2.57Q122.08 2.82 122.42 3.27Q122.77 3.73 122.91 4.36Q123.06 4.99 123.06 5.76L123.06 5.76L123.06 10L121.09 10L121.09 6.02Q121.09 4.96 120.85 4.50Q120.61 4.03 119.87 4.03L119.87 4.03Q119.65 4.03 119.43 4.05Q119.22 4.06 118.98 4.10L118.98 4.10L118.98 10L117.01 10ZM126.53 6L126.53 6Q126.53 6.93 126.86 7.42Q127.20 7.90 127.92 7.90L127.92 7.90Q128.24 7.90 128.52 7.82Q128.80 7.74 129.02 7.62L129.02 7.62L129.02 4Q128.80 3.95 128.62 3.94Q128.45 3.92 128.26 3.92L128.26 3.92Q126.53 3.92 126.53 6ZM131.01 2.72L131.01 9.09Q131.01 10.93 130.12 11.81Q129.23 12.69 127.26 12.69L127.26 12.69Q126.56 12.69 125.91 12.54Q125.26 12.40 124.67 12.21L124.67 12.21L125.04 10.54Q125.50 10.72 126.02 10.87Q126.53 11.02 127.30 11.02L127.30 11.02Q127.81 11.02 128.14 10.90Q128.48 10.78 128.67 10.58Q128.86 10.37 128.94 10.09Q129.02 9.81 129.02 9.49L129.02 9.49L129.02 9.18Q128.61 9.34 128.26 9.42Q127.92 9.50 127.52 9.50L127.52 9.50Q126.05 9.50 125.29 8.58Q124.53 7.65 124.53 6L124.53 6Q124.53 4.14 125.55 3.23Q126.58 2.32 128.34 2.32L128.34 2.32Q129.57 2.32 131.01 2.72L131.01 2.72ZM147.36 8.37L147.36 10L141.14 10L141.14 0.10L143.12 0.10L143.12 8.37L147.36 8.37ZM152.02 8.59L152.02 8.59Q152.34 8.59 152.64 8.58Q152.94 8.58 153.17 8.54L153.17 8.54L153.17 6.82Q152.98 6.78 152.70 6.76Q152.43 6.74 152.21 6.74L152.21 6.74Q151.90 6.74 151.62 6.78Q151.33 6.82 151.11 6.91Q150.90 7.01 150.77 7.18Q150.64 7.36 150.64 7.65L150.64 7.65Q150.64 8.16 151.02 8.38Q151.41 8.59 152.02 8.59ZM151.84 2.29L151.84 2.29Q152.77 2.29 153.38 2.50Q154 2.72 154.37 3.11Q154.74 3.50 154.90 4.07Q155.06 4.64 155.06 5.34L155.06 5.34L155.06 9.82Q154.62 9.92 153.78 10.05Q152.93 10.18 151.87 10.18L151.87 10.18Q151.15 10.18 150.57 10.05Q149.98 9.92 149.57 9.62Q149.15 9.33 148.93 8.86Q148.70 8.38 148.70 7.70L148.70 7.70Q148.70 7.04 148.96 6.59Q149.22 6.14 149.65 5.87Q150.08 5.60 150.64 5.48Q151.20 5.36 151.81 5.36L151.81 5.36Q152.58 5.36 153.17 5.49L153.17 5.49L153.17 5.25Q153.17 4.69 152.82 4.31Q152.46 3.94 151.60 3.94L151.60 3.94Q151.04 3.94 150.52 4.02Q150 4.10 149.68 4.21L149.68 4.21L149.41 2.62Q149.78 2.50 150.45 2.39Q151.12 2.29 151.84 2.29ZM157.01 10L157.01 2.72Q157.54 2.58 158.31 2.45Q159.09 2.32 160 2.32L160 2.32Q160.90 2.32 161.49 2.57Q162.08 2.82 162.42 3.27Q162.77 3.73 162.91 4.36Q163.06 4.99 163.06 5.76L163.06 5.76L163.06 10L161.09 10L161.09 6.02Q161.09 4.96 160.85 4.50Q160.61 4.03 159.87 4.03L159.87 4.03Q159.65 4.03 159.43 4.05Q159.22 4.06 158.98 4.10L158.98 4.10L158.98 10L157.01 10ZM166.53 6L166.53 6Q166.53 6.93 166.86 7.42Q167.20 7.90 167.92 7.90L167.92 7.90Q168.24 7.90 168.52 7.82Q168.80 7.74 169.02 7.62L169.02 7.62L169.02 4Q168.80 3.95 168.62 3.94Q168.45 3.92 168.26 3.92L168.26 3.92Q166.53 3.92 166.53 6ZM171.01 2.72L171.01 9.09Q171.01 10.93 170.12 11.81Q169.23 12.69 167.26 12.69L167.26 12.69Q166.56 12.69 165.91 12.54Q165.26 12.40 164.67 12.21L164.67 12.21L165.04 10.54Q165.50 10.72 166.02 10.87Q166.53 11.02 167.30 11.02L167.30 11.02Q167.81 11.02 168.14 10.90Q168.48 10.78 168.67 10.58Q168.86 10.37 168.94 10.09Q169.02 9.81 169.02 9.49L169.02 9.49L169.02 9.18Q168.61 9.34 168.26 9.42Q167.92 9.50 167.52 9.50L167.52 9.50Q166.05 9.50 165.29 8.58Q164.53 7.65 164.53 6L164.53 6Q164.53 4.14 165.55 3.23Q166.58 2.32 168.34 2.32L168.34 2.32Q169.57 2.32 171.01 2.72L171.01 2.72ZM179.01 2.48L179.01 9.74Q178.46 9.89 177.69 10.03Q176.91 10.18 176 10.18L176 10.18Q175.07 10.18 174.48 9.92Q173.89 9.66 173.54 9.19Q173.20 8.72 173.07 8.08Q172.94 7.44 172.94 6.67L172.94 6.67L172.94 2.48L174.91 2.48L174.91 6.42Q174.91 7.46 175.16 7.96Q175.41 8.46 176.13 8.46L176.13 8.46Q176.58 8.46 177.02 8.38L177.02 8.38L177.02 2.48L179.01 2.48ZM184.02 8.59L184.02 8.59Q184.34 8.59 184.64 8.58Q184.94 8.58 185.17 8.54L185.17 8.54L185.17 6.82Q184.98 6.78 184.70 6.76Q184.43 6.74 184.21 6.74L184.21 6.74Q183.90 6.74 183.62 6.78Q183.33 6.82 183.11 6.91Q182.90 7.01 182.77 7.18Q182.64 7.36 182.64 7.65L182.64 7.65Q182.64 8.16 183.02 8.38Q183.41 8.59 184.02 8.59ZM183.84 2.29L183.84 2.29Q184.77 2.29 185.38 2.50Q186 2.72 186.37 3.11Q186.74 3.50 186.90 4.07Q187.06 4.64 187.06 5.34L187.06 5.34L187.06 9.82Q186.62 9.92 185.78 10.05Q184.93 10.18 183.87 10.18L183.87 10.18Q183.15 10.18 182.57 10.05Q181.98 9.92 181.57 9.62Q181.15 9.33 180.93 8.86Q180.70 8.38 180.70 7.70L180.70 7.70Q180.70 7.04 180.96 6.59Q181.22 6.14 181.65 5.87Q182.08 5.60 182.64 5.48Q183.20 5.36 183.81 5.36L183.81 5.36Q184.58 5.36 185.17 5.49L185.17 5.49L185.17 5.25Q185.17 4.69 184.82 4.31Q184.46 3.94 183.60 3.94L183.60 3.94Q183.04 3.94 182.52 4.02Q182 4.10 181.68 4.21L181.68 4.21L181.41 2.62Q181.78 2.50 182.45 2.39Q183.12 2.29 183.84 2.29ZM190.53 6L190.53 6Q190.53 6.93 190.86 7.42Q191.20 7.90 191.92 7.90L191.92 7.90Q192.24 7.90 192.52 7.82Q192.80 7.74 193.02 7.62L193.02 7.62L193.02 4Q192.80 3.95 192.62 3.94Q192.45 3.92 192.26 3.92L192.26 3.92Q190.53 3.92 190.53 6ZM195.01 2.72L195.01 9.09Q195.01 10.93 194.12 11.81Q193.23 12.69 191.26 12.69L191.26 12.69Q190.56 12.69 189.91 12.54Q189.26 12.40 188.67 12.21L188.67 12.21L189.04 10.54Q189.50 10.72 190.02 10.87Q190.53 11.02 191.30 11.02L191.30 11.02Q191.81 11.02 192.14 10.90Q192.48 10.78 192.67 10.58Q192.86 10.37 192.94 10.09Q193.02 9.81 193.02 9.49L193.02 9.49L193.02 9.18Q192.61 9.34 192.26 9.42Q191.92 9.50 191.52 9.50L191.52 9.50Q190.05 9.50 189.29 8.58Q188.53 7.65 188.53 6L188.53 6Q188.53 4.14 189.55 3.23Q190.58 2.32 192.34 2.32L192.34 2.32Q193.57 2.32 195.01 2.72L195.01 2.72ZM196.50 6.30L196.50 6.30Q196.50 5.31 196.80 4.56Q197.10 3.81 197.60 3.30Q198.10 2.80 198.74 2.54Q199.38 2.29 200.05 2.29L200.05 2.29Q201.71 2.29 202.58 3.27Q203.44 4.26 203.44 6.14L203.44 6.14Q203.44 6.34 203.43 6.54Q203.42 6.75 203.41 6.88L203.41 6.88L198.53 6.88Q198.53 7.62 199.14 8.04Q199.74 8.46 200.70 8.46L200.70 8.46Q201.30 8.46 201.83 8.34Q202.37 8.21 202.74 8.08L202.74 8.08L203.01 9.76Q202.50 9.94 201.92 10.06Q201.34 10.18 200.62 10.18L200.62 10.18Q199.66 10.18 198.90 9.93Q198.14 9.68 197.61 9.19Q197.07 8.70 196.78 7.98Q196.50 7.26 196.50 6.30ZM198.53 5.52L201.54 5.52Q201.54 5.22 201.46 4.94Q201.38 4.66 201.20 4.43Q201.02 4.21 200.75 4.07Q200.48 3.94 200.08 3.94L200.08 3.94Q199.70 3.94 199.42 4.06Q199.14 4.19 198.95 4.42Q198.77 4.64 198.66 4.93Q198.56 5.22 198.53 5.52L198.53 5.52Z"/>
    </g>
</svg>