<?xml version="1.0" encoding="UTF-8"?>
<svg height="26" width="98.69999999999999" version="1.1" xmlns="http://www.w3.org/2000/svg"><!--Created by Josélio de S. C. Júnior - 2021 - https://github.com/joseliojunior -->
    <defs>
        <pattern id="pattern"
                x="1.5" y="3" width="3" height="6"
                patternUnits="userSpaceOnUse"
                patternTransform="rotate(45)" >
            <rect height="6" width="1" fill="#999999"/>
        </pattern>
    </defs>
    <rect
        height="24"
        width="96.69999999999999"
        rx="12"
        ry="12"
        x="1" y="1"
        fill="url(#pattern)"
        stroke="#000000"
        stroke-width="1" />
    <g transform="translate(0, 8)">
        <path fill="#ffffff" stroke="#000000" d="M20.94 0.10L22.58 0.10Q22.69 0.43 22.86 0.96Q23.02 1.49 23.22 2.10Q23.41 2.70 23.60 3.33Q23.79 3.95 23.97 4.48L23.97 4.48Q24.16 3.89 24.37 3.26Q24.58 2.62 24.77 2.04Q24.96 1.46 25.12 0.94Q25.28 0.43 25.41 0.10L25.41 0.10L27.04 0.10Q27.15 1.39 27.26 2.62Q27.36 3.86 27.43 5.06Q27.50 6.27 27.55 7.50Q27.60 8.72 27.63 10L27.63 10L25.82 10L25.92 2.30L24.70 6.50L23.26 6.50L22.10 2.30L22.18 10L20.37 10Q20.42 8.78 20.47 7.47Q20.53 6.16 20.59 4.86Q20.66 3.57 20.74 2.35Q20.83 1.14 20.94 0.10L20.94 0.10ZM32.56 6.05L32.56 2.56Q32.27 2.93 31.97 3.34Q31.66 3.76 31.37 4.22Q31.07 4.67 30.80 5.14Q30.53 5.60 30.32 6.05L30.32 6.05L32.56 6.05ZM32.77 0.10L34.53 0.10L34.53 6.05L35.60 6.05L35.60 7.66L34.53 7.66L34.53 10L32.56 10L32.56 7.66L28.43 7.66L28.43 6.22Q28.74 5.60 29.22 4.81Q29.70 4.02 30.27 3.18Q30.85 2.35 31.49 1.54Q32.13 0.74 32.77 0.10L32.77 0.10ZM39.71 8.56L39.71 8.56Q40.21 8.56 40.54 8.46Q40.86 8.35 41.06 8.17Q41.25 7.98 41.32 7.75Q41.39 7.52 41.39 7.28L41.39 7.28Q41.39 6.98 41.22 6.74Q41.04 6.50 40.77 6.31Q40.50 6.13 40.16 5.98Q39.82 5.82 39.49 5.70L39.49 5.70Q39.04 5.54 38.56 5.33Q38.08 5.12 37.69 4.80Q37.30 4.48 37.04 4.01Q36.78 3.54 36.78 2.83L36.78 2.83Q36.78 1.44 37.69 0.66Q38.59-0.13 40.18-0.13L40.18-0.13Q41.09-0.13 41.77 0.08Q42.45 0.29 42.91 0.54L42.91 0.54L42.34 2.06Q41.94 1.84 41.45 1.68Q40.96 1.52 40.32 1.52L40.32 1.52Q38.75 1.52 38.75 2.66L38.75 2.66Q38.75 2.94 38.91 3.16Q39.07 3.38 39.32 3.54Q39.57 3.71 39.88 3.84Q40.19 3.97 40.50 4.08L40.50 4.08Q40.96 4.26 41.46 4.47Q41.97 4.69 42.39 5.05Q42.82 5.41 43.09 5.94Q43.36 6.48 43.36 7.30L43.36 7.30Q43.36 8.69 42.46 9.45Q41.55 10.21 39.71 10.21L39.71 10.21Q38.48 10.21 37.74 9.94Q37.01 9.68 36.64 9.46L36.64 9.46L37.22 7.86Q37.65 8.11 38.25 8.34Q38.85 8.56 39.71 8.56ZM51.01 2.48L51.01 9.74Q50.46 9.89 49.69 10.03Q48.91 10.18 48 10.18L48 10.18Q47.07 10.18 46.48 9.92Q45.89 9.66 45.54 9.19Q45.20 8.72 45.07 8.08Q44.94 7.44 44.94 6.67L44.94 6.67L44.94 2.48L46.91 2.48L46.91 6.42Q46.91 7.46 47.16 7.96Q47.41 8.46 48.13 8.46L48.13 8.46Q48.58 8.46 49.02 8.38L49.02 8.38L49.02 2.48L51.01 2.48ZM54.53 6L54.53 6Q54.53 6.93 54.86 7.42Q55.20 7.90 55.92 7.90L55.92 7.90Q56.24 7.90 56.52 7.82Q56.80 7.74 57.02 7.62L57.02 7.62L57.02 4Q56.80 3.95 56.62 3.94Q56.45 3.92 56.26 3.92L56.26 3.92Q54.53 3.92 54.53 6ZM59.01 2.72L59.01 9.09Q59.01 10.93 58.12 11.81Q57.23 12.69 55.26 12.69L55.26 12.69Q54.56 12.69 53.91 12.54Q53.26 12.40 52.67 12.21L52.67 12.21L53.04 10.54Q53.50 10.72 54.02 10.87Q54.53 11.02 55.30 11.02L55.30 11.02Q55.81 11.02 56.14 10.90Q56.48 10.78 56.67 10.58Q56.86 10.37 56.94 10.09Q57.02 9.81 57.02 9.49L57.02 9.49L57.02 9.18Q56.61 9.34 56.26 9.42Q55.92 9.50 55.52 9.50L55.52 9.50Q54.05 9.50 53.29 8.58Q52.53 7.65 52.53 6L52.53 6Q52.53 4.14 53.55 3.23Q54.58 2.32 56.34 2.32L56.34 2.32Q57.57 2.32 59.01 2.72L59.01 2.72ZM64.02 8.59L64.02 8.59Q64.34 8.59 64.64 8.58Q64.94 8.58 65.17 8.54L65.17 8.54L65.17 6.82Q64.98 6.78 64.70 6.76Q64.43 6.74 64.21 6.74L64.21 6.74Q63.90 6.74 63.62 6.78Q63.33 6.82 63.11 6.91Q62.90 7.01 62.77 7.18Q62.64 7.36 62.64 7.65L62.64 7.65Q62.64 8.16 63.02 8.38Q63.41 8.59 64.02 8.59ZM63.84 2.29L63.84 2.29Q64.77 2.29 65.38 2.50Q66 2.72 66.37 3.11Q66.74 3.50 66.90 4.07Q67.06 4.64 67.06 5.34L67.06 5.34L67.06 9.82Q66.62 9.92 65.78 10.05Q64.93 10.18 63.87 10.18L63.87 10.18Q63.15 10.18 62.57 10.05Q61.98 9.92 61.57 9.62Q61.15 9.33 60.93 8.86Q60.70 8.38 60.70 7.70L60.70 7.70Q60.70 7.04 60.96 6.59Q61.22 6.14 61.65 5.87Q62.08 5.60 62.64 5.48Q63.20 5.36 63.81 5.36L63.81 5.36Q64.58 5.36 65.17 5.49L65.17 5.49L65.17 5.25Q65.17 4.69 64.82 4.31Q64.46 3.94 63.60 3.94L63.60 3.94Q63.04 3.94 62.52 4.02Q62 4.10 61.68 4.21L61.68 4.21L61.41 2.62Q61.78 2.50 62.45 2.39Q63.12 2.29 63.84 2.29ZM75.34 2.66L74.99 4.48Q74.80 4.43 74.54 4.38Q74.27 4.34 74 4.30Q73.73 4.26 73.47 4.24Q73.22 4.22 73.04 4.22L73.04 4.22Q72.62 4.22 72.22 4.26Q71.82 4.30 71.41 4.42L71.41 4.42L71.41 10L69.42 10L69.42 2.98Q70.21 2.69 71.03 2.51Q71.86 2.34 72.96 2.34L72.96 2.34Q73.12 2.34 73.42 2.35Q73.71 2.37 74.05 2.41Q74.38 2.45 74.73 2.50Q75.07 2.56 75.34 2.66L75.34 2.66Z"/>
    </g>
</svg>