<?xml version="1.0" encoding="UTF-8"?>
<svg height="322" width="175.1" version="1.1" xmlns="http://www.w3.org/2000/svg"><!--Created by Josélio de S. C. Júnior - 2021 - https://github.com/joseliojunior -->
    <defs>
        <pattern id="pattern"
                x="1.5" y="3" width="3" height="6"
                patternUnits="userSpaceOnUse"
                patternTransform="rotate(45)" >
            <rect height="6" width="1" fill="#999999"/>
        </pattern>
    </defs>
    <rect
        height="32"
        width="173.1"
        rx="16"
        ry="16"
        x="1" y="1"
        fill="url(#pattern)"
        stroke="#000000"
        stroke-width="1" />
    <g transform="translate(0, 12)">
        <path fill="#ffffff" stroke="#000000" d="M21.06 6.36L21.06 6.36Q21.06 5.14 21.44 4.06Q21.82 2.98 22.62 2.17Q23.41 1.37 24.62 0.90Q25.83 0.43 27.51 0.43L27.51 0.43Q28.52 0.43 29.34 0.58Q30.15 0.72 30.99 1.06L30.99 1.06L30.34 3.43Q29.86 3.26 29.28 3.13Q28.69 3 27.78 3L27.78 3Q26.72 3 26.01 3.25Q25.30 3.50 24.87 3.95Q24.44 4.39 24.25 5.02Q24.06 5.64 24.06 6.36L24.06 6.36Q24.06 7.92 24.93 8.81Q25.81 9.70 27.92 9.70L27.92 9.70Q28.62 9.70 29.37 9.60Q30.13 9.50 30.75 9.29L30.75 9.29L31.18 11.71Q30.56 11.95 29.67 12.11Q28.78 12.26 27.58 12.26L27.58 12.26Q25.86 12.26 24.62 11.81Q23.38 11.35 22.59 10.56Q21.80 9.77 21.43 8.69Q21.06 7.61 21.06 6.36ZM37.95 12.31L37.95 12.31Q36.51 12.31 35.54 11.92Q34.57 11.52 33.99 10.78Q33.42 10.03 33.18 8.98Q32.94 7.92 32.94 6.62L32.94 6.62L32.94-2.86L35.91-2.86L35.91 6.43Q35.91 7.37 36.01 8.00Q36.10 8.64 36.33 9.02Q36.56 9.41 36.97 9.58Q37.38 9.74 38 9.74L38 9.74Q38.62 9.74 39.03 9.58Q39.44 9.41 39.68 9.01Q39.92 8.62 40.02 7.98Q40.11 7.34 40.11 6.41L40.11 6.41L40.11-2.86L43.06-2.86L43.06 6.62Q43.06 7.92 42.82 8.98Q42.58 10.03 41.98 10.78Q41.38 11.52 40.40 11.92Q39.42 12.31 37.95 12.31ZM49.14-3.02L49.14-3.02Q50.41-3.02 51.44-2.74Q52.47-2.45 53.22-1.85Q53.96-1.25 54.36-0.32Q54.75 0.60 54.75 1.85L54.75 1.85Q54.75 3.14 54.22 4.20Q53.70 5.26 52.47 5.81L52.47 5.81Q52.88 6.43 53.34 7.19Q53.79 7.94 54.22 8.77Q54.66 9.60 55.05 10.43Q55.45 11.26 55.74 12L55.74 12L52.64 12Q52.09 10.56 51.36 9.23Q50.62 7.90 49.78 6.53L49.78 6.53L48.25 6.53L48.25 12L45.30 12L45.30-2.64Q45.73-2.74 46.24-2.82Q46.76-2.90 47.29-2.94Q47.82-2.98 48.30-3Q48.78-3.02 49.14-3.02ZM51.75 1.82L51.75 1.82Q51.75 0.65 51.03 0.10Q50.31-0.46 49.14-0.46L49.14-0.46Q48.97-0.46 48.73-0.44Q48.49-0.43 48.25-0.38L48.25-0.38L48.25 4.08L48.90 4.08Q50.41 4.08 51.08 3.49Q51.75 2.90 51.75 1.82ZM67.04 9.55L67.04 12L57.70 12L57.70-2.86L60.68-2.86L60.68 9.55L67.04 9.55ZM87.10 12.31L87.10 12.31Q83.96 12.31 82.30 10.30Q80.65 8.28 80.65 4.56L80.65 4.56Q80.65 2.71 81.15 1.27Q81.66-0.17 82.56-1.16Q83.46-2.16 84.69-2.68Q85.93-3.19 87.39-3.19L87.39-3.19Q88.18-3.19 88.82-3.06Q89.46-2.93 89.94-2.76Q90.42-2.59 90.74-2.40Q91.06-2.21 91.23-2.11L91.23-2.11L90.46 0.24Q89.91-0.12 89.13-0.37Q88.35-0.62 87.34-0.62L87.34-0.62Q86.65-0.62 85.99-0.37Q85.33-0.12 84.81 0.47Q84.30 1.06 83.97 2.04Q83.65 3.02 83.65 4.49L83.65 4.49Q83.65 7.03 84.52 8.39Q85.40 9.74 87.39 9.74L87.39 9.74Q88.54 9.74 89.30 9.48Q90.06 9.22 90.51 8.95L90.51 8.95L91.26 11.28Q90.63 11.66 89.56 11.99Q88.50 12.31 87.10 12.31ZM103.33 6.34L103.33 6.34Q103.33 7.68 102.94 8.77Q102.56 9.86 101.86 10.66Q101.17 11.45 100.20 11.88Q99.22 12.31 98.02 12.31L98.02 12.31Q96.82 12.31 95.85 11.88Q94.88 11.45 94.17 10.66Q93.46 9.86 93.08 8.77Q92.70 7.68 92.70 6.34L92.70 6.34Q92.70 5.02 93.09 3.92Q93.49 2.83 94.20 2.05Q94.90 1.27 95.89 0.85Q96.87 0.43 98.02 0.43L98.02 0.43Q99.20 0.43 100.17 0.85Q101.14 1.27 101.85 2.05Q102.56 2.83 102.94 3.92Q103.33 5.02 103.33 6.34ZM95.70 6.36L95.70 6.36Q95.70 7.87 96.24 8.81Q96.78 9.74 97.98 9.74L97.98 9.74Q99.13 9.74 99.72 8.81Q100.30 7.87 100.30 6.36L100.30 6.36Q100.30 4.85 99.76 3.92Q99.22 3 98.02 3L98.02 3Q96.87 3 96.28 3.92Q95.70 4.85 95.70 6.36ZM105.51 12L105.51 1.08Q106.30 0.86 107.47 0.67Q108.63 0.48 110 0.48L110 0.48Q111.34 0.48 112.23 0.85Q113.12 1.22 113.64 1.91Q114.15 2.59 114.37 3.54Q114.58 4.49 114.58 5.64L114.58 5.64L114.58 12L111.63 12L111.63 6.02Q111.63 4.44 111.27 3.74Q110.91 3.05 109.81 3.05L109.81 3.05Q109.47 3.05 109.15 3.07Q108.82 3.10 108.46 3.14L108.46 3.14L108.46 12L105.51 12ZM122.31 12L119.34 12L119.34 3.17L116.86 3.17L116.86 0.72L119.34 0.72L119.34 0.07Q119.34-1.30 119.73-2.20Q120.13-3.10 120.80-3.64Q121.47-4.18 122.34-4.40Q123.20-4.63 124.11-4.63L124.11-4.63Q125.05-4.63 126.03-4.46Q127.02-4.30 127.81-3.91L127.81-3.91L127.30-1.51Q126.75-1.70 125.92-1.91Q125.10-2.11 124.35-2.11L124.35-2.11Q123.94-2.11 123.57-2.04Q123.20-1.97 122.92-1.73Q122.65-1.49 122.48-1.04Q122.31-0.60 122.31 0.12L122.31 0.12L122.31 0.72L126.94 0.72L126.94 3.17L122.31 3.17L122.31 12ZM134.82-2.52L134.82-2.52Q134.82-1.66 134.26-1.15Q133.71-0.65 132.94-0.65L132.94-0.65Q132.18-0.65 131.64-1.15Q131.10-1.66 131.10-2.52L131.10-2.52Q131.10-3.41 131.64-3.91Q132.18-4.42 132.94-4.42L132.94-4.42Q133.71-4.42 134.26-3.91Q134.82-3.41 134.82-2.52ZM138.82 9.14L139.21 11.52Q138.30 11.95 137.49 12.11Q136.69 12.26 136.02 12.26L136.02 12.26Q134.86 12.26 134.08 11.93Q133.30 11.59 132.84 10.96Q132.37 10.32 132.18 9.41Q131.98 8.50 131.98 7.32L131.98 7.32L131.98 3.17L128.86 3.17L128.86 0.72L134.94 0.72L134.94 7.70Q134.94 8.71 135.31 9.20Q135.68 9.70 136.54 9.70L136.54 9.70Q136.95 9.70 137.53 9.59Q138.10 9.48 138.82 9.14L138.82 9.14ZM143.79 6L143.79 6Q143.79 7.39 144.30 8.12Q144.80 8.86 145.88 8.86L145.88 8.86Q146.36 8.86 146.78 8.74Q147.20 8.62 147.54 8.42L147.54 8.42L147.54 3Q147.20 2.93 146.94 2.90Q146.67 2.88 146.38 2.88L146.38 2.88Q143.79 2.88 143.79 6ZM150.51 1.08L150.51 10.63Q150.51 13.39 149.18 14.71Q147.85 16.03 144.90 16.03L144.90 16.03Q143.84 16.03 142.87 15.82Q141.90 15.60 141.01 15.31L141.01 15.31L141.56 12.82Q142.26 13.08 143.02 13.31Q143.79 13.54 144.94 13.54L144.94 13.54Q145.71 13.54 146.22 13.36Q146.72 13.18 147.01 12.86Q147.30 12.55 147.42 12.13Q147.54 11.71 147.54 11.23L147.54 11.23L147.54 10.78Q146.91 11.02 146.40 11.14Q145.88 11.26 145.28 11.26L145.28 11.26Q143.07 11.26 141.93 9.86Q140.79 8.47 140.79 6L140.79 6Q140.79 3.22 142.33 1.85Q143.86 0.48 146.50 0.48L146.50 0.48Q148.35 0.48 150.51 1.08L150.51 1.08Z"/>
    </g>
</svg>