<?xml version="1.0" encoding="UTF-8"?>
<svg height="26" width="131.1" version="1.1" xmlns="http://www.w3.org/2000/svg"><!--Created by Josélio de S. C. Júnior - 2021 - https://github.com/joseliojunior -->
    <defs>
        <pattern id="pattern"
                x="3" y="3" width="6" height="6"
                patternUnits="userSpaceOnUse"
                patternTransform="rotate(45)" >
            <rect height="6" width="6"
                fill="#ffffff"/>
            <line x1="0" y1="0" x2="0" y2="6"
                stroke="#888888"
                stroke-width="2" />
        </pattern>
    </defs>
    <rect
        height="24"
        width="129.1"
        rx="12"
        ry="12"
        x="1" y="1"
        fill="url(#pattern)" />
    <g transform="translate(0, 8)">
        <path fill="#000000" d="M20.70 6.24L20.70 6.24Q20.70 5.42 20.96 4.70Q21.22 3.98 21.74 3.45Q22.27 2.91 23.08 2.60Q23.89 2.29 25.01 2.29L25.01 2.29Q25.68 2.29 26.22 2.38Q26.77 2.48 27.33 2.70L27.33 2.70L26.90 4.29Q26.58 4.18 26.18 4.09Q25.79 4 25.18 4L25.18 4Q24.48 4 24.01 4.17Q23.54 4.34 23.25 4.63Q22.96 4.93 22.83 5.34Q22.70 5.76 22.70 6.24L22.70 6.24Q22.70 7.28 23.29 7.87Q23.87 8.46 25.28 8.46L25.28 8.46Q25.74 8.46 26.25 8.40Q26.75 8.34 27.17 8.19L27.17 8.19L27.46 9.81Q27.04 9.97 26.45 10.07Q25.86 10.18 25.06 10.18L25.06 10.18Q23.90 10.18 23.08 9.87Q22.26 9.57 21.73 9.04Q21.20 8.51 20.95 7.79Q20.70 7.07 20.70 6.24ZM31.97 10.21L31.97 10.21Q31.01 10.21 30.36 9.94Q29.71 9.68 29.33 9.18Q28.94 8.69 28.78 7.98Q28.62 7.28 28.62 6.42L28.62 6.42L28.62 0.10L30.61 0.10L30.61 6.29Q30.61 6.91 30.67 7.34Q30.74 7.76 30.89 8.02Q31.04 8.27 31.31 8.38Q31.58 8.50 32 8.50L32 8.50Q32.42 8.50 32.69 8.38Q32.96 8.27 33.12 8.01Q33.28 7.74 33.34 7.32Q33.41 6.90 33.41 6.27L33.41 6.27L33.41 0.10L35.38 0.10L35.38 6.42Q35.38 7.28 35.22 7.98Q35.06 8.69 34.66 9.18Q34.26 9.68 33.60 9.94Q32.94 10.21 31.97 10.21ZM39.42-0.02L39.42-0.02Q40.27-0.02 40.96 0.18Q41.65 0.37 42.14 0.77Q42.64 1.17 42.90 1.78Q43.17 2.40 43.17 3.23L43.17 3.23Q43.17 4.10 42.82 4.80Q42.46 5.50 41.65 5.87L41.65 5.87Q41.92 6.29 42.22 6.79Q42.53 7.30 42.82 7.85Q43.10 8.40 43.37 8.95Q43.63 9.50 43.82 10L43.82 10L41.76 10Q41.39 9.04 40.90 8.15Q40.42 7.26 39.86 6.35L39.86 6.35L38.83 6.35L38.83 10L36.86 10L36.86 0.24Q37.15 0.18 37.50 0.12Q37.84 0.06 38.19 0.04Q38.54 0.02 38.86 0Q39.18-0.02 39.42-0.02ZM41.17 3.22L41.17 3.22Q41.17 2.43 40.69 2.06Q40.21 1.70 39.42 1.70L39.42 1.70Q39.31 1.70 39.15 1.70Q38.99 1.71 38.83 1.74L38.83 1.74L38.83 4.72L39.26 4.72Q40.27 4.72 40.72 4.33Q41.17 3.94 41.17 3.22ZM51.36 8.37L51.36 10L45.14 10L45.14 0.10L47.12 0.10L47.12 8.37L51.36 8.37ZM64.74 10.21L64.74 10.21Q62.64 10.21 61.54 8.86Q60.43 7.52 60.43 5.04L60.43 5.04Q60.43 3.81 60.77 2.85Q61.10 1.89 61.70 1.22Q62.30 0.56 63.13 0.22Q63.95-0.13 64.93-0.13L64.93-0.13Q65.46-0.13 65.88-0.04Q66.30 0.05 66.62 0.16Q66.94 0.27 67.16 0.40Q67.38 0.53 67.49 0.59L67.49 0.59L66.98 2.16Q66.61 1.92 66.09 1.75Q65.57 1.58 64.90 1.58L64.90 1.58Q64.43 1.58 63.99 1.75Q63.55 1.92 63.21 2.31Q62.86 2.70 62.65 3.36Q62.43 4.02 62.43 4.99L62.43 4.99Q62.43 6.69 63.02 7.59Q63.60 8.50 64.93 8.50L64.93 8.50Q65.70 8.50 66.20 8.32Q66.70 8.14 67.01 7.97L67.01 7.97L67.50 9.52Q67.09 9.78 66.38 9.99Q65.66 10.21 64.74 10.21ZM75.55 6.22L75.55 6.22Q75.55 7.12 75.30 7.85Q75.04 8.58 74.58 9.10Q74.11 9.63 73.46 9.92Q72.82 10.21 72.02 10.21L72.02 10.21Q71.22 10.21 70.57 9.92Q69.92 9.63 69.45 9.10Q68.98 8.58 68.72 7.85Q68.46 7.12 68.46 6.22L68.46 6.22Q68.46 5.34 68.73 4.62Q68.99 3.89 69.46 3.37Q69.94 2.85 70.59 2.57Q71.25 2.29 72.02 2.29L72.02 2.29Q72.80 2.29 73.45 2.57Q74.10 2.85 74.57 3.37Q75.04 3.89 75.30 4.62Q75.55 5.34 75.55 6.22ZM70.46 6.24L70.46 6.24Q70.46 7.25 70.82 7.87Q71.18 8.50 71.98 8.50L71.98 8.50Q72.75 8.50 73.14 7.87Q73.54 7.25 73.54 6.24L73.54 6.24Q73.54 5.23 73.18 4.62Q72.82 4 72.02 4L72.02 4Q71.25 4 70.86 4.62Q70.46 5.23 70.46 6.24ZM77.01 10L77.01 2.72Q77.54 2.58 78.31 2.45Q79.09 2.32 80 2.32L80 2.32Q80.90 2.32 81.49 2.57Q82.08 2.82 82.42 3.27Q82.77 3.73 82.91 4.36Q83.06 4.99 83.06 5.76L83.06 5.76L83.06 10L81.09 10L81.09 6.02Q81.09 4.96 80.85 4.50Q80.61 4.03 79.87 4.03L79.87 4.03Q79.65 4.03 79.43 4.05Q79.22 4.06 78.98 4.10L78.98 4.10L78.98 10L77.01 10ZM88.21 10L86.22 10L86.22 4.11L84.58 4.11L84.58 2.48L86.22 2.48L86.22 2.05Q86.22 1.14 86.49 0.54Q86.75-0.06 87.20-0.42Q87.65-0.78 88.22-0.94Q88.80-1.09 89.41-1.09L89.41-1.09Q90.03-1.09 90.69-0.98Q91.34-0.86 91.87-0.61L91.87-0.61L91.54 0.99Q91.17 0.86 90.62 0.73Q90.06 0.59 89.57 0.59L89.57 0.59Q89.30 0.59 89.05 0.64Q88.80 0.69 88.62 0.85Q88.43 1.01 88.32 1.30Q88.21 1.60 88.21 2.08L88.21 2.08L88.21 2.48L91.30 2.48L91.30 4.11L88.21 4.11L88.21 10ZM96.54 0.32L96.54 0.32Q96.54 0.90 96.18 1.23Q95.81 1.57 95.30 1.57L95.30 1.57Q94.78 1.57 94.42 1.23Q94.06 0.90 94.06 0.32L94.06 0.32Q94.06-0.27 94.42-0.61Q94.78-0.94 95.30-0.94L95.30-0.94Q95.81-0.94 96.18-0.61Q96.54-0.27 96.54 0.32ZM99.22 8.10L99.47 9.68Q98.86 9.97 98.33 10.07Q97.79 10.18 97.34 10.18L97.34 10.18Q96.58 10.18 96.06 9.95Q95.54 9.73 95.22 9.30Q94.91 8.88 94.78 8.27Q94.66 7.66 94.66 6.88L94.66 6.88L94.66 4.11L92.58 4.11L92.58 2.48L96.62 2.48L96.62 7.14Q96.62 7.81 96.87 8.14Q97.12 8.46 97.70 8.46L97.70 8.46Q97.97 8.46 98.35 8.39Q98.74 8.32 99.22 8.10L99.22 8.10ZM102.53 6L102.53 6Q102.53 6.93 102.86 7.42Q103.20 7.90 103.92 7.90L103.92 7.90Q104.24 7.90 104.52 7.82Q104.80 7.74 105.02 7.62L105.02 7.62L105.02 4Q104.80 3.95 104.62 3.94Q104.45 3.92 104.26 3.92L104.26 3.92Q102.53 3.92 102.53 6ZM107.01 2.72L107.01 9.09Q107.01 10.93 106.12 11.81Q105.23 12.69 103.26 12.69L103.26 12.69Q102.56 12.69 101.91 12.54Q101.26 12.40 100.67 12.21L100.67 12.21L101.04 10.54Q101.50 10.72 102.02 10.87Q102.53 11.02 103.30 11.02L103.30 11.02Q103.81 11.02 104.14 10.90Q104.48 10.78 104.67 10.58Q104.86 10.37 104.94 10.09Q105.02 9.81 105.02 9.49L105.02 9.49L105.02 9.18Q104.61 9.34 104.26 9.42Q103.92 9.50 103.52 9.50L103.52 9.50Q102.05 9.50 101.29 8.58Q100.53 7.65 100.53 6L100.53 6Q100.53 4.14 101.55 3.23Q102.58 2.32 104.34 2.32L104.34 2.32Q105.57 2.32 107.01 2.72L107.01 2.72Z"/>
    </g>
</svg>