<?xml version="1.0" encoding="UTF-8"?>
<svg height="26" width="74.4" version="1.1" xmlns="http://www.w3.org/2000/svg"><!--Created by Josélio de S. C. Júnior - 2021 - https://github.com/joseliojunior -->
    <rect
        height="24"
        width="72.4"
        rx="1"
        ry="1"
        x="1" y="1"
        fill="#1d365d"
        stroke="#4d7bc7"
        stroke-width="1" />
    <g transform="translate(0, 8)">
        <path fill="#4d7bc7" d="M27.36 8.37L27.36 10L21.14 10L21.14 0.10L23.12 0.10L23.12 8.37L27.36 8.37ZM28.50 6.30L28.50 6.30Q28.50 5.31 28.80 4.56Q29.10 3.81 29.60 3.30Q30.10 2.80 30.74 2.54Q31.38 2.29 32.05 2.29L32.05 2.29Q33.71 2.29 34.58 3.27Q35.44 4.26 35.44 6.14L35.44 6.14Q35.44 6.34 35.43 6.54Q35.42 6.75 35.41 6.88L35.41 6.88L30.53 6.88Q30.53 7.62 31.14 8.04Q31.74 8.46 32.70 8.46L32.70 8.46Q33.30 8.46 33.83 8.34Q34.37 8.21 34.74 8.08L34.74 8.08L35.01 9.76Q34.50 9.94 33.92 10.06Q33.34 10.18 32.62 10.18L32.62 10.18Q31.66 10.18 30.90 9.93Q30.14 9.68 29.61 9.19Q29.07 8.70 28.78 7.98Q28.50 7.26 28.50 6.30ZM30.53 5.52L33.54 5.52Q33.54 5.22 33.46 4.94Q33.38 4.66 33.20 4.43Q33.02 4.21 32.75 4.07Q32.48 3.94 32.08 3.94L32.08 3.94Q31.70 3.94 31.42 4.06Q31.14 4.19 30.95 4.42Q30.77 4.64 30.66 4.93Q30.56 5.22 30.53 5.52L30.53 5.52ZM39.65 8.51L39.65 8.51Q40.37 8.51 40.75 8.41Q41.14 8.30 41.14 7.98L41.14 7.98Q41.14 7.78 41.02 7.63Q40.90 7.49 40.68 7.38Q40.46 7.28 40.18 7.18Q39.90 7.09 39.60 6.99L39.60 6.99Q39.17 6.86 38.72 6.70Q38.27 6.53 37.90 6.27Q37.54 6.02 37.30 5.62Q37.06 5.23 37.06 4.64L37.06 4.64Q37.06 4.16 37.24 3.74Q37.42 3.31 37.82 2.98Q38.21 2.66 38.82 2.47Q39.42 2.29 40.27 2.29L40.27 2.29Q41.01 2.29 41.64 2.40Q42.27 2.51 42.74 2.72L42.74 2.72L42.43 4.38Q42.16 4.30 41.58 4.12Q41.01 3.94 40.29 3.94L40.29 3.94Q39.54 3.94 39.27 4.12Q39.01 4.30 39.01 4.51L39.01 4.51Q39.01 4.69 39.13 4.82Q39.25 4.96 39.45 5.07Q39.65 5.18 39.91 5.29Q40.18 5.39 40.48 5.49L40.48 5.49Q40.91 5.63 41.38 5.81Q41.84 5.98 42.22 6.25Q42.59 6.51 42.83 6.92Q43.07 7.33 43.07 7.92L43.07 7.92Q43.07 8.38 42.90 8.80Q42.72 9.22 42.31 9.52Q41.90 9.82 41.25 10Q40.59 10.18 39.63 10.18L39.63 10.18Q38.66 10.18 37.97 9.95Q37.28 9.73 36.86 9.55L36.86 9.55L37.17 7.90Q37.73 8.13 38.36 8.32Q38.99 8.51 39.65 8.51ZM47.65 8.51L47.65 8.51Q48.37 8.51 48.75 8.41Q49.14 8.30 49.14 7.98L49.14 7.98Q49.14 7.78 49.02 7.63Q48.90 7.49 48.68 7.38Q48.46 7.28 48.18 7.18Q47.90 7.09 47.60 6.99L47.60 6.99Q47.17 6.86 46.72 6.70Q46.27 6.53 45.90 6.27Q45.54 6.02 45.30 5.62Q45.06 5.23 45.06 4.64L45.06 4.64Q45.06 4.16 45.24 3.74Q45.42 3.31 45.82 2.98Q46.21 2.66 46.82 2.47Q47.42 2.29 48.27 2.29L48.27 2.29Q49.01 2.29 49.64 2.40Q50.27 2.51 50.74 2.72L50.74 2.72L50.43 4.38Q50.16 4.30 49.58 4.12Q49.01 3.94 48.29 3.94L48.29 3.94Q47.54 3.94 47.27 4.12Q47.01 4.30 47.01 4.51L47.01 4.51Q47.01 4.69 47.13 4.82Q47.25 4.96 47.45 5.07Q47.65 5.18 47.91 5.29Q48.18 5.39 48.48 5.49L48.48 5.49Q48.91 5.63 49.38 5.81Q49.84 5.98 50.22 6.25Q50.59 6.51 50.83 6.92Q51.07 7.33 51.07 7.92L51.07 7.92Q51.07 8.38 50.90 8.80Q50.72 9.22 50.31 9.52Q49.90 9.82 49.25 10Q48.59 10.18 47.63 10.18L47.63 10.18Q46.66 10.18 45.97 9.95Q45.28 9.73 44.86 9.55L44.86 9.55L45.17 7.90Q45.73 8.13 46.36 8.32Q46.99 8.51 47.65 8.51Z"/>
    </g>
</svg>