<?xml version="1.0" encoding="UTF-8"?>
<svg height="34" width="177.1" version="1.1" xmlns="http://www.w3.org/2000/svg">
    <rect
        height="32"
        width="175.1"
        rx="14"
        ry="14"
        x="1"
        y="1"
        fill="#8eff23"
        stroke="#438a00"
        stroke-width="1"
         />
    <g transform="translate(0, 14)">
        <path fill="#438a00" d="M14.96-3.45L14.96 8.20Q15.10 8.23 15.26 8.23Q15.43 8.23 15.57 8.23L15.57 8.23Q16.75 8.23 17.55 7.78Q18.34 7.33 18.83 6.55Q19.32 5.76 19.53 4.69Q19.74 3.61 19.74 2.32L19.74 2.32Q19.74 1.20 19.58 0.14Q19.41-0.93 18.99-1.74Q18.57-2.55 17.84-3.04Q17.11-3.53 15.96-3.53L15.96-3.53Q15.74-3.53 15.46-3.52Q15.18-3.50 14.96-3.45L14.96-3.45ZM23.24 2.32L23.24 2.32Q23.24 4.73 22.64 6.42Q22.04 8.12 20.98 9.18Q19.91 10.24 18.44 10.73Q16.97 11.22 15.21 11.22L15.21 11.22Q14.28 11.22 13.40 11.13Q12.52 11.03 11.51 10.80L11.51 10.80L11.51-6.11Q12.69-6.36 13.72-6.44Q14.76-6.53 15.66-6.53L15.66-6.53Q17.36-6.53 18.78-6.02Q20.19-5.52 21.17-4.44Q22.15-3.36 22.70-1.70Q23.24-0.03 23.24 2.32ZM31.03 8.54L31.03 8.54Q31.59 8.54 32.12 8.52Q32.65 8.51 33.04 8.45L33.04 8.45L33.04 5.43Q32.71 5.37 32.23 5.33Q31.76 5.29 31.36 5.29L31.36 5.29Q30.83 5.29 30.33 5.36Q29.82 5.43 29.45 5.60Q29.07 5.76 28.84 6.07Q28.62 6.38 28.62 6.88L28.62 6.88Q28.62 7.78 29.29 8.16Q29.96 8.54 31.03 8.54ZM30.72-2.50L30.72-2.50Q32.34-2.50 33.42-2.12Q34.50-1.74 35.14-1.05Q35.79-0.37 36.07 0.63Q36.35 1.62 36.35 2.85L36.35 2.85L36.35 10.69Q35.59 10.86 34.11 11.08Q32.62 11.31 30.78 11.31L30.78 11.31Q29.52 11.31 28.49 11.08Q27.47 10.86 26.74 10.34Q26.02 9.82 25.62 9.00Q25.23 8.17 25.23 6.97L25.23 6.97Q25.23 5.82 25.68 5.04Q26.13 4.25 26.88 3.78Q27.64 3.30 28.62 3.09Q29.60 2.88 30.66 2.88L30.66 2.88Q32.01 2.88 33.04 3.10L33.04 3.10L33.04 2.68Q33.04 1.70 32.43 1.05Q31.81 0.39 30.30 0.39L30.30 0.39Q29.32 0.39 28.41 0.53Q27.50 0.67 26.94 0.86L26.94 0.86L26.46-1.91Q27.11-2.13 28.28-2.31Q29.46-2.50 30.72-2.50ZM50.85-1.85L50.24 1.34Q49.90 1.26 49.44 1.17Q48.98 1.09 48.50 1.02Q48.02 0.95 47.58 0.92Q47.13 0.89 46.82 0.89L46.82 0.89Q46.09 0.89 45.39 0.96Q44.69 1.03 43.96 1.23L43.96 1.23L43.96 11L40.49 11L40.49-1.29Q41.86-1.80 43.31-2.10Q44.75-2.41 46.68-2.41L46.68-2.41Q46.96-2.41 47.48-2.38Q48.00-2.36 48.58-2.29Q49.17-2.22 49.77-2.12Q50.38-2.02 50.85-1.85L50.85-1.85ZM53.23 4.42L53.23 4.42Q53.23 2.99 53.68 1.73Q54.13 0.47 55.05-0.47Q55.98-1.40 57.39-1.95Q58.80-2.50 60.76-2.50L60.76-2.50Q61.94-2.50 62.89-2.33Q63.84-2.16 64.82-1.77L64.82-1.77L64.07 1.00Q63.51 0.81 62.82 0.65Q62.14 0.50 61.07 0.50L61.07 0.50Q59.84 0.50 59.01 0.79Q58.19 1.09 57.68 1.61Q57.18 2.12 56.96 2.85Q56.73 3.58 56.73 4.42L56.73 4.42Q56.73 6.24 57.75 7.28Q58.78 8.31 61.24 8.31L61.24 8.31Q62.05 8.31 62.93 8.20Q63.82 8.09 64.54 7.84L64.54 7.84L65.05 10.66Q64.32 10.94 63.28 11.13Q62.25 11.31 60.85 11.31L60.85 11.31Q58.83 11.31 57.39 10.78Q55.95 10.24 55.02 9.32Q54.10 8.40 53.67 7.14Q53.23 5.88 53.23 4.42ZM72.38 8.40L72.38 8.40Q73.64 8.40 74.32 8.21Q74.99 8.03 74.99 7.47L74.99 7.47Q74.99 7.11 74.78 6.86Q74.57 6.60 74.19 6.42Q73.81 6.24 73.32 6.07Q72.83 5.90 72.30 5.74L72.30 5.74Q71.54 5.51 70.76 5.22Q69.98 4.92 69.33 4.48Q68.69 4.03 68.27 3.34Q67.85 2.66 67.85 1.62L67.85 1.62Q67.85 0.78 68.17 0.04Q68.49-0.70 69.18-1.28Q69.86-1.85 70.93-2.17Q71.99-2.50 73.48-2.50L73.48-2.50Q74.76-2.50 75.87-2.30Q76.98-2.10 77.79-1.74L77.79-1.74L77.26 1.17Q76.78 1.03 75.77 0.71Q74.76 0.39 73.50 0.39L73.50 0.39Q72.19 0.39 71.73 0.71Q71.26 1.03 71.26 1.40L71.26 1.40Q71.26 1.70 71.47 1.94Q71.68 2.18 72.03 2.38Q72.38 2.57 72.85 2.75Q73.31 2.94 73.84 3.10L73.84 3.10Q74.60 3.36 75.41 3.66Q76.22 3.97 76.88 4.43Q77.54 4.90 77.96 5.61Q78.38 6.32 78.38 7.36L78.38 7.36Q78.38 8.17 78.07 8.90Q77.76 9.63 77.05 10.16Q76.33 10.69 75.18 11Q74.04 11.31 72.36 11.31L72.36 11.31Q70.65 11.31 69.44 10.92Q68.24 10.52 67.51 10.22L67.51 10.22L68.04 7.33Q69.02 7.72 70.13 8.06Q71.24 8.40 72.38 8.40ZM100.27-6.53L100.27-6.53Q103.58-6.53 105.40-5.17Q107.22-3.81 107.22-0.73L107.22-0.73Q107.22 2.38 105.38 3.76Q103.55 5.15 100.19 5.15L100.19 5.15L98.96 5.15L98.96 11L95.51 11L95.51-6.11Q96.02-6.22 96.65-6.30Q97.28-6.39 97.92-6.43Q98.56-6.47 99.18-6.50Q99.80-6.53 100.27-6.53ZM100.66-3.53L100.66-3.53Q100.36-3.53 99.81-3.52Q99.26-3.50 98.96-3.45L98.96-3.45L98.96 2.15L100.36 2.15Q102.01 2.15 102.85 1.49Q103.69 0.84 103.69-0.76L103.69-0.76Q103.69-2.27 102.86-2.90Q102.04-3.53 100.66-3.53ZM115.03 8.54L115.03 8.54Q115.59 8.54 116.12 8.52Q116.65 8.51 117.04 8.45L117.04 8.45L117.04 5.43Q116.71 5.37 116.23 5.33Q115.76 5.29 115.36 5.29L115.36 5.29Q114.83 5.29 114.33 5.36Q113.82 5.43 113.45 5.60Q113.07 5.76 112.84 6.07Q112.62 6.38 112.62 6.88L112.62 6.88Q112.62 7.78 113.29 8.16Q113.96 8.54 115.03 8.54ZM114.72-2.50L114.72-2.50Q116.34-2.50 117.42-2.12Q118.50-1.74 119.14-1.05Q119.79-0.37 120.07 0.63Q120.35 1.62 120.35 2.85L120.35 2.85L120.35 10.69Q119.59 10.86 118.11 11.08Q116.62 11.31 114.78 11.31L114.78 11.31Q113.52 11.31 112.49 11.08Q111.47 10.86 110.74 10.34Q110.02 9.82 109.62 9.00Q109.23 8.17 109.23 6.97L109.23 6.97Q109.23 5.82 109.68 5.04Q110.13 4.25 110.88 3.78Q111.64 3.30 112.62 3.09Q113.60 2.88 114.66 2.88L114.66 2.88Q116.01 2.88 117.04 3.10L117.04 3.10L117.04 2.68Q117.04 1.70 116.43 1.05Q115.81 0.39 114.30 0.39L114.30 0.39Q113.32 0.39 112.41 0.53Q111.50 0.67 110.94 0.86L110.94 0.86L110.46-1.91Q111.11-2.13 112.28-2.31Q113.46-2.50 114.72-2.50ZM126.00 6.10L126.00 0.70L123.01 0.70L123.01-2.16L126.00-2.16L126.00-5.46L129.45-6.02L129.45-2.16L134.96-2.16L134.96 0.70L129.45 0.70L129.45 6.02Q129.45 6.74 129.59 7.19Q129.73 7.64 129.98 7.89Q130.23 8.14 130.60 8.23Q130.96 8.31 131.41 8.31L131.41 8.31Q131.88 8.31 132.29 8.28Q132.70 8.26 133.07 8.19Q133.45 8.12 133.86 7.98Q134.26 7.84 134.74 7.61L134.74 7.61L135.22 10.58Q134.26 10.97 133.16 11.14Q132.05 11.31 131.02 11.31L131.02 11.31Q129.81 11.31 128.89 11.11Q127.96 10.92 127.32 10.36Q126.68 9.80 126.34 8.77Q126.00 7.75 126.00 6.10L126.00 6.10ZM137.23 4.42L137.23 4.42Q137.23 2.99 137.68 1.73Q138.13 0.47 139.05-0.47Q139.98-1.40 141.39-1.95Q142.80-2.50 144.76-2.50L144.76-2.50Q145.94-2.50 146.89-2.33Q147.84-2.16 148.82-1.77L148.82-1.77L148.07 1.00Q147.51 0.81 146.82 0.65Q146.14 0.50 145.07 0.50L145.07 0.50Q143.84 0.50 143.01 0.79Q142.19 1.09 141.68 1.61Q141.18 2.12 140.96 2.85Q140.73 3.58 140.73 4.42L140.73 4.42Q140.73 6.24 141.75 7.28Q142.78 8.31 145.24 8.31L145.24 8.31Q146.05 8.31 146.93 8.20Q147.82 8.09 148.54 7.84L148.54 7.84L149.05 10.66Q148.32 10.94 147.28 11.13Q146.25 11.31 144.85 11.31L144.85 11.31Q142.83 11.31 141.39 10.78Q139.95 10.24 139.02 9.32Q138.10 8.40 137.67 7.14Q137.23 5.88 137.23 4.42ZM155.21 11L151.76 11L151.76-7.84L155.21-8.43L155.21-2.05Q155.63-2.19 156.22-2.31Q156.80-2.44 157.25-2.44L157.25-2.44Q158.71-2.44 159.69-2.01Q160.67-1.57 161.26-0.77Q161.84 0.02 162.10 1.13Q162.35 2.24 162.35 3.58L162.35 3.58L162.35 11L158.90 11L158.90 4.03Q158.90 2.18 158.48 1.37Q158.06 0.56 156.89 0.56L156.89 0.56Q156.41 0.56 155.95 0.67Q155.49 0.78 155.21 0.86L155.21 0.86L155.21 11Z"/>
    </g>
</svg>