<?xml version="1.0" encoding="UTF-8"?><svg height="26" width="147.3" version="1.1" xmlns="http://www.w3.org/2000/svg"><!--Created by Josélio de S. C. Júnior - 2021 - https://github.com/joseliojunior --><defs><pattern id="pattern" x="3" y="3" width="6" height="6" patternUnits="userSpaceOnUse" patternTransform="rotate(45)"><rect height="6" width="6" fill="#ffffff"/><line x1="0" y1="0" x2="0" y2="6" stroke="#bbbbbb" stroke-width="2" /></pattern></defs><rect height="24" width="145.3" rx="12" ry="12" x="1" y="1" fill="url(#pattern)" /><g transform="translate(0, 8)"><path fill="#000000" d="M27.36 8.37L27.36 10L21.14 10L21.14 0.10L23.12 0.10L23.12 8.37L27.36 8.37ZM32.54 0.32L32.54 0.32Q32.54 0.90 32.18 1.23Q31.81 1.57 31.30 1.57L31.30 1.57Q30.78 1.57 30.42 1.23Q30.06 0.90 30.06 0.32L30.06 0.32Q30.06-0.27 30.42-0.61Q30.78-0.94 31.30-0.94L31.30-0.94Q31.81-0.94 32.18-0.61Q32.54-0.27 32.54 0.32ZM35.22 8.10L35.47 9.68Q34.86 9.97 34.33 10.07Q33.79 10.18 33.34 10.18L33.34 10.18Q32.58 10.18 32.06 9.95Q31.54 9.73 31.22 9.30Q30.91 8.88 30.78 8.27Q30.66 7.66 30.66 6.88L30.66 6.88L30.66 4.11L28.58 4.11L28.58 2.48L32.62 2.48L32.62 7.14Q32.62 7.81 32.87 8.14Q33.12 8.46 33.70 8.46L33.70 8.46Q33.97 8.46 34.35 8.39Q34.74 8.32 35.22 8.10L35.22 8.10ZM37.01 10L37.01 2.72Q37.54 2.58 38.31 2.45Q39.09 2.32 40 2.32L40 2.32Q40.90 2.32 41.49 2.57Q42.08 2.82 42.42 3.27Q42.77 3.73 42.91 4.36Q43.06 4.99 43.06 5.76L43.06 5.76L43.06 10L41.09 10L41.09 6.02Q41.09 4.96 40.85 4.50Q40.61 4.03 39.87 4.03L39.87 4.03Q39.65 4.03 39.43 4.05Q39.22 4.06 38.98 4.10L38.98 4.10L38.98 10L37.01 10ZM46.99-1.10L46.99 5.46Q47.28 5.12 47.58 4.74Q47.87 4.37 48.15 3.97Q48.43 3.57 48.69 3.19Q48.94 2.82 49.14 2.48L49.14 2.48L51.50 2.48Q51.22 2.85 50.85 3.28Q50.48 3.71 50.09 4.16Q49.70 4.61 49.30 5.02Q48.91 5.44 48.59 5.79L48.59 5.79Q48.99 6.18 49.46 6.71Q49.92 7.25 50.37 7.82Q50.82 8.40 51.19 8.98Q51.57 9.55 51.79 10L51.79 10L49.54 10Q49.34 9.60 49.03 9.10Q48.72 8.59 48.37 8.10Q48.02 7.62 47.66 7.18Q47.30 6.74 46.99 6.45L46.99 6.45L46.99 10L45.01 10L45.01-0.77L46.99-1.10ZM52.50 6.30L52.50 6.30Q52.50 5.31 52.80 4.56Q53.10 3.81 53.60 3.30Q54.10 2.80 54.74 2.54Q55.38 2.29 56.05 2.29L56.05 2.29Q57.71 2.29 58.58 3.27Q59.44 4.26 59.44 6.14L59.44 6.14Q59.44 6.34 59.43 6.54Q59.42 6.75 59.41 6.88L59.41 6.88L54.53 6.88Q54.53 7.62 55.14 8.04Q55.74 8.46 56.70 8.46L56.70 8.46Q57.30 8.46 57.83 8.34Q58.37 8.21 58.74 8.08L58.74 8.08L59.01 9.76Q58.50 9.94 57.92 10.06Q57.34 10.18 56.62 10.18L56.62 10.18Q55.66 10.18 54.90 9.93Q54.14 9.68 53.61 9.19Q53.07 8.70 52.78 7.98Q52.50 7.26 52.50 6.30ZM54.53 5.52L57.54 5.52Q57.54 5.22 57.46 4.94Q57.38 4.66 57.20 4.43Q57.02 4.21 56.75 4.07Q56.48 3.94 56.08 3.94L56.08 3.94Q55.70 3.94 55.42 4.06Q55.14 4.19 54.95 4.42Q54.77 4.64 54.66 4.93Q54.56 5.22 54.53 5.52L54.53 5.52ZM67.34 2.66L66.99 4.48Q66.80 4.43 66.54 4.38Q66.27 4.34 66 4.30Q65.73 4.26 65.47 4.24Q65.22 4.22 65.04 4.22L65.04 4.22Q64.62 4.22 64.22 4.26Q63.82 4.30 63.41 4.42L63.41 4.42L63.41 10L61.42 10L61.42 2.98Q62.21 2.69 63.03 2.51Q63.86 2.34 64.96 2.34L64.96 2.34Q65.12 2.34 65.42 2.35Q65.71 2.37 66.05 2.41Q66.38 2.45 66.73 2.50Q67.07 2.56 67.34 2.66L67.34 2.66ZM79.71 8.56L79.71 8.56Q80.21 8.56 80.54 8.46Q80.86 8.35 81.06 8.17Q81.25 7.98 81.32 7.75Q81.39 7.52 81.39 7.28L81.39 7.28Q81.39 6.98 81.22 6.74Q81.04 6.50 80.77 6.31Q80.50 6.13 80.16 5.98Q79.82 5.82 79.49 5.70L79.49 5.70Q79.04 5.54 78.56 5.33Q78.08 5.12 77.69 4.80Q77.30 4.48 77.04 4.01Q76.78 3.54 76.78 2.83L76.78 2.83Q76.78 1.44 77.69 0.66Q78.59-0.13 80.18-0.13L80.18-0.13Q81.09-0.13 81.77 0.08Q82.45 0.29 82.91 0.54L82.91 0.54L82.34 2.06Q81.94 1.84 81.45 1.68Q80.96 1.52 80.32 1.52L80.32 1.52Q78.75 1.52 78.75 2.66L78.75 2.66Q78.75 2.94 78.91 3.16Q79.07 3.38 79.32 3.54Q79.57 3.71 79.88 3.84Q80.19 3.97 80.50 4.08L80.50 4.08Q80.96 4.26 81.46 4.47Q81.97 4.69 82.39 5.05Q82.82 5.41 83.09 5.94Q83.36 6.48 83.36 7.30L83.36 7.30Q83.36 8.69 82.46 9.45Q81.55 10.21 79.71 10.21L79.71 10.21Q78.48 10.21 77.74 9.94Q77.01 9.68 76.64 9.46L76.64 9.46L77.22 7.86Q77.65 8.11 78.25 8.34Q78.85 8.56 79.71 8.56ZM84.70 6.24L84.70 6.24Q84.70 5.42 84.96 4.70Q85.22 3.98 85.74 3.45Q86.27 2.91 87.08 2.60Q87.89 2.29 89.01 2.29L89.01 2.29Q89.68 2.29 90.22 2.38Q90.77 2.48 91.33 2.70L91.33 2.70L90.90 4.29Q90.58 4.18 90.18 4.09Q89.79 4 89.18 4L89.18 4Q88.48 4 88.01 4.17Q87.54 4.34 87.25 4.63Q86.96 4.93 86.83 5.34Q86.70 5.76 86.70 6.24L86.70 6.24Q86.70 7.28 87.29 7.87Q87.87 8.46 89.28 8.46L89.28 8.46Q89.74 8.46 90.25 8.40Q90.75 8.34 91.17 8.19L91.17 8.19L91.46 9.81Q91.04 9.97 90.45 10.07Q89.86 10.18 89.06 10.18L89.06 10.18Q87.90 10.18 87.08 9.87Q86.26 9.57 85.73 9.04Q85.20 8.51 84.95 7.79Q84.70 7.07 84.70 6.24ZM99.34 2.66L98.99 4.48Q98.80 4.43 98.54 4.38Q98.27 4.34 98 4.30Q97.73 4.26 97.47 4.24Q97.22 4.22 97.04 4.22L97.04 4.22Q96.62 4.22 96.22 4.26Q95.82 4.30 95.41 4.42L95.41 4.42L95.41 10L93.42 10L93.42 2.98Q94.21 2.69 95.03 2.51Q95.86 2.34 96.96 2.34L96.96 2.34Q97.12 2.34 97.42 2.35Q97.71 2.37 98.05 2.41Q98.38 2.45 98.73 2.50Q99.07 2.56 99.34 2.66L99.34 2.66ZM104.54 0.32L104.54 0.32Q104.54 0.90 104.18 1.23Q103.81 1.57 103.30 1.57L103.30 1.57Q102.78 1.57 102.42 1.23Q102.06 0.90 102.06 0.32L102.06 0.32Q102.06-0.27 102.42-0.61Q102.78-0.94 103.30-0.94L103.30-0.94Q103.81-0.94 104.18-0.61Q104.54-0.27 104.54 0.32ZM107.22 8.10L107.47 9.68Q106.86 9.97 106.33 10.07Q105.79 10.18 105.34 10.18L105.34 10.18Q104.58 10.18 104.06 9.95Q103.54 9.73 103.22 9.30Q102.91 8.88 102.78 8.27Q102.66 7.66 102.66 6.88L102.66 6.88L102.66 4.11L100.58 4.11L100.58 2.48L104.62 2.48L104.62 7.14Q104.62 7.81 104.87 8.14Q105.12 8.46 105.70 8.46L105.70 8.46Q105.97 8.46 106.35 8.39Q106.74 8.32 107.22 8.10L107.22 8.10ZM113.50 6.30L113.50 6.30Q113.50 5.30 113.10 4.65Q112.70 4 111.89 4L111.89 4Q111.66 4 111.41 4.02Q111.15 4.05 110.98 4.06L110.98 4.06L110.98 8.19Q111.17 8.32 111.49 8.40Q111.81 8.48 112.13 8.48L112.13 8.48Q112.83 8.48 113.17 7.91Q113.50 7.34 113.50 6.30ZM115.50 6.24L115.50 6.24Q115.50 7.10 115.31 7.83Q115.12 8.56 114.75 9.08Q114.38 9.60 113.82 9.89Q113.26 10.18 112.53 10.18L112.53 10.18Q111.78 10.18 110.98 9.81L110.98 9.81L110.98 12.64L109.01 12.64L109.01 2.72Q109.55 2.54 110.34 2.43Q111.14 2.32 111.90 2.32L111.90 2.32Q113.65 2.32 114.58 3.38Q115.50 4.43 115.50 6.24ZM118.29 7.20L118.29 4.11L116.58 4.11L116.58 2.48L118.29 2.48L118.29 0.59L120.26 0.27L120.26 2.48L123.41 2.48L123.41 4.11L120.26 4.11L120.26 7.15Q120.26 7.57 120.34 7.82Q120.42 8.08 120.56 8.22Q120.70 8.37 120.91 8.42Q121.12 8.46 121.38 8.46L121.38 8.46Q121.65 8.46 121.88 8.45Q122.11 8.43 122.33 8.39Q122.54 8.35 122.78 8.27Q123.01 8.19 123.28 8.06L123.28 8.06L123.55 9.76Q123.01 9.98 122.38 10.08Q121.74 10.18 121.15 10.18L121.15 10.18Q120.46 10.18 119.94 10.06Q119.41 9.95 119.04 9.63Q118.67 9.31 118.48 8.73Q118.29 8.14 118.29 7.20L118.29 7.20Z"/></g></svg>