<?xml version="1.0" encoding="UTF-8"?>
<svg height="26" width="82.5" version="1.1" xmlns="http://www.w3.org/2000/svg"><!--Created by Josélio de S. C. Júnior - 2021 - https://github.com/joseliojunior -->
    <rect
        height="24"
        width="80.5"
        rx="1"
        ry="1"
        x="1" y="1"
        fill="#8f14e9"
        stroke="#3a085e"
        stroke-width="1" />
    <g transform="translate(0, 8)">
        <path fill="#3a085e" stroke="none" d="M20.94 0.10L22.58 0.10Q22.69 0.43 22.86 0.96Q23.02 1.49 23.22 2.10Q23.41 2.70 23.60 3.33Q23.79 3.95 23.97 4.48L23.97 4.48Q24.16 3.89 24.37 3.26Q24.58 2.62 24.77 2.04Q24.96 1.46 25.12 0.94Q25.28 0.43 25.41 0.10L25.41 0.10L27.04 0.10Q27.15 1.39 27.26 2.62Q27.36 3.86 27.43 5.06Q27.50 6.27 27.55 7.50Q27.60 8.72 27.63 10L27.63 10L25.82 10L25.92 2.30L24.70 6.50L23.26 6.50L22.10 2.30L22.18 10L20.37 10Q20.42 8.78 20.47 7.47Q20.53 6.16 20.59 4.86Q20.66 3.57 20.74 2.35Q20.83 1.14 20.94 0.10L20.94 0.10ZM28.50 6.30L28.50 6.30Q28.50 5.31 28.80 4.56Q29.10 3.81 29.60 3.30Q30.10 2.80 30.74 2.54Q31.38 2.29 32.05 2.29L32.05 2.29Q33.71 2.29 34.58 3.27Q35.44 4.26 35.44 6.14L35.44 6.14Q35.44 6.34 35.43 6.54Q35.42 6.75 35.41 6.88L35.41 6.88L30.53 6.88Q30.53 7.62 31.14 8.04Q31.74 8.46 32.70 8.46L32.70 8.46Q33.30 8.46 33.83 8.34Q34.37 8.21 34.74 8.08L34.74 8.08L35.01 9.76Q34.50 9.94 33.92 10.06Q33.34 10.18 32.62 10.18L32.62 10.18Q31.66 10.18 30.90 9.93Q30.14 9.68 29.61 9.19Q29.07 8.70 28.78 7.98Q28.50 7.26 28.50 6.30ZM30.53 5.52L33.54 5.52Q33.54 5.22 33.46 4.94Q33.38 4.66 33.20 4.43Q33.02 4.21 32.75 4.07Q32.48 3.94 32.08 3.94L32.08 3.94Q31.70 3.94 31.42 4.06Q31.14 4.19 30.95 4.42Q30.77 4.64 30.66 4.93Q30.56 5.22 30.53 5.52L30.53 5.52ZM38.29 7.20L38.29 4.11L36.58 4.11L36.58 2.48L38.29 2.48L38.29 0.59L40.26 0.27L40.26 2.48L43.41 2.48L43.41 4.11L40.26 4.11L40.26 7.15Q40.26 7.57 40.34 7.82Q40.42 8.08 40.56 8.22Q40.70 8.37 40.91 8.42Q41.12 8.46 41.38 8.46L41.38 8.46Q41.65 8.46 41.88 8.45Q42.11 8.43 42.33 8.39Q42.54 8.35 42.78 8.27Q43.01 8.19 43.28 8.06L43.28 8.06L43.55 9.76Q43.01 9.98 42.38 10.08Q41.74 10.18 41.15 10.18L41.15 10.18Q40.46 10.18 39.94 10.06Q39.41 9.95 39.04 9.63Q38.67 9.31 38.48 8.73Q38.29 8.14 38.29 7.20L38.29 7.20ZM48.02 8.59L48.02 8.59Q48.34 8.59 48.64 8.58Q48.94 8.58 49.17 8.54L49.17 8.54L49.17 6.82Q48.98 6.78 48.70 6.76Q48.43 6.74 48.21 6.74L48.21 6.74Q47.90 6.74 47.62 6.78Q47.33 6.82 47.11 6.91Q46.90 7.01 46.77 7.18Q46.64 7.36 46.64 7.65L46.64 7.65Q46.64 8.16 47.02 8.38Q47.41 8.59 48.02 8.59ZM47.84 2.29L47.84 2.29Q48.77 2.29 49.38 2.50Q50 2.72 50.37 3.11Q50.74 3.50 50.90 4.07Q51.06 4.64 51.06 5.34L51.06 5.34L51.06 9.82Q50.62 9.92 49.78 10.05Q48.93 10.18 47.87 10.18L47.87 10.18Q47.15 10.18 46.57 10.05Q45.98 9.92 45.57 9.62Q45.15 9.33 44.93 8.86Q44.70 8.38 44.70 7.70L44.70 7.70Q44.70 7.04 44.96 6.59Q45.22 6.14 45.65 5.87Q46.08 5.60 46.64 5.48Q47.20 5.36 47.81 5.36L47.81 5.36Q48.58 5.36 49.17 5.49L49.17 5.49L49.17 5.25Q49.17 4.69 48.82 4.31Q48.46 3.94 47.60 3.94L47.60 3.94Q47.04 3.94 46.52 4.02Q46 4.10 45.68 4.21L45.68 4.21L45.41 2.62Q45.78 2.50 46.45 2.39Q47.12 2.29 47.84 2.29ZM59.22 8.10L59.47 9.68Q59.42 9.71 59.26 9.79Q59.09 9.87 58.82 9.96Q58.54 10.05 58.15 10.11Q57.76 10.18 57.26 10.18L57.26 10.18Q55.90 10.18 55.28 9.37Q54.66 8.56 54.66 7.01L54.66 7.01L54.66 0.62L52.58 0.62L52.58-1.01L56.62-1.01L56.62 7.15Q56.62 7.92 56.93 8.19Q57.23 8.46 57.70 8.46L57.70 8.46Q58.29 8.46 58.69 8.30Q59.09 8.14 59.22 8.10L59.22 8.10Z"/>
    </g>
</svg>