<?xml version="1.0" encoding="UTF-8"?>
<svg height="34" width="102.5" version="1.1" xmlns="http://www.w3.org/2000/svg"><!--Created by Josélio de S. C. Júnior - 2021 - https://github.com/joseliojunior -->
    <rect
        height="32"
        width="100.5"
        rx="1"
        ry="1"
        x="1" y="1"
        fill="#8f14e9"
        stroke="#3a085e"
        stroke-width="1" />
    <g transform="translate(0, 12)">
        <path fill="#3a085e" d="M21.42-2.86L23.86-2.86Q24.03-2.35 24.28-1.56Q24.54-0.77 24.82 0.14Q25.11 1.06 25.40 1.99Q25.69 2.93 25.95 3.72L25.95 3.72Q26.24 2.83 26.55 1.88Q26.86 0.94 27.15 0.06Q27.44-0.82 27.68-1.58Q27.92-2.35 28.11-2.86L28.11-2.86L30.56-2.86Q30.73-0.91 30.88 0.94Q31.04 2.78 31.15 4.60Q31.26 6.41 31.33 8.24Q31.40 10.08 31.45 12L31.45 12L28.74 12L28.88 0.46L27.06 6.74L24.90 6.74L23.14 0.46L23.26 12L20.55 12Q20.62 10.18 20.71 8.21Q20.79 6.24 20.89 4.30Q20.98 2.35 21.12 0.53Q21.25-1.30 21.42-2.86L21.42-2.86ZM32.74 6.46L32.74 6.46Q32.74 4.97 33.20 3.84Q33.66 2.71 34.40 1.96Q35.14 1.20 36.10 0.82Q37.06 0.43 38.07 0.43L38.07 0.43Q40.57 0.43 41.86 1.91Q43.16 3.38 43.16 6.22L43.16 6.22Q43.16 6.50 43.15 6.82Q43.14 7.13 43.11 7.32L43.11 7.32L35.79 7.32Q35.79 8.42 36.70 9.06Q37.62 9.70 39.06 9.70L39.06 9.70Q39.94 9.70 40.75 9.50Q41.55 9.31 42.10 9.12L42.10 9.12L42.51 11.64Q41.74 11.90 40.88 12.08Q40.02 12.26 38.94 12.26L38.94 12.26Q37.50 12.26 36.36 11.89Q35.22 11.52 34.41 10.79Q33.61 10.06 33.18 8.98Q32.74 7.90 32.74 6.46ZM35.79 5.28L40.30 5.28Q40.30 4.82 40.18 4.40Q40.06 3.98 39.80 3.65Q39.54 3.31 39.13 3.11Q38.72 2.90 38.12 2.90L38.12 2.90Q37.54 2.90 37.12 3.10Q36.70 3.29 36.43 3.62Q36.15 3.96 36.00 4.39Q35.84 4.82 35.79 5.28L35.79 5.28ZM47.43 7.80L47.43 3.17L44.86 3.17L44.86 0.72L47.43 0.72L47.43-2.11L50.38-2.59L50.38 0.72L55.11 0.72L55.11 3.17L50.38 3.17L50.38 7.73Q50.38 8.35 50.50 8.74Q50.62 9.12 50.84 9.34Q51.06 9.55 51.37 9.62Q51.68 9.70 52.06 9.70L52.06 9.70Q52.47 9.70 52.82 9.67Q53.17 9.65 53.49 9.59Q53.82 9.53 54.16 9.41Q54.51 9.29 54.92 9.10L54.92 9.10L55.33 11.64Q54.51 11.98 53.56 12.12Q52.62 12.26 51.73 12.26L51.73 12.26Q50.70 12.26 49.90 12.10Q49.11 11.93 48.56 11.45Q48.01 10.97 47.72 10.09Q47.43 9.22 47.43 7.80L47.43 7.80ZM62.02 9.89L62.02 9.89Q62.50 9.89 62.96 9.88Q63.42 9.86 63.75 9.82L63.75 9.82L63.75 7.22Q63.46 7.18 63.06 7.14Q62.65 7.10 62.31 7.10L62.31 7.10Q61.86 7.10 61.42 7.16Q60.99 7.22 60.67 7.37Q60.34 7.51 60.15 7.78Q59.96 8.04 59.96 8.47L59.96 8.47Q59.96 9.24 60.54 9.56Q61.11 9.89 62.02 9.89ZM61.76 0.43L61.76 0.43Q63.15 0.43 64.08 0.76Q65 1.08 65.55 1.67Q66.10 2.26 66.34 3.11Q66.58 3.96 66.58 5.02L66.58 5.02L66.58 11.74Q65.94 11.88 64.66 12.07Q63.39 12.26 61.81 12.26L61.81 12.26Q60.73 12.26 59.85 12.07Q58.98 11.88 58.35 11.44Q57.73 10.99 57.39 10.28Q57.06 9.58 57.06 8.54L57.06 8.54Q57.06 7.56 57.44 6.89Q57.82 6.22 58.47 5.81Q59.12 5.40 59.96 5.22Q60.80 5.04 61.71 5.04L61.71 5.04Q62.86 5.04 63.75 5.23L63.75 5.23L63.75 4.87Q63.75 4.03 63.22 3.47Q62.70 2.90 61.40 2.90L61.40 2.90Q60.56 2.90 59.78 3.02Q59 3.14 58.52 3.31L58.52 3.31L58.11 0.94Q58.66 0.74 59.67 0.59Q60.68 0.43 61.76 0.43ZM78.82 9.14L79.21 11.52Q79.14 11.57 78.88 11.69Q78.63 11.81 78.22 11.94Q77.82 12.07 77.23 12.17Q76.64 12.26 75.90 12.26L75.90 12.26Q73.86 12.26 72.92 11.05Q71.98 9.84 71.98 7.51L71.98 7.51L71.98-2.06L68.86-2.06L68.86-4.51L74.94-4.51L74.94 7.73Q74.94 8.88 75.39 9.29Q75.85 9.70 76.54 9.70L76.54 9.70Q77.43 9.70 78.03 9.46Q78.63 9.22 78.82 9.14L78.82 9.14Z"/>
    </g>
</svg>