<?xml version="1.0" encoding="UTF-8"?>
<svg height="34" width="92.5" version="1.1" xmlns="http://www.w3.org/2000/svg">
    <rect
        height="32"
        width="90.5"
        rx="1"
        ry="1"
        x="1"
        y="1"
        fill="#F05138"
        stroke="#851a0a"
        stroke-width="1"
         />
    <g transform="translate(0, 14)">
        <path fill="#851a0a" d="M16.50 8.48L16.50 8.48Q17.36 8.48 17.94 8.30Q18.51 8.12 18.85 7.79Q19.18 7.47 19.31 7.07Q19.44 6.66 19.44 6.24L19.44 6.24Q19.44 5.71 19.13 5.29Q18.82 4.87 18.34 4.55Q17.87 4.22 17.28 3.96Q16.69 3.69 16.10 3.47L16.10 3.47Q15.32 3.19 14.48 2.82Q13.64 2.46 12.95 1.90Q12.27 1.34 11.82 0.51Q11.37-0.31 11.37-1.54L11.37-1.54Q11.37-3.98 12.95-5.35Q14.54-6.72 17.31-6.72L17.31-6.72Q18.90-6.72 20.09-6.36Q21.28-6.00 22.10-5.55L22.10-5.55L21.09-2.89Q20.39-3.28 19.53-3.56Q18.68-3.84 17.56-3.84L17.56-3.84Q14.82-3.84 14.82-1.85L14.82-1.85Q14.82-1.35 15.10-0.97Q15.38-0.59 15.81-0.30Q16.24-0.00 16.79 0.22Q17.34 0.44 17.87 0.64L17.87 0.64Q18.68 0.95 19.56 1.33Q20.44 1.70 21.19 2.33Q21.93 2.96 22.40 3.90Q22.88 4.84 22.88 6.27L22.88 6.27Q22.88 8.70 21.30 10.03Q19.72 11.36 16.50 11.36L16.50 11.36Q14.34 11.36 13.05 10.90Q11.76 10.44 11.12 10.05L11.12 10.05L12.13 7.25Q12.88 7.70 13.93 8.09Q14.98 8.48 16.50 8.48ZM35.62 11L33.02 11Q32.71 10.13 32.44 9.40Q32.18 8.68 31.94 7.99Q31.70 7.30 31.46 6.56Q31.22 5.82 30.97 4.92L30.97 4.92Q30.69 5.82 30.47 6.53Q30.24 7.25 30.01 7.95Q29.77 8.65 29.52 9.38Q29.26 10.10 28.90 11L28.90 11L26.30 11Q25.96 9.77 25.67 8.27Q25.37 6.77 25.12 5.08Q24.87 3.38 24.67 1.56Q24.48-0.26 24.31-2.16L24.31-2.16L27.25-2.16Q27.36 0.28 27.49 2.60Q27.61 4.92 27.95 7.39L27.95 7.39Q28.31 6.32 28.58 5.41Q28.84 4.50 29.05 3.68Q29.26 2.85 29.45 2.08Q29.63 1.31 29.82 0.50L29.82 0.50L32.32 0.50Q32.48 1.31 32.67 2.08Q32.85 2.85 33.06 3.68Q33.27 4.50 33.51 5.41Q33.74 6.32 34.08 7.39L34.08 7.39Q34.25 6.10 34.36 4.92Q34.47 3.75 34.54 2.59Q34.61 1.42 34.65 0.26Q34.70-0.90 34.75-2.16L34.75-2.16L37.69-2.16Q37.38 1.68 36.84 5.06Q36.29 8.45 35.62 11L35.62 11ZM45.95-5.94L45.95-5.94Q45.95-4.93 45.31-4.34Q44.66-3.76 43.77-3.76L43.77-3.76Q42.87-3.76 42.24-4.34Q41.61-4.93 41.61-5.94L41.61-5.94Q41.61-6.98 42.24-7.56Q42.87-8.15 43.77-8.15L43.77-8.15Q44.66-8.15 45.31-7.56Q45.95-6.98 45.95-5.94ZM50.63 7.67L51.08 10.44Q50.01 10.94 49.07 11.13Q48.14 11.31 47.35 11.31L47.35 11.31Q46.01 11.31 45.10 10.92Q44.19 10.52 43.64 9.78Q43.10 9.04 42.87 7.98Q42.65 6.91 42.65 5.54L42.65 5.54L42.65 0.70L39.01 0.70L39.01-2.16L46.09-2.16L46.09 5.99Q46.09 7.16 46.53 7.74Q46.96 8.31 47.97 8.31L47.97 8.31Q48.44 8.31 49.12 8.19Q49.79 8.06 50.63 7.67L50.63 7.67ZM59.36 11L55.89 11L55.89 0.70L53.01 0.70L53.01-2.16L55.89-2.16L55.89-2.92Q55.89-4.51 56.35-5.56Q56.82-6.61 57.60-7.24Q58.38-7.87 59.39-8.14Q60.40-8.40 61.46-8.40L61.46-8.40Q62.56-8.40 63.70-8.21Q64.85-8.01 65.78-7.56L65.78-7.56L65.19-4.76Q64.54-4.99 63.58-5.23Q62.61-5.46 61.74-5.46L61.74-5.46Q61.27-5.46 60.83-5.38Q60.40-5.30 60.08-5.02Q59.76-4.74 59.56-4.22Q59.36-3.70 59.36-2.86L59.36-2.86L59.36-2.16L64.77-2.16L64.77 0.70L59.36 0.70L59.36 11ZM70.00 6.10L70.00 0.70L67.01 0.70L67.01-2.16L70.00-2.16L70.00-5.46L73.45-6.02L73.45-2.16L78.96-2.16L78.96 0.70L73.45 0.70L73.45 6.02Q73.45 6.74 73.59 7.19Q73.73 7.64 73.98 7.89Q74.23 8.14 74.60 8.23Q74.96 8.31 75.41 8.31L75.41 8.31Q75.88 8.31 76.29 8.28Q76.70 8.26 77.07 8.19Q77.45 8.12 77.86 7.98Q78.26 7.84 78.74 7.61L78.74 7.61L79.22 10.58Q78.26 10.97 77.16 11.14Q76.05 11.31 75.02 11.31L75.02 11.31Q73.81 11.31 72.89 11.11Q71.96 10.92 71.32 10.36Q70.68 9.80 70.34 8.77Q70.00 7.75 70.00 6.10L70.00 6.10Z"/>
    </g>
</svg>