<?xml version="1.0" encoding="UTF-8"?>
<svg height="34" width="138.8" version="1.1" xmlns="http://www.w3.org/2000/svg"><!--Created by Josélio de S. C. Júnior - 2021 - https://github.com/joseliojunior -->
    <rect
        height="32"
        width="136.8"
        rx="1"
        ry="1"
        x="1" y="1"
        fill="#355570"
        stroke="#7ba2c1"
        stroke-width="1" />
    <g transform="translate(0, 12)">
        <path fill="#7ba2c1" stroke="none" d="M27.49-0.62L27.49-0.62Q26.43-0.62 25.71-0.24Q24.99 0.14 24.52 0.83Q24.06 1.51 23.85 2.46Q23.65 3.41 23.65 4.56L23.65 4.56Q23.65 7.22 24.49 8.48Q25.33 9.74 26.96 9.74L26.96 9.74Q27.22 9.74 27.54 9.72Q27.85 9.70 28.11 9.65L28.11 9.65L28.11 4.22L31.06 4.22L31.06 11.64Q30.54 11.83 29.42 12.07Q28.30 12.31 26.72 12.31L26.72 12.31Q25.33 12.31 24.21 11.82Q23.10 11.33 22.30 10.36Q21.51 9.38 21.08 7.93Q20.65 6.48 20.65 4.56L20.65 4.56Q20.65 2.66 21.15 1.21Q21.66-0.24 22.52-1.22Q23.38-2.21 24.56-2.70Q25.74-3.19 27.08-3.19L27.08-3.19Q27.94-3.19 28.63-3.06Q29.31-2.93 29.82-2.76Q30.32-2.59 30.64-2.40Q30.97-2.21 31.14-2.11L31.14-2.11L30.37 0.24Q29.84-0.10 29.07-0.36Q28.30-0.62 27.49-0.62ZM36.25-0.38L36.25 9.60Q36.37 9.62 36.51 9.62Q36.66 9.62 36.78 9.62L36.78 9.62Q37.78 9.62 38.47 9.24Q39.15 8.86 39.57 8.18Q39.99 7.51 40.17 6.59Q40.35 5.66 40.35 4.56L40.35 4.56Q40.35 3.60 40.21 2.69Q40.06 1.78 39.70 1.08Q39.34 0.38 38.72-0.04Q38.10-0.46 37.11-0.46L37.11-0.46Q36.92-0.46 36.68-0.44Q36.44-0.43 36.25-0.38L36.25-0.38ZM43.35 4.56L43.35 4.56Q43.35 6.62 42.84 8.08Q42.32 9.53 41.41 10.44Q40.50 11.35 39.24 11.77Q37.98 12.19 36.46 12.19L36.46 12.19Q35.67 12.19 34.92 12.11Q34.16 12.02 33.30 11.83L33.30 11.83L33.30-2.66Q34.30-2.88 35.19-2.95Q36.08-3.02 36.85-3.02L36.85-3.02Q38.31-3.02 39.52-2.59Q40.74-2.16 41.58-1.24Q42.42-0.31 42.88 1.12Q43.35 2.54 43.35 4.56ZM49.57 9.84L49.57 9.84Q50.31 9.84 50.80 9.68Q51.30 9.53 51.58 9.25Q51.87 8.98 51.98 8.63Q52.09 8.28 52.09 7.92L52.09 7.92Q52.09 7.46 51.82 7.10Q51.56 6.74 51.15 6.47Q50.74 6.19 50.24 5.96Q49.74 5.74 49.23 5.54L49.23 5.54Q48.56 5.30 47.84 4.99Q47.12 4.68 46.53 4.20Q45.94 3.72 45.56 3.01Q45.18 2.30 45.18 1.25L45.18 1.25Q45.18-0.84 46.53-2.02Q47.89-3.19 50.26-3.19L50.26-3.19Q51.63-3.19 52.65-2.88Q53.67-2.57 54.37-2.18L54.37-2.18L53.50 0.10Q52.90-0.24 52.17-0.48Q51.44-0.72 50.48-0.72L50.48-0.72Q48.13-0.72 48.13 0.98L48.13 0.98Q48.13 1.42 48.37 1.74Q48.61 2.06 48.98 2.32Q49.35 2.57 49.82 2.76Q50.29 2.95 50.74 3.12L50.74 3.12Q51.44 3.38 52.20 3.71Q52.95 4.03 53.59 4.57Q54.22 5.11 54.63 5.92Q55.04 6.72 55.04 7.94L55.04 7.94Q55.04 10.03 53.68 11.17Q52.33 12.31 49.57 12.31L49.57 12.31Q47.72 12.31 46.62 11.92Q45.51 11.52 44.96 11.18L44.96 11.18L45.82 8.78Q46.47 9.17 47.37 9.50Q48.27 9.84 49.57 9.84ZM57.06 6.36L57.06 6.36Q57.06 5.14 57.44 4.06Q57.82 2.98 58.62 2.17Q59.41 1.37 60.62 0.90Q61.83 0.43 63.51 0.43L63.51 0.43Q64.52 0.43 65.34 0.58Q66.15 0.72 66.99 1.06L66.99 1.06L66.34 3.43Q65.86 3.26 65.28 3.13Q64.69 3 63.78 3L63.78 3Q62.72 3 62.01 3.25Q61.30 3.50 60.87 3.95Q60.44 4.39 60.25 5.02Q60.06 5.64 60.06 6.36L60.06 6.36Q60.06 7.92 60.93 8.81Q61.81 9.70 63.92 9.70L63.92 9.70Q64.62 9.70 65.37 9.60Q66.13 9.50 66.75 9.29L66.75 9.29L67.18 11.71Q66.56 11.95 65.67 12.11Q64.78 12.26 63.58 12.26L63.58 12.26Q61.86 12.26 60.62 11.81Q59.38 11.35 58.59 10.56Q57.80 9.77 57.43 8.69Q57.06 7.61 57.06 6.36ZM79.02 0.98L78.49 3.72Q78.20 3.65 77.80 3.58Q77.41 3.50 77 3.44Q76.59 3.38 76.21 3.36Q75.82 3.34 75.56 3.34L75.56 3.34Q74.94 3.34 74.34 3.40Q73.74 3.46 73.11 3.62L73.11 3.62L73.11 12L70.14 12L70.14 1.46Q71.31 1.03 72.55 0.77Q73.78 0.50 75.44 0.50L75.44 0.50Q75.68 0.50 76.12 0.53Q76.57 0.55 77.07 0.61Q77.58 0.67 78.09 0.76Q78.61 0.84 79.02 0.98L79.02 0.98ZM86.82-2.52L86.82-2.52Q86.82-1.66 86.26-1.15Q85.71-0.65 84.94-0.65L84.94-0.65Q84.18-0.65 83.64-1.15Q83.10-1.66 83.10-2.52L83.10-2.52Q83.10-3.41 83.64-3.91Q84.18-4.42 84.94-4.42L84.94-4.42Q85.71-4.42 86.26-3.91Q86.82-3.41 86.82-2.52ZM90.82 9.14L91.21 11.52Q90.30 11.95 89.49 12.11Q88.69 12.26 88.02 12.26L88.02 12.26Q86.86 12.26 86.08 11.93Q85.30 11.59 84.84 10.96Q84.37 10.32 84.18 9.41Q83.98 8.50 83.98 7.32L83.98 7.32L83.98 3.17L80.86 3.17L80.86 0.72L86.94 0.72L86.94 7.70Q86.94 8.71 87.31 9.20Q87.68 9.70 88.54 9.70L88.54 9.70Q88.95 9.70 89.53 9.59Q90.10 9.48 90.82 9.14L90.82 9.14ZM100.26 6.46L100.26 6.46Q100.26 4.94 99.66 3.97Q99.06 3 97.83 3L97.83 3Q97.50 3 97.11 3.04Q96.73 3.07 96.46 3.10L96.46 3.10L96.46 9.29Q96.75 9.48 97.23 9.60Q97.71 9.72 98.19 9.72L98.19 9.72Q99.25 9.72 99.75 8.87Q100.26 8.02 100.26 6.46ZM103.26 6.36L103.26 6.36Q103.26 7.66 102.97 8.75Q102.68 9.84 102.13 10.62Q101.58 11.40 100.74 11.83Q99.90 12.26 98.79 12.26L98.79 12.26Q97.66 12.26 96.46 11.71L96.46 11.71L96.46 15.96L93.51 15.96L93.51 1.08Q94.33 0.82 95.52 0.65Q96.70 0.48 97.86 0.48L97.86 0.48Q100.47 0.48 101.86 2.06Q103.26 3.65 103.26 6.36ZM107.43 7.80L107.43 3.17L104.86 3.17L104.86 0.72L107.43 0.72L107.43-2.11L110.38-2.59L110.38 0.72L115.11 0.72L115.11 3.17L110.38 3.17L110.38 7.73Q110.38 8.35 110.50 8.74Q110.62 9.12 110.84 9.34Q111.06 9.55 111.37 9.62Q111.68 9.70 112.06 9.70L112.06 9.70Q112.47 9.70 112.82 9.67Q113.17 9.65 113.49 9.59Q113.82 9.53 114.16 9.41Q114.51 9.29 114.92 9.10L114.92 9.10L115.33 11.64Q114.51 11.98 113.56 12.12Q112.62 12.26 111.73 12.26L111.73 12.26Q110.70 12.26 109.90 12.10Q109.11 11.93 108.56 11.45Q108.01 10.97 107.72 10.09Q107.43 9.22 107.43 7.80L107.43 7.80Z"/>
    </g>
</svg>