<?xml version="1.0" encoding="UTF-8"?>
<svg height="322" width="175.1" version="1.1" xmlns="http://www.w3.org/2000/svg"><!--Created by Josélio de S. C. Júnior - 2021 - https://github.com/joseliojunior -->
    <rect
        height="32"
        width="173.1"
        rx="1"
        ry="1"
        x="1" y="1"
        fill="#000000"
        stroke="#4d4d4d"
        stroke-width="1" />
    <g transform="translate(0, 12)">
        <path fill="#4d4d4d" stroke="none" d="M30.73 12L21.30 12L21.30 9.55L24.54 9.55L24.54-0.41L21.30-0.41L21.30-2.86L30.73-2.86L30.73-0.41L27.51-0.41L27.51 9.55L30.73 9.55L30.73 12ZM35.79 6L35.79 6Q35.79 7.39 36.30 8.12Q36.80 8.86 37.88 8.86L37.88 8.86Q38.36 8.86 38.78 8.74Q39.20 8.62 39.54 8.42L39.54 8.42L39.54 3Q39.20 2.93 38.94 2.90Q38.67 2.88 38.38 2.88L38.38 2.88Q35.79 2.88 35.79 6ZM42.51 1.08L42.51 10.63Q42.51 13.39 41.18 14.71Q39.85 16.03 36.90 16.03L36.90 16.03Q35.84 16.03 34.87 15.82Q33.90 15.60 33.01 15.31L33.01 15.31L33.56 12.82Q34.26 13.08 35.02 13.31Q35.79 13.54 36.94 13.54L36.94 13.54Q37.71 13.54 38.22 13.36Q38.72 13.18 39.01 12.86Q39.30 12.55 39.42 12.13Q39.54 11.71 39.54 11.23L39.54 11.23L39.54 10.78Q38.91 11.02 38.40 11.14Q37.88 11.26 37.28 11.26L37.28 11.26Q35.07 11.26 33.93 9.86Q32.79 8.47 32.79 6L32.79 6Q32.79 3.22 34.33 1.85Q35.86 0.48 38.50 0.48L38.50 0.48Q40.35 0.48 42.51 1.08L42.51 1.08ZM45.51 12L45.51 1.08Q46.30 0.86 47.47 0.67Q48.63 0.48 50 0.48L50 0.48Q51.34 0.48 52.23 0.85Q53.12 1.22 53.64 1.91Q54.15 2.59 54.37 3.54Q54.58 4.49 54.58 5.64L54.58 5.64L54.58 12L51.63 12L51.63 6.02Q51.63 4.44 51.27 3.74Q50.91 3.05 49.81 3.05L49.81 3.05Q49.47 3.05 49.15 3.07Q48.82 3.10 48.46 3.14L48.46 3.14L48.46 12L45.51 12ZM67.33 6.34L67.33 6.34Q67.33 7.68 66.94 8.77Q66.56 9.86 65.86 10.66Q65.17 11.45 64.20 11.88Q63.22 12.31 62.02 12.31L62.02 12.31Q60.82 12.31 59.85 11.88Q58.88 11.45 58.17 10.66Q57.46 9.86 57.08 8.77Q56.70 7.68 56.70 6.34L56.70 6.34Q56.70 5.02 57.09 3.92Q57.49 2.83 58.20 2.05Q58.90 1.27 59.89 0.85Q60.87 0.43 62.02 0.43L62.02 0.43Q63.20 0.43 64.17 0.85Q65.14 1.27 65.85 2.05Q66.56 2.83 66.94 3.92Q67.33 5.02 67.33 6.34ZM59.70 6.36L59.70 6.36Q59.70 7.87 60.24 8.81Q60.78 9.74 61.98 9.74L61.98 9.74Q63.13 9.74 63.72 8.81Q64.30 7.87 64.30 6.36L64.30 6.36Q64.30 4.85 63.76 3.92Q63.22 3 62.02 3L62.02 3Q60.87 3 60.28 3.92Q59.70 4.85 59.70 6.36ZM79.02 0.98L78.49 3.72Q78.20 3.65 77.80 3.58Q77.41 3.50 77 3.44Q76.59 3.38 76.21 3.36Q75.82 3.34 75.56 3.34L75.56 3.34Q74.94 3.34 74.34 3.40Q73.74 3.46 73.11 3.62L73.11 3.62L73.11 12L70.14 12L70.14 1.46Q71.31 1.03 72.55 0.77Q73.78 0.50 75.44 0.50L75.44 0.50Q75.68 0.50 76.12 0.53Q76.57 0.55 77.07 0.61Q77.58 0.67 78.09 0.76Q78.61 0.84 79.02 0.98L79.02 0.98ZM80.74 6.46L80.74 6.46Q80.74 4.97 81.20 3.84Q81.66 2.71 82.40 1.96Q83.14 1.20 84.10 0.82Q85.06 0.43 86.07 0.43L86.07 0.43Q88.57 0.43 89.86 1.91Q91.16 3.38 91.16 6.22L91.16 6.22Q91.16 6.50 91.15 6.82Q91.14 7.13 91.11 7.32L91.11 7.32L83.79 7.32Q83.79 8.42 84.70 9.06Q85.62 9.70 87.06 9.70L87.06 9.70Q87.94 9.70 88.75 9.50Q89.55 9.31 90.10 9.12L90.10 9.12L90.51 11.64Q89.74 11.90 88.88 12.08Q88.02 12.26 86.94 12.26L86.94 12.26Q85.50 12.26 84.36 11.89Q83.22 11.52 82.41 10.79Q81.61 10.06 81.18 8.98Q80.74 7.90 80.74 6.46ZM83.79 5.28L88.30 5.28Q88.30 4.82 88.18 4.40Q88.06 3.98 87.80 3.65Q87.54 3.31 87.13 3.11Q86.72 2.90 86.12 2.90L86.12 2.90Q85.54 2.90 85.12 3.10Q84.70 3.29 84.43 3.62Q84.15 3.96 84.00 4.39Q83.84 4.82 83.79 5.28L83.79 5.28ZM115.04 9.55L115.04 12L105.70 12L105.70-2.86L108.68-2.86L108.68 9.55L115.04 9.55ZM122.82-2.52L122.82-2.52Q122.82-1.66 122.26-1.15Q121.71-0.65 120.94-0.65L120.94-0.65Q120.18-0.65 119.64-1.15Q119.10-1.66 119.10-2.52L119.10-2.52Q119.10-3.41 119.64-3.91Q120.18-4.42 120.94-4.42L120.94-4.42Q121.71-4.42 122.26-3.91Q122.82-3.41 122.82-2.52ZM126.82 9.14L127.21 11.52Q126.30 11.95 125.49 12.11Q124.69 12.26 124.02 12.26L124.02 12.26Q122.86 12.26 122.08 11.93Q121.30 11.59 120.84 10.96Q120.37 10.32 120.18 9.41Q119.98 8.50 119.98 7.32L119.98 7.32L119.98 3.17L116.86 3.17L116.86 0.72L122.94 0.72L122.94 7.70Q122.94 8.71 123.31 9.20Q123.68 9.70 124.54 9.70L124.54 9.70Q124.95 9.70 125.53 9.59Q126.10 9.48 126.82 9.14L126.82 9.14ZM133.47 9.77L133.47 9.77Q134.55 9.77 135.13 9.61Q135.70 9.46 135.70 8.98L135.70 8.98Q135.70 8.66 135.52 8.45Q135.34 8.23 135.02 8.08Q134.70 7.92 134.28 7.78Q133.86 7.63 133.40 7.49L133.40 7.49Q132.75 7.30 132.08 7.04Q131.41 6.79 130.86 6.41Q130.30 6.02 129.94 5.44Q129.58 4.85 129.58 3.96L129.58 3.96Q129.58 3.24 129.86 2.60Q130.14 1.97 130.72 1.48Q131.31 0.98 132.22 0.71Q133.14 0.43 134.41 0.43L134.41 0.43Q135.51 0.43 136.46 0.60Q137.41 0.77 138.10 1.08L138.10 1.08L137.65 3.58Q137.24 3.46 136.38 3.18Q135.51 2.90 134.43 2.90L134.43 2.90Q133.30 2.90 132.91 3.18Q132.51 3.46 132.51 3.77L132.51 3.77Q132.51 4.03 132.69 4.24Q132.87 4.44 133.17 4.61Q133.47 4.78 133.87 4.93Q134.26 5.09 134.72 5.23L134.72 5.23Q135.37 5.45 136.06 5.71Q136.76 5.98 137.32 6.37Q137.89 6.77 138.25 7.38Q138.61 7.99 138.61 8.88L138.61 8.88Q138.61 9.58 138.34 10.20Q138.08 10.82 137.47 11.28Q136.86 11.74 135.87 12Q134.89 12.26 133.45 12.26L133.45 12.26Q131.98 12.26 130.95 11.93Q129.92 11.59 129.30 11.33L129.30 11.33L129.75 8.86Q130.59 9.19 131.54 9.48Q132.49 9.77 133.47 9.77ZM143.43 7.80L143.43 3.17L140.86 3.17L140.86 0.72L143.43 0.72L143.43-2.11L146.38-2.59L146.38 0.72L151.11 0.72L151.11 3.17L146.38 3.17L146.38 7.73Q146.38 8.35 146.50 8.74Q146.62 9.12 146.84 9.34Q147.06 9.55 147.37 9.62Q147.68 9.70 148.06 9.70L148.06 9.70Q148.47 9.70 148.82 9.67Q149.17 9.65 149.49 9.59Q149.82 9.53 150.16 9.41Q150.51 9.29 150.92 9.10L150.92 9.10L151.33 11.64Q150.51 11.98 149.56 12.12Q148.62 12.26 147.73 12.26L147.73 12.26Q146.70 12.26 145.90 12.10Q145.11 11.93 144.56 11.45Q144.01 10.97 143.72 10.09Q143.43 9.22 143.43 7.80L143.43 7.80Z"/>
    </g>
</svg>