<?xml version="1.0" encoding="UTF-8"?>
<svg height="26" width="106.8" version="1.1" xmlns="http://www.w3.org/2000/svg"><!--Created by Josélio de S. C. Júnior - 2021 - https://github.com/joseliojunior -->
    <rect
        height="24"
        width="104.8"
        rx="1"
        ry="1"
        x="1" y="1"
        fill="#111522"
        stroke="#445488"
        stroke-width="1" />
    <g transform="translate(0, 8)">
        <path fill="#445488" stroke="none" d="M27.26 10L25.68 10Q25.01 8.35 24.22 6.71Q23.42 5.07 22.51 3.42L22.51 3.42L22.51 10L20.74 10L20.74 0.10L22.32 0.10Q22.77 0.80 23.22 1.62Q23.66 2.45 24.09 3.26Q24.51 4.08 24.87 4.85Q25.23 5.62 25.49 6.19L25.49 6.19L25.49 0.10L27.26 0.10L27.26 10ZM31.30 3.60L32.74 3.60Q32.80 3.90 32.93 4.35Q33.06 4.80 33.21 5.34Q33.36 5.89 33.54 6.51Q33.73 7.14 33.90 7.79L33.90 7.79Q33.90 6.96 33.89 6.01Q33.87 5.06 33.86 4.06Q33.84 3.07 33.82 2.06Q33.81 1.04 33.81 0.10L33.81 0.10L35.63 0.10Q35.58 1.31 35.54 2.60Q35.49 3.89 35.42 5.16Q35.36 6.43 35.27 7.66Q35.18 8.90 35.07 10L35.07 10L33.44 10Q33.09 8.99 32.74 7.83Q32.38 6.67 32.03 5.62L32.03 5.62Q31.68 6.62 31.30 7.81Q30.91 8.99 30.59 10L30.59 10L28.96 10Q28.83 8.90 28.74 7.66Q28.64 6.42 28.57 5.14Q28.50 3.87 28.45 2.58Q28.40 1.30 28.37 0.10L28.37 0.10L30.19 0.10Q30.18 1.04 30.16 2.05Q30.14 3.06 30.13 4.06Q30.11 5.06 30.10 6.01Q30.08 6.96 30.08 7.79L30.08 7.79Q30.22 7.28 30.41 6.67Q30.59 6.06 30.76 5.47Q30.93 4.88 31.07 4.38Q31.22 3.89 31.30 3.60L31.30 3.60ZM39.71 8.56L39.71 8.56Q40.21 8.56 40.54 8.46Q40.86 8.35 41.06 8.17Q41.25 7.98 41.32 7.75Q41.39 7.52 41.39 7.28L41.39 7.28Q41.39 6.98 41.22 6.74Q41.04 6.50 40.77 6.31Q40.50 6.13 40.16 5.98Q39.82 5.82 39.49 5.70L39.49 5.70Q39.04 5.54 38.56 5.33Q38.08 5.12 37.69 4.80Q37.30 4.48 37.04 4.01Q36.78 3.54 36.78 2.83L36.78 2.83Q36.78 1.44 37.69 0.66Q38.59-0.13 40.18-0.13L40.18-0.13Q41.09-0.13 41.77 0.08Q42.45 0.29 42.91 0.54L42.91 0.54L42.34 2.06Q41.94 1.84 41.45 1.68Q40.96 1.52 40.32 1.52L40.32 1.52Q38.75 1.52 38.75 2.66L38.75 2.66Q38.75 2.94 38.91 3.16Q39.07 3.38 39.32 3.54Q39.57 3.71 39.88 3.84Q40.19 3.97 40.50 4.08L40.50 4.08Q40.96 4.26 41.46 4.47Q41.97 4.69 42.39 5.05Q42.82 5.41 43.09 5.94Q43.36 6.48 43.36 7.30L43.36 7.30Q43.36 8.69 42.46 9.45Q41.55 10.21 39.71 10.21L39.71 10.21Q38.48 10.21 37.74 9.94Q37.01 9.68 36.64 9.46L36.64 9.46L37.22 7.86Q37.65 8.11 38.25 8.34Q38.85 8.56 39.71 8.56ZM44.70 6.24L44.70 6.24Q44.70 5.42 44.96 4.70Q45.22 3.98 45.74 3.45Q46.27 2.91 47.08 2.60Q47.89 2.29 49.01 2.29L49.01 2.29Q49.68 2.29 50.22 2.38Q50.77 2.48 51.33 2.70L51.33 2.70L50.90 4.29Q50.58 4.18 50.18 4.09Q49.79 4 49.18 4L49.18 4Q48.48 4 48.01 4.17Q47.54 4.34 47.25 4.63Q46.96 4.93 46.83 5.34Q46.70 5.76 46.70 6.24L46.70 6.24Q46.70 7.28 47.29 7.87Q47.87 8.46 49.28 8.46L49.28 8.46Q49.74 8.46 50.25 8.40Q50.75 8.34 51.17 8.19L51.17 8.19L51.46 9.81Q51.04 9.97 50.45 10.07Q49.86 10.18 49.06 10.18L49.06 10.18Q47.90 10.18 47.08 9.87Q46.26 9.57 45.73 9.04Q45.20 8.51 44.95 7.79Q44.70 7.07 44.70 6.24ZM59.34 2.66L58.99 4.48Q58.80 4.43 58.54 4.38Q58.27 4.34 58 4.30Q57.73 4.26 57.47 4.24Q57.22 4.22 57.04 4.22L57.04 4.22Q56.62 4.22 56.22 4.26Q55.82 4.30 55.41 4.42L55.41 4.42L55.41 10L53.42 10L53.42 2.98Q54.21 2.69 55.03 2.51Q55.86 2.34 56.96 2.34L56.96 2.34Q57.12 2.34 57.42 2.35Q57.71 2.37 58.05 2.41Q58.38 2.45 58.73 2.50Q59.07 2.56 59.34 2.66L59.34 2.66ZM64.54 0.32L64.54 0.32Q64.54 0.90 64.18 1.23Q63.81 1.57 63.30 1.57L63.30 1.57Q62.78 1.57 62.42 1.23Q62.06 0.90 62.06 0.32L62.06 0.32Q62.06-0.27 62.42-0.61Q62.78-0.94 63.30-0.94L63.30-0.94Q63.81-0.94 64.18-0.61Q64.54-0.27 64.54 0.32ZM67.22 8.10L67.47 9.68Q66.86 9.97 66.33 10.07Q65.79 10.18 65.34 10.18L65.34 10.18Q64.58 10.18 64.06 9.95Q63.54 9.73 63.22 9.30Q62.91 8.88 62.78 8.27Q62.66 7.66 62.66 6.88L62.66 6.88L62.66 4.11L60.58 4.11L60.58 2.48L64.62 2.48L64.62 7.14Q64.62 7.81 64.87 8.14Q65.12 8.46 65.70 8.46L65.70 8.46Q65.97 8.46 66.35 8.39Q66.74 8.32 67.22 8.10L67.22 8.10ZM73.50 6.30L73.50 6.30Q73.50 5.30 73.10 4.65Q72.70 4 71.89 4L71.89 4Q71.66 4 71.41 4.02Q71.15 4.05 70.98 4.06L70.98 4.06L70.98 8.19Q71.17 8.32 71.49 8.40Q71.81 8.48 72.13 8.48L72.13 8.48Q72.83 8.48 73.17 7.91Q73.50 7.34 73.50 6.30ZM75.50 6.24L75.50 6.24Q75.50 7.10 75.31 7.83Q75.12 8.56 74.75 9.08Q74.38 9.60 73.82 9.89Q73.26 10.18 72.53 10.18L72.53 10.18Q71.78 10.18 70.98 9.81L70.98 9.81L70.98 12.64L69.01 12.64L69.01 2.72Q69.55 2.54 70.34 2.43Q71.14 2.32 71.90 2.32L71.90 2.32Q73.65 2.32 74.58 3.38Q75.50 4.43 75.50 6.24ZM78.29 7.20L78.29 4.11L76.58 4.11L76.58 2.48L78.29 2.48L78.29 0.59L80.26 0.27L80.26 2.48L83.41 2.48L83.41 4.11L80.26 4.11L80.26 7.15Q80.26 7.57 80.34 7.82Q80.42 8.08 80.56 8.22Q80.70 8.37 80.91 8.42Q81.12 8.46 81.38 8.46L81.38 8.46Q81.65 8.46 81.88 8.45Q82.11 8.43 82.33 8.39Q82.54 8.35 82.78 8.27Q83.01 8.19 83.28 8.06L83.28 8.06L83.55 9.76Q83.01 9.98 82.38 10.08Q81.74 10.18 81.15 10.18L81.15 10.18Q80.46 10.18 79.94 10.06Q79.41 9.95 79.04 9.63Q78.67 9.31 78.48 8.73Q78.29 8.14 78.29 7.20L78.29 7.20Z"/>
    </g>
</svg>