<?xml version="1.0" encoding="UTF-8"?>
<svg height="26" width="66.3" version="1.1" xmlns="http://www.w3.org/2000/svg"><!--Created by Josélio de S. C. Júnior - 2021 - https://github.com/joseliojunior -->
    <defs>
        <pattern id="pattern"
                x="3" y="3" width="6" height="6"
                patternUnits="userSpaceOnUse"
                patternTransform="rotate(45)" >
            <rect height="6" width="6"
                fill="#ffffff"/>
            <line x1="0" y1="0" x2="0" y2="6"
                stroke="#888888"
                stroke-width="2" />
        </pattern>
    </defs>
    <rect
        height="24"
        width="64.3"
        rx="12"
        ry="12"
        x="1" y="1"
        fill="url(#pattern)"
        stroke="#000000"
        stroke-width="1" />
    <g transform="translate(0, 8)">
        <path fill="#ffffff" stroke="#000000" d="M20.94 0.10L22.58 0.10Q22.69 0.43 22.86 0.96Q23.02 1.49 23.22 2.10Q23.41 2.70 23.60 3.33Q23.79 3.95 23.97 4.48L23.97 4.48Q24.16 3.89 24.37 3.26Q24.58 2.62 24.77 2.04Q24.96 1.46 25.12 0.94Q25.28 0.43 25.41 0.10L25.41 0.10L27.04 0.10Q27.15 1.39 27.26 2.62Q27.36 3.86 27.43 5.06Q27.50 6.27 27.55 7.50Q27.60 8.72 27.63 10L27.63 10L25.82 10L25.92 2.30L24.70 6.50L23.26 6.50L22.10 2.30L22.18 10L20.37 10Q20.42 8.78 20.47 7.47Q20.53 6.16 20.59 4.86Q20.66 3.57 20.74 2.35Q20.83 1.14 20.94 0.10L20.94 0.10ZM31.97 10.21L31.97 10.21Q31.01 10.21 30.36 9.94Q29.71 9.68 29.33 9.18Q28.94 8.69 28.78 7.98Q28.62 7.28 28.62 6.42L28.62 6.42L28.62 0.10L30.61 0.10L30.61 6.29Q30.61 6.91 30.67 7.34Q30.74 7.76 30.89 8.02Q31.04 8.27 31.31 8.38Q31.58 8.50 32 8.50L32 8.50Q32.42 8.50 32.69 8.38Q32.96 8.27 33.12 8.01Q33.28 7.74 33.34 7.32Q33.41 6.90 33.41 6.27L33.41 6.27L33.41 0.10L35.38 0.10L35.38 6.42Q35.38 7.28 35.22 7.98Q35.06 8.69 34.66 9.18Q34.26 9.68 33.60 9.94Q32.94 10.21 31.97 10.21ZM38.98 10L37.01 10L37.01 0.10L43.07 0.10L43.07 1.73L38.98 1.73L38.98 4.13L42.56 4.13L42.56 5.76L38.98 5.76L38.98 10Z"/>
    </g>
</svg>