<?xml version="1.0" encoding="UTF-8"?>
<svg height="34" width="78.3" version="1.1" xmlns="http://www.w3.org/2000/svg"><!--Created by Josélio de S. C. Júnior - 2021 - https://github.com/joseliojunior -->
    <defs>
        <pattern id="pattern"
                x="3" y="3" width="6" height="6"
                patternUnits="userSpaceOnUse"
                patternTransform="rotate(45)" >
            <rect height="6" width="6"
                fill="#ffffff"/>
            <line x1="0" y1="0" x2="0" y2="6"
                stroke="#888888"
                stroke-width="2" />
        </pattern>
    </defs>
    <rect
        height="32"
        width="76.3"
        rx="1"
        ry="1"
        x="1" y="1"
        fill="url(#pattern)"
        stroke="#000000"
        stroke-width="1" />
    <g transform="translate(0, 12)">
        <path fill="#ffffff" stroke="#000000" d="M21.42-2.86L23.86-2.86Q24.03-2.35 24.28-1.56Q24.54-0.77 24.82 0.14Q25.11 1.06 25.40 1.99Q25.69 2.93 25.95 3.72L25.95 3.72Q26.24 2.83 26.55 1.88Q26.86 0.94 27.15 0.06Q27.44-0.82 27.68-1.58Q27.92-2.35 28.11-2.86L28.11-2.86L30.56-2.86Q30.73-0.91 30.88 0.94Q31.04 2.78 31.15 4.60Q31.26 6.41 31.33 8.24Q31.40 10.08 31.45 12L31.45 12L28.74 12L28.88 0.46L27.06 6.74L24.90 6.74L23.14 0.46L23.26 12L20.55 12Q20.62 10.18 20.71 8.21Q20.79 6.24 20.89 4.30Q20.98 2.35 21.12 0.53Q21.25-1.30 21.42-2.86L21.42-2.86ZM37.95 12.31L37.95 12.31Q36.51 12.31 35.54 11.92Q34.57 11.52 33.99 10.78Q33.42 10.03 33.18 8.98Q32.94 7.92 32.94 6.62L32.94 6.62L32.94-2.86L35.91-2.86L35.91 6.43Q35.91 7.37 36.01 8.00Q36.10 8.64 36.33 9.02Q36.56 9.41 36.97 9.58Q37.38 9.74 38 9.74L38 9.74Q38.62 9.74 39.03 9.58Q39.44 9.41 39.68 9.01Q39.92 8.62 40.02 7.98Q40.11 7.34 40.11 6.41L40.11 6.41L40.11-2.86L43.06-2.86L43.06 6.62Q43.06 7.92 42.82 8.98Q42.58 10.03 41.98 10.78Q41.38 11.52 40.40 11.92Q39.42 12.31 37.95 12.31ZM48.46 12L45.51 12L45.51-2.86L54.61-2.86L54.61-0.41L48.46-0.41L48.46 3.19L53.84 3.19L53.84 5.64L48.46 5.64L48.46 12Z"/>
    </g>
</svg>