<?xml version="1.0" encoding="UTF-8"?>
<svg height="34" width="78.4" version="1.1" xmlns="http://www.w3.org/2000/svg">
    <rect
        height="32"
        width="76.4"
        rx="14"
        ry="14"
        x="1"
        y="1"
        fill="#4A76B8"
        stroke="#1e314d"
        stroke-width="1"
         />
    <g transform="translate(0, 14)">
        <path fill="#1e314d" d="M11.65-6.33L14.51-6.33Q14.70-5.74 15.00-4.82Q15.29-3.90 15.63-2.83Q15.96-1.77 16.30-0.68Q16.64 0.42 16.94 1.34L16.94 1.34Q17.28 0.30 17.64-0.80Q18.01-1.91 18.34-2.93Q18.68-3.95 18.96-4.85Q19.24-5.74 19.46-6.33L19.46-6.33L22.32-6.33Q22.52-4.06 22.70-1.91Q22.88 0.25 23.01 2.36Q23.13 4.48 23.22 6.62Q23.30 8.76 23.36 11L23.36 11L20.19 11L20.36-2.47L18.23 4.87L15.71 4.87L13.67-2.47L13.81 11L10.64 11Q10.73 8.87 10.83 6.58Q10.92 4.28 11.04 2.01Q11.15-0.26 11.30-2.38Q11.46-4.51 11.65-6.33L11.65-6.33ZM24.76 2.40L24.76 2.40Q24.76-2.08 26.41-4.36Q28.06-6.64 31-6.64L31-6.64Q34.05-6.64 35.65-4.36Q37.24-2.08 37.24 2.40L37.24 2.40Q37.24 6.32 35.98 8.58Q34.72 10.83 32.34 11.31L32.34 11.31Q32.65 12.01 33.84 12.47Q35.03 12.93 37.10 13.30L37.10 13.30L36.38 15.76Q33.10 15.31 31.43 14.26Q29.77 13.21 29.46 11.25L29.46 11.25Q27.19 10.69 25.97 8.47Q24.76 6.24 24.76 2.40ZM28.26 2.40L28.26 2.40Q28.26 3.66 28.35 4.76Q28.45 5.85 28.75 6.67Q29.04 7.50 29.57 7.98Q30.10 8.45 31 8.45L31 8.45Q31.87 8.45 32.41 7.98Q32.96 7.50 33.25 6.67Q33.55 5.85 33.65 4.76Q33.74 3.66 33.74 2.40L33.74 2.40Q33.74 1.14 33.65 0.04Q33.55-1.07 33.25-1.88Q32.96-2.69 32.43-3.17Q31.90-3.64 31-3.64L31-3.64Q30.10-3.64 29.57-3.17Q29.04-2.69 28.75-1.87Q28.45-1.04 28.35 0.05Q28.26 1.14 28.26 2.40ZM50.88 8.14L50.88 11L39.99 11L39.99-6.33L43.46-6.33L43.46 8.14L50.88 8.14ZM60.99 5.90L60.99 5.90Q60.99 5.18 60.75 4.57Q60.51 3.97 59.80 3.54Q59.08 3.10 57.77 2.87Q56.45 2.63 54.32 2.63L54.32 2.63Q54.60 0.28 54.77-1.98Q54.94-4.23 55.02-6.33L55.02-6.33L63.87-6.33L63.87-3.48L57.91-3.48Q57.85-2.58 57.77-1.60Q57.68-0.62 57.63-0.00L57.63-0.00Q61.10 0.22 62.81 1.68Q64.52 3.13 64.52 5.76L64.52 5.76Q64.52 6.97 64.10 7.99Q63.68 9.01 62.81 9.77Q61.94 10.52 60.65 10.94Q59.36 11.36 57.66 11.36L57.66 11.36Q56.98 11.36 56.28 11.28Q55.58 11.20 54.94 11.07Q54.30 10.94 53.78 10.78Q53.26 10.61 52.98 10.47L52.98 10.47L53.68 7.61Q54.30 7.92 55.25 8.17Q56.20 8.42 57.63 8.42L57.63 8.42Q58.64 8.42 59.29 8.20Q59.95 7.98 60.33 7.63Q60.71 7.28 60.85 6.83Q60.99 6.38 60.99 5.90Z"/>
    </g>
</svg>