<?xml version="1.0" encoding="UTF-8"?>
<svg height="26" width="74.4" version="1.1" xmlns="http://www.w3.org/2000/svg"><!--Created by Josélio de S. C. Júnior - 2021 - https://github.com/joseliojunior -->
    <rect
        height="24"
        width="72.4"
        rx="1"
        ry="1"
        x="1" y="1"
        fill="#4A76B8"
        stroke="#1e314d"
        stroke-width="1" />
    <g transform="translate(0, 8)">
        <path fill="#1e314d" d="M20.94 0.10L22.58 0.10Q22.69 0.43 22.86 0.96Q23.02 1.49 23.22 2.10Q23.41 2.70 23.60 3.33Q23.79 3.95 23.97 4.48L23.97 4.48Q24.16 3.89 24.37 3.26Q24.58 2.62 24.77 2.04Q24.96 1.46 25.12 0.94Q25.28 0.43 25.41 0.10L25.41 0.10L27.04 0.10Q27.15 1.39 27.26 2.62Q27.36 3.86 27.43 5.06Q27.50 6.27 27.55 7.50Q27.60 8.72 27.63 10L27.63 10L25.82 10L25.92 2.30L24.70 6.50L23.26 6.50L22.10 2.30L22.18 10L20.37 10Q20.42 8.78 20.47 7.47Q20.53 6.16 20.59 4.86Q20.66 3.57 20.74 2.35Q20.83 1.14 20.94 0.10L20.94 0.10ZM28.43 5.09L28.43 5.09Q28.43 2.53 29.38 1.22Q30.32-0.08 32-0.08L32-0.08Q33.74-0.08 34.66 1.22Q35.57 2.53 35.57 5.09L35.57 5.09Q35.57 7.33 34.85 8.62Q34.13 9.90 32.77 10.18L32.77 10.18Q32.94 10.58 33.62 10.84Q34.30 11.10 35.49 11.31L35.49 11.31L35.07 12.72Q33.20 12.46 32.25 11.86Q31.30 11.26 31.12 10.14L31.12 10.14Q29.82 9.82 29.13 8.55Q28.43 7.28 28.43 5.09ZM30.43 5.09L30.43 5.09Q30.43 5.81 30.49 6.43Q30.54 7.06 30.71 7.53Q30.88 8 31.18 8.27Q31.49 8.54 32 8.54L32 8.54Q32.50 8.54 32.81 8.27Q33.12 8 33.29 7.53Q33.46 7.06 33.51 6.43Q33.57 5.81 33.57 5.09L33.57 5.09Q33.57 4.37 33.51 3.74Q33.46 3.10 33.29 2.64Q33.12 2.18 32.82 1.90Q32.51 1.63 32 1.63L32 1.63Q31.49 1.63 31.18 1.90Q30.88 2.18 30.71 2.65Q30.54 3.12 30.49 3.74Q30.43 4.37 30.43 5.09ZM43.36 8.37L43.36 10L37.14 10L37.14 0.10L39.12 0.10L39.12 8.37L43.36 8.37ZM49.14 7.09L49.14 7.09Q49.14 6.67 49 6.33Q48.86 5.98 48.46 5.74Q48.05 5.49 47.30 5.35Q46.54 5.22 45.33 5.22L45.33 5.22Q45.49 3.87 45.58 2.58Q45.68 1.30 45.73 0.10L45.73 0.10L50.78 0.10L50.78 1.73L47.38 1.73Q47.34 2.24 47.30 2.80Q47.25 3.36 47.22 3.71L47.22 3.71Q49.20 3.84 50.18 4.67Q51.15 5.50 51.15 7.01L51.15 7.01Q51.15 7.70 50.91 8.28Q50.67 8.86 50.18 9.30Q49.68 9.73 48.94 9.97Q48.21 10.21 47.23 10.21L47.23 10.21Q46.85 10.21 46.45 10.16Q46.05 10.11 45.68 10.04Q45.31 9.97 45.02 9.87Q44.72 9.78 44.56 9.70L44.56 9.70L44.96 8.06Q45.31 8.24 45.86 8.38Q46.40 8.53 47.22 8.53L47.22 8.53Q47.79 8.53 48.17 8.40Q48.54 8.27 48.76 8.07Q48.98 7.87 49.06 7.62Q49.14 7.36 49.14 7.09Z"/>
    </g>
</svg>