<?xml version="1.0" encoding="UTF-8"?>
<svg height="34" width="90.4" version="1.1" xmlns="http://www.w3.org/2000/svg"><!--Created by Josélio de S. C. Júnior - 2021 - https://github.com/joseliojunior -->
    <rect
        height="32"
        width="88.4"
        rx="1"
        ry="1"
        x="1" y="1"
        fill="#4A76B8"
        stroke="#1e314d"
        stroke-width="1" />
    <g transform="translate(0, 12)">
        <path fill="#1e314d" d="M21.42-2.86L23.86-2.86Q24.03-2.35 24.28-1.56Q24.54-0.77 24.82 0.14Q25.11 1.06 25.40 1.99Q25.69 2.93 25.95 3.72L25.95 3.72Q26.24 2.83 26.55 1.88Q26.86 0.94 27.15 0.06Q27.44-0.82 27.68-1.58Q27.92-2.35 28.11-2.86L28.11-2.86L30.56-2.86Q30.73-0.91 30.88 0.94Q31.04 2.78 31.15 4.60Q31.26 6.41 31.33 8.24Q31.40 10.08 31.45 12L31.45 12L28.74 12L28.88 0.46L27.06 6.74L24.90 6.74L23.14 0.46L23.26 12L20.55 12Q20.62 10.18 20.71 8.21Q20.79 6.24 20.89 4.30Q20.98 2.35 21.12 0.53Q21.25-1.30 21.42-2.86L21.42-2.86ZM32.65 4.63L32.65 4.63Q32.65 0.79 34.06-1.16Q35.48-3.12 38-3.12L38-3.12Q40.62-3.12 41.98-1.16Q43.35 0.79 43.35 4.63L43.35 4.63Q43.35 7.99 42.27 9.92Q41.19 11.86 39.15 12.26L39.15 12.26Q39.42 12.86 40.44 13.26Q41.46 13.66 43.23 13.97L43.23 13.97L42.61 16.08Q39.80 15.70 38.37 14.80Q36.94 13.90 36.68 12.22L36.68 12.22Q34.74 11.74 33.69 9.83Q32.65 7.92 32.65 4.63ZM35.65 4.63L35.65 4.63Q35.65 5.71 35.73 6.65Q35.82 7.58 36.07 8.29Q36.32 9 36.78 9.41Q37.23 9.82 38 9.82L38 9.82Q38.74 9.82 39.21 9.41Q39.68 9 39.93 8.29Q40.18 7.58 40.27 6.65Q40.35 5.71 40.35 4.63L40.35 4.63Q40.35 3.55 40.27 2.60Q40.18 1.66 39.93 0.96Q39.68 0.26 39.22-0.14Q38.77-0.55 38-0.55L38-0.55Q37.23-0.55 36.78-0.14Q36.32 0.26 36.07 0.97Q35.82 1.68 35.73 2.62Q35.65 3.55 35.65 4.63ZM55.04 9.55L55.04 12L45.70 12L45.70-2.86L48.68-2.86L48.68 9.55L55.04 9.55ZM63.70 7.63L63.70 7.63Q63.70 7.01 63.50 6.49Q63.30 5.98 62.68 5.60Q62.07 5.23 60.94 5.03Q59.82 4.82 57.99 4.82L57.99 4.82Q58.23 2.81 58.38 0.88Q58.52-1.06 58.59-2.86L58.59-2.86L66.18-2.86L66.18-0.41L61.06-0.41Q61.02 0.36 60.94 1.20Q60.87 2.04 60.82 2.57L60.82 2.57Q63.80 2.76 65.26 4.01Q66.73 5.26 66.73 7.51L66.73 7.51Q66.73 8.54 66.37 9.42Q66.01 10.30 65.26 10.94Q64.52 11.59 63.42 11.95Q62.31 12.31 60.85 12.31L60.85 12.31Q60.27 12.31 59.67 12.24Q59.07 12.17 58.52 12.06Q57.97 11.95 57.52 11.81Q57.08 11.66 56.84 11.54L56.84 11.54L57.44 9.10Q57.97 9.36 58.78 9.58Q59.60 9.79 60.82 9.79L60.82 9.79Q61.69 9.79 62.25 9.60Q62.82 9.41 63.14 9.11Q63.46 8.81 63.58 8.42Q63.70 8.04 63.70 7.63Z"/>
    </g>
</svg>