<?xml version="1.0" encoding="UTF-8"?>
<svg height="26" width="98.69999999999999" version="1.1" xmlns="http://www.w3.org/2000/svg"><!--Created by Josélio de S. C. Júnior - 2021 - https://github.com/joseliojunior -->
    <rect
        height="24"
        width="96.69999999999999"
        rx="1"
        ry="1"
        x="1" y="1"
        fill="#5f021f"
        stroke="#f50551"
        stroke-width="1" />
    <g transform="translate(0, 8)">
        <path fill="#f50551" d="M22.98 10L21.01 10L21.01 0.10L27.07 0.10L27.07 1.73L22.98 1.73L22.98 4.13L26.56 4.13L26.56 5.76L22.98 5.76L22.98 10ZM35.01 2.48L35.01 9.74Q34.46 9.89 33.69 10.03Q32.91 10.18 32 10.18L32 10.18Q31.07 10.18 30.48 9.92Q29.89 9.66 29.54 9.19Q29.20 8.72 29.07 8.08Q28.94 7.44 28.94 6.67L28.94 6.67L28.94 2.48L30.91 2.48L30.91 6.42Q30.91 7.46 31.16 7.96Q31.41 8.46 32.13 8.46L32.13 8.46Q32.58 8.46 33.02 8.38L33.02 8.38L33.02 2.48L35.01 2.48ZM38.29 7.20L38.29 4.11L36.58 4.11L36.58 2.48L38.29 2.48L38.29 0.59L40.26 0.27L40.26 2.48L43.41 2.48L43.41 4.11L40.26 4.11L40.26 7.15Q40.26 7.57 40.34 7.82Q40.42 8.08 40.56 8.22Q40.70 8.37 40.91 8.42Q41.12 8.46 41.38 8.46L41.38 8.46Q41.65 8.46 41.88 8.45Q42.11 8.43 42.33 8.39Q42.54 8.35 42.78 8.27Q43.01 8.19 43.28 8.06L43.28 8.06L43.55 9.76Q43.01 9.98 42.38 10.08Q41.74 10.18 41.15 10.18L41.15 10.18Q40.46 10.18 39.94 10.06Q39.41 9.95 39.04 9.63Q38.67 9.31 38.48 8.73Q38.29 8.14 38.29 7.20L38.29 7.20ZM46.98 10L45.01 10L45.01-0.77L46.98-1.10L46.98 2.54Q47.22 2.46 47.55 2.39Q47.89 2.32 48.14 2.32L48.14 2.32Q48.98 2.32 49.54 2.57Q50.10 2.82 50.43 3.27Q50.77 3.73 50.91 4.36Q51.06 4.99 51.06 5.76L51.06 5.76L51.06 10L49.09 10L49.09 6.02Q49.09 4.96 48.85 4.50Q48.61 4.03 47.94 4.03L47.94 4.03Q47.66 4.03 47.40 4.10Q47.14 4.16 46.98 4.21L46.98 4.21L46.98 10ZM56.02 8.59L56.02 8.59Q56.34 8.59 56.64 8.58Q56.94 8.58 57.17 8.54L57.17 8.54L57.17 6.82Q56.98 6.78 56.70 6.76Q56.43 6.74 56.21 6.74L56.21 6.74Q55.90 6.74 55.62 6.78Q55.33 6.82 55.11 6.91Q54.90 7.01 54.77 7.18Q54.64 7.36 54.64 7.65L54.64 7.65Q54.64 8.16 55.02 8.38Q55.41 8.59 56.02 8.59ZM55.84 2.29L55.84 2.29Q56.77 2.29 57.38 2.50Q58 2.72 58.37 3.11Q58.74 3.50 58.90 4.07Q59.06 4.64 59.06 5.34L59.06 5.34L59.06 9.82Q58.62 9.92 57.78 10.05Q56.93 10.18 55.87 10.18L55.87 10.18Q55.15 10.18 54.57 10.05Q53.98 9.92 53.57 9.62Q53.15 9.33 52.93 8.86Q52.70 8.38 52.70 7.70L52.70 7.70Q52.70 7.04 52.96 6.59Q53.22 6.14 53.65 5.87Q54.08 5.60 54.64 5.48Q55.20 5.36 55.81 5.36L55.81 5.36Q56.58 5.36 57.17 5.49L57.17 5.49L57.17 5.25Q57.17 4.69 56.82 4.31Q56.46 3.94 55.60 3.94L55.60 3.94Q55.04 3.94 54.52 4.02Q54 4.10 53.68 4.21L53.68 4.21L53.41 2.62Q53.78 2.50 54.45 2.39Q55.12 2.29 55.84 2.29ZM67.34 2.66L66.99 4.48Q66.80 4.43 66.54 4.38Q66.27 4.34 66 4.30Q65.73 4.26 65.47 4.24Q65.22 4.22 65.04 4.22L65.04 4.22Q64.62 4.22 64.22 4.26Q63.82 4.30 63.41 4.42L63.41 4.42L63.41 10L61.42 10L61.42 2.98Q62.21 2.69 63.03 2.51Q63.86 2.34 64.96 2.34L64.96 2.34Q65.12 2.34 65.42 2.35Q65.71 2.37 66.05 2.41Q66.38 2.45 66.73 2.50Q67.07 2.56 67.34 2.66L67.34 2.66ZM70.99-1.10L70.99 5.46Q71.28 5.12 71.58 4.74Q71.87 4.37 72.15 3.97Q72.43 3.57 72.69 3.19Q72.94 2.82 73.14 2.48L73.14 2.48L75.50 2.48Q75.22 2.85 74.85 3.28Q74.48 3.71 74.09 4.16Q73.70 4.61 73.30 5.02Q72.91 5.44 72.59 5.79L72.59 5.79Q72.99 6.18 73.46 6.71Q73.92 7.25 74.37 7.82Q74.82 8.40 75.19 8.98Q75.57 9.55 75.79 10L75.79 10L73.54 10Q73.34 9.60 73.03 9.10Q72.72 8.59 72.37 8.10Q72.02 7.62 71.66 7.18Q71.30 6.74 70.99 6.45L70.99 6.45L70.99 10L69.01 10L69.01-0.77L70.99-1.10Z"/>
    </g>
</svg>