<?xml version="1.0" encoding="UTF-8"?>
<svg height="322" width="126.7" version="1.1" xmlns="http://www.w3.org/2000/svg"><!--Created by Josélio de S. C. Júnior - 2021 - https://github.com/joseliojunior -->
    <rect
        height="32"
        width="124.7"
        rx="16"
        ry="16"
        x="1" y="1"
        fill="#0064bd"
        stroke="#001324"
        stroke-width="1" />
    <g transform="translate(0, 12)">
        <path fill="#001324" stroke="none" d="M30.51-2.86L30.51 7.03Q30.51 8.11 30.24 9.07Q29.96 10.03 29.32 10.75Q28.69 11.47 27.68 11.89Q26.67 12.31 25.23 12.31L25.23 12.31Q23.72 12.31 22.71 11.93Q21.70 11.54 21.01 10.99L21.01 10.99L22.14 8.64Q22.74 9.02 23.47 9.38Q24.20 9.74 24.97 9.74L24.97 9.74Q26.12 9.74 26.83 9.13Q27.54 8.52 27.54 6.86L27.54 6.86L27.54-0.41L22.57-0.41L22.57-2.86L30.51-2.86ZM37.47 9.77L37.47 9.77Q38.55 9.77 39.13 9.61Q39.70 9.46 39.70 8.98L39.70 8.98Q39.70 8.66 39.52 8.45Q39.34 8.23 39.02 8.08Q38.70 7.92 38.28 7.78Q37.86 7.63 37.40 7.49L37.40 7.49Q36.75 7.30 36.08 7.04Q35.41 6.79 34.86 6.41Q34.30 6.02 33.94 5.44Q33.58 4.85 33.58 3.96L33.58 3.96Q33.58 3.24 33.86 2.60Q34.14 1.97 34.72 1.48Q35.31 0.98 36.22 0.71Q37.14 0.43 38.41 0.43L38.41 0.43Q39.51 0.43 40.46 0.60Q41.41 0.77 42.10 1.08L42.10 1.08L41.65 3.58Q41.24 3.46 40.38 3.18Q39.51 2.90 38.43 2.90L38.43 2.90Q37.30 2.90 36.91 3.18Q36.51 3.46 36.51 3.77L36.51 3.77Q36.51 4.03 36.69 4.24Q36.87 4.44 37.17 4.61Q37.47 4.78 37.87 4.93Q38.26 5.09 38.72 5.23L38.72 5.23Q39.37 5.45 40.06 5.71Q40.76 5.98 41.32 6.37Q41.89 6.77 42.25 7.38Q42.61 7.99 42.61 8.88L42.61 8.88Q42.61 9.58 42.34 10.20Q42.08 10.82 41.47 11.28Q40.86 11.74 39.87 12Q38.89 12.26 37.45 12.26L37.45 12.26Q35.98 12.26 34.95 11.93Q33.92 11.59 33.30 11.33L33.30 11.33L33.75 8.86Q34.59 9.19 35.54 9.48Q36.49 9.77 37.47 9.77ZM55.33 6.34L55.33 6.34Q55.33 7.68 54.94 8.77Q54.56 9.86 53.86 10.66Q53.17 11.45 52.20 11.88Q51.22 12.31 50.02 12.31L50.02 12.31Q48.82 12.31 47.85 11.88Q46.88 11.45 46.17 10.66Q45.46 9.86 45.08 8.77Q44.70 7.68 44.70 6.34L44.70 6.34Q44.70 5.02 45.09 3.92Q45.49 2.83 46.20 2.05Q46.90 1.27 47.89 0.85Q48.87 0.43 50.02 0.43L50.02 0.43Q51.20 0.43 52.17 0.85Q53.14 1.27 53.85 2.05Q54.56 2.83 54.94 3.92Q55.33 5.02 55.33 6.34ZM47.70 6.36L47.70 6.36Q47.70 7.87 48.24 8.81Q48.78 9.74 49.98 9.74L49.98 9.74Q51.13 9.74 51.72 8.81Q52.30 7.87 52.30 6.36L52.30 6.36Q52.30 4.85 51.76 3.92Q51.22 3 50.02 3L50.02 3Q48.87 3 48.28 3.92Q47.70 4.85 47.70 6.36ZM57.51 12L57.51 1.08Q58.30 0.86 59.47 0.67Q60.63 0.48 62 0.48L62 0.48Q63.34 0.48 64.23 0.85Q65.12 1.22 65.64 1.91Q66.15 2.59 66.37 3.54Q66.58 4.49 66.58 5.64L66.58 5.64L66.58 12L63.63 12L63.63 6.02Q63.63 4.44 63.27 3.74Q62.91 3.05 61.81 3.05L61.81 3.05Q61.47 3.05 61.15 3.07Q60.82 3.10 60.46 3.14L60.46 3.14L60.46 12L57.51 12ZM69.51 12L69.51 1.08Q70.30 0.86 71.47 0.67Q72.63 0.48 74 0.48L74 0.48Q75.34 0.48 76.23 0.85Q77.12 1.22 77.64 1.91Q78.15 2.59 78.37 3.54Q78.58 4.49 78.58 5.64L78.58 5.64L78.58 12L75.63 12L75.63 6.02Q75.63 4.44 75.27 3.74Q74.91 3.05 73.81 3.05L73.81 3.05Q73.47 3.05 73.15 3.07Q72.82 3.10 72.46 3.14L72.46 3.14L72.46 12L69.51 12ZM80.74 6.46L80.74 6.46Q80.74 4.97 81.20 3.84Q81.66 2.71 82.40 1.96Q83.14 1.20 84.10 0.82Q85.06 0.43 86.07 0.43L86.07 0.43Q88.57 0.43 89.86 1.91Q91.16 3.38 91.16 6.22L91.16 6.22Q91.16 6.50 91.15 6.82Q91.14 7.13 91.11 7.32L91.11 7.32L83.79 7.32Q83.79 8.42 84.70 9.06Q85.62 9.70 87.06 9.70L87.06 9.70Q87.94 9.70 88.75 9.50Q89.55 9.31 90.10 9.12L90.10 9.12L90.51 11.64Q89.74 11.90 88.88 12.08Q88.02 12.26 86.94 12.26L86.94 12.26Q85.50 12.26 84.36 11.89Q83.22 11.52 82.41 10.79Q81.61 10.06 81.18 8.98Q80.74 7.90 80.74 6.46ZM83.79 5.28L88.30 5.28Q88.30 4.82 88.18 4.40Q88.06 3.98 87.80 3.65Q87.54 3.31 87.13 3.11Q86.72 2.90 86.12 2.90L86.12 2.90Q85.54 2.90 85.12 3.10Q84.70 3.29 84.43 3.62Q84.15 3.96 84.00 4.39Q83.84 4.82 83.79 5.28L83.79 5.28ZM95.43 7.80L95.43 3.17L92.86 3.17L92.86 0.72L95.43 0.72L95.43-2.11L98.38-2.59L98.38 0.72L103.11 0.72L103.11 3.17L98.38 3.17L98.38 7.73Q98.38 8.35 98.50 8.74Q98.62 9.12 98.84 9.34Q99.06 9.55 99.37 9.62Q99.68 9.70 100.06 9.70L100.06 9.70Q100.47 9.70 100.82 9.67Q101.17 9.65 101.49 9.59Q101.82 9.53 102.16 9.41Q102.51 9.29 102.92 9.10L102.92 9.10L103.33 11.64Q102.51 11.98 101.56 12.12Q100.62 12.26 99.73 12.26L99.73 12.26Q98.70 12.26 97.90 12.10Q97.11 11.93 96.56 11.45Q96.01 10.97 95.72 10.09Q95.43 9.22 95.43 7.80L95.43 7.80Z"/>
    </g>
</svg>