<?xml version="1.0" encoding="UTF-8"?>
<svg height="26" width="123" version="1.1" xmlns="http://www.w3.org/2000/svg"><!--Created by Josélio de S. C. Júnior - 2021 - https://github.com/joseliojunior -->
    <rect
        height="24"
        width="121"
        rx="12"
        ry="12"
        x="1" y="1"
        fill="#0673ba"
        stroke="#011828"
        stroke-width="1" />
    <g transform="translate(0, 8)">
        <path fill="#011828" stroke="none" d="M23.42-0.02L23.42-0.02Q24.27-0.02 24.96 0.18Q25.65 0.37 26.14 0.77Q26.64 1.17 26.90 1.78Q27.17 2.40 27.17 3.23L27.17 3.23Q27.17 4.10 26.82 4.80Q26.46 5.50 25.65 5.87L25.65 5.87Q25.92 6.29 26.22 6.79Q26.53 7.30 26.82 7.85Q27.10 8.40 27.37 8.95Q27.63 9.50 27.82 10L27.82 10L25.76 10Q25.39 9.04 24.90 8.15Q24.42 7.26 23.86 6.35L23.86 6.35L22.83 6.35L22.83 10L20.86 10L20.86 0.24Q21.15 0.18 21.50 0.12Q21.84 0.06 22.19 0.04Q22.54 0.02 22.86 0Q23.18-0.02 23.42-0.02ZM25.17 3.22L25.17 3.22Q25.17 2.43 24.69 2.06Q24.21 1.70 23.42 1.70L23.42 1.70Q23.31 1.70 23.15 1.70Q22.99 1.71 22.83 1.74L22.83 1.74L22.83 4.72L23.26 4.72Q24.27 4.72 24.72 4.33Q25.17 3.94 25.17 3.22ZM28.50 6.30L28.50 6.30Q28.50 5.31 28.80 4.56Q29.10 3.81 29.60 3.30Q30.10 2.80 30.74 2.54Q31.38 2.29 32.05 2.29L32.05 2.29Q33.71 2.29 34.58 3.27Q35.44 4.26 35.44 6.14L35.44 6.14Q35.44 6.34 35.43 6.54Q35.42 6.75 35.41 6.88L35.41 6.88L30.53 6.88Q30.53 7.62 31.14 8.04Q31.74 8.46 32.70 8.46L32.70 8.46Q33.30 8.46 33.83 8.34Q34.37 8.21 34.74 8.08L34.74 8.08L35.01 9.76Q34.50 9.94 33.92 10.06Q33.34 10.18 32.62 10.18L32.62 10.18Q31.66 10.18 30.90 9.93Q30.14 9.68 29.61 9.19Q29.07 8.70 28.78 7.98Q28.50 7.26 28.50 6.30ZM30.53 5.52L33.54 5.52Q33.54 5.22 33.46 4.94Q33.38 4.66 33.20 4.43Q33.02 4.21 32.75 4.07Q32.48 3.94 32.08 3.94L32.08 3.94Q31.70 3.94 31.42 4.06Q31.14 4.19 30.95 4.42Q30.77 4.64 30.66 4.93Q30.56 5.22 30.53 5.52L30.53 5.52ZM36.70 6.24L36.70 6.24Q36.70 5.42 36.96 4.70Q37.22 3.98 37.74 3.45Q38.27 2.91 39.08 2.60Q39.89 2.29 41.01 2.29L41.01 2.29Q41.68 2.29 42.22 2.38Q42.77 2.48 43.33 2.70L43.33 2.70L42.90 4.29Q42.58 4.18 42.18 4.09Q41.79 4 41.18 4L41.18 4Q40.48 4 40.01 4.17Q39.54 4.34 39.25 4.63Q38.96 4.93 38.83 5.34Q38.70 5.76 38.70 6.24L38.70 6.24Q38.70 7.28 39.29 7.87Q39.87 8.46 41.28 8.46L41.28 8.46Q41.74 8.46 42.25 8.40Q42.75 8.34 43.17 8.19L43.17 8.19L43.46 9.81Q43.04 9.97 42.45 10.07Q41.86 10.18 41.06 10.18L41.06 10.18Q39.90 10.18 39.08 9.87Q38.26 9.57 37.73 9.04Q37.20 8.51 36.95 7.79Q36.70 7.07 36.70 6.24ZM51.55 6.22L51.55 6.22Q51.55 7.12 51.30 7.85Q51.04 8.58 50.58 9.10Q50.11 9.63 49.46 9.92Q48.82 10.21 48.02 10.21L48.02 10.21Q47.22 10.21 46.57 9.92Q45.92 9.63 45.45 9.10Q44.98 8.58 44.72 7.85Q44.46 7.12 44.46 6.22L44.46 6.22Q44.46 5.34 44.73 4.62Q44.99 3.89 45.46 3.37Q45.94 2.85 46.59 2.57Q47.25 2.29 48.02 2.29L48.02 2.29Q48.80 2.29 49.45 2.57Q50.10 2.85 50.57 3.37Q51.04 3.89 51.30 4.62Q51.55 5.34 51.55 6.22ZM46.46 6.24L46.46 6.24Q46.46 7.25 46.82 7.87Q47.18 8.50 47.98 8.50L47.98 8.50Q48.75 8.50 49.14 7.87Q49.54 7.25 49.54 6.24L49.54 6.24Q49.54 5.23 49.18 4.62Q48.82 4 48.02 4L48.02 4Q47.25 4 46.86 4.62Q46.46 5.23 46.46 6.24ZM59.34 2.66L58.99 4.48Q58.80 4.43 58.54 4.38Q58.27 4.34 58 4.30Q57.73 4.26 57.47 4.24Q57.22 4.22 57.04 4.22L57.04 4.22Q56.62 4.22 56.22 4.26Q55.82 4.30 55.41 4.42L55.41 4.42L55.41 10L53.42 10L53.42 2.98Q54.21 2.69 55.03 2.51Q55.86 2.34 56.96 2.34L56.96 2.34Q57.12 2.34 57.42 2.35Q57.71 2.37 58.05 2.41Q58.38 2.45 58.73 2.50Q59.07 2.56 59.34 2.66L59.34 2.66ZM62.45 6.19L62.45 6.19Q62.45 7.20 62.82 7.84Q63.20 8.48 64.03 8.48L64.03 8.48Q64.27 8.48 64.48 8.46Q64.69 8.45 64.91 8.42L64.91 8.42L64.91 4.32Q64.69 4.19 64.40 4.10Q64.11 4.02 63.79 4.02L63.79 4.02Q63.09 4.02 62.77 4.58Q62.45 5.14 62.45 6.19ZM66.88-1.10L66.88 9.78Q66.34 9.95 65.55 10.06Q64.77 10.18 64.02 10.18L64.02 10.18Q62.26 10.18 61.35 9.14Q60.45 8.10 60.45 6.29L60.45 6.29Q60.45 4.45 61.21 3.38Q61.97 2.32 63.46 2.32L63.46 2.32Q63.86 2.32 64.24 2.41Q64.62 2.50 64.91 2.66L64.91 2.66L64.91-0.77L66.88-1.10ZM83.01 0.10L83.01 6.69Q83.01 7.41 82.82 8.05Q82.64 8.69 82.22 9.17Q81.79 9.65 81.12 9.93Q80.45 10.21 79.49 10.21L79.49 10.21Q78.48 10.21 77.81 9.95Q77.14 9.70 76.67 9.33L76.67 9.33L77.42 7.76Q77.82 8.02 78.31 8.26Q78.80 8.50 79.31 8.50L79.31 8.50Q80.08 8.50 80.55 8.09Q81.02 7.68 81.02 6.58L81.02 6.58L81.02 1.73L77.71 1.73L77.71 0.10L83.01 0.10ZM88.02 8.59L88.02 8.59Q88.34 8.59 88.64 8.58Q88.94 8.58 89.17 8.54L89.17 8.54L89.17 6.82Q88.98 6.78 88.70 6.76Q88.43 6.74 88.21 6.74L88.21 6.74Q87.90 6.74 87.62 6.78Q87.33 6.82 87.11 6.91Q86.90 7.01 86.77 7.18Q86.64 7.36 86.64 7.65L86.64 7.65Q86.64 8.16 87.02 8.38Q87.41 8.59 88.02 8.59ZM87.84 2.29L87.84 2.29Q88.77 2.29 89.38 2.50Q90 2.72 90.37 3.11Q90.74 3.50 90.90 4.07Q91.06 4.64 91.06 5.34L91.06 5.34L91.06 9.82Q90.62 9.92 89.78 10.05Q88.93 10.18 87.87 10.18L87.87 10.18Q87.15 10.18 86.57 10.05Q85.98 9.92 85.57 9.62Q85.15 9.33 84.93 8.86Q84.70 8.38 84.70 7.70L84.70 7.70Q84.70 7.04 84.96 6.59Q85.22 6.14 85.65 5.87Q86.08 5.60 86.64 5.48Q87.20 5.36 87.81 5.36L87.81 5.36Q88.58 5.36 89.17 5.49L89.17 5.49L89.17 5.25Q89.17 4.69 88.82 4.31Q88.46 3.94 87.60 3.94L87.60 3.94Q87.04 3.94 86.52 4.02Q86 4.10 85.68 4.21L85.68 4.21L85.41 2.62Q85.78 2.50 86.45 2.39Q87.12 2.29 87.84 2.29ZM99.34 2.66L98.99 4.48Q98.80 4.43 98.54 4.38Q98.27 4.34 98 4.30Q97.73 4.26 97.47 4.24Q97.22 4.22 97.04 4.22L97.04 4.22Q96.62 4.22 96.22 4.26Q95.82 4.30 95.41 4.42L95.41 4.42L95.41 10L93.42 10L93.42 2.98Q94.21 2.69 95.03 2.51Q95.86 2.34 96.96 2.34L96.96 2.34Q97.12 2.34 97.42 2.35Q97.71 2.37 98.05 2.41Q98.38 2.45 98.73 2.50Q99.07 2.56 99.34 2.66L99.34 2.66Z"/>
    </g>
</svg>