<?xml version="1.0" encoding="UTF-8"?>
<svg height="34" width="163" version="1.1" xmlns="http://www.w3.org/2000/svg"><!--Created by Josélio de S. C. Júnior - 2021 - https://github.com/joseliojunior -->
    <rect
        height="32"
        width="161"
        rx="1"
        ry="1"
        x="1" y="1"
        fill="#0673ba"
        stroke="#011828"
        stroke-width="1" />
    <g transform="translate(0, 12)">
        <path fill="#011828" stroke="none" d="M25.14-3.02L25.14-3.02Q26.41-3.02 27.44-2.74Q28.47-2.45 29.22-1.85Q29.96-1.25 30.36-0.32Q30.75 0.60 30.75 1.85L30.75 1.85Q30.75 3.14 30.22 4.20Q29.70 5.26 28.47 5.81L28.47 5.81Q28.88 6.43 29.34 7.19Q29.79 7.94 30.22 8.77Q30.66 9.60 31.05 10.43Q31.45 11.26 31.74 12L31.74 12L28.64 12Q28.09 10.56 27.36 9.23Q26.62 7.90 25.78 6.53L25.78 6.53L24.25 6.53L24.25 12L21.30 12L21.30-2.64Q21.73-2.74 22.24-2.82Q22.76-2.90 23.29-2.94Q23.82-2.98 24.30-3Q24.78-3.02 25.14-3.02ZM27.75 1.82L27.75 1.82Q27.75 0.65 27.03 0.10Q26.31-0.46 25.14-0.46L25.14-0.46Q24.97-0.46 24.73-0.44Q24.49-0.43 24.25-0.38L24.25-0.38L24.25 4.08L24.90 4.08Q26.41 4.08 27.08 3.49Q27.75 2.90 27.75 1.82ZM32.74 6.46L32.74 6.46Q32.74 4.97 33.20 3.84Q33.66 2.71 34.40 1.96Q35.14 1.20 36.10 0.82Q37.06 0.43 38.07 0.43L38.07 0.43Q40.57 0.43 41.86 1.91Q43.16 3.38 43.16 6.22L43.16 6.22Q43.16 6.50 43.15 6.82Q43.14 7.13 43.11 7.32L43.11 7.32L35.79 7.32Q35.79 8.42 36.70 9.06Q37.62 9.70 39.06 9.70L39.06 9.70Q39.94 9.70 40.75 9.50Q41.55 9.31 42.10 9.12L42.10 9.12L42.51 11.64Q41.74 11.90 40.88 12.08Q40.02 12.26 38.94 12.26L38.94 12.26Q37.50 12.26 36.36 11.89Q35.22 11.52 34.41 10.79Q33.61 10.06 33.18 8.98Q32.74 7.90 32.74 6.46ZM35.79 5.28L40.30 5.28Q40.30 4.82 40.18 4.40Q40.06 3.98 39.80 3.65Q39.54 3.31 39.13 3.11Q38.72 2.90 38.12 2.90L38.12 2.90Q37.54 2.90 37.12 3.10Q36.70 3.29 36.43 3.62Q36.15 3.96 36.00 4.39Q35.84 4.82 35.79 5.28L35.79 5.28ZM45.06 6.36L45.06 6.36Q45.06 5.14 45.44 4.06Q45.82 2.98 46.62 2.17Q47.41 1.37 48.62 0.90Q49.83 0.43 51.51 0.43L51.51 0.43Q52.52 0.43 53.34 0.58Q54.15 0.72 54.99 1.06L54.99 1.06L54.34 3.43Q53.86 3.26 53.28 3.13Q52.69 3 51.78 3L51.78 3Q50.72 3 50.01 3.25Q49.30 3.50 48.87 3.95Q48.44 4.39 48.25 5.02Q48.06 5.64 48.06 6.36L48.06 6.36Q48.06 7.92 48.93 8.81Q49.81 9.70 51.92 9.70L51.92 9.70Q52.62 9.70 53.37 9.60Q54.13 9.50 54.75 9.29L54.75 9.29L55.18 11.71Q54.56 11.95 53.67 12.11Q52.78 12.26 51.58 12.26L51.58 12.26Q49.86 12.26 48.62 11.81Q47.38 11.35 46.59 10.56Q45.80 9.77 45.43 8.69Q45.06 7.61 45.06 6.36ZM67.33 6.34L67.33 6.34Q67.33 7.68 66.94 8.77Q66.56 9.86 65.86 10.66Q65.17 11.45 64.20 11.88Q63.22 12.31 62.02 12.31L62.02 12.31Q60.82 12.31 59.85 11.88Q58.88 11.45 58.17 10.66Q57.46 9.86 57.08 8.77Q56.70 7.68 56.70 6.34L56.70 6.34Q56.70 5.02 57.09 3.92Q57.49 2.83 58.20 2.05Q58.90 1.27 59.89 0.85Q60.87 0.43 62.02 0.43L62.02 0.43Q63.20 0.43 64.17 0.85Q65.14 1.27 65.85 2.05Q66.56 2.83 66.94 3.92Q67.33 5.02 67.33 6.34ZM59.70 6.36L59.70 6.36Q59.70 7.87 60.24 8.81Q60.78 9.74 61.98 9.74L61.98 9.74Q63.13 9.74 63.72 8.81Q64.30 7.87 64.30 6.36L64.30 6.36Q64.30 4.85 63.76 3.92Q63.22 3 62.02 3L62.02 3Q60.87 3 60.28 3.92Q59.70 4.85 59.70 6.36ZM79.02 0.98L78.49 3.72Q78.20 3.65 77.80 3.58Q77.41 3.50 77 3.44Q76.59 3.38 76.21 3.36Q75.82 3.34 75.56 3.34L75.56 3.34Q74.94 3.34 74.34 3.40Q73.74 3.46 73.11 3.62L73.11 3.62L73.11 12L70.14 12L70.14 1.46Q71.31 1.03 72.55 0.77Q73.78 0.50 75.44 0.50L75.44 0.50Q75.68 0.50 76.12 0.53Q76.57 0.55 77.07 0.61Q77.58 0.67 78.09 0.76Q78.61 0.84 79.02 0.98L79.02 0.98ZM83.67 6.29L83.67 6.29Q83.67 7.80 84.24 8.76Q84.80 9.72 86.05 9.72L86.05 9.72Q86.41 9.72 86.72 9.70Q87.03 9.67 87.37 9.62L87.37 9.62L87.37 3.48Q87.03 3.29 86.60 3.16Q86.17 3.02 85.69 3.02L85.69 3.02Q84.63 3.02 84.15 3.86Q83.67 4.70 83.67 6.29ZM90.32-4.66L90.32 11.66Q89.50 11.93 88.33 12.10Q87.15 12.26 86.02 12.26L86.02 12.26Q83.38 12.26 82.03 10.70Q80.67 9.14 80.67 6.43L80.67 6.43Q80.67 3.67 81.81 2.08Q82.95 0.48 85.18 0.48L85.18 0.48Q85.78 0.48 86.36 0.61Q86.94 0.74 87.37 0.98L87.37 0.98L87.37-4.15L90.32-4.66ZM114.51-2.86L114.51 7.03Q114.51 8.11 114.24 9.07Q113.96 10.03 113.32 10.75Q112.69 11.47 111.68 11.89Q110.67 12.31 109.23 12.31L109.23 12.31Q107.72 12.31 106.71 11.93Q105.70 11.54 105.01 10.99L105.01 10.99L106.14 8.64Q106.74 9.02 107.47 9.38Q108.20 9.74 108.97 9.74L108.97 9.74Q110.12 9.74 110.83 9.13Q111.54 8.52 111.54 6.86L111.54 6.86L111.54-0.41L106.57-0.41L106.57-2.86L114.51-2.86ZM122.02 9.89L122.02 9.89Q122.50 9.89 122.96 9.88Q123.42 9.86 123.75 9.82L123.75 9.82L123.75 7.22Q123.46 7.18 123.06 7.14Q122.65 7.10 122.31 7.10L122.31 7.10Q121.86 7.10 121.42 7.16Q120.99 7.22 120.67 7.37Q120.34 7.51 120.15 7.78Q119.96 8.04 119.96 8.47L119.96 8.47Q119.96 9.24 120.54 9.56Q121.11 9.89 122.02 9.89ZM121.76 0.43L121.76 0.43Q123.15 0.43 124.08 0.76Q125 1.08 125.55 1.67Q126.10 2.26 126.34 3.11Q126.58 3.96 126.58 5.02L126.58 5.02L126.58 11.74Q125.94 11.88 124.66 12.07Q123.39 12.26 121.81 12.26L121.81 12.26Q120.73 12.26 119.85 12.07Q118.98 11.88 118.35 11.44Q117.73 10.99 117.39 10.28Q117.06 9.58 117.06 8.54L117.06 8.54Q117.06 7.56 117.44 6.89Q117.82 6.22 118.47 5.81Q119.12 5.40 119.96 5.22Q120.80 5.04 121.71 5.04L121.71 5.04Q122.86 5.04 123.75 5.23L123.75 5.23L123.75 4.87Q123.75 4.03 123.22 3.47Q122.70 2.90 121.40 2.90L121.40 2.90Q120.56 2.90 119.78 3.02Q119 3.14 118.52 3.31L118.52 3.31L118.11 0.94Q118.66 0.74 119.67 0.59Q120.68 0.43 121.76 0.43ZM139.02 0.98L138.49 3.72Q138.20 3.65 137.80 3.58Q137.41 3.50 137 3.44Q136.59 3.38 136.21 3.36Q135.82 3.34 135.56 3.34L135.56 3.34Q134.94 3.34 134.34 3.40Q133.74 3.46 133.11 3.62L133.11 3.62L133.11 12L130.14 12L130.14 1.46Q131.31 1.03 132.55 0.77Q133.78 0.50 135.44 0.50L135.44 0.50Q135.68 0.50 136.12 0.53Q136.57 0.55 137.07 0.61Q137.58 0.67 138.09 0.76Q138.61 0.84 139.02 0.98L139.02 0.98Z"/>
    </g>
</svg>