<?xml version="1.0" encoding="UTF-8"?>
<svg height="34" width="138.8" version="1.1" xmlns="http://www.w3.org/2000/svg"><!--Created by Josélio de S. C. Júnior - 2021 - https://github.com/joseliojunior -->
    <defs>
        <pattern id="pattern"
                x="1.5" y="3" width="3" height="6"
                patternUnits="userSpaceOnUse"
                patternTransform="rotate(45)" >
            <rect height="6" width="1" fill="#999999"/>
        </pattern>
    </defs>
    <rect
        height="32"
        width="136.8"
        rx="16"
        ry="16"
        x="1" y="1"
        fill="url(#pattern)"
        stroke="#000000"
        stroke-width="1" />
    <g transform="translate(0, 12)">
        <path fill="#ffffff" stroke="#000000" d="M31.74 12L28.54 12Q28.09 10.78 27.43 9.29Q26.77 7.80 26.05 6.31L26.05 6.31Q25.35 7.73 24.66 9.25Q23.96 10.78 23.46 12L23.46 12L20.26 12Q20.50 11.35 20.97 10.44Q21.44 9.53 22.00 8.47Q22.57 7.42 23.19 6.30Q23.82 5.18 24.39 4.15L24.39 4.15L20.50-2.86L23.70-2.86L26.05 1.90L28.52-2.86L31.50-2.86L27.70 4.08Q28.35 5.11 28.98 6.24Q29.60 7.37 30.14 8.44Q30.68 9.50 31.09 10.43Q31.50 11.35 31.74 12L31.74 12ZM39.10 12.31L39.10 12.31Q35.96 12.31 34.30 10.30Q32.65 8.28 32.65 4.56L32.65 4.56Q32.65 2.71 33.15 1.27Q33.66-0.17 34.56-1.16Q35.46-2.16 36.69-2.68Q37.93-3.19 39.39-3.19L39.39-3.19Q40.18-3.19 40.82-3.06Q41.46-2.93 41.94-2.76Q42.42-2.59 42.74-2.40Q43.06-2.21 43.23-2.11L43.23-2.11L42.46 0.24Q41.91-0.12 41.13-0.37Q40.35-0.62 39.34-0.62L39.34-0.62Q38.65-0.62 37.99-0.37Q37.33-0.12 36.81 0.47Q36.30 1.06 35.97 2.04Q35.65 3.02 35.65 4.49L35.65 4.49Q35.65 7.03 36.52 8.39Q37.40 9.74 39.39 9.74L39.39 9.74Q40.54 9.74 41.30 9.48Q42.06 9.22 42.51 8.95L42.51 8.95L43.26 11.28Q42.63 11.66 41.56 11.99Q40.50 12.31 39.10 12.31ZM55.33 6.34L55.33 6.34Q55.33 7.68 54.94 8.77Q54.56 9.86 53.86 10.66Q53.17 11.45 52.20 11.88Q51.22 12.31 50.02 12.31L50.02 12.31Q48.82 12.31 47.85 11.88Q46.88 11.45 46.17 10.66Q45.46 9.86 45.08 8.77Q44.70 7.68 44.70 6.34L44.70 6.34Q44.70 5.02 45.09 3.92Q45.49 2.83 46.20 2.05Q46.90 1.27 47.89 0.85Q48.87 0.43 50.02 0.43L50.02 0.43Q51.20 0.43 52.17 0.85Q53.14 1.27 53.85 2.05Q54.56 2.83 54.94 3.92Q55.33 5.02 55.33 6.34ZM47.70 6.36L47.70 6.36Q47.70 7.87 48.24 8.81Q48.78 9.74 49.98 9.74L49.98 9.74Q51.13 9.74 51.72 8.81Q52.30 7.87 52.30 6.36L52.30 6.36Q52.30 4.85 51.76 3.92Q51.22 3 50.02 3L50.02 3Q48.87 3 48.28 3.92Q47.70 4.85 47.70 6.36ZM64.23 0.60L64.23 0.60Q65.17 0.60 65.77 0.89Q66.37 1.18 66.72 1.75Q67.06 2.33 67.18 3.20Q67.30 4.08 67.30 5.26L67.30 5.26L67.30 12L64.90 12L64.90 5.11Q64.90 4.44 64.82 4.03Q64.74 3.62 64.60 3.41Q64.47 3.19 64.29 3.12Q64.11 3.05 63.92 3.05L63.92 3.05Q63.70 3.05 63.46 3.08Q63.22 3.12 63.03 3.22L63.03 3.22Q63.10 3.67 63.15 4.22Q63.20 4.78 63.20 5.45L63.20 5.45L63.20 7.70L60.80 7.70L60.80 5.11Q60.80 3.96 60.57 3.50Q60.34 3.05 59.84 3.05L59.84 3.05Q59.70 3.05 59.49 3.07Q59.29 3.10 59.10 3.14L59.10 3.14L59.10 12L56.70 12L56.70 1.15Q57.63 0.89 58.54 0.74Q59.46 0.60 60.15 0.60L60.15 0.60Q60.78 0.60 61.27 0.76Q61.76 0.91 62.12 1.27L62.12 1.27Q62.53 1.01 63.08 0.80Q63.63 0.60 64.23 0.60ZM76.26 6.46L76.26 6.46Q76.26 4.94 75.66 3.97Q75.06 3 73.83 3L73.83 3Q73.50 3 73.11 3.04Q72.73 3.07 72.46 3.10L72.46 3.10L72.46 9.29Q72.75 9.48 73.23 9.60Q73.71 9.72 74.19 9.72L74.19 9.72Q75.25 9.72 75.75 8.87Q76.26 8.02 76.26 6.46ZM79.26 6.36L79.26 6.36Q79.26 7.66 78.97 8.75Q78.68 9.84 78.13 10.62Q77.58 11.40 76.74 11.83Q75.90 12.26 74.79 12.26L74.79 12.26Q73.66 12.26 72.46 11.71L72.46 11.71L72.46 15.96L69.51 15.96L69.51 1.08Q70.33 0.82 71.52 0.65Q72.70 0.48 73.86 0.48L73.86 0.48Q76.47 0.48 77.86 2.06Q79.26 3.65 79.26 6.36ZM91.33 6.34L91.33 6.34Q91.33 7.68 90.94 8.77Q90.56 9.86 89.86 10.66Q89.17 11.45 88.20 11.88Q87.22 12.31 86.02 12.31L86.02 12.31Q84.82 12.31 83.85 11.88Q82.88 11.45 82.17 10.66Q81.46 9.86 81.08 8.77Q80.70 7.68 80.70 6.34L80.70 6.34Q80.70 5.02 81.09 3.92Q81.49 2.83 82.20 2.05Q82.90 1.27 83.89 0.85Q84.87 0.43 86.02 0.43L86.02 0.43Q87.20 0.43 88.17 0.85Q89.14 1.27 89.85 2.05Q90.56 2.83 90.94 3.92Q91.33 5.02 91.33 6.34ZM83.70 6.36L83.70 6.36Q83.70 7.87 84.24 8.81Q84.78 9.74 85.98 9.74L85.98 9.74Q87.13 9.74 87.72 8.81Q88.30 7.87 88.30 6.36L88.30 6.36Q88.30 4.85 87.76 3.92Q87.22 3 86.02 3L86.02 3Q84.87 3 84.28 3.92Q83.70 4.85 83.70 6.36ZM97.47 9.77L97.47 9.77Q98.55 9.77 99.13 9.61Q99.70 9.46 99.70 8.98L99.70 8.98Q99.70 8.66 99.52 8.45Q99.34 8.23 99.02 8.08Q98.70 7.92 98.28 7.78Q97.86 7.63 97.40 7.49L97.40 7.49Q96.75 7.30 96.08 7.04Q95.41 6.79 94.86 6.41Q94.30 6.02 93.94 5.44Q93.58 4.85 93.58 3.96L93.58 3.96Q93.58 3.24 93.86 2.60Q94.14 1.97 94.72 1.48Q95.31 0.98 96.22 0.71Q97.14 0.43 98.41 0.43L98.41 0.43Q99.51 0.43 100.46 0.60Q101.41 0.77 102.10 1.08L102.10 1.08L101.65 3.58Q101.24 3.46 100.38 3.18Q99.51 2.90 98.43 2.90L98.43 2.90Q97.30 2.90 96.91 3.18Q96.51 3.46 96.51 3.77L96.51 3.77Q96.51 4.03 96.69 4.24Q96.87 4.44 97.17 4.61Q97.47 4.78 97.87 4.93Q98.26 5.09 98.72 5.23L98.72 5.23Q99.37 5.45 100.06 5.71Q100.76 5.98 101.32 6.37Q101.89 6.77 102.25 7.38Q102.61 7.99 102.61 8.88L102.61 8.88Q102.61 9.58 102.34 10.20Q102.08 10.82 101.47 11.28Q100.86 11.74 99.87 12Q98.89 12.26 97.45 12.26L97.45 12.26Q95.98 12.26 94.95 11.93Q93.92 11.59 93.30 11.33L93.30 11.33L93.75 8.86Q94.59 9.19 95.54 9.48Q96.49 9.77 97.47 9.77ZM104.74 6.46L104.74 6.46Q104.74 4.97 105.20 3.84Q105.66 2.71 106.40 1.96Q107.14 1.20 108.10 0.82Q109.06 0.43 110.07 0.43L110.07 0.43Q112.57 0.43 113.86 1.91Q115.16 3.38 115.16 6.22L115.16 6.22Q115.16 6.50 115.15 6.82Q115.14 7.13 115.11 7.32L115.11 7.32L107.79 7.32Q107.79 8.42 108.70 9.06Q109.62 9.70 111.06 9.70L111.06 9.70Q111.94 9.70 112.75 9.50Q113.55 9.31 114.10 9.12L114.10 9.12L114.51 11.64Q113.74 11.90 112.88 12.08Q112.02 12.26 110.94 12.26L110.94 12.26Q109.50 12.26 108.36 11.89Q107.22 11.52 106.41 10.79Q105.61 10.06 105.18 8.98Q104.74 7.90 104.74 6.46ZM107.79 5.28L112.30 5.28Q112.30 4.82 112.18 4.40Q112.06 3.98 111.80 3.65Q111.54 3.31 111.13 3.11Q110.72 2.90 110.12 2.90L110.12 2.90Q109.54 2.90 109.12 3.10Q108.70 3.29 108.43 3.62Q108.15 3.96 108.00 4.39Q107.84 4.82 107.79 5.28L107.79 5.28Z"/>
    </g>
</svg>