<?xml version="1.0" encoding="UTF-8"?>
<svg height="34" width="150.89999999999998" version="1.1" xmlns="http://www.w3.org/2000/svg">
    <rect
        height="32"
        width="148.89999999999998"
        rx="1"
        ry="1"
        x="1"
        y="1"
        fill="#646464"
        stroke="#171717"
        stroke-width="1"
         />
    <g transform="translate(0, 12)">
        <path fill="#171717" d="M25.57 9.84L25.57 9.84Q26.31 9.84 26.80 9.68Q27.30 9.53 27.58 9.25Q27.87 8.98 27.98 8.63Q28.09 8.28 28.09 7.92L28.09 7.92Q28.09 7.46 27.82 7.10Q27.56 6.74 27.15 6.47Q26.74 6.19 26.24 5.96Q25.74 5.74 25.23 5.54L25.23 5.54Q24.56 5.30 23.84 4.99Q23.12 4.68 22.53 4.20Q21.94 3.72 21.56 3.01Q21.18 2.30 21.18 1.25L21.18 1.25Q21.18-0.84 22.53-2.02Q23.89-3.19 26.26-3.19L26.26-3.19Q27.63-3.19 28.65-2.88Q29.67-2.57 30.37-2.18L30.37-2.18L29.50 0.10Q28.90-0.24 28.17-0.48Q27.44-0.72 26.48-0.72L26.48-0.72Q24.13-0.72 24.13 0.98L24.13 0.98Q24.13 1.42 24.37 1.74Q24.61 2.06 24.98 2.32Q25.35 2.57 25.82 2.76Q26.29 2.95 26.74 3.12L26.74 3.12Q27.44 3.38 28.20 3.71Q28.95 4.03 29.59 4.57Q30.22 5.11 30.63 5.92Q31.04 6.72 31.04 7.94L31.04 7.94Q31.04 10.03 29.68 11.17Q28.33 12.31 25.57 12.31L25.57 12.31Q23.72 12.31 22.62 11.92Q21.51 11.52 20.96 11.18L20.96 11.18L21.82 8.78Q22.47 9.17 23.37 9.50Q24.27 9.84 25.57 9.84ZM38.02 9.89L38.02 9.89Q38.50 9.89 38.96 9.88Q39.42 9.86 39.75 9.82L39.75 9.82L39.75 7.22Q39.46 7.18 39.06 7.14Q38.65 7.10 38.31 7.10L38.31 7.10Q37.86 7.10 37.42 7.16Q36.99 7.22 36.67 7.37Q36.34 7.51 36.15 7.78Q35.96 8.04 35.96 8.47L35.96 8.47Q35.96 9.24 36.54 9.56Q37.11 9.89 38.02 9.89ZM37.76 0.43L37.76 0.43Q39.15 0.43 40.08 0.76Q41 1.08 41.55 1.67Q42.10 2.26 42.34 3.11Q42.58 3.96 42.58 5.02L42.58 5.02L42.58 11.74Q41.94 11.88 40.66 12.07Q39.39 12.26 37.81 12.26L37.81 12.26Q36.73 12.26 35.85 12.07Q34.98 11.88 34.35 11.44Q33.73 10.99 33.39 10.28Q33.06 9.58 33.06 8.54L33.06 8.54Q33.06 7.56 33.44 6.89Q33.82 6.22 34.47 5.81Q35.12 5.40 35.96 5.22Q36.80 5.04 37.71 5.04L37.71 5.04Q38.86 5.04 39.75 5.23L39.75 5.23L39.75 4.87Q39.75 4.03 39.22 3.47Q38.70 2.90 37.40 2.90L37.40 2.90Q36.56 2.90 35.78 3.02Q35 3.14 34.52 3.31L34.52 3.31L34.11 0.94Q34.66 0.74 35.67 0.59Q36.68 0.43 37.76 0.43ZM54.82 9.14L55.21 11.52Q55.14 11.57 54.88 11.69Q54.63 11.81 54.22 11.94Q53.82 12.07 53.23 12.17Q52.64 12.26 51.90 12.26L51.90 12.26Q49.86 12.26 48.92 11.05Q47.98 9.84 47.98 7.51L47.98 7.51L47.98-2.06L44.86-2.06L44.86-4.51L50.94-4.51L50.94 7.73Q50.94 8.88 51.39 9.29Q51.85 9.70 52.54 9.70L52.54 9.70Q53.43 9.70 54.03 9.46Q54.63 9.22 54.82 9.14L54.82 9.14ZM59.43 7.80L59.43 3.17L56.86 3.17L56.86 0.72L59.43 0.72L59.43-2.11L62.38-2.59L62.38 0.72L67.11 0.72L67.11 3.17L62.38 3.17L62.38 7.73Q62.38 8.35 62.50 8.74Q62.62 9.12 62.84 9.34Q63.06 9.55 63.37 9.62Q63.68 9.70 64.06 9.70L64.06 9.70Q64.47 9.70 64.82 9.67Q65.17 9.65 65.49 9.59Q65.82 9.53 66.16 9.41Q66.51 9.29 66.92 9.10L66.92 9.10L67.33 11.64Q66.51 11.98 65.56 12.12Q64.62 12.26 63.73 12.26L63.73 12.26Q62.70 12.26 61.90 12.10Q61.11 11.93 60.56 11.45Q60.01 10.97 59.72 10.09Q59.43 9.22 59.43 7.80L59.43 7.80ZM73.57 9.84L73.57 9.84Q74.31 9.84 74.80 9.68Q75.30 9.53 75.58 9.25Q75.87 8.98 75.98 8.63Q76.09 8.28 76.09 7.92L76.09 7.92Q76.09 7.46 75.82 7.10Q75.56 6.74 75.15 6.47Q74.74 6.19 74.24 5.96Q73.74 5.74 73.23 5.54L73.23 5.54Q72.56 5.30 71.84 4.99Q71.12 4.68 70.53 4.20Q69.94 3.72 69.56 3.01Q69.18 2.30 69.18 1.25L69.18 1.25Q69.18-0.84 70.53-2.02Q71.89-3.19 74.26-3.19L74.26-3.19Q75.63-3.19 76.65-2.88Q77.67-2.57 78.37-2.18L78.37-2.18L77.50 0.10Q76.90-0.24 76.17-0.48Q75.44-0.72 74.48-0.72L74.48-0.72Q72.13-0.72 72.13 0.98L72.13 0.98Q72.13 1.42 72.37 1.74Q72.61 2.06 72.98 2.32Q73.35 2.57 73.82 2.76Q74.29 2.95 74.74 3.12L74.74 3.12Q75.44 3.38 76.20 3.71Q76.95 4.03 77.59 4.57Q78.22 5.11 78.63 5.92Q79.04 6.72 79.04 7.94L79.04 7.94Q79.04 10.03 77.68 11.17Q76.33 12.31 73.57 12.31L73.57 12.31Q71.72 12.31 70.62 11.92Q69.51 11.52 68.96 11.18L68.96 11.18L69.82 8.78Q70.47 9.17 71.37 9.50Q72.27 9.84 73.57 9.84ZM83.43 7.80L83.43 3.17L80.86 3.17L80.86 0.72L83.43 0.72L83.43-2.11L86.38-2.59L86.38 0.72L91.11 0.72L91.11 3.17L86.38 3.17L86.38 7.73Q86.38 8.35 86.50 8.74Q86.62 9.12 86.84 9.34Q87.06 9.55 87.37 9.62Q87.68 9.70 88.06 9.70L88.06 9.70Q88.47 9.70 88.82 9.67Q89.17 9.65 89.49 9.59Q89.82 9.53 90.16 9.41Q90.51 9.29 90.92 9.10L90.92 9.10L91.33 11.64Q90.51 11.98 89.56 12.12Q88.62 12.26 87.73 12.26L87.73 12.26Q86.70 12.26 85.90 12.10Q85.11 11.93 84.56 11.45Q84.01 10.97 83.72 10.09Q83.43 9.22 83.43 7.80L83.43 7.80ZM98.02 9.89L98.02 9.89Q98.50 9.89 98.96 9.88Q99.42 9.86 99.75 9.82L99.75 9.82L99.75 7.22Q99.46 7.18 99.06 7.14Q98.65 7.10 98.31 7.10L98.31 7.10Q97.86 7.10 97.42 7.16Q96.99 7.22 96.67 7.37Q96.34 7.51 96.15 7.78Q95.96 8.04 95.96 8.47L95.96 8.47Q95.96 9.24 96.54 9.56Q97.11 9.89 98.02 9.89ZM97.76 0.43L97.76 0.43Q99.15 0.43 100.08 0.76Q101 1.08 101.55 1.67Q102.10 2.26 102.34 3.11Q102.58 3.96 102.58 5.02L102.58 5.02L102.58 11.74Q101.94 11.88 100.66 12.07Q99.39 12.26 97.81 12.26L97.81 12.26Q96.73 12.26 95.85 12.07Q94.98 11.88 94.35 11.44Q93.73 10.99 93.39 10.28Q93.06 9.58 93.06 8.54L93.06 8.54Q93.06 7.56 93.44 6.89Q93.82 6.22 94.47 5.81Q95.12 5.40 95.96 5.22Q96.80 5.04 97.71 5.04L97.71 5.04Q98.86 5.04 99.75 5.23L99.75 5.23L99.75 4.87Q99.75 4.03 99.22 3.47Q98.70 2.90 97.40 2.90L97.40 2.90Q96.56 2.90 95.78 3.02Q95 3.14 94.52 3.31L94.52 3.31L94.11 0.94Q94.66 0.74 95.67 0.59Q96.68 0.43 97.76 0.43ZM105.06 6.36L105.06 6.36Q105.06 5.14 105.44 4.06Q105.82 2.98 106.62 2.17Q107.41 1.37 108.62 0.90Q109.83 0.43 111.51 0.43L111.51 0.43Q112.52 0.43 113.34 0.58Q114.15 0.72 114.99 1.06L114.99 1.06L114.34 3.43Q113.86 3.26 113.28 3.13Q112.69 3 111.78 3L111.78 3Q110.72 3 110.01 3.25Q109.30 3.50 108.87 3.95Q108.44 4.39 108.25 5.02Q108.06 5.64 108.06 6.36L108.06 6.36Q108.06 7.92 108.93 8.81Q109.81 9.70 111.92 9.70L111.92 9.70Q112.62 9.70 113.37 9.60Q114.13 9.50 114.75 9.29L114.75 9.29L115.18 11.71Q114.56 11.95 113.67 12.11Q112.78 12.26 111.58 12.26L111.58 12.26Q109.86 12.26 108.62 11.81Q107.38 11.35 106.59 10.56Q105.80 9.77 105.43 8.69Q105.06 7.61 105.06 6.36ZM120.49-4.66L120.49 5.18Q120.92 4.68 121.36 4.12Q121.81 3.55 122.23 2.95Q122.65 2.35 123.03 1.79Q123.42 1.22 123.70 0.72L123.70 0.72L127.26 0.72Q126.82 1.27 126.27 1.92Q125.72 2.57 125.13 3.24Q124.54 3.91 123.96 4.54Q123.37 5.16 122.89 5.69L122.89 5.69Q123.49 6.26 124.18 7.07Q124.88 7.87 125.55 8.74Q126.22 9.60 126.79 10.46Q127.35 11.33 127.69 12L127.69 12L124.30 12Q124.02 11.40 123.55 10.64Q123.08 9.89 122.55 9.16Q122.02 8.42 121.48 7.76Q120.94 7.10 120.49 6.67L120.49 6.67L120.49 12L117.51 12L117.51-4.15L120.49-4.66Z"/>
    </g>
</svg>