<?xml version="1.0" encoding="UTF-8"?>
<svg height="26" width="114.89999999999999" version="1.1" xmlns="http://www.w3.org/2000/svg"><!--Created by Josélio de S. C. Júnior - 2021 - https://github.com/joseliojunior -->
    <rect
        height="24"
        width="112.89999999999999"
        rx="1"
        ry="1"
        x="1" y="1"
        fill="#646464"
        stroke="#171717"
        stroke-width="1" />
    <g transform="translate(0, 8)">
        <path fill="#171717" stroke="none" d="M23.71 8.56L23.71 8.56Q24.21 8.56 24.54 8.46Q24.86 8.35 25.06 8.17Q25.25 7.98 25.32 7.75Q25.39 7.52 25.39 7.28L25.39 7.28Q25.39 6.98 25.22 6.74Q25.04 6.50 24.77 6.31Q24.50 6.13 24.16 5.98Q23.82 5.82 23.49 5.70L23.49 5.70Q23.04 5.54 22.56 5.33Q22.08 5.12 21.69 4.80Q21.30 4.48 21.04 4.01Q20.78 3.54 20.78 2.83L20.78 2.83Q20.78 1.44 21.69 0.66Q22.59-0.13 24.18-0.13L24.18-0.13Q25.09-0.13 25.77 0.08Q26.45 0.29 26.91 0.54L26.91 0.54L26.34 2.06Q25.94 1.84 25.45 1.68Q24.96 1.52 24.32 1.52L24.32 1.52Q22.75 1.52 22.75 2.66L22.75 2.66Q22.75 2.94 22.91 3.16Q23.07 3.38 23.32 3.54Q23.57 3.71 23.88 3.84Q24.19 3.97 24.50 4.08L24.50 4.08Q24.96 4.26 25.46 4.47Q25.97 4.69 26.39 5.05Q26.82 5.41 27.09 5.94Q27.36 6.48 27.36 7.30L27.36 7.30Q27.36 8.69 26.46 9.45Q25.55 10.21 23.71 10.21L23.71 10.21Q22.48 10.21 21.74 9.94Q21.01 9.68 20.64 9.46L20.64 9.46L21.22 7.86Q21.65 8.11 22.25 8.34Q22.85 8.56 23.71 8.56ZM32.02 8.59L32.02 8.59Q32.34 8.59 32.64 8.58Q32.94 8.58 33.17 8.54L33.17 8.54L33.17 6.82Q32.98 6.78 32.70 6.76Q32.43 6.74 32.21 6.74L32.21 6.74Q31.90 6.74 31.62 6.78Q31.33 6.82 31.11 6.91Q30.90 7.01 30.77 7.18Q30.64 7.36 30.64 7.65L30.64 7.65Q30.64 8.16 31.02 8.38Q31.41 8.59 32.02 8.59ZM31.84 2.29L31.84 2.29Q32.77 2.29 33.38 2.50Q34 2.72 34.37 3.11Q34.74 3.50 34.90 4.07Q35.06 4.64 35.06 5.34L35.06 5.34L35.06 9.82Q34.62 9.92 33.78 10.05Q32.93 10.18 31.87 10.18L31.87 10.18Q31.15 10.18 30.57 10.05Q29.98 9.92 29.57 9.62Q29.15 9.33 28.93 8.86Q28.70 8.38 28.70 7.70L28.70 7.70Q28.70 7.04 28.96 6.59Q29.22 6.14 29.65 5.87Q30.08 5.60 30.64 5.48Q31.20 5.36 31.81 5.36L31.81 5.36Q32.58 5.36 33.17 5.49L33.17 5.49L33.17 5.25Q33.17 4.69 32.82 4.31Q32.46 3.94 31.60 3.94L31.60 3.94Q31.04 3.94 30.52 4.02Q30 4.10 29.68 4.21L29.68 4.21L29.41 2.62Q29.78 2.50 30.45 2.39Q31.12 2.29 31.84 2.29ZM43.22 8.10L43.47 9.68Q43.42 9.71 43.26 9.79Q43.09 9.87 42.82 9.96Q42.54 10.05 42.15 10.11Q41.76 10.18 41.26 10.18L41.26 10.18Q39.90 10.18 39.28 9.37Q38.66 8.56 38.66 7.01L38.66 7.01L38.66 0.62L36.58 0.62L36.58-1.01L40.62-1.01L40.62 7.15Q40.62 7.92 40.93 8.19Q41.23 8.46 41.70 8.46L41.70 8.46Q42.29 8.46 42.69 8.30Q43.09 8.14 43.22 8.10L43.22 8.10ZM46.29 7.20L46.29 4.11L44.58 4.11L44.58 2.48L46.29 2.48L46.29 0.59L48.26 0.27L48.26 2.48L51.41 2.48L51.41 4.11L48.26 4.11L48.26 7.15Q48.26 7.57 48.34 7.82Q48.42 8.08 48.56 8.22Q48.70 8.37 48.91 8.42Q49.12 8.46 49.38 8.46L49.38 8.46Q49.65 8.46 49.88 8.45Q50.11 8.43 50.33 8.39Q50.54 8.35 50.78 8.27Q51.01 8.19 51.28 8.06L51.28 8.06L51.55 9.76Q51.01 9.98 50.38 10.08Q49.74 10.18 49.15 10.18L49.15 10.18Q48.46 10.18 47.94 10.06Q47.41 9.95 47.04 9.63Q46.67 9.31 46.48 8.73Q46.29 8.14 46.29 7.20L46.29 7.20ZM55.71 8.56L55.71 8.56Q56.21 8.56 56.54 8.46Q56.86 8.35 57.06 8.17Q57.25 7.98 57.32 7.75Q57.39 7.52 57.39 7.28L57.39 7.28Q57.39 6.98 57.22 6.74Q57.04 6.50 56.77 6.31Q56.50 6.13 56.16 5.98Q55.82 5.82 55.49 5.70L55.49 5.70Q55.04 5.54 54.56 5.33Q54.08 5.12 53.69 4.80Q53.30 4.48 53.04 4.01Q52.78 3.54 52.78 2.83L52.78 2.83Q52.78 1.44 53.69 0.66Q54.59-0.13 56.18-0.13L56.18-0.13Q57.09-0.13 57.77 0.08Q58.45 0.29 58.91 0.54L58.91 0.54L58.34 2.06Q57.94 1.84 57.45 1.68Q56.96 1.52 56.32 1.52L56.32 1.52Q54.75 1.52 54.75 2.66L54.75 2.66Q54.75 2.94 54.91 3.16Q55.07 3.38 55.32 3.54Q55.57 3.71 55.88 3.84Q56.19 3.97 56.50 4.08L56.50 4.08Q56.96 4.26 57.46 4.47Q57.97 4.69 58.39 5.05Q58.82 5.41 59.09 5.94Q59.36 6.48 59.36 7.30L59.36 7.30Q59.36 8.69 58.46 9.45Q57.55 10.21 55.71 10.21L55.71 10.21Q54.48 10.21 53.74 9.94Q53.01 9.68 52.64 9.46L52.64 9.46L53.22 7.86Q53.65 8.11 54.25 8.34Q54.85 8.56 55.71 8.56ZM62.29 7.20L62.29 4.11L60.58 4.11L60.58 2.48L62.29 2.48L62.29 0.59L64.26 0.27L64.26 2.48L67.41 2.48L67.41 4.11L64.26 4.11L64.26 7.15Q64.26 7.57 64.34 7.82Q64.42 8.08 64.56 8.22Q64.70 8.37 64.91 8.42Q65.12 8.46 65.38 8.46L65.38 8.46Q65.65 8.46 65.88 8.45Q66.11 8.43 66.33 8.39Q66.54 8.35 66.78 8.27Q67.01 8.19 67.28 8.06L67.28 8.06L67.55 9.76Q67.01 9.98 66.38 10.08Q65.74 10.18 65.15 10.18L65.15 10.18Q64.46 10.18 63.94 10.06Q63.41 9.95 63.04 9.63Q62.67 9.31 62.48 8.73Q62.29 8.14 62.29 7.20L62.29 7.20ZM72.02 8.59L72.02 8.59Q72.34 8.59 72.64 8.58Q72.94 8.58 73.17 8.54L73.17 8.54L73.17 6.82Q72.98 6.78 72.70 6.76Q72.43 6.74 72.21 6.74L72.21 6.74Q71.90 6.74 71.62 6.78Q71.33 6.82 71.11 6.91Q70.90 7.01 70.77 7.18Q70.64 7.36 70.64 7.65L70.64 7.65Q70.64 8.16 71.02 8.38Q71.41 8.59 72.02 8.59ZM71.84 2.29L71.84 2.29Q72.77 2.29 73.38 2.50Q74 2.72 74.37 3.11Q74.74 3.50 74.90 4.07Q75.06 4.64 75.06 5.34L75.06 5.34L75.06 9.82Q74.62 9.92 73.78 10.05Q72.93 10.18 71.87 10.18L71.87 10.18Q71.15 10.18 70.57 10.05Q69.98 9.92 69.57 9.62Q69.15 9.33 68.93 8.86Q68.70 8.38 68.70 7.70L68.70 7.70Q68.70 7.04 68.96 6.59Q69.22 6.14 69.65 5.87Q70.08 5.60 70.64 5.48Q71.20 5.36 71.81 5.36L71.81 5.36Q72.58 5.36 73.17 5.49L73.17 5.49L73.17 5.25Q73.17 4.69 72.82 4.31Q72.46 3.94 71.60 3.94L71.60 3.94Q71.04 3.94 70.52 4.02Q70 4.10 69.68 4.21L69.68 4.21L69.41 2.62Q69.78 2.50 70.45 2.39Q71.12 2.29 71.84 2.29ZM76.70 6.24L76.70 6.24Q76.70 5.42 76.96 4.70Q77.22 3.98 77.74 3.45Q78.27 2.91 79.08 2.60Q79.89 2.29 81.01 2.29L81.01 2.29Q81.68 2.29 82.22 2.38Q82.77 2.48 83.33 2.70L83.33 2.70L82.90 4.29Q82.58 4.18 82.18 4.09Q81.79 4 81.18 4L81.18 4Q80.48 4 80.01 4.17Q79.54 4.34 79.25 4.63Q78.96 4.93 78.83 5.34Q78.70 5.76 78.70 6.24L78.70 6.24Q78.70 7.28 79.29 7.87Q79.87 8.46 81.28 8.46L81.28 8.46Q81.74 8.46 82.25 8.40Q82.75 8.34 83.17 8.19L83.17 8.19L83.46 9.81Q83.04 9.97 82.45 10.07Q81.86 10.18 81.06 10.18L81.06 10.18Q79.90 10.18 79.08 9.87Q78.26 9.57 77.73 9.04Q77.20 8.51 76.95 7.79Q76.70 7.07 76.70 6.24ZM86.99-1.10L86.99 5.46Q87.28 5.12 87.58 4.74Q87.87 4.37 88.15 3.97Q88.43 3.57 88.69 3.19Q88.94 2.82 89.14 2.48L89.14 2.48L91.50 2.48Q91.22 2.85 90.85 3.28Q90.48 3.71 90.09 4.16Q89.70 4.61 89.30 5.02Q88.91 5.44 88.59 5.79L88.59 5.79Q88.99 6.18 89.46 6.71Q89.92 7.25 90.37 7.82Q90.82 8.40 91.19 8.98Q91.57 9.55 91.79 10L91.79 10L89.54 10Q89.34 9.60 89.03 9.10Q88.72 8.59 88.37 8.10Q88.02 7.62 87.66 7.18Q87.30 6.74 86.99 6.45L86.99 6.45L86.99 10L85.01 10L85.01-0.77L86.99-1.10Z"/>
    </g>
</svg>