<?xml version="1.0" encoding="UTF-8"?>
<svg height="34" width="92.5" version="1.1" xmlns="http://www.w3.org/2000/svg">
    <rect
        height="32"
        width="90.5"
        rx="14"
        ry="14"
        x="1"
        y="1"
        fill="#285EEF"
        stroke="#092677"
        stroke-width="1"
         />
    <g transform="translate(0, 14)">
        <path fill="#092677" d="M23.69 11L19.97 11Q19.44 9.57 18.67 7.84Q17.90 6.10 17.06 4.36L17.06 4.36Q16.24 6.02 15.43 7.79Q14.62 9.57 14.03 11L14.03 11L10.31 11Q10.59 10.24 11.13 9.18Q11.68 8.12 12.34 6.88Q13.00 5.65 13.72 4.35Q14.45 3.05 15.12 1.84L15.12 1.84L10.59-6.33L14.31-6.33L17.06-0.79L19.94-6.33L23.41-6.33L18.99 1.76Q19.74 2.96 20.47 4.28Q21.20 5.60 21.83 6.84Q22.46 8.09 22.94 9.17Q23.41 10.24 23.69 11L23.69 11ZM37.22 4.39L37.22 4.39Q37.22 5.96 36.77 7.23Q36.32 8.51 35.51 9.43Q34.70 10.36 33.56 10.86Q32.43 11.36 31.03 11.36L31.03 11.36Q29.63 11.36 28.49 10.86Q27.36 10.36 26.53 9.43Q25.71 8.51 25.26 7.23Q24.81 5.96 24.81 4.39L24.81 4.39Q24.81 2.85 25.27 1.58Q25.74 0.30 26.56-0.61Q27.39-1.52 28.54-2.01Q29.68-2.50 31.03-2.50L31.03-2.50Q32.40-2.50 33.53-2.01Q34.67-1.52 35.49-0.61Q36.32 0.30 36.77 1.58Q37.22 2.85 37.22 4.39ZM28.31 4.42L28.31 4.42Q28.31 6.18 28.94 7.28Q29.57 8.37 30.97 8.37L30.97 8.37Q32.32 8.37 33.00 7.28Q33.69 6.18 33.69 4.42L33.69 4.42Q33.69 2.66 33.06 1.58Q32.43 0.50 31.03 0.50L31.03 0.50Q29.68 0.50 29.00 1.58Q28.31 2.66 28.31 4.42ZM39.76 11L39.76-1.74Q40.69-1.99 42.05-2.22Q43.40-2.44 45-2.44L45-2.44Q46.57-2.44 47.60-2.01Q48.64-1.57 49.24-0.77Q49.84 0.02 50.10 1.13Q50.35 2.24 50.35 3.58L50.35 3.58L50.35 11L46.90 11L46.90 4.03Q46.90 2.18 46.48 1.37Q46.06 0.56 44.78 0.56L44.78 0.56Q44.38 0.56 44.01 0.58Q43.63 0.61 43.21 0.67L43.21 0.67L43.21 11L39.76 11ZM58.38 8.40L58.38 8.40Q59.64 8.40 60.32 8.21Q60.99 8.03 60.99 7.47L60.99 7.47Q60.99 7.11 60.78 6.86Q60.57 6.60 60.19 6.42Q59.81 6.24 59.32 6.07Q58.83 5.90 58.30 5.74L58.30 5.74Q57.54 5.51 56.76 5.22Q55.98 4.92 55.33 4.48Q54.69 4.03 54.27 3.34Q53.85 2.66 53.85 1.62L53.85 1.62Q53.85 0.78 54.17 0.04Q54.49-0.70 55.18-1.28Q55.86-1.85 56.93-2.17Q57.99-2.50 59.48-2.50L59.48-2.50Q60.76-2.50 61.87-2.30Q62.98-2.10 63.79-1.74L63.79-1.74L63.26 1.17Q62.78 1.03 61.77 0.71Q60.76 0.39 59.50 0.39L59.50 0.39Q58.19 0.39 57.73 0.71Q57.26 1.03 57.26 1.40L57.26 1.40Q57.26 1.70 57.47 1.94Q57.68 2.18 58.03 2.38Q58.38 2.57 58.85 2.75Q59.31 2.94 59.84 3.10L59.84 3.10Q60.60 3.36 61.41 3.66Q62.22 3.97 62.88 4.43Q63.54 4.90 63.96 5.61Q64.38 6.32 64.38 7.36L64.38 7.36Q64.38 8.17 64.07 8.90Q63.76 9.63 63.05 10.16Q62.33 10.69 61.18 11Q60.04 11.31 58.36 11.31L58.36 11.31Q56.65 11.31 55.44 10.92Q54.24 10.52 53.51 10.22L53.51 10.22L54.04 7.33Q55.02 7.72 56.13 8.06Q57.24 8.40 58.38 8.40ZM71.21 11L67.76 11L67.76-7.84L71.21-8.43L71.21-2.05Q71.63-2.19 72.22-2.31Q72.80-2.44 73.25-2.44L73.25-2.44Q74.71-2.44 75.69-2.01Q76.67-1.57 77.26-0.77Q77.84 0.02 78.10 1.13Q78.35 2.24 78.35 3.58L78.35 3.58L78.35 11L74.90 11L74.90 4.03Q74.90 2.18 74.48 1.37Q74.06 0.56 72.89 0.56L72.89 0.56Q72.41 0.56 71.95 0.67Q71.49 0.78 71.21 0.86L71.21 0.86L71.21 11Z"/>
    </g>
</svg>