<?xml version="1.0" encoding="UTF-8"?><svg height="34" width="66.2" version="1.1" xmlns="http://www.w3.org/2000/svg"><!--Created by Josélio de S. C. Júnior - 2021 - https://github.com/joseliojunior --><rect height="32" width="64.2" rx="16" ry="16" x="1" y="1" fill="#c7254e" stroke="#450d1b" stroke-width="1" /><g transform="translate(0, 12)"><path fill="#450d1b" d="M29.60 0.72L29.60 11.26Q29.60 12.62 29.26 13.55Q28.93 14.47 28.34 15.04Q27.75 15.60 26.95 15.84Q26.14 16.08 25.21 16.08L25.21 16.08Q24.06 16.08 23.07 15.79Q22.09 15.50 21.18 15.05L21.18 15.05L22.09 12.55Q22.69 12.89 23.54 13.19Q24.39 13.49 25.09 13.49L25.09 13.49Q25.83 13.49 26.24 13.04Q26.65 12.60 26.65 11.40L26.65 11.40L26.65 3.17L22.09 3.17L22.09 0.72L29.60 0.72ZM29.24-2.52L29.24-2.52Q29.24-1.66 28.69-1.15Q28.14-0.65 27.37-0.65L27.37-0.65Q26.60-0.65 26.06-1.15Q25.52-1.66 25.52-2.52L25.52-2.52Q25.52-3.41 26.06-3.91Q26.60-4.42 27.37-4.42L27.37-4.42Q28.14-4.42 28.69-3.91Q29.24-3.41 29.24-2.52ZM35.74 6.46L35.74 6.46Q35.74 8.02 36.26 8.87Q36.78 9.72 37.83 9.72L37.83 9.72Q38.34 9.72 38.78 9.60Q39.22 9.48 39.56 9.29L39.56 9.29L39.56 3.10Q39.34 3.07 38.97 3.04Q38.60 3 38.19 3L38.19 3Q36.97 3 36.36 3.97Q35.74 4.94 35.74 6.46ZM32.74 6.36L32.74 6.36Q32.74 5.06 33.10 3.97Q33.46 2.88 34.15 2.11Q34.83 1.34 35.85 0.91Q36.87 0.48 38.17 0.48L38.17 0.48Q38.72 0.48 39.33 0.53Q39.94 0.58 40.52 0.66Q41.10 0.74 41.61 0.85Q42.13 0.96 42.51 1.08L42.51 1.08L42.51 15.96L39.56 15.96L39.56 11.69Q39.01 11.95 38.40 12.11Q37.78 12.26 37.23 12.26L37.23 12.26Q36.13 12.26 35.29 11.84Q34.45 11.42 33.88 10.66Q33.32 9.89 33.03 8.80Q32.74 7.70 32.74 6.36Z"/></g></svg>