<?xml version="1.0" encoding="UTF-8"?>
<svg height="34" width="50.2" version="1.1" xmlns="http://www.w3.org/2000/svg">
    <rect
        height="32"
        width="48.2"
        rx="1"
        ry="1"
        x="1"
        y="1"
        fill="#c7254e"
        stroke="#450d1b"
        stroke-width="1"
         />
    <g transform="translate(0, 14)">
        <path fill="#450d1b" d="M21.20-2.16L21.20 10.13Q21.20 11.73 20.81 12.81Q20.42 13.88 19.73 14.54Q19.04 15.20 18.11 15.48Q17.17 15.76 16.08 15.76L16.08 15.76Q14.73 15.76 13.58 15.42Q12.44 15.09 11.37 14.56L11.37 14.56L12.44 11.64Q13.14 12.04 14.13 12.39Q15.12 12.74 15.94 12.74L15.94 12.74Q16.80 12.74 17.28 12.22Q17.76 11.70 17.76 10.30L17.76 10.30L17.76 0.70L12.44 0.70L12.44-2.16L21.20-2.16ZM20.78-5.94L20.78-5.94Q20.78-4.93 20.14-4.34Q19.49-3.76 18.60-3.76L18.60-3.76Q17.70-3.76 17.07-4.34Q16.44-4.93 16.44-5.94L16.44-5.94Q16.44-6.98 17.07-7.56Q17.70-8.15 18.60-8.15L18.60-8.15Q19.49-8.15 20.14-7.56Q20.78-6.98 20.78-5.94ZM28.37 4.53L28.37 4.53Q28.37 6.35 28.97 7.35Q29.57 8.34 30.80 8.34L30.80 8.34Q31.39 8.34 31.91 8.20Q32.43 8.06 32.82 7.84L32.82 7.84L32.82 0.61Q32.57 0.58 32.13 0.54Q31.70 0.50 31.22 0.50L31.22 0.50Q29.80 0.50 29.08 1.63Q28.37 2.77 28.37 4.53ZM24.87 4.42L24.87 4.42Q24.87 2.91 25.29 1.63Q25.71 0.36 26.51-0.54Q27.30-1.43 28.49-1.94Q29.68-2.44 31.20-2.44L31.20-2.44Q31.84-2.44 32.55-2.38Q33.27-2.33 33.94-2.23Q34.61-2.13 35.21-2.01Q35.82-1.88 36.26-1.74L36.26-1.74L36.26 15.62L32.82 15.62L32.82 10.64Q32.18 10.94 31.46 11.13Q30.75 11.31 30.10 11.31L30.10 11.31Q28.82 11.31 27.84 10.82Q26.86 10.33 26.20 9.43Q25.54 8.54 25.20 7.26Q24.87 5.99 24.87 4.42Z"/>
    </g>
</svg>