<?xml version="1.0" encoding="UTF-8"?><svg height="26" width="58.2" version="1.1" xmlns="http://www.w3.org/2000/svg"><!--Created by Josélio de S. C. Júnior - 2021 - https://github.com/joseliojunior --><rect height="24" width="56.2" rx="1" ry="1" x="1" y="1" fill="#c7254e" stroke="#450d1b" stroke-width="1" /><g transform="translate(0, 8)"><path fill="#450d1b" d="M26.40 2.48L26.40 9.50Q26.40 10.42 26.18 11.03Q25.95 11.65 25.56 12.02Q25.17 12.40 24.63 12.56Q24.10 12.72 23.47 12.72L23.47 12.72Q22.70 12.72 22.05 12.53Q21.39 12.34 20.78 12.03L20.78 12.03L21.39 10.37Q21.79 10.59 22.36 10.79Q22.93 10.99 23.39 10.99L23.39 10.99Q23.89 10.99 24.16 10.70Q24.43 10.40 24.43 9.60L24.43 9.60L24.43 4.11L21.39 4.11L21.39 2.48L26.40 2.48ZM26.16 0.32L26.16 0.32Q26.16 0.90 25.79 1.23Q25.42 1.57 24.91 1.57L24.91 1.57Q24.40 1.57 24.04 1.23Q23.68 0.90 23.68 0.32L23.68 0.32Q23.68-0.27 24.04-0.61Q24.40-0.94 24.91-0.94L24.91-0.94Q25.42-0.94 25.79-0.61Q26.16-0.27 26.16 0.32ZM30.50 6.30L30.50 6.30Q30.50 7.34 30.84 7.91Q31.18 8.48 31.89 8.48L31.89 8.48Q32.22 8.48 32.52 8.40Q32.82 8.32 33.04 8.19L33.04 8.19L33.04 4.06Q32.90 4.05 32.65 4.02Q32.40 4 32.13 4L32.13 4Q31.31 4 30.90 4.65Q30.50 5.30 30.50 6.30ZM28.50 6.24L28.50 6.24Q28.50 5.38 28.74 4.65Q28.98 3.92 29.43 3.41Q29.89 2.90 30.57 2.61Q31.25 2.32 32.11 2.32L32.11 2.32Q32.48 2.32 32.89 2.35Q33.30 2.38 33.68 2.44Q34.06 2.50 34.41 2.57Q34.75 2.64 35.01 2.72L35.01 2.72L35.01 12.64L33.04 12.64L33.04 9.79Q32.67 9.97 32.26 10.07Q31.86 10.18 31.49 10.18L31.49 10.18Q30.75 10.18 30.19 9.90Q29.63 9.62 29.26 9.10Q28.88 8.59 28.69 7.86Q28.50 7.14 28.50 6.24Z"/></g></svg>