<?xml version="1.0" encoding="UTF-8"?>
<svg height="34" width="102.5" version="1.1" xmlns="http://www.w3.org/2000/svg"><!--Created by Josélio de S. C. Júnior - 2021 - https://github.com/joseliojunior -->
    <rect
        height="32"
        width="100.5"
        rx="1"
        ry="1"
        x="1" y="1"
        fill="#519aba"
        stroke="#204250"
        stroke-width="1" />
    <g transform="translate(0, 12)">
        <path fill="#204250" d="M31.26 7.51L31.26 7.51Q31.26 8.86 30.80 9.76Q30.34 10.66 29.56 11.20Q28.78 11.74 27.72 11.96Q26.65 12.19 25.42 12.19L25.42 12.19Q24.44 12.19 23.38 12.08Q22.33 11.98 21.30 11.76L21.30 11.76L21.30-2.66Q22.14-2.81 23.14-2.92Q24.15-3.02 25.14-3.02L25.14-3.02Q26.82-3.02 27.87-2.68Q28.93-2.33 29.53-1.76Q30.13-1.20 30.34-0.50Q30.56 0.19 30.56 0.89L30.56 0.89Q30.56 1.94 30.04 2.76Q29.53 3.58 28.66 4.06L28.66 4.06Q30.18 4.61 30.72 5.54Q31.26 6.48 31.26 7.51ZM25.83 5.50L24.25 5.50L24.25 9.53Q24.56 9.58 24.93 9.60Q25.30 9.62 25.66 9.62L25.66 9.62Q26.17 9.62 26.65 9.54Q27.13 9.46 27.50 9.23Q27.87 9 28.11 8.58Q28.35 8.16 28.35 7.51L28.35 7.51Q28.35 6.43 27.67 5.96Q26.98 5.50 25.83 5.50L25.83 5.50ZM24.25 3.05L25.40 3.05Q26.53 3.05 27.10 2.56Q27.68 2.06 27.68 1.20L27.68 1.20Q27.68 0.67 27.51 0.35Q27.34 0.02 27.06-0.16Q26.77-0.34 26.38-0.40Q26-0.46 25.59-0.46L25.59-0.46Q25.26-0.46 24.90-0.43Q24.54-0.41 24.25-0.36L24.25-0.36L24.25 3.05ZM38.82-2.52L38.82-2.52Q38.82-1.66 38.26-1.15Q37.71-0.65 36.94-0.65L36.94-0.65Q36.18-0.65 35.64-1.15Q35.10-1.66 35.10-2.52L35.10-2.52Q35.10-3.41 35.64-3.91Q36.18-4.42 36.94-4.42L36.94-4.42Q37.71-4.42 38.26-3.91Q38.82-3.41 38.82-2.52ZM42.82 9.14L43.21 11.52Q42.30 11.95 41.49 12.11Q40.69 12.26 40.02 12.26L40.02 12.26Q38.86 12.26 38.08 11.93Q37.30 11.59 36.84 10.96Q36.37 10.32 36.18 9.41Q35.98 8.50 35.98 7.32L35.98 7.32L35.98 3.17L32.86 3.17L32.86 0.72L38.94 0.72L38.94 7.70Q38.94 8.71 39.31 9.20Q39.68 9.70 40.54 9.70L40.54 9.70Q40.95 9.70 41.53 9.59Q42.10 9.48 42.82 9.14L42.82 9.14ZM45.06 6.36L45.06 6.36Q45.06 5.14 45.44 4.06Q45.82 2.98 46.62 2.17Q47.41 1.37 48.62 0.90Q49.83 0.43 51.51 0.43L51.51 0.43Q52.52 0.43 53.34 0.58Q54.15 0.72 54.99 1.06L54.99 1.06L54.34 3.43Q53.86 3.26 53.28 3.13Q52.69 3 51.78 3L51.78 3Q50.72 3 50.01 3.25Q49.30 3.50 48.87 3.95Q48.44 4.39 48.25 5.02Q48.06 5.64 48.06 6.36L48.06 6.36Q48.06 7.92 48.93 8.81Q49.81 9.70 51.92 9.70L51.92 9.70Q52.62 9.70 53.37 9.60Q54.13 9.50 54.75 9.29L54.75 9.29L55.18 11.71Q54.56 11.95 53.67 12.11Q52.78 12.26 51.58 12.26L51.58 12.26Q49.86 12.26 48.62 11.81Q47.38 11.35 46.59 10.56Q45.80 9.77 45.43 8.69Q45.06 7.61 45.06 6.36ZM56.74 6.46L56.74 6.46Q56.74 4.97 57.20 3.84Q57.66 2.71 58.40 1.96Q59.14 1.20 60.10 0.82Q61.06 0.43 62.07 0.43L62.07 0.43Q64.57 0.43 65.86 1.91Q67.16 3.38 67.16 6.22L67.16 6.22Q67.16 6.50 67.15 6.82Q67.14 7.13 67.11 7.32L67.11 7.32L59.79 7.32Q59.79 8.42 60.70 9.06Q61.62 9.70 63.06 9.70L63.06 9.70Q63.94 9.70 64.75 9.50Q65.55 9.31 66.10 9.12L66.10 9.12L66.51 11.64Q65.74 11.90 64.88 12.08Q64.02 12.26 62.94 12.26L62.94 12.26Q61.50 12.26 60.36 11.89Q59.22 11.52 58.41 10.79Q57.61 10.06 57.18 8.98Q56.74 7.90 56.74 6.46ZM59.79 5.28L64.30 5.28Q64.30 4.82 64.18 4.40Q64.06 3.98 63.80 3.65Q63.54 3.31 63.13 3.11Q62.72 2.90 62.12 2.90L62.12 2.90Q61.54 2.90 61.12 3.10Q60.70 3.29 60.43 3.62Q60.15 3.96 60.00 4.39Q59.84 4.82 59.79 5.28L59.79 5.28ZM76.26 6.46L76.26 6.46Q76.26 4.94 75.66 3.97Q75.06 3 73.83 3L73.83 3Q73.50 3 73.11 3.04Q72.73 3.07 72.46 3.10L72.46 3.10L72.46 9.29Q72.75 9.48 73.23 9.60Q73.71 9.72 74.19 9.72L74.19 9.72Q75.25 9.72 75.75 8.87Q76.26 8.02 76.26 6.46ZM79.26 6.36L79.26 6.36Q79.26 7.66 78.97 8.75Q78.68 9.84 78.13 10.62Q77.58 11.40 76.74 11.83Q75.90 12.26 74.79 12.26L74.79 12.26Q73.66 12.26 72.46 11.71L72.46 11.71L72.46 15.96L69.51 15.96L69.51 1.08Q70.33 0.82 71.52 0.65Q72.70 0.48 73.86 0.48L73.86 0.48Q76.47 0.48 77.86 2.06Q79.26 3.65 79.26 6.36Z"/>
    </g>
</svg>