<?xml version="1.0" encoding="UTF-8"?>
<svg height="34" width="191.2" version="1.1" xmlns="http://www.w3.org/2000/svg">
    <rect
        height="32"
        width="189.2"
        rx="14"
        ry="14"
        x="1"
        y="1"
        fill="#424893"
        stroke="#13152a"
        stroke-width="1"
         />
    <g transform="translate(0, 14)">
        <path fill="#13152a" d="M14.26 2.32L14.26 2.32Q14.26 3.58 14.35 4.69Q14.45 5.79 14.75 6.60Q15.04 7.42 15.57 7.89Q16.10 8.37 17 8.37L17 8.37Q17.87 8.37 18.41 7.89Q18.96 7.42 19.25 6.59Q19.55 5.76 19.65 4.67Q19.74 3.58 19.74 2.32L19.74 2.32Q19.74 1.06 19.65-0.05Q19.55-1.15 19.25-1.96Q18.96-2.78 18.43-3.25Q17.90-3.73 17-3.73L17-3.73Q16.10-3.73 15.57-3.25Q15.04-2.78 14.75-1.95Q14.45-1.12 14.35-0.03Q14.26 1.06 14.26 2.32ZM10.76 2.32L10.76 2.32Q10.76-2.16 12.41-4.44Q14.06-6.72 17-6.72L17-6.72Q20.05-6.72 21.65-4.44Q23.24-2.16 23.24 2.32L23.24 2.32Q23.24 6.80 21.62 9.08Q20.00 11.36 17.03 11.36L17.03 11.36Q13.98 11.36 12.37 9.08Q10.76 6.80 10.76 2.32ZM33.66 4.34L33.66 4.34Q33.66 2.49 33.06 1.51Q32.46 0.53 31.22 0.53L31.22 0.53Q30.66 0.53 30.12 0.68Q29.57 0.84 29.18 1.06L29.18 1.06L29.18 8.20Q29.57 8.28 30.01 8.31Q30.44 8.34 30.75 8.34L30.75 8.34Q32.09 8.34 32.88 7.43Q33.66 6.52 33.66 4.34ZM37.16 4.42L37.16 4.42Q37.16 5.99 36.74 7.26Q36.32 8.54 35.51 9.43Q34.70 10.33 33.52 10.82Q32.34 11.31 30.83 11.31L30.83 11.31Q29.49 11.31 28.09 11.11Q26.69 10.92 25.74 10.61L25.74 10.61L25.74-7.84L29.18-8.43L29.18-1.85Q29.91-2.19 30.58-2.31Q31.25-2.44 31.92-2.44L31.92-2.44Q33.21-2.44 34.19-1.95Q35.17-1.46 35.83-0.55Q36.49 0.36 36.82 1.62Q37.16 2.88 37.16 4.42ZM49.20-2.16L49.20 10.13Q49.20 11.73 48.81 12.81Q48.42 13.88 47.73 14.54Q47.04 15.20 46.11 15.48Q45.17 15.76 44.08 15.76L44.08 15.76Q42.73 15.76 41.58 15.42Q40.44 15.09 39.37 14.56L39.37 14.56L40.44 11.64Q41.14 12.04 42.13 12.39Q43.12 12.74 43.94 12.74L43.94 12.74Q44.80 12.74 45.28 12.22Q45.76 11.70 45.76 10.30L45.76 10.30L45.76 0.70L40.44 0.70L40.44-2.16L49.20-2.16ZM48.78-5.94L48.78-5.94Q48.78-4.93 48.14-4.34Q47.49-3.76 46.60-3.76L46.60-3.76Q45.70-3.76 45.07-4.34Q44.44-4.93 44.44-5.94L44.44-5.94Q44.44-6.98 45.07-7.56Q45.70-8.15 46.60-8.15L46.60-8.15Q47.49-8.15 48.14-7.56Q48.78-6.98 48.78-5.94ZM52.87 4.53L52.87 4.53Q52.87 2.80 53.40 1.48Q53.93 0.16 54.80-0.72Q55.67-1.60 56.79-2.05Q57.91-2.50 59.08-2.50L59.08-2.50Q62.00-2.50 63.51-0.77Q65.02 0.95 65.02 4.25L65.02 4.25Q65.02 4.59 65.01 4.95Q64.99 5.32 64.96 5.54L64.96 5.54L56.42 5.54Q56.42 6.83 57.49 7.57Q58.55 8.31 60.23 8.31L60.23 8.31Q61.27 8.31 62.21 8.09Q63.14 7.86 63.79 7.64L63.79 7.64L64.26 10.58Q63.37 10.89 62.36 11.10Q61.35 11.31 60.09 11.31L60.09 11.31Q58.41 11.31 57.08 10.87Q55.75 10.44 54.81 9.59Q53.88 8.73 53.37 7.47Q52.87 6.21 52.87 4.53ZM56.42 3.16L61.69 3.16Q61.69 2.63 61.55 2.14Q61.41 1.65 61.10 1.26Q60.79 0.86 60.32 0.63Q59.84 0.39 59.14 0.39L59.14 0.39Q58.47 0.39 57.98 0.61Q57.49 0.84 57.17 1.23Q56.84 1.62 56.66 2.12Q56.48 2.63 56.42 3.16L56.42 3.16ZM67.23 4.42L67.23 4.42Q67.23 2.99 67.68 1.73Q68.13 0.47 69.05-0.47Q69.98-1.40 71.39-1.95Q72.80-2.50 74.76-2.50L74.76-2.50Q75.94-2.50 76.89-2.33Q77.84-2.16 78.82-1.77L78.82-1.77L78.07 1.00Q77.51 0.81 76.82 0.65Q76.14 0.50 75.07 0.50L75.07 0.50Q73.84 0.50 73.01 0.79Q72.19 1.09 71.68 1.61Q71.18 2.12 70.96 2.85Q70.73 3.58 70.73 4.42L70.73 4.42Q70.73 6.24 71.75 7.28Q72.78 8.31 75.24 8.31L75.24 8.31Q76.05 8.31 76.93 8.20Q77.82 8.09 78.54 7.84L78.54 7.84L79.05 10.66Q78.32 10.94 77.28 11.13Q76.25 11.31 74.85 11.31L74.85 11.31Q72.83 11.31 71.39 10.78Q69.95 10.24 69.02 9.32Q68.10 8.40 67.67 7.14Q67.23 5.88 67.23 4.42ZM84.00 6.10L84.00 0.70L81.01 0.70L81.01-2.16L84.00-2.16L84.00-5.46L87.45-6.02L87.45-2.16L92.96-2.16L92.96 0.70L87.45 0.70L87.45 6.02Q87.45 6.74 87.59 7.19Q87.73 7.64 87.98 7.89Q88.23 8.14 88.60 8.23Q88.96 8.31 89.41 8.31L89.41 8.31Q89.88 8.31 90.29 8.28Q90.70 8.26 91.07 8.19Q91.45 8.12 91.86 7.98Q92.26 7.84 92.74 7.61L92.74 7.61L93.22 10.58Q92.26 10.97 91.16 11.14Q90.05 11.31 89.02 11.31L89.02 11.31Q87.81 11.31 86.89 11.11Q85.96 10.92 85.32 10.36Q84.68 9.80 84.34 8.77Q84.00 7.75 84.00 6.10L84.00 6.10ZM100.50 8.48L100.50 8.48Q101.36 8.48 101.94 8.30Q102.51 8.12 102.85 7.79Q103.18 7.47 103.31 7.07Q103.44 6.66 103.44 6.24L103.44 6.24Q103.44 5.71 103.13 5.29Q102.82 4.87 102.34 4.55Q101.87 4.22 101.28 3.96Q100.69 3.69 100.10 3.47L100.10 3.47Q99.32 3.19 98.48 2.82Q97.64 2.46 96.95 1.90Q96.27 1.34 95.82 0.51Q95.37-0.31 95.37-1.54L95.37-1.54Q95.37-3.98 96.95-5.35Q98.54-6.72 101.31-6.72L101.31-6.72Q102.90-6.72 104.09-6.36Q105.28-6.00 106.10-5.55L106.10-5.55L105.09-2.89Q104.39-3.28 103.53-3.56Q102.68-3.84 101.56-3.84L101.56-3.84Q98.82-3.84 98.82-1.85L98.82-1.85Q98.82-1.35 99.10-0.97Q99.38-0.59 99.81-0.30Q100.24-0.00 100.79 0.22Q101.34 0.44 101.87 0.64L101.87 0.64Q102.68 0.95 103.56 1.33Q104.44 1.70 105.19 2.33Q105.93 2.96 106.40 3.90Q106.88 4.84 106.88 6.27L106.88 6.27Q106.88 8.70 105.30 10.03Q103.72 11.36 100.50 11.36L100.50 11.36Q98.34 11.36 97.05 10.90Q95.76 10.44 95.12 10.05L95.12 10.05L96.13 7.25Q96.88 7.70 97.93 8.09Q98.98 8.48 100.50 8.48ZM109.23 4.42L109.23 4.42Q109.23 2.99 109.68 1.73Q110.13 0.47 111.05-0.47Q111.98-1.40 113.39-1.95Q114.80-2.50 116.76-2.50L116.76-2.50Q117.94-2.50 118.89-2.33Q119.84-2.16 120.82-1.77L120.82-1.77L120.07 1.00Q119.51 0.81 118.82 0.65Q118.14 0.50 117.07 0.50L117.07 0.50Q115.84 0.50 115.01 0.79Q114.19 1.09 113.68 1.61Q113.18 2.12 112.96 2.85Q112.73 3.58 112.73 4.42L112.73 4.42Q112.73 6.24 113.75 7.28Q114.78 8.31 117.24 8.31L117.24 8.31Q118.05 8.31 118.93 8.20Q119.82 8.09 120.54 7.84L120.54 7.84L121.05 10.66Q120.32 10.94 119.28 11.13Q118.25 11.31 116.85 11.31L116.85 11.31Q114.83 11.31 113.39 10.78Q111.95 10.24 111.02 9.32Q110.10 8.40 109.67 7.14Q109.23 5.88 109.23 4.42ZM134.85-1.85L134.24 1.34Q133.90 1.26 133.44 1.17Q132.98 1.09 132.50 1.02Q132.02 0.95 131.58 0.92Q131.13 0.89 130.82 0.89L130.82 0.89Q130.09 0.89 129.39 0.96Q128.69 1.03 127.96 1.23L127.96 1.23L127.96 11L124.49 11L124.49-1.29Q125.86-1.80 127.31-2.10Q128.75-2.41 130.68-2.41L130.68-2.41Q130.96-2.41 131.48-2.38Q132.00-2.36 132.58-2.29Q133.17-2.22 133.77-2.12Q134.38-2.02 134.85-1.85L134.85-1.85ZM143.95-5.94L143.95-5.94Q143.95-4.93 143.31-4.34Q142.66-3.76 141.77-3.76L141.77-3.76Q140.87-3.76 140.24-4.34Q139.61-4.93 139.61-5.94L139.61-5.94Q139.61-6.98 140.24-7.56Q140.87-8.15 141.77-8.15L141.77-8.15Q142.66-8.15 143.31-7.56Q143.95-6.98 143.95-5.94ZM148.63 7.67L149.08 10.44Q148.01 10.94 147.07 11.13Q146.14 11.31 145.35 11.31L145.35 11.31Q144.01 11.31 143.10 10.92Q142.19 10.52 141.64 9.78Q141.10 9.04 140.87 7.98Q140.65 6.91 140.65 5.54L140.65 5.54L140.65 0.70L137.01 0.70L137.01-2.16L144.09-2.16L144.09 5.99Q144.09 7.16 144.53 7.74Q144.96 8.31 145.97 8.31L145.97 8.31Q146.44 8.31 147.12 8.19Q147.79 8.06 148.63 7.67L148.63 7.67ZM159.63 4.53L159.63 4.53Q159.63 2.77 158.93 1.63Q158.23 0.50 156.80 0.50L156.80 0.50Q156.41 0.50 155.96 0.54Q155.52 0.58 155.21 0.61L155.21 0.61L155.21 7.84Q155.54 8.06 156.10 8.20Q156.66 8.34 157.22 8.34L157.22 8.34Q158.46 8.34 159.04 7.35Q159.63 6.35 159.63 4.53ZM163.13 4.42L163.13 4.42Q163.13 5.93 162.80 7.21Q162.46 8.48 161.82 9.39Q161.17 10.30 160.19 10.80Q159.21 11.31 157.92 11.31L157.92 11.31Q156.61 11.31 155.21 10.66L155.21 10.66L155.21 15.62L151.76 15.62L151.76-1.74Q152.72-2.05 154.10-2.24Q155.49-2.44 156.83-2.44L156.83-2.44Q159.88-2.44 161.51-0.59Q163.13 1.26 163.13 4.42ZM168.00 6.10L168.00 0.70L165.01 0.70L165.01-2.16L168.00-2.16L168.00-5.46L171.45-6.02L171.45-2.16L176.96-2.16L176.96 0.70L171.45 0.70L171.45 6.02Q171.45 6.74 171.59 7.19Q171.73 7.64 171.98 7.89Q172.23 8.14 172.60 8.23Q172.96 8.31 173.41 8.31L173.41 8.31Q173.88 8.31 174.29 8.28Q174.70 8.26 175.07 8.19Q175.45 8.12 175.86 7.98Q176.26 7.84 176.74 7.61L176.74 7.61L177.22 10.58Q176.26 10.97 175.16 11.14Q174.05 11.31 173.02 11.31L173.02 11.31Q171.81 11.31 170.89 11.11Q169.96 10.92 169.32 10.36Q168.68 9.80 168.34 8.77Q168.00 7.75 168.00 6.10L168.00 6.10Z"/>
    </g>
</svg>