<?xml version="1.0" encoding="UTF-8"?>
<svg height="26" width="139.2" version="1.1" xmlns="http://www.w3.org/2000/svg"><!--Created by Josélio de S. C. Júnior - 2021 - https://github.com/joseliojunior -->
    <rect
        height="24"
        width="137.2"
        rx="12"
        ry="12"
        x="1" y="1"
        fill="#424893"
        stroke="#13152a"
        stroke-width="1" />
    <g transform="translate(0, 8)">
        <path fill="#13152a" stroke="none" d="M22.43 5.04L22.43 5.04Q22.43 5.76 22.49 6.39Q22.54 7.02 22.71 7.49Q22.88 7.95 23.18 8.22Q23.49 8.50 24 8.50L24 8.50Q24.50 8.50 24.81 8.22Q25.12 7.95 25.29 7.48Q25.46 7.01 25.51 6.38Q25.57 5.76 25.57 5.04L25.57 5.04Q25.57 4.32 25.51 3.69Q25.46 3.06 25.29 2.59Q25.12 2.13 24.82 1.86Q24.51 1.58 24 1.58L24 1.58Q23.49 1.58 23.18 1.86Q22.88 2.13 22.71 2.60Q22.54 3.07 22.49 3.70Q22.43 4.32 22.43 5.04ZM20.43 5.04L20.43 5.04Q20.43 2.48 21.38 1.18Q22.32-0.13 24-0.13L24-0.13Q25.74-0.13 26.66 1.18Q27.57 2.48 27.57 5.04L27.57 5.04Q27.57 7.60 26.64 8.90Q25.71 10.21 24.02 10.21L24.02 10.21Q22.27 10.21 21.35 8.90Q20.43 7.60 20.43 5.04ZM33.52 6.19L33.52 6.19Q33.52 5.14 33.18 4.58Q32.83 4.02 32.13 4.02L32.13 4.02Q31.81 4.02 31.50 4.10Q31.18 4.19 30.96 4.32L30.96 4.32L30.96 8.40Q31.18 8.45 31.43 8.46Q31.68 8.48 31.86 8.48L31.86 8.48Q32.62 8.48 33.07 7.96Q33.52 7.44 33.52 6.19ZM35.52 6.24L35.52 6.24Q35.52 7.14 35.28 7.86Q35.04 8.59 34.58 9.10Q34.11 9.62 33.44 9.90Q32.77 10.18 31.90 10.18L31.90 10.18Q31.14 10.18 30.34 10.06Q29.54 9.95 28.99 9.78L28.99 9.78L28.99-0.77L30.96-1.10L30.96 2.66Q31.38 2.46 31.76 2.39Q32.14 2.32 32.53 2.32L32.53 2.32Q33.26 2.32 33.82 2.60Q34.38 2.88 34.76 3.40Q35.14 3.92 35.33 4.64Q35.52 5.36 35.52 6.24ZM42.40 2.48L42.40 9.50Q42.40 10.42 42.18 11.03Q41.95 11.65 41.56 12.02Q41.17 12.40 40.63 12.56Q40.10 12.72 39.47 12.72L39.47 12.72Q38.70 12.72 38.05 12.53Q37.39 12.34 36.78 12.03L36.78 12.03L37.39 10.37Q37.79 10.59 38.36 10.79Q38.93 10.99 39.39 10.99L39.39 10.99Q39.89 10.99 40.16 10.70Q40.43 10.40 40.43 9.60L40.43 9.60L40.43 4.11L37.39 4.11L37.39 2.48L42.40 2.48ZM42.16 0.32L42.16 0.32Q42.16 0.90 41.79 1.23Q41.42 1.57 40.91 1.57L40.91 1.57Q40.40 1.57 40.04 1.23Q39.68 0.90 39.68 0.32L39.68 0.32Q39.68-0.27 40.04-0.61Q40.40-0.94 40.91-0.94L40.91-0.94Q41.42-0.94 41.79-0.61Q42.16-0.27 42.16 0.32ZM44.50 6.30L44.50 6.30Q44.50 5.31 44.80 4.56Q45.10 3.81 45.60 3.30Q46.10 2.80 46.74 2.54Q47.38 2.29 48.05 2.29L48.05 2.29Q49.71 2.29 50.58 3.27Q51.44 4.26 51.44 6.14L51.44 6.14Q51.44 6.34 51.43 6.54Q51.42 6.75 51.41 6.88L51.41 6.88L46.53 6.88Q46.53 7.62 47.14 8.04Q47.74 8.46 48.70 8.46L48.70 8.46Q49.30 8.46 49.83 8.34Q50.37 8.21 50.74 8.08L50.74 8.08L51.01 9.76Q50.50 9.94 49.92 10.06Q49.34 10.18 48.62 10.18L48.62 10.18Q47.66 10.18 46.90 9.93Q46.14 9.68 45.61 9.19Q45.07 8.70 44.78 7.98Q44.50 7.26 44.50 6.30ZM46.53 5.52L49.54 5.52Q49.54 5.22 49.46 4.94Q49.38 4.66 49.20 4.43Q49.02 4.21 48.75 4.07Q48.48 3.94 48.08 3.94L48.08 3.94Q47.70 3.94 47.42 4.06Q47.14 4.19 46.95 4.42Q46.77 4.64 46.66 4.93Q46.56 5.22 46.53 5.52L46.53 5.52ZM52.70 6.24L52.70 6.24Q52.70 5.42 52.96 4.70Q53.22 3.98 53.74 3.45Q54.27 2.91 55.08 2.60Q55.89 2.29 57.01 2.29L57.01 2.29Q57.68 2.29 58.22 2.38Q58.77 2.48 59.33 2.70L59.33 2.70L58.90 4.29Q58.58 4.18 58.18 4.09Q57.79 4 57.18 4L57.18 4Q56.48 4 56.01 4.17Q55.54 4.34 55.25 4.63Q54.96 4.93 54.83 5.34Q54.70 5.76 54.70 6.24L54.70 6.24Q54.70 7.28 55.29 7.87Q55.87 8.46 57.28 8.46L57.28 8.46Q57.74 8.46 58.25 8.40Q58.75 8.34 59.17 8.19L59.17 8.19L59.46 9.81Q59.04 9.97 58.45 10.07Q57.86 10.18 57.06 10.18L57.06 10.18Q55.90 10.18 55.08 9.87Q54.26 9.57 53.73 9.04Q53.20 8.51 52.95 7.79Q52.70 7.07 52.70 6.24ZM62.29 7.20L62.29 4.11L60.58 4.11L60.58 2.48L62.29 2.48L62.29 0.59L64.26 0.27L64.26 2.48L67.41 2.48L67.41 4.11L64.26 4.11L64.26 7.15Q64.26 7.57 64.34 7.82Q64.42 8.08 64.56 8.22Q64.70 8.37 64.91 8.42Q65.12 8.46 65.38 8.46L65.38 8.46Q65.65 8.46 65.88 8.45Q66.11 8.43 66.33 8.39Q66.54 8.35 66.78 8.27Q67.01 8.19 67.28 8.06L67.28 8.06L67.55 9.76Q67.01 9.98 66.38 10.08Q65.74 10.18 65.15 10.18L65.15 10.18Q64.46 10.18 63.94 10.06Q63.41 9.95 63.04 9.63Q62.67 9.31 62.48 8.73Q62.29 8.14 62.29 7.20L62.29 7.20ZM71.71 8.56L71.71 8.56Q72.21 8.56 72.54 8.46Q72.86 8.35 73.06 8.17Q73.25 7.98 73.32 7.75Q73.39 7.52 73.39 7.28L73.39 7.28Q73.39 6.98 73.22 6.74Q73.04 6.50 72.77 6.31Q72.50 6.13 72.16 5.98Q71.82 5.82 71.49 5.70L71.49 5.70Q71.04 5.54 70.56 5.33Q70.08 5.12 69.69 4.80Q69.30 4.48 69.04 4.01Q68.78 3.54 68.78 2.83L68.78 2.83Q68.78 1.44 69.69 0.66Q70.59-0.13 72.18-0.13L72.18-0.13Q73.09-0.13 73.77 0.08Q74.45 0.29 74.91 0.54L74.91 0.54L74.34 2.06Q73.94 1.84 73.45 1.68Q72.96 1.52 72.32 1.52L72.32 1.52Q70.75 1.52 70.75 2.66L70.75 2.66Q70.75 2.94 70.91 3.16Q71.07 3.38 71.32 3.54Q71.57 3.71 71.88 3.84Q72.19 3.97 72.50 4.08L72.50 4.08Q72.96 4.26 73.46 4.47Q73.97 4.69 74.39 5.05Q74.82 5.41 75.09 5.94Q75.36 6.48 75.36 7.30L75.36 7.30Q75.36 8.69 74.46 9.45Q73.55 10.21 71.71 10.21L71.71 10.21Q70.48 10.21 69.74 9.94Q69.01 9.68 68.64 9.46L68.64 9.46L69.22 7.86Q69.65 8.11 70.25 8.34Q70.85 8.56 71.71 8.56ZM76.70 6.24L76.70 6.24Q76.70 5.42 76.96 4.70Q77.22 3.98 77.74 3.45Q78.27 2.91 79.08 2.60Q79.89 2.29 81.01 2.29L81.01 2.29Q81.68 2.29 82.22 2.38Q82.77 2.48 83.33 2.70L83.33 2.70L82.90 4.29Q82.58 4.18 82.18 4.09Q81.79 4 81.18 4L81.18 4Q80.48 4 80.01 4.17Q79.54 4.34 79.25 4.63Q78.96 4.93 78.83 5.34Q78.70 5.76 78.70 6.24L78.70 6.24Q78.70 7.28 79.29 7.87Q79.87 8.46 81.28 8.46L81.28 8.46Q81.74 8.46 82.25 8.40Q82.75 8.34 83.17 8.19L83.17 8.19L83.46 9.81Q83.04 9.97 82.45 10.07Q81.86 10.18 81.06 10.18L81.06 10.18Q79.90 10.18 79.08 9.87Q78.26 9.57 77.73 9.04Q77.20 8.51 76.95 7.79Q76.70 7.07 76.70 6.24ZM91.34 2.66L90.99 4.48Q90.80 4.43 90.54 4.38Q90.27 4.34 90 4.30Q89.73 4.26 89.47 4.24Q89.22 4.22 89.04 4.22L89.04 4.22Q88.62 4.22 88.22 4.26Q87.82 4.30 87.41 4.42L87.41 4.42L87.41 10L85.42 10L85.42 2.98Q86.21 2.69 87.03 2.51Q87.86 2.34 88.96 2.34L88.96 2.34Q89.12 2.34 89.42 2.35Q89.71 2.37 90.05 2.41Q90.38 2.45 90.73 2.50Q91.07 2.56 91.34 2.66L91.34 2.66ZM96.54 0.32L96.54 0.32Q96.54 0.90 96.18 1.23Q95.81 1.57 95.30 1.57L95.30 1.57Q94.78 1.57 94.42 1.23Q94.06 0.90 94.06 0.32L94.06 0.32Q94.06-0.27 94.42-0.61Q94.78-0.94 95.30-0.94L95.30-0.94Q95.81-0.94 96.18-0.61Q96.54-0.27 96.54 0.32ZM99.22 8.10L99.47 9.68Q98.86 9.97 98.33 10.07Q97.79 10.18 97.34 10.18L97.34 10.18Q96.58 10.18 96.06 9.95Q95.54 9.73 95.22 9.30Q94.91 8.88 94.78 8.27Q94.66 7.66 94.66 6.88L94.66 6.88L94.66 4.11L92.58 4.11L92.58 2.48L96.62 2.48L96.62 7.14Q96.62 7.81 96.87 8.14Q97.12 8.46 97.70 8.46L97.70 8.46Q97.97 8.46 98.35 8.39Q98.74 8.32 99.22 8.10L99.22 8.10ZM105.50 6.30L105.50 6.30Q105.50 5.30 105.10 4.65Q104.70 4 103.89 4L103.89 4Q103.66 4 103.41 4.02Q103.15 4.05 102.98 4.06L102.98 4.06L102.98 8.19Q103.17 8.32 103.49 8.40Q103.81 8.48 104.13 8.48L104.13 8.48Q104.83 8.48 105.17 7.91Q105.50 7.34 105.50 6.30ZM107.50 6.24L107.50 6.24Q107.50 7.10 107.31 7.83Q107.12 8.56 106.75 9.08Q106.38 9.60 105.82 9.89Q105.26 10.18 104.53 10.18L104.53 10.18Q103.78 10.18 102.98 9.81L102.98 9.81L102.98 12.64L101.01 12.64L101.01 2.72Q101.55 2.54 102.34 2.43Q103.14 2.32 103.90 2.32L103.90 2.32Q105.65 2.32 106.58 3.38Q107.50 4.43 107.50 6.24ZM110.29 7.20L110.29 4.11L108.58 4.11L108.58 2.48L110.29 2.48L110.29 0.59L112.26 0.27L112.26 2.48L115.41 2.48L115.41 4.11L112.26 4.11L112.26 7.15Q112.26 7.57 112.34 7.82Q112.42 8.08 112.56 8.22Q112.70 8.37 112.91 8.42Q113.12 8.46 113.38 8.46L113.38 8.46Q113.65 8.46 113.88 8.45Q114.11 8.43 114.33 8.39Q114.54 8.35 114.78 8.27Q115.01 8.19 115.28 8.06L115.28 8.06L115.55 9.76Q115.01 9.98 114.38 10.08Q113.74 10.18 113.15 10.18L113.15 10.18Q112.46 10.18 111.94 10.06Q111.41 9.95 111.04 9.63Q110.67 9.31 110.48 8.73Q110.29 8.14 110.29 7.20L110.29 7.20Z"/>
    </g>
</svg>