<?xml version="1.0" encoding="UTF-8"?><svg height="34" width="187.2" version="1.1" xmlns="http://www.w3.org/2000/svg"><!--Created by Josélio de S. C. Júnior - 2021 - https://github.com/joseliojunior --><rect height="32" width="185.2" rx="1" ry="1" x="1" y="1" fill="#424893" stroke="#13152a" stroke-width="1" /><g transform="translate(0, 12)"><path fill="#13152a" d="M23.65 4.56L23.65 4.56Q23.65 5.64 23.73 6.59Q23.82 7.54 24.07 8.23Q24.32 8.93 24.78 9.34Q25.23 9.74 26 9.74L26 9.74Q26.74 9.74 27.21 9.34Q27.68 8.93 27.93 8.22Q28.18 7.51 28.27 6.58Q28.35 5.64 28.35 4.56L28.35 4.56Q28.35 3.48 28.27 2.53Q28.18 1.58 27.93 0.89Q27.68 0.19 27.22-0.22Q26.77-0.62 26-0.62L26-0.62Q25.23-0.62 24.78-0.22Q24.32 0.19 24.07 0.90Q23.82 1.61 23.73 2.54Q23.65 3.48 23.65 4.56ZM20.65 4.56L20.65 4.56Q20.65 0.72 22.06-1.24Q23.48-3.19 26-3.19L26-3.19Q28.62-3.19 29.98-1.24Q31.35 0.72 31.35 4.56L31.35 4.56Q31.35 8.40 29.96 10.36Q28.57 12.31 26.02 12.31L26.02 12.31Q23.41 12.31 22.03 10.36Q20.65 8.40 20.65 4.56ZM40.28 6.29L40.28 6.29Q40.28 4.70 39.76 3.86Q39.25 3.02 38.19 3.02L38.19 3.02Q37.71 3.02 37.24 3.16Q36.78 3.29 36.44 3.48L36.44 3.48L36.44 9.60Q36.78 9.67 37.15 9.70Q37.52 9.72 37.78 9.72L37.78 9.72Q38.94 9.72 39.61 8.94Q40.28 8.16 40.28 6.29ZM43.28 6.36L43.28 6.36Q43.28 7.70 42.92 8.80Q42.56 9.89 41.86 10.66Q41.17 11.42 40.16 11.84Q39.15 12.26 37.86 12.26L37.86 12.26Q36.70 12.26 35.50 12.10Q34.30 11.93 33.49 11.66L33.49 11.66L33.49-4.15L36.44-4.66L36.44 0.98Q37.06 0.70 37.64 0.59Q38.22 0.48 38.79 0.48L38.79 0.48Q39.90 0.48 40.74 0.90Q41.58 1.32 42.14 2.10Q42.70 2.88 42.99 3.96Q43.28 5.04 43.28 6.36ZM53.60 0.72L53.60 11.26Q53.60 12.62 53.26 13.55Q52.93 14.47 52.34 15.04Q51.75 15.60 50.95 15.84Q50.14 16.08 49.21 16.08L49.21 16.08Q48.06 16.08 47.07 15.79Q46.09 15.50 45.18 15.05L45.18 15.05L46.09 12.55Q46.69 12.89 47.54 13.19Q48.39 13.49 49.09 13.49L49.09 13.49Q49.83 13.49 50.24 13.04Q50.65 12.60 50.65 11.40L50.65 11.40L50.65 3.17L46.09 3.17L46.09 0.72L53.60 0.72ZM53.24-2.52L53.24-2.52Q53.24-1.66 52.69-1.15Q52.14-0.65 51.37-0.65L51.37-0.65Q50.60-0.65 50.06-1.15Q49.52-1.66 49.52-2.52L49.52-2.52Q49.52-3.41 50.06-3.91Q50.60-4.42 51.37-4.42L51.37-4.42Q52.14-4.42 52.69-3.91Q53.24-3.41 53.24-2.52ZM56.74 6.46L56.74 6.46Q56.74 4.97 57.20 3.84Q57.66 2.71 58.40 1.96Q59.14 1.20 60.10 0.82Q61.06 0.43 62.07 0.43L62.07 0.43Q64.57 0.43 65.86 1.91Q67.16 3.38 67.16 6.22L67.16 6.22Q67.16 6.50 67.15 6.82Q67.14 7.13 67.11 7.32L67.11 7.32L59.79 7.32Q59.79 8.42 60.70 9.06Q61.62 9.70 63.06 9.70L63.06 9.70Q63.94 9.70 64.75 9.50Q65.55 9.31 66.10 9.12L66.10 9.12L66.51 11.64Q65.74 11.90 64.88 12.08Q64.02 12.26 62.94 12.26L62.94 12.26Q61.50 12.26 60.36 11.89Q59.22 11.52 58.41 10.79Q57.61 10.06 57.18 8.98Q56.74 7.90 56.74 6.46ZM59.79 5.28L64.30 5.28Q64.30 4.82 64.18 4.40Q64.06 3.98 63.80 3.65Q63.54 3.31 63.13 3.11Q62.72 2.90 62.12 2.90L62.12 2.90Q61.54 2.90 61.12 3.10Q60.70 3.29 60.43 3.62Q60.15 3.96 60.00 4.39Q59.84 4.82 59.79 5.28L59.79 5.28ZM69.06 6.36L69.06 6.36Q69.06 5.14 69.44 4.06Q69.82 2.98 70.62 2.17Q71.41 1.37 72.62 0.90Q73.83 0.43 75.51 0.43L75.51 0.43Q76.52 0.43 77.34 0.58Q78.15 0.72 78.99 1.06L78.99 1.06L78.34 3.43Q77.86 3.26 77.28 3.13Q76.69 3 75.78 3L75.78 3Q74.72 3 74.01 3.25Q73.30 3.50 72.87 3.95Q72.44 4.39 72.25 5.02Q72.06 5.64 72.06 6.36L72.06 6.36Q72.06 7.92 72.93 8.81Q73.81 9.70 75.92 9.70L75.92 9.70Q76.62 9.70 77.37 9.60Q78.13 9.50 78.75 9.29L78.75 9.29L79.18 11.71Q78.56 11.95 77.67 12.11Q76.78 12.26 75.58 12.26L75.58 12.26Q73.86 12.26 72.62 11.81Q71.38 11.35 70.59 10.56Q69.80 9.77 69.43 8.69Q69.06 7.61 69.06 6.36ZM83.43 7.80L83.43 3.17L80.86 3.17L80.86 0.72L83.43 0.72L83.43-2.11L86.38-2.59L86.38 0.72L91.11 0.72L91.11 3.17L86.38 3.17L86.38 7.73Q86.38 8.35 86.50 8.74Q86.62 9.12 86.84 9.34Q87.06 9.55 87.37 9.62Q87.68 9.70 88.06 9.70L88.06 9.70Q88.47 9.70 88.82 9.67Q89.17 9.65 89.49 9.59Q89.82 9.53 90.16 9.41Q90.51 9.29 90.92 9.10L90.92 9.10L91.33 11.64Q90.51 11.98 89.56 12.12Q88.62 12.26 87.73 12.26L87.73 12.26Q86.70 12.26 85.90 12.10Q85.11 11.93 84.56 11.45Q84.01 10.97 83.72 10.09Q83.43 9.22 83.43 7.80L83.43 7.80ZM97.57 9.84L97.57 9.84Q98.31 9.84 98.80 9.68Q99.30 9.53 99.58 9.25Q99.87 8.98 99.98 8.63Q100.09 8.28 100.09 7.92L100.09 7.92Q100.09 7.46 99.82 7.10Q99.56 6.74 99.15 6.47Q98.74 6.19 98.24 5.96Q97.74 5.74 97.23 5.54L97.23 5.54Q96.56 5.30 95.84 4.99Q95.12 4.68 94.53 4.20Q93.94 3.72 93.56 3.01Q93.18 2.30 93.18 1.25L93.18 1.25Q93.18-0.84 94.53-2.02Q95.89-3.19 98.26-3.19L98.26-3.19Q99.63-3.19 100.65-2.88Q101.67-2.57 102.37-2.18L102.37-2.18L101.50 0.10Q100.90-0.24 100.17-0.48Q99.44-0.72 98.48-0.72L98.48-0.72Q96.13-0.72 96.13 0.98L96.13 0.98Q96.13 1.42 96.37 1.74Q96.61 2.06 96.98 2.32Q97.35 2.57 97.82 2.76Q98.29 2.95 98.74 3.12L98.74 3.12Q99.44 3.38 100.20 3.71Q100.95 4.03 101.59 4.57Q102.22 5.11 102.63 5.92Q103.04 6.72 103.04 7.94L103.04 7.94Q103.04 10.03 101.68 11.17Q100.33 12.31 97.57 12.31L97.57 12.31Q95.72 12.31 94.62 11.92Q93.51 11.52 92.96 11.18L92.96 11.18L93.82 8.78Q94.47 9.17 95.37 9.50Q96.27 9.84 97.57 9.84ZM105.06 6.36L105.06 6.36Q105.06 5.14 105.44 4.06Q105.82 2.98 106.62 2.17Q107.41 1.37 108.62 0.90Q109.83 0.43 111.51 0.43L111.51 0.43Q112.52 0.43 113.34 0.58Q114.15 0.72 114.99 1.06L114.99 1.06L114.34 3.43Q113.86 3.26 113.28 3.13Q112.69 3 111.78 3L111.78 3Q110.72 3 110.01 3.25Q109.30 3.50 108.87 3.95Q108.44 4.39 108.25 5.02Q108.06 5.64 108.06 6.36L108.06 6.36Q108.06 7.92 108.93 8.81Q109.81 9.70 111.92 9.70L111.92 9.70Q112.62 9.70 113.37 9.60Q114.13 9.50 114.75 9.29L114.75 9.29L115.18 11.71Q114.56 11.95 113.67 12.11Q112.78 12.26 111.58 12.26L111.58 12.26Q109.86 12.26 108.62 11.81Q107.38 11.35 106.59 10.56Q105.80 9.77 105.43 8.69Q105.06 7.61 105.06 6.36ZM127.02 0.98L126.49 3.72Q126.20 3.65 125.80 3.58Q125.41 3.50 125 3.44Q124.59 3.38 124.21 3.36Q123.82 3.34 123.56 3.34L123.56 3.34Q122.94 3.34 122.34 3.40Q121.74 3.46 121.11 3.62L121.11 3.62L121.11 12L118.14 12L118.14 1.46Q119.31 1.03 120.55 0.77Q121.78 0.50 123.44 0.50L123.44 0.50Q123.68 0.50 124.12 0.53Q124.57 0.55 125.07 0.61Q125.58 0.67 126.09 0.76Q126.61 0.84 127.02 0.98L127.02 0.98ZM134.82-2.52L134.82-2.52Q134.82-1.66 134.26-1.15Q133.71-0.65 132.94-0.65L132.94-0.65Q132.18-0.65 131.64-1.15Q131.10-1.66 131.10-2.52L131.10-2.52Q131.10-3.41 131.64-3.91Q132.18-4.42 132.94-4.42L132.94-4.42Q133.71-4.42 134.26-3.91Q134.82-3.41 134.82-2.52ZM138.82 9.14L139.21 11.52Q138.30 11.95 137.49 12.11Q136.69 12.26 136.02 12.26L136.02 12.26Q134.86 12.26 134.08 11.93Q133.30 11.59 132.84 10.96Q132.37 10.32 132.18 9.41Q131.98 8.50 131.98 7.32L131.98 7.32L131.98 3.17L128.86 3.17L128.86 0.72L134.94 0.72L134.94 7.70Q134.94 8.71 135.31 9.20Q135.68 9.70 136.54 9.70L136.54 9.70Q136.95 9.70 137.53 9.59Q138.10 9.48 138.82 9.14L138.82 9.14ZM148.26 6.46L148.26 6.46Q148.26 4.94 147.66 3.97Q147.06 3 145.83 3L145.83 3Q145.50 3 145.11 3.04Q144.73 3.07 144.46 3.10L144.46 3.10L144.46 9.29Q144.75 9.48 145.23 9.60Q145.71 9.72 146.19 9.72L146.19 9.72Q147.25 9.72 147.75 8.87Q148.26 8.02 148.26 6.46ZM151.26 6.36L151.26 6.36Q151.26 7.66 150.97 8.75Q150.68 9.84 150.13 10.62Q149.58 11.40 148.74 11.83Q147.90 12.26 146.79 12.26L146.79 12.26Q145.66 12.26 144.46 11.71L144.46 11.71L144.46 15.96L141.51 15.96L141.51 1.08Q142.33 0.82 143.52 0.65Q144.70 0.48 145.86 0.48L145.86 0.48Q148.47 0.48 149.86 2.06Q151.26 3.65 151.26 6.36ZM155.43 7.80L155.43 3.17L152.86 3.17L152.86 0.72L155.43 0.72L155.43-2.11L158.38-2.59L158.38 0.72L163.11 0.72L163.11 3.17L158.38 3.17L158.38 7.73Q158.38 8.35 158.50 8.74Q158.62 9.12 158.84 9.34Q159.06 9.55 159.37 9.62Q159.68 9.70 160.06 9.70L160.06 9.70Q160.47 9.70 160.82 9.67Q161.17 9.65 161.49 9.59Q161.82 9.53 162.16 9.41Q162.51 9.29 162.92 9.10L162.92 9.10L163.33 11.64Q162.51 11.98 161.56 12.12Q160.62 12.26 159.73 12.26L159.73 12.26Q158.70 12.26 157.90 12.10Q157.11 11.93 156.56 11.45Q156.01 10.97 155.72 10.09Q155.43 9.22 155.43 7.80L155.43 7.80Z"/></g></svg>