<?xml version="1.0" encoding="UTF-8"?>
<svg height="34" width="120.7" version="1.1" xmlns="http://www.w3.org/2000/svg">
    <rect
        height="32"
        width="118.7"
        rx="14"
        ry="14"
        x="1"
        y="1"
        fill="#990000"
        stroke="#ff3333"
        stroke-width="1"
         />
    <g transform="translate(0, 14)">
        <path fill="#ff3333" d="M22.71 11L19.94 11Q18.76 8.12 17.38 5.25Q15.99 2.38 14.40-0.51L14.40-0.51L14.40 11L11.29 11L11.29-6.33L14.06-6.33Q14.84-5.10 15.63-3.66Q16.41-2.22 17.15-0.79Q17.90 0.64 18.53 1.98Q19.16 3.33 19.60 4.34L19.60 4.34L19.60-6.33L22.71-6.33L22.71 11ZM24.87 4.53L24.87 4.53Q24.87 2.80 25.40 1.48Q25.93 0.16 26.80-0.72Q27.67-1.60 28.79-2.05Q29.91-2.50 31.08-2.50L31.08-2.50Q34.00-2.50 35.51-0.77Q37.02 0.95 37.02 4.25L37.02 4.25Q37.02 4.59 37.01 4.95Q36.99 5.32 36.96 5.54L36.96 5.54L28.42 5.54Q28.42 6.83 29.49 7.57Q30.55 8.31 32.23 8.31L32.23 8.31Q33.27 8.31 34.21 8.09Q35.14 7.86 35.79 7.64L35.79 7.64L36.26 10.58Q35.37 10.89 34.36 11.10Q33.35 11.31 32.09 11.31L32.09 11.31Q30.41 11.31 29.08 10.87Q27.75 10.44 26.81 9.59Q25.88 8.73 25.37 7.47Q24.87 6.21 24.87 4.53ZM28.42 3.16L33.69 3.16Q33.69 2.63 33.55 2.14Q33.41 1.65 33.10 1.26Q32.79 0.86 32.32 0.63Q31.84 0.39 31.14 0.39L31.14 0.39Q30.47 0.39 29.98 0.61Q29.49 0.84 29.17 1.23Q28.84 1.62 28.66 2.12Q28.48 2.63 28.42 3.16L28.42 3.16ZM45.03 8.54L45.03 8.54Q45.59 8.54 46.12 8.52Q46.65 8.51 47.04 8.45L47.04 8.45L47.04 5.43Q46.71 5.37 46.23 5.33Q45.76 5.29 45.36 5.29L45.36 5.29Q44.83 5.29 44.33 5.36Q43.82 5.43 43.45 5.60Q43.07 5.76 42.84 6.07Q42.62 6.38 42.62 6.88L42.62 6.88Q42.62 7.78 43.29 8.16Q43.96 8.54 45.03 8.54ZM44.72-2.50L44.72-2.50Q46.34-2.50 47.42-2.12Q48.50-1.74 49.14-1.05Q49.79-0.37 50.07 0.63Q50.35 1.62 50.35 2.85L50.35 2.85L50.35 10.69Q49.59 10.86 48.11 11.08Q46.62 11.31 44.78 11.31L44.78 11.31Q43.52 11.31 42.49 11.08Q41.47 10.86 40.74 10.34Q40.02 9.82 39.62 9.00Q39.23 8.17 39.23 6.97L39.23 6.97Q39.23 5.82 39.68 5.04Q40.13 4.25 40.88 3.78Q41.64 3.30 42.62 3.09Q43.60 2.88 44.66 2.88L44.66 2.88Q46.01 2.88 47.04 3.10L47.04 3.10L47.04 2.68Q47.04 1.70 46.43 1.05Q45.81 0.39 44.30 0.39L44.30 0.39Q43.32 0.39 42.41 0.53Q41.50 0.67 40.94 0.86L40.94 0.86L40.46-1.91Q41.11-2.13 42.28-2.31Q43.46-2.50 44.72-2.50ZM64.85-1.85L64.24 1.34Q63.90 1.26 63.44 1.17Q62.98 1.09 62.50 1.02Q62.02 0.95 61.58 0.92Q61.13 0.89 60.82 0.89L60.82 0.89Q60.09 0.89 59.39 0.96Q58.69 1.03 57.96 1.23L57.96 1.23L57.96 11L54.49 11L54.49-1.29Q55.86-1.80 57.31-2.10Q58.75-2.41 60.68-2.41L60.68-2.41Q60.96-2.41 61.48-2.38Q62.00-2.36 62.58-2.29Q63.17-2.22 63.77-2.12Q64.38-2.02 64.85-1.85L64.85-1.85ZM78.63 7.67L79.08 10.44Q78.99 10.50 78.70 10.64Q78.40 10.78 77.93 10.93Q77.45 11.08 76.77 11.20Q76.08 11.31 75.21 11.31L75.21 11.31Q72.83 11.31 71.74 9.89Q70.65 8.48 70.65 5.76L70.65 5.76L70.65-5.41L67.01-5.41L67.01-8.26L74.09-8.26L74.09 6.02Q74.09 7.36 74.62 7.84Q75.16 8.31 75.97 8.31L75.97 8.31Q77.00 8.31 77.70 8.03Q78.40 7.75 78.63 7.67L78.63 7.67ZM80.87 4.53L80.87 4.53Q80.87 2.80 81.40 1.48Q81.93 0.16 82.80-0.72Q83.67-1.60 84.79-2.05Q85.91-2.50 87.08-2.50L87.08-2.50Q90.00-2.50 91.51-0.77Q93.02 0.95 93.02 4.25L93.02 4.25Q93.02 4.59 93.01 4.95Q92.99 5.32 92.96 5.54L92.96 5.54L84.42 5.54Q84.42 6.83 85.49 7.57Q86.55 8.31 88.23 8.31L88.23 8.31Q89.27 8.31 90.21 8.09Q91.14 7.86 91.79 7.64L91.79 7.64L92.26 10.58Q91.37 10.89 90.36 11.10Q89.35 11.31 88.09 11.31L88.09 11.31Q86.41 11.31 85.08 10.87Q83.75 10.44 82.81 9.59Q81.88 8.73 81.37 7.47Q80.87 6.21 80.87 4.53ZM84.42 3.16L89.69 3.16Q89.69 2.63 89.55 2.14Q89.41 1.65 89.10 1.26Q88.79 0.86 88.32 0.63Q87.84 0.39 87.14 0.39L87.14 0.39Q86.47 0.39 85.98 0.61Q85.49 0.84 85.17 1.23Q84.84 1.62 84.66 2.12Q84.48 2.63 84.42 3.16L84.42 3.16ZM103.69-2.16L107.22-2.16Q106.68-0.31 106.19 1.47Q105.70 3.24 105.17 4.94Q104.64 6.63 104.04 8.26Q103.44 9.88 102.74 11.42L102.74 11.42Q102.20 12.54 101.69 13.35Q101.17 14.16 100.54 14.68Q99.91 15.20 99.14 15.45Q98.37 15.70 97.33 15.70L97.33 15.70Q96.46 15.70 95.75 15.56Q95.04 15.42 94.56 15.20L94.56 15.20L95.20 12.32Q95.76 12.57 96.20 12.67Q96.63 12.76 97.14 12.76L97.14 12.76Q98.14 12.76 98.76 12.09Q99.38 11.42 99.74 10.50L99.74 10.50Q98.51 8.03 97.28 4.85Q96.04 1.68 95.04-2.16L95.04-2.16L98.62-2.16Q98.87-1.12 99.19 0.05Q99.52 1.23 99.88 2.40Q100.24 3.58 100.65 4.71Q101.06 5.85 101.48 6.83L101.48 6.83Q101.76 5.85 102.06 4.71Q102.37 3.58 102.65 2.42Q102.93 1.26 103.20 0.08Q103.46-1.10 103.69-2.16L103.69-2.16Z"/>
    </g>
</svg>