<?xml version="1.0" encoding="UTF-8"?>
<svg height="34" width="177.1" version="1.1" xmlns="http://www.w3.org/2000/svg">
    <rect
        height="32"
        width="175.1"
        rx="14"
        ry="14"
        x="1"
        y="1"
        fill="#747faa"
        stroke="#323952"
        stroke-width="1"
         />
    <g transform="translate(0, 14)">
        <path fill="#323952" d="M22.71 11L19.94 11Q18.76 8.12 17.38 5.25Q15.99 2.38 14.40-0.51L14.40-0.51L14.40 11L11.29 11L11.29-6.33L14.06-6.33Q14.84-5.10 15.63-3.66Q16.41-2.22 17.15-0.79Q17.90 0.64 18.53 1.98Q19.16 3.33 19.60 4.34L19.60 4.34L19.60-6.33L22.71-6.33L22.71 11ZM24.87 4.53L24.87 4.53Q24.87 2.80 25.40 1.48Q25.93 0.16 26.80-0.72Q27.67-1.60 28.79-2.05Q29.91-2.50 31.08-2.50L31.08-2.50Q34.00-2.50 35.51-0.77Q37.02 0.95 37.02 4.25L37.02 4.25Q37.02 4.59 37.01 4.95Q36.99 5.32 36.96 5.54L36.96 5.54L28.42 5.54Q28.42 6.83 29.49 7.57Q30.55 8.31 32.23 8.31L32.23 8.31Q33.27 8.31 34.21 8.09Q35.14 7.86 35.79 7.64L35.79 7.64L36.26 10.58Q35.37 10.89 34.36 11.10Q33.35 11.31 32.09 11.31L32.09 11.31Q30.41 11.31 29.08 10.87Q27.75 10.44 26.81 9.59Q25.88 8.73 25.37 7.47Q24.87 6.21 24.87 4.53ZM28.42 3.16L33.69 3.16Q33.69 2.63 33.55 2.14Q33.41 1.65 33.10 1.26Q32.79 0.86 32.32 0.63Q31.84 0.39 31.14 0.39L31.14 0.39Q30.47 0.39 29.98 0.61Q29.49 0.84 29.17 1.23Q28.84 1.62 28.66 2.12Q28.48 2.63 28.42 3.16L28.42 3.16ZM42.00 6.10L42.00 0.70L39.01 0.70L39.01-2.16L42.00-2.16L42.00-5.46L45.45-6.02L45.45-2.16L50.96-2.16L50.96 0.70L45.45 0.70L45.45 6.02Q45.45 6.74 45.59 7.19Q45.73 7.64 45.98 7.89Q46.23 8.14 46.60 8.23Q46.96 8.31 47.41 8.31L47.41 8.31Q47.88 8.31 48.29 8.28Q48.70 8.26 49.07 8.19Q49.45 8.12 49.86 7.98Q50.26 7.84 50.74 7.61L50.74 7.61L51.22 10.58Q50.26 10.97 49.16 11.14Q48.05 11.31 47.02 11.31L47.02 11.31Q45.81 11.31 44.89 11.11Q43.96 10.92 43.32 10.36Q42.68 9.80 42.34 8.77Q42.00 7.75 42.00 6.10L42.00 6.10ZM64.88 8.14L64.88 11L53.99 11L53.99-6.33L57.46-6.33L57.46 8.14L64.88 8.14ZM73.95-5.94L73.95-5.94Q73.95-4.93 73.31-4.34Q72.66-3.76 71.77-3.76L71.77-3.76Q70.87-3.76 70.24-4.34Q69.61-4.93 69.61-5.94L69.61-5.94Q69.61-6.98 70.24-7.56Q70.87-8.15 71.77-8.15L71.77-8.15Q72.66-8.15 73.31-7.56Q73.95-6.98 73.95-5.94ZM78.63 7.67L79.08 10.44Q78.01 10.94 77.07 11.13Q76.14 11.31 75.35 11.31L75.35 11.31Q74.01 11.31 73.10 10.92Q72.19 10.52 71.64 9.78Q71.10 9.04 70.87 7.98Q70.65 6.91 70.65 5.54L70.65 5.54L70.65 0.70L67.01 0.70L67.01-2.16L74.09-2.16L74.09 5.99Q74.09 7.16 74.53 7.74Q74.96 8.31 75.97 8.31L75.97 8.31Q76.44 8.31 77.12 8.19Q77.79 8.06 78.63 7.67L78.63 7.67ZM81.76 11L81.76-1.74Q82.69-1.99 84.05-2.22Q85.40-2.44 87-2.44L87-2.44Q88.57-2.44 89.60-2.01Q90.64-1.57 91.24-0.77Q91.84 0.02 92.10 1.13Q92.35 2.24 92.35 3.58L92.35 3.58L92.35 11L88.90 11L88.90 4.03Q88.90 2.18 88.48 1.37Q88.06 0.56 86.78 0.56L86.78 0.56Q86.38 0.56 86.01 0.58Q85.63 0.61 85.21 0.67L85.21 0.67L85.21 11L81.76 11ZM98.20-2.16L101.11 1.96L103.80-2.16L107.30-2.16L103.04 4.17Q103.72 4.98 104.36 5.89Q105.00 6.80 105.59 7.72Q106.18 8.65 106.66 9.49Q107.13 10.33 107.47 11L107.47 11L103.88 11Q103.13 9.57 102.37 8.45Q101.62 7.33 100.94 6.44L100.94 6.44Q100.10 7.56 99.43 8.62Q98.76 9.68 98.06 11L98.06 11L94.56 11Q94.98 10.22 95.53 9.36Q96.07 8.51 96.67 7.63Q97.28 6.74 97.93 5.88Q98.59 5.01 99.21 4.22L99.21 4.22L94.59-2.16L98.20-2.16ZM109.12 5.06L109.12 2.24L113.52 2.24L113.52-2.64L116.48-2.64L116.48 2.24L120.88 2.24L120.88 5.06L116.48 5.06L116.48 9.94L113.52 9.94L113.52 5.06L109.12 5.06ZM134.88 11L123.76 11L123.76-6.33L134.26-6.33L134.26-3.48L127.21-3.48L127.21 0.42L133.34 0.42L133.34 3.27L127.21 3.27L127.21 8.14L134.88 8.14L134.88 11ZM141.99-6.53L141.99-6.53Q143.48-6.53 144.68-6.19Q145.88-5.86 146.75-5.16Q147.62-4.46 148.08-3.38Q148.54-2.30 148.54-0.84L148.54-0.84Q148.54 0.67 147.93 1.90Q147.31 3.13 145.88 3.78L145.88 3.78Q146.36 4.50 146.89 5.39Q147.42 6.27 147.93 7.23Q148.43 8.20 148.89 9.17Q149.36 10.13 149.69 11L149.69 11L146.08 11Q145.44 9.32 144.58 7.77Q143.73 6.21 142.75 4.62L142.75 4.62L140.96 4.62L140.96 11L137.51 11L137.51-6.08Q138.02-6.19 138.62-6.29Q139.22-6.39 139.84-6.43Q140.45-6.47 141.01-6.50Q141.57-6.53 141.99-6.53ZM145.04-0.87L145.04-0.87Q145.04-2.24 144.20-2.89Q143.36-3.53 141.99-3.53L141.99-3.53Q141.80-3.53 141.52-3.52Q141.24-3.50 140.96-3.45L140.96-3.45L140.96 1.76L141.71 1.76Q143.48 1.76 144.26 1.07Q145.04 0.39 145.04-0.87ZM163.13 5.76L163.13 5.76Q163.13 7.33 162.60 8.38Q162.07 9.43 161.16 10.06Q160.25 10.69 159.00 10.96Q157.76 11.22 156.33 11.22L156.33 11.22Q155.18 11.22 153.95 11.10Q152.72 10.97 151.51 10.72L151.51 10.72L151.51-6.11Q152.49-6.28 153.67-6.40Q154.84-6.53 155.99-6.53L155.99-6.53Q157.95-6.53 159.18-6.12Q160.42-5.72 161.12-5.06Q161.82-4.40 162.07-3.59Q162.32-2.78 162.32-1.96L162.32-1.96Q162.32-0.73 161.72 0.22Q161.12 1.17 160.11 1.73L160.11 1.73Q161.87 2.38 162.50 3.47Q163.13 4.56 163.13 5.76ZM156.80 3.41L154.96 3.41L154.96 8.12Q155.32 8.17 155.75 8.20Q156.19 8.23 156.61 8.23L156.61 8.23Q157.20 8.23 157.76 8.13Q158.32 8.03 158.75 7.77Q159.18 7.50 159.46 7.01Q159.74 6.52 159.74 5.76L159.74 5.76Q159.74 4.50 158.95 3.96Q158.15 3.41 156.80 3.41L156.80 3.41ZM154.96 0.56L156.30 0.56Q157.62 0.56 158.29-0.02Q158.96-0.59 158.96-1.60L158.96-1.60Q158.96-2.22 158.76-2.59Q158.57-2.97 158.23-3.18Q157.90-3.39 157.45-3.46Q157-3.53 156.52-3.53L156.52-3.53Q156.13-3.53 155.71-3.50Q155.29-3.48 154.96-3.42L154.96-3.42L154.96 0.56Z"/>
    </g>
</svg>