<?xml version="1.0" encoding="UTF-8"?>
<svg height="34" width="114.6" version="1.1" xmlns="http://www.w3.org/2000/svg">
    <rect
        height="32"
        width="112.6"
        rx="16"
        ry="16"
        x="1"
        y="1"
        fill="#ff7f7f"
        stroke="#b30000"
        stroke-width="1"
         />
    <g transform="translate(0, 12)">
        <path fill="#b30000" d="M25.14-3.02L25.14-3.02Q26.41-3.02 27.44-2.74Q28.47-2.45 29.22-1.85Q29.96-1.25 30.36-0.32Q30.75 0.60 30.75 1.85L30.75 1.85Q30.75 3.14 30.22 4.20Q29.70 5.26 28.47 5.81L28.47 5.81Q28.88 6.43 29.34 7.19Q29.79 7.94 30.22 8.77Q30.66 9.60 31.05 10.43Q31.45 11.26 31.74 12L31.74 12L28.64 12Q28.09 10.56 27.36 9.23Q26.62 7.90 25.78 6.53L25.78 6.53L24.25 6.53L24.25 12L21.30 12L21.30-2.64Q21.73-2.74 22.24-2.82Q22.76-2.90 23.29-2.94Q23.82-2.98 24.30-3Q24.78-3.02 25.14-3.02ZM27.75 1.82L27.75 1.82Q27.75 0.65 27.03 0.10Q26.31-0.46 25.14-0.46L25.14-0.46Q24.97-0.46 24.73-0.44Q24.49-0.43 24.25-0.38L24.25-0.38L24.25 4.08L24.90 4.08Q26.41 4.08 27.08 3.49Q27.75 2.90 27.75 1.82ZM32.74 6.46L32.74 6.46Q32.74 4.97 33.20 3.84Q33.66 2.71 34.40 1.96Q35.14 1.20 36.10 0.82Q37.06 0.43 38.07 0.43L38.07 0.43Q40.57 0.43 41.86 1.91Q43.16 3.38 43.16 6.22L43.16 6.22Q43.16 6.50 43.15 6.82Q43.14 7.13 43.11 7.32L43.11 7.32L35.79 7.32Q35.79 8.42 36.70 9.06Q37.62 9.70 39.06 9.70L39.06 9.70Q39.94 9.70 40.75 9.50Q41.55 9.31 42.10 9.12L42.10 9.12L42.51 11.64Q41.74 11.90 40.88 12.08Q40.02 12.26 38.94 12.26L38.94 12.26Q37.50 12.26 36.36 11.89Q35.22 11.52 34.41 10.79Q33.61 10.06 33.18 8.98Q32.74 7.90 32.74 6.46ZM35.79 5.28L40.30 5.28Q40.30 4.82 40.18 4.40Q40.06 3.98 39.80 3.65Q39.54 3.31 39.13 3.11Q38.72 2.90 38.12 2.90L38.12 2.90Q37.54 2.90 37.12 3.10Q36.70 3.29 36.43 3.62Q36.15 3.96 36.00 4.39Q35.84 4.82 35.79 5.28L35.79 5.28ZM45.51 12L45.51 1.08Q46.30 0.86 47.47 0.67Q48.63 0.48 50 0.48L50 0.48Q51.34 0.48 52.23 0.85Q53.12 1.22 53.64 1.91Q54.15 2.59 54.37 3.54Q54.58 4.49 54.58 5.64L54.58 5.64L54.58 12L51.63 12L51.63 6.02Q51.63 4.44 51.27 3.74Q50.91 3.05 49.81 3.05L49.81 3.05Q49.47 3.05 49.15 3.07Q48.82 3.10 48.46 3.14L48.46 3.14L48.46 12L45.51 12ZM60.46-4.30L63.61-4.30L63.61-2.71Q63.61-2.11 63.55-1.40Q63.49-0.70 63.38 0.05Q63.27 0.79 63.15 1.52Q63.03 2.26 62.91 2.88L62.91 2.88L61.18 2.88Q61.06 2.26 60.94 1.52Q60.82 0.79 60.72 0.05Q60.61-0.70 60.54-1.40Q60.46-2.11 60.46-2.71L60.46-2.71L60.46-4.30ZM73.38-3.02L73.38-3.02Q76.21-3.02 77.77-1.86Q79.33-0.70 79.33 1.94L79.33 1.94Q79.33 4.61 77.76 5.80Q76.18 6.98 73.30 6.98L73.30 6.98L72.25 6.98L72.25 12L69.30 12L69.30-2.66Q69.73-2.76 70.27-2.83Q70.81-2.90 71.36-2.94Q71.91-2.98 72.44-3Q72.97-3.02 73.38-3.02ZM73.71-0.46L73.71-0.46Q73.45-0.46 72.98-0.44Q72.51-0.43 72.25-0.38L72.25-0.38L72.25 4.42L73.45 4.42Q74.86 4.42 75.58 3.85Q76.30 3.29 76.30 1.92L76.30 1.92Q76.30 0.62 75.60 0.08Q74.89-0.46 73.71-0.46ZM88.30 0.72L91.33 0.72Q90.87 2.30 90.45 3.83Q90.03 5.35 89.58 6.80Q89.12 8.26 88.60 9.65Q88.09 11.04 87.49 12.36L87.49 12.36Q87.03 13.32 86.59 14.02Q86.14 14.71 85.60 15.16Q85.06 15.60 84.40 15.82Q83.74 16.03 82.86 16.03L82.86 16.03Q82.11 16.03 81.50 15.91Q80.89 15.79 80.48 15.60L80.48 15.60L81.03 13.13Q81.51 13.34 81.88 13.43Q82.26 13.51 82.69 13.51L82.69 13.51Q83.55 13.51 84.08 12.94Q84.61 12.36 84.92 11.57L84.92 11.57Q83.86 9.46 82.81 6.73Q81.75 4.01 80.89 0.72L80.89 0.72L83.96 0.72Q84.18 1.61 84.45 2.62Q84.73 3.62 85.04 4.63Q85.35 5.64 85.70 6.61Q86.05 7.58 86.41 8.42L86.41 8.42Q86.65 7.58 86.91 6.61Q87.18 5.64 87.42 4.64Q87.66 3.65 87.88 2.64Q88.11 1.63 88.30 0.72L88.30 0.72Z"/>
    </g>
</svg>