<?xml version="1.0" encoding="UTF-8"?>
<svg height="26" width="98.69999999999999" version="1.1" xmlns="http://www.w3.org/2000/svg"><!--Created by Josélio de S. C. Júnior - 2021 - https://github.com/joseliojunior -->
    <defs>
        <pattern id="pattern"
                x="1.5" y="3" width="3" height="6"
                patternUnits="userSpaceOnUse"
                patternTransform="rotate(45)" >
            <rect height="6" width="1" fill="#999999"/>
        </pattern>
    </defs>
    <rect
        height="24"
        width="96.69999999999999"
        rx="1"
        ry="1"
        x="1" y="1"
        fill="url(#pattern)"
        stroke="#000000"
        stroke-width="1" />
    <g transform="translate(0, 8)">
        <path fill="#ffffff" stroke="#000000" d="M22.43 5.04L22.43 5.04Q22.43 5.76 22.49 6.39Q22.54 7.02 22.71 7.49Q22.88 7.95 23.18 8.22Q23.49 8.50 24 8.50L24 8.50Q24.50 8.50 24.81 8.22Q25.12 7.95 25.29 7.48Q25.46 7.01 25.51 6.38Q25.57 5.76 25.57 5.04L25.57 5.04Q25.57 4.32 25.51 3.69Q25.46 3.06 25.29 2.59Q25.12 2.13 24.82 1.86Q24.51 1.58 24 1.58L24 1.58Q23.49 1.58 23.18 1.86Q22.88 2.13 22.71 2.60Q22.54 3.07 22.49 3.70Q22.43 4.32 22.43 5.04ZM20.43 5.04L20.43 5.04Q20.43 2.48 21.38 1.18Q22.32-0.13 24-0.13L24-0.13Q25.74-0.13 26.66 1.18Q27.57 2.48 27.57 5.04L27.57 5.04Q27.57 7.60 26.64 8.90Q25.71 10.21 24.02 10.21L24.02 10.21Q22.27 10.21 21.35 8.90Q20.43 7.60 20.43 5.04ZM33.52 6.19L33.52 6.19Q33.52 5.14 33.18 4.58Q32.83 4.02 32.13 4.02L32.13 4.02Q31.81 4.02 31.50 4.10Q31.18 4.19 30.96 4.32L30.96 4.32L30.96 8.40Q31.18 8.45 31.43 8.46Q31.68 8.48 31.86 8.48L31.86 8.48Q32.62 8.48 33.07 7.96Q33.52 7.44 33.52 6.19ZM35.52 6.24L35.52 6.24Q35.52 7.14 35.28 7.86Q35.04 8.59 34.58 9.10Q34.11 9.62 33.44 9.90Q32.77 10.18 31.90 10.18L31.90 10.18Q31.14 10.18 30.34 10.06Q29.54 9.95 28.99 9.78L28.99 9.78L28.99-0.77L30.96-1.10L30.96 2.66Q31.38 2.46 31.76 2.39Q32.14 2.32 32.53 2.32L32.53 2.32Q33.26 2.32 33.82 2.60Q34.38 2.88 34.76 3.40Q35.14 3.92 35.33 4.64Q35.52 5.36 35.52 6.24ZM42.40 2.48L42.40 9.50Q42.40 10.42 42.18 11.03Q41.95 11.65 41.56 12.02Q41.17 12.40 40.63 12.56Q40.10 12.72 39.47 12.72L39.47 12.72Q38.70 12.72 38.05 12.53Q37.39 12.34 36.78 12.03L36.78 12.03L37.39 10.37Q37.79 10.59 38.36 10.79Q38.93 10.99 39.39 10.99L39.39 10.99Q39.89 10.99 40.16 10.70Q40.43 10.40 40.43 9.60L40.43 9.60L40.43 4.11L37.39 4.11L37.39 2.48L42.40 2.48ZM42.16 0.32L42.16 0.32Q42.16 0.90 41.79 1.23Q41.42 1.57 40.91 1.57L40.91 1.57Q40.40 1.57 40.04 1.23Q39.68 0.90 39.68 0.32L39.68 0.32Q39.68-0.27 40.04-0.61Q40.40-0.94 40.91-0.94L40.91-0.94Q41.42-0.94 41.79-0.61Q42.16-0.27 42.16 0.32ZM46.83 1.74L46.83 8.40Q46.91 8.42 47.01 8.42Q47.10 8.42 47.18 8.42L47.18 8.42Q47.86 8.42 48.31 8.16Q48.77 7.90 49.05 7.46Q49.33 7.01 49.45 6.39Q49.57 5.78 49.57 5.04L49.57 5.04Q49.57 4.40 49.47 3.79Q49.38 3.18 49.14 2.72Q48.90 2.26 48.48 1.98Q48.06 1.70 47.41 1.70L47.41 1.70Q47.28 1.70 47.12 1.70Q46.96 1.71 46.83 1.74L46.83 1.74ZM51.57 5.04L51.57 5.04Q51.57 6.42 51.22 7.38Q50.88 8.35 50.27 8.96Q49.66 9.57 48.82 9.85Q47.98 10.13 46.98 10.13L46.98 10.13Q46.45 10.13 45.94 10.07Q45.44 10.02 44.86 9.89L44.86 9.89L44.86 0.22Q45.54 0.08 46.13 0.03Q46.72-0.02 47.23-0.02L47.23-0.02Q48.21-0.02 49.02 0.27Q49.82 0.56 50.38 1.18Q50.94 1.79 51.26 2.74Q51.57 3.70 51.57 5.04ZM59.01 2.48L59.01 9.74Q58.46 9.89 57.69 10.03Q56.91 10.18 56 10.18L56 10.18Q55.07 10.18 54.48 9.92Q53.89 9.66 53.54 9.19Q53.20 8.72 53.07 8.08Q52.94 7.44 52.94 6.67L52.94 6.67L52.94 2.48L54.91 2.48L54.91 6.42Q54.91 7.46 55.16 7.96Q55.41 8.46 56.13 8.46L56.13 8.46Q56.58 8.46 57.02 8.38L57.02 8.38L57.02 2.48L59.01 2.48ZM65.49 2.40L65.49 2.40Q66.11 2.40 66.51 2.59Q66.91 2.78 67.14 3.17Q67.38 3.55 67.46 4.14Q67.54 4.72 67.54 5.50L67.54 5.50L67.54 10L65.94 10L65.94 5.41Q65.94 4.96 65.88 4.69Q65.82 4.42 65.74 4.27Q65.65 4.13 65.53 4.08Q65.41 4.03 65.28 4.03L65.28 4.03Q65.14 4.03 64.98 4.06Q64.82 4.08 64.69 4.14L64.69 4.14Q64.74 4.45 64.77 4.82Q64.80 5.18 64.80 5.63L64.80 5.63L64.80 7.14L63.20 7.14L63.20 5.41Q63.20 4.64 63.05 4.34Q62.90 4.03 62.56 4.03L62.56 4.03Q62.46 4.03 62.33 4.05Q62.19 4.06 62.06 4.10L62.06 4.10L62.06 10L60.46 10L60.46 2.77Q61.09 2.59 61.70 2.50Q62.30 2.40 62.77 2.40L62.77 2.40Q63.18 2.40 63.51 2.50Q63.84 2.61 64.08 2.85L64.08 2.85Q64.35 2.67 64.72 2.54Q65.09 2.40 65.49 2.40ZM73.50 6.30L73.50 6.30Q73.50 5.30 73.10 4.65Q72.70 4 71.89 4L71.89 4Q71.66 4 71.41 4.02Q71.15 4.05 70.98 4.06L70.98 4.06L70.98 8.19Q71.17 8.32 71.49 8.40Q71.81 8.48 72.13 8.48L72.13 8.48Q72.83 8.48 73.17 7.91Q73.50 7.34 73.50 6.30ZM75.50 6.24L75.50 6.24Q75.50 7.10 75.31 7.83Q75.12 8.56 74.75 9.08Q74.38 9.60 73.82 9.89Q73.26 10.18 72.53 10.18L72.53 10.18Q71.78 10.18 70.98 9.81L70.98 9.81L70.98 12.64L69.01 12.64L69.01 2.72Q69.55 2.54 70.34 2.43Q71.14 2.32 71.90 2.32L71.90 2.32Q73.65 2.32 74.58 3.38Q75.50 4.43 75.50 6.24Z"/>
    </g>
</svg>