<?xml version="1.0" encoding="UTF-8"?>
<svg height="322" width="126.7" version="1.1" xmlns="http://www.w3.org/2000/svg"><!--Created by Josélio de S. C. Júnior - 2021 - https://github.com/joseliojunior -->
    <defs>
        <pattern id="pattern"
                x="1.5" y="3" width="3" height="6"
                patternUnits="userSpaceOnUse"
                patternTransform="rotate(45)" >
            <rect height="6" width="1" fill="#999999"/>
        </pattern>
    </defs>
    <rect
        height="32"
        width="124.7"
        rx="1"
        ry="1"
        x="1" y="1"
        fill="url(#pattern)"
        stroke="#000000"
        stroke-width="1" />
    <g transform="translate(0, 12)">
        <path fill="#ffffff" stroke="#000000" d="M23.65 4.56L23.65 4.56Q23.65 5.64 23.73 6.59Q23.82 7.54 24.07 8.23Q24.32 8.93 24.78 9.34Q25.23 9.74 26 9.74L26 9.74Q26.74 9.74 27.21 9.34Q27.68 8.93 27.93 8.22Q28.18 7.51 28.27 6.58Q28.35 5.64 28.35 4.56L28.35 4.56Q28.35 3.48 28.27 2.53Q28.18 1.58 27.93 0.89Q27.68 0.19 27.22-0.22Q26.77-0.62 26-0.62L26-0.62Q25.23-0.62 24.78-0.22Q24.32 0.19 24.07 0.90Q23.82 1.61 23.73 2.54Q23.65 3.48 23.65 4.56ZM20.65 4.56L20.65 4.56Q20.65 0.72 22.06-1.24Q23.48-3.19 26-3.19L26-3.19Q28.62-3.19 29.98-1.24Q31.35 0.72 31.35 4.56L31.35 4.56Q31.35 8.40 29.96 10.36Q28.57 12.31 26.02 12.31L26.02 12.31Q23.41 12.31 22.03 10.36Q20.65 8.40 20.65 4.56ZM40.28 6.29L40.28 6.29Q40.28 4.70 39.76 3.86Q39.25 3.02 38.19 3.02L38.19 3.02Q37.71 3.02 37.24 3.16Q36.78 3.29 36.44 3.48L36.44 3.48L36.44 9.60Q36.78 9.67 37.15 9.70Q37.52 9.72 37.78 9.72L37.78 9.72Q38.94 9.72 39.61 8.94Q40.28 8.16 40.28 6.29ZM43.28 6.36L43.28 6.36Q43.28 7.70 42.92 8.80Q42.56 9.89 41.86 10.66Q41.17 11.42 40.16 11.84Q39.15 12.26 37.86 12.26L37.86 12.26Q36.70 12.26 35.50 12.10Q34.30 11.93 33.49 11.66L33.49 11.66L33.49-4.15L36.44-4.66L36.44 0.98Q37.06 0.70 37.64 0.59Q38.22 0.48 38.79 0.48L38.79 0.48Q39.90 0.48 40.74 0.90Q41.58 1.32 42.14 2.10Q42.70 2.88 42.99 3.96Q43.28 5.04 43.28 6.36ZM53.60 0.72L53.60 11.26Q53.60 12.62 53.26 13.55Q52.93 14.47 52.34 15.04Q51.75 15.60 50.95 15.84Q50.14 16.08 49.21 16.08L49.21 16.08Q48.06 16.08 47.07 15.79Q46.09 15.50 45.18 15.05L45.18 15.05L46.09 12.55Q46.69 12.89 47.54 13.19Q48.39 13.49 49.09 13.49L49.09 13.49Q49.83 13.49 50.24 13.04Q50.65 12.60 50.65 11.40L50.65 11.40L50.65 3.17L46.09 3.17L46.09 0.72L53.60 0.72ZM53.24-2.52L53.24-2.52Q53.24-1.66 52.69-1.15Q52.14-0.65 51.37-0.65L51.37-0.65Q50.60-0.65 50.06-1.15Q49.52-1.66 49.52-2.52L49.52-2.52Q49.52-3.41 50.06-3.91Q50.60-4.42 51.37-4.42L51.37-4.42Q52.14-4.42 52.69-3.91Q53.24-3.41 53.24-2.52ZM60.25-0.38L60.25 9.60Q60.37 9.62 60.51 9.62Q60.66 9.62 60.78 9.62L60.78 9.62Q61.78 9.62 62.47 9.24Q63.15 8.86 63.57 8.18Q63.99 7.51 64.17 6.59Q64.35 5.66 64.35 4.56L64.35 4.56Q64.35 3.60 64.21 2.69Q64.06 1.78 63.70 1.08Q63.34 0.38 62.72-0.04Q62.10-0.46 61.11-0.46L61.11-0.46Q60.92-0.46 60.68-0.44Q60.44-0.43 60.25-0.38L60.25-0.38ZM67.35 4.56L67.35 4.56Q67.35 6.62 66.84 8.08Q66.32 9.53 65.41 10.44Q64.50 11.35 63.24 11.77Q61.98 12.19 60.46 12.19L60.46 12.19Q59.67 12.19 58.92 12.11Q58.16 12.02 57.30 11.83L57.30 11.83L57.30-2.66Q58.30-2.88 59.19-2.95Q60.08-3.02 60.85-3.02L60.85-3.02Q62.31-3.02 63.52-2.59Q64.74-2.16 65.58-1.24Q66.42-0.31 66.88 1.12Q67.35 2.54 67.35 4.56ZM78.51 0.72L78.51 11.62Q77.70 11.83 76.53 12.05Q75.37 12.26 74 12.26L74 12.26Q72.61 12.26 71.72 11.88Q70.83 11.50 70.32 10.79Q69.80 10.08 69.61 9.12Q69.42 8.16 69.42 7.01L69.42 7.01L69.42 0.72L72.37 0.72L72.37 6.62Q72.37 8.18 72.74 8.94Q73.11 9.70 74.19 9.70L74.19 9.70Q74.86 9.70 75.54 9.58L75.54 9.58L75.54 0.72L78.51 0.72ZM88.23 0.60L88.23 0.60Q89.17 0.60 89.77 0.89Q90.37 1.18 90.72 1.75Q91.06 2.33 91.18 3.20Q91.30 4.08 91.30 5.26L91.30 5.26L91.30 12L88.90 12L88.90 5.11Q88.90 4.44 88.82 4.03Q88.74 3.62 88.60 3.41Q88.47 3.19 88.29 3.12Q88.11 3.05 87.92 3.05L87.92 3.05Q87.70 3.05 87.46 3.08Q87.22 3.12 87.03 3.22L87.03 3.22Q87.10 3.67 87.15 4.22Q87.20 4.78 87.20 5.45L87.20 5.45L87.20 7.70L84.80 7.70L84.80 5.11Q84.80 3.96 84.57 3.50Q84.34 3.05 83.84 3.05L83.84 3.05Q83.70 3.05 83.49 3.07Q83.29 3.10 83.10 3.14L83.10 3.14L83.10 12L80.70 12L80.70 1.15Q81.63 0.89 82.54 0.74Q83.46 0.60 84.15 0.60L84.15 0.60Q84.78 0.60 85.27 0.76Q85.76 0.91 86.12 1.27L86.12 1.27Q86.53 1.01 87.08 0.80Q87.63 0.60 88.23 0.60ZM100.26 6.46L100.26 6.46Q100.26 4.94 99.66 3.97Q99.06 3 97.83 3L97.83 3Q97.50 3 97.11 3.04Q96.73 3.07 96.46 3.10L96.46 3.10L96.46 9.29Q96.75 9.48 97.23 9.60Q97.71 9.72 98.19 9.72L98.19 9.72Q99.25 9.72 99.75 8.87Q100.26 8.02 100.26 6.46ZM103.26 6.36L103.26 6.36Q103.26 7.66 102.97 8.75Q102.68 9.84 102.13 10.62Q101.58 11.40 100.74 11.83Q99.90 12.26 98.79 12.26L98.79 12.26Q97.66 12.26 96.46 11.71L96.46 11.71L96.46 15.96L93.51 15.96L93.51 1.08Q94.33 0.82 95.52 0.65Q96.70 0.48 97.86 0.48L97.86 0.48Q100.47 0.48 101.86 2.06Q103.26 3.65 103.26 6.36Z"/>
    </g>
</svg>