<?xml version="1.0" encoding="UTF-8"?>
<svg height="34" width="134.8" version="1.1" xmlns="http://www.w3.org/2000/svg">
    <rect
        height="32"
        width="132.8"
        rx="1"
        ry="1"
        x="1"
        y="1"
        fill="#0000cc"
        stroke="#000033"
        stroke-width="1"
         />
    <g transform="translate(0, 14)">
        <path fill="#000033" d="M22.52 11L11.51 11L11.51 8.14L15.29 8.14L15.29-3.48L11.51-3.48L11.51-6.33L22.52-6.33L22.52-3.48L18.76-3.48L18.76 8.14L22.52 8.14L22.52 11ZM32.74-3.73L32.74-3.73Q31.50-3.73 30.66-3.28Q29.82-2.83 29.28-2.03Q28.73-1.24 28.49-0.13Q28.26 0.98 28.26 2.32L28.26 2.32Q28.26 5.43 29.24 6.90Q30.22 8.37 32.12 8.37L32.12 8.37Q32.43 8.37 32.79 8.34Q33.16 8.31 33.46 8.26L33.46 8.26L33.46 1.93L36.91 1.93L36.91 10.58Q36.29 10.80 34.99 11.08Q33.69 11.36 31.84 11.36L31.84 11.36Q30.22 11.36 28.91 10.79Q27.61 10.22 26.69 9.08Q25.76 7.95 25.26 6.25Q24.76 4.56 24.76 2.32L24.76 2.32Q24.76 0.11 25.34-1.59Q25.93-3.28 26.94-4.43Q27.95-5.58 29.32-6.15Q30.69-6.72 32.26-6.72L32.26-6.72Q33.27-6.72 34.07-6.57Q34.86-6.42 35.45-6.22Q36.04-6.02 36.42-5.80Q36.80-5.58 36.99-5.46L36.99-5.46L36.10-2.72Q35.48-3.11 34.58-3.42Q33.69-3.73 32.74-3.73ZM42.26 2.32L42.26 2.32Q42.26 3.58 42.35 4.69Q42.45 5.79 42.75 6.60Q43.04 7.42 43.57 7.89Q44.10 8.37 45 8.37L45 8.37Q45.87 8.37 46.41 7.89Q46.96 7.42 47.25 6.59Q47.55 5.76 47.65 4.67Q47.74 3.58 47.74 2.32L47.74 2.32Q47.74 1.06 47.65-0.05Q47.55-1.15 47.25-1.96Q46.96-2.78 46.43-3.25Q45.90-3.73 45-3.73L45-3.73Q44.10-3.73 43.57-3.25Q43.04-2.78 42.75-1.95Q42.45-1.12 42.35-0.03Q42.26 1.06 42.26 2.32ZM38.76 2.32L38.76 2.32Q38.76-2.16 40.41-4.44Q42.06-6.72 45-6.72L45-6.72Q48.05-6.72 49.65-4.44Q51.24-2.16 51.24 2.32L51.24 2.32Q51.24 6.80 49.62 9.08Q48.00 11.36 45.03 11.36L45.03 11.36Q41.98 11.36 40.37 9.08Q38.76 6.80 38.76 2.32ZM57.99-6.53L57.99-6.53Q59.48-6.53 60.68-6.19Q61.88-5.86 62.75-5.16Q63.62-4.46 64.08-3.38Q64.54-2.30 64.54-0.84L64.54-0.84Q64.54 0.67 63.93 1.90Q63.31 3.13 61.88 3.78L61.88 3.78Q62.36 4.50 62.89 5.39Q63.42 6.27 63.93 7.23Q64.43 8.20 64.89 9.17Q65.36 10.13 65.69 11L65.69 11L62.08 11Q61.44 9.32 60.58 7.77Q59.73 6.21 58.75 4.62L58.75 4.62L56.96 4.62L56.96 11L53.51 11L53.51-6.08Q54.02-6.19 54.62-6.29Q55.22-6.39 55.84-6.43Q56.45-6.47 57.01-6.50Q57.57-6.53 57.99-6.53ZM61.04-0.87L61.04-0.87Q61.04-2.24 60.20-2.89Q59.36-3.53 57.99-3.53L57.99-3.53Q57.80-3.53 57.52-3.52Q57.24-3.50 56.96-3.45L56.96-3.45L56.96 1.76L57.71 1.76Q59.48 1.76 60.26 1.07Q61.04 0.39 61.04-0.87ZM86.27-6.53L86.27-6.53Q89.58-6.53 91.40-5.17Q93.22-3.81 93.22-0.73L93.22-0.73Q93.22 2.38 91.38 3.76Q89.55 5.15 86.19 5.15L86.19 5.15L84.96 5.15L84.96 11L81.51 11L81.51-6.11Q82.02-6.22 82.65-6.30Q83.28-6.39 83.92-6.43Q84.56-6.47 85.18-6.50Q85.80-6.53 86.27-6.53ZM86.66-3.53L86.66-3.53Q86.36-3.53 85.81-3.52Q85.26-3.50 84.96-3.45L84.96-3.45L84.96 2.15L86.36 2.15Q88.01 2.15 88.85 1.49Q89.69 0.84 89.69-0.76L89.69-0.76Q89.69-2.27 88.86-2.90Q88.04-3.53 86.66-3.53ZM106.85-1.85L106.24 1.34Q105.90 1.26 105.44 1.17Q104.98 1.09 104.50 1.02Q104.02 0.95 103.58 0.92Q103.13 0.89 102.82 0.89L102.82 0.89Q102.09 0.89 101.39 0.96Q100.69 1.03 99.96 1.23L99.96 1.23L99.96 11L96.49 11L96.49-1.29Q97.86-1.80 99.31-2.10Q100.75-2.41 102.68-2.41L102.68-2.41Q102.96-2.41 103.48-2.38Q104.00-2.36 104.58-2.29Q105.17-2.22 105.77-2.12Q106.38-2.02 106.85-1.85L106.85-1.85ZM121.22 4.39L121.22 4.39Q121.22 5.96 120.77 7.23Q120.32 8.51 119.51 9.43Q118.70 10.36 117.56 10.86Q116.43 11.36 115.03 11.36L115.03 11.36Q113.63 11.36 112.49 10.86Q111.36 10.36 110.53 9.43Q109.71 8.51 109.26 7.23Q108.81 5.96 108.81 4.39L108.81 4.39Q108.81 2.85 109.27 1.58Q109.74 0.30 110.56-0.61Q111.39-1.52 112.54-2.01Q113.68-2.50 115.03-2.50L115.03-2.50Q116.40-2.50 117.53-2.01Q118.67-1.52 119.49-0.61Q120.32 0.30 120.77 1.58Q121.22 2.85 121.22 4.39ZM112.31 4.42L112.31 4.42Q112.31 6.18 112.94 7.28Q113.57 8.37 114.97 8.37L114.97 8.37Q116.32 8.37 117.00 7.28Q117.69 6.18 117.69 4.42L117.69 4.42Q117.69 2.66 117.06 1.58Q116.43 0.50 115.03 0.50L115.03 0.50Q113.68 0.50 113.00 1.58Q112.31 2.66 112.31 4.42Z"/>
    </g>
</svg>