<?xml version="1.0" encoding="UTF-8"?>
<svg height="26" width="179.7" version="1.1" xmlns="http://www.w3.org/2000/svg"><!--Created by Josélio de S. C. Júnior - 2021 - https://github.com/joseliojunior -->
    <rect
        height="24"
        width="177.7"
        rx="12"
        ry="12"
        x="1" y="1"
        fill="#945db7"
        stroke="#432654"
        stroke-width="1" />
    <g transform="translate(0, 8)">
        <path fill="#432654" stroke="none" d="M25.01 10L22.98 10Q22.59 8.90 22.16 7.50Q21.73 6.11 21.34 4.73Q20.96 3.34 20.66 2.11Q20.35 0.88 20.21 0.10L20.21 0.10L22.29 0.10Q22.38 0.86 22.58 1.88Q22.77 2.90 23 3.98Q23.23 5.06 23.50 6.10Q23.76 7.15 24.02 7.98L24.02 7.98Q24.27 7.17 24.53 6.12Q24.78 5.07 25.01 3.99Q25.23 2.91 25.42 1.89Q25.62 0.86 25.74 0.10L25.74 0.10L27.81 0.10Q27.62 1.06 27.34 2.24Q27.06 3.42 26.70 4.73Q26.34 6.03 25.90 7.38Q25.47 8.74 25.01 10L25.01 10ZM32.54 0.32L32.54 0.32Q32.54 0.90 32.18 1.23Q31.81 1.57 31.30 1.57L31.30 1.57Q30.78 1.57 30.42 1.23Q30.06 0.90 30.06 0.32L30.06 0.32Q30.06-0.27 30.42-0.61Q30.78-0.94 31.30-0.94L31.30-0.94Q31.81-0.94 32.18-0.61Q32.54-0.27 32.54 0.32ZM35.22 8.10L35.47 9.68Q34.86 9.97 34.33 10.07Q33.79 10.18 33.34 10.18L33.34 10.18Q32.58 10.18 32.06 9.95Q31.54 9.73 31.22 9.30Q30.91 8.88 30.78 8.27Q30.66 7.66 30.66 6.88L30.66 6.88L30.66 4.11L28.58 4.11L28.58 2.48L32.62 2.48L32.62 7.14Q32.62 7.81 32.87 8.14Q33.12 8.46 33.70 8.46L33.70 8.46Q33.97 8.46 34.35 8.39Q34.74 8.32 35.22 8.10L35.22 8.10ZM39.65 8.51L39.65 8.51Q40.37 8.51 40.75 8.41Q41.14 8.30 41.14 7.98L41.14 7.98Q41.14 7.78 41.02 7.63Q40.90 7.49 40.68 7.38Q40.46 7.28 40.18 7.18Q39.90 7.09 39.60 6.99L39.60 6.99Q39.17 6.86 38.72 6.70Q38.27 6.53 37.90 6.27Q37.54 6.02 37.30 5.62Q37.06 5.23 37.06 4.64L37.06 4.64Q37.06 4.16 37.24 3.74Q37.42 3.31 37.82 2.98Q38.21 2.66 38.82 2.47Q39.42 2.29 40.27 2.29L40.27 2.29Q41.01 2.29 41.64 2.40Q42.27 2.51 42.74 2.72L42.74 2.72L42.43 4.38Q42.16 4.30 41.58 4.12Q41.01 3.94 40.29 3.94L40.29 3.94Q39.54 3.94 39.27 4.12Q39.01 4.30 39.01 4.51L39.01 4.51Q39.01 4.69 39.13 4.82Q39.25 4.96 39.45 5.07Q39.65 5.18 39.91 5.29Q40.18 5.39 40.48 5.49L40.48 5.49Q40.91 5.63 41.38 5.81Q41.84 5.98 42.22 6.25Q42.59 6.51 42.83 6.92Q43.07 7.33 43.07 7.92L43.07 7.92Q43.07 8.38 42.90 8.80Q42.72 9.22 42.31 9.52Q41.90 9.82 41.25 10Q40.59 10.18 39.63 10.18L39.63 10.18Q38.66 10.18 37.97 9.95Q37.28 9.73 36.86 9.55L36.86 9.55L37.17 7.90Q37.73 8.13 38.36 8.32Q38.99 8.51 39.65 8.51ZM51.01 2.48L51.01 9.74Q50.46 9.89 49.69 10.03Q48.91 10.18 48 10.18L48 10.18Q47.07 10.18 46.48 9.92Q45.89 9.66 45.54 9.19Q45.20 8.72 45.07 8.08Q44.94 7.44 44.94 6.67L44.94 6.67L44.94 2.48L46.91 2.48L46.91 6.42Q46.91 7.46 47.16 7.96Q47.41 8.46 48.13 8.46L48.13 8.46Q48.58 8.46 49.02 8.38L49.02 8.38L49.02 2.48L51.01 2.48ZM56.02 8.59L56.02 8.59Q56.34 8.59 56.64 8.58Q56.94 8.58 57.17 8.54L57.17 8.54L57.17 6.82Q56.98 6.78 56.70 6.76Q56.43 6.74 56.21 6.74L56.21 6.74Q55.90 6.74 55.62 6.78Q55.33 6.82 55.11 6.91Q54.90 7.01 54.77 7.18Q54.64 7.36 54.64 7.65L54.64 7.65Q54.64 8.16 55.02 8.38Q55.41 8.59 56.02 8.59ZM55.84 2.29L55.84 2.29Q56.77 2.29 57.38 2.50Q58 2.72 58.37 3.11Q58.74 3.50 58.90 4.07Q59.06 4.64 59.06 5.34L59.06 5.34L59.06 9.82Q58.62 9.92 57.78 10.05Q56.93 10.18 55.87 10.18L55.87 10.18Q55.15 10.18 54.57 10.05Q53.98 9.92 53.57 9.62Q53.15 9.33 52.93 8.86Q52.70 8.38 52.70 7.70L52.70 7.70Q52.70 7.04 52.96 6.59Q53.22 6.14 53.65 5.87Q54.08 5.60 54.64 5.48Q55.20 5.36 55.81 5.36L55.81 5.36Q56.58 5.36 57.17 5.49L57.17 5.49L57.17 5.25Q57.17 4.69 56.82 4.31Q56.46 3.94 55.60 3.94L55.60 3.94Q55.04 3.94 54.52 4.02Q54 4.10 53.68 4.21L53.68 4.21L53.41 2.62Q53.78 2.50 54.45 2.39Q55.12 2.29 55.84 2.29ZM67.22 8.10L67.47 9.68Q67.42 9.71 67.26 9.79Q67.09 9.87 66.82 9.96Q66.54 10.05 66.15 10.11Q65.76 10.18 65.26 10.18L65.26 10.18Q63.90 10.18 63.28 9.37Q62.66 8.56 62.66 7.01L62.66 7.01L62.66 0.62L60.58 0.62L60.58-1.01L64.62-1.01L64.62 7.15Q64.62 7.92 64.93 8.19Q65.23 8.46 65.70 8.46L65.70 8.46Q66.29 8.46 66.69 8.30Q67.09 8.14 67.22 8.10L67.22 8.10ZM83.50 7.01L83.50 7.01Q83.50 7.90 83.20 8.50Q82.90 9.10 82.38 9.46Q81.86 9.82 81.14 9.98Q80.43 10.13 79.62 10.13L79.62 10.13Q78.96 10.13 78.26 10.06Q77.55 9.98 76.86 9.84L76.86 9.84L76.86 0.22Q77.42 0.13 78.10 0.06Q78.77-0.02 79.42-0.02L79.42-0.02Q80.54-0.02 81.25 0.22Q81.95 0.45 82.35 0.82Q82.75 1.20 82.90 1.66Q83.04 2.13 83.04 2.59L83.04 2.59Q83.04 3.30 82.70 3.84Q82.35 4.38 81.78 4.70L81.78 4.70Q82.78 5.07 83.14 5.70Q83.50 6.32 83.50 7.01ZM79.89 5.66L78.83 5.66L78.83 8.35Q79.04 8.38 79.29 8.40Q79.54 8.42 79.78 8.42L79.78 8.42Q80.11 8.42 80.43 8.36Q80.75 8.30 81 8.15Q81.25 8 81.41 7.72Q81.57 7.44 81.57 7.01L81.57 7.01Q81.57 6.29 81.11 5.98Q80.66 5.66 79.89 5.66L79.89 5.66ZM78.83 4.03L79.60 4.03Q80.35 4.03 80.74 3.70Q81.12 3.38 81.12 2.80L81.12 2.80Q81.12 2.45 81.01 2.23Q80.90 2.02 80.70 1.90Q80.51 1.78 80.26 1.74Q80 1.70 79.73 1.70L79.73 1.70Q79.50 1.70 79.26 1.71Q79.02 1.73 78.83 1.76L78.83 1.76L78.83 4.03ZM88.02 8.59L88.02 8.59Q88.34 8.59 88.64 8.58Q88.94 8.58 89.17 8.54L89.17 8.54L89.17 6.82Q88.98 6.78 88.70 6.76Q88.43 6.74 88.21 6.74L88.21 6.74Q87.90 6.74 87.62 6.78Q87.33 6.82 87.11 6.91Q86.90 7.01 86.77 7.18Q86.64 7.36 86.64 7.65L86.64 7.65Q86.64 8.16 87.02 8.38Q87.41 8.59 88.02 8.59ZM87.84 2.29L87.84 2.29Q88.77 2.29 89.38 2.50Q90 2.72 90.37 3.11Q90.74 3.50 90.90 4.07Q91.06 4.64 91.06 5.34L91.06 5.34L91.06 9.82Q90.62 9.92 89.78 10.05Q88.93 10.18 87.87 10.18L87.87 10.18Q87.15 10.18 86.57 10.05Q85.98 9.92 85.57 9.62Q85.15 9.33 84.93 8.86Q84.70 8.38 84.70 7.70L84.70 7.70Q84.70 7.04 84.96 6.59Q85.22 6.14 85.65 5.87Q86.08 5.60 86.64 5.48Q87.20 5.36 87.81 5.36L87.81 5.36Q88.58 5.36 89.17 5.49L89.17 5.49L89.17 5.25Q89.17 4.69 88.82 4.31Q88.46 3.94 87.60 3.94L87.60 3.94Q87.04 3.94 86.52 4.02Q86 4.10 85.68 4.21L85.68 4.21L85.41 2.62Q85.78 2.50 86.45 2.39Q87.12 2.29 87.84 2.29ZM95.65 8.51L95.65 8.51Q96.37 8.51 96.75 8.41Q97.14 8.30 97.14 7.98L97.14 7.98Q97.14 7.78 97.02 7.63Q96.90 7.49 96.68 7.38Q96.46 7.28 96.18 7.18Q95.90 7.09 95.60 6.99L95.60 6.99Q95.17 6.86 94.72 6.70Q94.27 6.53 93.90 6.27Q93.54 6.02 93.30 5.62Q93.06 5.23 93.06 4.64L93.06 4.64Q93.06 4.16 93.24 3.74Q93.42 3.31 93.82 2.98Q94.21 2.66 94.82 2.47Q95.42 2.29 96.27 2.29L96.27 2.29Q97.01 2.29 97.64 2.40Q98.27 2.51 98.74 2.72L98.74 2.72L98.43 4.38Q98.16 4.30 97.58 4.12Q97.01 3.94 96.29 3.94L96.29 3.94Q95.54 3.94 95.27 4.12Q95.01 4.30 95.01 4.51L95.01 4.51Q95.01 4.69 95.13 4.82Q95.25 4.96 95.45 5.07Q95.65 5.18 95.91 5.29Q96.18 5.39 96.48 5.49L96.48 5.49Q96.91 5.63 97.38 5.81Q97.84 5.98 98.22 6.25Q98.59 6.51 98.83 6.92Q99.07 7.33 99.07 7.92L99.07 7.92Q99.07 8.38 98.90 8.80Q98.72 9.22 98.31 9.52Q97.90 9.82 97.25 10Q96.59 10.18 95.63 10.18L95.63 10.18Q94.66 10.18 93.97 9.95Q93.28 9.73 92.86 9.55L92.86 9.55L93.17 7.90Q93.73 8.13 94.36 8.32Q94.99 8.51 95.65 8.51ZM104.54 0.32L104.54 0.32Q104.54 0.90 104.18 1.23Q103.81 1.57 103.30 1.57L103.30 1.57Q102.78 1.57 102.42 1.23Q102.06 0.90 102.06 0.32L102.06 0.32Q102.06-0.27 102.42-0.61Q102.78-0.94 103.30-0.94L103.30-0.94Q103.81-0.94 104.18-0.61Q104.54-0.27 104.54 0.32ZM107.22 8.10L107.47 9.68Q106.86 9.97 106.33 10.07Q105.79 10.18 105.34 10.18L105.34 10.18Q104.58 10.18 104.06 9.95Q103.54 9.73 103.22 9.30Q102.91 8.88 102.78 8.27Q102.66 7.66 102.66 6.88L102.66 6.88L102.66 4.11L100.58 4.11L100.58 2.48L104.62 2.48L104.62 7.14Q104.62 7.81 104.87 8.14Q105.12 8.46 105.70 8.46L105.70 8.46Q105.97 8.46 106.35 8.39Q106.74 8.32 107.22 8.10L107.22 8.10ZM108.70 6.24L108.70 6.24Q108.70 5.42 108.96 4.70Q109.22 3.98 109.74 3.45Q110.27 2.91 111.08 2.60Q111.89 2.29 113.01 2.29L113.01 2.29Q113.68 2.29 114.22 2.38Q114.77 2.48 115.33 2.70L115.33 2.70L114.90 4.29Q114.58 4.18 114.18 4.09Q113.79 4 113.18 4L113.18 4Q112.48 4 112.01 4.17Q111.54 4.34 111.25 4.63Q110.96 4.93 110.83 5.34Q110.70 5.76 110.70 6.24L110.70 6.24Q110.70 7.28 111.29 7.87Q111.87 8.46 113.28 8.46L113.28 8.46Q113.74 8.46 114.25 8.40Q114.75 8.34 115.17 8.19L115.17 8.19L115.46 9.81Q115.04 9.97 114.45 10.07Q113.86 10.18 113.06 10.18L113.06 10.18Q111.90 10.18 111.08 9.87Q110.26 9.57 109.73 9.04Q109.20 8.51 108.95 7.79Q108.70 7.07 108.70 6.24ZM129.44 8.74L129.44 8.74Q129.44 9.44 129.01 9.81Q128.58 10.18 128.02 10.18L128.02 10.18Q127.73 10.18 127.47 10.08Q127.22 9.98 127.02 9.80Q126.82 9.62 126.70 9.35Q126.58 9.09 126.58 8.74L126.58 8.74Q126.58 8.40 126.70 8.14Q126.82 7.87 127.02 7.70Q127.22 7.52 127.47 7.42Q127.73 7.33 128.02 7.33L128.02 7.33Q128.58 7.33 129.01 7.70Q129.44 8.06 129.44 8.74ZM139.26 10L137.68 10Q137.01 8.35 136.22 6.71Q135.42 5.07 134.51 3.42L134.51 3.42L134.51 10L132.74 10L132.74 0.10L134.32 0.10Q134.77 0.80 135.22 1.62Q135.66 2.45 136.09 3.26Q136.51 4.08 136.87 4.85Q137.23 5.62 137.49 6.19L137.49 6.19L137.49 0.10L139.26 0.10L139.26 10ZM147.36 10L141.01 10L141.01 0.10L147.01 0.10L147.01 1.73L142.98 1.73L142.98 3.95L146.48 3.95L146.48 5.58L142.98 5.58L142.98 8.37L147.36 8.37L147.36 10ZM148.40 0.10L155.60 0.10L155.60 1.73L152.99 1.73L152.99 10L151.01 10L151.01 1.73L148.40 1.73L148.40 0.10Z"/>
    </g>
</svg>