<?xml version="1.0" encoding="UTF-8"?><svg height="26" width="74.4" version="1.1" xmlns="http://www.w3.org/2000/svg"><!--Created by Josélio de S. C. Júnior - 2021 - https://github.com/joseliojunior --><rect height="24" width="72.4" rx="1" ry="1" x="1" y="1" fill="#2b2b2b" stroke="#787878" stroke-width="1" /><g transform="translate(0, 8)"><path fill="#787878" d="M23.71 8.56L23.71 8.56Q24.21 8.56 24.54 8.46Q24.86 8.35 25.06 8.17Q25.25 7.98 25.32 7.75Q25.39 7.52 25.39 7.28L25.39 7.28Q25.39 6.98 25.22 6.74Q25.04 6.50 24.77 6.31Q24.50 6.13 24.16 5.98Q23.82 5.82 23.49 5.70L23.49 5.70Q23.04 5.54 22.56 5.33Q22.08 5.12 21.69 4.80Q21.30 4.48 21.04 4.01Q20.78 3.54 20.78 2.83L20.78 2.83Q20.78 1.44 21.69 0.66Q22.59-0.13 24.18-0.13L24.18-0.13Q25.09-0.13 25.77 0.08Q26.45 0.29 26.91 0.54L26.91 0.54L26.34 2.06Q25.94 1.84 25.45 1.68Q24.96 1.52 24.32 1.52L24.32 1.52Q22.75 1.52 22.75 2.66L22.75 2.66Q22.75 2.94 22.91 3.16Q23.07 3.38 23.32 3.54Q23.57 3.71 23.88 3.84Q24.19 3.97 24.50 4.08L24.50 4.08Q24.96 4.26 25.46 4.47Q25.97 4.69 26.39 5.05Q26.82 5.41 27.09 5.94Q27.36 6.48 27.36 7.30L27.36 7.30Q27.36 8.69 26.46 9.45Q25.55 10.21 23.71 10.21L23.71 10.21Q22.48 10.21 21.74 9.94Q21.01 9.68 20.64 9.46L20.64 9.46L21.22 7.86Q21.65 8.11 22.25 8.34Q22.85 8.56 23.71 8.56ZM35.22 8.10L35.47 9.68Q35.42 9.71 35.26 9.79Q35.09 9.87 34.82 9.96Q34.54 10.05 34.15 10.11Q33.76 10.18 33.26 10.18L33.26 10.18Q31.90 10.18 31.28 9.37Q30.66 8.56 30.66 7.01L30.66 7.01L30.66 0.62L28.58 0.62L28.58-1.01L32.62-1.01L32.62 7.15Q32.62 7.92 32.93 8.19Q33.23 8.46 33.70 8.46L33.70 8.46Q34.29 8.46 34.69 8.30Q35.09 8.14 35.22 8.10L35.22 8.10ZM40.54 0.32L40.54 0.32Q40.54 0.90 40.18 1.23Q39.81 1.57 39.30 1.57L39.30 1.57Q38.78 1.57 38.42 1.23Q38.06 0.90 38.06 0.32L38.06 0.32Q38.06-0.27 38.42-0.61Q38.78-0.94 39.30-0.94L39.30-0.94Q39.81-0.94 40.18-0.61Q40.54-0.27 40.54 0.32ZM43.22 8.10L43.47 9.68Q42.86 9.97 42.33 10.07Q41.79 10.18 41.34 10.18L41.34 10.18Q40.58 10.18 40.06 9.95Q39.54 9.73 39.22 9.30Q38.91 8.88 38.78 8.27Q38.66 7.66 38.66 6.88L38.66 6.88L38.66 4.11L36.58 4.11L36.58 2.48L40.62 2.48L40.62 7.14Q40.62 7.81 40.87 8.14Q41.12 8.46 41.70 8.46L41.70 8.46Q41.97 8.46 42.35 8.39Q42.74 8.32 43.22 8.10L43.22 8.10ZM49.49 2.40L49.49 2.40Q50.11 2.40 50.51 2.59Q50.91 2.78 51.14 3.17Q51.38 3.55 51.46 4.14Q51.54 4.72 51.54 5.50L51.54 5.50L51.54 10L49.94 10L49.94 5.41Q49.94 4.96 49.88 4.69Q49.82 4.42 49.74 4.27Q49.65 4.13 49.53 4.08Q49.41 4.03 49.28 4.03L49.28 4.03Q49.14 4.03 48.98 4.06Q48.82 4.08 48.69 4.14L48.69 4.14Q48.74 4.45 48.77 4.82Q48.80 5.18 48.80 5.63L48.80 5.63L48.80 7.14L47.20 7.14L47.20 5.41Q47.20 4.64 47.05 4.34Q46.90 4.03 46.56 4.03L46.56 4.03Q46.46 4.03 46.33 4.05Q46.19 4.06 46.06 4.10L46.06 4.10L46.06 10L44.46 10L44.46 2.77Q45.09 2.59 45.70 2.50Q46.30 2.40 46.77 2.40L46.77 2.40Q47.18 2.40 47.51 2.50Q47.84 2.61 48.08 2.85L48.08 2.85Q48.35 2.67 48.72 2.54Q49.09 2.40 49.49 2.40Z"/></g></svg>