<?xml version="1.0" encoding="UTF-8"?>
<svg height="34" width="90.4" version="1.1" xmlns="http://www.w3.org/2000/svg"><!--Created by Josélio de S. C. Júnior - 2021 - https://github.com/joseliojunior -->
    <rect
        height="32"
        width="88.4"
        rx="1"
        ry="1"
        x="1" y="1"
        fill="#2b2b2b"
        stroke="#787878"
        stroke-width="1" />
    <g transform="translate(0, 12)">
        <path fill="#787878" d="M25.57 9.84L25.57 9.84Q26.31 9.84 26.80 9.68Q27.30 9.53 27.58 9.25Q27.87 8.98 27.98 8.63Q28.09 8.28 28.09 7.92L28.09 7.92Q28.09 7.46 27.82 7.10Q27.56 6.74 27.15 6.47Q26.74 6.19 26.24 5.96Q25.74 5.74 25.23 5.54L25.23 5.54Q24.56 5.30 23.84 4.99Q23.12 4.68 22.53 4.20Q21.94 3.72 21.56 3.01Q21.18 2.30 21.18 1.25L21.18 1.25Q21.18-0.84 22.53-2.02Q23.89-3.19 26.26-3.19L26.26-3.19Q27.63-3.19 28.65-2.88Q29.67-2.57 30.37-2.18L30.37-2.18L29.50 0.10Q28.90-0.24 28.17-0.48Q27.44-0.72 26.48-0.72L26.48-0.72Q24.13-0.72 24.13 0.98L24.13 0.98Q24.13 1.42 24.37 1.74Q24.61 2.06 24.98 2.32Q25.35 2.57 25.82 2.76Q26.29 2.95 26.74 3.12L26.74 3.12Q27.44 3.38 28.20 3.71Q28.95 4.03 29.59 4.57Q30.22 5.11 30.63 5.92Q31.04 6.72 31.04 7.94L31.04 7.94Q31.04 10.03 29.68 11.17Q28.33 12.31 25.57 12.31L25.57 12.31Q23.72 12.31 22.62 11.92Q21.51 11.52 20.96 11.18L20.96 11.18L21.82 8.78Q22.47 9.17 23.37 9.50Q24.27 9.84 25.57 9.84ZM42.82 9.14L43.21 11.52Q43.14 11.57 42.88 11.69Q42.63 11.81 42.22 11.94Q41.82 12.07 41.23 12.17Q40.64 12.26 39.90 12.26L39.90 12.26Q37.86 12.26 36.92 11.05Q35.98 9.84 35.98 7.51L35.98 7.51L35.98-2.06L32.86-2.06L32.86-4.51L38.94-4.51L38.94 7.73Q38.94 8.88 39.39 9.29Q39.85 9.70 40.54 9.70L40.54 9.70Q41.43 9.70 42.03 9.46Q42.63 9.22 42.82 9.14L42.82 9.14ZM50.82-2.52L50.82-2.52Q50.82-1.66 50.26-1.15Q49.71-0.65 48.94-0.65L48.94-0.65Q48.18-0.65 47.64-1.15Q47.10-1.66 47.10-2.52L47.10-2.52Q47.10-3.41 47.64-3.91Q48.18-4.42 48.94-4.42L48.94-4.42Q49.71-4.42 50.26-3.91Q50.82-3.41 50.82-2.52ZM54.82 9.14L55.21 11.52Q54.30 11.95 53.49 12.11Q52.69 12.26 52.02 12.26L52.02 12.26Q50.86 12.26 50.08 11.93Q49.30 11.59 48.84 10.96Q48.37 10.32 48.18 9.41Q47.98 8.50 47.98 7.32L47.98 7.32L47.98 3.17L44.86 3.17L44.86 0.72L50.94 0.72L50.94 7.70Q50.94 8.71 51.31 9.20Q51.68 9.70 52.54 9.70L52.54 9.70Q52.95 9.70 53.53 9.59Q54.10 9.48 54.82 9.14L54.82 9.14ZM64.23 0.60L64.23 0.60Q65.17 0.60 65.77 0.89Q66.37 1.18 66.72 1.75Q67.06 2.33 67.18 3.20Q67.30 4.08 67.30 5.26L67.30 5.26L67.30 12L64.90 12L64.90 5.11Q64.90 4.44 64.82 4.03Q64.74 3.62 64.60 3.41Q64.47 3.19 64.29 3.12Q64.11 3.05 63.92 3.05L63.92 3.05Q63.70 3.05 63.46 3.08Q63.22 3.12 63.03 3.22L63.03 3.22Q63.10 3.67 63.15 4.22Q63.20 4.78 63.20 5.45L63.20 5.45L63.20 7.70L60.80 7.70L60.80 5.11Q60.80 3.96 60.57 3.50Q60.34 3.05 59.84 3.05L59.84 3.05Q59.70 3.05 59.49 3.07Q59.29 3.10 59.10 3.14L59.10 3.14L59.10 12L56.70 12L56.70 1.15Q57.63 0.89 58.54 0.74Q59.46 0.60 60.15 0.60L60.15 0.60Q60.78 0.60 61.27 0.76Q61.76 0.91 62.12 1.27L62.12 1.27Q62.53 1.01 63.08 0.80Q63.63 0.60 64.23 0.60Z"/>
    </g>
</svg>