<?xml version="1.0" encoding="UTF-8"?>
<svg height="322" width="332.4" version="1.1" xmlns="http://www.w3.org/2000/svg"><!--Created by Josélio de S. C. Júnior - 2021 - https://github.com/joseliojunior -->
    <rect
        height="32"
        width="330.4"
        rx="16"
        ry="16"
        x="1" y="1"
        fill="#B5314C"
        stroke="#3c1019"
        stroke-width="1" />
    <g transform="translate(0, 12)">
        <path fill="#3c1019" stroke="none" d="M27.10 12.31L27.10 12.31Q23.96 12.31 22.30 10.30Q20.65 8.28 20.65 4.56L20.65 4.56Q20.65 2.71 21.15 1.27Q21.66-0.17 22.56-1.16Q23.46-2.16 24.69-2.68Q25.93-3.19 27.39-3.19L27.39-3.19Q28.18-3.19 28.82-3.06Q29.46-2.93 29.94-2.76Q30.42-2.59 30.74-2.40Q31.06-2.21 31.23-2.11L31.23-2.11L30.46 0.24Q29.91-0.12 29.13-0.37Q28.35-0.62 27.34-0.62L27.34-0.62Q26.65-0.62 25.99-0.37Q25.33-0.12 24.81 0.47Q24.30 1.06 23.97 2.04Q23.65 3.02 23.65 4.49L23.65 4.49Q23.65 7.03 24.52 8.39Q25.40 9.74 27.39 9.74L27.39 9.74Q28.54 9.74 29.30 9.48Q30.06 9.22 30.51 8.95L30.51 8.95L31.26 11.28Q30.63 11.66 29.56 11.99Q28.50 12.31 27.10 12.31ZM43.33 6.34L43.33 6.34Q43.33 7.68 42.94 8.77Q42.56 9.86 41.86 10.66Q41.17 11.45 40.20 11.88Q39.22 12.31 38.02 12.31L38.02 12.31Q36.82 12.31 35.85 11.88Q34.88 11.45 34.17 10.66Q33.46 9.86 33.08 8.77Q32.70 7.68 32.70 6.34L32.70 6.34Q32.70 5.02 33.09 3.92Q33.49 2.83 34.20 2.05Q34.90 1.27 35.89 0.85Q36.87 0.43 38.02 0.43L38.02 0.43Q39.20 0.43 40.17 0.85Q41.14 1.27 41.85 2.05Q42.56 2.83 42.94 3.92Q43.33 5.02 43.33 6.34ZM35.70 6.36L35.70 6.36Q35.70 7.87 36.24 8.81Q36.78 9.74 37.98 9.74L37.98 9.74Q39.13 9.74 39.72 8.81Q40.30 7.87 40.30 6.36L40.30 6.36Q40.30 4.85 39.76 3.92Q39.22 3 38.02 3L38.02 3Q36.87 3 36.28 3.92Q35.70 4.85 35.70 6.36ZM52.23 0.60L52.23 0.60Q53.17 0.60 53.77 0.89Q54.37 1.18 54.72 1.75Q55.06 2.33 55.18 3.20Q55.30 4.08 55.30 5.26L55.30 5.26L55.30 12L52.90 12L52.90 5.11Q52.90 4.44 52.82 4.03Q52.74 3.62 52.60 3.41Q52.47 3.19 52.29 3.12Q52.11 3.05 51.92 3.05L51.92 3.05Q51.70 3.05 51.46 3.08Q51.22 3.12 51.03 3.22L51.03 3.22Q51.10 3.67 51.15 4.22Q51.20 4.78 51.20 5.45L51.20 5.45L51.20 7.70L48.80 7.70L48.80 5.11Q48.80 3.96 48.57 3.50Q48.34 3.05 47.84 3.05L47.84 3.05Q47.70 3.05 47.49 3.07Q47.29 3.10 47.10 3.14L47.10 3.14L47.10 12L44.70 12L44.70 1.15Q45.63 0.89 46.54 0.74Q47.46 0.60 48.15 0.60L48.15 0.60Q48.78 0.60 49.27 0.76Q49.76 0.91 50.12 1.27L50.12 1.27Q50.53 1.01 51.08 0.80Q51.63 0.60 52.23 0.60ZM64.23 0.60L64.23 0.60Q65.17 0.60 65.77 0.89Q66.37 1.18 66.72 1.75Q67.06 2.33 67.18 3.20Q67.30 4.08 67.30 5.26L67.30 5.26L67.30 12L64.90 12L64.90 5.11Q64.90 4.44 64.82 4.03Q64.74 3.62 64.60 3.41Q64.47 3.19 64.29 3.12Q64.11 3.05 63.92 3.05L63.92 3.05Q63.70 3.05 63.46 3.08Q63.22 3.12 63.03 3.22L63.03 3.22Q63.10 3.67 63.15 4.22Q63.20 4.78 63.20 5.45L63.20 5.45L63.20 7.70L60.80 7.70L60.80 5.11Q60.80 3.96 60.57 3.50Q60.34 3.05 59.84 3.05L59.84 3.05Q59.70 3.05 59.49 3.07Q59.29 3.10 59.10 3.14L59.10 3.14L59.10 12L56.70 12L56.70 1.15Q57.63 0.89 58.54 0.74Q59.46 0.60 60.15 0.60L60.15 0.60Q60.78 0.60 61.27 0.76Q61.76 0.91 62.12 1.27L62.12 1.27Q62.53 1.01 63.08 0.80Q63.63 0.60 64.23 0.60ZM79.33 6.34L79.33 6.34Q79.33 7.68 78.94 8.77Q78.56 9.86 77.86 10.66Q77.17 11.45 76.20 11.88Q75.22 12.31 74.02 12.31L74.02 12.31Q72.82 12.31 71.85 11.88Q70.88 11.45 70.17 10.66Q69.46 9.86 69.08 8.77Q68.70 7.68 68.70 6.34L68.70 6.34Q68.70 5.02 69.09 3.92Q69.49 2.83 70.20 2.05Q70.90 1.27 71.89 0.85Q72.87 0.43 74.02 0.43L74.02 0.43Q75.20 0.43 76.17 0.85Q77.14 1.27 77.85 2.05Q78.56 2.83 78.94 3.92Q79.33 5.02 79.33 6.34ZM71.70 6.36L71.70 6.36Q71.70 7.87 72.24 8.81Q72.78 9.74 73.98 9.74L73.98 9.74Q75.13 9.74 75.72 8.81Q76.30 7.87 76.30 6.36L76.30 6.36Q76.30 4.85 75.76 3.92Q75.22 3 74.02 3L74.02 3Q72.87 3 72.28 3.92Q71.70 4.85 71.70 6.36ZM81.51 12L81.51 1.08Q82.30 0.86 83.47 0.67Q84.63 0.48 86 0.48L86 0.48Q87.34 0.48 88.23 0.85Q89.12 1.22 89.64 1.91Q90.15 2.59 90.37 3.54Q90.58 4.49 90.58 5.64L90.58 5.64L90.58 12L87.63 12L87.63 6.02Q87.63 4.44 87.27 3.74Q86.91 3.05 85.81 3.05L85.81 3.05Q85.47 3.05 85.15 3.07Q84.82 3.10 84.46 3.14L84.46 3.14L84.46 12L81.51 12ZM108.94 2.40L111.10 2.40Q111.20 2.86 111.39 3.53Q111.58 4.20 111.81 5.02Q112.04 5.83 112.32 6.77Q112.59 7.70 112.86 8.69L112.86 8.69Q112.86 7.44 112.83 6.01Q112.81 4.58 112.78 3.10Q112.76 1.61 112.74 0.08Q112.71-1.44 112.71-2.86L112.71-2.86L115.45-2.86Q115.38-1.03 115.30 0.90Q115.23 2.83 115.14 4.74Q115.04 6.65 114.91 8.50Q114.78 10.34 114.61 12L114.61 12L112.16 12Q111.63 10.49 111.10 8.75Q110.58 7.01 110.05 5.42L110.05 5.42Q109.52 6.94 108.94 8.71Q108.37 10.49 107.89 12L107.89 12L105.44 12Q105.25 10.34 105.10 8.48Q104.96 6.62 104.85 4.72Q104.74 2.81 104.67 0.88Q104.60-1.06 104.55-2.86L104.55-2.86L107.29-2.86Q107.26-1.44 107.24 0.07Q107.22 1.58 107.19 3.08Q107.17 4.58 107.14 6.01Q107.12 7.44 107.12 8.69L107.12 8.69Q107.34 7.92 107.61 7.01Q107.89 6.10 108.14 5.21Q108.39 4.32 108.61 3.58Q108.82 2.83 108.94 2.40L108.94 2.40ZM127.33 6.34L127.33 6.34Q127.33 7.68 126.94 8.77Q126.56 9.86 125.86 10.66Q125.17 11.45 124.20 11.88Q123.22 12.31 122.02 12.31L122.02 12.31Q120.82 12.31 119.85 11.88Q118.88 11.45 118.17 10.66Q117.46 9.86 117.08 8.77Q116.70 7.68 116.70 6.34L116.70 6.34Q116.70 5.02 117.09 3.92Q117.49 2.83 118.20 2.05Q118.90 1.27 119.89 0.85Q120.87 0.43 122.02 0.43L122.02 0.43Q123.20 0.43 124.17 0.85Q125.14 1.27 125.85 2.05Q126.56 2.83 126.94 3.92Q127.33 5.02 127.33 6.34ZM119.70 6.36L119.70 6.36Q119.70 7.87 120.24 8.81Q120.78 9.74 121.98 9.74L121.98 9.74Q123.13 9.74 123.72 8.81Q124.30 7.87 124.30 6.36L124.30 6.36Q124.30 4.85 123.76 3.92Q123.22 3 122.02 3L122.02 3Q120.87 3 120.28 3.92Q119.70 4.85 119.70 6.36ZM139.02 0.98L138.49 3.72Q138.20 3.65 137.80 3.58Q137.41 3.50 137 3.44Q136.59 3.38 136.21 3.36Q135.82 3.34 135.56 3.34L135.56 3.34Q134.94 3.34 134.34 3.40Q133.74 3.46 133.11 3.62L133.11 3.62L133.11 12L130.14 12L130.14 1.46Q131.31 1.03 132.55 0.77Q133.78 0.50 135.44 0.50L135.44 0.50Q135.68 0.50 136.12 0.53Q136.57 0.55 137.07 0.61Q137.58 0.67 138.09 0.76Q138.61 0.84 139.02 0.98L139.02 0.98ZM144.49-4.66L144.49 5.18Q144.92 4.68 145.36 4.12Q145.81 3.55 146.23 2.95Q146.65 2.35 147.03 1.79Q147.42 1.22 147.70 0.72L147.70 0.72L151.26 0.72Q150.82 1.27 150.27 1.92Q149.72 2.57 149.13 3.24Q148.54 3.91 147.96 4.54Q147.37 5.16 146.89 5.69L146.89 5.69Q147.49 6.26 148.18 7.07Q148.88 7.87 149.55 8.74Q150.22 9.60 150.79 10.46Q151.35 11.33 151.69 12L151.69 12L148.30 12Q148.02 11.40 147.55 10.64Q147.08 9.89 146.55 9.16Q146.02 8.42 145.48 7.76Q144.94 7.10 144.49 6.67L144.49 6.67L144.49 12L141.51 12L141.51-4.15L144.49-4.66ZM158.31 12L155.34 12L155.34 3.17L152.86 3.17L152.86 0.72L155.34 0.72L155.34 0.07Q155.34-1.30 155.73-2.20Q156.13-3.10 156.80-3.64Q157.47-4.18 158.34-4.40Q159.20-4.63 160.11-4.63L160.11-4.63Q161.05-4.63 162.03-4.46Q163.02-4.30 163.81-3.91L163.81-3.91L163.30-1.51Q162.75-1.70 161.92-1.91Q161.10-2.11 160.35-2.11L160.35-2.11Q159.94-2.11 159.57-2.04Q159.20-1.97 158.92-1.73Q158.65-1.49 158.48-1.04Q158.31-0.60 158.31 0.12L158.31 0.12L158.31 0.72L162.94 0.72L162.94 3.17L158.31 3.17L158.31 12ZM174.82 9.14L175.21 11.52Q175.14 11.57 174.88 11.69Q174.63 11.81 174.22 11.94Q173.82 12.07 173.23 12.17Q172.64 12.26 171.90 12.26L171.90 12.26Q169.86 12.26 168.92 11.05Q167.98 9.84 167.98 7.51L167.98 7.51L167.98-2.06L164.86-2.06L164.86-4.51L170.94-4.51L170.94 7.73Q170.94 8.88 171.39 9.29Q171.85 9.70 172.54 9.70L172.54 9.70Q173.43 9.70 174.03 9.46Q174.63 9.22 174.82 9.14L174.82 9.14ZM187.33 6.34L187.33 6.34Q187.33 7.68 186.94 8.77Q186.56 9.86 185.86 10.66Q185.17 11.45 184.20 11.88Q183.22 12.31 182.02 12.31L182.02 12.31Q180.82 12.31 179.85 11.88Q178.88 11.45 178.17 10.66Q177.46 9.86 177.08 8.77Q176.70 7.68 176.70 6.34L176.70 6.34Q176.70 5.02 177.09 3.92Q177.49 2.83 178.20 2.05Q178.90 1.27 179.89 0.85Q180.87 0.43 182.02 0.43L182.02 0.43Q183.20 0.43 184.17 0.85Q185.14 1.27 185.85 2.05Q186.56 2.83 186.94 3.92Q187.33 5.02 187.33 6.34ZM179.70 6.36L179.70 6.36Q179.70 7.87 180.24 8.81Q180.78 9.74 181.98 9.74L181.98 9.74Q183.13 9.74 183.72 8.81Q184.30 7.87 184.30 6.36L184.30 6.36Q184.30 4.85 183.76 3.92Q183.22 3 182.02 3L182.02 3Q180.87 3 180.28 3.92Q179.70 4.85 179.70 6.36ZM197.96 12L195.73 12Q195.46 11.26 195.24 10.63Q195.01 10.01 194.80 9.42Q194.60 8.83 194.40 8.20Q194.19 7.56 193.98 6.79L193.98 6.79Q193.74 7.56 193.54 8.17Q193.35 8.78 193.15 9.38Q192.94 9.98 192.73 10.61Q192.51 11.23 192.20 12L192.20 12L189.97 12Q189.68 10.94 189.43 9.66Q189.18 8.38 188.96 6.92Q188.74 5.47 188.58 3.91Q188.41 2.35 188.26 0.72L188.26 0.72L190.78 0.72Q190.88 2.81 190.99 4.80Q191.10 6.79 191.38 8.90L191.38 8.90Q191.70 7.99 191.92 7.21Q192.15 6.43 192.33 5.72Q192.51 5.02 192.67 4.36Q192.82 3.70 192.99 3L192.99 3L195.13 3Q195.27 3.70 195.43 4.36Q195.58 5.02 195.76 5.72Q195.94 6.43 196.15 7.21Q196.35 7.99 196.64 8.90L196.64 8.90Q196.78 7.80 196.88 6.79Q196.98 5.78 197.04 4.79Q197.10 3.79 197.13 2.80Q197.17 1.80 197.22 0.72L197.22 0.72L199.74 0.72Q199.47 4.01 199.00 6.91Q198.54 9.82 197.96 12L197.96 12ZM223.04 9.55L223.04 12L213.70 12L213.70-2.86L216.68-2.86L216.68 9.55L223.04 9.55ZM230.02 9.89L230.02 9.89Q230.50 9.89 230.96 9.88Q231.42 9.86 231.75 9.82L231.75 9.82L231.75 7.22Q231.46 7.18 231.06 7.14Q230.65 7.10 230.31 7.10L230.31 7.10Q229.86 7.10 229.42 7.16Q228.99 7.22 228.67 7.37Q228.34 7.51 228.15 7.78Q227.96 8.04 227.96 8.47L227.96 8.47Q227.96 9.24 228.54 9.56Q229.11 9.89 230.02 9.89ZM229.76 0.43L229.76 0.43Q231.15 0.43 232.08 0.76Q233 1.08 233.55 1.67Q234.10 2.26 234.34 3.11Q234.58 3.96 234.58 5.02L234.58 5.02L234.58 11.74Q233.94 11.88 232.66 12.07Q231.39 12.26 229.81 12.26L229.81 12.26Q228.73 12.26 227.85 12.07Q226.98 11.88 226.35 11.44Q225.73 10.99 225.39 10.28Q225.06 9.58 225.06 8.54L225.06 8.54Q225.06 7.56 225.44 6.89Q225.82 6.22 226.47 5.81Q227.12 5.40 227.96 5.22Q228.80 5.04 229.71 5.04L229.71 5.04Q230.86 5.04 231.75 5.23L231.75 5.23L231.75 4.87Q231.75 4.03 231.22 3.47Q230.70 2.90 229.40 2.90L229.40 2.90Q228.56 2.90 227.78 3.02Q227 3.14 226.52 3.31L226.52 3.31L226.11 0.94Q226.66 0.74 227.67 0.59Q228.68 0.43 229.76 0.43ZM237.51 12L237.51 1.08Q238.30 0.86 239.47 0.67Q240.63 0.48 242 0.48L242 0.48Q243.34 0.48 244.23 0.85Q245.12 1.22 245.64 1.91Q246.15 2.59 246.37 3.54Q246.58 4.49 246.58 5.64L246.58 5.64L246.58 12L243.63 12L243.63 6.02Q243.63 4.44 243.27 3.74Q242.91 3.05 241.81 3.05L241.81 3.05Q241.47 3.05 241.15 3.07Q240.82 3.10 240.46 3.14L240.46 3.14L240.46 12L237.51 12ZM251.79 6L251.79 6Q251.79 7.39 252.30 8.12Q252.80 8.86 253.88 8.86L253.88 8.86Q254.36 8.86 254.78 8.74Q255.20 8.62 255.54 8.42L255.54 8.42L255.54 3Q255.20 2.93 254.94 2.90Q254.67 2.88 254.38 2.88L254.38 2.88Q251.79 2.88 251.79 6ZM258.51 1.08L258.51 10.63Q258.51 13.39 257.18 14.71Q255.85 16.03 252.90 16.03L252.90 16.03Q251.84 16.03 250.87 15.82Q249.90 15.60 249.01 15.31L249.01 15.31L249.56 12.82Q250.26 13.08 251.02 13.31Q251.79 13.54 252.94 13.54L252.94 13.54Q253.71 13.54 254.22 13.36Q254.72 13.18 255.01 12.86Q255.30 12.55 255.42 12.13Q255.54 11.71 255.54 11.23L255.54 11.23L255.54 10.78Q254.91 11.02 254.40 11.14Q253.88 11.26 253.28 11.26L253.28 11.26Q251.07 11.26 249.93 9.86Q248.79 8.47 248.79 6L248.79 6Q248.79 3.22 250.33 1.85Q251.86 0.48 254.50 0.48L254.50 0.48Q256.35 0.48 258.51 1.08L258.51 1.08ZM270.51 0.72L270.51 11.62Q269.70 11.83 268.53 12.05Q267.37 12.26 266 12.26L266 12.26Q264.61 12.26 263.72 11.88Q262.83 11.50 262.32 10.79Q261.80 10.08 261.61 9.12Q261.42 8.16 261.42 7.01L261.42 7.01L261.42 0.72L264.37 0.72L264.37 6.62Q264.37 8.18 264.74 8.94Q265.11 9.70 266.19 9.70L266.19 9.70Q266.86 9.70 267.54 9.58L267.54 9.58L267.54 0.72L270.51 0.72ZM278.02 9.89L278.02 9.89Q278.50 9.89 278.96 9.88Q279.42 9.86 279.75 9.82L279.75 9.82L279.75 7.22Q279.46 7.18 279.06 7.14Q278.65 7.10 278.31 7.10L278.31 7.10Q277.86 7.10 277.42 7.16Q276.99 7.22 276.67 7.37Q276.34 7.51 276.15 7.78Q275.96 8.04 275.96 8.47L275.96 8.47Q275.96 9.24 276.54 9.56Q277.11 9.89 278.02 9.89ZM277.76 0.43L277.76 0.43Q279.15 0.43 280.08 0.76Q281 1.08 281.55 1.67Q282.10 2.26 282.34 3.11Q282.58 3.96 282.58 5.02L282.58 5.02L282.58 11.74Q281.94 11.88 280.66 12.07Q279.39 12.26 277.81 12.26L277.81 12.26Q276.73 12.26 275.85 12.07Q274.98 11.88 274.35 11.44Q273.73 10.99 273.39 10.28Q273.06 9.58 273.06 8.54L273.06 8.54Q273.06 7.56 273.44 6.89Q273.82 6.22 274.47 5.81Q275.12 5.40 275.96 5.22Q276.80 5.04 277.71 5.04L277.71 5.04Q278.86 5.04 279.75 5.23L279.75 5.23L279.75 4.87Q279.75 4.03 279.22 3.47Q278.70 2.90 277.40 2.90L277.40 2.90Q276.56 2.90 275.78 3.02Q275 3.14 274.52 3.31L274.52 3.31L274.11 0.94Q274.66 0.74 275.67 0.59Q276.68 0.43 277.76 0.43ZM287.79 6L287.79 6Q287.79 7.39 288.30 8.12Q288.80 8.86 289.88 8.86L289.88 8.86Q290.36 8.86 290.78 8.74Q291.20 8.62 291.54 8.42L291.54 8.42L291.54 3Q291.20 2.93 290.94 2.90Q290.67 2.88 290.38 2.88L290.38 2.88Q287.79 2.88 287.79 6ZM294.51 1.08L294.51 10.63Q294.51 13.39 293.18 14.71Q291.85 16.03 288.90 16.03L288.90 16.03Q287.84 16.03 286.87 15.82Q285.90 15.60 285.01 15.31L285.01 15.31L285.56 12.82Q286.26 13.08 287.02 13.31Q287.79 13.54 288.94 13.54L288.94 13.54Q289.71 13.54 290.22 13.36Q290.72 13.18 291.01 12.86Q291.30 12.55 291.42 12.13Q291.54 11.71 291.54 11.23L291.54 11.23L291.54 10.78Q290.91 11.02 290.40 11.14Q289.88 11.26 289.28 11.26L289.28 11.26Q287.07 11.26 285.93 9.86Q284.79 8.47 284.79 6L284.79 6Q284.79 3.22 286.33 1.85Q287.86 0.48 290.50 0.48L290.50 0.48Q292.35 0.48 294.51 1.08L294.51 1.08ZM296.74 6.46L296.74 6.46Q296.74 4.97 297.20 3.84Q297.66 2.71 298.40 1.96Q299.14 1.20 300.10 0.82Q301.06 0.43 302.07 0.43L302.07 0.43Q304.57 0.43 305.86 1.91Q307.16 3.38 307.16 6.22L307.16 6.22Q307.16 6.50 307.15 6.82Q307.14 7.13 307.11 7.32L307.11 7.32L299.79 7.32Q299.79 8.42 300.70 9.06Q301.62 9.70 303.06 9.70L303.06 9.70Q303.94 9.70 304.75 9.50Q305.55 9.31 306.10 9.12L306.10 9.12L306.51 11.64Q305.74 11.90 304.88 12.08Q304.02 12.26 302.94 12.26L302.94 12.26Q301.50 12.26 300.36 11.89Q299.22 11.52 298.41 10.79Q297.61 10.06 297.18 8.98Q296.74 7.90 296.74 6.46ZM299.79 5.28L304.30 5.28Q304.30 4.82 304.18 4.40Q304.06 3.98 303.80 3.65Q303.54 3.31 303.13 3.11Q302.72 2.90 302.12 2.90L302.12 2.90Q301.54 2.90 301.12 3.10Q300.70 3.29 300.43 3.62Q300.15 3.96 300.00 4.39Q299.84 4.82 299.79 5.28L299.79 5.28Z"/>
    </g>
</svg>