<?xml version="1.0" encoding="UTF-8"?><svg height="26" width="236.4" version="1.1" xmlns="http://www.w3.org/2000/svg"><!--Created by Josélio de S. C. Júnior - 2021 - https://github.com/joseliojunior --><rect height="24" width="234.4" rx="1" ry="1" x="1" y="1" fill="#B5314C" stroke="#3c1019" stroke-width="1" /><g transform="translate(0, 8)"><path fill="#3c1019" d="M24.74 10.21L24.74 10.21Q22.64 10.21 21.54 8.86Q20.43 7.52 20.43 5.04L20.43 5.04Q20.43 3.81 20.77 2.85Q21.10 1.89 21.70 1.22Q22.30 0.56 23.13 0.22Q23.95-0.13 24.93-0.13L24.93-0.13Q25.46-0.13 25.88-0.04Q26.30 0.05 26.62 0.16Q26.94 0.27 27.16 0.40Q27.38 0.53 27.49 0.59L27.49 0.59L26.98 2.16Q26.61 1.92 26.09 1.75Q25.57 1.58 24.90 1.58L24.90 1.58Q24.43 1.58 23.99 1.75Q23.55 1.92 23.21 2.31Q22.86 2.70 22.65 3.36Q22.43 4.02 22.43 4.99L22.43 4.99Q22.43 6.69 23.02 7.59Q23.60 8.50 24.93 8.50L24.93 8.50Q25.70 8.50 26.20 8.32Q26.70 8.14 27.01 7.97L27.01 7.97L27.50 9.52Q27.09 9.78 26.38 9.99Q25.66 10.21 24.74 10.21ZM35.55 6.22L35.55 6.22Q35.55 7.12 35.30 7.85Q35.04 8.58 34.58 9.10Q34.11 9.63 33.46 9.92Q32.82 10.21 32.02 10.21L32.02 10.21Q31.22 10.21 30.57 9.92Q29.92 9.63 29.45 9.10Q28.98 8.58 28.72 7.85Q28.46 7.12 28.46 6.22L28.46 6.22Q28.46 5.34 28.73 4.62Q28.99 3.89 29.46 3.37Q29.94 2.85 30.59 2.57Q31.25 2.29 32.02 2.29L32.02 2.29Q32.80 2.29 33.45 2.57Q34.10 2.85 34.57 3.37Q35.04 3.89 35.30 4.62Q35.55 5.34 35.55 6.22ZM30.46 6.24L30.46 6.24Q30.46 7.25 30.82 7.87Q31.18 8.50 31.98 8.50L31.98 8.50Q32.75 8.50 33.14 7.87Q33.54 7.25 33.54 6.24L33.54 6.24Q33.54 5.23 33.18 4.62Q32.82 4 32.02 4L32.02 4Q31.25 4 30.86 4.62Q30.46 5.23 30.46 6.24ZM41.49 2.40L41.49 2.40Q42.11 2.40 42.51 2.59Q42.91 2.78 43.14 3.17Q43.38 3.55 43.46 4.14Q43.54 4.72 43.54 5.50L43.54 5.50L43.54 10L41.94 10L41.94 5.41Q41.94 4.96 41.88 4.69Q41.82 4.42 41.74 4.27Q41.65 4.13 41.53 4.08Q41.41 4.03 41.28 4.03L41.28 4.03Q41.14 4.03 40.98 4.06Q40.82 4.08 40.69 4.14L40.69 4.14Q40.74 4.45 40.77 4.82Q40.80 5.18 40.80 5.63L40.80 5.63L40.80 7.14L39.20 7.14L39.20 5.41Q39.20 4.64 39.05 4.34Q38.90 4.03 38.56 4.03L38.56 4.03Q38.46 4.03 38.33 4.05Q38.19 4.06 38.06 4.10L38.06 4.10L38.06 10L36.46 10L36.46 2.77Q37.09 2.59 37.70 2.50Q38.30 2.40 38.77 2.40L38.77 2.40Q39.18 2.40 39.51 2.50Q39.84 2.61 40.08 2.85L40.08 2.85Q40.35 2.67 40.72 2.54Q41.09 2.40 41.49 2.40ZM49.49 2.40L49.49 2.40Q50.11 2.40 50.51 2.59Q50.91 2.78 51.14 3.17Q51.38 3.55 51.46 4.14Q51.54 4.72 51.54 5.50L51.54 5.50L51.54 10L49.94 10L49.94 5.41Q49.94 4.96 49.88 4.69Q49.82 4.42 49.74 4.27Q49.65 4.13 49.53 4.08Q49.41 4.03 49.28 4.03L49.28 4.03Q49.14 4.03 48.98 4.06Q48.82 4.08 48.69 4.14L48.69 4.14Q48.74 4.45 48.77 4.82Q48.80 5.18 48.80 5.63L48.80 5.63L48.80 7.14L47.20 7.14L47.20 5.41Q47.20 4.64 47.05 4.34Q46.90 4.03 46.56 4.03L46.56 4.03Q46.46 4.03 46.33 4.05Q46.19 4.06 46.06 4.10L46.06 4.10L46.06 10L44.46 10L44.46 2.77Q45.09 2.59 45.70 2.50Q46.30 2.40 46.77 2.40L46.77 2.40Q47.18 2.40 47.51 2.50Q47.84 2.61 48.08 2.85L48.08 2.85Q48.35 2.67 48.72 2.54Q49.09 2.40 49.49 2.40ZM59.55 6.22L59.55 6.22Q59.55 7.12 59.30 7.85Q59.04 8.58 58.58 9.10Q58.11 9.63 57.46 9.92Q56.82 10.21 56.02 10.21L56.02 10.21Q55.22 10.21 54.57 9.92Q53.92 9.63 53.45 9.10Q52.98 8.58 52.72 7.85Q52.46 7.12 52.46 6.22L52.46 6.22Q52.46 5.34 52.73 4.62Q52.99 3.89 53.46 3.37Q53.94 2.85 54.59 2.57Q55.25 2.29 56.02 2.29L56.02 2.29Q56.80 2.29 57.45 2.57Q58.10 2.85 58.57 3.37Q59.04 3.89 59.30 4.62Q59.55 5.34 59.55 6.22ZM54.46 6.24L54.46 6.24Q54.46 7.25 54.82 7.87Q55.18 8.50 55.98 8.50L55.98 8.50Q56.75 8.50 57.14 7.87Q57.54 7.25 57.54 6.24L57.54 6.24Q57.54 5.23 57.18 4.62Q56.82 4 56.02 4L56.02 4Q55.25 4 54.86 4.62Q54.46 5.23 54.46 6.24ZM61.01 10L61.01 2.72Q61.54 2.58 62.31 2.45Q63.09 2.32 64 2.32L64 2.32Q64.90 2.32 65.49 2.57Q66.08 2.82 66.42 3.27Q66.77 3.73 66.91 4.36Q67.06 4.99 67.06 5.76L67.06 5.76L67.06 10L65.09 10L65.09 6.02Q65.09 4.96 64.85 4.50Q64.61 4.03 63.87 4.03L63.87 4.03Q63.65 4.03 63.43 4.05Q63.22 4.06 62.98 4.10L62.98 4.10L62.98 10L61.01 10ZM79.30 3.60L80.74 3.60Q80.80 3.90 80.93 4.35Q81.06 4.80 81.21 5.34Q81.36 5.89 81.54 6.51Q81.73 7.14 81.90 7.79L81.90 7.79Q81.90 6.96 81.89 6.01Q81.87 5.06 81.86 4.06Q81.84 3.07 81.82 2.06Q81.81 1.04 81.81 0.10L81.81 0.10L83.63 0.10Q83.58 1.31 83.54 2.60Q83.49 3.89 83.42 5.16Q83.36 6.43 83.27 7.66Q83.18 8.90 83.07 10L83.07 10L81.44 10Q81.09 8.99 80.74 7.83Q80.38 6.67 80.03 5.62L80.03 5.62Q79.68 6.62 79.30 7.81Q78.91 8.99 78.59 10L78.59 10L76.96 10Q76.83 8.90 76.74 7.66Q76.64 6.42 76.57 5.14Q76.50 3.87 76.45 2.58Q76.40 1.30 76.37 0.10L76.37 0.10L78.19 0.10Q78.18 1.04 78.16 2.05Q78.14 3.06 78.13 4.06Q78.11 5.06 78.10 6.01Q78.08 6.96 78.08 7.79L78.08 7.79Q78.22 7.28 78.41 6.67Q78.59 6.06 78.76 5.47Q78.93 4.88 79.07 4.38Q79.22 3.89 79.30 3.60L79.30 3.60ZM91.55 6.22L91.55 6.22Q91.55 7.12 91.30 7.85Q91.04 8.58 90.58 9.10Q90.11 9.63 89.46 9.92Q88.82 10.21 88.02 10.21L88.02 10.21Q87.22 10.21 86.57 9.92Q85.92 9.63 85.45 9.10Q84.98 8.58 84.72 7.85Q84.46 7.12 84.46 6.22L84.46 6.22Q84.46 5.34 84.73 4.62Q84.99 3.89 85.46 3.37Q85.94 2.85 86.59 2.57Q87.25 2.29 88.02 2.29L88.02 2.29Q88.80 2.29 89.45 2.57Q90.10 2.85 90.57 3.37Q91.04 3.89 91.30 4.62Q91.55 5.34 91.55 6.22ZM86.46 6.24L86.46 6.24Q86.46 7.25 86.82 7.87Q87.18 8.50 87.98 8.50L87.98 8.50Q88.75 8.50 89.14 7.87Q89.54 7.25 89.54 6.24L89.54 6.24Q89.54 5.23 89.18 4.62Q88.82 4 88.02 4L88.02 4Q87.25 4 86.86 4.62Q86.46 5.23 86.46 6.24ZM99.34 2.66L98.99 4.48Q98.80 4.43 98.54 4.38Q98.27 4.34 98 4.30Q97.73 4.26 97.47 4.24Q97.22 4.22 97.04 4.22L97.04 4.22Q96.62 4.22 96.22 4.26Q95.82 4.30 95.41 4.42L95.41 4.42L95.41 10L93.42 10L93.42 2.98Q94.21 2.69 95.03 2.51Q95.86 2.34 96.96 2.34L96.96 2.34Q97.12 2.34 97.42 2.35Q97.71 2.37 98.05 2.41Q98.38 2.45 98.73 2.50Q99.07 2.56 99.34 2.66L99.34 2.66ZM102.99-1.10L102.99 5.46Q103.28 5.12 103.58 4.74Q103.87 4.37 104.15 3.97Q104.43 3.57 104.69 3.19Q104.94 2.82 105.14 2.48L105.14 2.48L107.50 2.48Q107.22 2.85 106.85 3.28Q106.48 3.71 106.09 4.16Q105.70 4.61 105.30 5.02Q104.91 5.44 104.59 5.79L104.59 5.79Q104.99 6.18 105.46 6.71Q105.92 7.25 106.37 7.82Q106.82 8.40 107.19 8.98Q107.57 9.55 107.79 10L107.79 10L105.54 10Q105.34 9.60 105.03 9.10Q104.72 8.59 104.37 8.10Q104.02 7.62 103.66 7.18Q103.30 6.74 102.99 6.45L102.99 6.45L102.99 10L101.01 10L101.01-0.77L102.99-1.10ZM112.21 10L110.22 10L110.22 4.11L108.58 4.11L108.58 2.48L110.22 2.48L110.22 2.05Q110.22 1.14 110.49 0.54Q110.75-0.06 111.20-0.42Q111.65-0.78 112.22-0.94Q112.80-1.09 113.41-1.09L113.41-1.09Q114.03-1.09 114.69-0.98Q115.34-0.86 115.87-0.61L115.87-0.61L115.54 0.99Q115.17 0.86 114.62 0.73Q114.06 0.59 113.57 0.59L113.57 0.59Q113.30 0.59 113.05 0.64Q112.80 0.69 112.62 0.85Q112.43 1.01 112.32 1.30Q112.21 1.60 112.21 2.08L112.21 2.08L112.21 2.48L115.30 2.48L115.30 4.11L112.21 4.11L112.21 10ZM123.22 8.10L123.47 9.68Q123.42 9.71 123.26 9.79Q123.09 9.87 122.82 9.96Q122.54 10.05 122.15 10.11Q121.76 10.18 121.26 10.18L121.26 10.18Q119.90 10.18 119.28 9.37Q118.66 8.56 118.66 7.01L118.66 7.01L118.66 0.62L116.58 0.62L116.58-1.01L120.62-1.01L120.62 7.15Q120.62 7.92 120.93 8.19Q121.23 8.46 121.70 8.46L121.70 8.46Q122.29 8.46 122.69 8.30Q123.09 8.14 123.22 8.10L123.22 8.10ZM131.55 6.22L131.55 6.22Q131.55 7.12 131.30 7.85Q131.04 8.58 130.58 9.10Q130.11 9.63 129.46 9.92Q128.82 10.21 128.02 10.21L128.02 10.21Q127.22 10.21 126.57 9.92Q125.92 9.63 125.45 9.10Q124.98 8.58 124.72 7.85Q124.46 7.12 124.46 6.22L124.46 6.22Q124.46 5.34 124.73 4.62Q124.99 3.89 125.46 3.37Q125.94 2.85 126.59 2.57Q127.25 2.29 128.02 2.29L128.02 2.29Q128.80 2.29 129.45 2.57Q130.10 2.85 130.57 3.37Q131.04 3.89 131.30 4.62Q131.55 5.34 131.55 6.22ZM126.46 6.24L126.46 6.24Q126.46 7.25 126.82 7.87Q127.18 8.50 127.98 8.50L127.98 8.50Q128.75 8.50 129.14 7.87Q129.54 7.25 129.54 6.24L129.54 6.24Q129.54 5.23 129.18 4.62Q128.82 4 128.02 4L128.02 4Q127.25 4 126.86 4.62Q126.46 5.23 126.46 6.24ZM138.64 10L137.15 10Q136.98 9.50 136.82 9.09Q136.67 8.67 136.54 8.28Q136.40 7.89 136.26 7.46Q136.13 7.04 135.98 6.53L135.98 6.53Q135.82 7.04 135.70 7.45Q135.57 7.86 135.43 8.26Q135.30 8.66 135.15 9.07Q135.01 9.49 134.80 10L134.80 10L133.31 10Q133.12 9.30 132.95 8.44Q132.78 7.58 132.64 6.62Q132.50 5.65 132.38 4.61Q132.27 3.57 132.18 2.48L132.18 2.48L133.86 2.48Q133.92 3.87 133.99 5.20Q134.06 6.53 134.26 7.94L134.26 7.94Q134.46 7.33 134.62 6.81Q134.77 6.29 134.89 5.82Q135.01 5.34 135.11 4.90Q135.22 4.46 135.33 4L135.33 4L136.75 4Q136.85 4.46 136.95 4.90Q137.06 5.34 137.18 5.82Q137.30 6.29 137.43 6.81Q137.57 7.33 137.76 7.94L137.76 7.94Q137.86 7.20 137.92 6.53Q137.98 5.86 138.02 5.19Q138.06 4.53 138.09 3.86Q138.11 3.20 138.14 2.48L138.14 2.48L139.82 2.48Q139.65 4.67 139.34 6.61Q139.02 8.54 138.64 10L138.64 10ZM155.36 8.37L155.36 10L149.14 10L149.14 0.10L151.12 0.10L151.12 8.37L155.36 8.37ZM160.02 8.59L160.02 8.59Q160.34 8.59 160.64 8.58Q160.94 8.58 161.17 8.54L161.17 8.54L161.17 6.82Q160.98 6.78 160.70 6.76Q160.43 6.74 160.21 6.74L160.21 6.74Q159.90 6.74 159.62 6.78Q159.33 6.82 159.11 6.91Q158.90 7.01 158.77 7.18Q158.64 7.36 158.64 7.65L158.64 7.65Q158.64 8.16 159.02 8.38Q159.41 8.59 160.02 8.59ZM159.84 2.29L159.84 2.29Q160.77 2.29 161.38 2.50Q162 2.72 162.37 3.11Q162.74 3.50 162.90 4.07Q163.06 4.64 163.06 5.34L163.06 5.34L163.06 9.82Q162.62 9.92 161.78 10.05Q160.93 10.18 159.87 10.18L159.87 10.18Q159.15 10.18 158.57 10.05Q157.98 9.92 157.57 9.62Q157.15 9.33 156.93 8.86Q156.70 8.38 156.70 7.70L156.70 7.70Q156.70 7.04 156.96 6.59Q157.22 6.14 157.65 5.87Q158.08 5.60 158.64 5.48Q159.20 5.36 159.81 5.36L159.81 5.36Q160.58 5.36 161.17 5.49L161.17 5.49L161.17 5.25Q161.17 4.69 160.82 4.31Q160.46 3.94 159.60 3.94L159.60 3.94Q159.04 3.94 158.52 4.02Q158 4.10 157.68 4.21L157.68 4.21L157.41 2.62Q157.78 2.50 158.45 2.39Q159.12 2.29 159.84 2.29ZM165.01 10L165.01 2.72Q165.54 2.58 166.31 2.45Q167.09 2.32 168 2.32L168 2.32Q168.90 2.32 169.49 2.57Q170.08 2.82 170.42 3.27Q170.77 3.73 170.91 4.36Q171.06 4.99 171.06 5.76L171.06 5.76L171.06 10L169.09 10L169.09 6.02Q169.09 4.96 168.85 4.50Q168.61 4.03 167.87 4.03L167.87 4.03Q167.65 4.03 167.43 4.05Q167.22 4.06 166.98 4.10L166.98 4.10L166.98 10L165.01 10ZM174.53 6L174.53 6Q174.53 6.93 174.86 7.42Q175.20 7.90 175.92 7.90L175.92 7.90Q176.24 7.90 176.52 7.82Q176.80 7.74 177.02 7.62L177.02 7.62L177.02 4Q176.80 3.95 176.62 3.94Q176.45 3.92 176.26 3.92L176.26 3.92Q174.53 3.92 174.53 6ZM179.01 2.72L179.01 9.09Q179.01 10.93 178.12 11.81Q177.23 12.69 175.26 12.69L175.26 12.69Q174.56 12.69 173.91 12.54Q173.26 12.40 172.67 12.21L172.67 12.21L173.04 10.54Q173.50 10.72 174.02 10.87Q174.53 11.02 175.30 11.02L175.30 11.02Q175.81 11.02 176.14 10.90Q176.48 10.78 176.67 10.58Q176.86 10.37 176.94 10.09Q177.02 9.81 177.02 9.49L177.02 9.49L177.02 9.18Q176.61 9.34 176.26 9.42Q175.92 9.50 175.52 9.50L175.52 9.50Q174.05 9.50 173.29 8.58Q172.53 7.65 172.53 6L172.53 6Q172.53 4.14 173.55 3.23Q174.58 2.32 176.34 2.32L176.34 2.32Q177.57 2.32 179.01 2.72L179.01 2.72ZM187.01 2.48L187.01 9.74Q186.46 9.89 185.69 10.03Q184.91 10.18 184 10.18L184 10.18Q183.07 10.18 182.48 9.92Q181.89 9.66 181.54 9.19Q181.20 8.72 181.07 8.08Q180.94 7.44 180.94 6.67L180.94 6.67L180.94 2.48L182.91 2.48L182.91 6.42Q182.91 7.46 183.16 7.96Q183.41 8.46 184.13 8.46L184.13 8.46Q184.58 8.46 185.02 8.38L185.02 8.38L185.02 2.48L187.01 2.48ZM192.02 8.59L192.02 8.59Q192.34 8.59 192.64 8.58Q192.94 8.58 193.17 8.54L193.17 8.54L193.17 6.82Q192.98 6.78 192.70 6.76Q192.43 6.74 192.21 6.74L192.21 6.74Q191.90 6.74 191.62 6.78Q191.33 6.82 191.11 6.91Q190.90 7.01 190.77 7.18Q190.64 7.36 190.64 7.65L190.64 7.65Q190.64 8.16 191.02 8.38Q191.41 8.59 192.02 8.59ZM191.84 2.29L191.84 2.29Q192.77 2.29 193.38 2.50Q194 2.72 194.37 3.11Q194.74 3.50 194.90 4.07Q195.06 4.64 195.06 5.34L195.06 5.34L195.06 9.82Q194.62 9.92 193.78 10.05Q192.93 10.18 191.87 10.18L191.87 10.18Q191.15 10.18 190.57 10.05Q189.98 9.92 189.57 9.62Q189.15 9.33 188.93 8.86Q188.70 8.38 188.70 7.70L188.70 7.70Q188.70 7.04 188.96 6.59Q189.22 6.14 189.65 5.87Q190.08 5.60 190.64 5.48Q191.20 5.36 191.81 5.36L191.81 5.36Q192.58 5.36 193.17 5.49L193.17 5.49L193.17 5.25Q193.17 4.69 192.82 4.31Q192.46 3.94 191.60 3.94L191.60 3.94Q191.04 3.94 190.52 4.02Q190 4.10 189.68 4.21L189.68 4.21L189.41 2.62Q189.78 2.50 190.45 2.39Q191.12 2.29 191.84 2.29ZM198.53 6L198.53 6Q198.53 6.93 198.86 7.42Q199.20 7.90 199.92 7.90L199.92 7.90Q200.24 7.90 200.52 7.82Q200.80 7.74 201.02 7.62L201.02 7.62L201.02 4Q200.80 3.95 200.62 3.94Q200.45 3.92 200.26 3.92L200.26 3.92Q198.53 3.92 198.53 6ZM203.01 2.72L203.01 9.09Q203.01 10.93 202.12 11.81Q201.23 12.69 199.26 12.69L199.26 12.69Q198.56 12.69 197.91 12.54Q197.26 12.40 196.67 12.21L196.67 12.21L197.04 10.54Q197.50 10.72 198.02 10.87Q198.53 11.02 199.30 11.02L199.30 11.02Q199.81 11.02 200.14 10.90Q200.48 10.78 200.67 10.58Q200.86 10.37 200.94 10.09Q201.02 9.81 201.02 9.49L201.02 9.49L201.02 9.18Q200.61 9.34 200.26 9.42Q199.92 9.50 199.52 9.50L199.52 9.50Q198.05 9.50 197.29 8.58Q196.53 7.65 196.53 6L196.53 6Q196.53 4.14 197.55 3.23Q198.58 2.32 200.34 2.32L200.34 2.32Q201.57 2.32 203.01 2.72L203.01 2.72ZM204.50 6.30L204.50 6.30Q204.50 5.31 204.80 4.56Q205.10 3.81 205.60 3.30Q206.10 2.80 206.74 2.54Q207.38 2.29 208.05 2.29L208.05 2.29Q209.71 2.29 210.58 3.27Q211.44 4.26 211.44 6.14L211.44 6.14Q211.44 6.34 211.43 6.54Q211.42 6.75 211.41 6.88L211.41 6.88L206.53 6.88Q206.53 7.62 207.14 8.04Q207.74 8.46 208.70 8.46L208.70 8.46Q209.30 8.46 209.83 8.34Q210.37 8.21 210.74 8.08L210.74 8.08L211.01 9.76Q210.50 9.94 209.92 10.06Q209.34 10.18 208.62 10.18L208.62 10.18Q207.66 10.18 206.90 9.93Q206.14 9.68 205.61 9.19Q205.07 8.70 204.78 7.98Q204.50 7.26 204.50 6.30ZM206.53 5.52L209.54 5.52Q209.54 5.22 209.46 4.94Q209.38 4.66 209.20 4.43Q209.02 4.21 208.75 4.07Q208.48 3.94 208.08 3.94L208.08 3.94Q207.70 3.94 207.42 4.06Q207.14 4.19 206.95 4.42Q206.77 4.64 206.66 4.93Q206.56 5.22 206.53 5.52L206.53 5.52Z"/></g></svg>