<?xml version="1.0" encoding="UTF-8"?>
<svg height="34" width="114.6" version="1.1" xmlns="http://www.w3.org/2000/svg"><!--Created by Josélio de S. C. Júnior - 2021 - https://github.com/joseliojunior -->
    <rect
        height="32"
        width="112.6"
        rx="1"
        ry="1"
        x="1" y="1"
        fill="#ca0f21"
        stroke="#3e050a"
        stroke-width="1" />
    <g transform="translate(0, 12)">
        <path fill="#3e050a" d="M25.57 9.84L25.57 9.84Q26.31 9.84 26.80 9.68Q27.30 9.53 27.58 9.25Q27.87 8.98 27.98 8.63Q28.09 8.28 28.09 7.92L28.09 7.92Q28.09 7.46 27.82 7.10Q27.56 6.74 27.15 6.47Q26.74 6.19 26.24 5.96Q25.74 5.74 25.23 5.54L25.23 5.54Q24.56 5.30 23.84 4.99Q23.12 4.68 22.53 4.20Q21.94 3.72 21.56 3.01Q21.18 2.30 21.18 1.25L21.18 1.25Q21.18-0.84 22.53-2.02Q23.89-3.19 26.26-3.19L26.26-3.19Q27.63-3.19 28.65-2.88Q29.67-2.57 30.37-2.18L30.37-2.18L29.50 0.10Q28.90-0.24 28.17-0.48Q27.44-0.72 26.48-0.72L26.48-0.72Q24.13-0.72 24.13 0.98L24.13 0.98Q24.13 1.42 24.37 1.74Q24.61 2.06 24.98 2.32Q25.35 2.57 25.82 2.76Q26.29 2.95 26.74 3.12L26.74 3.12Q27.44 3.38 28.20 3.71Q28.95 4.03 29.59 4.57Q30.22 5.11 30.63 5.92Q31.04 6.72 31.04 7.94L31.04 7.94Q31.04 10.03 29.68 11.17Q28.33 12.31 25.57 12.31L25.57 12.31Q23.72 12.31 22.62 11.92Q21.51 11.52 20.96 11.18L20.96 11.18L21.82 8.78Q22.47 9.17 23.37 9.50Q24.27 9.84 25.57 9.84ZM33.06 6.36L33.06 6.36Q33.06 5.14 33.44 4.06Q33.82 2.98 34.62 2.17Q35.41 1.37 36.62 0.90Q37.83 0.43 39.51 0.43L39.51 0.43Q40.52 0.43 41.34 0.58Q42.15 0.72 42.99 1.06L42.99 1.06L42.34 3.43Q41.86 3.26 41.28 3.13Q40.69 3 39.78 3L39.78 3Q38.72 3 38.01 3.25Q37.30 3.50 36.87 3.95Q36.44 4.39 36.25 5.02Q36.06 5.64 36.06 6.36L36.06 6.36Q36.06 7.92 36.93 8.81Q37.81 9.70 39.92 9.70L39.92 9.70Q40.62 9.70 41.37 9.60Q42.13 9.50 42.75 9.29L42.75 9.29L43.18 11.71Q42.56 11.95 41.67 12.11Q40.78 12.26 39.58 12.26L39.58 12.26Q37.86 12.26 36.62 11.81Q35.38 11.35 34.59 10.56Q33.80 9.77 33.43 8.69Q33.06 7.61 33.06 6.36ZM50.82-2.52L50.82-2.52Q50.82-1.66 50.26-1.15Q49.71-0.65 48.94-0.65L48.94-0.65Q48.18-0.65 47.64-1.15Q47.10-1.66 47.10-2.52L47.10-2.52Q47.10-3.41 47.64-3.91Q48.18-4.42 48.94-4.42L48.94-4.42Q49.71-4.42 50.26-3.91Q50.82-3.41 50.82-2.52ZM54.82 9.14L55.21 11.52Q54.30 11.95 53.49 12.11Q52.69 12.26 52.02 12.26L52.02 12.26Q50.86 12.26 50.08 11.93Q49.30 11.59 48.84 10.96Q48.37 10.32 48.18 9.41Q47.98 8.50 47.98 7.32L47.98 7.32L47.98 3.17L44.86 3.17L44.86 0.72L50.94 0.72L50.94 7.70Q50.94 8.71 51.31 9.20Q51.68 9.70 52.54 9.70L52.54 9.70Q52.95 9.70 53.53 9.59Q54.10 9.48 54.82 9.14L54.82 9.14ZM66.82 9.14L67.21 11.52Q67.14 11.57 66.88 11.69Q66.63 11.81 66.22 11.94Q65.82 12.07 65.23 12.17Q64.64 12.26 63.90 12.26L63.90 12.26Q61.86 12.26 60.92 11.05Q59.98 9.84 59.98 7.51L59.98 7.51L59.98-2.06L56.86-2.06L56.86-4.51L62.94-4.51L62.94 7.73Q62.94 8.88 63.39 9.29Q63.85 9.70 64.54 9.70L64.54 9.70Q65.43 9.70 66.03 9.46Q66.63 9.22 66.82 9.14L66.82 9.14ZM74.02 9.89L74.02 9.89Q74.50 9.89 74.96 9.88Q75.42 9.86 75.75 9.82L75.75 9.82L75.75 7.22Q75.46 7.18 75.06 7.14Q74.65 7.10 74.31 7.10L74.31 7.10Q73.86 7.10 73.42 7.16Q72.99 7.22 72.67 7.37Q72.34 7.51 72.15 7.78Q71.96 8.04 71.96 8.47L71.96 8.47Q71.96 9.24 72.54 9.56Q73.11 9.89 74.02 9.89ZM73.76 0.43L73.76 0.43Q75.15 0.43 76.08 0.76Q77 1.08 77.55 1.67Q78.10 2.26 78.34 3.11Q78.58 3.96 78.58 5.02L78.58 5.02L78.58 11.74Q77.94 11.88 76.66 12.07Q75.39 12.26 73.81 12.26L73.81 12.26Q72.73 12.26 71.85 12.07Q70.98 11.88 70.35 11.44Q69.73 10.99 69.39 10.28Q69.06 9.58 69.06 8.54L69.06 8.54Q69.06 7.56 69.44 6.89Q69.82 6.22 70.47 5.81Q71.12 5.40 71.96 5.22Q72.80 5.04 73.71 5.04L73.71 5.04Q74.86 5.04 75.75 5.23L75.75 5.23L75.75 4.87Q75.75 4.03 75.22 3.47Q74.70 2.90 73.40 2.90L73.40 2.90Q72.56 2.90 71.78 3.02Q71 3.14 70.52 3.31L70.52 3.31L70.11 0.94Q70.66 0.74 71.67 0.59Q72.68 0.43 73.76 0.43ZM88.28 6.29L88.28 6.29Q88.28 4.70 87.76 3.86Q87.25 3.02 86.19 3.02L86.19 3.02Q85.71 3.02 85.24 3.16Q84.78 3.29 84.44 3.48L84.44 3.48L84.44 9.60Q84.78 9.67 85.15 9.70Q85.52 9.72 85.78 9.72L85.78 9.72Q86.94 9.72 87.61 8.94Q88.28 8.16 88.28 6.29ZM91.28 6.36L91.28 6.36Q91.28 7.70 90.92 8.80Q90.56 9.89 89.86 10.66Q89.17 11.42 88.16 11.84Q87.15 12.26 85.86 12.26L85.86 12.26Q84.70 12.26 83.50 12.10Q82.30 11.93 81.49 11.66L81.49 11.66L81.49-4.15L84.44-4.66L84.44 0.98Q85.06 0.70 85.64 0.59Q86.22 0.48 86.79 0.48L86.79 0.48Q87.90 0.48 88.74 0.90Q89.58 1.32 90.14 2.10Q90.70 2.88 90.99 3.96Q91.28 5.04 91.28 6.36Z"/>
    </g>
</svg>