<?xml version="1.0" encoding="UTF-8"?>
<svg height="34" width="106.6" version="1.1" xmlns="http://www.w3.org/2000/svg">
    <rect
        height="32"
        width="104.6"
        rx="1"
        ry="1"
        x="1"
        y="1"
        fill="#ca0f21"
        stroke="#3e050a"
        stroke-width="1"
         />
    <g transform="translate(0, 14)">
        <path fill="#3e050a" d="M16.50 8.48L16.50 8.48Q17.36 8.48 17.94 8.30Q18.51 8.12 18.85 7.79Q19.18 7.47 19.31 7.07Q19.44 6.66 19.44 6.24L19.44 6.24Q19.44 5.71 19.13 5.29Q18.82 4.87 18.34 4.55Q17.87 4.22 17.28 3.96Q16.69 3.69 16.10 3.47L16.10 3.47Q15.32 3.19 14.48 2.82Q13.64 2.46 12.95 1.90Q12.27 1.34 11.82 0.51Q11.37-0.31 11.37-1.54L11.37-1.54Q11.37-3.98 12.95-5.35Q14.54-6.72 17.31-6.72L17.31-6.72Q18.90-6.72 20.09-6.36Q21.28-6.00 22.10-5.55L22.10-5.55L21.09-2.89Q20.39-3.28 19.53-3.56Q18.68-3.84 17.56-3.84L17.56-3.84Q14.82-3.84 14.82-1.85L14.82-1.85Q14.82-1.35 15.10-0.97Q15.38-0.59 15.81-0.30Q16.24-0.00 16.79 0.22Q17.34 0.44 17.87 0.64L17.87 0.64Q18.68 0.95 19.56 1.33Q20.44 1.70 21.19 2.33Q21.93 2.96 22.40 3.90Q22.88 4.84 22.88 6.27L22.88 6.27Q22.88 8.70 21.30 10.03Q19.72 11.36 16.50 11.36L16.50 11.36Q14.34 11.36 13.05 10.90Q11.76 10.44 11.12 10.05L11.12 10.05L12.13 7.25Q12.88 7.70 13.93 8.09Q14.98 8.48 16.50 8.48ZM25.23 4.42L25.23 4.42Q25.23 2.99 25.68 1.73Q26.13 0.47 27.05-0.47Q27.98-1.40 29.39-1.95Q30.80-2.50 32.76-2.50L32.76-2.50Q33.94-2.50 34.89-2.33Q35.84-2.16 36.82-1.77L36.82-1.77L36.07 1.00Q35.51 0.81 34.82 0.65Q34.14 0.50 33.07 0.50L33.07 0.50Q31.84 0.50 31.01 0.79Q30.19 1.09 29.68 1.61Q29.18 2.12 28.96 2.85Q28.73 3.58 28.73 4.42L28.73 4.42Q28.73 6.24 29.75 7.28Q30.78 8.31 33.24 8.31L33.24 8.31Q34.05 8.31 34.93 8.20Q35.82 8.09 36.54 7.84L36.54 7.84L37.05 10.66Q36.32 10.94 35.28 11.13Q34.25 11.31 32.85 11.31L32.85 11.31Q30.83 11.31 29.39 10.78Q27.95 10.24 27.02 9.32Q26.10 8.40 25.67 7.14Q25.23 5.88 25.23 4.42ZM45.95-5.94L45.95-5.94Q45.95-4.93 45.31-4.34Q44.66-3.76 43.77-3.76L43.77-3.76Q42.87-3.76 42.24-4.34Q41.61-4.93 41.61-5.94L41.61-5.94Q41.61-6.98 42.24-7.56Q42.87-8.15 43.77-8.15L43.77-8.15Q44.66-8.15 45.31-7.56Q45.95-6.98 45.95-5.94ZM50.63 7.67L51.08 10.44Q50.01 10.94 49.07 11.13Q48.14 11.31 47.35 11.31L47.35 11.31Q46.01 11.31 45.10 10.92Q44.19 10.52 43.64 9.78Q43.10 9.04 42.87 7.98Q42.65 6.91 42.65 5.54L42.65 5.54L42.65 0.70L39.01 0.70L39.01-2.16L46.09-2.16L46.09 5.99Q46.09 7.16 46.53 7.74Q46.96 8.31 47.97 8.31L47.97 8.31Q48.44 8.31 49.12 8.19Q49.79 8.06 50.63 7.67L50.63 7.67ZM64.63 7.67L65.08 10.44Q64.99 10.50 64.70 10.64Q64.40 10.78 63.93 10.93Q63.45 11.08 62.77 11.20Q62.08 11.31 61.21 11.31L61.21 11.31Q58.83 11.31 57.74 9.89Q56.65 8.48 56.65 5.76L56.65 5.76L56.65-5.41L53.01-5.41L53.01-8.26L60.09-8.26L60.09 6.02Q60.09 7.36 60.62 7.84Q61.16 8.31 61.97 8.31L61.97 8.31Q63.00 8.31 63.70 8.03Q64.40 7.75 64.63 7.67L64.63 7.67ZM73.03 8.54L73.03 8.54Q73.59 8.54 74.12 8.52Q74.65 8.51 75.04 8.45L75.04 8.45L75.04 5.43Q74.71 5.37 74.23 5.33Q73.76 5.29 73.36 5.29L73.36 5.29Q72.83 5.29 72.33 5.36Q71.82 5.43 71.45 5.60Q71.07 5.76 70.84 6.07Q70.62 6.38 70.62 6.88L70.62 6.88Q70.62 7.78 71.29 8.16Q71.96 8.54 73.03 8.54ZM72.72-2.50L72.72-2.50Q74.34-2.50 75.42-2.12Q76.50-1.74 77.14-1.05Q77.79-0.37 78.07 0.63Q78.35 1.62 78.35 2.85L78.35 2.85L78.35 10.69Q77.59 10.86 76.11 11.08Q74.62 11.31 72.78 11.31L72.78 11.31Q71.52 11.31 70.49 11.08Q69.47 10.86 68.74 10.34Q68.02 9.82 67.62 9.00Q67.23 8.17 67.23 6.97L67.23 6.97Q67.23 5.82 67.68 5.04Q68.13 4.25 68.88 3.78Q69.64 3.30 70.62 3.09Q71.60 2.88 72.66 2.88L72.66 2.88Q74.01 2.88 75.04 3.10L75.04 3.10L75.04 2.68Q75.04 1.70 74.43 1.05Q73.81 0.39 72.30 0.39L72.30 0.39Q71.32 0.39 70.41 0.53Q69.50 0.67 68.94 0.86L68.94 0.86L68.46-1.91Q69.11-2.13 70.28-2.31Q71.46-2.50 72.72-2.50ZM89.66 4.34L89.66 4.34Q89.66 2.49 89.06 1.51Q88.46 0.53 87.22 0.53L87.22 0.53Q86.66 0.53 86.12 0.68Q85.57 0.84 85.18 1.06L85.18 1.06L85.18 8.20Q85.57 8.28 86.01 8.31Q86.44 8.34 86.75 8.34L86.75 8.34Q88.09 8.34 88.88 7.43Q89.66 6.52 89.66 4.34ZM93.16 4.42L93.16 4.42Q93.16 5.99 92.74 7.26Q92.32 8.54 91.51 9.43Q90.70 10.33 89.52 10.82Q88.34 11.31 86.83 11.31L86.83 11.31Q85.49 11.31 84.09 11.11Q82.69 10.92 81.74 10.61L81.74 10.61L81.74-7.84L85.18-8.43L85.18-1.85Q85.91-2.19 86.58-2.31Q87.25-2.44 87.92-2.44L87.92-2.44Q89.21-2.44 90.19-1.95Q91.17-1.46 91.83-0.55Q92.49 0.36 92.82 1.62Q93.16 2.88 93.16 4.42Z"/>
    </g>
</svg>