<?xml version="1.0" encoding="UTF-8"?>
<svg height="34" width="92.5" version="1.1" xmlns="http://www.w3.org/2000/svg">
    <rect
        height="32"
        width="90.5"
        rx="1"
        ry="1"
        x="1"
        y="1"
        fill="#3f8000"
        stroke="#8cff1a"
        stroke-width="1"
         />
    <g transform="translate(0, 14)">
        <path fill="#8cff1a" d="M18.29 11.36L18.29 11.36Q14.62 11.36 12.69 9.01Q10.76 6.66 10.76 2.32L10.76 2.32Q10.76 0.16 11.34-1.52Q11.93-3.20 12.98-4.36Q14.03-5.52 15.47-6.12Q16.92-6.72 18.62-6.72L18.62-6.72Q19.55-6.72 20.29-6.57Q21.03-6.42 21.59-6.22Q22.15-6.02 22.53-5.80Q22.91-5.58 23.10-5.46L23.10-5.46L22.21-2.72Q21.56-3.14 20.65-3.43Q19.74-3.73 18.57-3.73L18.57-3.73Q17.76-3.73 16.99-3.43Q16.22-3.14 15.61-2.45Q15.01-1.77 14.63-0.62Q14.26 0.53 14.26 2.24L14.26 2.24Q14.26 5.20 15.28 6.79Q16.30 8.37 18.62 8.37L18.62 8.37Q19.97 8.37 20.85 8.06Q21.73 7.75 22.26 7.44L22.26 7.44L23.13 10.16Q22.40 10.61 21.16 10.99Q19.91 11.36 18.29 11.36ZM29.21 11L25.76 11L25.76-7.84L29.21-8.43L29.21-2.05Q29.63-2.19 30.22-2.31Q30.80-2.44 31.25-2.44L31.25-2.44Q32.71-2.44 33.69-2.01Q34.67-1.57 35.26-0.77Q35.84 0.02 36.10 1.13Q36.35 2.24 36.35 3.58L36.35 3.58L36.35 11L32.90 11L32.90 4.03Q32.90 2.18 32.48 1.37Q32.06 0.56 30.89 0.56L30.89 0.56Q30.41 0.56 29.95 0.67Q29.49 0.78 29.21 0.86L29.21 0.86L29.21 11ZM50.26-2.16L50.26 10.55Q49.31 10.80 47.95 11.06Q46.60 11.31 45 11.31L45 11.31Q43.38 11.31 42.34 10.86Q41.30 10.41 40.70 9.59Q40.10 8.76 39.88 7.64Q39.65 6.52 39.65 5.18L39.65 5.18L39.65-2.16L43.10-2.16L43.10 4.73Q43.10 6.55 43.53 7.43Q43.96 8.31 45.22 8.31L45.22 8.31Q46.01 8.31 46.79 8.17L46.79 8.17L46.79-2.16L50.26-2.16ZM53.23 4.42L53.23 4.42Q53.23 2.99 53.68 1.73Q54.13 0.47 55.05-0.47Q55.98-1.40 57.39-1.95Q58.80-2.50 60.76-2.50L60.76-2.50Q61.94-2.50 62.89-2.33Q63.84-2.16 64.82-1.77L64.82-1.77L64.07 1.00Q63.51 0.81 62.82 0.65Q62.14 0.50 61.07 0.50L61.07 0.50Q59.84 0.50 59.01 0.79Q58.19 1.09 57.68 1.61Q57.18 2.12 56.96 2.85Q56.73 3.58 56.73 4.42L56.73 4.42Q56.73 6.24 57.75 7.28Q58.78 8.31 61.24 8.31L61.24 8.31Q62.05 8.31 62.93 8.20Q63.82 8.09 64.54 7.84L64.54 7.84L65.05 10.66Q64.32 10.94 63.28 11.13Q62.25 11.31 60.85 11.31L60.85 11.31Q58.83 11.31 57.39 10.78Q55.95 10.24 55.02 9.32Q54.10 8.40 53.67 7.14Q53.23 5.88 53.23 4.42ZM79.69 11L75.80 11Q75.49 10.02 74.92 8.89Q74.34 7.75 73.64 6.67Q72.94 5.60 72.17 4.66Q71.40 3.72 70.70 3.08L70.70 3.08L70.70 11L67.26 11L67.26-6.33L70.70-6.33L70.70 0.86Q71.32 0.08 71.99-0.87Q72.66-1.82 73.27-2.78Q73.87-3.73 74.37-4.65Q74.88-5.58 75.21-6.33L75.21-6.33L79.10-6.33Q78.71-5.58 78.17-4.61Q77.62-3.64 76.92-2.59Q76.22-1.54 75.42-0.45Q74.62 0.64 73.76 1.65L73.76 1.65Q74.62 2.49 75.52 3.58Q76.42 4.67 77.21 5.92Q78.01 7.16 78.66 8.47Q79.30 9.77 79.69 11L79.69 11Z"/>
    </g>
</svg>