<?xml version="1.0" encoding="UTF-8"?>
<svg height="34" width="191.2" version="1.1" xmlns="http://www.w3.org/2000/svg">
    <rect
        height="32"
        width="189.2"
        rx="14"
        ry="14"
        x="1"
        y="1"
        fill="#b07219"
        stroke="#281a06"
        stroke-width="1"
         />
    <g transform="translate(0, 14)">
        <path fill="#281a06" d="M22.26-6.33L22.26 5.20Q22.26 6.46 21.94 7.58Q21.62 8.70 20.88 9.54Q20.14 10.38 18.96 10.87Q17.78 11.36 16.10 11.36L16.10 11.36Q14.34 11.36 13.16 10.92Q11.99 10.47 11.18 9.82L11.18 9.82L12.49 7.08Q13.19 7.53 14.05 7.95Q14.90 8.37 15.80 8.37L15.80 8.37Q17.14 8.37 17.97 7.65Q18.79 6.94 18.79 5.01L18.79 5.01L18.79-3.48L13.00-3.48L13.00-6.33L22.26-6.33ZM37.75 11L34.05 11L33.24 7.00L28.62 7.00L27.84 11L24.25 11Q25.48 5.88 26.74 1.66Q28.00-2.55 29.18-6.33L29.18-6.33L32.93-6.33Q34.16-2.52 35.38 1.75Q36.60 6.02 37.75 11L37.75 11ZM30.97-2.97L30.97-2.97Q30.69-1.99 30.45-1.11Q30.22-0.23 30.01 0.63Q29.80 1.48 29.61 2.35Q29.43 3.22 29.26 4.14L29.26 4.14L32.65 4.14Q32.48 3.22 32.32 2.35Q32.15 1.48 31.94 0.63Q31.73-0.23 31.49-1.11Q31.25-1.99 30.97-2.97ZM43.99-6.53L43.99-6.53Q45.48-6.53 46.68-6.19Q47.88-5.86 48.75-5.16Q49.62-4.46 50.08-3.38Q50.54-2.30 50.54-0.84L50.54-0.84Q50.54 0.67 49.93 1.90Q49.31 3.13 47.88 3.78L47.88 3.78Q48.36 4.50 48.89 5.39Q49.42 6.27 49.93 7.23Q50.43 8.20 50.89 9.17Q51.36 10.13 51.69 11L51.69 11L48.08 11Q47.44 9.32 46.58 7.77Q45.73 6.21 44.75 4.62L44.75 4.62L42.96 4.62L42.96 11L39.51 11L39.51-6.08Q40.02-6.19 40.62-6.29Q41.22-6.39 41.84-6.43Q42.45-6.47 43.01-6.50Q43.57-6.53 43.99-6.53ZM47.04-0.87L47.04-0.87Q47.04-2.24 46.20-2.89Q45.36-3.53 43.99-3.53L43.99-3.53Q43.80-3.53 43.52-3.52Q43.24-3.50 42.96-3.45L42.96-3.45L42.96 1.76L43.71 1.76Q45.48 1.76 46.26 1.07Q47.04 0.39 47.04-0.87ZM67.65-6.33L70.51-6.33Q70.70-5.74 71.00-4.82Q71.29-3.90 71.63-2.83Q71.96-1.77 72.30-0.68Q72.64 0.42 72.94 1.34L72.94 1.34Q73.28 0.30 73.64-0.80Q74.01-1.91 74.34-2.93Q74.68-3.95 74.96-4.85Q75.24-5.74 75.46-6.33L75.46-6.33L78.32-6.33Q78.52-4.06 78.70-1.91Q78.88 0.25 79.01 2.36Q79.13 4.48 79.22 6.62Q79.30 8.76 79.36 11L79.36 11L76.19 11L76.36-2.47L74.23 4.87L71.71 4.87L69.67-2.47L69.81 11L66.64 11Q66.73 8.87 66.83 6.58Q66.92 4.28 67.04 2.01Q67.15-0.26 67.30-2.38Q67.46-4.51 67.65-6.33L67.65-6.33ZM87.03 8.54L87.03 8.54Q87.59 8.54 88.12 8.52Q88.65 8.51 89.04 8.45L89.04 8.45L89.04 5.43Q88.71 5.37 88.23 5.33Q87.76 5.29 87.36 5.29L87.36 5.29Q86.83 5.29 86.33 5.36Q85.82 5.43 85.45 5.60Q85.07 5.76 84.84 6.07Q84.62 6.38 84.62 6.88L84.62 6.88Q84.62 7.78 85.29 8.16Q85.96 8.54 87.03 8.54ZM86.72-2.50L86.72-2.50Q88.34-2.50 89.42-2.12Q90.50-1.74 91.14-1.05Q91.79-0.37 92.07 0.63Q92.35 1.62 92.35 2.85L92.35 2.85L92.35 10.69Q91.59 10.86 90.11 11.08Q88.62 11.31 86.78 11.31L86.78 11.31Q85.52 11.31 84.49 11.08Q83.47 10.86 82.74 10.34Q82.02 9.82 81.62 9.00Q81.23 8.17 81.23 6.97L81.23 6.97Q81.23 5.82 81.68 5.04Q82.13 4.25 82.88 3.78Q83.64 3.30 84.62 3.09Q85.60 2.88 86.66 2.88L86.66 2.88Q88.01 2.88 89.04 3.10L89.04 3.10L89.04 2.68Q89.04 1.70 88.43 1.05Q87.81 0.39 86.30 0.39L86.30 0.39Q85.32 0.39 84.41 0.53Q83.50 0.67 82.94 0.86L82.94 0.86L82.46-1.91Q83.11-2.13 84.28-2.31Q85.46-2.50 86.72-2.50ZM95.76 11L95.76-1.74Q96.69-1.99 98.05-2.22Q99.40-2.44 101-2.44L101-2.44Q102.57-2.44 103.60-2.01Q104.64-1.57 105.24-0.77Q105.84 0.02 106.10 1.13Q106.35 2.24 106.35 3.58L106.35 3.58L106.35 11L102.90 11L102.90 4.03Q102.90 2.18 102.48 1.37Q102.06 0.56 100.78 0.56L100.78 0.56Q100.38 0.56 100.01 0.58Q99.63 0.61 99.21 0.67L99.21 0.67L99.21 11L95.76 11ZM115.95-5.94L115.95-5.94Q115.95-4.93 115.31-4.34Q114.66-3.76 113.77-3.76L113.77-3.76Q112.87-3.76 112.24-4.34Q111.61-4.93 111.61-5.94L111.61-5.94Q111.61-6.98 112.24-7.56Q112.87-8.15 113.77-8.15L113.77-8.15Q114.66-8.15 115.31-7.56Q115.95-6.98 115.95-5.94ZM120.63 7.67L121.08 10.44Q120.01 10.94 119.07 11.13Q118.14 11.31 117.35 11.31L117.35 11.31Q116.01 11.31 115.10 10.92Q114.19 10.52 113.64 9.78Q113.10 9.04 112.87 7.98Q112.65 6.91 112.65 5.54L112.65 5.54L112.65 0.70L109.01 0.70L109.01-2.16L116.09-2.16L116.09 5.99Q116.09 7.16 116.53 7.74Q116.96 8.31 117.97 8.31L117.97 8.31Q118.44 8.31 119.12 8.19Q119.79 8.06 120.63 7.67L120.63 7.67ZM129.36 11L125.89 11L125.89 0.70L123.01 0.70L123.01-2.16L125.89-2.16L125.89-2.92Q125.89-4.51 126.35-5.56Q126.82-6.61 127.60-7.24Q128.38-7.87 129.39-8.14Q130.40-8.40 131.46-8.40L131.46-8.40Q132.56-8.40 133.70-8.21Q134.85-8.01 135.78-7.56L135.78-7.56L135.19-4.76Q134.54-4.99 133.58-5.23Q132.61-5.46 131.74-5.46L131.74-5.46Q131.27-5.46 130.83-5.38Q130.40-5.30 130.08-5.02Q129.76-4.74 129.56-4.22Q129.36-3.70 129.36-2.86L129.36-2.86L129.36-2.16L134.77-2.16L134.77 0.70L129.36 0.70L129.36 11ZM136.87 4.53L136.87 4.53Q136.87 2.80 137.40 1.48Q137.93 0.16 138.80-0.72Q139.67-1.60 140.79-2.05Q141.91-2.50 143.08-2.50L143.08-2.50Q146.00-2.50 147.51-0.77Q149.02 0.95 149.02 4.25L149.02 4.25Q149.02 4.59 149.01 4.95Q148.99 5.32 148.96 5.54L148.96 5.54L140.42 5.54Q140.42 6.83 141.49 7.57Q142.55 8.31 144.23 8.31L144.23 8.31Q145.27 8.31 146.21 8.09Q147.14 7.86 147.79 7.64L147.79 7.64L148.26 10.58Q147.37 10.89 146.36 11.10Q145.35 11.31 144.09 11.31L144.09 11.31Q142.41 11.31 141.08 10.87Q139.75 10.44 138.81 9.59Q137.88 8.73 137.37 7.47Q136.87 6.21 136.87 4.53ZM140.42 3.16L145.69 3.16Q145.69 2.63 145.55 2.14Q145.41 1.65 145.10 1.26Q144.79 0.86 144.32 0.63Q143.84 0.39 143.14 0.39L143.14 0.39Q142.47 0.39 141.98 0.61Q141.49 0.84 141.17 1.23Q140.84 1.62 140.66 2.12Q140.48 2.63 140.42 3.16L140.42 3.16ZM156.38 8.40L156.38 8.40Q157.64 8.40 158.32 8.21Q158.99 8.03 158.99 7.47L158.99 7.47Q158.99 7.11 158.78 6.86Q158.57 6.60 158.19 6.42Q157.81 6.24 157.32 6.07Q156.83 5.90 156.30 5.74L156.30 5.74Q155.54 5.51 154.76 5.22Q153.98 4.92 153.33 4.48Q152.69 4.03 152.27 3.34Q151.85 2.66 151.85 1.62L151.85 1.62Q151.85 0.78 152.17 0.04Q152.49-0.70 153.18-1.28Q153.86-1.85 154.93-2.17Q155.99-2.50 157.48-2.50L157.48-2.50Q158.76-2.50 159.87-2.30Q160.98-2.10 161.79-1.74L161.79-1.74L161.26 1.17Q160.78 1.03 159.77 0.71Q158.76 0.39 157.50 0.39L157.50 0.39Q156.19 0.39 155.73 0.71Q155.26 1.03 155.26 1.40L155.26 1.40Q155.26 1.70 155.47 1.94Q155.68 2.18 156.03 2.38Q156.38 2.57 156.85 2.75Q157.31 2.94 157.84 3.10L157.84 3.10Q158.60 3.36 159.41 3.66Q160.22 3.97 160.88 4.43Q161.54 4.90 161.96 5.61Q162.38 6.32 162.38 7.36L162.38 7.36Q162.38 8.17 162.07 8.90Q161.76 9.63 161.05 10.16Q160.33 10.69 159.18 11Q158.04 11.31 156.36 11.31L156.36 11.31Q154.65 11.31 153.44 10.92Q152.24 10.52 151.51 10.22L151.51 10.22L152.04 7.33Q153.02 7.72 154.13 8.06Q155.24 8.40 156.38 8.40ZM168.00 6.10L168.00 0.70L165.01 0.70L165.01-2.16L168.00-2.16L168.00-5.46L171.45-6.02L171.45-2.16L176.96-2.16L176.96 0.70L171.45 0.70L171.45 6.02Q171.45 6.74 171.59 7.19Q171.73 7.64 171.98 7.89Q172.23 8.14 172.60 8.23Q172.96 8.31 173.41 8.31L173.41 8.31Q173.88 8.31 174.29 8.28Q174.70 8.26 175.07 8.19Q175.45 8.12 175.86 7.98Q176.26 7.84 176.74 7.61L176.74 7.61L177.22 10.58Q176.26 10.97 175.16 11.14Q174.05 11.31 173.02 11.31L173.02 11.31Q171.81 11.31 170.89 11.11Q169.96 10.92 169.32 10.36Q168.68 9.80 168.34 8.77Q168.00 7.75 168.00 6.10L168.00 6.10Z"/>
    </g>
</svg>