<?xml version="1.0" encoding="UTF-8"?>
<svg height="34" width="114.6" version="1.1" xmlns="http://www.w3.org/2000/svg"><!--Created by Josélio de S. C. Júnior - 2021 - https://github.com/joseliojunior -->
    <rect
        height="32"
        width="112.6"
        rx="16"
        ry="16"
        x="1" y="1"
        fill="#B83998"
        stroke="#421437"
        stroke-width="1" />
    <g transform="translate(0, 12)">
        <path fill="#421437" d="M31.04 12L21.51 12L21.51-2.86L30.51-2.86L30.51-0.41L24.46-0.41L24.46 2.93L29.72 2.93L29.72 5.38L24.46 5.38L24.46 9.55L31.04 9.55L31.04 12ZM43.02 0.98L42.49 3.72Q42.20 3.65 41.80 3.58Q41.41 3.50 41 3.44Q40.59 3.38 40.21 3.36Q39.82 3.34 39.56 3.34L39.56 3.34Q38.94 3.34 38.34 3.40Q37.74 3.46 37.11 3.62L37.11 3.62L37.11 12L34.14 12L34.14 1.46Q35.31 1.03 36.55 0.77Q37.78 0.50 39.44 0.50L39.44 0.50Q39.68 0.50 40.12 0.53Q40.57 0.55 41.07 0.61Q41.58 0.67 42.09 0.76Q42.61 0.84 43.02 0.98L43.02 0.98ZM54.82 9.14L55.21 11.52Q55.14 11.57 54.88 11.69Q54.63 11.81 54.22 11.94Q53.82 12.07 53.23 12.17Q52.64 12.26 51.90 12.26L51.90 12.26Q49.86 12.26 48.92 11.05Q47.98 9.84 47.98 7.51L47.98 7.51L47.98-2.06L44.86-2.06L44.86-4.51L50.94-4.51L50.94 7.73Q50.94 8.88 51.39 9.29Q51.85 9.70 52.54 9.70L52.54 9.70Q53.43 9.70 54.03 9.46Q54.63 9.22 54.82 9.14L54.82 9.14ZM62.02 9.89L62.02 9.89Q62.50 9.89 62.96 9.88Q63.42 9.86 63.75 9.82L63.75 9.82L63.75 7.22Q63.46 7.18 63.06 7.14Q62.65 7.10 62.31 7.10L62.31 7.10Q61.86 7.10 61.42 7.16Q60.99 7.22 60.67 7.37Q60.34 7.51 60.15 7.78Q59.96 8.04 59.96 8.47L59.96 8.47Q59.96 9.24 60.54 9.56Q61.11 9.89 62.02 9.89ZM61.76 0.43L61.76 0.43Q63.15 0.43 64.08 0.76Q65 1.08 65.55 1.67Q66.10 2.26 66.34 3.11Q66.58 3.96 66.58 5.02L66.58 5.02L66.58 11.74Q65.94 11.88 64.66 12.07Q63.39 12.26 61.81 12.26L61.81 12.26Q60.73 12.26 59.85 12.07Q58.98 11.88 58.35 11.44Q57.73 10.99 57.39 10.28Q57.06 9.58 57.06 8.54L57.06 8.54Q57.06 7.56 57.44 6.89Q57.82 6.22 58.47 5.81Q59.12 5.40 59.96 5.22Q60.80 5.04 61.71 5.04L61.71 5.04Q62.86 5.04 63.75 5.23L63.75 5.23L63.75 4.87Q63.75 4.03 63.22 3.47Q62.70 2.90 61.40 2.90L61.40 2.90Q60.56 2.90 59.78 3.02Q59 3.14 58.52 3.31L58.52 3.31L58.11 0.94Q58.66 0.74 59.67 0.59Q60.68 0.43 61.76 0.43ZM69.51 12L69.51 1.08Q70.30 0.86 71.47 0.67Q72.63 0.48 74 0.48L74 0.48Q75.34 0.48 76.23 0.85Q77.12 1.22 77.64 1.91Q78.15 2.59 78.37 3.54Q78.58 4.49 78.58 5.64L78.58 5.64L78.58 12L75.63 12L75.63 6.02Q75.63 4.44 75.27 3.74Q74.91 3.05 73.81 3.05L73.81 3.05Q73.47 3.05 73.15 3.07Q72.82 3.10 72.46 3.14L72.46 3.14L72.46 12L69.51 12ZM83.79 6L83.79 6Q83.79 7.39 84.30 8.12Q84.80 8.86 85.88 8.86L85.88 8.86Q86.36 8.86 86.78 8.74Q87.20 8.62 87.54 8.42L87.54 8.42L87.54 3Q87.20 2.93 86.94 2.90Q86.67 2.88 86.38 2.88L86.38 2.88Q83.79 2.88 83.79 6ZM90.51 1.08L90.51 10.63Q90.51 13.39 89.18 14.71Q87.85 16.03 84.90 16.03L84.90 16.03Q83.84 16.03 82.87 15.82Q81.90 15.60 81.01 15.31L81.01 15.31L81.56 12.82Q82.26 13.08 83.02 13.31Q83.79 13.54 84.94 13.54L84.94 13.54Q85.71 13.54 86.22 13.36Q86.72 13.18 87.01 12.86Q87.30 12.55 87.42 12.13Q87.54 11.71 87.54 11.23L87.54 11.23L87.54 10.78Q86.91 11.02 86.40 11.14Q85.88 11.26 85.28 11.26L85.28 11.26Q83.07 11.26 81.93 9.86Q80.79 8.47 80.79 6L80.79 6Q80.79 3.22 82.33 1.85Q83.86 0.48 86.50 0.48L86.50 0.48Q88.35 0.48 90.51 1.08L90.51 1.08Z"/>
    </g>
</svg>