<?xml version="1.0" encoding="UTF-8"?>
<svg height="34" width="106.6" version="1.1" xmlns="http://www.w3.org/2000/svg">
    <rect
        height="32"
        width="104.6"
        rx="1"
        ry="1"
        x="1"
        y="1"
        fill="#B83998"
        stroke="#421437"
        stroke-width="1"
         />
    <g transform="translate(0, 14)">
        <path fill="#421437" d="M22.88 11L11.76 11L11.76-6.33L22.26-6.33L22.26-3.48L15.21-3.48L15.21 0.42L21.34 0.42L21.34 3.27L15.21 3.27L15.21 8.14L22.88 8.14L22.88 11ZM36.85-1.85L36.24 1.34Q35.90 1.26 35.44 1.17Q34.98 1.09 34.50 1.02Q34.02 0.95 33.58 0.92Q33.13 0.89 32.82 0.89L32.82 0.89Q32.09 0.89 31.39 0.96Q30.69 1.03 29.96 1.23L29.96 1.23L29.96 11L26.49 11L26.49-1.29Q27.86-1.80 29.31-2.10Q30.75-2.41 32.68-2.41L32.68-2.41Q32.96-2.41 33.48-2.38Q34.00-2.36 34.58-2.29Q35.17-2.22 35.77-2.12Q36.38-2.02 36.85-1.85L36.85-1.85ZM50.63 7.67L51.08 10.44Q50.99 10.50 50.70 10.64Q50.40 10.78 49.93 10.93Q49.45 11.08 48.77 11.20Q48.08 11.31 47.21 11.31L47.21 11.31Q44.83 11.31 43.74 9.89Q42.65 8.48 42.65 5.76L42.65 5.76L42.65-5.41L39.01-5.41L39.01-8.26L46.09-8.26L46.09 6.02Q46.09 7.36 46.62 7.84Q47.16 8.31 47.97 8.31L47.97 8.31Q49.00 8.31 49.70 8.03Q50.40 7.75 50.63 7.67L50.63 7.67ZM59.03 8.54L59.03 8.54Q59.59 8.54 60.12 8.52Q60.65 8.51 61.04 8.45L61.04 8.45L61.04 5.43Q60.71 5.37 60.23 5.33Q59.76 5.29 59.36 5.29L59.36 5.29Q58.83 5.29 58.33 5.36Q57.82 5.43 57.45 5.60Q57.07 5.76 56.84 6.07Q56.62 6.38 56.62 6.88L56.62 6.88Q56.62 7.78 57.29 8.16Q57.96 8.54 59.03 8.54ZM58.72-2.50L58.72-2.50Q60.34-2.50 61.42-2.12Q62.50-1.74 63.14-1.05Q63.79-0.37 64.07 0.63Q64.35 1.62 64.35 2.85L64.35 2.85L64.35 10.69Q63.59 10.86 62.11 11.08Q60.62 11.31 58.78 11.31L58.78 11.31Q57.52 11.31 56.49 11.08Q55.47 10.86 54.74 10.34Q54.02 9.82 53.62 9.00Q53.23 8.17 53.23 6.97L53.23 6.97Q53.23 5.82 53.68 5.04Q54.13 4.25 54.88 3.78Q55.64 3.30 56.62 3.09Q57.60 2.88 58.66 2.88L58.66 2.88Q60.01 2.88 61.04 3.10L61.04 3.10L61.04 2.68Q61.04 1.70 60.43 1.05Q59.81 0.39 58.30 0.39L58.30 0.39Q57.32 0.39 56.41 0.53Q55.50 0.67 54.94 0.86L54.94 0.86L54.46-1.91Q55.11-2.13 56.28-2.31Q57.46-2.50 58.72-2.50ZM67.76 11L67.76-1.74Q68.69-1.99 70.05-2.22Q71.40-2.44 73-2.44L73-2.44Q74.57-2.44 75.60-2.01Q76.64-1.57 77.24-0.77Q77.84 0.02 78.10 1.13Q78.35 2.24 78.35 3.58L78.35 3.58L78.35 11L74.90 11L74.90 4.03Q74.90 2.18 74.48 1.37Q74.06 0.56 72.78 0.56L72.78 0.56Q72.38 0.56 72.01 0.58Q71.63 0.61 71.21 0.67L71.21 0.67L71.21 11L67.76 11ZM84.42 4L84.42 4Q84.42 5.62 85.01 6.48Q85.60 7.33 86.86 7.33L86.86 7.33Q87.42 7.33 87.91 7.19Q88.40 7.05 88.79 6.83L88.79 6.83L88.79 0.50Q88.40 0.42 88.09 0.39Q87.78 0.36 87.45 0.36L87.45 0.36Q84.42 0.36 84.42 4ZM92.26-1.74L92.26 9.40Q92.26 12.62 90.71 14.16Q89.16 15.70 85.71 15.70L85.71 15.70Q84.48 15.70 83.35 15.45Q82.21 15.20 81.18 14.86L81.18 14.86L81.82 11.95Q82.63 12.26 83.53 12.53Q84.42 12.79 85.77 12.79L85.77 12.79Q86.66 12.79 87.25 12.58Q87.84 12.37 88.18 12.01Q88.51 11.64 88.65 11.15Q88.79 10.66 88.79 10.10L88.79 10.10L88.79 9.57Q88.06 9.85 87.46 9.99Q86.86 10.13 86.16 10.13L86.16 10.13Q83.58 10.13 82.25 8.51Q80.92 6.88 80.92 4L80.92 4Q80.92 0.75 82.72-0.84Q84.51-2.44 87.59-2.44L87.59-2.44Q89.74-2.44 92.26-1.74L92.26-1.74Z"/>
    </g>
</svg>