<?xml version="1.0" encoding="UTF-8"?><svg height="26" width="147.3" version="1.1" xmlns="http://www.w3.org/2000/svg"><!--Created by Josélio de S. C. Júnior - 2021 - https://github.com/joseliojunior --><defs><pattern id="pattern" x="3" y="3" width="6" height="6" patternUnits="userSpaceOnUse" patternTransform="rotate(45)"><rect height="6" width="6" fill="#ffffff"/><line x1="0" y1="0" x2="0" y2="6" stroke="#bbbbbb" stroke-width="2" /></pattern></defs><rect height="24" width="145.3" rx="12" ry="12" x="1" y="1" fill="url(#pattern)" /><g transform="translate(0, 8)"><path fill="#000000" d="M23.97 10.21L23.97 10.21Q23.01 10.21 22.36 9.94Q21.71 9.68 21.33 9.18Q20.94 8.69 20.78 7.98Q20.62 7.28 20.62 6.42L20.62 6.42L20.62 0.10L22.61 0.10L22.61 6.29Q22.61 6.91 22.67 7.34Q22.74 7.76 22.89 8.02Q23.04 8.27 23.31 8.38Q23.58 8.50 24 8.50L24 8.50Q24.42 8.50 24.69 8.38Q24.96 8.27 25.12 8.01Q25.28 7.74 25.34 7.32Q25.41 6.90 25.41 6.27L25.41 6.27L25.41 0.10L27.38 0.10L27.38 6.42Q27.38 7.28 27.22 7.98Q27.06 8.69 26.66 9.18Q26.26 9.68 25.60 9.94Q24.94 10.21 23.97 10.21ZM29.01 10L29.01 2.72Q29.54 2.58 30.31 2.45Q31.09 2.32 32 2.32L32 2.32Q32.90 2.32 33.49 2.57Q34.08 2.82 34.42 3.27Q34.77 3.73 34.91 4.36Q35.06 4.99 35.06 5.76L35.06 5.76L35.06 10L33.09 10L33.09 6.02Q33.09 4.96 32.85 4.50Q32.61 4.03 31.87 4.03L31.87 4.03Q31.65 4.03 31.43 4.05Q31.22 4.06 30.98 4.10L30.98 4.10L30.98 10L29.01 10ZM40.54 0.32L40.54 0.32Q40.54 0.90 40.18 1.23Q39.81 1.57 39.30 1.57L39.30 1.57Q38.78 1.57 38.42 1.23Q38.06 0.90 38.06 0.32L38.06 0.32Q38.06-0.27 38.42-0.61Q38.78-0.94 39.30-0.94L39.30-0.94Q39.81-0.94 40.18-0.61Q40.54-0.27 40.54 0.32ZM43.22 8.10L43.47 9.68Q42.86 9.97 42.33 10.07Q41.79 10.18 41.34 10.18L41.34 10.18Q40.58 10.18 40.06 9.95Q39.54 9.73 39.22 9.30Q38.91 8.88 38.78 8.27Q38.66 7.66 38.66 6.88L38.66 6.88L38.66 4.11L36.58 4.11L36.58 2.48L40.62 2.48L40.62 7.14Q40.62 7.81 40.87 8.14Q41.12 8.46 41.70 8.46L41.70 8.46Q41.97 8.46 42.35 8.39Q42.74 8.32 43.22 8.10L43.22 8.10ZM46.40 2.48L48.06 4.83L49.60 2.48L51.60 2.48L49.17 6.10Q49.55 6.56 49.92 7.08Q50.29 7.60 50.62 8.13Q50.96 8.66 51.23 9.14Q51.50 9.62 51.70 10L51.70 10L49.65 10Q49.22 9.18 48.78 8.54Q48.35 7.90 47.97 7.39L47.97 7.39Q47.49 8.03 47.10 8.64Q46.72 9.25 46.32 10L46.32 10L44.32 10Q44.56 9.55 44.87 9.06Q45.18 8.58 45.53 8.07Q45.87 7.57 46.25 7.07Q46.62 6.58 46.98 6.13L46.98 6.13L44.34 2.48L46.40 2.48ZM67.86 10L65.74 10L65.28 7.71L62.64 7.71L62.19 10L60.14 10Q60.85 7.07 61.57 4.66Q62.29 2.26 62.96 0.10L62.96 0.10L65.10 0.10Q65.81 2.27 66.50 4.71Q67.20 7.15 67.86 10L67.86 10ZM63.98 2.02L63.98 2.02Q63.82 2.58 63.69 3.08Q63.55 3.58 63.43 4.07Q63.31 4.56 63.21 5.06Q63.10 5.55 63.01 6.08L63.01 6.08L64.94 6.08Q64.85 5.55 64.75 5.06Q64.66 4.56 64.54 4.07Q64.42 3.58 64.28 3.08Q64.14 2.58 63.98 2.02ZM71.65 8.51L71.65 8.51Q72.37 8.51 72.75 8.41Q73.14 8.30 73.14 7.98L73.14 7.98Q73.14 7.78 73.02 7.63Q72.90 7.49 72.68 7.38Q72.46 7.28 72.18 7.18Q71.90 7.09 71.60 6.99L71.60 6.99Q71.17 6.86 70.72 6.70Q70.27 6.53 69.90 6.27Q69.54 6.02 69.30 5.62Q69.06 5.23 69.06 4.64L69.06 4.64Q69.06 4.16 69.24 3.74Q69.42 3.31 69.82 2.98Q70.21 2.66 70.82 2.47Q71.42 2.29 72.27 2.29L72.27 2.29Q73.01 2.29 73.64 2.40Q74.27 2.51 74.74 2.72L74.74 2.72L74.43 4.38Q74.16 4.30 73.58 4.12Q73.01 3.94 72.29 3.94L72.29 3.94Q71.54 3.94 71.27 4.12Q71.01 4.30 71.01 4.51L71.01 4.51Q71.01 4.69 71.13 4.82Q71.25 4.96 71.45 5.07Q71.65 5.18 71.91 5.29Q72.18 5.39 72.48 5.49L72.48 5.49Q72.91 5.63 73.38 5.81Q73.84 5.98 74.22 6.25Q74.59 6.51 74.83 6.92Q75.07 7.33 75.07 7.92L75.07 7.92Q75.07 8.38 74.90 8.80Q74.72 9.22 74.31 9.52Q73.90 9.82 73.25 10Q72.59 10.18 71.63 10.18L71.63 10.18Q70.66 10.18 69.97 9.95Q69.28 9.73 68.86 9.55L68.86 9.55L69.17 7.90Q69.73 8.13 70.36 8.32Q70.99 8.51 71.65 8.51ZM79.65 8.51L79.65 8.51Q80.37 8.51 80.75 8.41Q81.14 8.30 81.14 7.98L81.14 7.98Q81.14 7.78 81.02 7.63Q80.90 7.49 80.68 7.38Q80.46 7.28 80.18 7.18Q79.90 7.09 79.60 6.99L79.60 6.99Q79.17 6.86 78.72 6.70Q78.27 6.53 77.90 6.27Q77.54 6.02 77.30 5.62Q77.06 5.23 77.06 4.64L77.06 4.64Q77.06 4.16 77.24 3.74Q77.42 3.31 77.82 2.98Q78.21 2.66 78.82 2.47Q79.42 2.29 80.27 2.29L80.27 2.29Q81.01 2.29 81.64 2.40Q82.27 2.51 82.74 2.72L82.74 2.72L82.43 4.38Q82.16 4.30 81.58 4.12Q81.01 3.94 80.29 3.94L80.29 3.94Q79.54 3.94 79.27 4.12Q79.01 4.30 79.01 4.51L79.01 4.51Q79.01 4.69 79.13 4.82Q79.25 4.96 79.45 5.07Q79.65 5.18 79.91 5.29Q80.18 5.39 80.48 5.49L80.48 5.49Q80.91 5.63 81.38 5.81Q81.84 5.98 82.22 6.25Q82.59 6.51 82.83 6.92Q83.07 7.33 83.07 7.92L83.07 7.92Q83.07 8.38 82.90 8.80Q82.72 9.22 82.31 9.52Q81.90 9.82 81.25 10Q80.59 10.18 79.63 10.18L79.63 10.18Q78.66 10.18 77.97 9.95Q77.28 9.73 76.86 9.55L76.86 9.55L77.17 7.90Q77.73 8.13 78.36 8.32Q78.99 8.51 79.65 8.51ZM84.50 6.30L84.50 6.30Q84.50 5.31 84.80 4.56Q85.10 3.81 85.60 3.30Q86.10 2.80 86.74 2.54Q87.38 2.29 88.05 2.29L88.05 2.29Q89.71 2.29 90.58 3.27Q91.44 4.26 91.44 6.14L91.44 6.14Q91.44 6.34 91.43 6.54Q91.42 6.75 91.41 6.88L91.41 6.88L86.53 6.88Q86.53 7.62 87.14 8.04Q87.74 8.46 88.70 8.46L88.70 8.46Q89.30 8.46 89.83 8.34Q90.37 8.21 90.74 8.08L90.74 8.08L91.01 9.76Q90.50 9.94 89.92 10.06Q89.34 10.18 88.62 10.18L88.62 10.18Q87.66 10.18 86.90 9.93Q86.14 9.68 85.61 9.19Q85.07 8.70 84.78 7.98Q84.50 7.26 84.50 6.30ZM86.53 5.52L89.54 5.52Q89.54 5.22 89.46 4.94Q89.38 4.66 89.20 4.43Q89.02 4.21 88.75 4.07Q88.48 3.94 88.08 3.94L88.08 3.94Q87.70 3.94 87.42 4.06Q87.14 4.19 86.95 4.42Q86.77 4.64 86.66 4.93Q86.56 5.22 86.53 5.52L86.53 5.52ZM97.49 2.40L97.49 2.40Q98.11 2.40 98.51 2.59Q98.91 2.78 99.14 3.17Q99.38 3.55 99.46 4.14Q99.54 4.72 99.54 5.50L99.54 5.50L99.54 10L97.94 10L97.94 5.41Q97.94 4.96 97.88 4.69Q97.82 4.42 97.74 4.27Q97.65 4.13 97.53 4.08Q97.41 4.03 97.28 4.03L97.28 4.03Q97.14 4.03 96.98 4.06Q96.82 4.08 96.69 4.14L96.69 4.14Q96.74 4.45 96.77 4.82Q96.80 5.18 96.80 5.63L96.80 5.63L96.80 7.14L95.20 7.14L95.20 5.41Q95.20 4.64 95.05 4.34Q94.90 4.03 94.56 4.03L94.56 4.03Q94.46 4.03 94.33 4.05Q94.19 4.06 94.06 4.10L94.06 4.10L94.06 10L92.46 10L92.46 2.77Q93.09 2.59 93.70 2.50Q94.30 2.40 94.77 2.40L94.77 2.40Q95.18 2.40 95.51 2.50Q95.84 2.61 96.08 2.85L96.08 2.85Q96.35 2.67 96.72 2.54Q97.09 2.40 97.49 2.40ZM105.52 6.19L105.52 6.19Q105.52 5.14 105.18 4.58Q104.83 4.02 104.13 4.02L104.13 4.02Q103.81 4.02 103.50 4.10Q103.18 4.19 102.96 4.32L102.96 4.32L102.96 8.40Q103.18 8.45 103.43 8.46Q103.68 8.48 103.86 8.48L103.86 8.48Q104.62 8.48 105.07 7.96Q105.52 7.44 105.52 6.19ZM107.52 6.24L107.52 6.24Q107.52 7.14 107.28 7.86Q107.04 8.59 106.58 9.10Q106.11 9.62 105.44 9.90Q104.77 10.18 103.90 10.18L103.90 10.18Q103.14 10.18 102.34 10.06Q101.54 9.95 100.99 9.78L100.99 9.78L100.99-0.77L102.96-1.10L102.96 2.66Q103.38 2.46 103.76 2.39Q104.14 2.32 104.53 2.32L104.53 2.32Q105.26 2.32 105.82 2.60Q106.38 2.88 106.76 3.40Q107.14 3.92 107.33 4.64Q107.52 5.36 107.52 6.24ZM115.22 8.10L115.47 9.68Q115.42 9.71 115.26 9.79Q115.09 9.87 114.82 9.96Q114.54 10.05 114.15 10.11Q113.76 10.18 113.26 10.18L113.26 10.18Q111.90 10.18 111.28 9.37Q110.66 8.56 110.66 7.01L110.66 7.01L110.66 0.62L108.58 0.62L108.58-1.01L112.62-1.01L112.62 7.15Q112.62 7.92 112.93 8.19Q113.23 8.46 113.70 8.46L113.70 8.46Q114.29 8.46 114.69 8.30Q115.09 8.14 115.22 8.10L115.22 8.10ZM121.54 2.48L123.55 2.48Q123.25 3.54 122.97 4.55Q122.69 5.57 122.38 6.54Q122.08 7.50 121.74 8.43Q121.39 9.36 120.99 10.24L120.99 10.24Q120.69 10.88 120.39 11.34Q120.10 11.81 119.74 12.10Q119.38 12.40 118.94 12.54Q118.50 12.69 117.90 12.69L117.90 12.69Q117.41 12.69 117 12.61Q116.59 12.53 116.32 12.40L116.32 12.40L116.69 10.75Q117.01 10.90 117.26 10.95Q117.50 11.01 117.79 11.01L117.79 11.01Q118.37 11.01 118.72 10.62Q119.07 10.24 119.28 9.71L119.28 9.71Q118.58 8.30 117.87 6.49Q117.17 4.67 116.59 2.48L116.59 2.48L118.64 2.48Q118.78 3.07 118.97 3.74Q119.15 4.42 119.36 5.09Q119.57 5.76 119.80 6.41Q120.03 7.06 120.27 7.62L120.27 7.62Q120.43 7.06 120.61 6.41Q120.78 5.76 120.94 5.10Q121.10 4.43 121.26 3.76Q121.41 3.09 121.54 2.48L121.54 2.48Z"/></g></svg>