<?xml version="1.0" encoding="UTF-8"?>
<svg height="34" width="318.09999999999997" version="1.1" xmlns="http://www.w3.org/2000/svg">
    <rect
        height="32"
        width="316.09999999999997"
        rx="1"
        ry="1"
        x="1"
        y="1"
        fill="#244776"
        stroke="#6392cf"
        stroke-width="1"
         />
    <g transform="translate(0, 14)">
        <path fill="#6392cf" d="M22.88 8.14L22.88 11L11.99 11L11.99-6.33L15.46-6.33L15.46 8.14L22.88 8.14ZM31.95-5.94L31.95-5.94Q31.95-4.93 31.31-4.34Q30.66-3.76 29.77-3.76L29.77-3.76Q28.87-3.76 28.24-4.34Q27.61-4.93 27.61-5.94L27.61-5.94Q27.61-6.98 28.24-7.56Q28.87-8.15 29.77-8.15L29.77-8.15Q30.66-8.15 31.31-7.56Q31.95-6.98 31.95-5.94ZM36.63 7.67L37.08 10.44Q36.01 10.94 35.07 11.13Q34.14 11.31 33.35 11.31L33.35 11.31Q32.01 11.31 31.10 10.92Q30.19 10.52 29.64 9.78Q29.10 9.04 28.87 7.98Q28.65 6.91 28.65 5.54L28.65 5.54L28.65 0.70L25.01 0.70L25.01-2.16L32.09-2.16L32.09 5.99Q32.09 7.16 32.53 7.74Q32.96 8.31 33.97 8.31L33.97 8.31Q34.44 8.31 35.12 8.19Q35.79 8.06 36.63 7.67L36.63 7.67ZM42.00 6.10L42.00 0.70L39.01 0.70L39.01-2.16L42.00-2.16L42.00-5.46L45.45-6.02L45.45-2.16L50.96-2.16L50.96 0.70L45.45 0.70L45.45 6.02Q45.45 6.74 45.59 7.19Q45.73 7.64 45.98 7.89Q46.23 8.14 46.60 8.23Q46.96 8.31 47.41 8.31L47.41 8.31Q47.88 8.31 48.29 8.28Q48.70 8.26 49.07 8.19Q49.45 8.12 49.86 7.98Q50.26 7.84 50.74 7.61L50.74 7.61L51.22 10.58Q50.26 10.97 49.16 11.14Q48.05 11.31 47.02 11.31L47.02 11.31Q45.81 11.31 44.89 11.11Q43.96 10.92 43.32 10.36Q42.68 9.80 42.34 8.77Q42.00 7.75 42.00 6.10L42.00 6.10ZM52.87 4.53L52.87 4.53Q52.87 2.80 53.40 1.48Q53.93 0.16 54.80-0.72Q55.67-1.60 56.79-2.05Q57.91-2.50 59.08-2.50L59.08-2.50Q62.00-2.50 63.51-0.77Q65.02 0.95 65.02 4.25L65.02 4.25Q65.02 4.59 65.01 4.95Q64.99 5.32 64.96 5.54L64.96 5.54L56.42 5.54Q56.42 6.83 57.49 7.57Q58.55 8.31 60.23 8.31L60.23 8.31Q61.27 8.31 62.21 8.09Q63.14 7.86 63.79 7.64L63.79 7.64L64.26 10.58Q63.37 10.89 62.36 11.10Q61.35 11.31 60.09 11.31L60.09 11.31Q58.41 11.31 57.08 10.87Q55.75 10.44 54.81 9.59Q53.88 8.73 53.37 7.47Q52.87 6.21 52.87 4.53ZM56.42 3.16L61.69 3.16Q61.69 2.63 61.55 2.14Q61.41 1.65 61.10 1.26Q60.79 0.86 60.32 0.63Q59.84 0.39 59.14 0.39L59.14 0.39Q58.47 0.39 57.98 0.61Q57.49 0.84 57.17 1.23Q56.84 1.62 56.66 2.12Q56.48 2.63 56.42 3.16L56.42 3.16ZM78.85-1.85L78.24 1.34Q77.90 1.26 77.44 1.17Q76.98 1.09 76.50 1.02Q76.02 0.95 75.58 0.92Q75.13 0.89 74.82 0.89L74.82 0.89Q74.09 0.89 73.39 0.96Q72.69 1.03 71.96 1.23L71.96 1.23L71.96 11L68.49 11L68.49-1.29Q69.86-1.80 71.31-2.10Q72.75-2.41 74.68-2.41L74.68-2.41Q74.96-2.41 75.48-2.38Q76.00-2.36 76.58-2.29Q77.17-2.22 77.77-2.12Q78.38-2.02 78.85-1.85L78.85-1.85ZM87.03 8.54L87.03 8.54Q87.59 8.54 88.12 8.52Q88.65 8.51 89.04 8.45L89.04 8.45L89.04 5.43Q88.71 5.37 88.23 5.33Q87.76 5.29 87.36 5.29L87.36 5.29Q86.83 5.29 86.33 5.36Q85.82 5.43 85.45 5.60Q85.07 5.76 84.84 6.07Q84.62 6.38 84.62 6.88L84.62 6.88Q84.62 7.78 85.29 8.16Q85.96 8.54 87.03 8.54ZM86.72-2.50L86.72-2.50Q88.34-2.50 89.42-2.12Q90.50-1.74 91.14-1.05Q91.79-0.37 92.07 0.63Q92.35 1.62 92.35 2.85L92.35 2.85L92.35 10.69Q91.59 10.86 90.11 11.08Q88.62 11.31 86.78 11.31L86.78 11.31Q85.52 11.31 84.49 11.08Q83.47 10.86 82.74 10.34Q82.02 9.82 81.62 9.00Q81.23 8.17 81.23 6.97L81.23 6.97Q81.23 5.82 81.68 5.04Q82.13 4.25 82.88 3.78Q83.64 3.30 84.62 3.09Q85.60 2.88 86.66 2.88L86.66 2.88Q88.01 2.88 89.04 3.10L89.04 3.10L89.04 2.68Q89.04 1.70 88.43 1.05Q87.81 0.39 86.30 0.39L86.30 0.39Q85.32 0.39 84.41 0.53Q83.50 0.67 82.94 0.86L82.94 0.86L82.46-1.91Q83.11-2.13 84.28-2.31Q85.46-2.50 86.72-2.50ZM98.00 6.10L98.00 0.70L95.01 0.70L95.01-2.16L98.00-2.16L98.00-5.46L101.45-6.02L101.45-2.16L106.96-2.16L106.96 0.70L101.45 0.70L101.45 6.02Q101.45 6.74 101.59 7.19Q101.73 7.64 101.98 7.89Q102.23 8.14 102.60 8.23Q102.96 8.31 103.41 8.31L103.41 8.31Q103.88 8.31 104.29 8.28Q104.70 8.26 105.07 8.19Q105.45 8.12 105.86 7.98Q106.26 7.84 106.74 7.61L106.74 7.61L107.22 10.58Q106.26 10.97 105.16 11.14Q104.05 11.31 103.02 11.31L103.02 11.31Q101.81 11.31 100.89 11.11Q99.96 10.92 99.32 10.36Q98.68 9.80 98.34 8.77Q98.00 7.75 98.00 6.10L98.00 6.10ZM108.87 4.53L108.87 4.53Q108.87 2.80 109.40 1.48Q109.93 0.16 110.80-0.72Q111.67-1.60 112.79-2.05Q113.91-2.50 115.08-2.50L115.08-2.50Q118.00-2.50 119.51-0.77Q121.02 0.95 121.02 4.25L121.02 4.25Q121.02 4.59 121.01 4.95Q120.99 5.32 120.96 5.54L120.96 5.54L112.42 5.54Q112.42 6.83 113.49 7.57Q114.55 8.31 116.23 8.31L116.23 8.31Q117.27 8.31 118.21 8.09Q119.14 7.86 119.79 7.64L119.79 7.64L120.26 10.58Q119.37 10.89 118.36 11.10Q117.35 11.31 116.09 11.31L116.09 11.31Q114.41 11.31 113.08 10.87Q111.75 10.44 110.81 9.59Q109.88 8.73 109.37 7.47Q108.87 6.21 108.87 4.53ZM112.42 3.16L117.69 3.16Q117.69 2.63 117.55 2.14Q117.41 1.65 117.10 1.26Q116.79 0.86 116.32 0.63Q115.84 0.39 115.14 0.39L115.14 0.39Q114.47 0.39 113.98 0.61Q113.49 0.84 113.17 1.23Q112.84 1.62 112.66 2.12Q112.48 2.63 112.42 3.16L112.42 3.16ZM144.29 11.36L144.29 11.36Q140.62 11.36 138.69 9.01Q136.76 6.66 136.76 2.32L136.76 2.32Q136.76 0.16 137.34-1.52Q137.93-3.20 138.98-4.36Q140.03-5.52 141.47-6.12Q142.92-6.72 144.62-6.72L144.62-6.72Q145.55-6.72 146.29-6.57Q147.03-6.42 147.59-6.22Q148.15-6.02 148.53-5.80Q148.91-5.58 149.10-5.46L149.10-5.46L148.21-2.72Q147.56-3.14 146.65-3.43Q145.74-3.73 144.57-3.73L144.57-3.73Q143.76-3.73 142.99-3.43Q142.22-3.14 141.61-2.45Q141.01-1.77 140.63-0.62Q140.26 0.53 140.26 2.24L140.26 2.24Q140.26 5.20 141.28 6.79Q142.30 8.37 144.62 8.37L144.62 8.37Q145.97 8.37 146.85 8.06Q147.73 7.75 148.26 7.44L148.26 7.44L149.13 10.16Q148.40 10.61 147.16 10.99Q145.91 11.36 144.29 11.36ZM163.22 4.39L163.22 4.39Q163.22 5.96 162.77 7.23Q162.32 8.51 161.51 9.43Q160.70 10.36 159.56 10.86Q158.43 11.36 157.03 11.36L157.03 11.36Q155.63 11.36 154.49 10.86Q153.36 10.36 152.53 9.43Q151.71 8.51 151.26 7.23Q150.81 5.96 150.81 4.39L150.81 4.39Q150.81 2.85 151.27 1.58Q151.74 0.30 152.56-0.61Q153.39-1.52 154.54-2.01Q155.68-2.50 157.03-2.50L157.03-2.50Q158.40-2.50 159.53-2.01Q160.67-1.52 161.49-0.61Q162.32 0.30 162.77 1.58Q163.22 2.85 163.22 4.39ZM154.31 4.42L154.31 4.42Q154.31 6.18 154.94 7.28Q155.57 8.37 156.97 8.37L156.97 8.37Q158.32 8.37 159.00 7.28Q159.69 6.18 159.69 4.42L159.69 4.42Q159.69 2.66 159.06 1.58Q158.43 0.50 157.03 0.50L157.03 0.50Q155.68 0.50 155.00 1.58Q154.31 2.66 154.31 4.42ZM171.36 11L167.89 11L167.89 0.70L165.01 0.70L165.01-2.16L167.89-2.16L167.89-2.92Q167.89-4.51 168.35-5.56Q168.82-6.61 169.60-7.24Q170.38-7.87 171.39-8.14Q172.40-8.40 173.46-8.40L173.46-8.40Q174.56-8.40 175.70-8.21Q176.85-8.01 177.78-7.56L177.78-7.56L177.19-4.76Q176.54-4.99 175.58-5.23Q174.61-5.46 173.74-5.46L173.74-5.46Q173.27-5.46 172.83-5.38Q172.40-5.30 172.08-5.02Q171.76-4.74 171.56-4.22Q171.36-3.70 171.36-2.86L171.36-2.86L171.36-2.16L176.77-2.16L176.77 0.70L171.36 0.70L171.36 11ZM185.36 11L181.89 11L181.89 0.70L179.01 0.70L179.01-2.16L181.89-2.16L181.89-2.92Q181.89-4.51 182.35-5.56Q182.82-6.61 183.60-7.24Q184.38-7.87 185.39-8.14Q186.40-8.40 187.46-8.40L187.46-8.40Q188.56-8.40 189.70-8.21Q190.85-8.01 191.78-7.56L191.78-7.56L191.19-4.76Q190.54-4.99 189.58-5.23Q188.61-5.46 187.74-5.46L187.74-5.46Q187.27-5.46 186.83-5.38Q186.40-5.30 186.08-5.02Q185.76-4.74 185.56-4.22Q185.36-3.70 185.36-2.86L185.36-2.86L185.36-2.16L190.77-2.16L190.77 0.70L185.36 0.70L185.36 11ZM192.87 4.53L192.87 4.53Q192.87 2.80 193.40 1.48Q193.93 0.16 194.80-0.72Q195.67-1.60 196.79-2.05Q197.91-2.50 199.08-2.50L199.08-2.50Q202.00-2.50 203.51-0.77Q205.02 0.95 205.02 4.25L205.02 4.25Q205.02 4.59 205.01 4.95Q204.99 5.32 204.96 5.54L204.96 5.54L196.42 5.54Q196.42 6.83 197.49 7.57Q198.55 8.31 200.23 8.31L200.23 8.31Q201.27 8.31 202.21 8.09Q203.14 7.86 203.79 7.64L203.79 7.64L204.26 10.58Q203.37 10.89 202.36 11.10Q201.35 11.31 200.09 11.31L200.09 11.31Q198.41 11.31 197.08 10.87Q195.75 10.44 194.81 9.59Q193.88 8.73 193.37 7.47Q192.87 6.21 192.87 4.53ZM196.42 3.16L201.69 3.16Q201.69 2.63 201.55 2.14Q201.41 1.65 201.10 1.26Q200.79 0.86 200.32 0.63Q199.84 0.39 199.14 0.39L199.14 0.39Q198.47 0.39 197.98 0.61Q197.49 0.84 197.17 1.23Q196.84 1.62 196.66 2.12Q196.48 2.63 196.42 3.16L196.42 3.16ZM206.87 4.53L206.87 4.53Q206.87 2.80 207.40 1.48Q207.93 0.16 208.80-0.72Q209.67-1.60 210.79-2.05Q211.91-2.50 213.08-2.50L213.08-2.50Q216.00-2.50 217.51-0.77Q219.02 0.95 219.02 4.25L219.02 4.25Q219.02 4.59 219.01 4.95Q218.99 5.32 218.96 5.54L218.96 5.54L210.42 5.54Q210.42 6.83 211.49 7.57Q212.55 8.31 214.23 8.31L214.23 8.31Q215.27 8.31 216.21 8.09Q217.14 7.86 217.79 7.64L217.79 7.64L218.26 10.58Q217.37 10.89 216.36 11.10Q215.35 11.31 214.09 11.31L214.09 11.31Q212.41 11.31 211.08 10.87Q209.75 10.44 208.81 9.59Q207.88 8.73 207.37 7.47Q206.87 6.21 206.87 4.53ZM210.42 3.16L215.69 3.16Q215.69 2.63 215.55 2.14Q215.41 1.65 215.10 1.26Q214.79 0.86 214.32 0.63Q213.84 0.39 213.14 0.39L213.14 0.39Q212.47 0.39 211.98 0.61Q211.49 0.84 211.17 1.23Q210.84 1.62 210.66 2.12Q210.48 2.63 210.42 3.16L210.42 3.16ZM226.50 8.48L226.50 8.48Q227.36 8.48 227.94 8.30Q228.51 8.12 228.85 7.79Q229.18 7.47 229.31 7.07Q229.44 6.66 229.44 6.24L229.44 6.24Q229.44 5.71 229.13 5.29Q228.82 4.87 228.34 4.55Q227.87 4.22 227.28 3.96Q226.69 3.69 226.10 3.47L226.10 3.47Q225.32 3.19 224.48 2.82Q223.64 2.46 222.95 1.90Q222.27 1.34 221.82 0.51Q221.37-0.31 221.37-1.54L221.37-1.54Q221.37-3.98 222.95-5.35Q224.54-6.72 227.31-6.72L227.31-6.72Q228.90-6.72 230.09-6.36Q231.28-6.00 232.10-5.55L232.10-5.55L231.09-2.89Q230.39-3.28 229.53-3.56Q228.68-3.84 227.56-3.84L227.56-3.84Q224.82-3.84 224.82-1.85L224.82-1.85Q224.82-1.35 225.10-0.97Q225.38-0.59 225.81-0.30Q226.24-0.00 226.79 0.22Q227.34 0.44 227.87 0.64L227.87 0.64Q228.68 0.95 229.56 1.33Q230.44 1.70 231.19 2.33Q231.93 2.96 232.40 3.90Q232.88 4.84 232.88 6.27L232.88 6.27Q232.88 8.70 231.30 10.03Q229.72 11.36 226.50 11.36L226.50 11.36Q224.34 11.36 223.05 10.90Q221.76 10.44 221.12 10.05L221.12 10.05L222.13 7.25Q222.88 7.70 223.93 8.09Q224.98 8.48 226.50 8.48ZM235.23 4.42L235.23 4.42Q235.23 2.99 235.68 1.73Q236.13 0.47 237.05-0.47Q237.98-1.40 239.39-1.95Q240.80-2.50 242.76-2.50L242.76-2.50Q243.94-2.50 244.89-2.33Q245.84-2.16 246.82-1.77L246.82-1.77L246.07 1.00Q245.51 0.81 244.82 0.65Q244.14 0.50 243.07 0.50L243.07 0.50Q241.84 0.50 241.01 0.79Q240.19 1.09 239.68 1.61Q239.18 2.12 238.96 2.85Q238.73 3.58 238.73 4.42L238.73 4.42Q238.73 6.24 239.75 7.28Q240.78 8.31 243.24 8.31L243.24 8.31Q244.05 8.31 244.93 8.20Q245.82 8.09 246.54 7.84L246.54 7.84L247.05 10.66Q246.32 10.94 245.28 11.13Q244.25 11.31 242.85 11.31L242.85 11.31Q240.83 11.31 239.39 10.78Q237.95 10.24 237.02 9.32Q236.10 8.40 235.67 7.14Q235.23 5.88 235.23 4.42ZM260.85-1.85L260.24 1.34Q259.90 1.26 259.44 1.17Q258.98 1.09 258.50 1.02Q258.02 0.95 257.58 0.92Q257.13 0.89 256.82 0.89L256.82 0.89Q256.09 0.89 255.39 0.96Q254.69 1.03 253.96 1.23L253.96 1.23L253.96 11L250.49 11L250.49-1.29Q251.86-1.80 253.31-2.10Q254.75-2.41 256.68-2.41L256.68-2.41Q256.96-2.41 257.48-2.38Q258.00-2.36 258.58-2.29Q259.17-2.22 259.77-2.12Q260.38-2.02 260.85-1.85L260.85-1.85ZM269.95-5.94L269.95-5.94Q269.95-4.93 269.31-4.34Q268.66-3.76 267.77-3.76L267.77-3.76Q266.87-3.76 266.24-4.34Q265.61-4.93 265.61-5.94L265.61-5.94Q265.61-6.98 266.24-7.56Q266.87-8.15 267.77-8.15L267.77-8.15Q268.66-8.15 269.31-7.56Q269.95-6.98 269.95-5.94ZM274.63 7.67L275.08 10.44Q274.01 10.94 273.07 11.13Q272.14 11.31 271.35 11.31L271.35 11.31Q270.01 11.31 269.10 10.92Q268.19 10.52 267.64 9.78Q267.10 9.04 266.87 7.98Q266.65 6.91 266.65 5.54L266.65 5.54L266.65 0.70L263.01 0.70L263.01-2.16L270.09-2.16L270.09 5.99Q270.09 7.16 270.53 7.74Q270.96 8.31 271.97 8.31L271.97 8.31Q272.44 8.31 273.12 8.19Q273.79 8.06 274.63 7.67L274.63 7.67ZM285.63 4.53L285.63 4.53Q285.63 2.77 284.93 1.63Q284.23 0.50 282.80 0.50L282.80 0.50Q282.41 0.50 281.96 0.54Q281.52 0.58 281.21 0.61L281.21 0.61L281.21 7.84Q281.54 8.06 282.10 8.20Q282.66 8.34 283.22 8.34L283.22 8.34Q284.46 8.34 285.04 7.35Q285.63 6.35 285.63 4.53ZM289.13 4.42L289.13 4.42Q289.13 5.93 288.80 7.21Q288.46 8.48 287.82 9.39Q287.17 10.30 286.19 10.80Q285.21 11.31 283.92 11.31L283.92 11.31Q282.61 11.31 281.21 10.66L281.21 10.66L281.21 15.62L277.76 15.62L277.76-1.74Q278.72-2.05 280.10-2.24Q281.49-2.44 282.83-2.44L282.83-2.44Q285.88-2.44 287.51-0.59Q289.13 1.26 289.13 4.42ZM294.00 6.10L294.00 0.70L291.01 0.70L291.01-2.16L294.00-2.16L294.00-5.46L297.45-6.02L297.45-2.16L302.96-2.16L302.96 0.70L297.45 0.70L297.45 6.02Q297.45 6.74 297.59 7.19Q297.73 7.64 297.98 7.89Q298.23 8.14 298.60 8.23Q298.96 8.31 299.41 8.31L299.41 8.31Q299.88 8.31 300.29 8.28Q300.70 8.26 301.07 8.19Q301.45 8.12 301.86 7.98Q302.26 7.84 302.74 7.61L302.74 7.61L303.22 10.58Q302.26 10.97 301.16 11.14Q300.05 11.31 299.02 11.31L299.02 11.31Q297.81 11.31 296.89 11.11Q295.96 10.92 295.32 10.36Q294.68 9.80 294.34 8.77Q294.00 7.75 294.00 6.10L294.00 6.10Z"/>
    </g>
</svg>