<?xml version="1.0" encoding="UTF-8"?>
<svg height="34" width="296.1" version="1.1" xmlns="http://www.w3.org/2000/svg"><!--Created by Josélio de S. C. Júnior - 2021 - https://github.com/joseliojunior -->
    <rect
        height="32"
        width="294.1"
        rx="1"
        ry="1"
        x="1" y="1"
        fill="#244776"
        stroke="#6392cf"
        stroke-width="1" />
    <g transform="translate(0, 12)">
        <path fill="#6392cf" d="M31.04 9.55L31.04 12L21.70 12L21.70-2.86L24.68-2.86L24.68 9.55L31.04 9.55ZM38.82-2.52L38.82-2.52Q38.82-1.66 38.26-1.15Q37.71-0.65 36.94-0.65L36.94-0.65Q36.18-0.65 35.64-1.15Q35.10-1.66 35.10-2.52L35.10-2.52Q35.10-3.41 35.64-3.91Q36.18-4.42 36.94-4.42L36.94-4.42Q37.71-4.42 38.26-3.91Q38.82-3.41 38.82-2.52ZM42.82 9.14L43.21 11.52Q42.30 11.95 41.49 12.11Q40.69 12.26 40.02 12.26L40.02 12.26Q38.86 12.26 38.08 11.93Q37.30 11.59 36.84 10.96Q36.37 10.32 36.18 9.41Q35.98 8.50 35.98 7.32L35.98 7.32L35.98 3.17L32.86 3.17L32.86 0.72L38.94 0.72L38.94 7.70Q38.94 8.71 39.31 9.20Q39.68 9.70 40.54 9.70L40.54 9.70Q40.95 9.70 41.53 9.59Q42.10 9.48 42.82 9.14L42.82 9.14ZM47.43 7.80L47.43 3.17L44.86 3.17L44.86 0.72L47.43 0.72L47.43-2.11L50.38-2.59L50.38 0.72L55.11 0.72L55.11 3.17L50.38 3.17L50.38 7.73Q50.38 8.35 50.50 8.74Q50.62 9.12 50.84 9.34Q51.06 9.55 51.37 9.62Q51.68 9.70 52.06 9.70L52.06 9.70Q52.47 9.70 52.82 9.67Q53.17 9.65 53.49 9.59Q53.82 9.53 54.16 9.41Q54.51 9.29 54.92 9.10L54.92 9.10L55.33 11.64Q54.51 11.98 53.56 12.12Q52.62 12.26 51.73 12.26L51.73 12.26Q50.70 12.26 49.90 12.10Q49.11 11.93 48.56 11.45Q48.01 10.97 47.72 10.09Q47.43 9.22 47.43 7.80L47.43 7.80ZM56.74 6.46L56.74 6.46Q56.74 4.97 57.20 3.84Q57.66 2.71 58.40 1.96Q59.14 1.20 60.10 0.82Q61.06 0.43 62.07 0.43L62.07 0.43Q64.57 0.43 65.86 1.91Q67.16 3.38 67.16 6.22L67.16 6.22Q67.16 6.50 67.15 6.82Q67.14 7.13 67.11 7.32L67.11 7.32L59.79 7.32Q59.79 8.42 60.70 9.06Q61.62 9.70 63.06 9.70L63.06 9.70Q63.94 9.70 64.75 9.50Q65.55 9.31 66.10 9.12L66.10 9.12L66.51 11.64Q65.74 11.90 64.88 12.08Q64.02 12.26 62.94 12.26L62.94 12.26Q61.50 12.26 60.36 11.89Q59.22 11.52 58.41 10.79Q57.61 10.06 57.18 8.98Q56.74 7.90 56.74 6.46ZM59.79 5.28L64.30 5.28Q64.30 4.82 64.18 4.40Q64.06 3.98 63.80 3.65Q63.54 3.31 63.13 3.11Q62.72 2.90 62.12 2.90L62.12 2.90Q61.54 2.90 61.12 3.10Q60.70 3.29 60.43 3.62Q60.15 3.96 60.00 4.39Q59.84 4.82 59.79 5.28L59.79 5.28ZM79.02 0.98L78.49 3.72Q78.20 3.65 77.80 3.58Q77.41 3.50 77 3.44Q76.59 3.38 76.21 3.36Q75.82 3.34 75.56 3.34L75.56 3.34Q74.94 3.34 74.34 3.40Q73.74 3.46 73.11 3.62L73.11 3.62L73.11 12L70.14 12L70.14 1.46Q71.31 1.03 72.55 0.77Q73.78 0.50 75.44 0.50L75.44 0.50Q75.68 0.50 76.12 0.53Q76.57 0.55 77.07 0.61Q77.58 0.67 78.09 0.76Q78.61 0.84 79.02 0.98L79.02 0.98ZM86.02 9.89L86.02 9.89Q86.50 9.89 86.96 9.88Q87.42 9.86 87.75 9.82L87.75 9.82L87.75 7.22Q87.46 7.18 87.06 7.14Q86.65 7.10 86.31 7.10L86.31 7.10Q85.86 7.10 85.42 7.16Q84.99 7.22 84.67 7.37Q84.34 7.51 84.15 7.78Q83.96 8.04 83.96 8.47L83.96 8.47Q83.96 9.24 84.54 9.56Q85.11 9.89 86.02 9.89ZM85.76 0.43L85.76 0.43Q87.15 0.43 88.08 0.76Q89 1.08 89.55 1.67Q90.10 2.26 90.34 3.11Q90.58 3.96 90.58 5.02L90.58 5.02L90.58 11.74Q89.94 11.88 88.66 12.07Q87.39 12.26 85.81 12.26L85.81 12.26Q84.73 12.26 83.85 12.07Q82.98 11.88 82.35 11.44Q81.73 10.99 81.39 10.28Q81.06 9.58 81.06 8.54L81.06 8.54Q81.06 7.56 81.44 6.89Q81.82 6.22 82.47 5.81Q83.12 5.40 83.96 5.22Q84.80 5.04 85.71 5.04L85.71 5.04Q86.86 5.04 87.75 5.23L87.75 5.23L87.75 4.87Q87.75 4.03 87.22 3.47Q86.70 2.90 85.40 2.90L85.40 2.90Q84.56 2.90 83.78 3.02Q83 3.14 82.52 3.31L82.52 3.31L82.11 0.94Q82.66 0.74 83.67 0.59Q84.68 0.43 85.76 0.43ZM95.43 7.80L95.43 3.17L92.86 3.17L92.86 0.72L95.43 0.72L95.43-2.11L98.38-2.59L98.38 0.72L103.11 0.72L103.11 3.17L98.38 3.17L98.38 7.73Q98.38 8.35 98.50 8.74Q98.62 9.12 98.84 9.34Q99.06 9.55 99.37 9.62Q99.68 9.70 100.06 9.70L100.06 9.70Q100.47 9.70 100.82 9.67Q101.17 9.65 101.49 9.59Q101.82 9.53 102.16 9.41Q102.51 9.29 102.92 9.10L102.92 9.10L103.33 11.64Q102.51 11.98 101.56 12.12Q100.62 12.26 99.73 12.26L99.73 12.26Q98.70 12.26 97.90 12.10Q97.11 11.93 96.56 11.45Q96.01 10.97 95.72 10.09Q95.43 9.22 95.43 7.80L95.43 7.80ZM104.74 6.46L104.74 6.46Q104.74 4.97 105.20 3.84Q105.66 2.71 106.40 1.96Q107.14 1.20 108.10 0.82Q109.06 0.43 110.07 0.43L110.07 0.43Q112.57 0.43 113.86 1.91Q115.16 3.38 115.16 6.22L115.16 6.22Q115.16 6.50 115.15 6.82Q115.14 7.13 115.11 7.32L115.11 7.32L107.79 7.32Q107.79 8.42 108.70 9.06Q109.62 9.70 111.06 9.70L111.06 9.70Q111.94 9.70 112.75 9.50Q113.55 9.31 114.10 9.12L114.10 9.12L114.51 11.64Q113.74 11.90 112.88 12.08Q112.02 12.26 110.94 12.26L110.94 12.26Q109.50 12.26 108.36 11.89Q107.22 11.52 106.41 10.79Q105.61 10.06 105.18 8.98Q104.74 7.90 104.74 6.46ZM107.79 5.28L112.30 5.28Q112.30 4.82 112.18 4.40Q112.06 3.98 111.80 3.65Q111.54 3.31 111.13 3.11Q110.72 2.90 110.12 2.90L110.12 2.90Q109.54 2.90 109.12 3.10Q108.70 3.29 108.43 3.62Q108.15 3.96 108.00 4.39Q107.84 4.82 107.79 5.28L107.79 5.28ZM135.10 12.31L135.10 12.31Q131.96 12.31 130.30 10.30Q128.65 8.28 128.65 4.56L128.65 4.56Q128.65 2.71 129.15 1.27Q129.66-0.17 130.56-1.16Q131.46-2.16 132.69-2.68Q133.93-3.19 135.39-3.19L135.39-3.19Q136.18-3.19 136.82-3.06Q137.46-2.93 137.94-2.76Q138.42-2.59 138.74-2.40Q139.06-2.21 139.23-2.11L139.23-2.11L138.46 0.24Q137.91-0.12 137.13-0.37Q136.35-0.62 135.34-0.62L135.34-0.62Q134.65-0.62 133.99-0.37Q133.33-0.12 132.81 0.47Q132.30 1.06 131.97 2.04Q131.65 3.02 131.65 4.49L131.65 4.49Q131.65 7.03 132.52 8.39Q133.40 9.74 135.39 9.74L135.39 9.74Q136.54 9.74 137.30 9.48Q138.06 9.22 138.51 8.95L138.51 8.95L139.26 11.28Q138.63 11.66 137.56 11.99Q136.50 12.31 135.10 12.31ZM151.33 6.34L151.33 6.34Q151.33 7.68 150.94 8.77Q150.56 9.86 149.86 10.66Q149.17 11.45 148.20 11.88Q147.22 12.31 146.02 12.31L146.02 12.31Q144.82 12.31 143.85 11.88Q142.88 11.45 142.17 10.66Q141.46 9.86 141.08 8.77Q140.70 7.68 140.70 6.34L140.70 6.34Q140.70 5.02 141.09 3.92Q141.49 2.83 142.20 2.05Q142.90 1.27 143.89 0.85Q144.87 0.43 146.02 0.43L146.02 0.43Q147.20 0.43 148.17 0.85Q149.14 1.27 149.85 2.05Q150.56 2.83 150.94 3.92Q151.33 5.02 151.33 6.34ZM143.70 6.36L143.70 6.36Q143.70 7.87 144.24 8.81Q144.78 9.74 145.98 9.74L145.98 9.74Q147.13 9.74 147.72 8.81Q148.30 7.87 148.30 6.36L148.30 6.36Q148.30 4.85 147.76 3.92Q147.22 3 146.02 3L146.02 3Q144.87 3 144.28 3.92Q143.70 4.85 143.70 6.36ZM158.31 12L155.34 12L155.34 3.17L152.86 3.17L152.86 0.72L155.34 0.72L155.34 0.07Q155.34-1.30 155.73-2.20Q156.13-3.10 156.80-3.64Q157.47-4.18 158.34-4.40Q159.20-4.63 160.11-4.63L160.11-4.63Q161.05-4.63 162.03-4.46Q163.02-4.30 163.81-3.91L163.81-3.91L163.30-1.51Q162.75-1.70 161.92-1.91Q161.10-2.11 160.35-2.11L160.35-2.11Q159.94-2.11 159.57-2.04Q159.20-1.97 158.92-1.73Q158.65-1.49 158.48-1.04Q158.31-0.60 158.31 0.12L158.31 0.12L158.31 0.72L162.94 0.72L162.94 3.17L158.31 3.17L158.31 12ZM170.31 12L167.34 12L167.34 3.17L164.86 3.17L164.86 0.72L167.34 0.72L167.34 0.07Q167.34-1.30 167.73-2.20Q168.13-3.10 168.80-3.64Q169.47-4.18 170.34-4.40Q171.20-4.63 172.11-4.63L172.11-4.63Q173.05-4.63 174.03-4.46Q175.02-4.30 175.81-3.91L175.81-3.91L175.30-1.51Q174.75-1.70 173.92-1.91Q173.10-2.11 172.35-2.11L172.35-2.11Q171.94-2.11 171.57-2.04Q171.20-1.97 170.92-1.73Q170.65-1.49 170.48-1.04Q170.31-0.60 170.31 0.12L170.31 0.12L170.31 0.72L174.94 0.72L174.94 3.17L170.31 3.17L170.31 12ZM176.74 6.46L176.74 6.46Q176.74 4.97 177.20 3.84Q177.66 2.71 178.40 1.96Q179.14 1.20 180.10 0.82Q181.06 0.43 182.07 0.43L182.07 0.43Q184.57 0.43 185.86 1.91Q187.16 3.38 187.16 6.22L187.16 6.22Q187.16 6.50 187.15 6.82Q187.14 7.13 187.11 7.32L187.11 7.32L179.79 7.32Q179.79 8.42 180.70 9.06Q181.62 9.70 183.06 9.70L183.06 9.70Q183.94 9.70 184.75 9.50Q185.55 9.31 186.10 9.12L186.10 9.12L186.51 11.64Q185.74 11.90 184.88 12.08Q184.02 12.26 182.94 12.26L182.94 12.26Q181.50 12.26 180.36 11.89Q179.22 11.52 178.41 10.79Q177.61 10.06 177.18 8.98Q176.74 7.90 176.74 6.46ZM179.79 5.28L184.30 5.28Q184.30 4.82 184.18 4.40Q184.06 3.98 183.80 3.65Q183.54 3.31 183.13 3.11Q182.72 2.90 182.12 2.90L182.12 2.90Q181.54 2.90 181.12 3.10Q180.70 3.29 180.43 3.62Q180.15 3.96 180.00 4.39Q179.84 4.82 179.79 5.28L179.79 5.28ZM188.74 6.46L188.74 6.46Q188.74 4.97 189.20 3.84Q189.66 2.71 190.40 1.96Q191.14 1.20 192.10 0.82Q193.06 0.43 194.07 0.43L194.07 0.43Q196.57 0.43 197.86 1.91Q199.16 3.38 199.16 6.22L199.16 6.22Q199.16 6.50 199.15 6.82Q199.14 7.13 199.11 7.32L199.11 7.32L191.79 7.32Q191.79 8.42 192.70 9.06Q193.62 9.70 195.06 9.70L195.06 9.70Q195.94 9.70 196.75 9.50Q197.55 9.31 198.10 9.12L198.10 9.12L198.51 11.64Q197.74 11.90 196.88 12.08Q196.02 12.26 194.94 12.26L194.94 12.26Q193.50 12.26 192.36 11.89Q191.22 11.52 190.41 10.79Q189.61 10.06 189.18 8.98Q188.74 7.90 188.74 6.46ZM191.79 5.28L196.30 5.28Q196.30 4.82 196.18 4.40Q196.06 3.98 195.80 3.65Q195.54 3.31 195.13 3.11Q194.72 2.90 194.12 2.90L194.12 2.90Q193.54 2.90 193.12 3.10Q192.70 3.29 192.43 3.62Q192.15 3.96 192.00 4.39Q191.84 4.82 191.79 5.28L191.79 5.28ZM205.57 9.84L205.57 9.84Q206.31 9.84 206.80 9.68Q207.30 9.53 207.58 9.25Q207.87 8.98 207.98 8.63Q208.09 8.28 208.09 7.92L208.09 7.92Q208.09 7.46 207.82 7.10Q207.56 6.74 207.15 6.47Q206.74 6.19 206.24 5.96Q205.74 5.74 205.23 5.54L205.23 5.54Q204.56 5.30 203.84 4.99Q203.12 4.68 202.53 4.20Q201.94 3.72 201.56 3.01Q201.18 2.30 201.18 1.25L201.18 1.25Q201.18-0.84 202.53-2.02Q203.89-3.19 206.26-3.19L206.26-3.19Q207.63-3.19 208.65-2.88Q209.67-2.57 210.37-2.18L210.37-2.18L209.50 0.10Q208.90-0.24 208.17-0.48Q207.44-0.72 206.48-0.72L206.48-0.72Q204.13-0.72 204.13 0.98L204.13 0.98Q204.13 1.42 204.37 1.74Q204.61 2.06 204.98 2.32Q205.35 2.57 205.82 2.76Q206.29 2.95 206.74 3.12L206.74 3.12Q207.44 3.38 208.20 3.71Q208.95 4.03 209.59 4.57Q210.22 5.11 210.63 5.92Q211.04 6.72 211.04 7.94L211.04 7.94Q211.04 10.03 209.68 11.17Q208.33 12.31 205.57 12.31L205.57 12.31Q203.72 12.31 202.62 11.92Q201.51 11.52 200.96 11.18L200.96 11.18L201.82 8.78Q202.47 9.17 203.37 9.50Q204.27 9.84 205.57 9.84ZM213.06 6.36L213.06 6.36Q213.06 5.14 213.44 4.06Q213.82 2.98 214.62 2.17Q215.41 1.37 216.62 0.90Q217.83 0.43 219.51 0.43L219.51 0.43Q220.52 0.43 221.34 0.58Q222.15 0.72 222.99 1.06L222.99 1.06L222.34 3.43Q221.86 3.26 221.28 3.13Q220.69 3 219.78 3L219.78 3Q218.72 3 218.01 3.25Q217.30 3.50 216.87 3.95Q216.44 4.39 216.25 5.02Q216.06 5.64 216.06 6.36L216.06 6.36Q216.06 7.92 216.93 8.81Q217.81 9.70 219.92 9.70L219.92 9.70Q220.62 9.70 221.37 9.60Q222.13 9.50 222.75 9.29L222.75 9.29L223.18 11.71Q222.56 11.95 221.67 12.11Q220.78 12.26 219.58 12.26L219.58 12.26Q217.86 12.26 216.62 11.81Q215.38 11.35 214.59 10.56Q213.80 9.77 213.43 8.69Q213.06 7.61 213.06 6.36ZM235.02 0.98L234.49 3.72Q234.20 3.65 233.80 3.58Q233.41 3.50 233 3.44Q232.59 3.38 232.21 3.36Q231.82 3.34 231.56 3.34L231.56 3.34Q230.94 3.34 230.34 3.40Q229.74 3.46 229.11 3.62L229.11 3.62L229.11 12L226.14 12L226.14 1.46Q227.31 1.03 228.55 0.77Q229.78 0.50 231.44 0.50L231.44 0.50Q231.68 0.50 232.12 0.53Q232.57 0.55 233.07 0.61Q233.58 0.67 234.09 0.76Q234.61 0.84 235.02 0.98L235.02 0.98ZM242.82-2.52L242.82-2.52Q242.82-1.66 242.26-1.15Q241.71-0.65 240.94-0.65L240.94-0.65Q240.18-0.65 239.64-1.15Q239.10-1.66 239.10-2.52L239.10-2.52Q239.10-3.41 239.64-3.91Q240.18-4.42 240.94-4.42L240.94-4.42Q241.71-4.42 242.26-3.91Q242.82-3.41 242.82-2.52ZM246.82 9.14L247.21 11.52Q246.30 11.95 245.49 12.11Q244.69 12.26 244.02 12.26L244.02 12.26Q242.86 12.26 242.08 11.93Q241.30 11.59 240.84 10.96Q240.37 10.32 240.18 9.41Q239.98 8.50 239.98 7.32L239.98 7.32L239.98 3.17L236.86 3.17L236.86 0.72L242.94 0.72L242.94 7.70Q242.94 8.71 243.31 9.20Q243.68 9.70 244.54 9.70L244.54 9.70Q244.95 9.70 245.53 9.59Q246.10 9.48 246.82 9.14L246.82 9.14ZM256.26 6.46L256.26 6.46Q256.26 4.94 255.66 3.97Q255.06 3 253.83 3L253.83 3Q253.50 3 253.11 3.04Q252.73 3.07 252.46 3.10L252.46 3.10L252.46 9.29Q252.75 9.48 253.23 9.60Q253.71 9.72 254.19 9.72L254.19 9.72Q255.25 9.72 255.75 8.87Q256.26 8.02 256.26 6.46ZM259.26 6.36L259.26 6.36Q259.26 7.66 258.97 8.75Q258.68 9.84 258.13 10.62Q257.58 11.40 256.74 11.83Q255.90 12.26 254.79 12.26L254.79 12.26Q253.66 12.26 252.46 11.71L252.46 11.71L252.46 15.96L249.51 15.96L249.51 1.08Q250.33 0.82 251.52 0.65Q252.70 0.48 253.86 0.48L253.86 0.48Q256.47 0.48 257.86 2.06Q259.26 3.65 259.26 6.36ZM263.43 7.80L263.43 3.17L260.86 3.17L260.86 0.72L263.43 0.72L263.43-2.11L266.38-2.59L266.38 0.72L271.11 0.72L271.11 3.17L266.38 3.17L266.38 7.73Q266.38 8.35 266.50 8.74Q266.62 9.12 266.84 9.34Q267.06 9.55 267.37 9.62Q267.68 9.70 268.06 9.70L268.06 9.70Q268.47 9.70 268.82 9.67Q269.17 9.65 269.49 9.59Q269.82 9.53 270.16 9.41Q270.51 9.29 270.92 9.10L270.92 9.10L271.33 11.64Q270.51 11.98 269.56 12.12Q268.62 12.26 267.73 12.26L267.73 12.26Q266.70 12.26 265.90 12.10Q265.11 11.93 264.56 11.45Q264.01 10.97 263.72 10.09Q263.43 9.22 263.43 7.80L263.43 7.80Z"/>
    </g>
</svg>