<?xml version="1.0" encoding="UTF-8"?>
<svg height="34" width="78.3" version="1.1" xmlns="http://www.w3.org/2000/svg">
    <rect
        height="32"
        width="76.3"
        rx="1"
        ry="1"
        x="1"
        y="1"
        fill="#237346"
        stroke="#5fce8f"
        stroke-width="1"
         />
    <g transform="translate(0, 12)">
        <path fill="#5fce8f" d="M20.60-2.86L31.40-2.86L31.40-0.41L27.49-0.41L27.49 12L24.51 12L24.51-0.41L20.60-0.41L20.60-2.86ZM37.57 9.84L37.57 9.84Q38.31 9.84 38.80 9.68Q39.30 9.53 39.58 9.25Q39.87 8.98 39.98 8.63Q40.09 8.28 40.09 7.92L40.09 7.92Q40.09 7.46 39.82 7.10Q39.56 6.74 39.15 6.47Q38.74 6.19 38.24 5.96Q37.74 5.74 37.23 5.54L37.23 5.54Q36.56 5.30 35.84 4.99Q35.12 4.68 34.53 4.20Q33.94 3.72 33.56 3.01Q33.18 2.30 33.18 1.25L33.18 1.25Q33.18-0.84 34.53-2.02Q35.89-3.19 38.26-3.19L38.26-3.19Q39.63-3.19 40.65-2.88Q41.67-2.57 42.37-2.18L42.37-2.18L41.50 0.10Q40.90-0.24 40.17-0.48Q39.44-0.72 38.48-0.72L38.48-0.72Q36.13-0.72 36.13 0.98L36.13 0.98Q36.13 1.42 36.37 1.74Q36.61 2.06 36.98 2.32Q37.35 2.57 37.82 2.76Q38.29 2.95 38.74 3.12L38.74 3.12Q39.44 3.38 40.20 3.71Q40.95 4.03 41.59 4.57Q42.22 5.11 42.63 5.92Q43.04 6.72 43.04 7.94L43.04 7.94Q43.04 10.03 41.68 11.17Q40.33 12.31 37.57 12.31L37.57 12.31Q35.72 12.31 34.62 11.92Q33.51 11.52 32.96 11.18L32.96 11.18L33.82 8.78Q34.47 9.17 35.37 9.50Q36.27 9.84 37.57 9.84ZM51.51 12L48.46 12Q47.89 10.34 47.24 8.26Q46.59 6.17 46.02 4.09Q45.44 2.02 44.98 0.17Q44.53-1.68 44.31-2.86L44.31-2.86L47.43-2.86Q47.58-1.70 47.86-0.18Q48.15 1.34 48.50 2.96Q48.85 4.58 49.24 6.16Q49.64 7.73 50.02 8.98L50.02 8.98Q50.41 7.75 50.79 6.18Q51.18 4.61 51.51 2.99Q51.85 1.37 52.14-0.17Q52.42-1.70 52.62-2.86L52.62-2.86L55.71-2.86Q55.42-1.42 55.00 0.36Q54.58 2.14 54.04 4.09Q53.50 6.05 52.86 8.08Q52.21 10.10 51.51 12L51.51 12Z"/>
    </g>
</svg>