<?xml version="1.0" encoding="UTF-8"?>
<svg height="26" width="66.3" version="1.1" xmlns="http://www.w3.org/2000/svg"><!--Created by Josélio de S. C. Júnior - 2021 - https://github.com/joseliojunior -->
    <rect
        height="24"
        width="64.3"
        rx="12"
        ry="12"
        x="1" y="1"
        fill="#dc75e5"
        stroke="#701778"
        stroke-width="1" />
    <g transform="translate(0, 8)">
        <path fill="#701778" d="M27.12 0.10L27.12 1.47Q26.43 2.53 25.86 3.46Q25.28 4.38 24.78 5.22Q24.29 6.06 23.85 6.84Q23.41 7.62 23.01 8.37L23.01 8.37L27.26 8.37L27.26 10L20.74 10L20.74 8.86Q21.09 8.18 21.49 7.42Q21.89 6.66 22.38 5.79Q22.88 4.93 23.46 3.92Q24.05 2.91 24.75 1.73L24.75 1.73L20.94 1.73L20.94 0.10L27.12 0.10ZM35.15 10L28.86 10L28.86 8.37L31.02 8.37L31.02 1.73L28.86 1.73L28.86 0.10L35.15 0.10L35.15 1.73L33.01 1.73L33.01 8.37L35.15 8.37L35.15 10ZM43.36 8.37L43.36 10L37.14 10L37.14 0.10L39.12 0.10L39.12 8.37L43.36 8.37Z"/>
    </g>
</svg>