<?xml version="1.0" encoding="UTF-8"?>
<svg height="34" width="126.7" version="1.1" xmlns="http://www.w3.org/2000/svg"><!--Created by Josélio de S. C. Júnior - 2021 - https://github.com/joseliojunior -->
    <defs>
        <pattern id="pattern"
                x="3" y="3" width="6" height="6"
                patternUnits="userSpaceOnUse"
                patternTransform="rotate(45)" >
            <rect height="6" width="6"
                fill="#ffffff"/>
            <line x1="0" y1="0" x2="0" y2="6"
                stroke="#888888"
                stroke-width="2" />
        </pattern>
    </defs>
    <rect
        height="32"
        width="124.7"
        rx="16"
        ry="16"
        x="1" y="1"
        fill="url(#pattern)"
        stroke="#000000"
        stroke-width="1" />
    <g transform="translate(0, 12)">
        <path fill="#ffffff" stroke="#000000" d="M21.42-2.86L23.86-2.86Q24.03-2.35 24.28-1.56Q24.54-0.77 24.82 0.14Q25.11 1.06 25.40 1.99Q25.69 2.93 25.95 3.72L25.95 3.72Q26.24 2.83 26.55 1.88Q26.86 0.94 27.15 0.06Q27.44-0.82 27.68-1.58Q27.92-2.35 28.11-2.86L28.11-2.86L30.56-2.86Q30.73-0.91 30.88 0.94Q31.04 2.78 31.15 4.60Q31.26 6.41 31.33 8.24Q31.40 10.08 31.45 12L31.45 12L28.74 12L28.88 0.46L27.06 6.74L24.90 6.74L23.14 0.46L23.26 12L20.55 12Q20.62 10.18 20.71 8.21Q20.79 6.24 20.89 4.30Q20.98 2.35 21.12 0.53Q21.25-1.30 21.42-2.86L21.42-2.86ZM43.33 6.34L43.33 6.34Q43.33 7.68 42.94 8.77Q42.56 9.86 41.86 10.66Q41.17 11.45 40.20 11.88Q39.22 12.31 38.02 12.31L38.02 12.31Q36.82 12.31 35.85 11.88Q34.88 11.45 34.17 10.66Q33.46 9.86 33.08 8.77Q32.70 7.68 32.70 6.34L32.70 6.34Q32.70 5.02 33.09 3.92Q33.49 2.83 34.20 2.05Q34.90 1.27 35.89 0.85Q36.87 0.43 38.02 0.43L38.02 0.43Q39.20 0.43 40.17 0.85Q41.14 1.27 41.85 2.05Q42.56 2.83 42.94 3.92Q43.33 5.02 43.33 6.34ZM35.70 6.36L35.70 6.36Q35.70 7.87 36.24 8.81Q36.78 9.74 37.98 9.74L37.98 9.74Q39.13 9.74 39.72 8.81Q40.30 7.87 40.30 6.36L40.30 6.36Q40.30 4.85 39.76 3.92Q39.22 3 38.02 3L38.02 3Q36.87 3 36.28 3.92Q35.70 4.85 35.70 6.36ZM55.33 6.34L55.33 6.34Q55.33 7.68 54.94 8.77Q54.56 9.86 53.86 10.66Q53.17 11.45 52.20 11.88Q51.22 12.31 50.02 12.31L50.02 12.31Q48.82 12.31 47.85 11.88Q46.88 11.45 46.17 10.66Q45.46 9.86 45.08 8.77Q44.70 7.68 44.70 6.34L44.70 6.34Q44.70 5.02 45.09 3.92Q45.49 2.83 46.20 2.05Q46.90 1.27 47.89 0.85Q48.87 0.43 50.02 0.43L50.02 0.43Q51.20 0.43 52.17 0.85Q53.14 1.27 53.85 2.05Q54.56 2.83 54.94 3.92Q55.33 5.02 55.33 6.34ZM47.70 6.36L47.70 6.36Q47.70 7.87 48.24 8.81Q48.78 9.74 49.98 9.74L49.98 9.74Q51.13 9.74 51.72 8.81Q52.30 7.87 52.30 6.36L52.30 6.36Q52.30 4.85 51.76 3.92Q51.22 3 50.02 3L50.02 3Q48.87 3 48.28 3.92Q47.70 4.85 47.70 6.36ZM57.06 6.36L57.06 6.36Q57.06 5.14 57.44 4.06Q57.82 2.98 58.62 2.17Q59.41 1.37 60.62 0.90Q61.83 0.43 63.51 0.43L63.51 0.43Q64.52 0.43 65.34 0.58Q66.15 0.72 66.99 1.06L66.99 1.06L66.34 3.43Q65.86 3.26 65.28 3.13Q64.69 3 63.78 3L63.78 3Q62.72 3 62.01 3.25Q61.30 3.50 60.87 3.95Q60.44 4.39 60.25 5.02Q60.06 5.64 60.06 6.36L60.06 6.36Q60.06 7.92 60.93 8.81Q61.81 9.70 63.92 9.70L63.92 9.70Q64.62 9.70 65.37 9.60Q66.13 9.50 66.75 9.29L66.75 9.29L67.18 11.71Q66.56 11.95 65.67 12.11Q64.78 12.26 63.58 12.26L63.58 12.26Q61.86 12.26 60.62 11.81Q59.38 11.35 58.59 10.56Q57.80 9.77 57.43 8.69Q57.06 7.61 57.06 6.36ZM79.33 6.34L79.33 6.34Q79.33 7.68 78.94 8.77Q78.56 9.86 77.86 10.66Q77.17 11.45 76.20 11.88Q75.22 12.31 74.02 12.31L74.02 12.31Q72.82 12.31 71.85 11.88Q70.88 11.45 70.17 10.66Q69.46 9.86 69.08 8.77Q68.70 7.68 68.70 6.34L68.70 6.34Q68.70 5.02 69.09 3.92Q69.49 2.83 70.20 2.05Q70.90 1.27 71.89 0.85Q72.87 0.43 74.02 0.43L74.02 0.43Q75.20 0.43 76.17 0.85Q77.14 1.27 77.85 2.05Q78.56 2.83 78.94 3.92Q79.33 5.02 79.33 6.34ZM71.70 6.36L71.70 6.36Q71.70 7.87 72.24 8.81Q72.78 9.74 73.98 9.74L73.98 9.74Q75.13 9.74 75.72 8.81Q76.30 7.87 76.30 6.36L76.30 6.36Q76.30 4.85 75.76 3.92Q75.22 3 74.02 3L74.02 3Q72.87 3 72.28 3.92Q71.70 4.85 71.70 6.36ZM83.67 6.29L83.67 6.29Q83.67 7.80 84.24 8.76Q84.80 9.72 86.05 9.72L86.05 9.72Q86.41 9.72 86.72 9.70Q87.03 9.67 87.37 9.62L87.37 9.62L87.37 3.48Q87.03 3.29 86.60 3.16Q86.17 3.02 85.69 3.02L85.69 3.02Q84.63 3.02 84.15 3.86Q83.67 4.70 83.67 6.29ZM90.32-4.66L90.32 11.66Q89.50 11.93 88.33 12.10Q87.15 12.26 86.02 12.26L86.02 12.26Q83.38 12.26 82.03 10.70Q80.67 9.14 80.67 6.43L80.67 6.43Q80.67 3.67 81.81 2.08Q82.95 0.48 85.18 0.48L85.18 0.48Q85.78 0.48 86.36 0.61Q86.94 0.74 87.37 0.98L87.37 0.98L87.37-4.15L90.32-4.66ZM92.74 6.46L92.74 6.46Q92.74 4.97 93.20 3.84Q93.66 2.71 94.40 1.96Q95.14 1.20 96.10 0.82Q97.06 0.43 98.07 0.43L98.07 0.43Q100.57 0.43 101.86 1.91Q103.16 3.38 103.16 6.22L103.16 6.22Q103.16 6.50 103.15 6.82Q103.14 7.13 103.11 7.32L103.11 7.32L95.79 7.32Q95.79 8.42 96.70 9.06Q97.62 9.70 99.06 9.70L99.06 9.70Q99.94 9.70 100.75 9.50Q101.55 9.31 102.10 9.12L102.10 9.12L102.51 11.64Q101.74 11.90 100.88 12.08Q100.02 12.26 98.94 12.26L98.94 12.26Q97.50 12.26 96.36 11.89Q95.22 11.52 94.41 10.79Q93.61 10.06 93.18 8.98Q92.74 7.90 92.74 6.46ZM95.79 5.28L100.30 5.28Q100.30 4.82 100.18 4.40Q100.06 3.98 99.80 3.65Q99.54 3.31 99.13 3.11Q98.72 2.90 98.12 2.90L98.12 2.90Q97.54 2.90 97.12 3.10Q96.70 3.29 96.43 3.62Q96.15 3.96 96.00 4.39Q95.84 4.82 95.79 5.28L95.79 5.28Z"/>
    </g>
</svg>