<?xml version="1.0" encoding="UTF-8"?>
<svg height="26" width="98.69999999999999" version="1.1" xmlns="http://www.w3.org/2000/svg"><!--Created by Josélio de S. C. Júnior - 2021 - https://github.com/joseliojunior -->
    <defs>
        <pattern id="pattern"
                x="3" y="3" width="6" height="6"
                patternUnits="userSpaceOnUse"
                patternTransform="rotate(45)" >
            <rect height="6" width="6"
                fill="#ffffff"/>
            <line x1="0" y1="0" x2="0" y2="6"
                stroke="#bbbbbb"
                stroke-width="2" />
        </pattern>
    </defs>
    <rect
        height="24"
        width="96.69999999999999"
        rx="1"
        ry="1"
        x="1" y="1"
        fill="url(#pattern)" />
    <g transform="translate(0, 8)">
        <path fill="#000000" d="M20.94 0.10L22.58 0.10Q22.69 0.43 22.86 0.96Q23.02 1.49 23.22 2.10Q23.41 2.70 23.60 3.33Q23.79 3.95 23.97 4.48L23.97 4.48Q24.16 3.89 24.37 3.26Q24.58 2.62 24.77 2.04Q24.96 1.46 25.12 0.94Q25.28 0.43 25.41 0.10L25.41 0.10L27.04 0.10Q27.15 1.39 27.26 2.62Q27.36 3.86 27.43 5.06Q27.50 6.27 27.55 7.50Q27.60 8.72 27.63 10L27.63 10L25.82 10L25.92 2.30L24.70 6.50L23.26 6.50L22.10 2.30L22.18 10L20.37 10Q20.42 8.78 20.47 7.47Q20.53 6.16 20.59 4.86Q20.66 3.57 20.74 2.35Q20.83 1.14 20.94 0.10L20.94 0.10ZM35.55 6.22L35.55 6.22Q35.55 7.12 35.30 7.85Q35.04 8.58 34.58 9.10Q34.11 9.63 33.46 9.92Q32.82 10.21 32.02 10.21L32.02 10.21Q31.22 10.21 30.57 9.92Q29.92 9.63 29.45 9.10Q28.98 8.58 28.72 7.85Q28.46 7.12 28.46 6.22L28.46 6.22Q28.46 5.34 28.73 4.62Q28.99 3.89 29.46 3.37Q29.94 2.85 30.59 2.57Q31.25 2.29 32.02 2.29L32.02 2.29Q32.80 2.29 33.45 2.57Q34.10 2.85 34.57 3.37Q35.04 3.89 35.30 4.62Q35.55 5.34 35.55 6.22ZM30.46 6.24L30.46 6.24Q30.46 7.25 30.82 7.87Q31.18 8.50 31.98 8.50L31.98 8.50Q32.75 8.50 33.14 7.87Q33.54 7.25 33.54 6.24L33.54 6.24Q33.54 5.23 33.18 4.62Q32.82 4 32.02 4L32.02 4Q31.25 4 30.86 4.62Q30.46 5.23 30.46 6.24ZM43.55 6.22L43.55 6.22Q43.55 7.12 43.30 7.85Q43.04 8.58 42.58 9.10Q42.11 9.63 41.46 9.92Q40.82 10.21 40.02 10.21L40.02 10.21Q39.22 10.21 38.57 9.92Q37.92 9.63 37.45 9.10Q36.98 8.58 36.72 7.85Q36.46 7.12 36.46 6.22L36.46 6.22Q36.46 5.34 36.73 4.62Q36.99 3.89 37.46 3.37Q37.94 2.85 38.59 2.57Q39.25 2.29 40.02 2.29L40.02 2.29Q40.80 2.29 41.45 2.57Q42.10 2.85 42.57 3.37Q43.04 3.89 43.30 4.62Q43.55 5.34 43.55 6.22ZM38.46 6.24L38.46 6.24Q38.46 7.25 38.82 7.87Q39.18 8.50 39.98 8.50L39.98 8.50Q40.75 8.50 41.14 7.87Q41.54 7.25 41.54 6.24L41.54 6.24Q41.54 5.23 41.18 4.62Q40.82 4 40.02 4L40.02 4Q39.25 4 38.86 4.62Q38.46 5.23 38.46 6.24ZM44.70 6.24L44.70 6.24Q44.70 5.42 44.96 4.70Q45.22 3.98 45.74 3.45Q46.27 2.91 47.08 2.60Q47.89 2.29 49.01 2.29L49.01 2.29Q49.68 2.29 50.22 2.38Q50.77 2.48 51.33 2.70L51.33 2.70L50.90 4.29Q50.58 4.18 50.18 4.09Q49.79 4 49.18 4L49.18 4Q48.48 4 48.01 4.17Q47.54 4.34 47.25 4.63Q46.96 4.93 46.83 5.34Q46.70 5.76 46.70 6.24L46.70 6.24Q46.70 7.28 47.29 7.87Q47.87 8.46 49.28 8.46L49.28 8.46Q49.74 8.46 50.25 8.40Q50.75 8.34 51.17 8.19L51.17 8.19L51.46 9.81Q51.04 9.97 50.45 10.07Q49.86 10.18 49.06 10.18L49.06 10.18Q47.90 10.18 47.08 9.87Q46.26 9.57 45.73 9.04Q45.20 8.51 44.95 7.79Q44.70 7.07 44.70 6.24ZM59.55 6.22L59.55 6.22Q59.55 7.12 59.30 7.85Q59.04 8.58 58.58 9.10Q58.11 9.63 57.46 9.92Q56.82 10.21 56.02 10.21L56.02 10.21Q55.22 10.21 54.57 9.92Q53.92 9.63 53.45 9.10Q52.98 8.58 52.72 7.85Q52.46 7.12 52.46 6.22L52.46 6.22Q52.46 5.34 52.73 4.62Q52.99 3.89 53.46 3.37Q53.94 2.85 54.59 2.57Q55.25 2.29 56.02 2.29L56.02 2.29Q56.80 2.29 57.45 2.57Q58.10 2.85 58.57 3.37Q59.04 3.89 59.30 4.62Q59.55 5.34 59.55 6.22ZM54.46 6.24L54.46 6.24Q54.46 7.25 54.82 7.87Q55.18 8.50 55.98 8.50L55.98 8.50Q56.75 8.50 57.14 7.87Q57.54 7.25 57.54 6.24L57.54 6.24Q57.54 5.23 57.18 4.62Q56.82 4 56.02 4L56.02 4Q55.25 4 54.86 4.62Q54.46 5.23 54.46 6.24ZM62.45 6.19L62.45 6.19Q62.45 7.20 62.82 7.84Q63.20 8.48 64.03 8.48L64.03 8.48Q64.27 8.48 64.48 8.46Q64.69 8.45 64.91 8.42L64.91 8.42L64.91 4.32Q64.69 4.19 64.40 4.10Q64.11 4.02 63.79 4.02L63.79 4.02Q63.09 4.02 62.77 4.58Q62.45 5.14 62.45 6.19ZM66.88-1.10L66.88 9.78Q66.34 9.95 65.55 10.06Q64.77 10.18 64.02 10.18L64.02 10.18Q62.26 10.18 61.35 9.14Q60.45 8.10 60.45 6.29L60.45 6.29Q60.45 4.45 61.21 3.38Q61.97 2.32 63.46 2.32L63.46 2.32Q63.86 2.32 64.24 2.41Q64.62 2.50 64.91 2.66L64.91 2.66L64.91-0.77L66.88-1.10ZM68.50 6.30L68.50 6.30Q68.50 5.31 68.80 4.56Q69.10 3.81 69.60 3.30Q70.10 2.80 70.74 2.54Q71.38 2.29 72.05 2.29L72.05 2.29Q73.71 2.29 74.58 3.27Q75.44 4.26 75.44 6.14L75.44 6.14Q75.44 6.34 75.43 6.54Q75.42 6.75 75.41 6.88L75.41 6.88L70.53 6.88Q70.53 7.62 71.14 8.04Q71.74 8.46 72.70 8.46L72.70 8.46Q73.30 8.46 73.83 8.34Q74.37 8.21 74.74 8.08L74.74 8.08L75.01 9.76Q74.50 9.94 73.92 10.06Q73.34 10.18 72.62 10.18L72.62 10.18Q71.66 10.18 70.90 9.93Q70.14 9.68 69.61 9.19Q69.07 8.70 68.78 7.98Q68.50 7.26 68.50 6.30ZM70.53 5.52L73.54 5.52Q73.54 5.22 73.46 4.94Q73.38 4.66 73.20 4.43Q73.02 4.21 72.75 4.07Q72.48 3.94 72.08 3.94L72.08 3.94Q71.70 3.94 71.42 4.06Q71.14 4.19 70.95 4.42Q70.77 4.64 70.66 4.93Q70.56 5.22 70.53 5.52L70.53 5.52Z"/>
    </g>
</svg>