<?xml version="1.0" encoding="UTF-8"?>
<svg height="34" width="36.1" version="1.1" xmlns="http://www.w3.org/2000/svg">
    <rect
        height="32"
        width="34.1"
        rx="1"
        ry="1"
        x="1"
        y="1"
        fill="#ba595e"
        stroke="#562427"
        stroke-width="1"
         />
    <g transform="translate(0, 14)">
        <path fill="#562427" d="M14.96-3.45L14.96 8.20Q15.10 8.23 15.26 8.23Q15.43 8.23 15.57 8.23L15.57 8.23Q16.75 8.23 17.55 7.78Q18.34 7.33 18.83 6.55Q19.32 5.76 19.53 4.69Q19.74 3.61 19.74 2.32L19.74 2.32Q19.74 1.20 19.58 0.14Q19.41-0.93 18.99-1.74Q18.57-2.55 17.84-3.04Q17.11-3.53 15.96-3.53L15.96-3.53Q15.74-3.53 15.46-3.52Q15.18-3.50 14.96-3.45L14.96-3.45ZM23.24 2.32L23.24 2.32Q23.24 4.73 22.64 6.42Q22.04 8.12 20.98 9.18Q19.91 10.24 18.44 10.73Q16.97 11.22 15.21 11.22L15.21 11.22Q14.28 11.22 13.40 11.13Q12.52 11.03 11.51 10.80L11.51 10.80L11.51-6.11Q12.69-6.36 13.72-6.44Q14.76-6.53 15.66-6.53L15.66-6.53Q17.36-6.53 18.78-6.02Q20.19-5.52 21.17-4.44Q22.15-3.36 22.70-1.70Q23.24-0.03 23.24 2.32Z"/>
    </g>
</svg>