<?xml version="1.0" encoding="UTF-8"?>
<svg height="34" width="92.5" version="1.1" xmlns="http://www.w3.org/2000/svg">
    <rect
        height="32"
        width="90.5"
        rx="14"
        ry="14"
        x="1"
        y="1"
        fill="#bd181a"
        stroke="#360708"
        stroke-width="1"
         />
    <g transform="translate(0, 14)">
        <path fill="#360708" d="M16.50 8.48L16.50 8.48Q17.36 8.48 17.94 8.30Q18.51 8.12 18.85 7.79Q19.18 7.47 19.31 7.07Q19.44 6.66 19.44 6.24L19.44 6.24Q19.44 5.71 19.13 5.29Q18.82 4.87 18.34 4.55Q17.87 4.22 17.28 3.96Q16.69 3.69 16.10 3.47L16.10 3.47Q15.32 3.19 14.48 2.82Q13.64 2.46 12.95 1.90Q12.27 1.34 11.82 0.51Q11.37-0.31 11.37-1.54L11.37-1.54Q11.37-3.98 12.95-5.35Q14.54-6.72 17.31-6.72L17.31-6.72Q18.90-6.72 20.09-6.36Q21.28-6.00 22.10-5.55L22.10-5.55L21.09-2.89Q20.39-3.28 19.53-3.56Q18.68-3.84 17.56-3.84L17.56-3.84Q14.82-3.84 14.82-1.85L14.82-1.85Q14.82-1.35 15.10-0.97Q15.38-0.59 15.81-0.30Q16.24-0.00 16.79 0.22Q17.34 0.44 17.87 0.64L17.87 0.64Q18.68 0.95 19.56 1.33Q20.44 1.70 21.19 2.33Q21.93 2.96 22.40 3.90Q22.88 4.84 22.88 6.27L22.88 6.27Q22.88 8.70 21.30 10.03Q19.72 11.36 16.50 11.36L16.50 11.36Q14.34 11.36 13.05 10.90Q11.76 10.44 11.12 10.05L11.12 10.05L12.13 7.25Q12.88 7.70 13.93 8.09Q14.98 8.48 16.50 8.48ZM25.23 4.42L25.23 4.42Q25.23 2.99 25.68 1.73Q26.13 0.47 27.05-0.47Q27.98-1.40 29.39-1.95Q30.80-2.50 32.76-2.50L32.76-2.50Q33.94-2.50 34.89-2.33Q35.84-2.16 36.82-1.77L36.82-1.77L36.07 1.00Q35.51 0.81 34.82 0.65Q34.14 0.50 33.07 0.50L33.07 0.50Q31.84 0.50 31.01 0.79Q30.19 1.09 29.68 1.61Q29.18 2.12 28.96 2.85Q28.73 3.58 28.73 4.42L28.73 4.42Q28.73 6.24 29.75 7.28Q30.78 8.31 33.24 8.31L33.24 8.31Q34.05 8.31 34.93 8.20Q35.82 8.09 36.54 7.84L36.54 7.84L37.05 10.66Q36.32 10.94 35.28 11.13Q34.25 11.31 32.85 11.31L32.85 11.31Q30.83 11.31 29.39 10.78Q27.95 10.24 27.02 9.32Q26.10 8.40 25.67 7.14Q25.23 5.88 25.23 4.42ZM45.03 8.54L45.03 8.54Q45.59 8.54 46.12 8.52Q46.65 8.51 47.04 8.45L47.04 8.45L47.04 5.43Q46.71 5.37 46.23 5.33Q45.76 5.29 45.36 5.29L45.36 5.29Q44.83 5.29 44.33 5.36Q43.82 5.43 43.45 5.60Q43.07 5.76 42.84 6.07Q42.62 6.38 42.62 6.88L42.62 6.88Q42.62 7.78 43.29 8.16Q43.96 8.54 45.03 8.54ZM44.72-2.50L44.72-2.50Q46.34-2.50 47.42-2.12Q48.50-1.74 49.14-1.05Q49.79-0.37 50.07 0.63Q50.35 1.62 50.35 2.85L50.35 2.85L50.35 10.69Q49.59 10.86 48.11 11.08Q46.62 11.31 44.78 11.31L44.78 11.31Q43.52 11.31 42.49 11.08Q41.47 10.86 40.74 10.34Q40.02 9.82 39.62 9.00Q39.23 8.17 39.23 6.97L39.23 6.97Q39.23 5.82 39.68 5.04Q40.13 4.25 40.88 3.78Q41.64 3.30 42.62 3.09Q43.60 2.88 44.66 2.88L44.66 2.88Q46.01 2.88 47.04 3.10L47.04 3.10L47.04 2.68Q47.04 1.70 46.43 1.05Q45.81 0.39 44.30 0.39L44.30 0.39Q43.32 0.39 42.41 0.53Q41.50 0.67 40.94 0.86L40.94 0.86L40.46-1.91Q41.11-2.13 42.28-2.31Q43.46-2.50 44.72-2.50ZM61.60-2.30L61.60-2.30Q62.70-2.30 63.40-1.96Q64.10-1.63 64.50-0.96Q64.91-0.28 65.05 0.74Q65.19 1.76 65.19 3.13L65.19 3.13L65.19 11L62.39 11L62.39 2.96Q62.39 2.18 62.29 1.70Q62.19 1.23 62.04 0.98Q61.88 0.72 61.67 0.64Q61.46 0.56 61.24 0.56L61.24 0.56Q60.99 0.56 60.71 0.60Q60.43 0.64 60.20 0.75L60.20 0.75Q60.29 1.28 60.34 1.93Q60.40 2.57 60.40 3.36L60.40 3.36L60.40 5.99L57.60 5.99L57.60 2.96Q57.60 1.62 57.33 1.09Q57.07 0.56 56.48 0.56L56.48 0.56Q56.31 0.56 56.07 0.58Q55.84 0.61 55.61 0.67L55.61 0.67L55.61 11L52.81 11L52.81-1.66Q53.90-1.96 54.97-2.13Q56.03-2.30 56.84-2.30L56.84-2.30Q57.57-2.30 58.15-2.12Q58.72-1.94 59.14-1.52L59.14-1.52Q59.62-1.82 60.26-2.06Q60.90-2.30 61.60-2.30ZM78.63 7.67L79.08 10.44Q78.99 10.50 78.70 10.64Q78.40 10.78 77.93 10.93Q77.45 11.08 76.77 11.20Q76.08 11.31 75.21 11.31L75.21 11.31Q72.83 11.31 71.74 9.89Q70.65 8.48 70.65 5.76L70.65 5.76L70.65-5.41L67.01-5.41L67.01-8.26L74.09-8.26L74.09 6.02Q74.09 7.36 74.62 7.84Q75.16 8.31 75.97 8.31L75.97 8.31Q77.00 8.31 77.70 8.03Q78.40 7.75 78.63 7.67L78.63 7.67Z"/>
    </g>
</svg>