<?xml version="1.0" encoding="UTF-8"?>
<svg height="322" width="102.5" version="1.1" xmlns="http://www.w3.org/2000/svg"><!--Created by Josélio de S. C. Júnior - 2021 - https://github.com/joseliojunior -->
    <rect
        height="32"
        width="100.5"
        rx="16"
        ry="16"
        x="1" y="1"
        fill="#bd181a"
        stroke="#360708"
        stroke-width="1" />
    <g transform="translate(0, 12)">
        <path fill="#360708" stroke="none" d="M25.57 9.84L25.57 9.84Q26.31 9.84 26.80 9.68Q27.30 9.53 27.58 9.25Q27.87 8.98 27.98 8.63Q28.09 8.28 28.09 7.92L28.09 7.92Q28.09 7.46 27.82 7.10Q27.56 6.74 27.15 6.47Q26.74 6.19 26.24 5.96Q25.74 5.74 25.23 5.54L25.23 5.54Q24.56 5.30 23.84 4.99Q23.12 4.68 22.53 4.20Q21.94 3.72 21.56 3.01Q21.18 2.30 21.18 1.25L21.18 1.25Q21.18-0.84 22.53-2.02Q23.89-3.19 26.26-3.19L26.26-3.19Q27.63-3.19 28.65-2.88Q29.67-2.57 30.37-2.18L30.37-2.18L29.50 0.10Q28.90-0.24 28.17-0.48Q27.44-0.72 26.48-0.72L26.48-0.72Q24.13-0.72 24.13 0.98L24.13 0.98Q24.13 1.42 24.37 1.74Q24.61 2.06 24.98 2.32Q25.35 2.57 25.82 2.76Q26.29 2.95 26.74 3.12L26.74 3.12Q27.44 3.38 28.20 3.71Q28.95 4.03 29.59 4.57Q30.22 5.11 30.63 5.92Q31.04 6.72 31.04 7.94L31.04 7.94Q31.04 10.03 29.68 11.17Q28.33 12.31 25.57 12.31L25.57 12.31Q23.72 12.31 22.62 11.92Q21.51 11.52 20.96 11.18L20.96 11.18L21.82 8.78Q22.47 9.17 23.37 9.50Q24.27 9.84 25.57 9.84ZM33.06 6.36L33.06 6.36Q33.06 5.14 33.44 4.06Q33.82 2.98 34.62 2.17Q35.41 1.37 36.62 0.90Q37.83 0.43 39.51 0.43L39.51 0.43Q40.52 0.43 41.34 0.58Q42.15 0.72 42.99 1.06L42.99 1.06L42.34 3.43Q41.86 3.26 41.28 3.13Q40.69 3 39.78 3L39.78 3Q38.72 3 38.01 3.25Q37.30 3.50 36.87 3.95Q36.44 4.39 36.25 5.02Q36.06 5.64 36.06 6.36L36.06 6.36Q36.06 7.92 36.93 8.81Q37.81 9.70 39.92 9.70L39.92 9.70Q40.62 9.70 41.37 9.60Q42.13 9.50 42.75 9.29L42.75 9.29L43.18 11.71Q42.56 11.95 41.67 12.11Q40.78 12.26 39.58 12.26L39.58 12.26Q37.86 12.26 36.62 11.81Q35.38 11.35 34.59 10.56Q33.80 9.77 33.43 8.69Q33.06 7.61 33.06 6.36ZM50.02 9.89L50.02 9.89Q50.50 9.89 50.96 9.88Q51.42 9.86 51.75 9.82L51.75 9.82L51.75 7.22Q51.46 7.18 51.06 7.14Q50.65 7.10 50.31 7.10L50.31 7.10Q49.86 7.10 49.42 7.16Q48.99 7.22 48.67 7.37Q48.34 7.51 48.15 7.78Q47.96 8.04 47.96 8.47L47.96 8.47Q47.96 9.24 48.54 9.56Q49.11 9.89 50.02 9.89ZM49.76 0.43L49.76 0.43Q51.15 0.43 52.08 0.76Q53 1.08 53.55 1.67Q54.10 2.26 54.34 3.11Q54.58 3.96 54.58 5.02L54.58 5.02L54.58 11.74Q53.94 11.88 52.66 12.07Q51.39 12.26 49.81 12.26L49.81 12.26Q48.73 12.26 47.85 12.07Q46.98 11.88 46.35 11.44Q45.73 10.99 45.39 10.28Q45.06 9.58 45.06 8.54L45.06 8.54Q45.06 7.56 45.44 6.89Q45.82 6.22 46.47 5.81Q47.12 5.40 47.96 5.22Q48.80 5.04 49.71 5.04L49.71 5.04Q50.86 5.04 51.75 5.23L51.75 5.23L51.75 4.87Q51.75 4.03 51.22 3.47Q50.70 2.90 49.40 2.90L49.40 2.90Q48.56 2.90 47.78 3.02Q47 3.14 46.52 3.31L46.52 3.31L46.11 0.94Q46.66 0.74 47.67 0.59Q48.68 0.43 49.76 0.43ZM64.23 0.60L64.23 0.60Q65.17 0.60 65.77 0.89Q66.37 1.18 66.72 1.75Q67.06 2.33 67.18 3.20Q67.30 4.08 67.30 5.26L67.30 5.26L67.30 12L64.90 12L64.90 5.11Q64.90 4.44 64.82 4.03Q64.74 3.62 64.60 3.41Q64.47 3.19 64.29 3.12Q64.11 3.05 63.92 3.05L63.92 3.05Q63.70 3.05 63.46 3.08Q63.22 3.12 63.03 3.22L63.03 3.22Q63.10 3.67 63.15 4.22Q63.20 4.78 63.20 5.45L63.20 5.45L63.20 7.70L60.80 7.70L60.80 5.11Q60.80 3.96 60.57 3.50Q60.34 3.05 59.84 3.05L59.84 3.05Q59.70 3.05 59.49 3.07Q59.29 3.10 59.10 3.14L59.10 3.14L59.10 12L56.70 12L56.70 1.15Q57.63 0.89 58.54 0.74Q59.46 0.60 60.15 0.60L60.15 0.60Q60.78 0.60 61.27 0.76Q61.76 0.91 62.12 1.27L62.12 1.27Q62.53 1.01 63.08 0.80Q63.63 0.60 64.23 0.60ZM78.82 9.14L79.21 11.52Q79.14 11.57 78.88 11.69Q78.63 11.81 78.22 11.94Q77.82 12.07 77.23 12.17Q76.64 12.26 75.90 12.26L75.90 12.26Q73.86 12.26 72.92 11.05Q71.98 9.84 71.98 7.51L71.98 7.51L71.98-2.06L68.86-2.06L68.86-4.51L74.94-4.51L74.94 7.73Q74.94 8.88 75.39 9.29Q75.85 9.70 76.54 9.70L76.54 9.70Q77.43 9.70 78.03 9.46Q78.63 9.22 78.82 9.14L78.82 9.14Z"/>
    </g>
</svg>