<?xml version="1.0" encoding="UTF-8"?>
<svg height="26" width="82.5" version="1.1" xmlns="http://www.w3.org/2000/svg"><!--Created by Josélio de S. C. Júnior - 2021 - https://github.com/joseliojunior -->
    <rect
        height="24"
        width="80.5"
        rx="1"
        ry="1"
        x="1" y="1"
        fill="#bd181a"
        stroke="#360708"
        stroke-width="1" />
    <g transform="translate(0, 8)">
        <path fill="#360708" d="M23.71 8.56L23.71 8.56Q24.21 8.56 24.54 8.46Q24.86 8.35 25.06 8.17Q25.25 7.98 25.32 7.75Q25.39 7.52 25.39 7.28L25.39 7.28Q25.39 6.98 25.22 6.74Q25.04 6.50 24.77 6.31Q24.50 6.13 24.16 5.98Q23.82 5.82 23.49 5.70L23.49 5.70Q23.04 5.54 22.56 5.33Q22.08 5.12 21.69 4.80Q21.30 4.48 21.04 4.01Q20.78 3.54 20.78 2.83L20.78 2.83Q20.78 1.44 21.69 0.66Q22.59-0.13 24.18-0.13L24.18-0.13Q25.09-0.13 25.77 0.08Q26.45 0.29 26.91 0.54L26.91 0.54L26.34 2.06Q25.94 1.84 25.45 1.68Q24.96 1.52 24.32 1.52L24.32 1.52Q22.75 1.52 22.75 2.66L22.75 2.66Q22.75 2.94 22.91 3.16Q23.07 3.38 23.32 3.54Q23.57 3.71 23.88 3.84Q24.19 3.97 24.50 4.08L24.50 4.08Q24.96 4.26 25.46 4.47Q25.97 4.69 26.39 5.05Q26.82 5.41 27.09 5.94Q27.36 6.48 27.36 7.30L27.36 7.30Q27.36 8.69 26.46 9.45Q25.55 10.21 23.71 10.21L23.71 10.21Q22.48 10.21 21.74 9.94Q21.01 9.68 20.64 9.46L20.64 9.46L21.22 7.86Q21.65 8.11 22.25 8.34Q22.85 8.56 23.71 8.56ZM28.70 6.24L28.70 6.24Q28.70 5.42 28.96 4.70Q29.22 3.98 29.74 3.45Q30.27 2.91 31.08 2.60Q31.89 2.29 33.01 2.29L33.01 2.29Q33.68 2.29 34.22 2.38Q34.77 2.48 35.33 2.70L35.33 2.70L34.90 4.29Q34.58 4.18 34.18 4.09Q33.79 4 33.18 4L33.18 4Q32.48 4 32.01 4.17Q31.54 4.34 31.25 4.63Q30.96 4.93 30.83 5.34Q30.70 5.76 30.70 6.24L30.70 6.24Q30.70 7.28 31.29 7.87Q31.87 8.46 33.28 8.46L33.28 8.46Q33.74 8.46 34.25 8.40Q34.75 8.34 35.17 8.19L35.17 8.19L35.46 9.81Q35.04 9.97 34.45 10.07Q33.86 10.18 33.06 10.18L33.06 10.18Q31.90 10.18 31.08 9.87Q30.26 9.57 29.73 9.04Q29.20 8.51 28.95 7.79Q28.70 7.07 28.70 6.24ZM40.02 8.59L40.02 8.59Q40.34 8.59 40.64 8.58Q40.94 8.58 41.17 8.54L41.17 8.54L41.17 6.82Q40.98 6.78 40.70 6.76Q40.43 6.74 40.21 6.74L40.21 6.74Q39.90 6.74 39.62 6.78Q39.33 6.82 39.11 6.91Q38.90 7.01 38.77 7.18Q38.64 7.36 38.64 7.65L38.64 7.65Q38.64 8.16 39.02 8.38Q39.41 8.59 40.02 8.59ZM39.84 2.29L39.84 2.29Q40.77 2.29 41.38 2.50Q42 2.72 42.37 3.11Q42.74 3.50 42.90 4.07Q43.06 4.64 43.06 5.34L43.06 5.34L43.06 9.82Q42.62 9.92 41.78 10.05Q40.93 10.18 39.87 10.18L39.87 10.18Q39.15 10.18 38.57 10.05Q37.98 9.92 37.57 9.62Q37.15 9.33 36.93 8.86Q36.70 8.38 36.70 7.70L36.70 7.70Q36.70 7.04 36.96 6.59Q37.22 6.14 37.65 5.87Q38.08 5.60 38.64 5.48Q39.20 5.36 39.81 5.36L39.81 5.36Q40.58 5.36 41.17 5.49L41.17 5.49L41.17 5.25Q41.17 4.69 40.82 4.31Q40.46 3.94 39.60 3.94L39.60 3.94Q39.04 3.94 38.52 4.02Q38 4.10 37.68 4.21L37.68 4.21L37.41 2.62Q37.78 2.50 38.45 2.39Q39.12 2.29 39.84 2.29ZM49.49 2.40L49.49 2.40Q50.11 2.40 50.51 2.59Q50.91 2.78 51.14 3.17Q51.38 3.55 51.46 4.14Q51.54 4.72 51.54 5.50L51.54 5.50L51.54 10L49.94 10L49.94 5.41Q49.94 4.96 49.88 4.69Q49.82 4.42 49.74 4.27Q49.65 4.13 49.53 4.08Q49.41 4.03 49.28 4.03L49.28 4.03Q49.14 4.03 48.98 4.06Q48.82 4.08 48.69 4.14L48.69 4.14Q48.74 4.45 48.77 4.82Q48.80 5.18 48.80 5.63L48.80 5.63L48.80 7.14L47.20 7.14L47.20 5.41Q47.20 4.64 47.05 4.34Q46.90 4.03 46.56 4.03L46.56 4.03Q46.46 4.03 46.33 4.05Q46.19 4.06 46.06 4.10L46.06 4.10L46.06 10L44.46 10L44.46 2.77Q45.09 2.59 45.70 2.50Q46.30 2.40 46.77 2.40L46.77 2.40Q47.18 2.40 47.51 2.50Q47.84 2.61 48.08 2.85L48.08 2.85Q48.35 2.67 48.72 2.54Q49.09 2.40 49.49 2.40ZM59.22 8.10L59.47 9.68Q59.42 9.71 59.26 9.79Q59.09 9.87 58.82 9.96Q58.54 10.05 58.15 10.11Q57.76 10.18 57.26 10.18L57.26 10.18Q55.90 10.18 55.28 9.37Q54.66 8.56 54.66 7.01L54.66 7.01L54.66 0.62L52.58 0.62L52.58-1.01L56.62-1.01L56.62 7.15Q56.62 7.92 56.93 8.19Q57.23 8.46 57.70 8.46L57.70 8.46Q58.29 8.46 58.69 8.30Q59.09 8.14 59.22 8.10L59.22 8.10Z"/>
    </g>
</svg>