<?xml version="1.0" encoding="UTF-8"?>
<svg height="34" width="211.4" version="1.1" xmlns="http://www.w3.org/2000/svg"><!--Created by Josélio de S. C. Júnior - 2021 - https://github.com/joseliojunior -->
<rect
    height="32"
    width="209.4"
    rx="1"
    ry="1"
    x="1" y="1"
    fill="#0000ff"
    stroke="#ff0000"
    stroke-width="1" />
<g transform="translate(0, 12)">
    <path fill="#ffffff" d="M21.42-2.86L23.86-2.86Q24.03-2.35 24.28-1.56Q24.54-0.77 24.82 0.14Q25.11 1.06 25.40 1.99Q25.69 2.93 25.95 3.72L25.95 3.72Q26.24 2.83 26.55 1.88Q26.86 0.94 27.15 0.06Q27.44-0.82 27.68-1.58Q27.92-2.35 28.11-2.86L28.11-2.86L30.56-2.86Q30.73-0.91 30.88 0.94Q31.04 2.78 31.15 4.60Q31.26 6.41 31.33 8.24Q31.40 10.08 31.45 12L31.45 12L28.74 12L28.88 0.46L27.06 6.74L24.90 6.74L23.14 0.46L23.26 12L20.55 12Q20.62 10.18 20.71 8.21Q20.79 6.24 20.89 4.30Q20.98 2.35 21.12 0.53Q21.25-1.30 21.42-2.86L21.42-2.86ZM38.82-2.52L38.82-2.52Q38.82-1.66 38.26-1.15Q37.71-0.65 36.94-0.65L36.94-0.65Q36.18-0.65 35.64-1.15Q35.10-1.66 35.10-2.52L35.10-2.52Q35.10-3.41 35.64-3.91Q36.18-4.42 36.94-4.42L36.94-4.42Q37.71-4.42 38.26-3.91Q38.82-3.41 38.82-2.52ZM42.82 9.14L43.21 11.52Q42.30 11.95 41.49 12.11Q40.69 12.26 40.02 12.26L40.02 12.26Q38.86 12.26 38.08 11.93Q37.30 11.59 36.84 10.96Q36.37 10.32 36.18 9.41Q35.98 8.50 35.98 7.32L35.98 7.32L35.98 3.17L32.86 3.17L32.86 0.72L38.94 0.72L38.94 7.70Q38.94 8.71 39.31 9.20Q39.68 9.70 40.54 9.70L40.54 9.70Q40.95 9.70 41.53 9.59Q42.10 9.48 42.82 9.14L42.82 9.14ZM47.60 0.72L50.10 4.25L52.40 0.72L55.40 0.72L51.75 6.14Q52.33 6.84 52.88 7.62Q53.43 8.40 53.94 9.19Q54.44 9.98 54.85 10.70Q55.26 11.42 55.54 12L55.54 12L52.47 12Q51.82 10.78 51.18 9.82Q50.53 8.86 49.95 8.09L49.95 8.09Q49.23 9.05 48.66 9.96Q48.08 10.87 47.48 12L47.48 12L44.48 12Q44.84 11.33 45.31 10.60Q45.78 9.86 46.29 9.11Q46.81 8.35 47.37 7.61Q47.94 6.86 48.46 6.19L48.46 6.19L44.50 0.72L47.60 0.72ZM56.74 6.46L56.74 6.46Q56.74 4.97 57.20 3.84Q57.66 2.71 58.40 1.96Q59.14 1.20 60.10 0.82Q61.06 0.43 62.07 0.43L62.07 0.43Q64.57 0.43 65.86 1.91Q67.16 3.38 67.16 6.22L67.16 6.22Q67.16 6.50 67.15 6.82Q67.14 7.13 67.11 7.32L67.11 7.32L59.79 7.32Q59.79 8.42 60.70 9.06Q61.62 9.70 63.06 9.70L63.06 9.70Q63.94 9.70 64.75 9.50Q65.55 9.31 66.10 9.12L66.10 9.12L66.51 11.64Q65.74 11.90 64.88 12.08Q64.02 12.26 62.94 12.26L62.94 12.26Q61.50 12.26 60.36 11.89Q59.22 11.52 58.41 10.79Q57.61 10.06 57.18 8.98Q56.74 7.90 56.74 6.46ZM59.79 5.28L64.30 5.28Q64.30 4.82 64.18 4.40Q64.06 3.98 63.80 3.65Q63.54 3.31 63.13 3.11Q62.72 2.90 62.12 2.90L62.12 2.90Q61.54 2.90 61.12 3.10Q60.70 3.29 60.43 3.62Q60.15 3.96 60.00 4.39Q59.84 4.82 59.79 5.28L59.79 5.28ZM71.67 6.29L71.67 6.29Q71.67 7.80 72.24 8.76Q72.80 9.72 74.05 9.72L74.05 9.72Q74.41 9.72 74.72 9.70Q75.03 9.67 75.37 9.62L75.37 9.62L75.37 3.48Q75.03 3.29 74.60 3.16Q74.17 3.02 73.69 3.02L73.69 3.02Q72.63 3.02 72.15 3.86Q71.67 4.70 71.67 6.29ZM78.32-4.66L78.32 11.66Q77.50 11.93 76.33 12.10Q75.15 12.26 74.02 12.26L74.02 12.26Q71.38 12.26 70.03 10.70Q68.67 9.14 68.67 6.43L68.67 6.43Q68.67 3.67 69.81 2.08Q70.95 0.48 73.18 0.48L73.18 0.48Q73.78 0.48 74.36 0.61Q74.94 0.74 75.37 0.98L75.37 0.98L75.37-4.15L78.32-4.66ZM100.26 6.46L100.26 6.46Q100.26 4.94 99.66 3.97Q99.06 3 97.83 3L97.83 3Q97.50 3 97.11 3.04Q96.73 3.07 96.46 3.10L96.46 3.10L96.46 9.29Q96.75 9.48 97.23 9.60Q97.71 9.72 98.19 9.72L98.19 9.72Q99.25 9.72 99.75 8.87Q100.26 8.02 100.26 6.46ZM103.26 6.36L103.26 6.36Q103.26 7.66 102.97 8.75Q102.68 9.84 102.13 10.62Q101.58 11.40 100.74 11.83Q99.90 12.26 98.79 12.26L98.79 12.26Q97.66 12.26 96.46 11.71L96.46 11.71L96.46 15.96L93.51 15.96L93.51 1.08Q94.33 0.82 95.52 0.65Q96.70 0.48 97.86 0.48L97.86 0.48Q100.47 0.48 101.86 2.06Q103.26 3.65 103.26 6.36ZM115.02 0.98L114.49 3.72Q114.20 3.65 113.80 3.58Q113.41 3.50 113 3.44Q112.59 3.38 112.21 3.36Q111.82 3.34 111.56 3.34L111.56 3.34Q110.94 3.34 110.34 3.40Q109.74 3.46 109.11 3.62L109.11 3.62L109.11 12L106.14 12L106.14 1.46Q107.31 1.03 108.55 0.77Q109.78 0.50 111.44 0.50L111.44 0.50Q111.68 0.50 112.12 0.53Q112.57 0.55 113.07 0.61Q113.58 0.67 114.09 0.76Q114.61 0.84 115.02 0.98L115.02 0.98ZM127.33 6.34L127.33 6.34Q127.33 7.68 126.94 8.77Q126.56 9.86 125.86 10.66Q125.17 11.45 124.20 11.88Q123.22 12.31 122.02 12.31L122.02 12.31Q120.82 12.31 119.85 11.88Q118.88 11.45 118.17 10.66Q117.46 9.86 117.08 8.77Q116.70 7.68 116.70 6.34L116.70 6.34Q116.70 5.02 117.09 3.92Q117.49 2.83 118.20 2.05Q118.90 1.27 119.89 0.85Q120.87 0.43 122.02 0.43L122.02 0.43Q123.20 0.43 124.17 0.85Q125.14 1.27 125.85 2.05Q126.56 2.83 126.94 3.92Q127.33 5.02 127.33 6.34ZM119.70 6.36L119.70 6.36Q119.70 7.87 120.24 8.81Q120.78 9.74 121.98 9.74L121.98 9.74Q123.13 9.74 123.72 8.81Q124.30 7.87 124.30 6.36L124.30 6.36Q124.30 4.85 123.76 3.92Q123.22 3 122.02 3L122.02 3Q120.87 3 120.28 3.92Q119.70 4.85 119.70 6.36ZM137.60 0.72L137.60 11.26Q137.60 12.62 137.26 13.55Q136.93 14.47 136.34 15.04Q135.75 15.60 134.95 15.84Q134.14 16.08 133.21 16.08L133.21 16.08Q132.06 16.08 131.07 15.79Q130.09 15.50 129.18 15.05L129.18 15.05L130.09 12.55Q130.69 12.89 131.54 13.19Q132.39 13.49 133.09 13.49L133.09 13.49Q133.83 13.49 134.24 13.04Q134.65 12.60 134.65 11.40L134.65 11.40L134.65 3.17L130.09 3.17L130.09 0.72L137.60 0.72ZM137.24-2.52L137.24-2.52Q137.24-1.66 136.69-1.15Q136.14-0.65 135.37-0.65L135.37-0.65Q134.60-0.65 134.06-1.15Q133.52-1.66 133.52-2.52L133.52-2.52Q133.52-3.41 134.06-3.91Q134.60-4.42 135.37-4.42L135.37-4.42Q136.14-4.42 136.69-3.91Q137.24-3.41 137.24-2.52ZM140.74 6.46L140.74 6.46Q140.74 4.97 141.20 3.84Q141.66 2.71 142.40 1.96Q143.14 1.20 144.10 0.82Q145.06 0.43 146.07 0.43L146.07 0.43Q148.57 0.43 149.86 1.91Q151.16 3.38 151.16 6.22L151.16 6.22Q151.16 6.50 151.15 6.82Q151.14 7.13 151.11 7.32L151.11 7.32L143.79 7.32Q143.79 8.42 144.70 9.06Q145.62 9.70 147.06 9.70L147.06 9.70Q147.94 9.70 148.75 9.50Q149.55 9.31 150.10 9.12L150.10 9.12L150.51 11.64Q149.74 11.90 148.88 12.08Q148.02 12.26 146.94 12.26L146.94 12.26Q145.50 12.26 144.36 11.89Q143.22 11.52 142.41 10.79Q141.61 10.06 141.18 8.98Q140.74 7.90 140.74 6.46ZM143.79 5.28L148.30 5.28Q148.30 4.82 148.18 4.40Q148.06 3.98 147.80 3.65Q147.54 3.31 147.13 3.11Q146.72 2.90 146.12 2.90L146.12 2.90Q145.54 2.90 145.12 3.10Q144.70 3.29 144.43 3.62Q144.15 3.96 144.00 4.39Q143.84 4.82 143.79 5.28L143.79 5.28ZM153.06 6.36L153.06 6.36Q153.06 5.14 153.44 4.06Q153.82 2.98 154.62 2.17Q155.41 1.37 156.62 0.90Q157.83 0.43 159.51 0.43L159.51 0.43Q160.52 0.43 161.34 0.58Q162.15 0.72 162.99 1.06L162.99 1.06L162.34 3.43Q161.86 3.26 161.28 3.13Q160.69 3 159.78 3L159.78 3Q158.72 3 158.01 3.25Q157.30 3.50 156.87 3.95Q156.44 4.39 156.25 5.02Q156.06 5.64 156.06 6.36L156.06 6.36Q156.06 7.92 156.93 8.81Q157.81 9.70 159.92 9.70L159.92 9.70Q160.62 9.70 161.37 9.60Q162.13 9.50 162.75 9.29L162.75 9.29L163.18 11.71Q162.56 11.95 161.67 12.11Q160.78 12.26 159.58 12.26L159.58 12.26Q157.86 12.26 156.62 11.81Q155.38 11.35 154.59 10.56Q153.80 9.77 153.43 8.69Q153.06 7.61 153.06 6.36ZM167.43 7.80L167.43 3.17L164.86 3.17L164.86 0.72L167.43 0.72L167.43-2.11L170.38-2.59L170.38 0.72L175.11 0.72L175.11 3.17L170.38 3.17L170.38 7.73Q170.38 8.35 170.50 8.74Q170.62 9.12 170.84 9.34Q171.06 9.55 171.37 9.62Q171.68 9.70 172.06 9.70L172.06 9.70Q172.47 9.70 172.82 9.67Q173.17 9.65 173.49 9.59Q173.82 9.53 174.16 9.41Q174.51 9.29 174.92 9.10L174.92 9.10L175.33 11.64Q174.51 11.98 173.56 12.12Q172.62 12.26 171.73 12.26L171.73 12.26Q170.70 12.26 169.90 12.10Q169.11 11.93 168.56 11.45Q168.01 10.97 167.72 10.09Q167.43 9.22 167.43 7.80L167.43 7.80ZM181.47 9.77L181.47 9.77Q182.55 9.77 183.13 9.61Q183.70 9.46 183.70 8.98L183.70 8.98Q183.70 8.66 183.52 8.45Q183.34 8.23 183.02 8.08Q182.70 7.92 182.28 7.78Q181.86 7.63 181.40 7.49L181.40 7.49Q180.75 7.30 180.08 7.04Q179.41 6.79 178.86 6.41Q178.30 6.02 177.94 5.44Q177.58 4.85 177.58 3.96L177.58 3.96Q177.58 3.24 177.86 2.60Q178.14 1.97 178.72 1.48Q179.31 0.98 180.22 0.71Q181.14 0.43 182.41 0.43L182.41 0.43Q183.51 0.43 184.46 0.60Q185.41 0.77 186.10 1.08L186.10 1.08L185.65 3.58Q185.24 3.46 184.38 3.18Q183.51 2.90 182.43 2.90L182.43 2.90Q181.30 2.90 180.91 3.18Q180.51 3.46 180.51 3.77L180.51 3.77Q180.51 4.03 180.69 4.24Q180.87 4.44 181.17 4.61Q181.47 4.78 181.87 4.93Q182.26 5.09 182.72 5.23L182.72 5.23Q183.37 5.45 184.06 5.71Q184.76 5.98 185.32 6.37Q185.89 6.77 186.25 7.38Q186.61 7.99 186.61 8.88L186.61 8.88Q186.61 9.58 186.34 10.20Q186.08 10.82 185.47 11.28Q184.86 11.74 183.87 12Q182.89 12.26 181.45 12.26L181.45 12.26Q179.98 12.26 178.95 11.93Q177.92 11.59 177.30 11.33L177.30 11.33L177.75 8.86Q178.59 9.19 179.54 9.48Q180.49 9.77 181.47 9.77Z"/>
</g>
</svg>