<?xml version="1.0" encoding="UTF-8"?>
<svg height="34" width="163" version="1.1" xmlns="http://www.w3.org/2000/svg">
    <rect
        height="32"
        width="161"
        rx="1"
        ry="1"
        x="1"
        y="1"
        fill="#F44D27"
        stroke="#791b06"
        stroke-width="1"
         />
    <g transform="translate(0, 14)">
        <path fill="#791b06" d="M18.74-3.73L18.74-3.73Q17.50-3.73 16.66-3.28Q15.82-2.83 15.28-2.03Q14.73-1.24 14.49-0.13Q14.26 0.98 14.26 2.32L14.26 2.32Q14.26 5.43 15.24 6.90Q16.22 8.37 18.12 8.37L18.12 8.37Q18.43 8.37 18.79 8.34Q19.16 8.31 19.46 8.26L19.46 8.26L19.46 1.93L22.91 1.93L22.91 10.58Q22.29 10.80 20.99 11.08Q19.69 11.36 17.84 11.36L17.84 11.36Q16.22 11.36 14.91 10.79Q13.61 10.22 12.69 9.08Q11.76 7.95 11.26 6.25Q10.76 4.56 10.76 2.32L10.76 2.32Q10.76 0.11 11.34-1.59Q11.93-3.28 12.94-4.43Q13.95-5.58 15.32-6.15Q16.69-6.72 18.26-6.72L18.26-6.72Q19.27-6.72 20.07-6.57Q20.86-6.42 21.45-6.22Q22.04-6.02 22.42-5.80Q22.80-5.58 22.99-5.46L22.99-5.46L22.10-2.72Q21.48-3.11 20.58-3.42Q19.69-3.73 18.74-3.73ZM31.95-5.94L31.95-5.94Q31.95-4.93 31.31-4.34Q30.66-3.76 29.77-3.76L29.77-3.76Q28.87-3.76 28.24-4.34Q27.61-4.93 27.61-5.94L27.61-5.94Q27.61-6.98 28.24-7.56Q28.87-8.15 29.77-8.15L29.77-8.15Q30.66-8.15 31.31-7.56Q31.95-6.98 31.95-5.94ZM36.63 7.67L37.08 10.44Q36.01 10.94 35.07 11.13Q34.14 11.31 33.35 11.31L33.35 11.31Q32.01 11.31 31.10 10.92Q30.19 10.52 29.64 9.78Q29.10 9.04 28.87 7.98Q28.65 6.91 28.65 5.54L28.65 5.54L28.65 0.70L25.01 0.70L25.01-2.16L32.09-2.16L32.09 5.99Q32.09 7.16 32.53 7.74Q32.96 8.31 33.97 8.31L33.97 8.31Q34.44 8.31 35.12 8.19Q35.79 8.06 36.63 7.67L36.63 7.67ZM42.00 6.10L42.00 0.70L39.01 0.70L39.01-2.16L42.00-2.16L42.00-5.46L45.45-6.02L45.45-2.16L50.96-2.16L50.96 0.70L45.45 0.70L45.45 6.02Q45.45 6.74 45.59 7.19Q45.73 7.64 45.98 7.89Q46.23 8.14 46.60 8.23Q46.96 8.31 47.41 8.31L47.41 8.31Q47.88 8.31 48.29 8.28Q48.70 8.26 49.07 8.19Q49.45 8.12 49.86 7.98Q50.26 7.84 50.74 7.61L50.74 7.61L51.22 10.58Q50.26 10.97 49.16 11.14Q48.05 11.31 47.02 11.31L47.02 11.31Q45.81 11.31 44.89 11.11Q43.96 10.92 43.32 10.36Q42.68 9.80 42.34 8.77Q42.00 7.75 42.00 6.10L42.00 6.10ZM74.29 11.36L74.29 11.36Q70.62 11.36 68.69 9.01Q66.76 6.66 66.76 2.32L66.76 2.32Q66.76 0.16 67.34-1.52Q67.93-3.20 68.98-4.36Q70.03-5.52 71.47-6.12Q72.92-6.72 74.62-6.72L74.62-6.72Q75.55-6.72 76.29-6.57Q77.03-6.42 77.59-6.22Q78.15-6.02 78.53-5.80Q78.91-5.58 79.10-5.46L79.10-5.46L78.21-2.72Q77.56-3.14 76.65-3.43Q75.74-3.73 74.57-3.73L74.57-3.73Q73.76-3.73 72.99-3.43Q72.22-3.14 71.61-2.45Q71.01-1.77 70.63-0.62Q70.26 0.53 70.26 2.24L70.26 2.24Q70.26 5.20 71.28 6.79Q72.30 8.37 74.62 8.37L74.62 8.37Q75.97 8.37 76.85 8.06Q77.73 7.75 78.26 7.44L78.26 7.44L79.13 10.16Q78.40 10.61 77.16 10.99Q75.91 11.36 74.29 11.36ZM93.22 4.39L93.22 4.39Q93.22 5.96 92.77 7.23Q92.32 8.51 91.51 9.43Q90.70 10.36 89.56 10.86Q88.43 11.36 87.03 11.36L87.03 11.36Q85.63 11.36 84.49 10.86Q83.36 10.36 82.53 9.43Q81.71 8.51 81.26 7.23Q80.81 5.96 80.81 4.39L80.81 4.39Q80.81 2.85 81.27 1.58Q81.74 0.30 82.56-0.61Q83.39-1.52 84.54-2.01Q85.68-2.50 87.03-2.50L87.03-2.50Q88.40-2.50 89.53-2.01Q90.67-1.52 91.49-0.61Q92.32 0.30 92.77 1.58Q93.22 2.85 93.22 4.39ZM84.31 4.42L84.31 4.42Q84.31 6.18 84.94 7.28Q85.57 8.37 86.97 8.37L86.97 8.37Q88.32 8.37 89.00 7.28Q89.69 6.18 89.69 4.42L89.69 4.42Q89.69 2.66 89.06 1.58Q88.43 0.50 87.03 0.50L87.03 0.50Q85.68 0.50 85.00 1.58Q84.31 2.66 84.31 4.42ZM95.76 11L95.76-1.74Q96.69-1.99 98.05-2.22Q99.40-2.44 101-2.44L101-2.44Q102.57-2.44 103.60-2.01Q104.64-1.57 105.24-0.77Q105.84 0.02 106.10 1.13Q106.35 2.24 106.35 3.58L106.35 3.58L106.35 11L102.90 11L102.90 4.03Q102.90 2.18 102.48 1.37Q102.06 0.56 100.78 0.56L100.78 0.56Q100.38 0.56 100.01 0.58Q99.63 0.61 99.21 0.67L99.21 0.67L99.21 11L95.76 11ZM115.36 11L111.89 11L111.89 0.70L109.01 0.70L109.01-2.16L111.89-2.16L111.89-2.92Q111.89-4.51 112.35-5.56Q112.82-6.61 113.60-7.24Q114.38-7.87 115.39-8.14Q116.40-8.40 117.46-8.40L117.46-8.40Q118.56-8.40 119.70-8.21Q120.85-8.01 121.78-7.56L121.78-7.56L121.19-4.76Q120.54-4.99 119.58-5.23Q118.61-5.46 117.74-5.46L117.74-5.46Q117.27-5.46 116.83-5.38Q116.40-5.30 116.08-5.02Q115.76-4.74 115.56-4.22Q115.36-3.70 115.36-2.86L115.36-2.86L115.36-2.16L120.77-2.16L120.77 0.70L115.36 0.70L115.36 11ZM129.95-5.94L129.95-5.94Q129.95-4.93 129.31-4.34Q128.66-3.76 127.77-3.76L127.77-3.76Q126.87-3.76 126.24-4.34Q125.61-4.93 125.61-5.94L125.61-5.94Q125.61-6.98 126.24-7.56Q126.87-8.15 127.77-8.15L127.77-8.15Q128.66-8.15 129.31-7.56Q129.95-6.98 129.95-5.94ZM134.63 7.67L135.08 10.44Q134.01 10.94 133.07 11.13Q132.14 11.31 131.35 11.31L131.35 11.31Q130.01 11.31 129.10 10.92Q128.19 10.52 127.64 9.78Q127.10 9.04 126.87 7.98Q126.65 6.91 126.65 5.54L126.65 5.54L126.65 0.70L123.01 0.70L123.01-2.16L130.09-2.16L130.09 5.99Q130.09 7.16 130.53 7.74Q130.96 8.31 131.97 8.31L131.97 8.31Q132.44 8.31 133.12 8.19Q133.79 8.06 134.63 7.67L134.63 7.67ZM140.42 4L140.42 4Q140.42 5.62 141.01 6.48Q141.60 7.33 142.86 7.33L142.86 7.33Q143.42 7.33 143.91 7.19Q144.40 7.05 144.79 6.83L144.79 6.83L144.79 0.50Q144.40 0.42 144.09 0.39Q143.78 0.36 143.45 0.36L143.45 0.36Q140.42 0.36 140.42 4ZM148.26-1.74L148.26 9.40Q148.26 12.62 146.71 14.16Q145.16 15.70 141.71 15.70L141.71 15.70Q140.48 15.70 139.35 15.45Q138.21 15.20 137.18 14.86L137.18 14.86L137.82 11.95Q138.63 12.26 139.53 12.53Q140.42 12.79 141.77 12.79L141.77 12.79Q142.66 12.79 143.25 12.58Q143.84 12.37 144.18 12.01Q144.51 11.64 144.65 11.15Q144.79 10.66 144.79 10.10L144.79 10.10L144.79 9.57Q144.06 9.85 143.46 9.99Q142.86 10.13 142.16 10.13L142.16 10.13Q139.58 10.13 138.25 8.51Q136.92 6.88 136.92 4L136.92 4Q136.92 0.75 138.72-0.84Q140.51-2.44 143.59-2.44L143.59-2.44Q145.74-2.44 148.26-1.74L148.26-1.74Z"/>
    </g>
</svg>