<?xml version="1.0" encoding="UTF-8"?>
<svg height="26" width="123" version="1.1" xmlns="http://www.w3.org/2000/svg"><!--Created by Josélio de S. C. Júnior - 2021 - https://github.com/joseliojunior -->
    <rect
        height="24"
        width="121"
        rx="1"
        ry="1"
        x="1" y="1"
        fill="#F44D27"
        stroke="#791b06"
        stroke-width="1" />
    <g transform="translate(0, 8)">
        <path fill="#791b06" d="M24.99 1.58L24.99 1.58Q24.29 1.58 23.81 1.84Q23.33 2.10 23.02 2.55Q22.70 3.01 22.57 3.64Q22.43 4.27 22.43 5.04L22.43 5.04Q22.43 6.82 22.99 7.66Q23.55 8.50 24.64 8.50L24.64 8.50Q24.82 8.50 25.02 8.48Q25.23 8.46 25.41 8.43L25.41 8.43L25.41 4.82L27.38 4.82L27.38 9.76Q27.02 9.89 26.28 10.05Q25.54 10.21 24.48 10.21L24.48 10.21Q23.55 10.21 22.81 9.88Q22.06 9.55 21.54 8.90Q21.01 8.26 20.72 7.29Q20.43 6.32 20.43 5.04L20.43 5.04Q20.43 3.78 20.77 2.81Q21.10 1.84 21.68 1.18Q22.26 0.53 23.04 0.20Q23.82-0.13 24.72-0.13L24.72-0.13Q25.30-0.13 25.75-0.04Q26.21 0.05 26.54 0.16Q26.88 0.27 27.10 0.40Q27.31 0.53 27.42 0.59L27.42 0.59L26.91 2.16Q26.56 1.94 26.05 1.76Q25.54 1.58 24.99 1.58ZM32.54 0.32L32.54 0.32Q32.54 0.90 32.18 1.23Q31.81 1.57 31.30 1.57L31.30 1.57Q30.78 1.57 30.42 1.23Q30.06 0.90 30.06 0.32L30.06 0.32Q30.06-0.27 30.42-0.61Q30.78-0.94 31.30-0.94L31.30-0.94Q31.81-0.94 32.18-0.61Q32.54-0.27 32.54 0.32ZM35.22 8.10L35.47 9.68Q34.86 9.97 34.33 10.07Q33.79 10.18 33.34 10.18L33.34 10.18Q32.58 10.18 32.06 9.95Q31.54 9.73 31.22 9.30Q30.91 8.88 30.78 8.27Q30.66 7.66 30.66 6.88L30.66 6.88L30.66 4.11L28.58 4.11L28.58 2.48L32.62 2.48L32.62 7.14Q32.62 7.81 32.87 8.14Q33.12 8.46 33.70 8.46L33.70 8.46Q33.97 8.46 34.35 8.39Q34.74 8.32 35.22 8.10L35.22 8.10ZM38.29 7.20L38.29 4.11L36.58 4.11L36.58 2.48L38.29 2.48L38.29 0.59L40.26 0.27L40.26 2.48L43.41 2.48L43.41 4.11L40.26 4.11L40.26 7.15Q40.26 7.57 40.34 7.82Q40.42 8.08 40.56 8.22Q40.70 8.37 40.91 8.42Q41.12 8.46 41.38 8.46L41.38 8.46Q41.65 8.46 41.88 8.45Q42.11 8.43 42.33 8.39Q42.54 8.35 42.78 8.27Q43.01 8.19 43.28 8.06L43.28 8.06L43.55 9.76Q43.01 9.98 42.38 10.08Q41.74 10.18 41.15 10.18L41.15 10.18Q40.46 10.18 39.94 10.06Q39.41 9.95 39.04 9.63Q38.67 9.31 38.48 8.73Q38.29 8.14 38.29 7.20L38.29 7.20ZM56.74 10.21L56.74 10.21Q54.64 10.21 53.54 8.86Q52.43 7.52 52.43 5.04L52.43 5.04Q52.43 3.81 52.77 2.85Q53.10 1.89 53.70 1.22Q54.30 0.56 55.13 0.22Q55.95-0.13 56.93-0.13L56.93-0.13Q57.46-0.13 57.88-0.04Q58.30 0.05 58.62 0.16Q58.94 0.27 59.16 0.40Q59.38 0.53 59.49 0.59L59.49 0.59L58.98 2.16Q58.61 1.92 58.09 1.75Q57.57 1.58 56.90 1.58L56.90 1.58Q56.43 1.58 55.99 1.75Q55.55 1.92 55.21 2.31Q54.86 2.70 54.65 3.36Q54.43 4.02 54.43 4.99L54.43 4.99Q54.43 6.69 55.02 7.59Q55.60 8.50 56.93 8.50L56.93 8.50Q57.70 8.50 58.20 8.32Q58.70 8.14 59.01 7.97L59.01 7.97L59.50 9.52Q59.09 9.78 58.38 9.99Q57.66 10.21 56.74 10.21ZM67.55 6.22L67.55 6.22Q67.55 7.12 67.30 7.85Q67.04 8.58 66.58 9.10Q66.11 9.63 65.46 9.92Q64.82 10.21 64.02 10.21L64.02 10.21Q63.22 10.21 62.57 9.92Q61.92 9.63 61.45 9.10Q60.98 8.58 60.72 7.85Q60.46 7.12 60.46 6.22L60.46 6.22Q60.46 5.34 60.73 4.62Q60.99 3.89 61.46 3.37Q61.94 2.85 62.59 2.57Q63.25 2.29 64.02 2.29L64.02 2.29Q64.80 2.29 65.45 2.57Q66.10 2.85 66.57 3.37Q67.04 3.89 67.30 4.62Q67.55 5.34 67.55 6.22ZM62.46 6.24L62.46 6.24Q62.46 7.25 62.82 7.87Q63.18 8.50 63.98 8.50L63.98 8.50Q64.75 8.50 65.14 7.87Q65.54 7.25 65.54 6.24L65.54 6.24Q65.54 5.23 65.18 4.62Q64.82 4 64.02 4L64.02 4Q63.25 4 62.86 4.62Q62.46 5.23 62.46 6.24ZM69.01 10L69.01 2.72Q69.54 2.58 70.31 2.45Q71.09 2.32 72 2.32L72 2.32Q72.90 2.32 73.49 2.57Q74.08 2.82 74.42 3.27Q74.77 3.73 74.91 4.36Q75.06 4.99 75.06 5.76L75.06 5.76L75.06 10L73.09 10L73.09 6.02Q73.09 4.96 72.85 4.50Q72.61 4.03 71.87 4.03L71.87 4.03Q71.65 4.03 71.43 4.05Q71.22 4.06 70.98 4.10L70.98 4.10L70.98 10L69.01 10ZM80.21 10L78.22 10L78.22 4.11L76.58 4.11L76.58 2.48L78.22 2.48L78.22 2.05Q78.22 1.14 78.49 0.54Q78.75-0.06 79.20-0.42Q79.65-0.78 80.22-0.94Q80.80-1.09 81.41-1.09L81.41-1.09Q82.03-1.09 82.69-0.98Q83.34-0.86 83.87-0.61L83.87-0.61L83.54 0.99Q83.17 0.86 82.62 0.73Q82.06 0.59 81.57 0.59L81.57 0.59Q81.30 0.59 81.05 0.64Q80.80 0.69 80.62 0.85Q80.43 1.01 80.32 1.30Q80.21 1.60 80.21 2.08L80.21 2.08L80.21 2.48L83.30 2.48L83.30 4.11L80.21 4.11L80.21 10ZM88.54 0.32L88.54 0.32Q88.54 0.90 88.18 1.23Q87.81 1.57 87.30 1.57L87.30 1.57Q86.78 1.57 86.42 1.23Q86.06 0.90 86.06 0.32L86.06 0.32Q86.06-0.27 86.42-0.61Q86.78-0.94 87.30-0.94L87.30-0.94Q87.81-0.94 88.18-0.61Q88.54-0.27 88.54 0.32ZM91.22 8.10L91.47 9.68Q90.86 9.97 90.33 10.07Q89.79 10.18 89.34 10.18L89.34 10.18Q88.58 10.18 88.06 9.95Q87.54 9.73 87.22 9.30Q86.91 8.88 86.78 8.27Q86.66 7.66 86.66 6.88L86.66 6.88L86.66 4.11L84.58 4.11L84.58 2.48L88.62 2.48L88.62 7.14Q88.62 7.81 88.87 8.14Q89.12 8.46 89.70 8.46L89.70 8.46Q89.97 8.46 90.35 8.39Q90.74 8.32 91.22 8.10L91.22 8.10ZM94.53 6L94.53 6Q94.53 6.93 94.86 7.42Q95.20 7.90 95.92 7.90L95.92 7.90Q96.24 7.90 96.52 7.82Q96.80 7.74 97.02 7.62L97.02 7.62L97.02 4Q96.80 3.95 96.62 3.94Q96.45 3.92 96.26 3.92L96.26 3.92Q94.53 3.92 94.53 6ZM99.01 2.72L99.01 9.09Q99.01 10.93 98.12 11.81Q97.23 12.69 95.26 12.69L95.26 12.69Q94.56 12.69 93.91 12.54Q93.26 12.40 92.67 12.21L92.67 12.21L93.04 10.54Q93.50 10.72 94.02 10.87Q94.53 11.02 95.30 11.02L95.30 11.02Q95.81 11.02 96.14 10.90Q96.48 10.78 96.67 10.58Q96.86 10.37 96.94 10.09Q97.02 9.81 97.02 9.49L97.02 9.49L97.02 9.18Q96.61 9.34 96.26 9.42Q95.92 9.50 95.52 9.50L95.52 9.50Q94.05 9.50 93.29 8.58Q92.53 7.65 92.53 6L92.53 6Q92.53 4.14 93.55 3.23Q94.58 2.32 96.34 2.32L96.34 2.32Q97.57 2.32 99.01 2.72L99.01 2.72Z"/>
    </g>
</svg>