<?xml version="1.0" encoding="UTF-8"?>
<svg height="34" width="163" version="1.1" xmlns="http://www.w3.org/2000/svg"><!--Created by Josélio de S. C. Júnior - 2021 - https://github.com/joseliojunior -->
    <rect
        height="32"
        width="161"
        rx="1"
        ry="1"
        x="1" y="1"
        fill="#F44D27"
        stroke="#791b06"
        stroke-width="1" />
    <g transform="translate(0, 12)">
        <path fill="#791b06" d="M27.49-0.62L27.49-0.62Q26.43-0.62 25.71-0.24Q24.99 0.14 24.52 0.83Q24.06 1.51 23.85 2.46Q23.65 3.41 23.65 4.56L23.65 4.56Q23.65 7.22 24.49 8.48Q25.33 9.74 26.96 9.74L26.96 9.74Q27.22 9.74 27.54 9.72Q27.85 9.70 28.11 9.65L28.11 9.65L28.11 4.22L31.06 4.22L31.06 11.64Q30.54 11.83 29.42 12.07Q28.30 12.31 26.72 12.31L26.72 12.31Q25.33 12.31 24.21 11.82Q23.10 11.33 22.30 10.36Q21.51 9.38 21.08 7.93Q20.65 6.48 20.65 4.56L20.65 4.56Q20.65 2.66 21.15 1.21Q21.66-0.24 22.52-1.22Q23.38-2.21 24.56-2.70Q25.74-3.19 27.08-3.19L27.08-3.19Q27.94-3.19 28.63-3.06Q29.31-2.93 29.82-2.76Q30.32-2.59 30.64-2.40Q30.97-2.21 31.14-2.11L31.14-2.11L30.37 0.24Q29.84-0.10 29.07-0.36Q28.30-0.62 27.49-0.62ZM38.82-2.52L38.82-2.52Q38.82-1.66 38.26-1.15Q37.71-0.65 36.94-0.65L36.94-0.65Q36.18-0.65 35.64-1.15Q35.10-1.66 35.10-2.52L35.10-2.52Q35.10-3.41 35.64-3.91Q36.18-4.42 36.94-4.42L36.94-4.42Q37.71-4.42 38.26-3.91Q38.82-3.41 38.82-2.52ZM42.82 9.14L43.21 11.52Q42.30 11.95 41.49 12.11Q40.69 12.26 40.02 12.26L40.02 12.26Q38.86 12.26 38.08 11.93Q37.30 11.59 36.84 10.96Q36.37 10.32 36.18 9.41Q35.98 8.50 35.98 7.32L35.98 7.32L35.98 3.17L32.86 3.17L32.86 0.72L38.94 0.72L38.94 7.70Q38.94 8.71 39.31 9.20Q39.68 9.70 40.54 9.70L40.54 9.70Q40.95 9.70 41.53 9.59Q42.10 9.48 42.82 9.14L42.82 9.14ZM47.43 7.80L47.43 3.17L44.86 3.17L44.86 0.72L47.43 0.72L47.43-2.11L50.38-2.59L50.38 0.72L55.11 0.72L55.11 3.17L50.38 3.17L50.38 7.73Q50.38 8.35 50.50 8.74Q50.62 9.12 50.84 9.34Q51.06 9.55 51.37 9.62Q51.68 9.70 52.06 9.70L52.06 9.70Q52.47 9.70 52.82 9.67Q53.17 9.65 53.49 9.59Q53.82 9.53 54.16 9.41Q54.51 9.29 54.92 9.10L54.92 9.10L55.33 11.64Q54.51 11.98 53.56 12.12Q52.62 12.26 51.73 12.26L51.73 12.26Q50.70 12.26 49.90 12.10Q49.11 11.93 48.56 11.45Q48.01 10.97 47.72 10.09Q47.43 9.22 47.43 7.80L47.43 7.80ZM75.10 12.31L75.10 12.31Q71.96 12.31 70.30 10.30Q68.65 8.28 68.65 4.56L68.65 4.56Q68.65 2.71 69.15 1.27Q69.66-0.17 70.56-1.16Q71.46-2.16 72.69-2.68Q73.93-3.19 75.39-3.19L75.39-3.19Q76.18-3.19 76.82-3.06Q77.46-2.93 77.94-2.76Q78.42-2.59 78.74-2.40Q79.06-2.21 79.23-2.11L79.23-2.11L78.46 0.24Q77.91-0.12 77.13-0.37Q76.35-0.62 75.34-0.62L75.34-0.62Q74.65-0.62 73.99-0.37Q73.33-0.12 72.81 0.47Q72.30 1.06 71.97 2.04Q71.65 3.02 71.65 4.49L71.65 4.49Q71.65 7.03 72.52 8.39Q73.40 9.74 75.39 9.74L75.39 9.74Q76.54 9.74 77.30 9.48Q78.06 9.22 78.51 8.95L78.51 8.95L79.26 11.28Q78.63 11.66 77.56 11.99Q76.50 12.31 75.10 12.31ZM91.33 6.34L91.33 6.34Q91.33 7.68 90.94 8.77Q90.56 9.86 89.86 10.66Q89.17 11.45 88.20 11.88Q87.22 12.31 86.02 12.31L86.02 12.31Q84.82 12.31 83.85 11.88Q82.88 11.45 82.17 10.66Q81.46 9.86 81.08 8.77Q80.70 7.68 80.70 6.34L80.70 6.34Q80.70 5.02 81.09 3.92Q81.49 2.83 82.20 2.05Q82.90 1.27 83.89 0.85Q84.87 0.43 86.02 0.43L86.02 0.43Q87.20 0.43 88.17 0.85Q89.14 1.27 89.85 2.05Q90.56 2.83 90.94 3.92Q91.33 5.02 91.33 6.34ZM83.70 6.36L83.70 6.36Q83.70 7.87 84.24 8.81Q84.78 9.74 85.98 9.74L85.98 9.74Q87.13 9.74 87.72 8.81Q88.30 7.87 88.30 6.36L88.30 6.36Q88.30 4.85 87.76 3.92Q87.22 3 86.02 3L86.02 3Q84.87 3 84.28 3.92Q83.70 4.85 83.70 6.36ZM93.51 12L93.51 1.08Q94.30 0.86 95.47 0.67Q96.63 0.48 98 0.48L98 0.48Q99.34 0.48 100.23 0.85Q101.12 1.22 101.64 1.91Q102.15 2.59 102.37 3.54Q102.58 4.49 102.58 5.64L102.58 5.64L102.58 12L99.63 12L99.63 6.02Q99.63 4.44 99.27 3.74Q98.91 3.05 97.81 3.05L97.81 3.05Q97.47 3.05 97.15 3.07Q96.82 3.10 96.46 3.14L96.46 3.14L96.46 12L93.51 12ZM110.31 12L107.34 12L107.34 3.17L104.86 3.17L104.86 0.72L107.34 0.72L107.34 0.07Q107.34-1.30 107.73-2.20Q108.13-3.10 108.80-3.64Q109.47-4.18 110.34-4.40Q111.20-4.63 112.11-4.63L112.11-4.63Q113.05-4.63 114.03-4.46Q115.02-4.30 115.81-3.91L115.81-3.91L115.30-1.51Q114.75-1.70 113.92-1.91Q113.10-2.11 112.35-2.11L112.35-2.11Q111.94-2.11 111.57-2.04Q111.20-1.97 110.92-1.73Q110.65-1.49 110.48-1.04Q110.31-0.60 110.31 0.12L110.31 0.12L110.31 0.72L114.94 0.72L114.94 3.17L110.31 3.17L110.31 12ZM122.82-2.52L122.82-2.52Q122.82-1.66 122.26-1.15Q121.71-0.65 120.94-0.65L120.94-0.65Q120.18-0.65 119.64-1.15Q119.10-1.66 119.10-2.52L119.10-2.52Q119.10-3.41 119.64-3.91Q120.18-4.42 120.94-4.42L120.94-4.42Q121.71-4.42 122.26-3.91Q122.82-3.41 122.82-2.52ZM126.82 9.14L127.21 11.52Q126.30 11.95 125.49 12.11Q124.69 12.26 124.02 12.26L124.02 12.26Q122.86 12.26 122.08 11.93Q121.30 11.59 120.84 10.96Q120.37 10.32 120.18 9.41Q119.98 8.50 119.98 7.32L119.98 7.32L119.98 3.17L116.86 3.17L116.86 0.72L122.94 0.72L122.94 7.70Q122.94 8.71 123.31 9.20Q123.68 9.70 124.54 9.70L124.54 9.70Q124.95 9.70 125.53 9.59Q126.10 9.48 126.82 9.14L126.82 9.14ZM131.79 6L131.79 6Q131.79 7.39 132.30 8.12Q132.80 8.86 133.88 8.86L133.88 8.86Q134.36 8.86 134.78 8.74Q135.20 8.62 135.54 8.42L135.54 8.42L135.54 3Q135.20 2.93 134.94 2.90Q134.67 2.88 134.38 2.88L134.38 2.88Q131.79 2.88 131.79 6ZM138.51 1.08L138.51 10.63Q138.51 13.39 137.18 14.71Q135.85 16.03 132.90 16.03L132.90 16.03Q131.84 16.03 130.87 15.82Q129.90 15.60 129.01 15.31L129.01 15.31L129.56 12.82Q130.26 13.08 131.02 13.31Q131.79 13.54 132.94 13.54L132.94 13.54Q133.71 13.54 134.22 13.36Q134.72 13.18 135.01 12.86Q135.30 12.55 135.42 12.13Q135.54 11.71 135.54 11.23L135.54 11.23L135.54 10.78Q134.91 11.02 134.40 11.14Q133.88 11.26 133.28 11.26L133.28 11.26Q131.07 11.26 129.93 9.86Q128.79 8.47 128.79 6L128.79 6Q128.79 3.22 130.33 1.85Q131.86 0.48 134.50 0.48L134.50 0.48Q136.35 0.48 138.51 1.08L138.51 1.08Z"/>
    </g>
</svg>