<?xml version="1.0" encoding="UTF-8"?>
<svg height="34" width="92.5" version="1.1" xmlns="http://www.w3.org/2000/svg">
    <rect
        height="32"
        width="90.5"
        rx="14"
        ry="14"
        x="1"
        y="1"
        fill="#ffefaf"
        stroke="#e0b400"
        stroke-width="1"
         />
    <g transform="translate(0, 14)">
        <path fill="#e0b400" d="M19.30-6.33L22.74-6.33L22.74 11L19.30 11L19.30 3.36L14.70 3.36L14.70 11L11.26 11L11.26-6.33L14.70-6.33L14.70 0.50L19.30 0.50L19.30-6.33ZM37.22 4.39L37.22 4.39Q37.22 5.96 36.77 7.23Q36.32 8.51 35.51 9.43Q34.70 10.36 33.56 10.86Q32.43 11.36 31.03 11.36L31.03 11.36Q29.63 11.36 28.49 10.86Q27.36 10.36 26.53 9.43Q25.71 8.51 25.26 7.23Q24.81 5.96 24.81 4.39L24.81 4.39Q24.81 2.85 25.27 1.58Q25.74 0.30 26.56-0.61Q27.39-1.52 28.54-2.01Q29.68-2.50 31.03-2.50L31.03-2.50Q32.40-2.50 33.53-2.01Q34.67-1.52 35.49-0.61Q36.32 0.30 36.77 1.58Q37.22 2.85 37.22 4.39ZM28.31 4.42L28.31 4.42Q28.31 6.18 28.94 7.28Q29.57 8.37 30.97 8.37L30.97 8.37Q32.32 8.37 33.00 7.28Q33.69 6.18 33.69 4.42L33.69 4.42Q33.69 2.66 33.06 1.58Q32.43 0.50 31.03 0.50L31.03 0.50Q29.68 0.50 29.00 1.58Q28.31 2.66 28.31 4.42ZM50.63 7.67L51.08 10.44Q50.99 10.50 50.70 10.64Q50.40 10.78 49.93 10.93Q49.45 11.08 48.77 11.20Q48.08 11.31 47.21 11.31L47.21 11.31Q44.83 11.31 43.74 9.89Q42.65 8.48 42.65 5.76L42.65 5.76L42.65-5.41L39.01-5.41L39.01-8.26L46.09-8.26L46.09 6.02Q46.09 7.36 46.62 7.84Q47.16 8.31 47.97 8.31L47.97 8.31Q49.00 8.31 49.70 8.03Q50.40 7.75 50.63 7.67L50.63 7.67ZM61.69-2.16L65.22-2.16Q64.68-0.31 64.19 1.47Q63.70 3.24 63.17 4.94Q62.64 6.63 62.04 8.26Q61.44 9.88 60.74 11.42L60.74 11.42Q60.20 12.54 59.69 13.35Q59.17 14.16 58.54 14.68Q57.91 15.20 57.14 15.45Q56.37 15.70 55.33 15.70L55.33 15.70Q54.46 15.70 53.75 15.56Q53.04 15.42 52.56 15.20L52.56 15.20L53.20 12.32Q53.76 12.57 54.20 12.67Q54.63 12.76 55.14 12.76L55.14 12.76Q56.14 12.76 56.76 12.09Q57.38 11.42 57.74 10.50L57.74 10.50Q56.51 8.03 55.28 4.85Q54.04 1.68 53.04-2.16L53.04-2.16L56.62-2.16Q56.87-1.12 57.19 0.05Q57.52 1.23 57.88 2.40Q58.24 3.58 58.65 4.71Q59.06 5.85 59.48 6.83L59.48 6.83Q59.76 5.85 60.06 4.71Q60.37 3.58 60.65 2.42Q60.93 1.26 61.20 0.08Q61.46-1.10 61.69-2.16L61.69-2.16ZM74.29 11.36L74.29 11.36Q70.62 11.36 68.69 9.01Q66.76 6.66 66.76 2.32L66.76 2.32Q66.76 0.16 67.34-1.52Q67.93-3.20 68.98-4.36Q70.03-5.52 71.47-6.12Q72.92-6.72 74.62-6.72L74.62-6.72Q75.55-6.72 76.29-6.57Q77.03-6.42 77.59-6.22Q78.15-6.02 78.53-5.80Q78.91-5.58 79.10-5.46L79.10-5.46L78.21-2.72Q77.56-3.14 76.65-3.43Q75.74-3.73 74.57-3.73L74.57-3.73Q73.76-3.73 72.99-3.43Q72.22-3.14 71.61-2.45Q71.01-1.77 70.63-0.62Q70.26 0.53 70.26 2.24L70.26 2.24Q70.26 5.20 71.28 6.79Q72.30 8.37 74.62 8.37L74.62 8.37Q75.97 8.37 76.85 8.06Q77.73 7.75 78.26 7.44L78.26 7.44L79.13 10.16Q78.40 10.61 77.16 10.99Q75.91 11.36 74.29 11.36Z"/>
    </g>
</svg>