<?xml version="1.0" encoding="UTF-8"?><svg height="26" width="82.5" version="1.1" xmlns="http://www.w3.org/2000/svg"><!--Created by Josélio de S. C. Júnior - 2021 - https://github.com/joseliojunior --><rect height="24" width="80.5" rx="12" ry="12" x="1" y="1" fill="#ffefaf" stroke="#e0b400" stroke-width="1" /><g transform="translate(0, 8)"><path fill="#e0b400" d="M25.31 0.10L27.28 0.10L27.28 10L25.31 10L25.31 5.63L22.69 5.63L22.69 10L20.72 10L20.72 0.10L22.69 0.10L22.69 4L25.31 4L25.31 0.10ZM35.55 6.22L35.55 6.22Q35.55 7.12 35.30 7.85Q35.04 8.58 34.58 9.10Q34.11 9.63 33.46 9.92Q32.82 10.21 32.02 10.21L32.02 10.21Q31.22 10.21 30.57 9.92Q29.92 9.63 29.45 9.10Q28.98 8.58 28.72 7.85Q28.46 7.12 28.46 6.22L28.46 6.22Q28.46 5.34 28.73 4.62Q28.99 3.89 29.46 3.37Q29.94 2.85 30.59 2.57Q31.25 2.29 32.02 2.29L32.02 2.29Q32.80 2.29 33.45 2.57Q34.10 2.85 34.57 3.37Q35.04 3.89 35.30 4.62Q35.55 5.34 35.55 6.22ZM30.46 6.24L30.46 6.24Q30.46 7.25 30.82 7.87Q31.18 8.50 31.98 8.50L31.98 8.50Q32.75 8.50 33.14 7.87Q33.54 7.25 33.54 6.24L33.54 6.24Q33.54 5.23 33.18 4.62Q32.82 4 32.02 4L32.02 4Q31.25 4 30.86 4.62Q30.46 5.23 30.46 6.24ZM43.22 8.10L43.47 9.68Q43.42 9.71 43.26 9.79Q43.09 9.87 42.82 9.96Q42.54 10.05 42.15 10.11Q41.76 10.18 41.26 10.18L41.26 10.18Q39.90 10.18 39.28 9.37Q38.66 8.56 38.66 7.01L38.66 7.01L38.66 0.62L36.58 0.62L36.58-1.01L40.62-1.01L40.62 7.15Q40.62 7.92 40.93 8.19Q41.23 8.46 41.70 8.46L41.70 8.46Q42.29 8.46 42.69 8.30Q43.09 8.14 43.22 8.10L43.22 8.10ZM49.54 2.48L51.55 2.48Q51.25 3.54 50.97 4.55Q50.69 5.57 50.38 6.54Q50.08 7.50 49.74 8.43Q49.39 9.36 48.99 10.24L48.99 10.24Q48.69 10.88 48.39 11.34Q48.10 11.81 47.74 12.10Q47.38 12.40 46.94 12.54Q46.50 12.69 45.90 12.69L45.90 12.69Q45.41 12.69 45 12.61Q44.59 12.53 44.32 12.40L44.32 12.40L44.69 10.75Q45.01 10.90 45.26 10.95Q45.50 11.01 45.79 11.01L45.79 11.01Q46.37 11.01 46.72 10.62Q47.07 10.24 47.28 9.71L47.28 9.71Q46.58 8.30 45.87 6.49Q45.17 4.67 44.59 2.48L44.59 2.48L46.64 2.48Q46.78 3.07 46.97 3.74Q47.15 4.42 47.36 5.09Q47.57 5.76 47.80 6.41Q48.03 7.06 48.27 7.62L48.27 7.62Q48.43 7.06 48.61 6.41Q48.78 5.76 48.94 5.10Q49.10 4.43 49.26 3.76Q49.41 3.09 49.54 2.48L49.54 2.48ZM56.74 10.21L56.74 10.21Q54.64 10.21 53.54 8.86Q52.43 7.52 52.43 5.04L52.43 5.04Q52.43 3.81 52.77 2.85Q53.10 1.89 53.70 1.22Q54.30 0.56 55.13 0.22Q55.95-0.13 56.93-0.13L56.93-0.13Q57.46-0.13 57.88-0.04Q58.30 0.05 58.62 0.16Q58.94 0.27 59.16 0.40Q59.38 0.53 59.49 0.59L59.49 0.59L58.98 2.16Q58.61 1.92 58.09 1.75Q57.57 1.58 56.90 1.58L56.90 1.58Q56.43 1.58 55.99 1.75Q55.55 1.92 55.21 2.31Q54.86 2.70 54.65 3.36Q54.43 4.02 54.43 4.99L54.43 4.99Q54.43 6.69 55.02 7.59Q55.60 8.50 56.93 8.50L56.93 8.50Q57.70 8.50 58.20 8.32Q58.70 8.14 59.01 7.97L59.01 7.97L59.50 9.52Q59.09 9.78 58.38 9.99Q57.66 10.21 56.74 10.21Z"/></g></svg>