<?xml version="1.0" encoding="UTF-8"?>
<svg height="34" width="102.5" version="1.1" xmlns="http://www.w3.org/2000/svg"><!--Created by Josélio de S. C. Júnior - 2021 - https://github.com/joseliojunior -->
    <rect
        height="32"
        width="100.5"
        rx="16"
        ry="16"
        x="1" y="1"
        fill="#ffefaf"
        stroke="#e0b400"
        stroke-width="1" />
    <g transform="translate(0, 12)">
        <path fill="#e0b400" d="M27.97-2.86L30.92-2.86L30.92 12L27.97 12L27.97 5.45L24.03 5.45L24.03 12L21.08 12L21.08-2.86L24.03-2.86L24.03 3L27.97 3L27.97-2.86ZM43.33 6.34L43.33 6.34Q43.33 7.68 42.94 8.77Q42.56 9.86 41.86 10.66Q41.17 11.45 40.20 11.88Q39.22 12.31 38.02 12.31L38.02 12.31Q36.82 12.31 35.85 11.88Q34.88 11.45 34.17 10.66Q33.46 9.86 33.08 8.77Q32.70 7.68 32.70 6.34L32.70 6.34Q32.70 5.02 33.09 3.92Q33.49 2.83 34.20 2.05Q34.90 1.27 35.89 0.85Q36.87 0.43 38.02 0.43L38.02 0.43Q39.20 0.43 40.17 0.85Q41.14 1.27 41.85 2.05Q42.56 2.83 42.94 3.92Q43.33 5.02 43.33 6.34ZM35.70 6.36L35.70 6.36Q35.70 7.87 36.24 8.81Q36.78 9.74 37.98 9.74L37.98 9.74Q39.13 9.74 39.72 8.81Q40.30 7.87 40.30 6.36L40.30 6.36Q40.30 4.85 39.76 3.92Q39.22 3 38.02 3L38.02 3Q36.87 3 36.28 3.92Q35.70 4.85 35.70 6.36ZM54.82 9.14L55.21 11.52Q55.14 11.57 54.88 11.69Q54.63 11.81 54.22 11.94Q53.82 12.07 53.23 12.17Q52.64 12.26 51.90 12.26L51.90 12.26Q49.86 12.26 48.92 11.05Q47.98 9.84 47.98 7.51L47.98 7.51L47.98-2.06L44.86-2.06L44.86-4.51L50.94-4.51L50.94 7.73Q50.94 8.88 51.39 9.29Q51.85 9.70 52.54 9.70L52.54 9.70Q53.43 9.70 54.03 9.46Q54.63 9.22 54.82 9.14L54.82 9.14ZM64.30 0.72L67.33 0.72Q66.87 2.30 66.45 3.83Q66.03 5.35 65.58 6.80Q65.12 8.26 64.60 9.65Q64.09 11.04 63.49 12.36L63.49 12.36Q63.03 13.32 62.59 14.02Q62.14 14.71 61.60 15.16Q61.06 15.60 60.40 15.82Q59.74 16.03 58.86 16.03L58.86 16.03Q58.11 16.03 57.50 15.91Q56.89 15.79 56.48 15.60L56.48 15.60L57.03 13.13Q57.51 13.34 57.88 13.43Q58.26 13.51 58.69 13.51L58.69 13.51Q59.55 13.51 60.08 12.94Q60.61 12.36 60.92 11.57L60.92 11.57Q59.86 9.46 58.81 6.73Q57.75 4.01 56.89 0.72L56.89 0.72L59.96 0.72Q60.18 1.61 60.45 2.62Q60.73 3.62 61.04 4.63Q61.35 5.64 61.70 6.61Q62.05 7.58 62.41 8.42L62.41 8.42Q62.65 7.58 62.91 6.61Q63.18 5.64 63.42 4.64Q63.66 3.65 63.88 2.64Q64.11 1.63 64.30 0.72L64.30 0.72ZM75.10 12.31L75.10 12.31Q71.96 12.31 70.30 10.30Q68.65 8.28 68.65 4.56L68.65 4.56Q68.65 2.71 69.15 1.27Q69.66-0.17 70.56-1.16Q71.46-2.16 72.69-2.68Q73.93-3.19 75.39-3.19L75.39-3.19Q76.18-3.19 76.82-3.06Q77.46-2.93 77.94-2.76Q78.42-2.59 78.74-2.40Q79.06-2.21 79.23-2.11L79.23-2.11L78.46 0.24Q77.91-0.12 77.13-0.37Q76.35-0.62 75.34-0.62L75.34-0.62Q74.65-0.62 73.99-0.37Q73.33-0.12 72.81 0.47Q72.30 1.06 71.97 2.04Q71.65 3.02 71.65 4.49L71.65 4.49Q71.65 7.03 72.52 8.39Q73.40 9.74 75.39 9.74L75.39 9.74Q76.54 9.74 77.30 9.48Q78.06 9.22 78.51 8.95L78.51 8.95L79.26 11.28Q78.63 11.66 77.56 11.99Q76.50 12.31 75.10 12.31Z"/>
    </g>
</svg>