<?xml version="1.0" encoding="UTF-8"?>
<svg height="34" width="134.8" version="1.1" xmlns="http://www.w3.org/2000/svg">
    <rect
        height="32"
        width="132.8"
        rx="1"
        ry="1"
        x="1"
        y="1"
        fill="#10253f"
        stroke="#2f6cb6"
        stroke-width="1"
         />
    <g transform="translate(0, 14)">
        <path fill="#2f6cb6" d="M11.65-6.33L14.51-6.33Q14.70-5.74 15.00-4.82Q15.29-3.90 15.63-2.83Q15.96-1.77 16.30-0.68Q16.64 0.42 16.94 1.34L16.94 1.34Q17.28 0.30 17.64-0.80Q18.01-1.91 18.34-2.93Q18.68-3.95 18.96-4.85Q19.24-5.74 19.46-6.33L19.46-6.33L22.32-6.33Q22.52-4.06 22.70-1.91Q22.88 0.25 23.01 2.36Q23.13 4.48 23.22 6.62Q23.30 8.76 23.36 11L23.36 11L20.19 11L20.36-2.47L18.23 4.87L15.71 4.87L13.67-2.47L13.81 11L10.64 11Q10.73 8.87 10.83 6.58Q10.92 4.28 11.04 2.01Q11.15-0.26 11.30-2.38Q11.46-4.51 11.65-6.33L11.65-6.33ZM37.22 4.39L37.22 4.39Q37.22 5.96 36.77 7.23Q36.32 8.51 35.51 9.43Q34.70 10.36 33.56 10.86Q32.43 11.36 31.03 11.36L31.03 11.36Q29.63 11.36 28.49 10.86Q27.36 10.36 26.53 9.43Q25.71 8.51 25.26 7.23Q24.81 5.96 24.81 4.39L24.81 4.39Q24.81 2.85 25.27 1.58Q25.74 0.30 26.56-0.61Q27.39-1.52 28.54-2.01Q29.68-2.50 31.03-2.50L31.03-2.50Q32.40-2.50 33.53-2.01Q34.67-1.52 35.49-0.61Q36.32 0.30 36.77 1.58Q37.22 2.85 37.22 4.39ZM28.31 4.42L28.31 4.42Q28.31 6.18 28.94 7.28Q29.57 8.37 30.97 8.37L30.97 8.37Q32.32 8.37 33.00 7.28Q33.69 6.18 33.69 4.42L33.69 4.42Q33.69 2.66 33.06 1.58Q32.43 0.50 31.03 0.50L31.03 0.50Q29.68 0.50 29.00 1.58Q28.31 2.66 28.31 4.42ZM42.28 4.34L42.28 4.34Q42.28 6.10 42.94 7.22Q43.60 8.34 45.06 8.34L45.06 8.34Q45.48 8.34 45.84 8.31Q46.20 8.28 46.60 8.23L46.60 8.23L46.60 1.06Q46.20 0.84 45.70 0.68Q45.20 0.53 44.64 0.53L44.64 0.53Q43.40 0.53 42.84 1.51Q42.28 2.49 42.28 4.34ZM50.04-8.43L50.04 10.61Q49.09 10.92 47.72 11.11Q46.34 11.31 45.03 11.31L45.03 11.31Q41.95 11.31 40.37 9.49Q38.78 7.67 38.78 4.50L38.78 4.50Q38.78 1.28 40.11-0.58Q41.44-2.44 44.05-2.44L44.05-2.44Q44.75-2.44 45.42-2.29Q46.09-2.13 46.60-1.85L46.60-1.85L46.60-7.84L50.04-8.43ZM64.26-2.16L64.26 10.55Q63.31 10.80 61.95 11.06Q60.60 11.31 59 11.31L59 11.31Q57.38 11.31 56.34 10.86Q55.30 10.41 54.70 9.59Q54.10 8.76 53.88 7.64Q53.65 6.52 53.65 5.18L53.65 5.18L53.65-2.16L57.10-2.16L57.10 4.73Q57.10 6.55 57.53 7.43Q57.96 8.31 59.22 8.31L59.22 8.31Q60.01 8.31 60.79 8.17L60.79 8.17L60.79-2.16L64.26-2.16ZM78.63 7.67L79.08 10.44Q78.99 10.50 78.70 10.64Q78.40 10.78 77.93 10.93Q77.45 11.08 76.77 11.20Q76.08 11.31 75.21 11.31L75.21 11.31Q72.83 11.31 71.74 9.89Q70.65 8.48 70.65 5.76L70.65 5.76L70.65-5.41L67.01-5.41L67.01-8.26L74.09-8.26L74.09 6.02Q74.09 7.36 74.62 7.84Q75.16 8.31 75.97 8.31L75.97 8.31Q77.00 8.31 77.70 8.03Q78.40 7.75 78.63 7.67L78.63 7.67ZM87.03 8.54L87.03 8.54Q87.59 8.54 88.12 8.52Q88.65 8.51 89.04 8.45L89.04 8.45L89.04 5.43Q88.71 5.37 88.23 5.33Q87.76 5.29 87.36 5.29L87.36 5.29Q86.83 5.29 86.33 5.36Q85.82 5.43 85.45 5.60Q85.07 5.76 84.84 6.07Q84.62 6.38 84.62 6.88L84.62 6.88Q84.62 7.78 85.29 8.16Q85.96 8.54 87.03 8.54ZM86.72-2.50L86.72-2.50Q88.34-2.50 89.42-2.12Q90.50-1.74 91.14-1.05Q91.79-0.37 92.07 0.63Q92.35 1.62 92.35 2.85L92.35 2.85L92.35 10.69Q91.59 10.86 90.11 11.08Q88.62 11.31 86.78 11.31L86.78 11.31Q85.52 11.31 84.49 11.08Q83.47 10.86 82.74 10.34Q82.02 9.82 81.62 9.00Q81.23 8.17 81.23 6.97L81.23 6.97Q81.23 5.82 81.68 5.04Q82.13 4.25 82.88 3.78Q83.64 3.30 84.62 3.09Q85.60 2.88 86.66 2.88L86.66 2.88Q88.01 2.88 89.04 3.10L89.04 3.10L89.04 2.68Q89.04 1.70 88.43 1.05Q87.81 0.39 86.30 0.39L86.30 0.39Q85.32 0.39 84.41 0.53Q83.50 0.67 82.94 0.86L82.94 0.86L82.46-1.91Q83.11-2.13 84.28-2.31Q85.46-2.50 86.72-2.50ZM97.16 5.51L97.16 2.12L104.84 2.12L104.84 5.51L97.16 5.51ZM120.15-1.77L120.15-1.77Q120.15-0.87 119.82-0.05Q119.48 0.78 118.92 1.56Q118.36 2.35 117.66 3.08Q116.96 3.80 116.23 4.48L116.23 4.48Q115.87 4.81 115.39 5.27Q114.92 5.74 114.50 6.23Q114.08 6.72 113.78 7.22Q113.49 7.72 113.49 8.14L113.49 8.14L120.94 8.14L120.94 11L109.62 11Q109.54 10.72 109.55 10.30Q109.57 9.88 109.57 9.71L109.57 9.71Q109.57 8.31 110.09 7.14Q110.60 5.96 111.40 4.97Q112.20 3.97 113.11 3.12Q114.02 2.26 114.82 1.48Q115.62 0.70 116.13-0.03Q116.65-0.76 116.65-1.52L116.65-1.52Q116.65-2.58 116.01-3.15Q115.36-3.73 114.38-3.73L114.38-3.73Q113.57-3.73 112.68-3.34Q111.78-2.94 110.91-2.02L110.91-2.02L109.20-4.43Q110.32-5.60 111.79-6.16Q113.26-6.72 114.72-6.72L114.72-6.72Q115.78-6.72 116.76-6.42Q117.74-6.11 118.50-5.49Q119.26-4.88 119.70-3.94Q120.15-3 120.15-1.77Z"/>
    </g>
</svg>