<?xml version="1.0" encoding="UTF-8"?><svg height="26" width="74.4" version="1.1" xmlns="http://www.w3.org/2000/svg"><!--Created by Josélio de S. C. Júnior - 2021 - https://github.com/joseliojunior --><defs><pattern id="pattern" x="3" y="3" width="6" height="6" patternUnits="userSpaceOnUse" patternTransform="rotate(45)"><rect height="6" width="6" fill="#ffffff"/><line x1="0" y1="0" x2="0" y2="6" stroke="#bbbbbb" stroke-width="2" /></pattern></defs><rect height="24" width="72.4" rx="12" ry="12" x="1" y="1" fill="url(#pattern)" /><g transform="translate(0, 8)"><path fill="#000000" d="M27.26 10L25.68 10Q25.01 8.35 24.22 6.71Q23.42 5.07 22.51 3.42L22.51 3.42L22.51 10L20.74 10L20.74 0.10L22.32 0.10Q22.77 0.80 23.22 1.62Q23.66 2.45 24.09 3.26Q24.51 4.08 24.87 4.85Q25.23 5.62 25.49 6.19L25.49 6.19L25.49 0.10L27.26 0.10L27.26 10ZM35.36 10L29.01 10L29.01 0.10L35.01 0.10L35.01 1.73L30.98 1.73L30.98 3.95L34.48 3.95L34.48 5.58L30.98 5.58L30.98 8.37L35.36 8.37L35.36 10ZM38.43 5.04L38.43 5.04Q38.43 5.76 38.49 6.39Q38.54 7.02 38.71 7.49Q38.88 7.95 39.18 8.22Q39.49 8.50 40 8.50L40 8.50Q40.50 8.50 40.81 8.22Q41.12 7.95 41.29 7.48Q41.46 7.01 41.51 6.38Q41.57 5.76 41.57 5.04L41.57 5.04Q41.57 4.32 41.51 3.69Q41.46 3.06 41.29 2.59Q41.12 2.13 40.82 1.86Q40.51 1.58 40 1.58L40 1.58Q39.49 1.58 39.18 1.86Q38.88 2.13 38.71 2.60Q38.54 3.07 38.49 3.70Q38.43 4.32 38.43 5.04ZM36.43 5.04L36.43 5.04Q36.43 2.48 37.38 1.18Q38.32-0.13 40-0.13L40-0.13Q41.74-0.13 42.66 1.18Q43.57 2.48 43.57 5.04L43.57 5.04Q43.57 7.60 42.64 8.90Q41.71 10.21 40.02 10.21L40.02 10.21Q38.27 10.21 37.35 8.90Q36.43 7.60 36.43 5.04ZM51.26 10L49.68 10Q49.01 8.35 48.22 6.71Q47.42 5.07 46.51 3.42L46.51 3.42L46.51 10L44.74 10L44.74 0.10L46.32 0.10Q46.77 0.80 47.22 1.62Q47.66 2.45 48.09 3.26Q48.51 4.08 48.87 4.85Q49.23 5.62 49.49 6.19L49.49 6.19L49.49 0.10L51.26 0.10L51.26 10Z"/></g></svg>