<?xml version="1.0" encoding="UTF-8"?>
<svg height="34" width="64.3" version="1.1" xmlns="http://www.w3.org/2000/svg">
    <rect
        height="32"
        width="62.3"
        rx="1"
        ry="1"
        x="1"
        y="1"
        fill="#44a51c"
        stroke="#0f2306"
        stroke-width="1"
         />
    <g transform="translate(0, 14)">
        <path fill="#0f2306" d="M10.76 2.40L10.76 2.40Q10.76-2.08 12.41-4.36Q14.06-6.64 17-6.64L17-6.64Q20.05-6.64 21.65-4.36Q23.24-2.08 23.24 2.40L23.24 2.40Q23.24 6.32 21.98 8.58Q20.72 10.83 18.34 11.31L18.34 11.31Q18.65 12.01 19.84 12.47Q21.03 12.93 23.10 13.30L23.10 13.30L22.38 15.76Q19.10 15.31 17.43 14.26Q15.77 13.21 15.46 11.25L15.46 11.25Q13.19 10.69 11.97 8.47Q10.76 6.24 10.76 2.40ZM14.26 2.40L14.26 2.40Q14.26 3.66 14.35 4.76Q14.45 5.85 14.75 6.67Q15.04 7.50 15.57 7.98Q16.10 8.45 17 8.45L17 8.45Q17.87 8.45 18.41 7.98Q18.96 7.50 19.25 6.67Q19.55 5.85 19.65 4.76Q19.74 3.66 19.74 2.40L19.74 2.40Q19.74 1.14 19.65 0.04Q19.55-1.07 19.25-1.88Q18.96-2.69 18.43-3.17Q17.90-3.64 17-3.64L17-3.64Q16.10-3.64 15.57-3.17Q15.04-2.69 14.75-1.87Q14.45-1.04 14.35 0.05Q14.26 1.14 14.26 2.40ZM25.65-6.33L28.51-6.33Q28.70-5.74 29.00-4.82Q29.29-3.90 29.63-2.83Q29.96-1.77 30.30-0.68Q30.64 0.42 30.94 1.34L30.94 1.34Q31.28 0.30 31.64-0.80Q32.01-1.91 32.34-2.93Q32.68-3.95 32.96-4.85Q33.24-5.74 33.46-6.33L33.46-6.33L36.32-6.33Q36.52-4.06 36.70-1.91Q36.88 0.25 37.01 2.36Q37.13 4.48 37.22 6.62Q37.30 8.76 37.36 11L37.36 11L34.19 11L34.36-2.47L32.23 4.87L29.71 4.87L27.67-2.47L27.81 11L24.64 11Q24.73 8.87 24.83 6.58Q24.92 4.28 25.04 2.01Q25.15-0.26 25.30-2.38Q25.46-4.51 25.65-6.33L25.65-6.33ZM50.88 8.14L50.88 11L39.99 11L39.99-6.33L43.46-6.33L43.46 8.14L50.88 8.14Z"/>
    </g>
</svg>