<?xml version="1.0" encoding="UTF-8"?>
<svg height="26" width="66.3" version="1.1" xmlns="http://www.w3.org/2000/svg"><!--Created by Josélio de S. C. Júnior - 2021 - https://github.com/joseliojunior -->
    <rect
        height="24"
        width="64.3"
        rx="12"
        ry="12"
        x="1" y="1"
        fill="#44a51c"
        stroke="#0f2306"
        stroke-width="1" />
    <g transform="translate(0, 8)">
        <path fill="#0f2306" d="M20.43 5.09L20.43 5.09Q20.43 2.53 21.38 1.22Q22.32-0.08 24-0.08L24-0.08Q25.74-0.08 26.66 1.22Q27.57 2.53 27.57 5.09L27.57 5.09Q27.57 7.33 26.85 8.62Q26.13 9.90 24.77 10.18L24.77 10.18Q24.94 10.58 25.62 10.84Q26.30 11.10 27.49 11.31L27.49 11.31L27.07 12.72Q25.20 12.46 24.25 11.86Q23.30 11.26 23.12 10.14L23.12 10.14Q21.82 9.82 21.13 8.55Q20.43 7.28 20.43 5.09ZM22.43 5.09L22.43 5.09Q22.43 5.81 22.49 6.43Q22.54 7.06 22.71 7.53Q22.88 8 23.18 8.27Q23.49 8.54 24 8.54L24 8.54Q24.50 8.54 24.81 8.27Q25.12 8 25.29 7.53Q25.46 7.06 25.51 6.43Q25.57 5.81 25.57 5.09L25.57 5.09Q25.57 4.37 25.51 3.74Q25.46 3.10 25.29 2.64Q25.12 2.18 24.82 1.90Q24.51 1.63 24 1.63L24 1.63Q23.49 1.63 23.18 1.90Q22.88 2.18 22.71 2.65Q22.54 3.12 22.49 3.74Q22.43 4.37 22.43 5.09ZM28.94 0.10L30.58 0.10Q30.69 0.43 30.86 0.96Q31.02 1.49 31.22 2.10Q31.41 2.70 31.60 3.33Q31.79 3.95 31.97 4.48L31.97 4.48Q32.16 3.89 32.37 3.26Q32.58 2.62 32.77 2.04Q32.96 1.46 33.12 0.94Q33.28 0.43 33.41 0.10L33.41 0.10L35.04 0.10Q35.15 1.39 35.26 2.62Q35.36 3.86 35.43 5.06Q35.50 6.27 35.55 7.50Q35.60 8.72 35.63 10L35.63 10L33.82 10L33.92 2.30L32.70 6.50L31.26 6.50L30.10 2.30L30.18 10L28.37 10Q28.42 8.78 28.47 7.47Q28.53 6.16 28.59 4.86Q28.66 3.57 28.74 2.35Q28.83 1.14 28.94 0.10L28.94 0.10ZM43.36 8.37L43.36 10L37.14 10L37.14 0.10L39.12 0.10L39.12 8.37L43.36 8.37Z"/>
    </g>
</svg>