<?xml version="1.0" encoding="UTF-8"?>
<svg height="322" width="78.3" version="1.1" xmlns="http://www.w3.org/2000/svg"><!--Created by Josélio de S. C. Júnior - 2021 - https://github.com/joseliojunior -->
    <rect
        height="32"
        width="76.3"
        rx="1"
        ry="1"
        x="1" y="1"
        fill="#44a51c"
        stroke="#0f2306"
        stroke-width="1" />
    <g transform="translate(0, 12)">
        <path fill="#0f2306" stroke="none" d="M20.65 4.63L20.65 4.63Q20.65 0.79 22.06-1.16Q23.48-3.12 26-3.12L26-3.12Q28.62-3.12 29.98-1.16Q31.35 0.79 31.35 4.63L31.35 4.63Q31.35 7.99 30.27 9.92Q29.19 11.86 27.15 12.26L27.15 12.26Q27.42 12.86 28.44 13.26Q29.46 13.66 31.23 13.97L31.23 13.97L30.61 16.08Q27.80 15.70 26.37 14.80Q24.94 13.90 24.68 12.22L24.68 12.22Q22.74 11.74 21.69 9.83Q20.65 7.92 20.65 4.63ZM23.65 4.63L23.65 4.63Q23.65 5.71 23.73 6.65Q23.82 7.58 24.07 8.29Q24.32 9 24.78 9.41Q25.23 9.82 26 9.82L26 9.82Q26.74 9.82 27.21 9.41Q27.68 9 27.93 8.29Q28.18 7.58 28.27 6.65Q28.35 5.71 28.35 4.63L28.35 4.63Q28.35 3.55 28.27 2.60Q28.18 1.66 27.93 0.96Q27.68 0.26 27.22-0.14Q26.77-0.55 26-0.55L26-0.55Q25.23-0.55 24.78-0.14Q24.32 0.26 24.07 0.97Q23.82 1.68 23.73 2.62Q23.65 3.55 23.65 4.63ZM33.42-2.86L35.86-2.86Q36.03-2.35 36.28-1.56Q36.54-0.77 36.82 0.14Q37.11 1.06 37.40 1.99Q37.69 2.93 37.95 3.72L37.95 3.72Q38.24 2.83 38.55 1.88Q38.86 0.94 39.15 0.06Q39.44-0.82 39.68-1.58Q39.92-2.35 40.11-2.86L40.11-2.86L42.56-2.86Q42.73-0.91 42.88 0.94Q43.04 2.78 43.15 4.60Q43.26 6.41 43.33 8.24Q43.40 10.08 43.45 12L43.45 12L40.74 12L40.88 0.46L39.06 6.74L36.90 6.74L35.14 0.46L35.26 12L32.55 12Q32.62 10.18 32.71 8.21Q32.79 6.24 32.89 4.30Q32.98 2.35 33.12 0.53Q33.25-1.30 33.42-2.86L33.42-2.86ZM55.04 9.55L55.04 12L45.70 12L45.70-2.86L48.68-2.86L48.68 9.55L55.04 9.55Z"/>
    </g>
</svg>