<?xml version="1.0" encoding="UTF-8"?>
<svg height="26" width="163.5" version="1.1" xmlns="http://www.w3.org/2000/svg"><!--Created by Josélio de S. C. Júnior - 2021 - https://github.com/joseliojunior -->
    <defs>
        <pattern id="pattern"
                x="3" y="3" width="6" height="6"
                patternUnits="userSpaceOnUse"
                patternTransform="rotate(45)" >
            <rect height="6" width="6"
                fill="#ffffff"/>
            <line x1="0" y1="0" x2="0" y2="6"
                stroke="#bbbbbb"
                stroke-width="2" />
        </pattern>
    </defs>
    <rect
        height="24"
        width="161.5"
        rx="1"
        ry="1"
        x="1" y="1"
        fill="url(#pattern)" />
    <g transform="translate(0, 8)">
        <path fill="#000000" d="M23.42-0.02L23.42-0.02Q24.27-0.02 24.96 0.18Q25.65 0.37 26.14 0.77Q26.64 1.17 26.90 1.78Q27.17 2.40 27.17 3.23L27.17 3.23Q27.17 4.10 26.82 4.80Q26.46 5.50 25.65 5.87L25.65 5.87Q25.92 6.29 26.22 6.79Q26.53 7.30 26.82 7.85Q27.10 8.40 27.37 8.95Q27.63 9.50 27.82 10L27.82 10L25.76 10Q25.39 9.04 24.90 8.15Q24.42 7.26 23.86 6.35L23.86 6.35L22.83 6.35L22.83 10L20.86 10L20.86 0.24Q21.15 0.18 21.50 0.12Q21.84 0.06 22.19 0.04Q22.54 0.02 22.86 0Q23.18-0.02 23.42-0.02ZM25.17 3.22L25.17 3.22Q25.17 2.43 24.69 2.06Q24.21 1.70 23.42 1.70L23.42 1.70Q23.31 1.70 23.15 1.70Q22.99 1.71 22.83 1.74L22.83 1.74L22.83 4.72L23.26 4.72Q24.27 4.72 24.72 4.33Q25.17 3.94 25.17 3.22ZM28.50 6.30L28.50 6.30Q28.50 5.31 28.80 4.56Q29.10 3.81 29.60 3.30Q30.10 2.80 30.74 2.54Q31.38 2.29 32.05 2.29L32.05 2.29Q33.71 2.29 34.58 3.27Q35.44 4.26 35.44 6.14L35.44 6.14Q35.44 6.34 35.43 6.54Q35.42 6.75 35.41 6.88L35.41 6.88L30.53 6.88Q30.53 7.62 31.14 8.04Q31.74 8.46 32.70 8.46L32.70 8.46Q33.30 8.46 33.83 8.34Q34.37 8.21 34.74 8.08L34.74 8.08L35.01 9.76Q34.50 9.94 33.92 10.06Q33.34 10.18 32.62 10.18L32.62 10.18Q31.66 10.18 30.90 9.93Q30.14 9.68 29.61 9.19Q29.07 8.70 28.78 7.98Q28.50 7.26 28.50 6.30ZM30.53 5.52L33.54 5.52Q33.54 5.22 33.46 4.94Q33.38 4.66 33.20 4.43Q33.02 4.21 32.75 4.07Q32.48 3.94 32.08 3.94L32.08 3.94Q31.70 3.94 31.42 4.06Q31.14 4.19 30.95 4.42Q30.77 4.64 30.66 4.93Q30.56 5.22 30.53 5.52L30.53 5.52ZM40.02 8.59L40.02 8.59Q40.34 8.59 40.64 8.58Q40.94 8.58 41.17 8.54L41.17 8.54L41.17 6.82Q40.98 6.78 40.70 6.76Q40.43 6.74 40.21 6.74L40.21 6.74Q39.90 6.74 39.62 6.78Q39.33 6.82 39.11 6.91Q38.90 7.01 38.77 7.18Q38.64 7.36 38.64 7.65L38.64 7.65Q38.64 8.16 39.02 8.38Q39.41 8.59 40.02 8.59ZM39.84 2.29L39.84 2.29Q40.77 2.29 41.38 2.50Q42 2.72 42.37 3.11Q42.74 3.50 42.90 4.07Q43.06 4.64 43.06 5.34L43.06 5.34L43.06 9.82Q42.62 9.92 41.78 10.05Q40.93 10.18 39.87 10.18L39.87 10.18Q39.15 10.18 38.57 10.05Q37.98 9.92 37.57 9.62Q37.15 9.33 36.93 8.86Q36.70 8.38 36.70 7.70L36.70 7.70Q36.70 7.04 36.96 6.59Q37.22 6.14 37.65 5.87Q38.08 5.60 38.64 5.48Q39.20 5.36 39.81 5.36L39.81 5.36Q40.58 5.36 41.17 5.49L41.17 5.49L41.17 5.25Q41.17 4.69 40.82 4.31Q40.46 3.94 39.60 3.94L39.60 3.94Q39.04 3.94 38.52 4.02Q38 4.10 37.68 4.21L37.68 4.21L37.41 2.62Q37.78 2.50 38.45 2.39Q39.12 2.29 39.84 2.29ZM46.45 6.19L46.45 6.19Q46.45 7.20 46.82 7.84Q47.20 8.48 48.03 8.48L48.03 8.48Q48.27 8.48 48.48 8.46Q48.69 8.45 48.91 8.42L48.91 8.42L48.91 4.32Q48.69 4.19 48.40 4.10Q48.11 4.02 47.79 4.02L47.79 4.02Q47.09 4.02 46.77 4.58Q46.45 5.14 46.45 6.19ZM50.88-1.10L50.88 9.78Q50.34 9.95 49.55 10.06Q48.77 10.18 48.02 10.18L48.02 10.18Q46.26 10.18 45.35 9.14Q44.45 8.10 44.45 6.29L44.45 6.29Q44.45 4.45 45.21 3.38Q45.97 2.32 47.46 2.32L47.46 2.32Q47.86 2.32 48.24 2.41Q48.62 2.50 48.91 2.66L48.91 2.66L48.91-0.77L50.88-1.10ZM59.22 8.10L59.47 9.68Q59.42 9.71 59.26 9.79Q59.09 9.87 58.82 9.96Q58.54 10.05 58.15 10.11Q57.76 10.18 57.26 10.18L57.26 10.18Q55.90 10.18 55.28 9.37Q54.66 8.56 54.66 7.01L54.66 7.01L54.66 0.62L52.58 0.62L52.58-1.01L56.62-1.01L56.62 7.15Q56.62 7.92 56.93 8.19Q57.23 8.46 57.70 8.46L57.70 8.46Q58.29 8.46 58.69 8.30Q59.09 8.14 59.22 8.10L59.22 8.10ZM64.54 0.32L64.54 0.32Q64.54 0.90 64.18 1.23Q63.81 1.57 63.30 1.57L63.30 1.57Q62.78 1.57 62.42 1.23Q62.06 0.90 62.06 0.32L62.06 0.32Q62.06-0.27 62.42-0.61Q62.78-0.94 63.30-0.94L63.30-0.94Q63.81-0.94 64.18-0.61Q64.54-0.27 64.54 0.32ZM67.22 8.10L67.47 9.68Q66.86 9.97 66.33 10.07Q65.79 10.18 65.34 10.18L65.34 10.18Q64.58 10.18 64.06 9.95Q63.54 9.73 63.22 9.30Q62.91 8.88 62.78 8.27Q62.66 7.66 62.66 6.88L62.66 6.88L62.66 4.11L60.58 4.11L60.58 2.48L64.62 2.48L64.62 7.14Q64.62 7.81 64.87 8.14Q65.12 8.46 65.70 8.46L65.70 8.46Q65.97 8.46 66.35 8.39Q66.74 8.32 67.22 8.10L67.22 8.10ZM69.01 10L69.01 2.72Q69.54 2.58 70.31 2.45Q71.09 2.32 72 2.32L72 2.32Q72.90 2.32 73.49 2.57Q74.08 2.82 74.42 3.27Q74.77 3.73 74.91 4.36Q75.06 4.99 75.06 5.76L75.06 5.76L75.06 10L73.09 10L73.09 6.02Q73.09 4.96 72.85 4.50Q72.61 4.03 71.87 4.03L71.87 4.03Q71.65 4.03 71.43 4.05Q71.22 4.06 70.98 4.10L70.98 4.10L70.98 10L69.01 10ZM76.50 6.30L76.50 6.30Q76.50 5.31 76.80 4.56Q77.10 3.81 77.60 3.30Q78.10 2.80 78.74 2.54Q79.38 2.29 80.05 2.29L80.05 2.29Q81.71 2.29 82.58 3.27Q83.44 4.26 83.44 6.14L83.44 6.14Q83.44 6.34 83.43 6.54Q83.42 6.75 83.41 6.88L83.41 6.88L78.53 6.88Q78.53 7.62 79.14 8.04Q79.74 8.46 80.70 8.46L80.70 8.46Q81.30 8.46 81.83 8.34Q82.37 8.21 82.74 8.08L82.74 8.08L83.01 9.76Q82.50 9.94 81.92 10.06Q81.34 10.18 80.62 10.18L80.62 10.18Q79.66 10.18 78.90 9.93Q78.14 9.68 77.61 9.19Q77.07 8.70 76.78 7.98Q76.50 7.26 76.50 6.30ZM78.53 5.52L81.54 5.52Q81.54 5.22 81.46 4.94Q81.38 4.66 81.20 4.43Q81.02 4.21 80.75 4.07Q80.48 3.94 80.08 3.94L80.08 3.94Q79.70 3.94 79.42 4.06Q79.14 4.19 78.95 4.42Q78.77 4.64 78.66 4.93Q78.56 5.22 78.53 5.52L78.53 5.52ZM96.74 10.21L96.74 10.21Q94.64 10.21 93.54 8.86Q92.43 7.52 92.43 5.04L92.43 5.04Q92.43 3.81 92.77 2.85Q93.10 1.89 93.70 1.22Q94.30 0.56 95.13 0.22Q95.95-0.13 96.93-0.13L96.93-0.13Q97.46-0.13 97.88-0.04Q98.30 0.05 98.62 0.16Q98.94 0.27 99.16 0.40Q99.38 0.53 99.49 0.59L99.49 0.59L98.98 2.16Q98.61 1.92 98.09 1.75Q97.57 1.58 96.90 1.58L96.90 1.58Q96.43 1.58 95.99 1.75Q95.55 1.92 95.21 2.31Q94.86 2.70 94.65 3.36Q94.43 4.02 94.43 4.99L94.43 4.99Q94.43 6.69 95.02 7.59Q95.60 8.50 96.93 8.50L96.93 8.50Q97.70 8.50 98.20 8.32Q98.70 8.14 99.01 7.97L99.01 7.97L99.50 9.52Q99.09 9.78 98.38 9.99Q97.66 10.21 96.74 10.21ZM107.55 6.22L107.55 6.22Q107.55 7.12 107.30 7.85Q107.04 8.58 106.58 9.10Q106.11 9.63 105.46 9.92Q104.82 10.21 104.02 10.21L104.02 10.21Q103.22 10.21 102.57 9.92Q101.92 9.63 101.45 9.10Q100.98 8.58 100.72 7.85Q100.46 7.12 100.46 6.22L100.46 6.22Q100.46 5.34 100.73 4.62Q100.99 3.89 101.46 3.37Q101.94 2.85 102.59 2.57Q103.25 2.29 104.02 2.29L104.02 2.29Q104.80 2.29 105.45 2.57Q106.10 2.85 106.57 3.37Q107.04 3.89 107.30 4.62Q107.55 5.34 107.55 6.22ZM102.46 6.24L102.46 6.24Q102.46 7.25 102.82 7.87Q103.18 8.50 103.98 8.50L103.98 8.50Q104.75 8.50 105.14 7.87Q105.54 7.25 105.54 6.24L105.54 6.24Q105.54 5.23 105.18 4.62Q104.82 4 104.02 4L104.02 4Q103.25 4 102.86 4.62Q102.46 5.23 102.46 6.24ZM109.01 10L109.01 2.72Q109.54 2.58 110.31 2.45Q111.09 2.32 112 2.32L112 2.32Q112.90 2.32 113.49 2.57Q114.08 2.82 114.42 3.27Q114.77 3.73 114.91 4.36Q115.06 4.99 115.06 5.76L115.06 5.76L115.06 10L113.09 10L113.09 6.02Q113.09 4.96 112.85 4.50Q112.61 4.03 111.87 4.03L111.87 4.03Q111.65 4.03 111.43 4.05Q111.22 4.06 110.98 4.10L110.98 4.10L110.98 10L109.01 10ZM120.21 10L118.22 10L118.22 4.11L116.58 4.11L116.58 2.48L118.22 2.48L118.22 2.05Q118.22 1.14 118.49 0.54Q118.75-0.06 119.20-0.42Q119.65-0.78 120.22-0.94Q120.80-1.09 121.41-1.09L121.41-1.09Q122.03-1.09 122.69-0.98Q123.34-0.86 123.87-0.61L123.87-0.61L123.54 0.99Q123.17 0.86 122.62 0.73Q122.06 0.59 121.57 0.59L121.57 0.59Q121.30 0.59 121.05 0.64Q120.80 0.69 120.62 0.85Q120.43 1.01 120.32 1.30Q120.21 1.60 120.21 2.08L120.21 2.08L120.21 2.48L123.30 2.48L123.30 4.11L120.21 4.11L120.21 10ZM128.54 0.32L128.54 0.32Q128.54 0.90 128.18 1.23Q127.81 1.57 127.30 1.57L127.30 1.57Q126.78 1.57 126.42 1.23Q126.06 0.90 126.06 0.32L126.06 0.32Q126.06-0.27 126.42-0.61Q126.78-0.94 127.30-0.94L127.30-0.94Q127.81-0.94 128.18-0.61Q128.54-0.27 128.54 0.32ZM131.22 8.10L131.47 9.68Q130.86 9.97 130.33 10.07Q129.79 10.18 129.34 10.18L129.34 10.18Q128.58 10.18 128.06 9.95Q127.54 9.73 127.22 9.30Q126.91 8.88 126.78 8.27Q126.66 7.66 126.66 6.88L126.66 6.88L126.66 4.11L124.58 4.11L124.58 2.48L128.62 2.48L128.62 7.14Q128.62 7.81 128.87 8.14Q129.12 8.46 129.70 8.46L129.70 8.46Q129.97 8.46 130.35 8.39Q130.74 8.32 131.22 8.10L131.22 8.10ZM134.53 6L134.53 6Q134.53 6.93 134.86 7.42Q135.20 7.90 135.92 7.90L135.92 7.90Q136.24 7.90 136.52 7.82Q136.80 7.74 137.02 7.62L137.02 7.62L137.02 4Q136.80 3.95 136.62 3.94Q136.45 3.92 136.26 3.92L136.26 3.92Q134.53 3.92 134.53 6ZM139.01 2.72L139.01 9.09Q139.01 10.93 138.12 11.81Q137.23 12.69 135.26 12.69L135.26 12.69Q134.56 12.69 133.91 12.54Q133.26 12.40 132.67 12.21L132.67 12.21L133.04 10.54Q133.50 10.72 134.02 10.87Q134.53 11.02 135.30 11.02L135.30 11.02Q135.81 11.02 136.14 10.90Q136.48 10.78 136.67 10.58Q136.86 10.37 136.94 10.09Q137.02 9.81 137.02 9.49L137.02 9.49L137.02 9.18Q136.61 9.34 136.26 9.42Q135.92 9.50 135.52 9.50L135.52 9.50Q134.05 9.50 133.29 8.58Q132.53 7.65 132.53 6L132.53 6Q132.53 4.14 133.55 3.23Q134.58 2.32 136.34 2.32L136.34 2.32Q137.57 2.32 139.01 2.72L139.01 2.72Z"/>
    </g>
</svg>