<?xml version="1.0" encoding="UTF-8"?>
<svg height="26" width="114.89999999999999" version="1.1" xmlns="http://www.w3.org/2000/svg"><!--Created by Josélio de S. C. Júnior - 2021 - https://github.com/joseliojunior -->
    <rect
        height="24"
        width="112.89999999999999"
        rx="1"
        ry="1"
        x="1" y="1"
        fill="#5a6986"
        stroke="#1d212b"
        stroke-width="1" />
    <g transform="translate(0, 8)">
        <path fill="#1d212b" stroke="none" d="M23.58-0.02L23.58-0.02Q25.47-0.02 26.51 0.76Q27.55 1.54 27.55 3.30L27.55 3.30Q27.55 5.07 26.50 5.86Q25.46 6.66 23.54 6.66L23.54 6.66L22.83 6.66L22.83 10L20.86 10L20.86 0.22Q21.15 0.16 21.51 0.11Q21.87 0.06 22.24 0.04Q22.61 0.02 22.96 0Q23.31-0.02 23.58-0.02ZM23.81 1.70L23.81 1.70Q23.63 1.70 23.32 1.70Q23.01 1.71 22.83 1.74L22.83 1.74L22.83 4.94L23.63 4.94Q24.58 4.94 25.06 4.57Q25.54 4.19 25.54 3.28L25.54 3.28Q25.54 2.42 25.06 2.06Q24.59 1.70 23.81 1.70ZM35.01 2.48L35.01 9.74Q34.46 9.89 33.69 10.03Q32.91 10.18 32 10.18L32 10.18Q31.07 10.18 30.48 9.92Q29.89 9.66 29.54 9.19Q29.20 8.72 29.07 8.08Q28.94 7.44 28.94 6.67L28.94 6.67L28.94 2.48L30.91 2.48L30.91 6.42Q30.91 7.46 31.16 7.96Q31.41 8.46 32.13 8.46L32.13 8.46Q32.58 8.46 33.02 8.38L33.02 8.38L33.02 2.48L35.01 2.48ZM43.34 2.66L42.99 4.48Q42.80 4.43 42.54 4.38Q42.27 4.34 42 4.30Q41.73 4.26 41.47 4.24Q41.22 4.22 41.04 4.22L41.04 4.22Q40.62 4.22 40.22 4.26Q39.82 4.30 39.41 4.42L39.41 4.42L39.41 10L37.42 10L37.42 2.98Q38.21 2.69 39.03 2.51Q39.86 2.34 40.96 2.34L40.96 2.34Q41.12 2.34 41.42 2.35Q41.71 2.37 42.05 2.41Q42.38 2.45 42.73 2.50Q43.07 2.56 43.34 2.66L43.34 2.66ZM44.50 6.30L44.50 6.30Q44.50 5.31 44.80 4.56Q45.10 3.81 45.60 3.30Q46.10 2.80 46.74 2.54Q47.38 2.29 48.05 2.29L48.05 2.29Q49.71 2.29 50.58 3.27Q51.44 4.26 51.44 6.14L51.44 6.14Q51.44 6.34 51.43 6.54Q51.42 6.75 51.41 6.88L51.41 6.88L46.53 6.88Q46.53 7.62 47.14 8.04Q47.74 8.46 48.70 8.46L48.70 8.46Q49.30 8.46 49.83 8.34Q50.37 8.21 50.74 8.08L50.74 8.08L51.01 9.76Q50.50 9.94 49.92 10.06Q49.34 10.18 48.62 10.18L48.62 10.18Q47.66 10.18 46.90 9.93Q46.14 9.68 45.61 9.19Q45.07 8.70 44.78 7.98Q44.50 7.26 44.50 6.30ZM46.53 5.52L49.54 5.52Q49.54 5.22 49.46 4.94Q49.38 4.66 49.20 4.43Q49.02 4.21 48.75 4.07Q48.48 3.94 48.08 3.94L48.08 3.94Q47.70 3.94 47.42 4.06Q47.14 4.19 46.95 4.42Q46.77 4.64 46.66 4.93Q46.56 5.22 46.53 5.52L46.53 5.52ZM59.50 7.01L59.50 7.01Q59.50 7.90 59.20 8.50Q58.90 9.10 58.38 9.46Q57.86 9.82 57.14 9.98Q56.43 10.13 55.62 10.13L55.62 10.13Q54.96 10.13 54.26 10.06Q53.55 9.98 52.86 9.84L52.86 9.84L52.86 0.22Q53.42 0.13 54.10 0.06Q54.77-0.02 55.42-0.02L55.42-0.02Q56.54-0.02 57.25 0.22Q57.95 0.45 58.35 0.82Q58.75 1.20 58.90 1.66Q59.04 2.13 59.04 2.59L59.04 2.59Q59.04 3.30 58.70 3.84Q58.35 4.38 57.78 4.70L57.78 4.70Q58.78 5.07 59.14 5.70Q59.50 6.32 59.50 7.01ZM55.89 5.66L54.83 5.66L54.83 8.35Q55.04 8.38 55.29 8.40Q55.54 8.42 55.78 8.42L55.78 8.42Q56.11 8.42 56.43 8.36Q56.75 8.30 57 8.15Q57.25 8 57.41 7.72Q57.57 7.44 57.57 7.01L57.57 7.01Q57.57 6.29 57.11 5.98Q56.66 5.66 55.89 5.66L55.89 5.66ZM54.83 4.03L55.60 4.03Q56.35 4.03 56.74 3.70Q57.12 3.38 57.12 2.80L57.12 2.80Q57.12 2.45 57.01 2.23Q56.90 2.02 56.70 1.90Q56.51 1.78 56.26 1.74Q56 1.70 55.73 1.70L55.73 1.70Q55.50 1.70 55.26 1.71Q55.02 1.73 54.83 1.76L54.83 1.76L54.83 4.03ZM64.02 8.59L64.02 8.59Q64.34 8.59 64.64 8.58Q64.94 8.58 65.17 8.54L65.17 8.54L65.17 6.82Q64.98 6.78 64.70 6.76Q64.43 6.74 64.21 6.74L64.21 6.74Q63.90 6.74 63.62 6.78Q63.33 6.82 63.11 6.91Q62.90 7.01 62.77 7.18Q62.64 7.36 62.64 7.65L62.64 7.65Q62.64 8.16 63.02 8.38Q63.41 8.59 64.02 8.59ZM63.84 2.29L63.84 2.29Q64.77 2.29 65.38 2.50Q66 2.72 66.37 3.11Q66.74 3.50 66.90 4.07Q67.06 4.64 67.06 5.34L67.06 5.34L67.06 9.82Q66.62 9.92 65.78 10.05Q64.93 10.18 63.87 10.18L63.87 10.18Q63.15 10.18 62.57 10.05Q61.98 9.92 61.57 9.62Q61.15 9.33 60.93 8.86Q60.70 8.38 60.70 7.70L60.70 7.70Q60.70 7.04 60.96 6.59Q61.22 6.14 61.65 5.87Q62.08 5.60 62.64 5.48Q63.20 5.36 63.81 5.36L63.81 5.36Q64.58 5.36 65.17 5.49L65.17 5.49L65.17 5.25Q65.17 4.69 64.82 4.31Q64.46 3.94 63.60 3.94L63.60 3.94Q63.04 3.94 62.52 4.02Q62 4.10 61.68 4.21L61.68 4.21L61.41 2.62Q61.78 2.50 62.45 2.39Q63.12 2.29 63.84 2.29ZM71.65 8.51L71.65 8.51Q72.37 8.51 72.75 8.41Q73.14 8.30 73.14 7.98L73.14 7.98Q73.14 7.78 73.02 7.63Q72.90 7.49 72.68 7.38Q72.46 7.28 72.18 7.18Q71.90 7.09 71.60 6.99L71.60 6.99Q71.17 6.86 70.72 6.70Q70.27 6.53 69.90 6.27Q69.54 6.02 69.30 5.62Q69.06 5.23 69.06 4.64L69.06 4.64Q69.06 4.16 69.24 3.74Q69.42 3.31 69.82 2.98Q70.21 2.66 70.82 2.47Q71.42 2.29 72.27 2.29L72.27 2.29Q73.01 2.29 73.64 2.40Q74.27 2.51 74.74 2.72L74.74 2.72L74.43 4.38Q74.16 4.30 73.58 4.12Q73.01 3.94 72.29 3.94L72.29 3.94Q71.54 3.94 71.27 4.12Q71.01 4.30 71.01 4.51L71.01 4.51Q71.01 4.69 71.13 4.82Q71.25 4.96 71.45 5.07Q71.65 5.18 71.91 5.29Q72.18 5.39 72.48 5.49L72.48 5.49Q72.91 5.63 73.38 5.81Q73.84 5.98 74.22 6.25Q74.59 6.51 74.83 6.92Q75.07 7.33 75.07 7.92L75.07 7.92Q75.07 8.38 74.90 8.80Q74.72 9.22 74.31 9.52Q73.90 9.82 73.25 10Q72.59 10.18 71.63 10.18L71.63 10.18Q70.66 10.18 69.97 9.95Q69.28 9.73 68.86 9.55L68.86 9.55L69.17 7.90Q69.73 8.13 70.36 8.32Q70.99 8.51 71.65 8.51ZM80.54 0.32L80.54 0.32Q80.54 0.90 80.18 1.23Q79.81 1.57 79.30 1.57L79.30 1.57Q78.78 1.57 78.42 1.23Q78.06 0.90 78.06 0.32L78.06 0.32Q78.06-0.27 78.42-0.61Q78.78-0.94 79.30-0.94L79.30-0.94Q79.81-0.94 80.18-0.61Q80.54-0.27 80.54 0.32ZM83.22 8.10L83.47 9.68Q82.86 9.97 82.33 10.07Q81.79 10.18 81.34 10.18L81.34 10.18Q80.58 10.18 80.06 9.95Q79.54 9.73 79.22 9.30Q78.91 8.88 78.78 8.27Q78.66 7.66 78.66 6.88L78.66 6.88L78.66 4.11L76.58 4.11L76.58 2.48L80.62 2.48L80.62 7.14Q80.62 7.81 80.87 8.14Q81.12 8.46 81.70 8.46L81.70 8.46Q81.97 8.46 82.35 8.39Q82.74 8.32 83.22 8.10L83.22 8.10ZM84.70 6.24L84.70 6.24Q84.70 5.42 84.96 4.70Q85.22 3.98 85.74 3.45Q86.27 2.91 87.08 2.60Q87.89 2.29 89.01 2.29L89.01 2.29Q89.68 2.29 90.22 2.38Q90.77 2.48 91.33 2.70L91.33 2.70L90.90 4.29Q90.58 4.18 90.18 4.09Q89.79 4 89.18 4L89.18 4Q88.48 4 88.01 4.17Q87.54 4.34 87.25 4.63Q86.96 4.93 86.83 5.34Q86.70 5.76 86.70 6.24L86.70 6.24Q86.70 7.28 87.29 7.87Q87.87 8.46 89.28 8.46L89.28 8.46Q89.74 8.46 90.25 8.40Q90.75 8.34 91.17 8.19L91.17 8.19L91.46 9.81Q91.04 9.97 90.45 10.07Q89.86 10.18 89.06 10.18L89.06 10.18Q87.90 10.18 87.08 9.87Q86.26 9.57 85.73 9.04Q85.20 8.51 84.95 7.79Q84.70 7.07 84.70 6.24Z"/>
    </g>
</svg>