<?xml version="1.0" encoding="UTF-8"?>
<svg height="322" width="78.3" version="1.1" xmlns="http://www.w3.org/2000/svg"><!--Created by Josélio de S. C. Júnior - 2021 - https://github.com/joseliojunior -->
    <rect
        height="32"
        width="76.3"
        rx="1"
        ry="1"
        x="1" y="1"
        fill="#b0b77e"
        stroke="#606539"
        stroke-width="1" />
    <g transform="translate(0, 12)">
        <path fill="#606539" stroke="none" d="M31.33 6.34L31.33 6.34Q31.33 7.68 30.94 8.77Q30.56 9.86 29.86 10.66Q29.17 11.45 28.20 11.88Q27.22 12.31 26.02 12.31L26.02 12.31Q24.82 12.31 23.85 11.88Q22.88 11.45 22.17 10.66Q21.46 9.86 21.08 8.77Q20.70 7.68 20.70 6.34L20.70 6.34Q20.70 5.02 21.09 3.92Q21.49 2.83 22.20 2.05Q22.90 1.27 23.89 0.85Q24.87 0.43 26.02 0.43L26.02 0.43Q27.20 0.43 28.17 0.85Q29.14 1.27 29.85 2.05Q30.56 2.83 30.94 3.92Q31.33 5.02 31.33 6.34ZM23.70 6.36L23.70 6.36Q23.70 7.87 24.24 8.81Q24.78 9.74 25.98 9.74L25.98 9.74Q27.13 9.74 27.72 8.81Q28.30 7.87 28.30 6.36L28.30 6.36Q28.30 4.85 27.76 3.92Q27.22 3 26.02 3L26.02 3Q24.87 3 24.28 3.92Q23.70 4.85 23.70 6.36ZM43.33 6.34L43.33 6.34Q43.33 7.68 42.94 8.77Q42.56 9.86 41.86 10.66Q41.17 11.45 40.20 11.88Q39.22 12.31 38.02 12.31L38.02 12.31Q36.82 12.31 35.85 11.88Q34.88 11.45 34.17 10.66Q33.46 9.86 33.08 8.77Q32.70 7.68 32.70 6.34L32.70 6.34Q32.70 5.02 33.09 3.92Q33.49 2.83 34.20 2.05Q34.90 1.27 35.89 0.85Q36.87 0.43 38.02 0.43L38.02 0.43Q39.20 0.43 40.17 0.85Q41.14 1.27 41.85 2.05Q42.56 2.83 42.94 3.92Q43.33 5.02 43.33 6.34ZM35.70 6.36L35.70 6.36Q35.70 7.87 36.24 8.81Q36.78 9.74 37.98 9.74L37.98 9.74Q39.13 9.74 39.72 8.81Q40.30 7.87 40.30 6.36L40.30 6.36Q40.30 4.85 39.76 3.92Q39.22 3 38.02 3L38.02 3Q36.87 3 36.28 3.92Q35.70 4.85 35.70 6.36ZM45.06 6.36L45.06 6.36Q45.06 5.14 45.44 4.06Q45.82 2.98 46.62 2.17Q47.41 1.37 48.62 0.90Q49.83 0.43 51.51 0.43L51.51 0.43Q52.52 0.43 53.34 0.58Q54.15 0.72 54.99 1.06L54.99 1.06L54.34 3.43Q53.86 3.26 53.28 3.13Q52.69 3 51.78 3L51.78 3Q50.72 3 50.01 3.25Q49.30 3.50 48.87 3.95Q48.44 4.39 48.25 5.02Q48.06 5.64 48.06 6.36L48.06 6.36Q48.06 7.92 48.93 8.81Q49.81 9.70 51.92 9.70L51.92 9.70Q52.62 9.70 53.37 9.60Q54.13 9.50 54.75 9.29L54.75 9.29L55.18 11.71Q54.56 11.95 53.67 12.11Q52.78 12.26 51.58 12.26L51.58 12.26Q49.86 12.26 48.62 11.81Q47.38 11.35 46.59 10.56Q45.80 9.77 45.43 8.69Q45.06 7.61 45.06 6.36Z"/>
    </g>
</svg>