<?xml version="1.0" encoding="UTF-8"?>
<svg height="34" width="332.4" version="1.1" xmlns="http://www.w3.org/2000/svg"><!--Created by Josélio de S. C. Júnior - 2021 - https://github.com/joseliojunior -->
    <defs>
        <pattern id="pattern"
                x="3" y="3" width="6" height="6"
                patternUnits="userSpaceOnUse"
                patternTransform="rotate(45)" >
            <rect height="6" width="6"
                fill="#ffffff"/>
            <line x1="0" y1="0" x2="0" y2="6"
                stroke="#888888"
                stroke-width="2" />
        </pattern>
    </defs>
    <rect
        height="32"
        width="330.4"
        rx="16"
        ry="16"
        x="1" y="1"
        fill="url(#pattern)" />
    <g transform="translate(0, 12)">
        <path fill="#000000" d="M21.42-2.86L23.86-2.86Q24.03-2.35 24.28-1.56Q24.54-0.77 24.82 0.14Q25.11 1.06 25.40 1.99Q25.69 2.93 25.95 3.72L25.95 3.72Q26.24 2.83 26.55 1.88Q26.86 0.94 27.15 0.06Q27.44-0.82 27.68-1.58Q27.92-2.35 28.11-2.86L28.11-2.86L30.56-2.86Q30.73-0.91 30.88 0.94Q31.04 2.78 31.15 4.60Q31.26 6.41 31.33 8.24Q31.40 10.08 31.45 12L31.45 12L28.74 12L28.88 0.46L27.06 6.74L24.90 6.74L23.14 0.46L23.26 12L20.55 12Q20.62 10.18 20.71 8.21Q20.79 6.24 20.89 4.30Q20.98 2.35 21.12 0.53Q21.25-1.30 21.42-2.86L21.42-2.86ZM43.33 6.34L43.33 6.34Q43.33 7.68 42.94 8.77Q42.56 9.86 41.86 10.66Q41.17 11.45 40.20 11.88Q39.22 12.31 38.02 12.31L38.02 12.31Q36.82 12.31 35.85 11.88Q34.88 11.45 34.17 10.66Q33.46 9.86 33.08 8.77Q32.70 7.68 32.70 6.34L32.70 6.34Q32.70 5.02 33.09 3.92Q33.49 2.83 34.20 2.05Q34.90 1.27 35.89 0.85Q36.87 0.43 38.02 0.43L38.02 0.43Q39.20 0.43 40.17 0.85Q41.14 1.27 41.85 2.05Q42.56 2.83 42.94 3.92Q43.33 5.02 43.33 6.34ZM35.70 6.36L35.70 6.36Q35.70 7.87 36.24 8.81Q36.78 9.74 37.98 9.74L37.98 9.74Q39.13 9.74 39.72 8.81Q40.30 7.87 40.30 6.36L40.30 6.36Q40.30 4.85 39.76 3.92Q39.22 3 38.02 3L38.02 3Q36.87 3 36.28 3.92Q35.70 4.85 35.70 6.36ZM47.67 6.29L47.67 6.29Q47.67 7.80 48.24 8.76Q48.80 9.72 50.05 9.72L50.05 9.72Q50.41 9.72 50.72 9.70Q51.03 9.67 51.37 9.62L51.37 9.62L51.37 3.48Q51.03 3.29 50.60 3.16Q50.17 3.02 49.69 3.02L49.69 3.02Q48.63 3.02 48.15 3.86Q47.67 4.70 47.67 6.29ZM54.32-4.66L54.32 11.66Q53.50 11.93 52.33 12.10Q51.15 12.26 50.02 12.26L50.02 12.26Q47.38 12.26 46.03 10.70Q44.67 9.14 44.67 6.43L44.67 6.43Q44.67 3.67 45.81 2.08Q46.95 0.48 49.18 0.48L49.18 0.48Q49.78 0.48 50.36 0.61Q50.94 0.74 51.37 0.98L51.37 0.98L51.37-4.15L54.32-4.66ZM66.51 0.72L66.51 11.62Q65.70 11.83 64.53 12.05Q63.37 12.26 62 12.26L62 12.26Q60.61 12.26 59.72 11.88Q58.83 11.50 58.32 10.79Q57.80 10.08 57.61 9.12Q57.42 8.16 57.42 7.01L57.42 7.01L57.42 0.72L60.37 0.72L60.37 6.62Q60.37 8.18 60.74 8.94Q61.11 9.70 62.19 9.70L62.19 9.70Q62.86 9.70 63.54 9.58L63.54 9.58L63.54 0.72L66.51 0.72ZM78.82 9.14L79.21 11.52Q79.14 11.57 78.88 11.69Q78.63 11.81 78.22 11.94Q77.82 12.07 77.23 12.17Q76.64 12.26 75.90 12.26L75.90 12.26Q73.86 12.26 72.92 11.05Q71.98 9.84 71.98 7.51L71.98 7.51L71.98-2.06L68.86-2.06L68.86-4.51L74.94-4.51L74.94 7.73Q74.94 8.88 75.39 9.29Q75.85 9.70 76.54 9.70L76.54 9.70Q77.43 9.70 78.03 9.46Q78.63 9.22 78.82 9.14L78.82 9.14ZM80.74 6.46L80.74 6.46Q80.74 4.97 81.20 3.84Q81.66 2.71 82.40 1.96Q83.14 1.20 84.10 0.82Q85.06 0.43 86.07 0.43L86.07 0.43Q88.57 0.43 89.86 1.91Q91.16 3.38 91.16 6.22L91.16 6.22Q91.16 6.50 91.15 6.82Q91.14 7.13 91.11 7.32L91.11 7.32L83.79 7.32Q83.79 8.42 84.70 9.06Q85.62 9.70 87.06 9.70L87.06 9.70Q87.94 9.70 88.75 9.50Q89.55 9.31 90.10 9.12L90.10 9.12L90.51 11.64Q89.74 11.90 88.88 12.08Q88.02 12.26 86.94 12.26L86.94 12.26Q85.50 12.26 84.36 11.89Q83.22 11.52 82.41 10.79Q81.61 10.06 81.18 8.98Q80.74 7.90 80.74 6.46ZM83.79 5.28L88.30 5.28Q88.30 4.82 88.18 4.40Q88.06 3.98 87.80 3.65Q87.54 3.31 87.13 3.11Q86.72 2.90 86.12 2.90L86.12 2.90Q85.54 2.90 85.12 3.10Q84.70 3.29 84.43 3.62Q84.15 3.96 84.00 4.39Q83.84 4.82 83.79 5.28L83.79 5.28ZM105.42-2.86L107.86-2.86Q108.03-2.35 108.28-1.56Q108.54-0.77 108.82 0.14Q109.11 1.06 109.40 1.99Q109.69 2.93 109.95 3.72L109.95 3.72Q110.24 2.83 110.55 1.88Q110.86 0.94 111.15 0.06Q111.44-0.82 111.68-1.58Q111.92-2.35 112.11-2.86L112.11-2.86L114.56-2.86Q114.73-0.91 114.88 0.94Q115.04 2.78 115.15 4.60Q115.26 6.41 115.33 8.24Q115.40 10.08 115.45 12L115.45 12L112.74 12L112.88 0.46L111.06 6.74L108.90 6.74L107.14 0.46L107.26 12L104.55 12Q104.62 10.18 104.71 8.21Q104.79 6.24 104.89 4.30Q104.98 2.35 105.12 0.53Q105.25-1.30 105.42-2.86L105.42-2.86ZM122.02 9.89L122.02 9.89Q122.50 9.89 122.96 9.88Q123.42 9.86 123.75 9.82L123.75 9.82L123.75 7.22Q123.46 7.18 123.06 7.14Q122.65 7.10 122.31 7.10L122.31 7.10Q121.86 7.10 121.42 7.16Q120.99 7.22 120.67 7.37Q120.34 7.51 120.15 7.78Q119.96 8.04 119.96 8.47L119.96 8.47Q119.96 9.24 120.54 9.56Q121.11 9.89 122.02 9.89ZM121.76 0.43L121.76 0.43Q123.15 0.43 124.08 0.76Q125 1.08 125.55 1.67Q126.10 2.26 126.34 3.11Q126.58 3.96 126.58 5.02L126.58 5.02L126.58 11.74Q125.94 11.88 124.66 12.07Q123.39 12.26 121.81 12.26L121.81 12.26Q120.73 12.26 119.85 12.07Q118.98 11.88 118.35 11.44Q117.73 10.99 117.39 10.28Q117.06 9.58 117.06 8.54L117.06 8.54Q117.06 7.56 117.44 6.89Q117.82 6.22 118.47 5.81Q119.12 5.40 119.96 5.22Q120.80 5.04 121.71 5.04L121.71 5.04Q122.86 5.04 123.75 5.23L123.75 5.23L123.75 4.87Q123.75 4.03 123.22 3.47Q122.70 2.90 121.40 2.90L121.40 2.90Q120.56 2.90 119.78 3.02Q119 3.14 118.52 3.31L118.52 3.31L118.11 0.94Q118.66 0.74 119.67 0.59Q120.68 0.43 121.76 0.43ZM129.51 12L129.51 1.08Q130.30 0.86 131.47 0.67Q132.63 0.48 134 0.48L134 0.48Q135.34 0.48 136.23 0.85Q137.12 1.22 137.64 1.91Q138.15 2.59 138.37 3.54Q138.58 4.49 138.58 5.64L138.58 5.64L138.58 12L135.63 12L135.63 6.02Q135.63 4.44 135.27 3.74Q134.91 3.05 133.81 3.05L133.81 3.05Q133.47 3.05 133.15 3.07Q132.82 3.10 132.46 3.14L132.46 3.14L132.46 12L129.51 12ZM146.02 9.89L146.02 9.89Q146.50 9.89 146.96 9.88Q147.42 9.86 147.75 9.82L147.75 9.82L147.75 7.22Q147.46 7.18 147.06 7.14Q146.65 7.10 146.31 7.10L146.31 7.10Q145.86 7.10 145.42 7.16Q144.99 7.22 144.67 7.37Q144.34 7.51 144.15 7.78Q143.96 8.04 143.96 8.47L143.96 8.47Q143.96 9.24 144.54 9.56Q145.11 9.89 146.02 9.89ZM145.76 0.43L145.76 0.43Q147.15 0.43 148.08 0.76Q149 1.08 149.55 1.67Q150.10 2.26 150.34 3.11Q150.58 3.96 150.58 5.02L150.58 5.02L150.58 11.74Q149.94 11.88 148.66 12.07Q147.39 12.26 145.81 12.26L145.81 12.26Q144.73 12.26 143.85 12.07Q142.98 11.88 142.35 11.44Q141.73 10.99 141.39 10.28Q141.06 9.58 141.06 8.54L141.06 8.54Q141.06 7.56 141.44 6.89Q141.82 6.22 142.47 5.81Q143.12 5.40 143.96 5.22Q144.80 5.04 145.71 5.04L145.71 5.04Q146.86 5.04 147.75 5.23L147.75 5.23L147.75 4.87Q147.75 4.03 147.22 3.47Q146.70 2.90 145.40 2.90L145.40 2.90Q144.56 2.90 143.78 3.02Q143 3.14 142.52 3.31L142.52 3.31L142.11 0.94Q142.66 0.74 143.67 0.59Q144.68 0.43 145.76 0.43ZM155.79 6L155.79 6Q155.79 7.39 156.30 8.12Q156.80 8.86 157.88 8.86L157.88 8.86Q158.36 8.86 158.78 8.74Q159.20 8.62 159.54 8.42L159.54 8.42L159.54 3Q159.20 2.93 158.94 2.90Q158.67 2.88 158.38 2.88L158.38 2.88Q155.79 2.88 155.79 6ZM162.51 1.08L162.51 10.63Q162.51 13.39 161.18 14.71Q159.85 16.03 156.90 16.03L156.90 16.03Q155.84 16.03 154.87 15.82Q153.90 15.60 153.01 15.31L153.01 15.31L153.56 12.82Q154.26 13.08 155.02 13.31Q155.79 13.54 156.94 13.54L156.94 13.54Q157.71 13.54 158.22 13.36Q158.72 13.18 159.01 12.86Q159.30 12.55 159.42 12.13Q159.54 11.71 159.54 11.23L159.54 11.23L159.54 10.78Q158.91 11.02 158.40 11.14Q157.88 11.26 157.28 11.26L157.28 11.26Q155.07 11.26 153.93 9.86Q152.79 8.47 152.79 6L152.79 6Q152.79 3.22 154.33 1.85Q155.86 0.48 158.50 0.48L158.50 0.48Q160.35 0.48 162.51 1.08L162.51 1.08ZM164.74 6.46L164.74 6.46Q164.74 4.97 165.20 3.84Q165.66 2.71 166.40 1.96Q167.14 1.20 168.10 0.82Q169.06 0.43 170.07 0.43L170.07 0.43Q172.57 0.43 173.86 1.91Q175.16 3.38 175.16 6.22L175.16 6.22Q175.16 6.50 175.15 6.82Q175.14 7.13 175.11 7.32L175.11 7.32L167.79 7.32Q167.79 8.42 168.70 9.06Q169.62 9.70 171.06 9.70L171.06 9.70Q171.94 9.70 172.75 9.50Q173.55 9.31 174.10 9.12L174.10 9.12L174.51 11.64Q173.74 11.90 172.88 12.08Q172.02 12.26 170.94 12.26L170.94 12.26Q169.50 12.26 168.36 11.89Q167.22 11.52 166.41 10.79Q165.61 10.06 165.18 8.98Q164.74 7.90 164.74 6.46ZM167.79 5.28L172.30 5.28Q172.30 4.82 172.18 4.40Q172.06 3.98 171.80 3.65Q171.54 3.31 171.13 3.11Q170.72 2.90 170.12 2.90L170.12 2.90Q169.54 2.90 169.12 3.10Q168.70 3.29 168.43 3.62Q168.15 3.96 168.00 4.39Q167.84 4.82 167.79 5.28L167.79 5.28ZM184.23 0.60L184.23 0.60Q185.17 0.60 185.77 0.89Q186.37 1.18 186.72 1.75Q187.06 2.33 187.18 3.20Q187.30 4.08 187.30 5.26L187.30 5.26L187.30 12L184.90 12L184.90 5.11Q184.90 4.44 184.82 4.03Q184.74 3.62 184.60 3.41Q184.47 3.19 184.29 3.12Q184.11 3.05 183.92 3.05L183.92 3.05Q183.70 3.05 183.46 3.08Q183.22 3.12 183.03 3.22L183.03 3.22Q183.10 3.67 183.15 4.22Q183.20 4.78 183.20 5.45L183.20 5.45L183.20 7.70L180.80 7.70L180.80 5.11Q180.80 3.96 180.57 3.50Q180.34 3.05 179.84 3.05L179.84 3.05Q179.70 3.05 179.49 3.07Q179.29 3.10 179.10 3.14L179.10 3.14L179.10 12L176.70 12L176.70 1.15Q177.63 0.89 178.54 0.74Q179.46 0.60 180.15 0.60L180.15 0.60Q180.78 0.60 181.27 0.76Q181.76 0.91 182.12 1.27L182.12 1.27Q182.53 1.01 183.08 0.80Q183.63 0.60 184.23 0.60ZM188.74 6.46L188.74 6.46Q188.74 4.97 189.20 3.84Q189.66 2.71 190.40 1.96Q191.14 1.20 192.10 0.82Q193.06 0.43 194.07 0.43L194.07 0.43Q196.57 0.43 197.86 1.91Q199.16 3.38 199.16 6.22L199.16 6.22Q199.16 6.50 199.15 6.82Q199.14 7.13 199.11 7.32L199.11 7.32L191.79 7.32Q191.79 8.42 192.70 9.06Q193.62 9.70 195.06 9.70L195.06 9.70Q195.94 9.70 196.75 9.50Q197.55 9.31 198.10 9.12L198.10 9.12L198.51 11.64Q197.74 11.90 196.88 12.08Q196.02 12.26 194.94 12.26L194.94 12.26Q193.50 12.26 192.36 11.89Q191.22 11.52 190.41 10.79Q189.61 10.06 189.18 8.98Q188.74 7.90 188.74 6.46ZM191.79 5.28L196.30 5.28Q196.30 4.82 196.18 4.40Q196.06 3.98 195.80 3.65Q195.54 3.31 195.13 3.11Q194.72 2.90 194.12 2.90L194.12 2.90Q193.54 2.90 193.12 3.10Q192.70 3.29 192.43 3.62Q192.15 3.96 192.00 4.39Q191.84 4.82 191.79 5.28L191.79 5.28ZM201.51 12L201.51 1.08Q202.30 0.86 203.47 0.67Q204.63 0.48 206 0.48L206 0.48Q207.34 0.48 208.23 0.85Q209.12 1.22 209.64 1.91Q210.15 2.59 210.37 3.54Q210.58 4.49 210.58 5.64L210.58 5.64L210.58 12L207.63 12L207.63 6.02Q207.63 4.44 207.27 3.74Q206.91 3.05 205.81 3.05L205.81 3.05Q205.47 3.05 205.15 3.07Q204.82 3.10 204.46 3.14L204.46 3.14L204.46 12L201.51 12ZM215.43 7.80L215.43 3.17L212.86 3.17L212.86 0.72L215.43 0.72L215.43-2.11L218.38-2.59L218.38 0.72L223.11 0.72L223.11 3.17L218.38 3.17L218.38 7.73Q218.38 8.35 218.50 8.74Q218.62 9.12 218.84 9.34Q219.06 9.55 219.37 9.62Q219.68 9.70 220.06 9.70L220.06 9.70Q220.47 9.70 220.82 9.67Q221.17 9.65 221.49 9.59Q221.82 9.53 222.16 9.41Q222.51 9.29 222.92 9.10L222.92 9.10L223.33 11.64Q222.51 11.98 221.56 12.12Q220.62 12.26 219.73 12.26L219.73 12.26Q218.70 12.26 217.90 12.10Q217.11 11.93 216.56 11.45Q216.01 10.97 215.72 10.09Q215.43 9.22 215.43 7.80L215.43 7.80ZM241.57 9.84L241.57 9.84Q242.31 9.84 242.80 9.68Q243.30 9.53 243.58 9.25Q243.87 8.98 243.98 8.63Q244.09 8.28 244.09 7.92L244.09 7.92Q244.09 7.46 243.82 7.10Q243.56 6.74 243.15 6.47Q242.74 6.19 242.24 5.96Q241.74 5.74 241.23 5.54L241.23 5.54Q240.56 5.30 239.84 4.99Q239.12 4.68 238.53 4.20Q237.94 3.72 237.56 3.01Q237.18 2.30 237.18 1.25L237.18 1.25Q237.18-0.84 238.53-2.02Q239.89-3.19 242.26-3.19L242.26-3.19Q243.63-3.19 244.65-2.88Q245.67-2.57 246.37-2.18L246.37-2.18L245.50 0.10Q244.90-0.24 244.17-0.48Q243.44-0.72 242.48-0.72L242.48-0.72Q240.13-0.72 240.13 0.98L240.13 0.98Q240.13 1.42 240.37 1.74Q240.61 2.06 240.98 2.32Q241.35 2.57 241.82 2.76Q242.29 2.95 242.74 3.12L242.74 3.12Q243.44 3.38 244.20 3.71Q244.95 4.03 245.59 4.57Q246.22 5.11 246.63 5.92Q247.04 6.72 247.04 7.94L247.04 7.94Q247.04 10.03 245.68 11.17Q244.33 12.31 241.57 12.31L241.57 12.31Q239.72 12.31 238.62 11.92Q237.51 11.52 236.96 11.18L236.96 11.18L237.82 8.78Q238.47 9.17 239.37 9.50Q240.27 9.84 241.57 9.84ZM256.30 0.72L259.33 0.72Q258.87 2.30 258.45 3.83Q258.03 5.35 257.58 6.80Q257.12 8.26 256.60 9.65Q256.09 11.04 255.49 12.36L255.49 12.36Q255.03 13.32 254.59 14.02Q254.14 14.71 253.60 15.16Q253.06 15.60 252.40 15.82Q251.74 16.03 250.86 16.03L250.86 16.03Q250.11 16.03 249.50 15.91Q248.89 15.79 248.48 15.60L248.48 15.60L249.03 13.13Q249.51 13.34 249.88 13.43Q250.26 13.51 250.69 13.51L250.69 13.51Q251.55 13.51 252.08 12.94Q252.61 12.36 252.92 11.57L252.92 11.57Q251.86 9.46 250.81 6.73Q249.75 4.01 248.89 0.72L248.89 0.72L251.96 0.72Q252.18 1.61 252.45 2.62Q252.73 3.62 253.04 4.63Q253.35 5.64 253.70 6.61Q254.05 7.58 254.41 8.42L254.41 8.42Q254.65 7.58 254.91 6.61Q255.18 5.64 255.42 4.64Q255.66 3.65 255.88 2.64Q256.11 1.63 256.30 0.72L256.30 0.72ZM265.47 9.77L265.47 9.77Q266.55 9.77 267.13 9.61Q267.70 9.46 267.70 8.98L267.70 8.98Q267.70 8.66 267.52 8.45Q267.34 8.23 267.02 8.08Q266.70 7.92 266.28 7.78Q265.86 7.63 265.40 7.49L265.40 7.49Q264.75 7.30 264.08 7.04Q263.41 6.79 262.86 6.41Q262.30 6.02 261.94 5.44Q261.58 4.85 261.58 3.96L261.58 3.96Q261.58 3.24 261.86 2.60Q262.14 1.97 262.72 1.48Q263.31 0.98 264.22 0.71Q265.14 0.43 266.41 0.43L266.41 0.43Q267.51 0.43 268.46 0.60Q269.41 0.77 270.10 1.08L270.10 1.08L269.65 3.58Q269.24 3.46 268.38 3.18Q267.51 2.90 266.43 2.90L266.43 2.90Q265.30 2.90 264.91 3.18Q264.51 3.46 264.51 3.77L264.51 3.77Q264.51 4.03 264.69 4.24Q264.87 4.44 265.17 4.61Q265.47 4.78 265.87 4.93Q266.26 5.09 266.72 5.23L266.72 5.23Q267.37 5.45 268.06 5.71Q268.76 5.98 269.32 6.37Q269.89 6.77 270.25 7.38Q270.61 7.99 270.61 8.88L270.61 8.88Q270.61 9.58 270.34 10.20Q270.08 10.82 269.47 11.28Q268.86 11.74 267.87 12Q266.89 12.26 265.45 12.26L265.45 12.26Q263.98 12.26 262.95 11.93Q261.92 11.59 261.30 11.33L261.30 11.33L261.75 8.86Q262.59 9.19 263.54 9.48Q264.49 9.77 265.47 9.77ZM275.43 7.80L275.43 3.17L272.86 3.17L272.86 0.72L275.43 0.72L275.43-2.11L278.38-2.59L278.38 0.72L283.11 0.72L283.11 3.17L278.38 3.17L278.38 7.73Q278.38 8.35 278.50 8.74Q278.62 9.12 278.84 9.34Q279.06 9.55 279.37 9.62Q279.68 9.70 280.06 9.70L280.06 9.70Q280.47 9.70 280.82 9.67Q281.17 9.65 281.49 9.59Q281.82 9.53 282.16 9.41Q282.51 9.29 282.92 9.10L282.92 9.10L283.33 11.64Q282.51 11.98 281.56 12.12Q280.62 12.26 279.73 12.26L279.73 12.26Q278.70 12.26 277.90 12.10Q277.11 11.93 276.56 11.45Q276.01 10.97 275.72 10.09Q275.43 9.22 275.43 7.80L275.43 7.80ZM284.74 6.46L284.74 6.46Q284.74 4.97 285.20 3.84Q285.66 2.71 286.40 1.96Q287.14 1.20 288.10 0.82Q289.06 0.43 290.07 0.43L290.07 0.43Q292.57 0.43 293.86 1.91Q295.16 3.38 295.16 6.22L295.16 6.22Q295.16 6.50 295.15 6.82Q295.14 7.13 295.11 7.32L295.11 7.32L287.79 7.32Q287.79 8.42 288.70 9.06Q289.62 9.70 291.06 9.70L291.06 9.70Q291.94 9.70 292.75 9.50Q293.55 9.31 294.10 9.12L294.10 9.12L294.51 11.64Q293.74 11.90 292.88 12.08Q292.02 12.26 290.94 12.26L290.94 12.26Q289.50 12.26 288.36 11.89Q287.22 11.52 286.41 10.79Q285.61 10.06 285.18 8.98Q284.74 7.90 284.74 6.46ZM287.79 5.28L292.30 5.28Q292.30 4.82 292.18 4.40Q292.06 3.98 291.80 3.65Q291.54 3.31 291.13 3.11Q290.72 2.90 290.12 2.90L290.12 2.90Q289.54 2.90 289.12 3.10Q288.70 3.29 288.43 3.62Q288.15 3.96 288.00 4.39Q287.84 4.82 287.79 5.28L287.79 5.28ZM304.23 0.60L304.23 0.60Q305.17 0.60 305.77 0.89Q306.37 1.18 306.72 1.75Q307.06 2.33 307.18 3.20Q307.30 4.08 307.30 5.26L307.30 5.26L307.30 12L304.90 12L304.90 5.11Q304.90 4.44 304.82 4.03Q304.74 3.62 304.60 3.41Q304.47 3.19 304.29 3.12Q304.11 3.05 303.92 3.05L303.92 3.05Q303.70 3.05 303.46 3.08Q303.22 3.12 303.03 3.22L303.03 3.22Q303.10 3.67 303.15 4.22Q303.20 4.78 303.20 5.45L303.20 5.45L303.20 7.70L300.80 7.70L300.80 5.11Q300.80 3.96 300.57 3.50Q300.34 3.05 299.84 3.05L299.84 3.05Q299.70 3.05 299.49 3.07Q299.29 3.10 299.10 3.14L299.10 3.14L299.10 12L296.70 12L296.70 1.15Q297.63 0.89 298.54 0.74Q299.46 0.60 300.15 0.60L300.15 0.60Q300.78 0.60 301.27 0.76Q301.76 0.91 302.12 1.27L302.12 1.27Q302.53 1.01 303.08 0.80Q303.63 0.60 304.23 0.60Z"/>
    </g>
</svg>