<?xml version="1.0" encoding="UTF-8"?><svg height="26" width="236.4" version="1.1" xmlns="http://www.w3.org/2000/svg"><!--Created by Josélio de S. C. Júnior - 2021 - https://github.com/joseliojunior --><defs><pattern id="pattern" x="3" y="3" width="6" height="6" patternUnits="userSpaceOnUse" patternTransform="rotate(45)"><rect height="6" width="6" fill="#ffffff"/><line x1="0" y1="0" x2="0" y2="6" stroke="#bbbbbb" stroke-width="2" /></pattern></defs><rect height="24" width="234.4" rx="1" ry="1" x="1" y="1" fill="url(#pattern)" /><g transform="translate(0, 8)"><path fill="#000000" d="M20.94 0.10L22.58 0.10Q22.69 0.43 22.86 0.96Q23.02 1.49 23.22 2.10Q23.41 2.70 23.60 3.33Q23.79 3.95 23.97 4.48L23.97 4.48Q24.16 3.89 24.37 3.26Q24.58 2.62 24.77 2.04Q24.96 1.46 25.12 0.94Q25.28 0.43 25.41 0.10L25.41 0.10L27.04 0.10Q27.15 1.39 27.26 2.62Q27.36 3.86 27.43 5.06Q27.50 6.27 27.55 7.50Q27.60 8.72 27.63 10L27.63 10L25.82 10L25.92 2.30L24.70 6.50L23.26 6.50L22.10 2.30L22.18 10L20.37 10Q20.42 8.78 20.47 7.47Q20.53 6.16 20.59 4.86Q20.66 3.57 20.74 2.35Q20.83 1.14 20.94 0.10L20.94 0.10ZM35.55 6.22L35.55 6.22Q35.55 7.12 35.30 7.85Q35.04 8.58 34.58 9.10Q34.11 9.63 33.46 9.92Q32.82 10.21 32.02 10.21L32.02 10.21Q31.22 10.21 30.57 9.92Q29.92 9.63 29.45 9.10Q28.98 8.58 28.72 7.85Q28.46 7.12 28.46 6.22L28.46 6.22Q28.46 5.34 28.73 4.62Q28.99 3.89 29.46 3.37Q29.94 2.85 30.59 2.57Q31.25 2.29 32.02 2.29L32.02 2.29Q32.80 2.29 33.45 2.57Q34.10 2.85 34.57 3.37Q35.04 3.89 35.30 4.62Q35.55 5.34 35.55 6.22ZM30.46 6.24L30.46 6.24Q30.46 7.25 30.82 7.87Q31.18 8.50 31.98 8.50L31.98 8.50Q32.75 8.50 33.14 7.87Q33.54 7.25 33.54 6.24L33.54 6.24Q33.54 5.23 33.18 4.62Q32.82 4 32.02 4L32.02 4Q31.25 4 30.86 4.62Q30.46 5.23 30.46 6.24ZM38.45 6.19L38.45 6.19Q38.45 7.20 38.82 7.84Q39.20 8.48 40.03 8.48L40.03 8.48Q40.27 8.48 40.48 8.46Q40.69 8.45 40.91 8.42L40.91 8.42L40.91 4.32Q40.69 4.19 40.40 4.10Q40.11 4.02 39.79 4.02L39.79 4.02Q39.09 4.02 38.77 4.58Q38.45 5.14 38.45 6.19ZM42.88-1.10L42.88 9.78Q42.34 9.95 41.55 10.06Q40.77 10.18 40.02 10.18L40.02 10.18Q38.26 10.18 37.35 9.14Q36.45 8.10 36.45 6.29L36.45 6.29Q36.45 4.45 37.21 3.38Q37.97 2.32 39.46 2.32L39.46 2.32Q39.86 2.32 40.24 2.41Q40.62 2.50 40.91 2.66L40.91 2.66L40.91-0.77L42.88-1.10ZM51.01 2.48L51.01 9.74Q50.46 9.89 49.69 10.03Q48.91 10.18 48 10.18L48 10.18Q47.07 10.18 46.48 9.92Q45.89 9.66 45.54 9.19Q45.20 8.72 45.07 8.08Q44.94 7.44 44.94 6.67L44.94 6.67L44.94 2.48L46.91 2.48L46.91 6.42Q46.91 7.46 47.16 7.96Q47.41 8.46 48.13 8.46L48.13 8.46Q48.58 8.46 49.02 8.38L49.02 8.38L49.02 2.48L51.01 2.48ZM59.22 8.10L59.47 9.68Q59.42 9.71 59.26 9.79Q59.09 9.87 58.82 9.96Q58.54 10.05 58.15 10.11Q57.76 10.18 57.26 10.18L57.26 10.18Q55.90 10.18 55.28 9.37Q54.66 8.56 54.66 7.01L54.66 7.01L54.66 0.62L52.58 0.62L52.58-1.01L56.62-1.01L56.62 7.15Q56.62 7.92 56.93 8.19Q57.23 8.46 57.70 8.46L57.70 8.46Q58.29 8.46 58.69 8.30Q59.09 8.14 59.22 8.10L59.22 8.10ZM60.50 6.30L60.50 6.30Q60.50 5.31 60.80 4.56Q61.10 3.81 61.60 3.30Q62.10 2.80 62.74 2.54Q63.38 2.29 64.05 2.29L64.05 2.29Q65.71 2.29 66.58 3.27Q67.44 4.26 67.44 6.14L67.44 6.14Q67.44 6.34 67.43 6.54Q67.42 6.75 67.41 6.88L67.41 6.88L62.53 6.88Q62.53 7.62 63.14 8.04Q63.74 8.46 64.70 8.46L64.70 8.46Q65.30 8.46 65.83 8.34Q66.37 8.21 66.74 8.08L66.74 8.08L67.01 9.76Q66.50 9.94 65.92 10.06Q65.34 10.18 64.62 10.18L64.62 10.18Q63.66 10.18 62.90 9.93Q62.14 9.68 61.61 9.19Q61.07 8.70 60.78 7.98Q60.50 7.26 60.50 6.30ZM62.53 5.52L65.54 5.52Q65.54 5.22 65.46 4.94Q65.38 4.66 65.20 4.43Q65.02 4.21 64.75 4.07Q64.48 3.94 64.08 3.94L64.08 3.94Q63.70 3.94 63.42 4.06Q63.14 4.19 62.95 4.42Q62.77 4.64 62.66 4.93Q62.56 5.22 62.53 5.52L62.53 5.52ZM76.94 0.10L78.58 0.10Q78.69 0.43 78.86 0.96Q79.02 1.49 79.22 2.10Q79.41 2.70 79.60 3.33Q79.79 3.95 79.97 4.48L79.97 4.48Q80.16 3.89 80.37 3.26Q80.58 2.62 80.77 2.04Q80.96 1.46 81.12 0.94Q81.28 0.43 81.41 0.10L81.41 0.10L83.04 0.10Q83.15 1.39 83.26 2.62Q83.36 3.86 83.43 5.06Q83.50 6.27 83.55 7.50Q83.60 8.72 83.63 10L83.63 10L81.82 10L81.92 2.30L80.70 6.50L79.26 6.50L78.10 2.30L78.18 10L76.37 10Q76.42 8.78 76.47 7.47Q76.53 6.16 76.59 4.86Q76.66 3.57 76.74 2.35Q76.83 1.14 76.94 0.10L76.94 0.10ZM88.02 8.59L88.02 8.59Q88.34 8.59 88.64 8.58Q88.94 8.58 89.17 8.54L89.17 8.54L89.17 6.82Q88.98 6.78 88.70 6.76Q88.43 6.74 88.21 6.74L88.21 6.74Q87.90 6.74 87.62 6.78Q87.33 6.82 87.11 6.91Q86.90 7.01 86.77 7.18Q86.64 7.36 86.64 7.65L86.64 7.65Q86.64 8.16 87.02 8.38Q87.41 8.59 88.02 8.59ZM87.84 2.29L87.84 2.29Q88.77 2.29 89.38 2.50Q90 2.72 90.37 3.11Q90.74 3.50 90.90 4.07Q91.06 4.64 91.06 5.34L91.06 5.34L91.06 9.82Q90.62 9.92 89.78 10.05Q88.93 10.18 87.87 10.18L87.87 10.18Q87.15 10.18 86.57 10.05Q85.98 9.92 85.57 9.62Q85.15 9.33 84.93 8.86Q84.70 8.38 84.70 7.70L84.70 7.70Q84.70 7.04 84.96 6.59Q85.22 6.14 85.65 5.87Q86.08 5.60 86.64 5.48Q87.20 5.36 87.81 5.36L87.81 5.36Q88.58 5.36 89.17 5.49L89.17 5.49L89.17 5.25Q89.17 4.69 88.82 4.31Q88.46 3.94 87.60 3.94L87.60 3.94Q87.04 3.94 86.52 4.02Q86 4.10 85.68 4.21L85.68 4.21L85.41 2.62Q85.78 2.50 86.45 2.39Q87.12 2.29 87.84 2.29ZM93.01 10L93.01 2.72Q93.54 2.58 94.31 2.45Q95.09 2.32 96 2.32L96 2.32Q96.90 2.32 97.49 2.57Q98.08 2.82 98.42 3.27Q98.77 3.73 98.91 4.36Q99.06 4.99 99.06 5.76L99.06 5.76L99.06 10L97.09 10L97.09 6.02Q97.09 4.96 96.85 4.50Q96.61 4.03 95.87 4.03L95.87 4.03Q95.65 4.03 95.43 4.05Q95.22 4.06 94.98 4.10L94.98 4.10L94.98 10L93.01 10ZM104.02 8.59L104.02 8.59Q104.34 8.59 104.64 8.58Q104.94 8.58 105.17 8.54L105.17 8.54L105.17 6.82Q104.98 6.78 104.70 6.76Q104.43 6.74 104.21 6.74L104.21 6.74Q103.90 6.74 103.62 6.78Q103.33 6.82 103.11 6.91Q102.90 7.01 102.77 7.18Q102.64 7.36 102.64 7.65L102.64 7.65Q102.64 8.16 103.02 8.38Q103.41 8.59 104.02 8.59ZM103.84 2.29L103.84 2.29Q104.77 2.29 105.38 2.50Q106 2.72 106.37 3.11Q106.74 3.50 106.90 4.07Q107.06 4.64 107.06 5.34L107.06 5.34L107.06 9.82Q106.62 9.92 105.78 10.05Q104.93 10.18 103.87 10.18L103.87 10.18Q103.15 10.18 102.57 10.05Q101.98 9.92 101.57 9.62Q101.15 9.33 100.93 8.86Q100.70 8.38 100.70 7.70L100.70 7.70Q100.70 7.04 100.96 6.59Q101.22 6.14 101.65 5.87Q102.08 5.60 102.64 5.48Q103.20 5.36 103.81 5.36L103.81 5.36Q104.58 5.36 105.17 5.49L105.17 5.49L105.17 5.25Q105.17 4.69 104.82 4.31Q104.46 3.94 103.60 3.94L103.60 3.94Q103.04 3.94 102.52 4.02Q102 4.10 101.68 4.21L101.68 4.21L101.41 2.62Q101.78 2.50 102.45 2.39Q103.12 2.29 103.84 2.29ZM110.53 6L110.53 6Q110.53 6.93 110.86 7.42Q111.20 7.90 111.92 7.90L111.92 7.90Q112.24 7.90 112.52 7.82Q112.80 7.74 113.02 7.62L113.02 7.62L113.02 4Q112.80 3.95 112.62 3.94Q112.45 3.92 112.26 3.92L112.26 3.92Q110.53 3.92 110.53 6ZM115.01 2.72L115.01 9.09Q115.01 10.93 114.12 11.81Q113.23 12.69 111.26 12.69L111.26 12.69Q110.56 12.69 109.91 12.54Q109.26 12.40 108.67 12.21L108.67 12.21L109.04 10.54Q109.50 10.72 110.02 10.87Q110.53 11.02 111.30 11.02L111.30 11.02Q111.81 11.02 112.14 10.90Q112.48 10.78 112.67 10.58Q112.86 10.37 112.94 10.09Q113.02 9.81 113.02 9.49L113.02 9.49L113.02 9.18Q112.61 9.34 112.26 9.42Q111.92 9.50 111.52 9.50L111.52 9.50Q110.05 9.50 109.29 8.58Q108.53 7.65 108.53 6L108.53 6Q108.53 4.14 109.55 3.23Q110.58 2.32 112.34 2.32L112.34 2.32Q113.57 2.32 115.01 2.72L115.01 2.72ZM116.50 6.30L116.50 6.30Q116.50 5.31 116.80 4.56Q117.10 3.81 117.60 3.30Q118.10 2.80 118.74 2.54Q119.38 2.29 120.05 2.29L120.05 2.29Q121.71 2.29 122.58 3.27Q123.44 4.26 123.44 6.14L123.44 6.14Q123.44 6.34 123.43 6.54Q123.42 6.75 123.41 6.88L123.41 6.88L118.53 6.88Q118.53 7.62 119.14 8.04Q119.74 8.46 120.70 8.46L120.70 8.46Q121.30 8.46 121.83 8.34Q122.37 8.21 122.74 8.08L122.74 8.08L123.01 9.76Q122.50 9.94 121.92 10.06Q121.34 10.18 120.62 10.18L120.62 10.18Q119.66 10.18 118.90 9.93Q118.14 9.68 117.61 9.19Q117.07 8.70 116.78 7.98Q116.50 7.26 116.50 6.30ZM118.53 5.52L121.54 5.52Q121.54 5.22 121.46 4.94Q121.38 4.66 121.20 4.43Q121.02 4.21 120.75 4.07Q120.48 3.94 120.08 3.94L120.08 3.94Q119.70 3.94 119.42 4.06Q119.14 4.19 118.95 4.42Q118.77 4.64 118.66 4.93Q118.56 5.22 118.53 5.52L118.53 5.52ZM129.49 2.40L129.49 2.40Q130.11 2.40 130.51 2.59Q130.91 2.78 131.14 3.17Q131.38 3.55 131.46 4.14Q131.54 4.72 131.54 5.50L131.54 5.50L131.54 10L129.94 10L129.94 5.41Q129.94 4.96 129.88 4.69Q129.82 4.42 129.74 4.27Q129.65 4.13 129.53 4.08Q129.41 4.03 129.28 4.03L129.28 4.03Q129.14 4.03 128.98 4.06Q128.82 4.08 128.69 4.14L128.69 4.14Q128.74 4.45 128.77 4.82Q128.80 5.18 128.80 5.63L128.80 5.63L128.80 7.14L127.20 7.14L127.20 5.41Q127.20 4.64 127.05 4.34Q126.90 4.03 126.56 4.03L126.56 4.03Q126.46 4.03 126.33 4.05Q126.19 4.06 126.06 4.10L126.06 4.10L126.06 10L124.46 10L124.46 2.77Q125.09 2.59 125.70 2.50Q126.30 2.40 126.77 2.40L126.77 2.40Q127.18 2.40 127.51 2.50Q127.84 2.61 128.08 2.85L128.08 2.85Q128.35 2.67 128.72 2.54Q129.09 2.40 129.49 2.40ZM132.50 6.30L132.50 6.30Q132.50 5.31 132.80 4.56Q133.10 3.81 133.60 3.30Q134.10 2.80 134.74 2.54Q135.38 2.29 136.05 2.29L136.05 2.29Q137.71 2.29 138.58 3.27Q139.44 4.26 139.44 6.14L139.44 6.14Q139.44 6.34 139.43 6.54Q139.42 6.75 139.41 6.88L139.41 6.88L134.53 6.88Q134.53 7.62 135.14 8.04Q135.74 8.46 136.70 8.46L136.70 8.46Q137.30 8.46 137.83 8.34Q138.37 8.21 138.74 8.08L138.74 8.08L139.01 9.76Q138.50 9.94 137.92 10.06Q137.34 10.18 136.62 10.18L136.62 10.18Q135.66 10.18 134.90 9.93Q134.14 9.68 133.61 9.19Q133.07 8.70 132.78 7.98Q132.50 7.26 132.50 6.30ZM134.53 5.52L137.54 5.52Q137.54 5.22 137.46 4.94Q137.38 4.66 137.20 4.43Q137.02 4.21 136.75 4.07Q136.48 3.94 136.08 3.94L136.08 3.94Q135.70 3.94 135.42 4.06Q135.14 4.19 134.95 4.42Q134.77 4.64 134.66 4.93Q134.56 5.22 134.53 5.52L134.53 5.52ZM141.01 10L141.01 2.72Q141.54 2.58 142.31 2.45Q143.09 2.32 144 2.32L144 2.32Q144.90 2.32 145.49 2.57Q146.08 2.82 146.42 3.27Q146.77 3.73 146.91 4.36Q147.06 4.99 147.06 5.76L147.06 5.76L147.06 10L145.09 10L145.09 6.02Q145.09 4.96 144.85 4.50Q144.61 4.03 143.87 4.03L143.87 4.03Q143.65 4.03 143.43 4.05Q143.22 4.06 142.98 4.10L142.98 4.10L142.98 10L141.01 10ZM150.29 7.20L150.29 4.11L148.58 4.11L148.58 2.48L150.29 2.48L150.29 0.59L152.26 0.27L152.26 2.48L155.41 2.48L155.41 4.11L152.26 4.11L152.26 7.15Q152.26 7.57 152.34 7.82Q152.42 8.08 152.56 8.22Q152.70 8.37 152.91 8.42Q153.12 8.46 153.38 8.46L153.38 8.46Q153.65 8.46 153.88 8.45Q154.11 8.43 154.33 8.39Q154.54 8.35 154.78 8.27Q155.01 8.19 155.28 8.06L155.28 8.06L155.55 9.76Q155.01 9.98 154.38 10.08Q153.74 10.18 153.15 10.18L153.15 10.18Q152.46 10.18 151.94 10.06Q151.41 9.95 151.04 9.63Q150.67 9.31 150.48 8.73Q150.29 8.14 150.29 7.20L150.29 7.20ZM167.71 8.56L167.71 8.56Q168.21 8.56 168.54 8.46Q168.86 8.35 169.06 8.17Q169.25 7.98 169.32 7.75Q169.39 7.52 169.39 7.28L169.39 7.28Q169.39 6.98 169.22 6.74Q169.04 6.50 168.77 6.31Q168.50 6.13 168.16 5.98Q167.82 5.82 167.49 5.70L167.49 5.70Q167.04 5.54 166.56 5.33Q166.08 5.12 165.69 4.80Q165.30 4.48 165.04 4.01Q164.78 3.54 164.78 2.83L164.78 2.83Q164.78 1.44 165.69 0.66Q166.59-0.13 168.18-0.13L168.18-0.13Q169.09-0.13 169.77 0.08Q170.45 0.29 170.91 0.54L170.91 0.54L170.34 2.06Q169.94 1.84 169.45 1.68Q168.96 1.52 168.32 1.52L168.32 1.52Q166.75 1.52 166.75 2.66L166.75 2.66Q166.75 2.94 166.91 3.16Q167.07 3.38 167.32 3.54Q167.57 3.71 167.88 3.84Q168.19 3.97 168.50 4.08L168.50 4.08Q168.96 4.26 169.46 4.47Q169.97 4.69 170.39 5.05Q170.82 5.41 171.09 5.94Q171.36 6.48 171.36 7.30L171.36 7.30Q171.36 8.69 170.46 9.45Q169.55 10.21 167.71 10.21L167.71 10.21Q166.48 10.21 165.74 9.94Q165.01 9.68 164.64 9.46L164.64 9.46L165.22 7.86Q165.65 8.11 166.25 8.34Q166.85 8.56 167.71 8.56ZM177.54 2.48L179.55 2.48Q179.25 3.54 178.97 4.55Q178.69 5.57 178.38 6.54Q178.08 7.50 177.74 8.43Q177.39 9.36 176.99 10.24L176.99 10.24Q176.69 10.88 176.39 11.34Q176.10 11.81 175.74 12.10Q175.38 12.40 174.94 12.54Q174.50 12.69 173.90 12.69L173.90 12.69Q173.41 12.69 173 12.61Q172.59 12.53 172.32 12.40L172.32 12.40L172.69 10.75Q173.01 10.90 173.26 10.95Q173.50 11.01 173.79 11.01L173.79 11.01Q174.37 11.01 174.72 10.62Q175.07 10.24 175.28 9.71L175.28 9.71Q174.58 8.30 173.87 6.49Q173.17 4.67 172.59 2.48L172.59 2.48L174.64 2.48Q174.78 3.07 174.97 3.74Q175.15 4.42 175.36 5.09Q175.57 5.76 175.80 6.41Q176.03 7.06 176.27 7.62L176.27 7.62Q176.43 7.06 176.61 6.41Q176.78 5.76 176.94 5.10Q177.10 4.43 177.26 3.76Q177.41 3.09 177.54 2.48L177.54 2.48ZM183.65 8.51L183.65 8.51Q184.37 8.51 184.75 8.41Q185.14 8.30 185.14 7.98L185.14 7.98Q185.14 7.78 185.02 7.63Q184.90 7.49 184.68 7.38Q184.46 7.28 184.18 7.18Q183.90 7.09 183.60 6.99L183.60 6.99Q183.17 6.86 182.72 6.70Q182.27 6.53 181.90 6.27Q181.54 6.02 181.30 5.62Q181.06 5.23 181.06 4.64L181.06 4.64Q181.06 4.16 181.24 3.74Q181.42 3.31 181.82 2.98Q182.21 2.66 182.82 2.47Q183.42 2.29 184.27 2.29L184.27 2.29Q185.01 2.29 185.64 2.40Q186.27 2.51 186.74 2.72L186.74 2.72L186.43 4.38Q186.16 4.30 185.58 4.12Q185.01 3.94 184.29 3.94L184.29 3.94Q183.54 3.94 183.27 4.12Q183.01 4.30 183.01 4.51L183.01 4.51Q183.01 4.69 183.13 4.82Q183.25 4.96 183.45 5.07Q183.65 5.18 183.91 5.29Q184.18 5.39 184.48 5.49L184.48 5.49Q184.91 5.63 185.38 5.81Q185.84 5.98 186.22 6.25Q186.59 6.51 186.83 6.92Q187.07 7.33 187.07 7.92L187.07 7.92Q187.07 8.38 186.90 8.80Q186.72 9.22 186.31 9.52Q185.90 9.82 185.25 10Q184.59 10.18 183.63 10.18L183.63 10.18Q182.66 10.18 181.97 9.95Q181.28 9.73 180.86 9.55L180.86 9.55L181.17 7.90Q181.73 8.13 182.36 8.32Q182.99 8.51 183.65 8.51ZM190.29 7.20L190.29 4.11L188.58 4.11L188.58 2.48L190.29 2.48L190.29 0.59L192.26 0.27L192.26 2.48L195.41 2.48L195.41 4.11L192.26 4.11L192.26 7.15Q192.26 7.57 192.34 7.82Q192.42 8.08 192.56 8.22Q192.70 8.37 192.91 8.42Q193.12 8.46 193.38 8.46L193.38 8.46Q193.65 8.46 193.88 8.45Q194.11 8.43 194.33 8.39Q194.54 8.35 194.78 8.27Q195.01 8.19 195.28 8.06L195.28 8.06L195.55 9.76Q195.01 9.98 194.38 10.08Q193.74 10.18 193.15 10.18L193.15 10.18Q192.46 10.18 191.94 10.06Q191.41 9.95 191.04 9.63Q190.67 9.31 190.48 8.73Q190.29 8.14 190.29 7.20L190.29 7.20ZM196.50 6.30L196.50 6.30Q196.50 5.31 196.80 4.56Q197.10 3.81 197.60 3.30Q198.10 2.80 198.74 2.54Q199.38 2.29 200.05 2.29L200.05 2.29Q201.71 2.29 202.58 3.27Q203.44 4.26 203.44 6.14L203.44 6.14Q203.44 6.34 203.43 6.54Q203.42 6.75 203.41 6.88L203.41 6.88L198.53 6.88Q198.53 7.62 199.14 8.04Q199.74 8.46 200.70 8.46L200.70 8.46Q201.30 8.46 201.83 8.34Q202.37 8.21 202.74 8.08L202.74 8.08L203.01 9.76Q202.50 9.94 201.92 10.06Q201.34 10.18 200.62 10.18L200.62 10.18Q199.66 10.18 198.90 9.93Q198.14 9.68 197.61 9.19Q197.07 8.70 196.78 7.98Q196.50 7.26 196.50 6.30ZM198.53 5.52L201.54 5.52Q201.54 5.22 201.46 4.94Q201.38 4.66 201.20 4.43Q201.02 4.21 200.75 4.07Q200.48 3.94 200.08 3.94L200.08 3.94Q199.70 3.94 199.42 4.06Q199.14 4.19 198.95 4.42Q198.77 4.64 198.66 4.93Q198.56 5.22 198.53 5.52L198.53 5.52ZM209.49 2.40L209.49 2.40Q210.11 2.40 210.51 2.59Q210.91 2.78 211.14 3.17Q211.38 3.55 211.46 4.14Q211.54 4.72 211.54 5.50L211.54 5.50L211.54 10L209.94 10L209.94 5.41Q209.94 4.96 209.88 4.69Q209.82 4.42 209.74 4.27Q209.65 4.13 209.53 4.08Q209.41 4.03 209.28 4.03L209.28 4.03Q209.14 4.03 208.98 4.06Q208.82 4.08 208.69 4.14L208.69 4.14Q208.74 4.45 208.77 4.82Q208.80 5.18 208.80 5.63L208.80 5.63L208.80 7.14L207.20 7.14L207.20 5.41Q207.20 4.64 207.05 4.34Q206.90 4.03 206.56 4.03L206.56 4.03Q206.46 4.03 206.33 4.05Q206.19 4.06 206.06 4.10L206.06 4.10L206.06 10L204.46 10L204.46 2.77Q205.09 2.59 205.70 2.50Q206.30 2.40 206.77 2.40L206.77 2.40Q207.18 2.40 207.51 2.50Q207.84 2.61 208.08 2.85L208.08 2.85Q208.35 2.67 208.72 2.54Q209.09 2.40 209.49 2.40Z"/></g></svg>