<?xml version="1.0" encoding="UTF-8"?>
<svg height="34" width="78.4" version="1.1" xmlns="http://www.w3.org/2000/svg">
    <rect
        height="32"
        width="76.4"
        rx="1"
        ry="1"
        x="1"
        y="1"
        fill="#81bd41"
        stroke="#344c1a"
        stroke-width="1"
         />
    <g transform="translate(0, 14)">
        <path fill="#344c1a" d="M23.69 11L19.97 11Q19.44 9.57 18.67 7.84Q17.90 6.10 17.06 4.36L17.06 4.36Q16.24 6.02 15.43 7.79Q14.62 9.57 14.03 11L14.03 11L10.31 11Q10.59 10.24 11.13 9.18Q11.68 8.12 12.34 6.88Q13.00 5.65 13.72 4.35Q14.45 3.05 15.12 1.84L15.12 1.84L10.59-6.33L14.31-6.33L17.06-0.79L19.94-6.33L23.41-6.33L18.99 1.76Q19.74 2.96 20.47 4.28Q21.20 5.60 21.83 6.84Q22.46 8.09 22.94 9.17Q23.41 10.24 23.69 11L23.69 11ZM37.22 4.39L37.22 4.39Q37.22 5.96 36.77 7.23Q36.32 8.51 35.51 9.43Q34.70 10.36 33.56 10.86Q32.43 11.36 31.03 11.36L31.03 11.36Q29.63 11.36 28.49 10.86Q27.36 10.36 26.53 9.43Q25.71 8.51 25.26 7.23Q24.81 5.96 24.81 4.39L24.81 4.39Q24.81 2.85 25.27 1.58Q25.74 0.30 26.56-0.61Q27.39-1.52 28.54-2.01Q29.68-2.50 31.03-2.50L31.03-2.50Q32.40-2.50 33.53-2.01Q34.67-1.52 35.49-0.61Q36.32 0.30 36.77 1.58Q37.22 2.85 37.22 4.39ZM28.31 4.42L28.31 4.42Q28.31 6.18 28.94 7.28Q29.57 8.37 30.97 8.37L30.97 8.37Q32.32 8.37 33.00 7.28Q33.69 6.18 33.69 4.42L33.69 4.42Q33.69 2.66 33.06 1.58Q32.43 0.50 31.03 0.50L31.03 0.50Q29.68 0.50 29.00 1.58Q28.31 2.66 28.31 4.42ZM49.20-2.16L49.20 10.13Q49.20 11.73 48.81 12.81Q48.42 13.88 47.73 14.54Q47.04 15.20 46.11 15.48Q45.17 15.76 44.08 15.76L44.08 15.76Q42.73 15.76 41.58 15.42Q40.44 15.09 39.37 14.56L39.37 14.56L40.44 11.64Q41.14 12.04 42.13 12.39Q43.12 12.74 43.94 12.74L43.94 12.74Q44.80 12.74 45.28 12.22Q45.76 11.70 45.76 10.30L45.76 10.30L45.76 0.70L40.44 0.70L40.44-2.16L49.20-2.16ZM48.78-5.94L48.78-5.94Q48.78-4.93 48.14-4.34Q47.49-3.76 46.60-3.76L46.60-3.76Q45.70-3.76 45.07-4.34Q44.44-4.93 44.44-5.94L44.44-5.94Q44.44-6.98 45.07-7.56Q45.70-8.15 46.60-8.15L46.60-8.15Q47.49-8.15 48.14-7.56Q48.78-6.98 48.78-5.94ZM65.22 4.39L65.22 4.39Q65.22 5.96 64.77 7.23Q64.32 8.51 63.51 9.43Q62.70 10.36 61.56 10.86Q60.43 11.36 59.03 11.36L59.03 11.36Q57.63 11.36 56.49 10.86Q55.36 10.36 54.53 9.43Q53.71 8.51 53.26 7.23Q52.81 5.96 52.81 4.39L52.81 4.39Q52.81 2.85 53.27 1.58Q53.74 0.30 54.56-0.61Q55.39-1.52 56.54-2.01Q57.68-2.50 59.03-2.50L59.03-2.50Q60.40-2.50 61.53-2.01Q62.67-1.52 63.49-0.61Q64.32 0.30 64.77 1.58Q65.22 2.85 65.22 4.39ZM56.31 4.42L56.31 4.42Q56.31 6.18 56.94 7.28Q57.57 8.37 58.97 8.37L58.97 8.37Q60.32 8.37 61.00 7.28Q61.69 6.18 61.69 4.42L61.69 4.42Q61.69 2.66 61.06 1.58Q60.43 0.50 59.03 0.50L59.03 0.50Q57.68 0.50 57.00 1.58Q56.31 2.66 56.31 4.42Z"/>
    </g>
</svg>