<?xml version="1.0" encoding="UTF-8"?>
<svg height="34" width="191.2" version="1.1" xmlns="http://www.w3.org/2000/svg">
    <rect
        height="32"
        width="189.2"
        rx="14"
        ry="14"
        x="1"
        y="1"
        fill="#2f4aab"
        stroke="#0e1634"
        stroke-width="1"
         />
    <g transform="translate(0, 14)">
        <path fill="#0e1634" d="M23.69 11L19.80 11Q19.49 10.02 18.92 8.89Q18.34 7.75 17.64 6.67Q16.94 5.60 16.17 4.66Q15.40 3.72 14.70 3.08L14.70 3.08L14.70 11L11.26 11L11.26-6.33L14.70-6.33L14.70 0.86Q15.32 0.08 15.99-0.87Q16.66-1.82 17.27-2.78Q17.87-3.73 18.37-4.65Q18.88-5.58 19.21-6.33L19.21-6.33L23.10-6.33Q22.71-5.58 22.17-4.61Q21.62-3.64 20.92-2.59Q20.22-1.54 19.42-0.45Q18.62 0.64 17.76 1.65L17.76 1.65Q18.62 2.49 19.52 3.58Q20.42 4.67 21.21 5.92Q22.01 7.16 22.66 8.47Q23.30 9.77 23.69 11L23.69 11ZM31.95-5.94L31.95-5.94Q31.95-4.93 31.31-4.34Q30.66-3.76 29.77-3.76L29.77-3.76Q28.87-3.76 28.24-4.34Q27.61-4.93 27.61-5.94L27.61-5.94Q27.61-6.98 28.24-7.56Q28.87-8.15 29.77-8.15L29.77-8.15Q30.66-8.15 31.31-7.56Q31.95-6.98 31.95-5.94ZM36.63 7.67L37.08 10.44Q36.01 10.94 35.07 11.13Q34.14 11.31 33.35 11.31L33.35 11.31Q32.01 11.31 31.10 10.92Q30.19 10.52 29.64 9.78Q29.10 9.04 28.87 7.98Q28.65 6.91 28.65 5.54L28.65 5.54L28.65 0.70L25.01 0.70L25.01-2.16L32.09-2.16L32.09 5.99Q32.09 7.16 32.53 7.74Q32.96 8.31 33.97 8.31L33.97 8.31Q34.44 8.31 35.12 8.19Q35.79 8.06 36.63 7.67L36.63 7.67ZM46.29 11.36L46.29 11.36Q42.62 11.36 40.69 9.01Q38.76 6.66 38.76 2.32L38.76 2.32Q38.76 0.16 39.34-1.52Q39.93-3.20 40.98-4.36Q42.03-5.52 43.47-6.12Q44.92-6.72 46.62-6.72L46.62-6.72Q47.55-6.72 48.29-6.57Q49.03-6.42 49.59-6.22Q50.15-6.02 50.53-5.80Q50.91-5.58 51.10-5.46L51.10-5.46L50.21-2.72Q49.56-3.14 48.65-3.43Q47.74-3.73 46.57-3.73L46.57-3.73Q45.76-3.73 44.99-3.43Q44.22-3.14 43.61-2.45Q43.01-1.77 42.63-0.62Q42.26 0.53 42.26 2.24L42.26 2.24Q42.26 5.20 43.28 6.79Q44.30 8.37 46.62 8.37L46.62 8.37Q47.97 8.37 48.85 8.06Q49.73 7.75 50.26 7.44L50.26 7.44L51.13 10.16Q50.40 10.61 49.16 10.99Q47.91 11.36 46.29 11.36ZM59.03 8.54L59.03 8.54Q59.59 8.54 60.12 8.52Q60.65 8.51 61.04 8.45L61.04 8.45L61.04 5.43Q60.71 5.37 60.23 5.33Q59.76 5.29 59.36 5.29L59.36 5.29Q58.83 5.29 58.33 5.36Q57.82 5.43 57.45 5.60Q57.07 5.76 56.84 6.07Q56.62 6.38 56.62 6.88L56.62 6.88Q56.62 7.78 57.29 8.16Q57.96 8.54 59.03 8.54ZM58.72-2.50L58.72-2.50Q60.34-2.50 61.42-2.12Q62.50-1.74 63.14-1.05Q63.79-0.37 64.07 0.63Q64.35 1.62 64.35 2.85L64.35 2.85L64.35 10.69Q63.59 10.86 62.11 11.08Q60.62 11.31 58.78 11.31L58.78 11.31Q57.52 11.31 56.49 11.08Q55.47 10.86 54.74 10.34Q54.02 9.82 53.62 9.00Q53.23 8.17 53.23 6.97L53.23 6.97Q53.23 5.82 53.68 5.04Q54.13 4.25 54.88 3.78Q55.64 3.30 56.62 3.09Q57.60 2.88 58.66 2.88L58.66 2.88Q60.01 2.88 61.04 3.10L61.04 3.10L61.04 2.68Q61.04 1.70 60.43 1.05Q59.81 0.39 58.30 0.39L58.30 0.39Q57.32 0.39 56.41 0.53Q55.50 0.67 54.94 0.86L54.94 0.86L54.46-1.91Q55.11-2.13 56.28-2.31Q57.46-2.50 58.72-2.50ZM70.28 4.34L70.28 4.34Q70.28 6.10 70.94 7.22Q71.60 8.34 73.06 8.34L73.06 8.34Q73.48 8.34 73.84 8.31Q74.20 8.28 74.60 8.23L74.60 8.23L74.60 1.06Q74.20 0.84 73.70 0.68Q73.20 0.53 72.64 0.53L72.64 0.53Q71.40 0.53 70.84 1.51Q70.28 2.49 70.28 4.34ZM78.04-8.43L78.04 10.61Q77.09 10.92 75.72 11.11Q74.34 11.31 73.03 11.31L73.03 11.31Q69.95 11.31 68.37 9.49Q66.78 7.67 66.78 4.50L66.78 4.50Q66.78 1.28 68.11-0.58Q69.44-2.44 72.05-2.44L72.05-2.44Q72.75-2.44 73.42-2.29Q74.09-2.13 74.60-1.85L74.60-1.85L74.60-7.84L78.04-8.43ZM106.88 8.14L106.88 11L95.99 11L95.99-6.33L99.46-6.33L99.46 8.14L106.88 8.14ZM115.03 8.54L115.03 8.54Q115.59 8.54 116.12 8.52Q116.65 8.51 117.04 8.45L117.04 8.45L117.04 5.43Q116.71 5.37 116.23 5.33Q115.76 5.29 115.36 5.29L115.36 5.29Q114.83 5.29 114.33 5.36Q113.82 5.43 113.45 5.60Q113.07 5.76 112.84 6.07Q112.62 6.38 112.62 6.88L112.62 6.88Q112.62 7.78 113.29 8.16Q113.96 8.54 115.03 8.54ZM114.72-2.50L114.72-2.50Q116.34-2.50 117.42-2.12Q118.50-1.74 119.14-1.05Q119.79-0.37 120.07 0.63Q120.35 1.62 120.35 2.85L120.35 2.85L120.35 10.69Q119.59 10.86 118.11 11.08Q116.62 11.31 114.78 11.31L114.78 11.31Q113.52 11.31 112.49 11.08Q111.47 10.86 110.74 10.34Q110.02 9.82 109.62 9.00Q109.23 8.17 109.23 6.97L109.23 6.97Q109.23 5.82 109.68 5.04Q110.13 4.25 110.88 3.78Q111.64 3.30 112.62 3.09Q113.60 2.88 114.66 2.88L114.66 2.88Q116.01 2.88 117.04 3.10L117.04 3.10L117.04 2.68Q117.04 1.70 116.43 1.05Q115.81 0.39 114.30 0.39L114.30 0.39Q113.32 0.39 112.41 0.53Q111.50 0.67 110.94 0.86L110.94 0.86L110.46-1.91Q111.11-2.13 112.28-2.31Q113.46-2.50 114.72-2.50ZM131.69-2.16L135.22-2.16Q134.68-0.31 134.19 1.47Q133.70 3.24 133.17 4.94Q132.64 6.63 132.04 8.26Q131.44 9.88 130.74 11.42L130.74 11.42Q130.20 12.54 129.69 13.35Q129.17 14.16 128.54 14.68Q127.91 15.20 127.14 15.45Q126.37 15.70 125.33 15.70L125.33 15.70Q124.46 15.70 123.75 15.56Q123.04 15.42 122.56 15.20L122.56 15.20L123.20 12.32Q123.76 12.57 124.20 12.67Q124.63 12.76 125.14 12.76L125.14 12.76Q126.14 12.76 126.76 12.09Q127.38 11.42 127.74 10.50L127.74 10.50Q126.51 8.03 125.28 4.85Q124.04 1.68 123.04-2.16L123.04-2.16L126.62-2.16Q126.87-1.12 127.19 0.05Q127.52 1.23 127.88 2.40Q128.24 3.58 128.65 4.71Q129.06 5.85 129.48 6.83L129.48 6.83Q129.76 5.85 130.06 4.71Q130.37 3.58 130.65 2.42Q130.93 1.26 131.20 0.08Q131.46-1.10 131.69-2.16L131.69-2.16ZM149.22 4.39L149.22 4.39Q149.22 5.96 148.77 7.23Q148.32 8.51 147.51 9.43Q146.70 10.36 145.56 10.86Q144.43 11.36 143.03 11.36L143.03 11.36Q141.63 11.36 140.49 10.86Q139.36 10.36 138.53 9.43Q137.71 8.51 137.26 7.23Q136.81 5.96 136.81 4.39L136.81 4.39Q136.81 2.85 137.27 1.58Q137.74 0.30 138.56-0.61Q139.39-1.52 140.54-2.01Q141.68-2.50 143.03-2.50L143.03-2.50Q144.40-2.50 145.53-2.01Q146.67-1.52 147.49-0.61Q148.32 0.30 148.77 1.58Q149.22 2.85 149.22 4.39ZM140.31 4.42L140.31 4.42Q140.31 6.18 140.94 7.28Q141.57 8.37 142.97 8.37L142.97 8.37Q144.32 8.37 145.00 7.28Q145.69 6.18 145.69 4.42L145.69 4.42Q145.69 2.66 145.06 1.58Q144.43 0.50 143.03 0.50L143.03 0.50Q141.68 0.50 141.00 1.58Q140.31 2.66 140.31 4.42ZM162.26-2.16L162.26 10.55Q161.31 10.80 159.95 11.06Q158.60 11.31 157 11.31L157 11.31Q155.38 11.31 154.34 10.86Q153.30 10.41 152.70 9.59Q152.10 8.76 151.88 7.64Q151.65 6.52 151.65 5.18L151.65 5.18L151.65-2.16L155.10-2.16L155.10 4.73Q155.10 6.55 155.53 7.43Q155.96 8.31 157.22 8.31L157.22 8.31Q158.01 8.31 158.79 8.17L158.79 8.17L158.79-2.16L162.26-2.16ZM168.00 6.10L168.00 0.70L165.01 0.70L165.01-2.16L168.00-2.16L168.00-5.46L171.45-6.02L171.45-2.16L176.96-2.16L176.96 0.70L171.45 0.70L171.45 6.02Q171.45 6.74 171.59 7.19Q171.73 7.64 171.98 7.89Q172.23 8.14 172.60 8.23Q172.96 8.31 173.41 8.31L173.41 8.31Q173.88 8.31 174.29 8.28Q174.70 8.26 175.07 8.19Q175.45 8.12 175.86 7.98Q176.26 7.84 176.74 7.61L176.74 7.61L177.22 10.58Q176.26 10.97 175.16 11.14Q174.05 11.31 173.02 11.31L173.02 11.31Q171.81 11.31 170.89 11.11Q169.96 10.92 169.32 10.36Q168.68 9.80 168.34 8.77Q168.00 7.75 168.00 6.10L168.00 6.10Z"/>
    </g>
</svg>