<?xml version="1.0" encoding="UTF-8"?><svg height="34" width="247.7" version="1.1" xmlns="http://www.w3.org/2000/svg"><!--Created by Josélio de S. C. Júnior - 2021 - https://github.com/joseliojunior --><rect height="32" width="245.7" rx="1" ry="1" x="1" y="1" fill="#cecfcb" stroke="#686a62" stroke-width="1" /><g transform="translate(0, 12)"><path fill="#686a62" d="M25.57 9.84L25.57 9.84Q26.31 9.84 26.80 9.68Q27.30 9.53 27.58 9.25Q27.87 8.98 27.98 8.63Q28.09 8.28 28.09 7.92L28.09 7.92Q28.09 7.46 27.82 7.10Q27.56 6.74 27.15 6.47Q26.74 6.19 26.24 5.96Q25.74 5.74 25.23 5.54L25.23 5.54Q24.56 5.30 23.84 4.99Q23.12 4.68 22.53 4.20Q21.94 3.72 21.56 3.01Q21.18 2.30 21.18 1.25L21.18 1.25Q21.18-0.84 22.53-2.02Q23.89-3.19 26.26-3.19L26.26-3.19Q27.63-3.19 28.65-2.88Q29.67-2.57 30.37-2.18L30.37-2.18L29.50 0.10Q28.90-0.24 28.17-0.48Q27.44-0.72 26.48-0.72L26.48-0.72Q24.13-0.72 24.13 0.98L24.13 0.98Q24.13 1.42 24.37 1.74Q24.61 2.06 24.98 2.32Q25.35 2.57 25.82 2.76Q26.29 2.95 26.74 3.12L26.74 3.12Q27.44 3.38 28.20 3.71Q28.95 4.03 29.59 4.57Q30.22 5.11 30.63 5.92Q31.04 6.72 31.04 7.94L31.04 7.94Q31.04 10.03 29.68 11.17Q28.33 12.31 25.57 12.31L25.57 12.31Q23.72 12.31 22.62 11.92Q21.51 11.52 20.96 11.18L20.96 11.18L21.82 8.78Q22.47 9.17 23.37 9.50Q24.27 9.84 25.57 9.84ZM36.46 12L33.51 12L33.51-4.15L36.46-4.66L36.46 0.82Q36.82 0.70 37.33 0.59Q37.83 0.48 38.22 0.48L38.22 0.48Q39.46 0.48 40.30 0.85Q41.14 1.22 41.65 1.91Q42.15 2.59 42.37 3.54Q42.58 4.49 42.58 5.64L42.58 5.64L42.58 12L39.63 12L39.63 6.02Q39.63 4.44 39.27 3.74Q38.91 3.05 37.90 3.05L37.90 3.05Q37.50 3.05 37.10 3.14Q36.70 3.24 36.46 3.31L36.46 3.31L36.46 12ZM44.74 6.46L44.74 6.46Q44.74 4.97 45.20 3.84Q45.66 2.71 46.40 1.96Q47.14 1.20 48.10 0.82Q49.06 0.43 50.07 0.43L50.07 0.43Q52.57 0.43 53.86 1.91Q55.16 3.38 55.16 6.22L55.16 6.22Q55.16 6.50 55.15 6.82Q55.14 7.13 55.11 7.32L55.11 7.32L47.79 7.32Q47.79 8.42 48.70 9.06Q49.62 9.70 51.06 9.70L51.06 9.70Q51.94 9.70 52.75 9.50Q53.55 9.31 54.10 9.12L54.10 9.12L54.51 11.64Q53.74 11.90 52.88 12.08Q52.02 12.26 50.94 12.26L50.94 12.26Q49.50 12.26 48.36 11.89Q47.22 11.52 46.41 10.79Q45.61 10.06 45.18 8.98Q44.74 7.90 44.74 6.46ZM47.79 5.28L52.30 5.28Q52.30 4.82 52.18 4.40Q52.06 3.98 51.80 3.65Q51.54 3.31 51.13 3.11Q50.72 2.90 50.12 2.90L50.12 2.90Q49.54 2.90 49.12 3.10Q48.70 3.29 48.43 3.62Q48.15 3.96 48.00 4.39Q47.84 4.82 47.79 5.28L47.79 5.28ZM66.82 9.14L67.21 11.52Q67.14 11.57 66.88 11.69Q66.63 11.81 66.22 11.94Q65.82 12.07 65.23 12.17Q64.64 12.26 63.90 12.26L63.90 12.26Q61.86 12.26 60.92 11.05Q59.98 9.84 59.98 7.51L59.98 7.51L59.98-2.06L56.86-2.06L56.86-4.51L62.94-4.51L62.94 7.73Q62.94 8.88 63.39 9.29Q63.85 9.70 64.54 9.70L64.54 9.70Q65.43 9.70 66.03 9.46Q66.63 9.22 66.82 9.14L66.82 9.14ZM78.82 9.14L79.21 11.52Q79.14 11.57 78.88 11.69Q78.63 11.81 78.22 11.94Q77.82 12.07 77.23 12.17Q76.64 12.26 75.90 12.26L75.90 12.26Q73.86 12.26 72.92 11.05Q71.98 9.84 71.98 7.51L71.98 7.51L71.98-2.06L68.86-2.06L68.86-4.51L74.94-4.51L74.94 7.73Q74.94 8.88 75.39 9.29Q75.85 9.70 76.54 9.70L76.54 9.70Q77.43 9.70 78.03 9.46Q78.63 9.22 78.82 9.14L78.82 9.14ZM87.10 12.31L87.10 12.31Q83.96 12.31 82.30 10.30Q80.65 8.28 80.65 4.56L80.65 4.56Q80.65 2.71 81.15 1.27Q81.66-0.17 82.56-1.16Q83.46-2.16 84.69-2.68Q85.93-3.19 87.39-3.19L87.39-3.19Q88.18-3.19 88.82-3.06Q89.46-2.93 89.94-2.76Q90.42-2.59 90.74-2.40Q91.06-2.21 91.23-2.11L91.23-2.11L90.46 0.24Q89.91-0.12 89.13-0.37Q88.35-0.62 87.34-0.62L87.34-0.62Q86.65-0.62 85.99-0.37Q85.33-0.12 84.81 0.47Q84.30 1.06 83.97 2.04Q83.65 3.02 83.65 4.49L83.65 4.49Q83.65 7.03 84.52 8.39Q85.40 9.74 87.39 9.74L87.39 9.74Q88.54 9.74 89.30 9.48Q90.06 9.22 90.51 8.95L90.51 8.95L91.26 11.28Q90.63 11.66 89.56 11.99Q88.50 12.31 87.10 12.31ZM96.46 12L93.51 12L93.51-4.15L96.46-4.66L96.46 0.82Q96.82 0.70 97.33 0.59Q97.83 0.48 98.22 0.48L98.22 0.48Q99.46 0.48 100.30 0.85Q101.14 1.22 101.65 1.91Q102.15 2.59 102.37 3.54Q102.58 4.49 102.58 5.64L102.58 5.64L102.58 12L99.63 12L99.63 6.02Q99.63 4.44 99.27 3.74Q98.91 3.05 97.90 3.05L97.90 3.05Q97.50 3.05 97.10 3.14Q96.70 3.24 96.46 3.31L96.46 3.31L96.46 12ZM104.74 6.46L104.74 6.46Q104.74 4.97 105.20 3.84Q105.66 2.71 106.40 1.96Q107.14 1.20 108.10 0.82Q109.06 0.43 110.07 0.43L110.07 0.43Q112.57 0.43 113.86 1.91Q115.16 3.38 115.16 6.22L115.16 6.22Q115.16 6.50 115.15 6.82Q115.14 7.13 115.11 7.32L115.11 7.32L107.79 7.32Q107.79 8.42 108.70 9.06Q109.62 9.70 111.06 9.70L111.06 9.70Q111.94 9.70 112.75 9.50Q113.55 9.31 114.10 9.12L114.10 9.12L114.51 11.64Q113.74 11.90 112.88 12.08Q112.02 12.26 110.94 12.26L110.94 12.26Q109.50 12.26 108.36 11.89Q107.22 11.52 106.41 10.79Q105.61 10.06 105.18 8.98Q104.74 7.90 104.74 6.46ZM107.79 5.28L112.30 5.28Q112.30 4.82 112.18 4.40Q112.06 3.98 111.80 3.65Q111.54 3.31 111.13 3.11Q110.72 2.90 110.12 2.90L110.12 2.90Q109.54 2.90 109.12 3.10Q108.70 3.29 108.43 3.62Q108.15 3.96 108.00 4.39Q107.84 4.82 107.79 5.28L107.79 5.28ZM117.06 6.36L117.06 6.36Q117.06 5.14 117.44 4.06Q117.82 2.98 118.62 2.17Q119.41 1.37 120.62 0.90Q121.83 0.43 123.51 0.43L123.51 0.43Q124.52 0.43 125.34 0.58Q126.15 0.72 126.99 1.06L126.99 1.06L126.34 3.43Q125.86 3.26 125.28 3.13Q124.69 3 123.78 3L123.78 3Q122.72 3 122.01 3.25Q121.30 3.50 120.87 3.95Q120.44 4.39 120.25 5.02Q120.06 5.64 120.06 6.36L120.06 6.36Q120.06 7.92 120.93 8.81Q121.81 9.70 123.92 9.70L123.92 9.70Q124.62 9.70 125.37 9.60Q126.13 9.50 126.75 9.29L126.75 9.29L127.18 11.71Q126.56 11.95 125.67 12.11Q124.78 12.26 123.58 12.26L123.58 12.26Q121.86 12.26 120.62 11.81Q119.38 11.35 118.59 10.56Q117.80 9.77 117.43 8.69Q117.06 7.61 117.06 6.36ZM132.49-4.66L132.49 5.18Q132.92 4.68 133.36 4.12Q133.81 3.55 134.23 2.95Q134.65 2.35 135.03 1.79Q135.42 1.22 135.70 0.72L135.70 0.72L139.26 0.72Q138.82 1.27 138.27 1.92Q137.72 2.57 137.13 3.24Q136.54 3.91 135.96 4.54Q135.37 5.16 134.89 5.69L134.89 5.69Q135.49 6.26 136.18 7.07Q136.88 7.87 137.55 8.74Q138.22 9.60 138.79 10.46Q139.35 11.33 139.69 12L139.69 12L136.30 12Q136.02 11.40 135.55 10.64Q135.08 9.89 134.55 9.16Q134.02 8.42 133.48 7.76Q132.94 7.10 132.49 6.67L132.49 6.67L132.49 12L129.51 12L129.51-4.15L132.49-4.66ZM159.10 12.31L159.10 12.31Q155.96 12.31 154.30 10.30Q152.65 8.28 152.65 4.56L152.65 4.56Q152.65 2.71 153.15 1.27Q153.66-0.17 154.56-1.16Q155.46-2.16 156.69-2.68Q157.93-3.19 159.39-3.19L159.39-3.19Q160.18-3.19 160.82-3.06Q161.46-2.93 161.94-2.76Q162.42-2.59 162.74-2.40Q163.06-2.21 163.23-2.11L163.23-2.11L162.46 0.24Q161.91-0.12 161.13-0.37Q160.35-0.62 159.34-0.62L159.34-0.62Q158.65-0.62 157.99-0.37Q157.33-0.12 156.81 0.47Q156.30 1.06 155.97 2.04Q155.65 3.02 155.65 4.49L155.65 4.49Q155.65 7.03 156.52 8.39Q157.40 9.74 159.39 9.74L159.39 9.74Q160.54 9.74 161.30 9.48Q162.06 9.22 162.51 8.95L162.51 8.95L163.26 11.28Q162.63 11.66 161.56 11.99Q160.50 12.31 159.10 12.31ZM175.33 6.34L175.33 6.34Q175.33 7.68 174.94 8.77Q174.56 9.86 173.86 10.66Q173.17 11.45 172.20 11.88Q171.22 12.31 170.02 12.31L170.02 12.31Q168.82 12.31 167.85 11.88Q166.88 11.45 166.17 10.66Q165.46 9.86 165.08 8.77Q164.70 7.68 164.70 6.34L164.70 6.34Q164.70 5.02 165.09 3.92Q165.49 2.83 166.20 2.05Q166.90 1.27 167.89 0.85Q168.87 0.43 170.02 0.43L170.02 0.43Q171.20 0.43 172.17 0.85Q173.14 1.27 173.85 2.05Q174.56 2.83 174.94 3.92Q175.33 5.02 175.33 6.34ZM167.70 6.36L167.70 6.36Q167.70 7.87 168.24 8.81Q168.78 9.74 169.98 9.74L169.98 9.74Q171.13 9.74 171.72 8.81Q172.30 7.87 172.30 6.36L172.30 6.36Q172.30 4.85 171.76 3.92Q171.22 3 170.02 3L170.02 3Q168.87 3 168.28 3.92Q167.70 4.85 167.70 6.36ZM177.51 12L177.51 1.08Q178.30 0.86 179.47 0.67Q180.63 0.48 182 0.48L182 0.48Q183.34 0.48 184.23 0.85Q185.12 1.22 185.64 1.91Q186.15 2.59 186.37 3.54Q186.58 4.49 186.58 5.64L186.58 5.64L186.58 12L183.63 12L183.63 6.02Q183.63 4.44 183.27 3.74Q182.91 3.05 181.81 3.05L181.81 3.05Q181.47 3.05 181.15 3.07Q180.82 3.10 180.46 3.14L180.46 3.14L180.46 12L177.51 12ZM194.31 12L191.34 12L191.34 3.17L188.86 3.17L188.86 0.72L191.34 0.72L191.34 0.07Q191.34-1.30 191.73-2.20Q192.13-3.10 192.80-3.64Q193.47-4.18 194.34-4.40Q195.20-4.63 196.11-4.63L196.11-4.63Q197.05-4.63 198.03-4.46Q199.02-4.30 199.81-3.91L199.81-3.91L199.30-1.51Q198.75-1.70 197.92-1.91Q197.10-2.11 196.35-2.11L196.35-2.11Q195.94-2.11 195.57-2.04Q195.20-1.97 194.92-1.73Q194.65-1.49 194.48-1.04Q194.31-0.60 194.31 0.12L194.31 0.12L194.31 0.72L198.94 0.72L198.94 3.17L194.31 3.17L194.31 12ZM206.82-2.52L206.82-2.52Q206.82-1.66 206.26-1.15Q205.71-0.65 204.94-0.65L204.94-0.65Q204.18-0.65 203.64-1.15Q203.10-1.66 203.10-2.52L203.10-2.52Q203.10-3.41 203.64-3.91Q204.18-4.42 204.94-4.42L204.94-4.42Q205.71-4.42 206.26-3.91Q206.82-3.41 206.82-2.52ZM210.82 9.14L211.21 11.52Q210.30 11.95 209.49 12.11Q208.69 12.26 208.02 12.26L208.02 12.26Q206.86 12.26 206.08 11.93Q205.30 11.59 204.84 10.96Q204.37 10.32 204.18 9.41Q203.98 8.50 203.98 7.32L203.98 7.32L203.98 3.17L200.86 3.17L200.86 0.72L206.94 0.72L206.94 7.70Q206.94 8.71 207.31 9.20Q207.68 9.70 208.54 9.70L208.54 9.70Q208.95 9.70 209.53 9.59Q210.10 9.48 210.82 9.14L210.82 9.14ZM215.79 6L215.79 6Q215.79 7.39 216.30 8.12Q216.80 8.86 217.88 8.86L217.88 8.86Q218.36 8.86 218.78 8.74Q219.20 8.62 219.54 8.42L219.54 8.42L219.54 3Q219.20 2.93 218.94 2.90Q218.67 2.88 218.38 2.88L218.38 2.88Q215.79 2.88 215.79 6ZM222.51 1.08L222.51 10.63Q222.51 13.39 221.18 14.71Q219.85 16.03 216.90 16.03L216.90 16.03Q215.84 16.03 214.87 15.82Q213.90 15.60 213.01 15.31L213.01 15.31L213.56 12.82Q214.26 13.08 215.02 13.31Q215.79 13.54 216.94 13.54L216.94 13.54Q217.71 13.54 218.22 13.36Q218.72 13.18 219.01 12.86Q219.30 12.55 219.42 12.13Q219.54 11.71 219.54 11.23L219.54 11.23L219.54 10.78Q218.91 11.02 218.40 11.14Q217.88 11.26 217.28 11.26L217.28 11.26Q215.07 11.26 213.93 9.86Q212.79 8.47 212.79 6L212.79 6Q212.79 3.22 214.33 1.85Q215.86 0.48 218.50 0.48L218.50 0.48Q220.35 0.48 222.51 1.08L222.51 1.08Z"/></g></svg>