<?xml version="1.0" encoding="UTF-8"?><svg height="26" width="179.7" version="1.1" xmlns="http://www.w3.org/2000/svg"><!--Created by Josélio de S. C. Júnior - 2021 - https://github.com/joseliojunior --><rect height="24" width="177.7" rx="1" ry="1" x="1" y="1" fill="#cecfcb" stroke="#686a62" stroke-width="1" /><g transform="translate(0, 8)"><path fill="#686a62" d="M23.71 8.56L23.71 8.56Q24.21 8.56 24.54 8.46Q24.86 8.35 25.06 8.17Q25.25 7.98 25.32 7.75Q25.39 7.52 25.39 7.28L25.39 7.28Q25.39 6.98 25.22 6.74Q25.04 6.50 24.77 6.31Q24.50 6.13 24.16 5.98Q23.82 5.82 23.49 5.70L23.49 5.70Q23.04 5.54 22.56 5.33Q22.08 5.12 21.69 4.80Q21.30 4.48 21.04 4.01Q20.78 3.54 20.78 2.83L20.78 2.83Q20.78 1.44 21.69 0.66Q22.59-0.13 24.18-0.13L24.18-0.13Q25.09-0.13 25.77 0.08Q26.45 0.29 26.91 0.54L26.91 0.54L26.34 2.06Q25.94 1.84 25.45 1.68Q24.96 1.52 24.32 1.52L24.32 1.52Q22.75 1.52 22.75 2.66L22.75 2.66Q22.75 2.94 22.91 3.16Q23.07 3.38 23.32 3.54Q23.57 3.71 23.88 3.84Q24.19 3.97 24.50 4.08L24.50 4.08Q24.96 4.26 25.46 4.47Q25.97 4.69 26.39 5.05Q26.82 5.41 27.09 5.94Q27.36 6.48 27.36 7.30L27.36 7.30Q27.36 8.69 26.46 9.45Q25.55 10.21 23.71 10.21L23.71 10.21Q22.48 10.21 21.74 9.94Q21.01 9.68 20.64 9.46L20.64 9.46L21.22 7.86Q21.65 8.11 22.25 8.34Q22.85 8.56 23.71 8.56ZM30.98 10L29.01 10L29.01-0.77L30.98-1.10L30.98 2.54Q31.22 2.46 31.55 2.39Q31.89 2.32 32.14 2.32L32.14 2.32Q32.98 2.32 33.54 2.57Q34.10 2.82 34.43 3.27Q34.77 3.73 34.91 4.36Q35.06 4.99 35.06 5.76L35.06 5.76L35.06 10L33.09 10L33.09 6.02Q33.09 4.96 32.85 4.50Q32.61 4.03 31.94 4.03L31.94 4.03Q31.66 4.03 31.40 4.10Q31.14 4.16 30.98 4.21L30.98 4.21L30.98 10ZM36.50 6.30L36.50 6.30Q36.50 5.31 36.80 4.56Q37.10 3.81 37.60 3.30Q38.10 2.80 38.74 2.54Q39.38 2.29 40.05 2.29L40.05 2.29Q41.71 2.29 42.58 3.27Q43.44 4.26 43.44 6.14L43.44 6.14Q43.44 6.34 43.43 6.54Q43.42 6.75 43.41 6.88L43.41 6.88L38.53 6.88Q38.53 7.62 39.14 8.04Q39.74 8.46 40.70 8.46L40.70 8.46Q41.30 8.46 41.83 8.34Q42.37 8.21 42.74 8.08L42.74 8.08L43.01 9.76Q42.50 9.94 41.92 10.06Q41.34 10.18 40.62 10.18L40.62 10.18Q39.66 10.18 38.90 9.93Q38.14 9.68 37.61 9.19Q37.07 8.70 36.78 7.98Q36.50 7.26 36.50 6.30ZM38.53 5.52L41.54 5.52Q41.54 5.22 41.46 4.94Q41.38 4.66 41.20 4.43Q41.02 4.21 40.75 4.07Q40.48 3.94 40.08 3.94L40.08 3.94Q39.70 3.94 39.42 4.06Q39.14 4.19 38.95 4.42Q38.77 4.64 38.66 4.93Q38.56 5.22 38.53 5.52L38.53 5.52ZM51.22 8.10L51.47 9.68Q51.42 9.71 51.26 9.79Q51.09 9.87 50.82 9.96Q50.54 10.05 50.15 10.11Q49.76 10.18 49.26 10.18L49.26 10.18Q47.90 10.18 47.28 9.37Q46.66 8.56 46.66 7.01L46.66 7.01L46.66 0.62L44.58 0.62L44.58-1.01L48.62-1.01L48.62 7.15Q48.62 7.92 48.93 8.19Q49.23 8.46 49.70 8.46L49.70 8.46Q50.29 8.46 50.69 8.30Q51.09 8.14 51.22 8.10L51.22 8.10ZM59.22 8.10L59.47 9.68Q59.42 9.71 59.26 9.79Q59.09 9.87 58.82 9.96Q58.54 10.05 58.15 10.11Q57.76 10.18 57.26 10.18L57.26 10.18Q55.90 10.18 55.28 9.37Q54.66 8.56 54.66 7.01L54.66 7.01L54.66 0.62L52.58 0.62L52.58-1.01L56.62-1.01L56.62 7.15Q56.62 7.92 56.93 8.19Q57.23 8.46 57.70 8.46L57.70 8.46Q58.29 8.46 58.69 8.30Q59.09 8.14 59.22 8.10L59.22 8.10ZM64.74 10.21L64.74 10.21Q62.64 10.21 61.54 8.86Q60.43 7.52 60.43 5.04L60.43 5.04Q60.43 3.81 60.77 2.85Q61.10 1.89 61.70 1.22Q62.30 0.56 63.13 0.22Q63.95-0.13 64.93-0.13L64.93-0.13Q65.46-0.13 65.88-0.04Q66.30 0.05 66.62 0.16Q66.94 0.27 67.16 0.40Q67.38 0.53 67.49 0.59L67.49 0.59L66.98 2.16Q66.61 1.92 66.09 1.75Q65.57 1.58 64.90 1.58L64.90 1.58Q64.43 1.58 63.99 1.75Q63.55 1.92 63.21 2.31Q62.86 2.70 62.65 3.36Q62.43 4.02 62.43 4.99L62.43 4.99Q62.43 6.69 63.02 7.59Q63.60 8.50 64.93 8.50L64.93 8.50Q65.70 8.50 66.20 8.32Q66.70 8.14 67.01 7.97L67.01 7.97L67.50 9.52Q67.09 9.78 66.38 9.99Q65.66 10.21 64.74 10.21ZM70.98 10L69.01 10L69.01-0.77L70.98-1.10L70.98 2.54Q71.22 2.46 71.55 2.39Q71.89 2.32 72.14 2.32L72.14 2.32Q72.98 2.32 73.54 2.57Q74.10 2.82 74.43 3.27Q74.77 3.73 74.91 4.36Q75.06 4.99 75.06 5.76L75.06 5.76L75.06 10L73.09 10L73.09 6.02Q73.09 4.96 72.85 4.50Q72.61 4.03 71.94 4.03L71.94 4.03Q71.66 4.03 71.40 4.10Q71.14 4.16 70.98 4.21L70.98 4.21L70.98 10ZM76.50 6.30L76.50 6.30Q76.50 5.31 76.80 4.56Q77.10 3.81 77.60 3.30Q78.10 2.80 78.74 2.54Q79.38 2.29 80.05 2.29L80.05 2.29Q81.71 2.29 82.58 3.27Q83.44 4.26 83.44 6.14L83.44 6.14Q83.44 6.34 83.43 6.54Q83.42 6.75 83.41 6.88L83.41 6.88L78.53 6.88Q78.53 7.62 79.14 8.04Q79.74 8.46 80.70 8.46L80.70 8.46Q81.30 8.46 81.83 8.34Q82.37 8.21 82.74 8.08L82.74 8.08L83.01 9.76Q82.50 9.94 81.92 10.06Q81.34 10.18 80.62 10.18L80.62 10.18Q79.66 10.18 78.90 9.93Q78.14 9.68 77.61 9.19Q77.07 8.70 76.78 7.98Q76.50 7.26 76.50 6.30ZM78.53 5.52L81.54 5.52Q81.54 5.22 81.46 4.94Q81.38 4.66 81.20 4.43Q81.02 4.21 80.75 4.07Q80.48 3.94 80.08 3.94L80.08 3.94Q79.70 3.94 79.42 4.06Q79.14 4.19 78.95 4.42Q78.77 4.64 78.66 4.93Q78.56 5.22 78.53 5.52L78.53 5.52ZM84.70 6.24L84.70 6.24Q84.70 5.42 84.96 4.70Q85.22 3.98 85.74 3.45Q86.27 2.91 87.08 2.60Q87.89 2.29 89.01 2.29L89.01 2.29Q89.68 2.29 90.22 2.38Q90.77 2.48 91.33 2.70L91.33 2.70L90.90 4.29Q90.58 4.18 90.18 4.09Q89.79 4 89.18 4L89.18 4Q88.48 4 88.01 4.17Q87.54 4.34 87.25 4.63Q86.96 4.93 86.83 5.34Q86.70 5.76 86.70 6.24L86.70 6.24Q86.70 7.28 87.29 7.87Q87.87 8.46 89.28 8.46L89.28 8.46Q89.74 8.46 90.25 8.40Q90.75 8.34 91.17 8.19L91.17 8.19L91.46 9.81Q91.04 9.97 90.45 10.07Q89.86 10.18 89.06 10.18L89.06 10.18Q87.90 10.18 87.08 9.87Q86.26 9.57 85.73 9.04Q85.20 8.51 84.95 7.79Q84.70 7.07 84.70 6.24ZM94.99-1.10L94.99 5.46Q95.28 5.12 95.58 4.74Q95.87 4.37 96.15 3.97Q96.43 3.57 96.69 3.19Q96.94 2.82 97.14 2.48L97.14 2.48L99.50 2.48Q99.22 2.85 98.85 3.28Q98.48 3.71 98.09 4.16Q97.70 4.61 97.30 5.02Q96.91 5.44 96.59 5.79L96.59 5.79Q96.99 6.18 97.46 6.71Q97.92 7.25 98.37 7.82Q98.82 8.40 99.19 8.98Q99.57 9.55 99.79 10L99.79 10L97.54 10Q97.34 9.60 97.03 9.10Q96.72 8.59 96.37 8.10Q96.02 7.62 95.66 7.18Q95.30 6.74 94.99 6.45L94.99 6.45L94.99 10L93.01 10L93.01-0.77L94.99-1.10ZM112.74 10.21L112.74 10.21Q110.64 10.21 109.54 8.86Q108.43 7.52 108.43 5.04L108.43 5.04Q108.43 3.81 108.77 2.85Q109.10 1.89 109.70 1.22Q110.30 0.56 111.13 0.22Q111.95-0.13 112.93-0.13L112.93-0.13Q113.46-0.13 113.88-0.04Q114.30 0.05 114.62 0.16Q114.94 0.27 115.16 0.40Q115.38 0.53 115.49 0.59L115.49 0.59L114.98 2.16Q114.61 1.92 114.09 1.75Q113.57 1.58 112.90 1.58L112.90 1.58Q112.43 1.58 111.99 1.75Q111.55 1.92 111.21 2.31Q110.86 2.70 110.65 3.36Q110.43 4.02 110.43 4.99L110.43 4.99Q110.43 6.69 111.02 7.59Q111.60 8.50 112.93 8.50L112.93 8.50Q113.70 8.50 114.20 8.32Q114.70 8.14 115.01 7.97L115.01 7.97L115.50 9.52Q115.09 9.78 114.38 9.99Q113.66 10.21 112.74 10.21ZM123.55 6.22L123.55 6.22Q123.55 7.12 123.30 7.85Q123.04 8.58 122.58 9.10Q122.11 9.63 121.46 9.92Q120.82 10.21 120.02 10.21L120.02 10.21Q119.22 10.21 118.57 9.92Q117.92 9.63 117.45 9.10Q116.98 8.58 116.72 7.85Q116.46 7.12 116.46 6.22L116.46 6.22Q116.46 5.34 116.73 4.62Q116.99 3.89 117.46 3.37Q117.94 2.85 118.59 2.57Q119.25 2.29 120.02 2.29L120.02 2.29Q120.80 2.29 121.45 2.57Q122.10 2.85 122.57 3.37Q123.04 3.89 123.30 4.62Q123.55 5.34 123.55 6.22ZM118.46 6.24L118.46 6.24Q118.46 7.25 118.82 7.87Q119.18 8.50 119.98 8.50L119.98 8.50Q120.75 8.50 121.14 7.87Q121.54 7.25 121.54 6.24L121.54 6.24Q121.54 5.23 121.18 4.62Q120.82 4 120.02 4L120.02 4Q119.25 4 118.86 4.62Q118.46 5.23 118.46 6.24ZM125.01 10L125.01 2.72Q125.54 2.58 126.31 2.45Q127.09 2.32 128 2.32L128 2.32Q128.90 2.32 129.49 2.57Q130.08 2.82 130.42 3.27Q130.77 3.73 130.91 4.36Q131.06 4.99 131.06 5.76L131.06 5.76L131.06 10L129.09 10L129.09 6.02Q129.09 4.96 128.85 4.50Q128.61 4.03 127.87 4.03L127.87 4.03Q127.65 4.03 127.43 4.05Q127.22 4.06 126.98 4.10L126.98 4.10L126.98 10L125.01 10ZM136.21 10L134.22 10L134.22 4.11L132.58 4.11L132.58 2.48L134.22 2.48L134.22 2.05Q134.22 1.14 134.49 0.54Q134.75-0.06 135.20-0.42Q135.65-0.78 136.22-0.94Q136.80-1.09 137.41-1.09L137.41-1.09Q138.03-1.09 138.69-0.98Q139.34-0.86 139.87-0.61L139.87-0.61L139.54 0.99Q139.17 0.86 138.62 0.73Q138.06 0.59 137.57 0.59L137.57 0.59Q137.30 0.59 137.05 0.64Q136.80 0.69 136.62 0.85Q136.43 1.01 136.32 1.30Q136.21 1.60 136.21 2.08L136.21 2.08L136.21 2.48L139.30 2.48L139.30 4.11L136.21 4.11L136.21 10ZM144.54 0.32L144.54 0.32Q144.54 0.90 144.18 1.23Q143.81 1.57 143.30 1.57L143.30 1.57Q142.78 1.57 142.42 1.23Q142.06 0.90 142.06 0.32L142.06 0.32Q142.06-0.27 142.42-0.61Q142.78-0.94 143.30-0.94L143.30-0.94Q143.81-0.94 144.18-0.61Q144.54-0.27 144.54 0.32ZM147.22 8.10L147.47 9.68Q146.86 9.97 146.33 10.07Q145.79 10.18 145.34 10.18L145.34 10.18Q144.58 10.18 144.06 9.95Q143.54 9.73 143.22 9.30Q142.91 8.88 142.78 8.27Q142.66 7.66 142.66 6.88L142.66 6.88L142.66 4.11L140.58 4.11L140.58 2.48L144.62 2.48L144.62 7.14Q144.62 7.81 144.87 8.14Q145.12 8.46 145.70 8.46L145.70 8.46Q145.97 8.46 146.35 8.39Q146.74 8.32 147.22 8.10L147.22 8.10ZM150.53 6L150.53 6Q150.53 6.93 150.86 7.42Q151.20 7.90 151.92 7.90L151.92 7.90Q152.24 7.90 152.52 7.82Q152.80 7.74 153.02 7.62L153.02 7.62L153.02 4Q152.80 3.95 152.62 3.94Q152.45 3.92 152.26 3.92L152.26 3.92Q150.53 3.92 150.53 6ZM155.01 2.72L155.01 9.09Q155.01 10.93 154.12 11.81Q153.23 12.69 151.26 12.69L151.26 12.69Q150.56 12.69 149.91 12.54Q149.26 12.40 148.67 12.21L148.67 12.21L149.04 10.54Q149.50 10.72 150.02 10.87Q150.53 11.02 151.30 11.02L151.30 11.02Q151.81 11.02 152.14 10.90Q152.48 10.78 152.67 10.58Q152.86 10.37 152.94 10.09Q153.02 9.81 153.02 9.49L153.02 9.49L153.02 9.18Q152.61 9.34 152.26 9.42Q151.92 9.50 151.52 9.50L151.52 9.50Q150.05 9.50 149.29 8.58Q148.53 7.65 148.53 6L148.53 6Q148.53 4.14 149.55 3.23Q150.58 2.32 152.34 2.32L152.34 2.32Q153.57 2.32 155.01 2.72L155.01 2.72Z"/></g></svg>