<?xml version="1.0" encoding="UTF-8"?>
<svg height="34" width="120.7" version="1.1" xmlns="http://www.w3.org/2000/svg">
    <rect
        height="32"
        width="118.7"
        rx="1"
        ry="1"
        x="1"
        y="1"
        fill="#ff6375"
        stroke="#940011"
        stroke-width="1"
         />
    <g transform="translate(0, 14)">
        <path fill="#940011" d="M22.71 11L19.94 11Q18.76 8.12 17.38 5.25Q15.99 2.38 14.40-0.51L14.40-0.51L14.40 11L11.29 11L11.29-6.33L14.06-6.33Q14.84-5.10 15.63-3.66Q16.41-2.22 17.15-0.79Q17.90 0.64 18.53 1.98Q19.16 3.33 19.60 4.34L19.60 4.34L19.60-6.33L22.71-6.33L22.71 11ZM24.87 4.53L24.87 4.53Q24.87 2.80 25.40 1.48Q25.93 0.16 26.80-0.72Q27.67-1.60 28.79-2.05Q29.91-2.50 31.08-2.50L31.08-2.50Q34.00-2.50 35.51-0.77Q37.02 0.95 37.02 4.25L37.02 4.25Q37.02 4.59 37.01 4.95Q36.99 5.32 36.96 5.54L36.96 5.54L28.42 5.54Q28.42 6.83 29.49 7.57Q30.55 8.31 32.23 8.31L32.23 8.31Q33.27 8.31 34.21 8.09Q35.14 7.86 35.79 7.64L35.79 7.64L36.26 10.58Q35.37 10.89 34.36 11.10Q33.35 11.31 32.09 11.31L32.09 11.31Q30.41 11.31 29.08 10.87Q27.75 10.44 26.81 9.59Q25.88 8.73 25.37 7.47Q24.87 6.21 24.87 4.53ZM28.42 3.16L33.69 3.16Q33.69 2.63 33.55 2.14Q33.41 1.65 33.10 1.26Q32.79 0.86 32.32 0.63Q31.84 0.39 31.14 0.39L31.14 0.39Q30.47 0.39 29.98 0.61Q29.49 0.84 29.17 1.23Q28.84 1.62 28.66 2.12Q28.48 2.63 28.42 3.16L28.42 3.16ZM42.00 6.10L42.00 0.70L39.01 0.70L39.01-2.16L42.00-2.16L42.00-5.46L45.45-6.02L45.45-2.16L50.96-2.16L50.96 0.70L45.45 0.70L45.45 6.02Q45.45 6.74 45.59 7.19Q45.73 7.64 45.98 7.89Q46.23 8.14 46.60 8.23Q46.96 8.31 47.41 8.31L47.41 8.31Q47.88 8.31 48.29 8.28Q48.70 8.26 49.07 8.19Q49.45 8.12 49.86 7.98Q50.26 7.84 50.74 7.61L50.74 7.61L51.22 10.58Q50.26 10.97 49.16 11.14Q48.05 11.31 47.02 11.31L47.02 11.31Q45.81 11.31 44.89 11.11Q43.96 10.92 43.32 10.36Q42.68 9.80 42.34 8.77Q42.00 7.75 42.00 6.10L42.00 6.10ZM64.88 8.14L64.88 11L53.99 11L53.99-6.33L57.46-6.33L57.46 8.14L64.88 8.14ZM79.22 4.39L79.22 4.39Q79.22 5.96 78.77 7.23Q78.32 8.51 77.51 9.43Q76.70 10.36 75.56 10.86Q74.43 11.36 73.03 11.36L73.03 11.36Q71.63 11.36 70.49 10.86Q69.36 10.36 68.53 9.43Q67.71 8.51 67.26 7.23Q66.81 5.96 66.81 4.39L66.81 4.39Q66.81 2.85 67.27 1.58Q67.74 0.30 68.56-0.61Q69.39-1.52 70.54-2.01Q71.68-2.50 73.03-2.50L73.03-2.50Q74.40-2.50 75.53-2.01Q76.67-1.52 77.49-0.61Q78.32 0.30 78.77 1.58Q79.22 2.85 79.22 4.39ZM70.31 4.42L70.31 4.42Q70.31 6.18 70.94 7.28Q71.57 8.37 72.97 8.37L72.97 8.37Q74.32 8.37 75.00 7.28Q75.69 6.18 75.69 4.42L75.69 4.42Q75.69 2.66 75.06 1.58Q74.43 0.50 73.03 0.50L73.03 0.50Q71.68 0.50 71.00 1.58Q70.31 2.66 70.31 4.42ZM84.42 4L84.42 4Q84.42 5.62 85.01 6.48Q85.60 7.33 86.86 7.33L86.86 7.33Q87.42 7.33 87.91 7.19Q88.40 7.05 88.79 6.83L88.79 6.83L88.79 0.50Q88.40 0.42 88.09 0.39Q87.78 0.36 87.45 0.36L87.45 0.36Q84.42 0.36 84.42 4ZM92.26-1.74L92.26 9.40Q92.26 12.62 90.71 14.16Q89.16 15.70 85.71 15.70L85.71 15.70Q84.48 15.70 83.35 15.45Q82.21 15.20 81.18 14.86L81.18 14.86L81.82 11.95Q82.63 12.26 83.53 12.53Q84.42 12.79 85.77 12.79L85.77 12.79Q86.66 12.79 87.25 12.58Q87.84 12.37 88.18 12.01Q88.51 11.64 88.65 11.15Q88.79 10.66 88.79 10.10L88.79 10.10L88.79 9.57Q88.06 9.85 87.46 9.99Q86.86 10.13 86.16 10.13L86.16 10.13Q83.58 10.13 82.25 8.51Q80.92 6.88 80.92 4L80.92 4Q80.92 0.75 82.72-0.84Q84.51-2.44 87.59-2.44L87.59-2.44Q89.74-2.44 92.26-1.74L92.26-1.74ZM107.22 4.39L107.22 4.39Q107.22 5.96 106.77 7.23Q106.32 8.51 105.51 9.43Q104.70 10.36 103.56 10.86Q102.43 11.36 101.03 11.36L101.03 11.36Q99.63 11.36 98.49 10.86Q97.36 10.36 96.53 9.43Q95.71 8.51 95.26 7.23Q94.81 5.96 94.81 4.39L94.81 4.39Q94.81 2.85 95.27 1.58Q95.74 0.30 96.56-0.61Q97.39-1.52 98.54-2.01Q99.68-2.50 101.03-2.50L101.03-2.50Q102.40-2.50 103.53-2.01Q104.67-1.52 105.49-0.61Q106.32 0.30 106.77 1.58Q107.22 2.85 107.22 4.39ZM98.31 4.42L98.31 4.42Q98.31 6.18 98.94 7.28Q99.57 8.37 100.97 8.37L100.97 8.37Q102.32 8.37 103.00 7.28Q103.69 6.18 103.69 4.42L103.69 4.42Q103.69 2.66 103.06 1.58Q102.43 0.50 101.03 0.50L101.03 0.50Q99.68 0.50 99.00 1.58Q98.31 2.66 98.31 4.42Z"/>
    </g>
</svg>