<?xml version="1.0" encoding="UTF-8"?>
<svg height="322" width="235.6" version="1.1" xmlns="http://www.w3.org/2000/svg"><!--Created by Josélio de S. C. Júnior - 2021 - https://github.com/joseliojunior -->
    <rect
        height="32"
        width="233.6"
        rx="1"
        ry="1"
        x="1" y="1"
        fill="#348a34"
        stroke="#0a1a0a"
        stroke-width="1" />
    <g transform="translate(0, 12)">
        <path fill="#0a1a0a" stroke="none" d="M25.57 9.84L25.57 9.84Q26.31 9.84 26.80 9.68Q27.30 9.53 27.58 9.25Q27.87 8.98 27.98 8.63Q28.09 8.28 28.09 7.92L28.09 7.92Q28.09 7.46 27.82 7.10Q27.56 6.74 27.15 6.47Q26.74 6.19 26.24 5.96Q25.74 5.74 25.23 5.54L25.23 5.54Q24.56 5.30 23.84 4.99Q23.12 4.68 22.53 4.20Q21.94 3.72 21.56 3.01Q21.18 2.30 21.18 1.25L21.18 1.25Q21.18-0.84 22.53-2.02Q23.89-3.19 26.26-3.19L26.26-3.19Q27.63-3.19 28.65-2.88Q29.67-2.57 30.37-2.18L30.37-2.18L29.50 0.10Q28.90-0.24 28.17-0.48Q27.44-0.72 26.48-0.72L26.48-0.72Q24.13-0.72 24.13 0.98L24.13 0.98Q24.13 1.42 24.37 1.74Q24.61 2.06 24.98 2.32Q25.35 2.57 25.82 2.76Q26.29 2.95 26.74 3.12L26.74 3.12Q27.44 3.38 28.20 3.71Q28.95 4.03 29.59 4.57Q30.22 5.11 30.63 5.92Q31.04 6.72 31.04 7.94L31.04 7.94Q31.04 10.03 29.68 11.17Q28.33 12.31 25.57 12.31L25.57 12.31Q23.72 12.31 22.62 11.92Q21.51 11.52 20.96 11.18L20.96 11.18L21.82 8.78Q22.47 9.17 23.37 9.50Q24.27 9.84 25.57 9.84ZM37.14-3.02L37.14-3.02Q38.41-3.02 39.44-2.74Q40.47-2.45 41.22-1.85Q41.96-1.25 42.36-0.32Q42.75 0.60 42.75 1.85L42.75 1.85Q42.75 3.14 42.22 4.20Q41.70 5.26 40.47 5.81L40.47 5.81Q40.88 6.43 41.34 7.19Q41.79 7.94 42.22 8.77Q42.66 9.60 43.05 10.43Q43.45 11.26 43.74 12L43.74 12L40.64 12Q40.09 10.56 39.36 9.23Q38.62 7.90 37.78 6.53L37.78 6.53L36.25 6.53L36.25 12L33.30 12L33.30-2.64Q33.73-2.74 34.24-2.82Q34.76-2.90 35.29-2.94Q35.82-2.98 36.30-3Q36.78-3.02 37.14-3.02ZM39.75 1.82L39.75 1.82Q39.75 0.65 39.03 0.10Q38.31-0.46 37.14-0.46L37.14-0.46Q36.97-0.46 36.73-0.44Q36.49-0.43 36.25-0.38L36.25-0.38L36.25 4.08L36.90 4.08Q38.41 4.08 39.08 3.49Q39.75 2.90 39.75 1.82ZM44.74 6.46L44.74 6.46Q44.74 4.97 45.20 3.84Q45.66 2.71 46.40 1.96Q47.14 1.20 48.10 0.82Q49.06 0.43 50.07 0.43L50.07 0.43Q52.57 0.43 53.86 1.91Q55.16 3.38 55.16 6.22L55.16 6.22Q55.16 6.50 55.15 6.82Q55.14 7.13 55.11 7.32L55.11 7.32L47.79 7.32Q47.79 8.42 48.70 9.06Q49.62 9.70 51.06 9.70L51.06 9.70Q51.94 9.70 52.75 9.50Q53.55 9.31 54.10 9.12L54.10 9.12L54.51 11.64Q53.74 11.90 52.88 12.08Q52.02 12.26 50.94 12.26L50.94 12.26Q49.50 12.26 48.36 11.89Q47.22 11.52 46.41 10.79Q45.61 10.06 45.18 8.98Q44.74 7.90 44.74 6.46ZM47.79 5.28L52.30 5.28Q52.30 4.82 52.18 4.40Q52.06 3.98 51.80 3.65Q51.54 3.31 51.13 3.11Q50.72 2.90 50.12 2.90L50.12 2.90Q49.54 2.90 49.12 3.10Q48.70 3.29 48.43 3.62Q48.15 3.96 48.00 4.39Q47.84 4.82 47.79 5.28L47.79 5.28ZM57.06 6.36L57.06 6.36Q57.06 5.14 57.44 4.06Q57.82 2.98 58.62 2.17Q59.41 1.37 60.62 0.90Q61.83 0.43 63.51 0.43L63.51 0.43Q64.52 0.43 65.34 0.58Q66.15 0.72 66.99 1.06L66.99 1.06L66.34 3.43Q65.86 3.26 65.28 3.13Q64.69 3 63.78 3L63.78 3Q62.72 3 62.01 3.25Q61.30 3.50 60.87 3.95Q60.44 4.39 60.25 5.02Q60.06 5.64 60.06 6.36L60.06 6.36Q60.06 7.92 60.93 8.81Q61.81 9.70 63.92 9.70L63.92 9.70Q64.62 9.70 65.37 9.60Q66.13 9.50 66.75 9.29L66.75 9.29L67.18 11.71Q66.56 11.95 65.67 12.11Q64.78 12.26 63.58 12.26L63.58 12.26Q61.86 12.26 60.62 11.81Q59.38 11.35 58.59 10.56Q57.80 9.77 57.43 8.69Q57.06 7.61 57.06 6.36ZM79.33 6.34L79.33 6.34Q79.33 7.68 78.94 8.77Q78.56 9.86 77.86 10.66Q77.17 11.45 76.20 11.88Q75.22 12.31 74.02 12.31L74.02 12.31Q72.82 12.31 71.85 11.88Q70.88 11.45 70.17 10.66Q69.46 9.86 69.08 8.77Q68.70 7.68 68.70 6.34L68.70 6.34Q68.70 5.02 69.09 3.92Q69.49 2.83 70.20 2.05Q70.90 1.27 71.89 0.85Q72.87 0.43 74.02 0.43L74.02 0.43Q75.20 0.43 76.17 0.85Q77.14 1.27 77.85 2.05Q78.56 2.83 78.94 3.92Q79.33 5.02 79.33 6.34ZM71.70 6.36L71.70 6.36Q71.70 7.87 72.24 8.81Q72.78 9.74 73.98 9.74L73.98 9.74Q75.13 9.74 75.72 8.81Q76.30 7.87 76.30 6.36L76.30 6.36Q76.30 4.85 75.76 3.92Q75.22 3 74.02 3L74.02 3Q72.87 3 72.28 3.92Q71.70 4.85 71.70 6.36ZM83.67 6.29L83.67 6.29Q83.67 7.80 84.24 8.76Q84.80 9.72 86.05 9.72L86.05 9.72Q86.41 9.72 86.72 9.70Q87.03 9.67 87.37 9.62L87.37 9.62L87.37 3.48Q87.03 3.29 86.60 3.16Q86.17 3.02 85.69 3.02L85.69 3.02Q84.63 3.02 84.15 3.86Q83.67 4.70 83.67 6.29ZM90.32-4.66L90.32 11.66Q89.50 11.93 88.33 12.10Q87.15 12.26 86.02 12.26L86.02 12.26Q83.38 12.26 82.03 10.70Q80.67 9.14 80.67 6.43L80.67 6.43Q80.67 3.67 81.81 2.08Q82.95 0.48 85.18 0.48L85.18 0.48Q85.78 0.48 86.36 0.61Q86.94 0.74 87.37 0.98L87.37 0.98L87.37-4.15L90.32-4.66ZM92.74 6.46L92.74 6.46Q92.74 4.97 93.20 3.84Q93.66 2.71 94.40 1.96Q95.14 1.20 96.10 0.82Q97.06 0.43 98.07 0.43L98.07 0.43Q100.57 0.43 101.86 1.91Q103.16 3.38 103.16 6.22L103.16 6.22Q103.16 6.50 103.15 6.82Q103.14 7.13 103.11 7.32L103.11 7.32L95.79 7.32Q95.79 8.42 96.70 9.06Q97.62 9.70 99.06 9.70L99.06 9.70Q99.94 9.70 100.75 9.50Q101.55 9.31 102.10 9.12L102.10 9.12L102.51 11.64Q101.74 11.90 100.88 12.08Q100.02 12.26 98.94 12.26L98.94 12.26Q97.50 12.26 96.36 11.89Q95.22 11.52 94.41 10.79Q93.61 10.06 93.18 8.98Q92.74 7.90 92.74 6.46ZM95.79 5.28L100.30 5.28Q100.30 4.82 100.18 4.40Q100.06 3.98 99.80 3.65Q99.54 3.31 99.13 3.11Q98.72 2.90 98.12 2.90L98.12 2.90Q97.54 2.90 97.12 3.10Q96.70 3.29 96.43 3.62Q96.15 3.96 96.00 4.39Q95.84 4.82 95.79 5.28L95.79 5.28ZM116.60-2.86L127.40-2.86L127.40-0.41L123.49-0.41L123.49 12L120.51 12L120.51-0.41L116.60-0.41L116.60-2.86ZM128.74 6.46L128.74 6.46Q128.74 4.97 129.20 3.84Q129.66 2.71 130.40 1.96Q131.14 1.20 132.10 0.82Q133.06 0.43 134.07 0.43L134.07 0.43Q136.57 0.43 137.86 1.91Q139.16 3.38 139.16 6.22L139.16 6.22Q139.16 6.50 139.15 6.82Q139.14 7.13 139.11 7.32L139.11 7.32L131.79 7.32Q131.79 8.42 132.70 9.06Q133.62 9.70 135.06 9.70L135.06 9.70Q135.94 9.70 136.75 9.50Q137.55 9.31 138.10 9.12L138.10 9.12L138.51 11.64Q137.74 11.90 136.88 12.08Q136.02 12.26 134.94 12.26L134.94 12.26Q133.50 12.26 132.36 11.89Q131.22 11.52 130.41 10.79Q129.61 10.06 129.18 8.98Q128.74 7.90 128.74 6.46ZM131.79 5.28L136.30 5.28Q136.30 4.82 136.18 4.40Q136.06 3.98 135.80 3.65Q135.54 3.31 135.13 3.11Q134.72 2.90 134.12 2.90L134.12 2.90Q133.54 2.90 133.12 3.10Q132.70 3.29 132.43 3.62Q132.15 3.96 132.00 4.39Q131.84 4.82 131.79 5.28L131.79 5.28ZM148.23 0.60L148.23 0.60Q149.17 0.60 149.77 0.89Q150.37 1.18 150.72 1.75Q151.06 2.33 151.18 3.20Q151.30 4.08 151.30 5.26L151.30 5.26L151.30 12L148.90 12L148.90 5.11Q148.90 4.44 148.82 4.03Q148.74 3.62 148.60 3.41Q148.47 3.19 148.29 3.12Q148.11 3.05 147.92 3.05L147.92 3.05Q147.70 3.05 147.46 3.08Q147.22 3.12 147.03 3.22L147.03 3.22Q147.10 3.67 147.15 4.22Q147.20 4.78 147.20 5.45L147.20 5.45L147.20 7.70L144.80 7.70L144.80 5.11Q144.80 3.96 144.57 3.50Q144.34 3.05 143.84 3.05L143.84 3.05Q143.70 3.05 143.49 3.07Q143.29 3.10 143.10 3.14L143.10 3.14L143.10 12L140.70 12L140.70 1.15Q141.63 0.89 142.54 0.74Q143.46 0.60 144.15 0.60L144.15 0.60Q144.78 0.60 145.27 0.76Q145.76 0.91 146.12 1.27L146.12 1.27Q146.53 1.01 147.08 0.80Q147.63 0.60 148.23 0.60ZM160.26 6.46L160.26 6.46Q160.26 4.94 159.66 3.97Q159.06 3 157.83 3L157.83 3Q157.50 3 157.11 3.04Q156.73 3.07 156.46 3.10L156.46 3.10L156.46 9.29Q156.75 9.48 157.23 9.60Q157.71 9.72 158.19 9.72L158.19 9.72Q159.25 9.72 159.75 8.87Q160.26 8.02 160.26 6.46ZM163.26 6.36L163.26 6.36Q163.26 7.66 162.97 8.75Q162.68 9.84 162.13 10.62Q161.58 11.40 160.74 11.83Q159.90 12.26 158.79 12.26L158.79 12.26Q157.66 12.26 156.46 11.71L156.46 11.71L156.46 15.96L153.51 15.96L153.51 1.08Q154.33 0.82 155.52 0.65Q156.70 0.48 157.86 0.48L157.86 0.48Q160.47 0.48 161.86 2.06Q163.26 3.65 163.26 6.36ZM174.82 9.14L175.21 11.52Q175.14 11.57 174.88 11.69Q174.63 11.81 174.22 11.94Q173.82 12.07 173.23 12.17Q172.64 12.26 171.90 12.26L171.90 12.26Q169.86 12.26 168.92 11.05Q167.98 9.84 167.98 7.51L167.98 7.51L167.98-2.06L164.86-2.06L164.86-4.51L170.94-4.51L170.94 7.73Q170.94 8.88 171.39 9.29Q171.85 9.70 172.54 9.70L172.54 9.70Q173.43 9.70 174.03 9.46Q174.63 9.22 174.82 9.14L174.82 9.14ZM182.02 9.89L182.02 9.89Q182.50 9.89 182.96 9.88Q183.42 9.86 183.75 9.82L183.75 9.82L183.75 7.22Q183.46 7.18 183.06 7.14Q182.65 7.10 182.31 7.10L182.31 7.10Q181.86 7.10 181.42 7.16Q180.99 7.22 180.67 7.37Q180.34 7.51 180.15 7.78Q179.96 8.04 179.96 8.47L179.96 8.47Q179.96 9.24 180.54 9.56Q181.11 9.89 182.02 9.89ZM181.76 0.43L181.76 0.43Q183.15 0.43 184.08 0.76Q185 1.08 185.55 1.67Q186.10 2.26 186.34 3.11Q186.58 3.96 186.58 5.02L186.58 5.02L186.58 11.74Q185.94 11.88 184.66 12.07Q183.39 12.26 181.81 12.26L181.81 12.26Q180.73 12.26 179.85 12.07Q178.98 11.88 178.35 11.44Q177.73 10.99 177.39 10.28Q177.06 9.58 177.06 8.54L177.06 8.54Q177.06 7.56 177.44 6.89Q177.82 6.22 178.47 5.81Q179.12 5.40 179.96 5.22Q180.80 5.04 181.71 5.04L181.71 5.04Q182.86 5.04 183.75 5.23L183.75 5.23L183.75 4.87Q183.75 4.03 183.22 3.47Q182.70 2.90 181.40 2.90L181.40 2.90Q180.56 2.90 179.78 3.02Q179 3.14 178.52 3.31L178.52 3.31L178.11 0.94Q178.66 0.74 179.67 0.59Q180.68 0.43 181.76 0.43ZM191.43 7.80L191.43 3.17L188.86 3.17L188.86 0.72L191.43 0.72L191.43-2.11L194.38-2.59L194.38 0.72L199.11 0.72L199.11 3.17L194.38 3.17L194.38 7.73Q194.38 8.35 194.50 8.74Q194.62 9.12 194.84 9.34Q195.06 9.55 195.37 9.62Q195.68 9.70 196.06 9.70L196.06 9.70Q196.47 9.70 196.82 9.67Q197.17 9.65 197.49 9.59Q197.82 9.53 198.16 9.41Q198.51 9.29 198.92 9.10L198.92 9.10L199.33 11.64Q198.51 11.98 197.56 12.12Q196.62 12.26 195.73 12.26L195.73 12.26Q194.70 12.26 193.90 12.10Q193.11 11.93 192.56 11.45Q192.01 10.97 191.72 10.09Q191.43 9.22 191.43 7.80L191.43 7.80ZM200.74 6.46L200.74 6.46Q200.74 4.97 201.20 3.84Q201.66 2.71 202.40 1.96Q203.14 1.20 204.10 0.82Q205.06 0.43 206.07 0.43L206.07 0.43Q208.57 0.43 209.86 1.91Q211.16 3.38 211.16 6.22L211.16 6.22Q211.16 6.50 211.15 6.82Q211.14 7.13 211.11 7.32L211.11 7.32L203.79 7.32Q203.79 8.42 204.70 9.06Q205.62 9.70 207.06 9.70L207.06 9.70Q207.94 9.70 208.75 9.50Q209.55 9.31 210.10 9.12L210.10 9.12L210.51 11.64Q209.74 11.90 208.88 12.08Q208.02 12.26 206.94 12.26L206.94 12.26Q205.50 12.26 204.36 11.89Q203.22 11.52 202.41 10.79Q201.61 10.06 201.18 8.98Q200.74 7.90 200.74 6.46ZM203.79 5.28L208.30 5.28Q208.30 4.82 208.18 4.40Q208.06 3.98 207.80 3.65Q207.54 3.31 207.13 3.11Q206.72 2.90 206.12 2.90L206.12 2.90Q205.54 2.90 205.12 3.10Q204.70 3.29 204.43 3.62Q204.15 3.96 204.00 4.39Q203.84 4.82 203.79 5.28L203.79 5.28Z"/>
    </g>
</svg>