<?xml version="1.0" encoding="UTF-8"?>
<svg height="26" width="171.6" version="1.1" xmlns="http://www.w3.org/2000/svg"><!--Created by Josélio de S. C. Júnior - 2021 - https://github.com/joseliojunior -->
    <rect
        height="24"
        width="169.6"
        rx="1"
        ry="1"
        x="1" y="1"
        fill="#348a34"
        stroke="#0a1a0a"
        stroke-width="1" />
    <g transform="translate(0, 8)">
        <path fill="#0a1a0a" stroke="none" d="M23.71 8.56L23.71 8.56Q24.21 8.56 24.54 8.46Q24.86 8.35 25.06 8.17Q25.25 7.98 25.32 7.75Q25.39 7.52 25.39 7.28L25.39 7.28Q25.39 6.98 25.22 6.74Q25.04 6.50 24.77 6.31Q24.50 6.13 24.16 5.98Q23.82 5.82 23.49 5.70L23.49 5.70Q23.04 5.54 22.56 5.33Q22.08 5.12 21.69 4.80Q21.30 4.48 21.04 4.01Q20.78 3.54 20.78 2.83L20.78 2.83Q20.78 1.44 21.69 0.66Q22.59-0.13 24.18-0.13L24.18-0.13Q25.09-0.13 25.77 0.08Q26.45 0.29 26.91 0.54L26.91 0.54L26.34 2.06Q25.94 1.84 25.45 1.68Q24.96 1.52 24.32 1.52L24.32 1.52Q22.75 1.52 22.75 2.66L22.75 2.66Q22.75 2.94 22.91 3.16Q23.07 3.38 23.32 3.54Q23.57 3.71 23.88 3.84Q24.19 3.97 24.50 4.08L24.50 4.08Q24.96 4.26 25.46 4.47Q25.97 4.69 26.39 5.05Q26.82 5.41 27.09 5.94Q27.36 6.48 27.36 7.30L27.36 7.30Q27.36 8.69 26.46 9.45Q25.55 10.21 23.71 10.21L23.71 10.21Q22.48 10.21 21.74 9.94Q21.01 9.68 20.64 9.46L20.64 9.46L21.22 7.86Q21.65 8.11 22.25 8.34Q22.85 8.56 23.71 8.56ZM31.42-0.02L31.42-0.02Q32.27-0.02 32.96 0.18Q33.65 0.37 34.14 0.77Q34.64 1.17 34.90 1.78Q35.17 2.40 35.17 3.23L35.17 3.23Q35.17 4.10 34.82 4.80Q34.46 5.50 33.65 5.87L33.65 5.87Q33.92 6.29 34.22 6.79Q34.53 7.30 34.82 7.85Q35.10 8.40 35.37 8.95Q35.63 9.50 35.82 10L35.82 10L33.76 10Q33.39 9.04 32.90 8.15Q32.42 7.26 31.86 6.35L31.86 6.35L30.83 6.35L30.83 10L28.86 10L28.86 0.24Q29.15 0.18 29.50 0.12Q29.84 0.06 30.19 0.04Q30.54 0.02 30.86 0Q31.18-0.02 31.42-0.02ZM33.17 3.22L33.17 3.22Q33.17 2.43 32.69 2.06Q32.21 1.70 31.42 1.70L31.42 1.70Q31.31 1.70 31.15 1.70Q30.99 1.71 30.83 1.74L30.83 1.74L30.83 4.72L31.26 4.72Q32.27 4.72 32.72 4.33Q33.17 3.94 33.17 3.22ZM36.50 6.30L36.50 6.30Q36.50 5.31 36.80 4.56Q37.10 3.81 37.60 3.30Q38.10 2.80 38.74 2.54Q39.38 2.29 40.05 2.29L40.05 2.29Q41.71 2.29 42.58 3.27Q43.44 4.26 43.44 6.14L43.44 6.14Q43.44 6.34 43.43 6.54Q43.42 6.75 43.41 6.88L43.41 6.88L38.53 6.88Q38.53 7.62 39.14 8.04Q39.74 8.46 40.70 8.46L40.70 8.46Q41.30 8.46 41.83 8.34Q42.37 8.21 42.74 8.08L42.74 8.08L43.01 9.76Q42.50 9.94 41.92 10.06Q41.34 10.18 40.62 10.18L40.62 10.18Q39.66 10.18 38.90 9.93Q38.14 9.68 37.61 9.19Q37.07 8.70 36.78 7.98Q36.50 7.26 36.50 6.30ZM38.53 5.52L41.54 5.52Q41.54 5.22 41.46 4.94Q41.38 4.66 41.20 4.43Q41.02 4.21 40.75 4.07Q40.48 3.94 40.08 3.94L40.08 3.94Q39.70 3.94 39.42 4.06Q39.14 4.19 38.95 4.42Q38.77 4.64 38.66 4.93Q38.56 5.22 38.53 5.52L38.53 5.52ZM44.70 6.24L44.70 6.24Q44.70 5.42 44.96 4.70Q45.22 3.98 45.74 3.45Q46.27 2.91 47.08 2.60Q47.89 2.29 49.01 2.29L49.01 2.29Q49.68 2.29 50.22 2.38Q50.77 2.48 51.33 2.70L51.33 2.70L50.90 4.29Q50.58 4.18 50.18 4.09Q49.79 4 49.18 4L49.18 4Q48.48 4 48.01 4.17Q47.54 4.34 47.25 4.63Q46.96 4.93 46.83 5.34Q46.70 5.76 46.70 6.24L46.70 6.24Q46.70 7.28 47.29 7.87Q47.87 8.46 49.28 8.46L49.28 8.46Q49.74 8.46 50.25 8.40Q50.75 8.34 51.17 8.19L51.17 8.19L51.46 9.81Q51.04 9.97 50.45 10.07Q49.86 10.18 49.06 10.18L49.06 10.18Q47.90 10.18 47.08 9.87Q46.26 9.57 45.73 9.04Q45.20 8.51 44.95 7.79Q44.70 7.07 44.70 6.24ZM59.55 6.22L59.55 6.22Q59.55 7.12 59.30 7.85Q59.04 8.58 58.58 9.10Q58.11 9.63 57.46 9.92Q56.82 10.21 56.02 10.21L56.02 10.21Q55.22 10.21 54.57 9.92Q53.92 9.63 53.45 9.10Q52.98 8.58 52.72 7.85Q52.46 7.12 52.46 6.22L52.46 6.22Q52.46 5.34 52.73 4.62Q52.99 3.89 53.46 3.37Q53.94 2.85 54.59 2.57Q55.25 2.29 56.02 2.29L56.02 2.29Q56.80 2.29 57.45 2.57Q58.10 2.85 58.57 3.37Q59.04 3.89 59.30 4.62Q59.55 5.34 59.55 6.22ZM54.46 6.24L54.46 6.24Q54.46 7.25 54.82 7.87Q55.18 8.50 55.98 8.50L55.98 8.50Q56.75 8.50 57.14 7.87Q57.54 7.25 57.54 6.24L57.54 6.24Q57.54 5.23 57.18 4.62Q56.82 4 56.02 4L56.02 4Q55.25 4 54.86 4.62Q54.46 5.23 54.46 6.24ZM62.45 6.19L62.45 6.19Q62.45 7.20 62.82 7.84Q63.20 8.48 64.03 8.48L64.03 8.48Q64.27 8.48 64.48 8.46Q64.69 8.45 64.91 8.42L64.91 8.42L64.91 4.32Q64.69 4.19 64.40 4.10Q64.11 4.02 63.79 4.02L63.79 4.02Q63.09 4.02 62.77 4.58Q62.45 5.14 62.45 6.19ZM66.88-1.10L66.88 9.78Q66.34 9.95 65.55 10.06Q64.77 10.18 64.02 10.18L64.02 10.18Q62.26 10.18 61.35 9.14Q60.45 8.10 60.45 6.29L60.45 6.29Q60.45 4.45 61.21 3.38Q61.97 2.32 63.46 2.32L63.46 2.32Q63.86 2.32 64.24 2.41Q64.62 2.50 64.91 2.66L64.91 2.66L64.91-0.77L66.88-1.10ZM68.50 6.30L68.50 6.30Q68.50 5.31 68.80 4.56Q69.10 3.81 69.60 3.30Q70.10 2.80 70.74 2.54Q71.38 2.29 72.05 2.29L72.05 2.29Q73.71 2.29 74.58 3.27Q75.44 4.26 75.44 6.14L75.44 6.14Q75.44 6.34 75.43 6.54Q75.42 6.75 75.41 6.88L75.41 6.88L70.53 6.88Q70.53 7.62 71.14 8.04Q71.74 8.46 72.70 8.46L72.70 8.46Q73.30 8.46 73.83 8.34Q74.37 8.21 74.74 8.08L74.74 8.08L75.01 9.76Q74.50 9.94 73.92 10.06Q73.34 10.18 72.62 10.18L72.62 10.18Q71.66 10.18 70.90 9.93Q70.14 9.68 69.61 9.19Q69.07 8.70 68.78 7.98Q68.50 7.26 68.50 6.30ZM70.53 5.52L73.54 5.52Q73.54 5.22 73.46 4.94Q73.38 4.66 73.20 4.43Q73.02 4.21 72.75 4.07Q72.48 3.94 72.08 3.94L72.08 3.94Q71.70 3.94 71.42 4.06Q71.14 4.19 70.95 4.42Q70.77 4.64 70.66 4.93Q70.56 5.22 70.53 5.52L70.53 5.52ZM84.40 0.10L91.60 0.10L91.60 1.73L88.99 1.73L88.99 10L87.01 10L87.01 1.73L84.40 1.73L84.40 0.10ZM92.50 6.30L92.50 6.30Q92.50 5.31 92.80 4.56Q93.10 3.81 93.60 3.30Q94.10 2.80 94.74 2.54Q95.38 2.29 96.05 2.29L96.05 2.29Q97.71 2.29 98.58 3.27Q99.44 4.26 99.44 6.14L99.44 6.14Q99.44 6.34 99.43 6.54Q99.42 6.75 99.41 6.88L99.41 6.88L94.53 6.88Q94.53 7.62 95.14 8.04Q95.74 8.46 96.70 8.46L96.70 8.46Q97.30 8.46 97.83 8.34Q98.37 8.21 98.74 8.08L98.74 8.08L99.01 9.76Q98.50 9.94 97.92 10.06Q97.34 10.18 96.62 10.18L96.62 10.18Q95.66 10.18 94.90 9.93Q94.14 9.68 93.61 9.19Q93.07 8.70 92.78 7.98Q92.50 7.26 92.50 6.30ZM94.53 5.52L97.54 5.52Q97.54 5.22 97.46 4.94Q97.38 4.66 97.20 4.43Q97.02 4.21 96.75 4.07Q96.48 3.94 96.08 3.94L96.08 3.94Q95.70 3.94 95.42 4.06Q95.14 4.19 94.95 4.42Q94.77 4.64 94.66 4.93Q94.56 5.22 94.53 5.52L94.53 5.52ZM105.49 2.40L105.49 2.40Q106.11 2.40 106.51 2.59Q106.91 2.78 107.14 3.17Q107.38 3.55 107.46 4.14Q107.54 4.72 107.54 5.50L107.54 5.50L107.54 10L105.94 10L105.94 5.41Q105.94 4.96 105.88 4.69Q105.82 4.42 105.74 4.27Q105.65 4.13 105.53 4.08Q105.41 4.03 105.28 4.03L105.28 4.03Q105.14 4.03 104.98 4.06Q104.82 4.08 104.69 4.14L104.69 4.14Q104.74 4.45 104.77 4.82Q104.80 5.18 104.80 5.63L104.80 5.63L104.80 7.14L103.20 7.14L103.20 5.41Q103.20 4.64 103.05 4.34Q102.90 4.03 102.56 4.03L102.56 4.03Q102.46 4.03 102.33 4.05Q102.19 4.06 102.06 4.10L102.06 4.10L102.06 10L100.46 10L100.46 2.77Q101.09 2.59 101.70 2.50Q102.30 2.40 102.77 2.40L102.77 2.40Q103.18 2.40 103.51 2.50Q103.84 2.61 104.08 2.85L104.08 2.85Q104.35 2.67 104.72 2.54Q105.09 2.40 105.49 2.40ZM113.50 6.30L113.50 6.30Q113.50 5.30 113.10 4.65Q112.70 4 111.89 4L111.89 4Q111.66 4 111.41 4.02Q111.15 4.05 110.98 4.06L110.98 4.06L110.98 8.19Q111.17 8.32 111.49 8.40Q111.81 8.48 112.13 8.48L112.13 8.48Q112.83 8.48 113.17 7.91Q113.50 7.34 113.50 6.30ZM115.50 6.24L115.50 6.24Q115.50 7.10 115.31 7.83Q115.12 8.56 114.75 9.08Q114.38 9.60 113.82 9.89Q113.26 10.18 112.53 10.18L112.53 10.18Q111.78 10.18 110.98 9.81L110.98 9.81L110.98 12.64L109.01 12.64L109.01 2.72Q109.55 2.54 110.34 2.43Q111.14 2.32 111.90 2.32L111.90 2.32Q113.65 2.32 114.58 3.38Q115.50 4.43 115.50 6.24ZM123.22 8.10L123.47 9.68Q123.42 9.71 123.26 9.79Q123.09 9.87 122.82 9.96Q122.54 10.05 122.15 10.11Q121.76 10.18 121.26 10.18L121.26 10.18Q119.90 10.18 119.28 9.37Q118.66 8.56 118.66 7.01L118.66 7.01L118.66 0.62L116.58 0.62L116.58-1.01L120.62-1.01L120.62 7.15Q120.62 7.92 120.93 8.19Q121.23 8.46 121.70 8.46L121.70 8.46Q122.29 8.46 122.69 8.30Q123.09 8.14 123.22 8.10L123.22 8.10ZM128.02 8.59L128.02 8.59Q128.34 8.59 128.64 8.58Q128.94 8.58 129.17 8.54L129.17 8.54L129.17 6.82Q128.98 6.78 128.70 6.76Q128.43 6.74 128.21 6.74L128.21 6.74Q127.90 6.74 127.62 6.78Q127.33 6.82 127.11 6.91Q126.90 7.01 126.77 7.18Q126.64 7.36 126.64 7.65L126.64 7.65Q126.64 8.16 127.02 8.38Q127.41 8.59 128.02 8.59ZM127.84 2.29L127.84 2.29Q128.77 2.29 129.38 2.50Q130 2.72 130.37 3.11Q130.74 3.50 130.90 4.07Q131.06 4.64 131.06 5.34L131.06 5.34L131.06 9.82Q130.62 9.92 129.78 10.05Q128.93 10.18 127.87 10.18L127.87 10.18Q127.15 10.18 126.57 10.05Q125.98 9.92 125.57 9.62Q125.15 9.33 124.93 8.86Q124.70 8.38 124.70 7.70L124.70 7.70Q124.70 7.04 124.96 6.59Q125.22 6.14 125.65 5.87Q126.08 5.60 126.64 5.48Q127.20 5.36 127.81 5.36L127.81 5.36Q128.58 5.36 129.17 5.49L129.17 5.49L129.17 5.25Q129.17 4.69 128.82 4.31Q128.46 3.94 127.60 3.94L127.60 3.94Q127.04 3.94 126.52 4.02Q126 4.10 125.68 4.21L125.68 4.21L125.41 2.62Q125.78 2.50 126.45 2.39Q127.12 2.29 127.84 2.29ZM134.29 7.20L134.29 4.11L132.58 4.11L132.58 2.48L134.29 2.48L134.29 0.59L136.26 0.27L136.26 2.48L139.41 2.48L139.41 4.11L136.26 4.11L136.26 7.15Q136.26 7.57 136.34 7.82Q136.42 8.08 136.56 8.22Q136.70 8.37 136.91 8.42Q137.12 8.46 137.38 8.46L137.38 8.46Q137.65 8.46 137.88 8.45Q138.11 8.43 138.33 8.39Q138.54 8.35 138.78 8.27Q139.01 8.19 139.28 8.06L139.28 8.06L139.55 9.76Q139.01 9.98 138.38 10.08Q137.74 10.18 137.15 10.18L137.15 10.18Q136.46 10.18 135.94 10.06Q135.41 9.95 135.04 9.63Q134.67 9.31 134.48 8.73Q134.29 8.14 134.29 7.20L134.29 7.20ZM140.50 6.30L140.50 6.30Q140.50 5.31 140.80 4.56Q141.10 3.81 141.60 3.30Q142.10 2.80 142.74 2.54Q143.38 2.29 144.05 2.29L144.05 2.29Q145.71 2.29 146.58 3.27Q147.44 4.26 147.44 6.14L147.44 6.14Q147.44 6.34 147.43 6.54Q147.42 6.75 147.41 6.88L147.41 6.88L142.53 6.88Q142.53 7.62 143.14 8.04Q143.74 8.46 144.70 8.46L144.70 8.46Q145.30 8.46 145.83 8.34Q146.37 8.21 146.74 8.08L146.74 8.08L147.01 9.76Q146.50 9.94 145.92 10.06Q145.34 10.18 144.62 10.18L144.62 10.18Q143.66 10.18 142.90 9.93Q142.14 9.68 141.61 9.19Q141.07 8.70 140.78 7.98Q140.50 7.26 140.50 6.30ZM142.53 5.52L145.54 5.52Q145.54 5.22 145.46 4.94Q145.38 4.66 145.20 4.43Q145.02 4.21 144.75 4.07Q144.48 3.94 144.08 3.94L144.08 3.94Q143.70 3.94 143.42 4.06Q143.14 4.19 142.95 4.42Q142.77 4.64 142.66 4.93Q142.56 5.22 142.53 5.52L142.53 5.52Z"/>
    </g>
</svg>