<?xml version="1.0" encoding="UTF-8"?>
<svg height="34" width="163" version="1.1" xmlns="http://www.w3.org/2000/svg">
    <rect
        height="32"
        width="161"
        rx="14"
        ry="14"
        x="1"
        y="1"
        fill="#A0AA87"
        stroke="#525a3f"
        stroke-width="1"
         />
    <g transform="translate(0, 14)">
        <path fill="#525a3f" d="M10.70-6.33L23.30-6.33L23.30-3.48L18.74-3.48L18.74 11L15.26 11L15.26-3.48L10.70-3.48L10.70-6.33ZM36.52 11L25.51 11L25.51 8.14L29.29 8.14L29.29-3.48L25.51-3.48L25.51-6.33L36.52-6.33L36.52-3.48L32.76-3.48L32.76 8.14L36.52 8.14L36.52 11ZM58.27-6.53L58.27-6.53Q61.58-6.53 63.40-5.17Q65.22-3.81 65.22-0.73L65.22-0.73Q65.22 2.38 63.38 3.76Q61.55 5.15 58.19 5.15L58.19 5.15L56.96 5.15L56.96 11L53.51 11L53.51-6.11Q54.02-6.22 54.65-6.30Q55.28-6.39 55.92-6.43Q56.56-6.47 57.18-6.50Q57.80-6.53 58.27-6.53ZM58.66-3.53L58.66-3.53Q58.36-3.53 57.81-3.52Q57.26-3.50 56.96-3.45L56.96-3.45L56.96 2.15L58.36 2.15Q60.01 2.15 60.85 1.49Q61.69 0.84 61.69-0.76L61.69-0.76Q61.69-2.27 60.86-2.90Q60.04-3.53 58.66-3.53ZM78.85-1.85L78.24 1.34Q77.90 1.26 77.44 1.17Q76.98 1.09 76.50 1.02Q76.02 0.95 75.58 0.92Q75.13 0.89 74.82 0.89L74.82 0.89Q74.09 0.89 73.39 0.96Q72.69 1.03 71.96 1.23L71.96 1.23L71.96 11L68.49 11L68.49-1.29Q69.86-1.80 71.31-2.10Q72.75-2.41 74.68-2.41L74.68-2.41Q74.96-2.41 75.48-2.38Q76.00-2.36 76.58-2.29Q77.17-2.22 77.77-2.12Q78.38-2.02 78.85-1.85L78.85-1.85ZM93.22 4.39L93.22 4.39Q93.22 5.96 92.77 7.23Q92.32 8.51 91.51 9.43Q90.70 10.36 89.56 10.86Q88.43 11.36 87.03 11.36L87.03 11.36Q85.63 11.36 84.49 10.86Q83.36 10.36 82.53 9.43Q81.71 8.51 81.26 7.23Q80.81 5.96 80.81 4.39L80.81 4.39Q80.81 2.85 81.27 1.58Q81.74 0.30 82.56-0.61Q83.39-1.52 84.54-2.01Q85.68-2.50 87.03-2.50L87.03-2.50Q88.40-2.50 89.53-2.01Q90.67-1.52 91.49-0.61Q92.32 0.30 92.77 1.58Q93.22 2.85 93.22 4.39ZM84.31 4.42L84.31 4.42Q84.31 6.18 84.94 7.28Q85.57 8.37 86.97 8.37L86.97 8.37Q88.32 8.37 89.00 7.28Q89.69 6.18 89.69 4.42L89.69 4.42Q89.69 2.66 89.06 1.58Q88.43 0.50 87.03 0.50L87.03 0.50Q85.68 0.50 85.00 1.58Q84.31 2.66 84.31 4.42ZM98.42 4L98.42 4Q98.42 5.62 99.01 6.48Q99.60 7.33 100.86 7.33L100.86 7.33Q101.42 7.33 101.91 7.19Q102.40 7.05 102.79 6.83L102.79 6.83L102.79 0.50Q102.40 0.42 102.09 0.39Q101.78 0.36 101.45 0.36L101.45 0.36Q98.42 0.36 98.42 4ZM106.26-1.74L106.26 9.40Q106.26 12.62 104.71 14.16Q103.16 15.70 99.71 15.70L99.71 15.70Q98.48 15.70 97.35 15.45Q96.21 15.20 95.18 14.86L95.18 14.86L95.82 11.95Q96.63 12.26 97.53 12.53Q98.42 12.79 99.77 12.79L99.77 12.79Q100.66 12.79 101.25 12.58Q101.84 12.37 102.18 12.01Q102.51 11.64 102.65 11.15Q102.79 10.66 102.79 10.10L102.79 10.10L102.79 9.57Q102.06 9.85 101.46 9.99Q100.86 10.13 100.16 10.13L100.16 10.13Q97.58 10.13 96.25 8.51Q94.92 6.88 94.92 4L94.92 4Q94.92 0.75 96.72-0.84Q98.51-2.44 101.59-2.44L101.59-2.44Q103.74-2.44 106.26-1.74L106.26-1.74ZM120.85-1.85L120.24 1.34Q119.90 1.26 119.44 1.17Q118.98 1.09 118.50 1.02Q118.02 0.95 117.58 0.92Q117.13 0.89 116.82 0.89L116.82 0.89Q116.09 0.89 115.39 0.96Q114.69 1.03 113.96 1.23L113.96 1.23L113.96 11L110.49 11L110.49-1.29Q111.86-1.80 113.31-2.10Q114.75-2.41 116.68-2.41L116.68-2.41Q116.96-2.41 117.48-2.38Q118.00-2.36 118.58-2.29Q119.17-2.22 119.77-2.12Q120.38-2.02 120.85-1.85L120.85-1.85ZM129.03 8.54L129.03 8.54Q129.59 8.54 130.12 8.52Q130.65 8.51 131.04 8.45L131.04 8.45L131.04 5.43Q130.71 5.37 130.23 5.33Q129.76 5.29 129.36 5.29L129.36 5.29Q128.83 5.29 128.33 5.36Q127.82 5.43 127.45 5.60Q127.07 5.76 126.84 6.07Q126.62 6.38 126.62 6.88L126.62 6.88Q126.62 7.78 127.29 8.16Q127.96 8.54 129.03 8.54ZM128.72-2.50L128.72-2.50Q130.34-2.50 131.42-2.12Q132.50-1.74 133.14-1.05Q133.79-0.37 134.07 0.63Q134.35 1.62 134.35 2.85L134.35 2.85L134.35 10.69Q133.59 10.86 132.11 11.08Q130.62 11.31 128.78 11.31L128.78 11.31Q127.52 11.31 126.49 11.08Q125.47 10.86 124.74 10.34Q124.02 9.82 123.62 9.00Q123.23 8.17 123.23 6.97L123.23 6.97Q123.23 5.82 123.68 5.04Q124.13 4.25 124.88 3.78Q125.64 3.30 126.62 3.09Q127.60 2.88 128.66 2.88L128.66 2.88Q130.01 2.88 131.04 3.10L131.04 3.10L131.04 2.68Q131.04 1.70 130.43 1.05Q129.81 0.39 128.30 0.39L128.30 0.39Q127.32 0.39 126.41 0.53Q125.50 0.67 124.94 0.86L124.94 0.86L124.46-1.91Q125.11-2.13 126.28-2.31Q127.46-2.50 128.72-2.50ZM145.60-2.30L145.60-2.30Q146.70-2.30 147.40-1.96Q148.10-1.63 148.50-0.96Q148.91-0.28 149.05 0.74Q149.19 1.76 149.19 3.13L149.19 3.13L149.19 11L146.39 11L146.39 2.96Q146.39 2.18 146.29 1.70Q146.19 1.23 146.04 0.98Q145.88 0.72 145.67 0.64Q145.46 0.56 145.24 0.56L145.24 0.56Q144.99 0.56 144.71 0.60Q144.43 0.64 144.20 0.75L144.20 0.75Q144.29 1.28 144.34 1.93Q144.40 2.57 144.40 3.36L144.40 3.36L144.40 5.99L141.60 5.99L141.60 2.96Q141.60 1.62 141.33 1.09Q141.07 0.56 140.48 0.56L140.48 0.56Q140.31 0.56 140.07 0.58Q139.84 0.61 139.61 0.67L139.61 0.67L139.61 11L136.81 11L136.81-1.66Q137.90-1.96 138.97-2.13Q140.03-2.30 140.84-2.30L140.84-2.30Q141.57-2.30 142.15-2.12Q142.72-1.94 143.14-1.52L143.14-1.52Q143.62-1.82 144.26-2.06Q144.90-2.30 145.60-2.30Z"/>
    </g>
</svg>