<?xml version="1.0" encoding="UTF-8"?>
<svg height="34" width="163" version="1.1" xmlns="http://www.w3.org/2000/svg"><!--Created by Josélio de S. C. Júnior - 2021 - https://github.com/joseliojunior -->
    <rect
        height="32"
        width="161"
        rx="1"
        ry="1"
        x="1" y="1"
        fill="#A0AA87"
        stroke="#525a3f"
        stroke-width="1" />
    <g transform="translate(0, 12)">
        <path fill="#525a3f" stroke="none" d="M20.60-2.86L31.40-2.86L31.40-0.41L27.49-0.41L27.49 12L24.51 12L24.51-0.41L20.60-0.41L20.60-2.86ZM42.73 12L33.30 12L33.30 9.55L36.54 9.55L36.54-0.41L33.30-0.41L33.30-2.86L42.73-2.86L42.73-0.41L39.51-0.41L39.51 9.55L42.73 9.55L42.73 12ZM61.38-3.02L61.38-3.02Q64.21-3.02 65.77-1.86Q67.33-0.70 67.33 1.94L67.33 1.94Q67.33 4.61 65.76 5.80Q64.18 6.98 61.30 6.98L61.30 6.98L60.25 6.98L60.25 12L57.30 12L57.30-2.66Q57.73-2.76 58.27-2.83Q58.81-2.90 59.36-2.94Q59.91-2.98 60.44-3Q60.97-3.02 61.38-3.02ZM61.71-0.46L61.71-0.46Q61.45-0.46 60.98-0.44Q60.51-0.43 60.25-0.38L60.25-0.38L60.25 4.42L61.45 4.42Q62.86 4.42 63.58 3.85Q64.30 3.29 64.30 1.92L64.30 1.92Q64.30 0.62 63.60 0.08Q62.89-0.46 61.71-0.46ZM79.02 0.98L78.49 3.72Q78.20 3.65 77.80 3.58Q77.41 3.50 77 3.44Q76.59 3.38 76.21 3.36Q75.82 3.34 75.56 3.34L75.56 3.34Q74.94 3.34 74.34 3.40Q73.74 3.46 73.11 3.62L73.11 3.62L73.11 12L70.14 12L70.14 1.46Q71.31 1.03 72.55 0.77Q73.78 0.50 75.44 0.50L75.44 0.50Q75.68 0.50 76.12 0.53Q76.57 0.55 77.07 0.61Q77.58 0.67 78.09 0.76Q78.61 0.84 79.02 0.98L79.02 0.98ZM91.33 6.34L91.33 6.34Q91.33 7.68 90.94 8.77Q90.56 9.86 89.86 10.66Q89.17 11.45 88.20 11.88Q87.22 12.31 86.02 12.31L86.02 12.31Q84.82 12.31 83.85 11.88Q82.88 11.45 82.17 10.66Q81.46 9.86 81.08 8.77Q80.70 7.68 80.70 6.34L80.70 6.34Q80.70 5.02 81.09 3.92Q81.49 2.83 82.20 2.05Q82.90 1.27 83.89 0.85Q84.87 0.43 86.02 0.43L86.02 0.43Q87.20 0.43 88.17 0.85Q89.14 1.27 89.85 2.05Q90.56 2.83 90.94 3.92Q91.33 5.02 91.33 6.34ZM83.70 6.36L83.70 6.36Q83.70 7.87 84.24 8.81Q84.78 9.74 85.98 9.74L85.98 9.74Q87.13 9.74 87.72 8.81Q88.30 7.87 88.30 6.36L88.30 6.36Q88.30 4.85 87.76 3.92Q87.22 3 86.02 3L86.02 3Q84.87 3 84.28 3.92Q83.70 4.85 83.70 6.36ZM95.79 6L95.79 6Q95.79 7.39 96.30 8.12Q96.80 8.86 97.88 8.86L97.88 8.86Q98.36 8.86 98.78 8.74Q99.20 8.62 99.54 8.42L99.54 8.42L99.54 3Q99.20 2.93 98.94 2.90Q98.67 2.88 98.38 2.88L98.38 2.88Q95.79 2.88 95.79 6ZM102.51 1.08L102.51 10.63Q102.51 13.39 101.18 14.71Q99.85 16.03 96.90 16.03L96.90 16.03Q95.84 16.03 94.87 15.82Q93.90 15.60 93.01 15.31L93.01 15.31L93.56 12.82Q94.26 13.08 95.02 13.31Q95.79 13.54 96.94 13.54L96.94 13.54Q97.71 13.54 98.22 13.36Q98.72 13.18 99.01 12.86Q99.30 12.55 99.42 12.13Q99.54 11.71 99.54 11.23L99.54 11.23L99.54 10.78Q98.91 11.02 98.40 11.14Q97.88 11.26 97.28 11.26L97.28 11.26Q95.07 11.26 93.93 9.86Q92.79 8.47 92.79 6L92.79 6Q92.79 3.22 94.33 1.85Q95.86 0.48 98.50 0.48L98.50 0.48Q100.35 0.48 102.51 1.08L102.51 1.08ZM115.02 0.98L114.49 3.72Q114.20 3.65 113.80 3.58Q113.41 3.50 113 3.44Q112.59 3.38 112.21 3.36Q111.82 3.34 111.56 3.34L111.56 3.34Q110.94 3.34 110.34 3.40Q109.74 3.46 109.11 3.62L109.11 3.62L109.11 12L106.14 12L106.14 1.46Q107.31 1.03 108.55 0.77Q109.78 0.50 111.44 0.50L111.44 0.50Q111.68 0.50 112.12 0.53Q112.57 0.55 113.07 0.61Q113.58 0.67 114.09 0.76Q114.61 0.84 115.02 0.98L115.02 0.98ZM122.02 9.89L122.02 9.89Q122.50 9.89 122.96 9.88Q123.42 9.86 123.75 9.82L123.75 9.82L123.75 7.22Q123.46 7.18 123.06 7.14Q122.65 7.10 122.31 7.10L122.31 7.10Q121.86 7.10 121.42 7.16Q120.99 7.22 120.67 7.37Q120.34 7.51 120.15 7.78Q119.96 8.04 119.96 8.47L119.96 8.47Q119.96 9.24 120.54 9.56Q121.11 9.89 122.02 9.89ZM121.76 0.43L121.76 0.43Q123.15 0.43 124.08 0.76Q125 1.08 125.55 1.67Q126.10 2.26 126.34 3.11Q126.58 3.96 126.58 5.02L126.58 5.02L126.58 11.74Q125.94 11.88 124.66 12.07Q123.39 12.26 121.81 12.26L121.81 12.26Q120.73 12.26 119.85 12.07Q118.98 11.88 118.35 11.44Q117.73 10.99 117.39 10.28Q117.06 9.58 117.06 8.54L117.06 8.54Q117.06 7.56 117.44 6.89Q117.82 6.22 118.47 5.81Q119.12 5.40 119.96 5.22Q120.80 5.04 121.71 5.04L121.71 5.04Q122.86 5.04 123.75 5.23L123.75 5.23L123.75 4.87Q123.75 4.03 123.22 3.47Q122.70 2.90 121.40 2.90L121.40 2.90Q120.56 2.90 119.78 3.02Q119 3.14 118.52 3.31L118.52 3.31L118.11 0.94Q118.66 0.74 119.67 0.59Q120.68 0.43 121.76 0.43ZM136.23 0.60L136.23 0.60Q137.17 0.60 137.77 0.89Q138.37 1.18 138.72 1.75Q139.06 2.33 139.18 3.20Q139.30 4.08 139.30 5.26L139.30 5.26L139.30 12L136.90 12L136.90 5.11Q136.90 4.44 136.82 4.03Q136.74 3.62 136.60 3.41Q136.47 3.19 136.29 3.12Q136.11 3.05 135.92 3.05L135.92 3.05Q135.70 3.05 135.46 3.08Q135.22 3.12 135.03 3.22L135.03 3.22Q135.10 3.67 135.15 4.22Q135.20 4.78 135.20 5.45L135.20 5.45L135.20 7.70L132.80 7.70L132.80 5.11Q132.80 3.96 132.57 3.50Q132.34 3.05 131.84 3.05L131.84 3.05Q131.70 3.05 131.49 3.07Q131.29 3.10 131.10 3.14L131.10 3.14L131.10 12L128.70 12L128.70 1.15Q129.63 0.89 130.54 0.74Q131.46 0.60 132.15 0.60L132.15 0.60Q132.78 0.60 133.27 0.76Q133.76 0.91 134.12 1.27L134.12 1.27Q134.53 1.01 135.08 0.80Q135.63 0.60 136.23 0.60Z"/>
    </g>
</svg>