<?xml version="1.0" encoding="UTF-8"?>
<svg height="26" width="123" version="1.1" xmlns="http://www.w3.org/2000/svg"><!--Created by Josélio de S. C. Júnior - 2021 - https://github.com/joseliojunior -->
    <rect
        height="24"
        width="121"
        rx="1"
        ry="1"
        x="1" y="1"
        fill="#A0AA87"
        stroke="#525a3f"
        stroke-width="1" />
    <g transform="translate(0, 8)">
        <path fill="#525a3f" stroke="none" d="M20.40 0.10L27.60 0.10L27.60 1.73L24.99 1.73L24.99 10L23.01 10L23.01 1.73L20.40 1.73L20.40 0.10ZM35.15 10L28.86 10L28.86 8.37L31.02 8.37L31.02 1.73L28.86 1.73L28.86 0.10L35.15 0.10L35.15 1.73L33.01 1.73L33.01 8.37L35.15 8.37L35.15 10ZM47.58-0.02L47.58-0.02Q49.47-0.02 50.51 0.76Q51.55 1.54 51.55 3.30L51.55 3.30Q51.55 5.07 50.50 5.86Q49.46 6.66 47.54 6.66L47.54 6.66L46.83 6.66L46.83 10L44.86 10L44.86 0.22Q45.15 0.16 45.51 0.11Q45.87 0.06 46.24 0.04Q46.61 0.02 46.96 0Q47.31-0.02 47.58-0.02ZM47.81 1.70L47.81 1.70Q47.63 1.70 47.32 1.70Q47.01 1.71 46.83 1.74L46.83 1.74L46.83 4.94L47.63 4.94Q48.58 4.94 49.06 4.57Q49.54 4.19 49.54 3.28L49.54 3.28Q49.54 2.42 49.06 2.06Q48.59 1.70 47.81 1.70ZM59.34 2.66L58.99 4.48Q58.80 4.43 58.54 4.38Q58.27 4.34 58 4.30Q57.73 4.26 57.47 4.24Q57.22 4.22 57.04 4.22L57.04 4.22Q56.62 4.22 56.22 4.26Q55.82 4.30 55.41 4.42L55.41 4.42L55.41 10L53.42 10L53.42 2.98Q54.21 2.69 55.03 2.51Q55.86 2.34 56.96 2.34L56.96 2.34Q57.12 2.34 57.42 2.35Q57.71 2.37 58.05 2.41Q58.38 2.45 58.73 2.50Q59.07 2.56 59.34 2.66L59.34 2.66ZM67.55 6.22L67.55 6.22Q67.55 7.12 67.30 7.85Q67.04 8.58 66.58 9.10Q66.11 9.63 65.46 9.92Q64.82 10.21 64.02 10.21L64.02 10.21Q63.22 10.21 62.57 9.92Q61.92 9.63 61.45 9.10Q60.98 8.58 60.72 7.85Q60.46 7.12 60.46 6.22L60.46 6.22Q60.46 5.34 60.73 4.62Q60.99 3.89 61.46 3.37Q61.94 2.85 62.59 2.57Q63.25 2.29 64.02 2.29L64.02 2.29Q64.80 2.29 65.45 2.57Q66.10 2.85 66.57 3.37Q67.04 3.89 67.30 4.62Q67.55 5.34 67.55 6.22ZM62.46 6.24L62.46 6.24Q62.46 7.25 62.82 7.87Q63.18 8.50 63.98 8.50L63.98 8.50Q64.75 8.50 65.14 7.87Q65.54 7.25 65.54 6.24L65.54 6.24Q65.54 5.23 65.18 4.62Q64.82 4 64.02 4L64.02 4Q63.25 4 62.86 4.62Q62.46 5.23 62.46 6.24ZM70.53 6L70.53 6Q70.53 6.93 70.86 7.42Q71.20 7.90 71.92 7.90L71.92 7.90Q72.24 7.90 72.52 7.82Q72.80 7.74 73.02 7.62L73.02 7.62L73.02 4Q72.80 3.95 72.62 3.94Q72.45 3.92 72.26 3.92L72.26 3.92Q70.53 3.92 70.53 6ZM75.01 2.72L75.01 9.09Q75.01 10.93 74.12 11.81Q73.23 12.69 71.26 12.69L71.26 12.69Q70.56 12.69 69.91 12.54Q69.26 12.40 68.67 12.21L68.67 12.21L69.04 10.54Q69.50 10.72 70.02 10.87Q70.53 11.02 71.30 11.02L71.30 11.02Q71.81 11.02 72.14 10.90Q72.48 10.78 72.67 10.58Q72.86 10.37 72.94 10.09Q73.02 9.81 73.02 9.49L73.02 9.49L73.02 9.18Q72.61 9.34 72.26 9.42Q71.92 9.50 71.52 9.50L71.52 9.50Q70.05 9.50 69.29 8.58Q68.53 7.65 68.53 6L68.53 6Q68.53 4.14 69.55 3.23Q70.58 2.32 72.34 2.32L72.34 2.32Q73.57 2.32 75.01 2.72L75.01 2.72ZM83.34 2.66L82.99 4.48Q82.80 4.43 82.54 4.38Q82.27 4.34 82 4.30Q81.73 4.26 81.47 4.24Q81.22 4.22 81.04 4.22L81.04 4.22Q80.62 4.22 80.22 4.26Q79.82 4.30 79.41 4.42L79.41 4.42L79.41 10L77.42 10L77.42 2.98Q78.21 2.69 79.03 2.51Q79.86 2.34 80.96 2.34L80.96 2.34Q81.12 2.34 81.42 2.35Q81.71 2.37 82.05 2.41Q82.38 2.45 82.73 2.50Q83.07 2.56 83.34 2.66L83.34 2.66ZM88.02 8.59L88.02 8.59Q88.34 8.59 88.64 8.58Q88.94 8.58 89.17 8.54L89.17 8.54L89.17 6.82Q88.98 6.78 88.70 6.76Q88.43 6.74 88.21 6.74L88.21 6.74Q87.90 6.74 87.62 6.78Q87.33 6.82 87.11 6.91Q86.90 7.01 86.77 7.18Q86.64 7.36 86.64 7.65L86.64 7.65Q86.64 8.16 87.02 8.38Q87.41 8.59 88.02 8.59ZM87.84 2.29L87.84 2.29Q88.77 2.29 89.38 2.50Q90 2.72 90.37 3.11Q90.74 3.50 90.90 4.07Q91.06 4.64 91.06 5.34L91.06 5.34L91.06 9.82Q90.62 9.92 89.78 10.05Q88.93 10.18 87.87 10.18L87.87 10.18Q87.15 10.18 86.57 10.05Q85.98 9.92 85.57 9.62Q85.15 9.33 84.93 8.86Q84.70 8.38 84.70 7.70L84.70 7.70Q84.70 7.04 84.96 6.59Q85.22 6.14 85.65 5.87Q86.08 5.60 86.64 5.48Q87.20 5.36 87.81 5.36L87.81 5.36Q88.58 5.36 89.17 5.49L89.17 5.49L89.17 5.25Q89.17 4.69 88.82 4.31Q88.46 3.94 87.60 3.94L87.60 3.94Q87.04 3.94 86.52 4.02Q86 4.10 85.68 4.21L85.68 4.21L85.41 2.62Q85.78 2.50 86.45 2.39Q87.12 2.29 87.84 2.29ZM97.49 2.40L97.49 2.40Q98.11 2.40 98.51 2.59Q98.91 2.78 99.14 3.17Q99.38 3.55 99.46 4.14Q99.54 4.72 99.54 5.50L99.54 5.50L99.54 10L97.94 10L97.94 5.41Q97.94 4.96 97.88 4.69Q97.82 4.42 97.74 4.27Q97.65 4.13 97.53 4.08Q97.41 4.03 97.28 4.03L97.28 4.03Q97.14 4.03 96.98 4.06Q96.82 4.08 96.69 4.14L96.69 4.14Q96.74 4.45 96.77 4.82Q96.80 5.18 96.80 5.63L96.80 5.63L96.80 7.14L95.20 7.14L95.20 5.41Q95.20 4.64 95.05 4.34Q94.90 4.03 94.56 4.03L94.56 4.03Q94.46 4.03 94.33 4.05Q94.19 4.06 94.06 4.10L94.06 4.10L94.06 10L92.46 10L92.46 2.77Q93.09 2.59 93.70 2.50Q94.30 2.40 94.77 2.40L94.77 2.40Q95.18 2.40 95.51 2.50Q95.84 2.61 96.08 2.85L96.08 2.85Q96.35 2.67 96.72 2.54Q97.09 2.40 97.49 2.40Z"/>
    </g>
</svg>