<?xml version="1.0" encoding="UTF-8"?>
<svg height="26" width="155.39999999999998" version="1.1" xmlns="http://www.w3.org/2000/svg"><!--Created by Josélio de S. C. Júnior - 2021 - https://github.com/joseliojunior -->
<rect
    height="24"
    width="153.39999999999998"
    rx="12"
    ry="12"
    x="1" y="1"
    fill="#003144"
    stroke="#3ddc84"
    stroke-width="1" />
<g transform="translate(0, 8)">
    <path fill="#3ddc84" d="M27.86 10L25.74 10L25.28 7.71L22.64 7.71L22.19 10L20.14 10Q20.85 7.07 21.57 4.66Q22.29 2.26 22.96 0.10L22.96 0.10L25.10 0.10Q25.81 2.27 26.50 4.71Q27.20 7.15 27.86 10L27.86 10ZM23.98 2.02L23.98 2.02Q23.82 2.58 23.69 3.08Q23.55 3.58 23.43 4.07Q23.31 4.56 23.21 5.06Q23.10 5.55 23.01 6.08L23.01 6.08L24.94 6.08Q24.85 5.55 24.75 5.06Q24.66 4.56 24.54 4.07Q24.42 3.58 24.28 3.08Q24.14 2.58 23.98 2.02ZM29.01 10L29.01 2.72Q29.54 2.58 30.31 2.45Q31.09 2.32 32 2.32L32 2.32Q32.90 2.32 33.49 2.57Q34.08 2.82 34.42 3.27Q34.77 3.73 34.91 4.36Q35.06 4.99 35.06 5.76L35.06 5.76L35.06 10L33.09 10L33.09 6.02Q33.09 4.96 32.85 4.50Q32.61 4.03 31.87 4.03L31.87 4.03Q31.65 4.03 31.43 4.05Q31.22 4.06 30.98 4.10L30.98 4.10L30.98 10L29.01 10ZM38.45 6.19L38.45 6.19Q38.45 7.20 38.82 7.84Q39.20 8.48 40.03 8.48L40.03 8.48Q40.27 8.48 40.48 8.46Q40.69 8.45 40.91 8.42L40.91 8.42L40.91 4.32Q40.69 4.19 40.40 4.10Q40.11 4.02 39.79 4.02L39.79 4.02Q39.09 4.02 38.77 4.58Q38.45 5.14 38.45 6.19ZM42.88-1.10L42.88 9.78Q42.34 9.95 41.55 10.06Q40.77 10.18 40.02 10.18L40.02 10.18Q38.26 10.18 37.35 9.14Q36.45 8.10 36.45 6.29L36.45 6.29Q36.45 4.45 37.21 3.38Q37.97 2.32 39.46 2.32L39.46 2.32Q39.86 2.32 40.24 2.41Q40.62 2.50 40.91 2.66L40.91 2.66L40.91-0.77L42.88-1.10ZM51.34 2.66L50.99 4.48Q50.80 4.43 50.54 4.38Q50.27 4.34 50 4.30Q49.73 4.26 49.47 4.24Q49.22 4.22 49.04 4.22L49.04 4.22Q48.62 4.22 48.22 4.26Q47.82 4.30 47.41 4.42L47.41 4.42L47.41 10L45.42 10L45.42 2.98Q46.21 2.69 47.03 2.51Q47.86 2.34 48.96 2.34L48.96 2.34Q49.12 2.34 49.42 2.35Q49.71 2.37 50.05 2.41Q50.38 2.45 50.73 2.50Q51.07 2.56 51.34 2.66L51.34 2.66ZM59.55 6.22L59.55 6.22Q59.55 7.12 59.30 7.85Q59.04 8.58 58.58 9.10Q58.11 9.63 57.46 9.92Q56.82 10.21 56.02 10.21L56.02 10.21Q55.22 10.21 54.57 9.92Q53.92 9.63 53.45 9.10Q52.98 8.58 52.72 7.85Q52.46 7.12 52.46 6.22L52.46 6.22Q52.46 5.34 52.73 4.62Q52.99 3.89 53.46 3.37Q53.94 2.85 54.59 2.57Q55.25 2.29 56.02 2.29L56.02 2.29Q56.80 2.29 57.45 2.57Q58.10 2.85 58.57 3.37Q59.04 3.89 59.30 4.62Q59.55 5.34 59.55 6.22ZM54.46 6.24L54.46 6.24Q54.46 7.25 54.82 7.87Q55.18 8.50 55.98 8.50L55.98 8.50Q56.75 8.50 57.14 7.87Q57.54 7.25 57.54 6.24L57.54 6.24Q57.54 5.23 57.18 4.62Q56.82 4 56.02 4L56.02 4Q55.25 4 54.86 4.62Q54.46 5.23 54.46 6.24ZM64.54 0.32L64.54 0.32Q64.54 0.90 64.18 1.23Q63.81 1.57 63.30 1.57L63.30 1.57Q62.78 1.57 62.42 1.23Q62.06 0.90 62.06 0.32L62.06 0.32Q62.06-0.27 62.42-0.61Q62.78-0.94 63.30-0.94L63.30-0.94Q63.81-0.94 64.18-0.61Q64.54-0.27 64.54 0.32ZM67.22 8.10L67.47 9.68Q66.86 9.97 66.33 10.07Q65.79 10.18 65.34 10.18L65.34 10.18Q64.58 10.18 64.06 9.95Q63.54 9.73 63.22 9.30Q62.91 8.88 62.78 8.27Q62.66 7.66 62.66 6.88L62.66 6.88L62.66 4.11L60.58 4.11L60.58 2.48L64.62 2.48L64.62 7.14Q64.62 7.81 64.87 8.14Q65.12 8.46 65.70 8.46L65.70 8.46Q65.97 8.46 66.35 8.39Q66.74 8.32 67.22 8.10L67.22 8.10ZM70.45 6.19L70.45 6.19Q70.45 7.20 70.82 7.84Q71.20 8.48 72.03 8.48L72.03 8.48Q72.27 8.48 72.48 8.46Q72.69 8.45 72.91 8.42L72.91 8.42L72.91 4.32Q72.69 4.19 72.40 4.10Q72.11 4.02 71.79 4.02L71.79 4.02Q71.09 4.02 70.77 4.58Q70.45 5.14 70.45 6.19ZM74.88-1.10L74.88 9.78Q74.34 9.95 73.55 10.06Q72.77 10.18 72.02 10.18L72.02 10.18Q70.26 10.18 69.35 9.14Q68.45 8.10 68.45 6.29L68.45 6.29Q68.45 4.45 69.21 3.38Q69.97 2.32 71.46 2.32L71.46 2.32Q71.86 2.32 72.24 2.41Q72.62 2.50 72.91 2.66L72.91 2.66L72.91-0.77L74.88-1.10ZM87.71 8.56L87.71 8.56Q88.21 8.56 88.54 8.46Q88.86 8.35 89.06 8.17Q89.25 7.98 89.32 7.75Q89.39 7.52 89.39 7.28L89.39 7.28Q89.39 6.98 89.22 6.74Q89.04 6.50 88.77 6.31Q88.50 6.13 88.16 5.98Q87.82 5.82 87.49 5.70L87.49 5.70Q87.04 5.54 86.56 5.33Q86.08 5.12 85.69 4.80Q85.30 4.48 85.04 4.01Q84.78 3.54 84.78 2.83L84.78 2.83Q84.78 1.44 85.69 0.66Q86.59-0.13 88.18-0.13L88.18-0.13Q89.09-0.13 89.77 0.08Q90.45 0.29 90.91 0.54L90.91 0.54L90.34 2.06Q89.94 1.84 89.45 1.68Q88.96 1.52 88.32 1.52L88.32 1.52Q86.75 1.52 86.75 2.66L86.75 2.66Q86.75 2.94 86.91 3.16Q87.07 3.38 87.32 3.54Q87.57 3.71 87.88 3.84Q88.19 3.97 88.50 4.08L88.50 4.08Q88.96 4.26 89.46 4.47Q89.97 4.69 90.39 5.05Q90.82 5.41 91.09 5.94Q91.36 6.48 91.36 7.30L91.36 7.30Q91.36 8.69 90.46 9.45Q89.55 10.21 87.71 10.21L87.71 10.21Q86.48 10.21 85.74 9.94Q85.01 9.68 84.64 9.46L84.64 9.46L85.22 7.86Q85.65 8.11 86.25 8.34Q86.85 8.56 87.71 8.56ZM94.29 7.20L94.29 4.11L92.58 4.11L92.58 2.48L94.29 2.48L94.29 0.59L96.26 0.27L96.26 2.48L99.41 2.48L99.41 4.11L96.26 4.11L96.26 7.15Q96.26 7.57 96.34 7.82Q96.42 8.08 96.56 8.22Q96.70 8.37 96.91 8.42Q97.12 8.46 97.38 8.46L97.38 8.46Q97.65 8.46 97.88 8.45Q98.11 8.43 98.33 8.39Q98.54 8.35 98.78 8.27Q99.01 8.19 99.28 8.06L99.28 8.06L99.55 9.76Q99.01 9.98 98.38 10.08Q97.74 10.18 97.15 10.18L97.15 10.18Q96.46 10.18 95.94 10.06Q95.41 9.95 95.04 9.63Q94.67 9.31 94.48 8.73Q94.29 8.14 94.29 7.20L94.29 7.20ZM107.01 2.48L107.01 9.74Q106.46 9.89 105.69 10.03Q104.91 10.18 104 10.18L104 10.18Q103.07 10.18 102.48 9.92Q101.89 9.66 101.54 9.19Q101.20 8.72 101.07 8.08Q100.94 7.44 100.94 6.67L100.94 6.67L100.94 2.48L102.91 2.48L102.91 6.42Q102.91 7.46 103.16 7.96Q103.41 8.46 104.13 8.46L104.13 8.46Q104.58 8.46 105.02 8.38L105.02 8.38L105.02 2.48L107.01 2.48ZM110.45 6.19L110.45 6.19Q110.45 7.20 110.82 7.84Q111.20 8.48 112.03 8.48L112.03 8.48Q112.27 8.48 112.48 8.46Q112.69 8.45 112.91 8.42L112.91 8.42L112.91 4.32Q112.69 4.19 112.40 4.10Q112.11 4.02 111.79 4.02L111.79 4.02Q111.09 4.02 110.77 4.58Q110.45 5.14 110.45 6.19ZM114.88-1.10L114.88 9.78Q114.34 9.95 113.55 10.06Q112.77 10.18 112.02 10.18L112.02 10.18Q110.26 10.18 109.35 9.14Q108.45 8.10 108.45 6.29L108.45 6.29Q108.45 4.45 109.21 3.38Q109.97 2.32 111.46 2.32L111.46 2.32Q111.86 2.32 112.24 2.41Q112.62 2.50 112.91 2.66L112.91 2.66L112.91-0.77L114.88-1.10ZM120.54 0.32L120.54 0.32Q120.54 0.90 120.18 1.23Q119.81 1.57 119.30 1.57L119.30 1.57Q118.78 1.57 118.42 1.23Q118.06 0.90 118.06 0.32L118.06 0.32Q118.06-0.27 118.42-0.61Q118.78-0.94 119.30-0.94L119.30-0.94Q119.81-0.94 120.18-0.61Q120.54-0.27 120.54 0.32ZM123.22 8.10L123.47 9.68Q122.86 9.97 122.33 10.07Q121.79 10.18 121.34 10.18L121.34 10.18Q120.58 10.18 120.06 9.95Q119.54 9.73 119.22 9.30Q118.91 8.88 118.78 8.27Q118.66 7.66 118.66 6.88L118.66 6.88L118.66 4.11L116.58 4.11L116.58 2.48L120.62 2.48L120.62 7.14Q120.62 7.81 120.87 8.14Q121.12 8.46 121.70 8.46L121.70 8.46Q121.97 8.46 122.35 8.39Q122.74 8.32 123.22 8.10L123.22 8.10ZM131.55 6.22L131.55 6.22Q131.55 7.12 131.30 7.85Q131.04 8.58 130.58 9.10Q130.11 9.63 129.46 9.92Q128.82 10.21 128.02 10.21L128.02 10.21Q127.22 10.21 126.57 9.92Q125.92 9.63 125.45 9.10Q124.98 8.58 124.72 7.85Q124.46 7.12 124.46 6.22L124.46 6.22Q124.46 5.34 124.73 4.62Q124.99 3.89 125.46 3.37Q125.94 2.85 126.59 2.57Q127.25 2.29 128.02 2.29L128.02 2.29Q128.80 2.29 129.45 2.57Q130.10 2.85 130.57 3.37Q131.04 3.89 131.30 4.62Q131.55 5.34 131.55 6.22ZM126.46 6.24L126.46 6.24Q126.46 7.25 126.82 7.87Q127.18 8.50 127.98 8.50L127.98 8.50Q128.75 8.50 129.14 7.87Q129.54 7.25 129.54 6.24L129.54 6.24Q129.54 5.23 129.18 4.62Q128.82 4 128.02 4L128.02 4Q127.25 4 126.86 4.62Q126.46 5.23 126.46 6.24Z"/>
</g>
</svg>