<?xml version="1.0" encoding="UTF-8"?>
<svg height="34" width="211.4" version="1.1" xmlns="http://www.w3.org/2000/svg"><!--Created by Josélio de S. C. Júnior - 2021 - https://github.com/joseliojunior -->
<rect
    height="32"
    width="209.4"
    rx="1"
    ry="1"
    x="1" y="1"
    fill="#003144"
    stroke="#3ddc84"
    stroke-width="1" />
<g transform="translate(0, 12)">
    <path fill="#3ddc84" d="M31.78 12L28.62 12L27.92 8.57L23.96 8.57L23.29 12L20.22 12Q21.27 7.61 22.35 4.00Q23.43 0.38 24.44-2.86L24.44-2.86L27.66-2.86Q28.71 0.41 29.76 4.07Q30.80 7.73 31.78 12L31.78 12ZM25.98 0.02L25.98 0.02Q25.74 0.86 25.53 1.62Q25.33 2.38 25.15 3.11Q24.97 3.84 24.81 4.58Q24.66 5.33 24.51 6.12L24.51 6.12L27.42 6.12Q27.27 5.33 27.13 4.58Q26.98 3.84 26.80 3.11Q26.62 2.38 26.42 1.62Q26.22 0.86 25.98 0.02ZM33.51 12L33.51 1.08Q34.30 0.86 35.47 0.67Q36.63 0.48 38 0.48L38 0.48Q39.34 0.48 40.23 0.85Q41.12 1.22 41.64 1.91Q42.15 2.59 42.37 3.54Q42.58 4.49 42.58 5.64L42.58 5.64L42.58 12L39.63 12L39.63 6.02Q39.63 4.44 39.27 3.74Q38.91 3.05 37.81 3.05L37.81 3.05Q37.47 3.05 37.15 3.07Q36.82 3.10 36.46 3.14L36.46 3.14L36.46 12L33.51 12ZM47.67 6.29L47.67 6.29Q47.67 7.80 48.24 8.76Q48.80 9.72 50.05 9.72L50.05 9.72Q50.41 9.72 50.72 9.70Q51.03 9.67 51.37 9.62L51.37 9.62L51.37 3.48Q51.03 3.29 50.60 3.16Q50.17 3.02 49.69 3.02L49.69 3.02Q48.63 3.02 48.15 3.86Q47.67 4.70 47.67 6.29ZM54.32-4.66L54.32 11.66Q53.50 11.93 52.33 12.10Q51.15 12.26 50.02 12.26L50.02 12.26Q47.38 12.26 46.03 10.70Q44.67 9.14 44.67 6.43L44.67 6.43Q44.67 3.67 45.81 2.08Q46.95 0.48 49.18 0.48L49.18 0.48Q49.78 0.48 50.36 0.61Q50.94 0.74 51.37 0.98L51.37 0.98L51.37-4.15L54.32-4.66ZM67.02 0.98L66.49 3.72Q66.20 3.65 65.80 3.58Q65.41 3.50 65 3.44Q64.59 3.38 64.21 3.36Q63.82 3.34 63.56 3.34L63.56 3.34Q62.94 3.34 62.34 3.40Q61.74 3.46 61.11 3.62L61.11 3.62L61.11 12L58.14 12L58.14 1.46Q59.31 1.03 60.55 0.77Q61.78 0.50 63.44 0.50L63.44 0.50Q63.68 0.50 64.12 0.53Q64.57 0.55 65.07 0.61Q65.58 0.67 66.09 0.76Q66.61 0.84 67.02 0.98L67.02 0.98ZM79.33 6.34L79.33 6.34Q79.33 7.68 78.94 8.77Q78.56 9.86 77.86 10.66Q77.17 11.45 76.20 11.88Q75.22 12.31 74.02 12.31L74.02 12.31Q72.82 12.31 71.85 11.88Q70.88 11.45 70.17 10.66Q69.46 9.86 69.08 8.77Q68.70 7.68 68.70 6.34L68.70 6.34Q68.70 5.02 69.09 3.92Q69.49 2.83 70.20 2.05Q70.90 1.27 71.89 0.85Q72.87 0.43 74.02 0.43L74.02 0.43Q75.20 0.43 76.17 0.85Q77.14 1.27 77.85 2.05Q78.56 2.83 78.94 3.92Q79.33 5.02 79.33 6.34ZM71.70 6.36L71.70 6.36Q71.70 7.87 72.24 8.81Q72.78 9.74 73.98 9.74L73.98 9.74Q75.13 9.74 75.72 8.81Q76.30 7.87 76.30 6.36L76.30 6.36Q76.30 4.85 75.76 3.92Q75.22 3 74.02 3L74.02 3Q72.87 3 72.28 3.92Q71.70 4.85 71.70 6.36ZM86.82-2.52L86.82-2.52Q86.82-1.66 86.26-1.15Q85.71-0.65 84.94-0.65L84.94-0.65Q84.18-0.65 83.64-1.15Q83.10-1.66 83.10-2.52L83.10-2.52Q83.10-3.41 83.64-3.91Q84.18-4.42 84.94-4.42L84.94-4.42Q85.71-4.42 86.26-3.91Q86.82-3.41 86.82-2.52ZM90.82 9.14L91.21 11.52Q90.30 11.95 89.49 12.11Q88.69 12.26 88.02 12.26L88.02 12.26Q86.86 12.26 86.08 11.93Q85.30 11.59 84.84 10.96Q84.37 10.32 84.18 9.41Q83.98 8.50 83.98 7.32L83.98 7.32L83.98 3.17L80.86 3.17L80.86 0.72L86.94 0.72L86.94 7.70Q86.94 8.71 87.31 9.20Q87.68 9.70 88.54 9.70L88.54 9.70Q88.95 9.70 89.53 9.59Q90.10 9.48 90.82 9.14L90.82 9.14ZM95.67 6.29L95.67 6.29Q95.67 7.80 96.24 8.76Q96.80 9.72 98.05 9.72L98.05 9.72Q98.41 9.72 98.72 9.70Q99.03 9.67 99.37 9.62L99.37 9.62L99.37 3.48Q99.03 3.29 98.60 3.16Q98.17 3.02 97.69 3.02L97.69 3.02Q96.63 3.02 96.15 3.86Q95.67 4.70 95.67 6.29ZM102.32-4.66L102.32 11.66Q101.50 11.93 100.33 12.10Q99.15 12.26 98.02 12.26L98.02 12.26Q95.38 12.26 94.03 10.70Q92.67 9.14 92.67 6.43L92.67 6.43Q92.67 3.67 93.81 2.08Q94.95 0.48 97.18 0.48L97.18 0.48Q97.78 0.48 98.36 0.61Q98.94 0.74 99.37 0.98L99.37 0.98L99.37-4.15L102.32-4.66ZM121.57 9.84L121.57 9.84Q122.31 9.84 122.80 9.68Q123.30 9.53 123.58 9.25Q123.87 8.98 123.98 8.63Q124.09 8.28 124.09 7.92L124.09 7.92Q124.09 7.46 123.82 7.10Q123.56 6.74 123.15 6.47Q122.74 6.19 122.24 5.96Q121.74 5.74 121.23 5.54L121.23 5.54Q120.56 5.30 119.84 4.99Q119.12 4.68 118.53 4.20Q117.94 3.72 117.56 3.01Q117.18 2.30 117.18 1.25L117.18 1.25Q117.18-0.84 118.53-2.02Q119.89-3.19 122.26-3.19L122.26-3.19Q123.63-3.19 124.65-2.88Q125.67-2.57 126.37-2.18L126.37-2.18L125.50 0.10Q124.90-0.24 124.17-0.48Q123.44-0.72 122.48-0.72L122.48-0.72Q120.13-0.72 120.13 0.98L120.13 0.98Q120.13 1.42 120.37 1.74Q120.61 2.06 120.98 2.32Q121.35 2.57 121.82 2.76Q122.29 2.95 122.74 3.12L122.74 3.12Q123.44 3.38 124.20 3.71Q124.95 4.03 125.59 4.57Q126.22 5.11 126.63 5.92Q127.04 6.72 127.04 7.94L127.04 7.94Q127.04 10.03 125.68 11.17Q124.33 12.31 121.57 12.31L121.57 12.31Q119.72 12.31 118.62 11.92Q117.51 11.52 116.96 11.18L116.96 11.18L117.82 8.78Q118.47 9.17 119.37 9.50Q120.27 9.84 121.57 9.84ZM131.43 7.80L131.43 3.17L128.86 3.17L128.86 0.72L131.43 0.72L131.43-2.11L134.38-2.59L134.38 0.72L139.11 0.72L139.11 3.17L134.38 3.17L134.38 7.73Q134.38 8.35 134.50 8.74Q134.62 9.12 134.84 9.34Q135.06 9.55 135.37 9.62Q135.68 9.70 136.06 9.70L136.06 9.70Q136.47 9.70 136.82 9.67Q137.17 9.65 137.49 9.59Q137.82 9.53 138.16 9.41Q138.51 9.29 138.92 9.10L138.92 9.10L139.33 11.64Q138.51 11.98 137.56 12.12Q136.62 12.26 135.73 12.26L135.73 12.26Q134.70 12.26 133.90 12.10Q133.11 11.93 132.56 11.45Q132.01 10.97 131.72 10.09Q131.43 9.22 131.43 7.80L131.43 7.80ZM150.51 0.72L150.51 11.62Q149.70 11.83 148.53 12.05Q147.37 12.26 146 12.26L146 12.26Q144.61 12.26 143.72 11.88Q142.83 11.50 142.32 10.79Q141.80 10.08 141.61 9.12Q141.42 8.16 141.42 7.01L141.42 7.01L141.42 0.72L144.37 0.72L144.37 6.62Q144.37 8.18 144.74 8.94Q145.11 9.70 146.19 9.70L146.19 9.70Q146.86 9.70 147.54 9.58L147.54 9.58L147.54 0.72L150.51 0.72ZM155.67 6.29L155.67 6.29Q155.67 7.80 156.24 8.76Q156.80 9.72 158.05 9.72L158.05 9.72Q158.41 9.72 158.72 9.70Q159.03 9.67 159.37 9.62L159.37 9.62L159.37 3.48Q159.03 3.29 158.60 3.16Q158.17 3.02 157.69 3.02L157.69 3.02Q156.63 3.02 156.15 3.86Q155.67 4.70 155.67 6.29ZM162.32-4.66L162.32 11.66Q161.50 11.93 160.33 12.10Q159.15 12.26 158.02 12.26L158.02 12.26Q155.38 12.26 154.03 10.70Q152.67 9.14 152.67 6.43L152.67 6.43Q152.67 3.67 153.81 2.08Q154.95 0.48 157.18 0.48L157.18 0.48Q157.78 0.48 158.36 0.61Q158.94 0.74 159.37 0.98L159.37 0.98L159.37-4.15L162.32-4.66ZM170.82-2.52L170.82-2.52Q170.82-1.66 170.26-1.15Q169.71-0.65 168.94-0.65L168.94-0.65Q168.18-0.65 167.64-1.15Q167.10-1.66 167.10-2.52L167.10-2.52Q167.10-3.41 167.64-3.91Q168.18-4.42 168.94-4.42L168.94-4.42Q169.71-4.42 170.26-3.91Q170.82-3.41 170.82-2.52ZM174.82 9.14L175.21 11.52Q174.30 11.95 173.49 12.11Q172.69 12.26 172.02 12.26L172.02 12.26Q170.86 12.26 170.08 11.93Q169.30 11.59 168.84 10.96Q168.37 10.32 168.18 9.41Q167.98 8.50 167.98 7.32L167.98 7.32L167.98 3.17L164.86 3.17L164.86 0.72L170.94 0.72L170.94 7.70Q170.94 8.71 171.31 9.20Q171.68 9.70 172.54 9.70L172.54 9.70Q172.95 9.70 173.53 9.59Q174.10 9.48 174.82 9.14L174.82 9.14ZM187.33 6.34L187.33 6.34Q187.33 7.68 186.94 8.77Q186.56 9.86 185.86 10.66Q185.17 11.45 184.20 11.88Q183.22 12.31 182.02 12.31L182.02 12.31Q180.82 12.31 179.85 11.88Q178.88 11.45 178.17 10.66Q177.46 9.86 177.08 8.77Q176.70 7.68 176.70 6.34L176.70 6.34Q176.70 5.02 177.09 3.92Q177.49 2.83 178.20 2.05Q178.90 1.27 179.89 0.85Q180.87 0.43 182.02 0.43L182.02 0.43Q183.20 0.43 184.17 0.85Q185.14 1.27 185.85 2.05Q186.56 2.83 186.94 3.92Q187.33 5.02 187.33 6.34ZM179.70 6.36L179.70 6.36Q179.70 7.87 180.24 8.81Q180.78 9.74 181.98 9.74L181.98 9.74Q183.13 9.74 183.72 8.81Q184.30 7.87 184.30 6.36L184.30 6.36Q184.30 4.85 183.76 3.92Q183.22 3 182.02 3L182.02 3Q180.87 3 180.28 3.92Q179.70 4.85 179.70 6.36Z"/>
</g>
</svg>