<?xml version="1.0" encoding="UTF-8"?>
<svg height="322" width="163" version="1.1" xmlns="http://www.w3.org/2000/svg"><!--Created by Josélio de S. C. Júnior - 2021 - https://github.com/joseliojunior -->
    <rect
        height="32"
        width="161"
        rx="16"
        ry="16"
        x="1" y="1"
        fill="#d12127"
        stroke="#4b0c0e"
        stroke-width="1" />
    <g transform="translate(0, 12)">
        <path fill="#4b0c0e" stroke="none" d="M31.78 12L28.62 12L27.92 8.57L23.96 8.57L23.29 12L20.22 12Q21.27 7.61 22.35 4.00Q23.43 0.38 24.44-2.86L24.44-2.86L27.66-2.86Q28.71 0.41 29.76 4.07Q30.80 7.73 31.78 12L31.78 12ZM25.98 0.02L25.98 0.02Q25.74 0.86 25.53 1.62Q25.33 2.38 25.15 3.11Q24.97 3.84 24.81 4.58Q24.66 5.33 24.51 6.12L24.51 6.12L27.42 6.12Q27.27 5.33 27.13 4.58Q26.98 3.84 26.80 3.11Q26.62 2.38 26.42 1.62Q26.22 0.86 25.98 0.02ZM40.26 6.46L40.26 6.46Q40.26 4.94 39.66 3.97Q39.06 3 37.83 3L37.83 3Q37.50 3 37.11 3.04Q36.73 3.07 36.46 3.10L36.46 3.10L36.46 9.29Q36.75 9.48 37.23 9.60Q37.71 9.72 38.19 9.72L38.19 9.72Q39.25 9.72 39.75 8.87Q40.26 8.02 40.26 6.46ZM43.26 6.36L43.26 6.36Q43.26 7.66 42.97 8.75Q42.68 9.84 42.13 10.62Q41.58 11.40 40.74 11.83Q39.90 12.26 38.79 12.26L38.79 12.26Q37.66 12.26 36.46 11.71L36.46 11.71L36.46 15.96L33.51 15.96L33.51 1.08Q34.33 0.82 35.52 0.65Q36.70 0.48 37.86 0.48L37.86 0.48Q40.47 0.48 41.86 2.06Q43.26 3.65 43.26 6.36ZM50.02 9.89L50.02 9.89Q50.50 9.89 50.96 9.88Q51.42 9.86 51.75 9.82L51.75 9.82L51.75 7.22Q51.46 7.18 51.06 7.14Q50.65 7.10 50.31 7.10L50.31 7.10Q49.86 7.10 49.42 7.16Q48.99 7.22 48.67 7.37Q48.34 7.51 48.15 7.78Q47.96 8.04 47.96 8.47L47.96 8.47Q47.96 9.24 48.54 9.56Q49.11 9.89 50.02 9.89ZM49.76 0.43L49.76 0.43Q51.15 0.43 52.08 0.76Q53 1.08 53.55 1.67Q54.10 2.26 54.34 3.11Q54.58 3.96 54.58 5.02L54.58 5.02L54.58 11.74Q53.94 11.88 52.66 12.07Q51.39 12.26 49.81 12.26L49.81 12.26Q48.73 12.26 47.85 12.07Q46.98 11.88 46.35 11.44Q45.73 10.99 45.39 10.28Q45.06 9.58 45.06 8.54L45.06 8.54Q45.06 7.56 45.44 6.89Q45.82 6.22 46.47 5.81Q47.12 5.40 47.96 5.22Q48.80 5.04 49.71 5.04L49.71 5.04Q50.86 5.04 51.75 5.23L51.75 5.23L51.75 4.87Q51.75 4.03 51.22 3.47Q50.70 2.90 49.40 2.90L49.40 2.90Q48.56 2.90 47.78 3.02Q47 3.14 46.52 3.31L46.52 3.31L46.11 0.94Q46.66 0.74 47.67 0.59Q48.68 0.43 49.76 0.43ZM57.06 6.36L57.06 6.36Q57.06 5.14 57.44 4.06Q57.82 2.98 58.62 2.17Q59.41 1.37 60.62 0.90Q61.83 0.43 63.51 0.43L63.51 0.43Q64.52 0.43 65.34 0.58Q66.15 0.72 66.99 1.06L66.99 1.06L66.34 3.43Q65.86 3.26 65.28 3.13Q64.69 3 63.78 3L63.78 3Q62.72 3 62.01 3.25Q61.30 3.50 60.87 3.95Q60.44 4.39 60.25 5.02Q60.06 5.64 60.06 6.36L60.06 6.36Q60.06 7.92 60.93 8.81Q61.81 9.70 63.92 9.70L63.92 9.70Q64.62 9.70 65.37 9.60Q66.13 9.50 66.75 9.29L66.75 9.29L67.18 11.71Q66.56 11.95 65.67 12.11Q64.78 12.26 63.58 12.26L63.58 12.26Q61.86 12.26 60.62 11.81Q59.38 11.35 58.59 10.56Q57.80 9.77 57.43 8.69Q57.06 7.61 57.06 6.36ZM72.46 12L69.51 12L69.51-4.15L72.46-4.66L72.46 0.82Q72.82 0.70 73.33 0.59Q73.83 0.48 74.22 0.48L74.22 0.48Q75.46 0.48 76.30 0.85Q77.14 1.22 77.65 1.91Q78.15 2.59 78.37 3.54Q78.58 4.49 78.58 5.64L78.58 5.64L78.58 12L75.63 12L75.63 6.02Q75.63 4.44 75.27 3.74Q74.91 3.05 73.90 3.05L73.90 3.05Q73.50 3.05 73.10 3.14Q72.70 3.24 72.46 3.31L72.46 3.31L72.46 12ZM80.74 6.46L80.74 6.46Q80.74 4.97 81.20 3.84Q81.66 2.71 82.40 1.96Q83.14 1.20 84.10 0.82Q85.06 0.43 86.07 0.43L86.07 0.43Q88.57 0.43 89.86 1.91Q91.16 3.38 91.16 6.22L91.16 6.22Q91.16 6.50 91.15 6.82Q91.14 7.13 91.11 7.32L91.11 7.32L83.79 7.32Q83.79 8.42 84.70 9.06Q85.62 9.70 87.06 9.70L87.06 9.70Q87.94 9.70 88.75 9.50Q89.55 9.31 90.10 9.12L90.10 9.12L90.51 11.64Q89.74 11.90 88.88 12.08Q88.02 12.26 86.94 12.26L86.94 12.26Q85.50 12.26 84.36 11.89Q83.22 11.52 82.41 10.79Q81.61 10.06 81.18 8.98Q80.74 7.90 80.74 6.46ZM83.79 5.28L88.30 5.28Q88.30 4.82 88.18 4.40Q88.06 3.98 87.80 3.65Q87.54 3.31 87.13 3.11Q86.72 2.90 86.12 2.90L86.12 2.90Q85.54 2.90 85.12 3.10Q84.70 3.29 84.43 3.62Q84.15 3.96 84.00 4.39Q83.84 4.82 83.79 5.28L83.79 5.28ZM99.10 12.31L99.10 12.31Q95.96 12.31 94.30 10.30Q92.65 8.28 92.65 4.56L92.65 4.56Q92.65 2.71 93.15 1.27Q93.66-0.17 94.56-1.16Q95.46-2.16 96.69-2.68Q97.93-3.19 99.39-3.19L99.39-3.19Q100.18-3.19 100.82-3.06Q101.46-2.93 101.94-2.76Q102.42-2.59 102.74-2.40Q103.06-2.21 103.23-2.11L103.23-2.11L102.46 0.24Q101.91-0.12 101.13-0.37Q100.35-0.62 99.34-0.62L99.34-0.62Q98.65-0.62 97.99-0.37Q97.33-0.12 96.81 0.47Q96.30 1.06 95.97 2.04Q95.65 3.02 95.65 4.49L95.65 4.49Q95.65 7.03 96.52 8.39Q97.40 9.74 99.39 9.74L99.39 9.74Q100.54 9.74 101.30 9.48Q102.06 9.22 102.51 8.95L102.51 8.95L103.26 11.28Q102.63 11.66 101.56 11.99Q100.50 12.31 99.10 12.31ZM115.33 6.34L115.33 6.34Q115.33 7.68 114.94 8.77Q114.56 9.86 113.86 10.66Q113.17 11.45 112.20 11.88Q111.22 12.31 110.02 12.31L110.02 12.31Q108.82 12.31 107.85 11.88Q106.88 11.45 106.17 10.66Q105.46 9.86 105.08 8.77Q104.70 7.68 104.70 6.34L104.70 6.34Q104.70 5.02 105.09 3.92Q105.49 2.83 106.20 2.05Q106.90 1.27 107.89 0.85Q108.87 0.43 110.02 0.43L110.02 0.43Q111.20 0.43 112.17 0.85Q113.14 1.27 113.85 2.05Q114.56 2.83 114.94 3.92Q115.33 5.02 115.33 6.34ZM107.70 6.36L107.70 6.36Q107.70 7.87 108.24 8.81Q108.78 9.74 109.98 9.74L109.98 9.74Q111.13 9.74 111.72 8.81Q112.30 7.87 112.30 6.36L112.30 6.36Q112.30 4.85 111.76 3.92Q111.22 3 110.02 3L110.02 3Q108.87 3 108.28 3.92Q107.70 4.85 107.70 6.36ZM117.51 12L117.51 1.08Q118.30 0.86 119.47 0.67Q120.63 0.48 122 0.48L122 0.48Q123.34 0.48 124.23 0.85Q125.12 1.22 125.64 1.91Q126.15 2.59 126.37 3.54Q126.58 4.49 126.58 5.64L126.58 5.64L126.58 12L123.63 12L123.63 6.02Q123.63 4.44 123.27 3.74Q122.91 3.05 121.81 3.05L121.81 3.05Q121.47 3.05 121.15 3.07Q120.82 3.10 120.46 3.14L120.46 3.14L120.46 12L117.51 12ZM134.31 12L131.34 12L131.34 3.17L128.86 3.17L128.86 0.72L131.34 0.72L131.34 0.07Q131.34-1.30 131.73-2.20Q132.13-3.10 132.80-3.64Q133.47-4.18 134.34-4.40Q135.20-4.63 136.11-4.63L136.11-4.63Q137.05-4.63 138.03-4.46Q139.02-4.30 139.81-3.91L139.81-3.91L139.30-1.51Q138.75-1.70 137.92-1.91Q137.10-2.11 136.35-2.11L136.35-2.11Q135.94-2.11 135.57-2.04Q135.20-1.97 134.92-1.73Q134.65-1.49 134.48-1.04Q134.31-0.60 134.31 0.12L134.31 0.12L134.31 0.72L138.94 0.72L138.94 3.17L134.31 3.17L134.31 12Z"/>
    </g>
</svg>