<?xml version="1.0" encoding="UTF-8"?>
<svg height="26" width="114.89999999999999" version="1.1" xmlns="http://www.w3.org/2000/svg"><!--Created by Josélio de S. C. Júnior - 2021 - https://github.com/joseliojunior -->
    <rect
        height="24"
        width="112.89999999999999"
        rx="12"
        ry="12"
        x="1" y="1"
        fill="#2F2530"
        stroke="#856887"
        stroke-width="1" />
    <g transform="translate(0, 8)">
        <path fill="#856887" stroke="none" d="M27.50 7.01L27.50 7.01Q27.50 7.90 27.20 8.50Q26.90 9.10 26.38 9.46Q25.86 9.82 25.14 9.98Q24.43 10.13 23.62 10.13L23.62 10.13Q22.96 10.13 22.26 10.06Q21.55 9.98 20.86 9.84L20.86 9.84L20.86 0.22Q21.42 0.13 22.10 0.06Q22.77-0.02 23.42-0.02L23.42-0.02Q24.54-0.02 25.25 0.22Q25.95 0.45 26.35 0.82Q26.75 1.20 26.90 1.66Q27.04 2.13 27.04 2.59L27.04 2.59Q27.04 3.30 26.70 3.84Q26.35 4.38 25.78 4.70L25.78 4.70Q26.78 5.07 27.14 5.70Q27.50 6.32 27.50 7.01ZM23.89 5.66L22.83 5.66L22.83 8.35Q23.04 8.38 23.29 8.40Q23.54 8.42 23.78 8.42L23.78 8.42Q24.11 8.42 24.43 8.36Q24.75 8.30 25 8.15Q25.25 8 25.41 7.72Q25.57 7.44 25.57 7.01L25.57 7.01Q25.57 6.29 25.11 5.98Q24.66 5.66 23.89 5.66L23.89 5.66ZM22.83 4.03L23.60 4.03Q24.35 4.03 24.74 3.70Q25.12 3.38 25.12 2.80L25.12 2.80Q25.12 2.45 25.01 2.23Q24.90 2.02 24.70 1.90Q24.51 1.78 24.26 1.74Q24 1.70 23.73 1.70L23.73 1.70Q23.50 1.70 23.26 1.71Q23.02 1.73 22.83 1.76L22.83 1.76L22.83 4.03ZM35.34 2.66L34.99 4.48Q34.80 4.43 34.54 4.38Q34.27 4.34 34 4.30Q33.73 4.26 33.47 4.24Q33.22 4.22 33.04 4.22L33.04 4.22Q32.62 4.22 32.22 4.26Q31.82 4.30 31.41 4.42L31.41 4.42L31.41 10L29.42 10L29.42 2.98Q30.21 2.69 31.03 2.51Q31.86 2.34 32.96 2.34L32.96 2.34Q33.12 2.34 33.42 2.35Q33.71 2.37 34.05 2.41Q34.38 2.45 34.73 2.50Q35.07 2.56 35.34 2.66L35.34 2.66ZM40.02 8.59L40.02 8.59Q40.34 8.59 40.64 8.58Q40.94 8.58 41.17 8.54L41.17 8.54L41.17 6.82Q40.98 6.78 40.70 6.76Q40.43 6.74 40.21 6.74L40.21 6.74Q39.90 6.74 39.62 6.78Q39.33 6.82 39.11 6.91Q38.90 7.01 38.77 7.18Q38.64 7.36 38.64 7.65L38.64 7.65Q38.64 8.16 39.02 8.38Q39.41 8.59 40.02 8.59ZM39.84 2.29L39.84 2.29Q40.77 2.29 41.38 2.50Q42 2.72 42.37 3.11Q42.74 3.50 42.90 4.07Q43.06 4.64 43.06 5.34L43.06 5.34L43.06 9.82Q42.62 9.92 41.78 10.05Q40.93 10.18 39.87 10.18L39.87 10.18Q39.15 10.18 38.57 10.05Q37.98 9.92 37.57 9.62Q37.15 9.33 36.93 8.86Q36.70 8.38 36.70 7.70L36.70 7.70Q36.70 7.04 36.96 6.59Q37.22 6.14 37.65 5.87Q38.08 5.60 38.64 5.48Q39.20 5.36 39.81 5.36L39.81 5.36Q40.58 5.36 41.17 5.49L41.17 5.49L41.17 5.25Q41.17 4.69 40.82 4.31Q40.46 3.94 39.60 3.94L39.60 3.94Q39.04 3.94 38.52 4.02Q38 4.10 37.68 4.21L37.68 4.21L37.41 2.62Q37.78 2.50 38.45 2.39Q39.12 2.29 39.84 2.29ZM48.54 0.32L48.54 0.32Q48.54 0.90 48.18 1.23Q47.81 1.57 47.30 1.57L47.30 1.57Q46.78 1.57 46.42 1.23Q46.06 0.90 46.06 0.32L46.06 0.32Q46.06-0.27 46.42-0.61Q46.78-0.94 47.30-0.94L47.30-0.94Q47.81-0.94 48.18-0.61Q48.54-0.27 48.54 0.32ZM51.22 8.10L51.47 9.68Q50.86 9.97 50.33 10.07Q49.79 10.18 49.34 10.18L49.34 10.18Q48.58 10.18 48.06 9.95Q47.54 9.73 47.22 9.30Q46.91 8.88 46.78 8.27Q46.66 7.66 46.66 6.88L46.66 6.88L46.66 4.11L44.58 4.11L44.58 2.48L48.62 2.48L48.62 7.14Q48.62 7.81 48.87 8.14Q49.12 8.46 49.70 8.46L49.70 8.46Q49.97 8.46 50.35 8.39Q50.74 8.32 51.22 8.10L51.22 8.10ZM53.01 10L53.01 2.72Q53.54 2.58 54.31 2.45Q55.09 2.32 56 2.32L56 2.32Q56.90 2.32 57.49 2.57Q58.08 2.82 58.42 3.27Q58.77 3.73 58.91 4.36Q59.06 4.99 59.06 5.76L59.06 5.76L59.06 10L57.09 10L57.09 6.02Q57.09 4.96 56.85 4.50Q56.61 4.03 55.87 4.03L55.87 4.03Q55.65 4.03 55.43 4.05Q55.22 4.06 54.98 4.10L54.98 4.10L54.98 10L53.01 10ZM64.21 10L62.22 10L62.22 4.11L60.58 4.11L60.58 2.48L62.22 2.48L62.22 2.05Q62.22 1.14 62.49 0.54Q62.75-0.06 63.20-0.42Q63.65-0.78 64.22-0.94Q64.80-1.09 65.41-1.09L65.41-1.09Q66.03-1.09 66.69-0.98Q67.34-0.86 67.87-0.61L67.87-0.61L67.54 0.99Q67.17 0.86 66.62 0.73Q66.06 0.59 65.57 0.59L65.57 0.59Q65.30 0.59 65.05 0.64Q64.80 0.69 64.62 0.85Q64.43 1.01 64.32 1.30Q64.21 1.60 64.21 2.08L64.21 2.08L64.21 2.48L67.30 2.48L67.30 4.11L64.21 4.11L64.21 10ZM75.01 2.48L75.01 9.74Q74.46 9.89 73.69 10.03Q72.91 10.18 72 10.18L72 10.18Q71.07 10.18 70.48 9.92Q69.89 9.66 69.54 9.19Q69.20 8.72 69.07 8.08Q68.94 7.44 68.94 6.67L68.94 6.67L68.94 2.48L70.91 2.48L70.91 6.42Q70.91 7.46 71.16 7.96Q71.41 8.46 72.13 8.46L72.13 8.46Q72.58 8.46 73.02 8.38L73.02 8.38L73.02 2.48L75.01 2.48ZM76.70 6.24L76.70 6.24Q76.70 5.42 76.96 4.70Q77.22 3.98 77.74 3.45Q78.27 2.91 79.08 2.60Q79.89 2.29 81.01 2.29L81.01 2.29Q81.68 2.29 82.22 2.38Q82.77 2.48 83.33 2.70L83.33 2.70L82.90 4.29Q82.58 4.18 82.18 4.09Q81.79 4 81.18 4L81.18 4Q80.48 4 80.01 4.17Q79.54 4.34 79.25 4.63Q78.96 4.93 78.83 5.34Q78.70 5.76 78.70 6.24L78.70 6.24Q78.70 7.28 79.29 7.87Q79.87 8.46 81.28 8.46L81.28 8.46Q81.74 8.46 82.25 8.40Q82.75 8.34 83.17 8.19L83.17 8.19L83.46 9.81Q83.04 9.97 82.45 10.07Q81.86 10.18 81.06 10.18L81.06 10.18Q79.90 10.18 79.08 9.87Q78.26 9.57 77.73 9.04Q77.20 8.51 76.95 7.79Q76.70 7.07 76.70 6.24ZM86.99-1.10L86.99 5.46Q87.28 5.12 87.58 4.74Q87.87 4.37 88.15 3.97Q88.43 3.57 88.69 3.19Q88.94 2.82 89.14 2.48L89.14 2.48L91.50 2.48Q91.22 2.85 90.85 3.28Q90.48 3.71 90.09 4.16Q89.70 4.61 89.30 5.02Q88.91 5.44 88.59 5.79L88.59 5.79Q88.99 6.18 89.46 6.71Q89.92 7.25 90.37 7.82Q90.82 8.40 91.19 8.98Q91.57 9.55 91.79 10L91.79 10L89.54 10Q89.34 9.60 89.03 9.10Q88.72 8.59 88.37 8.10Q88.02 7.62 87.66 7.18Q87.30 6.74 86.99 6.45L86.99 6.45L86.99 10L85.01 10L85.01-0.77L86.99-1.10Z"/>
    </g>
</svg>