<?xml version="1.0" encoding="UTF-8"?>
<svg height="26" width="195.9" version="1.1" xmlns="http://www.w3.org/2000/svg"><!--Created by Josélio de S. C. Júnior - 2021 - https://github.com/joseliojunior -->
    <rect
        height="24"
        width="193.9"
        rx="12"
        ry="12"
        x="1" y="1"
        fill="#2f4aab"
        stroke="#0e1634"
        stroke-width="1" />
    <g transform="translate(0, 8)">
        <path fill="#0e1634" stroke="none" d="M27.82 10L25.60 10Q25.42 9.44 25.10 8.79Q24.77 8.14 24.37 7.53Q23.97 6.91 23.53 6.38Q23.09 5.84 22.69 5.47L22.69 5.47L22.69 10L20.72 10L20.72 0.10L22.69 0.10L22.69 4.21Q23.04 3.76 23.42 3.22Q23.81 2.67 24.15 2.13Q24.50 1.58 24.78 1.06Q25.07 0.53 25.26 0.10L25.26 0.10L27.49 0.10Q27.26 0.53 26.95 1.08Q26.64 1.63 26.24 2.23Q25.84 2.83 25.38 3.46Q24.93 4.08 24.43 4.66L24.43 4.66Q24.93 5.14 25.44 5.76Q25.95 6.38 26.41 7.10Q26.86 7.81 27.23 8.55Q27.60 9.30 27.82 10L27.82 10ZM32.54 0.32L32.54 0.32Q32.54 0.90 32.18 1.23Q31.81 1.57 31.30 1.57L31.30 1.57Q30.78 1.57 30.42 1.23Q30.06 0.90 30.06 0.32L30.06 0.32Q30.06-0.27 30.42-0.61Q30.78-0.94 31.30-0.94L31.30-0.94Q31.81-0.94 32.18-0.61Q32.54-0.27 32.54 0.32ZM35.22 8.10L35.47 9.68Q34.86 9.97 34.33 10.07Q33.79 10.18 33.34 10.18L33.34 10.18Q32.58 10.18 32.06 9.95Q31.54 9.73 31.22 9.30Q30.91 8.88 30.78 8.27Q30.66 7.66 30.66 6.88L30.66 6.88L30.66 4.11L28.58 4.11L28.58 2.48L32.62 2.48L32.62 7.14Q32.62 7.81 32.87 8.14Q33.12 8.46 33.70 8.46L33.70 8.46Q33.97 8.46 34.35 8.39Q34.74 8.32 35.22 8.10L35.22 8.10ZM40.74 10.21L40.74 10.21Q38.64 10.21 37.54 8.86Q36.43 7.52 36.43 5.04L36.43 5.04Q36.43 3.81 36.77 2.85Q37.10 1.89 37.70 1.22Q38.30 0.56 39.13 0.22Q39.95-0.13 40.93-0.13L40.93-0.13Q41.46-0.13 41.88-0.04Q42.30 0.05 42.62 0.16Q42.94 0.27 43.16 0.40Q43.38 0.53 43.49 0.59L43.49 0.59L42.98 2.16Q42.61 1.92 42.09 1.75Q41.57 1.58 40.90 1.58L40.90 1.58Q40.43 1.58 39.99 1.75Q39.55 1.92 39.21 2.31Q38.86 2.70 38.65 3.36Q38.43 4.02 38.43 4.99L38.43 4.99Q38.43 6.69 39.02 7.59Q39.60 8.50 40.93 8.50L40.93 8.50Q41.70 8.50 42.20 8.32Q42.70 8.14 43.01 7.97L43.01 7.97L43.50 9.52Q43.09 9.78 42.38 9.99Q41.66 10.21 40.74 10.21ZM48.02 8.59L48.02 8.59Q48.34 8.59 48.64 8.58Q48.94 8.58 49.17 8.54L49.17 8.54L49.17 6.82Q48.98 6.78 48.70 6.76Q48.43 6.74 48.21 6.74L48.21 6.74Q47.90 6.74 47.62 6.78Q47.33 6.82 47.11 6.91Q46.90 7.01 46.77 7.18Q46.64 7.36 46.64 7.65L46.64 7.65Q46.64 8.16 47.02 8.38Q47.41 8.59 48.02 8.59ZM47.84 2.29L47.84 2.29Q48.77 2.29 49.38 2.50Q50 2.72 50.37 3.11Q50.74 3.50 50.90 4.07Q51.06 4.64 51.06 5.34L51.06 5.34L51.06 9.82Q50.62 9.92 49.78 10.05Q48.93 10.18 47.87 10.18L47.87 10.18Q47.15 10.18 46.57 10.05Q45.98 9.92 45.57 9.62Q45.15 9.33 44.93 8.86Q44.70 8.38 44.70 7.70L44.70 7.70Q44.70 7.04 44.96 6.59Q45.22 6.14 45.65 5.87Q46.08 5.60 46.64 5.48Q47.20 5.36 47.81 5.36L47.81 5.36Q48.58 5.36 49.17 5.49L49.17 5.49L49.17 5.25Q49.17 4.69 48.82 4.31Q48.46 3.94 47.60 3.94L47.60 3.94Q47.04 3.94 46.52 4.02Q46 4.10 45.68 4.21L45.68 4.21L45.41 2.62Q45.78 2.50 46.45 2.39Q47.12 2.29 47.84 2.29ZM54.45 6.19L54.45 6.19Q54.45 7.20 54.82 7.84Q55.20 8.48 56.03 8.48L56.03 8.48Q56.27 8.48 56.48 8.46Q56.69 8.45 56.91 8.42L56.91 8.42L56.91 4.32Q56.69 4.19 56.40 4.10Q56.11 4.02 55.79 4.02L55.79 4.02Q55.09 4.02 54.77 4.58Q54.45 5.14 54.45 6.19ZM58.88-1.10L58.88 9.78Q58.34 9.95 57.55 10.06Q56.77 10.18 56.02 10.18L56.02 10.18Q54.26 10.18 53.35 9.14Q52.45 8.10 52.45 6.29L52.45 6.29Q52.45 4.45 53.21 3.38Q53.97 2.32 55.46 2.32L55.46 2.32Q55.86 2.32 56.24 2.41Q56.62 2.50 56.91 2.66L56.91 2.66L56.91-0.77L58.88-1.10ZM75.36 8.37L75.36 10L69.14 10L69.14 0.10L71.12 0.10L71.12 8.37L75.36 8.37ZM76.50 6.30L76.50 6.30Q76.50 5.31 76.80 4.56Q77.10 3.81 77.60 3.30Q78.10 2.80 78.74 2.54Q79.38 2.29 80.05 2.29L80.05 2.29Q81.71 2.29 82.58 3.27Q83.44 4.26 83.44 6.14L83.44 6.14Q83.44 6.34 83.43 6.54Q83.42 6.75 83.41 6.88L83.41 6.88L78.53 6.88Q78.53 7.62 79.14 8.04Q79.74 8.46 80.70 8.46L80.70 8.46Q81.30 8.46 81.83 8.34Q82.37 8.21 82.74 8.08L82.74 8.08L83.01 9.76Q82.50 9.94 81.92 10.06Q81.34 10.18 80.62 10.18L80.62 10.18Q79.66 10.18 78.90 9.93Q78.14 9.68 77.61 9.19Q77.07 8.70 76.78 7.98Q76.50 7.26 76.50 6.30ZM78.53 5.52L81.54 5.52Q81.54 5.22 81.46 4.94Q81.38 4.66 81.20 4.43Q81.02 4.21 80.75 4.07Q80.48 3.94 80.08 3.94L80.08 3.94Q79.70 3.94 79.42 4.06Q79.14 4.19 78.95 4.42Q78.77 4.64 78.66 4.93Q78.56 5.22 78.53 5.52L78.53 5.52ZM86.53 6L86.53 6Q86.53 6.93 86.86 7.42Q87.20 7.90 87.92 7.90L87.92 7.90Q88.24 7.90 88.52 7.82Q88.80 7.74 89.02 7.62L89.02 7.62L89.02 4Q88.80 3.95 88.62 3.94Q88.45 3.92 88.26 3.92L88.26 3.92Q86.53 3.92 86.53 6ZM91.01 2.72L91.01 9.09Q91.01 10.93 90.12 11.81Q89.23 12.69 87.26 12.69L87.26 12.69Q86.56 12.69 85.91 12.54Q85.26 12.40 84.67 12.21L84.67 12.21L85.04 10.54Q85.50 10.72 86.02 10.87Q86.53 11.02 87.30 11.02L87.30 11.02Q87.81 11.02 88.14 10.90Q88.48 10.78 88.67 10.58Q88.86 10.37 88.94 10.09Q89.02 9.81 89.02 9.49L89.02 9.49L89.02 9.18Q88.61 9.34 88.26 9.42Q87.92 9.50 87.52 9.50L87.52 9.50Q86.05 9.50 85.29 8.58Q84.53 7.65 84.53 6L84.53 6Q84.53 4.14 85.55 3.23Q86.58 2.32 88.34 2.32L88.34 2.32Q89.57 2.32 91.01 2.72L91.01 2.72ZM96.02 8.59L96.02 8.59Q96.34 8.59 96.64 8.58Q96.94 8.58 97.17 8.54L97.17 8.54L97.17 6.82Q96.98 6.78 96.70 6.76Q96.43 6.74 96.21 6.74L96.21 6.74Q95.90 6.74 95.62 6.78Q95.33 6.82 95.11 6.91Q94.90 7.01 94.77 7.18Q94.64 7.36 94.64 7.65L94.64 7.65Q94.64 8.16 95.02 8.38Q95.41 8.59 96.02 8.59ZM95.84 2.29L95.84 2.29Q96.77 2.29 97.38 2.50Q98 2.72 98.37 3.11Q98.74 3.50 98.90 4.07Q99.06 4.64 99.06 5.34L99.06 5.34L99.06 9.82Q98.62 9.92 97.78 10.05Q96.93 10.18 95.87 10.18L95.87 10.18Q95.15 10.18 94.57 10.05Q93.98 9.92 93.57 9.62Q93.15 9.33 92.93 8.86Q92.70 8.38 92.70 7.70L92.70 7.70Q92.70 7.04 92.96 6.59Q93.22 6.14 93.65 5.87Q94.08 5.60 94.64 5.48Q95.20 5.36 95.81 5.36L95.81 5.36Q96.58 5.36 97.17 5.49L97.17 5.49L97.17 5.25Q97.17 4.69 96.82 4.31Q96.46 3.94 95.60 3.94L95.60 3.94Q95.04 3.94 94.52 4.02Q94 4.10 93.68 4.21L93.68 4.21L93.41 2.62Q93.78 2.50 94.45 2.39Q95.12 2.29 95.84 2.29ZM100.70 6.24L100.70 6.24Q100.70 5.42 100.96 4.70Q101.22 3.98 101.74 3.45Q102.27 2.91 103.08 2.60Q103.89 2.29 105.01 2.29L105.01 2.29Q105.68 2.29 106.22 2.38Q106.77 2.48 107.33 2.70L107.33 2.70L106.90 4.29Q106.58 4.18 106.18 4.09Q105.79 4 105.18 4L105.18 4Q104.48 4 104.01 4.17Q103.54 4.34 103.25 4.63Q102.96 4.93 102.83 5.34Q102.70 5.76 102.70 6.24L102.70 6.24Q102.70 7.28 103.29 7.87Q103.87 8.46 105.28 8.46L105.28 8.46Q105.74 8.46 106.25 8.40Q106.75 8.34 107.17 8.19L107.17 8.19L107.46 9.81Q107.04 9.97 106.45 10.07Q105.86 10.18 105.06 10.18L105.06 10.18Q103.90 10.18 103.08 9.87Q102.26 9.57 101.73 9.04Q101.20 8.51 100.95 7.79Q100.70 7.07 100.70 6.24ZM113.54 2.48L115.55 2.48Q115.25 3.54 114.97 4.55Q114.69 5.57 114.38 6.54Q114.08 7.50 113.74 8.43Q113.39 9.36 112.99 10.24L112.99 10.24Q112.69 10.88 112.39 11.34Q112.10 11.81 111.74 12.10Q111.38 12.40 110.94 12.54Q110.50 12.69 109.90 12.69L109.90 12.69Q109.41 12.69 109 12.61Q108.59 12.53 108.32 12.40L108.32 12.40L108.69 10.75Q109.01 10.90 109.26 10.95Q109.50 11.01 109.79 11.01L109.79 11.01Q110.37 11.01 110.72 10.62Q111.07 10.24 111.28 9.71L111.28 9.71Q110.58 8.30 109.87 6.49Q109.17 4.67 108.59 2.48L108.59 2.48L110.64 2.48Q110.78 3.07 110.97 3.74Q111.15 4.42 111.36 5.09Q111.57 5.76 111.80 6.41Q112.03 7.06 112.27 7.62L112.27 7.62Q112.43 7.06 112.61 6.41Q112.78 5.76 112.94 5.10Q113.10 4.43 113.26 3.76Q113.41 3.09 113.54 2.48L113.54 2.48ZM131.36 8.37L131.36 10L125.14 10L125.14 0.10L127.12 0.10L127.12 8.37L131.36 8.37ZM136.02 8.59L136.02 8.59Q136.34 8.59 136.64 8.58Q136.94 8.58 137.17 8.54L137.17 8.54L137.17 6.82Q136.98 6.78 136.70 6.76Q136.43 6.74 136.21 6.74L136.21 6.74Q135.90 6.74 135.62 6.78Q135.33 6.82 135.11 6.91Q134.90 7.01 134.77 7.18Q134.64 7.36 134.64 7.65L134.64 7.65Q134.64 8.16 135.02 8.38Q135.41 8.59 136.02 8.59ZM135.84 2.29L135.84 2.29Q136.77 2.29 137.38 2.50Q138 2.72 138.37 3.11Q138.74 3.50 138.90 4.07Q139.06 4.64 139.06 5.34L139.06 5.34L139.06 9.82Q138.62 9.92 137.78 10.05Q136.93 10.18 135.87 10.18L135.87 10.18Q135.15 10.18 134.57 10.05Q133.98 9.92 133.57 9.62Q133.15 9.33 132.93 8.86Q132.70 8.38 132.70 7.70L132.70 7.70Q132.70 7.04 132.96 6.59Q133.22 6.14 133.65 5.87Q134.08 5.60 134.64 5.48Q135.20 5.36 135.81 5.36L135.81 5.36Q136.58 5.36 137.17 5.49L137.17 5.49L137.17 5.25Q137.17 4.69 136.82 4.31Q136.46 3.94 135.60 3.94L135.60 3.94Q135.04 3.94 134.52 4.02Q134 4.10 133.68 4.21L133.68 4.21L133.41 2.62Q133.78 2.50 134.45 2.39Q135.12 2.29 135.84 2.29ZM145.54 2.48L147.55 2.48Q147.25 3.54 146.97 4.55Q146.69 5.57 146.38 6.54Q146.08 7.50 145.74 8.43Q145.39 9.36 144.99 10.24L144.99 10.24Q144.69 10.88 144.39 11.34Q144.10 11.81 143.74 12.10Q143.38 12.40 142.94 12.54Q142.50 12.69 141.90 12.69L141.90 12.69Q141.41 12.69 141 12.61Q140.59 12.53 140.32 12.40L140.32 12.40L140.69 10.75Q141.01 10.90 141.26 10.95Q141.50 11.01 141.79 11.01L141.79 11.01Q142.37 11.01 142.72 10.62Q143.07 10.24 143.28 9.71L143.28 9.71Q142.58 8.30 141.87 6.49Q141.17 4.67 140.59 2.48L140.59 2.48L142.64 2.48Q142.78 3.07 142.97 3.74Q143.15 4.42 143.36 5.09Q143.57 5.76 143.80 6.41Q144.03 7.06 144.27 7.62L144.27 7.62Q144.43 7.06 144.61 6.41Q144.78 5.76 144.94 5.10Q145.10 4.43 145.26 3.76Q145.41 3.09 145.54 2.48L145.54 2.48ZM155.55 6.22L155.55 6.22Q155.55 7.12 155.30 7.85Q155.04 8.58 154.58 9.10Q154.11 9.63 153.46 9.92Q152.82 10.21 152.02 10.21L152.02 10.21Q151.22 10.21 150.57 9.92Q149.92 9.63 149.45 9.10Q148.98 8.58 148.72 7.85Q148.46 7.12 148.46 6.22L148.46 6.22Q148.46 5.34 148.73 4.62Q148.99 3.89 149.46 3.37Q149.94 2.85 150.59 2.57Q151.25 2.29 152.02 2.29L152.02 2.29Q152.80 2.29 153.45 2.57Q154.10 2.85 154.57 3.37Q155.04 3.89 155.30 4.62Q155.55 5.34 155.55 6.22ZM150.46 6.24L150.46 6.24Q150.46 7.25 150.82 7.87Q151.18 8.50 151.98 8.50L151.98 8.50Q152.75 8.50 153.14 7.87Q153.54 7.25 153.54 6.24L153.54 6.24Q153.54 5.23 153.18 4.62Q152.82 4 152.02 4L152.02 4Q151.25 4 150.86 4.62Q150.46 5.23 150.46 6.24ZM163.01 2.48L163.01 9.74Q162.46 9.89 161.69 10.03Q160.91 10.18 160 10.18L160 10.18Q159.07 10.18 158.48 9.92Q157.89 9.66 157.54 9.19Q157.20 8.72 157.07 8.08Q156.94 7.44 156.94 6.67L156.94 6.67L156.94 2.48L158.91 2.48L158.91 6.42Q158.91 7.46 159.16 7.96Q159.41 8.46 160.13 8.46L160.13 8.46Q160.58 8.46 161.02 8.38L161.02 8.38L161.02 2.48L163.01 2.48ZM166.29 7.20L166.29 4.11L164.58 4.11L164.58 2.48L166.29 2.48L166.29 0.59L168.26 0.27L168.26 2.48L171.41 2.48L171.41 4.11L168.26 4.11L168.26 7.15Q168.26 7.57 168.34 7.82Q168.42 8.08 168.56 8.22Q168.70 8.37 168.91 8.42Q169.12 8.46 169.38 8.46L169.38 8.46Q169.65 8.46 169.88 8.45Q170.11 8.43 170.33 8.39Q170.54 8.35 170.78 8.27Q171.01 8.19 171.28 8.06L171.28 8.06L171.55 9.76Q171.01 9.98 170.38 10.08Q169.74 10.18 169.15 10.18L169.15 10.18Q168.46 10.18 167.94 10.06Q167.41 9.95 167.04 9.63Q166.67 9.31 166.48 8.73Q166.29 8.14 166.29 7.20L166.29 7.20Z"/>
    </g>
</svg>