<?xml version="1.0" encoding="UTF-8"?>
<svg height="34" width="271.9" version="1.1" xmlns="http://www.w3.org/2000/svg">
    <rect
        height="32"
        width="269.9"
        rx="16"
        ry="16"
        x="1"
        y="1"
        fill="#2f4aab"
        stroke="#0e1634"
        stroke-width="1"
         />
    <g transform="translate(0, 12)">
        <path fill="#0e1634" d="M31.74 12L28.40 12Q28.14 11.16 27.64 10.19Q27.15 9.22 26.55 8.29Q25.95 7.37 25.29 6.56Q24.63 5.76 24.03 5.21L24.03 5.21L24.03 12L21.08 12L21.08-2.86L24.03-2.86L24.03 3.31Q24.56 2.64 25.14 1.82Q25.71 1.01 26.23 0.19Q26.74-0.62 27.18-1.42Q27.61-2.21 27.90-2.86L27.90-2.86L31.23-2.86Q30.90-2.21 30.43-1.38Q29.96-0.55 29.36 0.35Q28.76 1.25 28.08 2.18Q27.39 3.12 26.65 3.98L26.65 3.98Q27.39 4.70 28.16 5.64Q28.93 6.58 29.61 7.64Q30.30 8.71 30.85 9.83Q31.40 10.94 31.74 12L31.74 12ZM38.82-2.52L38.82-2.52Q38.82-1.66 38.26-1.15Q37.71-0.65 36.94-0.65L36.94-0.65Q36.18-0.65 35.64-1.15Q35.10-1.66 35.10-2.52L35.10-2.52Q35.10-3.41 35.64-3.91Q36.18-4.42 36.94-4.42L36.94-4.42Q37.71-4.42 38.26-3.91Q38.82-3.41 38.82-2.52ZM42.82 9.14L43.21 11.52Q42.30 11.95 41.49 12.11Q40.69 12.26 40.02 12.26L40.02 12.26Q38.86 12.26 38.08 11.93Q37.30 11.59 36.84 10.96Q36.37 10.32 36.18 9.41Q35.98 8.50 35.98 7.32L35.98 7.32L35.98 3.17L32.86 3.17L32.86 0.72L38.94 0.72L38.94 7.70Q38.94 8.71 39.31 9.20Q39.68 9.70 40.54 9.70L40.54 9.70Q40.95 9.70 41.53 9.59Q42.10 9.48 42.82 9.14L42.82 9.14ZM51.10 12.31L51.10 12.31Q47.96 12.31 46.30 10.30Q44.65 8.28 44.65 4.56L44.65 4.56Q44.65 2.71 45.15 1.27Q45.66-0.17 46.56-1.16Q47.46-2.16 48.69-2.68Q49.93-3.19 51.39-3.19L51.39-3.19Q52.18-3.19 52.82-3.06Q53.46-2.93 53.94-2.76Q54.42-2.59 54.74-2.40Q55.06-2.21 55.23-2.11L55.23-2.11L54.46 0.24Q53.91-0.12 53.13-0.37Q52.35-0.62 51.34-0.62L51.34-0.62Q50.65-0.62 49.99-0.37Q49.33-0.12 48.81 0.47Q48.30 1.06 47.97 2.04Q47.65 3.02 47.65 4.49L47.65 4.49Q47.65 7.03 48.52 8.39Q49.40 9.74 51.39 9.74L51.39 9.74Q52.54 9.74 53.30 9.48Q54.06 9.22 54.51 8.95L54.51 8.95L55.26 11.28Q54.63 11.66 53.56 11.99Q52.50 12.31 51.10 12.31ZM62.02 9.89L62.02 9.89Q62.50 9.89 62.96 9.88Q63.42 9.86 63.75 9.82L63.75 9.82L63.75 7.22Q63.46 7.18 63.06 7.14Q62.65 7.10 62.31 7.10L62.31 7.10Q61.86 7.10 61.42 7.16Q60.99 7.22 60.67 7.37Q60.34 7.51 60.15 7.78Q59.96 8.04 59.96 8.47L59.96 8.47Q59.96 9.24 60.54 9.56Q61.11 9.89 62.02 9.89ZM61.76 0.43L61.76 0.43Q63.15 0.43 64.08 0.76Q65 1.08 65.55 1.67Q66.10 2.26 66.34 3.11Q66.58 3.96 66.58 5.02L66.58 5.02L66.58 11.74Q65.94 11.88 64.66 12.07Q63.39 12.26 61.81 12.26L61.81 12.26Q60.73 12.26 59.85 12.07Q58.98 11.88 58.35 11.44Q57.73 10.99 57.39 10.28Q57.06 9.58 57.06 8.54L57.06 8.54Q57.06 7.56 57.44 6.89Q57.82 6.22 58.47 5.81Q59.12 5.40 59.96 5.22Q60.80 5.04 61.71 5.04L61.71 5.04Q62.86 5.04 63.75 5.23L63.75 5.23L63.75 4.87Q63.75 4.03 63.22 3.47Q62.70 2.90 61.40 2.90L61.40 2.90Q60.56 2.90 59.78 3.02Q59 3.14 58.52 3.31L58.52 3.31L58.11 0.94Q58.66 0.74 59.67 0.59Q60.68 0.43 61.76 0.43ZM71.67 6.29L71.67 6.29Q71.67 7.80 72.24 8.76Q72.80 9.72 74.05 9.72L74.05 9.72Q74.41 9.72 74.72 9.70Q75.03 9.67 75.37 9.62L75.37 9.62L75.37 3.48Q75.03 3.29 74.60 3.16Q74.17 3.02 73.69 3.02L73.69 3.02Q72.63 3.02 72.15 3.86Q71.67 4.70 71.67 6.29ZM78.32-4.66L78.32 11.66Q77.50 11.93 76.33 12.10Q75.15 12.26 74.02 12.26L74.02 12.26Q71.38 12.26 70.03 10.70Q68.67 9.14 68.67 6.43L68.67 6.43Q68.67 3.67 69.81 2.08Q70.95 0.48 73.18 0.48L73.18 0.48Q73.78 0.48 74.36 0.61Q74.94 0.74 75.37 0.98L75.37 0.98L75.37-4.15L78.32-4.66ZM103.04 9.55L103.04 12L93.70 12L93.70-2.86L96.68-2.86L96.68 9.55L103.04 9.55ZM104.74 6.46L104.74 6.46Q104.74 4.97 105.20 3.84Q105.66 2.71 106.40 1.96Q107.14 1.20 108.10 0.82Q109.06 0.43 110.07 0.43L110.07 0.43Q112.57 0.43 113.86 1.91Q115.16 3.38 115.16 6.22L115.16 6.22Q115.16 6.50 115.15 6.82Q115.14 7.13 115.11 7.32L115.11 7.32L107.79 7.32Q107.79 8.42 108.70 9.06Q109.62 9.70 111.06 9.70L111.06 9.70Q111.94 9.70 112.75 9.50Q113.55 9.31 114.10 9.12L114.10 9.12L114.51 11.64Q113.74 11.90 112.88 12.08Q112.02 12.26 110.94 12.26L110.94 12.26Q109.50 12.26 108.36 11.89Q107.22 11.52 106.41 10.79Q105.61 10.06 105.18 8.98Q104.74 7.90 104.74 6.46ZM107.79 5.28L112.30 5.28Q112.30 4.82 112.18 4.40Q112.06 3.98 111.80 3.65Q111.54 3.31 111.13 3.11Q110.72 2.90 110.12 2.90L110.12 2.90Q109.54 2.90 109.12 3.10Q108.70 3.29 108.43 3.62Q108.15 3.96 108.00 4.39Q107.84 4.82 107.79 5.28L107.79 5.28ZM119.79 6L119.79 6Q119.79 7.39 120.30 8.12Q120.80 8.86 121.88 8.86L121.88 8.86Q122.36 8.86 122.78 8.74Q123.20 8.62 123.54 8.42L123.54 8.42L123.54 3Q123.20 2.93 122.94 2.90Q122.67 2.88 122.38 2.88L122.38 2.88Q119.79 2.88 119.79 6ZM126.51 1.08L126.51 10.63Q126.51 13.39 125.18 14.71Q123.85 16.03 120.90 16.03L120.90 16.03Q119.84 16.03 118.87 15.82Q117.90 15.60 117.01 15.31L117.01 15.31L117.56 12.82Q118.26 13.08 119.02 13.31Q119.79 13.54 120.94 13.54L120.94 13.54Q121.71 13.54 122.22 13.36Q122.72 13.18 123.01 12.86Q123.30 12.55 123.42 12.13Q123.54 11.71 123.54 11.23L123.54 11.23L123.54 10.78Q122.91 11.02 122.40 11.14Q121.88 11.26 121.28 11.26L121.28 11.26Q119.07 11.26 117.93 9.86Q116.79 8.47 116.79 6L116.79 6Q116.79 3.22 118.33 1.85Q119.86 0.48 122.50 0.48L122.50 0.48Q124.35 0.48 126.51 1.08L126.51 1.08ZM134.02 9.89L134.02 9.89Q134.50 9.89 134.96 9.88Q135.42 9.86 135.75 9.82L135.75 9.82L135.75 7.22Q135.46 7.18 135.06 7.14Q134.65 7.10 134.31 7.10L134.31 7.10Q133.86 7.10 133.42 7.16Q132.99 7.22 132.67 7.37Q132.34 7.51 132.15 7.78Q131.96 8.04 131.96 8.47L131.96 8.47Q131.96 9.24 132.54 9.56Q133.11 9.89 134.02 9.89ZM133.76 0.43L133.76 0.43Q135.15 0.43 136.08 0.76Q137 1.08 137.55 1.67Q138.10 2.26 138.34 3.11Q138.58 3.96 138.58 5.02L138.58 5.02L138.58 11.74Q137.94 11.88 136.66 12.07Q135.39 12.26 133.81 12.26L133.81 12.26Q132.73 12.26 131.85 12.07Q130.98 11.88 130.35 11.44Q129.73 10.99 129.39 10.28Q129.06 9.58 129.06 8.54L129.06 8.54Q129.06 7.56 129.44 6.89Q129.82 6.22 130.47 5.81Q131.12 5.40 131.96 5.22Q132.80 5.04 133.71 5.04L133.71 5.04Q134.86 5.04 135.75 5.23L135.75 5.23L135.75 4.87Q135.75 4.03 135.22 3.47Q134.70 2.90 133.40 2.90L133.40 2.90Q132.56 2.90 131.78 3.02Q131 3.14 130.52 3.31L130.52 3.31L130.11 0.94Q130.66 0.74 131.67 0.59Q132.68 0.43 133.76 0.43ZM141.06 6.36L141.06 6.36Q141.06 5.14 141.44 4.06Q141.82 2.98 142.62 2.17Q143.41 1.37 144.62 0.90Q145.83 0.43 147.51 0.43L147.51 0.43Q148.52 0.43 149.34 0.58Q150.15 0.72 150.99 1.06L150.99 1.06L150.34 3.43Q149.86 3.26 149.28 3.13Q148.69 3 147.78 3L147.78 3Q146.72 3 146.01 3.25Q145.30 3.50 144.87 3.95Q144.44 4.39 144.25 5.02Q144.06 5.64 144.06 6.36L144.06 6.36Q144.06 7.92 144.93 8.81Q145.81 9.70 147.92 9.70L147.92 9.70Q148.62 9.70 149.37 9.60Q150.13 9.50 150.75 9.29L150.75 9.29L151.18 11.71Q150.56 11.95 149.67 12.11Q148.78 12.26 147.58 12.26L147.58 12.26Q145.86 12.26 144.62 11.81Q143.38 11.35 142.59 10.56Q141.80 9.77 141.43 8.69Q141.06 7.61 141.06 6.36ZM160.30 0.72L163.33 0.72Q162.87 2.30 162.45 3.83Q162.03 5.35 161.58 6.80Q161.12 8.26 160.60 9.65Q160.09 11.04 159.49 12.36L159.49 12.36Q159.03 13.32 158.59 14.02Q158.14 14.71 157.60 15.16Q157.06 15.60 156.40 15.82Q155.74 16.03 154.86 16.03L154.86 16.03Q154.11 16.03 153.50 15.91Q152.89 15.79 152.48 15.60L152.48 15.60L153.03 13.13Q153.51 13.34 153.88 13.43Q154.26 13.51 154.69 13.51L154.69 13.51Q155.55 13.51 156.08 12.94Q156.61 12.36 156.92 11.57L156.92 11.57Q155.86 9.46 154.81 6.73Q153.75 4.01 152.89 0.72L152.89 0.72L155.96 0.72Q156.18 1.61 156.45 2.62Q156.73 3.62 157.04 4.63Q157.35 5.64 157.70 6.61Q158.05 7.58 158.41 8.42L158.41 8.42Q158.65 7.58 158.91 6.61Q159.18 5.64 159.42 4.64Q159.66 3.65 159.88 2.64Q160.11 1.63 160.30 0.72L160.30 0.72ZM187.04 9.55L187.04 12L177.70 12L177.70-2.86L180.68-2.86L180.68 9.55L187.04 9.55ZM194.02 9.89L194.02 9.89Q194.50 9.89 194.96 9.88Q195.42 9.86 195.75 9.82L195.75 9.82L195.75 7.22Q195.46 7.18 195.06 7.14Q194.65 7.10 194.31 7.10L194.31 7.10Q193.86 7.10 193.42 7.16Q192.99 7.22 192.67 7.37Q192.34 7.51 192.15 7.78Q191.96 8.04 191.96 8.47L191.96 8.47Q191.96 9.24 192.54 9.56Q193.11 9.89 194.02 9.89ZM193.76 0.43L193.76 0.43Q195.15 0.43 196.08 0.76Q197 1.08 197.55 1.67Q198.10 2.26 198.34 3.11Q198.58 3.96 198.58 5.02L198.58 5.02L198.58 11.74Q197.94 11.88 196.66 12.07Q195.39 12.26 193.81 12.26L193.81 12.26Q192.73 12.26 191.85 12.07Q190.98 11.88 190.35 11.44Q189.73 10.99 189.39 10.28Q189.06 9.58 189.06 8.54L189.06 8.54Q189.06 7.56 189.44 6.89Q189.82 6.22 190.47 5.81Q191.12 5.40 191.96 5.22Q192.80 5.04 193.71 5.04L193.71 5.04Q194.86 5.04 195.75 5.23L195.75 5.23L195.75 4.87Q195.75 4.03 195.22 3.47Q194.70 2.90 193.40 2.90L193.40 2.90Q192.56 2.90 191.78 3.02Q191 3.14 190.52 3.31L190.52 3.31L190.11 0.94Q190.66 0.74 191.67 0.59Q192.68 0.43 193.76 0.43ZM208.30 0.72L211.33 0.72Q210.87 2.30 210.45 3.83Q210.03 5.35 209.58 6.80Q209.12 8.26 208.60 9.65Q208.09 11.04 207.49 12.36L207.49 12.36Q207.03 13.32 206.59 14.02Q206.14 14.71 205.60 15.16Q205.06 15.60 204.40 15.82Q203.74 16.03 202.86 16.03L202.86 16.03Q202.11 16.03 201.50 15.91Q200.89 15.79 200.48 15.60L200.48 15.60L201.03 13.13Q201.51 13.34 201.88 13.43Q202.26 13.51 202.69 13.51L202.69 13.51Q203.55 13.51 204.08 12.94Q204.61 12.36 204.92 11.57L204.92 11.57Q203.86 9.46 202.81 6.73Q201.75 4.01 200.89 0.72L200.89 0.72L203.96 0.72Q204.18 1.61 204.45 2.62Q204.73 3.62 205.04 4.63Q205.35 5.64 205.70 6.61Q206.05 7.58 206.41 8.42L206.41 8.42Q206.65 7.58 206.91 6.61Q207.18 5.64 207.42 4.64Q207.66 3.65 207.88 2.64Q208.11 1.63 208.30 0.72L208.30 0.72ZM223.33 6.34L223.33 6.34Q223.33 7.68 222.94 8.77Q222.56 9.86 221.86 10.66Q221.17 11.45 220.20 11.88Q219.22 12.31 218.02 12.31L218.02 12.31Q216.82 12.31 215.85 11.88Q214.88 11.45 214.17 10.66Q213.46 9.86 213.08 8.77Q212.70 7.68 212.70 6.34L212.70 6.34Q212.70 5.02 213.09 3.92Q213.49 2.83 214.20 2.05Q214.90 1.27 215.89 0.85Q216.87 0.43 218.02 0.43L218.02 0.43Q219.20 0.43 220.17 0.85Q221.14 1.27 221.85 2.05Q222.56 2.83 222.94 3.92Q223.33 5.02 223.33 6.34ZM215.70 6.36L215.70 6.36Q215.70 7.87 216.24 8.81Q216.78 9.74 217.98 9.74L217.98 9.74Q219.13 9.74 219.72 8.81Q220.30 7.87 220.30 6.36L220.30 6.36Q220.30 4.85 219.76 3.92Q219.22 3 218.02 3L218.02 3Q216.87 3 216.28 3.92Q215.70 4.85 215.70 6.36ZM234.51 0.72L234.51 11.62Q233.70 11.83 232.53 12.05Q231.37 12.26 230 12.26L230 12.26Q228.61 12.26 227.72 11.88Q226.83 11.50 226.32 10.79Q225.80 10.08 225.61 9.12Q225.42 8.16 225.42 7.01L225.42 7.01L225.42 0.72L228.37 0.72L228.37 6.62Q228.37 8.18 228.74 8.94Q229.11 9.70 230.19 9.70L230.19 9.70Q230.86 9.70 231.54 9.58L231.54 9.58L231.54 0.72L234.51 0.72ZM239.43 7.80L239.43 3.17L236.86 3.17L236.86 0.72L239.43 0.72L239.43-2.11L242.38-2.59L242.38 0.72L247.11 0.72L247.11 3.17L242.38 3.17L242.38 7.73Q242.38 8.35 242.50 8.74Q242.62 9.12 242.84 9.34Q243.06 9.55 243.37 9.62Q243.68 9.70 244.06 9.70L244.06 9.70Q244.47 9.70 244.82 9.67Q245.17 9.65 245.49 9.59Q245.82 9.53 246.16 9.41Q246.51 9.29 246.92 9.10L246.92 9.10L247.33 11.64Q246.51 11.98 245.56 12.12Q244.62 12.26 243.73 12.26L243.73 12.26Q242.70 12.26 241.90 12.10Q241.11 11.93 240.56 11.45Q240.01 10.97 239.72 10.09Q239.43 9.22 239.43 7.80L239.43 7.80Z"/>
    </g>
</svg>