<?xml version="1.0" encoding="UTF-8"?>
<svg height="34" width="163" version="1.1" xmlns="http://www.w3.org/2000/svg"><!--Created by Josélio de S. C. Júnior - 2021 - https://github.com/joseliojunior -->
    <rect
        height="32"
        width="161"
        rx="1"
        ry="1"
        x="1" y="1"
        fill="#264b99"
        stroke="#070e1d"
        stroke-width="1" />
    <g transform="translate(0, 12)">
        <path fill="#070e1d" d="M30.73 12L21.30 12L21.30 9.55L24.54 9.55L24.54-0.41L21.30-0.41L21.30-2.86L30.73-2.86L30.73-0.41L27.51-0.41L27.51 9.55L30.73 9.55L30.73 12ZM33.51 12L33.51 1.08Q34.30 0.86 35.47 0.67Q36.63 0.48 38 0.48L38 0.48Q39.34 0.48 40.23 0.85Q41.12 1.22 41.64 1.91Q42.15 2.59 42.37 3.54Q42.58 4.49 42.58 5.64L42.58 5.64L42.58 12L39.63 12L39.63 6.02Q39.63 4.44 39.27 3.74Q38.91 3.05 37.81 3.05L37.81 3.05Q37.47 3.05 37.15 3.07Q36.82 3.10 36.46 3.14L36.46 3.14L36.46 12L33.51 12ZM45.51 12L45.51 1.08Q46.30 0.86 47.47 0.67Q48.63 0.48 50 0.48L50 0.48Q51.34 0.48 52.23 0.85Q53.12 1.22 53.64 1.91Q54.15 2.59 54.37 3.54Q54.58 4.49 54.58 5.64L54.58 5.64L54.58 12L51.63 12L51.63 6.02Q51.63 4.44 51.27 3.74Q50.91 3.05 49.81 3.05L49.81 3.05Q49.47 3.05 49.15 3.07Q48.82 3.10 48.46 3.14L48.46 3.14L48.46 12L45.51 12ZM67.33 6.34L67.33 6.34Q67.33 7.68 66.94 8.77Q66.56 9.86 65.86 10.66Q65.17 11.45 64.20 11.88Q63.22 12.31 62.02 12.31L62.02 12.31Q60.82 12.31 59.85 11.88Q58.88 11.45 58.17 10.66Q57.46 9.86 57.08 8.77Q56.70 7.68 56.70 6.34L56.70 6.34Q56.70 5.02 57.09 3.92Q57.49 2.83 58.20 2.05Q58.90 1.27 59.89 0.85Q60.87 0.43 62.02 0.43L62.02 0.43Q63.20 0.43 64.17 0.85Q65.14 1.27 65.85 2.05Q66.56 2.83 66.94 3.92Q67.33 5.02 67.33 6.34ZM59.70 6.36L59.70 6.36Q59.70 7.87 60.24 8.81Q60.78 9.74 61.98 9.74L61.98 9.74Q63.13 9.74 63.72 8.81Q64.30 7.87 64.30 6.36L64.30 6.36Q64.30 4.85 63.76 3.92Q63.22 3 62.02 3L62.02 3Q60.87 3 60.28 3.92Q59.70 4.85 59.70 6.36ZM85.57 9.84L85.57 9.84Q86.31 9.84 86.80 9.68Q87.30 9.53 87.58 9.25Q87.87 8.98 87.98 8.63Q88.09 8.28 88.09 7.92L88.09 7.92Q88.09 7.46 87.82 7.10Q87.56 6.74 87.15 6.47Q86.74 6.19 86.24 5.96Q85.74 5.74 85.23 5.54L85.23 5.54Q84.56 5.30 83.84 4.99Q83.12 4.68 82.53 4.20Q81.94 3.72 81.56 3.01Q81.18 2.30 81.18 1.25L81.18 1.25Q81.18-0.84 82.53-2.02Q83.89-3.19 86.26-3.19L86.26-3.19Q87.63-3.19 88.65-2.88Q89.67-2.57 90.37-2.18L90.37-2.18L89.50 0.10Q88.90-0.24 88.17-0.48Q87.44-0.72 86.48-0.72L86.48-0.72Q84.13-0.72 84.13 0.98L84.13 0.98Q84.13 1.42 84.37 1.74Q84.61 2.06 84.98 2.32Q85.35 2.57 85.82 2.76Q86.29 2.95 86.74 3.12L86.74 3.12Q87.44 3.38 88.20 3.71Q88.95 4.03 89.59 4.57Q90.22 5.11 90.63 5.92Q91.04 6.72 91.04 7.94L91.04 7.94Q91.04 10.03 89.68 11.17Q88.33 12.31 85.57 12.31L85.57 12.31Q83.72 12.31 82.62 11.92Q81.51 11.52 80.96 11.18L80.96 11.18L81.82 8.78Q82.47 9.17 83.37 9.50Q84.27 9.84 85.57 9.84ZM92.74 6.46L92.74 6.46Q92.74 4.97 93.20 3.84Q93.66 2.71 94.40 1.96Q95.14 1.20 96.10 0.82Q97.06 0.43 98.07 0.43L98.07 0.43Q100.57 0.43 101.86 1.91Q103.16 3.38 103.16 6.22L103.16 6.22Q103.16 6.50 103.15 6.82Q103.14 7.13 103.11 7.32L103.11 7.32L95.79 7.32Q95.79 8.42 96.70 9.06Q97.62 9.70 99.06 9.70L99.06 9.70Q99.94 9.70 100.75 9.50Q101.55 9.31 102.10 9.12L102.10 9.12L102.51 11.64Q101.74 11.90 100.88 12.08Q100.02 12.26 98.94 12.26L98.94 12.26Q97.50 12.26 96.36 11.89Q95.22 11.52 94.41 10.79Q93.61 10.06 93.18 8.98Q92.74 7.90 92.74 6.46ZM95.79 5.28L100.30 5.28Q100.30 4.82 100.18 4.40Q100.06 3.98 99.80 3.65Q99.54 3.31 99.13 3.11Q98.72 2.90 98.12 2.90L98.12 2.90Q97.54 2.90 97.12 3.10Q96.70 3.29 96.43 3.62Q96.15 3.96 96.00 4.39Q95.84 4.82 95.79 5.28L95.79 5.28ZM107.43 7.80L107.43 3.17L104.86 3.17L104.86 0.72L107.43 0.72L107.43-2.11L110.38-2.59L110.38 0.72L115.11 0.72L115.11 3.17L110.38 3.17L110.38 7.73Q110.38 8.35 110.50 8.74Q110.62 9.12 110.84 9.34Q111.06 9.55 111.37 9.62Q111.68 9.70 112.06 9.70L112.06 9.70Q112.47 9.70 112.82 9.67Q113.17 9.65 113.49 9.59Q113.82 9.53 114.16 9.41Q114.51 9.29 114.92 9.10L114.92 9.10L115.33 11.64Q114.51 11.98 113.56 12.12Q112.62 12.26 111.73 12.26L111.73 12.26Q110.70 12.26 109.90 12.10Q109.11 11.93 108.56 11.45Q108.01 10.97 107.72 10.09Q107.43 9.22 107.43 7.80L107.43 7.80ZM126.51 0.72L126.51 11.62Q125.70 11.83 124.53 12.05Q123.37 12.26 122 12.26L122 12.26Q120.61 12.26 119.72 11.88Q118.83 11.50 118.32 10.79Q117.80 10.08 117.61 9.12Q117.42 8.16 117.42 7.01L117.42 7.01L117.42 0.72L120.37 0.72L120.37 6.62Q120.37 8.18 120.74 8.94Q121.11 9.70 122.19 9.70L122.19 9.70Q122.86 9.70 123.54 9.58L123.54 9.58L123.54 0.72L126.51 0.72ZM136.26 6.46L136.26 6.46Q136.26 4.94 135.66 3.97Q135.06 3 133.83 3L133.83 3Q133.50 3 133.11 3.04Q132.73 3.07 132.46 3.10L132.46 3.10L132.46 9.29Q132.75 9.48 133.23 9.60Q133.71 9.72 134.19 9.72L134.19 9.72Q135.25 9.72 135.75 8.87Q136.26 8.02 136.26 6.46ZM139.26 6.36L139.26 6.36Q139.26 7.66 138.97 8.75Q138.68 9.84 138.13 10.62Q137.58 11.40 136.74 11.83Q135.90 12.26 134.79 12.26L134.79 12.26Q133.66 12.26 132.46 11.71L132.46 11.71L132.46 15.96L129.51 15.96L129.51 1.08Q130.33 0.82 131.52 0.65Q132.70 0.48 133.86 0.48L133.86 0.48Q136.47 0.48 137.86 2.06Q139.26 3.65 139.26 6.36Z"/>
    </g>
</svg>