<?xml version="1.0" encoding="UTF-8"?><svg height="26" width="123" version="1.1" xmlns="http://www.w3.org/2000/svg"><!--Created by Josélio de S. C. Júnior - 2021 - https://github.com/joseliojunior --><rect height="24" width="121" rx="1" ry="1" x="1" y="1" fill="#264b99" stroke="#070e1d" stroke-width="1" /><g transform="translate(0, 8)"><path fill="#070e1d" d="M27.15 10L20.86 10L20.86 8.37L23.02 8.37L23.02 1.73L20.86 1.73L20.86 0.10L27.15 0.10L27.15 1.73L25.01 1.73L25.01 8.37L27.15 8.37L27.15 10ZM29.01 10L29.01 2.72Q29.54 2.58 30.31 2.45Q31.09 2.32 32 2.32L32 2.32Q32.90 2.32 33.49 2.57Q34.08 2.82 34.42 3.27Q34.77 3.73 34.91 4.36Q35.06 4.99 35.06 5.76L35.06 5.76L35.06 10L33.09 10L33.09 6.02Q33.09 4.96 32.85 4.50Q32.61 4.03 31.87 4.03L31.87 4.03Q31.65 4.03 31.43 4.05Q31.22 4.06 30.98 4.10L30.98 4.10L30.98 10L29.01 10ZM37.01 10L37.01 2.72Q37.54 2.58 38.31 2.45Q39.09 2.32 40 2.32L40 2.32Q40.90 2.32 41.49 2.57Q42.08 2.82 42.42 3.27Q42.77 3.73 42.91 4.36Q43.06 4.99 43.06 5.76L43.06 5.76L43.06 10L41.09 10L41.09 6.02Q41.09 4.96 40.85 4.50Q40.61 4.03 39.87 4.03L39.87 4.03Q39.65 4.03 39.43 4.05Q39.22 4.06 38.98 4.10L38.98 4.10L38.98 10L37.01 10ZM51.55 6.22L51.55 6.22Q51.55 7.12 51.30 7.85Q51.04 8.58 50.58 9.10Q50.11 9.63 49.46 9.92Q48.82 10.21 48.02 10.21L48.02 10.21Q47.22 10.21 46.57 9.92Q45.92 9.63 45.45 9.10Q44.98 8.58 44.72 7.85Q44.46 7.12 44.46 6.22L44.46 6.22Q44.46 5.34 44.73 4.62Q44.99 3.89 45.46 3.37Q45.94 2.85 46.59 2.57Q47.25 2.29 48.02 2.29L48.02 2.29Q48.80 2.29 49.45 2.57Q50.10 2.85 50.57 3.37Q51.04 3.89 51.30 4.62Q51.55 5.34 51.55 6.22ZM46.46 6.24L46.46 6.24Q46.46 7.25 46.82 7.87Q47.18 8.50 47.98 8.50L47.98 8.50Q48.75 8.50 49.14 7.87Q49.54 7.25 49.54 6.24L49.54 6.24Q49.54 5.23 49.18 4.62Q48.82 4 48.02 4L48.02 4Q47.25 4 46.86 4.62Q46.46 5.23 46.46 6.24ZM63.71 8.56L63.71 8.56Q64.21 8.56 64.54 8.46Q64.86 8.35 65.06 8.17Q65.25 7.98 65.32 7.75Q65.39 7.52 65.39 7.28L65.39 7.28Q65.39 6.98 65.22 6.74Q65.04 6.50 64.77 6.31Q64.50 6.13 64.16 5.98Q63.82 5.82 63.49 5.70L63.49 5.70Q63.04 5.54 62.56 5.33Q62.08 5.12 61.69 4.80Q61.30 4.48 61.04 4.01Q60.78 3.54 60.78 2.83L60.78 2.83Q60.78 1.44 61.69 0.66Q62.59-0.13 64.18-0.13L64.18-0.13Q65.09-0.13 65.77 0.08Q66.45 0.29 66.91 0.54L66.91 0.54L66.34 2.06Q65.94 1.84 65.45 1.68Q64.96 1.52 64.32 1.52L64.32 1.52Q62.75 1.52 62.75 2.66L62.75 2.66Q62.75 2.94 62.91 3.16Q63.07 3.38 63.32 3.54Q63.57 3.71 63.88 3.84Q64.19 3.97 64.50 4.08L64.50 4.08Q64.96 4.26 65.46 4.47Q65.97 4.69 66.39 5.05Q66.82 5.41 67.09 5.94Q67.36 6.48 67.36 7.30L67.36 7.30Q67.36 8.69 66.46 9.45Q65.55 10.21 63.71 10.21L63.71 10.21Q62.48 10.21 61.74 9.94Q61.01 9.68 60.64 9.46L60.64 9.46L61.22 7.86Q61.65 8.11 62.25 8.34Q62.85 8.56 63.71 8.56ZM68.50 6.30L68.50 6.30Q68.50 5.31 68.80 4.56Q69.10 3.81 69.60 3.30Q70.10 2.80 70.74 2.54Q71.38 2.29 72.05 2.29L72.05 2.29Q73.71 2.29 74.58 3.27Q75.44 4.26 75.44 6.14L75.44 6.14Q75.44 6.34 75.43 6.54Q75.42 6.75 75.41 6.88L75.41 6.88L70.53 6.88Q70.53 7.62 71.14 8.04Q71.74 8.46 72.70 8.46L72.70 8.46Q73.30 8.46 73.83 8.34Q74.37 8.21 74.74 8.08L74.74 8.08L75.01 9.76Q74.50 9.94 73.92 10.06Q73.34 10.18 72.62 10.18L72.62 10.18Q71.66 10.18 70.90 9.93Q70.14 9.68 69.61 9.19Q69.07 8.70 68.78 7.98Q68.50 7.26 68.50 6.30ZM70.53 5.52L73.54 5.52Q73.54 5.22 73.46 4.94Q73.38 4.66 73.20 4.43Q73.02 4.21 72.75 4.07Q72.48 3.94 72.08 3.94L72.08 3.94Q71.70 3.94 71.42 4.06Q71.14 4.19 70.95 4.42Q70.77 4.64 70.66 4.93Q70.56 5.22 70.53 5.52L70.53 5.52ZM78.29 7.20L78.29 4.11L76.58 4.11L76.58 2.48L78.29 2.48L78.29 0.59L80.26 0.27L80.26 2.48L83.41 2.48L83.41 4.11L80.26 4.11L80.26 7.15Q80.26 7.57 80.34 7.82Q80.42 8.08 80.56 8.22Q80.70 8.37 80.91 8.42Q81.12 8.46 81.38 8.46L81.38 8.46Q81.65 8.46 81.88 8.45Q82.11 8.43 82.33 8.39Q82.54 8.35 82.78 8.27Q83.01 8.19 83.28 8.06L83.28 8.06L83.55 9.76Q83.01 9.98 82.38 10.08Q81.74 10.18 81.15 10.18L81.15 10.18Q80.46 10.18 79.94 10.06Q79.41 9.95 79.04 9.63Q78.67 9.31 78.48 8.73Q78.29 8.14 78.29 7.20L78.29 7.20ZM91.01 2.48L91.01 9.74Q90.46 9.89 89.69 10.03Q88.91 10.18 88 10.18L88 10.18Q87.07 10.18 86.48 9.92Q85.89 9.66 85.54 9.19Q85.20 8.72 85.07 8.08Q84.94 7.44 84.94 6.67L84.94 6.67L84.94 2.48L86.91 2.48L86.91 6.42Q86.91 7.46 87.16 7.96Q87.41 8.46 88.13 8.46L88.13 8.46Q88.58 8.46 89.02 8.38L89.02 8.38L89.02 2.48L91.01 2.48ZM97.50 6.30L97.50 6.30Q97.50 5.30 97.10 4.65Q96.70 4 95.89 4L95.89 4Q95.66 4 95.41 4.02Q95.15 4.05 94.98 4.06L94.98 4.06L94.98 8.19Q95.17 8.32 95.49 8.40Q95.81 8.48 96.13 8.48L96.13 8.48Q96.83 8.48 97.17 7.91Q97.50 7.34 97.50 6.30ZM99.50 6.24L99.50 6.24Q99.50 7.10 99.31 7.83Q99.12 8.56 98.75 9.08Q98.38 9.60 97.82 9.89Q97.26 10.18 96.53 10.18L96.53 10.18Q95.78 10.18 94.98 9.81L94.98 9.81L94.98 12.64L93.01 12.64L93.01 2.72Q93.55 2.54 94.34 2.43Q95.14 2.32 95.90 2.32L95.90 2.32Q97.65 2.32 98.58 3.38Q99.50 4.43 99.50 6.24Z"/></g></svg>