<?xml version="1.0" encoding="UTF-8"?><svg height="26" width="58.2" version="1.1" xmlns="http://www.w3.org/2000/svg"><!--Created by Josélio de S. C. Júnior - 2021 - https://github.com/joseliojunior --><rect height="24" width="56.2" rx="12" ry="12" x="1" y="1" fill="#00ADD8" stroke="#00313d" stroke-width="1" /><g transform="translate(0, 8)"><path fill="#00313d" d="M24.99 1.58L24.99 1.58Q24.29 1.58 23.81 1.84Q23.33 2.10 23.02 2.55Q22.70 3.01 22.57 3.64Q22.43 4.27 22.43 5.04L22.43 5.04Q22.43 6.82 22.99 7.66Q23.55 8.50 24.64 8.50L24.64 8.50Q24.82 8.50 25.02 8.48Q25.23 8.46 25.41 8.43L25.41 8.43L25.41 4.82L27.38 4.82L27.38 9.76Q27.02 9.89 26.28 10.05Q25.54 10.21 24.48 10.21L24.48 10.21Q23.55 10.21 22.81 9.88Q22.06 9.55 21.54 8.90Q21.01 8.26 20.72 7.29Q20.43 6.32 20.43 5.04L20.43 5.04Q20.43 3.78 20.77 2.81Q21.10 1.84 21.68 1.18Q22.26 0.53 23.04 0.20Q23.82-0.13 24.72-0.13L24.72-0.13Q25.30-0.13 25.75-0.04Q26.21 0.05 26.54 0.16Q26.88 0.27 27.10 0.40Q27.31 0.53 27.42 0.59L27.42 0.59L26.91 2.16Q26.56 1.94 26.05 1.76Q25.54 1.58 24.99 1.58ZM35.55 6.22L35.55 6.22Q35.55 7.12 35.30 7.85Q35.04 8.58 34.58 9.10Q34.11 9.63 33.46 9.92Q32.82 10.21 32.02 10.21L32.02 10.21Q31.22 10.21 30.57 9.92Q29.92 9.63 29.45 9.10Q28.98 8.58 28.72 7.85Q28.46 7.12 28.46 6.22L28.46 6.22Q28.46 5.34 28.73 4.62Q28.99 3.89 29.46 3.37Q29.94 2.85 30.59 2.57Q31.25 2.29 32.02 2.29L32.02 2.29Q32.80 2.29 33.45 2.57Q34.10 2.85 34.57 3.37Q35.04 3.89 35.30 4.62Q35.55 5.34 35.55 6.22ZM30.46 6.24L30.46 6.24Q30.46 7.25 30.82 7.87Q31.18 8.50 31.98 8.50L31.98 8.50Q32.75 8.50 33.14 7.87Q33.54 7.25 33.54 6.24L33.54 6.24Q33.54 5.23 33.18 4.62Q32.82 4 32.02 4L32.02 4Q31.25 4 30.86 4.62Q30.46 5.23 30.46 6.24Z"/></g></svg>