<?xml version="1.0" encoding="UTF-8"?>
<svg height="322" width="90.4" version="1.1" xmlns="http://www.w3.org/2000/svg"><!--Created by Josélio de S. C. Júnior - 2021 - https://github.com/joseliojunior -->
    <rect
        height="32"
        width="88.4"
        rx="1"
        ry="1"
        x="1" y="1"
        fill="#82937f"
        stroke="#3a4238"
        stroke-width="1" />
    <g transform="translate(0, 12)">
        <path fill="#3a4238" stroke="none" d="M27.49-0.62L27.49-0.62Q26.43-0.62 25.71-0.24Q24.99 0.14 24.52 0.83Q24.06 1.51 23.85 2.46Q23.65 3.41 23.65 4.56L23.65 4.56Q23.65 7.22 24.49 8.48Q25.33 9.74 26.96 9.74L26.96 9.74Q27.22 9.74 27.54 9.72Q27.85 9.70 28.11 9.65L28.11 9.65L28.11 4.22L31.06 4.22L31.06 11.64Q30.54 11.83 29.42 12.07Q28.30 12.31 26.72 12.31L26.72 12.31Q25.33 12.31 24.21 11.82Q23.10 11.33 22.30 10.36Q21.51 9.38 21.08 7.93Q20.65 6.48 20.65 4.56L20.65 4.56Q20.65 2.66 21.15 1.21Q21.66-0.24 22.52-1.22Q23.38-2.21 24.56-2.70Q25.74-3.19 27.08-3.19L27.08-3.19Q27.94-3.19 28.63-3.06Q29.31-2.93 29.82-2.76Q30.32-2.59 30.64-2.40Q30.97-2.21 31.14-2.11L31.14-2.11L30.37 0.24Q29.84-0.10 29.07-0.36Q28.30-0.62 27.49-0.62ZM43.33 6.34L43.33 6.34Q43.33 7.68 42.94 8.77Q42.56 9.86 41.86 10.66Q41.17 11.45 40.20 11.88Q39.22 12.31 38.02 12.31L38.02 12.31Q36.82 12.31 35.85 11.88Q34.88 11.45 34.17 10.66Q33.46 9.86 33.08 8.77Q32.70 7.68 32.70 6.34L32.70 6.34Q32.70 5.02 33.09 3.92Q33.49 2.83 34.20 2.05Q34.90 1.27 35.89 0.85Q36.87 0.43 38.02 0.43L38.02 0.43Q39.20 0.43 40.17 0.85Q41.14 1.27 41.85 2.05Q42.56 2.83 42.94 3.92Q43.33 5.02 43.33 6.34ZM35.70 6.36L35.70 6.36Q35.70 7.87 36.24 8.81Q36.78 9.74 37.98 9.74L37.98 9.74Q39.13 9.74 39.72 8.81Q40.30 7.87 40.30 6.36L40.30 6.36Q40.30 4.85 39.76 3.92Q39.22 3 38.02 3L38.02 3Q36.87 3 36.28 3.92Q35.70 4.85 35.70 6.36ZM49.47 9.77L49.47 9.77Q50.55 9.77 51.13 9.61Q51.70 9.46 51.70 8.98L51.70 8.98Q51.70 8.66 51.52 8.45Q51.34 8.23 51.02 8.08Q50.70 7.92 50.28 7.78Q49.86 7.63 49.40 7.49L49.40 7.49Q48.75 7.30 48.08 7.04Q47.41 6.79 46.86 6.41Q46.30 6.02 45.94 5.44Q45.58 4.85 45.58 3.96L45.58 3.96Q45.58 3.24 45.86 2.60Q46.14 1.97 46.72 1.48Q47.31 0.98 48.22 0.71Q49.14 0.43 50.41 0.43L50.41 0.43Q51.51 0.43 52.46 0.60Q53.41 0.77 54.10 1.08L54.10 1.08L53.65 3.58Q53.24 3.46 52.38 3.18Q51.51 2.90 50.43 2.90L50.43 2.90Q49.30 2.90 48.91 3.18Q48.51 3.46 48.51 3.77L48.51 3.77Q48.51 4.03 48.69 4.24Q48.87 4.44 49.17 4.61Q49.47 4.78 49.87 4.93Q50.26 5.09 50.72 5.23L50.72 5.23Q51.37 5.45 52.06 5.71Q52.76 5.98 53.32 6.37Q53.89 6.77 54.25 7.38Q54.61 7.99 54.61 8.88L54.61 8.88Q54.61 9.58 54.34 10.20Q54.08 10.82 53.47 11.28Q52.86 11.74 51.87 12Q50.89 12.26 49.45 12.26L49.45 12.26Q47.98 12.26 46.95 11.93Q45.92 11.59 45.30 11.33L45.30 11.33L45.75 8.86Q46.59 9.19 47.54 9.48Q48.49 9.77 49.47 9.77ZM66.51 0.72L66.51 11.62Q65.70 11.83 64.53 12.05Q63.37 12.26 62 12.26L62 12.26Q60.61 12.26 59.72 11.88Q58.83 11.50 58.32 10.79Q57.80 10.08 57.61 9.12Q57.42 8.16 57.42 7.01L57.42 7.01L57.42 0.72L60.37 0.72L60.37 6.62Q60.37 8.18 60.74 8.94Q61.11 9.70 62.19 9.70L62.19 9.70Q62.86 9.70 63.54 9.58L63.54 9.58L63.54 0.72L66.51 0.72Z"/>
    </g>
</svg>