<?xml version="1.0" encoding="UTF-8"?>
<svg height="26" width="74.4" version="1.1" xmlns="http://www.w3.org/2000/svg"><!--Created by Josélio de S. C. Júnior - 2021 - https://github.com/joseliojunior -->
    <rect
        height="24"
        width="72.4"
        rx="1"
        ry="1"
        x="1" y="1"
        fill="#82937f"
        stroke="#3a4238"
        stroke-width="1" />
    <g transform="translate(0, 8)">
        <path fill="#3a4238" d="M24.99 1.58L24.99 1.58Q24.29 1.58 23.81 1.84Q23.33 2.10 23.02 2.55Q22.70 3.01 22.57 3.64Q22.43 4.27 22.43 5.04L22.43 5.04Q22.43 6.82 22.99 7.66Q23.55 8.50 24.64 8.50L24.64 8.50Q24.82 8.50 25.02 8.48Q25.23 8.46 25.41 8.43L25.41 8.43L25.41 4.82L27.38 4.82L27.38 9.76Q27.02 9.89 26.28 10.05Q25.54 10.21 24.48 10.21L24.48 10.21Q23.55 10.21 22.81 9.88Q22.06 9.55 21.54 8.90Q21.01 8.26 20.72 7.29Q20.43 6.32 20.43 5.04L20.43 5.04Q20.43 3.78 20.77 2.81Q21.10 1.84 21.68 1.18Q22.26 0.53 23.04 0.20Q23.82-0.13 24.72-0.13L24.72-0.13Q25.30-0.13 25.75-0.04Q26.21 0.05 26.54 0.16Q26.88 0.27 27.10 0.40Q27.31 0.53 27.42 0.59L27.42 0.59L26.91 2.16Q26.56 1.94 26.05 1.76Q25.54 1.58 24.99 1.58ZM35.55 6.22L35.55 6.22Q35.55 7.12 35.30 7.85Q35.04 8.58 34.58 9.10Q34.11 9.63 33.46 9.92Q32.82 10.21 32.02 10.21L32.02 10.21Q31.22 10.21 30.57 9.92Q29.92 9.63 29.45 9.10Q28.98 8.58 28.72 7.85Q28.46 7.12 28.46 6.22L28.46 6.22Q28.46 5.34 28.73 4.62Q28.99 3.89 29.46 3.37Q29.94 2.85 30.59 2.57Q31.25 2.29 32.02 2.29L32.02 2.29Q32.80 2.29 33.45 2.57Q34.10 2.85 34.57 3.37Q35.04 3.89 35.30 4.62Q35.55 5.34 35.55 6.22ZM30.46 6.24L30.46 6.24Q30.46 7.25 30.82 7.87Q31.18 8.50 31.98 8.50L31.98 8.50Q32.75 8.50 33.14 7.87Q33.54 7.25 33.54 6.24L33.54 6.24Q33.54 5.23 33.18 4.62Q32.82 4 32.02 4L32.02 4Q31.25 4 30.86 4.62Q30.46 5.23 30.46 6.24ZM39.65 8.51L39.65 8.51Q40.37 8.51 40.75 8.41Q41.14 8.30 41.14 7.98L41.14 7.98Q41.14 7.78 41.02 7.63Q40.90 7.49 40.68 7.38Q40.46 7.28 40.18 7.18Q39.90 7.09 39.60 6.99L39.60 6.99Q39.17 6.86 38.72 6.70Q38.27 6.53 37.90 6.27Q37.54 6.02 37.30 5.62Q37.06 5.23 37.06 4.64L37.06 4.64Q37.06 4.16 37.24 3.74Q37.42 3.31 37.82 2.98Q38.21 2.66 38.82 2.47Q39.42 2.29 40.27 2.29L40.27 2.29Q41.01 2.29 41.64 2.40Q42.27 2.51 42.74 2.72L42.74 2.72L42.43 4.38Q42.16 4.30 41.58 4.12Q41.01 3.94 40.29 3.94L40.29 3.94Q39.54 3.94 39.27 4.12Q39.01 4.30 39.01 4.51L39.01 4.51Q39.01 4.69 39.13 4.82Q39.25 4.96 39.45 5.07Q39.65 5.18 39.91 5.29Q40.18 5.39 40.48 5.49L40.48 5.49Q40.91 5.63 41.38 5.81Q41.84 5.98 42.22 6.25Q42.59 6.51 42.83 6.92Q43.07 7.33 43.07 7.92L43.07 7.92Q43.07 8.38 42.90 8.80Q42.72 9.22 42.31 9.52Q41.90 9.82 41.25 10Q40.59 10.18 39.63 10.18L39.63 10.18Q38.66 10.18 37.97 9.95Q37.28 9.73 36.86 9.55L36.86 9.55L37.17 7.90Q37.73 8.13 38.36 8.32Q38.99 8.51 39.65 8.51ZM51.01 2.48L51.01 9.74Q50.46 9.89 49.69 10.03Q48.91 10.18 48 10.18L48 10.18Q47.07 10.18 46.48 9.92Q45.89 9.66 45.54 9.19Q45.20 8.72 45.07 8.08Q44.94 7.44 44.94 6.67L44.94 6.67L44.94 2.48L46.91 2.48L46.91 6.42Q46.91 7.46 47.16 7.96Q47.41 8.46 48.13 8.46L48.13 8.46Q48.58 8.46 49.02 8.38L49.02 8.38L49.02 2.48L51.01 2.48Z"/>
    </g>
</svg>