<?xml version="1.0" encoding="UTF-8"?>
<svg height="322" width="259.79999999999995" version="1.1" xmlns="http://www.w3.org/2000/svg"><!--Created by Josélio de S. C. Júnior - 2021 - https://github.com/joseliojunior -->
    <rect
        height="32"
        width="257.79999999999995"
        rx="16"
        ry="16"
        x="1" y="1"
        fill="#009a00"
        stroke="#33ff33"
        stroke-width="1" />
    <g transform="translate(0, 12)">
        <path fill="#33ff33" stroke="none" d="M25.14-3.02L25.14-3.02Q26.41-3.02 27.44-2.74Q28.47-2.45 29.22-1.85Q29.96-1.25 30.36-0.32Q30.75 0.60 30.75 1.85L30.75 1.85Q30.75 3.14 30.22 4.20Q29.70 5.26 28.47 5.81L28.47 5.81Q28.88 6.43 29.34 7.19Q29.79 7.94 30.22 8.77Q30.66 9.60 31.05 10.43Q31.45 11.26 31.74 12L31.74 12L28.64 12Q28.09 10.56 27.36 9.23Q26.62 7.90 25.78 6.53L25.78 6.53L24.25 6.53L24.25 12L21.30 12L21.30-2.64Q21.73-2.74 22.24-2.82Q22.76-2.90 23.29-2.94Q23.82-2.98 24.30-3Q24.78-3.02 25.14-3.02ZM27.75 1.82L27.75 1.82Q27.75 0.65 27.03 0.10Q26.31-0.46 25.14-0.46L25.14-0.46Q24.97-0.46 24.73-0.44Q24.49-0.43 24.25-0.38L24.25-0.38L24.25 4.08L24.90 4.08Q26.41 4.08 27.08 3.49Q27.75 2.90 27.75 1.82ZM32.74 6.46L32.74 6.46Q32.74 4.97 33.20 3.84Q33.66 2.71 34.40 1.96Q35.14 1.20 36.10 0.82Q37.06 0.43 38.07 0.43L38.07 0.43Q40.57 0.43 41.86 1.91Q43.16 3.38 43.16 6.22L43.16 6.22Q43.16 6.50 43.15 6.82Q43.14 7.13 43.11 7.32L43.11 7.32L35.79 7.32Q35.79 8.42 36.70 9.06Q37.62 9.70 39.06 9.70L39.06 9.70Q39.94 9.70 40.75 9.50Q41.55 9.31 42.10 9.12L42.10 9.12L42.51 11.64Q41.74 11.90 40.88 12.08Q40.02 12.26 38.94 12.26L38.94 12.26Q37.50 12.26 36.36 11.89Q35.22 11.52 34.41 10.79Q33.61 10.06 33.18 8.98Q32.74 7.90 32.74 6.46ZM35.79 5.28L40.30 5.28Q40.30 4.82 40.18 4.40Q40.06 3.98 39.80 3.65Q39.54 3.31 39.13 3.11Q38.72 2.90 38.12 2.90L38.12 2.90Q37.54 2.90 37.12 3.10Q36.70 3.29 36.43 3.62Q36.15 3.96 36.00 4.39Q35.84 4.82 35.79 5.28L35.79 5.28ZM47.79 6L47.79 6Q47.79 7.39 48.30 8.12Q48.80 8.86 49.88 8.86L49.88 8.86Q50.36 8.86 50.78 8.74Q51.20 8.62 51.54 8.42L51.54 8.42L51.54 3Q51.20 2.93 50.94 2.90Q50.67 2.88 50.38 2.88L50.38 2.88Q47.79 2.88 47.79 6ZM54.51 1.08L54.51 10.63Q54.51 13.39 53.18 14.71Q51.85 16.03 48.90 16.03L48.90 16.03Q47.84 16.03 46.87 15.82Q45.90 15.60 45.01 15.31L45.01 15.31L45.56 12.82Q46.26 13.08 47.02 13.31Q47.79 13.54 48.94 13.54L48.94 13.54Q49.71 13.54 50.22 13.36Q50.72 13.18 51.01 12.86Q51.30 12.55 51.42 12.13Q51.54 11.71 51.54 11.23L51.54 11.23L51.54 10.78Q50.91 11.02 50.40 11.14Q49.88 11.26 49.28 11.26L49.28 11.26Q47.07 11.26 45.93 9.86Q44.79 8.47 44.79 6L44.79 6Q44.79 3.22 46.33 1.85Q47.86 0.48 50.50 0.48L50.50 0.48Q52.35 0.48 54.51 1.08L54.51 1.08ZM66.51 0.72L66.51 11.62Q65.70 11.83 64.53 12.05Q63.37 12.26 62 12.26L62 12.26Q60.61 12.26 59.72 11.88Q58.83 11.50 58.32 10.79Q57.80 10.08 57.61 9.12Q57.42 8.16 57.42 7.01L57.42 7.01L57.42 0.72L60.37 0.72L60.37 6.62Q60.37 8.18 60.74 8.94Q61.11 9.70 62.19 9.70L62.19 9.70Q62.86 9.70 63.54 9.58L63.54 9.58L63.54 0.72L66.51 0.72ZM78.82 9.14L79.21 11.52Q79.14 11.57 78.88 11.69Q78.63 11.81 78.22 11.94Q77.82 12.07 77.23 12.17Q76.64 12.26 75.90 12.26L75.90 12.26Q73.86 12.26 72.92 11.05Q71.98 9.84 71.98 7.51L71.98 7.51L71.98-2.06L68.86-2.06L68.86-4.51L74.94-4.51L74.94 7.73Q74.94 8.88 75.39 9.29Q75.85 9.70 76.54 9.70L76.54 9.70Q77.43 9.70 78.03 9.46Q78.63 9.22 78.82 9.14L78.82 9.14ZM86.02 9.89L86.02 9.89Q86.50 9.89 86.96 9.88Q87.42 9.86 87.75 9.82L87.75 9.82L87.75 7.22Q87.46 7.18 87.06 7.14Q86.65 7.10 86.31 7.10L86.31 7.10Q85.86 7.10 85.42 7.16Q84.99 7.22 84.67 7.37Q84.34 7.51 84.15 7.78Q83.96 8.04 83.96 8.47L83.96 8.47Q83.96 9.24 84.54 9.56Q85.11 9.89 86.02 9.89ZM85.76 0.43L85.76 0.43Q87.15 0.43 88.08 0.76Q89 1.08 89.55 1.67Q90.10 2.26 90.34 3.11Q90.58 3.96 90.58 5.02L90.58 5.02L90.58 11.74Q89.94 11.88 88.66 12.07Q87.39 12.26 85.81 12.26L85.81 12.26Q84.73 12.26 83.85 12.07Q82.98 11.88 82.35 11.44Q81.73 10.99 81.39 10.28Q81.06 9.58 81.06 8.54L81.06 8.54Q81.06 7.56 81.44 6.89Q81.82 6.22 82.47 5.81Q83.12 5.40 83.96 5.22Q84.80 5.04 85.71 5.04L85.71 5.04Q86.86 5.04 87.75 5.23L87.75 5.23L87.75 4.87Q87.75 4.03 87.22 3.47Q86.70 2.90 85.40 2.90L85.40 2.90Q84.56 2.90 83.78 3.02Q83 3.14 82.52 3.31L82.52 3.31L82.11 0.94Q82.66 0.74 83.67 0.59Q84.68 0.43 85.76 0.43ZM103.02 0.98L102.49 3.72Q102.20 3.65 101.80 3.58Q101.41 3.50 101 3.44Q100.59 3.38 100.21 3.36Q99.82 3.34 99.56 3.34L99.56 3.34Q98.94 3.34 98.34 3.40Q97.74 3.46 97.11 3.62L97.11 3.62L97.11 12L94.14 12L94.14 1.46Q95.31 1.03 96.55 0.77Q97.78 0.50 99.44 0.50L99.44 0.50Q99.68 0.50 100.12 0.53Q100.57 0.55 101.07 0.61Q101.58 0.67 102.09 0.76Q102.61 0.84 103.02 0.98L103.02 0.98ZM127.04 12L117.51 12L117.51-2.86L126.51-2.86L126.51-0.41L120.46-0.41L120.46 2.93L125.72 2.93L125.72 5.38L120.46 5.38L120.46 9.55L127.04 9.55L127.04 12ZM131.60 0.72L134.10 4.25L136.40 0.72L139.40 0.72L135.75 6.14Q136.33 6.84 136.88 7.62Q137.43 8.40 137.94 9.19Q138.44 9.98 138.85 10.70Q139.26 11.42 139.54 12L139.54 12L136.47 12Q135.82 10.78 135.18 9.82Q134.53 8.86 133.95 8.09L133.95 8.09Q133.23 9.05 132.66 9.96Q132.08 10.87 131.48 12L131.48 12L128.48 12Q128.84 11.33 129.31 10.60Q129.78 9.86 130.29 9.11Q130.81 8.35 131.37 7.61Q131.94 6.86 132.46 6.19L132.46 6.19L128.50 0.72L131.60 0.72ZM148.26 6.46L148.26 6.46Q148.26 4.94 147.66 3.97Q147.06 3 145.83 3L145.83 3Q145.50 3 145.11 3.04Q144.73 3.07 144.46 3.10L144.46 3.10L144.46 9.29Q144.75 9.48 145.23 9.60Q145.71 9.72 146.19 9.72L146.19 9.72Q147.25 9.72 147.75 8.87Q148.26 8.02 148.26 6.46ZM151.26 6.36L151.26 6.36Q151.26 7.66 150.97 8.75Q150.68 9.84 150.13 10.62Q149.58 11.40 148.74 11.83Q147.90 12.26 146.79 12.26L146.79 12.26Q145.66 12.26 144.46 11.71L144.46 11.71L144.46 15.96L141.51 15.96L141.51 1.08Q142.33 0.82 143.52 0.65Q144.70 0.48 145.86 0.48L145.86 0.48Q148.47 0.48 149.86 2.06Q151.26 3.65 151.26 6.36ZM163.02 0.98L162.49 3.72Q162.20 3.65 161.80 3.58Q161.41 3.50 161 3.44Q160.59 3.38 160.21 3.36Q159.82 3.34 159.56 3.34L159.56 3.34Q158.94 3.34 158.34 3.40Q157.74 3.46 157.11 3.62L157.11 3.62L157.11 12L154.14 12L154.14 1.46Q155.31 1.03 156.55 0.77Q157.78 0.50 159.44 0.50L159.44 0.50Q159.68 0.50 160.12 0.53Q160.57 0.55 161.07 0.61Q161.58 0.67 162.09 0.76Q162.61 0.84 163.02 0.98L163.02 0.98ZM164.74 6.46L164.74 6.46Q164.74 4.97 165.20 3.84Q165.66 2.71 166.40 1.96Q167.14 1.20 168.10 0.82Q169.06 0.43 170.07 0.43L170.07 0.43Q172.57 0.43 173.86 1.91Q175.16 3.38 175.16 6.22L175.16 6.22Q175.16 6.50 175.15 6.82Q175.14 7.13 175.11 7.32L175.11 7.32L167.79 7.32Q167.79 8.42 168.70 9.06Q169.62 9.70 171.06 9.70L171.06 9.70Q171.94 9.70 172.75 9.50Q173.55 9.31 174.10 9.12L174.10 9.12L174.51 11.64Q173.74 11.90 172.88 12.08Q172.02 12.26 170.94 12.26L170.94 12.26Q169.50 12.26 168.36 11.89Q167.22 11.52 166.41 10.79Q165.61 10.06 165.18 8.98Q164.74 7.90 164.74 6.46ZM167.79 5.28L172.30 5.28Q172.30 4.82 172.18 4.40Q172.06 3.98 171.80 3.65Q171.54 3.31 171.13 3.11Q170.72 2.90 170.12 2.90L170.12 2.90Q169.54 2.90 169.12 3.10Q168.70 3.29 168.43 3.62Q168.15 3.96 168.00 4.39Q167.84 4.82 167.79 5.28L167.79 5.28ZM181.47 9.77L181.47 9.77Q182.55 9.77 183.13 9.61Q183.70 9.46 183.70 8.98L183.70 8.98Q183.70 8.66 183.52 8.45Q183.34 8.23 183.02 8.08Q182.70 7.92 182.28 7.78Q181.86 7.63 181.40 7.49L181.40 7.49Q180.75 7.30 180.08 7.04Q179.41 6.79 178.86 6.41Q178.30 6.02 177.94 5.44Q177.58 4.85 177.58 3.96L177.58 3.96Q177.58 3.24 177.86 2.60Q178.14 1.97 178.72 1.48Q179.31 0.98 180.22 0.71Q181.14 0.43 182.41 0.43L182.41 0.43Q183.51 0.43 184.46 0.60Q185.41 0.77 186.10 1.08L186.10 1.08L185.65 3.58Q185.24 3.46 184.38 3.18Q183.51 2.90 182.43 2.90L182.43 2.90Q181.30 2.90 180.91 3.18Q180.51 3.46 180.51 3.77L180.51 3.77Q180.51 4.03 180.69 4.24Q180.87 4.44 181.17 4.61Q181.47 4.78 181.87 4.93Q182.26 5.09 182.72 5.23L182.72 5.23Q183.37 5.45 184.06 5.71Q184.76 5.98 185.32 6.37Q185.89 6.77 186.25 7.38Q186.61 7.99 186.61 8.88L186.61 8.88Q186.61 9.58 186.34 10.20Q186.08 10.82 185.47 11.28Q184.86 11.74 183.87 12Q182.89 12.26 181.45 12.26L181.45 12.26Q179.98 12.26 178.95 11.93Q177.92 11.59 177.30 11.33L177.30 11.33L177.75 8.86Q178.59 9.19 179.54 9.48Q180.49 9.77 181.47 9.77ZM193.47 9.77L193.47 9.77Q194.55 9.77 195.13 9.61Q195.70 9.46 195.70 8.98L195.70 8.98Q195.70 8.66 195.52 8.45Q195.34 8.23 195.02 8.08Q194.70 7.92 194.28 7.78Q193.86 7.63 193.40 7.49L193.40 7.49Q192.75 7.30 192.08 7.04Q191.41 6.79 190.86 6.41Q190.30 6.02 189.94 5.44Q189.58 4.85 189.58 3.96L189.58 3.96Q189.58 3.24 189.86 2.60Q190.14 1.97 190.72 1.48Q191.31 0.98 192.22 0.71Q193.14 0.43 194.41 0.43L194.41 0.43Q195.51 0.43 196.46 0.60Q197.41 0.77 198.10 1.08L198.10 1.08L197.65 3.58Q197.24 3.46 196.38 3.18Q195.51 2.90 194.43 2.90L194.43 2.90Q193.30 2.90 192.91 3.18Q192.51 3.46 192.51 3.77L192.51 3.77Q192.51 4.03 192.69 4.24Q192.87 4.44 193.17 4.61Q193.47 4.78 193.87 4.93Q194.26 5.09 194.72 5.23L194.72 5.23Q195.37 5.45 196.06 5.71Q196.76 5.98 197.32 6.37Q197.89 6.77 198.25 7.38Q198.61 7.99 198.61 8.88L198.61 8.88Q198.61 9.58 198.34 10.20Q198.08 10.82 197.47 11.28Q196.86 11.74 195.87 12Q194.89 12.26 193.45 12.26L193.45 12.26Q191.98 12.26 190.95 11.93Q189.92 11.59 189.30 11.33L189.30 11.33L189.75 8.86Q190.59 9.19 191.54 9.48Q192.49 9.77 193.47 9.77ZM206.82-2.52L206.82-2.52Q206.82-1.66 206.26-1.15Q205.71-0.65 204.94-0.65L204.94-0.65Q204.18-0.65 203.64-1.15Q203.10-1.66 203.10-2.52L203.10-2.52Q203.10-3.41 203.64-3.91Q204.18-4.42 204.94-4.42L204.94-4.42Q205.71-4.42 206.26-3.91Q206.82-3.41 206.82-2.52ZM210.82 9.14L211.21 11.52Q210.30 11.95 209.49 12.11Q208.69 12.26 208.02 12.26L208.02 12.26Q206.86 12.26 206.08 11.93Q205.30 11.59 204.84 10.96Q204.37 10.32 204.18 9.41Q203.98 8.50 203.98 7.32L203.98 7.32L203.98 3.17L200.86 3.17L200.86 0.72L206.94 0.72L206.94 7.70Q206.94 8.71 207.31 9.20Q207.68 9.70 208.54 9.70L208.54 9.70Q208.95 9.70 209.53 9.59Q210.10 9.48 210.82 9.14L210.82 9.14ZM223.33 6.34L223.33 6.34Q223.33 7.68 222.94 8.77Q222.56 9.86 221.86 10.66Q221.17 11.45 220.20 11.88Q219.22 12.31 218.02 12.31L218.02 12.31Q216.82 12.31 215.85 11.88Q214.88 11.45 214.17 10.66Q213.46 9.86 213.08 8.77Q212.70 7.68 212.70 6.34L212.70 6.34Q212.70 5.02 213.09 3.92Q213.49 2.83 214.20 2.05Q214.90 1.27 215.89 0.85Q216.87 0.43 218.02 0.43L218.02 0.43Q219.20 0.43 220.17 0.85Q221.14 1.27 221.85 2.05Q222.56 2.83 222.94 3.92Q223.33 5.02 223.33 6.34ZM215.70 6.36L215.70 6.36Q215.70 7.87 216.24 8.81Q216.78 9.74 217.98 9.74L217.98 9.74Q219.13 9.74 219.72 8.81Q220.30 7.87 220.30 6.36L220.30 6.36Q220.30 4.85 219.76 3.92Q219.22 3 218.02 3L218.02 3Q216.87 3 216.28 3.92Q215.70 4.85 215.70 6.36ZM225.51 12L225.51 1.08Q226.30 0.86 227.47 0.67Q228.63 0.48 230 0.48L230 0.48Q231.34 0.48 232.23 0.85Q233.12 1.22 233.64 1.91Q234.15 2.59 234.37 3.54Q234.58 4.49 234.58 5.64L234.58 5.64L234.58 12L231.63 12L231.63 6.02Q231.63 4.44 231.27 3.74Q230.91 3.05 229.81 3.05L229.81 3.05Q229.47 3.05 229.15 3.07Q228.82 3.10 228.46 3.14L228.46 3.14L228.46 12L225.51 12Z"/>
    </g>
</svg>