<?xml version="1.0" encoding="UTF-8"?><svg height="26" width="187.8" version="1.1" xmlns="http://www.w3.org/2000/svg"><!--Created by Josélio de S. C. Júnior - 2021 - https://github.com/joseliojunior --><rect height="24" width="185.8" rx="1" ry="1" x="1" y="1" fill="#009a00" stroke="#33ff33" stroke-width="1" /><g transform="translate(0, 8)"><path fill="#33ff33" d="M23.42-0.02L23.42-0.02Q24.27-0.02 24.96 0.18Q25.65 0.37 26.14 0.77Q26.64 1.17 26.90 1.78Q27.17 2.40 27.17 3.23L27.17 3.23Q27.17 4.10 26.82 4.80Q26.46 5.50 25.65 5.87L25.65 5.87Q25.92 6.29 26.22 6.79Q26.53 7.30 26.82 7.85Q27.10 8.40 27.37 8.95Q27.63 9.50 27.82 10L27.82 10L25.76 10Q25.39 9.04 24.90 8.15Q24.42 7.26 23.86 6.35L23.86 6.35L22.83 6.35L22.83 10L20.86 10L20.86 0.24Q21.15 0.18 21.50 0.12Q21.84 0.06 22.19 0.04Q22.54 0.02 22.86 0Q23.18-0.02 23.42-0.02ZM25.17 3.22L25.17 3.22Q25.17 2.43 24.69 2.06Q24.21 1.70 23.42 1.70L23.42 1.70Q23.31 1.70 23.15 1.70Q22.99 1.71 22.83 1.74L22.83 1.74L22.83 4.72L23.26 4.72Q24.27 4.72 24.72 4.33Q25.17 3.94 25.17 3.22ZM28.50 6.30L28.50 6.30Q28.50 5.31 28.80 4.56Q29.10 3.81 29.60 3.30Q30.10 2.80 30.74 2.54Q31.38 2.29 32.05 2.29L32.05 2.29Q33.71 2.29 34.58 3.27Q35.44 4.26 35.44 6.14L35.44 6.14Q35.44 6.34 35.43 6.54Q35.42 6.75 35.41 6.88L35.41 6.88L30.53 6.88Q30.53 7.62 31.14 8.04Q31.74 8.46 32.70 8.46L32.70 8.46Q33.30 8.46 33.83 8.34Q34.37 8.21 34.74 8.08L34.74 8.08L35.01 9.76Q34.50 9.94 33.92 10.06Q33.34 10.18 32.62 10.18L32.62 10.18Q31.66 10.18 30.90 9.93Q30.14 9.68 29.61 9.19Q29.07 8.70 28.78 7.98Q28.50 7.26 28.50 6.30ZM30.53 5.52L33.54 5.52Q33.54 5.22 33.46 4.94Q33.38 4.66 33.20 4.43Q33.02 4.21 32.75 4.07Q32.48 3.94 32.08 3.94L32.08 3.94Q31.70 3.94 31.42 4.06Q31.14 4.19 30.95 4.42Q30.77 4.64 30.66 4.93Q30.56 5.22 30.53 5.52L30.53 5.52ZM38.53 6L38.53 6Q38.53 6.93 38.86 7.42Q39.20 7.90 39.92 7.90L39.92 7.90Q40.24 7.90 40.52 7.82Q40.80 7.74 41.02 7.62L41.02 7.62L41.02 4Q40.80 3.95 40.62 3.94Q40.45 3.92 40.26 3.92L40.26 3.92Q38.53 3.92 38.53 6ZM43.01 2.72L43.01 9.09Q43.01 10.93 42.12 11.81Q41.23 12.69 39.26 12.69L39.26 12.69Q38.56 12.69 37.91 12.54Q37.26 12.40 36.67 12.21L36.67 12.21L37.04 10.54Q37.50 10.72 38.02 10.87Q38.53 11.02 39.30 11.02L39.30 11.02Q39.81 11.02 40.14 10.90Q40.48 10.78 40.67 10.58Q40.86 10.37 40.94 10.09Q41.02 9.81 41.02 9.49L41.02 9.49L41.02 9.18Q40.61 9.34 40.26 9.42Q39.92 9.50 39.52 9.50L39.52 9.50Q38.05 9.50 37.29 8.58Q36.53 7.65 36.53 6L36.53 6Q36.53 4.14 37.55 3.23Q38.58 2.32 40.34 2.32L40.34 2.32Q41.57 2.32 43.01 2.72L43.01 2.72ZM51.01 2.48L51.01 9.74Q50.46 9.89 49.69 10.03Q48.91 10.18 48 10.18L48 10.18Q47.07 10.18 46.48 9.92Q45.89 9.66 45.54 9.19Q45.20 8.72 45.07 8.08Q44.94 7.44 44.94 6.67L44.94 6.67L44.94 2.48L46.91 2.48L46.91 6.42Q46.91 7.46 47.16 7.96Q47.41 8.46 48.13 8.46L48.13 8.46Q48.58 8.46 49.02 8.38L49.02 8.38L49.02 2.48L51.01 2.48ZM59.22 8.10L59.47 9.68Q59.42 9.71 59.26 9.79Q59.09 9.87 58.82 9.96Q58.54 10.05 58.15 10.11Q57.76 10.18 57.26 10.18L57.26 10.18Q55.90 10.18 55.28 9.37Q54.66 8.56 54.66 7.01L54.66 7.01L54.66 0.62L52.58 0.62L52.58-1.01L56.62-1.01L56.62 7.15Q56.62 7.92 56.93 8.19Q57.23 8.46 57.70 8.46L57.70 8.46Q58.29 8.46 58.69 8.30Q59.09 8.14 59.22 8.10L59.22 8.10ZM64.02 8.59L64.02 8.59Q64.34 8.59 64.64 8.58Q64.94 8.58 65.17 8.54L65.17 8.54L65.17 6.82Q64.98 6.78 64.70 6.76Q64.43 6.74 64.21 6.74L64.21 6.74Q63.90 6.74 63.62 6.78Q63.33 6.82 63.11 6.91Q62.90 7.01 62.77 7.18Q62.64 7.36 62.64 7.65L62.64 7.65Q62.64 8.16 63.02 8.38Q63.41 8.59 64.02 8.59ZM63.84 2.29L63.84 2.29Q64.77 2.29 65.38 2.50Q66 2.72 66.37 3.11Q66.74 3.50 66.90 4.07Q67.06 4.64 67.06 5.34L67.06 5.34L67.06 9.82Q66.62 9.92 65.78 10.05Q64.93 10.18 63.87 10.18L63.87 10.18Q63.15 10.18 62.57 10.05Q61.98 9.92 61.57 9.62Q61.15 9.33 60.93 8.86Q60.70 8.38 60.70 7.70L60.70 7.70Q60.70 7.04 60.96 6.59Q61.22 6.14 61.65 5.87Q62.08 5.60 62.64 5.48Q63.20 5.36 63.81 5.36L63.81 5.36Q64.58 5.36 65.17 5.49L65.17 5.49L65.17 5.25Q65.17 4.69 64.82 4.31Q64.46 3.94 63.60 3.94L63.60 3.94Q63.04 3.94 62.52 4.02Q62 4.10 61.68 4.21L61.68 4.21L61.41 2.62Q61.78 2.50 62.45 2.39Q63.12 2.29 63.84 2.29ZM75.34 2.66L74.99 4.48Q74.80 4.43 74.54 4.38Q74.27 4.34 74 4.30Q73.73 4.26 73.47 4.24Q73.22 4.22 73.04 4.22L73.04 4.22Q72.62 4.22 72.22 4.26Q71.82 4.30 71.41 4.42L71.41 4.42L71.41 10L69.42 10L69.42 2.98Q70.21 2.69 71.03 2.51Q71.86 2.34 72.96 2.34L72.96 2.34Q73.12 2.34 73.42 2.35Q73.71 2.37 74.05 2.41Q74.38 2.45 74.73 2.50Q75.07 2.56 75.34 2.66L75.34 2.66ZM91.36 10L85.01 10L85.01 0.10L91.01 0.10L91.01 1.73L86.98 1.73L86.98 3.95L90.48 3.95L90.48 5.58L86.98 5.58L86.98 8.37L91.36 8.37L91.36 10ZM94.40 2.48L96.06 4.83L97.60 2.48L99.60 2.48L97.17 6.10Q97.55 6.56 97.92 7.08Q98.29 7.60 98.62 8.13Q98.96 8.66 99.23 9.14Q99.50 9.62 99.70 10L99.70 10L97.65 10Q97.22 9.18 96.78 8.54Q96.35 7.90 95.97 7.39L95.97 7.39Q95.49 8.03 95.10 8.64Q94.72 9.25 94.32 10L94.32 10L92.32 10Q92.56 9.55 92.87 9.06Q93.18 8.58 93.53 8.07Q93.87 7.57 94.25 7.07Q94.62 6.58 94.98 6.13L94.98 6.13L92.34 2.48L94.40 2.48ZM105.50 6.30L105.50 6.30Q105.50 5.30 105.10 4.65Q104.70 4 103.89 4L103.89 4Q103.66 4 103.41 4.02Q103.15 4.05 102.98 4.06L102.98 4.06L102.98 8.19Q103.17 8.32 103.49 8.40Q103.81 8.48 104.13 8.48L104.13 8.48Q104.83 8.48 105.17 7.91Q105.50 7.34 105.50 6.30ZM107.50 6.24L107.50 6.24Q107.50 7.10 107.31 7.83Q107.12 8.56 106.75 9.08Q106.38 9.60 105.82 9.89Q105.26 10.18 104.53 10.18L104.53 10.18Q103.78 10.18 102.98 9.81L102.98 9.81L102.98 12.64L101.01 12.64L101.01 2.72Q101.55 2.54 102.34 2.43Q103.14 2.32 103.90 2.32L103.90 2.32Q105.65 2.32 106.58 3.38Q107.50 4.43 107.50 6.24ZM115.34 2.66L114.99 4.48Q114.80 4.43 114.54 4.38Q114.27 4.34 114 4.30Q113.73 4.26 113.47 4.24Q113.22 4.22 113.04 4.22L113.04 4.22Q112.62 4.22 112.22 4.26Q111.82 4.30 111.41 4.42L111.41 4.42L111.41 10L109.42 10L109.42 2.98Q110.21 2.69 111.03 2.51Q111.86 2.34 112.96 2.34L112.96 2.34Q113.12 2.34 113.42 2.35Q113.71 2.37 114.05 2.41Q114.38 2.45 114.73 2.50Q115.07 2.56 115.34 2.66L115.34 2.66ZM116.50 6.30L116.50 6.30Q116.50 5.31 116.80 4.56Q117.10 3.81 117.60 3.30Q118.10 2.80 118.74 2.54Q119.38 2.29 120.05 2.29L120.05 2.29Q121.71 2.29 122.58 3.27Q123.44 4.26 123.44 6.14L123.44 6.14Q123.44 6.34 123.43 6.54Q123.42 6.75 123.41 6.88L123.41 6.88L118.53 6.88Q118.53 7.62 119.14 8.04Q119.74 8.46 120.70 8.46L120.70 8.46Q121.30 8.46 121.83 8.34Q122.37 8.21 122.74 8.08L122.74 8.08L123.01 9.76Q122.50 9.94 121.92 10.06Q121.34 10.18 120.62 10.18L120.62 10.18Q119.66 10.18 118.90 9.93Q118.14 9.68 117.61 9.19Q117.07 8.70 116.78 7.98Q116.50 7.26 116.50 6.30ZM118.53 5.52L121.54 5.52Q121.54 5.22 121.46 4.94Q121.38 4.66 121.20 4.43Q121.02 4.21 120.75 4.07Q120.48 3.94 120.08 3.94L120.08 3.94Q119.70 3.94 119.42 4.06Q119.14 4.19 118.95 4.42Q118.77 4.64 118.66 4.93Q118.56 5.22 118.53 5.52L118.53 5.52ZM127.65 8.51L127.65 8.51Q128.37 8.51 128.75 8.41Q129.14 8.30 129.14 7.98L129.14 7.98Q129.14 7.78 129.02 7.63Q128.90 7.49 128.68 7.38Q128.46 7.28 128.18 7.18Q127.90 7.09 127.60 6.99L127.60 6.99Q127.17 6.86 126.72 6.70Q126.27 6.53 125.90 6.27Q125.54 6.02 125.30 5.62Q125.06 5.23 125.06 4.64L125.06 4.64Q125.06 4.16 125.24 3.74Q125.42 3.31 125.82 2.98Q126.21 2.66 126.82 2.47Q127.42 2.29 128.27 2.29L128.27 2.29Q129.01 2.29 129.64 2.40Q130.27 2.51 130.74 2.72L130.74 2.72L130.43 4.38Q130.16 4.30 129.58 4.12Q129.01 3.94 128.29 3.94L128.29 3.94Q127.54 3.94 127.27 4.12Q127.01 4.30 127.01 4.51L127.01 4.51Q127.01 4.69 127.13 4.82Q127.25 4.96 127.45 5.07Q127.65 5.18 127.91 5.29Q128.18 5.39 128.48 5.49L128.48 5.49Q128.91 5.63 129.38 5.81Q129.84 5.98 130.22 6.25Q130.59 6.51 130.83 6.92Q131.07 7.33 131.07 7.92L131.07 7.92Q131.07 8.38 130.90 8.80Q130.72 9.22 130.31 9.52Q129.90 9.82 129.25 10Q128.59 10.18 127.63 10.18L127.63 10.18Q126.66 10.18 125.97 9.95Q125.28 9.73 124.86 9.55L124.86 9.55L125.17 7.90Q125.73 8.13 126.36 8.32Q126.99 8.51 127.65 8.51ZM135.65 8.51L135.65 8.51Q136.37 8.51 136.75 8.41Q137.14 8.30 137.14 7.98L137.14 7.98Q137.14 7.78 137.02 7.63Q136.90 7.49 136.68 7.38Q136.46 7.28 136.18 7.18Q135.90 7.09 135.60 6.99L135.60 6.99Q135.17 6.86 134.72 6.70Q134.27 6.53 133.90 6.27Q133.54 6.02 133.30 5.62Q133.06 5.23 133.06 4.64L133.06 4.64Q133.06 4.16 133.24 3.74Q133.42 3.31 133.82 2.98Q134.21 2.66 134.82 2.47Q135.42 2.29 136.27 2.29L136.27 2.29Q137.01 2.29 137.64 2.40Q138.27 2.51 138.74 2.72L138.74 2.72L138.43 4.38Q138.16 4.30 137.58 4.12Q137.01 3.94 136.29 3.94L136.29 3.94Q135.54 3.94 135.27 4.12Q135.01 4.30 135.01 4.51L135.01 4.51Q135.01 4.69 135.13 4.82Q135.25 4.96 135.45 5.07Q135.65 5.18 135.91 5.29Q136.18 5.39 136.48 5.49L136.48 5.49Q136.91 5.63 137.38 5.81Q137.84 5.98 138.22 6.25Q138.59 6.51 138.83 6.92Q139.07 7.33 139.07 7.92L139.07 7.92Q139.07 8.38 138.90 8.80Q138.72 9.22 138.31 9.52Q137.90 9.82 137.25 10Q136.59 10.18 135.63 10.18L135.63 10.18Q134.66 10.18 133.97 9.95Q133.28 9.73 132.86 9.55L132.86 9.55L133.17 7.90Q133.73 8.13 134.36 8.32Q134.99 8.51 135.65 8.51ZM144.54 0.32L144.54 0.32Q144.54 0.90 144.18 1.23Q143.81 1.57 143.30 1.57L143.30 1.57Q142.78 1.57 142.42 1.23Q142.06 0.90 142.06 0.32L142.06 0.32Q142.06-0.27 142.42-0.61Q142.78-0.94 143.30-0.94L143.30-0.94Q143.81-0.94 144.18-0.61Q144.54-0.27 144.54 0.32ZM147.22 8.10L147.47 9.68Q146.86 9.97 146.33 10.07Q145.79 10.18 145.34 10.18L145.34 10.18Q144.58 10.18 144.06 9.95Q143.54 9.73 143.22 9.30Q142.91 8.88 142.78 8.27Q142.66 7.66 142.66 6.88L142.66 6.88L142.66 4.11L140.58 4.11L140.58 2.48L144.62 2.48L144.62 7.14Q144.62 7.81 144.87 8.14Q145.12 8.46 145.70 8.46L145.70 8.46Q145.97 8.46 146.35 8.39Q146.74 8.32 147.22 8.10L147.22 8.10ZM155.55 6.22L155.55 6.22Q155.55 7.12 155.30 7.85Q155.04 8.58 154.58 9.10Q154.11 9.63 153.46 9.92Q152.82 10.21 152.02 10.21L152.02 10.21Q151.22 10.21 150.57 9.92Q149.92 9.63 149.45 9.10Q148.98 8.58 148.72 7.85Q148.46 7.12 148.46 6.22L148.46 6.22Q148.46 5.34 148.73 4.62Q148.99 3.89 149.46 3.37Q149.94 2.85 150.59 2.57Q151.25 2.29 152.02 2.29L152.02 2.29Q152.80 2.29 153.45 2.57Q154.10 2.85 154.57 3.37Q155.04 3.89 155.30 4.62Q155.55 5.34 155.55 6.22ZM150.46 6.24L150.46 6.24Q150.46 7.25 150.82 7.87Q151.18 8.50 151.98 8.50L151.98 8.50Q152.75 8.50 153.14 7.87Q153.54 7.25 153.54 6.24L153.54 6.24Q153.54 5.23 153.18 4.62Q152.82 4 152.02 4L152.02 4Q151.25 4 150.86 4.62Q150.46 5.23 150.46 6.24ZM157.01 10L157.01 2.72Q157.54 2.58 158.31 2.45Q159.09 2.32 160 2.32L160 2.32Q160.90 2.32 161.49 2.57Q162.08 2.82 162.42 3.27Q162.77 3.73 162.91 4.36Q163.06 4.99 163.06 5.76L163.06 5.76L163.06 10L161.09 10L161.09 6.02Q161.09 4.96 160.85 4.50Q160.61 4.03 159.87 4.03L159.87 4.03Q159.65 4.03 159.43 4.05Q159.22 4.06 158.98 4.10L158.98 4.10L158.98 10L157.01 10Z"/></g></svg>