<?xml version="1.0" encoding="UTF-8"?>
<svg height="34" width="102.5" version="1.1" xmlns="http://www.w3.org/2000/svg"><!--Created by Josélio de S. C. Júnior - 2021 - https://github.com/joseliojunior -->
    <defs>
        <pattern id="pattern"
                x="3" y="3" width="6" height="6"
                patternUnits="userSpaceOnUse"
                patternTransform="rotate(45)" >
            <rect height="6" width="6"
                fill="#ffffff"/>
            <line x1="0" y1="0" x2="0" y2="6"
                stroke="#bbbbbb"
                stroke-width="2" />
        </pattern>
    </defs>
    <rect
        height="32"
        width="100.5"
        rx="16"
        ry="16"
        x="1" y="1"
        fill="url(#pattern)" />
    <g transform="translate(0, 12)">
        <path fill="#000000" d="M27.97-2.86L30.92-2.86L30.92 12L27.97 12L27.97 5.45L24.03 5.45L24.03 12L21.08 12L21.08-2.86L24.03-2.86L24.03 3L27.97 3L27.97-2.86ZM40.30 0.72L43.33 0.72Q42.87 2.30 42.45 3.83Q42.03 5.35 41.58 6.80Q41.12 8.26 40.60 9.65Q40.09 11.04 39.49 12.36L39.49 12.36Q39.03 13.32 38.59 14.02Q38.14 14.71 37.60 15.16Q37.06 15.60 36.40 15.82Q35.74 16.03 34.86 16.03L34.86 16.03Q34.11 16.03 33.50 15.91Q32.89 15.79 32.48 15.60L32.48 15.60L33.03 13.13Q33.51 13.34 33.88 13.43Q34.26 13.51 34.69 13.51L34.69 13.51Q35.55 13.51 36.08 12.94Q36.61 12.36 36.92 11.57L36.92 11.57Q35.86 9.46 34.81 6.73Q33.75 4.01 32.89 0.72L32.89 0.72L35.96 0.72Q36.18 1.61 36.45 2.62Q36.73 3.62 37.04 4.63Q37.35 5.64 37.70 6.61Q38.05 7.58 38.41 8.42L38.41 8.42Q38.65 7.58 38.91 6.61Q39.18 5.64 39.42 4.64Q39.66 3.65 39.88 2.64Q40.11 1.63 40.30 0.72L40.30 0.72ZM49.38-3.02L49.38-3.02Q52.21-3.02 53.77-1.86Q55.33-0.70 55.33 1.94L55.33 1.94Q55.33 4.61 53.76 5.80Q52.18 6.98 49.30 6.98L49.30 6.98L48.25 6.98L48.25 12L45.30 12L45.30-2.66Q45.73-2.76 46.27-2.83Q46.81-2.90 47.36-2.94Q47.91-2.98 48.44-3Q48.97-3.02 49.38-3.02ZM49.71-0.46L49.71-0.46Q49.45-0.46 48.98-0.44Q48.51-0.43 48.25-0.38L48.25-0.38L48.25 4.42L49.45 4.42Q50.86 4.42 51.58 3.85Q52.30 3.29 52.30 1.92L52.30 1.92Q52.30 0.62 51.60 0.08Q50.89-0.46 49.71-0.46ZM60.46 12L57.51 12L57.51-4.15L60.46-4.66L60.46 0.82Q60.82 0.70 61.33 0.59Q61.83 0.48 62.22 0.48L62.22 0.48Q63.46 0.48 64.30 0.85Q65.14 1.22 65.65 1.91Q66.15 2.59 66.37 3.54Q66.58 4.49 66.58 5.64L66.58 5.64L66.58 12L63.63 12L63.63 6.02Q63.63 4.44 63.27 3.74Q62.91 3.05 61.90 3.05L61.90 3.05Q61.50 3.05 61.10 3.14Q60.70 3.24 60.46 3.31L60.46 3.31L60.46 12ZM76.30 0.72L79.33 0.72Q78.87 2.30 78.45 3.83Q78.03 5.35 77.58 6.80Q77.12 8.26 76.60 9.65Q76.09 11.04 75.49 12.36L75.49 12.36Q75.03 13.32 74.59 14.02Q74.14 14.71 73.60 15.16Q73.06 15.60 72.40 15.82Q71.74 16.03 70.86 16.03L70.86 16.03Q70.11 16.03 69.50 15.91Q68.89 15.79 68.48 15.60L68.48 15.60L69.03 13.13Q69.51 13.34 69.88 13.43Q70.26 13.51 70.69 13.51L70.69 13.51Q71.55 13.51 72.08 12.94Q72.61 12.36 72.92 11.57L72.92 11.57Q71.86 9.46 70.81 6.73Q69.75 4.01 68.89 0.72L68.89 0.72L71.96 0.72Q72.18 1.61 72.45 2.62Q72.73 3.62 73.04 4.63Q73.35 5.64 73.70 6.61Q74.05 7.58 74.41 8.42L74.41 8.42Q74.65 7.58 74.91 6.61Q75.18 5.64 75.42 4.64Q75.66 3.65 75.88 2.64Q76.11 1.63 76.30 0.72L76.30 0.72Z"/>
    </g>
</svg>