<?xml version="1.0" encoding="UTF-8"?>
<svg height="26" width="82.5" version="1.1" xmlns="http://www.w3.org/2000/svg"><!--Created by Josélio de S. C. Júnior - 2021 - https://github.com/joseliojunior -->
    <defs>
        <pattern id="pattern"
                x="3" y="3" width="6" height="6"
                patternUnits="userSpaceOnUse"
                patternTransform="rotate(45)" >
            <rect height="6" width="6"
                fill="#ffffff"/>
            <line x1="0" y1="0" x2="0" y2="6"
                stroke="#888888"
                stroke-width="2" />
        </pattern>
    </defs>
    <rect
        height="24"
        width="80.5"
        rx="1"
        ry="1"
        x="1" y="1"
        fill="url(#pattern)"
        stroke="#000000"
        stroke-width="1" />
    <g transform="translate(0, 8)">
        <path fill="#ffffff" stroke="#000000" d="M25.31 0.10L27.28 0.10L27.28 10L25.31 10L25.31 5.63L22.69 5.63L22.69 10L20.72 10L20.72 0.10L22.69 0.10L22.69 4L25.31 4L25.31 0.10ZM33.54 2.48L35.55 2.48Q35.25 3.54 34.97 4.55Q34.69 5.57 34.38 6.54Q34.08 7.50 33.74 8.43Q33.39 9.36 32.99 10.24L32.99 10.24Q32.69 10.88 32.39 11.34Q32.10 11.81 31.74 12.10Q31.38 12.40 30.94 12.54Q30.50 12.69 29.90 12.69L29.90 12.69Q29.41 12.69 29 12.61Q28.59 12.53 28.32 12.40L28.32 12.40L28.69 10.75Q29.01 10.90 29.26 10.95Q29.50 11.01 29.79 11.01L29.79 11.01Q30.37 11.01 30.72 10.62Q31.07 10.24 31.28 9.71L31.28 9.71Q30.58 8.30 29.87 6.49Q29.17 4.67 28.59 2.48L28.59 2.48L30.64 2.48Q30.78 3.07 30.97 3.74Q31.15 4.42 31.36 5.09Q31.57 5.76 31.80 6.41Q32.03 7.06 32.27 7.62L32.27 7.62Q32.43 7.06 32.61 6.41Q32.78 5.76 32.94 5.10Q33.10 4.43 33.26 3.76Q33.41 3.09 33.54 2.48L33.54 2.48ZM39.58-0.02L39.58-0.02Q41.47-0.02 42.51 0.76Q43.55 1.54 43.55 3.30L43.55 3.30Q43.55 5.07 42.50 5.86Q41.46 6.66 39.54 6.66L39.54 6.66L38.83 6.66L38.83 10L36.86 10L36.86 0.22Q37.15 0.16 37.51 0.11Q37.87 0.06 38.24 0.04Q38.61 0.02 38.96 0Q39.31-0.02 39.58-0.02ZM39.81 1.70L39.81 1.70Q39.63 1.70 39.32 1.70Q39.01 1.71 38.83 1.74L38.83 1.74L38.83 4.94L39.63 4.94Q40.58 4.94 41.06 4.57Q41.54 4.19 41.54 3.28L41.54 3.28Q41.54 2.42 41.06 2.06Q40.59 1.70 39.81 1.70ZM46.98 10L45.01 10L45.01-0.77L46.98-1.10L46.98 2.54Q47.22 2.46 47.55 2.39Q47.89 2.32 48.14 2.32L48.14 2.32Q48.98 2.32 49.54 2.57Q50.10 2.82 50.43 3.27Q50.77 3.73 50.91 4.36Q51.06 4.99 51.06 5.76L51.06 5.76L51.06 10L49.09 10L49.09 6.02Q49.09 4.96 48.85 4.50Q48.61 4.03 47.94 4.03L47.94 4.03Q47.66 4.03 47.40 4.10Q47.14 4.16 46.98 4.21L46.98 4.21L46.98 10ZM57.54 2.48L59.55 2.48Q59.25 3.54 58.97 4.55Q58.69 5.57 58.38 6.54Q58.08 7.50 57.74 8.43Q57.39 9.36 56.99 10.24L56.99 10.24Q56.69 10.88 56.39 11.34Q56.10 11.81 55.74 12.10Q55.38 12.40 54.94 12.54Q54.50 12.69 53.90 12.69L53.90 12.69Q53.41 12.69 53 12.61Q52.59 12.53 52.32 12.40L52.32 12.40L52.69 10.75Q53.01 10.90 53.26 10.95Q53.50 11.01 53.79 11.01L53.79 11.01Q54.37 11.01 54.72 10.62Q55.07 10.24 55.28 9.71L55.28 9.71Q54.58 8.30 53.87 6.49Q53.17 4.67 52.59 2.48L52.59 2.48L54.64 2.48Q54.78 3.07 54.97 3.74Q55.15 4.42 55.36 5.09Q55.57 5.76 55.80 6.41Q56.03 7.06 56.27 7.62L56.27 7.62Q56.43 7.06 56.61 6.41Q56.78 5.76 56.94 5.10Q57.10 4.43 57.26 3.76Q57.41 3.09 57.54 2.48L57.54 2.48Z"/>
    </g>
</svg>