<?xml version="1.0" encoding="UTF-8"?>
<svg height="34" width="106.6" version="1.1" xmlns="http://www.w3.org/2000/svg">
    <rect
        height="32"
        width="104.6"
        rx="14"
        ry="14"
        x="1"
        y="1"
        fill="#1a1a1a"
        stroke="#666666"
        stroke-width="1"
         />
    <g transform="translate(0, 14)">
        <path fill="#666666" d="M18.29 11.36L18.29 11.36Q14.62 11.36 12.69 9.01Q10.76 6.66 10.76 2.32L10.76 2.32Q10.76 0.16 11.34-1.52Q11.93-3.20 12.98-4.36Q14.03-5.52 15.47-6.12Q16.92-6.72 18.62-6.72L18.62-6.72Q19.55-6.72 20.29-6.57Q21.03-6.42 21.59-6.22Q22.15-6.02 22.53-5.80Q22.91-5.58 23.10-5.46L23.10-5.46L22.21-2.72Q21.56-3.14 20.65-3.43Q19.74-3.73 18.57-3.73L18.57-3.73Q17.76-3.73 16.99-3.43Q16.22-3.14 15.61-2.45Q15.01-1.77 14.63-0.62Q14.26 0.53 14.26 2.24L14.26 2.24Q14.26 5.20 15.28 6.79Q16.30 8.37 18.62 8.37L18.62 8.37Q19.97 8.37 20.85 8.06Q21.73 7.75 22.26 7.44L22.26 7.44L23.13 10.16Q22.40 10.61 21.16 10.99Q19.91 11.36 18.29 11.36ZM30.38 8.40L30.38 8.40Q31.64 8.40 32.32 8.21Q32.99 8.03 32.99 7.47L32.99 7.47Q32.99 7.11 32.78 6.86Q32.57 6.60 32.19 6.42Q31.81 6.24 31.32 6.07Q30.83 5.90 30.30 5.74L30.30 5.74Q29.54 5.51 28.76 5.22Q27.98 4.92 27.33 4.48Q26.69 4.03 26.27 3.34Q25.85 2.66 25.85 1.62L25.85 1.62Q25.85 0.78 26.17 0.04Q26.49-0.70 27.18-1.28Q27.86-1.85 28.93-2.17Q29.99-2.50 31.48-2.50L31.48-2.50Q32.76-2.50 33.87-2.30Q34.98-2.10 35.79-1.74L35.79-1.74L35.26 1.17Q34.78 1.03 33.77 0.71Q32.76 0.39 31.50 0.39L31.50 0.39Q30.19 0.39 29.73 0.71Q29.26 1.03 29.26 1.40L29.26 1.40Q29.26 1.70 29.47 1.94Q29.68 2.18 30.03 2.38Q30.38 2.57 30.85 2.75Q31.31 2.94 31.84 3.10L31.84 3.10Q32.60 3.36 33.41 3.66Q34.22 3.97 34.88 4.43Q35.54 4.90 35.96 5.61Q36.38 6.32 36.38 7.36L36.38 7.36Q36.38 8.17 36.07 8.90Q35.76 9.63 35.05 10.16Q34.33 10.69 33.18 11Q32.04 11.31 30.36 11.31L30.36 11.31Q28.65 11.31 27.44 10.92Q26.24 10.52 25.51 10.22L25.51 10.22L26.04 7.33Q27.02 7.72 28.13 8.06Q29.24 8.40 30.38 8.40ZM51.22 4.39L51.22 4.39Q51.22 5.96 50.77 7.23Q50.32 8.51 49.51 9.43Q48.70 10.36 47.56 10.86Q46.43 11.36 45.03 11.36L45.03 11.36Q43.63 11.36 42.49 10.86Q41.36 10.36 40.53 9.43Q39.71 8.51 39.26 7.23Q38.81 5.96 38.81 4.39L38.81 4.39Q38.81 2.85 39.27 1.58Q39.74 0.30 40.56-0.61Q41.39-1.52 42.54-2.01Q43.68-2.50 45.03-2.50L45.03-2.50Q46.40-2.50 47.53-2.01Q48.67-1.52 49.49-0.61Q50.32 0.30 50.77 1.58Q51.22 2.85 51.22 4.39ZM42.31 4.42L42.31 4.42Q42.31 6.18 42.94 7.28Q43.57 8.37 44.97 8.37L44.97 8.37Q46.32 8.37 47.00 7.28Q47.69 6.18 47.69 4.42L47.69 4.42Q47.69 2.66 47.06 1.58Q46.43 0.50 45.03 0.50L45.03 0.50Q43.68 0.50 43.00 1.58Q42.31 2.66 42.31 4.42ZM64.26-2.16L64.26 10.55Q63.31 10.80 61.95 11.06Q60.60 11.31 59 11.31L59 11.31Q57.38 11.31 56.34 10.86Q55.30 10.41 54.70 9.59Q54.10 8.76 53.88 7.64Q53.65 6.52 53.65 5.18L53.65 5.18L53.65-2.16L57.10-2.16L57.10 4.73Q57.10 6.55 57.53 7.43Q57.96 8.31 59.22 8.31L59.22 8.31Q60.01 8.31 60.79 8.17L60.79 8.17L60.79-2.16L64.26-2.16ZM67.76 11L67.76-1.74Q68.69-1.99 70.05-2.22Q71.40-2.44 73-2.44L73-2.44Q74.57-2.44 75.60-2.01Q76.64-1.57 77.24-0.77Q77.84 0.02 78.10 1.13Q78.35 2.24 78.35 3.58L78.35 3.58L78.35 11L74.90 11L74.90 4.03Q74.90 2.18 74.48 1.37Q74.06 0.56 72.78 0.56L72.78 0.56Q72.38 0.56 72.01 0.58Q71.63 0.61 71.21 0.67L71.21 0.67L71.21 11L67.76 11ZM84.28 4.34L84.28 4.34Q84.28 6.10 84.94 7.22Q85.60 8.34 87.06 8.34L87.06 8.34Q87.48 8.34 87.84 8.31Q88.20 8.28 88.60 8.23L88.60 8.23L88.60 1.06Q88.20 0.84 87.70 0.68Q87.20 0.53 86.64 0.53L86.64 0.53Q85.40 0.53 84.84 1.51Q84.28 2.49 84.28 4.34ZM92.04-8.43L92.04 10.61Q91.09 10.92 89.72 11.11Q88.34 11.31 87.03 11.31L87.03 11.31Q83.95 11.31 82.37 9.49Q80.78 7.67 80.78 4.50L80.78 4.50Q80.78 1.28 82.11-0.58Q83.44-2.44 86.05-2.44L86.05-2.44Q86.75-2.44 87.42-2.29Q88.09-2.13 88.60-1.85L88.60-1.85L88.60-7.84L92.04-8.43Z"/>
    </g>
</svg>