<?xml version="1.0" encoding="UTF-8"?>
<svg height="34" width="78.4" version="1.1" xmlns="http://www.w3.org/2000/svg">
    <rect
        height="32"
        width="76.4"
        rx="14"
        ry="14"
        x="1"
        y="1"
        fill="#77d9fb"
        stroke="#057ca3"
        stroke-width="1"
         />
    <g transform="translate(0, 14)">
        <path fill="#057ca3" d="M15.99-6.53L15.99-6.53Q17.48-6.53 18.68-6.19Q19.88-5.86 20.75-5.16Q21.62-4.46 22.08-3.38Q22.54-2.30 22.54-0.84L22.54-0.84Q22.54 0.67 21.93 1.90Q21.31 3.13 19.88 3.78L19.88 3.78Q20.36 4.50 20.89 5.39Q21.42 6.27 21.93 7.23Q22.43 8.20 22.89 9.17Q23.36 10.13 23.69 11L23.69 11L20.08 11Q19.44 9.32 18.58 7.77Q17.73 6.21 16.75 4.62L16.75 4.62L14.96 4.62L14.96 11L11.51 11L11.51-6.08Q12.02-6.19 12.62-6.29Q13.22-6.39 13.84-6.43Q14.45-6.47 15.01-6.50Q15.57-6.53 15.99-6.53ZM19.04-0.87L19.04-0.87Q19.04-2.24 18.20-2.89Q17.36-3.53 15.99-3.53L15.99-3.53Q15.80-3.53 15.52-3.52Q15.24-3.50 14.96-3.45L14.96-3.45L14.96 1.76L15.71 1.76Q17.48 1.76 18.26 1.07Q19.04 0.39 19.04-0.87ZM37.75 11L34.05 11L33.24 7.00L28.62 7.00L27.84 11L24.25 11Q25.48 5.88 26.74 1.66Q28.00-2.55 29.18-6.33L29.18-6.33L32.93-6.33Q34.16-2.52 35.38 1.75Q36.60 6.02 37.75 11L37.75 11ZM30.97-2.97L30.97-2.97Q30.69-1.99 30.45-1.11Q30.22-0.23 30.01 0.63Q29.80 1.48 29.61 2.35Q29.43 3.22 29.26 4.14L29.26 4.14L32.65 4.14Q32.48 3.22 32.32 2.35Q32.15 1.48 31.94 0.63Q31.73-0.23 31.49-1.11Q31.25-1.99 30.97-2.97ZM39.65-6.33L42.51-6.33Q42.70-5.74 43.00-4.82Q43.29-3.90 43.63-2.83Q43.96-1.77 44.30-0.68Q44.64 0.42 44.94 1.34L44.94 1.34Q45.28 0.30 45.64-0.80Q46.01-1.91 46.34-2.93Q46.68-3.95 46.96-4.85Q47.24-5.74 47.46-6.33L47.46-6.33L50.32-6.33Q50.52-4.06 50.70-1.91Q50.88 0.25 51.01 2.36Q51.13 4.48 51.22 6.62Q51.30 8.76 51.36 11L51.36 11L48.19 11L48.36-2.47L46.23 4.87L43.71 4.87L41.67-2.47L41.81 11L38.64 11Q38.73 8.87 38.83 6.58Q38.92 4.28 39.04 2.01Q39.15-0.26 39.30-2.38Q39.46-4.51 39.65-6.33L39.65-6.33ZM64.88 8.14L64.88 11L53.99 11L53.99-6.33L57.46-6.33L57.46 8.14L64.88 8.14Z"/>
    </g>
</svg>