<?xml version="1.0" encoding="UTF-8"?>
<svg height="34" width="78.4" version="1.1" xmlns="http://www.w3.org/2000/svg">
    <rect
        height="32"
        width="76.4"
        rx="14"
        ry="14"
        x="1"
        y="1"
        fill="#34EB6B"
        stroke="#0c792d"
        stroke-width="1"
         />
    <g transform="translate(0, 14)">
        <path fill="#0c792d" d="M23.75 11L20.05 11L19.24 7.00L14.62 7.00L13.84 11L10.25 11Q11.48 5.88 12.74 1.66Q14.00-2.55 15.18-6.33L15.18-6.33L18.93-6.33Q20.16-2.52 21.38 1.75Q22.60 6.02 23.75 11L23.75 11ZM16.97-2.97L16.97-2.97Q16.69-1.99 16.45-1.11Q16.22-0.23 16.01 0.63Q15.80 1.48 15.61 2.35Q15.43 3.22 15.26 4.14L15.26 4.14L18.65 4.14Q18.48 3.22 18.32 2.35Q18.15 1.48 17.94 0.63Q17.73-0.23 17.49-1.11Q17.25-1.99 16.97-2.97ZM36.52 11L25.51 11L25.51 8.14L29.29 8.14L29.29-3.48L25.51-3.48L25.51-6.33L36.52-6.33L36.52-3.48L32.76-3.48L32.76 8.14L36.52 8.14L36.52 11ZM42.96-3.45L42.96 8.20Q43.10 8.23 43.26 8.23Q43.43 8.23 43.57 8.23L43.57 8.23Q44.75 8.23 45.55 7.78Q46.34 7.33 46.83 6.55Q47.32 5.76 47.53 4.69Q47.74 3.61 47.74 2.32L47.74 2.32Q47.74 1.20 47.58 0.14Q47.41-0.93 46.99-1.74Q46.57-2.55 45.84-3.04Q45.11-3.53 43.96-3.53L43.96-3.53Q43.74-3.53 43.46-3.52Q43.18-3.50 42.96-3.45L42.96-3.45ZM51.24 2.32L51.24 2.32Q51.24 4.73 50.64 6.42Q50.04 8.12 48.98 9.18Q47.91 10.24 46.44 10.73Q44.97 11.22 43.21 11.22L43.21 11.22Q42.28 11.22 41.40 11.13Q40.52 11.03 39.51 10.80L39.51 10.80L39.51-6.11Q40.69-6.36 41.72-6.44Q42.76-6.53 43.66-6.53L43.66-6.53Q45.36-6.53 46.78-6.02Q48.19-5.52 49.17-4.44Q50.15-3.36 50.70-1.70Q51.24-0.03 51.24 2.32ZM64.88 8.14L64.88 11L53.99 11L53.99-6.33L57.46-6.33L57.46 8.14L64.88 8.14Z"/>
    </g>
</svg>