<?xml version="1.0" encoding="UTF-8"?>
<svg height="26" width="276.9" version="1.1" xmlns="http://www.w3.org/2000/svg"><!--Created by Josélio de S. C. Júnior - 2021 - https://github.com/joseliojunior -->
    <defs>
        <pattern id="pattern"
                x="3" y="3" width="6" height="6"
                patternUnits="userSpaceOnUse"
                patternTransform="rotate(45)" >
            <rect height="6" width="6"
                fill="#ffffff"/>
            <line x1="0" y1="0" x2="0" y2="6"
                stroke="#bbbbbb"
                stroke-width="2" />
        </pattern>
    </defs>
    <rect
        height="24"
        width="274.9"
        rx="12"
        ry="12"
        x="1" y="1"
        fill="url(#pattern)" />
    <g transform="translate(0, 8)">
        <path fill="#000000" d="M22.43 5.04L22.43 5.04Q22.43 5.76 22.49 6.39Q22.54 7.02 22.71 7.49Q22.88 7.95 23.18 8.22Q23.49 8.50 24 8.50L24 8.50Q24.50 8.50 24.81 8.22Q25.12 7.95 25.29 7.48Q25.46 7.01 25.51 6.38Q25.57 5.76 25.57 5.04L25.57 5.04Q25.57 4.32 25.51 3.69Q25.46 3.06 25.29 2.59Q25.12 2.13 24.82 1.86Q24.51 1.58 24 1.58L24 1.58Q23.49 1.58 23.18 1.86Q22.88 2.13 22.71 2.60Q22.54 3.07 22.49 3.70Q22.43 4.32 22.43 5.04ZM20.43 5.04L20.43 5.04Q20.43 2.48 21.38 1.18Q22.32-0.13 24-0.13L24-0.13Q25.74-0.13 26.66 1.18Q27.57 2.48 27.57 5.04L27.57 5.04Q27.57 7.60 26.64 8.90Q25.71 10.21 24.02 10.21L24.02 10.21Q22.27 10.21 21.35 8.90Q20.43 7.60 20.43 5.04ZM33.52 6.19L33.52 6.19Q33.52 5.14 33.18 4.58Q32.83 4.02 32.13 4.02L32.13 4.02Q31.81 4.02 31.50 4.10Q31.18 4.19 30.96 4.32L30.96 4.32L30.96 8.40Q31.18 8.45 31.43 8.46Q31.68 8.48 31.86 8.48L31.86 8.48Q32.62 8.48 33.07 7.96Q33.52 7.44 33.52 6.19ZM35.52 6.24L35.52 6.24Q35.52 7.14 35.28 7.86Q35.04 8.59 34.58 9.10Q34.11 9.62 33.44 9.90Q32.77 10.18 31.90 10.18L31.90 10.18Q31.14 10.18 30.34 10.06Q29.54 9.95 28.99 9.78L28.99 9.78L28.99-0.77L30.96-1.10L30.96 2.66Q31.38 2.46 31.76 2.39Q32.14 2.32 32.53 2.32L32.53 2.32Q33.26 2.32 33.82 2.60Q34.38 2.88 34.76 3.40Q35.14 3.92 35.33 4.64Q35.52 5.36 35.52 6.24ZM42.40 2.48L42.40 9.50Q42.40 10.42 42.18 11.03Q41.95 11.65 41.56 12.02Q41.17 12.40 40.63 12.56Q40.10 12.72 39.47 12.72L39.47 12.72Q38.70 12.72 38.05 12.53Q37.39 12.34 36.78 12.03L36.78 12.03L37.39 10.37Q37.79 10.59 38.36 10.79Q38.93 10.99 39.39 10.99L39.39 10.99Q39.89 10.99 40.16 10.70Q40.43 10.40 40.43 9.60L40.43 9.60L40.43 4.11L37.39 4.11L37.39 2.48L42.40 2.48ZM42.16 0.32L42.16 0.32Q42.16 0.90 41.79 1.23Q41.42 1.57 40.91 1.57L40.91 1.57Q40.40 1.57 40.04 1.23Q39.68 0.90 39.68 0.32L39.68 0.32Q39.68-0.27 40.04-0.61Q40.40-0.94 40.91-0.94L40.91-0.94Q41.42-0.94 41.79-0.61Q42.16-0.27 42.16 0.32ZM44.50 6.30L44.50 6.30Q44.50 5.31 44.80 4.56Q45.10 3.81 45.60 3.30Q46.10 2.80 46.74 2.54Q47.38 2.29 48.05 2.29L48.05 2.29Q49.71 2.29 50.58 3.27Q51.44 4.26 51.44 6.14L51.44 6.14Q51.44 6.34 51.43 6.54Q51.42 6.75 51.41 6.88L51.41 6.88L46.53 6.88Q46.53 7.62 47.14 8.04Q47.74 8.46 48.70 8.46L48.70 8.46Q49.30 8.46 49.83 8.34Q50.37 8.21 50.74 8.08L50.74 8.08L51.01 9.76Q50.50 9.94 49.92 10.06Q49.34 10.18 48.62 10.18L48.62 10.18Q47.66 10.18 46.90 9.93Q46.14 9.68 45.61 9.19Q45.07 8.70 44.78 7.98Q44.50 7.26 44.50 6.30ZM46.53 5.52L49.54 5.52Q49.54 5.22 49.46 4.94Q49.38 4.66 49.20 4.43Q49.02 4.21 48.75 4.07Q48.48 3.94 48.08 3.94L48.08 3.94Q47.70 3.94 47.42 4.06Q47.14 4.19 46.95 4.42Q46.77 4.64 46.66 4.93Q46.56 5.22 46.53 5.52L46.53 5.52ZM52.70 6.24L52.70 6.24Q52.70 5.42 52.96 4.70Q53.22 3.98 53.74 3.45Q54.27 2.91 55.08 2.60Q55.89 2.29 57.01 2.29L57.01 2.29Q57.68 2.29 58.22 2.38Q58.77 2.48 59.33 2.70L59.33 2.70L58.90 4.29Q58.58 4.18 58.18 4.09Q57.79 4 57.18 4L57.18 4Q56.48 4 56.01 4.17Q55.54 4.34 55.25 4.63Q54.96 4.93 54.83 5.34Q54.70 5.76 54.70 6.24L54.70 6.24Q54.70 7.28 55.29 7.87Q55.87 8.46 57.28 8.46L57.28 8.46Q57.74 8.46 58.25 8.40Q58.75 8.34 59.17 8.19L59.17 8.19L59.46 9.81Q59.04 9.97 58.45 10.07Q57.86 10.18 57.06 10.18L57.06 10.18Q55.90 10.18 55.08 9.87Q54.26 9.57 53.73 9.04Q53.20 8.51 52.95 7.79Q52.70 7.07 52.70 6.24ZM62.29 7.20L62.29 4.11L60.58 4.11L60.58 2.48L62.29 2.48L62.29 0.59L64.26 0.27L64.26 2.48L67.41 2.48L67.41 4.11L64.26 4.11L64.26 7.15Q64.26 7.57 64.34 7.82Q64.42 8.08 64.56 8.22Q64.70 8.37 64.91 8.42Q65.12 8.46 65.38 8.46L65.38 8.46Q65.65 8.46 65.88 8.45Q66.11 8.43 66.33 8.39Q66.54 8.35 66.78 8.27Q67.01 8.19 67.28 8.06L67.28 8.06L67.55 9.76Q67.01 9.98 66.38 10.08Q65.74 10.18 65.15 10.18L65.15 10.18Q64.46 10.18 63.94 10.06Q63.41 9.95 63.04 9.63Q62.67 9.31 62.48 8.73Q62.29 8.14 62.29 7.20L62.29 7.20ZM78.83 1.74L78.83 8.40Q78.91 8.42 79.01 8.42Q79.10 8.42 79.18 8.42L79.18 8.42Q79.86 8.42 80.31 8.16Q80.77 7.90 81.05 7.46Q81.33 7.01 81.45 6.39Q81.57 5.78 81.57 5.04L81.57 5.04Q81.57 4.40 81.47 3.79Q81.38 3.18 81.14 2.72Q80.90 2.26 80.48 1.98Q80.06 1.70 79.41 1.70L79.41 1.70Q79.28 1.70 79.12 1.70Q78.96 1.71 78.83 1.74L78.83 1.74ZM83.57 5.04L83.57 5.04Q83.57 6.42 83.22 7.38Q82.88 8.35 82.27 8.96Q81.66 9.57 80.82 9.85Q79.98 10.13 78.98 10.13L78.98 10.13Q78.45 10.13 77.94 10.07Q77.44 10.02 76.86 9.89L76.86 9.89L76.86 0.22Q77.54 0.08 78.13 0.03Q78.72-0.02 79.23-0.02L79.23-0.02Q80.21-0.02 81.02 0.27Q81.82 0.56 82.38 1.18Q82.94 1.79 83.26 2.74Q83.57 3.70 83.57 5.04ZM88.02 8.59L88.02 8.59Q88.34 8.59 88.64 8.58Q88.94 8.58 89.17 8.54L89.17 8.54L89.17 6.82Q88.98 6.78 88.70 6.76Q88.43 6.74 88.21 6.74L88.21 6.74Q87.90 6.74 87.62 6.78Q87.33 6.82 87.11 6.91Q86.90 7.01 86.77 7.18Q86.64 7.36 86.64 7.65L86.64 7.65Q86.64 8.16 87.02 8.38Q87.41 8.59 88.02 8.59ZM87.84 2.29L87.84 2.29Q88.77 2.29 89.38 2.50Q90 2.72 90.37 3.11Q90.74 3.50 90.90 4.07Q91.06 4.64 91.06 5.34L91.06 5.34L91.06 9.82Q90.62 9.92 89.78 10.05Q88.93 10.18 87.87 10.18L87.87 10.18Q87.15 10.18 86.57 10.05Q85.98 9.92 85.57 9.62Q85.15 9.33 84.93 8.86Q84.70 8.38 84.70 7.70L84.70 7.70Q84.70 7.04 84.96 6.59Q85.22 6.14 85.65 5.87Q86.08 5.60 86.64 5.48Q87.20 5.36 87.81 5.36L87.81 5.36Q88.58 5.36 89.17 5.49L89.17 5.49L89.17 5.25Q89.17 4.69 88.82 4.31Q88.46 3.94 87.60 3.94L87.60 3.94Q87.04 3.94 86.52 4.02Q86 4.10 85.68 4.21L85.68 4.21L85.41 2.62Q85.78 2.50 86.45 2.39Q87.12 2.29 87.84 2.29ZM94.29 7.20L94.29 4.11L92.58 4.11L92.58 2.48L94.29 2.48L94.29 0.59L96.26 0.27L96.26 2.48L99.41 2.48L99.41 4.11L96.26 4.11L96.26 7.15Q96.26 7.57 96.34 7.82Q96.42 8.08 96.56 8.22Q96.70 8.37 96.91 8.42Q97.12 8.46 97.38 8.46L97.38 8.46Q97.65 8.46 97.88 8.45Q98.11 8.43 98.33 8.39Q98.54 8.35 98.78 8.27Q99.01 8.19 99.28 8.06L99.28 8.06L99.55 9.76Q99.01 9.98 98.38 10.08Q97.74 10.18 97.15 10.18L97.15 10.18Q96.46 10.18 95.94 10.06Q95.41 9.95 95.04 9.63Q94.67 9.31 94.48 8.73Q94.29 8.14 94.29 7.20L94.29 7.20ZM104.02 8.59L104.02 8.59Q104.34 8.59 104.64 8.58Q104.94 8.58 105.17 8.54L105.17 8.54L105.17 6.82Q104.98 6.78 104.70 6.76Q104.43 6.74 104.21 6.74L104.21 6.74Q103.90 6.74 103.62 6.78Q103.33 6.82 103.11 6.91Q102.90 7.01 102.77 7.18Q102.64 7.36 102.64 7.65L102.64 7.65Q102.64 8.16 103.02 8.38Q103.41 8.59 104.02 8.59ZM103.84 2.29L103.84 2.29Q104.77 2.29 105.38 2.50Q106 2.72 106.37 3.11Q106.74 3.50 106.90 4.07Q107.06 4.64 107.06 5.34L107.06 5.34L107.06 9.82Q106.62 9.92 105.78 10.05Q104.93 10.18 103.87 10.18L103.87 10.18Q103.15 10.18 102.57 10.05Q101.98 9.92 101.57 9.62Q101.15 9.33 100.93 8.86Q100.70 8.38 100.70 7.70L100.70 7.70Q100.70 7.04 100.96 6.59Q101.22 6.14 101.65 5.87Q102.08 5.60 102.64 5.48Q103.20 5.36 103.81 5.36L103.81 5.36Q104.58 5.36 105.17 5.49L105.17 5.49L105.17 5.25Q105.17 4.69 104.82 4.31Q104.46 3.94 103.60 3.94L103.60 3.94Q103.04 3.94 102.52 4.02Q102 4.10 101.68 4.21L101.68 4.21L101.41 2.62Q101.78 2.50 102.45 2.39Q103.12 2.29 103.84 2.29ZM123.15 10L116.86 10L116.86 8.37L119.02 8.37L119.02 1.73L116.86 1.73L116.86 0.10L123.15 0.10L123.15 1.73L121.01 1.73L121.01 8.37L123.15 8.37L123.15 10ZM125.01 10L125.01 2.72Q125.54 2.58 126.31 2.45Q127.09 2.32 128 2.32L128 2.32Q128.90 2.32 129.49 2.57Q130.08 2.82 130.42 3.27Q130.77 3.73 130.91 4.36Q131.06 4.99 131.06 5.76L131.06 5.76L131.06 10L129.09 10L129.09 6.02Q129.09 4.96 128.85 4.50Q128.61 4.03 127.87 4.03L127.87 4.03Q127.65 4.03 127.43 4.05Q127.22 4.06 126.98 4.10L126.98 4.10L126.98 10L125.01 10ZM135.65 8.51L135.65 8.51Q136.37 8.51 136.75 8.41Q137.14 8.30 137.14 7.98L137.14 7.98Q137.14 7.78 137.02 7.63Q136.90 7.49 136.68 7.38Q136.46 7.28 136.18 7.18Q135.90 7.09 135.60 6.99L135.60 6.99Q135.17 6.86 134.72 6.70Q134.27 6.53 133.90 6.27Q133.54 6.02 133.30 5.62Q133.06 5.23 133.06 4.64L133.06 4.64Q133.06 4.16 133.24 3.74Q133.42 3.31 133.82 2.98Q134.21 2.66 134.82 2.47Q135.42 2.29 136.27 2.29L136.27 2.29Q137.01 2.29 137.64 2.40Q138.27 2.51 138.74 2.72L138.74 2.72L138.43 4.38Q138.16 4.30 137.58 4.12Q137.01 3.94 136.29 3.94L136.29 3.94Q135.54 3.94 135.27 4.12Q135.01 4.30 135.01 4.51L135.01 4.51Q135.01 4.69 135.13 4.82Q135.25 4.96 135.45 5.07Q135.65 5.18 135.91 5.29Q136.18 5.39 136.48 5.49L136.48 5.49Q136.91 5.63 137.38 5.81Q137.84 5.98 138.22 6.25Q138.59 6.51 138.83 6.92Q139.07 7.33 139.07 7.92L139.07 7.92Q139.07 8.38 138.90 8.80Q138.72 9.22 138.31 9.52Q137.90 9.82 137.25 10Q136.59 10.18 135.63 10.18L135.63 10.18Q134.66 10.18 133.97 9.95Q133.28 9.73 132.86 9.55L132.86 9.55L133.17 7.90Q133.73 8.13 134.36 8.32Q134.99 8.51 135.65 8.51ZM142.29 7.20L142.29 4.11L140.58 4.11L140.58 2.48L142.29 2.48L142.29 0.59L144.26 0.27L144.26 2.48L147.41 2.48L147.41 4.11L144.26 4.11L144.26 7.15Q144.26 7.57 144.34 7.82Q144.42 8.08 144.56 8.22Q144.70 8.37 144.91 8.42Q145.12 8.46 145.38 8.46L145.38 8.46Q145.65 8.46 145.88 8.45Q146.11 8.43 146.33 8.39Q146.54 8.35 146.78 8.27Q147.01 8.19 147.28 8.06L147.28 8.06L147.55 9.76Q147.01 9.98 146.38 10.08Q145.74 10.18 145.15 10.18L145.15 10.18Q144.46 10.18 143.94 10.06Q143.41 9.95 143.04 9.63Q142.67 9.31 142.48 8.73Q142.29 8.14 142.29 7.20L142.29 7.20ZM152.02 8.59L152.02 8.59Q152.34 8.59 152.64 8.58Q152.94 8.58 153.17 8.54L153.17 8.54L153.17 6.82Q152.98 6.78 152.70 6.76Q152.43 6.74 152.21 6.74L152.21 6.74Q151.90 6.74 151.62 6.78Q151.33 6.82 151.11 6.91Q150.90 7.01 150.77 7.18Q150.64 7.36 150.64 7.65L150.64 7.65Q150.64 8.16 151.02 8.38Q151.41 8.59 152.02 8.59ZM151.84 2.29L151.84 2.29Q152.77 2.29 153.38 2.50Q154 2.72 154.37 3.11Q154.74 3.50 154.90 4.07Q155.06 4.64 155.06 5.34L155.06 5.34L155.06 9.82Q154.62 9.92 153.78 10.05Q152.93 10.18 151.87 10.18L151.87 10.18Q151.15 10.18 150.57 10.05Q149.98 9.92 149.57 9.62Q149.15 9.33 148.93 8.86Q148.70 8.38 148.70 7.70L148.70 7.70Q148.70 7.04 148.96 6.59Q149.22 6.14 149.65 5.87Q150.08 5.60 150.64 5.48Q151.20 5.36 151.81 5.36L151.81 5.36Q152.58 5.36 153.17 5.49L153.17 5.49L153.17 5.25Q153.17 4.69 152.82 4.31Q152.46 3.94 151.60 3.94L151.60 3.94Q151.04 3.94 150.52 4.02Q150 4.10 149.68 4.21L149.68 4.21L149.41 2.62Q149.78 2.50 150.45 2.39Q151.12 2.29 151.84 2.29ZM157.01 10L157.01 2.72Q157.54 2.58 158.31 2.45Q159.09 2.32 160 2.32L160 2.32Q160.90 2.32 161.49 2.57Q162.08 2.82 162.42 3.27Q162.77 3.73 162.91 4.36Q163.06 4.99 163.06 5.76L163.06 5.76L163.06 10L161.09 10L161.09 6.02Q161.09 4.96 160.85 4.50Q160.61 4.03 159.87 4.03L159.87 4.03Q159.65 4.03 159.43 4.05Q159.22 4.06 158.98 4.10L158.98 4.10L158.98 10L157.01 10ZM164.70 6.24L164.70 6.24Q164.70 5.42 164.96 4.70Q165.22 3.98 165.74 3.45Q166.27 2.91 167.08 2.60Q167.89 2.29 169.01 2.29L169.01 2.29Q169.68 2.29 170.22 2.38Q170.77 2.48 171.33 2.70L171.33 2.70L170.90 4.29Q170.58 4.18 170.18 4.09Q169.79 4 169.18 4L169.18 4Q168.48 4 168.01 4.17Q167.54 4.34 167.25 4.63Q166.96 4.93 166.83 5.34Q166.70 5.76 166.70 6.24L166.70 6.24Q166.70 7.28 167.29 7.87Q167.87 8.46 169.28 8.46L169.28 8.46Q169.74 8.46 170.25 8.40Q170.75 8.34 171.17 8.19L171.17 8.19L171.46 9.81Q171.04 9.97 170.45 10.07Q169.86 10.18 169.06 10.18L169.06 10.18Q167.90 10.18 167.08 9.87Q166.26 9.57 165.73 9.04Q165.20 8.51 164.95 7.79Q164.70 7.07 164.70 6.24ZM172.50 6.30L172.50 6.30Q172.50 5.31 172.80 4.56Q173.10 3.81 173.60 3.30Q174.10 2.80 174.74 2.54Q175.38 2.29 176.05 2.29L176.05 2.29Q177.71 2.29 178.58 3.27Q179.44 4.26 179.44 6.14L179.44 6.14Q179.44 6.34 179.43 6.54Q179.42 6.75 179.41 6.88L179.41 6.88L174.53 6.88Q174.53 7.62 175.14 8.04Q175.74 8.46 176.70 8.46L176.70 8.46Q177.30 8.46 177.83 8.34Q178.37 8.21 178.74 8.08L178.74 8.08L179.01 9.76Q178.50 9.94 177.92 10.06Q177.34 10.18 176.62 10.18L176.62 10.18Q175.66 10.18 174.90 9.93Q174.14 9.68 173.61 9.19Q173.07 8.70 172.78 7.98Q172.50 7.26 172.50 6.30ZM174.53 5.52L177.54 5.52Q177.54 5.22 177.46 4.94Q177.38 4.66 177.20 4.43Q177.02 4.21 176.75 4.07Q176.48 3.94 176.08 3.94L176.08 3.94Q175.70 3.94 175.42 4.06Q175.14 4.19 174.95 4.42Q174.77 4.64 174.66 4.93Q174.56 5.22 174.53 5.52L174.53 5.52ZM195.26 10L193.68 10Q193.01 8.35 192.22 6.71Q191.42 5.07 190.51 3.42L190.51 3.42L190.51 10L188.74 10L188.74 0.10L190.32 0.10Q190.77 0.80 191.22 1.62Q191.66 2.45 192.09 3.26Q192.51 4.08 192.87 4.85Q193.23 5.62 193.49 6.19L193.49 6.19L193.49 0.10L195.26 0.10L195.26 10ZM203.55 6.22L203.55 6.22Q203.55 7.12 203.30 7.85Q203.04 8.58 202.58 9.10Q202.11 9.63 201.46 9.92Q200.82 10.21 200.02 10.21L200.02 10.21Q199.22 10.21 198.57 9.92Q197.92 9.63 197.45 9.10Q196.98 8.58 196.72 7.85Q196.46 7.12 196.46 6.22L196.46 6.22Q196.46 5.34 196.73 4.62Q196.99 3.89 197.46 3.37Q197.94 2.85 198.59 2.57Q199.25 2.29 200.02 2.29L200.02 2.29Q200.80 2.29 201.45 2.57Q202.10 2.85 202.57 3.37Q203.04 3.89 203.30 4.62Q203.55 5.34 203.55 6.22ZM198.46 6.24L198.46 6.24Q198.46 7.25 198.82 7.87Q199.18 8.50 199.98 8.50L199.98 8.50Q200.75 8.50 201.14 7.87Q201.54 7.25 201.54 6.24L201.54 6.24Q201.54 5.23 201.18 4.62Q200.82 4 200.02 4L200.02 4Q199.25 4 198.86 4.62Q198.46 5.23 198.46 6.24ZM206.29 7.20L206.29 4.11L204.58 4.11L204.58 2.48L206.29 2.48L206.29 0.59L208.26 0.27L208.26 2.48L211.41 2.48L211.41 4.11L208.26 4.11L208.26 7.15Q208.26 7.57 208.34 7.82Q208.42 8.08 208.56 8.22Q208.70 8.37 208.91 8.42Q209.12 8.46 209.38 8.46L209.38 8.46Q209.65 8.46 209.88 8.45Q210.11 8.43 210.33 8.39Q210.54 8.35 210.78 8.27Q211.01 8.19 211.28 8.06L211.28 8.06L211.55 9.76Q211.01 9.98 210.38 10.08Q209.74 10.18 209.15 10.18L209.15 10.18Q208.46 10.18 207.94 10.06Q207.41 9.95 207.04 9.63Q206.67 9.31 206.48 8.73Q206.29 8.14 206.29 7.20L206.29 7.20ZM216.02 8.59L216.02 8.59Q216.34 8.59 216.64 8.58Q216.94 8.58 217.17 8.54L217.17 8.54L217.17 6.82Q216.98 6.78 216.70 6.76Q216.43 6.74 216.21 6.74L216.21 6.74Q215.90 6.74 215.62 6.78Q215.33 6.82 215.11 6.91Q214.90 7.01 214.77 7.18Q214.64 7.36 214.64 7.65L214.64 7.65Q214.64 8.16 215.02 8.38Q215.41 8.59 216.02 8.59ZM215.84 2.29L215.84 2.29Q216.77 2.29 217.38 2.50Q218 2.72 218.37 3.11Q218.74 3.50 218.90 4.07Q219.06 4.64 219.06 5.34L219.06 5.34L219.06 9.82Q218.62 9.92 217.78 10.05Q216.93 10.18 215.87 10.18L215.87 10.18Q215.15 10.18 214.57 10.05Q213.98 9.92 213.57 9.62Q213.15 9.33 212.93 8.86Q212.70 8.38 212.70 7.70L212.70 7.70Q212.70 7.04 212.96 6.59Q213.22 6.14 213.65 5.87Q214.08 5.60 214.64 5.48Q215.20 5.36 215.81 5.36L215.81 5.36Q216.58 5.36 217.17 5.49L217.17 5.49L217.17 5.25Q217.17 4.69 216.82 4.31Q216.46 3.94 215.60 3.94L215.60 3.94Q215.04 3.94 214.52 4.02Q214 4.10 213.68 4.21L213.68 4.21L213.41 2.62Q213.78 2.50 214.45 2.39Q215.12 2.29 215.84 2.29ZM222.29 7.20L222.29 4.11L220.58 4.11L220.58 2.48L222.29 2.48L222.29 0.59L224.26 0.27L224.26 2.48L227.41 2.48L227.41 4.11L224.26 4.11L224.26 7.15Q224.26 7.57 224.34 7.82Q224.42 8.08 224.56 8.22Q224.70 8.37 224.91 8.42Q225.12 8.46 225.38 8.46L225.38 8.46Q225.65 8.46 225.88 8.45Q226.11 8.43 226.33 8.39Q226.54 8.35 226.78 8.27Q227.01 8.19 227.28 8.06L227.28 8.06L227.55 9.76Q227.01 9.98 226.38 10.08Q225.74 10.18 225.15 10.18L225.15 10.18Q224.46 10.18 223.94 10.06Q223.41 9.95 223.04 9.63Q222.67 9.31 222.48 8.73Q222.29 8.14 222.29 7.20L222.29 7.20ZM232.54 0.32L232.54 0.32Q232.54 0.90 232.18 1.23Q231.81 1.57 231.30 1.57L231.30 1.57Q230.78 1.57 230.42 1.23Q230.06 0.90 230.06 0.32L230.06 0.32Q230.06-0.27 230.42-0.61Q230.78-0.94 231.30-0.94L231.30-0.94Q231.81-0.94 232.18-0.61Q232.54-0.27 232.54 0.32ZM235.22 8.10L235.47 9.68Q234.86 9.97 234.33 10.07Q233.79 10.18 233.34 10.18L233.34 10.18Q232.58 10.18 232.06 9.95Q231.54 9.73 231.22 9.30Q230.91 8.88 230.78 8.27Q230.66 7.66 230.66 6.88L230.66 6.88L230.66 4.11L228.58 4.11L228.58 2.48L232.62 2.48L232.62 7.14Q232.62 7.81 232.87 8.14Q233.12 8.46 233.70 8.46L233.70 8.46Q233.97 8.46 234.35 8.39Q234.74 8.32 235.22 8.10L235.22 8.10ZM243.55 6.22L243.55 6.22Q243.55 7.12 243.30 7.85Q243.04 8.58 242.58 9.10Q242.11 9.63 241.46 9.92Q240.82 10.21 240.02 10.21L240.02 10.21Q239.22 10.21 238.57 9.92Q237.92 9.63 237.45 9.10Q236.98 8.58 236.72 7.85Q236.46 7.12 236.46 6.22L236.46 6.22Q236.46 5.34 236.73 4.62Q236.99 3.89 237.46 3.37Q237.94 2.85 238.59 2.57Q239.25 2.29 240.02 2.29L240.02 2.29Q240.80 2.29 241.45 2.57Q242.10 2.85 242.57 3.37Q243.04 3.89 243.30 4.62Q243.55 5.34 243.55 6.22ZM238.46 6.24L238.46 6.24Q238.46 7.25 238.82 7.87Q239.18 8.50 239.98 8.50L239.98 8.50Q240.75 8.50 241.14 7.87Q241.54 7.25 241.54 6.24L241.54 6.24Q241.54 5.23 241.18 4.62Q240.82 4 240.02 4L240.02 4Q239.25 4 238.86 4.62Q238.46 5.23 238.46 6.24ZM245.01 10L245.01 2.72Q245.54 2.58 246.31 2.45Q247.09 2.32 248 2.32L248 2.32Q248.90 2.32 249.49 2.57Q250.08 2.82 250.42 3.27Q250.77 3.73 250.91 4.36Q251.06 4.99 251.06 5.76L251.06 5.76L251.06 10L249.09 10L249.09 6.02Q249.09 4.96 248.85 4.50Q248.61 4.03 247.87 4.03L247.87 4.03Q247.65 4.03 247.43 4.05Q247.22 4.06 246.98 4.10L246.98 4.10L246.98 10L245.01 10Z"/>
    </g>
</svg>