<?xml version="1.0" encoding="UTF-8"?><svg height="34" width="392.9" version="1.1" xmlns="http://www.w3.org/2000/svg"><!--Created by Josélio de S. C. Júnior - 2021 - https://github.com/joseliojunior --><defs><pattern id="pattern" x="3" y="3" width="6" height="6" patternUnits="userSpaceOnUse" patternTransform="rotate(45)"><rect height="6" width="6" fill="#ffffff"/><line x1="0" y1="0" x2="0" y2="6" stroke="#bbbbbb" stroke-width="2" /></pattern></defs><rect height="32" width="390.9" rx="1" ry="1" x="1" y="1" fill="url(#pattern)" /><g transform="translate(0, 12)"><path fill="#000000" d="M23.65 4.56L23.65 4.56Q23.65 5.64 23.73 6.59Q23.82 7.54 24.07 8.23Q24.32 8.93 24.78 9.34Q25.23 9.74 26 9.74L26 9.74Q26.74 9.74 27.21 9.34Q27.68 8.93 27.93 8.22Q28.18 7.51 28.27 6.58Q28.35 5.64 28.35 4.56L28.35 4.56Q28.35 3.48 28.27 2.53Q28.18 1.58 27.93 0.89Q27.68 0.19 27.22-0.22Q26.77-0.62 26-0.62L26-0.62Q25.23-0.62 24.78-0.22Q24.32 0.19 24.07 0.90Q23.82 1.61 23.73 2.54Q23.65 3.48 23.65 4.56ZM20.65 4.56L20.65 4.56Q20.65 0.72 22.06-1.24Q23.48-3.19 26-3.19L26-3.19Q28.62-3.19 29.98-1.24Q31.35 0.72 31.35 4.56L31.35 4.56Q31.35 8.40 29.96 10.36Q28.57 12.31 26.02 12.31L26.02 12.31Q23.41 12.31 22.03 10.36Q20.65 8.40 20.65 4.56ZM40.28 6.29L40.28 6.29Q40.28 4.70 39.76 3.86Q39.25 3.02 38.19 3.02L38.19 3.02Q37.71 3.02 37.24 3.16Q36.78 3.29 36.44 3.48L36.44 3.48L36.44 9.60Q36.78 9.67 37.15 9.70Q37.52 9.72 37.78 9.72L37.78 9.72Q38.94 9.72 39.61 8.94Q40.28 8.16 40.28 6.29ZM43.28 6.36L43.28 6.36Q43.28 7.70 42.92 8.80Q42.56 9.89 41.86 10.66Q41.17 11.42 40.16 11.84Q39.15 12.26 37.86 12.26L37.86 12.26Q36.70 12.26 35.50 12.10Q34.30 11.93 33.49 11.66L33.49 11.66L33.49-4.15L36.44-4.66L36.44 0.98Q37.06 0.70 37.64 0.59Q38.22 0.48 38.79 0.48L38.79 0.48Q39.90 0.48 40.74 0.90Q41.58 1.32 42.14 2.10Q42.70 2.88 42.99 3.96Q43.28 5.04 43.28 6.36ZM53.60 0.72L53.60 11.26Q53.60 12.62 53.26 13.55Q52.93 14.47 52.34 15.04Q51.75 15.60 50.95 15.84Q50.14 16.08 49.21 16.08L49.21 16.08Q48.06 16.08 47.07 15.79Q46.09 15.50 45.18 15.05L45.18 15.05L46.09 12.55Q46.69 12.89 47.54 13.19Q48.39 13.49 49.09 13.49L49.09 13.49Q49.83 13.49 50.24 13.04Q50.65 12.60 50.65 11.40L50.65 11.40L50.65 3.17L46.09 3.17L46.09 0.72L53.60 0.72ZM53.24-2.52L53.24-2.52Q53.24-1.66 52.69-1.15Q52.14-0.65 51.37-0.65L51.37-0.65Q50.60-0.65 50.06-1.15Q49.52-1.66 49.52-2.52L49.52-2.52Q49.52-3.41 50.06-3.91Q50.60-4.42 51.37-4.42L51.37-4.42Q52.14-4.42 52.69-3.91Q53.24-3.41 53.24-2.52ZM56.74 6.46L56.74 6.46Q56.74 4.97 57.20 3.84Q57.66 2.71 58.40 1.96Q59.14 1.20 60.10 0.82Q61.06 0.43 62.07 0.43L62.07 0.43Q64.57 0.43 65.86 1.91Q67.16 3.38 67.16 6.22L67.16 6.22Q67.16 6.50 67.15 6.82Q67.14 7.13 67.11 7.32L67.11 7.32L59.79 7.32Q59.79 8.42 60.70 9.06Q61.62 9.70 63.06 9.70L63.06 9.70Q63.94 9.70 64.75 9.50Q65.55 9.31 66.10 9.12L66.10 9.12L66.51 11.64Q65.74 11.90 64.88 12.08Q64.02 12.26 62.94 12.26L62.94 12.26Q61.50 12.26 60.36 11.89Q59.22 11.52 58.41 10.79Q57.61 10.06 57.18 8.98Q56.74 7.90 56.74 6.46ZM59.79 5.28L64.30 5.28Q64.30 4.82 64.18 4.40Q64.06 3.98 63.80 3.65Q63.54 3.31 63.13 3.11Q62.72 2.90 62.12 2.90L62.12 2.90Q61.54 2.90 61.12 3.10Q60.70 3.29 60.43 3.62Q60.15 3.96 60.00 4.39Q59.84 4.82 59.79 5.28L59.79 5.28ZM69.06 6.36L69.06 6.36Q69.06 5.14 69.44 4.06Q69.82 2.98 70.62 2.17Q71.41 1.37 72.62 0.90Q73.83 0.43 75.51 0.43L75.51 0.43Q76.52 0.43 77.34 0.58Q78.15 0.72 78.99 1.06L78.99 1.06L78.34 3.43Q77.86 3.26 77.28 3.13Q76.69 3 75.78 3L75.78 3Q74.72 3 74.01 3.25Q73.30 3.50 72.87 3.95Q72.44 4.39 72.25 5.02Q72.06 5.64 72.06 6.36L72.06 6.36Q72.06 7.92 72.93 8.81Q73.81 9.70 75.92 9.70L75.92 9.70Q76.62 9.70 77.37 9.60Q78.13 9.50 78.75 9.29L78.75 9.29L79.18 11.71Q78.56 11.95 77.67 12.11Q76.78 12.26 75.58 12.26L75.58 12.26Q73.86 12.26 72.62 11.81Q71.38 11.35 70.59 10.56Q69.80 9.77 69.43 8.69Q69.06 7.61 69.06 6.36ZM83.43 7.80L83.43 3.17L80.86 3.17L80.86 0.72L83.43 0.72L83.43-2.11L86.38-2.59L86.38 0.72L91.11 0.72L91.11 3.17L86.38 3.17L86.38 7.73Q86.38 8.35 86.50 8.74Q86.62 9.12 86.84 9.34Q87.06 9.55 87.37 9.62Q87.68 9.70 88.06 9.70L88.06 9.70Q88.47 9.70 88.82 9.67Q89.17 9.65 89.49 9.59Q89.82 9.53 90.16 9.41Q90.51 9.29 90.92 9.10L90.92 9.10L91.33 11.64Q90.51 11.98 89.56 12.12Q88.62 12.26 87.73 12.26L87.73 12.26Q86.70 12.26 85.90 12.10Q85.11 11.93 84.56 11.45Q84.01 10.97 83.72 10.09Q83.43 9.22 83.43 7.80L83.43 7.80ZM108.25-0.38L108.25 9.60Q108.37 9.62 108.51 9.62Q108.66 9.62 108.78 9.62L108.78 9.62Q109.78 9.62 110.47 9.24Q111.15 8.86 111.57 8.18Q111.99 7.51 112.17 6.59Q112.35 5.66 112.35 4.56L112.35 4.56Q112.35 3.60 112.21 2.69Q112.06 1.78 111.70 1.08Q111.34 0.38 110.72-0.04Q110.10-0.46 109.11-0.46L109.11-0.46Q108.92-0.46 108.68-0.44Q108.44-0.43 108.25-0.38L108.25-0.38ZM115.35 4.56L115.35 4.56Q115.35 6.62 114.84 8.08Q114.32 9.53 113.41 10.44Q112.50 11.35 111.24 11.77Q109.98 12.19 108.46 12.19L108.46 12.19Q107.67 12.19 106.92 12.11Q106.16 12.02 105.30 11.83L105.30 11.83L105.30-2.66Q106.30-2.88 107.19-2.95Q108.08-3.02 108.85-3.02L108.85-3.02Q110.31-3.02 111.52-2.59Q112.74-2.16 113.58-1.24Q114.42-0.31 114.88 1.12Q115.35 2.54 115.35 4.56ZM122.02 9.89L122.02 9.89Q122.50 9.89 122.96 9.88Q123.42 9.86 123.75 9.82L123.75 9.82L123.75 7.22Q123.46 7.18 123.06 7.14Q122.65 7.10 122.31 7.10L122.31 7.10Q121.86 7.10 121.42 7.16Q120.99 7.22 120.67 7.37Q120.34 7.51 120.15 7.78Q119.96 8.04 119.96 8.47L119.96 8.47Q119.96 9.24 120.54 9.56Q121.11 9.89 122.02 9.89ZM121.76 0.43L121.76 0.43Q123.15 0.43 124.08 0.76Q125 1.08 125.55 1.67Q126.10 2.26 126.34 3.11Q126.58 3.96 126.58 5.02L126.58 5.02L126.58 11.74Q125.94 11.88 124.66 12.07Q123.39 12.26 121.81 12.26L121.81 12.26Q120.73 12.26 119.85 12.07Q118.98 11.88 118.35 11.44Q117.73 10.99 117.39 10.28Q117.06 9.58 117.06 8.54L117.06 8.54Q117.06 7.56 117.44 6.89Q117.82 6.22 118.47 5.81Q119.12 5.40 119.96 5.22Q120.80 5.04 121.71 5.04L121.71 5.04Q122.86 5.04 123.75 5.23L123.75 5.23L123.75 4.87Q123.75 4.03 123.22 3.47Q122.70 2.90 121.40 2.90L121.40 2.90Q120.56 2.90 119.78 3.02Q119 3.14 118.52 3.31L118.52 3.31L118.11 0.94Q118.66 0.74 119.67 0.59Q120.68 0.43 121.76 0.43ZM131.43 7.80L131.43 3.17L128.86 3.17L128.86 0.72L131.43 0.72L131.43-2.11L134.38-2.59L134.38 0.72L139.11 0.72L139.11 3.17L134.38 3.17L134.38 7.73Q134.38 8.35 134.50 8.74Q134.62 9.12 134.84 9.34Q135.06 9.55 135.37 9.62Q135.68 9.70 136.06 9.70L136.06 9.70Q136.47 9.70 136.82 9.67Q137.17 9.65 137.49 9.59Q137.82 9.53 138.16 9.41Q138.51 9.29 138.92 9.10L138.92 9.10L139.33 11.64Q138.51 11.98 137.56 12.12Q136.62 12.26 135.73 12.26L135.73 12.26Q134.70 12.26 133.90 12.10Q133.11 11.93 132.56 11.45Q132.01 10.97 131.72 10.09Q131.43 9.22 131.43 7.80L131.43 7.80ZM146.02 9.89L146.02 9.89Q146.50 9.89 146.96 9.88Q147.42 9.86 147.75 9.82L147.75 9.82L147.75 7.22Q147.46 7.18 147.06 7.14Q146.65 7.10 146.31 7.10L146.31 7.10Q145.86 7.10 145.42 7.16Q144.99 7.22 144.67 7.37Q144.34 7.51 144.15 7.78Q143.96 8.04 143.96 8.47L143.96 8.47Q143.96 9.24 144.54 9.56Q145.11 9.89 146.02 9.89ZM145.76 0.43L145.76 0.43Q147.15 0.43 148.08 0.76Q149 1.08 149.55 1.67Q150.10 2.26 150.34 3.11Q150.58 3.96 150.58 5.02L150.58 5.02L150.58 11.74Q149.94 11.88 148.66 12.07Q147.39 12.26 145.81 12.26L145.81 12.26Q144.73 12.26 143.85 12.07Q142.98 11.88 142.35 11.44Q141.73 10.99 141.39 10.28Q141.06 9.58 141.06 8.54L141.06 8.54Q141.06 7.56 141.44 6.89Q141.82 6.22 142.47 5.81Q143.12 5.40 143.96 5.22Q144.80 5.04 145.71 5.04L145.71 5.04Q146.86 5.04 147.75 5.23L147.75 5.23L147.75 4.87Q147.75 4.03 147.22 3.47Q146.70 2.90 145.40 2.90L145.40 2.90Q144.56 2.90 143.78 3.02Q143 3.14 142.52 3.31L142.52 3.31L142.11 0.94Q142.66 0.74 143.67 0.59Q144.68 0.43 145.76 0.43ZM174.73 12L165.30 12L165.30 9.55L168.54 9.55L168.54-0.41L165.30-0.41L165.30-2.86L174.73-2.86L174.73-0.41L171.51-0.41L171.51 9.55L174.73 9.55L174.73 12ZM177.51 12L177.51 1.08Q178.30 0.86 179.47 0.67Q180.63 0.48 182 0.48L182 0.48Q183.34 0.48 184.23 0.85Q185.12 1.22 185.64 1.91Q186.15 2.59 186.37 3.54Q186.58 4.49 186.58 5.64L186.58 5.64L186.58 12L183.63 12L183.63 6.02Q183.63 4.44 183.27 3.74Q182.91 3.05 181.81 3.05L181.81 3.05Q181.47 3.05 181.15 3.07Q180.82 3.10 180.46 3.14L180.46 3.14L180.46 12L177.51 12ZM193.47 9.77L193.47 9.77Q194.55 9.77 195.13 9.61Q195.70 9.46 195.70 8.98L195.70 8.98Q195.70 8.66 195.52 8.45Q195.34 8.23 195.02 8.08Q194.70 7.92 194.28 7.78Q193.86 7.63 193.40 7.49L193.40 7.49Q192.75 7.30 192.08 7.04Q191.41 6.79 190.86 6.41Q190.30 6.02 189.94 5.44Q189.58 4.85 189.58 3.96L189.58 3.96Q189.58 3.24 189.86 2.60Q190.14 1.97 190.72 1.48Q191.31 0.98 192.22 0.71Q193.14 0.43 194.41 0.43L194.41 0.43Q195.51 0.43 196.46 0.60Q197.41 0.77 198.10 1.08L198.10 1.08L197.65 3.58Q197.24 3.46 196.38 3.18Q195.51 2.90 194.43 2.90L194.43 2.90Q193.30 2.90 192.91 3.18Q192.51 3.46 192.51 3.77L192.51 3.77Q192.51 4.03 192.69 4.24Q192.87 4.44 193.17 4.61Q193.47 4.78 193.87 4.93Q194.26 5.09 194.72 5.23L194.72 5.23Q195.37 5.45 196.06 5.71Q196.76 5.98 197.32 6.37Q197.89 6.77 198.25 7.38Q198.61 7.99 198.61 8.88L198.61 8.88Q198.61 9.58 198.34 10.20Q198.08 10.82 197.47 11.28Q196.86 11.74 195.87 12Q194.89 12.26 193.45 12.26L193.45 12.26Q191.98 12.26 190.95 11.93Q189.92 11.59 189.30 11.33L189.30 11.33L189.75 8.86Q190.59 9.19 191.54 9.48Q192.49 9.77 193.47 9.77ZM203.43 7.80L203.43 3.17L200.86 3.17L200.86 0.72L203.43 0.72L203.43-2.11L206.38-2.59L206.38 0.72L211.11 0.72L211.11 3.17L206.38 3.17L206.38 7.73Q206.38 8.35 206.50 8.74Q206.62 9.12 206.84 9.34Q207.06 9.55 207.37 9.62Q207.68 9.70 208.06 9.70L208.06 9.70Q208.47 9.70 208.82 9.67Q209.17 9.65 209.49 9.59Q209.82 9.53 210.16 9.41Q210.51 9.29 210.92 9.10L210.92 9.10L211.33 11.64Q210.51 11.98 209.56 12.12Q208.62 12.26 207.73 12.26L207.73 12.26Q206.70 12.26 205.90 12.10Q205.11 11.93 204.56 11.45Q204.01 10.97 203.72 10.09Q203.43 9.22 203.43 7.80L203.43 7.80ZM218.02 9.89L218.02 9.89Q218.50 9.89 218.96 9.88Q219.42 9.86 219.75 9.82L219.75 9.82L219.75 7.22Q219.46 7.18 219.06 7.14Q218.65 7.10 218.31 7.10L218.31 7.10Q217.86 7.10 217.42 7.16Q216.99 7.22 216.67 7.37Q216.34 7.51 216.15 7.78Q215.96 8.04 215.96 8.47L215.96 8.47Q215.96 9.24 216.54 9.56Q217.11 9.89 218.02 9.89ZM217.76 0.43L217.76 0.43Q219.15 0.43 220.08 0.76Q221 1.08 221.55 1.67Q222.10 2.26 222.34 3.11Q222.58 3.96 222.58 5.02L222.58 5.02L222.58 11.74Q221.94 11.88 220.66 12.07Q219.39 12.26 217.81 12.26L217.81 12.26Q216.73 12.26 215.85 12.07Q214.98 11.88 214.35 11.44Q213.73 10.99 213.39 10.28Q213.06 9.58 213.06 8.54L213.06 8.54Q213.06 7.56 213.44 6.89Q213.82 6.22 214.47 5.81Q215.12 5.40 215.96 5.22Q216.80 5.04 217.71 5.04L217.71 5.04Q218.86 5.04 219.75 5.23L219.75 5.23L219.75 4.87Q219.75 4.03 219.22 3.47Q218.70 2.90 217.40 2.90L217.40 2.90Q216.56 2.90 215.78 3.02Q215 3.14 214.52 3.31L214.52 3.31L214.11 0.94Q214.66 0.74 215.67 0.59Q216.68 0.43 217.76 0.43ZM225.51 12L225.51 1.08Q226.30 0.86 227.47 0.67Q228.63 0.48 230 0.48L230 0.48Q231.34 0.48 232.23 0.85Q233.12 1.22 233.64 1.91Q234.15 2.59 234.37 3.54Q234.58 4.49 234.58 5.64L234.58 5.64L234.58 12L231.63 12L231.63 6.02Q231.63 4.44 231.27 3.74Q230.91 3.05 229.81 3.05L229.81 3.05Q229.47 3.05 229.15 3.07Q228.82 3.10 228.46 3.14L228.46 3.14L228.46 12L225.51 12ZM237.06 6.36L237.06 6.36Q237.06 5.14 237.44 4.06Q237.82 2.98 238.62 2.17Q239.41 1.37 240.62 0.90Q241.83 0.43 243.51 0.43L243.51 0.43Q244.52 0.43 245.34 0.58Q246.15 0.72 246.99 1.06L246.99 1.06L246.34 3.43Q245.86 3.26 245.28 3.13Q244.69 3 243.78 3L243.78 3Q242.72 3 242.01 3.25Q241.30 3.50 240.87 3.95Q240.44 4.39 240.25 5.02Q240.06 5.64 240.06 6.36L240.06 6.36Q240.06 7.92 240.93 8.81Q241.81 9.70 243.92 9.70L243.92 9.70Q244.62 9.70 245.37 9.60Q246.13 9.50 246.75 9.29L246.75 9.29L247.18 11.71Q246.56 11.95 245.67 12.11Q244.78 12.26 243.58 12.26L243.58 12.26Q241.86 12.26 240.62 11.81Q239.38 11.35 238.59 10.56Q237.80 9.77 237.43 8.69Q237.06 7.61 237.06 6.36ZM248.74 6.46L248.74 6.46Q248.74 4.97 249.20 3.84Q249.66 2.71 250.40 1.96Q251.14 1.20 252.10 0.82Q253.06 0.43 254.07 0.43L254.07 0.43Q256.57 0.43 257.86 1.91Q259.16 3.38 259.16 6.22L259.16 6.22Q259.16 6.50 259.15 6.82Q259.14 7.13 259.11 7.32L259.11 7.32L251.79 7.32Q251.79 8.42 252.70 9.06Q253.62 9.70 255.06 9.70L255.06 9.70Q255.94 9.70 256.75 9.50Q257.55 9.31 258.10 9.12L258.10 9.12L258.51 11.64Q257.74 11.90 256.88 12.08Q256.02 12.26 254.94 12.26L254.94 12.26Q253.50 12.26 252.36 11.89Q251.22 11.52 250.41 10.79Q249.61 10.06 249.18 8.98Q248.74 7.90 248.74 6.46ZM251.79 5.28L256.30 5.28Q256.30 4.82 256.18 4.40Q256.06 3.98 255.80 3.65Q255.54 3.31 255.13 3.11Q254.72 2.90 254.12 2.90L254.12 2.90Q253.54 2.90 253.12 3.10Q252.70 3.29 252.43 3.62Q252.15 3.96 252.00 4.39Q251.84 4.82 251.79 5.28L251.79 5.28ZM282.90 12L280.52 12Q279.51 9.53 278.32 7.07Q277.14 4.61 275.77 2.14L275.77 2.14L275.77 12L273.10 12L273.10-2.86L275.48-2.86Q276.15-1.80 276.82-0.56Q277.50 0.67 278.13 1.90Q278.77 3.12 279.31 4.27Q279.85 5.42 280.23 6.29L280.23 6.29L280.23-2.86L282.90-2.86L282.90 12ZM295.33 6.34L295.33 6.34Q295.33 7.68 294.94 8.77Q294.56 9.86 293.86 10.66Q293.17 11.45 292.20 11.88Q291.22 12.31 290.02 12.31L290.02 12.31Q288.82 12.31 287.85 11.88Q286.88 11.45 286.17 10.66Q285.46 9.86 285.08 8.77Q284.70 7.68 284.70 6.34L284.70 6.34Q284.70 5.02 285.09 3.92Q285.49 2.83 286.20 2.05Q286.90 1.27 287.89 0.85Q288.87 0.43 290.02 0.43L290.02 0.43Q291.20 0.43 292.17 0.85Q293.14 1.27 293.85 2.05Q294.56 2.83 294.94 3.92Q295.33 5.02 295.33 6.34ZM287.70 6.36L287.70 6.36Q287.70 7.87 288.24 8.81Q288.78 9.74 289.98 9.74L289.98 9.74Q291.13 9.74 291.72 8.81Q292.30 7.87 292.30 6.36L292.30 6.36Q292.30 4.85 291.76 3.92Q291.22 3 290.02 3L290.02 3Q288.87 3 288.28 3.92Q287.70 4.85 287.70 6.36ZM299.43 7.80L299.43 3.17L296.86 3.17L296.86 0.72L299.43 0.72L299.43-2.11L302.38-2.59L302.38 0.72L307.11 0.72L307.11 3.17L302.38 3.17L302.38 7.73Q302.38 8.35 302.50 8.74Q302.62 9.12 302.84 9.34Q303.06 9.55 303.37 9.62Q303.68 9.70 304.06 9.70L304.06 9.70Q304.47 9.70 304.82 9.67Q305.17 9.65 305.49 9.59Q305.82 9.53 306.16 9.41Q306.51 9.29 306.92 9.10L306.92 9.10L307.33 11.64Q306.51 11.98 305.56 12.12Q304.62 12.26 303.73 12.26L303.73 12.26Q302.70 12.26 301.90 12.10Q301.11 11.93 300.56 11.45Q300.01 10.97 299.72 10.09Q299.43 9.22 299.43 7.80L299.43 7.80ZM314.02 9.89L314.02 9.89Q314.50 9.89 314.96 9.88Q315.42 9.86 315.75 9.82L315.75 9.82L315.75 7.22Q315.46 7.18 315.06 7.14Q314.65 7.10 314.31 7.10L314.31 7.10Q313.86 7.10 313.42 7.16Q312.99 7.22 312.67 7.37Q312.34 7.51 312.15 7.78Q311.96 8.04 311.96 8.47L311.96 8.47Q311.96 9.24 312.54 9.56Q313.11 9.89 314.02 9.89ZM313.76 0.43L313.76 0.43Q315.15 0.43 316.08 0.76Q317 1.08 317.55 1.67Q318.10 2.26 318.34 3.11Q318.58 3.96 318.58 5.02L318.58 5.02L318.58 11.74Q317.94 11.88 316.66 12.07Q315.39 12.26 313.81 12.26L313.81 12.26Q312.73 12.26 311.85 12.07Q310.98 11.88 310.35 11.44Q309.73 10.99 309.39 10.28Q309.06 9.58 309.06 8.54L309.06 8.54Q309.06 7.56 309.44 6.89Q309.82 6.22 310.47 5.81Q311.12 5.40 311.96 5.22Q312.80 5.04 313.71 5.04L313.71 5.04Q314.86 5.04 315.75 5.23L315.75 5.23L315.75 4.87Q315.75 4.03 315.22 3.47Q314.70 2.90 313.40 2.90L313.40 2.90Q312.56 2.90 311.78 3.02Q311 3.14 310.52 3.31L310.52 3.31L310.11 0.94Q310.66 0.74 311.67 0.59Q312.68 0.43 313.76 0.43ZM323.43 7.80L323.43 3.17L320.86 3.17L320.86 0.72L323.43 0.72L323.43-2.11L326.38-2.59L326.38 0.72L331.11 0.72L331.11 3.17L326.38 3.17L326.38 7.73Q326.38 8.35 326.50 8.74Q326.62 9.12 326.84 9.34Q327.06 9.55 327.37 9.62Q327.68 9.70 328.06 9.70L328.06 9.70Q328.47 9.70 328.82 9.67Q329.17 9.65 329.49 9.59Q329.82 9.53 330.16 9.41Q330.51 9.29 330.92 9.10L330.92 9.10L331.33 11.64Q330.51 11.98 329.56 12.12Q328.62 12.26 327.73 12.26L327.73 12.26Q326.70 12.26 325.90 12.10Q325.11 11.93 324.56 11.45Q324.01 10.97 323.72 10.09Q323.43 9.22 323.43 7.80L323.43 7.80ZM338.82-2.52L338.82-2.52Q338.82-1.66 338.26-1.15Q337.71-0.65 336.94-0.65L336.94-0.65Q336.18-0.65 335.64-1.15Q335.10-1.66 335.10-2.52L335.10-2.52Q335.10-3.41 335.64-3.91Q336.18-4.42 336.94-4.42L336.94-4.42Q337.71-4.42 338.26-3.91Q338.82-3.41 338.82-2.52ZM342.82 9.14L343.21 11.52Q342.30 11.95 341.49 12.11Q340.69 12.26 340.02 12.26L340.02 12.26Q338.86 12.26 338.08 11.93Q337.30 11.59 336.84 10.96Q336.37 10.32 336.18 9.41Q335.98 8.50 335.98 7.32L335.98 7.32L335.98 3.17L332.86 3.17L332.86 0.72L338.94 0.72L338.94 7.70Q338.94 8.71 339.31 9.20Q339.68 9.70 340.54 9.70L340.54 9.70Q340.95 9.70 341.53 9.59Q342.10 9.48 342.82 9.14L342.82 9.14ZM355.33 6.34L355.33 6.34Q355.33 7.68 354.94 8.77Q354.56 9.86 353.86 10.66Q353.17 11.45 352.20 11.88Q351.22 12.31 350.02 12.31L350.02 12.31Q348.82 12.31 347.85 11.88Q346.88 11.45 346.17 10.66Q345.46 9.86 345.08 8.77Q344.70 7.68 344.70 6.34L344.70 6.34Q344.70 5.02 345.09 3.92Q345.49 2.83 346.20 2.05Q346.90 1.27 347.89 0.85Q348.87 0.43 350.02 0.43L350.02 0.43Q351.20 0.43 352.17 0.85Q353.14 1.27 353.85 2.05Q354.56 2.83 354.94 3.92Q355.33 5.02 355.33 6.34ZM347.70 6.36L347.70 6.36Q347.70 7.87 348.24 8.81Q348.78 9.74 349.98 9.74L349.98 9.74Q351.13 9.74 351.72 8.81Q352.30 7.87 352.30 6.36L352.30 6.36Q352.30 4.85 351.76 3.92Q351.22 3 350.02 3L350.02 3Q348.87 3 348.28 3.92Q347.70 4.85 347.70 6.36ZM357.51 12L357.51 1.08Q358.30 0.86 359.47 0.67Q360.63 0.48 362 0.48L362 0.48Q363.34 0.48 364.23 0.85Q365.12 1.22 365.64 1.91Q366.15 2.59 366.37 3.54Q366.58 4.49 366.58 5.64L366.58 5.64L366.58 12L363.63 12L363.63 6.02Q363.63 4.44 363.27 3.74Q362.91 3.05 361.81 3.05L361.81 3.05Q361.47 3.05 361.15 3.07Q360.82 3.10 360.46 3.14L360.46 3.14L360.46 12L357.51 12Z"/></g></svg>