<?xml version="1.0" encoding="UTF-8"?>
<svg height="26" width="123" version="1.1" xmlns="http://www.w3.org/2000/svg"><!--Created by Josélio de S. C. Júnior - 2021 - https://github.com/joseliojunior -->
    <defs>
        <pattern id="pattern"
                x="3" y="3" width="6" height="6"
                patternUnits="userSpaceOnUse"
                patternTransform="rotate(45)" >
            <rect height="6" width="6"
                fill="#ffffff"/>
            <line x1="0" y1="0" x2="0" y2="6"
                stroke="#888888"
                stroke-width="2" />
        </pattern>
    </defs>
    <rect
        height="24"
        width="121"
        rx="1"
        ry="1"
        x="1" y="1"
        fill="url(#pattern)" />
    <g transform="translate(0, 8)">
        <path fill="#000000" d="M24.74 10.21L24.74 10.21Q22.64 10.21 21.54 8.86Q20.43 7.52 20.43 5.04L20.43 5.04Q20.43 3.81 20.77 2.85Q21.10 1.89 21.70 1.22Q22.30 0.56 23.13 0.22Q23.95-0.13 24.93-0.13L24.93-0.13Q25.46-0.13 25.88-0.04Q26.30 0.05 26.62 0.16Q26.94 0.27 27.16 0.40Q27.38 0.53 27.49 0.59L27.49 0.59L26.98 2.16Q26.61 1.92 26.09 1.75Q25.57 1.58 24.90 1.58L24.90 1.58Q24.43 1.58 23.99 1.75Q23.55 1.92 23.21 2.31Q22.86 2.70 22.65 3.36Q22.43 4.02 22.43 4.99L22.43 4.99Q22.43 6.69 23.02 7.59Q23.60 8.50 24.93 8.50L24.93 8.50Q25.70 8.50 26.20 8.32Q26.70 8.14 27.01 7.97L27.01 7.97L27.50 9.52Q27.09 9.78 26.38 9.99Q25.66 10.21 24.74 10.21ZM30.43 5.04L30.43 5.04Q30.43 5.76 30.49 6.39Q30.54 7.02 30.71 7.49Q30.88 7.95 31.18 8.22Q31.49 8.50 32 8.50L32 8.50Q32.50 8.50 32.81 8.22Q33.12 7.95 33.29 7.48Q33.46 7.01 33.51 6.38Q33.57 5.76 33.57 5.04L33.57 5.04Q33.57 4.32 33.51 3.69Q33.46 3.06 33.29 2.59Q33.12 2.13 32.82 1.86Q32.51 1.58 32 1.58L32 1.58Q31.49 1.58 31.18 1.86Q30.88 2.13 30.71 2.60Q30.54 3.07 30.49 3.70Q30.43 4.32 30.43 5.04ZM28.43 5.04L28.43 5.04Q28.43 2.48 29.38 1.18Q30.32-0.13 32-0.13L32-0.13Q33.74-0.13 34.66 1.18Q35.57 2.48 35.57 5.04L35.57 5.04Q35.57 7.60 34.64 8.90Q33.71 10.21 32.02 10.21L32.02 10.21Q30.27 10.21 29.35 8.90Q28.43 7.60 28.43 5.04ZM38.83 1.74L38.83 8.40Q38.91 8.42 39.01 8.42Q39.10 8.42 39.18 8.42L39.18 8.42Q39.86 8.42 40.31 8.16Q40.77 7.90 41.05 7.46Q41.33 7.01 41.45 6.39Q41.57 5.78 41.57 5.04L41.57 5.04Q41.57 4.40 41.47 3.79Q41.38 3.18 41.14 2.72Q40.90 2.26 40.48 1.98Q40.06 1.70 39.41 1.70L39.41 1.70Q39.28 1.70 39.12 1.70Q38.96 1.71 38.83 1.74L38.83 1.74ZM43.57 5.04L43.57 5.04Q43.57 6.42 43.22 7.38Q42.88 8.35 42.27 8.96Q41.66 9.57 40.82 9.85Q39.98 10.13 38.98 10.13L38.98 10.13Q38.45 10.13 37.94 10.07Q37.44 10.02 36.86 9.89L36.86 9.89L36.86 0.22Q37.54 0.08 38.13 0.03Q38.72-0.02 39.23-0.02L39.23-0.02Q40.21-0.02 41.02 0.27Q41.82 0.56 42.38 1.18Q42.94 1.79 43.26 2.74Q43.57 3.70 43.57 5.04ZM51.36 10L45.01 10L45.01 0.10L51.01 0.10L51.01 1.73L46.98 1.73L46.98 3.95L50.48 3.95L50.48 5.58L46.98 5.58L46.98 8.37L51.36 8.37L51.36 10ZM54.43 5.04L54.43 5.04Q54.43 5.76 54.49 6.39Q54.54 7.02 54.71 7.49Q54.88 7.95 55.18 8.22Q55.49 8.50 56 8.50L56 8.50Q56.50 8.50 56.81 8.22Q57.12 7.95 57.29 7.48Q57.46 7.01 57.51 6.38Q57.57 5.76 57.57 5.04L57.57 5.04Q57.57 4.32 57.51 3.69Q57.46 3.06 57.29 2.59Q57.12 2.13 56.82 1.86Q56.51 1.58 56 1.58L56 1.58Q55.49 1.58 55.18 1.86Q54.88 2.13 54.71 2.60Q54.54 3.07 54.49 3.70Q54.43 4.32 54.43 5.04ZM52.43 5.04L52.43 5.04Q52.43 2.48 53.38 1.18Q54.32-0.13 56-0.13L56-0.13Q57.74-0.13 58.66 1.18Q59.57 2.48 59.57 5.04L59.57 5.04Q59.57 7.60 58.64 8.90Q57.71 10.21 56.02 10.21L56.02 10.21Q54.27 10.21 53.35 8.90Q52.43 7.60 52.43 5.04ZM63.30 3.60L64.74 3.60Q64.80 3.90 64.93 4.35Q65.06 4.80 65.21 5.34Q65.36 5.89 65.54 6.51Q65.73 7.14 65.90 7.79L65.90 7.79Q65.90 6.96 65.89 6.01Q65.87 5.06 65.86 4.06Q65.84 3.07 65.82 2.06Q65.81 1.04 65.81 0.10L65.81 0.10L67.63 0.10Q67.58 1.31 67.54 2.60Q67.49 3.89 67.42 5.16Q67.36 6.43 67.27 7.66Q67.18 8.90 67.07 10L67.07 10L65.44 10Q65.09 8.99 64.74 7.83Q64.38 6.67 64.03 5.62L64.03 5.62Q63.68 6.62 63.30 7.81Q62.91 8.99 62.59 10L62.59 10L60.96 10Q60.83 8.90 60.74 7.66Q60.64 6.42 60.57 5.14Q60.50 3.87 60.45 2.58Q60.40 1.30 60.37 0.10L60.37 0.10L62.19 0.10Q62.18 1.04 62.16 2.05Q62.14 3.06 62.13 4.06Q62.11 5.06 62.10 6.01Q62.08 6.96 62.08 7.79L62.08 7.79Q62.22 7.28 62.41 6.67Q62.59 6.06 62.76 5.47Q62.93 4.88 63.07 4.38Q63.22 3.89 63.30 3.60L63.30 3.60ZM75.26 10L73.68 10Q73.01 8.35 72.22 6.71Q71.42 5.07 70.51 3.42L70.51 3.42L70.51 10L68.74 10L68.74 0.10L70.32 0.10Q70.77 0.80 71.22 1.62Q71.66 2.45 72.09 3.26Q72.51 4.08 72.87 4.85Q73.23 5.62 73.49 6.19L73.49 6.19L73.49 0.10L75.26 0.10L75.26 10ZM83.36 10L77.01 10L77.01 0.10L83.01 0.10L83.01 1.73L78.98 1.73L78.98 3.95L82.48 3.95L82.48 5.58L78.98 5.58L78.98 8.37L83.36 8.37L83.36 10ZM87.42-0.02L87.42-0.02Q88.27-0.02 88.96 0.18Q89.65 0.37 90.14 0.77Q90.64 1.17 90.90 1.78Q91.17 2.40 91.17 3.23L91.17 3.23Q91.17 4.10 90.82 4.80Q90.46 5.50 89.65 5.87L89.65 5.87Q89.92 6.29 90.22 6.79Q90.53 7.30 90.82 7.85Q91.10 8.40 91.37 8.95Q91.63 9.50 91.82 10L91.82 10L89.76 10Q89.39 9.04 88.90 8.15Q88.42 7.26 87.86 6.35L87.86 6.35L86.83 6.35L86.83 10L84.86 10L84.86 0.24Q85.15 0.18 85.50 0.12Q85.84 0.06 86.19 0.04Q86.54 0.02 86.86 0Q87.18-0.02 87.42-0.02ZM89.17 3.22L89.17 3.22Q89.17 2.43 88.69 2.06Q88.21 1.70 87.42 1.70L87.42 1.70Q87.31 1.70 87.15 1.70Q86.99 1.71 86.83 1.74L86.83 1.74L86.83 4.72L87.26 4.72Q88.27 4.72 88.72 4.33Q89.17 3.94 89.17 3.22ZM95.71 8.56L95.71 8.56Q96.21 8.56 96.54 8.46Q96.86 8.35 97.06 8.17Q97.25 7.98 97.32 7.75Q97.39 7.52 97.39 7.28L97.39 7.28Q97.39 6.98 97.22 6.74Q97.04 6.50 96.77 6.31Q96.50 6.13 96.16 5.98Q95.82 5.82 95.49 5.70L95.49 5.70Q95.04 5.54 94.56 5.33Q94.08 5.12 93.69 4.80Q93.30 4.48 93.04 4.01Q92.78 3.54 92.78 2.83L92.78 2.83Q92.78 1.44 93.69 0.66Q94.59-0.13 96.18-0.13L96.18-0.13Q97.09-0.13 97.77 0.08Q98.45 0.29 98.91 0.54L98.91 0.54L98.34 2.06Q97.94 1.84 97.45 1.68Q96.96 1.52 96.32 1.52L96.32 1.52Q94.75 1.52 94.75 2.66L94.75 2.66Q94.75 2.94 94.91 3.16Q95.07 3.38 95.32 3.54Q95.57 3.71 95.88 3.84Q96.19 3.97 96.50 4.08L96.50 4.08Q96.96 4.26 97.46 4.47Q97.97 4.69 98.39 5.05Q98.82 5.41 99.09 5.94Q99.36 6.48 99.36 7.30L99.36 7.30Q99.36 8.69 98.46 9.45Q97.55 10.21 95.71 10.21L95.71 10.21Q94.48 10.21 93.74 9.94Q93.01 9.68 92.64 9.46L92.64 9.46L93.22 7.86Q93.65 8.11 94.25 8.34Q94.85 8.56 95.71 8.56Z"/>
    </g>
</svg>