<?xml version="1.0" encoding="UTF-8"?>
<svg height="322" width="163" version="1.1" xmlns="http://www.w3.org/2000/svg"><!--Created by Josélio de S. C. Júnior - 2021 - https://github.com/joseliojunior -->
    <defs>
        <pattern id="pattern"
                x="1.5" y="3" width="3" height="6"
                patternUnits="userSpaceOnUse"
                patternTransform="rotate(45)" >
            <rect height="6" width="1" fill="#999999"/>
        </pattern>
    </defs>
    <rect
        height="32"
        width="161"
        rx="1"
        ry="1"
        x="1" y="1"
        fill="url(#pattern)"
        stroke="#000000"
        stroke-width="1" />
    <g transform="translate(0, 12)">
        <path fill="#ffffff" stroke="#000000" d="M27.10 12.31L27.10 12.31Q23.96 12.31 22.30 10.30Q20.65 8.28 20.65 4.56L20.65 4.56Q20.65 2.71 21.15 1.27Q21.66-0.17 22.56-1.16Q23.46-2.16 24.69-2.68Q25.93-3.19 27.39-3.19L27.39-3.19Q28.18-3.19 28.82-3.06Q29.46-2.93 29.94-2.76Q30.42-2.59 30.74-2.40Q31.06-2.21 31.23-2.11L31.23-2.11L30.46 0.24Q29.91-0.12 29.13-0.37Q28.35-0.62 27.34-0.62L27.34-0.62Q26.65-0.62 25.99-0.37Q25.33-0.12 24.81 0.47Q24.30 1.06 23.97 2.04Q23.65 3.02 23.65 4.49L23.65 4.49Q23.65 7.03 24.52 8.39Q25.40 9.74 27.39 9.74L27.39 9.74Q28.54 9.74 29.30 9.48Q30.06 9.22 30.51 8.95L30.51 8.95L31.26 11.28Q30.63 11.66 29.56 11.99Q28.50 12.31 27.10 12.31ZM35.65 4.56L35.65 4.56Q35.65 5.64 35.73 6.59Q35.82 7.54 36.07 8.23Q36.32 8.93 36.78 9.34Q37.23 9.74 38 9.74L38 9.74Q38.74 9.74 39.21 9.34Q39.68 8.93 39.93 8.22Q40.18 7.51 40.27 6.58Q40.35 5.64 40.35 4.56L40.35 4.56Q40.35 3.48 40.27 2.53Q40.18 1.58 39.93 0.89Q39.68 0.19 39.22-0.22Q38.77-0.62 38-0.62L38-0.62Q37.23-0.62 36.78-0.22Q36.32 0.19 36.07 0.90Q35.82 1.61 35.73 2.54Q35.65 3.48 35.65 4.56ZM32.65 4.56L32.65 4.56Q32.65 0.72 34.06-1.24Q35.48-3.19 38-3.19L38-3.19Q40.62-3.19 41.98-1.24Q43.35 0.72 43.35 4.56L43.35 4.56Q43.35 8.40 41.96 10.36Q40.57 12.31 38.02 12.31L38.02 12.31Q35.41 12.31 34.03 10.36Q32.65 8.40 32.65 4.56ZM48.25-0.38L48.25 9.60Q48.37 9.62 48.51 9.62Q48.66 9.62 48.78 9.62L48.78 9.62Q49.78 9.62 50.47 9.24Q51.15 8.86 51.57 8.18Q51.99 7.51 52.17 6.59Q52.35 5.66 52.35 4.56L52.35 4.56Q52.35 3.60 52.21 2.69Q52.06 1.78 51.70 1.08Q51.34 0.38 50.72-0.04Q50.10-0.46 49.11-0.46L49.11-0.46Q48.92-0.46 48.68-0.44Q48.44-0.43 48.25-0.38L48.25-0.38ZM55.35 4.56L55.35 4.56Q55.35 6.62 54.84 8.08Q54.32 9.53 53.41 10.44Q52.50 11.35 51.24 11.77Q49.98 12.19 48.46 12.19L48.46 12.19Q47.67 12.19 46.92 12.11Q46.16 12.02 45.30 11.83L45.30 11.83L45.30-2.66Q46.30-2.88 47.19-2.95Q48.08-3.02 48.85-3.02L48.85-3.02Q50.31-3.02 51.52-2.59Q52.74-2.16 53.58-1.24Q54.42-0.31 54.88 1.12Q55.35 2.54 55.35 4.56ZM67.04 12L57.51 12L57.51-2.86L66.51-2.86L66.51-0.41L60.46-0.41L60.46 2.93L65.72 2.93L65.72 5.38L60.46 5.38L60.46 9.55L67.04 9.55L67.04 12ZM71.65 4.56L71.65 4.56Q71.65 5.64 71.73 6.59Q71.82 7.54 72.07 8.23Q72.32 8.93 72.78 9.34Q73.23 9.74 74 9.74L74 9.74Q74.74 9.74 75.21 9.34Q75.68 8.93 75.93 8.22Q76.18 7.51 76.27 6.58Q76.35 5.64 76.35 4.56L76.35 4.56Q76.35 3.48 76.27 2.53Q76.18 1.58 75.93 0.89Q75.68 0.19 75.22-0.22Q74.77-0.62 74-0.62L74-0.62Q73.23-0.62 72.78-0.22Q72.32 0.19 72.07 0.90Q71.82 1.61 71.73 2.54Q71.65 3.48 71.65 4.56ZM68.65 4.56L68.65 4.56Q68.65 0.72 70.06-1.24Q71.48-3.19 74-3.19L74-3.19Q76.62-3.19 77.98-1.24Q79.35 0.72 79.35 4.56L79.35 4.56Q79.35 8.40 77.96 10.36Q76.57 12.31 74.02 12.31L74.02 12.31Q71.41 12.31 70.03 10.36Q68.65 8.40 68.65 4.56ZM84.94 2.40L87.10 2.40Q87.20 2.86 87.39 3.53Q87.58 4.20 87.81 5.02Q88.04 5.83 88.32 6.77Q88.59 7.70 88.86 8.69L88.86 8.69Q88.86 7.44 88.83 6.01Q88.81 4.58 88.78 3.10Q88.76 1.61 88.74 0.08Q88.71-1.44 88.71-2.86L88.71-2.86L91.45-2.86Q91.38-1.03 91.30 0.90Q91.23 2.83 91.14 4.74Q91.04 6.65 90.91 8.50Q90.78 10.34 90.61 12L90.61 12L88.16 12Q87.63 10.49 87.10 8.75Q86.58 7.01 86.05 5.42L86.05 5.42Q85.52 6.94 84.94 8.71Q84.37 10.49 83.89 12L83.89 12L81.44 12Q81.25 10.34 81.10 8.48Q80.96 6.62 80.85 4.72Q80.74 2.81 80.67 0.88Q80.60-1.06 80.55-2.86L80.55-2.86L83.29-2.86Q83.26-1.44 83.24 0.07Q83.22 1.58 83.19 3.08Q83.17 4.58 83.14 6.01Q83.12 7.44 83.12 8.69L83.12 8.69Q83.34 7.92 83.61 7.01Q83.89 6.10 84.14 5.21Q84.39 4.32 84.61 3.58Q84.82 2.83 84.94 2.40L84.94 2.40ZM102.90 12L100.52 12Q99.51 9.53 98.32 7.07Q97.14 4.61 95.77 2.14L95.77 2.14L95.77 12L93.10 12L93.10-2.86L95.48-2.86Q96.15-1.80 96.82-0.56Q97.50 0.67 98.13 1.90Q98.77 3.12 99.31 4.27Q99.85 5.42 100.23 6.29L100.23 6.29L100.23-2.86L102.90-2.86L102.90 12ZM115.04 12L105.51 12L105.51-2.86L114.51-2.86L114.51-0.41L108.46-0.41L108.46 2.93L113.72 2.93L113.72 5.38L108.46 5.38L108.46 9.55L115.04 9.55L115.04 12ZM121.14-3.02L121.14-3.02Q122.41-3.02 123.44-2.74Q124.47-2.45 125.22-1.85Q125.96-1.25 126.36-0.32Q126.75 0.60 126.75 1.85L126.75 1.85Q126.75 3.14 126.22 4.20Q125.70 5.26 124.47 5.81L124.47 5.81Q124.88 6.43 125.34 7.19Q125.79 7.94 126.22 8.77Q126.66 9.60 127.05 10.43Q127.45 11.26 127.74 12L127.74 12L124.64 12Q124.09 10.56 123.36 9.23Q122.62 7.90 121.78 6.53L121.78 6.53L120.25 6.53L120.25 12L117.30 12L117.30-2.64Q117.73-2.74 118.24-2.82Q118.76-2.90 119.29-2.94Q119.82-2.98 120.30-3Q120.78-3.02 121.14-3.02ZM123.75 1.82L123.75 1.82Q123.75 0.65 123.03 0.10Q122.31-0.46 121.14-0.46L121.14-0.46Q120.97-0.46 120.73-0.44Q120.49-0.43 120.25-0.38L120.25-0.38L120.25 4.08L120.90 4.08Q122.41 4.08 123.08 3.49Q123.75 2.90 123.75 1.82ZM133.57 9.84L133.57 9.84Q134.31 9.84 134.80 9.68Q135.30 9.53 135.58 9.25Q135.87 8.98 135.98 8.63Q136.09 8.28 136.09 7.92L136.09 7.92Q136.09 7.46 135.82 7.10Q135.56 6.74 135.15 6.47Q134.74 6.19 134.24 5.96Q133.74 5.74 133.23 5.54L133.23 5.54Q132.56 5.30 131.84 4.99Q131.12 4.68 130.53 4.20Q129.94 3.72 129.56 3.01Q129.18 2.30 129.18 1.25L129.18 1.25Q129.18-0.84 130.53-2.02Q131.89-3.19 134.26-3.19L134.26-3.19Q135.63-3.19 136.65-2.88Q137.67-2.57 138.37-2.18L138.37-2.18L137.50 0.10Q136.90-0.24 136.17-0.48Q135.44-0.72 134.48-0.72L134.48-0.72Q132.13-0.72 132.13 0.98L132.13 0.98Q132.13 1.42 132.37 1.74Q132.61 2.06 132.98 2.32Q133.35 2.57 133.82 2.76Q134.29 2.95 134.74 3.12L134.74 3.12Q135.44 3.38 136.20 3.71Q136.95 4.03 137.59 4.57Q138.22 5.11 138.63 5.92Q139.04 6.72 139.04 7.94L139.04 7.94Q139.04 10.03 137.68 11.17Q136.33 12.31 133.57 12.31L133.57 12.31Q131.72 12.31 130.62 11.92Q129.51 11.52 128.96 11.18L128.96 11.18L129.82 8.78Q130.47 9.17 131.37 9.50Q132.27 9.84 133.57 9.84Z"/>
    </g>
</svg>