<?xml version="1.0" encoding="UTF-8"?>
<svg height="34" width="191.2" version="1.1" xmlns="http://www.w3.org/2000/svg">
    <rect
        height="32"
        width="189.2"
        rx="14"
        ry="14"
        x="1"
        y="1"
        fill="#8f0f8d"
        stroke="#ec4be9"
        stroke-width="1"
         />
    <g transform="translate(0, 14)">
        <path fill="#ec4be9" d="M16.27-6.53L16.27-6.53Q19.58-6.53 21.40-5.17Q23.22-3.81 23.22-0.73L23.22-0.73Q23.22 2.38 21.38 3.76Q19.55 5.15 16.19 5.15L16.19 5.15L14.96 5.15L14.96 11L11.51 11L11.51-6.11Q12.02-6.22 12.65-6.30Q13.28-6.39 13.92-6.43Q14.56-6.47 15.18-6.50Q15.80-6.53 16.27-6.53ZM16.66-3.53L16.66-3.53Q16.36-3.53 15.81-3.52Q15.26-3.50 14.96-3.45L14.96-3.45L14.96 2.15L16.36 2.15Q18.01 2.15 18.85 1.49Q19.69 0.84 19.69-0.76L19.69-0.76Q19.69-2.27 18.86-2.90Q18.04-3.53 16.66-3.53ZM37.22 4.39L37.22 4.39Q37.22 5.96 36.77 7.23Q36.32 8.51 35.51 9.43Q34.70 10.36 33.56 10.86Q32.43 11.36 31.03 11.36L31.03 11.36Q29.63 11.36 28.49 10.86Q27.36 10.36 26.53 9.43Q25.71 8.51 25.26 7.23Q24.81 5.96 24.81 4.39L24.81 4.39Q24.81 2.85 25.27 1.58Q25.74 0.30 26.56-0.61Q27.39-1.52 28.54-2.01Q29.68-2.50 31.03-2.50L31.03-2.50Q32.40-2.50 33.53-2.01Q34.67-1.52 35.49-0.61Q36.32 0.30 36.77 1.58Q37.22 2.85 37.22 4.39ZM28.31 4.42L28.31 4.42Q28.31 6.18 28.94 7.28Q29.57 8.37 30.97 8.37L30.97 8.37Q32.32 8.37 33.00 7.28Q33.69 6.18 33.69 4.42L33.69 4.42Q33.69 2.66 33.06 1.58Q32.43 0.50 31.03 0.50L31.03 0.50Q29.68 0.50 29.00 1.58Q28.31 2.66 28.31 4.42ZM49.62 11L47.02 11Q46.71 10.13 46.44 9.40Q46.18 8.68 45.94 7.99Q45.70 7.30 45.46 6.56Q45.22 5.82 44.97 4.92L44.97 4.92Q44.69 5.82 44.47 6.53Q44.24 7.25 44.01 7.95Q43.77 8.65 43.52 9.38Q43.26 10.10 42.90 11L42.90 11L40.30 11Q39.96 9.77 39.67 8.27Q39.37 6.77 39.12 5.08Q38.87 3.38 38.67 1.56Q38.48-0.26 38.31-2.16L38.31-2.16L41.25-2.16Q41.36 0.28 41.49 2.60Q41.61 4.92 41.95 7.39L41.95 7.39Q42.31 6.32 42.58 5.41Q42.84 4.50 43.05 3.68Q43.26 2.85 43.45 2.08Q43.63 1.31 43.82 0.50L43.82 0.50L46.32 0.50Q46.48 1.31 46.67 2.08Q46.85 2.85 47.06 3.68Q47.27 4.50 47.51 5.41Q47.74 6.32 48.08 7.39L48.08 7.39Q48.25 6.10 48.36 4.92Q48.47 3.75 48.54 2.59Q48.61 1.42 48.65 0.26Q48.70-0.90 48.75-2.16L48.75-2.16L51.69-2.16Q51.38 1.68 50.84 5.06Q50.29 8.45 49.62 11L49.62 11ZM52.87 4.53L52.87 4.53Q52.87 2.80 53.40 1.48Q53.93 0.16 54.80-0.72Q55.67-1.60 56.79-2.05Q57.91-2.50 59.08-2.50L59.08-2.50Q62.00-2.50 63.51-0.77Q65.02 0.95 65.02 4.25L65.02 4.25Q65.02 4.59 65.01 4.95Q64.99 5.32 64.96 5.54L64.96 5.54L56.42 5.54Q56.42 6.83 57.49 7.57Q58.55 8.31 60.23 8.31L60.23 8.31Q61.27 8.31 62.21 8.09Q63.14 7.86 63.79 7.64L63.79 7.64L64.26 10.58Q63.37 10.89 62.36 11.10Q61.35 11.31 60.09 11.31L60.09 11.31Q58.41 11.31 57.08 10.87Q55.75 10.44 54.81 9.59Q53.88 8.73 53.37 7.47Q52.87 6.21 52.87 4.53ZM56.42 3.16L61.69 3.16Q61.69 2.63 61.55 2.14Q61.41 1.65 61.10 1.26Q60.79 0.86 60.32 0.63Q59.84 0.39 59.14 0.39L59.14 0.39Q58.47 0.39 57.98 0.61Q57.49 0.84 57.17 1.23Q56.84 1.62 56.66 2.12Q56.48 2.63 56.42 3.16L56.42 3.16ZM78.85-1.85L78.24 1.34Q77.90 1.26 77.44 1.17Q76.98 1.09 76.50 1.02Q76.02 0.95 75.58 0.92Q75.13 0.89 74.82 0.89L74.82 0.89Q74.09 0.89 73.39 0.96Q72.69 1.03 71.96 1.23L71.96 1.23L71.96 11L68.49 11L68.49-1.29Q69.86-1.80 71.31-2.10Q72.75-2.41 74.68-2.41L74.68-2.41Q74.96-2.41 75.48-2.38Q76.00-2.36 76.58-2.29Q77.17-2.22 77.77-2.12Q78.38-2.02 78.85-1.85L78.85-1.85ZM93.13 5.76L93.13 5.76Q93.13 7.33 92.60 8.38Q92.07 9.43 91.16 10.06Q90.25 10.69 89.00 10.96Q87.76 11.22 86.33 11.22L86.33 11.22Q85.18 11.22 83.95 11.10Q82.72 10.97 81.51 10.72L81.51 10.72L81.51-6.11Q82.49-6.28 83.67-6.40Q84.84-6.53 85.99-6.53L85.99-6.53Q87.95-6.53 89.18-6.12Q90.42-5.72 91.12-5.06Q91.82-4.40 92.07-3.59Q92.32-2.78 92.32-1.96L92.32-1.96Q92.32-0.73 91.72 0.22Q91.12 1.17 90.11 1.73L90.11 1.73Q91.87 2.38 92.50 3.47Q93.13 4.56 93.13 5.76ZM86.80 3.41L84.96 3.41L84.96 8.12Q85.32 8.17 85.75 8.20Q86.19 8.23 86.61 8.23L86.61 8.23Q87.20 8.23 87.76 8.13Q88.32 8.03 88.75 7.77Q89.18 7.50 89.46 7.01Q89.74 6.52 89.74 5.76L89.74 5.76Q89.74 4.50 88.95 3.96Q88.15 3.41 86.80 3.41L86.80 3.41ZM84.96 0.56L86.30 0.56Q87.62 0.56 88.29-0.02Q88.96-0.59 88.96-1.60L88.96-1.60Q88.96-2.22 88.76-2.59Q88.57-2.97 88.23-3.18Q87.90-3.39 87.45-3.46Q87-3.53 86.52-3.53L86.52-3.53Q86.13-3.53 85.71-3.50Q85.29-3.48 84.96-3.42L84.96-3.42L84.96 0.56ZM106.26-2.16L106.26 10.55Q105.31 10.80 103.95 11.06Q102.60 11.31 101 11.31L101 11.31Q99.38 11.31 98.34 10.86Q97.30 10.41 96.70 9.59Q96.10 8.76 95.88 7.64Q95.65 6.52 95.65 5.18L95.65 5.18L95.65-2.16L99.10-2.16L99.10 4.73Q99.10 6.55 99.53 7.43Q99.96 8.31 101.22 8.31L101.22 8.31Q102.01 8.31 102.79 8.17L102.79 8.17L102.79-2.16L106.26-2.16ZM115.95-5.94L115.95-5.94Q115.95-4.93 115.31-4.34Q114.66-3.76 113.77-3.76L113.77-3.76Q112.87-3.76 112.24-4.34Q111.61-4.93 111.61-5.94L111.61-5.94Q111.61-6.98 112.24-7.56Q112.87-8.15 113.77-8.15L113.77-8.15Q114.66-8.15 115.31-7.56Q115.95-6.98 115.95-5.94ZM120.63 7.67L121.08 10.44Q120.01 10.94 119.07 11.13Q118.14 11.31 117.35 11.31L117.35 11.31Q116.01 11.31 115.10 10.92Q114.19 10.52 113.64 9.78Q113.10 9.04 112.87 7.98Q112.65 6.91 112.65 5.54L112.65 5.54L112.65 0.70L109.01 0.70L109.01-2.16L116.09-2.16L116.09 5.99Q116.09 7.16 116.53 7.74Q116.96 8.31 117.97 8.31L117.97 8.31Q118.44 8.31 119.12 8.19Q119.79 8.06 120.63 7.67L120.63 7.67ZM134.63 7.67L135.08 10.44Q134.99 10.50 134.70 10.64Q134.40 10.78 133.93 10.93Q133.45 11.08 132.77 11.20Q132.08 11.31 131.21 11.31L131.21 11.31Q128.83 11.31 127.74 9.89Q126.65 8.48 126.65 5.76L126.65 5.76L126.65-5.41L123.01-5.41L123.01-8.26L130.09-8.26L130.09 6.02Q130.09 7.36 130.62 7.84Q131.16 8.31 131.97 8.31L131.97 8.31Q133.00 8.31 133.70 8.03Q134.40 7.75 134.63 7.67L134.63 7.67ZM140.28 4.34L140.28 4.34Q140.28 6.10 140.94 7.22Q141.60 8.34 143.06 8.34L143.06 8.34Q143.48 8.34 143.84 8.31Q144.20 8.28 144.60 8.23L144.60 8.23L144.60 1.06Q144.20 0.84 143.70 0.68Q143.20 0.53 142.64 0.53L142.64 0.53Q141.40 0.53 140.84 1.51Q140.28 2.49 140.28 4.34ZM148.04-8.43L148.04 10.61Q147.09 10.92 145.72 11.11Q144.34 11.31 143.03 11.31L143.03 11.31Q139.95 11.31 138.37 9.49Q136.78 7.67 136.78 4.50L136.78 4.50Q136.78 1.28 138.11-0.58Q139.44-2.44 142.05-2.44L142.05-2.44Q142.75-2.44 143.42-2.29Q144.09-2.13 144.60-1.85L144.60-1.85L144.60-7.84L148.04-8.43ZM150.87 4.53L150.87 4.53Q150.87 2.80 151.40 1.48Q151.93 0.16 152.80-0.72Q153.67-1.60 154.79-2.05Q155.91-2.50 157.08-2.50L157.08-2.50Q160.00-2.50 161.51-0.77Q163.02 0.95 163.02 4.25L163.02 4.25Q163.02 4.59 163.01 4.95Q162.99 5.32 162.96 5.54L162.96 5.54L154.42 5.54Q154.42 6.83 155.49 7.57Q156.55 8.31 158.23 8.31L158.23 8.31Q159.27 8.31 160.21 8.09Q161.14 7.86 161.79 7.64L161.79 7.64L162.26 10.58Q161.37 10.89 160.36 11.10Q159.35 11.31 158.09 11.31L158.09 11.31Q156.41 11.31 155.08 10.87Q153.75 10.44 152.81 9.59Q151.88 8.73 151.37 7.47Q150.87 6.21 150.87 4.53ZM154.42 3.16L159.69 3.16Q159.69 2.63 159.55 2.14Q159.41 1.65 159.10 1.26Q158.79 0.86 158.32 0.63Q157.84 0.39 157.14 0.39L157.14 0.39Q156.47 0.39 155.98 0.61Q155.49 0.84 155.17 1.23Q154.84 1.62 154.66 2.12Q154.48 2.63 154.42 3.16L154.42 3.16ZM176.85-1.85L176.24 1.34Q175.90 1.26 175.44 1.17Q174.98 1.09 174.50 1.02Q174.02 0.95 173.58 0.92Q173.13 0.89 172.82 0.89L172.82 0.89Q172.09 0.89 171.39 0.96Q170.69 1.03 169.96 1.23L169.96 1.23L169.96 11L166.49 11L166.49-1.29Q167.86-1.80 169.31-2.10Q170.75-2.41 172.68-2.41L172.68-2.41Q172.96-2.41 173.48-2.38Q174.00-2.36 174.58-2.29Q175.17-2.22 175.77-2.12Q176.38-2.02 176.85-1.85L176.85-1.85Z"/>
    </g>
</svg>