<?xml version="1.0" encoding="UTF-8"?>
<svg height="34" width="177.1" version="1.1" xmlns="http://www.w3.org/2000/svg">
    <rect
        height="32"
        width="175.1"
        rx="1"
        ry="1"
        x="1"
        y="1"
        fill="#6a40fd"
        stroke="#2402a2"
        stroke-width="1"
         />
    <g transform="translate(0, 14)">
        <path fill="#2402a2" d="M18.29 11.36L18.29 11.36Q14.62 11.36 12.69 9.01Q10.76 6.66 10.76 2.32L10.76 2.32Q10.76 0.16 11.34-1.52Q11.93-3.20 12.98-4.36Q14.03-5.52 15.47-6.12Q16.92-6.72 18.62-6.72L18.62-6.72Q19.55-6.72 20.29-6.57Q21.03-6.42 21.59-6.22Q22.15-6.02 22.53-5.80Q22.91-5.58 23.10-5.46L23.10-5.46L22.21-2.72Q21.56-3.14 20.65-3.43Q19.74-3.73 18.57-3.73L18.57-3.73Q17.76-3.73 16.99-3.43Q16.22-3.14 15.61-2.45Q15.01-1.77 14.63-0.62Q14.26 0.53 14.26 2.24L14.26 2.24Q14.26 5.20 15.28 6.79Q16.30 8.37 18.62 8.37L18.62 8.37Q19.97 8.37 20.85 8.06Q21.73 7.75 22.26 7.44L22.26 7.44L23.13 10.16Q22.40 10.61 21.16 10.99Q19.91 11.36 18.29 11.36ZM36.63 7.67L37.08 10.44Q36.99 10.50 36.70 10.64Q36.40 10.78 35.93 10.93Q35.45 11.08 34.77 11.20Q34.08 11.31 33.21 11.31L33.21 11.31Q30.83 11.31 29.74 9.89Q28.65 8.48 28.65 5.76L28.65 5.76L28.65-5.41L25.01-5.41L25.01-8.26L32.09-8.26L32.09 6.02Q32.09 7.36 32.62 7.84Q33.16 8.31 33.97 8.31L33.97 8.31Q35.00 8.31 35.70 8.03Q36.40 7.75 36.63 7.67L36.63 7.67ZM45.03 8.54L45.03 8.54Q45.59 8.54 46.12 8.52Q46.65 8.51 47.04 8.45L47.04 8.45L47.04 5.43Q46.71 5.37 46.23 5.33Q45.76 5.29 45.36 5.29L45.36 5.29Q44.83 5.29 44.33 5.36Q43.82 5.43 43.45 5.60Q43.07 5.76 42.84 6.07Q42.62 6.38 42.62 6.88L42.62 6.88Q42.62 7.78 43.29 8.16Q43.96 8.54 45.03 8.54ZM44.72-2.50L44.72-2.50Q46.34-2.50 47.42-2.12Q48.50-1.74 49.14-1.05Q49.79-0.37 50.07 0.63Q50.35 1.62 50.35 2.85L50.35 2.85L50.35 10.69Q49.59 10.86 48.11 11.08Q46.62 11.31 44.78 11.31L44.78 11.31Q43.52 11.31 42.49 11.08Q41.47 10.86 40.74 10.34Q40.02 9.82 39.62 9.00Q39.23 8.17 39.23 6.97L39.23 6.97Q39.23 5.82 39.68 5.04Q40.13 4.25 40.88 3.78Q41.64 3.30 42.62 3.09Q43.60 2.88 44.66 2.88L44.66 2.88Q46.01 2.88 47.04 3.10L47.04 3.10L47.04 2.68Q47.04 1.70 46.43 1.05Q45.81 0.39 44.30 0.39L44.30 0.39Q43.32 0.39 42.41 0.53Q41.50 0.67 40.94 0.86L40.94 0.86L40.46-1.91Q41.11-2.13 42.28-2.31Q43.46-2.50 44.72-2.50ZM58.38 8.40L58.38 8.40Q59.64 8.40 60.32 8.21Q60.99 8.03 60.99 7.47L60.99 7.47Q60.99 7.11 60.78 6.86Q60.57 6.60 60.19 6.42Q59.81 6.24 59.32 6.07Q58.83 5.90 58.30 5.74L58.30 5.74Q57.54 5.51 56.76 5.22Q55.98 4.92 55.33 4.48Q54.69 4.03 54.27 3.34Q53.85 2.66 53.85 1.62L53.85 1.62Q53.85 0.78 54.17 0.04Q54.49-0.70 55.18-1.28Q55.86-1.85 56.93-2.17Q57.99-2.50 59.48-2.50L59.48-2.50Q60.76-2.50 61.87-2.30Q62.98-2.10 63.79-1.74L63.79-1.74L63.26 1.17Q62.78 1.03 61.77 0.71Q60.76 0.39 59.50 0.39L59.50 0.39Q58.19 0.39 57.73 0.71Q57.26 1.03 57.26 1.40L57.26 1.40Q57.26 1.70 57.47 1.94Q57.68 2.18 58.03 2.38Q58.38 2.57 58.85 2.75Q59.31 2.94 59.84 3.10L59.84 3.10Q60.60 3.36 61.41 3.66Q62.22 3.97 62.88 4.43Q63.54 4.90 63.96 5.61Q64.38 6.32 64.38 7.36L64.38 7.36Q64.38 8.17 64.07 8.90Q63.76 9.63 63.05 10.16Q62.33 10.69 61.18 11Q60.04 11.31 58.36 11.31L58.36 11.31Q56.65 11.31 55.44 10.92Q54.24 10.52 53.51 10.22L53.51 10.22L54.04 7.33Q55.02 7.72 56.13 8.06Q57.24 8.40 58.38 8.40ZM72.38 8.40L72.38 8.40Q73.64 8.40 74.32 8.21Q74.99 8.03 74.99 7.47L74.99 7.47Q74.99 7.11 74.78 6.86Q74.57 6.60 74.19 6.42Q73.81 6.24 73.32 6.07Q72.83 5.90 72.30 5.74L72.30 5.74Q71.54 5.51 70.76 5.22Q69.98 4.92 69.33 4.48Q68.69 4.03 68.27 3.34Q67.85 2.66 67.85 1.62L67.85 1.62Q67.85 0.78 68.17 0.04Q68.49-0.70 69.18-1.28Q69.86-1.85 70.93-2.17Q71.99-2.50 73.48-2.50L73.48-2.50Q74.76-2.50 75.87-2.30Q76.98-2.10 77.79-1.74L77.79-1.74L77.26 1.17Q76.78 1.03 75.77 0.71Q74.76 0.39 73.50 0.39L73.50 0.39Q72.19 0.39 71.73 0.71Q71.26 1.03 71.26 1.40L71.26 1.40Q71.26 1.70 71.47 1.94Q71.68 2.18 72.03 2.38Q72.38 2.57 72.85 2.75Q73.31 2.94 73.84 3.10L73.84 3.10Q74.60 3.36 75.41 3.66Q76.22 3.97 76.88 4.43Q77.54 4.90 77.96 5.61Q78.38 6.32 78.38 7.36L78.38 7.36Q78.38 8.17 78.07 8.90Q77.76 9.63 77.05 10.16Q76.33 10.69 75.18 11Q74.04 11.31 72.36 11.31L72.36 11.31Q70.65 11.31 69.44 10.92Q68.24 10.52 67.51 10.22L67.51 10.22L68.04 7.33Q69.02 7.72 70.13 8.06Q71.24 8.40 72.38 8.40ZM87.95-5.94L87.95-5.94Q87.95-4.93 87.31-4.34Q86.66-3.76 85.77-3.76L85.77-3.76Q84.87-3.76 84.24-4.34Q83.61-4.93 83.61-5.94L83.61-5.94Q83.61-6.98 84.24-7.56Q84.87-8.15 85.77-8.15L85.77-8.15Q86.66-8.15 87.31-7.56Q87.95-6.98 87.95-5.94ZM92.63 7.67L93.08 10.44Q92.01 10.94 91.07 11.13Q90.14 11.31 89.35 11.31L89.35 11.31Q88.01 11.31 87.10 10.92Q86.19 10.52 85.64 9.78Q85.10 9.04 84.87 7.98Q84.65 6.91 84.65 5.54L84.65 5.54L84.65 0.70L81.01 0.70L81.01-2.16L88.09-2.16L88.09 5.99Q88.09 7.16 88.53 7.74Q88.96 8.31 89.97 8.31L89.97 8.31Q90.44 8.31 91.12 8.19Q91.79 8.06 92.63 7.67L92.63 7.67ZM95.23 4.42L95.23 4.42Q95.23 2.99 95.68 1.73Q96.13 0.47 97.05-0.47Q97.98-1.40 99.39-1.95Q100.80-2.50 102.76-2.50L102.76-2.50Q103.94-2.50 104.89-2.33Q105.84-2.16 106.82-1.77L106.82-1.77L106.07 1.00Q105.51 0.81 104.82 0.65Q104.14 0.50 103.07 0.50L103.07 0.50Q101.84 0.50 101.01 0.79Q100.19 1.09 99.68 1.61Q99.18 2.12 98.96 2.85Q98.73 3.58 98.73 4.42L98.73 4.42Q98.73 6.24 99.75 7.28Q100.78 8.31 103.24 8.31L103.24 8.31Q104.05 8.31 104.93 8.20Q105.82 8.09 106.54 7.84L106.54 7.84L107.05 10.66Q106.32 10.94 105.28 11.13Q104.25 11.31 102.85 11.31L102.85 11.31Q100.83 11.31 99.39 10.78Q97.95 10.24 97.02 9.32Q96.10 8.40 95.67 7.14Q95.23 5.88 95.23 4.42ZM135.75 11L132.05 11L131.24 7.00L126.62 7.00L125.84 11L122.25 11Q123.48 5.88 124.74 1.66Q126.00-2.55 127.18-6.33L127.18-6.33L130.93-6.33Q132.16-2.52 133.38 1.75Q134.60 6.02 135.75 11L135.75 11ZM128.97-2.97L128.97-2.97Q128.69-1.99 128.45-1.11Q128.22-0.23 128.01 0.63Q127.80 1.48 127.61 2.35Q127.43 3.22 127.26 4.14L127.26 4.14L130.65 4.14Q130.48 3.22 130.32 2.35Q130.15 1.48 129.94 0.63Q129.73-0.23 129.49-1.11Q129.25-1.99 128.97-2.97ZM142.50 8.48L142.50 8.48Q143.36 8.48 143.94 8.30Q144.51 8.12 144.85 7.79Q145.18 7.47 145.31 7.07Q145.44 6.66 145.44 6.24L145.44 6.24Q145.44 5.71 145.13 5.29Q144.82 4.87 144.34 4.55Q143.87 4.22 143.28 3.96Q142.69 3.69 142.10 3.47L142.10 3.47Q141.32 3.19 140.48 2.82Q139.64 2.46 138.95 1.90Q138.27 1.34 137.82 0.51Q137.37-0.31 137.37-1.54L137.37-1.54Q137.37-3.98 138.95-5.35Q140.54-6.72 143.31-6.72L143.31-6.72Q144.90-6.72 146.09-6.36Q147.28-6.00 148.10-5.55L148.10-5.55L147.09-2.89Q146.39-3.28 145.53-3.56Q144.68-3.84 143.56-3.84L143.56-3.84Q140.82-3.84 140.82-1.85L140.82-1.85Q140.82-1.35 141.10-0.97Q141.38-0.59 141.81-0.30Q142.24-0.00 142.79 0.22Q143.34 0.44 143.87 0.64L143.87 0.64Q144.68 0.95 145.56 1.33Q146.44 1.70 147.19 2.33Q147.93 2.96 148.40 3.90Q148.88 4.84 148.88 6.27L148.88 6.27Q148.88 8.70 147.30 10.03Q145.72 11.36 142.50 11.36L142.50 11.36Q140.34 11.36 139.05 10.90Q137.76 10.44 137.12 10.05L137.12 10.05L138.13 7.25Q138.88 7.70 139.93 8.09Q140.98 8.48 142.50 8.48ZM156.27-6.53L156.27-6.53Q159.58-6.53 161.40-5.17Q163.22-3.81 163.22-0.73L163.22-0.73Q163.22 2.38 161.38 3.76Q159.55 5.15 156.19 5.15L156.19 5.15L154.96 5.15L154.96 11L151.51 11L151.51-6.11Q152.02-6.22 152.65-6.30Q153.28-6.39 153.92-6.43Q154.56-6.47 155.18-6.50Q155.80-6.53 156.27-6.53ZM156.66-3.53L156.66-3.53Q156.36-3.53 155.81-3.52Q155.26-3.50 154.96-3.45L154.96-3.45L154.96 2.15L156.36 2.15Q158.01 2.15 158.85 1.49Q159.69 0.84 159.69-0.76L159.69-0.76Q159.69-2.27 158.86-2.90Q158.04-3.53 156.66-3.53Z"/>
    </g>
</svg>