<?xml version="1.0" encoding="UTF-8"?>
<svg height="26" width="106.8" version="1.1" xmlns="http://www.w3.org/2000/svg"><!--Created by Josélio de S. C. Júnior - 2021 - https://github.com/joseliojunior -->
    <rect
        height="24"
        width="104.8"
        rx="12"
        ry="12"
        x="1" y="1"
        fill="#e5cd45"
        stroke="#7d6d12"
        stroke-width="1" />
    <g transform="translate(0, 8)">
        <path fill="#7d6d12" d="M22.43 5.04L22.43 5.04Q22.43 5.76 22.49 6.39Q22.54 7.02 22.71 7.49Q22.88 7.95 23.18 8.22Q23.49 8.50 24 8.50L24 8.50Q24.50 8.50 24.81 8.22Q25.12 7.95 25.29 7.48Q25.46 7.01 25.51 6.38Q25.57 5.76 25.57 5.04L25.57 5.04Q25.57 4.32 25.51 3.69Q25.46 3.06 25.29 2.59Q25.12 2.13 24.82 1.86Q24.51 1.58 24 1.58L24 1.58Q23.49 1.58 23.18 1.86Q22.88 2.13 22.71 2.60Q22.54 3.07 22.49 3.70Q22.43 4.32 22.43 5.04ZM20.43 5.04L20.43 5.04Q20.43 2.48 21.38 1.18Q22.32-0.13 24-0.13L24-0.13Q25.74-0.13 26.66 1.18Q27.57 2.48 27.57 5.04L27.57 5.04Q27.57 7.60 26.64 8.90Q25.71 10.21 24.02 10.21L24.02 10.21Q22.27 10.21 21.35 8.90Q20.43 7.60 20.43 5.04ZM33.50 6.30L33.50 6.30Q33.50 5.30 33.10 4.65Q32.70 4 31.89 4L31.89 4Q31.66 4 31.41 4.02Q31.15 4.05 30.98 4.06L30.98 4.06L30.98 8.19Q31.17 8.32 31.49 8.40Q31.81 8.48 32.13 8.48L32.13 8.48Q32.83 8.48 33.17 7.91Q33.50 7.34 33.50 6.30ZM35.50 6.24L35.50 6.24Q35.50 7.10 35.31 7.83Q35.12 8.56 34.75 9.08Q34.38 9.60 33.82 9.89Q33.26 10.18 32.53 10.18L32.53 10.18Q31.78 10.18 30.98 9.81L30.98 9.81L30.98 12.64L29.01 12.64L29.01 2.72Q29.55 2.54 30.34 2.43Q31.14 2.32 31.90 2.32L31.90 2.32Q33.65 2.32 34.58 3.38Q35.50 4.43 35.50 6.24ZM36.50 6.30L36.50 6.30Q36.50 5.31 36.80 4.56Q37.10 3.81 37.60 3.30Q38.10 2.80 38.74 2.54Q39.38 2.29 40.05 2.29L40.05 2.29Q41.71 2.29 42.58 3.27Q43.44 4.26 43.44 6.14L43.44 6.14Q43.44 6.34 43.43 6.54Q43.42 6.75 43.41 6.88L43.41 6.88L38.53 6.88Q38.53 7.62 39.14 8.04Q39.74 8.46 40.70 8.46L40.70 8.46Q41.30 8.46 41.83 8.34Q42.37 8.21 42.74 8.08L42.74 8.08L43.01 9.76Q42.50 9.94 41.92 10.06Q41.34 10.18 40.62 10.18L40.62 10.18Q39.66 10.18 38.90 9.93Q38.14 9.68 37.61 9.19Q37.07 8.70 36.78 7.98Q36.50 7.26 36.50 6.30ZM38.53 5.52L41.54 5.52Q41.54 5.22 41.46 4.94Q41.38 4.66 41.20 4.43Q41.02 4.21 40.75 4.07Q40.48 3.94 40.08 3.94L40.08 3.94Q39.70 3.94 39.42 4.06Q39.14 4.19 38.95 4.42Q38.77 4.64 38.66 4.93Q38.56 5.22 38.53 5.52L38.53 5.52ZM45.01 10L45.01 2.72Q45.54 2.58 46.31 2.45Q47.09 2.32 48 2.32L48 2.32Q48.90 2.32 49.49 2.57Q50.08 2.82 50.42 3.27Q50.77 3.73 50.91 4.36Q51.06 4.99 51.06 5.76L51.06 5.76L51.06 10L49.09 10L49.09 6.02Q49.09 4.96 48.85 4.50Q48.61 4.03 47.87 4.03L47.87 4.03Q47.65 4.03 47.43 4.05Q47.22 4.06 46.98 4.10L46.98 4.10L46.98 10L45.01 10ZM55.71 8.56L55.71 8.56Q56.21 8.56 56.54 8.46Q56.86 8.35 57.06 8.17Q57.25 7.98 57.32 7.75Q57.39 7.52 57.39 7.28L57.39 7.28Q57.39 6.98 57.22 6.74Q57.04 6.50 56.77 6.31Q56.50 6.13 56.16 5.98Q55.82 5.82 55.49 5.70L55.49 5.70Q55.04 5.54 54.56 5.33Q54.08 5.12 53.69 4.80Q53.30 4.48 53.04 4.01Q52.78 3.54 52.78 2.83L52.78 2.83Q52.78 1.44 53.69 0.66Q54.59-0.13 56.18-0.13L56.18-0.13Q57.09-0.13 57.77 0.08Q58.45 0.29 58.91 0.54L58.91 0.54L58.34 2.06Q57.94 1.84 57.45 1.68Q56.96 1.52 56.32 1.52L56.32 1.52Q54.75 1.52 54.75 2.66L54.75 2.66Q54.75 2.94 54.91 3.16Q55.07 3.38 55.32 3.54Q55.57 3.71 55.88 3.84Q56.19 3.97 56.50 4.08L56.50 4.08Q56.96 4.26 57.46 4.47Q57.97 4.69 58.39 5.05Q58.82 5.41 59.09 5.94Q59.36 6.48 59.36 7.30L59.36 7.30Q59.36 8.69 58.46 9.45Q57.55 10.21 55.71 10.21L55.71 10.21Q54.48 10.21 53.74 9.94Q53.01 9.68 52.64 9.46L52.64 9.46L53.22 7.86Q53.65 8.11 54.25 8.34Q54.85 8.56 55.71 8.56ZM64.74 10.21L64.74 10.21Q62.64 10.21 61.54 8.86Q60.43 7.52 60.43 5.04L60.43 5.04Q60.43 3.81 60.77 2.85Q61.10 1.89 61.70 1.22Q62.30 0.56 63.13 0.22Q63.95-0.13 64.93-0.13L64.93-0.13Q65.46-0.13 65.88-0.04Q66.30 0.05 66.62 0.16Q66.94 0.27 67.16 0.40Q67.38 0.53 67.49 0.59L67.49 0.59L66.98 2.16Q66.61 1.92 66.09 1.75Q65.57 1.58 64.90 1.58L64.90 1.58Q64.43 1.58 63.99 1.75Q63.55 1.92 63.21 2.31Q62.86 2.70 62.65 3.36Q62.43 4.02 62.43 4.99L62.43 4.99Q62.43 6.69 63.02 7.59Q63.60 8.50 64.93 8.50L64.93 8.50Q65.70 8.50 66.20 8.32Q66.70 8.14 67.01 7.97L67.01 7.97L67.50 9.52Q67.09 9.78 66.38 9.99Q65.66 10.21 64.74 10.21ZM75.86 10L73.74 10L73.28 7.71L70.64 7.71L70.19 10L68.14 10Q68.85 7.07 69.57 4.66Q70.29 2.26 70.96 0.10L70.96 0.10L73.10 0.10Q73.81 2.27 74.50 4.71Q75.20 7.15 75.86 10L75.86 10ZM71.98 2.02L71.98 2.02Q71.82 2.58 71.69 3.08Q71.55 3.58 71.43 4.07Q71.31 4.56 71.21 5.06Q71.10 5.55 71.01 6.08L71.01 6.08L72.94 6.08Q72.85 5.55 72.75 5.06Q72.66 4.56 72.54 4.07Q72.42 3.58 72.28 3.08Q72.14 2.58 71.98 2.02ZM78.83 1.74L78.83 8.40Q78.91 8.42 79.01 8.42Q79.10 8.42 79.18 8.42L79.18 8.42Q79.86 8.42 80.31 8.16Q80.77 7.90 81.05 7.46Q81.33 7.01 81.45 6.39Q81.57 5.78 81.57 5.04L81.57 5.04Q81.57 4.40 81.47 3.79Q81.38 3.18 81.14 2.72Q80.90 2.26 80.48 1.98Q80.06 1.70 79.41 1.70L79.41 1.70Q79.28 1.70 79.12 1.70Q78.96 1.71 78.83 1.74L78.83 1.74ZM83.57 5.04L83.57 5.04Q83.57 6.42 83.22 7.38Q82.88 8.35 82.27 8.96Q81.66 9.57 80.82 9.85Q79.98 10.13 78.98 10.13L78.98 10.13Q78.45 10.13 77.94 10.07Q77.44 10.02 76.86 9.89L76.86 9.89L76.86 0.22Q77.54 0.08 78.13 0.03Q78.72-0.02 79.23-0.02L79.23-0.02Q80.21-0.02 81.02 0.27Q81.82 0.56 82.38 1.18Q82.94 1.79 83.26 2.74Q83.57 3.70 83.57 5.04Z"/>
    </g>
</svg>