<?xml version="1.0" encoding="UTF-8"?>
<svg height="34" width="138.8" version="1.1" xmlns="http://www.w3.org/2000/svg"><!--Created by Josélio de S. C. Júnior - 2021 - https://github.com/joseliojunior -->
    <rect
        height="32"
        width="136.8"
        rx="1"
        ry="1"
        x="1" y="1"
        fill="#e5cd45"
        stroke="#7d6d12"
        stroke-width="1" />
    <g transform="translate(0, 12)">
        <path fill="#7d6d12" stroke="none" d="M23.65 4.56L23.65 4.56Q23.65 5.64 23.73 6.59Q23.82 7.54 24.07 8.23Q24.32 8.93 24.78 9.34Q25.23 9.74 26 9.74L26 9.74Q26.74 9.74 27.21 9.34Q27.68 8.93 27.93 8.22Q28.18 7.51 28.27 6.58Q28.35 5.64 28.35 4.56L28.35 4.56Q28.35 3.48 28.27 2.53Q28.18 1.58 27.93 0.89Q27.68 0.19 27.22-0.22Q26.77-0.62 26-0.62L26-0.62Q25.23-0.62 24.78-0.22Q24.32 0.19 24.07 0.90Q23.82 1.61 23.73 2.54Q23.65 3.48 23.65 4.56ZM20.65 4.56L20.65 4.56Q20.65 0.72 22.06-1.24Q23.48-3.19 26-3.19L26-3.19Q28.62-3.19 29.98-1.24Q31.35 0.72 31.35 4.56L31.35 4.56Q31.35 8.40 29.96 10.36Q28.57 12.31 26.02 12.31L26.02 12.31Q23.41 12.31 22.03 10.36Q20.65 8.40 20.65 4.56ZM40.26 6.46L40.26 6.46Q40.26 4.94 39.66 3.97Q39.06 3 37.83 3L37.83 3Q37.50 3 37.11 3.04Q36.73 3.07 36.46 3.10L36.46 3.10L36.46 9.29Q36.75 9.48 37.23 9.60Q37.71 9.72 38.19 9.72L38.19 9.72Q39.25 9.72 39.75 8.87Q40.26 8.02 40.26 6.46ZM43.26 6.36L43.26 6.36Q43.26 7.66 42.97 8.75Q42.68 9.84 42.13 10.62Q41.58 11.40 40.74 11.83Q39.90 12.26 38.79 12.26L38.79 12.26Q37.66 12.26 36.46 11.71L36.46 11.71L36.46 15.96L33.51 15.96L33.51 1.08Q34.33 0.82 35.52 0.65Q36.70 0.48 37.86 0.48L37.86 0.48Q40.47 0.48 41.86 2.06Q43.26 3.65 43.26 6.36ZM44.74 6.46L44.74 6.46Q44.74 4.97 45.20 3.84Q45.66 2.71 46.40 1.96Q47.14 1.20 48.10 0.82Q49.06 0.43 50.07 0.43L50.07 0.43Q52.57 0.43 53.86 1.91Q55.16 3.38 55.16 6.22L55.16 6.22Q55.16 6.50 55.15 6.82Q55.14 7.13 55.11 7.32L55.11 7.32L47.79 7.32Q47.79 8.42 48.70 9.06Q49.62 9.70 51.06 9.70L51.06 9.70Q51.94 9.70 52.75 9.50Q53.55 9.31 54.10 9.12L54.10 9.12L54.51 11.64Q53.74 11.90 52.88 12.08Q52.02 12.26 50.94 12.26L50.94 12.26Q49.50 12.26 48.36 11.89Q47.22 11.52 46.41 10.79Q45.61 10.06 45.18 8.98Q44.74 7.90 44.74 6.46ZM47.79 5.28L52.30 5.28Q52.30 4.82 52.18 4.40Q52.06 3.98 51.80 3.65Q51.54 3.31 51.13 3.11Q50.72 2.90 50.12 2.90L50.12 2.90Q49.54 2.90 49.12 3.10Q48.70 3.29 48.43 3.62Q48.15 3.96 48.00 4.39Q47.84 4.82 47.79 5.28L47.79 5.28ZM57.51 12L57.51 1.08Q58.30 0.86 59.47 0.67Q60.63 0.48 62 0.48L62 0.48Q63.34 0.48 64.23 0.85Q65.12 1.22 65.64 1.91Q66.15 2.59 66.37 3.54Q66.58 4.49 66.58 5.64L66.58 5.64L66.58 12L63.63 12L63.63 6.02Q63.63 4.44 63.27 3.74Q62.91 3.05 61.81 3.05L61.81 3.05Q61.47 3.05 61.15 3.07Q60.82 3.10 60.46 3.14L60.46 3.14L60.46 12L57.51 12ZM73.57 9.84L73.57 9.84Q74.31 9.84 74.80 9.68Q75.30 9.53 75.58 9.25Q75.87 8.98 75.98 8.63Q76.09 8.28 76.09 7.92L76.09 7.92Q76.09 7.46 75.82 7.10Q75.56 6.74 75.15 6.47Q74.74 6.19 74.24 5.96Q73.74 5.74 73.23 5.54L73.23 5.54Q72.56 5.30 71.84 4.99Q71.12 4.68 70.53 4.20Q69.94 3.72 69.56 3.01Q69.18 2.30 69.18 1.25L69.18 1.25Q69.18-0.84 70.53-2.02Q71.89-3.19 74.26-3.19L74.26-3.19Q75.63-3.19 76.65-2.88Q77.67-2.57 78.37-2.18L78.37-2.18L77.50 0.10Q76.90-0.24 76.17-0.48Q75.44-0.72 74.48-0.72L74.48-0.72Q72.13-0.72 72.13 0.98L72.13 0.98Q72.13 1.42 72.37 1.74Q72.61 2.06 72.98 2.32Q73.35 2.57 73.82 2.76Q74.29 2.95 74.74 3.12L74.74 3.12Q75.44 3.38 76.20 3.71Q76.95 4.03 77.59 4.57Q78.22 5.11 78.63 5.92Q79.04 6.72 79.04 7.94L79.04 7.94Q79.04 10.03 77.68 11.17Q76.33 12.31 73.57 12.31L73.57 12.31Q71.72 12.31 70.62 11.92Q69.51 11.52 68.96 11.18L68.96 11.18L69.82 8.78Q70.47 9.17 71.37 9.50Q72.27 9.84 73.57 9.84ZM87.10 12.31L87.10 12.31Q83.96 12.31 82.30 10.30Q80.65 8.28 80.65 4.56L80.65 4.56Q80.65 2.71 81.15 1.27Q81.66-0.17 82.56-1.16Q83.46-2.16 84.69-2.68Q85.93-3.19 87.39-3.19L87.39-3.19Q88.18-3.19 88.82-3.06Q89.46-2.93 89.94-2.76Q90.42-2.59 90.74-2.40Q91.06-2.21 91.23-2.11L91.23-2.11L90.46 0.24Q89.91-0.12 89.13-0.37Q88.35-0.62 87.34-0.62L87.34-0.62Q86.65-0.62 85.99-0.37Q85.33-0.12 84.81 0.47Q84.30 1.06 83.97 2.04Q83.65 3.02 83.65 4.49L83.65 4.49Q83.65 7.03 84.52 8.39Q85.40 9.74 87.39 9.74L87.39 9.74Q88.54 9.74 89.30 9.48Q90.06 9.22 90.51 8.95L90.51 8.95L91.26 11.28Q90.63 11.66 89.56 11.99Q88.50 12.31 87.10 12.31ZM103.78 12L100.62 12L99.92 8.57L95.96 8.57L95.29 12L92.22 12Q93.27 7.61 94.35 4.00Q95.43 0.38 96.44-2.86L96.44-2.86L99.66-2.86Q100.71 0.41 101.76 4.07Q102.80 7.73 103.78 12L103.78 12ZM97.98 0.02L97.98 0.02Q97.74 0.86 97.53 1.62Q97.33 2.38 97.15 3.11Q96.97 3.84 96.81 4.58Q96.66 5.33 96.51 6.12L96.51 6.12L99.42 6.12Q99.27 5.33 99.13 4.58Q98.98 3.84 98.80 3.11Q98.62 2.38 98.42 1.62Q98.22 0.86 97.98 0.02ZM108.25-0.38L108.25 9.60Q108.37 9.62 108.51 9.62Q108.66 9.62 108.78 9.62L108.78 9.62Q109.78 9.62 110.47 9.24Q111.15 8.86 111.57 8.18Q111.99 7.51 112.17 6.59Q112.35 5.66 112.35 4.56L112.35 4.56Q112.35 3.60 112.21 2.69Q112.06 1.78 111.70 1.08Q111.34 0.38 110.72-0.04Q110.10-0.46 109.11-0.46L109.11-0.46Q108.92-0.46 108.68-0.44Q108.44-0.43 108.25-0.38L108.25-0.38ZM115.35 4.56L115.35 4.56Q115.35 6.62 114.84 8.08Q114.32 9.53 113.41 10.44Q112.50 11.35 111.24 11.77Q109.98 12.19 108.46 12.19L108.46 12.19Q107.67 12.19 106.92 12.11Q106.16 12.02 105.30 11.83L105.30 11.83L105.30-2.66Q106.30-2.88 107.19-2.95Q108.08-3.02 108.85-3.02L108.85-3.02Q110.31-3.02 111.52-2.59Q112.74-2.16 113.58-1.24Q114.42-0.31 114.88 1.12Q115.35 2.54 115.35 4.56Z"/>
    </g>
</svg>